<svg version="1.1" viewBox="0 0 1024 1024" xmlns="http://www.w3.org/2000/svg">
  <g stroke="lightgray" stroke-dasharray="1,1" stroke-width="1" transform="scale(4, 4)">
    <line x1="0" y1="0" x2="256" y2="256"></line>
    <line x1="256" y1="0" x2="0" y2="256"></line>
    <line x1="128" y1="0" x2="128" y2="256"></line>
    <line x1="0" y1="128" x2="256" y2="128"></line>
  </g>
  <g transform="scale(1, -1) translate(0, -900)">
    <style type="text/css">
      
        @keyframes keyframes0 {
          from {
            stroke: blue;
            stroke-dashoffset: 472;
            stroke-width: 128;
          }
          61% {
            animation-timing-function: step-end;
            stroke: blue;
            stroke-dashoffset: 0;
            stroke-width: 128;
          }
          to {
            stroke: black;
            stroke-width: 1024;
          }
        }
        #make-me-a-hanzi-animation-0 {
          animation: keyframes0 0.6341145833333334s both;
          animation-delay: 0s;
          animation-timing-function: linear;
        }
      
        @keyframes keyframes1 {
          from {
            stroke: blue;
            stroke-dashoffset: 897;
            stroke-width: 128;
          }
          74% {
            animation-timing-function: step-end;
            stroke: blue;
            stroke-dashoffset: 0;
            stroke-width: 128;
          }
          to {
            stroke: black;
            stroke-width: 1024;
          }
        }
        #make-me-a-hanzi-animation-1 {
          animation: keyframes1 0.97998046875s both;
          animation-delay: 0.6341145833333334s;
          animation-timing-function: linear;
        }
      
        @keyframes keyframes2 {
          from {
            stroke: blue;
            stroke-dashoffset: 700;
            stroke-width: 128;
          }
          69% {
            animation-timing-function: step-end;
            stroke: blue;
            stroke-dashoffset: 0;
            stroke-width: 128;
          }
          to {
            stroke: black;
            stroke-width: 1024;
          }
        }
        #make-me-a-hanzi-animation-2 {
          animation: keyframes2 0.8196614583333334s both;
          animation-delay: 1.6140950520833335s;
          animation-timing-function: linear;
        }
      
        @keyframes keyframes3 {
          from {
            stroke: blue;
            stroke-dashoffset: 366;
            stroke-width: 128;
          }
          54% {
            animation-timing-function: step-end;
            stroke: blue;
            stroke-dashoffset: 0;
            stroke-width: 128;
          }
          to {
            stroke: black;
            stroke-width: 1024;
          }
        }
        #make-me-a-hanzi-animation-3 {
          animation: keyframes3 0.5478515625s both;
          animation-delay: 2.433756510416667s;
          animation-timing-function: linear;
        }
      
        @keyframes keyframes4 {
          from {
            stroke: blue;
            stroke-dashoffset: 388;
            stroke-width: 128;
          }
          56% {
            animation-timing-function: step-end;
            stroke: blue;
            stroke-dashoffset: 0;
            stroke-width: 128;
          }
          to {
            stroke: black;
            stroke-width: 1024;
          }
        }
        #make-me-a-hanzi-animation-4 {
          animation: keyframes4 0.5657552083333334s both;
          animation-delay: 2.981608072916667s;
          animation-timing-function: linear;
        }
      
        @keyframes keyframes5 {
          from {
            stroke: blue;
            stroke-dashoffset: 794;
            stroke-width: 128;
          }
          72% {
            animation-timing-function: step-end;
            stroke: blue;
            stroke-dashoffset: 0;
            stroke-width: 128;
          }
          to {
            stroke: black;
            stroke-width: 1024;
          }
        }
        #make-me-a-hanzi-animation-5 {
          animation: keyframes5 0.8961588541666666s both;
          animation-delay: 3.5473632812500004s;
          animation-timing-function: linear;
        }
      
    </style>
    
      <path d="M 249 651 Q 277 675 354 752 Q 369 770 390 783 Q 408 796 395 810 Q 380 823 354 833 Q 329 842 318 838 Q 306 834 313 822 Q 320 800 239 663 Q 238 662 236 658 C 221 632 226 631 249 651 Z" fill="lightgray"></path>
    
      <path d="M 225 313 Q 238 376 244 408 L 247 431 Q 251 473 253 513 L 255 540 Q 258 604 261 613 C 265 640 265 640 257 645 Q 253 649 249 651 L 236 658 Q 199 676 187 670 Q 177 663 183 651 Q 202 627 203 562 Q 203 394 173 283 Q 146 199 81 77 Q 77 70 75 65 Q 74 55 83 57 Q 114 64 178 181 Q 187 202 198 226 Q 208 256 218 288 L 225 313 Z" fill="lightgray"></path>
    
      <path d="M 376 431 Q 391 409 405 402 Q 415 395 428 414 Q 441 439 470 580 Q 477 608 497 630 Q 507 640 497 653 Q 484 668 446 689 Q 437 692 285 655 Q 270 651 257 645 C 229 634 235 599 261 613 Q 271 625 391 649 Q 409 653 415 647 Q 428 632 425 616 Q 400 469 383 456 C 371 437 371 437 376 431 Z" fill="lightgray"></path>
    
      <path d="M 253 513 Q 313 526 358 535 Q 377 539 369 550 Q 359 560 338 563 Q 311 566 255 540 C 228 527 224 507 253 513 Z" fill="lightgray"></path>
    
      <path d="M 244 408 Q 248 408 256 409 Q 322 422 376 431 C 406 436 411 445 383 456 Q 377 459 369 460 Q 348 461 247 431 C 218 422 214 407 244 408 Z" fill="lightgray"></path>
    
      <path d="M 218 288 Q 219 288 220 288 Q 238 276 266 285 Q 368 319 373 309 Q 382 296 376 260 Q 363 164 339 122 Q 323 97 301 101 Q 277 110 257 120 Q 236 129 250 107 Q 287 65 305 34 Q 321 15 339 30 Q 390 67 415 184 Q 430 289 447 308 Q 457 318 452 328 Q 445 338 399 357 Q 386 363 342 343 Q 284 328 225 313 C 196 306 190 298 218 288 Z" fill="lightgray"></path>
    
    
      <clipPath id="make-me-a-hanzi-clip-0">
        <path d="M 249 651 Q 277 675 354 752 Q 369 770 390 783 Q 408 796 395 810 Q 380 823 354 833 Q 329 842 318 838 Q 306 834 313 822 Q 320 800 239 663 Q 238 662 236 658 C 221 632 226 631 249 651 Z"></path>
      </clipPath>
      <path clip-path="url(#make-me-a-hanzi-clip-0)" d="M 320 829 L 347 796 L 244 657" fill="none" id="make-me-a-hanzi-animation-0" stroke-dasharray="344 688" stroke-linecap="round"></path>
    
      <clipPath id="make-me-a-hanzi-clip-1">
        <path d="M 225 313 Q 238 376 244 408 L 247 431 Q 251 473 253 513 L 255 540 Q 258 604 261 613 C 265 640 265 640 257 645 Q 253 649 249 651 L 236 658 Q 199 676 187 670 Q 177 663 183 651 Q 202 627 203 562 Q 203 394 173 283 Q 146 199 81 77 Q 77 70 75 65 Q 74 55 83 57 Q 114 64 178 181 Q 187 202 198 226 Q 208 256 218 288 L 225 313 Z"></path>
      </clipPath>
      <path clip-path="url(#make-me-a-hanzi-clip-1)" d="M 193 659 L 218 640 L 228 625 L 230 606 L 224 440 L 212 358 L 193 275 L 156 179 L 115 107 L 83 65" fill="none" id="make-me-a-hanzi-animation-1" stroke-dasharray="769 1538" stroke-linecap="round"></path>
    
      <clipPath id="make-me-a-hanzi-clip-2">
        <path d="M 376 431 Q 391 409 405 402 Q 415 395 428 414 Q 441 439 470 580 Q 477 608 497 630 Q 507 640 497 653 Q 484 668 446 689 Q 437 692 285 655 Q 270 651 257 645 C 229 634 235 599 261 613 Q 271 625 391 649 Q 409 653 415 647 Q 428 632 425 616 Q 400 469 383 456 C 371 437 371 437 376 431 Z"></path>
      </clipPath>
      <path clip-path="url(#make-me-a-hanzi-clip-2)" d="M 266 622 L 273 636 L 301 647 L 388 665 L 429 665 L 453 648 L 459 639 L 430 508 L 407 437 L 411 418" fill="none" id="make-me-a-hanzi-animation-2" stroke-dasharray="572 1144" stroke-linecap="round"></path>
    
      <clipPath id="make-me-a-hanzi-clip-3">
        <path d="M 253 513 Q 313 526 358 535 Q 377 539 369 550 Q 359 560 338 563 Q 311 566 255 540 C 228 527 224 507 253 513 Z"></path>
      </clipPath>
      <path clip-path="url(#make-me-a-hanzi-clip-3)" d="M 260 519 L 269 532 L 301 541 L 341 548 L 361 544" fill="none" id="make-me-a-hanzi-animation-3" stroke-dasharray="238 476" stroke-linecap="round"></path>
    
      <clipPath id="make-me-a-hanzi-clip-4">
        <path d="M 244 408 Q 248 408 256 409 Q 322 422 376 431 C 406 436 411 445 383 456 Q 377 459 369 460 Q 348 461 247 431 C 218 422 214 407 244 408 Z"></path>
      </clipPath>
      <path clip-path="url(#make-me-a-hanzi-clip-4)" d="M 250 413 L 260 423 L 360 444 L 374 452" fill="none" id="make-me-a-hanzi-animation-4" stroke-dasharray="260 520" stroke-linecap="round"></path>
    
      <clipPath id="make-me-a-hanzi-clip-5">
        <path d="M 218 288 Q 219 288 220 288 Q 238 276 266 285 Q 368 319 373 309 Q 382 296 376 260 Q 363 164 339 122 Q 323 97 301 101 Q 277 110 257 120 Q 236 129 250 107 Q 287 65 305 34 Q 321 15 339 30 Q 390 67 415 184 Q 430 289 447 308 Q 457 318 452 328 Q 445 338 399 357 Q 386 363 342 343 Q 284 328 225 313 C 196 306 190 298 218 288 Z"></path>
      </clipPath>
      <path clip-path="url(#make-me-a-hanzi-clip-5)" d="M 230 293 L 359 331 L 390 331 L 410 314 L 388 179 L 372 127 L 351 89 L 327 67 L 291 85 L 261 110" fill="none" id="make-me-a-hanzi-animation-5" stroke-dasharray="666 1332" stroke-linecap="round"></path>
    
  </g>
</svg>