<svg version="1.1" viewBox="0 0 1024 1024" xmlns="http://www.w3.org/2000/svg">
  <g stroke="lightgray" stroke-dasharray="1,1" stroke-width="1" transform="scale(4, 4)">
    <line x1="0" y1="0" x2="256" y2="256"></line>
    <line x1="256" y1="0" x2="0" y2="256"></line>
    <line x1="128" y1="0" x2="128" y2="256"></line>
    <line x1="0" y1="128" x2="256" y2="128"></line>
  </g>
  <g transform="scale(1, -1) translate(0, -900)">
    <style type="text/css">
      
        @keyframes keyframes0 {
          from {
            stroke: blue;
            stroke-dashoffset: 964;
            stroke-width: 128;
          }
          76% {
            animation-timing-function: step-end;
            stroke: blue;
            stroke-dashoffset: 0;
            stroke-width: 128;
          }
          to {
            stroke: black;
            stroke-width: 1024;
          }
        }
        #make-me-a-hanzi-animation-0 {
          animation: keyframes0 1.0345052083333333s both;
          animation-delay: 0s;
          animation-timing-function: linear;
        }
      
        @keyframes keyframes1 {
          from {
            stroke: blue;
            stroke-dashoffset: 579;
            stroke-width: 128;
          }
          65% {
            animation-timing-function: step-end;
            stroke: blue;
            stroke-dashoffset: 0;
            stroke-width: 128;
          }
          to {
            stroke: black;
            stroke-width: 1024;
          }
        }
        #make-me-a-hanzi-animation-1 {
          animation: keyframes1 0.72119140625s both;
          animation-delay: 1.0345052083333333s;
          animation-timing-function: linear;
        }
      
        @keyframes keyframes2 {
          from {
            stroke: blue;
            stroke-dashoffset: 565;
            stroke-width: 128;
          }
          65% {
            animation-timing-function: step-end;
            stroke: blue;
            stroke-dashoffset: 0;
            stroke-width: 128;
          }
          to {
            stroke: black;
            stroke-width: 1024;
          }
        }
        #make-me-a-hanzi-animation-2 {
          animation: keyframes2 0.7097981770833334s both;
          animation-delay: 1.7556966145833333s;
          animation-timing-function: linear;
        }
      
        @keyframes keyframes3 {
          from {
            stroke: blue;
            stroke-dashoffset: 502;
            stroke-width: 128;
          }
          62% {
            animation-timing-function: step-end;
            stroke: blue;
            stroke-dashoffset: 0;
            stroke-width: 128;
          }
          to {
            stroke: black;
            stroke-width: 1024;
          }
        }
        #make-me-a-hanzi-animation-3 {
          animation: keyframes3 0.6585286458333334s both;
          animation-delay: 2.4654947916666665s;
          animation-timing-function: linear;
        }
      
        @keyframes keyframes4 {
          from {
            stroke: blue;
            stroke-dashoffset: 601;
            stroke-width: 128;
          }
          66% {
            animation-timing-function: step-end;
            stroke: blue;
            stroke-dashoffset: 0;
            stroke-width: 128;
          }
          to {
            stroke: black;
            stroke-width: 1024;
          }
        }
        #make-me-a-hanzi-animation-4 {
          animation: keyframes4 0.7390950520833334s both;
          animation-delay: 3.1240234375s;
          animation-timing-function: linear;
        }
      
        @keyframes keyframes5 {
          from {
            stroke: blue;
            stroke-dashoffset: 1432;
            stroke-width: 128;
          }
          82% {
            animation-timing-function: step-end;
            stroke: blue;
            stroke-dashoffset: 0;
            stroke-width: 128;
          }
          to {
            stroke: black;
            stroke-width: 1024;
          }
        }
        #make-me-a-hanzi-animation-5 {
          animation: keyframes5 1.4153645833333333s both;
          animation-delay: 3.8631184895833335s;
          animation-timing-function: linear;
        }
      
        @keyframes keyframes6 {
          from {
            stroke: blue;
            stroke-dashoffset: 731;
            stroke-width: 128;
          }
          70% {
            animation-timing-function: step-end;
            stroke: blue;
            stroke-dashoffset: 0;
            stroke-width: 128;
          }
          to {
            stroke: black;
            stroke-width: 1024;
          }
        }
        #make-me-a-hanzi-animation-6 {
          animation: keyframes6 0.8448893229166666s both;
          animation-delay: 5.278483072916667s;
          animation-timing-function: linear;
        }
      
        @keyframes keyframes7 {
          from {
            stroke: blue;
            stroke-dashoffset: 384;
            stroke-width: 128;
          }
          56% {
            animation-timing-function: step-end;
            stroke: blue;
            stroke-dashoffset: 0;
            stroke-width: 128;
          }
          to {
            stroke: black;
            stroke-width: 1024;
          }
        }
        #make-me-a-hanzi-animation-7 {
          animation: keyframes7 0.5625s both;
          animation-delay: 6.123372395833334s;
          animation-timing-function: linear;
        }
      
        @keyframes keyframes8 {
          from {
            stroke: blue;
            stroke-dashoffset: 445;
            stroke-width: 128;
          }
          59% {
            animation-timing-function: step-end;
            stroke: blue;
            stroke-dashoffset: 0;
            stroke-width: 128;
          }
          to {
            stroke: black;
            stroke-width: 1024;
          }
        }
        #make-me-a-hanzi-animation-8 {
          animation: keyframes8 0.6121419270833334s both;
          animation-delay: 6.685872395833334s;
          animation-timing-function: linear;
        }
      
        @keyframes keyframes9 {
          from {
            stroke: blue;
            stroke-dashoffset: 382;
            stroke-width: 128;
          }
          55% {
            animation-timing-function: step-end;
            stroke: blue;
            stroke-dashoffset: 0;
            stroke-width: 128;
          }
          to {
            stroke: black;
            stroke-width: 1024;
          }
        }
        #make-me-a-hanzi-animation-9 {
          animation: keyframes9 0.5608723958333334s both;
          animation-delay: 7.298014322916667s;
          animation-timing-function: linear;
        }
      
        @keyframes keyframes10 {
          from {
            stroke: blue;
            stroke-dashoffset: 504;
            stroke-width: 128;
          }
          62% {
            animation-timing-function: step-end;
            stroke: blue;
            stroke-dashoffset: 0;
            stroke-width: 128;
          }
          to {
            stroke: black;
            stroke-width: 1024;
          }
        }
        #make-me-a-hanzi-animation-10 {
          animation: keyframes10 0.66015625s both;
          animation-delay: 7.85888671875s;
          animation-timing-function: linear;
        }
      
    </style>
    
      <path d="M 625 647 L 800 661 Q 855 661 861 671 Q 864 680 858 687 Q 857 689 849 696 Q 805 724 755 716 L 681 701 L 639 694 L 584 682 L 365 647 L 318 639 L 153 613 Q 139 612 143 603 Q 167 572 208 580 Q 218 582 223 583 Q 255 598 325 602 L 368 612 L 576 641 L 625 647 Z" fill="lightgray"></path>
    
      <path d="M 365 647 Q 358 678 361 711 L 361 725 Q 365 737 360 744 Q 358 747 353 751 Q 342 759 314 768 Q 294 771 274 760 Q 269 755 273 748 Q 277 743 280 741 Q 301 720 318 639 L 325 602 Q 336 518 343 495 Q 347 470 357 456 Q 361 450 367 451 Q 368 452 370 454 Q 376 460 376 480 L 376 514 Q 376 515 374 547 Q 372 588 368 612 L 365 647 Z" fill="lightgray"></path>
    
      <path d="M 597 549 Q 613 582 625 647 L 639 694 Q 644 733 676 792 Q 680 798 674 808 Q 672 810 666 817 Q 640 839 617 849 Q 604 855 595 849 Q 588 845 589 834 L 590 828 Q 604 796 601 785 L 584 682 L 576 641 Q 574 600 558 549 C 549 520 585 522 597 549 Z" fill="lightgray"></path>
    
      <path d="M 482 499 Q 575 510 615 514 Q 625 515 627 523 Q 627 529 613 539 Q 608 544 599 549 L 597 549 L 558 549 Q 557 550 555 549 L 376 514 C 347 508 347 474 376 480 L 447 494 L 482 499 Z" fill="lightgray"></path>
    
      <path d="M 188 364 Q 184 368 180 368 Q 153 378 135 378 Q 125 374 127 366 Q 167 299 159 186 Q 157 162 153 134 Q 143 79 143 78 Q 143 55 166 31 Q 172 22 179 24 Q 181 24 182 25 Q 216 54 208 137 Q 207 141 207 147 Q 207 307 199 325 C 192 354 190 363 188 364 Z" fill="lightgray"></path>
    
      <path d="M 513 378 Q 647 400 784 408 Q 794 408 797 406 Q 800 404 802 402 Q 810 396 810 357 Q 815 246 808 155 Q 804 110 798 82 Q 795 54 774 57 Q 759 59 711 77 Q 703 82 700 80 Q 699 80 698 77 Q 698 74 700 68 L 706 59 Q 770 -7 784 -37 Q 794 -51 804 -49 Q 817 -48 831 -22 Q 864 42 870 276 Q 870 374 882 398 Q 894 415 890 421 Q 871 441 831 457 Q 813 466 796 463 Q 790 463 783 460 Q 763 451 597 433 Q 552 428 514 419 L 464 412 Q 426 408 398 398 L 188 364 C 158 359 170 317 199 325 Q 206 326 220 330 Q 267 347 465 370 L 513 378 Z" fill="lightgray"></path>
    
      <path d="M 465 370 Q 468 251 463 190 Q 459 157 453 133 Q 447 106 461 74 Q 467 60 478 44 Q 488 25 498 22 Q 504 22 509 26 Q 512 29 514 34 Q 521 53 521 87 Q 521 92 520 94 Q 514 139 513 378 L 514 419 Q 515 462 514 469 Q 514 475 513 478 Q 496 491 482 499 C 457 515 434 521 447 494 Q 457 484 464 412 L 465 370 Z" fill="lightgray"></path>
    
      <path d="M 308 257 Q 308 214 257 159 Q 253 156 251 152 Q 251 149 257 149 Q 284 156 361 216 C 385 234 309 287 308 257 Z" fill="lightgray"></path>
    
      <path d="M 361 216 Q 402 182 409 180 Q 414 179 417 181 Q 419 182 421 184 Q 429 190 426 206 L 423 220 Q 410 257 272 306 Q 265 309 263 302 Q 263 300 308 257 L 361 216 Z" fill="lightgray"></path>
    
      <path d="M 620 261 Q 596 220 539 182 Q 533 180 533 176 Q 532 172 537 172 Q 592 172 657 229 C 680 249 636 287 620 261 Z" fill="lightgray"></path>
    
      <path d="M 657 229 Q 738 159 745 156 Q 751 155 755 157 Q 759 159 760 161 Q 770 168 766 186 Q 765 192 762 200 Q 751 246 569 325 Q 564 327 563 325 Q 560 324 559 321 Q 559 314 620 261 L 657 229 Z" fill="lightgray"></path>
    
    
      <clipPath id="make-me-a-hanzi-clip-0">
        <path d="M 625 647 L 800 661 Q 855 661 861 671 Q 864 680 858 687 Q 857 689 849 696 Q 805 724 755 716 L 681 701 L 639 694 L 584 682 L 365 647 L 318 639 L 153 613 Q 139 612 143 603 Q 167 572 208 580 Q 218 582 223 583 Q 255 598 325 602 L 368 612 L 576 641 L 625 647 Z"></path>
      </clipPath>
      <path clip-path="url(#make-me-a-hanzi-clip-0)" d="M 153 603 L 209 601 L 422 639 L 753 687 L 798 689 L 853 676" fill="none" id="make-me-a-hanzi-animation-0" stroke-dasharray="836 1672" stroke-linecap="round"></path>
    
      <clipPath id="make-me-a-hanzi-clip-1">
        <path d="M 365 647 Q 358 678 361 711 L 361 725 Q 365 737 360 744 Q 358 747 353 751 Q 342 759 314 768 Q 294 771 274 760 Q 269 755 273 748 Q 277 743 280 741 Q 301 720 318 639 L 325 602 Q 336 518 343 495 Q 347 470 357 456 Q 361 450 367 451 Q 368 452 370 454 Q 376 460 376 480 L 376 514 Q 376 515 374 547 Q 372 588 368 612 L 365 647 Z"></path>
      </clipPath>
      <path clip-path="url(#make-me-a-hanzi-clip-1)" d="M 285 753 L 307 745 L 327 727 L 364 457" fill="none" id="make-me-a-hanzi-animation-1" stroke-dasharray="451 902" stroke-linecap="round"></path>
    
      <clipPath id="make-me-a-hanzi-clip-2">
        <path d="M 597 549 Q 613 582 625 647 L 639 694 Q 644 733 676 792 Q 680 798 674 808 Q 672 810 666 817 Q 640 839 617 849 Q 604 855 595 849 Q 588 845 589 834 L 590 828 Q 604 796 601 785 L 584 682 L 576 641 Q 574 600 558 549 C 549 520 585 522 597 549 Z"></path>
      </clipPath>
      <path clip-path="url(#make-me-a-hanzi-clip-2)" d="M 603 837 L 637 795 L 589 583 L 578 562 L 565 556" fill="none" id="make-me-a-hanzi-animation-2" stroke-dasharray="437 874" stroke-linecap="round"></path>
    
      <clipPath id="make-me-a-hanzi-clip-3">
        <path d="M 482 499 Q 575 510 615 514 Q 625 515 627 523 Q 627 529 613 539 Q 608 544 599 549 L 597 549 L 558 549 Q 557 550 555 549 L 376 514 C 347 508 347 474 376 480 L 447 494 L 482 499 Z"></path>
      </clipPath>
      <path clip-path="url(#make-me-a-hanzi-clip-3)" d="M 382 486 L 401 503 L 521 524 L 594 531 L 618 523" fill="none" id="make-me-a-hanzi-animation-3" stroke-dasharray="374 748" stroke-linecap="round"></path>
    
      <clipPath id="make-me-a-hanzi-clip-4">
        <path d="M 188 364 Q 184 368 180 368 Q 153 378 135 378 Q 125 374 127 366 Q 167 299 159 186 Q 157 162 153 134 Q 143 79 143 78 Q 143 55 166 31 Q 172 22 179 24 Q 181 24 182 25 Q 216 54 208 137 Q 207 141 207 147 Q 207 307 199 325 C 192 354 190 363 188 364 Z"></path>
      </clipPath>
      <path clip-path="url(#make-me-a-hanzi-clip-4)" d="M 140 366 L 166 345 L 180 290 L 185 207 L 177 36" fill="none" id="make-me-a-hanzi-animation-4" stroke-dasharray="473 946" stroke-linecap="round"></path>
    
      <clipPath id="make-me-a-hanzi-clip-5">
        <path d="M 513 378 Q 647 400 784 408 Q 794 408 797 406 Q 800 404 802 402 Q 810 396 810 357 Q 815 246 808 155 Q 804 110 798 82 Q 795 54 774 57 Q 759 59 711 77 Q 703 82 700 80 Q 699 80 698 77 Q 698 74 700 68 L 706 59 Q 770 -7 784 -37 Q 794 -51 804 -49 Q 817 -48 831 -22 Q 864 42 870 276 Q 870 374 882 398 Q 894 415 890 421 Q 871 441 831 457 Q 813 466 796 463 Q 790 463 783 460 Q 763 451 597 433 Q 552 428 514 419 L 464 412 Q 426 408 398 398 L 188 364 C 158 359 170 317 199 325 Q 206 326 220 330 Q 267 347 465 370 L 513 378 Z"></path>
      </clipPath>
      <path clip-path="url(#make-me-a-hanzi-clip-5)" d="M 202 333 L 212 349 L 228 353 L 612 416 L 803 435 L 826 425 L 844 408 L 842 241 L 834 121 L 820 48 L 800 18 L 721 58 L 705 75" fill="none" id="make-me-a-hanzi-animation-5" stroke-dasharray="1304 2608" stroke-linecap="round"></path>
    
      <clipPath id="make-me-a-hanzi-clip-6">
        <path d="M 465 370 Q 468 251 463 190 Q 459 157 453 133 Q 447 106 461 74 Q 467 60 478 44 Q 488 25 498 22 Q 504 22 509 26 Q 512 29 514 34 Q 521 53 521 87 Q 521 92 520 94 Q 514 139 513 378 L 514 419 Q 515 462 514 469 Q 514 475 513 478 Q 496 491 482 499 C 457 515 434 521 447 494 Q 457 484 464 412 L 465 370 Z"></path>
      </clipPath>
      <path clip-path="url(#make-me-a-hanzi-clip-6)" d="M 453 494 L 477 476 L 487 458 L 491 250 L 484 114 L 500 35" fill="none" id="make-me-a-hanzi-animation-6" stroke-dasharray="603 1206" stroke-linecap="round"></path>
    
      <clipPath id="make-me-a-hanzi-clip-7">
        <path d="M 308 257 Q 308 214 257 159 Q 253 156 251 152 Q 251 149 257 149 Q 284 156 361 216 C 385 234 309 287 308 257 Z"></path>
      </clipPath>
      <path clip-path="url(#make-me-a-hanzi-clip-7)" d="M 311 250 L 322 213 L 296 184 L 256 154" fill="none" id="make-me-a-hanzi-animation-7" stroke-dasharray="256 512" stroke-linecap="round"></path>
    
      <clipPath id="make-me-a-hanzi-clip-8">
        <path d="M 361 216 Q 402 182 409 180 Q 414 179 417 181 Q 419 182 421 184 Q 429 190 426 206 L 423 220 Q 410 257 272 306 Q 265 309 263 302 Q 263 300 308 257 L 361 216 Z"></path>
      </clipPath>
      <path clip-path="url(#make-me-a-hanzi-clip-8)" d="M 268 303 L 283 299 L 287 289 L 303 283 L 306 275 L 378 233 L 404 209 L 412 192" fill="none" id="make-me-a-hanzi-animation-8" stroke-dasharray="317 634" stroke-linecap="round"></path>
    
      <clipPath id="make-me-a-hanzi-clip-9">
        <path d="M 620 261 Q 596 220 539 182 Q 533 180 533 176 Q 532 172 537 172 Q 592 172 657 229 C 680 249 636 287 620 261 Z"></path>
      </clipPath>
      <path clip-path="url(#make-me-a-hanzi-clip-9)" d="M 621 253 L 624 228 L 612 217 L 577 193 L 538 177" fill="none" id="make-me-a-hanzi-animation-9" stroke-dasharray="254 508" stroke-linecap="round"></path>
    
      <clipPath id="make-me-a-hanzi-clip-10">
        <path d="M 657 229 Q 738 159 745 156 Q 751 155 755 157 Q 759 159 760 161 Q 770 168 766 186 Q 765 192 762 200 Q 751 246 569 325 Q 564 327 563 325 Q 560 324 559 321 Q 559 314 620 261 L 657 229 Z"></path>
      </clipPath>
      <path clip-path="url(#make-me-a-hanzi-clip-10)" d="M 563 321 L 579 315 L 587 304 L 714 217 L 743 187 L 749 166" fill="none" id="make-me-a-hanzi-animation-10" stroke-dasharray="376 752" stroke-linecap="round"></path>
    
  </g>
</svg>