<svg version="1.1" viewBox="0 0 1024 1024" xmlns="http://www.w3.org/2000/svg">
  <g stroke="lightgray" stroke-dasharray="1,1" stroke-width="1" transform="scale(4, 4)">
    <line x1="0" y1="0" x2="256" y2="256"></line>
    <line x1="256" y1="0" x2="0" y2="256"></line>
    <line x1="128" y1="0" x2="128" y2="256"></line>
    <line x1="0" y1="128" x2="256" y2="128"></line>
  </g>
  <g transform="scale(1, -1) translate(0, -900)">
    <style type="text/css">
      
        @keyframes keyframes0 {
          from {
            stroke: blue;
            stroke-dashoffset: 883;
            stroke-width: 128;
          }
          74% {
            animation-timing-function: step-end;
            stroke: blue;
            stroke-dashoffset: 0;
            stroke-width: 128;
          }
          to {
            stroke: black;
            stroke-width: 1024;
          }
        }
        #make-me-a-hanzi-animation-0 {
          animation: keyframes0 0.9685872395833334s both;
          animation-delay: 0s;
          animation-timing-function: linear;
        }
      
        @keyframes keyframes1 {
          from {
            stroke: blue;
            stroke-dashoffset: 1151;
            stroke-width: 128;
          }
          79% {
            animation-timing-function: step-end;
            stroke: blue;
            stroke-dashoffset: 0;
            stroke-width: 128;
          }
          to {
            stroke: black;
            stroke-width: 1024;
          }
        }
        #make-me-a-hanzi-animation-1 {
          animation: keyframes1 1.1866861979166667s both;
          animation-delay: 0.9685872395833334s;
          animation-timing-function: linear;
        }
      
        @keyframes keyframes2 {
          from {
            stroke: blue;
            stroke-dashoffset: 437;
            stroke-width: 128;
          }
          59% {
            animation-timing-function: step-end;
            stroke: blue;
            stroke-dashoffset: 0;
            stroke-width: 128;
          }
          to {
            stroke: black;
            stroke-width: 1024;
          }
        }
        #make-me-a-hanzi-animation-2 {
          animation: keyframes2 0.6056315104166666s both;
          animation-delay: 2.1552734375s;
          animation-timing-function: linear;
        }
      
        @keyframes keyframes3 {
          from {
            stroke: blue;
            stroke-dashoffset: 454;
            stroke-width: 128;
          }
          60% {
            animation-timing-function: step-end;
            stroke: blue;
            stroke-dashoffset: 0;
            stroke-width: 128;
          }
          to {
            stroke: black;
            stroke-width: 1024;
          }
        }
        #make-me-a-hanzi-animation-3 {
          animation: keyframes3 0.6194661458333334s both;
          animation-delay: 2.7609049479166665s;
          animation-timing-function: linear;
        }
      
        @keyframes keyframes4 {
          from {
            stroke: blue;
            stroke-dashoffset: 1107;
            stroke-width: 128;
          }
          78% {
            animation-timing-function: step-end;
            stroke: blue;
            stroke-dashoffset: 0;
            stroke-width: 128;
          }
          to {
            stroke: black;
            stroke-width: 1024;
          }
        }
        #make-me-a-hanzi-animation-4 {
          animation: keyframes4 1.15087890625s both;
          animation-delay: 3.38037109375s;
          animation-timing-function: linear;
        }
      
    </style>
    
      <path d="M 381 722 Q 360 738 342 747 Q 329 751 319 745 Q 309 741 313 729 Q 323 707 333 691 Q 343 663 344 616 Q 347 564 345 122 C 345 92 394 96 394 126 Q 394 232 394 328 L 394 356 Q 394 434 395 504 L 396 524 Q 396 677 400 686 C 402 707 402 707 381 722 Z" fill="lightgray"></path>
    
      <path d="M 694 151 Q 694 632 723 685 Q 736 721 737 721 Q 727 742 666 778 Q 651 790 570 760 Q 450 730 381 722 C 351 718 371 678 400 686 Q 404 687 409 689 Q 550 723 607 730 Q 631 734 638 726 Q 647 710 646 675 Q 643 371 636 146 C 635 116 694 121 694 151 Z" fill="lightgray"></path>
    
      <path d="M 395 504 Q 431 488 510 504 Q 580 520 584 522 Q 591 529 587 537 Q 580 547 553 554 Q 525 558 499 546 Q 460 533 403 526 Q 399 526 396 524 C 367 515 367 515 395 504 Z" fill="lightgray"></path>
    
      <path d="M 394 328 Q 430 313 477 323 Q 525 332 573 341 Q 595 345 599 349 Q 608 356 603 365 Q 596 375 568 383 Q 538 389 510 377 Q 447 359 394 356 C 364 354 366 339 394 328 Z" fill="lightgray"></path>
    
      <path d="M 509 92 Q 567 95 622 99 Q 772 111 921 90 Q 946 86 952 96 Q 961 109 948 122 Q 918 152 874 173 Q 859 180 832 172 Q 763 160 694 151 L 636 146 Q 540 139 487 134 Q 435 131 394 126 L 345 122 Q 311 121 288 118 Q 213 108 102 110 Q 89 111 86 99 Q 85 86 104 71 Q 152 35 187 48 Q 226 60 389 81 Q 446 88 509 92 Z" fill="lightgray"></path>
    
    
      <clipPath id="make-me-a-hanzi-clip-0">
        <path d="M 381 722 Q 360 738 342 747 Q 329 751 319 745 Q 309 741 313 729 Q 323 707 333 691 Q 343 663 344 616 Q 347 564 345 122 C 345 92 394 96 394 126 Q 394 232 394 328 L 394 356 Q 394 434 395 504 L 396 524 Q 396 677 400 686 C 402 707 402 707 381 722 Z"></path>
      </clipPath>
      <path clip-path="url(#make-me-a-hanzi-clip-0)" d="M 323 734 L 359 703 L 370 655 L 370 149 L 350 136" fill="none" id="make-me-a-hanzi-animation-0" stroke-dasharray="755 1510" stroke-linecap="round"></path>
    
      <clipPath id="make-me-a-hanzi-clip-1">
        <path d="M 694 151 Q 694 632 723 685 Q 736 721 737 721 Q 727 742 666 778 Q 651 790 570 760 Q 450 730 381 722 C 351 718 371 678 400 686 Q 404 687 409 689 Q 550 723 607 730 Q 631 734 638 726 Q 647 710 646 675 Q 643 371 636 146 C 635 116 694 121 694 151 Z"></path>
      </clipPath>
      <path clip-path="url(#make-me-a-hanzi-clip-1)" d="M 387 718 L 416 707 L 625 755 L 660 748 L 683 718 L 687 709 L 672 528 L 667 192 L 665 177 L 643 152" fill="none" id="make-me-a-hanzi-animation-1" stroke-dasharray="1023 2046" stroke-linecap="round"></path>
    
      <clipPath id="make-me-a-hanzi-clip-2">
        <path d="M 395 504 Q 431 488 510 504 Q 580 520 584 522 Q 591 529 587 537 Q 580 547 553 554 Q 525 558 499 546 Q 460 533 403 526 Q 399 526 396 524 C 367 515 367 515 395 504 Z"></path>
      </clipPath>
      <path clip-path="url(#make-me-a-hanzi-clip-2)" d="M 401 519 L 424 512 L 479 518 L 534 533 L 579 531" fill="none" id="make-me-a-hanzi-animation-2" stroke-dasharray="309 618" stroke-linecap="round"></path>
    
      <clipPath id="make-me-a-hanzi-clip-3">
        <path d="M 394 328 Q 430 313 477 323 Q 525 332 573 341 Q 595 345 599 349 Q 608 356 603 365 Q 596 375 568 383 Q 538 389 510 377 Q 447 359 394 356 C 364 354 366 339 394 328 Z"></path>
      </clipPath>
      <path clip-path="url(#make-me-a-hanzi-clip-3)" d="M 401 349 L 411 340 L 440 339 L 546 361 L 593 359" fill="none" id="make-me-a-hanzi-animation-3" stroke-dasharray="326 652" stroke-linecap="round"></path>
    
      <clipPath id="make-me-a-hanzi-clip-4">
        <path d="M 509 92 Q 567 95 622 99 Q 772 111 921 90 Q 946 86 952 96 Q 961 109 948 122 Q 918 152 874 173 Q 859 180 832 172 Q 763 160 694 151 L 636 146 Q 540 139 487 134 Q 435 131 394 126 L 345 122 Q 311 121 288 118 Q 213 108 102 110 Q 89 111 86 99 Q 85 86 104 71 Q 152 35 187 48 Q 226 60 389 81 Q 446 88 509 92 Z"></path>
      </clipPath>
      <path clip-path="url(#make-me-a-hanzi-clip-4)" d="M 99 97 L 125 85 L 168 77 L 432 109 L 848 137 L 864 136 L 938 107" fill="none" id="make-me-a-hanzi-animation-4" stroke-dasharray="979 1958" stroke-linecap="round"></path>
    
  </g>
</svg>