<svg version="1.1" viewBox="0 0 1024 1024" xmlns="http://www.w3.org/2000/svg">
  <g stroke="lightgray" stroke-dasharray="1,1" stroke-width="1" transform="scale(4, 4)">
    <line x1="0" y1="0" x2="256" y2="256"></line>
    <line x1="256" y1="0" x2="0" y2="256"></line>
    <line x1="128" y1="0" x2="128" y2="256"></line>
    <line x1="0" y1="128" x2="256" y2="128"></line>
  </g>
  <g transform="scale(1, -1) translate(0, -900)">
    <style type="text/css">
      
        @keyframes keyframes0 {
          from {
            stroke: blue;
            stroke-dashoffset: 413;
            stroke-width: 128;
          }
          57% {
            animation-timing-function: step-end;
            stroke: blue;
            stroke-dashoffset: 0;
            stroke-width: 128;
          }
          to {
            stroke: black;
            stroke-width: 1024;
          }
        }
        #make-me-a-hanzi-animation-0 {
          animation: keyframes0 0.5861002604166666s both;
          animation-delay: 0s;
          animation-timing-function: linear;
        }
      
        @keyframes keyframes1 {
          from {
            stroke: blue;
            stroke-dashoffset: 577;
            stroke-width: 128;
          }
          65% {
            animation-timing-function: step-end;
            stroke: blue;
            stroke-dashoffset: 0;
            stroke-width: 128;
          }
          to {
            stroke: black;
            stroke-width: 1024;
          }
        }
        #make-me-a-hanzi-animation-1 {
          animation: keyframes1 0.7195638020833334s both;
          animation-delay: 0.5861002604166666s;
          animation-timing-function: linear;
        }
      
        @keyframes keyframes2 {
          from {
            stroke: blue;
            stroke-dashoffset: 1071;
            stroke-width: 128;
          }
          78% {
            animation-timing-function: step-end;
            stroke: blue;
            stroke-dashoffset: 0;
            stroke-width: 128;
          }
          to {
            stroke: black;
            stroke-width: 1024;
          }
        }
        #make-me-a-hanzi-animation-2 {
          animation: keyframes2 1.12158203125s both;
          animation-delay: 1.3056640625s;
          animation-timing-function: linear;
        }
      
    </style>
    
      <path d="M 373 605 Q 400 574 427 536 Q 440 520 457 517 Q 469 516 477 529 Q 484 545 480 578 Q 476 614 376 658 Q 360 665 352 663 Q 346 660 346 646 Q 347 633 373 605 Z" fill="lightgray"></path>
    
      <path d="M 547 446 Q 346 272 292 251 Q 279 244 282 233 Q 286 218 299 214 Q 330 207 371 202 Q 384 203 392 218 Q 414 258 443 290 Q 489 339 533 390 Q 540 399 547 407 C 566 430 570 466 547 446 Z" fill="lightgray"></path>
    
      <path d="M 595 64 Q 594 113 599 562 Q 599 655 616 717 Q 626 733 622 747 Q 615 757 557 793 Q 532 811 511 794 Q 505 788 512 773 Q 543 727 545 679 Q 546 610 549 532 Q 548 490 547 446 L 547 407 Q 544 206 533 151 Q 509 66 532 15 Q 533 8 538 -1 Q 545 -20 553 -23 Q 560 -30 568 -21 Q 575 -17 586 5 Q 596 30 595 64 Z" fill="lightgray"></path>
    
    
      <clipPath id="make-me-a-hanzi-clip-0">
        <path d="M 373 605 Q 400 574 427 536 Q 440 520 457 517 Q 469 516 477 529 Q 484 545 480 578 Q 476 614 376 658 Q 360 665 352 663 Q 346 660 346 646 Q 347 633 373 605 Z"></path>
      </clipPath>
      <path clip-path="url(#make-me-a-hanzi-clip-0)" d="M 357 655 L 438 582 L 458 538" fill="none" id="make-me-a-hanzi-animation-0" stroke-dasharray="285 570" stroke-linecap="round"></path>
    
      <clipPath id="make-me-a-hanzi-clip-1">
        <path d="M 547 446 Q 346 272 292 251 Q 279 244 282 233 Q 286 218 299 214 Q 330 207 371 202 Q 384 203 392 218 Q 414 258 443 290 Q 489 339 533 390 Q 540 399 547 407 C 566 430 570 466 547 446 Z"></path>
      </clipPath>
      <path clip-path="url(#make-me-a-hanzi-clip-1)" d="M 297 237 L 310 234 L 361 244 L 524 404 L 538 427" fill="none" id="make-me-a-hanzi-animation-1" stroke-dasharray="449 898" stroke-linecap="round"></path>
    
      <clipPath id="make-me-a-hanzi-clip-2">
        <path d="M 595 64 Q 594 113 599 562 Q 599 655 616 717 Q 626 733 622 747 Q 615 757 557 793 Q 532 811 511 794 Q 505 788 512 773 Q 543 727 545 679 Q 546 610 549 532 Q 548 490 547 446 L 547 407 Q 544 206 533 151 Q 509 66 532 15 Q 533 8 538 -1 Q 545 -20 553 -23 Q 560 -30 568 -21 Q 575 -17 586 5 Q 596 30 595 64 Z"></path>
      </clipPath>
      <path clip-path="url(#make-me-a-hanzi-clip-2)" d="M 525 785 L 568 745 L 578 720 L 570 255 L 558 93 L 559 -9" fill="none" id="make-me-a-hanzi-animation-2" stroke-dasharray="943 1886" stroke-linecap="round"></path>
    
  </g>
</svg>