<svg version="1.1" viewBox="0 0 1024 1024" xmlns="http://www.w3.org/2000/svg">
  <g stroke="lightgray" stroke-dasharray="1,1" stroke-width="1" transform="scale(4, 4)">
    <line x1="0" y1="0" x2="256" y2="256"></line>
    <line x1="256" y1="0" x2="0" y2="256"></line>
    <line x1="128" y1="0" x2="128" y2="256"></line>
    <line x1="0" y1="128" x2="256" y2="128"></line>
  </g>
  <g transform="scale(1, -1) translate(0, -900)">
    <style type="text/css">
      
        @keyframes keyframes0 {
          from {
            stroke: blue;
            stroke-dashoffset: 572;
            stroke-width: 128;
          }
          65% {
            animation-timing-function: step-end;
            stroke: blue;
            stroke-dashoffset: 0;
            stroke-width: 128;
          }
          to {
            stroke: black;
            stroke-width: 1024;
          }
        }
        #make-me-a-hanzi-animation-0 {
          animation: keyframes0 0.7154947916666666s both;
          animation-delay: 0s;
          animation-timing-function: linear;
        }
      
    </style>
    
      <path d="M 387 680 Q 463 595 550 475 Q 566 450 582 443 Q 592 440 601 451 Q 617 464 609 515 Q 600 587 393 715 Q 383 722 379 708 Q 376 693 387 680 Z" fill="lightgray"></path>
    
    
      <clipPath id="make-me-a-hanzi-clip-0">
        <path d="M 387 680 Q 463 595 550 475 Q 566 450 582 443 Q 592 440 601 451 Q 617 464 609 515 Q 600 587 393 715 Q 383 722 379 708 Q 376 693 387 680 Z"></path>
      </clipPath>
      <path clip-path="url(#make-me-a-hanzi-clip-0)" d="M 391 701 L 542 554 L 571 512 L 586 460" fill="none" id="make-me-a-hanzi-animation-0" stroke-dasharray="444 888" stroke-linecap="round"></path>
    
  </g>
</svg>