<svg version="1.1" viewBox="0 0 1024 1024" xmlns="http://www.w3.org/2000/svg">
  <g stroke="lightgray" stroke-dasharray="1,1" stroke-width="1" transform="scale(4, 4)">
    <line x1="0" y1="0" x2="256" y2="256"></line>
    <line x1="256" y1="0" x2="0" y2="256"></line>
    <line x1="128" y1="0" x2="128" y2="256"></line>
    <line x1="0" y1="128" x2="256" y2="128"></line>
  </g>
  <g transform="scale(1, -1) translate(0, -900)">
    <style type="text/css">
      
        @keyframes keyframes0 {
          from {
            stroke: blue;
            stroke-dashoffset: 1312;
            stroke-width: 128;
          }
          81% {
            animation-timing-function: step-end;
            stroke: blue;
            stroke-dashoffset: 0;
            stroke-width: 128;
          }
          to {
            stroke: black;
            stroke-width: 1024;
          }
        }
        #make-me-a-hanzi-animation-0 {
          animation: keyframes0 1.3177083333333333s both;
          animation-delay: 0s;
          animation-timing-function: linear;
        }
      
        @keyframes keyframes1 {
          from {
            stroke: blue;
            stroke-dashoffset: 1527;
            stroke-width: 128;
          }
          83% {
            animation-timing-function: step-end;
            stroke: blue;
            stroke-dashoffset: 0;
            stroke-width: 128;
          }
          to {
            stroke: black;
            stroke-width: 1024;
          }
        }
        #make-me-a-hanzi-animation-1 {
          animation: keyframes1 1.49267578125s both;
          animation-delay: 1.3177083333333333s;
          animation-timing-function: linear;
        }
      
    </style>
    
      <path d="M 403 424 Q 512 464 680 519 Q 705 523 708 509 Q 714 497 671 370 Q 658 318 624 336 Q 599 345 575 353 Q 559 356 563 347 Q 569 334 641 266 Q 663 235 684 258 Q 721 300 750 395 Q 771 486 817 525 Q 833 541 816 556 Q 795 571 740 586 Q 719 593 703 579 Q 634 530 404 457 L 356 443 Q 341 440 330 436 Q 183 396 104 381 Q 89 381 87 370 Q 86 363 130 343 Q 158 330 184 344 Q 218 360 357 408 L 403 424 Z" fill="lightgray"></path>
    
      <path d="M 433 77 Q 520 5 815 40 Q 861 47 896 59 Q 926 66 934 81 Q 938 91 928 114 Q 903 177 889 315 Q 885 331 876 337 Q 870 340 867 325 Q 857 252 845 188 Q 835 134 806 113 Q 790 103 703 94 Q 613 87 544 95 Q 490 102 470 115 Q 418 146 407 267 Q 404 312 403 424 L 404 457 Q 408 560 428 614 Q 435 633 425 647 Q 410 660 370 676 Q 336 686 325 676 Q 316 667 332 645 Q 354 615 355 566 Q 355 508 356 443 L 357 408 Q 357 174 389 125 Q 404 100 433 77 Z" fill="lightgray"></path>
    
    
      <clipPath id="make-me-a-hanzi-clip-0">
        <path d="M 403 424 Q 512 464 680 519 Q 705 523 708 509 Q 714 497 671 370 Q 658 318 624 336 Q 599 345 575 353 Q 559 356 563 347 Q 569 334 641 266 Q 663 235 684 258 Q 721 300 750 395 Q 771 486 817 525 Q 833 541 816 556 Q 795 571 740 586 Q 719 593 703 579 Q 634 530 404 457 L 356 443 Q 341 440 330 436 Q 183 396 104 381 Q 89 381 87 370 Q 86 363 130 343 Q 158 330 184 344 Q 218 360 357 408 L 403 424 Z"></path>
      </clipPath>
      <path clip-path="url(#make-me-a-hanzi-clip-0)" d="M 94 371 L 128 364 L 167 366 L 508 475 L 697 545 L 728 547 L 754 530 L 710 379 L 693 334 L 671 302 L 665 298 L 633 306 L 570 348" fill="none" id="make-me-a-hanzi-animation-0" stroke-dasharray="1184 2368" stroke-linecap="round"></path>
    
      <clipPath id="make-me-a-hanzi-clip-1">
        <path d="M 433 77 Q 520 5 815 40 Q 861 47 896 59 Q 926 66 934 81 Q 938 91 928 114 Q 903 177 889 315 Q 885 331 876 337 Q 870 340 867 325 Q 857 252 845 188 Q 835 134 806 113 Q 790 103 703 94 Q 613 87 544 95 Q 490 102 470 115 Q 418 146 407 267 Q 404 312 403 424 L 404 457 Q 408 560 428 614 Q 435 633 425 647 Q 410 660 370 676 Q 336 686 325 676 Q 316 667 332 645 Q 354 615 355 566 Q 355 508 356 443 L 357 408 Q 357 174 389 125 Q 404 100 433 77 Z"></path>
      </clipPath>
      <path clip-path="url(#make-me-a-hanzi-clip-1)" d="M 335 667 L 370 642 L 388 621 L 379 347 L 392 202 L 400 168 L 420 127 L 466 86 L 540 65 L 689 60 L 799 72 L 864 101 L 872 108 L 876 143 L 875 328" fill="none" id="make-me-a-hanzi-animation-1" stroke-dasharray="1399 2798" stroke-linecap="round"></path>
    
  </g>
</svg>