<svg version="1.1" viewBox="0 0 1024 1024" xmlns="http://www.w3.org/2000/svg">
  <g stroke="lightgray" stroke-dasharray="1,1" stroke-width="1" transform="scale(4, 4)">
    <line x1="0" y1="0" x2="256" y2="256"></line>
    <line x1="256" y1="0" x2="0" y2="256"></line>
    <line x1="128" y1="0" x2="128" y2="256"></line>
    <line x1="0" y1="128" x2="256" y2="128"></line>
  </g>
  <g transform="scale(1, -1) translate(0, -900)">
    <style type="text/css">
      
        @keyframes keyframes0 {
          from {
            stroke: blue;
            stroke-dashoffset: 392;
            stroke-width: 128;
          }
          56% {
            animation-timing-function: step-end;
            stroke: blue;
            stroke-dashoffset: 0;
            stroke-width: 128;
          }
          to {
            stroke: black;
            stroke-width: 1024;
          }
        }
        #make-me-a-hanzi-animation-0 {
          animation: keyframes0 0.5690104166666666s both;
          animation-delay: 0s;
          animation-timing-function: linear;
        }
      
        @keyframes keyframes1 {
          from {
            stroke: blue;
            stroke-dashoffset: 844;
            stroke-width: 128;
          }
          73% {
            animation-timing-function: step-end;
            stroke: blue;
            stroke-dashoffset: 0;
            stroke-width: 128;
          }
          to {
            stroke: black;
            stroke-width: 1024;
          }
        }
        #make-me-a-hanzi-animation-1 {
          animation: keyframes1 0.9368489583333334s both;
          animation-delay: 0.5690104166666666s;
          animation-timing-function: linear;
        }
      
        @keyframes keyframes2 {
          from {
            stroke: blue;
            stroke-dashoffset: 418;
            stroke-width: 128;
          }
          58% {
            animation-timing-function: step-end;
            stroke: blue;
            stroke-dashoffset: 0;
            stroke-width: 128;
          }
          to {
            stroke: black;
            stroke-width: 1024;
          }
        }
        #make-me-a-hanzi-animation-2 {
          animation: keyframes2 0.5901692708333334s both;
          animation-delay: 1.505859375s;
          animation-timing-function: linear;
        }
      
        @keyframes keyframes3 {
          from {
            stroke: blue;
            stroke-dashoffset: 572;
            stroke-width: 128;
          }
          65% {
            animation-timing-function: step-end;
            stroke: blue;
            stroke-dashoffset: 0;
            stroke-width: 128;
          }
          to {
            stroke: black;
            stroke-width: 1024;
          }
        }
        #make-me-a-hanzi-animation-3 {
          animation: keyframes3 0.7154947916666666s both;
          animation-delay: 2.0960286458333335s;
          animation-timing-function: linear;
        }
      
        @keyframes keyframes4 {
          from {
            stroke: blue;
            stroke-dashoffset: 481;
            stroke-width: 128;
          }
          61% {
            animation-timing-function: step-end;
            stroke: blue;
            stroke-dashoffset: 0;
            stroke-width: 128;
          }
          to {
            stroke: black;
            stroke-width: 1024;
          }
        }
        #make-me-a-hanzi-animation-4 {
          animation: keyframes4 0.6414388020833334s both;
          animation-delay: 2.8115234375s;
          animation-timing-function: linear;
        }
      
        @keyframes keyframes5 {
          from {
            stroke: blue;
            stroke-dashoffset: 464;
            stroke-width: 128;
          }
          60% {
            animation-timing-function: step-end;
            stroke: blue;
            stroke-dashoffset: 0;
            stroke-width: 128;
          }
          to {
            stroke: black;
            stroke-width: 1024;
          }
        }
        #make-me-a-hanzi-animation-5 {
          animation: keyframes5 0.6276041666666666s both;
          animation-delay: 3.4529622395833335s;
          animation-timing-function: linear;
        }
      
        @keyframes keyframes6 {
          from {
            stroke: blue;
            stroke-dashoffset: 950;
            stroke-width: 128;
          }
          76% {
            animation-timing-function: step-end;
            stroke: blue;
            stroke-dashoffset: 0;
            stroke-width: 128;
          }
          to {
            stroke: black;
            stroke-width: 1024;
          }
        }
        #make-me-a-hanzi-animation-6 {
          animation: keyframes6 1.0231119791666667s both;
          animation-delay: 4.08056640625s;
          animation-timing-function: linear;
        }
      
        @keyframes keyframes7 {
          from {
            stroke: blue;
            stroke-dashoffset: 556;
            stroke-width: 128;
          }
          64% {
            animation-timing-function: step-end;
            stroke: blue;
            stroke-dashoffset: 0;
            stroke-width: 128;
          }
          to {
            stroke: black;
            stroke-width: 1024;
          }
        }
        #make-me-a-hanzi-animation-7 {
          animation: keyframes7 0.7024739583333334s both;
          animation-delay: 5.103678385416667s;
          animation-timing-function: linear;
        }
      
        @keyframes keyframes8 {
          from {
            stroke: blue;
            stroke-dashoffset: 777;
            stroke-width: 128;
          }
          72% {
            animation-timing-function: step-end;
            stroke: blue;
            stroke-dashoffset: 0;
            stroke-width: 128;
          }
          to {
            stroke: black;
            stroke-width: 1024;
          }
        }
        #make-me-a-hanzi-animation-8 {
          animation: keyframes8 0.88232421875s both;
          animation-delay: 5.80615234375s;
          animation-timing-function: linear;
        }
      
        @keyframes keyframes9 {
          from {
            stroke: blue;
            stroke-dashoffset: 988;
            stroke-width: 128;
          }
          76% {
            animation-timing-function: step-end;
            stroke: blue;
            stroke-dashoffset: 0;
            stroke-width: 128;
          }
          to {
            stroke: black;
            stroke-width: 1024;
          }
        }
        #make-me-a-hanzi-animation-9 {
          animation: keyframes9 1.0540364583333333s both;
          animation-delay: 6.6884765625s;
          animation-timing-function: linear;
        }
      
    </style>
    
      <path d="M 454 799 Q 482 780 514 754 Q 529 744 543 746 Q 553 747 557 760 Q 560 775 548 802 Q 541 821 510 832 Q 435 850 424 843 Q 420 839 422 827 Q 426 817 454 799 Z" fill="lightgray"></path>
    
      <path d="M 203 677 Q 184 674 198 659 Q 211 646 228 641 Q 247 637 263 641 Q 455 695 765 695 Q 766 695 768 695 Q 787 695 791 703 Q 795 713 781 727 Q 733 763 697 754 Q 562 726 203 677 Z" fill="lightgray"></path>
    
      <path d="M 380 603 Q 371 607 338 611 Q 328 612 324 607 Q 320 601 328 588 Q 352 552 371 491 Q 375 472 389 461 Q 407 443 410 457 Q 411 464 411 475 L 406 506 Q 394 555 391 575 C 387 601 387 601 380 603 Z" fill="lightgray"></path>
    
      <path d="M 618 537 Q 636 574 659 585 Q 674 601 662 616 Q 596 668 544 642 Q 460 615 380 603 C 350 598 361 570 391 575 Q 401 576 414 580 Q 486 593 554 608 Q 572 612 579 605 Q 586 595 569 539 C 561 510 604 510 618 537 Z" fill="lightgray"></path>
    
      <path d="M 411 475 Q 417 475 424 476 Q 490 491 632 504 Q 642 505 644 513 Q 644 520 618 537 C 603 547 598 546 569 539 Q 478 517 406 506 C 376 501 381 474 411 475 Z" fill="lightgray"></path>
    
      <path d="M 244 392 Q 235 419 222 428 Q 204 443 201 417 Q 207 380 138 306 Q 117 284 143 227 Q 156 200 178 227 Q 194 249 239 362 C 247 383 247 383 244 392 Z" fill="lightgray"></path>
    
      <path d="M 239 362 Q 266 347 313 359 Q 451 402 670 427 Q 721 434 738 431 Q 757 422 755 415 Q 737 370 719 322 L 721 321 Q 728 317 745 328 Q 802 365 848 378 Q 887 388 886 398 Q 885 408 810 464 Q 786 482 723 469 Q 561 445 353 409 Q 298 399 244 392 C 214 388 211 372 239 362 Z" fill="lightgray"></path>
    
      <path d="M 461 270 Q 534 300 576 306 Q 592 307 595 314 Q 599 324 588 334 Q 533 376 503 373 Q 496 369 496 360 Q 490 320 305 243 Q 301 236 305 232 Q 329 232 403 254 Q 409 255 418 257 L 461 270 Z" fill="lightgray"></path>
    
      <path d="M 468 156 Q 468 157 469 157 Q 569 182 696 202 Q 714 205 714 212 Q 715 225 696 234 Q 668 246 645 240 Q 543 215 472 195 L 425 184 Q 296 157 201 144 Q 188 143 184 134 Q 181 124 197 112 Q 239 84 281 99 Q 360 127 423 144 L 468 156 Z" fill="lightgray"></path>
    
      <path d="M 860 61 Q 847 86 828 162 Q 828 178 821 182 Q 815 185 811 168 Q 789 86 772 60 Q 736 18 604 20 Q 555 23 516 38 Q 482 54 474 74 Q 462 98 468 156 L 472 195 Q 475 214 479 235 Q 483 251 473 261 Q 469 265 461 270 C 439 291 411 286 418 257 Q 428 223 426 189 Q 425 188 425 184 L 423 144 Q 420 45 458 8 Q 540 -58 728 -30 Q 744 -27 764 -22 Q 810 -9 855 23 Q 871 38 860 61 Z" fill="lightgray"></path>
    
    
      <clipPath id="make-me-a-hanzi-clip-0">
        <path d="M 454 799 Q 482 780 514 754 Q 529 744 543 746 Q 553 747 557 760 Q 560 775 548 802 Q 541 821 510 832 Q 435 850 424 843 Q 420 839 422 827 Q 426 817 454 799 Z"></path>
      </clipPath>
      <path clip-path="url(#make-me-a-hanzi-clip-0)" d="M 429 838 L 505 801 L 540 763" fill="none" id="make-me-a-hanzi-animation-0" stroke-dasharray="264 528" stroke-linecap="round"></path>
    
      <clipPath id="make-me-a-hanzi-clip-1">
        <path d="M 203 677 Q 184 674 198 659 Q 211 646 228 641 Q 247 637 263 641 Q 455 695 765 695 Q 766 695 768 695 Q 787 695 791 703 Q 795 713 781 727 Q 733 763 697 754 Q 562 726 203 677 Z"></path>
      </clipPath>
      <path clip-path="url(#make-me-a-hanzi-clip-1)" d="M 201 668 L 246 661 L 434 694 L 707 725 L 746 721 L 781 708" fill="none" id="make-me-a-hanzi-animation-1" stroke-dasharray="716 1432" stroke-linecap="round"></path>
    
      <clipPath id="make-me-a-hanzi-clip-2">
        <path d="M 380 603 Q 371 607 338 611 Q 328 612 324 607 Q 320 601 328 588 Q 352 552 371 491 Q 375 472 389 461 Q 407 443 410 457 Q 411 464 411 475 L 406 506 Q 394 555 391 575 C 387 601 387 601 380 603 Z"></path>
      </clipPath>
      <path clip-path="url(#make-me-a-hanzi-clip-2)" d="M 333 602 L 361 582 L 400 461" fill="none" id="make-me-a-hanzi-animation-2" stroke-dasharray="290 580" stroke-linecap="round"></path>
    
      <clipPath id="make-me-a-hanzi-clip-3">
        <path d="M 618 537 Q 636 574 659 585 Q 674 601 662 616 Q 596 668 544 642 Q 460 615 380 603 C 350 598 361 570 391 575 Q 401 576 414 580 Q 486 593 554 608 Q 572 612 579 605 Q 586 595 569 539 C 561 510 604 510 618 537 Z"></path>
      </clipPath>
      <path clip-path="url(#make-me-a-hanzi-clip-3)" d="M 388 598 L 400 592 L 568 630 L 589 627 L 610 612 L 617 598 L 600 563 L 576 548" fill="none" id="make-me-a-hanzi-animation-3" stroke-dasharray="444 888" stroke-linecap="round"></path>
    
      <clipPath id="make-me-a-hanzi-clip-4">
        <path d="M 411 475 Q 417 475 424 476 Q 490 491 632 504 Q 642 505 644 513 Q 644 520 618 537 C 603 547 598 546 569 539 Q 478 517 406 506 C 376 501 381 474 411 475 Z"></path>
      </clipPath>
      <path clip-path="url(#make-me-a-hanzi-clip-4)" d="M 414 499 L 436 494 L 574 519 L 611 520 L 635 512" fill="none" id="make-me-a-hanzi-animation-4" stroke-dasharray="353 706" stroke-linecap="round"></path>
    
      <clipPath id="make-me-a-hanzi-clip-5">
        <path d="M 244 392 Q 235 419 222 428 Q 204 443 201 417 Q 207 380 138 306 Q 117 284 143 227 Q 156 200 178 227 Q 194 249 239 362 C 247 383 247 383 244 392 Z"></path>
      </clipPath>
      <path clip-path="url(#make-me-a-hanzi-clip-5)" d="M 212 422 L 220 398 L 217 373 L 165 281 L 159 230" fill="none" id="make-me-a-hanzi-animation-5" stroke-dasharray="336 672" stroke-linecap="round"></path>
    
      <clipPath id="make-me-a-hanzi-clip-6">
        <path d="M 239 362 Q 266 347 313 359 Q 451 402 670 427 Q 721 434 738 431 Q 757 422 755 415 Q 737 370 719 322 L 721 321 Q 728 317 745 328 Q 802 365 848 378 Q 887 388 886 398 Q 885 408 810 464 Q 786 482 723 469 Q 561 445 353 409 Q 298 399 244 392 C 214 388 211 372 239 362 Z"></path>
      </clipPath>
      <path clip-path="url(#make-me-a-hanzi-clip-6)" d="M 248 368 L 544 427 L 719 451 L 769 446 L 796 425 L 801 409 L 734 331 L 723 328" fill="none" id="make-me-a-hanzi-animation-6" stroke-dasharray="822 1644" stroke-linecap="round"></path>
    
      <clipPath id="make-me-a-hanzi-clip-7">
        <path d="M 461 270 Q 534 300 576 306 Q 592 307 595 314 Q 599 324 588 334 Q 533 376 503 373 Q 496 369 496 360 Q 490 320 305 243 Q 301 236 305 232 Q 329 232 403 254 Q 409 255 418 257 L 461 270 Z"></path>
      </clipPath>
      <path clip-path="url(#make-me-a-hanzi-clip-7)" d="M 585 319 L 523 331 L 462 294 L 354 251 L 318 247 L 309 238" fill="none" id="make-me-a-hanzi-animation-7" stroke-dasharray="428 856" stroke-linecap="round"></path>
    
      <clipPath id="make-me-a-hanzi-clip-8">
        <path d="M 468 156 Q 468 157 469 157 Q 569 182 696 202 Q 714 205 714 212 Q 715 225 696 234 Q 668 246 645 240 Q 543 215 472 195 L 425 184 Q 296 157 201 144 Q 188 143 184 134 Q 181 124 197 112 Q 239 84 281 99 Q 360 127 423 144 L 468 156 Z"></path>
      </clipPath>
      <path clip-path="url(#make-me-a-hanzi-clip-8)" d="M 195 130 L 257 123 L 642 217 L 704 215" fill="none" id="make-me-a-hanzi-animation-8" stroke-dasharray="649 1298" stroke-linecap="round"></path>
    
      <clipPath id="make-me-a-hanzi-clip-9">
        <path d="M 860 61 Q 847 86 828 162 Q 828 178 821 182 Q 815 185 811 168 Q 789 86 772 60 Q 736 18 604 20 Q 555 23 516 38 Q 482 54 474 74 Q 462 98 468 156 L 472 195 Q 475 214 479 235 Q 483 251 473 261 Q 469 265 461 270 C 439 291 411 286 418 257 Q 428 223 426 189 Q 425 188 425 184 L 423 144 Q 420 45 458 8 Q 540 -58 728 -30 Q 744 -27 764 -22 Q 810 -9 855 23 Q 871 38 860 61 Z"></path>
      </clipPath>
      <path clip-path="url(#make-me-a-hanzi-clip-9)" d="M 427 252 L 451 238 L 444 113 L 457 54 L 487 21 L 551 -3 L 623 -10 L 694 -5 L 752 8 L 783 22 L 817 53 L 820 176" fill="none" id="make-me-a-hanzi-animation-9" stroke-dasharray="860 1720" stroke-linecap="round"></path>
    
  </g>
</svg>