<svg version="1.1" viewBox="0 0 1024 1024" xmlns="http://www.w3.org/2000/svg">
  <g stroke="lightgray" stroke-dasharray="1,1" stroke-width="1" transform="scale(4, 4)">
    <line x1="0" y1="0" x2="256" y2="256"></line>
    <line x1="256" y1="0" x2="0" y2="256"></line>
    <line x1="128" y1="0" x2="128" y2="256"></line>
    <line x1="0" y1="128" x2="256" y2="128"></line>
  </g>
  <g transform="scale(1, -1) translate(0, -900)">
    <style type="text/css">
      
        @keyframes keyframes0 {
          from {
            stroke: blue;
            stroke-dashoffset: 823;
            stroke-width: 128;
          }
          73% {
            animation-timing-function: step-end;
            stroke: blue;
            stroke-dashoffset: 0;
            stroke-width: 128;
          }
          to {
            stroke: black;
            stroke-width: 1024;
          }
        }
        #make-me-a-hanzi-animation-0 {
          animation: keyframes0 0.9197591145833334s both;
          animation-delay: 0s;
          animation-timing-function: linear;
        }
      
        @keyframes keyframes1 {
          from {
            stroke: blue;
            stroke-dashoffset: 745;
            stroke-width: 128;
          }
          71% {
            animation-timing-function: step-end;
            stroke: blue;
            stroke-dashoffset: 0;
            stroke-width: 128;
          }
          to {
            stroke: black;
            stroke-width: 1024;
          }
        }
        #make-me-a-hanzi-animation-1 {
          animation: keyframes1 0.8562825520833334s both;
          animation-delay: 0.9197591145833334s;
          animation-timing-function: linear;
        }
      
        @keyframes keyframes2 {
          from {
            stroke: blue;
            stroke-dashoffset: 1114;
            stroke-width: 128;
          }
          78% {
            animation-timing-function: step-end;
            stroke: blue;
            stroke-dashoffset: 0;
            stroke-width: 128;
          }
          to {
            stroke: black;
            stroke-width: 1024;
          }
        }
        #make-me-a-hanzi-animation-2 {
          animation: keyframes2 1.1565755208333333s both;
          animation-delay: 1.7760416666666667s;
          animation-timing-function: linear;
        }
      
        @keyframes keyframes3 {
          from {
            stroke: blue;
            stroke-dashoffset: 495;
            stroke-width: 128;
          }
          62% {
            animation-timing-function: step-end;
            stroke: blue;
            stroke-dashoffset: 0;
            stroke-width: 128;
          }
          to {
            stroke: black;
            stroke-width: 1024;
          }
        }
        #make-me-a-hanzi-animation-3 {
          animation: keyframes3 0.65283203125s both;
          animation-delay: 2.9326171875s;
          animation-timing-function: linear;
        }
      
    </style>
    
      <path d="M 290 544 Q 327 593 365 655 Q 393 707 419 731 Q 429 743 424 757 Q 420 770 389 796 Q 361 815 340 815 Q 321 814 329 790 Q 344 756 331 727 Q 291 630 230 541 Q 172 456 91 361 Q 81 351 78 343 Q 74 331 90 334 Q 132 340 264 509 L 290 544 Z" fill="lightgray"></path>
    
      <path d="M 264 509 Q 286 473 288 383 Q 288 247 262 139 Q 252 94 286 43 Q 287 43 289 40 Q 307 24 319 51 Q 334 91 333 138 Q 329 400 337 460 Q 344 487 335 498 Q 296 540 290 544 C 268 564 251 536 264 509 Z" fill="lightgray"></path>
    
      <path d="M 577 92 Q 567 50 594 -13 Q 601 -32 609 -35 Q 616 -42 623 -33 Q 632 -29 642 -7 Q 652 20 651 52 Q 650 104 651 580 Q 651 679 668 746 Q 678 762 674 776 Q 667 786 609 821 Q 584 837 563 822 Q 557 816 564 800 Q 598 751 600 702 Q 601 629 604 546 Q 603 401 601 243 Q 597 165 577 92 Z" fill="lightgray"></path>
    
      <path d="M 715 460 Q 785 417 874 353 Q 893 337 910 335 Q 919 335 925 347 Q 935 363 913 404 Q 888 458 709 491 Q 699 495 700 482 Q 701 469 715 460 Z" fill="lightgray"></path>
    
    
      <clipPath id="make-me-a-hanzi-clip-0">
        <path d="M 290 544 Q 327 593 365 655 Q 393 707 419 731 Q 429 743 424 757 Q 420 770 389 796 Q 361 815 340 815 Q 321 814 329 790 Q 344 756 331 727 Q 291 630 230 541 Q 172 456 91 361 Q 81 351 78 343 Q 74 331 90 334 Q 132 340 264 509 L 290 544 Z"></path>
      </clipPath>
      <path clip-path="url(#make-me-a-hanzi-clip-0)" d="M 340 800 L 366 774 L 378 750 L 336 664 L 275 564 L 210 473 L 148 399 L 88 343" fill="none" id="make-me-a-hanzi-animation-0" stroke-dasharray="695 1390" stroke-linecap="round"></path>
    
      <clipPath id="make-me-a-hanzi-clip-1">
        <path d="M 264 509 Q 286 473 288 383 Q 288 247 262 139 Q 252 94 286 43 Q 287 43 289 40 Q 307 24 319 51 Q 334 91 333 138 Q 329 400 337 460 Q 344 487 335 498 Q 296 540 290 544 C 268 564 251 536 264 509 Z"></path>
      </clipPath>
      <path clip-path="url(#make-me-a-hanzi-clip-1)" d="M 287 537 L 309 473 L 309 281 L 296 117 L 302 52" fill="none" id="make-me-a-hanzi-animation-1" stroke-dasharray="617 1234" stroke-linecap="round"></path>
    
      <clipPath id="make-me-a-hanzi-clip-2">
        <path d="M 577 92 Q 567 50 594 -13 Q 601 -32 609 -35 Q 616 -42 623 -33 Q 632 -29 642 -7 Q 652 20 651 52 Q 650 104 651 580 Q 651 679 668 746 Q 678 762 674 776 Q 667 786 609 821 Q 584 837 563 822 Q 557 816 564 800 Q 598 751 600 702 Q 601 629 604 546 Q 603 401 601 243 Q 597 165 577 92 Z"></path>
      </clipPath>
      <path clip-path="url(#make-me-a-hanzi-clip-2)" d="M 576 813 L 605 791 L 630 760 L 626 251 L 612 71 L 614 -21" fill="none" id="make-me-a-hanzi-animation-2" stroke-dasharray="986 1972" stroke-linecap="round"></path>
    
      <clipPath id="make-me-a-hanzi-clip-3">
        <path d="M 715 460 Q 785 417 874 353 Q 893 337 910 335 Q 919 335 925 347 Q 935 363 913 404 Q 888 458 709 491 Q 699 495 700 482 Q 701 469 715 460 Z"></path>
      </clipPath>
      <path clip-path="url(#make-me-a-hanzi-clip-3)" d="M 712 479 L 853 412 L 881 391 L 908 352" fill="none" id="make-me-a-hanzi-animation-3" stroke-dasharray="367 734" stroke-linecap="round"></path>
    
  </g>
</svg>