<svg version="1.1" viewBox="0 0 1024 1024" xmlns="http://www.w3.org/2000/svg">
  <g stroke="lightgray" stroke-dasharray="1,1" stroke-width="1" transform="scale(4, 4)">
    <line x1="0" y1="0" x2="256" y2="256"></line>
    <line x1="256" y1="0" x2="0" y2="256"></line>
    <line x1="128" y1="0" x2="128" y2="256"></line>
    <line x1="0" y1="128" x2="256" y2="128"></line>
  </g>
  <g transform="scale(1, -1) translate(0, -900)">
    <style type="text/css">
      
        @keyframes keyframes0 {
          from {
            stroke: blue;
            stroke-dashoffset: 781;
            stroke-width: 128;
          }
          72% {
            animation-timing-function: step-end;
            stroke: blue;
            stroke-dashoffset: 0;
            stroke-width: 128;
          }
          to {
            stroke: black;
            stroke-width: 1024;
          }
        }
        #make-me-a-hanzi-animation-0 {
          animation: keyframes0 0.8855794270833334s both;
          animation-delay: 0s;
          animation-timing-function: linear;
        }
      
        @keyframes keyframes1 {
          from {
            stroke: blue;
            stroke-dashoffset: 739;
            stroke-width: 128;
          }
          71% {
            animation-timing-function: step-end;
            stroke: blue;
            stroke-dashoffset: 0;
            stroke-width: 128;
          }
          to {
            stroke: black;
            stroke-width: 1024;
          }
        }
        #make-me-a-hanzi-animation-1 {
          animation: keyframes1 0.8513997395833334s both;
          animation-delay: 0.8855794270833334s;
          animation-timing-function: linear;
        }
      
        @keyframes keyframes2 {
          from {
            stroke: blue;
            stroke-dashoffset: 645;
            stroke-width: 128;
          }
          68% {
            animation-timing-function: step-end;
            stroke: blue;
            stroke-dashoffset: 0;
            stroke-width: 128;
          }
          to {
            stroke: black;
            stroke-width: 1024;
          }
        }
        #make-me-a-hanzi-animation-2 {
          animation: keyframes2 0.77490234375s both;
          animation-delay: 1.7369791666666667s;
          animation-timing-function: linear;
        }
      
        @keyframes keyframes3 {
          from {
            stroke: blue;
            stroke-dashoffset: 889;
            stroke-width: 128;
          }
          74% {
            animation-timing-function: step-end;
            stroke: blue;
            stroke-dashoffset: 0;
            stroke-width: 128;
          }
          to {
            stroke: black;
            stroke-width: 1024;
          }
        }
        #make-me-a-hanzi-animation-3 {
          animation: keyframes3 0.9734700520833334s both;
          animation-delay: 2.511881510416667s;
          animation-timing-function: linear;
        }
      
        @keyframes keyframes4 {
          from {
            stroke: blue;
            stroke-dashoffset: 975;
            stroke-width: 128;
          }
          76% {
            animation-timing-function: step-end;
            stroke: blue;
            stroke-dashoffset: 0;
            stroke-width: 128;
          }
          to {
            stroke: black;
            stroke-width: 1024;
          }
        }
        #make-me-a-hanzi-animation-4 {
          animation: keyframes4 1.04345703125s both;
          animation-delay: 3.4853515625000004s;
          animation-timing-function: linear;
        }
      
    </style>
    
      <path d="M 229 563 Q 269 614 313 680 Q 341 726 365 748 Q 375 758 371 774 Q 367 787 337 812 Q 310 831 290 832 Q 271 831 278 807 Q 291 776 279 750 Q 213 600 52 416 Q 42 406 39 399 Q 35 387 50 390 Q 86 394 189 516 Q 193 522 199 527 L 229 563 Z" fill="lightgray"></path>
    
      <path d="M 199 527 Q 217 509 219 382 Q 218 273 190 163 Q 180 118 214 67 Q 215 67 217 64 Q 235 48 247 75 Q 262 115 261 162 Q 261 424 269 484 Q 276 511 267 522 Q 248 543 235 557 Q 232 561 229 563 C 208 585 185 554 199 527 Z" fill="lightgray"></path>
    
      <path d="M 600 680 Q 723 734 765 743 Q 784 744 789 753 Q 793 766 779 778 Q 754 796 704 814 Q 686 823 671 821 Q 662 817 662 804 Q 662 753 421 642 Q 415 632 422 628 Q 449 628 549 663 L 600 680 Z" fill="lightgray"></path>
    
      <path d="M 636 455 Q 730 468 875 472 Q 942 472 949 483 Q 953 496 936 509 Q 882 546 842 538 Q 764 519 636 494 L 579 484 Q 459 465 320 443 Q 298 440 315 423 Q 351 393 388 405 Q 476 432 579 446 L 636 455 Z" fill="lightgray"></path>
    
      <path d="M 583 1 Q 590 -27 597 -37 Q 603 -44 611 -42 Q 627 -33 634 32 Q 641 116 639 198 Q 635 256 636 455 L 636 494 Q 636 578 648 630 Q 651 649 636 660 Q 615 673 600 680 C 573 694 537 690 549 663 Q 573 615 579 550 Q 579 520 579 484 L 579 446 Q 579 35 583 1 Z" fill="lightgray"></path>
    
    
      <clipPath id="make-me-a-hanzi-clip-0">
        <path d="M 229 563 Q 269 614 313 680 Q 341 726 365 748 Q 375 758 371 774 Q 367 787 337 812 Q 310 831 290 832 Q 271 831 278 807 Q 291 776 279 750 Q 213 600 52 416 Q 42 406 39 399 Q 35 387 50 390 Q 86 394 189 516 Q 193 522 199 527 L 229 563 Z"></path>
      </clipPath>
      <path clip-path="url(#make-me-a-hanzi-clip-0)" d="M 290 816 L 307 801 L 325 766 L 292 703 L 245 627 L 150 500 L 78 421 L 48 399" fill="none" id="make-me-a-hanzi-animation-0" stroke-dasharray="653 1306" stroke-linecap="round"></path>
    
      <clipPath id="make-me-a-hanzi-clip-1">
        <path d="M 199 527 Q 217 509 219 382 Q 218 273 190 163 Q 180 118 214 67 Q 215 67 217 64 Q 235 48 247 75 Q 262 115 261 162 Q 261 424 269 484 Q 276 511 267 522 Q 248 543 235 557 Q 232 561 229 563 C 208 585 185 554 199 527 Z"></path>
      </clipPath>
      <path clip-path="url(#make-me-a-hanzi-clip-1)" d="M 227 555 L 231 524 L 241 505 L 242 428 L 237 265 L 224 141 L 230 76" fill="none" id="make-me-a-hanzi-animation-1" stroke-dasharray="611 1222" stroke-linecap="round"></path>
    
      <clipPath id="make-me-a-hanzi-clip-2">
        <path d="M 600 680 Q 723 734 765 743 Q 784 744 789 753 Q 793 766 779 778 Q 754 796 704 814 Q 686 823 671 821 Q 662 817 662 804 Q 662 753 421 642 Q 415 632 422 628 Q 449 628 549 663 L 600 680 Z"></path>
      </clipPath>
      <path clip-path="url(#make-me-a-hanzi-clip-2)" d="M 777 759 L 698 769 L 600 706 L 495 659 L 485 660 L 452 643 L 435 644 L 425 635" fill="none" id="make-me-a-hanzi-animation-2" stroke-dasharray="517 1034" stroke-linecap="round"></path>
    
      <clipPath id="make-me-a-hanzi-clip-3">
        <path d="M 636 455 Q 730 468 875 472 Q 942 472 949 483 Q 953 496 936 509 Q 882 546 842 538 Q 764 519 636 494 L 579 484 Q 459 465 320 443 Q 298 440 315 423 Q 351 393 388 405 Q 476 432 579 446 L 636 455 Z"></path>
      </clipPath>
      <path clip-path="url(#make-me-a-hanzi-clip-3)" d="M 317 433 L 376 427 L 546 461 L 859 506 L 941 489" fill="none" id="make-me-a-hanzi-animation-3" stroke-dasharray="761 1522" stroke-linecap="round"></path>
    
      <clipPath id="make-me-a-hanzi-clip-4">
        <path d="M 583 1 Q 590 -27 597 -37 Q 603 -44 611 -42 Q 627 -33 634 32 Q 641 116 639 198 Q 635 256 636 455 L 636 494 Q 636 578 648 630 Q 651 649 636 660 Q 615 673 600 680 C 573 694 537 690 549 663 Q 573 615 579 550 Q 579 520 579 484 L 579 446 Q 579 35 583 1 Z"></path>
      </clipPath>
      <path clip-path="url(#make-me-a-hanzi-clip-4)" d="M 557 659 L 599 639 L 607 618 L 607 -32" fill="none" id="make-me-a-hanzi-animation-4" stroke-dasharray="847 1694" stroke-linecap="round"></path>
    
  </g>
</svg>