<svg version="1.1" viewBox="0 0 1024 1024" xmlns="http://www.w3.org/2000/svg">
  <g stroke="lightgray" stroke-dasharray="1,1" stroke-width="1" transform="scale(4, 4)">
    <line x1="0" y1="0" x2="256" y2="256"></line>
    <line x1="256" y1="0" x2="0" y2="256"></line>
    <line x1="128" y1="0" x2="128" y2="256"></line>
    <line x1="0" y1="128" x2="256" y2="128"></line>
  </g>
  <g transform="scale(1, -1) translate(0, -900)">
    <style type="text/css">
      
        @keyframes keyframes0 {
          from {
            stroke: blue;
            stroke-dashoffset: 837;
            stroke-width: 128;
          }
          73% {
            animation-timing-function: step-end;
            stroke: blue;
            stroke-dashoffset: 0;
            stroke-width: 128;
          }
          to {
            stroke: black;
            stroke-width: 1024;
          }
        }
        #make-me-a-hanzi-animation-0 {
          animation: keyframes0 0.93115234375s both;
          animation-delay: 0s;
          animation-timing-function: linear;
        }
      
        @keyframes keyframes1 {
          from {
            stroke: blue;
            stroke-dashoffset: 762;
            stroke-width: 128;
          }
          71% {
            animation-timing-function: step-end;
            stroke: blue;
            stroke-dashoffset: 0;
            stroke-width: 128;
          }
          to {
            stroke: black;
            stroke-width: 1024;
          }
        }
        #make-me-a-hanzi-animation-1 {
          animation: keyframes1 0.8701171875s both;
          animation-delay: 0.93115234375s;
          animation-timing-function: linear;
        }
      
        @keyframes keyframes2 {
          from {
            stroke: blue;
            stroke-dashoffset: 697;
            stroke-width: 128;
          }
          69% {
            animation-timing-function: step-end;
            stroke: blue;
            stroke-dashoffset: 0;
            stroke-width: 128;
          }
          to {
            stroke: black;
            stroke-width: 1024;
          }
        }
        #make-me-a-hanzi-animation-2 {
          animation: keyframes2 0.8172200520833334s both;
          animation-delay: 1.80126953125s;
          animation-timing-function: linear;
        }
      
        @keyframes keyframes3 {
          from {
            stroke: blue;
            stroke-dashoffset: 1046;
            stroke-width: 128;
          }
          77% {
            animation-timing-function: step-end;
            stroke: blue;
            stroke-dashoffset: 0;
            stroke-width: 128;
          }
          to {
            stroke: black;
            stroke-width: 1024;
          }
        }
        #make-me-a-hanzi-animation-3 {
          animation: keyframes3 1.1012369791666667s both;
          animation-delay: 2.6184895833333335s;
          animation-timing-function: linear;
        }
      
        @keyframes keyframes4 {
          from {
            stroke: blue;
            stroke-dashoffset: 548;
            stroke-width: 128;
          }
          64% {
            animation-timing-function: step-end;
            stroke: blue;
            stroke-dashoffset: 0;
            stroke-width: 128;
          }
          to {
            stroke: black;
            stroke-width: 1024;
          }
        }
        #make-me-a-hanzi-animation-4 {
          animation: keyframes4 0.6959635416666666s both;
          animation-delay: 3.7197265625s;
          animation-timing-function: linear;
        }
      
        @keyframes keyframes5 {
          from {
            stroke: blue;
            stroke-dashoffset: 444;
            stroke-width: 128;
          }
          59% {
            animation-timing-function: step-end;
            stroke: blue;
            stroke-dashoffset: 0;
            stroke-width: 128;
          }
          to {
            stroke: black;
            stroke-width: 1024;
          }
        }
        #make-me-a-hanzi-animation-5 {
          animation: keyframes5 0.611328125s both;
          animation-delay: 4.415690104166667s;
          animation-timing-function: linear;
        }
      
        @keyframes keyframes6 {
          from {
            stroke: blue;
            stroke-dashoffset: 799;
            stroke-width: 128;
          }
          72% {
            animation-timing-function: step-end;
            stroke: blue;
            stroke-dashoffset: 0;
            stroke-width: 128;
          }
          to {
            stroke: black;
            stroke-width: 1024;
          }
        }
        #make-me-a-hanzi-animation-6 {
          animation: keyframes6 0.9002278645833334s both;
          animation-delay: 5.027018229166667s;
          animation-timing-function: linear;
        }
      
    </style>
    
      <path d="M 249 516 Q 289 574 333 645 Q 361 699 387 725 Q 397 737 392 751 Q 388 764 358 787 Q 330 806 310 806 Q 291 805 299 781 Q 315 747 301 716 Q 261 616 200 524 Q 140 434 59 336 Q 49 326 46 319 Q 42 307 57 310 Q 99 320 202 455 Q 214 470 227 486 L 249 516 Z" fill="lightgray"></path>
    
      <path d="M 227 486 Q 251 429 251 363 Q 250 342 250 321 Q 247 209 216 95 Q 204 44 238 5 Q 239 2 242 0 Q 258 -16 270 10 Q 285 50 284 95 Q 290 369 300 431 Q 307 458 298 468 Q 256 513 249 516 C 226 535 216 514 227 486 Z" fill="lightgray"></path>
    
      <path d="M 611 515 Q 644 522 836 549 Q 846 548 857 560 Q 858 573 834 584 Q 801 605 717 581 Q 641 565 626 560 L 564 548 Q 438 535 417 530 Q 386 526 410 508 Q 440 483 488 491 Q 515 497 549 503 L 611 515 Z" fill="lightgray"></path>
    
      <path d="M 524 323 Q 593 464 611 515 L 626 560 Q 629 570 632 582 Q 653 667 684 720 Q 691 730 684 741 Q 669 762 636 784 Q 617 799 597 797 Q 575 793 588 772 Q 610 735 603 704 Q 585 617 564 548 L 549 503 Q 474 280 309 134 Q 296 127 294 122 Q 290 115 306 115 Q 357 115 470 242 Q 506 293 513 304 L 524 323 Z" fill="lightgray"></path>
    
      <path d="M 662 299 Q 809 329 814 333 Q 823 340 819 348 Q 812 360 784 368 Q 756 374 726 363 Q 683 350 637 339 Q 585 329 526 324 Q 525 324 524 323 C 494 318 493 318 513 304 Q 549 277 611 291 Q 614 291 620 291 L 662 299 Z" fill="lightgray"></path>
    
      <path d="M 658 114 Q 682 277 682 278 Q 672 290 662 299 C 640 320 613 320 620 291 L 621 290 Q 624 275 613 108 C 611 78 654 84 658 114 Z" fill="lightgray"></path>
    
      <path d="M 613 108 Q 513 98 397 86 Q 376 85 391 67 Q 404 52 423 47 Q 444 41 460 45 Q 592 78 883 78 Q 899 78 917 76 Q 936 76 942 84 Q 948 96 932 110 Q 880 152 842 143 Q 773 130 658 114 L 613 108 Z" fill="lightgray"></path>
    
    
      <clipPath id="make-me-a-hanzi-clip-0">
        <path d="M 249 516 Q 289 574 333 645 Q 361 699 387 725 Q 397 737 392 751 Q 388 764 358 787 Q 330 806 310 806 Q 291 805 299 781 Q 315 747 301 716 Q 261 616 200 524 Q 140 434 59 336 Q 49 326 46 319 Q 42 307 57 310 Q 99 320 202 455 Q 214 470 227 486 L 249 516 Z"></path>
      </clipPath>
      <path clip-path="url(#make-me-a-hanzi-clip-0)" d="M 310 791 L 336 766 L 348 743 L 297 638 L 241 545 L 165 437 L 93 352 L 55 319" fill="none" id="make-me-a-hanzi-animation-0" stroke-dasharray="709 1418" stroke-linecap="round"></path>
    
      <clipPath id="make-me-a-hanzi-clip-1">
        <path d="M 227 486 Q 251 429 251 363 Q 250 342 250 321 Q 247 209 216 95 Q 204 44 238 5 Q 239 2 242 0 Q 258 -16 270 10 Q 285 50 284 95 Q 290 369 300 431 Q 307 458 298 468 Q 256 513 249 516 C 226 535 216 514 227 486 Z"></path>
      </clipPath>
      <path clip-path="url(#make-me-a-hanzi-clip-1)" d="M 248 509 L 253 482 L 272 451 L 273 417 L 264 199 L 248 70 L 254 10" fill="none" id="make-me-a-hanzi-animation-1" stroke-dasharray="634 1268" stroke-linecap="round"></path>
    
      <clipPath id="make-me-a-hanzi-clip-2">
        <path d="M 611 515 Q 644 522 836 549 Q 846 548 857 560 Q 858 573 834 584 Q 801 605 717 581 Q 641 565 626 560 L 564 548 Q 438 535 417 530 Q 386 526 410 508 Q 440 483 488 491 Q 515 497 549 503 L 611 515 Z"></path>
      </clipPath>
      <path clip-path="url(#make-me-a-hanzi-clip-2)" d="M 411 520 L 475 514 L 782 568 L 847 562" fill="none" id="make-me-a-hanzi-animation-2" stroke-dasharray="569 1138" stroke-linecap="round"></path>
    
      <clipPath id="make-me-a-hanzi-clip-3">
        <path d="M 524 323 Q 593 464 611 515 L 626 560 Q 629 570 632 582 Q 653 667 684 720 Q 691 730 684 741 Q 669 762 636 784 Q 617 799 597 797 Q 575 793 588 772 Q 610 735 603 704 Q 585 617 564 548 L 549 503 Q 474 280 309 134 Q 296 127 294 122 Q 290 115 306 115 Q 357 115 470 242 Q 506 293 513 304 L 524 323 Z"></path>
      </clipPath>
      <path clip-path="url(#make-me-a-hanzi-clip-3)" d="M 596 783 L 617 769 L 643 725 L 584 521 L 542 414 L 508 343 L 446 247 L 361 160 L 332 136 L 301 121" fill="none" id="make-me-a-hanzi-animation-3" stroke-dasharray="918 1836" stroke-linecap="round"></path>
    
      <clipPath id="make-me-a-hanzi-clip-4">
        <path d="M 662 299 Q 809 329 814 333 Q 823 340 819 348 Q 812 360 784 368 Q 756 374 726 363 Q 683 350 637 339 Q 585 329 526 324 Q 525 324 524 323 C 494 318 493 318 513 304 Q 549 277 611 291 Q 614 291 620 291 L 662 299 Z"></path>
      </clipPath>
      <path clip-path="url(#make-me-a-hanzi-clip-4)" d="M 521 305 L 535 310 L 584 308 L 672 322 L 752 344 L 808 343" fill="none" id="make-me-a-hanzi-animation-4" stroke-dasharray="420 840" stroke-linecap="round"></path>
    
      <clipPath id="make-me-a-hanzi-clip-5">
        <path d="M 658 114 Q 682 277 682 278 Q 672 290 662 299 C 640 320 613 320 620 291 L 621 290 Q 624 275 613 108 C 611 78 654 84 658 114 Z"></path>
      </clipPath>
      <path clip-path="url(#make-me-a-hanzi-clip-5)" d="M 628 289 L 651 265 L 639 136 L 619 121" fill="none" id="make-me-a-hanzi-animation-5" stroke-dasharray="316 632" stroke-linecap="round"></path>
    
      <clipPath id="make-me-a-hanzi-clip-6">
        <path d="M 613 108 Q 513 98 397 86 Q 376 85 391 67 Q 404 52 423 47 Q 444 41 460 45 Q 592 78 883 78 Q 899 78 917 76 Q 936 76 942 84 Q 948 96 932 110 Q 880 152 842 143 Q 773 130 658 114 L 613 108 Z"></path>
      </clipPath>
      <path clip-path="url(#make-me-a-hanzi-clip-6)" d="M 394 76 L 451 67 L 564 84 L 859 111 L 931 91" fill="none" id="make-me-a-hanzi-animation-6" stroke-dasharray="671 1342" stroke-linecap="round"></path>
    
  </g>
</svg>