<svg version="1.1" viewBox="0 0 1024 1024" xmlns="http://www.w3.org/2000/svg">
  <g stroke="lightgray" stroke-dasharray="1,1" stroke-width="1" transform="scale(4, 4)">
    <line x1="0" y1="0" x2="256" y2="256"></line>
    <line x1="256" y1="0" x2="0" y2="256"></line>
    <line x1="128" y1="0" x2="128" y2="256"></line>
    <line x1="0" y1="128" x2="256" y2="128"></line>
  </g>
  <g transform="scale(1, -1) translate(0, -900)">
    <style type="text/css">
      
        @keyframes keyframes0 {
          from {
            stroke: blue;
            stroke-dashoffset: 809;
            stroke-width: 128;
          }
          72% {
            animation-timing-function: step-end;
            stroke: blue;
            stroke-dashoffset: 0;
            stroke-width: 128;
          }
          to {
            stroke: black;
            stroke-width: 1024;
          }
        }
        #make-me-a-hanzi-animation-0 {
          animation: keyframes0 0.9083658854166666s both;
          animation-delay: 0s;
          animation-timing-function: linear;
        }
      
        @keyframes keyframes1 {
          from {
            stroke: blue;
            stroke-dashoffset: 777;
            stroke-width: 128;
          }
          72% {
            animation-timing-function: step-end;
            stroke: blue;
            stroke-dashoffset: 0;
            stroke-width: 128;
          }
          to {
            stroke: black;
            stroke-width: 1024;
          }
        }
        #make-me-a-hanzi-animation-1 {
          animation: keyframes1 0.88232421875s both;
          animation-delay: 0.9083658854166666s;
          animation-timing-function: linear;
        }
      
        @keyframes keyframes2 {
          from {
            stroke: blue;
            stroke-dashoffset: 720;
            stroke-width: 128;
          }
          70% {
            animation-timing-function: step-end;
            stroke: blue;
            stroke-dashoffset: 0;
            stroke-width: 128;
          }
          to {
            stroke: black;
            stroke-width: 1024;
          }
        }
        #make-me-a-hanzi-animation-2 {
          animation: keyframes2 0.8359375s both;
          animation-delay: 1.7906901041666665s;
          animation-timing-function: linear;
        }
      
        @keyframes keyframes3 {
          from {
            stroke: blue;
            stroke-dashoffset: 725;
            stroke-width: 128;
          }
          70% {
            animation-timing-function: step-end;
            stroke: blue;
            stroke-dashoffset: 0;
            stroke-width: 128;
          }
          to {
            stroke: black;
            stroke-width: 1024;
          }
        }
        #make-me-a-hanzi-animation-3 {
          animation: keyframes3 0.8400065104166666s both;
          animation-delay: 2.6266276041666665s;
          animation-timing-function: linear;
        }
      
        @keyframes keyframes4 {
          from {
            stroke: blue;
            stroke-dashoffset: 841;
            stroke-width: 128;
          }
          73% {
            animation-timing-function: step-end;
            stroke: blue;
            stroke-dashoffset: 0;
            stroke-width: 128;
          }
          to {
            stroke: black;
            stroke-width: 1024;
          }
        }
        #make-me-a-hanzi-animation-4 {
          animation: keyframes4 0.9344075520833334s both;
          animation-delay: 3.466634114583333s;
          animation-timing-function: linear;
        }
      
        @keyframes keyframes5 {
          from {
            stroke: blue;
            stroke-dashoffset: 432;
            stroke-width: 128;
          }
          58% {
            animation-timing-function: step-end;
            stroke: blue;
            stroke-dashoffset: 0;
            stroke-width: 128;
          }
          to {
            stroke: black;
            stroke-width: 1024;
          }
        }
        #make-me-a-hanzi-animation-5 {
          animation: keyframes5 0.6015625s both;
          animation-delay: 4.401041666666666s;
          animation-timing-function: linear;
        }
      
        @keyframes keyframes6 {
          from {
            stroke: blue;
            stroke-dashoffset: 481;
            stroke-width: 128;
          }
          61% {
            animation-timing-function: step-end;
            stroke: blue;
            stroke-dashoffset: 0;
            stroke-width: 128;
          }
          to {
            stroke: black;
            stroke-width: 1024;
          }
        }
        #make-me-a-hanzi-animation-6 {
          animation: keyframes6 0.6414388020833334s both;
          animation-delay: 5.002604166666666s;
          animation-timing-function: linear;
        }
      
    </style>
    
      <path d="M 272 567 Q 306 613 342 669 Q 370 718 395 743 Q 405 753 400 769 Q 396 782 365 808 Q 337 827 316 828 Q 297 827 305 802 Q 318 769 306 741 Q 267 647 207 560 Q 150 476 72 385 Q 60 375 58 367 Q 54 355 70 358 Q 82 359 109 384 Q 155 421 213 493 Q 226 509 241 527 L 272 567 Z" fill="lightgray"></path>
    
      <path d="M 241 527 Q 262 506 258 375 Q 258 374 258 370 Q 254 253 221 135 Q 215 114 224 80 Q 236 44 248 32 Q 267 16 279 44 Q 294 86 294 134 Q 303 420 314 485 Q 321 515 295 543 Q 289 549 272 567 C 251 589 227 553 241 527 Z" fill="lightgray"></path>
    
      <path d="M 521 560 Q 561 621 602 708 Q 620 751 638 773 Q 645 786 639 799 Q 633 811 602 830 Q 572 846 554 843 Q 535 839 546 817 Q 561 795 552 757 Q 513 619 407 448 Q 398 436 397 430 Q 394 418 409 423 Q 439 432 503 532 L 521 560 Z" fill="lightgray"></path>
    
      <path d="M 503 532 Q 527 510 555 520 Q 795 608 782 549 Q 783 543 743 468 Q 736 458 741 453 Q 745 447 756 459 Q 852 532 894 549 Q 904 552 905 561 Q 906 574 876 592 Q 852 605 828 621 Q 800 637 783 630 Q 686 590 521 560 C 492 555 479 550 503 532 Z" fill="lightgray"></path>
    
      <path d="M 568 72 Q 531 81 494 91 Q 482 94 483 86 Q 484 79 494 71 Q 569 7 596 -33 Q 611 -49 626 -36 Q 659 -3 661 82 Q 655 149 655 345 Q 656 382 667 407 Q 676 426 659 439 Q 634 461 604 470 Q 585 477 577 469 Q 571 462 582 447 Q 619 384 603 127 Q 597 82 589 74 Q 582 67 568 72 Z" fill="lightgray"></path>
    
      <path d="M 444 320 Q 419 262 385 208 Q 364 180 381 144 Q 388 128 409 139 Q 460 181 468 264 Q 472 295 467 319 Q 463 328 456 328 Q 449 327 444 320 Z" fill="lightgray"></path>
    
      <path d="M 738 307 Q 789 249 847 168 Q 860 146 876 139 Q 885 138 893 146 Q 908 159 900 204 Q 891 264 743 338 Q 734 345 731 332 Q 728 319 738 307 Z" fill="lightgray"></path>
    
    
      <clipPath id="make-me-a-hanzi-clip-0">
        <path d="M 272 567 Q 306 613 342 669 Q 370 718 395 743 Q 405 753 400 769 Q 396 782 365 808 Q 337 827 316 828 Q 297 827 305 802 Q 318 769 306 741 Q 267 647 207 560 Q 150 476 72 385 Q 60 375 58 367 Q 54 355 70 358 Q 82 359 109 384 Q 155 421 213 493 Q 226 509 241 527 L 272 567 Z"></path>
      </clipPath>
      <path clip-path="url(#make-me-a-hanzi-clip-0)" d="M 317 812 L 342 786 L 353 759 L 303 663 L 249 577 L 181 485 L 93 386 L 68 367" fill="none" id="make-me-a-hanzi-animation-0" stroke-dasharray="681 1362" stroke-linecap="round"></path>
    
      <clipPath id="make-me-a-hanzi-clip-1">
        <path d="M 241 527 Q 262 506 258 375 Q 258 374 258 370 Q 254 253 221 135 Q 215 114 224 80 Q 236 44 248 32 Q 267 16 279 44 Q 294 86 294 134 Q 303 420 314 485 Q 321 515 295 543 Q 289 549 272 567 C 251 589 227 553 241 527 Z"></path>
      </clipPath>
      <path clip-path="url(#make-me-a-hanzi-clip-1)" d="M 273 558 L 274 525 L 285 495 L 284 441 L 273 243 L 256 123 L 260 41" fill="none" id="make-me-a-hanzi-animation-1" stroke-dasharray="649 1298" stroke-linecap="round"></path>
    
      <clipPath id="make-me-a-hanzi-clip-2">
        <path d="M 521 560 Q 561 621 602 708 Q 620 751 638 773 Q 645 786 639 799 Q 633 811 602 830 Q 572 846 554 843 Q 535 839 546 817 Q 561 795 552 757 Q 513 619 407 448 Q 398 436 397 430 Q 394 418 409 423 Q 439 432 503 532 L 521 560 Z"></path>
      </clipPath>
      <path clip-path="url(#make-me-a-hanzi-clip-2)" d="M 556 828 L 574 817 L 595 783 L 584 746 L 539 640 L 481 531 L 428 453 L 406 431" fill="none" id="make-me-a-hanzi-animation-2" stroke-dasharray="592 1184" stroke-linecap="round"></path>
    
      <clipPath id="make-me-a-hanzi-clip-3">
        <path d="M 503 532 Q 527 510 555 520 Q 795 608 782 549 Q 783 543 743 468 Q 736 458 741 453 Q 745 447 756 459 Q 852 532 894 549 Q 904 552 905 561 Q 906 574 876 592 Q 852 605 828 621 Q 800 637 783 630 Q 686 590 521 560 C 492 555 479 550 503 532 Z"></path>
      </clipPath>
      <path clip-path="url(#make-me-a-hanzi-clip-3)" d="M 513 532 L 704 585 L 796 597 L 813 585 L 827 563 L 798 519 L 746 460" fill="none" id="make-me-a-hanzi-animation-3" stroke-dasharray="597 1194" stroke-linecap="round"></path>
    
      <clipPath id="make-me-a-hanzi-clip-4">
        <path d="M 568 72 Q 531 81 494 91 Q 482 94 483 86 Q 484 79 494 71 Q 569 7 596 -33 Q 611 -49 626 -36 Q 659 -3 661 82 Q 655 149 655 345 Q 656 382 667 407 Q 676 426 659 439 Q 634 461 604 470 Q 585 477 577 469 Q 571 462 582 447 Q 619 384 603 127 Q 597 82 589 74 Q 582 67 568 72 Z"></path>
      </clipPath>
      <path clip-path="url(#make-me-a-hanzi-clip-4)" d="M 586 463 L 615 438 L 632 412 L 627 73 L 616 41 L 604 30 L 558 47 L 490 85" fill="none" id="make-me-a-hanzi-animation-4" stroke-dasharray="713 1426" stroke-linecap="round"></path>
    
      <clipPath id="make-me-a-hanzi-clip-5">
        <path d="M 444 320 Q 419 262 385 208 Q 364 180 381 144 Q 388 128 409 139 Q 460 181 468 264 Q 472 295 467 319 Q 463 328 456 328 Q 449 327 444 320 Z"></path>
      </clipPath>
      <path clip-path="url(#make-me-a-hanzi-clip-5)" d="M 455 316 L 437 243 L 397 151" fill="none" id="make-me-a-hanzi-animation-5" stroke-dasharray="304 608" stroke-linecap="round"></path>
    
      <clipPath id="make-me-a-hanzi-clip-6">
        <path d="M 738 307 Q 789 249 847 168 Q 860 146 876 139 Q 885 138 893 146 Q 908 159 900 204 Q 891 264 743 338 Q 734 345 731 332 Q 728 319 738 307 Z"></path>
      </clipPath>
      <path clip-path="url(#make-me-a-hanzi-clip-6)" d="M 742 326 L 812 265 L 856 216 L 871 190 L 878 154" fill="none" id="make-me-a-hanzi-animation-6" stroke-dasharray="353 706" stroke-linecap="round"></path>
    
  </g>
</svg>