<svg version="1.1" viewBox="0 0 1024 1024" xmlns="http://www.w3.org/2000/svg">
  <g stroke="lightgray" stroke-dasharray="1,1" stroke-width="1" transform="scale(4, 4)">
    <line x1="0" y1="0" x2="256" y2="256"></line>
    <line x1="256" y1="0" x2="0" y2="256"></line>
    <line x1="128" y1="0" x2="128" y2="256"></line>
    <line x1="0" y1="128" x2="256" y2="128"></line>
  </g>
  <g transform="scale(1, -1) translate(0, -900)">
    <style type="text/css">
      
        @keyframes keyframes0 {
          from {
            stroke: blue;
            stroke-dashoffset: 798;
            stroke-width: 128;
          }
          72% {
            animation-timing-function: step-end;
            stroke: blue;
            stroke-dashoffset: 0;
            stroke-width: 128;
          }
          to {
            stroke: black;
            stroke-width: 1024;
          }
        }
        #make-me-a-hanzi-animation-0 {
          animation: keyframes0 0.8994140625s both;
          animation-delay: 0s;
          animation-timing-function: linear;
        }
      
        @keyframes keyframes1 {
          from {
            stroke: blue;
            stroke-dashoffset: 719;
            stroke-width: 128;
          }
          70% {
            animation-timing-function: step-end;
            stroke: blue;
            stroke-dashoffset: 0;
            stroke-width: 128;
          }
          to {
            stroke: black;
            stroke-width: 1024;
          }
        }
        #make-me-a-hanzi-animation-1 {
          animation: keyframes1 0.8351236979166666s both;
          animation-delay: 0.8994140625s;
          animation-timing-function: linear;
        }
      
        @keyframes keyframes2 {
          from {
            stroke: blue;
            stroke-dashoffset: 372;
            stroke-width: 128;
          }
          55% {
            animation-timing-function: step-end;
            stroke: blue;
            stroke-dashoffset: 0;
            stroke-width: 128;
          }
          to {
            stroke: black;
            stroke-width: 1024;
          }
        }
        #make-me-a-hanzi-animation-2 {
          animation: keyframes2 0.552734375s both;
          animation-delay: 1.7345377604166665s;
          animation-timing-function: linear;
        }
      
        @keyframes keyframes3 {
          from {
            stroke: blue;
            stroke-dashoffset: 408;
            stroke-width: 128;
          }
          57% {
            animation-timing-function: step-end;
            stroke: blue;
            stroke-dashoffset: 0;
            stroke-width: 128;
          }
          to {
            stroke: black;
            stroke-width: 1024;
          }
        }
        #make-me-a-hanzi-animation-3 {
          animation: keyframes3 0.58203125s both;
          animation-delay: 2.2872721354166665s;
          animation-timing-function: linear;
        }
      
        @keyframes keyframes4 {
          from {
            stroke: blue;
            stroke-dashoffset: 709;
            stroke-width: 128;
          }
          70% {
            animation-timing-function: step-end;
            stroke: blue;
            stroke-dashoffset: 0;
            stroke-width: 128;
          }
          to {
            stroke: black;
            stroke-width: 1024;
          }
        }
        #make-me-a-hanzi-animation-4 {
          animation: keyframes4 0.8269856770833334s both;
          animation-delay: 2.8693033854166665s;
          animation-timing-function: linear;
        }
      
        @keyframes keyframes5 {
          from {
            stroke: blue;
            stroke-dashoffset: 719;
            stroke-width: 128;
          }
          70% {
            animation-timing-function: step-end;
            stroke: blue;
            stroke-dashoffset: 0;
            stroke-width: 128;
          }
          to {
            stroke: black;
            stroke-width: 1024;
          }
        }
        #make-me-a-hanzi-animation-5 {
          animation: keyframes5 0.8351236979166666s both;
          animation-delay: 3.6962890625s;
          animation-timing-function: linear;
        }
      
        @keyframes keyframes6 {
          from {
            stroke: blue;
            stroke-dashoffset: 561;
            stroke-width: 128;
          }
          65% {
            animation-timing-function: step-end;
            stroke: blue;
            stroke-dashoffset: 0;
            stroke-width: 128;
          }
          to {
            stroke: black;
            stroke-width: 1024;
          }
        }
        #make-me-a-hanzi-animation-6 {
          animation: keyframes6 0.70654296875s both;
          animation-delay: 4.531412760416667s;
          animation-timing-function: linear;
        }
      
        @keyframes keyframes7 {
          from {
            stroke: blue;
            stroke-dashoffset: 665;
            stroke-width: 128;
          }
          68% {
            animation-timing-function: step-end;
            stroke: blue;
            stroke-dashoffset: 0;
            stroke-width: 128;
          }
          to {
            stroke: black;
            stroke-width: 1024;
          }
        }
        #make-me-a-hanzi-animation-7 {
          animation: keyframes7 0.7911783854166666s both;
          animation-delay: 5.237955729166667s;
          animation-timing-function: linear;
        }
      
        @keyframes keyframes8 {
          from {
            stroke: blue;
            stroke-dashoffset: 873;
            stroke-width: 128;
          }
          74% {
            animation-timing-function: step-end;
            stroke: blue;
            stroke-dashoffset: 0;
            stroke-width: 128;
          }
          to {
            stroke: black;
            stroke-width: 1024;
          }
        }
        #make-me-a-hanzi-animation-8 {
          animation: keyframes8 0.96044921875s both;
          animation-delay: 6.029134114583334s;
          animation-timing-function: linear;
        }
      
        @keyframes keyframes9 {
          from {
            stroke: blue;
            stroke-dashoffset: 745;
            stroke-width: 128;
          }
          71% {
            animation-timing-function: step-end;
            stroke: blue;
            stroke-dashoffset: 0;
            stroke-width: 128;
          }
          to {
            stroke: black;
            stroke-width: 1024;
          }
        }
        #make-me-a-hanzi-animation-9 {
          animation: keyframes9 0.8562825520833334s both;
          animation-delay: 6.989583333333334s;
          animation-timing-function: linear;
        }
      
        @keyframes keyframes10 {
          from {
            stroke: blue;
            stroke-dashoffset: 847;
            stroke-width: 128;
          }
          73% {
            animation-timing-function: step-end;
            stroke: blue;
            stroke-dashoffset: 0;
            stroke-width: 128;
          }
          to {
            stroke: black;
            stroke-width: 1024;
          }
        }
        #make-me-a-hanzi-animation-10 {
          animation: keyframes10 0.9392903645833334s both;
          animation-delay: 7.845865885416667s;
          animation-timing-function: linear;
        }
      
    </style>
    
      <path d="M 224 498 Q 273 559 329 645 Q 357 694 382 717 Q 392 727 387 742 Q 383 755 353 780 Q 326 799 306 799 Q 287 798 295 775 Q 308 742 296 715 Q 224 555 64 368 Q 54 358 50 351 Q 46 339 61 342 Q 94 345 199 469 L 224 498 Z" fill="lightgray"></path>
    
      <path d="M 199 469 Q 223 394 223 370 Q 222 348 222 323 Q 222 223 196 119 Q 184 68 218 29 Q 219 26 222 24 Q 238 8 250 34 Q 265 74 264 119 Q 264 360 272 415 Q 279 442 270 452 Q 231 494 224 498 C 201 518 190 498 199 469 Z" fill="lightgray"></path>
    
      <path d="M 442 664 Q 464 645 486 620 Q 498 610 511 609 Q 521 609 525 621 Q 529 634 523 659 Q 519 675 493 688 Q 435 712 420 707 Q 416 703 416 692 Q 420 682 442 664 Z" fill="lightgray"></path>
    
      <path d="M 706 737 Q 687 709 648 664 Q 642 657 647 651 Q 654 650 661 653 Q 734 699 771 716 Q 787 720 783 730 Q 779 745 762 762 Q 746 778 726 781 Q 713 781 713 764 Q 714 751 706 737 Z" fill="lightgray"></path>
    
      <path d="M 608 554 Q 645 563 798 580 Q 808 579 816 591 Q 817 601 796 612 Q 766 636 681 609 Q 612 594 603 591 L 564 583 Q 513 576 467 570 Q 418 566 364 559 Q 337 556 358 539 Q 388 514 416 520 Q 464 532 522 540 L 608 554 Z" fill="lightgray"></path>
    
      <path d="M 603 591 Q 609 706 634 750 Q 640 759 629 773 Q 607 791 579 802 Q 563 811 548 805 Q 535 801 541 786 Q 568 743 565 673 Q 565 624 564 583 L 562 512 Q 558 436 550 402 Q 549 390 565 351 Q 575 335 589 343 Q 598 350 599 497 Q 599 513 600 529 L 603 591 Z" fill="lightgray"></path>
    
      <path d="M 522 540 Q 485 453 330 351 Q 314 341 328 338 Q 338 337 375 350 Q 412 363 448 388 Q 479 412 514 449 Q 542 479 559 507 Q 560 510 562 512 C 587 553 546 593 522 540 Z" fill="lightgray"></path>
    
      <path d="M 600 529 Q 672 444 750 367 Q 772 345 807 345 Q 873 341 940 355 Q 956 356 959 362 Q 960 368 947 373 Q 904 389 854 404 Q 760 437 615 549 Q 611 552 608 554 C 584 572 578 554 600 529 Z" fill="lightgray"></path>
    
      <path d="M 584 47 Q 636 14 707 -42 Q 732 -61 750 -61 Q 771 -61 771 -41 Q 771 -22 742 24 Q 726 51 622 89 L 574 108 Q 519 129 481 138 Q 462 142 472 161 Q 494 204 510 233 L 531 270 Q 546 301 556 312 Q 566 319 563 329 Q 559 342 522 372 Q 512 381 500 378 Q 487 375 494 359 Q 503 337 494 313 Q 485 288 477 264 L 461 226 Q 442 186 424 161 Q 414 143 417 131 Q 420 121 437 117 Q 488 105 539 74 L 584 47 Z" fill="lightgray"></path>
    
      <path d="M 539 74 Q 481 29 360 -3 Q 342 -12 363 -15 Q 490 -25 584 47 L 622 89 Q 626 98 633 106 Q 664 152 681 207 Q 688 235 695 249 C 706 277 709 283 696 293 Q 663 321 631 314 Q 618 310 624 295 Q 627 291 629 283 L 632 246 Q 632 224 621 196 Q 609 154 574 108 L 539 74 Z" fill="lightgray"></path>
    
      <path d="M 695 249 Q 714 249 878 250 Q 897 249 902 258 Q 908 268 892 282 Q 837 324 773 307 Q 739 301 696 293 L 629 283 Q 590 282 531 270 L 477 264 Q 395 257 308 245 Q 289 244 303 227 Q 316 214 333 208 Q 354 202 369 207 Q 412 217 461 226 L 510 233 Q 562 243 632 246 L 695 249 Z" fill="lightgray"></path>
    
    
      <clipPath id="make-me-a-hanzi-clip-0">
        <path d="M 224 498 Q 273 559 329 645 Q 357 694 382 717 Q 392 727 387 742 Q 383 755 353 780 Q 326 799 306 799 Q 287 798 295 775 Q 308 742 296 715 Q 224 555 64 368 Q 54 358 50 351 Q 46 339 61 342 Q 94 345 199 469 L 224 498 Z"></path>
      </clipPath>
      <path clip-path="url(#make-me-a-hanzi-clip-0)" d="M 306 785 L 331 759 L 341 733 L 308 668 L 226 539 L 160 452 L 87 372 L 59 351" fill="none" id="make-me-a-hanzi-animation-0" stroke-dasharray="670 1340" stroke-linecap="round"></path>
    
      <clipPath id="make-me-a-hanzi-clip-1">
        <path d="M 199 469 Q 223 394 223 370 Q 222 348 222 323 Q 222 223 196 119 Q 184 68 218 29 Q 219 26 222 24 Q 238 8 250 34 Q 265 74 264 119 Q 264 360 272 415 Q 279 442 270 452 Q 231 494 224 498 C 201 518 190 498 199 469 Z"></path>
      </clipPath>
      <path clip-path="url(#make-me-a-hanzi-clip-1)" d="M 222 491 L 226 462 L 243 435 L 246 380 L 241 223 L 228 94 L 234 34" fill="none" id="make-me-a-hanzi-animation-1" stroke-dasharray="591 1182" stroke-linecap="round"></path>
    
      <clipPath id="make-me-a-hanzi-clip-2">
        <path d="M 442 664 Q 464 645 486 620 Q 498 610 511 609 Q 521 609 525 621 Q 529 634 523 659 Q 519 675 493 688 Q 435 712 420 707 Q 416 703 416 692 Q 420 682 442 664 Z"></path>
      </clipPath>
      <path clip-path="url(#make-me-a-hanzi-clip-2)" d="M 425 698 L 487 661 L 511 624" fill="none" id="make-me-a-hanzi-animation-2" stroke-dasharray="244 488" stroke-linecap="round"></path>
    
      <clipPath id="make-me-a-hanzi-clip-3">
        <path d="M 706 737 Q 687 709 648 664 Q 642 657 647 651 Q 654 650 661 653 Q 734 699 771 716 Q 787 720 783 730 Q 779 745 762 762 Q 746 778 726 781 Q 713 781 713 764 Q 714 751 706 737 Z"></path>
      </clipPath>
      <path clip-path="url(#make-me-a-hanzi-clip-3)" d="M 726 767 L 741 737 L 653 657" fill="none" id="make-me-a-hanzi-animation-3" stroke-dasharray="280 560" stroke-linecap="round"></path>
    
      <clipPath id="make-me-a-hanzi-clip-4">
        <path d="M 608 554 Q 645 563 798 580 Q 808 579 816 591 Q 817 601 796 612 Q 766 636 681 609 Q 612 594 603 591 L 564 583 Q 513 576 467 570 Q 418 566 364 559 Q 337 556 358 539 Q 388 514 416 520 Q 464 532 522 540 L 608 554 Z"></path>
      </clipPath>
      <path clip-path="url(#make-me-a-hanzi-clip-4)" d="M 359 550 L 399 541 L 569 565 L 746 599 L 806 593" fill="none" id="make-me-a-hanzi-animation-4" stroke-dasharray="581 1162" stroke-linecap="round"></path>
    
      <clipPath id="make-me-a-hanzi-clip-5">
        <path d="M 603 591 Q 609 706 634 750 Q 640 759 629 773 Q 607 791 579 802 Q 563 811 548 805 Q 535 801 541 786 Q 568 743 565 673 Q 565 624 564 583 L 562 512 Q 558 436 550 402 Q 549 390 565 351 Q 575 335 589 343 Q 598 350 599 497 Q 599 513 600 529 L 603 591 Z"></path>
      </clipPath>
      <path clip-path="url(#make-me-a-hanzi-clip-5)" d="M 551 793 L 576 776 L 594 750 L 573 400 L 581 350" fill="none" id="make-me-a-hanzi-animation-5" stroke-dasharray="591 1182" stroke-linecap="round"></path>
    
      <clipPath id="make-me-a-hanzi-clip-6">
        <path d="M 522 540 Q 485 453 330 351 Q 314 341 328 338 Q 338 337 375 350 Q 412 363 448 388 Q 479 412 514 449 Q 542 479 559 507 Q 560 510 562 512 C 587 553 546 593 522 540 Z"></path>
      </clipPath>
      <path clip-path="url(#make-me-a-hanzi-clip-6)" d="M 557 541 L 502 468 L 451 416 L 387 371 L 331 344" fill="none" id="make-me-a-hanzi-animation-6" stroke-dasharray="433 866" stroke-linecap="round"></path>
    
      <clipPath id="make-me-a-hanzi-clip-7">
        <path d="M 600 529 Q 672 444 750 367 Q 772 345 807 345 Q 873 341 940 355 Q 956 356 959 362 Q 960 368 947 373 Q 904 389 854 404 Q 760 437 615 549 Q 611 552 608 554 C 584 572 578 554 600 529 Z"></path>
      </clipPath>
      <path clip-path="url(#make-me-a-hanzi-clip-7)" d="M 606 547 L 662 488 L 787 389 L 830 377 L 953 363" fill="none" id="make-me-a-hanzi-animation-7" stroke-dasharray="537 1074" stroke-linecap="round"></path>
    
      <clipPath id="make-me-a-hanzi-clip-8">
        <path d="M 584 47 Q 636 14 707 -42 Q 732 -61 750 -61 Q 771 -61 771 -41 Q 771 -22 742 24 Q 726 51 622 89 L 574 108 Q 519 129 481 138 Q 462 142 472 161 Q 494 204 510 233 L 531 270 Q 546 301 556 312 Q 566 319 563 329 Q 559 342 522 372 Q 512 381 500 378 Q 487 375 494 359 Q 503 337 494 313 Q 485 288 477 264 L 461 226 Q 442 186 424 161 Q 414 143 417 131 Q 420 121 437 117 Q 488 105 539 74 L 584 47 Z"></path>
      </clipPath>
      <path clip-path="url(#make-me-a-hanzi-clip-8)" d="M 502 367 L 518 351 L 528 326 L 443 142 L 659 38 L 709 4 L 753 -43" fill="none" id="make-me-a-hanzi-animation-8" stroke-dasharray="745 1490" stroke-linecap="round"></path>
    
      <clipPath id="make-me-a-hanzi-clip-9">
        <path d="M 539 74 Q 481 29 360 -3 Q 342 -12 363 -15 Q 490 -25 584 47 L 622 89 Q 626 98 633 106 Q 664 152 681 207 Q 688 235 695 249 C 706 277 709 283 696 293 Q 663 321 631 314 Q 618 310 624 295 Q 627 291 629 283 L 632 246 Q 632 224 621 196 Q 609 154 574 108 L 539 74 Z"></path>
      </clipPath>
      <path clip-path="url(#make-me-a-hanzi-clip-9)" d="M 634 302 L 663 277 L 657 223 L 638 165 L 590 89 L 552 53 L 501 25 L 419 -2 L 371 -7" fill="none" id="make-me-a-hanzi-animation-9" stroke-dasharray="617 1234" stroke-linecap="round"></path>
    
      <clipPath id="make-me-a-hanzi-clip-10">
        <path d="M 695 249 Q 714 249 878 250 Q 897 249 902 258 Q 908 268 892 282 Q 837 324 773 307 Q 739 301 696 293 L 629 283 Q 590 282 531 270 L 477 264 Q 395 257 308 245 Q 289 244 303 227 Q 316 214 333 208 Q 354 202 369 207 Q 412 217 461 226 L 510 233 Q 562 243 632 246 L 695 249 Z"></path>
      </clipPath>
      <path clip-path="url(#make-me-a-hanzi-clip-10)" d="M 306 236 L 359 228 L 600 263 L 800 281 L 847 277 L 891 264" fill="none" id="make-me-a-hanzi-animation-10" stroke-dasharray="719 1438" stroke-linecap="round"></path>
    
  </g>
</svg>