<svg version="1.1" viewBox="0 0 1024 1024" xmlns="http://www.w3.org/2000/svg">
  <g stroke="lightgray" stroke-dasharray="1,1" stroke-width="1" transform="scale(4, 4)">
    <line x1="0" y1="0" x2="256" y2="256"></line>
    <line x1="256" y1="0" x2="0" y2="256"></line>
    <line x1="128" y1="0" x2="128" y2="256"></line>
    <line x1="0" y1="128" x2="256" y2="128"></line>
  </g>
  <g transform="scale(1, -1) translate(0, -900)">
    <style type="text/css">
      
        @keyframes keyframes0 {
          from {
            stroke: blue;
            stroke-dashoffset: 894;
            stroke-width: 128;
          }
          74% {
            animation-timing-function: step-end;
            stroke: blue;
            stroke-dashoffset: 0;
            stroke-width: 128;
          }
          to {
            stroke: black;
            stroke-width: 1024;
          }
        }
        #make-me-a-hanzi-animation-0 {
          animation: keyframes0 0.9775390625s both;
          animation-delay: 0s;
          animation-timing-function: linear;
        }
      
        @keyframes keyframes1 {
          from {
            stroke: blue;
            stroke-dashoffset: 798;
            stroke-width: 128;
          }
          72% {
            animation-timing-function: step-end;
            stroke: blue;
            stroke-dashoffset: 0;
            stroke-width: 128;
          }
          to {
            stroke: black;
            stroke-width: 1024;
          }
        }
        #make-me-a-hanzi-animation-1 {
          animation: keyframes1 0.8994140625s both;
          animation-delay: 0.9775390625s;
          animation-timing-function: linear;
        }
      
        @keyframes keyframes2 {
          from {
            stroke: blue;
            stroke-dashoffset: 477;
            stroke-width: 128;
          }
          61% {
            animation-timing-function: step-end;
            stroke: blue;
            stroke-dashoffset: 0;
            stroke-width: 128;
          }
          to {
            stroke: black;
            stroke-width: 1024;
          }
        }
        #make-me-a-hanzi-animation-2 {
          animation: keyframes2 0.63818359375s both;
          animation-delay: 1.876953125s;
          animation-timing-function: linear;
        }
      
        @keyframes keyframes3 {
          from {
            stroke: blue;
            stroke-dashoffset: 423;
            stroke-width: 128;
          }
          58% {
            animation-timing-function: step-end;
            stroke: blue;
            stroke-dashoffset: 0;
            stroke-width: 128;
          }
          to {
            stroke: black;
            stroke-width: 1024;
          }
        }
        #make-me-a-hanzi-animation-3 {
          animation: keyframes3 0.59423828125s both;
          animation-delay: 2.51513671875s;
          animation-timing-function: linear;
        }
      
        @keyframes keyframes4 {
          from {
            stroke: blue;
            stroke-dashoffset: 474;
            stroke-width: 128;
          }
          61% {
            animation-timing-function: step-end;
            stroke: blue;
            stroke-dashoffset: 0;
            stroke-width: 128;
          }
          to {
            stroke: black;
            stroke-width: 1024;
          }
        }
        #make-me-a-hanzi-animation-4 {
          animation: keyframes4 0.6357421875s both;
          animation-delay: 3.109375s;
          animation-timing-function: linear;
        }
      
        @keyframes keyframes5 {
          from {
            stroke: blue;
            stroke-dashoffset: 385;
            stroke-width: 128;
          }
          56% {
            animation-timing-function: step-end;
            stroke: blue;
            stroke-dashoffset: 0;
            stroke-width: 128;
          }
          to {
            stroke: black;
            stroke-width: 1024;
          }
        }
        #make-me-a-hanzi-animation-5 {
          animation: keyframes5 0.5633138020833334s both;
          animation-delay: 3.7451171875s;
          animation-timing-function: linear;
        }
      
        @keyframes keyframes6 {
          from {
            stroke: blue;
            stroke-dashoffset: 419;
            stroke-width: 128;
          }
          58% {
            animation-timing-function: step-end;
            stroke: blue;
            stroke-dashoffset: 0;
            stroke-width: 128;
          }
          to {
            stroke: black;
            stroke-width: 1024;
          }
        }
        #make-me-a-hanzi-animation-6 {
          animation: keyframes6 0.5909830729166666s both;
          animation-delay: 4.308430989583333s;
          animation-timing-function: linear;
        }
      
        @keyframes keyframes7 {
          from {
            stroke: blue;
            stroke-dashoffset: 500;
            stroke-width: 128;
          }
          62% {
            animation-timing-function: step-end;
            stroke: blue;
            stroke-dashoffset: 0;
            stroke-width: 128;
          }
          to {
            stroke: black;
            stroke-width: 1024;
          }
        }
        #make-me-a-hanzi-animation-7 {
          animation: keyframes7 0.6569010416666666s both;
          animation-delay: 4.8994140625s;
          animation-timing-function: linear;
        }
      
        @keyframes keyframes8 {
          from {
            stroke: blue;
            stroke-dashoffset: 400;
            stroke-width: 128;
          }
          57% {
            animation-timing-function: step-end;
            stroke: blue;
            stroke-dashoffset: 0;
            stroke-width: 128;
          }
          to {
            stroke: black;
            stroke-width: 1024;
          }
        }
        #make-me-a-hanzi-animation-8 {
          animation: keyframes8 0.5755208333333334s both;
          animation-delay: 5.556315104166667s;
          animation-timing-function: linear;
        }
      
        @keyframes keyframes9 {
          from {
            stroke: blue;
            stroke-dashoffset: 577;
            stroke-width: 128;
          }
          65% {
            animation-timing-function: step-end;
            stroke: blue;
            stroke-dashoffset: 0;
            stroke-width: 128;
          }
          to {
            stroke: black;
            stroke-width: 1024;
          }
        }
        #make-me-a-hanzi-animation-9 {
          animation: keyframes9 0.7195638020833334s both;
          animation-delay: 6.1318359375s;
          animation-timing-function: linear;
        }
      
        @keyframes keyframes10 {
          from {
            stroke: blue;
            stroke-dashoffset: 357;
            stroke-width: 128;
          }
          54% {
            animation-timing-function: step-end;
            stroke: blue;
            stroke-dashoffset: 0;
            stroke-width: 128;
          }
          to {
            stroke: black;
            stroke-width: 1024;
          }
        }
        #make-me-a-hanzi-animation-10 {
          animation: keyframes10 0.54052734375s both;
          animation-delay: 6.851399739583333s;
          animation-timing-function: linear;
        }
      
        @keyframes keyframes11 {
          from {
            stroke: blue;
            stroke-dashoffset: 568;
            stroke-width: 128;
          }
          65% {
            animation-timing-function: step-end;
            stroke: blue;
            stroke-dashoffset: 0;
            stroke-width: 128;
          }
          to {
            stroke: black;
            stroke-width: 1024;
          }
        }
        #make-me-a-hanzi-animation-11 {
          animation: keyframes11 0.7122395833333334s both;
          animation-delay: 7.391927083333333s;
          animation-timing-function: linear;
        }
      
        @keyframes keyframes12 {
          from {
            stroke: blue;
            stroke-dashoffset: 458;
            stroke-width: 128;
          }
          60% {
            animation-timing-function: step-end;
            stroke: blue;
            stroke-dashoffset: 0;
            stroke-width: 128;
          }
          to {
            stroke: black;
            stroke-width: 1024;
          }
        }
        #make-me-a-hanzi-animation-12 {
          animation: keyframes12 0.6227213541666666s both;
          animation-delay: 8.104166666666666s;
          animation-timing-function: linear;
        }
      
    </style>
    
      <path d="M 529 746 Q 533 755 554 776 Q 561 780 561 792 Q 560 802 547 815 Q 514 848 479 844 Q 469 843 471 829 Q 487 744 323 556 Q 308 543 295 528 Q 243 476 114 376 Q 105 372 116 368 Q 195 380 341 509 Q 432 609 515 726 L 529 746 Z" fill="lightgray"></path>
    
      <path d="M 515 726 Q 516 725 518 723 Q 624 594 760 460 Q 782 439 815 441 Q 929 448 964 457 Q 974 460 976 465 Q 976 471 960 477 Q 804 519 745 558 Q 645 634 529 746 C 507 767 495 749 515 726 Z" fill="lightgray"></path>
    
      <path d="M 404 500 Q 373 496 395 480 Q 434 459 478 470 Q 533 480 592 491 Q 619 495 623 500 Q 630 507 626 514 Q 620 524 595 531 Q 570 535 544 526 Q 514 517 482 510 Q 446 503 404 500 Z" fill="lightgray"></path>
    
      <path d="M 342 217 Q 345 226 344 239 L 340 267 Q 330 328 328 347 C 326 366 326 366 318 370 Q 308 376 278 380 Q 268 381 264 377 Q 260 371 267 358 Q 289 319 305 254 Q 311 221 335 212 C 340 210 340 210 342 217 Z" fill="lightgray"></path>
    
      <path d="M 462 287 Q 475 336 491 351 Q 510 372 490 384 Q 474 393 451 408 Q 435 417 420 407 Q 390 389 318 370 C 289 362 300 336 328 347 Q 338 353 401 365 Q 420 369 426 361 Q 430 357 419 292 C 414 262 454 258 462 287 Z" fill="lightgray"></path>
    
      <path d="M 344 239 Q 351 238 361 240 Q 395 250 472 261 Q 481 262 481 270 Q 481 277 462 287 L 419 292 Q 415 292 413 290 Q 373 275 340 267 C 311 260 314 241 344 239 Z" fill="lightgray"></path>
    
      <path d="M 558 395 Q 548 399 523 404 Q 513 405 510 402 Q 506 396 513 383 Q 532 346 547 281 Q 551 262 562 249 Q 578 231 582 245 Q 583 252 584 264 L 581 289 Q 571 350 570 371 C 569 391 569 391 558 395 Z" fill="lightgray"></path>
    
      <path d="M 717 312 Q 732 361 748 375 Q 767 397 748 411 Q 730 421 707 436 Q 689 448 648 422 Q 597 404 558 395 C 529 388 540 367 570 371 Q 579 372 587 374 Q 623 384 654 391 Q 675 395 680 387 Q 686 383 680 359 Q 676 338 670 315 C 663 286 708 283 717 312 Z" fill="lightgray"></path>
    
      <path d="M 584 264 Q 585 263 589 262 Q 598 261 609 264 Q 646 274 727 285 Q 737 286 737 294 Q 737 300 717 312 L 670 315 L 669 315 Q 620 297 581 289 C 552 283 556 275 584 264 Z" fill="lightgray"></path>
    
      <path d="M 376 130 Q 394 157 402 161 Q 409 165 408 174 Q 405 198 369 212 Q 351 219 342 217 C 335 217 335 217 335 212 Q 334 211 335 205 Q 342 124 173 -22 Q 166 -26 175 -29 Q 217 -29 308 52 Q 309 55 312 56 Q 331 77 361 112 L 376 130 Z" fill="lightgray"></path>
    
      <path d="M 361 112 Q 392 64 447 41 Q 457 40 464 49 Q 468 58 466 70 Q 457 103 381 129 L 380 130 Q 377 131 376 130 C 348 131 348 131 361 112 Z" fill="lightgray"></path>
    
      <path d="M 635 157 Q 669 215 670 218 Q 669 225 657 235 Q 630 256 602 252 Q 595 251 597 240 Q 607 216 574 146 Q 547 92 460 -2 Q 454 -6 463 -8 Q 496 -8 577 76 Q 581 83 589 90 Q 602 109 621 136 L 635 157 Z" fill="lightgray"></path>
    
      <path d="M 621 136 Q 622 135 625 132 Q 680 89 749 22 Q 764 6 778 2 Q 787 1 793 10 Q 803 23 789 62 Q 777 110 635 157 C 607 167 599 157 621 136 Z" fill="lightgray"></path>
    
    
      <clipPath id="make-me-a-hanzi-clip-0">
        <path d="M 529 746 Q 533 755 554 776 Q 561 780 561 792 Q 560 802 547 815 Q 514 848 479 844 Q 469 843 471 829 Q 487 744 323 556 Q 308 543 295 528 Q 243 476 114 376 Q 105 372 116 368 Q 195 380 341 509 Q 432 609 515 726 L 529 746 Z"></path>
      </clipPath>
      <path clip-path="url(#make-me-a-hanzi-clip-0)" d="M 481 834 L 502 812 L 511 790 L 470 710 L 398 610 L 340 540 L 287 489 L 216 432 L 138 382 L 124 381 L 120 373" fill="none" id="make-me-a-hanzi-animation-0" stroke-dasharray="766 1532" stroke-linecap="round"></path>
    
      <clipPath id="make-me-a-hanzi-clip-1">
        <path d="M 515 726 Q 516 725 518 723 Q 624 594 760 460 Q 782 439 815 441 Q 929 448 964 457 Q 974 460 976 465 Q 976 471 960 477 Q 804 519 745 558 Q 645 634 529 746 C 507 767 495 749 515 726 Z"></path>
      </clipPath>
      <path clip-path="url(#make-me-a-hanzi-clip-1)" d="M 521 729 L 540 719 L 681 575 L 791 488 L 824 479 L 968 464" fill="none" id="make-me-a-hanzi-animation-1" stroke-dasharray="670 1340" stroke-linecap="round"></path>
    
      <clipPath id="make-me-a-hanzi-clip-2">
        <path d="M 404 500 Q 373 496 395 480 Q 434 459 478 470 Q 533 480 592 491 Q 619 495 623 500 Q 630 507 626 514 Q 620 524 595 531 Q 570 535 544 526 Q 514 517 482 510 Q 446 503 404 500 Z"></path>
      </clipPath>
      <path clip-path="url(#make-me-a-hanzi-clip-2)" d="M 397 491 L 455 485 L 577 511 L 615 509" fill="none" id="make-me-a-hanzi-animation-2" stroke-dasharray="349 698" stroke-linecap="round"></path>
    
      <clipPath id="make-me-a-hanzi-clip-3">
        <path d="M 342 217 Q 345 226 344 239 L 340 267 Q 330 328 328 347 C 326 366 326 366 318 370 Q 308 376 278 380 Q 268 381 264 377 Q 260 371 267 358 Q 289 319 305 254 Q 311 221 335 212 C 340 210 340 210 342 217 Z"></path>
      </clipPath>
      <path clip-path="url(#make-me-a-hanzi-clip-3)" d="M 272 372 L 303 343 L 333 222" fill="none" id="make-me-a-hanzi-animation-3" stroke-dasharray="295 590" stroke-linecap="round"></path>
    
      <clipPath id="make-me-a-hanzi-clip-4">
        <path d="M 462 287 Q 475 336 491 351 Q 510 372 490 384 Q 474 393 451 408 Q 435 417 420 407 Q 390 389 318 370 C 289 362 300 336 328 347 Q 338 353 401 365 Q 420 369 426 361 Q 430 357 419 292 C 414 262 454 258 462 287 Z"></path>
      </clipPath>
      <path clip-path="url(#make-me-a-hanzi-clip-4)" d="M 329 354 L 350 368 L 436 386 L 459 364 L 443 309 L 428 303" fill="none" id="make-me-a-hanzi-animation-4" stroke-dasharray="346 692" stroke-linecap="round"></path>
    
      <clipPath id="make-me-a-hanzi-clip-5">
        <path d="M 344 239 Q 351 238 361 240 Q 395 250 472 261 Q 481 262 481 270 Q 481 277 462 287 L 419 292 Q 415 292 413 290 Q 373 275 340 267 C 311 260 314 241 344 239 Z"></path>
      </clipPath>
      <path clip-path="url(#make-me-a-hanzi-clip-5)" d="M 348 247 L 365 258 L 422 273 L 472 270" fill="none" id="make-me-a-hanzi-animation-5" stroke-dasharray="257 514" stroke-linecap="round"></path>
    
      <clipPath id="make-me-a-hanzi-clip-6">
        <path d="M 558 395 Q 548 399 523 404 Q 513 405 510 402 Q 506 396 513 383 Q 532 346 547 281 Q 551 262 562 249 Q 578 231 582 245 Q 583 252 584 264 L 581 289 Q 571 350 570 371 C 569 391 569 391 558 395 Z"></path>
      </clipPath>
      <path clip-path="url(#make-me-a-hanzi-clip-6)" d="M 517 397 L 546 367 L 572 249" fill="none" id="make-me-a-hanzi-animation-6" stroke-dasharray="291 582" stroke-linecap="round"></path>
    
      <clipPath id="make-me-a-hanzi-clip-7">
        <path d="M 717 312 Q 732 361 748 375 Q 767 397 748 411 Q 730 421 707 436 Q 689 448 648 422 Q 597 404 558 395 C 529 388 540 367 570 371 Q 579 372 587 374 Q 623 384 654 391 Q 675 395 680 387 Q 686 383 680 359 Q 676 338 670 315 C 663 286 708 283 717 312 Z"></path>
      </clipPath>
      <path clip-path="url(#make-me-a-hanzi-clip-7)" d="M 566 391 L 591 388 L 666 412 L 698 409 L 715 390 L 713 379 L 700 337 L 678 321" fill="none" id="make-me-a-hanzi-animation-7" stroke-dasharray="372 744" stroke-linecap="round"></path>
    
      <clipPath id="make-me-a-hanzi-clip-8">
        <path d="M 584 264 Q 585 263 589 262 Q 598 261 609 264 Q 646 274 727 285 Q 737 286 737 294 Q 737 300 717 312 L 670 315 L 669 315 Q 620 297 581 289 C 552 283 556 275 584 264 Z"></path>
      </clipPath>
      <path clip-path="url(#make-me-a-hanzi-clip-8)" d="M 589 284 L 598 277 L 667 296 L 728 294" fill="none" id="make-me-a-hanzi-animation-8" stroke-dasharray="272 544" stroke-linecap="round"></path>
    
      <clipPath id="make-me-a-hanzi-clip-9">
        <path d="M 376 130 Q 394 157 402 161 Q 409 165 408 174 Q 405 198 369 212 Q 351 219 342 217 C 335 217 335 217 335 212 Q 334 211 335 205 Q 342 124 173 -22 Q 166 -26 175 -29 Q 217 -29 308 52 Q 309 55 312 56 Q 331 77 361 112 L 376 130 Z"></path>
      </clipPath>
      <path clip-path="url(#make-me-a-hanzi-clip-9)" d="M 343 209 L 356 196 L 366 172 L 337 121 L 271 43 L 217 -2 L 184 -16 L 179 -24" fill="none" id="make-me-a-hanzi-animation-9" stroke-dasharray="449 898" stroke-linecap="round"></path>
    
      <clipPath id="make-me-a-hanzi-clip-10">
        <path d="M 361 112 Q 392 64 447 41 Q 457 40 464 49 Q 468 58 466 70 Q 457 103 381 129 L 380 130 Q 377 131 376 130 C 348 131 348 131 361 112 Z"></path>
      </clipPath>
      <path clip-path="url(#make-me-a-hanzi-clip-10)" d="M 378 127 L 390 105 L 450 58" fill="none" id="make-me-a-hanzi-animation-10" stroke-dasharray="229 458" stroke-linecap="round"></path>
    
      <clipPath id="make-me-a-hanzi-clip-11">
        <path d="M 635 157 Q 669 215 670 218 Q 669 225 657 235 Q 630 256 602 252 Q 595 251 597 240 Q 607 216 574 146 Q 547 92 460 -2 Q 454 -6 463 -8 Q 496 -8 577 76 Q 581 83 589 90 Q 602 109 621 136 L 635 157 Z"></path>
      </clipPath>
      <path clip-path="url(#make-me-a-hanzi-clip-11)" d="M 609 242 L 630 213 L 605 154 L 556 79 L 501 23 L 466 -3" fill="none" id="make-me-a-hanzi-animation-11" stroke-dasharray="440 880" stroke-linecap="round"></path>
    
      <clipPath id="make-me-a-hanzi-clip-12">
        <path d="M 621 136 Q 622 135 625 132 Q 680 89 749 22 Q 764 6 778 2 Q 787 1 793 10 Q 803 23 789 62 Q 777 110 635 157 C 607 167 599 157 621 136 Z"></path>
      </clipPath>
      <path clip-path="url(#make-me-a-hanzi-clip-12)" d="M 628 139 L 644 139 L 742 73 L 759 56 L 779 17" fill="none" id="make-me-a-hanzi-animation-12" stroke-dasharray="330 660" stroke-linecap="round"></path>
    
  </g>
</svg>