<svg version="1.1" viewBox="0 0 1024 1024" xmlns="http://www.w3.org/2000/svg">
  <g stroke="lightgray" stroke-dasharray="1,1" stroke-width="1" transform="scale(4, 4)">
    <line x1="0" y1="0" x2="256" y2="256"></line>
    <line x1="256" y1="0" x2="0" y2="256"></line>
    <line x1="128" y1="0" x2="128" y2="256"></line>
    <line x1="0" y1="128" x2="256" y2="128"></line>
  </g>
  <g transform="scale(1, -1) translate(0, -900)">
    <style type="text/css">
      
        @keyframes keyframes0 {
          from {
            stroke: blue;
            stroke-dashoffset: 772;
            stroke-width: 128;
          }
          72% {
            animation-timing-function: step-end;
            stroke: blue;
            stroke-dashoffset: 0;
            stroke-width: 128;
          }
          to {
            stroke: black;
            stroke-width: 1024;
          }
        }
        #make-me-a-hanzi-animation-0 {
          animation: keyframes0 0.8782552083333334s both;
          animation-delay: 0s;
          animation-timing-function: linear;
        }
      
        @keyframes keyframes1 {
          from {
            stroke: blue;
            stroke-dashoffset: 694;
            stroke-width: 128;
          }
          69% {
            animation-timing-function: step-end;
            stroke: blue;
            stroke-dashoffset: 0;
            stroke-width: 128;
          }
          to {
            stroke: black;
            stroke-width: 1024;
          }
        }
        #make-me-a-hanzi-animation-1 {
          animation: keyframes1 0.8147786458333334s both;
          animation-delay: 0.8782552083333334s;
          animation-timing-function: linear;
        }
      
        @keyframes keyframes2 {
          from {
            stroke: blue;
            stroke-dashoffset: 517;
            stroke-width: 128;
          }
          63% {
            animation-timing-function: step-end;
            stroke: blue;
            stroke-dashoffset: 0;
            stroke-width: 128;
          }
          to {
            stroke: black;
            stroke-width: 1024;
          }
        }
        #make-me-a-hanzi-animation-2 {
          animation: keyframes2 0.6707356770833334s both;
          animation-delay: 1.6930338541666667s;
          animation-timing-function: linear;
        }
      
        @keyframes keyframes3 {
          from {
            stroke: blue;
            stroke-dashoffset: 410;
            stroke-width: 128;
          }
          57% {
            animation-timing-function: step-end;
            stroke: blue;
            stroke-dashoffset: 0;
            stroke-width: 128;
          }
          to {
            stroke: black;
            stroke-width: 1024;
          }
        }
        #make-me-a-hanzi-animation-3 {
          animation: keyframes3 0.5836588541666666s both;
          animation-delay: 2.36376953125s;
          animation-timing-function: linear;
        }
      
        @keyframes keyframes4 {
          from {
            stroke: blue;
            stroke-dashoffset: 769;
            stroke-width: 128;
          }
          71% {
            animation-timing-function: step-end;
            stroke: blue;
            stroke-dashoffset: 0;
            stroke-width: 128;
          }
          to {
            stroke: black;
            stroke-width: 1024;
          }
        }
        #make-me-a-hanzi-animation-4 {
          animation: keyframes4 0.8758138020833334s both;
          animation-delay: 2.9474283854166665s;
          animation-timing-function: linear;
        }
      
        @keyframes keyframes5 {
          from {
            stroke: blue;
            stroke-dashoffset: 479;
            stroke-width: 128;
          }
          61% {
            animation-timing-function: step-end;
            stroke: blue;
            stroke-dashoffset: 0;
            stroke-width: 128;
          }
          to {
            stroke: black;
            stroke-width: 1024;
          }
        }
        #make-me-a-hanzi-animation-5 {
          animation: keyframes5 0.6398111979166666s both;
          animation-delay: 3.8232421875s;
          animation-timing-function: linear;
        }
      
        @keyframes keyframes6 {
          from {
            stroke: blue;
            stroke-dashoffset: 536;
            stroke-width: 128;
          }
          64% {
            animation-timing-function: step-end;
            stroke: blue;
            stroke-dashoffset: 0;
            stroke-width: 128;
          }
          to {
            stroke: black;
            stroke-width: 1024;
          }
        }
        #make-me-a-hanzi-animation-6 {
          animation: keyframes6 0.6861979166666666s both;
          animation-delay: 4.463053385416667s;
          animation-timing-function: linear;
        }
      
        @keyframes keyframes7 {
          from {
            stroke: blue;
            stroke-dashoffset: 404;
            stroke-width: 128;
          }
          57% {
            animation-timing-function: step-end;
            stroke: blue;
            stroke-dashoffset: 0;
            stroke-width: 128;
          }
          to {
            stroke: black;
            stroke-width: 1024;
          }
        }
        #make-me-a-hanzi-animation-7 {
          animation: keyframes7 0.5787760416666666s both;
          animation-delay: 5.149251302083334s;
          animation-timing-function: linear;
        }
      
        @keyframes keyframes8 {
          from {
            stroke: blue;
            stroke-dashoffset: 384;
            stroke-width: 128;
          }
          56% {
            animation-timing-function: step-end;
            stroke: blue;
            stroke-dashoffset: 0;
            stroke-width: 128;
          }
          to {
            stroke: black;
            stroke-width: 1024;
          }
        }
        #make-me-a-hanzi-animation-8 {
          animation: keyframes8 0.5625s both;
          animation-delay: 5.728027343750001s;
          animation-timing-function: linear;
        }
      
        @keyframes keyframes9 {
          from {
            stroke: blue;
            stroke-dashoffset: 545;
            stroke-width: 128;
          }
          64% {
            animation-timing-function: step-end;
            stroke: blue;
            stroke-dashoffset: 0;
            stroke-width: 128;
          }
          to {
            stroke: black;
            stroke-width: 1024;
          }
        }
        #make-me-a-hanzi-animation-9 {
          animation: keyframes9 0.6935221354166666s both;
          animation-delay: 6.290527343750001s;
          animation-timing-function: linear;
        }
      
        @keyframes keyframes10 {
          from {
            stroke: blue;
            stroke-dashoffset: 338;
            stroke-width: 128;
          }
          52% {
            animation-timing-function: step-end;
            stroke: blue;
            stroke-dashoffset: 0;
            stroke-width: 128;
          }
          to {
            stroke: black;
            stroke-width: 1024;
          }
        }
        #make-me-a-hanzi-animation-10 {
          animation: keyframes10 0.5250651041666666s both;
          animation-delay: 6.984049479166668s;
          animation-timing-function: linear;
        }
      
        @keyframes keyframes11 {
          from {
            stroke: blue;
            stroke-dashoffset: 446;
            stroke-width: 128;
          }
          59% {
            animation-timing-function: step-end;
            stroke: blue;
            stroke-dashoffset: 0;
            stroke-width: 128;
          }
          to {
            stroke: black;
            stroke-width: 1024;
          }
        }
        #make-me-a-hanzi-animation-11 {
          animation: keyframes11 0.6129557291666666s both;
          animation-delay: 7.509114583333335s;
          animation-timing-function: linear;
        }
      
        @keyframes keyframes12 {
          from {
            stroke: blue;
            stroke-dashoffset: 604;
            stroke-width: 128;
          }
          66% {
            animation-timing-function: step-end;
            stroke: blue;
            stroke-dashoffset: 0;
            stroke-width: 128;
          }
          to {
            stroke: black;
            stroke-width: 1024;
          }
        }
        #make-me-a-hanzi-animation-12 {
          animation: keyframes12 0.7415364583333334s both;
          animation-delay: 8.122070312500002s;
          animation-timing-function: linear;
        }
      
        @keyframes keyframes13 {
          from {
            stroke: blue;
            stroke-dashoffset: 583;
            stroke-width: 128;
          }
          65% {
            animation-timing-function: step-end;
            stroke: blue;
            stroke-dashoffset: 0;
            stroke-width: 128;
          }
          to {
            stroke: black;
            stroke-width: 1024;
          }
        }
        #make-me-a-hanzi-animation-13 {
          animation: keyframes13 0.7244466145833334s both;
          animation-delay: 8.863606770833336s;
          animation-timing-function: linear;
        }
      
        @keyframes keyframes14 {
          from {
            stroke: blue;
            stroke-dashoffset: 766;
            stroke-width: 128;
          }
          71% {
            animation-timing-function: step-end;
            stroke: blue;
            stroke-dashoffset: 0;
            stroke-width: 128;
          }
          to {
            stroke: black;
            stroke-width: 1024;
          }
        }
        #make-me-a-hanzi-animation-14 {
          animation: keyframes14 0.8733723958333334s both;
          animation-delay: 9.58805338541667s;
          animation-timing-function: linear;
        }
      
    </style>
    
      <path d="M 204 535 Q 250 599 302 690 Q 326 738 348 761 Q 357 771 352 785 Q 348 798 318 819 Q 291 835 272 835 Q 253 832 263 811 Q 278 781 267 754 Q 236 666 184 581 Q 135 500 65 411 Q 56 401 54 394 Q 51 382 65 386 Q 93 395 179 502 L 204 535 Z" fill="lightgray"></path>
    
      <path d="M 179 502 Q 207 444 188 271 Q 181 223 168 172 Q 158 130 187 88 Q 188 85 191 83 Q 207 68 218 93 Q 231 130 231 171 Q 234 409 242 462 Q 249 487 240 496 Q 210 530 204 535 C 183 556 168 530 179 502 Z" fill="lightgray"></path>
    
      <path d="M 535 550 Q 554 623 577 645 Q 598 669 576 682 Q 558 692 533 708 Q 515 718 475 693 Q 435 677 399 665 C 371 655 375 633 404 639 Q 411 640 425 644 Q 456 653 484 659 Q 503 663 508 657 Q 511 654 488 558 C 481 529 527 521 535 550 Z" fill="lightgray"></path>
    
      <path d="M 389 503 Q 390 502 394 501 Q 404 500 416 503 Q 456 513 542 523 Q 552 524 553 533 Q 553 540 535 550 L 488 558 Q 484 558 480 556 Q 432 541 393 531 C 364 523 361 514 389 503 Z" fill="lightgray"></path>
    
      <path d="M 363 386 Q 381 449 389 503 L 393 531 Q 394 547 396 565 Q 399 619 404 639 C 408 659 408 659 399 665 Q 386 675 367 683 Q 351 690 342 687 Q 332 681 338 670 Q 374 616 329 400 Q 325 388 322 376 Q 298 303 245 213 Q 241 209 239 203 Q 238 194 246 197 Q 276 203 333 307 Q 339 326 348 342 L 363 386 Z" fill="lightgray"></path>
    
      <path d="M 386 379 Q 377 383 363 386 C 334 393 340 371 348 342 Q 364 288 374 209 Q 375 179 391 158 Q 404 139 410 152 Q 417 171 413 209 L 410 239 Q 397 329 396 354 C 395 376 395 376 386 379 Z" fill="lightgray"></path>
    
      <path d="M 550 258 Q 563 336 585 360 Q 604 385 583 397 Q 564 407 538 422 Q 520 432 478 407 Q 424 388 386 379 C 357 372 366 352 396 354 Q 406 354 421 358 Q 503 379 510 370 Q 517 364 513 332 Q 509 302 503 266 C 498 236 545 228 550 258 Z" fill="lightgray"></path>
    
      <path d="M 413 209 Q 422 208 432 211 Q 472 221 558 231 Q 568 232 569 241 Q 569 248 550 258 L 503 266 Q 499 266 496 264 Q 448 249 410 239 C 381 231 383 210 413 209 Z" fill="lightgray"></path>
    
      <path d="M 685 796 Q 709 774 734 748 Q 747 735 761 736 Q 771 736 777 749 Q 781 762 774 791 Q 765 822 681 842 Q 666 846 660 843 Q 656 839 656 827 Q 660 817 685 796 Z" fill="lightgray"></path>
    
      <path d="M 806 654 Q 831 661 861 667 Q 898 677 904 682 Q 911 689 907 697 Q 900 707 873 714 Q 849 718 760 687 Q 696 669 619 658 Q 586 652 610 637 Q 644 621 714 633 Q 741 639 772 646 L 806 654 Z" fill="lightgray"></path>
    
      <path d="M 614 564 Q 647 498 668 493 Q 678 489 687 503 Q 690 513 686 532 Q 682 547 663 559 Q 635 580 623 585 Q 616 588 613 579 Q 610 572 614 564 Z" fill="lightgray"></path>
    
      <path d="M 764 483 Q 768 490 775 500 Q 794 528 813 563 Q 822 579 837 599 Q 850 609 843 620 Q 834 636 806 654 C 781 671 760 674 772 646 Q 773 645 774 643 Q 783 607 740 501 Q 734 486 732 475 C 725 446 748 457 764 483 Z" fill="lightgray"></path>
    
      <path d="M 738 439 Q 756 445 909 473 Q 919 472 926 484 Q 927 494 906 503 Q 879 524 793 492 Q 778 489 764 483 L 732 475 Q 690 465 653 459 Q 619 453 579 446 Q 554 442 574 427 Q 601 408 640 416 Q 659 422 685 426 L 738 439 Z" fill="lightgray"></path>
    
      <path d="M 756 298 Q 805 307 879 312 Q 918 312 922 322 Q 926 332 910 343 Q 859 374 809 356 Q 785 350 756 340 L 703 326 Q 651 316 593 300 Q 575 296 590 283 Q 603 273 619 269 Q 637 266 650 272 Q 675 281 704 286 L 756 298 Z" fill="lightgray"></path>
    
      <path d="M 708 -34 Q 712 -56 719 -65 Q 723 -72 731 -70 Q 743 -61 750 -8 Q 757 50 755 106 Q 754 149 756 298 L 756 340 Q 756 341 757 341 Q 758 374 766 403 Q 769 419 756 428 Q 746 435 738 439 C 712 454 670 452 685 426 Q 703 408 703 326 L 704 286 Q 704 -2 708 -34 Z" fill="lightgray"></path>
    
    
      <clipPath id="make-me-a-hanzi-clip-0">
        <path d="M 204 535 Q 250 599 302 690 Q 326 738 348 761 Q 357 771 352 785 Q 348 798 318 819 Q 291 835 272 835 Q 253 832 263 811 Q 278 781 267 754 Q 236 666 184 581 Q 135 500 65 411 Q 56 401 54 394 Q 51 382 65 386 Q 93 395 179 502 L 204 535 Z"></path>
      </clipPath>
      <path clip-path="url(#make-me-a-hanzi-clip-0)" d="M 273 821 L 298 798 L 310 777 L 267 681 L 229 611 L 158 503 L 63 395" fill="none" id="make-me-a-hanzi-animation-0" stroke-dasharray="644 1288" stroke-linecap="round"></path>
    
      <clipPath id="make-me-a-hanzi-clip-1">
        <path d="M 179 502 Q 207 444 188 271 Q 181 223 168 172 Q 158 130 187 88 Q 188 85 191 83 Q 207 68 218 93 Q 231 130 231 171 Q 234 409 242 462 Q 249 487 240 496 Q 210 530 204 535 C 183 556 168 530 179 502 Z"></path>
      </clipPath>
      <path clip-path="url(#make-me-a-hanzi-clip-1)" d="M 202 528 L 216 480 L 217 455 L 213 294 L 197 142 L 203 93" fill="none" id="make-me-a-hanzi-animation-1" stroke-dasharray="566 1132" stroke-linecap="round"></path>
    
      <clipPath id="make-me-a-hanzi-clip-2">
        <path d="M 535 550 Q 554 623 577 645 Q 598 669 576 682 Q 558 692 533 708 Q 515 718 475 693 Q 435 677 399 665 C 371 655 375 633 404 639 Q 411 640 425 644 Q 456 653 484 659 Q 503 663 508 657 Q 511 654 488 558 C 481 529 527 521 535 550 Z"></path>
      </clipPath>
      <path clip-path="url(#make-me-a-hanzi-clip-2)" d="M 407 646 L 422 659 L 494 681 L 524 681 L 543 660 L 541 651 L 515 575 L 498 569" fill="none" id="make-me-a-hanzi-animation-2" stroke-dasharray="389 778" stroke-linecap="round"></path>
    
      <clipPath id="make-me-a-hanzi-clip-3">
        <path d="M 389 503 Q 390 502 394 501 Q 404 500 416 503 Q 456 513 542 523 Q 552 524 553 533 Q 553 540 535 550 L 488 558 Q 484 558 480 556 Q 432 541 393 531 C 364 523 361 514 389 503 Z"></path>
      </clipPath>
      <path clip-path="url(#make-me-a-hanzi-clip-3)" d="M 394 509 L 417 521 L 478 535 L 543 533" fill="none" id="make-me-a-hanzi-animation-3" stroke-dasharray="282 564" stroke-linecap="round"></path>
    
      <clipPath id="make-me-a-hanzi-clip-4">
        <path d="M 363 386 Q 381 449 389 503 L 393 531 Q 394 547 396 565 Q 399 619 404 639 C 408 659 408 659 399 665 Q 386 675 367 683 Q 351 690 342 687 Q 332 681 338 670 Q 374 616 329 400 Q 325 388 322 376 Q 298 303 245 213 Q 241 209 239 203 Q 238 194 246 197 Q 276 203 333 307 Q 339 326 348 342 L 363 386 Z"></path>
      </clipPath>
      <path clip-path="url(#make-me-a-hanzi-clip-4)" d="M 347 677 L 365 662 L 377 640 L 372 527 L 358 444 L 344 384 L 314 303 L 283 248 L 247 205" fill="none" id="make-me-a-hanzi-animation-4" stroke-dasharray="641 1282" stroke-linecap="round"></path>
    
      <clipPath id="make-me-a-hanzi-clip-5">
        <path d="M 386 379 Q 377 383 363 386 C 334 393 340 371 348 342 Q 364 288 374 209 Q 375 179 391 158 Q 404 139 410 152 Q 417 171 413 209 L 410 239 Q 397 329 396 354 C 395 376 395 376 386 379 Z"></path>
      </clipPath>
      <path clip-path="url(#make-me-a-hanzi-clip-5)" d="M 367 376 L 374 366 L 373 340 L 401 157" fill="none" id="make-me-a-hanzi-animation-5" stroke-dasharray="351 702" stroke-linecap="round"></path>
    
      <clipPath id="make-me-a-hanzi-clip-6">
        <path d="M 550 258 Q 563 336 585 360 Q 604 385 583 397 Q 564 407 538 422 Q 520 432 478 407 Q 424 388 386 379 C 357 372 366 352 396 354 Q 406 354 421 358 Q 503 379 510 370 Q 517 364 513 332 Q 509 302 503 266 C 498 236 545 228 550 258 Z"></path>
      </clipPath>
      <path clip-path="url(#make-me-a-hanzi-clip-6)" d="M 393 375 L 411 370 L 497 395 L 530 393 L 549 374 L 533 294 L 512 272" fill="none" id="make-me-a-hanzi-animation-6" stroke-dasharray="408 816" stroke-linecap="round"></path>
    
      <clipPath id="make-me-a-hanzi-clip-7">
        <path d="M 413 209 Q 422 208 432 211 Q 472 221 558 231 Q 568 232 569 241 Q 569 248 550 258 L 503 266 Q 499 266 496 264 Q 448 249 410 239 C 381 231 383 210 413 209 Z"></path>
      </clipPath>
      <path clip-path="url(#make-me-a-hanzi-clip-7)" d="M 418 217 L 428 227 L 494 243 L 540 245 L 559 240" fill="none" id="make-me-a-hanzi-animation-7" stroke-dasharray="276 552" stroke-linecap="round"></path>
    
      <clipPath id="make-me-a-hanzi-clip-8">
        <path d="M 685 796 Q 709 774 734 748 Q 747 735 761 736 Q 771 736 777 749 Q 781 762 774 791 Q 765 822 681 842 Q 666 846 660 843 Q 656 839 656 827 Q 660 817 685 796 Z"></path>
      </clipPath>
      <path clip-path="url(#make-me-a-hanzi-clip-8)" d="M 665 837 L 732 793 L 760 754" fill="none" id="make-me-a-hanzi-animation-8" stroke-dasharray="256 512" stroke-linecap="round"></path>
    
      <clipPath id="make-me-a-hanzi-clip-9">
        <path d="M 806 654 Q 831 661 861 667 Q 898 677 904 682 Q 911 689 907 697 Q 900 707 873 714 Q 849 718 760 687 Q 696 669 619 658 Q 586 652 610 637 Q 644 621 714 633 Q 741 639 772 646 L 806 654 Z"></path>
      </clipPath>
      <path clip-path="url(#make-me-a-hanzi-clip-9)" d="M 612 649 L 684 648 L 844 688 L 896 691" fill="none" id="make-me-a-hanzi-animation-9" stroke-dasharray="417 834" stroke-linecap="round"></path>
    
      <clipPath id="make-me-a-hanzi-clip-10">
        <path d="M 614 564 Q 647 498 668 493 Q 678 489 687 503 Q 690 513 686 532 Q 682 547 663 559 Q 635 580 623 585 Q 616 588 613 579 Q 610 572 614 564 Z"></path>
      </clipPath>
      <path clip-path="url(#make-me-a-hanzi-clip-10)" d="M 623 573 L 660 531 L 672 508" fill="none" id="make-me-a-hanzi-animation-10" stroke-dasharray="210 420" stroke-linecap="round"></path>
    
      <clipPath id="make-me-a-hanzi-clip-11">
        <path d="M 764 483 Q 768 490 775 500 Q 794 528 813 563 Q 822 579 837 599 Q 850 609 843 620 Q 834 636 806 654 C 781 671 760 674 772 646 Q 773 645 774 643 Q 783 607 740 501 Q 734 486 732 475 C 725 446 748 457 764 483 Z"></path>
      </clipPath>
      <path clip-path="url(#make-me-a-hanzi-clip-11)" d="M 782 640 L 801 627 L 807 611 L 765 515 L 736 480" fill="none" id="make-me-a-hanzi-animation-11" stroke-dasharray="318 636" stroke-linecap="round"></path>
    
      <clipPath id="make-me-a-hanzi-clip-12">
        <path d="M 738 439 Q 756 445 909 473 Q 919 472 926 484 Q 927 494 906 503 Q 879 524 793 492 Q 778 489 764 483 L 732 475 Q 690 465 653 459 Q 619 453 579 446 Q 554 442 574 427 Q 601 408 640 416 Q 659 422 685 426 L 738 439 Z"></path>
      </clipPath>
      <path clip-path="url(#make-me-a-hanzi-clip-12)" d="M 575 437 L 630 434 L 829 482 L 881 490 L 916 485" fill="none" id="make-me-a-hanzi-animation-12" stroke-dasharray="476 952" stroke-linecap="round"></path>
    
      <clipPath id="make-me-a-hanzi-clip-13">
        <path d="M 756 298 Q 805 307 879 312 Q 918 312 922 322 Q 926 332 910 343 Q 859 374 809 356 Q 785 350 756 340 L 703 326 Q 651 316 593 300 Q 575 296 590 283 Q 603 273 619 269 Q 637 266 650 272 Q 675 281 704 286 L 756 298 Z"></path>
      </clipPath>
      <path clip-path="url(#make-me-a-hanzi-clip-13)" d="M 592 291 L 628 288 L 823 334 L 880 334 L 913 326" fill="none" id="make-me-a-hanzi-animation-13" stroke-dasharray="455 910" stroke-linecap="round"></path>
    
      <clipPath id="make-me-a-hanzi-clip-14">
        <path d="M 708 -34 Q 712 -56 719 -65 Q 723 -72 731 -70 Q 743 -61 750 -8 Q 757 50 755 106 Q 754 149 756 298 L 756 340 Q 756 341 757 341 Q 758 374 766 403 Q 769 419 756 428 Q 746 435 738 439 C 712 454 670 452 685 426 Q 703 408 703 326 L 704 286 Q 704 -2 708 -34 Z"></path>
      </clipPath>
      <path clip-path="url(#make-me-a-hanzi-clip-14)" d="M 692 426 L 731 402 L 727 -62" fill="none" id="make-me-a-hanzi-animation-14" stroke-dasharray="638 1276" stroke-linecap="round"></path>
    
  </g>
</svg>