<svg version="1.1" viewBox="0 0 1024 1024" xmlns="http://www.w3.org/2000/svg">
  <g stroke="lightgray" stroke-dasharray="1,1" stroke-width="1" transform="scale(4, 4)">
    <line x1="0" y1="0" x2="256" y2="256"></line>
    <line x1="256" y1="0" x2="0" y2="256"></line>
    <line x1="128" y1="0" x2="128" y2="256"></line>
    <line x1="0" y1="128" x2="256" y2="128"></line>
  </g>
  <g transform="scale(1, -1) translate(0, -900)">
    <style type="text/css">
      
        @keyframes keyframes0 {
          from {
            stroke: blue;
            stroke-dashoffset: 802;
            stroke-width: 128;
          }
          72% {
            animation-timing-function: step-end;
            stroke: blue;
            stroke-dashoffset: 0;
            stroke-width: 128;
          }
          to {
            stroke: black;
            stroke-width: 1024;
          }
        }
        #make-me-a-hanzi-animation-0 {
          animation: keyframes0 0.9026692708333334s both;
          animation-delay: 0s;
          animation-timing-function: linear;
        }
      
        @keyframes keyframes1 {
          from {
            stroke: blue;
            stroke-dashoffset: 780;
            stroke-width: 128;
          }
          72% {
            animation-timing-function: step-end;
            stroke: blue;
            stroke-dashoffset: 0;
            stroke-width: 128;
          }
          to {
            stroke: black;
            stroke-width: 1024;
          }
        }
        #make-me-a-hanzi-animation-1 {
          animation: keyframes1 0.884765625s both;
          animation-delay: 0.9026692708333334s;
          animation-timing-function: linear;
        }
      
        @keyframes keyframes2 {
          from {
            stroke: blue;
            stroke-dashoffset: 767;
            stroke-width: 128;
          }
          71% {
            animation-timing-function: step-end;
            stroke: blue;
            stroke-dashoffset: 0;
            stroke-width: 128;
          }
          to {
            stroke: black;
            stroke-width: 1024;
          }
        }
        #make-me-a-hanzi-animation-2 {
          animation: keyframes2 0.8741861979166666s both;
          animation-delay: 1.7874348958333335s;
          animation-timing-function: linear;
        }
      
        @keyframes keyframes3 {
          from {
            stroke: blue;
            stroke-dashoffset: 744;
            stroke-width: 128;
          }
          71% {
            animation-timing-function: step-end;
            stroke: blue;
            stroke-dashoffset: 0;
            stroke-width: 128;
          }
          to {
            stroke: black;
            stroke-width: 1024;
          }
        }
        #make-me-a-hanzi-animation-3 {
          animation: keyframes3 0.85546875s both;
          animation-delay: 2.66162109375s;
          animation-timing-function: linear;
        }
      
        @keyframes keyframes4 {
          from {
            stroke: blue;
            stroke-dashoffset: 425;
            stroke-width: 128;
          }
          58% {
            animation-timing-function: step-end;
            stroke: blue;
            stroke-dashoffset: 0;
            stroke-width: 128;
          }
          to {
            stroke: black;
            stroke-width: 1024;
          }
        }
        #make-me-a-hanzi-animation-4 {
          animation: keyframes4 0.5958658854166666s both;
          animation-delay: 3.51708984375s;
          animation-timing-function: linear;
        }
      
        @keyframes keyframes5 {
          from {
            stroke: blue;
            stroke-dashoffset: 446;
            stroke-width: 128;
          }
          59% {
            animation-timing-function: step-end;
            stroke: blue;
            stroke-dashoffset: 0;
            stroke-width: 128;
          }
          to {
            stroke: black;
            stroke-width: 1024;
          }
        }
        #make-me-a-hanzi-animation-5 {
          animation: keyframes5 0.6129557291666666s both;
          animation-delay: 4.112955729166667s;
          animation-timing-function: linear;
        }
      
        @keyframes keyframes6 {
          from {
            stroke: blue;
            stroke-dashoffset: 787;
            stroke-width: 128;
          }
          72% {
            animation-timing-function: step-end;
            stroke: blue;
            stroke-dashoffset: 0;
            stroke-width: 128;
          }
          to {
            stroke: black;
            stroke-width: 1024;
          }
        }
        #make-me-a-hanzi-animation-6 {
          animation: keyframes6 0.8904622395833334s both;
          animation-delay: 4.725911458333334s;
          animation-timing-function: linear;
        }
      
        @keyframes keyframes7 {
          from {
            stroke: blue;
            stroke-dashoffset: 386;
            stroke-width: 128;
          }
          56% {
            animation-timing-function: step-end;
            stroke: blue;
            stroke-dashoffset: 0;
            stroke-width: 128;
          }
          to {
            stroke: black;
            stroke-width: 1024;
          }
        }
        #make-me-a-hanzi-animation-7 {
          animation: keyframes7 0.5641276041666666s both;
          animation-delay: 5.616373697916667s;
          animation-timing-function: linear;
        }
      
        @keyframes keyframes8 {
          from {
            stroke: blue;
            stroke-dashoffset: 321;
            stroke-width: 128;
          }
          51% {
            animation-timing-function: step-end;
            stroke: blue;
            stroke-dashoffset: 0;
            stroke-width: 128;
          }
          to {
            stroke: black;
            stroke-width: 1024;
          }
        }
        #make-me-a-hanzi-animation-8 {
          animation: keyframes8 0.51123046875s both;
          animation-delay: 6.180501302083334s;
          animation-timing-function: linear;
        }
      
        @keyframes keyframes9 {
          from {
            stroke: blue;
            stroke-dashoffset: 356;
            stroke-width: 128;
          }
          54% {
            animation-timing-function: step-end;
            stroke: blue;
            stroke-dashoffset: 0;
            stroke-width: 128;
          }
          to {
            stroke: black;
            stroke-width: 1024;
          }
        }
        #make-me-a-hanzi-animation-9 {
          animation: keyframes9 0.5397135416666666s both;
          animation-delay: 6.691731770833334s;
          animation-timing-function: linear;
        }
      
        @keyframes keyframes10 {
          from {
            stroke: blue;
            stroke-dashoffset: 496;
            stroke-width: 128;
          }
          62% {
            animation-timing-function: step-end;
            stroke: blue;
            stroke-dashoffset: 0;
            stroke-width: 128;
          }
          to {
            stroke: black;
            stroke-width: 1024;
          }
        }
        #make-me-a-hanzi-animation-10 {
          animation: keyframes10 0.6536458333333334s both;
          animation-delay: 7.231445312500001s;
          animation-timing-function: linear;
        }
      
        @keyframes keyframes11 {
          from {
            stroke: blue;
            stroke-dashoffset: 527;
            stroke-width: 128;
          }
          63% {
            animation-timing-function: step-end;
            stroke: blue;
            stroke-dashoffset: 0;
            stroke-width: 128;
          }
          to {
            stroke: black;
            stroke-width: 1024;
          }
        }
        #make-me-a-hanzi-animation-11 {
          animation: keyframes11 0.6788736979166666s both;
          animation-delay: 7.885091145833334s;
          animation-timing-function: linear;
        }
      
        @keyframes keyframes12 {
          from {
            stroke: blue;
            stroke-dashoffset: 788;
            stroke-width: 128;
          }
          72% {
            animation-timing-function: step-end;
            stroke: blue;
            stroke-dashoffset: 0;
            stroke-width: 128;
          }
          to {
            stroke: black;
            stroke-width: 1024;
          }
        }
        #make-me-a-hanzi-animation-12 {
          animation: keyframes12 0.8912760416666666s both;
          animation-delay: 8.56396484375s;
          animation-timing-function: linear;
        }
      
        @keyframes keyframes13 {
          from {
            stroke: blue;
            stroke-dashoffset: 407;
            stroke-width: 128;
          }
          57% {
            animation-timing-function: step-end;
            stroke: blue;
            stroke-dashoffset: 0;
            stroke-width: 128;
          }
          to {
            stroke: black;
            stroke-width: 1024;
          }
        }
        #make-me-a-hanzi-animation-13 {
          animation: keyframes13 0.5812174479166666s both;
          animation-delay: 9.455240885416666s;
          animation-timing-function: linear;
        }
      
        @keyframes keyframes14 {
          from {
            stroke: blue;
            stroke-dashoffset: 443;
            stroke-width: 128;
          }
          59% {
            animation-timing-function: step-end;
            stroke: blue;
            stroke-dashoffset: 0;
            stroke-width: 128;
          }
          to {
            stroke: black;
            stroke-width: 1024;
          }
        }
        #make-me-a-hanzi-animation-14 {
          animation: keyframes14 0.6105143229166666s both;
          animation-delay: 10.036458333333332s;
          animation-timing-function: linear;
        }
      
    </style>
    
      <path d="M 203 536 Q 249 600 300 686 Q 325 737 349 762 Q 359 772 353 787 Q 349 800 318 823 Q 290 842 269 841 Q 250 838 259 815 Q 275 784 263 755 Q 206 598 46 392 Q 36 382 34 375 Q 30 363 45 366 Q 82 375 179 504 L 203 536 Z" fill="lightgray"></path>
    
      <path d="M 179 504 Q 206 438 207 378 Q 206 357 206 335 Q 206 220 177 103 Q 162 54 199 6 Q 200 3 204 0 Q 223 -16 235 12 Q 250 54 250 102 Q 249 382 258 445 Q 265 473 255 484 Q 237 506 223 520 Q 214 530 203 536 C 179 553 168 532 179 504 Z" fill="lightgray"></path>
    
      <path d="M 372 493 Q 474 610 543 718 Q 556 743 571 761 L 586 780 Q 587 784 592 786 Q 602 796 597 809 Q 593 822 566 844 Q 541 862 523 862 Q 504 861 512 839 Q 525 808 513 782 Q 452 640 295 453 Q 285 444 283 438 Q 279 428 293 429 Q 303 430 353 474 L 372 493 Z" fill="lightgray"></path>
    
      <path d="M 571 761 Q 671 649 781 545 Q 803 523 841 521 Q 908 517 980 531 Q 999 532 1000 538 Q 1001 545 988 550 Q 772 631 691 693 Q 661 715 634 739 Q 606 766 586 780 C 562 798 551 783 571 761 Z" fill="lightgray"></path>
    
      <path d="M 481 605 Q 450 598 474 584 Q 507 571 581 588 Q 603 595 630 601 Q 646 605 649 608 Q 656 615 651 622 Q 644 632 619 636 Q 606 637 529 614 Q 507 608 481 605 Z" fill="lightgray"></path>
    
      <path d="M 397 488 Q 390 492 372 493 C 342 495 342 495 353 474 Q 378 425 396 342 Q 399 317 414 301 Q 430 283 434 297 Q 435 304 436 313 L 435 333 Q 434 342 432 351 Q 416 427 411 457 C 406 484 406 484 397 488 Z" fill="lightgray"></path>
    
      <path d="M 678 336 Q 679 335 680 331 Q 684 316 695 317 Q 708 318 715 331 Q 725 341 745 393 Q 761 439 795 466 Q 813 479 798 495 Q 782 511 737 536 Q 725 545 663 531 Q 552 516 534 512 Q 533 512 532 511 L 525 510 Q 509 509 495 505 Q 435 493 397 488 C 367 484 381 454 411 457 Q 418 456 426 458 Q 463 471 530 480 L 573 487 Q 687 508 708 496 Q 715 492 710 468 Q 691 386 683 365 C 675 341 675 341 678 336 Z" fill="lightgray"></path>
    
      <path d="M 570 355 Q 574 457 578 464 Q 582 477 576 485 Q 575 486 573 487 C 550 506 529 510 530 480 Q 530 477 535 349 C 536 319 569 325 570 355 Z" fill="lightgray"></path>
    
      <path d="M 446 431 Q 473 382 490 376 Q 499 375 506 386 Q 509 396 505 411 Q 501 423 486 431 Q 464 446 453 449 Q 447 452 445 443 Q 442 439 446 431 Z" fill="lightgray"></path>
    
      <path d="M 623 450 Q 617 435 592 397 Q 588 387 597 389 Q 619 402 631 412 Q 661 439 673 444 Q 683 451 677 460 Q 668 469 653 476 Q 638 483 631 480 Q 624 479 627 471 Q 630 461 623 450 Z" fill="lightgray"></path>
    
      <path d="M 436 313 Q 449 310 467 312 Q 587 328 678 336 C 708 339 712 356 683 365 Q 682 366 678 367 Q 663 370 570 355 L 535 349 Q 483 342 435 333 C 406 328 406 318 436 313 Z" fill="lightgray"></path>
    
      <path d="M 455 241 Q 445 251 426 257 Q 419 261 409 257 Q 403 253 408 244 Q 435 153 417 63 Q 408 23 436 -16 Q 445 -26 453 -16 Q 460 -4 462 10 L 463 41 Q 463 44 464 119 L 464 145 Q 464 179 464 214 C 464 234 464 234 455 241 Z" fill="lightgray"></path>
    
      <path d="M 630 22 Q 654 -9 671 -41 Q 678 -57 689 -56 Q 704 -55 718 -26 Q 736 14 728 101 Q 719 206 737 228 Q 746 240 738 249 Q 722 265 675 288 Q 659 297 646 288 Q 592 264 455 241 C 425 236 434 211 464 214 Q 489 214 629 244 Q 651 248 663 240 Q 673 230 671 99 Q 671 65 668 54 Q 664 44 657 43 C 637 20 626 27 630 22 Z" fill="lightgray"></path>
    
      <path d="M 464 119 Q 468 118 475 119 Q 553 129 610 136 Q 634 140 625 152 Q 615 167 589 172 Q 553 176 464 145 C 436 135 434 122 464 119 Z" fill="lightgray"></path>
    
      <path d="M 462 10 Q 469 9 480 10 Q 529 20 630 22 C 660 23 679 23 657 43 Q 650 50 636 60 Q 621 69 592 63 Q 522 48 463 41 C 433 37 432 12 462 10 Z" fill="lightgray"></path>
    
    
      <clipPath id="make-me-a-hanzi-clip-0">
        <path d="M 203 536 Q 249 600 300 686 Q 325 737 349 762 Q 359 772 353 787 Q 349 800 318 823 Q 290 842 269 841 Q 250 838 259 815 Q 275 784 263 755 Q 206 598 46 392 Q 36 382 34 375 Q 30 363 45 366 Q 82 375 179 504 L 203 536 Z"></path>
      </clipPath>
      <path clip-path="url(#make-me-a-hanzi-clip-0)" d="M 271 825 L 296 802 L 307 775 L 271 694 L 196 565 L 143 488 L 86 416 L 43 375" fill="none" id="make-me-a-hanzi-animation-0" stroke-dasharray="674 1348" stroke-linecap="round"></path>
    
      <clipPath id="make-me-a-hanzi-clip-1">
        <path d="M 179 504 Q 206 438 207 378 Q 206 357 206 335 Q 206 220 177 103 Q 162 54 199 6 Q 200 3 204 0 Q 223 -16 235 12 Q 250 54 250 102 Q 249 382 258 445 Q 265 473 255 484 Q 237 506 223 520 Q 214 530 203 536 C 179 553 168 532 179 504 Z"></path>
      </clipPath>
      <path clip-path="url(#make-me-a-hanzi-clip-1)" d="M 204 527 L 209 499 L 227 465 L 230 421 L 225 207 L 210 62 L 216 9" fill="none" id="make-me-a-hanzi-animation-1" stroke-dasharray="652 1304" stroke-linecap="round"></path>
    
      <clipPath id="make-me-a-hanzi-clip-2">
        <path d="M 372 493 Q 474 610 543 718 Q 556 743 571 761 L 586 780 Q 587 784 592 786 Q 602 796 597 809 Q 593 822 566 844 Q 541 862 523 862 Q 504 861 512 839 Q 525 808 513 782 Q 452 640 295 453 Q 285 444 283 438 Q 279 428 293 429 Q 303 430 353 474 L 372 493 Z"></path>
      </clipPath>
      <path clip-path="url(#make-me-a-hanzi-clip-2)" d="M 522 848 L 544 827 L 556 803 L 517 726 L 471 652 L 396 550 L 336 476 L 292 437" fill="none" id="make-me-a-hanzi-animation-2" stroke-dasharray="639 1278" stroke-linecap="round"></path>
    
      <clipPath id="make-me-a-hanzi-clip-3">
        <path d="M 571 761 Q 671 649 781 545 Q 803 523 841 521 Q 908 517 980 531 Q 999 532 1000 538 Q 1001 545 988 550 Q 772 631 691 693 Q 661 715 634 739 Q 606 766 586 780 C 562 798 551 783 571 761 Z"></path>
      </clipPath>
      <path clip-path="url(#make-me-a-hanzi-clip-3)" d="M 588 771 L 588 761 L 677 676 L 814 574 L 878 555 L 994 539" fill="none" id="make-me-a-hanzi-animation-3" stroke-dasharray="616 1232" stroke-linecap="round"></path>
    
      <clipPath id="make-me-a-hanzi-clip-4">
        <path d="M 481 605 Q 450 598 474 584 Q 507 571 581 588 Q 603 595 630 601 Q 646 605 649 608 Q 656 615 651 622 Q 644 632 619 636 Q 606 637 529 614 Q 507 608 481 605 Z"></path>
      </clipPath>
      <path clip-path="url(#make-me-a-hanzi-clip-4)" d="M 475 595 L 532 596 L 611 616 L 641 616" fill="none" id="make-me-a-hanzi-animation-4" stroke-dasharray="297 594" stroke-linecap="round"></path>
    
      <clipPath id="make-me-a-hanzi-clip-5">
        <path d="M 397 488 Q 390 492 372 493 C 342 495 342 495 353 474 Q 378 425 396 342 Q 399 317 414 301 Q 430 283 434 297 Q 435 304 436 313 L 435 333 Q 434 342 432 351 Q 416 427 411 457 C 406 484 406 484 397 488 Z"></path>
      </clipPath>
      <path clip-path="url(#make-me-a-hanzi-clip-5)" d="M 364 472 L 380 469 L 388 452 L 424 301" fill="none" id="make-me-a-hanzi-animation-5" stroke-dasharray="318 636" stroke-linecap="round"></path>
    
      <clipPath id="make-me-a-hanzi-clip-6">
        <path d="M 678 336 Q 679 335 680 331 Q 684 316 695 317 Q 708 318 715 331 Q 725 341 745 393 Q 761 439 795 466 Q 813 479 798 495 Q 782 511 737 536 Q 725 545 663 531 Q 552 516 534 512 Q 533 512 532 511 L 525 510 Q 509 509 495 505 Q 435 493 397 488 C 367 484 381 454 411 457 Q 418 456 426 458 Q 463 471 530 480 L 573 487 Q 687 508 708 496 Q 715 492 710 468 Q 691 386 683 365 C 675 341 675 341 678 336 Z"></path>
      </clipPath>
      <path clip-path="url(#make-me-a-hanzi-clip-6)" d="M 403 485 L 422 474 L 653 517 L 698 520 L 725 514 L 744 495 L 751 478 L 695 332" fill="none" id="make-me-a-hanzi-animation-6" stroke-dasharray="659 1318" stroke-linecap="round"></path>
    
      <clipPath id="make-me-a-hanzi-clip-7">
        <path d="M 570 355 Q 574 457 578 464 Q 582 477 576 485 Q 575 486 573 487 C 550 506 529 510 530 480 Q 530 477 535 349 C 536 319 569 325 570 355 Z"></path>
      </clipPath>
      <path clip-path="url(#make-me-a-hanzi-clip-7)" d="M 538 479 L 553 459 L 554 416 L 554 372 L 539 363" fill="none" id="make-me-a-hanzi-animation-7" stroke-dasharray="258 516" stroke-linecap="round"></path>
    
      <clipPath id="make-me-a-hanzi-clip-8">
        <path d="M 446 431 Q 473 382 490 376 Q 499 375 506 386 Q 509 396 505 411 Q 501 423 486 431 Q 464 446 453 449 Q 447 452 445 443 Q 442 439 446 431 Z"></path>
      </clipPath>
      <path clip-path="url(#make-me-a-hanzi-clip-8)" d="M 454 439 L 481 412 L 492 387" fill="none" id="make-me-a-hanzi-animation-8" stroke-dasharray="193 386" stroke-linecap="round"></path>
    
      <clipPath id="make-me-a-hanzi-clip-9">
        <path d="M 623 450 Q 617 435 592 397 Q 588 387 597 389 Q 619 402 631 412 Q 661 439 673 444 Q 683 451 677 460 Q 668 469 653 476 Q 638 483 631 480 Q 624 479 627 471 Q 630 461 623 450 Z"></path>
      </clipPath>
      <path clip-path="url(#make-me-a-hanzi-clip-9)" d="M 636 472 L 649 454 L 612 408 L 601 404 L 601 397" fill="none" id="make-me-a-hanzi-animation-9" stroke-dasharray="228 456" stroke-linecap="round"></path>
    
      <clipPath id="make-me-a-hanzi-clip-10">
        <path d="M 436 313 Q 449 310 467 312 Q 587 328 678 336 C 708 339 712 356 683 365 Q 682 366 678 367 Q 663 370 570 355 L 535 349 Q 483 342 435 333 C 406 328 406 318 436 313 Z"></path>
      </clipPath>
      <path clip-path="url(#make-me-a-hanzi-clip-10)" d="M 443 328 L 448 323 L 540 334 L 664 351 L 677 358" fill="none" id="make-me-a-hanzi-animation-10" stroke-dasharray="368 736" stroke-linecap="round"></path>
    
      <clipPath id="make-me-a-hanzi-clip-11">
        <path d="M 455 241 Q 445 251 426 257 Q 419 261 409 257 Q 403 253 408 244 Q 435 153 417 63 Q 408 23 436 -16 Q 445 -26 453 -16 Q 460 -4 462 10 L 463 41 Q 463 44 464 119 L 464 145 Q 464 179 464 214 C 464 234 464 234 455 241 Z"></path>
      </clipPath>
      <path clip-path="url(#make-me-a-hanzi-clip-11)" d="M 415 250 L 433 232 L 441 207 L 446 106 L 439 34 L 445 -11" fill="none" id="make-me-a-hanzi-animation-11" stroke-dasharray="399 798" stroke-linecap="round"></path>
    
      <clipPath id="make-me-a-hanzi-clip-12">
        <path d="M 630 22 Q 654 -9 671 -41 Q 678 -57 689 -56 Q 704 -55 718 -26 Q 736 14 728 101 Q 719 206 737 228 Q 746 240 738 249 Q 722 265 675 288 Q 659 297 646 288 Q 592 264 455 241 C 425 236 434 211 464 214 Q 489 214 629 244 Q 651 248 663 240 Q 673 230 671 99 Q 671 65 668 54 Q 664 44 657 43 C 637 20 626 27 630 22 Z"></path>
      </clipPath>
      <path clip-path="url(#make-me-a-hanzi-clip-12)" d="M 466 222 L 474 230 L 661 268 L 688 252 L 701 234 L 700 51 L 687 11 L 689 -40" fill="none" id="make-me-a-hanzi-animation-12" stroke-dasharray="660 1320" stroke-linecap="round"></path>
    
      <clipPath id="make-me-a-hanzi-clip-13">
        <path d="M 464 119 Q 468 118 475 119 Q 553 129 610 136 Q 634 140 625 152 Q 615 167 589 172 Q 553 176 464 145 C 436 135 434 122 464 119 Z"></path>
      </clipPath>
      <path clip-path="url(#make-me-a-hanzi-clip-13)" d="M 470 126 L 481 135 L 551 150 L 592 153 L 615 146" fill="none" id="make-me-a-hanzi-animation-13" stroke-dasharray="279 558" stroke-linecap="round"></path>
    
      <clipPath id="make-me-a-hanzi-clip-14">
        <path d="M 462 10 Q 469 9 480 10 Q 529 20 630 22 C 660 23 679 23 657 43 Q 650 50 636 60 Q 621 69 592 63 Q 522 48 463 41 C 433 37 432 12 462 10 Z"></path>
      </clipPath>
      <path clip-path="url(#make-me-a-hanzi-clip-14)" d="M 466 18 L 485 28 L 527 34 L 650 43" fill="none" id="make-me-a-hanzi-animation-14" stroke-dasharray="315 630" stroke-linecap="round"></path>
    
  </g>
</svg>