<svg version="1.1" viewBox="0 0 1024 1024" xmlns="http://www.w3.org/2000/svg">
  <g stroke="lightgray" stroke-dasharray="1,1" stroke-width="1" transform="scale(4, 4)">
    <line x1="0" y1="0" x2="256" y2="256"></line>
    <line x1="256" y1="0" x2="0" y2="256"></line>
    <line x1="128" y1="0" x2="128" y2="256"></line>
    <line x1="0" y1="128" x2="256" y2="128"></line>
  </g>
  <g transform="scale(1, -1) translate(0, -900)">
    <style type="text/css">
      
        @keyframes keyframes0 {
          from {
            stroke: blue;
            stroke-dashoffset: 785;
            stroke-width: 128;
          }
          72% {
            animation-timing-function: step-end;
            stroke: blue;
            stroke-dashoffset: 0;
            stroke-width: 128;
          }
          to {
            stroke: black;
            stroke-width: 1024;
          }
        }
        #make-me-a-hanzi-animation-0 {
          animation: keyframes0 0.8888346354166666s both;
          animation-delay: 0s;
          animation-timing-function: linear;
        }
      
        @keyframes keyframes1 {
          from {
            stroke: blue;
            stroke-dashoffset: 717;
            stroke-width: 128;
          }
          70% {
            animation-timing-function: step-end;
            stroke: blue;
            stroke-dashoffset: 0;
            stroke-width: 128;
          }
          to {
            stroke: black;
            stroke-width: 1024;
          }
        }
        #make-me-a-hanzi-animation-1 {
          animation: keyframes1 0.83349609375s both;
          animation-delay: 0.8888346354166666s;
          animation-timing-function: linear;
        }
      
        @keyframes keyframes2 {
          from {
            stroke: blue;
            stroke-dashoffset: 452;
            stroke-width: 128;
          }
          60% {
            animation-timing-function: step-end;
            stroke: blue;
            stroke-dashoffset: 0;
            stroke-width: 128;
          }
          to {
            stroke: black;
            stroke-width: 1024;
          }
        }
        #make-me-a-hanzi-animation-2 {
          animation: keyframes2 0.6178385416666666s both;
          animation-delay: 1.7223307291666665s;
          animation-timing-function: linear;
        }
      
        @keyframes keyframes3 {
          from {
            stroke: blue;
            stroke-dashoffset: 335;
            stroke-width: 128;
          }
          52% {
            animation-timing-function: step-end;
            stroke: blue;
            stroke-dashoffset: 0;
            stroke-width: 128;
          }
          to {
            stroke: black;
            stroke-width: 1024;
          }
        }
        #make-me-a-hanzi-animation-3 {
          animation: keyframes3 0.5226236979166666s both;
          animation-delay: 2.340169270833333s;
          animation-timing-function: linear;
        }
      
        @keyframes keyframes4 {
          from {
            stroke: blue;
            stroke-dashoffset: 382;
            stroke-width: 128;
          }
          55% {
            animation-timing-function: step-end;
            stroke: blue;
            stroke-dashoffset: 0;
            stroke-width: 128;
          }
          to {
            stroke: black;
            stroke-width: 1024;
          }
        }
        #make-me-a-hanzi-animation-4 {
          animation: keyframes4 0.5608723958333334s both;
          animation-delay: 2.8627929687499996s;
          animation-timing-function: linear;
        }
      
        @keyframes keyframes5 {
          from {
            stroke: blue;
            stroke-dashoffset: 413;
            stroke-width: 128;
          }
          57% {
            animation-timing-function: step-end;
            stroke: blue;
            stroke-dashoffset: 0;
            stroke-width: 128;
          }
          to {
            stroke: black;
            stroke-width: 1024;
          }
        }
        #make-me-a-hanzi-animation-5 {
          animation: keyframes5 0.5861002604166666s both;
          animation-delay: 3.423665364583333s;
          animation-timing-function: linear;
        }
      
        @keyframes keyframes6 {
          from {
            stroke: blue;
            stroke-dashoffset: 800;
            stroke-width: 128;
          }
          72% {
            animation-timing-function: step-end;
            stroke: blue;
            stroke-dashoffset: 0;
            stroke-width: 128;
          }
          to {
            stroke: black;
            stroke-width: 1024;
          }
        }
        #make-me-a-hanzi-animation-6 {
          animation: keyframes6 0.9010416666666666s both;
          animation-delay: 4.009765625s;
          animation-timing-function: linear;
        }
      
        @keyframes keyframes7 {
          from {
            stroke: blue;
            stroke-dashoffset: 382;
            stroke-width: 128;
          }
          55% {
            animation-timing-function: step-end;
            stroke: blue;
            stroke-dashoffset: 0;
            stroke-width: 128;
          }
          to {
            stroke: black;
            stroke-width: 1024;
          }
        }
        #make-me-a-hanzi-animation-7 {
          animation: keyframes7 0.5608723958333334s both;
          animation-delay: 4.910807291666667s;
          animation-timing-function: linear;
        }
      
        @keyframes keyframes8 {
          from {
            stroke: blue;
            stroke-dashoffset: 519;
            stroke-width: 128;
          }
          63% {
            animation-timing-function: step-end;
            stroke: blue;
            stroke-dashoffset: 0;
            stroke-width: 128;
          }
          to {
            stroke: black;
            stroke-width: 1024;
          }
        }
        #make-me-a-hanzi-animation-8 {
          animation: keyframes8 0.67236328125s both;
          animation-delay: 5.4716796875s;
          animation-timing-function: linear;
        }
      
        @keyframes keyframes9 {
          from {
            stroke: blue;
            stroke-dashoffset: 414;
            stroke-width: 128;
          }
          57% {
            animation-timing-function: step-end;
            stroke: blue;
            stroke-dashoffset: 0;
            stroke-width: 128;
          }
          to {
            stroke: black;
            stroke-width: 1024;
          }
        }
        #make-me-a-hanzi-animation-9 {
          animation: keyframes9 0.5869140625s both;
          animation-delay: 6.14404296875s;
          animation-timing-function: linear;
        }
      
        @keyframes keyframes10 {
          from {
            stroke: blue;
            stroke-dashoffset: 455;
            stroke-width: 128;
          }
          60% {
            animation-timing-function: step-end;
            stroke: blue;
            stroke-dashoffset: 0;
            stroke-width: 128;
          }
          to {
            stroke: black;
            stroke-width: 1024;
          }
        }
        #make-me-a-hanzi-animation-10 {
          animation: keyframes10 0.6202799479166666s both;
          animation-delay: 6.73095703125s;
          animation-timing-function: linear;
        }
      
        @keyframes keyframes11 {
          from {
            stroke: blue;
            stroke-dashoffset: 779;
            stroke-width: 128;
          }
          72% {
            animation-timing-function: step-end;
            stroke: blue;
            stroke-dashoffset: 0;
            stroke-width: 128;
          }
          to {
            stroke: black;
            stroke-width: 1024;
          }
        }
        #make-me-a-hanzi-animation-11 {
          animation: keyframes11 0.8839518229166666s both;
          animation-delay: 7.351236979166667s;
          animation-timing-function: linear;
        }
      
        @keyframes keyframes12 {
          from {
            stroke: blue;
            stroke-dashoffset: 313;
            stroke-width: 128;
          }
          50% {
            animation-timing-function: step-end;
            stroke: blue;
            stroke-dashoffset: 0;
            stroke-width: 128;
          }
          to {
            stroke: black;
            stroke-width: 1024;
          }
        }
        #make-me-a-hanzi-animation-12 {
          animation: keyframes12 0.5047200520833334s both;
          animation-delay: 8.235188802083334s;
          animation-timing-function: linear;
        }
      
        @keyframes keyframes13 {
          from {
            stroke: blue;
            stroke-dashoffset: 343;
            stroke-width: 128;
          }
          53% {
            animation-timing-function: step-end;
            stroke: blue;
            stroke-dashoffset: 0;
            stroke-width: 128;
          }
          to {
            stroke: black;
            stroke-width: 1024;
          }
        }
        #make-me-a-hanzi-animation-13 {
          animation: keyframes13 0.5291341145833334s both;
          animation-delay: 8.739908854166668s;
          animation-timing-function: linear;
        }
      
        @keyframes keyframes14 {
          from {
            stroke: blue;
            stroke-dashoffset: 504;
            stroke-width: 128;
          }
          62% {
            animation-timing-function: step-end;
            stroke: blue;
            stroke-dashoffset: 0;
            stroke-width: 128;
          }
          to {
            stroke: black;
            stroke-width: 1024;
          }
        }
        #make-me-a-hanzi-animation-14 {
          animation: keyframes14 0.66015625s both;
          animation-delay: 9.269042968750002s;
          animation-timing-function: linear;
        }
      
        @keyframes keyframes15 {
          from {
            stroke: blue;
            stroke-dashoffset: 533;
            stroke-width: 128;
          }
          63% {
            animation-timing-function: step-end;
            stroke: blue;
            stroke-dashoffset: 0;
            stroke-width: 128;
          }
          to {
            stroke: black;
            stroke-width: 1024;
          }
        }
        #make-me-a-hanzi-animation-15 {
          animation: keyframes15 0.6837565104166666s both;
          animation-delay: 9.929199218750002s;
          animation-timing-function: linear;
        }
      
        @keyframes keyframes16 {
          from {
            stroke: blue;
            stroke-dashoffset: 461;
            stroke-width: 128;
          }
          60% {
            animation-timing-function: step-end;
            stroke: blue;
            stroke-dashoffset: 0;
            stroke-width: 128;
          }
          to {
            stroke: black;
            stroke-width: 1024;
          }
        }
        #make-me-a-hanzi-animation-16 {
          animation: keyframes16 0.6251627604166666s both;
          animation-delay: 10.612955729166668s;
          animation-timing-function: linear;
        }
      
        @keyframes keyframes17 {
          from {
            stroke: blue;
            stroke-dashoffset: 584;
            stroke-width: 128;
          }
          66% {
            animation-timing-function: step-end;
            stroke: blue;
            stroke-dashoffset: 0;
            stroke-width: 128;
          }
          to {
            stroke: black;
            stroke-width: 1024;
          }
        }
        #make-me-a-hanzi-animation-17 {
          animation: keyframes17 0.7252604166666666s both;
          animation-delay: 11.238118489583334s;
          animation-timing-function: linear;
        }
      
        @keyframes keyframes18 {
          from {
            stroke: blue;
            stroke-dashoffset: 388;
            stroke-width: 128;
          }
          56% {
            animation-timing-function: step-end;
            stroke: blue;
            stroke-dashoffset: 0;
            stroke-width: 128;
          }
          to {
            stroke: black;
            stroke-width: 1024;
          }
        }
        #make-me-a-hanzi-animation-18 {
          animation: keyframes18 0.5657552083333334s both;
          animation-delay: 11.96337890625s;
          animation-timing-function: linear;
        }
      
        @keyframes keyframes19 {
          from {
            stroke: blue;
            stroke-dashoffset: 334;
            stroke-width: 128;
          }
          52% {
            animation-timing-function: step-end;
            stroke: blue;
            stroke-dashoffset: 0;
            stroke-width: 128;
          }
          to {
            stroke: black;
            stroke-width: 1024;
          }
        }
        #make-me-a-hanzi-animation-19 {
          animation: keyframes19 0.5218098958333334s both;
          animation-delay: 12.529134114583334s;
          animation-timing-function: linear;
        }
      
        @keyframes keyframes20 {
          from {
            stroke: blue;
            stroke-dashoffset: 335;
            stroke-width: 128;
          }
          52% {
            animation-timing-function: step-end;
            stroke: blue;
            stroke-dashoffset: 0;
            stroke-width: 128;
          }
          to {
            stroke: black;
            stroke-width: 1024;
          }
        }
        #make-me-a-hanzi-animation-20 {
          animation: keyframes20 0.5226236979166666s both;
          animation-delay: 13.050944010416668s;
          animation-timing-function: linear;
        }
      
        @keyframes keyframes21 {
          from {
            stroke: blue;
            stroke-dashoffset: 432;
            stroke-width: 128;
          }
          58% {
            animation-timing-function: step-end;
            stroke: blue;
            stroke-dashoffset: 0;
            stroke-width: 128;
          }
          to {
            stroke: black;
            stroke-width: 1024;
          }
        }
        #make-me-a-hanzi-animation-21 {
          animation: keyframes21 0.6015625s both;
          animation-delay: 13.573567708333334s;
          animation-timing-function: linear;
        }
      
    </style>
    
      <path d="M 206 479 Q 251 548 297 643 Q 319 692 340 718 Q 347 730 342 743 Q 336 755 306 775 Q 278 790 259 788 Q 241 784 251 764 Q 269 733 259 706 Q 211 547 72 343 Q 63 333 61 326 Q 60 314 73 318 Q 109 334 185 448 L 206 479 Z" fill="lightgray"></path>
    
      <path d="M 185 448 Q 209 391 210 330 Q 210 207 184 103 Q 172 52 206 13 Q 207 10 210 8 Q 226 -8 238 18 Q 253 58 252 103 Q 252 338 260 391 Q 267 418 258 428 Q 216 474 206 479 C 182 498 174 476 185 448 Z" fill="lightgray"></path>
    
      <path d="M 602 670 Q 611 763 627 824 Q 630 833 613 845 Q 585 860 566 864 Q 553 867 546 860 Q 539 853 546 841 Q 564 820 567 664 C 568 634 599 640 602 670 Z" fill="lightgray"></path>
    
      <path d="M 437 741 Q 462 705 486 691 Q 496 688 504 697 Q 510 706 508 718 Q 505 736 493 746 Q 459 776 429 770 Q 425 769 426 760 Q 426 751 437 741 Z" fill="lightgray"></path>
    
      <path d="M 705 792 Q 698 777 689 767 Q 679 752 667 736 Q 657 723 672 725 Q 673 725 738 753 Q 754 766 775 774 Q 793 781 785 796 Q 775 811 753 824 Q 734 836 723 834 Q 713 833 715 822 Q 718 806 705 792 Z" fill="lightgray"></path>
    
      <path d="M 400 638 Q 388 665 372 676 Q 368 680 363 677 Q 357 674 356 663 Q 359 630 329 577 Q 319 561 319 543 Q 320 524 329 510 Q 336 498 342 506 Q 348 506 357 521 Q 361 527 371 551 Q 387 591 396 606 Q 400 613 403 620 C 406 626 406 626 400 638 Z" fill="lightgray"></path>
    
      <path d="M 403 620 Q 422 607 464 614 Q 590 653 776 667 Q 788 667 795 666 Q 805 659 802 652 Q 803 646 799 640 Q 775 583 779 580 Q 786 577 802 587 Q 848 615 886 622 Q 916 629 916 637 Q 913 646 853 691 Q 832 709 757 693 Q 688 686 602 670 L 567 664 Q 533 660 496 654 Q 453 645 407 640 Q 403 640 400 638 C 372 633 375 631 403 620 Z" fill="lightgray"></path>
    
      <path d="M 465 586 Q 456 587 454 584 Q 450 580 457 568 Q 475 540 490 491 Q 494 476 503 468 Q 518 452 521 464 Q 522 468 522 476 L 518 504 Q 508 547 507 561 C 505 584 495 584 465 586 Z" fill="lightgray"></path>
    
      <path d="M 678 515 Q 694 549 708 560 Q 727 579 709 593 Q 694 603 672 620 Q 657 630 641 621 Q 575 588 465 586 C 435 585 478 555 507 561 Q 520 564 610 581 Q 638 587 644 576 Q 648 572 643 555 Q 640 542 636 528 C 628 499 665 488 678 515 Z" fill="lightgray"></path>
    
      <path d="M 522 476 Q 523 476 529 477 Q 577 487 678 496 Q 687 497 688 504 Q 688 508 678 515 L 636 528 Q 632 529 627 527 Q 566 512 518 504 C 488 499 492 472 522 476 Z" fill="lightgray"></path>
    
      <path d="M 427 411 Q 418 415 387 419 Q 377 420 374 416 Q 370 410 378 398 Q 405 350 426 271 Q 430 247 446 233 Q 462 215 465 229 Q 466 233 467 240 L 466 262 Q 465 272 462 282 Q 443 355 437 382 C 431 410 431 410 427 411 Z" fill="lightgray"></path>
    
      <path d="M 715 274 Q 715 273 716 270 Q 720 257 731 256 Q 743 257 750 270 Q 759 279 779 328 Q 795 371 826 396 Q 842 409 830 422 Q 815 438 773 462 Q 761 469 686 454 Q 659 454 526 428 Q 468 418 427 411 C 397 406 407 379 437 382 Q 444 381 452 383 Q 488 395 547 405 L 584 411 Q 725 439 746 425 Q 753 421 747 398 Q 729 317 717 296 C 711 282 711 282 715 274 Z" fill="lightgray"></path>
    
      <path d="M 475 345 Q 506 302 519 299 Q 528 298 533 309 Q 534 318 530 331 Q 515 356 480 362 Q 474 363 473 356 Q 472 352 475 345 Z" fill="lightgray"></path>
    
      <path d="M 654 373 Q 644 355 623 327 Q 620 323 623 320 Q 627 319 631 322 Q 673 352 693 363 Q 703 366 700 371 Q 697 380 687 389 Q 677 399 664 399 Q 657 399 657 388 Q 658 381 654 373 Z" fill="lightgray"></path>
    
      <path d="M 598 258 Q 662 268 715 274 C 745 277 742 280 717 296 Q 704 309 656 298 Q 626 294 599 286 L 559 279 Q 510 270 466 262 C 436 257 437 237 467 240 Q 471 240 559 251 L 598 258 Z" fill="lightgray"></path>
    
      <path d="M 594 141 Q 594 163 595 182 L 596 216 Q 596 238 598 258 L 599 286 Q 600 320 602 350 Q 605 392 597 401 Q 590 407 584 411 C 560 429 531 431 547 405 Q 551 399 554 393 Q 560 372 559 279 L 559 251 Q 559 232 559 206 L 559 176 Q 559 157 559 135 C 559 105 594 111 594 141 Z" fill="lightgray"></path>
    
      <path d="M 595 182 Q 640 191 680 196 Q 699 199 693 210 Q 684 222 663 226 Q 638 229 596 216 L 559 206 Q 513 196 474 186 Q 461 183 477 171 Q 486 165 559 176 L 595 182 Z" fill="lightgray"></path>
    
      <path d="M 559 135 Q 498 125 428 112 Q 413 111 425 98 Q 435 89 448 86 Q 464 82 475 86 Q 595 120 750 121 Q 763 122 767 128 Q 771 137 759 146 Q 717 173 666 158 Q 635 151 594 141 L 559 135 Z" fill="lightgray"></path>
    
      <path d="M 358 78 Q 342 38 320 1 Q 305 -32 321 -57 Q 328 -73 347 -61 Q 386 -24 384 29 Q 387 59 379 80 Q 375 87 369 87 Q 362 86 358 78 Z" fill="lightgray"></path>
    
      <path d="M 461 39 Q 488 -22 507 -30 Q 517 -34 528 -20 Q 532 -10 529 9 Q 525 24 508 35 Q 483 54 471 60 Q 464 64 460 54 Q 457 48 461 39 Z" fill="lightgray"></path>
    
      <path d="M 600 55 Q 636 -5 655 -8 Q 667 -11 674 4 Q 677 14 671 34 Q 661 58 607 78 Q 600 81 597 71 Q 596 64 600 55 Z" fill="lightgray"></path>
    
      <path d="M 751 58 Q 794 18 845 -40 Q 858 -56 871 -61 Q 878 -62 885 -54 Q 895 -44 885 -6 Q 875 42 752 83 Q 745 87 743 78 Q 742 66 751 58 Z" fill="lightgray"></path>
    
    
      <clipPath id="make-me-a-hanzi-clip-0">
        <path d="M 206 479 Q 251 548 297 643 Q 319 692 340 718 Q 347 730 342 743 Q 336 755 306 775 Q 278 790 259 788 Q 241 784 251 764 Q 269 733 259 706 Q 211 547 72 343 Q 63 333 61 326 Q 60 314 73 318 Q 109 334 185 448 L 206 479 Z"></path>
      </clipPath>
      <path clip-path="url(#make-me-a-hanzi-clip-0)" d="M 261 774 L 279 762 L 301 732 L 269 647 L 220 546 L 151 429 L 70 326" fill="none" id="make-me-a-hanzi-animation-0" stroke-dasharray="657 1314" stroke-linecap="round"></path>
    
      <clipPath id="make-me-a-hanzi-clip-1">
        <path d="M 185 448 Q 209 391 210 330 Q 210 207 184 103 Q 172 52 206 13 Q 207 10 210 8 Q 226 -8 238 18 Q 253 58 252 103 Q 252 338 260 391 Q 267 418 258 428 Q 216 474 206 479 C 182 498 174 476 185 448 Z"></path>
      </clipPath>
      <path clip-path="url(#make-me-a-hanzi-clip-1)" d="M 205 472 L 211 445 L 229 417 L 232 392 L 229 204 L 216 78 L 222 18" fill="none" id="make-me-a-hanzi-animation-1" stroke-dasharray="589 1178" stroke-linecap="round"></path>
    
      <clipPath id="make-me-a-hanzi-clip-2">
        <path d="M 602 670 Q 611 763 627 824 Q 630 833 613 845 Q 585 860 566 864 Q 553 867 546 860 Q 539 853 546 841 Q 564 820 567 664 C 568 634 599 640 602 670 Z"></path>
      </clipPath>
      <path clip-path="url(#make-me-a-hanzi-clip-2)" d="M 556 851 L 590 819 L 585 686 L 571 677" fill="none" id="make-me-a-hanzi-animation-2" stroke-dasharray="324 648" stroke-linecap="round"></path>
    
      <clipPath id="make-me-a-hanzi-clip-3">
        <path d="M 437 741 Q 462 705 486 691 Q 496 688 504 697 Q 510 706 508 718 Q 505 736 493 746 Q 459 776 429 770 Q 425 769 426 760 Q 426 751 437 741 Z"></path>
      </clipPath>
      <path clip-path="url(#make-me-a-hanzi-clip-3)" d="M 436 763 L 473 734 L 491 707" fill="none" id="make-me-a-hanzi-animation-3" stroke-dasharray="207 414" stroke-linecap="round"></path>
    
      <clipPath id="make-me-a-hanzi-clip-4">
        <path d="M 705 792 Q 698 777 689 767 Q 679 752 667 736 Q 657 723 672 725 Q 673 725 738 753 Q 754 766 775 774 Q 793 781 785 796 Q 775 811 753 824 Q 734 836 723 834 Q 713 833 715 822 Q 718 806 705 792 Z"></path>
      </clipPath>
      <path clip-path="url(#make-me-a-hanzi-clip-4)" d="M 728 822 L 741 791 L 671 731" fill="none" id="make-me-a-hanzi-animation-4" stroke-dasharray="254 508" stroke-linecap="round"></path>
    
      <clipPath id="make-me-a-hanzi-clip-5">
        <path d="M 400 638 Q 388 665 372 676 Q 368 680 363 677 Q 357 674 356 663 Q 359 630 329 577 Q 319 561 319 543 Q 320 524 329 510 Q 336 498 342 506 Q 348 506 357 521 Q 361 527 371 551 Q 387 591 396 606 Q 400 613 403 620 C 406 626 406 626 400 638 Z"></path>
      </clipPath>
      <path clip-path="url(#make-me-a-hanzi-clip-5)" d="M 366 667 L 374 651 L 376 623 L 343 547 L 339 519" fill="none" id="make-me-a-hanzi-animation-5" stroke-dasharray="285 570" stroke-linecap="round"></path>
    
      <clipPath id="make-me-a-hanzi-clip-6">
        <path d="M 403 620 Q 422 607 464 614 Q 590 653 776 667 Q 788 667 795 666 Q 805 659 802 652 Q 803 646 799 640 Q 775 583 779 580 Q 786 577 802 587 Q 848 615 886 622 Q 916 629 916 637 Q 913 646 853 691 Q 832 709 757 693 Q 688 686 602 670 L 567 664 Q 533 660 496 654 Q 453 645 407 640 Q 403 640 400 638 C 372 633 375 631 403 620 Z"></path>
      </clipPath>
      <path clip-path="url(#make-me-a-hanzi-clip-6)" d="M 405 634 L 423 627 L 452 628 L 629 664 L 805 683 L 832 666 L 840 647 L 784 583" fill="none" id="make-me-a-hanzi-animation-6" stroke-dasharray="672 1344" stroke-linecap="round"></path>
    
      <clipPath id="make-me-a-hanzi-clip-7">
        <path d="M 465 586 Q 456 587 454 584 Q 450 580 457 568 Q 475 540 490 491 Q 494 476 503 468 Q 518 452 521 464 Q 522 468 522 476 L 518 504 Q 508 547 507 561 C 505 584 495 584 465 586 Z"></path>
      </clipPath>
      <path clip-path="url(#make-me-a-hanzi-clip-7)" d="M 460 580 L 491 543 L 512 468" fill="none" id="make-me-a-hanzi-animation-7" stroke-dasharray="254 508" stroke-linecap="round"></path>
    
      <clipPath id="make-me-a-hanzi-clip-8">
        <path d="M 678 515 Q 694 549 708 560 Q 727 579 709 593 Q 694 603 672 620 Q 657 630 641 621 Q 575 588 465 586 C 435 585 478 555 507 561 Q 520 564 610 581 Q 638 587 644 576 Q 648 572 643 555 Q 640 542 636 528 C 628 499 665 488 678 515 Z"></path>
      </clipPath>
      <path clip-path="url(#make-me-a-hanzi-clip-8)" d="M 483 580 L 538 578 L 629 599 L 657 598 L 675 580 L 675 565 L 663 543 L 645 533" fill="none" id="make-me-a-hanzi-animation-8" stroke-dasharray="391 782" stroke-linecap="round"></path>
    
      <clipPath id="make-me-a-hanzi-clip-9">
        <path d="M 522 476 Q 523 476 529 477 Q 577 487 678 496 Q 687 497 688 504 Q 688 508 678 515 L 636 528 Q 632 529 627 527 Q 566 512 518 504 C 488 499 492 472 522 476 Z"></path>
      </clipPath>
      <path clip-path="url(#make-me-a-hanzi-clip-9)" d="M 525 484 L 542 494 L 622 509 L 679 506" fill="none" id="make-me-a-hanzi-animation-9" stroke-dasharray="286 572" stroke-linecap="round"></path>
    
      <clipPath id="make-me-a-hanzi-clip-10">
        <path d="M 427 411 Q 418 415 387 419 Q 377 420 374 416 Q 370 410 378 398 Q 405 350 426 271 Q 430 247 446 233 Q 462 215 465 229 Q 466 233 467 240 L 466 262 Q 465 272 462 282 Q 443 355 437 382 C 431 410 431 410 427 411 Z"></path>
      </clipPath>
      <path clip-path="url(#make-me-a-hanzi-clip-10)" d="M 382 411 L 408 391 L 416 373 L 456 232" fill="none" id="make-me-a-hanzi-animation-10" stroke-dasharray="327 654" stroke-linecap="round"></path>
    
      <clipPath id="make-me-a-hanzi-clip-11">
        <path d="M 715 274 Q 715 273 716 270 Q 720 257 731 256 Q 743 257 750 270 Q 759 279 779 328 Q 795 371 826 396 Q 842 409 830 422 Q 815 438 773 462 Q 761 469 686 454 Q 659 454 526 428 Q 468 418 427 411 C 397 406 407 379 437 382 Q 444 381 452 383 Q 488 395 547 405 L 584 411 Q 725 439 746 425 Q 753 421 747 398 Q 729 317 717 296 C 711 282 711 282 715 274 Z"></path>
      </clipPath>
      <path clip-path="url(#make-me-a-hanzi-clip-11)" d="M 434 405 L 453 399 L 700 445 L 763 441 L 780 423 L 785 407 L 732 270" fill="none" id="make-me-a-hanzi-animation-11" stroke-dasharray="651 1302" stroke-linecap="round"></path>
    
      <clipPath id="make-me-a-hanzi-clip-12">
        <path d="M 475 345 Q 506 302 519 299 Q 528 298 533 309 Q 534 318 530 331 Q 515 356 480 362 Q 474 363 473 356 Q 472 352 475 345 Z"></path>
      </clipPath>
      <path clip-path="url(#make-me-a-hanzi-clip-12)" d="M 482 352 L 505 334 L 520 311" fill="none" id="make-me-a-hanzi-animation-12" stroke-dasharray="185 370" stroke-linecap="round"></path>
    
      <clipPath id="make-me-a-hanzi-clip-13">
        <path d="M 654 373 Q 644 355 623 327 Q 620 323 623 320 Q 627 319 631 322 Q 673 352 693 363 Q 703 366 700 371 Q 697 380 687 389 Q 677 399 664 399 Q 657 399 657 388 Q 658 381 654 373 Z"></path>
      </clipPath>
      <path clip-path="url(#make-me-a-hanzi-clip-13)" d="M 691 372 L 674 375 L 626 324" fill="none" id="make-me-a-hanzi-animation-13" stroke-dasharray="215 430" stroke-linecap="round"></path>
    
      <clipPath id="make-me-a-hanzi-clip-14">
        <path d="M 598 258 Q 662 268 715 274 C 745 277 742 280 717 296 Q 704 309 656 298 Q 626 294 599 286 L 559 279 Q 510 270 466 262 C 436 257 437 237 467 240 Q 471 240 559 251 L 598 258 Z"></path>
      </clipPath>
      <path clip-path="url(#make-me-a-hanzi-clip-14)" d="M 468 246 L 490 256 L 544 259 L 669 286 L 700 288 L 707 280" fill="none" id="make-me-a-hanzi-animation-14" stroke-dasharray="376 752" stroke-linecap="round"></path>
    
      <clipPath id="make-me-a-hanzi-clip-15">
        <path d="M 594 141 Q 594 163 595 182 L 596 216 Q 596 238 598 258 L 599 286 Q 600 320 602 350 Q 605 392 597 401 Q 590 407 584 411 C 560 429 531 431 547 405 Q 551 399 554 393 Q 560 372 559 279 L 559 251 Q 559 232 559 206 L 559 176 Q 559 157 559 135 C 559 105 594 111 594 141 Z"></path>
      </clipPath>
      <path clip-path="url(#make-me-a-hanzi-clip-15)" d="M 554 401 L 579 385 L 581 360 L 577 163 L 564 142" fill="none" id="make-me-a-hanzi-animation-15" stroke-dasharray="405 810" stroke-linecap="round"></path>
    
      <clipPath id="make-me-a-hanzi-clip-16">
        <path d="M 595 182 Q 640 191 680 196 Q 699 199 693 210 Q 684 222 663 226 Q 638 229 596 216 L 559 206 Q 513 196 474 186 Q 461 183 477 171 Q 486 165 559 176 L 595 182 Z"></path>
      </clipPath>
      <path clip-path="url(#make-me-a-hanzi-clip-16)" d="M 482 180 L 546 186 L 636 208 L 684 206" fill="none" id="make-me-a-hanzi-animation-16" stroke-dasharray="333 666" stroke-linecap="round"></path>
    
      <clipPath id="make-me-a-hanzi-clip-17">
        <path d="M 559 135 Q 498 125 428 112 Q 413 111 425 98 Q 435 89 448 86 Q 464 82 475 86 Q 595 120 750 121 Q 763 122 767 128 Q 771 137 759 146 Q 717 173 666 158 Q 635 151 594 141 L 559 135 Z"></path>
      </clipPath>
      <path clip-path="url(#make-me-a-hanzi-clip-17)" d="M 436 103 L 466 101 L 679 140 L 718 142 L 759 133" fill="none" id="make-me-a-hanzi-animation-17" stroke-dasharray="456 912" stroke-linecap="round"></path>
    
      <clipPath id="make-me-a-hanzi-clip-18">
        <path d="M 358 78 Q 342 38 320 1 Q 305 -32 321 -57 Q 328 -73 347 -61 Q 386 -24 384 29 Q 387 59 379 80 Q 375 87 369 87 Q 362 86 358 78 Z"></path>
      </clipPath>
      <path clip-path="url(#make-me-a-hanzi-clip-18)" d="M 369 76 L 357 11 L 335 -51" fill="none" id="make-me-a-hanzi-animation-18" stroke-dasharray="260 520" stroke-linecap="round"></path>
    
      <clipPath id="make-me-a-hanzi-clip-19">
        <path d="M 461 39 Q 488 -22 507 -30 Q 517 -34 528 -20 Q 532 -10 529 9 Q 525 24 508 35 Q 483 54 471 60 Q 464 64 460 54 Q 457 48 461 39 Z"></path>
      </clipPath>
      <path clip-path="url(#make-me-a-hanzi-clip-19)" d="M 470 48 L 506 5 L 511 -16" fill="none" id="make-me-a-hanzi-animation-19" stroke-dasharray="206 412" stroke-linecap="round"></path>
    
      <clipPath id="make-me-a-hanzi-clip-20">
        <path d="M 600 55 Q 636 -5 655 -8 Q 667 -11 674 4 Q 677 14 671 34 Q 661 58 607 78 Q 600 81 597 71 Q 596 64 600 55 Z"></path>
      </clipPath>
      <path clip-path="url(#make-me-a-hanzi-clip-20)" d="M 607 68 L 648 27 L 658 8" fill="none" id="make-me-a-hanzi-animation-20" stroke-dasharray="207 414" stroke-linecap="round"></path>
    
      <clipPath id="make-me-a-hanzi-clip-21">
        <path d="M 751 58 Q 794 18 845 -40 Q 858 -56 871 -61 Q 878 -62 885 -54 Q 895 -44 885 -6 Q 875 42 752 83 Q 745 87 743 78 Q 742 66 751 58 Z"></path>
      </clipPath>
      <path clip-path="url(#make-me-a-hanzi-clip-21)" d="M 751 74 L 840 9 L 857 -10 L 873 -47" fill="none" id="make-me-a-hanzi-animation-21" stroke-dasharray="304 608" stroke-linecap="round"></path>
    
  </g>
</svg>