<svg version="1.1" viewBox="0 0 1024 1024" xmlns="http://www.w3.org/2000/svg">
  <g stroke="lightgray" stroke-dasharray="1,1" stroke-width="1" transform="scale(4, 4)">
    <line x1="0" y1="0" x2="256" y2="256"></line>
    <line x1="256" y1="0" x2="0" y2="256"></line>
    <line x1="128" y1="0" x2="128" y2="256"></line>
    <line x1="0" y1="128" x2="256" y2="128"></line>
  </g>
  <g transform="scale(1, -1) translate(0, -900)">
    <style type="text/css">
      
        @keyframes keyframes0 {
          from {
            stroke: blue;
            stroke-dashoffset: 388;
            stroke-width: 128;
          }
          56% {
            animation-timing-function: step-end;
            stroke: blue;
            stroke-dashoffset: 0;
            stroke-width: 128;
          }
          to {
            stroke: black;
            stroke-width: 1024;
          }
        }
        #make-me-a-hanzi-animation-0 {
          animation: keyframes0 0.5657552083333334s both;
          animation-delay: 0s;
          animation-timing-function: linear;
        }
      
        @keyframes keyframes1 {
          from {
            stroke: blue;
            stroke-dashoffset: 466;
            stroke-width: 128;
          }
          60% {
            animation-timing-function: step-end;
            stroke: blue;
            stroke-dashoffset: 0;
            stroke-width: 128;
          }
          to {
            stroke: black;
            stroke-width: 1024;
          }
        }
        #make-me-a-hanzi-animation-1 {
          animation: keyframes1 0.6292317708333334s both;
          animation-delay: 0.5657552083333334s;
          animation-timing-function: linear;
        }
      
        @keyframes keyframes2 {
          from {
            stroke: blue;
            stroke-dashoffset: 509;
            stroke-width: 128;
          }
          62% {
            animation-timing-function: step-end;
            stroke: blue;
            stroke-dashoffset: 0;
            stroke-width: 128;
          }
          to {
            stroke: black;
            stroke-width: 1024;
          }
        }
        #make-me-a-hanzi-animation-2 {
          animation: keyframes2 0.6642252604166666s both;
          animation-delay: 1.1949869791666667s;
          animation-timing-function: linear;
        }
      
        @keyframes keyframes3 {
          from {
            stroke: blue;
            stroke-dashoffset: 901;
            stroke-width: 128;
          }
          75% {
            animation-timing-function: step-end;
            stroke: blue;
            stroke-dashoffset: 0;
            stroke-width: 128;
          }
          to {
            stroke: black;
            stroke-width: 1024;
          }
        }
        #make-me-a-hanzi-animation-3 {
          animation: keyframes3 0.9832356770833334s both;
          animation-delay: 1.8592122395833335s;
          animation-timing-function: linear;
        }
      
        @keyframes keyframes4 {
          from {
            stroke: blue;
            stroke-dashoffset: 478;
            stroke-width: 128;
          }
          61% {
            animation-timing-function: step-end;
            stroke: blue;
            stroke-dashoffset: 0;
            stroke-width: 128;
          }
          to {
            stroke: black;
            stroke-width: 1024;
          }
        }
        #make-me-a-hanzi-animation-4 {
          animation: keyframes4 0.6389973958333334s both;
          animation-delay: 2.842447916666667s;
          animation-timing-function: linear;
        }
      
        @keyframes keyframes5 {
          from {
            stroke: blue;
            stroke-dashoffset: 429;
            stroke-width: 128;
          }
          58% {
            animation-timing-function: step-end;
            stroke: blue;
            stroke-dashoffset: 0;
            stroke-width: 128;
          }
          to {
            stroke: black;
            stroke-width: 1024;
          }
        }
        #make-me-a-hanzi-animation-5 {
          animation: keyframes5 0.59912109375s both;
          animation-delay: 3.4814453125000004s;
          animation-timing-function: linear;
        }
      
        @keyframes keyframes6 {
          from {
            stroke: blue;
            stroke-dashoffset: 522;
            stroke-width: 128;
          }
          63% {
            animation-timing-function: step-end;
            stroke: blue;
            stroke-dashoffset: 0;
            stroke-width: 128;
          }
          to {
            stroke: black;
            stroke-width: 1024;
          }
        }
        #make-me-a-hanzi-animation-6 {
          animation: keyframes6 0.6748046875s both;
          animation-delay: 4.08056640625s;
          animation-timing-function: linear;
        }
      
        @keyframes keyframes7 {
          from {
            stroke: blue;
            stroke-dashoffset: 1089;
            stroke-width: 128;
          }
          78% {
            animation-timing-function: step-end;
            stroke: blue;
            stroke-dashoffset: 0;
            stroke-width: 128;
          }
          to {
            stroke: black;
            stroke-width: 1024;
          }
        }
        #make-me-a-hanzi-animation-7 {
          animation: keyframes7 1.13623046875s both;
          animation-delay: 4.75537109375s;
          animation-timing-function: linear;
        }
      
        @keyframes keyframes8 {
          from {
            stroke: blue;
            stroke-dashoffset: 511;
            stroke-width: 128;
          }
          62% {
            animation-timing-function: step-end;
            stroke: blue;
            stroke-dashoffset: 0;
            stroke-width: 128;
          }
          to {
            stroke: black;
            stroke-width: 1024;
          }
        }
        #make-me-a-hanzi-animation-8 {
          animation: keyframes8 0.6658528645833334s both;
          animation-delay: 5.8916015625s;
          animation-timing-function: linear;
        }
      
        @keyframes keyframes9 {
          from {
            stroke: blue;
            stroke-dashoffset: 736;
            stroke-width: 128;
          }
          71% {
            animation-timing-function: step-end;
            stroke: blue;
            stroke-dashoffset: 0;
            stroke-width: 128;
          }
          to {
            stroke: black;
            stroke-width: 1024;
          }
        }
        #make-me-a-hanzi-animation-9 {
          animation: keyframes9 0.8489583333333334s both;
          animation-delay: 6.557454427083333s;
          animation-timing-function: linear;
        }
      
        @keyframes keyframes10 {
          from {
            stroke: blue;
            stroke-dashoffset: 571;
            stroke-width: 128;
          }
          65% {
            animation-timing-function: step-end;
            stroke: blue;
            stroke-dashoffset: 0;
            stroke-width: 128;
          }
          to {
            stroke: black;
            stroke-width: 1024;
          }
        }
        #make-me-a-hanzi-animation-10 {
          animation: keyframes10 0.7146809895833334s both;
          animation-delay: 7.406412760416666s;
          animation-timing-function: linear;
        }
      
    </style>
    
      <path d="M 361 779 Q 388 757 416 730 Q 429 720 443 720 Q 453 720 457 733 Q 461 746 452 773 Q 443 801 356 822 Q 341 826 336 823 Q 332 819 333 807 Q 337 797 361 779 Z" fill="lightgray"></path>
    
      <path d="M 625 825 Q 604 792 535 722 Q 525 706 542 708 Q 599 738 664 779 Q 683 792 707 802 Q 729 811 719 828 Q 707 846 683 861 Q 661 876 648 874 Q 635 873 638 860 Q 641 842 625 825 Z" fill="lightgray"></path>
    
      <path d="M 310 636 Q 298 640 271 644 Q 258 647 255 641 Q 248 634 258 618 Q 292 557 315 454 Q 319 423 338 403 Q 359 381 363 398 Q 366 408 366 421 L 363 447 Q 362 456 360 465 Q 338 568 331 602 Q 331 603 332 603 C 330 630 330 630 310 636 Z" fill="lightgray"></path>
    
      <path d="M 629 448 Q 647 418 664 409 Q 676 399 693 422 Q 706 443 739 556 Q 749 589 775 615 Q 790 628 778 643 Q 762 662 718 691 Q 700 700 621 684 Q 596 683 433 656 Q 364 644 310 636 C 280 632 303 595 332 603 Q 390 619 474 631 L 511 637 Q 653 664 675 643 Q 685 630 683 616 Q 661 507 652 489 Q 648 480 638 476 C 621 459 621 459 629 448 Z" fill="lightgray"></path>
    
      <path d="M 530 532 Q 573 539 611 543 Q 632 546 625 557 Q 615 570 593 575 Q 572 579 536 570 Q 533 570 533 569 L 483 557 Q 434 548 395 539 Q 380 536 398 522 Q 408 515 430 518 Q 457 522 484 526 L 530 532 Z" fill="lightgray"></path>
    
      <path d="M 524 469 Q 527 503 530 532 L 533 569 Q 533 581 536 591 Q 543 613 511 637 C 487 656 467 660 474 631 Q 480 610 483 557 L 484 526 Q 484 501 485 464 C 486 434 521 439 524 469 Z" fill="lightgray"></path>
    
      <path d="M 366 421 Q 373 421 385 422 Q 523 440 629 448 C 659 450 666 466 638 476 Q 634 477 630 479 Q 612 483 524 469 L 485 464 Q 421 457 363 447 C 333 442 336 420 366 421 Z" fill="lightgray"></path>
    
      <path d="M 509 303 Q 765 325 895 311 Q 937 311 940 315 Q 947 328 935 340 Q 907 368 863 388 Q 848 394 823 386 Q 784 379 567 350 Q 146 314 128 312 Q 121 313 114 312 Q 101 312 99 301 Q 98 289 117 274 Q 133 261 164 249 Q 174 245 193 253 Q 211 259 287 271 Q 386 293 509 303 Z" fill="lightgray"></path>
    
      <path d="M 363 210 Q 351 217 311 225 Q 298 228 295 223 Q 288 216 297 199 Q 328 136 346 32 Q 349 1 367 -20 Q 386 -42 391 -26 Q 397 -10 395 17 L 390 53 Q 374 144 370 177 C 366 207 366 209 363 210 Z" fill="lightgray"></path>
    
      <path d="M 676 82 Q 703 161 738 188 Q 756 207 742 225 Q 673 279 624 263 Q 528 227 363 210 C 333 207 340 176 370 177 Q 385 176 406 182 Q 509 198 607 216 Q 632 222 643 211 Q 653 201 649 182 Q 639 127 625 83 C 616 54 666 54 676 82 Z" fill="lightgray"></path>
    
      <path d="M 395 17 Q 410 13 425 15 Q 513 30 700 34 Q 712 35 714 45 Q 715 54 682 79 Q 679 80 676 82 C 663 90 655 88 625 83 Q 493 59 390 53 C 360 51 366 23 395 17 Z" fill="lightgray"></path>
    
    
      <clipPath id="make-me-a-hanzi-clip-0">
        <path d="M 361 779 Q 388 757 416 730 Q 429 720 443 720 Q 453 720 457 733 Q 461 746 452 773 Q 443 801 356 822 Q 341 826 336 823 Q 332 819 333 807 Q 337 797 361 779 Z"></path>
      </clipPath>
      <path clip-path="url(#make-me-a-hanzi-clip-0)" d="M 341 817 L 424 763 L 442 735" fill="none" id="make-me-a-hanzi-animation-0" stroke-dasharray="260 520" stroke-linecap="round"></path>
    
      <clipPath id="make-me-a-hanzi-clip-1">
        <path d="M 625 825 Q 604 792 535 722 Q 525 706 542 708 Q 599 738 664 779 Q 683 792 707 802 Q 729 811 719 828 Q 707 846 683 861 Q 661 876 648 874 Q 635 873 638 860 Q 641 842 625 825 Z"></path>
      </clipPath>
      <path clip-path="url(#make-me-a-hanzi-clip-1)" d="M 647 864 L 664 844 L 669 825 L 545 718" fill="none" id="make-me-a-hanzi-animation-1" stroke-dasharray="338 676" stroke-linecap="round"></path>
    
      <clipPath id="make-me-a-hanzi-clip-2">
        <path d="M 310 636 Q 298 640 271 644 Q 258 647 255 641 Q 248 634 258 618 Q 292 557 315 454 Q 319 423 338 403 Q 359 381 363 398 Q 366 408 366 421 L 363 447 Q 362 456 360 465 Q 338 568 331 602 Q 331 603 332 603 C 330 630 330 630 310 636 Z"></path>
      </clipPath>
      <path clip-path="url(#make-me-a-hanzi-clip-2)" d="M 264 633 L 293 612 L 303 592 L 351 403" fill="none" id="make-me-a-hanzi-animation-2" stroke-dasharray="381 762" stroke-linecap="round"></path>
    
      <clipPath id="make-me-a-hanzi-clip-3">
        <path d="M 629 448 Q 647 418 664 409 Q 676 399 693 422 Q 706 443 739 556 Q 749 589 775 615 Q 790 628 778 643 Q 762 662 718 691 Q 700 700 621 684 Q 596 683 433 656 Q 364 644 310 636 C 280 632 303 595 332 603 Q 390 619 474 631 L 511 637 Q 653 664 675 643 Q 685 630 683 616 Q 661 507 652 489 Q 648 480 638 476 C 621 459 621 459 629 448 Z"></path>
      </clipPath>
      <path clip-path="url(#make-me-a-hanzi-clip-3)" d="M 317 633 L 340 623 L 497 653 L 655 672 L 704 660 L 727 629 L 682 476 L 669 454 L 673 427" fill="none" id="make-me-a-hanzi-animation-3" stroke-dasharray="773 1546" stroke-linecap="round"></path>
    
      <clipPath id="make-me-a-hanzi-clip-4">
        <path d="M 530 532 Q 573 539 611 543 Q 632 546 625 557 Q 615 570 593 575 Q 572 579 536 570 Q 533 570 533 569 L 483 557 Q 434 548 395 539 Q 380 536 398 522 Q 408 515 430 518 Q 457 522 484 526 L 530 532 Z"></path>
      </clipPath>
      <path clip-path="url(#make-me-a-hanzi-clip-4)" d="M 396 530 L 576 558 L 616 553" fill="none" id="make-me-a-hanzi-animation-4" stroke-dasharray="350 700" stroke-linecap="round"></path>
    
      <clipPath id="make-me-a-hanzi-clip-5">
        <path d="M 524 469 Q 527 503 530 532 L 533 569 Q 533 581 536 591 Q 543 613 511 637 C 487 656 467 660 474 631 Q 480 610 483 557 L 484 526 Q 484 501 485 464 C 486 434 521 439 524 469 Z"></path>
      </clipPath>
      <path clip-path="url(#make-me-a-hanzi-clip-5)" d="M 481 628 L 504 610 L 508 599 L 505 487 L 490 473" fill="none" id="make-me-a-hanzi-animation-5" stroke-dasharray="301 602" stroke-linecap="round"></path>
    
      <clipPath id="make-me-a-hanzi-clip-6">
        <path d="M 366 421 Q 373 421 385 422 Q 523 440 629 448 C 659 450 666 466 638 476 Q 634 477 630 479 Q 612 483 524 469 L 485 464 Q 421 457 363 447 C 333 442 336 420 366 421 Z"></path>
      </clipPath>
      <path clip-path="url(#make-me-a-hanzi-clip-6)" d="M 370 428 L 402 440 L 617 463 L 631 470" fill="none" id="make-me-a-hanzi-animation-6" stroke-dasharray="394 788" stroke-linecap="round"></path>
    
      <clipPath id="make-me-a-hanzi-clip-7">
        <path d="M 509 303 Q 765 325 895 311 Q 937 311 940 315 Q 947 328 935 340 Q 907 368 863 388 Q 848 394 823 386 Q 784 379 567 350 Q 146 314 128 312 Q 121 313 114 312 Q 101 312 99 301 Q 98 289 117 274 Q 133 261 164 249 Q 174 245 193 253 Q 211 259 287 271 Q 386 293 509 303 Z"></path>
      </clipPath>
      <path clip-path="url(#make-me-a-hanzi-clip-7)" d="M 112 299 L 175 282 L 444 320 L 839 352 L 868 348 L 934 323" fill="none" id="make-me-a-hanzi-animation-7" stroke-dasharray="961 1922" stroke-linecap="round"></path>
    
      <clipPath id="make-me-a-hanzi-clip-8">
        <path d="M 363 210 Q 351 217 311 225 Q 298 228 295 223 Q 288 216 297 199 Q 328 136 346 32 Q 349 1 367 -20 Q 386 -42 391 -26 Q 397 -10 395 17 L 390 53 Q 374 144 370 177 C 366 207 366 209 363 210 Z"></path>
      </clipPath>
      <path clip-path="url(#make-me-a-hanzi-clip-8)" d="M 303 215 L 337 187 L 380 -20" fill="none" id="make-me-a-hanzi-animation-8" stroke-dasharray="383 766" stroke-linecap="round"></path>
    
      <clipPath id="make-me-a-hanzi-clip-9">
        <path d="M 676 82 Q 703 161 738 188 Q 756 207 742 225 Q 673 279 624 263 Q 528 227 363 210 C 333 207 340 176 370 177 Q 385 176 406 182 Q 509 198 607 216 Q 632 222 643 211 Q 653 201 649 182 Q 639 127 625 83 C 616 54 666 54 676 82 Z"></path>
      </clipPath>
      <path clip-path="url(#make-me-a-hanzi-clip-9)" d="M 373 206 L 384 194 L 626 240 L 645 241 L 663 234 L 693 205 L 657 106 L 631 88" fill="none" id="make-me-a-hanzi-animation-9" stroke-dasharray="608 1216" stroke-linecap="round"></path>
    
      <clipPath id="make-me-a-hanzi-clip-10">
        <path d="M 395 17 Q 410 13 425 15 Q 513 30 700 34 Q 712 35 714 45 Q 715 54 682 79 Q 679 80 676 82 C 663 90 655 88 625 83 Q 493 59 390 53 C 360 51 366 23 395 17 Z"></path>
      </clipPath>
      <path clip-path="url(#make-me-a-hanzi-clip-10)" d="M 397 48 L 417 34 L 621 58 L 679 56 L 704 46" fill="none" id="make-me-a-hanzi-animation-10" stroke-dasharray="443 886" stroke-linecap="round"></path>
    
  </g>
</svg>