<svg version="1.1" viewBox="0 0 1024 1024" xmlns="http://www.w3.org/2000/svg">
  <g stroke="lightgray" stroke-dasharray="1,1" stroke-width="1" transform="scale(4, 4)">
    <line x1="0" y1="0" x2="256" y2="256"></line>
    <line x1="256" y1="0" x2="0" y2="256"></line>
    <line x1="128" y1="0" x2="128" y2="256"></line>
    <line x1="0" y1="128" x2="256" y2="128"></line>
  </g>
  <g transform="scale(1, -1) translate(0, -900)">
    <style type="text/css">
      
        @keyframes keyframes0 {
          from {
            stroke: blue;
            stroke-dashoffset: 430;
            stroke-width: 128;
          }
          58% {
            animation-timing-function: step-end;
            stroke: blue;
            stroke-dashoffset: 0;
            stroke-width: 128;
          }
          to {
            stroke: black;
            stroke-width: 1024;
          }
        }
        #make-me-a-hanzi-animation-0 {
          animation: keyframes0 0.5999348958333334s both;
          animation-delay: 0s;
          animation-timing-function: linear;
        }
      
        @keyframes keyframes1 {
          from {
            stroke: blue;
            stroke-dashoffset: 865;
            stroke-width: 128;
          }
          74% {
            animation-timing-function: step-end;
            stroke: blue;
            stroke-dashoffset: 0;
            stroke-width: 128;
          }
          to {
            stroke: black;
            stroke-width: 1024;
          }
        }
        #make-me-a-hanzi-animation-1 {
          animation: keyframes1 0.9539388020833334s both;
          animation-delay: 0.5999348958333334s;
          animation-timing-function: linear;
        }
      
        @keyframes keyframes2 {
          from {
            stroke: blue;
            stroke-dashoffset: 388;
            stroke-width: 128;
          }
          56% {
            animation-timing-function: step-end;
            stroke: blue;
            stroke-dashoffset: 0;
            stroke-width: 128;
          }
          to {
            stroke: black;
            stroke-width: 1024;
          }
        }
        #make-me-a-hanzi-animation-2 {
          animation: keyframes2 0.5657552083333334s both;
          animation-delay: 1.5538736979166667s;
          animation-timing-function: linear;
        }
      
        @keyframes keyframes3 {
          from {
            stroke: blue;
            stroke-dashoffset: 449;
            stroke-width: 128;
          }
          59% {
            animation-timing-function: step-end;
            stroke: blue;
            stroke-dashoffset: 0;
            stroke-width: 128;
          }
          to {
            stroke: black;
            stroke-width: 1024;
          }
        }
        #make-me-a-hanzi-animation-3 {
          animation: keyframes3 0.6153971354166666s both;
          animation-delay: 2.11962890625s;
          animation-timing-function: linear;
        }
      
        @keyframes keyframes4 {
          from {
            stroke: blue;
            stroke-dashoffset: 402;
            stroke-width: 128;
          }
          57% {
            animation-timing-function: step-end;
            stroke: blue;
            stroke-dashoffset: 0;
            stroke-width: 128;
          }
          to {
            stroke: black;
            stroke-width: 1024;
          }
        }
        #make-me-a-hanzi-animation-4 {
          animation: keyframes4 0.5771484375s both;
          animation-delay: 2.7350260416666665s;
          animation-timing-function: linear;
        }
      
        @keyframes keyframes5 {
          from {
            stroke: blue;
            stroke-dashoffset: 429;
            stroke-width: 128;
          }
          58% {
            animation-timing-function: step-end;
            stroke: blue;
            stroke-dashoffset: 0;
            stroke-width: 128;
          }
          to {
            stroke: black;
            stroke-width: 1024;
          }
        }
        #make-me-a-hanzi-animation-5 {
          animation: keyframes5 0.59912109375s both;
          animation-delay: 3.3121744791666665s;
          animation-timing-function: linear;
        }
      
        @keyframes keyframes6 {
          from {
            stroke: blue;
            stroke-dashoffset: 425;
            stroke-width: 128;
          }
          58% {
            animation-timing-function: step-end;
            stroke: blue;
            stroke-dashoffset: 0;
            stroke-width: 128;
          }
          to {
            stroke: black;
            stroke-width: 1024;
          }
        }
        #make-me-a-hanzi-animation-6 {
          animation: keyframes6 0.5958658854166666s both;
          animation-delay: 3.9112955729166665s;
          animation-timing-function: linear;
        }
      
        @keyframes keyframes7 {
          from {
            stroke: blue;
            stroke-dashoffset: 709;
            stroke-width: 128;
          }
          70% {
            animation-timing-function: step-end;
            stroke: blue;
            stroke-dashoffset: 0;
            stroke-width: 128;
          }
          to {
            stroke: black;
            stroke-width: 1024;
          }
        }
        #make-me-a-hanzi-animation-7 {
          animation: keyframes7 0.8269856770833334s both;
          animation-delay: 4.507161458333333s;
          animation-timing-function: linear;
        }
      
        @keyframes keyframes8 {
          from {
            stroke: blue;
            stroke-dashoffset: 444;
            stroke-width: 128;
          }
          59% {
            animation-timing-function: step-end;
            stroke: blue;
            stroke-dashoffset: 0;
            stroke-width: 128;
          }
          to {
            stroke: black;
            stroke-width: 1024;
          }
        }
        #make-me-a-hanzi-animation-8 {
          animation: keyframes8 0.611328125s both;
          animation-delay: 5.334147135416666s;
          animation-timing-function: linear;
        }
      
        @keyframes keyframes9 {
          from {
            stroke: blue;
            stroke-dashoffset: 462;
            stroke-width: 128;
          }
          60% {
            animation-timing-function: step-end;
            stroke: blue;
            stroke-dashoffset: 0;
            stroke-width: 128;
          }
          to {
            stroke: black;
            stroke-width: 1024;
          }
        }
        #make-me-a-hanzi-animation-9 {
          animation: keyframes9 0.6259765625s both;
          animation-delay: 5.945475260416666s;
          animation-timing-function: linear;
        }
      
        @keyframes keyframes10 {
          from {
            stroke: blue;
            stroke-dashoffset: 933;
            stroke-width: 128;
          }
          75% {
            animation-timing-function: step-end;
            stroke: blue;
            stroke-dashoffset: 0;
            stroke-width: 128;
          }
          to {
            stroke: black;
            stroke-width: 1024;
          }
        }
        #make-me-a-hanzi-animation-10 {
          animation: keyframes10 1.00927734375s both;
          animation-delay: 6.571451822916666s;
          animation-timing-function: linear;
        }
      
        @keyframes keyframes11 {
          from {
            stroke: blue;
            stroke-dashoffset: 738;
            stroke-width: 128;
          }
          71% {
            animation-timing-function: step-end;
            stroke: blue;
            stroke-dashoffset: 0;
            stroke-width: 128;
          }
          to {
            stroke: black;
            stroke-width: 1024;
          }
        }
        #make-me-a-hanzi-animation-11 {
          animation: keyframes11 0.8505859375s both;
          animation-delay: 7.580729166666666s;
          animation-timing-function: linear;
        }
      
        @keyframes keyframes12 {
          from {
            stroke: blue;
            stroke-dashoffset: 651;
            stroke-width: 128;
          }
          68% {
            animation-timing-function: step-end;
            stroke: blue;
            stroke-dashoffset: 0;
            stroke-width: 128;
          }
          to {
            stroke: black;
            stroke-width: 1024;
          }
        }
        #make-me-a-hanzi-animation-12 {
          animation: keyframes12 0.77978515625s both;
          animation-delay: 8.431315104166666s;
          animation-timing-function: linear;
        }
      
        @keyframes keyframes13 {
          from {
            stroke: blue;
            stroke-dashoffset: 443;
            stroke-width: 128;
          }
          59% {
            animation-timing-function: step-end;
            stroke: blue;
            stroke-dashoffset: 0;
            stroke-width: 128;
          }
          to {
            stroke: black;
            stroke-width: 1024;
          }
        }
        #make-me-a-hanzi-animation-13 {
          animation: keyframes13 0.6105143229166666s both;
          animation-delay: 9.211100260416666s;
          animation-timing-function: linear;
        }
      
        @keyframes keyframes14 {
          from {
            stroke: blue;
            stroke-dashoffset: 833;
            stroke-width: 128;
          }
          73% {
            animation-timing-function: step-end;
            stroke: blue;
            stroke-dashoffset: 0;
            stroke-width: 128;
          }
          to {
            stroke: black;
            stroke-width: 1024;
          }
        }
        #make-me-a-hanzi-animation-14 {
          animation: keyframes14 0.9278971354166666s both;
          animation-delay: 9.821614583333332s;
          animation-timing-function: linear;
        }
      
        @keyframes keyframes15 {
          from {
            stroke: blue;
            stroke-dashoffset: 670;
            stroke-width: 128;
          }
          69% {
            animation-timing-function: step-end;
            stroke: blue;
            stroke-dashoffset: 0;
            stroke-width: 128;
          }
          to {
            stroke: black;
            stroke-width: 1024;
          }
        }
        #make-me-a-hanzi-animation-15 {
          animation: keyframes15 0.7952473958333334s both;
          animation-delay: 10.749511718749998s;
          animation-timing-function: linear;
        }
      
    </style>
    
      <path d="M 280 793 Q 270 815 260 823 Q 244 836 241 813 Q 241 771 191 720 Q 173 699 197 650 Q 213 628 227 651 Q 243 672 254 705 Q 267 742 278 765 C 286 781 286 781 280 793 Z" fill="lightgray"></path>
    
      <path d="M 278 765 Q 303 750 330 756 Q 469 799 696 814 Q 709 814 718 813 Q 733 809 731 800 Q 731 797 699 737 Q 689 724 695 720 Q 702 716 719 726 Q 771 754 814 760 Q 848 764 848 775 Q 847 785 783 839 Q 759 860 695 849 Q 671 846 381 806 Q 330 797 280 793 C 250 790 251 777 278 765 Z" fill="lightgray"></path>
    
      <path d="M 433 693 Q 432 709 432 721 Q 433 734 419 739 Q 392 752 376 748 Q 363 742 374 728 Q 389 710 397 688 L 404 661 Q 407 634 422 616 Q 431 609 434 617 Q 438 632 434 670 L 433 693 Z" fill="lightgray"></path>
    
      <path d="M 434 670 Q 464 680 468 682 Q 472 686 472 691 Q 471 695 461 697 Q 448 696 433 693 L 397 688 Q 361 684 317 678 Q 292 679 279 678 Q 270 679 269 675 Q 268 669 273 663 Q 283 651 303 643 Q 316 636 328 640 Q 364 650 404 661 L 434 670 Z" fill="lightgray"></path>
    
      <path d="M 584 713 Q 588 725 598 740 Q 608 752 600 759 Q 590 771 565 782 Q 553 789 541 782 Q 534 778 539 769 Q 548 757 541 707 L 538 684 Q 529 653 531 635 Q 532 626 542 632 Q 555 642 564 666 Q 565 673 570 679 L 584 713 Z" fill="lightgray"></path>
    
      <path d="M 570 679 Q 636 688 697 682 Q 707 681 711 687 Q 715 694 705 705 Q 669 736 588 714 Q 585 714 584 713 L 541 707 Q 535 707 529 706 Q 510 705 523 693 Q 530 689 538 684 C 550 676 550 676 570 679 Z" fill="lightgray"></path>
    
      <path d="M 348 587 Q 339 591 306 595 Q 296 596 292 592 Q 288 586 296 572 Q 320 535 339 469 Q 343 450 357 437 Q 373 419 378 433 Q 379 439 380 447 L 378 465 Q 372 490 370 502 L 365 523 Q 361 548 358 560 C 352 586 352 586 348 587 Z" fill="lightgray"></path>
    
      <path d="M 587 466 Q 587 462 589 457 Q 593 444 603 444 Q 621 447 647 507 Q 660 547 691 570 Q 707 583 694 595 Q 681 610 641 632 Q 629 639 574 627 Q 517 621 348 587 C 319 581 329 552 358 560 Q 425 581 578 601 Q 606 604 615 598 Q 622 594 617 574 Q 599 499 592 484 Q 591 484 591 483 C 586 470 586 470 587 466 Z" fill="lightgray"></path>
    
      <path d="M 370 502 Q 374 501 386 502 Q 482 517 553 526 Q 571 527 564 538 Q 557 550 537 554 Q 521 557 365 523 C 336 517 340 504 370 502 Z" fill="lightgray"></path>
    
      <path d="M 429 448 Q 517 460 584 466 Q 585 467 587 466 C 607 467 607 467 591 483 Q 584 492 569 495 Q 554 498 378 465 C 349 459 351 454 380 447 Q 387 444 403 445 L 429 448 Z" fill="lightgray"></path>
    
      <path d="M 500 370 Q 542 376 595 377 L 626 378 Q 668 381 823 381 Q 842 381 847 390 Q 851 400 836 414 Q 776 460 737 441 Q 643 425 488 401 Q 478 400 469 398 L 389 388 Q 283 376 168 361 Q 149 360 163 343 Q 176 330 194 324 Q 213 320 229 323 Q 296 342 372 353 L 500 370 Z" fill="lightgray"></path>
    
      <path d="M 343 245 Q 383 282 427 347 L 469 398 Q 470 402 469 406 Q 460 427 429 448 C 406 465 406 465 403 445 Q 402 444 402 439 Q 398 414 389 388 L 372 353 Q 369 350 367 345 Q 298 236 99 140 Q 92 136 96 131 Q 102 127 113 129 Q 230 148 316 220 L 343 245 Z" fill="lightgray"></path>
    
      <path d="M 595 377 Q 596 376 598 374 Q 754 191 801 182 Q 897 182 940 191 Q 956 192 957 197 Q 958 203 946 208 Q 748 278 669 342 Q 662 348 656 353 Q 640 368 626 378 C 602 396 575 399 595 377 Z" fill="lightgray"></path>
    
      <path d="M 360 232 Q 354 239 343 245 C 317 260 308 249 316 220 Q 325 193 316 99 Q 307 63 341 37 Q 351 30 354 38 Q 360 41 362 58 Q 365 70 364 109 Q 363 175 365 200 C 367 225 367 225 360 232 Z" fill="lightgray"></path>
    
      <path d="M 515 227 Q 603 248 619 233 Q 629 226 629 197 Q 629 169 630 134 Q 631 109 623 98 Q 617 88 596 93 Q 580 96 562 99 Q 549 103 543 97 Q 539 93 553 83 Q 599 46 626 16 Q 636 6 651 11 Q 661 14 669 35 Q 685 69 684 110 Q 680 201 690 231 Q 697 246 690 254 Q 671 267 639 279 Q 623 286 608 280 Q 575 265 516 254 L 464 244 Q 418 238 360 232 C 330 229 335 196 365 200 Q 369 200 375 201 Q 424 211 465 218 L 515 227 Z" fill="lightgray"></path>
    
      <path d="M 465 218 Q 465 -56 478 -77 L 479 -78 Q 483 -84 490 -81 Q 497 -78 501 -66 Q 516 -32 513 64 Q 512 100 515 227 L 516 254 Q 519 275 523 295 Q 526 310 514 318 Q 486 336 474 339 Q 464 343 450 335 Q 443 328 448 319 Q 463 295 464 244 L 465 218 Z" fill="lightgray"></path>
    
    
      <clipPath id="make-me-a-hanzi-clip-0">
        <path d="M 280 793 Q 270 815 260 823 Q 244 836 241 813 Q 241 771 191 720 Q 173 699 197 650 Q 213 628 227 651 Q 243 672 254 705 Q 267 742 278 765 C 286 781 286 781 280 793 Z"></path>
      </clipPath>
      <path clip-path="url(#make-me-a-hanzi-clip-0)" d="M 251 817 L 259 787 L 256 774 L 216 699 L 212 655" fill="none" id="make-me-a-hanzi-animation-0" stroke-dasharray="302 604" stroke-linecap="round"></path>
    
      <clipPath id="make-me-a-hanzi-clip-1">
        <path d="M 278 765 Q 303 750 330 756 Q 469 799 696 814 Q 709 814 718 813 Q 733 809 731 800 Q 731 797 699 737 Q 689 724 695 720 Q 702 716 719 726 Q 771 754 814 760 Q 848 764 848 775 Q 847 785 783 839 Q 759 860 695 849 Q 671 846 381 806 Q 330 797 280 793 C 250 790 251 777 278 765 Z"></path>
      </clipPath>
      <path clip-path="url(#make-me-a-hanzi-clip-1)" d="M 288 785 L 297 776 L 311 775 L 522 813 L 707 834 L 740 829 L 762 813 L 771 791 L 700 725" fill="none" id="make-me-a-hanzi-animation-1" stroke-dasharray="737 1474" stroke-linecap="round"></path>
    
      <clipPath id="make-me-a-hanzi-clip-2">
        <path d="M 433 693 Q 432 709 432 721 Q 433 734 419 739 Q 392 752 376 748 Q 363 742 374 728 Q 389 710 397 688 L 404 661 Q 407 634 422 616 Q 431 609 434 617 Q 438 632 434 670 L 433 693 Z"></path>
      </clipPath>
      <path clip-path="url(#make-me-a-hanzi-clip-2)" d="M 380 738 L 409 718 L 427 623" fill="none" id="make-me-a-hanzi-animation-2" stroke-dasharray="260 520" stroke-linecap="round"></path>
    
      <clipPath id="make-me-a-hanzi-clip-3">
        <path d="M 434 670 Q 464 680 468 682 Q 472 686 472 691 Q 471 695 461 697 Q 448 696 433 693 L 397 688 Q 361 684 317 678 Q 292 679 279 678 Q 270 679 269 675 Q 268 669 273 663 Q 283 651 303 643 Q 316 636 328 640 Q 364 650 404 661 L 434 670 Z"></path>
      </clipPath>
      <path clip-path="url(#make-me-a-hanzi-clip-3)" d="M 276 671 L 320 658 L 464 689" fill="none" id="make-me-a-hanzi-animation-3" stroke-dasharray="321 642" stroke-linecap="round"></path>
    
      <clipPath id="make-me-a-hanzi-clip-4">
        <path d="M 584 713 Q 588 725 598 740 Q 608 752 600 759 Q 590 771 565 782 Q 553 789 541 782 Q 534 778 539 769 Q 548 757 541 707 L 538 684 Q 529 653 531 635 Q 532 626 542 632 Q 555 642 564 666 Q 565 673 570 679 L 584 713 Z"></path>
      </clipPath>
      <path clip-path="url(#make-me-a-hanzi-clip-4)" d="M 550 774 L 571 746 L 538 640" fill="none" id="make-me-a-hanzi-animation-4" stroke-dasharray="274 548" stroke-linecap="round"></path>
    
      <clipPath id="make-me-a-hanzi-clip-5">
        <path d="M 570 679 Q 636 688 697 682 Q 707 681 711 687 Q 715 694 705 705 Q 669 736 588 714 Q 585 714 584 713 L 541 707 Q 535 707 529 706 Q 510 705 523 693 Q 530 689 538 684 C 550 676 550 676 570 679 Z"></path>
      </clipPath>
      <path clip-path="url(#make-me-a-hanzi-clip-5)" d="M 530 697 L 567 695 L 650 704 L 701 692" fill="none" id="make-me-a-hanzi-animation-5" stroke-dasharray="301 602" stroke-linecap="round"></path>
    
      <clipPath id="make-me-a-hanzi-clip-6">
        <path d="M 348 587 Q 339 591 306 595 Q 296 596 292 592 Q 288 586 296 572 Q 320 535 339 469 Q 343 450 357 437 Q 373 419 378 433 Q 379 439 380 447 L 378 465 Q 372 490 370 502 L 365 523 Q 361 548 358 560 C 352 586 352 586 348 587 Z"></path>
      </clipPath>
      <path clip-path="url(#make-me-a-hanzi-clip-6)" d="M 300 587 L 333 558 L 368 438" fill="none" id="make-me-a-hanzi-animation-6" stroke-dasharray="297 594" stroke-linecap="round"></path>
    
      <clipPath id="make-me-a-hanzi-clip-7">
        <path d="M 587 466 Q 587 462 589 457 Q 593 444 603 444 Q 621 447 647 507 Q 660 547 691 570 Q 707 583 694 595 Q 681 610 641 632 Q 629 639 574 627 Q 517 621 348 587 C 319 581 329 552 358 560 Q 425 581 578 601 Q 606 604 615 598 Q 622 594 617 574 Q 599 499 592 484 Q 591 484 591 483 C 586 470 586 470 587 466 Z"></path>
      </clipPath>
      <path clip-path="url(#make-me-a-hanzi-clip-7)" d="M 361 569 L 383 582 L 475 600 L 605 618 L 631 612 L 654 584 L 602 455" fill="none" id="make-me-a-hanzi-animation-7" stroke-dasharray="581 1162" stroke-linecap="round"></path>
    
      <clipPath id="make-me-a-hanzi-clip-8">
        <path d="M 370 502 Q 374 501 386 502 Q 482 517 553 526 Q 571 527 564 538 Q 557 550 537 554 Q 521 557 365 523 C 336 517 340 504 370 502 Z"></path>
      </clipPath>
      <path clip-path="url(#make-me-a-hanzi-clip-8)" d="M 374 508 L 407 521 L 515 537 L 541 539 L 557 533" fill="none" id="make-me-a-hanzi-animation-8" stroke-dasharray="316 632" stroke-linecap="round"></path>
    
      <clipPath id="make-me-a-hanzi-clip-9">
        <path d="M 429 448 Q 517 460 584 466 Q 585 467 587 466 C 607 467 607 467 591 483 Q 584 492 569 495 Q 554 498 378 465 C 349 459 351 454 380 447 Q 387 444 403 445 L 429 448 Z"></path>
      </clipPath>
      <path clip-path="url(#make-me-a-hanzi-clip-9)" d="M 386 452 L 394 459 L 541 478 L 571 480 L 586 471" fill="none" id="make-me-a-hanzi-animation-9" stroke-dasharray="334 668" stroke-linecap="round"></path>
    
      <clipPath id="make-me-a-hanzi-clip-10">
        <path d="M 500 370 Q 542 376 595 377 L 626 378 Q 668 381 823 381 Q 842 381 847 390 Q 851 400 836 414 Q 776 460 737 441 Q 643 425 488 401 Q 478 400 469 398 L 389 388 Q 283 376 168 361 Q 149 360 163 343 Q 176 330 194 324 Q 213 320 229 323 Q 296 342 372 353 L 500 370 Z"></path>
      </clipPath>
      <path clip-path="url(#make-me-a-hanzi-clip-10)" d="M 166 352 L 221 345 L 500 388 L 759 414 L 836 395" fill="none" id="make-me-a-hanzi-animation-10" stroke-dasharray="805 1610" stroke-linecap="round"></path>
    
      <clipPath id="make-me-a-hanzi-clip-11">
        <path d="M 343 245 Q 383 282 427 347 L 469 398 Q 470 402 469 406 Q 460 427 429 448 C 406 465 406 465 403 445 Q 402 444 402 439 Q 398 414 389 388 L 372 353 Q 369 350 367 345 Q 298 236 99 140 Q 92 136 96 131 Q 102 127 113 129 Q 230 148 316 220 L 343 245 Z"></path>
      </clipPath>
      <path clip-path="url(#make-me-a-hanzi-clip-11)" d="M 410 441 L 424 424 L 430 403 L 384 327 L 331 265 L 284 223 L 208 175 L 101 134" fill="none" id="make-me-a-hanzi-animation-11" stroke-dasharray="610 1220" stroke-linecap="round"></path>
    
      <clipPath id="make-me-a-hanzi-clip-12">
        <path d="M 595 377 Q 596 376 598 374 Q 754 191 801 182 Q 897 182 940 191 Q 956 192 957 197 Q 958 203 946 208 Q 748 278 669 342 Q 662 348 656 353 Q 640 368 626 378 C 602 396 575 399 595 377 Z"></path>
      </clipPath>
      <path clip-path="url(#make-me-a-hanzi-clip-12)" d="M 607 365 L 623 365 L 714 281 L 807 220 L 950 201" fill="none" id="make-me-a-hanzi-animation-12" stroke-dasharray="523 1046" stroke-linecap="round"></path>
    
      <clipPath id="make-me-a-hanzi-clip-13">
        <path d="M 360 232 Q 354 239 343 245 C 317 260 308 249 316 220 Q 325 193 316 99 Q 307 63 341 37 Q 351 30 354 38 Q 360 41 362 58 Q 365 70 364 109 Q 363 175 365 200 C 367 225 367 225 360 232 Z"></path>
      </clipPath>
      <path clip-path="url(#make-me-a-hanzi-clip-13)" d="M 344 235 L 339 81 L 347 49" fill="none" id="make-me-a-hanzi-animation-13" stroke-dasharray="315 630" stroke-linecap="round"></path>
    
      <clipPath id="make-me-a-hanzi-clip-14">
        <path d="M 515 227 Q 603 248 619 233 Q 629 226 629 197 Q 629 169 630 134 Q 631 109 623 98 Q 617 88 596 93 Q 580 96 562 99 Q 549 103 543 97 Q 539 93 553 83 Q 599 46 626 16 Q 636 6 651 11 Q 661 14 669 35 Q 685 69 684 110 Q 680 201 690 231 Q 697 246 690 254 Q 671 267 639 279 Q 623 286 608 280 Q 575 265 516 254 L 464 244 Q 418 238 360 232 C 330 229 335 196 365 200 Q 369 200 375 201 Q 424 211 465 218 L 515 227 Z"></path>
      </clipPath>
      <path clip-path="url(#make-me-a-hanzi-clip-14)" d="M 369 228 L 380 217 L 613 259 L 644 247 L 657 235 L 658 120 L 649 77 L 637 61 L 627 62 L 549 95" fill="none" id="make-me-a-hanzi-animation-14" stroke-dasharray="705 1410" stroke-linecap="round"></path>
    
      <clipPath id="make-me-a-hanzi-clip-15">
        <path d="M 465 218 Q 465 -56 478 -77 L 479 -78 Q 483 -84 490 -81 Q 497 -78 501 -66 Q 516 -32 513 64 Q 512 100 515 227 L 516 254 Q 519 275 523 295 Q 526 310 514 318 Q 486 336 474 339 Q 464 343 450 335 Q 443 328 448 319 Q 463 295 464 244 L 465 218 Z"></path>
      </clipPath>
      <path clip-path="url(#make-me-a-hanzi-clip-15)" d="M 458 326 L 479 310 L 490 294 L 491 280 L 491 -27 L 483 -73" fill="none" id="make-me-a-hanzi-animation-15" stroke-dasharray="542 1084" stroke-linecap="round"></path>
    
  </g>
</svg>