<svg version="1.1" viewBox="0 0 1024 1024" xmlns="http://www.w3.org/2000/svg">
  <g stroke="lightgray" stroke-dasharray="1,1" stroke-width="1" transform="scale(4, 4)">
    <line x1="0" y1="0" x2="256" y2="256"></line>
    <line x1="256" y1="0" x2="0" y2="256"></line>
    <line x1="128" y1="0" x2="128" y2="256"></line>
    <line x1="0" y1="128" x2="256" y2="128"></line>
  </g>
  <g transform="scale(1, -1) translate(0, -900)">
    <style type="text/css">
      
        @keyframes keyframes0 {
          from {
            stroke: blue;
            stroke-dashoffset: 405;
            stroke-width: 128;
          }
          57% {
            animation-timing-function: step-end;
            stroke: blue;
            stroke-dashoffset: 0;
            stroke-width: 128;
          }
          to {
            stroke: black;
            stroke-width: 1024;
          }
        }
        #make-me-a-hanzi-animation-0 {
          animation: keyframes0 0.57958984375s both;
          animation-delay: 0s;
          animation-timing-function: linear;
        }
      
        @keyframes keyframes1 {
          from {
            stroke: blue;
            stroke-dashoffset: 600;
            stroke-width: 128;
          }
          66% {
            animation-timing-function: step-end;
            stroke: blue;
            stroke-dashoffset: 0;
            stroke-width: 128;
          }
          to {
            stroke: black;
            stroke-width: 1024;
          }
        }
        #make-me-a-hanzi-animation-1 {
          animation: keyframes1 0.73828125s both;
          animation-delay: 0.57958984375s;
          animation-timing-function: linear;
        }
      
        @keyframes keyframes2 {
          from {
            stroke: blue;
            stroke-dashoffset: 500;
            stroke-width: 128;
          }
          62% {
            animation-timing-function: step-end;
            stroke: blue;
            stroke-dashoffset: 0;
            stroke-width: 128;
          }
          to {
            stroke: black;
            stroke-width: 1024;
          }
        }
        #make-me-a-hanzi-animation-2 {
          animation: keyframes2 0.6569010416666666s both;
          animation-delay: 1.31787109375s;
          animation-timing-function: linear;
        }
      
        @keyframes keyframes3 {
          from {
            stroke: blue;
            stroke-dashoffset: 1080;
            stroke-width: 128;
          }
          78% {
            animation-timing-function: step-end;
            stroke: blue;
            stroke-dashoffset: 0;
            stroke-width: 128;
          }
          to {
            stroke: black;
            stroke-width: 1024;
          }
        }
        #make-me-a-hanzi-animation-3 {
          animation: keyframes3 1.12890625s both;
          animation-delay: 1.9747721354166665s;
          animation-timing-function: linear;
        }
      
        @keyframes keyframes4 {
          from {
            stroke: blue;
            stroke-dashoffset: 643;
            stroke-width: 128;
          }
          68% {
            animation-timing-function: step-end;
            stroke: blue;
            stroke-dashoffset: 0;
            stroke-width: 128;
          }
          to {
            stroke: black;
            stroke-width: 1024;
          }
        }
        #make-me-a-hanzi-animation-4 {
          animation: keyframes4 0.7732747395833334s both;
          animation-delay: 3.1036783854166665s;
          animation-timing-function: linear;
        }
      
        @keyframes keyframes5 {
          from {
            stroke: blue;
            stroke-dashoffset: 347;
            stroke-width: 128;
          }
          53% {
            animation-timing-function: step-end;
            stroke: blue;
            stroke-dashoffset: 0;
            stroke-width: 128;
          }
          to {
            stroke: black;
            stroke-width: 1024;
          }
        }
        #make-me-a-hanzi-animation-5 {
          animation: keyframes5 0.5323893229166666s both;
          animation-delay: 3.876953125s;
          animation-timing-function: linear;
        }
      
        @keyframes keyframes6 {
          from {
            stroke: blue;
            stroke-dashoffset: 499;
            stroke-width: 128;
          }
          62% {
            animation-timing-function: step-end;
            stroke: blue;
            stroke-dashoffset: 0;
            stroke-width: 128;
          }
          to {
            stroke: black;
            stroke-width: 1024;
          }
        }
        #make-me-a-hanzi-animation-6 {
          animation: keyframes6 0.6560872395833334s both;
          animation-delay: 4.409342447916667s;
          animation-timing-function: linear;
        }
      
        @keyframes keyframes7 {
          from {
            stroke: blue;
            stroke-dashoffset: 698;
            stroke-width: 128;
          }
          69% {
            animation-timing-function: step-end;
            stroke: blue;
            stroke-dashoffset: 0;
            stroke-width: 128;
          }
          to {
            stroke: black;
            stroke-width: 1024;
          }
        }
        #make-me-a-hanzi-animation-7 {
          animation: keyframes7 0.8180338541666666s both;
          animation-delay: 5.0654296875s;
          animation-timing-function: linear;
        }
      
        @keyframes keyframes8 {
          from {
            stroke: blue;
            stroke-dashoffset: 731;
            stroke-width: 128;
          }
          70% {
            animation-timing-function: step-end;
            stroke: blue;
            stroke-dashoffset: 0;
            stroke-width: 128;
          }
          to {
            stroke: black;
            stroke-width: 1024;
          }
        }
        #make-me-a-hanzi-animation-8 {
          animation: keyframes8 0.8448893229166666s both;
          animation-delay: 5.883463541666667s;
          animation-timing-function: linear;
        }
      
        @keyframes keyframes9 {
          from {
            stroke: blue;
            stroke-dashoffset: 428;
            stroke-width: 128;
          }
          58% {
            animation-timing-function: step-end;
            stroke: blue;
            stroke-dashoffset: 0;
            stroke-width: 128;
          }
          to {
            stroke: black;
            stroke-width: 1024;
          }
        }
        #make-me-a-hanzi-animation-9 {
          animation: keyframes9 0.5983072916666666s both;
          animation-delay: 6.728352864583334s;
          animation-timing-function: linear;
        }
      
    </style>
    
      <path d="M 141 619 Q 169 588 200 553 Q 212 538 227 537 Q 237 536 245 549 Q 251 562 246 594 Q 239 630 142 667 Q 127 673 120 671 Q 114 668 115 655 Q 116 643 141 619 Z" fill="lightgray"></path>
    
      <path d="M 79 178 Q 69 174 71 158 Q 89 91 122 75 Q 129 69 138 72 Q 145 73 144 97 Q 148 145 223 382 Q 229 398 227 403 Q 226 412 218 405 Q 209 401 113 220 Q 103 201 79 178 Z" fill="lightgray"></path>
    
      <path d="M 431 506 Q 512 530 517 534 Q 524 541 520 549 Q 513 559 485 564 Q 457 568 432 555 L 392 539 Q 305 517 278 511 Q 245 502 270 489 Q 309 470 373 490 L 375 490 L 431 506 Z" fill="lightgray"></path>
    
      <path d="M 428 369 Q 429 432 431 506 L 432 555 Q 432 661 452 733 Q 461 746 458 760 Q 451 769 399 801 Q 377 817 358 803 Q 354 799 359 784 Q 390 735 391 687 Q 391 618 392 539 L 388 398 Q 379 188 379 183 Q 372 140 360 97 Q 348 57 374 1 Q 380 -15 387 -19 Q 393 -25 400 -18 Q 407 -14 417 6 Q 427 30 426 59 Q 425 96 428 332 L 428 369 Z" fill="lightgray"></path>
    
      <path d="M 375 490 Q 339 364 201 156 Q 197 146 207 146 Q 228 146 320 272 Q 357 326 388 398 C 442 522 384 519 375 490 Z" fill="lightgray"></path>
    
      <path d="M 428 332 Q 465 283 487 279 Q 499 276 505 292 Q 508 304 500 322 Q 493 338 471 348 Q 443 364 428 369 C 400 379 410 356 428 332 Z" fill="lightgray"></path>
    
      <path d="M 568 561 Q 580 525 531 439 Q 518 417 480 370 Q 474 366 482 364 Q 515 364 578 442 Q 597 467 628 521 Q 638 540 639 544 Q 632 563 597 573 Q 581 576 572 573 Q 565 572 568 561 Z" fill="lightgray"></path>
    
      <path d="M 656 661 Q 681 642 695 613 Q 813 388 847 377 Q 925 371 956 373 Q 969 373 974 378 Q 978 382 971 387 Q 844 463 782 553 Q 749 599 712 661 Q 706 674 693 678 Q 662 685 652 676 Q 648 669 656 661 Z" fill="lightgray"></path>
    
      <path d="M 754 216 Q 681 207 600 190 Q 593 187 589 190 Q 588 193 592 203 Q 677 342 697 366 Q 707 376 701 387 Q 694 397 649 415 Q 634 421 625 417 Q 615 410 621 392 Q 642 343 553 212 Q 535 194 509 173 Q 497 163 501 152 Q 507 137 531 120 Q 541 111 553 121 Q 589 151 760 192 Q 761 193 766 194 C 795 202 784 220 754 216 Z" fill="lightgray"></path>
    
      <path d="M 766 194 Q 781 169 796 138 Q 803 123 816 119 Q 825 116 833 125 Q 842 135 844 163 Q 847 208 750 283 Q 738 290 733 290 Q 727 289 724 278 Q 724 272 754 216 L 766 194 Z" fill="lightgray"></path>
    
    
      <clipPath id="make-me-a-hanzi-clip-0">
        <path d="M 141 619 Q 169 588 200 553 Q 212 538 227 537 Q 237 536 245 549 Q 251 562 246 594 Q 239 630 142 667 Q 127 673 120 671 Q 114 668 115 655 Q 116 643 141 619 Z"></path>
      </clipPath>
      <path clip-path="url(#make-me-a-hanzi-clip-0)" d="M 125 663 L 202 600 L 227 557" fill="none" id="make-me-a-hanzi-animation-0" stroke-dasharray="277 554" stroke-linecap="round"></path>
    
      <clipPath id="make-me-a-hanzi-clip-1">
        <path d="M 79 178 Q 69 174 71 158 Q 89 91 122 75 Q 129 69 138 72 Q 145 73 144 97 Q 148 145 223 382 Q 229 398 227 403 Q 226 412 218 405 Q 209 401 113 220 Q 103 201 79 178 Z"></path>
      </clipPath>
      <path clip-path="url(#make-me-a-hanzi-clip-1)" d="M 133 81 L 120 109 L 114 156 L 221 399" fill="none" id="make-me-a-hanzi-animation-1" stroke-dasharray="472 944" stroke-linecap="round"></path>
    
      <clipPath id="make-me-a-hanzi-clip-2">
        <path d="M 431 506 Q 512 530 517 534 Q 524 541 520 549 Q 513 559 485 564 Q 457 568 432 555 L 392 539 Q 305 517 278 511 Q 245 502 270 489 Q 309 470 373 490 L 375 490 L 431 506 Z"></path>
      </clipPath>
      <path clip-path="url(#make-me-a-hanzi-clip-2)" d="M 272 501 L 328 501 L 457 539 L 510 543" fill="none" id="make-me-a-hanzi-animation-2" stroke-dasharray="372 744" stroke-linecap="round"></path>
    
      <clipPath id="make-me-a-hanzi-clip-3">
        <path d="M 428 369 Q 429 432 431 506 L 432 555 Q 432 661 452 733 Q 461 746 458 760 Q 451 769 399 801 Q 377 817 358 803 Q 354 799 359 784 Q 390 735 391 687 Q 391 618 392 539 L 388 398 Q 379 188 379 183 Q 372 140 360 97 Q 348 57 374 1 Q 380 -15 387 -19 Q 393 -25 400 -18 Q 407 -14 417 6 Q 427 30 426 59 Q 425 96 428 332 L 428 369 Z"></path>
      </clipPath>
      <path clip-path="url(#make-me-a-hanzi-clip-3)" d="M 369 797 L 409 758 L 418 735 L 404 188 L 391 73 L 393 -7" fill="none" id="make-me-a-hanzi-animation-3" stroke-dasharray="952 1904" stroke-linecap="round"></path>
    
      <clipPath id="make-me-a-hanzi-clip-4">
        <path d="M 375 490 Q 339 364 201 156 Q 197 146 207 146 Q 228 146 320 272 Q 357 326 388 398 C 442 522 384 519 375 490 Z"></path>
      </clipPath>
      <path clip-path="url(#make-me-a-hanzi-clip-4)" d="M 388 488 L 381 482 L 365 399 L 329 327 L 258 213 L 208 153" fill="none" id="make-me-a-hanzi-animation-4" stroke-dasharray="515 1030" stroke-linecap="round"></path>
    
      <clipPath id="make-me-a-hanzi-clip-5">
        <path d="M 428 332 Q 465 283 487 279 Q 499 276 505 292 Q 508 304 500 322 Q 493 338 471 348 Q 443 364 428 369 C 400 379 410 356 428 332 Z"></path>
      </clipPath>
      <path clip-path="url(#make-me-a-hanzi-clip-5)" d="M 432 363 L 447 338 L 473 318 L 490 294" fill="none" id="make-me-a-hanzi-animation-5" stroke-dasharray="219 438" stroke-linecap="round"></path>
    
      <clipPath id="make-me-a-hanzi-clip-6">
        <path d="M 568 561 Q 580 525 531 439 Q 518 417 480 370 Q 474 366 482 364 Q 515 364 578 442 Q 597 467 628 521 Q 638 540 639 544 Q 632 563 597 573 Q 581 576 572 573 Q 565 572 568 561 Z"></path>
      </clipPath>
      <path clip-path="url(#make-me-a-hanzi-clip-6)" d="M 579 564 L 602 538 L 592 509 L 544 426 L 486 369" fill="none" id="make-me-a-hanzi-animation-6" stroke-dasharray="371 742" stroke-linecap="round"></path>
    
      <clipPath id="make-me-a-hanzi-clip-7">
        <path d="M 656 661 Q 681 642 695 613 Q 813 388 847 377 Q 925 371 956 373 Q 969 373 974 378 Q 978 382 971 387 Q 844 463 782 553 Q 749 599 712 661 Q 706 674 693 678 Q 662 685 652 676 Q 648 669 656 661 Z"></path>
      </clipPath>
      <path clip-path="url(#make-me-a-hanzi-clip-7)" d="M 660 670 L 692 655 L 769 526 L 861 414 L 968 381" fill="none" id="make-me-a-hanzi-animation-7" stroke-dasharray="570 1140" stroke-linecap="round"></path>
    
      <clipPath id="make-me-a-hanzi-clip-8">
        <path d="M 754 216 Q 681 207 600 190 Q 593 187 589 190 Q 588 193 592 203 Q 677 342 697 366 Q 707 376 701 387 Q 694 397 649 415 Q 634 421 625 417 Q 615 410 621 392 Q 642 343 553 212 Q 535 194 509 173 Q 497 163 501 152 Q 507 137 531 120 Q 541 111 553 121 Q 589 151 760 192 Q 761 193 766 194 C 795 202 784 220 754 216 Z"></path>
      </clipPath>
      <path clip-path="url(#make-me-a-hanzi-clip-8)" d="M 632 406 L 650 389 L 656 362 L 617 279 L 574 212 L 560 168 L 595 167 L 734 201 L 761 199" fill="none" id="make-me-a-hanzi-animation-8" stroke-dasharray="603 1206" stroke-linecap="round"></path>
    
      <clipPath id="make-me-a-hanzi-clip-9">
        <path d="M 766 194 Q 781 169 796 138 Q 803 123 816 119 Q 825 116 833 125 Q 842 135 844 163 Q 847 208 750 283 Q 738 290 733 290 Q 727 289 724 278 Q 724 272 754 216 L 766 194 Z"></path>
      </clipPath>
      <path clip-path="url(#make-me-a-hanzi-clip-9)" d="M 734 280 L 807 183 L 820 134" fill="none" id="make-me-a-hanzi-animation-9" stroke-dasharray="300 600" stroke-linecap="round"></path>
    
  </g>
</svg>