<svg version="1.1" viewBox="0 0 1024 1024" xmlns="http://www.w3.org/2000/svg">
  <g stroke="lightgray" stroke-dasharray="1,1" stroke-width="1" transform="scale(4, 4)">
    <line x1="0" y1="0" x2="256" y2="256"></line>
    <line x1="256" y1="0" x2="0" y2="256"></line>
    <line x1="128" y1="0" x2="128" y2="256"></line>
    <line x1="0" y1="128" x2="256" y2="128"></line>
  </g>
  <g transform="scale(1, -1) translate(0, -900)">
    <style type="text/css">
      
        @keyframes keyframes0 {
          from {
            stroke: blue;
            stroke-dashoffset: 911;
            stroke-width: 128;
          }
          75% {
            animation-timing-function: step-end;
            stroke: blue;
            stroke-dashoffset: 0;
            stroke-width: 128;
          }
          to {
            stroke: black;
            stroke-width: 1024;
          }
        }
        #make-me-a-hanzi-animation-0 {
          animation: keyframes0 0.9913736979166666s both;
          animation-delay: 0s;
          animation-timing-function: linear;
        }
      
        @keyframes keyframes1 {
          from {
            stroke: blue;
            stroke-dashoffset: 767;
            stroke-width: 128;
          }
          71% {
            animation-timing-function: step-end;
            stroke: blue;
            stroke-dashoffset: 0;
            stroke-width: 128;
          }
          to {
            stroke: black;
            stroke-width: 1024;
          }
        }
        #make-me-a-hanzi-animation-1 {
          animation: keyframes1 0.8741861979166666s both;
          animation-delay: 0.9913736979166666s;
          animation-timing-function: linear;
        }
      
        @keyframes keyframes2 {
          from {
            stroke: blue;
            stroke-dashoffset: 451;
            stroke-width: 128;
          }
          59% {
            animation-timing-function: step-end;
            stroke: blue;
            stroke-dashoffset: 0;
            stroke-width: 128;
          }
          to {
            stroke: black;
            stroke-width: 1024;
          }
        }
        #make-me-a-hanzi-animation-2 {
          animation: keyframes2 0.6170247395833334s both;
          animation-delay: 1.8655598958333333s;
          animation-timing-function: linear;
        }
      
        @keyframes keyframes3 {
          from {
            stroke: blue;
            stroke-dashoffset: 562;
            stroke-width: 128;
          }
          65% {
            animation-timing-function: step-end;
            stroke: blue;
            stroke-dashoffset: 0;
            stroke-width: 128;
          }
          to {
            stroke: black;
            stroke-width: 1024;
          }
        }
        #make-me-a-hanzi-animation-3 {
          animation: keyframes3 0.7073567708333334s both;
          animation-delay: 2.4825846354166665s;
          animation-timing-function: linear;
        }
      
        @keyframes keyframes4 {
          from {
            stroke: blue;
            stroke-dashoffset: 1159;
            stroke-width: 128;
          }
          79% {
            animation-timing-function: step-end;
            stroke: blue;
            stroke-dashoffset: 0;
            stroke-width: 128;
          }
          to {
            stroke: black;
            stroke-width: 1024;
          }
        }
        #make-me-a-hanzi-animation-4 {
          animation: keyframes4 1.1931966145833333s both;
          animation-delay: 3.18994140625s;
          animation-timing-function: linear;
        }
      
        @keyframes keyframes5 {
          from {
            stroke: blue;
            stroke-dashoffset: 673;
            stroke-width: 128;
          }
          69% {
            animation-timing-function: step-end;
            stroke: blue;
            stroke-dashoffset: 0;
            stroke-width: 128;
          }
          to {
            stroke: black;
            stroke-width: 1024;
          }
        }
        #make-me-a-hanzi-animation-5 {
          animation: keyframes5 0.7976888020833334s both;
          animation-delay: 4.383138020833333s;
          animation-timing-function: linear;
        }
      
    </style>
    
      <path d="M 552 465 Q 552 646 571 693 Q 578 712 561 722 Q 530 743 496 748 Q 480 749 474 741 Q 467 734 476 724 Q 501 696 504 655 Q 511 529 498 272 Q 499 256 489 248 Q 486 248 414 256 Q 401 257 404 248 Q 405 242 424 227 Q 473 191 496 164 Q 508 154 518 159 Q 530 165 544 190 Q 557 217 553 262 Q 550 325 551 425 L 552 465 Z" fill="lightgray"></path>
    
      <path d="M 242 483 Q 229 483 229 474 Q 228 468 241 461 Q 284 437 309 447 Q 385 471 392 470 Q 405 467 396 440 Q 351 313 265 237 Q 252 225 262 223 Q 272 223 289 233 Q 337 257 376 300 Q 413 339 461 439 Q 471 461 482 471 Q 495 481 487 491 Q 477 503 442 515 Q 423 524 372 503 Q 312 490 242 483 Z" fill="lightgray"></path>
    
      <path d="M 576 441 Q 627 471 688 512 Q 706 527 729 536 Q 748 545 739 562 Q 727 578 703 592 Q 681 605 669 603 Q 656 602 660 590 Q 663 565 564 452 C 544 429 550 426 576 441 Z" fill="lightgray"></path>
    
      <path d="M 564 452 Q 558 459 552 465 C 531 487 535 450 551 425 Q 596 355 655 279 Q 679 255 792 275 Q 799 276 800 281 Q 801 285 791 291 Q 674 348 619 400 Q 598 419 576 441 L 564 452 Z" fill="lightgray"></path>
    
      <path d="M 792 151 Q 494 150 264 108 Q 233 99 240 138 Q 244 225 248 316 Q 249 343 238 358 Q 220 376 192 389 Q 179 395 168 392 Q 156 385 167 365 Q 207 286 198 205 Q 194 127 164 92 Q 143 73 151 57 Q 163 41 181 27 Q 196 18 207 27 Q 250 76 601 110 Q 755 123 791 108 C 820 102 822 151 792 151 Z" fill="lightgray"></path>
    
      <path d="M 791 108 Q 798 75 811 54 Q 823 35 836 50 Q 864 83 863 181 Q 872 365 885 391 Q 885 394 887 395 Q 896 414 882 429 Q 858 447 818 467 Q 803 474 789 467 Q 780 463 784 446 Q 827 386 799 176 Q 796 163 792 151 L 791 108 Z" fill="lightgray"></path>
    
    
      <clipPath id="make-me-a-hanzi-clip-0">
        <path d="M 552 465 Q 552 646 571 693 Q 578 712 561 722 Q 530 743 496 748 Q 480 749 474 741 Q 467 734 476 724 Q 501 696 504 655 Q 511 529 498 272 Q 499 256 489 248 Q 486 248 414 256 Q 401 257 404 248 Q 405 242 424 227 Q 473 191 496 164 Q 508 154 518 159 Q 530 165 544 190 Q 557 217 553 262 Q 550 325 551 425 L 552 465 Z"></path>
      </clipPath>
      <path clip-path="url(#make-me-a-hanzi-clip-0)" d="M 482 733 L 499 728 L 519 712 L 533 692 L 525 252 L 508 211 L 412 248" fill="none" id="make-me-a-hanzi-animation-0" stroke-dasharray="783 1566" stroke-linecap="round"></path>
    
      <clipPath id="make-me-a-hanzi-clip-1">
        <path d="M 242 483 Q 229 483 229 474 Q 228 468 241 461 Q 284 437 309 447 Q 385 471 392 470 Q 405 467 396 440 Q 351 313 265 237 Q 252 225 262 223 Q 272 223 289 233 Q 337 257 376 300 Q 413 339 461 439 Q 471 461 482 471 Q 495 481 487 491 Q 477 503 442 515 Q 423 524 372 503 Q 312 490 242 483 Z"></path>
      </clipPath>
      <path clip-path="url(#make-me-a-hanzi-clip-1)" d="M 238 474 L 292 466 L 388 490 L 420 486 L 436 476 L 423 426 L 369 326 L 303 255 L 267 229" fill="none" id="make-me-a-hanzi-animation-1" stroke-dasharray="639 1278" stroke-linecap="round"></path>
    
      <clipPath id="make-me-a-hanzi-clip-2">
        <path d="M 576 441 Q 627 471 688 512 Q 706 527 729 536 Q 748 545 739 562 Q 727 578 703 592 Q 681 605 669 603 Q 656 602 660 590 Q 663 565 564 452 C 544 429 550 426 576 441 Z"></path>
      </clipPath>
      <path clip-path="url(#make-me-a-hanzi-clip-2)" d="M 673 591 L 689 557 L 609 479 L 578 458 L 579 450" fill="none" id="make-me-a-hanzi-animation-2" stroke-dasharray="323 646" stroke-linecap="round"></path>
    
      <clipPath id="make-me-a-hanzi-clip-3">
        <path d="M 564 452 Q 558 459 552 465 C 531 487 535 450 551 425 Q 596 355 655 279 Q 679 255 792 275 Q 799 276 800 281 Q 801 285 791 291 Q 674 348 619 400 Q 598 419 576 441 L 564 452 Z"></path>
      </clipPath>
      <path clip-path="url(#make-me-a-hanzi-clip-3)" d="M 558 453 L 567 427 L 585 405 L 680 308 L 792 283" fill="none" id="make-me-a-hanzi-animation-3" stroke-dasharray="434 868" stroke-linecap="round"></path>
    
      <clipPath id="make-me-a-hanzi-clip-4">
        <path d="M 792 151 Q 494 150 264 108 Q 233 99 240 138 Q 244 225 248 316 Q 249 343 238 358 Q 220 376 192 389 Q 179 395 168 392 Q 156 385 167 365 Q 207 286 198 205 Q 194 127 164 92 Q 143 73 151 57 Q 163 41 181 27 Q 196 18 207 27 Q 250 76 601 110 Q 755 123 791 108 C 820 102 822 151 792 151 Z"></path>
      </clipPath>
      <path clip-path="url(#make-me-a-hanzi-clip-4)" d="M 174 381 L 212 340 L 219 310 L 223 234 L 209 105 L 213 82 L 249 80 L 430 112 L 648 132 L 766 133 L 790 115" fill="none" id="make-me-a-hanzi-animation-4" stroke-dasharray="1031 2062" stroke-linecap="round"></path>
    
      <clipPath id="make-me-a-hanzi-clip-5">
        <path d="M 791 108 Q 798 75 811 54 Q 823 35 836 50 Q 864 83 863 181 Q 872 365 885 391 Q 885 394 887 395 Q 896 414 882 429 Q 858 447 818 467 Q 803 474 789 467 Q 780 463 784 446 Q 827 386 799 176 Q 796 163 792 151 L 791 108 Z"></path>
      </clipPath>
      <path clip-path="url(#make-me-a-hanzi-clip-5)" d="M 798 454 L 815 442 L 845 404 L 824 57" fill="none" id="make-me-a-hanzi-animation-5" stroke-dasharray="545 1090" stroke-linecap="round"></path>
    
  </g>
</svg>