<svg version="1.1" viewBox="0 0 1024 1024" xmlns="http://www.w3.org/2000/svg">
  <g stroke="lightgray" stroke-dasharray="1,1" stroke-width="1" transform="scale(4, 4)">
    <line x1="0" y1="0" x2="256" y2="256"></line>
    <line x1="256" y1="0" x2="0" y2="256"></line>
    <line x1="128" y1="0" x2="128" y2="256"></line>
    <line x1="0" y1="128" x2="256" y2="128"></line>
  </g>
  <g transform="scale(1, -1) translate(0, -900)">
    <style type="text/css">
      
        @keyframes keyframes0 {
          from {
            stroke: blue;
            stroke-dashoffset: 416;
            stroke-width: 128;
          }
          58% {
            animation-timing-function: step-end;
            stroke: blue;
            stroke-dashoffset: 0;
            stroke-width: 128;
          }
          to {
            stroke: black;
            stroke-width: 1024;
          }
        }
        #make-me-a-hanzi-animation-0 {
          animation: keyframes0 0.5885416666666666s both;
          animation-delay: 0s;
          animation-timing-function: linear;
        }
      
        @keyframes keyframes1 {
          from {
            stroke: blue;
            stroke-dashoffset: 678;
            stroke-width: 128;
          }
          69% {
            animation-timing-function: step-end;
            stroke: blue;
            stroke-dashoffset: 0;
            stroke-width: 128;
          }
          to {
            stroke: black;
            stroke-width: 1024;
          }
        }
        #make-me-a-hanzi-animation-1 {
          animation: keyframes1 0.8017578125s both;
          animation-delay: 0.5885416666666666s;
          animation-timing-function: linear;
        }
      
        @keyframes keyframes2 {
          from {
            stroke: blue;
            stroke-dashoffset: 848;
            stroke-width: 128;
          }
          73% {
            animation-timing-function: step-end;
            stroke: blue;
            stroke-dashoffset: 0;
            stroke-width: 128;
          }
          to {
            stroke: black;
            stroke-width: 1024;
          }
        }
        #make-me-a-hanzi-animation-2 {
          animation: keyframes2 0.9401041666666666s both;
          animation-delay: 1.3902994791666665s;
          animation-timing-function: linear;
        }
      
        @keyframes keyframes3 {
          from {
            stroke: blue;
            stroke-dashoffset: 669;
            stroke-width: 128;
          }
          69% {
            animation-timing-function: step-end;
            stroke: blue;
            stroke-dashoffset: 0;
            stroke-width: 128;
          }
          to {
            stroke: black;
            stroke-width: 1024;
          }
        }
        #make-me-a-hanzi-animation-3 {
          animation: keyframes3 0.79443359375s both;
          animation-delay: 2.330403645833333s;
          animation-timing-function: linear;
        }
      
        @keyframes keyframes4 {
          from {
            stroke: blue;
            stroke-dashoffset: 590;
            stroke-width: 128;
          }
          66% {
            animation-timing-function: step-end;
            stroke: blue;
            stroke-dashoffset: 0;
            stroke-width: 128;
          }
          to {
            stroke: black;
            stroke-width: 1024;
          }
        }
        #make-me-a-hanzi-animation-4 {
          animation: keyframes4 0.7301432291666666s both;
          animation-delay: 3.124837239583333s;
          animation-timing-function: linear;
        }
      
        @keyframes keyframes5 {
          from {
            stroke: blue;
            stroke-dashoffset: 1180;
            stroke-width: 128;
          }
          79% {
            animation-timing-function: step-end;
            stroke: blue;
            stroke-dashoffset: 0;
            stroke-width: 128;
          }
          to {
            stroke: black;
            stroke-width: 1024;
          }
        }
        #make-me-a-hanzi-animation-5 {
          animation: keyframes5 1.2102864583333333s both;
          animation-delay: 3.8549804687499996s;
          animation-timing-function: linear;
        }
      
    </style>
    
      <path d="M 319 770 Q 355 743 393 712 Q 409 699 425 701 Q 435 702 441 716 Q 445 732 433 763 Q 426 785 388 801 Q 298 826 288 819 Q 282 815 285 801 Q 289 791 319 770 Z" fill="lightgray"></path>
    
      <path d="M 427 562 Q 479 569 525 576 Q 535 575 545 588 Q 546 601 522 611 Q 483 633 408 607 Q 306 583 143 557 Q 133 557 124 554 Q 94 550 118 532 Q 151 504 182 513 Q 269 534 382 554 L 427 562 Z" fill="lightgray"></path>
    
      <path d="M 384 326 Q 397 353 409 382 Q 451 484 466 501 Q 479 517 464 530 Q 439 558 427 562 C 402 579 375 583 382 554 L 383 553 Q 401 492 339 357 L 315 313 Q 243 202 87 136 Q 72 129 84 124 Q 142 114 240 171 Q 288 198 353 276 L 384 326 Z" fill="lightgray"></path>
    
      <path d="M 353 276 Q 488 141 493 138 Q 502 137 509 146 Q 521 159 509 201 Q 500 249 384 326 L 339 357 Q 257 412 209 440 Q 202 444 199 433 Q 198 420 208 411 Q 259 366 315 313 L 353 276 Z" fill="lightgray"></path>
    
      <path d="M 564 594 Q 594 531 572 350 Q 565 317 594 277 Q 604 265 615 278 Q 636 308 637 356 Q 637 515 644 561 Q 651 586 629 598 Q 611 610 593 619 Q 580 623 569 618 Q 560 611 564 594 Z" fill="lightgray"></path>
    
      <path d="M 771 712 Q 775 676 774 134 Q 773 110 761 102 Q 754 98 671 115 Q 637 128 639 116 Q 640 109 662 93 Q 735 38 754 6 Q 776 -31 794 -32 Q 810 -33 825 4 Q 844 53 841 133 Q 808 601 846 741 Q 865 774 804 798 Q 767 817 747 809 Q 728 802 745 777 Q 769 749 771 712 Z" fill="lightgray"></path>
    
    
      <clipPath id="make-me-a-hanzi-clip-0">
        <path d="M 319 770 Q 355 743 393 712 Q 409 699 425 701 Q 435 702 441 716 Q 445 732 433 763 Q 426 785 388 801 Q 298 826 288 819 Q 282 815 285 801 Q 289 791 319 770 Z"></path>
      </clipPath>
      <path clip-path="url(#make-me-a-hanzi-clip-0)" d="M 293 812 L 392 759 L 421 721" fill="none" id="make-me-a-hanzi-animation-0" stroke-dasharray="288 576" stroke-linecap="round"></path>
    
      <clipPath id="make-me-a-hanzi-clip-1">
        <path d="M 427 562 Q 479 569 525 576 Q 535 575 545 588 Q 546 601 522 611 Q 483 633 408 607 Q 306 583 143 557 Q 133 557 124 554 Q 94 550 118 532 Q 151 504 182 513 Q 269 534 382 554 L 427 562 Z"></path>
      </clipPath>
      <path clip-path="url(#make-me-a-hanzi-clip-1)" d="M 119 544 L 165 535 L 441 591 L 480 596 L 534 590" fill="none" id="make-me-a-hanzi-animation-1" stroke-dasharray="550 1100" stroke-linecap="round"></path>
    
      <clipPath id="make-me-a-hanzi-clip-2">
        <path d="M 384 326 Q 397 353 409 382 Q 451 484 466 501 Q 479 517 464 530 Q 439 558 427 562 C 402 579 375 583 382 554 L 383 553 Q 401 492 339 357 L 315 313 Q 243 202 87 136 Q 72 129 84 124 Q 142 114 240 171 Q 288 198 353 276 L 384 326 Z"></path>
      </clipPath>
      <path clip-path="url(#make-me-a-hanzi-clip-2)" d="M 391 550 L 420 527 L 426 513 L 389 403 L 328 284 L 282 233 L 221 184 L 147 146 L 90 129" fill="none" id="make-me-a-hanzi-animation-2" stroke-dasharray="720 1440" stroke-linecap="round"></path>
    
      <clipPath id="make-me-a-hanzi-clip-3">
        <path d="M 353 276 Q 488 141 493 138 Q 502 137 509 146 Q 521 159 509 201 Q 500 249 384 326 L 339 357 Q 257 412 209 440 Q 202 444 199 433 Q 198 420 208 411 Q 259 366 315 313 L 353 276 Z"></path>
      </clipPath>
      <path clip-path="url(#make-me-a-hanzi-clip-3)" d="M 209 429 L 377 296 L 453 227 L 492 172 L 496 144" fill="none" id="make-me-a-hanzi-animation-3" stroke-dasharray="541 1082" stroke-linecap="round"></path>
    
      <clipPath id="make-me-a-hanzi-clip-4">
        <path d="M 564 594 Q 594 531 572 350 Q 565 317 594 277 Q 604 265 615 278 Q 636 308 637 356 Q 637 515 644 561 Q 651 586 629 598 Q 611 610 593 619 Q 580 623 569 618 Q 560 611 564 594 Z"></path>
      </clipPath>
      <path clip-path="url(#make-me-a-hanzi-clip-4)" d="M 578 606 L 606 575 L 610 562 L 604 283" fill="none" id="make-me-a-hanzi-animation-4" stroke-dasharray="462 924" stroke-linecap="round"></path>
    
      <clipPath id="make-me-a-hanzi-clip-5">
        <path d="M 771 712 Q 775 676 774 134 Q 773 110 761 102 Q 754 98 671 115 Q 637 128 639 116 Q 640 109 662 93 Q 735 38 754 6 Q 776 -31 794 -32 Q 810 -33 825 4 Q 844 53 841 133 Q 808 601 846 741 Q 865 774 804 798 Q 767 817 747 809 Q 728 802 745 777 Q 769 749 771 712 Z"></path>
      </clipPath>
      <path clip-path="url(#make-me-a-hanzi-clip-5)" d="M 750 796 L 784 774 L 806 747 L 799 422 L 806 108 L 784 54 L 646 116" fill="none" id="make-me-a-hanzi-animation-5" stroke-dasharray="1052 2104" stroke-linecap="round"></path>
    
  </g>
</svg>