<svg version="1.1" viewBox="0 0 1024 1024" xmlns="http://www.w3.org/2000/svg">
  <g stroke="lightgray" stroke-dasharray="1,1" stroke-width="1" transform="scale(4, 4)">
    <line x1="0" y1="0" x2="256" y2="256"></line>
    <line x1="256" y1="0" x2="0" y2="256"></line>
    <line x1="128" y1="0" x2="128" y2="256"></line>
    <line x1="0" y1="128" x2="256" y2="128"></line>
  </g>
  <g transform="scale(1, -1) translate(0, -900)">
    <style type="text/css">
      
        @keyframes keyframes0 {
          from {
            stroke: blue;
            stroke-dashoffset: 490;
            stroke-width: 128;
          }
          61% {
            animation-timing-function: step-end;
            stroke: blue;
            stroke-dashoffset: 0;
            stroke-width: 128;
          }
          to {
            stroke: black;
            stroke-width: 1024;
          }
        }
        #make-me-a-hanzi-animation-0 {
          animation: keyframes0 0.6487630208333334s both;
          animation-delay: 0s;
          animation-timing-function: linear;
        }
      
        @keyframes keyframes1 {
          from {
            stroke: blue;
            stroke-dashoffset: 631;
            stroke-width: 128;
          }
          67% {
            animation-timing-function: step-end;
            stroke: blue;
            stroke-dashoffset: 0;
            stroke-width: 128;
          }
          to {
            stroke: black;
            stroke-width: 1024;
          }
        }
        #make-me-a-hanzi-animation-1 {
          animation: keyframes1 0.7635091145833334s both;
          animation-delay: 0.6487630208333334s;
          animation-timing-function: linear;
        }
      
        @keyframes keyframes2 {
          from {
            stroke: blue;
            stroke-dashoffset: 457;
            stroke-width: 128;
          }
          60% {
            animation-timing-function: step-end;
            stroke: blue;
            stroke-dashoffset: 0;
            stroke-width: 128;
          }
          to {
            stroke: black;
            stroke-width: 1024;
          }
        }
        #make-me-a-hanzi-animation-2 {
          animation: keyframes2 0.6219075520833334s both;
          animation-delay: 1.4122721354166667s;
          animation-timing-function: linear;
        }
      
        @keyframes keyframes3 {
          from {
            stroke: blue;
            stroke-dashoffset: 1068;
            stroke-width: 128;
          }
          78% {
            animation-timing-function: step-end;
            stroke: blue;
            stroke-dashoffset: 0;
            stroke-width: 128;
          }
          to {
            stroke: black;
            stroke-width: 1024;
          }
        }
        #make-me-a-hanzi-animation-3 {
          animation: keyframes3 1.119140625s both;
          animation-delay: 2.0341796875s;
          animation-timing-function: linear;
        }
      
        @keyframes keyframes4 {
          from {
            stroke: blue;
            stroke-dashoffset: 803;
            stroke-width: 128;
          }
          72% {
            animation-timing-function: step-end;
            stroke: blue;
            stroke-dashoffset: 0;
            stroke-width: 128;
          }
          to {
            stroke: black;
            stroke-width: 1024;
          }
        }
        #make-me-a-hanzi-animation-4 {
          animation: keyframes4 0.9034830729166666s both;
          animation-delay: 3.1533203125s;
          animation-timing-function: linear;
        }
      
        @keyframes keyframes5 {
          from {
            stroke: blue;
            stroke-dashoffset: 606;
            stroke-width: 128;
          }
          66% {
            animation-timing-function: step-end;
            stroke: blue;
            stroke-dashoffset: 0;
            stroke-width: 128;
          }
          to {
            stroke: black;
            stroke-width: 1024;
          }
        }
        #make-me-a-hanzi-animation-5 {
          animation: keyframes5 0.7431640625s both;
          animation-delay: 4.056803385416667s;
          animation-timing-function: linear;
        }
      
        @keyframes keyframes6 {
          from {
            stroke: blue;
            stroke-dashoffset: 1200;
            stroke-width: 128;
          }
          80% {
            animation-timing-function: step-end;
            stroke: blue;
            stroke-dashoffset: 0;
            stroke-width: 128;
          }
          to {
            stroke: black;
            stroke-width: 1024;
          }
        }
        #make-me-a-hanzi-animation-6 {
          animation: keyframes6 1.2265625s both;
          animation-delay: 4.799967447916667s;
          animation-timing-function: linear;
        }
      
    </style>
    
      <path d="M 247 698 Q 237 705 201 714 Q 188 718 185 712 Q 178 706 186 690 Q 211 630 223 533 Q 224 505 240 484 Q 256 462 263 477 Q 267 489 268 508 L 267 537 Q 258 627 254 663 C 251 693 250 696 247 698 Z" fill="lightgray"></path>
    
      <path d="M 459 563 Q 484 651 521 679 Q 537 698 522 715 Q 506 728 452 752 Q 433 759 412 750 Q 361 728 247 698 C 218 690 224 659 254 663 Q 273 664 406 696 Q 421 700 427 694 Q 436 685 433 666 Q 424 615 412 573 C 404 544 450 534 459 563 Z" fill="lightgray"></path>
    
      <path d="M 355 516 Q 400 523 468 531 Q 480 532 481 542 Q 481 549 459 563 L 412 573 Q 405 573 397 570 Q 325 548 267 537 C 238 531 239 515 268 508 Q 284 504 299 504 L 355 516 Z" fill="lightgray"></path>
    
      <path d="M 304 394 Q 294 394 282 391 Q 197 378 147 378 Q 131 379 129 370 Q 128 361 148 348 Q 172 332 195 339 Q 246 352 299 363 L 349 373 Q 389 380 431 385 Q 447 386 451 378 Q 455 368 453 336 Q 443 222 420 163 Q 408 126 396 114 Q 386 104 363 111 Q 332 124 302 136 Q 281 143 295 123 Q 335 74 357 35 Q 366 14 386 19 Q 401 20 420 40 Q 475 92 505 297 Q 512 343 531 369 Q 547 388 539 398 Q 524 416 492 431 Q 470 444 443 433 Q 404 420 355 406 L 304 394 Z" fill="lightgray"></path>
    
      <path d="M 299 363 Q 268 231 134 65 Q 124 55 113 41 Q 107 32 113 31 Q 120 30 130 36 Q 266 127 312 255 Q 333 304 349 373 L 355 406 Q 359 436 377 485 Q 383 495 375 504 Q 369 510 355 516 C 329 530 292 533 299 504 Q 312 455 304 394 L 299 363 Z" fill="lightgray"></path>
    
      <path d="M 589 584 Q 622 511 601 321 Q 592 285 623 249 Q 633 239 643 250 Q 665 287 661 333 Q 655 490 663 555 Q 669 577 649 589 Q 633 599 615 607 Q 602 611 593 606 Q 584 599 589 584 Z" fill="lightgray"></path>
    
      <path d="M 778 710 Q 784 673 794 104 Q 794 80 781 70 Q 771 63 747 69 Q 719 75 690 80 Q 656 90 659 80 Q 660 73 682 59 Q 757 8 777 -22 Q 799 -58 817 -57 Q 833 -58 846 -21 Q 862 27 857 103 Q 835 350 836 601 Q 837 692 850 740 Q 866 771 808 793 Q 772 812 753 804 Q 734 797 752 773 Q 774 745 778 710 Z" fill="lightgray"></path>
    
    
      <clipPath id="make-me-a-hanzi-clip-0">
        <path d="M 247 698 Q 237 705 201 714 Q 188 718 185 712 Q 178 706 186 690 Q 211 630 223 533 Q 224 505 240 484 Q 256 462 263 477 Q 267 489 268 508 L 267 537 Q 258 627 254 663 C 251 693 250 696 247 698 Z"></path>
      </clipPath>
      <path clip-path="url(#make-me-a-hanzi-clip-0)" d="M 194 704 L 223 675 L 252 484" fill="none" id="make-me-a-hanzi-animation-0" stroke-dasharray="362 724" stroke-linecap="round"></path>
    
      <clipPath id="make-me-a-hanzi-clip-1">
        <path d="M 459 563 Q 484 651 521 679 Q 537 698 522 715 Q 506 728 452 752 Q 433 759 412 750 Q 361 728 247 698 C 218 690 224 659 254 663 Q 273 664 406 696 Q 421 700 427 694 Q 436 685 433 666 Q 424 615 412 573 C 404 544 450 534 459 563 Z"></path>
      </clipPath>
      <path clip-path="url(#make-me-a-hanzi-clip-1)" d="M 256 669 L 268 684 L 282 689 L 417 724 L 449 719 L 475 694 L 445 598 L 419 579" fill="none" id="make-me-a-hanzi-animation-1" stroke-dasharray="503 1006" stroke-linecap="round"></path>
    
      <clipPath id="make-me-a-hanzi-clip-2">
        <path d="M 355 516 Q 400 523 468 531 Q 480 532 481 542 Q 481 549 459 563 L 412 573 Q 405 573 397 570 Q 325 548 267 537 C 238 531 239 515 268 508 Q 284 504 299 504 L 355 516 Z"></path>
      </clipPath>
      <path clip-path="url(#make-me-a-hanzi-clip-2)" d="M 275 530 L 285 523 L 302 524 L 413 549 L 471 542" fill="none" id="make-me-a-hanzi-animation-2" stroke-dasharray="329 658" stroke-linecap="round"></path>
    
      <clipPath id="make-me-a-hanzi-clip-3">
        <path d="M 304 394 Q 294 394 282 391 Q 197 378 147 378 Q 131 379 129 370 Q 128 361 148 348 Q 172 332 195 339 Q 246 352 299 363 L 349 373 Q 389 380 431 385 Q 447 386 451 378 Q 455 368 453 336 Q 443 222 420 163 Q 408 126 396 114 Q 386 104 363 111 Q 332 124 302 136 Q 281 143 295 123 Q 335 74 357 35 Q 366 14 386 19 Q 401 20 420 40 Q 475 92 505 297 Q 512 343 531 369 Q 547 388 539 398 Q 524 416 492 431 Q 470 444 443 433 Q 404 420 355 406 L 304 394 Z"></path>
      </clipPath>
      <path clip-path="url(#make-me-a-hanzi-clip-3)" d="M 138 368 L 185 358 L 429 407 L 458 409 L 483 395 L 491 382 L 470 245 L 452 170 L 426 102 L 407 79 L 386 68 L 305 126" fill="none" id="make-me-a-hanzi-animation-3" stroke-dasharray="940 1880" stroke-linecap="round"></path>
    
      <clipPath id="make-me-a-hanzi-clip-4">
        <path d="M 299 363 Q 268 231 134 65 Q 124 55 113 41 Q 107 32 113 31 Q 120 30 130 36 Q 266 127 312 255 Q 333 304 349 373 L 355 406 Q 359 436 377 485 Q 383 495 375 504 Q 369 510 355 516 C 329 530 292 533 299 504 Q 312 455 304 394 L 299 363 Z"></path>
      </clipPath>
      <path clip-path="url(#make-me-a-hanzi-clip-4)" d="M 308 498 L 339 478 L 329 394 L 298 282 L 268 217 L 231 157 L 170 84 L 116 36" fill="none" id="make-me-a-hanzi-animation-4" stroke-dasharray="675 1350" stroke-linecap="round"></path>
    
      <clipPath id="make-me-a-hanzi-clip-5">
        <path d="M 589 584 Q 622 511 601 321 Q 592 285 623 249 Q 633 239 643 250 Q 665 287 661 333 Q 655 490 663 555 Q 669 577 649 589 Q 633 599 615 607 Q 602 611 593 606 Q 584 599 589 584 Z"></path>
      </clipPath>
      <path clip-path="url(#make-me-a-hanzi-clip-5)" d="M 602 595 L 631 562 L 633 256" fill="none" id="make-me-a-hanzi-animation-5" stroke-dasharray="478 956" stroke-linecap="round"></path>
    
      <clipPath id="make-me-a-hanzi-clip-6">
        <path d="M 778 710 Q 784 673 794 104 Q 794 80 781 70 Q 771 63 747 69 Q 719 75 690 80 Q 656 90 659 80 Q 660 73 682 59 Q 757 8 777 -22 Q 799 -58 817 -57 Q 833 -58 846 -21 Q 862 27 857 103 Q 835 350 836 601 Q 837 692 850 740 Q 866 771 808 793 Q 772 812 753 804 Q 734 797 752 773 Q 774 745 778 710 Z"></path>
      </clipPath>
      <path clip-path="url(#make-me-a-hanzi-clip-6)" d="M 760 788 L 777 780 L 811 748 L 811 461 L 824 75 L 804 25 L 754 39 L 679 72 L 677 78 L 666 78" fill="none" id="make-me-a-hanzi-animation-6" stroke-dasharray="1072 2144" stroke-linecap="round"></path>
    
  </g>
</svg>