<svg version="1.1" viewBox="0 0 1024 1024" xmlns="http://www.w3.org/2000/svg">
  <g stroke="lightgray" stroke-dasharray="1,1" stroke-width="1" transform="scale(4, 4)">
    <line x1="0" y1="0" x2="256" y2="256"></line>
    <line x1="256" y1="0" x2="0" y2="256"></line>
    <line x1="128" y1="0" x2="128" y2="256"></line>
    <line x1="0" y1="128" x2="256" y2="128"></line>
  </g>
  <g transform="scale(1, -1) translate(0, -900)">
    <style type="text/css">
      
        @keyframes keyframes0 {
          from {
            stroke: blue;
            stroke-dashoffset: 510;
            stroke-width: 128;
          }
          62% {
            animation-timing-function: step-end;
            stroke: blue;
            stroke-dashoffset: 0;
            stroke-width: 128;
          }
          to {
            stroke: black;
            stroke-width: 1024;
          }
        }
        #make-me-a-hanzi-animation-0 {
          animation: keyframes0 0.6650390625s both;
          animation-delay: 0s;
          animation-timing-function: linear;
        }
      
        @keyframes keyframes1 {
          from {
            stroke: blue;
            stroke-dashoffset: 516;
            stroke-width: 128;
          }
          63% {
            animation-timing-function: step-end;
            stroke: blue;
            stroke-dashoffset: 0;
            stroke-width: 128;
          }
          to {
            stroke: black;
            stroke-width: 1024;
          }
        }
        #make-me-a-hanzi-animation-1 {
          animation: keyframes1 0.669921875s both;
          animation-delay: 0.6650390625s;
          animation-timing-function: linear;
        }
      
        @keyframes keyframes2 {
          from {
            stroke: blue;
            stroke-dashoffset: 731;
            stroke-width: 128;
          }
          70% {
            animation-timing-function: step-end;
            stroke: blue;
            stroke-dashoffset: 0;
            stroke-width: 128;
          }
          to {
            stroke: black;
            stroke-width: 1024;
          }
        }
        #make-me-a-hanzi-animation-2 {
          animation: keyframes2 0.8448893229166666s both;
          animation-delay: 1.3349609375s;
          animation-timing-function: linear;
        }
      
        @keyframes keyframes3 {
          from {
            stroke: blue;
            stroke-dashoffset: 504;
            stroke-width: 128;
          }
          62% {
            animation-timing-function: step-end;
            stroke: blue;
            stroke-dashoffset: 0;
            stroke-width: 128;
          }
          to {
            stroke: black;
            stroke-width: 1024;
          }
        }
        #make-me-a-hanzi-animation-3 {
          animation: keyframes3 0.66015625s both;
          animation-delay: 2.1798502604166665s;
          animation-timing-function: linear;
        }
      
        @keyframes keyframes4 {
          from {
            stroke: blue;
            stroke-dashoffset: 817;
            stroke-width: 128;
          }
          73% {
            animation-timing-function: step-end;
            stroke: blue;
            stroke-dashoffset: 0;
            stroke-width: 128;
          }
          to {
            stroke: black;
            stroke-width: 1024;
          }
        }
        #make-me-a-hanzi-animation-4 {
          animation: keyframes4 0.9148763020833334s both;
          animation-delay: 2.8400065104166665s;
          animation-timing-function: linear;
        }
      
        @keyframes keyframes5 {
          from {
            stroke: blue;
            stroke-dashoffset: 1097;
            stroke-width: 128;
          }
          78% {
            animation-timing-function: step-end;
            stroke: blue;
            stroke-dashoffset: 0;
            stroke-width: 128;
          }
          to {
            stroke: black;
            stroke-width: 1024;
          }
        }
        #make-me-a-hanzi-animation-5 {
          animation: keyframes5 1.1427408854166667s both;
          animation-delay: 3.7548828125s;
          animation-timing-function: linear;
        }
      
        @keyframes keyframes6 {
          from {
            stroke: blue;
            stroke-dashoffset: 579;
            stroke-width: 128;
          }
          65% {
            animation-timing-function: step-end;
            stroke: blue;
            stroke-dashoffset: 0;
            stroke-width: 128;
          }
          to {
            stroke: black;
            stroke-width: 1024;
          }
        }
        #make-me-a-hanzi-animation-6 {
          animation: keyframes6 0.72119140625s both;
          animation-delay: 4.897623697916667s;
          animation-timing-function: linear;
        }
      
        @keyframes keyframes7 {
          from {
            stroke: blue;
            stroke-dashoffset: 1150;
            stroke-width: 128;
          }
          79% {
            animation-timing-function: step-end;
            stroke: blue;
            stroke-dashoffset: 0;
            stroke-width: 128;
          }
          to {
            stroke: black;
            stroke-width: 1024;
          }
        }
        #make-me-a-hanzi-animation-7 {
          animation: keyframes7 1.1858723958333333s both;
          animation-delay: 5.618815104166667s;
          animation-timing-function: linear;
        }
      
    </style>
    
      <path d="M 275 618 Q 278 633 315 685 Q 322 697 309 708 Q 270 736 248 731 Q 238 730 241 716 Q 253 653 186 552 Q 180 552 156 515 Q 150 502 163 506 Q 208 515 262 597 L 275 618 Z" fill="lightgray"></path>
    
      <path d="M 420 606 Q 456 616 494 625 Q 527 634 532 638 Q 539 645 535 653 Q 528 663 501 670 Q 477 673 422 653 L 380 640 Q 373 639 369 637 Q 326 627 275 618 C 245 613 235 609 262 597 Q 304 576 355 592 Q 365 595 380 597 L 420 606 Z" fill="lightgray"></path>
    
      <path d="M 417 469 Q 423 470 574 494 Q 584 493 593 506 Q 594 518 571 527 Q 541 549 455 521 Q 436 517 418 511 L 379 502 Q 289 481 120 457 Q 92 453 114 436 Q 148 411 175 418 Q 263 439 377 461 L 417 469 Z" fill="lightgray"></path>
    
      <path d="M 269 355 Q 248 376 220 372 Q 208 368 214 358 Q 245 294 218 198 Q 194 164 228 121 L 230 119 Q 236 107 244 113 Q 271 132 271 224 Q 271 296 275 321 C 278 347 278 347 269 355 Z" fill="lightgray"></path>
    
      <path d="M 275 321 Q 314 330 373 341 L 414 348 Q 448 355 484 358 Q 512 359 514 341 Q 523 220 510 204 Q 503 198 455 203 Q 439 206 437 201 Q 434 197 445 187 Q 493 153 521 125 Q 536 113 548 127 Q 570 158 572 221 Q 566 296 574 348 Q 578 367 568 377 Q 541 399 524 409 Q 511 415 503 406 Q 497 399 415 379 L 374 371 Q 334 367 269 355 C 239 350 246 314 275 321 Z" fill="lightgray"></path>
    
      <path d="M 373 341 Q 367 185 348 110 Q 336 98 339 60 Q 339 47 358 5 Q 364 -11 371 -15 Q 377 -21 384 -14 Q 391 -10 401 10 Q 411 34 410 63 Q 409 100 414 348 L 415 379 Q 415 422 417 469 L 418 511 Q 418 559 420 606 L 422 653 Q 426 710 440 753 Q 449 766 446 780 Q 439 789 387 821 Q 365 837 346 823 Q 342 819 347 804 Q 380 755 380 705 Q 380 674 380 640 L 380 597 Q 380 519 379 502 L 377 461 Q 376 418 374 371 L 373 341 Z" fill="lightgray"></path>
    
      <path d="M 624 591 Q 654 527 632 352 Q 625 319 652 286 Q 662 276 670 286 Q 685 310 687 383 Q 687 530 692 563 Q 698 584 679 595 Q 639 617 628 611 Q 621 604 624 591 Z" fill="lightgray"></path>
    
      <path d="M 789 726 Q 793 690 789 145 Q 788 123 776 113 Q 770 107 701 120 Q 668 130 671 121 Q 672 114 693 99 Q 756 51 772 23 Q 791 -10 807 -11 Q 822 -11 835 23 Q 853 69 850 142 Q 834 380 842 620 Q 846 708 859 753 Q 875 784 820 805 Q 786 824 767 817 Q 749 810 766 787 Q 787 760 789 726 Z" fill="lightgray"></path>
    
    
      <clipPath id="make-me-a-hanzi-clip-0">
        <path d="M 275 618 Q 278 633 315 685 Q 322 697 309 708 Q 270 736 248 731 Q 238 730 241 716 Q 253 653 186 552 Q 180 552 156 515 Q 150 502 163 506 Q 208 515 262 597 L 275 618 Z"></path>
      </clipPath>
      <path clip-path="url(#make-me-a-hanzi-clip-0)" d="M 249 721 L 277 689 L 272 673 L 229 583 L 200 544 L 168 522 L 166 515" fill="none" id="make-me-a-hanzi-animation-0" stroke-dasharray="382 764" stroke-linecap="round"></path>
    
      <clipPath id="make-me-a-hanzi-clip-1">
        <path d="M 420 606 Q 456 616 494 625 Q 527 634 532 638 Q 539 645 535 653 Q 528 663 501 670 Q 477 673 422 653 L 380 640 Q 373 639 369 637 Q 326 627 275 618 C 245 613 235 609 262 597 Q 304 576 355 592 Q 365 595 380 597 L 420 606 Z"></path>
      </clipPath>
      <path clip-path="url(#make-me-a-hanzi-clip-1)" d="M 271 599 L 284 605 L 342 609 L 489 648 L 524 647" fill="none" id="make-me-a-hanzi-animation-1" stroke-dasharray="388 776" stroke-linecap="round"></path>
    
      <clipPath id="make-me-a-hanzi-clip-2">
        <path d="M 417 469 Q 423 470 574 494 Q 584 493 593 506 Q 594 518 571 527 Q 541 549 455 521 Q 436 517 418 511 L 379 502 Q 289 481 120 457 Q 92 453 114 436 Q 148 411 175 418 Q 263 439 377 461 L 417 469 Z"></path>
      </clipPath>
      <path clip-path="url(#make-me-a-hanzi-clip-2)" d="M 115 447 L 166 440 L 491 507 L 544 513 L 582 508" fill="none" id="make-me-a-hanzi-animation-2" stroke-dasharray="603 1206" stroke-linecap="round"></path>
    
      <clipPath id="make-me-a-hanzi-clip-3">
        <path d="M 269 355 Q 248 376 220 372 Q 208 368 214 358 Q 245 294 218 198 Q 194 164 228 121 L 230 119 Q 236 107 244 113 Q 271 132 271 224 Q 271 296 275 321 C 278 347 278 347 269 355 Z"></path>
      </clipPath>
      <path clip-path="url(#make-me-a-hanzi-clip-3)" d="M 227 361 L 246 342 L 251 323 L 248 214 L 237 156 L 240 123" fill="none" id="make-me-a-hanzi-animation-3" stroke-dasharray="376 752" stroke-linecap="round"></path>
    
      <clipPath id="make-me-a-hanzi-clip-4">
        <path d="M 275 321 Q 314 330 373 341 L 414 348 Q 448 355 484 358 Q 512 359 514 341 Q 523 220 510 204 Q 503 198 455 203 Q 439 206 437 201 Q 434 197 445 187 Q 493 153 521 125 Q 536 113 548 127 Q 570 158 572 221 Q 566 296 574 348 Q 578 367 568 377 Q 541 399 524 409 Q 511 415 503 406 Q 497 399 415 379 L 374 371 Q 334 367 269 355 C 239 350 246 314 275 321 Z"></path>
      </clipPath>
      <path clip-path="url(#make-me-a-hanzi-clip-4)" d="M 280 328 L 289 341 L 316 347 L 455 374 L 522 377 L 543 357 L 544 345 L 545 228 L 537 186 L 527 171 L 519 172 L 442 199" fill="none" id="make-me-a-hanzi-animation-4" stroke-dasharray="689 1378" stroke-linecap="round"></path>
    
      <clipPath id="make-me-a-hanzi-clip-5">
        <path d="M 373 341 Q 367 185 348 110 Q 336 98 339 60 Q 339 47 358 5 Q 364 -11 371 -15 Q 377 -21 384 -14 Q 391 -10 401 10 Q 411 34 410 63 Q 409 100 414 348 L 415 379 Q 415 422 417 469 L 418 511 Q 418 559 420 606 L 422 653 Q 426 710 440 753 Q 449 766 446 780 Q 439 789 387 821 Q 365 837 346 823 Q 342 819 347 804 Q 380 755 380 705 Q 380 674 380 640 L 380 597 Q 380 519 379 502 L 377 461 Q 376 418 374 371 L 373 341 Z"></path>
      </clipPath>
      <path clip-path="url(#make-me-a-hanzi-clip-5)" d="M 357 817 L 406 766 L 392 260 L 374 77 L 377 -3" fill="none" id="make-me-a-hanzi-animation-5" stroke-dasharray="969 1938" stroke-linecap="round"></path>
    
      <clipPath id="make-me-a-hanzi-clip-6">
        <path d="M 624 591 Q 654 527 632 352 Q 625 319 652 286 Q 662 276 670 286 Q 685 310 687 383 Q 687 530 692 563 Q 698 584 679 595 Q 639 617 628 611 Q 621 604 624 591 Z"></path>
      </clipPath>
      <path clip-path="url(#make-me-a-hanzi-clip-6)" d="M 633 603 L 663 570 L 665 439 L 657 335 L 661 292" fill="none" id="make-me-a-hanzi-animation-6" stroke-dasharray="451 902" stroke-linecap="round"></path>
    
      <clipPath id="make-me-a-hanzi-clip-7">
        <path d="M 789 726 Q 793 690 789 145 Q 788 123 776 113 Q 770 107 701 120 Q 668 130 671 121 Q 672 114 693 99 Q 756 51 772 23 Q 791 -10 807 -11 Q 822 -11 835 23 Q 853 69 850 142 Q 834 380 842 620 Q 846 708 859 753 Q 875 784 820 805 Q 786 824 767 817 Q 749 810 766 787 Q 787 760 789 726 Z"></path>
      </clipPath>
      <path clip-path="url(#make-me-a-hanzi-clip-7)" d="M 774 802 L 790 794 L 822 762 L 814 494 L 819 132 L 814 101 L 798 70 L 730 94 L 690 112 L 688 119 L 677 119" fill="none" id="make-me-a-hanzi-animation-7" stroke-dasharray="1022 2044" stroke-linecap="round"></path>
    
  </g>
</svg>