<svg version="1.1" viewBox="0 0 1024 1024" xmlns="http://www.w3.org/2000/svg">
  <g stroke="lightgray" stroke-dasharray="1,1" stroke-width="1" transform="scale(4, 4)">
    <line x1="0" y1="0" x2="256" y2="256"></line>
    <line x1="256" y1="0" x2="0" y2="256"></line>
    <line x1="128" y1="0" x2="128" y2="256"></line>
    <line x1="0" y1="128" x2="256" y2="128"></line>
  </g>
  <g transform="scale(1, -1) translate(0, -900)">
    <style type="text/css">
      
        @keyframes keyframes0 {
          from {
            stroke: blue;
            stroke-dashoffset: 707;
            stroke-width: 128;
          }
          70% {
            animation-timing-function: step-end;
            stroke: blue;
            stroke-dashoffset: 0;
            stroke-width: 128;
          }
          to {
            stroke: black;
            stroke-width: 1024;
          }
        }
        #make-me-a-hanzi-animation-0 {
          animation: keyframes0 0.8253580729166666s both;
          animation-delay: 0s;
          animation-timing-function: linear;
        }
      
        @keyframes keyframes1 {
          from {
            stroke: blue;
            stroke-dashoffset: 1523;
            stroke-width: 128;
          }
          83% {
            animation-timing-function: step-end;
            stroke: blue;
            stroke-dashoffset: 0;
            stroke-width: 128;
          }
          to {
            stroke: black;
            stroke-width: 1024;
          }
        }
        #make-me-a-hanzi-animation-1 {
          animation: keyframes1 1.4894205729166667s both;
          animation-delay: 0.8253580729166666s;
          animation-timing-function: linear;
        }
      
        @keyframes keyframes2 {
          from {
            stroke: blue;
            stroke-dashoffset: 661;
            stroke-width: 128;
          }
          68% {
            animation-timing-function: step-end;
            stroke: blue;
            stroke-dashoffset: 0;
            stroke-width: 128;
          }
          to {
            stroke: black;
            stroke-width: 1024;
          }
        }
        #make-me-a-hanzi-animation-2 {
          animation: keyframes2 0.7879231770833334s both;
          animation-delay: 2.3147786458333335s;
          animation-timing-function: linear;
        }
      
        @keyframes keyframes3 {
          from {
            stroke: blue;
            stroke-dashoffset: 878;
            stroke-width: 128;
          }
          74% {
            animation-timing-function: step-end;
            stroke: blue;
            stroke-dashoffset: 0;
            stroke-width: 128;
          }
          to {
            stroke: black;
            stroke-width: 1024;
          }
        }
        #make-me-a-hanzi-animation-3 {
          animation: keyframes3 0.9645182291666666s both;
          animation-delay: 3.102701822916667s;
          animation-timing-function: linear;
        }
      
    </style>
    
      <path d="M 306 564 Q 352 619 402 700 Q 423 739 442 758 Q 452 770 446 785 Q 442 798 409 823 Q 379 842 358 842 Q 337 839 347 815 Q 371 770 284 619 Q 244 550 186 474 Q 176 462 173 456 Q 170 443 185 446 Q 215 452 289 539 L 306 564 Z" fill="lightgray"></path>
    
      <path d="M 600 570 Q 630 585 733 585 Q 758 585 765 574 Q 780 513 723 287 Q 693 176 642 107 Q 620 73 596 73 Q 583 72 515 108 Q 505 114 503 107 Q 502 103 512 90 Q 548 33 561 -6 Q 568 -30 582 -32 Q 604 -36 630 -17 Q 723 38 766 197 Q 800 306 834 474 Q 840 513 869 538 Q 885 553 885 562 Q 884 572 864 589 Q 836 616 795 632 Q 771 644 699 624 Q 396 572 306 564 C 276 561 259 544 289 539 Q 326 527 369 536 Q 379 537 391 538 L 413 541 Q 492 554 562 565 L 600 570 Z" fill="lightgray"></path>
    
      <path d="M 391 538 Q 390 535 391 529 Q 418 441 201 230 Q 194 226 203 224 Q 246 224 348 329 Q 354 338 363 347 Q 397 390 450 474 Q 457 486 462 490 Q 468 494 466 504 Q 465 513 454 523 Q 445 530 413 541 C 390 549 390 549 391 538 Z" fill="lightgray"></path>
    
      <path d="M 562 565 Q 562 564 563 561 Q 584 489 458 275 Q 386 172 284 85 Q 277 81 272 74 Q 266 64 278 63 Q 311 60 416 146 Q 428 158 443 172 Q 536 274 619 462 Q 644 508 645 515 Q 645 516 645 517 Q 623 559 600 570 C 576 587 556 594 562 565 Z" fill="lightgray"></path>
    
    
      <clipPath id="make-me-a-hanzi-clip-0">
        <path d="M 306 564 Q 352 619 402 700 Q 423 739 442 758 Q 452 770 446 785 Q 442 798 409 823 Q 379 842 358 842 Q 337 839 347 815 Q 371 770 284 619 Q 244 550 186 474 Q 176 462 173 456 Q 170 443 185 446 Q 215 452 289 539 L 306 564 Z"></path>
      </clipPath>
      <path clip-path="url(#make-me-a-hanzi-clip-0)" d="M 359 826 L 385 799 L 396 772 L 369 711 L 265 544 L 183 455" fill="none" id="make-me-a-hanzi-animation-0" stroke-dasharray="579 1158" stroke-linecap="round"></path>
    
      <clipPath id="make-me-a-hanzi-clip-1">
        <path d="M 600 570 Q 630 585 733 585 Q 758 585 765 574 Q 780 513 723 287 Q 693 176 642 107 Q 620 73 596 73 Q 583 72 515 108 Q 505 114 503 107 Q 502 103 512 90 Q 548 33 561 -6 Q 568 -30 582 -32 Q 604 -36 630 -17 Q 723 38 766 197 Q 800 306 834 474 Q 840 513 869 538 Q 885 553 885 562 Q 884 572 864 589 Q 836 616 795 632 Q 771 644 699 624 Q 396 572 306 564 C 276 561 259 544 289 539 Q 326 527 369 536 Q 379 537 391 538 L 413 541 Q 492 554 562 565 L 600 570 Z"></path>
      </clipPath>
      <path clip-path="url(#make-me-a-hanzi-clip-1)" d="M 297 543 L 494 571 L 621 596 L 748 610 L 789 599 L 814 569 L 818 558 L 755 278 L 724 179 L 679 89 L 639 43 L 603 24 L 509 105" fill="none" id="make-me-a-hanzi-animation-1" stroke-dasharray="1395 2790" stroke-linecap="round"></path>
    
      <clipPath id="make-me-a-hanzi-clip-2">
        <path d="M 391 538 Q 390 535 391 529 Q 418 441 201 230 Q 194 226 203 224 Q 246 224 348 329 Q 354 338 363 347 Q 397 390 450 474 Q 457 486 462 490 Q 468 494 466 504 Q 465 513 454 523 Q 445 530 413 541 C 390 549 390 549 391 538 Z"></path>
      </clipPath>
      <path clip-path="url(#make-me-a-hanzi-clip-2)" d="M 397 534 L 427 500 L 389 419 L 312 317 L 248 257 L 220 237 L 211 238 L 206 228" fill="none" id="make-me-a-hanzi-animation-2" stroke-dasharray="533 1066" stroke-linecap="round"></path>
    
      <clipPath id="make-me-a-hanzi-clip-3">
        <path d="M 562 565 Q 562 564 563 561 Q 584 489 458 275 Q 386 172 284 85 Q 277 81 272 74 Q 266 64 278 63 Q 311 60 416 146 Q 428 158 443 172 Q 536 274 619 462 Q 644 508 645 515 Q 645 516 645 517 Q 623 559 600 570 C 576 587 556 594 562 565 Z"></path>
      </clipPath>
      <path clip-path="url(#make-me-a-hanzi-clip-3)" d="M 569 565 L 595 539 L 603 514 L 566 417 L 507 303 L 460 233 L 393 155 L 333 104 L 281 72" fill="none" id="make-me-a-hanzi-animation-3" stroke-dasharray="750 1500" stroke-linecap="round"></path>
    
  </g>
</svg>