<svg version="1.1" viewBox="0 0 1024 1024" xmlns="http://www.w3.org/2000/svg">
  <g stroke="lightgray" stroke-dasharray="1,1" stroke-width="1" transform="scale(4, 4)">
    <line x1="0" y1="0" x2="256" y2="256"></line>
    <line x1="256" y1="0" x2="0" y2="256"></line>
    <line x1="128" y1="0" x2="128" y2="256"></line>
    <line x1="0" y1="128" x2="256" y2="128"></line>
  </g>
  <g transform="scale(1, -1) translate(0, -900)">
    <style type="text/css">
      
        @keyframes keyframes0 {
          from {
            stroke: blue;
            stroke-dashoffset: 632;
            stroke-width: 128;
          }
          67% {
            animation-timing-function: step-end;
            stroke: blue;
            stroke-dashoffset: 0;
            stroke-width: 128;
          }
          to {
            stroke: black;
            stroke-width: 1024;
          }
        }
        #make-me-a-hanzi-animation-0 {
          animation: keyframes0 0.7643229166666666s both;
          animation-delay: 0s;
          animation-timing-function: linear;
        }
      
        @keyframes keyframes1 {
          from {
            stroke: blue;
            stroke-dashoffset: 1546;
            stroke-width: 128;
          }
          83% {
            animation-timing-function: step-end;
            stroke: blue;
            stroke-dashoffset: 0;
            stroke-width: 128;
          }
          to {
            stroke: black;
            stroke-width: 1024;
          }
        }
        #make-me-a-hanzi-animation-1 {
          animation: keyframes1 1.5081380208333333s both;
          animation-delay: 0.7643229166666666s;
          animation-timing-function: linear;
        }
      
        @keyframes keyframes2 {
          from {
            stroke: blue;
            stroke-dashoffset: 468;
            stroke-width: 128;
          }
          60% {
            animation-timing-function: step-end;
            stroke: blue;
            stroke-dashoffset: 0;
            stroke-width: 128;
          }
          to {
            stroke: black;
            stroke-width: 1024;
          }
        }
        #make-me-a-hanzi-animation-2 {
          animation: keyframes2 0.630859375s both;
          animation-delay: 2.2724609375s;
          animation-timing-function: linear;
        }
      
        @keyframes keyframes3 {
          from {
            stroke: blue;
            stroke-dashoffset: 500;
            stroke-width: 128;
          }
          62% {
            animation-timing-function: step-end;
            stroke: blue;
            stroke-dashoffset: 0;
            stroke-width: 128;
          }
          to {
            stroke: black;
            stroke-width: 1024;
          }
        }
        #make-me-a-hanzi-animation-3 {
          animation: keyframes3 0.6569010416666666s both;
          animation-delay: 2.9033203125s;
          animation-timing-function: linear;
        }
      
        @keyframes keyframes4 {
          from {
            stroke: blue;
            stroke-dashoffset: 798;
            stroke-width: 128;
          }
          72% {
            animation-timing-function: step-end;
            stroke: blue;
            stroke-dashoffset: 0;
            stroke-width: 128;
          }
          to {
            stroke: black;
            stroke-width: 1024;
          }
        }
        #make-me-a-hanzi-animation-4 {
          animation: keyframes4 0.8994140625s both;
          animation-delay: 3.5602213541666665s;
          animation-timing-function: linear;
        }
      
        @keyframes keyframes5 {
          from {
            stroke: blue;
            stroke-dashoffset: 550;
            stroke-width: 128;
          }
          64% {
            animation-timing-function: step-end;
            stroke: blue;
            stroke-dashoffset: 0;
            stroke-width: 128;
          }
          to {
            stroke: black;
            stroke-width: 1024;
          }
        }
        #make-me-a-hanzi-animation-5 {
          animation: keyframes5 0.6975911458333334s both;
          animation-delay: 4.459635416666666s;
          animation-timing-function: linear;
        }
      
        @keyframes keyframes6 {
          from {
            stroke: blue;
            stroke-dashoffset: 717;
            stroke-width: 128;
          }
          70% {
            animation-timing-function: step-end;
            stroke: blue;
            stroke-dashoffset: 0;
            stroke-width: 128;
          }
          to {
            stroke: black;
            stroke-width: 1024;
          }
        }
        #make-me-a-hanzi-animation-6 {
          animation: keyframes6 0.83349609375s both;
          animation-delay: 5.157226562499999s;
          animation-timing-function: linear;
        }
      
        @keyframes keyframes7 {
          from {
            stroke: blue;
            stroke-dashoffset: 466;
            stroke-width: 128;
          }
          60% {
            animation-timing-function: step-end;
            stroke: blue;
            stroke-dashoffset: 0;
            stroke-width: 128;
          }
          to {
            stroke: black;
            stroke-width: 1024;
          }
        }
        #make-me-a-hanzi-animation-7 {
          animation: keyframes7 0.6292317708333334s both;
          animation-delay: 5.990722656249999s;
          animation-timing-function: linear;
        }
      
    </style>
    
      <path d="M 356 630 Q 440 748 441 749 Q 440 753 439 758 Q 435 771 405 796 Q 377 815 358 815 Q 339 814 347 790 Q 357 769 350 751 Q 328 690 292 632 Q 258 577 211 516 Q 201 506 198 499 Q 194 487 209 490 Q 245 493 342 612 L 356 630 Z" fill="lightgray"></path>
    
      <path d="M 342 612 Q 397 599 437 607 Q 734 653 748 645 Q 749 644 751 641 Q 770 608 764 371 Q 755 197 707 96 Q 689 56 662 47 Q 646 43 562 71 Q 552 74 551 67 Q 550 63 563 52 Q 615 0 638 -37 Q 651 -61 666 -60 Q 727 -48 779 63 Q 830 183 839 549 Q 838 592 863 622 Q 878 638 877 647 Q 868 680 779 707 Q 754 716 677 691 Q 655 687 626 679 Q 478 645 356 630 C 326 626 312 617 342 612 Z" fill="lightgray"></path>
    
      <path d="M 377 492 Q 393 514 409 532 Q 419 542 407 555 Q 376 586 351 584 Q 341 583 342 570 Q 351 510 280 435 Q 265 422 257 410 Q 250 397 263 401 Q 305 407 362 472 L 377 492 Z" fill="lightgray"></path>
    
      <path d="M 472 466 Q 607 500 612 505 Q 621 512 616 521 Q 609 531 580 538 Q 550 542 522 529 Q 491 517 457 508 Q 420 498 377 492 C 347 488 335 485 362 472 Q 363 472 366 470 Q 399 455 429 458 L 472 466 Z" fill="lightgray"></path>
    
      <path d="M 495 343 Q 565 353 658 356 Q 715 360 721 367 Q 725 379 709 391 Q 652 430 594 407 Q 552 398 497 384 L 442 373 Q 432 372 426 370 Q 314 348 183 325 Q 164 322 178 307 Q 206 282 244 292 Q 355 329 443 336 L 495 343 Z" fill="lightgray"></path>
    
      <path d="M 486 183 Q 490 271 495 343 L 497 384 Q 497 394 500 416 Q 509 441 472 466 C 448 484 417 485 429 458 Q 441 437 442 373 L 443 336 Q 443 279 443 174 C 443 144 485 153 486 183 Z" fill="lightgray"></path>
    
      <path d="M 599 201 Q 538 195 486 183 L 443 174 Q 385 164 337 147 Q 321 144 326 162 Q 330 184 336 208 Q 342 230 333 245 Q 320 263 298 277 Q 288 284 277 282 Q 267 279 273 260 Q 286 220 278 183 Q 271 146 256 131 Q 237 115 244 101 Q 254 86 271 76 Q 284 67 294 76 Q 327 110 502 151 Q 572 167 594 162 C 624 160 629 204 599 201 Z" fill="lightgray"></path>
    
      <path d="M 594 162 Q 588 150 595 132 Q 599 113 609 102 Q 616 92 626 102 Q 638 118 645 175 Q 645 217 656 268 Q 663 287 645 299 Q 632 309 617 317 Q 607 321 597 317 Q 588 311 600 272 Q 600 208 599 201 L 594 162 Z" fill="lightgray"></path>
    
    
      <clipPath id="make-me-a-hanzi-clip-0">
        <path d="M 356 630 Q 440 748 441 749 Q 440 753 439 758 Q 435 771 405 796 Q 377 815 358 815 Q 339 814 347 790 Q 357 769 350 751 Q 328 690 292 632 Q 258 577 211 516 Q 201 506 198 499 Q 194 487 209 490 Q 245 493 342 612 L 356 630 Z"></path>
      </clipPath>
      <path clip-path="url(#make-me-a-hanzi-clip-0)" d="M 358 800 L 389 764 L 392 752 L 382 731 L 342 657 L 301 599 L 244 530 L 207 499" fill="none" id="make-me-a-hanzi-animation-0" stroke-dasharray="504 1008" stroke-linecap="round"></path>
    
      <clipPath id="make-me-a-hanzi-clip-1">
        <path d="M 342 612 Q 397 599 437 607 Q 734 653 748 645 Q 749 644 751 641 Q 770 608 764 371 Q 755 197 707 96 Q 689 56 662 47 Q 646 43 562 71 Q 552 74 551 67 Q 550 63 563 52 Q 615 0 638 -37 Q 651 -61 666 -60 Q 727 -48 779 63 Q 830 183 839 549 Q 838 592 863 622 Q 878 638 877 647 Q 868 680 779 707 Q 754 716 677 691 Q 655 687 626 679 Q 478 645 356 630 C 326 626 312 617 342 612 Z"></path>
      </clipPath>
      <path clip-path="url(#make-me-a-hanzi-clip-1)" d="M 351 612 L 364 620 L 415 620 L 504 633 L 741 677 L 778 669 L 809 639 L 801 574 L 802 471 L 790 280 L 768 154 L 739 70 L 710 27 L 675 -2 L 577 53 L 572 62 L 557 66" fill="none" id="make-me-a-hanzi-animation-1" stroke-dasharray="1418 2836" stroke-linecap="round"></path>
    
      <clipPath id="make-me-a-hanzi-clip-2">
        <path d="M 377 492 Q 393 514 409 532 Q 419 542 407 555 Q 376 586 351 584 Q 341 583 342 570 Q 351 510 280 435 Q 265 422 257 410 Q 250 397 263 401 Q 305 407 362 472 L 377 492 Z"></path>
      </clipPath>
      <path clip-path="url(#make-me-a-hanzi-clip-2)" d="M 352 573 L 364 562 L 373 538 L 361 512 L 306 438 L 266 410" fill="none" id="make-me-a-hanzi-animation-2" stroke-dasharray="340 680" stroke-linecap="round"></path>
    
      <clipPath id="make-me-a-hanzi-clip-3">
        <path d="M 472 466 Q 607 500 612 505 Q 621 512 616 521 Q 609 531 580 538 Q 550 542 522 529 Q 491 517 457 508 Q 420 498 377 492 C 347 488 335 485 362 472 Q 363 472 366 470 Q 399 455 429 458 L 472 466 Z"></path>
      </clipPath>
      <path clip-path="url(#make-me-a-hanzi-clip-3)" d="M 367 476 L 422 478 L 480 489 L 549 512 L 606 515" fill="none" id="make-me-a-hanzi-animation-3" stroke-dasharray="372 744" stroke-linecap="round"></path>
    
      <clipPath id="make-me-a-hanzi-clip-4">
        <path d="M 495 343 Q 565 353 658 356 Q 715 360 721 367 Q 725 379 709 391 Q 652 430 594 407 Q 552 398 497 384 L 442 373 Q 432 372 426 370 Q 314 348 183 325 Q 164 322 178 307 Q 206 282 244 292 Q 355 329 443 336 L 495 343 Z"></path>
      </clipPath>
      <path clip-path="url(#make-me-a-hanzi-clip-4)" d="M 181 316 L 233 311 L 350 339 L 621 385 L 678 382 L 714 372" fill="none" id="make-me-a-hanzi-animation-4" stroke-dasharray="670 1340" stroke-linecap="round"></path>
    
      <clipPath id="make-me-a-hanzi-clip-5">
        <path d="M 486 183 Q 490 271 495 343 L 497 384 Q 497 394 500 416 Q 509 441 472 466 C 448 484 417 485 429 458 Q 441 437 442 373 L 443 336 Q 443 279 443 174 C 443 144 485 153 486 183 Z"></path>
      </clipPath>
      <path clip-path="url(#make-me-a-hanzi-clip-5)" d="M 437 457 L 470 426 L 466 208 L 449 183" fill="none" id="make-me-a-hanzi-animation-5" stroke-dasharray="422 844" stroke-linecap="round"></path>
    
      <clipPath id="make-me-a-hanzi-clip-6">
        <path d="M 599 201 Q 538 195 486 183 L 443 174 Q 385 164 337 147 Q 321 144 326 162 Q 330 184 336 208 Q 342 230 333 245 Q 320 263 298 277 Q 288 284 277 282 Q 267 279 273 260 Q 286 220 278 183 Q 271 146 256 131 Q 237 115 244 101 Q 254 86 271 76 Q 284 67 294 76 Q 327 110 502 151 Q 572 167 594 162 C 624 160 629 204 599 201 Z"></path>
      </clipPath>
      <path clip-path="url(#make-me-a-hanzi-clip-6)" d="M 282 272 L 309 229 L 297 130 L 304 123 L 334 124 L 407 148 L 578 181 L 592 195" fill="none" id="make-me-a-hanzi-animation-6" stroke-dasharray="589 1178" stroke-linecap="round"></path>
    
      <clipPath id="make-me-a-hanzi-clip-7">
        <path d="M 594 162 Q 588 150 595 132 Q 599 113 609 102 Q 616 92 626 102 Q 638 118 645 175 Q 645 217 656 268 Q 663 287 645 299 Q 632 309 617 317 Q 607 321 597 317 Q 588 311 600 272 Q 600 208 599 201 L 594 162 Z"></path>
      </clipPath>
      <path clip-path="url(#make-me-a-hanzi-clip-7)" d="M 604 309 L 628 276 L 616 145 L 618 107" fill="none" id="make-me-a-hanzi-animation-7" stroke-dasharray="338 676" stroke-linecap="round"></path>
    
  </g>
</svg>