<svg version="1.1" viewBox="0 0 1024 1024" xmlns="http://www.w3.org/2000/svg">
  <g stroke="lightgray" stroke-dasharray="1,1" stroke-width="1" transform="scale(4, 4)">
    <line x1="0" y1="0" x2="256" y2="256"></line>
    <line x1="256" y1="0" x2="0" y2="256"></line>
    <line x1="128" y1="0" x2="128" y2="256"></line>
    <line x1="0" y1="128" x2="256" y2="128"></line>
  </g>
  <g transform="scale(1, -1) translate(0, -900)">
    <style type="text/css">
      
        @keyframes keyframes0 {
          from {
            stroke: blue;
            stroke-dashoffset: 555;
            stroke-width: 128;
          }
          64% {
            animation-timing-function: step-end;
            stroke: blue;
            stroke-dashoffset: 0;
            stroke-width: 128;
          }
          to {
            stroke: black;
            stroke-width: 1024;
          }
        }
        #make-me-a-hanzi-animation-0 {
          animation: keyframes0 0.70166015625s both;
          animation-delay: 0s;
          animation-timing-function: linear;
        }
      
        @keyframes keyframes1 {
          from {
            stroke: blue;
            stroke-dashoffset: 847;
            stroke-width: 128;
          }
          73% {
            animation-timing-function: step-end;
            stroke: blue;
            stroke-dashoffset: 0;
            stroke-width: 128;
          }
          to {
            stroke: black;
            stroke-width: 1024;
          }
        }
        #make-me-a-hanzi-animation-1 {
          animation: keyframes1 0.9392903645833334s both;
          animation-delay: 0.70166015625s;
          animation-timing-function: linear;
        }
      
        @keyframes keyframes2 {
          from {
            stroke: blue;
            stroke-dashoffset: 367;
            stroke-width: 128;
          }
          54% {
            animation-timing-function: step-end;
            stroke: blue;
            stroke-dashoffset: 0;
            stroke-width: 128;
          }
          to {
            stroke: black;
            stroke-width: 1024;
          }
        }
        #make-me-a-hanzi-animation-2 {
          animation: keyframes2 0.5486653645833334s both;
          animation-delay: 1.6409505208333335s;
          animation-timing-function: linear;
        }
      
        @keyframes keyframes3 {
          from {
            stroke: blue;
            stroke-dashoffset: 954;
            stroke-width: 128;
          }
          76% {
            animation-timing-function: step-end;
            stroke: blue;
            stroke-dashoffset: 0;
            stroke-width: 128;
          }
          to {
            stroke: black;
            stroke-width: 1024;
          }
        }
        #make-me-a-hanzi-animation-3 {
          animation: keyframes3 1.0263671875s both;
          animation-delay: 2.189615885416667s;
          animation-timing-function: linear;
        }
      
        @keyframes keyframes4 {
          from {
            stroke: blue;
            stroke-dashoffset: 991;
            stroke-width: 128;
          }
          76% {
            animation-timing-function: step-end;
            stroke: blue;
            stroke-dashoffset: 0;
            stroke-width: 128;
          }
          to {
            stroke: black;
            stroke-width: 1024;
          }
        }
        #make-me-a-hanzi-animation-4 {
          animation: keyframes4 1.0564778645833333s both;
          animation-delay: 3.215983072916667s;
          animation-timing-function: linear;
        }
      
        @keyframes keyframes5 {
          from {
            stroke: blue;
            stroke-dashoffset: 984;
            stroke-width: 128;
          }
          76% {
            animation-timing-function: step-end;
            stroke: blue;
            stroke-dashoffset: 0;
            stroke-width: 128;
          }
          to {
            stroke: black;
            stroke-width: 1024;
          }
        }
        #make-me-a-hanzi-animation-5 {
          animation: keyframes5 1.05078125s both;
          animation-delay: 4.2724609375s;
          animation-timing-function: linear;
        }
      
        @keyframes keyframes6 {
          from {
            stroke: blue;
            stroke-dashoffset: 377;
            stroke-width: 128;
          }
          55% {
            animation-timing-function: step-end;
            stroke: blue;
            stroke-dashoffset: 0;
            stroke-width: 128;
          }
          to {
            stroke: black;
            stroke-width: 1024;
          }
        }
        #make-me-a-hanzi-animation-6 {
          animation: keyframes6 0.5568033854166666s both;
          animation-delay: 5.3232421875s;
          animation-timing-function: linear;
        }
      
    </style>
    
      <path d="M 250 626 Q 265 635 431 743 Q 453 759 479 768 Q 504 777 493 797 Q 480 816 453 835 Q 428 851 414 850 Q 401 849 404 834 Q 404 798 288 691 Q 263 669 238 644 C 217 623 225 610 250 626 Z" fill="lightgray"></path>
    
      <path d="M 402 410 Q 398 410 273 340 Q 257 330 247 335 Q 235 336 237 363 Q 243 457 246 513 L 246 535 Q 246 536 247 536 Q 246 579 250 614 Q 251 621 250 626 C 250 636 250 636 238 644 Q 216 660 194 669 Q 175 676 165 670 Q 155 663 169 642 Q 217 570 185 337 Q 178 310 159 280 Q 146 258 156 246 Q 166 233 194 221 Q 212 214 225 233 Q 247 279 368 360 Q 387 373 400 386 C 422 406 429 423 402 410 Z" fill="lightgray"></path>
    
      <path d="M 246 513 Q 319 447 331 446 L 333 446 Q 342 446 345 457 Q 349 467 342 491 Q 336 513 261 534 Q 248 537 246 535 C 226 531 226 531 246 513 Z" fill="lightgray"></path>
    
      <path d="M 400 386 Q 400 254 310 122 Q 283 91 240 47 Q 224 32 221 25 Q 220 18 232 18 Q 250 19 272 35 Q 320 68 349 99 Q 430 189 450 333 Q 466 423 468 557 Q 472 579 474 592 Q 480 614 457 625 Q 403 652 386 648 Q 364 644 382 620 Q 409 575 402 410 L 400 386 Z" fill="lightgray"></path>
    
      <path d="M 633 605 Q 642 604 652 608 Q 728 633 800 645 Q 810 646 812 642 Q 819 629 820 593 Q 823 463 805 390 Q 796 345 783 331 Q 773 319 749 325 Q 724 331 700 337 Q 676 344 693 322 Q 733 276 756 241 Q 765 222 784 226 Q 800 230 820 254 Q 875 326 881 556 Q 882 610 901 642 Q 916 664 906 673 Q 890 691 853 703 Q 831 712 757 680 Q 663 653 619 643 C 590 636 604 599 633 605 Z" fill="lightgray"></path>
    
      <path d="M 572 -25 Q 578 -50 585 -61 Q 591 -68 599 -66 Q 614 -57 621 6 Q 622 40 624 296 Q 620 530 633 605 C 637 632 637 632 619 643 Q 588 664 572 666 Q 559 670 542 661 Q 533 652 541 641 Q 545 631 553 621 Q 566 596 568 560 Q 571 409 567 172 Q 566 25 572 -25 Z" fill="lightgray"></path>
    
      <path d="M 676 497 Q 698 479 722 457 Q 735 445 750 447 Q 760 448 765 460 Q 769 475 759 503 Q 747 530 669 543 Q 654 546 648 543 Q 644 539 645 527 Q 649 517 676 497 Z" fill="lightgray"></path>
    
    
      <clipPath id="make-me-a-hanzi-clip-0">
        <path d="M 250 626 Q 265 635 431 743 Q 453 759 479 768 Q 504 777 493 797 Q 480 816 453 835 Q 428 851 414 850 Q 401 849 404 834 Q 404 798 288 691 Q 263 669 238 644 C 217 623 225 610 250 626 Z"></path>
      </clipPath>
      <path clip-path="url(#make-me-a-hanzi-clip-0)" d="M 414 839 L 431 814 L 436 795 L 383 744 L 254 643 L 249 632" fill="none" id="make-me-a-hanzi-animation-0" stroke-dasharray="427 854" stroke-linecap="round"></path>
    
      <clipPath id="make-me-a-hanzi-clip-1">
        <path d="M 402 410 Q 398 410 273 340 Q 257 330 247 335 Q 235 336 237 363 Q 243 457 246 513 L 246 535 Q 246 536 247 536 Q 246 579 250 614 Q 251 621 250 626 C 250 636 250 636 238 644 Q 216 660 194 669 Q 175 676 165 670 Q 155 663 169 642 Q 217 570 185 337 Q 178 310 159 280 Q 146 258 156 246 Q 166 233 194 221 Q 212 214 225 233 Q 247 279 368 360 Q 387 373 400 386 C 422 406 429 423 402 410 Z"></path>
      </clipPath>
      <path clip-path="url(#make-me-a-hanzi-clip-1)" d="M 174 661 L 207 631 L 218 610 L 222 497 L 211 345 L 219 300 L 246 304 L 279 319 L 351 364 L 400 404" fill="none" id="make-me-a-hanzi-animation-1" stroke-dasharray="719 1438" stroke-linecap="round"></path>
    
      <clipPath id="make-me-a-hanzi-clip-2">
        <path d="M 246 513 Q 319 447 331 446 L 333 446 Q 342 446 345 457 Q 349 467 342 491 Q 336 513 261 534 Q 248 537 246 535 C 226 531 226 531 246 513 Z"></path>
      </clipPath>
      <path clip-path="url(#make-me-a-hanzi-clip-2)" d="M 253 530 L 261 519 L 312 489 L 332 456" fill="none" id="make-me-a-hanzi-animation-2" stroke-dasharray="239 478" stroke-linecap="round"></path>
    
      <clipPath id="make-me-a-hanzi-clip-3">
        <path d="M 400 386 Q 400 254 310 122 Q 283 91 240 47 Q 224 32 221 25 Q 220 18 232 18 Q 250 19 272 35 Q 320 68 349 99 Q 430 189 450 333 Q 466 423 468 557 Q 472 579 474 592 Q 480 614 457 625 Q 403 652 386 648 Q 364 644 382 620 Q 409 575 402 410 L 400 386 Z"></path>
      </clipPath>
      <path clip-path="url(#make-me-a-hanzi-clip-3)" d="M 388 634 L 406 623 L 434 592 L 433 436 L 413 279 L 375 180 L 337 120 L 281 63 L 229 26" fill="none" id="make-me-a-hanzi-animation-3" stroke-dasharray="826 1652" stroke-linecap="round"></path>
    
      <clipPath id="make-me-a-hanzi-clip-4">
        <path d="M 633 605 Q 642 604 652 608 Q 728 633 800 645 Q 810 646 812 642 Q 819 629 820 593 Q 823 463 805 390 Q 796 345 783 331 Q 773 319 749 325 Q 724 331 700 337 Q 676 344 693 322 Q 733 276 756 241 Q 765 222 784 226 Q 800 230 820 254 Q 875 326 881 556 Q 882 610 901 642 Q 916 664 906 673 Q 890 691 853 703 Q 831 712 757 680 Q 663 653 619 643 C 590 636 604 599 633 605 Z"></path>
      </clipPath>
      <path clip-path="url(#make-me-a-hanzi-clip-4)" d="M 626 638 L 646 628 L 794 670 L 835 669 L 856 654 L 845 444 L 820 327 L 793 287 L 780 282 L 693 331" fill="none" id="make-me-a-hanzi-animation-4" stroke-dasharray="863 1726" stroke-linecap="round"></path>
    
      <clipPath id="make-me-a-hanzi-clip-5">
        <path d="M 572 -25 Q 578 -50 585 -61 Q 591 -68 599 -66 Q 614 -57 621 6 Q 622 40 624 296 Q 620 530 633 605 C 637 632 637 632 619 643 Q 588 664 572 666 Q 559 670 542 661 Q 533 652 541 641 Q 545 631 553 621 Q 566 596 568 560 Q 571 409 567 172 Q 566 25 572 -25 Z"></path>
      </clipPath>
      <path clip-path="url(#make-me-a-hanzi-clip-5)" d="M 551 651 L 591 621 L 598 587 L 595 -56" fill="none" id="make-me-a-hanzi-animation-5" stroke-dasharray="856 1712" stroke-linecap="round"></path>
    
      <clipPath id="make-me-a-hanzi-clip-6">
        <path d="M 676 497 Q 698 479 722 457 Q 735 445 750 447 Q 760 448 765 460 Q 769 475 759 503 Q 747 530 669 543 Q 654 546 648 543 Q 644 539 645 527 Q 649 517 676 497 Z"></path>
      </clipPath>
      <path clip-path="url(#make-me-a-hanzi-clip-6)" d="M 653 537 L 726 495 L 747 465" fill="none" id="make-me-a-hanzi-animation-6" stroke-dasharray="249 498" stroke-linecap="round"></path>
    
  </g>
</svg>