<svg version="1.1" viewBox="0 0 1024 1024" xmlns="http://www.w3.org/2000/svg">
  <g stroke="lightgray" stroke-dasharray="1,1" stroke-width="1" transform="scale(4, 4)">
    <line x1="0" y1="0" x2="256" y2="256"></line>
    <line x1="256" y1="0" x2="0" y2="256"></line>
    <line x1="128" y1="0" x2="128" y2="256"></line>
    <line x1="0" y1="128" x2="256" y2="128"></line>
  </g>
  <g transform="scale(1, -1) translate(0, -900)">
    <style type="text/css">
      
        @keyframes keyframes0 {
          from {
            stroke: blue;
            stroke-dashoffset: 531;
            stroke-width: 128;
          }
          63% {
            animation-timing-function: step-end;
            stroke: blue;
            stroke-dashoffset: 0;
            stroke-width: 128;
          }
          to {
            stroke: black;
            stroke-width: 1024;
          }
        }
        #make-me-a-hanzi-animation-0 {
          animation: keyframes0 0.68212890625s both;
          animation-delay: 0s;
          animation-timing-function: linear;
        }
      
        @keyframes keyframes1 {
          from {
            stroke: blue;
            stroke-dashoffset: 596;
            stroke-width: 128;
          }
          66% {
            animation-timing-function: step-end;
            stroke: blue;
            stroke-dashoffset: 0;
            stroke-width: 128;
          }
          to {
            stroke: black;
            stroke-width: 1024;
          }
        }
        #make-me-a-hanzi-animation-1 {
          animation: keyframes1 0.7350260416666666s both;
          animation-delay: 0.68212890625s;
          animation-timing-function: linear;
        }
      
        @keyframes keyframes2 {
          from {
            stroke: blue;
            stroke-dashoffset: 413;
            stroke-width: 128;
          }
          57% {
            animation-timing-function: step-end;
            stroke: blue;
            stroke-dashoffset: 0;
            stroke-width: 128;
          }
          to {
            stroke: black;
            stroke-width: 1024;
          }
        }
        #make-me-a-hanzi-animation-2 {
          animation: keyframes2 0.5861002604166666s both;
          animation-delay: 1.4171549479166665s;
          animation-timing-function: linear;
        }
      
        @keyframes keyframes3 {
          from {
            stroke: blue;
            stroke-dashoffset: 1276;
            stroke-width: 128;
          }
          81% {
            animation-timing-function: step-end;
            stroke: blue;
            stroke-dashoffset: 0;
            stroke-width: 128;
          }
          to {
            stroke: black;
            stroke-width: 1024;
          }
        }
        #make-me-a-hanzi-animation-3 {
          animation: keyframes3 1.2884114583333333s both;
          animation-delay: 2.003255208333333s;
          animation-timing-function: linear;
        }
      
        @keyframes keyframes4 {
          from {
            stroke: blue;
            stroke-dashoffset: 1116;
            stroke-width: 128;
          }
          78% {
            animation-timing-function: step-end;
            stroke: blue;
            stroke-dashoffset: 0;
            stroke-width: 128;
          }
          to {
            stroke: black;
            stroke-width: 1024;
          }
        }
        #make-me-a-hanzi-animation-4 {
          animation: keyframes4 1.158203125s both;
          animation-delay: 3.291666666666666s;
          animation-timing-function: linear;
        }
      
    </style>
    
      <path d="M 161 567 Q 149 574 113 581 Q 100 585 97 580 Q 90 573 98 557 Q 129 487 143 373 Q 146 339 164 316 Q 182 294 187 309 Q 194 328 191 361 L 187 396 Q 171 501 167 535 C 163 565 163 566 161 567 Z" fill="lightgray"></path>
    
      <path d="M 327 421 Q 346 518 373 548 Q 397 576 371 591 Q 349 601 319 620 Q 298 630 262 606 Q 232 590 161 567 C 132 558 138 526 167 535 Q 188 542 261 562 Q 285 568 290 559 Q 299 552 290 513 Q 283 470 271 421 C 264 392 321 392 327 421 Z" fill="lightgray"></path>
    
      <path d="M 191 361 Q 197 361 204 363 Q 247 376 342 389 Q 352 390 353 400 Q 353 407 327 421 C 307 432 300 430 271 421 Q 223 406 187 396 C 158 388 161 359 191 361 Z" fill="lightgray"></path>
    
      <path d="M 633 483 Q 688 496 743 504 Q 761 505 765 497 Q 774 481 770 434 Q 760 268 729 180 Q 713 125 695 107 Q 682 95 657 103 Q 626 113 597 124 Q 572 133 589 108 Q 634 53 657 11 Q 666 -11 688 -7 Q 709 -4 734 25 Q 806 97 831 388 Q 837 452 861 490 Q 880 514 869 525 Q 851 546 811 562 Q 783 577 753 562 Q 705 541 643 524 L 575 509 Q 481 490 426 488 Q 404 489 405 478 Q 404 468 428 452 Q 458 433 485 443 Q 525 456 565 466 L 633 483 Z" fill="lightgray"></path>
    
      <path d="M 565 466 Q 519 307 461 203 Q 407 116 343 31 Q 336 24 333 16 Q 329 3 342 5 Q 376 9 475 130 Q 500 166 525 207 Q 588 318 633 483 L 643 524 Q 676 695 685 715 Q 697 731 689 747 Q 671 769 636 789 Q 615 802 599 799 Q 584 792 591 775 Q 618 724 575 509 L 565 466 Z" fill="lightgray"></path>
    
    
      <clipPath id="make-me-a-hanzi-clip-0">
        <path d="M 161 567 Q 149 574 113 581 Q 100 585 97 580 Q 90 573 98 557 Q 129 487 143 373 Q 146 339 164 316 Q 182 294 187 309 Q 194 328 191 361 L 187 396 Q 171 501 167 535 C 163 565 163 566 161 567 Z"></path>
      </clipPath>
      <path clip-path="url(#make-me-a-hanzi-clip-0)" d="M 104 572 L 135 545 L 157 445 L 176 315" fill="none" id="make-me-a-hanzi-animation-0" stroke-dasharray="403 806" stroke-linecap="round"></path>
    
      <clipPath id="make-me-a-hanzi-clip-1">
        <path d="M 327 421 Q 346 518 373 548 Q 397 576 371 591 Q 349 601 319 620 Q 298 630 262 606 Q 232 590 161 567 C 132 558 138 526 167 535 Q 188 542 261 562 Q 285 568 290 559 Q 299 552 290 513 Q 283 470 271 421 C 264 392 321 392 327 421 Z"></path>
      </clipPath>
      <path clip-path="url(#make-me-a-hanzi-clip-1)" d="M 169 541 L 177 554 L 283 590 L 305 589 L 322 576 L 333 564 L 332 556 L 305 447 L 278 428" fill="none" id="make-me-a-hanzi-animation-1" stroke-dasharray="468 936" stroke-linecap="round"></path>
    
      <clipPath id="make-me-a-hanzi-clip-2">
        <path d="M 191 361 Q 197 361 204 363 Q 247 376 342 389 Q 352 390 353 400 Q 353 407 327 421 C 307 432 300 430 271 421 Q 223 406 187 396 C 158 388 161 359 191 361 Z"></path>
      </clipPath>
      <path clip-path="url(#make-me-a-hanzi-clip-2)" d="M 197 368 L 211 384 L 278 401 L 320 404 L 344 398" fill="none" id="make-me-a-hanzi-animation-2" stroke-dasharray="285 570" stroke-linecap="round"></path>
    
      <clipPath id="make-me-a-hanzi-clip-3">
        <path d="M 633 483 Q 688 496 743 504 Q 761 505 765 497 Q 774 481 770 434 Q 760 268 729 180 Q 713 125 695 107 Q 682 95 657 103 Q 626 113 597 124 Q 572 133 589 108 Q 634 53 657 11 Q 666 -11 688 -7 Q 709 -4 734 25 Q 806 97 831 388 Q 837 452 861 490 Q 880 514 869 525 Q 851 546 811 562 Q 783 577 753 562 Q 705 541 643 524 L 575 509 Q 481 490 426 488 Q 404 489 405 478 Q 404 468 428 452 Q 458 433 485 443 Q 525 456 565 466 L 633 483 Z"></path>
      </clipPath>
      <path clip-path="url(#make-me-a-hanzi-clip-3)" d="M 416 477 L 445 467 L 472 466 L 758 533 L 785 531 L 814 506 L 779 233 L 763 168 L 735 96 L 712 66 L 689 52 L 590 118" fill="none" id="make-me-a-hanzi-animation-3" stroke-dasharray="1148 2296" stroke-linecap="round"></path>
    
      <clipPath id="make-me-a-hanzi-clip-4">
        <path d="M 565 466 Q 519 307 461 203 Q 407 116 343 31 Q 336 24 333 16 Q 329 3 342 5 Q 376 9 475 130 Q 500 166 525 207 Q 588 318 633 483 L 643 524 Q 676 695 685 715 Q 697 731 689 747 Q 671 769 636 789 Q 615 802 599 799 Q 584 792 591 775 Q 618 724 575 509 L 565 466 Z"></path>
      </clipPath>
      <path clip-path="url(#make-me-a-hanzi-clip-4)" d="M 605 784 L 628 760 L 644 731 L 611 525 L 567 371 L 517 250 L 467 162 L 397 69 L 343 15" fill="none" id="make-me-a-hanzi-animation-4" stroke-dasharray="988 1976" stroke-linecap="round"></path>
    
  </g>
</svg>