<svg version="1.1" viewBox="0 0 1024 1024" xmlns="http://www.w3.org/2000/svg">
  <g stroke="lightgray" stroke-dasharray="1,1" stroke-width="1" transform="scale(4, 4)">
    <line x1="0" y1="0" x2="256" y2="256"></line>
    <line x1="256" y1="0" x2="0" y2="256"></line>
    <line x1="128" y1="0" x2="128" y2="256"></line>
    <line x1="0" y1="128" x2="256" y2="128"></line>
  </g>
  <g transform="scale(1, -1) translate(0, -900)">
    <style type="text/css">
      
        @keyframes keyframes0 {
          from {
            stroke: blue;
            stroke-dashoffset: 533;
            stroke-width: 128;
          }
          63% {
            animation-timing-function: step-end;
            stroke: blue;
            stroke-dashoffset: 0;
            stroke-width: 128;
          }
          to {
            stroke: black;
            stroke-width: 1024;
          }
        }
        #make-me-a-hanzi-animation-0 {
          animation: keyframes0 0.6837565104166666s both;
          animation-delay: 0s;
          animation-timing-function: linear;
        }
      
        @keyframes keyframes1 {
          from {
            stroke: blue;
            stroke-dashoffset: 617;
            stroke-width: 128;
          }
          67% {
            animation-timing-function: step-end;
            stroke: blue;
            stroke-dashoffset: 0;
            stroke-width: 128;
          }
          to {
            stroke: black;
            stroke-width: 1024;
          }
        }
        #make-me-a-hanzi-animation-1 {
          animation: keyframes1 0.7521158854166666s both;
          animation-delay: 0.6837565104166666s;
          animation-timing-function: linear;
        }
      
        @keyframes keyframes2 {
          from {
            stroke: blue;
            stroke-dashoffset: 412;
            stroke-width: 128;
          }
          57% {
            animation-timing-function: step-end;
            stroke: blue;
            stroke-dashoffset: 0;
            stroke-width: 128;
          }
          to {
            stroke: black;
            stroke-width: 1024;
          }
        }
        #make-me-a-hanzi-animation-2 {
          animation: keyframes2 0.5852864583333334s both;
          animation-delay: 1.4358723958333333s;
          animation-timing-function: linear;
        }
      
        @keyframes keyframes3 {
          from {
            stroke: blue;
            stroke-dashoffset: 899;
            stroke-width: 128;
          }
          75% {
            animation-timing-function: step-end;
            stroke: blue;
            stroke-dashoffset: 0;
            stroke-width: 128;
          }
          to {
            stroke: black;
            stroke-width: 1024;
          }
        }
        #make-me-a-hanzi-animation-3 {
          animation: keyframes3 0.9816080729166666s both;
          animation-delay: 2.0211588541666665s;
          animation-timing-function: linear;
        }
      
        @keyframes keyframes4 {
          from {
            stroke: blue;
            stroke-dashoffset: 1132;
            stroke-width: 128;
          }
          79% {
            animation-timing-function: step-end;
            stroke: blue;
            stroke-dashoffset: 0;
            stroke-width: 128;
          }
          to {
            stroke: black;
            stroke-width: 1024;
          }
        }
        #make-me-a-hanzi-animation-4 {
          animation: keyframes4 1.1712239583333333s both;
          animation-delay: 3.002766927083333s;
          animation-timing-function: linear;
        }
      
        @keyframes keyframes5 {
          from {
            stroke: blue;
            stroke-dashoffset: 524;
            stroke-width: 128;
          }
          63% {
            animation-timing-function: step-end;
            stroke: blue;
            stroke-dashoffset: 0;
            stroke-width: 128;
          }
          to {
            stroke: black;
            stroke-width: 1024;
          }
        }
        #make-me-a-hanzi-animation-5 {
          animation: keyframes5 0.6764322916666666s both;
          animation-delay: 4.173990885416666s;
          animation-timing-function: linear;
        }
      
    </style>
    
      <path d="M 141 562 Q 129 568 101 573 Q 88 577 85 571 Q 78 565 87 549 Q 118 477 134 362 Q 137 328 156 304 Q 174 282 179 297 Q 186 315 183 345 L 179 378 Q 158 496 155 531 C 152 557 152 557 141 562 Z" fill="lightgray"></path>
    
      <path d="M 325 397 Q 344 508 373 540 Q 398 568 372 583 Q 350 595 321 613 Q 300 625 256 598 Q 211 577 141 562 C 112 556 126 522 155 531 Q 191 543 254 557 Q 282 564 288 553 Q 298 546 290 504 Q 283 458 271 405 C 264 376 320 367 325 397 Z" fill="lightgray"></path>
    
      <path d="M 183 345 Q 217 357 330 371 Q 340 372 341 381 Q 341 387 325 397 C 300 413 299 414 271 405 Q 270 405 268 404 Q 219 388 179 378 C 150 371 154 336 183 345 Z" fill="lightgray"></path>
    
      <path d="M 651 407 Q 573 408 509 409 Q 466 409 489 435 Q 577 583 662 694 Q 680 715 676 723 Q 673 741 627 778 Q 608 794 586 790 Q 573 786 580 768 Q 589 747 582 717 Q 566 653 488 513 Q 463 467 412 422 Q 390 406 391 391 Q 395 369 412 347 Q 424 334 439 342 Q 488 366 632 379 C 662 382 681 407 651 407 Z" fill="lightgray"></path>
    
      <path d="M 785 199 Q 676 187 547 157 Q 501 144 532 179 Q 596 264 745 437 Q 785 486 818 513 Q 834 526 827 540 Q 814 565 770 592 Q 749 605 737 602 Q 724 598 726 577 Q 729 526 651 407 L 632 379 Q 469 166 427 146 Q 408 136 411 116 Q 412 98 446 70 Q 459 54 480 69 Q 601 135 796 175 C 825 181 815 203 785 199 Z" fill="lightgray"></path>
    
      <path d="M 796 175 Q 814 138 833 93 Q 842 68 855 59 Q 862 55 874 62 Q 890 71 893 117 Q 899 178 755 315 Q 752 318 751 319 Q 744 326 738 316 Q 732 303 739 289 Q 761 249 785 199 L 796 175 Z" fill="lightgray"></path>
    
    
      <clipPath id="make-me-a-hanzi-clip-0">
        <path d="M 141 562 Q 129 568 101 573 Q 88 577 85 571 Q 78 565 87 549 Q 118 477 134 362 Q 137 328 156 304 Q 174 282 179 297 Q 186 315 183 345 L 179 378 Q 158 496 155 531 C 152 557 152 557 141 562 Z"></path>
      </clipPath>
      <path clip-path="url(#make-me-a-hanzi-clip-0)" d="M 94 563 L 120 540 L 127 524 L 168 303" fill="none" id="make-me-a-hanzi-animation-0" stroke-dasharray="405 810" stroke-linecap="round"></path>
    
      <clipPath id="make-me-a-hanzi-clip-1">
        <path d="M 325 397 Q 344 508 373 540 Q 398 568 372 583 Q 350 595 321 613 Q 300 625 256 598 Q 211 577 141 562 C 112 556 126 522 155 531 Q 191 543 254 557 Q 282 564 288 553 Q 298 546 290 504 Q 283 458 271 405 C 264 376 320 367 325 397 Z"></path>
      </clipPath>
      <path clip-path="url(#make-me-a-hanzi-clip-1)" d="M 150 560 L 164 551 L 290 585 L 306 582 L 323 569 L 333 557 L 305 434 L 279 411" fill="none" id="make-me-a-hanzi-animation-1" stroke-dasharray="489 978" stroke-linecap="round"></path>
    
      <clipPath id="make-me-a-hanzi-clip-2">
        <path d="M 183 345 Q 217 357 330 371 Q 340 372 341 381 Q 341 387 325 397 C 300 413 299 414 271 405 Q 270 405 268 404 Q 219 388 179 378 C 150 371 154 336 183 345 Z"></path>
      </clipPath>
      <path clip-path="url(#make-me-a-hanzi-clip-2)" d="M 185 351 L 197 366 L 266 383 L 332 380" fill="none" id="make-me-a-hanzi-animation-2" stroke-dasharray="284 568" stroke-linecap="round"></path>
    
      <clipPath id="make-me-a-hanzi-clip-3">
        <path d="M 651 407 Q 573 408 509 409 Q 466 409 489 435 Q 577 583 662 694 Q 680 715 676 723 Q 673 741 627 778 Q 608 794 586 790 Q 573 786 580 768 Q 589 747 582 717 Q 566 653 488 513 Q 463 467 412 422 Q 390 406 391 391 Q 395 369 412 347 Q 424 334 439 342 Q 488 366 632 379 C 662 382 681 407 651 407 Z"></path>
      </clipPath>
      <path clip-path="url(#make-me-a-hanzi-clip-3)" d="M 591 777 L 608 762 L 627 720 L 520 525 L 459 433 L 446 397 L 463 387 L 508 385 L 620 391 L 642 406" fill="none" id="make-me-a-hanzi-animation-3" stroke-dasharray="771 1542" stroke-linecap="round"></path>
    
      <clipPath id="make-me-a-hanzi-clip-4">
        <path d="M 785 199 Q 676 187 547 157 Q 501 144 532 179 Q 596 264 745 437 Q 785 486 818 513 Q 834 526 827 540 Q 814 565 770 592 Q 749 605 737 602 Q 724 598 726 577 Q 729 526 651 407 L 632 379 Q 469 166 427 146 Q 408 136 411 116 Q 412 98 446 70 Q 459 54 480 69 Q 601 135 796 175 C 825 181 815 203 785 199 Z"></path>
      </clipPath>
      <path clip-path="url(#make-me-a-hanzi-clip-4)" d="M 742 587 L 769 534 L 655 368 L 512 193 L 489 158 L 482 125 L 523 124 L 738 179 L 777 185 L 786 178" fill="none" id="make-me-a-hanzi-animation-4" stroke-dasharray="1004 2008" stroke-linecap="round"></path>
    
      <clipPath id="make-me-a-hanzi-clip-5">
        <path d="M 796 175 Q 814 138 833 93 Q 842 68 855 59 Q 862 55 874 62 Q 890 71 893 117 Q 899 178 755 315 Q 752 318 751 319 Q 744 326 738 316 Q 732 303 739 289 Q 761 249 785 199 L 796 175 Z"></path>
      </clipPath>
      <path clip-path="url(#make-me-a-hanzi-clip-5)" d="M 746 310 L 844 158 L 859 122 L 862 74" fill="none" id="make-me-a-hanzi-animation-5" stroke-dasharray="396 792" stroke-linecap="round"></path>
    
  </g>
</svg>