<svg version="1.1" viewBox="0 0 1024 1024" xmlns="http://www.w3.org/2000/svg">
  <g stroke="lightgray" stroke-dasharray="1,1" stroke-width="1" transform="scale(4, 4)">
    <line x1="0" y1="0" x2="256" y2="256"></line>
    <line x1="256" y1="0" x2="0" y2="256"></line>
    <line x1="128" y1="0" x2="128" y2="256"></line>
    <line x1="0" y1="128" x2="256" y2="128"></line>
  </g>
  <g transform="scale(1, -1) translate(0, -900)">
    <style type="text/css">
      
        @keyframes keyframes0 {
          from {
            stroke: blue;
            stroke-dashoffset: 529;
            stroke-width: 128;
          }
          63% {
            animation-timing-function: step-end;
            stroke: blue;
            stroke-dashoffset: 0;
            stroke-width: 128;
          }
          to {
            stroke: black;
            stroke-width: 1024;
          }
        }
        #make-me-a-hanzi-animation-0 {
          animation: keyframes0 0.6805013020833334s both;
          animation-delay: 0s;
          animation-timing-function: linear;
        }
      
        @keyframes keyframes1 {
          from {
            stroke: blue;
            stroke-dashoffset: 577;
            stroke-width: 128;
          }
          65% {
            animation-timing-function: step-end;
            stroke: blue;
            stroke-dashoffset: 0;
            stroke-width: 128;
          }
          to {
            stroke: black;
            stroke-width: 1024;
          }
        }
        #make-me-a-hanzi-animation-1 {
          animation: keyframes1 0.7195638020833334s both;
          animation-delay: 0.6805013020833334s;
          animation-timing-function: linear;
        }
      
        @keyframes keyframes2 {
          from {
            stroke: blue;
            stroke-dashoffset: 398;
            stroke-width: 128;
          }
          56% {
            animation-timing-function: step-end;
            stroke: blue;
            stroke-dashoffset: 0;
            stroke-width: 128;
          }
          to {
            stroke: black;
            stroke-width: 1024;
          }
        }
        #make-me-a-hanzi-animation-2 {
          animation: keyframes2 0.5738932291666666s both;
          animation-delay: 1.4000651041666667s;
          animation-timing-function: linear;
        }
      
        @keyframes keyframes3 {
          from {
            stroke: blue;
            stroke-dashoffset: 583;
            stroke-width: 128;
          }
          65% {
            animation-timing-function: step-end;
            stroke: blue;
            stroke-dashoffset: 0;
            stroke-width: 128;
          }
          to {
            stroke: black;
            stroke-width: 1024;
          }
        }
        #make-me-a-hanzi-animation-3 {
          animation: keyframes3 0.7244466145833334s both;
          animation-delay: 1.9739583333333335s;
          animation-timing-function: linear;
        }
      
        @keyframes keyframes4 {
          from {
            stroke: blue;
            stroke-dashoffset: 757;
            stroke-width: 128;
          }
          71% {
            animation-timing-function: step-end;
            stroke: blue;
            stroke-dashoffset: 0;
            stroke-width: 128;
          }
          to {
            stroke: black;
            stroke-width: 1024;
          }
        }
        #make-me-a-hanzi-animation-4 {
          animation: keyframes4 0.8660481770833334s both;
          animation-delay: 2.698404947916667s;
          animation-timing-function: linear;
        }
      
        @keyframes keyframes5 {
          from {
            stroke: blue;
            stroke-dashoffset: 1154;
            stroke-width: 128;
          }
          79% {
            animation-timing-function: step-end;
            stroke: blue;
            stroke-dashoffset: 0;
            stroke-width: 128;
          }
          to {
            stroke: black;
            stroke-width: 1024;
          }
        }
        #make-me-a-hanzi-animation-5 {
          animation: keyframes5 1.1891276041666667s both;
          animation-delay: 3.5644531250000004s;
          animation-timing-function: linear;
        }
      
        @keyframes keyframes6 {
          from {
            stroke: blue;
            stroke-dashoffset: 689;
            stroke-width: 128;
          }
          69% {
            animation-timing-function: step-end;
            stroke: blue;
            stroke-dashoffset: 0;
            stroke-width: 128;
          }
          to {
            stroke: black;
            stroke-width: 1024;
          }
        }
        #make-me-a-hanzi-animation-6 {
          animation: keyframes6 0.8107096354166666s both;
          animation-delay: 4.753580729166667s;
          animation-timing-function: linear;
        }
      
        @keyframes keyframes7 {
          from {
            stroke: blue;
            stroke-dashoffset: 734;
            stroke-width: 128;
          }
          70% {
            animation-timing-function: step-end;
            stroke: blue;
            stroke-dashoffset: 0;
            stroke-width: 128;
          }
          to {
            stroke: black;
            stroke-width: 1024;
          }
        }
        #make-me-a-hanzi-animation-7 {
          animation: keyframes7 0.8473307291666666s both;
          animation-delay: 5.564290364583334s;
          animation-timing-function: linear;
        }
      
    </style>
    
      <path d="M 126 566 Q 116 573 83 581 Q 73 584 69 580 Q 63 574 70 560 Q 98 488 110 373 Q 111 339 130 315 Q 145 294 150 308 Q 157 327 154 361 L 150 394 Q 134 503 130 539 C 127 566 127 566 126 566 Z" fill="lightgray"></path>
    
      <path d="M 278 413 Q 291 518 319 550 Q 340 575 316 589 Q 297 599 269 614 Q 248 624 211 598 Q 178 585 126 566 C 98 556 101 533 130 539 Q 137 540 218 561 Q 237 565 242 559 Q 251 552 244 512 Q 237 469 229 416 C 225 386 274 383 278 413 Z" fill="lightgray"></path>
    
      <path d="M 154 361 Q 194 371 290 383 Q 300 384 301 393 Q 301 400 278 413 L 229 416 L 228 416 Q 185 403 150 394 C 121 386 125 354 154 361 Z" fill="lightgray"></path>
    
      <path d="M 602 595 Q 648 605 702 615 Q 745 625 751 631 Q 760 638 755 648 Q 748 660 718 668 Q 687 674 656 662 Q 629 653 603 645 L 555 632 Q 497 620 430 614 Q 393 608 419 590 Q 458 569 531 582 Q 541 585 557 586 L 602 595 Z" fill="lightgray"></path>
    
      <path d="M 601 419 Q 674 429 838 429 Q 859 430 864 439 Q 870 451 852 465 Q 791 510 724 487 Q 673 478 601 463 L 556 456 Q 465 443 361 427 Q 339 424 355 407 Q 370 394 389 388 Q 411 382 427 388 Q 473 401 527 408 L 601 419 Z" fill="lightgray"></path>
    
      <path d="M 601 418 L 601 419 L 601 463 Q 601 529 602 595 L 603 645 Q 606 712 620 762 Q 630 778 626 792 Q 619 802 561 837 Q 536 853 515 838 Q 509 832 516 816 Q 552 764 553 712 Q 554 675 555 632 L 557 586 Q 557 489 556 456 L 555 354 Q 555 177 534 89 Q 516 32 546 -37 Q 553 -56 561 -59 Q 568 -66 575 -57 Q 584 -53 594 -31 Q 604 -4 603 28 Q 602 71 601 374 L 601 418 Z" fill="lightgray"></path>
    
      <path d="M 527 408 Q 449 266 244 119 Q 231 107 240 105 Q 264 93 348 147 Q 433 198 555 354 C 605 418 547 443 527 408 Z" fill="lightgray"></path>
    
      <path d="M 601 374 Q 670 266 747 164 Q 768 136 809 129 Q 882 114 961 118 Q 982 118 984 123 Q 987 130 972 138 Q 926 163 870 189 Q 759 244 603 416 Q 602 417 601 418 C 581 440 585 399 601 374 Z" fill="lightgray"></path>
    
    
      <clipPath id="make-me-a-hanzi-clip-0">
        <path d="M 126 566 Q 116 573 83 581 Q 73 584 69 580 Q 63 574 70 560 Q 98 488 110 373 Q 111 339 130 315 Q 145 294 150 308 Q 157 327 154 361 L 150 394 Q 134 503 130 539 C 127 566 127 566 126 566 Z"></path>
      </clipPath>
      <path clip-path="url(#make-me-a-hanzi-clip-0)" d="M 77 573 L 104 542 L 141 313" fill="none" id="make-me-a-hanzi-animation-0" stroke-dasharray="401 802" stroke-linecap="round"></path>
    
      <clipPath id="make-me-a-hanzi-clip-1">
        <path d="M 278 413 Q 291 518 319 550 Q 340 575 316 589 Q 297 599 269 614 Q 248 624 211 598 Q 178 585 126 566 C 98 556 101 533 130 539 Q 137 540 218 561 Q 237 565 242 559 Q 251 552 244 512 Q 237 469 229 416 C 225 386 274 383 278 413 Z"></path>
      </clipPath>
      <path clip-path="url(#make-me-a-hanzi-clip-1)" d="M 131 546 L 156 562 L 231 586 L 261 584 L 282 564 L 257 439 L 236 423" fill="none" id="make-me-a-hanzi-animation-1" stroke-dasharray="449 898" stroke-linecap="round"></path>
    
      <clipPath id="make-me-a-hanzi-clip-2">
        <path d="M 154 361 Q 194 371 290 383 Q 300 384 301 393 Q 301 400 278 413 L 229 416 L 228 416 Q 185 403 150 394 C 121 386 125 354 154 361 Z"></path>
      </clipPath>
      <path clip-path="url(#make-me-a-hanzi-clip-2)" d="M 158 367 L 172 383 L 227 395 L 291 393" fill="none" id="make-me-a-hanzi-animation-2" stroke-dasharray="270 540" stroke-linecap="round"></path>
    
      <clipPath id="make-me-a-hanzi-clip-3">
        <path d="M 602 595 Q 648 605 702 615 Q 745 625 751 631 Q 760 638 755 648 Q 748 660 718 668 Q 687 674 656 662 Q 629 653 603 645 L 555 632 Q 497 620 430 614 Q 393 608 419 590 Q 458 569 531 582 Q 541 585 557 586 L 602 595 Z"></path>
      </clipPath>
      <path clip-path="url(#make-me-a-hanzi-clip-3)" d="M 422 603 L 450 597 L 503 600 L 684 641 L 744 642" fill="none" id="make-me-a-hanzi-animation-3" stroke-dasharray="455 910" stroke-linecap="round"></path>
    
      <clipPath id="make-me-a-hanzi-clip-4">
        <path d="M 601 419 Q 674 429 838 429 Q 859 430 864 439 Q 870 451 852 465 Q 791 510 724 487 Q 673 478 601 463 L 556 456 Q 465 443 361 427 Q 339 424 355 407 Q 370 394 389 388 Q 411 382 427 388 Q 473 401 527 408 L 601 419 Z"></path>
      </clipPath>
      <path clip-path="url(#make-me-a-hanzi-clip-4)" d="M 358 417 L 409 409 L 494 426 L 752 461 L 795 460 L 852 445" fill="none" id="make-me-a-hanzi-animation-4" stroke-dasharray="629 1258" stroke-linecap="round"></path>
    
      <clipPath id="make-me-a-hanzi-clip-5">
        <path d="M 601 418 L 601 419 L 601 463 Q 601 529 602 595 L 603 645 Q 606 712 620 762 Q 630 778 626 792 Q 619 802 561 837 Q 536 853 515 838 Q 509 832 516 816 Q 552 764 553 712 Q 554 675 555 632 L 557 586 Q 557 489 556 456 L 555 354 Q 555 177 534 89 Q 516 32 546 -37 Q 553 -56 561 -59 Q 568 -66 575 -57 Q 584 -53 594 -31 Q 604 -4 603 28 Q 602 71 601 374 L 601 418 Z"></path>
      </clipPath>
      <path clip-path="url(#make-me-a-hanzi-clip-5)" d="M 528 829 L 557 807 L 582 776 L 579 261 L 565 62 L 566 -45" fill="none" id="make-me-a-hanzi-animation-5" stroke-dasharray="1026 2052" stroke-linecap="round"></path>
    
      <clipPath id="make-me-a-hanzi-clip-6">
        <path d="M 527 408 Q 449 266 244 119 Q 231 107 240 105 Q 264 93 348 147 Q 433 198 555 354 C 605 418 547 443 527 408 Z"></path>
      </clipPath>
      <path clip-path="url(#make-me-a-hanzi-clip-6)" d="M 549 405 L 538 391 L 530 361 L 506 329 L 416 230 L 328 156 L 269 119 L 245 111" fill="none" id="make-me-a-hanzi-animation-6" stroke-dasharray="561 1122" stroke-linecap="round"></path>
    
      <clipPath id="make-me-a-hanzi-clip-7">
        <path d="M 601 374 Q 670 266 747 164 Q 768 136 809 129 Q 882 114 961 118 Q 982 118 984 123 Q 987 130 972 138 Q 926 163 870 189 Q 759 244 603 416 Q 602 417 601 418 C 581 440 585 399 601 374 Z"></path>
      </clipPath>
      <path clip-path="url(#make-me-a-hanzi-clip-7)" d="M 608 396 L 618 375 L 668 313 L 790 184 L 851 158 L 978 126" fill="none" id="make-me-a-hanzi-animation-7" stroke-dasharray="606 1212" stroke-linecap="round"></path>
    
  </g>
</svg>