<svg version="1.1" viewBox="0 0 1024 1024" xmlns="http://www.w3.org/2000/svg">
  <g stroke="lightgray" stroke-dasharray="1,1" stroke-width="1" transform="scale(4, 4)">
    <line x1="0" y1="0" x2="256" y2="256"></line>
    <line x1="256" y1="0" x2="0" y2="256"></line>
    <line x1="128" y1="0" x2="128" y2="256"></line>
    <line x1="0" y1="128" x2="256" y2="128"></line>
  </g>
  <g transform="scale(1, -1) translate(0, -900)">
    <style type="text/css">
      
        @keyframes keyframes0 {
          from {
            stroke: blue;
            stroke-dashoffset: 524;
            stroke-width: 128;
          }
          63% {
            animation-timing-function: step-end;
            stroke: blue;
            stroke-dashoffset: 0;
            stroke-width: 128;
          }
          to {
            stroke: black;
            stroke-width: 1024;
          }
        }
        #make-me-a-hanzi-animation-0 {
          animation: keyframes0 0.6764322916666666s both;
          animation-delay: 0s;
          animation-timing-function: linear;
        }
      
        @keyframes keyframes1 {
          from {
            stroke: blue;
            stroke-dashoffset: 582;
            stroke-width: 128;
          }
          65% {
            animation-timing-function: step-end;
            stroke: blue;
            stroke-dashoffset: 0;
            stroke-width: 128;
          }
          to {
            stroke: black;
            stroke-width: 1024;
          }
        }
        #make-me-a-hanzi-animation-1 {
          animation: keyframes1 0.7236328125s both;
          animation-delay: 0.6764322916666666s;
          animation-timing-function: linear;
        }
      
        @keyframes keyframes2 {
          from {
            stroke: blue;
            stroke-dashoffset: 411;
            stroke-width: 128;
          }
          57% {
            animation-timing-function: step-end;
            stroke: blue;
            stroke-dashoffset: 0;
            stroke-width: 128;
          }
          to {
            stroke: black;
            stroke-width: 1024;
          }
        }
        #make-me-a-hanzi-animation-2 {
          animation: keyframes2 0.58447265625s both;
          animation-delay: 1.4000651041666665s;
          animation-timing-function: linear;
        }
      
        @keyframes keyframes3 {
          from {
            stroke: blue;
            stroke-dashoffset: 813;
            stroke-width: 128;
          }
          73% {
            animation-timing-function: step-end;
            stroke: blue;
            stroke-dashoffset: 0;
            stroke-width: 128;
          }
          to {
            stroke: black;
            stroke-width: 1024;
          }
        }
        #make-me-a-hanzi-animation-3 {
          animation: keyframes3 0.91162109375s both;
          animation-delay: 1.9845377604166665s;
          animation-timing-function: linear;
        }
      
        @keyframes keyframes4 {
          from {
            stroke: blue;
            stroke-dashoffset: 806;
            stroke-width: 128;
          }
          72% {
            animation-timing-function: step-end;
            stroke: blue;
            stroke-dashoffset: 0;
            stroke-width: 128;
          }
          to {
            stroke: black;
            stroke-width: 1024;
          }
        }
        #make-me-a-hanzi-animation-4 {
          animation: keyframes4 0.9059244791666666s both;
          animation-delay: 2.8961588541666665s;
          animation-timing-function: linear;
        }
      
        @keyframes keyframes5 {
          from {
            stroke: blue;
            stroke-dashoffset: 528;
            stroke-width: 128;
          }
          63% {
            animation-timing-function: step-end;
            stroke: blue;
            stroke-dashoffset: 0;
            stroke-width: 128;
          }
          to {
            stroke: black;
            stroke-width: 1024;
          }
        }
        #make-me-a-hanzi-animation-5 {
          animation: keyframes5 0.6796875s both;
          animation-delay: 3.802083333333333s;
          animation-timing-function: linear;
        }
      
        @keyframes keyframes6 {
          from {
            stroke: blue;
            stroke-dashoffset: 724;
            stroke-width: 128;
          }
          70% {
            animation-timing-function: step-end;
            stroke: blue;
            stroke-dashoffset: 0;
            stroke-width: 128;
          }
          to {
            stroke: black;
            stroke-width: 1024;
          }
        }
        #make-me-a-hanzi-animation-6 {
          animation: keyframes6 0.8391927083333334s both;
          animation-delay: 4.481770833333333s;
          animation-timing-function: linear;
        }
      
        @keyframes keyframes7 {
          from {
            stroke: blue;
            stroke-dashoffset: 534;
            stroke-width: 128;
          }
          63% {
            animation-timing-function: step-end;
            stroke: blue;
            stroke-dashoffset: 0;
            stroke-width: 128;
          }
          to {
            stroke: black;
            stroke-width: 1024;
          }
        }
        #make-me-a-hanzi-animation-7 {
          animation: keyframes7 0.6845703125s both;
          animation-delay: 5.320963541666666s;
          animation-timing-function: linear;
        }
      
    </style>
    
      <path d="M 140 559 Q 128 565 105 570 Q 92 574 89 569 Q 82 563 90 546 Q 118 476 129 365 Q 130 331 148 308 Q 164 286 171 301 Q 178 320 177 353 L 173 387 Q 158 501 158 531 C 157 552 157 552 140 559 Z" fill="lightgray"></path>
    
      <path d="M 317 408 Q 330 505 354 537 Q 376 565 351 578 Q 330 588 301 606 Q 282 616 238 589 Q 184 568 140 559 C 111 553 129 523 158 531 Q 165 534 242 551 Q 264 555 270 547 Q 280 540 275 497 Q 271 458 265 413 C 261 383 313 378 317 408 Z" fill="lightgray"></path>
    
      <path d="M 177 353 Q 184 353 192 354 Q 235 366 330 377 Q 340 378 341 388 Q 341 395 317 408 C 292 422 292 422 265 413 Q 264 413 262 412 Q 213 396 173 387 C 144 380 147 352 177 353 Z" fill="lightgray"></path>
    
      <path d="M 635 480 Q 761 502 905 503 Q 929 503 933 512 Q 937 525 921 538 Q 866 574 829 564 Q 759 546 641 522 L 582 511 Q 485 495 376 475 Q 354 471 371 455 Q 399 430 450 441 Q 508 460 579 471 L 635 480 Z" fill="lightgray"></path>
    
      <path d="M 607 291 Q 620 388 635 480 L 641 522 Q 656 669 689 756 Q 695 769 672 789 Q 632 816 603 823 Q 584 829 574 819 Q 564 810 572 792 Q 597 746 596 716 Q 592 617 582 511 L 579 471 Q 569 380 555 281 C 551 251 603 261 607 291 Z" fill="lightgray"></path>
    
      <path d="M 448 273 Q 415 282 409 276 Q 402 269 411 251 Q 442 184 457 73 Q 460 39 478 17 Q 497 -8 504 10 Q 511 26 509 56 L 504 94 Q 488 202 486 233 C 484 263 477 266 448 273 Z" fill="lightgray"></path>
    
      <path d="M 758 125 Q 785 218 818 243 Q 836 262 820 282 Q 739 342 682 314 Q 643 302 607 291 L 555 281 Q 479 269 448 273 C 418 275 456 228 486 233 Q 498 234 513 239 Q 600 254 683 269 Q 705 273 713 265 Q 723 256 722 236 Q 715 176 703 127 C 696 98 749 96 758 125 Z" fill="lightgray"></path>
    
      <path d="M 509 56 Q 519 55 533 57 Q 611 72 777 82 Q 789 83 791 93 Q 792 102 758 125 C 743 135 732 133 703 127 Q 591 103 504 94 C 474 91 479 57 509 56 Z" fill="lightgray"></path>
    
    
      <clipPath id="make-me-a-hanzi-clip-0">
        <path d="M 140 559 Q 128 565 105 570 Q 92 574 89 569 Q 82 563 90 546 Q 118 476 129 365 Q 130 331 148 308 Q 164 286 171 301 Q 178 320 177 353 L 173 387 Q 158 501 158 531 C 157 552 157 552 140 559 Z"></path>
      </clipPath>
      <path clip-path="url(#make-me-a-hanzi-clip-0)" d="M 96 561 L 118 542 L 129 522 L 160 308" fill="none" id="make-me-a-hanzi-animation-0" stroke-dasharray="396 792" stroke-linecap="round"></path>
    
      <clipPath id="make-me-a-hanzi-clip-1">
        <path d="M 317 408 Q 330 505 354 537 Q 376 565 351 578 Q 330 588 301 606 Q 282 616 238 589 Q 184 568 140 559 C 111 553 129 523 158 531 Q 165 534 242 551 Q 264 555 270 547 Q 280 540 275 497 Q 271 458 265 413 C 261 383 313 378 317 408 Z"></path>
      </clipPath>
      <path clip-path="url(#make-me-a-hanzi-clip-1)" d="M 147 557 L 165 549 L 273 577 L 291 574 L 304 563 L 314 551 L 295 437 L 272 420" fill="none" id="make-me-a-hanzi-animation-1" stroke-dasharray="454 908" stroke-linecap="round"></path>
    
      <clipPath id="make-me-a-hanzi-clip-2">
        <path d="M 177 353 Q 184 353 192 354 Q 235 366 330 377 Q 340 378 341 388 Q 341 395 317 408 C 292 422 292 422 265 413 Q 264 413 262 412 Q 213 396 173 387 C 144 380 147 352 177 353 Z"></path>
      </clipPath>
      <path clip-path="url(#make-me-a-hanzi-clip-2)" d="M 184 360 L 198 375 L 270 391 L 331 387" fill="none" id="make-me-a-hanzi-animation-2" stroke-dasharray="283 566" stroke-linecap="round"></path>
    
      <clipPath id="make-me-a-hanzi-clip-3">
        <path d="M 635 480 Q 761 502 905 503 Q 929 503 933 512 Q 937 525 921 538 Q 866 574 829 564 Q 759 546 641 522 L 582 511 Q 485 495 376 475 Q 354 471 371 455 Q 399 430 450 441 Q 508 460 579 471 L 635 480 Z"></path>
      </clipPath>
      <path clip-path="url(#make-me-a-hanzi-clip-3)" d="M 374 465 L 425 460 L 564 489 L 840 534 L 884 530 L 922 518" fill="none" id="make-me-a-hanzi-animation-3" stroke-dasharray="685 1370" stroke-linecap="round"></path>
    
      <clipPath id="make-me-a-hanzi-clip-4">
        <path d="M 607 291 Q 620 388 635 480 L 641 522 Q 656 669 689 756 Q 695 769 672 789 Q 632 816 603 823 Q 584 829 574 819 Q 564 810 572 792 Q 597 746 596 716 Q 592 617 582 511 L 579 471 Q 569 380 555 281 C 551 251 603 261 607 291 Z"></path>
      </clipPath>
      <path clip-path="url(#make-me-a-hanzi-clip-4)" d="M 588 805 L 629 768 L 638 753 L 638 738 L 588 335 L 583 310 L 560 289" fill="none" id="make-me-a-hanzi-animation-4" stroke-dasharray="678 1356" stroke-linecap="round"></path>
    
      <clipPath id="make-me-a-hanzi-clip-5">
        <path d="M 448 273 Q 415 282 409 276 Q 402 269 411 251 Q 442 184 457 73 Q 460 39 478 17 Q 497 -8 504 10 Q 511 26 509 56 L 504 94 Q 488 202 486 233 C 484 263 477 266 448 273 Z"></path>
      </clipPath>
      <path clip-path="url(#make-me-a-hanzi-clip-5)" d="M 415 269 L 436 252 L 457 217 L 492 16" fill="none" id="make-me-a-hanzi-animation-5" stroke-dasharray="400 800" stroke-linecap="round"></path>
    
      <clipPath id="make-me-a-hanzi-clip-6">
        <path d="M 758 125 Q 785 218 818 243 Q 836 262 820 282 Q 739 342 682 314 Q 643 302 607 291 L 555 281 Q 479 269 448 273 C 418 275 456 228 486 233 Q 498 234 513 239 Q 600 254 683 269 Q 705 273 713 265 Q 723 256 722 236 Q 715 176 703 127 C 696 98 749 96 758 125 Z"></path>
      </clipPath>
      <path clip-path="url(#make-me-a-hanzi-clip-6)" d="M 464 267 L 501 254 L 707 296 L 738 288 L 768 260 L 737 153 L 710 133" fill="none" id="make-me-a-hanzi-animation-6" stroke-dasharray="596 1192" stroke-linecap="round"></path>
    
      <clipPath id="make-me-a-hanzi-clip-7">
        <path d="M 509 56 Q 519 55 533 57 Q 611 72 777 82 Q 789 83 791 93 Q 792 102 758 125 C 743 135 732 133 703 127 Q 591 103 504 94 C 474 91 479 57 509 56 Z"></path>
      </clipPath>
      <path clip-path="url(#make-me-a-hanzi-clip-7)" d="M 511 89 L 525 77 L 535 77 L 699 102 L 756 103 L 781 93" fill="none" id="make-me-a-hanzi-animation-7" stroke-dasharray="406 812" stroke-linecap="round"></path>
    
  </g>
</svg>