<svg version="1.1" viewBox="0 0 1024 1024" xmlns="http://www.w3.org/2000/svg">
  <g stroke="lightgray" stroke-dasharray="1,1" stroke-width="1" transform="scale(4, 4)">
    <line x1="0" y1="0" x2="256" y2="256"></line>
    <line x1="256" y1="0" x2="0" y2="256"></line>
    <line x1="128" y1="0" x2="128" y2="256"></line>
    <line x1="0" y1="128" x2="256" y2="128"></line>
  </g>
  <g transform="scale(1, -1) translate(0, -900)">
    <style type="text/css">
      
        @keyframes keyframes0 {
          from {
            stroke: blue;
            stroke-dashoffset: 542;
            stroke-width: 128;
          }
          64% {
            animation-timing-function: step-end;
            stroke: blue;
            stroke-dashoffset: 0;
            stroke-width: 128;
          }
          to {
            stroke: black;
            stroke-width: 1024;
          }
        }
        #make-me-a-hanzi-animation-0 {
          animation: keyframes0 0.6910807291666666s both;
          animation-delay: 0s;
          animation-timing-function: linear;
        }
      
        @keyframes keyframes1 {
          from {
            stroke: blue;
            stroke-dashoffset: 552;
            stroke-width: 128;
          }
          64% {
            animation-timing-function: step-end;
            stroke: blue;
            stroke-dashoffset: 0;
            stroke-width: 128;
          }
          to {
            stroke: black;
            stroke-width: 1024;
          }
        }
        #make-me-a-hanzi-animation-1 {
          animation: keyframes1 0.69921875s both;
          animation-delay: 0.6910807291666666s;
          animation-timing-function: linear;
        }
      
        @keyframes keyframes2 {
          from {
            stroke: blue;
            stroke-dashoffset: 411;
            stroke-width: 128;
          }
          57% {
            animation-timing-function: step-end;
            stroke: blue;
            stroke-dashoffset: 0;
            stroke-width: 128;
          }
          to {
            stroke: black;
            stroke-width: 1024;
          }
        }
        #make-me-a-hanzi-animation-2 {
          animation: keyframes2 0.58447265625s both;
          animation-delay: 1.3902994791666665s;
          animation-timing-function: linear;
        }
      
        @keyframes keyframes3 {
          from {
            stroke: blue;
            stroke-dashoffset: 685;
            stroke-width: 128;
          }
          69% {
            animation-timing-function: step-end;
            stroke: blue;
            stroke-dashoffset: 0;
            stroke-width: 128;
          }
          to {
            stroke: black;
            stroke-width: 1024;
          }
        }
        #make-me-a-hanzi-animation-3 {
          animation: keyframes3 0.8074544270833334s both;
          animation-delay: 1.9747721354166665s;
          animation-timing-function: linear;
        }
      
        @keyframes keyframes4 {
          from {
            stroke: blue;
            stroke-dashoffset: 780;
            stroke-width: 128;
          }
          72% {
            animation-timing-function: step-end;
            stroke: blue;
            stroke-dashoffset: 0;
            stroke-width: 128;
          }
          to {
            stroke: black;
            stroke-width: 1024;
          }
        }
        #make-me-a-hanzi-animation-4 {
          animation: keyframes4 0.884765625s both;
          animation-delay: 2.7822265625s;
          animation-timing-function: linear;
        }
      
        @keyframes keyframes5 {
          from {
            stroke: blue;
            stroke-dashoffset: 504;
            stroke-width: 128;
          }
          62% {
            animation-timing-function: step-end;
            stroke: blue;
            stroke-dashoffset: 0;
            stroke-width: 128;
          }
          to {
            stroke: black;
            stroke-width: 1024;
          }
        }
        #make-me-a-hanzi-animation-5 {
          animation: keyframes5 0.66015625s both;
          animation-delay: 3.6669921875s;
          animation-timing-function: linear;
        }
      
        @keyframes keyframes6 {
          from {
            stroke: blue;
            stroke-dashoffset: 603;
            stroke-width: 128;
          }
          66% {
            animation-timing-function: step-end;
            stroke: blue;
            stroke-dashoffset: 0;
            stroke-width: 128;
          }
          to {
            stroke: black;
            stroke-width: 1024;
          }
        }
        #make-me-a-hanzi-animation-6 {
          animation: keyframes6 0.74072265625s both;
          animation-delay: 4.3271484375s;
          animation-timing-function: linear;
        }
      
        @keyframes keyframes7 {
          from {
            stroke: blue;
            stroke-dashoffset: 612;
            stroke-width: 128;
          }
          67% {
            animation-timing-function: step-end;
            stroke: blue;
            stroke-dashoffset: 0;
            stroke-width: 128;
          }
          to {
            stroke: black;
            stroke-width: 1024;
          }
        }
        #make-me-a-hanzi-animation-7 {
          animation: keyframes7 0.748046875s both;
          animation-delay: 5.06787109375s;
          animation-timing-function: linear;
        }
      
        @keyframes keyframes8 {
          from {
            stroke: blue;
            stroke-dashoffset: 374;
            stroke-width: 128;
          }
          55% {
            animation-timing-function: step-end;
            stroke: blue;
            stroke-dashoffset: 0;
            stroke-width: 128;
          }
          to {
            stroke: black;
            stroke-width: 1024;
          }
        }
        #make-me-a-hanzi-animation-8 {
          animation: keyframes8 0.5543619791666666s both;
          animation-delay: 5.81591796875s;
          animation-timing-function: linear;
        }
      
        @keyframes keyframes9 {
          from {
            stroke: blue;
            stroke-dashoffset: 428;
            stroke-width: 128;
          }
          58% {
            animation-timing-function: step-end;
            stroke: blue;
            stroke-dashoffset: 0;
            stroke-width: 128;
          }
          to {
            stroke: black;
            stroke-width: 1024;
          }
        }
        #make-me-a-hanzi-animation-9 {
          animation: keyframes9 0.5983072916666666s both;
          animation-delay: 6.370279947916667s;
          animation-timing-function: linear;
        }
      
        @keyframes keyframes10 {
          from {
            stroke: blue;
            stroke-dashoffset: 821;
            stroke-width: 128;
          }
          73% {
            animation-timing-function: step-end;
            stroke: blue;
            stroke-dashoffset: 0;
            stroke-width: 128;
          }
          to {
            stroke: black;
            stroke-width: 1024;
          }
        }
        #make-me-a-hanzi-animation-10 {
          animation: keyframes10 0.9181315104166666s both;
          animation-delay: 6.968587239583334s;
          animation-timing-function: linear;
        }
      
    </style>
    
      <path d="M 130 557 Q 126 561 114 564 Q 76 577 71 570 L 69 568 Q 67 564 73 545 Q 102 469 114 357 Q 115 320 133 297 Q 149 274 155 290 Q 165 314 158 363 L 153 394 Q 138 502 137 529 C 135 554 135 554 130 557 Z" fill="lightgray"></path>
    
      <path d="M 289 427 Q 302 511 324 536 Q 347 563 321 575 L 276 602 Q 257 612 237 600 Q 213 583 130 557 C 101 548 108 522 137 529 L 220 549 Q 241 553 246 546 Q 252 540 237 419 C 233 389 284 397 289 427 Z" fill="lightgray"></path>
    
      <path d="M 321 402 Q 321 406 313 414 Q 296 427 289 427 L 237 419 Q 189 404 153 394 C 124 386 128 362 158 363 Q 167 363 178 365 Q 241 382 312 392 Q 321 393 321 402 Z" fill="lightgray"></path>
    
      <path d="M 553 719 Q 568 751 576 760 Q 583 766 580 776 Q 570 800 538 809 Q 511 817 493 813 Q 484 809 488 798 Q 491 787 492 774 Q 498 696 415 564 Q 368 490 325 449 Q 318 442 329 441 Q 398 461 447 531 Q 502 620 543 698 L 553 719 Z" fill="lightgray"></path>
    
      <path d="M 543 698 Q 757 439 813 429 Q 931 429 955 433 L 964 433 Q 984 435 984 441 Q 985 447 972 453 Q 783 533 746 559 Q 682 601 563 711 Q 555 718 553 719 C 530 738 524 721 543 698 Z" fill="lightgray"></path>
    
      <path d="M 545 416 Q 661 449 667 452 Q 674 459 670 466 Q 666 472 656 476 Q 619 493 581 474 Q 576 472 572 470 Q 504 443 427 433 Q 394 425 419 411 Q 451 395 499 404 L 545 416 Z" fill="lightgray"></path>
    
      <path d="M 566 267 Q 714 299 720 303 Q 726 308 727 312 Q 729 325 692 336 Q 663 342 637 332 L 568 310 L 512 296 Q 445 286 382 278 Q 349 272 372.5 257.5 Q 396 243 449 247 Q 457 247 512 256 L 566 267 Z" fill="lightgray"></path>
    
      <path d="M 559 67 Q 562 175 566 267 L 568 310 Q 570 327 572 365 Q 579 384 570 394 Q 560 406 545 416 C 521 434 488 432 499 404 Q 512 378 512 296 L 512 256 L 512 61 C 512 31 558 37 559 67 Z" fill="lightgray"></path>
    
      <path d="M 367 159 L 389 129 Q 409 104 425 102 Q 429 102 432 103 Q 451 112 443 157 Q 439 174 398 192 Q 361 210 345 208 Q 341 206 340 192 Q 341 180 367 159 Z" fill="lightgray"></path>
    
      <path d="M 682 244 Q 684 237 682 231 Q 675 206 606 128 Q 601 122 606 116 Q 612 114 619 119 Q 706 178 741 196 Q 772 206 733 243 Q 715 259 696 261 Q 682 261 682 244 Z" fill="lightgray"></path>
    
      <path d="M 512 61 Q 363 45 285 37 Q 267 35 280 20 Q 285 14 292 10 Q 320 -10 347 -2 Q 506 35 795 35 Q 794 35 827 34 Q 848 33 853 42 Q 858 53 843 67 Q 792 106 757 98 Q 682 83 559 67 L 512 61 Z" fill="lightgray"></path>
    
    
      <clipPath id="make-me-a-hanzi-clip-0">
        <path d="M 130 557 Q 126 561 114 564 Q 76 577 71 570 L 69 568 Q 67 564 73 545 Q 102 469 114 357 Q 115 320 133 297 Q 149 274 155 290 Q 165 314 158 363 L 153 394 Q 138 502 137 529 C 135 554 135 554 130 557 Z"></path>
      </clipPath>
      <path clip-path="url(#make-me-a-hanzi-clip-0)" d="M 75 564 L 109 529 L 145 295" fill="none" id="make-me-a-hanzi-animation-0" stroke-dasharray="414 828" stroke-linecap="round"></path>
    
      <clipPath id="make-me-a-hanzi-clip-1">
        <path d="M 289 427 Q 302 511 324 536 Q 347 563 321 575 L 276 602 Q 257 612 237 600 Q 213 583 130 557 C 101 548 108 522 137 529 L 220 549 Q 241 553 246 546 Q 252 540 237 419 C 233 389 284 397 289 427 Z"></path>
      </clipPath>
      <path clip-path="url(#make-me-a-hanzi-clip-1)" d="M 142 538 L 148 548 L 236 573 L 260 575 L 276 563 L 286 551 L 266 448 L 242 433" fill="none" id="make-me-a-hanzi-animation-1" stroke-dasharray="424 848" stroke-linecap="round"></path>
    
      <clipPath id="make-me-a-hanzi-clip-2">
        <path d="M 321 402 Q 321 406 313 414 Q 296 427 289 427 L 237 419 Q 189 404 153 394 C 124 386 128 362 158 363 Q 167 363 178 365 Q 241 382 312 392 Q 321 393 321 402 Z"></path>
      </clipPath>
      <path clip-path="url(#make-me-a-hanzi-clip-2)" d="M 162 372 L 173 382 L 235 399 L 285 407 L 310 403" fill="none" id="make-me-a-hanzi-animation-2" stroke-dasharray="283 566" stroke-linecap="round"></path>
    
      <clipPath id="make-me-a-hanzi-clip-3">
        <path d="M 553 719 Q 568 751 576 760 Q 583 766 580 776 Q 570 800 538 809 Q 511 817 493 813 Q 484 809 488 798 Q 491 787 492 774 Q 498 696 415 564 Q 368 490 325 449 Q 318 442 329 441 Q 398 461 447 531 Q 502 620 543 698 L 553 719 Z"></path>
      </clipPath>
      <path clip-path="url(#make-me-a-hanzi-clip-3)" d="M 501 802 L 533 768 L 492 655 L 407 513 L 334 449" fill="none" id="make-me-a-hanzi-animation-3" stroke-dasharray="557 1114" stroke-linecap="round"></path>
    
      <clipPath id="make-me-a-hanzi-clip-4">
        <path d="M 543 698 Q 757 439 813 429 Q 931 429 955 433 L 964 433 Q 984 435 984 441 Q 985 447 972 453 Q 783 533 746 559 Q 682 601 563 711 Q 555 718 553 719 C 530 738 524 721 543 698 Z"></path>
      </clipPath>
      <path clip-path="url(#make-me-a-hanzi-clip-4)" d="M 555 712 L 558 698 L 578 674 L 592 666 L 596 656 L 679 576 L 788 490 L 821 472 L 978 442" fill="none" id="make-me-a-hanzi-animation-4" stroke-dasharray="652 1304" stroke-linecap="round"></path>
    
      <clipPath id="make-me-a-hanzi-clip-5">
        <path d="M 545 416 Q 661 449 667 452 Q 674 459 670 466 Q 666 472 656 476 Q 619 493 581 474 Q 576 472 572 470 Q 504 443 427 433 Q 394 425 419 411 Q 451 395 499 404 L 545 416 Z"></path>
      </clipPath>
      <path clip-path="url(#make-me-a-hanzi-clip-5)" d="M 420 423 L 475 420 L 553 438 L 609 459 L 662 460" fill="none" id="make-me-a-hanzi-animation-5" stroke-dasharray="376 752" stroke-linecap="round"></path>
    
      <clipPath id="make-me-a-hanzi-clip-6">
        <path d="M 566 267 Q 714 299 720 303 Q 726 308 727 312 Q 729 325 692 336 Q 663 342 637 332 L 568 310 L 512 296 Q 445 286 382 278 Q 349 272 372.5 257.5 Q 396 243 449 247 Q 457 247 512 256 L 566 267 Z"></path>
      </clipPath>
      <path clip-path="url(#make-me-a-hanzi-clip-6)" d="M 375 269 L 420 264 L 497 272 L 660 313 L 716 313" fill="none" id="make-me-a-hanzi-animation-6" stroke-dasharray="475 950" stroke-linecap="round"></path>
    
      <clipPath id="make-me-a-hanzi-clip-7">
        <path d="M 559 67 Q 562 175 566 267 L 568 310 Q 570 327 572 365 Q 579 384 570 394 Q 560 406 545 416 C 521 434 488 432 499 404 Q 512 378 512 296 L 512 256 L 512 61 C 512 31 558 37 559 67 Z"></path>
      </clipPath>
      <path clip-path="url(#make-me-a-hanzi-clip-7)" d="M 508 402 L 541 377 L 537 92 L 519 69" fill="none" id="make-me-a-hanzi-animation-7" stroke-dasharray="484 968" stroke-linecap="round"></path>
    
      <clipPath id="make-me-a-hanzi-clip-8">
        <path d="M 367 159 L 389 129 Q 409 104 425 102 Q 429 102 432 103 Q 451 112 443 157 Q 439 174 398 192 Q 361 210 345 208 Q 341 206 340 192 Q 341 180 367 159 Z"></path>
      </clipPath>
      <path clip-path="url(#make-me-a-hanzi-clip-8)" d="M 349 202 L 414 148 L 426 117" fill="none" id="make-me-a-hanzi-animation-8" stroke-dasharray="246 492" stroke-linecap="round"></path>
    
      <clipPath id="make-me-a-hanzi-clip-9">
        <path d="M 682 244 Q 684 237 682 231 Q 675 206 606 128 Q 601 122 606 116 Q 612 114 619 119 Q 706 178 741 196 Q 772 206 733 243 Q 715 259 696 261 Q 682 261 682 244 Z"></path>
      </clipPath>
      <path clip-path="url(#make-me-a-hanzi-clip-9)" d="M 695 247 L 711 217 L 611 122" fill="none" id="make-me-a-hanzi-animation-9" stroke-dasharray="300 600" stroke-linecap="round"></path>
    
      <clipPath id="make-me-a-hanzi-clip-10">
        <path d="M 512 61 Q 363 45 285 37 Q 267 35 280 20 Q 285 14 292 10 Q 320 -10 347 -2 Q 506 35 795 35 Q 794 35 827 34 Q 848 33 853 42 Q 858 53 843 67 Q 792 106 757 98 Q 682 83 559 67 L 512 61 Z"></path>
      </clipPath>
      <path clip-path="url(#make-me-a-hanzi-clip-10)" d="M 283 28 L 337 19 L 485 41 L 773 67 L 842 48" fill="none" id="make-me-a-hanzi-animation-10" stroke-dasharray="693 1386" stroke-linecap="round"></path>
    
  </g>
</svg>