<svg version="1.1" viewBox="0 0 1024 1024" xmlns="http://www.w3.org/2000/svg">
  <g stroke="lightgray" stroke-dasharray="1,1" stroke-width="1" transform="scale(4, 4)">
    <line x1="0" y1="0" x2="256" y2="256"></line>
    <line x1="256" y1="0" x2="0" y2="256"></line>
    <line x1="128" y1="0" x2="128" y2="256"></line>
    <line x1="0" y1="128" x2="256" y2="128"></line>
  </g>
  <g transform="scale(1, -1) translate(0, -900)">
    <style type="text/css">
      
        @keyframes keyframes0 {
          from {
            stroke: blue;
            stroke-dashoffset: 360;
            stroke-width: 128;
          }
          54% {
            animation-timing-function: step-end;
            stroke: blue;
            stroke-dashoffset: 0;
            stroke-width: 128;
          }
          to {
            stroke: black;
            stroke-width: 1024;
          }
        }
        #make-me-a-hanzi-animation-0 {
          animation: keyframes0 0.54296875s both;
          animation-delay: 0s;
          animation-timing-function: linear;
        }
      
        @keyframes keyframes1 {
          from {
            stroke: blue;
            stroke-dashoffset: 629;
            stroke-width: 128;
          }
          67% {
            animation-timing-function: step-end;
            stroke: blue;
            stroke-dashoffset: 0;
            stroke-width: 128;
          }
          to {
            stroke: black;
            stroke-width: 1024;
          }
        }
        #make-me-a-hanzi-animation-1 {
          animation: keyframes1 0.7618815104166666s both;
          animation-delay: 0.54296875s;
          animation-timing-function: linear;
        }
      
        @keyframes keyframes2 {
          from {
            stroke: blue;
            stroke-dashoffset: 345;
            stroke-width: 128;
          }
          53% {
            animation-timing-function: step-end;
            stroke: blue;
            stroke-dashoffset: 0;
            stroke-width: 128;
          }
          to {
            stroke: black;
            stroke-width: 1024;
          }
        }
        #make-me-a-hanzi-animation-2 {
          animation: keyframes2 0.53076171875s both;
          animation-delay: 1.3048502604166665s;
          animation-timing-function: linear;
        }
      
        @keyframes keyframes3 {
          from {
            stroke: blue;
            stroke-dashoffset: 408;
            stroke-width: 128;
          }
          57% {
            animation-timing-function: step-end;
            stroke: blue;
            stroke-dashoffset: 0;
            stroke-width: 128;
          }
          to {
            stroke: black;
            stroke-width: 1024;
          }
        }
        #make-me-a-hanzi-animation-3 {
          animation: keyframes3 0.58203125s both;
          animation-delay: 1.8356119791666665s;
          animation-timing-function: linear;
        }
      
        @keyframes keyframes4 {
          from {
            stroke: blue;
            stroke-dashoffset: 433;
            stroke-width: 128;
          }
          58% {
            animation-timing-function: step-end;
            stroke: blue;
            stroke-dashoffset: 0;
            stroke-width: 128;
          }
          to {
            stroke: black;
            stroke-width: 1024;
          }
        }
        #make-me-a-hanzi-animation-4 {
          animation: keyframes4 0.6023763020833334s both;
          animation-delay: 2.4176432291666665s;
          animation-timing-function: linear;
        }
      
        @keyframes keyframes5 {
          from {
            stroke: blue;
            stroke-dashoffset: 993;
            stroke-width: 128;
          }
          76% {
            animation-timing-function: step-end;
            stroke: blue;
            stroke-dashoffset: 0;
            stroke-width: 128;
          }
          to {
            stroke: black;
            stroke-width: 1024;
          }
        }
        #make-me-a-hanzi-animation-5 {
          animation: keyframes5 1.05810546875s both;
          animation-delay: 3.02001953125s;
          animation-timing-function: linear;
        }
      
        @keyframes keyframes6 {
          from {
            stroke: blue;
            stroke-dashoffset: 443;
            stroke-width: 128;
          }
          59% {
            animation-timing-function: step-end;
            stroke: blue;
            stroke-dashoffset: 0;
            stroke-width: 128;
          }
          to {
            stroke: black;
            stroke-width: 1024;
          }
        }
        #make-me-a-hanzi-animation-6 {
          animation: keyframes6 0.6105143229166666s both;
          animation-delay: 4.078125s;
          animation-timing-function: linear;
        }
      
        @keyframes keyframes7 {
          from {
            stroke: blue;
            stroke-dashoffset: 820;
            stroke-width: 128;
          }
          73% {
            animation-timing-function: step-end;
            stroke: blue;
            stroke-dashoffset: 0;
            stroke-width: 128;
          }
          to {
            stroke: black;
            stroke-width: 1024;
          }
        }
        #make-me-a-hanzi-animation-7 {
          animation: keyframes7 0.9173177083333334s both;
          animation-delay: 4.688639322916667s;
          animation-timing-function: linear;
        }
      
        @keyframes keyframes8 {
          from {
            stroke: blue;
            stroke-dashoffset: 590;
            stroke-width: 128;
          }
          66% {
            animation-timing-function: step-end;
            stroke: blue;
            stroke-dashoffset: 0;
            stroke-width: 128;
          }
          to {
            stroke: black;
            stroke-width: 1024;
          }
        }
        #make-me-a-hanzi-animation-8 {
          animation: keyframes8 0.7301432291666666s both;
          animation-delay: 5.60595703125s;
          animation-timing-function: linear;
        }
      
        @keyframes keyframes9 {
          from {
            stroke: blue;
            stroke-dashoffset: 486;
            stroke-width: 128;
          }
          61% {
            animation-timing-function: step-end;
            stroke: blue;
            stroke-dashoffset: 0;
            stroke-width: 128;
          }
          to {
            stroke: black;
            stroke-width: 1024;
          }
        }
        #make-me-a-hanzi-animation-9 {
          animation: keyframes9 0.6455078125s both;
          animation-delay: 6.336100260416667s;
          animation-timing-function: linear;
        }
      
        @keyframes keyframes10 {
          from {
            stroke: blue;
            stroke-dashoffset: 714;
            stroke-width: 128;
          }
          70% {
            animation-timing-function: step-end;
            stroke: blue;
            stroke-dashoffset: 0;
            stroke-width: 128;
          }
          to {
            stroke: black;
            stroke-width: 1024;
          }
        }
        #make-me-a-hanzi-animation-10 {
          animation: keyframes10 0.8310546875s both;
          animation-delay: 6.981608072916667s;
          animation-timing-function: linear;
        }
      
        @keyframes keyframes11 {
          from {
            stroke: blue;
            stroke-dashoffset: 565;
            stroke-width: 128;
          }
          65% {
            animation-timing-function: step-end;
            stroke: blue;
            stroke-dashoffset: 0;
            stroke-width: 128;
          }
          to {
            stroke: black;
            stroke-width: 1024;
          }
        }
        #make-me-a-hanzi-animation-11 {
          animation: keyframes11 0.7097981770833334s both;
          animation-delay: 7.812662760416667s;
          animation-timing-function: linear;
        }
      
    </style>
    
      <path d="M 449 805 Q 491 766 522 756 Q 537 755 543 768 Q 547 781 543 796 Q 528 829 456 842 Q 440 843 432 840 Q 428 839 430 827 Q 433 817 449 805 Z" fill="lightgray"></path>
    
      <path d="M 585 700 Q 610 706 636 709 Q 690 719 698 726 Q 705 733 702 741 Q 696 751 670 760 Q 649 766 548 738 Q 401 710 330 705 Q 296 701 319 685 Q 355 661 408 671 Q 480 684 555 695 L 585 700 Z" fill="lightgray"></path>
    
      <path d="M 374 615 Q 399 572 414 569 Q 423 568 429 577 Q 436 587 433 613 Q 432 626 415 637 Q 367 661 360 659 Q 356 656 355 646 Q 356 636 374 615 Z" fill="lightgray"></path>
    
      <path d="M 556 568 Q 559 572 563 576 Q 579 592 596 616 Q 603 626 616 638 Q 631 648 624 658 Q 611 688 585 700 C 558 714 547 719 555 695 Q 555 694 557 689 Q 561 671 520 563 C 509 535 537 545 556 568 Z" fill="lightgray"></path>
    
      <path d="M 232 521 Q 220 543 210 551 Q 191 566 189 540 Q 193 513 179 489 Q 164 473 143 454 Q 133 442 137 421 Q 141 391 151 375 Q 166 348 186 376 Q 195 391 228 483 C 238 511 238 511 232 521 Z" fill="lightgray"></path>
    
      <path d="M 490 528 Q 721 570 775 560 Q 791 550 790 542 Q 790 539 762 471 Q 755 458 761 453 Q 768 449 786 461 Q 841 495 887 507 Q 924 517 924 526 Q 923 536 847 592 Q 826 608 801 604 Q 696 589 556 568 L 520 563 Q 441 553 343 536 Q 288 529 232 521 C 202 517 198 485 228 483 Q 247 477 302 490 Q 413 521 445 521 L 490 528 Z" fill="lightgray"></path>
    
      <path d="M 343 402 Q 328 417 297 414 Q 287 410 292 401 Q 317 359 301 288 Q 286 254 318 221 Q 325 211 332 216 Q 350 234 352 309 Q 352 352 352 369 C 352 395 352 395 343 402 Z" fill="lightgray"></path>
    
      <path d="M 514 398 Q 565 407 616 411 Q 643 412 644 394 Q 647 325 640 317 Q 630 308 575 312 Q 559 313 557 309 Q 554 303 566 295 Q 618 264 652 237 Q 665 225 677 239 Q 698 269 700 322 Q 700 380 704 399 Q 708 418 699 427 Q 674 451 656 461 Q 644 467 635 459 Q 628 449 523 427 Q 519 427 515 425 L 463 418 Q 417 412 343 402 C 313 398 322 365 352 369 Q 356 369 364 370 Q 413 382 463 390 L 514 398 Z" fill="lightgray"></path>
    
      <path d="M 469 228 Q 473 206 479 198 Q 483 192 490 195 Q 497 198 501 210 Q 508 237 514 398 L 515 425 Q 515 452 523 491 Q 526 506 514 514 Q 501 523 490 528 C 463 542 430 547 445 521 Q 446 520 448 516 Q 458 501 463 423 Q 462 422 463 418 L 463 390 Q 464 356 465 313 Q 466 249 469 228 Z" fill="lightgray"></path>
    
      <path d="M 355 154 Q 343 161 302 169 Q 289 173 285 167 Q 278 160 287 143 Q 315 86 331 -5 Q 334 -33 350 -51 Q 369 -76 376 -58 Q 379 -49 380 -38 L 378 1 Q 365 89 363 121 C 361 151 361 151 355 154 Z" fill="lightgray"></path>
    
      <path d="M 660 24 Q 684 97 719 124 Q 737 143 722 161 Q 706 176 654 202 Q 636 211 614 203 Q 503 164 355 154 C 325 152 333 120 363 121 Q 379 120 398 125 Q 495 138 589 154 Q 613 158 622 148 Q 632 139 629 120 Q 620 71 608 28 C 600 -1 650 -4 660 24 Z" fill="lightgray"></path>
    
      <path d="M 380 -38 Q 386 -39 397 -38 Q 487 -25 679 -21 Q 692 -21 694 -11 Q 695 -2 662 23 Q 661 24 660 24 L 608 28 Q 481 7 378 1 C 348 -1 350 -37 380 -38 Z" fill="lightgray"></path>
    
    
      <clipPath id="make-me-a-hanzi-clip-0">
        <path d="M 449 805 Q 491 766 522 756 Q 537 755 543 768 Q 547 781 543 796 Q 528 829 456 842 Q 440 843 432 840 Q 428 839 430 827 Q 433 817 449 805 Z"></path>
      </clipPath>
      <path clip-path="url(#make-me-a-hanzi-clip-0)" d="M 439 832 L 490 806 L 525 775" fill="none" id="make-me-a-hanzi-animation-0" stroke-dasharray="232 464" stroke-linecap="round"></path>
    
      <clipPath id="make-me-a-hanzi-clip-1">
        <path d="M 585 700 Q 610 706 636 709 Q 690 719 698 726 Q 705 733 702 741 Q 696 751 670 760 Q 649 766 548 738 Q 401 710 330 705 Q 296 701 319 685 Q 355 661 408 671 Q 480 684 555 695 L 585 700 Z"></path>
      </clipPath>
      <path clip-path="url(#make-me-a-hanzi-clip-1)" d="M 322 696 L 356 688 L 397 690 L 651 737 L 690 736" fill="none" id="make-me-a-hanzi-animation-1" stroke-dasharray="501 1002" stroke-linecap="round"></path>
    
      <clipPath id="make-me-a-hanzi-clip-2">
        <path d="M 374 615 Q 399 572 414 569 Q 423 568 429 577 Q 436 587 433 613 Q 432 626 415 637 Q 367 661 360 659 Q 356 656 355 646 Q 356 636 374 615 Z"></path>
      </clipPath>
      <path clip-path="url(#make-me-a-hanzi-clip-2)" d="M 362 651 L 396 624 L 416 583" fill="none" id="make-me-a-hanzi-animation-2" stroke-dasharray="217 434" stroke-linecap="round"></path>
    
      <clipPath id="make-me-a-hanzi-clip-3">
        <path d="M 556 568 Q 559 572 563 576 Q 579 592 596 616 Q 603 626 616 638 Q 631 648 624 658 Q 611 688 585 700 C 558 714 547 719 555 695 Q 555 694 557 689 Q 561 671 520 563 C 509 535 537 545 556 568 Z"></path>
      </clipPath>
      <path clip-path="url(#make-me-a-hanzi-clip-3)" d="M 563 694 L 580 676 L 587 658 L 547 584 L 525 574" fill="none" id="make-me-a-hanzi-animation-3" stroke-dasharray="280 560" stroke-linecap="round"></path>
    
      <clipPath id="make-me-a-hanzi-clip-4">
        <path d="M 232 521 Q 220 543 210 551 Q 191 566 189 540 Q 193 513 179 489 Q 164 473 143 454 Q 133 442 137 421 Q 141 391 151 375 Q 166 348 186 376 Q 195 391 228 483 C 238 511 238 511 232 521 Z"></path>
      </clipPath>
      <path clip-path="url(#make-me-a-hanzi-clip-4)" d="M 200 545 L 210 517 L 206 492 L 171 430 L 167 379" fill="none" id="make-me-a-hanzi-animation-4" stroke-dasharray="305 610" stroke-linecap="round"></path>
    
      <clipPath id="make-me-a-hanzi-clip-5">
        <path d="M 490 528 Q 721 570 775 560 Q 791 550 790 542 Q 790 539 762 471 Q 755 458 761 453 Q 768 449 786 461 Q 841 495 887 507 Q 924 517 924 526 Q 923 536 847 592 Q 826 608 801 604 Q 696 589 556 568 L 520 563 Q 441 553 343 536 Q 288 529 232 521 C 202 517 198 485 228 483 Q 247 477 302 490 Q 413 521 445 521 L 490 528 Z"></path>
      </clipPath>
      <path clip-path="url(#make-me-a-hanzi-clip-5)" d="M 234 489 L 251 502 L 416 534 L 727 578 L 784 580 L 821 565 L 836 538 L 766 459" fill="none" id="make-me-a-hanzi-animation-5" stroke-dasharray="865 1730" stroke-linecap="round"></path>
    
      <clipPath id="make-me-a-hanzi-clip-6">
        <path d="M 343 402 Q 328 417 297 414 Q 287 410 292 401 Q 317 359 301 288 Q 286 254 318 221 Q 325 211 332 216 Q 350 234 352 309 Q 352 352 352 369 C 352 395 352 395 343 402 Z"></path>
      </clipPath>
      <path clip-path="url(#make-me-a-hanzi-clip-6)" d="M 306 403 L 323 388 L 330 352 L 329 298 L 322 267 L 327 225" fill="none" id="make-me-a-hanzi-animation-6" stroke-dasharray="315 630" stroke-linecap="round"></path>
    
      <clipPath id="make-me-a-hanzi-clip-7">
        <path d="M 514 398 Q 565 407 616 411 Q 643 412 644 394 Q 647 325 640 317 Q 630 308 575 312 Q 559 313 557 309 Q 554 303 566 295 Q 618 264 652 237 Q 665 225 677 239 Q 698 269 700 322 Q 700 380 704 399 Q 708 418 699 427 Q 674 451 656 461 Q 644 467 635 459 Q 628 449 523 427 Q 519 427 515 425 L 463 418 Q 417 412 343 402 C 313 398 322 365 352 369 Q 356 369 364 370 Q 413 382 463 390 L 514 398 Z"></path>
      </clipPath>
      <path clip-path="url(#make-me-a-hanzi-clip-7)" d="M 353 399 L 367 388 L 600 428 L 639 433 L 654 429 L 673 408 L 674 399 L 673 333 L 662 290 L 655 282 L 644 283 L 562 306" fill="none" id="make-me-a-hanzi-animation-7" stroke-dasharray="692 1384" stroke-linecap="round"></path>
    
      <clipPath id="make-me-a-hanzi-clip-8">
        <path d="M 469 228 Q 473 206 479 198 Q 483 192 490 195 Q 497 198 501 210 Q 508 237 514 398 L 515 425 Q 515 452 523 491 Q 526 506 514 514 Q 501 523 490 528 C 463 542 430 547 445 521 Q 446 520 448 516 Q 458 501 463 423 Q 462 422 463 418 L 463 390 Q 464 356 465 313 Q 466 249 469 228 Z"></path>
      </clipPath>
      <path clip-path="url(#make-me-a-hanzi-clip-8)" d="M 453 522 L 490 489 L 487 205" fill="none" id="make-me-a-hanzi-animation-8" stroke-dasharray="462 924" stroke-linecap="round"></path>
    
      <clipPath id="make-me-a-hanzi-clip-9">
        <path d="M 355 154 Q 343 161 302 169 Q 289 173 285 167 Q 278 160 287 143 Q 315 86 331 -5 Q 334 -33 350 -51 Q 369 -76 376 -58 Q 379 -49 380 -38 L 378 1 Q 365 89 363 121 C 361 151 361 151 355 154 Z"></path>
      </clipPath>
      <path clip-path="url(#make-me-a-hanzi-clip-9)" d="M 294 159 L 328 130 L 364 -52" fill="none" id="make-me-a-hanzi-animation-9" stroke-dasharray="358 716" stroke-linecap="round"></path>
    
      <clipPath id="make-me-a-hanzi-clip-10">
        <path d="M 660 24 Q 684 97 719 124 Q 737 143 722 161 Q 706 176 654 202 Q 636 211 614 203 Q 503 164 355 154 C 325 152 333 120 363 121 Q 379 120 398 125 Q 495 138 589 154 Q 613 158 622 148 Q 632 139 629 120 Q 620 71 608 28 C 600 -1 650 -4 660 24 Z"></path>
      </clipPath>
      <path clip-path="url(#make-me-a-hanzi-clip-10)" d="M 364 150 L 378 138 L 507 156 L 600 177 L 638 175 L 673 142 L 642 51 L 615 34" fill="none" id="make-me-a-hanzi-animation-10" stroke-dasharray="586 1172" stroke-linecap="round"></path>
    
      <clipPath id="make-me-a-hanzi-clip-11">
        <path d="M 380 -38 Q 386 -39 397 -38 Q 487 -25 679 -21 Q 692 -21 694 -11 Q 695 -2 662 23 Q 661 24 660 24 L 608 28 Q 481 7 378 1 C 348 -1 350 -37 380 -38 Z"></path>
      </clipPath>
      <path clip-path="url(#make-me-a-hanzi-clip-11)" d="M 384 -31 L 398 -18 L 415 -15 L 613 3 L 659 1 L 685 -10" fill="none" id="make-me-a-hanzi-animation-11" stroke-dasharray="437 874" stroke-linecap="round"></path>
    
  </g>
</svg>