<svg version="1.1" viewBox="0 0 1024 1024" xmlns="http://www.w3.org/2000/svg">
  <g stroke="lightgray" stroke-dasharray="1,1" stroke-width="1" transform="scale(4, 4)">
    <line x1="0" y1="0" x2="256" y2="256"></line>
    <line x1="256" y1="0" x2="0" y2="256"></line>
    <line x1="128" y1="0" x2="128" y2="256"></line>
    <line x1="0" y1="128" x2="256" y2="128"></line>
  </g>
  <g transform="scale(1, -1) translate(0, -900)">
    <style type="text/css">
      
        @keyframes keyframes0 {
          from {
            stroke: blue;
            stroke-dashoffset: 514;
            stroke-width: 128;
          }
          63% {
            animation-timing-function: step-end;
            stroke: blue;
            stroke-dashoffset: 0;
            stroke-width: 128;
          }
          to {
            stroke: black;
            stroke-width: 1024;
          }
        }
        #make-me-a-hanzi-animation-0 {
          animation: keyframes0 0.6682942708333334s both;
          animation-delay: 0s;
          animation-timing-function: linear;
        }
      
        @keyframes keyframes1 {
          from {
            stroke: blue;
            stroke-dashoffset: 580;
            stroke-width: 128;
          }
          65% {
            animation-timing-function: step-end;
            stroke: blue;
            stroke-dashoffset: 0;
            stroke-width: 128;
          }
          to {
            stroke: black;
            stroke-width: 1024;
          }
        }
        #make-me-a-hanzi-animation-1 {
          animation: keyframes1 0.7220052083333334s both;
          animation-delay: 0.6682942708333334s;
          animation-timing-function: linear;
        }
      
        @keyframes keyframes2 {
          from {
            stroke: blue;
            stroke-dashoffset: 397;
            stroke-width: 128;
          }
          56% {
            animation-timing-function: step-end;
            stroke: blue;
            stroke-dashoffset: 0;
            stroke-width: 128;
          }
          to {
            stroke: black;
            stroke-width: 1024;
          }
        }
        #make-me-a-hanzi-animation-2 {
          animation: keyframes2 0.5730794270833334s both;
          animation-delay: 1.3902994791666667s;
          animation-timing-function: linear;
        }
      
        @keyframes keyframes3 {
          from {
            stroke: blue;
            stroke-dashoffset: 545;
            stroke-width: 128;
          }
          64% {
            animation-timing-function: step-end;
            stroke: blue;
            stroke-dashoffset: 0;
            stroke-width: 128;
          }
          to {
            stroke: black;
            stroke-width: 1024;
          }
        }
        #make-me-a-hanzi-animation-3 {
          animation: keyframes3 0.6935221354166666s both;
          animation-delay: 1.96337890625s;
          animation-timing-function: linear;
        }
      
        @keyframes keyframes4 {
          from {
            stroke: blue;
            stroke-dashoffset: 703;
            stroke-width: 128;
          }
          70% {
            animation-timing-function: step-end;
            stroke: blue;
            stroke-dashoffset: 0;
            stroke-width: 128;
          }
          to {
            stroke: black;
            stroke-width: 1024;
          }
        }
        #make-me-a-hanzi-animation-4 {
          animation: keyframes4 0.8221028645833334s both;
          animation-delay: 2.6569010416666665s;
          animation-timing-function: linear;
        }
      
        @keyframes keyframes5 {
          from {
            stroke: blue;
            stroke-dashoffset: 446;
            stroke-width: 128;
          }
          59% {
            animation-timing-function: step-end;
            stroke: blue;
            stroke-dashoffset: 0;
            stroke-width: 128;
          }
          to {
            stroke: black;
            stroke-width: 1024;
          }
        }
        #make-me-a-hanzi-animation-5 {
          animation: keyframes5 0.6129557291666666s both;
          animation-delay: 3.47900390625s;
          animation-timing-function: linear;
        }
      
        @keyframes keyframes6 {
          from {
            stroke: blue;
            stroke-dashoffset: 314;
            stroke-width: 128;
          }
          51% {
            animation-timing-function: step-end;
            stroke: blue;
            stroke-dashoffset: 0;
            stroke-width: 128;
          }
          to {
            stroke: black;
            stroke-width: 1024;
          }
        }
        #make-me-a-hanzi-animation-6 {
          animation: keyframes6 0.5055338541666666s both;
          animation-delay: 4.091959635416667s;
          animation-timing-function: linear;
        }
      
        @keyframes keyframes7 {
          from {
            stroke: blue;
            stroke-dashoffset: 438;
            stroke-width: 128;
          }
          59% {
            animation-timing-function: step-end;
            stroke: blue;
            stroke-dashoffset: 0;
            stroke-width: 128;
          }
          to {
            stroke: black;
            stroke-width: 1024;
          }
        }
        #make-me-a-hanzi-animation-7 {
          animation: keyframes7 0.6064453125s both;
          animation-delay: 4.597493489583334s;
          animation-timing-function: linear;
        }
      
        @keyframes keyframes8 {
          from {
            stroke: blue;
            stroke-dashoffset: 368;
            stroke-width: 128;
          }
          55% {
            animation-timing-function: step-end;
            stroke: blue;
            stroke-dashoffset: 0;
            stroke-width: 128;
          }
          to {
            stroke: black;
            stroke-width: 1024;
          }
        }
        #make-me-a-hanzi-animation-8 {
          animation: keyframes8 0.5494791666666666s both;
          animation-delay: 5.203938802083334s;
          animation-timing-function: linear;
        }
      
        @keyframes keyframes9 {
          from {
            stroke: blue;
            stroke-dashoffset: 686;
            stroke-width: 128;
          }
          69% {
            animation-timing-function: step-end;
            stroke: blue;
            stroke-dashoffset: 0;
            stroke-width: 128;
          }
          to {
            stroke: black;
            stroke-width: 1024;
          }
        }
        #make-me-a-hanzi-animation-9 {
          animation: keyframes9 0.8082682291666666s both;
          animation-delay: 5.753417968750001s;
          animation-timing-function: linear;
        }
      
        @keyframes keyframes10 {
          from {
            stroke: blue;
            stroke-dashoffset: 725;
            stroke-width: 128;
          }
          70% {
            animation-timing-function: step-end;
            stroke: blue;
            stroke-dashoffset: 0;
            stroke-width: 128;
          }
          to {
            stroke: black;
            stroke-width: 1024;
          }
        }
        #make-me-a-hanzi-animation-10 {
          animation: keyframes10 0.8400065104166666s both;
          animation-delay: 6.561686197916668s;
          animation-timing-function: linear;
        }
      
        @keyframes keyframes11 {
          from {
            stroke: blue;
            stroke-dashoffset: 560;
            stroke-width: 128;
          }
          65% {
            animation-timing-function: step-end;
            stroke: blue;
            stroke-dashoffset: 0;
            stroke-width: 128;
          }
          to {
            stroke: black;
            stroke-width: 1024;
          }
        }
        #make-me-a-hanzi-animation-11 {
          animation: keyframes11 0.7057291666666666s both;
          animation-delay: 7.401692708333335s;
          animation-timing-function: linear;
        }
      
        @keyframes keyframes12 {
          from {
            stroke: blue;
            stroke-dashoffset: 910;
            stroke-width: 128;
          }
          75% {
            animation-timing-function: step-end;
            stroke: blue;
            stroke-dashoffset: 0;
            stroke-width: 128;
          }
          to {
            stroke: black;
            stroke-width: 1024;
          }
        }
        #make-me-a-hanzi-animation-12 {
          animation: keyframes12 0.9905598958333334s both;
          animation-delay: 8.107421875000002s;
          animation-timing-function: linear;
        }
      
        @keyframes keyframes13 {
          from {
            stroke: blue;
            stroke-dashoffset: 341;
            stroke-width: 128;
          }
          53% {
            animation-timing-function: step-end;
            stroke: blue;
            stroke-dashoffset: 0;
            stroke-width: 128;
          }
          to {
            stroke: black;
            stroke-width: 1024;
          }
        }
        #make-me-a-hanzi-animation-13 {
          animation: keyframes13 0.5275065104166666s both;
          animation-delay: 9.097981770833336s;
          animation-timing-function: linear;
        }
      
    </style>
    
      <path d="M 118 600 Q 106 607 72 613 Q 60 616 57 611 Q 50 604 59 589 Q 90 523 107 417 Q 110 386 128 364 Q 146 342 151 357 Q 155 373 155 398 L 150 431 Q 131 537 127 571 C 124 597 124 597 118 600 Z" fill="lightgray"></path>
    
      <path d="M 271 453 Q 293 550 321 576 Q 345 603 320 617 Q 301 629 273 647 Q 249 660 210 631 Q 164 613 118 600 C 89 592 98 562 127 571 Q 145 577 215 593 Q 237 599 243 590 Q 250 583 217 453 C 210 424 264 424 271 453 Z" fill="lightgray"></path>
    
      <path d="M 155 398 Q 162 398 172 400 Q 208 410 287 421 Q 297 422 298 432 Q 297 439 271 453 C 251 464 245 462 217 453 Q 178 440 150 431 C 121 422 125 397 155 398 Z" fill="lightgray"></path>
    
      <path d="M 582 693 Q 622 706 667 717 Q 704 729 709 734 Q 716 741 712 749 Q 705 759 677 765 Q 655 768 586 741 L 531 721 Q 482 708 426 699 Q 393 692 418 677 Q 458 658 508 674 Q 518 677 532 680 L 582 693 Z" fill="lightgray"></path>
    
      <path d="M 533 475 Q 536 418 543 410 Q 553 398 561 415 Q 568 428 572 498 L 574 528 Q 575 559 577 600 Q 580 654 582 693 L 586 741 Q 589 786 600 802 Q 604 815 590 827 Q 571 843 537 851 Q 522 855 512 845 Q 505 838 514 829 Q 529 816 530 799 Q 531 769 531 721 L 532 680 Q 532 620 533 558 L 533 475 Z" fill="lightgray"></path>
    
      <path d="M 418 556 Q 418 557 419 557 Q 435 582 449 603 Q 456 612 446 622 Q 416 646 397 643 Q 388 642 390 630 Q 399 573 340 501 Q 327 488 320 477 Q 316 467 326 469 Q 356 473 406 538 L 418 556 Z" fill="lightgray"></path>
    
      <path d="M 406 538 Q 449 498 470 499 Q 480 500 483 515 Q 482 525 472 540 Q 462 550 418 556 C 388 560 384 558 406 538 Z" fill="lightgray"></path>
    
      <path d="M 693 597 Q 703 607 712 618 Q 724 633 740 644 Q 753 654 743 667 Q 731 677 709 684 Q 690 690 680 686 Q 671 683 676 674 Q 685 653 618 535 Q 617 534 616 531 Q 612 518 623 522 Q 660 558 680 581 L 693 597 Z" fill="lightgray"></path>
    
      <path d="M 680 581 Q 713 556 751 521 Q 763 509 774 507 Q 780 507 784 514 Q 791 524 780 553 Q 776 569 762 579 Q 735 592 693 597 C 663 601 656 599 680 581 Z" fill="lightgray"></path>
    
      <path d="M 533 558 Q 449 419 237 234 Q 230 225 241 222 Q 265 216 400 327 Q 467 382 533 475 C 551 499 549 584 533 558 Z" fill="lightgray"></path>
    
      <path d="M 572 498 Q 740 308 791 299 Q 893 299 964 317 Q 983 320 985 326 Q 986 333 971 338 Q 923 353 868 366 Q 760 394 640 480 Q 594 517 574 528 C 548 544 552 520 572 498 Z" fill="lightgray"></path>
    
      <path d="M 468 201 Q 499 231 526 263 Q 526 264 527 265 L 542 285 Q 560 310 580 331 Q 590 341 579 354 Q 542 388 524 386 Q 514 385 515 372 Q 516 288 411 192 Q 390 179 362 150 Q 353 138 367 141 Q 392 144 448 185 L 468 201 Z" fill="lightgray"></path>
    
      <path d="M 527 265 Q 537 255 572 261 Q 623 280 628 273 Q 631 258 604 206 Q 579 149 507 77 Q 437 -2 324 -73 Q 297 -86 319 -87 Q 445 -90 631 145 Q 703 250 716 258 Q 729 268 724 281 Q 720 293 663 319 Q 650 325 625 313 Q 600 300 542 285 C 513 277 500 274 527 265 Z" fill="lightgray"></path>
    
      <path d="M 448 185 Q 499 134 523 124 Q 533 123 540 133 Q 544 142 542 154 Q 529 188 468 201 C 439 207 427 206 448 185 Z" fill="lightgray"></path>
    
    
      <clipPath id="make-me-a-hanzi-clip-0">
        <path d="M 118 600 Q 106 607 72 613 Q 60 616 57 611 Q 50 604 59 589 Q 90 523 107 417 Q 110 386 128 364 Q 146 342 151 357 Q 155 373 155 398 L 150 431 Q 131 537 127 571 C 124 597 124 597 118 600 Z"></path>
      </clipPath>
      <path clip-path="url(#make-me-a-hanzi-clip-0)" d="M 66 603 L 95 579 L 98 570 L 140 363" fill="none" id="make-me-a-hanzi-animation-0" stroke-dasharray="386 772" stroke-linecap="round"></path>
    
      <clipPath id="make-me-a-hanzi-clip-1">
        <path d="M 271 453 Q 293 550 321 576 Q 345 603 320 617 Q 301 629 273 647 Q 249 660 210 631 Q 164 613 118 600 C 89 592 98 562 127 571 Q 145 577 215 593 Q 237 599 243 590 Q 250 583 217 453 C 210 424 264 424 271 453 Z"></path>
      </clipPath>
      <path clip-path="url(#make-me-a-hanzi-clip-1)" d="M 128 579 L 142 592 L 243 621 L 258 619 L 274 606 L 283 594 L 250 479 L 224 466" fill="none" id="make-me-a-hanzi-animation-1" stroke-dasharray="452 904" stroke-linecap="round"></path>
    
      <clipPath id="make-me-a-hanzi-clip-2">
        <path d="M 155 398 Q 162 398 172 400 Q 208 410 287 421 Q 297 422 298 432 Q 297 439 271 453 C 251 464 245 462 217 453 Q 178 440 150 431 C 121 422 125 397 155 398 Z"></path>
      </clipPath>
      <path clip-path="url(#make-me-a-hanzi-clip-2)" d="M 158 404 L 173 420 L 216 432 L 271 436 L 289 430" fill="none" id="make-me-a-hanzi-animation-2" stroke-dasharray="269 538" stroke-linecap="round"></path>
    
      <clipPath id="make-me-a-hanzi-clip-3">
        <path d="M 582 693 Q 622 706 667 717 Q 704 729 709 734 Q 716 741 712 749 Q 705 759 677 765 Q 655 768 586 741 L 531 721 Q 482 708 426 699 Q 393 692 418 677 Q 458 658 508 674 Q 518 677 532 680 L 582 693 Z"></path>
      </clipPath>
      <path clip-path="url(#make-me-a-hanzi-clip-3)" d="M 419 689 L 481 688 L 654 738 L 701 743" fill="none" id="make-me-a-hanzi-animation-3" stroke-dasharray="417 834" stroke-linecap="round"></path>
    
      <clipPath id="make-me-a-hanzi-clip-4">
        <path d="M 533 475 Q 536 418 543 410 Q 553 398 561 415 Q 568 428 572 498 L 574 528 Q 575 559 577 600 Q 580 654 582 693 L 586 741 Q 589 786 600 802 Q 604 815 590 827 Q 571 843 537 851 Q 522 855 512 845 Q 505 838 514 829 Q 529 816 530 799 Q 531 769 531 721 L 532 680 Q 532 620 533 558 L 533 475 Z"></path>
      </clipPath>
      <path clip-path="url(#make-me-a-hanzi-clip-4)" d="M 519 838 L 540 831 L 563 805 L 551 415" fill="none" id="make-me-a-hanzi-animation-4" stroke-dasharray="575 1150" stroke-linecap="round"></path>
    
      <clipPath id="make-me-a-hanzi-clip-5">
        <path d="M 418 556 Q 418 557 419 557 Q 435 582 449 603 Q 456 612 446 622 Q 416 646 397 643 Q 388 642 390 630 Q 399 573 340 501 Q 327 488 320 477 Q 316 467 326 469 Q 356 473 406 538 L 418 556 Z"></path>
      </clipPath>
      <path clip-path="url(#make-me-a-hanzi-clip-5)" d="M 402 632 L 418 608 L 412 587 L 376 522 L 329 477" fill="none" id="make-me-a-hanzi-animation-5" stroke-dasharray="318 636" stroke-linecap="round"></path>
    
      <clipPath id="make-me-a-hanzi-clip-6">
        <path d="M 406 538 Q 449 498 470 499 Q 480 500 483 515 Q 482 525 472 540 Q 462 550 418 556 C 388 560 384 558 406 538 Z"></path>
      </clipPath>
      <path clip-path="url(#make-me-a-hanzi-clip-6)" d="M 419 536 L 427 540 L 459 524 L 467 514" fill="none" id="make-me-a-hanzi-animation-6" stroke-dasharray="186 372" stroke-linecap="round"></path>
    
      <clipPath id="make-me-a-hanzi-clip-7">
        <path d="M 693 597 Q 703 607 712 618 Q 724 633 740 644 Q 753 654 743 667 Q 731 677 709 684 Q 690 690 680 686 Q 671 683 676 674 Q 685 653 618 535 Q 617 534 616 531 Q 612 518 623 522 Q 660 558 680 581 L 693 597 Z"></path>
      </clipPath>
      <path clip-path="url(#make-me-a-hanzi-clip-7)" d="M 687 677 L 706 654 L 665 587 L 634 546 L 627 545 L 624 530" fill="none" id="make-me-a-hanzi-animation-7" stroke-dasharray="310 620" stroke-linecap="round"></path>
    
      <clipPath id="make-me-a-hanzi-clip-8">
        <path d="M 680 581 Q 713 556 751 521 Q 763 509 774 507 Q 780 507 784 514 Q 791 524 780 553 Q 776 569 762 579 Q 735 592 693 597 C 663 601 656 599 680 581 Z"></path>
      </clipPath>
      <path clip-path="url(#make-me-a-hanzi-clip-8)" d="M 689 581 L 700 584 L 747 559 L 773 520" fill="none" id="make-me-a-hanzi-animation-8" stroke-dasharray="240 480" stroke-linecap="round"></path>
    
      <clipPath id="make-me-a-hanzi-clip-9">
        <path d="M 533 558 Q 449 419 237 234 Q 230 225 241 222 Q 265 216 400 327 Q 467 382 533 475 C 551 499 549 584 533 558 Z"></path>
      </clipPath>
      <path clip-path="url(#make-me-a-hanzi-clip-9)" d="M 527 541 L 510 481 L 449 407 L 339 299 L 244 230" fill="none" id="make-me-a-hanzi-animation-9" stroke-dasharray="558 1116" stroke-linecap="round"></path>
    
      <clipPath id="make-me-a-hanzi-clip-10">
        <path d="M 572 498 Q 740 308 791 299 Q 893 299 964 317 Q 983 320 985 326 Q 986 333 971 338 Q 923 353 868 366 Q 760 394 640 480 Q 594 517 574 528 C 548 544 552 520 572 498 Z"></path>
      </clipPath>
      <path clip-path="url(#make-me-a-hanzi-clip-10)" d="M 575 520 L 590 496 L 645 448 L 790 346 L 852 335 L 979 327" fill="none" id="make-me-a-hanzi-animation-10" stroke-dasharray="597 1194" stroke-linecap="round"></path>
    
      <clipPath id="make-me-a-hanzi-clip-11">
        <path d="M 468 201 Q 499 231 526 263 Q 526 264 527 265 L 542 285 Q 560 310 580 331 Q 590 341 579 354 Q 542 388 524 386 Q 514 385 515 372 Q 516 288 411 192 Q 390 179 362 150 Q 353 138 367 141 Q 392 144 448 185 L 468 201 Z"></path>
      </clipPath>
      <path clip-path="url(#make-me-a-hanzi-clip-11)" d="M 525 375 L 545 341 L 506 271 L 453 209 L 370 149" fill="none" id="make-me-a-hanzi-animation-11" stroke-dasharray="432 864" stroke-linecap="round"></path>
    
      <clipPath id="make-me-a-hanzi-clip-12">
        <path d="M 527 265 Q 537 255 572 261 Q 623 280 628 273 Q 631 258 604 206 Q 579 149 507 77 Q 437 -2 324 -73 Q 297 -86 319 -87 Q 445 -90 631 145 Q 703 250 716 258 Q 729 268 724 281 Q 720 293 663 319 Q 650 325 625 313 Q 600 300 542 285 C 513 277 500 274 527 265 Z"></path>
      </clipPath>
      <path clip-path="url(#make-me-a-hanzi-clip-12)" d="M 534 267 L 641 294 L 660 285 L 669 269 L 618 170 L 563 99 L 509 42 L 424 -30 L 362 -67 L 324 -81" fill="none" id="make-me-a-hanzi-animation-12" stroke-dasharray="782 1564" stroke-linecap="round"></path>
    
      <clipPath id="make-me-a-hanzi-clip-13">
        <path d="M 448 185 Q 499 134 523 124 Q 533 123 540 133 Q 544 142 542 154 Q 529 188 468 201 C 439 207 427 206 448 185 Z"></path>
      </clipPath>
      <path clip-path="url(#make-me-a-hanzi-clip-13)" d="M 459 182 L 474 184 L 489 175 L 515 155 L 525 138" fill="none" id="make-me-a-hanzi-animation-13" stroke-dasharray="213 426" stroke-linecap="round"></path>
    
  </g>
</svg>