<svg version="1.1" viewBox="0 0 1024 1024" xmlns="http://www.w3.org/2000/svg">
  <g stroke="lightgray" stroke-dasharray="1,1" stroke-width="1" transform="scale(4, 4)">
    <line x1="0" y1="0" x2="256" y2="256"></line>
    <line x1="256" y1="0" x2="0" y2="256"></line>
    <line x1="128" y1="0" x2="128" y2="256"></line>
    <line x1="0" y1="128" x2="256" y2="128"></line>
  </g>
  <g transform="scale(1, -1) translate(0, -900)">
    <style type="text/css">
      
        @keyframes keyframes0 {
          from {
            stroke: blue;
            stroke-dashoffset: 496;
            stroke-width: 128;
          }
          62% {
            animation-timing-function: step-end;
            stroke: blue;
            stroke-dashoffset: 0;
            stroke-width: 128;
          }
          to {
            stroke: black;
            stroke-width: 1024;
          }
        }
        #make-me-a-hanzi-animation-0 {
          animation: keyframes0 0.6536458333333334s both;
          animation-delay: 0s;
          animation-timing-function: linear;
        }
      
        @keyframes keyframes1 {
          from {
            stroke: blue;
            stroke-dashoffset: 524;
            stroke-width: 128;
          }
          63% {
            animation-timing-function: step-end;
            stroke: blue;
            stroke-dashoffset: 0;
            stroke-width: 128;
          }
          to {
            stroke: black;
            stroke-width: 1024;
          }
        }
        #make-me-a-hanzi-animation-1 {
          animation: keyframes1 0.6764322916666666s both;
          animation-delay: 0.6536458333333334s;
          animation-timing-function: linear;
        }
      
        @keyframes keyframes2 {
          from {
            stroke: blue;
            stroke-dashoffset: 380;
            stroke-width: 128;
          }
          55% {
            animation-timing-function: step-end;
            stroke: blue;
            stroke-dashoffset: 0;
            stroke-width: 128;
          }
          to {
            stroke: black;
            stroke-width: 1024;
          }
        }
        #make-me-a-hanzi-animation-2 {
          animation: keyframes2 0.5592447916666666s both;
          animation-delay: 1.330078125s;
          animation-timing-function: linear;
        }
      
        @keyframes keyframes3 {
          from {
            stroke: blue;
            stroke-dashoffset: 421;
            stroke-width: 128;
          }
          58% {
            animation-timing-function: step-end;
            stroke: blue;
            stroke-dashoffset: 0;
            stroke-width: 128;
          }
          to {
            stroke: black;
            stroke-width: 1024;
          }
        }
        #make-me-a-hanzi-animation-3 {
          animation: keyframes3 0.5926106770833334s both;
          animation-delay: 1.8893229166666665s;
          animation-timing-function: linear;
        }
      
        @keyframes keyframes4 {
          from {
            stroke: blue;
            stroke-dashoffset: 488;
            stroke-width: 128;
          }
          61% {
            animation-timing-function: step-end;
            stroke: blue;
            stroke-dashoffset: 0;
            stroke-width: 128;
          }
          to {
            stroke: black;
            stroke-width: 1024;
          }
        }
        #make-me-a-hanzi-animation-4 {
          animation: keyframes4 0.6471354166666666s both;
          animation-delay: 2.48193359375s;
          animation-timing-function: linear;
        }
      
        @keyframes keyframes5 {
          from {
            stroke: blue;
            stroke-dashoffset: 472;
            stroke-width: 128;
          }
          61% {
            animation-timing-function: step-end;
            stroke: blue;
            stroke-dashoffset: 0;
            stroke-width: 128;
          }
          to {
            stroke: black;
            stroke-width: 1024;
          }
        }
        #make-me-a-hanzi-animation-5 {
          animation: keyframes5 0.6341145833333334s both;
          animation-delay: 3.1290690104166665s;
          animation-timing-function: linear;
        }
      
        @keyframes keyframes6 {
          from {
            stroke: blue;
            stroke-dashoffset: 436;
            stroke-width: 128;
          }
          59% {
            animation-timing-function: step-end;
            stroke: blue;
            stroke-dashoffset: 0;
            stroke-width: 128;
          }
          to {
            stroke: black;
            stroke-width: 1024;
          }
        }
        #make-me-a-hanzi-animation-6 {
          animation: keyframes6 0.6048177083333334s both;
          animation-delay: 3.76318359375s;
          animation-timing-function: linear;
        }
      
        @keyframes keyframes7 {
          from {
            stroke: blue;
            stroke-dashoffset: 460;
            stroke-width: 128;
          }
          60% {
            animation-timing-function: step-end;
            stroke: blue;
            stroke-dashoffset: 0;
            stroke-width: 128;
          }
          to {
            stroke: black;
            stroke-width: 1024;
          }
        }
        #make-me-a-hanzi-animation-7 {
          animation: keyframes7 0.6243489583333334s both;
          animation-delay: 4.368001302083333s;
          animation-timing-function: linear;
        }
      
        @keyframes keyframes8 {
          from {
            stroke: blue;
            stroke-dashoffset: 392;
            stroke-width: 128;
          }
          56% {
            animation-timing-function: step-end;
            stroke: blue;
            stroke-dashoffset: 0;
            stroke-width: 128;
          }
          to {
            stroke: black;
            stroke-width: 1024;
          }
        }
        #make-me-a-hanzi-animation-8 {
          animation: keyframes8 0.5690104166666666s both;
          animation-delay: 4.992350260416666s;
          animation-timing-function: linear;
        }
      
        @keyframes keyframes9 {
          from {
            stroke: blue;
            stroke-dashoffset: 515;
            stroke-width: 128;
          }
          63% {
            animation-timing-function: step-end;
            stroke: blue;
            stroke-dashoffset: 0;
            stroke-width: 128;
          }
          to {
            stroke: black;
            stroke-width: 1024;
          }
        }
        #make-me-a-hanzi-animation-9 {
          animation: keyframes9 0.6691080729166666s both;
          animation-delay: 5.561360677083333s;
          animation-timing-function: linear;
        }
      
        @keyframes keyframes10 {
          from {
            stroke: blue;
            stroke-dashoffset: 393;
            stroke-width: 128;
          }
          56% {
            animation-timing-function: step-end;
            stroke: blue;
            stroke-dashoffset: 0;
            stroke-width: 128;
          }
          to {
            stroke: black;
            stroke-width: 1024;
          }
        }
        #make-me-a-hanzi-animation-10 {
          animation: keyframes10 0.56982421875s both;
          animation-delay: 6.23046875s;
          animation-timing-function: linear;
        }
      
        @keyframes keyframes11 {
          from {
            stroke: blue;
            stroke-dashoffset: 342;
            stroke-width: 128;
          }
          53% {
            animation-timing-function: step-end;
            stroke: blue;
            stroke-dashoffset: 0;
            stroke-width: 128;
          }
          to {
            stroke: black;
            stroke-width: 1024;
          }
        }
        #make-me-a-hanzi-animation-11 {
          animation: keyframes11 0.5283203125s both;
          animation-delay: 6.80029296875s;
          animation-timing-function: linear;
        }
      
        @keyframes keyframes12 {
          from {
            stroke: blue;
            stroke-dashoffset: 431;
            stroke-width: 128;
          }
          58% {
            animation-timing-function: step-end;
            stroke: blue;
            stroke-dashoffset: 0;
            stroke-width: 128;
          }
          to {
            stroke: black;
            stroke-width: 1024;
          }
        }
        #make-me-a-hanzi-animation-12 {
          animation: keyframes12 0.6007486979166666s both;
          animation-delay: 7.32861328125s;
          animation-timing-function: linear;
        }
      
        @keyframes keyframes13 {
          from {
            stroke: blue;
            stroke-dashoffset: 394;
            stroke-width: 128;
          }
          56% {
            animation-timing-function: step-end;
            stroke: blue;
            stroke-dashoffset: 0;
            stroke-width: 128;
          }
          to {
            stroke: black;
            stroke-width: 1024;
          }
        }
        #make-me-a-hanzi-animation-13 {
          animation: keyframes13 0.5706380208333334s both;
          animation-delay: 7.929361979166667s;
          animation-timing-function: linear;
        }
      
        @keyframes keyframes14 {
          from {
            stroke: blue;
            stroke-dashoffset: 578;
            stroke-width: 128;
          }
          65% {
            animation-timing-function: step-end;
            stroke: blue;
            stroke-dashoffset: 0;
            stroke-width: 128;
          }
          to {
            stroke: black;
            stroke-width: 1024;
          }
        }
        #make-me-a-hanzi-animation-14 {
          animation: keyframes14 0.7203776041666666s both;
          animation-delay: 8.5s;
          animation-timing-function: linear;
        }
      
        @keyframes keyframes15 {
          from {
            stroke: blue;
            stroke-dashoffset: 625;
            stroke-width: 128;
          }
          67% {
            animation-timing-function: step-end;
            stroke: blue;
            stroke-dashoffset: 0;
            stroke-width: 128;
          }
          to {
            stroke: black;
            stroke-width: 1024;
          }
        }
        #make-me-a-hanzi-animation-15 {
          animation: keyframes15 0.7586263020833334s both;
          animation-delay: 9.220377604166666s;
          animation-timing-function: linear;
        }
      
        @keyframes keyframes16 {
          from {
            stroke: blue;
            stroke-dashoffset: 941;
            stroke-width: 128;
          }
          75% {
            animation-timing-function: step-end;
            stroke: blue;
            stroke-dashoffset: 0;
            stroke-width: 128;
          }
          to {
            stroke: black;
            stroke-width: 1024;
          }
        }
        #make-me-a-hanzi-animation-16 {
          animation: keyframes16 1.0157877604166667s both;
          animation-delay: 9.97900390625s;
          animation-timing-function: linear;
        }
      
        @keyframes keyframes17 {
          from {
            stroke: blue;
            stroke-dashoffset: 391;
            stroke-width: 128;
          }
          56% {
            animation-timing-function: step-end;
            stroke: blue;
            stroke-dashoffset: 0;
            stroke-width: 128;
          }
          to {
            stroke: black;
            stroke-width: 1024;
          }
        }
        #make-me-a-hanzi-animation-17 {
          animation: keyframes17 0.5681966145833334s both;
          animation-delay: 10.994791666666666s;
          animation-timing-function: linear;
        }
      
        @keyframes keyframes18 {
          from {
            stroke: blue;
            stroke-dashoffset: 484;
            stroke-width: 128;
          }
          61% {
            animation-timing-function: step-end;
            stroke: blue;
            stroke-dashoffset: 0;
            stroke-width: 128;
          }
          to {
            stroke: black;
            stroke-width: 1024;
          }
        }
        #make-me-a-hanzi-animation-18 {
          animation: keyframes18 0.6438802083333334s both;
          animation-delay: 11.56298828125s;
          animation-timing-function: linear;
        }
      
        @keyframes keyframes19 {
          from {
            stroke: blue;
            stroke-dashoffset: 752;
            stroke-width: 128;
          }
          71% {
            animation-timing-function: step-end;
            stroke: blue;
            stroke-dashoffset: 0;
            stroke-width: 128;
          }
          to {
            stroke: black;
            stroke-width: 1024;
          }
        }
        #make-me-a-hanzi-animation-19 {
          animation: keyframes19 0.8619791666666666s both;
          animation-delay: 12.206868489583334s;
          animation-timing-function: linear;
        }
      
        @keyframes keyframes20 {
          from {
            stroke: blue;
            stroke-dashoffset: 724;
            stroke-width: 128;
          }
          70% {
            animation-timing-function: step-end;
            stroke: blue;
            stroke-dashoffset: 0;
            stroke-width: 128;
          }
          to {
            stroke: black;
            stroke-width: 1024;
          }
        }
        #make-me-a-hanzi-animation-20 {
          animation: keyframes20 0.8391927083333334s both;
          animation-delay: 13.06884765625s;
          animation-timing-function: linear;
        }
      
        @keyframes keyframes21 {
          from {
            stroke: blue;
            stroke-dashoffset: 475;
            stroke-width: 128;
          }
          61% {
            animation-timing-function: step-end;
            stroke: blue;
            stroke-dashoffset: 0;
            stroke-width: 128;
          }
          to {
            stroke: black;
            stroke-width: 1024;
          }
        }
        #make-me-a-hanzi-animation-21 {
          animation: keyframes21 0.6365559895833334s both;
          animation-delay: 13.908040364583334s;
          animation-timing-function: linear;
        }
      
    </style>
    
      <path d="M 117 606 Q 107 612 78 616 Q 68 619 64 614 Q 60 610 66 595 Q 94 534 110 436 Q 113 406 130 386 Q 146 367 150 381 Q 157 402 150 443 L 145 472 Q 129 557 127 582 C 125 602 125 602 117 606 Z" fill="lightgray"></path>
    
      <path d="M 264 493 Q 277 569 299 594 Q 318 618 296 629 Q 239 657 232 655 Q 226 655 221 650 Q 194 632 117 606 C 89 596 99 571 127 582 Q 127 583 131 584 Q 168 596 201 604 Q 223 611 230 602 Q 237 598 231 566 Q 227 535 220 498 C 215 469 259 463 264 493 Z" fill="lightgray"></path>
    
      <path d="M 150 443 Q 157 443 165 446 Q 199 456 273 469 Q 282 470 282 478 Q 282 485 264 493 L 220 498 Q 216 498 213 496 Q 176 481 145 472 C 116 463 120 441 150 443 Z" fill="lightgray"></path>
    
      <path d="M 543 747 Q 540 772 539 792 Q 540 808 522 813 Q 488 828 470 821 Q 454 814 468 797 Q 492 773 501 741 L 509 716 Q 518 676 532 662 Q 544 653 547 663 Q 550 678 545 725 L 543 747 Z" fill="lightgray"></path>
    
      <path d="M 545 725 Q 552 728 564 733 Q 568 737 568 743 Q 567 747 556 750 Q 549 750 543 747 L 501 741 Q 369 726 356 725 Q 326 725 325 721 Q 324 714 328 707 Q 364 677 388 683 Q 446 699 509 716 L 545 725 Z" fill="lightgray"></path>
    
      <path d="M 702 763 Q 714 788 736 815 Q 749 825 742 836 Q 735 852 706 870 Q 693 880 678 874 Q 668 870 674 860 Q 683 821 629 701 Q 620 683 619 669 Q 620 659 632 663 Q 644 670 689 739 L 702 763 Z" fill="lightgray"></path>
    
      <path d="M 689 739 Q 707 730 775 738 Q 790 747 864 738 Q 876 737 880 744 Q 883 753 873 764 Q 836 794 762 775 Q 734 769 702 763 C 673 757 661 749 689 739 Z" fill="lightgray"></path>
    
      <path d="M 475 583 Q 496 589 522 594 Q 547 601 552 604 Q 558 610 554 616 Q 550 623 529 629 Q 495 633 481 620 L 435 606 Q 389 596 349 590 Q 324 586 342 574 Q 363 562 426 572 Q 430 573 438 574 L 475 583 Z" fill="lightgray"></path>
    
      <path d="M 468 537 Q 471 562 475 583 L 481 620 Q 482 626 484 630 Q 487 634 488 639 Q 489 646 478 656 Q 456 669 440 672 Q 430 675 424 669 Q 420 665 424 655 Q 430 646 435 606 L 438 574 Q 438 555 439 530 C 440 500 464 507 468 537 Z" fill="lightgray"></path>
    
      <path d="M 372 477 Q 450 508 562 528 Q 572 529 573 535 Q 574 544 562 550 Q 541 559 468 537 L 439 530 Q 309 505 307 500 Q 306 493 315 485 Q 337 472 356 474 L 372 477 Z" fill="lightgray"></path>
    
      <path d="M 356 474 Q 355 473 355 469 Q 349 438 283 376 Q 270 366 287 369 Q 321 369 380 426 Q 395 439 402 446 Q 409 453 407 460 Q 406 469 388 474 Q 379 477 372 477 C 357 478 357 478 356 474 Z" fill="lightgray"></path>
    
      <path d="M 534 467 Q 582 425 589 425 Q 595 425 598 433 Q 601 440 596 457 Q 590 476 532 493 Q 523 494 520 494 Q 517 493 518 485 Q 519 479 534 467 Z" fill="lightgray"></path>
    
      <path d="M 472 375 Q 491 382 513 387 Q 534 394 536 396 Q 542 403 539 408 Q 533 415 512 420 Q 493 421 476 414 L 433 398 Q 385 386 363 383 Q 338 376 357 366 Q 388 356 435 366 L 472 375 Z" fill="lightgray"></path>
    
      <path d="M 469 326 Q 470 353 472 375 L 476 414 Q 476 417 477 418 Q 481 431 475 439 Q 459 455 443 463 Q 436 466 428 463 Q 422 460 424 453 Q 428 444 433 398 L 435 366 Q 435 347 436 318 C 437 288 468 296 469 326 Z" fill="lightgray"></path>
    
      <path d="M 436 318 Q 375 303 310 287 Q 291 283 263 284 Q 253 283 251 275 Q 248 265 255 258 Q 273 245 297 229 Q 306 226 315 232 Q 439 284 566 338 Q 576 342 577 350 Q 573 354 563 353 Q 517 340 469 326 L 436 318 Z" fill="lightgray"></path>
    
      <path d="M 650 437 Q 644 424 605 350 Q 601 346 600 342 Q 599 335 605 336 Q 623 336 671 413 Q 671 416 673 417 L 690 452 Q 709 500 720 565 L 724 595 Q 727 631 732 643 Q 738 653 733 662 Q 721 674 700 684 Q 687 691 678 688 Q 671 684 675 673 Q 687 652 682 581 L 678 547 Q 677 541 677 534 Q 671 497 661 465 Q 660 465 660 464 L 650 437 Z" fill="lightgray"></path>
    
      <path d="M 720 565 Q 768 586 774 582 Q 781 578 778 564 Q 735 324 905 293 Q 966 293 970 294 Q 989 306 976 334 Q 955 364 937 401 Q 930 423 924 429 Q 917 433 916 420 Q 913 359 904 345 Q 891 339 877 346 Q 852 353 832 375 Q 802 405 805 480 Q 806 541 847 581 Q 859 590 854 598 Q 847 608 804 625 Q 791 629 780 622 Q 761 610 724 595 L 682 581 Q 636 566 595 563 Q 583 562 589 550 Q 593 541 612 535 Q 630 528 648 535 Q 661 542 678 547 L 720 565 Z" fill="lightgray"></path>
    
      <path d="M 673 417 Q 686 407 700 393 Q 710 383 719 380 Q 723 380 728 386 Q 735 393 725 419 Q 718 443 690 452 L 660 464 Q 635 474 620 479 Q 614 482 614 475 Q 614 471 650 437 L 673 417 Z" fill="lightgray"></path>
    
      <path d="M 492 276 Q 461 272 483 256 Q 516 238 597 251 Q 640 258 686 266 Q 714 272 718 276 Q 725 283 722 290 Q 716 300 692 307 Q 667 313 640 303 Q 609 293 574 286 Q 537 279 492 276 Z" fill="lightgray"></path>
    
      <path d="M 553 157 Q 605 175 802 181 Q 853 181 860 190 Q 864 200 850 212 Q 802 243 772 235 Q 643 205 366 159 Q 348 158 362 143 Q 375 131 390 127 Q 408 123 422 128 Q 465 141 515 150 L 553 157 Z" fill="lightgray"></path>
    
      <path d="M 715 59 Q 603 43 488 27 Q 478 26 476 28 Q 476 29 480 34 Q 552 101 577 116 Q 592 126 585 136 Q 578 146 553 157 C 526 170 518 174 515 150 Q 515 102 449 49 Q 431 36 400 25 Q 375 16 373 7 Q 370 -9 378 -28 Q 385 -47 397 -53 Q 404 -57 414 -52 Q 525 8 731 40 C 761 45 745 63 715 59 Z" fill="lightgray"></path>
    
      <path d="M 731 40 Q 797 -44 806 -48 Q 813 -49 821 -42 Q 833 -32 826 8 Q 817 59 677 134 Q 670 140 666 129 Q 665 117 673 108 Q 692 86 715 59 L 731 40 Z" fill="lightgray"></path>
    
    
      <clipPath id="make-me-a-hanzi-clip-0">
        <path d="M 117 606 Q 107 612 78 616 Q 68 619 64 614 Q 60 610 66 595 Q 94 534 110 436 Q 113 406 130 386 Q 146 367 150 381 Q 157 402 150 443 L 145 472 Q 129 557 127 582 C 125 602 125 602 117 606 Z"></path>
      </clipPath>
      <path clip-path="url(#make-me-a-hanzi-clip-0)" d="M 72 609 L 97 586 L 105 565 L 140 385" fill="none" id="make-me-a-hanzi-animation-0" stroke-dasharray="368 736" stroke-linecap="round"></path>
    
      <clipPath id="make-me-a-hanzi-clip-1">
        <path d="M 264 493 Q 277 569 299 594 Q 318 618 296 629 Q 239 657 232 655 Q 226 655 221 650 Q 194 632 117 606 C 89 596 99 571 127 582 Q 127 583 131 584 Q 168 596 201 604 Q 223 611 230 602 Q 237 598 231 566 Q 227 535 220 498 C 215 469 259 463 264 493 Z"></path>
      </clipPath>
      <path clip-path="url(#make-me-a-hanzi-clip-1)" d="M 126 589 L 149 604 L 218 626 L 235 628 L 255 617 L 266 606 L 249 528 L 244 516 L 228 504" fill="none" id="make-me-a-hanzi-animation-1" stroke-dasharray="396 792" stroke-linecap="round"></path>
    
      <clipPath id="make-me-a-hanzi-clip-2">
        <path d="M 150 443 Q 157 443 165 446 Q 199 456 273 469 Q 282 470 282 478 Q 282 485 264 493 L 220 498 Q 216 498 213 496 Q 176 481 145 472 C 116 463 120 441 150 443 Z"></path>
      </clipPath>
      <path clip-path="url(#make-me-a-hanzi-clip-2)" d="M 156 452 L 162 461 L 212 477 L 273 478" fill="none" id="make-me-a-hanzi-animation-2" stroke-dasharray="252 504" stroke-linecap="round"></path>
    
      <clipPath id="make-me-a-hanzi-clip-3">
        <path d="M 543 747 Q 540 772 539 792 Q 540 808 522 813 Q 488 828 470 821 Q 454 814 468 797 Q 492 773 501 741 L 509 716 Q 518 676 532 662 Q 544 653 547 663 Q 550 678 545 725 L 543 747 Z"></path>
      </clipPath>
      <path clip-path="url(#make-me-a-hanzi-clip-3)" d="M 474 809 L 494 801 L 513 783 L 539 669" fill="none" id="make-me-a-hanzi-animation-3" stroke-dasharray="293 586" stroke-linecap="round"></path>
    
      <clipPath id="make-me-a-hanzi-clip-4">
        <path d="M 545 725 Q 552 728 564 733 Q 568 737 568 743 Q 567 747 556 750 Q 549 750 543 747 L 501 741 Q 369 726 356 725 Q 326 725 325 721 Q 324 714 328 707 Q 364 677 388 683 Q 446 699 509 716 L 545 725 Z"></path>
      </clipPath>
      <path clip-path="url(#make-me-a-hanzi-clip-4)" d="M 332 715 L 376 704 L 559 741" fill="none" id="make-me-a-hanzi-animation-4" stroke-dasharray="360 720" stroke-linecap="round"></path>
    
      <clipPath id="make-me-a-hanzi-clip-5">
        <path d="M 702 763 Q 714 788 736 815 Q 749 825 742 836 Q 735 852 706 870 Q 693 880 678 874 Q 668 870 674 860 Q 683 821 629 701 Q 620 683 619 669 Q 620 659 632 663 Q 644 670 689 739 L 702 763 Z"></path>
      </clipPath>
      <path clip-path="url(#make-me-a-hanzi-clip-5)" d="M 687 864 L 706 827 L 668 738 L 628 672" fill="none" id="make-me-a-hanzi-animation-5" stroke-dasharray="344 688" stroke-linecap="round"></path>
    
      <clipPath id="make-me-a-hanzi-clip-6">
        <path d="M 689 739 Q 707 730 775 738 Q 790 747 864 738 Q 876 737 880 744 Q 883 753 873 764 Q 836 794 762 775 Q 734 769 702 763 C 673 757 661 749 689 739 Z"></path>
      </clipPath>
      <path clip-path="url(#make-me-a-hanzi-clip-6)" d="M 695 744 L 810 763 L 837 761 L 871 749" fill="none" id="make-me-a-hanzi-animation-6" stroke-dasharray="308 616" stroke-linecap="round"></path>
    
      <clipPath id="make-me-a-hanzi-clip-7">
        <path d="M 475 583 Q 496 589 522 594 Q 547 601 552 604 Q 558 610 554 616 Q 550 623 529 629 Q 495 633 481 620 L 435 606 Q 389 596 349 590 Q 324 586 342 574 Q 363 562 426 572 Q 430 573 438 574 L 475 583 Z"></path>
      </clipPath>
      <path clip-path="url(#make-me-a-hanzi-clip-7)" d="M 344 583 L 396 582 L 508 611 L 544 612" fill="none" id="make-me-a-hanzi-animation-7" stroke-dasharray="332 664" stroke-linecap="round"></path>
    
      <clipPath id="make-me-a-hanzi-clip-8">
        <path d="M 468 537 Q 471 562 475 583 L 481 620 Q 482 626 484 630 Q 487 634 488 639 Q 489 646 478 656 Q 456 669 440 672 Q 430 675 424 669 Q 420 665 424 655 Q 430 646 435 606 L 438 574 Q 438 555 439 530 C 440 500 464 507 468 537 Z"></path>
      </clipPath>
      <path clip-path="url(#make-me-a-hanzi-clip-8)" d="M 432 662 L 458 632 L 456 563 L 445 538" fill="none" id="make-me-a-hanzi-animation-8" stroke-dasharray="264 528" stroke-linecap="round"></path>
    
      <clipPath id="make-me-a-hanzi-clip-9">
        <path d="M 372 477 Q 450 508 562 528 Q 572 529 573 535 Q 574 544 562 550 Q 541 559 468 537 L 439 530 Q 309 505 307 500 Q 306 493 315 485 Q 337 472 356 474 L 372 477 Z"></path>
      </clipPath>
      <path clip-path="url(#make-me-a-hanzi-clip-9)" d="M 311 497 L 350 492 L 504 533 L 564 537" fill="none" id="make-me-a-hanzi-animation-9" stroke-dasharray="387 774" stroke-linecap="round"></path>
    
      <clipPath id="make-me-a-hanzi-clip-10">
        <path d="M 356 474 Q 355 473 355 469 Q 349 438 283 376 Q 270 366 287 369 Q 321 369 380 426 Q 395 439 402 446 Q 409 453 407 460 Q 406 469 388 474 Q 379 477 372 477 C 357 478 357 478 356 474 Z"></path>
      </clipPath>
      <path clip-path="url(#make-me-a-hanzi-clip-10)" d="M 361 470 L 375 453 L 360 431 L 321 394 L 291 376" fill="none" id="make-me-a-hanzi-animation-10" stroke-dasharray="265 530" stroke-linecap="round"></path>
    
      <clipPath id="make-me-a-hanzi-clip-11">
        <path d="M 534 467 Q 582 425 589 425 Q 595 425 598 433 Q 601 440 596 457 Q 590 476 532 493 Q 523 494 520 494 Q 517 493 518 485 Q 519 479 534 467 Z"></path>
      </clipPath>
      <path clip-path="url(#make-me-a-hanzi-clip-11)" d="M 526 488 L 576 455 L 590 433" fill="none" id="make-me-a-hanzi-animation-11" stroke-dasharray="214 428" stroke-linecap="round"></path>
    
      <clipPath id="make-me-a-hanzi-clip-12">
        <path d="M 472 375 Q 491 382 513 387 Q 534 394 536 396 Q 542 403 539 408 Q 533 415 512 420 Q 493 421 476 414 L 433 398 Q 385 386 363 383 Q 338 376 357 366 Q 388 356 435 366 L 472 375 Z"></path>
      </clipPath>
      <path clip-path="url(#make-me-a-hanzi-clip-12)" d="M 358 375 L 407 376 L 496 402 L 529 404" fill="none" id="make-me-a-hanzi-animation-12" stroke-dasharray="303 606" stroke-linecap="round"></path>
    
      <clipPath id="make-me-a-hanzi-clip-13">
        <path d="M 469 326 Q 470 353 472 375 L 476 414 Q 476 417 477 418 Q 481 431 475 439 Q 459 455 443 463 Q 436 466 428 463 Q 422 460 424 453 Q 428 444 433 398 L 435 366 Q 435 347 436 318 C 437 288 468 296 469 326 Z"></path>
      </clipPath>
      <path clip-path="url(#make-me-a-hanzi-clip-13)" d="M 436 454 L 454 427 L 453 346 L 440 325" fill="none" id="make-me-a-hanzi-animation-13" stroke-dasharray="266 532" stroke-linecap="round"></path>
    
      <clipPath id="make-me-a-hanzi-clip-14">
        <path d="M 436 318 Q 375 303 310 287 Q 291 283 263 284 Q 253 283 251 275 Q 248 265 255 258 Q 273 245 297 229 Q 306 226 315 232 Q 439 284 566 338 Q 576 342 577 350 Q 573 354 563 353 Q 517 340 469 326 L 436 318 Z"></path>
      </clipPath>
      <path clip-path="url(#make-me-a-hanzi-clip-14)" d="M 264 270 L 312 259 L 570 349" fill="none" id="make-me-a-hanzi-animation-14" stroke-dasharray="450 900" stroke-linecap="round"></path>
    
      <clipPath id="make-me-a-hanzi-clip-15">
        <path d="M 650 437 Q 644 424 605 350 Q 601 346 600 342 Q 599 335 605 336 Q 623 336 671 413 Q 671 416 673 417 L 690 452 Q 709 500 720 565 L 724 595 Q 727 631 732 643 Q 738 653 733 662 Q 721 674 700 684 Q 687 691 678 688 Q 671 684 675 673 Q 687 652 682 581 L 678 547 Q 677 541 677 534 Q 671 497 661 465 Q 660 465 660 464 L 650 437 Z"></path>
      </clipPath>
      <path clip-path="url(#make-me-a-hanzi-clip-15)" d="M 683 679 L 707 647 L 700 560 L 686 488 L 655 409 L 606 342" fill="none" id="make-me-a-hanzi-animation-15" stroke-dasharray="497 994" stroke-linecap="round"></path>
    
      <clipPath id="make-me-a-hanzi-clip-16">
        <path d="M 720 565 Q 768 586 774 582 Q 781 578 778 564 Q 735 324 905 293 Q 966 293 970 294 Q 989 306 976 334 Q 955 364 937 401 Q 930 423 924 429 Q 917 433 916 420 Q 913 359 904 345 Q 891 339 877 346 Q 852 353 832 375 Q 802 405 805 480 Q 806 541 847 581 Q 859 590 854 598 Q 847 608 804 625 Q 791 629 780 622 Q 761 610 724 595 L 682 581 Q 636 566 595 563 Q 583 562 589 550 Q 593 541 612 535 Q 630 528 648 535 Q 661 542 678 547 L 720 565 Z"></path>
      </clipPath>
      <path clip-path="url(#make-me-a-hanzi-clip-16)" d="M 600 553 L 638 550 L 727 579 L 754 594 L 795 599 L 809 587 L 787 503 L 787 444 L 810 372 L 837 343 L 859 330 L 886 320 L 916 319 L 936 328 L 923 422" fill="none" id="make-me-a-hanzi-animation-16" stroke-dasharray="813 1626" stroke-linecap="round"></path>
    
      <clipPath id="make-me-a-hanzi-clip-17">
        <path d="M 673 417 Q 686 407 700 393 Q 710 383 719 380 Q 723 380 728 386 Q 735 393 725 419 Q 718 443 690 452 L 660 464 Q 635 474 620 479 Q 614 482 614 475 Q 614 471 650 437 L 673 417 Z"></path>
      </clipPath>
      <path clip-path="url(#make-me-a-hanzi-clip-17)" d="M 618 475 L 696 426 L 719 390" fill="none" id="make-me-a-hanzi-animation-17" stroke-dasharray="263 526" stroke-linecap="round"></path>
    
      <clipPath id="make-me-a-hanzi-clip-18">
        <path d="M 492 276 Q 461 272 483 256 Q 516 238 597 251 Q 640 258 686 266 Q 714 272 718 276 Q 725 283 722 290 Q 716 300 692 307 Q 667 313 640 303 Q 609 293 574 286 Q 537 279 492 276 Z"></path>
      </clipPath>
      <path clip-path="url(#make-me-a-hanzi-clip-18)" d="M 485 267 L 550 263 L 663 286 L 711 286" fill="none" id="make-me-a-hanzi-animation-18" stroke-dasharray="356 712" stroke-linecap="round"></path>
    
      <clipPath id="make-me-a-hanzi-clip-19">
        <path d="M 553 157 Q 605 175 802 181 Q 853 181 860 190 Q 864 200 850 212 Q 802 243 772 235 Q 643 205 366 159 Q 348 158 362 143 Q 375 131 390 127 Q 408 123 422 128 Q 465 141 515 150 L 553 157 Z"></path>
      </clipPath>
      <path clip-path="url(#make-me-a-hanzi-clip-19)" d="M 364 151 L 406 145 L 585 182 L 781 208 L 853 195" fill="none" id="make-me-a-hanzi-animation-19" stroke-dasharray="624 1248" stroke-linecap="round"></path>
    
      <clipPath id="make-me-a-hanzi-clip-20">
        <path d="M 715 59 Q 603 43 488 27 Q 478 26 476 28 Q 476 29 480 34 Q 552 101 577 116 Q 592 126 585 136 Q 578 146 553 157 C 526 170 518 174 515 150 Q 515 102 449 49 Q 431 36 400 25 Q 375 16 373 7 Q 370 -9 378 -28 Q 385 -47 397 -53 Q 404 -57 414 -52 Q 525 8 731 40 C 761 45 745 63 715 59 Z"></path>
      </clipPath>
      <path clip-path="url(#make-me-a-hanzi-clip-20)" d="M 573 129 L 540 125 L 509 84 L 466 45 L 447 5 L 499 7 L 709 49 L 721 40" fill="none" id="make-me-a-hanzi-animation-20" stroke-dasharray="596 1192" stroke-linecap="round"></path>
    
      <clipPath id="make-me-a-hanzi-clip-21">
        <path d="M 731 40 Q 797 -44 806 -48 Q 813 -49 821 -42 Q 833 -32 826 8 Q 817 59 677 134 Q 670 140 666 129 Q 665 117 673 108 Q 692 86 715 59 L 731 40 Z"></path>
      </clipPath>
      <path clip-path="url(#make-me-a-hanzi-clip-21)" d="M 675 124 L 782 26 L 802 -4 L 809 -41" fill="none" id="make-me-a-hanzi-animation-21" stroke-dasharray="347 694" stroke-linecap="round"></path>
    
  </g>
</svg>