<svg version="1.1" viewBox="0 0 1024 1024" xmlns="http://www.w3.org/2000/svg">
  <g stroke="lightgray" stroke-dasharray="1,1" stroke-width="1" transform="scale(4, 4)">
    <line x1="0" y1="0" x2="256" y2="256"></line>
    <line x1="256" y1="0" x2="0" y2="256"></line>
    <line x1="128" y1="0" x2="128" y2="256"></line>
    <line x1="0" y1="128" x2="256" y2="128"></line>
  </g>
  <g transform="scale(1, -1) translate(0, -900)">
    <style type="text/css">
      
        @keyframes keyframes0 {
          from {
            stroke: blue;
            stroke-dashoffset: 526;
            stroke-width: 128;
          }
          63% {
            animation-timing-function: step-end;
            stroke: blue;
            stroke-dashoffset: 0;
            stroke-width: 128;
          }
          to {
            stroke: black;
            stroke-width: 1024;
          }
        }
        #make-me-a-hanzi-animation-0 {
          animation: keyframes0 0.6780598958333334s both;
          animation-delay: 0s;
          animation-timing-function: linear;
        }
      
        @keyframes keyframes1 {
          from {
            stroke: blue;
            stroke-dashoffset: 748;
            stroke-width: 128;
          }
          71% {
            animation-timing-function: step-end;
            stroke: blue;
            stroke-dashoffset: 0;
            stroke-width: 128;
          }
          to {
            stroke: black;
            stroke-width: 1024;
          }
        }
        #make-me-a-hanzi-animation-1 {
          animation: keyframes1 0.8587239583333334s both;
          animation-delay: 0.6780598958333334s;
          animation-timing-function: linear;
        }
      
        @keyframes keyframes2 {
          from {
            stroke: blue;
            stroke-dashoffset: 590;
            stroke-width: 128;
          }
          66% {
            animation-timing-function: step-end;
            stroke: blue;
            stroke-dashoffset: 0;
            stroke-width: 128;
          }
          to {
            stroke: black;
            stroke-width: 1024;
          }
        }
        #make-me-a-hanzi-animation-2 {
          animation: keyframes2 0.7301432291666666s both;
          animation-delay: 1.5367838541666667s;
          animation-timing-function: linear;
        }
      
        @keyframes keyframes3 {
          from {
            stroke: blue;
            stroke-dashoffset: 580;
            stroke-width: 128;
          }
          65% {
            animation-timing-function: step-end;
            stroke: blue;
            stroke-dashoffset: 0;
            stroke-width: 128;
          }
          to {
            stroke: black;
            stroke-width: 1024;
          }
        }
        #make-me-a-hanzi-animation-3 {
          animation: keyframes3 0.7220052083333334s both;
          animation-delay: 2.2669270833333335s;
          animation-timing-function: linear;
        }
      
        @keyframes keyframes4 {
          from {
            stroke: blue;
            stroke-dashoffset: 778;
            stroke-width: 128;
          }
          72% {
            animation-timing-function: step-end;
            stroke: blue;
            stroke-dashoffset: 0;
            stroke-width: 128;
          }
          to {
            stroke: black;
            stroke-width: 1024;
          }
        }
        #make-me-a-hanzi-animation-4 {
          animation: keyframes4 0.8831380208333334s both;
          animation-delay: 2.988932291666667s;
          animation-timing-function: linear;
        }
      
        @keyframes keyframes5 {
          from {
            stroke: blue;
            stroke-dashoffset: 1042;
            stroke-width: 128;
          }
          77% {
            animation-timing-function: step-end;
            stroke: blue;
            stroke-dashoffset: 0;
            stroke-width: 128;
          }
          to {
            stroke: black;
            stroke-width: 1024;
          }
        }
        #make-me-a-hanzi-animation-5 {
          animation: keyframes5 1.0979817708333333s both;
          animation-delay: 3.8720703125000004s;
          animation-timing-function: linear;
        }
      
    </style>
    
      <path d="M 310 540 Q 398 567 400 567 Q 409 576 404 584 Q 397 596 366 602 Q 338 606 312 596 L 262 577 Q 187 558 140 551 Q 103 542 130 527 Q 175 503 233 522 Q 245 526 262 528 L 310 540 Z" fill="lightgray"></path>
    
      <path d="M 299 351 Q 303 448 310 540 L 312 596 Q 315 695 336 768 Q 340 780 319 795 Q 282 814 257 819 Q 241 823 232 814 Q 225 807 233 790 Q 260 750 260 723 Q 261 653 262 577 L 262 528 Q 261 435 255 333 C 253 303 298 321 299 351 Z" fill="lightgray"></path>
    
      <path d="M 255 333 Q 201 314 147 292 Q 131 285 101 283 Q 88 280 86 269 Q 85 254 96 247 Q 123 232 160 216 Q 172 215 183 224 Q 196 239 361 343 Q 383 356 397 370 Q 410 380 410 389 Q 403 395 390 390 Q 345 371 299 351 L 255 333 Z" fill="lightgray"></path>
    
      <path d="M 636 671 Q 810 707 819 713 Q 829 722 823 731 Q 816 744 784 752 Q 760 758 649 725 Q 552 704 503 700 Q 463 693 491 675 Q 531 650 596 663 L 636 671 Z" fill="lightgray"></path>
    
      <path d="M 687 457 Q 777 469 919 469 Q 940 470 944 479 Q 950 491 932 505 Q 869 548 813 528 Q 759 518 684 501 L 633 492 Q 534 477 420 459 Q 398 456 415 439 Q 451 409 497 423 Q 561 442 636 450 L 687 457 Z" fill="lightgray"></path>
    
      <path d="M 636 450 Q 646 177 598 103 Q 595 96 586 92 Q 574 91 497 126 Q 490 127 486 125 Q 483 121 491 111 Q 548 44 576 -3 Q 585 -19 594 -18 Q 607 -17 634 7 Q 691 58 694 163 Q 697 217 687 457 L 684 501 Q 672 645 666 652 Q 659 659 636 671 C 610 686 583 690 596 663 Q 621 627 633 492 L 636 450 Z" fill="lightgray"></path>
    
    
      <clipPath id="make-me-a-hanzi-clip-0">
        <path d="M 310 540 Q 398 567 400 567 Q 409 576 404 584 Q 397 596 366 602 Q 338 606 312 596 L 262 577 Q 187 558 140 551 Q 103 542 130 527 Q 175 503 233 522 Q 245 526 262 528 L 310 540 Z"></path>
      </clipPath>
      <path clip-path="url(#make-me-a-hanzi-clip-0)" d="M 132 540 L 191 537 L 346 578 L 370 581 L 396 575" fill="none" id="make-me-a-hanzi-animation-0" stroke-dasharray="398 796" stroke-linecap="round"></path>
    
      <clipPath id="make-me-a-hanzi-clip-1">
        <path d="M 299 351 Q 303 448 310 540 L 312 596 Q 315 695 336 768 Q 340 780 319 795 Q 282 814 257 819 Q 241 823 232 814 Q 225 807 233 790 Q 260 750 260 723 Q 261 653 262 577 L 262 528 Q 261 435 255 333 C 253 303 298 321 299 351 Z"></path>
      </clipPath>
      <path clip-path="url(#make-me-a-hanzi-clip-1)" d="M 244 805 L 293 763 L 294 741 L 279 376 L 260 341" fill="none" id="make-me-a-hanzi-animation-1" stroke-dasharray="620 1240" stroke-linecap="round"></path>
    
      <clipPath id="make-me-a-hanzi-clip-2">
        <path d="M 255 333 Q 201 314 147 292 Q 131 285 101 283 Q 88 280 86 269 Q 85 254 96 247 Q 123 232 160 216 Q 172 215 183 224 Q 196 239 361 343 Q 383 356 397 370 Q 410 380 410 389 Q 403 395 390 390 Q 345 371 299 351 L 255 333 Z"></path>
      </clipPath>
      <path clip-path="url(#make-me-a-hanzi-clip-2)" d="M 103 266 L 162 257 L 404 386" fill="none" id="make-me-a-hanzi-animation-2" stroke-dasharray="462 924" stroke-linecap="round"></path>
    
      <clipPath id="make-me-a-hanzi-clip-3">
        <path d="M 636 671 Q 810 707 819 713 Q 829 722 823 731 Q 816 744 784 752 Q 760 758 649 725 Q 552 704 503 700 Q 463 693 491 675 Q 531 650 596 663 L 636 671 Z"></path>
      </clipPath>
      <path clip-path="url(#make-me-a-hanzi-clip-3)" d="M 494 689 L 527 681 L 567 683 L 766 726 L 812 724" fill="none" id="make-me-a-hanzi-animation-3" stroke-dasharray="452 904" stroke-linecap="round"></path>
    
      <clipPath id="make-me-a-hanzi-clip-4">
        <path d="M 687 457 Q 777 469 919 469 Q 940 470 944 479 Q 950 491 932 505 Q 869 548 813 528 Q 759 518 684 501 L 633 492 Q 534 477 420 459 Q 398 456 415 439 Q 451 409 497 423 Q 561 442 636 450 L 687 457 Z"></path>
      </clipPath>
      <path clip-path="url(#make-me-a-hanzi-clip-4)" d="M 417 449 L 473 442 L 586 465 L 829 500 L 883 499 L 932 485" fill="none" id="make-me-a-hanzi-animation-4" stroke-dasharray="650 1300" stroke-linecap="round"></path>
    
      <clipPath id="make-me-a-hanzi-clip-5">
        <path d="M 636 450 Q 646 177 598 103 Q 595 96 586 92 Q 574 91 497 126 Q 490 127 486 125 Q 483 121 491 111 Q 548 44 576 -3 Q 585 -19 594 -18 Q 607 -17 634 7 Q 691 58 694 163 Q 697 217 687 457 L 684 501 Q 672 645 666 652 Q 659 659 636 671 C 610 686 583 690 596 663 Q 621 627 633 492 L 636 450 Z"></path>
      </clipPath>
      <path clip-path="url(#make-me-a-hanzi-clip-5)" d="M 603 662 L 640 634 L 659 513 L 665 263 L 655 139 L 631 74 L 603 46 L 564 66 L 506 114 L 492 119" fill="none" id="make-me-a-hanzi-animation-5" stroke-dasharray="914 1828" stroke-linecap="round"></path>
    
  </g>
</svg>