<svg version="1.1" viewBox="0 0 1024 1024" xmlns="http://www.w3.org/2000/svg">
  <g stroke="lightgray" stroke-dasharray="1,1" stroke-width="1" transform="scale(4, 4)">
    <line x1="0" y1="0" x2="256" y2="256"></line>
    <line x1="256" y1="0" x2="0" y2="256"></line>
    <line x1="128" y1="0" x2="128" y2="256"></line>
    <line x1="0" y1="128" x2="256" y2="128"></line>
  </g>
  <g transform="scale(1, -1) translate(0, -900)">
    <style type="text/css">
      
        @keyframes keyframes0 {
          from {
            stroke: blue;
            stroke-dashoffset: 528;
            stroke-width: 128;
          }
          63% {
            animation-timing-function: step-end;
            stroke: blue;
            stroke-dashoffset: 0;
            stroke-width: 128;
          }
          to {
            stroke: black;
            stroke-width: 1024;
          }
        }
        #make-me-a-hanzi-animation-0 {
          animation: keyframes0 0.6796875s both;
          animation-delay: 0s;
          animation-timing-function: linear;
        }
      
        @keyframes keyframes1 {
          from {
            stroke: blue;
            stroke-dashoffset: 767;
            stroke-width: 128;
          }
          71% {
            animation-timing-function: step-end;
            stroke: blue;
            stroke-dashoffset: 0;
            stroke-width: 128;
          }
          to {
            stroke: black;
            stroke-width: 1024;
          }
        }
        #make-me-a-hanzi-animation-1 {
          animation: keyframes1 0.8741861979166666s both;
          animation-delay: 0.6796875s;
          animation-timing-function: linear;
        }
      
        @keyframes keyframes2 {
          from {
            stroke: blue;
            stroke-dashoffset: 630;
            stroke-width: 128;
          }
          67% {
            animation-timing-function: step-end;
            stroke: blue;
            stroke-dashoffset: 0;
            stroke-width: 128;
          }
          to {
            stroke: black;
            stroke-width: 1024;
          }
        }
        #make-me-a-hanzi-animation-2 {
          animation: keyframes2 0.7626953125s both;
          animation-delay: 1.5538736979166665s;
          animation-timing-function: linear;
        }
      
        @keyframes keyframes3 {
          from {
            stroke: blue;
            stroke-dashoffset: 704;
            stroke-width: 128;
          }
          70% {
            animation-timing-function: step-end;
            stroke: blue;
            stroke-dashoffset: 0;
            stroke-width: 128;
          }
          to {
            stroke: black;
            stroke-width: 1024;
          }
        }
        #make-me-a-hanzi-animation-3 {
          animation: keyframes3 0.8229166666666666s both;
          animation-delay: 2.3165690104166665s;
          animation-timing-function: linear;
        }
      
        @keyframes keyframes4 {
          from {
            stroke: blue;
            stroke-dashoffset: 811;
            stroke-width: 128;
          }
          73% {
            animation-timing-function: step-end;
            stroke: blue;
            stroke-dashoffset: 0;
            stroke-width: 128;
          }
          to {
            stroke: black;
            stroke-width: 1024;
          }
        }
        #make-me-a-hanzi-animation-4 {
          animation: keyframes4 0.9099934895833334s both;
          animation-delay: 3.139485677083333s;
          animation-timing-function: linear;
        }
      
        @keyframes keyframes5 {
          from {
            stroke: blue;
            stroke-dashoffset: 620;
            stroke-width: 128;
          }
          67% {
            animation-timing-function: step-end;
            stroke: blue;
            stroke-dashoffset: 0;
            stroke-width: 128;
          }
          to {
            stroke: black;
            stroke-width: 1024;
          }
        }
        #make-me-a-hanzi-animation-5 {
          animation: keyframes5 0.7545572916666666s both;
          animation-delay: 4.049479166666666s;
          animation-timing-function: linear;
        }
      
        @keyframes keyframes6 {
          from {
            stroke: blue;
            stroke-dashoffset: 481;
            stroke-width: 128;
          }
          61% {
            animation-timing-function: step-end;
            stroke: blue;
            stroke-dashoffset: 0;
            stroke-width: 128;
          }
          to {
            stroke: black;
            stroke-width: 1024;
          }
        }
        #make-me-a-hanzi-animation-6 {
          animation: keyframes6 0.6414388020833334s both;
          animation-delay: 4.804036458333333s;
          animation-timing-function: linear;
        }
      
        @keyframes keyframes7 {
          from {
            stroke: blue;
            stroke-dashoffset: 821;
            stroke-width: 128;
          }
          73% {
            animation-timing-function: step-end;
            stroke: blue;
            stroke-dashoffset: 0;
            stroke-width: 128;
          }
          to {
            stroke: black;
            stroke-width: 1024;
          }
        }
        #make-me-a-hanzi-animation-7 {
          animation: keyframes7 0.9181315104166666s both;
          animation-delay: 5.445475260416666s;
          animation-timing-function: linear;
        }
      
    </style>
    
      <path d="M 292 497 Q 379 528 381 529 Q 388 536 384 545 Q 377 555 347 560 Q 320 563 294 551 L 245 531 Q 125 500 118 497 Q 84 488 110 474 Q 153 455 205 472 Q 224 478 245 484 L 292 497 Z" fill="lightgray"></path>
    
      <path d="M 283 292 Q 287 398 292 497 L 294 551 Q 295 608 316 729 Q 320 739 299 755 Q 262 774 237 779 Q 221 783 212 773 Q 205 766 213 750 Q 241 708 241 680 Q 244 608 245 531 L 245 484 Q 244 384 239 273 C 238 243 282 262 283 292 Z" fill="lightgray"></path>
    
      <path d="M 239 273 Q 176 251 113 224 Q 94 215 61 213 Q 48 210 47 199 Q 46 186 57 178 Q 82 165 118 148 Q 128 147 140 156 Q 188 201 342 283 Q 390 314 393 318 Q 406 328 405 337 Q 399 341 387 338 Q 338 316 283 292 L 239 273 Z" fill="lightgray"></path>
    
      <path d="M 673 641 Q 707 648 838 663 Q 850 662 860 675 Q 861 688 837 700 Q 798 724 732 703 Q 575 670 413 651 Q 382 647 406 629 Q 442 599 472 607 Q 536 620 615 632 L 673 641 Z" fill="lightgray"></path>
    
      <path d="M 623 485 Q 696 612 697 613 Q 696 626 673 641 C 649 659 615 662 615 632 Q 618 596 588 524 L 568 484 Q 564 478 561 471 Q 506 371 337 211 Q 330 207 339 204 Q 394 213 513 331 Q 519 338 578 414 L 623 485 Z" fill="lightgray"></path>
    
      <path d="M 578 414 Q 578 318 561 244 Q 549 204 581 161 Q 582 160 584 158 Q 600 145 610 168 Q 623 202 622 243 Q 621 415 625 453 Q 632 477 623 485 L 588 524 Q 579 531 570 535 Q 561 536 558 531 Q 552 519 567 487 Q 567 486 568 484 L 578 414 Z" fill="lightgray"></path>
    
      <path d="M 703 402 Q 764 354 837 283 Q 853 264 869 261 Q 878 260 885 271 Q 895 284 881 327 Q 863 384 702 433 Q 692 437 691 425 Q 691 412 703 402 Z" fill="lightgray"></path>
    
      <path d="M 335 80 Q 311 79 328 59 Q 343 43 363 37 Q 385 30 404 35 Q 623 83 871 63 Q 872 64 874 63 Q 896 62 902 72 Q 909 85 891 100 Q 834 145 792 137 Q 671 115 335 80 Z" fill="lightgray"></path>
    
    
      <clipPath id="make-me-a-hanzi-clip-0">
        <path d="M 292 497 Q 379 528 381 529 Q 388 536 384 545 Q 377 555 347 560 Q 320 563 294 551 L 245 531 Q 125 500 118 497 Q 84 488 110 474 Q 153 455 205 472 Q 224 478 245 484 L 292 497 Z"></path>
      </clipPath>
      <path clip-path="url(#make-me-a-hanzi-clip-0)" d="M 111 486 L 175 489 L 329 536 L 376 537" fill="none" id="make-me-a-hanzi-animation-0" stroke-dasharray="400 800" stroke-linecap="round"></path>
    
      <clipPath id="make-me-a-hanzi-clip-1">
        <path d="M 283 292 Q 287 398 292 497 L 294 551 Q 295 608 316 729 Q 320 739 299 755 Q 262 774 237 779 Q 221 783 212 773 Q 205 766 213 750 Q 241 708 241 680 Q 244 608 245 531 L 245 484 Q 244 384 239 273 C 238 243 282 262 283 292 Z"></path>
      </clipPath>
      <path clip-path="url(#make-me-a-hanzi-clip-1)" d="M 225 763 L 274 722 L 275 706 L 263 317 L 262 306 L 244 281" fill="none" id="make-me-a-hanzi-animation-1" stroke-dasharray="639 1278" stroke-linecap="round"></path>
    
      <clipPath id="make-me-a-hanzi-clip-2">
        <path d="M 239 273 Q 176 251 113 224 Q 94 215 61 213 Q 48 210 47 199 Q 46 186 57 178 Q 82 165 118 148 Q 128 147 140 156 Q 188 201 342 283 Q 390 314 393 318 Q 406 328 405 337 Q 399 341 387 338 Q 338 316 283 292 L 239 273 Z"></path>
      </clipPath>
      <path clip-path="url(#make-me-a-hanzi-clip-2)" d="M 63 198 L 120 188 L 226 245 L 346 300 L 400 333" fill="none" id="make-me-a-hanzi-animation-2" stroke-dasharray="502 1004" stroke-linecap="round"></path>
    
      <clipPath id="make-me-a-hanzi-clip-3">
        <path d="M 673 641 Q 707 648 838 663 Q 850 662 860 675 Q 861 688 837 700 Q 798 724 732 703 Q 575 670 413 651 Q 382 647 406 629 Q 442 599 472 607 Q 536 620 615 632 L 673 641 Z"></path>
      </clipPath>
      <path clip-path="url(#make-me-a-hanzi-clip-3)" d="M 407 641 L 462 631 L 790 686 L 849 677" fill="none" id="make-me-a-hanzi-animation-3" stroke-dasharray="576 1152" stroke-linecap="round"></path>
    
      <clipPath id="make-me-a-hanzi-clip-4">
        <path d="M 623 485 Q 696 612 697 613 Q 696 626 673 641 C 649 659 615 662 615 632 Q 618 596 588 524 L 568 484 Q 564 478 561 471 Q 506 371 337 211 Q 330 207 339 204 Q 394 213 513 331 Q 519 338 578 414 L 623 485 Z"></path>
      </clipPath>
      <path clip-path="url(#make-me-a-hanzi-clip-4)" d="M 691 616 L 663 611 L 649 601 L 610 509 L 564 431 L 508 358 L 420 267 L 358 218 L 346 217 L 342 209" fill="none" id="make-me-a-hanzi-animation-4" stroke-dasharray="683 1366" stroke-linecap="round"></path>
    
      <clipPath id="make-me-a-hanzi-clip-5">
        <path d="M 578 414 Q 578 318 561 244 Q 549 204 581 161 Q 582 160 584 158 Q 600 145 610 168 Q 623 202 622 243 Q 621 415 625 453 Q 632 477 623 485 L 588 524 Q 579 531 570 535 Q 561 536 558 531 Q 552 519 567 487 Q 567 486 568 484 L 578 414 Z"></path>
      </clipPath>
      <path clip-path="url(#make-me-a-hanzi-clip-5)" d="M 567 524 L 599 466 L 598 300 L 589 215 L 595 169" fill="none" id="make-me-a-hanzi-animation-5" stroke-dasharray="492 984" stroke-linecap="round"></path>
    
      <clipPath id="make-me-a-hanzi-clip-6">
        <path d="M 703 402 Q 764 354 837 283 Q 853 264 869 261 Q 878 260 885 271 Q 895 284 881 327 Q 863 384 702 433 Q 692 437 691 425 Q 691 412 703 402 Z"></path>
      </clipPath>
      <path clip-path="url(#make-me-a-hanzi-clip-6)" d="M 702 421 L 825 343 L 849 318 L 869 278" fill="none" id="make-me-a-hanzi-animation-6" stroke-dasharray="353 706" stroke-linecap="round"></path>
    
      <clipPath id="make-me-a-hanzi-clip-7">
        <path d="M 335 80 Q 311 79 328 59 Q 343 43 363 37 Q 385 30 404 35 Q 623 83 871 63 Q 872 64 874 63 Q 896 62 902 72 Q 909 85 891 100 Q 834 145 792 137 Q 671 115 335 80 Z"></path>
      </clipPath>
      <path clip-path="url(#make-me-a-hanzi-clip-7)" d="M 331 70 L 385 59 L 553 83 L 808 103 L 889 79" fill="none" id="make-me-a-hanzi-animation-7" stroke-dasharray="693 1386" stroke-linecap="round"></path>
    
  </g>
</svg>