<svg version="1.1" viewBox="0 0 1024 1024" xmlns="http://www.w3.org/2000/svg">
  <g stroke="lightgray" stroke-dasharray="1,1" stroke-width="1" transform="scale(4, 4)">
    <line x1="0" y1="0" x2="256" y2="256"></line>
    <line x1="256" y1="0" x2="0" y2="256"></line>
    <line x1="128" y1="0" x2="128" y2="256"></line>
    <line x1="0" y1="128" x2="256" y2="128"></line>
  </g>
  <g transform="scale(1, -1) translate(0, -900)">
    <style type="text/css">
      
        @keyframes keyframes0 {
          from {
            stroke: blue;
            stroke-dashoffset: 676;
            stroke-width: 128;
          }
          69% {
            animation-timing-function: step-end;
            stroke: blue;
            stroke-dashoffset: 0;
            stroke-width: 128;
          }
          to {
            stroke: black;
            stroke-width: 1024;
          }
        }
        #make-me-a-hanzi-animation-0 {
          animation: keyframes0 0.8001302083333334s both;
          animation-delay: 0s;
          animation-timing-function: linear;
        }
      
        @keyframes keyframes1 {
          from {
            stroke: blue;
            stroke-dashoffset: 832;
            stroke-width: 128;
          }
          73% {
            animation-timing-function: step-end;
            stroke: blue;
            stroke-dashoffset: 0;
            stroke-width: 128;
          }
          to {
            stroke: black;
            stroke-width: 1024;
          }
        }
        #make-me-a-hanzi-animation-1 {
          animation: keyframes1 0.9270833333333334s both;
          animation-delay: 0.8001302083333334s;
          animation-timing-function: linear;
        }
      
        @keyframes keyframes2 {
          from {
            stroke: blue;
            stroke-dashoffset: 917;
            stroke-width: 128;
          }
          75% {
            animation-timing-function: step-end;
            stroke: blue;
            stroke-dashoffset: 0;
            stroke-width: 128;
          }
          to {
            stroke: black;
            stroke-width: 1024;
          }
        }
        #make-me-a-hanzi-animation-2 {
          animation: keyframes2 0.9962565104166666s both;
          animation-delay: 1.7272135416666667s;
          animation-timing-function: linear;
        }
      
        @keyframes keyframes3 {
          from {
            stroke: blue;
            stroke-dashoffset: 519;
            stroke-width: 128;
          }
          63% {
            animation-timing-function: step-end;
            stroke: blue;
            stroke-dashoffset: 0;
            stroke-width: 128;
          }
          to {
            stroke: black;
            stroke-width: 1024;
          }
        }
        #make-me-a-hanzi-animation-3 {
          animation: keyframes3 0.67236328125s both;
          animation-delay: 2.7234700520833335s;
          animation-timing-function: linear;
        }
      
        @keyframes keyframes4 {
          from {
            stroke: blue;
            stroke-dashoffset: 388;
            stroke-width: 128;
          }
          56% {
            animation-timing-function: step-end;
            stroke: blue;
            stroke-dashoffset: 0;
            stroke-width: 128;
          }
          to {
            stroke: black;
            stroke-width: 1024;
          }
        }
        #make-me-a-hanzi-animation-4 {
          animation: keyframes4 0.5657552083333334s both;
          animation-delay: 3.3958333333333335s;
          animation-timing-function: linear;
        }
      
        @keyframes keyframes5 {
          from {
            stroke: blue;
            stroke-dashoffset: 693;
            stroke-width: 128;
          }
          69% {
            animation-timing-function: step-end;
            stroke: blue;
            stroke-dashoffset: 0;
            stroke-width: 128;
          }
          to {
            stroke: black;
            stroke-width: 1024;
          }
        }
        #make-me-a-hanzi-animation-5 {
          animation: keyframes5 0.81396484375s both;
          animation-delay: 3.961588541666667s;
          animation-timing-function: linear;
        }
      
        @keyframes keyframes6 {
          from {
            stroke: blue;
            stroke-dashoffset: 556;
            stroke-width: 128;
          }
          64% {
            animation-timing-function: step-end;
            stroke: blue;
            stroke-dashoffset: 0;
            stroke-width: 128;
          }
          to {
            stroke: black;
            stroke-width: 1024;
          }
        }
        #make-me-a-hanzi-animation-6 {
          animation: keyframes6 0.7024739583333334s both;
          animation-delay: 4.775553385416667s;
          animation-timing-function: linear;
        }
      
        @keyframes keyframes7 {
          from {
            stroke: blue;
            stroke-dashoffset: 1020;
            stroke-width: 128;
          }
          77% {
            animation-timing-function: step-end;
            stroke: blue;
            stroke-dashoffset: 0;
            stroke-width: 128;
          }
          to {
            stroke: black;
            stroke-width: 1024;
          }
        }
        #make-me-a-hanzi-animation-7 {
          animation: keyframes7 1.080078125s both;
          animation-delay: 5.47802734375s;
          animation-timing-function: linear;
        }
      
    </style>
    
      <path d="M 551 638 Q 593 647 639 653 Q 700 665 709 673 Q 719 680 714 688 Q 708 700 680 709 Q 652 716 622 706 Q 564 688 504 674 L 443 661 Q 373 652 295 647 Q 259 643 284 625 Q 323 598 380 612 Q 402 616 429 619 L 488 628 Q 503 631 520 633 L 551 638 Z" fill="lightgray"></path>
    
      <path d="M 504 674 Q 511 701 535 755 Q 545 773 528 788 Q 488 822 473 824 Q 454 825 463 801 Q 473 765 443 661 L 429 619 Q 404 511 298 424 Q 270 403 227 380 Q 211 371 205 366 Q 202 360 213 357 Q 229 353 252 362 Q 297 377 326 395 Q 425 462 488 628 L 504 674 Z" fill="lightgray"></path>
    
      <path d="M 877 408 Q 861 448 850 516 Q 847 529 841 534 Q 834 538 831 520 Q 821 436 808 421 Q 784 393 686 388 Q 631 387 608 396 Q 587 405 583 419 Q 576 435 576 470 L 578 506 Q 582 552 593 575 Q 603 602 586 616 Q 565 631 551 638 C 525 653 508 661 520 633 Q 520 630 523 625 Q 541 592 537 544 Q 536 507 536 478 L 536 452 Q 539 394 570 371 Q 612 340 767 348 Q 836 352 863 368 Q 888 381 877 408 Z" fill="lightgray"></path>
    
      <path d="M 576 470 Q 580 473 588 476 Q 625 495 673 528 Q 692 544 708 550 Q 717 554 717 564 Q 717 573 705 594 Q 693 613 681 617 Q 669 621 668 605 Q 669 575 589 514 Q 583 511 578 506 L 536 478 Q 494 456 492 450 Q 488 444 496 442 Q 503 441 525 449 Q 529 450 536 452 L 576 470 Z" fill="lightgray"></path>
    
      <path d="M 705 744 Q 736 723 768 696 Q 781 686 793 688 Q 802 689 805 700 Q 808 713 799 736 Q 787 766 698 783 Q 685 784 680 783 Q 676 779 678 769 Q 682 760 705 744 Z" fill="lightgray"></path>
    
      <path d="M 532 204 Q 712 231 721 238 Q 731 245 726 255 Q 719 268 689 278 Q 658 287 624 277 Q 581 265 536 254 L 479 243 Q 478 244 476 243 Q 391 230 293 227 Q 253 223 280 203 Q 328 173 384 184 Q 432 191 481 196 L 532 204 Z" fill="lightgray"></path>
    
      <path d="M 520 81 Q 527 145 532 204 L 536 254 Q 539 296 552 329 Q 555 339 536 353 Q 503 372 481 376 Q 465 379 458 371 Q 451 364 458 350 Q 476 326 476 310 Q 477 279 479 243 L 481 196 Q 481 141 481 77 C 481 47 517 51 520 81 Z" fill="lightgray"></path>
    
      <path d="M 481 77 Q 331 67 160 56 Q 135 55 152 35 Q 189 -2 230 7 Q 470 58 892 34 Q 893 35 896 34 Q 918 33 925 42 Q 932 55 914 72 Q 851 123 783 109 Q 680 96 520 81 L 481 77 Z" fill="lightgray"></path>
    
    
      <clipPath id="make-me-a-hanzi-clip-0">
        <path d="M 551 638 Q 593 647 639 653 Q 700 665 709 673 Q 719 680 714 688 Q 708 700 680 709 Q 652 716 622 706 Q 564 688 504 674 L 443 661 Q 373 652 295 647 Q 259 643 284 625 Q 323 598 380 612 Q 402 616 429 619 L 488 628 Q 503 631 520 633 L 551 638 Z"></path>
      </clipPath>
      <path clip-path="url(#make-me-a-hanzi-clip-0)" d="M 287 637 L 354 629 L 524 655 L 658 685 L 701 684" fill="none" id="make-me-a-hanzi-animation-0" stroke-dasharray="548 1096" stroke-linecap="round"></path>
    
      <clipPath id="make-me-a-hanzi-clip-1">
        <path d="M 504 674 Q 511 701 535 755 Q 545 773 528 788 Q 488 822 473 824 Q 454 825 463 801 Q 473 765 443 661 L 429 619 Q 404 511 298 424 Q 270 403 227 380 Q 211 371 205 366 Q 202 360 213 357 Q 229 353 252 362 Q 297 377 326 395 Q 425 462 488 628 L 504 674 Z"></path>
      </clipPath>
      <path clip-path="url(#make-me-a-hanzi-clip-1)" d="M 472 811 L 501 765 L 461 628 L 411 518 L 367 459 L 311 409 L 230 367 L 212 365" fill="none" id="make-me-a-hanzi-animation-1" stroke-dasharray="704 1408" stroke-linecap="round"></path>
    
      <clipPath id="make-me-a-hanzi-clip-2">
        <path d="M 877 408 Q 861 448 850 516 Q 847 529 841 534 Q 834 538 831 520 Q 821 436 808 421 Q 784 393 686 388 Q 631 387 608 396 Q 587 405 583 419 Q 576 435 576 470 L 578 506 Q 582 552 593 575 Q 603 602 586 616 Q 565 631 551 638 C 525 653 508 661 520 633 Q 520 630 523 625 Q 541 592 537 544 Q 536 507 536 478 L 536 452 Q 539 394 570 371 Q 612 340 767 348 Q 836 352 863 368 Q 888 381 877 408 Z"></path>
      </clipPath>
      <path clip-path="url(#make-me-a-hanzi-clip-2)" d="M 528 632 L 547 619 L 566 590 L 556 496 L 559 429 L 572 397 L 597 379 L 629 370 L 732 368 L 791 377 L 836 396 L 842 433 L 839 527" fill="none" id="make-me-a-hanzi-animation-2" stroke-dasharray="789 1578" stroke-linecap="round"></path>
    
      <clipPath id="make-me-a-hanzi-clip-3">
        <path d="M 576 470 Q 580 473 588 476 Q 625 495 673 528 Q 692 544 708 550 Q 717 554 717 564 Q 717 573 705 594 Q 693 613 681 617 Q 669 621 668 605 Q 669 575 589 514 Q 583 511 578 506 L 536 478 Q 494 456 492 450 Q 488 444 496 442 Q 503 441 525 449 Q 529 450 536 452 L 576 470 Z"></path>
      </clipPath>
      <path clip-path="url(#make-me-a-hanzi-clip-3)" d="M 677 608 L 686 576 L 655 541 L 576 486 L 498 448" fill="none" id="make-me-a-hanzi-animation-3" stroke-dasharray="391 782" stroke-linecap="round"></path>
    
      <clipPath id="make-me-a-hanzi-clip-4">
        <path d="M 705 744 Q 736 723 768 696 Q 781 686 793 688 Q 802 689 805 700 Q 808 713 799 736 Q 787 766 698 783 Q 685 784 680 783 Q 676 779 678 769 Q 682 760 705 744 Z"></path>
      </clipPath>
      <path clip-path="url(#make-me-a-hanzi-clip-4)" d="M 684 775 L 766 733 L 791 702" fill="none" id="make-me-a-hanzi-animation-4" stroke-dasharray="260 520" stroke-linecap="round"></path>
    
      <clipPath id="make-me-a-hanzi-clip-5">
        <path d="M 532 204 Q 712 231 721 238 Q 731 245 726 255 Q 719 268 689 278 Q 658 287 624 277 Q 581 265 536 254 L 479 243 Q 478 244 476 243 Q 391 230 293 227 Q 253 223 280 203 Q 328 173 384 184 Q 432 191 481 196 L 532 204 Z"></path>
      </clipPath>
      <path clip-path="url(#make-me-a-hanzi-clip-5)" d="M 284 217 L 308 208 L 373 206 L 542 228 L 658 254 L 715 249" fill="none" id="make-me-a-hanzi-animation-5" stroke-dasharray="565 1130" stroke-linecap="round"></path>
    
      <clipPath id="make-me-a-hanzi-clip-6">
        <path d="M 520 81 Q 527 145 532 204 L 536 254 Q 539 296 552 329 Q 555 339 536 353 Q 503 372 481 376 Q 465 379 458 371 Q 451 364 458 350 Q 476 326 476 310 Q 477 279 479 243 L 481 196 Q 481 141 481 77 C 481 47 517 51 520 81 Z"></path>
      </clipPath>
      <path clip-path="url(#make-me-a-hanzi-clip-6)" d="M 470 361 L 511 325 L 503 107 L 487 85" fill="none" id="make-me-a-hanzi-animation-6" stroke-dasharray="428 856" stroke-linecap="round"></path>
    
      <clipPath id="make-me-a-hanzi-clip-7">
        <path d="M 481 77 Q 331 67 160 56 Q 135 55 152 35 Q 189 -2 230 7 Q 470 58 892 34 Q 893 35 896 34 Q 918 33 925 42 Q 932 55 914 72 Q 851 123 783 109 Q 680 96 520 81 L 481 77 Z"></path>
      </clipPath>
      <path clip-path="url(#make-me-a-hanzi-clip-7)" d="M 156 46 L 211 32 L 531 62 L 796 75 L 852 70 L 913 50" fill="none" id="make-me-a-hanzi-animation-7" stroke-dasharray="892 1784" stroke-linecap="round"></path>
    
  </g>
</svg>