<svg version="1.1" viewBox="0 0 1024 1024" xmlns="http://www.w3.org/2000/svg">
  <g stroke="lightgray" stroke-dasharray="1,1" stroke-width="1" transform="scale(4, 4)">
    <line x1="0" y1="0" x2="256" y2="256"></line>
    <line x1="256" y1="0" x2="0" y2="256"></line>
    <line x1="128" y1="0" x2="128" y2="256"></line>
    <line x1="0" y1="128" x2="256" y2="128"></line>
  </g>
  <g transform="scale(1, -1) translate(0, -900)">
    <style type="text/css">
      
        @keyframes keyframes0 {
          from {
            stroke: blue;
            stroke-dashoffset: 590;
            stroke-width: 128;
          }
          66% {
            animation-timing-function: step-end;
            stroke: blue;
            stroke-dashoffset: 0;
            stroke-width: 128;
          }
          to {
            stroke: black;
            stroke-width: 1024;
          }
        }
        #make-me-a-hanzi-animation-0 {
          animation: keyframes0 0.7301432291666666s both;
          animation-delay: 0s;
          animation-timing-function: linear;
        }
      
        @keyframes keyframes1 {
          from {
            stroke: blue;
            stroke-dashoffset: 752;
            stroke-width: 128;
          }
          71% {
            animation-timing-function: step-end;
            stroke: blue;
            stroke-dashoffset: 0;
            stroke-width: 128;
          }
          to {
            stroke: black;
            stroke-width: 1024;
          }
        }
        #make-me-a-hanzi-animation-1 {
          animation: keyframes1 0.8619791666666666s both;
          animation-delay: 0.7301432291666666s;
          animation-timing-function: linear;
        }
      
        @keyframes keyframes2 {
          from {
            stroke: blue;
            stroke-dashoffset: 744;
            stroke-width: 128;
          }
          71% {
            animation-timing-function: step-end;
            stroke: blue;
            stroke-dashoffset: 0;
            stroke-width: 128;
          }
          to {
            stroke: black;
            stroke-width: 1024;
          }
        }
        #make-me-a-hanzi-animation-2 {
          animation: keyframes2 0.85546875s both;
          animation-delay: 1.5921223958333333s;
          animation-timing-function: linear;
        }
      
        @keyframes keyframes3 {
          from {
            stroke: blue;
            stroke-dashoffset: 612;
            stroke-width: 128;
          }
          67% {
            animation-timing-function: step-end;
            stroke: blue;
            stroke-dashoffset: 0;
            stroke-width: 128;
          }
          to {
            stroke: black;
            stroke-width: 1024;
          }
        }
        #make-me-a-hanzi-animation-3 {
          animation: keyframes3 0.748046875s both;
          animation-delay: 2.447591145833333s;
          animation-timing-function: linear;
        }
      
        @keyframes keyframes4 {
          from {
            stroke: blue;
            stroke-dashoffset: 510;
            stroke-width: 128;
          }
          62% {
            animation-timing-function: step-end;
            stroke: blue;
            stroke-dashoffset: 0;
            stroke-width: 128;
          }
          to {
            stroke: black;
            stroke-width: 1024;
          }
        }
        #make-me-a-hanzi-animation-4 {
          animation: keyframes4 0.6650390625s both;
          animation-delay: 3.195638020833333s;
          animation-timing-function: linear;
        }
      
        @keyframes keyframes5 {
          from {
            stroke: blue;
            stroke-dashoffset: 861;
            stroke-width: 128;
          }
          74% {
            animation-timing-function: step-end;
            stroke: blue;
            stroke-dashoffset: 0;
            stroke-width: 128;
          }
          to {
            stroke: black;
            stroke-width: 1024;
          }
        }
        #make-me-a-hanzi-animation-5 {
          animation: keyframes5 0.95068359375s both;
          animation-delay: 3.860677083333333s;
          animation-timing-function: linear;
        }
      
        @keyframes keyframes6 {
          from {
            stroke: blue;
            stroke-dashoffset: 623;
            stroke-width: 128;
          }
          67% {
            animation-timing-function: step-end;
            stroke: blue;
            stroke-dashoffset: 0;
            stroke-width: 128;
          }
          to {
            stroke: black;
            stroke-width: 1024;
          }
        }
        #make-me-a-hanzi-animation-6 {
          animation: keyframes6 0.7569986979166666s both;
          animation-delay: 4.811360677083333s;
          animation-timing-function: linear;
        }
      
        @keyframes keyframes7 {
          from {
            stroke: blue;
            stroke-dashoffset: 556;
            stroke-width: 128;
          }
          64% {
            animation-timing-function: step-end;
            stroke: blue;
            stroke-dashoffset: 0;
            stroke-width: 128;
          }
          to {
            stroke: black;
            stroke-width: 1024;
          }
        }
        #make-me-a-hanzi-animation-7 {
          animation: keyframes7 0.7024739583333334s both;
          animation-delay: 5.568359375s;
          animation-timing-function: linear;
        }
      
        @keyframes keyframes8 {
          from {
            stroke: blue;
            stroke-dashoffset: 953;
            stroke-width: 128;
          }
          76% {
            animation-timing-function: step-end;
            stroke: blue;
            stroke-dashoffset: 0;
            stroke-width: 128;
          }
          to {
            stroke: black;
            stroke-width: 1024;
          }
        }
        #make-me-a-hanzi-animation-8 {
          animation: keyframes8 1.0255533854166667s both;
          animation-delay: 6.270833333333333s;
          animation-timing-function: linear;
        }
      
    </style>
    
      <path d="M 462 723 Q 504 730 539 736 Q 549 735 557 747 Q 558 757 537 767 Q 506 786 422 760 Q 407 757 393 753 Q 365 747 223 723 Q 196 719 218 703 Q 248 682 275 686 L 327 697 Q 370 707 422 717 L 462 723 Z" fill="lightgray"></path>
    
      <path d="M 484 566 Q 529 573 580 577 Q 596 578 597 586 Q 598 598 582 607 Q 558 619 485 605 L 441 597 Q 386 587 343 578 L 294 570 Q 165 552 102 548 Q 90 547 87 540 Q 83 530 97 519 Q 130 494 182 505 Q 240 523 291 533 L 340 543 Q 361 550 442 561 L 484 566 Z" fill="lightgray"></path>
    
      <path d="M 275 686 Q 299 649 294 570 L 291 533 Q 279 386 145 282 Q 135 272 146 271 Q 198 277 260 347 Q 294 383 309 421 Q 315 439 322 455 Q 337 497 340 543 L 343 578 Q 349 644 357 664 Q 363 680 348 687 Q 336 694 327 697 C 300 709 261 713 275 686 Z" fill="lightgray"></path>
    
      <path d="M 442 561 Q 442 536 429 441 Q 420 402 448 370 Q 457 360 466 370 Q 484 400 485 472 Q 482 506 484 566 L 485 605 Q 485 645 491 683 Q 498 704 479 714 Q 470 720 462 723 C 435 736 412 745 422 717 Q 423 716 424 711 Q 439 674 441 597 L 442 561 Z" fill="lightgray"></path>
    
      <path d="M 610 684 Q 634 630 618 498 Q 612 473 637 442 Q 646 432 654 442 Q 669 469 669 557 Q 669 624 674 658 Q 680 677 662 688 Q 649 697 633 704 Q 623 708 614 703 Q 607 697 610 684 Z" fill="lightgray"></path>
    
      <path d="M 775 757 Q 778 736 774 415 Q 774 402 766 397 Q 765 397 703 400 Q 672 410 675 401 Q 676 394 695 381 Q 750 338 765 313 Q 781 285 795 283 Q 808 282 821 314 Q 837 356 834 423 Q 810 682 839 781 Q 855 809 804 829 Q 773 845 755 840 Q 739 834 754 813 Q 773 788 775 757 Z" fill="lightgray"></path>
    
      <path d="M 540 203 Q 594 213 651 220 Q 700 229 709 235 Q 719 242 714 252 Q 708 265 679 273 Q 649 282 544 252 L 489 241 Q 423 232 348 229 Q 311 225 336 206 Q 381 178 435 189 Q 462 193 490 196 L 540 203 Z" fill="lightgray"></path>
    
      <path d="M 528 69 Q 534 139 540 203 L 544 252 Q 544 255 545 257 Q 552 300 559 319 Q 562 329 544 342 Q 513 360 490 364 Q 475 367 468 359 Q 461 352 468 339 Q 486 314 486 298 Q 487 271 489 241 L 490 196 Q 490 135 489 65 C 489 35 525 39 528 69 Z" fill="lightgray"></path>
    
      <path d="M 489 65 Q 350 52 187 36 Q 163 35 180 15 Q 195 -1 215 -7 Q 237 -14 256 -10 Q 469 42 805 33 Q 833 32 858 31 Q 880 30 886 40 Q 893 53 875 68 Q 818 113 776 105 Q 683 89 528 69 L 489 65 Z" fill="lightgray"></path>
    
    
      <clipPath id="make-me-a-hanzi-clip-0">
        <path d="M 462 723 Q 504 730 539 736 Q 549 735 557 747 Q 558 757 537 767 Q 506 786 422 760 Q 407 757 393 753 Q 365 747 223 723 Q 196 719 218 703 Q 248 682 275 686 L 327 697 Q 370 707 422 717 L 462 723 Z"></path>
      </clipPath>
      <path clip-path="url(#make-me-a-hanzi-clip-0)" d="M 218 714 L 277 709 L 473 749 L 518 753 L 547 748" fill="none" id="make-me-a-hanzi-animation-0" stroke-dasharray="462 924" stroke-linecap="round"></path>
    
      <clipPath id="make-me-a-hanzi-clip-1">
        <path d="M 484 566 Q 529 573 580 577 Q 596 578 597 586 Q 598 598 582 607 Q 558 619 485 605 L 441 597 Q 386 587 343 578 L 294 570 Q 165 552 102 548 Q 90 547 87 540 Q 83 530 97 519 Q 130 494 182 505 Q 240 523 291 533 L 340 543 Q 361 550 442 561 L 484 566 Z"></path>
      </clipPath>
      <path clip-path="url(#make-me-a-hanzi-clip-1)" d="M 97 535 L 123 528 L 170 528 L 498 589 L 546 594 L 586 589" fill="none" id="make-me-a-hanzi-animation-1" stroke-dasharray="624 1248" stroke-linecap="round"></path>
    
      <clipPath id="make-me-a-hanzi-clip-2">
        <path d="M 275 686 Q 299 649 294 570 L 291 533 Q 279 386 145 282 Q 135 272 146 271 Q 198 277 260 347 Q 294 383 309 421 Q 315 439 322 455 Q 337 497 340 543 L 343 578 Q 349 644 357 664 Q 363 680 348 687 Q 336 694 327 697 C 300 709 261 713 275 686 Z"></path>
      </clipPath>
      <path clip-path="url(#make-me-a-hanzi-clip-2)" d="M 282 684 L 321 658 L 316 537 L 303 469 L 287 423 L 241 351 L 193 304 L 151 277" fill="none" id="make-me-a-hanzi-animation-2" stroke-dasharray="616 1232" stroke-linecap="round"></path>
    
      <clipPath id="make-me-a-hanzi-clip-3">
        <path d="M 442 561 Q 442 536 429 441 Q 420 402 448 370 Q 457 360 466 370 Q 484 400 485 472 Q 482 506 484 566 L 485 605 Q 485 645 491 683 Q 498 704 479 714 Q 470 720 462 723 C 435 736 412 745 422 717 Q 423 716 424 711 Q 439 674 441 597 L 442 561 Z"></path>
      </clipPath>
      <path clip-path="url(#make-me-a-hanzi-clip-3)" d="M 429 716 L 461 689 L 464 557 L 453 410 L 457 376" fill="none" id="make-me-a-hanzi-animation-3" stroke-dasharray="484 968" stroke-linecap="round"></path>
    
      <clipPath id="make-me-a-hanzi-clip-4">
        <path d="M 610 684 Q 634 630 618 498 Q 612 473 637 442 Q 646 432 654 442 Q 669 469 669 557 Q 669 624 674 658 Q 680 677 662 688 Q 649 697 633 704 Q 623 708 614 703 Q 607 697 610 684 Z"></path>
      </clipPath>
      <path clip-path="url(#make-me-a-hanzi-clip-4)" d="M 622 693 L 647 656 L 641 490 L 646 447" fill="none" id="make-me-a-hanzi-animation-4" stroke-dasharray="382 764" stroke-linecap="round"></path>
    
      <clipPath id="make-me-a-hanzi-clip-5">
        <path d="M 775 757 Q 778 736 774 415 Q 774 402 766 397 Q 765 397 703 400 Q 672 410 675 401 Q 676 394 695 381 Q 750 338 765 313 Q 781 285 795 283 Q 808 282 821 314 Q 837 356 834 423 Q 810 682 839 781 Q 855 809 804 829 Q 773 845 755 840 Q 739 834 754 813 Q 773 788 775 757 Z"></path>
      </clipPath>
      <path clip-path="url(#make-me-a-hanzi-clip-5)" d="M 761 826 L 786 810 L 805 786 L 799 653 L 803 396 L 787 358 L 681 399" fill="none" id="make-me-a-hanzi-animation-5" stroke-dasharray="733 1466" stroke-linecap="round"></path>
    
      <clipPath id="make-me-a-hanzi-clip-6">
        <path d="M 540 203 Q 594 213 651 220 Q 700 229 709 235 Q 719 242 714 252 Q 708 265 679 273 Q 649 282 544 252 L 489 241 Q 423 232 348 229 Q 311 225 336 206 Q 381 178 435 189 Q 462 193 490 196 L 540 203 Z"></path>
      </clipPath>
      <path clip-path="url(#make-me-a-hanzi-clip-6)" d="M 340 219 L 399 208 L 506 221 L 634 246 L 703 246" fill="none" id="make-me-a-hanzi-animation-6" stroke-dasharray="495 990" stroke-linecap="round"></path>
    
      <clipPath id="make-me-a-hanzi-clip-7">
        <path d="M 528 69 Q 534 139 540 203 L 544 252 Q 544 255 545 257 Q 552 300 559 319 Q 562 329 544 342 Q 513 360 490 364 Q 475 367 468 359 Q 461 352 468 339 Q 486 314 486 298 Q 487 271 489 241 L 490 196 Q 490 135 489 65 C 489 35 525 39 528 69 Z"></path>
      </clipPath>
      <path clip-path="url(#make-me-a-hanzi-clip-7)" d="M 480 349 L 520 315 L 510 94 L 495 73" fill="none" id="make-me-a-hanzi-animation-7" stroke-dasharray="428 856" stroke-linecap="round"></path>
    
      <clipPath id="make-me-a-hanzi-clip-8">
        <path d="M 489 65 Q 350 52 187 36 Q 163 35 180 15 Q 195 -1 215 -7 Q 237 -14 256 -10 Q 469 42 805 33 Q 833 32 858 31 Q 880 30 886 40 Q 893 53 875 68 Q 818 113 776 105 Q 683 89 528 69 L 489 65 Z"></path>
      </clipPath>
      <path clip-path="url(#make-me-a-hanzi-clip-8)" d="M 183 26 L 247 15 L 392 36 L 786 70 L 822 65 L 873 47" fill="none" id="make-me-a-hanzi-animation-8" stroke-dasharray="825 1650" stroke-linecap="round"></path>
    
  </g>
</svg>