<svg version="1.1" viewBox="0 0 1024 1024" xmlns="http://www.w3.org/2000/svg">
  <g stroke="lightgray" stroke-dasharray="1,1" stroke-width="1" transform="scale(4, 4)">
    <line x1="0" y1="0" x2="256" y2="256"></line>
    <line x1="256" y1="0" x2="0" y2="256"></line>
    <line x1="128" y1="0" x2="128" y2="256"></line>
    <line x1="0" y1="128" x2="256" y2="128"></line>
  </g>
  <g transform="scale(1, -1) translate(0, -900)">
    <style type="text/css">
      
        @keyframes keyframes0 {
          from {
            stroke: blue;
            stroke-dashoffset: 523;
            stroke-width: 128;
          }
          63% {
            animation-timing-function: step-end;
            stroke: blue;
            stroke-dashoffset: 0;
            stroke-width: 128;
          }
          to {
            stroke: black;
            stroke-width: 1024;
          }
        }
        #make-me-a-hanzi-animation-0 {
          animation: keyframes0 0.6756184895833334s both;
          animation-delay: 0s;
          animation-timing-function: linear;
        }
      
        @keyframes keyframes1 {
          from {
            stroke: blue;
            stroke-dashoffset: 568;
            stroke-width: 128;
          }
          65% {
            animation-timing-function: step-end;
            stroke: blue;
            stroke-dashoffset: 0;
            stroke-width: 128;
          }
          to {
            stroke: black;
            stroke-width: 1024;
          }
        }
        #make-me-a-hanzi-animation-1 {
          animation: keyframes1 0.7122395833333334s both;
          animation-delay: 0.6756184895833334s;
          animation-timing-function: linear;
        }
      
        @keyframes keyframes2 {
          from {
            stroke: blue;
            stroke-dashoffset: 641;
            stroke-width: 128;
          }
          68% {
            animation-timing-function: step-end;
            stroke: blue;
            stroke-dashoffset: 0;
            stroke-width: 128;
          }
          to {
            stroke: black;
            stroke-width: 1024;
          }
        }
        #make-me-a-hanzi-animation-2 {
          animation: keyframes2 0.7716471354166666s both;
          animation-delay: 1.3878580729166667s;
          animation-timing-function: linear;
        }
      
        @keyframes keyframes3 {
          from {
            stroke: blue;
            stroke-dashoffset: 462;
            stroke-width: 128;
          }
          60% {
            animation-timing-function: step-end;
            stroke: blue;
            stroke-dashoffset: 0;
            stroke-width: 128;
          }
          to {
            stroke: black;
            stroke-width: 1024;
          }
        }
        #make-me-a-hanzi-animation-3 {
          animation: keyframes3 0.6259765625s both;
          animation-delay: 2.1595052083333335s;
          animation-timing-function: linear;
        }
      
        @keyframes keyframes4 {
          from {
            stroke: blue;
            stroke-dashoffset: 365;
            stroke-width: 128;
          }
          54% {
            animation-timing-function: step-end;
            stroke: blue;
            stroke-dashoffset: 0;
            stroke-width: 128;
          }
          to {
            stroke: black;
            stroke-width: 1024;
          }
        }
        #make-me-a-hanzi-animation-4 {
          animation: keyframes4 0.5470377604166666s both;
          animation-delay: 2.7854817708333335s;
          animation-timing-function: linear;
        }
      
        @keyframes keyframes5 {
          from {
            stroke: blue;
            stroke-dashoffset: 483;
            stroke-width: 128;
          }
          61% {
            animation-timing-function: step-end;
            stroke: blue;
            stroke-dashoffset: 0;
            stroke-width: 128;
          }
          to {
            stroke: black;
            stroke-width: 1024;
          }
        }
        #make-me-a-hanzi-animation-5 {
          animation: keyframes5 0.64306640625s both;
          animation-delay: 3.33251953125s;
          animation-timing-function: linear;
        }
      
        @keyframes keyframes6 {
          from {
            stroke: blue;
            stroke-dashoffset: 504;
            stroke-width: 128;
          }
          62% {
            animation-timing-function: step-end;
            stroke: blue;
            stroke-dashoffset: 0;
            stroke-width: 128;
          }
          to {
            stroke: black;
            stroke-width: 1024;
          }
        }
        #make-me-a-hanzi-animation-6 {
          animation: keyframes6 0.66015625s both;
          animation-delay: 3.9755859375s;
          animation-timing-function: linear;
        }
      
        @keyframes keyframes7 {
          from {
            stroke: blue;
            stroke-dashoffset: 633;
            stroke-width: 128;
          }
          67% {
            animation-timing-function: step-end;
            stroke: blue;
            stroke-dashoffset: 0;
            stroke-width: 128;
          }
          to {
            stroke: black;
            stroke-width: 1024;
          }
        }
        #make-me-a-hanzi-animation-7 {
          animation: keyframes7 0.76513671875s both;
          animation-delay: 4.6357421875s;
          animation-timing-function: linear;
        }
      
        @keyframes keyframes8 {
          from {
            stroke: blue;
            stroke-dashoffset: 1198;
            stroke-width: 128;
          }
          80% {
            animation-timing-function: step-end;
            stroke: blue;
            stroke-dashoffset: 0;
            stroke-width: 128;
          }
          to {
            stroke: black;
            stroke-width: 1024;
          }
        }
        #make-me-a-hanzi-animation-8 {
          animation: keyframes8 1.2249348958333333s both;
          animation-delay: 5.40087890625s;
          animation-timing-function: linear;
        }
      
        @keyframes keyframes9 {
          from {
            stroke: blue;
            stroke-dashoffset: 1297;
            stroke-width: 128;
          }
          81% {
            animation-timing-function: step-end;
            stroke: blue;
            stroke-dashoffset: 0;
            stroke-width: 128;
          }
          to {
            stroke: black;
            stroke-width: 1024;
          }
        }
        #make-me-a-hanzi-animation-9 {
          animation: keyframes9 1.3055013020833333s both;
          animation-delay: 6.625813802083333s;
          animation-timing-function: linear;
        }
      
        @keyframes keyframes10 {
          from {
            stroke: blue;
            stroke-dashoffset: 514;
            stroke-width: 128;
          }
          63% {
            animation-timing-function: step-end;
            stroke: blue;
            stroke-dashoffset: 0;
            stroke-width: 128;
          }
          to {
            stroke: black;
            stroke-width: 1024;
          }
        }
        #make-me-a-hanzi-animation-10 {
          animation: keyframes10 0.6682942708333334s both;
          animation-delay: 7.931315104166666s;
          animation-timing-function: linear;
        }
      
    </style>
    
      <path d="M 388 617 Q 419 627 455 635 Q 488 644 492 649 Q 501 656 496 665 Q 489 675 460 681 Q 427 685 393 669 L 341 651 Q 332 650 326 647 Q 283 635 231 628 Q 197 621 222 606 Q 267 585 320 601 Q 327 604 342 606 L 388 617 Z" fill="lightgray"></path>
    
      <path d="M 381 537 Q 384 577 388 617 L 393 669 Q 393 729 412 789 Q 415 799 396 813 Q 363 832 341 836 Q 325 839 318 831 Q 311 824 318 810 Q 336 785 337 768 Q 340 713 341 651 L 342 606 Q 342 569 341 526 C 340 496 379 507 381 537 Z" fill="lightgray"></path>
    
      <path d="M 341 526 Q 188 489 119 479 Q 107 478 105 470 Q 102 460 116 451 Q 152 429 189 441 Q 331 495 487 522 Q 502 523 502 531 Q 503 543 486 550 Q 461 560 441 554 Q 408 545 381 537 L 341 526 Z" fill="lightgray"></path>
    
      <path d="M 215 431 Q 221 380 130 282 Q 127 281 125 277 Q 118 273 126 271 Q 177 271 267 389 Q 271 393 274 396 Q 280 400 278 408 Q 277 415 268 424 Q 246 446 220 442 Q 213 441 215 431 Z" fill="lightgray"></path>
    
      <path d="M 392 425 Q 443 370 453 368 Q 460 368 466 377 Q 470 387 466 409 Q 463 425 441 439 Q 387 466 376 462 Q 372 461 372 450 Q 373 443 392 425 Z" fill="lightgray"></path>
    
      <path d="M 356 224 Q 446 248 447 248 Q 454 255 451 262 Q 444 272 419 278 Q 389 284 360 269 L 312 254 Q 308 254 305 253 Q 269 244 227 240 Q 196 234 218 220 Q 249 204 313 215 L 356 224 Z" fill="lightgray"></path>
    
      <path d="M 347 140 Q 351 183 356 224 L 360 269 Q 364 303 369 320 Q 376 348 363 359 L 361 361 Q 333 377 314 380 Q 301 383 294 376 Q 287 370 294 358 Q 309 339 309 324 Q 310 290 312 254 L 313 215 Q 313 175 312 132 C 311 102 344 110 347 140 Z" fill="lightgray"></path>
    
      <path d="M 312 132 Q 251 117 182 101 Q 163 97 129 98 Q 116 97 113 87 Q 110 74 119 66 Q 141 48 173 28 Q 183 25 195 33 Q 238 61 285 79 Q 358 104 429 132 Q 456 142 476 156 Q 489 163 490 172 Q 486 176 473 175 Q 413 159 347 140 L 312 132 Z" fill="lightgray"></path>
    
      <path d="M 630 282 Q 663 393 672 515 L 674 553 Q 674 560 675 565 Q 678 676 699 739 Q 705 749 696 758 Q 677 774 643 788 Q 621 798 605 792 Q 586 785 601 767 Q 629 739 629 708 Q 629 614 623 535 L 619 499 Q 606 382 587 311 L 576 270 Q 525 138 444 55 Q 408 22 359 -19 Q 347 -26 345 -30 Q 341 -37 357 -36 Q 370 -36 422 -6 Q 459 15 514 68 Q 574 126 613 229 L 630 282 Z" fill="lightgray"></path>
    
      <path d="M 672 515 Q 699 525 728 533 Q 741 537 751 528 Q 758 518 757 500 Q 718 97 852 -6 Q 865 -16 882 -26 Q 919 -48 939 -38 Q 952 -34 949 -12 Q 948 75 959 164 Q 960 177 957 184 Q 951 194 945 176 Q 918 113 900 85 Q 878 49 853 79 Q 765 155 804 435 Q 808 477 848 521 Q 863 536 845 549 Q 832 564 776 589 Q 757 599 736 583 Q 718 570 687 558 Q 680 557 674 553 L 623 535 Q 565 519 505 504 Q 490 500 498 491 Q 531 470 578 488 Q 594 494 619 499 L 672 515 Z" fill="lightgray"></path>
    
      <path d="M 613 229 Q 682 153 691 148 Q 698 147 705 154 Q 715 164 707 200 Q 698 236 630 282 L 587 311 Q 547 338 523 351 Q 516 355 514 346 Q 513 336 521 326 Q 546 301 576 270 L 613 229 Z" fill="lightgray"></path>
    
    
      <clipPath id="make-me-a-hanzi-clip-0">
        <path d="M 388 617 Q 419 627 455 635 Q 488 644 492 649 Q 501 656 496 665 Q 489 675 460 681 Q 427 685 393 669 L 341 651 Q 332 650 326 647 Q 283 635 231 628 Q 197 621 222 606 Q 267 585 320 601 Q 327 604 342 606 L 388 617 Z"></path>
      </clipPath>
      <path clip-path="url(#make-me-a-hanzi-clip-0)" d="M 224 618 L 282 615 L 420 653 L 486 659" fill="none" id="make-me-a-hanzi-animation-0" stroke-dasharray="395 790" stroke-linecap="round"></path>
    
      <clipPath id="make-me-a-hanzi-clip-1">
        <path d="M 381 537 Q 384 577 388 617 L 393 669 Q 393 729 412 789 Q 415 799 396 813 Q 363 832 341 836 Q 325 839 318 831 Q 311 824 318 810 Q 336 785 337 768 Q 340 713 341 651 L 342 606 Q 342 569 341 526 C 340 496 379 507 381 537 Z"></path>
      </clipPath>
      <path clip-path="url(#make-me-a-hanzi-clip-1)" d="M 330 821 L 360 798 L 372 775 L 362 553 L 346 533" fill="none" id="make-me-a-hanzi-animation-1" stroke-dasharray="440 880" stroke-linecap="round"></path>
    
      <clipPath id="make-me-a-hanzi-clip-2">
        <path d="M 341 526 Q 188 489 119 479 Q 107 478 105 470 Q 102 460 116 451 Q 152 429 189 441 Q 331 495 487 522 Q 502 523 502 531 Q 503 543 486 550 Q 461 560 441 554 Q 408 545 381 537 L 341 526 Z"></path>
      </clipPath>
      <path clip-path="url(#make-me-a-hanzi-clip-2)" d="M 116 467 L 166 461 L 438 534 L 491 533" fill="none" id="make-me-a-hanzi-animation-2" stroke-dasharray="513 1026" stroke-linecap="round"></path>
    
      <clipPath id="make-me-a-hanzi-clip-3">
        <path d="M 215 431 Q 221 380 130 282 Q 127 281 125 277 Q 118 273 126 271 Q 177 271 267 389 Q 271 393 274 396 Q 280 400 278 408 Q 277 415 268 424 Q 246 446 220 442 Q 213 441 215 431 Z"></path>
      </clipPath>
      <path clip-path="url(#make-me-a-hanzi-clip-3)" d="M 227 432 L 243 407 L 228 376 L 172 307 L 130 275" fill="none" id="make-me-a-hanzi-animation-3" stroke-dasharray="334 668" stroke-linecap="round"></path>
    
      <clipPath id="make-me-a-hanzi-clip-4">
        <path d="M 392 425 Q 443 370 453 368 Q 460 368 466 377 Q 470 387 466 409 Q 463 425 441 439 Q 387 466 376 462 Q 372 461 372 450 Q 373 443 392 425 Z"></path>
      </clipPath>
      <path clip-path="url(#make-me-a-hanzi-clip-4)" d="M 380 454 L 440 410 L 455 379" fill="none" id="make-me-a-hanzi-animation-4" stroke-dasharray="237 474" stroke-linecap="round"></path>
    
      <clipPath id="make-me-a-hanzi-clip-5">
        <path d="M 356 224 Q 446 248 447 248 Q 454 255 451 262 Q 444 272 419 278 Q 389 284 360 269 L 312 254 Q 308 254 305 253 Q 269 244 227 240 Q 196 234 218 220 Q 249 204 313 215 L 356 224 Z"></path>
      </clipPath>
      <path clip-path="url(#make-me-a-hanzi-clip-5)" d="M 220 231 L 282 228 L 398 258 L 443 257" fill="none" id="make-me-a-hanzi-animation-5" stroke-dasharray="355 710" stroke-linecap="round"></path>
    
      <clipPath id="make-me-a-hanzi-clip-6">
        <path d="M 347 140 Q 351 183 356 224 L 360 269 Q 364 303 369 320 Q 376 348 363 359 L 361 361 Q 333 377 314 380 Q 301 383 294 376 Q 287 370 294 358 Q 309 339 309 324 Q 310 290 312 254 L 313 215 Q 313 175 312 132 C 311 102 344 110 347 140 Z"></path>
      </clipPath>
      <path clip-path="url(#make-me-a-hanzi-clip-6)" d="M 304 367 L 323 355 L 340 333 L 331 163 L 317 139" fill="none" id="make-me-a-hanzi-animation-6" stroke-dasharray="376 752" stroke-linecap="round"></path>
    
      <clipPath id="make-me-a-hanzi-clip-7">
        <path d="M 312 132 Q 251 117 182 101 Q 163 97 129 98 Q 116 97 113 87 Q 110 74 119 66 Q 141 48 173 28 Q 183 25 195 33 Q 238 61 285 79 Q 358 104 429 132 Q 456 142 476 156 Q 489 163 490 172 Q 486 176 473 175 Q 413 159 347 140 L 312 132 Z"></path>
      </clipPath>
      <path clip-path="url(#make-me-a-hanzi-clip-7)" d="M 128 82 L 180 65 L 485 169" fill="none" id="make-me-a-hanzi-animation-7" stroke-dasharray="505 1010" stroke-linecap="round"></path>
    
      <clipPath id="make-me-a-hanzi-clip-8">
        <path d="M 630 282 Q 663 393 672 515 L 674 553 Q 674 560 675 565 Q 678 676 699 739 Q 705 749 696 758 Q 677 774 643 788 Q 621 798 605 792 Q 586 785 601 767 Q 629 739 629 708 Q 629 614 623 535 L 619 499 Q 606 382 587 311 L 576 270 Q 525 138 444 55 Q 408 22 359 -19 Q 347 -26 345 -30 Q 341 -37 357 -36 Q 370 -36 422 -6 Q 459 15 514 68 Q 574 126 613 229 L 630 282 Z"></path>
      </clipPath>
      <path clip-path="url(#make-me-a-hanzi-clip-8)" d="M 607 779 L 641 761 L 661 730 L 639 446 L 624 355 L 601 269 L 559 170 L 512 99 L 447 32 L 406 -1 L 352 -32" fill="none" id="make-me-a-hanzi-animation-8" stroke-dasharray="1070 2140" stroke-linecap="round"></path>
    
      <clipPath id="make-me-a-hanzi-clip-9">
        <path d="M 672 515 Q 699 525 728 533 Q 741 537 751 528 Q 758 518 757 500 Q 718 97 852 -6 Q 865 -16 882 -26 Q 919 -48 939 -38 Q 952 -34 949 -12 Q 948 75 959 164 Q 960 177 957 184 Q 951 194 945 176 Q 918 113 900 85 Q 878 49 853 79 Q 765 155 804 435 Q 808 477 848 521 Q 863 536 845 549 Q 832 564 776 589 Q 757 599 736 583 Q 718 570 687 558 Q 680 557 674 553 L 623 535 Q 565 519 505 504 Q 490 500 498 491 Q 531 470 578 488 Q 594 494 619 499 L 672 515 Z"></path>
      </clipPath>
      <path clip-path="url(#make-me-a-hanzi-clip-9)" d="M 507 495 L 565 501 L 745 559 L 773 555 L 798 528 L 780 461 L 773 395 L 771 274 L 781 176 L 791 134 L 811 88 L 857 35 L 892 22 L 903 25 L 924 70 L 952 178" fill="none" id="make-me-a-hanzi-animation-9" stroke-dasharray="1169 2338" stroke-linecap="round"></path>
    
      <clipPath id="make-me-a-hanzi-clip-10">
        <path d="M 613 229 Q 682 153 691 148 Q 698 147 705 154 Q 715 164 707 200 Q 698 236 630 282 L 587 311 Q 547 338 523 351 Q 516 355 514 346 Q 513 336 521 326 Q 546 301 576 270 L 613 229 Z"></path>
      </clipPath>
      <path clip-path="url(#make-me-a-hanzi-clip-10)" d="M 522 342 L 666 215 L 692 172 L 695 157" fill="none" id="make-me-a-hanzi-animation-10" stroke-dasharray="386 772" stroke-linecap="round"></path>
    
  </g>
</svg>