<svg version="1.1" viewBox="0 0 1024 1024" xmlns="http://www.w3.org/2000/svg">
  <g stroke="lightgray" stroke-dasharray="1,1" stroke-width="1" transform="scale(4, 4)">
    <line x1="0" y1="0" x2="256" y2="256"></line>
    <line x1="256" y1="0" x2="0" y2="256"></line>
    <line x1="128" y1="0" x2="128" y2="256"></line>
    <line x1="0" y1="128" x2="256" y2="128"></line>
  </g>
  <g transform="scale(1, -1) translate(0, -900)">
    <style type="text/css">
      
        @keyframes keyframes0 {
          from {
            stroke: blue;
            stroke-dashoffset: 524;
            stroke-width: 128;
          }
          63% {
            animation-timing-function: step-end;
            stroke: blue;
            stroke-dashoffset: 0;
            stroke-width: 128;
          }
          to {
            stroke: black;
            stroke-width: 1024;
          }
        }
        #make-me-a-hanzi-animation-0 {
          animation: keyframes0 0.6764322916666666s both;
          animation-delay: 0s;
          animation-timing-function: linear;
        }
      
        @keyframes keyframes1 {
          from {
            stroke: blue;
            stroke-dashoffset: 709;
            stroke-width: 128;
          }
          70% {
            animation-timing-function: step-end;
            stroke: blue;
            stroke-dashoffset: 0;
            stroke-width: 128;
          }
          to {
            stroke: black;
            stroke-width: 1024;
          }
        }
        #make-me-a-hanzi-animation-1 {
          animation: keyframes1 0.8269856770833334s both;
          animation-delay: 0.6764322916666666s;
          animation-timing-function: linear;
        }
      
        @keyframes keyframes2 {
          from {
            stroke: blue;
            stroke-dashoffset: 610;
            stroke-width: 128;
          }
          67% {
            animation-timing-function: step-end;
            stroke: blue;
            stroke-dashoffset: 0;
            stroke-width: 128;
          }
          to {
            stroke: black;
            stroke-width: 1024;
          }
        }
        #make-me-a-hanzi-animation-2 {
          animation: keyframes2 0.7464192708333334s both;
          animation-delay: 1.50341796875s;
          animation-timing-function: linear;
        }
      
        @keyframes keyframes3 {
          from {
            stroke: blue;
            stroke-dashoffset: 467;
            stroke-width: 128;
          }
          60% {
            animation-timing-function: step-end;
            stroke: blue;
            stroke-dashoffset: 0;
            stroke-width: 128;
          }
          to {
            stroke: black;
            stroke-width: 1024;
          }
        }
        #make-me-a-hanzi-animation-3 {
          animation: keyframes3 0.6300455729166666s both;
          animation-delay: 2.2498372395833335s;
          animation-timing-function: linear;
        }
      
        @keyframes keyframes4 {
          from {
            stroke: blue;
            stroke-dashoffset: 664;
            stroke-width: 128;
          }
          68% {
            animation-timing-function: step-end;
            stroke: blue;
            stroke-dashoffset: 0;
            stroke-width: 128;
          }
          to {
            stroke: black;
            stroke-width: 1024;
          }
        }
        #make-me-a-hanzi-animation-4 {
          animation: keyframes4 0.7903645833333334s both;
          animation-delay: 2.8798828125s;
          animation-timing-function: linear;
        }
      
        @keyframes keyframes5 {
          from {
            stroke: blue;
            stroke-dashoffset: 624;
            stroke-width: 128;
          }
          67% {
            animation-timing-function: step-end;
            stroke: blue;
            stroke-dashoffset: 0;
            stroke-width: 128;
          }
          to {
            stroke: black;
            stroke-width: 1024;
          }
        }
        #make-me-a-hanzi-animation-5 {
          animation: keyframes5 0.7578125s both;
          animation-delay: 3.6702473958333335s;
          animation-timing-function: linear;
        }
      
        @keyframes keyframes6 {
          from {
            stroke: blue;
            stroke-dashoffset: 505;
            stroke-width: 128;
          }
          62% {
            animation-timing-function: step-end;
            stroke: blue;
            stroke-dashoffset: 0;
            stroke-width: 128;
          }
          to {
            stroke: black;
            stroke-width: 1024;
          }
        }
        #make-me-a-hanzi-animation-6 {
          animation: keyframes6 0.6609700520833334s both;
          animation-delay: 4.428059895833334s;
          animation-timing-function: linear;
        }
      
        @keyframes keyframes7 {
          from {
            stroke: blue;
            stroke-dashoffset: 505;
            stroke-width: 128;
          }
          62% {
            animation-timing-function: step-end;
            stroke: blue;
            stroke-dashoffset: 0;
            stroke-width: 128;
          }
          to {
            stroke: black;
            stroke-width: 1024;
          }
        }
        #make-me-a-hanzi-animation-7 {
          animation: keyframes7 0.6609700520833334s both;
          animation-delay: 5.089029947916667s;
          animation-timing-function: linear;
        }
      
        @keyframes keyframes8 {
          from {
            stroke: blue;
            stroke-dashoffset: 1128;
            stroke-width: 128;
          }
          79% {
            animation-timing-function: step-end;
            stroke: blue;
            stroke-dashoffset: 0;
            stroke-width: 128;
          }
          to {
            stroke: black;
            stroke-width: 1024;
          }
        }
        #make-me-a-hanzi-animation-8 {
          animation: keyframes8 1.16796875s both;
          animation-delay: 5.75s;
          animation-timing-function: linear;
        }
      
        @keyframes keyframes9 {
          from {
            stroke: blue;
            stroke-dashoffset: 435;
            stroke-width: 128;
          }
          59% {
            animation-timing-function: step-end;
            stroke: blue;
            stroke-dashoffset: 0;
            stroke-width: 128;
          }
          to {
            stroke: black;
            stroke-width: 1024;
          }
        }
        #make-me-a-hanzi-animation-9 {
          animation: keyframes9 0.60400390625s both;
          animation-delay: 6.91796875s;
          animation-timing-function: linear;
        }
      
        @keyframes keyframes10 {
          from {
            stroke: blue;
            stroke-dashoffset: 360;
            stroke-width: 128;
          }
          54% {
            animation-timing-function: step-end;
            stroke: blue;
            stroke-dashoffset: 0;
            stroke-width: 128;
          }
          to {
            stroke: black;
            stroke-width: 1024;
          }
        }
        #make-me-a-hanzi-animation-10 {
          animation: keyframes10 0.54296875s both;
          animation-delay: 7.52197265625s;
          animation-timing-function: linear;
        }
      
        @keyframes keyframes11 {
          from {
            stroke: blue;
            stroke-dashoffset: 346;
            stroke-width: 128;
          }
          53% {
            animation-timing-function: step-end;
            stroke: blue;
            stroke-dashoffset: 0;
            stroke-width: 128;
          }
          to {
            stroke: black;
            stroke-width: 1024;
          }
        }
        #make-me-a-hanzi-animation-11 {
          animation: keyframes11 0.5315755208333334s both;
          animation-delay: 8.06494140625s;
          animation-timing-function: linear;
        }
      
        @keyframes keyframes12 {
          from {
            stroke: blue;
            stroke-dashoffset: 366;
            stroke-width: 128;
          }
          54% {
            animation-timing-function: step-end;
            stroke: blue;
            stroke-dashoffset: 0;
            stroke-width: 128;
          }
          to {
            stroke: black;
            stroke-width: 1024;
          }
        }
        #make-me-a-hanzi-animation-12 {
          animation: keyframes12 0.5478515625s both;
          animation-delay: 8.596516927083334s;
          animation-timing-function: linear;
        }
      
    </style>
    
      <path d="M 305 512 Q 396 545 402 549 Q 409 558 404 565 Q 397 575 367 579 Q 337 580 310 566 Q 309 566 308 565 L 257 542 Q 245 539 237 535 Q 195 520 144 509 Q 110 499 137 486 Q 174 471 240 491 Q 247 494 257 496 L 305 512 Z" fill="lightgray"></path>
    
      <path d="M 299 368 Q 302 441 305 512 L 308 565 Q 311 686 329 745 Q 332 757 311 772 Q 274 791 249 795 Q 233 798 224 789 Q 217 782 225 766 Q 250 729 251 705 Q 255 627 257 542 L 257 496 Q 257 424 254 346 C 253 316 298 338 299 368 Z" fill="lightgray"></path>
    
      <path d="M 254 346 Q 193 318 129 286 Q 113 277 81 273 Q 68 269 68 258 Q 68 245 79 238 Q 106 225 142 212 Q 154 211 164 222 Q 188 249 349 359 Q 371 374 386 390 Q 398 400 397 409 Q 388 415 299 368 L 254 346 Z" fill="lightgray"></path>
    
      <path d="M 552 674 Q 580 702 599 723 Q 651 786 670 798 Q 688 813 673 827 Q 657 840 629 848 Q 604 855 592 851 Q 579 847 587 834 Q 596 813 549 716 Q 536 694 524 668 C 511 641 531 653 552 674 Z" fill="lightgray"></path>
    
      <path d="M 513 433 Q 513 469 512 505 L 512 535 Q 512 590 524 625 Q 525 631 526 636 C 529 651 529 651 508 664 Q 495 674 477 679 Q 459 685 451 675 Q 445 671 453 659 Q 483 565 468 355 Q 456 289 466 276 Q 467 275 470 272 Q 491 256 510 269 C 518 272 517 311 516 341 L 514 409 L 513 433 Z" fill="lightgray"></path>
    
      <path d="M 745 581 Q 770 632 799 653 Q 815 671 801 688 Q 785 701 735 726 Q 719 733 645 703 Q 599 690 552 674 L 524 668 Q 515 667 508 664 C 479 656 497 628 526 636 L 683 678 Q 702 685 710 677 Q 717 670 714 655 Q 704 615 690 582 C 679 554 731 554 745 581 Z" fill="lightgray"></path>
    
      <path d="M 512 505 Q 524 505 536 507 Q 606 528 758 551 Q 768 552 769 561 Q 769 568 745 581 C 725 593 719 591 690 582 Q 588 551 512 535 C 483 529 482 504 512 505 Z" fill="lightgray"></path>
    
      <path d="M 514 409 Q 548 397 632 415 Q 680 427 732 437 Q 763 446 768 450 Q 775 457 771 465 Q 764 475 737 482 Q 712 486 623 455 Q 523 436 515 434 Q 512 434 513 433 C 484 425 485 417 514 409 Z" fill="lightgray"></path>
    
      <path d="M 510 269 Q 555 299 691 318 Q 824 340 845 321 Q 857 311 845 267 Q 817 84 783 38 Q 773 25 748 27 Q 721 33 698 37 Q 682 41 683 35 Q 683 29 691 22 Q 737 -27 753 -59 Q 760 -80 779 -70 Q 846 -37 860 34 Q 884 130 902 237 Q 909 276 929 308 Q 942 324 930 337 Q 912 359 874 381 Q 852 394 824 381 Q 778 362 733 357 Q 672 350 547 326 Q 520 317 516 341 C 494 361 483 255 510 269 Z" fill="lightgray"></path>
    
      <path d="M 359 231 Q 335 173 302 119 Q 295 109 294 92 Q 293 67 301 53 Q 308 35 329 48 Q 380 87 385 173 Q 389 206 383 231 Q 377 240 372 240 Q 363 239 359 231 Z" fill="lightgray"></path>
    
      <path d="M 454 208 Q 460 145 475 120 Q 484 110 497 115 Q 507 119 513 133 Q 525 170 481 227 Q 472 239 464 241 Q 460 242 455 233 Q 451 226 454 208 Z" fill="lightgray"></path>
    
      <path d="M 568 227 Q 587 172 605 154 Q 615 147 625 154 Q 632 161 635 173 Q 638 191 630 204 Q 600 256 571 257 Q 567 258 564 249 Q 563 242 568 227 Z" fill="lightgray"></path>
    
      <path d="M 691 228 Q 709 203 727 173 Q 734 160 747 158 Q 754 157 761 165 Q 768 175 767 199 Q 767 217 745 235 Q 691 274 680 270 Q 676 269 674 258 Q 675 249 691 228 Z" fill="lightgray"></path>
    
    
      <clipPath id="make-me-a-hanzi-clip-0">
        <path d="M 305 512 Q 396 545 402 549 Q 409 558 404 565 Q 397 575 367 579 Q 337 580 310 566 Q 309 566 308 565 L 257 542 Q 245 539 237 535 Q 195 520 144 509 Q 110 499 137 486 Q 174 471 240 491 Q 247 494 257 496 L 305 512 Z"></path>
      </clipPath>
      <path clip-path="url(#make-me-a-hanzi-clip-0)" d="M 138 498 L 194 500 L 338 551 L 372 559 L 396 557" fill="none" id="make-me-a-hanzi-animation-0" stroke-dasharray="396 792" stroke-linecap="round"></path>
    
      <clipPath id="make-me-a-hanzi-clip-1">
        <path d="M 299 368 Q 302 441 305 512 L 308 565 Q 311 686 329 745 Q 332 757 311 772 Q 274 791 249 795 Q 233 798 224 789 Q 217 782 225 766 Q 250 729 251 705 Q 255 627 257 542 L 257 496 Q 257 424 254 346 C 253 316 298 338 299 368 Z"></path>
      </clipPath>
      <path clip-path="url(#make-me-a-hanzi-clip-1)" d="M 236 779 L 278 747 L 286 725 L 278 391 L 257 354" fill="none" id="make-me-a-hanzi-animation-1" stroke-dasharray="581 1162" stroke-linecap="round"></path>
    
      <clipPath id="make-me-a-hanzi-clip-2">
        <path d="M 254 346 Q 193 318 129 286 Q 113 277 81 273 Q 68 269 68 258 Q 68 245 79 238 Q 106 225 142 212 Q 154 211 164 222 Q 188 249 349 359 Q 371 374 386 390 Q 398 400 397 409 Q 388 415 299 368 L 254 346 Z"></path>
      </clipPath>
      <path clip-path="url(#make-me-a-hanzi-clip-2)" d="M 83 258 L 140 251 L 394 405" fill="none" id="make-me-a-hanzi-animation-2" stroke-dasharray="482 964" stroke-linecap="round"></path>
    
      <clipPath id="make-me-a-hanzi-clip-3">
        <path d="M 552 674 Q 580 702 599 723 Q 651 786 670 798 Q 688 813 673 827 Q 657 840 629 848 Q 604 855 592 851 Q 579 847 587 834 Q 596 813 549 716 Q 536 694 524 668 C 511 641 531 653 552 674 Z"></path>
      </clipPath>
      <path clip-path="url(#make-me-a-hanzi-clip-3)" d="M 593 841 L 617 822 L 623 806 L 566 711 L 530 673" fill="none" id="make-me-a-hanzi-animation-3" stroke-dasharray="339 678" stroke-linecap="round"></path>
    
      <clipPath id="make-me-a-hanzi-clip-4">
        <path d="M 513 433 Q 513 469 512 505 L 512 535 Q 512 590 524 625 Q 525 631 526 636 C 529 651 529 651 508 664 Q 495 674 477 679 Q 459 685 451 675 Q 445 671 453 659 Q 483 565 468 355 Q 456 289 466 276 Q 467 275 470 272 Q 491 256 510 269 C 518 272 517 311 516 341 L 514 409 L 513 433 Z"></path>
      </clipPath>
      <path clip-path="url(#make-me-a-hanzi-clip-4)" d="M 460 668 L 482 650 L 493 628 L 493 374 L 487 292 L 499 277" fill="none" id="make-me-a-hanzi-animation-4" stroke-dasharray="536 1072" stroke-linecap="round"></path>
    
      <clipPath id="make-me-a-hanzi-clip-5">
        <path d="M 745 581 Q 770 632 799 653 Q 815 671 801 688 Q 785 701 735 726 Q 719 733 645 703 Q 599 690 552 674 L 524 668 Q 515 667 508 664 C 479 656 497 628 526 636 L 683 678 Q 702 685 710 677 Q 717 670 714 655 Q 704 615 690 582 C 679 554 731 554 745 581 Z"></path>
      </clipPath>
      <path clip-path="url(#make-me-a-hanzi-clip-5)" d="M 513 661 L 534 655 L 558 659 L 702 703 L 732 697 L 756 669 L 728 609 L 697 587" fill="none" id="make-me-a-hanzi-animation-5" stroke-dasharray="496 992" stroke-linecap="round"></path>
    
      <clipPath id="make-me-a-hanzi-clip-6">
        <path d="M 512 505 Q 524 505 536 507 Q 606 528 758 551 Q 768 552 769 561 Q 769 568 745 581 C 725 593 719 591 690 582 Q 588 551 512 535 C 483 529 482 504 512 505 Z"></path>
      </clipPath>
      <path clip-path="url(#make-me-a-hanzi-clip-6)" d="M 518 513 L 535 524 L 697 562 L 759 561" fill="none" id="make-me-a-hanzi-animation-6" stroke-dasharray="377 754" stroke-linecap="round"></path>
    
      <clipPath id="make-me-a-hanzi-clip-7">
        <path d="M 514 409 Q 548 397 632 415 Q 680 427 732 437 Q 763 446 768 450 Q 775 457 771 465 Q 764 475 737 482 Q 712 486 623 455 Q 523 436 515 434 Q 512 434 513 433 C 484 425 485 417 514 409 Z"></path>
      </clipPath>
      <path clip-path="url(#make-me-a-hanzi-clip-7)" d="M 517 427 L 529 421 L 582 426 L 727 460 L 760 459" fill="none" id="make-me-a-hanzi-animation-7" stroke-dasharray="377 754" stroke-linecap="round"></path>
    
      <clipPath id="make-me-a-hanzi-clip-8">
        <path d="M 510 269 Q 555 299 691 318 Q 824 340 845 321 Q 857 311 845 267 Q 817 84 783 38 Q 773 25 748 27 Q 721 33 698 37 Q 682 41 683 35 Q 683 29 691 22 Q 737 -27 753 -59 Q 760 -80 779 -70 Q 846 -37 860 34 Q 884 130 902 237 Q 909 276 929 308 Q 942 324 930 337 Q 912 359 874 381 Q 852 394 824 381 Q 778 362 733 357 Q 672 350 547 326 Q 520 317 516 341 C 494 361 483 255 510 269 Z"></path>
      </clipPath>
      <path clip-path="url(#make-me-a-hanzi-clip-8)" d="M 511 276 L 532 303 L 666 332 L 841 356 L 864 349 L 884 330 L 890 321 L 853 139 L 814 14 L 781 -15 L 691 31" fill="none" id="make-me-a-hanzi-animation-8" stroke-dasharray="1000 2000" stroke-linecap="round"></path>
    
      <clipPath id="make-me-a-hanzi-clip-9">
        <path d="M 359 231 Q 335 173 302 119 Q 295 109 294 92 Q 293 67 301 53 Q 308 35 329 48 Q 380 87 385 173 Q 389 206 383 231 Q 377 240 372 240 Q 363 239 359 231 Z"></path>
      </clipPath>
      <path clip-path="url(#make-me-a-hanzi-clip-9)" d="M 371 228 L 354 150 L 316 58" fill="none" id="make-me-a-hanzi-animation-9" stroke-dasharray="307 614" stroke-linecap="round"></path>
    
      <clipPath id="make-me-a-hanzi-clip-10">
        <path d="M 454 208 Q 460 145 475 120 Q 484 110 497 115 Q 507 119 513 133 Q 525 170 481 227 Q 472 239 464 241 Q 460 242 455 233 Q 451 226 454 208 Z"></path>
      </clipPath>
      <path clip-path="url(#make-me-a-hanzi-clip-10)" d="M 464 232 L 486 167 L 489 132" fill="none" id="make-me-a-hanzi-animation-10" stroke-dasharray="232 464" stroke-linecap="round"></path>
    
      <clipPath id="make-me-a-hanzi-clip-11">
        <path d="M 568 227 Q 587 172 605 154 Q 615 147 625 154 Q 632 161 635 173 Q 638 191 630 204 Q 600 256 571 257 Q 567 258 564 249 Q 563 242 568 227 Z"></path>
      </clipPath>
      <path clip-path="url(#make-me-a-hanzi-clip-11)" d="M 575 247 L 611 187 L 615 167" fill="none" id="make-me-a-hanzi-animation-11" stroke-dasharray="218 436" stroke-linecap="round"></path>
    
      <clipPath id="make-me-a-hanzi-clip-12">
        <path d="M 691 228 Q 709 203 727 173 Q 734 160 747 158 Q 754 157 761 165 Q 768 175 767 199 Q 767 217 745 235 Q 691 274 680 270 Q 676 269 674 258 Q 675 249 691 228 Z"></path>
      </clipPath>
      <path clip-path="url(#make-me-a-hanzi-clip-12)" d="M 683 261 L 734 211 L 747 175" fill="none" id="make-me-a-hanzi-animation-12" stroke-dasharray="238 476" stroke-linecap="round"></path>
    
  </g>
</svg>