<svg version="1.1" viewBox="0 0 1024 1024" xmlns="http://www.w3.org/2000/svg">
  <g stroke="lightgray" stroke-dasharray="1,1" stroke-width="1" transform="scale(4, 4)">
    <line x1="0" y1="0" x2="256" y2="256"></line>
    <line x1="256" y1="0" x2="0" y2="256"></line>
    <line x1="128" y1="0" x2="128" y2="256"></line>
    <line x1="0" y1="128" x2="256" y2="128"></line>
  </g>
  <g transform="scale(1, -1) translate(0, -900)">
    <style type="text/css">
      
        @keyframes keyframes0 {
          from {
            stroke: blue;
            stroke-dashoffset: 550;
            stroke-width: 128;
          }
          64% {
            animation-timing-function: step-end;
            stroke: blue;
            stroke-dashoffset: 0;
            stroke-width: 128;
          }
          to {
            stroke: black;
            stroke-width: 1024;
          }
        }
        #make-me-a-hanzi-animation-0 {
          animation: keyframes0 0.6975911458333334s both;
          animation-delay: 0s;
          animation-timing-function: linear;
        }
      
        @keyframes keyframes1 {
          from {
            stroke: blue;
            stroke-dashoffset: 807;
            stroke-width: 128;
          }
          72% {
            animation-timing-function: step-end;
            stroke: blue;
            stroke-dashoffset: 0;
            stroke-width: 128;
          }
          to {
            stroke: black;
            stroke-width: 1024;
          }
        }
        #make-me-a-hanzi-animation-1 {
          animation: keyframes1 0.90673828125s both;
          animation-delay: 0.6975911458333334s;
          animation-timing-function: linear;
        }
      
        @keyframes keyframes2 {
          from {
            stroke: blue;
            stroke-dashoffset: 337;
            stroke-width: 128;
          }
          52% {
            animation-timing-function: step-end;
            stroke: blue;
            stroke-dashoffset: 0;
            stroke-width: 128;
          }
          to {
            stroke: black;
            stroke-width: 1024;
          }
        }
        #make-me-a-hanzi-animation-2 {
          animation: keyframes2 0.5242513020833334s both;
          animation-delay: 1.6043294270833335s;
          animation-timing-function: linear;
        }
      
        @keyframes keyframes3 {
          from {
            stroke: blue;
            stroke-dashoffset: 356;
            stroke-width: 128;
          }
          54% {
            animation-timing-function: step-end;
            stroke: blue;
            stroke-dashoffset: 0;
            stroke-width: 128;
          }
          to {
            stroke: black;
            stroke-width: 1024;
          }
        }
        #make-me-a-hanzi-animation-3 {
          animation: keyframes3 0.5397135416666666s both;
          animation-delay: 2.128580729166667s;
          animation-timing-function: linear;
        }
      
        @keyframes keyframes4 {
          from {
            stroke: blue;
            stroke-dashoffset: 462;
            stroke-width: 128;
          }
          60% {
            animation-timing-function: step-end;
            stroke: blue;
            stroke-dashoffset: 0;
            stroke-width: 128;
          }
          to {
            stroke: black;
            stroke-width: 1024;
          }
        }
        #make-me-a-hanzi-animation-4 {
          animation: keyframes4 0.6259765625s both;
          animation-delay: 2.6682942708333335s;
          animation-timing-function: linear;
        }
      
        @keyframes keyframes5 {
          from {
            stroke: blue;
            stroke-dashoffset: 958;
            stroke-width: 128;
          }
          76% {
            animation-timing-function: step-end;
            stroke: blue;
            stroke-dashoffset: 0;
            stroke-width: 128;
          }
          to {
            stroke: black;
            stroke-width: 1024;
          }
        }
        #make-me-a-hanzi-animation-5 {
          animation: keyframes5 1.0296223958333333s both;
          animation-delay: 3.2942708333333335s;
          animation-timing-function: linear;
        }
      
        @keyframes keyframes6 {
          from {
            stroke: blue;
            stroke-dashoffset: 554;
            stroke-width: 128;
          }
          64% {
            animation-timing-function: step-end;
            stroke: blue;
            stroke-dashoffset: 0;
            stroke-width: 128;
          }
          to {
            stroke: black;
            stroke-width: 1024;
          }
        }
        #make-me-a-hanzi-animation-6 {
          animation: keyframes6 0.7008463541666666s both;
          animation-delay: 4.323893229166667s;
          animation-timing-function: linear;
        }
      
        @keyframes keyframes7 {
          from {
            stroke: blue;
            stroke-dashoffset: 476;
            stroke-width: 128;
          }
          61% {
            animation-timing-function: step-end;
            stroke: blue;
            stroke-dashoffset: 0;
            stroke-width: 128;
          }
          to {
            stroke: black;
            stroke-width: 1024;
          }
        }
        #make-me-a-hanzi-animation-7 {
          animation: keyframes7 0.6373697916666666s both;
          animation-delay: 5.024739583333334s;
          animation-timing-function: linear;
        }
      
        @keyframes keyframes8 {
          from {
            stroke: blue;
            stroke-dashoffset: 817;
            stroke-width: 128;
          }
          73% {
            animation-timing-function: step-end;
            stroke: blue;
            stroke-dashoffset: 0;
            stroke-width: 128;
          }
          to {
            stroke: black;
            stroke-width: 1024;
          }
        }
        #make-me-a-hanzi-animation-8 {
          animation: keyframes8 0.9148763020833334s both;
          animation-delay: 5.662109375000001s;
          animation-timing-function: linear;
        }
      
        @keyframes keyframes9 {
          from {
            stroke: blue;
            stroke-dashoffset: 458;
            stroke-width: 128;
          }
          60% {
            animation-timing-function: step-end;
            stroke: blue;
            stroke-dashoffset: 0;
            stroke-width: 128;
          }
          to {
            stroke: black;
            stroke-width: 1024;
          }
        }
        #make-me-a-hanzi-animation-9 {
          animation: keyframes9 0.6227213541666666s both;
          animation-delay: 6.576985677083334s;
          animation-timing-function: linear;
        }
      
        @keyframes keyframes10 {
          from {
            stroke: blue;
            stroke-dashoffset: 494;
            stroke-width: 128;
          }
          62% {
            animation-timing-function: step-end;
            stroke: blue;
            stroke-dashoffset: 0;
            stroke-width: 128;
          }
          to {
            stroke: black;
            stroke-width: 1024;
          }
        }
        #make-me-a-hanzi-animation-10 {
          animation: keyframes10 0.6520182291666666s both;
          animation-delay: 7.199707031250001s;
          animation-timing-function: linear;
        }
      
        @keyframes keyframes11 {
          from {
            stroke: blue;
            stroke-dashoffset: 488;
            stroke-width: 128;
          }
          61% {
            animation-timing-function: step-end;
            stroke: blue;
            stroke-dashoffset: 0;
            stroke-width: 128;
          }
          to {
            stroke: black;
            stroke-width: 1024;
          }
        }
        #make-me-a-hanzi-animation-11 {
          animation: keyframes11 0.6471354166666666s both;
          animation-delay: 7.851725260416668s;
          animation-timing-function: linear;
        }
      
        @keyframes keyframes12 {
          from {
            stroke: blue;
            stroke-dashoffset: 495;
            stroke-width: 128;
          }
          62% {
            animation-timing-function: step-end;
            stroke: blue;
            stroke-dashoffset: 0;
            stroke-width: 128;
          }
          to {
            stroke: black;
            stroke-width: 1024;
          }
        }
        #make-me-a-hanzi-animation-12 {
          animation: keyframes12 0.65283203125s both;
          animation-delay: 8.498860677083334s;
          animation-timing-function: linear;
        }
      
        @keyframes keyframes13 {
          from {
            stroke: blue;
            stroke-dashoffset: 470;
            stroke-width: 128;
          }
          60% {
            animation-timing-function: step-end;
            stroke: blue;
            stroke-dashoffset: 0;
            stroke-width: 128;
          }
          to {
            stroke: black;
            stroke-width: 1024;
          }
        }
        #make-me-a-hanzi-animation-13 {
          animation: keyframes13 0.6324869791666666s both;
          animation-delay: 9.151692708333334s;
          animation-timing-function: linear;
        }
      
    </style>
    
      <path d="M 486 782 Q 490 786 496 787 Q 506 791 507 801 Q 508 811 497 835 Q 485 856 473 862 Q 460 866 458 849 Q 458 798 258 698 Q 248 695 244 691 Q 238 685 249 682 Q 273 679 354 713 Q 357 714 363 716 L 385 726 Q 410 741 446 760 L 486 782 Z" fill="lightgray"></path>
    
      <path d="M 484 627 Q 574 679 621 713 Q 643 732 676 749 Q 689 755 687 764 Q 687 771 641 802 Q 628 814 578 796 Q 568 795 486 782 C 456 777 417 768 446 760 Q 464 748 570 762 Q 579 762 581 758 Q 582 755 575 747 Q 497 663 299 579 Q 284 572 296 568 Q 336 562 440 606 Q 444 607 450 610 L 484 627 Z" fill="lightgray"></path>
    
      <path d="M 363 716 Q 367 710 379 701 Q 398 685 419 664 Q 426 657 436 657 Q 443 657 446 665 Q 449 672 444 691 Q 437 715 385 726 C 356 732 349 734 363 716 Z" fill="lightgray"></path>
    
      <path d="M 450 610 Q 456 600 482 583 Q 498 570 514 554 Q 527 544 543 546 Q 553 547 557 560 Q 560 575 549 602 Q 537 623 484 627 C 454 630 435 631 450 610 Z" fill="lightgray"></path>
    
      <path d="M 252 499 Q 240 524 229 531 Q 210 546 208 519 Q 214 480 151 409 Q 130 382 159 327 Q 175 299 195 328 Q 213 355 225 393 Q 238 436 250 463 C 259 485 259 485 252 499 Z" fill="lightgray"></path>
    
      <path d="M 250 463 Q 265 457 322 468 Q 485 513 718 526 Q 745 527 757 525 Q 775 512 772 503 Q 773 499 768 485 Q 738 415 745 409 Q 752 405 769 418 Q 823 458 867 473 Q 904 486 903 495 Q 902 505 828 557 Q 804 573 718 558 Q 513 536 358 512 Q 304 505 252 499 C 222 496 220 466 250 463 Z" fill="lightgray"></path>
    
      <path d="M 515 414 Q 542 420 639 428 Q 649 427 656 438 Q 657 448 639 457 Q 611 478 536 456 Q 521 455 509 451 Q 463 442 419 438 Q 389 437 356 432 Q 331 431 350 415 Q 369 400 406 398 Q 433 404 468 407 L 515 414 Z" fill="lightgray"></path>
    
      <path d="M 322 341 Q 292 345 289 341 Q 283 334 292 319 Q 320 268 342 184 Q 346 159 363 143 Q 382 121 387 138 Q 387 139 387 140 L 389 163 Q 388 176 385 193 Q 366 278 362 306 C 357 336 352 337 322 341 Z" fill="lightgray"></path>
    
      <path d="M 624 163 Q 624 159 626 155 Q 632 140 644 141 Q 657 142 664 157 Q 674 167 694 226 Q 710 277 746 306 Q 765 321 749 336 Q 731 352 683 379 Q 670 386 594 374 Q 572 374 531 366 L 477 359 Q 450 358 426 352 Q 360 343 322 341 C 292 339 333 299 362 306 Q 405 318 478 327 L 530 333 Q 633 346 650 335 Q 657 331 654 304 Q 638 214 629 191 L 624 163 Z" fill="lightgray"></path>
    
      <path d="M 527 242 Q 564 248 599 251 Q 620 254 613 265 Q 603 278 581 283 Q 562 287 528 279 L 480 268 Q 438 259 403 251 Q 388 248 406 234 Q 415 227 434 230 Q 456 234 481 236 L 527 242 Z" fill="lightgray"></path>
    
      <path d="M 531 366 Q 532 370 532 375 Q 539 393 530 402 Q 523 409 515 414 C 490 431 461 436 468 407 Q 469 406 477 359 L 478 327 Q 478 305 480 268 L 481 236 Q 481 211 482 178 C 483 148 524 156 525 186 Q 526 216 527 242 L 528 279 Q 528 307 530 333 L 531 366 Z" fill="lightgray"></path>
    
      <path d="M 387 140 Q 400 139 415 140 Q 535 156 624 163 C 654 165 656 177 629 191 Q 623 195 616 196 Q 586 202 525 186 L 482 178 Q 433 172 389 163 C 360 157 357 142 387 140 Z" fill="lightgray"></path>
    
      <path d="M 362 98 Q 344 47 211 -40 Q 186 -52 216 -53 Q 285 -57 389 20 Q 419 41 432 50 Q 445 60 444 71 Q 443 86 417 98 Q 389 114 375 112 Q 368 112 362 98 Z" fill="lightgray"></path>
    
      <path d="M 580 80 Q 635 35 702 -31 Q 720 -52 736 -55 Q 746 -56 753 -45 Q 766 -30 749 15 Q 737 55 664 85 Q 640 97 579 113 Q 569 119 568 105 Q 568 90 580 80 Z" fill="lightgray"></path>
    
    
      <clipPath id="make-me-a-hanzi-clip-0">
        <path d="M 486 782 Q 490 786 496 787 Q 506 791 507 801 Q 508 811 497 835 Q 485 856 473 862 Q 460 866 458 849 Q 458 798 258 698 Q 248 695 244 691 Q 238 685 249 682 Q 273 679 354 713 Q 357 714 363 716 L 385 726 Q 410 741 446 760 L 486 782 Z"></path>
      </clipPath>
      <path clip-path="url(#make-me-a-hanzi-clip-0)" d="M 469 851 L 476 818 L 462 799 L 338 721 L 253 690" fill="none" id="make-me-a-hanzi-animation-0" stroke-dasharray="422 844" stroke-linecap="round"></path>
    
      <clipPath id="make-me-a-hanzi-clip-1">
        <path d="M 484 627 Q 574 679 621 713 Q 643 732 676 749 Q 689 755 687 764 Q 687 771 641 802 Q 628 814 578 796 Q 568 795 486 782 C 456 777 417 768 446 760 Q 464 748 570 762 Q 579 762 581 758 Q 582 755 575 747 Q 497 663 299 579 Q 284 572 296 568 Q 336 562 440 606 Q 444 607 450 610 L 484 627 Z"></path>
      </clipPath>
      <path clip-path="url(#make-me-a-hanzi-clip-1)" d="M 457 761 L 500 772 L 512 769 L 570 779 L 596 778 L 622 765 L 590 724 L 483 648 L 424 617 L 301 573" fill="none" id="make-me-a-hanzi-animation-1" stroke-dasharray="679 1358" stroke-linecap="round"></path>
    
      <clipPath id="make-me-a-hanzi-clip-2">
        <path d="M 363 716 Q 367 710 379 701 Q 398 685 419 664 Q 426 657 436 657 Q 443 657 446 665 Q 449 672 444 691 Q 437 715 385 726 C 356 732 349 734 363 716 Z"></path>
      </clipPath>
      <path clip-path="url(#make-me-a-hanzi-clip-2)" d="M 370 716 L 406 702 L 434 670" fill="none" id="make-me-a-hanzi-animation-2" stroke-dasharray="209 418" stroke-linecap="round"></path>
    
      <clipPath id="make-me-a-hanzi-clip-3">
        <path d="M 450 610 Q 456 600 482 583 Q 498 570 514 554 Q 527 544 543 546 Q 553 547 557 560 Q 560 575 549 602 Q 537 623 484 627 C 454 630 435 631 450 610 Z"></path>
      </clipPath>
      <path clip-path="url(#make-me-a-hanzi-clip-3)" d="M 457 610 L 506 598 L 522 588 L 540 563" fill="none" id="make-me-a-hanzi-animation-3" stroke-dasharray="228 456" stroke-linecap="round"></path>
    
      <clipPath id="make-me-a-hanzi-clip-4">
        <path d="M 252 499 Q 240 524 229 531 Q 210 546 208 519 Q 214 480 151 409 Q 130 382 159 327 Q 175 299 195 328 Q 213 355 225 393 Q 238 436 250 463 C 259 485 259 485 252 499 Z"></path>
      </clipPath>
      <path clip-path="url(#make-me-a-hanzi-clip-4)" d="M 219 524 L 227 509 L 227 482 L 180 381 L 176 331" fill="none" id="make-me-a-hanzi-animation-4" stroke-dasharray="334 668" stroke-linecap="round"></path>
    
      <clipPath id="make-me-a-hanzi-clip-5">
        <path d="M 250 463 Q 265 457 322 468 Q 485 513 718 526 Q 745 527 757 525 Q 775 512 772 503 Q 773 499 768 485 Q 738 415 745 409 Q 752 405 769 418 Q 823 458 867 473 Q 904 486 903 495 Q 902 505 828 557 Q 804 573 718 558 Q 513 536 358 512 Q 304 505 252 499 C 222 496 220 466 250 463 Z"></path>
      </clipPath>
      <path clip-path="url(#make-me-a-hanzi-clip-5)" d="M 255 469 L 271 481 L 481 517 L 732 545 L 773 543 L 807 524 L 818 502 L 750 413" fill="none" id="make-me-a-hanzi-animation-5" stroke-dasharray="830 1660" stroke-linecap="round"></path>
    
      <clipPath id="make-me-a-hanzi-clip-6">
        <path d="M 515 414 Q 542 420 639 428 Q 649 427 656 438 Q 657 448 639 457 Q 611 478 536 456 Q 521 455 509 451 Q 463 442 419 438 Q 389 437 356 432 Q 331 431 350 415 Q 369 400 406 398 Q 433 404 468 407 L 515 414 Z"></path>
      </clipPath>
      <path clip-path="url(#make-me-a-hanzi-clip-6)" d="M 351 424 L 409 418 L 570 444 L 619 446 L 646 440" fill="none" id="make-me-a-hanzi-animation-6" stroke-dasharray="426 852" stroke-linecap="round"></path>
    
      <clipPath id="make-me-a-hanzi-clip-7">
        <path d="M 322 341 Q 292 345 289 341 Q 283 334 292 319 Q 320 268 342 184 Q 346 159 363 143 Q 382 121 387 138 Q 387 139 387 140 L 389 163 Q 388 176 385 193 Q 366 278 362 306 C 357 336 352 337 322 341 Z"></path>
      </clipPath>
      <path clip-path="url(#make-me-a-hanzi-clip-7)" d="M 294 335 L 314 322 L 337 289 L 379 139" fill="none" id="make-me-a-hanzi-animation-7" stroke-dasharray="348 696" stroke-linecap="round"></path>
    
      <clipPath id="make-me-a-hanzi-clip-8">
        <path d="M 624 163 Q 624 159 626 155 Q 632 140 644 141 Q 657 142 664 157 Q 674 167 694 226 Q 710 277 746 306 Q 765 321 749 336 Q 731 352 683 379 Q 670 386 594 374 Q 572 374 531 366 L 477 359 Q 450 358 426 352 Q 360 343 322 341 C 292 339 333 299 362 306 Q 405 318 478 327 L 530 333 Q 633 346 650 335 Q 657 331 654 304 Q 638 214 629 191 L 624 163 Z"></path>
      </clipPath>
      <path clip-path="url(#make-me-a-hanzi-clip-8)" d="M 328 338 L 375 327 L 608 360 L 648 360 L 672 353 L 698 319 L 643 159" fill="none" id="make-me-a-hanzi-animation-8" stroke-dasharray="689 1378" stroke-linecap="round"></path>
    
      <clipPath id="make-me-a-hanzi-clip-9">
        <path d="M 527 242 Q 564 248 599 251 Q 620 254 613 265 Q 603 278 581 283 Q 562 287 528 279 L 480 268 Q 438 259 403 251 Q 388 248 406 234 Q 415 227 434 230 Q 456 234 481 236 L 527 242 Z"></path>
      </clipPath>
      <path clip-path="url(#make-me-a-hanzi-clip-9)" d="M 404 242 L 553 265 L 604 261" fill="none" id="make-me-a-hanzi-animation-9" stroke-dasharray="330 660" stroke-linecap="round"></path>
    
      <clipPath id="make-me-a-hanzi-clip-10">
        <path d="M 531 366 Q 532 370 532 375 Q 539 393 530 402 Q 523 409 515 414 C 490 431 461 436 468 407 Q 469 406 477 359 L 478 327 Q 478 305 480 268 L 481 236 Q 481 211 482 178 C 483 148 524 156 525 186 Q 526 216 527 242 L 528 279 Q 528 307 530 333 L 531 366 Z"></path>
      </clipPath>
      <path clip-path="url(#make-me-a-hanzi-clip-10)" d="M 476 407 L 503 382 L 504 209 L 488 186" fill="none" id="make-me-a-hanzi-animation-10" stroke-dasharray="366 732" stroke-linecap="round"></path>
    
      <clipPath id="make-me-a-hanzi-clip-11">
        <path d="M 387 140 Q 400 139 415 140 Q 535 156 624 163 C 654 165 656 177 629 191 Q 623 195 616 196 Q 586 202 525 186 L 482 178 Q 433 172 389 163 C 360 157 357 142 387 140 Z"></path>
      </clipPath>
      <path clip-path="url(#make-me-a-hanzi-clip-11)" d="M 394 145 L 401 153 L 573 178 L 608 180 L 617 172" fill="none" id="make-me-a-hanzi-animation-11" stroke-dasharray="360 720" stroke-linecap="round"></path>
    
      <clipPath id="make-me-a-hanzi-clip-12">
        <path d="M 362 98 Q 344 47 211 -40 Q 186 -52 216 -53 Q 285 -57 389 20 Q 419 41 432 50 Q 445 60 444 71 Q 443 86 417 98 Q 389 114 375 112 Q 368 112 362 98 Z"></path>
      </clipPath>
      <path clip-path="url(#make-me-a-hanzi-clip-12)" d="M 425 70 L 391 69 L 305 -4 L 255 -32 L 222 -43" fill="none" id="make-me-a-hanzi-animation-12" stroke-dasharray="367 734" stroke-linecap="round"></path>
    
      <clipPath id="make-me-a-hanzi-clip-13">
        <path d="M 580 80 Q 635 35 702 -31 Q 720 -52 736 -55 Q 746 -56 753 -45 Q 766 -30 749 15 Q 737 55 664 85 Q 640 97 579 113 Q 569 119 568 105 Q 568 90 580 80 Z"></path>
      </clipPath>
      <path clip-path="url(#make-me-a-hanzi-clip-13)" d="M 580 100 L 689 33 L 714 7 L 737 -37" fill="none" id="make-me-a-hanzi-animation-13" stroke-dasharray="342 684" stroke-linecap="round"></path>
    
  </g>
</svg>