<svg version="1.1" viewBox="0 0 1024 1024" xmlns="http://www.w3.org/2000/svg">
  <g stroke="lightgray" stroke-dasharray="1,1" stroke-width="1" transform="scale(4, 4)">
    <line x1="0" y1="0" x2="256" y2="256"></line>
    <line x1="256" y1="0" x2="0" y2="256"></line>
    <line x1="128" y1="0" x2="128" y2="256"></line>
    <line x1="0" y1="128" x2="256" y2="128"></line>
  </g>
  <g transform="scale(1, -1) translate(0, -900)">
    <style type="text/css">
      
        @keyframes keyframes0 {
          from {
            stroke: blue;
            stroke-dashoffset: 821;
            stroke-width: 128;
          }
          73% {
            animation-timing-function: step-end;
            stroke: blue;
            stroke-dashoffset: 0;
            stroke-width: 128;
          }
          to {
            stroke: black;
            stroke-width: 1024;
          }
        }
        #make-me-a-hanzi-animation-0 {
          animation: keyframes0 0.9181315104166666s both;
          animation-delay: 0s;
          animation-timing-function: linear;
        }
      
        @keyframes keyframes1 {
          from {
            stroke: blue;
            stroke-dashoffset: 943;
            stroke-width: 128;
          }
          75% {
            animation-timing-function: step-end;
            stroke: blue;
            stroke-dashoffset: 0;
            stroke-width: 128;
          }
          to {
            stroke: black;
            stroke-width: 1024;
          }
        }
        #make-me-a-hanzi-animation-1 {
          animation: keyframes1 1.0174153645833333s both;
          animation-delay: 0.9181315104166666s;
          animation-timing-function: linear;
        }
      
        @keyframes keyframes2 {
          from {
            stroke: blue;
            stroke-dashoffset: 796;
            stroke-width: 128;
          }
          72% {
            animation-timing-function: step-end;
            stroke: blue;
            stroke-dashoffset: 0;
            stroke-width: 128;
          }
          to {
            stroke: black;
            stroke-width: 1024;
          }
        }
        #make-me-a-hanzi-animation-2 {
          animation: keyframes2 0.8977864583333334s both;
          animation-delay: 1.935546875s;
          animation-timing-function: linear;
        }
      
        @keyframes keyframes3 {
          from {
            stroke: blue;
            stroke-dashoffset: 560;
            stroke-width: 128;
          }
          65% {
            animation-timing-function: step-end;
            stroke: blue;
            stroke-dashoffset: 0;
            stroke-width: 128;
          }
          to {
            stroke: black;
            stroke-width: 1024;
          }
        }
        #make-me-a-hanzi-animation-3 {
          animation: keyframes3 0.7057291666666666s both;
          animation-delay: 2.8333333333333335s;
          animation-timing-function: linear;
        }
      
        @keyframes keyframes4 {
          from {
            stroke: blue;
            stroke-dashoffset: 650;
            stroke-width: 128;
          }
          68% {
            animation-timing-function: step-end;
            stroke: blue;
            stroke-dashoffset: 0;
            stroke-width: 128;
          }
          to {
            stroke: black;
            stroke-width: 1024;
          }
        }
        #make-me-a-hanzi-animation-4 {
          animation: keyframes4 0.7789713541666666s both;
          animation-delay: 3.5390625s;
          animation-timing-function: linear;
        }
      
        @keyframes keyframes5 {
          from {
            stroke: blue;
            stroke-dashoffset: 577;
            stroke-width: 128;
          }
          65% {
            animation-timing-function: step-end;
            stroke: blue;
            stroke-dashoffset: 0;
            stroke-width: 128;
          }
          to {
            stroke: black;
            stroke-width: 1024;
          }
        }
        #make-me-a-hanzi-animation-5 {
          animation: keyframes5 0.7195638020833334s both;
          animation-delay: 4.318033854166667s;
          animation-timing-function: linear;
        }
      
        @keyframes keyframes6 {
          from {
            stroke: blue;
            stroke-dashoffset: 1145;
            stroke-width: 128;
          }
          79% {
            animation-timing-function: step-end;
            stroke: blue;
            stroke-dashoffset: 0;
            stroke-width: 128;
          }
          to {
            stroke: black;
            stroke-width: 1024;
          }
        }
        #make-me-a-hanzi-animation-6 {
          animation: keyframes6 1.1818033854166667s both;
          animation-delay: 5.03759765625s;
          animation-timing-function: linear;
        }
      
    </style>
    
      <path d="M 473 650 Q 503 656 541 659 L 577 662 Q 644 668 767 667 Q 786 668 792 676 Q 796 688 780 702 Q 726 739 690 731 Q 617 715 492 692 L 431 683 Q 335 670 228 654 Q 207 653 223 635 Q 250 610 308 620 Q 357 633 413 642 L 473 650 Z" fill="lightgray"></path>
    
      <path d="M 339 445 Q 408 515 473 650 L 492 692 Q 495 711 535 774 Q 544 784 538 794 Q 532 806 500 825 Q 478 838 468 837 Q 453 833 454 817 Q 457 751 431 683 L 413 642 Q 332 483 143 342 Q 121 326 96 307 Q 89 300 95 296 Q 102 292 115 297 Q 199 331 300 409 L 339 445 Z" fill="lightgray"></path>
    
      <path d="M 541 659 Q 542 655 548 649 Q 645 516 770 378 Q 791 356 824 357 Q 939 358 976 365 Q 986 368 988 373 Q 988 379 972 386 Q 794 449 740 502 Q 662 571 577 662 C 556 684 524 683 541 659 Z" fill="lightgray"></path>
    
      <path d="M 357 408 Q 390 402 452 408 Q 656 448 658 450 Q 667 457 662 465 Q 656 475 630 484 Q 606 490 502 459 Q 414 443 350 437 C 320 434 327 412 357 408 Z" fill="lightgray"></path>
    
      <path d="M 574 240 Q 595 271 616 311 Q 626 330 640 349 Q 647 356 644 366 Q 640 376 614 393 Q 596 405 587 404 Q 575 401 576 388 Q 576 337 535 264 L 511 231 Q 466 176 369 107 Q 362 101 367 98 Q 400 92 477 144 Q 517 168 545 202 L 574 240 Z" fill="lightgray"></path>
    
      <path d="M 545 202 Q 650 109 657 107 Q 663 106 669 114 Q 676 124 666 158 Q 653 194 574 240 L 535 264 Q 460 309 419 328 Q 412 332 410 322 Q 411 312 419 304 Q 462 271 511 231 L 545 202 Z" fill="lightgray"></path>
    
      <path d="M 350 437 Q 346 441 339 445 C 323 470 296 439 300 409 Q 316 315 284 82 Q 277 57 260 31 Q 242 7 271 -29 Q 271 -30 274 -33 Q 284 -42 301 -30 Q 419 48 764 36 Q 789 35 790 47 Q 790 63 761 84 Q 745 97 711 91 Q 614 76 536 70 Q 457 67 363 50 Q 347 46 341 52 Q 337 53 337 64 Q 346 193 352 356 Q 352 389 357 408 C 361 438 361 438 350 437 Z" fill="lightgray"></path>
    
    
      <clipPath id="make-me-a-hanzi-clip-0">
        <path d="M 473 650 Q 503 656 541 659 L 577 662 Q 644 668 767 667 Q 786 668 792 676 Q 796 688 780 702 Q 726 739 690 731 Q 617 715 492 692 L 431 683 Q 335 670 228 654 Q 207 653 223 635 Q 250 610 308 620 Q 357 633 413 642 L 473 650 Z"></path>
      </clipPath>
      <path clip-path="url(#make-me-a-hanzi-clip-0)" d="M 225 645 L 245 639 L 296 640 L 524 679 L 691 699 L 728 698 L 782 681" fill="none" id="make-me-a-hanzi-animation-0" stroke-dasharray="693 1386" stroke-linecap="round"></path>
    
      <clipPath id="make-me-a-hanzi-clip-1">
        <path d="M 339 445 Q 408 515 473 650 L 492 692 Q 495 711 535 774 Q 544 784 538 794 Q 532 806 500 825 Q 478 838 468 837 Q 453 833 454 817 Q 457 751 431 683 L 413 642 Q 332 483 143 342 Q 121 326 96 307 Q 89 300 95 296 Q 102 292 115 297 Q 199 331 300 409 L 339 445 Z"></path>
      </clipPath>
      <path clip-path="url(#make-me-a-hanzi-clip-1)" d="M 470 821 L 494 782 L 467 703 L 415 591 L 365 516 L 265 411 L 152 329 L 100 301" fill="none" id="make-me-a-hanzi-animation-1" stroke-dasharray="815 1630" stroke-linecap="round"></path>
    
      <clipPath id="make-me-a-hanzi-clip-2">
        <path d="M 541 659 Q 542 655 548 649 Q 645 516 770 378 Q 791 356 824 357 Q 939 358 976 365 Q 986 368 988 373 Q 988 379 972 386 Q 794 449 740 502 Q 662 571 577 662 C 556 684 524 683 541 659 Z"></path>
      </clipPath>
      <path clip-path="url(#make-me-a-hanzi-clip-2)" d="M 547 656 L 572 645 L 698 501 L 804 407 L 980 372" fill="none" id="make-me-a-hanzi-animation-2" stroke-dasharray="668 1336" stroke-linecap="round"></path>
    
      <clipPath id="make-me-a-hanzi-clip-3">
        <path d="M 357 408 Q 390 402 452 408 Q 656 448 658 450 Q 667 457 662 465 Q 656 475 630 484 Q 606 490 502 459 Q 414 443 350 437 C 320 434 327 412 357 408 Z"></path>
      </clipPath>
      <path clip-path="url(#make-me-a-hanzi-clip-3)" d="M 357 431 L 370 423 L 405 423 L 490 434 L 612 463 L 654 459" fill="none" id="make-me-a-hanzi-animation-3" stroke-dasharray="432 864" stroke-linecap="round"></path>
    
      <clipPath id="make-me-a-hanzi-clip-4">
        <path d="M 574 240 Q 595 271 616 311 Q 626 330 640 349 Q 647 356 644 366 Q 640 376 614 393 Q 596 405 587 404 Q 575 401 576 388 Q 576 337 535 264 L 511 231 Q 466 176 369 107 Q 362 101 367 98 Q 400 92 477 144 Q 517 168 545 202 L 574 240 Z"></path>
      </clipPath>
      <path clip-path="url(#make-me-a-hanzi-clip-4)" d="M 589 391 L 605 364 L 602 346 L 565 269 L 524 211 L 442 140 L 372 102" fill="none" id="make-me-a-hanzi-animation-4" stroke-dasharray="522 1044" stroke-linecap="round"></path>
    
      <clipPath id="make-me-a-hanzi-clip-5">
        <path d="M 545 202 Q 650 109 657 107 Q 663 106 669 114 Q 676 124 666 158 Q 653 194 574 240 L 535 264 Q 460 309 419 328 Q 412 332 410 322 Q 411 312 419 304 Q 462 271 511 231 L 545 202 Z"></path>
      </clipPath>
      <path clip-path="url(#make-me-a-hanzi-clip-5)" d="M 418 319 L 601 191 L 648 143 L 660 115" fill="none" id="make-me-a-hanzi-animation-5" stroke-dasharray="449 898" stroke-linecap="round"></path>
    
      <clipPath id="make-me-a-hanzi-clip-6">
        <path d="M 350 437 Q 346 441 339 445 C 323 470 296 439 300 409 Q 316 315 284 82 Q 277 57 260 31 Q 242 7 271 -29 Q 271 -30 274 -33 Q 284 -42 301 -30 Q 419 48 764 36 Q 789 35 790 47 Q 790 63 761 84 Q 745 97 711 91 Q 614 76 536 70 Q 457 67 363 50 Q 347 46 341 52 Q 337 53 337 64 Q 346 193 352 356 Q 352 389 357 408 C 361 438 361 438 350 437 Z"></path>
      </clipPath>
      <path clip-path="url(#make-me-a-hanzi-clip-6)" d="M 340 434 L 328 399 L 324 218 L 307 24 L 342 21 L 486 48 L 722 65 L 778 50" fill="none" id="make-me-a-hanzi-animation-6" stroke-dasharray="1017 2034" stroke-linecap="round"></path>
    
  </g>
</svg>