<svg version="1.1" viewBox="0 0 1024 1024" xmlns="http://www.w3.org/2000/svg">
  <g stroke="lightgray" stroke-dasharray="1,1" stroke-width="1" transform="scale(4, 4)">
    <line x1="0" y1="0" x2="256" y2="256"></line>
    <line x1="256" y1="0" x2="0" y2="256"></line>
    <line x1="128" y1="0" x2="128" y2="256"></line>
    <line x1="0" y1="128" x2="256" y2="128"></line>
  </g>
  <g transform="scale(1, -1) translate(0, -900)">
    <style type="text/css">
      
        @keyframes keyframes0 {
          from {
            stroke: blue;
            stroke-dashoffset: 784;
            stroke-width: 128;
          }
          72% {
            animation-timing-function: step-end;
            stroke: blue;
            stroke-dashoffset: 0;
            stroke-width: 128;
          }
          to {
            stroke: black;
            stroke-width: 1024;
          }
        }
        #make-me-a-hanzi-animation-0 {
          animation: keyframes0 0.8880208333333334s both;
          animation-delay: 0s;
          animation-timing-function: linear;
        }
      
        @keyframes keyframes1 {
          from {
            stroke: blue;
            stroke-dashoffset: 922;
            stroke-width: 128;
          }
          75% {
            animation-timing-function: step-end;
            stroke: blue;
            stroke-dashoffset: 0;
            stroke-width: 128;
          }
          to {
            stroke: black;
            stroke-width: 1024;
          }
        }
        #make-me-a-hanzi-animation-1 {
          animation: keyframes1 1.0003255208333333s both;
          animation-delay: 0.8880208333333334s;
          animation-timing-function: linear;
        }
      
        @keyframes keyframes2 {
          from {
            stroke: blue;
            stroke-dashoffset: 805;
            stroke-width: 128;
          }
          72% {
            animation-timing-function: step-end;
            stroke: blue;
            stroke-dashoffset: 0;
            stroke-width: 128;
          }
          to {
            stroke: black;
            stroke-width: 1024;
          }
        }
        #make-me-a-hanzi-animation-2 {
          animation: keyframes2 0.9051106770833334s both;
          animation-delay: 1.8883463541666665s;
          animation-timing-function: linear;
        }
      
        @keyframes keyframes3 {
          from {
            stroke: blue;
            stroke-dashoffset: 583;
            stroke-width: 128;
          }
          65% {
            animation-timing-function: step-end;
            stroke: blue;
            stroke-dashoffset: 0;
            stroke-width: 128;
          }
          to {
            stroke: black;
            stroke-width: 1024;
          }
        }
        #make-me-a-hanzi-animation-3 {
          animation: keyframes3 0.7244466145833334s both;
          animation-delay: 2.79345703125s;
          animation-timing-function: linear;
        }
      
        @keyframes keyframes4 {
          from {
            stroke: blue;
            stroke-dashoffset: 829;
            stroke-width: 128;
          }
          73% {
            animation-timing-function: step-end;
            stroke: blue;
            stroke-dashoffset: 0;
            stroke-width: 128;
          }
          to {
            stroke: black;
            stroke-width: 1024;
          }
        }
        #make-me-a-hanzi-animation-4 {
          animation: keyframes4 0.9246419270833334s both;
          animation-delay: 3.5179036458333335s;
          animation-timing-function: linear;
        }
      
        @keyframes keyframes5 {
          from {
            stroke: blue;
            stroke-dashoffset: 350;
            stroke-width: 128;
          }
          53% {
            animation-timing-function: step-end;
            stroke: blue;
            stroke-dashoffset: 0;
            stroke-width: 128;
          }
          to {
            stroke: black;
            stroke-width: 1024;
          }
        }
        #make-me-a-hanzi-animation-5 {
          animation: keyframes5 0.5348307291666666s both;
          animation-delay: 4.442545572916667s;
          animation-timing-function: linear;
        }
      
        @keyframes keyframes6 {
          from {
            stroke: blue;
            stroke-dashoffset: 631;
            stroke-width: 128;
          }
          67% {
            animation-timing-function: step-end;
            stroke: blue;
            stroke-dashoffset: 0;
            stroke-width: 128;
          }
          to {
            stroke: black;
            stroke-width: 1024;
          }
        }
        #make-me-a-hanzi-animation-6 {
          animation: keyframes6 0.7635091145833334s both;
          animation-delay: 4.977376302083334s;
          animation-timing-function: linear;
        }
      
        @keyframes keyframes7 {
          from {
            stroke: blue;
            stroke-dashoffset: 1023;
            stroke-width: 128;
          }
          77% {
            animation-timing-function: step-end;
            stroke: blue;
            stroke-dashoffset: 0;
            stroke-width: 128;
          }
          to {
            stroke: black;
            stroke-width: 1024;
          }
        }
        #make-me-a-hanzi-animation-7 {
          animation: keyframes7 1.08251953125s both;
          animation-delay: 5.740885416666667s;
          animation-timing-function: linear;
        }
      
        @keyframes keyframes8 {
          from {
            stroke: blue;
            stroke-dashoffset: 381;
            stroke-width: 128;
          }
          55% {
            animation-timing-function: step-end;
            stroke: blue;
            stroke-dashoffset: 0;
            stroke-width: 128;
          }
          to {
            stroke: black;
            stroke-width: 1024;
          }
        }
        #make-me-a-hanzi-animation-8 {
          animation: keyframes8 0.56005859375s both;
          animation-delay: 6.823404947916667s;
          animation-timing-function: linear;
        }
      
    </style>
    
      <path d="M 566 690 Q 630 700 699 709 Q 777 722 789 732 Q 799 741 795 750 Q 788 765 755 775 Q 721 784 687 772 Q 558 736 477 724 L 412 715 Q 343 709 270 705 Q 228 701 257 680 Q 302 647 368 660 Q 375 661 385 662 L 451 672 Q 490 679 531 684 L 566 690 Z" fill="lightgray"></path>
    
      <path d="M 477 724 Q 480 740 522 803 Q 532 813 526 825 Q 520 837 488 858 Q 466 873 455 871 Q 439 868 440 851 Q 441 784 412 715 L 385 662 Q 294 524 155 419 Q 122 397 81 367 Q 72 360 79 356 Q 86 352 100 357 Q 290 424 407 597 Q 428 631 451 672 L 477 724 Z" fill="lightgray"></path>
    
      <path d="M 531 684 Q 534 677 542 667 Q 642 538 773 404 Q 795 382 829 384 Q 947 393 984 400 Q 994 404 996 409 Q 996 415 980 422 Q 814 470 727 543 Q 651 607 566 690 C 544 711 515 709 531 684 Z" fill="lightgray"></path>
    
      <path d="M 481 534 Q 496 556 513 567 Q 520 571 520 579 Q 516 601 487 617 Q 471 624 462 624 Q 455 624 455 614 Q 458 563 362 471 Q 359 471 358 468 Q 330 443 262 397 Q 255 394 263 391 Q 282 388 369 434 L 383 443 Q 404 461 453 505 L 481 534 Z" fill="lightgray"></path>
    
      <path d="M 443 372 Q 382 311 275 257 Q 250 247 270 245 Q 294 241 342 258 Q 391 276 451 321 Q 523 376 587 457 Q 617 496 634 505 Q 647 514 642 526 Q 638 536 587 562 Q 575 568 553 558 Q 529 546 481 534 C 452 526 423 506 453 505 Q 463 502 484 507 Q 550 534 556 525 Q 557 512 531 470 Q 512 434 465 391 L 443 372 Z" fill="lightgray"></path>
    
      <path d="M 369 434 Q 369 430 435 377 Q 439 374 443 372 C 469 357 469 361 465 391 Q 464 400 460 410 Q 456 423 433 433 Q 385 445 383 443 C 363 442 363 442 369 434 Z" fill="lightgray"></path>
    
      <path d="M 536 271 Q 564 304 577 310 Q 584 314 585 323 Q 585 332 575 344 Q 553 377 522 376 Q 515 376 514 364 Q 514 303 398 203 Q 395 203 393 200 Q 359 172 279 122 Q 270 119 280 115 Q 316 109 414 168 Q 414 169 417 170 L 437 183 Q 444 190 455 197 Q 476 213 504 240 L 536 271 Z" fill="lightgray"></path>
    
      <path d="M 505 80 Q 388 -28 228 -72 Q 218 -75 218 -80 Q 218 -84 226 -86 Q 290 -96 406 -47 Q 490 -5 543 43 Q 607 101 680 199 Q 699 226 726 242 Q 742 249 743 258 Q 744 271 717 290 Q 683 315 668 317 Q 658 318 646 311 Q 592 287 536 271 C 507 262 475 247 504 240 Q 517 236 536 233 Q 561 236 604 259 Q 623 262 629 256 Q 633 252 612 212 Q 584 160 527 102 L 505 80 Z" fill="lightgray"></path>
    
      <path d="M 417 170 Q 421 163 437 147 Q 503 81 505 80 C 527 60 528 72 527 102 Q 527 139 495 159 Q 468 172 437 183 C 409 193 400 195 417 170 Z" fill="lightgray"></path>
    
    
      <clipPath id="make-me-a-hanzi-clip-0">
        <path d="M 566 690 Q 630 700 699 709 Q 777 722 789 732 Q 799 741 795 750 Q 788 765 755 775 Q 721 784 687 772 Q 558 736 477 724 L 412 715 Q 343 709 270 705 Q 228 701 257 680 Q 302 647 368 660 Q 375 661 385 662 L 451 672 Q 490 679 531 684 L 566 690 Z"></path>
      </clipPath>
      <path clip-path="url(#make-me-a-hanzi-clip-0)" d="M 260 694 L 306 683 L 356 684 L 508 704 L 713 745 L 781 745" fill="none" id="make-me-a-hanzi-animation-0" stroke-dasharray="656 1312" stroke-linecap="round"></path>
    
      <clipPath id="make-me-a-hanzi-clip-1">
        <path d="M 477 724 Q 480 740 522 803 Q 532 813 526 825 Q 520 837 488 858 Q 466 873 455 871 Q 439 868 440 851 Q 441 784 412 715 L 385 662 Q 294 524 155 419 Q 122 397 81 367 Q 72 360 79 356 Q 86 352 100 357 Q 290 424 407 597 Q 428 631 451 672 L 477 724 Z"></path>
      </clipPath>
      <path clip-path="url(#make-me-a-hanzi-clip-1)" d="M 457 854 L 480 813 L 437 703 L 371 593 L 311 522 L 233 451 L 159 400 L 84 361" fill="none" id="make-me-a-hanzi-animation-1" stroke-dasharray="794 1588" stroke-linecap="round"></path>
    
      <clipPath id="make-me-a-hanzi-clip-2">
        <path d="M 531 684 Q 534 677 542 667 Q 642 538 773 404 Q 795 382 829 384 Q 947 393 984 400 Q 994 404 996 409 Q 996 415 980 422 Q 814 470 727 543 Q 651 607 566 690 C 544 711 515 709 531 684 Z"></path>
      </clipPath>
      <path clip-path="url(#make-me-a-hanzi-clip-2)" d="M 537 682 L 561 671 L 712 514 L 808 436 L 859 423 L 987 408" fill="none" id="make-me-a-hanzi-animation-2" stroke-dasharray="677 1354" stroke-linecap="round"></path>
    
      <clipPath id="make-me-a-hanzi-clip-3">
        <path d="M 481 534 Q 496 556 513 567 Q 520 571 520 579 Q 516 601 487 617 Q 471 624 462 624 Q 455 624 455 614 Q 458 563 362 471 Q 359 471 358 468 Q 330 443 262 397 Q 255 394 263 391 Q 282 388 369 434 L 383 443 Q 404 461 453 505 L 481 534 Z"></path>
      </clipPath>
      <path clip-path="url(#make-me-a-hanzi-clip-3)" d="M 466 614 L 482 583 L 459 546 L 418 499 L 353 440 L 266 395" fill="none" id="make-me-a-hanzi-animation-3" stroke-dasharray="455 910" stroke-linecap="round"></path>
    
      <clipPath id="make-me-a-hanzi-clip-4">
        <path d="M 443 372 Q 382 311 275 257 Q 250 247 270 245 Q 294 241 342 258 Q 391 276 451 321 Q 523 376 587 457 Q 617 496 634 505 Q 647 514 642 526 Q 638 536 587 562 Q 575 568 553 558 Q 529 546 481 534 C 452 526 423 506 453 505 Q 463 502 484 507 Q 550 534 556 525 Q 557 512 531 470 Q 512 434 465 391 L 443 372 Z"></path>
      </clipPath>
      <path clip-path="url(#make-me-a-hanzi-clip-4)" d="M 460 508 L 526 536 L 566 543 L 584 533 L 591 516 L 542 441 L 454 351 L 366 288 L 313 261 L 276 250" fill="none" id="make-me-a-hanzi-animation-4" stroke-dasharray="701 1402" stroke-linecap="round"></path>
    
      <clipPath id="make-me-a-hanzi-clip-5">
        <path d="M 369 434 Q 369 430 435 377 Q 439 374 443 372 C 469 357 469 361 465 391 Q 464 400 460 410 Q 456 423 433 433 Q 385 445 383 443 C 363 442 363 442 369 434 Z"></path>
      </clipPath>
      <path clip-path="url(#make-me-a-hanzi-clip-5)" d="M 373 435 L 430 411 L 444 382" fill="none" id="make-me-a-hanzi-animation-5" stroke-dasharray="222 444" stroke-linecap="round"></path>
    
      <clipPath id="make-me-a-hanzi-clip-6">
        <path d="M 536 271 Q 564 304 577 310 Q 584 314 585 323 Q 585 332 575 344 Q 553 377 522 376 Q 515 376 514 364 Q 514 303 398 203 Q 395 203 393 200 Q 359 172 279 122 Q 270 119 280 115 Q 316 109 414 168 Q 414 169 417 170 L 437 183 Q 444 190 455 197 Q 476 213 504 240 L 536 271 Z"></path>
      </clipPath>
      <path clip-path="url(#make-me-a-hanzi-clip-6)" d="M 528 363 L 542 327 L 503 273 L 463 232 L 379 166 L 284 119" fill="none" id="make-me-a-hanzi-animation-6" stroke-dasharray="503 1006" stroke-linecap="round"></path>
    
      <clipPath id="make-me-a-hanzi-clip-7">
        <path d="M 505 80 Q 388 -28 228 -72 Q 218 -75 218 -80 Q 218 -84 226 -86 Q 290 -96 406 -47 Q 490 -5 543 43 Q 607 101 680 199 Q 699 226 726 242 Q 742 249 743 258 Q 744 271 717 290 Q 683 315 668 317 Q 658 318 646 311 Q 592 287 536 271 C 507 262 475 247 504 240 Q 517 236 536 233 Q 561 236 604 259 Q 623 262 629 256 Q 633 252 612 212 Q 584 160 527 102 L 505 80 Z"></path>
      </clipPath>
      <path clip-path="url(#make-me-a-hanzi-clip-7)" d="M 510 244 L 520 243 L 619 280 L 665 275 L 675 262 L 639 196 L 599 141 L 521 58 L 469 17 L 371 -40 L 279 -72 L 225 -79" fill="none" id="make-me-a-hanzi-animation-7" stroke-dasharray="895 1790" stroke-linecap="round"></path>
    
      <clipPath id="make-me-a-hanzi-clip-8">
        <path d="M 417 170 Q 421 163 437 147 Q 503 81 505 80 C 527 60 528 72 527 102 Q 527 139 495 159 Q 468 172 437 183 C 409 193 400 195 417 170 Z"></path>
      </clipPath>
      <path clip-path="url(#make-me-a-hanzi-clip-8)" d="M 425 169 L 453 158 L 492 129 L 505 110 L 509 87" fill="none" id="make-me-a-hanzi-animation-8" stroke-dasharray="253 506" stroke-linecap="round"></path>
    
  </g>
</svg>