<svg version="1.1" viewBox="0 0 1024 1024" xmlns="http://www.w3.org/2000/svg">
  <g stroke="lightgray" stroke-dasharray="1,1" stroke-width="1" transform="scale(4, 4)">
    <line x1="0" y1="0" x2="256" y2="256"></line>
    <line x1="256" y1="0" x2="0" y2="256"></line>
    <line x1="128" y1="0" x2="128" y2="256"></line>
    <line x1="0" y1="128" x2="256" y2="128"></line>
  </g>
  <g transform="scale(1, -1) translate(0, -900)">
    <style type="text/css">
      
        @keyframes keyframes0 {
          from {
            stroke: blue;
            stroke-dashoffset: 763;
            stroke-width: 128;
          }
          71% {
            animation-timing-function: step-end;
            stroke: blue;
            stroke-dashoffset: 0;
            stroke-width: 128;
          }
          to {
            stroke: black;
            stroke-width: 1024;
          }
        }
        #make-me-a-hanzi-animation-0 {
          animation: keyframes0 0.8709309895833334s both;
          animation-delay: 0s;
          animation-timing-function: linear;
        }
      
        @keyframes keyframes1 {
          from {
            stroke: blue;
            stroke-dashoffset: 914;
            stroke-width: 128;
          }
          75% {
            animation-timing-function: step-end;
            stroke: blue;
            stroke-dashoffset: 0;
            stroke-width: 128;
          }
          to {
            stroke: black;
            stroke-width: 1024;
          }
        }
        #make-me-a-hanzi-animation-1 {
          animation: keyframes1 0.9938151041666666s both;
          animation-delay: 0.8709309895833334s;
          animation-timing-function: linear;
        }
      
        @keyframes keyframes2 {
          from {
            stroke: blue;
            stroke-dashoffset: 716;
            stroke-width: 128;
          }
          70% {
            animation-timing-function: step-end;
            stroke: blue;
            stroke-dashoffset: 0;
            stroke-width: 128;
          }
          to {
            stroke: black;
            stroke-width: 1024;
          }
        }
        #make-me-a-hanzi-animation-2 {
          animation: keyframes2 0.8326822916666666s both;
          animation-delay: 1.86474609375s;
          animation-timing-function: linear;
        }
      
        @keyframes keyframes3 {
          from {
            stroke: blue;
            stroke-dashoffset: 506;
            stroke-width: 128;
          }
          62% {
            animation-timing-function: step-end;
            stroke: blue;
            stroke-dashoffset: 0;
            stroke-width: 128;
          }
          to {
            stroke: black;
            stroke-width: 1024;
          }
        }
        #make-me-a-hanzi-animation-3 {
          animation: keyframes3 0.6617838541666666s both;
          animation-delay: 2.6974283854166665s;
          animation-timing-function: linear;
        }
      
        @keyframes keyframes4 {
          from {
            stroke: blue;
            stroke-dashoffset: 484;
            stroke-width: 128;
          }
          61% {
            animation-timing-function: step-end;
            stroke: blue;
            stroke-dashoffset: 0;
            stroke-width: 128;
          }
          to {
            stroke: black;
            stroke-width: 1024;
          }
        }
        #make-me-a-hanzi-animation-4 {
          animation: keyframes4 0.6438802083333334s both;
          animation-delay: 3.359212239583333s;
          animation-timing-function: linear;
        }
      
        @keyframes keyframes5 {
          from {
            stroke: blue;
            stroke-dashoffset: 888;
            stroke-width: 128;
          }
          74% {
            animation-timing-function: step-end;
            stroke: blue;
            stroke-dashoffset: 0;
            stroke-width: 128;
          }
          to {
            stroke: black;
            stroke-width: 1024;
          }
        }
        #make-me-a-hanzi-animation-5 {
          animation: keyframes5 0.97265625s both;
          animation-delay: 4.003092447916666s;
          animation-timing-function: linear;
        }
      
        @keyframes keyframes6 {
          from {
            stroke: blue;
            stroke-dashoffset: 1009;
            stroke-width: 128;
          }
          77% {
            animation-timing-function: step-end;
            stroke: blue;
            stroke-dashoffset: 0;
            stroke-width: 128;
          }
          to {
            stroke: black;
            stroke-width: 1024;
          }
        }
        #make-me-a-hanzi-animation-6 {
          animation: keyframes6 1.0711263020833333s both;
          animation-delay: 4.975748697916666s;
          animation-timing-function: linear;
        }
      
        @keyframes keyframes7 {
          from {
            stroke: blue;
            stroke-dashoffset: 542;
            stroke-width: 128;
          }
          64% {
            animation-timing-function: step-end;
            stroke: blue;
            stroke-dashoffset: 0;
            stroke-width: 128;
          }
          to {
            stroke: black;
            stroke-width: 1024;
          }
        }
        #make-me-a-hanzi-animation-7 {
          animation: keyframes7 0.6910807291666666s both;
          animation-delay: 6.046874999999999s;
          animation-timing-function: linear;
        }
      
        @keyframes keyframes8 {
          from {
            stroke: blue;
            stroke-dashoffset: 788;
            stroke-width: 128;
          }
          72% {
            animation-timing-function: step-end;
            stroke: blue;
            stroke-dashoffset: 0;
            stroke-width: 128;
          }
          to {
            stroke: black;
            stroke-width: 1024;
          }
        }
        #make-me-a-hanzi-animation-8 {
          animation: keyframes8 0.8912760416666666s both;
          animation-delay: 6.737955729166666s;
          animation-timing-function: linear;
        }
      
        @keyframes keyframes9 {
          from {
            stroke: blue;
            stroke-dashoffset: 406;
            stroke-width: 128;
          }
          57% {
            animation-timing-function: step-end;
            stroke: blue;
            stroke-dashoffset: 0;
            stroke-width: 128;
          }
          to {
            stroke: black;
            stroke-width: 1024;
          }
        }
        #make-me-a-hanzi-animation-9 {
          animation: keyframes9 0.5804036458333334s both;
          animation-delay: 7.629231770833333s;
          animation-timing-function: linear;
        }
      
        @keyframes keyframes10 {
          from {
            stroke: blue;
            stroke-dashoffset: 446;
            stroke-width: 128;
          }
          59% {
            animation-timing-function: step-end;
            stroke: blue;
            stroke-dashoffset: 0;
            stroke-width: 128;
          }
          to {
            stroke: black;
            stroke-width: 1024;
          }
        }
        #make-me-a-hanzi-animation-10 {
          animation: keyframes10 0.6129557291666666s both;
          animation-delay: 8.209635416666666s;
          animation-timing-function: linear;
        }
      
    </style>
    
      <path d="M 592 678 Q 592 679 739 693 Q 749 692 760 705 Q 761 717 738 728 Q 702 750 629 731 Q 581 722 533 712 Q 506 708 481 702 L 424 694 Q 396 691 369 688 Q 314 684 254 678 Q 223 675 246 656 Q 270 635 314 635 Q 351 642 397 649 L 456 658 Q 505 668 561 674 L 592 678 Z" fill="lightgray"></path>
    
      <path d="M 481 702 Q 517 772 542 807 Q 551 816 546 827 Q 542 837 513 857 Q 494 870 483 870 Q 470 869 470 853 Q 470 787 424 694 L 397 649 Q 298 525 172 434 Q 138 412 97 385 Q 90 379 95 375 Q 102 372 114 375 Q 199 403 272 454 Q 374 520 456 658 L 481 702 Z" fill="lightgray"></path>
    
      <path d="M 561 674 Q 753 467 805 453 Q 901 453 956 465 Q 972 466 974 472 Q 975 478 962 483 Q 782 549 771 554 Q 681 599 592 678 C 569 698 541 696 561 674 Z" fill="lightgray"></path>
    
      <path d="M 518 481 Q 608 500 611 504 Q 618 511 615 518 Q 608 528 583 535 Q 559 539 523 527 L 474 513 Q 381 498 364 496 Q 333 492 355 476 Q 389 458 450 469 Q 462 472 475 473 L 518 481 Z" fill="lightgray"></path>
    
      <path d="M 507 394 Q 513 439 518 481 L 523 527 Q 523 528 524 529 Q 528 547 531 559 Q 534 569 536 576 Q 540 585 524 597 Q 497 613 479 617 Q 466 620 460 613 Q 453 607 460 596 Q 473 577 474 513 L 475 473 Q 475 433 473 389 C 472 359 503 364 507 394 Z" fill="lightgray"></path>
    
      <path d="M 574 366 Q 644 372 800 373 Q 819 373 823 382 Q 829 392 812 406 Q 755 448 699 429 Q 662 423 616 413 L 557 402 Q 532 399 507 394 L 473 389 Q 340 370 188 350 Q 167 347 183 331 Q 196 318 214 313 Q 235 309 250 312 Q 383 351 521 361 L 574 366 Z" fill="lightgray"></path>
    
      <path d="M 480 274 Q 531 323 574 366 L 616 413 Q 656 459 680 480 Q 689 487 685 503 Q 669 554 640 561 Q 625 564 626 545 Q 626 503 582 437 Q 569 419 557 402 L 521 361 Q 458 298 423 267 L 385 236 Q 268 143 126 61 Q 119 58 118 52 Q 117 48 122 47 Q 129 46 139 49 Q 236 89 288 123 Q 340 156 390 195 L 480 274 Z" fill="lightgray"></path>
    
      <path d="M 423 267 Q 408 282 380 280 Q 368 276 374 267 Q 381 254 385 236 L 390 195 Q 393 101 371 57 Q 359 32 381 -7 Q 382 -8 386 -13 Q 392 -23 401 -19 Q 411 -12 419 14 L 426 46 Q 429 79 429 126 L 430 153 Q 431 213 434 233 C 437 256 437 256 423 267 Z" fill="lightgray"></path>
    
      <path d="M 587 26 Q 614 -8 633 -40 Q 642 -58 653 -57 Q 668 -56 683 -24 Q 699 13 696 57 Q 690 106 682 198 Q 681 226 697 248 Q 706 260 697 269 Q 679 288 630 310 Q 614 319 598 310 Q 556 291 480 274 C 451 267 404 230 434 233 L 434 233 Q 452 234 586 262 Q 607 266 617 258 Q 627 249 629 68 Q 628 64 628 59 Q 624 49 617 47 C 598 24 581 34 587 26 Z" fill="lightgray"></path>
    
      <path d="M 429 126 Q 433 126 438 126 Q 517 136 574 141 Q 596 145 589 157 Q 579 170 555 176 Q 537 179 430 153 C 401 146 399 126 429 126 Z" fill="lightgray"></path>
    
      <path d="M 419 14 Q 426 13 436 14 Q 485 23 587 26 C 617 27 638 28 617 47 Q 610 54 596 64 Q 581 73 553 67 Q 483 54 426 46 C 396 42 389 16 419 14 Z" fill="lightgray"></path>
    
    
      <clipPath id="make-me-a-hanzi-clip-0">
        <path d="M 592 678 Q 592 679 739 693 Q 749 692 760 705 Q 761 717 738 728 Q 702 750 629 731 Q 581 722 533 712 Q 506 708 481 702 L 424 694 Q 396 691 369 688 Q 314 684 254 678 Q 223 675 246 656 Q 270 635 314 635 Q 351 642 397 649 L 456 658 Q 505 668 561 674 L 592 678 Z"></path>
      </clipPath>
      <path clip-path="url(#make-me-a-hanzi-clip-0)" d="M 248 668 L 270 661 L 316 659 L 678 714 L 749 707" fill="none" id="make-me-a-hanzi-animation-0" stroke-dasharray="635 1270" stroke-linecap="round"></path>
    
      <clipPath id="make-me-a-hanzi-clip-1">
        <path d="M 481 702 Q 517 772 542 807 Q 551 816 546 827 Q 542 837 513 857 Q 494 870 483 870 Q 470 869 470 853 Q 470 787 424 694 L 397 649 Q 298 525 172 434 Q 138 412 97 385 Q 90 379 95 375 Q 102 372 114 375 Q 199 403 272 454 Q 374 520 456 658 L 481 702 Z"></path>
      </clipPath>
      <path clip-path="url(#make-me-a-hanzi-clip-1)" d="M 484 856 L 504 816 L 452 697 L 395 607 L 335 539 L 265 477 L 195 427 L 100 379" fill="none" id="make-me-a-hanzi-animation-1" stroke-dasharray="786 1572" stroke-linecap="round"></path>
    
      <clipPath id="make-me-a-hanzi-clip-2">
        <path d="M 561 674 Q 753 467 805 453 Q 901 453 956 465 Q 972 466 974 472 Q 975 478 962 483 Q 782 549 771 554 Q 681 599 592 678 C 569 698 541 696 561 674 Z"></path>
      </clipPath>
      <path clip-path="url(#make-me-a-hanzi-clip-2)" d="M 570 664 L 591 664 L 596 653 L 681 579 L 759 523 L 814 493 L 968 473" fill="none" id="make-me-a-hanzi-animation-2" stroke-dasharray="588 1176" stroke-linecap="round"></path>
    
      <clipPath id="make-me-a-hanzi-clip-3">
        <path d="M 518 481 Q 608 500 611 504 Q 618 511 615 518 Q 608 528 583 535 Q 559 539 523 527 L 474 513 Q 381 498 364 496 Q 333 492 355 476 Q 389 458 450 469 Q 462 472 475 473 L 518 481 Z"></path>
      </clipPath>
      <path clip-path="url(#make-me-a-hanzi-clip-3)" d="M 357 487 L 420 485 L 565 514 L 604 513" fill="none" id="make-me-a-hanzi-animation-3" stroke-dasharray="378 756" stroke-linecap="round"></path>
    
      <clipPath id="make-me-a-hanzi-clip-4">
        <path d="M 507 394 Q 513 439 518 481 L 523 527 Q 523 528 524 529 Q 528 547 531 559 Q 534 569 536 576 Q 540 585 524 597 Q 497 613 479 617 Q 466 620 460 613 Q 453 607 460 596 Q 473 577 474 513 L 475 473 Q 475 433 473 389 C 472 359 503 364 507 394 Z"></path>
      </clipPath>
      <path clip-path="url(#make-me-a-hanzi-clip-4)" d="M 468 605 L 502 573 L 493 419 L 478 396" fill="none" id="make-me-a-hanzi-animation-4" stroke-dasharray="356 712" stroke-linecap="round"></path>
    
      <clipPath id="make-me-a-hanzi-clip-5">
        <path d="M 574 366 Q 644 372 800 373 Q 819 373 823 382 Q 829 392 812 406 Q 755 448 699 429 Q 662 423 616 413 L 557 402 Q 532 399 507 394 L 473 389 Q 340 370 188 350 Q 167 347 183 331 Q 196 318 214 313 Q 235 309 250 312 Q 383 351 521 361 L 574 366 Z"></path>
      </clipPath>
      <path clip-path="url(#make-me-a-hanzi-clip-5)" d="M 186 340 L 242 334 L 404 363 L 724 403 L 766 401 L 811 388" fill="none" id="make-me-a-hanzi-animation-5" stroke-dasharray="760 1520" stroke-linecap="round"></path>
    
      <clipPath id="make-me-a-hanzi-clip-6">
        <path d="M 480 274 Q 531 323 574 366 L 616 413 Q 656 459 680 480 Q 689 487 685 503 Q 669 554 640 561 Q 625 564 626 545 Q 626 503 582 437 Q 569 419 557 402 L 521 361 Q 458 298 423 267 L 385 236 Q 268 143 126 61 Q 119 58 118 52 Q 117 48 122 47 Q 129 46 139 49 Q 236 89 288 123 Q 340 156 390 195 L 480 274 Z"></path>
      </clipPath>
      <path clip-path="url(#make-me-a-hanzi-clip-6)" d="M 637 550 L 648 529 L 652 499 L 576 396 L 497 312 L 385 212 L 324 167 L 219 99 L 145 59 L 125 54" fill="none" id="make-me-a-hanzi-animation-6" stroke-dasharray="881 1762" stroke-linecap="round"></path>
    
      <clipPath id="make-me-a-hanzi-clip-7">
        <path d="M 423 267 Q 408 282 380 280 Q 368 276 374 267 Q 381 254 385 236 L 390 195 Q 393 101 371 57 Q 359 32 381 -7 Q 382 -8 386 -13 Q 392 -23 401 -19 Q 411 -12 419 14 L 426 46 Q 429 79 429 126 L 430 153 Q 431 213 434 233 C 437 256 437 256 423 267 Z"></path>
      </clipPath>
      <path clip-path="url(#make-me-a-hanzi-clip-7)" d="M 388 268 L 404 254 L 411 210 L 409 118 L 395 39 L 396 -9" fill="none" id="make-me-a-hanzi-animation-7" stroke-dasharray="414 828" stroke-linecap="round"></path>
    
      <clipPath id="make-me-a-hanzi-clip-8">
        <path d="M 587 26 Q 614 -8 633 -40 Q 642 -58 653 -57 Q 668 -56 683 -24 Q 699 13 696 57 Q 690 106 682 198 Q 681 226 697 248 Q 706 260 697 269 Q 679 288 630 310 Q 614 319 598 310 Q 556 291 480 274 C 451 267 404 230 434 233 L 434 233 Q 452 234 586 262 Q 607 266 617 258 Q 627 249 629 68 Q 628 64 628 59 Q 624 49 617 47 C 598 24 581 34 587 26 Z"></path>
      </clipPath>
      <path clip-path="url(#make-me-a-hanzi-clip-8)" d="M 442 239 L 493 261 L 602 287 L 628 283 L 653 260 L 662 49 L 650 16 L 653 -42" fill="none" id="make-me-a-hanzi-animation-8" stroke-dasharray="660 1320" stroke-linecap="round"></path>
    
      <clipPath id="make-me-a-hanzi-clip-9">
        <path d="M 429 126 Q 433 126 438 126 Q 517 136 574 141 Q 596 145 589 157 Q 579 170 555 176 Q 537 179 430 153 C 401 146 399 126 429 126 Z"></path>
      </clipPath>
      <path clip-path="url(#make-me-a-hanzi-clip-9)" d="M 434 133 L 447 144 L 491 151 L 546 158 L 578 152" fill="none" id="make-me-a-hanzi-animation-9" stroke-dasharray="278 556" stroke-linecap="round"></path>
    
      <clipPath id="make-me-a-hanzi-clip-10">
        <path d="M 419 14 Q 426 13 436 14 Q 485 23 587 26 C 617 27 638 28 617 47 Q 610 54 596 64 Q 581 73 553 67 Q 483 54 426 46 C 396 42 389 16 419 14 Z"></path>
      </clipPath>
      <path clip-path="url(#make-me-a-hanzi-clip-10)" d="M 423 19 L 461 35 L 564 48 L 609 47" fill="none" id="make-me-a-hanzi-animation-10" stroke-dasharray="318 636" stroke-linecap="round"></path>
    
  </g>
</svg>