<svg version="1.1" viewBox="0 0 1024 1024" xmlns="http://www.w3.org/2000/svg">
  <g stroke="lightgray" stroke-dasharray="1,1" stroke-width="1" transform="scale(4, 4)">
    <line x1="0" y1="0" x2="256" y2="256"></line>
    <line x1="256" y1="0" x2="0" y2="256"></line>
    <line x1="128" y1="0" x2="128" y2="256"></line>
    <line x1="0" y1="128" x2="256" y2="128"></line>
  </g>
  <g transform="scale(1, -1) translate(0, -900)">
    <style type="text/css">
      
        @keyframes keyframes0 {
          from {
            stroke: blue;
            stroke-dashoffset: 382;
            stroke-width: 128;
          }
          55% {
            animation-timing-function: step-end;
            stroke: blue;
            stroke-dashoffset: 0;
            stroke-width: 128;
          }
          to {
            stroke: black;
            stroke-width: 1024;
          }
        }
        #make-me-a-hanzi-animation-0 {
          animation: keyframes0 0.5608723958333334s both;
          animation-delay: 0s;
          animation-timing-function: linear;
        }
      
        @keyframes keyframes1 {
          from {
            stroke: blue;
            stroke-dashoffset: 435;
            stroke-width: 128;
          }
          59% {
            animation-timing-function: step-end;
            stroke: blue;
            stroke-dashoffset: 0;
            stroke-width: 128;
          }
          to {
            stroke: black;
            stroke-width: 1024;
          }
        }
        #make-me-a-hanzi-animation-1 {
          animation: keyframes1 0.60400390625s both;
          animation-delay: 0.5608723958333334s;
          animation-timing-function: linear;
        }
      
        @keyframes keyframes2 {
          from {
            stroke: blue;
            stroke-dashoffset: 792;
            stroke-width: 128;
          }
          72% {
            animation-timing-function: step-end;
            stroke: blue;
            stroke-dashoffset: 0;
            stroke-width: 128;
          }
          to {
            stroke: black;
            stroke-width: 1024;
          }
        }
        #make-me-a-hanzi-animation-2 {
          animation: keyframes2 0.89453125s both;
          animation-delay: 1.1648763020833335s;
          animation-timing-function: linear;
        }
      
        @keyframes keyframes3 {
          from {
            stroke: blue;
            stroke-dashoffset: 726;
            stroke-width: 128;
          }
          70% {
            animation-timing-function: step-end;
            stroke: blue;
            stroke-dashoffset: 0;
            stroke-width: 128;
          }
          to {
            stroke: black;
            stroke-width: 1024;
          }
        }
        #make-me-a-hanzi-animation-3 {
          animation: keyframes3 0.8408203125s both;
          animation-delay: 2.0594075520833335s;
          animation-timing-function: linear;
        }
      
        @keyframes keyframes4 {
          from {
            stroke: blue;
            stroke-dashoffset: 570;
            stroke-width: 128;
          }
          65% {
            animation-timing-function: step-end;
            stroke: blue;
            stroke-dashoffset: 0;
            stroke-width: 128;
          }
          to {
            stroke: black;
            stroke-width: 1024;
          }
        }
        #make-me-a-hanzi-animation-4 {
          animation: keyframes4 0.7138671875s both;
          animation-delay: 2.9002278645833335s;
          animation-timing-function: linear;
        }
      
        @keyframes keyframes5 {
          from {
            stroke: blue;
            stroke-dashoffset: 645;
            stroke-width: 128;
          }
          68% {
            animation-timing-function: step-end;
            stroke: blue;
            stroke-dashoffset: 0;
            stroke-width: 128;
          }
          to {
            stroke: black;
            stroke-width: 1024;
          }
        }
        #make-me-a-hanzi-animation-5 {
          animation: keyframes5 0.77490234375s both;
          animation-delay: 3.6140950520833335s;
          animation-timing-function: linear;
        }
      
        @keyframes keyframes6 {
          from {
            stroke: blue;
            stroke-dashoffset: 852;
            stroke-width: 128;
          }
          73% {
            animation-timing-function: step-end;
            stroke: blue;
            stroke-dashoffset: 0;
            stroke-width: 128;
          }
          to {
            stroke: black;
            stroke-width: 1024;
          }
        }
        #make-me-a-hanzi-animation-6 {
          animation: keyframes6 0.943359375s both;
          animation-delay: 4.388997395833334s;
          animation-timing-function: linear;
        }
      
        @keyframes keyframes7 {
          from {
            stroke: blue;
            stroke-dashoffset: 808;
            stroke-width: 128;
          }
          72% {
            animation-timing-function: step-end;
            stroke: blue;
            stroke-dashoffset: 0;
            stroke-width: 128;
          }
          to {
            stroke: black;
            stroke-width: 1024;
          }
        }
        #make-me-a-hanzi-animation-7 {
          animation: keyframes7 0.9075520833333334s both;
          animation-delay: 5.332356770833334s;
          animation-timing-function: linear;
        }
      
        @keyframes keyframes8 {
          from {
            stroke: blue;
            stroke-dashoffset: 1039;
            stroke-width: 128;
          }
          77% {
            animation-timing-function: step-end;
            stroke: blue;
            stroke-dashoffset: 0;
            stroke-width: 128;
          }
          to {
            stroke: black;
            stroke-width: 1024;
          }
        }
        #make-me-a-hanzi-animation-8 {
          animation: keyframes8 1.0955403645833333s both;
          animation-delay: 6.239908854166667s;
          animation-timing-function: linear;
        }
      
    </style>
    
      <path d="M 350 680 Q 407 626 422 627 Q 432 628 437 641 Q 441 654 433 683 Q 424 710 345 726 Q 330 730 324 727 Q 320 723 321 711 Q 324 701 350 680 Z" fill="lightgray"></path>
    
      <path d="M 641 747 Q 619 713 572 662 Q 565 655 571 647 Q 578 646 587 649 Q 674 703 715 722 Q 734 726 730 737 Q 724 753 706 774 Q 687 793 664 797 Q 649 797 649 777 Q 650 762 641 747 Z" fill="lightgray"></path>
    
      <path d="M 541 564 Q 578 571 760 587 Q 770 586 780 598 Q 781 610 759 621 Q 720 643 659 625 Q 541 604 530 599 L 493 593 Q 447 587 246 568 Q 218 567 238 548 Q 248 538 263 529 Q 276 520 298 526 Q 365 539 447 550 L 541 564 Z" fill="lightgray"></path>
    
      <path d="M 530 599 Q 533 728 559 782 Q 565 792 554 805 Q 502 847 473 837 Q 460 833 466 818 Q 494 773 492 702 Q 493 642 493 593 L 490 524 Q 489 457 481 426 Q 480 411 486 395 Q 492 386 497 374 Q 507 359 521 367 Q 531 376 532 444 Q 529 499 528 542 L 530 599 Z" fill="lightgray"></path>
    
      <path d="M 447 550 Q 422 472 242 363 Q 226 353 240 350 Q 267 343 348 386 Q 382 407 432 454 Q 450 472 490 524 C 518 560 469 609 447 550 Z" fill="lightgray"></path>
    
      <path d="M 528 542 Q 595 466 670 393 Q 692 372 727 372 Q 793 371 860 385 Q 876 386 878 392 Q 879 398 866 403 Q 685 461 611 512 Q 590 527 541 564 C 517 582 508 564 528 542 Z" fill="lightgray"></path>
    
      <path d="M 524 73 Q 584 36 672 -38 Q 697 -60 716 -60 Q 738 -60 739 -39 Q 739 -18 710 30 Q 697 55 667 67 Q 606 95 556 115 L 506 134 Q 469 150 439 157 Q 417 161 429 183 Q 445 214 458 235 L 477 272 Q 484 288 494 298 Q 504 305 500 316 Q 496 331 456 360 Q 446 370 434 366 Q 421 362 428 346 Q 437 322 428 298 Q 424 282 418 266 L 404 229 Q 370 157 372 150 Q 373 140 392 136 Q 432 124 477 100 L 524 73 Z" fill="lightgray"></path>
    
      <path d="M 477 100 Q 399 25 225 -12 Q 206 -19 227 -23 Q 356 -45 462 18 Q 498 40 524 73 L 556 115 Q 586 158 605 208 Q 612 232 621 245 C 635 271 641 283 633 291 Q 603 325 562 322 Q 549 319 554 303 Q 558 294 559 281 L 556 242 Q 552 223 542 201 Q 527 164 506 134 L 477 100 Z" fill="lightgray"></path>
    
      <path d="M 621 245 Q 712 249 826 245 Q 857 244 886 243 Q 908 243 914 252 Q 921 265 903 281 Q 840 330 794 315 Q 727 305 633 291 L 559 281 Q 541 281 477 272 L 418 266 Q 282 254 131 240 Q 107 239 124 219 Q 139 203 159 197 Q 181 190 200 194 Q 297 218 404 229 L 458 235 Q 501 241 556 242 L 621 245 Z" fill="lightgray"></path>
    
    
      <clipPath id="make-me-a-hanzi-clip-0">
        <path d="M 350 680 Q 407 626 422 627 Q 432 628 437 641 Q 441 654 433 683 Q 424 710 345 726 Q 330 730 324 727 Q 320 723 321 711 Q 324 701 350 680 Z"></path>
      </clipPath>
      <path clip-path="url(#make-me-a-hanzi-clip-0)" d="M 329 721 L 400 676 L 421 640" fill="none" id="make-me-a-hanzi-animation-0" stroke-dasharray="254 508" stroke-linecap="round"></path>
    
      <clipPath id="make-me-a-hanzi-clip-1">
        <path d="M 641 747 Q 619 713 572 662 Q 565 655 571 647 Q 578 646 587 649 Q 674 703 715 722 Q 734 726 730 737 Q 724 753 706 774 Q 687 793 664 797 Q 649 797 649 777 Q 650 762 641 747 Z"></path>
      </clipPath>
      <path clip-path="url(#make-me-a-hanzi-clip-1)" d="M 664 781 L 681 747 L 575 654" fill="none" id="make-me-a-hanzi-animation-1" stroke-dasharray="307 614" stroke-linecap="round"></path>
    
      <clipPath id="make-me-a-hanzi-clip-2">
        <path d="M 541 564 Q 578 571 760 587 Q 770 586 780 598 Q 781 610 759 621 Q 720 643 659 625 Q 541 604 530 599 L 493 593 Q 447 587 246 568 Q 218 567 238 548 Q 248 538 263 529 Q 276 520 298 526 Q 365 539 447 550 L 541 564 Z"></path>
      </clipPath>
      <path clip-path="url(#make-me-a-hanzi-clip-2)" d="M 240 559 L 277 548 L 499 575 L 650 602 L 735 608 L 769 600" fill="none" id="make-me-a-hanzi-animation-2" stroke-dasharray="664 1328" stroke-linecap="round"></path>
    
      <clipPath id="make-me-a-hanzi-clip-3">
        <path d="M 530 599 Q 533 728 559 782 Q 565 792 554 805 Q 502 847 473 837 Q 460 833 466 818 Q 494 773 492 702 Q 493 642 493 593 L 490 524 Q 489 457 481 426 Q 480 411 486 395 Q 492 386 497 374 Q 507 359 521 367 Q 531 376 532 444 Q 529 499 528 542 L 530 599 Z"></path>
      </clipPath>
      <path clip-path="url(#make-me-a-hanzi-clip-3)" d="M 476 825 L 495 814 L 520 785 L 506 425 L 513 376" fill="none" id="make-me-a-hanzi-animation-3" stroke-dasharray="598 1196" stroke-linecap="round"></path>
    
      <clipPath id="make-me-a-hanzi-clip-4">
        <path d="M 447 550 Q 422 472 242 363 Q 226 353 240 350 Q 267 343 348 386 Q 382 407 432 454 Q 450 472 490 524 C 518 560 469 609 447 550 Z"></path>
      </clipPath>
      <path clip-path="url(#make-me-a-hanzi-clip-4)" d="M 485 551 L 412 462 L 374 429 L 313 387 L 245 356" fill="none" id="make-me-a-hanzi-animation-4" stroke-dasharray="442 884" stroke-linecap="round"></path>
    
      <clipPath id="make-me-a-hanzi-clip-5">
        <path d="M 528 542 Q 595 466 670 393 Q 692 372 727 372 Q 793 371 860 385 Q 876 386 878 392 Q 879 398 866 403 Q 685 461 611 512 Q 590 527 541 564 C 517 582 508 564 528 542 Z"></path>
      </clipPath>
      <path clip-path="url(#make-me-a-hanzi-clip-5)" d="M 536 557 L 613 482 L 706 417 L 762 404 L 872 393" fill="none" id="make-me-a-hanzi-animation-5" stroke-dasharray="517 1034" stroke-linecap="round"></path>
    
      <clipPath id="make-me-a-hanzi-clip-6">
        <path d="M 524 73 Q 584 36 672 -38 Q 697 -60 716 -60 Q 738 -60 739 -39 Q 739 -18 710 30 Q 697 55 667 67 Q 606 95 556 115 L 506 134 Q 469 150 439 157 Q 417 161 429 183 Q 445 214 458 235 L 477 272 Q 484 288 494 298 Q 504 305 500 316 Q 496 331 456 360 Q 446 370 434 366 Q 421 362 428 346 Q 437 322 428 298 Q 424 282 418 266 L 404 229 Q 370 157 372 150 Q 373 140 392 136 Q 432 124 477 100 L 524 73 Z"></path>
      </clipPath>
      <path clip-path="url(#make-me-a-hanzi-clip-6)" d="M 437 354 L 453 338 L 464 312 L 408 189 L 401 160 L 644 36 L 673 14 L 719 -40" fill="none" id="make-me-a-hanzi-animation-6" stroke-dasharray="724 1448" stroke-linecap="round"></path>
    
      <clipPath id="make-me-a-hanzi-clip-7">
        <path d="M 477 100 Q 399 25 225 -12 Q 206 -19 227 -23 Q 356 -45 462 18 Q 498 40 524 73 L 556 115 Q 586 158 605 208 Q 612 232 621 245 C 635 271 641 283 633 291 Q 603 325 562 322 Q 549 319 554 303 Q 558 294 559 281 L 556 242 Q 552 223 542 201 Q 527 164 506 134 L 477 100 Z"></path>
      </clipPath>
      <path clip-path="url(#make-me-a-hanzi-clip-7)" d="M 564 310 L 581 298 L 594 277 L 586 240 L 546 147 L 491 76 L 429 30 L 375 7 L 302 -12 L 236 -16" fill="none" id="make-me-a-hanzi-animation-7" stroke-dasharray="680 1360" stroke-linecap="round"></path>
    
      <clipPath id="make-me-a-hanzi-clip-8">
        <path d="M 621 245 Q 712 249 826 245 Q 857 244 886 243 Q 908 243 914 252 Q 921 265 903 281 Q 840 330 794 315 Q 727 305 633 291 L 559 281 Q 541 281 477 272 L 418 266 Q 282 254 131 240 Q 107 239 124 219 Q 139 203 159 197 Q 181 190 200 194 Q 297 218 404 229 L 458 235 Q 501 241 556 242 L 621 245 Z"></path>
      </clipPath>
      <path clip-path="url(#make-me-a-hanzi-clip-8)" d="M 127 230 L 182 218 L 508 259 L 808 282 L 850 277 L 902 260" fill="none" id="make-me-a-hanzi-animation-8" stroke-dasharray="911 1822" stroke-linecap="round"></path>
    
  </g>
</svg>