<svg version="1.1" viewBox="0 0 1024 1024" xmlns="http://www.w3.org/2000/svg">
  <g stroke="lightgray" stroke-dasharray="1,1" stroke-width="1" transform="scale(4, 4)">
    <line x1="0" y1="0" x2="256" y2="256"></line>
    <line x1="256" y1="0" x2="0" y2="256"></line>
    <line x1="128" y1="0" x2="128" y2="256"></line>
    <line x1="0" y1="128" x2="256" y2="128"></line>
  </g>
  <g transform="scale(1, -1) translate(0, -900)">
    <style type="text/css">
      
        @keyframes keyframes0 {
          from {
            stroke: blue;
            stroke-dashoffset: 942;
            stroke-width: 128;
          }
          75% {
            animation-timing-function: step-end;
            stroke: blue;
            stroke-dashoffset: 0;
            stroke-width: 128;
          }
          to {
            stroke: black;
            stroke-width: 1024;
          }
        }
        #make-me-a-hanzi-animation-0 {
          animation: keyframes0 1.0166015625s both;
          animation-delay: 0s;
          animation-timing-function: linear;
        }
      
        @keyframes keyframes1 {
          from {
            stroke: blue;
            stroke-dashoffset: 1146;
            stroke-width: 128;
          }
          79% {
            animation-timing-function: step-end;
            stroke: blue;
            stroke-dashoffset: 0;
            stroke-width: 128;
          }
          to {
            stroke: black;
            stroke-width: 1024;
          }
        }
        #make-me-a-hanzi-animation-1 {
          animation: keyframes1 1.1826171875s both;
          animation-delay: 1.0166015625s;
          animation-timing-function: linear;
        }
      
        @keyframes keyframes2 {
          from {
            stroke: blue;
            stroke-dashoffset: 336;
            stroke-width: 128;
          }
          52% {
            animation-timing-function: step-end;
            stroke: blue;
            stroke-dashoffset: 0;
            stroke-width: 128;
          }
          to {
            stroke: black;
            stroke-width: 1024;
          }
        }
        #make-me-a-hanzi-animation-2 {
          animation: keyframes2 0.5234375s both;
          animation-delay: 2.19921875s;
          animation-timing-function: linear;
        }
      
        @keyframes keyframes3 {
          from {
            stroke: blue;
            stroke-dashoffset: 344;
            stroke-width: 128;
          }
          53% {
            animation-timing-function: step-end;
            stroke: blue;
            stroke-dashoffset: 0;
            stroke-width: 128;
          }
          to {
            stroke: black;
            stroke-width: 1024;
          }
        }
        #make-me-a-hanzi-animation-3 {
          animation: keyframes3 0.5299479166666666s both;
          animation-delay: 2.72265625s;
          animation-timing-function: linear;
        }
      
        @keyframes keyframes4 {
          from {
            stroke: blue;
            stroke-dashoffset: 361;
            stroke-width: 128;
          }
          54% {
            animation-timing-function: step-end;
            stroke: blue;
            stroke-dashoffset: 0;
            stroke-width: 128;
          }
          to {
            stroke: black;
            stroke-width: 1024;
          }
        }
        #make-me-a-hanzi-animation-4 {
          animation: keyframes4 0.5437825520833334s both;
          animation-delay: 3.2526041666666665s;
          animation-timing-function: linear;
        }
      
        @keyframes keyframes5 {
          from {
            stroke: blue;
            stroke-dashoffset: 392;
            stroke-width: 128;
          }
          56% {
            animation-timing-function: step-end;
            stroke: blue;
            stroke-dashoffset: 0;
            stroke-width: 128;
          }
          to {
            stroke: black;
            stroke-width: 1024;
          }
        }
        #make-me-a-hanzi-animation-5 {
          animation: keyframes5 0.5690104166666666s both;
          animation-delay: 3.79638671875s;
          animation-timing-function: linear;
        }
      
        @keyframes keyframes6 {
          from {
            stroke: blue;
            stroke-dashoffset: 568;
            stroke-width: 128;
          }
          65% {
            animation-timing-function: step-end;
            stroke: blue;
            stroke-dashoffset: 0;
            stroke-width: 128;
          }
          to {
            stroke: black;
            stroke-width: 1024;
          }
        }
        #make-me-a-hanzi-animation-6 {
          animation: keyframes6 0.7122395833333334s both;
          animation-delay: 4.365397135416667s;
          animation-timing-function: linear;
        }
      
        @keyframes keyframes7 {
          from {
            stroke: blue;
            stroke-dashoffset: 723;
            stroke-width: 128;
          }
          70% {
            animation-timing-function: step-end;
            stroke: blue;
            stroke-dashoffset: 0;
            stroke-width: 128;
          }
          to {
            stroke: black;
            stroke-width: 1024;
          }
        }
        #make-me-a-hanzi-animation-7 {
          animation: keyframes7 0.83837890625s both;
          animation-delay: 5.07763671875s;
          animation-timing-function: linear;
        }
      
        @keyframes keyframes8 {
          from {
            stroke: blue;
            stroke-dashoffset: 840;
            stroke-width: 128;
          }
          73% {
            animation-timing-function: step-end;
            stroke: blue;
            stroke-dashoffset: 0;
            stroke-width: 128;
          }
          to {
            stroke: black;
            stroke-width: 1024;
          }
        }
        #make-me-a-hanzi-animation-8 {
          animation: keyframes8 0.93359375s both;
          animation-delay: 5.916015625s;
          animation-timing-function: linear;
        }
      
        @keyframes keyframes9 {
          from {
            stroke: blue;
            stroke-dashoffset: 571;
            stroke-width: 128;
          }
          65% {
            animation-timing-function: step-end;
            stroke: blue;
            stroke-dashoffset: 0;
            stroke-width: 128;
          }
          to {
            stroke: black;
            stroke-width: 1024;
          }
        }
        #make-me-a-hanzi-animation-9 {
          animation: keyframes9 0.7146809895833334s both;
          animation-delay: 6.849609375s;
          animation-timing-function: linear;
        }
      
        @keyframes keyframes10 {
          from {
            stroke: blue;
            stroke-dashoffset: 852;
            stroke-width: 128;
          }
          73% {
            animation-timing-function: step-end;
            stroke: blue;
            stroke-dashoffset: 0;
            stroke-width: 128;
          }
          to {
            stroke: black;
            stroke-width: 1024;
          }
        }
        #make-me-a-hanzi-animation-10 {
          animation: keyframes10 0.943359375s both;
          animation-delay: 7.564290364583333s;
          animation-timing-function: linear;
        }
      
        @keyframes keyframes11 {
          from {
            stroke: blue;
            stroke-dashoffset: 699;
            stroke-width: 128;
          }
          69% {
            animation-timing-function: step-end;
            stroke: blue;
            stroke-dashoffset: 0;
            stroke-width: 128;
          }
          to {
            stroke: black;
            stroke-width: 1024;
          }
        }
        #make-me-a-hanzi-animation-11 {
          animation: keyframes11 0.81884765625s both;
          animation-delay: 8.507649739583332s;
          animation-timing-function: linear;
        }
      
        @keyframes keyframes12 {
          from {
            stroke: blue;
            stroke-dashoffset: 739;
            stroke-width: 128;
          }
          71% {
            animation-timing-function: step-end;
            stroke: blue;
            stroke-dashoffset: 0;
            stroke-width: 128;
          }
          to {
            stroke: black;
            stroke-width: 1024;
          }
        }
        #make-me-a-hanzi-animation-12 {
          animation: keyframes12 0.8513997395833334s both;
          animation-delay: 9.326497395833332s;
          animation-timing-function: linear;
        }
      
    </style>
    
      <path d="M 194 384 Q 198 406 205 496 L 206 532 Q 207 551 207 570 Q 207 657 214 679 C 217 695 217 695 191 707 Q 181 714 165 718 Q 147 725 137 720 Q 127 713 134 701 Q 149 686 157 631 Q 157 612 159 589 Q 163 507 157 436 Q 144 268 44 76 Q 40 70 39 64 Q 38 54 46 58 Q 61 61 91 110 Q 160 201 188 349 L 194 384 Z" fill="lightgray"></path>
    
      <path d="M 214 679 Q 217 680 224 682 Q 249 691 276 700 Q 294 707 299 697 Q 314 658 314 370 Q 311 139 297 118 Q 293 115 219 127 Q 200 133 201 123 Q 258 80 290 45 Q 303 27 318 23 Q 327 19 334 29 Q 371 72 370 128 Q 360 332 360 634 Q 360 668 371 686 Q 383 705 371 714 Q 350 730 316 745 Q 297 754 254 727 Q 224 715 191 707 C 162 699 186 669 214 679 Z" fill="lightgray"></path>
    
      <path d="M 205 496 Q 245 506 278 512 Q 300 518 290 529 Q 278 542 254 543 Q 235 543 206 532 C 178 522 176 489 205 496 Z" fill="lightgray"></path>
    
      <path d="M 188 349 Q 236 356 272 360 Q 294 364 285 377 Q 275 390 251 393 Q 229 394 194 384 C 165 376 158 345 188 349 Z" fill="lightgray"></path>
    
      <path d="M 468 693 Q 486 675 504 654 Q 514 642 528 642 Q 537 642 541 653 Q 545 665 540 689 Q 533 713 466 733 Q 453 737 448 735 Q 444 732 444 721 Q 447 711 468 693 Z" fill="lightgray"></path>
    
      <path d="M 713 761 Q 700 740 663 696 Q 653 683 668 684 Q 710 702 746 722 Q 762 734 782 741 Q 801 748 792 764 Q 782 779 761 792 Q 742 805 731 803 Q 721 802 723 791 Q 724 775 713 761 Z" fill="lightgray"></path>
    
      <path d="M 594 574 Q 649 587 712 598 Q 752 607 759 613 Q 768 620 763 629 Q 756 639 728 647 Q 698 653 607 622 L 558 610 Q 507 601 453 596 Q 419 590 443 574 Q 482 550 537 563 Q 538 564 545 564 L 594 574 Z" fill="lightgray"></path>
    
      <path d="M 687 495 Q 747 501 846 502 Q 864 503 867 510 Q 871 520 857 532 Q 805 566 753 549 Q 695 537 608 521 Q 590 520 573 515 L 524 507 Q 463 498 398 487 Q 380 486 394 471 Q 407 459 422 455 Q 440 451 454 455 Q 479 462 508 469 L 558 478 Q 595 487 655 493 L 687 495 Z" fill="lightgray"></path>
    
      <path d="M 573 515 Q 583 542 594 574 L 607 622 Q 634 733 650 758 Q 659 771 653 779 Q 638 803 592 812 Q 579 816 564 808 Q 554 798 564 789 Q 579 776 582 759 Q 588 735 566 640 Q 562 625 558 610 L 545 564 Q 535 536 524 507 L 508 469 Q 474 400 400 304 Q 391 289 402 288 Q 406 287 417 296 Q 501 356 558 478 L 573 515 Z" fill="lightgray"></path>
    
      <path d="M 655 493 Q 656 492 658 490 Q 719 414 798 336 Q 813 323 834 326 Q 909 336 932 343 Q 939 344 940 349 Q 940 353 930 357 Q 813 393 739 452 Q 714 473 687 495 C 664 514 635 516 655 493 Z" fill="lightgray"></path>
    
      <path d="M 576 277 Q 592 323 609 343 Q 618 350 615 359 Q 609 372 574 398 Q 564 407 553 403 Q 541 399 548 385 Q 557 363 550 341 Q 540 302 529 270 L 513 229 Q 480 163 481 155 Q 484 145 500 142 Q 540 129 580 104 L 621 79 Q 673 45 748 -22 Q 772 -41 788 -42 Q 807 -43 809 -24 Q 810 -5 784 40 Q 772 67 651 117 L 609 135 Q 572 151 543 160 Q 521 164 533 185 Q 546 215 557 237 L 576 277 Z" fill="lightgray"></path>
    
      <path d="M 716 299 Q 706 309 686 315 Q 667 324 650 320 Q 638 316 645 302 Q 648 296 650 288 L 653 248 Q 647 188 610 137 Q 609 137 609 135 L 580 104 Q 517 56 415 24 Q 399 17 418 14 Q 532 7 621 79 L 651 117 Q 687 180 699 222 Q 703 240 708 252 C 718 280 723 294 716 299 Z" fill="lightgray"></path>
    
      <path d="M 708 252 Q 742 255 860 255 Q 879 255 883 263 Q 887 273 873 287 Q 821 326 758 308 Q 737 305 716 299 L 650 288 Q 635 288 576 277 L 529 270 Q 465 263 399 253 Q 380 250 394 235 Q 407 222 424 217 Q 443 213 459 217 Q 484 224 513 229 L 557 237 Q 579 241 605 243 Q 627 247 653 248 L 708 252 Z" fill="lightgray"></path>
    
    
      <clipPath id="make-me-a-hanzi-clip-0">
        <path d="M 194 384 Q 198 406 205 496 L 206 532 Q 207 551 207 570 Q 207 657 214 679 C 217 695 217 695 191 707 Q 181 714 165 718 Q 147 725 137 720 Q 127 713 134 701 Q 149 686 157 631 Q 157 612 159 589 Q 163 507 157 436 Q 144 268 44 76 Q 40 70 39 64 Q 38 54 46 58 Q 61 61 91 110 Q 160 201 188 349 L 194 384 Z"></path>
      </clipPath>
      <path clip-path="url(#make-me-a-hanzi-clip-0)" d="M 144 709 L 173 684 L 182 657 L 183 486 L 174 391 L 163 328 L 121 196 L 76 107 L 46 66" fill="none" id="make-me-a-hanzi-animation-0" stroke-dasharray="814 1628" stroke-linecap="round"></path>
    
      <clipPath id="make-me-a-hanzi-clip-1">
        <path d="M 214 679 Q 217 680 224 682 Q 249 691 276 700 Q 294 707 299 697 Q 314 658 314 370 Q 311 139 297 118 Q 293 115 219 127 Q 200 133 201 123 Q 258 80 290 45 Q 303 27 318 23 Q 327 19 334 29 Q 371 72 370 128 Q 360 332 360 634 Q 360 668 371 686 Q 383 705 371 714 Q 350 730 316 745 Q 297 754 254 727 Q 224 715 191 707 C 162 699 186 669 214 679 Z"></path>
      </clipPath>
      <path clip-path="url(#make-me-a-hanzi-clip-1)" d="M 198 705 L 220 698 L 297 724 L 314 719 L 336 695 L 339 242 L 334 113 L 317 79 L 210 121" fill="none" id="make-me-a-hanzi-animation-1" stroke-dasharray="1018 2036" stroke-linecap="round"></path>
    
      <clipPath id="make-me-a-hanzi-clip-2">
        <path d="M 205 496 Q 245 506 278 512 Q 300 518 290 529 Q 278 542 254 543 Q 235 543 206 532 C 178 522 176 489 205 496 Z"></path>
      </clipPath>
      <path clip-path="url(#make-me-a-hanzi-clip-2)" d="M 212 502 L 218 514 L 231 521 L 259 526 L 282 522" fill="none" id="make-me-a-hanzi-animation-2" stroke-dasharray="208 416" stroke-linecap="round"></path>
    
      <clipPath id="make-me-a-hanzi-clip-3">
        <path d="M 188 349 Q 236 356 272 360 Q 294 364 285 377 Q 275 390 251 393 Q 229 394 194 384 C 165 376 158 345 188 349 Z"></path>
      </clipPath>
      <path clip-path="url(#make-me-a-hanzi-clip-3)" d="M 195 354 L 222 372 L 255 376 L 276 370" fill="none" id="make-me-a-hanzi-animation-3" stroke-dasharray="216 432" stroke-linecap="round"></path>
    
      <clipPath id="make-me-a-hanzi-clip-4">
        <path d="M 468 693 Q 486 675 504 654 Q 514 642 528 642 Q 537 642 541 653 Q 545 665 540 689 Q 533 713 466 733 Q 453 737 448 735 Q 444 732 444 721 Q 447 711 468 693 Z"></path>
      </clipPath>
      <path clip-path="url(#make-me-a-hanzi-clip-4)" d="M 452 726 L 515 681 L 527 656" fill="none" id="make-me-a-hanzi-animation-4" stroke-dasharray="233 466" stroke-linecap="round"></path>
    
      <clipPath id="make-me-a-hanzi-clip-5">
        <path d="M 713 761 Q 700 740 663 696 Q 653 683 668 684 Q 710 702 746 722 Q 762 734 782 741 Q 801 748 792 764 Q 782 779 761 792 Q 742 805 731 803 Q 721 802 723 791 Q 724 775 713 761 Z"></path>
      </clipPath>
      <path clip-path="url(#make-me-a-hanzi-clip-5)" d="M 736 791 L 749 760 L 672 693" fill="none" id="make-me-a-hanzi-animation-5" stroke-dasharray="264 528" stroke-linecap="round"></path>
    
      <clipPath id="make-me-a-hanzi-clip-6">
        <path d="M 594 574 Q 649 587 712 598 Q 752 607 759 613 Q 768 620 763 629 Q 756 639 728 647 Q 698 653 607 622 L 558 610 Q 507 601 453 596 Q 419 590 443 574 Q 482 550 537 563 Q 538 564 545 564 L 594 574 Z"></path>
      </clipPath>
      <path clip-path="url(#make-me-a-hanzi-clip-6)" d="M 446 586 L 509 580 L 694 621 L 753 623" fill="none" id="make-me-a-hanzi-animation-6" stroke-dasharray="440 880" stroke-linecap="round"></path>
    
      <clipPath id="make-me-a-hanzi-clip-7">
        <path d="M 687 495 Q 747 501 846 502 Q 864 503 867 510 Q 871 520 857 532 Q 805 566 753 549 Q 695 537 608 521 Q 590 520 573 515 L 524 507 Q 463 498 398 487 Q 380 486 394 471 Q 407 459 422 455 Q 440 451 454 455 Q 479 462 508 469 L 558 478 Q 595 487 655 493 L 687 495 Z"></path>
      </clipPath>
      <path clip-path="url(#make-me-a-hanzi-clip-7)" d="M 396 479 L 439 473 L 636 510 L 790 528 L 857 515" fill="none" id="make-me-a-hanzi-animation-7" stroke-dasharray="595 1190" stroke-linecap="round"></path>
    
      <clipPath id="make-me-a-hanzi-clip-8">
        <path d="M 573 515 Q 583 542 594 574 L 607 622 Q 634 733 650 758 Q 659 771 653 779 Q 638 803 592 812 Q 579 816 564 808 Q 554 798 564 789 Q 579 776 582 759 Q 588 735 566 640 Q 562 625 558 610 L 545 564 Q 535 536 524 507 L 508 469 Q 474 400 400 304 Q 391 289 402 288 Q 406 287 417 296 Q 501 356 558 478 L 573 515 Z"></path>
      </clipPath>
      <path clip-path="url(#make-me-a-hanzi-clip-8)" d="M 571 799 L 596 787 L 616 768 L 590 639 L 561 543 L 529 463 L 504 420 L 454 348 L 403 296" fill="none" id="make-me-a-hanzi-animation-8" stroke-dasharray="712 1424" stroke-linecap="round"></path>
    
      <clipPath id="make-me-a-hanzi-clip-9">
        <path d="M 655 493 Q 656 492 658 490 Q 719 414 798 336 Q 813 323 834 326 Q 909 336 932 343 Q 939 344 940 349 Q 940 353 930 357 Q 813 393 739 452 Q 714 473 687 495 C 664 514 635 516 655 493 Z"></path>
      </clipPath>
      <path clip-path="url(#make-me-a-hanzi-clip-9)" d="M 664 486 L 684 480 L 755 412 L 822 361 L 933 350" fill="none" id="make-me-a-hanzi-animation-9" stroke-dasharray="443 886" stroke-linecap="round"></path>
    
      <clipPath id="make-me-a-hanzi-clip-10">
        <path d="M 576 277 Q 592 323 609 343 Q 618 350 615 359 Q 609 372 574 398 Q 564 407 553 403 Q 541 399 548 385 Q 557 363 550 341 Q 540 302 529 270 L 513 229 Q 480 163 481 155 Q 484 145 500 142 Q 540 129 580 104 L 621 79 Q 673 45 748 -22 Q 772 -41 788 -42 Q 807 -43 809 -24 Q 810 -5 784 40 Q 772 67 651 117 L 609 135 Q 572 151 543 160 Q 521 164 533 185 Q 546 215 557 237 L 576 277 Z"></path>
      </clipPath>
      <path clip-path="url(#make-me-a-hanzi-clip-10)" d="M 556 393 L 571 378 L 582 354 L 507 164 L 692 67 L 748 27 L 791 -24" fill="none" id="make-me-a-hanzi-animation-10" stroke-dasharray="724 1448" stroke-linecap="round"></path>
    
      <clipPath id="make-me-a-hanzi-clip-11">
        <path d="M 716 299 Q 706 309 686 315 Q 667 324 650 320 Q 638 316 645 302 Q 648 296 650 288 L 653 248 Q 647 188 610 137 Q 609 137 609 135 L 580 104 Q 517 56 415 24 Q 399 17 418 14 Q 532 7 621 79 L 651 117 Q 687 180 699 222 Q 703 240 708 252 C 718 280 723 294 716 299 Z"></path>
      </clipPath>
      <path clip-path="url(#make-me-a-hanzi-clip-11)" d="M 653 310 L 682 281 L 677 236 L 652 164 L 615 107 L 588 82 L 527 47 L 472 28 L 425 22" fill="none" id="make-me-a-hanzi-animation-11" stroke-dasharray="571 1142" stroke-linecap="round"></path>
    
      <clipPath id="make-me-a-hanzi-clip-12">
        <path d="M 708 252 Q 742 255 860 255 Q 879 255 883 263 Q 887 273 873 287 Q 821 326 758 308 Q 737 305 716 299 L 650 288 Q 635 288 576 277 L 529 270 Q 465 263 399 253 Q 380 250 394 235 Q 407 222 424 217 Q 443 213 459 217 Q 484 224 513 229 L 557 237 Q 579 241 605 243 Q 627 247 653 248 L 708 252 Z"></path>
      </clipPath>
      <path clip-path="url(#make-me-a-hanzi-clip-12)" d="M 397 244 L 433 236 L 590 262 L 796 285 L 842 279 L 873 268" fill="none" id="make-me-a-hanzi-animation-12" stroke-dasharray="611 1222" stroke-linecap="round"></path>
    
  </g>
</svg>