<svg version="1.1" viewBox="0 0 1024 1024" xmlns="http://www.w3.org/2000/svg">
  <g stroke="lightgray" stroke-dasharray="1,1" stroke-width="1" transform="scale(4, 4)">
    <line x1="0" y1="0" x2="256" y2="256"></line>
    <line x1="256" y1="0" x2="0" y2="256"></line>
    <line x1="128" y1="0" x2="128" y2="256"></line>
    <line x1="0" y1="128" x2="256" y2="128"></line>
  </g>
  <g transform="scale(1, -1) translate(0, -900)">
    <style type="text/css">
      
        @keyframes keyframes0 {
          from {
            stroke: blue;
            stroke-dashoffset: 996;
            stroke-width: 128;
          }
          76% {
            animation-timing-function: step-end;
            stroke: blue;
            stroke-dashoffset: 0;
            stroke-width: 128;
          }
          to {
            stroke: black;
            stroke-width: 1024;
          }
        }
        #make-me-a-hanzi-animation-0 {
          animation: keyframes0 1.060546875s both;
          animation-delay: 0s;
          animation-timing-function: linear;
        }
      
        @keyframes keyframes1 {
          from {
            stroke: blue;
            stroke-dashoffset: 748;
            stroke-width: 128;
          }
          71% {
            animation-timing-function: step-end;
            stroke: blue;
            stroke-dashoffset: 0;
            stroke-width: 128;
          }
          to {
            stroke: black;
            stroke-width: 1024;
          }
        }
        #make-me-a-hanzi-animation-1 {
          animation: keyframes1 0.8587239583333334s both;
          animation-delay: 1.060546875s;
          animation-timing-function: linear;
        }
      
        @keyframes keyframes2 {
          from {
            stroke: blue;
            stroke-dashoffset: 519;
            stroke-width: 128;
          }
          63% {
            animation-timing-function: step-end;
            stroke: blue;
            stroke-dashoffset: 0;
            stroke-width: 128;
          }
          to {
            stroke: black;
            stroke-width: 1024;
          }
        }
        #make-me-a-hanzi-animation-2 {
          animation: keyframes2 0.67236328125s both;
          animation-delay: 1.9192708333333335s;
          animation-timing-function: linear;
        }
      
        @keyframes keyframes3 {
          from {
            stroke: blue;
            stroke-dashoffset: 374;
            stroke-width: 128;
          }
          55% {
            animation-timing-function: step-end;
            stroke: blue;
            stroke-dashoffset: 0;
            stroke-width: 128;
          }
          to {
            stroke: black;
            stroke-width: 1024;
          }
        }
        #make-me-a-hanzi-animation-3 {
          animation: keyframes3 0.5543619791666666s both;
          animation-delay: 2.5916341145833335s;
          animation-timing-function: linear;
        }
      
        @keyframes keyframes4 {
          from {
            stroke: blue;
            stroke-dashoffset: 723;
            stroke-width: 128;
          }
          70% {
            animation-timing-function: step-end;
            stroke: blue;
            stroke-dashoffset: 0;
            stroke-width: 128;
          }
          to {
            stroke: black;
            stroke-width: 1024;
          }
        }
        #make-me-a-hanzi-animation-4 {
          animation: keyframes4 0.83837890625s both;
          animation-delay: 3.14599609375s;
          animation-timing-function: linear;
        }
      
        @keyframes keyframes5 {
          from {
            stroke: blue;
            stroke-dashoffset: 380;
            stroke-width: 128;
          }
          55% {
            animation-timing-function: step-end;
            stroke: blue;
            stroke-dashoffset: 0;
            stroke-width: 128;
          }
          to {
            stroke: black;
            stroke-width: 1024;
          }
        }
        #make-me-a-hanzi-animation-5 {
          animation: keyframes5 0.5592447916666666s both;
          animation-delay: 3.984375s;
          animation-timing-function: linear;
        }
      
        @keyframes keyframes6 {
          from {
            stroke: blue;
            stroke-dashoffset: 464;
            stroke-width: 128;
          }
          60% {
            animation-timing-function: step-end;
            stroke: blue;
            stroke-dashoffset: 0;
            stroke-width: 128;
          }
          to {
            stroke: black;
            stroke-width: 1024;
          }
        }
        #make-me-a-hanzi-animation-6 {
          animation: keyframes6 0.6276041666666666s both;
          animation-delay: 4.543619791666667s;
          animation-timing-function: linear;
        }
      
        @keyframes keyframes7 {
          from {
            stroke: blue;
            stroke-dashoffset: 366;
            stroke-width: 128;
          }
          54% {
            animation-timing-function: step-end;
            stroke: blue;
            stroke-dashoffset: 0;
            stroke-width: 128;
          }
          to {
            stroke: black;
            stroke-width: 1024;
          }
        }
        #make-me-a-hanzi-animation-7 {
          animation: keyframes7 0.5478515625s both;
          animation-delay: 5.171223958333334s;
          animation-timing-function: linear;
        }
      
        @keyframes keyframes8 {
          from {
            stroke: blue;
            stroke-dashoffset: 372;
            stroke-width: 128;
          }
          55% {
            animation-timing-function: step-end;
            stroke: blue;
            stroke-dashoffset: 0;
            stroke-width: 128;
          }
          to {
            stroke: black;
            stroke-width: 1024;
          }
        }
        #make-me-a-hanzi-animation-8 {
          animation: keyframes8 0.552734375s both;
          animation-delay: 5.719075520833334s;
          animation-timing-function: linear;
        }
      
        @keyframes keyframes9 {
          from {
            stroke: blue;
            stroke-dashoffset: 474;
            stroke-width: 128;
          }
          61% {
            animation-timing-function: step-end;
            stroke: blue;
            stroke-dashoffset: 0;
            stroke-width: 128;
          }
          to {
            stroke: black;
            stroke-width: 1024;
          }
        }
        #make-me-a-hanzi-animation-9 {
          animation: keyframes9 0.6357421875s both;
          animation-delay: 6.271809895833334s;
          animation-timing-function: linear;
        }
      
        @keyframes keyframes10 {
          from {
            stroke: blue;
            stroke-dashoffset: 375;
            stroke-width: 128;
          }
          55% {
            animation-timing-function: step-end;
            stroke: blue;
            stroke-dashoffset: 0;
            stroke-width: 128;
          }
          to {
            stroke: black;
            stroke-width: 1024;
          }
        }
        #make-me-a-hanzi-animation-10 {
          animation: keyframes10 0.55517578125s both;
          animation-delay: 6.907552083333334s;
          animation-timing-function: linear;
        }
      
        @keyframes keyframes11 {
          from {
            stroke: blue;
            stroke-dashoffset: 611;
            stroke-width: 128;
          }
          67% {
            animation-timing-function: step-end;
            stroke: blue;
            stroke-dashoffset: 0;
            stroke-width: 128;
          }
          to {
            stroke: black;
            stroke-width: 1024;
          }
        }
        #make-me-a-hanzi-animation-11 {
          animation: keyframes11 0.7472330729166666s both;
          animation-delay: 7.462727864583334s;
          animation-timing-function: linear;
        }
      
        @keyframes keyframes12 {
          from {
            stroke: blue;
            stroke-dashoffset: 554;
            stroke-width: 128;
          }
          64% {
            animation-timing-function: step-end;
            stroke: blue;
            stroke-dashoffset: 0;
            stroke-width: 128;
          }
          to {
            stroke: black;
            stroke-width: 1024;
          }
        }
        #make-me-a-hanzi-animation-12 {
          animation: keyframes12 0.7008463541666666s both;
          animation-delay: 8.2099609375s;
          animation-timing-function: linear;
        }
      
        @keyframes keyframes13 {
          from {
            stroke: blue;
            stroke-dashoffset: 468;
            stroke-width: 128;
          }
          60% {
            animation-timing-function: step-end;
            stroke: blue;
            stroke-dashoffset: 0;
            stroke-width: 128;
          }
          to {
            stroke: black;
            stroke-width: 1024;
          }
        }
        #make-me-a-hanzi-animation-13 {
          animation: keyframes13 0.630859375s both;
          animation-delay: 8.910807291666666s;
          animation-timing-function: linear;
        }
      
        @keyframes keyframes14 {
          from {
            stroke: blue;
            stroke-dashoffset: 493;
            stroke-width: 128;
          }
          62% {
            animation-timing-function: step-end;
            stroke: blue;
            stroke-dashoffset: 0;
            stroke-width: 128;
          }
          to {
            stroke: black;
            stroke-width: 1024;
          }
        }
        #make-me-a-hanzi-animation-14 {
          animation: keyframes14 0.6512044270833334s both;
          animation-delay: 9.541666666666666s;
          animation-timing-function: linear;
        }
      
        @keyframes keyframes15 {
          from {
            stroke: blue;
            stroke-dashoffset: 733;
            stroke-width: 128;
          }
          70% {
            animation-timing-function: step-end;
            stroke: blue;
            stroke-dashoffset: 0;
            stroke-width: 128;
          }
          to {
            stroke: black;
            stroke-width: 1024;
          }
        }
        #make-me-a-hanzi-animation-15 {
          animation: keyframes15 0.8465169270833334s both;
          animation-delay: 10.19287109375s;
          animation-timing-function: linear;
        }
      
        @keyframes keyframes16 {
          from {
            stroke: blue;
            stroke-dashoffset: 590;
            stroke-width: 128;
          }
          66% {
            animation-timing-function: step-end;
            stroke: blue;
            stroke-dashoffset: 0;
            stroke-width: 128;
          }
          to {
            stroke: black;
            stroke-width: 1024;
          }
        }
        #make-me-a-hanzi-animation-16 {
          animation: keyframes16 0.7301432291666666s both;
          animation-delay: 11.039388020833334s;
          animation-timing-function: linear;
        }
      
        @keyframes keyframes17 {
          from {
            stroke: blue;
            stroke-dashoffset: 596;
            stroke-width: 128;
          }
          66% {
            animation-timing-function: step-end;
            stroke: blue;
            stroke-dashoffset: 0;
            stroke-width: 128;
          }
          to {
            stroke: black;
            stroke-width: 1024;
          }
        }
        #make-me-a-hanzi-animation-17 {
          animation: keyframes17 0.7350260416666666s both;
          animation-delay: 11.76953125s;
          animation-timing-function: linear;
        }
      
        @keyframes keyframes18 {
          from {
            stroke: blue;
            stroke-dashoffset: 379;
            stroke-width: 128;
          }
          55% {
            animation-timing-function: step-end;
            stroke: blue;
            stroke-dashoffset: 0;
            stroke-width: 128;
          }
          to {
            stroke: black;
            stroke-width: 1024;
          }
        }
        #make-me-a-hanzi-animation-18 {
          animation: keyframes18 0.5584309895833334s both;
          animation-delay: 12.504557291666666s;
          animation-timing-function: linear;
        }
      
        @keyframes keyframes19 {
          from {
            stroke: blue;
            stroke-dashoffset: 757;
            stroke-width: 128;
          }
          71% {
            animation-timing-function: step-end;
            stroke: blue;
            stroke-dashoffset: 0;
            stroke-width: 128;
          }
          to {
            stroke: black;
            stroke-width: 1024;
          }
        }
        #make-me-a-hanzi-animation-19 {
          animation: keyframes19 0.8660481770833334s both;
          animation-delay: 13.06298828125s;
          animation-timing-function: linear;
        }
      
    </style>
    
      <path d="M 229 419 Q 254 531 274 645 Q 281 688 296 712 Q 306 733 299 744 Q 286 760 242 783 Q 223 793 208 784 Q 198 777 207 763 Q 243 715 192 410 L 183 366 Q 173 324 156 289 Q 149 268 167 254 Q 206 232 237 204 L 270 176 Q 319 127 331 124 Q 338 125 344 135 Q 351 145 345 173 Q 339 203 296 224 L 258 242 Q 240 252 214 263 Q 195 273 197 291 Q 209 336 220 380 L 229 419 Z" fill="lightgray"></path>
    
      <path d="M 237 204 Q 185 137 127 97 Q 114 88 109 84 Q 106 78 117 77 Q 144 71 211 116 Q 245 143 270 176 L 296 224 Q 332 312 354 410 Q 361 426 364 436 Q 371 452 356 464 Q 319 492 306 492 Q 290 492 299 471 Q 305 455 304 437 L 301 409 Q 289 318 258 242 L 237 204 Z" fill="lightgray"></path>
    
      <path d="M 304 437 Q 267 430 229 419 L 192 410 Q 146 401 96 389 Q 80 385 52 388 Q 40 387 38 378 Q 37 368 43 360 Q 62 344 90 326 Q 99 323 109 330 Q 143 352 183 366 L 220 380 Q 259 395 301 409 C 329 419 333 443 304 437 Z" fill="lightgray"></path>
    
      <path d="M 556 819 Q 583 806 612 789 Q 625 782 639 785 Q 648 788 649 800 Q 650 813 636 836 Q 623 858 542 859 Q 529 858 523 855 Q 520 851 524 840 Q 530 831 556 819 Z" fill="lightgray"></path>
    
      <path d="M 385 706 Q 369 703 381 691 Q 402 673 446 682 Q 557 719 841 745 Q 857 746 860 753 Q 864 763 850 773 Q 805 801 760 787 Q 643 757 385 706 Z" fill="lightgray"></path>
    
      <path d="M 393 637 Q 384 638 382 634 Q 378 630 386 618 Q 405 593 424 545 Q 428 532 439 523 Q 454 510 456 521 Q 457 528 456 537 L 452 555 Q 439 604 436 617 C 432 636 423 636 393 637 Z" fill="lightgray"></path>
    
      <path d="M 554 575 Q 564 614 577 625 Q 593 644 576 653 Q 531 678 523 675 Q 519 675 516 672 Q 467 638 393 637 C 363 636 407 609 436 617 Q 472 627 499 634 Q 518 638 523 632 Q 527 629 523 611 Q 520 595 517 577 C 512 547 546 546 554 575 Z" fill="lightgray"></path>
    
      <path d="M 456 537 Q 457 537 460 536 Q 467 535 475 538 Q 503 545 562 555 Q 569 556 569 563 Q 569 567 554 575 C 537 584 537 584 517 577 Q 480 564 452 556 Q 451 556 452 555 C 434 542 434 542 456 537 Z" fill="lightgray"></path>
    
      <path d="M 645 679 Q 638 682 626 682 Q 619 683 616 680 Q 612 676 619 665 Q 637 638 651 593 Q 655 580 664 571 Q 677 558 680 568 Q 681 572 681 575 L 679 597 Q 670 643 665 659 C 661 674 661 674 645 679 Z" fill="lightgray"></path>
    
      <path d="M 793 612 Q 808 652 822 663 Q 841 682 823 694 Q 808 703 787 717 Q 774 726 732 703 Q 654 682 645 679 C 616 670 636 652 665 659 Q 669 660 678 662 Q 712 671 740 678 Q 759 682 764 675 L 752 616 C 746 587 782 584 793 612 Z" fill="lightgray"></path>
    
      <path d="M 681 575 Q 688 574 698 575 Q 731 582 800 590 Q 807 591 808 597 Q 808 601 793 612 C 778 623 778 623 752 616 Q 709 604 679 597 C 650 590 651 578 681 575 Z" fill="lightgray"></path>
    
      <path d="M 677 465 Q 731 475 776 481 Q 783 480 790 489 Q 791 498 774 505 Q 750 520 689 499 Q 685 499 682 497 L 633 484 Q 630 485 629 484 Q 589 474 554 467 L 513 460 Q 512 461 510 460 Q 470 456 427 449 Q 406 445 422 434 Q 443 416 469 422 Q 488 428 515 432 L 553 440 Q 590 450 634 458 L 677 465 Z" fill="lightgray"></path>
    
      <path d="M 668 383 Q 707 392 744 396 Q 763 399 757 410 Q 748 422 727 426 Q 708 429 673 420 Q 672 420 672 419 L 634 410 Q 589 401 552 392 L 517 384 Q 480 378 446 370 Q 433 367 449 355 Q 464 345 494 350 Q 506 353 518 354 L 552 361 Q 592 370 633 377 L 668 383 Z" fill="lightgray"></path>
    
      <path d="M 554 467 Q 555 474 555 479 Q 559 492 553 499 Q 535 515 520 522 Q 511 525 505 522 Q 499 518 501 511 Q 513 492 513 460 L 515 432 Q 515 413 517 384 L 518 354 Q 518 332 520 304 C 522 274 552 280 552 310 Q 552 337 552 361 L 552 392 Q 552 417 553 440 L 554 467 Z" fill="lightgray"></path>
    
      <path d="M 662 331 Q 665 358 668 383 L 672 419 Q 673 444 677 465 L 682 497 Q 688 516 690 524 Q 693 531 679 543 Q 654 556 637 561 Q 627 562 620 557 Q 614 553 620 541 Q 632 523 633 484 L 634 458 Q 634 436 634 410 L 633 377 Q 632 352 630 324 C 628 294 659 301 662 331 Z" fill="lightgray"></path>
    
      <path d="M 529 279 Q 649 315 851 315 Q 867 315 872 323 Q 875 332 862 341 Q 813 372 772 355 Q 726 346 662 331 L 630 324 Q 620 324 610 321 Q 580 317 552 310 L 520 304 Q 453 294 384 281 Q 369 280 381 267 Q 391 257 406 253 Q 422 250 433 254 Q 460 263 491 270 L 529 279 Z" fill="lightgray"></path>
    
      <path d="M 555 255 Q 555 258 555 260 Q 554 270 532 278 Q 531 279 529 279 C 501 290 499 291 491 270 Q 464 191 280 54 Q 264 42 285 44 Q 348 47 477 169 L 499 192 Q 526 223 541 238 C 555 253 555 253 555 255 Z" fill="lightgray"></path>
    
      <path d="M 477 169 Q 502 112 485 50 Q 481 22 468 6 Q 455 -15 463 -35 Q 473 -66 490 -78 Q 500 -85 512 -67 Q 540 -30 637 65 Q 653 78 654 86 Q 655 99 636 88 Q 600 67 560 45 Q 544 35 535 38 Q 528 42 529 59 Q 535 123 539 139 Q 543 157 531 169 Q 515 187 499 192 C 472 205 466 197 477 169 Z" fill="lightgray"></path>
    
      <path d="M 680 172 Q 741 209 773 222 Q 789 226 786 235 Q 782 248 766 266 Q 751 282 732 285 Q 719 285 719 269 Q 720 251 663 184 C 644 161 654 156 680 172 Z" fill="lightgray"></path>
    
      <path d="M 663 184 Q 638 205 612 227 Q 581 255 555 255 C 525 260 515 252 541 238 Q 587 216 680 120 Q 791 12 830 14 Q 903 18 963 33 Q 994 39 991 47 Q 990 51 959 59 Q 793 96 724 142 L 680 172 L 663 184 Z" fill="lightgray"></path>
    
    
      <clipPath id="make-me-a-hanzi-clip-0">
        <path d="M 229 419 Q 254 531 274 645 Q 281 688 296 712 Q 306 733 299 744 Q 286 760 242 783 Q 223 793 208 784 Q 198 777 207 763 Q 243 715 192 410 L 183 366 Q 173 324 156 289 Q 149 268 167 254 Q 206 232 237 204 L 270 176 Q 319 127 331 124 Q 338 125 344 135 Q 351 145 345 173 Q 339 203 296 224 L 258 242 Q 240 252 214 263 Q 195 273 197 291 Q 209 336 220 380 L 229 419 Z"></path>
      </clipPath>
      <path clip-path="url(#make-me-a-hanzi-clip-0)" d="M 216 773 L 239 757 L 259 726 L 220 460 L 176 279 L 194 256 L 301 187 L 322 161 L 331 132" fill="none" id="make-me-a-hanzi-animation-0" stroke-dasharray="868 1736" stroke-linecap="round"></path>
    
      <clipPath id="make-me-a-hanzi-clip-1">
        <path d="M 237 204 Q 185 137 127 97 Q 114 88 109 84 Q 106 78 117 77 Q 144 71 211 116 Q 245 143 270 176 L 296 224 Q 332 312 354 410 Q 361 426 364 436 Q 371 452 356 464 Q 319 492 306 492 Q 290 492 299 471 Q 305 455 304 437 L 301 409 Q 289 318 258 242 L 237 204 Z"></path>
      </clipPath>
      <path clip-path="url(#make-me-a-hanzi-clip-1)" d="M 306 480 L 322 465 L 334 440 L 308 321 L 280 238 L 255 192 L 214 145 L 162 103 L 115 83" fill="none" id="make-me-a-hanzi-animation-1" stroke-dasharray="620 1240" stroke-linecap="round"></path>
    
      <clipPath id="make-me-a-hanzi-clip-2">
        <path d="M 304 437 Q 267 430 229 419 L 192 410 Q 146 401 96 389 Q 80 385 52 388 Q 40 387 38 378 Q 37 368 43 360 Q 62 344 90 326 Q 99 323 109 330 Q 143 352 183 366 L 220 380 Q 259 395 301 409 C 329 419 333 443 304 437 Z"></path>
      </clipPath>
      <path clip-path="url(#make-me-a-hanzi-clip-2)" d="M 51 375 L 95 359 L 276 415 L 298 431" fill="none" id="make-me-a-hanzi-animation-2" stroke-dasharray="391 782" stroke-linecap="round"></path>
    
      <clipPath id="make-me-a-hanzi-clip-3">
        <path d="M 556 819 Q 583 806 612 789 Q 625 782 639 785 Q 648 788 649 800 Q 650 813 636 836 Q 623 858 542 859 Q 529 858 523 855 Q 520 851 524 840 Q 530 831 556 819 Z"></path>
      </clipPath>
      <path clip-path="url(#make-me-a-hanzi-clip-3)" d="M 530 848 L 613 821 L 634 799" fill="none" id="make-me-a-hanzi-animation-3" stroke-dasharray="246 492" stroke-linecap="round"></path>
    
      <clipPath id="make-me-a-hanzi-clip-4">
        <path d="M 385 706 Q 369 703 381 691 Q 402 673 446 682 Q 557 719 841 745 Q 857 746 860 753 Q 864 763 850 773 Q 805 801 760 787 Q 643 757 385 706 Z"></path>
      </clipPath>
      <path clip-path="url(#make-me-a-hanzi-clip-4)" d="M 391 696 L 435 697 L 535 722 L 773 765 L 820 765 L 850 758" fill="none" id="make-me-a-hanzi-animation-4" stroke-dasharray="595 1190" stroke-linecap="round"></path>
    
      <clipPath id="make-me-a-hanzi-clip-5">
        <path d="M 393 637 Q 384 638 382 634 Q 378 630 386 618 Q 405 593 424 545 Q 428 532 439 523 Q 454 510 456 521 Q 457 528 456 537 L 452 555 Q 439 604 436 617 C 432 636 423 636 393 637 Z"></path>
      </clipPath>
      <path clip-path="url(#make-me-a-hanzi-clip-5)" d="M 389 630 L 420 601 L 448 524" fill="none" id="make-me-a-hanzi-animation-5" stroke-dasharray="252 504" stroke-linecap="round"></path>
    
      <clipPath id="make-me-a-hanzi-clip-6">
        <path d="M 554 575 Q 564 614 577 625 Q 593 644 576 653 Q 531 678 523 675 Q 519 675 516 672 Q 467 638 393 637 C 363 636 407 609 436 617 Q 472 627 499 634 Q 518 638 523 632 Q 527 629 523 611 Q 520 595 517 577 C 512 547 546 546 554 575 Z"></path>
      </clipPath>
      <path clip-path="url(#make-me-a-hanzi-clip-6)" d="M 416 631 L 433 628 L 519 654 L 539 648 L 550 636 L 548 623 L 540 595 L 523 582" fill="none" id="make-me-a-hanzi-animation-6" stroke-dasharray="336 672" stroke-linecap="round"></path>
    
      <clipPath id="make-me-a-hanzi-clip-7">
        <path d="M 456 537 Q 457 537 460 536 Q 467 535 475 538 Q 503 545 562 555 Q 569 556 569 563 Q 569 567 554 575 C 537 584 537 584 517 577 Q 480 564 452 556 Q 451 556 452 555 C 434 542 434 542 456 537 Z"></path>
      </clipPath>
      <path clip-path="url(#make-me-a-hanzi-clip-7)" d="M 458 556 L 466 547 L 522 563 L 562 562" fill="none" id="make-me-a-hanzi-animation-7" stroke-dasharray="238 476" stroke-linecap="round"></path>
    
      <clipPath id="make-me-a-hanzi-clip-8">
        <path d="M 645 679 Q 638 682 626 682 Q 619 683 616 680 Q 612 676 619 665 Q 637 638 651 593 Q 655 580 664 571 Q 677 558 680 568 Q 681 572 681 575 L 679 597 Q 670 643 665 659 C 661 674 661 674 645 679 Z"></path>
      </clipPath>
      <path clip-path="url(#make-me-a-hanzi-clip-8)" d="M 623 674 L 649 649 L 672 572" fill="none" id="make-me-a-hanzi-animation-8" stroke-dasharray="244 488" stroke-linecap="round"></path>
    
      <clipPath id="make-me-a-hanzi-clip-9">
        <path d="M 793 612 Q 808 652 822 663 Q 841 682 823 694 Q 808 703 787 717 Q 774 726 732 703 Q 654 682 645 679 C 616 670 636 652 665 659 Q 669 660 678 662 Q 712 671 740 678 Q 759 682 764 675 L 752 616 C 746 587 782 584 793 612 Z"></path>
      </clipPath>
      <path clip-path="url(#make-me-a-hanzi-clip-9)" d="M 656 676 L 669 673 L 723 690 L 776 696 L 794 677 L 779 636 L 759 622" fill="none" id="make-me-a-hanzi-animation-9" stroke-dasharray="346 692" stroke-linecap="round"></path>
    
      <clipPath id="make-me-a-hanzi-clip-10">
        <path d="M 681 575 Q 688 574 698 575 Q 731 582 800 590 Q 807 591 808 597 Q 808 601 793 612 C 778 623 778 623 752 616 Q 709 604 679 597 C 650 590 651 578 681 575 Z"></path>
      </clipPath>
      <path clip-path="url(#make-me-a-hanzi-clip-10)" d="M 685 581 L 747 600 L 801 597" fill="none" id="make-me-a-hanzi-animation-10" stroke-dasharray="247 494" stroke-linecap="round"></path>
    
      <clipPath id="make-me-a-hanzi-clip-11">
        <path d="M 677 465 Q 731 475 776 481 Q 783 480 790 489 Q 791 498 774 505 Q 750 520 689 499 Q 685 499 682 497 L 633 484 Q 630 485 629 484 Q 589 474 554 467 L 513 460 Q 512 461 510 460 Q 470 456 427 449 Q 406 445 422 434 Q 443 416 469 422 Q 488 428 515 432 L 553 440 Q 590 450 634 458 L 677 465 Z"></path>
      </clipPath>
      <path clip-path="url(#make-me-a-hanzi-clip-11)" d="M 433 439 L 461 437 L 519 446 L 747 495 L 782 491" fill="none" id="make-me-a-hanzi-animation-11" stroke-dasharray="483 966" stroke-linecap="round"></path>
    
      <clipPath id="make-me-a-hanzi-clip-12">
        <path d="M 668 383 Q 707 392 744 396 Q 763 399 757 410 Q 748 422 727 426 Q 708 429 673 420 Q 672 420 672 419 L 634 410 Q 589 401 552 392 L 517 384 Q 480 378 446 370 Q 433 367 449 355 Q 464 345 494 350 Q 506 353 518 354 L 552 361 Q 592 370 633 377 L 668 383 Z"></path>
      </clipPath>
      <path clip-path="url(#make-me-a-hanzi-clip-12)" d="M 455 364 L 521 369 L 711 410 L 748 406" fill="none" id="make-me-a-hanzi-animation-12" stroke-dasharray="426 852" stroke-linecap="round"></path>
    
      <clipPath id="make-me-a-hanzi-clip-13">
        <path d="M 554 467 Q 555 474 555 479 Q 559 492 553 499 Q 535 515 520 522 Q 511 525 505 522 Q 499 518 501 511 Q 513 492 513 460 L 515 432 Q 515 413 517 384 L 518 354 Q 518 332 520 304 C 522 274 552 280 552 310 Q 552 337 552 361 L 552 392 Q 552 417 553 440 L 554 467 Z"></path>
      </clipPath>
      <path clip-path="url(#make-me-a-hanzi-clip-13)" d="M 513 513 L 533 486 L 534 475 L 536 330 L 524 311" fill="none" id="make-me-a-hanzi-animation-13" stroke-dasharray="340 680" stroke-linecap="round"></path>
    
      <clipPath id="make-me-a-hanzi-clip-14">
        <path d="M 662 331 Q 665 358 668 383 L 672 419 Q 673 444 677 465 L 682 497 Q 688 516 690 524 Q 693 531 679 543 Q 654 556 637 561 Q 627 562 620 557 Q 614 553 620 541 Q 632 523 633 484 L 634 458 Q 634 436 634 410 L 633 377 Q 632 352 630 324 C 628 294 659 301 662 331 Z"></path>
      </clipPath>
      <path clip-path="url(#make-me-a-hanzi-clip-14)" d="M 628 549 L 659 522 L 649 353 L 634 331" fill="none" id="make-me-a-hanzi-animation-14" stroke-dasharray="365 730" stroke-linecap="round"></path>
    
      <clipPath id="make-me-a-hanzi-clip-15">
        <path d="M 529 279 Q 649 315 851 315 Q 867 315 872 323 Q 875 332 862 341 Q 813 372 772 355 Q 726 346 662 331 L 630 324 Q 620 324 610 321 Q 580 317 552 310 L 520 304 Q 453 294 384 281 Q 369 280 381 267 Q 391 257 406 253 Q 422 250 433 254 Q 460 263 491 270 L 529 279 Z"></path>
      </clipPath>
      <path clip-path="url(#make-me-a-hanzi-clip-15)" d="M 393 272 L 424 270 L 604 310 L 796 338 L 863 327" fill="none" id="make-me-a-hanzi-animation-15" stroke-dasharray="605 1210" stroke-linecap="round"></path>
    
      <clipPath id="make-me-a-hanzi-clip-16">
        <path d="M 555 255 Q 555 258 555 260 Q 554 270 532 278 Q 531 279 529 279 C 501 290 499 291 491 270 Q 464 191 280 54 Q 264 42 285 44 Q 348 47 477 169 L 499 192 Q 526 223 541 238 C 555 253 555 253 555 255 Z"></path>
      </clipPath>
      <path clip-path="url(#make-me-a-hanzi-clip-16)" d="M 543 258 L 533 259 L 510 246 L 467 189 L 395 121 L 344 82 L 289 52" fill="none" id="make-me-a-hanzi-animation-16" stroke-dasharray="462 924" stroke-linecap="round"></path>
    
      <clipPath id="make-me-a-hanzi-clip-17">
        <path d="M 477 169 Q 502 112 485 50 Q 481 22 468 6 Q 455 -15 463 -35 Q 473 -66 490 -78 Q 500 -85 512 -67 Q 540 -30 637 65 Q 653 78 654 86 Q 655 99 636 88 Q 600 67 560 45 Q 544 35 535 38 Q 528 42 529 59 Q 535 123 539 139 Q 543 157 531 169 Q 515 187 499 192 C 472 205 466 197 477 169 Z"></path>
      </clipPath>
      <path clip-path="url(#make-me-a-hanzi-clip-17)" d="M 500 180 L 513 147 L 506 36 L 514 1 L 558 18 L 645 85" fill="none" id="make-me-a-hanzi-animation-17" stroke-dasharray="468 936" stroke-linecap="round"></path>
    
      <clipPath id="make-me-a-hanzi-clip-18">
        <path d="M 680 172 Q 741 209 773 222 Q 789 226 786 235 Q 782 248 766 266 Q 751 282 732 285 Q 719 285 719 269 Q 720 251 663 184 C 644 161 654 156 680 172 Z"></path>
      </clipPath>
      <path clip-path="url(#make-me-a-hanzi-clip-18)" d="M 732 272 L 744 243 L 683 188 L 674 190" fill="none" id="make-me-a-hanzi-animation-18" stroke-dasharray="251 502" stroke-linecap="round"></path>
    
      <clipPath id="make-me-a-hanzi-clip-19">
        <path d="M 663 184 Q 638 205 612 227 Q 581 255 555 255 C 525 260 515 252 541 238 Q 587 216 680 120 Q 791 12 830 14 Q 903 18 963 33 Q 994 39 991 47 Q 990 51 959 59 Q 793 96 724 142 L 680 172 L 663 184 Z"></path>
      </clipPath>
      <path clip-path="url(#make-me-a-hanzi-clip-19)" d="M 547 240 L 561 242 L 582 231 L 725 111 L 818 57 L 896 46 L 986 45" fill="none" id="make-me-a-hanzi-animation-19" stroke-dasharray="629 1258" stroke-linecap="round"></path>
    
  </g>
</svg>