<svg version="1.1" viewBox="0 0 1024 1024" xmlns="http://www.w3.org/2000/svg">
  <g stroke="lightgray" stroke-dasharray="1,1" stroke-width="1" transform="scale(4, 4)">
    <line x1="0" y1="0" x2="256" y2="256"></line>
    <line x1="256" y1="0" x2="0" y2="256"></line>
    <line x1="128" y1="0" x2="128" y2="256"></line>
    <line x1="0" y1="128" x2="256" y2="128"></line>
  </g>
  <g transform="scale(1, -1) translate(0, -900)">
    <style type="text/css">
      
        @keyframes keyframes0 {
          from {
            stroke: blue;
            stroke-dashoffset: 381;
            stroke-width: 128;
          }
          55% {
            animation-timing-function: step-end;
            stroke: blue;
            stroke-dashoffset: 0;
            stroke-width: 128;
          }
          to {
            stroke: black;
            stroke-width: 1024;
          }
        }
        #make-me-a-hanzi-animation-0 {
          animation: keyframes0 0.56005859375s both;
          animation-delay: 0s;
          animation-timing-function: linear;
        }
      
        @keyframes keyframes1 {
          from {
            stroke: blue;
            stroke-dashoffset: 459;
            stroke-width: 128;
          }
          60% {
            animation-timing-function: step-end;
            stroke: blue;
            stroke-dashoffset: 0;
            stroke-width: 128;
          }
          to {
            stroke: black;
            stroke-width: 1024;
          }
        }
        #make-me-a-hanzi-animation-1 {
          animation: keyframes1 0.62353515625s both;
          animation-delay: 0.56005859375s;
          animation-timing-function: linear;
        }
      
        @keyframes keyframes2 {
          from {
            stroke: blue;
            stroke-dashoffset: 931;
            stroke-width: 128;
          }
          75% {
            animation-timing-function: step-end;
            stroke: blue;
            stroke-dashoffset: 0;
            stroke-width: 128;
          }
          to {
            stroke: black;
            stroke-width: 1024;
          }
        }
        #make-me-a-hanzi-animation-2 {
          animation: keyframes2 1.0076497395833333s both;
          animation-delay: 1.18359375s;
          animation-timing-function: linear;
        }
      
        @keyframes keyframes3 {
          from {
            stroke: blue;
            stroke-dashoffset: 494;
            stroke-width: 128;
          }
          62% {
            animation-timing-function: step-end;
            stroke: blue;
            stroke-dashoffset: 0;
            stroke-width: 128;
          }
          to {
            stroke: black;
            stroke-width: 1024;
          }
        }
        #make-me-a-hanzi-animation-3 {
          animation: keyframes3 0.6520182291666666s both;
          animation-delay: 2.191243489583333s;
          animation-timing-function: linear;
        }
      
        @keyframes keyframes4 {
          from {
            stroke: blue;
            stroke-dashoffset: 372;
            stroke-width: 128;
          }
          55% {
            animation-timing-function: step-end;
            stroke: blue;
            stroke-dashoffset: 0;
            stroke-width: 128;
          }
          to {
            stroke: black;
            stroke-width: 1024;
          }
        }
        #make-me-a-hanzi-animation-4 {
          animation: keyframes4 0.552734375s both;
          animation-delay: 2.8432617187499996s;
          animation-timing-function: linear;
        }
      
        @keyframes keyframes5 {
          from {
            stroke: blue;
            stroke-dashoffset: 429;
            stroke-width: 128;
          }
          58% {
            animation-timing-function: step-end;
            stroke: blue;
            stroke-dashoffset: 0;
            stroke-width: 128;
          }
          to {
            stroke: black;
            stroke-width: 1024;
          }
        }
        #make-me-a-hanzi-animation-5 {
          animation: keyframes5 0.59912109375s both;
          animation-delay: 3.3959960937499996s;
          animation-timing-function: linear;
        }
      
        @keyframes keyframes6 {
          from {
            stroke: blue;
            stroke-dashoffset: 694;
            stroke-width: 128;
          }
          69% {
            animation-timing-function: step-end;
            stroke: blue;
            stroke-dashoffset: 0;
            stroke-width: 128;
          }
          to {
            stroke: black;
            stroke-width: 1024;
          }
        }
        #make-me-a-hanzi-animation-6 {
          animation: keyframes6 0.8147786458333334s both;
          animation-delay: 3.9951171874999996s;
          animation-timing-function: linear;
        }
      
        @keyframes keyframes7 {
          from {
            stroke: blue;
            stroke-dashoffset: 1091;
            stroke-width: 128;
          }
          78% {
            animation-timing-function: step-end;
            stroke: blue;
            stroke-dashoffset: 0;
            stroke-width: 128;
          }
          to {
            stroke: black;
            stroke-width: 1024;
          }
        }
        #make-me-a-hanzi-animation-7 {
          animation: keyframes7 1.1378580729166667s both;
          animation-delay: 4.809895833333333s;
          animation-timing-function: linear;
        }
      
        @keyframes keyframes8 {
          from {
            stroke: blue;
            stroke-dashoffset: 447;
            stroke-width: 128;
          }
          59% {
            animation-timing-function: step-end;
            stroke: blue;
            stroke-dashoffset: 0;
            stroke-width: 128;
          }
          to {
            stroke: black;
            stroke-width: 1024;
          }
        }
        #make-me-a-hanzi-animation-8 {
          animation: keyframes8 0.61376953125s both;
          animation-delay: 5.94775390625s;
          animation-timing-function: linear;
        }
      
        @keyframes keyframes9 {
          from {
            stroke: blue;
            stroke-dashoffset: 461;
            stroke-width: 128;
          }
          60% {
            animation-timing-function: step-end;
            stroke: blue;
            stroke-dashoffset: 0;
            stroke-width: 128;
          }
          to {
            stroke: black;
            stroke-width: 1024;
          }
        }
        #make-me-a-hanzi-animation-9 {
          animation: keyframes9 0.6251627604166666s both;
          animation-delay: 6.5615234375s;
          animation-timing-function: linear;
        }
      
    </style>
    
      <path d="M 477 809 Q 496 791 517 770 Q 532 757 548 758 Q 560 758 565 772 Q 569 788 559 819 Q 553 835 527 846 Q 460 864 448 859 Q 442 855 445 841 Q 449 831 477 809 Z" fill="lightgray"></path>
    
      <path d="M 262 687 Q 252 708 241 716 Q 222 731 219 704 Q 225 674 186 623 Q 153 587 155 566 Q 161 533 171 515 Q 187 487 207 516 Q 214 528 264 653 Q 265 656 266 658 C 271 670 271 670 262 687 Z" fill="lightgray"></path>
    
      <path d="M 266 658 Q 291 643 332 651 Q 464 691 693 712 Q 769 719 770 699 Q 770 693 735 633 Q 728 621 733 616 Q 740 612 756 622 Q 811 650 855 658 Q 891 665 890 674 Q 890 684 821 742 Q 799 763 727 750 Q 598 737 379 701 Q 324 694 268 688 Q 264 688 262 687 C 232 683 238 669 266 658 Z" fill="lightgray"></path>
    
      <path d="M 516 424 Q 528 574 544 610 Q 547 619 530 632 Q 500 648 480 652 Q 467 655 460 648 Q 453 641 460 629 Q 473 610 474 597 Q 481 512 479 415 C 478 385 514 394 516 424 Z" fill="lightgray"></path>
    
      <path d="M 322 528 Q 344 509 366 484 Q 378 474 391 473 Q 401 473 405 485 Q 409 498 403 523 Q 399 539 373 552 Q 315 576 300 571 Q 296 567 296 556 Q 300 546 322 528 Z" fill="lightgray"></path>
    
      <path d="M 644 596 Q 635 583 568 516 Q 558 503 572 504 Q 596 513 676 553 Q 694 565 716 571 Q 735 578 728 594 Q 718 610 697 625 Q 678 640 667 638 Q 655 638 658 626 Q 659 610 644 596 Z" fill="lightgray"></path>
    
      <path d="M 368 181 Q 369 227 374 262 L 376 287 Q 379 350 385 375 C 389 394 389 394 376 405 Q 352 429 322 426 Q 309 422 313 410 Q 358 310 306 108 Q 282 54 286 40 Q 287 10 303 -10 Q 310 -23 320 -18 Q 356 3 365 124 Q 366 143 367 159 L 368 181 Z" fill="lightgray"></path>
    
      <path d="M 385 375 Q 403 375 588 410 Q 610 414 615 403 Q 634 351 635 111 Q 635 57 626 42 Q 622 36 601 40 Q 570 49 536 58 Q 515 65 516 55 Q 580 0 617 -40 Q 630 -59 647 -65 Q 657 -69 666 -58 Q 708 -10 707 50 Q 671 341 697 392 Q 710 413 697 423 Q 675 442 636 459 Q 617 466 600 458 Q 549 433 516 424 L 479 415 Q 437 409 376 405 C 346 403 355 371 385 375 Z" fill="lightgray"></path>
    
      <path d="M 374 262 Q 383 261 395 262 Q 489 277 559 285 Q 581 289 573 301 Q 563 314 539 320 Q 515 323 376 287 C 347 280 344 264 374 262 Z" fill="lightgray"></path>
    
      <path d="M 367 159 Q 376 155 393 157 Q 495 170 570 178 Q 592 179 585 193 Q 575 206 552 212 Q 521 218 368 181 C 339 174 338 167 367 159 Z" fill="lightgray"></path>
    
    
      <clipPath id="make-me-a-hanzi-clip-0">
        <path d="M 477 809 Q 496 791 517 770 Q 532 757 548 758 Q 560 758 565 772 Q 569 788 559 819 Q 553 835 527 846 Q 460 864 448 859 Q 442 855 445 841 Q 449 831 477 809 Z"></path>
      </clipPath>
      <path clip-path="url(#make-me-a-hanzi-clip-0)" d="M 452 852 L 520 814 L 548 776" fill="none" id="make-me-a-hanzi-animation-0" stroke-dasharray="253 506" stroke-linecap="round"></path>
    
      <clipPath id="make-me-a-hanzi-clip-1">
        <path d="M 262 687 Q 252 708 241 716 Q 222 731 219 704 Q 225 674 186 623 Q 153 587 155 566 Q 161 533 171 515 Q 187 487 207 516 Q 214 528 264 653 Q 265 656 266 658 C 271 670 271 670 262 687 Z"></path>
      </clipPath>
      <path clip-path="url(#make-me-a-hanzi-clip-1)" d="M 231 709 L 240 683 L 239 663 L 193 574 L 188 519" fill="none" id="make-me-a-hanzi-animation-1" stroke-dasharray="331 662" stroke-linecap="round"></path>
    
      <clipPath id="make-me-a-hanzi-clip-2">
        <path d="M 266 658 Q 291 643 332 651 Q 464 691 693 712 Q 769 719 770 699 Q 770 693 735 633 Q 728 621 733 616 Q 740 612 756 622 Q 811 650 855 658 Q 891 665 890 674 Q 890 684 821 742 Q 799 763 727 750 Q 598 737 379 701 Q 324 694 268 688 Q 264 688 262 687 C 232 683 238 669 266 658 Z"></path>
      </clipPath>
      <path clip-path="url(#make-me-a-hanzi-clip-2)" d="M 266 680 L 288 670 L 321 671 L 430 694 L 672 728 L 741 734 L 789 725 L 813 692 L 738 621" fill="none" id="make-me-a-hanzi-animation-2" stroke-dasharray="803 1606" stroke-linecap="round"></path>
    
      <clipPath id="make-me-a-hanzi-clip-3">
        <path d="M 516 424 Q 528 574 544 610 Q 547 619 530 632 Q 500 648 480 652 Q 467 655 460 648 Q 453 641 460 629 Q 473 610 474 597 Q 481 512 479 415 C 478 385 514 394 516 424 Z"></path>
      </clipPath>
      <path clip-path="url(#make-me-a-hanzi-clip-3)" d="M 470 639 L 507 606 L 501 461 L 497 439 L 484 423" fill="none" id="make-me-a-hanzi-animation-3" stroke-dasharray="366 732" stroke-linecap="round"></path>
    
      <clipPath id="make-me-a-hanzi-clip-4">
        <path d="M 322 528 Q 344 509 366 484 Q 378 474 391 473 Q 401 473 405 485 Q 409 498 403 523 Q 399 539 373 552 Q 315 576 300 571 Q 296 567 296 556 Q 300 546 322 528 Z"></path>
      </clipPath>
      <path clip-path="url(#make-me-a-hanzi-clip-4)" d="M 305 562 L 367 525 L 391 488" fill="none" id="make-me-a-hanzi-animation-4" stroke-dasharray="244 488" stroke-linecap="round"></path>
    
      <clipPath id="make-me-a-hanzi-clip-5">
        <path d="M 644 596 Q 635 583 568 516 Q 558 503 572 504 Q 596 513 676 553 Q 694 565 716 571 Q 735 578 728 594 Q 718 610 697 625 Q 678 640 667 638 Q 655 638 658 626 Q 659 610 644 596 Z"></path>
      </clipPath>
      <path clip-path="url(#make-me-a-hanzi-clip-5)" d="M 670 626 L 682 592 L 611 537 L 580 522 L 573 511" fill="none" id="make-me-a-hanzi-animation-5" stroke-dasharray="301 602" stroke-linecap="round"></path>
    
      <clipPath id="make-me-a-hanzi-clip-6">
        <path d="M 368 181 Q 369 227 374 262 L 376 287 Q 379 350 385 375 C 389 394 389 394 376 405 Q 352 429 322 426 Q 309 422 313 410 Q 358 310 306 108 Q 282 54 286 40 Q 287 10 303 -10 Q 310 -23 320 -18 Q 356 3 365 124 Q 366 143 367 159 L 368 181 Z"></path>
      </clipPath>
      <path clip-path="url(#make-me-a-hanzi-clip-6)" d="M 323 415 L 346 397 L 355 375 L 356 298 L 344 166 L 321 55 L 315 -7" fill="none" id="make-me-a-hanzi-animation-6" stroke-dasharray="566 1132" stroke-linecap="round"></path>
    
      <clipPath id="make-me-a-hanzi-clip-7">
        <path d="M 385 375 Q 403 375 588 410 Q 610 414 615 403 Q 634 351 635 111 Q 635 57 626 42 Q 622 36 601 40 Q 570 49 536 58 Q 515 65 516 55 Q 580 0 617 -40 Q 630 -59 647 -65 Q 657 -69 666 -58 Q 708 -10 707 50 Q 671 341 697 392 Q 710 413 697 423 Q 675 442 636 459 Q 617 466 600 458 Q 549 433 516 424 L 479 415 Q 437 409 376 405 C 346 403 355 371 385 375 Z"></path>
      </clipPath>
      <path clip-path="url(#make-me-a-hanzi-clip-7)" d="M 385 400 L 396 391 L 478 400 L 618 435 L 643 420 L 657 402 L 670 85 L 663 23 L 647 -2 L 632 1 L 526 52" fill="none" id="make-me-a-hanzi-animation-7" stroke-dasharray="963 1926" stroke-linecap="round"></path>
    
      <clipPath id="make-me-a-hanzi-clip-8">
        <path d="M 374 262 Q 383 261 395 262 Q 489 277 559 285 Q 581 289 573 301 Q 563 314 539 320 Q 515 323 376 287 C 347 280 344 264 374 262 Z"></path>
      </clipPath>
      <path clip-path="url(#make-me-a-hanzi-clip-8)" d="M 379 268 L 392 279 L 503 298 L 541 301 L 563 295" fill="none" id="make-me-a-hanzi-animation-8" stroke-dasharray="319 638" stroke-linecap="round"></path>
    
      <clipPath id="make-me-a-hanzi-clip-9">
        <path d="M 367 159 Q 376 155 393 157 Q 495 170 570 178 Q 592 179 585 193 Q 575 206 552 212 Q 521 218 368 181 C 339 174 338 167 367 159 Z"></path>
      </clipPath>
      <path clip-path="url(#make-me-a-hanzi-clip-9)" d="M 374 164 L 407 177 L 514 192 L 554 194 L 575 188" fill="none" id="make-me-a-hanzi-animation-9" stroke-dasharray="333 666" stroke-linecap="round"></path>
    
  </g>
</svg>