<svg version="1.1" viewBox="0 0 1024 1024" xmlns="http://www.w3.org/2000/svg">
  <g stroke="lightgray" stroke-dasharray="1,1" stroke-width="1" transform="scale(4, 4)">
    <line x1="0" y1="0" x2="256" y2="256"></line>
    <line x1="256" y1="0" x2="0" y2="256"></line>
    <line x1="128" y1="0" x2="128" y2="256"></line>
    <line x1="0" y1="128" x2="256" y2="128"></line>
  </g>
  <g transform="scale(1, -1) translate(0, -900)">
    <style type="text/css">
      
        @keyframes keyframes0 {
          from {
            stroke: blue;
            stroke-dashoffset: 378;
            stroke-width: 128;
          }
          55% {
            animation-timing-function: step-end;
            stroke: blue;
            stroke-dashoffset: 0;
            stroke-width: 128;
          }
          to {
            stroke: black;
            stroke-width: 1024;
          }
        }
        #make-me-a-hanzi-animation-0 {
          animation: keyframes0 0.5576171875s both;
          animation-delay: 0s;
          animation-timing-function: linear;
        }
      
        @keyframes keyframes1 {
          from {
            stroke: blue;
            stroke-dashoffset: 441;
            stroke-width: 128;
          }
          59% {
            animation-timing-function: step-end;
            stroke: blue;
            stroke-dashoffset: 0;
            stroke-width: 128;
          }
          to {
            stroke: black;
            stroke-width: 1024;
          }
        }
        #make-me-a-hanzi-animation-1 {
          animation: keyframes1 0.60888671875s both;
          animation-delay: 0.5576171875s;
          animation-timing-function: linear;
        }
      
        @keyframes keyframes2 {
          from {
            stroke: blue;
            stroke-dashoffset: 869;
            stroke-width: 128;
          }
          74% {
            animation-timing-function: step-end;
            stroke: blue;
            stroke-dashoffset: 0;
            stroke-width: 128;
          }
          to {
            stroke: black;
            stroke-width: 1024;
          }
        }
        #make-me-a-hanzi-animation-2 {
          animation: keyframes2 0.9571940104166666s both;
          animation-delay: 1.16650390625s;
          animation-timing-function: linear;
        }
      
        @keyframes keyframes3 {
          from {
            stroke: blue;
            stroke-dashoffset: 541;
            stroke-width: 128;
          }
          64% {
            animation-timing-function: step-end;
            stroke: blue;
            stroke-dashoffset: 0;
            stroke-width: 128;
          }
          to {
            stroke: black;
            stroke-width: 1024;
          }
        }
        #make-me-a-hanzi-animation-3 {
          animation: keyframes3 0.6902669270833334s both;
          animation-delay: 2.1236979166666665s;
          animation-timing-function: linear;
        }
      
        @keyframes keyframes4 {
          from {
            stroke: blue;
            stroke-dashoffset: 343;
            stroke-width: 128;
          }
          53% {
            animation-timing-function: step-end;
            stroke: blue;
            stroke-dashoffset: 0;
            stroke-width: 128;
          }
          to {
            stroke: black;
            stroke-width: 1024;
          }
        }
        #make-me-a-hanzi-animation-4 {
          animation: keyframes4 0.5291341145833334s both;
          animation-delay: 2.81396484375s;
          animation-timing-function: linear;
        }
      
        @keyframes keyframes5 {
          from {
            stroke: blue;
            stroke-dashoffset: 484;
            stroke-width: 128;
          }
          61% {
            animation-timing-function: step-end;
            stroke: blue;
            stroke-dashoffset: 0;
            stroke-width: 128;
          }
          to {
            stroke: black;
            stroke-width: 1024;
          }
        }
        #make-me-a-hanzi-animation-5 {
          animation: keyframes5 0.6438802083333334s both;
          animation-delay: 3.3430989583333335s;
          animation-timing-function: linear;
        }
      
        @keyframes keyframes6 {
          from {
            stroke: blue;
            stroke-dashoffset: 687;
            stroke-width: 128;
          }
          69% {
            animation-timing-function: step-end;
            stroke: blue;
            stroke-dashoffset: 0;
            stroke-width: 128;
          }
          to {
            stroke: black;
            stroke-width: 1024;
          }
        }
        #make-me-a-hanzi-animation-6 {
          animation: keyframes6 0.80908203125s both;
          animation-delay: 3.986979166666667s;
          animation-timing-function: linear;
        }
      
        @keyframes keyframes7 {
          from {
            stroke: blue;
            stroke-dashoffset: 389;
            stroke-width: 128;
          }
          56% {
            animation-timing-function: step-end;
            stroke: blue;
            stroke-dashoffset: 0;
            stroke-width: 128;
          }
          to {
            stroke: black;
            stroke-width: 1024;
          }
        }
        #make-me-a-hanzi-animation-7 {
          animation: keyframes7 0.5665690104166666s both;
          animation-delay: 4.796061197916667s;
          animation-timing-function: linear;
        }
      
        @keyframes keyframes8 {
          from {
            stroke: blue;
            stroke-dashoffset: 390;
            stroke-width: 128;
          }
          56% {
            animation-timing-function: step-end;
            stroke: blue;
            stroke-dashoffset: 0;
            stroke-width: 128;
          }
          to {
            stroke: black;
            stroke-width: 1024;
          }
        }
        #make-me-a-hanzi-animation-8 {
          animation: keyframes8 0.5673828125s both;
          animation-delay: 5.362630208333334s;
          animation-timing-function: linear;
        }
      
        @keyframes keyframes9 {
          from {
            stroke: blue;
            stroke-dashoffset: 901;
            stroke-width: 128;
          }
          75% {
            animation-timing-function: step-end;
            stroke: blue;
            stroke-dashoffset: 0;
            stroke-width: 128;
          }
          to {
            stroke: black;
            stroke-width: 1024;
          }
        }
        #make-me-a-hanzi-animation-9 {
          animation: keyframes9 0.9832356770833334s both;
          animation-delay: 5.930013020833334s;
          animation-timing-function: linear;
        }
      
        @keyframes keyframes10 {
          from {
            stroke: blue;
            stroke-dashoffset: 615;
            stroke-width: 128;
          }
          67% {
            animation-timing-function: step-end;
            stroke: blue;
            stroke-dashoffset: 0;
            stroke-width: 128;
          }
          to {
            stroke: black;
            stroke-width: 1024;
          }
        }
        #make-me-a-hanzi-animation-10 {
          animation: keyframes10 0.75048828125s both;
          animation-delay: 6.913248697916667s;
          animation-timing-function: linear;
        }
      
        @keyframes keyframes11 {
          from {
            stroke: blue;
            stroke-dashoffset: 708;
            stroke-width: 128;
          }
          70% {
            animation-timing-function: step-end;
            stroke: blue;
            stroke-dashoffset: 0;
            stroke-width: 128;
          }
          to {
            stroke: black;
            stroke-width: 1024;
          }
        }
        #make-me-a-hanzi-animation-11 {
          animation: keyframes11 0.826171875s both;
          animation-delay: 7.663736979166667s;
          animation-timing-function: linear;
        }
      
        @keyframes keyframes12 {
          from {
            stroke: blue;
            stroke-dashoffset: 804;
            stroke-width: 128;
          }
          72% {
            animation-timing-function: step-end;
            stroke: blue;
            stroke-dashoffset: 0;
            stroke-width: 128;
          }
          to {
            stroke: black;
            stroke-width: 1024;
          }
        }
        #make-me-a-hanzi-animation-12 {
          animation: keyframes12 0.904296875s both;
          animation-delay: 8.489908854166668s;
          animation-timing-function: linear;
        }
      
        @keyframes keyframes13 {
          from {
            stroke: blue;
            stroke-dashoffset: 506;
            stroke-width: 128;
          }
          62% {
            animation-timing-function: step-end;
            stroke: blue;
            stroke-dashoffset: 0;
            stroke-width: 128;
          }
          to {
            stroke: black;
            stroke-width: 1024;
          }
        }
        #make-me-a-hanzi-animation-13 {
          animation: keyframes13 0.6617838541666666s both;
          animation-delay: 9.394205729166668s;
          animation-timing-function: linear;
        }
      
    </style>
    
      <path d="M 458 799 Q 480 783 506 762 Q 521 752 535 753 Q 545 754 549 768 Q 552 783 540 810 Q 528 835 449 844 Q 433 845 428 843 Q 424 839 426 827 Q 430 817 458 799 Z" fill="lightgray"></path>
    
      <path d="M 255 697 Q 245 719 234 728 Q 215 743 213 717 Q 219 681 162 626 Q 141 604 167 547 Q 180 520 202 547 L 256 669 C 262 682 262 682 255 697 Z" fill="lightgray"></path>
    
      <path d="M 256 669 Q 280 654 306 661 Q 456 707 645 723 Q 678 727 689 724 Q 704 714 701 707 Q 702 703 696 691 Q 669 625 673 621 Q 680 617 696 628 Q 750 662 793 673 Q 827 683 827 691 Q 826 701 756 752 Q 737 768 713 763 Q 649 754 567 741 Q 485 731 355 710 Q 306 703 255 697 C 225 693 229 681 256 669 Z" fill="lightgray"></path>
    
      <path d="M 456 607 Q 621 644 623 645 Q 630 652 626 659 Q 620 668 597 674 Q 573 680 549 670 Q 506 657 459 645 Q 407 635 347 630 Q 317 626 339 611 Q 366 595 411 599 L 456 607 Z" fill="lightgray"></path>
    
      <path d="M 417 538 Q 420 542 424 545 Q 445 572 462 584 Q 472 593 464 602 Q 460 605 456 607 C 430 621 415 629 411 599 Q 411 590 389 530 C 379 502 398 515 417 538 Z" fill="lightgray"></path>
    
      <path d="M 366 524 Q 351 534 338 540 Q 328 543 320 538 Q 313 534 317 526 Q 329 502 340 424 Q 344 381 352 306 C 355 276 390 281 389 311 Q 388 335 387 356 L 386 380 Q 385 405 384 428 L 383 451 Q 383 460 382 493 Q 382 497 383 499 C 384 512 384 512 366 524 Z" fill="lightgray"></path>
    
      <path d="M 596 339 Q 600 379 605 420 Q 609 472 638 513 Q 654 535 628 548 Q 565 585 546 573 Q 528 566 501 558 Q 461 551 417 538 L 389 530 Q 376 529 366 524 C 338 514 355 489 383 499 Q 382 500 384 500 Q 432 515 540 534 Q 547 535 550 531 Q 572 507 543 331 C 538 301 593 309 596 339 Z" fill="lightgray"></path>
    
      <path d="M 384 428 Q 385 428 390 428 Q 459 441 509 448 Q 528 451 521 462 Q 512 474 491 477 Q 467 480 383 451 C 355 441 354 428 384 428 Z" fill="lightgray"></path>
    
      <path d="M 387 356 Q 388 356 391 356 Q 461 369 513 376 Q 532 379 525 390 Q 516 402 495 405 Q 468 409 386 380 C 358 370 357 355 387 356 Z" fill="lightgray"></path>
    
      <path d="M 579 297 Q 645 300 803 301 Q 822 301 827 310 Q 831 320 816 334 Q 762 376 699 358 Q 653 351 596 339 L 543 331 Q 515 328 483 323 Q 437 319 389 311 L 352 306 Q 270 297 180 285 Q 161 284 175 267 Q 188 254 206 248 Q 225 244 241 247 Q 284 259 335 268 L 365 273 Q 449 289 549 295 L 579 297 Z" fill="lightgray"></path>
    
      <path d="M 335 268 Q 335 178 114 33 Q 107 30 115 27 Q 160 21 274 106 Q 277 109 280 111 Q 305 133 344 173 L 350 180 Q 374 211 393 223 Q 400 227 399 235 Q 399 242 391 254 Q 381 266 367 273 L 365 273 C 338 286 336 287 335 268 Z" fill="lightgray"></path>
    
      <path d="M 642 179 Q 726 83 749 75 Q 815 60 925 78 Q 944 79 945 84 Q 948 91 933 97 Q 767 161 743 175 Q 692 205 579 297 C 556 316 531 319 549 295 Q 550 292 622 203 L 642 179 Z" fill="lightgray"></path>
    
      <path d="M 442 156 Q 494 171 537 175 Q 550 176 552 173 Q 558 164 554 140 Q 547 76 532 47 Q 513 19 487 25 Q 465 32 447 40 Q 423 50 438 25 Q 474 -18 489 -49 Q 501 -67 517 -55 Q 574 -22 609 115 Q 619 151 634 167 Q 640 174 642 179 C 648 187 648 188 622 203 Q 607 213 585 223 Q 570 232 532 215 Q 427 185 363 183 Q 354 183 350 180 C 339 178 339 178 344 173 Q 343 167 364 156 Q 386 141 404 147 Q 405 148 408 148 L 442 156 Z" fill="lightgray"></path>
    
      <path d="M 408 148 L 409 147 Q 415 90 291 -32 Q 287 -35 285 -41 Q 284 -45 289 -45 Q 349 -45 442 76 Q 455 92 463 101 Q 470 110 465 122 Q 453 144 442 156 C 423 179 403 178 408 148 Z" fill="lightgray"></path>
    
    
      <clipPath id="make-me-a-hanzi-clip-0">
        <path d="M 458 799 Q 480 783 506 762 Q 521 752 535 753 Q 545 754 549 768 Q 552 783 540 810 Q 528 835 449 844 Q 433 845 428 843 Q 424 839 426 827 Q 430 817 458 799 Z"></path>
      </clipPath>
      <path clip-path="url(#make-me-a-hanzi-clip-0)" d="M 433 837 L 513 796 L 532 770" fill="none" id="make-me-a-hanzi-animation-0" stroke-dasharray="250 500" stroke-linecap="round"></path>
    
      <clipPath id="make-me-a-hanzi-clip-1">
        <path d="M 255 697 Q 245 719 234 728 Q 215 743 213 717 Q 219 681 162 626 Q 141 604 167 547 Q 180 520 202 547 L 256 669 C 262 682 262 682 255 697 Z"></path>
      </clipPath>
      <path clip-path="url(#make-me-a-hanzi-clip-1)" d="M 224 722 L 233 694 L 230 672 L 188 602 L 183 550" fill="none" id="make-me-a-hanzi-animation-1" stroke-dasharray="313 626" stroke-linecap="round"></path>
    
      <clipPath id="make-me-a-hanzi-clip-2">
        <path d="M 256 669 Q 280 654 306 661 Q 456 707 645 723 Q 678 727 689 724 Q 704 714 701 707 Q 702 703 696 691 Q 669 625 673 621 Q 680 617 696 628 Q 750 662 793 673 Q 827 683 827 691 Q 826 701 756 752 Q 737 768 713 763 Q 649 754 567 741 Q 485 731 355 710 Q 306 703 255 697 C 225 693 229 681 256 669 Z"></path>
      </clipPath>
      <path clip-path="url(#make-me-a-hanzi-clip-2)" d="M 263 690 L 274 681 L 288 680 L 482 717 L 696 742 L 728 731 L 746 704 L 678 623" fill="none" id="make-me-a-hanzi-animation-2" stroke-dasharray="741 1482" stroke-linecap="round"></path>
    
      <clipPath id="make-me-a-hanzi-clip-3">
        <path d="M 456 607 Q 621 644 623 645 Q 630 652 626 659 Q 620 668 597 674 Q 573 680 549 670 Q 506 657 459 645 Q 407 635 347 630 Q 317 626 339 611 Q 366 595 411 599 L 456 607 Z"></path>
      </clipPath>
      <path clip-path="url(#make-me-a-hanzi-clip-3)" d="M 341 622 L 361 616 L 400 617 L 467 625 L 570 655 L 620 653" fill="none" id="make-me-a-hanzi-animation-3" stroke-dasharray="413 826" stroke-linecap="round"></path>
    
      <clipPath id="make-me-a-hanzi-clip-4">
        <path d="M 417 538 Q 420 542 424 545 Q 445 572 462 584 Q 472 593 464 602 Q 460 605 456 607 C 430 621 415 629 411 599 Q 411 590 389 530 C 379 502 398 515 417 538 Z"></path>
      </clipPath>
      <path clip-path="url(#make-me-a-hanzi-clip-4)" d="M 456 594 L 428 581 L 407 545 L 393 541" fill="none" id="make-me-a-hanzi-animation-4" stroke-dasharray="215 430" stroke-linecap="round"></path>
    
      <clipPath id="make-me-a-hanzi-clip-5">
        <path d="M 366 524 Q 351 534 338 540 Q 328 543 320 538 Q 313 534 317 526 Q 329 502 340 424 Q 344 381 352 306 C 355 276 390 281 389 311 Q 388 335 387 356 L 386 380 Q 385 405 384 428 L 383 451 Q 383 460 382 493 Q 382 497 383 499 C 384 512 384 512 366 524 Z"></path>
      </clipPath>
      <path clip-path="url(#make-me-a-hanzi-clip-5)" d="M 328 530 L 351 504 L 357 483 L 369 333 L 357 316" fill="none" id="make-me-a-hanzi-animation-5" stroke-dasharray="356 712" stroke-linecap="round"></path>
    
      <clipPath id="make-me-a-hanzi-clip-6">
        <path d="M 596 339 Q 600 379 605 420 Q 609 472 638 513 Q 654 535 628 548 Q 565 585 546 573 Q 528 566 501 558 Q 461 551 417 538 L 389 530 Q 376 529 366 524 C 338 514 355 489 383 499 Q 382 500 384 500 Q 432 515 540 534 Q 547 535 550 531 Q 572 507 543 331 C 538 301 593 309 596 339 Z"></path>
      </clipPath>
      <path clip-path="url(#make-me-a-hanzi-clip-6)" d="M 374 520 L 396 517 L 546 553 L 565 551 L 586 534 L 596 521 L 572 360 L 548 344" fill="none" id="make-me-a-hanzi-animation-6" stroke-dasharray="559 1118" stroke-linecap="round"></path>
    
      <clipPath id="make-me-a-hanzi-clip-7">
        <path d="M 384 428 Q 385 428 390 428 Q 459 441 509 448 Q 528 451 521 462 Q 512 474 491 477 Q 467 480 383 451 C 355 441 354 428 384 428 Z"></path>
      </clipPath>
      <path clip-path="url(#make-me-a-hanzi-clip-7)" d="M 387 434 L 399 445 L 455 457 L 494 462 L 513 457" fill="none" id="make-me-a-hanzi-animation-7" stroke-dasharray="261 522" stroke-linecap="round"></path>
    
      <clipPath id="make-me-a-hanzi-clip-8">
        <path d="M 387 356 Q 388 356 391 356 Q 461 369 513 376 Q 532 379 525 390 Q 516 402 495 405 Q 468 409 386 380 C 358 370 357 355 387 356 Z"></path>
      </clipPath>
      <path clip-path="url(#make-me-a-hanzi-clip-8)" d="M 389 362 L 401 373 L 441 382 L 498 390 L 517 385" fill="none" id="make-me-a-hanzi-animation-8" stroke-dasharray="262 524" stroke-linecap="round"></path>
    
      <clipPath id="make-me-a-hanzi-clip-9">
        <path d="M 579 297 Q 645 300 803 301 Q 822 301 827 310 Q 831 320 816 334 Q 762 376 699 358 Q 653 351 596 339 L 543 331 Q 515 328 483 323 Q 437 319 389 311 L 352 306 Q 270 297 180 285 Q 161 284 175 267 Q 188 254 206 248 Q 225 244 241 247 Q 284 259 335 268 L 365 273 Q 449 289 549 295 L 579 297 Z"></path>
      </clipPath>
      <path clip-path="url(#make-me-a-hanzi-clip-9)" d="M 178 276 L 233 269 L 443 302 L 726 332 L 759 331 L 816 315" fill="none" id="make-me-a-hanzi-animation-9" stroke-dasharray="773 1546" stroke-linecap="round"></path>
    
      <clipPath id="make-me-a-hanzi-clip-10">
        <path d="M 335 268 Q 335 178 114 33 Q 107 30 115 27 Q 160 21 274 106 Q 277 109 280 111 Q 305 133 344 173 L 350 180 Q 374 211 393 223 Q 400 227 399 235 Q 399 242 391 254 Q 381 266 367 273 L 365 273 C 338 286 336 287 335 268 Z"></path>
      </clipPath>
      <path clip-path="url(#make-me-a-hanzi-clip-10)" d="M 344 263 L 361 244 L 359 232 L 312 168 L 221 88 L 166 52 L 135 37 L 125 39 L 119 31" fill="none" id="make-me-a-hanzi-animation-10" stroke-dasharray="487 974" stroke-linecap="round"></path>
    
      <clipPath id="make-me-a-hanzi-clip-11">
        <path d="M 642 179 Q 726 83 749 75 Q 815 60 925 78 Q 944 79 945 84 Q 948 91 933 97 Q 767 161 743 175 Q 692 205 579 297 C 556 316 531 319 549 295 Q 550 292 622 203 L 642 179 Z"></path>
      </clipPath>
      <path clip-path="url(#make-me-a-hanzi-clip-11)" d="M 557 294 L 580 281 L 629 226 L 704 159 L 760 119 L 832 101 L 939 86" fill="none" id="make-me-a-hanzi-animation-11" stroke-dasharray="580 1160" stroke-linecap="round"></path>
    
      <clipPath id="make-me-a-hanzi-clip-12">
        <path d="M 442 156 Q 494 171 537 175 Q 550 176 552 173 Q 558 164 554 140 Q 547 76 532 47 Q 513 19 487 25 Q 465 32 447 40 Q 423 50 438 25 Q 474 -18 489 -49 Q 501 -67 517 -55 Q 574 -22 609 115 Q 619 151 634 167 Q 640 174 642 179 C 648 187 648 188 622 203 Q 607 213 585 223 Q 570 232 532 215 Q 427 185 363 183 Q 354 183 350 180 C 339 178 339 178 344 173 Q 343 167 364 156 Q 386 141 404 147 Q 405 148 408 148 L 442 156 Z"></path>
      </clipPath>
      <path clip-path="url(#make-me-a-hanzi-clip-12)" d="M 352 173 L 401 166 L 563 198 L 592 176 L 580 112 L 558 42 L 528 -1 L 511 -12 L 439 34" fill="none" id="make-me-a-hanzi-animation-12" stroke-dasharray="676 1352" stroke-linecap="round"></path>
    
      <clipPath id="make-me-a-hanzi-clip-13">
        <path d="M 408 148 L 409 147 Q 415 90 291 -32 Q 287 -35 285 -41 Q 284 -45 289 -45 Q 349 -45 442 76 Q 455 92 463 101 Q 470 110 465 122 Q 453 144 442 156 C 423 179 403 178 408 148 Z"></path>
      </clipPath>
      <path clip-path="url(#make-me-a-hanzi-clip-13)" d="M 416 143 L 433 128 L 435 115 L 415 80 L 357 9 L 318 -25 L 291 -39" fill="none" id="make-me-a-hanzi-animation-13" stroke-dasharray="378 756" stroke-linecap="round"></path>
    
  </g>
</svg>