<svg version="1.1" viewBox="0 0 1024 1024" xmlns="http://www.w3.org/2000/svg">
  <g stroke="lightgray" stroke-dasharray="1,1" stroke-width="1" transform="scale(4, 4)">
    <line x1="0" y1="0" x2="256" y2="256"></line>
    <line x1="256" y1="0" x2="0" y2="256"></line>
    <line x1="128" y1="0" x2="128" y2="256"></line>
    <line x1="0" y1="128" x2="256" y2="128"></line>
  </g>
  <g transform="scale(1, -1) translate(0, -900)">
    <style type="text/css">
      
        @keyframes keyframes0 {
          from {
            stroke: blue;
            stroke-dashoffset: 690;
            stroke-width: 128;
          }
          69% {
            animation-timing-function: step-end;
            stroke: blue;
            stroke-dashoffset: 0;
            stroke-width: 128;
          }
          to {
            stroke: black;
            stroke-width: 1024;
          }
        }
        #make-me-a-hanzi-animation-0 {
          animation: keyframes0 0.8115234375s both;
          animation-delay: 0s;
          animation-timing-function: linear;
        }
      
        @keyframes keyframes1 {
          from {
            stroke: blue;
            stroke-dashoffset: 1051;
            stroke-width: 128;
          }
          77% {
            animation-timing-function: step-end;
            stroke: blue;
            stroke-dashoffset: 0;
            stroke-width: 128;
          }
          to {
            stroke: black;
            stroke-width: 1024;
          }
        }
        #make-me-a-hanzi-animation-1 {
          animation: keyframes1 1.1053059895833333s both;
          animation-delay: 0.8115234375s;
          animation-timing-function: linear;
        }
      
        @keyframes keyframes2 {
          from {
            stroke: blue;
            stroke-dashoffset: 702;
            stroke-width: 128;
          }
          70% {
            animation-timing-function: step-end;
            stroke: blue;
            stroke-dashoffset: 0;
            stroke-width: 128;
          }
          to {
            stroke: black;
            stroke-width: 1024;
          }
        }
        #make-me-a-hanzi-animation-2 {
          animation: keyframes2 0.8212890625s both;
          animation-delay: 1.9168294270833333s;
          animation-timing-function: linear;
        }
      
        @keyframes keyframes3 {
          from {
            stroke: blue;
            stroke-dashoffset: 729;
            stroke-width: 128;
          }
          70% {
            animation-timing-function: step-end;
            stroke: blue;
            stroke-dashoffset: 0;
            stroke-width: 128;
          }
          to {
            stroke: black;
            stroke-width: 1024;
          }
        }
        #make-me-a-hanzi-animation-3 {
          animation: keyframes3 0.84326171875s both;
          animation-delay: 2.738118489583333s;
          animation-timing-function: linear;
        }
      
        @keyframes keyframes4 {
          from {
            stroke: blue;
            stroke-dashoffset: 674;
            stroke-width: 128;
          }
          69% {
            animation-timing-function: step-end;
            stroke: blue;
            stroke-dashoffset: 0;
            stroke-width: 128;
          }
          to {
            stroke: black;
            stroke-width: 1024;
          }
        }
        #make-me-a-hanzi-animation-4 {
          animation: keyframes4 0.7985026041666666s both;
          animation-delay: 3.581380208333333s;
          animation-timing-function: linear;
        }
      
        @keyframes keyframes5 {
          from {
            stroke: blue;
            stroke-dashoffset: 1073;
            stroke-width: 128;
          }
          78% {
            animation-timing-function: step-end;
            stroke: blue;
            stroke-dashoffset: 0;
            stroke-width: 128;
          }
          to {
            stroke: black;
            stroke-width: 1024;
          }
        }
        #make-me-a-hanzi-animation-5 {
          animation: keyframes5 1.1232096354166667s both;
          animation-delay: 4.3798828125s;
          animation-timing-function: linear;
        }
      
    </style>
    
      <path d="M 495 666 Q 675 727 682 735 Q 689 744 684 752 Q 677 764 645 768 Q 614 771 585 756 Q 530 729 473 706 L 433 691 Q 354 666 266 647 Q 229 637 258 623 Q 304 602 358 622 Q 404 638 454 653 L 495 666 Z" fill="lightgray"></path>
    
      <path d="M 569 510 Q 716 371 835 364 Q 836 364 839 364 Q 861 371 851 400 Q 838 431 825 580 Q 824 592 818 593 Q 814 593 811 580 Q 802 541 794 505 Q 784 456 767 454 Q 748 451 703 474 Q 657 496 610 536 L 576 568 Q 528 616 495 666 L 473 706 Q 446 751 449 801 Q 449 820 408 833 Q 368 843 357 837 Q 347 830 356 815 Q 383 796 402 754 Q 417 721 433 691 L 454 653 Q 502 580 539 542 L 569 510 Z" fill="lightgray"></path>
    
      <path d="M 610 536 Q 662 576 700 589 Q 710 593 712 607 Q 713 619 700 647 Q 685 672 670 678 Q 654 684 653 663 Q 652 635 634 618 Q 606 593 576 568 L 539 542 Q 421 470 344 434 Q 332 430 329 425 Q 322 418 334 415 Q 373 405 569 510 L 610 536 Z" fill="lightgray"></path>
    
      <path d="M 552 346 Q 619 353 674 359 Q 686 358 696 371 Q 697 384 673 396 Q 634 418 565 399 Q 388 366 225 347 Q 194 344 218 325 Q 254 294 284 302 Q 320 309 362 316 L 396 322 Q 447 332 507 339 L 552 346 Z" fill="lightgray"></path>
    
      <path d="M 362 316 Q 361 315 362 310 Q 368 171 169 16 Q 165 13 160 9 Q 153 2 159 -1 Q 186 -11 273 50 Q 352 101 412 229 Q 424 248 437 269 Q 444 278 440 288 Q 427 312 396 322 C 368 333 362 336 362 316 Z" fill="lightgray"></path>
    
      <path d="M 507 339 Q 528 300 524 243 Q 518 87 545 49 Q 552 40 563 31 Q 620 -11 809 -4 Q 896 0 930 18 Q 961 34 947 67 Q 926 119 912 210 Q 909 226 901 230 Q 894 234 890 214 Q 883 102 867 80 Q 836 46 708 45 Q 638 48 608 59 Q 581 72 576 91 Q 555 145 578 240 Q 581 264 589 278 Q 602 317 552 346 C 528 363 495 367 507 339 Z" fill="lightgray"></path>
    
    
      <clipPath id="make-me-a-hanzi-clip-0">
        <path d="M 495 666 Q 675 727 682 735 Q 689 744 684 752 Q 677 764 645 768 Q 614 771 585 756 Q 530 729 473 706 L 433 691 Q 354 666 266 647 Q 229 637 258 623 Q 304 602 358 622 Q 404 638 454 653 L 495 666 Z"></path>
      </clipPath>
      <path clip-path="url(#make-me-a-hanzi-clip-0)" d="M 259 636 L 282 632 L 331 638 L 527 700 L 614 738 L 674 744" fill="none" id="make-me-a-hanzi-animation-0" stroke-dasharray="562 1124" stroke-linecap="round"></path>
    
      <clipPath id="make-me-a-hanzi-clip-1">
        <path d="M 569 510 Q 716 371 835 364 Q 836 364 839 364 Q 861 371 851 400 Q 838 431 825 580 Q 824 592 818 593 Q 814 593 811 580 Q 802 541 794 505 Q 784 456 767 454 Q 748 451 703 474 Q 657 496 610 536 L 576 568 Q 528 616 495 666 L 473 706 Q 446 751 449 801 Q 449 820 408 833 Q 368 843 357 837 Q 347 830 356 815 Q 383 796 402 754 Q 417 721 433 691 L 454 653 Q 502 580 539 542 L 569 510 Z"></path>
      </clipPath>
      <path clip-path="url(#make-me-a-hanzi-clip-1)" d="M 364 827 L 394 813 L 417 793 L 454 695 L 525 590 L 607 506 L 710 437 L 764 418 L 799 420 L 813 482 L 818 585" fill="none" id="make-me-a-hanzi-animation-1" stroke-dasharray="923 1846" stroke-linecap="round"></path>
    
      <clipPath id="make-me-a-hanzi-clip-2">
        <path d="M 610 536 Q 662 576 700 589 Q 710 593 712 607 Q 713 619 700 647 Q 685 672 670 678 Q 654 684 653 663 Q 652 635 634 618 Q 606 593 576 568 L 539 542 Q 421 470 344 434 Q 332 430 329 425 Q 322 418 334 415 Q 373 405 569 510 L 610 536 Z"></path>
      </clipPath>
      <path clip-path="url(#make-me-a-hanzi-clip-2)" d="M 665 667 L 675 641 L 675 616 L 604 560 L 548 520 L 483 485 L 400 444 L 336 422" fill="none" id="make-me-a-hanzi-animation-2" stroke-dasharray="574 1148" stroke-linecap="round"></path>
    
      <clipPath id="make-me-a-hanzi-clip-3">
        <path d="M 552 346 Q 619 353 674 359 Q 686 358 696 371 Q 697 384 673 396 Q 634 418 565 399 Q 388 366 225 347 Q 194 344 218 325 Q 254 294 284 302 Q 320 309 362 316 L 396 322 Q 447 332 507 339 L 552 346 Z"></path>
      </clipPath>
      <path clip-path="url(#make-me-a-hanzi-clip-3)" d="M 219 337 L 260 326 L 287 328 L 597 379 L 648 381 L 685 373" fill="none" id="make-me-a-hanzi-animation-3" stroke-dasharray="601 1202" stroke-linecap="round"></path>
    
      <clipPath id="make-me-a-hanzi-clip-4">
        <path d="M 362 316 Q 361 315 362 310 Q 368 171 169 16 Q 165 13 160 9 Q 153 2 159 -1 Q 186 -11 273 50 Q 352 101 412 229 Q 424 248 437 269 Q 444 278 440 288 Q 427 312 396 322 C 368 333 362 336 362 316 Z"></path>
      </clipPath>
      <path clip-path="url(#make-me-a-hanzi-clip-4)" d="M 368 313 L 399 279 L 352 173 L 319 125 L 252 58 L 164 4" fill="none" id="make-me-a-hanzi-animation-4" stroke-dasharray="546 1092" stroke-linecap="round"></path>
    
      <clipPath id="make-me-a-hanzi-clip-5">
        <path d="M 507 339 Q 528 300 524 243 Q 518 87 545 49 Q 552 40 563 31 Q 620 -11 809 -4 Q 896 0 930 18 Q 961 34 947 67 Q 926 119 912 210 Q 909 226 901 230 Q 894 234 890 214 Q 883 102 867 80 Q 836 46 708 45 Q 638 48 608 59 Q 581 72 576 91 Q 555 145 578 240 Q 581 264 589 278 Q 602 317 552 346 C 528 363 495 367 507 339 Z"></path>
      </clipPath>
      <path clip-path="url(#make-me-a-hanzi-clip-5)" d="M 515 336 L 546 316 L 556 298 L 544 188 L 554 84 L 574 53 L 612 33 L 680 22 L 797 22 L 854 32 L 901 53 L 906 101 L 900 222" fill="none" id="make-me-a-hanzi-animation-5" stroke-dasharray="945 1890" stroke-linecap="round"></path>
    
  </g>
</svg>