<svg version="1.1" viewBox="0 0 1024 1024" xmlns="http://www.w3.org/2000/svg">
  <g stroke="lightgray" stroke-dasharray="1,1" stroke-width="1" transform="scale(4, 4)">
    <line x1="0" y1="0" x2="256" y2="256"></line>
    <line x1="256" y1="0" x2="0" y2="256"></line>
    <line x1="128" y1="0" x2="128" y2="256"></line>
    <line x1="0" y1="128" x2="256" y2="128"></line>
  </g>
  <g transform="scale(1, -1) translate(0, -900)">
    <style type="text/css">
      
        @keyframes keyframes0 {
          from {
            stroke: blue;
            stroke-dashoffset: 478;
            stroke-width: 128;
          }
          61% {
            animation-timing-function: step-end;
            stroke: blue;
            stroke-dashoffset: 0;
            stroke-width: 128;
          }
          to {
            stroke: black;
            stroke-width: 1024;
          }
        }
        #make-me-a-hanzi-animation-0 {
          animation: keyframes0 0.6389973958333334s both;
          animation-delay: 0s;
          animation-timing-function: linear;
        }
      
        @keyframes keyframes1 {
          from {
            stroke: blue;
            stroke-dashoffset: 839;
            stroke-width: 128;
          }
          73% {
            animation-timing-function: step-end;
            stroke: blue;
            stroke-dashoffset: 0;
            stroke-width: 128;
          }
          to {
            stroke: black;
            stroke-width: 1024;
          }
        }
        #make-me-a-hanzi-animation-1 {
          animation: keyframes1 0.9327799479166666s both;
          animation-delay: 0.6389973958333334s;
          animation-timing-function: linear;
        }
      
        @keyframes keyframes2 {
          from {
            stroke: blue;
            stroke-dashoffset: 480;
            stroke-width: 128;
          }
          61% {
            animation-timing-function: step-end;
            stroke: blue;
            stroke-dashoffset: 0;
            stroke-width: 128;
          }
          to {
            stroke: black;
            stroke-width: 1024;
          }
        }
        #make-me-a-hanzi-animation-2 {
          animation: keyframes2 0.640625s both;
          animation-delay: 1.57177734375s;
          animation-timing-function: linear;
        }
      
        @keyframes keyframes3 {
          from {
            stroke: blue;
            stroke-dashoffset: 696;
            stroke-width: 128;
          }
          69% {
            animation-timing-function: step-end;
            stroke: blue;
            stroke-dashoffset: 0;
            stroke-width: 128;
          }
          to {
            stroke: black;
            stroke-width: 1024;
          }
        }
        #make-me-a-hanzi-animation-3 {
          animation: keyframes3 0.81640625s both;
          animation-delay: 2.21240234375s;
          animation-timing-function: linear;
        }
      
        @keyframes keyframes4 {
          from {
            stroke: blue;
            stroke-dashoffset: 1179;
            stroke-width: 128;
          }
          79% {
            animation-timing-function: step-end;
            stroke: blue;
            stroke-dashoffset: 0;
            stroke-width: 128;
          }
          to {
            stroke: black;
            stroke-width: 1024;
          }
        }
        #make-me-a-hanzi-animation-4 {
          animation: keyframes4 1.20947265625s both;
          animation-delay: 3.02880859375s;
          animation-timing-function: linear;
        }
      
        @keyframes keyframes5 {
          from {
            stroke: blue;
            stroke-dashoffset: 429;
            stroke-width: 128;
          }
          58% {
            animation-timing-function: step-end;
            stroke: blue;
            stroke-dashoffset: 0;
            stroke-width: 128;
          }
          to {
            stroke: black;
            stroke-width: 1024;
          }
        }
        #make-me-a-hanzi-animation-5 {
          animation: keyframes5 0.59912109375s both;
          animation-delay: 4.23828125s;
          animation-timing-function: linear;
        }
      
    </style>
    
      <path d="M 525 618 Q 535 684 545 744 Q 549 760 551 770 Q 555 779 557 785 Q 561 795 543 810 Q 512 828 490 833 Q 475 837 468 829 Q 461 822 468 808 Q 480 792 481 779 Q 487 703 486 612 C 486 582 520 588 525 618 Z" fill="lightgray"></path>
    
      <path d="M 430 563 Q 497 581 571 591 Q 656 604 690 600 C 720 599 721 637 691 635 Q 603 631 525 618 L 486 612 Q 405 602 335 583 Q 314 579 320 604 Q 324 635 331 669 Q 335 691 326 706 Q 292 745 268 741 Q 258 737 265 718 Q 283 673 275 630 Q 268 588 251 570 Q 232 554 239 540 Q 249 524 265 514 Q 278 505 288 513 Q 306 534 400 555 L 430 563 Z" fill="lightgray"></path>
    
      <path d="M 690 600 Q 691 581 697 566 Q 704 550 717 559 Q 744 581 760 660 Q 779 711 789 719 Q 799 732 791 747 Q 775 765 746 788 Q 734 797 722 792 Q 715 789 715 776 Q 724 764 719 702 Q 709 665 696 643 Q 693 640 691 635 L 690 600 Z" fill="lightgray"></path>
    
      <path d="M 336 346 Q 370 380 412 425 L 430 446 Q 452 474 472 486 Q 482 493 479 507 Q 478 520 455 545 Q 442 558 430 563 C 404 578 393 584 400 555 Q 401 552 402 548 Q 409 521 397 501 Q 357 432 302 372 Q 248 314 179 251 Q 169 244 165 238 Q 161 228 173 228 Q 206 234 326 338 L 336 346 Z" fill="lightgray"></path>
    
      <path d="M 412 425 Q 458 395 569 426 Q 605 438 617 430 Q 626 424 601 359 Q 520 107 239 -34 Q 229 -38 230 -44 Q 231 -48 239 -49 Q 266 -48 325 -25 Q 377 -6 431 35 Q 495 81 556 158 Q 616 236 674 359 Q 693 390 722 410 Q 740 419 740 429 Q 740 444 707 463 Q 667 488 652 489 Q 639 489 626 480 Q 511 447 446 446 Q 437 447 430 446 C 400 446 384 436 412 425 Z" fill="lightgray"></path>
    
      <path d="M 326 338 Q 326 328 335 320 Q 375 280 424 222 Q 437 203 450 199 Q 457 198 465 206 Q 475 218 466 256 Q 462 290 398 321 Q 358 339 336 346 C 324 350 324 350 326 338 Z" fill="lightgray"></path>
    
    
      <clipPath id="make-me-a-hanzi-clip-0">
        <path d="M 525 618 Q 535 684 545 744 Q 549 760 551 770 Q 555 779 557 785 Q 561 795 543 810 Q 512 828 490 833 Q 475 837 468 829 Q 461 822 468 808 Q 480 792 481 779 Q 487 703 486 612 C 486 582 520 588 525 618 Z"></path>
      </clipPath>
      <path clip-path="url(#make-me-a-hanzi-clip-0)" d="M 479 819 L 517 783 L 508 646 L 503 631 L 491 620" fill="none" id="make-me-a-hanzi-animation-0" stroke-dasharray="350 700" stroke-linecap="round"></path>
    
      <clipPath id="make-me-a-hanzi-clip-1">
        <path d="M 430 563 Q 497 581 571 591 Q 656 604 690 600 C 720 599 721 637 691 635 Q 603 631 525 618 L 486 612 Q 405 602 335 583 Q 314 579 320 604 Q 324 635 331 669 Q 335 691 326 706 Q 292 745 268 741 Q 258 737 265 718 Q 283 673 275 630 Q 268 588 251 570 Q 232 554 239 540 Q 249 524 265 514 Q 278 505 288 513 Q 306 534 400 555 L 430 563 Z"></path>
      </clipPath>
      <path clip-path="url(#make-me-a-hanzi-clip-1)" d="M 273 731 L 303 690 L 292 561 L 343 562 L 521 601 L 622 615 L 668 618 L 686 606" fill="none" id="make-me-a-hanzi-animation-1" stroke-dasharray="711 1422" stroke-linecap="round"></path>
    
      <clipPath id="make-me-a-hanzi-clip-2">
        <path d="M 690 600 Q 691 581 697 566 Q 704 550 717 559 Q 744 581 760 660 Q 779 711 789 719 Q 799 732 791 747 Q 775 765 746 788 Q 734 797 722 792 Q 715 789 715 776 Q 724 764 719 702 Q 709 665 696 643 Q 693 640 691 635 L 690 600 Z"></path>
      </clipPath>
      <path clip-path="url(#make-me-a-hanzi-clip-2)" d="M 730 779 L 755 734 L 709 568" fill="none" id="make-me-a-hanzi-animation-2" stroke-dasharray="352 704" stroke-linecap="round"></path>
    
      <clipPath id="make-me-a-hanzi-clip-3">
        <path d="M 336 346 Q 370 380 412 425 L 430 446 Q 452 474 472 486 Q 482 493 479 507 Q 478 520 455 545 Q 442 558 430 563 C 404 578 393 584 400 555 Q 401 552 402 548 Q 409 521 397 501 Q 357 432 302 372 Q 248 314 179 251 Q 169 244 165 238 Q 161 228 173 228 Q 206 234 326 338 L 336 346 Z"></path>
      </clipPath>
      <path clip-path="url(#make-me-a-hanzi-clip-3)" d="M 408 554 L 427 539 L 439 507 L 414 471 L 287 326 L 215 264 L 173 236" fill="none" id="make-me-a-hanzi-animation-3" stroke-dasharray="568 1136" stroke-linecap="round"></path>
    
      <clipPath id="make-me-a-hanzi-clip-4">
        <path d="M 412 425 Q 458 395 569 426 Q 605 438 617 430 Q 626 424 601 359 Q 520 107 239 -34 Q 229 -38 230 -44 Q 231 -48 239 -49 Q 266 -48 325 -25 Q 377 -6 431 35 Q 495 81 556 158 Q 616 236 674 359 Q 693 390 722 410 Q 740 419 740 429 Q 740 444 707 463 Q 667 488 652 489 Q 639 489 626 480 Q 511 447 446 446 Q 437 447 430 446 C 400 446 384 436 412 425 Z"></path>
      </clipPath>
      <path clip-path="url(#make-me-a-hanzi-clip-4)" d="M 420 427 L 497 430 L 623 455 L 652 448 L 668 429 L 585 248 L 540 179 L 488 117 L 374 21 L 294 -23 L 237 -41" fill="none" id="make-me-a-hanzi-animation-4" stroke-dasharray="1051 2102" stroke-linecap="round"></path>
    
      <clipPath id="make-me-a-hanzi-clip-5">
        <path d="M 326 338 Q 326 328 335 320 Q 375 280 424 222 Q 437 203 450 199 Q 457 198 465 206 Q 475 218 466 256 Q 462 290 398 321 Q 358 339 336 346 C 324 350 324 350 326 338 Z"></path>
      </clipPath>
      <path clip-path="url(#make-me-a-hanzi-clip-5)" d="M 336 335 L 421 272 L 434 258 L 451 213" fill="none" id="make-me-a-hanzi-animation-5" stroke-dasharray="301 602" stroke-linecap="round"></path>
    
  </g>
</svg>