<svg version="1.1" viewBox="0 0 1024 1024" xmlns="http://www.w3.org/2000/svg">
  <g stroke="lightgray" stroke-dasharray="1,1" stroke-width="1" transform="scale(4, 4)">
    <line x1="0" y1="0" x2="256" y2="256"></line>
    <line x1="256" y1="0" x2="0" y2="256"></line>
    <line x1="128" y1="0" x2="128" y2="256"></line>
    <line x1="0" y1="128" x2="256" y2="128"></line>
  </g>
  <g transform="scale(1, -1) translate(0, -900)">
    <style type="text/css">
      
        @keyframes keyframes0 {
          from {
            stroke: blue;
            stroke-dashoffset: 718;
            stroke-width: 128;
          }
          70% {
            animation-timing-function: step-end;
            stroke: blue;
            stroke-dashoffset: 0;
            stroke-width: 128;
          }
          to {
            stroke: black;
            stroke-width: 1024;
          }
        }
        #make-me-a-hanzi-animation-0 {
          animation: keyframes0 0.8343098958333334s both;
          animation-delay: 0s;
          animation-timing-function: linear;
        }
      
        @keyframes keyframes1 {
          from {
            stroke: blue;
            stroke-dashoffset: 715;
            stroke-width: 128;
          }
          70% {
            animation-timing-function: step-end;
            stroke: blue;
            stroke-dashoffset: 0;
            stroke-width: 128;
          }
          to {
            stroke: black;
            stroke-width: 1024;
          }
        }
        #make-me-a-hanzi-animation-1 {
          animation: keyframes1 0.8318684895833334s both;
          animation-delay: 0.8343098958333334s;
          animation-timing-function: linear;
        }
      
        @keyframes keyframes2 {
          from {
            stroke: blue;
            stroke-dashoffset: 507;
            stroke-width: 128;
          }
          62% {
            animation-timing-function: step-end;
            stroke: blue;
            stroke-dashoffset: 0;
            stroke-width: 128;
          }
          to {
            stroke: black;
            stroke-width: 1024;
          }
        }
        #make-me-a-hanzi-animation-2 {
          animation: keyframes2 0.66259765625s both;
          animation-delay: 1.6661783854166667s;
          animation-timing-function: linear;
        }
      
        @keyframes keyframes3 {
          from {
            stroke: blue;
            stroke-dashoffset: 603;
            stroke-width: 128;
          }
          66% {
            animation-timing-function: step-end;
            stroke: blue;
            stroke-dashoffset: 0;
            stroke-width: 128;
          }
          to {
            stroke: black;
            stroke-width: 1024;
          }
        }
        #make-me-a-hanzi-animation-3 {
          animation: keyframes3 0.74072265625s both;
          animation-delay: 2.328776041666667s;
          animation-timing-function: linear;
        }
      
        @keyframes keyframes4 {
          from {
            stroke: blue;
            stroke-dashoffset: 755;
            stroke-width: 128;
          }
          71% {
            animation-timing-function: step-end;
            stroke: blue;
            stroke-dashoffset: 0;
            stroke-width: 128;
          }
          to {
            stroke: black;
            stroke-width: 1024;
          }
        }
        #make-me-a-hanzi-animation-4 {
          animation: keyframes4 0.8644205729166666s both;
          animation-delay: 3.069498697916667s;
          animation-timing-function: linear;
        }
      
        @keyframes keyframes5 {
          from {
            stroke: blue;
            stroke-dashoffset: 811;
            stroke-width: 128;
          }
          73% {
            animation-timing-function: step-end;
            stroke: blue;
            stroke-dashoffset: 0;
            stroke-width: 128;
          }
          to {
            stroke: black;
            stroke-width: 1024;
          }
        }
        #make-me-a-hanzi-animation-5 {
          animation: keyframes5 0.9099934895833334s both;
          animation-delay: 3.9339192708333335s;
          animation-timing-function: linear;
        }
      
        @keyframes keyframes6 {
          from {
            stroke: blue;
            stroke-dashoffset: 927;
            stroke-width: 128;
          }
          75% {
            animation-timing-function: step-end;
            stroke: blue;
            stroke-dashoffset: 0;
            stroke-width: 128;
          }
          to {
            stroke: black;
            stroke-width: 1024;
          }
        }
        #make-me-a-hanzi-animation-6 {
          animation: keyframes6 1.00439453125s both;
          animation-delay: 4.843912760416667s;
          animation-timing-function: linear;
        }
      
    </style>
    
      <path d="M 289 328 Q 299 485 305 627 Q 305 640 323 722 Q 327 734 306 748 Q 270 767 246 771 Q 230 775 222 766 Q 215 759 223 743 Q 248 706 248 682 Q 257 513 247 316 C 246 286 287 298 289 328 Z" fill="lightgray"></path>
    
      <path d="M 365 347 Q 322 340 289 328 L 247 316 Q 201 303 162 287 Q 149 283 152 300 Q 159 349 167 401 Q 171 423 162 438 Q 128 477 104 473 Q 94 469 101 450 Q 123 395 113 340 Q 106 288 83 266 Q 67 248 74 235 Q 86 220 102 211 Q 115 204 125 213 Q 152 252 313 298 Q 352 310 364 307 C 394 308 395 352 365 347 Z" fill="lightgray"></path>
    
      <path d="M 364 307 Q 368 291 374 279 Q 381 266 391 275 Q 413 296 417 366 Q 435 465 441 475 Q 448 488 439 500 Q 423 513 396 530 Q 386 536 375 531 Q 368 528 371 517 Q 395 475 368 355 Q 367 352 365 347 C 358 328 358 328 364 307 Z" fill="lightgray"></path>
    
      <path d="M 745 645 Q 847 669 850 671 Q 860 678 855 688 Q 848 700 818 708 Q 790 714 684 684 Q 597 663 511 657 Q 474 653 500 634 Q 537 607 599 621 Q 642 628 686 635 L 745 645 Z" fill="lightgray"></path>
    
      <path d="M 766 402 Q 823 405 931 405 Q 950 405 955 414 Q 961 424 944 438 Q 887 480 819 459 Q 795 455 767 448 L 713 439 Q 689 439 589 420 L 537 413 Q 495 409 452 402 Q 431 399 447 383 Q 460 370 478 365 Q 485 364 534 369 L 585 380 Q 642 393 714 398 L 766 402 Z" fill="lightgray"></path>
    
      <path d="M 589 420 Q 593 498 600 535 Q 606 554 586 564 Q 540 588 525 585 Q 506 581 522 560 Q 541 524 537 413 L 534 369 Q 522 213 407 110 Q 394 97 390 92 Q 389 85 400 85 Q 415 85 435 99 Q 472 124 496 149 Q 565 225 585 380 L 589 420 Z" fill="lightgray"></path>
    
      <path d="M 717 14 Q 723 -11 730 -21 Q 736 -28 743 -26 Q 758 -17 764 44 Q 771 122 769 200 Q 766 249 766 402 L 767 448 Q 767 562 778 606 Q 781 624 766 633 Q 756 640 745 645 C 719 660 674 663 686 635 Q 710 580 711 572 Q 711 506 713 439 L 714 398 Q 708 80 717 14 Z" fill="lightgray"></path>
    
    
      <clipPath id="make-me-a-hanzi-clip-0">
        <path d="M 289 328 Q 299 485 305 627 Q 305 640 323 722 Q 327 734 306 748 Q 270 767 246 771 Q 230 775 222 766 Q 215 759 223 743 Q 248 706 248 682 Q 257 513 247 316 C 246 286 287 298 289 328 Z"></path>
      </clipPath>
      <path clip-path="url(#make-me-a-hanzi-clip-0)" d="M 234 757 L 282 716 L 270 354 L 269 344 L 252 324" fill="none" id="make-me-a-hanzi-animation-0" stroke-dasharray="590 1180" stroke-linecap="round"></path>
    
      <clipPath id="make-me-a-hanzi-clip-1">
        <path d="M 365 347 Q 322 340 289 328 L 247 316 Q 201 303 162 287 Q 149 283 152 300 Q 159 349 167 401 Q 171 423 162 438 Q 128 477 104 473 Q 94 469 101 450 Q 123 395 113 340 Q 106 288 83 266 Q 67 248 74 235 Q 86 220 102 211 Q 115 204 125 213 Q 152 252 313 298 Q 352 310 364 307 C 394 308 395 352 365 347 Z"></path>
      </clipPath>
      <path clip-path="url(#make-me-a-hanzi-clip-1)" d="M 109 463 L 129 441 L 141 410 L 126 264 L 163 265 L 244 297 L 297 309 L 349 327 L 357 341" fill="none" id="make-me-a-hanzi-animation-1" stroke-dasharray="587 1174" stroke-linecap="round"></path>
    
      <clipPath id="make-me-a-hanzi-clip-2">
        <path d="M 364 307 Q 368 291 374 279 Q 381 266 391 275 Q 413 296 417 366 Q 435 465 441 475 Q 448 488 439 500 Q 423 513 396 530 Q 386 536 375 531 Q 368 528 371 517 Q 395 475 368 355 Q 367 352 365 347 C 358 328 358 328 364 307 Z"></path>
      </clipPath>
      <path clip-path="url(#make-me-a-hanzi-clip-2)" d="M 383 521 L 411 483 L 383 281" fill="none" id="make-me-a-hanzi-animation-2" stroke-dasharray="379 758" stroke-linecap="round"></path>
    
      <clipPath id="make-me-a-hanzi-clip-3">
        <path d="M 745 645 Q 847 669 850 671 Q 860 678 855 688 Q 848 700 818 708 Q 790 714 684 684 Q 597 663 511 657 Q 474 653 500 634 Q 537 607 599 621 Q 642 628 686 635 L 745 645 Z"></path>
      </clipPath>
      <path clip-path="url(#make-me-a-hanzi-clip-3)" d="M 503 647 L 558 638 L 806 685 L 845 682" fill="none" id="make-me-a-hanzi-animation-3" stroke-dasharray="475 950" stroke-linecap="round"></path>
    
      <clipPath id="make-me-a-hanzi-clip-4">
        <path d="M 766 402 Q 823 405 931 405 Q 950 405 955 414 Q 961 424 944 438 Q 887 480 819 459 Q 795 455 767 448 L 713 439 Q 689 439 589 420 L 537 413 Q 495 409 452 402 Q 431 399 447 383 Q 460 370 478 365 Q 485 364 534 369 L 585 380 Q 642 393 714 398 L 766 402 Z"></path>
      </clipPath>
      <path clip-path="url(#make-me-a-hanzi-clip-4)" d="M 450 392 L 502 387 L 647 412 L 861 436 L 898 433 L 943 420" fill="none" id="make-me-a-hanzi-animation-4" stroke-dasharray="627 1254" stroke-linecap="round"></path>
    
      <clipPath id="make-me-a-hanzi-clip-5">
        <path d="M 589 420 Q 593 498 600 535 Q 606 554 586 564 Q 540 588 525 585 Q 506 581 522 560 Q 541 524 537 413 L 534 369 Q 522 213 407 110 Q 394 97 390 92 Q 389 85 400 85 Q 415 85 435 99 Q 472 124 496 149 Q 565 225 585 380 L 589 420 Z"></path>
      </clipPath>
      <path clip-path="url(#make-me-a-hanzi-clip-5)" d="M 527 572 L 566 536 L 560 374 L 540 274 L 512 208 L 478 157 L 434 115 L 397 92" fill="none" id="make-me-a-hanzi-animation-5" stroke-dasharray="683 1366" stroke-linecap="round"></path>
    
      <clipPath id="make-me-a-hanzi-clip-6">
        <path d="M 717 14 Q 723 -11 730 -21 Q 736 -28 743 -26 Q 758 -17 764 44 Q 771 122 769 200 Q 766 249 766 402 L 767 448 Q 767 562 778 606 Q 781 624 766 633 Q 756 640 745 645 C 719 660 674 663 686 635 Q 710 580 711 572 Q 711 506 713 439 L 714 398 Q 708 80 717 14 Z"></path>
      </clipPath>
      <path clip-path="url(#make-me-a-hanzi-clip-6)" d="M 695 627 L 739 605 L 742 570 L 739 -17" fill="none" id="make-me-a-hanzi-animation-6" stroke-dasharray="799 1598" stroke-linecap="round"></path>
    
  </g>
</svg>