<svg version="1.1" viewBox="0 0 1024 1024" xmlns="http://www.w3.org/2000/svg">
  <g stroke="lightgray" stroke-dasharray="1,1" stroke-width="1" transform="scale(4, 4)">
    <line x1="0" y1="0" x2="256" y2="256"></line>
    <line x1="256" y1="0" x2="0" y2="256"></line>
    <line x1="128" y1="0" x2="128" y2="256"></line>
    <line x1="0" y1="128" x2="256" y2="128"></line>
  </g>
  <g transform="scale(1, -1) translate(0, -900)">
    <style type="text/css">
      
        @keyframes keyframes0 {
          from {
            stroke: blue;
            stroke-dashoffset: 438;
            stroke-width: 128;
          }
          59% {
            animation-timing-function: step-end;
            stroke: blue;
            stroke-dashoffset: 0;
            stroke-width: 128;
          }
          to {
            stroke: black;
            stroke-width: 1024;
          }
        }
        #make-me-a-hanzi-animation-0 {
          animation: keyframes0 0.6064453125s both;
          animation-delay: 0s;
          animation-timing-function: linear;
        }
      
        @keyframes keyframes1 {
          from {
            stroke: blue;
            stroke-dashoffset: 779;
            stroke-width: 128;
          }
          72% {
            animation-timing-function: step-end;
            stroke: blue;
            stroke-dashoffset: 0;
            stroke-width: 128;
          }
          to {
            stroke: black;
            stroke-width: 1024;
          }
        }
        #make-me-a-hanzi-animation-1 {
          animation: keyframes1 0.8839518229166666s both;
          animation-delay: 0.6064453125s;
          animation-timing-function: linear;
        }
      
        @keyframes keyframes2 {
          from {
            stroke: blue;
            stroke-dashoffset: 480;
            stroke-width: 128;
          }
          61% {
            animation-timing-function: step-end;
            stroke: blue;
            stroke-dashoffset: 0;
            stroke-width: 128;
          }
          to {
            stroke: black;
            stroke-width: 1024;
          }
        }
        #make-me-a-hanzi-animation-2 {
          animation: keyframes2 0.640625s both;
          animation-delay: 1.4903971354166665s;
          animation-timing-function: linear;
        }
      
        @keyframes keyframes3 {
          from {
            stroke: blue;
            stroke-dashoffset: 510;
            stroke-width: 128;
          }
          62% {
            animation-timing-function: step-end;
            stroke: blue;
            stroke-dashoffset: 0;
            stroke-width: 128;
          }
          to {
            stroke: black;
            stroke-width: 1024;
          }
        }
        #make-me-a-hanzi-animation-3 {
          animation: keyframes3 0.6650390625s both;
          animation-delay: 2.1310221354166665s;
          animation-timing-function: linear;
        }
      
        @keyframes keyframes4 {
          from {
            stroke: blue;
            stroke-dashoffset: 818;
            stroke-width: 128;
          }
          73% {
            animation-timing-function: step-end;
            stroke: blue;
            stroke-dashoffset: 0;
            stroke-width: 128;
          }
          to {
            stroke: black;
            stroke-width: 1024;
          }
        }
        #make-me-a-hanzi-animation-4 {
          animation: keyframes4 0.9156901041666666s both;
          animation-delay: 2.7960611979166665s;
          animation-timing-function: linear;
        }
      
        @keyframes keyframes5 {
          from {
            stroke: blue;
            stroke-dashoffset: 458;
            stroke-width: 128;
          }
          60% {
            animation-timing-function: step-end;
            stroke: blue;
            stroke-dashoffset: 0;
            stroke-width: 128;
          }
          to {
            stroke: black;
            stroke-width: 1024;
          }
        }
        #make-me-a-hanzi-animation-5 {
          animation: keyframes5 0.6227213541666666s both;
          animation-delay: 3.711751302083333s;
          animation-timing-function: linear;
        }
      
        @keyframes keyframes6 {
          from {
            stroke: blue;
            stroke-dashoffset: 473;
            stroke-width: 128;
          }
          61% {
            animation-timing-function: step-end;
            stroke: blue;
            stroke-dashoffset: 0;
            stroke-width: 128;
          }
          to {
            stroke: black;
            stroke-width: 1024;
          }
        }
        #make-me-a-hanzi-animation-6 {
          animation: keyframes6 0.6349283854166666s both;
          animation-delay: 4.33447265625s;
          animation-timing-function: linear;
        }
      
        @keyframes keyframes7 {
          from {
            stroke: blue;
            stroke-dashoffset: 411;
            stroke-width: 128;
          }
          57% {
            animation-timing-function: step-end;
            stroke: blue;
            stroke-dashoffset: 0;
            stroke-width: 128;
          }
          to {
            stroke: black;
            stroke-width: 1024;
          }
        }
        #make-me-a-hanzi-animation-7 {
          animation: keyframes7 0.58447265625s both;
          animation-delay: 4.969401041666667s;
          animation-timing-function: linear;
        }
      
        @keyframes keyframes8 {
          from {
            stroke: blue;
            stroke-dashoffset: 732;
            stroke-width: 128;
          }
          70% {
            animation-timing-function: step-end;
            stroke: blue;
            stroke-dashoffset: 0;
            stroke-width: 128;
          }
          to {
            stroke: black;
            stroke-width: 1024;
          }
        }
        #make-me-a-hanzi-animation-8 {
          animation: keyframes8 0.845703125s both;
          animation-delay: 5.553873697916667s;
          animation-timing-function: linear;
        }
      
        @keyframes keyframes9 {
          from {
            stroke: blue;
            stroke-dashoffset: 492;
            stroke-width: 128;
          }
          62% {
            animation-timing-function: step-end;
            stroke: blue;
            stroke-dashoffset: 0;
            stroke-width: 128;
          }
          to {
            stroke: black;
            stroke-width: 1024;
          }
        }
        #make-me-a-hanzi-animation-9 {
          animation: keyframes9 0.650390625s both;
          animation-delay: 6.399576822916667s;
          animation-timing-function: linear;
        }
      
        @keyframes keyframes10 {
          from {
            stroke: blue;
            stroke-dashoffset: 1037;
            stroke-width: 128;
          }
          77% {
            animation-timing-function: step-end;
            stroke: blue;
            stroke-dashoffset: 0;
            stroke-width: 128;
          }
          to {
            stroke: black;
            stroke-width: 1024;
          }
        }
        #make-me-a-hanzi-animation-10 {
          animation: keyframes10 1.0939127604166667s both;
          animation-delay: 7.049967447916667s;
          animation-timing-function: linear;
        }
      
    </style>
    
      <path d="M 507 698 Q 519 785 531 831 Q 534 841 516 854 Q 485 872 462 876 Q 447 879 440 871 Q 433 864 440 851 Q 458 830 464 691 C 465 661 503 668 507 698 Z" fill="lightgray"></path>
    
      <path d="M 658 714 Q 577 710 507 698 L 464 691 Q 391 681 331 664 Q 313 661 319 682 Q 334 743 325 757 Q 312 775 290 790 Q 280 796 269 795 Q 259 791 265 773 Q 278 736 269 700 Q 263 666 248 652 Q 229 636 235 622 Q 245 606 261 595 Q 274 588 284 594 Q 314 627 539 669 Q 630 684 654 678 C 684 675 688 716 658 714 Z" fill="lightgray"></path>
    
      <path d="M 654 678 Q 655 656 661 639 Q 667 621 681 631 Q 711 650 729 736 Q 750 775 756 779 Q 766 792 759 809 Q 743 828 713 852 Q 701 862 688 857 Q 679 856 680 841 Q 686 835 687 781 Q 677 742 662 720 Q 659 719 658 714 L 654 678 Z" fill="lightgray"></path>
    
      <path d="M 309 537 Q 288 549 265 552 Q 258 553 254 549 Q 247 542 257 533 Q 291 491 308 385 Q 317 322 354 303 Q 354 304 355 303 Q 368 300 370 320 L 368 349 Q 364 371 356 394 Q 355 401 353 407 L 347 435 Q 344 441 337 502 C 334 524 334 524 309 537 Z" fill="lightgray"></path>
    
      <path d="M 580 350 Q 586 332 600 333 Q 616 334 624 351 Q 636 361 658 421 Q 677 479 718 510 Q 739 528 722 545 Q 703 564 647 594 Q 629 606 549 585 Q 528 585 401 556 Q 346 543 309 537 C 279 532 308 493 337 502 Q 409 527 571 552 Q 599 555 610 550 Q 619 544 614 516 Q 593 411 582 386 C 573 360 573 360 580 350 Z" fill="lightgray"></path>
    
      <path d="M 353 407 Q 371 413 543 443 Q 565 447 557 460 Q 547 475 521 479 Q 497 480 456 469 Q 398 450 347 435 C 318 427 324 399 353 407 Z" fill="lightgray"></path>
    
      <path d="M 370 320 Q 403 332 580 350 C 610 353 611 378 582 386 Q 579 387 575 388 Q 559 391 368 349 C 339 343 341 311 370 320 Z" fill="lightgray"></path>
    
      <path d="M 297 159 Q 303 158 314 159 Q 390 169 445 174 Q 470 178 461 192 Q 451 208 423 212 Q 393 218 297 185 C 269 175 267 162 297 159 Z" fill="lightgray"></path>
    
      <path d="M 297 185 Q 297 240 295 243 L 294 244 Q 270 263 250 273 Q 232 280 224 274 Q 214 268 223 254 Q 254 193 251 107 Q 245 62 206 19 Q 194 6 200 -16 Q 207 -41 219 -52 Q 231 -61 242 -45 Q 267 -18 457 75 Q 476 82 483 90 Q 487 99 479 101 Q 467 102 317 55 Q 292 48 294 70 Q 297 119 297 159 L 297 185 Z" fill="lightgray"></path>
    
      <path d="M 575 181 Q 636 196 673 207 Q 749 234 781 236 Q 805 237 800 259 Q 793 280 773 302 Q 755 324 742 325 Q 729 328 729 314 Q 725 289 647 242 Q 613 223 577 202 C 551 187 546 174 575 181 Z" fill="lightgray"></path>
    
      <path d="M 577 202 Q 581 236 589 254 Q 599 284 581 299 Q 532 333 517 329 Q 504 323 511 307 Q 530 273 528 219 Q 527 59 556 18 Q 592 -27 664 -45 Q 719 -58 811 -50 Q 887 -41 915 -21 Q 945 -8 934 23 Q 918 66 910 142 Q 909 157 901 162 Q 894 166 890 148 Q 872 57 858 41 Q 851 22 818 16 Q 775 7 716 10 Q 647 14 617 28 Q 590 43 583 61 Q 567 101 575 181 L 577 202 Z" fill="lightgray"></path>
    
    
      <clipPath id="make-me-a-hanzi-clip-0">
        <path d="M 507 698 Q 519 785 531 831 Q 534 841 516 854 Q 485 872 462 876 Q 447 879 440 871 Q 433 864 440 851 Q 458 830 464 691 C 465 661 503 668 507 698 Z"></path>
      </clipPath>
      <path clip-path="url(#make-me-a-hanzi-clip-0)" d="M 452 861 L 481 837 L 490 821 L 486 718 L 469 703" fill="none" id="make-me-a-hanzi-animation-0" stroke-dasharray="310 620" stroke-linecap="round"></path>
    
      <clipPath id="make-me-a-hanzi-clip-1">
        <path d="M 658 714 Q 577 710 507 698 L 464 691 Q 391 681 331 664 Q 313 661 319 682 Q 334 743 325 757 Q 312 775 290 790 Q 280 796 269 795 Q 259 791 265 773 Q 278 736 269 700 Q 263 666 248 652 Q 229 636 235 622 Q 245 606 261 595 Q 274 588 284 594 Q 314 627 539 669 Q 630 684 654 678 C 684 675 688 716 658 714 Z"></path>
      </clipPath>
      <path clip-path="url(#make-me-a-hanzi-clip-1)" d="M 274 785 L 300 744 L 289 643 L 328 641 L 443 670 L 559 690 L 640 696 L 651 684" fill="none" id="make-me-a-hanzi-animation-1" stroke-dasharray="651 1302" stroke-linecap="round"></path>
    
      <clipPath id="make-me-a-hanzi-clip-2">
        <path d="M 654 678 Q 655 656 661 639 Q 667 621 681 631 Q 711 650 729 736 Q 750 775 756 779 Q 766 792 759 809 Q 743 828 713 852 Q 701 862 688 857 Q 679 856 680 841 Q 686 835 687 781 Q 677 742 662 720 Q 659 719 658 714 L 654 678 Z"></path>
      </clipPath>
      <path clip-path="url(#make-me-a-hanzi-clip-2)" d="M 691 845 L 707 830 L 722 796 L 673 639" fill="none" id="make-me-a-hanzi-animation-2" stroke-dasharray="352 704" stroke-linecap="round"></path>
    
      <clipPath id="make-me-a-hanzi-clip-3">
        <path d="M 309 537 Q 288 549 265 552 Q 258 553 254 549 Q 247 542 257 533 Q 291 491 308 385 Q 317 322 354 303 Q 354 304 355 303 Q 368 300 370 320 L 368 349 Q 364 371 356 394 Q 355 401 353 407 L 347 435 Q 344 441 337 502 C 334 524 334 524 309 537 Z"></path>
      </clipPath>
      <path clip-path="url(#make-me-a-hanzi-clip-3)" d="M 261 542 L 292 521 L 312 488 L 334 379 L 357 316" fill="none" id="make-me-a-hanzi-animation-3" stroke-dasharray="382 764" stroke-linecap="round"></path>
    
      <clipPath id="make-me-a-hanzi-clip-4">
        <path d="M 580 350 Q 586 332 600 333 Q 616 334 624 351 Q 636 361 658 421 Q 677 479 718 510 Q 739 528 722 545 Q 703 564 647 594 Q 629 606 549 585 Q 528 585 401 556 Q 346 543 309 537 C 279 532 308 493 337 502 Q 409 527 571 552 Q 599 555 610 550 Q 619 544 614 516 Q 593 411 582 386 C 573 360 573 360 580 350 Z"></path>
      </clipPath>
      <path clip-path="url(#make-me-a-hanzi-clip-4)" d="M 316 533 L 347 525 L 417 544 L 564 571 L 601 575 L 632 569 L 665 527 L 600 353" fill="none" id="make-me-a-hanzi-animation-4" stroke-dasharray="690 1380" stroke-linecap="round"></path>
    
      <clipPath id="make-me-a-hanzi-clip-5">
        <path d="M 353 407 Q 371 413 543 443 Q 565 447 557 460 Q 547 475 521 479 Q 497 480 456 469 Q 398 450 347 435 C 318 427 324 399 353 407 Z"></path>
      </clipPath>
      <path clip-path="url(#make-me-a-hanzi-clip-5)" d="M 353 414 L 371 427 L 469 452 L 516 459 L 547 454" fill="none" id="make-me-a-hanzi-animation-5" stroke-dasharray="330 660" stroke-linecap="round"></path>
    
      <clipPath id="make-me-a-hanzi-clip-6">
        <path d="M 370 320 Q 403 332 580 350 C 610 353 611 378 582 386 Q 579 387 575 388 Q 559 391 368 349 C 339 343 341 311 370 320 Z"></path>
      </clipPath>
      <path clip-path="url(#make-me-a-hanzi-clip-6)" d="M 371 327 L 383 338 L 409 346 L 559 367 L 577 380" fill="none" id="make-me-a-hanzi-animation-6" stroke-dasharray="345 690" stroke-linecap="round"></path>
    
      <clipPath id="make-me-a-hanzi-clip-7">
        <path d="M 297 159 Q 303 158 314 159 Q 390 169 445 174 Q 470 178 461 192 Q 451 208 423 212 Q 393 218 297 185 C 269 175 267 162 297 159 Z"></path>
      </clipPath>
      <path clip-path="url(#make-me-a-hanzi-clip-7)" d="M 301 166 L 313 176 L 393 190 L 424 192 L 450 186" fill="none" id="make-me-a-hanzi-animation-7" stroke-dasharray="283 566" stroke-linecap="round"></path>
    
      <clipPath id="make-me-a-hanzi-clip-8">
        <path d="M 297 185 Q 297 240 295 243 L 294 244 Q 270 263 250 273 Q 232 280 224 274 Q 214 268 223 254 Q 254 193 251 107 Q 245 62 206 19 Q 194 6 200 -16 Q 207 -41 219 -52 Q 231 -61 242 -45 Q 267 -18 457 75 Q 476 82 483 90 Q 487 99 479 101 Q 467 102 317 55 Q 292 48 294 70 Q 297 119 297 159 L 297 185 Z"></path>
      </clipPath>
      <path clip-path="url(#make-me-a-hanzi-clip-8)" d="M 231 264 L 266 227 L 272 197 L 274 110 L 268 25 L 319 31 L 478 94" fill="none" id="make-me-a-hanzi-animation-8" stroke-dasharray="604 1208" stroke-linecap="round"></path>
    
      <clipPath id="make-me-a-hanzi-clip-9">
        <path d="M 575 181 Q 636 196 673 207 Q 749 234 781 236 Q 805 237 800 259 Q 793 280 773 302 Q 755 324 742 325 Q 729 328 729 314 Q 725 289 647 242 Q 613 223 577 202 C 551 187 546 174 575 181 Z"></path>
      </clipPath>
      <path clip-path="url(#make-me-a-hanzi-clip-9)" d="M 738 316 L 749 271 L 676 232 L 587 196 L 583 186" fill="none" id="make-me-a-hanzi-animation-9" stroke-dasharray="364 728" stroke-linecap="round"></path>
    
      <clipPath id="make-me-a-hanzi-clip-10">
        <path d="M 577 202 Q 581 236 589 254 Q 599 284 581 299 Q 532 333 517 329 Q 504 323 511 307 Q 530 273 528 219 Q 527 59 556 18 Q 592 -27 664 -45 Q 719 -58 811 -50 Q 887 -41 915 -21 Q 945 -8 934 23 Q 918 66 910 142 Q 909 157 901 162 Q 894 166 890 148 Q 872 57 858 41 Q 851 22 818 16 Q 775 7 716 10 Q 647 14 617 28 Q 590 43 583 61 Q 567 101 575 181 L 577 202 Z"></path>
      </clipPath>
      <path clip-path="url(#make-me-a-hanzi-clip-10)" d="M 521 317 L 559 269 L 550 143 L 559 65 L 573 33 L 608 4 L 663 -15 L 736 -22 L 818 -17 L 865 -4 L 892 15 L 900 154" fill="none" id="make-me-a-hanzi-animation-10" stroke-dasharray="909 1818" stroke-linecap="round"></path>
    
  </g>
</svg>