<svg version="1.1" viewBox="0 0 1024 1024" xmlns="http://www.w3.org/2000/svg">
  <g stroke="lightgray" stroke-dasharray="1,1" stroke-width="1" transform="scale(4, 4)">
    <line x1="0" y1="0" x2="256" y2="256"></line>
    <line x1="256" y1="0" x2="0" y2="256"></line>
    <line x1="128" y1="0" x2="128" y2="256"></line>
    <line x1="0" y1="128" x2="256" y2="128"></line>
  </g>
  <g transform="scale(1, -1) translate(0, -900)">
    <style type="text/css">
      
        @keyframes keyframes0 {
          from {
            stroke: blue;
            stroke-dashoffset: 441;
            stroke-width: 128;
          }
          59% {
            animation-timing-function: step-end;
            stroke: blue;
            stroke-dashoffset: 0;
            stroke-width: 128;
          }
          to {
            stroke: black;
            stroke-width: 1024;
          }
        }
        #make-me-a-hanzi-animation-0 {
          animation: keyframes0 0.60888671875s both;
          animation-delay: 0s;
          animation-timing-function: linear;
        }
      
        @keyframes keyframes1 {
          from {
            stroke: blue;
            stroke-dashoffset: 794;
            stroke-width: 128;
          }
          72% {
            animation-timing-function: step-end;
            stroke: blue;
            stroke-dashoffset: 0;
            stroke-width: 128;
          }
          to {
            stroke: black;
            stroke-width: 1024;
          }
        }
        #make-me-a-hanzi-animation-1 {
          animation: keyframes1 0.8961588541666666s both;
          animation-delay: 0.60888671875s;
          animation-timing-function: linear;
        }
      
        @keyframes keyframes2 {
          from {
            stroke: blue;
            stroke-dashoffset: 462;
            stroke-width: 128;
          }
          60% {
            animation-timing-function: step-end;
            stroke: blue;
            stroke-dashoffset: 0;
            stroke-width: 128;
          }
          to {
            stroke: black;
            stroke-width: 1024;
          }
        }
        #make-me-a-hanzi-animation-2 {
          animation: keyframes2 0.6259765625s both;
          animation-delay: 1.5050455729166665s;
          animation-timing-function: linear;
        }
      
        @keyframes keyframes3 {
          from {
            stroke: blue;
            stroke-dashoffset: 331;
            stroke-width: 128;
          }
          52% {
            animation-timing-function: step-end;
            stroke: blue;
            stroke-dashoffset: 0;
            stroke-width: 128;
          }
          to {
            stroke: black;
            stroke-width: 1024;
          }
        }
        #make-me-a-hanzi-animation-3 {
          animation: keyframes3 0.5193684895833334s both;
          animation-delay: 2.1310221354166665s;
          animation-timing-function: linear;
        }
      
        @keyframes keyframes4 {
          from {
            stroke: blue;
            stroke-dashoffset: 564;
            stroke-width: 128;
          }
          65% {
            animation-timing-function: step-end;
            stroke: blue;
            stroke-dashoffset: 0;
            stroke-width: 128;
          }
          to {
            stroke: black;
            stroke-width: 1024;
          }
        }
        #make-me-a-hanzi-animation-4 {
          animation: keyframes4 0.708984375s both;
          animation-delay: 2.650390625s;
          animation-timing-function: linear;
        }
      
        @keyframes keyframes5 {
          from {
            stroke: blue;
            stroke-dashoffset: 501;
            stroke-width: 128;
          }
          62% {
            animation-timing-function: step-end;
            stroke: blue;
            stroke-dashoffset: 0;
            stroke-width: 128;
          }
          to {
            stroke: black;
            stroke-width: 1024;
          }
        }
        #make-me-a-hanzi-animation-5 {
          animation: keyframes5 0.65771484375s both;
          animation-delay: 3.359375s;
          animation-timing-function: linear;
        }
      
        @keyframes keyframes6 {
          from {
            stroke: blue;
            stroke-dashoffset: 351;
            stroke-width: 128;
          }
          53% {
            animation-timing-function: step-end;
            stroke: blue;
            stroke-dashoffset: 0;
            stroke-width: 128;
          }
          to {
            stroke: black;
            stroke-width: 1024;
          }
        }
        #make-me-a-hanzi-animation-6 {
          animation: keyframes6 0.53564453125s both;
          animation-delay: 4.01708984375s;
          animation-timing-function: linear;
        }
      
        @keyframes keyframes7 {
          from {
            stroke: blue;
            stroke-dashoffset: 479;
            stroke-width: 128;
          }
          61% {
            animation-timing-function: step-end;
            stroke: blue;
            stroke-dashoffset: 0;
            stroke-width: 128;
          }
          to {
            stroke: black;
            stroke-width: 1024;
          }
        }
        #make-me-a-hanzi-animation-7 {
          animation: keyframes7 0.6398111979166666s both;
          animation-delay: 4.552734375s;
          animation-timing-function: linear;
        }
      
        @keyframes keyframes8 {
          from {
            stroke: blue;
            stroke-dashoffset: 394;
            stroke-width: 128;
          }
          56% {
            animation-timing-function: step-end;
            stroke: blue;
            stroke-dashoffset: 0;
            stroke-width: 128;
          }
          to {
            stroke: black;
            stroke-width: 1024;
          }
        }
        #make-me-a-hanzi-animation-8 {
          animation: keyframes8 0.5706380208333334s both;
          animation-delay: 5.192545572916667s;
          animation-timing-function: linear;
        }
      
        @keyframes keyframes9 {
          from {
            stroke: blue;
            stroke-dashoffset: 1054;
            stroke-width: 128;
          }
          77% {
            animation-timing-function: step-end;
            stroke: blue;
            stroke-dashoffset: 0;
            stroke-width: 128;
          }
          to {
            stroke: black;
            stroke-width: 1024;
          }
        }
        #make-me-a-hanzi-animation-9 {
          animation: keyframes9 1.1077473958333333s both;
          animation-delay: 5.76318359375s;
          animation-timing-function: linear;
        }
      
        @keyframes keyframes10 {
          from {
            stroke: blue;
            stroke-dashoffset: 660;
            stroke-width: 128;
          }
          68% {
            animation-timing-function: step-end;
            stroke: blue;
            stroke-dashoffset: 0;
            stroke-width: 128;
          }
          to {
            stroke: black;
            stroke-width: 1024;
          }
        }
        #make-me-a-hanzi-animation-10 {
          animation: keyframes10 0.787109375s both;
          animation-delay: 6.870930989583333s;
          animation-timing-function: linear;
        }
      
    </style>
    
      <path d="M 530 675 Q 542 744 560 811 Q 563 821 546 834 Q 516 853 495 857 Q 482 861 474 853 Q 467 847 473 834 Q 491 807 490 668 C 490 638 525 645 530 675 Z" fill="lightgray"></path>
    
      <path d="M 680 694 Q 601 688 530 675 L 490 668 Q 418 658 356 639 Q 340 636 345 656 Q 364 741 356 758 Q 343 774 323 789 Q 313 795 303 794 Q 293 790 299 772 Q 315 727 304 685 Q 297 645 277 627 Q 261 611 266 599 Q 276 584 291 573 Q 303 566 312 573 Q 346 609 563 648 Q 645 664 673 659 C 703 657 710 696 680 694 Z" fill="lightgray"></path>
    
      <path d="M 673 659 Q 673 637 679 621 Q 683 606 696 614 Q 723 636 738 706 Q 757 751 765 757 Q 775 769 767 782 Q 754 798 727 820 Q 717 827 706 825 Q 699 822 699 810 Q 705 800 701 745 Q 692 714 680 694 L 673 659 Z" fill="lightgray"></path>
    
      <path d="M 477 598 Q 528 555 545 555 Q 555 556 559 572 Q 559 582 548 598 Q 526 620 478 621 Q 471 621 471 612 Q 470 605 477 598 Z" fill="lightgray"></path>
    
      <path d="M 377 514 Q 343 508 367 493 Q 403 469 456 482 Q 541 498 632 516 Q 672 525 679 530 Q 686 537 683 545 Q 676 555 650 563 Q 626 567 524 538 Q 434 519 377 514 Z" fill="lightgray"></path>
    
      <path d="M 364 363 Q 382 387 399 406 Q 408 415 398 428 Q 367 455 347 456 Q 337 455 338 443 Q 339 374 257 290 Q 251 290 222 257 Q 215 247 226 249 Q 239 250 259 262 Q 316 299 351 346 L 364 363 Z" fill="lightgray"></path>
    
      <path d="M 351 346 Q 355 340 371 332 Q 396 317 423 298 Q 433 291 445 293 Q 452 294 454 304 Q 455 314 446 334 Q 433 358 364 363 C 334 365 334 365 351 346 Z" fill="lightgray"></path>
    
      <path d="M 547 298 Q 590 316 643 380 L 655 396 Q 674 424 693 447 Q 700 457 690 468 Q 657 496 638 494 Q 629 493 630 481 Q 639 415 554 328 Q 539 316 534 306 C 521 286 521 286 547 298 Z" fill="lightgray"></path>
    
      <path d="M 643 380 Q 647 373 668 359 Q 704 337 743 307 Q 753 298 766 300 Q 775 301 777 312 Q 780 324 771 346 Q 761 376 660 396 Q 657 397 655 396 C 630 396 630 396 643 380 Z" fill="lightgray"></path>
    
      <path d="M 550 189 Q 596 192 911 193 Q 933 192 938 201 Q 945 214 927 229 Q 869 272 802 259 Q 702 243 552 224 L 494 218 Q 328 202 138 183 Q 116 182 132 163 Q 147 147 165 141 Q 187 135 205 139 Q 325 169 494 184 L 550 189 Z" fill="lightgray"></path>
    
      <path d="M 494 184 Q 494 -57 502 -75 Q 503 -79 507 -85 Q 511 -92 519 -90 Q 546 -72 546 55 Q 545 86 550 189 L 552 224 Q 552 225 553 225 Q 554 240 556 249 Q 557 261 560 271 Q 564 287 551 296 Q 550 297 547 298 L 534 306 Q 518 318 508 319 Q 496 323 482 316 Q 473 309 480 299 Q 493 272 494 218 L 494 184 Z" fill="lightgray"></path>
    
    
      <clipPath id="make-me-a-hanzi-clip-0">
        <path d="M 530 675 Q 542 744 560 811 Q 563 821 546 834 Q 516 853 495 857 Q 482 861 474 853 Q 467 847 473 834 Q 491 807 490 668 C 490 638 525 645 530 675 Z"></path>
      </clipPath>
      <path clip-path="url(#make-me-a-hanzi-clip-0)" d="M 485 843 L 520 807 L 511 694 L 495 680" fill="none" id="make-me-a-hanzi-animation-0" stroke-dasharray="313 626" stroke-linecap="round"></path>
    
      <clipPath id="make-me-a-hanzi-clip-1">
        <path d="M 680 694 Q 601 688 530 675 L 490 668 Q 418 658 356 639 Q 340 636 345 656 Q 364 741 356 758 Q 343 774 323 789 Q 313 795 303 794 Q 293 790 299 772 Q 315 727 304 685 Q 297 645 277 627 Q 261 611 266 599 Q 276 584 291 573 Q 303 566 312 573 Q 346 609 563 648 Q 645 664 673 659 C 703 657 710 696 680 694 Z"></path>
      </clipPath>
      <path clip-path="url(#make-me-a-hanzi-clip-1)" d="M 307 784 L 333 738 L 317 619 L 358 619 L 484 651 L 658 677 L 672 689" fill="none" id="make-me-a-hanzi-animation-1" stroke-dasharray="666 1332" stroke-linecap="round"></path>
    
      <clipPath id="make-me-a-hanzi-clip-2">
        <path d="M 673 659 Q 673 637 679 621 Q 683 606 696 614 Q 723 636 738 706 Q 757 751 765 757 Q 775 769 767 782 Q 754 798 727 820 Q 717 827 706 825 Q 699 822 699 810 Q 705 800 701 745 Q 692 714 680 694 L 673 659 Z"></path>
      </clipPath>
      <path clip-path="url(#make-me-a-hanzi-clip-2)" d="M 711 815 L 734 771 L 689 621" fill="none" id="make-me-a-hanzi-animation-2" stroke-dasharray="334 668" stroke-linecap="round"></path>
    
      <clipPath id="make-me-a-hanzi-clip-3">
        <path d="M 477 598 Q 528 555 545 555 Q 555 556 559 572 Q 559 582 548 598 Q 526 620 478 621 Q 471 621 471 612 Q 470 605 477 598 Z"></path>
      </clipPath>
      <path clip-path="url(#make-me-a-hanzi-clip-3)" d="M 484 609 L 530 585 L 544 567" fill="none" id="make-me-a-hanzi-animation-3" stroke-dasharray="203 406" stroke-linecap="round"></path>
    
      <clipPath id="make-me-a-hanzi-clip-4">
        <path d="M 377 514 Q 343 508 367 493 Q 403 469 456 482 Q 541 498 632 516 Q 672 525 679 530 Q 686 537 683 545 Q 676 555 650 563 Q 626 567 524 538 Q 434 519 377 514 Z"></path>
      </clipPath>
      <path clip-path="url(#make-me-a-hanzi-clip-4)" d="M 369 505 L 392 498 L 429 498 L 633 540 L 672 540" fill="none" id="make-me-a-hanzi-animation-4" stroke-dasharray="436 872" stroke-linecap="round"></path>
    
      <clipPath id="make-me-a-hanzi-clip-5">
        <path d="M 364 363 Q 382 387 399 406 Q 408 415 398 428 Q 367 455 347 456 Q 337 455 338 443 Q 339 374 257 290 Q 251 290 222 257 Q 215 247 226 249 Q 239 250 259 262 Q 316 299 351 346 L 364 363 Z"></path>
      </clipPath>
      <path clip-path="url(#make-me-a-hanzi-clip-5)" d="M 350 444 L 366 415 L 344 372 L 295 307 L 230 256" fill="none" id="make-me-a-hanzi-animation-5" stroke-dasharray="373 746" stroke-linecap="round"></path>
    
      <clipPath id="make-me-a-hanzi-clip-6">
        <path d="M 351 346 Q 355 340 371 332 Q 396 317 423 298 Q 433 291 445 293 Q 452 294 454 304 Q 455 314 446 334 Q 433 358 364 363 C 334 365 334 365 351 346 Z"></path>
      </clipPath>
      <path clip-path="url(#make-me-a-hanzi-clip-6)" d="M 358 347 L 373 349 L 406 336 L 440 307" fill="none" id="make-me-a-hanzi-animation-6" stroke-dasharray="223 446" stroke-linecap="round"></path>
    
      <clipPath id="make-me-a-hanzi-clip-7">
        <path d="M 547 298 Q 590 316 643 380 L 655 396 Q 674 424 693 447 Q 700 457 690 468 Q 657 496 638 494 Q 629 493 630 481 Q 639 415 554 328 Q 539 316 534 306 C 521 286 521 286 547 298 Z"></path>
      </clipPath>
      <path clip-path="url(#make-me-a-hanzi-clip-7)" d="M 642 482 L 660 454 L 636 404 L 579 333 L 544 307" fill="none" id="make-me-a-hanzi-animation-7" stroke-dasharray="351 702" stroke-linecap="round"></path>
    
      <clipPath id="make-me-a-hanzi-clip-8">
        <path d="M 643 380 Q 647 373 668 359 Q 704 337 743 307 Q 753 298 766 300 Q 775 301 777 312 Q 780 324 771 346 Q 761 376 660 396 Q 657 397 655 396 C 630 396 630 396 643 380 Z"></path>
      </clipPath>
      <path clip-path="url(#make-me-a-hanzi-clip-8)" d="M 650 381 L 669 380 L 733 348 L 764 312" fill="none" id="make-me-a-hanzi-animation-8" stroke-dasharray="266 532" stroke-linecap="round"></path>
    
      <clipPath id="make-me-a-hanzi-clip-9">
        <path d="M 550 189 Q 596 192 911 193 Q 933 192 938 201 Q 945 214 927 229 Q 869 272 802 259 Q 702 243 552 224 L 494 218 Q 328 202 138 183 Q 116 182 132 163 Q 147 147 165 141 Q 187 135 205 139 Q 325 169 494 184 L 550 189 Z"></path>
      </clipPath>
      <path clip-path="url(#make-me-a-hanzi-clip-9)" d="M 135 173 L 187 162 L 444 197 L 814 227 L 859 226 L 926 208" fill="none" id="make-me-a-hanzi-animation-9" stroke-dasharray="926 1852" stroke-linecap="round"></path>
    
      <clipPath id="make-me-a-hanzi-clip-10">
        <path d="M 494 184 Q 494 -57 502 -75 Q 503 -79 507 -85 Q 511 -92 519 -90 Q 546 -72 546 55 Q 545 86 550 189 L 552 224 Q 552 225 553 225 Q 554 240 556 249 Q 557 261 560 271 Q 564 287 551 296 Q 550 297 547 298 L 534 306 Q 518 318 508 319 Q 496 323 482 316 Q 473 309 480 299 Q 493 272 494 218 L 494 184 Z"></path>
      </clipPath>
      <path clip-path="url(#make-me-a-hanzi-clip-10)" d="M 488 307 L 513 289 L 524 271 L 516 -81" fill="none" id="make-me-a-hanzi-animation-10" stroke-dasharray="532 1064" stroke-linecap="round"></path>
    
  </g>
</svg>