<svg version="1.1" viewBox="0 0 1024 1024" xmlns="http://www.w3.org/2000/svg">
  <g stroke="lightgray" stroke-dasharray="1,1" stroke-width="1" transform="scale(4, 4)">
    <line x1="0" y1="0" x2="256" y2="256"></line>
    <line x1="256" y1="0" x2="0" y2="256"></line>
    <line x1="128" y1="0" x2="128" y2="256"></line>
    <line x1="0" y1="128" x2="256" y2="128"></line>
  </g>
  <g transform="scale(1, -1) translate(0, -900)">
    <style type="text/css">
      
        @keyframes keyframes0 {
          from {
            stroke: blue;
            stroke-dashoffset: 706;
            stroke-width: 128;
          }
          70% {
            animation-timing-function: step-end;
            stroke: blue;
            stroke-dashoffset: 0;
            stroke-width: 128;
          }
          to {
            stroke: black;
            stroke-width: 1024;
          }
        }
        #make-me-a-hanzi-animation-0 {
          animation: keyframes0 0.8245442708333334s both;
          animation-delay: 0s;
          animation-timing-function: linear;
        }
      
        @keyframes keyframes1 {
          from {
            stroke: blue;
            stroke-dashoffset: 687;
            stroke-width: 128;
          }
          69% {
            animation-timing-function: step-end;
            stroke: blue;
            stroke-dashoffset: 0;
            stroke-width: 128;
          }
          to {
            stroke: black;
            stroke-width: 1024;
          }
        }
        #make-me-a-hanzi-animation-1 {
          animation: keyframes1 0.80908203125s both;
          animation-delay: 0.8245442708333334s;
          animation-timing-function: linear;
        }
      
        @keyframes keyframes2 {
          from {
            stroke: blue;
            stroke-dashoffset: 501;
            stroke-width: 128;
          }
          62% {
            animation-timing-function: step-end;
            stroke: blue;
            stroke-dashoffset: 0;
            stroke-width: 128;
          }
          to {
            stroke: black;
            stroke-width: 1024;
          }
        }
        #make-me-a-hanzi-animation-2 {
          animation: keyframes2 0.65771484375s both;
          animation-delay: 1.6336263020833335s;
          animation-timing-function: linear;
        }
      
        @keyframes keyframes3 {
          from {
            stroke: blue;
            stroke-dashoffset: 441;
            stroke-width: 128;
          }
          59% {
            animation-timing-function: step-end;
            stroke: blue;
            stroke-dashoffset: 0;
            stroke-width: 128;
          }
          to {
            stroke: black;
            stroke-width: 1024;
          }
        }
        #make-me-a-hanzi-animation-3 {
          animation: keyframes3 0.60888671875s both;
          animation-delay: 2.2913411458333335s;
          animation-timing-function: linear;
        }
      
        @keyframes keyframes4 {
          from {
            stroke: blue;
            stroke-dashoffset: 769;
            stroke-width: 128;
          }
          71% {
            animation-timing-function: step-end;
            stroke: blue;
            stroke-dashoffset: 0;
            stroke-width: 128;
          }
          to {
            stroke: black;
            stroke-width: 1024;
          }
        }
        #make-me-a-hanzi-animation-4 {
          animation: keyframes4 0.8758138020833334s both;
          animation-delay: 2.9002278645833335s;
          animation-timing-function: linear;
        }
      
        @keyframes keyframes5 {
          from {
            stroke: blue;
            stroke-dashoffset: 349;
            stroke-width: 128;
          }
          53% {
            animation-timing-function: step-end;
            stroke: blue;
            stroke-dashoffset: 0;
            stroke-width: 128;
          }
          to {
            stroke: black;
            stroke-width: 1024;
          }
        }
        #make-me-a-hanzi-animation-5 {
          animation: keyframes5 0.5340169270833334s both;
          animation-delay: 3.776041666666667s;
          animation-timing-function: linear;
        }
      
        @keyframes keyframes6 {
          from {
            stroke: blue;
            stroke-dashoffset: 369;
            stroke-width: 128;
          }
          55% {
            animation-timing-function: step-end;
            stroke: blue;
            stroke-dashoffset: 0;
            stroke-width: 128;
          }
          to {
            stroke: black;
            stroke-width: 1024;
          }
        }
        #make-me-a-hanzi-animation-6 {
          animation: keyframes6 0.55029296875s both;
          animation-delay: 4.31005859375s;
          animation-timing-function: linear;
        }
      
        @keyframes keyframes7 {
          from {
            stroke: blue;
            stroke-dashoffset: 506;
            stroke-width: 128;
          }
          62% {
            animation-timing-function: step-end;
            stroke: blue;
            stroke-dashoffset: 0;
            stroke-width: 128;
          }
          to {
            stroke: black;
            stroke-width: 1024;
          }
        }
        #make-me-a-hanzi-animation-7 {
          animation: keyframes7 0.6617838541666666s both;
          animation-delay: 4.8603515625s;
          animation-timing-function: linear;
        }
      
        @keyframes keyframes8 {
          from {
            stroke: blue;
            stroke-dashoffset: 511;
            stroke-width: 128;
          }
          62% {
            animation-timing-function: step-end;
            stroke: blue;
            stroke-dashoffset: 0;
            stroke-width: 128;
          }
          to {
            stroke: black;
            stroke-width: 1024;
          }
        }
        #make-me-a-hanzi-animation-8 {
          animation: keyframes8 0.6658528645833334s both;
          animation-delay: 5.522135416666667s;
          animation-timing-function: linear;
        }
      
        @keyframes keyframes9 {
          from {
            stroke: blue;
            stroke-dashoffset: 427;
            stroke-width: 128;
          }
          58% {
            animation-timing-function: step-end;
            stroke: blue;
            stroke-dashoffset: 0;
            stroke-width: 128;
          }
          to {
            stroke: black;
            stroke-width: 1024;
          }
        }
        #make-me-a-hanzi-animation-9 {
          animation: keyframes9 0.5974934895833334s both;
          animation-delay: 6.18798828125s;
          animation-timing-function: linear;
        }
      
        @keyframes keyframes10 {
          from {
            stroke: blue;
            stroke-dashoffset: 735;
            stroke-width: 128;
          }
          71% {
            animation-timing-function: step-end;
            stroke: blue;
            stroke-dashoffset: 0;
            stroke-width: 128;
          }
          to {
            stroke: black;
            stroke-width: 1024;
          }
        }
        #make-me-a-hanzi-animation-10 {
          animation: keyframes10 0.84814453125s both;
          animation-delay: 6.785481770833333s;
          animation-timing-function: linear;
        }
      
        @keyframes keyframes11 {
          from {
            stroke: blue;
            stroke-dashoffset: 334;
            stroke-width: 128;
          }
          52% {
            animation-timing-function: step-end;
            stroke: blue;
            stroke-dashoffset: 0;
            stroke-width: 128;
          }
          to {
            stroke: black;
            stroke-width: 1024;
          }
        }
        #make-me-a-hanzi-animation-11 {
          animation: keyframes11 0.5218098958333334s both;
          animation-delay: 7.633626302083333s;
          animation-timing-function: linear;
        }
      
        @keyframes keyframes12 {
          from {
            stroke: blue;
            stroke-dashoffset: 383;
            stroke-width: 128;
          }
          55% {
            animation-timing-function: step-end;
            stroke: blue;
            stroke-dashoffset: 0;
            stroke-width: 128;
          }
          to {
            stroke: black;
            stroke-width: 1024;
          }
        }
        #make-me-a-hanzi-animation-12 {
          animation: keyframes12 0.5616861979166666s both;
          animation-delay: 8.155436197916666s;
          animation-timing-function: linear;
        }
      
        @keyframes keyframes13 {
          from {
            stroke: blue;
            stroke-dashoffset: 576;
            stroke-width: 128;
          }
          65% {
            animation-timing-function: step-end;
            stroke: blue;
            stroke-dashoffset: 0;
            stroke-width: 128;
          }
          to {
            stroke: black;
            stroke-width: 1024;
          }
        }
        #make-me-a-hanzi-animation-13 {
          animation: keyframes13 0.71875s both;
          animation-delay: 8.717122395833332s;
          animation-timing-function: linear;
        }
      
        @keyframes keyframes14 {
          from {
            stroke: blue;
            stroke-dashoffset: 764;
            stroke-width: 128;
          }
          71% {
            animation-timing-function: step-end;
            stroke: blue;
            stroke-dashoffset: 0;
            stroke-width: 128;
          }
          to {
            stroke: black;
            stroke-width: 1024;
          }
        }
        #make-me-a-hanzi-animation-14 {
          animation: keyframes14 0.8717447916666666s both;
          animation-delay: 9.435872395833332s;
          animation-timing-function: linear;
        }
      
        @keyframes keyframes15 {
          from {
            stroke: blue;
            stroke-dashoffset: 619;
            stroke-width: 128;
          }
          67% {
            animation-timing-function: step-end;
            stroke: blue;
            stroke-dashoffset: 0;
            stroke-width: 128;
          }
          to {
            stroke: black;
            stroke-width: 1024;
          }
        }
        #make-me-a-hanzi-animation-15 {
          animation: keyframes15 0.7537434895833334s both;
          animation-delay: 10.307617187499998s;
          animation-timing-function: linear;
        }
      
    </style>
    
      <path d="M 257 377 Q 276 716 278 720 Q 278 721 287 762 Q 291 774 270 788 Q 236 807 210 811 Q 194 814 186 805 Q 179 798 187 783 Q 212 746 213 722 Q 223 557 215 366 C 214 336 255 347 257 377 Z" fill="lightgray"></path>
    
      <path d="M 324 390 Q 288 386 257 377 L 215 366 Q 175 357 141 343 Q 125 339 129 359 Q 133 408 139 460 Q 143 482 133 495 Q 120 511 97 523 Q 87 529 77 526 Q 67 522 75 505 Q 99 451 91 398 Q 85 346 64 324 Q 48 308 56 294 Q 66 281 82 272 Q 95 265 104 273 Q 134 315 290 350 Q 314 357 325 354 C 355 353 354 394 324 390 Z" fill="lightgray"></path>
    
      <path d="M 325 354 Q 329 336 337 323 Q 344 308 355 319 Q 376 341 380 416 Q 393 498 400 509 Q 407 522 398 535 Q 380 548 352 565 Q 340 572 329 566 Q 322 562 325 551 Q 352 508 329 405 Q 326 399 325 392 Q 324 392 324 390 L 325 354 Z" fill="lightgray"></path>
    
      <path d="M 450 775 Q 440 781 410 783 Q 400 784 396 780 Q 392 774 400 760 Q 425 717 446 645 Q 450 623 465 609 Q 481 591 486 605 Q 487 612 487 624 L 483 652 Q 468 719 462 746 C 456 772 456 772 450 775 Z" fill="lightgray"></path>
    
      <path d="M 739 653 Q 740 650 741 646 Q 745 633 755 632 Q 771 635 800 687 Q 816 730 849 754 Q 865 767 853 781 Q 840 797 797 821 Q 785 830 722 817 Q 604 804 545 791 Q 490 781 450 775 C 420 770 433 738 462 746 Q 483 752 537 763 L 559 766 Q 593 773 639 779 L 675 784 Q 747 797 769 786 Q 776 782 771 762 Q 753 696 745 678 C 737 657 737 657 739 653 Z" fill="lightgray"></path>
    
      <path d="M 585 666 Q 585 723 560 765 L 559 766 C 542 790 526 791 537 763 L 538 762 Q 541 743 542 722 Q 542 707 558 661 C 568 633 585 636 585 666 Z" fill="lightgray"></path>
    
      <path d="M 655 680 Q 664 698 678 728 Q 682 738 691 752 Q 701 762 694 768 Q 687 777 675 784 C 649 800 629 807 639 779 Q 651 749 628 674 C 619 645 642 653 655 680 Z" fill="lightgray"></path>
    
      <path d="M 612 640 Q 663 647 739 653 C 769 655 768 658 745 678 Q 741 682 734 687 Q 716 696 655 680 L 628 674 Q 604 670 585 666 L 558 661 Q 516 657 483 652 C 453 648 457 621 487 624 Q 490 624 567 634 L 612 640 Z" fill="lightgray"></path>
    
      <path d="M 630 542 Q 664 551 701 557 Q 734 564 739 569 Q 746 576 742 583 Q 736 592 713 598 Q 692 601 636 583 L 584 569 Q 538 559 487 554 Q 457 550 478 535 Q 511 517 566 530 Q 575 533 587 533 L 630 542 Z" fill="lightgray"></path>
    
      <path d="M 622 482 Q 626 513 630 542 L 636 583 Q 636 589 644 611 Q 647 618 632 630 Q 622 636 612 640 C 584 652 555 661 567 634 Q 580 607 584 569 L 587 533 Q 588 506 588 476 C 588 446 618 452 622 482 Z" fill="lightgray"></path>
    
      <path d="M 699 456 Q 751 462 819 463 Q 868 463 876 473 Q 880 483 865 495 Q 814 531 758 512 Q 703 500 622 482 L 588 476 Q 500 463 398 444 Q 379 441 394 427 Q 407 415 423 411 Q 442 407 457 412 Q 476 418 497 423 L 505 424 Q 577 445 667 453 L 699 456 Z" fill="lightgray"></path>
    
      <path d="M 497 423 Q 496 422 496 419 Q 493 415 497 406 Q 521 349 542 341 Q 551 338 559 350 Q 562 359 559 375 Q 549 405 505 424 C 498 427 498 427 497 423 Z" fill="lightgray"></path>
    
      <path d="M 671 347 Q 713 402 721 408 Q 734 418 727 427 Q 720 440 699 456 C 675 474 661 482 667 453 Q 673 434 654 368 Q 645 353 644 341 C 640 311 653 323 671 347 Z" fill="lightgray"></path>
    
      <path d="M 617 299 Q 656 308 760 316 Q 769 315 777 326 Q 778 336 759 345 Q 734 364 671 347 L 644 341 Q 632 340 623 337 Q 622 337 456 316 Q 432 315 450 299 Q 480 278 499 280 Q 529 286 566 292 L 617 299 Z" fill="lightgray"></path>
    
      <path d="M 634 177 Q 763 189 867 181 Q 886 181 891 190 Q 895 200 880 214 Q 832 251 777 241 Q 720 231 636 217 L 580 208 Q 486 199 380 185 Q 361 184 375 167 Q 388 154 406 148 Q 425 142 441 147 Q 507 163 581 171 L 634 177 Z" fill="lightgray"></path>
    
      <path d="M 581 171 Q 581 -39 595 -57 Q 599 -64 606 -62 Q 627 -49 632 72 Q 631 97 634 177 L 636 217 Q 636 229 639 245 Q 648 284 619 298 Q 618 299 617 299 C 591 314 556 320 566 292 Q 565 292 566 291 Q 575 276 580 208 L 581 171 Z" fill="lightgray"></path>
    
    
      <clipPath id="make-me-a-hanzi-clip-0">
        <path d="M 257 377 Q 276 716 278 720 Q 278 721 287 762 Q 291 774 270 788 Q 236 807 210 811 Q 194 814 186 805 Q 179 798 187 783 Q 212 746 213 722 Q 223 557 215 366 C 214 336 255 347 257 377 Z"></path>
      </clipPath>
      <path clip-path="url(#make-me-a-hanzi-clip-0)" d="M 199 795 L 246 756 L 239 396 L 220 374" fill="none" id="make-me-a-hanzi-animation-0" stroke-dasharray="578 1156" stroke-linecap="round"></path>
    
      <clipPath id="make-me-a-hanzi-clip-1">
        <path d="M 324 390 Q 288 386 257 377 L 215 366 Q 175 357 141 343 Q 125 339 129 359 Q 133 408 139 460 Q 143 482 133 495 Q 120 511 97 523 Q 87 529 77 526 Q 67 522 75 505 Q 99 451 91 398 Q 85 346 64 324 Q 48 308 56 294 Q 66 281 82 272 Q 95 265 104 273 Q 134 315 290 350 Q 314 357 325 354 C 355 353 354 394 324 390 Z"></path>
      </clipPath>
      <path clip-path="url(#make-me-a-hanzi-clip-1)" d="M 83 516 L 104 493 L 113 472 L 115 425 L 104 325 L 114 320 L 144 324 L 196 344 L 305 371 L 321 360" fill="none" id="make-me-a-hanzi-animation-1" stroke-dasharray="559 1118" stroke-linecap="round"></path>
    
      <clipPath id="make-me-a-hanzi-clip-2">
        <path d="M 325 354 Q 329 336 337 323 Q 344 308 355 319 Q 376 341 380 416 Q 393 498 400 509 Q 407 522 398 535 Q 380 548 352 565 Q 340 572 329 566 Q 322 562 325 551 Q 352 508 329 405 Q 326 399 325 392 Q 324 392 324 390 L 325 354 Z"></path>
      </clipPath>
      <path clip-path="url(#make-me-a-hanzi-clip-2)" d="M 337 556 L 369 517 L 347 324" fill="none" id="make-me-a-hanzi-animation-2" stroke-dasharray="373 746" stroke-linecap="round"></path>
    
      <clipPath id="make-me-a-hanzi-clip-3">
        <path d="M 450 775 Q 440 781 410 783 Q 400 784 396 780 Q 392 774 400 760 Q 425 717 446 645 Q 450 623 465 609 Q 481 591 486 605 Q 487 612 487 624 L 483 652 Q 468 719 462 746 C 456 772 456 772 450 775 Z"></path>
      </clipPath>
      <path clip-path="url(#make-me-a-hanzi-clip-3)" d="M 404 775 L 431 754 L 439 736 L 476 610" fill="none" id="make-me-a-hanzi-animation-3" stroke-dasharray="313 626" stroke-linecap="round"></path>
    
      <clipPath id="make-me-a-hanzi-clip-4">
        <path d="M 739 653 Q 740 650 741 646 Q 745 633 755 632 Q 771 635 800 687 Q 816 730 849 754 Q 865 767 853 781 Q 840 797 797 821 Q 785 830 722 817 Q 604 804 545 791 Q 490 781 450 775 C 420 770 433 738 462 746 Q 483 752 537 763 L 559 766 Q 593 773 639 779 L 675 784 Q 747 797 769 786 Q 776 782 771 762 Q 753 696 745 678 C 737 657 737 657 739 653 Z"></path>
      </clipPath>
      <path clip-path="url(#make-me-a-hanzi-clip-4)" d="M 457 769 L 475 764 L 736 808 L 785 802 L 810 770 L 755 642" fill="none" id="make-me-a-hanzi-animation-4" stroke-dasharray="641 1282" stroke-linecap="round"></path>
    
      <clipPath id="make-me-a-hanzi-clip-5">
        <path d="M 585 666 Q 585 723 560 765 L 559 766 C 542 790 526 791 537 763 L 538 762 Q 541 743 542 722 Q 542 707 558 661 C 568 633 585 636 585 666 Z"></path>
      </clipPath>
      <path clip-path="url(#make-me-a-hanzi-clip-5)" d="M 545 756 L 553 752 L 568 680 L 577 674" fill="none" id="make-me-a-hanzi-animation-5" stroke-dasharray="221 442" stroke-linecap="round"></path>
    
      <clipPath id="make-me-a-hanzi-clip-6">
        <path d="M 655 680 Q 664 698 678 728 Q 682 738 691 752 Q 701 762 694 768 Q 687 777 675 784 C 649 800 629 807 639 779 Q 651 749 628 674 C 619 645 642 653 655 680 Z"></path>
      </clipPath>
      <path clip-path="url(#make-me-a-hanzi-clip-6)" d="M 646 776 L 667 757 L 646 689 L 633 684" fill="none" id="make-me-a-hanzi-animation-6" stroke-dasharray="241 482" stroke-linecap="round"></path>
    
      <clipPath id="make-me-a-hanzi-clip-7">
        <path d="M 612 640 Q 663 647 739 653 C 769 655 768 658 745 678 Q 741 682 734 687 Q 716 696 655 680 L 628 674 Q 604 670 585 666 L 558 661 Q 516 657 483 652 C 453 648 457 621 487 624 Q 490 624 567 634 L 612 640 Z"></path>
      </clipPath>
      <path clip-path="url(#make-me-a-hanzi-clip-7)" d="M 488 631 L 505 642 L 733 674" fill="none" id="make-me-a-hanzi-animation-7" stroke-dasharray="378 756" stroke-linecap="round"></path>
    
      <clipPath id="make-me-a-hanzi-clip-8">
        <path d="M 630 542 Q 664 551 701 557 Q 734 564 739 569 Q 746 576 742 583 Q 736 592 713 598 Q 692 601 636 583 L 584 569 Q 538 559 487 554 Q 457 550 478 535 Q 511 517 566 530 Q 575 533 587 533 L 630 542 Z"></path>
      </clipPath>
      <path clip-path="url(#make-me-a-hanzi-clip-8)" d="M 480 546 L 538 542 L 687 576 L 731 578" fill="none" id="make-me-a-hanzi-animation-8" stroke-dasharray="383 766" stroke-linecap="round"></path>
    
      <clipPath id="make-me-a-hanzi-clip-9">
        <path d="M 622 482 Q 626 513 630 542 L 636 583 Q 636 589 644 611 Q 647 618 632 630 Q 622 636 612 640 C 584 652 555 661 567 634 Q 580 607 584 569 L 587 533 Q 588 506 588 476 C 588 446 618 452 622 482 Z"></path>
      </clipPath>
      <path clip-path="url(#make-me-a-hanzi-clip-9)" d="M 575 631 L 610 607 L 607 507 L 603 492 L 593 483" fill="none" id="make-me-a-hanzi-animation-9" stroke-dasharray="299 598" stroke-linecap="round"></path>
    
      <clipPath id="make-me-a-hanzi-clip-10">
        <path d="M 699 456 Q 751 462 819 463 Q 868 463 876 473 Q 880 483 865 495 Q 814 531 758 512 Q 703 500 622 482 L 588 476 Q 500 463 398 444 Q 379 441 394 427 Q 407 415 423 411 Q 442 407 457 412 Q 476 418 497 423 L 505 424 Q 577 445 667 453 L 699 456 Z"></path>
      </clipPath>
      <path clip-path="url(#make-me-a-hanzi-clip-10)" d="M 396 436 L 447 431 L 556 455 L 773 489 L 820 489 L 868 478" fill="none" id="make-me-a-hanzi-animation-10" stroke-dasharray="607 1214" stroke-linecap="round"></path>
    
      <clipPath id="make-me-a-hanzi-clip-11">
        <path d="M 497 423 Q 496 422 496 419 Q 493 415 497 406 Q 521 349 542 341 Q 551 338 559 350 Q 562 359 559 375 Q 549 405 505 424 C 498 427 498 427 497 423 Z"></path>
      </clipPath>
      <path clip-path="url(#make-me-a-hanzi-clip-11)" d="M 501 420 L 534 380 L 545 356" fill="none" id="make-me-a-hanzi-animation-11" stroke-dasharray="206 412" stroke-linecap="round"></path>
    
      <clipPath id="make-me-a-hanzi-clip-12">
        <path d="M 671 347 Q 713 402 721 408 Q 734 418 727 427 Q 720 440 699 456 C 675 474 661 482 667 453 Q 673 434 654 368 Q 645 353 644 341 C 640 311 653 323 671 347 Z"></path>
      </clipPath>
      <path clip-path="url(#make-me-a-hanzi-clip-12)" d="M 673 450 L 695 422 L 670 375 L 670 364 L 650 346" fill="none" id="make-me-a-hanzi-animation-12" stroke-dasharray="255 510" stroke-linecap="round"></path>
    
      <clipPath id="make-me-a-hanzi-clip-13">
        <path d="M 617 299 Q 656 308 760 316 Q 769 315 777 326 Q 778 336 759 345 Q 734 364 671 347 L 644 341 Q 632 340 623 337 Q 622 337 456 316 Q 432 315 450 299 Q 480 278 499 280 Q 529 286 566 292 L 617 299 Z"></path>
      </clipPath>
      <path clip-path="url(#make-me-a-hanzi-clip-13)" d="M 451 308 L 488 300 L 703 333 L 767 328" fill="none" id="make-me-a-hanzi-animation-13" stroke-dasharray="448 896" stroke-linecap="round"></path>
    
      <clipPath id="make-me-a-hanzi-clip-14">
        <path d="M 634 177 Q 763 189 867 181 Q 886 181 891 190 Q 895 200 880 214 Q 832 251 777 241 Q 720 231 636 217 L 580 208 Q 486 199 380 185 Q 361 184 375 167 Q 388 154 406 148 Q 425 142 441 147 Q 507 163 581 171 L 634 177 Z"></path>
      </clipPath>
      <path clip-path="url(#make-me-a-hanzi-clip-14)" d="M 378 176 L 431 168 L 648 200 L 800 214 L 847 207 L 880 195" fill="none" id="make-me-a-hanzi-animation-14" stroke-dasharray="636 1272" stroke-linecap="round"></path>
    
      <clipPath id="make-me-a-hanzi-clip-15">
        <path d="M 581 171 Q 581 -39 595 -57 Q 599 -64 606 -62 Q 627 -49 632 72 Q 631 97 634 177 L 636 217 Q 636 229 639 245 Q 648 284 619 298 Q 618 299 617 299 C 591 314 556 320 566 292 Q 565 292 566 291 Q 575 276 580 208 L 581 171 Z"></path>
      </clipPath>
      <path clip-path="url(#make-me-a-hanzi-clip-15)" d="M 573 292 L 608 264 L 603 -54" fill="none" id="make-me-a-hanzi-animation-15" stroke-dasharray="491 982" stroke-linecap="round"></path>
    
  </g>
</svg>