<svg version="1.1" viewBox="0 0 1024 1024" xmlns="http://www.w3.org/2000/svg">
  <g stroke="lightgray" stroke-dasharray="1,1" stroke-width="1" transform="scale(4, 4)">
    <line x1="0" y1="0" x2="256" y2="256"></line>
    <line x1="256" y1="0" x2="0" y2="256"></line>
    <line x1="128" y1="0" x2="128" y2="256"></line>
    <line x1="0" y1="128" x2="256" y2="128"></line>
  </g>
  <g transform="scale(1, -1) translate(0, -900)">
    <style type="text/css">
      
        @keyframes keyframes0 {
          from {
            stroke: blue;
            stroke-dashoffset: 655;
            stroke-width: 128;
          }
          68% {
            animation-timing-function: step-end;
            stroke: blue;
            stroke-dashoffset: 0;
            stroke-width: 128;
          }
          to {
            stroke: black;
            stroke-width: 1024;
          }
        }
        #make-me-a-hanzi-animation-0 {
          animation: keyframes0 0.7830403645833334s both;
          animation-delay: 0s;
          animation-timing-function: linear;
        }
      
        @keyframes keyframes1 {
          from {
            stroke: blue;
            stroke-dashoffset: 664;
            stroke-width: 128;
          }
          68% {
            animation-timing-function: step-end;
            stroke: blue;
            stroke-dashoffset: 0;
            stroke-width: 128;
          }
          to {
            stroke: black;
            stroke-width: 1024;
          }
        }
        #make-me-a-hanzi-animation-1 {
          animation: keyframes1 0.7903645833333334s both;
          animation-delay: 0.7830403645833334s;
          animation-timing-function: linear;
        }
      
        @keyframes keyframes2 {
          from {
            stroke: blue;
            stroke-dashoffset: 484;
            stroke-width: 128;
          }
          61% {
            animation-timing-function: step-end;
            stroke: blue;
            stroke-dashoffset: 0;
            stroke-width: 128;
          }
          to {
            stroke: black;
            stroke-width: 1024;
          }
        }
        #make-me-a-hanzi-animation-2 {
          animation: keyframes2 0.6438802083333334s both;
          animation-delay: 1.5734049479166667s;
          animation-timing-function: linear;
        }
      
        @keyframes keyframes3 {
          from {
            stroke: blue;
            stroke-dashoffset: 344;
            stroke-width: 128;
          }
          53% {
            animation-timing-function: step-end;
            stroke: blue;
            stroke-dashoffset: 0;
            stroke-width: 128;
          }
          to {
            stroke: black;
            stroke-width: 1024;
          }
        }
        #make-me-a-hanzi-animation-3 {
          animation: keyframes3 0.5299479166666666s both;
          animation-delay: 2.21728515625s;
          animation-timing-function: linear;
        }
      
        @keyframes keyframes4 {
          from {
            stroke: blue;
            stroke-dashoffset: 375;
            stroke-width: 128;
          }
          55% {
            animation-timing-function: step-end;
            stroke: blue;
            stroke-dashoffset: 0;
            stroke-width: 128;
          }
          to {
            stroke: black;
            stroke-width: 1024;
          }
        }
        #make-me-a-hanzi-animation-4 {
          animation: keyframes4 0.55517578125s both;
          animation-delay: 2.7472330729166665s;
          animation-timing-function: linear;
        }
      
        @keyframes keyframes5 {
          from {
            stroke: blue;
            stroke-dashoffset: 605;
            stroke-width: 128;
          }
          66% {
            animation-timing-function: step-end;
            stroke: blue;
            stroke-dashoffset: 0;
            stroke-width: 128;
          }
          to {
            stroke: black;
            stroke-width: 1024;
          }
        }
        #make-me-a-hanzi-animation-5 {
          animation: keyframes5 0.7423502604166666s both;
          animation-delay: 3.3024088541666665s;
          animation-timing-function: linear;
        }
      
        @keyframes keyframes6 {
          from {
            stroke: blue;
            stroke-dashoffset: 348;
            stroke-width: 128;
          }
          53% {
            animation-timing-function: step-end;
            stroke: blue;
            stroke-dashoffset: 0;
            stroke-width: 128;
          }
          to {
            stroke: black;
            stroke-width: 1024;
          }
        }
        #make-me-a-hanzi-animation-6 {
          animation: keyframes6 0.533203125s both;
          animation-delay: 4.044759114583333s;
          animation-timing-function: linear;
        }
      
        @keyframes keyframes7 {
          from {
            stroke: blue;
            stroke-dashoffset: 325;
            stroke-width: 128;
          }
          51% {
            animation-timing-function: step-end;
            stroke: blue;
            stroke-dashoffset: 0;
            stroke-width: 128;
          }
          to {
            stroke: black;
            stroke-width: 1024;
          }
        }
        #make-me-a-hanzi-animation-7 {
          animation: keyframes7 0.5144856770833334s both;
          animation-delay: 4.577962239583333s;
          animation-timing-function: linear;
        }
      
        @keyframes keyframes8 {
          from {
            stroke: blue;
            stroke-dashoffset: 375;
            stroke-width: 128;
          }
          55% {
            animation-timing-function: step-end;
            stroke: blue;
            stroke-dashoffset: 0;
            stroke-width: 128;
          }
          to {
            stroke: black;
            stroke-width: 1024;
          }
        }
        #make-me-a-hanzi-animation-8 {
          animation: keyframes8 0.55517578125s both;
          animation-delay: 5.092447916666666s;
          animation-timing-function: linear;
        }
      
        @keyframes keyframes9 {
          from {
            stroke: blue;
            stroke-dashoffset: 657;
            stroke-width: 128;
          }
          68% {
            animation-timing-function: step-end;
            stroke: blue;
            stroke-dashoffset: 0;
            stroke-width: 128;
          }
          to {
            stroke: black;
            stroke-width: 1024;
          }
        }
        #make-me-a-hanzi-animation-9 {
          animation: keyframes9 0.78466796875s both;
          animation-delay: 5.647623697916666s;
          animation-timing-function: linear;
        }
      
        @keyframes keyframes10 {
          from {
            stroke: blue;
            stroke-dashoffset: 365;
            stroke-width: 128;
          }
          54% {
            animation-timing-function: step-end;
            stroke: blue;
            stroke-dashoffset: 0;
            stroke-width: 128;
          }
          to {
            stroke: black;
            stroke-width: 1024;
          }
        }
        #make-me-a-hanzi-animation-10 {
          animation: keyframes10 0.5470377604166666s both;
          animation-delay: 6.432291666666666s;
          animation-timing-function: linear;
        }
      
        @keyframes keyframes11 {
          from {
            stroke: blue;
            stroke-dashoffset: 420;
            stroke-width: 128;
          }
          58% {
            animation-timing-function: step-end;
            stroke: blue;
            stroke-dashoffset: 0;
            stroke-width: 128;
          }
          to {
            stroke: black;
            stroke-width: 1024;
          }
        }
        #make-me-a-hanzi-animation-11 {
          animation: keyframes11 0.591796875s both;
          animation-delay: 6.979329427083333s;
          animation-timing-function: linear;
        }
      
        @keyframes keyframes12 {
          from {
            stroke: blue;
            stroke-dashoffset: 800;
            stroke-width: 128;
          }
          72% {
            animation-timing-function: step-end;
            stroke: blue;
            stroke-dashoffset: 0;
            stroke-width: 128;
          }
          to {
            stroke: black;
            stroke-width: 1024;
          }
        }
        #make-me-a-hanzi-animation-12 {
          animation: keyframes12 0.9010416666666666s both;
          animation-delay: 7.571126302083333s;
          animation-timing-function: linear;
        }
      
        @keyframes keyframes13 {
          from {
            stroke: blue;
            stroke-dashoffset: 607;
            stroke-width: 128;
          }
          66% {
            animation-timing-function: step-end;
            stroke: blue;
            stroke-dashoffset: 0;
            stroke-width: 128;
          }
          to {
            stroke: black;
            stroke-width: 1024;
          }
        }
        #make-me-a-hanzi-animation-13 {
          animation: keyframes13 0.7439778645833334s both;
          animation-delay: 8.47216796875s;
          animation-timing-function: linear;
        }
      
        @keyframes keyframes14 {
          from {
            stroke: blue;
            stroke-dashoffset: 712;
            stroke-width: 128;
          }
          70% {
            animation-timing-function: step-end;
            stroke: blue;
            stroke-dashoffset: 0;
            stroke-width: 128;
          }
          to {
            stroke: black;
            stroke-width: 1024;
          }
        }
        #make-me-a-hanzi-animation-14 {
          animation: keyframes14 0.8294270833333334s both;
          animation-delay: 9.216145833333334s;
          animation-timing-function: linear;
        }
      
        @keyframes keyframes15 {
          from {
            stroke: blue;
            stroke-dashoffset: 640;
            stroke-width: 128;
          }
          68% {
            animation-timing-function: step-end;
            stroke: blue;
            stroke-dashoffset: 0;
            stroke-width: 128;
          }
          to {
            stroke: black;
            stroke-width: 1024;
          }
        }
        #make-me-a-hanzi-animation-15 {
          animation: keyframes15 0.7708333333333334s both;
          animation-delay: 10.045572916666668s;
          animation-timing-function: linear;
        }
      
        @keyframes keyframes16 {
          from {
            stroke: blue;
            stroke-dashoffset: 687;
            stroke-width: 128;
          }
          69% {
            animation-timing-function: step-end;
            stroke: blue;
            stroke-dashoffset: 0;
            stroke-width: 128;
          }
          to {
            stroke: black;
            stroke-width: 1024;
          }
        }
        #make-me-a-hanzi-animation-16 {
          animation: keyframes16 0.80908203125s both;
          animation-delay: 10.816406250000002s;
          animation-timing-function: linear;
        }
      
    </style>
    
      <path d="M 241 429 Q 265 705 279 760 Q 283 770 264 785 Q 231 804 209 808 Q 193 812 186 804 Q 179 797 186 782 Q 207 751 207 729 Q 211 584 201 413 C 199 383 238 399 241 429 Z" fill="lightgray"></path>
    
      <path d="M 306 452 Q 270 442 241 429 L 201 413 Q 167 400 141 385 Q 131 382 132 395 Q 142 518 134 532 Q 119 547 97 559 Q 87 563 77 561 Q 67 557 75 540 Q 100 488 93 433 Q 89 382 68 359 Q 53 341 62 329 Q 74 316 91 309 Q 104 303 112 312 Q 136 354 272 405 Q 288 412 300 413 C 329 419 335 460 306 452 Z" fill="lightgray"></path>
    
      <path d="M 300 413 Q 303 394 310 379 Q 317 366 327 374 Q 342 389 364 524 Q 367 540 375 554 Q 382 566 374 577 Q 358 590 333 606 Q 323 612 313 608 Q 307 604 309 594 Q 328 546 307 454 Q 306 454 306 452 L 300 413 Z" fill="lightgray"></path>
    
      <path d="M 376 665 Q 404 614 423 602 Q 432 598 441 605 Q 447 612 447 624 Q 447 640 437 652 Q 425 668 391 688 Q 381 694 374 693 Q 370 693 369 685 Q 368 678 376 665 Z" fill="lightgray"></path>
    
      <path d="M 517 657 Q 545 667 562 676 Q 602 700 618 703 Q 633 707 628 720 Q 621 732 605 743 Q 590 753 582 753 Q 575 753 575 744 Q 575 731 524 679 Q 521 678 520 674 C 509 654 509 654 517 657 Z" fill="lightgray"></path>
    
      <path d="M 505 601 Q 511 626 517 657 L 520 674 Q 524 716 541 763 Q 547 773 538 783 Q 520 798 489 807 Q 468 813 461 807 Q 454 801 460 792 Q 499 725 466 566 Q 439 523 418 504 Q 408 497 409 493 Q 410 490 419 491 Q 423 490 436 495 Q 475 513 500 582 L 505 601 Z" fill="lightgray"></path>
    
      <path d="M 500 582 Q 564 525 572 525 Q 579 525 582 533 Q 585 540 580 559 Q 573 581 509 601 Q 506 602 505 601 C 480 600 480 600 500 582 Z" fill="lightgray"></path>
    
      <path d="M 603 644 Q 627 611 645 600 Q 654 597 661 605 Q 665 612 665 623 Q 662 639 652 648 Q 618 675 597 669 Q 593 669 594 661 Q 594 654 603 644 Z" fill="lightgray"></path>
    
      <path d="M 805 746 Q 798 736 759 691 Q 750 679 763 680 Q 808 696 833 709 Q 849 719 868 725 Q 884 731 878 745 Q 869 758 851 772 Q 835 784 824 783 Q 814 783 816 773 Q 817 758 805 746 Z" fill="lightgray"></path>
    
      <path d="M 702 769 Q 702 598 654 538 Q 639 523 619 507 Q 609 501 609 498 Q 610 494 619 494 Q 625 493 640 498 Q 694 517 717 588 Q 724 615 750 766 Q 751 785 758 795 Q 761 799 763 806 Q 770 816 761 826 Q 745 842 713 852 Q 692 858 685 853 Q 678 847 684 837 Q 700 807 702 769 Z" fill="lightgray"></path>
    
      <path d="M 769 600 Q 794 578 823 549 Q 832 540 842 540 Q 849 540 854 549 Q 857 559 852 579 Q 846 603 767 633 Q 757 636 752 634 Q 748 633 749 623 Q 750 616 769 600 Z" fill="lightgray"></path>
    
      <path d="M 435 440 Q 422 467 407 475 Q 404 479 398 476 Q 394 472 392 462 Q 396 432 367 368 Q 357 352 357 334 Q 360 315 369 302 Q 376 290 382 298 Q 394 301 410 346 Q 425 391 436 409 C 444 423 444 423 435 440 Z" fill="lightgray"></path>
    
      <path d="M 436 409 Q 451 403 516 421 Q 654 464 763 474 Q 785 478 796 477 Q 811 473 809 465 Q 809 462 774 393 Q 765 380 771 376 Q 778 373 794 383 Q 846 417 889 429 Q 925 438 924 448 Q 921 458 857 506 Q 833 527 727 500 Q 723 500 512 456 Q 473 449 435 440 C 406 433 406 411 436 409 Z" fill="lightgray"></path>
    
      <path d="M 631 284 Q 644 288 774 311 Q 783 310 790 322 Q 791 332 771 340 Q 738 356 645 326 Q 638 325 633 322 L 583 309 Q 480 291 439 285 Q 414 281 434 267 Q 453 254 491 253 Q 519 262 555 267 L 631 284 Z" fill="lightgray"></path>
    
      <path d="M 633 322 Q 634 344 638 357 Q 641 369 634 375 Q 612 394 593 404 Q 581 408 572 401 Q 566 398 573 388 Q 582 370 583 309 L 580 211 Q 576 76 563 47 Q 548 8 593 -52 Q 597 -59 604 -62 Q 614 -63 620 -51 Q 633 -20 630 10 Q 629 137 630 243 Q 630 246 630 248 L 631 284 L 633 322 Z" fill="lightgray"></path>
    
      <path d="M 555 267 Q 477 147 289 30 Q 276 20 284 17 Q 293 11 305 15 Q 422 48 543 172 Q 546 178 580 211 C 642 272 576 299 555 267 Z" fill="lightgray"></path>
    
      <path d="M 630 248 Q 693 158 764 74 Q 783 49 821 45 Q 888 36 961 44 Q 979 44 981 49 Q 984 56 970 62 Q 927 81 877 101 Q 822 126 780 156 Q 729 190 680 237 Q 649 270 631 284 C 608 303 613 273 630 248 Z" fill="lightgray"></path>
    
    
      <clipPath id="make-me-a-hanzi-clip-0">
        <path d="M 241 429 Q 265 705 279 760 Q 283 770 264 785 Q 231 804 209 808 Q 193 812 186 804 Q 179 797 186 782 Q 207 751 207 729 Q 211 584 201 413 C 199 383 238 399 241 429 Z"></path>
      </clipPath>
      <path clip-path="url(#make-me-a-hanzi-clip-0)" d="M 197 794 L 240 756 L 224 445 L 205 421" fill="none" id="make-me-a-hanzi-animation-0" stroke-dasharray="527 1054" stroke-linecap="round"></path>
    
      <clipPath id="make-me-a-hanzi-clip-1">
        <path d="M 306 452 Q 270 442 241 429 L 201 413 Q 167 400 141 385 Q 131 382 132 395 Q 142 518 134 532 Q 119 547 97 559 Q 87 563 77 561 Q 67 557 75 540 Q 100 488 93 433 Q 89 382 68 359 Q 53 341 62 329 Q 74 316 91 309 Q 104 303 112 312 Q 136 354 272 405 Q 288 412 300 413 C 329 419 335 460 306 452 Z"></path>
      </clipPath>
      <path clip-path="url(#make-me-a-hanzi-clip-1)" d="M 83 551 L 111 519 L 114 504 L 116 434 L 109 381 L 113 364 L 149 367 L 201 395 L 285 428 L 300 446" fill="none" id="make-me-a-hanzi-animation-1" stroke-dasharray="536 1072" stroke-linecap="round"></path>
    
      <clipPath id="make-me-a-hanzi-clip-2">
        <path d="M 300 413 Q 303 394 310 379 Q 317 366 327 374 Q 342 389 364 524 Q 367 540 375 554 Q 382 566 374 577 Q 358 590 333 606 Q 323 612 313 608 Q 307 604 309 594 Q 328 546 307 454 Q 306 454 306 452 L 300 413 Z"></path>
      </clipPath>
      <path clip-path="url(#make-me-a-hanzi-clip-2)" d="M 320 599 L 346 559 L 338 490 L 320 411 L 320 381" fill="none" id="make-me-a-hanzi-animation-2" stroke-dasharray="356 712" stroke-linecap="round"></path>
    
      <clipPath id="make-me-a-hanzi-clip-3">
        <path d="M 376 665 Q 404 614 423 602 Q 432 598 441 605 Q 447 612 447 624 Q 447 640 437 652 Q 425 668 391 688 Q 381 694 374 693 Q 370 693 369 685 Q 368 678 376 665 Z"></path>
      </clipPath>
      <path clip-path="url(#make-me-a-hanzi-clip-3)" d="M 377 685 L 422 635 L 430 616" fill="none" id="make-me-a-hanzi-animation-3" stroke-dasharray="216 432" stroke-linecap="round"></path>
    
      <clipPath id="make-me-a-hanzi-clip-4">
        <path d="M 517 657 Q 545 667 562 676 Q 602 700 618 703 Q 633 707 628 720 Q 621 732 605 743 Q 590 753 582 753 Q 575 753 575 744 Q 575 731 524 679 Q 521 678 520 674 C 509 654 509 654 517 657 Z"></path>
      </clipPath>
      <path clip-path="url(#make-me-a-hanzi-clip-4)" d="M 618 715 L 592 720 L 538 681 L 523 660" fill="none" id="make-me-a-hanzi-animation-4" stroke-dasharray="247 494" stroke-linecap="round"></path>
    
      <clipPath id="make-me-a-hanzi-clip-5">
        <path d="M 505 601 Q 511 626 517 657 L 520 674 Q 524 716 541 763 Q 547 773 538 783 Q 520 798 489 807 Q 468 813 461 807 Q 454 801 460 792 Q 499 725 466 566 Q 439 523 418 504 Q 408 497 409 493 Q 410 490 419 491 Q 423 490 436 495 Q 475 513 500 582 L 505 601 Z"></path>
      </clipPath>
      <path clip-path="url(#make-me-a-hanzi-clip-5)" d="M 469 799 L 506 764 L 494 624 L 479 560 L 445 514 L 415 497" fill="none" id="make-me-a-hanzi-animation-5" stroke-dasharray="477 954" stroke-linecap="round"></path>
    
      <clipPath id="make-me-a-hanzi-clip-6">
        <path d="M 500 582 Q 564 525 572 525 Q 579 525 582 533 Q 585 540 580 559 Q 573 581 509 601 Q 506 602 505 601 C 480 600 480 600 500 582 Z"></path>
      </clipPath>
      <path clip-path="url(#make-me-a-hanzi-clip-6)" d="M 507 595 L 517 582 L 559 557 L 573 534" fill="none" id="make-me-a-hanzi-animation-6" stroke-dasharray="220 440" stroke-linecap="round"></path>
    
      <clipPath id="make-me-a-hanzi-clip-7">
        <path d="M 603 644 Q 627 611 645 600 Q 654 597 661 605 Q 665 612 665 623 Q 662 639 652 648 Q 618 675 597 669 Q 593 669 594 661 Q 594 654 603 644 Z"></path>
      </clipPath>
      <path clip-path="url(#make-me-a-hanzi-clip-7)" d="M 603 662 L 641 631 L 650 613" fill="none" id="make-me-a-hanzi-animation-7" stroke-dasharray="197 394" stroke-linecap="round"></path>
    
      <clipPath id="make-me-a-hanzi-clip-8">
        <path d="M 805 746 Q 798 736 759 691 Q 750 679 763 680 Q 808 696 833 709 Q 849 719 868 725 Q 884 731 878 745 Q 869 758 851 772 Q 835 784 824 783 Q 814 783 816 773 Q 817 758 805 746 Z"></path>
      </clipPath>
      <path clip-path="url(#make-me-a-hanzi-clip-8)" d="M 828 771 L 838 743 L 784 699 L 771 695 L 770 689" fill="none" id="make-me-a-hanzi-animation-8" stroke-dasharray="247 494" stroke-linecap="round"></path>
    
      <clipPath id="make-me-a-hanzi-clip-9">
        <path d="M 702 769 Q 702 598 654 538 Q 639 523 619 507 Q 609 501 609 498 Q 610 494 619 494 Q 625 493 640 498 Q 694 517 717 588 Q 724 615 750 766 Q 751 785 758 795 Q 761 799 763 806 Q 770 816 761 826 Q 745 842 713 852 Q 692 858 685 853 Q 678 847 684 837 Q 700 807 702 769 Z"></path>
      </clipPath>
      <path clip-path="url(#make-me-a-hanzi-clip-9)" d="M 692 845 L 729 810 L 709 629 L 699 585 L 676 543 L 642 510 L 616 501" fill="none" id="make-me-a-hanzi-animation-9" stroke-dasharray="529 1058" stroke-linecap="round"></path>
    
      <clipPath id="make-me-a-hanzi-clip-10">
        <path d="M 769 600 Q 794 578 823 549 Q 832 540 842 540 Q 849 540 854 549 Q 857 559 852 579 Q 846 603 767 633 Q 757 636 752 634 Q 748 633 749 623 Q 750 616 769 600 Z"></path>
      </clipPath>
      <path clip-path="url(#make-me-a-hanzi-clip-10)" d="M 759 626 L 824 580 L 840 555" fill="none" id="make-me-a-hanzi-animation-10" stroke-dasharray="237 474" stroke-linecap="round"></path>
    
      <clipPath id="make-me-a-hanzi-clip-11">
        <path d="M 435 440 Q 422 467 407 475 Q 404 479 398 476 Q 394 472 392 462 Q 396 432 367 368 Q 357 352 357 334 Q 360 315 369 302 Q 376 290 382 298 Q 394 301 410 346 Q 425 391 436 409 C 444 423 444 423 435 440 Z"></path>
      </clipPath>
      <path clip-path="url(#make-me-a-hanzi-clip-11)" d="M 401 466 L 413 438 L 411 416 L 381 338 L 379 310" fill="none" id="make-me-a-hanzi-animation-11" stroke-dasharray="292 584" stroke-linecap="round"></path>
    
      <clipPath id="make-me-a-hanzi-clip-12">
        <path d="M 436 409 Q 451 403 516 421 Q 654 464 763 474 Q 785 478 796 477 Q 811 473 809 465 Q 809 462 774 393 Q 765 380 771 376 Q 778 373 794 383 Q 846 417 889 429 Q 925 438 924 448 Q 921 458 857 506 Q 833 527 727 500 Q 723 500 512 456 Q 473 449 435 440 C 406 433 406 411 436 409 Z"></path>
      </clipPath>
      <path clip-path="url(#make-me-a-hanzi-clip-12)" d="M 441 417 L 462 428 L 628 468 L 763 493 L 799 496 L 825 490 L 846 471 L 850 459 L 775 381" fill="none" id="make-me-a-hanzi-animation-12" stroke-dasharray="672 1344" stroke-linecap="round"></path>
    
      <clipPath id="make-me-a-hanzi-clip-13">
        <path d="M 631 284 Q 644 288 774 311 Q 783 310 790 322 Q 791 332 771 340 Q 738 356 645 326 Q 638 325 633 322 L 583 309 Q 480 291 439 285 Q 414 281 434 267 Q 453 254 491 253 Q 519 262 555 267 L 631 284 Z"></path>
      </clipPath>
      <path clip-path="url(#make-me-a-hanzi-clip-13)" d="M 435 277 L 483 272 L 682 317 L 744 326 L 780 323" fill="none" id="make-me-a-hanzi-animation-13" stroke-dasharray="479 958" stroke-linecap="round"></path>
    
      <clipPath id="make-me-a-hanzi-clip-14">
        <path d="M 633 322 Q 634 344 638 357 Q 641 369 634 375 Q 612 394 593 404 Q 581 408 572 401 Q 566 398 573 388 Q 582 370 583 309 L 580 211 Q 576 76 563 47 Q 548 8 593 -52 Q 597 -59 604 -62 Q 614 -63 620 -51 Q 633 -20 630 10 Q 629 137 630 243 Q 630 246 630 248 L 631 284 L 633 322 Z"></path>
      </clipPath>
      <path clip-path="url(#make-me-a-hanzi-clip-14)" d="M 580 395 L 609 359 L 602 100 L 594 27 L 606 -49" fill="none" id="make-me-a-hanzi-animation-14" stroke-dasharray="584 1168" stroke-linecap="round"></path>
    
      <clipPath id="make-me-a-hanzi-clip-15">
        <path d="M 555 267 Q 477 147 289 30 Q 276 20 284 17 Q 293 11 305 15 Q 422 48 543 172 Q 546 178 580 211 C 642 272 576 299 555 267 Z"></path>
      </clipPath>
      <path clip-path="url(#make-me-a-hanzi-clip-15)" d="M 577 265 L 560 240 L 555 221 L 456 122 L 381 67 L 291 22" fill="none" id="make-me-a-hanzi-animation-15" stroke-dasharray="512 1024" stroke-linecap="round"></path>
    
      <clipPath id="make-me-a-hanzi-clip-16">
        <path d="M 630 248 Q 693 158 764 74 Q 783 49 821 45 Q 888 36 961 44 Q 979 44 981 49 Q 984 56 970 62 Q 927 81 877 101 Q 822 126 780 156 Q 729 190 680 237 Q 649 270 631 284 C 608 303 613 273 630 248 Z"></path>
      </clipPath>
      <path clip-path="url(#make-me-a-hanzi-clip-16)" d="M 632 278 L 646 250 L 676 214 L 798 96 L 861 73 L 975 51" fill="none" id="make-me-a-hanzi-animation-16" stroke-dasharray="559 1118" stroke-linecap="round"></path>
    
  </g>
</svg>