<svg version="1.1" viewBox="0 0 1024 1024" xmlns="http://www.w3.org/2000/svg">
  <g stroke="lightgray" stroke-dasharray="1,1" stroke-width="1" transform="scale(4, 4)">
    <line x1="0" y1="0" x2="256" y2="256"></line>
    <line x1="256" y1="0" x2="0" y2="256"></line>
    <line x1="128" y1="0" x2="128" y2="256"></line>
    <line x1="0" y1="128" x2="256" y2="128"></line>
  </g>
  <g transform="scale(1, -1) translate(0, -900)">
    <style type="text/css">
      
        @keyframes keyframes0 {
          from {
            stroke: blue;
            stroke-dashoffset: 528;
            stroke-width: 128;
          }
          63% {
            animation-timing-function: step-end;
            stroke: blue;
            stroke-dashoffset: 0;
            stroke-width: 128;
          }
          to {
            stroke: black;
            stroke-width: 1024;
          }
        }
        #make-me-a-hanzi-animation-0 {
          animation: keyframes0 0.6796875s both;
          animation-delay: 0s;
          animation-timing-function: linear;
        }
      
        @keyframes keyframes1 {
          from {
            stroke: blue;
            stroke-dashoffset: 782;
            stroke-width: 128;
          }
          72% {
            animation-timing-function: step-end;
            stroke: blue;
            stroke-dashoffset: 0;
            stroke-width: 128;
          }
          to {
            stroke: black;
            stroke-width: 1024;
          }
        }
        #make-me-a-hanzi-animation-1 {
          animation: keyframes1 0.8863932291666666s both;
          animation-delay: 0.6796875s;
          animation-timing-function: linear;
        }
      
        @keyframes keyframes2 {
          from {
            stroke: blue;
            stroke-dashoffset: 1058;
            stroke-width: 128;
          }
          77% {
            animation-timing-function: step-end;
            stroke: blue;
            stroke-dashoffset: 0;
            stroke-width: 128;
          }
          to {
            stroke: black;
            stroke-width: 1024;
          }
        }
        #make-me-a-hanzi-animation-2 {
          animation: keyframes2 1.1110026041666667s both;
          animation-delay: 1.5660807291666665s;
          animation-timing-function: linear;
        }
      
        @keyframes keyframes3 {
          from {
            stroke: blue;
            stroke-dashoffset: 490;
            stroke-width: 128;
          }
          61% {
            animation-timing-function: step-end;
            stroke: blue;
            stroke-dashoffset: 0;
            stroke-width: 128;
          }
          to {
            stroke: black;
            stroke-width: 1024;
          }
        }
        #make-me-a-hanzi-animation-3 {
          animation: keyframes3 0.6487630208333334s both;
          animation-delay: 2.677083333333333s;
          animation-timing-function: linear;
        }
      
        @keyframes keyframes4 {
          from {
            stroke: blue;
            stroke-dashoffset: 427;
            stroke-width: 128;
          }
          58% {
            animation-timing-function: step-end;
            stroke: blue;
            stroke-dashoffset: 0;
            stroke-width: 128;
          }
          to {
            stroke: black;
            stroke-width: 1024;
          }
        }
        #make-me-a-hanzi-animation-4 {
          animation: keyframes4 0.5974934895833334s both;
          animation-delay: 3.3258463541666665s;
          animation-timing-function: linear;
        }
      
        @keyframes keyframes5 {
          from {
            stroke: blue;
            stroke-dashoffset: 654;
            stroke-width: 128;
          }
          68% {
            animation-timing-function: step-end;
            stroke: blue;
            stroke-dashoffset: 0;
            stroke-width: 128;
          }
          to {
            stroke: black;
            stroke-width: 1024;
          }
        }
        #make-me-a-hanzi-animation-5 {
          animation: keyframes5 0.7822265625s both;
          animation-delay: 3.92333984375s;
          animation-timing-function: linear;
        }
      
        @keyframes keyframes6 {
          from {
            stroke: blue;
            stroke-dashoffset: 867;
            stroke-width: 128;
          }
          74% {
            animation-timing-function: step-end;
            stroke: blue;
            stroke-dashoffset: 0;
            stroke-width: 128;
          }
          to {
            stroke: black;
            stroke-width: 1024;
          }
        }
        #make-me-a-hanzi-animation-6 {
          animation: keyframes6 0.95556640625s both;
          animation-delay: 4.70556640625s;
          animation-timing-function: linear;
        }
      
        @keyframes keyframes7 {
          from {
            stroke: blue;
            stroke-dashoffset: 892;
            stroke-width: 128;
          }
          74% {
            animation-timing-function: step-end;
            stroke: blue;
            stroke-dashoffset: 0;
            stroke-width: 128;
          }
          to {
            stroke: black;
            stroke-width: 1024;
          }
        }
        #make-me-a-hanzi-animation-7 {
          animation: keyframes7 0.9759114583333334s both;
          animation-delay: 5.6611328125s;
          animation-timing-function: linear;
        }
      
        @keyframes keyframes8 {
          from {
            stroke: blue;
            stroke-dashoffset: 481;
            stroke-width: 128;
          }
          61% {
            animation-timing-function: step-end;
            stroke: blue;
            stroke-dashoffset: 0;
            stroke-width: 128;
          }
          to {
            stroke: black;
            stroke-width: 1024;
          }
        }
        #make-me-a-hanzi-animation-8 {
          animation: keyframes8 0.6414388020833334s both;
          animation-delay: 6.637044270833333s;
          animation-timing-function: linear;
        }
      
    </style>
    
      <path d="M 176 553 Q 151 565 136 564 Q 124 560 129 551 Q 165 473 131 365 Q 110 347 133 300 Q 136 294 142 287 Q 148 277 156 281 Q 180 299 185 376 Q 188 496 191 523 C 193 545 193 545 176 553 Z" fill="lightgray"></path>
    
      <path d="M 304 367 Q 305 366 308 364 Q 354 333 383 309 Q 396 299 406 311 Q 427 338 428 408 Q 422 505 431 553 Q 434 569 425 578 Q 401 597 385 606 Q 373 610 366 602 Q 362 598 305 580 L 263 570 Q 230 564 176 553 C 147 547 162 515 191 523 Q 197 526 263 541 L 304 550 Q 326 556 351 559 Q 375 562 377 546 Q 389 405 371 380 Q 365 376 317 379 Q 307 382 304 379 C 286 379 286 379 304 367 Z" fill="lightgray"></path>
    
      <path d="M 238 104 Q 229 65 253 9 Q 260 -7 267 -11 Q 273 -17 280 -10 Q 287 -6 297 15 Q 306 37 305 68 Q 304 105 304 367 L 304 379 Q 304 455 304 550 L 305 580 Q 306 664 321 721 Q 330 736 327 748 Q 320 757 267 789 Q 245 805 226 790 Q 222 786 227 771 Q 258 725 260 678 Q 261 627 263 570 L 263 541 Q 263 226 249 150 Q 243 128 238 104 Z" fill="lightgray"></path>
    
      <path d="M 666 603 Q 670 655 676 702 L 678 729 Q 678 736 679 741 Q 682 757 684 769 Q 687 779 689 787 Q 692 796 675 808 Q 645 824 624 827 Q 611 830 604 822 Q 597 816 605 803 Q 618 787 620 773 Q 629 691 630 593 C 630 563 664 573 666 603 Z" fill="lightgray"></path>
    
      <path d="M 676 702 Q 718 696 827 723 Q 830 724 833 724 Q 852 728 856 732 Q 863 739 859 746 Q 852 756 827 761 Q 806 764 732 740 Q 705 734 678 729 C 649 723 646 705 676 702 Z" fill="lightgray"></path>
    
      <path d="M 544 582 Q 525 598 501 604 Q 494 605 487 598 Q 484 594 491 583 Q 530 487 500 318 Q 487 260 490 247 Q 499 216 509 204 Q 519 191 529 204 Q 553 232 554 387 Q 554 522 559 554 C 561 570 561 570 544 582 Z" fill="lightgray"></path>
    
      <path d="M 762 276 Q 756 255 769 235 Q 782 210 790 210 Q 803 211 817 242 Q 830 266 828 284 Q 797 503 834 563 Q 846 581 825 596 Q 801 614 766 629 Q 751 633 729 626 Q 699 614 666 603 L 630 593 Q 582 586 544 582 C 514 579 530 548 559 554 Q 563 555 566 555 Q 731 591 749 578 Q 759 556 765 495 Q 772 311 762 276 Z" fill="lightgray"></path>
    
      <path d="M 630 423 Q 636 195 578 105 Q 562 84 537 62 Q 504 34 432 -3 Q 422 -7 418 -11 Q 414 -15 427 -18 Q 470 -21 564 31 Q 676 100 678 345 Q 678 400 692 452 Q 696 462 689 469 Q 673 482 640 495 Q 621 502 606 497 Q 588 490 603 475 Q 628 450 630 423 Z" fill="lightgray"></path>
    
      <path d="M 721 141 Q 770 83 827 -1 Q 839 -22 853 -28 Q 860 -29 869 -22 Q 882 -12 876 32 Q 872 89 726 170 Q 719 176 714 165 Q 713 152 721 141 Z" fill="lightgray"></path>
    
    
      <clipPath id="make-me-a-hanzi-clip-0">
        <path d="M 176 553 Q 151 565 136 564 Q 124 560 129 551 Q 165 473 131 365 Q 110 347 133 300 Q 136 294 142 287 Q 148 277 156 281 Q 180 299 185 376 Q 188 496 191 523 C 193 545 193 545 176 553 Z"></path>
      </clipPath>
      <path clip-path="url(#make-me-a-hanzi-clip-0)" d="M 141 553 L 159 536 L 167 505 L 166 410 L 151 340 L 152 291" fill="none" id="make-me-a-hanzi-animation-0" stroke-dasharray="400 800" stroke-linecap="round"></path>
    
      <clipPath id="make-me-a-hanzi-clip-1">
        <path d="M 304 367 Q 305 366 308 364 Q 354 333 383 309 Q 396 299 406 311 Q 427 338 428 408 Q 422 505 431 553 Q 434 569 425 578 Q 401 597 385 606 Q 373 610 366 602 Q 362 598 305 580 L 263 570 Q 230 564 176 553 C 147 547 162 515 191 523 Q 197 526 263 541 L 304 550 Q 326 556 351 559 Q 375 562 377 546 Q 389 405 371 380 Q 365 376 317 379 Q 307 382 304 379 C 286 379 286 379 304 367 Z"></path>
      </clipPath>
      <path clip-path="url(#make-me-a-hanzi-clip-1)" d="M 185 551 L 194 543 L 209 543 L 379 580 L 403 559 L 405 416 L 392 356 L 387 349 L 376 351 L 311 373" fill="none" id="make-me-a-hanzi-animation-1" stroke-dasharray="654 1308" stroke-linecap="round"></path>
    
      <clipPath id="make-me-a-hanzi-clip-2">
        <path d="M 238 104 Q 229 65 253 9 Q 260 -7 267 -11 Q 273 -17 280 -10 Q 287 -6 297 15 Q 306 37 305 68 Q 304 105 304 367 L 304 379 Q 304 455 304 550 L 305 580 Q 306 664 321 721 Q 330 736 327 748 Q 320 757 267 789 Q 245 805 226 790 Q 222 786 227 771 Q 258 725 260 678 Q 261 627 263 570 L 263 541 Q 263 226 249 150 Q 243 128 238 104 Z"></path>
      </clipPath>
      <path clip-path="url(#make-me-a-hanzi-clip-2)" d="M 237 783 L 264 762 L 286 734 L 284 327 L 270 89 L 273 2" fill="none" id="make-me-a-hanzi-animation-2" stroke-dasharray="930 1860" stroke-linecap="round"></path>
    
      <clipPath id="make-me-a-hanzi-clip-3">
        <path d="M 666 603 Q 670 655 676 702 L 678 729 Q 678 736 679 741 Q 682 757 684 769 Q 687 779 689 787 Q 692 796 675 808 Q 645 824 624 827 Q 611 830 604 822 Q 597 816 605 803 Q 618 787 620 773 Q 629 691 630 593 C 630 563 664 573 666 603 Z"></path>
      </clipPath>
      <path clip-path="url(#make-me-a-hanzi-clip-3)" d="M 615 813 L 653 782 L 649 627 L 634 601" fill="none" id="make-me-a-hanzi-animation-3" stroke-dasharray="362 724" stroke-linecap="round"></path>
    
      <clipPath id="make-me-a-hanzi-clip-4">
        <path d="M 676 702 Q 718 696 827 723 Q 830 724 833 724 Q 852 728 856 732 Q 863 739 859 746 Q 852 756 827 761 Q 806 764 732 740 Q 705 734 678 729 C 649 723 646 705 676 702 Z"></path>
      </clipPath>
      <path clip-path="url(#make-me-a-hanzi-clip-4)" d="M 681 708 L 783 735 L 848 741" fill="none" id="make-me-a-hanzi-animation-4" stroke-dasharray="299 598" stroke-linecap="round"></path>
    
      <clipPath id="make-me-a-hanzi-clip-5">
        <path d="M 544 582 Q 525 598 501 604 Q 494 605 487 598 Q 484 594 491 583 Q 530 487 500 318 Q 487 260 490 247 Q 499 216 509 204 Q 519 191 529 204 Q 553 232 554 387 Q 554 522 559 554 C 561 570 561 570 544 582 Z"></path>
      </clipPath>
      <path clip-path="url(#make-me-a-hanzi-clip-5)" d="M 498 593 L 524 566 L 532 536 L 533 375 L 517 253 L 519 208" fill="none" id="make-me-a-hanzi-animation-5" stroke-dasharray="526 1052" stroke-linecap="round"></path>
    
      <clipPath id="make-me-a-hanzi-clip-6">
        <path d="M 762 276 Q 756 255 769 235 Q 782 210 790 210 Q 803 211 817 242 Q 830 266 828 284 Q 797 503 834 563 Q 846 581 825 596 Q 801 614 766 629 Q 751 633 729 626 Q 699 614 666 603 L 630 593 Q 582 586 544 582 C 514 579 530 548 559 554 Q 563 555 566 555 Q 731 591 749 578 Q 759 556 765 495 Q 772 311 762 276 Z"></path>
      </clipPath>
      <path clip-path="url(#make-me-a-hanzi-clip-6)" d="M 551 577 L 567 570 L 603 573 L 751 605 L 773 594 L 790 575 L 789 435 L 797 290 L 791 220" fill="none" id="make-me-a-hanzi-animation-6" stroke-dasharray="739 1478" stroke-linecap="round"></path>
    
      <clipPath id="make-me-a-hanzi-clip-7">
        <path d="M 630 423 Q 636 195 578 105 Q 562 84 537 62 Q 504 34 432 -3 Q 422 -7 418 -11 Q 414 -15 427 -18 Q 470 -21 564 31 Q 676 100 678 345 Q 678 400 692 452 Q 696 462 689 469 Q 673 482 640 495 Q 621 502 606 497 Q 588 490 603 475 Q 628 450 630 423 Z"></path>
      </clipPath>
      <path clip-path="url(#make-me-a-hanzi-clip-7)" d="M 608 486 L 629 477 L 658 451 L 649 251 L 621 138 L 590 83 L 545 42 L 472 2 L 424 -13" fill="none" id="make-me-a-hanzi-animation-7" stroke-dasharray="764 1528" stroke-linecap="round"></path>
    
      <clipPath id="make-me-a-hanzi-clip-8">
        <path d="M 721 141 Q 770 83 827 -1 Q 839 -22 853 -28 Q 860 -29 869 -22 Q 882 -12 876 32 Q 872 89 726 170 Q 719 176 714 165 Q 713 152 721 141 Z"></path>
      </clipPath>
      <path clip-path="url(#make-me-a-hanzi-clip-8)" d="M 723 160 L 794 95 L 836 46 L 849 19 L 855 -15" fill="none" id="make-me-a-hanzi-animation-8" stroke-dasharray="353 706" stroke-linecap="round"></path>
    
  </g>
</svg>