<svg version="1.1" viewBox="0 0 1024 1024" xmlns="http://www.w3.org/2000/svg">
  <g stroke="lightgray" stroke-dasharray="1,1" stroke-width="1" transform="scale(4, 4)">
    <line x1="0" y1="0" x2="256" y2="256"></line>
    <line x1="256" y1="0" x2="0" y2="256"></line>
    <line x1="128" y1="0" x2="128" y2="256"></line>
    <line x1="0" y1="128" x2="256" y2="128"></line>
  </g>
  <g transform="scale(1, -1) translate(0, -900)">
    <style type="text/css">
      
        @keyframes keyframes0 {
          from {
            stroke: blue;
            stroke-dashoffset: 542;
            stroke-width: 128;
          }
          64% {
            animation-timing-function: step-end;
            stroke: blue;
            stroke-dashoffset: 0;
            stroke-width: 128;
          }
          to {
            stroke: black;
            stroke-width: 1024;
          }
        }
        #make-me-a-hanzi-animation-0 {
          animation: keyframes0 0.6910807291666666s both;
          animation-delay: 0s;
          animation-timing-function: linear;
        }
      
        @keyframes keyframes1 {
          from {
            stroke: blue;
            stroke-dashoffset: 497;
            stroke-width: 128;
          }
          62% {
            animation-timing-function: step-end;
            stroke: blue;
            stroke-dashoffset: 0;
            stroke-width: 128;
          }
          to {
            stroke: black;
            stroke-width: 1024;
          }
        }
        #make-me-a-hanzi-animation-1 {
          animation: keyframes1 0.6544596354166666s both;
          animation-delay: 0.6910807291666666s;
          animation-timing-function: linear;
        }
      
        @keyframes keyframes2 {
          from {
            stroke: blue;
            stroke-dashoffset: 635;
            stroke-width: 128;
          }
          67% {
            animation-timing-function: step-end;
            stroke: blue;
            stroke-dashoffset: 0;
            stroke-width: 128;
          }
          to {
            stroke: black;
            stroke-width: 1024;
          }
        }
        #make-me-a-hanzi-animation-2 {
          animation: keyframes2 0.7667643229166666s both;
          animation-delay: 1.3455403645833333s;
          animation-timing-function: linear;
        }
      
        @keyframes keyframes3 {
          from {
            stroke: blue;
            stroke-dashoffset: 900;
            stroke-width: 128;
          }
          75% {
            animation-timing-function: step-end;
            stroke: blue;
            stroke-dashoffset: 0;
            stroke-width: 128;
          }
          to {
            stroke: black;
            stroke-width: 1024;
          }
        }
        #make-me-a-hanzi-animation-3 {
          animation: keyframes3 0.982421875s both;
          animation-delay: 2.1123046875s;
          animation-timing-function: linear;
        }
      
        @keyframes keyframes4 {
          from {
            stroke: blue;
            stroke-dashoffset: 902;
            stroke-width: 128;
          }
          75% {
            animation-timing-function: step-end;
            stroke: blue;
            stroke-dashoffset: 0;
            stroke-width: 128;
          }
          to {
            stroke: black;
            stroke-width: 1024;
          }
        }
        #make-me-a-hanzi-animation-4 {
          animation: keyframes4 0.9840494791666666s both;
          animation-delay: 3.0947265625s;
          animation-timing-function: linear;
        }
      
        @keyframes keyframes5 {
          from {
            stroke: blue;
            stroke-dashoffset: 613;
            stroke-width: 128;
          }
          67% {
            animation-timing-function: step-end;
            stroke: blue;
            stroke-dashoffset: 0;
            stroke-width: 128;
          }
          to {
            stroke: black;
            stroke-width: 1024;
          }
        }
        #make-me-a-hanzi-animation-5 {
          animation: keyframes5 0.7488606770833334s both;
          animation-delay: 4.078776041666667s;
          animation-timing-function: linear;
        }
      
        @keyframes keyframes6 {
          from {
            stroke: blue;
            stroke-dashoffset: 512;
            stroke-width: 128;
          }
          63% {
            animation-timing-function: step-end;
            stroke: blue;
            stroke-dashoffset: 0;
            stroke-width: 128;
          }
          to {
            stroke: black;
            stroke-width: 1024;
          }
        }
        #make-me-a-hanzi-animation-6 {
          animation: keyframes6 0.6666666666666666s both;
          animation-delay: 4.82763671875s;
          animation-timing-function: linear;
        }
      
        @keyframes keyframes7 {
          from {
            stroke: blue;
            stroke-dashoffset: 930;
            stroke-width: 128;
          }
          75% {
            animation-timing-function: step-end;
            stroke: blue;
            stroke-dashoffset: 0;
            stroke-width: 128;
          }
          to {
            stroke: black;
            stroke-width: 1024;
          }
        }
        #make-me-a-hanzi-animation-7 {
          animation: keyframes7 1.0068359375s both;
          animation-delay: 5.494303385416667s;
          animation-timing-function: linear;
        }
      
        @keyframes keyframes8 {
          from {
            stroke: blue;
            stroke-dashoffset: 756;
            stroke-width: 128;
          }
          71% {
            animation-timing-function: step-end;
            stroke: blue;
            stroke-dashoffset: 0;
            stroke-width: 128;
          }
          to {
            stroke: black;
            stroke-width: 1024;
          }
        }
        #make-me-a-hanzi-animation-8 {
          animation: keyframes8 0.865234375s both;
          animation-delay: 6.501139322916667s;
          animation-timing-function: linear;
        }
      
    </style>
    
      <path d="M 399 666 Q 499 691 503 694 Q 512 701 507 709 Q 500 719 474 726 Q 444 730 403 714 L 356 699 Q 260 678 224 674 Q 190 668 215 653 Q 251 632 307 646 Q 329 652 353 655 L 399 666 Z" fill="lightgray"></path>
    
      <path d="M 386 566 Q 477 591 480 593 Q 487 600 483 607 Q 476 616 453 621 Q 426 625 392 609 C 389 608 376 604 347 595 Q 346 595 346 594 Q 339 593 334 591 Q 294 581 246 574 Q 216 568 238 556 Q 268 540 327 553 Q 333 554 340 555 L 386 566 Z" fill="lightgray"></path>
    
      <path d="M 360 462 Q 420 478 494 492 Q 510 495 510 502 Q 511 514 494 522 Q 463 534 373 506 L 321 491 Q 201 463 135 453 Q 123 452 120 444 Q 119 434 133 423 Q 167 402 216 416 Q 262 434 304 446 L 360 462 Z" fill="lightgray"></path>
    
      <path d="M 304 446 Q 301 442 300 437 Q 267 362 183 292 Q 170 280 167 275 Q 166 269 176 269 Q 212 269 283 340 Q 325 383 360 462 L 373 506 Q 379 531 385 559 Q 385 563 386 566 L 392 609 Q 395 637 399 666 L 403 714 Q 403 736 413 798 Q 419 816 400 825 Q 357 847 344 846 Q 326 843 340 823 Q 358 790 356 699 L 353 655 Q 350 628 347 595 L 340 555 Q 333 525 321 491 L 304 446 Z" fill="lightgray"></path>
    
      <path d="M 618 725 Q 633 734 694 751 Q 698 754 709 748 Q 719 741 711 720 Q 690 659 685 651 Q 678 638 679 630 Q 679 620 698 613 Q 797 550 769 493 Q 768 493 767 491 Q 751 484 727 489 Q 687 499 654 506 Q 647 507 647 501 Q 648 494 662 485 Q 740 443 755 417 Q 762 404 774 403 Q 784 402 799 413 Q 826 447 826 489 Q 826 553 737 622 Q 698 650 758 703 Q 758 704 760 705 Q 773 723 792 731 Q 817 746 795 763 Q 761 791 741 800 Q 725 806 711 797 Q 687 779 591 750 C 562 741 591 713 618 725 Z" fill="lightgray"></path>
    
      <path d="M 566 423 Q 570 402 576 394 Q 580 388 586 391 Q 593 394 597 406 Q 610 443 608 521 Q 607 552 612 676 Q 615 700 618 725 C 619 736 618 736 591 750 Q 578 757 571 759 Q 561 763 548 755 Q 541 749 546 740 Q 558 722 560 702 Q 563 630 562 517 Q 563 447 566 423 Z" fill="lightgray"></path>
    
      <path d="M 363 322 Q 342 343 310 339 Q 298 335 304 324 Q 335 272 314 169 Q 292 135 325 91 Q 325 90 328 87 Q 335 75 344 81 Q 368 99 369 232 Q 369 272 369 289 C 369 317 369 317 363 322 Z" fill="lightgray"></path>
    
      <path d="M 542 316 Q 594 325 647 328 Q 677 329 678 309 Q 687 167 670 144 Q 664 141 607 160 Q 592 166 589 161 Q 585 157 595 145 Q 646 100 676 66 Q 691 51 704 66 Q 732 99 734 169 Q 728 265 738 316 Q 742 335 732 345 Q 707 367 688 378 Q 676 384 667 375 Q 660 366 553 345 Q 549 345 544 343 L 482 335 Q 436 331 363 322 C 333 318 339 284 369 289 L 483 307 L 542 316 Z" fill="lightgray"></path>
    
      <path d="M 486 -35 Q 492 -60 498 -69 Q 504 -76 511 -74 Q 538 -56 539 100 Q 538 146 542 316 L 544 343 Q 547 355 551 379 Q 555 397 541 406 Q 510 428 494 430 Q 482 434 466 426 Q 457 419 464 408 Q 482 378 482 335 L 483 307 Q 483 -12 486 -35 Z" fill="lightgray"></path>
    
    
      <clipPath id="make-me-a-hanzi-clip-0">
        <path d="M 399 666 Q 499 691 503 694 Q 512 701 507 709 Q 500 719 474 726 Q 444 730 403 714 L 356 699 Q 260 678 224 674 Q 190 668 215 653 Q 251 632 307 646 Q 329 652 353 655 L 399 666 Z"></path>
      </clipPath>
      <path clip-path="url(#make-me-a-hanzi-clip-0)" d="M 217 665 L 239 659 L 294 664 L 445 702 L 497 704" fill="none" id="make-me-a-hanzi-animation-0" stroke-dasharray="414 828" stroke-linecap="round"></path>
    
      <clipPath id="make-me-a-hanzi-clip-1">
        <path d="M 386 566 Q 477 591 480 593 Q 487 600 483 607 Q 476 616 453 621 Q 426 625 392 609 C 389 608 376 604 347 595 Q 346 595 346 594 Q 339 593 334 591 Q 294 581 246 574 Q 216 568 238 556 Q 268 540 327 553 Q 333 554 340 555 L 386 566 Z"></path>
      </clipPath>
      <path clip-path="url(#make-me-a-hanzi-clip-1)" d="M 239 566 L 298 564 L 445 603 L 475 601" fill="none" id="make-me-a-hanzi-animation-1" stroke-dasharray="369 738" stroke-linecap="round"></path>
    
      <clipPath id="make-me-a-hanzi-clip-2">
        <path d="M 360 462 Q 420 478 494 492 Q 510 495 510 502 Q 511 514 494 522 Q 463 534 373 506 L 321 491 Q 201 463 135 453 Q 123 452 120 444 Q 119 434 133 423 Q 167 402 216 416 Q 262 434 304 446 L 360 462 Z"></path>
      </clipPath>
      <path clip-path="url(#make-me-a-hanzi-clip-2)" d="M 130 441 L 156 435 L 202 438 L 409 496 L 457 506 L 499 505" fill="none" id="make-me-a-hanzi-animation-2" stroke-dasharray="507 1014" stroke-linecap="round"></path>
    
      <clipPath id="make-me-a-hanzi-clip-3">
        <path d="M 304 446 Q 301 442 300 437 Q 267 362 183 292 Q 170 280 167 275 Q 166 269 176 269 Q 212 269 283 340 Q 325 383 360 462 L 373 506 Q 379 531 385 559 Q 385 563 386 566 L 392 609 Q 395 637 399 666 L 403 714 Q 403 736 413 798 Q 419 816 400 825 Q 357 847 344 846 Q 326 843 340 823 Q 358 790 356 699 L 353 655 Q 350 628 347 595 L 340 555 Q 333 525 321 491 L 304 446 Z"></path>
      </clipPath>
      <path clip-path="url(#make-me-a-hanzi-clip-3)" d="M 345 834 L 381 799 L 382 774 L 370 605 L 345 490 L 322 433 L 281 366 L 237 318 L 174 275" fill="none" id="make-me-a-hanzi-animation-3" stroke-dasharray="772 1544" stroke-linecap="round"></path>
    
      <clipPath id="make-me-a-hanzi-clip-4">
        <path d="M 618 725 Q 633 734 694 751 Q 698 754 709 748 Q 719 741 711 720 Q 690 659 685 651 Q 678 638 679 630 Q 679 620 698 613 Q 797 550 769 493 Q 768 493 767 491 Q 751 484 727 489 Q 687 499 654 506 Q 647 507 647 501 Q 648 494 662 485 Q 740 443 755 417 Q 762 404 774 403 Q 784 402 799 413 Q 826 447 826 489 Q 826 553 737 622 Q 698 650 758 703 Q 758 704 760 705 Q 773 723 792 731 Q 817 746 795 763 Q 761 791 741 800 Q 725 806 711 797 Q 687 779 591 750 C 562 741 591 713 618 725 Z"></path>
      </clipPath>
      <path clip-path="url(#make-me-a-hanzi-clip-4)" d="M 601 752 L 621 744 L 687 767 L 723 772 L 751 749 L 715 683 L 702 635 L 782 557 L 797 522 L 794 474 L 775 453 L 653 500" fill="none" id="make-me-a-hanzi-animation-4" stroke-dasharray="774 1548" stroke-linecap="round"></path>
    
      <clipPath id="make-me-a-hanzi-clip-5">
        <path d="M 566 423 Q 570 402 576 394 Q 580 388 586 391 Q 593 394 597 406 Q 610 443 608 521 Q 607 552 612 676 Q 615 700 618 725 C 619 736 618 736 591 750 Q 578 757 571 759 Q 561 763 548 755 Q 541 749 546 740 Q 558 722 560 702 Q 563 630 562 517 Q 563 447 566 423 Z"></path>
      </clipPath>
      <path clip-path="url(#make-me-a-hanzi-clip-5)" d="M 559 746 L 575 733 L 588 710 L 583 400" fill="none" id="make-me-a-hanzi-animation-5" stroke-dasharray="485 970" stroke-linecap="round"></path>
    
      <clipPath id="make-me-a-hanzi-clip-6">
        <path d="M 363 322 Q 342 343 310 339 Q 298 335 304 324 Q 335 272 314 169 Q 292 135 325 91 Q 325 90 328 87 Q 335 75 344 81 Q 368 99 369 232 Q 369 272 369 289 C 369 317 369 317 363 322 Z"></path>
      </clipPath>
      <path clip-path="url(#make-me-a-hanzi-clip-6)" d="M 311 330 L 336 313 L 344 284 L 347 220 L 334 136 L 338 90" fill="none" id="make-me-a-hanzi-animation-6" stroke-dasharray="384 768" stroke-linecap="round"></path>
    
      <clipPath id="make-me-a-hanzi-clip-7">
        <path d="M 542 316 Q 594 325 647 328 Q 677 329 678 309 Q 687 167 670 144 Q 664 141 607 160 Q 592 166 589 161 Q 585 157 595 145 Q 646 100 676 66 Q 691 51 704 66 Q 732 99 734 169 Q 728 265 738 316 Q 742 335 732 345 Q 707 367 688 378 Q 676 384 667 375 Q 660 366 553 345 Q 549 345 544 343 L 482 335 Q 436 331 363 322 C 333 318 339 284 369 289 L 483 307 L 542 316 Z"></path>
      </clipPath>
      <path clip-path="url(#make-me-a-hanzi-clip-7)" d="M 375 296 L 382 308 L 391 310 L 646 347 L 687 345 L 707 325 L 708 316 L 707 177 L 699 130 L 687 110 L 679 111 L 594 158" fill="none" id="make-me-a-hanzi-animation-7" stroke-dasharray="802 1604" stroke-linecap="round"></path>
    
      <clipPath id="make-me-a-hanzi-clip-8">
        <path d="M 486 -35 Q 492 -60 498 -69 Q 504 -76 511 -74 Q 538 -56 539 100 Q 538 146 542 316 L 544 343 Q 547 355 551 379 Q 555 397 541 406 Q 510 428 494 430 Q 482 434 466 426 Q 457 419 464 408 Q 482 378 482 335 L 483 307 Q 483 -12 486 -35 Z"></path>
      </clipPath>
      <path clip-path="url(#make-me-a-hanzi-clip-8)" d="M 473 416 L 493 406 L 514 378 L 507 -65" fill="none" id="make-me-a-hanzi-animation-8" stroke-dasharray="628 1256" stroke-linecap="round"></path>
    
  </g>
</svg>