<svg version="1.1" viewBox="0 0 1024 1024" xmlns="http://www.w3.org/2000/svg">
  <g stroke="lightgray" stroke-dasharray="1,1" stroke-width="1" transform="scale(4, 4)">
    <line x1="0" y1="0" x2="256" y2="256"></line>
    <line x1="256" y1="0" x2="0" y2="256"></line>
    <line x1="128" y1="0" x2="128" y2="256"></line>
    <line x1="0" y1="128" x2="256" y2="128"></line>
  </g>
  <g transform="scale(1, -1) translate(0, -900)">
    <style type="text/css">
      
        @keyframes keyframes0 {
          from {
            stroke: blue;
            stroke-dashoffset: 507;
            stroke-width: 128;
          }
          62% {
            animation-timing-function: step-end;
            stroke: blue;
            stroke-dashoffset: 0;
            stroke-width: 128;
          }
          to {
            stroke: black;
            stroke-width: 1024;
          }
        }
        #make-me-a-hanzi-animation-0 {
          animation: keyframes0 0.66259765625s both;
          animation-delay: 0s;
          animation-timing-function: linear;
        }
      
        @keyframes keyframes1 {
          from {
            stroke: blue;
            stroke-dashoffset: 783;
            stroke-width: 128;
          }
          72% {
            animation-timing-function: step-end;
            stroke: blue;
            stroke-dashoffset: 0;
            stroke-width: 128;
          }
          to {
            stroke: black;
            stroke-width: 1024;
          }
        }
        #make-me-a-hanzi-animation-1 {
          animation: keyframes1 0.88720703125s both;
          animation-delay: 0.66259765625s;
          animation-timing-function: linear;
        }
      
        @keyframes keyframes2 {
          from {
            stroke: blue;
            stroke-dashoffset: 1065;
            stroke-width: 128;
          }
          78% {
            animation-timing-function: step-end;
            stroke: blue;
            stroke-dashoffset: 0;
            stroke-width: 128;
          }
          to {
            stroke: black;
            stroke-width: 1024;
          }
        }
        #make-me-a-hanzi-animation-2 {
          animation: keyframes2 1.11669921875s both;
          animation-delay: 1.5498046875s;
          animation-timing-function: linear;
        }
      
        @keyframes keyframes3 {
          from {
            stroke: blue;
            stroke-dashoffset: 369;
            stroke-width: 128;
          }
          55% {
            animation-timing-function: step-end;
            stroke: blue;
            stroke-dashoffset: 0;
            stroke-width: 128;
          }
          to {
            stroke: black;
            stroke-width: 1024;
          }
        }
        #make-me-a-hanzi-animation-3 {
          animation: keyframes3 0.55029296875s both;
          animation-delay: 2.66650390625s;
          animation-timing-function: linear;
        }
      
        @keyframes keyframes4 {
          from {
            stroke: blue;
            stroke-dashoffset: 563;
            stroke-width: 128;
          }
          65% {
            animation-timing-function: step-end;
            stroke: blue;
            stroke-dashoffset: 0;
            stroke-width: 128;
          }
          to {
            stroke: black;
            stroke-width: 1024;
          }
        }
        #make-me-a-hanzi-animation-4 {
          animation: keyframes4 0.7081705729166666s both;
          animation-delay: 3.216796875s;
          animation-timing-function: linear;
        }
      
        @keyframes keyframes5 {
          from {
            stroke: blue;
            stroke-dashoffset: 327;
            stroke-width: 128;
          }
          52% {
            animation-timing-function: step-end;
            stroke: blue;
            stroke-dashoffset: 0;
            stroke-width: 128;
          }
          to {
            stroke: black;
            stroke-width: 1024;
          }
        }
        #make-me-a-hanzi-animation-5 {
          animation: keyframes5 0.51611328125s both;
          animation-delay: 3.9249674479166665s;
          animation-timing-function: linear;
        }
      
        @keyframes keyframes6 {
          from {
            stroke: blue;
            stroke-dashoffset: 410;
            stroke-width: 128;
          }
          57% {
            animation-timing-function: step-end;
            stroke: blue;
            stroke-dashoffset: 0;
            stroke-width: 128;
          }
          to {
            stroke: black;
            stroke-width: 1024;
          }
        }
        #make-me-a-hanzi-animation-6 {
          animation: keyframes6 0.5836588541666666s both;
          animation-delay: 4.441080729166666s;
          animation-timing-function: linear;
        }
      
        @keyframes keyframes7 {
          from {
            stroke: blue;
            stroke-dashoffset: 801;
            stroke-width: 128;
          }
          72% {
            animation-timing-function: step-end;
            stroke: blue;
            stroke-dashoffset: 0;
            stroke-width: 128;
          }
          to {
            stroke: black;
            stroke-width: 1024;
          }
        }
        #make-me-a-hanzi-animation-7 {
          animation: keyframes7 0.90185546875s both;
          animation-delay: 5.024739583333333s;
          animation-timing-function: linear;
        }
      
        @keyframes keyframes8 {
          from {
            stroke: blue;
            stroke-dashoffset: 484;
            stroke-width: 128;
          }
          61% {
            animation-timing-function: step-end;
            stroke: blue;
            stroke-dashoffset: 0;
            stroke-width: 128;
          }
          to {
            stroke: black;
            stroke-width: 1024;
          }
        }
        #make-me-a-hanzi-animation-8 {
          animation: keyframes8 0.6438802083333334s both;
          animation-delay: 5.926595052083333s;
          animation-timing-function: linear;
        }
      
        @keyframes keyframes9 {
          from {
            stroke: blue;
            stroke-dashoffset: 791;
            stroke-width: 128;
          }
          72% {
            animation-timing-function: step-end;
            stroke: blue;
            stroke-dashoffset: 0;
            stroke-width: 128;
          }
          to {
            stroke: black;
            stroke-width: 1024;
          }
        }
        #make-me-a-hanzi-animation-9 {
          animation: keyframes9 0.8937174479166666s both;
          animation-delay: 6.570475260416666s;
          animation-timing-function: linear;
        }
      
        @keyframes keyframes10 {
          from {
            stroke: blue;
            stroke-dashoffset: 433;
            stroke-width: 128;
          }
          58% {
            animation-timing-function: step-end;
            stroke: blue;
            stroke-dashoffset: 0;
            stroke-width: 128;
          }
          to {
            stroke: black;
            stroke-width: 1024;
          }
        }
        #make-me-a-hanzi-animation-10 {
          animation: keyframes10 0.6023763020833334s both;
          animation-delay: 7.464192708333333s;
          animation-timing-function: linear;
        }
      
        @keyframes keyframes11 {
          from {
            stroke: blue;
            stroke-dashoffset: 458;
            stroke-width: 128;
          }
          60% {
            animation-timing-function: step-end;
            stroke: blue;
            stroke-dashoffset: 0;
            stroke-width: 128;
          }
          to {
            stroke: black;
            stroke-width: 1024;
          }
        }
        #make-me-a-hanzi-animation-11 {
          animation: keyframes11 0.6227213541666666s both;
          animation-delay: 8.066569010416666s;
          animation-timing-function: linear;
        }
      
        @keyframes keyframes12 {
          from {
            stroke: blue;
            stroke-dashoffset: 643;
            stroke-width: 128;
          }
          68% {
            animation-timing-function: step-end;
            stroke: blue;
            stroke-dashoffset: 0;
            stroke-width: 128;
          }
          to {
            stroke: black;
            stroke-width: 1024;
          }
        }
        #make-me-a-hanzi-animation-12 {
          animation: keyframes12 0.7732747395833334s both;
          animation-delay: 8.689290364583332s;
          animation-timing-function: linear;
        }
      
        @keyframes keyframes13 {
          from {
            stroke: blue;
            stroke-dashoffset: 514;
            stroke-width: 128;
          }
          63% {
            animation-timing-function: step-end;
            stroke: blue;
            stroke-dashoffset: 0;
            stroke-width: 128;
          }
          to {
            stroke: black;
            stroke-width: 1024;
          }
        }
        #make-me-a-hanzi-animation-13 {
          animation: keyframes13 0.6682942708333334s both;
          animation-delay: 9.462565104166666s;
          animation-timing-function: linear;
        }
      
        @keyframes keyframes14 {
          from {
            stroke: blue;
            stroke-dashoffset: 772;
            stroke-width: 128;
          }
          72% {
            animation-timing-function: step-end;
            stroke: blue;
            stroke-dashoffset: 0;
            stroke-width: 128;
          }
          to {
            stroke: black;
            stroke-width: 1024;
          }
        }
        #make-me-a-hanzi-animation-14 {
          animation: keyframes14 0.8782552083333334s both;
          animation-delay: 10.130859375s;
          animation-timing-function: linear;
        }
      
    </style>
    
      <path d="M 147 557 Q 129 575 100 572 Q 88 568 94 558 Q 122 507 100 400 Q 79 349 110 315 Q 116 303 124 309 Q 151 330 151 422 Q 151 495 155 521 C 158 547 158 547 147 557 Z" fill="lightgray"></path>
    
      <path d="M 276 556 Q 321 571 335 563 Q 348 559 349 539 Q 353 490 341 401 Q 341 382 322 382 Q 304 383 289 383 Q 276 386 279 378 Q 280 369 304 352 Q 326 328 340 303 Q 349 296 359 300 Q 387 318 396 389 Q 396 545 407 560 Q 416 570 410 579 Q 401 589 367 606 Q 358 610 294 595 Q 290 595 277 591 L 232 579 Q 190 570 147 557 C 118 549 129 507 155 521 Q 164 531 232 546 L 276 556 Z" fill="lightgray"></path>
    
      <path d="M 199 117 Q 187 74 213 18 Q 219 0 227 -3 Q 233 -9 240 -1 Q 247 3 258 23 Q 268 48 267 78 Q 266 126 276 556 L 277 591 Q 280 673 297 730 Q 306 745 303 758 Q 296 768 242 801 Q 220 817 199 803 Q 195 799 200 783 Q 231 737 232 690 Q 232 638 232 579 L 232 546 Q 232 545 233 543 Q 229 407 224 259 Q 220 186 199 117 Z" fill="lightgray"></path>
    
      <path d="M 614 810 Q 635 794 658 773 Q 671 763 684 764 Q 694 765 697 776 Q 701 789 691 815 Q 682 839 607 851 Q 594 854 588 851 Q 584 847 586 836 Q 590 826 614 810 Z" fill="lightgray"></path>
    
      <path d="M 728 704 Q 813 725 815 726 Q 822 733 819 741 Q 812 751 786 759 Q 762 765 662 734 Q 571 715 517 710 Q 483 704 507 689 Q 540 668 610 681 Q 655 690 704 699 L 728 704 Z" fill="lightgray"></path>
    
      <path d="M 526 632 Q 553 575 572 569 Q 582 565 591 579 Q 595 589 591 607 Q 582 632 535 653 Q 528 656 524 647 Q 523 640 526 632 Z" fill="lightgray"></path>
    
      <path d="M 699 571 Q 703 577 711 585 Q 726 603 741 624 Q 748 634 760 646 Q 773 656 767 665 Q 752 696 728 704 C 701 715 701 715 704 699 Q 703 698 706 692 Q 712 668 679 589 Q 672 576 669 566 C 659 538 681 547 699 571 Z" fill="lightgray"></path>
    
      <path d="M 669 566 Q 554 550 423 528 Q 404 527 418 511 Q 431 499 447 495 Q 466 491 480 495 Q 675 552 946 552 Q 964 553 968 561 Q 972 571 957 583 Q 903 619 857 604 Q 794 591 699 571 L 669 566 Z" fill="lightgray"></path>
    
      <path d="M 498 442 Q 488 446 470 448 Q 460 451 456 446 Q 452 440 459 426 Q 487 369 505 276 Q 509 248 525 230 Q 541 211 546 225 Q 547 231 548 237 L 548 262 Q 547 272 545 286 Q 526 383 521 412 C 517 436 517 436 498 442 Z" fill="lightgray"></path>
    
      <path d="M 740 264 Q 756 237 773 230 Q 783 223 797 242 Q 809 263 835 375 Q 842 405 865 428 Q 877 440 866 452 Q 853 468 812 492 Q 796 499 715 482 Q 712 482 593 460 Q 541 450 498 442 C 469 436 492 404 521 412 Q 521 413 524 413 Q 558 423 610 432 L 656 440 Q 693 447 737 453 Q 767 457 776 447 Q 788 434 785 422 Q 773 346 755 290 C 746 261 735 271 740 264 Z" fill="lightgray"></path>
    
      <path d="M 673 346 Q 704 353 733 358 Q 754 362 745 373 Q 735 386 713 389 Q 697 390 675 384 L 625 368 Q 591 358 562 348 Q 547 344 566 331 Q 570 328 625 336 L 673 346 Z" fill="lightgray"></path>
    
      <path d="M 670 254 Q 704 261 740 264 C 770 267 780 273 755 290 Q 734 308 675 293 Q 672 293 671 292 L 625 281 Q 585 272 548 262 C 519 254 518 238 548 237 Q 555 236 566 238 Q 596 244 625 247 L 670 254 Z" fill="lightgray"></path>
    
      <path d="M 665 62 Q 665 102 666 137 L 668 182 Q 668 219 670 254 L 671 292 Q 672 320 673 346 L 675 384 Q 675 393 676 399 Q 685 420 656 440 C 633 459 596 458 610 432 Q 614 425 618 417 Q 624 399 625 368 L 625 336 Q 625 315 625 281 L 625 247 Q 625 214 624 170 L 624 129 Q 624 96 624 56 C 624 26 665 32 665 62 Z" fill="lightgray"></path>
    
      <path d="M 666 137 Q 777 161 779 162 Q 786 169 783 177 Q 776 187 750 195 Q 723 201 668 182 L 624 170 Q 623 171 621 170 Q 578 161 529 158 Q 495 152 519 137 Q 549 118 624 129 L 666 137 Z" fill="lightgray"></path>
    
      <path d="M 624 56 Q 522 44 405 30 Q 383 29 399 11 Q 412 -2 431 -9 Q 452 -15 468 -10 Q 597 24 898 24 Q 917 24 923 32 Q 929 44 912 58 Q 857 100 787 82 Q 735 75 665 62 L 624 56 Z" fill="lightgray"></path>
    
    
      <clipPath id="make-me-a-hanzi-clip-0">
        <path d="M 147 557 Q 129 575 100 572 Q 88 568 94 558 Q 122 507 100 400 Q 79 349 110 315 Q 116 303 124 309 Q 151 330 151 422 Q 151 495 155 521 C 158 547 158 547 147 557 Z"></path>
      </clipPath>
      <path clip-path="url(#make-me-a-hanzi-clip-0)" d="M 107 561 L 126 544 L 131 509 L 120 319" fill="none" id="make-me-a-hanzi-animation-0" stroke-dasharray="379 758" stroke-linecap="round"></path>
    
      <clipPath id="make-me-a-hanzi-clip-1">
        <path d="M 276 556 Q 321 571 335 563 Q 348 559 349 539 Q 353 490 341 401 Q 341 382 322 382 Q 304 383 289 383 Q 276 386 279 378 Q 280 369 304 352 Q 326 328 340 303 Q 349 296 359 300 Q 387 318 396 389 Q 396 545 407 560 Q 416 570 410 579 Q 401 589 367 606 Q 358 610 294 595 Q 290 595 277 591 L 232 579 Q 190 570 147 557 C 118 549 129 507 155 521 Q 164 531 232 546 L 276 556 Z"></path>
      </clipPath>
      <path clip-path="url(#make-me-a-hanzi-clip-1)" d="M 154 527 L 173 548 L 309 584 L 347 583 L 375 566 L 370 403 L 362 368 L 351 353 L 286 377" fill="none" id="make-me-a-hanzi-animation-1" stroke-dasharray="655 1310" stroke-linecap="round"></path>
    
      <clipPath id="make-me-a-hanzi-clip-2">
        <path d="M 199 117 Q 187 74 213 18 Q 219 0 227 -3 Q 233 -9 240 -1 Q 247 3 258 23 Q 268 48 267 78 Q 266 126 276 556 L 277 591 Q 280 673 297 730 Q 306 745 303 758 Q 296 768 242 801 Q 220 817 199 803 Q 195 799 200 783 Q 231 737 232 690 Q 232 638 232 579 L 232 546 Q 232 545 233 543 Q 229 407 224 259 Q 220 186 199 117 Z"></path>
      </clipPath>
      <path clip-path="url(#make-me-a-hanzi-clip-2)" d="M 210 797 L 261 744 L 247 247 L 231 95 L 232 10" fill="none" id="make-me-a-hanzi-animation-2" stroke-dasharray="937 1874" stroke-linecap="round"></path>
    
      <clipPath id="make-me-a-hanzi-clip-3">
        <path d="M 614 810 Q 635 794 658 773 Q 671 763 684 764 Q 694 765 697 776 Q 701 789 691 815 Q 682 839 607 851 Q 594 854 588 851 Q 584 847 586 836 Q 590 826 614 810 Z"></path>
      </clipPath>
      <path clip-path="url(#make-me-a-hanzi-clip-3)" d="M 594 843 L 659 809 L 683 778" fill="none" id="make-me-a-hanzi-animation-3" stroke-dasharray="241 482" stroke-linecap="round"></path>
    
      <clipPath id="make-me-a-hanzi-clip-4">
        <path d="M 728 704 Q 813 725 815 726 Q 822 733 819 741 Q 812 751 786 759 Q 762 765 662 734 Q 571 715 517 710 Q 483 704 507 689 Q 540 668 610 681 Q 655 690 704 699 L 728 704 Z"></path>
      </clipPath>
      <path clip-path="url(#make-me-a-hanzi-clip-4)" d="M 509 701 L 528 695 L 597 699 L 766 737 L 811 735" fill="none" id="make-me-a-hanzi-animation-4" stroke-dasharray="435 870" stroke-linecap="round"></path>
    
      <clipPath id="make-me-a-hanzi-clip-5">
        <path d="M 526 632 Q 553 575 572 569 Q 582 565 591 579 Q 595 589 591 607 Q 582 632 535 653 Q 528 656 524 647 Q 523 640 526 632 Z"></path>
      </clipPath>
      <path clip-path="url(#make-me-a-hanzi-clip-5)" d="M 535 641 L 565 607 L 576 584" fill="none" id="make-me-a-hanzi-animation-5" stroke-dasharray="199 398" stroke-linecap="round"></path>
    
      <clipPath id="make-me-a-hanzi-clip-6">
        <path d="M 699 571 Q 703 577 711 585 Q 726 603 741 624 Q 748 634 760 646 Q 773 656 767 665 Q 752 696 728 704 C 701 715 701 715 704 699 Q 703 698 706 692 Q 712 668 679 589 Q 672 576 669 566 C 659 538 681 547 699 571 Z"></path>
      </clipPath>
      <path clip-path="url(#make-me-a-hanzi-clip-6)" d="M 711 697 L 726 685 L 734 660 L 690 581 L 676 569" fill="none" id="make-me-a-hanzi-animation-6" stroke-dasharray="282 564" stroke-linecap="round"></path>
    
      <clipPath id="make-me-a-hanzi-clip-7">
        <path d="M 669 566 Q 554 550 423 528 Q 404 527 418 511 Q 431 499 447 495 Q 466 491 480 495 Q 675 552 946 552 Q 964 553 968 561 Q 972 571 957 583 Q 903 619 857 604 Q 794 591 699 571 L 669 566 Z"></path>
      </clipPath>
      <path clip-path="url(#make-me-a-hanzi-clip-7)" d="M 420 520 L 465 514 L 620 544 L 880 580 L 925 576 L 958 566" fill="none" id="make-me-a-hanzi-animation-7" stroke-dasharray="673 1346" stroke-linecap="round"></path>
    
      <clipPath id="make-me-a-hanzi-clip-8">
        <path d="M 498 442 Q 488 446 470 448 Q 460 451 456 446 Q 452 440 459 426 Q 487 369 505 276 Q 509 248 525 230 Q 541 211 546 225 Q 547 231 548 237 L 548 262 Q 547 272 545 286 Q 526 383 521 412 C 517 436 517 436 498 442 Z"></path>
      </clipPath>
      <path clip-path="url(#make-me-a-hanzi-clip-8)" d="M 464 441 L 485 423 L 497 402 L 536 230" fill="none" id="make-me-a-hanzi-animation-8" stroke-dasharray="356 712" stroke-linecap="round"></path>
    
      <clipPath id="make-me-a-hanzi-clip-9">
        <path d="M 740 264 Q 756 237 773 230 Q 783 223 797 242 Q 809 263 835 375 Q 842 405 865 428 Q 877 440 866 452 Q 853 468 812 492 Q 796 499 715 482 Q 712 482 593 460 Q 541 450 498 442 C 469 436 492 404 521 412 Q 521 413 524 413 Q 558 423 610 432 L 656 440 Q 693 447 737 453 Q 767 457 776 447 Q 788 434 785 422 Q 773 346 755 290 C 746 261 735 271 740 264 Z"></path>
      </clipPath>
      <path clip-path="url(#make-me-a-hanzi-clip-9)" d="M 505 439 L 527 431 L 609 451 L 749 472 L 784 470 L 804 462 L 823 439 L 775 266 L 779 247" fill="none" id="make-me-a-hanzi-animation-9" stroke-dasharray="663 1326" stroke-linecap="round"></path>
    
      <clipPath id="make-me-a-hanzi-clip-10">
        <path d="M 673 346 Q 704 353 733 358 Q 754 362 745 373 Q 735 386 713 389 Q 697 390 675 384 L 625 368 Q 591 358 562 348 Q 547 344 566 331 Q 570 328 625 336 L 673 346 Z"></path>
      </clipPath>
      <path clip-path="url(#make-me-a-hanzi-clip-10)" d="M 564 339 L 698 370 L 737 367" fill="none" id="make-me-a-hanzi-animation-10" stroke-dasharray="305 610" stroke-linecap="round"></path>
    
      <clipPath id="make-me-a-hanzi-clip-11">
        <path d="M 670 254 Q 704 261 740 264 C 770 267 780 273 755 290 Q 734 308 675 293 Q 672 293 671 292 L 625 281 Q 585 272 548 262 C 519 254 518 238 548 237 Q 555 236 566 238 Q 596 244 625 247 L 670 254 Z"></path>
      </clipPath>
      <path clip-path="url(#make-me-a-hanzi-clip-11)" d="M 552 243 L 562 252 L 747 286" fill="none" id="make-me-a-hanzi-animation-11" stroke-dasharray="330 660" stroke-linecap="round"></path>
    
      <clipPath id="make-me-a-hanzi-clip-12">
        <path d="M 665 62 Q 665 102 666 137 L 668 182 Q 668 219 670 254 L 671 292 Q 672 320 673 346 L 675 384 Q 675 393 676 399 Q 685 420 656 440 C 633 459 596 458 610 432 Q 614 425 618 417 Q 624 399 625 368 L 625 336 Q 625 315 625 281 L 625 247 Q 625 214 624 170 L 624 129 Q 624 96 624 56 C 624 26 665 32 665 62 Z"></path>
      </clipPath>
      <path clip-path="url(#make-me-a-hanzi-clip-12)" d="M 618 432 L 649 406 L 645 86 L 630 64" fill="none" id="make-me-a-hanzi-animation-12" stroke-dasharray="515 1030" stroke-linecap="round"></path>
    
      <clipPath id="make-me-a-hanzi-clip-13">
        <path d="M 666 137 Q 777 161 779 162 Q 786 169 783 177 Q 776 187 750 195 Q 723 201 668 182 L 624 170 Q 623 171 621 170 Q 578 161 529 158 Q 495 152 519 137 Q 549 118 624 129 L 666 137 Z"></path>
      </clipPath>
      <path clip-path="url(#make-me-a-hanzi-clip-13)" d="M 521 149 L 562 142 L 593 144 L 725 173 L 775 171" fill="none" id="make-me-a-hanzi-animation-13" stroke-dasharray="386 772" stroke-linecap="round"></path>
    
      <clipPath id="make-me-a-hanzi-clip-14">
        <path d="M 624 56 Q 522 44 405 30 Q 383 29 399 11 Q 412 -2 431 -9 Q 452 -15 468 -10 Q 597 24 898 24 Q 917 24 923 32 Q 929 44 912 58 Q 857 100 787 82 Q 735 75 665 62 L 624 56 Z"></path>
      </clipPath>
      <path clip-path="url(#make-me-a-hanzi-clip-14)" d="M 402 21 L 458 12 L 544 27 L 829 56 L 879 50 L 912 38" fill="none" id="make-me-a-hanzi-animation-14" stroke-dasharray="644 1288" stroke-linecap="round"></path>
    
  </g>
</svg>