<svg version="1.1" viewBox="0 0 1024 1024" xmlns="http://www.w3.org/2000/svg">
  <g stroke="lightgray" stroke-dasharray="1,1" stroke-width="1" transform="scale(4, 4)">
    <line x1="0" y1="0" x2="256" y2="256"></line>
    <line x1="256" y1="0" x2="0" y2="256"></line>
    <line x1="128" y1="0" x2="128" y2="256"></line>
    <line x1="0" y1="128" x2="256" y2="128"></line>
  </g>
  <g transform="scale(1, -1) translate(0, -900)">
    <style type="text/css">
      
        @keyframes keyframes0 {
          from {
            stroke: blue;
            stroke-dashoffset: 389;
            stroke-width: 128;
          }
          56% {
            animation-timing-function: step-end;
            stroke: blue;
            stroke-dashoffset: 0;
            stroke-width: 128;
          }
          to {
            stroke: black;
            stroke-width: 1024;
          }
        }
        #make-me-a-hanzi-animation-0 {
          animation: keyframes0 0.5665690104166666s both;
          animation-delay: 0s;
          animation-timing-function: linear;
        }
      
        @keyframes keyframes1 {
          from {
            stroke: blue;
            stroke-dashoffset: 712;
            stroke-width: 128;
          }
          70% {
            animation-timing-function: step-end;
            stroke: blue;
            stroke-dashoffset: 0;
            stroke-width: 128;
          }
          to {
            stroke: black;
            stroke-width: 1024;
          }
        }
        #make-me-a-hanzi-animation-1 {
          animation: keyframes1 0.8294270833333334s both;
          animation-delay: 0.5665690104166666s;
          animation-timing-function: linear;
        }
      
        @keyframes keyframes2 {
          from {
            stroke: blue;
            stroke-dashoffset: 1053;
            stroke-width: 128;
          }
          77% {
            animation-timing-function: step-end;
            stroke: blue;
            stroke-dashoffset: 0;
            stroke-width: 128;
          }
          to {
            stroke: black;
            stroke-width: 1024;
          }
        }
        #make-me-a-hanzi-animation-2 {
          animation: keyframes2 1.10693359375s both;
          animation-delay: 1.39599609375s;
          animation-timing-function: linear;
        }
      
        @keyframes keyframes3 {
          from {
            stroke: blue;
            stroke-dashoffset: 659;
            stroke-width: 128;
          }
          68% {
            animation-timing-function: step-end;
            stroke: blue;
            stroke-dashoffset: 0;
            stroke-width: 128;
          }
          to {
            stroke: black;
            stroke-width: 1024;
          }
        }
        #make-me-a-hanzi-animation-3 {
          animation: keyframes3 0.7862955729166666s both;
          animation-delay: 2.5029296875s;
          animation-timing-function: linear;
        }
      
        @keyframes keyframes4 {
          from {
            stroke: blue;
            stroke-dashoffset: 487;
            stroke-width: 128;
          }
          61% {
            animation-timing-function: step-end;
            stroke: blue;
            stroke-dashoffset: 0;
            stroke-width: 128;
          }
          to {
            stroke: black;
            stroke-width: 1024;
          }
        }
        #make-me-a-hanzi-animation-4 {
          animation: keyframes4 0.6463216145833334s both;
          animation-delay: 3.2892252604166665s;
          animation-timing-function: linear;
        }
      
        @keyframes keyframes5 {
          from {
            stroke: blue;
            stroke-dashoffset: 459;
            stroke-width: 128;
          }
          60% {
            animation-timing-function: step-end;
            stroke: blue;
            stroke-dashoffset: 0;
            stroke-width: 128;
          }
          to {
            stroke: black;
            stroke-width: 1024;
          }
        }
        #make-me-a-hanzi-animation-5 {
          animation: keyframes5 0.62353515625s both;
          animation-delay: 3.935546875s;
          animation-timing-function: linear;
        }
      
        @keyframes keyframes6 {
          from {
            stroke: blue;
            stroke-dashoffset: 415;
            stroke-width: 128;
          }
          57% {
            animation-timing-function: step-end;
            stroke: blue;
            stroke-dashoffset: 0;
            stroke-width: 128;
          }
          to {
            stroke: black;
            stroke-width: 1024;
          }
        }
        #make-me-a-hanzi-animation-6 {
          animation: keyframes6 0.5877278645833334s both;
          animation-delay: 4.55908203125s;
          animation-timing-function: linear;
        }
      
        @keyframes keyframes7 {
          from {
            stroke: blue;
            stroke-dashoffset: 862;
            stroke-width: 128;
          }
          74% {
            animation-timing-function: step-end;
            stroke: blue;
            stroke-dashoffset: 0;
            stroke-width: 128;
          }
          to {
            stroke: black;
            stroke-width: 1024;
          }
        }
        #make-me-a-hanzi-animation-7 {
          animation: keyframes7 0.9514973958333334s both;
          animation-delay: 5.146809895833333s;
          animation-timing-function: linear;
        }
      
        @keyframes keyframes8 {
          from {
            stroke: blue;
            stroke-dashoffset: 473;
            stroke-width: 128;
          }
          61% {
            animation-timing-function: step-end;
            stroke: blue;
            stroke-dashoffset: 0;
            stroke-width: 128;
          }
          to {
            stroke: black;
            stroke-width: 1024;
          }
        }
        #make-me-a-hanzi-animation-8 {
          animation: keyframes8 0.6349283854166666s both;
          animation-delay: 6.098307291666666s;
          animation-timing-function: linear;
        }
      
        @keyframes keyframes9 {
          from {
            stroke: blue;
            stroke-dashoffset: 834;
            stroke-width: 128;
          }
          73% {
            animation-timing-function: step-end;
            stroke: blue;
            stroke-dashoffset: 0;
            stroke-width: 128;
          }
          to {
            stroke: black;
            stroke-width: 1024;
          }
        }
        #make-me-a-hanzi-animation-9 {
          animation: keyframes9 0.9287109375s both;
          animation-delay: 6.733235677083333s;
          animation-timing-function: linear;
        }
      
        @keyframes keyframes10 {
          from {
            stroke: blue;
            stroke-dashoffset: 428;
            stroke-width: 128;
          }
          58% {
            animation-timing-function: step-end;
            stroke: blue;
            stroke-dashoffset: 0;
            stroke-width: 128;
          }
          to {
            stroke: black;
            stroke-width: 1024;
          }
        }
        #make-me-a-hanzi-animation-10 {
          animation: keyframes10 0.5983072916666666s both;
          animation-delay: 7.661946614583333s;
          animation-timing-function: linear;
        }
      
        @keyframes keyframes11 {
          from {
            stroke: blue;
            stroke-dashoffset: 493;
            stroke-width: 128;
          }
          62% {
            animation-timing-function: step-end;
            stroke: blue;
            stroke-dashoffset: 0;
            stroke-width: 128;
          }
          to {
            stroke: black;
            stroke-width: 1024;
          }
        }
        #make-me-a-hanzi-animation-11 {
          animation: keyframes11 0.6512044270833334s both;
          animation-delay: 8.26025390625s;
          animation-timing-function: linear;
        }
      
        @keyframes keyframes12 {
          from {
            stroke: blue;
            stroke-dashoffset: 476;
            stroke-width: 128;
          }
          61% {
            animation-timing-function: step-end;
            stroke: blue;
            stroke-dashoffset: 0;
            stroke-width: 128;
          }
          to {
            stroke: black;
            stroke-width: 1024;
          }
        }
        #make-me-a-hanzi-animation-12 {
          animation: keyframes12 0.6373697916666666s both;
          animation-delay: 8.911458333333334s;
          animation-timing-function: linear;
        }
      
        @keyframes keyframes13 {
          from {
            stroke: blue;
            stroke-dashoffset: 497;
            stroke-width: 128;
          }
          62% {
            animation-timing-function: step-end;
            stroke: blue;
            stroke-dashoffset: 0;
            stroke-width: 128;
          }
          to {
            stroke: black;
            stroke-width: 1024;
          }
        }
        #make-me-a-hanzi-animation-13 {
          animation: keyframes13 0.6544596354166666s both;
          animation-delay: 9.548828125s;
          animation-timing-function: linear;
        }
      
        @keyframes keyframes14 {
          from {
            stroke: blue;
            stroke-dashoffset: 459;
            stroke-width: 128;
          }
          60% {
            animation-timing-function: step-end;
            stroke: blue;
            stroke-dashoffset: 0;
            stroke-width: 128;
          }
          to {
            stroke: black;
            stroke-width: 1024;
          }
        }
        #make-me-a-hanzi-animation-14 {
          animation: keyframes14 0.62353515625s both;
          animation-delay: 10.203287760416666s;
          animation-timing-function: linear;
        }
      
    </style>
    
      <path d="M 515 828 Q 543 809 574 785 Q 589 775 603 777 Q 613 778 617 792 Q 620 807 608 834 Q 595 861 504 873 Q 489 874 484 871 Q 480 867 482 855 Q 486 845 515 828 Z" fill="lightgray"></path>
    
      <path d="M 643 715 Q 775 745 777 745 Q 786 752 782 760 Q 776 773 748 781 Q 721 788 616 759 Q 447 725 327 719 Q 323 719 319 717 C 289 712 301 700 329 690 Q 368 674 409 681 Q 508 696 609 710 L 643 715 Z" fill="lightgray"></path>
    
      <path d="M 319 717 Q 303 732 278 744 Q 259 756 245 751 Q 232 744 239 729 Q 260 699 253 616 Q 252 607 251 596 Q 236 415 182 273 Q 137 164 44 28 Q 38 21 36 15 Q 33 3 44 5 Q 78 11 166 137 Q 184 167 203 201 Q 281 361 306 566 Q 315 648 329 690 C 333 706 333 706 319 717 Z" fill="lightgray"></path>
    
      <path d="M 654 591 Q 705 598 748 604 Q 758 603 765 613 Q 766 623 747 632 Q 720 651 664 633 L 615 621 Q 599 620 583 614 Q 534 604 490 596 L 448 590 Q 408 587 364 581 Q 339 577 358 563 Q 386 544 425 549 Q 438 552 456 555 L 492 563 Q 547 575 611 584 L 654 591 Z" fill="lightgray"></path>
    
      <path d="M 490 596 Q 489 624 490 637 Q 494 652 484 659 Q 471 666 450 674 Q 434 678 419 668 Q 412 661 423 652 Q 438 637 448 590 L 456 555 Q 471 462 479 448 Q 485 441 491 446 Q 495 453 496 468 L 496 498 Q 495 508 495 516 Q 494 541 492 563 L 490 596 Z" fill="lightgray"></path>
    
      <path d="M 636 519 Q 643 556 654 591 C 663 620 656 616 664 633 Q 664 634 665 634 Q 678 668 682 675 Q 686 682 673 696 Q 657 709 643 715 C 616 728 599 736 609 710 Q 621 685 615 621 L 611 584 Q 607 554 601 521 C 596 491 630 490 636 519 Z" fill="lightgray"></path>
    
      <path d="M 496 468 Q 508 468 520 469 Q 562 476 653 484 Q 663 485 664 493 Q 664 500 636 519 C 633 521 631 521 601 521 Q 597 522 592 520 Q 540 507 496 498 C 467 492 466 468 496 468 Z" fill="lightgray"></path>
    
      <path d="M 551 401 Q 575 413 774 420 Q 903 420 910 429 Q 910 430 911 430 Q 917 440 900 454 Q 849 491 813 483 Q 669 450 308 402 Q 287 399 303 383 Q 316 370 334 365 Q 355 361 370 364 Q 437 385 514 396 L 551 401 Z" fill="lightgray"></path>
    
      <path d="M 370 315 Q 355 322 339 324 Q 332 325 328 320 Q 322 314 332 305 Q 359 275 376 193 Q 382 141 420 115 Q 421 115 423 114 Q 433 113 437 124 L 437 149 Q 433 174 422 202 Q 413 247 408 282 Q 408 285 407 287 C 405 300 398 303 370 315 Z" fill="lightgray"></path>
    
      <path d="M 658 147 Q 673 122 688 113 Q 698 106 714 126 Q 727 144 757 246 Q 766 276 789 300 Q 802 312 792 326 Q 777 342 736 369 Q 717 379 650 362 Q 620 359 575 350 L 525 341 Q 503 340 481 335 Q 420 323 370 315 C 340 310 378 280 407 287 Q 455 300 526 312 L 573 320 Q 678 338 698 324 Q 708 315 706 300 Q 684 186 666 174 C 653 155 653 155 658 147 Z" fill="lightgray"></path>
    
      <path d="M 568 232 Q 598 239 624 242 Q 645 246 637 257 Q 627 270 605 273 Q 590 274 570 269 L 526 257 Q 489 247 458 235 Q 443 232 462 219 Q 465 216 526 225 L 568 232 Z" fill="lightgray"></path>
    
      <path d="M 575 350 Q 576 354 576 356 Q 583 372 575 380 Q 562 393 551 401 C 527 419 505 425 514 396 Q 523 369 525 341 L 526 312 Q 526 291 526 257 L 526 225 Q 526 198 526 164 C 526 134 564 141 565 171 Q 566 202 568 232 L 570 269 Q 571 296 573 320 L 575 350 Z" fill="lightgray"></path>
    
      <path d="M 437 124 Q 444 123 454 124 Q 569 140 658 147 C 688 149 692 160 666 174 Q 660 178 652 180 Q 633 184 565 171 L 526 164 Q 480 157 437 149 C 407 144 407 126 437 124 Z" fill="lightgray"></path>
    
      <path d="M 412 88 Q 394 31 266 -60 Q 244 -73 271 -72 Q 331 -76 441 12 Q 469 34 482 45 Q 494 55 492 66 Q 491 79 465 90 Q 437 103 424 102 Q 417 101 412 88 Z" fill="lightgray"></path>
    
      <path d="M 653 71 Q 699 25 755 -43 Q 771 -65 788 -70 Q 797 -71 805 -61 Q 818 -48 807 -1 Q 803 24 785 42 Q 767 55 727 74 Q 681 95 655 104 Q 645 110 643 97 Q 642 82 653 71 Z" fill="lightgray"></path>
    
    
      <clipPath id="make-me-a-hanzi-clip-0">
        <path d="M 515 828 Q 543 809 574 785 Q 589 775 603 777 Q 613 778 617 792 Q 620 807 608 834 Q 595 861 504 873 Q 489 874 484 871 Q 480 867 482 855 Q 486 845 515 828 Z"></path>
      </clipPath>
      <path clip-path="url(#make-me-a-hanzi-clip-0)" d="M 490 865 L 565 830 L 600 794" fill="none" id="make-me-a-hanzi-animation-0" stroke-dasharray="261 522" stroke-linecap="round"></path>
    
      <clipPath id="make-me-a-hanzi-clip-1">
        <path d="M 643 715 Q 775 745 777 745 Q 786 752 782 760 Q 776 773 748 781 Q 721 788 616 759 Q 447 725 327 719 Q 323 719 319 717 C 289 712 301 700 329 690 Q 368 674 409 681 Q 508 696 609 710 L 643 715 Z"></path>
      </clipPath>
      <path clip-path="url(#make-me-a-hanzi-clip-1)" d="M 325 711 L 353 701 L 413 703 L 598 731 L 728 759 L 774 754" fill="none" id="make-me-a-hanzi-animation-1" stroke-dasharray="584 1168" stroke-linecap="round"></path>
    
      <clipPath id="make-me-a-hanzi-clip-2">
        <path d="M 319 717 Q 303 732 278 744 Q 259 756 245 751 Q 232 744 239 729 Q 260 699 253 616 Q 252 607 251 596 Q 236 415 182 273 Q 137 164 44 28 Q 38 21 36 15 Q 33 3 44 5 Q 78 11 166 137 Q 184 167 203 201 Q 281 361 306 566 Q 315 648 329 690 C 333 706 333 706 319 717 Z"></path>
      </clipPath>
      <path clip-path="url(#make-me-a-hanzi-clip-2)" d="M 251 738 L 280 709 L 290 689 L 268 496 L 237 357 L 202 257 L 164 180 L 117 101 L 45 14" fill="none" id="make-me-a-hanzi-animation-2" stroke-dasharray="925 1850" stroke-linecap="round"></path>
    
      <clipPath id="make-me-a-hanzi-clip-3">
        <path d="M 654 591 Q 705 598 748 604 Q 758 603 765 613 Q 766 623 747 632 Q 720 651 664 633 L 615 621 Q 599 620 583 614 Q 534 604 490 596 L 448 590 Q 408 587 364 581 Q 339 577 358 563 Q 386 544 425 549 Q 438 552 456 555 L 492 563 Q 547 575 611 584 L 654 591 Z"></path>
      </clipPath>
      <path clip-path="url(#make-me-a-hanzi-clip-3)" d="M 359 573 L 381 567 L 428 569 L 692 618 L 717 621 L 756 615" fill="none" id="make-me-a-hanzi-animation-3" stroke-dasharray="531 1062" stroke-linecap="round"></path>
    
      <clipPath id="make-me-a-hanzi-clip-4">
        <path d="M 490 596 Q 489 624 490 637 Q 494 652 484 659 Q 471 666 450 674 Q 434 678 419 668 Q 412 661 423 652 Q 438 637 448 590 L 456 555 Q 471 462 479 448 Q 485 441 491 446 Q 495 453 496 468 L 496 498 Q 495 508 495 516 Q 494 541 492 563 L 490 596 Z"></path>
      </clipPath>
      <path clip-path="url(#make-me-a-hanzi-clip-4)" d="M 426 661 L 442 658 L 464 633 L 486 453" fill="none" id="make-me-a-hanzi-animation-4" stroke-dasharray="359 718" stroke-linecap="round"></path>
    
      <clipPath id="make-me-a-hanzi-clip-5">
        <path d="M 636 519 Q 643 556 654 591 C 663 620 656 616 664 633 Q 664 634 665 634 Q 678 668 682 675 Q 686 682 673 696 Q 657 709 643 715 C 616 728 599 736 609 710 Q 621 685 615 621 L 611 584 Q 607 554 601 521 C 596 491 630 490 636 519 Z"></path>
      </clipPath>
      <path clip-path="url(#make-me-a-hanzi-clip-5)" d="M 615 707 L 639 690 L 648 672 L 622 542 L 607 528" fill="none" id="make-me-a-hanzi-animation-5" stroke-dasharray="331 662" stroke-linecap="round"></path>
    
      <clipPath id="make-me-a-hanzi-clip-6">
        <path d="M 496 468 Q 508 468 520 469 Q 562 476 653 484 Q 663 485 664 493 Q 664 500 636 519 C 633 521 631 521 601 521 Q 597 522 592 520 Q 540 507 496 498 C 467 492 466 468 496 468 Z"></path>
      </clipPath>
      <path clip-path="url(#make-me-a-hanzi-clip-6)" d="M 502 476 L 519 486 L 599 500 L 635 501 L 655 492" fill="none" id="make-me-a-hanzi-animation-6" stroke-dasharray="287 574" stroke-linecap="round"></path>
    
      <clipPath id="make-me-a-hanzi-clip-7">
        <path d="M 551 401 Q 575 413 774 420 Q 903 420 910 429 Q 910 430 911 430 Q 917 440 900 454 Q 849 491 813 483 Q 669 450 308 402 Q 287 399 303 383 Q 316 370 334 365 Q 355 361 370 364 Q 437 385 514 396 L 551 401 Z"></path>
      </clipPath>
      <path clip-path="url(#make-me-a-hanzi-clip-7)" d="M 306 392 L 354 385 L 576 425 L 823 452 L 864 448 L 904 436" fill="none" id="make-me-a-hanzi-animation-7" stroke-dasharray="734 1468" stroke-linecap="round"></path>
    
      <clipPath id="make-me-a-hanzi-clip-8">
        <path d="M 370 315 Q 355 322 339 324 Q 332 325 328 320 Q 322 314 332 305 Q 359 275 376 193 Q 382 141 420 115 Q 421 115 423 114 Q 433 113 437 124 L 437 149 Q 433 174 422 202 Q 413 247 408 282 Q 408 285 407 287 C 405 300 398 303 370 315 Z"></path>
      </clipPath>
      <path clip-path="url(#make-me-a-hanzi-clip-8)" d="M 336 314 L 351 307 L 382 272 L 402 187 L 425 125" fill="none" id="make-me-a-hanzi-animation-8" stroke-dasharray="345 690" stroke-linecap="round"></path>
    
      <clipPath id="make-me-a-hanzi-clip-9">
        <path d="M 658 147 Q 673 122 688 113 Q 698 106 714 126 Q 727 144 757 246 Q 766 276 789 300 Q 802 312 792 326 Q 777 342 736 369 Q 717 379 650 362 Q 620 359 575 350 L 525 341 Q 503 340 481 335 Q 420 323 370 315 C 340 310 378 280 407 287 Q 455 300 526 312 L 573 320 Q 678 338 698 324 Q 708 315 706 300 Q 684 186 666 174 C 653 155 653 155 658 147 Z"></path>
      </clipPath>
      <path clip-path="url(#make-me-a-hanzi-clip-9)" d="M 377 312 L 410 304 L 505 325 L 684 350 L 723 342 L 738 326 L 744 302 L 694 156 L 694 131" fill="none" id="make-me-a-hanzi-animation-9" stroke-dasharray="706 1412" stroke-linecap="round"></path>
    
      <clipPath id="make-me-a-hanzi-clip-10">
        <path d="M 568 232 Q 598 239 624 242 Q 645 246 637 257 Q 627 270 605 273 Q 590 274 570 269 L 526 257 Q 489 247 458 235 Q 443 232 462 219 Q 465 216 526 225 L 568 232 Z"></path>
      </clipPath>
      <path clip-path="url(#make-me-a-hanzi-clip-10)" d="M 459 227 L 591 255 L 628 252" fill="none" id="make-me-a-hanzi-animation-10" stroke-dasharray="300 600" stroke-linecap="round"></path>
    
      <clipPath id="make-me-a-hanzi-clip-11">
        <path d="M 575 350 Q 576 354 576 356 Q 583 372 575 380 Q 562 393 551 401 C 527 419 505 425 514 396 Q 523 369 525 341 L 526 312 Q 526 291 526 257 L 526 225 Q 526 198 526 164 C 526 134 564 141 565 171 Q 566 202 568 232 L 570 269 Q 571 296 573 320 L 575 350 Z"></path>
      </clipPath>
      <path clip-path="url(#make-me-a-hanzi-clip-11)" d="M 521 391 L 550 366 L 547 195 L 531 172" fill="none" id="make-me-a-hanzi-animation-11" stroke-dasharray="365 730" stroke-linecap="round"></path>
    
      <clipPath id="make-me-a-hanzi-clip-12">
        <path d="M 437 124 Q 444 123 454 124 Q 569 140 658 147 C 688 149 692 160 666 174 Q 660 178 652 180 Q 633 184 565 171 L 526 164 Q 480 157 437 149 C 407 144 407 126 437 124 Z"></path>
      </clipPath>
      <path clip-path="url(#make-me-a-hanzi-clip-12)" d="M 441 130 L 476 142 L 645 163 L 656 170" fill="none" id="make-me-a-hanzi-animation-12" stroke-dasharray="348 696" stroke-linecap="round"></path>
    
      <clipPath id="make-me-a-hanzi-clip-13">
        <path d="M 412 88 Q 394 31 266 -60 Q 244 -73 271 -72 Q 331 -76 441 12 Q 469 34 482 45 Q 494 55 492 66 Q 491 79 465 90 Q 437 103 424 102 Q 417 101 412 88 Z"></path>
      </clipPath>
      <path clip-path="url(#make-me-a-hanzi-clip-13)" d="M 473 63 L 441 60 L 414 28 L 368 -11 L 317 -46 L 276 -63" fill="none" id="make-me-a-hanzi-animation-13" stroke-dasharray="369 738" stroke-linecap="round"></path>
    
      <clipPath id="make-me-a-hanzi-clip-14">
        <path d="M 653 71 Q 699 25 755 -43 Q 771 -65 788 -70 Q 797 -71 805 -61 Q 818 -48 807 -1 Q 803 24 785 42 Q 767 55 727 74 Q 681 95 655 104 Q 645 110 643 97 Q 642 82 653 71 Z"></path>
      </clipPath>
      <path clip-path="url(#make-me-a-hanzi-clip-14)" d="M 654 91 L 760 12 L 789 -53" fill="none" id="make-me-a-hanzi-animation-14" stroke-dasharray="331 662" stroke-linecap="round"></path>
    
  </g>
</svg>