<svg version="1.1" viewBox="0 0 1024 1024" xmlns="http://www.w3.org/2000/svg">
  <g stroke="lightgray" stroke-dasharray="1,1" stroke-width="1" transform="scale(4, 4)">
    <line x1="0" y1="0" x2="256" y2="256"></line>
    <line x1="256" y1="0" x2="0" y2="256"></line>
    <line x1="128" y1="0" x2="128" y2="256"></line>
    <line x1="0" y1="128" x2="256" y2="128"></line>
  </g>
  <g transform="scale(1, -1) translate(0, -900)">
    <style type="text/css">
      
        @keyframes keyframes0 {
          from {
            stroke: blue;
            stroke-dashoffset: 805;
            stroke-width: 128;
          }
          72% {
            animation-timing-function: step-end;
            stroke: blue;
            stroke-dashoffset: 0;
            stroke-width: 128;
          }
          to {
            stroke: black;
            stroke-width: 1024;
          }
        }
        #make-me-a-hanzi-animation-0 {
          animation: keyframes0 0.9051106770833334s both;
          animation-delay: 0s;
          animation-timing-function: linear;
        }
      
        @keyframes keyframes1 {
          from {
            stroke: blue;
            stroke-dashoffset: 688;
            stroke-width: 128;
          }
          69% {
            animation-timing-function: step-end;
            stroke: blue;
            stroke-dashoffset: 0;
            stroke-width: 128;
          }
          to {
            stroke: black;
            stroke-width: 1024;
          }
        }
        #make-me-a-hanzi-animation-1 {
          animation: keyframes1 0.8098958333333334s both;
          animation-delay: 0.9051106770833334s;
          animation-timing-function: linear;
        }
      
        @keyframes keyframes2 {
          from {
            stroke: blue;
            stroke-dashoffset: 1384;
            stroke-width: 128;
          }
          82% {
            animation-timing-function: step-end;
            stroke: blue;
            stroke-dashoffset: 0;
            stroke-width: 128;
          }
          to {
            stroke: black;
            stroke-width: 1024;
          }
        }
        #make-me-a-hanzi-animation-2 {
          animation: keyframes2 1.3763020833333333s both;
          animation-delay: 1.7150065104166667s;
          animation-timing-function: linear;
        }
      
        @keyframes keyframes3 {
          from {
            stroke: blue;
            stroke-dashoffset: 1089;
            stroke-width: 128;
          }
          78% {
            animation-timing-function: step-end;
            stroke: blue;
            stroke-dashoffset: 0;
            stroke-width: 128;
          }
          to {
            stroke: black;
            stroke-width: 1024;
          }
        }
        #make-me-a-hanzi-animation-3 {
          animation: keyframes3 1.13623046875s both;
          animation-delay: 3.09130859375s;
          animation-timing-function: linear;
        }
      
        @keyframes keyframes4 {
          from {
            stroke: blue;
            stroke-dashoffset: 1133;
            stroke-width: 128;
          }
          79% {
            animation-timing-function: step-end;
            stroke: blue;
            stroke-dashoffset: 0;
            stroke-width: 128;
          }
          to {
            stroke: black;
            stroke-width: 1024;
          }
        }
        #make-me-a-hanzi-animation-4 {
          animation: keyframes4 1.1720377604166667s both;
          animation-delay: 4.2275390625s;
          animation-timing-function: linear;
        }
      
    </style>
    
      <path d="M 713 552 Q 744 622 764 636 Q 783 658 757 674 Q 733 693 707 707 Q 692 717 670 708 Q 642 698 598 687 L 552 679 Q 501 670 449 657 L 399 646 Q 347 636 310 632 Q 297 632 295 624 Q 294 617 315 606 Q 334 593 364 602 Q 383 609 401 613 L 448 625 Q 469 634 552 644 L 597 651 Q 625 655 660 660 Q 675 661 679 655 Q 688 646 662 551 C 654 522 701 525 713 552 Z" fill="lightgray"></path>
    
      <path d="M 595 493 Q 656 503 735 511 Q 747 512 748 522 Q 749 531 716 552 Q 715 553 713 552 L 662 551 Q 628 544 596 534 L 550 524 Q 495 512 443 501 L 400 493 Q 351 486 309 479 C 279 474 295 433 323 443 Q 326 447 399 460 L 442 468 Q 488 478 549 486 L 595 493 Z" fill="lightgray"></path>
    
      <path d="M 595 350 Q 724 377 764 369 Q 779 369 785 356 Q 792 341 759 221 Q 755 205 739 207 Q 706 214 666 225 Q 636 234 658 207 Q 719 152 732 123 Q 739 108 754 111 Q 769 110 785 125 Q 812 156 828 214 Q 843 299 875 334 Q 893 356 879 370 Q 851 395 812 418 Q 796 428 775 422 Q 726 407 623 390 Q 608 389 595 384 L 546 376 Q 485 366 436 354 L 388 343 Q 357 337 333 330 Q 305 323 291 323 Q 284 324 284 338 Q 303 414 318 434 Q 321 438 323 443 C 332 461 332 461 309 479 Q 296 492 278 503 Q 266 512 255 504 Q 246 500 254 479 Q 264 451 251 412 Q 227 343 206 318 Q 193 302 204 283 Q 214 255 227 247 Q 237 241 264 259 Q 294 286 383 310 L 432 321 Q 477 331 544 341 L 595 350 Z" fill="lightgray"></path>
    
      <path d="M 449 657 Q 450 682 468 727 Q 475 740 464 751 Q 442 769 405 778 Q 381 784 373 778 Q 364 771 372 759 Q 399 719 399 646 L 401 613 Q 402 553 400 493 L 399 460 Q 398 438 396 415 Q 393 381 388 343 L 383 310 Q 365 148 237 27 Q 227 18 228 14 Q 229 10 240 12 Q 253 8 283 27 Q 403 85 432 321 L 436 354 Q 439 394 441 437 Q 441 453 442 468 L 443 501 Q 444 565 448 625 L 449 657 Z" fill="lightgray"></path>
    
      <path d="M 541 -2 Q 547 -27 554 -37 Q 560 -44 567 -42 Q 582 -32 589 27 Q 599 133 597 238 Q 596 274 595 350 L 595 384 Q 595 433 595 493 L 596 534 Q 596 589 597 651 L 598 687 Q 598 714 613 785 Q 616 804 602 813 Q 568 835 553 838 Q 540 842 524 834 Q 515 825 522 815 Q 556 752 552 679 L 552 644 Q 551 589 550 524 L 549 486 Q 548 434 546 376 L 544 341 Q 535 73 541 -2 Z" fill="lightgray"></path>
    
    
      <clipPath id="make-me-a-hanzi-clip-0">
        <path d="M 713 552 Q 744 622 764 636 Q 783 658 757 674 Q 733 693 707 707 Q 692 717 670 708 Q 642 698 598 687 L 552 679 Q 501 670 449 657 L 399 646 Q 347 636 310 632 Q 297 632 295 624 Q 294 617 315 606 Q 334 593 364 602 Q 383 609 401 613 L 448 625 Q 469 634 552 644 L 597 651 Q 625 655 660 660 Q 675 661 679 655 Q 688 646 662 551 C 654 522 701 525 713 552 Z"></path>
      </clipPath>
      <path clip-path="url(#make-me-a-hanzi-clip-0)" d="M 302 623 L 353 618 L 489 652 L 684 684 L 699 678 L 721 649 L 696 578 L 668 563" fill="none" id="make-me-a-hanzi-animation-0" stroke-dasharray="677 1354" stroke-linecap="round"></path>
    
      <clipPath id="make-me-a-hanzi-clip-1">
        <path d="M 595 493 Q 656 503 735 511 Q 747 512 748 522 Q 749 531 716 552 Q 715 553 713 552 L 662 551 Q 628 544 596 534 L 550 524 Q 495 512 443 501 L 400 493 Q 351 486 309 479 C 279 474 295 433 323 443 Q 326 447 399 460 L 442 468 Q 488 478 549 486 L 595 493 Z"></path>
      </clipPath>
      <path clip-path="url(#make-me-a-hanzi-clip-1)" d="M 322 450 L 333 466 L 383 471 L 634 522 L 715 531 L 738 522" fill="none" id="make-me-a-hanzi-animation-1" stroke-dasharray="560 1120" stroke-linecap="round"></path>
    
      <clipPath id="make-me-a-hanzi-clip-2">
        <path d="M 595 350 Q 724 377 764 369 Q 779 369 785 356 Q 792 341 759 221 Q 755 205 739 207 Q 706 214 666 225 Q 636 234 658 207 Q 719 152 732 123 Q 739 108 754 111 Q 769 110 785 125 Q 812 156 828 214 Q 843 299 875 334 Q 893 356 879 370 Q 851 395 812 418 Q 796 428 775 422 Q 726 407 623 390 Q 608 389 595 384 L 546 376 Q 485 366 436 354 L 388 343 Q 357 337 333 330 Q 305 323 291 323 Q 284 324 284 338 Q 303 414 318 434 Q 321 438 323 443 C 332 461 332 461 309 479 Q 296 492 278 503 Q 266 512 255 504 Q 246 500 254 479 Q 264 451 251 412 Q 227 343 206 318 Q 193 302 204 283 Q 214 255 227 247 Q 237 241 264 259 Q 294 286 383 310 L 432 321 Q 477 331 544 341 L 595 350 Z"></path>
      </clipPath>
      <path clip-path="url(#make-me-a-hanzi-clip-2)" d="M 265 493 L 286 463 L 289 446 L 254 342 L 249 310 L 253 302 L 287 300 L 459 343 L 691 386 L 787 394 L 812 378 L 831 351 L 793 216 L 775 179 L 759 165 L 658 218" fill="none" id="make-me-a-hanzi-animation-2" stroke-dasharray="1256 2512" stroke-linecap="round"></path>
    
      <clipPath id="make-me-a-hanzi-clip-3">
        <path d="M 449 657 Q 450 682 468 727 Q 475 740 464 751 Q 442 769 405 778 Q 381 784 373 778 Q 364 771 372 759 Q 399 719 399 646 L 401 613 Q 402 553 400 493 L 399 460 Q 398 438 396 415 Q 393 381 388 343 L 383 310 Q 365 148 237 27 Q 227 18 228 14 Q 229 10 240 12 Q 253 8 283 27 Q 403 85 432 321 L 436 354 Q 439 394 441 437 Q 441 453 442 468 L 443 501 Q 444 565 448 625 L 449 657 Z"></path>
      </clipPath>
      <path clip-path="url(#make-me-a-hanzi-clip-3)" d="M 381 768 L 427 728 L 420 431 L 402 271 L 377 183 L 337 106 L 298 60 L 267 35 L 235 19" fill="none" id="make-me-a-hanzi-animation-3" stroke-dasharray="961 1922" stroke-linecap="round"></path>
    
      <clipPath id="make-me-a-hanzi-clip-4">
        <path d="M 541 -2 Q 547 -27 554 -37 Q 560 -44 567 -42 Q 582 -32 589 27 Q 599 133 597 238 Q 596 274 595 350 L 595 384 Q 595 433 595 493 L 596 534 Q 596 589 597 651 L 598 687 Q 598 714 613 785 Q 616 804 602 813 Q 568 835 553 838 Q 540 842 524 834 Q 515 825 522 815 Q 556 752 552 679 L 552 644 Q 551 589 550 524 L 549 486 Q 548 434 546 376 L 544 341 Q 535 73 541 -2 Z"></path>
      </clipPath>
      <path clip-path="url(#make-me-a-hanzi-clip-4)" d="M 532 824 L 550 814 L 575 786 L 577 763 L 563 -33" fill="none" id="make-me-a-hanzi-animation-4" stroke-dasharray="1005 2010" stroke-linecap="round"></path>
    
  </g>
</svg>