<svg version="1.1" viewBox="0 0 1024 1024" xmlns="http://www.w3.org/2000/svg">
  <g stroke="lightgray" stroke-dasharray="1,1" stroke-width="1" transform="scale(4, 4)">
    <line x1="0" y1="0" x2="256" y2="256"></line>
    <line x1="256" y1="0" x2="0" y2="256"></line>
    <line x1="128" y1="0" x2="128" y2="256"></line>
    <line x1="0" y1="128" x2="256" y2="128"></line>
  </g>
  <g transform="scale(1, -1) translate(0, -900)">
    <style type="text/css">
      
        @keyframes keyframes0 {
          from {
            stroke: blue;
            stroke-dashoffset: 1048;
            stroke-width: 128;
          }
          77% {
            animation-timing-function: step-end;
            stroke: blue;
            stroke-dashoffset: 0;
            stroke-width: 128;
          }
          to {
            stroke: black;
            stroke-width: 1024;
          }
        }
        #make-me-a-hanzi-animation-0 {
          animation: keyframes0 1.1028645833333333s both;
          animation-delay: 0s;
          animation-timing-function: linear;
        }
      
        @keyframes keyframes1 {
          from {
            stroke: blue;
            stroke-dashoffset: 1191;
            stroke-width: 128;
          }
          79% {
            animation-timing-function: step-end;
            stroke: blue;
            stroke-dashoffset: 0;
            stroke-width: 128;
          }
          to {
            stroke: black;
            stroke-width: 1024;
          }
        }
        #make-me-a-hanzi-animation-1 {
          animation: keyframes1 1.21923828125s both;
          animation-delay: 1.1028645833333333s;
          animation-timing-function: linear;
        }
      
        @keyframes keyframes2 {
          from {
            stroke: blue;
            stroke-dashoffset: 346;
            stroke-width: 128;
          }
          53% {
            animation-timing-function: step-end;
            stroke: blue;
            stroke-dashoffset: 0;
            stroke-width: 128;
          }
          to {
            stroke: black;
            stroke-width: 1024;
          }
        }
        #make-me-a-hanzi-animation-2 {
          animation: keyframes2 0.5315755208333334s both;
          animation-delay: 2.322102864583333s;
          animation-timing-function: linear;
        }
      
        @keyframes keyframes3 {
          from {
            stroke: blue;
            stroke-dashoffset: 795;
            stroke-width: 128;
          }
          72% {
            animation-timing-function: step-end;
            stroke: blue;
            stroke-dashoffset: 0;
            stroke-width: 128;
          }
          to {
            stroke: black;
            stroke-width: 1024;
          }
        }
        #make-me-a-hanzi-animation-3 {
          animation: keyframes3 0.89697265625s both;
          animation-delay: 2.8536783854166665s;
          animation-timing-function: linear;
        }
      
        @keyframes keyframes4 {
          from {
            stroke: blue;
            stroke-dashoffset: 613;
            stroke-width: 128;
          }
          67% {
            animation-timing-function: step-end;
            stroke: blue;
            stroke-dashoffset: 0;
            stroke-width: 128;
          }
          to {
            stroke: black;
            stroke-width: 1024;
          }
        }
        #make-me-a-hanzi-animation-4 {
          animation: keyframes4 0.7488606770833334s both;
          animation-delay: 3.7506510416666665s;
          animation-timing-function: linear;
        }
      
        @keyframes keyframes5 {
          from {
            stroke: blue;
            stroke-dashoffset: 624;
            stroke-width: 128;
          }
          67% {
            animation-timing-function: step-end;
            stroke: blue;
            stroke-dashoffset: 0;
            stroke-width: 128;
          }
          to {
            stroke: black;
            stroke-width: 1024;
          }
        }
        #make-me-a-hanzi-animation-5 {
          animation: keyframes5 0.7578125s both;
          animation-delay: 4.49951171875s;
          animation-timing-function: linear;
        }
      
        @keyframes keyframes6 {
          from {
            stroke: blue;
            stroke-dashoffset: 846;
            stroke-width: 128;
          }
          73% {
            animation-timing-function: step-end;
            stroke: blue;
            stroke-dashoffset: 0;
            stroke-width: 128;
          }
          to {
            stroke: black;
            stroke-width: 1024;
          }
        }
        #make-me-a-hanzi-animation-6 {
          animation: keyframes6 0.9384765625s both;
          animation-delay: 5.25732421875s;
          animation-timing-function: linear;
        }
      
    </style>
    
      <path d="M 293 746 Q 250 767 236 763 Q 217 759 233 738 Q 255 702 258 654 Q 265 590 257 456 Q 256 455 256 451 L 251 405 Q 224 225 114 108 Q 93 86 74 67 Q 61 54 58 48 Q 57 41 68 41 Q 84 42 103 57 Q 158 97 191 137 Q 239 195 266 260 Q 290 326 299 416 L 304 459 Q 313 555 311 684 Q 314 709 315 720 C 317 735 317 735 293 746 Z" fill="lightgray"></path>
    
      <path d="M 454 443 Q 451 187 434 161 Q 430 157 412 161 Q 384 168 354 178 Q 335 185 336 176 Q 393 125 424 88 Q 437 69 451 65 Q 460 61 468 70 Q 508 116 507 167 Q 503 285 502 449 L 502 496 Q 498 694 516 726 Q 528 744 516 754 Q 497 772 461 786 Q 445 793 429 786 Q 371 756 293 746 C 263 741 286 714 315 720 Q 367 730 419 743 Q 438 747 443 738 Q 456 699 454 486 L 454 443 Z" fill="lightgray"></path>
    
      <path d="M 342 626 Q 375 551 398 546 Q 410 542 420 556 Q 424 568 420 588 Q 407 624 352 649 Q 345 652 340 642 Q 337 635 342 626 Z" fill="lightgray"></path>
    
      <path d="M 299 416 Q 344 429 454 443 L 502 449 Q 536 453 578 457 Q 596 458 597 467 Q 598 480 580 491 Q 547 509 502 496 L 454 486 Q 364 470 304 459 L 256 451 Q 90 432 60 429 Q 45 428 42 420 Q 38 408 54 396 Q 96 365 141 377 Q 201 393 251 405 L 299 416 Z" fill="lightgray"></path>
    
      <path d="M 758 803 Q 771 764 688 661 Q 651 613 599 561 Q 587 552 584 547 Q 580 537 594 537 Q 657 546 796 701 Q 817 726 834 738 Q 844 748 841 762 Q 840 775 814 801 Q 790 823 772 825 Q 753 825 758 803 Z" fill="lightgray"></path>
    
      <path d="M 778 570 Q 784 548 773 532 Q 739 477 694 428 Q 649 382 592 331 Q 580 324 577 318 Q 573 308 586 308 Q 637 308 796 461 Q 809 483 845 506 Q 855 513 854 527 Q 853 540 831 565 Q 809 587 792 590 Q 774 591 778 570 Z" fill="lightgray"></path>
    
      <path d="M 796 353 Q 799 257 651 107 Q 552 20 455 -50 Q 445 -56 457 -60 Q 517 -60 656 42 Q 758 135 865 267 Q 877 282 885 288 Q 895 294 894 306 Q 890 339 842 360 Q 818 370 805 369 Q 795 368 796 353 Z" fill="lightgray"></path>
    
    
      <clipPath id="make-me-a-hanzi-clip-0">
        <path d="M 293 746 Q 250 767 236 763 Q 217 759 233 738 Q 255 702 258 654 Q 265 590 257 456 Q 256 455 256 451 L 251 405 Q 224 225 114 108 Q 93 86 74 67 Q 61 54 58 48 Q 57 41 68 41 Q 84 42 103 57 Q 158 97 191 137 Q 239 195 266 260 Q 290 326 299 416 L 304 459 Q 313 555 311 684 Q 314 709 315 720 C 317 735 317 735 293 746 Z"></path>
      </clipPath>
      <path clip-path="url(#make-me-a-hanzi-clip-0)" d="M 238 750 L 274 723 L 281 709 L 285 658 L 281 454 L 258 315 L 230 239 L 188 167 L 125 94 L 66 48" fill="none" id="make-me-a-hanzi-animation-0" stroke-dasharray="920 1840" stroke-linecap="round"></path>
    
      <clipPath id="make-me-a-hanzi-clip-1">
        <path d="M 454 443 Q 451 187 434 161 Q 430 157 412 161 Q 384 168 354 178 Q 335 185 336 176 Q 393 125 424 88 Q 437 69 451 65 Q 460 61 468 70 Q 508 116 507 167 Q 503 285 502 449 L 502 496 Q 498 694 516 726 Q 528 744 516 754 Q 497 772 461 786 Q 445 793 429 786 Q 371 756 293 746 C 263 741 286 714 315 720 Q 367 730 419 743 Q 438 747 443 738 Q 456 699 454 486 L 454 443 Z"></path>
      </clipPath>
      <path clip-path="url(#make-me-a-hanzi-clip-1)" d="M 302 746 L 322 736 L 445 766 L 472 749 L 481 736 L 477 243 L 471 155 L 452 122 L 407 138 L 345 173" fill="none" id="make-me-a-hanzi-animation-1" stroke-dasharray="1063 2126" stroke-linecap="round"></path>
    
      <clipPath id="make-me-a-hanzi-clip-2">
        <path d="M 342 626 Q 375 551 398 546 Q 410 542 420 556 Q 424 568 420 588 Q 407 624 352 649 Q 345 652 340 642 Q 337 635 342 626 Z"></path>
      </clipPath>
      <path clip-path="url(#make-me-a-hanzi-clip-2)" d="M 351 637 L 384 599 L 403 564" fill="none" id="make-me-a-hanzi-animation-2" stroke-dasharray="218 436" stroke-linecap="round"></path>
    
      <clipPath id="make-me-a-hanzi-clip-3">
        <path d="M 299 416 Q 344 429 454 443 L 502 449 Q 536 453 578 457 Q 596 458 597 467 Q 598 480 580 491 Q 547 509 502 496 L 454 486 Q 364 470 304 459 L 256 451 Q 90 432 60 429 Q 45 428 42 420 Q 38 408 54 396 Q 96 365 141 377 Q 201 393 251 405 L 299 416 Z"></path>
      </clipPath>
      <path clip-path="url(#make-me-a-hanzi-clip-3)" d="M 54 415 L 118 404 L 501 473 L 542 478 L 585 470" fill="none" id="make-me-a-hanzi-animation-3" stroke-dasharray="667 1334" stroke-linecap="round"></path>
    
      <clipPath id="make-me-a-hanzi-clip-4">
        <path d="M 758 803 Q 771 764 688 661 Q 651 613 599 561 Q 587 552 584 547 Q 580 537 594 537 Q 657 546 796 701 Q 817 726 834 738 Q 844 748 841 762 Q 840 775 814 801 Q 790 823 772 825 Q 753 825 758 803 Z"></path>
      </clipPath>
      <path clip-path="url(#make-me-a-hanzi-clip-4)" d="M 770 811 L 784 795 L 796 760 L 776 729 L 724 662 L 663 598 L 592 545" fill="none" id="make-me-a-hanzi-animation-4" stroke-dasharray="485 970" stroke-linecap="round"></path>
    
      <clipPath id="make-me-a-hanzi-clip-5">
        <path d="M 778 570 Q 784 548 773 532 Q 739 477 694 428 Q 649 382 592 331 Q 580 324 577 318 Q 573 308 586 308 Q 637 308 796 461 Q 809 483 845 506 Q 855 513 854 527 Q 853 540 831 565 Q 809 587 792 590 Q 774 591 778 570 Z"></path>
      </clipPath>
      <path clip-path="url(#make-me-a-hanzi-clip-5)" d="M 790 577 L 807 552 L 813 529 L 721 421 L 632 344 L 585 316" fill="none" id="make-me-a-hanzi-animation-5" stroke-dasharray="496 992" stroke-linecap="round"></path>
    
      <clipPath id="make-me-a-hanzi-clip-6">
        <path d="M 796 353 Q 799 257 651 107 Q 552 20 455 -50 Q 445 -56 457 -60 Q 517 -60 656 42 Q 758 135 865 267 Q 877 282 885 288 Q 895 294 894 306 Q 890 339 842 360 Q 818 370 805 369 Q 795 368 796 353 Z"></path>
      </clipPath>
      <path clip-path="url(#make-me-a-hanzi-clip-6)" d="M 807 357 L 839 309 L 802 244 L 744 169 L 632 55 L 533 -15 L 461 -54" fill="none" id="make-me-a-hanzi-animation-6" stroke-dasharray="718 1436" stroke-linecap="round"></path>
    
  </g>
</svg>