<svg version="1.1" viewBox="0 0 1024 1024" xmlns="http://www.w3.org/2000/svg">
  <g stroke="lightgray" stroke-dasharray="1,1" stroke-width="1" transform="scale(4, 4)">
    <line x1="0" y1="0" x2="256" y2="256"></line>
    <line x1="256" y1="0" x2="0" y2="256"></line>
    <line x1="128" y1="0" x2="128" y2="256"></line>
    <line x1="0" y1="128" x2="256" y2="128"></line>
  </g>
  <g transform="scale(1, -1) translate(0, -900)">
    <style type="text/css">
      
        @keyframes keyframes0 {
          from {
            stroke: blue;
            stroke-dashoffset: 375;
            stroke-width: 128;
          }
          55% {
            animation-timing-function: step-end;
            stroke: blue;
            stroke-dashoffset: 0;
            stroke-width: 128;
          }
          to {
            stroke: black;
            stroke-width: 1024;
          }
        }
        #make-me-a-hanzi-animation-0 {
          animation: keyframes0 0.55517578125s both;
          animation-delay: 0s;
          animation-timing-function: linear;
        }
      
        @keyframes keyframes1 {
          from {
            stroke: blue;
            stroke-dashoffset: 730;
            stroke-width: 128;
          }
          70% {
            animation-timing-function: step-end;
            stroke: blue;
            stroke-dashoffset: 0;
            stroke-width: 128;
          }
          to {
            stroke: black;
            stroke-width: 1024;
          }
        }
        #make-me-a-hanzi-animation-1 {
          animation: keyframes1 0.8440755208333334s both;
          animation-delay: 0.55517578125s;
          animation-timing-function: linear;
        }
      
        @keyframes keyframes2 {
          from {
            stroke: blue;
            stroke-dashoffset: 1047;
            stroke-width: 128;
          }
          77% {
            animation-timing-function: step-end;
            stroke: blue;
            stroke-dashoffset: 0;
            stroke-width: 128;
          }
          to {
            stroke: black;
            stroke-width: 1024;
          }
        }
        #make-me-a-hanzi-animation-2 {
          animation: keyframes2 1.10205078125s both;
          animation-delay: 1.3992513020833335s;
          animation-timing-function: linear;
        }
      
        @keyframes keyframes3 {
          from {
            stroke: blue;
            stroke-dashoffset: 518;
            stroke-width: 128;
          }
          63% {
            animation-timing-function: step-end;
            stroke: blue;
            stroke-dashoffset: 0;
            stroke-width: 128;
          }
          to {
            stroke: black;
            stroke-width: 1024;
          }
        }
        #make-me-a-hanzi-animation-3 {
          animation: keyframes3 0.6715494791666666s both;
          animation-delay: 2.5013020833333335s;
          animation-timing-function: linear;
        }
      
        @keyframes keyframes4 {
          from {
            stroke: blue;
            stroke-dashoffset: 529;
            stroke-width: 128;
          }
          63% {
            animation-timing-function: step-end;
            stroke: blue;
            stroke-dashoffset: 0;
            stroke-width: 128;
          }
          to {
            stroke: black;
            stroke-width: 1024;
          }
        }
        #make-me-a-hanzi-animation-4 {
          animation: keyframes4 0.6805013020833334s both;
          animation-delay: 3.1728515625s;
          animation-timing-function: linear;
        }
      
        @keyframes keyframes5 {
          from {
            stroke: blue;
            stroke-dashoffset: 471;
            stroke-width: 128;
          }
          61% {
            animation-timing-function: step-end;
            stroke: blue;
            stroke-dashoffset: 0;
            stroke-width: 128;
          }
          to {
            stroke: black;
            stroke-width: 1024;
          }
        }
        #make-me-a-hanzi-animation-5 {
          animation: keyframes5 0.63330078125s both;
          animation-delay: 3.8533528645833335s;
          animation-timing-function: linear;
        }
      
        @keyframes keyframes6 {
          from {
            stroke: blue;
            stroke-dashoffset: 536;
            stroke-width: 128;
          }
          64% {
            animation-timing-function: step-end;
            stroke: blue;
            stroke-dashoffset: 0;
            stroke-width: 128;
          }
          to {
            stroke: black;
            stroke-width: 1024;
          }
        }
        #make-me-a-hanzi-animation-6 {
          animation: keyframes6 0.6861979166666666s both;
          animation-delay: 4.486653645833334s;
          animation-timing-function: linear;
        }
      
        @keyframes keyframes7 {
          from {
            stroke: blue;
            stroke-dashoffset: 326;
            stroke-width: 128;
          }
          51% {
            animation-timing-function: step-end;
            stroke: blue;
            stroke-dashoffset: 0;
            stroke-width: 128;
          }
          to {
            stroke: black;
            stroke-width: 1024;
          }
        }
        #make-me-a-hanzi-animation-7 {
          animation: keyframes7 0.5152994791666666s both;
          animation-delay: 5.172851562500001s;
          animation-timing-function: linear;
        }
      
        @keyframes keyframes8 {
          from {
            stroke: blue;
            stroke-dashoffset: 483;
            stroke-width: 128;
          }
          61% {
            animation-timing-function: step-end;
            stroke: blue;
            stroke-dashoffset: 0;
            stroke-width: 128;
          }
          to {
            stroke: black;
            stroke-width: 1024;
          }
        }
        #make-me-a-hanzi-animation-8 {
          animation: keyframes8 0.64306640625s both;
          animation-delay: 5.688151041666668s;
          animation-timing-function: linear;
        }
      
        @keyframes keyframes9 {
          from {
            stroke: blue;
            stroke-dashoffset: 445;
            stroke-width: 128;
          }
          59% {
            animation-timing-function: step-end;
            stroke: blue;
            stroke-dashoffset: 0;
            stroke-width: 128;
          }
          to {
            stroke: black;
            stroke-width: 1024;
          }
        }
        #make-me-a-hanzi-animation-9 {
          animation: keyframes9 0.6121419270833334s both;
          animation-delay: 6.331217447916668s;
          animation-timing-function: linear;
        }
      
        @keyframes keyframes10 {
          from {
            stroke: blue;
            stroke-dashoffset: 459;
            stroke-width: 128;
          }
          60% {
            animation-timing-function: step-end;
            stroke: blue;
            stroke-dashoffset: 0;
            stroke-width: 128;
          }
          to {
            stroke: black;
            stroke-width: 1024;
          }
        }
        #make-me-a-hanzi-animation-10 {
          animation: keyframes10 0.62353515625s both;
          animation-delay: 6.943359375000001s;
          animation-timing-function: linear;
        }
      
        @keyframes keyframes11 {
          from {
            stroke: blue;
            stroke-dashoffset: 483;
            stroke-width: 128;
          }
          61% {
            animation-timing-function: step-end;
            stroke: blue;
            stroke-dashoffset: 0;
            stroke-width: 128;
          }
          to {
            stroke: black;
            stroke-width: 1024;
          }
        }
        #make-me-a-hanzi-animation-11 {
          animation: keyframes11 0.64306640625s both;
          animation-delay: 7.566894531250001s;
          animation-timing-function: linear;
        }
      
        @keyframes keyframes12 {
          from {
            stroke: blue;
            stroke-dashoffset: 577;
            stroke-width: 128;
          }
          65% {
            animation-timing-function: step-end;
            stroke: blue;
            stroke-dashoffset: 0;
            stroke-width: 128;
          }
          to {
            stroke: black;
            stroke-width: 1024;
          }
        }
        #make-me-a-hanzi-animation-12 {
          animation: keyframes12 0.7195638020833334s both;
          animation-delay: 8.2099609375s;
          animation-timing-function: linear;
        }
      
        @keyframes keyframes13 {
          from {
            stroke: blue;
            stroke-dashoffset: 421;
            stroke-width: 128;
          }
          58% {
            animation-timing-function: step-end;
            stroke: blue;
            stroke-dashoffset: 0;
            stroke-width: 128;
          }
          to {
            stroke: black;
            stroke-width: 1024;
          }
        }
        #make-me-a-hanzi-animation-13 {
          animation: keyframes13 0.5926106770833334s both;
          animation-delay: 8.929524739583334s;
          animation-timing-function: linear;
        }
      
        @keyframes keyframes14 {
          from {
            stroke: blue;
            stroke-dashoffset: 862;
            stroke-width: 128;
          }
          74% {
            animation-timing-function: step-end;
            stroke: blue;
            stroke-dashoffset: 0;
            stroke-width: 128;
          }
          to {
            stroke: black;
            stroke-width: 1024;
          }
        }
        #make-me-a-hanzi-animation-14 {
          animation: keyframes14 0.9514973958333334s both;
          animation-delay: 9.522135416666668s;
          animation-timing-function: linear;
        }
      
        @keyframes keyframes15 {
          from {
            stroke: blue;
            stroke-dashoffset: 371;
            stroke-width: 128;
          }
          55% {
            animation-timing-function: step-end;
            stroke: blue;
            stroke-dashoffset: 0;
            stroke-width: 128;
          }
          to {
            stroke: black;
            stroke-width: 1024;
          }
        }
        #make-me-a-hanzi-animation-15 {
          animation: keyframes15 0.5519205729166666s both;
          animation-delay: 10.473632812500002s;
          animation-timing-function: linear;
        }
      
        @keyframes keyframes16 {
          from {
            stroke: blue;
            stroke-dashoffset: 415;
            stroke-width: 128;
          }
          57% {
            animation-timing-function: step-end;
            stroke: blue;
            stroke-dashoffset: 0;
            stroke-width: 128;
          }
          to {
            stroke: black;
            stroke-width: 1024;
          }
        }
        #make-me-a-hanzi-animation-16 {
          animation: keyframes16 0.5877278645833334s both;
          animation-delay: 11.025553385416668s;
          animation-timing-function: linear;
        }
      
    </style>
    
      <path d="M 497 811 Q 516 796 538 777 Q 554 765 570 768 Q 580 769 585 784 Q 588 800 575 830 Q 565 852 487 861 Q 471 862 464 859 Q 460 855 462 841 Q 466 831 497 811 Z" fill="lightgray"></path>
    
      <path d="M 326 667 Q 377 658 403 661 Q 781 721 793 731 Q 803 738 798 748 Q 792 761 762 769 Q 732 776 701 767 Q 619 742 529 724 Q 430 706 316 701 C 286 700 296 672 326 667 Z" fill="lightgray"></path>
    
      <path d="M 316 701 Q 301 714 279 723 Q 260 735 246 730 Q 234 723 241 708 Q 262 678 258 616 Q 240 379 192 253 Q 150 148 59 7 Q 55 0 52 -6 Q 49 -16 60 -15 Q 96 -6 178 118 Q 196 149 214 183 Q 286 343 308 549 Q 317 630 325 663 Q 326 666 326 667 C 331 691 331 691 316 701 Z" fill="lightgray"></path>
    
      <path d="M 391 489 Q 413 517 441 558 Q 453 580 465 592 Q 471 599 468 608 Q 464 617 445 632 Q 427 644 414 643 Q 401 642 407 627 Q 420 600 369 513 Q 345 473 312 429 Q 305 422 304 418 Q 303 411 311 412 Q 324 415 370 463 L 391 489 Z" fill="lightgray"></path>
    
      <path d="M 370 463 Q 394 415 366 284 Q 351 260 377 214 Q 378 210 383 205 Q 396 193 405 213 Q 415 241 415 276 Q 416 403 421 431 Q 427 450 419 458 Q 395 486 391 489 C 370 510 358 491 370 463 Z" fill="lightgray"></path>
    
      <path d="M 527 525 Q 548 547 572 581 Q 582 597 592 606 Q 599 613 596 623 Q 593 632 573 648 Q 554 661 541 661 Q 528 660 533 644 Q 543 623 505 553 Q 486 522 461 486 Q 454 479 452 474 Q 449 467 459 468 Q 471 471 504 502 L 527 525 Z" fill="lightgray"></path>
    
      <path d="M 550 309 Q 549 441 553 471 Q 559 492 529 523 L 527 525 C 506 547 493 530 504 502 Q 526 456 502 312 Q 487 288 513 242 Q 514 238 519 233 Q 532 221 541 241 Q 548 266 550 294 L 550 309 Z" fill="lightgray"></path>
    
      <path d="M 666 662 Q 708 620 732 623 Q 744 623 746 640 Q 746 652 734 668 Q 712 690 666 685 Q 659 686 659 675 Q 659 668 666 662 Z" fill="lightgray"></path>
    
      <path d="M 693 548 Q 735 561 782 571 Q 812 580 816 584 Q 822 591 818 596 Q 814 603 793 608 Q 771 611 751 602 Q 717 589 681 577 Q 641 565 592 558 Q 567 554 586 542 Q 614 527 654 538 Q 655 539 658 539 L 693 548 Z" fill="lightgray"></path>
    
      <path d="M 715 469 Q 740 476 769 483 Q 793 489 796 492 Q 802 498 798 504 Q 794 511 773 516 Q 746 519 716 504 L 669 489 Q 641 483 608 478 Q 583 474 601 462 Q 632 447 670 458 L 715 469 Z" fill="lightgray"></path>
    
      <path d="M 712 384 Q 743 393 777 399 Q 802 405 807 408 Q 814 414 810 420 Q 806 427 785 433 Q 769 436 713 418 L 671 407 Q 640 403 605 398 Q 580 394 598 382 Q 626 366 666 375 Q 667 376 672 376 L 712 384 Z" fill="lightgray"></path>
    
      <path d="M 711 326 Q 711 357 712 384 L 713 418 Q 713 445 715 469 C 717 499 714 498 716 504 Q 717 505 717 507 Q 723 522 715 530 Q 703 540 693 548 C 670 567 644 566 658 539 Q 667 526 669 489 L 670 458 Q 670 439 671 407 L 672 376 Q 672 352 673 320 C 674 290 711 296 711 326 Z" fill="lightgray"></path>
    
      <path d="M 673 320 Q 652 320 553 311 Q 550 311 550 309 C 534 305 534 305 550 294 Q 580 273 599 277 Q 665 289 868 311 Q 877 310 884 319 Q 885 329 868 338 Q 840 356 761 336 Q 733 335 711 326 L 673 320 Z" fill="lightgray"></path>
    
      <path d="M 297 168 Q 282 113 257 62 Q 242 29 264 -1 Q 273 -17 292 -3 Q 334 45 329 117 Q 329 148 319 171 Q 313 178 308 179 Q 301 176 297 168 Z" fill="lightgray"></path>
    
      <path d="M 414 150 Q 441 45 524 -3 Q 629 -60 819 -34 Q 861 -27 893 -10 Q 918 3 919 19 Q 920 28 884 45 Q 826 81 780 120 Q 764 136 760 128 Q 757 121 764 106 Q 783 51 777 35 Q 770 23 731 20 Q 575 8 507 65 Q 476 89 460 134 Q 451 159 438 163 Q 425 170 416 166 Q 410 163 414 150 Z" fill="lightgray"></path>
    
      <path d="M 588 157 Q 639 114 656 114 Q 666 115 669 128 Q 672 141 662 168 Q 650 192 580 200 Q 565 201 560 199 Q 556 195 558 183 Q 562 173 588 157 Z" fill="lightgray"></path>
    
      <path d="M 814 203 Q 853 178 894 146 Q 907 136 923 138 Q 933 139 937 152 Q 940 167 929 194 Q 914 231 805 248 Q 789 249 784 247 Q 780 243 782 231 Q 786 221 814 203 Z" fill="lightgray"></path>
    
    
      <clipPath id="make-me-a-hanzi-clip-0">
        <path d="M 497 811 Q 516 796 538 777 Q 554 765 570 768 Q 580 769 585 784 Q 588 800 575 830 Q 565 852 487 861 Q 471 862 464 859 Q 460 855 462 841 Q 466 831 497 811 Z"></path>
      </clipPath>
      <path clip-path="url(#make-me-a-hanzi-clip-0)" d="M 470 853 L 542 816 L 566 787" fill="none" id="make-me-a-hanzi-animation-0" stroke-dasharray="247 494" stroke-linecap="round"></path>
    
      <clipPath id="make-me-a-hanzi-clip-1">
        <path d="M 326 667 Q 377 658 403 661 Q 781 721 793 731 Q 803 738 798 748 Q 792 761 762 769 Q 732 776 701 767 Q 619 742 529 724 Q 430 706 316 701 C 286 700 296 672 326 667 Z"></path>
      </clipPath>
      <path clip-path="url(#make-me-a-hanzi-clip-1)" d="M 324 697 L 341 684 L 415 683 L 548 704 L 726 744 L 787 742" fill="none" id="make-me-a-hanzi-animation-1" stroke-dasharray="602 1204" stroke-linecap="round"></path>
    
      <clipPath id="make-me-a-hanzi-clip-2">
        <path d="M 316 701 Q 301 714 279 723 Q 260 735 246 730 Q 234 723 241 708 Q 262 678 258 616 Q 240 379 192 253 Q 150 148 59 7 Q 55 0 52 -6 Q 49 -16 60 -15 Q 96 -6 178 118 Q 196 149 214 183 Q 286 343 308 549 Q 317 630 325 663 Q 326 666 326 667 C 331 691 331 691 316 701 Z"></path>
      </clipPath>
      <path clip-path="url(#make-me-a-hanzi-clip-2)" d="M 253 717 L 287 681 L 290 655 L 267 446 L 240 323 L 207 226 L 154 120 L 92 28 L 60 -7" fill="none" id="make-me-a-hanzi-animation-2" stroke-dasharray="919 1838" stroke-linecap="round"></path>
    
      <clipPath id="make-me-a-hanzi-clip-3">
        <path d="M 391 489 Q 413 517 441 558 Q 453 580 465 592 Q 471 599 468 608 Q 464 617 445 632 Q 427 644 414 643 Q 401 642 407 627 Q 420 600 369 513 Q 345 473 312 429 Q 305 422 304 418 Q 303 411 311 412 Q 324 415 370 463 L 391 489 Z"></path>
      </clipPath>
      <path clip-path="url(#make-me-a-hanzi-clip-3)" d="M 414 634 L 435 609 L 426 576 L 354 462 L 311 420" fill="none" id="make-me-a-hanzi-animation-3" stroke-dasharray="390 780" stroke-linecap="round"></path>
    
      <clipPath id="make-me-a-hanzi-clip-4">
        <path d="M 370 463 Q 394 415 366 284 Q 351 260 377 214 Q 378 210 383 205 Q 396 193 405 213 Q 415 241 415 276 Q 416 403 421 431 Q 427 450 419 458 Q 395 486 391 489 C 370 510 358 491 370 463 Z"></path>
      </clipPath>
      <path clip-path="url(#make-me-a-hanzi-clip-4)" d="M 390 483 L 392 460 L 401 442 L 387 258 L 392 213" fill="none" id="make-me-a-hanzi-animation-4" stroke-dasharray="401 802" stroke-linecap="round"></path>
    
      <clipPath id="make-me-a-hanzi-clip-5">
        <path d="M 527 525 Q 548 547 572 581 Q 582 597 592 606 Q 599 613 596 623 Q 593 632 573 648 Q 554 661 541 661 Q 528 660 533 644 Q 543 623 505 553 Q 486 522 461 486 Q 454 479 452 474 Q 449 467 459 468 Q 471 471 504 502 L 527 525 Z"></path>
      </clipPath>
      <path clip-path="url(#make-me-a-hanzi-clip-5)" d="M 541 650 L 563 618 L 512 532 L 460 476" fill="none" id="make-me-a-hanzi-animation-5" stroke-dasharray="343 686" stroke-linecap="round"></path>
    
      <clipPath id="make-me-a-hanzi-clip-6">
        <path d="M 550 309 Q 549 441 553 471 Q 559 492 529 523 L 527 525 C 506 547 493 530 504 502 Q 526 456 502 312 Q 487 288 513 242 Q 514 238 519 233 Q 532 221 541 241 Q 548 266 550 294 L 550 309 Z"></path>
      </clipPath>
      <path clip-path="url(#make-me-a-hanzi-clip-6)" d="M 524 520 L 533 478 L 523 293 L 528 241" fill="none" id="make-me-a-hanzi-animation-6" stroke-dasharray="408 816" stroke-linecap="round"></path>
    
      <clipPath id="make-me-a-hanzi-clip-7">
        <path d="M 666 662 Q 708 620 732 623 Q 744 623 746 640 Q 746 652 734 668 Q 712 690 666 685 Q 659 686 659 675 Q 659 668 666 662 Z"></path>
      </clipPath>
      <path clip-path="url(#make-me-a-hanzi-clip-7)" d="M 672 674 L 708 657 L 731 638" fill="none" id="make-me-a-hanzi-animation-7" stroke-dasharray="198 396" stroke-linecap="round"></path>
    
      <clipPath id="make-me-a-hanzi-clip-8">
        <path d="M 693 548 Q 735 561 782 571 Q 812 580 816 584 Q 822 591 818 596 Q 814 603 793 608 Q 771 611 751 602 Q 717 589 681 577 Q 641 565 592 558 Q 567 554 586 542 Q 614 527 654 538 Q 655 539 658 539 L 693 548 Z"></path>
      </clipPath>
      <path clip-path="url(#make-me-a-hanzi-clip-8)" d="M 587 551 L 643 550 L 764 587 L 808 592" fill="none" id="make-me-a-hanzi-animation-8" stroke-dasharray="355 710" stroke-linecap="round"></path>
    
      <clipPath id="make-me-a-hanzi-clip-9">
        <path d="M 715 469 Q 740 476 769 483 Q 793 489 796 492 Q 802 498 798 504 Q 794 511 773 516 Q 746 519 716 504 L 669 489 Q 641 483 608 478 Q 583 474 601 462 Q 632 447 670 458 L 715 469 Z"></path>
      </clipPath>
      <path clip-path="url(#make-me-a-hanzi-clip-9)" d="M 603 471 L 659 470 L 755 498 L 788 500" fill="none" id="make-me-a-hanzi-animation-9" stroke-dasharray="317 634" stroke-linecap="round"></path>
    
      <clipPath id="make-me-a-hanzi-clip-10">
        <path d="M 712 384 Q 743 393 777 399 Q 802 405 807 408 Q 814 414 810 420 Q 806 427 785 433 Q 769 436 713 418 L 671 407 Q 640 403 605 398 Q 580 394 598 382 Q 626 366 666 375 Q 667 376 672 376 L 712 384 Z"></path>
      </clipPath>
      <path clip-path="url(#make-me-a-hanzi-clip-10)" d="M 600 391 L 631 386 L 747 412 L 800 416" fill="none" id="make-me-a-hanzi-animation-10" stroke-dasharray="331 662" stroke-linecap="round"></path>
    
      <clipPath id="make-me-a-hanzi-clip-11">
        <path d="M 711 326 Q 711 357 712 384 L 713 418 Q 713 445 715 469 C 717 499 714 498 716 504 Q 717 505 717 507 Q 723 522 715 530 Q 703 540 693 548 C 670 567 644 566 658 539 Q 667 526 669 489 L 670 458 Q 670 439 671 407 L 672 376 Q 672 352 673 320 C 674 290 711 296 711 326 Z"></path>
      </clipPath>
      <path clip-path="url(#make-me-a-hanzi-clip-11)" d="M 665 537 L 688 523 L 692 514 L 692 349 L 678 328" fill="none" id="make-me-a-hanzi-animation-11" stroke-dasharray="355 710" stroke-linecap="round"></path>
    
      <clipPath id="make-me-a-hanzi-clip-12">
        <path d="M 673 320 Q 652 320 553 311 Q 550 311 550 309 C 534 305 534 305 550 294 Q 580 273 599 277 Q 665 289 868 311 Q 877 310 884 319 Q 885 329 868 338 Q 840 356 761 336 Q 733 335 711 326 L 673 320 Z"></path>
      </clipPath>
      <path clip-path="url(#make-me-a-hanzi-clip-12)" d="M 557 302 L 600 296 L 827 327 L 875 321" fill="none" id="make-me-a-hanzi-animation-12" stroke-dasharray="449 898" stroke-linecap="round"></path>
    
      <clipPath id="make-me-a-hanzi-clip-13">
        <path d="M 297 168 Q 282 113 257 62 Q 242 29 264 -1 Q 273 -17 292 -3 Q 334 45 329 117 Q 329 148 319 171 Q 313 178 308 179 Q 301 176 297 168 Z"></path>
      </clipPath>
      <path clip-path="url(#make-me-a-hanzi-clip-13)" d="M 308 168 L 305 107 L 282 37 L 279 7" fill="none" id="make-me-a-hanzi-animation-13" stroke-dasharray="293 586" stroke-linecap="round"></path>
    
      <clipPath id="make-me-a-hanzi-clip-14">
        <path d="M 414 150 Q 441 45 524 -3 Q 629 -60 819 -34 Q 861 -27 893 -10 Q 918 3 919 19 Q 920 28 884 45 Q 826 81 780 120 Q 764 136 760 128 Q 757 121 764 106 Q 783 51 777 35 Q 770 23 731 20 Q 575 8 507 65 Q 476 89 460 134 Q 451 159 438 163 Q 425 170 416 166 Q 410 163 414 150 Z"></path>
      </clipPath>
      <path clip-path="url(#make-me-a-hanzi-clip-14)" d="M 422 158 L 459 89 L 509 35 L 563 7 L 653 -11 L 768 -8 L 804 4 L 827 20 L 810 56 L 765 123" fill="none" id="make-me-a-hanzi-animation-14" stroke-dasharray="734 1468" stroke-linecap="round"></path>
    
      <clipPath id="make-me-a-hanzi-clip-15">
        <path d="M 588 157 Q 639 114 656 114 Q 666 115 669 128 Q 672 141 662 168 Q 650 192 580 200 Q 565 201 560 199 Q 556 195 558 183 Q 562 173 588 157 Z"></path>
      </clipPath>
      <path clip-path="url(#make-me-a-hanzi-clip-15)" d="M 565 193 L 637 155 L 655 127" fill="none" id="make-me-a-hanzi-animation-15" stroke-dasharray="243 486" stroke-linecap="round"></path>
    
      <clipPath id="make-me-a-hanzi-clip-16">
        <path d="M 814 203 Q 853 178 894 146 Q 907 136 923 138 Q 933 139 937 152 Q 940 167 929 194 Q 914 231 805 248 Q 789 249 784 247 Q 780 243 782 231 Q 786 221 814 203 Z"></path>
      </clipPath>
      <path clip-path="url(#make-me-a-hanzi-clip-16)" d="M 789 241 L 878 198 L 920 155" fill="none" id="make-me-a-hanzi-animation-16" stroke-dasharray="287 574" stroke-linecap="round"></path>
    
  </g>
</svg>