<svg version="1.1" viewBox="0 0 1024 1024" xmlns="http://www.w3.org/2000/svg">
  <g stroke="lightgray" stroke-dasharray="1,1" stroke-width="1" transform="scale(4, 4)">
    <line x1="0" y1="0" x2="256" y2="256"></line>
    <line x1="256" y1="0" x2="0" y2="256"></line>
    <line x1="128" y1="0" x2="128" y2="256"></line>
    <line x1="0" y1="128" x2="256" y2="128"></line>
  </g>
  <g transform="scale(1, -1) translate(0, -900)">
    <style type="text/css">
      
        @keyframes keyframes0 {
          from {
            stroke: blue;
            stroke-dashoffset: 684;
            stroke-width: 128;
          }
          69% {
            animation-timing-function: step-end;
            stroke: blue;
            stroke-dashoffset: 0;
            stroke-width: 128;
          }
          to {
            stroke: black;
            stroke-width: 1024;
          }
        }
        #make-me-a-hanzi-animation-0 {
          animation: keyframes0 0.806640625s both;
          animation-delay: 0s;
          animation-timing-function: linear;
        }
      
        @keyframes keyframes1 {
          from {
            stroke: blue;
            stroke-dashoffset: 1427;
            stroke-width: 128;
          }
          82% {
            animation-timing-function: step-end;
            stroke: blue;
            stroke-dashoffset: 0;
            stroke-width: 128;
          }
          to {
            stroke: black;
            stroke-width: 1024;
          }
        }
        #make-me-a-hanzi-animation-1 {
          animation: keyframes1 1.4112955729166667s both;
          animation-delay: 0.806640625s;
          animation-timing-function: linear;
        }
      
        @keyframes keyframes2 {
          from {
            stroke: blue;
            stroke-dashoffset: 893;
            stroke-width: 128;
          }
          74% {
            animation-timing-function: step-end;
            stroke: blue;
            stroke-dashoffset: 0;
            stroke-width: 128;
          }
          to {
            stroke: black;
            stroke-width: 1024;
          }
        }
        #make-me-a-hanzi-animation-2 {
          animation: keyframes2 0.9767252604166666s both;
          animation-delay: 2.217936197916667s;
          animation-timing-function: linear;
        }
      
        @keyframes keyframes3 {
          from {
            stroke: blue;
            stroke-dashoffset: 425;
            stroke-width: 128;
          }
          58% {
            animation-timing-function: step-end;
            stroke: blue;
            stroke-dashoffset: 0;
            stroke-width: 128;
          }
          to {
            stroke: black;
            stroke-width: 1024;
          }
        }
        #make-me-a-hanzi-animation-3 {
          animation: keyframes3 0.5958658854166666s both;
          animation-delay: 3.1946614583333335s;
          animation-timing-function: linear;
        }
      
    </style>
    
      <path d="M 475 506 Q 595 557 599 560 Q 608 570 602 579 Q 592 592 558 595 Q 515 596 455 559 L 409 537 Q 289 489 193 464 Q 153 451 185 436 Q 236 417 296 440 Q 359 464 427 488 L 475 506 Z" fill="lightgray"></path>
    
      <path d="M 554 225 Q 656 68 774 -1 Q 844 -47 874 -44 Q 896 -37 885 -8 Q 879 47 881 207 Q 880 234 870 235 Q 863 234 856 210 Q 840 161 826 121 Q 813 79 797 78 Q 784 75 752 93 Q 659 157 590 263 L 560 315 Q 520 390 475 506 L 455 559 Q 421 661 416 743 Q 420 789 356 801 Q 314 811 295 798 Q 274 786 289 767 Q 347 733 355 696 Q 383 611 409 537 L 427 488 Q 472 371 525 275 L 554 225 Z" fill="lightgray"></path>
    
      <path d="M 525 275 Q 519 271 514 264 Q 429 174 236 80 Q 226 73 232 68 Q 239 64 253 66 Q 338 82 414 122 Q 480 152 554 225 L 590 263 Q 627 308 669 369 Q 691 399 716 426 Q 726 435 723 447 Q 719 460 689 487 Q 667 506 656 505 Q 640 504 639 487 Q 630 403 560 315 L 525 275 Z" fill="lightgray"></path>
    
      <path d="M 615 733 Q 654 708 695 677 Q 711 664 729 667 Q 741 668 745 684 Q 748 700 734 732 Q 718 768 604 785 Q 586 786 580 783 Q 574 779 578 765 Q 584 753 615 733 Z" fill="lightgray"></path>
    
    
      <clipPath id="make-me-a-hanzi-clip-0">
        <path d="M 475 506 Q 595 557 599 560 Q 608 570 602 579 Q 592 592 558 595 Q 515 596 455 559 L 409 537 Q 289 489 193 464 Q 153 451 185 436 Q 236 417 296 440 Q 359 464 427 488 L 475 506 Z"></path>
      </clipPath>
      <path clip-path="url(#make-me-a-hanzi-clip-0)" d="M 186 451 L 211 448 L 265 457 L 424 515 L 532 563 L 565 571 L 592 570" fill="none" id="make-me-a-hanzi-animation-0" stroke-dasharray="556 1112" stroke-linecap="round"></path>
    
      <clipPath id="make-me-a-hanzi-clip-1">
        <path d="M 554 225 Q 656 68 774 -1 Q 844 -47 874 -44 Q 896 -37 885 -8 Q 879 47 881 207 Q 880 234 870 235 Q 863 234 856 210 Q 840 161 826 121 Q 813 79 797 78 Q 784 75 752 93 Q 659 157 590 263 L 560 315 Q 520 390 475 506 L 455 559 Q 421 661 416 743 Q 420 789 356 801 Q 314 811 295 798 Q 274 786 289 767 Q 347 733 355 696 Q 383 611 409 537 L 427 488 Q 472 371 525 275 L 554 225 Z"></path>
      </clipPath>
      <path clip-path="url(#make-me-a-hanzi-clip-1)" d="M 301 781 L 341 772 L 374 750 L 430 552 L 529 319 L 580 231 L 686 105 L 753 53 L 790 37 L 827 31 L 847 81 L 870 228" fill="none" id="make-me-a-hanzi-animation-1" stroke-dasharray="1299 2598" stroke-linecap="round"></path>
    
      <clipPath id="make-me-a-hanzi-clip-2">
        <path d="M 525 275 Q 519 271 514 264 Q 429 174 236 80 Q 226 73 232 68 Q 239 64 253 66 Q 338 82 414 122 Q 480 152 554 225 L 590 263 Q 627 308 669 369 Q 691 399 716 426 Q 726 435 723 447 Q 719 460 689 487 Q 667 506 656 505 Q 640 504 639 487 Q 630 403 560 315 L 525 275 Z"></path>
      </clipPath>
      <path clip-path="url(#make-me-a-hanzi-clip-2)" d="M 656 488 L 671 455 L 671 436 L 606 329 L 516 226 L 454 176 L 383 132 L 302 94 L 238 73" fill="none" id="make-me-a-hanzi-animation-2" stroke-dasharray="765 1530" stroke-linecap="round"></path>
    
      <clipPath id="make-me-a-hanzi-clip-3">
        <path d="M 615 733 Q 654 708 695 677 Q 711 664 729 667 Q 741 668 745 684 Q 748 700 734 732 Q 718 768 604 785 Q 586 786 580 783 Q 574 779 578 765 Q 584 753 615 733 Z"></path>
      </clipPath>
      <path clip-path="url(#make-me-a-hanzi-clip-3)" d="M 586 775 L 690 726 L 726 686" fill="none" id="make-me-a-hanzi-animation-3" stroke-dasharray="297 594" stroke-linecap="round"></path>
    
  </g>
</svg>