<svg version="1.1" viewBox="0 0 1024 1024" xmlns="http://www.w3.org/2000/svg">
  <g stroke="lightgray" stroke-dasharray="1,1" stroke-width="1" transform="scale(4, 4)">
    <line x1="0" y1="0" x2="256" y2="256"></line>
    <line x1="256" y1="0" x2="0" y2="256"></line>
    <line x1="128" y1="0" x2="128" y2="256"></line>
    <line x1="0" y1="128" x2="256" y2="128"></line>
  </g>
  <g transform="scale(1, -1) translate(0, -900)">
    <style type="text/css">
      
        @keyframes keyframes0 {
          from {
            stroke: blue;
            stroke-dashoffset: 756;
            stroke-width: 128;
          }
          71% {
            animation-timing-function: step-end;
            stroke: blue;
            stroke-dashoffset: 0;
            stroke-width: 128;
          }
          to {
            stroke: black;
            stroke-width: 1024;
          }
        }
        #make-me-a-hanzi-animation-0 {
          animation: keyframes0 0.865234375s both;
          animation-delay: 0s;
          animation-timing-function: linear;
        }
      
        @keyframes keyframes1 {
          from {
            stroke: blue;
            stroke-dashoffset: 362;
            stroke-width: 128;
          }
          54% {
            animation-timing-function: step-end;
            stroke: blue;
            stroke-dashoffset: 0;
            stroke-width: 128;
          }
          to {
            stroke: black;
            stroke-width: 1024;
          }
        }
        #make-me-a-hanzi-animation-1 {
          animation: keyframes1 0.5445963541666666s both;
          animation-delay: 0.865234375s;
          animation-timing-function: linear;
        }
      
        @keyframes keyframes2 {
          from {
            stroke: blue;
            stroke-dashoffset: 549;
            stroke-width: 128;
          }
          64% {
            animation-timing-function: step-end;
            stroke: blue;
            stroke-dashoffset: 0;
            stroke-width: 128;
          }
          to {
            stroke: black;
            stroke-width: 1024;
          }
        }
        #make-me-a-hanzi-animation-2 {
          animation: keyframes2 0.69677734375s both;
          animation-delay: 1.4098307291666665s;
          animation-timing-function: linear;
        }
      
        @keyframes keyframes3 {
          from {
            stroke: blue;
            stroke-dashoffset: 784;
            stroke-width: 128;
          }
          72% {
            animation-timing-function: step-end;
            stroke: blue;
            stroke-dashoffset: 0;
            stroke-width: 128;
          }
          to {
            stroke: black;
            stroke-width: 1024;
          }
        }
        #make-me-a-hanzi-animation-3 {
          animation: keyframes3 0.8880208333333334s both;
          animation-delay: 2.1066080729166665s;
          animation-timing-function: linear;
        }
      
        @keyframes keyframes4 {
          from {
            stroke: blue;
            stroke-dashoffset: 418;
            stroke-width: 128;
          }
          58% {
            animation-timing-function: step-end;
            stroke: blue;
            stroke-dashoffset: 0;
            stroke-width: 128;
          }
          to {
            stroke: black;
            stroke-width: 1024;
          }
        }
        #make-me-a-hanzi-animation-4 {
          animation: keyframes4 0.5901692708333334s both;
          animation-delay: 2.99462890625s;
          animation-timing-function: linear;
        }
      
        @keyframes keyframes5 {
          from {
            stroke: blue;
            stroke-dashoffset: 421;
            stroke-width: 128;
          }
          58% {
            animation-timing-function: step-end;
            stroke: blue;
            stroke-dashoffset: 0;
            stroke-width: 128;
          }
          to {
            stroke: black;
            stroke-width: 1024;
          }
        }
        #make-me-a-hanzi-animation-5 {
          animation: keyframes5 0.5926106770833334s both;
          animation-delay: 3.5847981770833335s;
          animation-timing-function: linear;
        }
      
        @keyframes keyframes6 {
          from {
            stroke: blue;
            stroke-dashoffset: 473;
            stroke-width: 128;
          }
          61% {
            animation-timing-function: step-end;
            stroke: blue;
            stroke-dashoffset: 0;
            stroke-width: 128;
          }
          to {
            stroke: black;
            stroke-width: 1024;
          }
        }
        #make-me-a-hanzi-animation-6 {
          animation: keyframes6 0.6349283854166666s both;
          animation-delay: 4.177408854166667s;
          animation-timing-function: linear;
        }
      
        @keyframes keyframes7 {
          from {
            stroke: blue;
            stroke-dashoffset: 734;
            stroke-width: 128;
          }
          70% {
            animation-timing-function: step-end;
            stroke: blue;
            stroke-dashoffset: 0;
            stroke-width: 128;
          }
          to {
            stroke: black;
            stroke-width: 1024;
          }
        }
        #make-me-a-hanzi-animation-7 {
          animation: keyframes7 0.8473307291666666s both;
          animation-delay: 4.812337239583334s;
          animation-timing-function: linear;
        }
      
        @keyframes keyframes8 {
          from {
            stroke: blue;
            stroke-dashoffset: 1012;
            stroke-width: 128;
          }
          77% {
            animation-timing-function: step-end;
            stroke: blue;
            stroke-dashoffset: 0;
            stroke-width: 128;
          }
          to {
            stroke: black;
            stroke-width: 1024;
          }
        }
        #make-me-a-hanzi-animation-8 {
          animation: keyframes8 1.0735677083333333s both;
          animation-delay: 5.659667968750001s;
          animation-timing-function: linear;
        }
      
        @keyframes keyframes9 {
          from {
            stroke: blue;
            stroke-dashoffset: 821;
            stroke-width: 128;
          }
          73% {
            animation-timing-function: step-end;
            stroke: blue;
            stroke-dashoffset: 0;
            stroke-width: 128;
          }
          to {
            stroke: black;
            stroke-width: 1024;
          }
        }
        #make-me-a-hanzi-animation-9 {
          animation: keyframes9 0.9181315104166666s both;
          animation-delay: 6.733235677083334s;
          animation-timing-function: linear;
        }
      
        @keyframes keyframes10 {
          from {
            stroke: blue;
            stroke-dashoffset: 402;
            stroke-width: 128;
          }
          57% {
            animation-timing-function: step-end;
            stroke: blue;
            stroke-dashoffset: 0;
            stroke-width: 128;
          }
          to {
            stroke: black;
            stroke-width: 1024;
          }
        }
        #make-me-a-hanzi-animation-10 {
          animation: keyframes10 0.5771484375s both;
          animation-delay: 7.651367187500001s;
          animation-timing-function: linear;
        }
      
    </style>
    
      <path d="M 495 759 Q 561 768 746 782 Q 756 781 767 793 Q 768 805 746 817 Q 706 841 637 823 Q 474 799 313 785 Q 289 785 266 782 Q 236 781 258 760 Q 283 739 328 737 Q 380 746 444 753 L 495 759 Z" fill="lightgray"></path>
    
      <path d="M 442 671 Q 482 711 504 728 Q 517 735 512 743 Q 506 752 495 759 C 470 776 445 783 444 753 Q 445 738 418 668 C 407 640 421 650 442 671 Z" fill="lightgray"></path>
    
      <path d="M 389 666 Q 379 676 356 685 Q 347 689 337 685 Q 331 681 336 670 Q 364 570 343 475 Q 331 427 363 389 Q 373 377 382 388 Q 386 394 388 400 L 392 425 Q 393 443 394 480 L 394 500 Q 394 534 395 560 L 395 581 Q 396 626 398 631 Q 398 635 398 638 C 399 658 399 658 389 666 Z" fill="lightgray"></path>
    
      <path d="M 607 423 Q 608 419 613 412 Q 626 385 634 386 Q 647 387 662 417 Q 675 441 674 459 Q 659 604 685 646 Q 694 661 681 676 Q 657 695 618 713 Q 603 717 581 710 Q 557 701 442 671 L 418 668 Q 402 668 389 666 C 359 663 368 633 398 638 Q 401 638 501 657 Q 583 676 601 663 Q 608 648 612 605 Q 615 478 608 453 L 607 423 Z" fill="lightgray"></path>
    
      <path d="M 395 560 Q 402 559 414 560 Q 493 573 552 582 Q 573 586 565 597 Q 555 610 533 614 Q 506 617 395 581 C 366 572 365 562 395 560 Z" fill="lightgray"></path>
    
      <path d="M 414 479 Q 496 492 555 499 Q 576 502 569 513 Q 559 526 537 531 Q 509 535 394 500 C 365 491 365 488 394 480 Q 401 477 414 479 Z" fill="lightgray"></path>
    
      <path d="M 388 400 Q 395 399 409 400 Q 521 416 607 423 C 637 425 637 447 608 453 Q 587 462 411 428 Q 401 428 392 425 C 363 417 358 402 388 400 Z" fill="lightgray"></path>
    
      <path d="M 516 270 Q 580 289 661 304 Q 679 307 679 315 Q 680 330 659 338 Q 629 348 605 341 Q 545 325 499 309 L 445 293 Q 282 251 207 238 Q 194 237 191 227 Q 188 215 205 204 Q 248 177 293 194 Q 443 255 467 256 L 516 270 Z" fill="lightgray"></path>
    
      <path d="M 583 101 Q 689 -10 797 -38 Q 872 -60 886 -42 Q 902 -30 888 1 Q 879 32 871 143 Q 871 162 866 166 Q 862 167 857 149 Q 818 37 789 36 Q 701 51 624 127 L 588 165 Q 537 228 516 270 L 499 309 Q 492 331 490 346 Q 489 371 443 377 Q 406 381 392 372 Q 376 363 395 344 Q 425 323 445 293 L 467 256 Q 507 195 551 138 L 583 101 Z" fill="lightgray"></path>
    
      <path d="M 551 138 Q 454 71 257 3 Q 247 2 257 -6 Q 284 -13 391 12 Q 394 13 398 14 Q 488 39 583 101 L 624 127 Q 729 205 744 210 Q 753 213 755 223 Q 758 253 725 280 Q 709 293 697 296 Q 687 297 685 285 Q 673 239 588 165 L 551 138 Z" fill="lightgray"></path>
    
      <path d="M 733 384 Q 763 359 794 328 Q 807 315 822 316 Q 832 316 837 329 Q 841 342 833 371 Q 829 392 796 408 Q 720 436 708 431 Q 704 427 704 415 Q 708 405 733 384 Z" fill="lightgray"></path>
    
    
      <clipPath id="make-me-a-hanzi-clip-0">
        <path d="M 495 759 Q 561 768 746 782 Q 756 781 767 793 Q 768 805 746 817 Q 706 841 637 823 Q 474 799 313 785 Q 289 785 266 782 Q 236 781 258 760 Q 283 739 328 737 Q 380 746 444 753 L 495 759 Z"></path>
      </clipPath>
      <path clip-path="url(#make-me-a-hanzi-clip-0)" d="M 260 772 L 322 761 L 684 804 L 756 796" fill="none" id="make-me-a-hanzi-animation-0" stroke-dasharray="628 1256" stroke-linecap="round"></path>
    
      <clipPath id="make-me-a-hanzi-clip-1">
        <path d="M 442 671 Q 482 711 504 728 Q 517 735 512 743 Q 506 752 495 759 C 470 776 445 783 444 753 Q 445 738 418 668 C 407 640 421 650 442 671 Z"></path>
      </clipPath>
      <path clip-path="url(#make-me-a-hanzi-clip-1)" d="M 502 738 L 488 739 L 466 728 L 440 686 L 423 679" fill="none" id="make-me-a-hanzi-animation-1" stroke-dasharray="234 468" stroke-linecap="round"></path>
    
      <clipPath id="make-me-a-hanzi-clip-2">
        <path d="M 389 666 Q 379 676 356 685 Q 347 689 337 685 Q 331 681 336 670 Q 364 570 343 475 Q 331 427 363 389 Q 373 377 382 388 Q 386 394 388 400 L 392 425 Q 393 443 394 480 L 394 500 Q 394 534 395 560 L 395 581 Q 396 626 398 631 Q 398 635 398 638 C 399 658 399 658 389 666 Z"></path>
      </clipPath>
      <path clip-path="url(#make-me-a-hanzi-clip-2)" d="M 344 677 L 364 656 L 371 633 L 374 554 L 366 440 L 373 394" fill="none" id="make-me-a-hanzi-animation-2" stroke-dasharray="421 842" stroke-linecap="round"></path>
    
      <clipPath id="make-me-a-hanzi-clip-3">
        <path d="M 607 423 Q 608 419 613 412 Q 626 385 634 386 Q 647 387 662 417 Q 675 441 674 459 Q 659 604 685 646 Q 694 661 681 676 Q 657 695 618 713 Q 603 717 581 710 Q 557 701 442 671 L 418 668 Q 402 668 389 666 C 359 663 368 633 398 638 Q 401 638 501 657 Q 583 676 601 663 Q 608 648 612 605 Q 615 478 608 453 L 607 423 Z"></path>
      </clipPath>
      <path clip-path="url(#make-me-a-hanzi-clip-3)" d="M 398 646 L 411 655 L 477 668 L 486 665 L 568 687 L 603 690 L 627 677 L 645 654 L 640 593 L 643 468 L 635 396" fill="none" id="make-me-a-hanzi-animation-3" stroke-dasharray="656 1312" stroke-linecap="round"></path>
    
      <clipPath id="make-me-a-hanzi-clip-4">
        <path d="M 395 560 Q 402 559 414 560 Q 493 573 552 582 Q 573 586 565 597 Q 555 610 533 614 Q 506 617 395 581 C 366 572 365 562 395 560 Z"></path>
      </clipPath>
      <path clip-path="url(#make-me-a-hanzi-clip-4)" d="M 399 565 L 433 580 L 489 591 L 535 597 L 556 592" fill="none" id="make-me-a-hanzi-animation-4" stroke-dasharray="290 580" stroke-linecap="round"></path>
    
      <clipPath id="make-me-a-hanzi-clip-5">
        <path d="M 414 479 Q 496 492 555 499 Q 576 502 569 513 Q 559 526 537 531 Q 509 535 394 500 C 365 491 365 488 394 480 Q 401 477 414 479 Z"></path>
      </clipPath>
      <path clip-path="url(#make-me-a-hanzi-clip-5)" d="M 399 485 L 430 498 L 509 512 L 560 509" fill="none" id="make-me-a-hanzi-animation-5" stroke-dasharray="293 586" stroke-linecap="round"></path>
    
      <clipPath id="make-me-a-hanzi-clip-6">
        <path d="M 388 400 Q 395 399 409 400 Q 521 416 607 423 C 637 425 637 447 608 453 Q 587 462 411 428 Q 401 428 392 425 C 363 417 358 402 388 400 Z"></path>
      </clipPath>
      <path clip-path="url(#make-me-a-hanzi-clip-6)" d="M 393 406 L 426 420 L 585 437 L 604 446" fill="none" id="make-me-a-hanzi-animation-6" stroke-dasharray="345 690" stroke-linecap="round"></path>
    
      <clipPath id="make-me-a-hanzi-clip-7">
        <path d="M 516 270 Q 580 289 661 304 Q 679 307 679 315 Q 680 330 659 338 Q 629 348 605 341 Q 545 325 499 309 L 445 293 Q 282 251 207 238 Q 194 237 191 227 Q 188 215 205 204 Q 248 177 293 194 Q 443 255 467 256 L 516 270 Z"></path>
      </clipPath>
      <path clip-path="url(#make-me-a-hanzi-clip-7)" d="M 204 223 L 267 218 L 601 316 L 624 321 L 667 318" fill="none" id="make-me-a-hanzi-animation-7" stroke-dasharray="606 1212" stroke-linecap="round"></path>
    
      <clipPath id="make-me-a-hanzi-clip-8">
        <path d="M 583 101 Q 689 -10 797 -38 Q 872 -60 886 -42 Q 902 -30 888 1 Q 879 32 871 143 Q 871 162 866 166 Q 862 167 857 149 Q 818 37 789 36 Q 701 51 624 127 L 588 165 Q 537 228 516 270 L 499 309 Q 492 331 490 346 Q 489 371 443 377 Q 406 381 392 372 Q 376 363 395 344 Q 425 323 445 293 L 467 256 Q 507 195 551 138 L 583 101 Z"></path>
      </clipPath>
      <path clip-path="url(#make-me-a-hanzi-clip-8)" d="M 400 359 L 455 338 L 506 239 L 606 110 L 658 64 L 750 12 L 788 1 L 836 4 L 866 161" fill="none" id="make-me-a-hanzi-animation-8" stroke-dasharray="884 1768" stroke-linecap="round"></path>
    
      <clipPath id="make-me-a-hanzi-clip-9">
        <path d="M 551 138 Q 454 71 257 3 Q 247 2 257 -6 Q 284 -13 391 12 Q 394 13 398 14 Q 488 39 583 101 L 624 127 Q 729 205 744 210 Q 753 213 755 223 Q 758 253 725 280 Q 709 293 697 296 Q 687 297 685 285 Q 673 239 588 165 L 551 138 Z"></path>
      </clipPath>
      <path clip-path="url(#make-me-a-hanzi-clip-9)" d="M 696 285 L 709 238 L 619 155 L 549 107 L 479 69 L 376 26 L 261 -1" fill="none" id="make-me-a-hanzi-animation-9" stroke-dasharray="693 1386" stroke-linecap="round"></path>
    
      <clipPath id="make-me-a-hanzi-clip-10">
        <path d="M 733 384 Q 763 359 794 328 Q 807 315 822 316 Q 832 316 837 329 Q 841 342 833 371 Q 829 392 796 408 Q 720 436 708 431 Q 704 427 704 415 Q 708 405 733 384 Z"></path>
      </clipPath>
      <path clip-path="url(#make-me-a-hanzi-clip-10)" d="M 712 425 L 796 371 L 821 332" fill="none" id="make-me-a-hanzi-animation-10" stroke-dasharray="274 548" stroke-linecap="round"></path>
    
  </g>
</svg>