<svg version="1.1" viewBox="0 0 1024 1024" xmlns="http://www.w3.org/2000/svg">
  <g stroke="lightgray" stroke-dasharray="1,1" stroke-width="1" transform="scale(4, 4)">
    <line x1="0" y1="0" x2="256" y2="256"></line>
    <line x1="256" y1="0" x2="0" y2="256"></line>
    <line x1="128" y1="0" x2="128" y2="256"></line>
    <line x1="0" y1="128" x2="256" y2="128"></line>
  </g>
  <g transform="scale(1, -1) translate(0, -900)">
    <style type="text/css">
      
        @keyframes keyframes0 {
          from {
            stroke: blue;
            stroke-dashoffset: 579;
            stroke-width: 128;
          }
          65% {
            animation-timing-function: step-end;
            stroke: blue;
            stroke-dashoffset: 0;
            stroke-width: 128;
          }
          to {
            stroke: black;
            stroke-width: 1024;
          }
        }
        #make-me-a-hanzi-animation-0 {
          animation: keyframes0 0.72119140625s both;
          animation-delay: 0s;
          animation-timing-function: linear;
        }
      
        @keyframes keyframes1 {
          from {
            stroke: blue;
            stroke-dashoffset: 1135;
            stroke-width: 128;
          }
          79% {
            animation-timing-function: step-end;
            stroke: blue;
            stroke-dashoffset: 0;
            stroke-width: 128;
          }
          to {
            stroke: black;
            stroke-width: 1024;
          }
        }
        #make-me-a-hanzi-animation-1 {
          animation: keyframes1 1.1736653645833333s both;
          animation-delay: 0.72119140625s;
          animation-timing-function: linear;
        }
      
        @keyframes keyframes2 {
          from {
            stroke: blue;
            stroke-dashoffset: 688;
            stroke-width: 128;
          }
          69% {
            animation-timing-function: step-end;
            stroke: blue;
            stroke-dashoffset: 0;
            stroke-width: 128;
          }
          to {
            stroke: black;
            stroke-width: 1024;
          }
        }
        #make-me-a-hanzi-animation-2 {
          animation: keyframes2 0.8098958333333334s both;
          animation-delay: 1.8948567708333333s;
          animation-timing-function: linear;
        }
      
        @keyframes keyframes3 {
          from {
            stroke: blue;
            stroke-dashoffset: 695;
            stroke-width: 128;
          }
          69% {
            animation-timing-function: step-end;
            stroke: blue;
            stroke-dashoffset: 0;
            stroke-width: 128;
          }
          to {
            stroke: black;
            stroke-width: 1024;
          }
        }
        #make-me-a-hanzi-animation-3 {
          animation: keyframes3 0.8155924479166666s both;
          animation-delay: 2.7047526041666665s;
          animation-timing-function: linear;
        }
      
        @keyframes keyframes4 {
          from {
            stroke: blue;
            stroke-dashoffset: 906;
            stroke-width: 128;
          }
          75% {
            animation-timing-function: step-end;
            stroke: blue;
            stroke-dashoffset: 0;
            stroke-width: 128;
          }
          to {
            stroke: black;
            stroke-width: 1024;
          }
        }
        #make-me-a-hanzi-animation-4 {
          animation: keyframes4 0.9873046875s both;
          animation-delay: 3.520345052083333s;
          animation-timing-function: linear;
        }
      
    </style>
    
      <path d="M 364 532 Q 458 562 460 563 Q 469 572 464 580 Q 455 592 426 598 Q 395 602 366 589 L 316 570 Q 226 543 148 531 Q 111 522 138 507 Q 183 483 239 501 Q 276 511 315 520 L 364 532 Z" fill="lightgray"></path>
    
      <path d="M 312 332 Q 311 247 310 141 Q 309 117 297 109 Q 291 105 237 108 Q 204 118 207 109 Q 208 102 229 87 Q 284 42 297 16 Q 313 -14 327 -15 Q 342 -16 356 19 Q 372 65 371 138 Q 364 252 362 366 L 362 399 Q 361 466 364 532 L 366 589 Q 366 688 386 757 Q 404 787 348 809 Q 314 828 295 821 Q 277 815 293 792 Q 315 764 316 731 Q 317 713 316 570 L 315 520 Q 314 459 313 375 L 312 332 Z" fill="lightgray"></path>
    
      <path d="M 362 366 Q 432 412 440 420 Q 447 433 436 433 Q 421 433 362 399 L 313 375 Q 213 327 126 281 Q 87 262 63 257 Q 50 251 46 243 Q 45 233 59 218 Q 78 200 102 190 Q 117 186 133 200 Q 199 258 312 332 L 362 366 Z" fill="lightgray"></path>
    
      <path d="M 709 517 Q 802 532 906 532 Q 925 533 929 542 Q 933 554 917 566 Q 860 605 805 584 Q 687 557 487 518 Q 466 515 483 499 Q 496 486 514 482 Q 535 478 550 484 Q 599 500 656 509 L 709 517 Z" fill="lightgray"></path>
    
      <path d="M 625 58 Q 598 65 565 72 Q 552 76 553 68 Q 554 59 565 50 Q 637 -2 684 -46 Q 697 -55 711 -38 Q 751 19 745 101 Q 730 302 738 456 Q 744 484 738 495 Q 731 505 709 517 C 684 533 647 538 656 509 Q 671 461 673 438 Q 673 435 673 432 Q 688 87 668 58 Q 656 49 625 58 Z" fill="lightgray"></path>
    
    
      <clipPath id="make-me-a-hanzi-clip-0">
        <path d="M 364 532 Q 458 562 460 563 Q 469 572 464 580 Q 455 592 426 598 Q 395 602 366 589 L 316 570 Q 226 543 148 531 Q 111 522 138 507 Q 183 483 239 501 Q 276 511 315 520 L 364 532 Z"></path>
      </clipPath>
      <path clip-path="url(#make-me-a-hanzi-clip-0)" d="M 140 520 L 163 515 L 212 518 L 405 573 L 455 572" fill="none" id="make-me-a-hanzi-animation-0" stroke-dasharray="451 902" stroke-linecap="round"></path>
    
      <clipPath id="make-me-a-hanzi-clip-1">
        <path d="M 312 332 Q 311 247 310 141 Q 309 117 297 109 Q 291 105 237 108 Q 204 118 207 109 Q 208 102 229 87 Q 284 42 297 16 Q 313 -14 327 -15 Q 342 -16 356 19 Q 372 65 371 138 Q 364 252 362 366 L 362 399 Q 361 466 364 532 L 366 589 Q 366 688 386 757 Q 404 787 348 809 Q 314 828 295 821 Q 277 815 293 792 Q 315 764 316 731 Q 317 713 316 570 L 315 520 Q 314 459 313 375 L 312 332 Z"></path>
      </clipPath>
      <path clip-path="url(#make-me-a-hanzi-clip-1)" d="M 301 806 L 318 798 L 349 766 L 337 460 L 338 113 L 317 67 L 213 107" fill="none" id="make-me-a-hanzi-animation-1" stroke-dasharray="1007 2014" stroke-linecap="round"></path>
    
      <clipPath id="make-me-a-hanzi-clip-2">
        <path d="M 362 366 Q 432 412 440 420 Q 447 433 436 433 Q 421 433 362 399 L 313 375 Q 213 327 126 281 Q 87 262 63 257 Q 50 251 46 243 Q 45 233 59 218 Q 78 200 102 190 Q 117 186 133 200 Q 199 258 312 332 L 362 366 Z"></path>
      </clipPath>
      <path clip-path="url(#make-me-a-hanzi-clip-2)" d="M 57 240 L 108 230 L 434 425" fill="none" id="make-me-a-hanzi-animation-2" stroke-dasharray="560 1120" stroke-linecap="round"></path>
    
      <clipPath id="make-me-a-hanzi-clip-3">
        <path d="M 709 517 Q 802 532 906 532 Q 925 533 929 542 Q 933 554 917 566 Q 860 605 805 584 Q 687 557 487 518 Q 466 515 483 499 Q 496 486 514 482 Q 535 478 550 484 Q 599 500 656 509 L 709 517 Z"></path>
      </clipPath>
      <path clip-path="url(#make-me-a-hanzi-clip-3)" d="M 485 509 L 532 503 L 607 522 L 841 561 L 917 547" fill="none" id="make-me-a-hanzi-animation-3" stroke-dasharray="567 1134" stroke-linecap="round"></path>
    
      <clipPath id="make-me-a-hanzi-clip-4">
        <path d="M 625 58 Q 598 65 565 72 Q 552 76 553 68 Q 554 59 565 50 Q 637 -2 684 -46 Q 697 -55 711 -38 Q 751 19 745 101 Q 730 302 738 456 Q 744 484 738 495 Q 731 505 709 517 C 684 533 647 538 656 509 Q 671 461 673 438 Q 673 435 673 432 Q 688 87 668 58 Q 656 49 625 58 Z"></path>
      </clipPath>
      <path clip-path="url(#make-me-a-hanzi-clip-4)" d="M 664 501 L 693 486 L 704 470 L 708 58 L 687 15 L 642 26 L 560 66" fill="none" id="make-me-a-hanzi-animation-4" stroke-dasharray="778 1556" stroke-linecap="round"></path>
    
  </g>
</svg>