<svg version="1.1" viewBox="0 0 1024 1024" xmlns="http://www.w3.org/2000/svg">
  <g stroke="lightgray" stroke-dasharray="1,1" stroke-width="1" transform="scale(4, 4)">
    <line x1="0" y1="0" x2="256" y2="256"></line>
    <line x1="256" y1="0" x2="0" y2="256"></line>
    <line x1="128" y1="0" x2="128" y2="256"></line>
    <line x1="0" y1="128" x2="256" y2="128"></line>
  </g>
  <g transform="scale(1, -1) translate(0, -900)">
    <style type="text/css">
      
        @keyframes keyframes0 {
          from {
            stroke: blue;
            stroke-dashoffset: 552;
            stroke-width: 128;
          }
          64% {
            animation-timing-function: step-end;
            stroke: blue;
            stroke-dashoffset: 0;
            stroke-width: 128;
          }
          to {
            stroke: black;
            stroke-width: 1024;
          }
        }
        #make-me-a-hanzi-animation-0 {
          animation: keyframes0 0.69921875s both;
          animation-delay: 0s;
          animation-timing-function: linear;
        }
      
        @keyframes keyframes1 {
          from {
            stroke: blue;
            stroke-dashoffset: 1154;
            stroke-width: 128;
          }
          79% {
            animation-timing-function: step-end;
            stroke: blue;
            stroke-dashoffset: 0;
            stroke-width: 128;
          }
          to {
            stroke: black;
            stroke-width: 1024;
          }
        }
        #make-me-a-hanzi-animation-1 {
          animation: keyframes1 1.1891276041666667s both;
          animation-delay: 0.69921875s;
          animation-timing-function: linear;
        }
      
        @keyframes keyframes2 {
          from {
            stroke: blue;
            stroke-dashoffset: 649;
            stroke-width: 128;
          }
          68% {
            animation-timing-function: step-end;
            stroke: blue;
            stroke-dashoffset: 0;
            stroke-width: 128;
          }
          to {
            stroke: black;
            stroke-width: 1024;
          }
        }
        #make-me-a-hanzi-animation-2 {
          animation: keyframes2 0.7781575520833334s both;
          animation-delay: 1.8883463541666667s;
          animation-timing-function: linear;
        }
      
        @keyframes keyframes3 {
          from {
            stroke: blue;
            stroke-dashoffset: 1044;
            stroke-width: 128;
          }
          77% {
            animation-timing-function: step-end;
            stroke: blue;
            stroke-dashoffset: 0;
            stroke-width: 128;
          }
          to {
            stroke: black;
            stroke-width: 1024;
          }
        }
        #make-me-a-hanzi-animation-3 {
          animation: keyframes3 1.099609375s both;
          animation-delay: 2.66650390625s;
          animation-timing-function: linear;
        }
      
        @keyframes keyframes4 {
          from {
            stroke: blue;
            stroke-dashoffset: 1330;
            stroke-width: 128;
          }
          81% {
            animation-timing-function: step-end;
            stroke: blue;
            stroke-dashoffset: 0;
            stroke-width: 128;
          }
          to {
            stroke: black;
            stroke-width: 1024;
          }
        }
        #make-me-a-hanzi-animation-4 {
          animation: keyframes4 1.3323567708333333s both;
          animation-delay: 3.76611328125s;
          animation-timing-function: linear;
        }
      
        @keyframes keyframes5 {
          from {
            stroke: blue;
            stroke-dashoffset: 481;
            stroke-width: 128;
          }
          61% {
            animation-timing-function: step-end;
            stroke: blue;
            stroke-dashoffset: 0;
            stroke-width: 128;
          }
          to {
            stroke: black;
            stroke-width: 1024;
          }
        }
        #make-me-a-hanzi-animation-5 {
          animation: keyframes5 0.6414388020833334s both;
          animation-delay: 5.098470052083333s;
          animation-timing-function: linear;
        }
      
    </style>
    
      <path d="M 333 538 Q 415 565 422 571 Q 429 580 424 588 Q 417 600 386 604 Q 358 607 334 596 L 287 575 Q 212 545 134 531 Q 97 521 126 507 Q 171 486 226 506 Q 254 515 286 524 L 333 538 Z" fill="lightgray"></path>
    
      <path d="M 284 328 Q 283 240 282 129 Q 281 105 269 96 Q 263 93 196 107 Q 165 119 167 109 Q 168 102 187 87 Q 248 38 263 10 Q 281 -23 296 -24 Q 309 -25 324 8 Q 342 51 340 123 Q 333 247 331 372 L 331 405 Q 330 472 333 538 L 334 596 Q 349 743 353 751 Q 369 779 316 801 Q 285 819 265 812 Q 249 806 264 784 Q 283 759 286 726 Q 287 710 287 575 L 286 524 Q 285 460 284 371 L 284 328 Z" fill="lightgray"></path>
    
      <path d="M 284 371 Q 199 313 126 256 Q 95 234 73 226 Q 61 219 60 211 Q 60 202 75 190 Q 94 177 118 172 Q 127 171 156 197 Q 195 245 284 328 L 331 372 Q 385 421 389 428 Q 395 441 384 440 Q 374 437 331 405 L 284 371 Z" fill="lightgray"></path>
    
      <path d="M 500 279 Q 461 186 379 54 Q 373 48 372 42 Q 369 32 380 33 Q 410 37 489 157 Q 510 191 530 232 Q 531 238 534 244 L 555 294 Q 592 402 608 503 L 614 541 Q 623 655 637 713 Q 646 728 638 741 Q 622 757 592 771 Q 573 781 560 777 Q 548 770 555 756 Q 576 725 573 664 Q 563 534 561 524 L 556 488 Q 540 392 516 318 L 500 279 Z" fill="lightgray"></path>
    
      <path d="M 608 503 Q 689 530 698 524 Q 705 518 701 498 Q 674 182 761 88 Q 846 -14 940 -2 Q 941 -1 943 -1 Q 959 3 955 22 Q 943 89 951 206 Q 951 222 947 222 Q 943 223 935 209 Q 925 178 912 133 Q 903 99 884 87 Q 877 80 851 92 Q 761 138 749 249 Q 739 322 757 437 Q 766 491 786 518 Q 810 536 807 548 Q 803 564 744 587 Q 725 597 707 582 Q 676 564 614 541 L 561 524 Q 494 508 454 505 Q 430 504 446 491 Q 461 478 484 476 Q 506 472 536 483 Q 545 486 556 488 L 608 503 Z" fill="lightgray"></path>
    
      <path d="M 534 244 Q 586 187 596 184 Q 603 183 609 190 Q 618 200 609 234 Q 602 262 555 294 L 516 318 Q 470 346 443 359 Q 436 363 434 354 Q 434 344 442 335 Q 470 310 500 279 L 534 244 Z" fill="lightgray"></path>
    
    
      <clipPath id="make-me-a-hanzi-clip-0">
        <path d="M 333 538 Q 415 565 422 571 Q 429 580 424 588 Q 417 600 386 604 Q 358 607 334 596 L 287 575 Q 212 545 134 531 Q 97 521 126 507 Q 171 486 226 506 Q 254 515 286 524 L 333 538 Z"></path>
      </clipPath>
      <path clip-path="url(#make-me-a-hanzi-clip-0)" d="M 127 520 L 186 519 L 368 578 L 414 580" fill="none" id="make-me-a-hanzi-animation-0" stroke-dasharray="424 848" stroke-linecap="round"></path>
    
      <clipPath id="make-me-a-hanzi-clip-1">
        <path d="M 284 328 Q 283 240 282 129 Q 281 105 269 96 Q 263 93 196 107 Q 165 119 167 109 Q 168 102 187 87 Q 248 38 263 10 Q 281 -23 296 -24 Q 309 -25 324 8 Q 342 51 340 123 Q 333 247 331 372 L 331 405 Q 330 472 333 538 L 334 596 Q 349 743 353 751 Q 369 779 316 801 Q 285 819 265 812 Q 249 806 264 784 Q 283 759 286 726 Q 287 710 287 575 L 286 524 Q 285 460 284 371 L 284 328 Z"></path>
      </clipPath>
      <path clip-path="url(#make-me-a-hanzi-clip-1)" d="M 272 798 L 297 782 L 317 759 L 307 446 L 311 114 L 305 83 L 289 54 L 173 107" fill="none" id="make-me-a-hanzi-animation-1" stroke-dasharray="1026 2052" stroke-linecap="round"></path>
    
      <clipPath id="make-me-a-hanzi-clip-2">
        <path d="M 284 371 Q 199 313 126 256 Q 95 234 73 226 Q 61 219 60 211 Q 60 202 75 190 Q 94 177 118 172 Q 127 171 156 197 Q 195 245 284 328 L 331 372 Q 385 421 389 428 Q 395 441 384 440 Q 374 437 331 405 L 284 371 Z"></path>
      </clipPath>
      <path clip-path="url(#make-me-a-hanzi-clip-2)" d="M 72 210 L 116 208 L 126 215 L 383 433" fill="none" id="make-me-a-hanzi-animation-2" stroke-dasharray="521 1042" stroke-linecap="round"></path>
    
      <clipPath id="make-me-a-hanzi-clip-3">
        <path d="M 500 279 Q 461 186 379 54 Q 373 48 372 42 Q 369 32 380 33 Q 410 37 489 157 Q 510 191 530 232 Q 531 238 534 244 L 555 294 Q 592 402 608 503 L 614 541 Q 623 655 637 713 Q 646 728 638 741 Q 622 757 592 771 Q 573 781 560 777 Q 548 770 555 756 Q 576 725 573 664 Q 563 534 561 524 L 556 488 Q 540 392 516 318 L 500 279 Z"></path>
      </clipPath>
      <path clip-path="url(#make-me-a-hanzi-clip-3)" d="M 566 764 L 604 725 L 591 553 L 563 398 L 537 309 L 494 210 L 441 119 L 381 42" fill="none" id="make-me-a-hanzi-animation-3" stroke-dasharray="916 1832" stroke-linecap="round"></path>
    
      <clipPath id="make-me-a-hanzi-clip-4">
        <path d="M 608 503 Q 689 530 698 524 Q 705 518 701 498 Q 674 182 761 88 Q 846 -14 940 -2 Q 941 -1 943 -1 Q 959 3 955 22 Q 943 89 951 206 Q 951 222 947 222 Q 943 223 935 209 Q 925 178 912 133 Q 903 99 884 87 Q 877 80 851 92 Q 761 138 749 249 Q 739 322 757 437 Q 766 491 786 518 Q 810 536 807 548 Q 803 564 744 587 Q 725 597 707 582 Q 676 564 614 541 L 561 524 Q 494 508 454 505 Q 430 504 446 491 Q 461 478 484 476 Q 506 472 536 483 Q 545 486 556 488 L 608 503 Z"></path>
      </clipPath>
      <path clip-path="url(#make-me-a-hanzi-clip-4)" d="M 448 499 L 468 492 L 511 494 L 616 521 L 690 548 L 718 551 L 738 543 L 742 521 L 728 460 L 720 354 L 724 249 L 732 205 L 748 158 L 768 123 L 815 76 L 853 52 L 888 43 L 906 48 L 924 93 L 946 218" fill="none" id="make-me-a-hanzi-animation-4" stroke-dasharray="1202 2404" stroke-linecap="round"></path>
    
      <clipPath id="make-me-a-hanzi-clip-5">
        <path d="M 534 244 Q 586 187 596 184 Q 603 183 609 190 Q 618 200 609 234 Q 602 262 555 294 L 516 318 Q 470 346 443 359 Q 436 363 434 354 Q 434 344 442 335 Q 470 310 500 279 L 534 244 Z"></path>
      </clipPath>
      <path clip-path="url(#make-me-a-hanzi-clip-5)" d="M 442 351 L 568 249 L 590 220 L 599 195" fill="none" id="make-me-a-hanzi-animation-5" stroke-dasharray="353 706" stroke-linecap="round"></path>
    
  </g>
</svg>