<svg version="1.1" viewBox="0 0 1024 1024" xmlns="http://www.w3.org/2000/svg">
  <g stroke="lightgray" stroke-dasharray="1,1" stroke-width="1" transform="scale(4, 4)">
    <line x1="0" y1="0" x2="256" y2="256"></line>
    <line x1="256" y1="0" x2="0" y2="256"></line>
    <line x1="128" y1="0" x2="128" y2="256"></line>
    <line x1="0" y1="128" x2="256" y2="128"></line>
  </g>
  <g transform="scale(1, -1) translate(0, -900)">
    <style type="text/css">
      
        @keyframes keyframes0 {
          from {
            stroke: blue;
            stroke-dashoffset: 554;
            stroke-width: 128;
          }
          64% {
            animation-timing-function: step-end;
            stroke: blue;
            stroke-dashoffset: 0;
            stroke-width: 128;
          }
          to {
            stroke: black;
            stroke-width: 1024;
          }
        }
        #make-me-a-hanzi-animation-0 {
          animation: keyframes0 0.7008463541666666s both;
          animation-delay: 0s;
          animation-timing-function: linear;
        }
      
        @keyframes keyframes1 {
          from {
            stroke: blue;
            stroke-dashoffset: 1198;
            stroke-width: 128;
          }
          80% {
            animation-timing-function: step-end;
            stroke: blue;
            stroke-dashoffset: 0;
            stroke-width: 128;
          }
          to {
            stroke: black;
            stroke-width: 1024;
          }
        }
        #make-me-a-hanzi-animation-1 {
          animation: keyframes1 1.2249348958333333s both;
          animation-delay: 0.7008463541666666s;
          animation-timing-function: linear;
        }
      
        @keyframes keyframes2 {
          from {
            stroke: blue;
            stroke-dashoffset: 672;
            stroke-width: 128;
          }
          69% {
            animation-timing-function: step-end;
            stroke: blue;
            stroke-dashoffset: 0;
            stroke-width: 128;
          }
          to {
            stroke: black;
            stroke-width: 1024;
          }
        }
        #make-me-a-hanzi-animation-2 {
          animation: keyframes2 0.796875s both;
          animation-delay: 1.92578125s;
          animation-timing-function: linear;
        }
      
        @keyframes keyframes3 {
          from {
            stroke: blue;
            stroke-dashoffset: 601;
            stroke-width: 128;
          }
          66% {
            animation-timing-function: step-end;
            stroke: blue;
            stroke-dashoffset: 0;
            stroke-width: 128;
          }
          to {
            stroke: black;
            stroke-width: 1024;
          }
        }
        #make-me-a-hanzi-animation-3 {
          animation: keyframes3 0.7390950520833334s both;
          animation-delay: 2.72265625s;
          animation-timing-function: linear;
        }
      
        @keyframes keyframes4 {
          from {
            stroke: blue;
            stroke-dashoffset: 688;
            stroke-width: 128;
          }
          69% {
            animation-timing-function: step-end;
            stroke: blue;
            stroke-dashoffset: 0;
            stroke-width: 128;
          }
          to {
            stroke: black;
            stroke-width: 1024;
          }
        }
        #make-me-a-hanzi-animation-4 {
          animation: keyframes4 0.8098958333333334s both;
          animation-delay: 3.4617513020833335s;
          animation-timing-function: linear;
        }
      
        @keyframes keyframes5 {
          from {
            stroke: blue;
            stroke-dashoffset: 1058;
            stroke-width: 128;
          }
          77% {
            animation-timing-function: step-end;
            stroke: blue;
            stroke-dashoffset: 0;
            stroke-width: 128;
          }
          to {
            stroke: black;
            stroke-width: 1024;
          }
        }
        #make-me-a-hanzi-animation-5 {
          animation: keyframes5 1.1110026041666667s both;
          animation-delay: 4.271647135416667s;
          animation-timing-function: linear;
        }
      
        @keyframes keyframes6 {
          from {
            stroke: blue;
            stroke-dashoffset: 858;
            stroke-width: 128;
          }
          74% {
            animation-timing-function: step-end;
            stroke: blue;
            stroke-dashoffset: 0;
            stroke-width: 128;
          }
          to {
            stroke: black;
            stroke-width: 1024;
          }
        }
        #make-me-a-hanzi-animation-6 {
          animation: keyframes6 0.9482421875s both;
          animation-delay: 5.382649739583334s;
          animation-timing-function: linear;
        }
      
    </style>
    
      <path d="M 352 522 Q 445 549 448 551 Q 457 560 452 568 Q 445 580 414 586 Q 383 590 353 577 L 304 559 Q 163 528 160 526 Q 123 519 150 503 Q 195 479 254 497 Q 276 504 304 510 L 352 522 Z" fill="lightgray"></path>
    
      <path d="M 301 315 Q 300 224 298 112 Q 298 87 284 78 Q 280 74 209 87 Q 176 99 179 89 Q 180 82 200 67 Q 263 16 279 -12 Q 298 -46 313 -47 Q 328 -48 342 -13 Q 361 33 359 106 Q 352 230 350 354 L 350 387 Q 349 454 352 522 L 353 577 Q 359 718 374 765 Q 392 795 336 817 Q 302 836 283 829 Q 265 822 281 800 Q 303 772 304 738 Q 305 719 304 559 L 304 510 Q 303 444 301 358 L 301 315 Z" fill="lightgray"></path>
    
      <path d="M 301 358 Q 205 303 123 249 Q 87 227 63 220 Q 50 213 47 204 Q 46 194 62 180 Q 83 164 108 156 Q 124 152 135 165 Q 193 228 301 315 L 350 354 Q 365 367 381 378 Q 403 391 412 407 Q 419 422 408 420 Q 395 420 350 387 L 301 358 Z" fill="lightgray"></path>
    
      <path d="M 664 560 Q 833 605 840 611 Q 849 620 844 628 Q 837 640 806 646 Q 779 649 669 610 L 616 595 Q 564 583 504 574 Q 467 567 495 551 Q 540 527 604 547 Q 608 548 615 549 L 664 560 Z" fill="lightgray"></path>
    
      <path d="M 650 427 Q 657 496 664 560 L 669 610 Q 679 733 698 787 Q 702 797 682 814 Q 646 836 621 841 Q 605 845 596 836 Q 587 829 596 813 Q 618 779 617 755 Q 618 679 616 595 L 615 549 Q 611 485 606 413 C 604 383 647 397 650 427 Z" fill="lightgray"></path>
    
      <path d="M 679 180 Q 716 219 765 344 Q 778 375 801 395 Q 822 413 807 427 Q 794 440 759 453 Q 734 462 703 446 Q 678 437 650 427 L 606 413 Q 555 401 479 392 Q 464 391 459 383 Q 455 376 475 367 Q 515 352 568 369 Q 665 400 684 400 Q 709 397 702 371 Q 680 272 638 216 L 614 185 Q 548 113 413 73 Q 397 69 410 59 Q 417 55 462 57 Q 555 64 647 145 L 679 180 Z" fill="lightgray"></path>
    
      <path d="M 647 145 Q 761 18 796 12 Q 911 12 957 18 Q 994 22 991 32 Q 988 41 896 67 Q 754 118 682 178 Q 679 179 679 180 L 638 216 Q 604 250 568 289 Q 534 328 501 328 Q 485 329 481 324 Q 480 318 493 308 Q 536 280 614 185 L 647 145 Z" fill="lightgray"></path>
    
    
      <clipPath id="make-me-a-hanzi-clip-0">
        <path d="M 352 522 Q 445 549 448 551 Q 457 560 452 568 Q 445 580 414 586 Q 383 590 353 577 L 304 559 Q 163 528 160 526 Q 123 519 150 503 Q 195 479 254 497 Q 276 504 304 510 L 352 522 Z"></path>
      </clipPath>
      <path clip-path="url(#make-me-a-hanzi-clip-0)" d="M 152 516 L 188 511 L 240 518 L 393 561 L 443 560" fill="none" id="make-me-a-hanzi-animation-0" stroke-dasharray="426 852" stroke-linecap="round"></path>
    
      <clipPath id="make-me-a-hanzi-clip-1">
        <path d="M 301 315 Q 300 224 298 112 Q 298 87 284 78 Q 280 74 209 87 Q 176 99 179 89 Q 180 82 200 67 Q 263 16 279 -12 Q 298 -46 313 -47 Q 328 -48 342 -13 Q 361 33 359 106 Q 352 230 350 354 L 350 387 Q 349 454 352 522 L 353 577 Q 359 718 374 765 Q 392 795 336 817 Q 302 836 283 829 Q 265 822 281 800 Q 303 772 304 738 Q 305 719 304 559 L 304 510 Q 303 444 301 358 L 301 315 Z"></path>
      </clipPath>
      <path clip-path="url(#make-me-a-hanzi-clip-1)" d="M 289 814 L 306 806 L 337 771 L 325 415 L 328 97 L 322 66 L 305 34 L 237 61 L 198 80 L 196 87 L 185 87" fill="none" id="make-me-a-hanzi-animation-1" stroke-dasharray="1070 2140" stroke-linecap="round"></path>
    
      <clipPath id="make-me-a-hanzi-clip-2">
        <path d="M 301 358 Q 205 303 123 249 Q 87 227 63 220 Q 50 213 47 204 Q 46 194 62 180 Q 83 164 108 156 Q 124 152 135 165 Q 193 228 301 315 L 350 354 Q 365 367 381 378 Q 403 391 412 407 Q 419 422 408 420 Q 395 420 350 387 L 301 358 Z"></path>
      </clipPath>
      <path clip-path="url(#make-me-a-hanzi-clip-2)" d="M 60 202 L 111 197 L 227 287 L 406 412" fill="none" id="make-me-a-hanzi-animation-2" stroke-dasharray="544 1088" stroke-linecap="round"></path>
    
      <clipPath id="make-me-a-hanzi-clip-3">
        <path d="M 664 560 Q 833 605 840 611 Q 849 620 844 628 Q 837 640 806 646 Q 779 649 669 610 L 616 595 Q 564 583 504 574 Q 467 567 495 551 Q 540 527 604 547 Q 608 548 615 549 L 664 560 Z"></path>
      </clipPath>
      <path clip-path="url(#make-me-a-hanzi-clip-3)" d="M 496 564 L 533 558 L 573 563 L 797 622 L 833 622" fill="none" id="make-me-a-hanzi-animation-3" stroke-dasharray="473 946" stroke-linecap="round"></path>
    
      <clipPath id="make-me-a-hanzi-clip-4">
        <path d="M 650 427 Q 657 496 664 560 L 669 610 Q 679 733 698 787 Q 702 797 682 814 Q 646 836 621 841 Q 605 845 596 836 Q 587 829 596 813 Q 618 779 617 755 Q 618 679 616 595 L 615 549 Q 611 485 606 413 C 604 383 647 397 650 427 Z"></path>
      </clipPath>
      <path clip-path="url(#make-me-a-hanzi-clip-4)" d="M 608 825 L 654 783 L 630 443 L 612 421" fill="none" id="make-me-a-hanzi-animation-4" stroke-dasharray="560 1120" stroke-linecap="round"></path>
    
      <clipPath id="make-me-a-hanzi-clip-5">
        <path d="M 679 180 Q 716 219 765 344 Q 778 375 801 395 Q 822 413 807 427 Q 794 440 759 453 Q 734 462 703 446 Q 678 437 650 427 L 606 413 Q 555 401 479 392 Q 464 391 459 383 Q 455 376 475 367 Q 515 352 568 369 Q 665 400 684 400 Q 709 397 702 371 Q 680 272 638 216 L 614 185 Q 548 113 413 73 Q 397 69 410 59 Q 417 55 462 57 Q 555 64 647 145 L 679 180 Z"></path>
      </clipPath>
      <path clip-path="url(#make-me-a-hanzi-clip-5)" d="M 467 381 L 511 377 L 555 383 L 691 420 L 724 418 L 747 406 L 718 308 L 691 247 L 634 168 L 598 136 L 532 96 L 452 69 L 415 65" fill="none" id="make-me-a-hanzi-animation-5" stroke-dasharray="930 1860" stroke-linecap="round"></path>
    
      <clipPath id="make-me-a-hanzi-clip-6">
        <path d="M 647 145 Q 761 18 796 12 Q 911 12 957 18 Q 994 22 991 32 Q 988 41 896 67 Q 754 118 682 178 Q 679 179 679 180 L 638 216 Q 604 250 568 289 Q 534 328 501 328 Q 485 329 481 324 Q 480 318 493 308 Q 536 280 614 185 L 647 145 Z"></path>
      </clipPath>
      <path clip-path="url(#make-me-a-hanzi-clip-6)" d="M 486 322 L 516 310 L 550 285 L 673 151 L 778 70 L 826 51 L 986 30" fill="none" id="make-me-a-hanzi-animation-6" stroke-dasharray="730 1460" stroke-linecap="round"></path>
    
  </g>
</svg>