<svg version="1.1" viewBox="0 0 1024 1024" xmlns="http://www.w3.org/2000/svg">
  <g stroke="lightgray" stroke-dasharray="1,1" stroke-width="1" transform="scale(4, 4)">
    <line x1="0" y1="0" x2="256" y2="256"></line>
    <line x1="256" y1="0" x2="0" y2="256"></line>
    <line x1="128" y1="0" x2="128" y2="256"></line>
    <line x1="0" y1="128" x2="256" y2="128"></line>
  </g>
  <g transform="scale(1, -1) translate(0, -900)">
    <style type="text/css">
      
        @keyframes keyframes0 {
          from {
            stroke: blue;
            stroke-dashoffset: 555;
            stroke-width: 128;
          }
          64% {
            animation-timing-function: step-end;
            stroke: blue;
            stroke-dashoffset: 0;
            stroke-width: 128;
          }
          to {
            stroke: black;
            stroke-width: 1024;
          }
        }
        #make-me-a-hanzi-animation-0 {
          animation: keyframes0 0.70166015625s both;
          animation-delay: 0s;
          animation-timing-function: linear;
        }
      
        @keyframes keyframes1 {
          from {
            stroke: blue;
            stroke-dashoffset: 1162;
            stroke-width: 128;
          }
          79% {
            animation-timing-function: step-end;
            stroke: blue;
            stroke-dashoffset: 0;
            stroke-width: 128;
          }
          to {
            stroke: black;
            stroke-width: 1024;
          }
        }
        #make-me-a-hanzi-animation-1 {
          animation: keyframes1 1.1956380208333333s both;
          animation-delay: 0.70166015625s;
          animation-timing-function: linear;
        }
      
        @keyframes keyframes2 {
          from {
            stroke: blue;
            stroke-dashoffset: 667;
            stroke-width: 128;
          }
          68% {
            animation-timing-function: step-end;
            stroke: blue;
            stroke-dashoffset: 0;
            stroke-width: 128;
          }
          to {
            stroke: black;
            stroke-width: 1024;
          }
        }
        #make-me-a-hanzi-animation-2 {
          animation: keyframes2 0.7928059895833334s both;
          animation-delay: 1.8972981770833333s;
          animation-timing-function: linear;
        }
      
        @keyframes keyframes3 {
          from {
            stroke: blue;
            stroke-dashoffset: 622;
            stroke-width: 128;
          }
          67% {
            animation-timing-function: step-end;
            stroke: blue;
            stroke-dashoffset: 0;
            stroke-width: 128;
          }
          to {
            stroke: black;
            stroke-width: 1024;
          }
        }
        #make-me-a-hanzi-animation-3 {
          animation: keyframes3 0.7561848958333334s both;
          animation-delay: 2.6901041666666665s;
          animation-timing-function: linear;
        }
      
        @keyframes keyframes4 {
          from {
            stroke: blue;
            stroke-dashoffset: 820;
            stroke-width: 128;
          }
          73% {
            animation-timing-function: step-end;
            stroke: blue;
            stroke-dashoffset: 0;
            stroke-width: 128;
          }
          to {
            stroke: black;
            stroke-width: 1024;
          }
        }
        #make-me-a-hanzi-animation-4 {
          animation: keyframes4 0.9173177083333334s both;
          animation-delay: 3.4462890625s;
          animation-timing-function: linear;
        }
      
        @keyframes keyframes5 {
          from {
            stroke: blue;
            stroke-dashoffset: 988;
            stroke-width: 128;
          }
          76% {
            animation-timing-function: step-end;
            stroke: blue;
            stroke-dashoffset: 0;
            stroke-width: 128;
          }
          to {
            stroke: black;
            stroke-width: 1024;
          }
        }
        #make-me-a-hanzi-animation-5 {
          animation: keyframes5 1.0540364583333333s both;
          animation-delay: 4.363606770833333s;
          animation-timing-function: linear;
        }
      
        @keyframes keyframes6 {
          from {
            stroke: blue;
            stroke-dashoffset: 863;
            stroke-width: 128;
          }
          74% {
            animation-timing-function: step-end;
            stroke: blue;
            stroke-dashoffset: 0;
            stroke-width: 128;
          }
          to {
            stroke: black;
            stroke-width: 1024;
          }
        }
        #make-me-a-hanzi-animation-6 {
          animation: keyframes6 0.9523111979166666s both;
          animation-delay: 5.417643229166666s;
          animation-timing-function: linear;
        }
      
    </style>
    
      <path d="M 334 542 Q 356 551 380 557 Q 417 570 422 575 Q 429 584 424 592 Q 417 604 386 608 Q 361 611 337 601 L 286 580 Q 208 550 130 535 Q 93 525 122 511 Q 168 490 222 510 Q 252 519 285 528 L 334 542 Z" fill="lightgray"></path>
    
      <path d="M 280 358 Q 277 256 275 123 Q 274 99 260 90 Q 251 86 193 98 Q 160 111 163 101 Q 164 94 184 78 Q 242 27 256 0 Q 272 -33 287 -35 Q 302 -36 317 -1 Q 336 44 336 117 Q 329 259 330 399 L 331 434 Q 331 489 334 542 L 337 601 Q 337 679 358 748 Q 374 778 320 801 Q 287 820 267 814 Q 249 807 265 784 Q 286 757 287 723 Q 288 707 286 580 L 285 528 Q 284 474 281 403 L 280 358 Z" fill="lightgray"></path>
    
      <path d="M 281 403 Q 193 351 116 298 Q 82 276 59 269 Q 46 262 44 254 Q 44 245 59 232 Q 78 216 102 209 Q 118 205 129 218 Q 175 272 280 358 L 330 399 Q 399 457 401 460 Q 407 473 396 472 Q 383 472 331 434 L 281 403 Z" fill="lightgray"></path>
    
      <path d="M 569 716 Q 569 717 568 717 Q 525 741 502 729 Q 492 723 499 712 Q 526 678 518 577 Q 508 496 425 413 Q 415 403 426 403 Q 471 409 515 465 Q 569 526 569 625 Q 569 658 572 679 C 575 709 576 712 569 716 Z" fill="lightgray"></path>
    
      <path d="M 903 499 Q 918 505 908 521 Q 893 540 875 549 Q 862 556 839 545 Q 808 529 767 531 Q 742 531 733 549 Q 721 571 733 632 Q 736 671 773 708 Q 791 724 773 738 Q 749 757 722 769 Q 712 775 694 764 Q 640 736 569 716 C 540 708 543 671 572 679 Q 581 680 660 710 Q 678 720 684 717 Q 691 716 692 701 Q 679 560 686 537 Q 693 512 715 497 Q 746 478 810 480 Q 871 481 903 499 Z" fill="lightgray"></path>
    
      <path d="M 655 181 Q 700 241 739 335 Q 752 365 773 383 Q 792 399 780 413 Q 767 426 734 438 Q 709 447 682 433 Q 651 420 611 408 Q 571 395 503 387 Q 488 386 484 378 Q 480 371 499 363 Q 536 350 588 365 Q 651 389 663 389 Q 685 386 679 362 Q 657 271 616 215 L 592 186 Q 520 114 393 80 Q 378 76 390 67 Q 397 63 441 65 Q 498 69 563 105 Q 596 123 623 148 L 655 181 Z" fill="lightgray"></path>
    
      <path d="M 623 148 Q 743 15 784 11 Q 889 11 942 19 Q 978 23 975 34 Q 974 41 811 89 Q 807 92 803 92 Q 728 122 655 181 L 616 215 Q 580 249 545 287 Q 511 324 477 324 Q 461 325 457 320 Q 456 313 470 303 Q 506 282 592 186 L 623 148 Z" fill="lightgray"></path>
    
    
      <clipPath id="make-me-a-hanzi-clip-0">
        <path d="M 334 542 Q 356 551 380 557 Q 417 570 422 575 Q 429 584 424 592 Q 417 604 386 608 Q 361 611 337 601 L 286 580 Q 208 550 130 535 Q 93 525 122 511 Q 168 490 222 510 Q 252 519 285 528 L 334 542 Z"></path>
      </clipPath>
      <path clip-path="url(#make-me-a-hanzi-clip-0)" d="M 123 524 L 146 520 L 195 525 L 352 578 L 412 585" fill="none" id="make-me-a-hanzi-animation-0" stroke-dasharray="427 854" stroke-linecap="round"></path>
    
      <clipPath id="make-me-a-hanzi-clip-1">
        <path d="M 280 358 Q 277 256 275 123 Q 274 99 260 90 Q 251 86 193 98 Q 160 111 163 101 Q 164 94 184 78 Q 242 27 256 0 Q 272 -33 287 -35 Q 302 -36 317 -1 Q 336 44 336 117 Q 329 259 330 399 L 331 434 Q 331 489 334 542 L 337 601 Q 337 679 358 748 Q 374 778 320 801 Q 287 820 267 814 Q 249 807 265 784 Q 286 757 287 723 Q 288 707 286 580 L 285 528 Q 284 474 281 403 L 280 358 Z"></path>
      </clipPath>
      <path clip-path="url(#make-me-a-hanzi-clip-1)" d="M 274 798 L 290 790 L 321 758 L 310 619 L 305 109 L 298 78 L 282 47 L 182 91 L 180 98 L 169 98" fill="none" id="make-me-a-hanzi-animation-1" stroke-dasharray="1034 2068" stroke-linecap="round"></path>
    
      <clipPath id="make-me-a-hanzi-clip-2">
        <path d="M 281 403 Q 193 351 116 298 Q 82 276 59 269 Q 46 262 44 254 Q 44 245 59 232 Q 78 216 102 209 Q 118 205 129 218 Q 175 272 280 358 L 330 399 Q 399 457 401 460 Q 407 473 396 472 Q 383 472 331 434 L 281 403 Z"></path>
      </clipPath>
      <path clip-path="url(#make-me-a-hanzi-clip-2)" d="M 55 252 L 105 248 L 221 340 L 394 464" fill="none" id="make-me-a-hanzi-animation-2" stroke-dasharray="539 1078" stroke-linecap="round"></path>
    
      <clipPath id="make-me-a-hanzi-clip-3">
        <path d="M 569 716 Q 569 717 568 717 Q 525 741 502 729 Q 492 723 499 712 Q 526 678 518 577 Q 508 496 425 413 Q 415 403 426 403 Q 471 409 515 465 Q 569 526 569 625 Q 569 658 572 679 C 575 709 576 712 569 716 Z"></path>
      </clipPath>
      <path clip-path="url(#make-me-a-hanzi-clip-3)" d="M 507 719 L 535 703 L 544 677 L 544 601 L 535 543 L 496 468 L 463 432 L 432 409" fill="none" id="make-me-a-hanzi-animation-3" stroke-dasharray="494 988" stroke-linecap="round"></path>
    
      <clipPath id="make-me-a-hanzi-clip-4">
        <path d="M 903 499 Q 918 505 908 521 Q 893 540 875 549 Q 862 556 839 545 Q 808 529 767 531 Q 742 531 733 549 Q 721 571 733 632 Q 736 671 773 708 Q 791 724 773 738 Q 749 757 722 769 Q 712 775 694 764 Q 640 736 569 716 C 540 708 543 671 572 679 Q 581 680 660 710 Q 678 720 684 717 Q 691 716 692 701 Q 679 560 686 537 Q 693 512 715 497 Q 746 478 810 480 Q 871 481 903 499 Z"></path>
      </clipPath>
      <path clip-path="url(#make-me-a-hanzi-clip-4)" d="M 573 685 L 588 703 L 669 734 L 714 736 L 729 720 L 713 663 L 706 605 L 705 564 L 714 532 L 731 516 L 759 507 L 819 507 L 857 518 L 899 511" fill="none" id="make-me-a-hanzi-animation-4" stroke-dasharray="692 1384" stroke-linecap="round"></path>
    
      <clipPath id="make-me-a-hanzi-clip-5">
        <path d="M 655 181 Q 700 241 739 335 Q 752 365 773 383 Q 792 399 780 413 Q 767 426 734 438 Q 709 447 682 433 Q 651 420 611 408 Q 571 395 503 387 Q 488 386 484 378 Q 480 371 499 363 Q 536 350 588 365 Q 651 389 663 389 Q 685 386 679 362 Q 657 271 616 215 L 592 186 Q 520 114 393 80 Q 378 76 390 67 Q 397 63 441 65 Q 498 69 563 105 Q 596 123 623 148 L 655 181 Z"></path>
      </clipPath>
      <path clip-path="url(#make-me-a-hanzi-clip-5)" d="M 492 376 L 560 376 L 669 408 L 710 403 L 722 394 L 701 322 L 674 261 L 639 202 L 602 161 L 507 100 L 431 76 L 395 73" fill="none" id="make-me-a-hanzi-animation-5" stroke-dasharray="860 1720" stroke-linecap="round"></path>
    
      <clipPath id="make-me-a-hanzi-clip-6">
        <path d="M 623 148 Q 743 15 784 11 Q 889 11 942 19 Q 978 23 975 34 Q 974 41 811 89 Q 807 92 803 92 Q 728 122 655 181 L 616 215 Q 580 249 545 287 Q 511 324 477 324 Q 461 325 457 320 Q 456 313 470 303 Q 506 282 592 186 L 623 148 Z"></path>
      </clipPath>
      <path clip-path="url(#make-me-a-hanzi-clip-6)" d="M 463 318 L 515 292 L 648 154 L 714 99 L 772 61 L 794 51 L 971 32" fill="none" id="make-me-a-hanzi-animation-6" stroke-dasharray="735 1470" stroke-linecap="round"></path>
    
  </g>
</svg>