<svg version="1.1" viewBox="0 0 1024 1024" xmlns="http://www.w3.org/2000/svg">
  <g stroke="lightgray" stroke-dasharray="1,1" stroke-width="1" transform="scale(4, 4)">
    <line x1="0" y1="0" x2="256" y2="256"></line>
    <line x1="256" y1="0" x2="0" y2="256"></line>
    <line x1="128" y1="0" x2="128" y2="256"></line>
    <line x1="0" y1="128" x2="256" y2="128"></line>
  </g>
  <g transform="scale(1, -1) translate(0, -900)">
    <style type="text/css">
      
        @keyframes keyframes0 {
          from {
            stroke: blue;
            stroke-dashoffset: 548;
            stroke-width: 128;
          }
          64% {
            animation-timing-function: step-end;
            stroke: blue;
            stroke-dashoffset: 0;
            stroke-width: 128;
          }
          to {
            stroke: black;
            stroke-width: 1024;
          }
        }
        #make-me-a-hanzi-animation-0 {
          animation: keyframes0 0.6959635416666666s both;
          animation-delay: 0s;
          animation-timing-function: linear;
        }
      
        @keyframes keyframes1 {
          from {
            stroke: blue;
            stroke-dashoffset: 1181;
            stroke-width: 128;
          }
          79% {
            animation-timing-function: step-end;
            stroke: blue;
            stroke-dashoffset: 0;
            stroke-width: 128;
          }
          to {
            stroke: black;
            stroke-width: 1024;
          }
        }
        #make-me-a-hanzi-animation-1 {
          animation: keyframes1 1.2111002604166667s both;
          animation-delay: 0.6959635416666666s;
          animation-timing-function: linear;
        }
      
        @keyframes keyframes2 {
          from {
            stroke: blue;
            stroke-dashoffset: 623;
            stroke-width: 128;
          }
          67% {
            animation-timing-function: step-end;
            stroke: blue;
            stroke-dashoffset: 0;
            stroke-width: 128;
          }
          to {
            stroke: black;
            stroke-width: 1024;
          }
        }
        #make-me-a-hanzi-animation-2 {
          animation: keyframes2 0.7569986979166666s both;
          animation-delay: 1.9070638020833335s;
          animation-timing-function: linear;
        }
      
        @keyframes keyframes3 {
          from {
            stroke: blue;
            stroke-dashoffset: 1239;
            stroke-width: 128;
          }
          80% {
            animation-timing-function: step-end;
            stroke: blue;
            stroke-dashoffset: 0;
            stroke-width: 128;
          }
          to {
            stroke: black;
            stroke-width: 1024;
          }
        }
        #make-me-a-hanzi-animation-3 {
          animation: keyframes3 1.25830078125s both;
          animation-delay: 2.6640625s;
          animation-timing-function: linear;
        }
      
        @keyframes keyframes4 {
          from {
            stroke: blue;
            stroke-dashoffset: 1256;
            stroke-width: 128;
          }
          80% {
            animation-timing-function: step-end;
            stroke: blue;
            stroke-dashoffset: 0;
            stroke-width: 128;
          }
          to {
            stroke: black;
            stroke-width: 1024;
          }
        }
        #make-me-a-hanzi-animation-4 {
          animation: keyframes4 1.2721354166666667s both;
          animation-delay: 3.92236328125s;
          animation-timing-function: linear;
        }
      
        @keyframes keyframes5 {
          from {
            stroke: blue;
            stroke-dashoffset: 335;
            stroke-width: 128;
          }
          52% {
            animation-timing-function: step-end;
            stroke: blue;
            stroke-dashoffset: 0;
            stroke-width: 128;
          }
          to {
            stroke: black;
            stroke-width: 1024;
          }
        }
        #make-me-a-hanzi-animation-5 {
          animation: keyframes5 0.5226236979166666s both;
          animation-delay: 5.194498697916667s;
          animation-timing-function: linear;
        }
      
        @keyframes keyframes6 {
          from {
            stroke: blue;
            stroke-dashoffset: 856;
            stroke-width: 128;
          }
          74% {
            animation-timing-function: step-end;
            stroke: blue;
            stroke-dashoffset: 0;
            stroke-width: 128;
          }
          to {
            stroke: black;
            stroke-width: 1024;
          }
        }
        #make-me-a-hanzi-animation-6 {
          animation: keyframes6 0.9466145833333334s both;
          animation-delay: 5.717122395833334s;
          animation-timing-function: linear;
        }
      
        @keyframes keyframes7 {
          from {
            stroke: blue;
            stroke-dashoffset: 355;
            stroke-width: 128;
          }
          54% {
            animation-timing-function: step-end;
            stroke: blue;
            stroke-dashoffset: 0;
            stroke-width: 128;
          }
          to {
            stroke: black;
            stroke-width: 1024;
          }
        }
        #make-me-a-hanzi-animation-7 {
          animation: keyframes7 0.5388997395833334s both;
          animation-delay: 6.663736979166667s;
          animation-timing-function: linear;
        }
      
    </style>
    
      <path d="M 312 549 Q 387 574 389 575 Q 398 584 392 592 Q 385 604 354 609 Q 332 612 314 606 L 267 588 Q 183 558 107 547 Q 70 538 98 523 Q 132 505 207 522 Q 235 531 266 537 L 312 549 Z" fill="lightgray"></path>
    
      <path d="M 264 370 Q 263 265 262 127 Q 262 102 248 92 Q 242 89 180 102 Q 149 115 151 105 Q 152 98 171 83 Q 229 34 244 6 Q 260 -25 275 -28 Q 288 -29 304 4 Q 322 47 320 119 Q 311 264 310 409 L 310 441 Q 310 496 312 549 L 314 606 Q 314 717 333 779 Q 349 807 296 829 Q 263 847 245 840 Q 229 834 244 812 Q 263 787 266 753 Q 267 735 267 588 L 266 537 Q 265 482 264 412 L 264 370 Z" fill="lightgray"></path>
    
      <path d="M 264 412 Q 182 363 111 314 Q 77 292 54 285 Q 41 278 40 270 Q 40 261 55 247 Q 74 232 99 226 Q 111 223 134 245 Q 188 303 264 370 L 310 409 Q 320 419 334 429 Q 353 442 361 456 Q 367 469 356 468 Q 331 462 310 441 L 264 412 Z" fill="lightgray"></path>
    
      <path d="M 537 665 Q 522 678 500 688 Q 479 695 476 686 Q 472 676 479 667 Q 500 636 497 599 Q 488 505 470 420 L 461 378 Q 433 278 409 243 Q 366 195 369 183 Q 373 167 393 150 Q 411 135 432 155 Q 495 194 685 179 Q 697 179 713 176 L 768 168 Q 817 161 868 146 Q 886 139 899 145 Q 912 149 907 164 Q 900 183 880 198 Q 865 214 838 214 Q 819 214 776 216 L 723 220 Q 626 224 477 214 Q 456 211 464 237 Q 486 309 505 388 L 514 427 Q 532 520 549 630 C 553 654 553 654 537 665 Z" fill="lightgray"></path>
    
      <path d="M 798 472 Q 802 616 812 638 Q 825 660 814 667 Q 807 679 753 712 Q 738 724 680 701 Q 586 674 537 665 C 508 659 520 622 549 630 Q 559 631 575 637 Q 707 676 728 661 Q 741 654 742 627 Q 745 537 744 463 L 743 419 Q 740 329 723 220 L 713 176 Q 686 82 665 67 Q 658 63 626 72 Q 601 79 585 83 Q 572 86 576 74 Q 580 67 597 55 Q 637 18 658 -10 Q 686 -37 703 -18 Q 739 28 768 168 L 776 216 Q 788 285 796 422 L 798 472 Z" fill="lightgray"></path>
    
      <path d="M 585 546 Q 621 486 642 483 Q 654 480 662 497 Q 665 509 658 528 Q 642 558 592 570 Q 583 573 581 562 Q 580 555 585 546 Z" fill="lightgray"></path>
    
      <path d="M 796 422 Q 841 425 940 425 Q 959 425 963 434 Q 969 444 952 458 Q 895 500 836 481 Q 817 478 798 472 L 744 463 Q 696 456 638 445 Q 578 438 514 427 L 470 420 Q 416 414 360 406 Q 339 403 355 387 Q 368 374 386 369 Q 399 366 461 378 L 505 388 Q 554 400 610 406 Q 665 416 743 419 L 796 422 Z" fill="lightgray"></path>
    
      <path d="M 571 332 Q 602 281 627 264 Q 639 260 648 269 Q 655 279 655 293 Q 652 329 587 362 Q 574 368 566 366 Q 562 366 561 356 Q 561 346 571 332 Z" fill="lightgray"></path>
    
    
      <clipPath id="make-me-a-hanzi-clip-0">
        <path d="M 312 549 Q 387 574 389 575 Q 398 584 392 592 Q 385 604 354 609 Q 332 612 314 606 L 267 588 Q 183 558 107 547 Q 70 538 98 523 Q 132 505 207 522 Q 235 531 266 537 L 312 549 Z"></path>
      </clipPath>
      <path clip-path="url(#make-me-a-hanzi-clip-0)" d="M 99 536 L 157 534 L 335 584 L 384 584" fill="none" id="make-me-a-hanzi-animation-0" stroke-dasharray="420 840" stroke-linecap="round"></path>
    
      <clipPath id="make-me-a-hanzi-clip-1">
        <path d="M 264 370 Q 263 265 262 127 Q 262 102 248 92 Q 242 89 180 102 Q 149 115 151 105 Q 152 98 171 83 Q 229 34 244 6 Q 260 -25 275 -28 Q 288 -29 304 4 Q 322 47 320 119 Q 311 264 310 409 L 310 441 Q 310 496 312 549 L 314 606 Q 314 717 333 779 Q 349 807 296 829 Q 263 847 245 840 Q 229 834 244 812 Q 263 787 266 753 Q 267 735 267 588 L 266 537 Q 265 482 264 412 L 264 370 Z"></path>
      </clipPath>
      <path clip-path="url(#make-me-a-hanzi-clip-1)" d="M 252 826 L 277 810 L 297 783 L 286 420 L 291 110 L 285 79 L 270 51 L 240 60 L 157 103" fill="none" id="make-me-a-hanzi-animation-1" stroke-dasharray="1053 2106" stroke-linecap="round"></path>
    
      <clipPath id="make-me-a-hanzi-clip-2">
        <path d="M 264 412 Q 182 363 111 314 Q 77 292 54 285 Q 41 278 40 270 Q 40 261 55 247 Q 74 232 99 226 Q 111 223 134 245 Q 188 303 264 370 L 310 409 Q 320 419 334 429 Q 353 442 361 456 Q 367 469 356 468 Q 331 462 310 441 L 264 412 Z"></path>
      </clipPath>
      <path clip-path="url(#make-me-a-hanzi-clip-2)" d="M 52 269 L 100 264 L 352 459" fill="none" id="make-me-a-hanzi-animation-2" stroke-dasharray="495 990" stroke-linecap="round"></path>
    
      <clipPath id="make-me-a-hanzi-clip-3">
        <path d="M 537 665 Q 522 678 500 688 Q 479 695 476 686 Q 472 676 479 667 Q 500 636 497 599 Q 488 505 470 420 L 461 378 Q 433 278 409 243 Q 366 195 369 183 Q 373 167 393 150 Q 411 135 432 155 Q 495 194 685 179 Q 697 179 713 176 L 768 168 Q 817 161 868 146 Q 886 139 899 145 Q 912 149 907 164 Q 900 183 880 198 Q 865 214 838 214 Q 819 214 776 216 L 723 220 Q 626 224 477 214 Q 456 211 464 237 Q 486 309 505 388 L 514 427 Q 532 520 549 630 C 553 654 553 654 537 665 Z"></path>
      </clipPath>
      <path clip-path="url(#make-me-a-hanzi-clip-3)" d="M 486 680 L 516 650 L 522 624 L 519 589 L 484 385 L 427 212 L 429 198 L 473 193 L 574 202 L 704 200 L 843 184 L 896 157" fill="none" id="make-me-a-hanzi-animation-3" stroke-dasharray="1111 2222" stroke-linecap="round"></path>
    
      <clipPath id="make-me-a-hanzi-clip-4">
        <path d="M 798 472 Q 802 616 812 638 Q 825 660 814 667 Q 807 679 753 712 Q 738 724 680 701 Q 586 674 537 665 C 508 659 520 622 549 630 Q 559 631 575 637 Q 707 676 728 661 Q 741 654 742 627 Q 745 537 744 463 L 743 419 Q 740 329 723 220 L 713 176 Q 686 82 665 67 Q 658 63 626 72 Q 601 79 585 83 Q 572 86 576 74 Q 580 67 597 55 Q 637 18 658 -10 Q 686 -37 703 -18 Q 739 28 768 168 L 776 216 Q 788 285 796 422 L 798 472 Z"></path>
      </clipPath>
      <path clip-path="url(#make-me-a-hanzi-clip-4)" d="M 543 661 L 562 651 L 657 678 L 731 689 L 764 669 L 776 648 L 763 321 L 747 202 L 718 91 L 682 28 L 585 74" fill="none" id="make-me-a-hanzi-animation-4" stroke-dasharray="1128 2256" stroke-linecap="round"></path>
    
      <clipPath id="make-me-a-hanzi-clip-5">
        <path d="M 585 546 Q 621 486 642 483 Q 654 480 662 497 Q 665 509 658 528 Q 642 558 592 570 Q 583 573 581 562 Q 580 555 585 546 Z"></path>
      </clipPath>
      <path clip-path="url(#make-me-a-hanzi-clip-5)" d="M 592 559 L 634 520 L 644 501" fill="none" id="make-me-a-hanzi-animation-5" stroke-dasharray="207 414" stroke-linecap="round"></path>
    
      <clipPath id="make-me-a-hanzi-clip-6">
        <path d="M 796 422 Q 841 425 940 425 Q 959 425 963 434 Q 969 444 952 458 Q 895 500 836 481 Q 817 478 798 472 L 744 463 Q 696 456 638 445 Q 578 438 514 427 L 470 420 Q 416 414 360 406 Q 339 403 355 387 Q 368 374 386 369 Q 399 366 461 378 L 505 388 Q 554 400 610 406 Q 665 416 743 419 L 796 422 Z"></path>
      </clipPath>
      <path clip-path="url(#make-me-a-hanzi-clip-6)" d="M 358 396 L 409 390 L 617 426 L 873 456 L 951 440" fill="none" id="make-me-a-hanzi-animation-6" stroke-dasharray="728 1456" stroke-linecap="round"></path>
    
      <clipPath id="make-me-a-hanzi-clip-7">
        <path d="M 571 332 Q 602 281 627 264 Q 639 260 648 269 Q 655 279 655 293 Q 652 329 587 362 Q 574 368 566 366 Q 562 366 561 356 Q 561 346 571 332 Z"></path>
      </clipPath>
      <path clip-path="url(#make-me-a-hanzi-clip-7)" d="M 571 357 L 618 310 L 634 282" fill="none" id="make-me-a-hanzi-animation-7" stroke-dasharray="227 454" stroke-linecap="round"></path>
    
  </g>
</svg>