<svg version="1.1" viewBox="0 0 1024 1024" xmlns="http://www.w3.org/2000/svg">
  <g stroke="lightgray" stroke-dasharray="1,1" stroke-width="1" transform="scale(4, 4)">
    <line x1="0" y1="0" x2="256" y2="256"></line>
    <line x1="256" y1="0" x2="0" y2="256"></line>
    <line x1="128" y1="0" x2="128" y2="256"></line>
    <line x1="0" y1="128" x2="256" y2="128"></line>
  </g>
  <g transform="scale(1, -1) translate(0, -900)">
    <style type="text/css">
      
        @keyframes keyframes0 {
          from {
            stroke: blue;
            stroke-dashoffset: 517;
            stroke-width: 128;
          }
          63% {
            animation-timing-function: step-end;
            stroke: blue;
            stroke-dashoffset: 0;
            stroke-width: 128;
          }
          to {
            stroke: black;
            stroke-width: 1024;
          }
        }
        #make-me-a-hanzi-animation-0 {
          animation: keyframes0 0.6707356770833334s both;
          animation-delay: 0s;
          animation-timing-function: linear;
        }
      
        @keyframes keyframes1 {
          from {
            stroke: blue;
            stroke-dashoffset: 1130;
            stroke-width: 128;
          }
          79% {
            animation-timing-function: step-end;
            stroke: blue;
            stroke-dashoffset: 0;
            stroke-width: 128;
          }
          to {
            stroke: black;
            stroke-width: 1024;
          }
        }
        #make-me-a-hanzi-animation-1 {
          animation: keyframes1 1.1695963541666667s both;
          animation-delay: 0.6707356770833334s;
          animation-timing-function: linear;
        }
      
        @keyframes keyframes2 {
          from {
            stroke: blue;
            stroke-dashoffset: 618;
            stroke-width: 128;
          }
          67% {
            animation-timing-function: step-end;
            stroke: blue;
            stroke-dashoffset: 0;
            stroke-width: 128;
          }
          to {
            stroke: black;
            stroke-width: 1024;
          }
        }
        #make-me-a-hanzi-animation-2 {
          animation: keyframes2 0.7529296875s both;
          animation-delay: 1.84033203125s;
          animation-timing-function: linear;
        }
      
        @keyframes keyframes3 {
          from {
            stroke: blue;
            stroke-dashoffset: 606;
            stroke-width: 128;
          }
          66% {
            animation-timing-function: step-end;
            stroke: blue;
            stroke-dashoffset: 0;
            stroke-width: 128;
          }
          to {
            stroke: black;
            stroke-width: 1024;
          }
        }
        #make-me-a-hanzi-animation-3 {
          animation: keyframes3 0.7431640625s both;
          animation-delay: 2.59326171875s;
          animation-timing-function: linear;
        }
      
        @keyframes keyframes4 {
          from {
            stroke: blue;
            stroke-dashoffset: 904;
            stroke-width: 128;
          }
          75% {
            animation-timing-function: step-end;
            stroke: blue;
            stroke-dashoffset: 0;
            stroke-width: 128;
          }
          to {
            stroke: black;
            stroke-width: 1024;
          }
        }
        #make-me-a-hanzi-animation-4 {
          animation: keyframes4 0.9856770833333334s both;
          animation-delay: 3.33642578125s;
          animation-timing-function: linear;
        }
      
        @keyframes keyframes5 {
          from {
            stroke: blue;
            stroke-dashoffset: 686;
            stroke-width: 128;
          }
          69% {
            animation-timing-function: step-end;
            stroke: blue;
            stroke-dashoffset: 0;
            stroke-width: 128;
          }
          to {
            stroke: black;
            stroke-width: 1024;
          }
        }
        #make-me-a-hanzi-animation-5 {
          animation: keyframes5 0.8082682291666666s both;
          animation-delay: 4.322102864583333s;
          animation-timing-function: linear;
        }
      
        @keyframes keyframes6 {
          from {
            stroke: blue;
            stroke-dashoffset: 467;
            stroke-width: 128;
          }
          60% {
            animation-timing-function: step-end;
            stroke: blue;
            stroke-dashoffset: 0;
            stroke-width: 128;
          }
          to {
            stroke: black;
            stroke-width: 1024;
          }
        }
        #make-me-a-hanzi-animation-6 {
          animation: keyframes6 0.6300455729166666s both;
          animation-delay: 5.13037109375s;
          animation-timing-function: linear;
        }
      
        @keyframes keyframes7 {
          from {
            stroke: blue;
            stroke-dashoffset: 767;
            stroke-width: 128;
          }
          71% {
            animation-timing-function: step-end;
            stroke: blue;
            stroke-dashoffset: 0;
            stroke-width: 128;
          }
          to {
            stroke: black;
            stroke-width: 1024;
          }
        }
        #make-me-a-hanzi-animation-7 {
          animation: keyframes7 0.8741861979166666s both;
          animation-delay: 5.760416666666667s;
          animation-timing-function: linear;
        }
      
        @keyframes keyframes8 {
          from {
            stroke: blue;
            stroke-dashoffset: 405;
            stroke-width: 128;
          }
          57% {
            animation-timing-function: step-end;
            stroke: blue;
            stroke-dashoffset: 0;
            stroke-width: 128;
          }
          to {
            stroke: black;
            stroke-width: 1024;
          }
        }
        #make-me-a-hanzi-animation-8 {
          animation: keyframes8 0.57958984375s both;
          animation-delay: 6.634602864583334s;
          animation-timing-function: linear;
        }
      
        @keyframes keyframes9 {
          from {
            stroke: blue;
            stroke-dashoffset: 444;
            stroke-width: 128;
          }
          59% {
            animation-timing-function: step-end;
            stroke: blue;
            stroke-dashoffset: 0;
            stroke-width: 128;
          }
          to {
            stroke: black;
            stroke-width: 1024;
          }
        }
        #make-me-a-hanzi-animation-9 {
          animation: keyframes9 0.611328125s both;
          animation-delay: 7.214192708333334s;
          animation-timing-function: linear;
        }
      
        @keyframes keyframes10 {
          from {
            stroke: blue;
            stroke-dashoffset: 1093;
            stroke-width: 128;
          }
          78% {
            animation-timing-function: step-end;
            stroke: blue;
            stroke-dashoffset: 0;
            stroke-width: 128;
          }
          to {
            stroke: black;
            stroke-width: 1024;
          }
        }
        #make-me-a-hanzi-animation-10 {
          animation: keyframes10 1.1394856770833333s both;
          animation-delay: 7.825520833333334s;
          animation-timing-function: linear;
        }
      
    </style>
    
      <path d="M 323 550 Q 336 556 353 560 Q 381 570 386 575 Q 395 585 389 592 Q 380 604 350 607 Q 337 608 325 605 L 277 588 Q 187 555 133 543 Q 97 533 126 519 Q 172 498 226 520 Q 250 529 276 536 L 323 550 Z" fill="lightgray"></path>
    
      <path d="M 273 365 Q 270 272 269 154 Q 269 130 256 121 Q 253 121 199 129 Q 169 142 171 133 Q 172 126 190 110 Q 241 61 253 34 Q 266 3 280 0 Q 293 -1 309 32 Q 328 75 329 146 Q 322 275 321 403 L 321 429 Q 321 490 323 550 L 325 605 Q 335 738 345 767 Q 361 795 308 817 Q 277 835 257 829 Q 241 822 256 800 Q 275 775 277 742 Q 278 726 277 588 L 276 536 Q 275 478 273 402 L 273 365 Z" fill="lightgray"></path>
    
      <path d="M 321 403 Q 357 430 361 436 Q 367 449 356 448 Q 347 448 321 429 L 273 402 Q 185 353 108 305 Q 75 286 53 279 Q 40 273 39 266 Q 38 257 52 244 Q 71 229 93 221 Q 108 217 118 229 Q 169 286 273 365 L 321 403 Z" fill="lightgray"></path>
    
      <path d="M 575 611 Q 600 618 627 623 L 651 628 Q 781 664 783 665 Q 792 672 787 681 Q 780 691 752 698 Q 722 704 694 692 Q 643 674 591 659 L 543 648 Q 497 639 444 632 Q 410 625 435 610 Q 471 589 526 599 L 575 611 Z" fill="lightgray"></path>
    
      <path d="M 441 369 Q 519 456 575 611 L 591 659 Q 625 767 643 790 Q 653 803 647 813 Q 638 840 589 850 Q 576 856 560 848 Q 550 839 559 829 Q 575 813 577 793 Q 581 768 548 662 Q 545 655 543 648 L 526 599 Q 498 526 465 468 Q 425 401 333 300 Q 323 285 334 284 Q 338 283 350 290 Q 384 314 417 344 L 441 369 Z" fill="lightgray"></path>
    
      <path d="M 627 623 Q 628 622 632 618 Q 711 515 797 420 Q 816 398 850 396 Q 911 389 976 397 Q 992 398 994 403 Q 997 407 984 414 Q 810 492 745 543 Q 717 564 691 589 Q 666 614 651 628 C 629 649 607 646 627 623 Z" fill="lightgray"></path>
    
      <path d="M 465 362 Q 458 366 441 369 C 412 375 405 371 417 344 Q 442 289 458 198 Q 461 170 477 150 Q 493 131 498 145 Q 499 151 501 157 L 501 180 Q 500 193 498 207 Q 482 295 476 329 C 471 359 471 360 465 362 Z" fill="lightgray"></path>
    
      <path d="M 693 180 Q 693 176 695 170 Q 699 157 711 157 Q 724 158 731 172 Q 743 188 765 265 Q 780 313 813 340 Q 829 355 815 369 Q 799 384 753 408 Q 741 415 676 402 Q 667 402 620 392 L 577 384 Q 556 383 537 377 Q 497 368 465 362 C 436 356 448 317 476 329 Q 485 338 576 352 L 616 359 Q 709 377 724 367 Q 734 363 728 333 Q 707 233 698 205 L 693 180 Z" fill="lightgray"></path>
    
      <path d="M 574 289 Q 540 279 510 270 Q 497 267 513 255 Q 520 251 535 252 Q 554 256 573 258 L 610 264 Q 635 268 661 272 Q 680 275 673 286 Q 664 298 643 301 Q 630 302 612 299 L 574 289 Z" fill="lightgray"></path>
    
      <path d="M 610 170 Q 653 177 693 180 C 723 182 723 188 698 205 Q 685 218 635 207 Q 622 206 609 201 L 573 194 Q 534 187 501 180 C 472 174 471 156 501 157 Q 508 157 517 158 Q 545 162 574 165 L 610 170 Z" fill="lightgray"></path>
    
      <path d="M 846 79 Q 822 46 728 48 Q 694 49 665 62 Q 619 84 610 170 L 609 201 Q 609 232 610 264 L 612 299 Q 613 329 616 359 L 620 392 Q 621 414 627 438 Q 631 454 620 463 Q 608 475 587 482 Q 575 486 568 481 Q 562 477 567 461 Q 576 437 577 384 L 576 352 Q 575 319 574 289 L 573 258 Q 572 224 573 194 L 574 165 Q 577 63 614 29 Q 693 -35 850 -2 Q 853 -1 856 0 Q 892 12 927 37 Q 945 50 934 75 Q 924 99 911 170 Q 911 185 905 190 Q 899 193 894 177 Q 863 101 846 79 Z" fill="lightgray"></path>
    
    
      <clipPath id="make-me-a-hanzi-clip-0">
        <path d="M 323 550 Q 336 556 353 560 Q 381 570 386 575 Q 395 585 389 592 Q 380 604 350 607 Q 337 608 325 605 L 277 588 Q 187 555 133 543 Q 97 533 126 519 Q 172 498 226 520 Q 250 529 276 536 L 323 550 Z"></path>
      </clipPath>
      <path clip-path="url(#make-me-a-hanzi-clip-0)" d="M 126 532 L 186 532 L 327 579 L 379 585" fill="none" id="make-me-a-hanzi-animation-0" stroke-dasharray="389 778" stroke-linecap="round"></path>
    
      <clipPath id="make-me-a-hanzi-clip-1">
        <path d="M 273 365 Q 270 272 269 154 Q 269 130 256 121 Q 253 121 199 129 Q 169 142 171 133 Q 172 126 190 110 Q 241 61 253 34 Q 266 3 280 0 Q 293 -1 309 32 Q 328 75 329 146 Q 322 275 321 403 L 321 429 Q 321 490 323 550 L 325 605 Q 335 738 345 767 Q 361 795 308 817 Q 277 835 257 829 Q 241 822 256 800 Q 275 775 277 742 Q 278 726 277 588 L 276 536 Q 275 478 273 402 L 273 365 Z"></path>
      </clipPath>
      <path clip-path="url(#make-me-a-hanzi-clip-1)" d="M 264 815 L 304 782 L 309 765 L 297 473 L 299 138 L 292 108 L 277 81 L 189 122 L 187 130 L 177 130" fill="none" id="make-me-a-hanzi-animation-1" stroke-dasharray="1002 2004" stroke-linecap="round"></path>
    
      <clipPath id="make-me-a-hanzi-clip-2">
        <path d="M 321 403 Q 357 430 361 436 Q 367 449 356 448 Q 347 448 321 429 L 273 402 Q 185 353 108 305 Q 75 286 53 279 Q 40 273 39 266 Q 38 257 52 244 Q 71 229 93 221 Q 108 217 118 229 Q 169 286 273 365 L 321 403 Z"></path>
      </clipPath>
      <path clip-path="url(#make-me-a-hanzi-clip-2)" d="M 50 264 L 97 258 L 218 349 L 354 440" fill="none" id="make-me-a-hanzi-animation-2" stroke-dasharray="490 980" stroke-linecap="round"></path>
    
      <clipPath id="make-me-a-hanzi-clip-3">
        <path d="M 575 611 Q 600 618 627 623 L 651 628 Q 781 664 783 665 Q 792 672 787 681 Q 780 691 752 698 Q 722 704 694 692 Q 643 674 591 659 L 543 648 Q 497 639 444 632 Q 410 625 435 610 Q 471 589 526 599 L 575 611 Z"></path>
      </clipPath>
      <path clip-path="url(#make-me-a-hanzi-clip-3)" d="M 437 622 L 459 617 L 527 622 L 659 653 L 720 674 L 779 674" fill="none" id="make-me-a-hanzi-animation-3" stroke-dasharray="478 956" stroke-linecap="round"></path>
    
      <clipPath id="make-me-a-hanzi-clip-4">
        <path d="M 441 369 Q 519 456 575 611 L 591 659 Q 625 767 643 790 Q 653 803 647 813 Q 638 840 589 850 Q 576 856 560 848 Q 550 839 559 829 Q 575 813 577 793 Q 581 768 548 662 Q 545 655 543 648 L 526 599 Q 498 526 465 468 Q 425 401 333 300 Q 323 285 334 284 Q 338 283 350 290 Q 384 314 417 344 L 441 369 Z"></path>
      </clipPath>
      <path clip-path="url(#make-me-a-hanzi-clip-4)" d="M 567 838 L 594 823 L 610 805 L 583 699 L 541 577 L 471 439 L 409 360 L 336 292" fill="none" id="make-me-a-hanzi-animation-4" stroke-dasharray="776 1552" stroke-linecap="round"></path>
    
      <clipPath id="make-me-a-hanzi-clip-5">
        <path d="M 627 623 Q 628 622 632 618 Q 711 515 797 420 Q 816 398 850 396 Q 911 389 976 397 Q 992 398 994 403 Q 997 407 984 414 Q 810 492 745 543 Q 717 564 691 589 Q 666 614 651 628 C 629 649 607 646 627 623 Z"></path>
      </clipPath>
      <path clip-path="url(#make-me-a-hanzi-clip-5)" d="M 633 624 L 648 616 L 739 519 L 829 444 L 875 427 L 987 407" fill="none" id="make-me-a-hanzi-animation-5" stroke-dasharray="558 1116" stroke-linecap="round"></path>
    
      <clipPath id="make-me-a-hanzi-clip-6">
        <path d="M 465 362 Q 458 366 441 369 C 412 375 405 371 417 344 Q 442 289 458 198 Q 461 170 477 150 Q 493 131 498 145 Q 499 151 501 157 L 501 180 Q 500 193 498 207 Q 482 295 476 329 C 471 359 471 360 465 362 Z"></path>
      </clipPath>
      <path clip-path="url(#make-me-a-hanzi-clip-6)" d="M 428 342 L 447 336 L 451 327 L 488 150" fill="none" id="make-me-a-hanzi-animation-6" stroke-dasharray="339 678" stroke-linecap="round"></path>
    
      <clipPath id="make-me-a-hanzi-clip-7">
        <path d="M 693 180 Q 693 176 695 170 Q 699 157 711 157 Q 724 158 731 172 Q 743 188 765 265 Q 780 313 813 340 Q 829 355 815 369 Q 799 384 753 408 Q 741 415 676 402 Q 667 402 620 392 L 577 384 Q 556 383 537 377 Q 497 368 465 362 C 436 356 448 317 476 329 Q 485 338 576 352 L 616 359 Q 709 377 724 367 Q 734 363 728 333 Q 707 233 698 205 L 693 180 Z"></path>
      </clipPath>
      <path clip-path="url(#make-me-a-hanzi-clip-7)" d="M 475 335 L 485 350 L 547 364 L 691 389 L 743 385 L 762 367 L 769 350 L 747 296 L 711 173" fill="none" id="make-me-a-hanzi-animation-7" stroke-dasharray="639 1278" stroke-linecap="round"></path>
    
      <clipPath id="make-me-a-hanzi-clip-8">
        <path d="M 574 289 Q 540 279 510 270 Q 497 267 513 255 Q 520 251 535 252 Q 554 256 573 258 L 610 264 Q 635 268 661 272 Q 680 275 673 286 Q 664 298 643 301 Q 630 302 612 299 L 574 289 Z"></path>
      </clipPath>
      <path clip-path="url(#make-me-a-hanzi-clip-8)" d="M 518 264 L 622 284 L 665 281" fill="none" id="make-me-a-hanzi-animation-8" stroke-dasharray="277 554" stroke-linecap="round"></path>
    
      <clipPath id="make-me-a-hanzi-clip-9">
        <path d="M 610 170 Q 653 177 693 180 C 723 182 723 188 698 205 Q 685 218 635 207 Q 622 206 609 201 L 573 194 Q 534 187 501 180 C 472 174 471 156 501 157 Q 508 157 517 158 Q 545 162 574 165 L 610 170 Z"></path>
      </clipPath>
      <path clip-path="url(#make-me-a-hanzi-clip-9)" d="M 505 163 L 522 171 L 689 200" fill="none" id="make-me-a-hanzi-animation-9" stroke-dasharray="316 632" stroke-linecap="round"></path>
    
      <clipPath id="make-me-a-hanzi-clip-10">
        <path d="M 846 79 Q 822 46 728 48 Q 694 49 665 62 Q 619 84 610 170 L 609 201 Q 609 232 610 264 L 612 299 Q 613 329 616 359 L 620 392 Q 621 414 627 438 Q 631 454 620 463 Q 608 475 587 482 Q 575 486 568 481 Q 562 477 567 461 Q 576 437 577 384 L 576 352 Q 575 319 574 289 L 573 258 Q 572 224 573 194 L 574 165 Q 577 63 614 29 Q 693 -35 850 -2 Q 853 -1 856 0 Q 892 12 927 37 Q 945 50 934 75 Q 924 99 911 170 Q 911 185 905 190 Q 899 193 894 177 Q 863 101 846 79 Z"></path>
      </clipPath>
      <path clip-path="url(#make-me-a-hanzi-clip-10)" d="M 575 473 L 600 444 L 591 265 L 595 135 L 613 75 L 636 47 L 678 26 L 731 17 L 796 20 L 850 35 L 890 69 L 904 184" fill="none" id="make-me-a-hanzi-animation-10" stroke-dasharray="965 1930" stroke-linecap="round"></path>
    
  </g>
</svg>