<svg version="1.1" viewBox="0 0 1024 1024" xmlns="http://www.w3.org/2000/svg">
  <g stroke="lightgray" stroke-dasharray="1,1" stroke-width="1" transform="scale(4, 4)">
    <line x1="0" y1="0" x2="256" y2="256"></line>
    <line x1="256" y1="0" x2="0" y2="256"></line>
    <line x1="128" y1="0" x2="128" y2="256"></line>
    <line x1="0" y1="128" x2="256" y2="128"></line>
  </g>
  <g transform="scale(1, -1) translate(0, -900)">
    <style type="text/css">
      
        @keyframes keyframes0 {
          from {
            stroke: blue;
            stroke-dashoffset: 542;
            stroke-width: 128;
          }
          64% {
            animation-timing-function: step-end;
            stroke: blue;
            stroke-dashoffset: 0;
            stroke-width: 128;
          }
          to {
            stroke: black;
            stroke-width: 1024;
          }
        }
        #make-me-a-hanzi-animation-0 {
          animation: keyframes0 0.6910807291666666s both;
          animation-delay: 0s;
          animation-timing-function: linear;
        }
      
        @keyframes keyframes1 {
          from {
            stroke: blue;
            stroke-dashoffset: 1135;
            stroke-width: 128;
          }
          79% {
            animation-timing-function: step-end;
            stroke: blue;
            stroke-dashoffset: 0;
            stroke-width: 128;
          }
          to {
            stroke: black;
            stroke-width: 1024;
          }
        }
        #make-me-a-hanzi-animation-1 {
          animation: keyframes1 1.1736653645833333s both;
          animation-delay: 0.6910807291666666s;
          animation-timing-function: linear;
        }
      
        @keyframes keyframes2 {
          from {
            stroke: blue;
            stroke-dashoffset: 635;
            stroke-width: 128;
          }
          67% {
            animation-timing-function: step-end;
            stroke: blue;
            stroke-dashoffset: 0;
            stroke-width: 128;
          }
          to {
            stroke: black;
            stroke-width: 1024;
          }
        }
        #make-me-a-hanzi-animation-2 {
          animation: keyframes2 0.7667643229166666s both;
          animation-delay: 1.86474609375s;
          animation-timing-function: linear;
        }
      
        @keyframes keyframes3 {
          from {
            stroke: blue;
            stroke-dashoffset: 743;
            stroke-width: 128;
          }
          71% {
            animation-timing-function: step-end;
            stroke: blue;
            stroke-dashoffset: 0;
            stroke-width: 128;
          }
          to {
            stroke: black;
            stroke-width: 1024;
          }
        }
        #make-me-a-hanzi-animation-3 {
          animation: keyframes3 0.8546549479166666s both;
          animation-delay: 2.6315104166666665s;
          animation-timing-function: linear;
        }
      
        @keyframes keyframes4 {
          from {
            stroke: blue;
            stroke-dashoffset: 762;
            stroke-width: 128;
          }
          71% {
            animation-timing-function: step-end;
            stroke: blue;
            stroke-dashoffset: 0;
            stroke-width: 128;
          }
          to {
            stroke: black;
            stroke-width: 1024;
          }
        }
        #make-me-a-hanzi-animation-4 {
          animation: keyframes4 0.8701171875s both;
          animation-delay: 3.486165364583333s;
          animation-timing-function: linear;
        }
      
        @keyframes keyframes5 {
          from {
            stroke: blue;
            stroke-dashoffset: 456;
            stroke-width: 128;
          }
          60% {
            animation-timing-function: step-end;
            stroke: blue;
            stroke-dashoffset: 0;
            stroke-width: 128;
          }
          to {
            stroke: black;
            stroke-width: 1024;
          }
        }
        #make-me-a-hanzi-animation-5 {
          animation: keyframes5 0.62109375s both;
          animation-delay: 4.356282552083333s;
          animation-timing-function: linear;
        }
      
        @keyframes keyframes6 {
          from {
            stroke: blue;
            stroke-dashoffset: 794;
            stroke-width: 128;
          }
          72% {
            animation-timing-function: step-end;
            stroke: blue;
            stroke-dashoffset: 0;
            stroke-width: 128;
          }
          to {
            stroke: black;
            stroke-width: 1024;
          }
        }
        #make-me-a-hanzi-animation-6 {
          animation: keyframes6 0.8961588541666666s both;
          animation-delay: 4.977376302083333s;
          animation-timing-function: linear;
        }
      
        @keyframes keyframes7 {
          from {
            stroke: blue;
            stroke-dashoffset: 572;
            stroke-width: 128;
          }
          65% {
            animation-timing-function: step-end;
            stroke: blue;
            stroke-dashoffset: 0;
            stroke-width: 128;
          }
          to {
            stroke: black;
            stroke-width: 1024;
          }
        }
        #make-me-a-hanzi-animation-7 {
          animation: keyframes7 0.7154947916666666s both;
          animation-delay: 5.87353515625s;
          animation-timing-function: linear;
        }
      
        @keyframes keyframes8 {
          from {
            stroke: blue;
            stroke-dashoffset: 795;
            stroke-width: 128;
          }
          72% {
            animation-timing-function: step-end;
            stroke: blue;
            stroke-dashoffset: 0;
            stroke-width: 128;
          }
          to {
            stroke: black;
            stroke-width: 1024;
          }
        }
        #make-me-a-hanzi-animation-8 {
          animation: keyframes8 0.89697265625s both;
          animation-delay: 6.589029947916667s;
          animation-timing-function: linear;
        }
      
        @keyframes keyframes9 {
          from {
            stroke: blue;
            stroke-dashoffset: 778;
            stroke-width: 128;
          }
          72% {
            animation-timing-function: step-end;
            stroke: blue;
            stroke-dashoffset: 0;
            stroke-width: 128;
          }
          to {
            stroke: black;
            stroke-width: 1024;
          }
        }
        #make-me-a-hanzi-animation-9 {
          animation: keyframes9 0.8831380208333334s both;
          animation-delay: 7.486002604166667s;
          animation-timing-function: linear;
        }
      
        @keyframes keyframes10 {
          from {
            stroke: blue;
            stroke-dashoffset: 470;
            stroke-width: 128;
          }
          60% {
            animation-timing-function: step-end;
            stroke: blue;
            stroke-dashoffset: 0;
            stroke-width: 128;
          }
          to {
            stroke: black;
            stroke-width: 1024;
          }
        }
        #make-me-a-hanzi-animation-10 {
          animation: keyframes10 0.6324869791666666s both;
          animation-delay: 8.369140625s;
          animation-timing-function: linear;
        }
      
    </style>
    
      <path d="M 315 540 Q 394 568 398 571 Q 405 580 400 588 Q 393 600 362 604 Q 338 607 317 599 L 267 577 Q 200 552 122 535 Q 85 525 114 511 Q 156 493 231 516 Q 247 522 267 525 L 315 540 Z" fill="lightgray"></path>
    
      <path d="M 266 338 Q 266 253 266 148 Q 265 126 253 116 Q 250 113 181 117 Q 148 127 151 116 Q 152 109 174 96 Q 235 51 252 25 Q 271 -6 286 -6 Q 299 -7 314 28 Q 330 74 326 146 Q 317 263 315 380 L 314 411 Q 313 477 315 540 L 317 599 Q 317 690 335 753 Q 351 783 296 805 Q 262 824 243 817 Q 225 810 241 787 Q 263 760 265 726 Q 266 710 267 577 L 267 525 Q 266 464 266 381 L 266 338 Z" fill="lightgray"></path>
    
      <path d="M 315 380 Q 333 396 352 409 Q 371 422 381 436 Q 387 449 376 448 Q 354 442 314 411 L 266 381 Q 187 333 118 286 Q 85 267 64 259 Q 51 252 50 245 Q 49 236 64 223 Q 83 210 105 202 Q 121 199 130 211 Q 172 257 266 338 L 315 380 Z" fill="lightgray"></path>
    
      <path d="M 544 771 Q 523 796 506 794 Q 496 791 501 774 Q 519 713 508 654 L 498 616 Q 482 564 456 539 Q 440 526 444 513 Q 453 498 467 488 Q 476 482 495 493 Q 541 527 679 543 Q 692 546 704 545 C 734 546 750 578 720 577 Q 677 576 638 569 L 600 564 Q 563 558 530 549 Q 515 548 521 564 Q 527 595 534 624 L 541 659 Q 556 734 558 740 C 561 753 561 753 544 771 Z" fill="lightgray"></path>
    
      <path d="M 802 701 Q 803 705 804 708 Q 811 735 832 757 Q 844 767 833 780 Q 820 795 783 817 Q 768 824 707 809 Q 706 809 608 786 Q 572 777 544 771 C 515 765 530 729 558 740 Q 561 744 617 757 L 648 764 Q 741 785 751 776 Q 764 758 761 742 Q 755 715 751 691 L 741 648 Q 729 594 720 577 C 709 549 702 548 704 545 Q 719 521 733 514 Q 742 507 756 526 Q 768 548 791 650 L 802 701 Z" fill="lightgray"></path>
    
      <path d="M 609 635 Q 605 605 600 564 C 596 534 633 539 638 569 Q 644 608 651 641 L 658 676 Q 661 694 667 719 Q 674 732 669 741 Q 659 754 648 764 C 626 785 610 786 617 757 Q 623 745 614 669 L 609 635 Z" fill="lightgray"></path>
    
      <path d="M 791 650 Q 827 653 868 653 Q 922 650 931 661 Q 935 671 921 683 Q 870 725 807 702 Q 804 702 802 701 L 751 691 Q 708 687 658 676 L 614 669 Q 578 665 541 659 L 508 654 Q 453 648 395 640 Q 376 639 390 623 Q 403 610 419 606 Q 438 602 452 605 Q 474 612 498 616 L 534 624 Q 568 631 609 635 L 651 641 Q 691 647 741 648 L 791 650 Z" fill="lightgray"></path>
    
      <path d="M 520 447 Q 513 454 495 461 Q 486 465 475 462 Q 469 458 474 446 Q 501 347 476 236 Q 463 182 495 145 Q 504 133 514 144 Q 529 162 529 221 Q 535 393 537 404 Q 538 414 538 420 C 539 433 539 433 520 447 Z" fill="lightgray"></path>
    
      <path d="M 713 205 Q 706 184 718 164 Q 730 137 738 138 Q 751 139 766 169 Q 781 191 779 211 Q 760 385 793 433 Q 803 449 795 458 Q 770 480 724 499 Q 711 503 688 495 Q 619 459 520 447 C 490 443 509 414 538 420 Q 544 420 623 441 Q 693 460 709 451 Q 716 433 720 383 Q 721 235 713 205 Z" fill="lightgray"></path>
    
      <path d="M 602 331 Q 612 171 540 96 Q 531 90 523 82 Q 490 55 417 20 Q 405 16 402 13 Q 398 9 411 5 Q 454 2 545 49 Q 647 110 653 284 Q 657 339 664 360 Q 668 370 661 377 Q 645 390 612 403 Q 593 410 578 405 Q 560 398 575 383 Q 600 358 602 331 Z" fill="lightgray"></path>
    
      <path d="M 688 95 Q 746 52 817 -11 Q 835 -29 850 -32 Q 859 -32 865 -21 Q 875 -8 859 35 Q 844 84 686 126 Q 676 130 675 117 Q 676 104 688 95 Z" fill="lightgray"></path>
    
    
      <clipPath id="make-me-a-hanzi-clip-0">
        <path d="M 315 540 Q 394 568 398 571 Q 405 580 400 588 Q 393 600 362 604 Q 338 607 317 599 L 267 577 Q 200 552 122 535 Q 85 525 114 511 Q 156 493 231 516 Q 247 522 267 525 L 315 540 Z"></path>
      </clipPath>
      <path clip-path="url(#make-me-a-hanzi-clip-0)" d="M 115 524 L 170 524 L 340 577 L 380 583 L 392 579" fill="none" id="make-me-a-hanzi-animation-0" stroke-dasharray="414 828" stroke-linecap="round"></path>
    
      <clipPath id="make-me-a-hanzi-clip-1">
        <path d="M 266 338 Q 266 253 266 148 Q 265 126 253 116 Q 250 113 181 117 Q 148 127 151 116 Q 152 109 174 96 Q 235 51 252 25 Q 271 -6 286 -6 Q 299 -7 314 28 Q 330 74 326 146 Q 317 263 315 380 L 314 411 Q 313 477 315 540 L 317 599 Q 317 690 335 753 Q 351 783 296 805 Q 262 824 243 817 Q 225 810 241 787 Q 263 760 265 726 Q 266 710 267 577 L 267 525 Q 266 464 266 381 L 266 338 Z"></path>
      </clipPath>
      <path clip-path="url(#make-me-a-hanzi-clip-1)" d="M 250 801 L 277 784 L 297 762 L 290 590 L 296 136 L 291 105 L 275 73 L 158 115" fill="none" id="make-me-a-hanzi-animation-1" stroke-dasharray="1007 2014" stroke-linecap="round"></path>
    
      <clipPath id="make-me-a-hanzi-clip-2">
        <path d="M 315 380 Q 333 396 352 409 Q 371 422 381 436 Q 387 449 376 448 Q 354 442 314 411 L 266 381 Q 187 333 118 286 Q 85 267 64 259 Q 51 252 50 245 Q 49 236 64 223 Q 83 210 105 202 Q 121 199 130 211 Q 172 257 266 338 L 315 380 Z"></path>
      </clipPath>
      <path clip-path="url(#make-me-a-hanzi-clip-2)" d="M 62 243 L 108 240 L 374 440" fill="none" id="make-me-a-hanzi-animation-2" stroke-dasharray="507 1014" stroke-linecap="round"></path>
    
      <clipPath id="make-me-a-hanzi-clip-3">
        <path d="M 544 771 Q 523 796 506 794 Q 496 791 501 774 Q 519 713 508 654 L 498 616 Q 482 564 456 539 Q 440 526 444 513 Q 453 498 467 488 Q 476 482 495 493 Q 541 527 679 543 Q 692 546 704 545 C 734 546 750 578 720 577 Q 677 576 638 569 L 600 564 Q 563 558 530 549 Q 515 548 521 564 Q 527 595 534 624 L 541 659 Q 556 734 558 740 C 561 753 561 753 544 771 Z"></path>
      </clipPath>
      <path clip-path="url(#make-me-a-hanzi-clip-3)" d="M 511 783 L 531 746 L 531 695 L 494 532 L 523 530 L 595 547 L 694 560 L 713 574" fill="none" id="make-me-a-hanzi-animation-3" stroke-dasharray="615 1230" stroke-linecap="round"></path>
    
      <clipPath id="make-me-a-hanzi-clip-4">
        <path d="M 802 701 Q 803 705 804 708 Q 811 735 832 757 Q 844 767 833 780 Q 820 795 783 817 Q 768 824 707 809 Q 706 809 608 786 Q 572 777 544 771 C 515 765 530 729 558 740 Q 561 744 617 757 L 648 764 Q 741 785 751 776 Q 764 758 761 742 Q 755 715 751 691 L 741 648 Q 729 594 720 577 C 709 549 702 548 704 545 Q 719 521 733 514 Q 742 507 756 526 Q 768 548 791 650 L 802 701 Z"></path>
      </clipPath>
      <path clip-path="url(#make-me-a-hanzi-clip-4)" d="M 551 768 L 566 760 L 580 762 L 624 777 L 744 798 L 773 792 L 789 775 L 793 757 L 752 589 L 736 548 L 718 545" fill="none" id="make-me-a-hanzi-animation-4" stroke-dasharray="634 1268" stroke-linecap="round"></path>
    
      <clipPath id="make-me-a-hanzi-clip-5">
        <path d="M 609 635 Q 605 605 600 564 C 596 534 633 539 638 569 Q 644 608 651 641 L 658 676 Q 661 694 667 719 Q 674 732 669 741 Q 659 754 648 764 C 626 785 610 786 617 757 Q 623 745 614 669 L 609 635 Z"></path>
      </clipPath>
      <path clip-path="url(#make-me-a-hanzi-clip-5)" d="M 625 756 L 645 732 L 624 595 L 605 571" fill="none" id="make-me-a-hanzi-animation-5" stroke-dasharray="328 656" stroke-linecap="round"></path>
    
      <clipPath id="make-me-a-hanzi-clip-6">
        <path d="M 791 650 Q 827 653 868 653 Q 922 650 931 661 Q 935 671 921 683 Q 870 725 807 702 Q 804 702 802 701 L 751 691 Q 708 687 658 676 L 614 669 Q 578 665 541 659 L 508 654 Q 453 648 395 640 Q 376 639 390 623 Q 403 610 419 606 Q 438 602 452 605 Q 474 612 498 616 L 534 624 Q 568 631 609 635 L 651 641 Q 691 647 741 648 L 791 650 Z"></path>
      </clipPath>
      <path clip-path="url(#make-me-a-hanzi-clip-6)" d="M 392 632 L 437 624 L 565 647 L 835 681 L 868 681 L 923 666" fill="none" id="make-me-a-hanzi-animation-6" stroke-dasharray="666 1332" stroke-linecap="round"></path>
    
      <clipPath id="make-me-a-hanzi-clip-7">
        <path d="M 520 447 Q 513 454 495 461 Q 486 465 475 462 Q 469 458 474 446 Q 501 347 476 236 Q 463 182 495 145 Q 504 133 514 144 Q 529 162 529 221 Q 535 393 537 404 Q 538 414 538 420 C 539 433 539 433 520 447 Z"></path>
      </clipPath>
      <path clip-path="url(#make-me-a-hanzi-clip-7)" d="M 481 455 L 503 429 L 510 411 L 511 308 L 500 197 L 505 149" fill="none" id="make-me-a-hanzi-animation-7" stroke-dasharray="444 888" stroke-linecap="round"></path>
    
      <clipPath id="make-me-a-hanzi-clip-8">
        <path d="M 713 205 Q 706 184 718 164 Q 730 137 738 138 Q 751 139 766 169 Q 781 191 779 211 Q 760 385 793 433 Q 803 449 795 458 Q 770 480 724 499 Q 711 503 688 495 Q 619 459 520 447 C 490 443 509 414 538 420 Q 544 420 623 441 Q 693 460 709 451 Q 716 433 720 383 Q 721 235 713 205 Z"></path>
      </clipPath>
      <path clip-path="url(#make-me-a-hanzi-clip-8)" d="M 529 447 L 537 439 L 553 437 L 711 476 L 734 465 L 751 444 L 746 371 L 748 219 L 739 148" fill="none" id="make-me-a-hanzi-animation-8" stroke-dasharray="667 1334" stroke-linecap="round"></path>
    
      <clipPath id="make-me-a-hanzi-clip-9">
        <path d="M 602 331 Q 612 171 540 96 Q 531 90 523 82 Q 490 55 417 20 Q 405 16 402 13 Q 398 9 411 5 Q 454 2 545 49 Q 647 110 653 284 Q 657 339 664 360 Q 668 370 661 377 Q 645 390 612 403 Q 593 410 578 405 Q 560 398 575 383 Q 600 358 602 331 Z"></path>
      </clipPath>
      <path clip-path="url(#make-me-a-hanzi-clip-9)" d="M 580 394 L 622 368 L 630 350 L 626 238 L 602 148 L 576 103 L 540 69 L 477 33 L 407 10" fill="none" id="make-me-a-hanzi-animation-9" stroke-dasharray="650 1300" stroke-linecap="round"></path>
    
      <clipPath id="make-me-a-hanzi-clip-10">
        <path d="M 688 95 Q 746 52 817 -11 Q 835 -29 850 -32 Q 859 -32 865 -21 Q 875 -8 859 35 Q 844 84 686 126 Q 676 130 675 117 Q 676 104 688 95 Z"></path>
      </clipPath>
      <path clip-path="url(#make-me-a-hanzi-clip-10)" d="M 687 114 L 803 47 L 834 16 L 850 -17" fill="none" id="make-me-a-hanzi-animation-10" stroke-dasharray="342 684" stroke-linecap="round"></path>
    
  </g>
</svg>