<svg version="1.1" viewBox="0 0 1024 1024" xmlns="http://www.w3.org/2000/svg">
  <g stroke="lightgray" stroke-dasharray="1,1" stroke-width="1" transform="scale(4, 4)">
    <line x1="0" y1="0" x2="256" y2="256"></line>
    <line x1="256" y1="0" x2="0" y2="256"></line>
    <line x1="128" y1="0" x2="128" y2="256"></line>
    <line x1="0" y1="128" x2="256" y2="128"></line>
  </g>
  <g transform="scale(1, -1) translate(0, -900)">
    <style type="text/css">
      
        @keyframes keyframes0 {
          from {
            stroke: blue;
            stroke-dashoffset: 517;
            stroke-width: 128;
          }
          63% {
            animation-timing-function: step-end;
            stroke: blue;
            stroke-dashoffset: 0;
            stroke-width: 128;
          }
          to {
            stroke: black;
            stroke-width: 1024;
          }
        }
        #make-me-a-hanzi-animation-0 {
          animation: keyframes0 0.6707356770833334s both;
          animation-delay: 0s;
          animation-timing-function: linear;
        }
      
        @keyframes keyframes1 {
          from {
            stroke: blue;
            stroke-dashoffset: 1148;
            stroke-width: 128;
          }
          79% {
            animation-timing-function: step-end;
            stroke: blue;
            stroke-dashoffset: 0;
            stroke-width: 128;
          }
          to {
            stroke: black;
            stroke-width: 1024;
          }
        }
        #make-me-a-hanzi-animation-1 {
          animation: keyframes1 1.1842447916666667s both;
          animation-delay: 0.6707356770833334s;
          animation-timing-function: linear;
        }
      
        @keyframes keyframes2 {
          from {
            stroke: blue;
            stroke-dashoffset: 609;
            stroke-width: 128;
          }
          66% {
            animation-timing-function: step-end;
            stroke: blue;
            stroke-dashoffset: 0;
            stroke-width: 128;
          }
          to {
            stroke: black;
            stroke-width: 1024;
          }
        }
        #make-me-a-hanzi-animation-2 {
          animation: keyframes2 0.74560546875s both;
          animation-delay: 1.85498046875s;
          animation-timing-function: linear;
        }
      
        @keyframes keyframes3 {
          from {
            stroke: blue;
            stroke-dashoffset: 702;
            stroke-width: 128;
          }
          70% {
            animation-timing-function: step-end;
            stroke: blue;
            stroke-dashoffset: 0;
            stroke-width: 128;
          }
          to {
            stroke: black;
            stroke-width: 1024;
          }
        }
        #make-me-a-hanzi-animation-3 {
          animation: keyframes3 0.8212890625s both;
          animation-delay: 2.6005859375s;
          animation-timing-function: linear;
        }
      
        @keyframes keyframes4 {
          from {
            stroke: blue;
            stroke-dashoffset: 396;
            stroke-width: 128;
          }
          56% {
            animation-timing-function: step-end;
            stroke: blue;
            stroke-dashoffset: 0;
            stroke-width: 128;
          }
          to {
            stroke: black;
            stroke-width: 1024;
          }
        }
        #make-me-a-hanzi-animation-4 {
          animation: keyframes4 0.572265625s both;
          animation-delay: 3.421875s;
          animation-timing-function: linear;
        }
      
        @keyframes keyframes5 {
          from {
            stroke: blue;
            stroke-dashoffset: 743;
            stroke-width: 128;
          }
          71% {
            animation-timing-function: step-end;
            stroke: blue;
            stroke-dashoffset: 0;
            stroke-width: 128;
          }
          to {
            stroke: black;
            stroke-width: 1024;
          }
        }
        #make-me-a-hanzi-animation-5 {
          animation: keyframes5 0.8546549479166666s both;
          animation-delay: 3.994140625s;
          animation-timing-function: linear;
        }
      
        @keyframes keyframes6 {
          from {
            stroke: blue;
            stroke-dashoffset: 704;
            stroke-width: 128;
          }
          70% {
            animation-timing-function: step-end;
            stroke: blue;
            stroke-dashoffset: 0;
            stroke-width: 128;
          }
          to {
            stroke: black;
            stroke-width: 1024;
          }
        }
        #make-me-a-hanzi-animation-6 {
          animation: keyframes6 0.8229166666666666s both;
          animation-delay: 4.848795572916667s;
          animation-timing-function: linear;
        }
      
        @keyframes keyframes7 {
          from {
            stroke: blue;
            stroke-dashoffset: 639;
            stroke-width: 128;
          }
          68% {
            animation-timing-function: step-end;
            stroke: blue;
            stroke-dashoffset: 0;
            stroke-width: 128;
          }
          to {
            stroke: black;
            stroke-width: 1024;
          }
        }
        #make-me-a-hanzi-animation-7 {
          animation: keyframes7 0.77001953125s both;
          animation-delay: 5.671712239583334s;
          animation-timing-function: linear;
        }
      
        @keyframes keyframes8 {
          from {
            stroke: blue;
            stroke-dashoffset: 535;
            stroke-width: 128;
          }
          64% {
            animation-timing-function: step-end;
            stroke: blue;
            stroke-dashoffset: 0;
            stroke-width: 128;
          }
          to {
            stroke: black;
            stroke-width: 1024;
          }
        }
        #make-me-a-hanzi-animation-8 {
          animation: keyframes8 0.6853841145833334s both;
          animation-delay: 6.441731770833334s;
          animation-timing-function: linear;
        }
      
        @keyframes keyframes9 {
          from {
            stroke: blue;
            stroke-dashoffset: 578;
            stroke-width: 128;
          }
          65% {
            animation-timing-function: step-end;
            stroke: blue;
            stroke-dashoffset: 0;
            stroke-width: 128;
          }
          to {
            stroke: black;
            stroke-width: 1024;
          }
        }
        #make-me-a-hanzi-animation-9 {
          animation: keyframes9 0.7203776041666666s both;
          animation-delay: 7.127115885416667s;
          animation-timing-function: linear;
        }
      
        @keyframes keyframes10 {
          from {
            stroke: blue;
            stroke-dashoffset: 673;
            stroke-width: 128;
          }
          69% {
            animation-timing-function: step-end;
            stroke: blue;
            stroke-dashoffset: 0;
            stroke-width: 128;
          }
          to {
            stroke: black;
            stroke-width: 1024;
          }
        }
        #make-me-a-hanzi-animation-10 {
          animation: keyframes10 0.7976888020833334s both;
          animation-delay: 7.847493489583334s;
          animation-timing-function: linear;
        }
      
    </style>
    
      <path d="M 301 558 Q 319 565 342 570 Q 373 580 377 585 Q 384 592 380 601 Q 373 611 343 616 Q 324 619 303 613 L 254 593 Q 185 568 122 557 Q 88 548 114 534 Q 148 519 218 535 Q 234 541 254 545 L 301 558 Z" fill="lightgray"></path>
    
      <path d="M 251 352 Q 250 259 249 141 Q 249 119 236 109 Q 229 106 167 122 Q 137 135 139 125 Q 140 118 158 103 Q 216 51 230 23 Q 246 -10 262 -12 Q 275 -13 290 20 Q 309 63 308 135 Q 301 265 299 394 L 299 423 Q 299 492 301 558 L 303 613 Q 303 700 321 759 Q 337 787 284 809 Q 253 827 233 820 Q 217 814 232 792 Q 251 767 254 734 Q 255 718 254 593 L 254 545 Q 253 481 251 393 L 251 352 Z" fill="lightgray"></path>
    
      <path d="M 251 393 Q 172 345 105 299 Q 72 278 51 270 Q 39 264 38 256 Q 37 247 51 235 Q 70 222 93 215 Q 103 212 123 230 Q 172 287 251 352 L 299 394 Q 341 431 345 436 Q 351 449 340 448 Q 334 448 299 423 L 251 393 Z" fill="lightgray"></path>
    
      <path d="M 559 611 Q 605 626 692 644 Q 696 645 703 647 C 732 654 716 671 686 668 Q 611 661 531 643 Q 524 640 520 643 Q 519 646 523 653 Q 608 762 625 780 Q 637 789 631 800 Q 625 812 582 833 Q 567 840 559 837 Q 547 831 552 813 Q 567 762 486 668 Q 467 650 440 632 Q 427 622 431 611 Q 435 596 458 578 Q 468 568 480 578 Q 496 588 538 605 L 559 611 Z" fill="lightgray"></path>
    
      <path d="M 703 647 Q 724 616 739 613 Q 748 612 753 621 Q 759 631 757 655 Q 754 691 665 735 Q 653 739 648 738 Q 644 737 643 726 Q 644 714 686 668 L 703 647 Z" fill="lightgray"></path>
    
      <path d="M 555 475 Q 588 484 630 487 L 657 490 Q 721 500 810 503 Q 864 503 868 513 Q 872 523 857 535 Q 808 569 748 552 Q 661 534 573 514 L 520 504 Q 453 494 382 480 Q 363 477 378 463 Q 391 451 407 447 Q 426 443 441 448 Q 468 457 501 464 L 555 475 Z" fill="lightgray"></path>
    
      <path d="M 501 464 Q 438 371 342 293 Q 327 284 312 271 Q 305 265 311 262 Q 341 256 430 320 Q 502 369 555 475 L 573 514 Q 582 533 601 564 Q 608 571 603 580 Q 599 589 574 604 Q 567 608 559 611 C 538 621 538 621 538 605 Q 537 604 538 598 Q 541 553 521 506 Q 520 506 520 504 L 501 464 Z" fill="lightgray"></path>
    
      <path d="M 630 487 Q 649 457 786 321 Q 805 306 838 304 Q 899 303 963 316 Q 979 317 981 323 Q 982 329 970 333 Q 793 391 732 434 Q 713 447 694 461 Q 672 479 657 490 C 633 508 612 511 630 487 Z" fill="lightgray"></path>
    
      <path d="M 569 414 Q 573 368 500 287 Q 497 286 497 284 Q 475 262 421 217 Q 415 213 423 211 Q 498 211 618 364 Q 624 371 628 374 Q 634 377 633 385 Q 629 406 599 420 Q 583 426 575 425 Q 568 424 569 414 Z" fill="lightgray"></path>
    
      <path d="M 629 335 Q 633 278 540 187 Q 515 162 450 113 Q 443 109 451 107 Q 496 107 587 185 Q 588 188 592 189 Q 625 219 676 282 Q 683 289 687 294 Q 693 297 693 305 Q 689 326 659 340 Q 644 347 635 346 Q 628 345 629 335 Z" fill="lightgray"></path>
    
      <path d="M 679 249 Q 689 189 578 57 Q 575 56 574 53 Q 541 19 462 -48 Q 453 -52 464 -56 Q 506 -56 602 21 Q 669 84 743 183 Q 750 193 757 199 Q 764 203 763 214 Q 760 239 718 257 Q 697 264 687 263 Q 678 262 679 249 Z" fill="lightgray"></path>
    
    
      <clipPath id="make-me-a-hanzi-clip-0">
        <path d="M 301 558 Q 319 565 342 570 Q 373 580 377 585 Q 384 592 380 601 Q 373 611 343 616 Q 324 619 303 613 L 254 593 Q 185 568 122 557 Q 88 548 114 534 Q 148 519 218 535 Q 234 541 254 545 L 301 558 Z"></path>
      </clipPath>
      <path clip-path="url(#make-me-a-hanzi-clip-0)" d="M 115 546 L 187 549 L 313 589 L 369 595" fill="none" id="make-me-a-hanzi-animation-0" stroke-dasharray="389 778" stroke-linecap="round"></path>
    
      <clipPath id="make-me-a-hanzi-clip-1">
        <path d="M 251 352 Q 250 259 249 141 Q 249 119 236 109 Q 229 106 167 122 Q 137 135 139 125 Q 140 118 158 103 Q 216 51 230 23 Q 246 -10 262 -12 Q 275 -13 290 20 Q 309 63 308 135 Q 301 265 299 394 L 299 423 Q 299 492 301 558 L 303 613 Q 303 700 321 759 Q 337 787 284 809 Q 253 827 233 820 Q 217 814 232 792 Q 251 767 254 734 Q 255 718 254 593 L 254 545 Q 253 481 251 393 L 251 352 Z"></path>
      </clipPath>
      <path clip-path="url(#make-me-a-hanzi-clip-1)" d="M 240 806 L 265 790 L 285 763 L 277 631 L 276 110 L 256 67 L 227 77 L 157 115 L 155 122 L 145 123" fill="none" id="make-me-a-hanzi-animation-1" stroke-dasharray="1020 2040" stroke-linecap="round"></path>
    
      <clipPath id="make-me-a-hanzi-clip-2">
        <path d="M 251 393 Q 172 345 105 299 Q 72 278 51 270 Q 39 264 38 256 Q 37 247 51 235 Q 70 222 93 215 Q 103 212 123 230 Q 172 287 251 352 L 299 394 Q 341 431 345 436 Q 351 449 340 448 Q 334 448 299 423 L 251 393 Z"></path>
      </clipPath>
      <path clip-path="url(#make-me-a-hanzi-clip-2)" d="M 51 254 L 94 252 L 340 441" fill="none" id="make-me-a-hanzi-animation-2" stroke-dasharray="481 962" stroke-linecap="round"></path>
    
      <clipPath id="make-me-a-hanzi-clip-3">
        <path d="M 559 611 Q 605 626 692 644 Q 696 645 703 647 C 732 654 716 671 686 668 Q 611 661 531 643 Q 524 640 520 643 Q 519 646 523 653 Q 608 762 625 780 Q 637 789 631 800 Q 625 812 582 833 Q 567 840 559 837 Q 547 831 552 813 Q 567 762 486 668 Q 467 650 440 632 Q 427 622 431 611 Q 435 596 458 578 Q 468 568 480 578 Q 496 588 538 605 L 559 611 Z"></path>
      </clipPath>
      <path clip-path="url(#make-me-a-hanzi-clip-3)" d="M 565 824 L 588 788 L 544 709 L 507 666 L 490 623 L 520 620 L 665 653 L 696 650" fill="none" id="make-me-a-hanzi-animation-3" stroke-dasharray="574 1148" stroke-linecap="round"></path>
    
      <clipPath id="make-me-a-hanzi-clip-4">
        <path d="M 703 647 Q 724 616 739 613 Q 748 612 753 621 Q 759 631 757 655 Q 754 691 665 735 Q 653 739 648 738 Q 644 737 643 726 Q 644 714 686 668 L 703 647 Z"></path>
      </clipPath>
      <path clip-path="url(#make-me-a-hanzi-clip-4)" d="M 651 730 L 726 662 L 741 626" fill="none" id="make-me-a-hanzi-animation-4" stroke-dasharray="268 536" stroke-linecap="round"></path>
    
      <clipPath id="make-me-a-hanzi-clip-5">
        <path d="M 555 475 Q 588 484 630 487 L 657 490 Q 721 500 810 503 Q 864 503 868 513 Q 872 523 857 535 Q 808 569 748 552 Q 661 534 573 514 L 520 504 Q 453 494 382 480 Q 363 477 378 463 Q 391 451 407 447 Q 426 443 441 448 Q 468 457 501 464 L 555 475 Z"></path>
      </clipPath>
      <path clip-path="url(#make-me-a-hanzi-clip-5)" d="M 380 472 L 431 467 L 613 505 L 776 530 L 813 529 L 860 518" fill="none" id="make-me-a-hanzi-animation-5" stroke-dasharray="615 1230" stroke-linecap="round"></path>
    
      <clipPath id="make-me-a-hanzi-clip-6">
        <path d="M 501 464 Q 438 371 342 293 Q 327 284 312 271 Q 305 265 311 262 Q 341 256 430 320 Q 502 369 555 475 L 573 514 Q 582 533 601 564 Q 608 571 603 580 Q 599 589 574 604 Q 567 608 559 611 C 538 621 538 621 538 605 Q 537 604 538 598 Q 541 553 521 506 Q 520 506 520 504 L 501 464 Z"></path>
      </clipPath>
      <path clip-path="url(#make-me-a-hanzi-clip-6)" d="M 545 602 L 569 570 L 540 495 L 506 433 L 462 376 L 410 327 L 364 292 L 315 266" fill="none" id="make-me-a-hanzi-animation-6" stroke-dasharray="576 1152" stroke-linecap="round"></path>
    
      <clipPath id="make-me-a-hanzi-clip-7">
        <path d="M 630 487 Q 649 457 786 321 Q 805 306 838 304 Q 899 303 963 316 Q 979 317 981 323 Q 982 329 970 333 Q 793 391 732 434 Q 713 447 694 461 Q 672 479 657 490 C 633 508 612 511 630 487 Z"></path>
      </clipPath>
      <path clip-path="url(#make-me-a-hanzi-clip-7)" d="M 640 483 L 666 467 L 746 395 L 817 347 L 890 332 L 974 326" fill="none" id="make-me-a-hanzi-animation-7" stroke-dasharray="511 1022" stroke-linecap="round"></path>
    
      <clipPath id="make-me-a-hanzi-clip-8">
        <path d="M 569 414 Q 573 368 500 287 Q 497 286 497 284 Q 475 262 421 217 Q 415 213 423 211 Q 498 211 618 364 Q 624 371 628 374 Q 634 377 633 385 Q 629 406 599 420 Q 583 426 575 425 Q 568 424 569 414 Z"></path>
      </clipPath>
      <path clip-path="url(#make-me-a-hanzi-clip-8)" d="M 579 416 L 597 386 L 566 334 L 494 257 L 427 216" fill="none" id="make-me-a-hanzi-animation-8" stroke-dasharray="407 814" stroke-linecap="round"></path>
    
      <clipPath id="make-me-a-hanzi-clip-9">
        <path d="M 629 335 Q 633 278 540 187 Q 515 162 450 113 Q 443 109 451 107 Q 496 107 587 185 Q 588 188 592 189 Q 625 219 676 282 Q 683 289 687 294 Q 693 297 693 305 Q 689 326 659 340 Q 644 347 635 346 Q 628 345 629 335 Z"></path>
      </clipPath>
      <path clip-path="url(#make-me-a-hanzi-clip-9)" d="M 639 336 L 657 306 L 620 247 L 552 174 L 484 125 L 459 118 L 455 111" fill="none" id="make-me-a-hanzi-animation-9" stroke-dasharray="450 900" stroke-linecap="round"></path>
    
      <clipPath id="make-me-a-hanzi-clip-10">
        <path d="M 679 249 Q 689 189 578 57 Q 575 56 574 53 Q 541 19 462 -48 Q 453 -52 464 -56 Q 506 -56 602 21 Q 669 84 743 183 Q 750 193 757 199 Q 764 203 763 214 Q 760 239 718 257 Q 697 264 687 263 Q 678 262 679 249 Z"></path>
      </clipPath>
      <path clip-path="url(#make-me-a-hanzi-clip-10)" d="M 689 253 L 703 239 L 716 211 L 666 128 L 581 29 L 519 -20 L 468 -51" fill="none" id="make-me-a-hanzi-animation-10" stroke-dasharray="545 1090" stroke-linecap="round"></path>
    
  </g>
</svg>