<svg version="1.1" viewBox="0 0 1024 1024" xmlns="http://www.w3.org/2000/svg">
  <g stroke="lightgray" stroke-dasharray="1,1" stroke-width="1" transform="scale(4, 4)">
    <line x1="0" y1="0" x2="256" y2="256"></line>
    <line x1="256" y1="0" x2="0" y2="256"></line>
    <line x1="128" y1="0" x2="128" y2="256"></line>
    <line x1="0" y1="128" x2="256" y2="128"></line>
  </g>
  <g transform="scale(1, -1) translate(0, -900)">
    <style type="text/css">
      
        @keyframes keyframes0 {
          from {
            stroke: blue;
            stroke-dashoffset: 524;
            stroke-width: 128;
          }
          63% {
            animation-timing-function: step-end;
            stroke: blue;
            stroke-dashoffset: 0;
            stroke-width: 128;
          }
          to {
            stroke: black;
            stroke-width: 1024;
          }
        }
        #make-me-a-hanzi-animation-0 {
          animation: keyframes0 0.6764322916666666s both;
          animation-delay: 0s;
          animation-timing-function: linear;
        }
      
        @keyframes keyframes1 {
          from {
            stroke: blue;
            stroke-dashoffset: 1178;
            stroke-width: 128;
          }
          79% {
            animation-timing-function: step-end;
            stroke: blue;
            stroke-dashoffset: 0;
            stroke-width: 128;
          }
          to {
            stroke: black;
            stroke-width: 1024;
          }
        }
        #make-me-a-hanzi-animation-1 {
          animation: keyframes1 1.2086588541666667s both;
          animation-delay: 0.6764322916666666s;
          animation-timing-function: linear;
        }
      
        @keyframes keyframes2 {
          from {
            stroke: blue;
            stroke-dashoffset: 612;
            stroke-width: 128;
          }
          67% {
            animation-timing-function: step-end;
            stroke: blue;
            stroke-dashoffset: 0;
            stroke-width: 128;
          }
          to {
            stroke: black;
            stroke-width: 1024;
          }
        }
        #make-me-a-hanzi-animation-2 {
          animation: keyframes2 0.748046875s both;
          animation-delay: 1.8850911458333335s;
          animation-timing-function: linear;
        }
      
        @keyframes keyframes3 {
          from {
            stroke: blue;
            stroke-dashoffset: 813;
            stroke-width: 128;
          }
          73% {
            animation-timing-function: step-end;
            stroke: blue;
            stroke-dashoffset: 0;
            stroke-width: 128;
          }
          to {
            stroke: black;
            stroke-width: 1024;
          }
        }
        #make-me-a-hanzi-animation-3 {
          animation: keyframes3 0.91162109375s both;
          animation-delay: 2.6331380208333335s;
          animation-timing-function: linear;
        }
      
        @keyframes keyframes4 {
          from {
            stroke: blue;
            stroke-dashoffset: 719;
            stroke-width: 128;
          }
          70% {
            animation-timing-function: step-end;
            stroke: blue;
            stroke-dashoffset: 0;
            stroke-width: 128;
          }
          to {
            stroke: black;
            stroke-width: 1024;
          }
        }
        #make-me-a-hanzi-animation-4 {
          animation: keyframes4 0.8351236979166666s both;
          animation-delay: 3.5447591145833335s;
          animation-timing-function: linear;
        }
      
        @keyframes keyframes5 {
          from {
            stroke: blue;
            stroke-dashoffset: 432;
            stroke-width: 128;
          }
          58% {
            animation-timing-function: step-end;
            stroke: blue;
            stroke-dashoffset: 0;
            stroke-width: 128;
          }
          to {
            stroke: black;
            stroke-width: 1024;
          }
        }
        #make-me-a-hanzi-animation-5 {
          animation: keyframes5 0.6015625s both;
          animation-delay: 4.3798828125s;
          animation-timing-function: linear;
        }
      
        @keyframes keyframes6 {
          from {
            stroke: blue;
            stroke-dashoffset: 405;
            stroke-width: 128;
          }
          57% {
            animation-timing-function: step-end;
            stroke: blue;
            stroke-dashoffset: 0;
            stroke-width: 128;
          }
          to {
            stroke: black;
            stroke-width: 1024;
          }
        }
        #make-me-a-hanzi-animation-6 {
          animation: keyframes6 0.57958984375s both;
          animation-delay: 4.9814453125s;
          animation-timing-function: linear;
        }
      
        @keyframes keyframes7 {
          from {
            stroke: blue;
            stroke-dashoffset: 474;
            stroke-width: 128;
          }
          61% {
            animation-timing-function: step-end;
            stroke: blue;
            stroke-dashoffset: 0;
            stroke-width: 128;
          }
          to {
            stroke: black;
            stroke-width: 1024;
          }
        }
        #make-me-a-hanzi-animation-7 {
          animation: keyframes7 0.6357421875s both;
          animation-delay: 5.56103515625s;
          animation-timing-function: linear;
        }
      
        @keyframes keyframes8 {
          from {
            stroke: blue;
            stroke-dashoffset: 368;
            stroke-width: 128;
          }
          55% {
            animation-timing-function: step-end;
            stroke: blue;
            stroke-dashoffset: 0;
            stroke-width: 128;
          }
          to {
            stroke: black;
            stroke-width: 1024;
          }
        }
        #make-me-a-hanzi-animation-8 {
          animation: keyframes8 0.5494791666666666s both;
          animation-delay: 6.19677734375s;
          animation-timing-function: linear;
        }
      
        @keyframes keyframes9 {
          from {
            stroke: blue;
            stroke-dashoffset: 408;
            stroke-width: 128;
          }
          57% {
            animation-timing-function: step-end;
            stroke: blue;
            stroke-dashoffset: 0;
            stroke-width: 128;
          }
          to {
            stroke: black;
            stroke-width: 1024;
          }
        }
        #make-me-a-hanzi-animation-9 {
          animation: keyframes9 0.58203125s both;
          animation-delay: 6.746256510416667s;
          animation-timing-function: linear;
        }
      
        @keyframes keyframes10 {
          from {
            stroke: blue;
            stroke-dashoffset: 484;
            stroke-width: 128;
          }
          61% {
            animation-timing-function: step-end;
            stroke: blue;
            stroke-dashoffset: 0;
            stroke-width: 128;
          }
          to {
            stroke: black;
            stroke-width: 1024;
          }
        }
        #make-me-a-hanzi-animation-10 {
          animation: keyframes10 0.6438802083333334s both;
          animation-delay: 7.328287760416667s;
          animation-timing-function: linear;
        }
      
        @keyframes keyframes11 {
          from {
            stroke: blue;
            stroke-dashoffset: 380;
            stroke-width: 128;
          }
          55% {
            animation-timing-function: step-end;
            stroke: blue;
            stroke-dashoffset: 0;
            stroke-width: 128;
          }
          to {
            stroke: black;
            stroke-width: 1024;
          }
        }
        #make-me-a-hanzi-animation-11 {
          animation: keyframes11 0.5592447916666666s both;
          animation-delay: 7.97216796875s;
          animation-timing-function: linear;
        }
      
        @keyframes keyframes12 {
          from {
            stroke: blue;
            stroke-dashoffset: 545;
            stroke-width: 128;
          }
          64% {
            animation-timing-function: step-end;
            stroke: blue;
            stroke-dashoffset: 0;
            stroke-width: 128;
          }
          to {
            stroke: black;
            stroke-width: 1024;
          }
        }
        #make-me-a-hanzi-animation-12 {
          animation: keyframes12 0.6935221354166666s both;
          animation-delay: 8.531412760416666s;
          animation-timing-function: linear;
        }
      
        @keyframes keyframes13 {
          from {
            stroke: blue;
            stroke-dashoffset: 361;
            stroke-width: 128;
          }
          54% {
            animation-timing-function: step-end;
            stroke: blue;
            stroke-dashoffset: 0;
            stroke-width: 128;
          }
          to {
            stroke: black;
            stroke-width: 1024;
          }
        }
        #make-me-a-hanzi-animation-13 {
          animation: keyframes13 0.5437825520833334s both;
          animation-delay: 9.224934895833332s;
          animation-timing-function: linear;
        }
      
        @keyframes keyframes14 {
          from {
            stroke: blue;
            stroke-dashoffset: 532;
            stroke-width: 128;
          }
          63% {
            animation-timing-function: step-end;
            stroke: blue;
            stroke-dashoffset: 0;
            stroke-width: 128;
          }
          to {
            stroke: black;
            stroke-width: 1024;
          }
        }
        #make-me-a-hanzi-animation-14 {
          animation: keyframes14 0.6829427083333334s both;
          animation-delay: 9.768717447916666s;
          animation-timing-function: linear;
        }
      
        @keyframes keyframes15 {
          from {
            stroke: blue;
            stroke-dashoffset: 454;
            stroke-width: 128;
          }
          60% {
            animation-timing-function: step-end;
            stroke: blue;
            stroke-dashoffset: 0;
            stroke-width: 128;
          }
          to {
            stroke: black;
            stroke-width: 1024;
          }
        }
        #make-me-a-hanzi-animation-15 {
          animation: keyframes15 0.6194661458333334s both;
          animation-delay: 10.45166015625s;
          animation-timing-function: linear;
        }
      
    </style>
    
      <path d="M 290 555 Q 368 582 370 583 Q 377 592 372 600 Q 365 612 334 616 Q 310 619 292 611 L 244 592 Q 169 567 114 555 Q 77 545 106 531 Q 151 510 206 530 Q 224 536 244 541 L 290 555 Z" fill="lightgray"></path>
    
      <path d="M 239 360 Q 236 257 235 123 Q 234 98 220 89 Q 213 85 192 91 Q 170 98 147 105 Q 117 118 119 109 Q 120 102 138 86 Q 198 34 213 4 Q 229 -30 245 -32 Q 258 -33 274 0 Q 293 43 293 114 Q 286 259 286 404 L 286 435 Q 287 496 290 555 L 292 611 Q 310 758 312 763 Q 328 791 276 813 Q 245 832 225 825 Q 209 819 223 797 Q 244 770 245 738 Q 246 722 244 592 L 244 541 Q 243 481 240 401 L 239 360 Z" fill="lightgray"></path>
    
      <path d="M 240 401 Q 164 349 99 297 Q 71 275 50 267 Q 40 261 38 253 Q 38 246 52 234 Q 71 221 93 217 Q 102 216 121 233 Q 173 299 239 360 L 286 404 Q 296 414 309 425 Q 325 438 334 452 Q 338 465 328 463 Q 321 462 286 435 L 240 401 Z" fill="lightgray"></path>
    
      <path d="M 378 379 Q 477 467 550 598 Q 571 638 595 688 L 606 712 Q 621 748 630 759 Q 636 765 633 775 Q 630 785 616 794 Q 579 821 549 809 Q 540 806 544 794 Q 569 724 462 533 Q 452 520 443 505 Q 406 451 312 344 Q 305 337 315 336 Q 325 339 349 358 Q 356 364 366 370 L 378 379 Z" fill="lightgray"></path>
    
      <path d="M 595 688 Q 682 579 794 462 Q 812 443 842 445 Q 942 451 974 458 Q 983 459 984 465 Q 984 469 970 476 Q 820 521 751 579 Q 684 637 606 712 C 584 733 576 711 595 688 Z" fill="lightgray"></path>
    
      <path d="M 525 493 Q 494 486 518 472 Q 554 457 622 476 Q 649 483 680 492 Q 698 496 701 500 Q 708 507 703 514 Q 696 524 671 528 Q 652 531 581 505 Q 554 498 525 493 Z" fill="lightgray"></path>
    
      <path d="M 412 372 Q 403 375 378 379 C 363 381 363 381 366 370 Q 366 366 370 360 Q 391 323 405 263 Q 408 244 419 233 Q 434 217 437 228 Q 438 235 439 243 L 437 267 Q 428 331 424 351 C 420 370 420 370 412 372 Z" fill="lightgray"></path>
    
      <path d="M 544 284 Q 557 341 574 357 Q 590 378 572 389 Q 556 396 535 410 Q 520 417 506 408 Q 488 396 466 388 Q 444 379 412 372 C 383 365 395 343 424 351 Q 457 360 493 368 Q 509 372 513 366 Q 516 363 505 287 C 501 257 537 255 544 284 Z" fill="lightgray"></path>
    
      <path d="M 482 250 Q 507 256 552 261 Q 559 262 561 269 Q 561 275 544 284 L 505 287 L 503 287 Q 466 275 437 267 C 408 259 409 243 439 243 Q 443 243 452 243 L 482 250 Z" fill="lightgray"></path>
    
      <path d="M 643 395 Q 633 399 608 404 Q 599 405 596 402 Q 592 398 598 385 Q 617 348 630 287 Q 631 269 643 257 Q 656 241 661 252 Q 664 259 664 273 L 661 300 Q 654 352 652 371 C 650 393 650 393 643 395 Z" fill="lightgray"></path>
    
      <path d="M 782 309 Q 798 361 817 377 Q 836 398 817 410 Q 801 420 779 434 Q 761 443 724 420 Q 682 405 643 395 C 614 387 623 362 652 371 Q 661 374 729 392 Q 750 396 755 389 Q 759 385 753 360 Q 749 341 742 320 C 733 291 773 280 782 309 Z" fill="lightgray"></path>
    
      <path d="M 664 273 Q 673 273 685 274 Q 716 281 786 286 Q 795 287 796 294 Q 796 300 782 309 C 764 321 764 321 742 320 Q 735 320 729 318 Q 692 308 661 300 C 632 292 634 273 664 273 Z" fill="lightgray"></path>
    
      <path d="M 484 160 Q 500 182 514 193 Q 521 200 519 211 Q 513 235 482 250 C 456 264 444 270 452 243 Q 452 242 453 239 Q 471 200 336 41 Q 321 26 320 23 Q 317 16 328 16 Q 364 20 465 137 Q 466 140 469 142 L 484 160 Z" fill="lightgray"></path>
    
      <path d="M 469 142 Q 473 136 486 126 Q 543 72 554 71 Q 561 71 566 81 Q 570 91 564 113 Q 557 140 484 160 C 455 168 450 166 469 142 Z" fill="lightgray"></path>
    
      <path d="M 708 150 Q 754 210 755 212 L 755 215 Q 752 225 732 244 Q 713 260 699 261 Q 684 261 689 244 Q 701 219 639 129 Q 611 90 571 47 Q 562 40 561 35 Q 557 28 568 28 Q 604 34 696 136 L 708 150 Z" fill="lightgray"></path>
    
      <path d="M 696 136 Q 697 132 703 126 Q 757 80 821 11 Q 834 -5 847 -9 Q 854 -10 861 -2 Q 871 10 860 46 Q 848 92 708 150 C 682 161 682 161 696 136 Z" fill="lightgray"></path>
    
    
      <clipPath id="make-me-a-hanzi-clip-0">
        <path d="M 290 555 Q 368 582 370 583 Q 377 592 372 600 Q 365 612 334 616 Q 310 619 292 611 L 244 592 Q 169 567 114 555 Q 77 545 106 531 Q 151 510 206 530 Q 224 536 244 541 L 290 555 Z"></path>
      </clipPath>
      <path clip-path="url(#make-me-a-hanzi-clip-0)" d="M 107 544 L 130 540 L 178 546 L 306 589 L 339 595 L 366 590" fill="none" id="make-me-a-hanzi-animation-0" stroke-dasharray="396 792" stroke-linecap="round"></path>
    
      <clipPath id="make-me-a-hanzi-clip-1">
        <path d="M 239 360 Q 236 257 235 123 Q 234 98 220 89 Q 213 85 192 91 Q 170 98 147 105 Q 117 118 119 109 Q 120 102 138 86 Q 198 34 213 4 Q 229 -30 245 -32 Q 258 -33 274 0 Q 293 43 293 114 Q 286 259 286 404 L 286 435 Q 287 496 290 555 L 292 611 Q 310 758 312 763 Q 328 791 276 813 Q 245 832 225 825 Q 209 819 223 797 Q 244 770 245 738 Q 246 722 244 592 L 244 541 Q 243 481 240 401 L 239 360 Z"></path>
      </clipPath>
      <path clip-path="url(#make-me-a-hanzi-clip-1)" d="M 232 810 L 272 779 L 277 764 L 263 426 L 263 106 L 257 76 L 240 47 L 190 67 L 137 98 L 135 106 L 125 106" fill="none" id="make-me-a-hanzi-animation-1" stroke-dasharray="1050 2100" stroke-linecap="round"></path>
    
      <clipPath id="make-me-a-hanzi-clip-2">
        <path d="M 240 401 Q 164 349 99 297 Q 71 275 50 267 Q 40 261 38 253 Q 38 246 52 234 Q 71 221 93 217 Q 102 216 121 233 Q 173 299 239 360 L 286 404 Q 296 414 309 425 Q 325 438 334 452 Q 338 465 328 463 Q 321 462 286 435 L 240 401 Z"></path>
      </clipPath>
      <path clip-path="url(#make-me-a-hanzi-clip-2)" d="M 48 252 L 91 251 L 191 343 L 328 456" fill="none" id="make-me-a-hanzi-animation-2" stroke-dasharray="484 968" stroke-linecap="round"></path>
    
      <clipPath id="make-me-a-hanzi-clip-3">
        <path d="M 378 379 Q 477 467 550 598 Q 571 638 595 688 L 606 712 Q 621 748 630 759 Q 636 765 633 775 Q 630 785 616 794 Q 579 821 549 809 Q 540 806 544 794 Q 569 724 462 533 Q 452 520 443 505 Q 406 451 312 344 Q 305 337 315 336 Q 325 339 349 358 Q 356 364 366 370 L 378 379 Z"></path>
      </clipPath>
      <path clip-path="url(#make-me-a-hanzi-clip-3)" d="M 559 797 L 588 766 L 571 706 L 526 602 L 478 520 L 433 460 L 375 394 L 337 358 L 321 351 L 317 341" fill="none" id="make-me-a-hanzi-animation-3" stroke-dasharray="685 1370" stroke-linecap="round"></path>
    
      <clipPath id="make-me-a-hanzi-clip-4">
        <path d="M 595 688 Q 682 579 794 462 Q 812 443 842 445 Q 942 451 974 458 Q 983 459 984 465 Q 984 469 970 476 Q 820 521 751 579 Q 684 637 606 712 C 584 733 576 711 595 688 Z"></path>
      </clipPath>
      <path clip-path="url(#make-me-a-hanzi-clip-4)" d="M 609 703 L 610 689 L 726 568 L 827 486 L 977 464" fill="none" id="make-me-a-hanzi-animation-4" stroke-dasharray="591 1182" stroke-linecap="round"></path>
    
      <clipPath id="make-me-a-hanzi-clip-5">
        <path d="M 525 493 Q 494 486 518 472 Q 554 457 622 476 Q 649 483 680 492 Q 698 496 701 500 Q 708 507 703 514 Q 696 524 671 528 Q 652 531 581 505 Q 554 498 525 493 Z"></path>
      </clipPath>
      <path clip-path="url(#make-me-a-hanzi-clip-5)" d="M 519 483 L 576 484 L 661 508 L 692 508" fill="none" id="make-me-a-hanzi-animation-5" stroke-dasharray="304 608" stroke-linecap="round"></path>
    
      <clipPath id="make-me-a-hanzi-clip-6">
        <path d="M 412 372 Q 403 375 378 379 C 363 381 363 381 366 370 Q 366 366 370 360 Q 391 323 405 263 Q 408 244 419 233 Q 434 217 437 228 Q 438 235 439 243 L 437 267 Q 428 331 424 351 C 420 370 420 370 412 372 Z"></path>
      </clipPath>
      <path clip-path="url(#make-me-a-hanzi-clip-6)" d="M 377 368 L 403 343 L 429 233" fill="none" id="make-me-a-hanzi-animation-6" stroke-dasharray="277 554" stroke-linecap="round"></path>
    
      <clipPath id="make-me-a-hanzi-clip-7">
        <path d="M 544 284 Q 557 341 574 357 Q 590 378 572 389 Q 556 396 535 410 Q 520 417 506 408 Q 488 396 466 388 Q 444 379 412 372 C 383 365 395 343 424 351 Q 457 360 493 368 Q 509 372 513 366 Q 516 363 505 287 C 501 257 537 255 544 284 Z"></path>
      </clipPath>
      <path clip-path="url(#make-me-a-hanzi-clip-7)" d="M 421 370 L 430 364 L 509 389 L 529 386 L 544 369 L 526 304 L 513 300" fill="none" id="make-me-a-hanzi-animation-7" stroke-dasharray="346 692" stroke-linecap="round"></path>
    
      <clipPath id="make-me-a-hanzi-clip-8">
        <path d="M 482 250 Q 507 256 552 261 Q 559 262 561 269 Q 561 275 544 284 L 505 287 L 503 287 Q 466 275 437 267 C 408 259 409 243 439 243 Q 443 243 452 243 L 482 250 Z"></path>
      </clipPath>
      <path clip-path="url(#make-me-a-hanzi-clip-8)" d="M 446 250 L 452 257 L 500 271 L 553 269" fill="none" id="make-me-a-hanzi-animation-8" stroke-dasharray="240 480" stroke-linecap="round"></path>
    
      <clipPath id="make-me-a-hanzi-clip-9">
        <path d="M 643 395 Q 633 399 608 404 Q 599 405 596 402 Q 592 398 598 385 Q 617 348 630 287 Q 631 269 643 257 Q 656 241 661 252 Q 664 259 664 273 L 661 300 Q 654 352 652 371 C 650 393 650 393 643 395 Z"></path>
      </clipPath>
      <path clip-path="url(#make-me-a-hanzi-clip-9)" d="M 603 397 L 630 369 L 653 258" fill="none" id="make-me-a-hanzi-animation-9" stroke-dasharray="280 560" stroke-linecap="round"></path>
    
      <clipPath id="make-me-a-hanzi-clip-10">
        <path d="M 782 309 Q 798 361 817 377 Q 836 398 817 410 Q 801 420 779 434 Q 761 443 724 420 Q 682 405 643 395 C 614 387 623 362 652 371 Q 661 374 729 392 Q 750 396 755 389 Q 759 385 753 360 Q 749 341 742 320 C 733 291 773 280 782 309 Z"></path>
      </clipPath>
      <path clip-path="url(#make-me-a-hanzi-clip-10)" d="M 653 378 L 666 389 L 714 399 L 740 411 L 768 411 L 786 389 L 767 334 L 751 325" fill="none" id="make-me-a-hanzi-animation-10" stroke-dasharray="356 712" stroke-linecap="round"></path>
    
      <clipPath id="make-me-a-hanzi-clip-11">
        <path d="M 664 273 Q 673 273 685 274 Q 716 281 786 286 Q 795 287 796 294 Q 796 300 782 309 C 764 321 764 321 742 320 Q 735 320 729 318 Q 692 308 661 300 C 632 292 634 273 664 273 Z"></path>
      </clipPath>
      <path clip-path="url(#make-me-a-hanzi-clip-11)" d="M 669 280 L 684 290 L 744 301 L 788 294" fill="none" id="make-me-a-hanzi-animation-11" stroke-dasharray="252 504" stroke-linecap="round"></path>
    
      <clipPath id="make-me-a-hanzi-clip-12">
        <path d="M 484 160 Q 500 182 514 193 Q 521 200 519 211 Q 513 235 482 250 C 456 264 444 270 452 243 Q 452 242 453 239 Q 471 200 336 41 Q 321 26 320 23 Q 317 16 328 16 Q 364 20 465 137 Q 466 140 469 142 L 484 160 Z"></path>
      </clipPath>
      <path clip-path="url(#make-me-a-hanzi-clip-12)" d="M 460 243 L 479 226 L 485 210 L 479 198 L 400 90 L 327 23" fill="none" id="make-me-a-hanzi-animation-12" stroke-dasharray="417 834" stroke-linecap="round"></path>
    
      <clipPath id="make-me-a-hanzi-clip-13">
        <path d="M 469 142 Q 473 136 486 126 Q 543 72 554 71 Q 561 71 566 81 Q 570 91 564 113 Q 557 140 484 160 C 455 168 450 166 469 142 Z"></path>
      </clipPath>
      <path clip-path="url(#make-me-a-hanzi-clip-13)" d="M 477 143 L 492 143 L 523 123 L 545 102 L 555 82" fill="none" id="make-me-a-hanzi-animation-13" stroke-dasharray="233 466" stroke-linecap="round"></path>
    
      <clipPath id="make-me-a-hanzi-clip-14">
        <path d="M 708 150 Q 754 210 755 212 L 755 215 Q 752 225 732 244 Q 713 260 699 261 Q 684 261 689 244 Q 701 219 639 129 Q 611 90 571 47 Q 562 40 561 35 Q 557 28 568 28 Q 604 34 696 136 L 708 150 Z"></path>
      </clipPath>
      <path clip-path="url(#make-me-a-hanzi-clip-14)" d="M 698 250 L 713 231 L 718 213 L 698 175 L 646 106 L 569 36" fill="none" id="make-me-a-hanzi-animation-14" stroke-dasharray="404 808" stroke-linecap="round"></path>
    
      <clipPath id="make-me-a-hanzi-clip-15">
        <path d="M 696 136 Q 697 132 703 126 Q 757 80 821 11 Q 834 -5 847 -9 Q 854 -10 861 -2 Q 871 10 860 46 Q 848 92 708 150 C 682 161 682 161 696 136 Z"></path>
      </clipPath>
      <path clip-path="url(#make-me-a-hanzi-clip-15)" d="M 705 135 L 735 123 L 806 68 L 838 32 L 848 6" fill="none" id="make-me-a-hanzi-animation-15" stroke-dasharray="326 652" stroke-linecap="round"></path>
    
  </g>
</svg>