<svg version="1.1" viewBox="0 0 1024 1024" xmlns="http://www.w3.org/2000/svg">
  <g stroke="lightgray" stroke-dasharray="1,1" stroke-width="1" transform="scale(4, 4)">
    <line x1="0" y1="0" x2="256" y2="256"></line>
    <line x1="256" y1="0" x2="0" y2="256"></line>
    <line x1="128" y1="0" x2="128" y2="256"></line>
    <line x1="0" y1="128" x2="256" y2="128"></line>
  </g>
  <g transform="scale(1, -1) translate(0, -900)">
    <style type="text/css">
      
        @keyframes keyframes0 {
          from {
            stroke: blue;
            stroke-dashoffset: 529;
            stroke-width: 128;
          }
          63% {
            animation-timing-function: step-end;
            stroke: blue;
            stroke-dashoffset: 0;
            stroke-width: 128;
          }
          to {
            stroke: black;
            stroke-width: 1024;
          }
        }
        #make-me-a-hanzi-animation-0 {
          animation: keyframes0 0.6805013020833334s both;
          animation-delay: 0s;
          animation-timing-function: linear;
        }
      
        @keyframes keyframes1 {
          from {
            stroke: blue;
            stroke-dashoffset: 1143;
            stroke-width: 128;
          }
          79% {
            animation-timing-function: step-end;
            stroke: blue;
            stroke-dashoffset: 0;
            stroke-width: 128;
          }
          to {
            stroke: black;
            stroke-width: 1024;
          }
        }
        #make-me-a-hanzi-animation-1 {
          animation: keyframes1 1.18017578125s both;
          animation-delay: 0.6805013020833334s;
          animation-timing-function: linear;
        }
      
        @keyframes keyframes2 {
          from {
            stroke: blue;
            stroke-dashoffset: 622;
            stroke-width: 128;
          }
          67% {
            animation-timing-function: step-end;
            stroke: blue;
            stroke-dashoffset: 0;
            stroke-width: 128;
          }
          to {
            stroke: black;
            stroke-width: 1024;
          }
        }
        #make-me-a-hanzi-animation-2 {
          animation: keyframes2 0.7561848958333334s both;
          animation-delay: 1.8606770833333335s;
          animation-timing-function: linear;
        }
      
        @keyframes keyframes3 {
          from {
            stroke: blue;
            stroke-dashoffset: 452;
            stroke-width: 128;
          }
          60% {
            animation-timing-function: step-end;
            stroke: blue;
            stroke-dashoffset: 0;
            stroke-width: 128;
          }
          to {
            stroke: black;
            stroke-width: 1024;
          }
        }
        #make-me-a-hanzi-animation-3 {
          animation: keyframes3 0.6178385416666666s both;
          animation-delay: 2.616861979166667s;
          animation-timing-function: linear;
        }
      
        @keyframes keyframes4 {
          from {
            stroke: blue;
            stroke-dashoffset: 751;
            stroke-width: 128;
          }
          71% {
            animation-timing-function: step-end;
            stroke: blue;
            stroke-dashoffset: 0;
            stroke-width: 128;
          }
          to {
            stroke: black;
            stroke-width: 1024;
          }
        }
        #make-me-a-hanzi-animation-4 {
          animation: keyframes4 0.8611653645833334s both;
          animation-delay: 3.2347005208333335s;
          animation-timing-function: linear;
        }
      
        @keyframes keyframes5 {
          from {
            stroke: blue;
            stroke-dashoffset: 368;
            stroke-width: 128;
          }
          55% {
            animation-timing-function: step-end;
            stroke: blue;
            stroke-dashoffset: 0;
            stroke-width: 128;
          }
          to {
            stroke: black;
            stroke-width: 1024;
          }
        }
        #make-me-a-hanzi-animation-5 {
          animation: keyframes5 0.5494791666666666s both;
          animation-delay: 4.095865885416667s;
          animation-timing-function: linear;
        }
      
        @keyframes keyframes6 {
          from {
            stroke: blue;
            stroke-dashoffset: 388;
            stroke-width: 128;
          }
          56% {
            animation-timing-function: step-end;
            stroke: blue;
            stroke-dashoffset: 0;
            stroke-width: 128;
          }
          to {
            stroke: black;
            stroke-width: 1024;
          }
        }
        #make-me-a-hanzi-animation-6 {
          animation: keyframes6 0.5657552083333334s both;
          animation-delay: 4.645345052083334s;
          animation-timing-function: linear;
        }
      
        @keyframes keyframes7 {
          from {
            stroke: blue;
            stroke-dashoffset: 449;
            stroke-width: 128;
          }
          59% {
            animation-timing-function: step-end;
            stroke: blue;
            stroke-dashoffset: 0;
            stroke-width: 128;
          }
          to {
            stroke: black;
            stroke-width: 1024;
          }
        }
        #make-me-a-hanzi-animation-7 {
          animation: keyframes7 0.6153971354166666s both;
          animation-delay: 5.211100260416667s;
          animation-timing-function: linear;
        }
      
        @keyframes keyframes8 {
          from {
            stroke: blue;
            stroke-dashoffset: 739;
            stroke-width: 128;
          }
          71% {
            animation-timing-function: step-end;
            stroke: blue;
            stroke-dashoffset: 0;
            stroke-width: 128;
          }
          to {
            stroke: black;
            stroke-width: 1024;
          }
        }
        #make-me-a-hanzi-animation-8 {
          animation: keyframes8 0.8513997395833334s both;
          animation-delay: 5.826497395833334s;
          animation-timing-function: linear;
        }
      
        @keyframes keyframes9 {
          from {
            stroke: blue;
            stroke-dashoffset: 410;
            stroke-width: 128;
          }
          57% {
            animation-timing-function: step-end;
            stroke: blue;
            stroke-dashoffset: 0;
            stroke-width: 128;
          }
          to {
            stroke: black;
            stroke-width: 1024;
          }
        }
        #make-me-a-hanzi-animation-9 {
          animation: keyframes9 0.5836588541666666s both;
          animation-delay: 6.677897135416667s;
          animation-timing-function: linear;
        }
      
        @keyframes keyframes10 {
          from {
            stroke: blue;
            stroke-dashoffset: 551;
            stroke-width: 128;
          }
          64% {
            animation-timing-function: step-end;
            stroke: blue;
            stroke-dashoffset: 0;
            stroke-width: 128;
          }
          to {
            stroke: black;
            stroke-width: 1024;
          }
        }
        #make-me-a-hanzi-animation-10 {
          animation: keyframes10 0.6984049479166666s both;
          animation-delay: 7.261555989583334s;
          animation-timing-function: linear;
        }
      
        @keyframes keyframes11 {
          from {
            stroke: blue;
            stroke-dashoffset: 468;
            stroke-width: 128;
          }
          60% {
            animation-timing-function: step-end;
            stroke: blue;
            stroke-dashoffset: 0;
            stroke-width: 128;
          }
          to {
            stroke: black;
            stroke-width: 1024;
          }
        }
        #make-me-a-hanzi-animation-11 {
          animation: keyframes11 0.630859375s both;
          animation-delay: 7.959960937500001s;
          animation-timing-function: linear;
        }
      
        @keyframes keyframes12 {
          from {
            stroke: blue;
            stroke-dashoffset: 557;
            stroke-width: 128;
          }
          64% {
            animation-timing-function: step-end;
            stroke: blue;
            stroke-dashoffset: 0;
            stroke-width: 128;
          }
          to {
            stroke: black;
            stroke-width: 1024;
          }
        }
        #make-me-a-hanzi-animation-12 {
          animation: keyframes12 0.7032877604166666s both;
          animation-delay: 8.5908203125s;
          animation-timing-function: linear;
        }
      
        @keyframes keyframes13 {
          from {
            stroke: blue;
            stroke-dashoffset: 610;
            stroke-width: 128;
          }
          67% {
            animation-timing-function: step-end;
            stroke: blue;
            stroke-dashoffset: 0;
            stroke-width: 128;
          }
          to {
            stroke: black;
            stroke-width: 1024;
          }
        }
        #make-me-a-hanzi-animation-13 {
          animation: keyframes13 0.7464192708333334s both;
          animation-delay: 9.294108072916666s;
          animation-timing-function: linear;
        }
      
        @keyframes keyframes14 {
          from {
            stroke: blue;
            stroke-dashoffset: 416;
            stroke-width: 128;
          }
          58% {
            animation-timing-function: step-end;
            stroke: blue;
            stroke-dashoffset: 0;
            stroke-width: 128;
          }
          to {
            stroke: black;
            stroke-width: 1024;
          }
        }
        #make-me-a-hanzi-animation-14 {
          animation: keyframes14 0.5885416666666666s both;
          animation-delay: 10.04052734375s;
          animation-timing-function: linear;
        }
      
        @keyframes keyframes15 {
          from {
            stroke: blue;
            stroke-dashoffset: 709;
            stroke-width: 128;
          }
          70% {
            animation-timing-function: step-end;
            stroke: blue;
            stroke-dashoffset: 0;
            stroke-width: 128;
          }
          to {
            stroke: black;
            stroke-width: 1024;
          }
        }
        #make-me-a-hanzi-animation-15 {
          animation: keyframes15 0.8269856770833334s both;
          animation-delay: 10.629069010416666s;
          animation-timing-function: linear;
        }
      
    </style>
    
      <path d="M 307 539 Q 391 566 393 567 Q 400 576 396 584 Q 389 596 358 601 Q 333 605 308 596 L 260 576 Q 164 552 131 547 Q 94 538 122 523 Q 164 502 224 519 Q 239 523 260 527 L 307 539 Z" fill="lightgray"></path>
    
      <path d="M 258 334 Q 257 243 257 128 Q 256 106 244 96 Q 235 90 215 98 Q 190 105 168 110 Q 137 123 139 113 Q 140 106 159 91 Q 222 40 237 11 Q 256 -23 271 -24 Q 286 -25 300 8 Q 318 51 316 123 Q 307 252 306 380 L 306 414 Q 305 477 307 539 L 308 596 Q 308 674 325 735 Q 341 763 288 785 Q 255 803 237 796 Q 221 790 236 768 Q 257 743 258 709 Q 259 693 260 576 L 260 527 Q 259 466 258 380 L 258 334 Z" fill="lightgray"></path>
    
      <path d="M 258 380 Q 183 329 119 280 Q 86 258 64 248 Q 51 241 51 232 Q 51 223 66 210 Q 88 197 111 191 Q 123 191 142 208 Q 173 250 258 334 L 306 380 Q 360 434 361 436 Q 367 449 356 448 Q 341 444 306 414 L 258 380 Z" fill="lightgray"></path>
    
      <path d="M 458 768 Q 448 772 422 775 Q 412 778 408 773 Q 404 767 411 753 Q 436 707 455 628 Q 459 606 473 590 Q 489 571 494 585 Q 495 591 496 599 L 495 619 Q 480 694 473 736 C 468 765 468 765 458 768 Z" fill="lightgray"></path>
    
      <path d="M 696 623 Q 708 602 720 594 Q 730 587 745 604 Q 757 617 787 698 Q 797 726 820 748 Q 833 760 822 773 Q 809 789 770 816 Q 755 825 671 808 Q 665 808 458 768 C 429 762 444 729 473 736 Q 497 742 530 750 L 552 754 Q 583 763 624 768 L 663 774 Q 678 778 695 779 Q 726 783 736 773 Q 743 763 741 754 Q 722 675 714 663 Q 708 653 695 651 C 682 645 682 645 696 623 Z" fill="lightgray"></path>
    
      <path d="M 576 637 Q 577 658 558 738 Q 558 747 552 754 C 534 778 527 780 530 750 Q 539 648 555 632 C 574 609 576 607 576 637 Z" fill="lightgray"></path>
    
      <path d="M 639 652 Q 654 674 670 717 Q 674 727 682 740 Q 692 752 684 759 Q 677 768 663 774 C 636 787 612 795 624 768 Q 634 752 622 671 Q 618 658 618 647 C 617 618 623 627 639 652 Z" fill="lightgray"></path>
    
      <path d="M 496 599 Q 506 596 521 598 Q 621 614 696 623 C 726 627 723 640 695 651 Q 689 654 683 655 Q 665 658 639 652 L 618 647 Q 596 643 576 637 L 555 632 Q 522 628 495 619 C 466 610 467 605 496 599 Z" fill="lightgray"></path>
    
      <path d="M 394 519 Q 376 518 390 503 Q 402 491 418 487 Q 436 483 450 487 Q 615 535 858 534 Q 876 535 879 542 Q 883 552 869 564 Q 820 600 764 581 Q 629 556 394 519 Z" fill="lightgray"></path>
    
      <path d="M 507 451 Q 497 455 470 460 Q 460 461 456 457 Q 452 451 459 438 Q 480 404 495 346 Q 498 328 509 318 Q 521 305 527 308 C 537 308 534 325 530 355 Q 523 403 521 422 C 518 447 518 447 507 451 Z" fill="lightgray"></path>
    
      <path d="M 717 376 Q 739 412 761 423 Q 776 438 764 454 Q 751 467 707 491 Q 692 498 673 492 Q 606 465 507 451 C 477 447 491 417 521 422 Q 530 423 542 427 Q 603 437 661 448 Q 677 452 683 445 Q 687 441 685 430 Q 678 405 670 383 C 660 355 701 351 717 376 Z" fill="lightgray"></path>
    
      <path d="M 564 329 Q 613 341 725 350 Q 735 351 736 358 Q 736 364 717 376 L 670 383 L 669 383 Q 593 364 532 356 Q 529 356 530 355 C 466 339 506 316 564 329 Z" fill="lightgray"></path>
    
      <path d="M 590 304 Q 583 319 564 329 C 545 340 542 334 527 308 Q 488 236 415 171 Q 388 152 346 122 Q 339 118 347 115 Q 386 109 485 180 Q 486 183 508 199 L 538 228 Q 586 276 592 280 C 600 287 600 287 590 304 Z" fill="lightgray"></path>
    
      <path d="M 508 199 Q 533 126 504 48 Q 474 5 522 -36 Q 523 -37 526 -39 Q 536 -45 546 -27 Q 573 16 665 128 Q 678 144 679 151 Q 679 163 662 150 Q 566 77 561 77 Q 555 80 554 92 Q 558 167 563 186 Q 567 204 555 214 Q 546 223 538 228 C 514 246 499 228 508 199 Z" fill="lightgray"></path>
    
      <path d="M 700 224 Q 782 279 823 298 Q 839 302 837 313 Q 831 328 814 346 Q 796 364 776 366 Q 761 366 762 348 Q 763 326 686 235 C 667 212 675 207 700 224 Z" fill="lightgray"></path>
    
      <path d="M 686 235 Q 662 257 637 284 Q 621 302 594 304 Q 590 305 590 304 C 560 307 566 296 592 280 L 593 280 Q 621 265 693 178 Q 801 49 865 55 Q 868 56 874 57 Q 964 78 975 82 Q 981 89 971 95 Q 958 101 858 129 Q 786 148 700 224 L 686 235 Z" fill="lightgray"></path>
    
    
      <clipPath id="make-me-a-hanzi-clip-0">
        <path d="M 307 539 Q 391 566 393 567 Q 400 576 396 584 Q 389 596 358 601 Q 333 605 308 596 L 260 576 Q 164 552 131 547 Q 94 538 122 523 Q 164 502 224 519 Q 239 523 260 527 L 307 539 Z"></path>
      </clipPath>
      <path clip-path="url(#make-me-a-hanzi-clip-0)" d="M 123 536 L 169 532 L 272 555 L 331 575 L 363 580 L 389 575" fill="none" id="make-me-a-hanzi-animation-0" stroke-dasharray="401 802" stroke-linecap="round"></path>
    
      <clipPath id="make-me-a-hanzi-clip-1">
        <path d="M 258 334 Q 257 243 257 128 Q 256 106 244 96 Q 235 90 215 98 Q 190 105 168 110 Q 137 123 139 113 Q 140 106 159 91 Q 222 40 237 11 Q 256 -23 271 -24 Q 286 -25 300 8 Q 318 51 316 123 Q 307 252 306 380 L 306 414 Q 305 477 307 539 L 308 596 Q 308 674 325 735 Q 341 763 288 785 Q 255 803 237 796 Q 221 790 236 768 Q 257 743 258 709 Q 259 693 260 576 L 260 527 Q 259 466 258 380 L 258 334 Z"></path>
      </clipPath>
      <path clip-path="url(#make-me-a-hanzi-clip-1)" d="M 244 782 L 285 751 L 290 737 L 283 633 L 281 405 L 286 114 L 280 83 L 265 54 L 230 65 L 145 111" fill="none" id="make-me-a-hanzi-animation-1" stroke-dasharray="1015 2030" stroke-linecap="round"></path>
    
      <clipPath id="make-me-a-hanzi-clip-2">
        <path d="M 258 380 Q 183 329 119 280 Q 86 258 64 248 Q 51 241 51 232 Q 51 223 66 210 Q 88 197 111 191 Q 123 191 142 208 Q 173 250 258 334 L 306 380 Q 360 434 361 436 Q 367 449 356 448 Q 341 444 306 414 L 258 380 Z"></path>
      </clipPath>
      <path clip-path="url(#make-me-a-hanzi-clip-2)" d="M 65 232 L 113 232 L 354 440" fill="none" id="make-me-a-hanzi-animation-2" stroke-dasharray="494 988" stroke-linecap="round"></path>
    
      <clipPath id="make-me-a-hanzi-clip-3">
        <path d="M 458 768 Q 448 772 422 775 Q 412 778 408 773 Q 404 767 411 753 Q 436 707 455 628 Q 459 606 473 590 Q 489 571 494 585 Q 495 591 496 599 L 495 619 Q 480 694 473 736 C 468 765 468 765 458 768 Z"></path>
      </clipPath>
      <path clip-path="url(#make-me-a-hanzi-clip-3)" d="M 416 768 L 441 747 L 449 731 L 484 590" fill="none" id="make-me-a-hanzi-animation-3" stroke-dasharray="324 648" stroke-linecap="round"></path>
    
      <clipPath id="make-me-a-hanzi-clip-4">
        <path d="M 696 623 Q 708 602 720 594 Q 730 587 745 604 Q 757 617 787 698 Q 797 726 820 748 Q 833 760 822 773 Q 809 789 770 816 Q 755 825 671 808 Q 665 808 458 768 C 429 762 444 729 473 736 Q 497 742 530 750 L 552 754 Q 583 763 624 768 L 663 774 Q 678 778 695 779 Q 726 783 736 773 Q 743 763 741 754 Q 722 675 714 663 Q 708 653 695 651 C 682 645 682 645 696 623 Z"></path>
      </clipPath>
      <path clip-path="url(#make-me-a-hanzi-clip-4)" d="M 473 768 L 489 756 L 528 768 L 706 798 L 758 791 L 779 760 L 750 677 L 725 632 L 704 644" fill="none" id="make-me-a-hanzi-animation-4" stroke-dasharray="623 1246" stroke-linecap="round"></path>
    
      <clipPath id="make-me-a-hanzi-clip-5">
        <path d="M 576 637 Q 577 658 558 738 Q 558 747 552 754 C 534 778 527 780 530 750 Q 539 648 555 632 C 574 609 576 607 576 637 Z"></path>
      </clipPath>
      <path clip-path="url(#make-me-a-hanzi-clip-5)" d="M 548 746 L 543 737 L 550 697 L 559 655 L 570 640" fill="none" id="make-me-a-hanzi-animation-5" stroke-dasharray="240 480" stroke-linecap="round"></path>
    
      <clipPath id="make-me-a-hanzi-clip-6">
        <path d="M 639 652 Q 654 674 670 717 Q 674 727 682 740 Q 692 752 684 759 Q 677 768 663 774 C 636 787 612 795 624 768 Q 634 752 622 671 Q 618 658 618 647 C 617 618 623 627 639 652 Z"></path>
      </clipPath>
      <path clip-path="url(#make-me-a-hanzi-clip-6)" d="M 631 767 L 655 746 L 636 674 L 622 652" fill="none" id="make-me-a-hanzi-animation-6" stroke-dasharray="260 520" stroke-linecap="round"></path>
    
      <clipPath id="make-me-a-hanzi-clip-7">
        <path d="M 496 599 Q 506 596 521 598 Q 621 614 696 623 C 726 627 723 640 695 651 Q 689 654 683 655 Q 665 658 639 652 L 618 647 Q 596 643 576 637 L 555 632 Q 522 628 495 619 C 466 610 467 605 496 599 Z"></path>
      </clipPath>
      <path clip-path="url(#make-me-a-hanzi-clip-7)" d="M 503 604 L 519 613 L 638 634 L 675 638 L 689 630" fill="none" id="make-me-a-hanzi-animation-7" stroke-dasharray="321 642" stroke-linecap="round"></path>
    
      <clipPath id="make-me-a-hanzi-clip-8">
        <path d="M 394 519 Q 376 518 390 503 Q 402 491 418 487 Q 436 483 450 487 Q 615 535 858 534 Q 876 535 879 542 Q 883 552 869 564 Q 820 600 764 581 Q 629 556 394 519 Z"></path>
      </clipPath>
      <path clip-path="url(#make-me-a-hanzi-clip-8)" d="M 392 511 L 435 505 L 583 534 L 803 561 L 869 547" fill="none" id="make-me-a-hanzi-animation-8" stroke-dasharray="611 1222" stroke-linecap="round"></path>
    
      <clipPath id="make-me-a-hanzi-clip-9">
        <path d="M 507 451 Q 497 455 470 460 Q 460 461 456 457 Q 452 451 459 438 Q 480 404 495 346 Q 498 328 509 318 Q 521 305 527 308 C 537 308 534 325 530 355 Q 523 403 521 422 C 518 447 518 447 507 451 Z"></path>
      </clipPath>
      <path clip-path="url(#make-me-a-hanzi-clip-9)" d="M 464 452 L 490 431 L 498 415 L 512 343 L 524 316" fill="none" id="make-me-a-hanzi-animation-9" stroke-dasharray="282 564" stroke-linecap="round"></path>
    
      <clipPath id="make-me-a-hanzi-clip-10">
        <path d="M 717 376 Q 739 412 761 423 Q 776 438 764 454 Q 751 467 707 491 Q 692 498 673 492 Q 606 465 507 451 C 477 447 491 417 521 422 Q 530 423 542 427 Q 603 437 661 448 Q 677 452 683 445 Q 687 441 685 430 Q 678 405 670 383 C 660 355 701 351 717 376 Z"></path>
      </clipPath>
      <path clip-path="url(#make-me-a-hanzi-clip-10)" d="M 516 450 L 532 440 L 690 470 L 703 464 L 721 440 L 704 404 L 678 386" fill="none" id="make-me-a-hanzi-animation-10" stroke-dasharray="423 846" stroke-linecap="round"></path>
    
      <clipPath id="make-me-a-hanzi-clip-11">
        <path d="M 564 329 Q 613 341 725 350 Q 735 351 736 358 Q 736 364 717 376 L 670 383 L 669 383 Q 593 364 532 356 Q 529 356 530 355 C 466 339 506 316 564 329 Z"></path>
      </clipPath>
      <path clip-path="url(#make-me-a-hanzi-clip-11)" d="M 531 316 L 555 344 L 665 364 L 728 358" fill="none" id="make-me-a-hanzi-animation-11" stroke-dasharray="340 680" stroke-linecap="round"></path>
    
      <clipPath id="make-me-a-hanzi-clip-12">
        <path d="M 590 304 Q 583 319 564 329 C 545 340 542 334 527 308 Q 488 236 415 171 Q 388 152 346 122 Q 339 118 347 115 Q 386 109 485 180 Q 486 183 508 199 L 538 228 Q 586 276 592 280 C 600 287 600 287 590 304 Z"></path>
      </clipPath>
      <path clip-path="url(#make-me-a-hanzi-clip-12)" d="M 584 285 L 560 293 L 465 188 L 402 143 L 351 119" fill="none" id="make-me-a-hanzi-animation-12" stroke-dasharray="429 858" stroke-linecap="round"></path>
    
      <clipPath id="make-me-a-hanzi-clip-13">
        <path d="M 508 199 Q 533 126 504 48 Q 474 5 522 -36 Q 523 -37 526 -39 Q 536 -45 546 -27 Q 573 16 665 128 Q 678 144 679 151 Q 679 163 662 150 Q 566 77 561 77 Q 555 80 554 92 Q 558 167 563 186 Q 567 204 555 214 Q 546 223 538 228 C 514 246 499 228 508 199 Z"></path>
      </clipPath>
      <path clip-path="url(#make-me-a-hanzi-clip-13)" d="M 537 219 L 535 82 L 544 40 L 581 60 L 636 117 L 651 125 L 654 138 L 664 139 L 671 149" fill="none" id="make-me-a-hanzi-animation-13" stroke-dasharray="482 964" stroke-linecap="round"></path>
    
      <clipPath id="make-me-a-hanzi-clip-14">
        <path d="M 700 224 Q 782 279 823 298 Q 839 302 837 313 Q 831 328 814 346 Q 796 364 776 366 Q 761 366 762 348 Q 763 326 686 235 C 667 212 675 207 700 224 Z"></path>
      </clipPath>
      <path clip-path="url(#make-me-a-hanzi-clip-14)" d="M 775 352 L 790 320 L 719 252 L 704 240 L 697 242" fill="none" id="make-me-a-hanzi-animation-14" stroke-dasharray="288 576" stroke-linecap="round"></path>
    
      <clipPath id="make-me-a-hanzi-clip-15">
        <path d="M 686 235 Q 662 257 637 284 Q 621 302 594 304 Q 590 305 590 304 C 560 307 566 296 592 280 L 593 280 Q 621 265 693 178 Q 801 49 865 55 Q 868 56 874 57 Q 964 78 975 82 Q 981 89 971 95 Q 958 101 858 129 Q 786 148 700 224 L 686 235 Z"></path>
      </clipPath>
      <path clip-path="url(#make-me-a-hanzi-clip-15)" d="M 592 298 L 632 268 L 715 182 L 815 107 L 855 92 L 971 88" fill="none" id="make-me-a-hanzi-animation-15" stroke-dasharray="581 1162" stroke-linecap="round"></path>
    
  </g>
</svg>