<svg version="1.1" viewBox="0 0 1024 1024" xmlns="http://www.w3.org/2000/svg">
  <g stroke="lightgray" stroke-dasharray="1,1" stroke-width="1" transform="scale(4, 4)">
    <line x1="0" y1="0" x2="256" y2="256"></line>
    <line x1="256" y1="0" x2="0" y2="256"></line>
    <line x1="128" y1="0" x2="128" y2="256"></line>
    <line x1="0" y1="128" x2="256" y2="128"></line>
  </g>
  <g transform="scale(1, -1) translate(0, -900)">
    <style type="text/css">
      
        @keyframes keyframes0 {
          from {
            stroke: blue;
            stroke-dashoffset: 480;
            stroke-width: 128;
          }
          61% {
            animation-timing-function: step-end;
            stroke: blue;
            stroke-dashoffset: 0;
            stroke-width: 128;
          }
          to {
            stroke: black;
            stroke-width: 1024;
          }
        }
        #make-me-a-hanzi-animation-0 {
          animation: keyframes0 0.640625s both;
          animation-delay: 0s;
          animation-timing-function: linear;
        }
      
        @keyframes keyframes1 {
          from {
            stroke: blue;
            stroke-dashoffset: 432;
            stroke-width: 128;
          }
          58% {
            animation-timing-function: step-end;
            stroke: blue;
            stroke-dashoffset: 0;
            stroke-width: 128;
          }
          to {
            stroke: black;
            stroke-width: 1024;
          }
        }
        #make-me-a-hanzi-animation-1 {
          animation: keyframes1 0.6015625s both;
          animation-delay: 0.640625s;
          animation-timing-function: linear;
        }
      
        @keyframes keyframes2 {
          from {
            stroke: blue;
            stroke-dashoffset: 710;
            stroke-width: 128;
          }
          70% {
            animation-timing-function: step-end;
            stroke: blue;
            stroke-dashoffset: 0;
            stroke-width: 128;
          }
          to {
            stroke: black;
            stroke-width: 1024;
          }
        }
        #make-me-a-hanzi-animation-2 {
          animation: keyframes2 0.8277994791666666s both;
          animation-delay: 1.2421875s;
          animation-timing-function: linear;
        }
      
        @keyframes keyframes3 {
          from {
            stroke: blue;
            stroke-dashoffset: 396;
            stroke-width: 128;
          }
          56% {
            animation-timing-function: step-end;
            stroke: blue;
            stroke-dashoffset: 0;
            stroke-width: 128;
          }
          to {
            stroke: black;
            stroke-width: 1024;
          }
        }
        #make-me-a-hanzi-animation-3 {
          animation: keyframes3 0.572265625s both;
          animation-delay: 2.0699869791666665s;
          animation-timing-function: linear;
        }
      
        @keyframes keyframes4 {
          from {
            stroke: blue;
            stroke-dashoffset: 476;
            stroke-width: 128;
          }
          61% {
            animation-timing-function: step-end;
            stroke: blue;
            stroke-dashoffset: 0;
            stroke-width: 128;
          }
          to {
            stroke: black;
            stroke-width: 1024;
          }
        }
        #make-me-a-hanzi-animation-4 {
          animation: keyframes4 0.6373697916666666s both;
          animation-delay: 2.6422526041666665s;
          animation-timing-function: linear;
        }
      
        @keyframes keyframes5 {
          from {
            stroke: blue;
            stroke-dashoffset: 397;
            stroke-width: 128;
          }
          56% {
            animation-timing-function: step-end;
            stroke: blue;
            stroke-dashoffset: 0;
            stroke-width: 128;
          }
          to {
            stroke: black;
            stroke-width: 1024;
          }
        }
        #make-me-a-hanzi-animation-5 {
          animation: keyframes5 0.5730794270833334s both;
          animation-delay: 3.279622395833333s;
          animation-timing-function: linear;
        }
      
        @keyframes keyframes6 {
          from {
            stroke: blue;
            stroke-dashoffset: 349;
            stroke-width: 128;
          }
          53% {
            animation-timing-function: step-end;
            stroke: blue;
            stroke-dashoffset: 0;
            stroke-width: 128;
          }
          to {
            stroke: black;
            stroke-width: 1024;
          }
        }
        #make-me-a-hanzi-animation-6 {
          animation: keyframes6 0.5340169270833334s both;
          animation-delay: 3.8527018229166665s;
          animation-timing-function: linear;
        }
      
        @keyframes keyframes7 {
          from {
            stroke: blue;
            stroke-dashoffset: 533;
            stroke-width: 128;
          }
          63% {
            animation-timing-function: step-end;
            stroke: blue;
            stroke-dashoffset: 0;
            stroke-width: 128;
          }
          to {
            stroke: black;
            stroke-width: 1024;
          }
        }
        #make-me-a-hanzi-animation-7 {
          animation: keyframes7 0.6837565104166666s both;
          animation-delay: 4.38671875s;
          animation-timing-function: linear;
        }
      
        @keyframes keyframes8 {
          from {
            stroke: blue;
            stroke-dashoffset: 318;
            stroke-width: 128;
          }
          51% {
            animation-timing-function: step-end;
            stroke: blue;
            stroke-dashoffset: 0;
            stroke-width: 128;
          }
          to {
            stroke: black;
            stroke-width: 1024;
          }
        }
        #make-me-a-hanzi-animation-8 {
          animation: keyframes8 0.5087890625s both;
          animation-delay: 5.070475260416667s;
          animation-timing-function: linear;
        }
      
        @keyframes keyframes9 {
          from {
            stroke: blue;
            stroke-dashoffset: 372;
            stroke-width: 128;
          }
          55% {
            animation-timing-function: step-end;
            stroke: blue;
            stroke-dashoffset: 0;
            stroke-width: 128;
          }
          to {
            stroke: black;
            stroke-width: 1024;
          }
        }
        #make-me-a-hanzi-animation-9 {
          animation: keyframes9 0.552734375s both;
          animation-delay: 5.579264322916667s;
          animation-timing-function: linear;
        }
      
        @keyframes keyframes10 {
          from {
            stroke: blue;
            stroke-dashoffset: 608;
            stroke-width: 128;
          }
          66% {
            animation-timing-function: step-end;
            stroke: blue;
            stroke-dashoffset: 0;
            stroke-width: 128;
          }
          to {
            stroke: black;
            stroke-width: 1024;
          }
        }
        #make-me-a-hanzi-animation-10 {
          animation: keyframes10 0.7447916666666666s both;
          animation-delay: 6.131998697916667s;
          animation-timing-function: linear;
        }
      
        @keyframes keyframes11 {
          from {
            stroke: blue;
            stroke-dashoffset: 533;
            stroke-width: 128;
          }
          63% {
            animation-timing-function: step-end;
            stroke: blue;
            stroke-dashoffset: 0;
            stroke-width: 128;
          }
          to {
            stroke: black;
            stroke-width: 1024;
          }
        }
        #make-me-a-hanzi-animation-11 {
          animation: keyframes11 0.6837565104166666s both;
          animation-delay: 6.876790364583334s;
          animation-timing-function: linear;
        }
      
        @keyframes keyframes12 {
          from {
            stroke: blue;
            stroke-dashoffset: 435;
            stroke-width: 128;
          }
          59% {
            animation-timing-function: step-end;
            stroke: blue;
            stroke-dashoffset: 0;
            stroke-width: 128;
          }
          to {
            stroke: black;
            stroke-width: 1024;
          }
        }
        #make-me-a-hanzi-animation-12 {
          animation: keyframes12 0.60400390625s both;
          animation-delay: 7.560546875000001s;
          animation-timing-function: linear;
        }
      
        @keyframes keyframes13 {
          from {
            stroke: blue;
            stroke-dashoffset: 538;
            stroke-width: 128;
          }
          64% {
            animation-timing-function: step-end;
            stroke: blue;
            stroke-dashoffset: 0;
            stroke-width: 128;
          }
          to {
            stroke: black;
            stroke-width: 1024;
          }
        }
        #make-me-a-hanzi-animation-13 {
          animation: keyframes13 0.6878255208333334s both;
          animation-delay: 8.16455078125s;
          animation-timing-function: linear;
        }
      
        @keyframes keyframes14 {
          from {
            stroke: blue;
            stroke-dashoffset: 616;
            stroke-width: 128;
          }
          67% {
            animation-timing-function: step-end;
            stroke: blue;
            stroke-dashoffset: 0;
            stroke-width: 128;
          }
          to {
            stroke: black;
            stroke-width: 1024;
          }
        }
        #make-me-a-hanzi-animation-14 {
          animation: keyframes14 0.7513020833333334s both;
          animation-delay: 8.852376302083334s;
          animation-timing-function: linear;
        }
      
        @keyframes keyframes15 {
          from {
            stroke: blue;
            stroke-dashoffset: 970;
            stroke-width: 128;
          }
          76% {
            animation-timing-function: step-end;
            stroke: blue;
            stroke-dashoffset: 0;
            stroke-width: 128;
          }
          to {
            stroke: black;
            stroke-width: 1024;
          }
        }
        #make-me-a-hanzi-animation-15 {
          animation: keyframes15 1.0393880208333333s both;
          animation-delay: 9.603678385416668s;
          animation-timing-function: linear;
        }
      
        @keyframes keyframes16 {
          from {
            stroke: blue;
            stroke-dashoffset: 786;
            stroke-width: 128;
          }
          72% {
            animation-timing-function: step-end;
            stroke: blue;
            stroke-dashoffset: 0;
            stroke-width: 128;
          }
          to {
            stroke: black;
            stroke-width: 1024;
          }
        }
        #make-me-a-hanzi-animation-16 {
          animation: keyframes16 0.8896484375s both;
          animation-delay: 10.643066406250002s;
          animation-timing-function: linear;
        }
      
    </style>
    
      <path d="M 444 690 Q 462 733 483 744 Q 495 759 484 772 Q 471 782 432 800 Q 419 806 402 799 Q 381 790 293 763 C 264 754 271 730 300 737 Q 303 738 397 759 Q 407 762 413 758 Q 417 752 406 698 C 400 669 432 663 444 690 Z" fill="lightgray"></path>
    
      <path d="M 279 634 Q 286 633 297 636 Q 346 649 451 665 Q 460 666 461 674 Q 461 681 444 690 C 424 701 424 701 406 698 Q 399 697 393 695 Q 332 676 284 664 C 255 657 249 635 279 634 Z" fill="lightgray"></path>
    
      <path d="M 262 571 Q 271 599 279 634 L 284 664 Q 285 677 289 692 Q 293 714 300 737 C 306 756 306 756 293 763 Q 286 769 265 775 Q 246 779 238 777 Q 228 771 232 759 Q 268 654 188 504 Q 115 396 96 371 Q 92 364 97 362 Q 104 361 112 367 Q 214 442 253 546 L 262 571 Z" fill="lightgray"></path>
    
      <path d="M 290 564 Q 281 568 262 571 C 240 575 241 573 253 546 Q 269 512 279 456 Q 280 437 291 425 Q 304 409 309 420 Q 312 429 312 443 L 310 469 Q 303 527 303 543 C 303 559 303 559 290 564 Z" fill="lightgray"></path>
    
      <path d="M 436 494 Q 449 536 464 548 Q 482 567 464 579 Q 413 606 412 606 Q 405 607 398 602 Q 364 581 290 564 C 261 557 274 535 303 543 Q 307 544 314 546 Q 348 555 379 562 Q 398 566 404 559 Q 410 553 394 493 C 386 464 427 465 436 494 Z" fill="lightgray"></path>
    
      <path d="M 312 443 Q 318 442 326 444 Q 366 454 452 467 Q 459 468 461 476 Q 461 482 436 494 C 421 501 421 501 394 493 Q 345 478 310 469 C 281 461 282 445 312 443 Z" fill="lightgray"></path>
    
      <path d="M 628 823 Q 671 787 686 788 Q 695 789 697 800 Q 700 812 690 834 Q 686 847 664 853 Q 616 863 604 859 Q 600 855 602 845 Q 606 838 628 823 Z" fill="lightgray"></path>
    
      <path d="M 727 739 Q 742 743 759 745 Q 796 752 802 757 Q 809 764 806 770 Q 800 780 777 787 Q 756 793 676 770 Q 546 751 528 749 Q 498 746 519 731 Q 547 713 636 725 Q 664 729 695 734 L 727 739 Z" fill="lightgray"></path>
    
      <path d="M 556 686 Q 583 638 601 636 Q 611 633 618 647 Q 619 657 615 673 Q 609 685 594 691 Q 572 704 562 706 Q 555 707 553 699 Q 552 693 556 686 Z" fill="lightgray"></path>
    
      <path d="M 691 638 Q 692 641 696 644 Q 709 660 723 681 Q 729 691 740 702 Q 750 709 746 718 Q 742 728 727 739 C 703 757 693 764 695 734 Q 698 716 669 647 Q 665 640 663 632 C 655 603 675 613 691 638 Z" fill="lightgray"></path>
    
      <path d="M 682 600 Q 715 607 836 620 Q 845 619 853 630 Q 854 640 835 649 Q 808 670 716 644 Q 703 641 691 638 L 663 632 Q 630 628 500 612 Q 475 611 494 595 Q 524 574 572 583 Q 597 589 631 592 L 682 600 Z" fill="lightgray"></path>
    
      <path d="M 677 509 Q 716 515 793 515 Q 808 516 811 523 Q 815 532 802 541 Q 757 569 707 554 Q 694 551 680 547 L 635 538 Q 580 529 520 517 Q 505 516 517 502 Q 527 493 542 489 Q 558 486 569 490 Q 600 500 636 503 L 677 509 Z" fill="lightgray"></path>
    
      <path d="M 641 443 Q 644 425 649 418 Q 653 414 658 415 Q 676 430 677 509 L 680 547 Q 686 595 682 600 C 675 629 626 622 631 592 Q 631 591 632 588 Q 633 567 635 538 L 636 503 Q 636 484 641 443 Z" fill="lightgray"></path>
    
      <path d="M 503 387 Q 543 405 597 407 Q 612 406 615 412 Q 619 421 611 431 Q 595 447 559 465 Q 547 474 536 474 Q 529 471 528 462 Q 525 429 342 370 Q 336 363 341 360 Q 353 357 433 372 Q 449 375 466 377 L 503 387 Z" fill="lightgray"></path>
    
      <path d="M 546 289 Q 657 304 669 314 Q 678 321 674 329 Q 668 341 642 348 Q 618 354 542 334 L 487 320 Q 477 320 465 317 Q 395 305 314 301 Q 280 297 304 281 Q 337 256 392 266 Q 441 273 494 281 L 546 289 Z" fill="lightgray"></path>
    
      <path d="M 554 188 Q 570 188 847 189 Q 869 188 874 197 Q 881 210 863 225 Q 806 267 768 260 Q 684 245 551 227 L 500 221 Q 497 222 494 221 Q 340 205 158 187 Q 136 186 152 167 Q 167 151 185 145 Q 207 139 225 143 Q 354 176 502 184 L 554 188 Z" fill="lightgray"></path>
    
      <path d="M 502 184 Q 506 85 488 51 Q 487 47 481 44 Q 469 41 384 56 Q 377 56 374 53 Q 373 49 381 41 Q 442 -11 474 -49 Q 486 -62 493 -60 Q 502 -60 518 -44 Q 555 -13 556 72 Q 556 112 554 188 L 551 227 Q 548 270 546 289 L 542 334 Q 542 364 529 373 Q 516 382 503 387 C 476 400 449 402 466 377 Q 481 361 487 320 L 494 281 Q 497 254 500 221 L 502 184 Z" fill="lightgray"></path>
    
    
      <clipPath id="make-me-a-hanzi-clip-0">
        <path d="M 444 690 Q 462 733 483 744 Q 495 759 484 772 Q 471 782 432 800 Q 419 806 402 799 Q 381 790 293 763 C 264 754 271 730 300 737 Q 303 738 397 759 Q 407 762 413 758 Q 417 752 406 698 C 400 669 432 663 444 690 Z"></path>
      </clipPath>
      <path clip-path="url(#make-me-a-hanzi-clip-0)" d="M 300 744 L 327 760 L 421 780 L 447 756 L 429 713 L 415 709" fill="none" id="make-me-a-hanzi-animation-0" stroke-dasharray="352 704" stroke-linecap="round"></path>
    
      <clipPath id="make-me-a-hanzi-clip-1">
        <path d="M 279 634 Q 286 633 297 636 Q 346 649 451 665 Q 460 666 461 674 Q 461 681 444 690 C 424 701 424 701 406 698 Q 399 697 393 695 Q 332 676 284 664 C 255 657 249 635 279 634 Z"></path>
      </clipPath>
      <path clip-path="url(#make-me-a-hanzi-clip-1)" d="M 283 641 L 306 655 L 404 678 L 452 674" fill="none" id="make-me-a-hanzi-animation-1" stroke-dasharray="304 608" stroke-linecap="round"></path>
    
      <clipPath id="make-me-a-hanzi-clip-2">
        <path d="M 262 571 Q 271 599 279 634 L 284 664 Q 285 677 289 692 Q 293 714 300 737 C 306 756 306 756 293 763 Q 286 769 265 775 Q 246 779 238 777 Q 228 771 232 759 Q 268 654 188 504 Q 115 396 96 371 Q 92 364 97 362 Q 104 361 112 367 Q 214 442 253 546 L 262 571 Z"></path>
      </clipPath>
      <path clip-path="url(#make-me-a-hanzi-clip-2)" d="M 244 765 L 269 737 L 261 645 L 232 546 L 192 473 L 104 367" fill="none" id="make-me-a-hanzi-animation-2" stroke-dasharray="582 1164" stroke-linecap="round"></path>
    
      <clipPath id="make-me-a-hanzi-clip-3">
        <path d="M 290 564 Q 281 568 262 571 C 240 575 241 573 253 546 Q 269 512 279 456 Q 280 437 291 425 Q 304 409 309 420 Q 312 429 312 443 L 310 469 Q 303 527 303 543 C 303 559 303 559 290 564 Z"></path>
      </clipPath>
      <path clip-path="url(#make-me-a-hanzi-clip-3)" d="M 269 562 L 283 528 L 301 426" fill="none" id="make-me-a-hanzi-animation-3" stroke-dasharray="268 536" stroke-linecap="round"></path>
    
      <clipPath id="make-me-a-hanzi-clip-4">
        <path d="M 436 494 Q 449 536 464 548 Q 482 567 464 579 Q 413 606 412 606 Q 405 607 398 602 Q 364 581 290 564 C 261 557 274 535 303 543 Q 307 544 314 546 Q 348 555 379 562 Q 398 566 404 559 Q 410 553 394 493 C 386 464 427 465 436 494 Z"></path>
      </clipPath>
      <path clip-path="url(#make-me-a-hanzi-clip-4)" d="M 300 563 L 308 556 L 403 582 L 423 575 L 435 561 L 426 530 L 415 508 L 401 503" fill="none" id="make-me-a-hanzi-animation-4" stroke-dasharray="348 696" stroke-linecap="round"></path>
    
      <clipPath id="make-me-a-hanzi-clip-5">
        <path d="M 312 443 Q 318 442 326 444 Q 366 454 452 467 Q 459 468 461 476 Q 461 482 436 494 C 421 501 421 501 394 493 Q 345 478 310 469 C 281 461 282 445 312 443 Z"></path>
      </clipPath>
      <path clip-path="url(#make-me-a-hanzi-clip-5)" d="M 319 450 L 332 461 L 401 477 L 429 480 L 453 475" fill="none" id="make-me-a-hanzi-animation-5" stroke-dasharray="269 538" stroke-linecap="round"></path>
    
      <clipPath id="make-me-a-hanzi-clip-6">
        <path d="M 628 823 Q 671 787 686 788 Q 695 789 697 800 Q 700 812 690 834 Q 686 847 664 853 Q 616 863 604 859 Q 600 855 602 845 Q 606 838 628 823 Z"></path>
      </clipPath>
      <path clip-path="url(#make-me-a-hanzi-clip-6)" d="M 609 851 L 662 828 L 684 800" fill="none" id="make-me-a-hanzi-animation-6" stroke-dasharray="221 442" stroke-linecap="round"></path>
    
      <clipPath id="make-me-a-hanzi-clip-7">
        <path d="M 727 739 Q 742 743 759 745 Q 796 752 802 757 Q 809 764 806 770 Q 800 780 777 787 Q 756 793 676 770 Q 546 751 528 749 Q 498 746 519 731 Q 547 713 636 725 Q 664 729 695 734 L 727 739 Z"></path>
      </clipPath>
      <path clip-path="url(#make-me-a-hanzi-clip-7)" d="M 521 741 L 570 737 L 684 751 L 756 767 L 795 766" fill="none" id="make-me-a-hanzi-animation-7" stroke-dasharray="405 810" stroke-linecap="round"></path>
    
      <clipPath id="make-me-a-hanzi-clip-8">
        <path d="M 556 686 Q 583 638 601 636 Q 611 633 618 647 Q 619 657 615 673 Q 609 685 594 691 Q 572 704 562 706 Q 555 707 553 699 Q 552 693 556 686 Z"></path>
      </clipPath>
      <path clip-path="url(#make-me-a-hanzi-clip-8)" d="M 563 695 L 595 666 L 604 650" fill="none" id="make-me-a-hanzi-animation-8" stroke-dasharray="190 380" stroke-linecap="round"></path>
    
      <clipPath id="make-me-a-hanzi-clip-9">
        <path d="M 691 638 Q 692 641 696 644 Q 709 660 723 681 Q 729 691 740 702 Q 750 709 746 718 Q 742 728 727 739 C 703 757 693 764 695 734 Q 698 716 669 647 Q 665 640 663 632 C 655 603 675 613 691 638 Z"></path>
      </clipPath>
      <path clip-path="url(#make-me-a-hanzi-clip-9)" d="M 701 730 L 718 712 L 670 634" fill="none" id="make-me-a-hanzi-animation-9" stroke-dasharray="244 488" stroke-linecap="round"></path>
    
      <clipPath id="make-me-a-hanzi-clip-10">
        <path d="M 682 600 Q 715 607 836 620 Q 845 619 853 630 Q 854 640 835 649 Q 808 670 716 644 Q 703 641 691 638 L 663 632 Q 630 628 500 612 Q 475 611 494 595 Q 524 574 572 583 Q 597 589 631 592 L 682 600 Z"></path>
      </clipPath>
      <path clip-path="url(#make-me-a-hanzi-clip-10)" d="M 495 604 L 545 598 L 786 637 L 843 632" fill="none" id="make-me-a-hanzi-animation-10" stroke-dasharray="480 960" stroke-linecap="round"></path>
    
      <clipPath id="make-me-a-hanzi-clip-11">
        <path d="M 677 509 Q 716 515 793 515 Q 808 516 811 523 Q 815 532 802 541 Q 757 569 707 554 Q 694 551 680 547 L 635 538 Q 580 529 520 517 Q 505 516 517 502 Q 527 493 542 489 Q 558 486 569 490 Q 600 500 636 503 L 677 509 Z"></path>
      </clipPath>
      <path clip-path="url(#make-me-a-hanzi-clip-11)" d="M 529 507 L 551 505 L 732 536 L 759 537 L 802 527" fill="none" id="make-me-a-hanzi-animation-11" stroke-dasharray="405 810" stroke-linecap="round"></path>
    
      <clipPath id="make-me-a-hanzi-clip-12">
        <path d="M 641 443 Q 644 425 649 418 Q 653 414 658 415 Q 676 430 677 509 L 680 547 Q 686 595 682 600 C 675 629 626 622 631 592 Q 631 591 632 588 Q 633 567 635 538 L 636 503 Q 636 484 641 443 Z"></path>
      </clipPath>
      <path clip-path="url(#make-me-a-hanzi-clip-12)" d="M 676 596 L 658 571 L 656 423" fill="none" id="make-me-a-hanzi-animation-12" stroke-dasharray="307 614" stroke-linecap="round"></path>
    
      <clipPath id="make-me-a-hanzi-clip-13">
        <path d="M 503 387 Q 543 405 597 407 Q 612 406 615 412 Q 619 421 611 431 Q 595 447 559 465 Q 547 474 536 474 Q 529 471 528 462 Q 525 429 342 370 Q 336 363 341 360 Q 353 357 433 372 Q 449 375 466 377 L 503 387 Z"></path>
      </clipPath>
      <path clip-path="url(#make-me-a-hanzi-clip-13)" d="M 607 418 L 550 434 L 480 400 L 419 380 L 409 383 L 396 374 L 356 374 L 344 365" fill="none" id="make-me-a-hanzi-animation-13" stroke-dasharray="410 820" stroke-linecap="round"></path>
    
      <clipPath id="make-me-a-hanzi-clip-14">
        <path d="M 546 289 Q 657 304 669 314 Q 678 321 674 329 Q 668 341 642 348 Q 618 354 542 334 L 487 320 Q 477 320 465 317 Q 395 305 314 301 Q 280 297 304 281 Q 337 256 392 266 Q 441 273 494 281 L 546 289 Z"></path>
      </clipPath>
      <path clip-path="url(#make-me-a-hanzi-clip-14)" d="M 306 292 L 328 285 L 381 284 L 608 324 L 661 325" fill="none" id="make-me-a-hanzi-animation-14" stroke-dasharray="488 976" stroke-linecap="round"></path>
    
      <clipPath id="make-me-a-hanzi-clip-15">
        <path d="M 554 188 Q 570 188 847 189 Q 869 188 874 197 Q 881 210 863 225 Q 806 267 768 260 Q 684 245 551 227 L 500 221 Q 497 222 494 221 Q 340 205 158 187 Q 136 186 152 167 Q 167 151 185 145 Q 207 139 225 143 Q 354 176 502 184 L 554 188 Z"></path>
      </clipPath>
      <path clip-path="url(#make-me-a-hanzi-clip-15)" d="M 155 177 L 207 166 L 387 193 L 768 224 L 799 223 L 862 204" fill="none" id="make-me-a-hanzi-animation-15" stroke-dasharray="842 1684" stroke-linecap="round"></path>
    
      <clipPath id="make-me-a-hanzi-clip-16">
        <path d="M 502 184 Q 506 85 488 51 Q 487 47 481 44 Q 469 41 384 56 Q 377 56 374 53 Q 373 49 381 41 Q 442 -11 474 -49 Q 486 -62 493 -60 Q 502 -60 518 -44 Q 555 -13 556 72 Q 556 112 554 188 L 551 227 Q 548 270 546 289 L 542 334 Q 542 364 529 373 Q 516 382 503 387 C 476 400 449 402 466 377 Q 481 361 487 320 L 494 281 Q 497 254 500 221 L 502 184 Z"></path>
      </clipPath>
      <path clip-path="url(#make-me-a-hanzi-clip-16)" d="M 473 375 L 501 362 L 513 341 L 529 178 L 528 88 L 521 42 L 511 18 L 494 -1 L 381 49" fill="none" id="make-me-a-hanzi-animation-16" stroke-dasharray="658 1316" stroke-linecap="round"></path>
    
  </g>
</svg>