<svg version="1.1" viewBox="0 0 1024 1024" xmlns="http://www.w3.org/2000/svg">
  <g stroke="lightgray" stroke-dasharray="1,1" stroke-width="1" transform="scale(4, 4)">
    <line x1="0" y1="0" x2="256" y2="256"></line>
    <line x1="256" y1="0" x2="0" y2="256"></line>
    <line x1="128" y1="0" x2="128" y2="256"></line>
    <line x1="0" y1="128" x2="256" y2="128"></line>
  </g>
  <g transform="scale(1, -1) translate(0, -900)">
    <style type="text/css">
      
        @keyframes keyframes0 {
          from {
            stroke: blue;
            stroke-dashoffset: 563;
            stroke-width: 128;
          }
          65% {
            animation-timing-function: step-end;
            stroke: blue;
            stroke-dashoffset: 0;
            stroke-width: 128;
          }
          to {
            stroke: black;
            stroke-width: 1024;
          }
        }
        #make-me-a-hanzi-animation-0 {
          animation: keyframes0 0.7081705729166666s both;
          animation-delay: 0s;
          animation-timing-function: linear;
        }
      
        @keyframes keyframes1 {
          from {
            stroke: blue;
            stroke-dashoffset: 454;
            stroke-width: 128;
          }
          60% {
            animation-timing-function: step-end;
            stroke: blue;
            stroke-dashoffset: 0;
            stroke-width: 128;
          }
          to {
            stroke: black;
            stroke-width: 1024;
          }
        }
        #make-me-a-hanzi-animation-1 {
          animation: keyframes1 0.6194661458333334s both;
          animation-delay: 0.7081705729166666s;
          animation-timing-function: linear;
        }
      
        @keyframes keyframes2 {
          from {
            stroke: blue;
            stroke-dashoffset: 650;
            stroke-width: 128;
          }
          68% {
            animation-timing-function: step-end;
            stroke: blue;
            stroke-dashoffset: 0;
            stroke-width: 128;
          }
          to {
            stroke: black;
            stroke-width: 1024;
          }
        }
        #make-me-a-hanzi-animation-2 {
          animation: keyframes2 0.7789713541666666s both;
          animation-delay: 1.32763671875s;
          animation-timing-function: linear;
        }
      
        @keyframes keyframes3 {
          from {
            stroke: blue;
            stroke-dashoffset: 511;
            stroke-width: 128;
          }
          62% {
            animation-timing-function: step-end;
            stroke: blue;
            stroke-dashoffset: 0;
            stroke-width: 128;
          }
          to {
            stroke: black;
            stroke-width: 1024;
          }
        }
        #make-me-a-hanzi-animation-3 {
          animation: keyframes3 0.6658528645833334s both;
          animation-delay: 2.1066080729166665s;
          animation-timing-function: linear;
        }
      
        @keyframes keyframes4 {
          from {
            stroke: blue;
            stroke-dashoffset: 1090;
            stroke-width: 128;
          }
          78% {
            animation-timing-function: step-end;
            stroke: blue;
            stroke-dashoffset: 0;
            stroke-width: 128;
          }
          to {
            stroke: black;
            stroke-width: 1024;
          }
        }
        #make-me-a-hanzi-animation-4 {
          animation: keyframes4 1.1370442708333333s both;
          animation-delay: 2.7724609375s;
          animation-timing-function: linear;
        }
      
        @keyframes keyframes5 {
          from {
            stroke: blue;
            stroke-dashoffset: 617;
            stroke-width: 128;
          }
          67% {
            animation-timing-function: step-end;
            stroke: blue;
            stroke-dashoffset: 0;
            stroke-width: 128;
          }
          to {
            stroke: black;
            stroke-width: 1024;
          }
        }
        #make-me-a-hanzi-animation-5 {
          animation: keyframes5 0.7521158854166666s both;
          animation-delay: 3.909505208333333s;
          animation-timing-function: linear;
        }
      
        @keyframes keyframes6 {
          from {
            stroke: blue;
            stroke-dashoffset: 373;
            stroke-width: 128;
          }
          55% {
            animation-timing-function: step-end;
            stroke: blue;
            stroke-dashoffset: 0;
            stroke-width: 128;
          }
          to {
            stroke: black;
            stroke-width: 1024;
          }
        }
        #make-me-a-hanzi-animation-6 {
          animation: keyframes6 0.5535481770833334s both;
          animation-delay: 4.66162109375s;
          animation-timing-function: linear;
        }
      
        @keyframes keyframes7 {
          from {
            stroke: blue;
            stroke-dashoffset: 694;
            stroke-width: 128;
          }
          69% {
            animation-timing-function: step-end;
            stroke: blue;
            stroke-dashoffset: 0;
            stroke-width: 128;
          }
          to {
            stroke: black;
            stroke-width: 1024;
          }
        }
        #make-me-a-hanzi-animation-7 {
          animation: keyframes7 0.8147786458333334s both;
          animation-delay: 5.215169270833333s;
          animation-timing-function: linear;
        }
      
        @keyframes keyframes8 {
          from {
            stroke: blue;
            stroke-dashoffset: 516;
            stroke-width: 128;
          }
          63% {
            animation-timing-function: step-end;
            stroke: blue;
            stroke-dashoffset: 0;
            stroke-width: 128;
          }
          to {
            stroke: black;
            stroke-width: 1024;
          }
        }
        #make-me-a-hanzi-animation-8 {
          animation: keyframes8 0.669921875s both;
          animation-delay: 6.029947916666666s;
          animation-timing-function: linear;
        }
      
        @keyframes keyframes9 {
          from {
            stroke: blue;
            stroke-dashoffset: 797;
            stroke-width: 128;
          }
          72% {
            animation-timing-function: step-end;
            stroke: blue;
            stroke-dashoffset: 0;
            stroke-width: 128;
          }
          to {
            stroke: black;
            stroke-width: 1024;
          }
        }
        #make-me-a-hanzi-animation-9 {
          animation: keyframes9 0.8986002604166666s both;
          animation-delay: 6.699869791666666s;
          animation-timing-function: linear;
        }
      
        @keyframes keyframes10 {
          from {
            stroke: blue;
            stroke-dashoffset: 788;
            stroke-width: 128;
          }
          72% {
            animation-timing-function: step-end;
            stroke: blue;
            stroke-dashoffset: 0;
            stroke-width: 128;
          }
          to {
            stroke: black;
            stroke-width: 1024;
          }
        }
        #make-me-a-hanzi-animation-10 {
          animation: keyframes10 0.8912760416666666s both;
          animation-delay: 7.598470052083333s;
          animation-timing-function: linear;
        }
      
    </style>
    
      <path d="M 353 650 Q 467 680 471 682 Q 478 689 475 697 Q 468 707 442 714 Q 421 718 359 698 L 309 683 Q 299 682 291 678 Q 236 665 172 658 Q 138 652 163 637 Q 202 616 275 634 Q 291 638 310 641 L 353 650 Z" fill="lightgray"></path>
    
      <path d="M 189 531 Q 179 535 149 540 Q 137 543 135 537 Q 129 531 138 516 Q 163 470 182 390 Q 186 365 200 350 Q 218 331 222 345 Q 225 355 225 369 L 221 399 Q 205 480 203 504 C 201 527 201 527 189 531 Z" fill="lightgray"></path>
    
      <path d="M 466 441 Q 487 513 513 535 Q 526 551 514 566 Q 447 614 396 584 Q 372 577 350 567 L 311 556 Q 250 541 189 531 C 159 526 173 499 203 504 Q 213 505 226 509 Q 268 519 311 529 L 350 538 Q 417 559 432 548 Q 444 536 425 448 C 419 419 457 412 466 441 Z" fill="lightgray"></path>
    
      <path d="M 349 392 Q 401 402 478 411 Q 488 412 488 421 Q 488 428 466 441 L 425 448 Q 413 448 349 427 L 310 418 Q 264 408 221 399 C 192 393 195 368 225 369 Q 232 369 240 370 Q 262 377 295 382 L 349 392 Z" fill="lightgray"></path>
    
      <path d="M 307 309 Q 307 186 283 96 Q 273 62 297 1 Q 304 -15 311 -19 Q 317 -25 324 -18 Q 331 -14 341 7 Q 350 29 349 59 Q 348 99 349 392 L 349 427 Q 349 479 350 538 L 350 567 Q 350 586 353 650 L 359 698 Q 362 723 369 745 Q 378 758 374 772 Q 368 781 315 813 Q 293 829 274 814 Q 270 810 275 795 Q 308 746 309 683 L 310 641 Q 310 601 311 556 L 311 529 Q 310 475 310 418 L 307 309 Z" fill="lightgray"></path>
    
      <path d="M 295 382 Q 238 270 80 101 Q 73 92 84 90 Q 105 87 211 188 Q 260 234 307 309 C 364 398 309 409 295 382 Z" fill="lightgray"></path>
    
      <path d="M 392 301 Q 417 280 442 255 Q 452 245 465 246 Q 474 246 477 257 Q 481 267 474 291 Q 470 307 444 320 Q 387 344 372 339 Q 368 335 369 325 Q 372 318 392 301 Z" fill="lightgray"></path>
    
      <path d="M 606 532 Q 651 646 668 705 Q 678 748 691 771 Q 698 784 689 796 Q 682 806 646 821 Q 615 831 597 825 Q 579 818 593 799 Q 627 762 582 598 Q 560 522 526 436 Q 519 423 518 416 Q 518 404 531 411 Q 553 424 593 505 L 606 532 Z" fill="lightgray"></path>
    
      <path d="M 706 510 Q 853 552 861 559 Q 870 568 864 576 Q 857 588 826 592 Q 802 595 712 560 Q 633 539 606 532 C 577 524 564 514 593 505 Q 626 493 668 498 L 706 510 Z" fill="lightgray"></path>
    
      <path d="M 685 238 Q 724 322 742 434 Q 746 459 752 469 Q 759 476 753 486 Q 741 501 706 510 C 677 519 658 525 668 498 Q 669 497 671 493 Q 683 454 683 433 Q 682 352 650 279 L 630 240 Q 629 239 627 235 Q 587 169 448 101 Q 424 88 453 89 Q 469 88 506 99 Q 551 111 590 133 Q 626 152 655 190 Q 656 193 659 196 L 685 238 Z" fill="lightgray"></path>
    
      <path d="M 659 196 Q 701 141 772 66 Q 797 42 839 47 Q 893 51 933 53 Q 946 54 958 59 Q 965 65 955 74 Q 942 83 830 128 Q 757 159 685 238 L 650 279 Q 625 310 600 344 Q 584 366 553 375 Q 540 378 530 371 Q 523 364 533 355 Q 539 349 546 344 Q 564 334 630 240 L 659 196 Z" fill="lightgray"></path>
    
    
      <clipPath id="make-me-a-hanzi-clip-0">
        <path d="M 353 650 Q 467 680 471 682 Q 478 689 475 697 Q 468 707 442 714 Q 421 718 359 698 L 309 683 Q 299 682 291 678 Q 236 665 172 658 Q 138 652 163 637 Q 202 616 275 634 Q 291 638 310 641 L 353 650 Z"></path>
      </clipPath>
      <path clip-path="url(#make-me-a-hanzi-clip-0)" d="M 165 649 L 205 643 L 245 648 L 430 693 L 466 691" fill="none" id="make-me-a-hanzi-animation-0" stroke-dasharray="435 870" stroke-linecap="round"></path>
    
      <clipPath id="make-me-a-hanzi-clip-1">
        <path d="M 189 531 Q 179 535 149 540 Q 137 543 135 537 Q 129 531 138 516 Q 163 470 182 390 Q 186 365 200 350 Q 218 331 222 345 Q 225 355 225 369 L 221 399 Q 205 480 203 504 C 201 527 201 527 189 531 Z"></path>
      </clipPath>
      <path clip-path="url(#make-me-a-hanzi-clip-1)" d="M 144 530 L 171 509 L 177 497 L 212 351" fill="none" id="make-me-a-hanzi-animation-1" stroke-dasharray="326 652" stroke-linecap="round"></path>
    
      <clipPath id="make-me-a-hanzi-clip-2">
        <path d="M 466 441 Q 487 513 513 535 Q 526 551 514 566 Q 447 614 396 584 Q 372 577 350 567 L 311 556 Q 250 541 189 531 C 159 526 173 499 203 504 Q 213 505 226 509 Q 268 519 311 529 L 350 538 Q 417 559 432 548 Q 444 536 425 448 C 419 419 457 412 466 441 Z"></path>
      </clipPath>
      <path clip-path="url(#make-me-a-hanzi-clip-2)" d="M 198 527 L 211 520 L 357 553 L 410 571 L 442 571 L 463 559 L 472 546 L 449 464 L 434 458" fill="none" id="make-me-a-hanzi-animation-2" stroke-dasharray="522 1044" stroke-linecap="round"></path>
    
      <clipPath id="make-me-a-hanzi-clip-3">
        <path d="M 349 392 Q 401 402 478 411 Q 488 412 488 421 Q 488 428 466 441 L 425 448 Q 413 448 349 427 L 310 418 Q 264 408 221 399 C 192 393 195 368 225 369 Q 232 369 240 370 Q 262 377 295 382 L 349 392 Z"></path>
      </clipPath>
      <path clip-path="url(#make-me-a-hanzi-clip-3)" d="M 230 393 L 239 386 L 428 427 L 478 421" fill="none" id="make-me-a-hanzi-animation-3" stroke-dasharray="383 766" stroke-linecap="round"></path>
    
      <clipPath id="make-me-a-hanzi-clip-4">
        <path d="M 307 309 Q 307 186 283 96 Q 273 62 297 1 Q 304 -15 311 -19 Q 317 -25 324 -18 Q 331 -14 341 7 Q 350 29 349 59 Q 348 99 349 392 L 349 427 Q 349 479 350 538 L 350 567 Q 350 586 353 650 L 359 698 Q 362 723 369 745 Q 378 758 374 772 Q 368 781 315 813 Q 293 829 274 814 Q 270 810 275 795 Q 308 746 309 683 L 310 641 Q 310 601 311 556 L 311 529 Q 310 475 310 418 L 307 309 Z"></path>
      </clipPath>
      <path clip-path="url(#make-me-a-hanzi-clip-4)" d="M 285 807 L 312 786 L 334 757 L 329 256 L 314 78 L 317 -6" fill="none" id="make-me-a-hanzi-animation-4" stroke-dasharray="962 1924" stroke-linecap="round"></path>
    
      <clipPath id="make-me-a-hanzi-clip-5">
        <path d="M 295 382 Q 238 270 80 101 Q 73 92 84 90 Q 105 87 211 188 Q 260 234 307 309 C 364 398 309 409 295 382 Z"></path>
      </clipPath>
      <path clip-path="url(#make-me-a-hanzi-clip-5)" d="M 303 377 L 285 317 L 247 261 L 173 175 L 86 97" fill="none" id="make-me-a-hanzi-animation-5" stroke-dasharray="489 978" stroke-linecap="round"></path>
    
      <clipPath id="make-me-a-hanzi-clip-6">
        <path d="M 392 301 Q 417 280 442 255 Q 452 245 465 246 Q 474 246 477 257 Q 481 267 474 291 Q 470 307 444 320 Q 387 344 372 339 Q 368 335 369 325 Q 372 318 392 301 Z"></path>
      </clipPath>
      <path clip-path="url(#make-me-a-hanzi-clip-6)" d="M 377 331 L 439 294 L 465 258" fill="none" id="make-me-a-hanzi-animation-6" stroke-dasharray="245 490" stroke-linecap="round"></path>
    
      <clipPath id="make-me-a-hanzi-clip-7">
        <path d="M 606 532 Q 651 646 668 705 Q 678 748 691 771 Q 698 784 689 796 Q 682 806 646 821 Q 615 831 597 825 Q 579 818 593 799 Q 627 762 582 598 Q 560 522 526 436 Q 519 423 518 416 Q 518 404 531 411 Q 553 424 593 505 L 606 532 Z"></path>
      </clipPath>
      <path clip-path="url(#make-me-a-hanzi-clip-7)" d="M 601 811 L 631 794 L 647 771 L 635 698 L 591 549 L 573 503 L 526 418" fill="none" id="make-me-a-hanzi-animation-7" stroke-dasharray="566 1132" stroke-linecap="round"></path>
    
      <clipPath id="make-me-a-hanzi-clip-8">
        <path d="M 706 510 Q 853 552 861 559 Q 870 568 864 576 Q 857 588 826 592 Q 802 595 712 560 Q 633 539 606 532 C 577 524 564 514 593 505 Q 626 493 668 498 L 706 510 Z"></path>
      </clipPath>
      <path clip-path="url(#make-me-a-hanzi-clip-8)" d="M 602 509 L 713 535 L 817 568 L 854 569" fill="none" id="make-me-a-hanzi-animation-8" stroke-dasharray="388 776" stroke-linecap="round"></path>
    
      <clipPath id="make-me-a-hanzi-clip-9">
        <path d="M 685 238 Q 724 322 742 434 Q 746 459 752 469 Q 759 476 753 486 Q 741 501 706 510 C 677 519 658 525 668 498 Q 669 497 671 493 Q 683 454 683 433 Q 682 352 650 279 L 630 240 Q 629 239 627 235 Q 587 169 448 101 Q 424 88 453 89 Q 469 88 506 99 Q 551 111 590 133 Q 626 152 655 190 Q 656 193 659 196 L 685 238 Z"></path>
      </clipPath>
      <path clip-path="url(#make-me-a-hanzi-clip-9)" d="M 675 499 L 714 470 L 714 447 L 700 351 L 666 254 L 632 199 L 594 163 L 509 115 L 457 98" fill="none" id="make-me-a-hanzi-animation-9" stroke-dasharray="669 1338" stroke-linecap="round"></path>
    
      <clipPath id="make-me-a-hanzi-clip-10">
        <path d="M 659 196 Q 701 141 772 66 Q 797 42 839 47 Q 893 51 933 53 Q 946 54 958 59 Q 965 65 955 74 Q 942 83 830 128 Q 757 159 685 238 L 650 279 Q 625 310 600 344 Q 584 366 553 375 Q 540 378 530 371 Q 523 364 533 355 Q 539 349 546 344 Q 564 334 630 240 L 659 196 Z"></path>
      </clipPath>
      <path clip-path="url(#make-me-a-hanzi-clip-10)" d="M 537 364 L 558 356 L 582 336 L 699 186 L 803 94 L 949 65" fill="none" id="make-me-a-hanzi-animation-10" stroke-dasharray="660 1320" stroke-linecap="round"></path>
    
  </g>
</svg>