<svg version="1.1" viewBox="0 0 1024 1024" xmlns="http://www.w3.org/2000/svg">
  <g stroke="lightgray" stroke-dasharray="1,1" stroke-width="1" transform="scale(4, 4)">
    <line x1="0" y1="0" x2="256" y2="256"></line>
    <line x1="256" y1="0" x2="0" y2="256"></line>
    <line x1="128" y1="0" x2="128" y2="256"></line>
    <line x1="0" y1="128" x2="256" y2="128"></line>
  </g>
  <g transform="scale(1, -1) translate(0, -900)">
    <style type="text/css">
      
        @keyframes keyframes0 {
          from {
            stroke: blue;
            stroke-dashoffset: 542;
            stroke-width: 128;
          }
          64% {
            animation-timing-function: step-end;
            stroke: blue;
            stroke-dashoffset: 0;
            stroke-width: 128;
          }
          to {
            stroke: black;
            stroke-width: 1024;
          }
        }
        #make-me-a-hanzi-animation-0 {
          animation: keyframes0 0.6910807291666666s both;
          animation-delay: 0s;
          animation-timing-function: linear;
        }
      
        @keyframes keyframes1 {
          from {
            stroke: blue;
            stroke-dashoffset: 526;
            stroke-width: 128;
          }
          63% {
            animation-timing-function: step-end;
            stroke: blue;
            stroke-dashoffset: 0;
            stroke-width: 128;
          }
          to {
            stroke: black;
            stroke-width: 1024;
          }
        }
        #make-me-a-hanzi-animation-1 {
          animation: keyframes1 0.6780598958333334s both;
          animation-delay: 0.6910807291666666s;
          animation-timing-function: linear;
        }
      
        @keyframes keyframes2 {
          from {
            stroke: blue;
            stroke-dashoffset: 499;
            stroke-width: 128;
          }
          62% {
            animation-timing-function: step-end;
            stroke: blue;
            stroke-dashoffset: 0;
            stroke-width: 128;
          }
          to {
            stroke: black;
            stroke-width: 1024;
          }
        }
        #make-me-a-hanzi-animation-2 {
          animation: keyframes2 0.6560872395833334s both;
          animation-delay: 1.369140625s;
          animation-timing-function: linear;
        }
      
        @keyframes keyframes3 {
          from {
            stroke: blue;
            stroke-dashoffset: 714;
            stroke-width: 128;
          }
          70% {
            animation-timing-function: step-end;
            stroke: blue;
            stroke-dashoffset: 0;
            stroke-width: 128;
          }
          to {
            stroke: black;
            stroke-width: 1024;
          }
        }
        #make-me-a-hanzi-animation-3 {
          animation: keyframes3 0.8310546875s both;
          animation-delay: 2.0252278645833335s;
          animation-timing-function: linear;
        }
      
        @keyframes keyframes4 {
          from {
            stroke: blue;
            stroke-dashoffset: 393;
            stroke-width: 128;
          }
          56% {
            animation-timing-function: step-end;
            stroke: blue;
            stroke-dashoffset: 0;
            stroke-width: 128;
          }
          to {
            stroke: black;
            stroke-width: 1024;
          }
        }
        #make-me-a-hanzi-animation-4 {
          animation: keyframes4 0.56982421875s both;
          animation-delay: 2.8562825520833335s;
          animation-timing-function: linear;
        }
      
        @keyframes keyframes5 {
          from {
            stroke: blue;
            stroke-dashoffset: 390;
            stroke-width: 128;
          }
          56% {
            animation-timing-function: step-end;
            stroke: blue;
            stroke-dashoffset: 0;
            stroke-width: 128;
          }
          to {
            stroke: black;
            stroke-width: 1024;
          }
        }
        #make-me-a-hanzi-animation-5 {
          animation: keyframes5 0.5673828125s both;
          animation-delay: 3.4261067708333335s;
          animation-timing-function: linear;
        }
      
        @keyframes keyframes6 {
          from {
            stroke: blue;
            stroke-dashoffset: 651;
            stroke-width: 128;
          }
          68% {
            animation-timing-function: step-end;
            stroke: blue;
            stroke-dashoffset: 0;
            stroke-width: 128;
          }
          to {
            stroke: black;
            stroke-width: 1024;
          }
        }
        #make-me-a-hanzi-animation-6 {
          animation: keyframes6 0.77978515625s both;
          animation-delay: 3.9934895833333335s;
          animation-timing-function: linear;
        }
      
        @keyframes keyframes7 {
          from {
            stroke: blue;
            stroke-dashoffset: 615;
            stroke-width: 128;
          }
          67% {
            animation-timing-function: step-end;
            stroke: blue;
            stroke-dashoffset: 0;
            stroke-width: 128;
          }
          to {
            stroke: black;
            stroke-width: 1024;
          }
        }
        #make-me-a-hanzi-animation-7 {
          animation: keyframes7 0.75048828125s both;
          animation-delay: 4.773274739583334s;
          animation-timing-function: linear;
        }
      
        @keyframes keyframes8 {
          from {
            stroke: blue;
            stroke-dashoffset: 678;
            stroke-width: 128;
          }
          69% {
            animation-timing-function: step-end;
            stroke: blue;
            stroke-dashoffset: 0;
            stroke-width: 128;
          }
          to {
            stroke: black;
            stroke-width: 1024;
          }
        }
        #make-me-a-hanzi-animation-8 {
          animation: keyframes8 0.8017578125s both;
          animation-delay: 5.523763020833334s;
          animation-timing-function: linear;
        }
      
        @keyframes keyframes9 {
          from {
            stroke: blue;
            stroke-dashoffset: 630;
            stroke-width: 128;
          }
          67% {
            animation-timing-function: step-end;
            stroke: blue;
            stroke-dashoffset: 0;
            stroke-width: 128;
          }
          to {
            stroke: black;
            stroke-width: 1024;
          }
        }
        #make-me-a-hanzi-animation-9 {
          animation: keyframes9 0.7626953125s both;
          animation-delay: 6.325520833333334s;
          animation-timing-function: linear;
        }
      
        @keyframes keyframes10 {
          from {
            stroke: blue;
            stroke-dashoffset: 345;
            stroke-width: 128;
          }
          53% {
            animation-timing-function: step-end;
            stroke: blue;
            stroke-dashoffset: 0;
            stroke-width: 128;
          }
          to {
            stroke: black;
            stroke-width: 1024;
          }
        }
        #make-me-a-hanzi-animation-10 {
          animation: keyframes10 0.53076171875s both;
          animation-delay: 7.088216145833334s;
          animation-timing-function: linear;
        }
      
        @keyframes keyframes11 {
          from {
            stroke: blue;
            stroke-dashoffset: 350;
            stroke-width: 128;
          }
          53% {
            animation-timing-function: step-end;
            stroke: blue;
            stroke-dashoffset: 0;
            stroke-width: 128;
          }
          to {
            stroke: black;
            stroke-width: 1024;
          }
        }
        #make-me-a-hanzi-animation-11 {
          animation: keyframes11 0.5348307291666666s both;
          animation-delay: 7.618977864583334s;
          animation-timing-function: linear;
        }
      
        @keyframes keyframes12 {
          from {
            stroke: blue;
            stroke-dashoffset: 715;
            stroke-width: 128;
          }
          70% {
            animation-timing-function: step-end;
            stroke: blue;
            stroke-dashoffset: 0;
            stroke-width: 128;
          }
          to {
            stroke: black;
            stroke-width: 1024;
          }
        }
        #make-me-a-hanzi-animation-12 {
          animation: keyframes12 0.8318684895833334s both;
          animation-delay: 8.15380859375s;
          animation-timing-function: linear;
        }
      
        @keyframes keyframes13 {
          from {
            stroke: blue;
            stroke-dashoffset: 879;
            stroke-width: 128;
          }
          74% {
            animation-timing-function: step-end;
            stroke: blue;
            stroke-dashoffset: 0;
            stroke-width: 128;
          }
          to {
            stroke: black;
            stroke-width: 1024;
          }
        }
        #make-me-a-hanzi-animation-13 {
          animation: keyframes13 0.96533203125s both;
          animation-delay: 8.985677083333334s;
          animation-timing-function: linear;
        }
      
    </style>
    
      <path d="M 347 680 Q 467 713 468 714 Q 475 721 471 729 Q 464 739 437 746 Q 415 749 357 728 L 299 710 Q 250 698 191 690 Q 158 683 182 669 Q 215 653 286 666 Q 290 667 296 668 L 347 680 Z" fill="lightgray"></path>
    
      <path d="M 328 591 Q 338 637 347 680 L 357 728 Q 358 749 378 795 Q 382 805 365 820 Q 335 841 314 847 Q 301 851 292 845 Q 285 838 290 824 Q 303 802 302 787 Q 301 750 299 710 L 296 668 Q 292 628 287 582 C 284 552 322 562 328 591 Z" fill="lightgray"></path>
    
      <path d="M 186 558 Q 174 562 145 568 Q 135 572 131 567 Q 124 561 133 546 Q 161 485 177 385 Q 180 355 197 335 Q 213 314 218 329 Q 222 339 222 356 L 221 377 Q 220 386 219 394 Q 215 418 211 437 L 207 459 Q 200 510 198 529 C 195 555 195 555 186 558 Z" fill="lightgray"></path>
    
      <path d="M 356 376 Q 371 354 385 346 Q 395 339 408 358 Q 420 380 446 496 Q 453 524 473 546 Q 483 556 474 569 Q 461 584 422 606 Q 410 612 333 593 Q 330 593 328 591 L 287 582 Q 265 578 241 571 Q 211 564 186 558 C 157 551 169 520 198 529 Q 256 548 359 567 Q 383 571 391 564 Q 401 551 400 537 Q 381 428 373 411 Q 369 402 360 398 C 348 387 348 387 356 376 Z" fill="lightgray"></path>
    
      <path d="M 211 437 Q 214 437 223 438 Q 290 453 341 462 Q 362 466 353 477 Q 343 490 320 492 Q 293 493 207 459 C 179 448 181 435 211 437 Z" fill="lightgray"></path>
    
      <path d="M 313 370 Q 334 374 356 376 C 386 379 385 381 360 398 Q 353 404 341 405 Q 316 406 221 377 C 192 368 192 356 222 356 Q 223 356 227 356 Q 251 360 275 364 L 313 370 Z" fill="lightgray"></path>
    
      <path d="M 326 249 Q 374 262 437 273 Q 453 277 455 284 Q 455 297 436 306 Q 405 318 328 294 L 280 282 Q 124 245 64 236 Q 51 235 48 226 Q 45 216 61 204 Q 103 177 145 193 Q 223 223 279 237 L 326 249 Z" fill="lightgray"></path>
    
      <path d="M 279 237 Q 279 146 266 105 Q 253 57 301 7 L 303 6 Q 313 5 318 16 Q 330 44 327 72 Q 326 169 326 249 L 328 294 Q 329 325 332 341 Q 333 351 328 358 Q 321 365 313 370 C 289 388 268 393 275 364 Q 281 349 280 282 L 279 237 Z" fill="lightgray"></path>
    
      <path d="M 672 719 Q 693 762 711 780 Q 718 790 714 802 Q 710 812 683 831 Q 659 846 642 845 Q 626 842 634 823 Q 647 799 639 777 Q 615 704 576 635 Q 537 569 484 495 Q 477 486 474 480 Q 473 470 484 473 Q 536 489 651 680 Q 655 689 661 698 L 672 719 Z" fill="lightgray"></path>
    
      <path d="M 661 698 Q 680 659 813 509 Q 829 493 855 496 Q 940 503 967 510 Q 974 513 976 517 Q 976 521 965 527 Q 848 569 781 624 Q 732 664 676 716 Q 675 719 672 719 C 649 738 646 724 661 698 Z" fill="lightgray"></path>
    
      <path d="M 563 454 Q 584 441 605 423 Q 615 416 627 417 Q 634 418 637 428 Q 640 440 630 460 Q 621 481 555 488 Q 545 489 540 486 Q 536 483 539 474 Q 542 467 563 454 Z" fill="lightgray"></path>
    
      <path d="M 538 364 Q 557 351 577 333 Q 587 324 599 325 Q 606 326 609 336 Q 612 348 604 368 Q 600 381 577 390 Q 520 402 516 398 Q 512 395 514 386 Q 517 379 538 364 Z" fill="lightgray"></path>
    
      <path d="M 722 257 Q 789 266 889 266 Q 908 267 912 275 Q 916 287 901 299 Q 847 335 789 317 Q 759 311 722 301 L 670 291 Q 661 290 652 288 Q 561 272 451 253 Q 432 250 446 235 Q 459 223 477 218 Q 496 214 511 219 Q 580 240 669 251 L 722 257 Z" fill="lightgray"></path>
    
      <path d="M 670 -35 Q 676 -60 682 -69 Q 688 -76 695 -74 Q 713 -62 716 -7 Q 716 11 722 257 L 722 301 Q 722 451 736 503 Q 739 521 725 530 Q 694 552 678 554 Q 665 558 650 550 Q 641 543 648 532 Q 669 487 671 411 Q 671 359 670 291 L 669 251 Q 663 32 670 -35 Z" fill="lightgray"></path>
    
    
      <clipPath id="make-me-a-hanzi-clip-0">
        <path d="M 347 680 Q 467 713 468 714 Q 475 721 471 729 Q 464 739 437 746 Q 415 749 357 728 L 299 710 Q 250 698 191 690 Q 158 683 182 669 Q 215 653 286 666 Q 290 667 296 668 L 347 680 Z"></path>
      </clipPath>
      <path clip-path="url(#make-me-a-hanzi-clip-0)" d="M 184 681 L 212 676 L 256 680 L 416 723 L 464 723" fill="none" id="make-me-a-hanzi-animation-0" stroke-dasharray="414 828" stroke-linecap="round"></path>
    
      <clipPath id="make-me-a-hanzi-clip-1">
        <path d="M 328 591 Q 338 637 347 680 L 357 728 Q 358 749 378 795 Q 382 805 365 820 Q 335 841 314 847 Q 301 851 292 845 Q 285 838 290 824 Q 303 802 302 787 Q 301 750 299 710 L 296 668 Q 292 628 287 582 C 284 552 322 562 328 591 Z"></path>
      </clipPath>
      <path clip-path="url(#make-me-a-hanzi-clip-1)" d="M 301 836 L 338 795 L 311 608 L 293 589" fill="none" id="make-me-a-hanzi-animation-1" stroke-dasharray="398 796" stroke-linecap="round"></path>
    
      <clipPath id="make-me-a-hanzi-clip-2">
        <path d="M 186 558 Q 174 562 145 568 Q 135 572 131 567 Q 124 561 133 546 Q 161 485 177 385 Q 180 355 197 335 Q 213 314 218 329 Q 222 339 222 356 L 221 377 Q 220 386 219 394 Q 215 418 211 437 L 207 459 Q 200 510 198 529 C 195 555 195 555 186 558 Z"></path>
      </clipPath>
      <path clip-path="url(#make-me-a-hanzi-clip-2)" d="M 139 560 L 166 536 L 172 522 L 208 334" fill="none" id="make-me-a-hanzi-animation-2" stroke-dasharray="371 742" stroke-linecap="round"></path>
    
      <clipPath id="make-me-a-hanzi-clip-3">
        <path d="M 356 376 Q 371 354 385 346 Q 395 339 408 358 Q 420 380 446 496 Q 453 524 473 546 Q 483 556 474 569 Q 461 584 422 606 Q 410 612 333 593 Q 330 593 328 591 L 287 582 Q 265 578 241 571 Q 211 564 186 558 C 157 551 169 520 198 529 Q 256 548 359 567 Q 383 571 391 564 Q 401 551 400 537 Q 381 428 373 411 Q 369 402 360 398 C 348 387 348 387 356 376 Z"></path>
      </clipPath>
      <path clip-path="url(#make-me-a-hanzi-clip-3)" d="M 194 553 L 211 548 L 370 586 L 388 587 L 417 577 L 434 556 L 405 426 L 387 382 L 391 362" fill="none" id="make-me-a-hanzi-animation-3" stroke-dasharray="586 1172" stroke-linecap="round"></path>
    
      <clipPath id="make-me-a-hanzi-clip-4">
        <path d="M 211 437 Q 214 437 223 438 Q 290 453 341 462 Q 362 466 353 477 Q 343 490 320 492 Q 293 493 207 459 C 179 448 181 435 211 437 Z"></path>
      </clipPath>
      <path clip-path="url(#make-me-a-hanzi-clip-4)" d="M 216 444 L 223 453 L 289 470 L 324 476 L 345 471" fill="none" id="make-me-a-hanzi-animation-4" stroke-dasharray="265 530" stroke-linecap="round"></path>
    
      <clipPath id="make-me-a-hanzi-clip-5">
        <path d="M 313 370 Q 334 374 356 376 C 386 379 385 381 360 398 Q 353 404 341 405 Q 316 406 221 377 C 192 368 192 356 222 356 Q 223 356 227 356 Q 251 360 275 364 L 313 370 Z"></path>
      </clipPath>
      <path clip-path="url(#make-me-a-hanzi-clip-5)" d="M 225 361 L 235 372 L 352 394" fill="none" id="make-me-a-hanzi-animation-5" stroke-dasharray="262 524" stroke-linecap="round"></path>
    
      <clipPath id="make-me-a-hanzi-clip-6">
        <path d="M 326 249 Q 374 262 437 273 Q 453 277 455 284 Q 455 297 436 306 Q 405 318 328 294 L 280 282 Q 124 245 64 236 Q 51 235 48 226 Q 45 216 61 204 Q 103 177 145 193 Q 223 223 279 237 L 326 249 Z"></path>
      </clipPath>
      <path clip-path="url(#make-me-a-hanzi-clip-6)" d="M 60 223 L 102 215 L 130 218 L 344 278 L 418 290 L 445 287" fill="none" id="make-me-a-hanzi-animation-6" stroke-dasharray="523 1046" stroke-linecap="round"></path>
    
      <clipPath id="make-me-a-hanzi-clip-7">
        <path d="M 279 237 Q 279 146 266 105 Q 253 57 301 7 L 303 6 Q 313 5 318 16 Q 330 44 327 72 Q 326 169 326 249 L 328 294 Q 329 325 332 341 Q 333 351 328 358 Q 321 365 313 370 C 289 388 268 393 275 364 Q 281 349 280 282 L 279 237 Z"></path>
      </clipPath>
      <path clip-path="url(#make-me-a-hanzi-clip-7)" d="M 282 362 L 306 339 L 295 76 L 306 14" fill="none" id="make-me-a-hanzi-animation-7" stroke-dasharray="487 974" stroke-linecap="round"></path>
    
      <clipPath id="make-me-a-hanzi-clip-8">
        <path d="M 672 719 Q 693 762 711 780 Q 718 790 714 802 Q 710 812 683 831 Q 659 846 642 845 Q 626 842 634 823 Q 647 799 639 777 Q 615 704 576 635 Q 537 569 484 495 Q 477 486 474 480 Q 473 470 484 473 Q 536 489 651 680 Q 655 689 661 698 L 672 719 Z"></path>
      </clipPath>
      <path clip-path="url(#make-me-a-hanzi-clip-8)" d="M 644 832 L 664 814 L 676 793 L 627 680 L 539 543 L 482 480" fill="none" id="make-me-a-hanzi-animation-8" stroke-dasharray="550 1100" stroke-linecap="round"></path>
    
      <clipPath id="make-me-a-hanzi-clip-9">
        <path d="M 661 698 Q 680 659 813 509 Q 829 493 855 496 Q 940 503 967 510 Q 974 513 976 517 Q 976 521 965 527 Q 848 569 781 624 Q 732 664 676 716 Q 675 719 672 719 C 649 738 646 724 661 698 Z"></path>
      </clipPath>
      <path clip-path="url(#make-me-a-hanzi-clip-9)" d="M 671 713 L 677 696 L 753 614 L 843 536 L 967 519" fill="none" id="make-me-a-hanzi-animation-9" stroke-dasharray="502 1004" stroke-linecap="round"></path>
    
      <clipPath id="make-me-a-hanzi-clip-10">
        <path d="M 563 454 Q 584 441 605 423 Q 615 416 627 417 Q 634 418 637 428 Q 640 440 630 460 Q 621 481 555 488 Q 545 489 540 486 Q 536 483 539 474 Q 542 467 563 454 Z"></path>
      </clipPath>
      <path clip-path="url(#make-me-a-hanzi-clip-10)" d="M 549 479 L 594 460 L 622 431" fill="none" id="make-me-a-hanzi-animation-10" stroke-dasharray="217 434" stroke-linecap="round"></path>
    
      <clipPath id="make-me-a-hanzi-clip-11">
        <path d="M 538 364 Q 557 351 577 333 Q 587 324 599 325 Q 606 326 609 336 Q 612 348 604 368 Q 600 381 577 390 Q 520 402 516 398 Q 512 395 514 386 Q 517 379 538 364 Z"></path>
      </clipPath>
      <path clip-path="url(#make-me-a-hanzi-clip-11)" d="M 520 391 L 574 367 L 595 339" fill="none" id="make-me-a-hanzi-animation-11" stroke-dasharray="222 444" stroke-linecap="round"></path>
    
      <clipPath id="make-me-a-hanzi-clip-12">
        <path d="M 722 257 Q 789 266 889 266 Q 908 267 912 275 Q 916 287 901 299 Q 847 335 789 317 Q 759 311 722 301 L 670 291 Q 661 290 652 288 Q 561 272 451 253 Q 432 250 446 235 Q 459 223 477 218 Q 496 214 511 219 Q 580 240 669 251 L 722 257 Z"></path>
      </clipPath>
      <path clip-path="url(#make-me-a-hanzi-clip-12)" d="M 449 244 L 494 238 L 590 259 L 812 293 L 858 292 L 901 280" fill="none" id="make-me-a-hanzi-animation-12" stroke-dasharray="587 1174" stroke-linecap="round"></path>
    
      <clipPath id="make-me-a-hanzi-clip-13">
        <path d="M 670 -35 Q 676 -60 682 -69 Q 688 -76 695 -74 Q 713 -62 716 -7 Q 716 11 722 257 L 722 301 Q 722 451 736 503 Q 739 521 725 530 Q 694 552 678 554 Q 665 558 650 550 Q 641 543 648 532 Q 669 487 671 411 Q 671 359 670 291 L 669 251 Q 663 32 670 -35 Z"></path>
      </clipPath>
      <path clip-path="url(#make-me-a-hanzi-clip-13)" d="M 657 540 L 676 529 L 697 504 L 691 -64" fill="none" id="make-me-a-hanzi-animation-13" stroke-dasharray="751 1502" stroke-linecap="round"></path>
    
  </g>
</svg>