<svg version="1.1" viewBox="0 0 1024 1024" xmlns="http://www.w3.org/2000/svg">
  <g stroke="lightgray" stroke-dasharray="1,1" stroke-width="1" transform="scale(4, 4)">
    <line x1="0" y1="0" x2="256" y2="256"></line>
    <line x1="256" y1="0" x2="0" y2="256"></line>
    <line x1="128" y1="0" x2="128" y2="256"></line>
    <line x1="0" y1="128" x2="256" y2="128"></line>
  </g>
  <g transform="scale(1, -1) translate(0, -900)">
    <style type="text/css">
      
        @keyframes keyframes0 {
          from {
            stroke: blue;
            stroke-dashoffset: 574;
            stroke-width: 128;
          }
          65% {
            animation-timing-function: step-end;
            stroke: blue;
            stroke-dashoffset: 0;
            stroke-width: 128;
          }
          to {
            stroke: black;
            stroke-width: 1024;
          }
        }
        #make-me-a-hanzi-animation-0 {
          animation: keyframes0 0.7171223958333334s both;
          animation-delay: 0s;
          animation-timing-function: linear;
        }
      
        @keyframes keyframes1 {
          from {
            stroke: blue;
            stroke-dashoffset: 1088;
            stroke-width: 128;
          }
          78% {
            animation-timing-function: step-end;
            stroke: blue;
            stroke-dashoffset: 0;
            stroke-width: 128;
          }
          to {
            stroke: black;
            stroke-width: 1024;
          }
        }
        #make-me-a-hanzi-animation-1 {
          animation: keyframes1 1.1354166666666667s both;
          animation-delay: 0.7171223958333334s;
          animation-timing-function: linear;
        }
      
        @keyframes keyframes2 {
          from {
            stroke: blue;
            stroke-dashoffset: 639;
            stroke-width: 128;
          }
          68% {
            animation-timing-function: step-end;
            stroke: blue;
            stroke-dashoffset: 0;
            stroke-width: 128;
          }
          to {
            stroke: black;
            stroke-width: 1024;
          }
        }
        #make-me-a-hanzi-animation-2 {
          animation: keyframes2 0.77001953125s both;
          animation-delay: 1.8525390625s;
          animation-timing-function: linear;
        }
      
        @keyframes keyframes3 {
          from {
            stroke: blue;
            stroke-dashoffset: 349;
            stroke-width: 128;
          }
          53% {
            animation-timing-function: step-end;
            stroke: blue;
            stroke-dashoffset: 0;
            stroke-width: 128;
          }
          to {
            stroke: black;
            stroke-width: 1024;
          }
        }
        #make-me-a-hanzi-animation-3 {
          animation: keyframes3 0.5340169270833334s both;
          animation-delay: 2.62255859375s;
          animation-timing-function: linear;
        }
      
        @keyframes keyframes4 {
          from {
            stroke: blue;
            stroke-dashoffset: 636;
            stroke-width: 128;
          }
          67% {
            animation-timing-function: step-end;
            stroke: blue;
            stroke-dashoffset: 0;
            stroke-width: 128;
          }
          to {
            stroke: black;
            stroke-width: 1024;
          }
        }
        #make-me-a-hanzi-animation-4 {
          animation: keyframes4 0.767578125s both;
          animation-delay: 3.1565755208333335s;
          animation-timing-function: linear;
        }
      
        @keyframes keyframes5 {
          from {
            stroke: blue;
            stroke-dashoffset: 1079;
            stroke-width: 128;
          }
          78% {
            animation-timing-function: step-end;
            stroke: blue;
            stroke-dashoffset: 0;
            stroke-width: 128;
          }
          to {
            stroke: black;
            stroke-width: 1024;
          }
        }
        #make-me-a-hanzi-animation-5 {
          animation: keyframes5 1.1280924479166667s both;
          animation-delay: 3.9241536458333335s;
          animation-timing-function: linear;
        }
      
        @keyframes keyframes6 {
          from {
            stroke: blue;
            stroke-dashoffset: 480;
            stroke-width: 128;
          }
          61% {
            animation-timing-function: step-end;
            stroke: blue;
            stroke-dashoffset: 0;
            stroke-width: 128;
          }
          to {
            stroke: black;
            stroke-width: 1024;
          }
        }
        #make-me-a-hanzi-animation-6 {
          animation: keyframes6 0.640625s both;
          animation-delay: 5.05224609375s;
          animation-timing-function: linear;
        }
      
        @keyframes keyframes7 {
          from {
            stroke: blue;
            stroke-dashoffset: 857;
            stroke-width: 128;
          }
          74% {
            animation-timing-function: step-end;
            stroke: blue;
            stroke-dashoffset: 0;
            stroke-width: 128;
          }
          to {
            stroke: black;
            stroke-width: 1024;
          }
        }
        #make-me-a-hanzi-animation-7 {
          animation: keyframes7 0.9474283854166666s both;
          animation-delay: 5.69287109375s;
          animation-timing-function: linear;
        }
      
        @keyframes keyframes8 {
          from {
            stroke: blue;
            stroke-dashoffset: 514;
            stroke-width: 128;
          }
          63% {
            animation-timing-function: step-end;
            stroke: blue;
            stroke-dashoffset: 0;
            stroke-width: 128;
          }
          to {
            stroke: black;
            stroke-width: 1024;
          }
        }
        #make-me-a-hanzi-animation-8 {
          animation: keyframes8 0.6682942708333334s both;
          animation-delay: 6.640299479166667s;
          animation-timing-function: linear;
        }
      
    </style>
    
      <path d="M 323 491 Q 345 498 369 503 Q 409 513 416 519 Q 425 528 420 536 Q 413 548 382 555 Q 352 559 324 548 L 275 531 Q 179 504 105 494 Q 68 487 95 470 Q 137 452 207 465 Q 229 471 257 476 L 323 491 Z" fill="lightgray"></path>
    
      <path d="M 321 378 Q 321 430 323 491 L 324 548 Q 324 662 344 733 Q 357 760 332 778 Q 316 790 285 809 Q 260 827 239 810 Q 233 806 240 789 Q 273 741 273 674 Q 273 604 275 531 L 272 392 Q 269 215 264 181 Q 240 67 243 56 Q 243 44 262 -1 Q 269 -20 277 -23 Q 284 -30 292 -21 Q 299 -17 310 5 Q 320 30 320 64 Q 319 101 321 345 L 321 378 Z" fill="lightgray"></path>
    
      <path d="M 257 476 Q 203 350 55 166 Q 48 156 60 154 Q 84 154 185 265 Q 230 317 272 392 C 333 499 269 503 257 476 Z" fill="lightgray"></path>
    
      <path d="M 321 345 Q 364 288 385 286 Q 398 285 405 302 Q 406 314 399 334 Q 390 350 369 359 Q 336 375 321 378 C 292 385 303 369 321 345 Z" fill="lightgray"></path>
    
      <path d="M 458 452 Q 440 462 422 468 Q 415 471 410 466 Q 401 460 411 448 Q 456 367 453 186 Q 453 120 490 92 L 491 91 Q 509 84 512 116 Q 512 123 512 129 L 509 165 Q 494 309 492 413 C 492 435 485 438 458 452 Z" fill="lightgray"></path>
    
      <path d="M 745 154 Q 755 126 783 70 Q 792 51 803 52 Q 819 55 830 82 Q 864 149 870 240 Q 877 295 883 362 Q 889 413 913 444 Q 931 466 918 480 Q 894 502 845 524 Q 826 534 791 522 Q 734 500 672 484 L 619 473 Q 552 463 458 452 C 428 448 463 407 492 413 Q 496 413 502 414 Q 553 427 619 440 L 671 450 Q 717 460 771 470 Q 799 477 813 463 Q 840 412 797 193 Q 794 172 786 170 Q 783 169 773 172 C 745 161 743 160 745 154 Z" fill="lightgray"></path>
    
      <path d="M 667 301 Q 713 310 753 314 Q 778 318 769 332 Q 759 348 731 352 Q 707 356 668 345 L 619 331 Q 576 321 536 310 Q 518 306 540 290 Q 550 283 572 286 Q 594 290 618 293 L 667 301 Z" fill="lightgray"></path>
    
      <path d="M 672 484 Q 672 619 695 719 Q 698 732 674 749 Q 632 770 604 774 Q 585 778 576 767 Q 567 758 578 741 Q 611 693 612 660 Q 616 570 619 473 L 619 440 Q 619 388 619 331 L 618 293 Q 617 239 615 181 C 614 151 663 162 664 192 Q 665 247 667 301 L 668 345 Q 669 399 671 450 L 672 484 Z" fill="lightgray"></path>
    
      <path d="M 512 129 Q 519 128 530 130 Q 599 145 745 154 C 775 156 786 157 773 172 Q 766 182 744 197 Q 720 210 664 192 L 615 181 Q 557 172 509 165 C 479 161 482 130 512 129 Z" fill="lightgray"></path>
    
    
      <clipPath id="make-me-a-hanzi-clip-0">
        <path d="M 323 491 Q 345 498 369 503 Q 409 513 416 519 Q 425 528 420 536 Q 413 548 382 555 Q 352 559 324 548 L 275 531 Q 179 504 105 494 Q 68 487 95 470 Q 137 452 207 465 Q 229 471 257 476 L 323 491 Z"></path>
      </clipPath>
      <path clip-path="url(#make-me-a-hanzi-clip-0)" d="M 97 483 L 179 483 L 350 527 L 409 530" fill="none" id="make-me-a-hanzi-animation-0" stroke-dasharray="446 892" stroke-linecap="round"></path>
    
      <clipPath id="make-me-a-hanzi-clip-1">
        <path d="M 321 378 Q 321 430 323 491 L 324 548 Q 324 662 344 733 Q 357 760 332 778 Q 316 790 285 809 Q 260 827 239 810 Q 233 806 240 789 Q 273 741 273 674 Q 273 604 275 531 L 272 392 Q 269 215 264 181 Q 240 67 243 56 Q 243 44 262 -1 Q 269 -20 277 -23 Q 284 -30 292 -21 Q 299 -17 310 5 Q 320 30 320 64 Q 319 101 321 345 L 321 378 Z"></path>
      </clipPath>
      <path clip-path="url(#make-me-a-hanzi-clip-1)" d="M 253 801 L 267 793 L 305 747 L 295 236 L 281 61 L 283 -9" fill="none" id="make-me-a-hanzi-animation-1" stroke-dasharray="960 1920" stroke-linecap="round"></path>
    
      <clipPath id="make-me-a-hanzi-clip-2">
        <path d="M 257 476 Q 203 350 55 166 Q 48 156 60 154 Q 84 154 185 265 Q 230 317 272 392 C 333 499 269 503 257 476 Z"></path>
      </clipPath>
      <path clip-path="url(#make-me-a-hanzi-clip-2)" d="M 271 473 L 263 467 L 247 397 L 204 329 L 162 268 L 106 203 L 61 162" fill="none" id="make-me-a-hanzi-animation-2" stroke-dasharray="511 1022" stroke-linecap="round"></path>
    
      <clipPath id="make-me-a-hanzi-clip-3">
        <path d="M 321 345 Q 364 288 385 286 Q 398 285 405 302 Q 406 314 399 334 Q 390 350 369 359 Q 336 375 321 378 C 292 385 303 369 321 345 Z"></path>
      </clipPath>
      <path clip-path="url(#make-me-a-hanzi-clip-3)" d="M 324 373 L 386 304" fill="none" id="make-me-a-hanzi-animation-3" stroke-dasharray="221 442" stroke-linecap="round"></path>
    
      <clipPath id="make-me-a-hanzi-clip-4">
        <path d="M 458 452 Q 440 462 422 468 Q 415 471 410 466 Q 401 460 411 448 Q 456 367 453 186 Q 453 120 490 92 L 491 91 Q 509 84 512 116 Q 512 123 512 129 L 509 165 Q 494 309 492 413 C 492 435 485 438 458 452 Z"></path>
      </clipPath>
      <path clip-path="url(#make-me-a-hanzi-clip-4)" d="M 417 457 L 442 436 L 462 401 L 475 290 L 481 163 L 496 97" fill="none" id="make-me-a-hanzi-animation-4" stroke-dasharray="508 1016" stroke-linecap="round"></path>
    
      <clipPath id="make-me-a-hanzi-clip-5">
        <path d="M 745 154 Q 755 126 783 70 Q 792 51 803 52 Q 819 55 830 82 Q 864 149 870 240 Q 877 295 883 362 Q 889 413 913 444 Q 931 466 918 480 Q 894 502 845 524 Q 826 534 791 522 Q 734 500 672 484 L 619 473 Q 552 463 458 452 C 428 448 463 407 492 413 Q 496 413 502 414 Q 553 427 619 440 L 671 450 Q 717 460 771 470 Q 799 477 813 463 Q 840 412 797 193 Q 794 172 786 170 Q 783 169 773 172 C 745 161 743 160 745 154 Z"></path>
      </clipPath>
      <path clip-path="url(#make-me-a-hanzi-clip-5)" d="M 467 451 L 503 436 L 662 464 L 807 498 L 838 489 L 860 466 L 864 448 L 838 234 L 824 163 L 803 129 L 802 66" fill="none" id="make-me-a-hanzi-animation-5" stroke-dasharray="951 1902" stroke-linecap="round"></path>
    
      <clipPath id="make-me-a-hanzi-clip-6">
        <path d="M 667 301 Q 713 310 753 314 Q 778 318 769 332 Q 759 348 731 352 Q 707 356 668 345 L 619 331 Q 576 321 536 310 Q 518 306 540 290 Q 550 283 572 286 Q 594 290 618 293 L 667 301 Z"></path>
      </clipPath>
      <path clip-path="url(#make-me-a-hanzi-clip-6)" d="M 538 300 L 592 306 L 698 330 L 735 332 L 758 326" fill="none" id="make-me-a-hanzi-animation-6" stroke-dasharray="352 704" stroke-linecap="round"></path>
    
      <clipPath id="make-me-a-hanzi-clip-7">
        <path d="M 672 484 Q 672 619 695 719 Q 698 732 674 749 Q 632 770 604 774 Q 585 778 576 767 Q 567 758 578 741 Q 611 693 612 660 Q 616 570 619 473 L 619 440 Q 619 388 619 331 L 618 293 Q 617 239 615 181 C 614 151 663 162 664 192 Q 665 247 667 301 L 668 345 Q 669 399 671 450 L 672 484 Z"></path>
      </clipPath>
      <path clip-path="url(#make-me-a-hanzi-clip-7)" d="M 592 755 L 646 712 L 649 676 L 640 211 L 620 188" fill="none" id="make-me-a-hanzi-animation-7" stroke-dasharray="729 1458" stroke-linecap="round"></path>
    
      <clipPath id="make-me-a-hanzi-clip-8">
        <path d="M 512 129 Q 519 128 530 130 Q 599 145 745 154 C 775 156 786 157 773 172 Q 766 182 744 197 Q 720 210 664 192 L 615 181 Q 557 172 509 165 C 479 161 482 130 512 129 Z"></path>
      </clipPath>
      <path clip-path="url(#make-me-a-hanzi-clip-8)" d="M 516 135 L 533 150 L 679 173 L 726 177 L 766 172" fill="none" id="make-me-a-hanzi-animation-8" stroke-dasharray="386 772" stroke-linecap="round"></path>
    
  </g>
</svg>