<svg version="1.1" viewBox="0 0 1024 1024" xmlns="http://www.w3.org/2000/svg">
  <g stroke="lightgray" stroke-dasharray="1,1" stroke-width="1" transform="scale(4, 4)">
    <line x1="0" y1="0" x2="256" y2="256"></line>
    <line x1="256" y1="0" x2="0" y2="256"></line>
    <line x1="128" y1="0" x2="128" y2="256"></line>
    <line x1="0" y1="128" x2="256" y2="128"></line>
  </g>
  <g transform="scale(1, -1) translate(0, -900)">
    <style type="text/css">
      
        @keyframes keyframes0 {
          from {
            stroke: blue;
            stroke-dashoffset: 521;
            stroke-width: 128;
          }
          63% {
            animation-timing-function: step-end;
            stroke: blue;
            stroke-dashoffset: 0;
            stroke-width: 128;
          }
          to {
            stroke: black;
            stroke-width: 1024;
          }
        }
        #make-me-a-hanzi-animation-0 {
          animation: keyframes0 0.6739908854166666s both;
          animation-delay: 0s;
          animation-timing-function: linear;
        }
      
        @keyframes keyframes1 {
          from {
            stroke: blue;
            stroke-dashoffset: 1083;
            stroke-width: 128;
          }
          78% {
            animation-timing-function: step-end;
            stroke: blue;
            stroke-dashoffset: 0;
            stroke-width: 128;
          }
          to {
            stroke: black;
            stroke-width: 1024;
          }
        }
        #make-me-a-hanzi-animation-1 {
          animation: keyframes1 1.13134765625s both;
          animation-delay: 0.6739908854166666s;
          animation-timing-function: linear;
        }
      
        @keyframes keyframes2 {
          from {
            stroke: blue;
            stroke-dashoffset: 662;
            stroke-width: 128;
          }
          68% {
            animation-timing-function: step-end;
            stroke: blue;
            stroke-dashoffset: 0;
            stroke-width: 128;
          }
          to {
            stroke: black;
            stroke-width: 1024;
          }
        }
        #make-me-a-hanzi-animation-2 {
          animation: keyframes2 0.7887369791666666s both;
          animation-delay: 1.8053385416666665s;
          animation-timing-function: linear;
        }
      
        @keyframes keyframes3 {
          from {
            stroke: blue;
            stroke-dashoffset: 361;
            stroke-width: 128;
          }
          54% {
            animation-timing-function: step-end;
            stroke: blue;
            stroke-dashoffset: 0;
            stroke-width: 128;
          }
          to {
            stroke: black;
            stroke-width: 1024;
          }
        }
        #make-me-a-hanzi-animation-3 {
          animation: keyframes3 0.5437825520833334s both;
          animation-delay: 2.594075520833333s;
          animation-timing-function: linear;
        }
      
        @keyframes keyframes4 {
          from {
            stroke: blue;
            stroke-dashoffset: 504;
            stroke-width: 128;
          }
          62% {
            animation-timing-function: step-end;
            stroke: blue;
            stroke-dashoffset: 0;
            stroke-width: 128;
          }
          to {
            stroke: black;
            stroke-width: 1024;
          }
        }
        #make-me-a-hanzi-animation-4 {
          animation: keyframes4 0.66015625s both;
          animation-delay: 3.1378580729166665s;
          animation-timing-function: linear;
        }
      
        @keyframes keyframes5 {
          from {
            stroke: blue;
            stroke-dashoffset: 651;
            stroke-width: 128;
          }
          68% {
            animation-timing-function: step-end;
            stroke: blue;
            stroke-dashoffset: 0;
            stroke-width: 128;
          }
          to {
            stroke: black;
            stroke-width: 1024;
          }
        }
        #make-me-a-hanzi-animation-5 {
          animation: keyframes5 0.77978515625s both;
          animation-delay: 3.7980143229166665s;
          animation-timing-function: linear;
        }
      
        @keyframes keyframes6 {
          from {
            stroke: blue;
            stroke-dashoffset: 871;
            stroke-width: 128;
          }
          74% {
            animation-timing-function: step-end;
            stroke: blue;
            stroke-dashoffset: 0;
            stroke-width: 128;
          }
          to {
            stroke: black;
            stroke-width: 1024;
          }
        }
        #make-me-a-hanzi-animation-6 {
          animation: keyframes6 0.9588216145833334s both;
          animation-delay: 4.577799479166666s;
          animation-timing-function: linear;
        }
      
        @keyframes keyframes7 {
          from {
            stroke: blue;
            stroke-dashoffset: 753;
            stroke-width: 128;
          }
          71% {
            animation-timing-function: step-end;
            stroke: blue;
            stroke-dashoffset: 0;
            stroke-width: 128;
          }
          to {
            stroke: black;
            stroke-width: 1024;
          }
        }
        #make-me-a-hanzi-animation-7 {
          animation: keyframes7 0.86279296875s both;
          animation-delay: 5.536621093749999s;
          animation-timing-function: linear;
        }
      
        @keyframes keyframes8 {
          from {
            stroke: blue;
            stroke-dashoffset: 966;
            stroke-width: 128;
          }
          76% {
            animation-timing-function: step-end;
            stroke: blue;
            stroke-dashoffset: 0;
            stroke-width: 128;
          }
          to {
            stroke: black;
            stroke-width: 1024;
          }
        }
        #make-me-a-hanzi-animation-8 {
          animation: keyframes8 1.0361328125s both;
          animation-delay: 6.399414062499999s;
          animation-timing-function: linear;
        }
      
    </style>
    
      <path d="M 300 561 Q 313 567 329 570 Q 360 580 365 585 Q 372 592 368 601 Q 361 611 331 616 Q 315 619 301 615 L 258 599 Q 162 566 106 557 Q 72 548 98 534 Q 143 516 196 532 Q 218 539 245 545 L 300 561 Z" fill="lightgray"></path>
    
      <path d="M 298 487 Q 299 523 300 561 L 301 615 Q 301 714 321 786 Q 336 811 306 831 Q 291 843 266 857 Q 244 873 223 859 Q 219 855 225 839 Q 256 791 257 743 Q 257 676 258 599 L 254 443 Q 251 257 238 200 Q 217 119 234 69 Q 235 63 240 54 Q 247 36 255 33 Q 261 26 268 35 Q 295 51 295 114 Q 294 154 298 461 L 298 487 Z" fill="lightgray"></path>
    
      <path d="M 245 545 Q 197 407 50 197 Q 44 187 56 186 Q 77 186 182 321 Q 221 372 254 443 C 317 576 255 573 245 545 Z" fill="lightgray"></path>
    
      <path d="M 298 461 Q 302 455 311 446 Q 354 395 364 392 Q 371 391 377 401 Q 383 411 379 435 Q 378 450 357 463 Q 305 490 298 487 C 279 487 280 485 298 461 Z" fill="lightgray"></path>
    
      <path d="M 460 579 Q 506 613 596 691 Q 614 707 637 719 Q 656 729 646 747 Q 633 763 606 776 Q 582 788 570 784 Q 557 783 562 769 Q 566 744 493 650 Q 471 623 446 593 C 427 570 436 561 460 579 Z" fill="lightgray"></path>
    
      <path d="M 554 416 Q 464 379 460 381 Q 453 382 454 400 Q 458 476 459 514 Q 458 542 460 566 Q 461 573 460 579 C 460 583 460 583 446 593 Q 430 605 414 611 Q 398 615 390 611 Q 381 605 393 589 Q 432 531 409 382 Q 403 361 387 336 Q 377 318 384 309 Q 391 297 415 288 Q 428 281 440 297 Q 458 330 546 384 Q 549 385 552 388 C 577 404 582 427 554 416 Z" fill="lightgray"></path>
    
      <path d="M 552 388 Q 552 244 454 126 Q 447 120 441 112 Q 396 69 395 63 Q 394 56 404 57 Q 468 64 552 194 Q 558 207 564 219 Q 603 321 607 537 Q 610 555 611 566 Q 617 585 597 593 Q 552 615 539 612 Q 520 608 536 588 Q 558 551 554 416 L 552 388 Z" fill="lightgray"></path>
    
      <path d="M 739 590 Q 788 606 825 612 Q 834 613 836 611 Q 846 598 847 562 Q 851 460 835 413 Q 823 385 800 385 Q 787 386 775 389 Q 750 398 768 373 Q 799 334 813 305 Q 835 287 850 307 Q 901 356 907 485 Q 907 597 921 624 Q 930 637 923 644 Q 914 653 868 666 Q 850 670 836 657 Q 815 645 731 616 C 703 606 710 581 739 590 Z" fill="lightgray"></path>
    
      <path d="M 674 -35 Q 680 -60 686 -69 Q 692 -76 699 -74 Q 717 -62 720 -7 Q 729 77 727 159 Q 723 229 728 501 Q 731 558 739 590 C 743 608 743 608 731 616 Q 730 617 729 618 Q 698 640 682 642 Q 669 646 654 638 Q 645 631 652 620 Q 677 575 678 499 Q 678 361 672 159 Q 669 14 674 -35 Z" fill="lightgray"></path>
    
    
      <clipPath id="make-me-a-hanzi-clip-0">
        <path d="M 300 561 Q 313 567 329 570 Q 360 580 365 585 Q 372 592 368 601 Q 361 611 331 616 Q 315 619 301 615 L 258 599 Q 162 566 106 557 Q 72 548 98 534 Q 143 516 196 532 Q 218 539 245 545 L 300 561 Z"></path>
      </clipPath>
      <path clip-path="url(#make-me-a-hanzi-clip-0)" d="M 99 546 L 133 543 L 183 551 L 312 592 L 357 595" fill="none" id="make-me-a-hanzi-animation-0" stroke-dasharray="393 786" stroke-linecap="round"></path>
    
      <clipPath id="make-me-a-hanzi-clip-1">
        <path d="M 298 487 Q 299 523 300 561 L 301 615 Q 301 714 321 786 Q 336 811 306 831 Q 291 843 266 857 Q 244 873 223 859 Q 219 855 225 839 Q 256 791 257 743 Q 257 676 258 599 L 254 443 Q 251 257 238 200 Q 217 119 234 69 Q 235 63 240 54 Q 247 36 255 33 Q 261 26 268 35 Q 295 51 295 114 Q 294 154 298 461 L 298 487 Z"></path>
      </clipPath>
      <path clip-path="url(#make-me-a-hanzi-clip-1)" d="M 234 853 L 280 807 L 286 773 L 279 666 L 275 325 L 260 126 L 260 46" fill="none" id="make-me-a-hanzi-animation-1" stroke-dasharray="955 1910" stroke-linecap="round"></path>
    
      <clipPath id="make-me-a-hanzi-clip-2">
        <path d="M 245 545 Q 197 407 50 197 Q 44 187 56 186 Q 77 186 182 321 Q 221 372 254 443 C 317 576 255 573 245 545 Z"></path>
      </clipPath>
      <path clip-path="url(#make-me-a-hanzi-clip-2)" d="M 253 541 L 232 451 L 200 389 L 144 300 L 56 193" fill="none" id="make-me-a-hanzi-animation-2" stroke-dasharray="534 1068" stroke-linecap="round"></path>
    
      <clipPath id="make-me-a-hanzi-clip-3">
        <path d="M 298 461 Q 302 455 311 446 Q 354 395 364 392 Q 371 391 377 401 Q 383 411 379 435 Q 378 450 357 463 Q 305 490 298 487 C 279 487 280 485 298 461 Z"></path>
      </clipPath>
      <path clip-path="url(#make-me-a-hanzi-clip-3)" d="M 301 481 L 349 440 L 366 402" fill="none" id="make-me-a-hanzi-animation-3" stroke-dasharray="233 466" stroke-linecap="round"></path>
    
      <clipPath id="make-me-a-hanzi-clip-4">
        <path d="M 460 579 Q 506 613 596 691 Q 614 707 637 719 Q 656 729 646 747 Q 633 763 606 776 Q 582 788 570 784 Q 557 783 562 769 Q 566 744 493 650 Q 471 623 446 593 C 427 570 436 561 460 579 Z"></path>
      </clipPath>
      <path clip-path="url(#make-me-a-hanzi-clip-4)" d="M 569 775 L 589 752 L 593 736 L 461 594 L 461 587" fill="none" id="make-me-a-hanzi-animation-4" stroke-dasharray="376 752" stroke-linecap="round"></path>
    
      <clipPath id="make-me-a-hanzi-clip-5">
        <path d="M 554 416 Q 464 379 460 381 Q 453 382 454 400 Q 458 476 459 514 Q 458 542 460 566 Q 461 573 460 579 C 460 583 460 583 446 593 Q 430 605 414 611 Q 398 615 390 611 Q 381 605 393 589 Q 432 531 409 382 Q 403 361 387 336 Q 377 318 384 309 Q 391 297 415 288 Q 428 281 440 297 Q 458 330 546 384 Q 549 385 552 388 C 577 404 582 427 554 416 Z"></path>
      </clipPath>
      <path clip-path="url(#make-me-a-hanzi-clip-5)" d="M 397 603 L 433 568 L 438 487 L 431 390 L 437 351 L 476 362 L 530 389 L 540 397 L 543 410" fill="none" id="make-me-a-hanzi-animation-5" stroke-dasharray="523 1046" stroke-linecap="round"></path>
    
      <clipPath id="make-me-a-hanzi-clip-6">
        <path d="M 552 388 Q 552 244 454 126 Q 447 120 441 112 Q 396 69 395 63 Q 394 56 404 57 Q 468 64 552 194 Q 558 207 564 219 Q 603 321 607 537 Q 610 555 611 566 Q 617 585 597 593 Q 552 615 539 612 Q 520 608 536 588 Q 558 551 554 416 L 552 388 Z"></path>
      </clipPath>
      <path clip-path="url(#make-me-a-hanzi-clip-6)" d="M 540 600 L 575 572 L 579 550 L 577 399 L 558 273 L 529 196 L 494 145 L 452 98 L 401 62" fill="none" id="make-me-a-hanzi-animation-6" stroke-dasharray="743 1486" stroke-linecap="round"></path>
    
      <clipPath id="make-me-a-hanzi-clip-7">
        <path d="M 739 590 Q 788 606 825 612 Q 834 613 836 611 Q 846 598 847 562 Q 851 460 835 413 Q 823 385 800 385 Q 787 386 775 389 Q 750 398 768 373 Q 799 334 813 305 Q 835 287 850 307 Q 901 356 907 485 Q 907 597 921 624 Q 930 637 923 644 Q 914 653 868 666 Q 850 670 836 657 Q 815 645 731 616 C 703 606 710 581 739 590 Z"></path>
      </clipPath>
      <path clip-path="url(#make-me-a-hanzi-clip-7)" d="M 745 599 L 749 608 L 764 614 L 835 633 L 860 634 L 877 621 L 876 457 L 856 380 L 832 352 L 768 383" fill="none" id="make-me-a-hanzi-animation-7" stroke-dasharray="625 1250" stroke-linecap="round"></path>
    
      <clipPath id="make-me-a-hanzi-clip-8">
        <path d="M 674 -35 Q 680 -60 686 -69 Q 692 -76 699 -74 Q 717 -62 720 -7 Q 729 77 727 159 Q 723 229 728 501 Q 731 558 739 590 C 743 608 743 608 731 616 Q 730 617 729 618 Q 698 640 682 642 Q 669 646 654 638 Q 645 631 652 620 Q 677 575 678 499 Q 678 361 672 159 Q 669 14 674 -35 Z"></path>
      </clipPath>
      <path clip-path="url(#make-me-a-hanzi-clip-8)" d="M 661 628 L 693 605 L 703 578 L 695 -64" fill="none" id="make-me-a-hanzi-animation-8" stroke-dasharray="838 1676" stroke-linecap="round"></path>
    
  </g>
</svg>