<svg version="1.1" viewBox="0 0 1024 1024" xmlns="http://www.w3.org/2000/svg">
  <g stroke="lightgray" stroke-dasharray="1,1" stroke-width="1" transform="scale(4, 4)">
    <line x1="0" y1="0" x2="256" y2="256"></line>
    <line x1="256" y1="0" x2="0" y2="256"></line>
    <line x1="128" y1="0" x2="128" y2="256"></line>
    <line x1="0" y1="128" x2="256" y2="128"></line>
  </g>
  <g transform="scale(1, -1) translate(0, -900)">
    <style type="text/css">
      
        @keyframes keyframes0 {
          from {
            stroke: blue;
            stroke-dashoffset: 607;
            stroke-width: 128;
          }
          66% {
            animation-timing-function: step-end;
            stroke: blue;
            stroke-dashoffset: 0;
            stroke-width: 128;
          }
          to {
            stroke: black;
            stroke-width: 1024;
          }
        }
        #make-me-a-hanzi-animation-0 {
          animation: keyframes0 0.7439778645833334s both;
          animation-delay: 0s;
          animation-timing-function: linear;
        }
      
        @keyframes keyframes1 {
          from {
            stroke: blue;
            stroke-dashoffset: 752;
            stroke-width: 128;
          }
          71% {
            animation-timing-function: step-end;
            stroke: blue;
            stroke-dashoffset: 0;
            stroke-width: 128;
          }
          to {
            stroke: black;
            stroke-width: 1024;
          }
        }
        #make-me-a-hanzi-animation-1 {
          animation: keyframes1 0.8619791666666666s both;
          animation-delay: 0.7439778645833334s;
          animation-timing-function: linear;
        }
      
        @keyframes keyframes2 {
          from {
            stroke: blue;
            stroke-dashoffset: 344;
            stroke-width: 128;
          }
          53% {
            animation-timing-function: step-end;
            stroke: blue;
            stroke-dashoffset: 0;
            stroke-width: 128;
          }
          to {
            stroke: black;
            stroke-width: 1024;
          }
        }
        #make-me-a-hanzi-animation-2 {
          animation: keyframes2 0.5299479166666666s both;
          animation-delay: 1.60595703125s;
          animation-timing-function: linear;
        }
      
        @keyframes keyframes3 {
          from {
            stroke: blue;
            stroke-dashoffset: 497;
            stroke-width: 128;
          }
          62% {
            animation-timing-function: step-end;
            stroke: blue;
            stroke-dashoffset: 0;
            stroke-width: 128;
          }
          to {
            stroke: black;
            stroke-width: 1024;
          }
        }
        #make-me-a-hanzi-animation-3 {
          animation: keyframes3 0.6544596354166666s both;
          animation-delay: 2.1359049479166665s;
          animation-timing-function: linear;
        }
      
        @keyframes keyframes4 {
          from {
            stroke: blue;
            stroke-dashoffset: 679;
            stroke-width: 128;
          }
          69% {
            animation-timing-function: step-end;
            stroke: blue;
            stroke-dashoffset: 0;
            stroke-width: 128;
          }
          to {
            stroke: black;
            stroke-width: 1024;
          }
        }
        #make-me-a-hanzi-animation-4 {
          animation: keyframes4 0.8025716145833334s both;
          animation-delay: 2.790364583333333s;
          animation-timing-function: linear;
        }
      
        @keyframes keyframes5 {
          from {
            stroke: blue;
            stroke-dashoffset: 671;
            stroke-width: 128;
          }
          69% {
            animation-timing-function: step-end;
            stroke: blue;
            stroke-dashoffset: 0;
            stroke-width: 128;
          }
          to {
            stroke: black;
            stroke-width: 1024;
          }
        }
        #make-me-a-hanzi-animation-5 {
          animation: keyframes5 0.7960611979166666s both;
          animation-delay: 3.5929361979166665s;
          animation-timing-function: linear;
        }
      
        @keyframes keyframes6 {
          from {
            stroke: blue;
            stroke-dashoffset: 956;
            stroke-width: 128;
          }
          76% {
            animation-timing-function: step-end;
            stroke: blue;
            stroke-dashoffset: 0;
            stroke-width: 128;
          }
          to {
            stroke: black;
            stroke-width: 1024;
          }
        }
        #make-me-a-hanzi-animation-6 {
          animation: keyframes6 1.0279947916666667s both;
          animation-delay: 4.388997395833333s;
          animation-timing-function: linear;
        }
      
        @keyframes keyframes7 {
          from {
            stroke: blue;
            stroke-dashoffset: 723;
            stroke-width: 128;
          }
          70% {
            animation-timing-function: step-end;
            stroke: blue;
            stroke-dashoffset: 0;
            stroke-width: 128;
          }
          to {
            stroke: black;
            stroke-width: 1024;
          }
        }
        #make-me-a-hanzi-animation-7 {
          animation: keyframes7 0.83837890625s both;
          animation-delay: 5.4169921875s;
          animation-timing-function: linear;
        }
      
        @keyframes keyframes8 {
          from {
            stroke: blue;
            stroke-dashoffset: 656;
            stroke-width: 128;
          }
          68% {
            animation-timing-function: step-end;
            stroke: blue;
            stroke-dashoffset: 0;
            stroke-width: 128;
          }
          to {
            stroke: black;
            stroke-width: 1024;
          }
        }
        #make-me-a-hanzi-animation-8 {
          animation: keyframes8 0.7838541666666666s both;
          animation-delay: 6.25537109375s;
          animation-timing-function: linear;
        }
      
        @keyframes keyframes9 {
          from {
            stroke: blue;
            stroke-dashoffset: 732;
            stroke-width: 128;
          }
          70% {
            animation-timing-function: step-end;
            stroke: blue;
            stroke-dashoffset: 0;
            stroke-width: 128;
          }
          to {
            stroke: black;
            stroke-width: 1024;
          }
        }
        #make-me-a-hanzi-animation-9 {
          animation: keyframes9 0.845703125s both;
          animation-delay: 7.039225260416667s;
          animation-timing-function: linear;
        }
      
    </style>
    
      <path d="M 253 572 Q 257 579 265 585 Q 284 606 305 631 L 320 652 Q 368 724 381 734 Q 388 743 386 754 Q 382 764 360 784 Q 338 800 323 800 Q 307 799 314 780 Q 329 746 254 630 Q 218 578 170 521 Q 161 514 160 508 Q 156 499 168 501 Q 184 504 235 553 L 253 572 Z" fill="lightgray"></path>
    
      <path d="M 305 631 Q 317 624 343 629 Q 391 642 395 635 Q 399 625 384 586 Q 372 543 328 486 Q 285 425 213 364 Q 191 349 210 351 Q 264 351 352 444 Q 404 502 446 581 Q 465 618 479 629 Q 491 639 485 650 Q 481 660 428 682 Q 415 686 394 676 Q 370 664 320 652 C 291 645 276 638 305 631 Z" fill="lightgray"></path>
    
      <path d="M 235 553 Q 298 490 307 489 Q 314 489 318 497 Q 322 506 317 525 Q 313 549 253 572 C 225 583 214 574 235 553 Z" fill="lightgray"></path>
    
      <path d="M 680 651 Q 773 672 780 678 Q 787 685 783 693 Q 776 703 749 710 Q 730 713 684 698 C 655 689 632 681 631 681 Q 630 682 628 681 Q 589 671 543 666 Q 510 660 534 645 Q 573 627 626 639 Q 627 639 632 639 L 680 651 Z" fill="lightgray"></path>
    
      <path d="M 672 516 Q 697 523 806 524 Q 825 523 831 533 Q 835 540 819 551 Q 768 582 710 561 Q 698 561 674 553 L 632 544 Q 589 537 551 524 Q 529 517 535 536 Q 556 587 556 588 Q 552 597 523 612 Q 508 619 500 615 Q 491 608 498 596 Q 519 563 483 517 Q 468 511 471 493 Q 472 483 487 473 Q 499 466 509 475 Q 557 502 631 510 L 672 516 Z" fill="lightgray"></path>
    
      <path d="M 631 510 Q 628 419 636 395 Q 642 385 650 390 Q 669 405 670 482 Q 671 500 672 516 L 674 553 Q 677 605 680 651 L 684 698 Q 687 732 692 750 Q 699 769 688 780 Q 673 793 647 807 Q 626 814 604 806 Q 594 799 606 783 Q 624 747 631 681 L 632 639 Q 633 602 633 556 Q 632 550 632 544 L 631 510 Z" fill="lightgray"></path>
    
      <path d="M 520 307 Q 571 313 837 312 Q 858 312 862 320 Q 868 332 852 346 Q 801 386 762 378 Q 671 362 522 340 L 469 334 Q 327 319 161 302 Q 140 301 155 283 Q 168 270 187 263 Q 208 257 224 261 Q 320 286 428 297 L 520 307 Z" fill="lightgray"></path>
    
      <path d="M 519 305 Q 519 306 520 307 L 522 340 Q 523 365 527 379 Q 530 392 522 398 Q 500 419 480 428 Q 467 432 458 425 Q 452 421 459 411 Q 463 402 469 334 L 466 256 Q 466 142 450 69 Q 438 35 471 -20 Q 483 -41 492 -47 Q 504 -48 509 -35 Q 522 -2 519 29 Q 518 156 518 262 L 519 305 Z" fill="lightgray"></path>
    
      <path d="M 428 297 Q 388 189 159 48 Q 140 36 157 33 Q 196 29 291 83 Q 348 122 401 175 Q 440 214 466 256 C 500 309 449 349 428 297 Z" fill="lightgray"></path>
    
      <path d="M 518 262 Q 594 168 679 79 Q 703 54 744 51 Q 819 44 897 57 Q 916 58 919 64 Q 922 71 906 78 Q 705 157 627 214 Q 594 238 564 264 Q 537 289 519 305 C 497 325 499 285 518 262 Z" fill="lightgray"></path>
    
    
      <clipPath id="make-me-a-hanzi-clip-0">
        <path d="M 253 572 Q 257 579 265 585 Q 284 606 305 631 L 320 652 Q 368 724 381 734 Q 388 743 386 754 Q 382 764 360 784 Q 338 800 323 800 Q 307 799 314 780 Q 329 746 254 630 Q 218 578 170 521 Q 161 514 160 508 Q 156 499 168 501 Q 184 504 235 553 L 253 572 Z"></path>
      </clipPath>
      <path clip-path="url(#make-me-a-hanzi-clip-0)" d="M 323 788 L 341 769 L 348 748 L 320 693 L 218 555 L 167 508" fill="none" id="make-me-a-hanzi-animation-0" stroke-dasharray="479 958" stroke-linecap="round"></path>
    
      <clipPath id="make-me-a-hanzi-clip-1">
        <path d="M 305 631 Q 317 624 343 629 Q 391 642 395 635 Q 399 625 384 586 Q 372 543 328 486 Q 285 425 213 364 Q 191 349 210 351 Q 264 351 352 444 Q 404 502 446 581 Q 465 618 479 629 Q 491 639 485 650 Q 481 660 428 682 Q 415 686 394 676 Q 370 664 320 652 C 291 645 276 638 305 631 Z"></path>
      </clipPath>
      <path clip-path="url(#make-me-a-hanzi-clip-1)" d="M 312 634 L 397 656 L 420 653 L 434 636 L 397 546 L 330 450 L 264 387 L 215 357" fill="none" id="make-me-a-hanzi-animation-1" stroke-dasharray="624 1248" stroke-linecap="round"></path>
    
      <clipPath id="make-me-a-hanzi-clip-2">
        <path d="M 235 553 Q 298 490 307 489 Q 314 489 318 497 Q 322 506 317 525 Q 313 549 253 572 C 225 583 214 574 235 553 Z"></path>
      </clipPath>
      <path clip-path="url(#make-me-a-hanzi-clip-2)" d="M 248 549 L 259 553 L 275 542 L 294 526 L 309 498" fill="none" id="make-me-a-hanzi-animation-2" stroke-dasharray="216 432" stroke-linecap="round"></path>
    
      <clipPath id="make-me-a-hanzi-clip-3">
        <path d="M 680 651 Q 773 672 780 678 Q 787 685 783 693 Q 776 703 749 710 Q 730 713 684 698 C 655 689 632 681 631 681 Q 630 682 628 681 Q 589 671 543 666 Q 510 660 534 645 Q 573 627 626 639 Q 627 639 632 639 L 680 651 Z"></path>
      </clipPath>
      <path clip-path="url(#make-me-a-hanzi-clip-3)" d="M 536 657 L 598 654 L 737 688 L 773 687" fill="none" id="make-me-a-hanzi-animation-3" stroke-dasharray="369 738" stroke-linecap="round"></path>
    
      <clipPath id="make-me-a-hanzi-clip-4">
        <path d="M 672 516 Q 697 523 806 524 Q 825 523 831 533 Q 835 540 819 551 Q 768 582 710 561 Q 698 561 674 553 L 632 544 Q 589 537 551 524 Q 529 517 535 536 Q 556 587 556 588 Q 552 597 523 612 Q 508 619 500 615 Q 491 608 498 596 Q 519 563 483 517 Q 468 511 471 493 Q 472 483 487 473 Q 499 466 509 475 Q 557 502 631 510 L 672 516 Z"></path>
      </clipPath>
      <path clip-path="url(#make-me-a-hanzi-clip-4)" d="M 506 606 L 527 583 L 511 509 L 518 506 L 536 505 L 614 525 L 738 546 L 777 546 L 821 536" fill="none" id="make-me-a-hanzi-animation-4" stroke-dasharray="551 1102" stroke-linecap="round"></path>
    
      <clipPath id="make-me-a-hanzi-clip-5">
        <path d="M 631 510 Q 628 419 636 395 Q 642 385 650 390 Q 669 405 670 482 Q 671 500 672 516 L 674 553 Q 677 605 680 651 L 684 698 Q 687 732 692 750 Q 699 769 688 780 Q 673 793 647 807 Q 626 814 604 806 Q 594 799 606 783 Q 624 747 631 681 L 632 639 Q 633 602 633 556 Q 632 550 632 544 L 631 510 Z"></path>
      </clipPath>
      <path clip-path="url(#make-me-a-hanzi-clip-5)" d="M 614 795 L 635 784 L 655 758 L 652 471 L 646 400" fill="none" id="make-me-a-hanzi-animation-5" stroke-dasharray="543 1086" stroke-linecap="round"></path>
    
      <clipPath id="make-me-a-hanzi-clip-6">
        <path d="M 520 307 Q 571 313 837 312 Q 858 312 862 320 Q 868 332 852 346 Q 801 386 762 378 Q 671 362 522 340 L 469 334 Q 327 319 161 302 Q 140 301 155 283 Q 168 270 187 263 Q 208 257 224 261 Q 320 286 428 297 L 520 307 Z"></path>
      </clipPath>
      <path clip-path="url(#make-me-a-hanzi-clip-6)" d="M 158 292 L 215 283 L 361 307 L 762 345 L 814 340 L 851 327" fill="none" id="make-me-a-hanzi-animation-6" stroke-dasharray="828 1656" stroke-linecap="round"></path>
    
      <clipPath id="make-me-a-hanzi-clip-7">
        <path d="M 519 305 Q 519 306 520 307 L 522 340 Q 523 365 527 379 Q 530 392 522 398 Q 500 419 480 428 Q 467 432 458 425 Q 452 421 459 411 Q 463 402 469 334 L 466 256 Q 466 142 450 69 Q 438 35 471 -20 Q 483 -41 492 -47 Q 504 -48 509 -35 Q 522 -2 519 29 Q 518 156 518 262 L 519 305 Z"></path>
      </clipPath>
      <path clip-path="url(#make-me-a-hanzi-clip-7)" d="M 467 419 L 496 380 L 491 151 L 483 55 L 495 -37" fill="none" id="make-me-a-hanzi-animation-7" stroke-dasharray="595 1190" stroke-linecap="round"></path>
    
      <clipPath id="make-me-a-hanzi-clip-8">
        <path d="M 428 297 Q 388 189 159 48 Q 140 36 157 33 Q 196 29 291 83 Q 348 122 401 175 Q 440 214 466 256 C 500 309 449 349 428 297 Z"></path>
      </clipPath>
      <path clip-path="url(#make-me-a-hanzi-clip-8)" d="M 462 294 L 409 218 L 321 133 L 252 84 L 162 40" fill="none" id="make-me-a-hanzi-animation-8" stroke-dasharray="528 1056" stroke-linecap="round"></path>
    
      <clipPath id="make-me-a-hanzi-clip-9">
        <path d="M 518 262 Q 594 168 679 79 Q 703 54 744 51 Q 819 44 897 57 Q 916 58 919 64 Q 922 71 906 78 Q 705 157 627 214 Q 594 238 564 264 Q 537 289 519 305 C 497 325 499 285 518 262 Z"></path>
      </clipPath>
      <path clip-path="url(#make-me-a-hanzi-clip-9)" d="M 521 298 L 536 267 L 578 223 L 715 109 L 783 87 L 912 66" fill="none" id="make-me-a-hanzi-animation-9" stroke-dasharray="604 1208" stroke-linecap="round"></path>
    
  </g>
</svg>