<svg version="1.1" viewBox="0 0 1024 1024" xmlns="http://www.w3.org/2000/svg">
  <g stroke="lightgray" stroke-dasharray="1,1" stroke-width="1" transform="scale(4, 4)">
    <line x1="0" y1="0" x2="256" y2="256"></line>
    <line x1="256" y1="0" x2="0" y2="256"></line>
    <line x1="128" y1="0" x2="128" y2="256"></line>
    <line x1="0" y1="128" x2="256" y2="128"></line>
  </g>
  <g transform="scale(1, -1) translate(0, -900)">
    <style type="text/css">
      
        @keyframes keyframes0 {
          from {
            stroke: blue;
            stroke-dashoffset: 546;
            stroke-width: 128;
          }
          64% {
            animation-timing-function: step-end;
            stroke: blue;
            stroke-dashoffset: 0;
            stroke-width: 128;
          }
          to {
            stroke: black;
            stroke-width: 1024;
          }
        }
        #make-me-a-hanzi-animation-0 {
          animation: keyframes0 0.6943359375s both;
          animation-delay: 0s;
          animation-timing-function: linear;
        }
      
        @keyframes keyframes1 {
          from {
            stroke: blue;
            stroke-dashoffset: 1083;
            stroke-width: 128;
          }
          78% {
            animation-timing-function: step-end;
            stroke: blue;
            stroke-dashoffset: 0;
            stroke-width: 128;
          }
          to {
            stroke: black;
            stroke-width: 1024;
          }
        }
        #make-me-a-hanzi-animation-1 {
          animation: keyframes1 1.13134765625s both;
          animation-delay: 0.6943359375s;
          animation-timing-function: linear;
        }
      
        @keyframes keyframes2 {
          from {
            stroke: blue;
            stroke-dashoffset: 643;
            stroke-width: 128;
          }
          68% {
            animation-timing-function: step-end;
            stroke: blue;
            stroke-dashoffset: 0;
            stroke-width: 128;
          }
          to {
            stroke: black;
            stroke-width: 1024;
          }
        }
        #make-me-a-hanzi-animation-2 {
          animation: keyframes2 0.7732747395833334s both;
          animation-delay: 1.82568359375s;
          animation-timing-function: linear;
        }
      
        @keyframes keyframes3 {
          from {
            stroke: blue;
            stroke-dashoffset: 347;
            stroke-width: 128;
          }
          53% {
            animation-timing-function: step-end;
            stroke: blue;
            stroke-dashoffset: 0;
            stroke-width: 128;
          }
          to {
            stroke: black;
            stroke-width: 1024;
          }
        }
        #make-me-a-hanzi-animation-3 {
          animation: keyframes3 0.5323893229166666s both;
          animation-delay: 2.5989583333333335s;
          animation-timing-function: linear;
        }
      
        @keyframes keyframes4 {
          from {
            stroke: blue;
            stroke-dashoffset: 621;
            stroke-width: 128;
          }
          67% {
            animation-timing-function: step-end;
            stroke: blue;
            stroke-dashoffset: 0;
            stroke-width: 128;
          }
          to {
            stroke: black;
            stroke-width: 1024;
          }
        }
        #make-me-a-hanzi-animation-4 {
          animation: keyframes4 0.75537109375s both;
          animation-delay: 3.13134765625s;
          animation-timing-function: linear;
        }
      
        @keyframes keyframes5 {
          from {
            stroke: blue;
            stroke-dashoffset: 368;
            stroke-width: 128;
          }
          55% {
            animation-timing-function: step-end;
            stroke: blue;
            stroke-dashoffset: 0;
            stroke-width: 128;
          }
          to {
            stroke: black;
            stroke-width: 1024;
          }
        }
        #make-me-a-hanzi-animation-5 {
          animation: keyframes5 0.5494791666666666s both;
          animation-delay: 3.88671875s;
          animation-timing-function: linear;
        }
      
        @keyframes keyframes6 {
          from {
            stroke: blue;
            stroke-dashoffset: 453;
            stroke-width: 128;
          }
          60% {
            animation-timing-function: step-end;
            stroke: blue;
            stroke-dashoffset: 0;
            stroke-width: 128;
          }
          to {
            stroke: black;
            stroke-width: 1024;
          }
        }
        #make-me-a-hanzi-animation-6 {
          animation: keyframes6 0.61865234375s both;
          animation-delay: 4.436197916666667s;
          animation-timing-function: linear;
        }
      
        @keyframes keyframes7 {
          from {
            stroke: blue;
            stroke-dashoffset: 713;
            stroke-width: 128;
          }
          70% {
            animation-timing-function: step-end;
            stroke: blue;
            stroke-dashoffset: 0;
            stroke-width: 128;
          }
          to {
            stroke: black;
            stroke-width: 1024;
          }
        }
        #make-me-a-hanzi-animation-7 {
          animation: keyframes7 0.8302408854166666s both;
          animation-delay: 5.054850260416667s;
          animation-timing-function: linear;
        }
      
        @keyframes keyframes8 {
          from {
            stroke: blue;
            stroke-dashoffset: 597;
            stroke-width: 128;
          }
          66% {
            animation-timing-function: step-end;
            stroke: blue;
            stroke-dashoffset: 0;
            stroke-width: 128;
          }
          to {
            stroke: black;
            stroke-width: 1024;
          }
        }
        #make-me-a-hanzi-animation-8 {
          animation: keyframes8 0.73583984375s both;
          animation-delay: 5.885091145833334s;
          animation-timing-function: linear;
        }
      
        @keyframes keyframes9 {
          from {
            stroke: blue;
            stroke-dashoffset: 989;
            stroke-width: 128;
          }
          76% {
            animation-timing-function: step-end;
            stroke: blue;
            stroke-dashoffset: 0;
            stroke-width: 128;
          }
          to {
            stroke: black;
            stroke-width: 1024;
          }
        }
        #make-me-a-hanzi-animation-9 {
          animation: keyframes9 1.0548502604166667s both;
          animation-delay: 6.620930989583334s;
          animation-timing-function: linear;
        }
      
    </style>
    
      <path d="M 316 499 Q 338 506 361 511 Q 395 521 401 527 Q 410 536 404 544 Q 397 556 366 561 Q 341 565 317 556 L 271 537 Q 162 506 119 499 Q 82 490 110 475 Q 152 454 218 474 Q 233 480 253 482 L 316 499 Z" fill="lightgray"></path>
    
      <path d="M 313 400 Q 314 446 316 499 L 317 556 Q 317 649 338 723 Q 351 750 327 767 Q 311 779 282 797 Q 258 815 237 799 Q 233 795 238 778 Q 269 730 270 683 Q 270 614 271 537 L 266 389 Q 257 187 257 182 Q 250 139 237 97 Q 227 58 251 -5 Q 258 -24 266 -27 Q 272 -34 280 -25 Q 307 -9 308 57 Q 307 96 313 373 L 313 400 Z" fill="lightgray"></path>
    
      <path d="M 253 482 Q 205 353 62 158 Q 56 148 68 147 Q 74 146 84 155 Q 198 257 266 389 C 329 510 264 510 253 482 Z" fill="lightgray"></path>
    
      <path d="M 313 373 Q 364 318 383 317 Q 395 316 400 332 Q 401 344 393 361 Q 383 376 362 383 Q 329 398 315 400 Q 314 401 313 400 C 286 402 293 395 313 373 Z" fill="lightgray"></path>
    
      <path d="M 629 421 Q 648 679 663 726 Q 666 736 646 752 Q 610 771 586 775 Q 570 779 562 770 Q 555 763 563 747 Q 582 719 583 700 Q 592 567 587 414 C 586 384 627 391 629 421 Z" fill="lightgray"></path>
    
      <path d="M 464 514 Q 482 495 502 471 Q 512 458 526 458 Q 536 458 541 469 Q 545 481 541 507 Q 532 537 463 556 Q 450 560 444 559 Q 440 555 440 544 Q 441 534 464 514 Z" fill="lightgray"></path>
    
      <path d="M 752 602 Q 728 565 679 507 Q 673 498 679 491 Q 688 490 696 494 Q 789 555 834 577 Q 853 583 849 595 Q 843 613 822 634 Q 800 655 775 657 Q 759 657 760 635 Q 761 619 752 602 Z" fill="lightgray"></path>
    
      <path d="M 587 414 Q 512 404 428 390 Q 407 387 423 371 Q 436 358 454 353 Q 475 349 490 353 Q 631 393 864 393 Q 883 393 888 402 Q 892 412 877 426 Q 817 468 773 450 Q 716 438 629 421 L 587 414 Z" fill="lightgray"></path>
    
      <path d="M 504 315 Q 513 230 439 137 Q 436 137 436 134 Q 414 106 359 57 Q 352 50 359 47 Q 366 44 376 49 Q 499 100 560 246 Q 567 264 578 280 Q 585 290 580 299 Q 574 309 545 324 Q 524 336 515 333 Q 502 329 504 315 Z" fill="lightgray"></path>
    
      <path d="M 975 83 Q 954 131 940 214 Q 937 230 929 234 Q 922 238 919 218 Q 909 115 894 96 Q 870 69 776 65 Q 724 64 701 72 Q 682 82 676 95 Q 669 120 671 183 Q 677 253 692 286 Q 705 316 686 333 Q 637 372 620 368 Q 605 362 612 345 Q 631 308 626 252 Q 619 90 644 58 Q 663 31 730 21 Q 779 14 859 17 Q 931 20 959 35 Q 989 51 975 83 Z" fill="lightgray"></path>
    
    
      <clipPath id="make-me-a-hanzi-clip-0">
        <path d="M 316 499 Q 338 506 361 511 Q 395 521 401 527 Q 410 536 404 544 Q 397 556 366 561 Q 341 565 317 556 L 271 537 Q 162 506 119 499 Q 82 490 110 475 Q 152 454 218 474 Q 233 480 253 482 L 316 499 Z"></path>
      </clipPath>
      <path clip-path="url(#make-me-a-hanzi-clip-0)" d="M 111 488 L 146 484 L 187 489 L 331 532 L 394 537" fill="none" id="make-me-a-hanzi-animation-0" stroke-dasharray="418 836" stroke-linecap="round"></path>
    
      <clipPath id="make-me-a-hanzi-clip-1">
        <path d="M 313 400 Q 314 446 316 499 L 317 556 Q 317 649 338 723 Q 351 750 327 767 Q 311 779 282 797 Q 258 815 237 799 Q 233 795 238 778 Q 269 730 270 683 Q 270 614 271 537 L 266 389 Q 257 187 257 182 Q 250 139 237 97 Q 227 58 251 -5 Q 258 -24 266 -27 Q 272 -34 280 -25 Q 307 -9 308 57 Q 307 96 313 373 L 313 400 Z"></path>
      </clipPath>
      <path clip-path="url(#make-me-a-hanzi-clip-1)" d="M 249 792 L 301 737 L 284 181 L 271 85 L 271 -13" fill="none" id="make-me-a-hanzi-animation-1" stroke-dasharray="955 1910" stroke-linecap="round"></path>
    
      <clipPath id="make-me-a-hanzi-clip-2">
        <path d="M 253 482 Q 205 353 62 158 Q 56 148 68 147 Q 74 146 84 155 Q 198 257 266 389 C 329 510 264 510 253 482 Z"></path>
      </clipPath>
      <path clip-path="url(#make-me-a-hanzi-clip-2)" d="M 267 480 L 259 474 L 241 393 L 212 341 L 134 228 L 70 155" fill="none" id="make-me-a-hanzi-animation-2" stroke-dasharray="515 1030" stroke-linecap="round"></path>
    
      <clipPath id="make-me-a-hanzi-clip-3">
        <path d="M 313 373 Q 364 318 383 317 Q 395 316 400 332 Q 401 344 393 361 Q 383 376 362 383 Q 329 398 315 400 Q 314 401 313 400 C 286 402 293 395 313 373 Z"></path>
      </clipPath>
      <path clip-path="url(#make-me-a-hanzi-clip-3)" d="M 314 393 L 371 350 L 383 334" fill="none" id="make-me-a-hanzi-animation-3" stroke-dasharray="219 438" stroke-linecap="round"></path>
    
      <clipPath id="make-me-a-hanzi-clip-4">
        <path d="M 629 421 Q 648 679 663 726 Q 666 736 646 752 Q 610 771 586 775 Q 570 779 562 770 Q 555 763 563 747 Q 582 719 583 700 Q 592 567 587 414 C 586 384 627 391 629 421 Z"></path>
      </clipPath>
      <path clip-path="url(#make-me-a-hanzi-clip-4)" d="M 574 761 L 620 719 L 612 460 L 608 439 L 593 422" fill="none" id="make-me-a-hanzi-animation-4" stroke-dasharray="493 986" stroke-linecap="round"></path>
    
      <clipPath id="make-me-a-hanzi-clip-5">
        <path d="M 464 514 Q 482 495 502 471 Q 512 458 526 458 Q 536 458 541 469 Q 545 481 541 507 Q 532 537 463 556 Q 450 560 444 559 Q 440 555 440 544 Q 441 534 464 514 Z"></path>
      </clipPath>
      <path clip-path="url(#make-me-a-hanzi-clip-5)" d="M 448 550 L 498 516 L 514 500 L 526 474" fill="none" id="make-me-a-hanzi-animation-5" stroke-dasharray="240 480" stroke-linecap="round"></path>
    
      <clipPath id="make-me-a-hanzi-clip-6">
        <path d="M 752 602 Q 728 565 679 507 Q 673 498 679 491 Q 688 490 696 494 Q 789 555 834 577 Q 853 583 849 595 Q 843 613 822 634 Q 800 655 775 657 Q 759 657 760 635 Q 761 619 752 602 Z"></path>
      </clipPath>
      <path clip-path="url(#make-me-a-hanzi-clip-6)" d="M 776 641 L 790 621 L 793 598 L 683 497" fill="none" id="make-me-a-hanzi-animation-6" stroke-dasharray="325 650" stroke-linecap="round"></path>
    
      <clipPath id="make-me-a-hanzi-clip-7">
        <path d="M 587 414 Q 512 404 428 390 Q 407 387 423 371 Q 436 358 454 353 Q 475 349 490 353 Q 631 393 864 393 Q 883 393 888 402 Q 892 412 877 426 Q 817 468 773 450 Q 716 438 629 421 L 587 414 Z"></path>
      </clipPath>
      <path clip-path="url(#make-me-a-hanzi-clip-7)" d="M 426 380 L 463 373 L 490 376 L 804 424 L 877 407" fill="none" id="make-me-a-hanzi-animation-7" stroke-dasharray="585 1170" stroke-linecap="round"></path>
    
      <clipPath id="make-me-a-hanzi-clip-8">
        <path d="M 504 315 Q 513 230 439 137 Q 436 137 436 134 Q 414 106 359 57 Q 352 50 359 47 Q 366 44 376 49 Q 499 100 560 246 Q 567 264 578 280 Q 585 290 580 299 Q 574 309 545 324 Q 524 336 515 333 Q 502 329 504 315 Z"></path>
      </clipPath>
      <path clip-path="url(#make-me-a-hanzi-clip-8)" d="M 518 319 L 540 286 L 518 217 L 495 175 L 438 106 L 364 52" fill="none" id="make-me-a-hanzi-animation-8" stroke-dasharray="469 938" stroke-linecap="round"></path>
    
      <clipPath id="make-me-a-hanzi-clip-9">
        <path d="M 975 83 Q 954 131 940 214 Q 937 230 929 234 Q 922 238 919 218 Q 909 115 894 96 Q 870 69 776 65 Q 724 64 701 72 Q 682 82 676 95 Q 669 120 671 183 Q 677 253 692 286 Q 705 316 686 333 Q 637 372 620 368 Q 605 362 612 345 Q 631 308 626 252 Q 619 90 644 58 Q 663 31 730 21 Q 779 14 859 17 Q 931 20 959 35 Q 989 51 975 83 Z"></path>
      </clipPath>
      <path clip-path="url(#make-me-a-hanzi-clip-9)" d="M 624 354 L 661 305 L 648 195 L 654 90 L 665 69 L 690 52 L 761 41 L 833 43 L 885 51 L 932 72 L 928 226" fill="none" id="make-me-a-hanzi-animation-9" stroke-dasharray="861 1722" stroke-linecap="round"></path>
    
  </g>
</svg>