<svg version="1.1" viewBox="0 0 1024 1024" xmlns="http://www.w3.org/2000/svg">
  <g stroke="lightgray" stroke-dasharray="1,1" stroke-width="1" transform="scale(4, 4)">
    <line x1="0" y1="0" x2="256" y2="256"></line>
    <line x1="256" y1="0" x2="0" y2="256"></line>
    <line x1="128" y1="0" x2="128" y2="256"></line>
    <line x1="0" y1="128" x2="256" y2="128"></line>
  </g>
  <g transform="scale(1, -1) translate(0, -900)">
    <style type="text/css">
      
        @keyframes keyframes0 {
          from {
            stroke: blue;
            stroke-dashoffset: 516;
            stroke-width: 128;
          }
          63% {
            animation-timing-function: step-end;
            stroke: blue;
            stroke-dashoffset: 0;
            stroke-width: 128;
          }
          to {
            stroke: black;
            stroke-width: 1024;
          }
        }
        #make-me-a-hanzi-animation-0 {
          animation: keyframes0 0.669921875s both;
          animation-delay: 0s;
          animation-timing-function: linear;
        }
      
        @keyframes keyframes1 {
          from {
            stroke: blue;
            stroke-dashoffset: 1073;
            stroke-width: 128;
          }
          78% {
            animation-timing-function: step-end;
            stroke: blue;
            stroke-dashoffset: 0;
            stroke-width: 128;
          }
          to {
            stroke: black;
            stroke-width: 1024;
          }
        }
        #make-me-a-hanzi-animation-1 {
          animation: keyframes1 1.1232096354166667s both;
          animation-delay: 0.669921875s;
          animation-timing-function: linear;
        }
      
        @keyframes keyframes2 {
          from {
            stroke: blue;
            stroke-dashoffset: 644;
            stroke-width: 128;
          }
          68% {
            animation-timing-function: step-end;
            stroke: blue;
            stroke-dashoffset: 0;
            stroke-width: 128;
          }
          to {
            stroke: black;
            stroke-width: 1024;
          }
        }
        #make-me-a-hanzi-animation-2 {
          animation: keyframes2 0.7740885416666666s both;
          animation-delay: 1.7931315104166667s;
          animation-timing-function: linear;
        }
      
        @keyframes keyframes3 {
          from {
            stroke: blue;
            stroke-dashoffset: 347;
            stroke-width: 128;
          }
          53% {
            animation-timing-function: step-end;
            stroke: blue;
            stroke-dashoffset: 0;
            stroke-width: 128;
          }
          to {
            stroke: black;
            stroke-width: 1024;
          }
        }
        #make-me-a-hanzi-animation-3 {
          animation: keyframes3 0.5323893229166666s both;
          animation-delay: 2.5672200520833335s;
          animation-timing-function: linear;
        }
      
        @keyframes keyframes4 {
          from {
            stroke: blue;
            stroke-dashoffset: 450;
            stroke-width: 128;
          }
          59% {
            animation-timing-function: step-end;
            stroke: blue;
            stroke-dashoffset: 0;
            stroke-width: 128;
          }
          to {
            stroke: black;
            stroke-width: 1024;
          }
        }
        #make-me-a-hanzi-animation-4 {
          animation: keyframes4 0.6162109375s both;
          animation-delay: 3.099609375s;
          animation-timing-function: linear;
        }
      
        @keyframes keyframes5 {
          from {
            stroke: blue;
            stroke-dashoffset: 681;
            stroke-width: 128;
          }
          69% {
            animation-timing-function: step-end;
            stroke: blue;
            stroke-dashoffset: 0;
            stroke-width: 128;
          }
          to {
            stroke: black;
            stroke-width: 1024;
          }
        }
        #make-me-a-hanzi-animation-5 {
          animation: keyframes5 0.80419921875s both;
          animation-delay: 3.7158203125s;
          animation-timing-function: linear;
        }
      
        @keyframes keyframes6 {
          from {
            stroke: blue;
            stroke-dashoffset: 448;
            stroke-width: 128;
          }
          59% {
            animation-timing-function: step-end;
            stroke: blue;
            stroke-dashoffset: 0;
            stroke-width: 128;
          }
          to {
            stroke: black;
            stroke-width: 1024;
          }
        }
        #make-me-a-hanzi-animation-6 {
          animation: keyframes6 0.6145833333333334s both;
          animation-delay: 4.52001953125s;
          animation-timing-function: linear;
        }
      
        @keyframes keyframes7 {
          from {
            stroke: blue;
            stroke-dashoffset: 682;
            stroke-width: 128;
          }
          69% {
            animation-timing-function: step-end;
            stroke: blue;
            stroke-dashoffset: 0;
            stroke-width: 128;
          }
          to {
            stroke: black;
            stroke-width: 1024;
          }
        }
        #make-me-a-hanzi-animation-7 {
          animation: keyframes7 0.8050130208333334s both;
          animation-delay: 5.134602864583333s;
          animation-timing-function: linear;
        }
      
        @keyframes keyframes8 {
          from {
            stroke: blue;
            stroke-dashoffset: 668;
            stroke-width: 128;
          }
          68% {
            animation-timing-function: step-end;
            stroke: blue;
            stroke-dashoffset: 0;
            stroke-width: 128;
          }
          to {
            stroke: black;
            stroke-width: 1024;
          }
        }
        #make-me-a-hanzi-animation-8 {
          animation: keyframes8 0.7936197916666666s both;
          animation-delay: 5.939615885416666s;
          animation-timing-function: linear;
        }
      
        @keyframes keyframes9 {
          from {
            stroke: blue;
            stroke-dashoffset: 368;
            stroke-width: 128;
          }
          55% {
            animation-timing-function: step-end;
            stroke: blue;
            stroke-dashoffset: 0;
            stroke-width: 128;
          }
          to {
            stroke: black;
            stroke-width: 1024;
          }
        }
        #make-me-a-hanzi-animation-9 {
          animation: keyframes9 0.5494791666666666s both;
          animation-delay: 6.733235677083333s;
          animation-timing-function: linear;
        }
      
        @keyframes keyframes10 {
          from {
            stroke: blue;
            stroke-dashoffset: 825;
            stroke-width: 128;
          }
          73% {
            animation-timing-function: step-end;
            stroke: blue;
            stroke-dashoffset: 0;
            stroke-width: 128;
          }
          to {
            stroke: black;
            stroke-width: 1024;
          }
        }
        #make-me-a-hanzi-animation-10 {
          animation: keyframes10 0.92138671875s both;
          animation-delay: 7.28271484375s;
          animation-timing-function: linear;
        }
      
    </style>
    
      <path d="M 283 546 Q 305 553 333 559 Q 364 568 368 573 Q 377 580 372 589 Q 365 599 335 605 Q 308 609 284 598 L 243 583 Q 165 561 115 553 Q 81 544 106 530 Q 154 509 203 526 Q 216 530 231 532 L 283 546 Z" fill="lightgray"></path>
    
      <path d="M 239 429 Q 235 342 234 249 Q 230 174 209 105 Q 197 66 222 9 Q 228 -7 235 -11 Q 241 -17 248 -9 Q 255 -5 265 14 Q 275 38 274 67 Q 273 110 280 434 L 281 463 Q 281 503 283 546 L 284 598 Q 288 677 304 733 Q 313 746 310 760 Q 303 769 251 801 Q 229 817 210 803 Q 206 799 211 784 Q 242 736 242 689 Q 242 640 243 583 L 239 429 Z" fill="lightgray"></path>
    
      <path d="M 231 532 Q 209 462 176 397 Q 139 327 50 196 Q 46 186 56 186 Q 77 186 172 312 Q 208 361 239 429 C 301 564 240 561 231 532 Z" fill="lightgray"></path>
    
      <path d="M 280 434 Q 343 386 361 387 Q 371 388 375 404 Q 374 414 364 430 Q 346 452 281 463 C 251 468 256 452 280 434 Z" fill="lightgray"></path>
    
      <path d="M 622 628 Q 629 685 637 736 Q 641 751 643 761 Q 653 783 635 799 Q 604 815 583 820 Q 570 824 562 816 Q 555 809 562 796 Q 578 774 582 622 C 583 592 618 598 622 628 Z" fill="lightgray"></path>
    
      <path d="M 727 642 Q 670 638 622 628 L 582 622 Q 528 615 483 601 Q 468 597 473 616 Q 485 679 479 692 Q 467 707 448 719 Q 439 723 431 723 Q 422 720 427 704 Q 440 668 433 635 Q 427 602 413 589 Q 397 576 403 563 Q 412 550 425 541 Q 435 534 444 541 Q 474 571 637 602 Q 710 615 725 609 C 755 605 757 644 727 642 Z" fill="lightgray"></path>
    
      <path d="M 725 609 Q 726 593 731 581 Q 737 566 748 574 Q 772 590 785 662 Q 801 701 810 708 Q 819 720 811 733 Q 798 748 772 768 Q 762 775 751 772 Q 744 769 745 758 Q 754 745 750 698 Q 746 680 727 642 L 725 609 Z" fill="lightgray"></path>
    
      <path d="M 603 492 Q 610 504 617 508 Q 624 512 622 522 Q 621 531 609 542 Q 579 569 551 564 Q 544 563 545 551 Q 557 481 444 348 Q 441 347 440 343 Q 407 306 325 235 Q 318 231 327 228 Q 373 228 483 332 Q 534 392 590 472 L 603 492 Z" fill="lightgray"></path>
    
      <path d="M 590 472 Q 666 381 750 299 Q 772 278 807 277 Q 871 273 940 287 Q 956 288 958 293 Q 961 300 947 305 Q 782 365 768 373 Q 708 407 603 492 C 580 511 571 495 590 472 Z" fill="lightgray"></path>
    
      <path d="M 551 327 Q 576 305 605 279 Q 615 270 626 271 Q 633 271 638 281 Q 641 291 635 313 Q 631 329 604 343 Q 544 367 532 362 Q 528 359 529 350 Q 532 343 551 327 Z" fill="lightgray"></path>
    
      <path d="M 440 188 Q 409 188 411 182 Q 405 166 430 154 Q 457 133 472 136 Q 488 136 511 149 Q 658 215 679 192 Q 683 182 672 168 Q 663 158 645 122 Q 612 68 600 60 Q 570 35 578 -12 Q 579 -31 588 -36 Q 595 -40 609 -32 Q 634 -14 709 129 Q 730 168 756 183 Q 763 189 765 197 Q 766 210 735 230 Q 704 252 687 254 Q 680 253 672 248 Q 594 206 440 188 Z" fill="lightgray"></path>
    
    
      <clipPath id="make-me-a-hanzi-clip-0">
        <path d="M 283 546 Q 305 553 333 559 Q 364 568 368 573 Q 377 580 372 589 Q 365 599 335 605 Q 308 609 284 598 L 243 583 Q 165 561 115 553 Q 81 544 106 530 Q 154 509 203 526 Q 216 530 231 532 L 283 546 Z"></path>
      </clipPath>
      <path clip-path="url(#make-me-a-hanzi-clip-0)" d="M 108 542 L 167 540 L 307 579 L 362 583" fill="none" id="make-me-a-hanzi-animation-0" stroke-dasharray="388 776" stroke-linecap="round"></path>
    
      <clipPath id="make-me-a-hanzi-clip-1">
        <path d="M 239 429 Q 235 342 234 249 Q 230 174 209 105 Q 197 66 222 9 Q 228 -7 235 -11 Q 241 -17 248 -9 Q 255 -5 265 14 Q 275 38 274 67 Q 273 110 280 434 L 281 463 Q 281 503 283 546 L 284 598 Q 288 677 304 733 Q 313 746 310 760 Q 303 769 251 801 Q 229 817 210 803 Q 206 799 211 784 Q 242 736 242 689 Q 242 640 243 583 L 239 429 Z"></path>
      </clipPath>
      <path clip-path="url(#make-me-a-hanzi-clip-1)" d="M 221 797 L 261 758 L 270 735 L 256 233 L 239 84 L 240 0" fill="none" id="make-me-a-hanzi-animation-1" stroke-dasharray="945 1890" stroke-linecap="round"></path>
    
      <clipPath id="make-me-a-hanzi-clip-2">
        <path d="M 231 532 Q 209 462 176 397 Q 139 327 50 196 Q 46 186 56 186 Q 77 186 172 312 Q 208 361 239 429 C 301 564 240 561 231 532 Z"></path>
      </clipPath>
      <path clip-path="url(#make-me-a-hanzi-clip-2)" d="M 238 527 L 233 524 L 217 430 L 189 376 L 109 254 L 57 193" fill="none" id="make-me-a-hanzi-animation-2" stroke-dasharray="516 1032" stroke-linecap="round"></path>
    
      <clipPath id="make-me-a-hanzi-clip-3">
        <path d="M 280 434 Q 343 386 361 387 Q 371 388 375 404 Q 374 414 364 430 Q 346 452 281 463 C 251 468 256 452 280 434 Z"></path>
      </clipPath>
      <path clip-path="url(#make-me-a-hanzi-clip-3)" d="M 290 455 L 299 439 L 339 421 L 359 400" fill="none" id="make-me-a-hanzi-animation-3" stroke-dasharray="219 438" stroke-linecap="round"></path>
    
      <clipPath id="make-me-a-hanzi-clip-4">
        <path d="M 622 628 Q 629 685 637 736 Q 641 751 643 761 Q 653 783 635 799 Q 604 815 583 820 Q 570 824 562 816 Q 555 809 562 796 Q 578 774 582 622 C 583 592 618 598 622 628 Z"></path>
      </clipPath>
      <path clip-path="url(#make-me-a-hanzi-clip-4)" d="M 573 806 L 608 772 L 603 647 L 587 635" fill="none" id="make-me-a-hanzi-animation-4" stroke-dasharray="322 644" stroke-linecap="round"></path>
    
      <clipPath id="make-me-a-hanzi-clip-5">
        <path d="M 727 642 Q 670 638 622 628 L 582 622 Q 528 615 483 601 Q 468 597 473 616 Q 485 679 479 692 Q 467 707 448 719 Q 439 723 431 723 Q 422 720 427 704 Q 440 668 433 635 Q 427 602 413 589 Q 397 576 403 563 Q 412 550 425 541 Q 435 534 444 541 Q 474 571 637 602 Q 710 615 725 609 C 755 605 757 644 727 642 Z"></path>
      </clipPath>
      <path clip-path="url(#make-me-a-hanzi-clip-5)" d="M 434 715 L 457 682 L 448 582 L 488 583 L 534 597 L 674 623 L 712 626 L 723 615" fill="none" id="make-me-a-hanzi-animation-5" stroke-dasharray="553 1106" stroke-linecap="round"></path>
    
      <clipPath id="make-me-a-hanzi-clip-6">
        <path d="M 725 609 Q 726 593 731 581 Q 737 566 748 574 Q 772 590 785 662 Q 801 701 810 708 Q 819 720 811 733 Q 798 748 772 768 Q 762 775 751 772 Q 744 769 745 758 Q 754 745 750 698 Q 746 680 727 642 L 725 609 Z"></path>
      </clipPath>
      <path clip-path="url(#make-me-a-hanzi-clip-6)" d="M 757 761 L 781 721 L 741 581" fill="none" id="make-me-a-hanzi-animation-6" stroke-dasharray="320 640" stroke-linecap="round"></path>
    
      <clipPath id="make-me-a-hanzi-clip-7">
        <path d="M 603 492 Q 610 504 617 508 Q 624 512 622 522 Q 621 531 609 542 Q 579 569 551 564 Q 544 563 545 551 Q 557 481 444 348 Q 441 347 440 343 Q 407 306 325 235 Q 318 231 327 228 Q 373 228 483 332 Q 534 392 590 472 L 603 492 Z"></path>
      </clipPath>
      <path clip-path="url(#make-me-a-hanzi-clip-7)" d="M 558 553 L 574 533 L 579 516 L 523 416 L 446 320 L 376 261 L 331 233" fill="none" id="make-me-a-hanzi-animation-7" stroke-dasharray="554 1108" stroke-linecap="round"></path>
    
      <clipPath id="make-me-a-hanzi-clip-8">
        <path d="M 590 472 Q 666 381 750 299 Q 772 278 807 277 Q 871 273 940 287 Q 956 288 958 293 Q 961 300 947 305 Q 782 365 768 373 Q 708 407 603 492 C 580 511 571 495 590 472 Z"></path>
      </clipPath>
      <path clip-path="url(#make-me-a-hanzi-clip-8)" d="M 608 482 L 607 472 L 673 409 L 780 325 L 842 308 L 952 295" fill="none" id="make-me-a-hanzi-animation-8" stroke-dasharray="540 1080" stroke-linecap="round"></path>
    
      <clipPath id="make-me-a-hanzi-clip-9">
        <path d="M 551 327 Q 576 305 605 279 Q 615 270 626 271 Q 633 271 638 281 Q 641 291 635 313 Q 631 329 604 343 Q 544 367 532 362 Q 528 359 529 350 Q 532 343 551 327 Z"></path>
      </clipPath>
      <path clip-path="url(#make-me-a-hanzi-clip-9)" d="M 536 355 L 599 318 L 623 287" fill="none" id="make-me-a-hanzi-animation-9" stroke-dasharray="240 480" stroke-linecap="round"></path>
    
      <clipPath id="make-me-a-hanzi-clip-10">
        <path d="M 440 188 Q 409 188 411 182 Q 405 166 430 154 Q 457 133 472 136 Q 488 136 511 149 Q 658 215 679 192 Q 683 182 672 168 Q 663 158 645 122 Q 612 68 600 60 Q 570 35 578 -12 Q 579 -31 588 -36 Q 595 -40 609 -32 Q 634 -14 709 129 Q 730 168 756 183 Q 763 189 765 197 Q 766 210 735 230 Q 704 252 687 254 Q 680 253 672 248 Q 594 206 440 188 Z"></path>
      </clipPath>
      <path clip-path="url(#make-me-a-hanzi-clip-10)" d="M 420 176 L 481 165 L 679 222 L 690 222 L 709 207 L 716 198 L 709 181 L 669 107 L 606 12 L 594 -24" fill="none" id="make-me-a-hanzi-animation-10" stroke-dasharray="697 1394" stroke-linecap="round"></path>
    
  </g>
</svg>