<svg version="1.1" viewBox="0 0 1024 1024" xmlns="http://www.w3.org/2000/svg">
  <g stroke="lightgray" stroke-dasharray="1,1" stroke-width="1" transform="scale(4, 4)">
    <line x1="0" y1="0" x2="256" y2="256"></line>
    <line x1="256" y1="0" x2="0" y2="256"></line>
    <line x1="128" y1="0" x2="128" y2="256"></line>
    <line x1="0" y1="128" x2="256" y2="128"></line>
  </g>
  <g transform="scale(1, -1) translate(0, -900)">
    <style type="text/css">
      
        @keyframes keyframes0 {
          from {
            stroke: blue;
            stroke-dashoffset: 531;
            stroke-width: 128;
          }
          63% {
            animation-timing-function: step-end;
            stroke: blue;
            stroke-dashoffset: 0;
            stroke-width: 128;
          }
          to {
            stroke: black;
            stroke-width: 1024;
          }
        }
        #make-me-a-hanzi-animation-0 {
          animation: keyframes0 0.68212890625s both;
          animation-delay: 0s;
          animation-timing-function: linear;
        }
      
        @keyframes keyframes1 {
          from {
            stroke: blue;
            stroke-dashoffset: 1101;
            stroke-width: 128;
          }
          78% {
            animation-timing-function: step-end;
            stroke: blue;
            stroke-dashoffset: 0;
            stroke-width: 128;
          }
          to {
            stroke: black;
            stroke-width: 1024;
          }
        }
        #make-me-a-hanzi-animation-1 {
          animation: keyframes1 1.14599609375s both;
          animation-delay: 0.68212890625s;
          animation-timing-function: linear;
        }
      
        @keyframes keyframes2 {
          from {
            stroke: blue;
            stroke-dashoffset: 669;
            stroke-width: 128;
          }
          69% {
            animation-timing-function: step-end;
            stroke: blue;
            stroke-dashoffset: 0;
            stroke-width: 128;
          }
          to {
            stroke: black;
            stroke-width: 1024;
          }
        }
        #make-me-a-hanzi-animation-2 {
          animation: keyframes2 0.79443359375s both;
          animation-delay: 1.828125s;
          animation-timing-function: linear;
        }
      
        @keyframes keyframes3 {
          from {
            stroke: blue;
            stroke-dashoffset: 376;
            stroke-width: 128;
          }
          55% {
            animation-timing-function: step-end;
            stroke: blue;
            stroke-dashoffset: 0;
            stroke-width: 128;
          }
          to {
            stroke: black;
            stroke-width: 1024;
          }
        }
        #make-me-a-hanzi-animation-3 {
          animation: keyframes3 0.5559895833333334s both;
          animation-delay: 2.62255859375s;
          animation-timing-function: linear;
        }
      
        @keyframes keyframes4 {
          from {
            stroke: blue;
            stroke-dashoffset: 984;
            stroke-width: 128;
          }
          76% {
            animation-timing-function: step-end;
            stroke: blue;
            stroke-dashoffset: 0;
            stroke-width: 128;
          }
          to {
            stroke: black;
            stroke-width: 1024;
          }
        }
        #make-me-a-hanzi-animation-4 {
          animation: keyframes4 1.05078125s both;
          animation-delay: 3.1785481770833335s;
          animation-timing-function: linear;
        }
      
        @keyframes keyframes5 {
          from {
            stroke: blue;
            stroke-dashoffset: 1364;
            stroke-width: 128;
          }
          82% {
            animation-timing-function: step-end;
            stroke: blue;
            stroke-dashoffset: 0;
            stroke-width: 128;
          }
          to {
            stroke: black;
            stroke-width: 1024;
          }
        }
        #make-me-a-hanzi-animation-5 {
          animation: keyframes5 1.3600260416666667s both;
          animation-delay: 4.229329427083334s;
          animation-timing-function: linear;
        }
      
        @keyframes keyframes6 {
          from {
            stroke: blue;
            stroke-dashoffset: 442;
            stroke-width: 128;
          }
          59% {
            animation-timing-function: step-end;
            stroke: blue;
            stroke-dashoffset: 0;
            stroke-width: 128;
          }
          to {
            stroke: black;
            stroke-width: 1024;
          }
        }
        #make-me-a-hanzi-animation-6 {
          animation: keyframes6 0.6097005208333334s both;
          animation-delay: 5.589355468750001s;
          animation-timing-function: linear;
        }
      
        @keyframes keyframes7 {
          from {
            stroke: blue;
            stroke-dashoffset: 503;
            stroke-width: 128;
          }
          62% {
            animation-timing-function: step-end;
            stroke: blue;
            stroke-dashoffset: 0;
            stroke-width: 128;
          }
          to {
            stroke: black;
            stroke-width: 1024;
          }
        }
        #make-me-a-hanzi-animation-7 {
          animation: keyframes7 0.6593424479166666s both;
          animation-delay: 6.199055989583334s;
          animation-timing-function: linear;
        }
      
        @keyframes keyframes8 {
          from {
            stroke: blue;
            stroke-dashoffset: 506;
            stroke-width: 128;
          }
          62% {
            animation-timing-function: step-end;
            stroke: blue;
            stroke-dashoffset: 0;
            stroke-width: 128;
          }
          to {
            stroke: black;
            stroke-width: 1024;
          }
        }
        #make-me-a-hanzi-animation-8 {
          animation: keyframes8 0.6617838541666666s both;
          animation-delay: 6.858398437500001s;
          animation-timing-function: linear;
        }
      
        @keyframes keyframes9 {
          from {
            stroke: blue;
            stroke-dashoffset: 434;
            stroke-width: 128;
          }
          59% {
            animation-timing-function: step-end;
            stroke: blue;
            stroke-dashoffset: 0;
            stroke-width: 128;
          }
          to {
            stroke: black;
            stroke-width: 1024;
          }
        }
        #make-me-a-hanzi-animation-9 {
          animation: keyframes9 0.6031901041666666s both;
          animation-delay: 7.520182291666668s;
          animation-timing-function: linear;
        }
      
        @keyframes keyframes10 {
          from {
            stroke: blue;
            stroke-dashoffset: 490;
            stroke-width: 128;
          }
          61% {
            animation-timing-function: step-end;
            stroke: blue;
            stroke-dashoffset: 0;
            stroke-width: 128;
          }
          to {
            stroke: black;
            stroke-width: 1024;
          }
        }
        #make-me-a-hanzi-animation-10 {
          animation: keyframes10 0.6487630208333334s both;
          animation-delay: 8.123372395833334s;
          animation-timing-function: linear;
        }
      
        @keyframes keyframes11 {
          from {
            stroke: blue;
            stroke-dashoffset: 393;
            stroke-width: 128;
          }
          56% {
            animation-timing-function: step-end;
            stroke: blue;
            stroke-dashoffset: 0;
            stroke-width: 128;
          }
          to {
            stroke: black;
            stroke-width: 1024;
          }
        }
        #make-me-a-hanzi-animation-11 {
          animation: keyframes11 0.56982421875s both;
          animation-delay: 8.772135416666668s;
          animation-timing-function: linear;
        }
      
    </style>
    
      <path d="M 293 526 Q 395 550 399 554 Q 406 561 403 569 Q 396 579 370 586 Q 340 592 294 573 L 251 559 Q 241 558 232 555 Q 184 545 128 538 Q 94 532 119 517 Q 153 499 219 511 Q 225 512 233 513 L 293 526 Z" fill="lightgray"></path>
    
      <path d="M 248 416 Q 244 325 244 226 Q 240 148 218 77 Q 208 40 232 -22 Q 239 -40 247 -43 Q 253 -50 260 -41 Q 287 -25 287 38 Q 286 83 291 430 L 291 461 Q 292 492 293 526 L 294 573 Q 295 664 313 726 Q 322 741 319 754 Q 312 764 258 797 Q 236 813 215 799 Q 211 795 217 779 Q 250 730 250 680 Q 250 623 251 559 L 248 416 Z" fill="lightgray"></path>
    
      <path d="M 233 513 Q 196 378 53 152 Q 49 142 59 142 Q 83 142 181 287 Q 217 342 248 416 C 303 546 241 542 233 513 Z" fill="lightgray"></path>
    
      <path d="M 291 430 Q 294 429 357 366 Q 366 356 377 356 Q 384 355 390 365 Q 394 375 389 397 Q 382 431 296 460 Q 295 461 291 461 C 261 466 268 449 291 430 Z" fill="lightgray"></path>
    
      <path d="M 510 696 Q 494 709 468 718 Q 449 727 437 721 Q 427 714 434 701 Q 452 674 458 621 Q 458 393 429 279 Q 398 167 328 42 Q 324 35 323 29 Q 322 19 331 22 Q 344 25 380 76 Q 510 244 511 611 Q 511 638 515 657 C 519 687 519 690 510 696 Z" fill="lightgray"></path>
    
      <path d="M 638 684 Q 687 694 744 703 Q 763 704 772 694 Q 788 685 793 617 Q 811 389 800 130 Q 800 91 786 81 Q 771 72 702 93 Q 686 97 686 87 Q 687 80 700 72 Q 761 21 792 -16 Q 814 -37 827 -34 Q 840 -31 852 -2 Q 868 44 869 114 Q 850 474 851 607 Q 851 646 863 670 Q 876 691 865 703 Q 855 719 807 743 Q 788 753 724 735 Q 616 711 510 696 C 480 692 486 651 515 657 Q 519 657 527 658 Q 561 668 603 676 L 638 684 Z" fill="lightgray"></path>
    
      <path d="M 672 522 Q 699 529 727 534 Q 748 538 751 541 Q 758 548 754 555 Q 748 564 725 570 Q 701 573 674 563 L 628 551 Q 600 545 566 542 Q 538 538 558 523 Q 588 507 630 514 L 672 522 Z" fill="lightgray"></path>
    
      <path d="M 666 448 L 672 522 L 674 563 Q 674 578 688 648 Q 691 657 674 669 Q 653 679 638 684 C 610 694 597 699 603 676 Q 603 672 607 664 Q 623 640 628 551 L 630 514 Q 631 480 631 443 C 631 413 664 418 666 448 Z" fill="lightgray"></path>
    
      <path d="M 631 443 Q 607 442 587 439 Q 563 438 536 435 Q 514 434 530 418 Q 551 403 586 402 Q 679 418 772 423 Q 781 422 788 431 Q 789 441 772 450 Q 742 468 666 448 L 631 443 Z" fill="lightgray"></path>
    
      <path d="M 569 321 Q 559 327 532 332 Q 522 335 518 331 Q 514 327 520 312 Q 541 269 552 198 Q 553 176 567 162 Q 580 143 586 156 Q 590 169 589 191 L 586 215 Q 577 278 577 298 C 576 317 576 317 569 321 Z" fill="lightgray"></path>
    
      <path d="M 720 234 Q 733 283 750 298 Q 769 319 750 331 Q 734 341 712 356 Q 694 365 653 342 Q 608 330 569 321 C 540 314 548 292 577 298 Q 643 311 661 314 Q 680 318 685 310 Q 691 306 685 280 Q 681 261 676 239 C 669 210 712 205 720 234 Z" fill="lightgray"></path>
    
      <path d="M 589 191 Q 593 191 600 191 Q 670 200 723 205 Q 745 209 737 221 Q 731 230 720 234 L 676 239 Q 661 238 642 233 Q 611 223 586 215 C 557 206 559 191 589 191 Z" fill="lightgray"></path>
    
    
      <clipPath id="make-me-a-hanzi-clip-0">
        <path d="M 293 526 Q 395 550 399 554 Q 406 561 403 569 Q 396 579 370 586 Q 340 592 294 573 L 251 559 Q 241 558 232 555 Q 184 545 128 538 Q 94 532 119 517 Q 153 499 219 511 Q 225 512 233 513 L 293 526 Z"></path>
      </clipPath>
      <path clip-path="url(#make-me-a-hanzi-clip-0)" d="M 121 529 L 191 526 L 340 562 L 392 564" fill="none" id="make-me-a-hanzi-animation-0" stroke-dasharray="403 806" stroke-linecap="round"></path>
    
      <clipPath id="make-me-a-hanzi-clip-1">
        <path d="M 248 416 Q 244 325 244 226 Q 240 148 218 77 Q 208 40 232 -22 Q 239 -40 247 -43 Q 253 -50 260 -41 Q 287 -25 287 38 Q 286 83 291 430 L 291 461 Q 292 492 293 526 L 294 573 Q 295 664 313 726 Q 322 741 319 754 Q 312 764 258 797 Q 236 813 215 799 Q 211 795 217 779 Q 250 730 250 680 Q 250 623 251 559 L 248 416 Z"></path>
      </clipPath>
      <path clip-path="url(#make-me-a-hanzi-clip-1)" d="M 226 793 L 278 740 L 267 210 L 251 64 L 252 -30" fill="none" id="make-me-a-hanzi-animation-1" stroke-dasharray="973 1946" stroke-linecap="round"></path>
    
      <clipPath id="make-me-a-hanzi-clip-2">
        <path d="M 233 513 Q 196 378 53 152 Q 49 142 59 142 Q 83 142 181 287 Q 217 342 248 416 C 303 546 241 542 233 513 Z"></path>
      </clipPath>
      <path clip-path="url(#make-me-a-hanzi-clip-2)" d="M 247 510 L 240 505 L 226 424 L 206 376 L 131 242 L 60 149" fill="none" id="make-me-a-hanzi-animation-2" stroke-dasharray="541 1082" stroke-linecap="round"></path>
    
      <clipPath id="make-me-a-hanzi-clip-3">
        <path d="M 291 430 Q 294 429 357 366 Q 366 356 377 356 Q 384 355 390 365 Q 394 375 389 397 Q 382 431 296 460 Q 295 461 291 461 C 261 466 268 449 291 430 Z"></path>
      </clipPath>
      <path clip-path="url(#make-me-a-hanzi-clip-3)" d="M 292 453 L 304 449 L 308 438 L 359 400 L 375 372" fill="none" id="make-me-a-hanzi-animation-3" stroke-dasharray="248 496" stroke-linecap="round"></path>
    
      <clipPath id="make-me-a-hanzi-clip-4">
        <path d="M 510 696 Q 494 709 468 718 Q 449 727 437 721 Q 427 714 434 701 Q 452 674 458 621 Q 458 393 429 279 Q 398 167 328 42 Q 324 35 323 29 Q 322 19 331 22 Q 344 25 380 76 Q 510 244 511 611 Q 511 638 515 657 C 519 687 519 690 510 696 Z"></path>
      </clipPath>
      <path clip-path="url(#make-me-a-hanzi-clip-4)" d="M 445 710 L 480 678 L 484 660 L 485 560 L 469 361 L 444 253 L 412 166 L 372 90 L 331 30" fill="none" id="make-me-a-hanzi-animation-4" stroke-dasharray="856 1712" stroke-linecap="round"></path>
    
      <clipPath id="make-me-a-hanzi-clip-5">
        <path d="M 638 684 Q 687 694 744 703 Q 763 704 772 694 Q 788 685 793 617 Q 811 389 800 130 Q 800 91 786 81 Q 771 72 702 93 Q 686 97 686 87 Q 687 80 700 72 Q 761 21 792 -16 Q 814 -37 827 -34 Q 840 -31 852 -2 Q 868 44 869 114 Q 850 474 851 607 Q 851 646 863 670 Q 876 691 865 703 Q 855 719 807 743 Q 788 753 724 735 Q 616 711 510 696 C 480 692 486 651 515 657 Q 519 657 527 658 Q 561 668 603 676 L 638 684 Z"></path>
      </clipPath>
      <path clip-path="url(#make-me-a-hanzi-clip-5)" d="M 520 664 L 535 681 L 738 722 L 794 716 L 824 685 L 821 632 L 835 147 L 829 76 L 811 38 L 766 50 L 694 87" fill="none" id="make-me-a-hanzi-animation-5" stroke-dasharray="1236 2472" stroke-linecap="round"></path>
    
      <clipPath id="make-me-a-hanzi-clip-6">
        <path d="M 672 522 Q 699 529 727 534 Q 748 538 751 541 Q 758 548 754 555 Q 748 564 725 570 Q 701 573 674 563 L 628 551 Q 600 545 566 542 Q 538 538 558 523 Q 588 507 630 514 L 672 522 Z"></path>
      </clipPath>
      <path clip-path="url(#make-me-a-hanzi-clip-6)" d="M 560 533 L 620 530 L 708 551 L 743 550" fill="none" id="make-me-a-hanzi-animation-6" stroke-dasharray="314 628" stroke-linecap="round"></path>
    
      <clipPath id="make-me-a-hanzi-clip-7">
        <path d="M 666 448 L 672 522 L 674 563 Q 674 578 688 648 Q 691 657 674 669 Q 653 679 638 684 C 610 694 597 699 603 676 Q 603 672 607 664 Q 623 640 628 551 L 630 514 Q 631 480 631 443 C 631 413 664 418 666 448 Z"></path>
      </clipPath>
      <path clip-path="url(#make-me-a-hanzi-clip-7)" d="M 610 672 L 636 659 L 652 637 L 650 472 L 636 450" fill="none" id="make-me-a-hanzi-animation-7" stroke-dasharray="375 750" stroke-linecap="round"></path>
    
      <clipPath id="make-me-a-hanzi-clip-8">
        <path d="M 631 443 Q 607 442 587 439 Q 563 438 536 435 Q 514 434 530 418 Q 551 403 586 402 Q 679 418 772 423 Q 781 422 788 431 Q 789 441 772 450 Q 742 468 666 448 L 631 443 Z"></path>
      </clipPath>
      <path clip-path="url(#make-me-a-hanzi-clip-8)" d="M 532 427 L 591 420 L 699 437 L 743 440 L 779 433" fill="none" id="make-me-a-hanzi-animation-8" stroke-dasharray="378 756" stroke-linecap="round"></path>
    
      <clipPath id="make-me-a-hanzi-clip-9">
        <path d="M 569 321 Q 559 327 532 332 Q 522 335 518 331 Q 514 327 520 312 Q 541 269 552 198 Q 553 176 567 162 Q 580 143 586 156 Q 590 169 589 191 L 586 215 Q 577 278 577 298 C 576 317 576 317 569 321 Z"></path>
      </clipPath>
      <path clip-path="url(#make-me-a-hanzi-clip-9)" d="M 525 326 L 553 296 L 577 161" fill="none" id="make-me-a-hanzi-animation-9" stroke-dasharray="306 612" stroke-linecap="round"></path>
    
      <clipPath id="make-me-a-hanzi-clip-10">
        <path d="M 720 234 Q 733 283 750 298 Q 769 319 750 331 Q 734 341 712 356 Q 694 365 653 342 Q 608 330 569 321 C 540 314 548 292 577 298 Q 643 311 661 314 Q 680 318 685 310 Q 691 306 685 280 Q 681 261 676 239 C 669 210 712 205 720 234 Z"></path>
      </clipPath>
      <path clip-path="url(#make-me-a-hanzi-clip-10)" d="M 577 317 L 587 311 L 670 333 L 704 330 L 719 312 L 717 300 L 700 256 L 684 245" fill="none" id="make-me-a-hanzi-animation-10" stroke-dasharray="362 724" stroke-linecap="round"></path>
    
      <clipPath id="make-me-a-hanzi-clip-11">
        <path d="M 589 191 Q 593 191 600 191 Q 670 200 723 205 Q 745 209 737 221 Q 731 230 720 234 L 676 239 Q 661 238 642 233 Q 611 223 586 215 C 557 206 559 191 589 191 Z"></path>
      </clipPath>
      <path clip-path="url(#make-me-a-hanzi-clip-11)" d="M 595 198 L 610 208 L 652 217 L 711 220 L 727 215" fill="none" id="make-me-a-hanzi-animation-11" stroke-dasharray="265 530" stroke-linecap="round"></path>
    
  </g>
</svg>