<svg version="1.1" viewBox="0 0 1024 1024" xmlns="http://www.w3.org/2000/svg">
  <g stroke="lightgray" stroke-dasharray="1,1" stroke-width="1" transform="scale(4, 4)">
    <line x1="0" y1="0" x2="256" y2="256"></line>
    <line x1="256" y1="0" x2="0" y2="256"></line>
    <line x1="128" y1="0" x2="128" y2="256"></line>
    <line x1="0" y1="128" x2="256" y2="128"></line>
  </g>
  <g transform="scale(1, -1) translate(0, -900)">
    <style type="text/css">
      
        @keyframes keyframes0 {
          from {
            stroke: blue;
            stroke-dashoffset: 513;
            stroke-width: 128;
          }
          63% {
            animation-timing-function: step-end;
            stroke: blue;
            stroke-dashoffset: 0;
            stroke-width: 128;
          }
          to {
            stroke: black;
            stroke-width: 1024;
          }
        }
        #make-me-a-hanzi-animation-0 {
          animation: keyframes0 0.66748046875s both;
          animation-delay: 0s;
          animation-timing-function: linear;
        }
      
        @keyframes keyframes1 {
          from {
            stroke: blue;
            stroke-dashoffset: 1101;
            stroke-width: 128;
          }
          78% {
            animation-timing-function: step-end;
            stroke: blue;
            stroke-dashoffset: 0;
            stroke-width: 128;
          }
          to {
            stroke: black;
            stroke-width: 1024;
          }
        }
        #make-me-a-hanzi-animation-1 {
          animation: keyframes1 1.14599609375s both;
          animation-delay: 0.66748046875s;
          animation-timing-function: linear;
        }
      
        @keyframes keyframes2 {
          from {
            stroke: blue;
            stroke-dashoffset: 700;
            stroke-width: 128;
          }
          69% {
            animation-timing-function: step-end;
            stroke: blue;
            stroke-dashoffset: 0;
            stroke-width: 128;
          }
          to {
            stroke: black;
            stroke-width: 1024;
          }
        }
        #make-me-a-hanzi-animation-2 {
          animation: keyframes2 0.8196614583333334s both;
          animation-delay: 1.8134765625s;
          animation-timing-function: linear;
        }
      
        @keyframes keyframes3 {
          from {
            stroke: blue;
            stroke-dashoffset: 338;
            stroke-width: 128;
          }
          52% {
            animation-timing-function: step-end;
            stroke: blue;
            stroke-dashoffset: 0;
            stroke-width: 128;
          }
          to {
            stroke: black;
            stroke-width: 1024;
          }
        }
        #make-me-a-hanzi-animation-3 {
          animation: keyframes3 0.5250651041666666s both;
          animation-delay: 2.6331380208333335s;
          animation-timing-function: linear;
        }
      
        @keyframes keyframes4 {
          from {
            stroke: blue;
            stroke-dashoffset: 713;
            stroke-width: 128;
          }
          70% {
            animation-timing-function: step-end;
            stroke: blue;
            stroke-dashoffset: 0;
            stroke-width: 128;
          }
          to {
            stroke: black;
            stroke-width: 1024;
          }
        }
        #make-me-a-hanzi-animation-4 {
          animation: keyframes4 0.8302408854166666s both;
          animation-delay: 3.158203125s;
          animation-timing-function: linear;
        }
      
        @keyframes keyframes5 {
          from {
            stroke: blue;
            stroke-dashoffset: 925;
            stroke-width: 128;
          }
          75% {
            animation-timing-function: step-end;
            stroke: blue;
            stroke-dashoffset: 0;
            stroke-width: 128;
          }
          to {
            stroke: black;
            stroke-width: 1024;
          }
        }
        #make-me-a-hanzi-animation-5 {
          animation: keyframes5 1.0027669270833333s both;
          animation-delay: 3.9884440104166665s;
          animation-timing-function: linear;
        }
      
        @keyframes keyframes6 {
          from {
            stroke: blue;
            stroke-dashoffset: 591;
            stroke-width: 128;
          }
          66% {
            animation-timing-function: step-end;
            stroke: blue;
            stroke-dashoffset: 0;
            stroke-width: 128;
          }
          to {
            stroke: black;
            stroke-width: 1024;
          }
        }
        #make-me-a-hanzi-animation-6 {
          animation: keyframes6 0.73095703125s both;
          animation-delay: 4.9912109375s;
          animation-timing-function: linear;
        }
      
        @keyframes keyframes7 {
          from {
            stroke: blue;
            stroke-dashoffset: 842;
            stroke-width: 128;
          }
          73% {
            animation-timing-function: step-end;
            stroke: blue;
            stroke-dashoffset: 0;
            stroke-width: 128;
          }
          to {
            stroke: black;
            stroke-width: 1024;
          }
        }
        #make-me-a-hanzi-animation-7 {
          animation: keyframes7 0.9352213541666666s both;
          animation-delay: 5.72216796875s;
          animation-timing-function: linear;
        }
      
        @keyframes keyframes8 {
          from {
            stroke: blue;
            stroke-dashoffset: 596;
            stroke-width: 128;
          }
          66% {
            animation-timing-function: step-end;
            stroke: blue;
            stroke-dashoffset: 0;
            stroke-width: 128;
          }
          to {
            stroke: black;
            stroke-width: 1024;
          }
        }
        #make-me-a-hanzi-animation-8 {
          animation: keyframes8 0.7350260416666666s both;
          animation-delay: 6.657389322916667s;
          animation-timing-function: linear;
        }
      
        @keyframes keyframes9 {
          from {
            stroke: blue;
            stroke-dashoffset: 905;
            stroke-width: 128;
          }
          75% {
            animation-timing-function: step-end;
            stroke: blue;
            stroke-dashoffset: 0;
            stroke-width: 128;
          }
          to {
            stroke: black;
            stroke-width: 1024;
          }
        }
        #make-me-a-hanzi-animation-9 {
          animation: keyframes9 0.9864908854166666s both;
          animation-delay: 7.392415364583334s;
          animation-timing-function: linear;
        }
      
        @keyframes keyframes10 {
          from {
            stroke: blue;
            stroke-dashoffset: 351;
            stroke-width: 128;
          }
          53% {
            animation-timing-function: step-end;
            stroke: blue;
            stroke-dashoffset: 0;
            stroke-width: 128;
          }
          to {
            stroke: black;
            stroke-width: 1024;
          }
        }
        #make-me-a-hanzi-animation-10 {
          animation: keyframes10 0.53564453125s both;
          animation-delay: 8.37890625s;
          animation-timing-function: linear;
        }
      
        @keyframes keyframes11 {
          from {
            stroke: blue;
            stroke-dashoffset: 356;
            stroke-width: 128;
          }
          54% {
            animation-timing-function: step-end;
            stroke: blue;
            stroke-dashoffset: 0;
            stroke-width: 128;
          }
          to {
            stroke: black;
            stroke-width: 1024;
          }
        }
        #make-me-a-hanzi-animation-11 {
          animation: keyframes11 0.5397135416666666s both;
          animation-delay: 8.91455078125s;
          animation-timing-function: linear;
        }
      
    </style>
    
      <path d="M 290 529 Q 308 536 330 543 Q 361 555 366 560 Q 373 567 368 574 Q 361 584 335 587 Q 311 588 290 578 L 256 562 Q 172 529 116 517 Q 85 508 109 496 Q 148 481 193 498 Q 218 507 248 515 L 290 529 Z" fill="lightgray"></path>
    
      <path d="M 288 442 Q 289 484 290 529 L 290 578 Q 290 677 311 755 Q 326 779 301 794 Q 286 804 260 821 Q 239 837 220 823 Q 216 819 221 804 Q 255 755 255 704 Q 255 638 256 562 L 251 387 Q 242 182 242 178 Q 235 133 221 89 Q 212 50 234 -4 Q 240 -20 248 -23 Q 252 -29 260 -22 Q 267 -18 277 2 Q 286 24 285 52 Q 284 95 288 411 L 288 442 Z" fill="lightgray"></path>
    
      <path d="M 248 515 Q 223 433 184 357 Q 144 278 41 129 Q 37 119 48 119 Q 54 118 63 127 Q 183 241 251 387 C 329 552 257 544 248 515 Z" fill="lightgray"></path>
    
      <path d="M 288 411 Q 333 362 352 361 Q 364 360 368 376 Q 369 386 361 403 Q 346 424 288 442 C 259 451 268 433 288 411 Z" fill="lightgray"></path>
    
      <path d="M 428 626 Q 479 644 490 650 Q 500 657 508 651 Q 512 647 505 632 Q 492 602 481 573 Q 469 552 498 512 Q 522 476 514 462 Q 510 455 492 455 Q 470 456 447 455 Q 425 455 450 443 Q 493 421 533 394 Q 545 384 554 394 Q 564 401 570 421 Q 580 466 526 528 Q 484 570 566 646 Q 585 673 586 673 Q 585 676 583 678 Q 570 694 534 709 Q 516 715 480 683 Q 444 664 425 655 C 398 642 400 616 428 626 Z" fill="lightgray"></path>
    
      <path d="M 425 655 Q 412 676 368 688 Q 359 689 353 682 Q 350 676 358 666 Q 422 497 375 192 Q 368 153 355 113 Q 348 88 353 69 Q 362 36 373 24 Q 383 11 393 24 Q 423 55 423 260 Q 423 575 428 626 C 430 650 430 650 425 655 Z" fill="lightgray"></path>
    
      <path d="M 699 536 Q 763 555 889 579 Q 899 578 907 591 Q 907 601 885 610 Q 855 628 771 598 Q 722 583 712 580 L 665 569 Q 650 568 574 551 Q 547 547 569 531 Q 599 513 643 521 Q 646 522 651 523 L 699 536 Z" fill="lightgray"></path>
    
      <path d="M 645 409 Q 687 499 699 536 L 712 580 Q 745 701 760 726 Q 769 739 763 748 Q 754 770 705 781 Q 692 785 678 777 Q 668 768 677 759 Q 701 738 687 654 Q 677 612 665 569 L 651 523 Q 632 472 610 429 Q 579 368 500 271 Q 493 258 501 256 Q 505 255 517 263 Q 571 302 621 370 L 645 409 Z" fill="lightgray"></path>
    
      <path d="M 660 207 Q 661 246 663 274 L 665 302 Q 666 356 670 373 Q 670 377 670 379 C 671 395 671 395 661 401 Q 658 404 645 409 C 617 421 614 399 621 370 Q 645 285 608 153 Q 578 96 610 60 Q 616 48 625 53 Q 658 78 659 177 L 660 207 Z" fill="lightgray"></path>
    
      <path d="M 670 379 Q 677 380 685 384 Q 776 412 792 407 Q 801 401 799 380 Q 812 226 803 103 Q 802 79 788 74 Q 776 73 721 92 Q 711 96 710 89 Q 711 82 723 73 Q 757 42 784 10 Q 799 -6 815 -5 Q 830 -1 848 41 Q 870 84 866 129 Q 859 235 850 331 Q 846 370 862 401 Q 872 414 859 426 Q 844 438 811 449 Q 792 456 778 446 Q 765 439 740 429 Q 688 410 661 401 C 633 391 641 370 670 379 Z" fill="lightgray"></path>
    
      <path d="M 663 274 Q 715 283 754 290 Q 773 294 765 305 Q 755 318 732 320 Q 696 323 665 302 C 640 286 633 269 663 274 Z" fill="lightgray"></path>
    
      <path d="M 659 177 Q 713 189 753 194 Q 774 198 765 209 Q 755 222 732 225 Q 695 228 660 207 C 634 192 630 171 659 177 Z" fill="lightgray"></path>
    
    
      <clipPath id="make-me-a-hanzi-clip-0">
        <path d="M 290 529 Q 308 536 330 543 Q 361 555 366 560 Q 373 567 368 574 Q 361 584 335 587 Q 311 588 290 578 L 256 562 Q 172 529 116 517 Q 85 508 109 496 Q 148 481 193 498 Q 218 507 248 515 L 290 529 Z"></path>
      </clipPath>
      <path clip-path="url(#make-me-a-hanzi-clip-0)" d="M 110 507 L 155 507 L 305 560 L 357 568" fill="none" id="make-me-a-hanzi-animation-0" stroke-dasharray="385 770" stroke-linecap="round"></path>
    
      <clipPath id="make-me-a-hanzi-clip-1">
        <path d="M 288 442 Q 289 484 290 529 L 290 578 Q 290 677 311 755 Q 326 779 301 794 Q 286 804 260 821 Q 239 837 220 823 Q 216 819 221 804 Q 255 755 255 704 Q 255 638 256 562 L 251 387 Q 242 182 242 178 Q 235 133 221 89 Q 212 50 234 -4 Q 240 -20 248 -23 Q 252 -29 260 -22 Q 267 -18 277 2 Q 286 24 285 52 Q 284 95 288 411 L 288 442 Z"></path>
      </clipPath>
      <path clip-path="url(#make-me-a-hanzi-clip-1)" d="M 231 817 L 271 777 L 279 756 L 272 398 L 264 178 L 251 68 L 253 -9" fill="none" id="make-me-a-hanzi-animation-1" stroke-dasharray="973 1946" stroke-linecap="round"></path>
    
      <clipPath id="make-me-a-hanzi-clip-2">
        <path d="M 248 515 Q 223 433 184 357 Q 144 278 41 129 Q 37 119 48 119 Q 54 118 63 127 Q 183 241 251 387 C 329 552 257 544 248 515 Z"></path>
      </clipPath>
      <path clip-path="url(#make-me-a-hanzi-clip-2)" d="M 253 510 L 247 507 L 250 496 L 227 390 L 214 363 L 162 273 L 101 187 L 50 128" fill="none" id="make-me-a-hanzi-animation-2" stroke-dasharray="572 1144" stroke-linecap="round"></path>
    
      <clipPath id="make-me-a-hanzi-clip-3">
        <path d="M 288 411 Q 333 362 352 361 Q 364 360 368 376 Q 369 386 361 403 Q 346 424 288 442 C 259 451 268 433 288 411 Z"></path>
      </clipPath>
      <path clip-path="url(#make-me-a-hanzi-clip-3)" d="M 295 434 L 308 415 L 341 392 L 352 377" fill="none" id="make-me-a-hanzi-animation-3" stroke-dasharray="210 420" stroke-linecap="round"></path>
    
      <clipPath id="make-me-a-hanzi-clip-4">
        <path d="M 428 626 Q 479 644 490 650 Q 500 657 508 651 Q 512 647 505 632 Q 492 602 481 573 Q 469 552 498 512 Q 522 476 514 462 Q 510 455 492 455 Q 470 456 447 455 Q 425 455 450 443 Q 493 421 533 394 Q 545 384 554 394 Q 564 401 570 421 Q 580 466 526 528 Q 484 570 566 646 Q 585 673 586 673 Q 585 676 583 678 Q 570 694 534 709 Q 516 715 480 683 Q 444 664 425 655 C 398 642 400 616 428 626 Z"></path>
      </clipPath>
      <path clip-path="url(#make-me-a-hanzi-clip-4)" d="M 436 634 L 440 646 L 500 675 L 518 678 L 539 668 L 495 563 L 503 529 L 536 480 L 538 437 L 517 434 L 455 451" fill="none" id="make-me-a-hanzi-animation-4" stroke-dasharray="585 1170" stroke-linecap="round"></path>
    
      <clipPath id="make-me-a-hanzi-clip-5">
        <path d="M 425 655 Q 412 676 368 688 Q 359 689 353 682 Q 350 676 358 666 Q 422 497 375 192 Q 368 153 355 113 Q 348 88 353 69 Q 362 36 373 24 Q 383 11 393 24 Q 423 55 423 260 Q 423 575 428 626 C 430 650 430 650 425 655 Z"></path>
      </clipPath>
      <path clip-path="url(#make-me-a-hanzi-clip-5)" d="M 361 678 L 372 673 L 397 643 L 409 509 L 407 273 L 398 175 L 382 88 L 383 28" fill="none" id="make-me-a-hanzi-animation-5" stroke-dasharray="797 1594" stroke-linecap="round"></path>
    
      <clipPath id="make-me-a-hanzi-clip-6">
        <path d="M 699 536 Q 763 555 889 579 Q 899 578 907 591 Q 907 601 885 610 Q 855 628 771 598 Q 722 583 712 580 L 665 569 Q 650 568 574 551 Q 547 547 569 531 Q 599 513 643 521 Q 646 522 651 523 L 699 536 Z"></path>
      </clipPath>
      <path clip-path="url(#make-me-a-hanzi-clip-6)" d="M 569 542 L 618 539 L 849 595 L 897 592" fill="none" id="make-me-a-hanzi-animation-6" stroke-dasharray="463 926" stroke-linecap="round"></path>
    
      <clipPath id="make-me-a-hanzi-clip-7">
        <path d="M 645 409 Q 687 499 699 536 L 712 580 Q 745 701 760 726 Q 769 739 763 748 Q 754 770 705 781 Q 692 785 678 777 Q 668 768 677 759 Q 701 738 687 654 Q 677 612 665 569 L 651 523 Q 632 472 610 429 Q 579 368 500 271 Q 493 258 501 256 Q 505 255 517 263 Q 571 302 621 370 L 645 409 Z"></path>
      </clipPath>
      <path clip-path="url(#make-me-a-hanzi-clip-7)" d="M 684 768 L 708 756 L 725 737 L 702 619 L 675 529 L 649 462 L 609 386 L 554 314 L 503 264" fill="none" id="make-me-a-hanzi-animation-7" stroke-dasharray="714 1428" stroke-linecap="round"></path>
    
      <clipPath id="make-me-a-hanzi-clip-8">
        <path d="M 660 207 Q 661 246 663 274 L 665 302 Q 666 356 670 373 Q 670 377 670 379 C 671 395 671 395 661 401 Q 658 404 645 409 C 617 421 614 399 621 370 Q 645 285 608 153 Q 578 96 610 60 Q 616 48 625 53 Q 658 78 659 177 L 660 207 Z"></path>
      </clipPath>
      <path clip-path="url(#make-me-a-hanzi-clip-8)" d="M 647 399 L 651 390 L 645 367 L 645 244 L 620 62" fill="none" id="make-me-a-hanzi-animation-8" stroke-dasharray="468 936" stroke-linecap="round"></path>
    
      <clipPath id="make-me-a-hanzi-clip-9">
        <path d="M 670 379 Q 677 380 685 384 Q 776 412 792 407 Q 801 401 799 380 Q 812 226 803 103 Q 802 79 788 74 Q 776 73 721 92 Q 711 96 710 89 Q 711 82 723 73 Q 757 42 784 10 Q 799 -6 815 -5 Q 830 -1 848 41 Q 870 84 866 129 Q 859 235 850 331 Q 846 370 862 401 Q 872 414 859 426 Q 844 438 811 449 Q 792 456 778 446 Q 765 439 740 429 Q 688 410 661 401 C 633 391 641 370 670 379 Z"></path>
      </clipPath>
      <path clip-path="url(#make-me-a-hanzi-clip-9)" d="M 668 397 L 695 397 L 795 429 L 811 424 L 829 407 L 825 355 L 834 215 L 832 85 L 823 61 L 806 41 L 716 87" fill="none" id="make-me-a-hanzi-animation-9" stroke-dasharray="777 1554" stroke-linecap="round"></path>
    
      <clipPath id="make-me-a-hanzi-clip-10">
        <path d="M 663 274 Q 715 283 754 290 Q 773 294 765 305 Q 755 318 732 320 Q 696 323 665 302 C 640 286 633 269 663 274 Z"></path>
      </clipPath>
      <path clip-path="url(#make-me-a-hanzi-clip-10)" d="M 671 280 L 679 293 L 713 302 L 757 299" fill="none" id="make-me-a-hanzi-animation-10" stroke-dasharray="223 446" stroke-linecap="round"></path>
    
      <clipPath id="make-me-a-hanzi-clip-11">
        <path d="M 659 177 Q 713 189 753 194 Q 774 198 765 209 Q 755 222 732 225 Q 695 228 660 207 C 634 192 630 171 659 177 Z"></path>
      </clipPath>
      <path clip-path="url(#make-me-a-hanzi-clip-11)" d="M 667 184 L 675 198 L 687 202 L 736 209 L 757 203" fill="none" id="make-me-a-hanzi-animation-11" stroke-dasharray="228 456" stroke-linecap="round"></path>
    
  </g>
</svg>