<svg version="1.1" viewBox="0 0 1024 1024" xmlns="http://www.w3.org/2000/svg">
  <g stroke="lightgray" stroke-dasharray="1,1" stroke-width="1" transform="scale(4, 4)">
    <line x1="0" y1="0" x2="256" y2="256"></line>
    <line x1="256" y1="0" x2="0" y2="256"></line>
    <line x1="128" y1="0" x2="128" y2="256"></line>
    <line x1="0" y1="128" x2="256" y2="128"></line>
  </g>
  <g transform="scale(1, -1) translate(0, -900)">
    <style type="text/css">
      
        @keyframes keyframes0 {
          from {
            stroke: blue;
            stroke-dashoffset: 550;
            stroke-width: 128;
          }
          64% {
            animation-timing-function: step-end;
            stroke: blue;
            stroke-dashoffset: 0;
            stroke-width: 128;
          }
          to {
            stroke: black;
            stroke-width: 1024;
          }
        }
        #make-me-a-hanzi-animation-0 {
          animation: keyframes0 0.6975911458333334s both;
          animation-delay: 0s;
          animation-timing-function: linear;
        }
      
        @keyframes keyframes1 {
          from {
            stroke: blue;
            stroke-dashoffset: 1085;
            stroke-width: 128;
          }
          78% {
            animation-timing-function: step-end;
            stroke: blue;
            stroke-dashoffset: 0;
            stroke-width: 128;
          }
          to {
            stroke: black;
            stroke-width: 1024;
          }
        }
        #make-me-a-hanzi-animation-1 {
          animation: keyframes1 1.1329752604166667s both;
          animation-delay: 0.6975911458333334s;
          animation-timing-function: linear;
        }
      
        @keyframes keyframes2 {
          from {
            stroke: blue;
            stroke-dashoffset: 637;
            stroke-width: 128;
          }
          67% {
            animation-timing-function: step-end;
            stroke: blue;
            stroke-dashoffset: 0;
            stroke-width: 128;
          }
          to {
            stroke: black;
            stroke-width: 1024;
          }
        }
        #make-me-a-hanzi-animation-2 {
          animation: keyframes2 0.7683919270833334s both;
          animation-delay: 1.83056640625s;
          animation-timing-function: linear;
        }
      
        @keyframes keyframes3 {
          from {
            stroke: blue;
            stroke-dashoffset: 377;
            stroke-width: 128;
          }
          55% {
            animation-timing-function: step-end;
            stroke: blue;
            stroke-dashoffset: 0;
            stroke-width: 128;
          }
          to {
            stroke: black;
            stroke-width: 1024;
          }
        }
        #make-me-a-hanzi-animation-3 {
          animation: keyframes3 0.5568033854166666s both;
          animation-delay: 2.5989583333333335s;
          animation-timing-function: linear;
        }
      
        @keyframes keyframes4 {
          from {
            stroke: blue;
            stroke-dashoffset: 691;
            stroke-width: 128;
          }
          69% {
            animation-timing-function: step-end;
            stroke: blue;
            stroke-dashoffset: 0;
            stroke-width: 128;
          }
          to {
            stroke: black;
            stroke-width: 1024;
          }
        }
        #make-me-a-hanzi-animation-4 {
          animation: keyframes4 0.8123372395833334s both;
          animation-delay: 3.15576171875s;
          animation-timing-function: linear;
        }
      
        @keyframes keyframes5 {
          from {
            stroke: blue;
            stroke-dashoffset: 422;
            stroke-width: 128;
          }
          58% {
            animation-timing-function: step-end;
            stroke: blue;
            stroke-dashoffset: 0;
            stroke-width: 128;
          }
          to {
            stroke: black;
            stroke-width: 1024;
          }
        }
        #make-me-a-hanzi-animation-5 {
          animation: keyframes5 0.5934244791666666s both;
          animation-delay: 3.9680989583333335s;
          animation-timing-function: linear;
        }
      
        @keyframes keyframes6 {
          from {
            stroke: blue;
            stroke-dashoffset: 454;
            stroke-width: 128;
          }
          60% {
            animation-timing-function: step-end;
            stroke: blue;
            stroke-dashoffset: 0;
            stroke-width: 128;
          }
          to {
            stroke: black;
            stroke-width: 1024;
          }
        }
        #make-me-a-hanzi-animation-6 {
          animation: keyframes6 0.6194661458333334s both;
          animation-delay: 4.5615234375s;
          animation-timing-function: linear;
        }
      
        @keyframes keyframes7 {
          from {
            stroke: blue;
            stroke-dashoffset: 404;
            stroke-width: 128;
          }
          57% {
            animation-timing-function: step-end;
            stroke: blue;
            stroke-dashoffset: 0;
            stroke-width: 128;
          }
          to {
            stroke: black;
            stroke-width: 1024;
          }
        }
        #make-me-a-hanzi-animation-7 {
          animation: keyframes7 0.5787760416666666s both;
          animation-delay: 5.180989583333333s;
          animation-timing-function: linear;
        }
      
        @keyframes keyframes8 {
          from {
            stroke: blue;
            stroke-dashoffset: 722;
            stroke-width: 128;
          }
          70% {
            animation-timing-function: step-end;
            stroke: blue;
            stroke-dashoffset: 0;
            stroke-width: 128;
          }
          to {
            stroke: black;
            stroke-width: 1024;
          }
        }
        #make-me-a-hanzi-animation-8 {
          animation: keyframes8 0.8375651041666666s both;
          animation-delay: 5.759765625s;
          animation-timing-function: linear;
        }
      
        @keyframes keyframes9 {
          from {
            stroke: blue;
            stroke-dashoffset: 459;
            stroke-width: 128;
          }
          60% {
            animation-timing-function: step-end;
            stroke: blue;
            stroke-dashoffset: 0;
            stroke-width: 128;
          }
          to {
            stroke: black;
            stroke-width: 1024;
          }
        }
        #make-me-a-hanzi-animation-9 {
          animation: keyframes9 0.62353515625s both;
          animation-delay: 6.597330729166667s;
          animation-timing-function: linear;
        }
      
        @keyframes keyframes10 {
          from {
            stroke: blue;
            stroke-dashoffset: 551;
            stroke-width: 128;
          }
          64% {
            animation-timing-function: step-end;
            stroke: blue;
            stroke-dashoffset: 0;
            stroke-width: 128;
          }
          to {
            stroke: black;
            stroke-width: 1024;
          }
        }
        #make-me-a-hanzi-animation-10 {
          animation: keyframes10 0.6984049479166666s both;
          animation-delay: 7.220865885416667s;
          animation-timing-function: linear;
        }
      
        @keyframes keyframes11 {
          from {
            stroke: blue;
            stroke-dashoffset: 451;
            stroke-width: 128;
          }
          59% {
            animation-timing-function: step-end;
            stroke: blue;
            stroke-dashoffset: 0;
            stroke-width: 128;
          }
          to {
            stroke: black;
            stroke-width: 1024;
          }
        }
        #make-me-a-hanzi-animation-11 {
          animation: keyframes11 0.6170247395833334s both;
          animation-delay: 7.919270833333334s;
          animation-timing-function: linear;
        }
      
        @keyframes keyframes12 {
          from {
            stroke: blue;
            stroke-dashoffset: 793;
            stroke-width: 128;
          }
          72% {
            animation-timing-function: step-end;
            stroke: blue;
            stroke-dashoffset: 0;
            stroke-width: 128;
          }
          to {
            stroke: black;
            stroke-width: 1024;
          }
        }
        #make-me-a-hanzi-animation-12 {
          animation: keyframes12 0.8953450520833334s both;
          animation-delay: 8.536295572916668s;
          animation-timing-function: linear;
        }
      
        @keyframes keyframes13 {
          from {
            stroke: blue;
            stroke-dashoffset: 481;
            stroke-width: 128;
          }
          61% {
            animation-timing-function: step-end;
            stroke: blue;
            stroke-dashoffset: 0;
            stroke-width: 128;
          }
          to {
            stroke: black;
            stroke-width: 1024;
          }
        }
        #make-me-a-hanzi-animation-13 {
          animation: keyframes13 0.6414388020833334s both;
          animation-delay: 9.431640625000002s;
          animation-timing-function: linear;
        }
      
        @keyframes keyframes14 {
          from {
            stroke: blue;
            stroke-dashoffset: 583;
            stroke-width: 128;
          }
          65% {
            animation-timing-function: step-end;
            stroke: blue;
            stroke-dashoffset: 0;
            stroke-width: 128;
          }
          to {
            stroke: black;
            stroke-width: 1024;
          }
        }
        #make-me-a-hanzi-animation-14 {
          animation: keyframes14 0.7244466145833334s both;
          animation-delay: 10.073079427083336s;
          animation-timing-function: linear;
        }
      
        @keyframes keyframes15 {
          from {
            stroke: blue;
            stroke-dashoffset: 435;
            stroke-width: 128;
          }
          59% {
            animation-timing-function: step-end;
            stroke: blue;
            stroke-dashoffset: 0;
            stroke-width: 128;
          }
          to {
            stroke: black;
            stroke-width: 1024;
          }
        }
        #make-me-a-hanzi-animation-15 {
          animation: keyframes15 0.60400390625s both;
          animation-delay: 10.79752604166667s;
          animation-timing-function: linear;
        }
      
        @keyframes keyframes16 {
          from {
            stroke: blue;
            stroke-dashoffset: 644;
            stroke-width: 128;
          }
          68% {
            animation-timing-function: step-end;
            stroke: blue;
            stroke-dashoffset: 0;
            stroke-width: 128;
          }
          to {
            stroke: black;
            stroke-width: 1024;
          }
        }
        #make-me-a-hanzi-animation-16 {
          animation: keyframes16 0.7740885416666666s both;
          animation-delay: 11.40152994791667s;
          animation-timing-function: linear;
        }
      
    </style>
    
      <path d="M 291 540 Q 367 567 370 570 Q 377 579 372 586 Q 365 596 337 600 Q 313 601 292 592 L 249 573 Q 158 539 85 523 Q 52 514 77 501 Q 114 486 175 504 Q 200 513 231 521 L 291 540 Z" fill="lightgray"></path>
    
      <path d="M 289 458 Q 289 498 291 540 L 292 592 Q 292 700 313 770 Q 328 795 298 815 Q 283 827 258 841 Q 236 857 215 843 Q 211 839 216 823 Q 249 775 249 727 Q 249 657 250 576 Q 249 575 249 573 L 244 428 Q 235 229 235 223 Q 228 180 215 137 Q 203 94 229 38 Q 235 20 243 17 Q 249 10 256 19 Q 263 23 274 43 Q 284 68 283 98 Q 282 138 288 433 L 289 458 Z" fill="lightgray"></path>
    
      <path d="M 231 521 Q 210 455 179 395 Q 142 325 53 197 Q 49 187 60 186 Q 82 186 175 309 Q 212 358 244 428 C 302 553 240 550 231 521 Z" fill="lightgray"></path>
    
      <path d="M 288 433 Q 360 361 368 360 L 369 360 Q 376 359 382 369 Q 386 379 381 401 Q 378 419 353 434 Q 296 461 289 458 C 263 458 267 454 288 433 Z" fill="lightgray"></path>
    
      <path d="M 695 713 Q 752 722 838 716 Q 851 715 855 723 Q 859 732 848 744 Q 806 780 714 755 Q 711 755 710 754 L 665 746 Q 613 739 559 730 L 522 725 Q 473 721 419 713 Q 395 710 412 698 Q 448 677 522 691 Q 525 692 529 692 L 560 699 Q 593 708 657 710 L 695 713 Z" fill="lightgray"></path>
    
      <path d="M 559 730 Q 558 758 557 781 Q 558 796 544 801 Q 514 817 497 812 Q 482 806 494 791 Q 515 764 522 725 L 529 692 Q 533 658 545 645 Q 555 636 559 646 Q 565 661 560 699 L 559 730 Z" fill="lightgray"></path>
    
      <path d="M 710 754 Q 716 779 733 807 Q 743 820 735 828 Q 725 841 695 854 Q 680 861 667 853 Q 658 847 665 839 Q 674 823 673 803 Q 670 778 665 746 L 657 710 Q 648 680 651 657 Q 652 645 665 656 Q 672 663 695 713 L 710 754 Z" fill="lightgray"></path>
    
      <path d="M 459 605 Q 447 626 433 633 Q 430 637 425 633 Q 421 630 420 620 Q 424 590 400 534 Q 385 509 405 473 Q 412 463 417 471 Q 423 472 429 486 Q 433 492 440 516 Q 452 555 464 578 C 469 588 469 588 459 605 Z" fill="lightgray"></path>
    
      <path d="M 464 578 Q 482 571 531 584 Q 682 626 766 626 Q 769 627 772 626 Q 788 616 785 609 Q 785 608 764 548 Q 760 536 765 533 Q 771 530 784 540 Q 827 574 864 585 Q 894 597 893 604 Q 892 611 830 654 Q 806 669 695 644 Q 686 644 532 617 Q 495 610 459 605 C 429 601 434 583 464 578 Z" fill="lightgray"></path>
    
      <path d="M 513 534 Q 485 528 506 516 Q 539 498 585 511 Q 634 523 685 536 Q 709 542 712 545 Q 719 552 715 559 Q 708 568 685 573 Q 660 577 637 566 Q 610 556 582 547 Q 551 540 513 534 Z" fill="lightgray"></path>
    
      <path d="M 561 426 Q 625 444 723 457 Q 732 456 738 467 Q 739 476 720 484 Q 696 500 626 477 Q 610 474 594 469 Q 573 463 442 439 Q 420 435 438 422 Q 465 404 506 414 Q 516 417 529 419 L 561 426 Z" fill="lightgray"></path>
    
      <path d="M 552 367 Q 562 376 572 379 Q 579 383 579 394 Q 579 409 561 426 C 540 447 534 449 529 419 Q 529 389 418 302 Q 409 298 407 294 Q 403 288 412 287 Q 439 283 529 349 L 552 367 Z" fill="lightgray"></path>
    
      <path d="M 647 300 Q 614 340 552 367 C 525 380 503 363 529 349 Q 541 343 553 335 L 597 301 Q 604 294 612 284 L 639 234 Q 652 171 633 96 Q 624 65 614 59 Q 604 53 538 61 Q 501 65 500 60 Q 499 53 512 42 Q 576 -1 605 -32 Q 618 -48 631 -43 Q 673 -24 690 80 Q 702 174 683 234 L 647 300 Z" fill="lightgray"></path>
    
      <path d="M 553 335 Q 543 284 400 192 Q 384 183 403 184 Q 463 184 597 301 C 620 321 561 364 553 335 Z" fill="lightgray"></path>
    
      <path d="M 612 284 Q 546 175 384 69 Q 371 59 380 57 Q 396 48 466 82 Q 529 112 606 197 Q 634 228 639 234 C 659 257 628 309 612 284 Z" fill="lightgray"></path>
    
      <path d="M 670 282 Q 755 349 798 375 Q 814 379 810 390 Q 804 405 786 422 Q 767 438 746 439 Q 733 439 734 420 Q 737 407 729 392 Q 704 355 655 294 C 636 271 646 263 670 282 Z" fill="lightgray"></path>
    
      <path d="M 683 234 Q 737 176 795 119 Q 816 100 850 99 Q 911 98 975 113 Q 991 114 993 119 Q 994 126 981 130 Q 824 182 806 192 Q 803 193 670 282 L 655 294 Q 651 297 647 300 C 623 318 663 256 683 234 Z" fill="lightgray"></path>
    
    
      <clipPath id="make-me-a-hanzi-clip-0">
        <path d="M 291 540 Q 367 567 370 570 Q 377 579 372 586 Q 365 596 337 600 Q 313 601 292 592 L 249 573 Q 158 539 85 523 Q 52 514 77 501 Q 114 486 175 504 Q 200 513 231 521 L 291 540 Z"></path>
      </clipPath>
      <path clip-path="url(#make-me-a-hanzi-clip-0)" d="M 79 513 L 146 517 L 307 572 L 341 580 L 363 578" fill="none" id="make-me-a-hanzi-animation-0" stroke-dasharray="422 844" stroke-linecap="round"></path>
    
      <clipPath id="make-me-a-hanzi-clip-1">
        <path d="M 289 458 Q 289 498 291 540 L 292 592 Q 292 700 313 770 Q 328 795 298 815 Q 283 827 258 841 Q 236 857 215 843 Q 211 839 216 823 Q 249 775 249 727 Q 249 657 250 576 Q 249 575 249 573 L 244 428 Q 235 229 235 223 Q 228 180 215 137 Q 203 94 229 38 Q 235 20 243 17 Q 249 10 256 19 Q 263 23 274 43 Q 284 68 283 98 Q 282 138 288 433 L 289 458 Z"></path>
      </clipPath>
      <path clip-path="url(#make-me-a-hanzi-clip-1)" d="M 226 837 L 278 783 L 261 237 L 247 119 L 248 30" fill="none" id="make-me-a-hanzi-animation-1" stroke-dasharray="957 1914" stroke-linecap="round"></path>
    
      <clipPath id="make-me-a-hanzi-clip-2">
        <path d="M 231 521 Q 210 455 179 395 Q 142 325 53 197 Q 49 187 60 186 Q 82 186 175 309 Q 212 358 244 428 C 302 553 240 550 231 521 Z"></path>
      </clipPath>
      <path clip-path="url(#make-me-a-hanzi-clip-2)" d="M 245 519 L 236 511 L 221 430 L 193 374 L 124 269 L 61 194" fill="none" id="make-me-a-hanzi-animation-2" stroke-dasharray="509 1018" stroke-linecap="round"></path>
    
      <clipPath id="make-me-a-hanzi-clip-3">
        <path d="M 288 433 Q 360 361 368 360 L 369 360 Q 376 359 382 369 Q 386 379 381 401 Q 378 419 353 434 Q 296 461 289 458 C 263 458 267 454 288 433 Z"></path>
      </clipPath>
      <path clip-path="url(#make-me-a-hanzi-clip-3)" d="M 291 452 L 307 433 L 354 403 L 367 382 L 369 366" fill="none" id="make-me-a-hanzi-animation-3" stroke-dasharray="249 498" stroke-linecap="round"></path>
    
      <clipPath id="make-me-a-hanzi-clip-4">
        <path d="M 695 713 Q 752 722 838 716 Q 851 715 855 723 Q 859 732 848 744 Q 806 780 714 755 Q 711 755 710 754 L 665 746 Q 613 739 559 730 L 522 725 Q 473 721 419 713 Q 395 710 412 698 Q 448 677 522 691 Q 525 692 529 692 L 560 699 Q 593 708 657 710 L 695 713 Z"></path>
      </clipPath>
      <path clip-path="url(#make-me-a-hanzi-clip-4)" d="M 414 706 L 509 705 L 584 720 L 763 742 L 803 741 L 844 728" fill="none" id="make-me-a-hanzi-animation-4" stroke-dasharray="563 1126" stroke-linecap="round"></path>
    
      <clipPath id="make-me-a-hanzi-clip-5">
        <path d="M 559 730 Q 558 758 557 781 Q 558 796 544 801 Q 514 817 497 812 Q 482 806 494 791 Q 515 764 522 725 L 529 692 Q 533 658 545 645 Q 555 636 559 646 Q 565 661 560 699 L 559 730 Z"></path>
      </clipPath>
      <path clip-path="url(#make-me-a-hanzi-clip-5)" d="M 500 801 L 532 779 L 551 653" fill="none" id="make-me-a-hanzi-animation-5" stroke-dasharray="294 588" stroke-linecap="round"></path>
    
      <clipPath id="make-me-a-hanzi-clip-6">
        <path d="M 710 754 Q 716 779 733 807 Q 743 820 735 828 Q 725 841 695 854 Q 680 861 667 853 Q 658 847 665 839 Q 674 823 673 803 Q 670 778 665 746 L 657 710 Q 648 680 651 657 Q 652 645 665 656 Q 672 663 695 713 L 710 754 Z"></path>
      </clipPath>
      <path clip-path="url(#make-me-a-hanzi-clip-6)" d="M 677 844 L 703 815 L 685 740 L 658 663" fill="none" id="make-me-a-hanzi-animation-6" stroke-dasharray="326 652" stroke-linecap="round"></path>
    
      <clipPath id="make-me-a-hanzi-clip-7">
        <path d="M 459 605 Q 447 626 433 633 Q 430 637 425 633 Q 421 630 420 620 Q 424 590 400 534 Q 385 509 405 473 Q 412 463 417 471 Q 423 472 429 486 Q 433 492 440 516 Q 452 555 464 578 C 469 588 469 588 459 605 Z"></path>
      </clipPath>
      <path clip-path="url(#make-me-a-hanzi-clip-7)" d="M 429 624 L 441 595 L 440 582 L 417 519 L 413 483" fill="none" id="make-me-a-hanzi-animation-7" stroke-dasharray="276 552" stroke-linecap="round"></path>
    
      <clipPath id="make-me-a-hanzi-clip-8">
        <path d="M 464 578 Q 482 571 531 584 Q 682 626 766 626 Q 769 627 772 626 Q 788 616 785 609 Q 785 608 764 548 Q 760 536 765 533 Q 771 530 784 540 Q 827 574 864 585 Q 894 597 893 604 Q 892 611 830 654 Q 806 669 695 644 Q 686 644 532 617 Q 495 610 459 605 C 429 601 434 583 464 578 Z"></path>
      </clipPath>
      <path clip-path="url(#make-me-a-hanzi-clip-8)" d="M 467 600 L 478 591 L 489 592 L 709 637 L 785 641 L 814 626 L 824 611 L 769 541" fill="none" id="make-me-a-hanzi-animation-8" stroke-dasharray="594 1188" stroke-linecap="round"></path>
    
      <clipPath id="make-me-a-hanzi-clip-9">
        <path d="M 513 534 Q 485 528 506 516 Q 539 498 585 511 Q 634 523 685 536 Q 709 542 712 545 Q 719 552 715 559 Q 708 568 685 573 Q 660 577 637 566 Q 610 556 582 547 Q 551 540 513 534 Z"></path>
      </clipPath>
      <path clip-path="url(#make-me-a-hanzi-clip-9)" d="M 507 526 L 530 521 L 572 525 L 658 551 L 705 554" fill="none" id="make-me-a-hanzi-animation-9" stroke-dasharray="331 662" stroke-linecap="round"></path>
    
      <clipPath id="make-me-a-hanzi-clip-10">
        <path d="M 561 426 Q 625 444 723 457 Q 732 456 738 467 Q 739 476 720 484 Q 696 500 626 477 Q 610 474 594 469 Q 573 463 442 439 Q 420 435 438 422 Q 465 404 506 414 Q 516 417 529 419 L 561 426 Z"></path>
      </clipPath>
      <path clip-path="url(#make-me-a-hanzi-clip-10)" d="M 439 431 L 495 430 L 692 472 L 729 468" fill="none" id="make-me-a-hanzi-animation-10" stroke-dasharray="423 846" stroke-linecap="round"></path>
    
      <clipPath id="make-me-a-hanzi-clip-11">
        <path d="M 552 367 Q 562 376 572 379 Q 579 383 579 394 Q 579 409 561 426 C 540 447 534 449 529 419 Q 529 389 418 302 Q 409 298 407 294 Q 403 288 412 287 Q 439 283 529 349 L 552 367 Z"></path>
      </clipPath>
      <path clip-path="url(#make-me-a-hanzi-clip-11)" d="M 535 415 L 550 397 L 510 355 L 462 319 L 415 294" fill="none" id="make-me-a-hanzi-animation-11" stroke-dasharray="323 646" stroke-linecap="round"></path>
    
      <clipPath id="make-me-a-hanzi-clip-12">
        <path d="M 647 300 Q 614 340 552 367 C 525 380 503 363 529 349 Q 541 343 553 335 L 597 301 Q 604 294 612 284 L 639 234 Q 652 171 633 96 Q 624 65 614 59 Q 604 53 538 61 Q 501 65 500 60 Q 499 53 512 42 Q 576 -1 605 -32 Q 618 -48 631 -43 Q 673 -24 690 80 Q 702 174 683 234 L 647 300 Z"></path>
      </clipPath>
      <path clip-path="url(#make-me-a-hanzi-clip-12)" d="M 537 350 L 554 351 L 568 343 L 629 293 L 664 222 L 668 126 L 652 55 L 624 14 L 504 57" fill="none" id="make-me-a-hanzi-animation-12" stroke-dasharray="665 1330" stroke-linecap="round"></path>
    
      <clipPath id="make-me-a-hanzi-clip-13">
        <path d="M 553 335 Q 543 284 400 192 Q 384 183 403 184 Q 463 184 597 301 C 620 321 561 364 553 335 Z"></path>
      </clipPath>
      <path clip-path="url(#make-me-a-hanzi-clip-13)" d="M 558 330 L 562 300 L 543 279 L 463 217 L 423 196 L 411 197 L 407 190" fill="none" id="make-me-a-hanzi-animation-13" stroke-dasharray="353 706" stroke-linecap="round"></path>
    
      <clipPath id="make-me-a-hanzi-clip-14">
        <path d="M 612 284 Q 546 175 384 69 Q 371 59 380 57 Q 396 48 466 82 Q 529 112 606 197 Q 634 228 639 234 C 659 257 628 309 612 284 Z"></path>
      </clipPath>
      <path clip-path="url(#make-me-a-hanzi-clip-14)" d="M 612 276 L 610 237 L 536 157 L 472 107 L 385 62" fill="none" id="make-me-a-hanzi-animation-14" stroke-dasharray="455 910" stroke-linecap="round"></path>
    
      <clipPath id="make-me-a-hanzi-clip-15">
        <path d="M 670 282 Q 755 349 798 375 Q 814 379 810 390 Q 804 405 786 422 Q 767 438 746 439 Q 733 439 734 420 Q 737 407 729 392 Q 704 355 655 294 C 636 271 646 263 670 282 Z"></path>
      </clipPath>
      <path clip-path="url(#make-me-a-hanzi-clip-15)" d="M 747 425 L 766 394 L 687 310 L 673 297 L 665 298" fill="none" id="make-me-a-hanzi-animation-15" stroke-dasharray="307 614" stroke-linecap="round"></path>
    
      <clipPath id="make-me-a-hanzi-clip-16">
        <path d="M 683 234 Q 737 176 795 119 Q 816 100 850 99 Q 911 98 975 113 Q 991 114 993 119 Q 994 126 981 130 Q 824 182 806 192 Q 803 193 670 282 L 655 294 Q 651 297 647 300 C 623 318 663 256 683 234 Z"></path>
      </clipPath>
      <path clip-path="url(#make-me-a-hanzi-clip-16)" d="M 658 290 L 700 240 L 823 145 L 858 134 L 988 121" fill="none" id="make-me-a-hanzi-animation-16" stroke-dasharray="516 1032" stroke-linecap="round"></path>
    
  </g>
</svg>