<svg version="1.1" viewBox="0 0 1024 1024" xmlns="http://www.w3.org/2000/svg">
  <g stroke="lightgray" stroke-dasharray="1,1" stroke-width="1" transform="scale(4, 4)">
    <line x1="0" y1="0" x2="256" y2="256"></line>
    <line x1="256" y1="0" x2="0" y2="256"></line>
    <line x1="128" y1="0" x2="128" y2="256"></line>
    <line x1="0" y1="128" x2="256" y2="128"></line>
  </g>
  <g transform="scale(1, -1) translate(0, -900)">
    <style type="text/css">
      
        @keyframes keyframes0 {
          from {
            stroke: blue;
            stroke-dashoffset: 604;
            stroke-width: 128;
          }
          66% {
            animation-timing-function: step-end;
            stroke: blue;
            stroke-dashoffset: 0;
            stroke-width: 128;
          }
          to {
            stroke: black;
            stroke-width: 1024;
          }
        }
        #make-me-a-hanzi-animation-0 {
          animation: keyframes0 0.7415364583333334s both;
          animation-delay: 0s;
          animation-timing-function: linear;
        }
      
        @keyframes keyframes1 {
          from {
            stroke: blue;
            stroke-dashoffset: 523;
            stroke-width: 128;
          }
          63% {
            animation-timing-function: step-end;
            stroke: blue;
            stroke-dashoffset: 0;
            stroke-width: 128;
          }
          to {
            stroke: black;
            stroke-width: 1024;
          }
        }
        #make-me-a-hanzi-animation-1 {
          animation: keyframes1 0.6756184895833334s both;
          animation-delay: 0.7415364583333334s;
          animation-timing-function: linear;
        }
      
        @keyframes keyframes2 {
          from {
            stroke: blue;
            stroke-dashoffset: 512;
            stroke-width: 128;
          }
          63% {
            animation-timing-function: step-end;
            stroke: blue;
            stroke-dashoffset: 0;
            stroke-width: 128;
          }
          to {
            stroke: black;
            stroke-width: 1024;
          }
        }
        #make-me-a-hanzi-animation-2 {
          animation: keyframes2 0.6666666666666666s both;
          animation-delay: 1.4171549479166667s;
          animation-timing-function: linear;
        }
      
        @keyframes keyframes3 {
          from {
            stroke: blue;
            stroke-dashoffset: 491;
            stroke-width: 128;
          }
          62% {
            animation-timing-function: step-end;
            stroke: blue;
            stroke-dashoffset: 0;
            stroke-width: 128;
          }
          to {
            stroke: black;
            stroke-width: 1024;
          }
        }
        #make-me-a-hanzi-animation-3 {
          animation: keyframes3 0.6495768229166666s both;
          animation-delay: 2.0838216145833335s;
          animation-timing-function: linear;
        }
      
        @keyframes keyframes4 {
          from {
            stroke: blue;
            stroke-dashoffset: 687;
            stroke-width: 128;
          }
          69% {
            animation-timing-function: step-end;
            stroke: blue;
            stroke-dashoffset: 0;
            stroke-width: 128;
          }
          to {
            stroke: black;
            stroke-width: 1024;
          }
        }
        #make-me-a-hanzi-animation-4 {
          animation: keyframes4 0.80908203125s both;
          animation-delay: 2.7333984375s;
          animation-timing-function: linear;
        }
      
        @keyframes keyframes5 {
          from {
            stroke: blue;
            stroke-dashoffset: 634;
            stroke-width: 128;
          }
          67% {
            animation-timing-function: step-end;
            stroke: blue;
            stroke-dashoffset: 0;
            stroke-width: 128;
          }
          to {
            stroke: black;
            stroke-width: 1024;
          }
        }
        #make-me-a-hanzi-animation-5 {
          animation: keyframes5 0.7659505208333334s both;
          animation-delay: 3.54248046875s;
          animation-timing-function: linear;
        }
      
        @keyframes keyframes6 {
          from {
            stroke: blue;
            stroke-dashoffset: 413;
            stroke-width: 128;
          }
          57% {
            animation-timing-function: step-end;
            stroke: blue;
            stroke-dashoffset: 0;
            stroke-width: 128;
          }
          to {
            stroke: black;
            stroke-width: 1024;
          }
        }
        #make-me-a-hanzi-animation-6 {
          animation: keyframes6 0.5861002604166666s both;
          animation-delay: 4.308430989583333s;
          animation-timing-function: linear;
        }
      
        @keyframes keyframes7 {
          from {
            stroke: blue;
            stroke-dashoffset: 366;
            stroke-width: 128;
          }
          54% {
            animation-timing-function: step-end;
            stroke: blue;
            stroke-dashoffset: 0;
            stroke-width: 128;
          }
          to {
            stroke: black;
            stroke-width: 1024;
          }
        }
        #make-me-a-hanzi-animation-7 {
          animation: keyframes7 0.5478515625s both;
          animation-delay: 4.89453125s;
          animation-timing-function: linear;
        }
      
        @keyframes keyframes8 {
          from {
            stroke: blue;
            stroke-dashoffset: 685;
            stroke-width: 128;
          }
          69% {
            animation-timing-function: step-end;
            stroke: blue;
            stroke-dashoffset: 0;
            stroke-width: 128;
          }
          to {
            stroke: black;
            stroke-width: 1024;
          }
        }
        #make-me-a-hanzi-animation-8 {
          animation: keyframes8 0.8074544270833334s both;
          animation-delay: 5.4423828125s;
          animation-timing-function: linear;
        }
      
        @keyframes keyframes9 {
          from {
            stroke: blue;
            stroke-dashoffset: 612;
            stroke-width: 128;
          }
          67% {
            animation-timing-function: step-end;
            stroke: blue;
            stroke-dashoffset: 0;
            stroke-width: 128;
          }
          to {
            stroke: black;
            stroke-width: 1024;
          }
        }
        #make-me-a-hanzi-animation-9 {
          animation: keyframes9 0.748046875s both;
          animation-delay: 6.249837239583333s;
          animation-timing-function: linear;
        }
      
        @keyframes keyframes10 {
          from {
            stroke: blue;
            stroke-dashoffset: 723;
            stroke-width: 128;
          }
          70% {
            animation-timing-function: step-end;
            stroke: blue;
            stroke-dashoffset: 0;
            stroke-width: 128;
          }
          to {
            stroke: black;
            stroke-width: 1024;
          }
        }
        #make-me-a-hanzi-animation-10 {
          animation: keyframes10 0.83837890625s both;
          animation-delay: 6.997884114583333s;
          animation-timing-function: linear;
        }
      
        @keyframes keyframes11 {
          from {
            stroke: blue;
            stroke-dashoffset: 683;
            stroke-width: 128;
          }
          69% {
            animation-timing-function: step-end;
            stroke: blue;
            stroke-dashoffset: 0;
            stroke-width: 128;
          }
          to {
            stroke: black;
            stroke-width: 1024;
          }
        }
        #make-me-a-hanzi-animation-11 {
          animation: keyframes11 0.8058268229166666s both;
          animation-delay: 7.836263020833333s;
          animation-timing-function: linear;
        }
      
    </style>
    
      <path d="M 392 639 Q 521 672 523 673 Q 532 680 527 689 Q 520 699 492 707 Q 465 713 397 690 L 346 674 Q 334 673 323 669 Q 259 656 185 648 Q 151 642 175 626 Q 214 602 270 615 Q 307 622 347 630 L 392 639 Z" fill="lightgray"></path>
    
      <path d="M 386 572 Q 389 606 392 639 L 397 690 Q 400 729 407 759 Q 417 789 399 803 Q 368 819 347 824 Q 334 827 326 819 Q 319 813 326 800 Q 342 778 343 762 Q 344 720 346 674 L 347 630 Q 347 596 346 559 C 345 529 383 542 386 572 Z" fill="lightgray"></path>
    
      <path d="M 346 559 Q 274 543 230 534 Q 205 530 225 515 Q 258 494 282 502 Q 393 532 470 545 Q 480 544 487 556 Q 487 566 466 575 Q 436 590 386 572 L 346 559 Z" fill="lightgray"></path>
    
      <path d="M 240 442 Q 206 436 230 421 Q 263 406 336 417 Q 385 429 439 439 Q 467 446 471 450 Q 480 457 475 465 Q 468 475 441 482 Q 414 486 387 475 Q 356 465 321 456 Q 284 447 240 442 Z" fill="lightgray"></path>
    
      <path d="M 366 316 Q 429 329 509 341 Q 525 342 526 350 Q 527 362 510 370 Q 485 382 463 376 Q 220 319 96 305 Q 84 304 82 296 Q 78 286 93 275 Q 129 248 169 262 Q 311 310 334 309 L 366 316 Z" fill="lightgray"></path>
    
      <path d="M 395 250 Q 399 283 386 299 Q 374 309 366 316 C 343 336 325 338 334 309 Q 334 308 335 305 Q 347 274 345 176 Q 344 115 338 99 Q 335 87 312 91 Q 282 98 251 106 Q 241 106 239 100 Q 238 96 247 87 Q 311 38 333 8 Q 349 -5 359 -2 Q 369 2 380 31 Q 395 61 393 116 Q 392 192 393 229 L 395 250 Z" fill="lightgray"></path>
    
      <path d="M 213 222 Q 188 174 154 133 Q 130 105 147 73 Q 151 55 172 65 Q 223 95 231 167 Q 238 197 234 220 Q 230 227 225 229 Q 218 229 213 222 Z" fill="lightgray"></path>
    
      <path d="M 393 229 Q 397 225 406 220 Q 473 169 480 167 Q 487 168 490 177 Q 493 186 486 205 Q 482 221 456 233 Q 431 243 402 250 Q 398 251 395 250 C 372 247 372 247 393 229 Z" fill="lightgray"></path>
    
      <path d="M 604 534 Q 641 592 677 674 Q 693 714 709 735 Q 716 745 710 758 Q 704 768 675 786 Q 647 799 630 797 Q 614 793 624 773 Q 639 751 633 728 Q 603 604 502 429 Q 495 419 493 413 Q 492 403 504 406 Q 528 416 592 515 L 604 534 Z" fill="lightgray"></path>
    
      <path d="M 592 515 Q 614 494 654 508 Q 757 553 781 545 Q 794 535 790 525 Q 790 524 767 464 Q 760 454 765 449 Q 769 443 780 455 Q 865 513 903 527 Q 912 528 913 536 Q 913 549 884 564 Q 862 577 839 590 Q 811 605 797 597 Q 725 563 604 534 C 575 527 575 527 592 515 Z" fill="lightgray"></path>
    
      <path d="M 657 320 Q 666 377 678 400 Q 685 416 671 425 Q 626 458 602 448 Q 589 444 596 430 Q 624 378 591 253 Q 560 148 471 88 Q 458 78 443 66 Q 431 57 443 55 Q 497 55 559 117 Q 631 180 651 287 L 657 320 Z" fill="lightgray"></path>
    
      <path d="M 651 287 Q 712 182 793 68 Q 809 49 837 47 Q 934 44 965 47 Q 975 48 976 53 Q 977 57 965 65 Q 827 132 756 208 Q 708 257 657 320 C 638 343 636 313 651 287 Z" fill="lightgray"></path>
    
    
      <clipPath id="make-me-a-hanzi-clip-0">
        <path d="M 392 639 Q 521 672 523 673 Q 532 680 527 689 Q 520 699 492 707 Q 465 713 397 690 L 346 674 Q 334 673 323 669 Q 259 656 185 648 Q 151 642 175 626 Q 214 602 270 615 Q 307 622 347 630 L 392 639 Z"></path>
      </clipPath>
      <path clip-path="url(#make-me-a-hanzi-clip-0)" d="M 178 638 L 242 632 L 350 652 L 459 682 L 494 686 L 519 681" fill="none" id="make-me-a-hanzi-animation-0" stroke-dasharray="476 952" stroke-linecap="round"></path>
    
      <clipPath id="make-me-a-hanzi-clip-1">
        <path d="M 386 572 Q 389 606 392 639 L 397 690 Q 400 729 407 759 Q 417 789 399 803 Q 368 819 347 824 Q 334 827 326 819 Q 319 813 326 800 Q 342 778 343 762 Q 344 720 346 674 L 347 630 Q 347 596 346 559 C 345 529 383 542 386 572 Z"></path>
      </clipPath>
      <path clip-path="url(#make-me-a-hanzi-clip-1)" d="M 337 810 L 376 775 L 367 587 L 351 566" fill="none" id="make-me-a-hanzi-animation-1" stroke-dasharray="395 790" stroke-linecap="round"></path>
    
      <clipPath id="make-me-a-hanzi-clip-2">
        <path d="M 346 559 Q 274 543 230 534 Q 205 530 225 515 Q 258 494 282 502 Q 393 532 470 545 Q 480 544 487 556 Q 487 566 466 575 Q 436 590 386 572 L 346 559 Z"></path>
      </clipPath>
      <path clip-path="url(#make-me-a-hanzi-clip-2)" d="M 226 525 L 272 521 L 414 558 L 477 557" fill="none" id="make-me-a-hanzi-animation-2" stroke-dasharray="384 768" stroke-linecap="round"></path>
    
      <clipPath id="make-me-a-hanzi-clip-3">
        <path d="M 240 442 Q 206 436 230 421 Q 263 406 336 417 Q 385 429 439 439 Q 467 446 471 450 Q 480 457 475 465 Q 468 475 441 482 Q 414 486 387 475 Q 356 465 321 456 Q 284 447 240 442 Z"></path>
      </clipPath>
      <path clip-path="url(#make-me-a-hanzi-clip-3)" d="M 232 433 L 289 430 L 422 460 L 464 460" fill="none" id="make-me-a-hanzi-animation-3" stroke-dasharray="363 726" stroke-linecap="round"></path>
    
      <clipPath id="make-me-a-hanzi-clip-4">
        <path d="M 366 316 Q 429 329 509 341 Q 525 342 526 350 Q 527 362 510 370 Q 485 382 463 376 Q 220 319 96 305 Q 84 304 82 296 Q 78 286 93 275 Q 129 248 169 262 Q 311 310 334 309 L 366 316 Z"></path>
      </clipPath>
      <path clip-path="url(#make-me-a-hanzi-clip-4)" d="M 94 292 L 123 284 L 151 285 L 457 355 L 516 353" fill="none" id="make-me-a-hanzi-animation-4" stroke-dasharray="559 1118" stroke-linecap="round"></path>
    
      <clipPath id="make-me-a-hanzi-clip-5">
        <path d="M 395 250 Q 399 283 386 299 Q 374 309 366 316 C 343 336 325 338 334 309 Q 334 308 335 305 Q 347 274 345 176 Q 344 115 338 99 Q 335 87 312 91 Q 282 98 251 106 Q 241 106 239 100 Q 238 96 247 87 Q 311 38 333 8 Q 349 -5 359 -2 Q 369 2 380 31 Q 395 61 393 116 Q 392 192 393 229 L 395 250 Z"></path>
      </clipPath>
      <path clip-path="url(#make-me-a-hanzi-clip-5)" d="M 340 308 L 360 293 L 369 270 L 368 124 L 361 78 L 346 54 L 248 97" fill="none" id="make-me-a-hanzi-animation-5" stroke-dasharray="506 1012" stroke-linecap="round"></path>
    
      <clipPath id="make-me-a-hanzi-clip-6">
        <path d="M 213 222 Q 188 174 154 133 Q 130 105 147 73 Q 151 55 172 65 Q 223 95 231 167 Q 238 197 234 220 Q 230 227 225 229 Q 218 229 213 222 Z"></path>
      </clipPath>
      <path clip-path="url(#make-me-a-hanzi-clip-6)" d="M 223 218 L 206 162 L 171 103 L 162 75" fill="none" id="make-me-a-hanzi-animation-6" stroke-dasharray="285 570" stroke-linecap="round"></path>
    
      <clipPath id="make-me-a-hanzi-clip-7">
        <path d="M 393 229 Q 397 225 406 220 Q 473 169 480 167 Q 487 168 490 177 Q 493 186 486 205 Q 482 221 456 233 Q 431 243 402 250 Q 398 251 395 250 C 372 247 372 247 393 229 Z"></path>
      </clipPath>
      <path clip-path="url(#make-me-a-hanzi-clip-7)" d="M 399 244 L 462 205 L 482 175" fill="none" id="make-me-a-hanzi-animation-7" stroke-dasharray="238 476" stroke-linecap="round"></path>
    
      <clipPath id="make-me-a-hanzi-clip-8">
        <path d="M 604 534 Q 641 592 677 674 Q 693 714 709 735 Q 716 745 710 758 Q 704 768 675 786 Q 647 799 630 797 Q 614 793 624 773 Q 639 751 633 728 Q 603 604 502 429 Q 495 419 493 413 Q 492 403 504 406 Q 528 416 592 515 L 604 534 Z"></path>
      </clipPath>
      <path clip-path="url(#make-me-a-hanzi-clip-8)" d="M 633 783 L 657 766 L 671 745 L 660 709 L 617 602 L 571 514 L 501 414" fill="none" id="make-me-a-hanzi-animation-8" stroke-dasharray="557 1114" stroke-linecap="round"></path>
    
      <clipPath id="make-me-a-hanzi-clip-9">
        <path d="M 592 515 Q 614 494 654 508 Q 757 553 781 545 Q 794 535 790 525 Q 790 524 767 464 Q 760 454 765 449 Q 769 443 780 455 Q 865 513 903 527 Q 912 528 913 536 Q 913 549 884 564 Q 862 577 839 590 Q 811 605 797 597 Q 725 563 604 534 C 575 527 575 527 592 515 Z"></path>
      </clipPath>
      <path clip-path="url(#make-me-a-hanzi-clip-9)" d="M 601 516 L 659 528 L 761 563 L 804 566 L 834 542 L 770 456" fill="none" id="make-me-a-hanzi-animation-9" stroke-dasharray="484 968" stroke-linecap="round"></path>
    
      <clipPath id="make-me-a-hanzi-clip-10">
        <path d="M 657 320 Q 666 377 678 400 Q 685 416 671 425 Q 626 458 602 448 Q 589 444 596 430 Q 624 378 591 253 Q 560 148 471 88 Q 458 78 443 66 Q 431 57 443 55 Q 497 55 559 117 Q 631 180 651 287 L 657 320 Z"></path>
      </clipPath>
      <path clip-path="url(#make-me-a-hanzi-clip-10)" d="M 604 437 L 617 431 L 641 404 L 625 284 L 604 214 L 569 156 L 527 111 L 492 83 L 449 61" fill="none" id="make-me-a-hanzi-animation-10" stroke-dasharray="595 1190" stroke-linecap="round"></path>
    
      <clipPath id="make-me-a-hanzi-clip-11">
        <path d="M 651 287 Q 712 182 793 68 Q 809 49 837 47 Q 934 44 965 47 Q 975 48 976 53 Q 977 57 965 65 Q 827 132 756 208 Q 708 257 657 320 C 638 343 636 313 651 287 Z"></path>
      </clipPath>
      <path clip-path="url(#make-me-a-hanzi-clip-11)" d="M 662 313 L 665 287 L 682 264 L 746 180 L 822 98 L 848 84 L 969 53" fill="none" id="make-me-a-hanzi-animation-11" stroke-dasharray="555 1110" stroke-linecap="round"></path>
    
  </g>
</svg>