<svg version="1.1" viewBox="0 0 1024 1024" xmlns="http://www.w3.org/2000/svg">
  <g stroke="lightgray" stroke-dasharray="1,1" stroke-width="1" transform="scale(4, 4)">
    <line x1="0" y1="0" x2="256" y2="256"></line>
    <line x1="256" y1="0" x2="0" y2="256"></line>
    <line x1="128" y1="0" x2="128" y2="256"></line>
    <line x1="0" y1="128" x2="256" y2="128"></line>
  </g>
  <g transform="scale(1, -1) translate(0, -900)">
    <style type="text/css">
      
        @keyframes keyframes0 {
          from {
            stroke: blue;
            stroke-dashoffset: 528;
            stroke-width: 128;
          }
          63% {
            animation-timing-function: step-end;
            stroke: blue;
            stroke-dashoffset: 0;
            stroke-width: 128;
          }
          to {
            stroke: black;
            stroke-width: 1024;
          }
        }
        #make-me-a-hanzi-animation-0 {
          animation: keyframes0 0.6796875s both;
          animation-delay: 0s;
          animation-timing-function: linear;
        }
      
        @keyframes keyframes1 {
          from {
            stroke: blue;
            stroke-dashoffset: 616;
            stroke-width: 128;
          }
          67% {
            animation-timing-function: step-end;
            stroke: blue;
            stroke-dashoffset: 0;
            stroke-width: 128;
          }
          to {
            stroke: black;
            stroke-width: 1024;
          }
        }
        #make-me-a-hanzi-animation-1 {
          animation: keyframes1 0.7513020833333334s both;
          animation-delay: 0.6796875s;
          animation-timing-function: linear;
        }
      
        @keyframes keyframes2 {
          from {
            stroke: blue;
            stroke-dashoffset: 875;
            stroke-width: 128;
          }
          74% {
            animation-timing-function: step-end;
            stroke: blue;
            stroke-dashoffset: 0;
            stroke-width: 128;
          }
          to {
            stroke: black;
            stroke-width: 1024;
          }
        }
        #make-me-a-hanzi-animation-2 {
          animation: keyframes2 0.9620768229166666s both;
          animation-delay: 1.4309895833333335s;
          animation-timing-function: linear;
        }
      
        @keyframes keyframes3 {
          from {
            stroke: blue;
            stroke-dashoffset: 356;
            stroke-width: 128;
          }
          54% {
            animation-timing-function: step-end;
            stroke: blue;
            stroke-dashoffset: 0;
            stroke-width: 128;
          }
          to {
            stroke: black;
            stroke-width: 1024;
          }
        }
        #make-me-a-hanzi-animation-3 {
          animation: keyframes3 0.5397135416666666s both;
          animation-delay: 2.39306640625s;
          animation-timing-function: linear;
        }
      
        @keyframes keyframes4 {
          from {
            stroke: blue;
            stroke-dashoffset: 459;
            stroke-width: 128;
          }
          60% {
            animation-timing-function: step-end;
            stroke: blue;
            stroke-dashoffset: 0;
            stroke-width: 128;
          }
          to {
            stroke: black;
            stroke-width: 1024;
          }
        }
        #make-me-a-hanzi-animation-4 {
          animation: keyframes4 0.62353515625s both;
          animation-delay: 2.9327799479166665s;
          animation-timing-function: linear;
        }
      
        @keyframes keyframes5 {
          from {
            stroke: blue;
            stroke-dashoffset: 748;
            stroke-width: 128;
          }
          71% {
            animation-timing-function: step-end;
            stroke: blue;
            stroke-dashoffset: 0;
            stroke-width: 128;
          }
          to {
            stroke: black;
            stroke-width: 1024;
          }
        }
        #make-me-a-hanzi-animation-5 {
          animation: keyframes5 0.8587239583333334s both;
          animation-delay: 3.5563151041666665s;
          animation-timing-function: linear;
        }
      
        @keyframes keyframes6 {
          from {
            stroke: blue;
            stroke-dashoffset: 817;
            stroke-width: 128;
          }
          73% {
            animation-timing-function: step-end;
            stroke: blue;
            stroke-dashoffset: 0;
            stroke-width: 128;
          }
          to {
            stroke: black;
            stroke-width: 1024;
          }
        }
        #make-me-a-hanzi-animation-6 {
          animation: keyframes6 0.9148763020833334s both;
          animation-delay: 4.4150390625s;
          animation-timing-function: linear;
        }
      
        @keyframes keyframes7 {
          from {
            stroke: blue;
            stroke-dashoffset: 1160;
            stroke-width: 128;
          }
          79% {
            animation-timing-function: step-end;
            stroke: blue;
            stroke-dashoffset: 0;
            stroke-width: 128;
          }
          to {
            stroke: black;
            stroke-width: 1024;
          }
        }
        #make-me-a-hanzi-animation-7 {
          animation: keyframes7 1.1940104166666667s both;
          animation-delay: 5.329915364583333s;
          animation-timing-function: linear;
        }
      
        @keyframes keyframes8 {
          from {
            stroke: blue;
            stroke-dashoffset: 724;
            stroke-width: 128;
          }
          70% {
            animation-timing-function: step-end;
            stroke: blue;
            stroke-dashoffset: 0;
            stroke-width: 128;
          }
          to {
            stroke: black;
            stroke-width: 1024;
          }
        }
        #make-me-a-hanzi-animation-8 {
          animation: keyframes8 0.8391927083333334s both;
          animation-delay: 6.52392578125s;
          animation-timing-function: linear;
        }
      
    </style>
    
      <path d="M 244 636 Q 412 678 420 685 Q 429 692 424 701 Q 417 711 388 718 Q 358 722 330 709 Q 293 696 253 683 Q 208 671 155 664 Q 121 657 146 642 Q 173 630 209 629 L 244 636 Z" fill="lightgray"></path>
    
      <path d="M 219 470 Q 285 600 286 602 Q 285 605 285 606 Q 276 628 244 636 C 215 645 200 650 209 629 Q 222 602 218 583 Q 191 478 99 337 Q 92 328 90 323 Q 89 314 99 317 Q 126 326 210 455 L 219 470 Z" fill="lightgray"></path>
    
      <path d="M 232 251 Q 231 250 230 247 Q 179 159 88 69 Q 66 53 86 56 Q 162 68 254 199 Q 312 283 354 390 Q 373 442 388 457 Q 400 467 393 479 Q 387 489 334 507 Q 322 511 301 499 Q 276 486 219 470 C 192 462 192 462 210 455 Q 220 443 251 451 Q 300 463 303 456 Q 310 443 294 388 Q 284 340 246 275 L 232 251 Z" fill="lightgray"></path>
    
      <path d="M 246 275 Q 240 308 212 322 Q 178 341 163 346 Q 156 349 153 339 Q 150 326 199 269 Q 212 251 232 251 C 251 250 251 250 246 275 Z" fill="lightgray"></path>
    
      <path d="M 482 526 Q 461 539 437 544 Q 424 548 417 541 Q 411 535 418 523 Q 436 499 445 473 Q 454 448 476 343 C 482 314 516 318 512 348 Q 496 480 495 495 C 493 520 493 520 482 526 Z" fill="lightgray"></path>
    
      <path d="M 786 392 Q 808 488 845 519 Q 861 538 847 555 Q 831 568 778 592 Q 760 599 739 590 Q 688 571 643 557 L 595 546 Q 537 536 482 526 C 452 521 467 485 495 495 Q 514 504 595 517 L 641 526 Q 737 550 750 538 Q 762 528 759 506 Q 749 436 733 382 C 725 353 779 363 786 392 Z" fill="lightgray"></path>
    
      <path d="M 629 328 Q 717 340 911 341 Q 930 341 935 350 Q 941 360 924 374 Q 867 416 807 397 Q 797 396 786 392 L 733 382 Q 687 376 633 365 L 583 358 Q 547 354 512 348 L 476 343 Q 424 337 372 329 Q 351 328 367 311 Q 380 298 398 293 Q 417 287 434 292 Q 501 311 578 321 L 629 328 Z" fill="lightgray"></path>
    
      <path d="M 628 327 Q 628 328 629 328 L 633 365 Q 634 384 636 403 Q 637 466 641 526 L 643 557 Q 644 689 672 754 Q 679 769 667 780 Q 645 799 603 811 Q 578 818 568 810 Q 558 803 566 790 Q 590 753 593 703 Q 597 624 595 546 L 595 517 Q 592 448 586 380 Q 585 370 583 358 L 578 321 Q 559 210 495 145 Q 447 102 358 55 Q 345 48 345 43 Q 346 39 358 38 Q 376 34 418 49 Q 491 71 543 124 Q 604 188 623 292 L 628 327 Z" fill="lightgray"></path>
    
      <path d="M 623 292 Q 690 177 777 53 Q 793 31 825 29 Q 931 25 964 27 Q 974 28 976 33 Q 977 37 964 47 Q 813 120 756 183 Q 693 247 628 327 C 609 350 608 318 623 292 Z" fill="lightgray"></path>
    
    
      <clipPath id="make-me-a-hanzi-clip-0">
        <path d="M 244 636 Q 412 678 420 685 Q 429 692 424 701 Q 417 711 388 718 Q 358 722 330 709 Q 293 696 253 683 Q 208 671 155 664 Q 121 657 146 642 Q 173 630 209 629 L 244 636 Z"></path>
      </clipPath>
      <path clip-path="url(#make-me-a-hanzi-clip-0)" d="M 148 654 L 210 651 L 368 694 L 414 695" fill="none" id="make-me-a-hanzi-animation-0" stroke-dasharray="400 800" stroke-linecap="round"></path>
    
      <clipPath id="make-me-a-hanzi-clip-1">
        <path d="M 219 470 Q 285 600 286 602 Q 285 605 285 606 Q 276 628 244 636 C 215 645 200 650 209 629 Q 222 602 218 583 Q 191 478 99 337 Q 92 328 90 323 Q 89 314 99 317 Q 126 326 210 455 L 219 470 Z"></path>
      </clipPath>
      <path clip-path="url(#make-me-a-hanzi-clip-1)" d="M 216 622 L 229 619 L 250 598 L 229 536 L 178 433 L 97 323" fill="none" id="make-me-a-hanzi-animation-1" stroke-dasharray="488 976" stroke-linecap="round"></path>
    
      <clipPath id="make-me-a-hanzi-clip-2">
        <path d="M 232 251 Q 231 250 230 247 Q 179 159 88 69 Q 66 53 86 56 Q 162 68 254 199 Q 312 283 354 390 Q 373 442 388 457 Q 400 467 393 479 Q 387 489 334 507 Q 322 511 301 499 Q 276 486 219 470 C 192 462 192 462 210 455 Q 220 443 251 451 Q 300 463 303 456 Q 310 443 294 388 Q 284 340 246 275 L 232 251 Z"></path>
      </clipPath>
      <path clip-path="url(#make-me-a-hanzi-clip-2)" d="M 217 456 L 305 478 L 327 477 L 343 462 L 303 334 L 230 202 L 149 106 L 90 62" fill="none" id="make-me-a-hanzi-animation-2" stroke-dasharray="747 1494" stroke-linecap="round"></path>
    
      <clipPath id="make-me-a-hanzi-clip-3">
        <path d="M 246 275 Q 240 308 212 322 Q 178 341 163 346 Q 156 349 153 339 Q 150 326 199 269 Q 212 251 232 251 C 251 250 251 250 246 275 Z"></path>
      </clipPath>
      <path clip-path="url(#make-me-a-hanzi-clip-3)" d="M 162 337 L 206 298 L 227 262" fill="none" id="make-me-a-hanzi-animation-3" stroke-dasharray="228 456" stroke-linecap="round"></path>
    
      <clipPath id="make-me-a-hanzi-clip-4">
        <path d="M 482 526 Q 461 539 437 544 Q 424 548 417 541 Q 411 535 418 523 Q 436 499 445 473 Q 454 448 476 343 C 482 314 516 318 512 348 Q 496 480 495 495 C 493 520 493 520 482 526 Z"></path>
      </clipPath>
      <path clip-path="url(#make-me-a-hanzi-clip-4)" d="M 426 533 L 456 512 L 468 489 L 491 364 L 480 356" fill="none" id="make-me-a-hanzi-animation-4" stroke-dasharray="331 662" stroke-linecap="round"></path>
    
      <clipPath id="make-me-a-hanzi-clip-5">
        <path d="M 786 392 Q 808 488 845 519 Q 861 538 847 555 Q 831 568 778 592 Q 760 599 739 590 Q 688 571 643 557 L 595 546 Q 537 536 482 526 C 452 521 467 485 495 495 Q 514 504 595 517 L 641 526 Q 737 550 750 538 Q 762 528 759 506 Q 749 436 733 382 C 725 353 779 363 786 392 Z"></path>
      </clipPath>
      <path clip-path="url(#make-me-a-hanzi-clip-5)" d="M 490 523 L 500 515 L 582 527 L 744 566 L 775 559 L 800 534 L 765 412 L 739 388" fill="none" id="make-me-a-hanzi-animation-5" stroke-dasharray="620 1240" stroke-linecap="round"></path>
    
      <clipPath id="make-me-a-hanzi-clip-6">
        <path d="M 629 328 Q 717 340 911 341 Q 930 341 935 350 Q 941 360 924 374 Q 867 416 807 397 Q 797 396 786 392 L 733 382 Q 687 376 633 365 L 583 358 Q 547 354 512 348 L 476 343 Q 424 337 372 329 Q 351 328 367 311 Q 380 298 398 293 Q 417 287 434 292 Q 501 311 578 321 L 629 328 Z"></path>
      </clipPath>
      <path clip-path="url(#make-me-a-hanzi-clip-6)" d="M 369 320 L 417 312 L 578 340 L 844 372 L 923 356" fill="none" id="make-me-a-hanzi-animation-6" stroke-dasharray="689 1378" stroke-linecap="round"></path>
    
      <clipPath id="make-me-a-hanzi-clip-7">
        <path d="M 628 327 Q 628 328 629 328 L 633 365 Q 634 384 636 403 Q 637 466 641 526 L 643 557 Q 644 689 672 754 Q 679 769 667 780 Q 645 799 603 811 Q 578 818 568 810 Q 558 803 566 790 Q 590 753 593 703 Q 597 624 595 546 L 595 517 Q 592 448 586 380 Q 585 370 583 358 L 578 321 Q 559 210 495 145 Q 447 102 358 55 Q 345 48 345 43 Q 346 39 358 38 Q 376 34 418 49 Q 491 71 543 124 Q 604 188 623 292 L 628 327 Z"></path>
      </clipPath>
      <path clip-path="url(#make-me-a-hanzi-clip-7)" d="M 575 799 L 603 782 L 627 756 L 613 411 L 602 313 L 589 257 L 568 202 L 521 136 L 457 87 L 352 42" fill="none" id="make-me-a-hanzi-animation-7" stroke-dasharray="1032 2064" stroke-linecap="round"></path>
    
      <clipPath id="make-me-a-hanzi-clip-8">
        <path d="M 623 292 Q 690 177 777 53 Q 793 31 825 29 Q 931 25 964 27 Q 974 28 976 33 Q 977 37 964 47 Q 813 120 756 183 Q 693 247 628 327 C 609 350 608 318 623 292 Z"></path>
      </clipPath>
      <path clip-path="url(#make-me-a-hanzi-clip-8)" d="M 632 320 L 638 292 L 682 231 L 740 157 L 814 78 L 969 33" fill="none" id="make-me-a-hanzi-animation-8" stroke-dasharray="596 1192" stroke-linecap="round"></path>
    
  </g>
</svg>