<svg version="1.1" viewBox="0 0 1024 1024" xmlns="http://www.w3.org/2000/svg">
  <g stroke="lightgray" stroke-dasharray="1,1" stroke-width="1" transform="scale(4, 4)">
    <line x1="0" y1="0" x2="256" y2="256"></line>
    <line x1="256" y1="0" x2="0" y2="256"></line>
    <line x1="128" y1="0" x2="128" y2="256"></line>
    <line x1="0" y1="128" x2="256" y2="128"></line>
  </g>
  <g transform="scale(1, -1) translate(0, -900)">
    <style type="text/css">
      
        @keyframes keyframes0 {
          from {
            stroke: blue;
            stroke-dashoffset: 542;
            stroke-width: 128;
          }
          64% {
            animation-timing-function: step-end;
            stroke: blue;
            stroke-dashoffset: 0;
            stroke-width: 128;
          }
          to {
            stroke: black;
            stroke-width: 1024;
          }
        }
        #make-me-a-hanzi-animation-0 {
          animation: keyframes0 0.6910807291666666s both;
          animation-delay: 0s;
          animation-timing-function: linear;
        }
      
        @keyframes keyframes1 {
          from {
            stroke: blue;
            stroke-dashoffset: 619;
            stroke-width: 128;
          }
          67% {
            animation-timing-function: step-end;
            stroke: blue;
            stroke-dashoffset: 0;
            stroke-width: 128;
          }
          to {
            stroke: black;
            stroke-width: 1024;
          }
        }
        #make-me-a-hanzi-animation-1 {
          animation: keyframes1 0.7537434895833334s both;
          animation-delay: 0.6910807291666666s;
          animation-timing-function: linear;
        }
      
        @keyframes keyframes2 {
          from {
            stroke: blue;
            stroke-dashoffset: 924;
            stroke-width: 128;
          }
          75% {
            animation-timing-function: step-end;
            stroke: blue;
            stroke-dashoffset: 0;
            stroke-width: 128;
          }
          to {
            stroke: black;
            stroke-width: 1024;
          }
        }
        #make-me-a-hanzi-animation-2 {
          animation: keyframes2 1.001953125s both;
          animation-delay: 1.44482421875s;
          animation-timing-function: linear;
        }
      
        @keyframes keyframes3 {
          from {
            stroke: blue;
            stroke-dashoffset: 371;
            stroke-width: 128;
          }
          55% {
            animation-timing-function: step-end;
            stroke: blue;
            stroke-dashoffset: 0;
            stroke-width: 128;
          }
          to {
            stroke: black;
            stroke-width: 1024;
          }
        }
        #make-me-a-hanzi-animation-3 {
          animation: keyframes3 0.5519205729166666s both;
          animation-delay: 2.44677734375s;
          animation-timing-function: linear;
        }
      
        @keyframes keyframes4 {
          from {
            stroke: blue;
            stroke-dashoffset: 595;
            stroke-width: 128;
          }
          66% {
            animation-timing-function: step-end;
            stroke: blue;
            stroke-dashoffset: 0;
            stroke-width: 128;
          }
          to {
            stroke: black;
            stroke-width: 1024;
          }
        }
        #make-me-a-hanzi-animation-4 {
          animation: keyframes4 0.7342122395833334s both;
          animation-delay: 2.9986979166666665s;
          animation-timing-function: linear;
        }
      
        @keyframes keyframes5 {
          from {
            stroke: blue;
            stroke-dashoffset: 855;
            stroke-width: 128;
          }
          74% {
            animation-timing-function: step-end;
            stroke: blue;
            stroke-dashoffset: 0;
            stroke-width: 128;
          }
          to {
            stroke: black;
            stroke-width: 1024;
          }
        }
        #make-me-a-hanzi-animation-5 {
          animation: keyframes5 0.94580078125s both;
          animation-delay: 3.73291015625s;
          animation-timing-function: linear;
        }
      
        @keyframes keyframes6 {
          from {
            stroke: blue;
            stroke-dashoffset: 1018;
            stroke-width: 128;
          }
          77% {
            animation-timing-function: step-end;
            stroke: blue;
            stroke-dashoffset: 0;
            stroke-width: 128;
          }
          to {
            stroke: black;
            stroke-width: 1024;
          }
        }
        #make-me-a-hanzi-animation-6 {
          animation: keyframes6 1.0784505208333333s both;
          animation-delay: 4.6787109375s;
          animation-timing-function: linear;
        }
      
        @keyframes keyframes7 {
          from {
            stroke: blue;
            stroke-dashoffset: 890;
            stroke-width: 128;
          }
          74% {
            animation-timing-function: step-end;
            stroke: blue;
            stroke-dashoffset: 0;
            stroke-width: 128;
          }
          to {
            stroke: black;
            stroke-width: 1024;
          }
        }
        #make-me-a-hanzi-animation-7 {
          animation: keyframes7 0.9742838541666666s both;
          animation-delay: 5.757161458333333s;
          animation-timing-function: linear;
        }
      
    </style>
    
      <path d="M 262 629 Q 430 672 432 673 Q 441 683 436 691 Q 427 704 396 711 Q 363 715 331 702 Q 294 689 254 677 Q 209 667 157 660 Q 118 653 147 635 Q 178 619 220 621 L 262 629 Z" fill="lightgray"></path>
    
      <path d="M 165 389 Q 174 401 185 413 Q 203 435 223 462 L 235 480 Q 281 558 297 572 Q 304 581 300 593 Q 288 620 262 629 C 235 641 209 649 220 621 Q 221 620 222 617 Q 240 581 169 460 Q 135 405 89 343 Q 80 334 79 329 Q 76 319 88 321 Q 100 322 149 371 L 165 389 Z" fill="lightgray"></path>
    
      <path d="M 223 462 Q 233 452 266 460 Q 329 479 334 472 Q 340 457 322 400 Q 309 339 249 253 Q 192 160 93 69 Q 71 53 91 56 Q 169 65 273 202 Q 337 289 384 401 Q 406 455 422 471 Q 434 483 427 494 Q 421 504 365 523 Q 352 527 330 514 Q 302 498 235 480 C 206 472 197 469 223 462 Z" fill="lightgray"></path>
    
      <path d="M 149 371 Q 153 365 161 356 Q 186 325 213 290 Q 220 280 232 277 Q 239 276 246 285 Q 250 295 249 317 Q 248 338 221 358 Q 194 374 165 389 C 138 403 132 395 149 371 Z" fill="lightgray"></path>
    
      <path d="M 541 723 Q 528 735 505 743 Q 489 752 477 747 Q 467 740 473 728 Q 500 682 478 554 Q 466 506 450 472 Q 443 453 433 436 Q 429 430 427 424 Q 426 414 435 417 Q 466 423 506 504 Q 531 568 545 677 Q 545 681 546 686 C 549 716 549 716 541 723 Z" fill="lightgray"></path>
    
      <path d="M 909 479 Q 924 483 916 500 Q 903 519 884 531 Q 872 538 848 529 Q 808 513 757 516 Q 726 517 716 542 Q 703 564 712 629 Q 713 669 750 710 Q 768 726 750 740 Q 726 759 700 771 Q 688 775 671 765 Q 611 738 541 723 C 512 716 517 679 546 686 Q 553 687 561 689 Q 657 722 663 719 Q 670 715 670 700 Q 660 529 684 497 Q 690 490 700 482 Q 736 461 805 461 Q 874 461 909 479 Z" fill="lightgray"></path>
    
      <path d="M 633 187 Q 681 245 709 336 Q 719 370 739 388 Q 757 401 738 419 Q 719 437 685 451 Q 663 460 641 449 Q 581 419 499 408 Q 472 405 460 398 Q 451 391 470 382 Q 497 367 537 380 Q 585 390 632 402 Q 651 409 652 387 Q 652 306 594 222 L 566 187 Q 559 181 552 173 Q 494 124 342 82 Q 326 79 335 70 Q 342 63 372 66 Q 525 82 599 148 L 633 187 Z" fill="lightgray"></path>
    
      <path d="M 599 148 Q 651 87 718 24 Q 737 5 767 4 Q 858 1 932 11 Q 972 15 968 25 Q 968 29 786 93 Q 711 123 633 187 L 594 222 Q 560 253 527 290 Q 490 332 452 333 Q 433 334 430 328 Q 429 321 444 310 Q 486 283 566 187 L 599 148 Z" fill="lightgray"></path>
    
    
      <clipPath id="make-me-a-hanzi-clip-0">
        <path d="M 262 629 Q 430 672 432 673 Q 441 683 436 691 Q 427 704 396 711 Q 363 715 331 702 Q 294 689 254 677 Q 209 667 157 660 Q 118 653 147 635 Q 178 619 220 621 L 262 629 Z"></path>
      </clipPath>
      <path clip-path="url(#make-me-a-hanzi-clip-0)" d="M 149 649 L 211 644 L 377 686 L 409 687 L 429 681" fill="none" id="make-me-a-hanzi-animation-0" stroke-dasharray="414 828" stroke-linecap="round"></path>
    
      <clipPath id="make-me-a-hanzi-clip-1">
        <path d="M 165 389 Q 174 401 185 413 Q 203 435 223 462 L 235 480 Q 281 558 297 572 Q 304 581 300 593 Q 288 620 262 629 C 235 641 209 649 220 621 Q 221 620 222 617 Q 240 581 169 460 Q 135 405 89 343 Q 80 334 79 329 Q 76 319 88 321 Q 100 322 149 371 L 165 389 Z"></path>
      </clipPath>
      <path clip-path="url(#make-me-a-hanzi-clip-1)" d="M 227 622 L 259 593 L 261 585 L 249 558 L 201 468 L 131 371 L 87 329" fill="none" id="make-me-a-hanzi-animation-1" stroke-dasharray="491 982" stroke-linecap="round"></path>
    
      <clipPath id="make-me-a-hanzi-clip-2">
        <path d="M 223 462 Q 233 452 266 460 Q 329 479 334 472 Q 340 457 322 400 Q 309 339 249 253 Q 192 160 93 69 Q 71 53 91 56 Q 169 65 273 202 Q 337 289 384 401 Q 406 455 422 471 Q 434 483 427 494 Q 421 504 365 523 Q 352 527 330 514 Q 302 498 235 480 C 206 472 197 469 223 462 Z"></path>
      </clipPath>
      <path clip-path="url(#make-me-a-hanzi-clip-2)" d="M 230 464 L 335 494 L 358 493 L 375 476 L 338 361 L 282 257 L 236 190 L 187 133 L 143 93 L 95 62" fill="none" id="make-me-a-hanzi-animation-2" stroke-dasharray="796 1592" stroke-linecap="round"></path>
    
      <clipPath id="make-me-a-hanzi-clip-3">
        <path d="M 149 371 Q 153 365 161 356 Q 186 325 213 290 Q 220 280 232 277 Q 239 276 246 285 Q 250 295 249 317 Q 248 338 221 358 Q 194 374 165 389 C 138 403 132 395 149 371 Z"></path>
      </clipPath>
      <path clip-path="url(#make-me-a-hanzi-clip-3)" d="M 157 372 L 175 366 L 211 334 L 224 317 L 232 292" fill="none" id="make-me-a-hanzi-animation-3" stroke-dasharray="243 486" stroke-linecap="round"></path>
    
      <clipPath id="make-me-a-hanzi-clip-4">
        <path d="M 541 723 Q 528 735 505 743 Q 489 752 477 747 Q 467 740 473 728 Q 500 682 478 554 Q 466 506 450 472 Q 443 453 433 436 Q 429 430 427 424 Q 426 414 435 417 Q 466 423 506 504 Q 531 568 545 677 Q 545 681 546 686 C 549 716 549 716 541 723 Z"></path>
      </clipPath>
      <path clip-path="url(#make-me-a-hanzi-clip-4)" d="M 484 736 L 514 701 L 508 591 L 485 503 L 461 456 L 436 426" fill="none" id="make-me-a-hanzi-animation-4" stroke-dasharray="467 934" stroke-linecap="round"></path>
    
      <clipPath id="make-me-a-hanzi-clip-5">
        <path d="M 909 479 Q 924 483 916 500 Q 903 519 884 531 Q 872 538 848 529 Q 808 513 757 516 Q 726 517 716 542 Q 703 564 712 629 Q 713 669 750 710 Q 768 726 750 740 Q 726 759 700 771 Q 688 775 671 765 Q 611 738 541 723 C 512 716 517 679 546 686 Q 553 687 561 689 Q 657 722 663 719 Q 670 715 670 700 Q 660 529 684 497 Q 690 490 700 482 Q 736 461 805 461 Q 874 461 909 479 Z"></path>
      </clipPath>
      <path clip-path="url(#make-me-a-hanzi-clip-5)" d="M 552 693 L 562 708 L 643 735 L 673 741 L 693 737 L 707 721 L 691 662 L 688 581 L 690 551 L 706 511 L 737 493 L 779 488 L 831 491 L 864 500 L 907 491" fill="none" id="make-me-a-hanzi-animation-5" stroke-dasharray="727 1454" stroke-linecap="round"></path>
    
      <clipPath id="make-me-a-hanzi-clip-6">
        <path d="M 633 187 Q 681 245 709 336 Q 719 370 739 388 Q 757 401 738 419 Q 719 437 685 451 Q 663 460 641 449 Q 581 419 499 408 Q 472 405 460 398 Q 451 391 470 382 Q 497 367 537 380 Q 585 390 632 402 Q 651 409 652 387 Q 652 306 594 222 L 566 187 Q 559 181 552 173 Q 494 124 342 82 Q 326 79 335 70 Q 342 63 372 66 Q 525 82 599 148 L 633 187 Z"></path>
      </clipPath>
      <path clip-path="url(#make-me-a-hanzi-clip-6)" d="M 468 392 L 512 392 L 657 427 L 670 423 L 693 400 L 669 307 L 639 241 L 570 155 L 477 106 L 380 78 L 342 74" fill="none" id="make-me-a-hanzi-animation-6" stroke-dasharray="890 1780" stroke-linecap="round"></path>
    
      <clipPath id="make-me-a-hanzi-clip-7">
        <path d="M 599 148 Q 651 87 718 24 Q 737 5 767 4 Q 858 1 932 11 Q 972 15 968 25 Q 968 29 786 93 Q 711 123 633 187 L 594 222 Q 560 253 527 290 Q 490 332 452 333 Q 433 334 430 328 Q 429 321 444 310 Q 486 283 566 187 L 599 148 Z"></path>
      </clipPath>
      <path clip-path="url(#make-me-a-hanzi-clip-7)" d="M 436 326 L 496 294 L 635 149 L 756 54 L 941 22 L 965 23" fill="none" id="make-me-a-hanzi-animation-7" stroke-dasharray="762 1524" stroke-linecap="round"></path>
    
  </g>
</svg>