<svg version="1.1" viewBox="0 0 1024 1024" xmlns="http://www.w3.org/2000/svg">
  <g stroke="lightgray" stroke-dasharray="1,1" stroke-width="1" transform="scale(4, 4)">
    <line x1="0" y1="0" x2="256" y2="256"></line>
    <line x1="256" y1="0" x2="0" y2="256"></line>
    <line x1="128" y1="0" x2="128" y2="256"></line>
    <line x1="0" y1="128" x2="256" y2="128"></line>
  </g>
  <g transform="scale(1, -1) translate(0, -900)">
    <style type="text/css">
      
        @keyframes keyframes0 {
          from {
            stroke: blue;
            stroke-dashoffset: 526;
            stroke-width: 128;
          }
          63% {
            animation-timing-function: step-end;
            stroke: blue;
            stroke-dashoffset: 0;
            stroke-width: 128;
          }
          to {
            stroke: black;
            stroke-width: 1024;
          }
        }
        #make-me-a-hanzi-animation-0 {
          animation: keyframes0 0.6780598958333334s both;
          animation-delay: 0s;
          animation-timing-function: linear;
        }
      
        @keyframes keyframes1 {
          from {
            stroke: blue;
            stroke-dashoffset: 614;
            stroke-width: 128;
          }
          67% {
            animation-timing-function: step-end;
            stroke: blue;
            stroke-dashoffset: 0;
            stroke-width: 128;
          }
          to {
            stroke: black;
            stroke-width: 1024;
          }
        }
        #make-me-a-hanzi-animation-1 {
          animation: keyframes1 0.7496744791666666s both;
          animation-delay: 0.6780598958333334s;
          animation-timing-function: linear;
        }
      
        @keyframes keyframes2 {
          from {
            stroke: blue;
            stroke-dashoffset: 858;
            stroke-width: 128;
          }
          74% {
            animation-timing-function: step-end;
            stroke: blue;
            stroke-dashoffset: 0;
            stroke-width: 128;
          }
          to {
            stroke: black;
            stroke-width: 1024;
          }
        }
        #make-me-a-hanzi-animation-2 {
          animation: keyframes2 0.9482421875s both;
          animation-delay: 1.427734375s;
          animation-timing-function: linear;
        }
      
        @keyframes keyframes3 {
          from {
            stroke: blue;
            stroke-dashoffset: 350;
            stroke-width: 128;
          }
          53% {
            animation-timing-function: step-end;
            stroke: blue;
            stroke-dashoffset: 0;
            stroke-width: 128;
          }
          to {
            stroke: black;
            stroke-width: 1024;
          }
        }
        #make-me-a-hanzi-animation-3 {
          animation: keyframes3 0.5348307291666666s both;
          animation-delay: 2.3759765625s;
          animation-timing-function: linear;
        }
      
        @keyframes keyframes4 {
          from {
            stroke: blue;
            stroke-dashoffset: 471;
            stroke-width: 128;
          }
          61% {
            animation-timing-function: step-end;
            stroke: blue;
            stroke-dashoffset: 0;
            stroke-width: 128;
          }
          to {
            stroke: black;
            stroke-width: 1024;
          }
        }
        #make-me-a-hanzi-animation-4 {
          animation: keyframes4 0.63330078125s both;
          animation-delay: 2.9108072916666665s;
          animation-timing-function: linear;
        }
      
        @keyframes keyframes5 {
          from {
            stroke: blue;
            stroke-dashoffset: 542;
            stroke-width: 128;
          }
          64% {
            animation-timing-function: step-end;
            stroke: blue;
            stroke-dashoffset: 0;
            stroke-width: 128;
          }
          to {
            stroke: black;
            stroke-width: 1024;
          }
        }
        #make-me-a-hanzi-animation-5 {
          animation: keyframes5 0.6910807291666666s both;
          animation-delay: 3.5441080729166665s;
          animation-timing-function: linear;
        }
      
        @keyframes keyframes6 {
          from {
            stroke: blue;
            stroke-dashoffset: 732;
            stroke-width: 128;
          }
          70% {
            animation-timing-function: step-end;
            stroke: blue;
            stroke-dashoffset: 0;
            stroke-width: 128;
          }
          to {
            stroke: black;
            stroke-width: 1024;
          }
        }
        #make-me-a-hanzi-animation-6 {
          animation: keyframes6 0.845703125s both;
          animation-delay: 4.235188802083333s;
          animation-timing-function: linear;
        }
      
        @keyframes keyframes7 {
          from {
            stroke: blue;
            stroke-dashoffset: 1131;
            stroke-width: 128;
          }
          79% {
            animation-timing-function: step-end;
            stroke: blue;
            stroke-dashoffset: 0;
            stroke-width: 128;
          }
          to {
            stroke: black;
            stroke-width: 1024;
          }
        }
        #make-me-a-hanzi-animation-7 {
          animation: keyframes7 1.17041015625s both;
          animation-delay: 5.080891927083333s;
          animation-timing-function: linear;
        }
      
        @keyframes keyframes8 {
          from {
            stroke: blue;
            stroke-dashoffset: 664;
            stroke-width: 128;
          }
          68% {
            animation-timing-function: step-end;
            stroke: blue;
            stroke-dashoffset: 0;
            stroke-width: 128;
          }
          to {
            stroke: black;
            stroke-width: 1024;
          }
        }
        #make-me-a-hanzi-animation-8 {
          animation: keyframes8 0.7903645833333334s both;
          animation-delay: 6.251302083333333s;
          animation-timing-function: linear;
        }
      
        @keyframes keyframes9 {
          from {
            stroke: blue;
            stroke-dashoffset: 691;
            stroke-width: 128;
          }
          69% {
            animation-timing-function: step-end;
            stroke: blue;
            stroke-dashoffset: 0;
            stroke-width: 128;
          }
          to {
            stroke: black;
            stroke-width: 1024;
          }
        }
        #make-me-a-hanzi-animation-9 {
          animation: keyframes9 0.8123372395833334s both;
          animation-delay: 7.041666666666666s;
          animation-timing-function: linear;
        }
      
    </style>
    
      <path d="M 251 628 Q 398 670 401 673 Q 408 680 404 689 Q 397 699 367 705 Q 340 709 255 676 Q 159 652 139 649 Q 105 640 130 626 Q 166 611 213 618 L 251 628 Z" fill="lightgray"></path>
    
      <path d="M 144 370 Q 148 377 197 439 L 208 455 Q 229 488 253 527 Q 269 560 285 576 Q 292 585 288 596 Q 279 618 251 628 C 223 640 201 645 213 618 L 214 617 Q 224 596 218 577 Q 197 516 163 457 Q 130 400 84 338 Q 77 329 75 324 Q 72 314 84 317 Q 93 318 132 357 L 144 370 Z" fill="lightgray"></path>
    
      <path d="M 197 439 Q 207 429 237 435 Q 282 447 285 441 Q 291 428 275 375 Q 263 317 210 237 Q 158 150 67 64 Q 48 49 66 52 Q 165 68 287 278 Q 311 324 332 376 Q 351 425 366 441 Q 376 451 371 462 Q 365 472 315 489 Q 303 493 283 481 Q 261 468 208 455 C 179 447 175 447 197 439 Z" fill="lightgray"></path>
    
      <path d="M 132 357 Q 136 350 154 331 Q 193 288 204 287 Q 213 287 217 297 Q 221 307 217 331 Q 211 349 153 369 Q 147 370 144 370 C 123 371 123 371 132 357 Z" fill="lightgray"></path>
    
      <path d="M 500 568 Q 516 598 531 623 Q 538 635 525 646 Q 486 670 465 665 Q 455 662 459 650 Q 478 590 420 509 Q 407 490 400 478 Q 394 465 407 470 Q 446 482 492 553 L 500 568 Z" fill="lightgray"></path>
    
      <path d="M 650 557 Q 782 593 784 594 Q 791 601 787 609 Q 780 619 753 626 Q 725 630 651 601 L 608 588 Q 560 578 507 570 Q 503 570 500 568 C 480 563 480 563 492 553 Q 519 526 590 543 Q 597 546 608 546 L 650 557 Z" fill="lightgray"></path>
    
      <path d="M 648 398 Q 712 408 850 408 Q 868 409 872 417 Q 876 427 861 439 Q 810 475 750 457 Q 707 450 648 437 L 605 429 Q 508 413 395 396 Q 376 395 390 379 Q 403 367 419 362 Q 438 358 452 362 Q 507 378 569 387 L 648 398 Z" fill="lightgray"></path>
    
      <path d="M 648 437 Q 649 494 650 557 L 651 601 Q 652 695 671 760 Q 680 775 677 789 Q 670 799 614 833 Q 590 849 569 834 Q 565 830 570 814 Q 604 763 606 712 Q 606 654 608 588 L 608 546 Q 607 489 605 429 L 602 340 Q 602 186 579 94 Q 561 69 574 32 Q 580 8 591 -18 Q 598 -36 606 -39 Q 613 -46 620 -37 Q 627 -33 638 -12 Q 648 13 647 45 Q 646 85 647 361 L 648 437 Z" fill="lightgray"></path>
    
      <path d="M 569 387 Q 538 272 321 104 Q 305 91 321 90 Q 331 89 369 107 Q 421 129 466 168 Q 551 244 602 340 C 637 404 584 434 569 387 Z" fill="lightgray"></path>
    
      <path d="M 647 361 Q 714 253 803 138 Q 819 119 848 117 Q 945 116 977 119 Q 987 120 988 125 Q 989 129 976 137 Q 826 204 777 259 Q 714 319 647 396 Q 647 397 648 398 L 647 398 C 631 423 631 386 647 361 Z" fill="lightgray"></path>
    
    
      <clipPath id="make-me-a-hanzi-clip-0">
        <path d="M 251 628 Q 398 670 401 673 Q 408 680 404 689 Q 397 699 367 705 Q 340 709 255 676 Q 159 652 139 649 Q 105 640 130 626 Q 166 611 213 618 L 251 628 Z"></path>
      </clipPath>
      <path clip-path="url(#make-me-a-hanzi-clip-0)" d="M 132 638 L 203 639 L 356 683 L 396 681" fill="none" id="make-me-a-hanzi-animation-0" stroke-dasharray="398 796" stroke-linecap="round"></path>
    
      <clipPath id="make-me-a-hanzi-clip-1">
        <path d="M 144 370 Q 148 377 197 439 L 208 455 Q 229 488 253 527 Q 269 560 285 576 Q 292 585 288 596 Q 279 618 251 628 C 223 640 201 645 213 618 L 214 617 Q 224 596 218 577 Q 197 516 163 457 Q 130 400 84 338 Q 77 329 75 324 Q 72 314 84 317 Q 93 318 132 357 L 144 370 Z"></path>
      </clipPath>
      <path clip-path="url(#make-me-a-hanzi-clip-1)" d="M 222 612 L 236 607 L 253 590 L 235 546 L 163 421 L 116 356 L 82 324" fill="none" id="make-me-a-hanzi-animation-1" stroke-dasharray="486 972" stroke-linecap="round"></path>
    
      <clipPath id="make-me-a-hanzi-clip-2">
        <path d="M 197 439 Q 207 429 237 435 Q 282 447 285 441 Q 291 428 275 375 Q 263 317 210 237 Q 158 150 67 64 Q 48 49 66 52 Q 165 68 287 278 Q 311 324 332 376 Q 351 425 366 441 Q 376 451 371 462 Q 365 472 315 489 Q 303 493 283 481 Q 261 468 208 455 C 179 447 175 447 197 439 Z"></path>
      </clipPath>
      <path clip-path="url(#make-me-a-hanzi-clip-2)" d="M 204 440 L 287 462 L 308 460 L 323 446 L 289 335 L 240 240 L 206 189 L 142 114 L 70 58" fill="none" id="make-me-a-hanzi-animation-2" stroke-dasharray="730 1460" stroke-linecap="round"></path>
    
      <clipPath id="make-me-a-hanzi-clip-3">
        <path d="M 132 357 Q 136 350 154 331 Q 193 288 204 287 Q 213 287 217 297 Q 221 307 217 331 Q 211 349 153 369 Q 147 370 144 370 C 123 371 123 371 132 357 Z"></path>
      </clipPath>
      <path clip-path="url(#make-me-a-hanzi-clip-3)" d="M 138 357 L 159 352 L 186 331 L 205 298" fill="none" id="make-me-a-hanzi-animation-3" stroke-dasharray="222 444" stroke-linecap="round"></path>
    
      <clipPath id="make-me-a-hanzi-clip-4">
        <path d="M 500 568 Q 516 598 531 623 Q 538 635 525 646 Q 486 670 465 665 Q 455 662 459 650 Q 478 590 420 509 Q 407 490 400 478 Q 394 465 407 470 Q 446 482 492 553 L 500 568 Z"></path>
      </clipPath>
      <path clip-path="url(#make-me-a-hanzi-clip-4)" d="M 467 655 L 496 626 L 489 602 L 470 555 L 434 502 L 409 479" fill="none" id="make-me-a-hanzi-animation-4" stroke-dasharray="343 686" stroke-linecap="round"></path>
    
      <clipPath id="make-me-a-hanzi-clip-5">
        <path d="M 650 557 Q 782 593 784 594 Q 791 601 787 609 Q 780 619 753 626 Q 725 630 651 601 L 608 588 Q 560 578 507 570 Q 503 570 500 568 C 480 563 480 563 492 553 Q 519 526 590 543 Q 597 546 608 546 L 650 557 Z"></path>
      </clipPath>
      <path clip-path="url(#make-me-a-hanzi-clip-5)" d="M 500 554 L 610 567 L 731 603 L 780 603" fill="none" id="make-me-a-hanzi-animation-5" stroke-dasharray="414 828" stroke-linecap="round"></path>
    
      <clipPath id="make-me-a-hanzi-clip-6">
        <path d="M 648 398 Q 712 408 850 408 Q 868 409 872 417 Q 876 427 861 439 Q 810 475 750 457 Q 707 450 648 437 L 605 429 Q 508 413 395 396 Q 376 395 390 379 Q 403 367 419 362 Q 438 358 452 362 Q 507 378 569 387 L 648 398 Z"></path>
      </clipPath>
      <path clip-path="url(#make-me-a-hanzi-clip-6)" d="M 392 388 L 437 381 L 776 435 L 809 435 L 862 422" fill="none" id="make-me-a-hanzi-animation-6" stroke-dasharray="604 1208" stroke-linecap="round"></path>
    
      <clipPath id="make-me-a-hanzi-clip-7">
        <path d="M 648 437 Q 649 494 650 557 L 651 601 Q 652 695 671 760 Q 680 775 677 789 Q 670 799 614 833 Q 590 849 569 834 Q 565 830 570 814 Q 604 763 606 712 Q 606 654 608 588 L 608 546 Q 607 489 605 429 L 602 340 Q 602 186 579 94 Q 561 69 574 32 Q 580 8 591 -18 Q 598 -36 606 -39 Q 613 -46 620 -37 Q 627 -33 638 -12 Q 648 13 647 45 Q 646 85 647 361 L 648 437 Z"></path>
      </clipPath>
      <path clip-path="url(#make-me-a-hanzi-clip-7)" d="M 581 827 L 610 804 L 634 774 L 625 249 L 608 65 L 611 -25" fill="none" id="make-me-a-hanzi-animation-7" stroke-dasharray="1003 2006" stroke-linecap="round"></path>
    
      <clipPath id="make-me-a-hanzi-clip-8">
        <path d="M 569 387 Q 538 272 321 104 Q 305 91 321 90 Q 331 89 369 107 Q 421 129 466 168 Q 551 244 602 340 C 637 404 584 434 569 387 Z"></path>
      </clipPath>
      <path clip-path="url(#make-me-a-hanzi-clip-8)" d="M 599 386 L 584 370 L 580 347 L 556 305 L 501 234 L 436 171 L 324 97" fill="none" id="make-me-a-hanzi-animation-8" stroke-dasharray="536 1072" stroke-linecap="round"></path>
    
      <clipPath id="make-me-a-hanzi-clip-9">
        <path d="M 647 361 Q 714 253 803 138 Q 819 119 848 117 Q 945 116 977 119 Q 987 120 988 125 Q 989 129 976 137 Q 826 204 777 259 Q 714 319 647 396 Q 647 397 648 398 L 647 398 C 631 423 631 386 647 361 Z"></path>
      </clipPath>
      <path clip-path="url(#make-me-a-hanzi-clip-9)" d="M 652 379 L 660 361 L 763 235 L 838 161 L 981 125" fill="none" id="make-me-a-hanzi-animation-9" stroke-dasharray="563 1126" stroke-linecap="round"></path>
    
  </g>
</svg>