<svg version="1.1" viewBox="0 0 1024 1024" xmlns="http://www.w3.org/2000/svg">
  <g stroke="lightgray" stroke-dasharray="1,1" stroke-width="1" transform="scale(4, 4)">
    <line x1="0" y1="0" x2="256" y2="256"></line>
    <line x1="256" y1="0" x2="0" y2="256"></line>
    <line x1="128" y1="0" x2="128" y2="256"></line>
    <line x1="0" y1="128" x2="256" y2="128"></line>
  </g>
  <g transform="scale(1, -1) translate(0, -900)">
    <style type="text/css">
      
        @keyframes keyframes0 {
          from {
            stroke: blue;
            stroke-dashoffset: 533;
            stroke-width: 128;
          }
          63% {
            animation-timing-function: step-end;
            stroke: blue;
            stroke-dashoffset: 0;
            stroke-width: 128;
          }
          to {
            stroke: black;
            stroke-width: 1024;
          }
        }
        #make-me-a-hanzi-animation-0 {
          animation: keyframes0 0.6837565104166666s both;
          animation-delay: 0s;
          animation-timing-function: linear;
        }
      
        @keyframes keyframes1 {
          from {
            stroke: blue;
            stroke-dashoffset: 643;
            stroke-width: 128;
          }
          68% {
            animation-timing-function: step-end;
            stroke: blue;
            stroke-dashoffset: 0;
            stroke-width: 128;
          }
          to {
            stroke: black;
            stroke-width: 1024;
          }
        }
        #make-me-a-hanzi-animation-1 {
          animation: keyframes1 0.7732747395833334s both;
          animation-delay: 0.6837565104166666s;
          animation-timing-function: linear;
        }
      
        @keyframes keyframes2 {
          from {
            stroke: blue;
            stroke-dashoffset: 885;
            stroke-width: 128;
          }
          74% {
            animation-timing-function: step-end;
            stroke: blue;
            stroke-dashoffset: 0;
            stroke-width: 128;
          }
          to {
            stroke: black;
            stroke-width: 1024;
          }
        }
        #make-me-a-hanzi-animation-2 {
          animation: keyframes2 0.97021484375s both;
          animation-delay: 1.45703125s;
          animation-timing-function: linear;
        }
      
        @keyframes keyframes3 {
          from {
            stroke: blue;
            stroke-dashoffset: 360;
            stroke-width: 128;
          }
          54% {
            animation-timing-function: step-end;
            stroke: blue;
            stroke-dashoffset: 0;
            stroke-width: 128;
          }
          to {
            stroke: black;
            stroke-width: 1024;
          }
        }
        #make-me-a-hanzi-animation-3 {
          animation: keyframes3 0.54296875s both;
          animation-delay: 2.42724609375s;
          animation-timing-function: linear;
        }
      
        @keyframes keyframes4 {
          from {
            stroke: blue;
            stroke-dashoffset: 465;
            stroke-width: 128;
          }
          60% {
            animation-timing-function: step-end;
            stroke: blue;
            stroke-dashoffset: 0;
            stroke-width: 128;
          }
          to {
            stroke: black;
            stroke-width: 1024;
          }
        }
        #make-me-a-hanzi-animation-4 {
          animation: keyframes4 0.62841796875s both;
          animation-delay: 2.97021484375s;
          animation-timing-function: linear;
        }
      
        @keyframes keyframes5 {
          from {
            stroke: blue;
            stroke-dashoffset: 641;
            stroke-width: 128;
          }
          68% {
            animation-timing-function: step-end;
            stroke: blue;
            stroke-dashoffset: 0;
            stroke-width: 128;
          }
          to {
            stroke: black;
            stroke-width: 1024;
          }
        }
        #make-me-a-hanzi-animation-5 {
          animation: keyframes5 0.7716471354166666s both;
          animation-delay: 3.5986328125s;
          animation-timing-function: linear;
        }
      
        @keyframes keyframes6 {
          from {
            stroke: blue;
            stroke-dashoffset: 478;
            stroke-width: 128;
          }
          61% {
            animation-timing-function: step-end;
            stroke: blue;
            stroke-dashoffset: 0;
            stroke-width: 128;
          }
          to {
            stroke: black;
            stroke-width: 1024;
          }
        }
        #make-me-a-hanzi-animation-6 {
          animation: keyframes6 0.6389973958333334s both;
          animation-delay: 4.370279947916667s;
          animation-timing-function: linear;
        }
      
        @keyframes keyframes7 {
          from {
            stroke: blue;
            stroke-dashoffset: 624;
            stroke-width: 128;
          }
          67% {
            animation-timing-function: step-end;
            stroke: blue;
            stroke-dashoffset: 0;
            stroke-width: 128;
          }
          to {
            stroke: black;
            stroke-width: 1024;
          }
        }
        #make-me-a-hanzi-animation-7 {
          animation: keyframes7 0.7578125s both;
          animation-delay: 5.00927734375s;
          animation-timing-function: linear;
        }
      
        @keyframes keyframes8 {
          from {
            stroke: blue;
            stroke-dashoffset: 844;
            stroke-width: 128;
          }
          73% {
            animation-timing-function: step-end;
            stroke: blue;
            stroke-dashoffset: 0;
            stroke-width: 128;
          }
          to {
            stroke: black;
            stroke-width: 1024;
          }
        }
        #make-me-a-hanzi-animation-8 {
          animation: keyframes8 0.9368489583333334s both;
          animation-delay: 5.76708984375s;
          animation-timing-function: linear;
        }
      
        @keyframes keyframes9 {
          from {
            stroke: blue;
            stroke-dashoffset: 859;
            stroke-width: 128;
          }
          74% {
            animation-timing-function: step-end;
            stroke: blue;
            stroke-dashoffset: 0;
            stroke-width: 128;
          }
          to {
            stroke: black;
            stroke-width: 1024;
          }
        }
        #make-me-a-hanzi-animation-9 {
          animation: keyframes9 0.9490559895833334s both;
          animation-delay: 6.703938802083333s;
          animation-timing-function: linear;
        }
      
        @keyframes keyframes10 {
          from {
            stroke: blue;
            stroke-dashoffset: 462;
            stroke-width: 128;
          }
          60% {
            animation-timing-function: step-end;
            stroke: blue;
            stroke-dashoffset: 0;
            stroke-width: 128;
          }
          to {
            stroke: black;
            stroke-width: 1024;
          }
        }
        #make-me-a-hanzi-animation-10 {
          animation: keyframes10 0.6259765625s both;
          animation-delay: 7.652994791666666s;
          animation-timing-function: linear;
        }
      
    </style>
    
      <path d="M 293 663 Q 429 696 436 701 Q 443 708 439 717 Q 432 727 404 734 Q 374 738 345 727 Q 308 714 267 702 Q 221 690 168 684 Q 132 677 159 662 Q 199 638 253 654 L 293 663 Z" fill="lightgray"></path>
    
      <path d="M 184 405 Q 191 417 203 430 Q 222 455 245 487 L 263 515 Q 308 596 324 611 Q 331 620 327 631 Q 318 650 293 663 C 267 678 243 682 253 654 L 254 653 Q 273 611 194 479 Q 157 418 105 349 Q 96 342 95 336 Q 92 326 104 329 Q 120 332 170 388 L 184 405 Z" fill="lightgray"></path>
    
      <path d="M 245 487 Q 258 486 277 489 Q 326 496 329 490 Q 336 477 323 420 Q 314 359 264 272 Q 218 178 128 82 Q 106 63 127 68 Q 235 92 345 317 Q 367 368 387 424 Q 405 478 419 495 Q 431 505 424 517 Q 418 527 363 546 Q 350 550 328 537 Q 307 527 263 515 C 234 507 215 486 245 487 Z" fill="lightgray"></path>
    
      <path d="M 170 388 Q 174 381 189 367 Q 238 313 248 311 Q 257 311 261 321 Q 265 331 262 355 Q 259 371 237 384 Q 192 405 184 405 C 155 410 155 410 170 388 Z" fill="lightgray"></path>
    
      <path d="M 523 756 Q 513 760 490 765 Q 478 768 475 763 Q 469 757 477 742 Q 501 690 516 605 Q 517 580 533 563 Q 549 542 554 557 Q 558 570 558 594 L 554 623 Q 542 702 541 727 C 540 750 540 750 523 756 Z" fill="lightgray"></path>
    
      <path d="M 766 649 Q 797 721 826 736 Q 842 754 829 771 Q 813 784 765 809 Q 747 816 727 810 Q 652 777 523 756 C 493 751 511 725 541 727 Q 554 727 571 732 Q 644 747 713 761 Q 731 765 738 758 Q 745 751 742 734 Q 732 691 718 657 C 707 629 754 622 766 649 Z" fill="lightgray"></path>
    
      <path d="M 558 594 Q 570 588 587 592 Q 647 605 776 617 Q 786 618 788 627 Q 788 634 766 649 L 718 657 Q 714 657 711 656 Q 624 634 554 623 C 524 618 530 604 558 594 Z" fill="lightgray"></path>
    
      <path d="M 526 511 Q 507 526 485 533 Q 478 534 471 527 Q 468 521 475 511 Q 508 441 482 281 Q 466 229 471 207 Q 478 176 490 164 Q 500 151 509 164 Q 534 195 535 304 Q 535 431 544 483 C 546 497 546 497 526 511 Z" fill="lightgray"></path>
    
      <path d="M 743 243 Q 736 221 750 198 Q 765 170 774 170 Q 789 171 804 205 Q 819 232 817 252 Q 790 442 823 496 Q 836 518 799 540 Q 777 555 749 565 Q 733 571 710 562 Q 629 523 526 511 C 496 507 515 477 544 483 Q 548 483 553 484 Q 709 524 729 513 Q 739 494 744 439 Q 751 276 743 243 Z" fill="lightgray"></path>
    
      <path d="M 612 381 Q 619 206 572 130 Q 553 99 516 71 Q 480 43 402 8 Q 389 4 386 1 Q 382 -3 396 -7 Q 468 -13 570 54 Q 588 69 602 86 Q 656 153 663 312 Q 667 384 677 410 Q 681 420 674 428 Q 623 470 588 458 Q 570 451 585 435 Q 612 408 612 381 Z" fill="lightgray"></path>
    
      <path d="M 699 137 Q 747 88 803 17 Q 818 -4 833 -9 Q 840 -10 849 -2 Q 862 11 852 55 Q 843 97 779 129 Q 769 139 702 167 Q 693 173 691 161 Q 690 148 699 137 Z" fill="lightgray"></path>
    
    
      <clipPath id="make-me-a-hanzi-clip-0">
        <path d="M 293 663 Q 429 696 436 701 Q 443 708 439 717 Q 432 727 404 734 Q 374 738 345 727 Q 308 714 267 702 Q 221 690 168 684 Q 132 677 159 662 Q 199 638 253 654 L 293 663 Z"></path>
      </clipPath>
      <path clip-path="url(#make-me-a-hanzi-clip-0)" d="M 160 674 L 185 668 L 223 670 L 301 686 L 371 709 L 431 709" fill="none" id="make-me-a-hanzi-animation-0" stroke-dasharray="405 810" stroke-linecap="round"></path>
    
      <clipPath id="make-me-a-hanzi-clip-1">
        <path d="M 184 405 Q 191 417 203 430 Q 222 455 245 487 L 263 515 Q 308 596 324 611 Q 331 620 327 631 Q 318 650 293 663 C 267 678 243 682 253 654 L 254 653 Q 273 611 194 479 Q 157 418 105 349 Q 96 342 95 336 Q 92 326 104 329 Q 120 332 170 388 L 184 405 Z"></path>
      </clipPath>
      <path clip-path="url(#make-me-a-hanzi-clip-1)" d="M 261 651 L 291 623 L 260 554 L 176 419 L 128 358 L 102 336" fill="none" id="make-me-a-hanzi-animation-1" stroke-dasharray="515 1030" stroke-linecap="round"></path>
    
      <clipPath id="make-me-a-hanzi-clip-2">
        <path d="M 245 487 Q 258 486 277 489 Q 326 496 329 490 Q 336 477 323 420 Q 314 359 264 272 Q 218 178 128 82 Q 106 63 127 68 Q 235 92 345 317 Q 367 368 387 424 Q 405 478 419 495 Q 431 505 424 517 Q 418 527 363 546 Q 350 550 328 537 Q 307 527 263 515 C 234 507 215 486 245 487 Z"></path>
      </clipPath>
      <path clip-path="url(#make-me-a-hanzi-clip-2)" d="M 250 491 L 275 505 L 332 514 L 356 512 L 371 498 L 340 372 L 298 278 L 220 156 L 166 100 L 131 75" fill="none" id="make-me-a-hanzi-animation-2" stroke-dasharray="757 1514" stroke-linecap="round"></path>
    
      <clipPath id="make-me-a-hanzi-clip-3">
        <path d="M 170 388 Q 174 381 189 367 Q 238 313 248 311 Q 257 311 261 321 Q 265 331 262 355 Q 259 371 237 384 Q 192 405 184 405 C 155 410 155 410 170 388 Z"></path>
      </clipPath>
      <path clip-path="url(#make-me-a-hanzi-clip-3)" d="M 179 388 L 191 388 L 229 360 L 249 320" fill="none" id="make-me-a-hanzi-animation-3" stroke-dasharray="232 464" stroke-linecap="round"></path>
    
      <clipPath id="make-me-a-hanzi-clip-4">
        <path d="M 523 756 Q 513 760 490 765 Q 478 768 475 763 Q 469 757 477 742 Q 501 690 516 605 Q 517 580 533 563 Q 549 542 554 557 Q 558 570 558 594 L 554 623 Q 542 702 541 727 C 540 750 540 750 523 756 Z"></path>
      </clipPath>
      <path clip-path="url(#make-me-a-hanzi-clip-4)" d="M 484 756 L 504 739 L 517 711 L 544 562" fill="none" id="make-me-a-hanzi-animation-4" stroke-dasharray="337 674" stroke-linecap="round"></path>
    
      <clipPath id="make-me-a-hanzi-clip-5">
        <path d="M 766 649 Q 797 721 826 736 Q 842 754 829 771 Q 813 784 765 809 Q 747 816 727 810 Q 652 777 523 756 C 493 751 511 725 541 727 Q 554 727 571 732 Q 644 747 713 761 Q 731 765 738 758 Q 745 751 742 734 Q 732 691 718 657 C 707 629 754 622 766 649 Z"></path>
      </clipPath>
      <path clip-path="url(#make-me-a-hanzi-clip-5)" d="M 532 755 L 541 747 L 560 745 L 731 786 L 752 783 L 783 753 L 751 676 L 725 661" fill="none" id="make-me-a-hanzi-animation-5" stroke-dasharray="513 1026" stroke-linecap="round"></path>
    
      <clipPath id="make-me-a-hanzi-clip-6">
        <path d="M 558 594 Q 570 588 587 592 Q 647 605 776 617 Q 786 618 788 627 Q 788 634 766 649 L 718 657 Q 714 657 711 656 Q 624 634 554 623 C 524 618 530 604 558 594 Z"></path>
      </clipPath>
      <path clip-path="url(#make-me-a-hanzi-clip-6)" d="M 562 617 L 574 608 L 718 634 L 778 627" fill="none" id="make-me-a-hanzi-animation-6" stroke-dasharray="350 700" stroke-linecap="round"></path>
    
      <clipPath id="make-me-a-hanzi-clip-7">
        <path d="M 526 511 Q 507 526 485 533 Q 478 534 471 527 Q 468 521 475 511 Q 508 441 482 281 Q 466 229 471 207 Q 478 176 490 164 Q 500 151 509 164 Q 534 195 535 304 Q 535 431 544 483 C 546 497 546 497 526 511 Z"></path>
      </clipPath>
      <path clip-path="url(#make-me-a-hanzi-clip-7)" d="M 481 523 L 506 497 L 516 461 L 511 293 L 498 205 L 500 168" fill="none" id="make-me-a-hanzi-animation-7" stroke-dasharray="496 992" stroke-linecap="round"></path>
    
      <clipPath id="make-me-a-hanzi-clip-8">
        <path d="M 743 243 Q 736 221 750 198 Q 765 170 774 170 Q 789 171 804 205 Q 819 232 817 252 Q 790 442 823 496 Q 836 518 799 540 Q 777 555 749 565 Q 733 571 710 562 Q 629 523 526 511 C 496 507 515 477 544 483 Q 548 483 553 484 Q 709 524 729 513 Q 739 494 744 439 Q 751 276 743 243 Z"></path>
      </clipPath>
      <path clip-path="url(#make-me-a-hanzi-clip-8)" d="M 535 510 L 543 502 L 563 499 L 725 540 L 746 536 L 765 520 L 778 501 L 774 404 L 781 247 L 775 181" fill="none" id="make-me-a-hanzi-animation-8" stroke-dasharray="716 1432" stroke-linecap="round"></path>
    
      <clipPath id="make-me-a-hanzi-clip-9">
        <path d="M 612 381 Q 619 206 572 130 Q 553 99 516 71 Q 480 43 402 8 Q 389 4 386 1 Q 382 -3 396 -7 Q 468 -13 570 54 Q 588 69 602 86 Q 656 153 663 312 Q 667 384 677 410 Q 681 420 674 428 Q 623 470 588 458 Q 570 451 585 435 Q 612 408 612 381 Z"></path>
      </clipPath>
      <path clip-path="url(#make-me-a-hanzi-clip-9)" d="M 590 446 L 615 437 L 642 404 L 631 229 L 608 144 L 579 96 L 534 57 L 477 24 L 392 -2" fill="none" id="make-me-a-hanzi-animation-9" stroke-dasharray="731 1462" stroke-linecap="round"></path>
    
      <clipPath id="make-me-a-hanzi-clip-10">
        <path d="M 699 137 Q 747 88 803 17 Q 818 -4 833 -9 Q 840 -10 849 -2 Q 862 11 852 55 Q 843 97 779 129 Q 769 139 702 167 Q 693 173 691 161 Q 690 148 699 137 Z"></path>
      </clipPath>
      <path clip-path="url(#make-me-a-hanzi-clip-10)" d="M 701 156 L 805 70 L 825 40 L 834 6" fill="none" id="make-me-a-hanzi-animation-10" stroke-dasharray="334 668" stroke-linecap="round"></path>
    
  </g>
</svg>