<svg version="1.1" viewBox="0 0 1024 1024" xmlns="http://www.w3.org/2000/svg">
  <g stroke="lightgray" stroke-dasharray="1,1" stroke-width="1" transform="scale(4, 4)">
    <line x1="0" y1="0" x2="256" y2="256"></line>
    <line x1="256" y1="0" x2="0" y2="256"></line>
    <line x1="128" y1="0" x2="128" y2="256"></line>
    <line x1="0" y1="128" x2="256" y2="128"></line>
  </g>
  <g transform="scale(1, -1) translate(0, -900)">
    <style type="text/css">
      
        @keyframes keyframes0 {
          from {
            stroke: blue;
            stroke-dashoffset: 581;
            stroke-width: 128;
          }
          65% {
            animation-timing-function: step-end;
            stroke: blue;
            stroke-dashoffset: 0;
            stroke-width: 128;
          }
          to {
            stroke: black;
            stroke-width: 1024;
          }
        }
        #make-me-a-hanzi-animation-0 {
          animation: keyframes0 0.7228190104166666s both;
          animation-delay: 0s;
          animation-timing-function: linear;
        }
      
        @keyframes keyframes1 {
          from {
            stroke: blue;
            stroke-dashoffset: 582;
            stroke-width: 128;
          }
          65% {
            animation-timing-function: step-end;
            stroke: blue;
            stroke-dashoffset: 0;
            stroke-width: 128;
          }
          to {
            stroke: black;
            stroke-width: 1024;
          }
        }
        #make-me-a-hanzi-animation-1 {
          animation: keyframes1 0.7236328125s both;
          animation-delay: 0.7228190104166666s;
          animation-timing-function: linear;
        }
      
        @keyframes keyframes2 {
          from {
            stroke: blue;
            stroke-dashoffset: 499;
            stroke-width: 128;
          }
          62% {
            animation-timing-function: step-end;
            stroke: blue;
            stroke-dashoffset: 0;
            stroke-width: 128;
          }
          to {
            stroke: black;
            stroke-width: 1024;
          }
        }
        #make-me-a-hanzi-animation-2 {
          animation: keyframes2 0.6560872395833334s both;
          animation-delay: 1.4464518229166665s;
          animation-timing-function: linear;
        }
      
        @keyframes keyframes3 {
          from {
            stroke: blue;
            stroke-dashoffset: 1531;
            stroke-width: 128;
          }
          83% {
            animation-timing-function: step-end;
            stroke: blue;
            stroke-dashoffset: 0;
            stroke-width: 128;
          }
          to {
            stroke: black;
            stroke-width: 1024;
          }
        }
        #make-me-a-hanzi-animation-3 {
          animation: keyframes3 1.4959309895833333s both;
          animation-delay: 2.1025390625s;
          animation-timing-function: linear;
        }
      
        @keyframes keyframes4 {
          from {
            stroke: blue;
            stroke-dashoffset: 566;
            stroke-width: 128;
          }
          65% {
            animation-timing-function: step-end;
            stroke: blue;
            stroke-dashoffset: 0;
            stroke-width: 128;
          }
          to {
            stroke: black;
            stroke-width: 1024;
          }
        }
        #make-me-a-hanzi-animation-4 {
          animation: keyframes4 0.7106119791666666s both;
          animation-delay: 3.598470052083333s;
          animation-timing-function: linear;
        }
      
        @keyframes keyframes5 {
          from {
            stroke: blue;
            stroke-dashoffset: 528;
            stroke-width: 128;
          }
          63% {
            animation-timing-function: step-end;
            stroke: blue;
            stroke-dashoffset: 0;
            stroke-width: 128;
          }
          to {
            stroke: black;
            stroke-width: 1024;
          }
        }
        #make-me-a-hanzi-animation-5 {
          animation: keyframes5 0.6796875s both;
          animation-delay: 4.30908203125s;
          animation-timing-function: linear;
        }
      
        @keyframes keyframes6 {
          from {
            stroke: blue;
            stroke-dashoffset: 836;
            stroke-width: 128;
          }
          73% {
            animation-timing-function: step-end;
            stroke: blue;
            stroke-dashoffset: 0;
            stroke-width: 128;
          }
          to {
            stroke: black;
            stroke-width: 1024;
          }
        }
        #make-me-a-hanzi-animation-6 {
          animation: keyframes6 0.9303385416666666s both;
          animation-delay: 4.98876953125s;
          animation-timing-function: linear;
        }
      
        @keyframes keyframes7 {
          from {
            stroke: blue;
            stroke-dashoffset: 535;
            stroke-width: 128;
          }
          64% {
            animation-timing-function: step-end;
            stroke: blue;
            stroke-dashoffset: 0;
            stroke-width: 128;
          }
          to {
            stroke: black;
            stroke-width: 1024;
          }
        }
        #make-me-a-hanzi-animation-7 {
          animation: keyframes7 0.6853841145833334s both;
          animation-delay: 5.919108072916667s;
          animation-timing-function: linear;
        }
      
    </style>
    
      <path d="M 388 740 Q 407 765 425 786 Q 437 799 423 815 Q 380 854 353 852 Q 341 851 343 835 Q 349 745 242 636 Q 241 636 198 593 Q 188 577 205 581 Q 221 582 247 598 Q 323 647 370 714 Q 371 717 373 719 L 388 740 Z" fill="lightgray"></path>
    
      <path d="M 373 719 Q 418 695 469 707 Q 697 750 711 761 Q 720 768 715 776 Q 708 788 680 795 Q 656 801 531 764 Q 438 746 388 740 C 358 736 346 732 373 719 Z" fill="lightgray"></path>
    
      <path d="M 387 636 Q 356 630 378 616 Q 405 601 479 612 Q 534 624 593 636 Q 623 643 627 648 Q 634 655 631 662 Q 624 672 599 678 Q 583 681 506 659 Q 395 638 387 636 Z" fill="lightgray"></path>
    
      <path d="M 962 -19 Q 950 48 943 163 Q 944 176 936 181 Q 930 185 927 171 Q 900 77 890 66 Q 886 59 864 67 Q 773 104 744 286 Q 731 365 744 469 Q 745 505 770 535 Q 786 548 775 560 Q 763 578 730 603 Q 709 616 653 593 Q 485 553 255 515 Q 242 515 239 507 Q 236 501 247 496 Q 280 477 314 489 Q 464 528 655 551 Q 673 552 682 546 Q 688 540 683 432 Q 683 159 787 44 Q 853 -28 932 -47 Q 950 -54 958 -43 Q 965 -36 962 -19 Z" fill="lightgray"></path>
    
      <path d="M 305 434 Q 309 383 213 296 Q 186 274 122 230 Q 115 226 123 223 Q 162 217 261 288 Q 262 291 266 292 Q 300 319 353 375 Q 371 393 372 398 Q 372 405 363 417 Q 341 447 313 446 Q 306 445 305 434 Z" fill="lightgray"></path>
    
      <path d="M 436 463 Q 451 457 495 394 Q 555 310 592 314 Q 593 315 598 315 Q 661 330 664 331 Q 668 335 662 340 Q 655 346 590 375 Q 527 406 472 468 Q 465 478 450 480 Q 440 481 432 476 Q 428 470 436 463 Z" fill="lightgray"></path>
    
      <path d="M 372 249 Q 427 265 474 273 Q 489 274 492 271 Q 499 259 496 230 Q 489 146 470 110 Q 455 82 431 86 Q 413 90 398 96 Q 376 105 391 82 Q 422 45 437 16 Q 453 -2 468 12 Q 522 48 545 182 Q 551 245 569 271 Q 579 283 574 292 Q 567 302 520 321 Q 501 328 485 317 Q 469 307 403 289 Q 337 271 282 265 Q 266 264 264 256 Q 263 249 284 240 Q 305 227 322 234 Q 331 238 343 240 L 372 249 Z" fill="lightgray"></path>
    
      <path d="M 343 240 Q 342 240 343 239 Q 349 182 214 50 Q 199 41 197 31 Q 197 27 201 27 Q 256 27 362 154 Q 386 185 395 195 Q 402 202 396 215 Q 387 236 372 249 C 351 270 342 270 343 240 Z" fill="lightgray"></path>
    
    
      <clipPath id="make-me-a-hanzi-clip-0">
        <path d="M 388 740 Q 407 765 425 786 Q 437 799 423 815 Q 380 854 353 852 Q 341 851 343 835 Q 349 745 242 636 Q 241 636 198 593 Q 188 577 205 581 Q 221 582 247 598 Q 323 647 370 714 Q 371 717 373 719 L 388 740 Z"></path>
      </clipPath>
      <path clip-path="url(#make-me-a-hanzi-clip-0)" d="M 354 840 L 381 795 L 344 724 L 301 667 L 245 615 L 212 598 L 209 591" fill="none" id="make-me-a-hanzi-animation-0" stroke-dasharray="453 906" stroke-linecap="round"></path>
    
      <clipPath id="make-me-a-hanzi-clip-1">
        <path d="M 373 719 Q 418 695 469 707 Q 697 750 711 761 Q 720 768 715 776 Q 708 788 680 795 Q 656 801 531 764 Q 438 746 388 740 C 358 736 346 732 373 719 Z"></path>
      </clipPath>
      <path clip-path="url(#make-me-a-hanzi-clip-1)" d="M 382 721 L 506 735 L 664 772 L 703 771" fill="none" id="make-me-a-hanzi-animation-1" stroke-dasharray="454 908" stroke-linecap="round"></path>
    
      <clipPath id="make-me-a-hanzi-clip-2">
        <path d="M 387 636 Q 356 630 378 616 Q 405 601 479 612 Q 534 624 593 636 Q 623 643 627 648 Q 634 655 631 662 Q 624 672 599 678 Q 583 681 506 659 Q 395 638 387 636 Z"></path>
      </clipPath>
      <path clip-path="url(#make-me-a-hanzi-clip-2)" d="M 380 627 L 466 630 L 564 653 L 620 657" fill="none" id="make-me-a-hanzi-animation-2" stroke-dasharray="371 742" stroke-linecap="round"></path>
    
      <clipPath id="make-me-a-hanzi-clip-3">
        <path d="M 962 -19 Q 950 48 943 163 Q 944 176 936 181 Q 930 185 927 171 Q 900 77 890 66 Q 886 59 864 67 Q 773 104 744 286 Q 731 365 744 469 Q 745 505 770 535 Q 786 548 775 560 Q 763 578 730 603 Q 709 616 653 593 Q 485 553 255 515 Q 242 515 239 507 Q 236 501 247 496 Q 280 477 314 489 Q 464 528 655 551 Q 673 552 682 546 Q 688 540 683 432 Q 683 159 787 44 Q 853 -28 932 -47 Q 950 -54 958 -43 Q 965 -36 962 -19 Z"></path>
      </clipPath>
      <path clip-path="url(#make-me-a-hanzi-clip-3)" d="M 247 505 L 292 502 L 671 576 L 704 573 L 714 568 L 726 546 L 711 444 L 714 308 L 736 198 L 772 113 L 791 84 L 827 49 L 878 21 L 906 18 L 923 65 L 934 174" fill="none" id="make-me-a-hanzi-animation-3" stroke-dasharray="1403 2806" stroke-linecap="round"></path>
    
      <clipPath id="make-me-a-hanzi-clip-4">
        <path d="M 305 434 Q 309 383 213 296 Q 186 274 122 230 Q 115 226 123 223 Q 162 217 261 288 Q 262 291 266 292 Q 300 319 353 375 Q 371 393 372 398 Q 372 405 363 417 Q 341 447 313 446 Q 306 445 305 434 Z"></path>
      </clipPath>
      <path clip-path="url(#make-me-a-hanzi-clip-4)" d="M 319 434 L 334 403 L 285 337 L 224 281 L 127 227" fill="none" id="make-me-a-hanzi-animation-4" stroke-dasharray="438 876" stroke-linecap="round"></path>
    
      <clipPath id="make-me-a-hanzi-clip-5">
        <path d="M 436 463 Q 451 457 495 394 Q 555 310 592 314 Q 593 315 598 315 Q 661 330 664 331 Q 668 335 662 340 Q 655 346 590 375 Q 527 406 472 468 Q 465 478 450 480 Q 440 481 432 476 Q 428 470 436 463 Z"></path>
      </clipPath>
      <path clip-path="url(#make-me-a-hanzi-clip-5)" d="M 439 471 L 459 463 L 517 395 L 580 346 L 661 335" fill="none" id="make-me-a-hanzi-animation-5" stroke-dasharray="400 800" stroke-linecap="round"></path>
    
      <clipPath id="make-me-a-hanzi-clip-6">
        <path d="M 372 249 Q 427 265 474 273 Q 489 274 492 271 Q 499 259 496 230 Q 489 146 470 110 Q 455 82 431 86 Q 413 90 398 96 Q 376 105 391 82 Q 422 45 437 16 Q 453 -2 468 12 Q 522 48 545 182 Q 551 245 569 271 Q 579 283 574 292 Q 567 302 520 321 Q 501 328 485 317 Q 469 307 403 289 Q 337 271 282 265 Q 266 264 264 256 Q 263 249 284 240 Q 305 227 322 234 Q 331 238 343 240 L 372 249 Z"></path>
      </clipPath>
      <path clip-path="url(#make-me-a-hanzi-clip-6)" d="M 271 255 L 313 250 L 502 296 L 519 289 L 529 277 L 514 156 L 485 79 L 458 52 L 400 86" fill="none" id="make-me-a-hanzi-animation-6" stroke-dasharray="708 1416" stroke-linecap="round"></path>
    
      <clipPath id="make-me-a-hanzi-clip-7">
        <path d="M 343 240 Q 342 240 343 239 Q 349 182 214 50 Q 199 41 197 31 Q 197 27 201 27 Q 256 27 362 154 Q 386 185 395 195 Q 402 202 396 215 Q 387 236 372 249 C 351 270 342 270 343 240 Z"></path>
      </clipPath>
      <path clip-path="url(#make-me-a-hanzi-clip-7)" d="M 351 240 L 368 208 L 339 158 L 259 71 L 204 34" fill="none" id="make-me-a-hanzi-animation-7" stroke-dasharray="407 814" stroke-linecap="round"></path>
    
  </g>
</svg>