<svg version="1.1" viewBox="0 0 1024 1024" xmlns="http://www.w3.org/2000/svg">
  <g stroke="lightgray" stroke-dasharray="1,1" stroke-width="1" transform="scale(4, 4)">
    <line x1="0" y1="0" x2="256" y2="256"></line>
    <line x1="256" y1="0" x2="0" y2="256"></line>
    <line x1="128" y1="0" x2="128" y2="256"></line>
    <line x1="0" y1="128" x2="256" y2="128"></line>
  </g>
  <g transform="scale(1, -1) translate(0, -900)">
    <style type="text/css">
      
        @keyframes keyframes0 {
          from {
            stroke: blue;
            stroke-dashoffset: 394;
            stroke-width: 128;
          }
          56% {
            animation-timing-function: step-end;
            stroke: blue;
            stroke-dashoffset: 0;
            stroke-width: 128;
          }
          to {
            stroke: black;
            stroke-width: 1024;
          }
        }
        #make-me-a-hanzi-animation-0 {
          animation: keyframes0 0.5706380208333334s both;
          animation-delay: 0s;
          animation-timing-function: linear;
        }
      
        @keyframes keyframes1 {
          from {
            stroke: blue;
            stroke-dashoffset: 383;
            stroke-width: 128;
          }
          55% {
            animation-timing-function: step-end;
            stroke: blue;
            stroke-dashoffset: 0;
            stroke-width: 128;
          }
          to {
            stroke: black;
            stroke-width: 1024;
          }
        }
        #make-me-a-hanzi-animation-1 {
          animation: keyframes1 0.5616861979166666s both;
          animation-delay: 0.5706380208333334s;
          animation-timing-function: linear;
        }
      
        @keyframes keyframes2 {
          from {
            stroke: blue;
            stroke-dashoffset: 647;
            stroke-width: 128;
          }
          68% {
            animation-timing-function: step-end;
            stroke: blue;
            stroke-dashoffset: 0;
            stroke-width: 128;
          }
          to {
            stroke: black;
            stroke-width: 1024;
          }
        }
        #make-me-a-hanzi-animation-2 {
          animation: keyframes2 0.7765299479166666s both;
          animation-delay: 1.13232421875s;
          animation-timing-function: linear;
        }
      
        @keyframes keyframes3 {
          from {
            stroke: blue;
            stroke-dashoffset: 607;
            stroke-width: 128;
          }
          66% {
            animation-timing-function: step-end;
            stroke: blue;
            stroke-dashoffset: 0;
            stroke-width: 128;
          }
          to {
            stroke: black;
            stroke-width: 1024;
          }
        }
        #make-me-a-hanzi-animation-3 {
          animation: keyframes3 0.7439778645833334s both;
          animation-delay: 1.9088541666666665s;
          animation-timing-function: linear;
        }
      
        @keyframes keyframes4 {
          from {
            stroke: blue;
            stroke-dashoffset: 548;
            stroke-width: 128;
          }
          64% {
            animation-timing-function: step-end;
            stroke: blue;
            stroke-dashoffset: 0;
            stroke-width: 128;
          }
          to {
            stroke: black;
            stroke-width: 1024;
          }
        }
        #make-me-a-hanzi-animation-4 {
          animation: keyframes4 0.6959635416666666s both;
          animation-delay: 2.65283203125s;
          animation-timing-function: linear;
        }
      
        @keyframes keyframes5 {
          from {
            stroke: blue;
            stroke-dashoffset: 508;
            stroke-width: 128;
          }
          62% {
            animation-timing-function: step-end;
            stroke: blue;
            stroke-dashoffset: 0;
            stroke-width: 128;
          }
          to {
            stroke: black;
            stroke-width: 1024;
          }
        }
        #make-me-a-hanzi-animation-5 {
          animation: keyframes5 0.6634114583333334s both;
          animation-delay: 3.3487955729166665s;
          animation-timing-function: linear;
        }
      
        @keyframes keyframes6 {
          from {
            stroke: blue;
            stroke-dashoffset: 1364;
            stroke-width: 128;
          }
          82% {
            animation-timing-function: step-end;
            stroke: blue;
            stroke-dashoffset: 0;
            stroke-width: 128;
          }
          to {
            stroke: black;
            stroke-width: 1024;
          }
        }
        #make-me-a-hanzi-animation-6 {
          animation: keyframes6 1.3600260416666667s both;
          animation-delay: 4.01220703125s;
          animation-timing-function: linear;
        }
      
    </style>
    
      <path d="M 223 699 Q 248 678 275 653 Q 291 640 308 641 Q 320 642 325 656 Q 329 672 318 705 Q 306 735 216 751 Q 198 755 192 751 Q 186 747 189 733 Q 193 720 223 699 Z" fill="lightgray"></path>
    
      <path d="M 133 497 Q 185 446 223 432 Q 239 431 247 444 Q 251 457 248 475 Q 241 499 221 510 Q 173 538 129 539 Q 122 539 117 536 Q 110 535 114 522 Q 117 510 133 497 Z" fill="lightgray"></path>
    
      <path d="M 142 130 Q 129 126 133 107 Q 155 28 189 14 Q 196 7 207 10 Q 216 13 215 39 Q 218 84 307 363 Q 313 379 312 386 Q 311 396 301 389 Q 285 376 182 177 Q 169 155 142 130 Z" fill="lightgray"></path>
    
      <path d="M 488 706 Q 516 752 541 790 Q 551 803 536 818 Q 488 851 465 847 Q 455 844 457 830 Q 470 731 367 608 Q 355 602 317 552 Q 310 536 324 542 Q 343 545 368 565 Q 435 620 476 685 L 488 706 Z" fill="lightgray"></path>
    
      <path d="M 476 685 Q 521 660 579 675 Q 768 720 776 727 Q 785 736 780 744 Q 773 756 742 762 Q 711 766 681 754 Q 641 738 596 726 Q 547 713 488 706 C 458 702 449 699 476 685 Z" fill="lightgray"></path>
    
      <path d="M 450 561 Q 416 552 442 538 Q 487 519 537 535 Q 598 553 664 571 Q 692 580 697 585 Q 704 592 700 601 Q 693 611 663 616 Q 635 620 606 606 Q 573 593 537 580 Q 497 568 450 561 Z" fill="lightgray"></path>
    
      <path d="M 370 410 Q 355 409 362 393 Q 366 381 391 373 Q 416 364 439 372 Q 658 447 665 444 Q 674 438 669 419 Q 584 -20 937 -22 Q 958 -21 971 -15 Q 990 -8 982 19 Q 966 77 961 143 Q 960 176 953 184 Q 946 191 939 175 Q 909 76 887 56 Q 866 44 842 54 Q 799 64 762 97 Q 707 146 703 269 Q 700 378 759 444 Q 775 456 767 466 Q 758 481 702 502 Q 686 509 671 497 Q 625 469 509 437 Q 433 415 370 410 Z" fill="lightgray"></path>
    
    
      <clipPath id="make-me-a-hanzi-clip-0">
        <path d="M 223 699 Q 248 678 275 653 Q 291 640 308 641 Q 320 642 325 656 Q 329 672 318 705 Q 306 735 216 751 Q 198 755 192 751 Q 186 747 189 733 Q 193 720 223 699 Z"></path>
      </clipPath>
      <path clip-path="url(#make-me-a-hanzi-clip-0)" d="M 199 743 L 285 692 L 306 660" fill="none" id="make-me-a-hanzi-animation-0" stroke-dasharray="266 532" stroke-linecap="round"></path>
    
      <clipPath id="make-me-a-hanzi-clip-1">
        <path d="M 133 497 Q 185 446 223 432 Q 239 431 247 444 Q 251 457 248 475 Q 241 499 221 510 Q 173 538 129 539 Q 122 539 117 536 Q 110 535 114 522 Q 117 510 133 497 Z"></path>
      </clipPath>
      <path clip-path="url(#make-me-a-hanzi-clip-1)" d="M 126 527 L 207 479 L 228 454" fill="none" id="make-me-a-hanzi-animation-1" stroke-dasharray="255 510" stroke-linecap="round"></path>
    
      <clipPath id="make-me-a-hanzi-clip-2">
        <path d="M 142 130 Q 129 126 133 107 Q 155 28 189 14 Q 196 7 207 10 Q 216 13 215 39 Q 218 84 307 363 Q 313 379 312 386 Q 311 396 301 389 Q 285 376 182 177 Q 169 155 142 130 Z"></path>
      </clipPath>
      <path clip-path="url(#make-me-a-hanzi-clip-2)" d="M 201 21 L 186 58 L 182 105 L 305 383" fill="none" id="make-me-a-hanzi-animation-2" stroke-dasharray="519 1038" stroke-linecap="round"></path>
    
      <clipPath id="make-me-a-hanzi-clip-3">
        <path d="M 488 706 Q 516 752 541 790 Q 551 803 536 818 Q 488 851 465 847 Q 455 844 457 830 Q 470 731 367 608 Q 355 602 317 552 Q 310 536 324 542 Q 343 545 368 565 Q 435 620 476 685 L 488 706 Z"></path>
      </clipPath>
      <path clip-path="url(#make-me-a-hanzi-clip-3)" d="M 469 835 L 497 794 L 453 692 L 396 613 L 327 551" fill="none" id="make-me-a-hanzi-animation-3" stroke-dasharray="479 958" stroke-linecap="round"></path>
    
      <clipPath id="make-me-a-hanzi-clip-4">
        <path d="M 476 685 Q 521 660 579 675 Q 768 720 776 727 Q 785 736 780 744 Q 773 756 742 762 Q 711 766 681 754 Q 641 738 596 726 Q 547 713 488 706 C 458 702 449 699 476 685 Z"></path>
      </clipPath>
      <path clip-path="url(#make-me-a-hanzi-clip-4)" d="M 485 687 L 498 693 L 526 690 L 588 698 L 709 735 L 769 738" fill="none" id="make-me-a-hanzi-animation-4" stroke-dasharray="420 840" stroke-linecap="round"></path>
    
      <clipPath id="make-me-a-hanzi-clip-5">
        <path d="M 450 561 Q 416 552 442 538 Q 487 519 537 535 Q 598 553 664 571 Q 692 580 697 585 Q 704 592 700 601 Q 693 611 663 616 Q 635 620 606 606 Q 573 593 537 580 Q 497 568 450 561 Z"></path>
      </clipPath>
      <path clip-path="url(#make-me-a-hanzi-clip-5)" d="M 443 550 L 507 550 L 644 592 L 689 595" fill="none" id="make-me-a-hanzi-animation-5" stroke-dasharray="380 760" stroke-linecap="round"></path>
    
      <clipPath id="make-me-a-hanzi-clip-6">
        <path d="M 370 410 Q 355 409 362 393 Q 366 381 391 373 Q 416 364 439 372 Q 658 447 665 444 Q 674 438 669 419 Q 584 -20 937 -22 Q 958 -21 971 -15 Q 990 -8 982 19 Q 966 77 961 143 Q 960 176 953 184 Q 946 191 939 175 Q 909 76 887 56 Q 866 44 842 54 Q 799 64 762 97 Q 707 146 703 269 Q 700 378 759 444 Q 775 456 767 466 Q 758 481 702 502 Q 686 509 671 497 Q 625 469 509 437 Q 433 415 370 410 Z"></path>
      </clipPath>
      <path clip-path="url(#make-me-a-hanzi-clip-6)" d="M 369 400 L 403 392 L 447 396 L 668 468 L 699 463 L 711 452 L 688 376 L 677 284 L 688 172 L 704 129 L 734 83 L 798 36 L 855 17 L 925 26 L 934 54 L 948 177" fill="none" id="make-me-a-hanzi-animation-6" stroke-dasharray="1236 2472" stroke-linecap="round"></path>
    
  </g>
</svg>