<svg version="1.1" viewBox="0 0 1024 1024" xmlns="http://www.w3.org/2000/svg">
  <g stroke="lightgray" stroke-dasharray="1,1" stroke-width="1" transform="scale(4, 4)">
    <line x1="0" y1="0" x2="256" y2="256"></line>
    <line x1="256" y1="0" x2="0" y2="256"></line>
    <line x1="128" y1="0" x2="128" y2="256"></line>
    <line x1="0" y1="128" x2="256" y2="128"></line>
  </g>
  <g transform="scale(1, -1) translate(0, -900)">
    <style type="text/css">
      
        @keyframes keyframes0 {
          from {
            stroke: blue;
            stroke-dashoffset: 411;
            stroke-width: 128;
          }
          57% {
            animation-timing-function: step-end;
            stroke: blue;
            stroke-dashoffset: 0;
            stroke-width: 128;
          }
          to {
            stroke: black;
            stroke-width: 1024;
          }
        }
        #make-me-a-hanzi-animation-0 {
          animation: keyframes0 0.58447265625s both;
          animation-delay: 0s;
          animation-timing-function: linear;
        }
      
        @keyframes keyframes1 {
          from {
            stroke: blue;
            stroke-dashoffset: 389;
            stroke-width: 128;
          }
          56% {
            animation-timing-function: step-end;
            stroke: blue;
            stroke-dashoffset: 0;
            stroke-width: 128;
          }
          to {
            stroke: black;
            stroke-width: 1024;
          }
        }
        #make-me-a-hanzi-animation-1 {
          animation: keyframes1 0.5665690104166666s both;
          animation-delay: 0.58447265625s;
          animation-timing-function: linear;
        }
      
        @keyframes keyframes2 {
          from {
            stroke: blue;
            stroke-dashoffset: 658;
            stroke-width: 128;
          }
          68% {
            animation-timing-function: step-end;
            stroke: blue;
            stroke-dashoffset: 0;
            stroke-width: 128;
          }
          to {
            stroke: black;
            stroke-width: 1024;
          }
        }
        #make-me-a-hanzi-animation-2 {
          animation: keyframes2 0.7854817708333334s both;
          animation-delay: 1.1510416666666665s;
          animation-timing-function: linear;
        }
      
        @keyframes keyframes3 {
          from {
            stroke: blue;
            stroke-dashoffset: 627;
            stroke-width: 128;
          }
          67% {
            animation-timing-function: step-end;
            stroke: blue;
            stroke-dashoffset: 0;
            stroke-width: 128;
          }
          to {
            stroke: black;
            stroke-width: 1024;
          }
        }
        #make-me-a-hanzi-animation-3 {
          animation: keyframes3 0.76025390625s both;
          animation-delay: 1.9365234375s;
          animation-timing-function: linear;
        }
      
        @keyframes keyframes4 {
          from {
            stroke: blue;
            stroke-dashoffset: 623;
            stroke-width: 128;
          }
          67% {
            animation-timing-function: step-end;
            stroke: blue;
            stroke-dashoffset: 0;
            stroke-width: 128;
          }
          to {
            stroke: black;
            stroke-width: 1024;
          }
        }
        #make-me-a-hanzi-animation-4 {
          animation: keyframes4 0.7569986979166666s both;
          animation-delay: 2.69677734375s;
          animation-timing-function: linear;
        }
      
        @keyframes keyframes5 {
          from {
            stroke: blue;
            stroke-dashoffset: 819;
            stroke-width: 128;
          }
          73% {
            animation-timing-function: step-end;
            stroke: blue;
            stroke-dashoffset: 0;
            stroke-width: 128;
          }
          to {
            stroke: black;
            stroke-width: 1024;
          }
        }
        #make-me-a-hanzi-animation-5 {
          animation: keyframes5 0.91650390625s both;
          animation-delay: 3.4537760416666665s;
          animation-timing-function: linear;
        }
      
        @keyframes keyframes6 {
          from {
            stroke: blue;
            stroke-dashoffset: 1151;
            stroke-width: 128;
          }
          79% {
            animation-timing-function: step-end;
            stroke: blue;
            stroke-dashoffset: 0;
            stroke-width: 128;
          }
          to {
            stroke: black;
            stroke-width: 1024;
          }
        }
        #make-me-a-hanzi-animation-6 {
          animation: keyframes6 1.1866861979166667s both;
          animation-delay: 4.370279947916666s;
          animation-timing-function: linear;
        }
      
    </style>
    
      <path d="M 233 695 Q 261 668 293 636 Q 308 621 326 621 Q 338 622 344 637 Q 350 653 341 688 Q 332 721 229 750 Q 211 754 204 751 Q 198 747 200 732 Q 204 719 233 695 Z" fill="lightgray"></path>
    
      <path d="M 128 514 Q 183 454 217 441 Q 233 438 243 453 Q 249 466 246 484 Q 234 529 143 555 Q 142 556 141 556 Q 123 560 113 557 Q 106 556 110 542 Q 111 529 128 514 Z" fill="lightgray"></path>
    
      <path d="M 131 150 Q 118 146 120 128 Q 132 47 169 26 Q 176 19 188 21 Q 195 22 198 50 Q 204 95 320 370 Q 327 386 327 393 Q 326 403 316 397 Q 303 388 176 194 Q 161 172 131 150 Z" fill="lightgray"></path>
    
      <path d="M 631 574 Q 790 610 794 613 Q 804 622 799 631 Q 792 644 760 652 Q 730 658 632 626 L 573 611 Q 507 598 435 592 Q 395 585 424 567 Q 466 540 531 556 Q 550 560 573 563 L 631 574 Z" fill="lightgray"></path>
    
      <path d="M 629 425 Q 788 458 790 459 Q 799 466 795 476 Q 788 488 758 497 Q 730 503 629 473 L 573 461 Q 509 451 435 445 Q 398 441 424 422 Q 466 395 526 409 Q 548 413 573 416 L 629 425 Z" fill="lightgray"></path>
    
      <path d="M 629 275 Q 686 281 888 282 Q 910 282 916 292 Q 922 305 903 320 Q 837 368 784 350 Q 721 338 629 322 L 573 314 Q 468 301 350 285 Q 326 282 344 263 Q 381 230 430 244 Q 496 262 573 268 L 629 275 Z" fill="lightgray"></path>
    
      <path d="M 629 322 Q 629 373 629 425 L 629 473 Q 629 528 631 574 L 632 626 Q 635 740 655 774 Q 662 790 641 807 Q 616 826 571 838 Q 550 844 537 829 Q 527 820 540 808 Q 570 783 572 747 Q 572 693 573 611 L 573 563 Q 573 517 573 461 L 573 416 Q 576 404 573 314 L 573 268 Q 567 -8 588 -44 Q 603 -60 612 -38 Q 630 4 629 275 L 629 322 Z" fill="lightgray"></path>
    
    
      <clipPath id="make-me-a-hanzi-clip-0">
        <path d="M 233 695 Q 261 668 293 636 Q 308 621 326 621 Q 338 622 344 637 Q 350 653 341 688 Q 332 721 229 750 Q 211 754 204 751 Q 198 747 200 732 Q 204 719 233 695 Z"></path>
      </clipPath>
      <path clip-path="url(#make-me-a-hanzi-clip-0)" d="M 210 743 L 299 683 L 323 642" fill="none" id="make-me-a-hanzi-animation-0" stroke-dasharray="283 566" stroke-linecap="round"></path>
    
      <clipPath id="make-me-a-hanzi-clip-1">
        <path d="M 128 514 Q 183 454 217 441 Q 233 438 243 453 Q 249 466 246 484 Q 234 529 143 555 Q 142 556 141 556 Q 123 560 113 557 Q 106 556 110 542 Q 111 529 128 514 Z"></path>
      </clipPath>
      <path clip-path="url(#make-me-a-hanzi-clip-1)" d="M 120 548 L 199 493 L 222 464" fill="none" id="make-me-a-hanzi-animation-1" stroke-dasharray="261 522" stroke-linecap="round"></path>
    
      <clipPath id="make-me-a-hanzi-clip-2">
        <path d="M 131 150 Q 118 146 120 128 Q 132 47 169 26 Q 176 19 188 21 Q 195 22 198 50 Q 204 95 320 370 Q 327 386 327 393 Q 326 403 316 397 Q 303 388 176 194 Q 161 172 131 150 Z"></path>
      </clipPath>
      <path clip-path="url(#make-me-a-hanzi-clip-2)" d="M 183 31 L 169 71 L 169 120 L 203 172 L 320 391" fill="none" id="make-me-a-hanzi-animation-2" stroke-dasharray="530 1060" stroke-linecap="round"></path>
    
      <clipPath id="make-me-a-hanzi-clip-3">
        <path d="M 631 574 Q 790 610 794 613 Q 804 622 799 631 Q 792 644 760 652 Q 730 658 632 626 L 573 611 Q 507 598 435 592 Q 395 585 424 567 Q 466 540 531 556 Q 550 560 573 563 L 631 574 Z"></path>
      </clipPath>
      <path clip-path="url(#make-me-a-hanzi-clip-3)" d="M 426 581 L 449 574 L 502 574 L 640 600 L 740 626 L 763 629 L 789 623" fill="none" id="make-me-a-hanzi-animation-3" stroke-dasharray="499 998" stroke-linecap="round"></path>
    
      <clipPath id="make-me-a-hanzi-clip-4">
        <path d="M 629 425 Q 788 458 790 459 Q 799 466 795 476 Q 788 488 758 497 Q 730 503 629 473 L 573 461 Q 509 451 435 445 Q 398 441 424 422 Q 466 395 526 409 Q 548 413 573 416 L 629 425 Z"></path>
      </clipPath>
      <path clip-path="url(#make-me-a-hanzi-clip-4)" d="M 427 435 L 449 428 L 499 427 L 638 449 L 752 475 L 787 467" fill="none" id="make-me-a-hanzi-animation-4" stroke-dasharray="495 990" stroke-linecap="round"></path>
    
      <clipPath id="make-me-a-hanzi-clip-5">
        <path d="M 629 275 Q 686 281 888 282 Q 910 282 916 292 Q 922 305 903 320 Q 837 368 784 350 Q 721 338 629 322 L 573 314 Q 468 301 350 285 Q 326 282 344 263 Q 381 230 430 244 Q 496 262 573 268 L 629 275 Z"></path>
      </clipPath>
      <path clip-path="url(#make-me-a-hanzi-clip-5)" d="M 347 274 L 373 267 L 417 267 L 555 290 L 808 318 L 850 314 L 903 299" fill="none" id="make-me-a-hanzi-animation-5" stroke-dasharray="691 1382" stroke-linecap="round"></path>
    
      <clipPath id="make-me-a-hanzi-clip-6">
        <path d="M 629 322 Q 629 373 629 425 L 629 473 Q 629 528 631 574 L 632 626 Q 635 740 655 774 Q 662 790 641 807 Q 616 826 571 838 Q 550 844 537 829 Q 527 820 540 808 Q 570 783 572 747 Q 572 693 573 611 L 573 563 Q 573 517 573 461 L 573 416 Q 576 404 573 314 L 573 268 Q 567 -8 588 -44 Q 603 -60 612 -38 Q 630 4 629 275 L 629 322 Z"></path>
      </clipPath>
      <path clip-path="url(#make-me-a-hanzi-clip-6)" d="M 545 819 L 573 812 L 610 777 L 602 655 L 599 -38" fill="none" id="make-me-a-hanzi-animation-6" stroke-dasharray="1023 2046" stroke-linecap="round"></path>
    
  </g>
</svg>