<svg version="1.1" viewBox="0 0 1024 1024" xmlns="http://www.w3.org/2000/svg">
  <g stroke="lightgray" stroke-dasharray="1,1" stroke-width="1" transform="scale(4, 4)">
    <line x1="0" y1="0" x2="256" y2="256"></line>
    <line x1="256" y1="0" x2="0" y2="256"></line>
    <line x1="128" y1="0" x2="128" y2="256"></line>
    <line x1="0" y1="128" x2="256" y2="128"></line>
  </g>
  <g transform="scale(1, -1) translate(0, -900)">
    <style type="text/css">
      
        @keyframes keyframes0 {
          from {
            stroke: blue;
            stroke-dashoffset: 399;
            stroke-width: 128;
          }
          56% {
            animation-timing-function: step-end;
            stroke: blue;
            stroke-dashoffset: 0;
            stroke-width: 128;
          }
          to {
            stroke: black;
            stroke-width: 1024;
          }
        }
        #make-me-a-hanzi-animation-0 {
          animation: keyframes0 0.57470703125s both;
          animation-delay: 0s;
          animation-timing-function: linear;
        }
      
        @keyframes keyframes1 {
          from {
            stroke: blue;
            stroke-dashoffset: 369;
            stroke-width: 128;
          }
          55% {
            animation-timing-function: step-end;
            stroke: blue;
            stroke-dashoffset: 0;
            stroke-width: 128;
          }
          to {
            stroke: black;
            stroke-width: 1024;
          }
        }
        #make-me-a-hanzi-animation-1 {
          animation: keyframes1 0.55029296875s both;
          animation-delay: 0.57470703125s;
          animation-timing-function: linear;
        }
      
        @keyframes keyframes2 {
          from {
            stroke: blue;
            stroke-dashoffset: 611;
            stroke-width: 128;
          }
          67% {
            animation-timing-function: step-end;
            stroke: blue;
            stroke-dashoffset: 0;
            stroke-width: 128;
          }
          to {
            stroke: black;
            stroke-width: 1024;
          }
        }
        #make-me-a-hanzi-animation-2 {
          animation: keyframes2 0.7472330729166666s both;
          animation-delay: 1.125s;
          animation-timing-function: linear;
        }
      
        @keyframes keyframes3 {
          from {
            stroke: blue;
            stroke-dashoffset: 706;
            stroke-width: 128;
          }
          70% {
            animation-timing-function: step-end;
            stroke: blue;
            stroke-dashoffset: 0;
            stroke-width: 128;
          }
          to {
            stroke: black;
            stroke-width: 1024;
          }
        }
        #make-me-a-hanzi-animation-3 {
          animation: keyframes3 0.8245442708333334s both;
          animation-delay: 1.8722330729166665s;
          animation-timing-function: linear;
        }
      
        @keyframes keyframes4 {
          from {
            stroke: blue;
            stroke-dashoffset: 625;
            stroke-width: 128;
          }
          67% {
            animation-timing-function: step-end;
            stroke: blue;
            stroke-dashoffset: 0;
            stroke-width: 128;
          }
          to {
            stroke: black;
            stroke-width: 1024;
          }
        }
        #make-me-a-hanzi-animation-4 {
          animation: keyframes4 0.7586263020833334s both;
          animation-delay: 2.69677734375s;
          animation-timing-function: linear;
        }
      
        @keyframes keyframes5 {
          from {
            stroke: blue;
            stroke-dashoffset: 719;
            stroke-width: 128;
          }
          70% {
            animation-timing-function: step-end;
            stroke: blue;
            stroke-dashoffset: 0;
            stroke-width: 128;
          }
          to {
            stroke: black;
            stroke-width: 1024;
          }
        }
        #make-me-a-hanzi-animation-5 {
          animation: keyframes5 0.8351236979166666s both;
          animation-delay: 3.4554036458333335s;
          animation-timing-function: linear;
        }
      
        @keyframes keyframes6 {
          from {
            stroke: blue;
            stroke-dashoffset: 885;
            stroke-width: 128;
          }
          74% {
            animation-timing-function: step-end;
            stroke: blue;
            stroke-dashoffset: 0;
            stroke-width: 128;
          }
          to {
            stroke: black;
            stroke-width: 1024;
          }
        }
        #make-me-a-hanzi-animation-6 {
          animation: keyframes6 0.97021484375s both;
          animation-delay: 4.29052734375s;
          animation-timing-function: linear;
        }
      
        @keyframes keyframes7 {
          from {
            stroke: blue;
            stroke-dashoffset: 550;
            stroke-width: 128;
          }
          64% {
            animation-timing-function: step-end;
            stroke: blue;
            stroke-dashoffset: 0;
            stroke-width: 128;
          }
          to {
            stroke: black;
            stroke-width: 1024;
          }
        }
        #make-me-a-hanzi-animation-7 {
          animation: keyframes7 0.6975911458333334s both;
          animation-delay: 5.2607421875s;
          animation-timing-function: linear;
        }
      
        @keyframes keyframes8 {
          from {
            stroke: blue;
            stroke-dashoffset: 528;
            stroke-width: 128;
          }
          63% {
            animation-timing-function: step-end;
            stroke: blue;
            stroke-dashoffset: 0;
            stroke-width: 128;
          }
          to {
            stroke: black;
            stroke-width: 1024;
          }
        }
        #make-me-a-hanzi-animation-8 {
          animation: keyframes8 0.6796875s both;
          animation-delay: 5.958333333333333s;
          animation-timing-function: linear;
        }
      
    </style>
    
      <path d="M 239 656 Q 263 634 289 607 Q 305 592 322 593 Q 335 593 340 609 Q 346 625 336 659 Q 324 690 233 710 Q 215 714 208 711 Q 202 707 204 692 Q 208 679 239 656 Z" fill="lightgray"></path>
    
      <path d="M 152 468 Q 189 423 226 406 Q 242 403 251 417 Q 257 430 254 447 Q 242 486 164 508 Q 146 512 137 508 Q 131 507 134 494 Q 135 482 152 468 Z" fill="lightgray"></path>
    
      <path d="M 136 139 Q 124 135 127 118 Q 139 49 174 29 Q 181 22 191 25 Q 198 26 199 50 Q 203 90 297 337 Q 304 353 303 358 Q 302 368 293 362 Q 287 359 174 179 Q 162 160 136 139 Z" fill="lightgray"></path>
    
      <path d="M 720 523 Q 825 545 839 557 Q 848 564 843 572 Q 836 584 808 591 Q 778 600 728 578 L 673 561 Q 646 555 534 526 L 482 517 Q 440 513 397 508 Q 363 502 387 486 Q 426 462 481 475 Q 482 476 484 475 L 534 485 Q 598 500 669 513 L 720 523 Z" fill="lightgray"></path>
    
      <path d="M 534 526 Q 537 652 537 656 Q 533 662 528 666 Q 503 687 473 698 Q 457 705 447 698 Q 438 691 445 674 Q 475 613 482 517 L 484 475 Q 485 418 491 330 C 493 300 536 306 536 336 Q 535 421 534 485 L 534 526 Z" fill="lightgray"></path>
    
      <path d="M 696 359 Q 708 444 720 523 L 728 578 Q 737 671 765 751 Q 769 763 749 781 Q 713 803 688 810 Q 672 816 662 807 Q 653 800 660 783 Q 682 744 681 719 Q 680 643 673 561 L 669 513 Q 662 437 651 352 C 647 322 692 329 696 359 Z" fill="lightgray"></path>
    
      <path d="M 491 330 Q 413 321 332 309 Q 311 308 327 291 Q 340 278 358 273 Q 377 267 394 272 Q 601 329 939 329 Q 958 329 963 338 Q 969 348 952 362 Q 895 404 838 385 Q 778 375 696 359 L 651 352 Q 638 352 626 349 Q 583 343 536 336 L 491 330 Z" fill="lightgray"></path>
    
      <path d="M 468 235 Q 472 184 390 105 Q 368 83 311 39 Q 302 35 312 31 Q 394 31 529 168 Q 536 175 540 177 Q 547 181 548 192 Q 544 222 507 239 Q 488 249 476 248 Q 467 247 468 235 Z" fill="lightgray"></path>
    
      <path d="M 665 215 Q 723 139 792 33 Q 805 8 822 0 Q 831 -3 842 6 Q 858 19 853 70 Q 850 133 673 250 Q 663 257 659 244 Q 655 229 665 215 Z" fill="lightgray"></path>
    
    
      <clipPath id="make-me-a-hanzi-clip-0">
        <path d="M 239 656 Q 263 634 289 607 Q 305 592 322 593 Q 335 593 340 609 Q 346 625 336 659 Q 324 690 233 710 Q 215 714 208 711 Q 202 707 204 692 Q 208 679 239 656 Z"></path>
      </clipPath>
      <path clip-path="url(#make-me-a-hanzi-clip-0)" d="M 214 703 L 293 654 L 321 612" fill="none" id="make-me-a-hanzi-animation-0" stroke-dasharray="271 542" stroke-linecap="round"></path>
    
      <clipPath id="make-me-a-hanzi-clip-1">
        <path d="M 152 468 Q 189 423 226 406 Q 242 403 251 417 Q 257 430 254 447 Q 242 486 164 508 Q 146 512 137 508 Q 131 507 134 494 Q 135 482 152 468 Z"></path>
      </clipPath>
      <path clip-path="url(#make-me-a-hanzi-clip-1)" d="M 144 499 L 215 450 L 231 428" fill="none" id="make-me-a-hanzi-animation-1" stroke-dasharray="241 482" stroke-linecap="round"></path>
    
      <clipPath id="make-me-a-hanzi-clip-2">
        <path d="M 136 139 Q 124 135 127 118 Q 139 49 174 29 Q 181 22 191 25 Q 198 26 199 50 Q 203 90 297 337 Q 304 353 303 358 Q 302 368 293 362 Q 287 359 174 179 Q 162 160 136 139 Z"></path>
      </clipPath>
      <path clip-path="url(#make-me-a-hanzi-clip-2)" d="M 186 35 L 172 76 L 171 113 L 297 357" fill="none" id="make-me-a-hanzi-animation-2" stroke-dasharray="483 966" stroke-linecap="round"></path>
    
      <clipPath id="make-me-a-hanzi-clip-3">
        <path d="M 720 523 Q 825 545 839 557 Q 848 564 843 572 Q 836 584 808 591 Q 778 600 728 578 L 673 561 Q 646 555 534 526 L 482 517 Q 440 513 397 508 Q 363 502 387 486 Q 426 462 481 475 Q 482 476 484 475 L 534 485 Q 598 500 669 513 L 720 523 Z"></path>
      </clipPath>
      <path clip-path="url(#make-me-a-hanzi-clip-3)" d="M 390 498 L 426 491 L 468 493 L 684 539 L 782 566 L 831 567" fill="none" id="make-me-a-hanzi-animation-3" stroke-dasharray="578 1156" stroke-linecap="round"></path>
    
      <clipPath id="make-me-a-hanzi-clip-4">
        <path d="M 534 526 Q 537 652 537 656 Q 533 662 528 666 Q 503 687 473 698 Q 457 705 447 698 Q 438 691 445 674 Q 475 613 482 517 L 484 475 Q 485 418 491 330 C 493 300 536 306 536 336 Q 535 421 534 485 L 534 526 Z"></path>
      </clipPath>
      <path clip-path="url(#make-me-a-hanzi-clip-4)" d="M 457 687 L 500 635 L 509 540 L 513 361 L 497 339" fill="none" id="make-me-a-hanzi-animation-4" stroke-dasharray="497 994" stroke-linecap="round"></path>
    
      <clipPath id="make-me-a-hanzi-clip-5">
        <path d="M 696 359 Q 708 444 720 523 L 728 578 Q 737 671 765 751 Q 769 763 749 781 Q 713 803 688 810 Q 672 816 662 807 Q 653 800 660 783 Q 682 744 681 719 Q 680 643 673 561 L 669 513 Q 662 437 651 352 C 647 322 692 329 696 359 Z"></path>
      </clipPath>
      <path clip-path="url(#make-me-a-hanzi-clip-5)" d="M 675 794 L 720 750 L 720 743 L 678 385 L 658 359" fill="none" id="make-me-a-hanzi-animation-5" stroke-dasharray="591 1182" stroke-linecap="round"></path>
    
      <clipPath id="make-me-a-hanzi-clip-6">
        <path d="M 491 330 Q 413 321 332 309 Q 311 308 327 291 Q 340 278 358 273 Q 377 267 394 272 Q 601 329 939 329 Q 958 329 963 338 Q 969 348 952 362 Q 895 404 838 385 Q 778 375 696 359 L 651 352 Q 638 352 626 349 Q 583 343 536 336 L 491 330 Z"></path>
      </clipPath>
      <path clip-path="url(#make-me-a-hanzi-clip-6)" d="M 329 300 L 377 292 L 562 324 L 863 360 L 906 357 L 951 344" fill="none" id="make-me-a-hanzi-animation-6" stroke-dasharray="757 1514" stroke-linecap="round"></path>
    
      <clipPath id="make-me-a-hanzi-clip-7">
        <path d="M 468 235 Q 472 184 390 105 Q 368 83 311 39 Q 302 35 312 31 Q 394 31 529 168 Q 536 175 540 177 Q 547 181 548 192 Q 544 222 507 239 Q 488 249 476 248 Q 467 247 468 235 Z"></path>
      </clipPath>
      <path clip-path="url(#make-me-a-hanzi-clip-7)" d="M 480 237 L 502 196 L 471 152 L 397 82 L 317 36" fill="none" id="make-me-a-hanzi-animation-7" stroke-dasharray="422 844" stroke-linecap="round"></path>
    
      <clipPath id="make-me-a-hanzi-clip-8">
        <path d="M 665 215 Q 723 139 792 33 Q 805 8 822 0 Q 831 -3 842 6 Q 858 19 853 70 Q 850 133 673 250 Q 663 257 659 244 Q 655 229 665 215 Z"></path>
      </clipPath>
      <path clip-path="url(#make-me-a-hanzi-clip-8)" d="M 671 236 L 765 138 L 804 88 L 827 19" fill="none" id="make-me-a-hanzi-animation-8" stroke-dasharray="400 800" stroke-linecap="round"></path>
    
  </g>
</svg>