<svg version="1.1" viewBox="0 0 1024 1024" xmlns="http://www.w3.org/2000/svg">
  <g stroke="lightgray" stroke-dasharray="1,1" stroke-width="1" transform="scale(4, 4)">
    <line x1="0" y1="0" x2="256" y2="256"></line>
    <line x1="256" y1="0" x2="0" y2="256"></line>
    <line x1="128" y1="0" x2="128" y2="256"></line>
    <line x1="0" y1="128" x2="256" y2="128"></line>
  </g>
  <g transform="scale(1, -1) translate(0, -900)">
    <style type="text/css">
      
        @keyframes keyframes0 {
          from {
            stroke: blue;
            stroke-dashoffset: 409;
            stroke-width: 128;
          }
          57% {
            animation-timing-function: step-end;
            stroke: blue;
            stroke-dashoffset: 0;
            stroke-width: 128;
          }
          to {
            stroke: black;
            stroke-width: 1024;
          }
        }
        #make-me-a-hanzi-animation-0 {
          animation: keyframes0 0.5828450520833334s both;
          animation-delay: 0s;
          animation-timing-function: linear;
        }
      
        @keyframes keyframes1 {
          from {
            stroke: blue;
            stroke-dashoffset: 386;
            stroke-width: 128;
          }
          56% {
            animation-timing-function: step-end;
            stroke: blue;
            stroke-dashoffset: 0;
            stroke-width: 128;
          }
          to {
            stroke: black;
            stroke-width: 1024;
          }
        }
        #make-me-a-hanzi-animation-1 {
          animation: keyframes1 0.5641276041666666s both;
          animation-delay: 0.5828450520833334s;
          animation-timing-function: linear;
        }
      
        @keyframes keyframes2 {
          from {
            stroke: blue;
            stroke-dashoffset: 613;
            stroke-width: 128;
          }
          67% {
            animation-timing-function: step-end;
            stroke: blue;
            stroke-dashoffset: 0;
            stroke-width: 128;
          }
          to {
            stroke: black;
            stroke-width: 1024;
          }
        }
        #make-me-a-hanzi-animation-2 {
          animation: keyframes2 0.7488606770833334s both;
          animation-delay: 1.14697265625s;
          animation-timing-function: linear;
        }
      
        @keyframes keyframes3 {
          from {
            stroke: blue;
            stroke-dashoffset: 752;
            stroke-width: 128;
          }
          71% {
            animation-timing-function: step-end;
            stroke: blue;
            stroke-dashoffset: 0;
            stroke-width: 128;
          }
          to {
            stroke: black;
            stroke-width: 1024;
          }
        }
        #make-me-a-hanzi-animation-3 {
          animation: keyframes3 0.8619791666666666s both;
          animation-delay: 1.8958333333333335s;
          animation-timing-function: linear;
        }
      
        @keyframes keyframes4 {
          from {
            stroke: blue;
            stroke-dashoffset: 390;
            stroke-width: 128;
          }
          56% {
            animation-timing-function: step-end;
            stroke: blue;
            stroke-dashoffset: 0;
            stroke-width: 128;
          }
          to {
            stroke: black;
            stroke-width: 1024;
          }
        }
        #make-me-a-hanzi-animation-4 {
          animation: keyframes4 0.5673828125s both;
          animation-delay: 2.7578125s;
          animation-timing-function: linear;
        }
      
        @keyframes keyframes5 {
          from {
            stroke: blue;
            stroke-dashoffset: 820;
            stroke-width: 128;
          }
          73% {
            animation-timing-function: step-end;
            stroke: blue;
            stroke-dashoffset: 0;
            stroke-width: 128;
          }
          to {
            stroke: black;
            stroke-width: 1024;
          }
        }
        #make-me-a-hanzi-animation-5 {
          animation: keyframes5 0.9173177083333334s both;
          animation-delay: 3.3251953125s;
          animation-timing-function: linear;
        }
      
        @keyframes keyframes6 {
          from {
            stroke: blue;
            stroke-dashoffset: 728;
            stroke-width: 128;
          }
          70% {
            animation-timing-function: step-end;
            stroke: blue;
            stroke-dashoffset: 0;
            stroke-width: 128;
          }
          to {
            stroke: black;
            stroke-width: 1024;
          }
        }
        #make-me-a-hanzi-animation-6 {
          animation: keyframes6 0.8424479166666666s both;
          animation-delay: 4.242513020833333s;
          animation-timing-function: linear;
        }
      
        @keyframes keyframes7 {
          from {
            stroke: blue;
            stroke-dashoffset: 636;
            stroke-width: 128;
          }
          67% {
            animation-timing-function: step-end;
            stroke: blue;
            stroke-dashoffset: 0;
            stroke-width: 128;
          }
          to {
            stroke: black;
            stroke-width: 1024;
          }
        }
        #make-me-a-hanzi-animation-7 {
          animation: keyframes7 0.767578125s both;
          animation-delay: 5.0849609375s;
          animation-timing-function: linear;
        }
      
        @keyframes keyframes8 {
          from {
            stroke: blue;
            stroke-dashoffset: 508;
            stroke-width: 128;
          }
          62% {
            animation-timing-function: step-end;
            stroke: blue;
            stroke-dashoffset: 0;
            stroke-width: 128;
          }
          to {
            stroke: black;
            stroke-width: 1024;
          }
        }
        #make-me-a-hanzi-animation-8 {
          animation: keyframes8 0.6634114583333334s both;
          animation-delay: 5.8525390625s;
          animation-timing-function: linear;
        }
      
        @keyframes keyframes9 {
          from {
            stroke: blue;
            stroke-dashoffset: 556;
            stroke-width: 128;
          }
          64% {
            animation-timing-function: step-end;
            stroke: blue;
            stroke-dashoffset: 0;
            stroke-width: 128;
          }
          to {
            stroke: black;
            stroke-width: 1024;
          }
        }
        #make-me-a-hanzi-animation-9 {
          animation: keyframes9 0.7024739583333334s both;
          animation-delay: 6.515950520833333s;
          animation-timing-function: linear;
        }
      
        @keyframes keyframes10 {
          from {
            stroke: blue;
            stroke-dashoffset: 717;
            stroke-width: 128;
          }
          70% {
            animation-timing-function: step-end;
            stroke: blue;
            stroke-dashoffset: 0;
            stroke-width: 128;
          }
          to {
            stroke: black;
            stroke-width: 1024;
          }
        }
        #make-me-a-hanzi-animation-10 {
          animation: keyframes10 0.83349609375s both;
          animation-delay: 7.218424479166666s;
          animation-timing-function: linear;
        }
      
    </style>
    
      <path d="M 241 729 Q 272 704 305 674 Q 320 661 336 662 Q 348 662 353 676 Q 357 692 347 723 Q 340 745 306 759 Q 227 786 212 779 Q 206 775 209 761 Q 213 751 241 729 Z" fill="lightgray"></path>
    
      <path d="M 143 546 Q 194 495 232 478 Q 247 475 255 489 Q 261 501 257 517 Q 242 559 156 583 Q 155 584 154 584 Q 138 588 129 584 Q 123 583 126 571 Q 127 559 143 546 Z" fill="lightgray"></path>
    
      <path d="M 133 175 Q 121 171 124 155 Q 136 83 170 64 Q 177 57 187 60 Q 194 61 195 86 Q 202 134 297 373 Q 304 389 303 394 Q 302 404 293 398 Q 284 392 172 215 Q 160 196 133 175 Z" fill="lightgray"></path>
    
      <path d="M 563 626 Q 614 639 696 656 Q 699 657 705 658 C 734 664 718 683 688 679 Q 598 666 505 643 Q 495 639 491 643 Q 490 646 496 654 Q 599 763 621 782 Q 633 789 629 802 Q 625 812 584 839 Q 569 848 561 845 Q 548 841 552 822 Q 561 758 451 664 Q 433 652 413 639 Q 400 629 402 619 Q 405 603 426 583 Q 435 573 448 582 Q 466 597 526 616 L 563 626 Z" fill="lightgray"></path>
    
      <path d="M 705 658 Q 735 619 747 617 Q 756 616 761 625 Q 767 635 765 659 Q 762 690 677 735 Q 665 739 660 738 Q 656 737 655 726 L 688 679 L 705 658 Z" fill="lightgray"></path>
    
      <path d="M 656 502 Q 723 509 814 510 Q 874 510 880 519 Q 884 529 869 543 Q 821 577 785 569 Q 709 551 576 528 Q 566 527 555 524 L 498 515 Q 413 505 319 489 Q 300 486 314 471 Q 327 458 345 454 Q 364 450 379 454 Q 425 467 477 477 L 532 487 Q 604 497 627 499 L 656 502 Z" fill="lightgray"></path>
    
      <path d="M 555 524 Q 577 558 591 571 Q 601 578 598 587 Q 595 606 563 626 C 538 643 517 645 526 616 Q 532 603 531 590 Q 530 574 498 515 L 477 477 Q 441 416 403 374 Q 364 332 284 274 Q 272 264 281 260 Q 302 254 370 299 Q 455 356 532 487 L 555 524 Z" fill="lightgray"></path>
    
      <path d="M 627 499 Q 628 498 631 495 Q 785 324 833 319 Q 908 319 967 334 Q 983 337 985 341 Q 986 347 973 351 Q 802 408 800 409 Q 739 439 688 478 Q 669 493 656 502 C 632 519 606 521 627 499 Z" fill="lightgray"></path>
    
      <path d="M 564 417 Q 560 362 427 238 Q 411 225 433 229 Q 500 244 585 348 Q 585 351 588 352 Q 612 380 623 394 Q 630 404 628 411 Q 625 421 604 426 Q 582 433 572 430 Q 566 429 564 417 Z" fill="lightgray"></path>
    
      <path d="M 621 336 Q 612 266 459 118 Q 443 105 465 110 Q 528 122 637 258 Q 646 276 680 314 Q 687 324 685 331 Q 681 341 660 346 Q 638 352 628 349 Q 622 348 621 336 Z" fill="lightgray"></path>
    
      <path d="M 681 261 Q 693 189 563 47 Q 560 46 558 42 Q 521 5 430 -69 Q 421 -73 431 -76 Q 488 -76 610 35 Q 701 143 732 183 Q 739 201 756 212 Q 763 216 762 227 Q 759 251 719 269 Q 700 276 688 275 Q 681 274 681 261 Z" fill="lightgray"></path>
    
    
      <clipPath id="make-me-a-hanzi-clip-0">
        <path d="M 241 729 Q 272 704 305 674 Q 320 661 336 662 Q 348 662 353 676 Q 357 692 347 723 Q 340 745 306 759 Q 227 786 212 779 Q 206 775 209 761 Q 213 751 241 729 Z"></path>
      </clipPath>
      <path clip-path="url(#make-me-a-hanzi-clip-0)" d="M 217 772 L 307 719 L 336 680" fill="none" id="make-me-a-hanzi-animation-0" stroke-dasharray="281 562" stroke-linecap="round"></path>
    
      <clipPath id="make-me-a-hanzi-clip-1">
        <path d="M 143 546 Q 194 495 232 478 Q 247 475 255 489 Q 261 501 257 517 Q 242 559 156 583 Q 155 584 154 584 Q 138 588 129 584 Q 123 583 126 571 Q 127 559 143 546 Z"></path>
      </clipPath>
      <path clip-path="url(#make-me-a-hanzi-clip-1)" d="M 136 576 L 220 520 L 237 497" fill="none" id="make-me-a-hanzi-animation-1" stroke-dasharray="258 516" stroke-linecap="round"></path>
    
      <clipPath id="make-me-a-hanzi-clip-2">
        <path d="M 133 175 Q 121 171 124 155 Q 136 83 170 64 Q 177 57 187 60 Q 194 61 195 86 Q 202 134 297 373 Q 304 389 303 394 Q 302 404 293 398 Q 284 392 172 215 Q 160 196 133 175 Z"></path>
      </clipPath>
      <path clip-path="url(#make-me-a-hanzi-clip-2)" d="M 182 70 L 170 99 L 168 149 L 297 392" fill="none" id="make-me-a-hanzi-animation-2" stroke-dasharray="485 970" stroke-linecap="round"></path>
    
      <clipPath id="make-me-a-hanzi-clip-3">
        <path d="M 563 626 Q 614 639 696 656 Q 699 657 705 658 C 734 664 718 683 688 679 Q 598 666 505 643 Q 495 639 491 643 Q 490 646 496 654 Q 599 763 621 782 Q 633 789 629 802 Q 625 812 584 839 Q 569 848 561 845 Q 548 841 552 822 Q 561 758 451 664 Q 433 652 413 639 Q 400 629 402 619 Q 405 603 426 583 Q 435 573 448 582 Q 466 597 526 616 L 563 626 Z"></path>
      </clipPath>
      <path clip-path="url(#make-me-a-hanzi-clip-3)" d="M 566 831 L 585 794 L 536 722 L 473 657 L 460 628 L 493 623 L 652 661 L 682 666 L 699 662" fill="none" id="make-me-a-hanzi-animation-3" stroke-dasharray="624 1248" stroke-linecap="round"></path>
    
      <clipPath id="make-me-a-hanzi-clip-4">
        <path d="M 705 658 Q 735 619 747 617 Q 756 616 761 625 Q 767 635 765 659 Q 762 690 677 735 Q 665 739 660 738 Q 656 737 655 726 L 688 679 L 705 658 Z"></path>
      </clipPath>
      <path clip-path="url(#make-me-a-hanzi-clip-4)" d="M 663 730 L 729 670 L 749 630" fill="none" id="make-me-a-hanzi-animation-4" stroke-dasharray="262 524" stroke-linecap="round"></path>
    
      <clipPath id="make-me-a-hanzi-clip-5">
        <path d="M 656 502 Q 723 509 814 510 Q 874 510 880 519 Q 884 529 869 543 Q 821 577 785 569 Q 709 551 576 528 Q 566 527 555 524 L 498 515 Q 413 505 319 489 Q 300 486 314 471 Q 327 458 345 454 Q 364 450 379 454 Q 425 467 477 477 L 532 487 Q 604 497 627 499 L 656 502 Z"></path>
      </clipPath>
      <path clip-path="url(#make-me-a-hanzi-clip-5)" d="M 317 480 L 354 473 L 380 476 L 588 514 L 795 540 L 835 536 L 873 524" fill="none" id="make-me-a-hanzi-animation-5" stroke-dasharray="692 1384" stroke-linecap="round"></path>
    
      <clipPath id="make-me-a-hanzi-clip-6">
        <path d="M 555 524 Q 577 558 591 571 Q 601 578 598 587 Q 595 606 563 626 C 538 643 517 645 526 616 Q 532 603 531 590 Q 530 574 498 515 L 477 477 Q 441 416 403 374 Q 364 332 284 274 Q 272 264 281 260 Q 302 254 370 299 Q 455 356 532 487 L 555 524 Z"></path>
      </clipPath>
      <path clip-path="url(#make-me-a-hanzi-clip-6)" d="M 534 611 L 549 604 L 563 587 L 510 490 L 461 416 L 386 332 L 322 284 L 285 266" fill="none" id="make-me-a-hanzi-animation-6" stroke-dasharray="600 1200" stroke-linecap="round"></path>
    
      <clipPath id="make-me-a-hanzi-clip-7">
        <path d="M 627 499 Q 628 498 631 495 Q 785 324 833 319 Q 908 319 967 334 Q 983 337 985 341 Q 986 347 973 351 Q 802 408 800 409 Q 739 439 688 478 Q 669 493 656 502 C 632 519 606 521 627 499 Z"></path>
      </clipPath>
      <path clip-path="url(#make-me-a-hanzi-clip-7)" d="M 642 487 L 653 488 L 750 406 L 832 358 L 916 346 L 978 345" fill="none" id="make-me-a-hanzi-animation-7" stroke-dasharray="508 1016" stroke-linecap="round"></path>
    
      <clipPath id="make-me-a-hanzi-clip-8">
        <path d="M 564 417 Q 560 362 427 238 Q 411 225 433 229 Q 500 244 585 348 Q 585 351 588 352 Q 612 380 623 394 Q 630 404 628 411 Q 625 421 604 426 Q 582 433 572 430 Q 566 429 564 417 Z"></path>
      </clipPath>
      <path clip-path="url(#make-me-a-hanzi-clip-8)" d="M 615 408 L 589 398 L 551 339 L 516 300 L 474 262 L 436 238" fill="none" id="make-me-a-hanzi-animation-8" stroke-dasharray="380 760" stroke-linecap="round"></path>
    
      <clipPath id="make-me-a-hanzi-clip-9">
        <path d="M 621 336 Q 612 266 459 118 Q 443 105 465 110 Q 528 122 637 258 Q 646 276 680 314 Q 687 324 685 331 Q 681 341 660 346 Q 638 352 628 349 Q 622 348 621 336 Z"></path>
      </clipPath>
      <path clip-path="url(#make-me-a-hanzi-clip-9)" d="M 673 328 L 647 320 L 614 262 L 576 213 L 519 155 L 468 118" fill="none" id="make-me-a-hanzi-animation-9" stroke-dasharray="428 856" stroke-linecap="round"></path>
    
      <clipPath id="make-me-a-hanzi-clip-10">
        <path d="M 681 261 Q 693 189 563 47 Q 560 46 558 42 Q 521 5 430 -69 Q 421 -73 431 -76 Q 488 -76 610 35 Q 701 143 732 183 Q 739 201 756 212 Q 763 216 762 227 Q 759 251 719 269 Q 700 276 688 275 Q 681 274 681 261 Z"></path>
      </clipPath>
      <path clip-path="url(#make-me-a-hanzi-clip-10)" d="M 694 263 L 717 228 L 700 190 L 653 120 L 573 27 L 515 -22 L 435 -72" fill="none" id="make-me-a-hanzi-animation-10" stroke-dasharray="589 1178" stroke-linecap="round"></path>
    
  </g>
</svg>