<svg version="1.1" viewBox="0 0 1024 1024" xmlns="http://www.w3.org/2000/svg">
  <g stroke="lightgray" stroke-dasharray="1,1" stroke-width="1" transform="scale(4, 4)">
    <line x1="0" y1="0" x2="256" y2="256"></line>
    <line x1="256" y1="0" x2="0" y2="256"></line>
    <line x1="128" y1="0" x2="128" y2="256"></line>
    <line x1="0" y1="128" x2="256" y2="128"></line>
  </g>
  <g transform="scale(1, -1) translate(0, -900)">
    <style type="text/css">
      
        @keyframes keyframes0 {
          from {
            stroke: blue;
            stroke-dashoffset: 383;
            stroke-width: 128;
          }
          55% {
            animation-timing-function: step-end;
            stroke: blue;
            stroke-dashoffset: 0;
            stroke-width: 128;
          }
          to {
            stroke: black;
            stroke-width: 1024;
          }
        }
        #make-me-a-hanzi-animation-0 {
          animation: keyframes0 0.5616861979166666s both;
          animation-delay: 0s;
          animation-timing-function: linear;
        }
      
        @keyframes keyframes1 {
          from {
            stroke: blue;
            stroke-dashoffset: 362;
            stroke-width: 128;
          }
          54% {
            animation-timing-function: step-end;
            stroke: blue;
            stroke-dashoffset: 0;
            stroke-width: 128;
          }
          to {
            stroke: black;
            stroke-width: 1024;
          }
        }
        #make-me-a-hanzi-animation-1 {
          animation: keyframes1 0.5445963541666666s both;
          animation-delay: 0.5616861979166666s;
          animation-timing-function: linear;
        }
      
        @keyframes keyframes2 {
          from {
            stroke: blue;
            stroke-dashoffset: 585;
            stroke-width: 128;
          }
          66% {
            animation-timing-function: step-end;
            stroke: blue;
            stroke-dashoffset: 0;
            stroke-width: 128;
          }
          to {
            stroke: black;
            stroke-width: 1024;
          }
        }
        #make-me-a-hanzi-animation-2 {
          animation: keyframes2 0.72607421875s both;
          animation-delay: 1.1062825520833333s;
          animation-timing-function: linear;
        }
      
        @keyframes keyframes3 {
          from {
            stroke: blue;
            stroke-dashoffset: 390;
            stroke-width: 128;
          }
          56% {
            animation-timing-function: step-end;
            stroke: blue;
            stroke-dashoffset: 0;
            stroke-width: 128;
          }
          to {
            stroke: black;
            stroke-width: 1024;
          }
        }
        #make-me-a-hanzi-animation-3 {
          animation: keyframes3 0.5673828125s both;
          animation-delay: 1.8323567708333333s;
          animation-timing-function: linear;
        }
      
        @keyframes keyframes4 {
          from {
            stroke: blue;
            stroke-dashoffset: 497;
            stroke-width: 128;
          }
          62% {
            animation-timing-function: step-end;
            stroke: blue;
            stroke-dashoffset: 0;
            stroke-width: 128;
          }
          to {
            stroke: black;
            stroke-width: 1024;
          }
        }
        #make-me-a-hanzi-animation-4 {
          animation: keyframes4 0.6544596354166666s both;
          animation-delay: 2.399739583333333s;
          animation-timing-function: linear;
        }
      
        @keyframes keyframes5 {
          from {
            stroke: blue;
            stroke-dashoffset: 746;
            stroke-width: 128;
          }
          71% {
            animation-timing-function: step-end;
            stroke: blue;
            stroke-dashoffset: 0;
            stroke-width: 128;
          }
          to {
            stroke: black;
            stroke-width: 1024;
          }
        }
        #make-me-a-hanzi-animation-5 {
          animation: keyframes5 0.8570963541666666s both;
          animation-delay: 3.0541992187499996s;
          animation-timing-function: linear;
        }
      
        @keyframes keyframes6 {
          from {
            stroke: blue;
            stroke-dashoffset: 653;
            stroke-width: 128;
          }
          68% {
            animation-timing-function: step-end;
            stroke: blue;
            stroke-dashoffset: 0;
            stroke-width: 128;
          }
          to {
            stroke: black;
            stroke-width: 1024;
          }
        }
        #make-me-a-hanzi-animation-6 {
          animation: keyframes6 0.7814127604166666s both;
          animation-delay: 3.911295572916666s;
          animation-timing-function: linear;
        }
      
        @keyframes keyframes7 {
          from {
            stroke: blue;
            stroke-dashoffset: 606;
            stroke-width: 128;
          }
          66% {
            animation-timing-function: step-end;
            stroke: blue;
            stroke-dashoffset: 0;
            stroke-width: 128;
          }
          to {
            stroke: black;
            stroke-width: 1024;
          }
        }
        #make-me-a-hanzi-animation-7 {
          animation: keyframes7 0.7431640625s both;
          animation-delay: 4.692708333333333s;
          animation-timing-function: linear;
        }
      
        @keyframes keyframes8 {
          from {
            stroke: blue;
            stroke-dashoffset: 499;
            stroke-width: 128;
          }
          62% {
            animation-timing-function: step-end;
            stroke: blue;
            stroke-dashoffset: 0;
            stroke-width: 128;
          }
          to {
            stroke: black;
            stroke-width: 1024;
          }
        }
        #make-me-a-hanzi-animation-8 {
          animation: keyframes8 0.6560872395833334s both;
          animation-delay: 5.435872395833333s;
          animation-timing-function: linear;
        }
      
        @keyframes keyframes9 {
          from {
            stroke: blue;
            stroke-dashoffset: 673;
            stroke-width: 128;
          }
          69% {
            animation-timing-function: step-end;
            stroke: blue;
            stroke-dashoffset: 0;
            stroke-width: 128;
          }
          to {
            stroke: black;
            stroke-width: 1024;
          }
        }
        #make-me-a-hanzi-animation-9 {
          animation: keyframes9 0.7976888020833334s both;
          animation-delay: 6.091959635416666s;
          animation-timing-function: linear;
        }
      
        @keyframes keyframes10 {
          from {
            stroke: blue;
            stroke-dashoffset: 575;
            stroke-width: 128;
          }
          65% {
            animation-timing-function: step-end;
            stroke: blue;
            stroke-dashoffset: 0;
            stroke-width: 128;
          }
          to {
            stroke: black;
            stroke-width: 1024;
          }
        }
        #make-me-a-hanzi-animation-10 {
          animation: keyframes10 0.7179361979166666s both;
          animation-delay: 6.889648437499999s;
          animation-timing-function: linear;
        }
      
        @keyframes keyframes11 {
          from {
            stroke: blue;
            stroke-dashoffset: 384;
            stroke-width: 128;
          }
          56% {
            animation-timing-function: step-end;
            stroke: blue;
            stroke-dashoffset: 0;
            stroke-width: 128;
          }
          to {
            stroke: black;
            stroke-width: 1024;
          }
        }
        #make-me-a-hanzi-animation-11 {
          animation: keyframes11 0.5625s both;
          animation-delay: 7.607584635416666s;
          animation-timing-function: linear;
        }
      
        @keyframes keyframes12 {
          from {
            stroke: blue;
            stroke-dashoffset: 601;
            stroke-width: 128;
          }
          66% {
            animation-timing-function: step-end;
            stroke: blue;
            stroke-dashoffset: 0;
            stroke-width: 128;
          }
          to {
            stroke: black;
            stroke-width: 1024;
          }
        }
        #make-me-a-hanzi-animation-12 {
          animation: keyframes12 0.7390950520833334s both;
          animation-delay: 8.170084635416666s;
          animation-timing-function: linear;
        }
      
        @keyframes keyframes13 {
          from {
            stroke: blue;
            stroke-dashoffset: 708;
            stroke-width: 128;
          }
          70% {
            animation-timing-function: step-end;
            stroke: blue;
            stroke-dashoffset: 0;
            stroke-width: 128;
          }
          to {
            stroke: black;
            stroke-width: 1024;
          }
        }
        #make-me-a-hanzi-animation-13 {
          animation: keyframes13 0.826171875s both;
          animation-delay: 8.9091796875s;
          animation-timing-function: linear;
        }
      
    </style>
    
      <path d="M 189 666 Q 208 647 229 622 Q 242 607 259 607 Q 271 607 277 621 Q 283 636 275 668 Q 271 684 244 698 Q 177 725 164 719 Q 158 715 159 702 Q 163 690 189 666 Z" fill="lightgray"></path>
    
      <path d="M 105 491 Q 141 440 170 428 Q 185 424 195 437 Q 202 450 200 467 Q 196 492 178 506 Q 154 524 120 529 Q 104 536 94 532 Q 87 531 89 518 Q 90 506 105 491 Z" fill="lightgray"></path>
    
      <path d="M 88 167 Q 78 163 80 148 Q 96 82 129 67 Q 135 61 144 64 Q 151 65 150 89 Q 153 123 227 359 Q 231 374 231 379 Q 230 388 222 381 Q 215 375 121 206 Q 111 187 88 167 Z" fill="lightgray"></path>
    
      <path d="M 379 699 Q 404 674 430 646 Q 442 633 457 632 Q 467 632 473 645 Q 477 658 471 688 Q 465 715 377 745 Q 362 749 356 747 Q 352 743 352 731 Q 355 721 379 699 Z" fill="lightgray"></path>
    
      <path d="M 374 523 Q 503 566 510 572 Q 517 579 512 586 Q 505 596 479 599 Q 452 600 428 588 Q 397 573 361 560 Q 322 547 276 537 Q 245 528 269 516 Q 299 504 341 512 L 374 523 Z" fill="lightgray"></path>
    
      <path d="M 386 409 Q 395 408 418 407 Q 440 406 448 394 Q 461 372 423 238 Q 402 174 376 163 Q 366 162 339 178 Q 311 199 307 194 Q 300 187 313 175 Q 341 139 346 104 Q 349 89 358 84 Q 368 78 398 95 Q 434 122 460 198 Q 470 235 481 284 Q 496 359 515 377 Q 524 381 525 390 Q 525 397 504 417 Q 473 442 428 435 Q 416 436 396 437 C 366 439 356 411 386 409 Z" fill="lightgray"></path>
    
      <path d="M 396 437 Q 405 462 412 474 Q 416 484 408 496 Q 390 515 374 523 C 348 539 334 541 341 512 Q 362 446 295 305 Q 264 242 219 177 Q 215 173 215 167 Q 216 163 221 163 Q 296 191 386 409 L 396 437 Z" fill="lightgray"></path>
    
      <path d="M 620 592 Q 650 635 681 700 Q 694 731 708 747 Q 715 757 709 770 Q 705 780 675 798 Q 648 811 630 810 Q 614 806 623 786 Q 636 768 631 750 Q 607 642 530 513 Q 523 503 521 497 Q 520 487 532 490 Q 553 499 605 570 L 620 592 Z" fill="lightgray"></path>
    
      <path d="M 605 570 Q 660 551 701 564 Q 848 597 856 605 Q 865 612 859 621 Q 852 631 824 638 Q 794 642 766 629 Q 735 617 699 608 Q 663 599 620 592 C 590 587 576 579 605 570 Z" fill="lightgray"></path>
    
      <path d="M 694 446 Q 775 474 800 471 Q 816 467 816 461 Q 816 460 781 390 Q 775 380 781 377 Q 787 373 799 383 Q 845 417 884 430 Q 915 442 915 449 Q 914 458 855 499 Q 834 517 743 489 Q 733 489 618 458 Q 590 451 562 445 Q 535 441 553 428 Q 581 407 608 417 Q 630 427 656 435 L 694 446 Z" fill="lightgray"></path>
    
      <path d="M 713 126 Q 714 199 715 263 L 716 292 Q 719 422 718 426 Q 706 438 694 446 C 670 464 645 463 656 435 Q 668 411 671 312 Q 671 255 672 150 C 672 120 713 96 713 126 Z" fill="lightgray"></path>
    
      <path d="M 715 263 Q 755 257 839 281 Q 852 285 853 286 Q 860 293 856 302 Q 849 312 821 316 Q 793 319 767 305 Q 737 296 716 292 C 687 286 685 267 715 263 Z" fill="lightgray"></path>
    
      <path d="M 583 208 Q 599 241 616 268 Q 625 280 610 292 Q 571 320 546 315 Q 536 312 539 299 Q 557 199 455 72 Q 449 71 412 19 Q 405 4 419 10 Q 468 22 542 130 Q 554 152 573 188 L 583 208 Z" fill="lightgray"></path>
    
      <path d="M 573 188 Q 673 92 797 -4 Q 819 -20 847 -12 Q 944 12 975 24 Q 984 28 984 33 Q 981 39 879 59 Q 869 62 859 63 Q 811 69 713 126 L 672 150 Q 629 178 583 208 C 558 224 551 209 573 188 Z" fill="lightgray"></path>
    
    
      <clipPath id="make-me-a-hanzi-clip-0">
        <path d="M 189 666 Q 208 647 229 622 Q 242 607 259 607 Q 271 607 277 621 Q 283 636 275 668 Q 271 684 244 698 Q 177 725 164 719 Q 158 715 159 702 Q 163 690 189 666 Z"></path>
      </clipPath>
      <path clip-path="url(#make-me-a-hanzi-clip-0)" d="M 168 711 L 235 666 L 258 626" fill="none" id="make-me-a-hanzi-animation-0" stroke-dasharray="255 510" stroke-linecap="round"></path>
    
      <clipPath id="make-me-a-hanzi-clip-1">
        <path d="M 105 491 Q 141 440 170 428 Q 185 424 195 437 Q 202 450 200 467 Q 196 492 178 506 Q 154 524 120 529 Q 104 536 94 532 Q 87 531 89 518 Q 90 506 105 491 Z"></path>
      </clipPath>
      <path clip-path="url(#make-me-a-hanzi-clip-1)" d="M 101 522 L 154 483 L 176 449" fill="none" id="make-me-a-hanzi-animation-1" stroke-dasharray="234 468" stroke-linecap="round"></path>
    
      <clipPath id="make-me-a-hanzi-clip-2">
        <path d="M 88 167 Q 78 163 80 148 Q 96 82 129 67 Q 135 61 144 64 Q 151 65 150 89 Q 153 123 227 359 Q 231 374 231 379 Q 230 388 222 381 Q 215 375 121 206 Q 111 187 88 167 Z"></path>
      </clipPath>
      <path clip-path="url(#make-me-a-hanzi-clip-2)" d="M 138 74 L 128 93 L 122 145 L 146 189 L 209 341 L 218 348 L 226 376" fill="none" id="make-me-a-hanzi-animation-2" stroke-dasharray="457 914" stroke-linecap="round"></path>
    
      <clipPath id="make-me-a-hanzi-clip-3">
        <path d="M 379 699 Q 404 674 430 646 Q 442 633 457 632 Q 467 632 473 645 Q 477 658 471 688 Q 465 715 377 745 Q 362 749 356 747 Q 352 743 352 731 Q 355 721 379 699 Z"></path>
      </clipPath>
      <path clip-path="url(#make-me-a-hanzi-clip-3)" d="M 361 741 L 437 684 L 456 650" fill="none" id="make-me-a-hanzi-animation-3" stroke-dasharray="262 524" stroke-linecap="round"></path>
    
      <clipPath id="make-me-a-hanzi-clip-4">
        <path d="M 374 523 Q 503 566 510 572 Q 517 579 512 586 Q 505 596 479 599 Q 452 600 428 588 Q 397 573 361 560 Q 322 547 276 537 Q 245 528 269 516 Q 299 504 341 512 L 374 523 Z"></path>
      </clipPath>
      <path clip-path="url(#make-me-a-hanzi-clip-4)" d="M 270 527 L 340 532 L 462 577 L 503 580" fill="none" id="make-me-a-hanzi-animation-4" stroke-dasharray="369 738" stroke-linecap="round"></path>
    
      <clipPath id="make-me-a-hanzi-clip-5">
        <path d="M 386 409 Q 395 408 418 407 Q 440 406 448 394 Q 461 372 423 238 Q 402 174 376 163 Q 366 162 339 178 Q 311 199 307 194 Q 300 187 313 175 Q 341 139 346 104 Q 349 89 358 84 Q 368 78 398 95 Q 434 122 460 198 Q 470 235 481 284 Q 496 359 515 377 Q 524 381 525 390 Q 525 397 504 417 Q 473 442 428 435 Q 416 436 396 437 C 366 439 356 411 386 409 Z"></path>
      </clipPath>
      <path clip-path="url(#make-me-a-hanzi-clip-5)" d="M 390 415 L 405 422 L 452 418 L 473 405 L 483 389 L 439 210 L 409 152 L 379 126 L 310 189" fill="none" id="make-me-a-hanzi-animation-5" stroke-dasharray="618 1236" stroke-linecap="round"></path>
    
      <clipPath id="make-me-a-hanzi-clip-6">
        <path d="M 396 437 Q 405 462 412 474 Q 416 484 408 496 Q 390 515 374 523 C 348 539 334 541 341 512 Q 362 446 295 305 Q 264 242 219 177 Q 215 173 215 167 Q 216 163 221 163 Q 296 191 386 409 L 396 437 Z"></path>
      </clipPath>
      <path clip-path="url(#make-me-a-hanzi-clip-6)" d="M 348 509 L 371 495 L 379 480 L 353 384 L 286 248 L 249 196 L 221 170" fill="none" id="make-me-a-hanzi-animation-6" stroke-dasharray="525 1050" stroke-linecap="round"></path>
    
      <clipPath id="make-me-a-hanzi-clip-7">
        <path d="M 620 592 Q 650 635 681 700 Q 694 731 708 747 Q 715 757 709 770 Q 705 780 675 798 Q 648 811 630 810 Q 614 806 623 786 Q 636 768 631 750 Q 607 642 530 513 Q 523 503 521 497 Q 520 487 532 490 Q 553 499 605 570 L 620 592 Z"></path>
      </clipPath>
      <path clip-path="url(#make-me-a-hanzi-clip-7)" d="M 633 796 L 666 765 L 669 757 L 662 736 L 619 633 L 573 552 L 529 498" fill="none" id="make-me-a-hanzi-animation-7" stroke-dasharray="478 956" stroke-linecap="round"></path>
    
      <clipPath id="make-me-a-hanzi-clip-8">
        <path d="M 605 570 Q 660 551 701 564 Q 848 597 856 605 Q 865 612 859 621 Q 852 631 824 638 Q 794 642 766 629 Q 735 617 699 608 Q 663 599 620 592 C 590 587 576 579 605 570 Z"></path>
      </clipPath>
      <path clip-path="url(#make-me-a-hanzi-clip-8)" d="M 614 572 L 628 579 L 709 586 L 815 616 L 851 614" fill="none" id="make-me-a-hanzi-animation-8" stroke-dasharray="371 742" stroke-linecap="round"></path>
    
      <clipPath id="make-me-a-hanzi-clip-9">
        <path d="M 694 446 Q 775 474 800 471 Q 816 467 816 461 Q 816 460 781 390 Q 775 380 781 377 Q 787 373 799 383 Q 845 417 884 430 Q 915 442 915 449 Q 914 458 855 499 Q 834 517 743 489 Q 733 489 618 458 Q 590 451 562 445 Q 535 441 553 428 Q 581 407 608 417 Q 630 427 656 435 L 694 446 Z"></path>
      </clipPath>
      <path clip-path="url(#make-me-a-hanzi-clip-9)" d="M 556 437 L 565 432 L 597 433 L 777 486 L 824 485 L 838 478 L 852 456 L 785 384" fill="none" id="make-me-a-hanzi-animation-9" stroke-dasharray="545 1090" stroke-linecap="round"></path>
    
      <clipPath id="make-me-a-hanzi-clip-10">
        <path d="M 713 126 Q 714 199 715 263 L 716 292 Q 719 422 718 426 Q 706 438 694 446 C 670 464 645 463 656 435 Q 668 411 671 312 Q 671 255 672 150 C 672 120 713 96 713 126 Z"></path>
      </clipPath>
      <path clip-path="url(#make-me-a-hanzi-clip-10)" d="M 663 434 L 691 414 L 692 162 L 709 134" fill="none" id="make-me-a-hanzi-animation-10" stroke-dasharray="447 894" stroke-linecap="round"></path>
    
      <clipPath id="make-me-a-hanzi-clip-11">
        <path d="M 715 263 Q 755 257 839 281 Q 852 285 853 286 Q 860 293 856 302 Q 849 312 821 316 Q 793 319 767 305 Q 737 296 716 292 C 687 286 685 267 715 263 Z"></path>
      </clipPath>
      <path clip-path="url(#make-me-a-hanzi-clip-11)" d="M 721 270 L 737 280 L 793 292 L 845 296" fill="none" id="make-me-a-hanzi-animation-11" stroke-dasharray="256 512" stroke-linecap="round"></path>
    
      <clipPath id="make-me-a-hanzi-clip-12">
        <path d="M 583 208 Q 599 241 616 268 Q 625 280 610 292 Q 571 320 546 315 Q 536 312 539 299 Q 557 199 455 72 Q 449 71 412 19 Q 405 4 419 10 Q 468 22 542 130 Q 554 152 573 188 L 583 208 Z"></path>
      </clipPath>
      <path clip-path="url(#make-me-a-hanzi-clip-12)" d="M 549 304 L 577 271 L 550 191 L 497 96 L 421 19" fill="none" id="make-me-a-hanzi-animation-12" stroke-dasharray="473 946" stroke-linecap="round"></path>
    
      <clipPath id="make-me-a-hanzi-clip-13">
        <path d="M 573 188 Q 673 92 797 -4 Q 819 -20 847 -12 Q 944 12 975 24 Q 984 28 984 33 Q 981 39 879 59 Q 869 62 859 63 Q 811 69 713 126 L 672 150 Q 629 178 583 208 C 558 224 551 209 573 188 Z"></path>
      </clipPath>
      <path clip-path="url(#make-me-a-hanzi-clip-13)" d="M 587 200 L 588 190 L 657 136 L 823 28 L 979 29" fill="none" id="make-me-a-hanzi-animation-13" stroke-dasharray="580 1160" stroke-linecap="round"></path>
    
  </g>
</svg>