<svg version="1.1" viewBox="0 0 1024 1024" xmlns="http://www.w3.org/2000/svg">
  <g stroke="lightgray" stroke-dasharray="1,1" stroke-width="1" transform="scale(4, 4)">
    <line x1="0" y1="0" x2="256" y2="256"></line>
    <line x1="256" y1="0" x2="0" y2="256"></line>
    <line x1="128" y1="0" x2="128" y2="256"></line>
    <line x1="0" y1="128" x2="256" y2="128"></line>
  </g>
  <g transform="scale(1, -1) translate(0, -900)">
    <style type="text/css">
      
        @keyframes keyframes0 {
          from {
            stroke: blue;
            stroke-dashoffset: 399;
            stroke-width: 128;
          }
          56% {
            animation-timing-function: step-end;
            stroke: blue;
            stroke-dashoffset: 0;
            stroke-width: 128;
          }
          to {
            stroke: black;
            stroke-width: 1024;
          }
        }
        #make-me-a-hanzi-animation-0 {
          animation: keyframes0 0.57470703125s both;
          animation-delay: 0s;
          animation-timing-function: linear;
        }
      
        @keyframes keyframes1 {
          from {
            stroke: blue;
            stroke-dashoffset: 377;
            stroke-width: 128;
          }
          55% {
            animation-timing-function: step-end;
            stroke: blue;
            stroke-dashoffset: 0;
            stroke-width: 128;
          }
          to {
            stroke: black;
            stroke-width: 1024;
          }
        }
        #make-me-a-hanzi-animation-1 {
          animation: keyframes1 0.5568033854166666s both;
          animation-delay: 0.57470703125s;
          animation-timing-function: linear;
        }
      
        @keyframes keyframes2 {
          from {
            stroke: blue;
            stroke-dashoffset: 630;
            stroke-width: 128;
          }
          67% {
            animation-timing-function: step-end;
            stroke: blue;
            stroke-dashoffset: 0;
            stroke-width: 128;
          }
          to {
            stroke: black;
            stroke-width: 1024;
          }
        }
        #make-me-a-hanzi-animation-2 {
          animation: keyframes2 0.7626953125s both;
          animation-delay: 1.1315104166666665s;
          animation-timing-function: linear;
        }
      
        @keyframes keyframes3 {
          from {
            stroke: blue;
            stroke-dashoffset: 342;
            stroke-width: 128;
          }
          53% {
            animation-timing-function: step-end;
            stroke: blue;
            stroke-dashoffset: 0;
            stroke-width: 128;
          }
          to {
            stroke: black;
            stroke-width: 1024;
          }
        }
        #make-me-a-hanzi-animation-3 {
          animation: keyframes3 0.5283203125s both;
          animation-delay: 1.8942057291666665s;
          animation-timing-function: linear;
        }
      
        @keyframes keyframes4 {
          from {
            stroke: blue;
            stroke-dashoffset: 420;
            stroke-width: 128;
          }
          58% {
            animation-timing-function: step-end;
            stroke: blue;
            stroke-dashoffset: 0;
            stroke-width: 128;
          }
          to {
            stroke: black;
            stroke-width: 1024;
          }
        }
        #make-me-a-hanzi-animation-4 {
          animation: keyframes4 0.591796875s both;
          animation-delay: 2.4225260416666665s;
          animation-timing-function: linear;
        }
      
        @keyframes keyframes5 {
          from {
            stroke: blue;
            stroke-dashoffset: 593;
            stroke-width: 128;
          }
          66% {
            animation-timing-function: step-end;
            stroke: blue;
            stroke-dashoffset: 0;
            stroke-width: 128;
          }
          to {
            stroke: black;
            stroke-width: 1024;
          }
        }
        #make-me-a-hanzi-animation-5 {
          animation: keyframes5 0.7325846354166666s both;
          animation-delay: 3.0143229166666665s;
          animation-timing-function: linear;
        }
      
        @keyframes keyframes6 {
          from {
            stroke: blue;
            stroke-dashoffset: 548;
            stroke-width: 128;
          }
          64% {
            animation-timing-function: step-end;
            stroke: blue;
            stroke-dashoffset: 0;
            stroke-width: 128;
          }
          to {
            stroke: black;
            stroke-width: 1024;
          }
        }
        #make-me-a-hanzi-animation-6 {
          animation: keyframes6 0.6959635416666666s both;
          animation-delay: 3.746907552083333s;
          animation-timing-function: linear;
        }
      
        @keyframes keyframes7 {
          from {
            stroke: blue;
            stroke-dashoffset: 435;
            stroke-width: 128;
          }
          59% {
            animation-timing-function: step-end;
            stroke: blue;
            stroke-dashoffset: 0;
            stroke-width: 128;
          }
          to {
            stroke: black;
            stroke-width: 1024;
          }
        }
        #make-me-a-hanzi-animation-7 {
          animation: keyframes7 0.60400390625s both;
          animation-delay: 4.44287109375s;
          animation-timing-function: linear;
        }
      
        @keyframes keyframes8 {
          from {
            stroke: blue;
            stroke-dashoffset: 729;
            stroke-width: 128;
          }
          70% {
            animation-timing-function: step-end;
            stroke: blue;
            stroke-dashoffset: 0;
            stroke-width: 128;
          }
          to {
            stroke: black;
            stroke-width: 1024;
          }
        }
        #make-me-a-hanzi-animation-8 {
          animation: keyframes8 0.84326171875s both;
          animation-delay: 5.046875s;
          animation-timing-function: linear;
        }
      
        @keyframes keyframes9 {
          from {
            stroke: blue;
            stroke-dashoffset: 343;
            stroke-width: 128;
          }
          53% {
            animation-timing-function: step-end;
            stroke: blue;
            stroke-dashoffset: 0;
            stroke-width: 128;
          }
          to {
            stroke: black;
            stroke-width: 1024;
          }
        }
        #make-me-a-hanzi-animation-9 {
          animation: keyframes9 0.5291341145833334s both;
          animation-delay: 5.89013671875s;
          animation-timing-function: linear;
        }
      
        @keyframes keyframes10 {
          from {
            stroke: blue;
            stroke-dashoffset: 836;
            stroke-width: 128;
          }
          73% {
            animation-timing-function: step-end;
            stroke: blue;
            stroke-dashoffset: 0;
            stroke-width: 128;
          }
          to {
            stroke: black;
            stroke-width: 1024;
          }
        }
        #make-me-a-hanzi-animation-10 {
          animation: keyframes10 0.9303385416666666s both;
          animation-delay: 6.419270833333333s;
          animation-timing-function: linear;
        }
      
        @keyframes keyframes11 {
          from {
            stroke: blue;
            stroke-dashoffset: 756;
            stroke-width: 128;
          }
          71% {
            animation-timing-function: step-end;
            stroke: blue;
            stroke-dashoffset: 0;
            stroke-width: 128;
          }
          to {
            stroke: black;
            stroke-width: 1024;
          }
        }
        #make-me-a-hanzi-animation-11 {
          animation: keyframes11 0.865234375s both;
          animation-delay: 7.349609375s;
          animation-timing-function: linear;
        }
      
        @keyframes keyframes12 {
          from {
            stroke: blue;
            stroke-dashoffset: 491;
            stroke-width: 128;
          }
          62% {
            animation-timing-function: step-end;
            stroke: blue;
            stroke-dashoffset: 0;
            stroke-width: 128;
          }
          to {
            stroke: black;
            stroke-width: 1024;
          }
        }
        #make-me-a-hanzi-animation-12 {
          animation: keyframes12 0.6495768229166666s both;
          animation-delay: 8.21484375s;
          animation-timing-function: linear;
        }
      
        @keyframes keyframes13 {
          from {
            stroke: blue;
            stroke-dashoffset: 707;
            stroke-width: 128;
          }
          70% {
            animation-timing-function: step-end;
            stroke: blue;
            stroke-dashoffset: 0;
            stroke-width: 128;
          }
          to {
            stroke: black;
            stroke-width: 1024;
          }
        }
        #make-me-a-hanzi-animation-13 {
          animation: keyframes13 0.8253580729166666s both;
          animation-delay: 8.864420572916666s;
          animation-timing-function: linear;
        }
      
    </style>
    
      <path d="M 206 717 Q 234 693 265 665 Q 280 652 297 653 Q 307 654 313 668 Q 317 684 307 715 Q 295 746 199 767 Q 183 770 176 767 Q 170 763 173 749 Q 177 739 206 717 Z" fill="lightgray"></path>
    
      <path d="M 120 497 Q 165 455 207 441 Q 223 440 231 456 Q 235 471 230 488 Q 220 512 199 523 Q 136 550 101 538 Q 100 538 100 537 Q 94 534 98 522 Q 102 509 120 497 Z" fill="lightgray"></path>
    
      <path d="M 110 143 Q 97 139 99 122 Q 111 47 147 28 Q 154 21 165 23 Q 172 24 173 50 Q 179 93 281 348 Q 288 364 287 370 Q 286 380 277 374 Q 270 370 150 184 Q 137 163 110 143 Z" fill="lightgray"></path>
    
      <path d="M 436 793 Q 487 733 509 733 Q 522 732 529 750 Q 530 763 520 784 Q 496 814 441 820 Q 431 821 430 810 Q 429 801 436 793 Z" fill="lightgray"></path>
    
      <path d="M 638 820 Q 635 816 582 737 Q 573 721 589 725 Q 628 747 677 781 Q 693 797 715 806 Q 734 816 724 832 Q 711 847 687 859 Q 665 871 654 868 Q 642 867 647 854 Q 650 838 638 820 Z" fill="lightgray"></path>
    
      <path d="M 565 671 Q 622 683 683 692 Q 731 702 738 708 Q 745 715 742 722 Q 736 732 712 739 Q 691 745 608 721 Q 494 696 405 687 Q 374 683 395 668 Q 428 652 497 660 Q 512 663 527 664 L 565 671 Z" fill="lightgray"></path>
    
      <path d="M 582 565 Q 615 574 697 584 Q 706 583 713 594 Q 714 604 695 612 Q 667 633 589 606 Q 586 606 585 605 L 536 594 Q 518 591 419 577 Q 395 573 414 559 Q 444 538 479 546 Q 504 552 536 557 L 582 565 Z" fill="lightgray"></path>
    
      <path d="M 577 498 Q 578 534 582 565 L 585 605 Q 585 617 588 627 Q 594 648 565 671 C 542 690 517 692 527 664 Q 533 652 536 594 L 536 557 Q 536 530 537 491 C 538 461 576 468 577 498 Z" fill="lightgray"></path>
    
      <path d="M 537 491 Q 446 476 343 460 Q 324 459 338 443 Q 351 431 367 426 Q 386 422 400 427 Q 556 472 794 472 Q 812 473 816 481 Q 820 491 805 503 Q 751 540 700 522 Q 648 513 577 498 L 537 491 Z" fill="lightgray"></path>
    
      <path d="M 502 408 Q 559 354 579 355 Q 592 355 595 373 Q 595 385 584 403 Q 566 425 503 433 Q 494 434 495 423 Q 494 416 502 408 Z" fill="lightgray"></path>
    
      <path d="M 508 24 Q 483 28 458 35 Q 439 41 441 32 Q 493 -11 523 -45 Q 535 -61 549 -67 Q 556 -70 565 -62 Q 599 -14 601 40 Q 595 127 595 215 L 598 249 Q 601 271 610 283 Q 622 299 611 310 Q 593 328 560 343 Q 544 350 530 344 Q 508 332 493 328 Q 472 321 428 318 Q 415 318 421 309 Q 428 299 441 294 Q 454 290 518 303 Q 537 307 541 296 Q 556 248 543 61 Q 540 34 532 24 Q 526 18 508 24 Z" fill="lightgray"></path>
    
      <path d="M 288 232 Q 278 233 276 225 Q 275 221 286 212 Q 323 190 346 197 Q 422 215 428 214 Q 440 210 429 189 Q 375 71 270 -5 Q 257 -14 265 -17 Q 274 -18 291 -11 Q 345 11 390 52 Q 433 88 487 182 Q 497 200 507 209 Q 520 218 513 227 Q 506 237 475 250 Q 457 260 411 244 Q 372 235 288 232 Z" fill="lightgray"></path>
    
      <path d="M 645 209 Q 754 299 807 334 Q 838 343 794 386 Q 773 404 750 405 Q 735 404 737 384 Q 743 356 631 222 Q 630 222 630 221 C 610 198 622 190 645 209 Z" fill="lightgray"></path>
    
      <path d="M 595 215 Q 670 124 752 39 Q 774 15 814 13 Q 886 9 961 23 Q 980 24 981 30 Q 984 37 968 43 Q 776 112 700 167 Q 673 185 645 209 L 630 221 Q 611 239 598 249 C 575 268 576 238 595 215 Z" fill="lightgray"></path>
    
    
      <clipPath id="make-me-a-hanzi-clip-0">
        <path d="M 206 717 Q 234 693 265 665 Q 280 652 297 653 Q 307 654 313 668 Q 317 684 307 715 Q 295 746 199 767 Q 183 770 176 767 Q 170 763 173 749 Q 177 739 206 717 Z"></path>
      </clipPath>
      <path clip-path="url(#make-me-a-hanzi-clip-0)" d="M 182 759 L 271 706 L 293 673" fill="none" id="make-me-a-hanzi-animation-0" stroke-dasharray="271 542" stroke-linecap="round"></path>
    
      <clipPath id="make-me-a-hanzi-clip-1">
        <path d="M 120 497 Q 165 455 207 441 Q 223 440 231 456 Q 235 471 230 488 Q 220 512 199 523 Q 136 550 101 538 Q 100 538 100 537 Q 94 534 98 522 Q 102 509 120 497 Z"></path>
      </clipPath>
      <path clip-path="url(#make-me-a-hanzi-clip-1)" d="M 109 529 L 186 490 L 209 464" fill="none" id="make-me-a-hanzi-animation-1" stroke-dasharray="249 498" stroke-linecap="round"></path>
    
      <clipPath id="make-me-a-hanzi-clip-2">
        <path d="M 110 143 Q 97 139 99 122 Q 111 47 147 28 Q 154 21 165 23 Q 172 24 173 50 Q 179 93 281 348 Q 288 364 287 370 Q 286 380 277 374 Q 270 370 150 184 Q 137 163 110 143 Z"></path>
      </clipPath>
      <path clip-path="url(#make-me-a-hanzi-clip-2)" d="M 160 32 L 147 64 L 145 114 L 281 369" fill="none" id="make-me-a-hanzi-animation-2" stroke-dasharray="502 1004" stroke-linecap="round"></path>
    
      <clipPath id="make-me-a-hanzi-clip-3">
        <path d="M 436 793 Q 487 733 509 733 Q 522 732 529 750 Q 530 763 520 784 Q 496 814 441 820 Q 431 821 430 810 Q 429 801 436 793 Z"></path>
      </clipPath>
      <path clip-path="url(#make-me-a-hanzi-clip-3)" d="M 443 807 L 482 782 L 509 753" fill="none" id="make-me-a-hanzi-animation-3" stroke-dasharray="214 428" stroke-linecap="round"></path>
    
      <clipPath id="make-me-a-hanzi-clip-4">
        <path d="M 638 820 Q 635 816 582 737 Q 573 721 589 725 Q 628 747 677 781 Q 693 797 715 806 Q 734 816 724 832 Q 711 847 687 859 Q 665 871 654 868 Q 642 867 647 854 Q 650 838 638 820 Z"></path>
      </clipPath>
      <path clip-path="url(#make-me-a-hanzi-clip-4)" d="M 659 857 L 677 822 L 622 764 L 594 744 L 591 734" fill="none" id="make-me-a-hanzi-animation-4" stroke-dasharray="292 584" stroke-linecap="round"></path>
    
      <clipPath id="make-me-a-hanzi-clip-5">
        <path d="M 565 671 Q 622 683 683 692 Q 731 702 738 708 Q 745 715 742 722 Q 736 732 712 739 Q 691 745 608 721 Q 494 696 405 687 Q 374 683 395 668 Q 428 652 497 660 Q 512 663 527 664 L 565 671 Z"></path>
      </clipPath>
      <path clip-path="url(#make-me-a-hanzi-clip-5)" d="M 398 679 L 426 674 L 486 677 L 664 713 L 731 718" fill="none" id="make-me-a-hanzi-animation-5" stroke-dasharray="465 930" stroke-linecap="round"></path>
    
      <clipPath id="make-me-a-hanzi-clip-6">
        <path d="M 582 565 Q 615 574 697 584 Q 706 583 713 594 Q 714 604 695 612 Q 667 633 589 606 Q 586 606 585 605 L 536 594 Q 518 591 419 577 Q 395 573 414 559 Q 444 538 479 546 Q 504 552 536 557 L 582 565 Z"></path>
      </clipPath>
      <path clip-path="url(#make-me-a-hanzi-clip-6)" d="M 415 568 L 459 563 L 641 599 L 703 596" fill="none" id="make-me-a-hanzi-animation-6" stroke-dasharray="420 840" stroke-linecap="round"></path>
    
      <clipPath id="make-me-a-hanzi-clip-7">
        <path d="M 577 498 Q 578 534 582 565 L 585 605 Q 585 617 588 627 Q 594 648 565 671 C 542 690 517 692 527 664 Q 533 652 536 594 L 536 557 Q 536 530 537 491 C 538 461 576 468 577 498 Z"></path>
      </clipPath>
      <path clip-path="url(#make-me-a-hanzi-clip-7)" d="M 534 663 L 561 634 L 558 520 L 543 499" fill="none" id="make-me-a-hanzi-animation-7" stroke-dasharray="307 614" stroke-linecap="round"></path>
    
      <clipPath id="make-me-a-hanzi-clip-8">
        <path d="M 537 491 Q 446 476 343 460 Q 324 459 338 443 Q 351 431 367 426 Q 386 422 400 427 Q 556 472 794 472 Q 812 473 816 481 Q 820 491 805 503 Q 751 540 700 522 Q 648 513 577 498 L 537 491 Z"></path>
      </clipPath>
      <path clip-path="url(#make-me-a-hanzi-clip-8)" d="M 340 452 L 376 444 L 504 469 L 736 500 L 806 486" fill="none" id="make-me-a-hanzi-animation-8" stroke-dasharray="601 1202" stroke-linecap="round"></path>
    
      <clipPath id="make-me-a-hanzi-clip-9">
        <path d="M 502 408 Q 559 354 579 355 Q 592 355 595 373 Q 595 385 584 403 Q 566 425 503 433 Q 494 434 495 423 Q 494 416 502 408 Z"></path>
      </clipPath>
      <path clip-path="url(#make-me-a-hanzi-clip-9)" d="M 507 421 L 559 392 L 578 372" fill="none" id="make-me-a-hanzi-animation-9" stroke-dasharray="215 430" stroke-linecap="round"></path>
    
      <clipPath id="make-me-a-hanzi-clip-10">
        <path d="M 508 24 Q 483 28 458 35 Q 439 41 441 32 Q 493 -11 523 -45 Q 535 -61 549 -67 Q 556 -70 565 -62 Q 599 -14 601 40 Q 595 127 595 215 L 598 249 Q 601 271 610 283 Q 622 299 611 310 Q 593 328 560 343 Q 544 350 530 344 Q 508 332 493 328 Q 472 321 428 318 Q 415 318 421 309 Q 428 299 441 294 Q 454 290 518 303 Q 537 307 541 296 Q 556 248 543 61 Q 540 34 532 24 Q 526 18 508 24 Z"></path>
      </clipPath>
      <path clip-path="url(#make-me-a-hanzi-clip-10)" d="M 430 309 L 483 309 L 541 324 L 557 317 L 576 296 L 572 62 L 558 -1 L 548 -13 L 534 -10 L 450 30" fill="none" id="make-me-a-hanzi-animation-10" stroke-dasharray="708 1416" stroke-linecap="round"></path>
    
      <clipPath id="make-me-a-hanzi-clip-11">
        <path d="M 288 232 Q 278 233 276 225 Q 275 221 286 212 Q 323 190 346 197 Q 422 215 428 214 Q 440 210 429 189 Q 375 71 270 -5 Q 257 -14 265 -17 Q 274 -18 291 -11 Q 345 11 390 52 Q 433 88 487 182 Q 497 200 507 209 Q 520 218 513 227 Q 506 237 475 250 Q 457 260 411 244 Q 372 235 288 232 Z"></path>
      </clipPath>
      <path clip-path="url(#make-me-a-hanzi-clip-11)" d="M 284 225 L 329 214 L 440 232 L 468 216 L 449 170 L 402 95 L 318 15 L 270 -12" fill="none" id="make-me-a-hanzi-animation-11" stroke-dasharray="628 1256" stroke-linecap="round"></path>
    
      <clipPath id="make-me-a-hanzi-clip-12">
        <path d="M 645 209 Q 754 299 807 334 Q 838 343 794 386 Q 773 404 750 405 Q 735 404 737 384 Q 743 356 631 222 Q 630 222 630 221 C 610 198 622 190 645 209 Z"></path>
      </clipPath>
      <path clip-path="url(#make-me-a-hanzi-clip-12)" d="M 751 390 L 771 355 L 662 238 L 634 218" fill="none" id="make-me-a-hanzi-animation-12" stroke-dasharray="363 726" stroke-linecap="round"></path>
    
      <clipPath id="make-me-a-hanzi-clip-13">
        <path d="M 595 215 Q 670 124 752 39 Q 774 15 814 13 Q 886 9 961 23 Q 980 24 981 30 Q 984 37 968 43 Q 776 112 700 167 Q 673 185 645 209 L 630 221 Q 611 239 598 249 C 575 268 576 238 595 215 Z"></path>
      </clipPath>
      <path clip-path="url(#make-me-a-hanzi-clip-13)" d="M 601 243 L 610 219 L 644 184 L 739 102 L 796 62 L 864 46 L 975 32" fill="none" id="make-me-a-hanzi-animation-13" stroke-dasharray="579 1158" stroke-linecap="round"></path>
    
  </g>
</svg>