<svg version="1.1" viewBox="0 0 1024 1024" xmlns="http://www.w3.org/2000/svg">
  <g stroke="lightgray" stroke-dasharray="1,1" stroke-width="1" transform="scale(4, 4)">
    <line x1="0" y1="0" x2="256" y2="256"></line>
    <line x1="256" y1="0" x2="0" y2="256"></line>
    <line x1="128" y1="0" x2="128" y2="256"></line>
    <line x1="0" y1="128" x2="256" y2="128"></line>
  </g>
  <g transform="scale(1, -1) translate(0, -900)">
    <style type="text/css">
      
        @keyframes keyframes0 {
          from {
            stroke: blue;
            stroke-dashoffset: 391;
            stroke-width: 128;
          }
          56% {
            animation-timing-function: step-end;
            stroke: blue;
            stroke-dashoffset: 0;
            stroke-width: 128;
          }
          to {
            stroke: black;
            stroke-width: 1024;
          }
        }
        #make-me-a-hanzi-animation-0 {
          animation: keyframes0 0.5681966145833334s both;
          animation-delay: 0s;
          animation-timing-function: linear;
        }
      
        @keyframes keyframes1 {
          from {
            stroke: blue;
            stroke-dashoffset: 378;
            stroke-width: 128;
          }
          55% {
            animation-timing-function: step-end;
            stroke: blue;
            stroke-dashoffset: 0;
            stroke-width: 128;
          }
          to {
            stroke: black;
            stroke-width: 1024;
          }
        }
        #make-me-a-hanzi-animation-1 {
          animation: keyframes1 0.5576171875s both;
          animation-delay: 0.5681966145833334s;
          animation-timing-function: linear;
        }
      
        @keyframes keyframes2 {
          from {
            stroke: blue;
            stroke-dashoffset: 616;
            stroke-width: 128;
          }
          67% {
            animation-timing-function: step-end;
            stroke: blue;
            stroke-dashoffset: 0;
            stroke-width: 128;
          }
          to {
            stroke: black;
            stroke-width: 1024;
          }
        }
        #make-me-a-hanzi-animation-2 {
          animation: keyframes2 0.7513020833333334s both;
          animation-delay: 1.1258138020833335s;
          animation-timing-function: linear;
        }
      
        @keyframes keyframes3 {
          from {
            stroke: blue;
            stroke-dashoffset: 908;
            stroke-width: 128;
          }
          75% {
            animation-timing-function: step-end;
            stroke: blue;
            stroke-dashoffset: 0;
            stroke-width: 128;
          }
          to {
            stroke: black;
            stroke-width: 1024;
          }
        }
        #make-me-a-hanzi-animation-3 {
          animation: keyframes3 0.9889322916666666s both;
          animation-delay: 1.877115885416667s;
          animation-timing-function: linear;
        }
      
        @keyframes keyframes4 {
          from {
            stroke: blue;
            stroke-dashoffset: 613;
            stroke-width: 128;
          }
          67% {
            animation-timing-function: step-end;
            stroke: blue;
            stroke-dashoffset: 0;
            stroke-width: 128;
          }
          to {
            stroke: black;
            stroke-width: 1024;
          }
        }
        #make-me-a-hanzi-animation-4 {
          animation: keyframes4 0.7488606770833334s both;
          animation-delay: 2.8660481770833335s;
          animation-timing-function: linear;
        }
      
        @keyframes keyframes5 {
          from {
            stroke: blue;
            stroke-dashoffset: 335;
            stroke-width: 128;
          }
          52% {
            animation-timing-function: step-end;
            stroke: blue;
            stroke-dashoffset: 0;
            stroke-width: 128;
          }
          to {
            stroke: black;
            stroke-width: 1024;
          }
        }
        #make-me-a-hanzi-animation-5 {
          animation: keyframes5 0.5226236979166666s both;
          animation-delay: 3.614908854166667s;
          animation-timing-function: linear;
        }
      
        @keyframes keyframes6 {
          from {
            stroke: blue;
            stroke-dashoffset: 345;
            stroke-width: 128;
          }
          53% {
            animation-timing-function: step-end;
            stroke: blue;
            stroke-dashoffset: 0;
            stroke-width: 128;
          }
          to {
            stroke: black;
            stroke-width: 1024;
          }
        }
        #make-me-a-hanzi-animation-6 {
          animation: keyframes6 0.53076171875s both;
          animation-delay: 4.137532552083334s;
          animation-timing-function: linear;
        }
      
        @keyframes keyframes7 {
          from {
            stroke: blue;
            stroke-dashoffset: 504;
            stroke-width: 128;
          }
          62% {
            animation-timing-function: step-end;
            stroke: blue;
            stroke-dashoffset: 0;
            stroke-width: 128;
          }
          to {
            stroke: black;
            stroke-width: 1024;
          }
        }
        #make-me-a-hanzi-animation-7 {
          animation: keyframes7 0.66015625s both;
          animation-delay: 4.668294270833334s;
          animation-timing-function: linear;
        }
      
        @keyframes keyframes8 {
          from {
            stroke: blue;
            stroke-dashoffset: 1297;
            stroke-width: 128;
          }
          81% {
            animation-timing-function: step-end;
            stroke: blue;
            stroke-dashoffset: 0;
            stroke-width: 128;
          }
          to {
            stroke: black;
            stroke-width: 1024;
          }
        }
        #make-me-a-hanzi-animation-8 {
          animation: keyframes8 1.3055013020833333s both;
          animation-delay: 5.328450520833334s;
          animation-timing-function: linear;
        }
      
        @keyframes keyframes9 {
          from {
            stroke: blue;
            stroke-dashoffset: 353;
            stroke-width: 128;
          }
          53% {
            animation-timing-function: step-end;
            stroke: blue;
            stroke-dashoffset: 0;
            stroke-width: 128;
          }
          to {
            stroke: black;
            stroke-width: 1024;
          }
        }
        #make-me-a-hanzi-animation-9 {
          animation: keyframes9 0.5372721354166666s both;
          animation-delay: 6.633951822916667s;
          animation-timing-function: linear;
        }
      
        @keyframes keyframes10 {
          from {
            stroke: blue;
            stroke-dashoffset: 390;
            stroke-width: 128;
          }
          56% {
            animation-timing-function: step-end;
            stroke: blue;
            stroke-dashoffset: 0;
            stroke-width: 128;
          }
          to {
            stroke: black;
            stroke-width: 1024;
          }
        }
        #make-me-a-hanzi-animation-10 {
          animation: keyframes10 0.5673828125s both;
          animation-delay: 7.171223958333334s;
          animation-timing-function: linear;
        }
      
        @keyframes keyframes11 {
          from {
            stroke: blue;
            stroke-dashoffset: 538;
            stroke-width: 128;
          }
          64% {
            animation-timing-function: step-end;
            stroke: blue;
            stroke-dashoffset: 0;
            stroke-width: 128;
          }
          to {
            stroke: black;
            stroke-width: 1024;
          }
        }
        #make-me-a-hanzi-animation-11 {
          animation: keyframes11 0.6878255208333334s both;
          animation-delay: 7.738606770833334s;
          animation-timing-function: linear;
        }
      
        @keyframes keyframes12 {
          from {
            stroke: blue;
            stroke-dashoffset: 705;
            stroke-width: 128;
          }
          70% {
            animation-timing-function: step-end;
            stroke: blue;
            stroke-dashoffset: 0;
            stroke-width: 128;
          }
          to {
            stroke: black;
            stroke-width: 1024;
          }
        }
        #make-me-a-hanzi-animation-12 {
          animation: keyframes12 0.82373046875s both;
          animation-delay: 8.426432291666668s;
          animation-timing-function: linear;
        }
      
        @keyframes keyframes13 {
          from {
            stroke: blue;
            stroke-dashoffset: 355;
            stroke-width: 128;
          }
          54% {
            animation-timing-function: step-end;
            stroke: blue;
            stroke-dashoffset: 0;
            stroke-width: 128;
          }
          to {
            stroke: black;
            stroke-width: 1024;
          }
        }
        #make-me-a-hanzi-animation-13 {
          animation: keyframes13 0.5388997395833334s both;
          animation-delay: 9.250162760416668s;
          animation-timing-function: linear;
        }
      
        @keyframes keyframes14 {
          from {
            stroke: blue;
            stroke-dashoffset: 371;
            stroke-width: 128;
          }
          55% {
            animation-timing-function: step-end;
            stroke: blue;
            stroke-dashoffset: 0;
            stroke-width: 128;
          }
          to {
            stroke: black;
            stroke-width: 1024;
          }
        }
        #make-me-a-hanzi-animation-14 {
          animation: keyframes14 0.5519205729166666s both;
          animation-delay: 9.789062500000002s;
          animation-timing-function: linear;
        }
      
    </style>
    
      <path d="M 178 677 Q 197 656 217 631 Q 230 615 249 615 Q 262 614 268 629 Q 275 645 268 680 Q 264 698 236 712 Q 167 742 152 735 Q 146 731 147 716 Q 150 703 178 677 Z" fill="lightgray"></path>
    
      <path d="M 116 482 Q 161 430 193 417 Q 209 414 219 429 Q 225 442 222 460 Q 215 485 196 499 Q 141 532 104 526 Q 101 526 101 525 Q 94 524 97 510 Q 98 497 116 482 Z" fill="lightgray"></path>
    
      <path d="M 123 142 Q 111 138 113 121 Q 129 49 164 28 Q 171 21 181 25 Q 188 26 189 51 Q 192 84 285 344 Q 292 360 291 366 Q 290 376 281 369 Q 269 362 161 183 Q 149 164 123 142 Z" fill="lightgray"></path>
    
      <path d="M 360 690 Q 338 708 311 716 Q 302 717 296 710 Q 292 704 300 693 Q 357 558 318 255 Q 311 207 295 157 Q 288 130 291 111 Q 301 77 312 64 Q 324 51 334 65 Q 364 98 365 319 Q 365 401 366 485 L 366 516 Q 366 546 368 570 L 370 605 Q 371 644 375 662 Q 375 665 375 667 C 376 678 376 678 360 690 Z" fill="lightgray"></path>
    
      <path d="M 457 496 Q 458 495 460 491 Q 479 463 499 486 Q 508 498 518 562 Q 524 643 543 672 Q 553 688 541 701 Q 525 714 498 729 Q 485 733 470 728 Q 419 706 360 690 C 331 682 347 657 375 667 Q 459 697 472 690 Q 479 686 478 661 Q 469 534 464 522 C 458 494 456 498 457 496 Z" fill="lightgray"></path>
    
      <path d="M 368 570 Q 410 580 442 584 Q 463 590 454 601 Q 442 614 418 615 Q 399 616 370 605 C 342 595 339 563 368 570 Z" fill="lightgray"></path>
    
      <path d="M 366 485 Q 370 485 377 486 Q 402 493 457 496 C 487 498 486 502 464 522 Q 460 526 454 530 Q 439 537 366 516 C 337 508 336 484 366 485 Z" fill="lightgray"></path>
    
      <path d="M 639 758 Q 624 768 609 775 Q 603 778 598 774 Q 591 770 598 760 Q 622 708 617 598 Q 614 535 644 518 Q 657 512 661 538 L 661 539 L 662 571 L 660 597 Q 660 613 659 633 L 659 661 Q 659 694 663 727 C 665 742 664 742 639 758 Z" fill="lightgray"></path>
    
      <path d="M 801 554 Q 813 97 790 58 Q 786 52 766 56 Q 741 60 716 66 Q 695 73 696 63 Q 751 12 781 -24 Q 794 -43 811 -49 Q 821 -53 830 -42 Q 872 6 871 66 Q 856 285 853 639 Q 852 700 866 728 Q 879 749 866 760 Q 844 779 804 795 Q 785 802 769 796 Q 721 769 639 758 C 609 753 634 721 663 727 Q 708 736 756 747 Q 775 750 783 739 Q 798 726 797 680 Q 798 628 800 576 L 801 554 Z" fill="lightgray"></path>
    
      <path d="M 659 633 Q 713 639 752 645 Q 774 649 765 661 Q 755 674 731 678 Q 689 681 659 661 C 634 645 629 630 659 633 Z" fill="lightgray"></path>
    
      <path d="M 661 539 Q 668 548 801 554 C 829 555 824 559 800 576 Q 794 580 786 587 Q 771 594 745 588 Q 699 578 662 571 C 633 565 635 524 661 539 Z" fill="lightgray"></path>
    
      <path d="M 497 420 Q 488 429 467 438 Q 460 441 450 438 Q 446 434 450 425 Q 451 419 453 415 Q 471 387 462 250 Q 441 199 477 156 Q 484 146 493 156 Q 500 168 501 181 L 503 210 Q 503 249 502 290 L 502 316 Q 502 355 503 396 C 503 415 503 415 497 420 Z" fill="lightgray"></path>
    
      <path d="M 611 192 Q 626 168 639 142 Q 648 126 656 124 Q 665 124 672 143 Q 684 173 679 295 Q 675 388 682 409 Q 689 425 679 433 Q 672 442 643 455 Q 630 462 600 450 Q 573 440 544 432 Q 523 426 497 420 C 468 413 474 389 503 396 Q 617 424 625 418 Q 631 412 632 273 Q 632 221 625 211 C 616 183 606 201 611 192 Z" fill="lightgray"></path>
    
      <path d="M 502 290 Q 505 290 510 290 Q 559 299 597 304 Q 619 310 610 321 Q 598 334 574 336 Q 526 339 502 316 C 480 296 473 290 502 290 Z" fill="lightgray"></path>
    
      <path d="M 501 181 Q 510 180 521 182 Q 549 189 611 192 C 638 193 638 193 625 211 Q 621 218 606 226 Q 591 233 565 226 Q 531 216 503 210 C 474 204 471 183 501 181 Z" fill="lightgray"></path>
    
    
      <clipPath id="make-me-a-hanzi-clip-0">
        <path d="M 178 677 Q 197 656 217 631 Q 230 615 249 615 Q 262 614 268 629 Q 275 645 268 680 Q 264 698 236 712 Q 167 742 152 735 Q 146 731 147 716 Q 150 703 178 677 Z"></path>
      </clipPath>
      <path clip-path="url(#make-me-a-hanzi-clip-0)" d="M 157 727 L 226 677 L 250 633" fill="none" id="make-me-a-hanzi-animation-0" stroke-dasharray="263 526" stroke-linecap="round"></path>
    
      <clipPath id="make-me-a-hanzi-clip-1">
        <path d="M 116 482 Q 161 430 193 417 Q 209 414 219 429 Q 225 442 222 460 Q 215 485 196 499 Q 141 532 104 526 Q 101 526 101 525 Q 94 524 97 510 Q 98 497 116 482 Z"></path>
      </clipPath>
      <path clip-path="url(#make-me-a-hanzi-clip-1)" d="M 106 516 L 171 475 L 198 439" fill="none" id="make-me-a-hanzi-animation-1" stroke-dasharray="250 500" stroke-linecap="round"></path>
    
      <clipPath id="make-me-a-hanzi-clip-2">
        <path d="M 123 142 Q 111 138 113 121 Q 129 49 164 28 Q 171 21 181 25 Q 188 26 189 51 Q 192 84 285 344 Q 292 360 291 366 Q 290 376 281 369 Q 269 362 161 183 Q 149 164 123 142 Z"></path>
      </clipPath>
      <path clip-path="url(#make-me-a-hanzi-clip-2)" d="M 175 35 L 161 77 L 160 116 L 285 363" fill="none" id="make-me-a-hanzi-animation-2" stroke-dasharray="488 976" stroke-linecap="round"></path>
    
      <clipPath id="make-me-a-hanzi-clip-3">
        <path d="M 360 690 Q 338 708 311 716 Q 302 717 296 710 Q 292 704 300 693 Q 357 558 318 255 Q 311 207 295 157 Q 288 130 291 111 Q 301 77 312 64 Q 324 51 334 65 Q 364 98 365 319 Q 365 401 366 485 L 366 516 Q 366 546 368 570 L 370 605 Q 371 644 375 662 Q 375 665 375 667 C 376 678 376 678 360 690 Z"></path>
      </clipPath>
      <path clip-path="url(#make-me-a-hanzi-clip-3)" d="M 305 705 L 331 682 L 344 659 L 349 577 L 343 255 L 321 120 L 323 70" fill="none" id="make-me-a-hanzi-animation-3" stroke-dasharray="780 1560" stroke-linecap="round"></path>
    
      <clipPath id="make-me-a-hanzi-clip-4">
        <path d="M 457 496 Q 458 495 460 491 Q 479 463 499 486 Q 508 498 518 562 Q 524 643 543 672 Q 553 688 541 701 Q 525 714 498 729 Q 485 733 470 728 Q 419 706 360 690 C 331 682 347 657 375 667 Q 459 697 472 690 Q 479 686 478 661 Q 469 534 464 522 C 458 494 456 498 457 496 Z"></path>
      </clipPath>
      <path clip-path="url(#make-me-a-hanzi-clip-4)" d="M 369 687 L 383 681 L 428 699 L 481 710 L 492 705 L 510 682 L 498 620 L 491 533 L 481 499 L 469 500" fill="none" id="make-me-a-hanzi-animation-4" stroke-dasharray="485 970" stroke-linecap="round"></path>
    
      <clipPath id="make-me-a-hanzi-clip-5">
        <path d="M 368 570 Q 410 580 442 584 Q 463 590 454 601 Q 442 614 418 615 Q 399 616 370 605 C 342 595 339 563 368 570 Z"></path>
      </clipPath>
      <path clip-path="url(#make-me-a-hanzi-clip-5)" d="M 375 575 L 394 595 L 445 595" fill="none" id="make-me-a-hanzi-animation-5" stroke-dasharray="207 414" stroke-linecap="round"></path>
    
      <clipPath id="make-me-a-hanzi-clip-6">
        <path d="M 366 485 Q 370 485 377 486 Q 402 493 457 496 C 487 498 486 502 464 522 Q 460 526 454 530 Q 439 537 366 516 C 337 508 336 484 366 485 Z"></path>
      </clipPath>
      <path clip-path="url(#make-me-a-hanzi-clip-6)" d="M 371 493 L 383 506 L 453 518" fill="none" id="make-me-a-hanzi-animation-6" stroke-dasharray="217 434" stroke-linecap="round"></path>
    
      <clipPath id="make-me-a-hanzi-clip-7">
        <path d="M 639 758 Q 624 768 609 775 Q 603 778 598 774 Q 591 770 598 760 Q 622 708 617 598 Q 614 535 644 518 Q 657 512 661 538 L 661 539 L 662 571 L 660 597 Q 660 613 659 633 L 659 661 Q 659 694 663 727 C 665 742 664 742 639 758 Z"></path>
      </clipPath>
      <path clip-path="url(#make-me-a-hanzi-clip-7)" d="M 604 767 L 624 746 L 637 720 L 638 588 L 647 531" fill="none" id="make-me-a-hanzi-animation-7" stroke-dasharray="376 752" stroke-linecap="round"></path>
    
      <clipPath id="make-me-a-hanzi-clip-8">
        <path d="M 801 554 Q 813 97 790 58 Q 786 52 766 56 Q 741 60 716 66 Q 695 73 696 63 Q 751 12 781 -24 Q 794 -43 811 -49 Q 821 -53 830 -42 Q 872 6 871 66 Q 856 285 853 639 Q 852 700 866 728 Q 879 749 866 760 Q 844 779 804 795 Q 785 802 769 796 Q 721 769 639 758 C 609 753 634 721 663 727 Q 708 736 756 747 Q 775 750 783 739 Q 798 726 797 680 Q 798 628 800 576 L 801 554 Z"></path>
      </clipPath>
      <path clip-path="url(#make-me-a-hanzi-clip-8)" d="M 648 757 L 670 746 L 780 772 L 800 765 L 828 737 L 832 60 L 823 29 L 811 15 L 783 22 L 706 60" fill="none" id="make-me-a-hanzi-animation-8" stroke-dasharray="1169 2338" stroke-linecap="round"></path>
    
      <clipPath id="make-me-a-hanzi-clip-9">
        <path d="M 659 633 Q 713 639 752 645 Q 774 649 765 661 Q 755 674 731 678 Q 689 681 659 661 C 634 645 629 630 659 633 Z"></path>
      </clipPath>
      <path clip-path="url(#make-me-a-hanzi-clip-9)" d="M 667 640 L 675 652 L 696 657 L 734 660 L 756 655" fill="none" id="make-me-a-hanzi-animation-9" stroke-dasharray="225 450" stroke-linecap="round"></path>
    
      <clipPath id="make-me-a-hanzi-clip-10">
        <path d="M 661 539 Q 668 548 801 554 C 829 555 824 559 800 576 Q 794 580 786 587 Q 771 594 745 588 Q 699 578 662 571 C 633 565 635 524 661 539 Z"></path>
      </clipPath>
      <path clip-path="url(#make-me-a-hanzi-clip-10)" d="M 666 546 L 676 559 L 767 572 L 783 567 L 787 559" fill="none" id="make-me-a-hanzi-animation-10" stroke-dasharray="262 524" stroke-linecap="round"></path>
    
      <clipPath id="make-me-a-hanzi-clip-11">
        <path d="M 497 420 Q 488 429 467 438 Q 460 441 450 438 Q 446 434 450 425 Q 451 419 453 415 Q 471 387 462 250 Q 441 199 477 156 Q 484 146 493 156 Q 500 168 501 181 L 503 210 Q 503 249 502 290 L 502 316 Q 502 355 503 396 C 503 415 503 415 497 420 Z"></path>
      </clipPath>
      <path clip-path="url(#make-me-a-hanzi-clip-11)" d="M 456 432 L 479 408 L 482 397 L 484 297 L 478 210 L 485 160" fill="none" id="make-me-a-hanzi-animation-11" stroke-dasharray="410 820" stroke-linecap="round"></path>
    
      <clipPath id="make-me-a-hanzi-clip-12">
        <path d="M 611 192 Q 626 168 639 142 Q 648 126 656 124 Q 665 124 672 143 Q 684 173 679 295 Q 675 388 682 409 Q 689 425 679 433 Q 672 442 643 455 Q 630 462 600 450 Q 573 440 544 432 Q 523 426 497 420 C 468 413 474 389 503 396 Q 617 424 625 418 Q 631 412 632 273 Q 632 221 625 211 C 616 183 606 201 611 192 Z"></path>
      </clipPath>
      <path clip-path="url(#make-me-a-hanzi-clip-12)" d="M 505 416 L 516 409 L 614 438 L 633 437 L 655 417 L 656 239 L 648 189 L 656 133" fill="none" id="make-me-a-hanzi-animation-12" stroke-dasharray="577 1154" stroke-linecap="round"></path>
    
      <clipPath id="make-me-a-hanzi-clip-13">
        <path d="M 502 290 Q 505 290 510 290 Q 559 299 597 304 Q 619 310 610 321 Q 598 334 574 336 Q 526 339 502 316 C 480 296 473 290 502 290 Z"></path>
      </clipPath>
      <path clip-path="url(#make-me-a-hanzi-clip-13)" d="M 506 297 L 537 315 L 600 315" fill="none" id="make-me-a-hanzi-animation-13" stroke-dasharray="227 454" stroke-linecap="round"></path>
    
      <clipPath id="make-me-a-hanzi-clip-14">
        <path d="M 501 181 Q 510 180 521 182 Q 549 189 611 192 C 638 193 638 193 625 211 Q 621 218 606 226 Q 591 233 565 226 Q 531 216 503 210 C 474 204 471 183 501 181 Z"></path>
      </clipPath>
      <path clip-path="url(#make-me-a-hanzi-clip-14)" d="M 506 188 L 518 197 L 563 207 L 617 210" fill="none" id="make-me-a-hanzi-animation-14" stroke-dasharray="243 486" stroke-linecap="round"></path>
    
  </g>
</svg>