<svg version="1.1" viewBox="0 0 1024 1024" xmlns="http://www.w3.org/2000/svg">
  <g stroke="lightgray" stroke-dasharray="1,1" stroke-width="1" transform="scale(4, 4)">
    <line x1="0" y1="0" x2="256" y2="256"></line>
    <line x1="256" y1="0" x2="0" y2="256"></line>
    <line x1="128" y1="0" x2="128" y2="256"></line>
    <line x1="0" y1="128" x2="256" y2="128"></line>
  </g>
  <g transform="scale(1, -1) translate(0, -900)">
    <style type="text/css">
      
        @keyframes keyframes0 {
          from {
            stroke: blue;
            stroke-dashoffset: 431;
            stroke-width: 128;
          }
          58% {
            animation-timing-function: step-end;
            stroke: blue;
            stroke-dashoffset: 0;
            stroke-width: 128;
          }
          to {
            stroke: black;
            stroke-width: 1024;
          }
        }
        #make-me-a-hanzi-animation-0 {
          animation: keyframes0 0.6007486979166666s both;
          animation-delay: 0s;
          animation-timing-function: linear;
        }
      
        @keyframes keyframes1 {
          from {
            stroke: blue;
            stroke-dashoffset: 427;
            stroke-width: 128;
          }
          58% {
            animation-timing-function: step-end;
            stroke: blue;
            stroke-dashoffset: 0;
            stroke-width: 128;
          }
          to {
            stroke: black;
            stroke-width: 1024;
          }
        }
        #make-me-a-hanzi-animation-1 {
          animation: keyframes1 0.5974934895833334s both;
          animation-delay: 0.6007486979166666s;
          animation-timing-function: linear;
        }
      
        @keyframes keyframes2 {
          from {
            stroke: blue;
            stroke-dashoffset: 1057;
            stroke-width: 128;
          }
          77% {
            animation-timing-function: step-end;
            stroke: blue;
            stroke-dashoffset: 0;
            stroke-width: 128;
          }
          to {
            stroke: black;
            stroke-width: 1024;
          }
        }
        #make-me-a-hanzi-animation-2 {
          animation: keyframes2 1.1101888020833333s both;
          animation-delay: 1.1982421875s;
          animation-timing-function: linear;
        }
      
        @keyframes keyframes3 {
          from {
            stroke: blue;
            stroke-dashoffset: 407;
            stroke-width: 128;
          }
          57% {
            animation-timing-function: step-end;
            stroke: blue;
            stroke-dashoffset: 0;
            stroke-width: 128;
          }
          to {
            stroke: black;
            stroke-width: 1024;
          }
        }
        #make-me-a-hanzi-animation-3 {
          animation: keyframes3 0.5812174479166666s both;
          animation-delay: 2.308430989583333s;
          animation-timing-function: linear;
        }
      
        @keyframes keyframes4 {
          from {
            stroke: blue;
            stroke-dashoffset: 703;
            stroke-width: 128;
          }
          70% {
            animation-timing-function: step-end;
            stroke: blue;
            stroke-dashoffset: 0;
            stroke-width: 128;
          }
          to {
            stroke: black;
            stroke-width: 1024;
          }
        }
        #make-me-a-hanzi-animation-4 {
          animation: keyframes4 0.8221028645833334s both;
          animation-delay: 2.8896484374999996s;
          animation-timing-function: linear;
        }
      
        @keyframes keyframes5 {
          from {
            stroke: blue;
            stroke-dashoffset: 655;
            stroke-width: 128;
          }
          68% {
            animation-timing-function: step-end;
            stroke: blue;
            stroke-dashoffset: 0;
            stroke-width: 128;
          }
          to {
            stroke: black;
            stroke-width: 1024;
          }
        }
        #make-me-a-hanzi-animation-5 {
          animation: keyframes5 0.7830403645833334s both;
          animation-delay: 3.711751302083333s;
          animation-timing-function: linear;
        }
      
        @keyframes keyframes6 {
          from {
            stroke: blue;
            stroke-dashoffset: 773;
            stroke-width: 128;
          }
          72% {
            animation-timing-function: step-end;
            stroke: blue;
            stroke-dashoffset: 0;
            stroke-width: 128;
          }
          to {
            stroke: black;
            stroke-width: 1024;
          }
        }
        #make-me-a-hanzi-animation-6 {
          animation: keyframes6 0.8790690104166666s both;
          animation-delay: 4.494791666666666s;
          animation-timing-function: linear;
        }
      
        @keyframes keyframes7 {
          from {
            stroke: blue;
            stroke-dashoffset: 727;
            stroke-width: 128;
          }
          70% {
            animation-timing-function: step-end;
            stroke: blue;
            stroke-dashoffset: 0;
            stroke-width: 128;
          }
          to {
            stroke: black;
            stroke-width: 1024;
          }
        }
        #make-me-a-hanzi-animation-7 {
          animation: keyframes7 0.8416341145833334s both;
          animation-delay: 5.373860677083333s;
          animation-timing-function: linear;
        }
      
    </style>
    
      <path d="M 156 545 Q 146 487 127 430 Q 115 393 141 362 Q 154 346 172 364 Q 190 386 196 422 Q 203 462 197 493 Q 194 527 180 551 Q 173 558 167 558 Q 158 554 156 545 Z" fill="lightgray"></path>
    
      <path d="M 315 494 Q 366 515 419 540 Q 438 552 462 557 Q 481 563 475 580 Q 466 598 445 614 Q 426 630 414 630 Q 402 630 404 618 Q 404 597 329 530 Q 323 526 317 519 C 297 497 287 483 315 494 Z" fill="lightgray"></path>
    
      <path d="M 300 303 Q 309 373 315 494 L 317 519 Q 318 642 344 706 Q 351 721 339 732 Q 317 751 275 763 Q 250 769 240 762 Q 230 755 238 742 Q 299 649 252 309 Q 228 186 150 104 Q 126 83 99 60 Q 87 51 88 47 Q 89 43 101 44 Q 114 40 146 56 Q 254 102 290 251 Q 293 264 295 278 L 300 303 Z" fill="lightgray"></path>
    
      <path d="M 295 278 Q 302 269 318 254 Q 349 223 382 187 Q 394 174 409 173 Q 419 173 425 185 Q 431 198 425 228 Q 418 264 317 300 Q 307 304 300 303 C 274 303 276 301 295 278 Z" fill="lightgray"></path>
    
      <path d="M 556 542 Q 592 602 628 687 Q 644 729 660 751 Q 667 763 661 776 Q 654 788 622 806 Q 592 819 573 817 Q 554 811 567 791 Q 612 724 450 432 Q 441 420 440 414 Q 439 402 452 407 Q 479 417 541 518 L 556 542 Z" fill="lightgray"></path>
    
      <path d="M 541 518 Q 560 502 581 510 Q 645 535 717 551 Q 754 561 767 558 Q 777 545 770 538 Q 770 535 739 468 Q 732 458 737 453 Q 741 447 752 459 Q 843 523 883 538 Q 892 539 893 548 Q 893 561 865 574 Q 795 611 781 604 Q 696 568 556 542 C 527 536 516 534 541 518 Z" fill="lightgray"></path>
    
      <path d="M 612 323 Q 627 398 639 417 Q 649 436 632 446 Q 581 483 556 474 Q 543 470 549 454 Q 579 394 538 259 Q 502 148 391 74 Q 379 65 368 56 Q 355 47 367 44 Q 427 44 498 108 Q 577 172 604 288 L 612 323 Z" fill="lightgray"></path>
    
      <path d="M 604 288 Q 674 170 765 43 Q 783 22 813 21 Q 919 18 953 22 Q 963 23 964 29 Q 965 33 952 43 Q 805 110 724 197 Q 670 251 612 323 C 593 346 589 314 604 288 Z" fill="lightgray"></path>
    
    
      <clipPath id="make-me-a-hanzi-clip-0">
        <path d="M 156 545 Q 146 487 127 430 Q 115 393 141 362 Q 154 346 172 364 Q 190 386 196 422 Q 203 462 197 493 Q 194 527 180 551 Q 173 558 167 558 Q 158 554 156 545 Z"></path>
      </clipPath>
      <path clip-path="url(#make-me-a-hanzi-clip-0)" d="M 169 547 L 171 483 L 156 373" fill="none" id="make-me-a-hanzi-animation-0" stroke-dasharray="303 606" stroke-linecap="round"></path>
    
      <clipPath id="make-me-a-hanzi-clip-1">
        <path d="M 315 494 Q 366 515 419 540 Q 438 552 462 557 Q 481 563 475 580 Q 466 598 445 614 Q 426 630 414 630 Q 402 630 404 618 Q 404 597 329 530 Q 323 526 317 519 C 297 497 287 483 315 494 Z"></path>
      </clipPath>
      <path clip-path="url(#make-me-a-hanzi-clip-1)" d="M 416 618 L 425 581 L 347 528 L 320 500" fill="none" id="make-me-a-hanzi-animation-1" stroke-dasharray="299 598" stroke-linecap="round"></path>
    
      <clipPath id="make-me-a-hanzi-clip-2">
        <path d="M 300 303 Q 309 373 315 494 L 317 519 Q 318 642 344 706 Q 351 721 339 732 Q 317 751 275 763 Q 250 769 240 762 Q 230 755 238 742 Q 299 649 252 309 Q 228 186 150 104 Q 126 83 99 60 Q 87 51 88 47 Q 89 43 101 44 Q 114 40 146 56 Q 254 102 290 251 Q 293 264 295 278 L 300 303 Z"></path>
      </clipPath>
      <path clip-path="url(#make-me-a-hanzi-clip-2)" d="M 247 751 L 275 734 L 299 707 L 291 447 L 270 275 L 245 199 L 203 127 L 167 90 L 95 47" fill="none" id="make-me-a-hanzi-animation-2" stroke-dasharray="929 1858" stroke-linecap="round"></path>
    
      <clipPath id="make-me-a-hanzi-clip-3">
        <path d="M 295 278 Q 302 269 318 254 Q 349 223 382 187 Q 394 174 409 173 Q 419 173 425 185 Q 431 198 425 228 Q 418 264 317 300 Q 307 304 300 303 C 274 303 276 301 295 278 Z"></path>
      </clipPath>
      <path clip-path="url(#make-me-a-hanzi-clip-3)" d="M 304 296 L 313 283 L 385 232 L 408 191" fill="none" id="make-me-a-hanzi-animation-3" stroke-dasharray="279 558" stroke-linecap="round"></path>
    
      <clipPath id="make-me-a-hanzi-clip-4">
        <path d="M 556 542 Q 592 602 628 687 Q 644 729 660 751 Q 667 763 661 776 Q 654 788 622 806 Q 592 819 573 817 Q 554 811 567 791 Q 612 724 450 432 Q 441 420 440 414 Q 439 402 452 407 Q 479 417 541 518 L 556 542 Z"></path>
      </clipPath>
      <path clip-path="url(#make-me-a-hanzi-clip-4)" d="M 576 803 L 604 781 L 617 760 L 603 706 L 564 606 L 519 517 L 449 415" fill="none" id="make-me-a-hanzi-animation-4" stroke-dasharray="575 1150" stroke-linecap="round"></path>
    
      <clipPath id="make-me-a-hanzi-clip-5">
        <path d="M 541 518 Q 560 502 581 510 Q 645 535 717 551 Q 754 561 767 558 Q 777 545 770 538 Q 770 535 739 468 Q 732 458 737 453 Q 741 447 752 459 Q 843 523 883 538 Q 892 539 893 548 Q 893 561 865 574 Q 795 611 781 604 Q 696 568 556 542 C 527 536 516 534 541 518 Z"></path>
      </clipPath>
      <path clip-path="url(#make-me-a-hanzi-clip-5)" d="M 551 520 L 743 574 L 788 577 L 815 551 L 742 460" fill="none" id="make-me-a-hanzi-animation-5" stroke-dasharray="527 1054" stroke-linecap="round"></path>
    
      <clipPath id="make-me-a-hanzi-clip-6">
        <path d="M 612 323 Q 627 398 639 417 Q 649 436 632 446 Q 581 483 556 474 Q 543 470 549 454 Q 579 394 538 259 Q 502 148 391 74 Q 379 65 368 56 Q 355 47 367 44 Q 427 44 498 108 Q 577 172 604 288 L 612 323 Z"></path>
      </clipPath>
      <path clip-path="url(#make-me-a-hanzi-clip-6)" d="M 559 462 L 583 444 L 598 421 L 581 312 L 551 217 L 516 159 L 465 106 L 417 71 L 373 50" fill="none" id="make-me-a-hanzi-animation-6" stroke-dasharray="645 1290" stroke-linecap="round"></path>
    
      <clipPath id="make-me-a-hanzi-clip-7">
        <path d="M 604 288 Q 674 170 765 43 Q 783 22 813 21 Q 919 18 953 22 Q 963 23 964 29 Q 965 33 952 43 Q 805 110 724 197 Q 670 251 612 323 C 593 346 589 314 604 288 Z"></path>
      </clipPath>
      <path clip-path="url(#make-me-a-hanzi-clip-7)" d="M 616 316 L 620 289 L 637 265 L 720 158 L 797 76 L 825 62 L 956 29" fill="none" id="make-me-a-hanzi-animation-7" stroke-dasharray="599 1198" stroke-linecap="round"></path>
    
  </g>
</svg>