<svg version="1.1" viewBox="0 0 1024 1024" xmlns="http://www.w3.org/2000/svg">
  <g stroke="lightgray" stroke-dasharray="1,1" stroke-width="1" transform="scale(4, 4)">
    <line x1="0" y1="0" x2="256" y2="256"></line>
    <line x1="256" y1="0" x2="0" y2="256"></line>
    <line x1="128" y1="0" x2="128" y2="256"></line>
    <line x1="0" y1="128" x2="256" y2="128"></line>
  </g>
  <g transform="scale(1, -1) translate(0, -900)">
    <style type="text/css">
      
        @keyframes keyframes0 {
          from {
            stroke: blue;
            stroke-dashoffset: 402;
            stroke-width: 128;
          }
          57% {
            animation-timing-function: step-end;
            stroke: blue;
            stroke-dashoffset: 0;
            stroke-width: 128;
          }
          to {
            stroke: black;
            stroke-width: 1024;
          }
        }
        #make-me-a-hanzi-animation-0 {
          animation: keyframes0 0.5771484375s both;
          animation-delay: 0s;
          animation-timing-function: linear;
        }
      
        @keyframes keyframes1 {
          from {
            stroke: blue;
            stroke-dashoffset: 381;
            stroke-width: 128;
          }
          55% {
            animation-timing-function: step-end;
            stroke: blue;
            stroke-dashoffset: 0;
            stroke-width: 128;
          }
          to {
            stroke: black;
            stroke-width: 1024;
          }
        }
        #make-me-a-hanzi-animation-1 {
          animation: keyframes1 0.56005859375s both;
          animation-delay: 0.5771484375s;
          animation-timing-function: linear;
        }
      
        @keyframes keyframes2 {
          from {
            stroke: blue;
            stroke-dashoffset: 1046;
            stroke-width: 128;
          }
          77% {
            animation-timing-function: step-end;
            stroke: blue;
            stroke-dashoffset: 0;
            stroke-width: 128;
          }
          to {
            stroke: black;
            stroke-width: 1024;
          }
        }
        #make-me-a-hanzi-animation-2 {
          animation: keyframes2 1.1012369791666667s both;
          animation-delay: 1.13720703125s;
          animation-timing-function: linear;
        }
      
        @keyframes keyframes3 {
          from {
            stroke: blue;
            stroke-dashoffset: 358;
            stroke-width: 128;
          }
          54% {
            animation-timing-function: step-end;
            stroke: blue;
            stroke-dashoffset: 0;
            stroke-width: 128;
          }
          to {
            stroke: black;
            stroke-width: 1024;
          }
        }
        #make-me-a-hanzi-animation-3 {
          animation: keyframes3 0.5413411458333334s both;
          animation-delay: 2.238444010416667s;
          animation-timing-function: linear;
        }
      
        @keyframes keyframes4 {
          from {
            stroke: blue;
            stroke-dashoffset: 436;
            stroke-width: 128;
          }
          59% {
            animation-timing-function: step-end;
            stroke: blue;
            stroke-dashoffset: 0;
            stroke-width: 128;
          }
          to {
            stroke: black;
            stroke-width: 1024;
          }
        }
        #make-me-a-hanzi-animation-4 {
          animation: keyframes4 0.6048177083333334s both;
          animation-delay: 2.7797851562500004s;
          animation-timing-function: linear;
        }
      
        @keyframes keyframes5 {
          from {
            stroke: blue;
            stroke-dashoffset: 899;
            stroke-width: 128;
          }
          75% {
            animation-timing-function: step-end;
            stroke: blue;
            stroke-dashoffset: 0;
            stroke-width: 128;
          }
          to {
            stroke: black;
            stroke-width: 1024;
          }
        }
        #make-me-a-hanzi-animation-5 {
          animation: keyframes5 0.9816080729166666s both;
          animation-delay: 3.384602864583334s;
          animation-timing-function: linear;
        }
      
        @keyframes keyframes6 {
          from {
            stroke: blue;
            stroke-dashoffset: 367;
            stroke-width: 128;
          }
          54% {
            animation-timing-function: step-end;
            stroke: blue;
            stroke-dashoffset: 0;
            stroke-width: 128;
          }
          to {
            stroke: black;
            stroke-width: 1024;
          }
        }
        #make-me-a-hanzi-animation-6 {
          animation: keyframes6 0.5486653645833334s both;
          animation-delay: 4.366210937500001s;
          animation-timing-function: linear;
        }
      
        @keyframes keyframes7 {
          from {
            stroke: blue;
            stroke-dashoffset: 364;
            stroke-width: 128;
          }
          54% {
            animation-timing-function: step-end;
            stroke: blue;
            stroke-dashoffset: 0;
            stroke-width: 128;
          }
          to {
            stroke: black;
            stroke-width: 1024;
          }
        }
        #make-me-a-hanzi-animation-7 {
          animation: keyframes7 0.5462239583333334s both;
          animation-delay: 4.914876302083334s;
          animation-timing-function: linear;
        }
      
        @keyframes keyframes8 {
          from {
            stroke: blue;
            stroke-dashoffset: 537;
            stroke-width: 128;
          }
          64% {
            animation-timing-function: step-end;
            stroke: blue;
            stroke-dashoffset: 0;
            stroke-width: 128;
          }
          to {
            stroke: black;
            stroke-width: 1024;
          }
        }
        #make-me-a-hanzi-animation-8 {
          animation: keyframes8 0.68701171875s both;
          animation-delay: 5.461100260416667s;
          animation-timing-function: linear;
        }
      
        @keyframes keyframes9 {
          from {
            stroke: blue;
            stroke-dashoffset: 527;
            stroke-width: 128;
          }
          63% {
            animation-timing-function: step-end;
            stroke: blue;
            stroke-dashoffset: 0;
            stroke-width: 128;
          }
          to {
            stroke: black;
            stroke-width: 1024;
          }
        }
        #make-me-a-hanzi-animation-9 {
          animation: keyframes9 0.6788736979166666s both;
          animation-delay: 6.148111979166667s;
          animation-timing-function: linear;
        }
      
        @keyframes keyframes10 {
          from {
            stroke: blue;
            stroke-dashoffset: 677;
            stroke-width: 128;
          }
          69% {
            animation-timing-function: step-end;
            stroke: blue;
            stroke-dashoffset: 0;
            stroke-width: 128;
          }
          to {
            stroke: black;
            stroke-width: 1024;
          }
        }
        #make-me-a-hanzi-animation-10 {
          animation: keyframes10 0.8009440104166666s both;
          animation-delay: 6.826985677083334s;
          animation-timing-function: linear;
        }
      
        @keyframes keyframes11 {
          from {
            stroke: blue;
            stroke-dashoffset: 844;
            stroke-width: 128;
          }
          73% {
            animation-timing-function: step-end;
            stroke: blue;
            stroke-dashoffset: 0;
            stroke-width: 128;
          }
          to {
            stroke: black;
            stroke-width: 1024;
          }
        }
        #make-me-a-hanzi-animation-11 {
          animation: keyframes11 0.9368489583333334s both;
          animation-delay: 7.627929687500001s;
          animation-timing-function: linear;
        }
      
        @keyframes keyframes12 {
          from {
            stroke: blue;
            stroke-dashoffset: 695;
            stroke-width: 128;
          }
          69% {
            animation-timing-function: step-end;
            stroke: blue;
            stroke-dashoffset: 0;
            stroke-width: 128;
          }
          to {
            stroke: black;
            stroke-width: 1024;
          }
        }
        #make-me-a-hanzi-animation-12 {
          animation: keyframes12 0.8155924479166666s both;
          animation-delay: 8.564778645833334s;
          animation-timing-function: linear;
        }
      
    </style>
    
      <path d="M 107 526 Q 113 475 111 425 Q 107 392 138 373 Q 151 363 162 382 Q 183 436 152 493 Q 142 521 125 536 Q 118 540 113 538 Q 107 534 107 526 Z" fill="lightgray"></path>
    
      <path d="M 264 485 Q 328 528 361 543 Q 374 546 372 555 Q 368 567 354 581 Q 341 596 323 598 Q 313 598 312 583 Q 313 568 264 508 C 245 485 239 468 264 485 Z" fill="lightgray"></path>
    
      <path d="M 260 354 Q 260 367 261 381 Q 262 433 264 485 L 264 508 Q 265 656 289 723 Q 295 736 284 747 Q 263 765 225 774 Q 201 780 193 773 Q 184 766 192 755 Q 252 662 208 287 Q 178 175 140 128 Q 115 100 79 71 Q 69 62 68 58 Q 69 54 81 55 Q 91 52 121 67 Q 215 106 246 239 Q 255 279 258 328 L 260 354 Z" fill="lightgray"></path>
    
      <path d="M 258 328 Q 321 265 329 264 Q 336 263 342 273 Q 346 283 341 305 Q 338 321 316 333 Q 271 354 260 354 C 230 358 237 349 258 328 Z" fill="lightgray"></path>
    
      <path d="M 451 646 Q 481 668 499 686 Q 553 737 574 747 Q 593 757 581 773 Q 568 788 543 798 Q 521 808 509 805 Q 497 802 503 791 Q 509 766 437 664 Q 434 663 433 658 C 418 632 427 628 451 646 Z" fill="lightgray"></path>
    
      <path d="M 454 259 Q 454 316 454 371 L 453 401 Q 453 459 453 503 L 454 531 Q 455 598 460 623 Q 461 638 451 646 L 433 658 Q 415 670 395 676 Q 385 677 380 669 Q 376 663 384 653 Q 409 592 413 523 Q 420 348 409 238 L 399 181 Q 378 88 391 55 Q 397 40 404 32 Q 416 19 425 33 Q 452 61 454 220 L 454 259 Z" fill="lightgray"></path>
    
      <path d="M 453 503 L 558 526 Q 580 533 570 545 Q 557 558 532 558 Q 499 558 454 531 C 428 516 424 497 453 503 Z" fill="lightgray"></path>
    
      <path d="M 454 371 Q 455 371 460 371 Q 514 384 554 394 Q 576 401 566 413 Q 553 426 528 426 Q 479 426 453 401 C 431 381 424 371 454 371 Z" fill="lightgray"></path>
    
      <path d="M 454 220 Q 548 280 559 292 Q 569 299 568 307 Q 564 311 553 308 Q 507 286 454 259 L 409 238 Q 379 226 350 212 Q 335 205 311 202 Q 301 201 300 191 Q 300 181 308 175 Q 329 165 358 153 Q 367 152 376 160 Q 386 172 399 181 L 454 220 Z" fill="lightgray"></path>
    
      <path d="M 648 704 Q 638 710 624 714 Q 609 721 601 716 Q 594 710 598 701 Q 620 679 613 560 Q 612 557 611 551 Q 611 550 579 454 Q 578 447 585 449 Q 604 455 636 519 Q 636 522 637 523 Q 658 574 659 657 Q 659 666 660 674 C 662 697 662 697 648 704 Z" fill="lightgray"></path>
    
      <path d="M 887 516 Q 900 520 891 534 Q 878 550 861 557 Q 851 563 831 553 Q 815 544 792 545 Q 779 545 774 555 Q 762 573 769 628 Q 770 662 801 698 Q 814 713 799 724 Q 777 740 754 748 Q 748 751 685 717 Q 673 711 648 704 C 619 695 631 668 660 674 Q 675 674 704 694 Q 717 703 724 702 Q 731 701 731 688 Q 727 565 733 545 Q 733 527 755 513 Q 777 500 822 502 Q 865 503 887 516 Z" fill="lightgray"></path>
    
      <path d="M 734 227 Q 768 279 789 362 Q 795 395 812 412 Q 825 427 808 440 Q 787 455 756 465 Q 735 471 715 459 Q 687 437 643 424 Q 618 420 608 412 Q 601 405 618 398 Q 646 386 711 415 Q 730 422 732 401 Q 732 332 697 265 L 677 230 Q 635 172 516 130 Q 501 126 511 118 Q 518 114 545 118 Q 617 128 659 150 Q 684 165 706 189 L 734 227 Z" fill="lightgray"></path>
    
      <path d="M 706 189 Q 736 149 784 97 Q 806 78 841 82 Q 887 86 921 90 Q 931 91 942 95 Q 949 99 940 108 Q 928 115 834 157 Q 810 167 734 227 L 697 265 Q 672 295 644 331 Q 631 350 606 355 Q 596 356 588 352 Q 584 346 590 340 Q 620 319 677 230 L 706 189 Z" fill="lightgray"></path>
    
    
      <clipPath id="make-me-a-hanzi-clip-0">
        <path d="M 107 526 Q 113 475 111 425 Q 107 392 138 373 Q 151 363 162 382 Q 183 436 152 493 Q 142 521 125 536 Q 118 540 113 538 Q 107 534 107 526 Z"></path>
      </clipPath>
      <path clip-path="url(#make-me-a-hanzi-clip-0)" d="M 118 528 L 135 475 L 147 385" fill="none" id="make-me-a-hanzi-animation-0" stroke-dasharray="274 548" stroke-linecap="round"></path>
    
      <clipPath id="make-me-a-hanzi-clip-1">
        <path d="M 264 485 Q 328 528 361 543 Q 374 546 372 555 Q 368 567 354 581 Q 341 596 323 598 Q 313 598 312 583 Q 313 568 264 508 C 245 485 239 468 264 485 Z"></path>
      </clipPath>
      <path clip-path="url(#make-me-a-hanzi-clip-1)" d="M 362 553 L 334 561 L 279 511 L 271 491" fill="none" id="make-me-a-hanzi-animation-1" stroke-dasharray="253 506" stroke-linecap="round"></path>
    
      <clipPath id="make-me-a-hanzi-clip-2">
        <path d="M 260 354 Q 260 367 261 381 Q 262 433 264 485 L 264 508 Q 265 656 289 723 Q 295 736 284 747 Q 263 765 225 774 Q 201 780 193 773 Q 184 766 192 755 Q 252 662 208 287 Q 178 175 140 128 Q 115 100 79 71 Q 69 62 68 58 Q 69 54 81 55 Q 91 52 121 67 Q 215 106 246 239 Q 255 279 258 328 L 260 354 Z"></path>
      </clipPath>
      <path clip-path="url(#make-me-a-hanzi-clip-2)" d="M 200 764 L 248 724 L 244 463 L 230 277 L 215 219 L 184 149 L 141 100 L 75 57" fill="none" id="make-me-a-hanzi-animation-2" stroke-dasharray="918 1836" stroke-linecap="round"></path>
    
      <clipPath id="make-me-a-hanzi-clip-3">
        <path d="M 258 328 Q 321 265 329 264 Q 336 263 342 273 Q 346 283 341 305 Q 338 321 316 333 Q 271 354 260 354 C 230 358 237 349 258 328 Z"></path>
      </clipPath>
      <path clip-path="url(#make-me-a-hanzi-clip-3)" d="M 263 347 L 318 302 L 331 274" fill="none" id="make-me-a-hanzi-animation-3" stroke-dasharray="230 460" stroke-linecap="round"></path>
    
      <clipPath id="make-me-a-hanzi-clip-4">
        <path d="M 451 646 Q 481 668 499 686 Q 553 737 574 747 Q 593 757 581 773 Q 568 788 543 798 Q 521 808 509 805 Q 497 802 503 791 Q 509 766 437 664 Q 434 663 433 658 C 418 632 427 628 451 646 Z"></path>
      </clipPath>
      <path clip-path="url(#make-me-a-hanzi-clip-4)" d="M 514 794 L 535 764 L 463 673 L 440 658" fill="none" id="make-me-a-hanzi-animation-4" stroke-dasharray="308 616" stroke-linecap="round"></path>
    
      <clipPath id="make-me-a-hanzi-clip-5">
        <path d="M 454 259 Q 454 316 454 371 L 453 401 Q 453 459 453 503 L 454 531 Q 455 598 460 623 Q 461 638 451 646 L 433 658 Q 415 670 395 676 Q 385 677 380 669 Q 376 663 384 653 Q 409 592 413 523 Q 420 348 409 238 L 399 181 Q 378 88 391 55 Q 397 40 404 32 Q 416 19 425 33 Q 452 61 454 220 L 454 259 Z"></path>
      </clipPath>
      <path clip-path="url(#make-me-a-hanzi-clip-5)" d="M 390 664 L 428 623 L 434 542 L 433 253 L 414 83 L 414 37" fill="none" id="make-me-a-hanzi-animation-5" stroke-dasharray="771 1542" stroke-linecap="round"></path>
    
      <clipPath id="make-me-a-hanzi-clip-6">
        <path d="M 453 503 L 558 526 Q 580 533 570 545 Q 557 558 532 558 Q 499 558 454 531 C 428 516 424 497 453 503 Z"></path>
      </clipPath>
      <path clip-path="url(#make-me-a-hanzi-clip-6)" d="M 459 510 L 469 523 L 496 532 L 538 541 L 561 538" fill="none" id="make-me-a-hanzi-animation-6" stroke-dasharray="239 478" stroke-linecap="round"></path>
    
      <clipPath id="make-me-a-hanzi-clip-7">
        <path d="M 454 371 Q 455 371 460 371 Q 514 384 554 394 Q 576 401 566 413 Q 553 426 528 426 Q 479 426 453 401 C 431 381 424 371 454 371 Z"></path>
      </clipPath>
      <path clip-path="url(#make-me-a-hanzi-clip-7)" d="M 457 379 L 471 393 L 504 404 L 557 406" fill="none" id="make-me-a-hanzi-animation-7" stroke-dasharray="236 472" stroke-linecap="round"></path>
    
      <clipPath id="make-me-a-hanzi-clip-8">
        <path d="M 454 220 Q 548 280 559 292 Q 569 299 568 307 Q 564 311 553 308 Q 507 286 454 259 L 409 238 Q 379 226 350 212 Q 335 205 311 202 Q 301 201 300 191 Q 300 181 308 175 Q 329 165 358 153 Q 367 152 376 160 Q 386 172 399 181 L 454 220 Z"></path>
      </clipPath>
      <path clip-path="url(#make-me-a-hanzi-clip-8)" d="M 313 189 L 359 184 L 560 305" fill="none" id="make-me-a-hanzi-animation-8" stroke-dasharray="409 818" stroke-linecap="round"></path>
    
      <clipPath id="make-me-a-hanzi-clip-9">
        <path d="M 648 704 Q 638 710 624 714 Q 609 721 601 716 Q 594 710 598 701 Q 620 679 613 560 Q 612 557 611 551 Q 611 550 579 454 Q 578 447 585 449 Q 604 455 636 519 Q 636 522 637 523 Q 658 574 659 657 Q 659 666 660 674 C 662 697 662 697 648 704 Z"></path>
      </clipPath>
      <path clip-path="url(#make-me-a-hanzi-clip-9)" d="M 608 707 L 630 687 L 635 671 L 634 585 L 618 516 L 586 456" fill="none" id="make-me-a-hanzi-animation-9" stroke-dasharray="399 798" stroke-linecap="round"></path>
    
      <clipPath id="make-me-a-hanzi-clip-10">
        <path d="M 887 516 Q 900 520 891 534 Q 878 550 861 557 Q 851 563 831 553 Q 815 544 792 545 Q 779 545 774 555 Q 762 573 769 628 Q 770 662 801 698 Q 814 713 799 724 Q 777 740 754 748 Q 748 751 685 717 Q 673 711 648 704 C 619 695 631 668 660 674 Q 675 674 704 694 Q 717 703 724 702 Q 731 701 731 688 Q 727 565 733 545 Q 733 527 755 513 Q 777 500 822 502 Q 865 503 887 516 Z"></path>
      </clipPath>
      <path clip-path="url(#make-me-a-hanzi-clip-10)" d="M 657 702 L 670 693 L 724 720 L 752 716 L 762 706 L 749 650 L 747 608 L 757 540 L 786 524 L 813 523 L 851 532 L 885 526" fill="none" id="make-me-a-hanzi-animation-10" stroke-dasharray="549 1098" stroke-linecap="round"></path>
    
      <clipPath id="make-me-a-hanzi-clip-11">
        <path d="M 734 227 Q 768 279 789 362 Q 795 395 812 412 Q 825 427 808 440 Q 787 455 756 465 Q 735 471 715 459 Q 687 437 643 424 Q 618 420 608 412 Q 601 405 618 398 Q 646 386 711 415 Q 730 422 732 401 Q 732 332 697 265 L 677 230 Q 635 172 516 130 Q 501 126 511 118 Q 518 114 545 118 Q 617 128 659 150 Q 684 165 706 189 L 734 227 Z"></path>
      </clipPath>
      <path clip-path="url(#make-me-a-hanzi-clip-11)" d="M 616 407 L 660 412 L 732 440 L 753 433 L 768 415 L 748 317 L 701 222 L 653 173 L 598 145 L 516 123" fill="none" id="make-me-a-hanzi-animation-11" stroke-dasharray="716 1432" stroke-linecap="round"></path>
    
      <clipPath id="make-me-a-hanzi-clip-12">
        <path d="M 706 189 Q 736 149 784 97 Q 806 78 841 82 Q 887 86 921 90 Q 931 91 942 95 Q 949 99 940 108 Q 928 115 834 157 Q 810 167 734 227 L 697 265 Q 672 295 644 331 Q 631 350 606 355 Q 596 356 588 352 Q 584 346 590 340 Q 620 319 677 230 L 706 189 Z"></path>
      </clipPath>
      <path clip-path="url(#make-me-a-hanzi-clip-12)" d="M 594 347 L 610 341 L 637 316 L 721 207 L 806 129 L 823 120 L 934 100" fill="none" id="make-me-a-hanzi-animation-12" stroke-dasharray="567 1134" stroke-linecap="round"></path>
    
  </g>
</svg>