<svg version="1.1" viewBox="0 0 1024 1024" xmlns="http://www.w3.org/2000/svg">
  <g stroke="lightgray" stroke-dasharray="1,1" stroke-width="1" transform="scale(4, 4)">
    <line x1="0" y1="0" x2="256" y2="256"></line>
    <line x1="256" y1="0" x2="0" y2="256"></line>
    <line x1="128" y1="0" x2="128" y2="256"></line>
    <line x1="0" y1="128" x2="256" y2="128"></line>
  </g>
  <g transform="scale(1, -1) translate(0, -900)">
    <style type="text/css">
      
        @keyframes keyframes0 {
          from {
            stroke: blue;
            stroke-dashoffset: 419;
            stroke-width: 128;
          }
          58% {
            animation-timing-function: step-end;
            stroke: blue;
            stroke-dashoffset: 0;
            stroke-width: 128;
          }
          to {
            stroke: black;
            stroke-width: 1024;
          }
        }
        #make-me-a-hanzi-animation-0 {
          animation: keyframes0 0.5909830729166666s both;
          animation-delay: 0s;
          animation-timing-function: linear;
        }
      
        @keyframes keyframes1 {
          from {
            stroke: blue;
            stroke-dashoffset: 401;
            stroke-width: 128;
          }
          57% {
            animation-timing-function: step-end;
            stroke: blue;
            stroke-dashoffset: 0;
            stroke-width: 128;
          }
          to {
            stroke: black;
            stroke-width: 1024;
          }
        }
        #make-me-a-hanzi-animation-1 {
          animation: keyframes1 0.5763346354166666s both;
          animation-delay: 0.5909830729166666s;
          animation-timing-function: linear;
        }
      
        @keyframes keyframes2 {
          from {
            stroke: blue;
            stroke-dashoffset: 1082;
            stroke-width: 128;
          }
          78% {
            animation-timing-function: step-end;
            stroke: blue;
            stroke-dashoffset: 0;
            stroke-width: 128;
          }
          to {
            stroke: black;
            stroke-width: 1024;
          }
        }
        #make-me-a-hanzi-animation-2 {
          animation: keyframes2 1.1305338541666667s both;
          animation-delay: 1.1673177083333333s;
          animation-timing-function: linear;
        }
      
        @keyframes keyframes3 {
          from {
            stroke: blue;
            stroke-dashoffset: 381;
            stroke-width: 128;
          }
          55% {
            animation-timing-function: step-end;
            stroke: blue;
            stroke-dashoffset: 0;
            stroke-width: 128;
          }
          to {
            stroke: black;
            stroke-width: 1024;
          }
        }
        #make-me-a-hanzi-animation-3 {
          animation: keyframes3 0.56005859375s both;
          animation-delay: 2.2978515625s;
          animation-timing-function: linear;
        }
      
        @keyframes keyframes4 {
          from {
            stroke: blue;
            stroke-dashoffset: 827;
            stroke-width: 128;
          }
          73% {
            animation-timing-function: step-end;
            stroke: blue;
            stroke-dashoffset: 0;
            stroke-width: 128;
          }
          to {
            stroke: black;
            stroke-width: 1024;
          }
        }
        #make-me-a-hanzi-animation-4 {
          animation: keyframes4 0.9230143229166666s both;
          animation-delay: 2.85791015625s;
          animation-timing-function: linear;
        }
      
        @keyframes keyframes5 {
          from {
            stroke: blue;
            stroke-dashoffset: 339;
            stroke-width: 128;
          }
          52% {
            animation-timing-function: step-end;
            stroke: blue;
            stroke-dashoffset: 0;
            stroke-width: 128;
          }
          to {
            stroke: black;
            stroke-width: 1024;
          }
        }
        #make-me-a-hanzi-animation-5 {
          animation: keyframes5 0.52587890625s both;
          animation-delay: 3.7809244791666665s;
          animation-timing-function: linear;
        }
      
        @keyframes keyframes6 {
          from {
            stroke: blue;
            stroke-dashoffset: 415;
            stroke-width: 128;
          }
          57% {
            animation-timing-function: step-end;
            stroke: blue;
            stroke-dashoffset: 0;
            stroke-width: 128;
          }
          to {
            stroke: black;
            stroke-width: 1024;
          }
        }
        #make-me-a-hanzi-animation-6 {
          animation: keyframes6 0.5877278645833334s both;
          animation-delay: 4.306803385416666s;
          animation-timing-function: linear;
        }
      
        @keyframes keyframes7 {
          from {
            stroke: blue;
            stroke-dashoffset: 431;
            stroke-width: 128;
          }
          58% {
            animation-timing-function: step-end;
            stroke: blue;
            stroke-dashoffset: 0;
            stroke-width: 128;
          }
          to {
            stroke: black;
            stroke-width: 1024;
          }
        }
        #make-me-a-hanzi-animation-7 {
          animation: keyframes7 0.6007486979166666s both;
          animation-delay: 4.894531249999999s;
          animation-timing-function: linear;
        }
      
        @keyframes keyframes8 {
          from {
            stroke: blue;
            stroke-dashoffset: 733;
            stroke-width: 128;
          }
          70% {
            animation-timing-function: step-end;
            stroke: blue;
            stroke-dashoffset: 0;
            stroke-width: 128;
          }
          to {
            stroke: black;
            stroke-width: 1024;
          }
        }
        #make-me-a-hanzi-animation-8 {
          animation: keyframes8 0.8465169270833334s both;
          animation-delay: 5.495279947916666s;
          animation-timing-function: linear;
        }
      
        @keyframes keyframes9 {
          from {
            stroke: blue;
            stroke-dashoffset: 467;
            stroke-width: 128;
          }
          60% {
            animation-timing-function: step-end;
            stroke: blue;
            stroke-dashoffset: 0;
            stroke-width: 128;
          }
          to {
            stroke: black;
            stroke-width: 1024;
          }
        }
        #make-me-a-hanzi-animation-9 {
          animation: keyframes9 0.6300455729166666s both;
          animation-delay: 6.341796874999999s;
          animation-timing-function: linear;
        }
      
        @keyframes keyframes10 {
          from {
            stroke: blue;
            stroke-dashoffset: 420;
            stroke-width: 128;
          }
          58% {
            animation-timing-function: step-end;
            stroke: blue;
            stroke-dashoffset: 0;
            stroke-width: 128;
          }
          to {
            stroke: black;
            stroke-width: 1024;
          }
        }
        #make-me-a-hanzi-animation-10 {
          animation: keyframes10 0.591796875s both;
          animation-delay: 6.971842447916666s;
          animation-timing-function: linear;
        }
      
        @keyframes keyframes11 {
          from {
            stroke: blue;
            stroke-dashoffset: 581;
            stroke-width: 128;
          }
          65% {
            animation-timing-function: step-end;
            stroke: blue;
            stroke-dashoffset: 0;
            stroke-width: 128;
          }
          to {
            stroke: black;
            stroke-width: 1024;
          }
        }
        #make-me-a-hanzi-animation-11 {
          animation: keyframes11 0.7228190104166666s both;
          animation-delay: 7.563639322916666s;
          animation-timing-function: linear;
        }
      
        @keyframes keyframes12 {
          from {
            stroke: blue;
            stroke-dashoffset: 462;
            stroke-width: 128;
          }
          60% {
            animation-timing-function: step-end;
            stroke: blue;
            stroke-dashoffset: 0;
            stroke-width: 128;
          }
          to {
            stroke: black;
            stroke-width: 1024;
          }
        }
        #make-me-a-hanzi-animation-12 {
          animation: keyframes12 0.6259765625s both;
          animation-delay: 8.286458333333332s;
          animation-timing-function: linear;
        }
      
        @keyframes keyframes13 {
          from {
            stroke: blue;
            stroke-dashoffset: 363;
            stroke-width: 128;
          }
          54% {
            animation-timing-function: step-end;
            stroke: blue;
            stroke-dashoffset: 0;
            stroke-width: 128;
          }
          to {
            stroke: black;
            stroke-width: 1024;
          }
        }
        #make-me-a-hanzi-animation-13 {
          animation: keyframes13 0.54541015625s both;
          animation-delay: 8.912434895833332s;
          animation-timing-function: linear;
        }
      
        @keyframes keyframes14 {
          from {
            stroke: blue;
            stroke-dashoffset: 444;
            stroke-width: 128;
          }
          59% {
            animation-timing-function: step-end;
            stroke: blue;
            stroke-dashoffset: 0;
            stroke-width: 128;
          }
          to {
            stroke: black;
            stroke-width: 1024;
          }
        }
        #make-me-a-hanzi-animation-14 {
          animation: keyframes14 0.611328125s both;
          animation-delay: 9.457845052083332s;
          animation-timing-function: linear;
        }
      
        @keyframes keyframes15 {
          from {
            stroke: blue;
            stroke-dashoffset: 824;
            stroke-width: 128;
          }
          73% {
            animation-timing-function: step-end;
            stroke: blue;
            stroke-dashoffset: 0;
            stroke-width: 128;
          }
          to {
            stroke: black;
            stroke-width: 1024;
          }
        }
        #make-me-a-hanzi-animation-15 {
          animation: keyframes15 0.9205729166666666s both;
          animation-delay: 10.069173177083332s;
          animation-timing-function: linear;
        }
      
    </style>
    
      <path d="M 129 537 Q 125 479 111 424 Q 104 393 127 368 Q 139 355 152 371 Q 186 422 166 496 Q 162 524 148 544 Q 142 550 137 549 Q 130 545 129 537 Z" fill="lightgray"></path>
    
      <path d="M 272 494 Q 300 513 318 527 Q 367 569 382 574 Q 398 583 389 596 Q 379 608 358 618 Q 339 628 330 625 Q 320 624 324 613 Q 327 588 274 523 C 255 500 247 477 272 494 Z" fill="lightgray"></path>
    
      <path d="M 255 290 Q 264 348 272 494 L 274 523 Q 275 665 298 722 Q 305 735 293 746 Q 271 764 232 774 Q 207 781 199 773 Q 190 766 198 754 Q 261 657 209 294 Q 170 177 168 173 Q 165 170 164 166 Q 128 105 54 43 Q 44 34 44 30 Q 45 26 57 28 Q 70 24 102 41 Q 222 96 253 275 L 255 290 Z" fill="lightgray"></path>
    
      <path d="M 253 275 Q 257 268 274 251 Q 299 227 326 198 Q 336 188 348 187 Q 357 187 361 197 Q 365 207 361 231 Q 355 261 273 289 Q 261 292 256 291 Q 255 291 255 290 C 245 287 245 287 253 275 Z" fill="lightgray"></path>
    
      <path d="M 599 716 Q 600 720 604 722 Q 614 732 607 742 Q 603 751 553 765 Q 541 769 523 756 Q 495 737 423 717 Q 410 713 422 703 Q 432 694 460 704 Q 523 729 529 721 Q 538 693 494 596 L 472 558 Q 465 549 459 538 Q 413 460 331 384 Q 312 369 329 372 Q 393 379 480 495 Q 534 568 572 663 Q 579 684 587 697 L 599 716 Z" fill="lightgray"></path>
    
      <path d="M 494 596 Q 481 623 426 642 Q 419 645 417 635 Q 414 623 454 573 Q 463 563 472 558 C 498 543 508 570 494 596 Z" fill="lightgray"></path>
    
      <path d="M 646 685 Q 724 763 758 783 Q 774 793 764 808 Q 751 820 728 829 Q 707 838 697 834 Q 687 831 691 821 Q 697 797 633 698 C 617 673 625 664 646 685 Z" fill="lightgray"></path>
    
      <path d="M 707 627 Q 722 634 809 681 Q 827 694 850 702 Q 869 709 861 726 Q 851 742 828 757 Q 807 772 796 770 Q 784 769 787 757 Q 787 727 695 637 C 674 616 680 614 707 627 Z" fill="lightgray"></path>
    
      <path d="M 695 637 Q 673 659 646 685 L 633 698 Q 615 716 604 717 Q 601 717 599 716 C 569 721 561 713 587 697 Q 615 682 635 655 Q 810 438 847 428 Q 886 428 971 448 Q 984 451 990 458 Q 993 464 984 467 Q 836 518 745 594 Q 726 610 707 627 L 695 637 Z" fill="lightgray"></path>
    
      <path d="M 499 454 Q 466 448 490 433 Q 526 415 620 435 Q 648 442 681 449 Q 703 455 708 458 Q 715 465 711 473 Q 704 483 677 490 Q 649 494 623 482 Q 596 473 568 466 Q 537 459 499 454 Z" fill="lightgray"></path>
    
      <path d="M 491 352 Q 481 356 454 359 Q 444 360 440 356 Q 436 350 444 337 Q 466 300 484 236 Q 488 217 501 205 Q 517 187 522 201 Q 523 207 524 215 L 520 244 Q 508 302 506 323 C 503 348 503 348 491 352 Z" fill="lightgray"></path>
    
      <path d="M 719 264 Q 740 310 763 324 Q 778 340 765 357 Q 752 369 705 393 Q 689 400 669 393 Q 600 366 491 352 C 461 348 476 318 506 323 L 654 350 Q 672 353 678 346 Q 685 339 683 326 Q 677 295 670 268 C 663 239 706 237 719 264 Z" fill="lightgray"></path>
    
      <path d="M 708 232 Q 717 233 728 234 Q 738 235 739 242 Q 739 249 719 264 C 705 275 699 274 670 268 Q 588 252 520 244 C 490 240 494 215 524 215 Q 527 215 532 215 Q 581 225 678 230 L 708 232 Z" fill="lightgray"></path>
    
      <path d="M 490 134 Q 533 79 544 76 Q 551 75 557 85 Q 563 95 560 119 Q 559 135 538 149 Q 487 177 476 174 Q 472 173 471 162 Q 472 153 490 134 Z" fill="lightgray"></path>
    
      <path d="M 664 72 Q 724 151 740 168 Q 756 178 748 189 Q 736 219 708 232 C 681 246 677 248 678 230 Q 677 227 679 221 Q 685 194 641 94 Q 631 81 628 68 C 619 39 646 48 664 72 Z" fill="lightgray"></path>
    
      <path d="M 628 68 Q 616 68 605 66 Q 487 53 345 41 Q 324 40 339 23 Q 352 10 369 3 Q 388 -3 405 1 Q 615 50 889 30 Q 908 30 914 38 Q 920 48 904 63 Q 844 109 801 92 Q 744 85 664 72 L 628 68 Z" fill="lightgray"></path>
    
    
      <clipPath id="make-me-a-hanzi-clip-0">
        <path d="M 129 537 Q 125 479 111 424 Q 104 393 127 368 Q 139 355 152 371 Q 186 422 166 496 Q 162 524 148 544 Q 142 550 137 549 Q 130 545 129 537 Z"></path>
      </clipPath>
      <path clip-path="url(#make-me-a-hanzi-clip-0)" d="M 139 539 L 147 466 L 139 377" fill="none" id="make-me-a-hanzi-animation-0" stroke-dasharray="291 582" stroke-linecap="round"></path>
    
      <clipPath id="make-me-a-hanzi-clip-1">
        <path d="M 272 494 Q 300 513 318 527 Q 367 569 382 574 Q 398 583 389 596 Q 379 608 358 618 Q 339 628 330 625 Q 320 624 324 613 Q 327 588 274 523 C 255 500 247 477 272 494 Z"></path>
      </clipPath>
      <path clip-path="url(#make-me-a-hanzi-clip-1)" d="M 336 615 L 350 590 L 317 547 L 289 525 L 277 501" fill="none" id="make-me-a-hanzi-animation-1" stroke-dasharray="273 546" stroke-linecap="round"></path>
    
      <clipPath id="make-me-a-hanzi-clip-2">
        <path d="M 255 290 Q 264 348 272 494 L 274 523 Q 275 665 298 722 Q 305 735 293 746 Q 271 764 232 774 Q 207 781 199 773 Q 190 766 198 754 Q 261 657 209 294 Q 170 177 168 173 Q 165 170 164 166 Q 128 105 54 43 Q 44 34 44 30 Q 45 26 57 28 Q 70 24 102 41 Q 222 96 253 275 L 255 290 Z"></path>
      </clipPath>
      <path clip-path="url(#make-me-a-hanzi-clip-2)" d="M 207 763 L 255 723 L 254 534 L 231 286 L 202 187 L 175 135 L 122 76 L 51 30" fill="none" id="make-me-a-hanzi-animation-2" stroke-dasharray="954 1908" stroke-linecap="round"></path>
    
      <clipPath id="make-me-a-hanzi-clip-3">
        <path d="M 253 275 Q 257 268 274 251 Q 299 227 326 198 Q 336 188 348 187 Q 357 187 361 197 Q 365 207 361 231 Q 355 261 273 289 Q 261 292 256 291 Q 255 291 255 290 C 245 287 245 287 253 275 Z"></path>
      </clipPath>
      <path clip-path="url(#make-me-a-hanzi-clip-3)" d="M 259 287 L 322 240 L 348 201" fill="none" id="make-me-a-hanzi-animation-3" stroke-dasharray="253 506" stroke-linecap="round"></path>
    
      <clipPath id="make-me-a-hanzi-clip-4">
        <path d="M 599 716 Q 600 720 604 722 Q 614 732 607 742 Q 603 751 553 765 Q 541 769 523 756 Q 495 737 423 717 Q 410 713 422 703 Q 432 694 460 704 Q 523 729 529 721 Q 538 693 494 596 L 472 558 Q 465 549 459 538 Q 413 460 331 384 Q 312 369 329 372 Q 393 379 480 495 Q 534 568 572 663 Q 579 684 587 697 L 599 716 Z"></path>
      </clipPath>
      <path clip-path="url(#make-me-a-hanzi-clip-4)" d="M 430 709 L 469 716 L 527 740 L 547 740 L 563 724 L 535 634 L 493 550 L 446 481 L 400 428 L 333 377" fill="none" id="make-me-a-hanzi-animation-4" stroke-dasharray="699 1398" stroke-linecap="round"></path>
    
      <clipPath id="make-me-a-hanzi-clip-5">
        <path d="M 494 596 Q 481 623 426 642 Q 419 645 417 635 Q 414 623 454 573 Q 463 563 472 558 C 498 543 508 570 494 596 Z"></path>
      </clipPath>
      <path clip-path="url(#make-me-a-hanzi-clip-5)" d="M 426 633 L 462 599 L 471 567" fill="none" id="make-me-a-hanzi-animation-5" stroke-dasharray="211 422" stroke-linecap="round"></path>
    
      <clipPath id="make-me-a-hanzi-clip-6">
        <path d="M 646 685 Q 724 763 758 783 Q 774 793 764 808 Q 751 820 728 829 Q 707 838 697 834 Q 687 831 691 821 Q 697 797 633 698 C 617 673 625 664 646 685 Z"></path>
      </clipPath>
      <path clip-path="url(#make-me-a-hanzi-clip-6)" d="M 752 798 L 721 797 L 673 730 L 647 704 L 650 696" fill="none" id="make-me-a-hanzi-animation-6" stroke-dasharray="287 574" stroke-linecap="round"></path>
    
      <clipPath id="make-me-a-hanzi-clip-7">
        <path d="M 707 627 Q 722 634 809 681 Q 827 694 850 702 Q 869 709 861 726 Q 851 742 828 757 Q 807 772 796 770 Q 784 769 787 757 Q 787 727 695 637 C 674 616 680 614 707 627 Z"></path>
      </clipPath>
      <path clip-path="url(#make-me-a-hanzi-clip-7)" d="M 799 758 L 812 722 L 770 683 L 705 637" fill="none" id="make-me-a-hanzi-animation-7" stroke-dasharray="303 606" stroke-linecap="round"></path>
    
      <clipPath id="make-me-a-hanzi-clip-8">
        <path d="M 695 637 Q 673 659 646 685 L 633 698 Q 615 716 604 717 Q 601 717 599 716 C 569 721 561 713 587 697 Q 615 682 635 655 Q 810 438 847 428 Q 886 428 971 448 Q 984 451 990 458 Q 993 464 984 467 Q 836 518 745 594 Q 726 610 707 627 L 695 637 Z"></path>
      </clipPath>
      <path clip-path="url(#make-me-a-hanzi-clip-8)" d="M 597 698 L 606 702 L 619 693 L 738 567 L 851 476 L 900 465 L 983 460" fill="none" id="make-me-a-hanzi-animation-8" stroke-dasharray="605 1210" stroke-linecap="round"></path>
    
      <clipPath id="make-me-a-hanzi-clip-9">
        <path d="M 499 454 Q 466 448 490 433 Q 526 415 620 435 Q 648 442 681 449 Q 703 455 708 458 Q 715 465 711 473 Q 704 483 677 490 Q 649 494 623 482 Q 596 473 568 466 Q 537 459 499 454 Z"></path>
      </clipPath>
      <path clip-path="url(#make-me-a-hanzi-clip-9)" d="M 492 445 L 570 445 L 658 468 L 700 467" fill="none" id="make-me-a-hanzi-animation-9" stroke-dasharray="339 678" stroke-linecap="round"></path>
    
      <clipPath id="make-me-a-hanzi-clip-10">
        <path d="M 491 352 Q 481 356 454 359 Q 444 360 440 356 Q 436 350 444 337 Q 466 300 484 236 Q 488 217 501 205 Q 517 187 522 201 Q 523 207 524 215 L 520 244 Q 508 302 506 323 C 503 348 503 348 491 352 Z"></path>
      </clipPath>
      <path clip-path="url(#make-me-a-hanzi-clip-10)" d="M 448 351 L 472 334 L 482 316 L 512 206" fill="none" id="make-me-a-hanzi-animation-10" stroke-dasharray="292 584" stroke-linecap="round"></path>
    
      <clipPath id="make-me-a-hanzi-clip-11">
        <path d="M 719 264 Q 740 310 763 324 Q 778 340 765 357 Q 752 369 705 393 Q 689 400 669 393 Q 600 366 491 352 C 461 348 476 318 506 323 L 654 350 Q 672 353 678 346 Q 685 339 683 326 Q 677 295 670 268 C 663 239 706 237 719 264 Z"></path>
      </clipPath>
      <path clip-path="url(#make-me-a-hanzi-clip-11)" d="M 500 351 L 508 342 L 526 341 L 670 372 L 692 369 L 722 339 L 703 291 L 677 274" fill="none" id="make-me-a-hanzi-animation-11" stroke-dasharray="453 906" stroke-linecap="round"></path>
    
      <clipPath id="make-me-a-hanzi-clip-12">
        <path d="M 708 232 Q 717 233 728 234 Q 738 235 739 242 Q 739 249 719 264 C 705 275 699 274 670 268 Q 588 252 520 244 C 490 240 494 215 524 215 Q 527 215 532 215 Q 581 225 678 230 L 708 232 Z"></path>
      </clipPath>
      <path clip-path="url(#make-me-a-hanzi-clip-12)" d="M 528 223 L 543 233 L 675 249 L 730 243" fill="none" id="make-me-a-hanzi-animation-12" stroke-dasharray="334 668" stroke-linecap="round"></path>
    
      <clipPath id="make-me-a-hanzi-clip-13">
        <path d="M 490 134 Q 533 79 544 76 Q 551 75 557 85 Q 563 95 560 119 Q 559 135 538 149 Q 487 177 476 174 Q 472 173 471 162 Q 472 153 490 134 Z"></path>
      </clipPath>
      <path clip-path="url(#make-me-a-hanzi-clip-13)" d="M 479 166 L 535 118 L 546 87" fill="none" id="make-me-a-hanzi-animation-13" stroke-dasharray="235 470" stroke-linecap="round"></path>
    
      <clipPath id="make-me-a-hanzi-clip-14">
        <path d="M 664 72 Q 724 151 740 168 Q 756 178 748 189 Q 736 219 708 232 C 681 246 677 248 678 230 Q 677 227 679 221 Q 685 194 641 94 Q 631 81 628 68 C 619 39 646 48 664 72 Z"></path>
      </clipPath>
      <path clip-path="url(#make-me-a-hanzi-clip-14)" d="M 686 226 L 703 208 L 711 187 L 659 90 L 633 73" fill="none" id="make-me-a-hanzi-animation-14" stroke-dasharray="316 632" stroke-linecap="round"></path>
    
      <clipPath id="make-me-a-hanzi-clip-15">
        <path d="M 628 68 Q 616 68 605 66 Q 487 53 345 41 Q 324 40 339 23 Q 352 10 369 3 Q 388 -3 405 1 Q 615 50 889 30 Q 908 30 914 38 Q 920 48 904 63 Q 844 109 801 92 Q 744 85 664 72 L 628 68 Z"></path>
      </clipPath>
      <path clip-path="url(#make-me-a-hanzi-clip-15)" d="M 342 32 L 396 22 L 543 43 L 816 65 L 852 62 L 903 44" fill="none" id="make-me-a-hanzi-animation-15" stroke-dasharray="696 1392" stroke-linecap="round"></path>
    
  </g>
</svg>