<svg version="1.1" viewBox="0 0 1024 1024" xmlns="http://www.w3.org/2000/svg">
  <g stroke="lightgray" stroke-dasharray="1,1" stroke-width="1" transform="scale(4, 4)">
    <line x1="0" y1="0" x2="256" y2="256"></line>
    <line x1="256" y1="0" x2="0" y2="256"></line>
    <line x1="128" y1="0" x2="128" y2="256"></line>
    <line x1="0" y1="128" x2="256" y2="128"></line>
  </g>
  <g transform="scale(1, -1) translate(0, -900)">
    <style type="text/css">
      
        @keyframes keyframes0 {
          from {
            stroke: blue;
            stroke-dashoffset: 406;
            stroke-width: 128;
          }
          57% {
            animation-timing-function: step-end;
            stroke: blue;
            stroke-dashoffset: 0;
            stroke-width: 128;
          }
          to {
            stroke: black;
            stroke-width: 1024;
          }
        }
        #make-me-a-hanzi-animation-0 {
          animation: keyframes0 0.5804036458333334s both;
          animation-delay: 0s;
          animation-timing-function: linear;
        }
      
        @keyframes keyframes1 {
          from {
            stroke: blue;
            stroke-dashoffset: 399;
            stroke-width: 128;
          }
          56% {
            animation-timing-function: step-end;
            stroke: blue;
            stroke-dashoffset: 0;
            stroke-width: 128;
          }
          to {
            stroke: black;
            stroke-width: 1024;
          }
        }
        #make-me-a-hanzi-animation-1 {
          animation: keyframes1 0.57470703125s both;
          animation-delay: 0.5804036458333334s;
          animation-timing-function: linear;
        }
      
        @keyframes keyframes2 {
          from {
            stroke: blue;
            stroke-dashoffset: 1044;
            stroke-width: 128;
          }
          77% {
            animation-timing-function: step-end;
            stroke: blue;
            stroke-dashoffset: 0;
            stroke-width: 128;
          }
          to {
            stroke: black;
            stroke-width: 1024;
          }
        }
        #make-me-a-hanzi-animation-2 {
          animation: keyframes2 1.099609375s both;
          animation-delay: 1.1551106770833335s;
          animation-timing-function: linear;
        }
      
        @keyframes keyframes3 {
          from {
            stroke: blue;
            stroke-dashoffset: 338;
            stroke-width: 128;
          }
          52% {
            animation-timing-function: step-end;
            stroke: blue;
            stroke-dashoffset: 0;
            stroke-width: 128;
          }
          to {
            stroke: black;
            stroke-width: 1024;
          }
        }
        #make-me-a-hanzi-animation-3 {
          animation: keyframes3 0.5250651041666666s both;
          animation-delay: 2.2547200520833335s;
          animation-timing-function: linear;
        }
      
        @keyframes keyframes4 {
          from {
            stroke: blue;
            stroke-dashoffset: 353;
            stroke-width: 128;
          }
          53% {
            animation-timing-function: step-end;
            stroke: blue;
            stroke-dashoffset: 0;
            stroke-width: 128;
          }
          to {
            stroke: black;
            stroke-width: 1024;
          }
        }
        #make-me-a-hanzi-animation-4 {
          animation: keyframes4 0.5372721354166666s both;
          animation-delay: 2.77978515625s;
          animation-timing-function: linear;
        }
      
        @keyframes keyframes5 {
          from {
            stroke: blue;
            stroke-dashoffset: 469;
            stroke-width: 128;
          }
          60% {
            animation-timing-function: step-end;
            stroke: blue;
            stroke-dashoffset: 0;
            stroke-width: 128;
          }
          to {
            stroke: black;
            stroke-width: 1024;
          }
        }
        #make-me-a-hanzi-animation-5 {
          animation: keyframes5 0.6316731770833334s both;
          animation-delay: 3.3170572916666665s;
          animation-timing-function: linear;
        }
      
        @keyframes keyframes6 {
          from {
            stroke: blue;
            stroke-dashoffset: 508;
            stroke-width: 128;
          }
          62% {
            animation-timing-function: step-end;
            stroke: blue;
            stroke-dashoffset: 0;
            stroke-width: 128;
          }
          to {
            stroke: black;
            stroke-width: 1024;
          }
        }
        #make-me-a-hanzi-animation-6 {
          animation: keyframes6 0.6634114583333334s both;
          animation-delay: 3.94873046875s;
          animation-timing-function: linear;
        }
      
        @keyframes keyframes7 {
          from {
            stroke: blue;
            stroke-dashoffset: 442;
            stroke-width: 128;
          }
          59% {
            animation-timing-function: step-end;
            stroke: blue;
            stroke-dashoffset: 0;
            stroke-width: 128;
          }
          to {
            stroke: black;
            stroke-width: 1024;
          }
        }
        #make-me-a-hanzi-animation-7 {
          animation: keyframes7 0.6097005208333334s both;
          animation-delay: 4.612141927083333s;
          animation-timing-function: linear;
        }
      
        @keyframes keyframes8 {
          from {
            stroke: blue;
            stroke-dashoffset: 726;
            stroke-width: 128;
          }
          70% {
            animation-timing-function: step-end;
            stroke: blue;
            stroke-dashoffset: 0;
            stroke-width: 128;
          }
          to {
            stroke: black;
            stroke-width: 1024;
          }
        }
        #make-me-a-hanzi-animation-8 {
          animation: keyframes8 0.8408203125s both;
          animation-delay: 5.221842447916666s;
          animation-timing-function: linear;
        }
      
        @keyframes keyframes9 {
          from {
            stroke: blue;
            stroke-dashoffset: 451;
            stroke-width: 128;
          }
          59% {
            animation-timing-function: step-end;
            stroke: blue;
            stroke-dashoffset: 0;
            stroke-width: 128;
          }
          to {
            stroke: black;
            stroke-width: 1024;
          }
        }
        #make-me-a-hanzi-animation-9 {
          animation: keyframes9 0.6170247395833334s both;
          animation-delay: 6.062662760416666s;
          animation-timing-function: linear;
        }
      
        @keyframes keyframes10 {
          from {
            stroke: blue;
            stroke-dashoffset: 517;
            stroke-width: 128;
          }
          63% {
            animation-timing-function: step-end;
            stroke: blue;
            stroke-dashoffset: 0;
            stroke-width: 128;
          }
          to {
            stroke: black;
            stroke-width: 1024;
          }
        }
        #make-me-a-hanzi-animation-10 {
          animation: keyframes10 0.6707356770833334s both;
          animation-delay: 6.679687499999999s;
          animation-timing-function: linear;
        }
      
        @keyframes keyframes11 {
          from {
            stroke: blue;
            stroke-dashoffset: 428;
            stroke-width: 128;
          }
          58% {
            animation-timing-function: step-end;
            stroke: blue;
            stroke-dashoffset: 0;
            stroke-width: 128;
          }
          to {
            stroke: black;
            stroke-width: 1024;
          }
        }
        #make-me-a-hanzi-animation-11 {
          animation: keyframes11 0.5983072916666666s both;
          animation-delay: 7.350423177083332s;
          animation-timing-function: linear;
        }
      
        @keyframes keyframes12 {
          from {
            stroke: blue;
            stroke-dashoffset: 451;
            stroke-width: 128;
          }
          59% {
            animation-timing-function: step-end;
            stroke: blue;
            stroke-dashoffset: 0;
            stroke-width: 128;
          }
          to {
            stroke: black;
            stroke-width: 1024;
          }
        }
        #make-me-a-hanzi-animation-12 {
          animation: keyframes12 0.6170247395833334s both;
          animation-delay: 7.948730468749999s;
          animation-timing-function: linear;
        }
      
        @keyframes keyframes13 {
          from {
            stroke: blue;
            stroke-dashoffset: 366;
            stroke-width: 128;
          }
          54% {
            animation-timing-function: step-end;
            stroke: blue;
            stroke-dashoffset: 0;
            stroke-width: 128;
          }
          to {
            stroke: black;
            stroke-width: 1024;
          }
        }
        #make-me-a-hanzi-animation-13 {
          animation: keyframes13 0.5478515625s both;
          animation-delay: 8.565755208333332s;
          animation-timing-function: linear;
        }
      
        @keyframes keyframes14 {
          from {
            stroke: blue;
            stroke-dashoffset: 629;
            stroke-width: 128;
          }
          67% {
            animation-timing-function: step-end;
            stroke: blue;
            stroke-dashoffset: 0;
            stroke-width: 128;
          }
          to {
            stroke: black;
            stroke-width: 1024;
          }
        }
        #make-me-a-hanzi-animation-14 {
          animation: keyframes14 0.7618815104166666s both;
          animation-delay: 9.113606770833332s;
          animation-timing-function: linear;
        }
      
        @keyframes keyframes15 {
          from {
            stroke: blue;
            stroke-dashoffset: 919;
            stroke-width: 128;
          }
          75% {
            animation-timing-function: step-end;
            stroke: blue;
            stroke-dashoffset: 0;
            stroke-width: 128;
          }
          to {
            stroke: black;
            stroke-width: 1024;
          }
        }
        #make-me-a-hanzi-animation-15 {
          animation: keyframes15 0.9978841145833334s both;
          animation-delay: 9.875488281249998s;
          animation-timing-function: linear;
        }
      
    </style>
    
      <path d="M 95 534 Q 102 482 99 429 Q 95 396 126 377 Q 139 367 150 386 Q 171 440 140 501 Q 130 529 113 544 Q 106 548 101 546 Q 95 542 95 534 Z" fill="lightgray"></path>
    
      <path d="M 251 491 Q 281 521 357 559 Q 372 563 368 573 Q 362 586 346 601 Q 330 617 310 618 Q 298 617 299 601 Q 300 585 252 515 C 235 490 229 470 251 491 Z" fill="lightgray"></path>
    
      <path d="M 244 290 Q 245 326 251 491 L 252 515 Q 253 641 275 701 Q 282 714 271 724 Q 250 740 214 750 Q 190 756 183 750 Q 174 743 181 732 Q 244 633 195 263 Q 192 254 191 242 Q 167 127 70 38 Q 60 31 60 26 Q 61 22 72 24 Q 84 21 111 36 Q 214 87 240 258 L 244 290 Z" fill="lightgray"></path>
    
      <path d="M 240 258 Q 288 210 294 208 Q 301 208 306 217 Q 310 227 306 247 Q 302 268 244 290 C 216 301 219 279 240 258 Z" fill="lightgray"></path>
    
      <path d="M 529 733 Q 562 684 587 671 Q 599 667 608 677 Q 614 687 613 701 Q 610 720 597 733 Q 548 772 522 767 Q 516 766 517 756 Q 518 746 529 733 Z" fill="lightgray"></path>
    
      <path d="M 743 790 Q 725 757 662 678 Q 653 662 669 665 Q 699 686 785 750 Q 801 766 824 777 Q 843 787 833 803 Q 820 819 795 831 Q 771 843 760 840 Q 747 839 752 826 Q 756 808 743 790 Z" fill="lightgray"></path>
    
      <path d="M 641 581 Q 782 626 785 628 Q 792 635 788 642 Q 781 652 755 656 Q 730 659 704 646 Q 670 631 632 619 Q 590 606 541 597 Q 510 590 534 576 Q 559 566 596 568 L 641 581 Z" fill="lightgray"></path>
    
      <path d="M 612 510 Q 621 523 655 547 Q 664 556 662 564 Q 661 574 641 581 C 613 592 612 593 596 568 Q 563 514 488 458 Q 472 448 493 448 Q 524 448 590 494 L 612 510 Z" fill="lightgray"></path>
    
      <path d="M 717 375 Q 710 397 705 410 L 696 426 Q 666 477 612 510 C 587 526 566 512 590 494 Q 597 490 605 482 L 643 442 Q 650 432 659 417 L 680 362 Q 690 307 677 243 Q 670 215 663 213 Q 659 212 594 218 Q 581 222 580 216 Q 579 209 589 198 Q 631 156 647 129 Q 660 110 676 115 Q 689 116 703 138 Q 718 166 725 218 Q 734 288 726 334 Q 725 338 724 343 L 717 375 Z" fill="lightgray"></path>
    
      <path d="M 605 482 Q 602 481 601 474 Q 589 423 480 341 Q 464 331 483 332 Q 546 341 618 417 Q 633 433 643 442 C 665 462 621 507 605 482 Z" fill="lightgray"></path>
    
      <path d="M 659 417 Q 616 324 491 229 Q 481 219 488 217 Q 495 213 506 217 Q 587 247 680 362 C 699 385 672 444 659 417 Z" fill="lightgray"></path>
    
      <path d="M 705 410 Q 789 474 830 499 Q 846 503 842 514 Q 836 529 818 546 Q 799 562 778 563 Q 765 563 766 544 Q 769 523 696 426 C 678 402 681 392 705 410 Z" fill="lightgray"></path>
    
      <path d="M 724 343 Q 776 303 840 245 Q 856 229 871 225 Q 878 225 885 235 Q 895 248 880 286 Q 864 331 721 373 Q 718 374 717 375 C 689 387 700 361 724 343 Z" fill="lightgray"></path>
    
      <path d="M 387 609 Q 403 588 419 563 Q 428 550 441 548 Q 451 547 457 557 Q 464 569 461 596 Q 460 612 438 627 Q 381 657 372 655 Q 368 652 366 641 Q 367 631 387 609 Z" fill="lightgray"></path>
    
      <path d="M 392 185 Q 404 189 408 206 Q 412 236 382 297 Q 363 340 432 394 Q 451 407 437 421 Q 422 436 395 450 Q 376 465 342 436 Q 288 414 281 414 Q 275 415 273 411 Q 272 407 279 403 Q 303 390 353 407 Q 359 408 365 403 Q 377 387 359 370 Q 317 340 360 255 Q 361 251 364 245 Q 376 209 378 191 Q 377 190 376 188 C 375 173 375 173 392 185 Z" fill="lightgray"></path>
    
      <path d="M 376 188 Q 358 192 338 189 Q 316 185 296 190 Q 281 193 279 186 Q 275 176 288 165 Q 304 147 355 156 Q 406 162 447 134 Q 567 74 711 -1 Q 742 -20 789 -4 Q 850 17 908 37 Q 927 43 927 52 Q 927 61 880 62 Q 693 74 660 82 Q 567 115 416 177 Q 404 183 392 185 L 376 188 Z" fill="lightgray"></path>
    
    
      <clipPath id="make-me-a-hanzi-clip-0">
        <path d="M 95 534 Q 102 482 99 429 Q 95 396 126 377 Q 139 367 150 386 Q 171 440 140 501 Q 130 529 113 544 Q 106 548 101 546 Q 95 542 95 534 Z"></path>
      </clipPath>
      <path clip-path="url(#make-me-a-hanzi-clip-0)" d="M 106 536 L 123 483 L 135 389" fill="none" id="make-me-a-hanzi-animation-0" stroke-dasharray="278 556" stroke-linecap="round"></path>
    
      <clipPath id="make-me-a-hanzi-clip-1">
        <path d="M 251 491 Q 281 521 357 559 Q 372 563 368 573 Q 362 586 346 601 Q 330 617 310 618 Q 298 617 299 601 Q 300 585 252 515 C 235 490 229 470 251 491 Z"></path>
      </clipPath>
      <path clip-path="url(#make-me-a-hanzi-clip-1)" d="M 358 570 L 325 578 L 265 520 L 253 497" fill="none" id="make-me-a-hanzi-animation-1" stroke-dasharray="271 542" stroke-linecap="round"></path>
    
      <clipPath id="make-me-a-hanzi-clip-2">
        <path d="M 244 290 Q 245 326 251 491 L 252 515 Q 253 641 275 701 Q 282 714 271 724 Q 250 740 214 750 Q 190 756 183 750 Q 174 743 181 732 Q 244 633 195 263 Q 192 254 191 242 Q 167 127 70 38 Q 60 31 60 26 Q 61 22 72 24 Q 84 21 111 36 Q 214 87 240 258 L 244 290 Z"></path>
      </clipPath>
      <path clip-path="url(#make-me-a-hanzi-clip-2)" d="M 190 740 L 235 702 L 235 479 L 217 252 L 198 182 L 167 117 L 119 61 L 67 30" fill="none" id="make-me-a-hanzi-animation-2" stroke-dasharray="916 1832" stroke-linecap="round"></path>
    
      <clipPath id="make-me-a-hanzi-clip-3">
        <path d="M 240 258 Q 288 210 294 208 Q 301 208 306 217 Q 310 227 306 247 Q 302 268 244 290 C 216 301 219 279 240 258 Z"></path>
      </clipPath>
      <path clip-path="url(#make-me-a-hanzi-clip-3)" d="M 254 283 L 261 261 L 285 243 L 297 217" fill="none" id="make-me-a-hanzi-animation-3" stroke-dasharray="210 420" stroke-linecap="round"></path>
    
      <clipPath id="make-me-a-hanzi-clip-4">
        <path d="M 529 733 Q 562 684 587 671 Q 599 667 608 677 Q 614 687 613 701 Q 610 720 597 733 Q 548 772 522 767 Q 516 766 517 756 Q 518 746 529 733 Z"></path>
      </clipPath>
      <path clip-path="url(#make-me-a-hanzi-clip-4)" d="M 527 758 L 580 712 L 593 688" fill="none" id="make-me-a-hanzi-animation-4" stroke-dasharray="225 450" stroke-linecap="round"></path>
    
      <clipPath id="make-me-a-hanzi-clip-5">
        <path d="M 743 790 Q 725 757 662 678 Q 653 662 669 665 Q 699 686 785 750 Q 801 766 824 777 Q 843 787 833 803 Q 820 819 795 831 Q 771 843 760 840 Q 747 839 752 826 Q 756 808 743 790 Z"></path>
      </clipPath>
      <path clip-path="url(#make-me-a-hanzi-clip-5)" d="M 759 831 L 778 812 L 784 793 L 669 673" fill="none" id="make-me-a-hanzi-animation-5" stroke-dasharray="341 682" stroke-linecap="round"></path>
    
      <clipPath id="make-me-a-hanzi-clip-6">
        <path d="M 641 581 Q 782 626 785 628 Q 792 635 788 642 Q 781 652 755 656 Q 730 659 704 646 Q 670 631 632 619 Q 590 606 541 597 Q 510 590 534 576 Q 559 566 596 568 L 641 581 Z"></path>
      </clipPath>
      <path clip-path="url(#make-me-a-hanzi-clip-6)" d="M 535 587 L 598 589 L 739 635 L 780 636" fill="none" id="make-me-a-hanzi-animation-6" stroke-dasharray="380 760" stroke-linecap="round"></path>
    
      <clipPath id="make-me-a-hanzi-clip-7">
        <path d="M 612 510 Q 621 523 655 547 Q 664 556 662 564 Q 661 574 641 581 C 613 592 612 593 596 568 Q 563 514 488 458 Q 472 448 493 448 Q 524 448 590 494 L 612 510 Z"></path>
      </clipPath>
      <path clip-path="url(#make-me-a-hanzi-clip-7)" d="M 647 561 L 612 547 L 555 490 L 497 456" fill="none" id="make-me-a-hanzi-animation-7" stroke-dasharray="314 628" stroke-linecap="round"></path>
    
      <clipPath id="make-me-a-hanzi-clip-8">
        <path d="M 717 375 Q 710 397 705 410 L 696 426 Q 666 477 612 510 C 587 526 566 512 590 494 Q 597 490 605 482 L 643 442 Q 650 432 659 417 L 680 362 Q 690 307 677 243 Q 670 215 663 213 Q 659 212 594 218 Q 581 222 580 216 Q 579 209 589 198 Q 631 156 647 129 Q 660 110 676 115 Q 689 116 703 138 Q 718 166 725 218 Q 734 288 726 334 Q 725 338 724 343 L 717 375 Z"></path>
      </clipPath>
      <path clip-path="url(#make-me-a-hanzi-clip-8)" d="M 597 496 L 613 494 L 634 476 L 677 423 L 700 366 L 707 289 L 697 214 L 671 171 L 588 213" fill="none" id="make-me-a-hanzi-animation-8" stroke-dasharray="598 1196" stroke-linecap="round"></path>
    
      <clipPath id="make-me-a-hanzi-clip-9">
        <path d="M 605 482 Q 602 481 601 474 Q 589 423 480 341 Q 464 331 483 332 Q 546 341 618 417 Q 633 433 643 442 C 665 462 621 507 605 482 Z"></path>
      </clipPath>
      <path clip-path="url(#make-me-a-hanzi-clip-9)" d="M 608 475 L 610 441 L 598 423 L 535 366 L 488 339" fill="none" id="make-me-a-hanzi-animation-9" stroke-dasharray="323 646" stroke-linecap="round"></path>
    
      <clipPath id="make-me-a-hanzi-clip-10">
        <path d="M 659 417 Q 616 324 491 229 Q 481 219 488 217 Q 495 213 506 217 Q 587 247 680 362 C 699 385 672 444 659 417 Z"></path>
      </clipPath>
      <path clip-path="url(#make-me-a-hanzi-clip-10)" d="M 660 409 L 654 365 L 613 313 L 548 255 L 494 222" fill="none" id="make-me-a-hanzi-animation-10" stroke-dasharray="389 778" stroke-linecap="round"></path>
    
      <clipPath id="make-me-a-hanzi-clip-11">
        <path d="M 705 410 Q 789 474 830 499 Q 846 503 842 514 Q 836 529 818 546 Q 799 562 778 563 Q 765 563 766 544 Q 769 523 696 426 C 678 402 681 392 705 410 Z"></path>
      </clipPath>
      <path clip-path="url(#make-me-a-hanzi-clip-11)" d="M 831 511 L 796 519 L 722 437 L 710 432 L 711 419" fill="none" id="make-me-a-hanzi-animation-11" stroke-dasharray="300 600" stroke-linecap="round"></path>
    
      <clipPath id="make-me-a-hanzi-clip-12">
        <path d="M 724 343 Q 776 303 840 245 Q 856 229 871 225 Q 878 225 885 235 Q 895 248 880 286 Q 864 331 721 373 Q 718 374 717 375 C 689 387 700 361 724 343 Z"></path>
      </clipPath>
      <path clip-path="url(#make-me-a-hanzi-clip-12)" d="M 732 366 L 738 351 L 785 327 L 840 288 L 864 257 L 870 238" fill="none" id="make-me-a-hanzi-animation-12" stroke-dasharray="323 646" stroke-linecap="round"></path>
    
      <clipPath id="make-me-a-hanzi-clip-13">
        <path d="M 387 609 Q 403 588 419 563 Q 428 550 441 548 Q 451 547 457 557 Q 464 569 461 596 Q 460 612 438 627 Q 381 657 372 655 Q 368 652 366 641 Q 367 631 387 609 Z"></path>
      </clipPath>
      <path clip-path="url(#make-me-a-hanzi-clip-13)" d="M 374 646 L 433 594 L 443 564" fill="none" id="make-me-a-hanzi-animation-13" stroke-dasharray="238 476" stroke-linecap="round"></path>
    
      <clipPath id="make-me-a-hanzi-clip-14">
        <path d="M 392 185 Q 404 189 408 206 Q 412 236 382 297 Q 363 340 432 394 Q 451 407 437 421 Q 422 436 395 450 Q 376 465 342 436 Q 288 414 281 414 Q 275 415 273 411 Q 272 407 279 403 Q 303 390 353 407 Q 359 408 365 403 Q 377 387 359 370 Q 317 340 360 255 Q 361 251 364 245 Q 376 209 378 191 Q 377 190 376 188 C 375 173 375 173 392 185 Z"></path>
      </clipPath>
      <path clip-path="url(#make-me-a-hanzi-clip-14)" d="M 278 409 L 309 409 L 375 428 L 399 409 L 392 386 L 363 346 L 358 320 L 363 291 L 379 262 L 390 221 L 392 205 L 380 187" fill="none" id="make-me-a-hanzi-animation-14" stroke-dasharray="501 1002" stroke-linecap="round"></path>
    
      <clipPath id="make-me-a-hanzi-clip-15">
        <path d="M 376 188 Q 358 192 338 189 Q 316 185 296 190 Q 281 193 279 186 Q 275 176 288 165 Q 304 147 355 156 Q 406 162 447 134 Q 567 74 711 -1 Q 742 -20 789 -4 Q 850 17 908 37 Q 927 43 927 52 Q 927 61 880 62 Q 693 74 660 82 Q 567 115 416 177 Q 404 183 392 185 L 376 188 Z"></path>
      </clipPath>
      <path clip-path="url(#make-me-a-hanzi-clip-15)" d="M 288 181 L 307 171 L 357 174 L 421 163 L 641 62 L 736 32 L 785 32 L 920 50" fill="none" id="make-me-a-hanzi-animation-15" stroke-dasharray="791 1582" stroke-linecap="round"></path>
    
  </g>
</svg>