<svg version="1.1" viewBox="0 0 1024 1024" xmlns="http://www.w3.org/2000/svg">
  <g stroke="lightgray" stroke-dasharray="1,1" stroke-width="1" transform="scale(4, 4)">
    <line x1="0" y1="0" x2="256" y2="256"></line>
    <line x1="256" y1="0" x2="0" y2="256"></line>
    <line x1="128" y1="0" x2="128" y2="256"></line>
    <line x1="0" y1="128" x2="256" y2="128"></line>
  </g>
  <g transform="scale(1, -1) translate(0, -900)">
    <style type="text/css">
      
        @keyframes keyframes0 {
          from {
            stroke: blue;
            stroke-dashoffset: 1012;
            stroke-width: 128;
          }
          77% {
            animation-timing-function: step-end;
            stroke: blue;
            stroke-dashoffset: 0;
            stroke-width: 128;
          }
          to {
            stroke: black;
            stroke-width: 1024;
          }
        }
        #make-me-a-hanzi-animation-0 {
          animation: keyframes0 1.0735677083333333s both;
          animation-delay: 0s;
          animation-timing-function: linear;
        }
      
        @keyframes keyframes1 {
          from {
            stroke: blue;
            stroke-dashoffset: 530;
            stroke-width: 128;
          }
          63% {
            animation-timing-function: step-end;
            stroke: blue;
            stroke-dashoffset: 0;
            stroke-width: 128;
          }
          to {
            stroke: black;
            stroke-width: 1024;
          }
        }
        #make-me-a-hanzi-animation-1 {
          animation: keyframes1 0.6813151041666666s both;
          animation-delay: 1.0735677083333333s;
          animation-timing-function: linear;
        }
      
        @keyframes keyframes2 {
          from {
            stroke: blue;
            stroke-dashoffset: 590;
            stroke-width: 128;
          }
          66% {
            animation-timing-function: step-end;
            stroke: blue;
            stroke-dashoffset: 0;
            stroke-width: 128;
          }
          to {
            stroke: black;
            stroke-width: 1024;
          }
        }
        #make-me-a-hanzi-animation-2 {
          animation: keyframes2 0.7301432291666666s both;
          animation-delay: 1.7548828125s;
          animation-timing-function: linear;
        }
      
        @keyframes keyframes3 {
          from {
            stroke: blue;
            stroke-dashoffset: 945;
            stroke-width: 128;
          }
          75% {
            animation-timing-function: step-end;
            stroke: blue;
            stroke-dashoffset: 0;
            stroke-width: 128;
          }
          to {
            stroke: black;
            stroke-width: 1024;
          }
        }
        #make-me-a-hanzi-animation-3 {
          animation: keyframes3 1.01904296875s both;
          animation-delay: 2.4850260416666665s;
          animation-timing-function: linear;
        }
      
    </style>
    
      <path d="M 356 343 Q 369 433 374 494 L 376 519 Q 379 651 383 685 Q 389 707 366 718 Q 311 743 294 739 Q 272 735 291 710 Q 327 656 315 447 Q 312 362 273 260 Q 245 182 147 83 Q 132 68 128 61 Q 127 54 140 54 Q 188 58 262 145 Q 326 221 350 315 L 356 343 Z" fill="lightgray"></path>
    
      <path d="M 624 573 Q 645 744 660 778 Q 664 788 644 804 Q 611 823 587 829 Q 572 833 564 825 Q 557 818 564 803 Q 579 781 579 766 Q 583 669 580 558 C 579 528 620 543 624 573 Z" fill="lightgray"></path>
    
      <path d="M 374 494 Q 413 476 462 487 Q 559 506 661 527 Q 707 537 715 545 Q 724 552 719 561 Q 712 571 684 579 Q 654 585 625 574 Q 624 574 624 573 L 580 558 Q 442 528 377 520 Q 376 520 376 519 C 347 513 346 505 374 494 Z" fill="lightgray"></path>
    
      <path d="M 350 315 Q 374 303 593 352 Q 612 356 616 339 Q 632 248 604 81 Q 600 47 615 21 Q 643 -30 656 -29 Q 669 -28 677 -5 Q 684 31 682 259 Q 682 313 703 344 Q 719 366 714 376 Q 705 385 672 397 Q 635 412 607 400 Q 502 361 356 343 C 326 339 320 318 350 315 Z" fill="lightgray"></path>
    
    
      <clipPath id="make-me-a-hanzi-clip-0">
        <path d="M 356 343 Q 369 433 374 494 L 376 519 Q 379 651 383 685 Q 389 707 366 718 Q 311 743 294 739 Q 272 735 291 710 Q 327 656 315 447 Q 312 362 273 260 Q 245 182 147 83 Q 132 68 128 61 Q 127 54 140 54 Q 188 58 262 145 Q 326 221 350 315 L 356 343 Z"></path>
      </clipPath>
      <path clip-path="url(#make-me-a-hanzi-clip-0)" d="M 296 724 L 315 715 L 344 686 L 348 531 L 342 436 L 328 342 L 296 244 L 259 178 L 189 98 L 136 62" fill="none" id="make-me-a-hanzi-animation-0" stroke-dasharray="884 1768" stroke-linecap="round"></path>
    
      <clipPath id="make-me-a-hanzi-clip-1">
        <path d="M 624 573 Q 645 744 660 778 Q 664 788 644 804 Q 611 823 587 829 Q 572 833 564 825 Q 557 818 564 803 Q 579 781 579 766 Q 583 669 580 558 C 579 528 620 543 624 573 Z"></path>
      </clipPath>
      <path clip-path="url(#make-me-a-hanzi-clip-1)" d="M 575 816 L 597 799 L 617 772 L 604 591 L 586 566" fill="none" id="make-me-a-hanzi-animation-1" stroke-dasharray="402 804" stroke-linecap="round"></path>
    
      <clipPath id="make-me-a-hanzi-clip-2">
        <path d="M 374 494 Q 413 476 462 487 Q 559 506 661 527 Q 707 537 715 545 Q 724 552 719 561 Q 712 571 684 579 Q 654 585 625 574 Q 624 574 624 573 L 580 558 Q 442 528 377 520 Q 376 520 376 519 C 347 513 346 505 374 494 Z"></path>
      </clipPath>
      <path clip-path="url(#make-me-a-hanzi-clip-2)" d="M 383 513 L 399 504 L 435 506 L 586 535 L 640 551 L 709 555" fill="none" id="make-me-a-hanzi-animation-2" stroke-dasharray="462 924" stroke-linecap="round"></path>
    
      <clipPath id="make-me-a-hanzi-clip-3">
        <path d="M 350 315 Q 374 303 593 352 Q 612 356 616 339 Q 632 248 604 81 Q 600 47 615 21 Q 643 -30 656 -29 Q 669 -28 677 -5 Q 684 31 682 259 Q 682 313 703 344 Q 719 366 714 376 Q 705 385 672 397 Q 635 412 607 400 Q 502 361 356 343 C 326 339 320 318 350 315 Z"></path>
      </clipPath>
      <path clip-path="url(#make-me-a-hanzi-clip-3)" d="M 354 321 L 370 329 L 504 349 L 595 374 L 629 374 L 658 355 L 642 71 L 657 -16" fill="none" id="make-me-a-hanzi-animation-3" stroke-dasharray="817 1634" stroke-linecap="round"></path>
    
  </g>
</svg>