<svg version="1.1" viewBox="0 0 1024 1024" xmlns="http://www.w3.org/2000/svg">
  <g stroke="lightgray" stroke-dasharray="1,1" stroke-width="1" transform="scale(4, 4)">
    <line x1="0" y1="0" x2="256" y2="256"></line>
    <line x1="256" y1="0" x2="0" y2="256"></line>
    <line x1="128" y1="0" x2="128" y2="256"></line>
    <line x1="0" y1="128" x2="256" y2="128"></line>
  </g>
  <g transform="scale(1, -1) translate(0, -900)">
    <style type="text/css">
      
        @keyframes keyframes0 {
          from {
            stroke: blue;
            stroke-dashoffset: 395;
            stroke-width: 128;
          }
          56% {
            animation-timing-function: step-end;
            stroke: blue;
            stroke-dashoffset: 0;
            stroke-width: 128;
          }
          to {
            stroke: black;
            stroke-width: 1024;
          }
        }
        #make-me-a-hanzi-animation-0 {
          animation: keyframes0 0.5714518229166666s both;
          animation-delay: 0s;
          animation-timing-function: linear;
        }
      
        @keyframes keyframes1 {
          from {
            stroke: blue;
            stroke-dashoffset: 463;
            stroke-width: 128;
          }
          60% {
            animation-timing-function: step-end;
            stroke: blue;
            stroke-dashoffset: 0;
            stroke-width: 128;
          }
          to {
            stroke: black;
            stroke-width: 1024;
          }
        }
        #make-me-a-hanzi-animation-1 {
          animation: keyframes1 0.6267903645833334s both;
          animation-delay: 0.5714518229166666s;
          animation-timing-function: linear;
        }
      
        @keyframes keyframes2 {
          from {
            stroke: blue;
            stroke-dashoffset: 907;
            stroke-width: 128;
          }
          75% {
            animation-timing-function: step-end;
            stroke: blue;
            stroke-dashoffset: 0;
            stroke-width: 128;
          }
          to {
            stroke: black;
            stroke-width: 1024;
          }
        }
        #make-me-a-hanzi-animation-2 {
          animation: keyframes2 0.9881184895833334s both;
          animation-delay: 1.1982421875s;
          animation-timing-function: linear;
        }
      
        @keyframes keyframes3 {
          from {
            stroke: blue;
            stroke-dashoffset: 503;
            stroke-width: 128;
          }
          62% {
            animation-timing-function: step-end;
            stroke: blue;
            stroke-dashoffset: 0;
            stroke-width: 128;
          }
          to {
            stroke: black;
            stroke-width: 1024;
          }
        }
        #make-me-a-hanzi-animation-3 {
          animation: keyframes3 0.6593424479166666s both;
          animation-delay: 2.1863606770833335s;
          animation-timing-function: linear;
        }
      
        @keyframes keyframes4 {
          from {
            stroke: blue;
            stroke-dashoffset: 581;
            stroke-width: 128;
          }
          65% {
            animation-timing-function: step-end;
            stroke: blue;
            stroke-dashoffset: 0;
            stroke-width: 128;
          }
          to {
            stroke: black;
            stroke-width: 1024;
          }
        }
        #make-me-a-hanzi-animation-4 {
          animation: keyframes4 0.7228190104166666s both;
          animation-delay: 2.845703125s;
          animation-timing-function: linear;
        }
      
        @keyframes keyframes5 {
          from {
            stroke: blue;
            stroke-dashoffset: 925;
            stroke-width: 128;
          }
          75% {
            animation-timing-function: step-end;
            stroke: blue;
            stroke-dashoffset: 0;
            stroke-width: 128;
          }
          to {
            stroke: black;
            stroke-width: 1024;
          }
        }
        #make-me-a-hanzi-animation-5 {
          animation: keyframes5 1.0027669270833333s both;
          animation-delay: 3.5685221354166665s;
          animation-timing-function: linear;
        }
      
        @keyframes keyframes6 {
          from {
            stroke: blue;
            stroke-dashoffset: 946;
            stroke-width: 128;
          }
          75% {
            animation-timing-function: step-end;
            stroke: blue;
            stroke-dashoffset: 0;
            stroke-width: 128;
          }
          to {
            stroke: black;
            stroke-width: 1024;
          }
        }
        #make-me-a-hanzi-animation-6 {
          animation: keyframes6 1.0198567708333333s both;
          animation-delay: 4.5712890625s;
          animation-timing-function: linear;
        }
      
    </style>
    
      <path d="M 476 804 Q 500 783 525 758 Q 541 743 559 744 Q 571 745 576 760 Q 582 778 571 811 Q 559 844 469 859 Q 451 863 444 859 Q 438 855 440 840 Q 444 827 476 804 Z" fill="lightgray"></path>
    
      <path d="M 292 659 Q 279 684 268 692 Q 247 707 246 679 Q 250 646 221 608 Q 173 557 189 514 Q 193 499 199 487 Q 215 459 236 489 Q 243 501 293 626 C 300 644 300 644 292 659 Z" fill="lightgray"></path>
    
      <path d="M 293 626 Q 314 617 366 627 Q 480 663 687 683 Q 727 687 741 684 Q 754 672 752 665 Q 734 617 715 566 L 717 565 Q 724 561 743 573 Q 803 613 851 627 Q 891 640 891 650 Q 890 660 813 715 Q 789 733 719 720 Q 635 711 392 672 Q 343 665 292 659 C 262 655 264 632 293 626 Z" fill="lightgray"></path>
    
      <path d="M 394 456 Q 407 483 423 505 Q 432 518 416 532 Q 368 562 346 555 Q 336 551 339 537 Q 358 465 292 371 Q 276 349 268 336 Q 261 320 276 326 Q 289 329 306 344 Q 352 384 380 431 L 394 456 Z" fill="lightgray"></path>
    
      <path d="M 569 433 Q 708 464 710 465 Q 720 474 715 483 Q 708 496 676 504 Q 640 513 570 486 L 511 471 Q 456 461 394 456 C 364 453 353 445 380 431 Q 420 407 497 421 Q 503 422 511 423 L 569 433 Z" fill="lightgray"></path>
    
      <path d="M 565 262 Q 619 268 858 267 Q 882 267 887 277 Q 894 290 874 307 Q 814 352 769 344 Q 690 328 566 309 L 509 301 Q 373 285 215 266 Q 190 263 208 243 Q 224 227 246 220 Q 271 213 290 219 Q 387 244 497 255 Q 501 256 508 255 L 565 262 Z" fill="lightgray"></path>
    
      <path d="M 508 -19 Q 514 -47 521 -57 Q 527 -64 535 -62 Q 550 -53 559 12 Q 565 64 565 262 L 566 309 Q 566 363 569 433 L 570 486 Q 570 525 583 577 Q 587 596 571 607 Q 537 631 519 634 Q 506 640 488 630 Q 478 621 486 609 Q 507 557 510 546 Q 510 510 511 471 L 511 423 Q 510 368 509 301 L 508 255 Q 501 57 508 -19 Z" fill="lightgray"></path>
    
    
      <clipPath id="make-me-a-hanzi-clip-0">
        <path d="M 476 804 Q 500 783 525 758 Q 541 743 559 744 Q 571 745 576 760 Q 582 778 571 811 Q 559 844 469 859 Q 451 863 444 859 Q 438 855 440 840 Q 444 827 476 804 Z"></path>
      </clipPath>
      <path clip-path="url(#make-me-a-hanzi-clip-0)" d="M 451 850 L 534 801 L 556 764" fill="none" id="make-me-a-hanzi-animation-0" stroke-dasharray="267 534" stroke-linecap="round"></path>
    
      <clipPath id="make-me-a-hanzi-clip-1">
        <path d="M 292 659 Q 279 684 268 692 Q 247 707 246 679 Q 250 646 221 608 Q 173 557 189 514 Q 193 499 199 487 Q 215 459 236 489 Q 243 501 293 626 C 300 644 300 644 292 659 Z"></path>
      </clipPath>
      <path clip-path="url(#make-me-a-hanzi-clip-1)" d="M 257 685 L 268 653 L 266 631 L 220 541 L 216 491" fill="none" id="make-me-a-hanzi-animation-1" stroke-dasharray="335 670" stroke-linecap="round"></path>
    
      <clipPath id="make-me-a-hanzi-clip-2">
        <path d="M 293 626 Q 314 617 366 627 Q 480 663 687 683 Q 727 687 741 684 Q 754 672 752 665 Q 734 617 715 566 L 717 565 Q 724 561 743 573 Q 803 613 851 627 Q 891 640 891 650 Q 890 660 813 715 Q 789 733 719 720 Q 635 711 392 672 Q 343 665 292 659 C 262 655 264 632 293 626 Z"></path>
      </clipPath>
      <path clip-path="url(#make-me-a-hanzi-clip-2)" d="M 300 654 L 310 643 L 336 643 L 510 677 L 753 704 L 789 683 L 801 660 L 731 576 L 720 573" fill="none" id="make-me-a-hanzi-animation-2" stroke-dasharray="779 1558" stroke-linecap="round"></path>
    
      <clipPath id="make-me-a-hanzi-clip-3">
        <path d="M 394 456 Q 407 483 423 505 Q 432 518 416 532 Q 368 562 346 555 Q 336 551 339 537 Q 358 465 292 371 Q 276 349 268 336 Q 261 320 276 326 Q 289 329 306 344 Q 352 384 380 431 L 394 456 Z"></path>
      </clipPath>
      <path clip-path="url(#make-me-a-hanzi-clip-3)" d="M 352 542 L 380 507 L 367 463 L 321 381 L 278 336" fill="none" id="make-me-a-hanzi-animation-3" stroke-dasharray="375 750" stroke-linecap="round"></path>
    
      <clipPath id="make-me-a-hanzi-clip-4">
        <path d="M 569 433 Q 708 464 710 465 Q 720 474 715 483 Q 708 496 676 504 Q 640 513 570 486 L 511 471 Q 456 461 394 456 C 364 453 353 445 380 431 Q 420 407 497 421 Q 503 422 511 423 L 569 433 Z"></path>
      </clipPath>
      <path clip-path="url(#make-me-a-hanzi-clip-4)" d="M 388 434 L 405 440 L 425 437 L 514 447 L 648 479 L 693 480 L 706 474" fill="none" id="make-me-a-hanzi-animation-4" stroke-dasharray="453 906" stroke-linecap="round"></path>
    
      <clipPath id="make-me-a-hanzi-clip-5">
        <path d="M 565 262 Q 619 268 858 267 Q 882 267 887 277 Q 894 290 874 307 Q 814 352 769 344 Q 690 328 566 309 L 509 301 Q 373 285 215 266 Q 190 263 208 243 Q 224 227 246 220 Q 271 213 290 219 Q 387 244 497 255 Q 501 256 508 255 L 565 262 Z"></path>
      </clipPath>
      <path clip-path="url(#make-me-a-hanzi-clip-5)" d="M 212 254 L 270 244 L 461 274 L 786 306 L 874 284" fill="none" id="make-me-a-hanzi-animation-5" stroke-dasharray="797 1594" stroke-linecap="round"></path>
    
      <clipPath id="make-me-a-hanzi-clip-6">
        <path d="M 508 -19 Q 514 -47 521 -57 Q 527 -64 535 -62 Q 550 -53 559 12 Q 565 64 565 262 L 566 309 Q 566 363 569 433 L 570 486 Q 570 525 583 577 Q 587 596 571 607 Q 537 631 519 634 Q 506 640 488 630 Q 478 621 486 609 Q 507 557 510 546 Q 510 510 511 471 L 511 423 Q 510 368 509 301 L 508 255 Q 501 57 508 -19 Z"></path>
      </clipPath>
      <path clip-path="url(#make-me-a-hanzi-clip-6)" d="M 497 619 L 539 582 L 543 559 L 531 -52" fill="none" id="make-me-a-hanzi-animation-6" stroke-dasharray="818 1636" stroke-linecap="round"></path>
    
  </g>
</svg>