<svg version="1.1" viewBox="0 0 1024 1024" xmlns="http://www.w3.org/2000/svg">
  <g stroke="lightgray" stroke-dasharray="1,1" stroke-width="1" transform="scale(4, 4)">
    <line x1="0" y1="0" x2="256" y2="256"></line>
    <line x1="256" y1="0" x2="0" y2="256"></line>
    <line x1="128" y1="0" x2="128" y2="256"></line>
    <line x1="0" y1="128" x2="256" y2="128"></line>
  </g>
  <g transform="scale(1, -1) translate(0, -900)">
    <style type="text/css">
      
        @keyframes keyframes0 {
          from {
            stroke: blue;
            stroke-dashoffset: 687;
            stroke-width: 128;
          }
          69% {
            animation-timing-function: step-end;
            stroke: blue;
            stroke-dashoffset: 0;
            stroke-width: 128;
          }
          to {
            stroke: black;
            stroke-width: 1024;
          }
        }
        #make-me-a-hanzi-animation-0 {
          animation: keyframes0 0.80908203125s both;
          animation-delay: 0s;
          animation-timing-function: linear;
        }
      
        @keyframes keyframes1 {
          from {
            stroke: blue;
            stroke-dashoffset: 1110;
            stroke-width: 128;
          }
          78% {
            animation-timing-function: step-end;
            stroke: blue;
            stroke-dashoffset: 0;
            stroke-width: 128;
          }
          to {
            stroke: black;
            stroke-width: 1024;
          }
        }
        #make-me-a-hanzi-animation-1 {
          animation: keyframes1 1.1533203125s both;
          animation-delay: 0.80908203125s;
          animation-timing-function: linear;
        }
      
        @keyframes keyframes2 {
          from {
            stroke: blue;
            stroke-dashoffset: 623;
            stroke-width: 128;
          }
          67% {
            animation-timing-function: step-end;
            stroke: blue;
            stroke-dashoffset: 0;
            stroke-width: 128;
          }
          to {
            stroke: black;
            stroke-width: 1024;
          }
        }
        #make-me-a-hanzi-animation-2 {
          animation: keyframes2 0.7569986979166666s both;
          animation-delay: 1.96240234375s;
          animation-timing-function: linear;
        }
      
        @keyframes keyframes3 {
          from {
            stroke: blue;
            stroke-dashoffset: 518;
            stroke-width: 128;
          }
          63% {
            animation-timing-function: step-end;
            stroke: blue;
            stroke-dashoffset: 0;
            stroke-width: 128;
          }
          to {
            stroke: black;
            stroke-width: 1024;
          }
        }
        #make-me-a-hanzi-animation-3 {
          animation: keyframes3 0.6715494791666666s both;
          animation-delay: 2.7194010416666665s;
          animation-timing-function: linear;
        }
      
        @keyframes keyframes4 {
          from {
            stroke: blue;
            stroke-dashoffset: 741;
            stroke-width: 128;
          }
          71% {
            animation-timing-function: step-end;
            stroke: blue;
            stroke-dashoffset: 0;
            stroke-width: 128;
          }
          to {
            stroke: black;
            stroke-width: 1024;
          }
        }
        #make-me-a-hanzi-animation-4 {
          animation: keyframes4 0.85302734375s both;
          animation-delay: 3.390950520833333s;
          animation-timing-function: linear;
        }
      
        @keyframes keyframes5 {
          from {
            stroke: blue;
            stroke-dashoffset: 482;
            stroke-width: 128;
          }
          61% {
            animation-timing-function: step-end;
            stroke: blue;
            stroke-dashoffset: 0;
            stroke-width: 128;
          }
          to {
            stroke: black;
            stroke-width: 1024;
          }
        }
        #make-me-a-hanzi-animation-5 {
          animation: keyframes5 0.6422526041666666s both;
          animation-delay: 4.243977864583333s;
          animation-timing-function: linear;
        }
      
        @keyframes keyframes6 {
          from {
            stroke: blue;
            stroke-dashoffset: 416;
            stroke-width: 128;
          }
          58% {
            animation-timing-function: step-end;
            stroke: blue;
            stroke-dashoffset: 0;
            stroke-width: 128;
          }
          to {
            stroke: black;
            stroke-width: 1024;
          }
        }
        #make-me-a-hanzi-animation-6 {
          animation: keyframes6 0.5885416666666666s both;
          animation-delay: 4.88623046875s;
          animation-timing-function: linear;
        }
      
        @keyframes keyframes7 {
          from {
            stroke: blue;
            stroke-dashoffset: 812;
            stroke-width: 128;
          }
          73% {
            animation-timing-function: step-end;
            stroke: blue;
            stroke-dashoffset: 0;
            stroke-width: 128;
          }
          to {
            stroke: black;
            stroke-width: 1024;
          }
        }
        #make-me-a-hanzi-animation-7 {
          animation: keyframes7 0.9108072916666666s both;
          animation-delay: 5.474772135416667s;
          animation-timing-function: linear;
        }
      
        @keyframes keyframes8 {
          from {
            stroke: blue;
            stroke-dashoffset: 712;
            stroke-width: 128;
          }
          70% {
            animation-timing-function: step-end;
            stroke: blue;
            stroke-dashoffset: 0;
            stroke-width: 128;
          }
          to {
            stroke: black;
            stroke-width: 1024;
          }
        }
        #make-me-a-hanzi-animation-8 {
          animation: keyframes8 0.8294270833333334s both;
          animation-delay: 6.385579427083334s;
          animation-timing-function: linear;
        }
      
        @keyframes keyframes9 {
          from {
            stroke: blue;
            stroke-dashoffset: 982;
            stroke-width: 128;
          }
          76% {
            animation-timing-function: step-end;
            stroke: blue;
            stroke-dashoffset: 0;
            stroke-width: 128;
          }
          to {
            stroke: black;
            stroke-width: 1024;
          }
        }
        #make-me-a-hanzi-animation-9 {
          animation: keyframes9 1.0491536458333333s both;
          animation-delay: 7.215006510416667s;
          animation-timing-function: linear;
        }
      
        @keyframes keyframes10 {
          from {
            stroke: blue;
            stroke-dashoffset: 394;
            stroke-width: 128;
          }
          56% {
            animation-timing-function: step-end;
            stroke: blue;
            stroke-dashoffset: 0;
            stroke-width: 128;
          }
          to {
            stroke: black;
            stroke-width: 1024;
          }
        }
        #make-me-a-hanzi-animation-10 {
          animation: keyframes10 0.5706380208333334s both;
          animation-delay: 8.26416015625s;
          animation-timing-function: linear;
        }
      
        @keyframes keyframes11 {
          from {
            stroke: blue;
            stroke-dashoffset: 409;
            stroke-width: 128;
          }
          57% {
            animation-timing-function: step-end;
            stroke: blue;
            stroke-dashoffset: 0;
            stroke-width: 128;
          }
          to {
            stroke: black;
            stroke-width: 1024;
          }
        }
        #make-me-a-hanzi-animation-11 {
          animation: keyframes11 0.5828450520833334s both;
          animation-delay: 8.834798177083334s;
          animation-timing-function: linear;
        }
      
    </style>
    
      <path d="M 288 605 Q 330 672 382 739 Q 394 752 379 768 Q 337 807 309 804 Q 297 803 298 786 Q 301 732 264 659 L 231 607 Q 228 606 228 603 Q 192 552 147 513 Q 110 480 90 461 Q 80 445 97 449 Q 149 456 249 558 L 288 605 Z" fill="lightgray"></path>
    
      <path d="M 272 396 Q 279 221 255 116 Q 251 100 244 100 Q 234 97 204 101 Q 170 111 166 105 Q 162 98 173 85 Q 206 51 225 18 Q 247 -10 257 -10 Q 264 -13 278 4 Q 359 115 311 499 Q 296 578 288 605 L 264 659 Q 249 689 223 714 Q 184 751 156 766 Q 143 776 137 763 Q 131 748 137 727 Q 144 705 164 699 Q 200 681 227 617 Q 228 613 231 607 L 249 558 Q 249 557 250 555 Q 257 521 263 484 L 272 396 Z" fill="lightgray"></path>
    
      <path d="M 263 484 Q 229 417 187 359 Q 142 301 40 195 Q 33 185 45 183 Q 63 180 172 273 Q 223 319 272 396 C 288 421 277 511 263 484 Z" fill="lightgray"></path>
    
      <path d="M 535 767 Q 516 780 495 786 Q 482 790 474 784 Q 467 778 474 765 Q 493 732 502 698 Q 509 664 526 524 C 530 494 565 500 562 530 Q 556 597 553 644 L 552 671 Q 552 702 553 735 C 554 755 554 755 535 767 Z" fill="lightgray"></path>
    
      <path d="M 764 564 Q 786 711 833 754 Q 848 773 833 789 Q 817 802 765 823 Q 747 830 726 821 Q 659 791 535 767 C 506 761 524 727 553 735 Q 565 739 713 772 Q 731 776 739 769 Q 752 756 750 729 Q 737 630 714 555 C 706 526 759 534 764 564 Z" fill="lightgray"></path>
    
      <path d="M 654 546 Q 666 624 681 654 Q 688 661 684 669 Q 678 679 636 694 Q 624 698 616 694 Q 586 682 552 671 C 523 662 523 641 553 644 Q 562 644 570 648 Q 613 664 618 663 Q 622 660 624 648 Q 624 603 617 539 C 614 509 649 516 654 546 Z" fill="lightgray"></path>
    
      <path d="M 442 511 Q 429 533 414 544 Q 411 548 405 545 Q 399 541 399 530 Q 400 502 375 444 Q 365 428 365 408 Q 368 389 377 374 Q 384 362 390 370 Q 397 371 406 387 Q 410 393 418 416 Q 428 443 446 478 C 453 492 453 492 442 511 Z" fill="lightgray"></path>
    
      <path d="M 446 478 Q 456 475 522 492 Q 639 526 789 540 Q 819 544 830 542 Q 843 533 842 527 Q 842 524 813 461 Q 807 448 813 445 Q 820 441 834 452 Q 883 485 924 496 Q 957 506 956 514 Q 955 523 891 569 Q 872 582 851 579 Q 811 573 764 564 L 714 555 Q 686 552 654 546 L 617 539 Q 590 536 562 530 L 526 524 Q 525 525 523 524 Q 483 517 442 511 C 412 507 416 476 446 478 Z" fill="lightgray"></path>
    
      <path d="M 536 204 Q 539 256 544 292 L 547 320 Q 551 371 555 390 Q 555 393 555 395 C 557 415 557 415 544 425 Q 526 443 495 443 Q 482 439 487 428 Q 533 314 474 106 Q 450 46 451 45 Q 451 14 468 -10 Q 474 -23 484 -18 Q 521 6 534 178 L 536 204 Z" fill="lightgray"></path>
    
      <path d="M 555 395 Q 591 401 680 419 Q 701 423 706 411 Q 727 356 727 109 Q 727 54 720 43 Q 716 37 699 41 Q 680 45 659 49 Q 640 58 640 48 Q 685 -1 709 -36 Q 722 -55 738 -60 Q 747 -64 755 -54 Q 797 -6 796 48 Q 757 351 784 402 Q 797 421 784 432 Q 762 451 725 466 Q 706 473 691 465 Q 628 432 544 425 C 514 422 525 390 555 395 Z" fill="lightgray"></path>
    
      <path d="M 544 292 Q 545 292 548 292 Q 620 305 672 313 Q 694 317 685 329 Q 675 342 651 346 Q 620 349 547 320 C 519 309 514 291 544 292 Z" fill="lightgray"></path>
    
      <path d="M 534 178 Q 541 177 550 178 Q 626 187 682 192 Q 704 195 697 208 Q 687 223 661 228 Q 639 232 536 204 C 507 196 504 181 534 178 Z" fill="lightgray"></path>
    
    
      <clipPath id="make-me-a-hanzi-clip-0">
        <path d="M 288 605 Q 330 672 382 739 Q 394 752 379 768 Q 337 807 309 804 Q 297 803 298 786 Q 301 732 264 659 L 231 607 Q 228 606 228 603 Q 192 552 147 513 Q 110 480 90 461 Q 80 445 97 449 Q 149 456 249 558 L 288 605 Z"></path>
      </clipPath>
      <path clip-path="url(#make-me-a-hanzi-clip-0)" d="M 311 790 L 328 771 L 337 749 L 279 636 L 227 564 L 197 533 L 158 498 L 100 459" fill="none" id="make-me-a-hanzi-animation-0" stroke-dasharray="559 1118" stroke-linecap="round"></path>
    
      <clipPath id="make-me-a-hanzi-clip-1">
        <path d="M 272 396 Q 279 221 255 116 Q 251 100 244 100 Q 234 97 204 101 Q 170 111 166 105 Q 162 98 173 85 Q 206 51 225 18 Q 247 -10 257 -10 Q 264 -13 278 4 Q 359 115 311 499 Q 296 578 288 605 L 264 659 Q 249 689 223 714 Q 184 751 156 766 Q 143 776 137 763 Q 131 748 137 727 Q 144 705 164 699 Q 200 681 227 617 Q 228 613 231 607 L 249 558 Q 249 557 250 555 Q 257 521 263 484 L 272 396 Z"></path>
      </clipPath>
      <path clip-path="url(#make-me-a-hanzi-clip-1)" d="M 147 760 L 163 731 L 219 683 L 264 594 L 286 505 L 300 353 L 297 178 L 287 112 L 276 81 L 255 56 L 171 101" fill="none" id="make-me-a-hanzi-animation-1" stroke-dasharray="982 1964" stroke-linecap="round"></path>
    
      <clipPath id="make-me-a-hanzi-clip-2">
        <path d="M 263 484 Q 229 417 187 359 Q 142 301 40 195 Q 33 185 45 183 Q 63 180 172 273 Q 223 319 272 396 C 288 421 277 511 263 484 Z"></path>
      </clipPath>
      <path clip-path="url(#make-me-a-hanzi-clip-2)" d="M 261 476 L 244 400 L 200 336 L 131 261 L 47 191" fill="none" id="make-me-a-hanzi-animation-2" stroke-dasharray="495 990" stroke-linecap="round"></path>
    
      <clipPath id="make-me-a-hanzi-clip-3">
        <path d="M 535 767 Q 516 780 495 786 Q 482 790 474 784 Q 467 778 474 765 Q 493 732 502 698 Q 509 664 526 524 C 530 494 565 500 562 530 Q 556 597 553 644 L 552 671 Q 552 702 553 735 C 554 755 554 755 535 767 Z"></path>
      </clipPath>
      <path clip-path="url(#make-me-a-hanzi-clip-3)" d="M 483 775 L 514 748 L 523 727 L 539 562 L 542 545 L 555 538" fill="none" id="make-me-a-hanzi-animation-3" stroke-dasharray="390 780" stroke-linecap="round"></path>
    
      <clipPath id="make-me-a-hanzi-clip-4">
        <path d="M 764 564 Q 786 711 833 754 Q 848 773 833 789 Q 817 802 765 823 Q 747 830 726 821 Q 659 791 535 767 C 506 761 524 727 553 735 Q 565 739 713 772 Q 731 776 739 769 Q 752 756 750 729 Q 737 630 714 555 C 706 526 759 534 764 564 Z"></path>
      </clipPath>
      <path clip-path="url(#make-me-a-hanzi-clip-4)" d="M 545 766 L 562 755 L 741 798 L 763 791 L 788 767 L 745 583 L 720 560" fill="none" id="make-me-a-hanzi-animation-4" stroke-dasharray="613 1226" stroke-linecap="round"></path>
    
      <clipPath id="make-me-a-hanzi-clip-5">
        <path d="M 654 546 Q 666 624 681 654 Q 688 661 684 669 Q 678 679 636 694 Q 624 698 616 694 Q 586 682 552 671 C 523 662 523 641 553 644 Q 562 644 570 648 Q 613 664 618 663 Q 622 660 624 648 Q 624 603 617 539 C 614 509 649 516 654 546 Z"></path>
      </clipPath>
      <path clip-path="url(#make-me-a-hanzi-clip-5)" d="M 557 651 L 566 661 L 615 678 L 638 672 L 651 658 L 638 563 L 622 548" fill="none" id="make-me-a-hanzi-animation-5" stroke-dasharray="354 708" stroke-linecap="round"></path>
    
      <clipPath id="make-me-a-hanzi-clip-6">
        <path d="M 442 511 Q 429 533 414 544 Q 411 548 405 545 Q 399 541 399 530 Q 400 502 375 444 Q 365 428 365 408 Q 368 389 377 374 Q 384 362 390 370 Q 397 371 406 387 Q 410 393 418 416 Q 428 443 446 478 C 453 492 453 492 442 511 Z"></path>
      </clipPath>
      <path clip-path="url(#make-me-a-hanzi-clip-6)" d="M 409 537 L 419 491 L 392 420 L 387 383" fill="none" id="make-me-a-hanzi-animation-6" stroke-dasharray="288 576" stroke-linecap="round"></path>
    
      <clipPath id="make-me-a-hanzi-clip-7">
        <path d="M 446 478 Q 456 475 522 492 Q 639 526 789 540 Q 819 544 830 542 Q 843 533 842 527 Q 842 524 813 461 Q 807 448 813 445 Q 820 441 834 452 Q 883 485 924 496 Q 957 506 956 514 Q 955 523 891 569 Q 872 582 851 579 Q 811 573 764 564 L 714 555 Q 686 552 654 546 L 617 539 Q 590 536 562 530 L 526 524 Q 525 525 523 524 Q 483 517 442 511 C 412 507 416 476 446 478 Z"></path>
      </clipPath>
      <path clip-path="url(#make-me-a-hanzi-clip-7)" d="M 450 484 L 461 496 L 585 522 L 833 560 L 864 550 L 883 525 L 818 451" fill="none" id="make-me-a-hanzi-animation-7" stroke-dasharray="684 1368" stroke-linecap="round"></path>
    
      <clipPath id="make-me-a-hanzi-clip-8">
        <path d="M 536 204 Q 539 256 544 292 L 547 320 Q 551 371 555 390 Q 555 393 555 395 C 557 415 557 415 544 425 Q 526 443 495 443 Q 482 439 487 428 Q 533 314 474 106 Q 450 46 451 45 Q 451 14 468 -10 Q 474 -23 484 -18 Q 521 6 534 178 L 536 204 Z"></path>
      </clipPath>
      <path clip-path="url(#make-me-a-hanzi-clip-8)" d="M 496 433 L 522 406 L 528 331 L 513 167 L 482 38 L 479 -8" fill="none" id="make-me-a-hanzi-animation-8" stroke-dasharray="584 1168" stroke-linecap="round"></path>
    
      <clipPath id="make-me-a-hanzi-clip-9">
        <path d="M 555 395 Q 591 401 680 419 Q 701 423 706 411 Q 727 356 727 109 Q 727 54 720 43 Q 716 37 699 41 Q 680 45 659 49 Q 640 58 640 48 Q 685 -1 709 -36 Q 722 -55 738 -60 Q 747 -64 755 -54 Q 797 -6 796 48 Q 757 351 784 402 Q 797 421 784 432 Q 762 451 725 466 Q 706 473 691 465 Q 628 432 544 425 C 514 422 525 390 555 395 Z"></path>
      </clipPath>
      <path clip-path="url(#make-me-a-hanzi-clip-9)" d="M 553 420 L 565 412 L 594 416 L 708 443 L 732 429 L 746 411 L 761 57 L 757 31 L 739 1 L 712 9 L 650 44" fill="none" id="make-me-a-hanzi-animation-9" stroke-dasharray="854 1708" stroke-linecap="round"></path>
    
      <clipPath id="make-me-a-hanzi-clip-10">
        <path d="M 544 292 Q 545 292 548 292 Q 620 305 672 313 Q 694 317 685 329 Q 675 342 651 346 Q 620 349 547 320 C 519 309 514 291 544 292 Z"></path>
      </clipPath>
      <path clip-path="url(#make-me-a-hanzi-clip-10)" d="M 546 299 L 556 301 L 561 311 L 627 326 L 676 323" fill="none" id="make-me-a-hanzi-animation-10" stroke-dasharray="266 532" stroke-linecap="round"></path>
    
      <clipPath id="make-me-a-hanzi-clip-11">
        <path d="M 534 178 Q 541 177 550 178 Q 626 187 682 192 Q 704 195 697 208 Q 687 223 661 228 Q 639 232 536 204 C 507 196 504 181 534 178 Z"></path>
      </clipPath>
      <path clip-path="url(#make-me-a-hanzi-clip-11)" d="M 538 184 L 552 195 L 629 207 L 686 203" fill="none" id="make-me-a-hanzi-animation-11" stroke-dasharray="281 562" stroke-linecap="round"></path>
    
  </g>
</svg>