<svg version="1.1" viewBox="0 0 1024 1024" xmlns="http://www.w3.org/2000/svg">
  <g stroke="lightgray" stroke-dasharray="1,1" stroke-width="1" transform="scale(4, 4)">
    <line x1="0" y1="0" x2="256" y2="256"></line>
    <line x1="256" y1="0" x2="0" y2="256"></line>
    <line x1="128" y1="0" x2="128" y2="256"></line>
    <line x1="0" y1="128" x2="256" y2="128"></line>
  </g>
  <g transform="scale(1, -1) translate(0, -900)">
    <style type="text/css">
      
        @keyframes keyframes0 {
          from {
            stroke: blue;
            stroke-dashoffset: 608;
            stroke-width: 128;
          }
          66% {
            animation-timing-function: step-end;
            stroke: blue;
            stroke-dashoffset: 0;
            stroke-width: 128;
          }
          to {
            stroke: black;
            stroke-width: 1024;
          }
        }
        #make-me-a-hanzi-animation-0 {
          animation: keyframes0 0.7447916666666666s both;
          animation-delay: 0s;
          animation-timing-function: linear;
        }
      
        @keyframes keyframes1 {
          from {
            stroke: blue;
            stroke-dashoffset: 1028;
            stroke-width: 128;
          }
          77% {
            animation-timing-function: step-end;
            stroke: blue;
            stroke-dashoffset: 0;
            stroke-width: 128;
          }
          to {
            stroke: black;
            stroke-width: 1024;
          }
        }
        #make-me-a-hanzi-animation-1 {
          animation: keyframes1 1.0865885416666667s both;
          animation-delay: 0.7447916666666666s;
          animation-timing-function: linear;
        }
      
        @keyframes keyframes2 {
          from {
            stroke: blue;
            stroke-dashoffset: 557;
            stroke-width: 128;
          }
          64% {
            animation-timing-function: step-end;
            stroke: blue;
            stroke-dashoffset: 0;
            stroke-width: 128;
          }
          to {
            stroke: black;
            stroke-width: 1024;
          }
        }
        #make-me-a-hanzi-animation-2 {
          animation: keyframes2 0.7032877604166666s both;
          animation-delay: 1.8313802083333335s;
          animation-timing-function: linear;
        }
      
        @keyframes keyframes3 {
          from {
            stroke: blue;
            stroke-dashoffset: 470;
            stroke-width: 128;
          }
          60% {
            animation-timing-function: step-end;
            stroke: blue;
            stroke-dashoffset: 0;
            stroke-width: 128;
          }
          to {
            stroke: black;
            stroke-width: 1024;
          }
        }
        #make-me-a-hanzi-animation-3 {
          animation: keyframes3 0.6324869791666666s both;
          animation-delay: 2.53466796875s;
          animation-timing-function: linear;
        }
      
        @keyframes keyframes4 {
          from {
            stroke: blue;
            stroke-dashoffset: 424;
            stroke-width: 128;
          }
          58% {
            animation-timing-function: step-end;
            stroke: blue;
            stroke-dashoffset: 0;
            stroke-width: 128;
          }
          to {
            stroke: black;
            stroke-width: 1024;
          }
        }
        #make-me-a-hanzi-animation-4 {
          animation: keyframes4 0.5950520833333334s both;
          animation-delay: 3.1671549479166665s;
          animation-timing-function: linear;
        }
      
        @keyframes keyframes5 {
          from {
            stroke: blue;
            stroke-dashoffset: 560;
            stroke-width: 128;
          }
          65% {
            animation-timing-function: step-end;
            stroke: blue;
            stroke-dashoffset: 0;
            stroke-width: 128;
          }
          to {
            stroke: black;
            stroke-width: 1024;
          }
        }
        #make-me-a-hanzi-animation-5 {
          animation: keyframes5 0.7057291666666666s both;
          animation-delay: 3.76220703125s;
          animation-timing-function: linear;
        }
      
        @keyframes keyframes6 {
          from {
            stroke: blue;
            stroke-dashoffset: 441;
            stroke-width: 128;
          }
          59% {
            animation-timing-function: step-end;
            stroke: blue;
            stroke-dashoffset: 0;
            stroke-width: 128;
          }
          to {
            stroke: black;
            stroke-width: 1024;
          }
        }
        #make-me-a-hanzi-animation-6 {
          animation: keyframes6 0.60888671875s both;
          animation-delay: 4.467936197916667s;
          animation-timing-function: linear;
        }
      
        @keyframes keyframes7 {
          from {
            stroke: blue;
            stroke-dashoffset: 1048;
            stroke-width: 128;
          }
          77% {
            animation-timing-function: step-end;
            stroke: blue;
            stroke-dashoffset: 0;
            stroke-width: 128;
          }
          to {
            stroke: black;
            stroke-width: 1024;
          }
        }
        #make-me-a-hanzi-animation-7 {
          animation: keyframes7 1.1028645833333333s both;
          animation-delay: 5.076822916666667s;
          animation-timing-function: linear;
        }
      
        @keyframes keyframes8 {
          from {
            stroke: blue;
            stroke-dashoffset: 529;
            stroke-width: 128;
          }
          63% {
            animation-timing-function: step-end;
            stroke: blue;
            stroke-dashoffset: 0;
            stroke-width: 128;
          }
          to {
            stroke: black;
            stroke-width: 1024;
          }
        }
        #make-me-a-hanzi-animation-8 {
          animation: keyframes8 0.6805013020833334s both;
          animation-delay: 6.1796875s;
          animation-timing-function: linear;
        }
      
        @keyframes keyframes9 {
          from {
            stroke: blue;
            stroke-dashoffset: 367;
            stroke-width: 128;
          }
          54% {
            animation-timing-function: step-end;
            stroke: blue;
            stroke-dashoffset: 0;
            stroke-width: 128;
          }
          to {
            stroke: black;
            stroke-width: 1024;
          }
        }
        #make-me-a-hanzi-animation-9 {
          animation: keyframes9 0.5486653645833334s both;
          animation-delay: 6.860188802083333s;
          animation-timing-function: linear;
        }
      
        @keyframes keyframes10 {
          from {
            stroke: blue;
            stroke-dashoffset: 475;
            stroke-width: 128;
          }
          61% {
            animation-timing-function: step-end;
            stroke: blue;
            stroke-dashoffset: 0;
            stroke-width: 128;
          }
          to {
            stroke: black;
            stroke-width: 1024;
          }
        }
        #make-me-a-hanzi-animation-10 {
          animation: keyframes10 0.6365559895833334s both;
          animation-delay: 7.408854166666666s;
          animation-timing-function: linear;
        }
      
        @keyframes keyframes11 {
          from {
            stroke: blue;
            stroke-dashoffset: 526;
            stroke-width: 128;
          }
          63% {
            animation-timing-function: step-end;
            stroke: blue;
            stroke-dashoffset: 0;
            stroke-width: 128;
          }
          to {
            stroke: black;
            stroke-width: 1024;
          }
        }
        #make-me-a-hanzi-animation-11 {
          animation: keyframes11 0.6780598958333334s both;
          animation-delay: 8.04541015625s;
          animation-timing-function: linear;
        }
      
        @keyframes keyframes12 {
          from {
            stroke: blue;
            stroke-dashoffset: 569;
            stroke-width: 128;
          }
          65% {
            animation-timing-function: step-end;
            stroke: blue;
            stroke-dashoffset: 0;
            stroke-width: 128;
          }
          to {
            stroke: black;
            stroke-width: 1024;
          }
        }
        #make-me-a-hanzi-animation-12 {
          animation: keyframes12 0.7130533854166666s both;
          animation-delay: 8.723470052083334s;
          animation-timing-function: linear;
        }
      
        @keyframes keyframes13 {
          from {
            stroke: blue;
            stroke-dashoffset: 750;
            stroke-width: 128;
          }
          71% {
            animation-timing-function: step-end;
            stroke: blue;
            stroke-dashoffset: 0;
            stroke-width: 128;
          }
          to {
            stroke: black;
            stroke-width: 1024;
          }
        }
        #make-me-a-hanzi-animation-13 {
          animation: keyframes13 0.8603515625s both;
          animation-delay: 9.4365234375s;
          animation-timing-function: linear;
        }
      
        @keyframes keyframes14 {
          from {
            stroke: blue;
            stroke-dashoffset: 737;
            stroke-width: 128;
          }
          71% {
            animation-timing-function: step-end;
            stroke: blue;
            stroke-dashoffset: 0;
            stroke-width: 128;
          }
          to {
            stroke: black;
            stroke-width: 1024;
          }
        }
        #make-me-a-hanzi-animation-14 {
          animation: keyframes14 0.8497721354166666s both;
          animation-delay: 10.296875s;
          animation-timing-function: linear;
        }
      
        @keyframes keyframes15 {
          from {
            stroke: blue;
            stroke-dashoffset: 457;
            stroke-width: 128;
          }
          60% {
            animation-timing-function: step-end;
            stroke: blue;
            stroke-dashoffset: 0;
            stroke-width: 128;
          }
          to {
            stroke: black;
            stroke-width: 1024;
          }
        }
        #make-me-a-hanzi-animation-15 {
          animation: keyframes15 0.6219075520833334s both;
          animation-delay: 11.146647135416666s;
          animation-timing-function: linear;
        }
      
    </style>
    
      <path d="M 243 591 Q 259 612 274 632 Q 305 678 333 714 Q 343 724 332 738 Q 295 771 274 769 Q 264 768 264 755 Q 265 697 219 627 L 193 592 Q 168 559 137 533 Q 106 508 90 491 Q 81 478 95 481 Q 129 484 213 559 L 243 591 Z" fill="lightgray"></path>
    
      <path d="M 246 390 Q 253 233 223 129 Q 216 113 208 111 Q 192 110 151 124 Q 126 133 121 128 Q 118 122 127 112 Q 167 78 192 48 Q 208 23 218 24 Q 225 23 241 41 Q 310 120 287 396 Q 286 403 286 409 Q 274 520 243 591 L 219 627 Q 180 669 125 689 Q 113 693 110 684 Q 109 672 116 656 Q 125 640 140 638 Q 168 631 193 592 L 213 559 Q 225 535 237 463 L 246 390 Z" fill="lightgray"></path>
    
      <path d="M 237 463 Q 183 358 56 224 Q 50 217 60 214 Q 78 211 168 295 Q 208 332 246 390 C 263 415 251 490 237 463 Z" fill="lightgray"></path>
    
      <path d="M 459 619 Q 490 629 527 638 Q 552 645 556 649 Q 563 656 559 663 Q 552 672 529 676 Q 498 682 462 660 L 424 648 Q 423 648 421 647 Q 387 637 345 631 Q 317 624 338 612 Q 374 594 425 610 L 459 619 Z" fill="lightgray"></path>
    
      <path d="M 341 525 Q 331 529 313 532 Q 303 535 300 531 Q 296 527 302 513 Q 321 471 333 403 Q 336 384 347 369 Q 360 353 365 364 Q 368 374 368 390 L 366 415 Q 356 481 355 500 C 354 521 354 521 341 525 Z" fill="lightgray"></path>
    
      <path d="M 548 441 Q 569 508 589 523 Q 601 538 589 550 Q 576 560 536 577 Q 523 581 506 575 Q 481 565 459 555 L 427 545 Q 384 533 341 525 C 312 519 326 493 355 500 Q 362 501 372 505 Q 397 512 427 518 L 459 526 Q 508 539 517 534 Q 526 525 512 451 C 507 421 539 412 548 441 Z" fill="lightgray"></path>
    
      <path d="M 459 406 Q 496 413 551 420 Q 560 421 560 428 Q 560 432 548 441 C 532 454 532 454 512 451 Q 485 448 459 437 L 426 428 Q 395 421 366 415 C 337 409 338 385 368 390 L 415 398 L 459 406 Z" fill="lightgray"></path>
    
      <path d="M 425 316 Q 425 190 403 104 Q 396 74 416 18 Q 422 3 429 1 Q 433 -5 440 2 Q 447 6 455 24 Q 462 45 462 71 Q 461 111 459 406 L 459 437 Q 459 480 459 526 L 459 555 Q 459 565 459 575 Q 458 597 459 619 L 462 660 Q 465 700 474 733 Q 481 746 479 757 Q 473 764 426 793 Q 407 808 389 794 Q 385 790 390 777 Q 421 731 423 683 Q 423 667 424 648 L 425 610 Q 425 579 427 545 L 427 518 Q 426 475 426 428 L 425 316 Z" fill="lightgray"></path>
    
      <path d="M 415 398 Q 385 296 298 153 Q 294 146 303 145 Q 318 145 385 241 Q 406 274 425 316 C 474 423 424 427 415 398 Z" fill="lightgray"></path>
    
      <path d="M 492 286 Q 513 264 535 236 Q 544 226 556 224 Q 563 223 569 233 Q 575 243 571 267 Q 567 295 493 324 Q 481 328 476 326 Q 472 325 472 314 Q 473 305 492 286 Z" fill="lightgray"></path>
    
      <path d="M 712 685 Q 725 709 743 723 Q 750 730 747 740 Q 744 747 725 764 Q 707 777 694 777 Q 681 776 687 761 Q 696 740 656 669 Q 637 636 609 601 Q 602 594 600 590 Q 599 583 607 584 Q 632 588 699 668 L 712 685 Z" fill="lightgray"></path>
    
      <path d="M 699 668 Q 712 656 760 669 Q 764 675 769 671 Q 772 668 768 660 Q 738 594 719 563 Q 712 550 711 544 Q 708 534 721 539 Q 733 545 789 606 Q 823 646 858 667 Q 874 677 864 689 Q 851 701 816 721 Q 803 724 747 698 Q 729 692 712 685 C 686 675 686 675 699 668 Z" fill="lightgray"></path>
    
      <path d="M 645 499 Q 612 518 602 515 Q 598 511 601 501 Q 613 444 614 384 Q 614 315 604 276 Q 595 236 621 200 Q 628 190 637 200 Q 647 213 649 273 Q 653 454 654 467 Q 654 471 654 473 C 654 494 654 494 645 499 Z" fill="lightgray"></path>
    
      <path d="M 805 249 Q 798 230 810 210 Q 822 185 830 187 Q 843 188 856 216 Q 869 238 867 256 Q 843 433 876 484 Q 883 499 877 507 Q 853 526 811 544 Q 798 548 777 540 Q 723 513 645 499 C 616 493 624 469 654 473 Q 660 473 666 474 Q 778 508 796 499 Q 805 480 809 430 Q 813 279 805 249 Z" fill="lightgray"></path>
    
      <path d="M 705 352 Q 711 162 634 93 Q 609 71 554 39 Q 544 35 542 33 Q 538 29 550 26 Q 610 26 684 90 Q 691 99 699 108 Q 739 165 747 295 Q 751 358 759 377 Q 763 386 756 391 Q 741 404 714 414 Q 698 421 685 417 Q 670 411 683 398 Q 704 376 705 352 Z" fill="lightgray"></path>
    
      <path d="M 779 150 Q 821 96 869 20 Q 879 -1 893 -7 Q 900 -10 909 -2 Q 922 8 918 49 Q 914 104 785 177 Q 778 184 774 173 Q 771 161 779 150 Z" fill="lightgray"></path>
    
    
      <clipPath id="make-me-a-hanzi-clip-0">
        <path d="M 243 591 Q 259 612 274 632 Q 305 678 333 714 Q 343 724 332 738 Q 295 771 274 769 Q 264 768 264 755 Q 265 697 219 627 L 193 592 Q 168 559 137 533 Q 106 508 90 491 Q 81 478 95 481 Q 129 484 213 559 L 243 591 Z"></path>
      </clipPath>
      <path clip-path="url(#make-me-a-hanzi-clip-0)" d="M 275 757 L 296 723 L 246 629 L 178 547 L 98 489" fill="none" id="make-me-a-hanzi-animation-0" stroke-dasharray="480 960" stroke-linecap="round"></path>
    
      <clipPath id="make-me-a-hanzi-clip-1">
        <path d="M 246 390 Q 253 233 223 129 Q 216 113 208 111 Q 192 110 151 124 Q 126 133 121 128 Q 118 122 127 112 Q 167 78 192 48 Q 208 23 218 24 Q 225 23 241 41 Q 310 120 287 396 Q 286 403 286 409 Q 274 520 243 591 L 219 627 Q 180 669 125 689 Q 113 693 110 684 Q 109 672 116 656 Q 125 640 140 638 Q 168 631 193 592 L 213 559 Q 225 535 237 463 L 246 390 Z"></path>
      </clipPath>
      <path clip-path="url(#make-me-a-hanzi-clip-1)" d="M 120 678 L 141 659 L 171 645 L 200 618 L 233 563 L 258 467 L 271 337 L 261 173 L 250 121 L 236 92 L 214 76 L 127 125" fill="none" id="make-me-a-hanzi-animation-1" stroke-dasharray="900 1800" stroke-linecap="round"></path>
    
      <clipPath id="make-me-a-hanzi-clip-2">
        <path d="M 237 463 Q 183 358 56 224 Q 50 217 60 214 Q 78 211 168 295 Q 208 332 246 390 C 263 415 251 490 237 463 Z"></path>
      </clipPath>
      <path clip-path="url(#make-me-a-hanzi-clip-2)" d="M 237 456 L 224 395 L 205 368 L 131 280 L 62 221" fill="none" id="make-me-a-hanzi-animation-2" stroke-dasharray="429 858" stroke-linecap="round"></path>
    
      <clipPath id="make-me-a-hanzi-clip-3">
        <path d="M 459 619 Q 490 629 527 638 Q 552 645 556 649 Q 563 656 559 663 Q 552 672 529 676 Q 498 682 462 660 L 424 648 Q 423 648 421 647 Q 387 637 345 631 Q 317 624 338 612 Q 374 594 425 610 L 459 619 Z"></path>
      </clipPath>
      <path clip-path="url(#make-me-a-hanzi-clip-3)" d="M 340 622 L 398 621 L 511 656 L 549 658" fill="none" id="make-me-a-hanzi-animation-3" stroke-dasharray="342 684" stroke-linecap="round"></path>
    
      <clipPath id="make-me-a-hanzi-clip-4">
        <path d="M 341 525 Q 331 529 313 532 Q 303 535 300 531 Q 296 527 302 513 Q 321 471 333 403 Q 336 384 347 369 Q 360 353 365 364 Q 368 374 368 390 L 366 415 Q 356 481 355 500 C 354 521 354 521 341 525 Z"></path>
      </clipPath>
      <path clip-path="url(#make-me-a-hanzi-clip-4)" d="M 307 526 L 333 496 L 357 370" fill="none" id="make-me-a-hanzi-animation-4" stroke-dasharray="296 592" stroke-linecap="round"></path>
    
      <clipPath id="make-me-a-hanzi-clip-5">
        <path d="M 548 441 Q 569 508 589 523 Q 601 538 589 550 Q 576 560 536 577 Q 523 581 506 575 Q 481 565 459 555 L 427 545 Q 384 533 341 525 C 312 519 326 493 355 500 Q 362 501 372 505 Q 397 512 427 518 L 459 526 Q 508 539 517 534 Q 526 525 512 451 C 507 421 539 412 548 441 Z"></path>
      </clipPath>
      <path clip-path="url(#make-me-a-hanzi-clip-5)" d="M 349 521 L 361 515 L 494 552 L 527 555 L 553 533 L 535 464 L 545 454" fill="none" id="make-me-a-hanzi-animation-5" stroke-dasharray="432 864" stroke-linecap="round"></path>
    
      <clipPath id="make-me-a-hanzi-clip-6">
        <path d="M 459 406 Q 496 413 551 420 Q 560 421 560 428 Q 560 432 548 441 C 532 454 532 454 512 451 Q 485 448 459 437 L 426 428 Q 395 421 366 415 C 337 409 338 385 368 390 L 415 398 L 459 406 Z"></path>
      </clipPath>
      <path clip-path="url(#make-me-a-hanzi-clip-6)" d="M 375 397 L 380 405 L 496 431 L 553 427" fill="none" id="make-me-a-hanzi-animation-6" stroke-dasharray="313 626" stroke-linecap="round"></path>
    
      <clipPath id="make-me-a-hanzi-clip-7">
        <path d="M 425 316 Q 425 190 403 104 Q 396 74 416 18 Q 422 3 429 1 Q 433 -5 440 2 Q 447 6 455 24 Q 462 45 462 71 Q 461 111 459 406 L 459 437 Q 459 480 459 526 L 459 555 Q 459 565 459 575 Q 458 597 459 619 L 462 660 Q 465 700 474 733 Q 481 746 479 757 Q 473 764 426 793 Q 407 808 389 794 Q 385 790 390 777 Q 421 731 423 683 Q 423 667 424 648 L 425 610 Q 425 579 427 545 L 427 518 Q 426 475 426 428 L 425 316 Z"></path>
      </clipPath>
      <path clip-path="url(#make-me-a-hanzi-clip-7)" d="M 400 788 L 435 754 L 443 741 L 445 718 L 443 248 L 432 100 L 433 14" fill="none" id="make-me-a-hanzi-animation-7" stroke-dasharray="920 1840" stroke-linecap="round"></path>
    
      <clipPath id="make-me-a-hanzi-clip-8">
        <path d="M 415 398 Q 385 296 298 153 Q 294 146 303 145 Q 318 145 385 241 Q 406 274 425 316 C 474 423 424 427 415 398 Z"></path>
      </clipPath>
      <path clip-path="url(#make-me-a-hanzi-clip-8)" d="M 421 393 L 406 317 L 367 237 L 304 151" fill="none" id="make-me-a-hanzi-animation-8" stroke-dasharray="401 802" stroke-linecap="round"></path>
    
      <clipPath id="make-me-a-hanzi-clip-9">
        <path d="M 492 286 Q 513 264 535 236 Q 544 226 556 224 Q 563 223 569 233 Q 575 243 571 267 Q 567 295 493 324 Q 481 328 476 326 Q 472 325 472 314 Q 473 305 492 286 Z"></path>
      </clipPath>
      <path clip-path="url(#make-me-a-hanzi-clip-9)" d="M 480 318 L 535 276 L 555 239" fill="none" id="make-me-a-hanzi-animation-9" stroke-dasharray="239 478" stroke-linecap="round"></path>
    
      <clipPath id="make-me-a-hanzi-clip-10">
        <path d="M 712 685 Q 725 709 743 723 Q 750 730 747 740 Q 744 747 725 764 Q 707 777 694 777 Q 681 776 687 761 Q 696 740 656 669 Q 637 636 609 601 Q 602 594 600 590 Q 599 583 607 584 Q 632 588 699 668 L 712 685 Z"></path>
      </clipPath>
      <path clip-path="url(#make-me-a-hanzi-clip-10)" d="M 694 768 L 714 741 L 711 728 L 665 650 L 608 592" fill="none" id="make-me-a-hanzi-animation-10" stroke-dasharray="347 694" stroke-linecap="round"></path>
    
      <clipPath id="make-me-a-hanzi-clip-11">
        <path d="M 699 668 Q 712 656 760 669 Q 764 675 769 671 Q 772 668 768 660 Q 738 594 719 563 Q 712 550 711 544 Q 708 534 721 539 Q 733 545 789 606 Q 823 646 858 667 Q 874 677 864 689 Q 851 701 816 721 Q 803 724 747 698 Q 729 692 712 685 C 686 675 686 675 699 668 Z"></path>
      </clipPath>
      <path clip-path="url(#make-me-a-hanzi-clip-11)" d="M 705 670 L 763 689 L 785 690 L 808 680 L 754 589 L 718 546" fill="none" id="make-me-a-hanzi-animation-11" stroke-dasharray="398 796" stroke-linecap="round"></path>
    
      <clipPath id="make-me-a-hanzi-clip-12">
        <path d="M 645 499 Q 612 518 602 515 Q 598 511 601 501 Q 613 444 614 384 Q 614 315 604 276 Q 595 236 621 200 Q 628 190 637 200 Q 647 213 649 273 Q 653 454 654 467 Q 654 471 654 473 C 654 494 654 494 645 499 Z"></path>
      </clipPath>
      <path clip-path="url(#make-me-a-hanzi-clip-12)" d="M 606 508 L 626 487 L 631 462 L 633 337 L 624 253 L 629 204" fill="none" id="make-me-a-hanzi-animation-12" stroke-dasharray="441 882" stroke-linecap="round"></path>
    
      <clipPath id="make-me-a-hanzi-clip-13">
        <path d="M 805 249 Q 798 230 810 210 Q 822 185 830 187 Q 843 188 856 216 Q 869 238 867 256 Q 843 433 876 484 Q 883 499 877 507 Q 853 526 811 544 Q 798 548 777 540 Q 723 513 645 499 C 616 493 624 469 654 473 Q 660 473 666 474 Q 778 508 796 499 Q 805 480 809 430 Q 813 279 805 249 Z"></path>
      </clipPath>
      <path clip-path="url(#make-me-a-hanzi-clip-13)" d="M 655 495 L 674 489 L 779 520 L 803 522 L 838 490 L 832 395 L 838 264 L 830 198" fill="none" id="make-me-a-hanzi-animation-13" stroke-dasharray="622 1244" stroke-linecap="round"></path>
    
      <clipPath id="make-me-a-hanzi-clip-14">
        <path d="M 705 352 Q 711 162 634 93 Q 609 71 554 39 Q 544 35 542 33 Q 538 29 550 26 Q 610 26 684 90 Q 691 99 699 108 Q 739 165 747 295 Q 751 358 759 377 Q 763 386 756 391 Q 741 404 714 414 Q 698 421 685 417 Q 670 411 683 398 Q 704 376 705 352 Z"></path>
      </clipPath>
      <path clip-path="url(#make-me-a-hanzi-clip-14)" d="M 687 407 L 702 401 L 729 376 L 723 250 L 704 163 L 666 97 L 602 51 L 556 31 L 549 33" fill="none" id="make-me-a-hanzi-animation-14" stroke-dasharray="609 1218" stroke-linecap="round"></path>
    
      <clipPath id="make-me-a-hanzi-clip-15">
        <path d="M 779 150 Q 821 96 869 20 Q 879 -1 893 -7 Q 900 -10 909 -2 Q 922 8 918 49 Q 914 104 785 177 Q 778 184 774 173 Q 771 161 779 150 Z"></path>
      </clipPath>
      <path clip-path="url(#make-me-a-hanzi-clip-15)" d="M 782 167 L 873 73 L 887 49 L 897 8" fill="none" id="make-me-a-hanzi-animation-15" stroke-dasharray="329 658" stroke-linecap="round"></path>
    
  </g>
</svg>