<svg version="1.1" viewBox="0 0 1024 1024" xmlns="http://www.w3.org/2000/svg">
  <g stroke="lightgray" stroke-dasharray="1,1" stroke-width="1" transform="scale(4, 4)">
    <line x1="0" y1="0" x2="256" y2="256"></line>
    <line x1="256" y1="0" x2="0" y2="256"></line>
    <line x1="128" y1="0" x2="128" y2="256"></line>
    <line x1="0" y1="128" x2="256" y2="128"></line>
  </g>
  <g transform="scale(1, -1) translate(0, -900)">
    <style type="text/css">
      
        @keyframes keyframes0 {
          from {
            stroke: blue;
            stroke-dashoffset: 625;
            stroke-width: 128;
          }
          67% {
            animation-timing-function: step-end;
            stroke: blue;
            stroke-dashoffset: 0;
            stroke-width: 128;
          }
          to {
            stroke: black;
            stroke-width: 1024;
          }
        }
        #make-me-a-hanzi-animation-0 {
          animation: keyframes0 0.7586263020833334s both;
          animation-delay: 0s;
          animation-timing-function: linear;
        }
      
        @keyframes keyframes1 {
          from {
            stroke: blue;
            stroke-dashoffset: 1098;
            stroke-width: 128;
          }
          78% {
            animation-timing-function: step-end;
            stroke: blue;
            stroke-dashoffset: 0;
            stroke-width: 128;
          }
          to {
            stroke: black;
            stroke-width: 1024;
          }
        }
        #make-me-a-hanzi-animation-1 {
          animation: keyframes1 1.1435546875s both;
          animation-delay: 0.7586263020833334s;
          animation-timing-function: linear;
        }
      
        @keyframes keyframes2 {
          from {
            stroke: blue;
            stroke-dashoffset: 514;
            stroke-width: 128;
          }
          63% {
            animation-timing-function: step-end;
            stroke: blue;
            stroke-dashoffset: 0;
            stroke-width: 128;
          }
          to {
            stroke: black;
            stroke-width: 1024;
          }
        }
        #make-me-a-hanzi-animation-2 {
          animation: keyframes2 0.6682942708333334s both;
          animation-delay: 1.9021809895833335s;
          animation-timing-function: linear;
        }
      
        @keyframes keyframes3 {
          from {
            stroke: blue;
            stroke-dashoffset: 579;
            stroke-width: 128;
          }
          65% {
            animation-timing-function: step-end;
            stroke: blue;
            stroke-dashoffset: 0;
            stroke-width: 128;
          }
          to {
            stroke: black;
            stroke-width: 1024;
          }
        }
        #make-me-a-hanzi-animation-3 {
          animation: keyframes3 0.72119140625s both;
          animation-delay: 2.570475260416667s;
          animation-timing-function: linear;
        }
      
        @keyframes keyframes4 {
          from {
            stroke: blue;
            stroke-dashoffset: 1181;
            stroke-width: 128;
          }
          79% {
            animation-timing-function: step-end;
            stroke: blue;
            stroke-dashoffset: 0;
            stroke-width: 128;
          }
          to {
            stroke: black;
            stroke-width: 1024;
          }
        }
        #make-me-a-hanzi-animation-4 {
          animation: keyframes4 1.2111002604166667s both;
          animation-delay: 3.291666666666667s;
          animation-timing-function: linear;
        }
      
    </style>
    
      <path d="M 264 607 Q 237 623 209 628 Q 202 629 197 624 Q 190 617 200 606 Q 252 531 269 356 Q 273 320 293 290 Q 308 268 319 263 Q 337 259 337 289 L 333 323 Q 299 455 288 568 C 285 595 285 595 264 607 Z" fill="lightgray"></path>
    
      <path d="M 646 320 Q 668 286 688 276 Q 701 266 719 292 Q 738 329 775 528 Q 785 565 813 595 Q 829 611 815 627 Q 796 646 744 678 Q 722 688 641 669 Q 575 662 530 650 L 474 642 Q 444 638 413 632 Q 329 617 264 607 C 234 602 260 558 288 568 Q 297 578 474 606 L 529 614 Q 578 623 635 629 Q 684 636 698 619 Q 717 597 714 575 Q 683 373 662 351 C 649 324 646 321 646 320 Z" fill="lightgray"></path>
    
      <path d="M 527 458 Q 540 461 555 463 Q 591 467 621 472 Q 630 471 637 482 Q 638 492 619 500 Q 592 519 528 498 L 472 485 Q 409 478 375 473 Q 351 469 370 455 Q 397 437 437 442 Q 452 445 471 448 L 527 458 Z" fill="lightgray"></path>
    
      <path d="M 526 311 Q 578 317 646 320 C 676 321 686 333 662 351 Q 635 378 541 352 Q 532 352 526 349 L 468 339 Q 396 329 333 323 C 303 320 307 286 337 289 Q 338 289 343 289 Q 391 299 467 307 L 526 311 Z" fill="lightgray"></path>
    
      <path d="M 466 -28 Q 473 -58 480 -69 Q 487 -76 495 -74 Q 513 -65 520 5 Q 530 108 526 311 L 526 349 Q 526 397 527 458 L 528 498 Q 528 552 529 614 L 530 650 Q 530 704 546 794 Q 550 815 533 825 Q 496 850 478 854 Q 463 860 444 849 Q 434 839 443 827 Q 449 814 457 801 Q 475 770 475 723 Q 475 686 474 642 L 474 606 Q 473 551 472 485 L 471 448 Q 470 396 468 339 L 467 307 Q 458 61 466 -28 Z" fill="lightgray"></path>
    
    
      <clipPath id="make-me-a-hanzi-clip-0">
        <path d="M 264 607 Q 237 623 209 628 Q 202 629 197 624 Q 190 617 200 606 Q 252 531 269 356 Q 273 320 293 290 Q 308 268 319 263 Q 337 259 337 289 L 333 323 Q 299 455 288 568 C 285 595 285 595 264 607 Z"></path>
      </clipPath>
      <path clip-path="url(#make-me-a-hanzi-clip-0)" d="M 206 616 L 245 583 L 258 558 L 297 353 L 322 276" fill="none" id="make-me-a-hanzi-animation-0" stroke-dasharray="497 994" stroke-linecap="round"></path>
    
      <clipPath id="make-me-a-hanzi-clip-1">
        <path d="M 646 320 Q 668 286 688 276 Q 701 266 719 292 Q 738 329 775 528 Q 785 565 813 595 Q 829 611 815 627 Q 796 646 744 678 Q 722 688 641 669 Q 575 662 530 650 L 474 642 Q 444 638 413 632 Q 329 617 264 607 C 234 602 260 558 288 568 Q 297 578 474 606 L 529 614 Q 578 623 635 629 Q 684 636 698 619 Q 717 597 714 575 Q 683 373 662 351 C 649 324 646 321 646 320 Z"></path>
      </clipPath>
      <path clip-path="url(#make-me-a-hanzi-clip-1)" d="M 271 603 L 296 592 L 656 653 L 695 653 L 732 640 L 760 608 L 716 400 L 692 327 L 696 288" fill="none" id="make-me-a-hanzi-animation-1" stroke-dasharray="970 1940" stroke-linecap="round"></path>
    
      <clipPath id="make-me-a-hanzi-clip-2">
        <path d="M 527 458 Q 540 461 555 463 Q 591 467 621 472 Q 630 471 637 482 Q 638 492 619 500 Q 592 519 528 498 L 472 485 Q 409 478 375 473 Q 351 469 370 455 Q 397 437 437 442 Q 452 445 471 448 L 527 458 Z"></path>
      </clipPath>
      <path clip-path="url(#make-me-a-hanzi-clip-2)" d="M 371 464 L 428 460 L 560 485 L 627 484" fill="none" id="make-me-a-hanzi-animation-2" stroke-dasharray="386 772" stroke-linecap="round"></path>
    
      <clipPath id="make-me-a-hanzi-clip-3">
        <path d="M 526 311 Q 578 317 646 320 C 676 321 686 333 662 351 Q 635 378 541 352 Q 532 352 526 349 L 468 339 Q 396 329 333 323 C 303 320 307 286 337 289 Q 338 289 343 289 Q 391 299 467 307 L 526 311 Z"></path>
      </clipPath>
      <path clip-path="url(#make-me-a-hanzi-clip-3)" d="M 340 295 L 356 309 L 578 339 L 632 341 L 654 349" fill="none" id="make-me-a-hanzi-animation-3" stroke-dasharray="451 902" stroke-linecap="round"></path>
    
      <clipPath id="make-me-a-hanzi-clip-4">
        <path d="M 466 -28 Q 473 -58 480 -69 Q 487 -76 495 -74 Q 513 -65 520 5 Q 530 108 526 311 L 526 349 Q 526 397 527 458 L 528 498 Q 528 552 529 614 L 530 650 Q 530 704 546 794 Q 550 815 533 825 Q 496 850 478 854 Q 463 860 444 849 Q 434 839 443 827 Q 449 814 457 801 Q 475 770 475 723 Q 475 686 474 642 L 474 606 Q 473 551 472 485 L 471 448 Q 470 396 468 339 L 467 307 Q 458 61 466 -28 Z"></path>
      </clipPath>
      <path clip-path="url(#make-me-a-hanzi-clip-4)" d="M 454 838 L 503 798 L 507 756 L 490 -63" fill="none" id="make-me-a-hanzi-animation-4" stroke-dasharray="1053 2106" stroke-linecap="round"></path>
    
  </g>
</svg>