<svg version="1.1" viewBox="0 0 1024 1024" xmlns="http://www.w3.org/2000/svg">
  <g stroke="lightgray" stroke-dasharray="1,1" stroke-width="1" transform="scale(4, 4)">
    <line x1="0" y1="0" x2="256" y2="256"></line>
    <line x1="256" y1="0" x2="0" y2="256"></line>
    <line x1="128" y1="0" x2="128" y2="256"></line>
    <line x1="0" y1="128" x2="256" y2="128"></line>
  </g>
  <g transform="scale(1, -1) translate(0, -900)">
    <style type="text/css">
      
        @keyframes keyframes0 {
          from {
            stroke: blue;
            stroke-dashoffset: 663;
            stroke-width: 128;
          }
          68% {
            animation-timing-function: step-end;
            stroke: blue;
            stroke-dashoffset: 0;
            stroke-width: 128;
          }
          to {
            stroke: black;
            stroke-width: 1024;
          }
        }
        #make-me-a-hanzi-animation-0 {
          animation: keyframes0 0.78955078125s both;
          animation-delay: 0s;
          animation-timing-function: linear;
        }
      
        @keyframes keyframes1 {
          from {
            stroke: blue;
            stroke-dashoffset: 975;
            stroke-width: 128;
          }
          76% {
            animation-timing-function: step-end;
            stroke: blue;
            stroke-dashoffset: 0;
            stroke-width: 128;
          }
          to {
            stroke: black;
            stroke-width: 1024;
          }
        }
        #make-me-a-hanzi-animation-1 {
          animation: keyframes1 1.04345703125s both;
          animation-delay: 0.78955078125s;
          animation-timing-function: linear;
        }
      
        @keyframes keyframes2 {
          from {
            stroke: blue;
            stroke-dashoffset: 416;
            stroke-width: 128;
          }
          58% {
            animation-timing-function: step-end;
            stroke: blue;
            stroke-dashoffset: 0;
            stroke-width: 128;
          }
          to {
            stroke: black;
            stroke-width: 1024;
          }
        }
        #make-me-a-hanzi-animation-2 {
          animation: keyframes2 0.5885416666666666s both;
          animation-delay: 1.8330078125s;
          animation-timing-function: linear;
        }
      
        @keyframes keyframes3 {
          from {
            stroke: blue;
            stroke-dashoffset: 547;
            stroke-width: 128;
          }
          64% {
            animation-timing-function: step-end;
            stroke: blue;
            stroke-dashoffset: 0;
            stroke-width: 128;
          }
          to {
            stroke: black;
            stroke-width: 1024;
          }
        }
        #make-me-a-hanzi-animation-3 {
          animation: keyframes3 0.6951497395833334s both;
          animation-delay: 2.4215494791666665s;
          animation-timing-function: linear;
        }
      
        @keyframes keyframes4 {
          from {
            stroke: blue;
            stroke-dashoffset: 417;
            stroke-width: 128;
          }
          58% {
            animation-timing-function: step-end;
            stroke: blue;
            stroke-dashoffset: 0;
            stroke-width: 128;
          }
          to {
            stroke: black;
            stroke-width: 1024;
          }
        }
        #make-me-a-hanzi-animation-4 {
          animation: keyframes4 0.58935546875s both;
          animation-delay: 3.11669921875s;
          animation-timing-function: linear;
        }
      
        @keyframes keyframes5 {
          from {
            stroke: blue;
            stroke-dashoffset: 732;
            stroke-width: 128;
          }
          70% {
            animation-timing-function: step-end;
            stroke: blue;
            stroke-dashoffset: 0;
            stroke-width: 128;
          }
          to {
            stroke: black;
            stroke-width: 1024;
          }
        }
        #make-me-a-hanzi-animation-5 {
          animation: keyframes5 0.845703125s both;
          animation-delay: 3.7060546875s;
          animation-timing-function: linear;
        }
      
        @keyframes keyframes6 {
          from {
            stroke: blue;
            stroke-dashoffset: 974;
            stroke-width: 128;
          }
          76% {
            animation-timing-function: step-end;
            stroke: blue;
            stroke-dashoffset: 0;
            stroke-width: 128;
          }
          to {
            stroke: black;
            stroke-width: 1024;
          }
        }
        #make-me-a-hanzi-animation-6 {
          animation: keyframes6 1.0426432291666667s both;
          animation-delay: 4.5517578125s;
          animation-timing-function: linear;
        }
      
    </style>
    
      <path d="M 140 670 Q 130 680 99 691 Q 89 694 79 689 Q 72 683 79 673 Q 100 618 112 520 Q 118 415 112 376 Q 103 319 142 284 Q 152 272 162 285 Q 172 301 170 322 L 170 358 Q 169 368 168 381 Q 149 619 149 636 C 148 664 148 664 140 670 Z" fill="lightgray"></path>
    
      <path d="M 332 341 Q 342 319 361 283 Q 370 267 379 268 Q 392 271 400 295 Q 434 368 435 467 Q 441 528 444 599 Q 447 642 466 670 Q 479 689 469 700 Q 448 719 406 735 Q 388 745 312 712 Q 230 687 140 670 C 111 664 120 630 149 636 Q 153 636 228 653 L 265 663 Q 302 675 352 686 Q 373 690 381 683 Q 412 634 371 392 Q 370 370 360 367 Q 356 364 332 379 Q 325 383 323 380 C 311 385 319 368 332 341 Z" fill="lightgray"></path>
    
      <path d="M 282 510 Q 310 514 338 518 Q 363 522 353 536 Q 341 551 315 555 Q 302 556 284 553 L 239 542 Q 209 532 183 522 Q 165 518 188 503 Q 192 500 239 503 L 282 510 Z" fill="lightgray"></path>
    
      <path d="M 276 380 Q 279 450 282 510 L 284 553 Q 287 643 288 643 Q 278 655 265 663 C 240 680 213 679 228 653 Q 231 647 235 642 Q 238 632 239 542 L 239 503 Q 238 452 238 371 C 238 341 275 350 276 380 Z" fill="lightgray"></path>
    
      <path d="M 170 322 Q 174 322 179 323 Q 227 333 332 341 C 362 343 350 366 323 380 Q 310 389 279 381 Q 278 381 276 380 L 238 371 Q 201 364 170 358 C 141 352 140 320 170 322 Z" fill="lightgray"></path>
    
      <path d="M 701 658 Q 777 673 902 676 Q 954 676 961 687 Q 967 700 949 713 Q 883 753 837 735 Q 683 701 484 664 Q 462 660 479 643 Q 515 613 552 626 Q 600 642 656 651 L 701 658 Z" fill="lightgray"></path>
    
      <path d="M 636 136 Q 606 149 569 163 Q 557 167 557 160 Q 557 153 566 142 Q 636 81 679 31 Q 691 22 705 38 Q 741 86 742 177 Q 726 420 736 595 Q 742 623 736 632 Q 727 644 701 658 C 675 674 643 678 656 651 Q 657 645 663 637 Q 675 613 675 573 Q 679 452 681 174 Q 680 146 670 135 Q 660 128 636 136 Z" fill="lightgray"></path>
    
    
      <clipPath id="make-me-a-hanzi-clip-0">
        <path d="M 140 670 Q 130 680 99 691 Q 89 694 79 689 Q 72 683 79 673 Q 100 618 112 520 Q 118 415 112 376 Q 103 319 142 284 Q 152 272 162 285 Q 172 301 170 322 L 170 358 Q 169 368 168 381 Q 149 619 149 636 C 148 664 148 664 140 670 Z"></path>
      </clipPath>
      <path clip-path="url(#make-me-a-hanzi-clip-0)" d="M 86 681 L 112 657 L 121 629 L 136 517 L 141 340 L 152 289" fill="none" id="make-me-a-hanzi-animation-0" stroke-dasharray="535 1070" stroke-linecap="round"></path>
    
      <clipPath id="make-me-a-hanzi-clip-1">
        <path d="M 332 341 Q 342 319 361 283 Q 370 267 379 268 Q 392 271 400 295 Q 434 368 435 467 Q 441 528 444 599 Q 447 642 466 670 Q 479 689 469 700 Q 448 719 406 735 Q 388 745 312 712 Q 230 687 140 670 C 111 664 120 630 149 636 Q 153 636 228 653 L 265 663 Q 302 675 352 686 Q 373 690 381 683 Q 412 634 371 392 Q 370 370 360 367 Q 356 364 332 379 Q 325 383 323 380 C 311 385 319 368 332 341 Z"></path>
      </clipPath>
      <path clip-path="url(#make-me-a-hanzi-clip-1)" d="M 150 642 L 166 658 L 213 666 L 365 710 L 403 705 L 426 681 L 409 459 L 395 366 L 376 334 L 347 351 L 338 368 L 327 374" fill="none" id="make-me-a-hanzi-animation-1" stroke-dasharray="847 1694" stroke-linecap="round"></path>
    
      <clipPath id="make-me-a-hanzi-clip-2">
        <path d="M 282 510 Q 310 514 338 518 Q 363 522 353 536 Q 341 551 315 555 Q 302 556 284 553 L 239 542 Q 209 532 183 522 Q 165 518 188 503 Q 192 500 239 503 L 282 510 Z"></path>
      </clipPath>
      <path clip-path="url(#make-me-a-hanzi-clip-2)" d="M 185 512 L 295 534 L 343 529" fill="none" id="make-me-a-hanzi-animation-2" stroke-dasharray="288 576" stroke-linecap="round"></path>
    
      <clipPath id="make-me-a-hanzi-clip-3">
        <path d="M 276 380 Q 279 450 282 510 L 284 553 Q 287 643 288 643 Q 278 655 265 663 C 240 680 213 679 228 653 Q 231 647 235 642 Q 238 632 239 542 L 239 503 Q 238 452 238 371 C 238 341 275 350 276 380 Z"></path>
      </clipPath>
      <path clip-path="url(#make-me-a-hanzi-clip-3)" d="M 235 650 L 262 634 L 264 567 L 258 404 L 254 389 L 243 380" fill="none" id="make-me-a-hanzi-animation-3" stroke-dasharray="419 838" stroke-linecap="round"></path>
    
      <clipPath id="make-me-a-hanzi-clip-4">
        <path d="M 170 322 Q 174 322 179 323 Q 227 333 332 341 C 362 343 350 366 323 380 Q 310 389 279 381 Q 278 381 276 380 L 238 371 Q 201 364 170 358 C 141 352 140 320 170 322 Z"></path>
      </clipPath>
      <path clip-path="url(#make-me-a-hanzi-clip-4)" d="M 174 328 L 188 343 L 292 361 L 312 357 L 321 345" fill="none" id="make-me-a-hanzi-animation-4" stroke-dasharray="289 578" stroke-linecap="round"></path>
    
      <clipPath id="make-me-a-hanzi-clip-5">
        <path d="M 701 658 Q 777 673 902 676 Q 954 676 961 687 Q 967 700 949 713 Q 883 753 837 735 Q 683 701 484 664 Q 462 660 479 643 Q 515 613 552 626 Q 600 642 656 651 L 701 658 Z"></path>
      </clipPath>
      <path clip-path="url(#make-me-a-hanzi-clip-5)" d="M 482 653 L 539 648 L 722 687 L 868 708 L 951 694" fill="none" id="make-me-a-hanzi-animation-5" stroke-dasharray="604 1208" stroke-linecap="round"></path>
    
      <clipPath id="make-me-a-hanzi-clip-6">
        <path d="M 636 136 Q 606 149 569 163 Q 557 167 557 160 Q 557 153 566 142 Q 636 81 679 31 Q 691 22 705 38 Q 741 86 742 177 Q 726 420 736 595 Q 742 623 736 632 Q 727 644 701 658 C 675 674 643 678 656 651 Q 657 645 663 637 Q 675 613 675 573 Q 679 452 681 174 Q 680 146 670 135 Q 660 128 636 136 Z"></path>
      </clipPath>
      <path clip-path="url(#make-me-a-hanzi-clip-6)" d="M 664 646 L 696 629 L 706 608 L 705 380 L 712 168 L 707 134 L 688 96 L 673 94 L 626 116 L 564 158" fill="none" id="make-me-a-hanzi-animation-6" stroke-dasharray="846 1692" stroke-linecap="round"></path>
    
  </g>
</svg>