<svg version="1.1" viewBox="0 0 1024 1024" xmlns="http://www.w3.org/2000/svg">
  <g stroke="lightgray" stroke-dasharray="1,1" stroke-width="1" transform="scale(4, 4)">
    <line x1="0" y1="0" x2="256" y2="256"></line>
    <line x1="256" y1="0" x2="0" y2="256"></line>
    <line x1="128" y1="0" x2="128" y2="256"></line>
    <line x1="0" y1="128" x2="256" y2="128"></line>
  </g>
  <g transform="scale(1, -1) translate(0, -900)">
    <style type="text/css">
      
        @keyframes keyframes0 {
          from {
            stroke: blue;
            stroke-dashoffset: 414;
            stroke-width: 128;
          }
          57% {
            animation-timing-function: step-end;
            stroke: blue;
            stroke-dashoffset: 0;
            stroke-width: 128;
          }
          to {
            stroke: black;
            stroke-width: 1024;
          }
        }
        #make-me-a-hanzi-animation-0 {
          animation: keyframes0 0.5869140625s both;
          animation-delay: 0s;
          animation-timing-function: linear;
        }
      
        @keyframes keyframes1 {
          from {
            stroke: blue;
            stroke-dashoffset: 639;
            stroke-width: 128;
          }
          68% {
            animation-timing-function: step-end;
            stroke: blue;
            stroke-dashoffset: 0;
            stroke-width: 128;
          }
          to {
            stroke: black;
            stroke-width: 1024;
          }
        }
        #make-me-a-hanzi-animation-1 {
          animation: keyframes1 0.77001953125s both;
          animation-delay: 0.5869140625s;
          animation-timing-function: linear;
        }
      
        @keyframes keyframes2 {
          from {
            stroke: blue;
            stroke-dashoffset: 571;
            stroke-width: 128;
          }
          65% {
            animation-timing-function: step-end;
            stroke: blue;
            stroke-dashoffset: 0;
            stroke-width: 128;
          }
          to {
            stroke: black;
            stroke-width: 1024;
          }
        }
        #make-me-a-hanzi-animation-2 {
          animation: keyframes2 0.7146809895833334s both;
          animation-delay: 1.35693359375s;
          animation-timing-function: linear;
        }
      
        @keyframes keyframes3 {
          from {
            stroke: blue;
            stroke-dashoffset: 842;
            stroke-width: 128;
          }
          73% {
            animation-timing-function: step-end;
            stroke: blue;
            stroke-dashoffset: 0;
            stroke-width: 128;
          }
          to {
            stroke: black;
            stroke-width: 1024;
          }
        }
        #make-me-a-hanzi-animation-3 {
          animation: keyframes3 0.9352213541666666s both;
          animation-delay: 2.0716145833333335s;
          animation-timing-function: linear;
        }
      
        @keyframes keyframes4 {
          from {
            stroke: blue;
            stroke-dashoffset: 427;
            stroke-width: 128;
          }
          58% {
            animation-timing-function: step-end;
            stroke: blue;
            stroke-dashoffset: 0;
            stroke-width: 128;
          }
          to {
            stroke: black;
            stroke-width: 1024;
          }
        }
        #make-me-a-hanzi-animation-4 {
          animation: keyframes4 0.5974934895833334s both;
          animation-delay: 3.0068359375s;
          animation-timing-function: linear;
        }
      
        @keyframes keyframes5 {
          from {
            stroke: blue;
            stroke-dashoffset: 480;
            stroke-width: 128;
          }
          61% {
            animation-timing-function: step-end;
            stroke: blue;
            stroke-dashoffset: 0;
            stroke-width: 128;
          }
          to {
            stroke: black;
            stroke-width: 1024;
          }
        }
        #make-me-a-hanzi-animation-5 {
          animation: keyframes5 0.640625s both;
          animation-delay: 3.6043294270833335s;
          animation-timing-function: linear;
        }
      
        @keyframes keyframes6 {
          from {
            stroke: blue;
            stroke-dashoffset: 438;
            stroke-width: 128;
          }
          59% {
            animation-timing-function: step-end;
            stroke: blue;
            stroke-dashoffset: 0;
            stroke-width: 128;
          }
          to {
            stroke: black;
            stroke-width: 1024;
          }
        }
        #make-me-a-hanzi-animation-6 {
          animation: keyframes6 0.6064453125s both;
          animation-delay: 4.244954427083334s;
          animation-timing-function: linear;
        }
      
        @keyframes keyframes7 {
          from {
            stroke: blue;
            stroke-dashoffset: 668;
            stroke-width: 128;
          }
          68% {
            animation-timing-function: step-end;
            stroke: blue;
            stroke-dashoffset: 0;
            stroke-width: 128;
          }
          to {
            stroke: black;
            stroke-width: 1024;
          }
        }
        #make-me-a-hanzi-animation-7 {
          animation: keyframes7 0.7936197916666666s both;
          animation-delay: 4.851399739583334s;
          animation-timing-function: linear;
        }
      
        @keyframes keyframes8 {
          from {
            stroke: blue;
            stroke-dashoffset: 1075;
            stroke-width: 128;
          }
          78% {
            animation-timing-function: step-end;
            stroke: blue;
            stroke-dashoffset: 0;
            stroke-width: 128;
          }
          to {
            stroke: black;
            stroke-width: 1024;
          }
        }
        #make-me-a-hanzi-animation-8 {
          animation: keyframes8 1.1248372395833333s both;
          animation-delay: 5.645019531250001s;
          animation-timing-function: linear;
        }
      
        @keyframes keyframes9 {
          from {
            stroke: blue;
            stroke-dashoffset: 685;
            stroke-width: 128;
          }
          69% {
            animation-timing-function: step-end;
            stroke: blue;
            stroke-dashoffset: 0;
            stroke-width: 128;
          }
          to {
            stroke: black;
            stroke-width: 1024;
          }
        }
        #make-me-a-hanzi-animation-9 {
          animation: keyframes9 0.8074544270833334s both;
          animation-delay: 6.769856770833334s;
          animation-timing-function: linear;
        }
      
    </style>
    
      <path d="M 280 710 Q 308 685 339 654 Q 355 639 374 640 Q 387 641 392 656 Q 398 675 387 709 Q 375 742 274 767 Q 255 771 248 768 Q 242 764 244 747 Q 248 734 280 710 Z" fill="lightgray"></path>
    
      <path d="M 98 524 Q 58 517 87 499 Q 133 475 192 489 Q 301 513 412 537 Q 464 550 471 557 Q 481 566 476 575 Q 467 588 436 595 Q 409 601 291 562 Q 195 535 98 524 Z" fill="lightgray"></path>
    
      <path d="M 117 374 Q 105 380 76 385 Q 64 388 61 383 Q 54 376 63 360 Q 100 278 119 146 Q 122 106 144 80 Q 162 58 167 73 Q 171 85 171 102 L 169 134 Q 151 237 132 342 C 127 370 127 370 117 374 Z" fill="lightgray"></path>
    
      <path d="M 342 135 Q 358 113 373 105 Q 383 98 398 119 Q 414 149 445 311 Q 452 342 475 366 Q 488 379 477 392 Q 461 408 419 433 Q 398 442 341 424 Q 308 423 117 374 C 88 367 103 333 132 342 Q 169 354 221 365 L 259 373 Q 361 401 383 386 Q 399 373 395 350 Q 367 184 352 168 C 339 141 338 140 342 135 Z" fill="lightgray"></path>
    
      <path d="M 279 244 Q 307 254 336 262 Q 355 268 357 271 Q 363 278 359 284 Q 353 291 331 295 Q 297 299 280 283 L 233 267 Q 211 263 187 257 Q 160 250 181 239 Q 203 230 234 232 L 279 244 Z" fill="lightgray"></path>
    
      <path d="M 276 163 Q 277 206 279 244 L 280 283 Q 280 307 282 332 Q 288 348 280 357 Q 270 367 259 373 C 233 389 211 393 221 365 Q 230 347 233 267 L 234 232 Q 234 199 236 151 C 237 121 275 133 276 163 Z" fill="lightgray"></path>
    
      <path d="M 171 102 Q 175 102 180 103 Q 232 119 342 135 C 372 139 377 152 352 168 Q 348 171 343 173 Q 322 182 276 163 L 236 151 Q 199 144 169 134 C 140 125 141 99 171 102 Z" fill="lightgray"></path>
    
      <path d="M 559 533 Q 563 542 570 551 Q 606 606 641 687 Q 656 724 671 744 Q 678 756 672 768 Q 665 781 634 798 Q 606 811 587 809 Q 569 805 580 784 Q 595 762 590 741 Q 575 671 545 601 Q 517 534 474 459 Q 465 447 464 441 Q 463 431 476 435 Q 495 441 541 506 L 559 533 Z" fill="lightgray"></path>
    
      <path d="M 663 308 Q 700 378 737 472 Q 750 503 776 525 Q 792 535 791 544 Q 790 557 757 573 Q 717 592 702 592 Q 690 591 680 581 Q 655 565 565 534 Q 561 534 559 533 C 530 524 511 510 541 506 Q 578 496 626 518 Q 656 542 675 532 Q 684 528 668 466 Q 611 223 358 62 Q 348 56 350 52 Q 351 48 359 48 Q 384 51 438 78 Q 486 100 534 144 Q 592 193 641 271 Q 645 278 649 284 L 663 308 Z" fill="lightgray"></path>
    
      <path d="M 649 284 Q 713 173 798 56 Q 814 37 843 35 Q 942 32 973 35 Q 983 36 984 41 Q 985 45 972 54 Q 840 117 780 178 Q 725 235 663 308 C 644 331 634 310 649 284 Z" fill="lightgray"></path>
    
    
      <clipPath id="make-me-a-hanzi-clip-0">
        <path d="M 280 710 Q 308 685 339 654 Q 355 639 374 640 Q 387 641 392 656 Q 398 675 387 709 Q 375 742 274 767 Q 255 771 248 768 Q 242 764 244 747 Q 248 734 280 710 Z"></path>
      </clipPath>
      <path clip-path="url(#make-me-a-hanzi-clip-0)" d="M 254 760 L 348 699 L 372 660" fill="none" id="make-me-a-hanzi-animation-0" stroke-dasharray="286 572" stroke-linecap="round"></path>
    
      <clipPath id="make-me-a-hanzi-clip-1">
        <path d="M 98 524 Q 58 517 87 499 Q 133 475 192 489 Q 301 513 412 537 Q 464 550 471 557 Q 481 566 476 575 Q 467 588 436 595 Q 409 601 291 562 Q 195 535 98 524 Z"></path>
      </clipPath>
      <path clip-path="url(#make-me-a-hanzi-clip-1)" d="M 89 513 L 113 507 L 165 508 L 410 566 L 464 569" fill="none" id="make-me-a-hanzi-animation-1" stroke-dasharray="511 1022" stroke-linecap="round"></path>
    
      <clipPath id="make-me-a-hanzi-clip-2">
        <path d="M 117 374 Q 105 380 76 385 Q 64 388 61 383 Q 54 376 63 360 Q 100 278 119 146 Q 122 106 144 80 Q 162 58 167 73 Q 171 85 171 102 L 169 134 Q 151 237 132 342 C 127 370 127 370 117 374 Z"></path>
      </clipPath>
      <path clip-path="url(#make-me-a-hanzi-clip-2)" d="M 70 375 L 96 352 L 106 330 L 156 79" fill="none" id="make-me-a-hanzi-animation-2" stroke-dasharray="443 886" stroke-linecap="round"></path>
    
      <clipPath id="make-me-a-hanzi-clip-3">
        <path d="M 342 135 Q 358 113 373 105 Q 383 98 398 119 Q 414 149 445 311 Q 452 342 475 366 Q 488 379 477 392 Q 461 408 419 433 Q 398 442 341 424 Q 308 423 117 374 C 88 367 103 333 132 342 Q 169 354 221 365 L 259 373 Q 361 401 383 386 Q 399 373 395 350 Q 367 184 352 168 C 339 141 338 140 342 135 Z"></path>
      </clipPath>
      <path clip-path="url(#make-me-a-hanzi-clip-3)" d="M 130 374 L 147 363 L 201 380 L 356 411 L 402 408 L 423 391 L 433 377 L 395 204 L 375 142 L 357 136" fill="none" id="make-me-a-hanzi-animation-3" stroke-dasharray="714 1428" stroke-linecap="round"></path>
    
      <clipPath id="make-me-a-hanzi-clip-4">
        <path d="M 279 244 Q 307 254 336 262 Q 355 268 357 271 Q 363 278 359 284 Q 353 291 331 295 Q 297 299 280 283 L 233 267 Q 211 263 187 257 Q 160 250 181 239 Q 203 230 234 232 L 279 244 Z"></path>
      </clipPath>
      <path clip-path="url(#make-me-a-hanzi-clip-4)" d="M 182 249 L 226 248 L 302 273 L 349 279" fill="none" id="make-me-a-hanzi-animation-4" stroke-dasharray="299 598" stroke-linecap="round"></path>
    
      <clipPath id="make-me-a-hanzi-clip-5">
        <path d="M 276 163 Q 277 206 279 244 L 280 283 Q 280 307 282 332 Q 288 348 280 357 Q 270 367 259 373 C 233 389 211 393 221 365 Q 230 347 233 267 L 234 232 Q 234 199 236 151 C 237 121 275 133 276 163 Z"></path>
      </clipPath>
      <path clip-path="url(#make-me-a-hanzi-clip-5)" d="M 228 364 L 256 342 L 256 179 L 241 159" fill="none" id="make-me-a-hanzi-animation-5" stroke-dasharray="352 704" stroke-linecap="round"></path>
    
      <clipPath id="make-me-a-hanzi-clip-6">
        <path d="M 171 102 Q 175 102 180 103 Q 232 119 342 135 C 372 139 377 152 352 168 Q 348 171 343 173 Q 322 182 276 163 L 236 151 Q 199 144 169 134 C 140 125 141 99 171 102 Z"></path>
      </clipPath>
      <path clip-path="url(#make-me-a-hanzi-clip-6)" d="M 175 108 L 186 122 L 325 154 L 344 164" fill="none" id="make-me-a-hanzi-animation-6" stroke-dasharray="310 620" stroke-linecap="round"></path>
    
      <clipPath id="make-me-a-hanzi-clip-7">
        <path d="M 559 533 Q 563 542 570 551 Q 606 606 641 687 Q 656 724 671 744 Q 678 756 672 768 Q 665 781 634 798 Q 606 811 587 809 Q 569 805 580 784 Q 595 762 590 741 Q 575 671 545 601 Q 517 534 474 459 Q 465 447 464 441 Q 463 431 476 435 Q 495 441 541 506 L 559 533 Z"></path>
      </clipPath>
      <path clip-path="url(#make-me-a-hanzi-clip-7)" d="M 589 795 L 608 783 L 631 754 L 604 675 L 562 580 L 522 507 L 472 442" fill="none" id="make-me-a-hanzi-animation-7" stroke-dasharray="540 1080" stroke-linecap="round"></path>
    
      <clipPath id="make-me-a-hanzi-clip-8">
        <path d="M 663 308 Q 700 378 737 472 Q 750 503 776 525 Q 792 535 791 544 Q 790 557 757 573 Q 717 592 702 592 Q 690 591 680 581 Q 655 565 565 534 Q 561 534 559 533 C 530 524 511 510 541 506 Q 578 496 626 518 Q 656 542 675 532 Q 684 528 668 466 Q 611 223 358 62 Q 348 56 350 52 Q 351 48 359 48 Q 384 51 438 78 Q 486 100 534 144 Q 592 193 641 271 Q 645 278 649 284 L 663 308 Z"></path>
      </clipPath>
      <path clip-path="url(#make-me-a-hanzi-clip-8)" d="M 548 508 L 665 554 L 706 554 L 723 537 L 656 349 L 581 227 L 525 165 L 469 118 L 394 70 L 357 55" fill="none" id="make-me-a-hanzi-animation-8" stroke-dasharray="947 1894" stroke-linecap="round"></path>
    
      <clipPath id="make-me-a-hanzi-clip-9">
        <path d="M 649 284 Q 713 173 798 56 Q 814 37 843 35 Q 942 32 973 35 Q 983 36 984 41 Q 985 45 972 54 Q 840 117 780 178 Q 725 235 663 308 C 644 331 634 310 649 284 Z"></path>
      </clipPath>
      <path clip-path="url(#make-me-a-hanzi-clip-9)" d="M 665 299 L 664 284 L 743 179 L 827 87 L 855 72 L 977 41" fill="none" id="make-me-a-hanzi-animation-9" stroke-dasharray="557 1114" stroke-linecap="round"></path>
    
  </g>
</svg>