<svg version="1.1" viewBox="0 0 1024 1024" xmlns="http://www.w3.org/2000/svg">
  <g stroke="lightgray" stroke-dasharray="1,1" stroke-width="1" transform="scale(4, 4)">
    <line x1="0" y1="0" x2="256" y2="256"></line>
    <line x1="256" y1="0" x2="0" y2="256"></line>
    <line x1="128" y1="0" x2="128" y2="256"></line>
    <line x1="0" y1="128" x2="256" y2="128"></line>
  </g>
  <g transform="scale(1, -1) translate(0, -900)">
    <style type="text/css">
      
        @keyframes keyframes0 {
          from {
            stroke: blue;
            stroke-dashoffset: 565;
            stroke-width: 128;
          }
          65% {
            animation-timing-function: step-end;
            stroke: blue;
            stroke-dashoffset: 0;
            stroke-width: 128;
          }
          to {
            stroke: black;
            stroke-width: 1024;
          }
        }
        #make-me-a-hanzi-animation-0 {
          animation: keyframes0 0.7097981770833334s both;
          animation-delay: 0s;
          animation-timing-function: linear;
        }
      
        @keyframes keyframes1 {
          from {
            stroke: blue;
            stroke-dashoffset: 506;
            stroke-width: 128;
          }
          62% {
            animation-timing-function: step-end;
            stroke: blue;
            stroke-dashoffset: 0;
            stroke-width: 128;
          }
          to {
            stroke: black;
            stroke-width: 1024;
          }
        }
        #make-me-a-hanzi-animation-1 {
          animation: keyframes1 0.6617838541666666s both;
          animation-delay: 0.7097981770833334s;
          animation-timing-function: linear;
        }
      
        @keyframes keyframes2 {
          from {
            stroke: blue;
            stroke-dashoffset: 464;
            stroke-width: 128;
          }
          60% {
            animation-timing-function: step-end;
            stroke: blue;
            stroke-dashoffset: 0;
            stroke-width: 128;
          }
          to {
            stroke: black;
            stroke-width: 1024;
          }
        }
        #make-me-a-hanzi-animation-2 {
          animation: keyframes2 0.6276041666666666s both;
          animation-delay: 1.37158203125s;
          animation-timing-function: linear;
        }
      
        @keyframes keyframes3 {
          from {
            stroke: blue;
            stroke-dashoffset: 1020;
            stroke-width: 128;
          }
          77% {
            animation-timing-function: step-end;
            stroke: blue;
            stroke-dashoffset: 0;
            stroke-width: 128;
          }
          to {
            stroke: black;
            stroke-width: 1024;
          }
        }
        #make-me-a-hanzi-animation-3 {
          animation: keyframes3 1.080078125s both;
          animation-delay: 1.9991861979166665s;
          animation-timing-function: linear;
        }
      
        @keyframes keyframes4 {
          from {
            stroke: blue;
            stroke-dashoffset: 473;
            stroke-width: 128;
          }
          61% {
            animation-timing-function: step-end;
            stroke: blue;
            stroke-dashoffset: 0;
            stroke-width: 128;
          }
          to {
            stroke: black;
            stroke-width: 1024;
          }
        }
        #make-me-a-hanzi-animation-4 {
          animation: keyframes4 0.6349283854166666s both;
          animation-delay: 3.0792643229166665s;
          animation-timing-function: linear;
        }
      
        @keyframes keyframes5 {
          from {
            stroke: blue;
            stroke-dashoffset: 721;
            stroke-width: 128;
          }
          70% {
            animation-timing-function: step-end;
            stroke: blue;
            stroke-dashoffset: 0;
            stroke-width: 128;
          }
          to {
            stroke: black;
            stroke-width: 1024;
          }
        }
        #make-me-a-hanzi-animation-5 {
          animation: keyframes5 0.8367513020833334s both;
          animation-delay: 3.714192708333333s;
          animation-timing-function: linear;
        }
      
        @keyframes keyframes6 {
          from {
            stroke: blue;
            stroke-dashoffset: 399;
            stroke-width: 128;
          }
          56% {
            animation-timing-function: step-end;
            stroke: blue;
            stroke-dashoffset: 0;
            stroke-width: 128;
          }
          to {
            stroke: black;
            stroke-width: 1024;
          }
        }
        #make-me-a-hanzi-animation-6 {
          animation: keyframes6 0.57470703125s both;
          animation-delay: 4.550944010416666s;
          animation-timing-function: linear;
        }
      
        @keyframes keyframes7 {
          from {
            stroke: blue;
            stroke-dashoffset: 385;
            stroke-width: 128;
          }
          56% {
            animation-timing-function: step-end;
            stroke: blue;
            stroke-dashoffset: 0;
            stroke-width: 128;
          }
          to {
            stroke: black;
            stroke-width: 1024;
          }
        }
        #make-me-a-hanzi-animation-7 {
          animation: keyframes7 0.5633138020833334s both;
          animation-delay: 5.125651041666666s;
          animation-timing-function: linear;
        }
      
        @keyframes keyframes8 {
          from {
            stroke: blue;
            stroke-dashoffset: 429;
            stroke-width: 128;
          }
          58% {
            animation-timing-function: step-end;
            stroke: blue;
            stroke-dashoffset: 0;
            stroke-width: 128;
          }
          to {
            stroke: black;
            stroke-width: 1024;
          }
        }
        #make-me-a-hanzi-animation-8 {
          animation: keyframes8 0.59912109375s both;
          animation-delay: 5.688964843749999s;
          animation-timing-function: linear;
        }
      
        @keyframes keyframes9 {
          from {
            stroke: blue;
            stroke-dashoffset: 832;
            stroke-width: 128;
          }
          73% {
            animation-timing-function: step-end;
            stroke: blue;
            stroke-dashoffset: 0;
            stroke-width: 128;
          }
          to {
            stroke: black;
            stroke-width: 1024;
          }
        }
        #make-me-a-hanzi-animation-9 {
          animation: keyframes9 0.9270833333333334s both;
          animation-delay: 6.288085937499999s;
          animation-timing-function: linear;
        }
      
        @keyframes keyframes10 {
          from {
            stroke: blue;
            stroke-dashoffset: 446;
            stroke-width: 128;
          }
          59% {
            animation-timing-function: step-end;
            stroke: blue;
            stroke-dashoffset: 0;
            stroke-width: 128;
          }
          to {
            stroke: black;
            stroke-width: 1024;
          }
        }
        #make-me-a-hanzi-animation-10 {
          animation: keyframes10 0.6129557291666666s both;
          animation-delay: 7.215169270833332s;
          animation-timing-function: linear;
        }
      
        @keyframes keyframes11 {
          from {
            stroke: blue;
            stroke-dashoffset: 379;
            stroke-width: 128;
          }
          55% {
            animation-timing-function: step-end;
            stroke: blue;
            stroke-dashoffset: 0;
            stroke-width: 128;
          }
          to {
            stroke: black;
            stroke-width: 1024;
          }
        }
        #make-me-a-hanzi-animation-11 {
          animation: keyframes11 0.5584309895833334s both;
          animation-delay: 7.828124999999999s;
          animation-timing-function: linear;
        }
      
        @keyframes keyframes12 {
          from {
            stroke: blue;
            stroke-dashoffset: 617;
            stroke-width: 128;
          }
          67% {
            animation-timing-function: step-end;
            stroke: blue;
            stroke-dashoffset: 0;
            stroke-width: 128;
          }
          to {
            stroke: black;
            stroke-width: 1024;
          }
        }
        #make-me-a-hanzi-animation-12 {
          animation: keyframes12 0.7521158854166666s both;
          animation-delay: 8.386555989583332s;
          animation-timing-function: linear;
        }
      
        @keyframes keyframes13 {
          from {
            stroke: blue;
            stroke-dashoffset: 876;
            stroke-width: 128;
          }
          74% {
            animation-timing-function: step-end;
            stroke: blue;
            stroke-dashoffset: 0;
            stroke-width: 128;
          }
          to {
            stroke: black;
            stroke-width: 1024;
          }
        }
        #make-me-a-hanzi-animation-13 {
          animation: keyframes13 0.962890625s both;
          animation-delay: 9.138671874999998s;
          animation-timing-function: linear;
        }
      
    </style>
    
      <path d="M 526 711 Q 650 745 652 747 Q 661 756 656 764 Q 649 776 618 782 Q 585 786 531 764 L 477 747 Q 470 746 466 744 Q 414 731 352 722 Q 315 715 343 699 Q 382 678 454 694 Q 464 697 478 699 L 526 711 Z" fill="lightgray"></path>
    
      <path d="M 516 627 Q 520 670 526 711 L 531 764 Q 532 771 533 777 Q 536 796 539 809 Q 543 819 545 828 Q 548 838 531 851 Q 500 867 479 872 Q 466 875 458 868 Q 451 861 458 848 Q 473 829 477 747 L 478 699 Q 478 662 478 622 C 478 592 513 597 516 627 Z" fill="lightgray"></path>
    
      <path d="M 230 581 Q 230 603 205 619 Q 187 632 185 607 Q 191 567 128 486 Q 110 461 137 410 Q 156 388 170 412 Q 188 440 201 480 Q 211 517 222 543 L 230 581 Z" fill="lightgray"></path>
    
      <path d="M 222 543 Q 244 536 266 542 Q 446 599 688 623 Q 746 630 765 627 Q 784 620 780 608 Q 780 607 737 515 Q 728 499 735 496 Q 744 493 761 505 Q 821 553 871 571 Q 913 586 911 597 Q 907 607 835 660 Q 814 676 789 673 Q 572 639 516 627 L 478 622 Q 414 613 337 599 Q 282 589 230 581 C 200 576 192 548 222 543 Z" fill="lightgray"></path>
    
      <path d="M 359 504 Q 349 510 314 516 Q 304 517 300 513 Q 296 507 303 494 Q 331 440 349 353 Q 353 328 369 310 Q 385 291 390 305 Q 393 315 393 330 L 389 357 Q 380 375 366 473 C 362 503 362 503 359 504 Z" fill="lightgray"></path>
    
      <path d="M 565 358 Q 565 354 567 350 Q 571 337 583 337 Q 596 338 603 351 Q 613 363 634 425 Q 649 471 682 497 Q 698 510 684 525 Q 668 540 624 564 Q 605 576 359 504 C 330 496 338 462 366 473 Q 366 474 368 474 Q 399 487 454 502 L 486 510 Q 574 538 597 528 Q 604 524 600 497 Q 581 415 573 388 L 565 358 Z" fill="lightgray"></path>
    
      <path d="M 497 434 Q 525 443 550 447 Q 569 451 561 462 Q 551 472 530 475 Q 517 476 500 471 L 458 456 Q 430 446 405 435 Q 392 431 409 420 L 459 425 L 497 434 Z" fill="lightgray"></path>
    
      <path d="M 493 382 Q 494 410 497 434 L 500 471 Q 500 475 501 478 Q 505 491 499 499 Q 492 506 486 510 C 462 528 453 532 454 502 Q 454 496 458 456 L 459 425 Q 459 404 460 373 C 461 343 492 352 493 382 Z" fill="lightgray"></path>
    
      <path d="M 393 330 Q 402 329 413 331 Q 462 344 565 358 C 595 362 598 371 573 388 Q 569 391 565 393 Q 550 402 493 382 L 460 373 Q 421 366 389 357 C 360 349 363 332 393 330 Z" fill="lightgray"></path>
    
      <path d="M 493 269 Q 557 287 622 300 Q 647 315 653 304 Q 649 288 607 235 Q 597 222 604 217 Q 608 213 623 221 Q 708 266 740 272 Q 765 273 765 288 Q 765 300 696 341 Q 666 356 599 330 Q 448 287 255 249 Q 228 245 250 224 Q 266 205 311 221 Q 383 242 453 259 L 493 269 Z" fill="lightgray"></path>
    
      <path d="M 513 78 Q 514 112 516 141 L 517 168 Q 521 244 519 249 L 518 250 Q 505 262 493 269 C 468 285 445 288 453 259 Q 462 234 469 104 C 471 74 512 48 513 78 Z" fill="lightgray"></path>
    
      <path d="M 516 141 L 635 157 Q 660 163 650 176 Q 637 191 611 194 Q 557 197 517 168 C 492 151 486 137 516 141 Z" fill="lightgray"></path>
    
      <path d="M 367 139 Q 376 149 386 159 Q 398 168 387 184 Q 353 223 330 222 Q 320 222 319 208 Q 315 109 183 8 Q 162 -1 115 -41 Q 105 -54 119 -52 Q 138 -52 168 -36 Q 259 12 317 83 Q 330 99 343 113 L 367 139 Z" fill="lightgray"></path>
    
      <path d="M 343 113 Q 379 113 464 54 Q 656 -100 732 -95 Q 823 -71 916 -47 Q 929 -40 931 -31 Q 932 -21 911 -23 Q 856 -17 795 -17 Q 678 -11 513 78 L 469 104 Q 412 146 367 139 C 337 138 313 118 343 113 Z" fill="lightgray"></path>
    
    
      <clipPath id="make-me-a-hanzi-clip-0">
        <path d="M 526 711 Q 650 745 652 747 Q 661 756 656 764 Q 649 776 618 782 Q 585 786 531 764 L 477 747 Q 470 746 466 744 Q 414 731 352 722 Q 315 715 343 699 Q 382 678 454 694 Q 464 697 478 699 L 526 711 Z"></path>
      </clipPath>
      <path clip-path="url(#make-me-a-hanzi-clip-0)" d="M 344 712 L 406 708 L 591 756 L 647 756" fill="none" id="make-me-a-hanzi-animation-0" stroke-dasharray="437 874" stroke-linecap="round"></path>
    
      <clipPath id="make-me-a-hanzi-clip-1">
        <path d="M 516 627 Q 520 670 526 711 L 531 764 Q 532 771 533 777 Q 536 796 539 809 Q 543 819 545 828 Q 548 838 531 851 Q 500 867 479 872 Q 466 875 458 868 Q 451 861 458 848 Q 473 829 477 747 L 478 699 Q 478 662 478 622 C 478 592 513 597 516 627 Z"></path>
      </clipPath>
      <path clip-path="url(#make-me-a-hanzi-clip-1)" d="M 468 859 L 488 844 L 505 819 L 499 650 L 483 630" fill="none" id="make-me-a-hanzi-animation-1" stroke-dasharray="378 756" stroke-linecap="round"></path>
    
      <clipPath id="make-me-a-hanzi-clip-2">
        <path d="M 230 581 Q 230 603 205 619 Q 187 632 185 607 Q 191 567 128 486 Q 110 461 137 410 Q 156 388 170 412 Q 188 440 201 480 Q 211 517 222 543 L 230 581 Z"></path>
      </clipPath>
      <path clip-path="url(#make-me-a-hanzi-clip-2)" d="M 196 612 L 207 584 L 200 554 L 157 464 L 154 417" fill="none" id="make-me-a-hanzi-animation-2" stroke-dasharray="336 672" stroke-linecap="round"></path>
    
      <clipPath id="make-me-a-hanzi-clip-3">
        <path d="M 222 543 Q 244 536 266 542 Q 446 599 688 623 Q 746 630 765 627 Q 784 620 780 608 Q 780 607 737 515 Q 728 499 735 496 Q 744 493 761 505 Q 821 553 871 571 Q 913 586 911 597 Q 907 607 835 660 Q 814 676 789 673 Q 572 639 516 627 L 478 622 Q 414 613 337 599 Q 282 589 230 581 C 200 576 192 548 222 543 Z"></path>
      </clipPath>
      <path clip-path="url(#make-me-a-hanzi-clip-3)" d="M 231 548 L 248 561 L 301 574 L 546 620 L 757 649 L 804 640 L 828 605 L 740 502" fill="none" id="make-me-a-hanzi-animation-3" stroke-dasharray="892 1784" stroke-linecap="round"></path>
    
      <clipPath id="make-me-a-hanzi-clip-4">
        <path d="M 359 504 Q 349 510 314 516 Q 304 517 300 513 Q 296 507 303 494 Q 331 440 349 353 Q 353 328 369 310 Q 385 291 390 305 Q 393 315 393 330 L 389 357 Q 380 375 366 473 C 362 503 362 503 359 504 Z"></path>
      </clipPath>
      <path clip-path="url(#make-me-a-hanzi-clip-4)" d="M 308 508 L 336 485 L 346 458 L 380 310" fill="none" id="make-me-a-hanzi-animation-4" stroke-dasharray="345 690" stroke-linecap="round"></path>
    
      <clipPath id="make-me-a-hanzi-clip-5">
        <path d="M 565 358 Q 565 354 567 350 Q 571 337 583 337 Q 596 338 603 351 Q 613 363 634 425 Q 649 471 682 497 Q 698 510 684 525 Q 668 540 624 564 Q 605 576 359 504 C 330 496 338 462 366 473 Q 366 474 368 474 Q 399 487 454 502 L 486 510 Q 574 538 597 528 Q 604 524 600 497 Q 581 415 573 388 L 565 358 Z"></path>
      </clipPath>
      <path clip-path="url(#make-me-a-hanzi-clip-5)" d="M 371 483 L 380 496 L 404 505 L 517 535 L 590 547 L 615 542 L 640 510 L 583 353" fill="none" id="make-me-a-hanzi-animation-5" stroke-dasharray="593 1186" stroke-linecap="round"></path>
    
      <clipPath id="make-me-a-hanzi-clip-6">
        <path d="M 497 434 Q 525 443 550 447 Q 569 451 561 462 Q 551 472 530 475 Q 517 476 500 471 L 458 456 Q 430 446 405 435 Q 392 431 409 420 L 459 425 L 497 434 Z"></path>
      </clipPath>
      <path clip-path="url(#make-me-a-hanzi-clip-6)" d="M 414 429 L 512 457 L 553 456" fill="none" id="make-me-a-hanzi-animation-6" stroke-dasharray="271 542" stroke-linecap="round"></path>
    
      <clipPath id="make-me-a-hanzi-clip-7">
        <path d="M 493 382 Q 494 410 497 434 L 500 471 Q 500 475 501 478 Q 505 491 499 499 Q 492 506 486 510 C 462 528 453 532 454 502 Q 454 496 458 456 L 459 425 Q 459 404 460 373 C 461 343 492 352 493 382 Z"></path>
      </clipPath>
      <path clip-path="url(#make-me-a-hanzi-clip-7)" d="M 461 498 L 479 484 L 477 403 L 464 381" fill="none" id="make-me-a-hanzi-animation-7" stroke-dasharray="257 514" stroke-linecap="round"></path>
    
      <clipPath id="make-me-a-hanzi-clip-8">
        <path d="M 393 330 Q 402 329 413 331 Q 462 344 565 358 C 595 362 598 371 573 388 Q 569 391 565 393 Q 550 402 493 382 L 460 373 Q 421 366 389 357 C 360 349 363 332 393 330 Z"></path>
      </clipPath>
      <path clip-path="url(#make-me-a-hanzi-clip-8)" d="M 398 338 L 412 348 L 564 382" fill="none" id="make-me-a-hanzi-animation-8" stroke-dasharray="301 602" stroke-linecap="round"></path>
    
      <clipPath id="make-me-a-hanzi-clip-9">
        <path d="M 493 269 Q 557 287 622 300 Q 647 315 653 304 Q 649 288 607 235 Q 597 222 604 217 Q 608 213 623 221 Q 708 266 740 272 Q 765 273 765 288 Q 765 300 696 341 Q 666 356 599 330 Q 448 287 255 249 Q 228 245 250 224 Q 266 205 311 221 Q 383 242 453 259 L 493 269 Z"></path>
      </clipPath>
      <path clip-path="url(#make-me-a-hanzi-clip-9)" d="M 252 237 L 296 236 L 645 327 L 681 315 L 692 298 L 688 292 L 608 223" fill="none" id="make-me-a-hanzi-animation-9" stroke-dasharray="704 1408" stroke-linecap="round"></path>
    
      <clipPath id="make-me-a-hanzi-clip-10">
        <path d="M 513 78 Q 514 112 516 141 L 517 168 Q 521 244 519 249 L 518 250 Q 505 262 493 269 C 468 285 445 288 453 259 Q 462 234 469 104 C 471 74 512 48 513 78 Z"></path>
      </clipPath>
      <path clip-path="url(#make-me-a-hanzi-clip-10)" d="M 460 258 L 489 232 L 491 120 L 511 86" fill="none" id="make-me-a-hanzi-animation-10" stroke-dasharray="318 636" stroke-linecap="round"></path>
    
      <clipPath id="make-me-a-hanzi-clip-11">
        <path d="M 516 141 L 635 157 Q 660 163 650 176 Q 637 191 611 194 Q 557 197 517 168 C 492 151 486 137 516 141 Z"></path>
      </clipPath>
      <path clip-path="url(#make-me-a-hanzi-clip-11)" d="M 523 148 L 532 159 L 554 167 L 603 174 L 639 169" fill="none" id="make-me-a-hanzi-animation-11" stroke-dasharray="251 502" stroke-linecap="round"></path>
    
      <clipPath id="make-me-a-hanzi-clip-12">
        <path d="M 367 139 Q 376 149 386 159 Q 398 168 387 184 Q 353 223 330 222 Q 320 222 319 208 Q 315 109 183 8 Q 162 -1 115 -41 Q 105 -54 119 -52 Q 138 -52 168 -36 Q 259 12 317 83 Q 330 99 343 113 L 367 139 Z"></path>
      </clipPath>
      <path clip-path="url(#make-me-a-hanzi-clip-12)" d="M 331 210 L 350 172 L 278 68 L 210 7 L 123 -44" fill="none" id="make-me-a-hanzi-animation-12" stroke-dasharray="489 978" stroke-linecap="round"></path>
    
      <clipPath id="make-me-a-hanzi-clip-13">
        <path d="M 343 113 Q 379 113 464 54 Q 656 -100 732 -95 Q 823 -71 916 -47 Q 929 -40 931 -31 Q 932 -21 911 -23 Q 856 -17 795 -17 Q 678 -11 513 78 L 469 104 Q 412 146 367 139 C 337 138 313 118 343 113 Z"></path>
      </clipPath>
      <path clip-path="url(#make-me-a-hanzi-clip-13)" d="M 348 117 L 375 124 L 408 114 L 595 -1 L 704 -47 L 729 -52 L 793 -48 L 922 -32" fill="none" id="make-me-a-hanzi-animation-13" stroke-dasharray="748 1496" stroke-linecap="round"></path>
    
  </g>
</svg>