<svg version="1.1" viewBox="0 0 1024 1024" xmlns="http://www.w3.org/2000/svg">
  <g stroke="lightgray" stroke-dasharray="1,1" stroke-width="1" transform="scale(4, 4)">
    <line x1="0" y1="0" x2="256" y2="256"></line>
    <line x1="256" y1="0" x2="0" y2="256"></line>
    <line x1="128" y1="0" x2="128" y2="256"></line>
    <line x1="0" y1="128" x2="256" y2="128"></line>
  </g>
  <g transform="scale(1, -1) translate(0, -900)">
    <style type="text/css">
      
        @keyframes keyframes0 {
          from {
            stroke: blue;
            stroke-dashoffset: 389;
            stroke-width: 128;
          }
          56% {
            animation-timing-function: step-end;
            stroke: blue;
            stroke-dashoffset: 0;
            stroke-width: 128;
          }
          to {
            stroke: black;
            stroke-width: 1024;
          }
        }
        #make-me-a-hanzi-animation-0 {
          animation: keyframes0 0.5665690104166666s both;
          animation-delay: 0s;
          animation-timing-function: linear;
        }
      
        @keyframes keyframes1 {
          from {
            stroke: blue;
            stroke-dashoffset: 716;
            stroke-width: 128;
          }
          70% {
            animation-timing-function: step-end;
            stroke: blue;
            stroke-dashoffset: 0;
            stroke-width: 128;
          }
          to {
            stroke: black;
            stroke-width: 1024;
          }
        }
        #make-me-a-hanzi-animation-1 {
          animation: keyframes1 0.8326822916666666s both;
          animation-delay: 0.5665690104166666s;
          animation-timing-function: linear;
        }
      
        @keyframes keyframes2 {
          from {
            stroke: blue;
            stroke-dashoffset: 1015;
            stroke-width: 128;
          }
          77% {
            animation-timing-function: step-end;
            stroke: blue;
            stroke-dashoffset: 0;
            stroke-width: 128;
          }
          to {
            stroke: black;
            stroke-width: 1024;
          }
        }
        #make-me-a-hanzi-animation-2 {
          animation: keyframes2 1.0760091145833333s both;
          animation-delay: 1.3992513020833333s;
          animation-timing-function: linear;
        }
      
        @keyframes keyframes3 {
          from {
            stroke: blue;
            stroke-dashoffset: 358;
            stroke-width: 128;
          }
          54% {
            animation-timing-function: step-end;
            stroke: blue;
            stroke-dashoffset: 0;
            stroke-width: 128;
          }
          to {
            stroke: black;
            stroke-width: 1024;
          }
        }
        #make-me-a-hanzi-animation-3 {
          animation: keyframes3 0.5413411458333334s both;
          animation-delay: 2.4752604166666665s;
          animation-timing-function: linear;
        }
      
        @keyframes keyframes4 {
          from {
            stroke: blue;
            stroke-dashoffset: 491;
            stroke-width: 128;
          }
          62% {
            animation-timing-function: step-end;
            stroke: blue;
            stroke-dashoffset: 0;
            stroke-width: 128;
          }
          to {
            stroke: black;
            stroke-width: 1024;
          }
        }
        #make-me-a-hanzi-animation-4 {
          animation: keyframes4 0.6495768229166666s both;
          animation-delay: 3.0166015625s;
          animation-timing-function: linear;
        }
      
        @keyframes keyframes5 {
          from {
            stroke: blue;
            stroke-dashoffset: 475;
            stroke-width: 128;
          }
          61% {
            animation-timing-function: step-end;
            stroke: blue;
            stroke-dashoffset: 0;
            stroke-width: 128;
          }
          to {
            stroke: black;
            stroke-width: 1024;
          }
        }
        #make-me-a-hanzi-animation-5 {
          animation: keyframes5 0.6365559895833334s both;
          animation-delay: 3.6661783854166665s;
          animation-timing-function: linear;
        }
      
        @keyframes keyframes6 {
          from {
            stroke: blue;
            stroke-dashoffset: 436;
            stroke-width: 128;
          }
          59% {
            animation-timing-function: step-end;
            stroke: blue;
            stroke-dashoffset: 0;
            stroke-width: 128;
          }
          to {
            stroke: black;
            stroke-width: 1024;
          }
        }
        #make-me-a-hanzi-animation-6 {
          animation: keyframes6 0.6048177083333334s both;
          animation-delay: 4.302734375s;
          animation-timing-function: linear;
        }
      
        @keyframes keyframes7 {
          from {
            stroke: blue;
            stroke-dashoffset: 497;
            stroke-width: 128;
          }
          62% {
            animation-timing-function: step-end;
            stroke: blue;
            stroke-dashoffset: 0;
            stroke-width: 128;
          }
          to {
            stroke: black;
            stroke-width: 1024;
          }
        }
        #make-me-a-hanzi-animation-7 {
          animation: keyframes7 0.6544596354166666s both;
          animation-delay: 4.907552083333333s;
          animation-timing-function: linear;
        }
      
        @keyframes keyframes8 {
          from {
            stroke: blue;
            stroke-dashoffset: 597;
            stroke-width: 128;
          }
          66% {
            animation-timing-function: step-end;
            stroke: blue;
            stroke-dashoffset: 0;
            stroke-width: 128;
          }
          to {
            stroke: black;
            stroke-width: 1024;
          }
        }
        #make-me-a-hanzi-animation-8 {
          animation: keyframes8 0.73583984375s both;
          animation-delay: 5.56201171875s;
          animation-timing-function: linear;
        }
      
        @keyframes keyframes9 {
          from {
            stroke: blue;
            stroke-dashoffset: 331;
            stroke-width: 128;
          }
          52% {
            animation-timing-function: step-end;
            stroke: blue;
            stroke-dashoffset: 0;
            stroke-width: 128;
          }
          to {
            stroke: black;
            stroke-width: 1024;
          }
        }
        #make-me-a-hanzi-animation-9 {
          animation: keyframes9 0.5193684895833334s both;
          animation-delay: 6.2978515625s;
          animation-timing-function: linear;
        }
      
        @keyframes keyframes10 {
          from {
            stroke: blue;
            stroke-dashoffset: 335;
            stroke-width: 128;
          }
          52% {
            animation-timing-function: step-end;
            stroke: blue;
            stroke-dashoffset: 0;
            stroke-width: 128;
          }
          to {
            stroke: black;
            stroke-width: 1024;
          }
        }
        #make-me-a-hanzi-animation-10 {
          animation: keyframes10 0.5226236979166666s both;
          animation-delay: 6.817220052083333s;
          animation-timing-function: linear;
        }
      
        @keyframes keyframes11 {
          from {
            stroke: blue;
            stroke-dashoffset: 342;
            stroke-width: 128;
          }
          53% {
            animation-timing-function: step-end;
            stroke: blue;
            stroke-dashoffset: 0;
            stroke-width: 128;
          }
          to {
            stroke: black;
            stroke-width: 1024;
          }
        }
        #make-me-a-hanzi-animation-11 {
          animation: keyframes11 0.5283203125s both;
          animation-delay: 7.33984375s;
          animation-timing-function: linear;
        }
      
        @keyframes keyframes12 {
          from {
            stroke: blue;
            stroke-dashoffset: 568;
            stroke-width: 128;
          }
          65% {
            animation-timing-function: step-end;
            stroke: blue;
            stroke-dashoffset: 0;
            stroke-width: 128;
          }
          to {
            stroke: black;
            stroke-width: 1024;
          }
        }
        #make-me-a-hanzi-animation-12 {
          animation: keyframes12 0.7122395833333334s both;
          animation-delay: 7.8681640625s;
          animation-timing-function: linear;
        }
      
        @keyframes keyframes13 {
          from {
            stroke: blue;
            stroke-dashoffset: 441;
            stroke-width: 128;
          }
          59% {
            animation-timing-function: step-end;
            stroke: blue;
            stroke-dashoffset: 0;
            stroke-width: 128;
          }
          to {
            stroke: black;
            stroke-width: 1024;
          }
        }
        #make-me-a-hanzi-animation-13 {
          animation: keyframes13 0.60888671875s both;
          animation-delay: 8.580403645833334s;
          animation-timing-function: linear;
        }
      
        @keyframes keyframes14 {
          from {
            stroke: blue;
            stroke-dashoffset: 363;
            stroke-width: 128;
          }
          54% {
            animation-timing-function: step-end;
            stroke: blue;
            stroke-dashoffset: 0;
            stroke-width: 128;
          }
          to {
            stroke: black;
            stroke-width: 1024;
          }
        }
        #make-me-a-hanzi-animation-14 {
          animation: keyframes14 0.54541015625s both;
          animation-delay: 9.189290364583334s;
          animation-timing-function: linear;
        }
      
        @keyframes keyframes15 {
          from {
            stroke: blue;
            stroke-dashoffset: 501;
            stroke-width: 128;
          }
          62% {
            animation-timing-function: step-end;
            stroke: blue;
            stroke-dashoffset: 0;
            stroke-width: 128;
          }
          to {
            stroke: black;
            stroke-width: 1024;
          }
        }
        #make-me-a-hanzi-animation-15 {
          animation: keyframes15 0.65771484375s both;
          animation-delay: 9.734700520833334s;
          animation-timing-function: linear;
        }
      
        @keyframes keyframes16 {
          from {
            stroke: blue;
            stroke-dashoffset: 376;
            stroke-width: 128;
          }
          55% {
            animation-timing-function: step-end;
            stroke: blue;
            stroke-dashoffset: 0;
            stroke-width: 128;
          }
          to {
            stroke: black;
            stroke-width: 1024;
          }
        }
        #make-me-a-hanzi-animation-16 {
          animation: keyframes16 0.5559895833333334s both;
          animation-delay: 10.392415364583334s;
          animation-timing-function: linear;
        }
      
        @keyframes keyframes17 {
          from {
            stroke: blue;
            stroke-dashoffset: 576;
            stroke-width: 128;
          }
          65% {
            animation-timing-function: step-end;
            stroke: blue;
            stroke-dashoffset: 0;
            stroke-width: 128;
          }
          to {
            stroke: black;
            stroke-width: 1024;
          }
        }
        #make-me-a-hanzi-animation-17 {
          animation: keyframes17 0.71875s both;
          animation-delay: 10.948404947916668s;
          animation-timing-function: linear;
        }
      
        @keyframes keyframes18 {
          from {
            stroke: blue;
            stroke-dashoffset: 738;
            stroke-width: 128;
          }
          71% {
            animation-timing-function: step-end;
            stroke: blue;
            stroke-dashoffset: 0;
            stroke-width: 128;
          }
          to {
            stroke: black;
            stroke-width: 1024;
          }
        }
        #make-me-a-hanzi-animation-18 {
          animation: keyframes18 0.8505859375s both;
          animation-delay: 11.667154947916668s;
          animation-timing-function: linear;
        }
      
        @keyframes keyframes19 {
          from {
            stroke: blue;
            stroke-dashoffset: 761;
            stroke-width: 128;
          }
          71% {
            animation-timing-function: step-end;
            stroke: blue;
            stroke-dashoffset: 0;
            stroke-width: 128;
          }
          to {
            stroke: black;
            stroke-width: 1024;
          }
        }
        #make-me-a-hanzi-animation-19 {
          animation: keyframes19 0.8693033854166666s both;
          animation-delay: 12.517740885416668s;
          animation-timing-function: linear;
        }
      
        @keyframes keyframes20 {
          from {
            stroke: blue;
            stroke-dashoffset: 450;
            stroke-width: 128;
          }
          59% {
            animation-timing-function: step-end;
            stroke: blue;
            stroke-dashoffset: 0;
            stroke-width: 128;
          }
          to {
            stroke: black;
            stroke-width: 1024;
          }
        }
        #make-me-a-hanzi-animation-20 {
          animation: keyframes20 0.6162109375s both;
          animation-delay: 13.387044270833334s;
          animation-timing-function: linear;
        }
      
    </style>
    
      <path d="M 491 812 Q 519 793 550 769 Q 565 759 579 761 Q 589 762 593 776 Q 596 791 584 818 Q 571 845 480 857 Q 465 858 460 855 Q 456 851 458 839 Q 462 829 491 812 Z" fill="lightgray"></path>
    
      <path d="M 335 660 Q 365 651 401 658 Q 735 712 771 721 Q 784 725 789 729 Q 799 736 794 744 Q 788 757 760 765 Q 730 772 646 746 Q 474 707 323 695 C 293 693 306 667 335 660 Z" fill="lightgray"></path>
    
      <path d="M 245 372 Q 212 216 94 22 Q 90 16 88 10 Q 85 0 96 1 Q 126 7 200 122 Q 219 156 238 195 Q 302 349 323 587 Q 326 626 334 658 Q 334 659 335 660 C 341 684 341 684 323 695 Q 308 705 288 715 Q 269 725 256 720 Q 244 713 251 700 Q 269 673 270 616 Q 255 433 252 410 L 245 372 Z" fill="lightgray"></path>
    
      <path d="M 113 544 Q 164 466 188 463 Q 201 460 210 478 Q 213 491 206 512 Q 197 531 174 543 Q 137 565 121 570 Q 112 573 110 562 Q 107 553 113 544 Z" fill="lightgray"></path>
    
      <path d="M 252 410 Q 69 302 41 296 Q 29 292 30 282 Q 31 269 42 264 Q 67 255 102 246 Q 112 245 121 256 Q 148 292 245 372 C 268 391 278 425 252 410 Z" fill="lightgray"></path>
    
      <path d="M 478 533 Q 571 555 575 557 Q 582 564 578 571 Q 572 580 549 586 Q 519 592 487 575 L 443 563 Q 440 563 439 562 Q 405 555 362 550 Q 334 546 354 532 Q 390 514 435 525 Q 436 525 441 525 L 478 533 Z" fill="lightgray"></path>
    
      <path d="M 465 468 Q 472 502 478 533 L 487 575 Q 487 587 498 606 Q 501 613 488 624 Q 467 637 452 642 Q 442 645 436 640 Q 430 636 435 626 Q 445 607 443 563 L 441 525 Q 440 494 436 460 C 433 430 459 439 465 468 Z" fill="lightgray"></path>
    
      <path d="M 396 453 Q 386 462 375 467 Q 368 470 361 467 Q 354 463 357 456 Q 369 432 369 410 Q 370 389 369 214 C 369 184 400 188 400 218 Q 400 239 401 258 L 402 276 Q 402 295 404 314 L 404 330 Q 405 352 406 370 L 407 388 Q 408 409 411 429 C 412 439 412 439 396 453 Z" fill="lightgray"></path>
    
      <path d="M 550 246 Q 554 414 569 433 Q 578 443 568 455 Q 561 462 528 482 Q 521 488 465 468 L 436 460 Q 417 456 396 453 C 366 449 384 417 411 429 Q 442 445 499 449 Q 509 450 512 448 Q 515 442 515 244 C 515 214 549 216 550 246 Z" fill="lightgray"></path>
    
      <path d="M 406 370 Q 442 376 480 381 Q 493 384 489 392 Q 482 399 466 402 Q 441 405 407 388 C 380 375 376 365 406 370 Z" fill="lightgray"></path>
    
      <path d="M 404 314 Q 410 314 480 325 Q 493 328 489 336 Q 482 343 466 346 Q 447 349 404 330 C 377 318 374 312 404 314 Z" fill="lightgray"></path>
    
      <path d="M 401 258 Q 402 258 405 258 Q 451 268 484 273 Q 497 276 493 284 Q 486 291 470 294 Q 448 297 402 276 C 375 264 371 258 401 258 Z" fill="lightgray"></path>
    
      <path d="M 369 214 Q 357 214 280 204 Q 255 203 274 187 Q 305 165 326 170 Q 443 192 576 208 Q 585 207 593 218 Q 594 228 575 237 Q 554 247 550 246 L 515 244 Q 478 235 441 227 Q 420 223 400 218 L 369 214 Z" fill="lightgray"></path>
    
      <path d="M 360 139 Q 354 97 264 14 Q 248 2 269 5 Q 321 12 390 85 Q 409 104 418 113 Q 425 122 424 130 Q 421 140 400 146 Q 378 153 368 151 Q 362 150 360 139 Z" fill="lightgray"></path>
    
      <path d="M 494 110 Q 537 55 548 52 Q 555 51 561 61 Q 567 71 564 95 Q 563 111 542 125 Q 491 153 480 150 Q 476 149 475 138 Q 476 129 494 110 Z" fill="lightgray"></path>
    
      <path d="M 738 596 Q 777 606 841 613 Q 850 612 858 624 Q 859 634 838 643 Q 814 662 729 636 Q 726 636 725 635 Q 715 634 611 614 Q 586 610 606 595 Q 636 574 659 579 Q 680 583 702 589 L 738 596 Z" fill="lightgray"></path>
    
      <path d="M 705 484 Q 706 488 710 493 Q 723 512 736 536 Q 742 546 752 561 Q 762 570 756 578 Q 752 587 738 596 C 713 613 699 619 702 589 Q 706 564 682 493 Q 679 486 678 478 C 673 448 694 456 705 484 Z" fill="lightgray"></path>
    
      <path d="M 646 473 Q 631 483 614 489 Q 607 490 602 484 Q 599 480 605 472 Q 635 414 614 270 Q 602 207 604 202 Q 611 177 620 166 Q 629 156 636 167 Q 657 189 657 334 Q 657 424 662 449 C 664 462 664 462 646 473 Z" fill="lightgray"></path>
    
      <path d="M 802 225 Q 796 206 807 189 Q 819 165 826 167 Q 838 168 850 194 Q 862 216 860 232 Q 833 406 863 455 Q 879 479 829 504 Q 817 510 804 515 Q 791 519 772 511 Q 744 496 708 485 Q 705 485 705 484 L 678 478 Q 660 477 646 473 C 617 467 632 444 662 449 Q 668 449 728 464 Q 779 479 790 472 Q 799 453 804 404 Q 808 254 802 225 Z" fill="lightgray"></path>
    
      <path d="M 707 340 Q 711 148 651 72 Q 644 65 635 56 Q 611 34 559 4 Q 549 0 546 -3 Q 542 -7 555 -10 Q 588 -14 658 27 Q 746 82 751 270 Q 754 339 765 366 Q 769 376 762 382 Q 747 395 717 407 Q 699 414 686 410 Q 670 403 683 389 Q 705 365 707 340 Z" fill="lightgray"></path>
    
      <path d="M 788 106 Q 828 55 876 -17 Q 888 -38 901 -43 Q 908 -46 917 -38 Q 930 -28 925 14 Q 922 56 793 134 Q 786 140 782 129 Q 781 117 788 106 Z" fill="lightgray"></path>
    
    
      <clipPath id="make-me-a-hanzi-clip-0">
        <path d="M 491 812 Q 519 793 550 769 Q 565 759 579 761 Q 589 762 593 776 Q 596 791 584 818 Q 571 845 480 857 Q 465 858 460 855 Q 456 851 458 839 Q 462 829 491 812 Z"></path>
      </clipPath>
      <path clip-path="url(#make-me-a-hanzi-clip-0)" d="M 466 849 L 541 814 L 576 778" fill="none" id="make-me-a-hanzi-animation-0" stroke-dasharray="261 522" stroke-linecap="round"></path>
    
      <clipPath id="make-me-a-hanzi-clip-1">
        <path d="M 335 660 Q 365 651 401 658 Q 735 712 771 721 Q 784 725 789 729 Q 799 736 794 744 Q 788 757 760 765 Q 730 772 646 746 Q 474 707 323 695 C 293 693 306 667 335 660 Z"></path>
      </clipPath>
      <path clip-path="url(#make-me-a-hanzi-clip-1)" d="M 331 691 L 351 677 L 411 680 L 725 739 L 781 740" fill="none" id="make-me-a-hanzi-animation-1" stroke-dasharray="588 1176" stroke-linecap="round"></path>
    
      <clipPath id="make-me-a-hanzi-clip-2">
        <path d="M 245 372 Q 212 216 94 22 Q 90 16 88 10 Q 85 0 96 1 Q 126 7 200 122 Q 219 156 238 195 Q 302 349 323 587 Q 326 626 334 658 Q 334 659 335 660 C 341 684 341 684 323 695 Q 308 705 288 715 Q 269 725 256 720 Q 244 713 251 700 Q 269 673 270 616 Q 255 433 252 410 L 245 372 Z"></path>
      </clipPath>
      <path clip-path="url(#make-me-a-hanzi-clip-2)" d="M 261 708 L 275 700 L 296 674 L 300 658 L 287 494 L 265 353 L 219 210 L 177 122 L 97 10" fill="none" id="make-me-a-hanzi-animation-2" stroke-dasharray="887 1774" stroke-linecap="round"></path>
    
      <clipPath id="make-me-a-hanzi-clip-3">
        <path d="M 113 544 Q 164 466 188 463 Q 201 460 210 478 Q 213 491 206 512 Q 197 531 174 543 Q 137 565 121 570 Q 112 573 110 562 Q 107 553 113 544 Z"></path>
      </clipPath>
      <path clip-path="url(#make-me-a-hanzi-clip-3)" d="M 122 558 L 174 509 L 190 483" fill="none" id="make-me-a-hanzi-animation-3" stroke-dasharray="230 460" stroke-linecap="round"></path>
    
      <clipPath id="make-me-a-hanzi-clip-4">
        <path d="M 252 410 Q 69 302 41 296 Q 29 292 30 282 Q 31 269 42 264 Q 67 255 102 246 Q 112 245 121 256 Q 148 292 245 372 C 268 391 278 425 252 410 Z"></path>
      </clipPath>
      <path clip-path="url(#make-me-a-hanzi-clip-4)" d="M 43 283 L 98 283 L 232 381 L 239 393" fill="none" id="make-me-a-hanzi-animation-4" stroke-dasharray="363 726" stroke-linecap="round"></path>
    
      <clipPath id="make-me-a-hanzi-clip-5">
        <path d="M 478 533 Q 571 555 575 557 Q 582 564 578 571 Q 572 580 549 586 Q 519 592 487 575 L 443 563 Q 440 563 439 562 Q 405 555 362 550 Q 334 546 354 532 Q 390 514 435 525 Q 436 525 441 525 L 478 533 Z"></path>
      </clipPath>
      <path clip-path="url(#make-me-a-hanzi-clip-5)" d="M 356 542 L 412 538 L 516 564 L 551 569 L 571 565" fill="none" id="make-me-a-hanzi-animation-5" stroke-dasharray="347 694" stroke-linecap="round"></path>
    
      <clipPath id="make-me-a-hanzi-clip-6">
        <path d="M 465 468 Q 472 502 478 533 L 487 575 Q 487 587 498 606 Q 501 613 488 624 Q 467 637 452 642 Q 442 645 436 640 Q 430 636 435 626 Q 445 607 443 563 L 441 525 Q 440 494 436 460 C 433 430 459 439 465 468 Z"></path>
      </clipPath>
      <path clip-path="url(#make-me-a-hanzi-clip-6)" d="M 443 632 L 468 606 L 454 491 L 442 466" fill="none" id="make-me-a-hanzi-animation-6" stroke-dasharray="308 616" stroke-linecap="round"></path>
    
      <clipPath id="make-me-a-hanzi-clip-7">
        <path d="M 396 453 Q 386 462 375 467 Q 368 470 361 467 Q 354 463 357 456 Q 369 432 369 410 Q 370 389 369 214 C 369 184 400 188 400 218 Q 400 239 401 258 L 402 276 Q 402 295 404 314 L 404 330 Q 405 352 406 370 L 407 388 Q 408 409 411 429 C 412 439 412 439 396 453 Z"></path>
      </clipPath>
      <path clip-path="url(#make-me-a-hanzi-clip-7)" d="M 368 458 L 389 424 L 385 239 L 375 227" fill="none" id="make-me-a-hanzi-animation-7" stroke-dasharray="369 738" stroke-linecap="round"></path>
    
      <clipPath id="make-me-a-hanzi-clip-8">
        <path d="M 550 246 Q 554 414 569 433 Q 578 443 568 455 Q 561 462 528 482 Q 521 488 465 468 L 436 460 Q 417 456 396 453 C 366 449 384 417 411 429 Q 442 445 499 449 Q 509 450 512 448 Q 515 442 515 244 C 515 214 549 216 550 246 Z"></path>
      </clipPath>
      <path clip-path="url(#make-me-a-hanzi-clip-8)" d="M 404 449 L 425 446 L 497 465 L 521 465 L 536 450 L 541 440 L 533 286 L 531 263 L 520 259" fill="none" id="make-me-a-hanzi-animation-8" stroke-dasharray="469 938" stroke-linecap="round"></path>
    
      <clipPath id="make-me-a-hanzi-clip-9">
        <path d="M 406 370 Q 442 376 480 381 Q 493 384 489 392 Q 482 399 466 402 Q 441 405 407 388 C 380 375 376 365 406 370 Z"></path>
      </clipPath>
      <path clip-path="url(#make-me-a-hanzi-clip-9)" d="M 413 374 L 417 383 L 434 388 L 481 390" fill="none" id="make-me-a-hanzi-animation-9" stroke-dasharray="203 406" stroke-linecap="round"></path>
    
      <clipPath id="make-me-a-hanzi-clip-10">
        <path d="M 404 314 Q 410 314 480 325 Q 493 328 489 336 Q 482 343 466 346 Q 447 349 404 330 C 377 318 374 312 404 314 Z"></path>
      </clipPath>
      <path clip-path="url(#make-me-a-hanzi-clip-10)" d="M 406 318 L 415 327 L 481 334" fill="none" id="make-me-a-hanzi-animation-10" stroke-dasharray="207 414" stroke-linecap="round"></path>
    
      <clipPath id="make-me-a-hanzi-clip-11">
        <path d="M 401 258 Q 402 258 405 258 Q 451 268 484 273 Q 497 276 493 284 Q 486 291 470 294 Q 448 297 402 276 C 375 264 371 258 401 258 Z"></path>
      </clipPath>
      <path clip-path="url(#make-me-a-hanzi-clip-11)" d="M 403 262 L 431 277 L 485 282" fill="none" id="make-me-a-hanzi-animation-11" stroke-dasharray="214 428" stroke-linecap="round"></path>
    
      <clipPath id="make-me-a-hanzi-clip-12">
        <path d="M 369 214 Q 357 214 280 204 Q 255 203 274 187 Q 305 165 326 170 Q 443 192 576 208 Q 585 207 593 218 Q 594 228 575 237 Q 554 247 550 246 L 515 244 Q 478 235 441 227 Q 420 223 400 218 L 369 214 Z"></path>
      </clipPath>
      <path clip-path="url(#make-me-a-hanzi-clip-12)" d="M 275 196 L 319 189 L 513 222 L 560 225 L 583 220" fill="none" id="make-me-a-hanzi-animation-12" stroke-dasharray="440 880" stroke-linecap="round"></path>
    
      <clipPath id="make-me-a-hanzi-clip-13">
        <path d="M 360 139 Q 354 97 264 14 Q 248 2 269 5 Q 321 12 390 85 Q 409 104 418 113 Q 425 122 424 130 Q 421 140 400 146 Q 378 153 368 151 Q 362 150 360 139 Z"></path>
      </clipPath>
      <path clip-path="url(#make-me-a-hanzi-clip-13)" d="M 412 127 L 385 121 L 322 46 L 273 13" fill="none" id="make-me-a-hanzi-animation-13" stroke-dasharray="313 626" stroke-linecap="round"></path>
    
      <clipPath id="make-me-a-hanzi-clip-14">
        <path d="M 494 110 Q 537 55 548 52 Q 555 51 561 61 Q 567 71 564 95 Q 563 111 542 125 Q 491 153 480 150 Q 476 149 475 138 Q 476 129 494 110 Z"></path>
      </clipPath>
      <path clip-path="url(#make-me-a-hanzi-clip-14)" d="M 483 142 L 539 94 L 550 63" fill="none" id="make-me-a-hanzi-animation-14" stroke-dasharray="235 470" stroke-linecap="round"></path>
    
      <clipPath id="make-me-a-hanzi-clip-15">
        <path d="M 738 596 Q 777 606 841 613 Q 850 612 858 624 Q 859 634 838 643 Q 814 662 729 636 Q 726 636 725 635 Q 715 634 611 614 Q 586 610 606 595 Q 636 574 659 579 Q 680 583 702 589 L 738 596 Z"></path>
      </clipPath>
      <path clip-path="url(#make-me-a-hanzi-clip-15)" d="M 607 605 L 644 599 L 800 630 L 848 625" fill="none" id="make-me-a-hanzi-animation-15" stroke-dasharray="373 746" stroke-linecap="round"></path>
    
      <clipPath id="make-me-a-hanzi-clip-16">
        <path d="M 705 484 Q 706 488 710 493 Q 723 512 736 536 Q 742 546 752 561 Q 762 570 756 578 Q 752 587 738 596 C 713 613 699 619 702 589 Q 706 564 682 493 Q 679 486 678 478 C 673 448 694 456 705 484 Z"></path>
      </clipPath>
      <path clip-path="url(#make-me-a-hanzi-clip-16)" d="M 709 585 L 727 567 L 696 494 L 684 485" fill="none" id="make-me-a-hanzi-animation-16" stroke-dasharray="248 496" stroke-linecap="round"></path>
    
      <clipPath id="make-me-a-hanzi-clip-17">
        <path d="M 646 473 Q 631 483 614 489 Q 607 490 602 484 Q 599 480 605 472 Q 635 414 614 270 Q 602 207 604 202 Q 611 177 620 166 Q 629 156 636 167 Q 657 189 657 334 Q 657 424 662 449 C 664 462 664 462 646 473 Z"></path>
      </clipPath>
      <path clip-path="url(#make-me-a-hanzi-clip-17)" d="M 611 480 L 634 456 L 641 401 L 628 170" fill="none" id="make-me-a-hanzi-animation-17" stroke-dasharray="448 896" stroke-linecap="round"></path>
    
      <clipPath id="make-me-a-hanzi-clip-18">
        <path d="M 802 225 Q 796 206 807 189 Q 819 165 826 167 Q 838 168 850 194 Q 862 216 860 232 Q 833 406 863 455 Q 879 479 829 504 Q 817 510 804 515 Q 791 519 772 511 Q 744 496 708 485 Q 705 485 705 484 L 678 478 Q 660 477 646 473 C 617 467 632 444 662 449 Q 668 449 728 464 Q 779 479 790 472 Q 799 453 804 404 Q 808 254 802 225 Z"></path>
      </clipPath>
      <path clip-path="url(#make-me-a-hanzi-clip-18)" d="M 652 468 L 668 463 L 715 471 L 784 495 L 802 492 L 829 464 L 824 392 L 832 227 L 826 177" fill="none" id="make-me-a-hanzi-animation-18" stroke-dasharray="610 1220" stroke-linecap="round"></path>
    
      <clipPath id="make-me-a-hanzi-clip-19">
        <path d="M 707 340 Q 711 148 651 72 Q 644 65 635 56 Q 611 34 559 4 Q 549 0 546 -3 Q 542 -7 555 -10 Q 588 -14 658 27 Q 746 82 751 270 Q 754 339 765 366 Q 769 376 762 382 Q 747 395 717 407 Q 699 414 686 410 Q 670 403 683 389 Q 705 365 707 340 Z"></path>
      </clipPath>
      <path clip-path="url(#make-me-a-hanzi-clip-19)" d="M 688 399 L 725 374 L 733 359 L 726 220 L 708 135 L 682 78 L 641 35 L 581 3 L 554 -2" fill="none" id="make-me-a-hanzi-animation-19" stroke-dasharray="633 1266" stroke-linecap="round"></path>
    
      <clipPath id="make-me-a-hanzi-clip-20">
        <path d="M 788 106 Q 828 55 876 -17 Q 888 -38 901 -43 Q 908 -46 917 -38 Q 930 -28 925 14 Q 922 56 793 134 Q 786 140 782 129 Q 781 117 788 106 Z"></path>
      </clipPath>
      <path clip-path="url(#make-me-a-hanzi-clip-20)" d="M 791 124 L 888 22 L 905 -28" fill="none" id="make-me-a-hanzi-animation-20" stroke-dasharray="322 644" stroke-linecap="round"></path>
    
  </g>
</svg>