<svg version="1.1" viewBox="0 0 1024 1024" xmlns="http://www.w3.org/2000/svg">
  <g stroke="lightgray" stroke-dasharray="1,1" stroke-width="1" transform="scale(4, 4)">
    <line x1="0" y1="0" x2="256" y2="256"></line>
    <line x1="256" y1="0" x2="0" y2="256"></line>
    <line x1="128" y1="0" x2="128" y2="256"></line>
    <line x1="0" y1="128" x2="256" y2="128"></line>
  </g>
  <g transform="scale(1, -1) translate(0, -900)">
    <style type="text/css">
      
        @keyframes keyframes0 {
          from {
            stroke: blue;
            stroke-dashoffset: 532;
            stroke-width: 128;
          }
          63% {
            animation-timing-function: step-end;
            stroke: blue;
            stroke-dashoffset: 0;
            stroke-width: 128;
          }
          to {
            stroke: black;
            stroke-width: 1024;
          }
        }
        #make-me-a-hanzi-animation-0 {
          animation: keyframes0 0.6829427083333334s both;
          animation-delay: 0s;
          animation-timing-function: linear;
        }
      
        @keyframes keyframes1 {
          from {
            stroke: blue;
            stroke-dashoffset: 610;
            stroke-width: 128;
          }
          67% {
            animation-timing-function: step-end;
            stroke: blue;
            stroke-dashoffset: 0;
            stroke-width: 128;
          }
          to {
            stroke: black;
            stroke-width: 1024;
          }
        }
        #make-me-a-hanzi-animation-1 {
          animation: keyframes1 0.7464192708333334s both;
          animation-delay: 0.6829427083333334s;
          animation-timing-function: linear;
        }
      
        @keyframes keyframes2 {
          from {
            stroke: blue;
            stroke-dashoffset: 799;
            stroke-width: 128;
          }
          72% {
            animation-timing-function: step-end;
            stroke: blue;
            stroke-dashoffset: 0;
            stroke-width: 128;
          }
          to {
            stroke: black;
            stroke-width: 1024;
          }
        }
        #make-me-a-hanzi-animation-2 {
          animation: keyframes2 0.9002278645833334s both;
          animation-delay: 1.4293619791666667s;
          animation-timing-function: linear;
        }
      
        @keyframes keyframes3 {
          from {
            stroke: blue;
            stroke-dashoffset: 350;
            stroke-width: 128;
          }
          53% {
            animation-timing-function: step-end;
            stroke: blue;
            stroke-dashoffset: 0;
            stroke-width: 128;
          }
          to {
            stroke: black;
            stroke-width: 1024;
          }
        }
        #make-me-a-hanzi-animation-3 {
          animation: keyframes3 0.5348307291666666s both;
          animation-delay: 2.32958984375s;
          animation-timing-function: linear;
        }
      
        @keyframes keyframes4 {
          from {
            stroke: blue;
            stroke-dashoffset: 357;
            stroke-width: 128;
          }
          54% {
            animation-timing-function: step-end;
            stroke: blue;
            stroke-dashoffset: 0;
            stroke-width: 128;
          }
          to {
            stroke: black;
            stroke-width: 1024;
          }
        }
        #make-me-a-hanzi-animation-4 {
          animation: keyframes4 0.54052734375s both;
          animation-delay: 2.8644205729166665s;
          animation-timing-function: linear;
        }
      
        @keyframes keyframes5 {
          from {
            stroke: blue;
            stroke-dashoffset: 399;
            stroke-width: 128;
          }
          56% {
            animation-timing-function: step-end;
            stroke: blue;
            stroke-dashoffset: 0;
            stroke-width: 128;
          }
          to {
            stroke: black;
            stroke-width: 1024;
          }
        }
        #make-me-a-hanzi-animation-5 {
          animation: keyframes5 0.57470703125s both;
          animation-delay: 3.4049479166666665s;
          animation-timing-function: linear;
        }
      
        @keyframes keyframes6 {
          from {
            stroke: blue;
            stroke-dashoffset: 421;
            stroke-width: 128;
          }
          58% {
            animation-timing-function: step-end;
            stroke: blue;
            stroke-dashoffset: 0;
            stroke-width: 128;
          }
          to {
            stroke: black;
            stroke-width: 1024;
          }
        }
        #make-me-a-hanzi-animation-6 {
          animation: keyframes6 0.5926106770833334s both;
          animation-delay: 3.9796549479166665s;
          animation-timing-function: linear;
        }
      
        @keyframes keyframes7 {
          from {
            stroke: blue;
            stroke-dashoffset: 722;
            stroke-width: 128;
          }
          70% {
            animation-timing-function: step-end;
            stroke: blue;
            stroke-dashoffset: 0;
            stroke-width: 128;
          }
          to {
            stroke: black;
            stroke-width: 1024;
          }
        }
        #make-me-a-hanzi-animation-7 {
          animation: keyframes7 0.8375651041666666s both;
          animation-delay: 4.572265625s;
          animation-timing-function: linear;
        }
      
        @keyframes keyframes8 {
          from {
            stroke: blue;
            stroke-dashoffset: 474;
            stroke-width: 128;
          }
          61% {
            animation-timing-function: step-end;
            stroke: blue;
            stroke-dashoffset: 0;
            stroke-width: 128;
          }
          to {
            stroke: black;
            stroke-width: 1024;
          }
        }
        #make-me-a-hanzi-animation-8 {
          animation: keyframes8 0.6357421875s both;
          animation-delay: 5.409830729166667s;
          animation-timing-function: linear;
        }
      
        @keyframes keyframes9 {
          from {
            stroke: blue;
            stroke-dashoffset: 651;
            stroke-width: 128;
          }
          68% {
            animation-timing-function: step-end;
            stroke: blue;
            stroke-dashoffset: 0;
            stroke-width: 128;
          }
          to {
            stroke: black;
            stroke-width: 1024;
          }
        }
        #make-me-a-hanzi-animation-9 {
          animation: keyframes9 0.77978515625s both;
          animation-delay: 6.045572916666667s;
          animation-timing-function: linear;
        }
      
        @keyframes keyframes10 {
          from {
            stroke: blue;
            stroke-dashoffset: 653;
            stroke-width: 128;
          }
          68% {
            animation-timing-function: step-end;
            stroke: blue;
            stroke-dashoffset: 0;
            stroke-width: 128;
          }
          to {
            stroke: black;
            stroke-width: 1024;
          }
        }
        #make-me-a-hanzi-animation-10 {
          animation: keyframes10 0.7814127604166666s both;
          animation-delay: 6.825358072916667s;
          animation-timing-function: linear;
        }
      
        @keyframes keyframes11 {
          from {
            stroke: blue;
            stroke-dashoffset: 957;
            stroke-width: 128;
          }
          76% {
            animation-timing-function: step-end;
            stroke: blue;
            stroke-dashoffset: 0;
            stroke-width: 128;
          }
          to {
            stroke: black;
            stroke-width: 1024;
          }
        }
        #make-me-a-hanzi-animation-11 {
          animation: keyframes11 1.02880859375s both;
          animation-delay: 7.606770833333334s;
          animation-timing-function: linear;
        }
      
    </style>
    
      <path d="M 179 534 Q 263 676 310 736 Q 326 748 318 756 Q 306 769 282 781 Q 257 791 234 786 Q 221 780 228 762 Q 235 749 232 731 Q 210 653 155 529 Q 154 528 154 527 C 142 500 164 508 179 534 Z" fill="lightgray"></path>
    
      <path d="M 127 521 Q 111 531 93 536 Q 86 537 81 530 Q 78 526 85 517 Q 127 418 103 262 Q 91 244 100 214 Q 109 189 119 178 Q 129 168 136 179 Q 143 188 146 202 L 151 239 Q 151 266 149 344 L 147 380 Q 144 471 145 495 C 145 511 145 511 127 521 Z" fill="lightgray"></path>
    
      <path d="M 224 216 Q 234 197 262 152 Q 269 139 278 141 Q 291 144 296 165 Q 321 237 316 328 Q 317 386 315 452 Q 316 489 332 512 Q 344 528 334 537 Q 318 552 281 565 Q 266 572 243 562 Q 215 547 184 536 Q 180 535 179 534 L 154 527 Q 141 526 127 521 C 98 513 117 485 145 495 Q 152 499 241 523 Q 251 526 256 522 Q 289 474 265 250 Q 264 229 256 226 Q 255 225 252 226 C 230 205 218 227 224 216 Z" fill="lightgray"></path>
    
      <path d="M 149 344 Q 198 357 235 366 Q 257 373 246 385 Q 233 398 208 398 Q 184 398 147 380 C 120 367 120 336 149 344 Z" fill="lightgray"></path>
    
      <path d="M 146 202 Q 152 209 224 216 C 250 219 250 219 252 226 Q 253 227 253 229 Q 253 236 223 253 Q 208 260 151 239 C 123 229 121 186 146 202 Z" fill="lightgray"></path>
    
      <path d="M 558 777 Q 586 753 617 725 Q 632 712 649 713 Q 659 714 665 728 Q 669 744 659 775 Q 647 806 551 827 Q 535 830 528 827 Q 522 823 525 809 Q 529 799 558 777 Z" fill="lightgray"></path>
    
      <path d="M 447 623 Q 435 651 409 666 Q 405 670 400 666 Q 396 662 395 650 Q 402 622 377 559 Q 367 541 370 523 Q 374 504 385 489 Q 394 479 398 487 Q 405 488 412 505 Q 416 511 423 537 Q 436 580 443 596 Q 443 597 444 599 C 450 616 450 616 447 623 Z" fill="lightgray"></path>
    
      <path d="M 444 599 Q 465 587 504 595 Q 577 626 715 646 Q 739 649 750 649 Q 763 640 762 634 Q 750 595 736 554 L 737 553 Q 744 549 758 560 Q 806 594 845 605 Q 878 617 877 624 Q 876 633 810 678 Q 789 693 725 677 Q 665 668 517 636 Q 483 629 447 623 C 417 618 416 609 444 599 Z" fill="lightgray"></path>
    
      <path d="M 486 487 Q 453 480 478 465 Q 517 447 568 461 Q 619 474 673 488 Q 697 495 701 498 Q 708 505 704 513 Q 697 523 669 529 Q 641 533 615 520 Q 587 510 558 501 Q 525 492 486 487 Z" fill="lightgray"></path>
    
      <path d="M 505 330 Q 548 342 603 351 L 648 360 Q 718 372 790 386 Q 790 389 793 391 Q 794 401 773 411 Q 739 432 652 403 Q 631 399 609 392 Q 585 386 400 355 Q 372 351 394 335 Q 424 314 461 321 Q 465 322 473 323 L 505 330 Z" fill="lightgray"></path>
    
      <path d="M 473 323 Q 473 322 474 320 Q 474 184 273 40 Q 266 34 271 31 Q 295 22 381 76 Q 456 121 517 242 Q 527 261 541 279 Q 550 288 545 297 Q 541 307 514 325 Q 510 328 505 330 C 479 345 471 349 473 323 Z" fill="lightgray"></path>
    
      <path d="M 603 351 L 604 349 Q 616 310 613 273 Q 600 74 636 36 Q 657 20 695 7 Q 839 -32 946 41 Q 965 56 953 82 Q 941 107 924 184 Q 924 200 917 206 Q 911 210 906 191 Q 875 109 856 84 Q 846 72 816 64 Q 747 49 690 68 Q 668 78 663 92 Q 636 143 669 321 Q 673 343 648 360 C 627 381 595 380 603 351 Z" fill="lightgray"></path>
    
    
      <clipPath id="make-me-a-hanzi-clip-0">
        <path d="M 179 534 Q 263 676 310 736 Q 326 748 318 756 Q 306 769 282 781 Q 257 791 234 786 Q 221 780 228 762 Q 235 749 232 731 Q 210 653 155 529 Q 154 528 154 527 C 142 500 164 508 179 534 Z"></path>
      </clipPath>
      <path clip-path="url(#make-me-a-hanzi-clip-0)" d="M 241 771 L 266 752 L 267 735 L 176 547 L 160 537" fill="none" id="make-me-a-hanzi-animation-0" stroke-dasharray="404 808" stroke-linecap="round"></path>
    
      <clipPath id="make-me-a-hanzi-clip-1">
        <path d="M 127 521 Q 111 531 93 536 Q 86 537 81 530 Q 78 526 85 517 Q 127 418 103 262 Q 91 244 100 214 Q 109 189 119 178 Q 129 168 136 179 Q 143 188 146 202 L 151 239 Q 151 266 149 344 L 147 380 Q 144 471 145 495 C 145 511 145 511 127 521 Z"></path>
      </clipPath>
      <path clip-path="url(#make-me-a-hanzi-clip-1)" d="M 91 526 L 114 502 L 123 473 L 131 390 L 123 236 L 127 183" fill="none" id="make-me-a-hanzi-animation-1" stroke-dasharray="482 964" stroke-linecap="round"></path>
    
      <clipPath id="make-me-a-hanzi-clip-2">
        <path d="M 224 216 Q 234 197 262 152 Q 269 139 278 141 Q 291 144 296 165 Q 321 237 316 328 Q 317 386 315 452 Q 316 489 332 512 Q 344 528 334 537 Q 318 552 281 565 Q 266 572 243 562 Q 215 547 184 536 Q 180 535 179 534 L 154 527 Q 141 526 127 521 C 98 513 117 485 145 495 Q 152 499 241 523 Q 251 526 256 522 Q 289 474 265 250 Q 264 229 256 226 Q 255 225 252 226 C 230 205 218 227 224 216 Z"></path>
      </clipPath>
      <path clip-path="url(#make-me-a-hanzi-clip-2)" d="M 136 517 L 157 513 L 233 539 L 266 544 L 292 526 L 296 516 L 295 319 L 290 245 L 284 218 L 272 198 L 276 155" fill="none" id="make-me-a-hanzi-animation-2" stroke-dasharray="671 1342" stroke-linecap="round"></path>
    
      <clipPath id="make-me-a-hanzi-clip-3">
        <path d="M 149 344 Q 198 357 235 366 Q 257 373 246 385 Q 233 398 208 398 Q 184 398 147 380 C 120 367 120 336 149 344 Z"></path>
      </clipPath>
      <path clip-path="url(#make-me-a-hanzi-clip-3)" d="M 156 350 L 162 363 L 179 373 L 203 379 L 238 377" fill="none" id="make-me-a-hanzi-animation-3" stroke-dasharray="222 444" stroke-linecap="round"></path>
    
      <clipPath id="make-me-a-hanzi-clip-4">
        <path d="M 146 202 Q 152 209 224 216 C 250 219 250 219 252 226 Q 253 227 253 229 Q 253 236 223 253 Q 208 260 151 239 C 123 229 121 186 146 202 Z"></path>
      </clipPath>
      <path clip-path="url(#make-me-a-hanzi-clip-4)" d="M 155 211 L 168 228 L 201 234 L 247 229" fill="none" id="make-me-a-hanzi-animation-4" stroke-dasharray="229 458" stroke-linecap="round"></path>
    
      <clipPath id="make-me-a-hanzi-clip-5">
        <path d="M 558 777 Q 586 753 617 725 Q 632 712 649 713 Q 659 714 665 728 Q 669 744 659 775 Q 647 806 551 827 Q 535 830 528 827 Q 522 823 525 809 Q 529 799 558 777 Z"></path>
      </clipPath>
      <path clip-path="url(#make-me-a-hanzi-clip-5)" d="M 534 819 L 623 766 L 645 733" fill="none" id="make-me-a-hanzi-animation-5" stroke-dasharray="271 542" stroke-linecap="round"></path>
    
      <clipPath id="make-me-a-hanzi-clip-6">
        <path d="M 447 623 Q 435 651 409 666 Q 405 670 400 666 Q 396 662 395 650 Q 402 622 377 559 Q 367 541 370 523 Q 374 504 385 489 Q 394 479 398 487 Q 405 488 412 505 Q 416 511 423 537 Q 436 580 443 596 Q 443 597 444 599 C 450 616 450 616 447 623 Z"></path>
      </clipPath>
      <path clip-path="url(#make-me-a-hanzi-clip-6)" d="M 405 660 L 420 617 L 396 536 L 393 501" fill="none" id="make-me-a-hanzi-animation-6" stroke-dasharray="293 586" stroke-linecap="round"></path>
    
      <clipPath id="make-me-a-hanzi-clip-7">
        <path d="M 444 599 Q 465 587 504 595 Q 577 626 715 646 Q 739 649 750 649 Q 763 640 762 634 Q 750 595 736 554 L 737 553 Q 744 549 758 560 Q 806 594 845 605 Q 878 617 877 624 Q 876 633 810 678 Q 789 693 725 677 Q 665 668 517 636 Q 483 629 447 623 C 417 618 416 609 444 599 Z"></path>
      </clipPath>
      <path clip-path="url(#make-me-a-hanzi-clip-7)" d="M 453 604 L 605 642 L 757 667 L 783 657 L 803 633 L 742 559" fill="none" id="make-me-a-hanzi-animation-7" stroke-dasharray="594 1188" stroke-linecap="round"></path>
    
      <clipPath id="make-me-a-hanzi-clip-8">
        <path d="M 486 487 Q 453 480 478 465 Q 517 447 568 461 Q 619 474 673 488 Q 697 495 701 498 Q 708 505 704 513 Q 697 523 669 529 Q 641 533 615 520 Q 587 510 558 501 Q 525 492 486 487 Z"></path>
      </clipPath>
      <path clip-path="url(#make-me-a-hanzi-clip-8)" d="M 479 477 L 527 474 L 650 507 L 693 507" fill="none" id="make-me-a-hanzi-animation-8" stroke-dasharray="346 692" stroke-linecap="round"></path>
    
      <clipPath id="make-me-a-hanzi-clip-9">
        <path d="M 505 330 Q 548 342 603 351 L 648 360 Q 718 372 790 386 Q 790 389 793 391 Q 794 401 773 411 Q 739 432 652 403 Q 631 399 609 392 Q 585 386 400 355 Q 372 351 394 335 Q 424 314 461 321 Q 465 322 473 323 L 505 330 Z"></path>
      </clipPath>
      <path clip-path="url(#make-me-a-hanzi-clip-9)" d="M 395 346 L 451 341 L 705 394 L 744 399 L 784 393" fill="none" id="make-me-a-hanzi-animation-9" stroke-dasharray="523 1046" stroke-linecap="round"></path>
    
      <clipPath id="make-me-a-hanzi-clip-10">
        <path d="M 473 323 Q 473 322 474 320 Q 474 184 273 40 Q 266 34 271 31 Q 295 22 381 76 Q 456 121 517 242 Q 527 261 541 279 Q 550 288 545 297 Q 541 307 514 325 Q 510 328 505 330 C 479 345 471 349 473 323 Z"></path>
      </clipPath>
      <path clip-path="url(#make-me-a-hanzi-clip-10)" d="M 479 323 L 506 289 L 473 214 L 447 173 L 385 104 L 313 52 L 275 35" fill="none" id="make-me-a-hanzi-animation-10" stroke-dasharray="525 1050" stroke-linecap="round"></path>
    
      <clipPath id="make-me-a-hanzi-clip-11">
        <path d="M 603 351 L 604 349 Q 616 310 613 273 Q 600 74 636 36 Q 657 20 695 7 Q 839 -32 946 41 Q 965 56 953 82 Q 941 107 924 184 Q 924 200 917 206 Q 911 210 906 191 Q 875 109 856 84 Q 846 72 816 64 Q 747 49 690 68 Q 668 78 663 92 Q 636 143 669 321 Q 673 343 648 360 C 627 381 595 380 603 351 Z"></path>
      </clipPath>
      <path clip-path="url(#make-me-a-hanzi-clip-11)" d="M 614 343 L 640 327 L 629 168 L 635 102 L 653 59 L 673 45 L 727 29 L 790 26 L 845 35 L 882 52 L 905 72 L 916 199" fill="none" id="make-me-a-hanzi-animation-11" stroke-dasharray="829 1658" stroke-linecap="round"></path>
    
  </g>
</svg>