<svg version="1.1" viewBox="0 0 1024 1024" xmlns="http://www.w3.org/2000/svg">
  <g stroke="lightgray" stroke-dasharray="1,1" stroke-width="1" transform="scale(4, 4)">
    <line x1="0" y1="0" x2="256" y2="256"></line>
    <line x1="256" y1="0" x2="0" y2="256"></line>
    <line x1="128" y1="0" x2="128" y2="256"></line>
    <line x1="0" y1="128" x2="256" y2="128"></line>
  </g>
  <g transform="scale(1, -1) translate(0, -900)">
    <style type="text/css">
      
        @keyframes keyframes0 {
          from {
            stroke: blue;
            stroke-dashoffset: 534;
            stroke-width: 128;
          }
          63% {
            animation-timing-function: step-end;
            stroke: blue;
            stroke-dashoffset: 0;
            stroke-width: 128;
          }
          to {
            stroke: black;
            stroke-width: 1024;
          }
        }
        #make-me-a-hanzi-animation-0 {
          animation: keyframes0 0.6845703125s both;
          animation-delay: 0s;
          animation-timing-function: linear;
        }
      
        @keyframes keyframes1 {
          from {
            stroke: blue;
            stroke-dashoffset: 658;
            stroke-width: 128;
          }
          68% {
            animation-timing-function: step-end;
            stroke: blue;
            stroke-dashoffset: 0;
            stroke-width: 128;
          }
          to {
            stroke: black;
            stroke-width: 1024;
          }
        }
        #make-me-a-hanzi-animation-1 {
          animation: keyframes1 0.7854817708333334s both;
          animation-delay: 0.6845703125s;
          animation-timing-function: linear;
        }
      
        @keyframes keyframes2 {
          from {
            stroke: blue;
            stroke-dashoffset: 791;
            stroke-width: 128;
          }
          72% {
            animation-timing-function: step-end;
            stroke: blue;
            stroke-dashoffset: 0;
            stroke-width: 128;
          }
          to {
            stroke: black;
            stroke-width: 1024;
          }
        }
        #make-me-a-hanzi-animation-2 {
          animation: keyframes2 0.8937174479166666s both;
          animation-delay: 1.4700520833333335s;
          animation-timing-function: linear;
        }
      
        @keyframes keyframes3 {
          from {
            stroke: blue;
            stroke-dashoffset: 331;
            stroke-width: 128;
          }
          52% {
            animation-timing-function: step-end;
            stroke: blue;
            stroke-dashoffset: 0;
            stroke-width: 128;
          }
          to {
            stroke: black;
            stroke-width: 1024;
          }
        }
        #make-me-a-hanzi-animation-3 {
          animation: keyframes3 0.5193684895833334s both;
          animation-delay: 2.36376953125s;
          animation-timing-function: linear;
        }
      
        @keyframes keyframes4 {
          from {
            stroke: blue;
            stroke-dashoffset: 352;
            stroke-width: 128;
          }
          53% {
            animation-timing-function: step-end;
            stroke: blue;
            stroke-dashoffset: 0;
            stroke-width: 128;
          }
          to {
            stroke: black;
            stroke-width: 1024;
          }
        }
        #make-me-a-hanzi-animation-4 {
          animation: keyframes4 0.5364583333333334s both;
          animation-delay: 2.8831380208333335s;
          animation-timing-function: linear;
        }
      
        @keyframes keyframes5 {
          from {
            stroke: blue;
            stroke-dashoffset: 453;
            stroke-width: 128;
          }
          60% {
            animation-timing-function: step-end;
            stroke: blue;
            stroke-dashoffset: 0;
            stroke-width: 128;
          }
          to {
            stroke: black;
            stroke-width: 1024;
          }
        }
        #make-me-a-hanzi-animation-5 {
          animation: keyframes5 0.61865234375s both;
          animation-delay: 3.419596354166667s;
          animation-timing-function: linear;
        }
      
        @keyframes keyframes6 {
          from {
            stroke: blue;
            stroke-dashoffset: 479;
            stroke-width: 128;
          }
          61% {
            animation-timing-function: step-end;
            stroke: blue;
            stroke-dashoffset: 0;
            stroke-width: 128;
          }
          to {
            stroke: black;
            stroke-width: 1024;
          }
        }
        #make-me-a-hanzi-animation-6 {
          animation: keyframes6 0.6398111979166666s both;
          animation-delay: 4.038248697916667s;
          animation-timing-function: linear;
        }
      
        @keyframes keyframes7 {
          from {
            stroke: blue;
            stroke-dashoffset: 678;
            stroke-width: 128;
          }
          69% {
            animation-timing-function: step-end;
            stroke: blue;
            stroke-dashoffset: 0;
            stroke-width: 128;
          }
          to {
            stroke: black;
            stroke-width: 1024;
          }
        }
        #make-me-a-hanzi-animation-7 {
          animation: keyframes7 0.8017578125s both;
          animation-delay: 4.678059895833334s;
          animation-timing-function: linear;
        }
      
        @keyframes keyframes8 {
          from {
            stroke: blue;
            stroke-dashoffset: 357;
            stroke-width: 128;
          }
          54% {
            animation-timing-function: step-end;
            stroke: blue;
            stroke-dashoffset: 0;
            stroke-width: 128;
          }
          to {
            stroke: black;
            stroke-width: 1024;
          }
        }
        #make-me-a-hanzi-animation-8 {
          animation: keyframes8 0.54052734375s both;
          animation-delay: 5.479817708333334s;
          animation-timing-function: linear;
        }
      
        @keyframes keyframes9 {
          from {
            stroke: blue;
            stroke-dashoffset: 346;
            stroke-width: 128;
          }
          53% {
            animation-timing-function: step-end;
            stroke: blue;
            stroke-dashoffset: 0;
            stroke-width: 128;
          }
          to {
            stroke: black;
            stroke-width: 1024;
          }
        }
        #make-me-a-hanzi-animation-9 {
          animation: keyframes9 0.5315755208333334s both;
          animation-delay: 6.020345052083334s;
          animation-timing-function: linear;
        }
      
        @keyframes keyframes10 {
          from {
            stroke: blue;
            stroke-dashoffset: 338;
            stroke-width: 128;
          }
          52% {
            animation-timing-function: step-end;
            stroke: blue;
            stroke-dashoffset: 0;
            stroke-width: 128;
          }
          to {
            stroke: black;
            stroke-width: 1024;
          }
        }
        #make-me-a-hanzi-animation-10 {
          animation: keyframes10 0.5250651041666666s both;
          animation-delay: 6.551920572916667s;
          animation-timing-function: linear;
        }
      
        @keyframes keyframes11 {
          from {
            stroke: blue;
            stroke-dashoffset: 507;
            stroke-width: 128;
          }
          62% {
            animation-timing-function: step-end;
            stroke: blue;
            stroke-dashoffset: 0;
            stroke-width: 128;
          }
          to {
            stroke: black;
            stroke-width: 1024;
          }
        }
        #make-me-a-hanzi-animation-11 {
          animation: keyframes11 0.66259765625s both;
          animation-delay: 7.076985677083334s;
          animation-timing-function: linear;
        }
      
        @keyframes keyframes12 {
          from {
            stroke: blue;
            stroke-dashoffset: 668;
            stroke-width: 128;
          }
          68% {
            animation-timing-function: step-end;
            stroke: blue;
            stroke-dashoffset: 0;
            stroke-width: 128;
          }
          to {
            stroke: black;
            stroke-width: 1024;
          }
        }
        #make-me-a-hanzi-animation-12 {
          animation: keyframes12 0.7936197916666666s both;
          animation-delay: 7.739583333333334s;
          animation-timing-function: linear;
        }
      
        @keyframes keyframes13 {
          from {
            stroke: blue;
            stroke-dashoffset: 556;
            stroke-width: 128;
          }
          64% {
            animation-timing-function: step-end;
            stroke: blue;
            stroke-dashoffset: 0;
            stroke-width: 128;
          }
          to {
            stroke: black;
            stroke-width: 1024;
          }
        }
        #make-me-a-hanzi-animation-13 {
          animation: keyframes13 0.7024739583333334s both;
          animation-delay: 8.533203125s;
          animation-timing-function: linear;
        }
      
        @keyframes keyframes14 {
          from {
            stroke: blue;
            stroke-dashoffset: 680;
            stroke-width: 128;
          }
          69% {
            animation-timing-function: step-end;
            stroke: blue;
            stroke-dashoffset: 0;
            stroke-width: 128;
          }
          to {
            stroke: black;
            stroke-width: 1024;
          }
        }
        #make-me-a-hanzi-animation-14 {
          animation: keyframes14 0.8033854166666666s both;
          animation-delay: 9.235677083333334s;
          animation-timing-function: linear;
        }
      
        @keyframes keyframes15 {
          from {
            stroke: blue;
            stroke-dashoffset: 489;
            stroke-width: 128;
          }
          61% {
            animation-timing-function: step-end;
            stroke: blue;
            stroke-dashoffset: 0;
            stroke-width: 128;
          }
          to {
            stroke: black;
            stroke-width: 1024;
          }
        }
        #make-me-a-hanzi-animation-15 {
          animation: keyframes15 0.64794921875s both;
          animation-delay: 10.0390625s;
          animation-timing-function: linear;
        }
      
        @keyframes keyframes16 {
          from {
            stroke: blue;
            stroke-dashoffset: 749;
            stroke-width: 128;
          }
          71% {
            animation-timing-function: step-end;
            stroke: blue;
            stroke-dashoffset: 0;
            stroke-width: 128;
          }
          to {
            stroke: black;
            stroke-width: 1024;
          }
        }
        #make-me-a-hanzi-animation-16 {
          animation: keyframes16 0.8595377604166666s both;
          animation-delay: 10.68701171875s;
          animation-timing-function: linear;
        }
      
        @keyframes keyframes17 {
          from {
            stroke: blue;
            stroke-dashoffset: 747;
            stroke-width: 128;
          }
          71% {
            animation-timing-function: step-end;
            stroke: blue;
            stroke-dashoffset: 0;
            stroke-width: 128;
          }
          to {
            stroke: black;
            stroke-width: 1024;
          }
        }
        #make-me-a-hanzi-animation-17 {
          animation: keyframes17 0.85791015625s both;
          animation-delay: 11.546549479166666s;
          animation-timing-function: linear;
        }
      
    </style>
    
      <path d="M 167 507 Q 249 673 276 703 Q 279 709 286 715 Q 301 733 284 744 Q 265 754 237 757 Q 209 758 200 752 Q 188 745 198 735 Q 213 710 170 574 Q 157 540 145 500 C 136 471 154 480 167 507 Z" fill="lightgray"></path>
    
      <path d="M 141 499 Q 135 508 104 520 Q 95 524 86 520 Q 79 516 85 505 Q 86 498 91 489 Q 118 449 107 239 Q 92 160 116 124 Q 119 121 123 116 Q 133 106 142 116 Q 151 131 151 152 L 152 185 Q 152 225 149 325 L 148 354 Q 148 423 147 475 L 141 499 Z" fill="lightgray"></path>
    
      <path d="M 237 163 Q 247 145 260 127 Q 273 105 281 108 Q 290 109 301 135 Q 313 163 310 198 Q 300 448 320 489 Q 330 505 322 514 Q 315 523 272 536 Q 250 543 235 534 Q 199 518 167 507 L 145 500 Q 141 500 141 499 C 112 490 118 466 147 475 Q 180 485 214 496 Q 242 506 254 496 Q 264 486 264 448 Q 265 289 259 202 Q 260 186 251 183 C 238 161 236 165 237 163 Z" fill="lightgray"></path>
    
      <path d="M 149 325 Q 189 332 221 335 Q 240 339 233 350 Q 223 362 203 364 Q 184 365 149 355 Q 148 355 148 354 C 122 339 119 320 149 325 Z" fill="lightgray"></path>
    
      <path d="M 151 152 Q 178 159 237 163 C 267 165 270 165 251 183 Q 244 190 229 197 Q 219 203 152 185 C 123 177 122 145 151 152 Z" fill="lightgray"></path>
    
      <path d="M 385 612 Q 416 648 433 672 Q 476 735 495 751 Q 511 766 497 778 Q 481 788 454 795 Q 429 799 420 794 Q 410 790 416 779 Q 428 752 365 613 C 353 586 365 589 385 612 Z" fill="lightgray"></path>
    
      <path d="M 365 613 Q 356 617 336 619 Q 327 622 324 617 Q 320 613 326 600 Q 354 543 371 451 Q 375 423 391 405 Q 406 389 409 400 Q 410 407 411 416 L 411 439 Q 408 466 398 500 L 394 520 Q 384 563 382 582 C 379 608 379 608 365 613 Z" fill="lightgray"></path>
    
      <path d="M 505 434 Q 517 416 529 410 Q 538 404 550 422 Q 563 443 588 557 Q 595 582 613 602 Q 623 612 614 623 Q 601 636 566 657 Q 560 660 385 612 C 356 604 337 561 382 582 Q 409 597 516 623 Q 529 626 537 621 Q 550 612 546 595 Q 527 487 518 471 Q 514 464 506 459 C 494 448 494 448 505 434 Z" fill="lightgray"></path>
    
      <path d="M 398 500 Q 404 503 489 528 Q 505 534 498 543 Q 488 552 468 552 Q 435 551 394 520 C 370 502 370 489 398 500 Z" fill="lightgray"></path>
    
      <path d="M 411 416 Q 412 417 414 416 Q 421 415 431 418 Q 453 425 505 434 C 531 438 529 440 506 459 Q 505 460 501 463 Q 488 467 467 460 Q 436 447 411 439 C 382 430 381 417 411 416 Z" fill="lightgray"></path>
    
      <path d="M 503 328 Q 506 337 505 353 Q 504 371 450 399 Q 440 403 436 402 Q 432 401 432 392 Q 432 389 473 330 Q 477 326 481 321 C 496 303 496 303 503 328 Z" fill="lightgray"></path>
    
      <path d="M 447 277 Q 498 295 573 306 Q 580 306 587 316 Q 587 325 569 331 Q 550 343 524 336 Q 512 332 503 328 L 481 321 Q 469 320 461 315 Q 446 312 337 286 Q 316 282 334 270 Q 355 257 393 263 Q 399 266 409 267 L 447 277 Z" fill="lightgray"></path>
    
      <path d="M 451 225 Q 461 221 494 219 Q 512 216 519 207 Q 532 189 493 89 Q 474 44 454 36 Q 441 35 417 44 Q 390 57 386 54 Q 382 47 395 38 Q 419 14 429 -17 Q 432 -30 440 -35 Q 450 -39 476 -24 Q 518 10 547 121 Q 562 176 577 191 Q 584 195 586 202 Q 587 209 569 226 Q 545 250 493 244 Q 484 245 468 246 C 438 248 422 232 451 225 Z" fill="lightgray"></path>
    
      <path d="M 468 246 Q 469 250 469 253 Q 466 268 447 277 C 421 292 411 297 409 267 Q 409 186 253 44 Q 247 41 254 39 Q 290 39 380 127 Q 381 130 384 132 Q 409 163 451 225 L 468 246 Z" fill="lightgray"></path>
    
      <path d="M 675 479 Q 741 611 756 651 Q 769 691 784 712 Q 791 724 783 735 Q 777 747 747 762 Q 719 774 702 770 Q 686 764 697 746 Q 713 724 708 702 Q 695 626 666 553 Q 638 483 596 401 Q 589 391 588 384 Q 587 374 600 378 Q 621 387 662 457 L 675 479 Z" fill="lightgray"></path>
    
      <path d="M 781 463 Q 898 499 901 502 Q 908 509 904 518 Q 897 528 869 532 Q 841 535 815 522 Q 784 509 751 498 Q 715 488 675 479 C 646 472 634 469 662 457 Q 695 441 742 452 L 781 463 Z" fill="lightgray"></path>
    
      <path d="M 751 206 Q 781 269 790 314 Q 806 396 819 421 Q 828 437 813 445 Q 798 457 785 462 Q 784 463 781 463 C 753 475 731 480 742 452 Q 770 400 720 243 L 700 202 Q 651 127 560 66 Q 548 57 559 55 Q 634 55 723 158 Q 723 159 725 161 L 751 206 Z" fill="lightgray"></path>
    
      <path d="M 725 161 Q 762 100 799 47 Q 811 28 834 26 Q 958 25 970 34 Q 974 40 966 44 Q 828 116 755 201 Q 752 204 751 206 L 720 243 Q 689 283 655 331 Q 646 347 632 349 Q 610 353 604 346 Q 600 342 607 336 Q 635 315 652 284 Q 676 241 700 202 L 725 161 Z" fill="lightgray"></path>
    
    
      <clipPath id="make-me-a-hanzi-clip-0">
        <path d="M 167 507 Q 249 673 276 703 Q 279 709 286 715 Q 301 733 284 744 Q 265 754 237 757 Q 209 758 200 752 Q 188 745 198 735 Q 213 710 170 574 Q 157 540 145 500 C 136 471 154 480 167 507 Z"></path>
      </clipPath>
      <path clip-path="url(#make-me-a-hanzi-clip-0)" d="M 203 743 L 217 739 L 240 718 L 174 543 L 159 513 L 149 507" fill="none" id="make-me-a-hanzi-animation-0" stroke-dasharray="406 812" stroke-linecap="round"></path>
    
      <clipPath id="make-me-a-hanzi-clip-1">
        <path d="M 141 499 Q 135 508 104 520 Q 95 524 86 520 Q 79 516 85 505 Q 86 498 91 489 Q 118 449 107 239 Q 92 160 116 124 Q 119 121 123 116 Q 133 106 142 116 Q 151 131 151 152 L 152 185 Q 152 225 149 325 L 148 354 Q 148 423 147 475 L 141 499 Z"></path>
      </clipPath>
      <path clip-path="url(#make-me-a-hanzi-clip-1)" d="M 92 512 L 120 486 L 126 455 L 131 293 L 126 179 L 133 123" fill="none" id="make-me-a-hanzi-animation-1" stroke-dasharray="530 1060" stroke-linecap="round"></path>
    
      <clipPath id="make-me-a-hanzi-clip-2">
        <path d="M 237 163 Q 247 145 260 127 Q 273 105 281 108 Q 290 109 301 135 Q 313 163 310 198 Q 300 448 320 489 Q 330 505 322 514 Q 315 523 272 536 Q 250 543 235 534 Q 199 518 167 507 L 145 500 Q 141 500 141 499 C 112 490 118 466 147 475 Q 180 485 214 496 Q 242 506 254 496 Q 264 486 264 448 Q 265 289 259 202 Q 260 186 251 183 C 238 161 236 165 237 163 Z"></path>
      </clipPath>
      <path clip-path="url(#make-me-a-hanzi-clip-2)" d="M 145 494 L 156 491 L 247 519 L 274 511 L 289 497 L 286 210 L 276 161 L 279 118" fill="none" id="make-me-a-hanzi-animation-2" stroke-dasharray="663 1326" stroke-linecap="round"></path>
    
      <clipPath id="make-me-a-hanzi-clip-3">
        <path d="M 149 325 Q 189 332 221 335 Q 240 339 233 350 Q 223 362 203 364 Q 184 365 149 355 Q 148 355 148 354 C 122 339 119 320 149 325 Z"></path>
      </clipPath>
      <path clip-path="url(#make-me-a-hanzi-clip-3)" d="M 156 332 L 164 344 L 206 349 L 224 345" fill="none" id="make-me-a-hanzi-animation-3" stroke-dasharray="203 406" stroke-linecap="round"></path>
    
      <clipPath id="make-me-a-hanzi-clip-4">
        <path d="M 151 152 Q 178 159 237 163 C 267 165 270 165 251 183 Q 244 190 229 197 Q 219 203 152 185 C 123 177 122 145 151 152 Z"></path>
      </clipPath>
      <path clip-path="url(#make-me-a-hanzi-clip-4)" d="M 155 157 L 170 174 L 243 181" fill="none" id="make-me-a-hanzi-animation-4" stroke-dasharray="224 448" stroke-linecap="round"></path>
    
      <clipPath id="make-me-a-hanzi-clip-5">
        <path d="M 385 612 Q 416 648 433 672 Q 476 735 495 751 Q 511 766 497 778 Q 481 788 454 795 Q 429 799 420 794 Q 410 790 416 779 Q 428 752 365 613 C 353 586 365 589 385 612 Z"></path>
      </clipPath>
      <path clip-path="url(#make-me-a-hanzi-clip-5)" d="M 427 784 L 452 755 L 401 654 L 381 625 L 371 625" fill="none" id="make-me-a-hanzi-animation-5" stroke-dasharray="325 650" stroke-linecap="round"></path>
    
      <clipPath id="make-me-a-hanzi-clip-6">
        <path d="M 365 613 Q 356 617 336 619 Q 327 622 324 617 Q 320 613 326 600 Q 354 543 371 451 Q 375 423 391 405 Q 406 389 409 400 Q 410 407 411 416 L 411 439 Q 408 466 398 500 L 394 520 Q 384 563 382 582 C 379 608 379 608 365 613 Z"></path>
      </clipPath>
      <path clip-path="url(#make-me-a-hanzi-clip-6)" d="M 331 612 L 351 596 L 361 574 L 401 405" fill="none" id="make-me-a-hanzi-animation-6" stroke-dasharray="351 702" stroke-linecap="round"></path>
    
      <clipPath id="make-me-a-hanzi-clip-7">
        <path d="M 505 434 Q 517 416 529 410 Q 538 404 550 422 Q 563 443 588 557 Q 595 582 613 602 Q 623 612 614 623 Q 601 636 566 657 Q 560 660 385 612 C 356 604 337 561 382 582 Q 409 597 516 623 Q 529 626 537 621 Q 550 612 546 595 Q 527 487 518 471 Q 514 464 506 459 C 494 448 494 448 505 434 Z"></path>
      </clipPath>
      <path clip-path="url(#make-me-a-hanzi-clip-7)" d="M 370 609 L 389 599 L 401 608 L 412 606 L 452 622 L 460 619 L 527 638 L 562 631 L 573 619 L 578 611 L 549 488 L 531 442 L 534 426" fill="none" id="make-me-a-hanzi-animation-7" stroke-dasharray="550 1100" stroke-linecap="round"></path>
    
      <clipPath id="make-me-a-hanzi-clip-8">
        <path d="M 398 500 Q 404 503 489 528 Q 505 534 498 543 Q 488 552 468 552 Q 435 551 394 520 C 370 502 370 489 398 500 Z"></path>
      </clipPath>
      <path clip-path="url(#make-me-a-hanzi-clip-8)" d="M 398 505 L 407 517 L 433 528 L 490 538" fill="none" id="make-me-a-hanzi-animation-8" stroke-dasharray="229 458" stroke-linecap="round"></path>
    
      <clipPath id="make-me-a-hanzi-clip-9">
        <path d="M 411 416 Q 412 417 414 416 Q 421 415 431 418 Q 453 425 505 434 C 531 438 529 440 506 459 Q 505 460 501 463 Q 488 467 467 460 Q 436 447 411 439 C 382 430 381 417 411 416 Z"></path>
      </clipPath>
      <path clip-path="url(#make-me-a-hanzi-clip-9)" d="M 413 422 L 497 453" fill="none" id="make-me-a-hanzi-animation-9" stroke-dasharray="218 436" stroke-linecap="round"></path>
    
      <clipPath id="make-me-a-hanzi-clip-10">
        <path d="M 503 328 Q 506 337 505 353 Q 504 371 450 399 Q 440 403 436 402 Q 432 401 432 392 Q 432 389 473 330 Q 477 326 481 321 C 496 303 496 303 503 328 Z"></path>
      </clipPath>
      <path clip-path="url(#make-me-a-hanzi-clip-10)" d="M 441 394 L 478 359 L 487 342 L 484 331" fill="none" id="make-me-a-hanzi-animation-10" stroke-dasharray="210 420" stroke-linecap="round"></path>
    
      <clipPath id="make-me-a-hanzi-clip-11">
        <path d="M 447 277 Q 498 295 573 306 Q 580 306 587 316 Q 587 325 569 331 Q 550 343 524 336 Q 512 332 503 328 L 481 321 Q 469 320 461 315 Q 446 312 337 286 Q 316 282 334 270 Q 355 257 393 263 Q 399 266 409 267 L 447 277 Z"></path>
      </clipPath>
      <path clip-path="url(#make-me-a-hanzi-clip-11)" d="M 334 278 L 368 276 L 535 320 L 579 317" fill="none" id="make-me-a-hanzi-animation-11" stroke-dasharray="379 758" stroke-linecap="round"></path>
    
      <clipPath id="make-me-a-hanzi-clip-12">
        <path d="M 451 225 Q 461 221 494 219 Q 512 216 519 207 Q 532 189 493 89 Q 474 44 454 36 Q 441 35 417 44 Q 390 57 386 54 Q 382 47 395 38 Q 419 14 429 -17 Q 432 -30 440 -35 Q 450 -39 476 -24 Q 518 10 547 121 Q 562 176 577 191 Q 584 195 586 202 Q 587 209 569 226 Q 545 250 493 244 Q 484 245 468 246 C 438 248 422 232 451 225 Z"></path>
      </clipPath>
      <path clip-path="url(#make-me-a-hanzi-clip-12)" d="M 457 229 L 474 234 L 520 229 L 550 204 L 514 81 L 487 29 L 457 3 L 389 50" fill="none" id="make-me-a-hanzi-animation-12" stroke-dasharray="540 1080" stroke-linecap="round"></path>
    
      <clipPath id="make-me-a-hanzi-clip-13">
        <path d="M 468 246 Q 469 250 469 253 Q 466 268 447 277 C 421 292 411 297 409 267 Q 409 186 253 44 Q 247 41 254 39 Q 290 39 380 127 Q 381 130 384 132 Q 409 163 451 225 L 468 246 Z"></path>
      </clipPath>
      <path clip-path="url(#make-me-a-hanzi-clip-13)" d="M 417 262 L 434 246 L 395 175 L 345 113 L 292 65 L 273 51 L 262 51 L 258 42" fill="none" id="make-me-a-hanzi-animation-13" stroke-dasharray="428 856" stroke-linecap="round"></path>
    
      <clipPath id="make-me-a-hanzi-clip-14">
        <path d="M 675 479 Q 741 611 756 651 Q 769 691 784 712 Q 791 724 783 735 Q 777 747 747 762 Q 719 774 702 770 Q 686 764 697 746 Q 713 724 708 702 Q 695 626 666 553 Q 638 483 596 401 Q 589 391 588 384 Q 587 374 600 378 Q 621 387 662 457 L 675 479 Z"></path>
      </clipPath>
      <path clip-path="url(#make-me-a-hanzi-clip-14)" d="M 706 757 L 730 742 L 746 720 L 732 668 L 665 497 L 625 423 L 596 386" fill="none" id="make-me-a-hanzi-animation-14" stroke-dasharray="552 1104" stroke-linecap="round"></path>
    
      <clipPath id="make-me-a-hanzi-clip-15">
        <path d="M 781 463 Q 898 499 901 502 Q 908 509 904 518 Q 897 528 869 532 Q 841 535 815 522 Q 784 509 751 498 Q 715 488 675 479 C 646 472 634 469 662 457 Q 695 441 742 452 L 781 463 Z"></path>
      </clipPath>
      <path clip-path="url(#make-me-a-hanzi-clip-15)" d="M 670 460 L 731 470 L 841 507 L 874 513 L 895 510" fill="none" id="make-me-a-hanzi-animation-15" stroke-dasharray="361 722" stroke-linecap="round"></path>
    
      <clipPath id="make-me-a-hanzi-clip-16">
        <path d="M 751 206 Q 781 269 790 314 Q 806 396 819 421 Q 828 437 813 445 Q 798 457 785 462 Q 784 463 781 463 C 753 475 731 480 742 452 Q 770 400 720 243 L 700 202 Q 651 127 560 66 Q 548 57 559 55 Q 634 55 723 158 Q 723 159 725 161 L 751 206 Z"></path>
      </clipPath>
      <path clip-path="url(#make-me-a-hanzi-clip-16)" d="M 749 451 L 779 432 L 784 418 L 763 303 L 742 237 L 701 164 L 663 124 L 607 81 L 565 60" fill="none" id="make-me-a-hanzi-animation-16" stroke-dasharray="621 1242" stroke-linecap="round"></path>
    
      <clipPath id="make-me-a-hanzi-clip-17">
        <path d="M 725 161 Q 762 100 799 47 Q 811 28 834 26 Q 958 25 970 34 Q 974 40 966 44 Q 828 116 755 201 Q 752 204 751 206 L 720 243 Q 689 283 655 331 Q 646 347 632 349 Q 610 353 604 346 Q 600 342 607 336 Q 635 315 652 284 Q 676 241 700 202 L 725 161 Z"></path>
      </clipPath>
      <path clip-path="url(#make-me-a-hanzi-clip-17)" d="M 611 343 L 639 329 L 649 317 L 760 155 L 837 70 L 966 38" fill="none" id="make-me-a-hanzi-animation-17" stroke-dasharray="619 1238" stroke-linecap="round"></path>
    
  </g>
</svg>