<svg version="1.1" viewBox="0 0 1024 1024" xmlns="http://www.w3.org/2000/svg">
  <g stroke="lightgray" stroke-dasharray="1,1" stroke-width="1" transform="scale(4, 4)">
    <line x1="0" y1="0" x2="256" y2="256"></line>
    <line x1="256" y1="0" x2="0" y2="256"></line>
    <line x1="128" y1="0" x2="128" y2="256"></line>
    <line x1="0" y1="128" x2="256" y2="128"></line>
  </g>
  <g transform="scale(1, -1) translate(0, -900)">
    <style type="text/css">
      
        @keyframes keyframes0 {
          from {
            stroke: blue;
            stroke-dashoffset: 524;
            stroke-width: 128;
          }
          63% {
            animation-timing-function: step-end;
            stroke: blue;
            stroke-dashoffset: 0;
            stroke-width: 128;
          }
          to {
            stroke: black;
            stroke-width: 1024;
          }
        }
        #make-me-a-hanzi-animation-0 {
          animation: keyframes0 0.6764322916666666s both;
          animation-delay: 0s;
          animation-timing-function: linear;
        }
      
        @keyframes keyframes1 {
          from {
            stroke: blue;
            stroke-dashoffset: 719;
            stroke-width: 128;
          }
          70% {
            animation-timing-function: step-end;
            stroke: blue;
            stroke-dashoffset: 0;
            stroke-width: 128;
          }
          to {
            stroke: black;
            stroke-width: 1024;
          }
        }
        #make-me-a-hanzi-animation-1 {
          animation: keyframes1 0.8351236979166666s both;
          animation-delay: 0.6764322916666666s;
          animation-timing-function: linear;
        }
      
        @keyframes keyframes2 {
          from {
            stroke: blue;
            stroke-dashoffset: 495;
            stroke-width: 128;
          }
          62% {
            animation-timing-function: step-end;
            stroke: blue;
            stroke-dashoffset: 0;
            stroke-width: 128;
          }
          to {
            stroke: black;
            stroke-width: 1024;
          }
        }
        #make-me-a-hanzi-animation-2 {
          animation: keyframes2 0.65283203125s both;
          animation-delay: 1.5115559895833333s;
          animation-timing-function: linear;
        }
      
        @keyframes keyframes3 {
          from {
            stroke: blue;
            stroke-dashoffset: 538;
            stroke-width: 128;
          }
          64% {
            animation-timing-function: step-end;
            stroke: blue;
            stroke-dashoffset: 0;
            stroke-width: 128;
          }
          to {
            stroke: black;
            stroke-width: 1024;
          }
        }
        #make-me-a-hanzi-animation-3 {
          animation: keyframes3 0.6878255208333334s both;
          animation-delay: 2.164388020833333s;
          animation-timing-function: linear;
        }
      
        @keyframes keyframes4 {
          from {
            stroke: blue;
            stroke-dashoffset: 405;
            stroke-width: 128;
          }
          57% {
            animation-timing-function: step-end;
            stroke: blue;
            stroke-dashoffset: 0;
            stroke-width: 128;
          }
          to {
            stroke: black;
            stroke-width: 1024;
          }
        }
        #make-me-a-hanzi-animation-4 {
          animation: keyframes4 0.57958984375s both;
          animation-delay: 2.8522135416666665s;
          animation-timing-function: linear;
        }
      
        @keyframes keyframes5 {
          from {
            stroke: blue;
            stroke-dashoffset: 364;
            stroke-width: 128;
          }
          54% {
            animation-timing-function: step-end;
            stroke: blue;
            stroke-dashoffset: 0;
            stroke-width: 128;
          }
          to {
            stroke: black;
            stroke-width: 1024;
          }
        }
        #make-me-a-hanzi-animation-5 {
          animation: keyframes5 0.5462239583333334s both;
          animation-delay: 3.4318033854166665s;
          animation-timing-function: linear;
        }
      
        @keyframes keyframes6 {
          from {
            stroke: blue;
            stroke-dashoffset: 352;
            stroke-width: 128;
          }
          53% {
            animation-timing-function: step-end;
            stroke: blue;
            stroke-dashoffset: 0;
            stroke-width: 128;
          }
          to {
            stroke: black;
            stroke-width: 1024;
          }
        }
        #make-me-a-hanzi-animation-6 {
          animation: keyframes6 0.5364583333333334s both;
          animation-delay: 3.97802734375s;
          animation-timing-function: linear;
        }
      
        @keyframes keyframes7 {
          from {
            stroke: blue;
            stroke-dashoffset: 483;
            stroke-width: 128;
          }
          61% {
            animation-timing-function: step-end;
            stroke: blue;
            stroke-dashoffset: 0;
            stroke-width: 128;
          }
          to {
            stroke: black;
            stroke-width: 1024;
          }
        }
        #make-me-a-hanzi-animation-7 {
          animation: keyframes7 0.64306640625s both;
          animation-delay: 4.514485677083333s;
          animation-timing-function: linear;
        }
      
        @keyframes keyframes8 {
          from {
            stroke: blue;
            stroke-dashoffset: 452;
            stroke-width: 128;
          }
          60% {
            animation-timing-function: step-end;
            stroke: blue;
            stroke-dashoffset: 0;
            stroke-width: 128;
          }
          to {
            stroke: black;
            stroke-width: 1024;
          }
        }
        #make-me-a-hanzi-animation-8 {
          animation: keyframes8 0.6178385416666666s both;
          animation-delay: 5.157552083333333s;
          animation-timing-function: linear;
        }
      
        @keyframes keyframes9 {
          from {
            stroke: blue;
            stroke-dashoffset: 518;
            stroke-width: 128;
          }
          63% {
            animation-timing-function: step-end;
            stroke: blue;
            stroke-dashoffset: 0;
            stroke-width: 128;
          }
          to {
            stroke: black;
            stroke-width: 1024;
          }
        }
        #make-me-a-hanzi-animation-9 {
          animation: keyframes9 0.6715494791666666s both;
          animation-delay: 5.775390625s;
          animation-timing-function: linear;
        }
      
        @keyframes keyframes10 {
          from {
            stroke: blue;
            stroke-dashoffset: 454;
            stroke-width: 128;
          }
          60% {
            animation-timing-function: step-end;
            stroke: blue;
            stroke-dashoffset: 0;
            stroke-width: 128;
          }
          to {
            stroke: black;
            stroke-width: 1024;
          }
        }
        #make-me-a-hanzi-animation-10 {
          animation: keyframes10 0.6194661458333334s both;
          animation-delay: 6.446940104166667s;
          animation-timing-function: linear;
        }
      
        @keyframes keyframes11 {
          from {
            stroke: blue;
            stroke-dashoffset: 834;
            stroke-width: 128;
          }
          73% {
            animation-timing-function: step-end;
            stroke: blue;
            stroke-dashoffset: 0;
            stroke-width: 128;
          }
          to {
            stroke: black;
            stroke-width: 1024;
          }
        }
        #make-me-a-hanzi-animation-11 {
          animation: keyframes11 0.9287109375s both;
          animation-delay: 7.06640625s;
          animation-timing-function: linear;
        }
      
        @keyframes keyframes12 {
          from {
            stroke: blue;
            stroke-dashoffset: 739;
            stroke-width: 128;
          }
          71% {
            animation-timing-function: step-end;
            stroke: blue;
            stroke-dashoffset: 0;
            stroke-width: 128;
          }
          to {
            stroke: black;
            stroke-width: 1024;
          }
        }
        #make-me-a-hanzi-animation-12 {
          animation: keyframes12 0.8513997395833334s both;
          animation-delay: 7.9951171875s;
          animation-timing-function: linear;
        }
      
        @keyframes keyframes13 {
          from {
            stroke: blue;
            stroke-dashoffset: 637;
            stroke-width: 128;
          }
          67% {
            animation-timing-function: step-end;
            stroke: blue;
            stroke-dashoffset: 0;
            stroke-width: 128;
          }
          to {
            stroke: black;
            stroke-width: 1024;
          }
        }
        #make-me-a-hanzi-animation-13 {
          animation: keyframes13 0.7683919270833334s both;
          animation-delay: 8.846516927083334s;
          animation-timing-function: linear;
        }
      
        @keyframes keyframes14 {
          from {
            stroke: blue;
            stroke-dashoffset: 571;
            stroke-width: 128;
          }
          65% {
            animation-timing-function: step-end;
            stroke: blue;
            stroke-dashoffset: 0;
            stroke-width: 128;
          }
          to {
            stroke: black;
            stroke-width: 1024;
          }
        }
        #make-me-a-hanzi-animation-14 {
          animation: keyframes14 0.7146809895833334s both;
          animation-delay: 9.614908854166668s;
          animation-timing-function: linear;
        }
      
        @keyframes keyframes15 {
          from {
            stroke: blue;
            stroke-dashoffset: 639;
            stroke-width: 128;
          }
          68% {
            animation-timing-function: step-end;
            stroke: blue;
            stroke-dashoffset: 0;
            stroke-width: 128;
          }
          to {
            stroke: black;
            stroke-width: 1024;
          }
        }
        #make-me-a-hanzi-animation-15 {
          animation: keyframes15 0.77001953125s both;
          animation-delay: 10.329589843750002s;
          animation-timing-function: linear;
        }
      
    </style>
    
      <path d="M 245 640 Q 405 682 413 689 Q 420 696 416 705 Q 409 715 379 721 Q 352 725 267 692 Q 171 668 151 665 Q 117 656 142 642 Q 173 629 199 631 L 245 640 Z" fill="lightgray"></path>
    
      <path d="M 213 453 Q 237 505 267 581 Q 271 596 277 602 Q 281 608 279 617 Q 272 635 245 640 C 216 648 192 655 199 631 Q 206 613 207 588 Q 198 524 173 463 L 158 429 Q 121 356 35 242 Q 29 236 38 236 Q 83 252 169 371 Q 169 374 172 376 L 213 453 Z" fill="lightgray"></path>
    
      <path d="M 173 463 Q 172 464 167 465 Q 157 469 153 465 Q 147 459 153 445 Q 153 444 154 440 Q 155 434 158 429 L 172 376 Q 181 336 186 282 Q 187 252 202 231 Q 217 210 222 224 Q 229 242 228 274 L 225 306 Q 215 397 213 425 L 173 463 Z" fill="lightgray"></path>
    
      <path d="M 352 332 Q 368 407 391 430 Q 412 455 390 467 Q 371 477 346 494 Q 330 503 284 477 Q 256 465 213 453 C 184 445 185 415 213 425 Q 216 428 290 445 Q 312 451 319 442 Q 323 438 304 328 C 299 298 346 303 352 332 Z" fill="lightgray"></path>
    
      <path d="M 228 274 Q 235 273 245 276 Q 284 286 371 299 Q 381 300 381 309 Q 381 316 352 332 C 340 339 333 337 304 328 Q 261 315 225 306 C 196 299 198 275 228 274 Z" fill="lightgray"></path>
    
      <path d="M 465 726 Q 484 710 506 689 Q 519 679 532 680 Q 541 681 545 692 Q 549 705 540 731 Q 531 755 459 767 Q 446 768 440 767 Q 436 763 437 752 Q 441 742 465 726 Z" fill="lightgray"></path>
    
      <path d="M 429 613 Q 471 573 498 563 Q 510 562 516 572 Q 520 582 517 595 Q 504 631 437 643 Q 424 646 416 642 Q 412 641 414 632 Q 415 623 429 613 Z" fill="lightgray"></path>
    
      <path d="M 423 437 Q 414 436 414 423 Q 414 372 436 352 Q 440 346 448 347 Q 454 347 457 364 Q 463 385 546 533 Q 553 543 553 548 Q 554 555 547 551 Q 538 548 451 456 Q 441 446 423 437 Z" fill="lightgray"></path>
    
      <path d="M 635 726 Q 669 720 754 738 Q 776 744 801 748 Q 823 754 828 757 Q 835 764 831 771 Q 824 780 801 785 Q 776 789 753 779 Q 728 769 698 762 Q 667 755 630 750 Q 627 750 626 749 C 597 743 605 730 635 726 Z" fill="lightgray"></path>
    
      <path d="M 814 583 Q 833 622 854 632 Q 867 645 856 661 Q 843 671 802 692 Q 787 698 770 691 Q 736 675 701 666 Q 668 657 633 649 C 604 642 603 622 633 624 Q 645 624 660 629 Q 774 656 781 650 Q 785 646 784 634 Q 778 610 771 589 C 762 560 800 556 814 583 Z" fill="lightgray"></path>
    
      <path d="M 633 529 Q 642 529 741 542 Q 784 548 826 553 Q 836 554 837 560 Q 837 569 820 581 Q 817 582 814 583 L 771 589 L 770 589 Q 725 573 691 566 Q 661 562 633 554 C 604 546 603 527 633 529 Z" fill="lightgray"></path>
    
      <path d="M 633 649 Q 633 703 635 726 C 636 743 636 743 626 749 Q 616 756 598 765 Q 582 772 576 767 Q 570 761 577 750 Q 604 693 592 501 Q 591 470 572 442 Q 565 429 572 413 Q 579 397 587 390 Q 594 384 608 394 Q 666 436 844 444 Q 863 444 864 453 Q 863 465 840 481 Q 828 490 743 475 Q 668 466 647 459 Q 634 459 634 496 Q 633 512 633 529 L 633 554 Q 633 588 633 624 L 633 649 Z" fill="lightgray"></path>
    
      <path d="M 661 280 Q 734 293 843 295 Q 892 295 900 305 Q 904 315 889 327 Q 843 360 783 345 Q 731 333 655 317 L 603 307 Q 516 294 418 276 Q 399 273 414 259 Q 427 247 443 243 Q 462 239 477 244 Q 520 257 569 267 L 661 280 Z" fill="lightgray"></path>
    
      <path d="M 655 317 Q 655 347 653 348 Q 631 367 614 376 Q 602 380 594 373 Q 588 370 595 361 Q 596 358 603 307 L 601 225 Q 601 129 588 90 Q 579 54 610 7 Q 620 -11 627 -14 Q 637 -15 643 -3 Q 655 27 652 55 Q 651 155 652 240 Q 652 247 652 252 L 655 317 Z" fill="lightgray"></path>
    
      <path d="M 569 267 Q 535 179 366 67 Q 350 57 364 54 Q 374 53 411 66 Q 451 79 488 107 Q 521 132 558 171 Q 583 199 601 225 C 639 278 587 310 569 267 Z" fill="lightgray"></path>
    
      <path d="M 652 252 Q 709 174 772 101 Q 791 79 827 76 Q 891 69 960 78 Q 978 79 979 83 Q 982 90 968 96 Q 800 163 721 226 Q 691 253 661 280 C 639 300 630 282 652 252 Z" fill="lightgray"></path>
    
    
      <clipPath id="make-me-a-hanzi-clip-0">
        <path d="M 245 640 Q 405 682 413 689 Q 420 696 416 705 Q 409 715 379 721 Q 352 725 267 692 Q 171 668 151 665 Q 117 656 142 642 Q 173 629 199 631 L 245 640 Z"></path>
      </clipPath>
      <path clip-path="url(#make-me-a-hanzi-clip-0)" d="M 144 654 L 202 654 L 254 663 L 349 694 L 406 698" fill="none" id="make-me-a-hanzi-animation-0" stroke-dasharray="396 792" stroke-linecap="round"></path>
    
      <clipPath id="make-me-a-hanzi-clip-1">
        <path d="M 213 453 Q 237 505 267 581 Q 271 596 277 602 Q 281 608 279 617 Q 272 635 245 640 C 216 648 192 655 199 631 Q 206 613 207 588 Q 198 524 173 463 L 158 429 Q 121 356 35 242 Q 29 236 38 236 Q 83 252 169 371 Q 169 374 172 376 L 213 453 Z"></path>
      </clipPath>
      <path clip-path="url(#make-me-a-hanzi-clip-1)" d="M 208 627 L 239 605 L 239 598 L 197 467 L 149 371 L 80 280 L 55 253 L 42 249 L 40 241" fill="none" id="make-me-a-hanzi-animation-1" stroke-dasharray="591 1182" stroke-linecap="round"></path>
    
      <clipPath id="make-me-a-hanzi-clip-2">
        <path d="M 173 463 Q 172 464 167 465 Q 157 469 153 465 Q 147 459 153 445 Q 153 444 154 440 Q 155 434 158 429 L 172 376 Q 181 336 186 282 Q 187 252 202 231 Q 217 210 222 224 Q 229 242 228 274 L 225 306 Q 215 397 213 425 L 173 463 Z"></path>
      </clipPath>
      <path clip-path="url(#make-me-a-hanzi-clip-2)" d="M 160 458 L 189 410 L 213 229" fill="none" id="make-me-a-hanzi-animation-2" stroke-dasharray="367 734" stroke-linecap="round"></path>
    
      <clipPath id="make-me-a-hanzi-clip-3">
        <path d="M 352 332 Q 368 407 391 430 Q 412 455 390 467 Q 371 477 346 494 Q 330 503 284 477 Q 256 465 213 453 C 184 445 185 415 213 425 Q 216 428 290 445 Q 312 451 319 442 Q 323 438 304 328 C 299 298 346 303 352 332 Z"></path>
      </clipPath>
      <path clip-path="url(#make-me-a-hanzi-clip-3)" d="M 212 434 L 225 444 L 317 469 L 336 466 L 347 456 L 356 445 L 332 353 L 309 340" fill="none" id="make-me-a-hanzi-animation-3" stroke-dasharray="410 820" stroke-linecap="round"></path>
    
      <clipPath id="make-me-a-hanzi-clip-4">
        <path d="M 228 274 Q 235 273 245 276 Q 284 286 371 299 Q 381 300 381 309 Q 381 316 352 332 C 340 339 333 337 304 328 Q 261 315 225 306 C 196 299 198 275 228 274 Z"></path>
      </clipPath>
      <path clip-path="url(#make-me-a-hanzi-clip-4)" d="M 232 280 L 246 294 L 302 308 L 347 314 L 372 308" fill="none" id="make-me-a-hanzi-animation-4" stroke-dasharray="277 554" stroke-linecap="round"></path>
    
      <clipPath id="make-me-a-hanzi-clip-5">
        <path d="M 465 726 Q 484 710 506 689 Q 519 679 532 680 Q 541 681 545 692 Q 549 705 540 731 Q 531 755 459 767 Q 446 768 440 767 Q 436 763 437 752 Q 441 742 465 726 Z"></path>
      </clipPath>
      <path clip-path="url(#make-me-a-hanzi-clip-5)" d="M 444 758 L 509 724 L 530 696" fill="none" id="make-me-a-hanzi-animation-5" stroke-dasharray="236 472" stroke-linecap="round"></path>
    
      <clipPath id="make-me-a-hanzi-clip-6">
        <path d="M 429 613 Q 471 573 498 563 Q 510 562 516 572 Q 520 582 517 595 Q 504 631 437 643 Q 424 646 416 642 Q 412 641 414 632 Q 415 623 429 613 Z"></path>
      </clipPath>
      <path clip-path="url(#make-me-a-hanzi-clip-6)" d="M 422 636 L 473 608 L 500 581" fill="none" id="make-me-a-hanzi-animation-6" stroke-dasharray="224 448" stroke-linecap="round"></path>
    
      <clipPath id="make-me-a-hanzi-clip-7">
        <path d="M 423 437 Q 414 436 414 423 Q 414 372 436 352 Q 440 346 448 347 Q 454 347 457 364 Q 463 385 546 533 Q 553 543 553 548 Q 554 555 547 551 Q 538 548 451 456 Q 441 446 423 437 Z"></path>
      </clipPath>
      <path clip-path="url(#make-me-a-hanzi-clip-7)" d="M 445 356 L 445 412 L 525 519 L 536 523 L 548 546" fill="none" id="make-me-a-hanzi-animation-7" stroke-dasharray="355 710" stroke-linecap="round"></path>
    
      <clipPath id="make-me-a-hanzi-clip-8">
        <path d="M 635 726 Q 669 720 754 738 Q 776 744 801 748 Q 823 754 828 757 Q 835 764 831 771 Q 824 780 801 785 Q 776 789 753 779 Q 728 769 698 762 Q 667 755 630 750 Q 627 750 626 749 C 597 743 605 730 635 726 Z"></path>
      </clipPath>
      <path clip-path="url(#make-me-a-hanzi-clip-8)" d="M 629 744 L 644 738 L 674 740 L 784 766 L 821 766" fill="none" id="make-me-a-hanzi-animation-8" stroke-dasharray="324 648" stroke-linecap="round"></path>
    
      <clipPath id="make-me-a-hanzi-clip-9">
        <path d="M 814 583 Q 833 622 854 632 Q 867 645 856 661 Q 843 671 802 692 Q 787 698 770 691 Q 736 675 701 666 Q 668 657 633 649 C 604 642 603 622 633 624 Q 645 624 660 629 Q 774 656 781 650 Q 785 646 784 634 Q 778 610 771 589 C 762 560 800 556 814 583 Z"></path>
      </clipPath>
      <path clip-path="url(#make-me-a-hanzi-clip-9)" d="M 639 630 L 657 642 L 791 671 L 817 646 L 801 609 L 779 594" fill="none" id="make-me-a-hanzi-animation-9" stroke-dasharray="390 780" stroke-linecap="round"></path>
    
      <clipPath id="make-me-a-hanzi-clip-10">
        <path d="M 633 529 Q 642 529 741 542 Q 784 548 826 553 Q 836 554 837 560 Q 837 569 820 581 Q 817 582 814 583 L 771 589 L 770 589 Q 725 573 691 566 Q 661 562 633 554 C 604 546 603 527 633 529 Z"></path>
      </clipPath>
      <path clip-path="url(#make-me-a-hanzi-clip-10)" d="M 635 535 L 657 547 L 726 555 L 769 567 L 828 562" fill="none" id="make-me-a-hanzi-animation-10" stroke-dasharray="326 652" stroke-linecap="round"></path>
    
      <clipPath id="make-me-a-hanzi-clip-11">
        <path d="M 633 649 Q 633 703 635 726 C 636 743 636 743 626 749 Q 616 756 598 765 Q 582 772 576 767 Q 570 761 577 750 Q 604 693 592 501 Q 591 470 572 442 Q 565 429 572 413 Q 579 397 587 390 Q 594 384 608 394 Q 666 436 844 444 Q 863 444 864 453 Q 863 465 840 481 Q 828 490 743 475 Q 668 466 647 459 Q 634 459 634 496 Q 633 512 633 529 L 633 554 Q 633 588 633 624 L 633 649 Z"></path>
      </clipPath>
      <path clip-path="url(#make-me-a-hanzi-clip-11)" d="M 582 761 L 604 739 L 611 722 L 614 438 L 643 436 L 796 463 L 822 464 L 855 455" fill="none" id="make-me-a-hanzi-animation-11" stroke-dasharray="706 1412" stroke-linecap="round"></path>
    
      <clipPath id="make-me-a-hanzi-clip-12">
        <path d="M 661 280 Q 734 293 843 295 Q 892 295 900 305 Q 904 315 889 327 Q 843 360 783 345 Q 731 333 655 317 L 603 307 Q 516 294 418 276 Q 399 273 414 259 Q 427 247 443 243 Q 462 239 477 244 Q 520 257 569 267 L 661 280 Z"></path>
      </clipPath>
      <path clip-path="url(#make-me-a-hanzi-clip-12)" d="M 416 268 L 460 262 L 797 321 L 847 321 L 892 310" fill="none" id="make-me-a-hanzi-animation-12" stroke-dasharray="611 1222" stroke-linecap="round"></path>
    
      <clipPath id="make-me-a-hanzi-clip-13">
        <path d="M 655 317 Q 655 347 653 348 Q 631 367 614 376 Q 602 380 594 373 Q 588 370 595 361 Q 596 358 603 307 L 601 225 Q 601 129 588 90 Q 579 54 610 7 Q 620 -11 627 -14 Q 637 -15 643 -3 Q 655 27 652 55 Q 651 155 652 240 Q 652 247 652 252 L 655 317 Z"></path>
      </clipPath>
      <path clip-path="url(#make-me-a-hanzi-clip-13)" d="M 602 368 L 628 328 L 619 72 L 629 -4" fill="none" id="make-me-a-hanzi-animation-13" stroke-dasharray="509 1018" stroke-linecap="round"></path>
    
      <clipPath id="make-me-a-hanzi-clip-14">
        <path d="M 569 267 Q 535 179 366 67 Q 350 57 364 54 Q 374 53 411 66 Q 451 79 488 107 Q 521 132 558 171 Q 583 199 601 225 C 639 278 587 310 569 267 Z"></path>
      </clipPath>
      <path clip-path="url(#make-me-a-hanzi-clip-14)" d="M 598 264 L 587 256 L 556 201 L 503 145 L 448 102 L 367 60" fill="none" id="make-me-a-hanzi-animation-14" stroke-dasharray="443 886" stroke-linecap="round"></path>
    
      <clipPath id="make-me-a-hanzi-clip-15">
        <path d="M 652 252 Q 709 174 772 101 Q 791 79 827 76 Q 891 69 960 78 Q 978 79 979 83 Q 982 90 968 96 Q 800 163 721 226 Q 691 253 661 280 C 639 300 630 282 652 252 Z"></path>
      </clipPath>
      <path clip-path="url(#make-me-a-hanzi-clip-15)" d="M 658 272 L 667 254 L 707 210 L 805 125 L 864 105 L 974 86" fill="none" id="make-me-a-hanzi-animation-15" stroke-dasharray="511 1022" stroke-linecap="round"></path>
    
  </g>
</svg>