<svg version="1.1" viewBox="0 0 1024 1024" xmlns="http://www.w3.org/2000/svg">
  <g stroke="lightgray" stroke-dasharray="1,1" stroke-width="1" transform="scale(4, 4)">
    <line x1="0" y1="0" x2="256" y2="256"></line>
    <line x1="256" y1="0" x2="0" y2="256"></line>
    <line x1="128" y1="0" x2="128" y2="256"></line>
    <line x1="0" y1="128" x2="256" y2="128"></line>
  </g>
  <g transform="scale(1, -1) translate(0, -900)">
    <style type="text/css">
      
        @keyframes keyframes0 {
          from {
            stroke: blue;
            stroke-dashoffset: 526;
            stroke-width: 128;
          }
          63% {
            animation-timing-function: step-end;
            stroke: blue;
            stroke-dashoffset: 0;
            stroke-width: 128;
          }
          to {
            stroke: black;
            stroke-width: 1024;
          }
        }
        #make-me-a-hanzi-animation-0 {
          animation: keyframes0 0.6780598958333334s both;
          animation-delay: 0s;
          animation-timing-function: linear;
        }
      
        @keyframes keyframes1 {
          from {
            stroke: blue;
            stroke-dashoffset: 761;
            stroke-width: 128;
          }
          71% {
            animation-timing-function: step-end;
            stroke: blue;
            stroke-dashoffset: 0;
            stroke-width: 128;
          }
          to {
            stroke: black;
            stroke-width: 1024;
          }
        }
        #make-me-a-hanzi-animation-1 {
          animation: keyframes1 0.8693033854166666s both;
          animation-delay: 0.6780598958333334s;
          animation-timing-function: linear;
        }
      
        @keyframes keyframes2 {
          from {
            stroke: blue;
            stroke-dashoffset: 495;
            stroke-width: 128;
          }
          62% {
            animation-timing-function: step-end;
            stroke: blue;
            stroke-dashoffset: 0;
            stroke-width: 128;
          }
          to {
            stroke: black;
            stroke-width: 1024;
          }
        }
        #make-me-a-hanzi-animation-2 {
          animation: keyframes2 0.65283203125s both;
          animation-delay: 1.54736328125s;
          animation-timing-function: linear;
        }
      
        @keyframes keyframes3 {
          from {
            stroke: blue;
            stroke-dashoffset: 542;
            stroke-width: 128;
          }
          64% {
            animation-timing-function: step-end;
            stroke: blue;
            stroke-dashoffset: 0;
            stroke-width: 128;
          }
          to {
            stroke: black;
            stroke-width: 1024;
          }
        }
        #make-me-a-hanzi-animation-3 {
          animation: keyframes3 0.6910807291666666s both;
          animation-delay: 2.2001953125s;
          animation-timing-function: linear;
        }
      
        @keyframes keyframes4 {
          from {
            stroke: blue;
            stroke-dashoffset: 404;
            stroke-width: 128;
          }
          57% {
            animation-timing-function: step-end;
            stroke: blue;
            stroke-dashoffset: 0;
            stroke-width: 128;
          }
          to {
            stroke: black;
            stroke-width: 1024;
          }
        }
        #make-me-a-hanzi-animation-4 {
          animation: keyframes4 0.5787760416666666s both;
          animation-delay: 2.8912760416666665s;
          animation-timing-function: linear;
        }
      
        @keyframes keyframes5 {
          from {
            stroke: blue;
            stroke-dashoffset: 554;
            stroke-width: 128;
          }
          64% {
            animation-timing-function: step-end;
            stroke: blue;
            stroke-dashoffset: 0;
            stroke-width: 128;
          }
          to {
            stroke: black;
            stroke-width: 1024;
          }
        }
        #make-me-a-hanzi-animation-5 {
          animation: keyframes5 0.7008463541666666s both;
          animation-delay: 3.470052083333333s;
          animation-timing-function: linear;
        }
      
        @keyframes keyframes6 {
          from {
            stroke: blue;
            stroke-dashoffset: 479;
            stroke-width: 128;
          }
          61% {
            animation-timing-function: step-end;
            stroke: blue;
            stroke-dashoffset: 0;
            stroke-width: 128;
          }
          to {
            stroke: black;
            stroke-width: 1024;
          }
        }
        #make-me-a-hanzi-animation-6 {
          animation: keyframes6 0.6398111979166666s both;
          animation-delay: 4.1708984375s;
          animation-timing-function: linear;
        }
      
        @keyframes keyframes7 {
          from {
            stroke: blue;
            stroke-dashoffset: 774;
            stroke-width: 128;
          }
          72% {
            animation-timing-function: step-end;
            stroke: blue;
            stroke-dashoffset: 0;
            stroke-width: 128;
          }
          to {
            stroke: black;
            stroke-width: 1024;
          }
        }
        #make-me-a-hanzi-animation-7 {
          animation: keyframes7 0.8798828125s both;
          animation-delay: 4.810709635416667s;
          animation-timing-function: linear;
        }
      
        @keyframes keyframes8 {
          from {
            stroke: blue;
            stroke-dashoffset: 400;
            stroke-width: 128;
          }
          57% {
            animation-timing-function: step-end;
            stroke: blue;
            stroke-dashoffset: 0;
            stroke-width: 128;
          }
          to {
            stroke: black;
            stroke-width: 1024;
          }
        }
        #make-me-a-hanzi-animation-8 {
          animation: keyframes8 0.5755208333333334s both;
          animation-delay: 5.690592447916667s;
          animation-timing-function: linear;
        }
      
        @keyframes keyframes9 {
          from {
            stroke: blue;
            stroke-dashoffset: 403;
            stroke-width: 128;
          }
          57% {
            animation-timing-function: step-end;
            stroke: blue;
            stroke-dashoffset: 0;
            stroke-width: 128;
          }
          to {
            stroke: black;
            stroke-width: 1024;
          }
        }
        #make-me-a-hanzi-animation-9 {
          animation: keyframes9 0.5779622395833334s both;
          animation-delay: 6.26611328125s;
          animation-timing-function: linear;
        }
      
        @keyframes keyframes10 {
          from {
            stroke: blue;
            stroke-dashoffset: 446;
            stroke-width: 128;
          }
          59% {
            animation-timing-function: step-end;
            stroke: blue;
            stroke-dashoffset: 0;
            stroke-width: 128;
          }
          to {
            stroke: black;
            stroke-width: 1024;
          }
        }
        #make-me-a-hanzi-animation-10 {
          animation: keyframes10 0.6129557291666666s both;
          animation-delay: 6.844075520833333s;
          animation-timing-function: linear;
        }
      
        @keyframes keyframes11 {
          from {
            stroke: blue;
            stroke-dashoffset: 767;
            stroke-width: 128;
          }
          71% {
            animation-timing-function: step-end;
            stroke: blue;
            stroke-dashoffset: 0;
            stroke-width: 128;
          }
          to {
            stroke: black;
            stroke-width: 1024;
          }
        }
        #make-me-a-hanzi-animation-11 {
          animation: keyframes11 0.8741861979166666s both;
          animation-delay: 7.45703125s;
          animation-timing-function: linear;
        }
      
        @keyframes keyframes12 {
          from {
            stroke: blue;
            stroke-dashoffset: 479;
            stroke-width: 128;
          }
          61% {
            animation-timing-function: step-end;
            stroke: blue;
            stroke-dashoffset: 0;
            stroke-width: 128;
          }
          to {
            stroke: black;
            stroke-width: 1024;
          }
        }
        #make-me-a-hanzi-animation-12 {
          animation: keyframes12 0.6398111979166666s both;
          animation-delay: 8.331217447916666s;
          animation-timing-function: linear;
        }
      
        @keyframes keyframes13 {
          from {
            stroke: blue;
            stroke-dashoffset: 748;
            stroke-width: 128;
          }
          71% {
            animation-timing-function: step-end;
            stroke: blue;
            stroke-dashoffset: 0;
            stroke-width: 128;
          }
          to {
            stroke: black;
            stroke-width: 1024;
          }
        }
        #make-me-a-hanzi-animation-13 {
          animation: keyframes13 0.8587239583333334s both;
          animation-delay: 8.971028645833332s;
          animation-timing-function: linear;
        }
      
        @keyframes keyframes14 {
          from {
            stroke: blue;
            stroke-dashoffset: 416;
            stroke-width: 128;
          }
          58% {
            animation-timing-function: step-end;
            stroke: blue;
            stroke-dashoffset: 0;
            stroke-width: 128;
          }
          to {
            stroke: black;
            stroke-width: 1024;
          }
        }
        #make-me-a-hanzi-animation-14 {
          animation: keyframes14 0.5885416666666666s both;
          animation-delay: 9.829752604166666s;
          animation-timing-function: linear;
        }
      
        @keyframes keyframes15 {
          from {
            stroke: blue;
            stroke-dashoffset: 407;
            stroke-width: 128;
          }
          57% {
            animation-timing-function: step-end;
            stroke: blue;
            stroke-dashoffset: 0;
            stroke-width: 128;
          }
          to {
            stroke: black;
            stroke-width: 1024;
          }
        }
        #make-me-a-hanzi-animation-15 {
          animation: keyframes15 0.5812174479166666s both;
          animation-delay: 10.418294270833332s;
          animation-timing-function: linear;
        }
      
        @keyframes keyframes16 {
          from {
            stroke: blue;
            stroke-dashoffset: 459;
            stroke-width: 128;
          }
          60% {
            animation-timing-function: step-end;
            stroke: blue;
            stroke-dashoffset: 0;
            stroke-width: 128;
          }
          to {
            stroke: black;
            stroke-width: 1024;
          }
        }
        #make-me-a-hanzi-animation-16 {
          animation: keyframes16 0.62353515625s both;
          animation-delay: 10.999511718749998s;
          animation-timing-function: linear;
        }
      
        @keyframes keyframes17 {
          from {
            stroke: blue;
            stroke-dashoffset: 822;
            stroke-width: 128;
          }
          73% {
            animation-timing-function: step-end;
            stroke: blue;
            stroke-dashoffset: 0;
            stroke-width: 128;
          }
          to {
            stroke: black;
            stroke-width: 1024;
          }
        }
        #make-me-a-hanzi-animation-17 {
          animation: keyframes17 0.9189453125s both;
          animation-delay: 11.623046874999998s;
          animation-timing-function: linear;
        }
      
    </style>
    
      <path d="M 254 617 Q 398 656 405 662 Q 412 669 407 677 Q 400 687 373 693 Q 345 697 319 684 Q 282 668 241 656 Q 195 643 142 635 Q 109 628 134 613 Q 165 598 212 606 L 254 617 Z" fill="lightgray"></path>
    
      <path d="M 224 414 Q 249 471 279 555 Q 291 591 291 593 Q 288 600 275 609 Q 265 615 254 617 C 225 626 204 633 212 606 Q 233 554 184 421 Q 183 421 183 419 L 168 384 Q 120 294 35 178 Q 29 172 38 172 Q 92 190 177 320 Q 178 326 183 331 L 224 414 Z" fill="lightgray"></path>
    
      <path d="M 183 419 Q 179 420 175 421 Q 165 424 161 419 Q 155 415 162 400 Q 165 393 168 384 L 183 331 Q 193 291 200 238 Q 201 207 218 187 Q 233 166 238 181 Q 245 199 241 233 L 237 261 Q 224 360 222 386 L 183 419 Z" fill="lightgray"></path>
    
      <path d="M 374 283 Q 387 367 409 392 Q 430 417 407 429 Q 388 439 362 455 Q 344 464 327 453 Q 305 438 277 429 Q 253 422 224 414 C 192 405 192 382 222 386 Q 232 387 245 390 Q 279 399 309 405 Q 330 409 334 402 Q 340 396 326 284 C 322 254 369 253 374 283 Z" fill="lightgray"></path>
    
      <path d="M 241 233 Q 248 232 257 234 Q 297 244 386 253 Q 396 254 396 262 Q 396 269 374 283 C 359 293 355 292 326 284 Q 277 271 237 261 C 208 254 211 235 241 233 Z" fill="lightgray"></path>
    
      <path d="M 510 759 Q 474 755 499 738 Q 538 711 593 724 Q 674 737 758 752 Q 795 759 802 765 Q 811 772 807 780 Q 800 792 772 800 Q 748 806 660 782 Q 591 766 510 759 Z" fill="lightgray"></path>
    
      <path d="M 497 648 Q 487 652 462 656 Q 452 659 448 654 Q 444 648 451 634 Q 478 579 494 488 Q 498 460 513 442 Q 529 423 534 437 Q 537 446 537 459 L 535 488 Q 522 527 512 620 C 509 644 509 644 497 648 Z" fill="lightgray"></path>
    
      <path d="M 732 477 Q 742 464 753 458 Q 762 451 776 469 Q 788 488 815 592 Q 822 619 844 640 Q 856 650 845 663 Q 832 678 795 701 Q 780 708 704 691 Q 701 691 699 690 Q 528 654 497 648 C 468 642 483 613 512 620 Q 515 620 522 622 Q 558 634 610 644 L 643 650 Q 746 675 762 661 Q 772 648 770 637 Q 751 538 742 523 Q 739 514 724 509 C 710 501 712 499 732 477 Z" fill="lightgray"></path>
    
      <path d="M 662 557 Q 684 561 705 564 Q 724 567 717 578 Q 708 590 687 593 Q 677 594 664 592 L 619 581 Q 586 571 558 562 Q 545 559 561 547 Q 568 543 583 544 Q 602 548 620 550 L 662 557 Z" fill="lightgray"></path>
    
      <path d="M 659 507 Q 660 534 662 557 L 664 592 Q 664 595 665 597 Q 669 625 665 631 Q 655 643 643 650 C 618 666 603 673 610 644 Q 616 620 619 581 L 620 550 Q 620 531 622 501 C 624 471 658 477 659 507 Z" fill="lightgray"></path>
    
      <path d="M 537 459 Q 547 458 557 460 Q 612 470 732 477 C 762 479 748 491 724 509 Q 723 510 722 511 Q 701 526 659 507 L 622 501 Q 576 494 535 488 C 505 484 507 460 537 459 Z" fill="lightgray"></path>
    
      <path d="M 435 388 Q 416 387 430 371 Q 443 358 459 353 Q 478 349 492 352 Q 624 385 924 385 Q 942 385 946 392 Q 950 402 937 416 Q 889 452 857 444 Q 730 420 435 388 Z" fill="lightgray"></path>
    
      <path d="M 504 301 Q 494 308 461 312 Q 451 315 447 310 Q 441 304 449 289 Q 477 234 493 144 Q 497 116 513 99 Q 529 78 534 93 Q 535 100 537 107 L 536 135 Q 530 163 514 272 C 510 298 510 298 504 301 Z" fill="lightgray"></path>
    
      <path d="M 747 125 Q 757 112 769 106 Q 779 99 791 118 Q 801 137 824 237 Q 831 265 851 287 Q 863 297 852 310 Q 839 325 800 347 Q 784 353 721 339 Q 694 339 504 301 C 475 295 485 266 514 272 Q 517 272 522 273 Q 556 283 603 290 L 638 296 Q 677 303 728 309 Q 756 313 766 303 Q 776 293 775 281 Q 762 185 755 170 Q 751 161 742 157 C 728 145 728 145 747 125 Z" fill="lightgray"></path>
    
      <path d="M 654 212 Q 685 218 716 220 Q 735 223 729 234 Q 720 246 699 250 Q 683 254 657 247 L 611 236 Q 580 229 554 222 Q 541 219 557 207 Q 561 204 612 207 L 654 212 Z" fill="lightgray"></path>
    
      <path d="M 650 152 Q 651 185 654 212 L 657 247 Q 663 272 657 279 Q 647 289 638 296 C 615 315 592 318 603 290 Q 607 286 611 236 L 612 207 Q 612 182 614 146 C 616 116 649 122 650 152 Z" fill="lightgray"></path>
    
      <path d="M 537 107 Q 543 106 552 107 Q 613 120 747 125 C 777 126 767 141 742 157 Q 741 158 738 160 Q 726 167 650 152 L 614 146 Q 571 142 536 135 C 507 129 507 109 537 107 Z" fill="lightgray"></path>
    
      <path d="M 382 41 Q 360 40 375 22 Q 388 9 406 2 Q 427 -5 443 -1 Q 638 38 924 17 Q 943 16 949 24 Q 955 36 939 50 Q 890 92 851 86 Q 752 70 382 41 Z" fill="lightgray"></path>
    
    
      <clipPath id="make-me-a-hanzi-clip-0">
        <path d="M 254 617 Q 398 656 405 662 Q 412 669 407 677 Q 400 687 373 693 Q 345 697 319 684 Q 282 668 241 656 Q 195 643 142 635 Q 109 628 134 613 Q 165 598 212 606 L 254 617 Z"></path>
      </clipPath>
      <path clip-path="url(#make-me-a-hanzi-clip-0)" d="M 135 625 L 197 625 L 263 638 L 345 668 L 398 671" fill="none" id="make-me-a-hanzi-animation-0" stroke-dasharray="398 796" stroke-linecap="round"></path>
    
      <clipPath id="make-me-a-hanzi-clip-1">
        <path d="M 224 414 Q 249 471 279 555 Q 291 591 291 593 Q 288 600 275 609 Q 265 615 254 617 C 225 626 204 633 212 606 Q 233 554 184 421 Q 183 421 183 419 L 168 384 Q 120 294 35 178 Q 29 172 38 172 Q 92 190 177 320 Q 178 326 183 331 L 224 414 Z"></path>
      </clipPath>
      <path clip-path="url(#make-me-a-hanzi-clip-1)" d="M 220 604 L 252 581 L 252 575 L 232 493 L 204 415 L 144 301 L 100 240 L 55 190 L 42 184 L 41 177" fill="none" id="make-me-a-hanzi-animation-1" stroke-dasharray="633 1266" stroke-linecap="round"></path>
    
      <clipPath id="make-me-a-hanzi-clip-2">
        <path d="M 183 419 Q 179 420 175 421 Q 165 424 161 419 Q 155 415 162 400 Q 165 393 168 384 L 183 331 Q 193 291 200 238 Q 201 207 218 187 Q 233 166 238 181 Q 245 199 241 233 L 237 261 Q 224 360 222 386 L 183 419 Z"></path>
      </clipPath>
      <path clip-path="url(#make-me-a-hanzi-clip-2)" d="M 169 412 L 198 371 L 228 185" fill="none" id="make-me-a-hanzi-animation-2" stroke-dasharray="367 734" stroke-linecap="round"></path>
    
      <clipPath id="make-me-a-hanzi-clip-3">
        <path d="M 374 283 Q 387 367 409 392 Q 430 417 407 429 Q 388 439 362 455 Q 344 464 327 453 Q 305 438 277 429 Q 253 422 224 414 C 192 405 192 382 222 386 Q 232 387 245 390 Q 279 399 309 405 Q 330 409 334 402 Q 340 396 326 284 C 322 254 369 253 374 283 Z"></path>
      </clipPath>
      <path clip-path="url(#make-me-a-hanzi-clip-3)" d="M 223 395 L 319 426 L 353 426 L 372 406 L 371 397 L 353 308 L 332 297" fill="none" id="make-me-a-hanzi-animation-3" stroke-dasharray="414 828" stroke-linecap="round"></path>
    
      <clipPath id="make-me-a-hanzi-clip-4">
        <path d="M 241 233 Q 248 232 257 234 Q 297 244 386 253 Q 396 254 396 262 Q 396 269 374 283 C 359 293 355 292 326 284 Q 277 271 237 261 C 208 254 211 235 241 233 Z"></path>
      </clipPath>
      <path clip-path="url(#make-me-a-hanzi-clip-4)" d="M 245 241 L 254 249 L 332 266 L 368 268 L 387 262" fill="none" id="make-me-a-hanzi-animation-4" stroke-dasharray="276 552" stroke-linecap="round"></path>
    
      <clipPath id="make-me-a-hanzi-clip-5">
        <path d="M 510 759 Q 474 755 499 738 Q 538 711 593 724 Q 674 737 758 752 Q 795 759 802 765 Q 811 772 807 780 Q 800 792 772 800 Q 748 806 660 782 Q 591 766 510 759 Z"></path>
      </clipPath>
      <path clip-path="url(#make-me-a-hanzi-clip-5)" d="M 501 750 L 526 742 L 565 742 L 742 775 L 795 776" fill="none" id="make-me-a-hanzi-animation-5" stroke-dasharray="426 852" stroke-linecap="round"></path>
    
      <clipPath id="make-me-a-hanzi-clip-6">
        <path d="M 497 648 Q 487 652 462 656 Q 452 659 448 654 Q 444 648 451 634 Q 478 579 494 488 Q 498 460 513 442 Q 529 423 534 437 Q 537 446 537 459 L 535 488 Q 522 527 512 620 C 509 644 509 644 497 648 Z"></path>
      </clipPath>
      <path clip-path="url(#make-me-a-hanzi-clip-6)" d="M 456 649 L 478 630 L 490 607 L 524 442" fill="none" id="make-me-a-hanzi-animation-6" stroke-dasharray="351 702" stroke-linecap="round"></path>
    
      <clipPath id="make-me-a-hanzi-clip-7">
        <path d="M 732 477 Q 742 464 753 458 Q 762 451 776 469 Q 788 488 815 592 Q 822 619 844 640 Q 856 650 845 663 Q 832 678 795 701 Q 780 708 704 691 Q 701 691 699 690 Q 528 654 497 648 C 468 642 483 613 512 620 Q 515 620 522 622 Q 558 634 610 644 L 643 650 Q 746 675 762 661 Q 772 648 770 637 Q 751 538 742 523 Q 739 514 724 509 C 710 501 712 499 732 477 Z"></path>
      </clipPath>
      <path clip-path="url(#make-me-a-hanzi-clip-7)" d="M 501 641 L 519 637 L 620 662 L 653 663 L 664 672 L 676 669 L 688 677 L 696 674 L 740 684 L 785 676 L 805 651 L 773 531 L 757 495 L 733 506" fill="none" id="make-me-a-hanzi-animation-7" stroke-dasharray="646 1292" stroke-linecap="round"></path>
    
      <clipPath id="make-me-a-hanzi-clip-8">
        <path d="M 662 557 Q 684 561 705 564 Q 724 567 717 578 Q 708 590 687 593 Q 677 594 664 592 L 619 581 Q 586 571 558 562 Q 545 559 561 547 Q 568 543 583 544 Q 602 548 620 550 L 662 557 Z"></path>
      </clipPath>
      <path clip-path="url(#make-me-a-hanzi-clip-8)" d="M 568 556 L 660 575 L 690 578 L 709 573" fill="none" id="make-me-a-hanzi-animation-8" stroke-dasharray="272 544" stroke-linecap="round"></path>
    
      <clipPath id="make-me-a-hanzi-clip-9">
        <path d="M 659 507 Q 660 534 662 557 L 664 592 Q 664 595 665 597 Q 669 625 665 631 Q 655 643 643 650 C 618 666 603 673 610 644 Q 616 620 619 581 L 620 550 Q 620 531 622 501 C 624 471 658 477 659 507 Z"></path>
      </clipPath>
      <path clip-path="url(#make-me-a-hanzi-clip-9)" d="M 617 639 L 638 625 L 642 608 L 641 528 L 627 508" fill="none" id="make-me-a-hanzi-animation-9" stroke-dasharray="275 550" stroke-linecap="round"></path>
    
      <clipPath id="make-me-a-hanzi-clip-10">
        <path d="M 537 459 Q 547 458 557 460 Q 612 470 732 477 C 762 479 748 491 724 509 Q 723 510 722 511 Q 701 526 659 507 L 622 501 Q 576 494 535 488 C 505 484 507 460 537 459 Z"></path>
      </clipPath>
      <path clip-path="url(#make-me-a-hanzi-clip-10)" d="M 542 467 L 558 476 L 691 496 L 706 496 L 721 480" fill="none" id="make-me-a-hanzi-animation-10" stroke-dasharray="318 636" stroke-linecap="round"></path>
    
      <clipPath id="make-me-a-hanzi-clip-11">
        <path d="M 435 388 Q 416 387 430 371 Q 443 358 459 353 Q 478 349 492 352 Q 624 385 924 385 Q 942 385 946 392 Q 950 402 937 416 Q 889 452 857 444 Q 730 420 435 388 Z"></path>
      </clipPath>
      <path clip-path="url(#make-me-a-hanzi-clip-11)" d="M 432 380 L 477 371 L 606 391 L 866 415 L 918 406 L 937 397" fill="none" id="make-me-a-hanzi-animation-11" stroke-dasharray="639 1278" stroke-linecap="round"></path>
    
      <clipPath id="make-me-a-hanzi-clip-12">
        <path d="M 504 301 Q 494 308 461 312 Q 451 315 447 310 Q 441 304 449 289 Q 477 234 493 144 Q 497 116 513 99 Q 529 78 534 93 Q 535 100 537 107 L 536 135 Q 530 163 514 272 C 510 298 510 298 504 301 Z"></path>
      </clipPath>
      <path clip-path="url(#make-me-a-hanzi-clip-12)" d="M 455 303 L 482 281 L 487 269 L 524 98" fill="none" id="make-me-a-hanzi-animation-12" stroke-dasharray="351 702" stroke-linecap="round"></path>
    
      <clipPath id="make-me-a-hanzi-clip-13">
        <path d="M 747 125 Q 757 112 769 106 Q 779 99 791 118 Q 801 137 824 237 Q 831 265 851 287 Q 863 297 852 310 Q 839 325 800 347 Q 784 353 721 339 Q 694 339 504 301 C 475 295 485 266 514 272 Q 517 272 522 273 Q 556 283 603 290 L 638 296 Q 677 303 728 309 Q 756 313 766 303 Q 776 293 775 281 Q 762 185 755 170 Q 751 161 742 157 C 728 145 728 145 747 125 Z"></path>
      </clipPath>
      <path clip-path="url(#make-me-a-hanzi-clip-13)" d="M 517 281 L 545 297 L 663 317 L 757 328 L 786 322 L 811 296 L 772 145 L 775 121" fill="none" id="make-me-a-hanzi-animation-13" stroke-dasharray="620 1240" stroke-linecap="round"></path>
    
      <clipPath id="make-me-a-hanzi-clip-14">
        <path d="M 654 212 Q 685 218 716 220 Q 735 223 729 234 Q 720 246 699 250 Q 683 254 657 247 L 611 236 Q 580 229 554 222 Q 541 219 557 207 Q 561 204 612 207 L 654 212 Z"></path>
      </clipPath>
      <path clip-path="url(#make-me-a-hanzi-clip-14)" d="M 562 216 L 600 217 L 681 235 L 720 230" fill="none" id="make-me-a-hanzi-animation-14" stroke-dasharray="288 576" stroke-linecap="round"></path>
    
      <clipPath id="make-me-a-hanzi-clip-15">
        <path d="M 650 152 Q 651 185 654 212 L 657 247 Q 663 272 657 279 Q 647 289 638 296 C 615 315 592 318 603 290 Q 607 286 611 236 L 612 207 Q 612 182 614 146 C 616 116 649 122 650 152 Z"></path>
      </clipPath>
      <path clip-path="url(#make-me-a-hanzi-clip-15)" d="M 609 290 L 634 266 L 632 168 L 619 155" fill="none" id="make-me-a-hanzi-animation-15" stroke-dasharray="279 558" stroke-linecap="round"></path>
    
      <clipPath id="make-me-a-hanzi-clip-16">
        <path d="M 537 107 Q 543 106 552 107 Q 613 120 747 125 C 777 126 767 141 742 157 Q 741 158 738 160 Q 726 167 650 152 L 614 146 Q 571 142 536 135 C 507 129 507 109 537 107 Z"></path>
      </clipPath>
      <path clip-path="url(#make-me-a-hanzi-clip-16)" d="M 545 114 L 560 125 L 686 142 L 725 143 L 737 129" fill="none" id="make-me-a-hanzi-animation-16" stroke-dasharray="331 662" stroke-linecap="round"></path>
    
      <clipPath id="make-me-a-hanzi-clip-17">
        <path d="M 382 41 Q 360 40 375 22 Q 388 9 406 2 Q 427 -5 443 -1 Q 638 38 924 17 Q 943 16 949 24 Q 955 36 939 50 Q 890 92 851 86 Q 752 70 382 41 Z"></path>
      </clipPath>
      <path clip-path="url(#make-me-a-hanzi-clip-17)" d="M 378 32 L 434 21 L 591 40 L 867 54 L 938 31" fill="none" id="make-me-a-hanzi-animation-17" stroke-dasharray="694 1388" stroke-linecap="round"></path>
    
  </g>
</svg>