<svg version="1.1" viewBox="0 0 1024 1024" xmlns="http://www.w3.org/2000/svg">
  <g stroke="lightgray" stroke-dasharray="1,1" stroke-width="1" transform="scale(4, 4)">
    <line x1="0" y1="0" x2="256" y2="256"></line>
    <line x1="256" y1="0" x2="0" y2="256"></line>
    <line x1="128" y1="0" x2="128" y2="256"></line>
    <line x1="0" y1="128" x2="256" y2="128"></line>
  </g>
  <g transform="scale(1, -1) translate(0, -900)">
    <style type="text/css">
      
        @keyframes keyframes0 {
          from {
            stroke: blue;
            stroke-dashoffset: 571;
            stroke-width: 128;
          }
          65% {
            animation-timing-function: step-end;
            stroke: blue;
            stroke-dashoffset: 0;
            stroke-width: 128;
          }
          to {
            stroke: black;
            stroke-width: 1024;
          }
        }
        #make-me-a-hanzi-animation-0 {
          animation: keyframes0 0.7146809895833334s both;
          animation-delay: 0s;
          animation-timing-function: linear;
        }
      
        @keyframes keyframes1 {
          from {
            stroke: blue;
            stroke-dashoffset: 932;
            stroke-width: 128;
          }
          75% {
            animation-timing-function: step-end;
            stroke: blue;
            stroke-dashoffset: 0;
            stroke-width: 128;
          }
          to {
            stroke: black;
            stroke-width: 1024;
          }
        }
        #make-me-a-hanzi-animation-1 {
          animation: keyframes1 1.0084635416666667s both;
          animation-delay: 0.7146809895833334s;
          animation-timing-function: linear;
        }
      
        @keyframes keyframes2 {
          from {
            stroke: blue;
            stroke-dashoffset: 445;
            stroke-width: 128;
          }
          59% {
            animation-timing-function: step-end;
            stroke: blue;
            stroke-dashoffset: 0;
            stroke-width: 128;
          }
          to {
            stroke: black;
            stroke-width: 1024;
          }
        }
        #make-me-a-hanzi-animation-2 {
          animation: keyframes2 0.6121419270833334s both;
          animation-delay: 1.72314453125s;
          animation-timing-function: linear;
        }
      
        @keyframes keyframes3 {
          from {
            stroke: blue;
            stroke-dashoffset: 483;
            stroke-width: 128;
          }
          61% {
            animation-timing-function: step-end;
            stroke: blue;
            stroke-dashoffset: 0;
            stroke-width: 128;
          }
          to {
            stroke: black;
            stroke-width: 1024;
          }
        }
        #make-me-a-hanzi-animation-3 {
          animation: keyframes3 0.64306640625s both;
          animation-delay: 2.3352864583333335s;
          animation-timing-function: linear;
        }
      
        @keyframes keyframes4 {
          from {
            stroke: blue;
            stroke-dashoffset: 581;
            stroke-width: 128;
          }
          65% {
            animation-timing-function: step-end;
            stroke: blue;
            stroke-dashoffset: 0;
            stroke-width: 128;
          }
          to {
            stroke: black;
            stroke-width: 1024;
          }
        }
        #make-me-a-hanzi-animation-4 {
          animation: keyframes4 0.7228190104166666s both;
          animation-delay: 2.9783528645833335s;
          animation-timing-function: linear;
        }
      
        @keyframes keyframes5 {
          from {
            stroke: blue;
            stroke-dashoffset: 1324;
            stroke-width: 128;
          }
          81% {
            animation-timing-function: step-end;
            stroke: blue;
            stroke-dashoffset: 0;
            stroke-width: 128;
          }
          to {
            stroke: black;
            stroke-width: 1024;
          }
        }
        #make-me-a-hanzi-animation-5 {
          animation: keyframes5 1.3274739583333333s both;
          animation-delay: 3.701171875s;
          animation-timing-function: linear;
        }
      
        @keyframes keyframes6 {
          from {
            stroke: blue;
            stroke-dashoffset: 775;
            stroke-width: 128;
          }
          72% {
            animation-timing-function: step-end;
            stroke: blue;
            stroke-dashoffset: 0;
            stroke-width: 128;
          }
          to {
            stroke: black;
            stroke-width: 1024;
          }
        }
        #make-me-a-hanzi-animation-6 {
          animation: keyframes6 0.8806966145833334s both;
          animation-delay: 5.028645833333333s;
          animation-timing-function: linear;
        }
      
        @keyframes keyframes7 {
          from {
            stroke: blue;
            stroke-dashoffset: 559;
            stroke-width: 128;
          }
          65% {
            animation-timing-function: step-end;
            stroke: blue;
            stroke-dashoffset: 0;
            stroke-width: 128;
          }
          to {
            stroke: black;
            stroke-width: 1024;
          }
        }
        #make-me-a-hanzi-animation-7 {
          animation: keyframes7 0.7049153645833334s both;
          animation-delay: 5.909342447916666s;
          animation-timing-function: linear;
        }
      
        @keyframes keyframes8 {
          from {
            stroke: blue;
            stroke-dashoffset: 422;
            stroke-width: 128;
          }
          58% {
            animation-timing-function: step-end;
            stroke: blue;
            stroke-dashoffset: 0;
            stroke-width: 128;
          }
          to {
            stroke: black;
            stroke-width: 1024;
          }
        }
        #make-me-a-hanzi-animation-8 {
          animation: keyframes8 0.5934244791666666s both;
          animation-delay: 6.614257812499999s;
          animation-timing-function: linear;
        }
      
    </style>
    
      <path d="M 321 728 Q 308 735 270 740 Q 257 744 253 738 Q 246 731 256 713 Q 295 634 319 505 Q 323 466 346 440 Q 367 416 371 434 Q 372 441 374 449 L 374 477 Q 373 496 368 520 Q 340 650 333 694 C 328 724 328 725 321 728 Z" fill="lightgray"></path>
    
      <path d="M 591 482 Q 607 454 624 445 Q 634 436 651 458 Q 670 489 713 661 Q 723 692 747 718 Q 760 730 750 745 Q 734 763 691 790 Q 670 800 605 782 Q 587 782 321 728 C 292 722 304 685 333 694 Q 379 709 449 722 L 491 731 Q 540 741 601 750 Q 640 756 652 743 Q 668 724 663 704 Q 624 530 606 512 C 592 486 590 483 591 482 Z" fill="lightgray"></path>
    
      <path d="M 516 598 Q 550 607 580 611 Q 602 615 593 628 Q 583 643 557 646 Q 541 647 518 641 L 472 626 Q 432 613 398 601 Q 382 597 403 583 Q 410 579 472 590 L 516 598 Z" fill="lightgray"></path>
    
      <path d="M 512 470 Q 552 479 591 482 C 621 485 633 499 606 512 Q 582 527 524 513 Q 518 513 513 509 L 470 499 Q 419 489 374 477 C 345 469 344 448 374 449 Q 380 449 389 450 Q 429 457 469 463 L 512 470 Z" fill="lightgray"></path>
    
      <path d="M 222 341 Q 198 359 181 361 Q 175 365 170 357 Q 166 350 171 337 Q 190 301 194 269 Q 198 196 192 115 Q 188 90 198 70 Q 211 49 228 36 Q 243 27 245 39 Q 252 43 254 65 Q 258 84 252 145 Q 243 290 249 297 C 253 319 247 324 222 341 Z" fill="lightgray"></path>
    
      <path d="M 509 356 Q 746 392 774 365 Q 781 356 778 341 Q 765 109 748 76 Q 744 66 730 70 Q 702 76 669 82 Q 639 86 660 66 Q 727 11 754 -30 Q 767 -48 783 -35 Q 804 -16 814 16 Q 827 50 834 235 Q 835 305 857 338 Q 873 360 867 369 Q 858 384 803 419 Q 784 435 766 428 Q 735 416 677 407 Q 583 398 510 388 L 467 383 Q 382 373 335 361 Q 271 348 222 341 C 192 336 220 288 249 297 Q 256 298 265 301 Q 332 325 455 349 Q 459 350 466 350 L 509 356 Z" fill="lightgray"></path>
    
      <path d="M 506 226 Q 507 293 509 356 L 510 388 Q 510 431 512 470 L 513 509 Q 514 555 516 598 L 518 641 Q 521 702 520 705 Q 505 720 491 731 C 468 750 436 749 449 722 Q 456 706 464 693 Q 471 669 472 626 L 472 590 Q 471 557 470 499 L 469 463 Q 468 427 467 383 L 466 350 Q 465 290 464 216 C 464 186 506 196 506 226 Z" fill="lightgray"></path>
    
      <path d="M 595 249 Q 552 239 506 226 L 464 216 Q 340 191 316 192 Q 304 191 302 182 Q 299 169 307 161 Q 328 145 358 125 Q 368 121 380 129 Q 405 147 590 219 Q 600 223 610 227 C 638 238 624 256 595 249 Z" fill="lightgray"></path>
    
      <path d="M 610 227 Q 650 160 662 153 Q 669 152 677 158 Q 690 167 686 205 Q 683 250 580 305 Q 573 311 570 301 Q 567 294 595 249 L 610 227 Z" fill="lightgray"></path>
    
    
      <clipPath id="make-me-a-hanzi-clip-0">
        <path d="M 321 728 Q 308 735 270 740 Q 257 744 253 738 Q 246 731 256 713 Q 295 634 319 505 Q 323 466 346 440 Q 367 416 371 434 Q 372 441 374 449 L 374 477 Q 373 496 368 520 Q 340 650 333 694 C 328 724 328 725 321 728 Z"></path>
      </clipPath>
      <path clip-path="url(#make-me-a-hanzi-clip-0)" d="M 261 730 L 291 707 L 301 689 L 359 439" fill="none" id="make-me-a-hanzi-animation-0" stroke-dasharray="443 886" stroke-linecap="round"></path>
    
      <clipPath id="make-me-a-hanzi-clip-1">
        <path d="M 591 482 Q 607 454 624 445 Q 634 436 651 458 Q 670 489 713 661 Q 723 692 747 718 Q 760 730 750 745 Q 734 763 691 790 Q 670 800 605 782 Q 587 782 321 728 C 292 722 304 685 333 694 Q 379 709 449 722 L 491 731 Q 540 741 601 750 Q 640 756 652 743 Q 668 724 663 704 Q 624 530 606 512 C 592 486 590 483 591 482 Z"></path>
      </clipPath>
      <path clip-path="url(#make-me-a-hanzi-clip-1)" d="M 337 702 L 347 716 L 364 723 L 566 761 L 638 771 L 678 761 L 701 735 L 703 725 L 641 512 L 629 486 L 604 482" fill="none" id="make-me-a-hanzi-animation-1" stroke-dasharray="804 1608" stroke-linecap="round"></path>
    
      <clipPath id="make-me-a-hanzi-clip-2">
        <path d="M 516 598 Q 550 607 580 611 Q 602 615 593 628 Q 583 643 557 646 Q 541 647 518 641 L 472 626 Q 432 613 398 601 Q 382 597 403 583 Q 410 579 472 590 L 516 598 Z"></path>
      </clipPath>
      <path clip-path="url(#make-me-a-hanzi-clip-2)" d="M 400 592 L 551 627 L 584 621" fill="none" id="make-me-a-hanzi-animation-2" stroke-dasharray="317 634" stroke-linecap="round"></path>
    
      <clipPath id="make-me-a-hanzi-clip-3">
        <path d="M 512 470 Q 552 479 591 482 C 621 485 633 499 606 512 Q 582 527 524 513 Q 518 513 513 509 L 470 499 Q 419 489 374 477 C 345 469 344 448 374 449 Q 380 449 389 450 Q 429 457 469 463 L 512 470 Z"></path>
      </clipPath>
      <path clip-path="url(#make-me-a-hanzi-clip-3)" d="M 381 456 L 397 468 L 578 500 L 599 509" fill="none" id="make-me-a-hanzi-animation-3" stroke-dasharray="355 710" stroke-linecap="round"></path>
    
      <clipPath id="make-me-a-hanzi-clip-4">
        <path d="M 222 341 Q 198 359 181 361 Q 175 365 170 357 Q 166 350 171 337 Q 190 301 194 269 Q 198 196 192 115 Q 188 90 198 70 Q 211 49 228 36 Q 243 27 245 39 Q 252 43 254 65 Q 258 84 252 145 Q 243 290 249 297 C 253 319 247 324 222 341 Z"></path>
      </clipPath>
      <path clip-path="url(#make-me-a-hanzi-clip-4)" d="M 178 351 L 205 323 L 219 292 L 223 96 L 236 41" fill="none" id="make-me-a-hanzi-animation-4" stroke-dasharray="453 906" stroke-linecap="round"></path>
    
      <clipPath id="make-me-a-hanzi-clip-5">
        <path d="M 509 356 Q 746 392 774 365 Q 781 356 778 341 Q 765 109 748 76 Q 744 66 730 70 Q 702 76 669 82 Q 639 86 660 66 Q 727 11 754 -30 Q 767 -48 783 -35 Q 804 -16 814 16 Q 827 50 834 235 Q 835 305 857 338 Q 873 360 867 369 Q 858 384 803 419 Q 784 435 766 428 Q 735 416 677 407 Q 583 398 510 388 L 467 383 Q 382 373 335 361 Q 271 348 222 341 C 192 336 220 288 249 297 Q 256 298 265 301 Q 332 325 455 349 Q 459 350 466 350 L 509 356 Z"></path>
      </clipPath>
      <path clip-path="url(#make-me-a-hanzi-clip-5)" d="M 229 338 L 263 324 L 381 353 L 560 380 L 770 399 L 795 388 L 820 357 L 807 300 L 796 134 L 780 49 L 768 30 L 757 31 L 661 76" fill="none" id="make-me-a-hanzi-animation-5" stroke-dasharray="1196 2392" stroke-linecap="round"></path>
    
      <clipPath id="make-me-a-hanzi-clip-6">
        <path d="M 506 226 Q 507 293 509 356 L 510 388 Q 510 431 512 470 L 513 509 Q 514 555 516 598 L 518 641 Q 521 702 520 705 Q 505 720 491 731 C 468 750 436 749 449 722 Q 456 706 464 693 Q 471 669 472 626 L 472 590 Q 471 557 470 499 L 469 463 Q 468 427 467 383 L 466 350 Q 465 290 464 216 C 464 186 506 196 506 226 Z"></path>
      </clipPath>
      <path clip-path="url(#make-me-a-hanzi-clip-6)" d="M 457 719 L 485 705 L 495 673 L 486 249 L 469 224" fill="none" id="make-me-a-hanzi-animation-6" stroke-dasharray="647 1294" stroke-linecap="round"></path>
    
      <clipPath id="make-me-a-hanzi-clip-7">
        <path d="M 595 249 Q 552 239 506 226 L 464 216 Q 340 191 316 192 Q 304 191 302 182 Q 299 169 307 161 Q 328 145 358 125 Q 368 121 380 129 Q 405 147 590 219 Q 600 223 610 227 C 638 238 624 256 595 249 Z"></path>
      </clipPath>
      <path clip-path="url(#make-me-a-hanzi-clip-7)" d="M 315 179 L 324 172 L 370 163 L 562 226 L 589 233 L 603 230" fill="none" id="make-me-a-hanzi-animation-7" stroke-dasharray="431 862" stroke-linecap="round"></path>
    
      <clipPath id="make-me-a-hanzi-clip-8">
        <path d="M 610 227 Q 650 160 662 153 Q 669 152 677 158 Q 690 167 686 205 Q 683 250 580 305 Q 573 311 570 301 Q 567 294 595 249 L 610 227 Z"></path>
      </clipPath>
      <path clip-path="url(#make-me-a-hanzi-clip-8)" d="M 577 299 L 649 220 L 662 193 L 667 164" fill="none" id="make-me-a-hanzi-animation-8" stroke-dasharray="294 588" stroke-linecap="round"></path>
    
  </g>
</svg>