<svg version="1.1" viewBox="0 0 1024 1024" xmlns="http://www.w3.org/2000/svg">
  <g stroke="lightgray" stroke-dasharray="1,1" stroke-width="1" transform="scale(4, 4)">
    <line x1="0" y1="0" x2="256" y2="256"></line>
    <line x1="256" y1="0" x2="0" y2="256"></line>
    <line x1="128" y1="0" x2="128" y2="256"></line>
    <line x1="0" y1="128" x2="256" y2="128"></line>
  </g>
  <g transform="scale(1, -1) translate(0, -900)">
    <style type="text/css">
      
        @keyframes keyframes0 {
          from {
            stroke: blue;
            stroke-dashoffset: 644;
            stroke-width: 128;
          }
          68% {
            animation-timing-function: step-end;
            stroke: blue;
            stroke-dashoffset: 0;
            stroke-width: 128;
          }
          to {
            stroke: black;
            stroke-width: 1024;
          }
        }
        #make-me-a-hanzi-animation-0 {
          animation: keyframes0 0.7740885416666666s both;
          animation-delay: 0s;
          animation-timing-function: linear;
        }
      
        @keyframes keyframes1 {
          from {
            stroke: blue;
            stroke-dashoffset: 875;
            stroke-width: 128;
          }
          74% {
            animation-timing-function: step-end;
            stroke: blue;
            stroke-dashoffset: 0;
            stroke-width: 128;
          }
          to {
            stroke: black;
            stroke-width: 1024;
          }
        }
        #make-me-a-hanzi-animation-1 {
          animation: keyframes1 0.9620768229166666s both;
          animation-delay: 0.7740885416666666s;
          animation-timing-function: linear;
        }
      
        @keyframes keyframes2 {
          from {
            stroke: blue;
            stroke-dashoffset: 605;
            stroke-width: 128;
          }
          66% {
            animation-timing-function: step-end;
            stroke: blue;
            stroke-dashoffset: 0;
            stroke-width: 128;
          }
          to {
            stroke: black;
            stroke-width: 1024;
          }
        }
        #make-me-a-hanzi-animation-2 {
          animation: keyframes2 0.7423502604166666s both;
          animation-delay: 1.7361653645833333s;
          animation-timing-function: linear;
        }
      
        @keyframes keyframes3 {
          from {
            stroke: blue;
            stroke-dashoffset: 672;
            stroke-width: 128;
          }
          69% {
            animation-timing-function: step-end;
            stroke: blue;
            stroke-dashoffset: 0;
            stroke-width: 128;
          }
          to {
            stroke: black;
            stroke-width: 1024;
          }
        }
        #make-me-a-hanzi-animation-3 {
          animation: keyframes3 0.796875s both;
          animation-delay: 2.478515625s;
          animation-timing-function: linear;
        }
      
        @keyframes keyframes4 {
          from {
            stroke: blue;
            stroke-dashoffset: 704;
            stroke-width: 128;
          }
          70% {
            animation-timing-function: step-end;
            stroke: blue;
            stroke-dashoffset: 0;
            stroke-width: 128;
          }
          to {
            stroke: black;
            stroke-width: 1024;
          }
        }
        #make-me-a-hanzi-animation-4 {
          animation: keyframes4 0.8229166666666666s both;
          animation-delay: 3.275390625s;
          animation-timing-function: linear;
        }
      
        @keyframes keyframes5 {
          from {
            stroke: blue;
            stroke-dashoffset: 692;
            stroke-width: 128;
          }
          69% {
            animation-timing-function: step-end;
            stroke: blue;
            stroke-dashoffset: 0;
            stroke-width: 128;
          }
          to {
            stroke: black;
            stroke-width: 1024;
          }
        }
        #make-me-a-hanzi-animation-5 {
          animation: keyframes5 0.8131510416666666s both;
          animation-delay: 4.098307291666667s;
          animation-timing-function: linear;
        }
      
        @keyframes keyframes6 {
          from {
            stroke: blue;
            stroke-dashoffset: 1164;
            stroke-width: 128;
          }
          79% {
            animation-timing-function: step-end;
            stroke: blue;
            stroke-dashoffset: 0;
            stroke-width: 128;
          }
          to {
            stroke: black;
            stroke-width: 1024;
          }
        }
        #make-me-a-hanzi-animation-6 {
          animation: keyframes6 1.197265625s both;
          animation-delay: 4.911458333333334s;
          animation-timing-function: linear;
        }
      
    </style>
    
      <path d="M 499 719 Q 599 758 646 763 Q 662 763 667 770 Q 671 780 660 792 Q 641 810 598 829 Q 583 838 570 837 Q 563 834 561 823 Q 555 781 315 689 Q 308 688 302 684 Q 296 675 302 672 Q 308 671 455 706 L 499 719 Z" fill="lightgray"></path>
    
      <path d="M 538 580 Q 622 590 741 592 Q 805 592 812 602 Q 816 612 801 626 Q 749 662 713 654 Q 641 638 528 616 L 475 606 Q 346 588 196 566 Q 175 563 191 547 Q 204 534 222 529 Q 243 525 258 529 Q 340 554 435 566 L 538 580 Z" fill="lightgray"></path>
    
      <path d="M 528 616 Q 528 620 529 622 Q 530 644 545 673 Q 551 682 540 695 Q 521 710 499 719 C 472 731 441 733 455 706 Q 474 675 475 606 L 476 541 Q 476 456 470 424 Q 469 414 485 374 Q 495 359 509 367 Q 522 379 519 460 Q 518 511 521 558 L 528 616 Z" fill="lightgray"></path>
    
      <path d="M 435 566 Q 411 515 307 436 Q 214 376 135 334 Q 117 325 132 321 Q 156 315 252 352 Q 330 394 387 445 Q 421 476 476 541 C 504 574 462 616 435 566 Z" fill="lightgray"></path>
    
      <path d="M 521 558 Q 600 464 688 378 Q 710 354 750 353 Q 822 349 896 364 Q 915 365 917 371 Q 918 378 904 384 Q 730 445 713 455 Q 637 500 538 580 C 515 599 502 581 521 558 Z" fill="lightgray"></path>
    
      <path d="M 413 314 Q 368 350 345 343 Q 332 339 337 325 Q 361 280 325 163 Q 286 67 207 16 Q 191 6 176 -5 Q 163 -14 175 -16 Q 226 -20 292 34 Q 362 88 394 211 Q 410 274 417 283 C 427 304 427 304 413 314 Z" fill="lightgray"></path>
    
      <path d="M 417 283 Q 438 284 454 291 Q 497 303 544 313 Q 560 317 566 311 Q 572 307 568 287 Q 532 112 583 40 Q 622 1 642 -8 Q 646 -8 653 -11 Q 708 -30 787 -30 Q 862 -29 924 1 Q 948 14 936 42 Q 908 103 901 171 Q 897 180 891 180 Q 888 180 881 166 Q 860 73 837 53 Q 776 20 659 49 Q 640 56 629 69 Q 607 88 601 135 Q 594 181 615 245 Q 628 281 649 300 Q 685 324 606 358 Q 581 370 565 359 Q 525 337 413 314 C 384 308 387 278 417 283 Z" fill="lightgray"></path>
    
    
      <clipPath id="make-me-a-hanzi-clip-0">
        <path d="M 499 719 Q 599 758 646 763 Q 662 763 667 770 Q 671 780 660 792 Q 641 810 598 829 Q 583 838 570 837 Q 563 834 561 823 Q 555 781 315 689 Q 308 688 302 684 Q 296 675 302 672 Q 308 671 455 706 L 499 719 Z"></path>
      </clipPath>
      <path clip-path="url(#make-me-a-hanzi-clip-0)" d="M 658 775 L 633 785 L 589 791 L 519 752 L 438 717 L 381 704 L 368 695 L 356 698 L 350 690 L 329 691 L 322 683 L 303 678" fill="none" id="make-me-a-hanzi-animation-0" stroke-dasharray="516 1032" stroke-linecap="round"></path>
    
      <clipPath id="make-me-a-hanzi-clip-1">
        <path d="M 538 580 Q 622 590 741 592 Q 805 592 812 602 Q 816 612 801 626 Q 749 662 713 654 Q 641 638 528 616 L 475 606 Q 346 588 196 566 Q 175 563 191 547 Q 204 534 222 529 Q 243 525 258 529 Q 340 554 435 566 L 538 580 Z"></path>
      </clipPath>
      <path clip-path="url(#make-me-a-hanzi-clip-1)" d="M 194 556 L 249 550 L 366 574 L 723 624 L 805 607" fill="none" id="make-me-a-hanzi-animation-1" stroke-dasharray="747 1494" stroke-linecap="round"></path>
    
      <clipPath id="make-me-a-hanzi-clip-2">
        <path d="M 528 616 Q 528 620 529 622 Q 530 644 545 673 Q 551 682 540 695 Q 521 710 499 719 C 472 731 441 733 455 706 Q 474 675 475 606 L 476 541 Q 476 456 470 424 Q 469 414 485 374 Q 495 359 509 367 Q 522 379 519 460 Q 518 511 521 558 L 528 616 Z"></path>
      </clipPath>
      <path clip-path="url(#make-me-a-hanzi-clip-2)" d="M 463 704 L 497 686 L 505 664 L 495 435 L 501 377" fill="none" id="make-me-a-hanzi-animation-2" stroke-dasharray="477 954" stroke-linecap="round"></path>
    
      <clipPath id="make-me-a-hanzi-clip-3">
        <path d="M 435 566 Q 411 515 307 436 Q 214 376 135 334 Q 117 325 132 321 Q 156 315 252 352 Q 330 394 387 445 Q 421 476 476 541 C 504 574 462 616 435 566 Z"></path>
      </clipPath>
      <path clip-path="url(#make-me-a-hanzi-clip-3)" d="M 470 564 L 384 471 L 336 430 L 234 365 L 136 327" fill="none" id="make-me-a-hanzi-animation-3" stroke-dasharray="544 1088" stroke-linecap="round"></path>
    
      <clipPath id="make-me-a-hanzi-clip-4">
        <path d="M 521 558 Q 600 464 688 378 Q 710 354 750 353 Q 822 349 896 364 Q 915 365 917 371 Q 918 378 904 384 Q 730 445 713 455 Q 637 500 538 580 C 515 599 502 581 521 558 Z"></path>
      </clipPath>
      <path clip-path="url(#make-me-a-hanzi-clip-4)" d="M 532 572 L 537 561 L 615 488 L 726 402 L 799 385 L 871 376 L 888 379 L 911 372" fill="none" id="make-me-a-hanzi-animation-4" stroke-dasharray="576 1152" stroke-linecap="round"></path>
    
      <clipPath id="make-me-a-hanzi-clip-5">
        <path d="M 413 314 Q 368 350 345 343 Q 332 339 337 325 Q 361 280 325 163 Q 286 67 207 16 Q 191 6 176 -5 Q 163 -14 175 -16 Q 226 -20 292 34 Q 362 88 394 211 Q 410 274 417 283 C 427 304 427 304 413 314 Z"></path>
      </clipPath>
      <path clip-path="url(#make-me-a-hanzi-clip-5)" d="M 347 331 L 374 306 L 381 284 L 361 191 L 332 117 L 293 63 L 258 30 L 182 -11" fill="none" id="make-me-a-hanzi-animation-5" stroke-dasharray="564 1128" stroke-linecap="round"></path>
    
      <clipPath id="make-me-a-hanzi-clip-6">
        <path d="M 417 283 Q 438 284 454 291 Q 497 303 544 313 Q 560 317 566 311 Q 572 307 568 287 Q 532 112 583 40 Q 622 1 642 -8 Q 646 -8 653 -11 Q 708 -30 787 -30 Q 862 -29 924 1 Q 948 14 936 42 Q 908 103 901 171 Q 897 180 891 180 Q 888 180 881 166 Q 860 73 837 53 Q 776 20 659 49 Q 640 56 629 69 Q 607 88 601 135 Q 594 181 615 245 Q 628 281 649 300 Q 685 324 606 358 Q 581 370 565 359 Q 525 337 413 314 C 384 308 387 278 417 283 Z"></path>
      </clipPath>
      <path clip-path="url(#make-me-a-hanzi-clip-6)" d="M 423 292 L 448 307 L 559 335 L 583 335 L 604 320 L 608 314 L 580 213 L 575 162 L 579 119 L 592 75 L 608 51 L 655 19 L 763 2 L 823 8 L 875 28 L 886 36 L 888 153 L 894 173" fill="none" id="make-me-a-hanzi-animation-6" stroke-dasharray="1036 2072" stroke-linecap="round"></path>
    
  </g>
</svg>