<svg version="1.1" viewBox="0 0 1024 1024" xmlns="http://www.w3.org/2000/svg">
  <g stroke="lightgray" stroke-dasharray="1,1" stroke-width="1" transform="scale(4, 4)">
    <line x1="0" y1="0" x2="256" y2="256"></line>
    <line x1="256" y1="0" x2="0" y2="256"></line>
    <line x1="128" y1="0" x2="128" y2="256"></line>
    <line x1="0" y1="128" x2="256" y2="128"></line>
  </g>
  <g transform="scale(1, -1) translate(0, -900)">
    <style type="text/css">
      
        @keyframes keyframes0 {
          from {
            stroke: blue;
            stroke-dashoffset: 561;
            stroke-width: 128;
          }
          65% {
            animation-timing-function: step-end;
            stroke: blue;
            stroke-dashoffset: 0;
            stroke-width: 128;
          }
          to {
            stroke: black;
            stroke-width: 1024;
          }
        }
        #make-me-a-hanzi-animation-0 {
          animation: keyframes0 0.70654296875s both;
          animation-delay: 0s;
          animation-timing-function: linear;
        }
      
        @keyframes keyframes1 {
          from {
            stroke: blue;
            stroke-dashoffset: 567;
            stroke-width: 128;
          }
          65% {
            animation-timing-function: step-end;
            stroke: blue;
            stroke-dashoffset: 0;
            stroke-width: 128;
          }
          to {
            stroke: black;
            stroke-width: 1024;
          }
        }
        #make-me-a-hanzi-animation-1 {
          animation: keyframes1 0.71142578125s both;
          animation-delay: 0.70654296875s;
          animation-timing-function: linear;
        }
      
        @keyframes keyframes2 {
          from {
            stroke: blue;
            stroke-dashoffset: 499;
            stroke-width: 128;
          }
          62% {
            animation-timing-function: step-end;
            stroke: blue;
            stroke-dashoffset: 0;
            stroke-width: 128;
          }
          to {
            stroke: black;
            stroke-width: 1024;
          }
        }
        #make-me-a-hanzi-animation-2 {
          animation: keyframes2 0.6560872395833334s both;
          animation-delay: 1.41796875s;
          animation-timing-function: linear;
        }
      
        @keyframes keyframes3 {
          from {
            stroke: blue;
            stroke-dashoffset: 778;
            stroke-width: 128;
          }
          72% {
            animation-timing-function: step-end;
            stroke: blue;
            stroke-dashoffset: 0;
            stroke-width: 128;
          }
          to {
            stroke: black;
            stroke-width: 1024;
          }
        }
        #make-me-a-hanzi-animation-3 {
          animation: keyframes3 0.8831380208333334s both;
          animation-delay: 2.0740559895833335s;
          animation-timing-function: linear;
        }
      
        @keyframes keyframes4 {
          from {
            stroke: blue;
            stroke-dashoffset: 403;
            stroke-width: 128;
          }
          57% {
            animation-timing-function: step-end;
            stroke: blue;
            stroke-dashoffset: 0;
            stroke-width: 128;
          }
          to {
            stroke: black;
            stroke-width: 1024;
          }
        }
        #make-me-a-hanzi-animation-4 {
          animation: keyframes4 0.5779622395833334s both;
          animation-delay: 2.957194010416667s;
          animation-timing-function: linear;
        }
      
        @keyframes keyframes5 {
          from {
            stroke: blue;
            stroke-dashoffset: 434;
            stroke-width: 128;
          }
          59% {
            animation-timing-function: step-end;
            stroke: blue;
            stroke-dashoffset: 0;
            stroke-width: 128;
          }
          to {
            stroke: black;
            stroke-width: 1024;
          }
        }
        #make-me-a-hanzi-animation-5 {
          animation: keyframes5 0.6031901041666666s both;
          animation-delay: 3.5351562500000004s;
          animation-timing-function: linear;
        }
      
        @keyframes keyframes6 {
          from {
            stroke: blue;
            stroke-dashoffset: 412;
            stroke-width: 128;
          }
          57% {
            animation-timing-function: step-end;
            stroke: blue;
            stroke-dashoffset: 0;
            stroke-width: 128;
          }
          to {
            stroke: black;
            stroke-width: 1024;
          }
        }
        #make-me-a-hanzi-animation-6 {
          animation: keyframes6 0.5852864583333334s both;
          animation-delay: 4.138346354166667s;
          animation-timing-function: linear;
        }
      
        @keyframes keyframes7 {
          from {
            stroke: blue;
            stroke-dashoffset: 417;
            stroke-width: 128;
          }
          58% {
            animation-timing-function: step-end;
            stroke: blue;
            stroke-dashoffset: 0;
            stroke-width: 128;
          }
          to {
            stroke: black;
            stroke-width: 1024;
          }
        }
        #make-me-a-hanzi-animation-7 {
          animation: keyframes7 0.58935546875s both;
          animation-delay: 4.7236328125s;
          animation-timing-function: linear;
        }
      
        @keyframes keyframes8 {
          from {
            stroke: blue;
            stroke-dashoffset: 354;
            stroke-width: 128;
          }
          54% {
            animation-timing-function: step-end;
            stroke: blue;
            stroke-dashoffset: 0;
            stroke-width: 128;
          }
          to {
            stroke: black;
            stroke-width: 1024;
          }
        }
        #make-me-a-hanzi-animation-8 {
          animation: keyframes8 0.5380859375s both;
          animation-delay: 5.31298828125s;
          animation-timing-function: linear;
        }
      
        @keyframes keyframes9 {
          from {
            stroke: blue;
            stroke-dashoffset: 345;
            stroke-width: 128;
          }
          53% {
            animation-timing-function: step-end;
            stroke: blue;
            stroke-dashoffset: 0;
            stroke-width: 128;
          }
          to {
            stroke: black;
            stroke-width: 1024;
          }
        }
        #make-me-a-hanzi-animation-9 {
          animation: keyframes9 0.53076171875s both;
          animation-delay: 5.85107421875s;
          animation-timing-function: linear;
        }
      
        @keyframes keyframes10 {
          from {
            stroke: blue;
            stroke-dashoffset: 318;
            stroke-width: 128;
          }
          51% {
            animation-timing-function: step-end;
            stroke: blue;
            stroke-dashoffset: 0;
            stroke-width: 128;
          }
          to {
            stroke: black;
            stroke-width: 1024;
          }
        }
        #make-me-a-hanzi-animation-10 {
          animation: keyframes10 0.5087890625s both;
          animation-delay: 6.3818359375s;
          animation-timing-function: linear;
        }
      
        @keyframes keyframes11 {
          from {
            stroke: blue;
            stroke-dashoffset: 566;
            stroke-width: 128;
          }
          65% {
            animation-timing-function: step-end;
            stroke: blue;
            stroke-dashoffset: 0;
            stroke-width: 128;
          }
          to {
            stroke: black;
            stroke-width: 1024;
          }
        }
        #make-me-a-hanzi-animation-11 {
          animation: keyframes11 0.7106119791666666s both;
          animation-delay: 6.890625s;
          animation-timing-function: linear;
        }
      
        @keyframes keyframes12 {
          from {
            stroke: blue;
            stroke-dashoffset: 622;
            stroke-width: 128;
          }
          67% {
            animation-timing-function: step-end;
            stroke: blue;
            stroke-dashoffset: 0;
            stroke-width: 128;
          }
          to {
            stroke: black;
            stroke-width: 1024;
          }
        }
        #make-me-a-hanzi-animation-12 {
          animation: keyframes12 0.7561848958333334s both;
          animation-delay: 7.601236979166667s;
          animation-timing-function: linear;
        }
      
        @keyframes keyframes13 {
          from {
            stroke: blue;
            stroke-dashoffset: 925;
            stroke-width: 128;
          }
          75% {
            animation-timing-function: step-end;
            stroke: blue;
            stroke-dashoffset: 0;
            stroke-width: 128;
          }
          to {
            stroke: black;
            stroke-width: 1024;
          }
        }
        #make-me-a-hanzi-animation-13 {
          animation: keyframes13 1.0027669270833333s both;
          animation-delay: 8.357421875s;
          animation-timing-function: linear;
        }
      
        @keyframes keyframes14 {
          from {
            stroke: blue;
            stroke-dashoffset: 685;
            stroke-width: 128;
          }
          69% {
            animation-timing-function: step-end;
            stroke: blue;
            stroke-dashoffset: 0;
            stroke-width: 128;
          }
          to {
            stroke: black;
            stroke-width: 1024;
          }
        }
        #make-me-a-hanzi-animation-14 {
          animation: keyframes14 0.8074544270833334s both;
          animation-delay: 9.360188802083334s;
          animation-timing-function: linear;
        }
      
        @keyframes keyframes15 {
          from {
            stroke: blue;
            stroke-dashoffset: 662;
            stroke-width: 128;
          }
          68% {
            animation-timing-function: step-end;
            stroke: blue;
            stroke-dashoffset: 0;
            stroke-width: 128;
          }
          to {
            stroke: black;
            stroke-width: 1024;
          }
        }
        #make-me-a-hanzi-animation-15 {
          animation: keyframes15 0.7887369791666666s both;
          animation-delay: 10.167643229166668s;
          animation-timing-function: linear;
        }
      
    </style>
    
      <path d="M 280 686 Q 313 735 336 752 Q 343 761 341 772 Q 338 784 315 804 Q 294 820 278 822 Q 262 822 268 803 Q 280 773 215 677 Q 185 634 143 586 Q 134 577 132 572 Q 128 563 140 565 Q 164 568 252 656 Q 258 663 267 671 L 280 686 Z" fill="lightgray"></path>
    
      <path d="M 323 534 Q 342 553 377 593 Q 416 638 454 663 Q 470 672 460 685 Q 448 697 414 717 Q 399 723 385 714 Q 378 711 315 693 Q 299 689 280 686 C 250 681 246 680 267 671 Q 282 659 356 670 Q 363 671 365 670 Q 369 666 363 656 Q 326 578 301 542 L 293 528 C 278 502 302 513 323 534 Z" fill="lightgray"></path>
    
      <path d="M 149 497 Q 139 501 118 504 Q 108 507 104 502 Q 100 496 107 482 Q 135 421 153 320 Q 156 290 173 270 Q 189 251 194 265 Q 195 272 197 279 L 196 306 Q 195 318 193 331 Q 172 439 168 470 C 165 492 165 492 149 497 Z" fill="lightgray"></path>
    
      <path d="M 347 308 Q 365 278 381 270 Q 391 263 405 282 Q 420 306 449 435 Q 458 463 479 486 Q 491 496 480 510 Q 467 525 428 549 Q 409 558 396 553 Q 369 544 330 536 Q 326 536 323 534 L 293 528 Q 268 525 149 497 C 120 490 139 462 168 470 Q 202 480 250 491 L 283 498 Q 373 519 393 508 Q 406 498 402 478 Q 375 334 357 326 C 345 310 345 310 347 308 Z" fill="lightgray"></path>
    
      <path d="M 302 395 Q 324 401 345 403 Q 364 407 357 418 Q 347 430 327 432 Q 317 433 305 430 L 260 418 Q 229 408 201 399 Q 188 395 205 383 Q 211 380 261 388 L 302 395 Z" fill="lightgray"></path>
    
      <path d="M 299 332 Q 300 366 302 395 L 305 430 Q 305 448 307 457 Q 313 475 283 498 C 260 517 235 517 250 491 Q 251 487 255 484 Q 256 478 260 418 L 261 388 Q 261 361 262 321 C 263 291 298 302 299 332 Z" fill="lightgray"></path>
    
      <path d="M 197 279 Q 197 280 199 280 Q 245 293 347 308 C 374 312 374 312 357 326 Q 353 330 342 336 Q 324 345 299 332 L 262 321 Q 225 314 196 306 C 167 298 169 269 197 279 Z" fill="lightgray"></path>
    
      <path d="M 71 215 Q 58 170 47 125 Q 37 103 47 81 Q 51 68 65 58 Q 72 51 84 54 Q 91 57 95 68 Q 99 83 100 207 Q 97 225 92 231 Q 88 235 82 234 Q 78 230 71 215 Z" fill="lightgray"></path>
    
      <path d="M 154 192 Q 166 165 178 134 Q 182 122 192 118 Q 199 115 206 121 Q 213 128 217 150 Q 218 174 166 223 Q 157 230 153 230 Q 149 229 145 221 Q 144 214 154 192 Z" fill="lightgray"></path>
    
      <path d="M 259 205 Q 272 183 284 158 Q 290 148 301 144 Q 308 143 314 149 Q 320 158 321 179 Q 321 201 266 237 Q 257 243 252 242 Q 248 241 246 232 Q 246 225 259 205 Z" fill="lightgray"></path>
    
      <path d="M 352 226 Q 379 178 397 176 Q 407 173 414 187 Q 415 197 411 213 Q 405 225 390 231 Q 368 244 358 246 Q 351 247 349 239 Q 348 233 352 226 Z" fill="lightgray"></path>
    
      <path d="M 652 645 Q 748 702 780 712 Q 796 715 799 723 Q 800 733 788 743 Q 766 755 722 765 Q 706 769 694 767 Q 687 763 688 751 Q 689 711 519 599 Q 515 590 522 588 Q 571 609 622 630 L 652 645 Z" fill="lightgray"></path>
    
      <path d="M 679 479 Q 701 485 862 505 Q 878 506 882 515 Q 886 525 871 535 Q 813 568 767 545 Q 730 535 680 519 L 637 507 Q 577 494 512 476 Q 496 472 510 459 Q 523 449 539 446 Q 558 443 571 449 Q 593 458 621 465 L 679 479 Z" fill="lightgray"></path>
    
      <path d="M 636 375 Q 636 180 613 80 Q 595 67 626 3 Q 635 -24 656 -38 Q 668 -39 673 -26 Q 685 5 682 37 Q 676 218 677 373 L 678 417 Q 678 451 679 479 L 680 519 Q 681 574 688 603 Q 689 616 683 622 Q 667 637 652 645 C 627 661 614 659 622 630 Q 631 612 637 507 L 636 375 Z" fill="lightgray"></path>
    
      <path d="M 621 465 Q 579 315 408 134 Q 402 128 397 122 Q 387 109 396 109 Q 405 106 415 113 Q 535 183 631 365 Q 632 371 636 375 C 695 492 630 494 621 465 Z" fill="lightgray"></path>
    
      <path d="M 677 373 Q 734 283 806 186 Q 822 167 851 165 Q 950 164 981 167 Q 991 168 992 173 Q 993 177 980 185 Q 839 251 769 322 Q 724 365 678 417 C 658 439 661 398 677 373 Z" fill="lightgray"></path>
    
    
      <clipPath id="make-me-a-hanzi-clip-0">
        <path d="M 280 686 Q 313 735 336 752 Q 343 761 341 772 Q 338 784 315 804 Q 294 820 278 822 Q 262 822 268 803 Q 280 773 215 677 Q 185 634 143 586 Q 134 577 132 572 Q 128 563 140 565 Q 164 568 252 656 Q 258 663 267 671 L 280 686 Z"></path>
      </clipPath>
      <path clip-path="url(#make-me-a-hanzi-clip-0)" d="M 277 810 L 295 789 L 300 765 L 216 644 L 139 572" fill="none" id="make-me-a-hanzi-animation-0" stroke-dasharray="433 866" stroke-linecap="round"></path>
    
      <clipPath id="make-me-a-hanzi-clip-1">
        <path d="M 323 534 Q 342 553 377 593 Q 416 638 454 663 Q 470 672 460 685 Q 448 697 414 717 Q 399 723 385 714 Q 378 711 315 693 Q 299 689 280 686 C 250 681 246 680 267 671 Q 282 659 356 670 Q 363 671 365 670 Q 369 666 363 656 Q 326 578 301 542 L 293 528 C 278 502 302 513 323 534 Z"></path>
      </clipPath>
      <path clip-path="url(#make-me-a-hanzi-clip-1)" d="M 272 673 L 369 689 L 405 676 L 357 597 L 319 546 L 304 536" fill="none" id="make-me-a-hanzi-animation-1" stroke-dasharray="439 878" stroke-linecap="round"></path>
    
      <clipPath id="make-me-a-hanzi-clip-2">
        <path d="M 149 497 Q 139 501 118 504 Q 108 507 104 502 Q 100 496 107 482 Q 135 421 153 320 Q 156 290 173 270 Q 189 251 194 265 Q 195 272 197 279 L 196 306 Q 195 318 193 331 Q 172 439 168 470 C 165 492 165 492 149 497 Z"></path>
      </clipPath>
      <path clip-path="url(#make-me-a-hanzi-clip-2)" d="M 112 497 L 143 461 L 184 270" fill="none" id="make-me-a-hanzi-animation-2" stroke-dasharray="371 742" stroke-linecap="round"></path>
    
      <clipPath id="make-me-a-hanzi-clip-3">
        <path d="M 347 308 Q 365 278 381 270 Q 391 263 405 282 Q 420 306 449 435 Q 458 463 479 486 Q 491 496 480 510 Q 467 525 428 549 Q 409 558 396 553 Q 369 544 330 536 Q 326 536 323 534 L 293 528 Q 268 525 149 497 C 120 490 139 462 168 470 Q 202 480 250 491 L 283 498 Q 373 519 393 508 Q 406 498 402 478 Q 375 334 357 326 C 345 310 345 310 347 308 Z"></path>
      </clipPath>
      <path clip-path="url(#make-me-a-hanzi-clip-3)" d="M 161 499 L 174 487 L 384 530 L 408 529 L 431 509 L 439 497 L 395 333 L 383 308 L 360 307" fill="none" id="make-me-a-hanzi-animation-3" stroke-dasharray="650 1300" stroke-linecap="round"></path>
    
      <clipPath id="make-me-a-hanzi-clip-4">
        <path d="M 302 395 Q 324 401 345 403 Q 364 407 357 418 Q 347 430 327 432 Q 317 433 305 430 L 260 418 Q 229 408 201 399 Q 188 395 205 383 Q 211 380 261 388 L 302 395 Z"></path>
      </clipPath>
      <path clip-path="url(#make-me-a-hanzi-clip-4)" d="M 204 391 L 313 415 L 348 413" fill="none" id="make-me-a-hanzi-animation-4" stroke-dasharray="275 550" stroke-linecap="round"></path>
    
      <clipPath id="make-me-a-hanzi-clip-5">
        <path d="M 299 332 Q 300 366 302 395 L 305 430 Q 305 448 307 457 Q 313 475 283 498 C 260 517 235 517 250 491 Q 251 487 255 484 Q 256 478 260 418 L 261 388 Q 261 361 262 321 C 263 291 298 302 299 332 Z"></path>
      </clipPath>
      <path clip-path="url(#make-me-a-hanzi-clip-5)" d="M 256 490 L 278 474 L 282 463 L 281 358 L 277 340 L 266 329" fill="none" id="make-me-a-hanzi-animation-5" stroke-dasharray="306 612" stroke-linecap="round"></path>
    
      <clipPath id="make-me-a-hanzi-clip-6">
        <path d="M 197 279 Q 197 280 199 280 Q 245 293 347 308 C 374 312 374 312 357 326 Q 353 330 342 336 Q 324 345 299 332 L 262 321 Q 225 314 196 306 C 167 298 169 269 197 279 Z"></path>
      </clipPath>
      <path clip-path="url(#make-me-a-hanzi-clip-6)" d="M 202 287 L 217 299 L 351 324" fill="none" id="make-me-a-hanzi-animation-6" stroke-dasharray="284 568" stroke-linecap="round"></path>
    
      <clipPath id="make-me-a-hanzi-clip-7">
        <path d="M 71 215 Q 58 170 47 125 Q 37 103 47 81 Q 51 68 65 58 Q 72 51 84 54 Q 91 57 95 68 Q 99 83 100 207 Q 97 225 92 231 Q 88 235 82 234 Q 78 230 71 215 Z"></path>
      </clipPath>
      <path clip-path="url(#make-me-a-hanzi-clip-7)" d="M 85 227 L 70 103 L 78 68" fill="none" id="make-me-a-hanzi-animation-7" stroke-dasharray="289 578" stroke-linecap="round"></path>
    
      <clipPath id="make-me-a-hanzi-clip-8">
        <path d="M 154 192 Q 166 165 178 134 Q 182 122 192 118 Q 199 115 206 121 Q 213 128 217 150 Q 218 174 166 223 Q 157 230 153 230 Q 149 229 145 221 Q 144 214 154 192 Z"></path>
      </clipPath>
      <path clip-path="url(#make-me-a-hanzi-clip-8)" d="M 156 220 L 194 156 L 196 133" fill="none" id="make-me-a-hanzi-animation-8" stroke-dasharray="226 452" stroke-linecap="round"></path>
    
      <clipPath id="make-me-a-hanzi-clip-9">
        <path d="M 259 205 Q 272 183 284 158 Q 290 148 301 144 Q 308 143 314 149 Q 320 158 321 179 Q 321 201 266 237 Q 257 243 252 242 Q 248 241 246 232 Q 246 225 259 205 Z"></path>
      </clipPath>
      <path clip-path="url(#make-me-a-hanzi-clip-9)" d="M 257 233 L 292 191 L 303 159" fill="none" id="make-me-a-hanzi-animation-9" stroke-dasharray="217 434" stroke-linecap="round"></path>
    
      <clipPath id="make-me-a-hanzi-clip-10">
        <path d="M 352 226 Q 379 178 397 176 Q 407 173 414 187 Q 415 197 411 213 Q 405 225 390 231 Q 368 244 358 246 Q 351 247 349 239 Q 348 233 352 226 Z"></path>
      </clipPath>
      <path clip-path="url(#make-me-a-hanzi-clip-10)" d="M 359 235 L 391 206 L 400 190" fill="none" id="make-me-a-hanzi-animation-10" stroke-dasharray="190 380" stroke-linecap="round"></path>
    
      <clipPath id="make-me-a-hanzi-clip-11">
        <path d="M 652 645 Q 748 702 780 712 Q 796 715 799 723 Q 800 733 788 743 Q 766 755 722 765 Q 706 769 694 767 Q 687 763 688 751 Q 689 711 519 599 Q 515 590 522 588 Q 571 609 622 630 L 652 645 Z"></path>
      </clipPath>
      <path clip-path="url(#make-me-a-hanzi-clip-11)" d="M 789 726 L 721 727 L 651 668 L 540 603 L 530 606 L 527 595" fill="none" id="make-me-a-hanzi-animation-11" stroke-dasharray="438 876" stroke-linecap="round"></path>
    
      <clipPath id="make-me-a-hanzi-clip-12">
        <path d="M 679 479 Q 701 485 862 505 Q 878 506 882 515 Q 886 525 871 535 Q 813 568 767 545 Q 730 535 680 519 L 637 507 Q 577 494 512 476 Q 496 472 510 459 Q 523 449 539 446 Q 558 443 571 449 Q 593 458 621 465 L 679 479 Z"></path>
      </clipPath>
      <path clip-path="url(#make-me-a-hanzi-clip-12)" d="M 512 467 L 560 467 L 794 525 L 871 519" fill="none" id="make-me-a-hanzi-animation-12" stroke-dasharray="494 988" stroke-linecap="round"></path>
    
      <clipPath id="make-me-a-hanzi-clip-13">
        <path d="M 636 375 Q 636 180 613 80 Q 595 67 626 3 Q 635 -24 656 -38 Q 668 -39 673 -26 Q 685 5 682 37 Q 676 218 677 373 L 678 417 Q 678 451 679 479 L 680 519 Q 681 574 688 603 Q 689 616 683 622 Q 667 637 652 645 C 627 661 614 659 622 630 Q 631 612 637 507 L 636 375 Z"></path>
      </clipPath>
      <path clip-path="url(#make-me-a-hanzi-clip-13)" d="M 629 629 L 646 620 L 658 601 L 656 264 L 644 59 L 658 -25" fill="none" id="make-me-a-hanzi-animation-13" stroke-dasharray="797 1594" stroke-linecap="round"></path>
    
      <clipPath id="make-me-a-hanzi-clip-14">
        <path d="M 621 465 Q 579 315 408 134 Q 402 128 397 122 Q 387 109 396 109 Q 405 106 415 113 Q 535 183 631 365 Q 632 371 636 375 C 695 492 630 494 621 465 Z"></path>
      </clipPath>
      <path clip-path="url(#make-me-a-hanzi-clip-14)" d="M 634 461 L 627 457 L 614 380 L 562 289 L 485 190 L 401 115" fill="none" id="make-me-a-hanzi-animation-14" stroke-dasharray="557 1114" stroke-linecap="round"></path>
    
      <clipPath id="make-me-a-hanzi-clip-15">
        <path d="M 677 373 Q 734 283 806 186 Q 822 167 851 165 Q 950 164 981 167 Q 991 168 992 173 Q 993 177 980 185 Q 839 251 769 322 Q 724 365 678 417 C 658 439 661 398 677 373 Z"></path>
      </clipPath>
      <path clip-path="url(#make-me-a-hanzi-clip-15)" d="M 681 410 L 694 375 L 768 284 L 834 217 L 882 197 L 985 173" fill="none" id="make-me-a-hanzi-animation-15" stroke-dasharray="534 1068" stroke-linecap="round"></path>
    
  </g>
</svg>