<svg version="1.1" viewBox="0 0 1024 1024" xmlns="http://www.w3.org/2000/svg">
  <g stroke="lightgray" stroke-dasharray="1,1" stroke-width="1" transform="scale(4, 4)">
    <line x1="0" y1="0" x2="256" y2="256"></line>
    <line x1="256" y1="0" x2="0" y2="256"></line>
    <line x1="128" y1="0" x2="128" y2="256"></line>
    <line x1="0" y1="128" x2="256" y2="128"></line>
  </g>
  <g transform="scale(1, -1) translate(0, -900)">
    <style type="text/css">
      
        @keyframes keyframes0 {
          from {
            stroke: blue;
            stroke-dashoffset: 388;
            stroke-width: 128;
          }
          56% {
            animation-timing-function: step-end;
            stroke: blue;
            stroke-dashoffset: 0;
            stroke-width: 128;
          }
          to {
            stroke: black;
            stroke-width: 1024;
          }
        }
        #make-me-a-hanzi-animation-0 {
          animation: keyframes0 0.5657552083333334s both;
          animation-delay: 0s;
          animation-timing-function: linear;
        }
      
        @keyframes keyframes1 {
          from {
            stroke: blue;
            stroke-dashoffset: 441;
            stroke-width: 128;
          }
          59% {
            animation-timing-function: step-end;
            stroke: blue;
            stroke-dashoffset: 0;
            stroke-width: 128;
          }
          to {
            stroke: black;
            stroke-width: 1024;
          }
        }
        #make-me-a-hanzi-animation-1 {
          animation: keyframes1 0.60888671875s both;
          animation-delay: 0.5657552083333334s;
          animation-timing-function: linear;
        }
      
        @keyframes keyframes2 {
          from {
            stroke: blue;
            stroke-dashoffset: 882;
            stroke-width: 128;
          }
          74% {
            animation-timing-function: step-end;
            stroke: blue;
            stroke-dashoffset: 0;
            stroke-width: 128;
          }
          to {
            stroke: black;
            stroke-width: 1024;
          }
        }
        #make-me-a-hanzi-animation-2 {
          animation: keyframes2 0.9677734375s both;
          animation-delay: 1.1746419270833335s;
          animation-timing-function: linear;
        }
      
        @keyframes keyframes3 {
          from {
            stroke: blue;
            stroke-dashoffset: 471;
            stroke-width: 128;
          }
          61% {
            animation-timing-function: step-end;
            stroke: blue;
            stroke-dashoffset: 0;
            stroke-width: 128;
          }
          to {
            stroke: black;
            stroke-width: 1024;
          }
        }
        #make-me-a-hanzi-animation-3 {
          animation: keyframes3 0.63330078125s both;
          animation-delay: 2.1424153645833335s;
          animation-timing-function: linear;
        }
      
        @keyframes keyframes4 {
          from {
            stroke: blue;
            stroke-dashoffset: 388;
            stroke-width: 128;
          }
          56% {
            animation-timing-function: step-end;
            stroke: blue;
            stroke-dashoffset: 0;
            stroke-width: 128;
          }
          to {
            stroke: black;
            stroke-width: 1024;
          }
        }
        #make-me-a-hanzi-animation-4 {
          animation: keyframes4 0.5657552083333334s both;
          animation-delay: 2.7757161458333335s;
          animation-timing-function: linear;
        }
      
        @keyframes keyframes5 {
          from {
            stroke: blue;
            stroke-dashoffset: 786;
            stroke-width: 128;
          }
          72% {
            animation-timing-function: step-end;
            stroke: blue;
            stroke-dashoffset: 0;
            stroke-width: 128;
          }
          to {
            stroke: black;
            stroke-width: 1024;
          }
        }
        #make-me-a-hanzi-animation-5 {
          animation: keyframes5 0.8896484375s both;
          animation-delay: 3.341471354166667s;
          animation-timing-function: linear;
        }
      
        @keyframes keyframes6 {
          from {
            stroke: blue;
            stroke-dashoffset: 374;
            stroke-width: 128;
          }
          55% {
            animation-timing-function: step-end;
            stroke: blue;
            stroke-dashoffset: 0;
            stroke-width: 128;
          }
          to {
            stroke: black;
            stroke-width: 1024;
          }
        }
        #make-me-a-hanzi-animation-6 {
          animation: keyframes6 0.5543619791666666s both;
          animation-delay: 4.231119791666667s;
          animation-timing-function: linear;
        }
      
        @keyframes keyframes7 {
          from {
            stroke: blue;
            stroke-dashoffset: 505;
            stroke-width: 128;
          }
          62% {
            animation-timing-function: step-end;
            stroke: blue;
            stroke-dashoffset: 0;
            stroke-width: 128;
          }
          to {
            stroke: black;
            stroke-width: 1024;
          }
        }
        #make-me-a-hanzi-animation-7 {
          animation: keyframes7 0.6609700520833334s both;
          animation-delay: 4.785481770833334s;
          animation-timing-function: linear;
        }
      
        @keyframes keyframes8 {
          from {
            stroke: blue;
            stroke-dashoffset: 1209;
            stroke-width: 128;
          }
          80% {
            animation-timing-function: step-end;
            stroke: blue;
            stroke-dashoffset: 0;
            stroke-width: 128;
          }
          to {
            stroke: black;
            stroke-width: 1024;
          }
        }
        #make-me-a-hanzi-animation-8 {
          animation: keyframes8 1.23388671875s both;
          animation-delay: 5.446451822916667s;
          animation-timing-function: linear;
        }
      
        @keyframes keyframes9 {
          from {
            stroke: blue;
            stroke-dashoffset: 454;
            stroke-width: 128;
          }
          60% {
            animation-timing-function: step-end;
            stroke: blue;
            stroke-dashoffset: 0;
            stroke-width: 128;
          }
          to {
            stroke: black;
            stroke-width: 1024;
          }
        }
        #make-me-a-hanzi-animation-9 {
          animation: keyframes9 0.6194661458333334s both;
          animation-delay: 6.680338541666667s;
          animation-timing-function: linear;
        }
      
        @keyframes keyframes10 {
          from {
            stroke: blue;
            stroke-dashoffset: 437;
            stroke-width: 128;
          }
          59% {
            animation-timing-function: step-end;
            stroke: blue;
            stroke-dashoffset: 0;
            stroke-width: 128;
          }
          to {
            stroke: black;
            stroke-width: 1024;
          }
        }
        #make-me-a-hanzi-animation-10 {
          animation: keyframes10 0.6056315104166666s both;
          animation-delay: 7.2998046875s;
          animation-timing-function: linear;
        }
      
    </style>
    
      <path d="M 474 797 Q 499 778 525 753 Q 541 740 557 741 Q 567 742 573 756 Q 577 772 566 803 Q 553 836 467 847 Q 451 851 444 847 Q 438 843 441 829 Q 445 819 474 797 Z" fill="lightgray"></path>
    
      <path d="M 284 674 Q 274 696 265 706 Q 246 722 242 695 Q 242 658 209 629 Q 158 602 187 527 Q 200 497 225 525 Q 237 540 283 639 C 292 658 292 658 284 674 Z" fill="lightgray"></path>
    
      <path d="M 283 639 Q 302 632 322 637 Q 454 679 682 699 Q 724 703 738 700 Q 751 688 749 681 Q 749 680 725 614 Q 718 601 725 597 Q 732 593 748 605 Q 800 639 842 651 Q 876 661 876 669 Q 875 679 805 729 Q 781 747 703 731 Q 520 709 378 686 Q 332 679 284 674 C 254 671 254 645 283 639 Z" fill="lightgray"></path>
    
      <path d="M 370 607 Q 373 547 294 466 Q 279 454 274 445 Q 267 435 278 437 Q 314 437 378 506 Q 384 515 431 570 Q 440 579 430 592 Q 396 622 379 620 Q 369 619 370 607 Z" fill="lightgray"></path>
    
      <path d="M 596 583 Q 621 558 650 526 Q 660 514 675 514 Q 684 514 689 525 Q 693 537 688 563 Q 681 596 595 624 Q 582 628 576 627 Q 572 623 572 612 Q 573 602 596 583 Z" fill="lightgray"></path>
    
      <path d="M 374 252 Q 346 128 256 54 Q 234 38 206 18 Q 184 2 212 6 Q 227 3 256 17 Q 293 30 326 55 Q 420 118 452 383 Q 455 410 460 421 Q 467 428 461 438 Q 455 445 427 456 Q 396 472 381 466 Q 371 460 379 445 Q 395 378 380 287 L 374 252 Z" fill="lightgray"></path>
    
      <path d="M 265 375 Q 287 354 310 329 Q 320 317 335 317 Q 344 317 349 329 Q 353 342 347 367 Q 343 385 318 398 Q 257 423 244 419 Q 240 415 240 404 Q 243 394 265 375 Z" fill="lightgray"></path>
    
      <path d="M 380 287 Q 188 188 149 183 Q 136 179 136 169 Q 137 156 147 149 Q 172 137 208 125 Q 218 124 229 135 Q 244 154 370 249 Q 371 250 374 252 C 398 270 407 301 380 287 Z" fill="lightgray"></path>
    
      <path d="M 956 33 Q 972 48 953 77 Q 932 126 923 194 Q 922 204 914 212 Q 904 216 902 194 Q 874 80 872 77 Q 865 64 834 58 Q 786 45 722 49 Q 674 50 645 62 Q 603 74 590 123 Q 572 175 599 374 Q 605 432 617 447 Q 629 489 552 512 Q 548 515 543 515 Q 524 519 516 510 Q 509 501 516 492 Q 537 471 538 412 Q 538 139 545 112 Q 554 61 603 26 Q 681 -25 854 -7 Q 872 -4 888 0 Q 936 13 956 33 Z" fill="lightgray"></path>
    
      <path d="M 701 430 Q 674 393 620 334 Q 613 327 619 319 Q 626 318 635 321 Q 729 382 775 406 Q 794 410 790 421 Q 786 437 766 458 Q 747 477 724 481 Q 708 481 709 461 Q 710 446 701 430 Z" fill="lightgray"></path>
    
      <path d="M 642 246 Q 691 212 750 159 Q 766 143 779 141 Q 786 141 793 151 Q 802 163 787 200 Q 769 248 640 273 Q 631 277 631 266 Q 632 254 642 246 Z" fill="lightgray"></path>
    
    
      <clipPath id="make-me-a-hanzi-clip-0">
        <path d="M 474 797 Q 499 778 525 753 Q 541 740 557 741 Q 567 742 573 756 Q 577 772 566 803 Q 553 836 467 847 Q 451 851 444 847 Q 438 843 441 829 Q 445 819 474 797 Z"></path>
      </clipPath>
      <path clip-path="url(#make-me-a-hanzi-clip-0)" d="M 451 839 L 529 796 L 553 761" fill="none" id="make-me-a-hanzi-animation-0" stroke-dasharray="260 520" stroke-linecap="round"></path>
    
      <clipPath id="make-me-a-hanzi-clip-1">
        <path d="M 284 674 Q 274 696 265 706 Q 246 722 242 695 Q 242 658 209 629 Q 158 602 187 527 Q 200 497 225 525 Q 237 540 283 639 C 292 658 292 658 284 674 Z"></path>
      </clipPath>
      <path clip-path="url(#make-me-a-hanzi-clip-1)" d="M 254 699 L 260 657 L 254 638 L 214 582 L 204 529" fill="none" id="make-me-a-hanzi-animation-1" stroke-dasharray="313 626" stroke-linecap="round"></path>
    
      <clipPath id="make-me-a-hanzi-clip-2">
        <path d="M 283 639 Q 302 632 322 637 Q 454 679 682 699 Q 724 703 738 700 Q 751 688 749 681 Q 749 680 725 614 Q 718 601 725 597 Q 732 593 748 605 Q 800 639 842 651 Q 876 661 876 669 Q 875 679 805 729 Q 781 747 703 731 Q 520 709 378 686 Q 332 679 284 674 C 254 671 254 645 283 639 Z"></path>
      </clipPath>
      <path clip-path="url(#make-me-a-hanzi-clip-2)" d="M 293 668 L 304 655 L 532 697 L 716 719 L 753 717 L 783 699 L 793 680 L 730 604" fill="none" id="make-me-a-hanzi-animation-2" stroke-dasharray="754 1508" stroke-linecap="round"></path>
    
      <clipPath id="make-me-a-hanzi-clip-3">
        <path d="M 370 607 Q 373 547 294 466 Q 279 454 274 445 Q 267 435 278 437 Q 314 437 378 506 Q 384 515 431 570 Q 440 579 430 592 Q 396 622 379 620 Q 369 619 370 607 Z"></path>
      </clipPath>
      <path clip-path="url(#make-me-a-hanzi-clip-3)" d="M 383 608 L 399 578 L 391 562 L 358 510 L 319 470 L 282 444" fill="none" id="make-me-a-hanzi-animation-3" stroke-dasharray="343 686" stroke-linecap="round"></path>
    
      <clipPath id="make-me-a-hanzi-clip-4">
        <path d="M 596 583 Q 621 558 650 526 Q 660 514 675 514 Q 684 514 689 525 Q 693 537 688 563 Q 681 596 595 624 Q 582 628 576 627 Q 572 623 572 612 Q 573 602 596 583 Z"></path>
      </clipPath>
      <path clip-path="url(#make-me-a-hanzi-clip-4)" d="M 580 618 L 646 572 L 674 529" fill="none" id="make-me-a-hanzi-animation-4" stroke-dasharray="260 520" stroke-linecap="round"></path>
    
      <clipPath id="make-me-a-hanzi-clip-5">
        <path d="M 374 252 Q 346 128 256 54 Q 234 38 206 18 Q 184 2 212 6 Q 227 3 256 17 Q 293 30 326 55 Q 420 118 452 383 Q 455 410 460 421 Q 467 428 461 438 Q 455 445 427 456 Q 396 472 381 466 Q 371 460 379 445 Q 395 378 380 287 L 374 252 Z"></path>
      </clipPath>
      <path clip-path="url(#make-me-a-hanzi-clip-5)" d="M 388 455 L 408 438 L 421 413 L 413 309 L 388 200 L 353 124 L 322 84 L 271 42 L 218 16" fill="none" id="make-me-a-hanzi-animation-5" stroke-dasharray="658 1316" stroke-linecap="round"></path>
    
      <clipPath id="make-me-a-hanzi-clip-6">
        <path d="M 265 375 Q 287 354 310 329 Q 320 317 335 317 Q 344 317 349 329 Q 353 342 347 367 Q 343 385 318 398 Q 257 423 244 419 Q 240 415 240 404 Q 243 394 265 375 Z"></path>
      </clipPath>
      <path clip-path="url(#make-me-a-hanzi-clip-6)" d="M 248 410 L 310 370 L 334 333" fill="none" id="make-me-a-hanzi-animation-6" stroke-dasharray="246 492" stroke-linecap="round"></path>
    
      <clipPath id="make-me-a-hanzi-clip-7">
        <path d="M 380 287 Q 188 188 149 183 Q 136 179 136 169 Q 137 156 147 149 Q 172 137 208 125 Q 218 124 229 135 Q 244 154 370 249 Q 371 250 374 252 C 398 270 407 301 380 287 Z"></path>
      </clipPath>
      <path clip-path="url(#make-me-a-hanzi-clip-7)" d="M 151 168 L 206 164 L 351 253 L 367 271" fill="none" id="make-me-a-hanzi-animation-7" stroke-dasharray="377 754" stroke-linecap="round"></path>
    
      <clipPath id="make-me-a-hanzi-clip-8">
        <path d="M 956 33 Q 972 48 953 77 Q 932 126 923 194 Q 922 204 914 212 Q 904 216 902 194 Q 874 80 872 77 Q 865 64 834 58 Q 786 45 722 49 Q 674 50 645 62 Q 603 74 590 123 Q 572 175 599 374 Q 605 432 617 447 Q 629 489 552 512 Q 548 515 543 515 Q 524 519 516 510 Q 509 501 516 492 Q 537 471 538 412 Q 538 139 545 112 Q 554 61 603 26 Q 681 -25 854 -7 Q 872 -4 888 0 Q 936 13 956 33 Z"></path>
      </clipPath>
      <path clip-path="url(#make-me-a-hanzi-clip-8)" d="M 526 501 L 555 483 L 575 457 L 568 398 L 561 173 L 573 99 L 600 59 L 643 35 L 701 21 L 801 19 L 886 38 L 913 57 L 908 178 L 913 184 L 912 204" fill="none" id="make-me-a-hanzi-animation-8" stroke-dasharray="1081 2162" stroke-linecap="round"></path>
    
      <clipPath id="make-me-a-hanzi-clip-9">
        <path d="M 701 430 Q 674 393 620 334 Q 613 327 619 319 Q 626 318 635 321 Q 729 382 775 406 Q 794 410 790 421 Q 786 437 766 458 Q 747 477 724 481 Q 708 481 709 461 Q 710 446 701 430 Z"></path>
      </clipPath>
      <path clip-path="url(#make-me-a-hanzi-clip-9)" d="M 724 466 L 742 430 L 623 326" fill="none" id="make-me-a-hanzi-animation-9" stroke-dasharray="326 652" stroke-linecap="round"></path>
    
      <clipPath id="make-me-a-hanzi-clip-10">
        <path d="M 642 246 Q 691 212 750 159 Q 766 143 779 141 Q 786 141 793 151 Q 802 163 787 200 Q 769 248 640 273 Q 631 277 631 266 Q 632 254 642 246 Z"></path>
      </clipPath>
      <path clip-path="url(#make-me-a-hanzi-clip-10)" d="M 641 263 L 746 204 L 765 183 L 778 154" fill="none" id="make-me-a-hanzi-animation-10" stroke-dasharray="309 618" stroke-linecap="round"></path>
    
  </g>
</svg>