<svg version="1.1" viewBox="0 0 1024 1024" xmlns="http://www.w3.org/2000/svg">
  <g stroke="lightgray" stroke-dasharray="1,1" stroke-width="1" transform="scale(4, 4)">
    <line x1="0" y1="0" x2="256" y2="256"></line>
    <line x1="256" y1="0" x2="0" y2="256"></line>
    <line x1="128" y1="0" x2="128" y2="256"></line>
    <line x1="0" y1="128" x2="256" y2="128"></line>
  </g>
  <g transform="scale(1, -1) translate(0, -900)">
    <style type="text/css">
      
        @keyframes keyframes0 {
          from {
            stroke: blue;
            stroke-dashoffset: 542;
            stroke-width: 128;
          }
          64% {
            animation-timing-function: step-end;
            stroke: blue;
            stroke-dashoffset: 0;
            stroke-width: 128;
          }
          to {
            stroke: black;
            stroke-width: 1024;
          }
        }
        #make-me-a-hanzi-animation-0 {
          animation: keyframes0 0.6910807291666666s both;
          animation-delay: 0s;
          animation-timing-function: linear;
        }
      
        @keyframes keyframes1 {
          from {
            stroke: blue;
            stroke-dashoffset: 429;
            stroke-width: 128;
          }
          58% {
            animation-timing-function: step-end;
            stroke: blue;
            stroke-dashoffset: 0;
            stroke-width: 128;
          }
          to {
            stroke: black;
            stroke-width: 1024;
          }
        }
        #make-me-a-hanzi-animation-1 {
          animation: keyframes1 0.59912109375s both;
          animation-delay: 0.6910807291666666s;
          animation-timing-function: linear;
        }
      
        @keyframes keyframes2 {
          from {
            stroke: blue;
            stroke-dashoffset: 337;
            stroke-width: 128;
          }
          52% {
            animation-timing-function: step-end;
            stroke: blue;
            stroke-dashoffset: 0;
            stroke-width: 128;
          }
          to {
            stroke: black;
            stroke-width: 1024;
          }
        }
        #make-me-a-hanzi-animation-2 {
          animation: keyframes2 0.5242513020833334s both;
          animation-delay: 1.2902018229166665s;
          animation-timing-function: linear;
        }
      
        @keyframes keyframes3 {
          from {
            stroke: blue;
            stroke-dashoffset: 536;
            stroke-width: 128;
          }
          64% {
            animation-timing-function: step-end;
            stroke: blue;
            stroke-dashoffset: 0;
            stroke-width: 128;
          }
          to {
            stroke: black;
            stroke-width: 1024;
          }
        }
        #make-me-a-hanzi-animation-3 {
          animation: keyframes3 0.6861979166666666s both;
          animation-delay: 1.814453125s;
          animation-timing-function: linear;
        }
      
        @keyframes keyframes4 {
          from {
            stroke: blue;
            stroke-dashoffset: 466;
            stroke-width: 128;
          }
          60% {
            animation-timing-function: step-end;
            stroke: blue;
            stroke-dashoffset: 0;
            stroke-width: 128;
          }
          to {
            stroke: black;
            stroke-width: 1024;
          }
        }
        #make-me-a-hanzi-animation-4 {
          animation: keyframes4 0.6292317708333334s both;
          animation-delay: 2.5006510416666665s;
          animation-timing-function: linear;
        }
      
        @keyframes keyframes5 {
          from {
            stroke: blue;
            stroke-dashoffset: 356;
            stroke-width: 128;
          }
          54% {
            animation-timing-function: step-end;
            stroke: blue;
            stroke-dashoffset: 0;
            stroke-width: 128;
          }
          to {
            stroke: black;
            stroke-width: 1024;
          }
        }
        #make-me-a-hanzi-animation-5 {
          animation: keyframes5 0.5397135416666666s both;
          animation-delay: 3.1298828125s;
          animation-timing-function: linear;
        }
      
        @keyframes keyframes6 {
          from {
            stroke: blue;
            stroke-dashoffset: 533;
            stroke-width: 128;
          }
          63% {
            animation-timing-function: step-end;
            stroke: blue;
            stroke-dashoffset: 0;
            stroke-width: 128;
          }
          to {
            stroke: black;
            stroke-width: 1024;
          }
        }
        #make-me-a-hanzi-animation-6 {
          animation: keyframes6 0.6837565104166666s both;
          animation-delay: 3.6695963541666665s;
          animation-timing-function: linear;
        }
      
        @keyframes keyframes7 {
          from {
            stroke: blue;
            stroke-dashoffset: 920;
            stroke-width: 128;
          }
          75% {
            animation-timing-function: step-end;
            stroke: blue;
            stroke-dashoffset: 0;
            stroke-width: 128;
          }
          to {
            stroke: black;
            stroke-width: 1024;
          }
        }
        #make-me-a-hanzi-animation-7 {
          animation: keyframes7 0.9986979166666666s both;
          animation-delay: 4.353352864583333s;
          animation-timing-function: linear;
        }
      
        @keyframes keyframes8 {
          from {
            stroke: blue;
            stroke-dashoffset: 606;
            stroke-width: 128;
          }
          66% {
            animation-timing-function: step-end;
            stroke: blue;
            stroke-dashoffset: 0;
            stroke-width: 128;
          }
          to {
            stroke: black;
            stroke-width: 1024;
          }
        }
        #make-me-a-hanzi-animation-8 {
          animation: keyframes8 0.7431640625s both;
          animation-delay: 5.35205078125s;
          animation-timing-function: linear;
        }
      
        @keyframes keyframes9 {
          from {
            stroke: blue;
            stroke-dashoffset: 859;
            stroke-width: 128;
          }
          74% {
            animation-timing-function: step-end;
            stroke: blue;
            stroke-dashoffset: 0;
            stroke-width: 128;
          }
          to {
            stroke: black;
            stroke-width: 1024;
          }
        }
        #make-me-a-hanzi-animation-9 {
          animation: keyframes9 0.9490559895833334s both;
          animation-delay: 6.09521484375s;
          animation-timing-function: linear;
        }
      
        @keyframes keyframes10 {
          from {
            stroke: blue;
            stroke-dashoffset: 772;
            stroke-width: 128;
          }
          72% {
            animation-timing-function: step-end;
            stroke: blue;
            stroke-dashoffset: 0;
            stroke-width: 128;
          }
          to {
            stroke: black;
            stroke-width: 1024;
          }
        }
        #make-me-a-hanzi-animation-10 {
          animation: keyframes10 0.8782552083333334s both;
          animation-delay: 7.044270833333333s;
          animation-timing-function: linear;
        }
      
        @keyframes keyframes11 {
          from {
            stroke: blue;
            stroke-dashoffset: 483;
            stroke-width: 128;
          }
          61% {
            animation-timing-function: step-end;
            stroke: blue;
            stroke-dashoffset: 0;
            stroke-width: 128;
          }
          to {
            stroke: black;
            stroke-width: 1024;
          }
        }
        #make-me-a-hanzi-animation-11 {
          animation: keyframes11 0.64306640625s both;
          animation-delay: 7.922526041666666s;
          animation-timing-function: linear;
        }
      
        @keyframes keyframes12 {
          from {
            stroke: blue;
            stroke-dashoffset: 642;
            stroke-width: 128;
          }
          68% {
            animation-timing-function: step-end;
            stroke: blue;
            stroke-dashoffset: 0;
            stroke-width: 128;
          }
          to {
            stroke: black;
            stroke-width: 1024;
          }
        }
        #make-me-a-hanzi-animation-12 {
          animation: keyframes12 0.7724609375s both;
          animation-delay: 8.565592447916666s;
          animation-timing-function: linear;
        }
      
        @keyframes keyframes13 {
          from {
            stroke: blue;
            stroke-dashoffset: 651;
            stroke-width: 128;
          }
          68% {
            animation-timing-function: step-end;
            stroke: blue;
            stroke-dashoffset: 0;
            stroke-width: 128;
          }
          to {
            stroke: black;
            stroke-width: 1024;
          }
        }
        #make-me-a-hanzi-animation-13 {
          animation: keyframes13 0.77978515625s both;
          animation-delay: 9.338053385416666s;
          animation-timing-function: linear;
        }
      
    </style>
    
      <path d="M 336 714 Q 352 739 369 760 Q 379 772 366 786 Q 326 819 301 816 Q 291 815 292 800 Q 301 713 211 616 Q 189 594 177 580 Q 170 565 184 569 Q 199 570 220 586 Q 284 632 322 693 L 336 714 Z" fill="lightgray"></path>
    
      <path d="M 322 693 L 323 693 Q 357 671 412 683 Q 449 689 490 696 Q 508 700 511 702 Q 518 709 515 717 Q 508 727 482 735 Q 464 738 388 720 Q 361 717 336 714 C 306 710 295 706 322 693 Z" fill="lightgray"></path>
    
      <path d="M 353 622 Q 398 568 422 568 Q 435 568 440 586 Q 441 599 431 617 Q 412 641 356 648 Q 347 649 346 638 Q 345 631 353 622 Z" fill="lightgray"></path>
    
      <path d="M 620 728 Q 620 729 621 730 Q 639 769 657 800 Q 666 813 651 825 Q 606 852 586 846 Q 576 842 579 829 Q 597 745 520 639 Q 501 614 492 599 Q 486 584 499 590 Q 550 605 608 705 L 620 728 Z" fill="lightgray"></path>
    
      <path d="M 608 705 Q 651 684 701 698 Q 752 708 804 719 Q 828 725 832 729 Q 839 736 835 745 Q 828 755 800 762 Q 770 768 742 755 Q 715 746 686 739 Q 655 733 620 728 C 590 724 581 717 608 705 Z" fill="lightgray"></path>
    
      <path d="M 660 628 Q 678 615 696 597 Q 708 587 721 588 Q 730 589 733 600 Q 736 613 727 637 Q 723 650 700 658 Q 649 671 636 667 Q 632 663 634 653 Q 637 644 660 628 Z" fill="lightgray"></path>
    
      <path d="M 350 414 Q 374 421 402 427 Q 435 436 440 441 Q 449 448 443 457 Q 436 467 408 474 Q 380 478 354 466 L 305 449 Q 212 427 171 420 Q 137 413 162 398 Q 210 377 260 393 Q 279 399 305 403 L 350 414 Z" fill="lightgray"></path>
    
      <path d="M 305 270 Q 305 207 305 127 Q 305 111 296 105 Q 289 99 214 113 Q 184 122 187 113 Q 188 106 207 95 Q 271 53 290 28 Q 311 -2 326 -2 Q 338 -2 350 28 Q 363 68 360 132 Q 353 217 351 302 L 350 331 Q 349 374 350 414 L 354 466 Q 358 509 366 535 Q 381 562 332 581 Q 302 597 285 591 Q 270 585 284 565 Q 305 541 305 449 L 305 403 Q 305 364 305 308 L 305 270 Z" fill="lightgray"></path>
    
      <path d="M 305 308 Q 122 220 114 215 Q 96 215 94 202 Q 93 193 105 180 Q 121 165 142 157 Q 154 154 181 175 Q 235 223 305 270 L 351 302 Q 369 315 388 326 Q 407 336 416 349 Q 423 359 413 360 Q 407 360 350 331 L 305 308 Z" fill="lightgray"></path>
    
      <path d="M 572 332 Q 593 348 617 370 L 643 398 Q 670 431 698 475 Q 714 497 737 513 Q 750 519 751 527 Q 751 537 727 554 Q 697 575 684 576 Q 674 576 664 569 Q 576 541 515 534 Q 482 534 480 526 Q 479 523 484 519 Q 523 489 629 527 Q 647 531 654 526 Q 658 522 640 481 Q 627 453 604 423 L 582 397 Q 516 328 418 291 Q 411 288 410 284 Q 411 280 417 280 Q 480 277 560 324 Q 561 325 564 326 L 572 332 Z" fill="lightgray"></path>
    
      <path d="M 617 370 Q 755 262 792 263 Q 867 275 927 296 Q 957 305 953 313 Q 952 317 919 322 Q 741 344 672 382 Q 657 391 643 398 L 604 423 Q 579 439 554 457 Q 517 485 488 479 Q 473 478 472 472 Q 471 466 486 460 Q 519 448 582 397 L 617 370 Z" fill="lightgray"></path>
    
      <path d="M 638 214 Q 662 221 688 225 Q 715 232 719 236 Q 726 243 723 250 Q 716 260 691 266 Q 666 270 640 260 Q 639 260 639 259 L 583 242 Q 579 242 576 241 Q 539 232 495 228 Q 464 222 486 208 Q 517 190 584 203 L 638 214 Z" fill="lightgray"></path>
    
      <path d="M 636 111 Q 679 117 801 117 Q 819 117 823 125 Q 827 135 813 147 Q 764 186 704 168 Q 674 162 636 154 L 585 145 Q 515 135 435 124 Q 416 123 430 107 Q 443 94 459 90 Q 478 86 492 89 Q 535 101 586 106 L 636 111 Z" fill="lightgray"></path>
    
      <path d="M 636 154 Q 636 181 638 214 L 639 259 Q 640 265 645 289 Q 646 305 635 313 Q 607 332 593 334 Q 583 338 572 332 C 563 329 563 329 564 326 Q 561 322 567 314 Q 576 299 583 242 L 584 203 Q 584 178 585 145 L 586 106 Q 586 -35 603 -62 Q 607 -68 614 -65 Q 621 -62 626 -49 Q 635 -18 636 111 L 636 154 Z" fill="lightgray"></path>
    
    
      <clipPath id="make-me-a-hanzi-clip-0">
        <path d="M 336 714 Q 352 739 369 760 Q 379 772 366 786 Q 326 819 301 816 Q 291 815 292 800 Q 301 713 211 616 Q 189 594 177 580 Q 170 565 184 569 Q 199 570 220 586 Q 284 632 322 693 L 336 714 Z"></path>
      </clipPath>
      <path clip-path="url(#make-me-a-hanzi-clip-0)" d="M 303 804 L 329 768 L 305 712 L 250 633 L 186 578" fill="none" id="make-me-a-hanzi-animation-0" stroke-dasharray="414 828" stroke-linecap="round"></path>
    
      <clipPath id="make-me-a-hanzi-clip-1">
        <path d="M 322 693 L 323 693 Q 357 671 412 683 Q 449 689 490 696 Q 508 700 511 702 Q 518 709 515 717 Q 508 727 482 735 Q 464 738 388 720 Q 361 717 336 714 C 306 710 295 706 322 693 Z"></path>
      </clipPath>
      <path clip-path="url(#make-me-a-hanzi-clip-1)" d="M 332 695 L 459 713 L 504 712" fill="none" id="make-me-a-hanzi-animation-1" stroke-dasharray="301 602" stroke-linecap="round"></path>
    
      <clipPath id="make-me-a-hanzi-clip-2">
        <path d="M 353 622 Q 398 568 422 568 Q 435 568 440 586 Q 441 599 431 617 Q 412 641 356 648 Q 347 649 346 638 Q 345 631 353 622 Z"></path>
      </clipPath>
      <path clip-path="url(#make-me-a-hanzi-clip-2)" d="M 358 636 L 409 603 L 421 587" fill="none" id="make-me-a-hanzi-animation-2" stroke-dasharray="209 418" stroke-linecap="round"></path>
    
      <clipPath id="make-me-a-hanzi-clip-3">
        <path d="M 620 728 Q 620 729 621 730 Q 639 769 657 800 Q 666 813 651 825 Q 606 852 586 846 Q 576 842 579 829 Q 597 745 520 639 Q 501 614 492 599 Q 486 584 499 590 Q 550 605 608 705 L 620 728 Z"></path>
      </clipPath>
      <path clip-path="url(#make-me-a-hanzi-clip-3)" d="M 591 834 L 618 803 L 599 740 L 555 656 L 501 599" fill="none" id="make-me-a-hanzi-animation-3" stroke-dasharray="408 816" stroke-linecap="round"></path>
    
      <clipPath id="make-me-a-hanzi-clip-4">
        <path d="M 608 705 Q 651 684 701 698 Q 752 708 804 719 Q 828 725 832 729 Q 839 736 835 745 Q 828 755 800 762 Q 770 768 742 755 Q 715 746 686 739 Q 655 733 620 728 C 590 724 581 717 608 705 Z"></path>
      </clipPath>
      <path clip-path="url(#make-me-a-hanzi-clip-4)" d="M 617 707 L 630 714 L 704 720 L 768 738 L 823 739" fill="none" id="make-me-a-hanzi-animation-4" stroke-dasharray="338 676" stroke-linecap="round"></path>
    
      <clipPath id="make-me-a-hanzi-clip-5">
        <path d="M 660 628 Q 678 615 696 597 Q 708 587 721 588 Q 730 589 733 600 Q 736 613 727 637 Q 723 650 700 658 Q 649 671 636 667 Q 632 663 634 653 Q 637 644 660 628 Z"></path>
      </clipPath>
      <path clip-path="url(#make-me-a-hanzi-clip-5)" d="M 640 659 L 702 628 L 719 602" fill="none" id="make-me-a-hanzi-animation-5" stroke-dasharray="228 456" stroke-linecap="round"></path>
    
      <clipPath id="make-me-a-hanzi-clip-6">
        <path d="M 350 414 Q 374 421 402 427 Q 435 436 440 441 Q 449 448 443 457 Q 436 467 408 474 Q 380 478 354 466 L 305 449 Q 212 427 171 420 Q 137 413 162 398 Q 210 377 260 393 Q 279 399 305 403 L 350 414 Z"></path>
      </clipPath>
      <path clip-path="url(#make-me-a-hanzi-clip-6)" d="M 164 410 L 212 406 L 389 450 L 435 450" fill="none" id="make-me-a-hanzi-animation-6" stroke-dasharray="405 810" stroke-linecap="round"></path>
    
      <clipPath id="make-me-a-hanzi-clip-7">
        <path d="M 305 270 Q 305 207 305 127 Q 305 111 296 105 Q 289 99 214 113 Q 184 122 187 113 Q 188 106 207 95 Q 271 53 290 28 Q 311 -2 326 -2 Q 338 -2 350 28 Q 363 68 360 132 Q 353 217 351 302 L 350 331 Q 349 374 350 414 L 354 466 Q 358 509 366 535 Q 381 562 332 581 Q 302 597 285 591 Q 270 585 284 565 Q 305 541 305 449 L 305 403 Q 305 364 305 308 L 305 270 Z"></path>
      </clipPath>
      <path clip-path="url(#make-me-a-hanzi-clip-7)" d="M 292 578 L 332 543 L 327 317 L 332 106 L 315 66 L 193 111" fill="none" id="make-me-a-hanzi-animation-7" stroke-dasharray="792 1584" stroke-linecap="round"></path>
    
      <clipPath id="make-me-a-hanzi-clip-8">
        <path d="M 305 308 Q 122 220 114 215 Q 96 215 94 202 Q 93 193 105 180 Q 121 165 142 157 Q 154 154 181 175 Q 235 223 305 270 L 351 302 Q 369 315 388 326 Q 407 336 416 349 Q 423 359 413 360 Q 407 360 350 331 L 305 308 Z"></path>
      </clipPath>
      <path clip-path="url(#make-me-a-hanzi-clip-8)" d="M 108 200 L 125 193 L 153 196 L 412 354" fill="none" id="make-me-a-hanzi-animation-8" stroke-dasharray="478 956" stroke-linecap="round"></path>
    
      <clipPath id="make-me-a-hanzi-clip-9">
        <path d="M 572 332 Q 593 348 617 370 L 643 398 Q 670 431 698 475 Q 714 497 737 513 Q 750 519 751 527 Q 751 537 727 554 Q 697 575 684 576 Q 674 576 664 569 Q 576 541 515 534 Q 482 534 480 526 Q 479 523 484 519 Q 523 489 629 527 Q 647 531 654 526 Q 658 522 640 481 Q 627 453 604 423 L 582 397 Q 516 328 418 291 Q 411 288 410 284 Q 411 280 417 280 Q 480 277 560 324 Q 561 325 564 326 L 572 332 Z"></path>
      </clipPath>
      <path clip-path="url(#make-me-a-hanzi-clip-9)" d="M 486 525 L 546 522 L 661 547 L 683 542 L 694 529 L 645 440 L 586 370 L 543 336 L 487 305 L 416 286" fill="none" id="make-me-a-hanzi-animation-9" stroke-dasharray="731 1462" stroke-linecap="round"></path>
    
      <clipPath id="make-me-a-hanzi-clip-10">
        <path d="M 617 370 Q 755 262 792 263 Q 867 275 927 296 Q 957 305 953 313 Q 952 317 919 322 Q 741 344 672 382 Q 657 391 643 398 L 604 423 Q 579 439 554 457 Q 517 485 488 479 Q 473 478 472 472 Q 471 466 486 460 Q 519 448 582 397 L 617 370 Z"></path>
      </clipPath>
      <path clip-path="url(#make-me-a-hanzi-clip-10)" d="M 478 471 L 526 458 L 659 363 L 771 309 L 794 302 L 826 302 L 948 310" fill="none" id="make-me-a-hanzi-animation-10" stroke-dasharray="644 1288" stroke-linecap="round"></path>
    
      <clipPath id="make-me-a-hanzi-clip-11">
        <path d="M 638 214 Q 662 221 688 225 Q 715 232 719 236 Q 726 243 723 250 Q 716 260 691 266 Q 666 270 640 260 Q 639 260 639 259 L 583 242 Q 579 242 576 241 Q 539 232 495 228 Q 464 222 486 208 Q 517 190 584 203 L 638 214 Z"></path>
      </clipPath>
      <path clip-path="url(#make-me-a-hanzi-clip-11)" d="M 488 219 L 540 215 L 673 245 L 712 245" fill="none" id="make-me-a-hanzi-animation-11" stroke-dasharray="355 710" stroke-linecap="round"></path>
    
      <clipPath id="make-me-a-hanzi-clip-12">
        <path d="M 636 111 Q 679 117 801 117 Q 819 117 823 125 Q 827 135 813 147 Q 764 186 704 168 Q 674 162 636 154 L 585 145 Q 515 135 435 124 Q 416 123 430 107 Q 443 94 459 90 Q 478 86 492 89 Q 535 101 586 106 L 636 111 Z"></path>
      </clipPath>
      <path clip-path="url(#make-me-a-hanzi-clip-12)" d="M 432 116 L 484 109 L 744 145 L 813 130" fill="none" id="make-me-a-hanzi-animation-12" stroke-dasharray="514 1028" stroke-linecap="round"></path>
    
      <clipPath id="make-me-a-hanzi-clip-13">
        <path d="M 636 154 Q 636 181 638 214 L 639 259 Q 640 265 645 289 Q 646 305 635 313 Q 607 332 593 334 Q 583 338 572 332 C 563 329 563 329 564 326 Q 561 322 567 314 Q 576 299 583 242 L 584 203 Q 584 178 585 145 L 586 106 Q 586 -35 603 -62 Q 607 -68 614 -65 Q 621 -62 626 -49 Q 635 -18 636 111 L 636 154 Z"></path>
      </clipPath>
      <path clip-path="url(#make-me-a-hanzi-clip-13)" d="M 573 322 L 592 312 L 611 286 L 611 -55" fill="none" id="make-me-a-hanzi-animation-13" stroke-dasharray="523 1046" stroke-linecap="round"></path>
    
  </g>
</svg>