<svg version="1.1" viewBox="0 0 1024 1024" xmlns="http://www.w3.org/2000/svg">
  <g stroke="lightgray" stroke-dasharray="1,1" stroke-width="1" transform="scale(4, 4)">
    <line x1="0" y1="0" x2="256" y2="256"></line>
    <line x1="256" y1="0" x2="0" y2="256"></line>
    <line x1="128" y1="0" x2="128" y2="256"></line>
    <line x1="0" y1="128" x2="256" y2="128"></line>
  </g>
  <g transform="scale(1, -1) translate(0, -900)">
    <style type="text/css">
      
        @keyframes keyframes0 {
          from {
            stroke: blue;
            stroke-dashoffset: 553;
            stroke-width: 128;
          }
          64% {
            animation-timing-function: step-end;
            stroke: blue;
            stroke-dashoffset: 0;
            stroke-width: 128;
          }
          to {
            stroke: black;
            stroke-width: 1024;
          }
        }
        #make-me-a-hanzi-animation-0 {
          animation: keyframes0 0.7000325520833334s both;
          animation-delay: 0s;
          animation-timing-function: linear;
        }
      
        @keyframes keyframes1 {
          from {
            stroke: blue;
            stroke-dashoffset: 437;
            stroke-width: 128;
          }
          59% {
            animation-timing-function: step-end;
            stroke: blue;
            stroke-dashoffset: 0;
            stroke-width: 128;
          }
          to {
            stroke: black;
            stroke-width: 1024;
          }
        }
        #make-me-a-hanzi-animation-1 {
          animation: keyframes1 0.6056315104166666s both;
          animation-delay: 0.7000325520833334s;
          animation-timing-function: linear;
        }
      
        @keyframes keyframes2 {
          from {
            stroke: blue;
            stroke-dashoffset: 355;
            stroke-width: 128;
          }
          54% {
            animation-timing-function: step-end;
            stroke: blue;
            stroke-dashoffset: 0;
            stroke-width: 128;
          }
          to {
            stroke: black;
            stroke-width: 1024;
          }
        }
        #make-me-a-hanzi-animation-2 {
          animation: keyframes2 0.5388997395833334s both;
          animation-delay: 1.3056640625s;
          animation-timing-function: linear;
        }
      
        @keyframes keyframes3 {
          from {
            stroke: blue;
            stroke-dashoffset: 549;
            stroke-width: 128;
          }
          64% {
            animation-timing-function: step-end;
            stroke: blue;
            stroke-dashoffset: 0;
            stroke-width: 128;
          }
          to {
            stroke: black;
            stroke-width: 1024;
          }
        }
        #make-me-a-hanzi-animation-3 {
          animation: keyframes3 0.69677734375s both;
          animation-delay: 1.8445638020833335s;
          animation-timing-function: linear;
        }
      
        @keyframes keyframes4 {
          from {
            stroke: blue;
            stroke-dashoffset: 466;
            stroke-width: 128;
          }
          60% {
            animation-timing-function: step-end;
            stroke: blue;
            stroke-dashoffset: 0;
            stroke-width: 128;
          }
          to {
            stroke: black;
            stroke-width: 1024;
          }
        }
        #make-me-a-hanzi-animation-4 {
          animation: keyframes4 0.6292317708333334s both;
          animation-delay: 2.5413411458333335s;
          animation-timing-function: linear;
        }
      
        @keyframes keyframes5 {
          from {
            stroke: blue;
            stroke-dashoffset: 378;
            stroke-width: 128;
          }
          55% {
            animation-timing-function: step-end;
            stroke: blue;
            stroke-dashoffset: 0;
            stroke-width: 128;
          }
          to {
            stroke: black;
            stroke-width: 1024;
          }
        }
        #make-me-a-hanzi-animation-5 {
          animation: keyframes5 0.5576171875s both;
          animation-delay: 3.170572916666667s;
          animation-timing-function: linear;
        }
      
        @keyframes keyframes6 {
          from {
            stroke: blue;
            stroke-dashoffset: 620;
            stroke-width: 128;
          }
          67% {
            animation-timing-function: step-end;
            stroke: blue;
            stroke-dashoffset: 0;
            stroke-width: 128;
          }
          to {
            stroke: black;
            stroke-width: 1024;
          }
        }
        #make-me-a-hanzi-animation-6 {
          animation: keyframes6 0.7545572916666666s both;
          animation-delay: 3.728190104166667s;
          animation-timing-function: linear;
        }
      
        @keyframes keyframes7 {
          from {
            stroke: blue;
            stroke-dashoffset: 849;
            stroke-width: 128;
          }
          73% {
            animation-timing-function: step-end;
            stroke: blue;
            stroke-dashoffset: 0;
            stroke-width: 128;
          }
          to {
            stroke: black;
            stroke-width: 1024;
          }
        }
        #make-me-a-hanzi-animation-7 {
          animation: keyframes7 0.94091796875s both;
          animation-delay: 4.482747395833334s;
          animation-timing-function: linear;
        }
      
        @keyframes keyframes8 {
          from {
            stroke: blue;
            stroke-dashoffset: 618;
            stroke-width: 128;
          }
          67% {
            animation-timing-function: step-end;
            stroke: blue;
            stroke-dashoffset: 0;
            stroke-width: 128;
          }
          to {
            stroke: black;
            stroke-width: 1024;
          }
        }
        #make-me-a-hanzi-animation-8 {
          animation: keyframes8 0.7529296875s both;
          animation-delay: 5.423665364583334s;
          animation-timing-function: linear;
        }
      
        @keyframes keyframes9 {
          from {
            stroke: blue;
            stroke-dashoffset: 375;
            stroke-width: 128;
          }
          55% {
            animation-timing-function: step-end;
            stroke: blue;
            stroke-dashoffset: 0;
            stroke-width: 128;
          }
          to {
            stroke: black;
            stroke-width: 1024;
          }
        }
        #make-me-a-hanzi-animation-9 {
          animation: keyframes9 0.55517578125s both;
          animation-delay: 6.176595052083334s;
          animation-timing-function: linear;
        }
      
        @keyframes keyframes10 {
          from {
            stroke: blue;
            stroke-dashoffset: 701;
            stroke-width: 128;
          }
          70% {
            animation-timing-function: step-end;
            stroke: blue;
            stroke-dashoffset: 0;
            stroke-width: 128;
          }
          to {
            stroke: black;
            stroke-width: 1024;
          }
        }
        #make-me-a-hanzi-animation-10 {
          animation: keyframes10 0.8204752604166666s both;
          animation-delay: 6.731770833333334s;
          animation-timing-function: linear;
        }
      
        @keyframes keyframes11 {
          from {
            stroke: blue;
            stroke-dashoffset: 971;
            stroke-width: 128;
          }
          76% {
            animation-timing-function: step-end;
            stroke: blue;
            stroke-dashoffset: 0;
            stroke-width: 128;
          }
          to {
            stroke: black;
            stroke-width: 1024;
          }
        }
        #make-me-a-hanzi-animation-11 {
          animation: keyframes11 1.0402018229166667s both;
          animation-delay: 7.552246093750001s;
          animation-timing-function: linear;
        }
      
        @keyframes keyframes12 {
          from {
            stroke: blue;
            stroke-dashoffset: 394;
            stroke-width: 128;
          }
          56% {
            animation-timing-function: step-end;
            stroke: blue;
            stroke-dashoffset: 0;
            stroke-width: 128;
          }
          to {
            stroke: black;
            stroke-width: 1024;
          }
        }
        #make-me-a-hanzi-animation-12 {
          animation: keyframes12 0.5706380208333334s both;
          animation-delay: 8.592447916666668s;
          animation-timing-function: linear;
        }
      
        @keyframes keyframes13 {
          from {
            stroke: blue;
            stroke-dashoffset: 393;
            stroke-width: 128;
          }
          56% {
            animation-timing-function: step-end;
            stroke: blue;
            stroke-dashoffset: 0;
            stroke-width: 128;
          }
          to {
            stroke: black;
            stroke-width: 1024;
          }
        }
        #make-me-a-hanzi-animation-13 {
          animation: keyframes13 0.56982421875s both;
          animation-delay: 9.163085937500002s;
          animation-timing-function: linear;
        }
      
        @keyframes keyframes14 {
          from {
            stroke: blue;
            stroke-dashoffset: 440;
            stroke-width: 128;
          }
          59% {
            animation-timing-function: step-end;
            stroke: blue;
            stroke-dashoffset: 0;
            stroke-width: 128;
          }
          to {
            stroke: black;
            stroke-width: 1024;
          }
        }
        #make-me-a-hanzi-animation-14 {
          animation: keyframes14 0.6080729166666666s both;
          animation-delay: 9.732910156250002s;
          animation-timing-function: linear;
        }
      
    </style>
    
      <path d="M 341 734 Q 357 762 374 786 Q 384 798 370 811 Q 331 842 306 837 Q 296 836 298 822 Q 310 738 223 631 Q 211 627 185 587 Q 178 574 191 578 Q 207 581 228 597 Q 292 649 328 712 L 341 734 Z" fill="lightgray"></path>
    
      <path d="M 328 712 Q 364 693 416 708 Q 509 729 520 734 Q 527 741 523 749 Q 516 759 489 765 Q 477 768 390 744 Q 368 740 341 734 C 312 728 301 725 328 712 Z" fill="lightgray"></path>
    
      <path d="M 355 619 Q 376 603 399 584 Q 409 575 422 577 Q 429 578 433 588 Q 436 600 427 622 Q 418 643 349 655 Q 336 656 332 655 Q 328 651 330 641 Q 334 634 355 619 Z" fill="lightgray"></path>
    
      <path d="M 633 755 Q 648 786 663 811 Q 670 824 656 837 Q 608 862 588 858 Q 578 854 581 840 Q 602 761 524 646 Q 514 636 492 600 Q 485 584 499 590 Q 515 594 534 613 Q 595 670 625 737 L 633 755 Z" fill="lightgray"></path>
    
      <path d="M 625 737 Q 634 728 668 724 Q 687 723 820 759 Q 842 765 845 769 Q 852 776 848 785 Q 841 795 811 800 Q 790 803 706 772 Q 673 763 638 757 Q 634 757 633 755 C 610 747 610 747 625 737 Z" fill="lightgray"></path>
    
      <path d="M 650 637 Q 678 618 709 595 Q 721 586 734 588 Q 741 589 745 600 Q 748 613 738 636 Q 726 663 641 676 Q 628 677 624 675 Q 620 671 622 661 Q 626 652 650 637 Z" fill="lightgray"></path>
    
      <path d="M 354 402 Q 465 435 467 436 Q 474 443 471 450 Q 464 460 439 466 Q 412 470 358 449 L 311 433 Q 196 403 115 392 Q 84 386 106 372 Q 142 353 190 365 Q 239 377 291 387 L 354 402 Z" fill="lightgray"></path>
    
      <path d="M 352 320 Q 352 360 354 402 L 358 449 Q 361 477 368 499 Q 375 511 373 522 Q 367 529 323 558 Q 304 571 287 559 Q 283 555 288 543 Q 310 509 311 433 L 310 323 Q 307 134 293 78 Q 281 27 301 -15 Q 301 -16 302 -18 Q 306 -31 313 -35 Q 319 -41 324 -34 Q 345 -21 347 32 Q 346 62 351 292 L 352 320 Z" fill="lightgray"></path>
    
      <path d="M 291 387 Q 243 279 91 101 Q 85 91 96 90 Q 102 89 112 97 Q 233 190 310 323 C 359 406 304 414 291 387 Z" fill="lightgray"></path>
    
      <path d="M 351 292 Q 366 283 426 236 Q 439 226 453 227 Q 462 228 465 240 Q 468 253 458 278 Q 446 308 363 320 Q 356 321 352 320 C 322 317 326 308 351 292 Z" fill="lightgray"></path>
    
      <path d="M 564 477 Q 546 490 525 496 Q 518 497 511 490 Q 508 486 515 475 Q 554 384 530 196 Q 526 166 516 133 Q 509 108 514 91 Q 523 60 533 48 Q 543 35 553 48 Q 557 54 562 63 L 570 96 Q 577 138 578 223 L 578 250 Q 578 295 579 341 L 579 366 Q 580 424 583 445 C 585 464 585 464 564 477 Z" fill="lightgray"></path>
    
      <path d="M 714 78 Q 745 38 768 0 Q 778 -18 788 -17 Q 804 -16 820 18 Q 833 48 834 118 Q 807 428 834 462 Q 844 475 834 485 Q 815 504 763 527 Q 745 536 730 527 Q 676 500 564 477 C 535 471 554 439 583 445 Q 593 446 723 475 Q 742 479 751 473 Q 781 443 763 105 Q 759 93 750 93 C 732 69 702 94 714 78 Z" fill="lightgray"></path>
    
      <path d="M 579 341 Q 633 332 722 360 Q 723 361 724 361 Q 731 368 727 375 Q 720 384 697 389 Q 685 392 616 374 Q 598 370 579 366 C 550 360 549 345 579 341 Z" fill="lightgray"></path>
    
      <path d="M 578 223 Q 593 219 673 230 Q 688 234 705 236 Q 721 239 723 241 Q 730 248 726 255 Q 720 264 697 270 Q 685 273 612 255 Q 596 252 578 250 C 548 247 548 228 578 223 Z" fill="lightgray"></path>
    
      <path d="M 562 63 Q 563 63 568 63 Q 614 73 714 78 C 744 80 758 80 750 93 Q 746 102 724 116 Q 709 125 680 118 Q 620 105 570 96 C 540 91 532 63 562 63 Z" fill="lightgray"></path>
    
    
      <clipPath id="make-me-a-hanzi-clip-0">
        <path d="M 341 734 Q 357 762 374 786 Q 384 798 370 811 Q 331 842 306 837 Q 296 836 298 822 Q 310 738 223 631 Q 211 627 185 587 Q 178 574 191 578 Q 207 581 228 597 Q 292 649 328 712 L 341 734 Z"></path>
      </clipPath>
      <path clip-path="url(#make-me-a-hanzi-clip-0)" d="M 308 827 L 335 792 L 305 717 L 248 635 L 194 587" fill="none" id="make-me-a-hanzi-animation-0" stroke-dasharray="425 850" stroke-linecap="round"></path>
    
      <clipPath id="make-me-a-hanzi-clip-1">
        <path d="M 328 712 Q 364 693 416 708 Q 509 729 520 734 Q 527 741 523 749 Q 516 759 489 765 Q 477 768 390 744 Q 368 740 341 734 C 312 728 301 725 328 712 Z"></path>
      </clipPath>
      <path clip-path="url(#make-me-a-hanzi-clip-1)" d="M 336 714 L 492 746 L 514 743" fill="none" id="make-me-a-hanzi-animation-1" stroke-dasharray="309 618" stroke-linecap="round"></path>
    
      <clipPath id="make-me-a-hanzi-clip-2">
        <path d="M 355 619 Q 376 603 399 584 Q 409 575 422 577 Q 429 578 433 588 Q 436 600 427 622 Q 418 643 349 655 Q 336 656 332 655 Q 328 651 330 641 Q 334 634 355 619 Z"></path>
      </clipPath>
      <path clip-path="url(#make-me-a-hanzi-clip-2)" d="M 336 647 L 388 623 L 417 593" fill="none" id="make-me-a-hanzi-animation-2" stroke-dasharray="227 454" stroke-linecap="round"></path>
    
      <clipPath id="make-me-a-hanzi-clip-3">
        <path d="M 633 755 Q 648 786 663 811 Q 670 824 656 837 Q 608 862 588 858 Q 578 854 581 840 Q 602 761 524 646 Q 514 636 492 600 Q 485 584 499 590 Q 515 594 534 613 Q 595 670 625 737 L 633 755 Z"></path>
      </clipPath>
      <path clip-path="url(#make-me-a-hanzi-clip-3)" d="M 593 846 L 622 813 L 600 741 L 559 666 L 502 599" fill="none" id="make-me-a-hanzi-animation-3" stroke-dasharray="421 842" stroke-linecap="round"></path>
    
      <clipPath id="make-me-a-hanzi-clip-4">
        <path d="M 625 737 Q 634 728 668 724 Q 687 723 820 759 Q 842 765 845 769 Q 852 776 848 785 Q 841 795 811 800 Q 790 803 706 772 Q 673 763 638 757 Q 634 757 633 755 C 610 747 610 747 625 737 Z"></path>
      </clipPath>
      <path clip-path="url(#make-me-a-hanzi-clip-4)" d="M 632 739 L 704 750 L 792 776 L 837 779" fill="none" id="make-me-a-hanzi-animation-4" stroke-dasharray="338 676" stroke-linecap="round"></path>
    
      <clipPath id="make-me-a-hanzi-clip-5">
        <path d="M 650 637 Q 678 618 709 595 Q 721 586 734 588 Q 741 589 745 600 Q 748 613 738 636 Q 726 663 641 676 Q 628 677 624 675 Q 620 671 622 661 Q 626 652 650 637 Z"></path>
      </clipPath>
      <path clip-path="url(#make-me-a-hanzi-clip-5)" d="M 629 667 L 698 636 L 730 603" fill="none" id="make-me-a-hanzi-animation-5" stroke-dasharray="250 500" stroke-linecap="round"></path>
    
      <clipPath id="make-me-a-hanzi-clip-6">
        <path d="M 354 402 Q 465 435 467 436 Q 474 443 471 450 Q 464 460 439 466 Q 412 470 358 449 L 311 433 Q 196 403 115 392 Q 84 386 106 372 Q 142 353 190 365 Q 239 377 291 387 L 354 402 Z"></path>
      </clipPath>
      <path clip-path="url(#make-me-a-hanzi-clip-6)" d="M 108 383 L 129 378 L 178 382 L 330 417 L 415 444 L 463 445" fill="none" id="make-me-a-hanzi-animation-6" stroke-dasharray="492 984" stroke-linecap="round"></path>
    
      <clipPath id="make-me-a-hanzi-clip-7">
        <path d="M 352 320 Q 352 360 354 402 L 358 449 Q 361 477 368 499 Q 375 511 373 522 Q 367 529 323 558 Q 304 571 287 559 Q 283 555 288 543 Q 310 509 311 433 L 310 323 Q 307 134 293 78 Q 281 27 301 -15 Q 301 -16 302 -18 Q 306 -31 313 -35 Q 319 -41 324 -34 Q 345 -21 347 32 Q 346 62 351 292 L 352 320 Z"></path>
      </clipPath>
      <path clip-path="url(#make-me-a-hanzi-clip-7)" d="M 297 553 L 321 533 L 336 509 L 318 -24" fill="none" id="make-me-a-hanzi-animation-7" stroke-dasharray="721 1442" stroke-linecap="round"></path>
    
      <clipPath id="make-me-a-hanzi-clip-8">
        <path d="M 291 387 Q 243 279 91 101 Q 85 91 96 90 Q 102 89 112 97 Q 233 190 310 323 C 359 406 304 414 291 387 Z"></path>
      </clipPath>
      <path clip-path="url(#make-me-a-hanzi-clip-8)" d="M 307 385 L 298 378 L 287 327 L 236 249 L 157 154 L 98 98" fill="none" id="make-me-a-hanzi-animation-8" stroke-dasharray="490 980" stroke-linecap="round"></path>
    
      <clipPath id="make-me-a-hanzi-clip-9">
        <path d="M 351 292 Q 366 283 426 236 Q 439 226 453 227 Q 462 228 465 240 Q 468 253 458 278 Q 446 308 363 320 Q 356 321 352 320 C 322 317 326 308 351 292 Z"></path>
      </clipPath>
      <path clip-path="url(#make-me-a-hanzi-clip-9)" d="M 358 313 L 425 273 L 451 241" fill="none" id="make-me-a-hanzi-animation-9" stroke-dasharray="247 494" stroke-linecap="round"></path>
    
      <clipPath id="make-me-a-hanzi-clip-10">
        <path d="M 564 477 Q 546 490 525 496 Q 518 497 511 490 Q 508 486 515 475 Q 554 384 530 196 Q 526 166 516 133 Q 509 108 514 91 Q 523 60 533 48 Q 543 35 553 48 Q 557 54 562 63 L 570 96 Q 577 138 578 223 L 578 250 Q 578 295 579 341 L 579 366 Q 580 424 583 445 C 585 464 585 464 564 477 Z"></path>
      </clipPath>
      <path clip-path="url(#make-me-a-hanzi-clip-10)" d="M 522 485 L 552 448 L 560 377 L 555 193 L 541 102 L 543 52" fill="none" id="make-me-a-hanzi-animation-10" stroke-dasharray="573 1146" stroke-linecap="round"></path>
    
      <clipPath id="make-me-a-hanzi-clip-11">
        <path d="M 714 78 Q 745 38 768 0 Q 778 -18 788 -17 Q 804 -16 820 18 Q 833 48 834 118 Q 807 428 834 462 Q 844 475 834 485 Q 815 504 763 527 Q 745 536 730 527 Q 676 500 564 477 C 535 471 554 439 583 445 Q 593 446 723 475 Q 742 479 751 473 Q 781 443 763 105 Q 759 93 750 93 C 732 69 702 94 714 78 Z"></path>
      </clipPath>
      <path clip-path="url(#make-me-a-hanzi-clip-11)" d="M 575 476 L 584 467 L 606 467 L 748 503 L 775 490 L 795 468 L 797 92 L 784 59 L 723 74" fill="none" id="make-me-a-hanzi-animation-11" stroke-dasharray="843 1686" stroke-linecap="round"></path>
    
      <clipPath id="make-me-a-hanzi-clip-12">
        <path d="M 579 341 Q 633 332 722 360 Q 723 361 724 361 Q 731 368 727 375 Q 720 384 697 389 Q 685 392 616 374 Q 598 370 579 366 C 550 360 549 345 579 341 Z"></path>
      </clipPath>
      <path clip-path="url(#make-me-a-hanzi-clip-12)" d="M 585 347 L 594 354 L 667 367 L 719 370" fill="none" id="make-me-a-hanzi-animation-12" stroke-dasharray="266 532" stroke-linecap="round"></path>
    
      <clipPath id="make-me-a-hanzi-clip-13">
        <path d="M 578 223 Q 593 219 673 230 Q 688 234 705 236 Q 721 239 723 241 Q 730 248 726 255 Q 720 264 697 270 Q 685 273 612 255 Q 596 252 578 250 C 548 247 548 228 578 223 Z"></path>
      </clipPath>
      <path clip-path="url(#make-me-a-hanzi-clip-13)" d="M 582 230 L 593 237 L 679 251 L 716 250" fill="none" id="make-me-a-hanzi-animation-13" stroke-dasharray="265 530" stroke-linecap="round"></path>
    
      <clipPath id="make-me-a-hanzi-clip-14">
        <path d="M 562 63 Q 563 63 568 63 Q 614 73 714 78 C 744 80 758 80 750 93 Q 746 102 724 116 Q 709 125 680 118 Q 620 105 570 96 C 540 91 532 63 562 63 Z"></path>
      </clipPath>
      <path clip-path="url(#make-me-a-hanzi-clip-14)" d="M 565 68 L 592 84 L 662 95 L 722 99 L 743 93" fill="none" id="make-me-a-hanzi-animation-14" stroke-dasharray="312 624" stroke-linecap="round"></path>
    
  </g>
</svg>