<svg version="1.1" viewBox="0 0 1024 1024" xmlns="http://www.w3.org/2000/svg">
  <g stroke="lightgray" stroke-dasharray="1,1" stroke-width="1" transform="scale(4, 4)">
    <line x1="0" y1="0" x2="256" y2="256"></line>
    <line x1="256" y1="0" x2="0" y2="256"></line>
    <line x1="128" y1="0" x2="128" y2="256"></line>
    <line x1="0" y1="128" x2="256" y2="128"></line>
  </g>
  <g transform="scale(1, -1) translate(0, -900)">
    <style type="text/css">
      
        @keyframes keyframes0 {
          from {
            stroke: blue;
            stroke-dashoffset: 563;
            stroke-width: 128;
          }
          65% {
            animation-timing-function: step-end;
            stroke: blue;
            stroke-dashoffset: 0;
            stroke-width: 128;
          }
          to {
            stroke: black;
            stroke-width: 1024;
          }
        }
        #make-me-a-hanzi-animation-0 {
          animation: keyframes0 0.7081705729166666s both;
          animation-delay: 0s;
          animation-timing-function: linear;
        }
      
        @keyframes keyframes1 {
          from {
            stroke: blue;
            stroke-dashoffset: 403;
            stroke-width: 128;
          }
          57% {
            animation-timing-function: step-end;
            stroke: blue;
            stroke-dashoffset: 0;
            stroke-width: 128;
          }
          to {
            stroke: black;
            stroke-width: 1024;
          }
        }
        #make-me-a-hanzi-animation-1 {
          animation: keyframes1 0.5779622395833334s both;
          animation-delay: 0.7081705729166666s;
          animation-timing-function: linear;
        }
      
        @keyframes keyframes2 {
          from {
            stroke: blue;
            stroke-dashoffset: 355;
            stroke-width: 128;
          }
          54% {
            animation-timing-function: step-end;
            stroke: blue;
            stroke-dashoffset: 0;
            stroke-width: 128;
          }
          to {
            stroke: black;
            stroke-width: 1024;
          }
        }
        #make-me-a-hanzi-animation-2 {
          animation: keyframes2 0.5388997395833334s both;
          animation-delay: 1.2861328125s;
          animation-timing-function: linear;
        }
      
        @keyframes keyframes3 {
          from {
            stroke: blue;
            stroke-dashoffset: 516;
            stroke-width: 128;
          }
          63% {
            animation-timing-function: step-end;
            stroke: blue;
            stroke-dashoffset: 0;
            stroke-width: 128;
          }
          to {
            stroke: black;
            stroke-width: 1024;
          }
        }
        #make-me-a-hanzi-animation-3 {
          animation: keyframes3 0.669921875s both;
          animation-delay: 1.8250325520833335s;
          animation-timing-function: linear;
        }
      
        @keyframes keyframes4 {
          from {
            stroke: blue;
            stroke-dashoffset: 460;
            stroke-width: 128;
          }
          60% {
            animation-timing-function: step-end;
            stroke: blue;
            stroke-dashoffset: 0;
            stroke-width: 128;
          }
          to {
            stroke: black;
            stroke-width: 1024;
          }
        }
        #make-me-a-hanzi-animation-4 {
          animation: keyframes4 0.6243489583333334s both;
          animation-delay: 2.4949544270833335s;
          animation-timing-function: linear;
        }
      
        @keyframes keyframes5 {
          from {
            stroke: blue;
            stroke-dashoffset: 359;
            stroke-width: 128;
          }
          54% {
            animation-timing-function: step-end;
            stroke: blue;
            stroke-dashoffset: 0;
            stroke-width: 128;
          }
          to {
            stroke: black;
            stroke-width: 1024;
          }
        }
        #make-me-a-hanzi-animation-5 {
          animation: keyframes5 0.5421549479166666s both;
          animation-delay: 3.119303385416667s;
          animation-timing-function: linear;
        }
      
        @keyframes keyframes6 {
          from {
            stroke: blue;
            stroke-dashoffset: 689;
            stroke-width: 128;
          }
          69% {
            animation-timing-function: step-end;
            stroke: blue;
            stroke-dashoffset: 0;
            stroke-width: 128;
          }
          to {
            stroke: black;
            stroke-width: 1024;
          }
        }
        #make-me-a-hanzi-animation-6 {
          animation: keyframes6 0.8107096354166666s both;
          animation-delay: 3.6614583333333335s;
          animation-timing-function: linear;
        }
      
        @keyframes keyframes7 {
          from {
            stroke: blue;
            stroke-dashoffset: 648;
            stroke-width: 128;
          }
          68% {
            animation-timing-function: step-end;
            stroke: blue;
            stroke-dashoffset: 0;
            stroke-width: 128;
          }
          to {
            stroke: black;
            stroke-width: 1024;
          }
        }
        #make-me-a-hanzi-animation-7 {
          animation: keyframes7 0.77734375s both;
          animation-delay: 4.47216796875s;
          animation-timing-function: linear;
        }
      
        @keyframes keyframes8 {
          from {
            stroke: blue;
            stroke-dashoffset: 385;
            stroke-width: 128;
          }
          56% {
            animation-timing-function: step-end;
            stroke: blue;
            stroke-dashoffset: 0;
            stroke-width: 128;
          }
          to {
            stroke: black;
            stroke-width: 1024;
          }
        }
        #make-me-a-hanzi-animation-8 {
          animation: keyframes8 0.5633138020833334s both;
          animation-delay: 5.24951171875s;
          animation-timing-function: linear;
        }
      
        @keyframes keyframes9 {
          from {
            stroke: blue;
            stroke-dashoffset: 374;
            stroke-width: 128;
          }
          55% {
            animation-timing-function: step-end;
            stroke: blue;
            stroke-dashoffset: 0;
            stroke-width: 128;
          }
          to {
            stroke: black;
            stroke-width: 1024;
          }
        }
        #make-me-a-hanzi-animation-9 {
          animation: keyframes9 0.5543619791666666s both;
          animation-delay: 5.812825520833333s;
          animation-timing-function: linear;
        }
      
        @keyframes keyframes10 {
          from {
            stroke: blue;
            stroke-dashoffset: 426;
            stroke-width: 128;
          }
          58% {
            animation-timing-function: step-end;
            stroke: blue;
            stroke-dashoffset: 0;
            stroke-width: 128;
          }
          to {
            stroke: black;
            stroke-width: 1024;
          }
        }
        #make-me-a-hanzi-animation-10 {
          animation: keyframes10 0.5966796875s both;
          animation-delay: 6.3671875s;
          animation-timing-function: linear;
        }
      
        @keyframes keyframes11 {
          from {
            stroke: blue;
            stroke-dashoffset: 657;
            stroke-width: 128;
          }
          68% {
            animation-timing-function: step-end;
            stroke: blue;
            stroke-dashoffset: 0;
            stroke-width: 128;
          }
          to {
            stroke: black;
            stroke-width: 1024;
          }
        }
        #make-me-a-hanzi-animation-11 {
          animation: keyframes11 0.78466796875s both;
          animation-delay: 6.9638671875s;
          animation-timing-function: linear;
        }
      
        @keyframes keyframes12 {
          from {
            stroke: blue;
            stroke-dashoffset: 388;
            stroke-width: 128;
          }
          56% {
            animation-timing-function: step-end;
            stroke: blue;
            stroke-dashoffset: 0;
            stroke-width: 128;
          }
          to {
            stroke: black;
            stroke-width: 1024;
          }
        }
        #make-me-a-hanzi-animation-12 {
          animation: keyframes12 0.5657552083333334s both;
          animation-delay: 7.74853515625s;
          animation-timing-function: linear;
        }
      
        @keyframes keyframes13 {
          from {
            stroke: blue;
            stroke-dashoffset: 384;
            stroke-width: 128;
          }
          56% {
            animation-timing-function: step-end;
            stroke: blue;
            stroke-dashoffset: 0;
            stroke-width: 128;
          }
          to {
            stroke: black;
            stroke-width: 1024;
          }
        }
        #make-me-a-hanzi-animation-13 {
          animation: keyframes13 0.5625s both;
          animation-delay: 8.314290364583334s;
          animation-timing-function: linear;
        }
      
        @keyframes keyframes14 {
          from {
            stroke: blue;
            stroke-dashoffset: 417;
            stroke-width: 128;
          }
          58% {
            animation-timing-function: step-end;
            stroke: blue;
            stroke-dashoffset: 0;
            stroke-width: 128;
          }
          to {
            stroke: black;
            stroke-width: 1024;
          }
        }
        #make-me-a-hanzi-animation-14 {
          animation: keyframes14 0.58935546875s both;
          animation-delay: 8.876790364583334s;
          animation-timing-function: linear;
        }
      
        @keyframes keyframes15 {
          from {
            stroke: blue;
            stroke-dashoffset: 1403;
            stroke-width: 128;
          }
          82% {
            animation-timing-function: step-end;
            stroke: blue;
            stroke-dashoffset: 0;
            stroke-width: 128;
          }
          to {
            stroke: black;
            stroke-width: 1024;
          }
        }
        #make-me-a-hanzi-animation-15 {
          animation: keyframes15 1.3917643229166667s both;
          animation-delay: 9.466145833333334s;
          animation-timing-function: linear;
        }
      
    </style>
    
      <path d="M 342 715 Q 355 739 372 759 Q 382 772 367 786 Q 325 817 299 815 Q 289 812 291 798 Q 303 711 212 601 Q 200 597 173 556 Q 166 541 180 546 Q 214 549 290 634 Q 317 670 329 693 L 342 715 Z" fill="lightgray"></path>
    
      <path d="M 329 693 L 330 693 Q 372 672 420 689 Q 448 695 477 701 Q 490 704 492 706 Q 499 713 495 721 Q 488 731 461 737 Q 446 740 376 720 Q 360 717 342 715 C 312 712 301 704 329 693 Z" fill="lightgray"></path>
    
      <path d="M 363 603 Q 384 587 407 568 Q 417 559 430 561 Q 437 562 441 572 Q 444 584 435 606 Q 426 627 357 639 Q 344 640 340 639 Q 336 635 338 625 Q 342 618 363 603 Z" fill="lightgray"></path>
    
      <path d="M 622 742 Q 638 772 653 796 Q 660 809 647 821 Q 602 848 582 842 Q 572 839 575 826 Q 594 750 525 656 Q 516 653 496 615 Q 490 600 503 606 Q 516 609 534 625 Q 583 670 612 721 L 622 742 Z" fill="lightgray"></path>
    
      <path d="M 612 721 Q 645 703 713 716 Q 755 725 800 733 Q 824 739 827 742 Q 836 749 831 757 Q 824 767 797 774 Q 770 778 743 768 Q 716 759 688 752 Q 657 745 622 742 C 592 739 585 734 612 721 Z" fill="lightgray"></path>
    
      <path d="M 653 640 Q 675 625 699 607 Q 711 598 723 600 Q 730 601 733 612 Q 736 624 726 646 Q 714 668 644 676 Q 632 677 628 675 Q 624 671 627 661 Q 631 654 653 640 Z" fill="lightgray"></path>
    
      <path d="M 312 487 Q 315 487 317 486 Q 335 482 391 488 Q 715 533 733 546 Q 742 553 738 561 Q 732 573 706 581 Q 681 588 589 562 Q 427 528 294 521 Q 290 521 290 520 C 260 517 282 492 312 487 Z" fill="lightgray"></path>
    
      <path d="M 449 190 Q 448 162 442 143 Q 432 121 457 78 Q 464 65 475 75 Q 491 96 492 205 Q 492 376 504 413 Q 504 416 506 418 Q 512 431 502 442 Q 486 455 457 469 Q 445 473 435 468 Q 429 464 432 453 Q 445 434 453 401 L 456 369 Q 457 345 457 312 Q 456 309 456 305 L 455 275 Q 452 244 450 207 L 449 190 Z" fill="lightgray"></path>
    
      <path d="M 453 401 Q 452 402 451 402 Q 435 405 374 389 Q 353 386 330 384 Q 302 380 322 367 Q 349 351 423 364 Q 438 367 456 369 C 486 372 482 393 453 401 Z" fill="lightgray"></path>
    
      <path d="M 456 305 Q 426 314 374 292 Q 358 289 340 287 Q 312 280 333 268 Q 366 250 412 266 Q 433 270 455 275 C 484 282 485 298 456 305 Z" fill="lightgray"></path>
    
      <path d="M 450 207 Q 389 194 329 178 Q 308 175 290 178 Q 287 178 288 177 C 258 174 262 169 287 152 Q 311 136 322 131 Q 335 125 351 134 Q 367 147 449 190 C 476 204 479 213 450 207 Z" fill="lightgray"></path>
    
      <path d="M 630 211 Q 631 254 631 291 L 631 320 Q 632 339 632 356 Q 632 378 636 398 L 643 428 Q 644 434 647 439 Q 654 452 644 465 Q 625 478 596 492 Q 584 498 574 492 Q 567 488 570 476 Q 606 419 587 224 Q 574 134 583 111 Q 586 101 592 90 Q 601 77 611 87 Q 632 114 630 178 L 630 211 Z" fill="lightgray"></path>
    
      <path d="M 636 398 Q 685 392 776 421 Q 776 422 777 422 Q 784 429 780 438 Q 773 448 745 452 Q 721 455 643 428 C 615 418 606 401 636 398 Z" fill="lightgray"></path>
    
      <path d="M 631 291 Q 671 285 755 309 Q 768 313 769 314 Q 776 321 772 330 Q 765 340 737 344 Q 709 347 683 333 Q 652 324 631 320 C 602 314 601 295 631 291 Z" fill="lightgray"></path>
    
      <path d="M 630 178 Q 705 178 798 201 Q 798 202 799 202 Q 806 209 803 217 Q 796 227 770 235 Q 742 239 715 229 Q 693 222 669 217 Q 650 214 630 211 C 600 207 600 178 630 178 Z" fill="lightgray"></path>
    
      <path d="M 288 177 Q 294 378 307 465 Q 307 481 312 487 C 316 508 316 508 290 520 Q 256 539 240 540 Q 227 541 218 534 Q 208 527 222 510 Q 252 474 235 183 Q 220 44 198 26 Q 177 8 189 -10 Q 195 -28 211 -40 Q 226 -52 248 -37 Q 332 27 731 18 Q 789 17 821 12 Q 846 8 859 14 Q 869 21 870 28 Q 869 43 834 65 Q 800 86 780 85 Q 738 84 418 45 Q 295 24 286 38 Q 283 41 287 152 L 288 177 Z" fill="lightgray"></path>
    
    
      <clipPath id="make-me-a-hanzi-clip-0">
        <path d="M 342 715 Q 355 739 372 759 Q 382 772 367 786 Q 325 817 299 815 Q 289 812 291 798 Q 303 711 212 601 Q 200 597 173 556 Q 166 541 180 546 Q 214 549 290 634 Q 317 670 329 693 L 342 715 Z"></path>
      </clipPath>
      <path clip-path="url(#make-me-a-hanzi-clip-0)" d="M 303 803 L 329 764 L 304 701 L 253 620 L 182 555" fill="none" id="make-me-a-hanzi-animation-0" stroke-dasharray="435 870" stroke-linecap="round"></path>
    
      <clipPath id="make-me-a-hanzi-clip-1">
        <path d="M 329 693 L 330 693 Q 372 672 420 689 Q 448 695 477 701 Q 490 704 492 706 Q 499 713 495 721 Q 488 731 461 737 Q 446 740 376 720 Q 360 717 342 715 C 312 712 301 704 329 693 Z"></path>
      </clipPath>
      <path clip-path="url(#make-me-a-hanzi-clip-1)" d="M 339 695 L 442 715 L 484 715" fill="none" id="make-me-a-hanzi-animation-1" stroke-dasharray="275 550" stroke-linecap="round"></path>
    
      <clipPath id="make-me-a-hanzi-clip-2">
        <path d="M 363 603 Q 384 587 407 568 Q 417 559 430 561 Q 437 562 441 572 Q 444 584 435 606 Q 426 627 357 639 Q 344 640 340 639 Q 336 635 338 625 Q 342 618 363 603 Z"></path>
      </clipPath>
      <path clip-path="url(#make-me-a-hanzi-clip-2)" d="M 344 631 L 396 607 L 425 577" fill="none" id="make-me-a-hanzi-animation-2" stroke-dasharray="227 454" stroke-linecap="round"></path>
    
      <clipPath id="make-me-a-hanzi-clip-3">
        <path d="M 622 742 Q 638 772 653 796 Q 660 809 647 821 Q 602 848 582 842 Q 572 839 575 826 Q 594 750 525 656 Q 516 653 496 615 Q 490 600 503 606 Q 516 609 534 625 Q 583 670 612 721 L 622 742 Z"></path>
      </clipPath>
      <path clip-path="url(#make-me-a-hanzi-clip-3)" d="M 585 831 L 614 799 L 594 736 L 560 676 L 505 615" fill="none" id="make-me-a-hanzi-animation-3" stroke-dasharray="388 776" stroke-linecap="round"></path>
    
      <clipPath id="make-me-a-hanzi-clip-4">
        <path d="M 612 721 Q 645 703 713 716 Q 755 725 800 733 Q 824 739 827 742 Q 836 749 831 757 Q 824 767 797 774 Q 770 778 743 768 Q 716 759 688 752 Q 657 745 622 742 C 592 739 585 734 612 721 Z"></path>
      </clipPath>
      <path clip-path="url(#make-me-a-hanzi-clip-4)" d="M 619 724 L 684 731 L 767 751 L 820 752" fill="none" id="make-me-a-hanzi-animation-4" stroke-dasharray="332 664" stroke-linecap="round"></path>
    
      <clipPath id="make-me-a-hanzi-clip-5">
        <path d="M 653 640 Q 675 625 699 607 Q 711 598 723 600 Q 730 601 733 612 Q 736 624 726 646 Q 714 668 644 676 Q 632 677 628 675 Q 624 671 627 661 Q 631 654 653 640 Z"></path>
      </clipPath>
      <path clip-path="url(#make-me-a-hanzi-clip-5)" d="M 633 668 L 696 640 L 718 614" fill="none" id="make-me-a-hanzi-animation-5" stroke-dasharray="231 462" stroke-linecap="round"></path>
    
      <clipPath id="make-me-a-hanzi-clip-6">
        <path d="M 312 487 Q 315 487 317 486 Q 335 482 391 488 Q 715 533 733 546 Q 742 553 738 561 Q 732 573 706 581 Q 681 588 589 562 Q 427 528 294 521 Q 290 521 290 520 C 260 517 282 492 312 487 Z"></path>
      </clipPath>
      <path clip-path="url(#make-me-a-hanzi-clip-6)" d="M 301 517 L 322 504 L 403 508 L 674 557 L 726 557" fill="none" id="make-me-a-hanzi-animation-6" stroke-dasharray="561 1122" stroke-linecap="round"></path>
    
      <clipPath id="make-me-a-hanzi-clip-7">
        <path d="M 449 190 Q 448 162 442 143 Q 432 121 457 78 Q 464 65 475 75 Q 491 96 492 205 Q 492 376 504 413 Q 504 416 506 418 Q 512 431 502 442 Q 486 455 457 469 Q 445 473 435 468 Q 429 464 432 453 Q 445 434 453 401 L 456 369 Q 457 345 457 312 Q 456 309 456 305 L 455 275 Q 452 244 450 207 L 449 190 Z"></path>
      </clipPath>
      <path clip-path="url(#make-me-a-hanzi-clip-7)" d="M 443 459 L 477 424 L 472 193 L 464 128 L 467 81" fill="none" id="make-me-a-hanzi-animation-7" stroke-dasharray="520 1040" stroke-linecap="round"></path>
    
      <clipPath id="make-me-a-hanzi-clip-8">
        <path d="M 453 401 Q 452 402 451 402 Q 435 405 374 389 Q 353 386 330 384 Q 302 380 322 367 Q 349 351 423 364 Q 438 367 456 369 C 486 372 482 393 453 401 Z"></path>
      </clipPath>
      <path clip-path="url(#make-me-a-hanzi-clip-8)" d="M 324 377 L 376 373 L 426 383 L 449 395" fill="none" id="make-me-a-hanzi-animation-8" stroke-dasharray="257 514" stroke-linecap="round"></path>
    
      <clipPath id="make-me-a-hanzi-clip-9">
        <path d="M 456 305 Q 426 314 374 292 Q 358 289 340 287 Q 312 280 333 268 Q 366 250 412 266 Q 433 270 455 275 C 484 282 485 298 456 305 Z"></path>
      </clipPath>
      <path clip-path="url(#make-me-a-hanzi-clip-9)" d="M 335 278 L 383 276 L 449 298" fill="none" id="make-me-a-hanzi-animation-9" stroke-dasharray="246 492" stroke-linecap="round"></path>
    
      <clipPath id="make-me-a-hanzi-clip-10">
        <path d="M 450 207 Q 389 194 329 178 Q 308 175 290 178 Q 287 178 288 177 C 258 174 262 169 287 152 Q 311 136 322 131 Q 335 125 351 134 Q 367 147 449 190 C 476 204 479 213 450 207 Z"></path>
      </clipPath>
      <path clip-path="url(#make-me-a-hanzi-clip-10)" d="M 292 171 L 304 160 L 333 153 L 436 191 L 443 203" fill="none" id="make-me-a-hanzi-animation-10" stroke-dasharray="298 596" stroke-linecap="round"></path>
    
      <clipPath id="make-me-a-hanzi-clip-11">
        <path d="M 630 211 Q 631 254 631 291 L 631 320 Q 632 339 632 356 Q 632 378 636 398 L 643 428 Q 644 434 647 439 Q 654 452 644 465 Q 625 478 596 492 Q 584 498 574 492 Q 567 488 570 476 Q 606 419 587 224 Q 574 134 583 111 Q 586 101 592 90 Q 601 77 611 87 Q 632 114 630 178 L 630 211 Z"></path>
      </clipPath>
      <path clip-path="url(#make-me-a-hanzi-clip-11)" d="M 582 482 L 616 444 L 602 94" fill="none" id="make-me-a-hanzi-animation-11" stroke-dasharray="529 1058" stroke-linecap="round"></path>
    
      <clipPath id="make-me-a-hanzi-clip-12">
        <path d="M 636 398 Q 685 392 776 421 Q 776 422 777 422 Q 784 429 780 438 Q 773 448 745 452 Q 721 455 643 428 C 615 418 606 401 636 398 Z"></path>
      </clipPath>
      <path clip-path="url(#make-me-a-hanzi-clip-12)" d="M 642 404 L 659 416 L 734 431 L 769 432" fill="none" id="make-me-a-hanzi-animation-12" stroke-dasharray="260 520" stroke-linecap="round"></path>
    
      <clipPath id="make-me-a-hanzi-clip-13">
        <path d="M 631 291 Q 671 285 755 309 Q 768 313 769 314 Q 776 321 772 330 Q 765 340 737 344 Q 709 347 683 333 Q 652 324 631 320 C 602 314 601 295 631 291 Z"></path>
      </clipPath>
      <path clip-path="url(#make-me-a-hanzi-clip-13)" d="M 637 298 L 652 308 L 709 320 L 761 324" fill="none" id="make-me-a-hanzi-animation-13" stroke-dasharray="256 512" stroke-linecap="round"></path>
    
      <clipPath id="make-me-a-hanzi-clip-14">
        <path d="M 630 178 Q 705 178 798 201 Q 798 202 799 202 Q 806 209 803 217 Q 796 227 770 235 Q 742 239 715 229 Q 693 222 669 217 Q 650 214 630 211 C 600 207 600 178 630 178 Z"></path>
      </clipPath>
      <path clip-path="url(#make-me-a-hanzi-clip-14)" d="M 637 184 L 650 196 L 761 215 L 792 212" fill="none" id="make-me-a-hanzi-animation-14" stroke-dasharray="289 578" stroke-linecap="round"></path>
    
      <clipPath id="make-me-a-hanzi-clip-15">
        <path d="M 288 177 Q 294 378 307 465 Q 307 481 312 487 C 316 508 316 508 290 520 Q 256 539 240 540 Q 227 541 218 534 Q 208 527 222 510 Q 252 474 235 183 Q 220 44 198 26 Q 177 8 189 -10 Q 195 -28 211 -40 Q 226 -52 248 -37 Q 332 27 731 18 Q 789 17 821 12 Q 846 8 859 14 Q 869 21 870 28 Q 869 43 834 65 Q 800 86 780 85 Q 738 84 418 45 Q 295 24 286 38 Q 283 41 287 152 L 288 177 Z"></path>
      </clipPath>
      <path clip-path="url(#make-me-a-hanzi-clip-15)" d="M 229 524 L 266 495 L 272 475 L 264 209 L 246 15 L 278 9 L 433 32 L 770 51 L 859 29" fill="none" id="make-me-a-hanzi-animation-15" stroke-dasharray="1275 2550" stroke-linecap="round"></path>
    
  </g>
</svg>