<svg version="1.1" viewBox="0 0 1024 1024" xmlns="http://www.w3.org/2000/svg">
  <g stroke="lightgray" stroke-dasharray="1,1" stroke-width="1" transform="scale(4, 4)">
    <line x1="0" y1="0" x2="256" y2="256"></line>
    <line x1="256" y1="0" x2="0" y2="256"></line>
    <line x1="128" y1="0" x2="128" y2="256"></line>
    <line x1="0" y1="128" x2="256" y2="128"></line>
  </g>
  <g transform="scale(1, -1) translate(0, -900)">
    <style type="text/css">
      
        @keyframes keyframes0 {
          from {
            stroke: blue;
            stroke-dashoffset: 534;
            stroke-width: 128;
          }
          63% {
            animation-timing-function: step-end;
            stroke: blue;
            stroke-dashoffset: 0;
            stroke-width: 128;
          }
          to {
            stroke: black;
            stroke-width: 1024;
          }
        }
        #make-me-a-hanzi-animation-0 {
          animation: keyframes0 0.6845703125s both;
          animation-delay: 0s;
          animation-timing-function: linear;
        }
      
        @keyframes keyframes1 {
          from {
            stroke: blue;
            stroke-dashoffset: 426;
            stroke-width: 128;
          }
          58% {
            animation-timing-function: step-end;
            stroke: blue;
            stroke-dashoffset: 0;
            stroke-width: 128;
          }
          to {
            stroke: black;
            stroke-width: 1024;
          }
        }
        #make-me-a-hanzi-animation-1 {
          animation: keyframes1 0.5966796875s both;
          animation-delay: 0.6845703125s;
          animation-timing-function: linear;
        }
      
        @keyframes keyframes2 {
          from {
            stroke: blue;
            stroke-dashoffset: 346;
            stroke-width: 128;
          }
          53% {
            animation-timing-function: step-end;
            stroke: blue;
            stroke-dashoffset: 0;
            stroke-width: 128;
          }
          to {
            stroke: black;
            stroke-width: 1024;
          }
        }
        #make-me-a-hanzi-animation-2 {
          animation: keyframes2 0.5315755208333334s both;
          animation-delay: 1.28125s;
          animation-timing-function: linear;
        }
      
        @keyframes keyframes3 {
          from {
            stroke: blue;
            stroke-dashoffset: 473;
            stroke-width: 128;
          }
          61% {
            animation-timing-function: step-end;
            stroke: blue;
            stroke-dashoffset: 0;
            stroke-width: 128;
          }
          to {
            stroke: black;
            stroke-width: 1024;
          }
        }
        #make-me-a-hanzi-animation-3 {
          animation: keyframes3 0.6349283854166666s both;
          animation-delay: 1.8128255208333335s;
          animation-timing-function: linear;
        }
      
        @keyframes keyframes4 {
          from {
            stroke: blue;
            stroke-dashoffset: 439;
            stroke-width: 128;
          }
          59% {
            animation-timing-function: step-end;
            stroke: blue;
            stroke-dashoffset: 0;
            stroke-width: 128;
          }
          to {
            stroke: black;
            stroke-width: 1024;
          }
        }
        #make-me-a-hanzi-animation-4 {
          animation: keyframes4 0.6072591145833334s both;
          animation-delay: 2.44775390625s;
          animation-timing-function: linear;
        }
      
        @keyframes keyframes5 {
          from {
            stroke: blue;
            stroke-dashoffset: 385;
            stroke-width: 128;
          }
          56% {
            animation-timing-function: step-end;
            stroke: blue;
            stroke-dashoffset: 0;
            stroke-width: 128;
          }
          to {
            stroke: black;
            stroke-width: 1024;
          }
        }
        #make-me-a-hanzi-animation-5 {
          animation: keyframes5 0.5633138020833334s both;
          animation-delay: 3.0550130208333335s;
          animation-timing-function: linear;
        }
      
        @keyframes keyframes6 {
          from {
            stroke: blue;
            stroke-dashoffset: 798;
            stroke-width: 128;
          }
          72% {
            animation-timing-function: step-end;
            stroke: blue;
            stroke-dashoffset: 0;
            stroke-width: 128;
          }
          to {
            stroke: black;
            stroke-width: 1024;
          }
        }
        #make-me-a-hanzi-animation-6 {
          animation: keyframes6 0.8994140625s both;
          animation-delay: 3.618326822916667s;
          animation-timing-function: linear;
        }
      
        @keyframes keyframes7 {
          from {
            stroke: blue;
            stroke-dashoffset: 804;
            stroke-width: 128;
          }
          72% {
            animation-timing-function: step-end;
            stroke: blue;
            stroke-dashoffset: 0;
            stroke-width: 128;
          }
          to {
            stroke: black;
            stroke-width: 1024;
          }
        }
        #make-me-a-hanzi-animation-7 {
          animation: keyframes7 0.904296875s both;
          animation-delay: 4.517740885416667s;
          animation-timing-function: linear;
        }
      
        @keyframes keyframes8 {
          from {
            stroke: blue;
            stroke-dashoffset: 453;
            stroke-width: 128;
          }
          60% {
            animation-timing-function: step-end;
            stroke: blue;
            stroke-dashoffset: 0;
            stroke-width: 128;
          }
          to {
            stroke: black;
            stroke-width: 1024;
          }
        }
        #make-me-a-hanzi-animation-8 {
          animation: keyframes8 0.61865234375s both;
          animation-delay: 5.422037760416667s;
          animation-timing-function: linear;
        }
      
        @keyframes keyframes9 {
          from {
            stroke: blue;
            stroke-dashoffset: 412;
            stroke-width: 128;
          }
          57% {
            animation-timing-function: step-end;
            stroke: blue;
            stroke-dashoffset: 0;
            stroke-width: 128;
          }
          to {
            stroke: black;
            stroke-width: 1024;
          }
        }
        #make-me-a-hanzi-animation-9 {
          animation: keyframes9 0.5852864583333334s both;
          animation-delay: 6.040690104166667s;
          animation-timing-function: linear;
        }
      
        @keyframes keyframes10 {
          from {
            stroke: blue;
            stroke-dashoffset: 459;
            stroke-width: 128;
          }
          60% {
            animation-timing-function: step-end;
            stroke: blue;
            stroke-dashoffset: 0;
            stroke-width: 128;
          }
          to {
            stroke: black;
            stroke-width: 1024;
          }
        }
        #make-me-a-hanzi-animation-10 {
          animation: keyframes10 0.62353515625s both;
          animation-delay: 6.6259765625s;
          animation-timing-function: linear;
        }
      
        @keyframes keyframes11 {
          from {
            stroke: blue;
            stroke-dashoffset: 388;
            stroke-width: 128;
          }
          56% {
            animation-timing-function: step-end;
            stroke: blue;
            stroke-dashoffset: 0;
            stroke-width: 128;
          }
          to {
            stroke: black;
            stroke-width: 1024;
          }
        }
        #make-me-a-hanzi-animation-11 {
          animation: keyframes11 0.5657552083333334s both;
          animation-delay: 7.24951171875s;
          animation-timing-function: linear;
        }
      
        @keyframes keyframes12 {
          from {
            stroke: blue;
            stroke-dashoffset: 407;
            stroke-width: 128;
          }
          57% {
            animation-timing-function: step-end;
            stroke: blue;
            stroke-dashoffset: 0;
            stroke-width: 128;
          }
          to {
            stroke: black;
            stroke-width: 1024;
          }
        }
        #make-me-a-hanzi-animation-12 {
          animation: keyframes12 0.5812174479166666s both;
          animation-delay: 7.815266927083333s;
          animation-timing-function: linear;
        }
      
        @keyframes keyframes13 {
          from {
            stroke: blue;
            stroke-dashoffset: 471;
            stroke-width: 128;
          }
          61% {
            animation-timing-function: step-end;
            stroke: blue;
            stroke-dashoffset: 0;
            stroke-width: 128;
          }
          to {
            stroke: black;
            stroke-width: 1024;
          }
        }
        #make-me-a-hanzi-animation-13 {
          animation: keyframes13 0.63330078125s both;
          animation-delay: 8.396484375s;
          animation-timing-function: linear;
        }
      
        @keyframes keyframes14 {
          from {
            stroke: blue;
            stroke-dashoffset: 394;
            stroke-width: 128;
          }
          56% {
            animation-timing-function: step-end;
            stroke: blue;
            stroke-dashoffset: 0;
            stroke-width: 128;
          }
          to {
            stroke: black;
            stroke-width: 1024;
          }
        }
        #make-me-a-hanzi-animation-14 {
          animation: keyframes14 0.5706380208333334s both;
          animation-delay: 9.02978515625s;
          animation-timing-function: linear;
        }
      
        @keyframes keyframes15 {
          from {
            stroke: blue;
            stroke-dashoffset: 550;
            stroke-width: 128;
          }
          64% {
            animation-timing-function: step-end;
            stroke: blue;
            stroke-dashoffset: 0;
            stroke-width: 128;
          }
          to {
            stroke: black;
            stroke-width: 1024;
          }
        }
        #make-me-a-hanzi-animation-15 {
          animation: keyframes15 0.6975911458333334s both;
          animation-delay: 9.600423177083334s;
          animation-timing-function: linear;
        }
      
        @keyframes keyframes16 {
          from {
            stroke: blue;
            stroke-dashoffset: 361;
            stroke-width: 128;
          }
          54% {
            animation-timing-function: step-end;
            stroke: blue;
            stroke-dashoffset: 0;
            stroke-width: 128;
          }
          to {
            stroke: black;
            stroke-width: 1024;
          }
        }
        #make-me-a-hanzi-animation-16 {
          animation: keyframes16 0.5437825520833334s both;
          animation-delay: 10.298014322916668s;
          animation-timing-function: linear;
        }
      
        @keyframes keyframes17 {
          from {
            stroke: blue;
            stroke-dashoffset: 494;
            stroke-width: 128;
          }
          62% {
            animation-timing-function: step-end;
            stroke: blue;
            stroke-dashoffset: 0;
            stroke-width: 128;
          }
          to {
            stroke: black;
            stroke-width: 1024;
          }
        }
        #make-me-a-hanzi-animation-17 {
          animation: keyframes17 0.6520182291666666s both;
          animation-delay: 10.841796875000002s;
          animation-timing-function: linear;
        }
      
        @keyframes keyframes18 {
          from {
            stroke: blue;
            stroke-dashoffset: 458;
            stroke-width: 128;
          }
          60% {
            animation-timing-function: step-end;
            stroke: blue;
            stroke-dashoffset: 0;
            stroke-width: 128;
          }
          to {
            stroke: black;
            stroke-width: 1024;
          }
        }
        #make-me-a-hanzi-animation-18 {
          animation: keyframes18 0.6227213541666666s both;
          animation-delay: 11.493815104166668s;
          animation-timing-function: linear;
        }
      
    </style>
    
      <path d="M 340 724 Q 353 745 366 762 Q 375 774 362 787 Q 326 817 298 814 Q 288 811 290 798 Q 305 717 216 616 Q 195 594 185 579 Q 178 566 191 570 Q 236 574 308 672 Q 323 699 326 702 L 340 724 Z" fill="lightgray"></path>
    
      <path d="M 326 702 Q 362 690 448 706 Q 466 709 486 713 Q 505 717 507 720 Q 514 727 511 734 Q 504 744 479 750 Q 454 754 428 744 Q 407 737 385 732 Q 363 728 340 724 C 310 719 297 710 326 702 Z" fill="lightgray"></path>
    
      <path d="M 340 616 Q 355 601 370 584 Q 380 574 393 574 Q 400 574 405 585 Q 409 595 403 619 Q 399 632 379 641 Q 333 659 320 655 Q 316 651 317 642 Q 320 633 340 616 Z" fill="lightgray"></path>
    
      <path d="M 620 746 Q 635 776 648 800 Q 655 812 642 822 Q 603 846 581 840 Q 571 836 575 824 Q 593 761 539 678 Q 526 659 520 646 Q 514 633 527 638 Q 563 648 608 723 L 620 746 Z" fill="lightgray"></path>
    
      <path d="M 608 723 Q 633 711 703 726 Q 739 733 777 741 Q 799 745 803 749 Q 810 756 806 763 Q 800 772 777 778 Q 765 781 674 756 Q 649 752 620 746 C 591 740 580 734 608 723 Z" fill="lightgray"></path>
    
      <path d="M 635 631 Q 663 612 694 587 Q 707 577 721 579 Q 730 580 733 592 Q 736 605 726 630 Q 714 660 627 672 Q 614 673 608 671 Q 604 667 606 656 Q 610 646 635 631 Z" fill="lightgray"></path>
    
      <path d="M 251 327 Q 363 417 432 500 Q 466 543 490 567 L 504 582 Q 514 604 515 606 Q 514 619 489 626 Q 462 636 451 633 Q 444 632 441 619 Q 405 492 114 274 Q 104 268 93 259 Q 74 246 98 249 Q 155 258 238 317 L 251 327 Z" fill="lightgray"></path>
    
      <path d="M 490 567 Q 491 564 497 560 Q 624 436 760 326 Q 805 284 959 325 Q 978 328 979 333 Q 980 340 965 344 Q 910 363 843 382 Q 693 427 526 566 Q 513 576 504 582 C 480 599 469 588 490 567 Z" fill="lightgray"></path>
    
      <path d="M 386 418 Q 356 412 378 400 Q 405 385 470 397 Q 509 406 554 416 Q 576 422 580 425 Q 587 432 583 439 Q 576 448 553 453 Q 528 457 505 446 Q 480 437 452 430 Q 421 423 386 418 Z" fill="lightgray"></path>
    
      <path d="M 292 318 Q 283 321 251 327 C 231 331 231 331 238 317 Q 265 262 279 207 Q 283 188 295 177 Q 310 161 313 173 Q 314 180 315 190 L 311 219 Q 301 273 298 294 C 295 317 295 317 292 318 Z" fill="lightgray"></path>
    
      <path d="M 428 242 Q 440 285 455 299 Q 471 318 454 330 Q 403 357 396 355 Q 392 354 388 351 Q 361 333 292 318 C 263 311 269 287 298 294 Q 302 295 312 297 Q 343 304 371 310 Q 390 313 394 306 Q 400 300 388 243 C 382 214 420 213 428 242 Z" fill="lightgray"></path>
    
      <path d="M 315 190 Q 321 190 329 192 Q 365 202 443 213 Q 453 214 453 222 Q 453 229 428 242 L 388 243 Q 387 243 385 242 Q 342 227 311 219 C 282 211 285 188 315 190 Z" fill="lightgray"></path>
    
      <path d="M 525 343 Q 516 347 493 352 Q 483 355 480 351 Q 476 347 481 334 L 482 333 Q 498 294 511 236 Q 512 217 523 205 Q 536 189 541 200 Q 544 207 544 217 L 543 245 Q 536 300 535 319 Q 535 320 536 320 C 539 338 539 338 525 343 Z" fill="lightgray"></path>
    
      <path d="M 670 260 Q 682 306 696 319 Q 715 341 695 353 Q 679 362 656 377 Q 640 386 624 376 Q 596 358 525 343 C 496 337 507 313 536 320 Q 573 329 604 335 Q 625 339 629 330 Q 633 327 631 305 Q 630 287 625 266 C 618 237 662 231 670 260 Z" fill="lightgray"></path>
    
      <path d="M 544 217 Q 551 216 561 218 Q 598 227 678 234 Q 687 235 688 242 Q 688 248 670 260 C 659 267 655 267 625 266 Q 624 267 621 266 Q 578 254 543 245 C 514 238 514 219 544 217 Z" fill="lightgray"></path>
    
      <path d="M 358 92 Q 379 123 393 132 Q 399 136 398 144 Q 395 168 362 180 Q 346 186 337 185 Q 330 184 331 174 Q 337 96 177 -35 Q 170 -39 179 -41 Q 225 -41 303 32 Q 304 35 307 36 Q 322 51 342 73 L 358 92 Z" fill="lightgray"></path>
    
      <path d="M 342 73 Q 348 67 358 58 Q 385 36 413 8 Q 422 -2 434 -1 Q 441 -1 446 9 Q 449 19 443 41 Q 439 59 413 73 Q 388 83 358 92 C 329 101 321 94 342 73 Z" fill="lightgray"></path>
    
      <path d="M 605 126 Q 620 150 633 162 Q 639 166 637 174 Q 636 181 625 191 Q 600 213 572 209 Q 565 208 567 197 Q 576 167 525 84 Q 524 83 523 81 Q 508 60 469 18 Q 462 14 471 11 Q 537 35 591 107 L 605 126 Z" fill="lightgray"></path>
    
      <path d="M 591 107 Q 592 103 598 98 Q 652 53 717 -12 Q 733 -31 749 -35 Q 758 -36 765 -25 Q 777 -12 762 31 Q 752 70 675 101 Q 633 117 605 126 C 576 135 575 132 591 107 Z" fill="lightgray"></path>
    
    
      <clipPath id="make-me-a-hanzi-clip-0">
        <path d="M 340 724 Q 353 745 366 762 Q 375 774 362 787 Q 326 817 298 814 Q 288 811 290 798 Q 305 717 216 616 Q 195 594 185 579 Q 178 566 191 570 Q 236 574 308 672 Q 323 699 326 702 L 340 724 Z"></path>
      </clipPath>
      <path clip-path="url(#make-me-a-hanzi-clip-0)" d="M 302 802 L 327 769 L 305 713 L 260 641 L 228 604 L 194 579" fill="none" id="make-me-a-hanzi-animation-0" stroke-dasharray="406 812" stroke-linecap="round"></path>
    
      <clipPath id="make-me-a-hanzi-clip-1">
        <path d="M 326 702 Q 362 690 448 706 Q 466 709 486 713 Q 505 717 507 720 Q 514 727 511 734 Q 504 744 479 750 Q 454 754 428 744 Q 407 737 385 732 Q 363 728 340 724 C 310 719 297 710 326 702 Z"></path>
      </clipPath>
      <path clip-path="url(#make-me-a-hanzi-clip-1)" d="M 332 706 L 461 730 L 500 729" fill="none" id="make-me-a-hanzi-animation-1" stroke-dasharray="298 596" stroke-linecap="round"></path>
    
      <clipPath id="make-me-a-hanzi-clip-2">
        <path d="M 340 616 Q 355 601 370 584 Q 380 574 393 574 Q 400 574 405 585 Q 409 595 403 619 Q 399 632 379 641 Q 333 659 320 655 Q 316 651 317 642 Q 320 633 340 616 Z"></path>
      </clipPath>
      <path clip-path="url(#make-me-a-hanzi-clip-2)" d="M 325 647 L 373 617 L 391 589" fill="none" id="make-me-a-hanzi-animation-2" stroke-dasharray="218 436" stroke-linecap="round"></path>
    
      <clipPath id="make-me-a-hanzi-clip-3">
        <path d="M 620 746 Q 635 776 648 800 Q 655 812 642 822 Q 603 846 581 840 Q 571 836 575 824 Q 593 761 539 678 Q 526 659 520 646 Q 514 633 527 638 Q 563 648 608 723 L 620 746 Z"></path>
      </clipPath>
      <path clip-path="url(#make-me-a-hanzi-clip-3)" d="M 585 829 L 612 802 L 607 780 L 577 707 L 529 647" fill="none" id="make-me-a-hanzi-animation-3" stroke-dasharray="345 690" stroke-linecap="round"></path>
    
      <clipPath id="make-me-a-hanzi-clip-4">
        <path d="M 608 723 Q 633 711 703 726 Q 739 733 777 741 Q 799 745 803 749 Q 810 756 806 763 Q 800 772 777 778 Q 765 781 674 756 Q 649 752 620 746 C 591 740 580 734 608 723 Z"></path>
      </clipPath>
      <path clip-path="url(#make-me-a-hanzi-clip-4)" d="M 615 727 L 761 758 L 795 758" fill="none" id="make-me-a-hanzi-animation-4" stroke-dasharray="311 622" stroke-linecap="round"></path>
    
      <clipPath id="make-me-a-hanzi-clip-5">
        <path d="M 635 631 Q 663 612 694 587 Q 707 577 721 579 Q 730 580 733 592 Q 736 605 726 630 Q 714 660 627 672 Q 614 673 608 671 Q 604 667 606 656 Q 610 646 635 631 Z"></path>
      </clipPath>
      <path clip-path="url(#make-me-a-hanzi-clip-5)" d="M 613 663 L 684 630 L 719 593" fill="none" id="make-me-a-hanzi-animation-5" stroke-dasharray="257 514" stroke-linecap="round"></path>
    
      <clipPath id="make-me-a-hanzi-clip-6">
        <path d="M 251 327 Q 363 417 432 500 Q 466 543 490 567 L 504 582 Q 514 604 515 606 Q 514 619 489 626 Q 462 636 451 633 Q 444 632 441 619 Q 405 492 114 274 Q 104 268 93 259 Q 74 246 98 249 Q 155 258 238 317 L 251 327 Z"></path>
      </clipPath>
      <path clip-path="url(#make-me-a-hanzi-clip-6)" d="M 505 606 L 469 594 L 383 479 L 284 382 L 161 288 L 102 257" fill="none" id="make-me-a-hanzi-animation-6" stroke-dasharray="670 1340" stroke-linecap="round"></path>
    
      <clipPath id="make-me-a-hanzi-clip-7">
        <path d="M 490 567 Q 491 564 497 560 Q 624 436 760 326 Q 805 284 959 325 Q 978 328 979 333 Q 980 340 965 344 Q 910 363 843 382 Q 693 427 526 566 Q 513 576 504 582 C 480 599 469 588 490 567 Z"></path>
      </clipPath>
      <path clip-path="url(#make-me-a-hanzi-clip-7)" d="M 497 567 L 513 562 L 677 428 L 793 354 L 862 340 L 973 334" fill="none" id="make-me-a-hanzi-animation-7" stroke-dasharray="676 1352" stroke-linecap="round"></path>
    
      <clipPath id="make-me-a-hanzi-clip-8">
        <path d="M 386 418 Q 356 412 378 400 Q 405 385 470 397 Q 509 406 554 416 Q 576 422 580 425 Q 587 432 583 439 Q 576 448 553 453 Q 528 457 505 446 Q 480 437 452 430 Q 421 423 386 418 Z"></path>
      </clipPath>
      <path clip-path="url(#make-me-a-hanzi-clip-8)" d="M 379 410 L 457 411 L 536 434 L 573 434" fill="none" id="make-me-a-hanzi-animation-8" stroke-dasharray="325 650" stroke-linecap="round"></path>
    
      <clipPath id="make-me-a-hanzi-clip-9">
        <path d="M 292 318 Q 283 321 251 327 C 231 331 231 331 238 317 Q 265 262 279 207 Q 283 188 295 177 Q 310 161 313 173 Q 314 180 315 190 L 311 219 Q 301 273 298 294 C 295 317 295 317 292 318 Z"></path>
      </clipPath>
      <path clip-path="url(#make-me-a-hanzi-clip-9)" d="M 247 313 L 258 312 L 272 299 L 304 177" fill="none" id="make-me-a-hanzi-animation-9" stroke-dasharray="284 568" stroke-linecap="round"></path>
    
      <clipPath id="make-me-a-hanzi-clip-10">
        <path d="M 428 242 Q 440 285 455 299 Q 471 318 454 330 Q 403 357 396 355 Q 392 354 388 351 Q 361 333 292 318 C 263 311 269 287 298 294 Q 302 295 312 297 Q 343 304 371 310 Q 390 313 394 306 Q 400 300 388 243 C 382 214 420 213 428 242 Z"></path>
      </clipPath>
      <path clip-path="url(#make-me-a-hanzi-clip-10)" d="M 304 302 L 308 310 L 382 328 L 412 324 L 425 311 L 413 263 L 395 255" fill="none" id="make-me-a-hanzi-animation-10" stroke-dasharray="331 662" stroke-linecap="round"></path>
    
      <clipPath id="make-me-a-hanzi-clip-11">
        <path d="M 315 190 Q 321 190 329 192 Q 365 202 443 213 Q 453 214 453 222 Q 453 229 428 242 L 388 243 Q 387 243 385 242 Q 342 227 311 219 C 282 211 285 188 315 190 Z"></path>
      </clipPath>
      <path clip-path="url(#make-me-a-hanzi-clip-11)" d="M 321 198 L 328 208 L 393 224 L 421 227 L 445 221" fill="none" id="make-me-a-hanzi-animation-11" stroke-dasharray="260 520" stroke-linecap="round"></path>
    
      <clipPath id="make-me-a-hanzi-clip-12">
        <path d="M 525 343 Q 516 347 493 352 Q 483 355 480 351 Q 476 347 481 334 L 482 333 Q 498 294 511 236 Q 512 217 523 205 Q 536 189 541 200 Q 544 207 544 217 L 543 245 Q 536 300 535 319 Q 535 320 536 320 C 539 338 539 338 525 343 Z"></path>
      </clipPath>
      <path clip-path="url(#make-me-a-hanzi-clip-12)" d="M 487 346 L 512 318 L 533 206" fill="none" id="make-me-a-hanzi-animation-12" stroke-dasharray="279 558" stroke-linecap="round"></path>
    
      <clipPath id="make-me-a-hanzi-clip-13">
        <path d="M 670 260 Q 682 306 696 319 Q 715 341 695 353 Q 679 362 656 377 Q 640 386 624 376 Q 596 358 525 343 C 496 337 507 313 536 320 Q 573 329 604 335 Q 625 339 629 330 Q 633 327 631 305 Q 630 287 625 266 C 618 237 662 231 670 260 Z"></path>
      </clipPath>
      <path clip-path="url(#make-me-a-hanzi-clip-13)" d="M 536 341 L 543 334 L 630 355 L 649 350 L 664 333 L 662 323 L 653 286 L 633 271" fill="none" id="make-me-a-hanzi-animation-13" stroke-dasharray="343 686" stroke-linecap="round"></path>
    
      <clipPath id="make-me-a-hanzi-clip-14">
        <path d="M 544 217 Q 551 216 561 218 Q 598 227 678 234 Q 687 235 688 242 Q 688 248 670 260 C 659 267 655 267 625 266 Q 624 267 621 266 Q 578 254 543 245 C 514 238 514 219 544 217 Z"></path>
      </clipPath>
      <path clip-path="url(#make-me-a-hanzi-clip-14)" d="M 548 224 L 559 233 L 619 247 L 661 248 L 680 242" fill="none" id="make-me-a-hanzi-animation-14" stroke-dasharray="266 532" stroke-linecap="round"></path>
    
      <clipPath id="make-me-a-hanzi-clip-15">
        <path d="M 358 92 Q 379 123 393 132 Q 399 136 398 144 Q 395 168 362 180 Q 346 186 337 185 Q 330 184 331 174 Q 337 96 177 -35 Q 170 -39 179 -41 Q 225 -41 303 32 Q 304 35 307 36 Q 322 51 342 73 L 358 92 Z"></path>
      </clipPath>
      <path clip-path="url(#make-me-a-hanzi-clip-15)" d="M 342 175 L 359 143 L 329 92 L 268 22 L 204 -27 L 187 -28 L 184 -36" fill="none" id="make-me-a-hanzi-animation-15" stroke-dasharray="422 844" stroke-linecap="round"></path>
    
      <clipPath id="make-me-a-hanzi-clip-16">
        <path d="M 342 73 Q 348 67 358 58 Q 385 36 413 8 Q 422 -2 434 -1 Q 441 -1 446 9 Q 449 19 443 41 Q 439 59 413 73 Q 388 83 358 92 C 329 101 321 94 342 73 Z"></path>
      </clipPath>
      <path clip-path="url(#make-me-a-hanzi-clip-16)" d="M 350 74 L 364 73 L 407 48 L 431 15" fill="none" id="make-me-a-hanzi-animation-16" stroke-dasharray="233 466" stroke-linecap="round"></path>
    
      <clipPath id="make-me-a-hanzi-clip-17">
        <path d="M 605 126 Q 620 150 633 162 Q 639 166 637 174 Q 636 181 625 191 Q 600 213 572 209 Q 565 208 567 197 Q 576 167 525 84 Q 524 83 523 81 Q 508 60 469 18 Q 462 14 471 11 Q 537 35 591 107 L 605 126 Z"></path>
      </clipPath>
      <path clip-path="url(#make-me-a-hanzi-clip-17)" d="M 579 199 L 599 172 L 588 148 L 530 63 L 488 25 L 477 23 L 476 16" fill="none" id="make-me-a-hanzi-animation-17" stroke-dasharray="366 732" stroke-linecap="round"></path>
    
      <clipPath id="make-me-a-hanzi-clip-18">
        <path d="M 591 107 Q 592 103 598 98 Q 652 53 717 -12 Q 733 -31 749 -35 Q 758 -36 765 -25 Q 777 -12 762 31 Q 752 70 675 101 Q 633 117 605 126 C 576 135 575 132 591 107 Z"></path>
      </clipPath>
      <path clip-path="url(#make-me-a-hanzi-clip-18)" d="M 601 107 L 618 104 L 703 50 L 729 24 L 750 -18" fill="none" id="make-me-a-hanzi-animation-18" stroke-dasharray="330 660" stroke-linecap="round"></path>
    
  </g>
</svg>