<svg version="1.1" viewBox="0 0 1024 1024" xmlns="http://www.w3.org/2000/svg">
  <g stroke="lightgray" stroke-dasharray="1,1" stroke-width="1" transform="scale(4, 4)">
    <line x1="0" y1="0" x2="256" y2="256"></line>
    <line x1="256" y1="0" x2="0" y2="256"></line>
    <line x1="128" y1="0" x2="128" y2="256"></line>
    <line x1="0" y1="128" x2="256" y2="128"></line>
  </g>
  <g transform="scale(1, -1) translate(0, -900)">
    <style type="text/css">
      
        @keyframes keyframes0 {
          from {
            stroke: blue;
            stroke-dashoffset: 493;
            stroke-width: 128;
          }
          62% {
            animation-timing-function: step-end;
            stroke: blue;
            stroke-dashoffset: 0;
            stroke-width: 128;
          }
          to {
            stroke: black;
            stroke-width: 1024;
          }
        }
        #make-me-a-hanzi-animation-0 {
          animation: keyframes0 0.6512044270833334s both;
          animation-delay: 0s;
          animation-timing-function: linear;
        }
      
        @keyframes keyframes1 {
          from {
            stroke: blue;
            stroke-dashoffset: 762;
            stroke-width: 128;
          }
          71% {
            animation-timing-function: step-end;
            stroke: blue;
            stroke-dashoffset: 0;
            stroke-width: 128;
          }
          to {
            stroke: black;
            stroke-width: 1024;
          }
        }
        #make-me-a-hanzi-animation-1 {
          animation: keyframes1 0.8701171875s both;
          animation-delay: 0.6512044270833334s;
          animation-timing-function: linear;
        }
      
        @keyframes keyframes2 {
          from {
            stroke: blue;
            stroke-dashoffset: 564;
            stroke-width: 128;
          }
          65% {
            animation-timing-function: step-end;
            stroke: blue;
            stroke-dashoffset: 0;
            stroke-width: 128;
          }
          to {
            stroke: black;
            stroke-width: 1024;
          }
        }
        #make-me-a-hanzi-animation-2 {
          animation: keyframes2 0.708984375s both;
          animation-delay: 1.5213216145833335s;
          animation-timing-function: linear;
        }
      
        @keyframes keyframes3 {
          from {
            stroke: blue;
            stroke-dashoffset: 650;
            stroke-width: 128;
          }
          68% {
            animation-timing-function: step-end;
            stroke: blue;
            stroke-dashoffset: 0;
            stroke-width: 128;
          }
          to {
            stroke: black;
            stroke-width: 1024;
          }
        }
        #make-me-a-hanzi-animation-3 {
          animation: keyframes3 0.7789713541666666s both;
          animation-delay: 2.2303059895833335s;
          animation-timing-function: linear;
        }
      
        @keyframes keyframes4 {
          from {
            stroke: blue;
            stroke-dashoffset: 993;
            stroke-width: 128;
          }
          76% {
            animation-timing-function: step-end;
            stroke: blue;
            stroke-dashoffset: 0;
            stroke-width: 128;
          }
          to {
            stroke: black;
            stroke-width: 1024;
          }
        }
        #make-me-a-hanzi-animation-4 {
          animation: keyframes4 1.05810546875s both;
          animation-delay: 3.00927734375s;
          animation-timing-function: linear;
        }
      
        @keyframes keyframes5 {
          from {
            stroke: blue;
            stroke-dashoffset: 441;
            stroke-width: 128;
          }
          59% {
            animation-timing-function: step-end;
            stroke: blue;
            stroke-dashoffset: 0;
            stroke-width: 128;
          }
          to {
            stroke: black;
            stroke-width: 1024;
          }
        }
        #make-me-a-hanzi-animation-5 {
          animation: keyframes5 0.60888671875s both;
          animation-delay: 4.0673828125s;
          animation-timing-function: linear;
        }
      
        @keyframes keyframes6 {
          from {
            stroke: blue;
            stroke-dashoffset: 579;
            stroke-width: 128;
          }
          65% {
            animation-timing-function: step-end;
            stroke: blue;
            stroke-dashoffset: 0;
            stroke-width: 128;
          }
          to {
            stroke: black;
            stroke-width: 1024;
          }
        }
        #make-me-a-hanzi-animation-6 {
          animation: keyframes6 0.72119140625s both;
          animation-delay: 4.67626953125s;
          animation-timing-function: linear;
        }
      
        @keyframes keyframes7 {
          from {
            stroke: blue;
            stroke-dashoffset: 752;
            stroke-width: 128;
          }
          71% {
            animation-timing-function: step-end;
            stroke: blue;
            stroke-dashoffset: 0;
            stroke-width: 128;
          }
          to {
            stroke: black;
            stroke-width: 1024;
          }
        }
        #make-me-a-hanzi-animation-7 {
          animation: keyframes7 0.8619791666666666s both;
          animation-delay: 5.3974609375s;
          animation-timing-function: linear;
        }
      
        @keyframes keyframes8 {
          from {
            stroke: blue;
            stroke-dashoffset: 390;
            stroke-width: 128;
          }
          56% {
            animation-timing-function: step-end;
            stroke: blue;
            stroke-dashoffset: 0;
            stroke-width: 128;
          }
          to {
            stroke: black;
            stroke-width: 1024;
          }
        }
        #make-me-a-hanzi-animation-8 {
          animation: keyframes8 0.5673828125s both;
          animation-delay: 6.259440104166667s;
          animation-timing-function: linear;
        }
      
        @keyframes keyframes9 {
          from {
            stroke: blue;
            stroke-dashoffset: 552;
            stroke-width: 128;
          }
          64% {
            animation-timing-function: step-end;
            stroke: blue;
            stroke-dashoffset: 0;
            stroke-width: 128;
          }
          to {
            stroke: black;
            stroke-width: 1024;
          }
        }
        #make-me-a-hanzi-animation-9 {
          animation: keyframes9 0.69921875s both;
          animation-delay: 6.826822916666667s;
          animation-timing-function: linear;
        }
      
        @keyframes keyframes10 {
          from {
            stroke: blue;
            stroke-dashoffset: 397;
            stroke-width: 128;
          }
          56% {
            animation-timing-function: step-end;
            stroke: blue;
            stroke-dashoffset: 0;
            stroke-width: 128;
          }
          to {
            stroke: black;
            stroke-width: 1024;
          }
        }
        #make-me-a-hanzi-animation-10 {
          animation: keyframes10 0.5730794270833334s both;
          animation-delay: 7.526041666666667s;
          animation-timing-function: linear;
        }
      
        @keyframes keyframes11 {
          from {
            stroke: blue;
            stroke-dashoffset: 432;
            stroke-width: 128;
          }
          58% {
            animation-timing-function: step-end;
            stroke: blue;
            stroke-dashoffset: 0;
            stroke-width: 128;
          }
          to {
            stroke: black;
            stroke-width: 1024;
          }
        }
        #make-me-a-hanzi-animation-11 {
          animation: keyframes11 0.6015625s both;
          animation-delay: 8.09912109375s;
          animation-timing-function: linear;
        }
      
    </style>
    
      <path d="M 396 660 Q 408 664 423 667 Q 451 676 456 680 Q 463 687 459 694 Q 452 704 427 709 Q 411 712 398 708 L 356 693 Q 271 669 222 660 Q 191 653 214 640 Q 244 625 321 642 Q 337 646 356 650 L 396 660 Z" fill="lightgray"></path>
    
      <path d="M 395 602 Q 395 630 396 660 L 398 708 Q 399 765 409 779 Q 419 791 415 800 Q 409 810 390 822 Q 356 838 345 833 Q 330 829 341 814 Q 357 793 356 693 L 356 650 Q 356 614 354 586 L 353 555 Q 350 486 348 477 Q 344 452 328 457 Q 315 461 280 465 Q 267 469 264 465 Q 263 459 277 449 Q 328 413 342 391 Q 349 375 358 372 Q 365 369 369 373 Q 391 400 393 504 Q 393 528 394 575 L 395 602 Z" fill="lightgray"></path>
    
      <path d="M 394 575 Q 436 600 437 611 Q 433 615 422 613 Q 409 609 395 602 L 354 586 Q 174 525 147 522 Q 137 521 135 512 Q 134 502 142 495 Q 161 482 189 468 Q 198 467 207 474 Q 243 502 353 555 L 394 575 Z" fill="lightgray"></path>
    
      <path d="M 503 462 Q 525 478 558 522 L 580 561 Q 595 592 618 674 L 623 703 Q 627 764 636 787 Q 643 799 637 810 Q 624 823 598 835 Q 582 844 572 840 Q 562 834 568 823 Q 586 796 573 687 L 569 658 Q 563 627 546 576 L 532 543 Q 525 533 520 520 Q 510 498 497 478 Q 494 475 493 472 C 477 447 480 443 503 462 Z" fill="lightgray"></path>
    
      <path d="M 618 674 Q 663 693 673 688 Q 686 681 680 661 Q 655 511 708 460 Q 730 435 806 403 Q 848 384 874 386 Q 899 390 901 402 Q 901 405 869 545 Q 866 558 857 562 Q 853 565 850 553 Q 840 483 832 466 Q 826 453 802 459 Q 774 463 743 487 Q 716 508 709 538 Q 702 563 714 607 Q 721 643 756 678 Q 768 690 761 700 Q 754 715 727 730 Q 702 748 685 735 Q 670 722 623 703 L 573 687 Q 489 669 488 666 Q 485 662 492 654 Q 510 642 569 658 L 618 674 Z" fill="lightgray"></path>
    
      <path d="M 558 522 Q 616 473 622 471 Q 628 471 632 478 Q 639 488 629 517 Q 620 542 580 561 L 546 576 Q 507 592 485 600 Q 479 603 478 594 Q 478 587 532 543 L 558 522 Z" fill="lightgray"></path>
    
      <path d="M 498 302 Q 489 306 473 308 Q 430 315 406 322 Q 402 326 403 329 Q 404 330 505 394 Q 532 401 523 425 Q 514 449 503 462 L 493 472 Q 480 479 472 477 Q 465 473 467 461 Q 474 428 391 359 Q 369 340 356 339 Q 334 339 324 327 Q 311 305 313 293 Q 314 277 330 282 Q 345 294 471 283 C 501 280 527 293 498 302 Z" fill="lightgray"></path>
    
      <path d="M 508 194 Q 557 209 610 216 C 640 220 627 236 597 233 Q 513 226 414 204 Q 460 237 565 300 Q 602 325 631 336 Q 644 340 642 352 Q 638 371 615 399 Q 603 412 594 412 Q 584 412 581 398 Q 572 364 498 302 L 471 283 Q 356 205 340 200 Q 325 196 325 182 Q 324 170 343 148 Q 350 135 365 143 Q 420 170 475 185 L 508 194 Z" fill="lightgray"></path>
    
      <path d="M 610 216 Q 646 171 655 169 Q 664 168 669 177 Q 676 187 673 211 Q 670 241 589 286 Q 577 292 572 290 Q 568 289 567 278 Q 568 269 585 249 Q 591 242 597 233 L 610 216 Z" fill="lightgray"></path>
    
      <path d="M 475 185 Q 487 154 485 56 Q 484 49 482 47 Q 479 34 454 35 Q 429 39 402 43 Q 392 42 391 37 Q 390 31 400 23 Q 461 -20 482 -46 Q 497 -56 507 -54 Q 517 -50 526 -20 Q 541 10 537 64 Q 534 109 534 125 Q 541 161 526 179 Q 516 188 508 194 C 484 213 466 214 475 185 Z" fill="lightgray"></path>
    
      <path d="M 311 132 Q 284 95 251 64 Q 226 40 236 2 Q 240 -16 262 -8 Q 310 13 324 73 Q 336 103 334 127 Q 330 137 325 139 Q 318 139 311 132 Z" fill="lightgray"></path>
    
      <path d="M 623 118 Q 663 78 712 19 Q 727 0 741 -5 Q 750 -6 757 2 Q 769 15 759 56 Q 750 102 626 147 Q 617 153 615 141 Q 614 128 623 118 Z" fill="lightgray"></path>
    
    
      <clipPath id="make-me-a-hanzi-clip-0">
        <path d="M 396 660 Q 408 664 423 667 Q 451 676 456 680 Q 463 687 459 694 Q 452 704 427 709 Q 411 712 398 708 L 356 693 Q 271 669 222 660 Q 191 653 214 640 Q 244 625 321 642 Q 337 646 356 650 L 396 660 Z"></path>
      </clipPath>
      <path clip-path="url(#make-me-a-hanzi-clip-0)" d="M 216 651 L 243 649 L 307 658 L 408 687 L 448 689" fill="none" id="make-me-a-hanzi-animation-0" stroke-dasharray="365 730" stroke-linecap="round"></path>
    
      <clipPath id="make-me-a-hanzi-clip-1">
        <path d="M 395 602 Q 395 630 396 660 L 398 708 Q 399 765 409 779 Q 419 791 415 800 Q 409 810 390 822 Q 356 838 345 833 Q 330 829 341 814 Q 357 793 356 693 L 356 650 Q 356 614 354 586 L 353 555 Q 350 486 348 477 Q 344 452 328 457 Q 315 461 280 465 Q 267 469 264 465 Q 263 459 277 449 Q 328 413 342 391 Q 349 375 358 372 Q 365 369 369 373 Q 391 400 393 504 Q 393 528 394 575 L 395 602 Z"></path>
      </clipPath>
      <path clip-path="url(#make-me-a-hanzi-clip-1)" d="M 346 823 L 371 806 L 381 789 L 371 473 L 354 429 L 325 436 L 268 463" fill="none" id="make-me-a-hanzi-animation-1" stroke-dasharray="634 1268" stroke-linecap="round"></path>
    
      <clipPath id="make-me-a-hanzi-clip-2">
        <path d="M 394 575 Q 436 600 437 611 Q 433 615 422 613 Q 409 609 395 602 L 354 586 Q 174 525 147 522 Q 137 521 135 512 Q 134 502 142 495 Q 161 482 189 468 Q 198 467 207 474 Q 243 502 353 555 L 394 575 Z"></path>
      </clipPath>
      <path clip-path="url(#make-me-a-hanzi-clip-2)" d="M 148 509 L 192 501 L 337 562 L 345 571 L 398 588 L 429 611" fill="none" id="make-me-a-hanzi-animation-2" stroke-dasharray="436 872" stroke-linecap="round"></path>
    
      <clipPath id="make-me-a-hanzi-clip-3">
        <path d="M 503 462 Q 525 478 558 522 L 580 561 Q 595 592 618 674 L 623 703 Q 627 764 636 787 Q 643 799 637 810 Q 624 823 598 835 Q 582 844 572 840 Q 562 834 568 823 Q 586 796 573 687 L 569 658 Q 563 627 546 576 L 532 543 Q 525 533 520 520 Q 510 498 497 478 Q 494 475 493 472 C 477 447 480 443 503 462 Z"></path>
      </clipPath>
      <path clip-path="url(#make-me-a-hanzi-clip-3)" d="M 577 830 L 607 796 L 595 670 L 561 563 L 541 524 L 502 471" fill="none" id="make-me-a-hanzi-animation-3" stroke-dasharray="522 1044" stroke-linecap="round"></path>
    
      <clipPath id="make-me-a-hanzi-clip-4">
        <path d="M 618 674 Q 663 693 673 688 Q 686 681 680 661 Q 655 511 708 460 Q 730 435 806 403 Q 848 384 874 386 Q 899 390 901 402 Q 901 405 869 545 Q 866 558 857 562 Q 853 565 850 553 Q 840 483 832 466 Q 826 453 802 459 Q 774 463 743 487 Q 716 508 709 538 Q 702 563 714 607 Q 721 643 756 678 Q 768 690 761 700 Q 754 715 727 730 Q 702 748 685 735 Q 670 722 623 703 L 573 687 Q 489 669 488 666 Q 485 662 492 654 Q 510 642 569 658 L 618 674 Z"></path>
      </clipPath>
      <path clip-path="url(#make-me-a-hanzi-clip-4)" d="M 492 661 L 555 667 L 562 674 L 571 672 L 672 706 L 704 704 L 717 692 L 695 626 L 689 553 L 698 513 L 732 467 L 791 436 L 841 427 L 852 430 L 857 439 L 863 530 L 856 541 L 857 555" fill="none" id="make-me-a-hanzi-animation-4" stroke-dasharray="865 1730" stroke-linecap="round"></path>
    
      <clipPath id="make-me-a-hanzi-clip-5">
        <path d="M 558 522 Q 616 473 622 471 Q 628 471 632 478 Q 639 488 629 517 Q 620 542 580 561 L 546 576 Q 507 592 485 600 Q 479 603 478 594 Q 478 587 532 543 L 558 522 Z"></path>
      </clipPath>
      <path clip-path="url(#make-me-a-hanzi-clip-5)" d="M 484 594 L 602 517 L 624 479" fill="none" id="make-me-a-hanzi-animation-5" stroke-dasharray="313 626" stroke-linecap="round"></path>
    
      <clipPath id="make-me-a-hanzi-clip-6">
        <path d="M 498 302 Q 489 306 473 308 Q 430 315 406 322 Q 402 326 403 329 Q 404 330 505 394 Q 532 401 523 425 Q 514 449 503 462 L 493 472 Q 480 479 472 477 Q 465 473 467 461 Q 474 428 391 359 Q 369 340 356 339 Q 334 339 324 327 Q 311 305 313 293 Q 314 277 330 282 Q 345 294 471 283 C 501 280 527 293 498 302 Z"></path>
      </clipPath>
      <path clip-path="url(#make-me-a-hanzi-clip-6)" d="M 476 469 L 486 455 L 490 422 L 460 390 L 393 342 L 380 315 L 391 307 L 459 294 L 492 301" fill="none" id="make-me-a-hanzi-animation-6" stroke-dasharray="451 902" stroke-linecap="round"></path>
    
      <clipPath id="make-me-a-hanzi-clip-7">
        <path d="M 508 194 Q 557 209 610 216 C 640 220 627 236 597 233 Q 513 226 414 204 Q 460 237 565 300 Q 602 325 631 336 Q 644 340 642 352 Q 638 371 615 399 Q 603 412 594 412 Q 584 412 581 398 Q 572 364 498 302 L 471 283 Q 356 205 340 200 Q 325 196 325 182 Q 324 170 343 148 Q 350 135 365 143 Q 420 170 475 185 L 508 194 Z"></path>
      </clipPath>
      <path clip-path="url(#make-me-a-hanzi-clip-7)" d="M 595 398 L 601 360 L 515 290 L 408 221 L 426 189 L 548 218 L 594 224 L 602 217" fill="none" id="make-me-a-hanzi-animation-7" stroke-dasharray="624 1248" stroke-linecap="round"></path>
    
      <clipPath id="make-me-a-hanzi-clip-8">
        <path d="M 610 216 Q 646 171 655 169 Q 664 168 669 177 Q 676 187 673 211 Q 670 241 589 286 Q 577 292 572 290 Q 568 289 567 278 Q 568 269 585 249 Q 591 242 597 233 L 610 216 Z"></path>
      </clipPath>
      <path clip-path="url(#make-me-a-hanzi-clip-8)" d="M 575 282 L 643 216 L 657 179" fill="none" id="make-me-a-hanzi-animation-8" stroke-dasharray="262 524" stroke-linecap="round"></path>
    
      <clipPath id="make-me-a-hanzi-clip-9">
        <path d="M 475 185 Q 487 154 485 56 Q 484 49 482 47 Q 479 34 454 35 Q 429 39 402 43 Q 392 42 391 37 Q 390 31 400 23 Q 461 -20 482 -46 Q 497 -56 507 -54 Q 517 -50 526 -20 Q 541 10 537 64 Q 534 109 534 125 Q 541 161 526 179 Q 516 188 508 194 C 484 213 466 214 475 185 Z"></path>
      </clipPath>
      <path clip-path="url(#make-me-a-hanzi-clip-9)" d="M 481 183 L 503 169 L 510 148 L 512 54 L 501 15 L 487 2 L 399 36" fill="none" id="make-me-a-hanzi-animation-9" stroke-dasharray="424 848" stroke-linecap="round"></path>
    
      <clipPath id="make-me-a-hanzi-clip-10">
        <path d="M 311 132 Q 284 95 251 64 Q 226 40 236 2 Q 240 -16 262 -8 Q 310 13 324 73 Q 336 103 334 127 Q 330 137 325 139 Q 318 139 311 132 Z"></path>
      </clipPath>
      <path clip-path="url(#make-me-a-hanzi-clip-10)" d="M 322 127 L 312 99 L 252 5" fill="none" id="make-me-a-hanzi-animation-10" stroke-dasharray="269 538" stroke-linecap="round"></path>
    
      <clipPath id="make-me-a-hanzi-clip-11">
        <path d="M 623 118 Q 663 78 712 19 Q 727 0 741 -5 Q 750 -6 757 2 Q 769 15 759 56 Q 750 102 626 147 Q 617 153 615 141 Q 614 128 623 118 Z"></path>
      </clipPath>
      <path clip-path="url(#make-me-a-hanzi-clip-11)" d="M 625 136 L 712 69 L 733 41 L 743 11" fill="none" id="make-me-a-hanzi-animation-11" stroke-dasharray="304 608" stroke-linecap="round"></path>
    
  </g>
</svg>