<svg version="1.1" viewBox="0 0 1024 1024" xmlns="http://www.w3.org/2000/svg">
  <g stroke="lightgray" stroke-dasharray="1,1" stroke-width="1" transform="scale(4, 4)">
    <line x1="0" y1="0" x2="256" y2="256"></line>
    <line x1="256" y1="0" x2="0" y2="256"></line>
    <line x1="128" y1="0" x2="128" y2="256"></line>
    <line x1="0" y1="128" x2="256" y2="128"></line>
  </g>
  <g transform="scale(1, -1) translate(0, -900)">
    <style type="text/css">
      
        @keyframes keyframes0 {
          from {
            stroke: blue;
            stroke-dashoffset: 742;
            stroke-width: 128;
          }
          71% {
            animation-timing-function: step-end;
            stroke: blue;
            stroke-dashoffset: 0;
            stroke-width: 128;
          }
          to {
            stroke: black;
            stroke-width: 1024;
          }
        }
        #make-me-a-hanzi-animation-0 {
          animation: keyframes0 0.8538411458333334s both;
          animation-delay: 0s;
          animation-timing-function: linear;
        }
      
        @keyframes keyframes1 {
          from {
            stroke: blue;
            stroke-dashoffset: 822;
            stroke-width: 128;
          }
          73% {
            animation-timing-function: step-end;
            stroke: blue;
            stroke-dashoffset: 0;
            stroke-width: 128;
          }
          to {
            stroke: black;
            stroke-width: 1024;
          }
        }
        #make-me-a-hanzi-animation-1 {
          animation: keyframes1 0.9189453125s both;
          animation-delay: 0.8538411458333334s;
          animation-timing-function: linear;
        }
      
        @keyframes keyframes2 {
          from {
            stroke: blue;
            stroke-dashoffset: 595;
            stroke-width: 128;
          }
          66% {
            animation-timing-function: step-end;
            stroke: blue;
            stroke-dashoffset: 0;
            stroke-width: 128;
          }
          to {
            stroke: black;
            stroke-width: 1024;
          }
        }
        #make-me-a-hanzi-animation-2 {
          animation: keyframes2 0.7342122395833334s both;
          animation-delay: 1.7727864583333335s;
          animation-timing-function: linear;
        }
      
        @keyframes keyframes3 {
          from {
            stroke: blue;
            stroke-dashoffset: 664;
            stroke-width: 128;
          }
          68% {
            animation-timing-function: step-end;
            stroke: blue;
            stroke-dashoffset: 0;
            stroke-width: 128;
          }
          to {
            stroke: black;
            stroke-width: 1024;
          }
        }
        #make-me-a-hanzi-animation-3 {
          animation: keyframes3 0.7903645833333334s both;
          animation-delay: 2.506998697916667s;
          animation-timing-function: linear;
        }
      
        @keyframes keyframes4 {
          from {
            stroke: blue;
            stroke-dashoffset: 1083;
            stroke-width: 128;
          }
          78% {
            animation-timing-function: step-end;
            stroke: blue;
            stroke-dashoffset: 0;
            stroke-width: 128;
          }
          to {
            stroke: black;
            stroke-width: 1024;
          }
        }
        #make-me-a-hanzi-animation-4 {
          animation: keyframes4 1.13134765625s both;
          animation-delay: 3.2973632812500004s;
          animation-timing-function: linear;
        }
      
        @keyframes keyframes5 {
          from {
            stroke: blue;
            stroke-dashoffset: 466;
            stroke-width: 128;
          }
          60% {
            animation-timing-function: step-end;
            stroke: blue;
            stroke-dashoffset: 0;
            stroke-width: 128;
          }
          to {
            stroke: black;
            stroke-width: 1024;
          }
        }
        #make-me-a-hanzi-animation-5 {
          animation: keyframes5 0.6292317708333334s both;
          animation-delay: 4.4287109375s;
          animation-timing-function: linear;
        }
      
        @keyframes keyframes6 {
          from {
            stroke: blue;
            stroke-dashoffset: 565;
            stroke-width: 128;
          }
          65% {
            animation-timing-function: step-end;
            stroke: blue;
            stroke-dashoffset: 0;
            stroke-width: 128;
          }
          to {
            stroke: black;
            stroke-width: 1024;
          }
        }
        #make-me-a-hanzi-animation-6 {
          animation: keyframes6 0.7097981770833334s both;
          animation-delay: 5.057942708333333s;
          animation-timing-function: linear;
        }
      
        @keyframes keyframes7 {
          from {
            stroke: blue;
            stroke-dashoffset: 510;
            stroke-width: 128;
          }
          62% {
            animation-timing-function: step-end;
            stroke: blue;
            stroke-dashoffset: 0;
            stroke-width: 128;
          }
          to {
            stroke: black;
            stroke-width: 1024;
          }
        }
        #make-me-a-hanzi-animation-7 {
          animation: keyframes7 0.6650390625s both;
          animation-delay: 5.767740885416666s;
          animation-timing-function: linear;
        }
      
    </style>
    
      <path d="M 317 494 Q 266 494 226 494 Q 189 494 209 516 Q 276 628 340 713 Q 355 729 352 738 Q 349 751 311 783 Q 295 796 276 793 Q 266 789 271 774 Q 289 735 187 550 Q 169 528 144 503 Q 125 490 127 477 Q 131 458 145 441 Q 155 429 168 437 Q 195 450 287 466 Q 291 467 298 467 C 328 470 347 494 317 494 Z" fill="lightgray"></path>
    
      <path d="M 298 467 Q 199 335 175 322 Q 162 312 165 299 Q 166 286 191 266 Q 201 254 217 266 Q 280 311 390 344 Q 409 348 411 357 Q 414 367 394 364 Q 336 354 262 335 Q 234 325 252 348 Q 382 528 438 573 Q 450 583 444 593 Q 434 612 401 630 Q 385 640 376 637 Q 366 634 368 618 Q 369 584 317 494 L 298 467 Z" fill="lightgray"></path>
    
      <path d="M 125 145 Q 112 142 111 131 Q 110 118 120 110 Q 145 97 182 81 Q 192 78 204 89 Q 222 107 388 210 Q 410 223 426 238 Q 438 248 437 257 Q 431 261 419 258 Q 175 149 125 145 Z" fill="lightgray"></path>
    
      <path d="M 490 526 Q 471 538 450 543 Q 443 546 438 541 Q 429 535 439 523 Q 488 439 490 233 Q 491 167 530 140 L 531 139 Q 547 135 550 163 L 550 195 Q 549 214 542 237 Q 524 444 521 489 C 520 509 516 511 490 526 Z" fill="lightgray"></path>
    
      <path d="M 775 189 Q 787 164 811 116 Q 821 98 831 100 Q 847 104 856 130 Q 890 203 892 303 Q 898 364 902 436 Q 906 485 929 516 Q 945 535 933 549 Q 911 571 863 591 Q 844 601 811 589 Q 685 544 490 526 C 460 523 492 481 521 489 Q 531 495 632 510 L 675 518 Q 727 528 791 538 Q 819 544 831 530 Q 862 476 822 236 Q 821 214 811 211 L 809 211 C 794 185 766 208 775 189 Z" fill="lightgray"></path>
    
      <path d="M 689 349 Q 729 356 766 362 Q 791 366 781 380 Q 769 395 743 399 Q 722 402 690 393 L 645 379 Q 602 366 563 354 Q 545 350 568 335 Q 577 329 645 341 L 689 349 Z" fill="lightgray"></path>
    
      <path d="M 690 393 Q 693 499 694 500 Q 684 512 675 518 C 652 537 616 536 632 510 Q 635 506 638 500 Q 641 485 645 379 L 645 341 Q 645 289 645 209 C 645 179 685 187 685 217 Q 686 289 689 349 L 690 393 Z" fill="lightgray"></path>
    
      <path d="M 550 163 Q 551 163 556 163 Q 626 179 775 189 C 805 191 829 193 809 211 Q 781 239 744 230 Q 713 224 685 217 L 645 209 Q 594 202 550 195 C 520 190 520 161 550 163 Z" fill="lightgray"></path>
    
    
      <clipPath id="make-me-a-hanzi-clip-0">
        <path d="M 317 494 Q 266 494 226 494 Q 189 494 209 516 Q 276 628 340 713 Q 355 729 352 738 Q 349 751 311 783 Q 295 796 276 793 Q 266 789 271 774 Q 289 735 187 550 Q 169 528 144 503 Q 125 490 127 477 Q 131 458 145 441 Q 155 429 168 437 Q 195 450 287 466 Q 291 467 298 467 C 328 470 347 494 317 494 Z"></path>
      </clipPath>
      <path clip-path="url(#make-me-a-hanzi-clip-0)" d="M 282 781 L 302 756 L 307 729 L 241 605 L 179 505 L 172 479 L 252 475 L 301 485 L 309 493" fill="none" id="make-me-a-hanzi-animation-0" stroke-dasharray="614 1228" stroke-linecap="round"></path>
    
      <clipPath id="make-me-a-hanzi-clip-1">
        <path d="M 298 467 Q 199 335 175 322 Q 162 312 165 299 Q 166 286 191 266 Q 201 254 217 266 Q 280 311 390 344 Q 409 348 411 357 Q 414 367 394 364 Q 336 354 262 335 Q 234 325 252 348 Q 382 528 438 573 Q 450 583 444 593 Q 434 612 401 630 Q 385 640 376 637 Q 366 634 368 618 Q 369 584 317 494 L 298 467 Z"></path>
      </clipPath>
      <path clip-path="url(#make-me-a-hanzi-clip-1)" d="M 381 624 L 398 584 L 319 465 L 237 360 L 221 333 L 217 310 L 247 310 L 402 357" fill="none" id="make-me-a-hanzi-animation-1" stroke-dasharray="694 1388" stroke-linecap="round"></path>
    
      <clipPath id="make-me-a-hanzi-clip-2">
        <path d="M 125 145 Q 112 142 111 131 Q 110 118 120 110 Q 145 97 182 81 Q 192 78 204 89 Q 222 107 388 210 Q 410 223 426 238 Q 438 248 437 257 Q 431 261 419 258 Q 175 149 125 145 Z"></path>
      </clipPath>
      <path clip-path="url(#make-me-a-hanzi-clip-2)" d="M 127 130 L 184 121 L 432 253" fill="none" id="make-me-a-hanzi-animation-2" stroke-dasharray="467 934" stroke-linecap="round"></path>
    
      <clipPath id="make-me-a-hanzi-clip-3">
        <path d="M 490 526 Q 471 538 450 543 Q 443 546 438 541 Q 429 535 439 523 Q 488 439 490 233 Q 491 167 530 140 L 531 139 Q 547 135 550 163 L 550 195 Q 549 214 542 237 Q 524 444 521 489 C 520 509 516 511 490 526 Z"></path>
      </clipPath>
      <path clip-path="url(#make-me-a-hanzi-clip-3)" d="M 445 532 L 472 510 L 493 469 L 510 339 L 515 244 L 536 145" fill="none" id="make-me-a-hanzi-animation-3" stroke-dasharray="536 1072" stroke-linecap="round"></path>
    
      <clipPath id="make-me-a-hanzi-clip-4">
        <path d="M 775 189 Q 787 164 811 116 Q 821 98 831 100 Q 847 104 856 130 Q 890 203 892 303 Q 898 364 902 436 Q 906 485 929 516 Q 945 535 933 549 Q 911 571 863 591 Q 844 601 811 589 Q 685 544 490 526 C 460 523 492 481 521 489 Q 531 495 632 510 L 675 518 Q 727 528 791 538 Q 819 544 831 530 Q 862 476 822 236 Q 821 214 811 211 L 809 211 C 794 185 766 208 775 189 Z"></path>
      </clipPath>
      <path clip-path="url(#make-me-a-hanzi-clip-4)" d="M 499 526 L 527 511 L 544 513 L 827 565 L 857 556 L 877 536 L 882 529 L 861 280 L 850 210 L 829 169 L 830 114" fill="none" id="make-me-a-hanzi-animation-4" stroke-dasharray="955 1910" stroke-linecap="round"></path>
    
      <clipPath id="make-me-a-hanzi-clip-5">
        <path d="M 689 349 Q 729 356 766 362 Q 791 366 781 380 Q 769 395 743 399 Q 722 402 690 393 L 645 379 Q 602 366 563 354 Q 545 350 568 335 Q 577 329 645 341 L 689 349 Z"></path>
      </clipPath>
      <path clip-path="url(#make-me-a-hanzi-clip-5)" d="M 565 344 L 716 377 L 746 379 L 771 373" fill="none" id="make-me-a-hanzi-animation-5" stroke-dasharray="338 676" stroke-linecap="round"></path>
    
      <clipPath id="make-me-a-hanzi-clip-6">
        <path d="M 690 393 Q 693 499 694 500 Q 684 512 675 518 C 652 537 616 536 632 510 Q 635 506 638 500 Q 641 485 645 379 L 645 341 Q 645 289 645 209 C 645 179 685 187 685 217 Q 686 289 689 349 L 690 393 Z"></path>
      </clipPath>
      <path clip-path="url(#make-me-a-hanzi-clip-6)" d="M 640 508 L 667 487 L 666 241 L 662 228 L 650 218" fill="none" id="make-me-a-hanzi-animation-6" stroke-dasharray="437 874" stroke-linecap="round"></path>
    
      <clipPath id="make-me-a-hanzi-clip-7">
        <path d="M 550 163 Q 551 163 556 163 Q 626 179 775 189 C 805 191 829 193 809 211 Q 781 239 744 230 Q 713 224 685 217 L 645 209 Q 594 202 550 195 C 520 190 520 161 550 163 Z"></path>
      </clipPath>
      <path clip-path="url(#make-me-a-hanzi-clip-7)" d="M 553 168 L 563 179 L 585 185 L 800 212" fill="none" id="make-me-a-hanzi-animation-7" stroke-dasharray="382 764" stroke-linecap="round"></path>
    
  </g>
</svg>