<svg version="1.1" viewBox="0 0 1024 1024" xmlns="http://www.w3.org/2000/svg">
  <g stroke="lightgray" stroke-dasharray="1,1" stroke-width="1" transform="scale(4, 4)">
    <line x1="0" y1="0" x2="256" y2="256"></line>
    <line x1="256" y1="0" x2="0" y2="256"></line>
    <line x1="128" y1="0" x2="128" y2="256"></line>
    <line x1="0" y1="128" x2="256" y2="128"></line>
  </g>
  <g transform="scale(1, -1) translate(0, -900)">
    <style type="text/css">
      
        @keyframes keyframes0 {
          from {
            stroke: blue;
            stroke-dashoffset: 745;
            stroke-width: 128;
          }
          71% {
            animation-timing-function: step-end;
            stroke: blue;
            stroke-dashoffset: 0;
            stroke-width: 128;
          }
          to {
            stroke: black;
            stroke-width: 1024;
          }
        }
        #make-me-a-hanzi-animation-0 {
          animation: keyframes0 0.8562825520833334s both;
          animation-delay: 0s;
          animation-timing-function: linear;
        }
      
        @keyframes keyframes1 {
          from {
            stroke: blue;
            stroke-dashoffset: 766;
            stroke-width: 128;
          }
          71% {
            animation-timing-function: step-end;
            stroke: blue;
            stroke-dashoffset: 0;
            stroke-width: 128;
          }
          to {
            stroke: black;
            stroke-width: 1024;
          }
        }
        #make-me-a-hanzi-animation-1 {
          animation: keyframes1 0.8733723958333334s both;
          animation-delay: 0.8562825520833334s;
          animation-timing-function: linear;
        }
      
        @keyframes keyframes2 {
          from {
            stroke: blue;
            stroke-dashoffset: 561;
            stroke-width: 128;
          }
          65% {
            animation-timing-function: step-end;
            stroke: blue;
            stroke-dashoffset: 0;
            stroke-width: 128;
          }
          to {
            stroke: black;
            stroke-width: 1024;
          }
        }
        #make-me-a-hanzi-animation-2 {
          animation: keyframes2 0.70654296875s both;
          animation-delay: 1.7296549479166667s;
          animation-timing-function: linear;
        }
      
        @keyframes keyframes3 {
          from {
            stroke: blue;
            stroke-dashoffset: 556;
            stroke-width: 128;
          }
          64% {
            animation-timing-function: step-end;
            stroke: blue;
            stroke-dashoffset: 0;
            stroke-width: 128;
          }
          to {
            stroke: black;
            stroke-width: 1024;
          }
        }
        #make-me-a-hanzi-animation-3 {
          animation: keyframes3 0.7024739583333334s both;
          animation-delay: 2.436197916666667s;
          animation-timing-function: linear;
        }
      
        @keyframes keyframes4 {
          from {
            stroke: blue;
            stroke-dashoffset: 604;
            stroke-width: 128;
          }
          66% {
            animation-timing-function: step-end;
            stroke: blue;
            stroke-dashoffset: 0;
            stroke-width: 128;
          }
          to {
            stroke: black;
            stroke-width: 1024;
          }
        }
        #make-me-a-hanzi-animation-4 {
          animation: keyframes4 0.7415364583333334s both;
          animation-delay: 3.1386718750000004s;
          animation-timing-function: linear;
        }
      
        @keyframes keyframes5 {
          from {
            stroke: blue;
            stroke-dashoffset: 608;
            stroke-width: 128;
          }
          66% {
            animation-timing-function: step-end;
            stroke: blue;
            stroke-dashoffset: 0;
            stroke-width: 128;
          }
          to {
            stroke: black;
            stroke-width: 1024;
          }
        }
        #make-me-a-hanzi-animation-5 {
          animation: keyframes5 0.7447916666666666s both;
          animation-delay: 3.880208333333334s;
          animation-timing-function: linear;
        }
      
        @keyframes keyframes6 {
          from {
            stroke: blue;
            stroke-dashoffset: 496;
            stroke-width: 128;
          }
          62% {
            animation-timing-function: step-end;
            stroke: blue;
            stroke-dashoffset: 0;
            stroke-width: 128;
          }
          to {
            stroke: black;
            stroke-width: 1024;
          }
        }
        #make-me-a-hanzi-animation-6 {
          animation: keyframes6 0.6536458333333334s both;
          animation-delay: 4.625000000000001s;
          animation-timing-function: linear;
        }
      
        @keyframes keyframes7 {
          from {
            stroke: blue;
            stroke-dashoffset: 650;
            stroke-width: 128;
          }
          68% {
            animation-timing-function: step-end;
            stroke: blue;
            stroke-dashoffset: 0;
            stroke-width: 128;
          }
          to {
            stroke: black;
            stroke-width: 1024;
          }
        }
        #make-me-a-hanzi-animation-7 {
          animation: keyframes7 0.7789713541666666s both;
          animation-delay: 5.278645833333334s;
          animation-timing-function: linear;
        }
      
        @keyframes keyframes8 {
          from {
            stroke: blue;
            stroke-dashoffset: 773;
            stroke-width: 128;
          }
          72% {
            animation-timing-function: step-end;
            stroke: blue;
            stroke-dashoffset: 0;
            stroke-width: 128;
          }
          to {
            stroke: black;
            stroke-width: 1024;
          }
        }
        #make-me-a-hanzi-animation-8 {
          animation: keyframes8 0.8790690104166666s both;
          animation-delay: 6.057617187500001s;
          animation-timing-function: linear;
        }
      
    </style>
    
      <path d="M 276 480 Q 230 480 193 480 Q 159 479 176 500 Q 243 620 309 709 Q 322 727 320 734 Q 319 749 278 779 Q 262 792 244 788 Q 232 784 239 769 Q 260 721 159 542 Q 141 515 111 487 Q 93 472 95 460 Q 99 441 114 424 Q 124 414 137 421 Q 173 442 259 455 C 289 460 306 480 276 480 Z" fill="lightgray"></path>
    
      <path d="M 259 455 Q 163 320 140 309 Q 127 299 130 286 Q 131 273 158 255 Q 168 243 183 256 Q 246 302 327 335 Q 346 341 347 349 Q 350 359 330 355 Q 282 345 224 326 Q 202 317 215 337 Q 252 391 342 499 Q 370 536 394 557 Q 406 567 400 577 Q 390 596 356 614 Q 340 623 331 620 Q 321 617 324 602 Q 325 568 276 480 L 259 455 Z" fill="lightgray"></path>
    
      <path d="M 102 135 Q 89 131 89 121 Q 89 108 100 101 Q 125 89 160 76 Q 170 75 181 85 Q 196 103 335 200 Q 354 213 366 226 Q 378 236 377 245 Q 371 249 258 196 Q 128 139 102 135 Z" fill="lightgray"></path>
    
      <path d="M 510 760 Q 522 730 467 635 Q 439 592 402 543 Q 393 534 391 529 Q 388 519 400 521 Q 445 527 555 676 Q 570 700 583 711 Q 590 720 587 732 Q 583 744 559 764 Q 537 780 519 780 Q 503 779 510 760 Z" fill="lightgray"></path>
    
      <path d="M 473 404 Q 504 441 537 491 Q 555 521 570 535 Q 577 542 574 554 Q 571 564 548 584 Q 526 599 510 599 Q 495 598 502 579 Q 526 521 366 321 Q 357 314 355 308 Q 352 299 364 301 Q 385 304 450 377 L 473 404 Z" fill="lightgray"></path>
    
      <path d="M 450 377 Q 483 275 444 128 Q 434 86 463 44 Q 464 41 467 39 Q 483 24 494 49 Q 507 86 507 127 Q 511 290 518 326 Q 525 351 516 360 Q 485 396 473 404 C 450 423 441 406 450 377 Z" fill="lightgray"></path>
    
      <path d="M 628 625 Q 589 615 618 599 Q 669 578 724 595 Q 853 628 861 633 Q 870 643 864 651 Q 855 664 824 669 Q 791 673 760 659 Q 732 649 701 639 Q 667 630 628 625 Z" fill="lightgray"></path>
    
      <path d="M 791 446 Q 840 453 907 455 Q 952 455 958 466 Q 962 478 945 490 Q 884 527 828 505 Q 696 477 563 446 Q 542 443 559 427 Q 587 402 627 412 Q 678 428 737 437 L 791 446 Z" fill="lightgray"></path>
    
      <path d="M 699 104 Q 677 108 648 113 Q 636 114 637 108 Q 638 101 649 92 Q 716 46 759 8 Q 771 -1 784 16 Q 823 70 814 182 Q 808 314 812 391 Q 818 418 812 428 Q 806 437 791 446 C 767 463 729 466 737 437 Q 747 413 752 283 Q 752 231 754 155 Q 754 118 743 104 Q 730 95 699 104 Z" fill="lightgray"></path>
    
    
      <clipPath id="make-me-a-hanzi-clip-0">
        <path d="M 276 480 Q 230 480 193 480 Q 159 479 176 500 Q 243 620 309 709 Q 322 727 320 734 Q 319 749 278 779 Q 262 792 244 788 Q 232 784 239 769 Q 260 721 159 542 Q 141 515 111 487 Q 93 472 95 460 Q 99 441 114 424 Q 124 414 137 421 Q 173 442 259 455 C 289 460 306 480 276 480 Z"></path>
      </clipPath>
      <path clip-path="url(#make-me-a-hanzi-clip-0)" d="M 248 777 L 271 751 L 279 731 L 222 616 L 146 487 L 140 464 L 189 460 L 247 465 L 268 476" fill="none" id="make-me-a-hanzi-animation-0" stroke-dasharray="617 1234" stroke-linecap="round"></path>
    
      <clipPath id="make-me-a-hanzi-clip-1">
        <path d="M 259 455 Q 163 320 140 309 Q 127 299 130 286 Q 131 273 158 255 Q 168 243 183 256 Q 246 302 327 335 Q 346 341 347 349 Q 350 359 330 355 Q 282 345 224 326 Q 202 317 215 337 Q 252 391 342 499 Q 370 536 394 557 Q 406 567 400 577 Q 390 596 356 614 Q 340 623 331 620 Q 321 617 324 602 Q 325 568 276 480 L 259 455 Z"></path>
      </clipPath>
      <path clip-path="url(#make-me-a-hanzi-clip-1)" d="M 336 608 L 351 584 L 354 567 L 295 471 L 199 347 L 193 306 L 229 307 L 339 349" fill="none" id="make-me-a-hanzi-animation-1" stroke-dasharray="638 1276" stroke-linecap="round"></path>
    
      <clipPath id="make-me-a-hanzi-clip-2">
        <path d="M 102 135 Q 89 131 89 121 Q 89 108 100 101 Q 125 89 160 76 Q 170 75 181 85 Q 196 103 335 200 Q 354 213 366 226 Q 378 236 377 245 Q 371 249 258 196 Q 128 139 102 135 Z"></path>
      </clipPath>
      <path clip-path="url(#make-me-a-hanzi-clip-2)" d="M 104 120 L 159 115 L 375 241" fill="none" id="make-me-a-hanzi-animation-2" stroke-dasharray="433 866" stroke-linecap="round"></path>
    
      <clipPath id="make-me-a-hanzi-clip-3">
        <path d="M 510 760 Q 522 730 467 635 Q 439 592 402 543 Q 393 534 391 529 Q 388 519 400 521 Q 445 527 555 676 Q 570 700 583 711 Q 590 720 587 732 Q 583 744 559 764 Q 537 780 519 780 Q 503 779 510 760 Z"></path>
      </clipPath>
      <path clip-path="url(#make-me-a-hanzi-clip-3)" d="M 519 768 L 531 758 L 546 726 L 525 682 L 454 581 L 399 528" fill="none" id="make-me-a-hanzi-animation-3" stroke-dasharray="428 856" stroke-linecap="round"></path>
    
      <clipPath id="make-me-a-hanzi-clip-4">
        <path d="M 473 404 Q 504 441 537 491 Q 555 521 570 535 Q 577 542 574 554 Q 571 564 548 584 Q 526 599 510 599 Q 495 598 502 579 Q 526 521 366 321 Q 357 314 355 308 Q 352 299 364 301 Q 385 304 450 377 L 473 404 Z"></path>
      </clipPath>
      <path clip-path="url(#make-me-a-hanzi-clip-4)" d="M 510 587 L 529 568 L 537 549 L 513 497 L 431 379 L 394 335 L 362 308" fill="none" id="make-me-a-hanzi-animation-4" stroke-dasharray="476 952" stroke-linecap="round"></path>
    
      <clipPath id="make-me-a-hanzi-clip-5">
        <path d="M 450 377 Q 483 275 444 128 Q 434 86 463 44 Q 464 41 467 39 Q 483 24 494 49 Q 507 86 507 127 Q 511 290 518 326 Q 525 351 516 360 Q 485 396 473 404 C 450 423 441 406 450 377 Z"></path>
      </clipPath>
      <path clip-path="url(#make-me-a-hanzi-clip-5)" d="M 473 396 L 475 372 L 490 339 L 487 225 L 473 98 L 479 49" fill="none" id="make-me-a-hanzi-animation-5" stroke-dasharray="480 960" stroke-linecap="round"></path>
    
      <clipPath id="make-me-a-hanzi-clip-6">
        <path d="M 628 625 Q 589 615 618 599 Q 669 578 724 595 Q 853 628 861 633 Q 870 643 864 651 Q 855 664 824 669 Q 791 673 760 659 Q 732 649 701 639 Q 667 630 628 625 Z"></path>
      </clipPath>
      <path clip-path="url(#make-me-a-hanzi-clip-6)" d="M 620 613 L 644 608 L 684 611 L 806 644 L 855 643" fill="none" id="make-me-a-hanzi-animation-6" stroke-dasharray="368 736" stroke-linecap="round"></path>
    
      <clipPath id="make-me-a-hanzi-clip-7">
        <path d="M 791 446 Q 840 453 907 455 Q 952 455 958 466 Q 962 478 945 490 Q 884 527 828 505 Q 696 477 563 446 Q 542 443 559 427 Q 587 402 627 412 Q 678 428 737 437 L 791 446 Z"></path>
      </clipPath>
      <path clip-path="url(#make-me-a-hanzi-clip-7)" d="M 561 437 L 615 433 L 716 458 L 876 484 L 949 471" fill="none" id="make-me-a-hanzi-animation-7" stroke-dasharray="522 1044" stroke-linecap="round"></path>
    
      <clipPath id="make-me-a-hanzi-clip-8">
        <path d="M 699 104 Q 677 108 648 113 Q 636 114 637 108 Q 638 101 649 92 Q 716 46 759 8 Q 771 -1 784 16 Q 823 70 814 182 Q 808 314 812 391 Q 818 418 812 428 Q 806 437 791 446 C 767 463 729 466 737 437 Q 747 413 752 283 Q 752 231 754 155 Q 754 118 743 104 Q 730 95 699 104 Z"></path>
      </clipPath>
      <path clip-path="url(#make-me-a-hanzi-clip-8)" d="M 744 436 L 779 405 L 785 170 L 781 104 L 760 64 L 711 76 L 644 107" fill="none" id="make-me-a-hanzi-animation-8" stroke-dasharray="645 1290" stroke-linecap="round"></path>
    
  </g>
</svg>