<svg version="1.1" viewBox="0 0 1024 1024" xmlns="http://www.w3.org/2000/svg">
  <g stroke="lightgray" stroke-dasharray="1,1" stroke-width="1" transform="scale(4, 4)">
    <line x1="0" y1="0" x2="256" y2="256"></line>
    <line x1="256" y1="0" x2="0" y2="256"></line>
    <line x1="128" y1="0" x2="128" y2="256"></line>
    <line x1="0" y1="128" x2="256" y2="128"></line>
  </g>
  <g transform="scale(1, -1) translate(0, -900)">
    <style type="text/css">
      
        @keyframes keyframes0 {
          from {
            stroke: blue;
            stroke-dashoffset: 474;
            stroke-width: 128;
          }
          61% {
            animation-timing-function: step-end;
            stroke: blue;
            stroke-dashoffset: 0;
            stroke-width: 128;
          }
          to {
            stroke: black;
            stroke-width: 1024;
          }
        }
        #make-me-a-hanzi-animation-0 {
          animation: keyframes0 0.6357421875s both;
          animation-delay: 0s;
          animation-timing-function: linear;
        }
      
        @keyframes keyframes1 {
          from {
            stroke: blue;
            stroke-dashoffset: 883;
            stroke-width: 128;
          }
          74% {
            animation-timing-function: step-end;
            stroke: blue;
            stroke-dashoffset: 0;
            stroke-width: 128;
          }
          to {
            stroke: black;
            stroke-width: 1024;
          }
        }
        #make-me-a-hanzi-animation-1 {
          animation: keyframes1 0.9685872395833334s both;
          animation-delay: 0.6357421875s;
          animation-timing-function: linear;
        }
      
        @keyframes keyframes2 {
          from {
            stroke: blue;
            stroke-dashoffset: 381;
            stroke-width: 128;
          }
          55% {
            animation-timing-function: step-end;
            stroke: blue;
            stroke-dashoffset: 0;
            stroke-width: 128;
          }
          to {
            stroke: black;
            stroke-width: 1024;
          }
        }
        #make-me-a-hanzi-animation-2 {
          animation: keyframes2 0.56005859375s both;
          animation-delay: 1.6043294270833335s;
          animation-timing-function: linear;
        }
      
        @keyframes keyframes3 {
          from {
            stroke: blue;
            stroke-dashoffset: 401;
            stroke-width: 128;
          }
          57% {
            animation-timing-function: step-end;
            stroke: blue;
            stroke-dashoffset: 0;
            stroke-width: 128;
          }
          to {
            stroke: black;
            stroke-width: 1024;
          }
        }
        #make-me-a-hanzi-animation-3 {
          animation: keyframes3 0.5763346354166666s both;
          animation-delay: 2.1643880208333335s;
          animation-timing-function: linear;
        }
      
        @keyframes keyframes4 {
          from {
            stroke: blue;
            stroke-dashoffset: 579;
            stroke-width: 128;
          }
          65% {
            animation-timing-function: step-end;
            stroke: blue;
            stroke-dashoffset: 0;
            stroke-width: 128;
          }
          to {
            stroke: black;
            stroke-width: 1024;
          }
        }
        #make-me-a-hanzi-animation-4 {
          animation: keyframes4 0.72119140625s both;
          animation-delay: 2.74072265625s;
          animation-timing-function: linear;
        }
      
        @keyframes keyframes5 {
          from {
            stroke: blue;
            stroke-dashoffset: 634;
            stroke-width: 128;
          }
          67% {
            animation-timing-function: step-end;
            stroke: blue;
            stroke-dashoffset: 0;
            stroke-width: 128;
          }
          to {
            stroke: black;
            stroke-width: 1024;
          }
        }
        #make-me-a-hanzi-animation-5 {
          animation: keyframes5 0.7659505208333334s both;
          animation-delay: 3.4619140625s;
          animation-timing-function: linear;
        }
      
        @keyframes keyframes6 {
          from {
            stroke: blue;
            stroke-dashoffset: 449;
            stroke-width: 128;
          }
          59% {
            animation-timing-function: step-end;
            stroke: blue;
            stroke-dashoffset: 0;
            stroke-width: 128;
          }
          to {
            stroke: black;
            stroke-width: 1024;
          }
        }
        #make-me-a-hanzi-animation-6 {
          animation: keyframes6 0.6153971354166666s both;
          animation-delay: 4.227864583333333s;
          animation-timing-function: linear;
        }
      
        @keyframes keyframes7 {
          from {
            stroke: blue;
            stroke-dashoffset: 624;
            stroke-width: 128;
          }
          67% {
            animation-timing-function: step-end;
            stroke: blue;
            stroke-dashoffset: 0;
            stroke-width: 128;
          }
          to {
            stroke: black;
            stroke-width: 1024;
          }
        }
        #make-me-a-hanzi-animation-7 {
          animation: keyframes7 0.7578125s both;
          animation-delay: 4.84326171875s;
          animation-timing-function: linear;
        }
      
        @keyframes keyframes8 {
          from {
            stroke: blue;
            stroke-dashoffset: 1316;
            stroke-width: 128;
          }
          81% {
            animation-timing-function: step-end;
            stroke: blue;
            stroke-dashoffset: 0;
            stroke-width: 128;
          }
          to {
            stroke: black;
            stroke-width: 1024;
          }
        }
        #make-me-a-hanzi-animation-8 {
          animation: keyframes8 1.3209635416666667s both;
          animation-delay: 5.60107421875s;
          animation-timing-function: linear;
        }
      
        @keyframes keyframes9 {
          from {
            stroke: blue;
            stroke-dashoffset: 330;
            stroke-width: 128;
          }
          52% {
            animation-timing-function: step-end;
            stroke: blue;
            stroke-dashoffset: 0;
            stroke-width: 128;
          }
          to {
            stroke: black;
            stroke-width: 1024;
          }
        }
        #make-me-a-hanzi-animation-9 {
          animation: keyframes9 0.5185546875s both;
          animation-delay: 6.922037760416667s;
          animation-timing-function: linear;
        }
      
        @keyframes keyframes10 {
          from {
            stroke: blue;
            stroke-dashoffset: 392;
            stroke-width: 128;
          }
          56% {
            animation-timing-function: step-end;
            stroke: blue;
            stroke-dashoffset: 0;
            stroke-width: 128;
          }
          to {
            stroke: black;
            stroke-width: 1024;
          }
        }
        #make-me-a-hanzi-animation-10 {
          animation: keyframes10 0.5690104166666666s both;
          animation-delay: 7.440592447916667s;
          animation-timing-function: linear;
        }
      
        @keyframes keyframes11 {
          from {
            stroke: blue;
            stroke-dashoffset: 556;
            stroke-width: 128;
          }
          64% {
            animation-timing-function: step-end;
            stroke: blue;
            stroke-dashoffset: 0;
            stroke-width: 128;
          }
          to {
            stroke: black;
            stroke-width: 1024;
          }
        }
        #make-me-a-hanzi-animation-11 {
          animation: keyframes11 0.7024739583333334s both;
          animation-delay: 8.009602864583334s;
          animation-timing-function: linear;
        }
      
        @keyframes keyframes12 {
          from {
            stroke: blue;
            stroke-dashoffset: 595;
            stroke-width: 128;
          }
          66% {
            animation-timing-function: step-end;
            stroke: blue;
            stroke-dashoffset: 0;
            stroke-width: 128;
          }
          to {
            stroke: black;
            stroke-width: 1024;
          }
        }
        #make-me-a-hanzi-animation-12 {
          animation: keyframes12 0.7342122395833334s both;
          animation-delay: 8.712076822916668s;
          animation-timing-function: linear;
        }
      
        @keyframes keyframes13 {
          from {
            stroke: blue;
            stroke-dashoffset: 494;
            stroke-width: 128;
          }
          62% {
            animation-timing-function: step-end;
            stroke: blue;
            stroke-dashoffset: 0;
            stroke-width: 128;
          }
          to {
            stroke: black;
            stroke-width: 1024;
          }
        }
        #make-me-a-hanzi-animation-13 {
          animation: keyframes13 0.6520182291666666s both;
          animation-delay: 9.446289062500002s;
          animation-timing-function: linear;
        }
      
    </style>
    
      <path d="M 294 746 Q 282 752 247 756 Q 234 759 231 753 Q 224 746 235 730 Q 263 678 285 593 Q 289 568 306 551 Q 327 529 331 546 Q 332 552 333 558 L 333 584 Q 332 593 330 602 Q 314 675 309 707 C 304 737 303 742 294 746 Z" fill="lightgray"></path>
    
      <path d="M 658 588 Q 658 587 659 585 Q 663 569 676 568 Q 697 571 729 631 Q 748 683 788 712 Q 809 728 793 745 Q 775 763 725 793 Q 710 802 638 790 Q 530 781 411 762 Q 344 752 294 746 C 264 742 280 699 309 707 Q 321 713 399 725 L 424 729 Q 473 738 539 744 L 581 748 Q 666 763 692 747 Q 699 743 693 720 Q 669 633 660 613 C 654 596 654 596 658 588 Z" fill="lightgray"></path>
    
      <path d="M 458 600 Q 461 627 437 702 Q 434 718 424 729 C 405 752 390 754 399 725 L 400 723 Q 403 702 406 675 Q 409 624 430 596 C 447 572 456 570 458 600 Z" fill="lightgray"></path>
    
      <path d="M 559 615 Q 602 693 609 700 Q 622 712 613 721 Q 604 734 581 748 C 556 764 522 769 539 744 Q 555 728 533 629 Q 529 619 528 610 C 523 580 545 589 559 615 Z" fill="lightgray"></path>
    
      <path d="M 505 572 Q 587 582 658 588 C 688 591 687 600 660 613 Q 653 617 642 621 Q 626 624 559 615 L 528 610 Q 492 606 458 600 L 430 596 Q 379 592 333 584 C 303 579 303 556 333 558 Q 334 558 457 566 L 505 572 Z" fill="lightgray"></path>
    
      <path d="M 507 458 Q 685 488 693 494 Q 702 501 698 509 Q 692 521 666 528 Q 639 535 611 526 Q 566 513 521 502 L 460 490 Q 393 481 322 477 Q 288 473 311 457 Q 344 436 418 445 Q 436 448 455 450 L 507 458 Z" fill="lightgray"></path>
    
      <path d="M 486 393 Q 496 427 507 458 L 521 502 Q 521 505 536 533 Q 540 542 526 557 Q 516 566 505 572 C 479 587 447 594 457 566 Q 466 548 460 490 L 455 450 Q 451 422 446 388 C 442 358 477 364 486 393 Z" fill="lightgray"></path>
    
      <path d="M 243 352 Q 222 368 201 375 Q 195 378 190 371 Q 186 364 190 351 Q 229 273 203 84 Q 197 60 207 39 Q 219 17 236 5 Q 249 -5 253 6 Q 260 10 263 32 Q 269 54 265 127 Q 261 257 266 303 Q 267 310 267 316 C 268 334 267 335 243 352 Z" fill="lightgray"></path>
    
      <path d="M 586 365 Q 637 371 719 374 Q 734 374 739 367 Q 748 361 748 324 Q 752 170 734 81 Q 724 41 689 45 Q 652 52 617 56 Q 601 60 601 53 Q 601 46 614 34 Q 690 -26 713 -57 Q 722 -72 731 -70 Q 744 -69 758 -44 Q 794 17 811 201 Q 820 337 832 357 Q 851 379 836 385 Q 820 403 780 420 Q 755 436 728 426 Q 697 416 621 409 Q 548 403 486 393 L 446 388 Q 409 384 379 377 Q 310 364 243 352 C 213 347 238 308 267 316 Q 266 317 268 317 Q 337 338 549 362 L 586 365 Z" fill="lightgray"></path>
    
      <path d="M 369 299 Q 405 245 423 243 Q 435 242 442 256 Q 443 268 437 286 Q 430 299 413 306 Q 386 319 375 322 Q 368 325 365 315 Q 364 308 369 299 Z" fill="lightgray"></path>
    
      <path d="M 548 251 Q 558 266 568 275 Q 601 320 614 332 Q 627 342 616 353 Q 603 360 586 365 C 557 374 547 377 549 362 Q 548 359 551 354 Q 558 339 527 258 Q 524 252 522 244 C 514 215 531 226 548 251 Z" fill="lightgray"></path>
    
      <path d="M 505 201 Q 535 208 625 220 Q 634 219 641 230 Q 642 240 623 248 Q 595 269 548 251 L 522 244 Q 507 243 493 237 Q 451 228 339 213 Q 315 209 334 195 Q 362 176 400 182 Q 425 188 458 193 L 505 201 Z" fill="lightgray"></path>
    
      <path d="M 522 110 Q 559 113 651 114 Q 667 114 671 121 Q 675 130 662 141 Q 616 174 554 155 Q 539 154 525 149 L 469 139 Q 403 129 329 118 Q 313 117 325 102 Q 337 92 351 88 Q 367 84 380 88 Q 422 100 471 104 L 522 110 Z" fill="lightgray"></path>
    
      <path d="M 478 -9 Q 482 -30 488 -38 Q 492 -44 498 -41 Q 510 -35 516 13 Q 517 28 522 110 L 525 149 Q 526 155 527 157 Q 528 164 529 169 Q 532 182 521 191 Q 512 197 505 201 C 479 216 448 221 458 193 Q 464 178 469 141 Q 468 141 469 139 L 471 104 Q 472 80 474 51 Q 475 6 478 -9 Z" fill="lightgray"></path>
    
    
      <clipPath id="make-me-a-hanzi-clip-0">
        <path d="M 294 746 Q 282 752 247 756 Q 234 759 231 753 Q 224 746 235 730 Q 263 678 285 593 Q 289 568 306 551 Q 327 529 331 546 Q 332 552 333 558 L 333 584 Q 332 593 330 602 Q 314 675 309 707 C 304 737 303 742 294 746 Z"></path>
      </clipPath>
      <path clip-path="url(#make-me-a-hanzi-clip-0)" d="M 240 746 L 272 722 L 280 703 L 319 551" fill="none" id="make-me-a-hanzi-animation-0" stroke-dasharray="346 692" stroke-linecap="round"></path>
    
      <clipPath id="make-me-a-hanzi-clip-1">
        <path d="M 658 588 Q 658 587 659 585 Q 663 569 676 568 Q 697 571 729 631 Q 748 683 788 712 Q 809 728 793 745 Q 775 763 725 793 Q 710 802 638 790 Q 530 781 411 762 Q 344 752 294 746 C 264 742 280 699 309 707 Q 321 713 399 725 L 424 729 Q 473 738 539 744 L 581 748 Q 666 763 692 747 Q 699 743 693 720 Q 669 633 660 613 C 654 596 654 596 658 588 Z"></path>
      </clipPath>
      <path clip-path="url(#make-me-a-hanzi-clip-1)" d="M 301 741 L 320 730 L 652 775 L 712 768 L 740 730 L 675 581" fill="none" id="make-me-a-hanzi-animation-1" stroke-dasharray="755 1510" stroke-linecap="round"></path>
    
      <clipPath id="make-me-a-hanzi-clip-2">
        <path d="M 458 600 Q 461 627 437 702 Q 434 718 424 729 C 405 752 390 754 399 725 L 400 723 Q 403 702 406 675 Q 409 624 430 596 C 447 572 456 570 458 600 Z"></path>
      </clipPath>
      <path clip-path="url(#make-me-a-hanzi-clip-2)" d="M 408 719 L 420 705 L 439 616 L 450 605" fill="none" id="make-me-a-hanzi-animation-2" stroke-dasharray="253 506" stroke-linecap="round"></path>
    
      <clipPath id="make-me-a-hanzi-clip-3">
        <path d="M 559 615 Q 602 693 609 700 Q 622 712 613 721 Q 604 734 581 748 C 556 764 522 769 539 744 Q 555 728 533 629 Q 529 619 528 610 C 523 580 545 589 559 615 Z"></path>
      </clipPath>
      <path clip-path="url(#make-me-a-hanzi-clip-3)" d="M 551 737 L 577 711 L 552 633 L 535 613" fill="none" id="make-me-a-hanzi-animation-3" stroke-dasharray="273 546" stroke-linecap="round"></path>
    
      <clipPath id="make-me-a-hanzi-clip-4">
        <path d="M 505 572 Q 587 582 658 588 C 688 591 687 600 660 613 Q 653 617 642 621 Q 626 624 559 615 L 528 610 Q 492 606 458 600 L 430 596 Q 379 592 333 584 C 303 579 303 556 333 558 Q 334 558 457 566 L 505 572 Z"></path>
      </clipPath>
      <path clip-path="url(#make-me-a-hanzi-clip-4)" d="M 334 565 L 355 574 L 440 579 L 572 599 L 641 604 L 650 595" fill="none" id="make-me-a-hanzi-animation-4" stroke-dasharray="451 902" stroke-linecap="round"></path>
    
      <clipPath id="make-me-a-hanzi-clip-5">
        <path d="M 507 458 Q 685 488 693 494 Q 702 501 698 509 Q 692 521 666 528 Q 639 535 611 526 Q 566 513 521 502 L 460 490 Q 393 481 322 477 Q 288 473 311 457 Q 344 436 418 445 Q 436 448 455 450 L 507 458 Z"></path>
      </clipPath>
      <path clip-path="url(#make-me-a-hanzi-clip-5)" d="M 314 468 L 388 461 L 518 479 L 634 506 L 687 504" fill="none" id="make-me-a-hanzi-animation-5" stroke-dasharray="506 1012" stroke-linecap="round"></path>
    
      <clipPath id="make-me-a-hanzi-clip-6">
        <path d="M 486 393 Q 496 427 507 458 L 521 502 Q 521 505 536 533 Q 540 542 526 557 Q 516 566 505 572 C 479 587 447 594 457 566 Q 466 548 460 490 L 455 450 Q 451 422 446 388 C 442 358 477 364 486 393 Z"></path>
      </clipPath>
      <path clip-path="url(#make-me-a-hanzi-clip-6)" d="M 463 563 L 497 535 L 472 419 L 452 396" fill="none" id="make-me-a-hanzi-animation-6" stroke-dasharray="321 642" stroke-linecap="round"></path>
    
      <clipPath id="make-me-a-hanzi-clip-7">
        <path d="M 243 352 Q 222 368 201 375 Q 195 378 190 371 Q 186 364 190 351 Q 229 273 203 84 Q 197 60 207 39 Q 219 17 236 5 Q 249 -5 253 6 Q 260 10 263 32 Q 269 54 265 127 Q 261 257 266 303 Q 267 310 267 316 C 268 334 267 335 243 352 Z"></path>
      </clipPath>
      <path clip-path="url(#make-me-a-hanzi-clip-7)" d="M 199 364 L 223 337 L 236 308 L 234 56 L 244 9" fill="none" id="make-me-a-hanzi-animation-7" stroke-dasharray="496 992" stroke-linecap="round"></path>
    
      <clipPath id="make-me-a-hanzi-clip-8">
        <path d="M 586 365 Q 637 371 719 374 Q 734 374 739 367 Q 748 361 748 324 Q 752 170 734 81 Q 724 41 689 45 Q 652 52 617 56 Q 601 60 601 53 Q 601 46 614 34 Q 690 -26 713 -57 Q 722 -72 731 -70 Q 744 -69 758 -44 Q 794 17 811 201 Q 820 337 832 357 Q 851 379 836 385 Q 820 403 780 420 Q 755 436 728 426 Q 697 416 621 409 Q 548 403 486 393 L 446 388 Q 409 384 379 377 Q 310 364 243 352 C 213 347 238 308 267 316 Q 266 317 268 317 Q 337 338 549 362 L 586 365 Z"></path>
      </clipPath>
      <path clip-path="url(#make-me-a-hanzi-clip-8)" d="M 251 349 L 276 338 L 441 369 L 718 399 L 748 399 L 772 384 L 788 367 L 781 216 L 771 112 L 756 47 L 726 2 L 685 14 L 608 51" fill="none" id="make-me-a-hanzi-animation-8" stroke-dasharray="1188 2376" stroke-linecap="round"></path>
    
      <clipPath id="make-me-a-hanzi-clip-9">
        <path d="M 369 299 Q 405 245 423 243 Q 435 242 442 256 Q 443 268 437 286 Q 430 299 413 306 Q 386 319 375 322 Q 368 325 365 315 Q 364 308 369 299 Z"></path>
      </clipPath>
      <path clip-path="url(#make-me-a-hanzi-clip-9)" d="M 375 312 L 415 277 L 425 259" fill="none" id="make-me-a-hanzi-animation-9" stroke-dasharray="202 404" stroke-linecap="round"></path>
    
      <clipPath id="make-me-a-hanzi-clip-10">
        <path d="M 548 251 Q 558 266 568 275 Q 601 320 614 332 Q 627 342 616 353 Q 603 360 586 365 C 557 374 547 377 549 362 Q 548 359 551 354 Q 558 339 527 258 Q 524 252 522 244 C 514 215 531 226 548 251 Z"></path>
      </clipPath>
      <path clip-path="url(#make-me-a-hanzi-clip-10)" d="M 555 359 L 580 336 L 561 293 L 527 250" fill="none" id="make-me-a-hanzi-animation-10" stroke-dasharray="264 528" stroke-linecap="round"></path>
    
      <clipPath id="make-me-a-hanzi-clip-11">
        <path d="M 505 201 Q 535 208 625 220 Q 634 219 641 230 Q 642 240 623 248 Q 595 269 548 251 L 522 244 Q 507 243 493 237 Q 451 228 339 213 Q 315 209 334 195 Q 362 176 400 182 Q 425 188 458 193 L 505 201 Z"></path>
      </clipPath>
      <path clip-path="url(#make-me-a-hanzi-clip-11)" d="M 335 204 L 368 199 L 402 202 L 578 237 L 631 232" fill="none" id="make-me-a-hanzi-animation-11" stroke-dasharray="428 856" stroke-linecap="round"></path>
    
      <clipPath id="make-me-a-hanzi-clip-12">
        <path d="M 522 110 Q 559 113 651 114 Q 667 114 671 121 Q 675 130 662 141 Q 616 174 554 155 Q 539 154 525 149 L 469 139 Q 403 129 329 118 Q 313 117 325 102 Q 337 92 351 88 Q 367 84 380 88 Q 422 100 471 104 L 522 110 Z"></path>
      </clipPath>
      <path clip-path="url(#make-me-a-hanzi-clip-12)" d="M 327 110 L 361 104 L 596 138 L 662 126" fill="none" id="make-me-a-hanzi-animation-12" stroke-dasharray="467 934" stroke-linecap="round"></path>
    
      <clipPath id="make-me-a-hanzi-clip-13">
        <path d="M 478 -9 Q 482 -30 488 -38 Q 492 -44 498 -41 Q 510 -35 516 13 Q 517 28 522 110 L 525 149 Q 526 155 527 157 Q 528 164 529 169 Q 532 182 521 191 Q 512 197 505 201 C 479 216 448 221 458 193 Q 464 178 469 141 Q 468 141 469 139 L 471 104 Q 472 80 474 51 Q 475 6 478 -9 Z"></path>
      </clipPath>
      <path clip-path="url(#make-me-a-hanzi-clip-13)" d="M 466 191 L 497 167 L 495 -32" fill="none" id="make-me-a-hanzi-animation-13" stroke-dasharray="366 732" stroke-linecap="round"></path>
    
  </g>
</svg>