<svg version="1.1" viewBox="0 0 1024 1024" xmlns="http://www.w3.org/2000/svg">
  <g stroke="lightgray" stroke-dasharray="1,1" stroke-width="1" transform="scale(4, 4)">
    <line x1="0" y1="0" x2="256" y2="256"></line>
    <line x1="256" y1="0" x2="0" y2="256"></line>
    <line x1="128" y1="0" x2="128" y2="256"></line>
    <line x1="0" y1="128" x2="256" y2="128"></line>
  </g>
  <g transform="scale(1, -1) translate(0, -900)">
    <style type="text/css">
      
        @keyframes keyframes0 {
          from {
            stroke: blue;
            stroke-dashoffset: 448;
            stroke-width: 128;
          }
          59% {
            animation-timing-function: step-end;
            stroke: blue;
            stroke-dashoffset: 0;
            stroke-width: 128;
          }
          to {
            stroke: black;
            stroke-width: 1024;
          }
        }
        #make-me-a-hanzi-animation-0 {
          animation: keyframes0 0.6145833333333334s both;
          animation-delay: 0s;
          animation-timing-function: linear;
        }
      
        @keyframes keyframes1 {
          from {
            stroke: blue;
            stroke-dashoffset: 863;
            stroke-width: 128;
          }
          74% {
            animation-timing-function: step-end;
            stroke: blue;
            stroke-dashoffset: 0;
            stroke-width: 128;
          }
          to {
            stroke: black;
            stroke-width: 1024;
          }
        }
        #make-me-a-hanzi-animation-1 {
          animation: keyframes1 0.9523111979166666s both;
          animation-delay: 0.6145833333333334s;
          animation-timing-function: linear;
        }
      
        @keyframes keyframes2 {
          from {
            stroke: blue;
            stroke-dashoffset: 366;
            stroke-width: 128;
          }
          54% {
            animation-timing-function: step-end;
            stroke: blue;
            stroke-dashoffset: 0;
            stroke-width: 128;
          }
          to {
            stroke: black;
            stroke-width: 1024;
          }
        }
        #make-me-a-hanzi-animation-2 {
          animation: keyframes2 0.5478515625s both;
          animation-delay: 1.56689453125s;
          animation-timing-function: linear;
        }
      
        @keyframes keyframes3 {
          from {
            stroke: blue;
            stroke-dashoffset: 383;
            stroke-width: 128;
          }
          55% {
            animation-timing-function: step-end;
            stroke: blue;
            stroke-dashoffset: 0;
            stroke-width: 128;
          }
          to {
            stroke: black;
            stroke-width: 1024;
          }
        }
        #make-me-a-hanzi-animation-3 {
          animation: keyframes3 0.5616861979166666s both;
          animation-delay: 2.11474609375s;
          animation-timing-function: linear;
        }
      
        @keyframes keyframes4 {
          from {
            stroke: blue;
            stroke-dashoffset: 575;
            stroke-width: 128;
          }
          65% {
            animation-timing-function: step-end;
            stroke: blue;
            stroke-dashoffset: 0;
            stroke-width: 128;
          }
          to {
            stroke: black;
            stroke-width: 1024;
          }
        }
        #make-me-a-hanzi-animation-4 {
          animation: keyframes4 0.7179361979166666s both;
          animation-delay: 2.6764322916666665s;
          animation-timing-function: linear;
        }
      
        @keyframes keyframes5 {
          from {
            stroke: blue;
            stroke-dashoffset: 600;
            stroke-width: 128;
          }
          66% {
            animation-timing-function: step-end;
            stroke: blue;
            stroke-dashoffset: 0;
            stroke-width: 128;
          }
          to {
            stroke: black;
            stroke-width: 1024;
          }
        }
        #make-me-a-hanzi-animation-5 {
          animation: keyframes5 0.73828125s both;
          animation-delay: 3.394368489583333s;
          animation-timing-function: linear;
        }
      
        @keyframes keyframes6 {
          from {
            stroke: blue;
            stroke-dashoffset: 713;
            stroke-width: 128;
          }
          70% {
            animation-timing-function: step-end;
            stroke: blue;
            stroke-dashoffset: 0;
            stroke-width: 128;
          }
          to {
            stroke: black;
            stroke-width: 1024;
          }
        }
        #make-me-a-hanzi-animation-6 {
          animation: keyframes6 0.8302408854166666s both;
          animation-delay: 4.132649739583333s;
          animation-timing-function: linear;
        }
      
        @keyframes keyframes7 {
          from {
            stroke: blue;
            stroke-dashoffset: 339;
            stroke-width: 128;
          }
          52% {
            animation-timing-function: step-end;
            stroke: blue;
            stroke-dashoffset: 0;
            stroke-width: 128;
          }
          to {
            stroke: black;
            stroke-width: 1024;
          }
        }
        #make-me-a-hanzi-animation-7 {
          animation: keyframes7 0.52587890625s both;
          animation-delay: 4.962890625s;
          animation-timing-function: linear;
        }
      
        @keyframes keyframes8 {
          from {
            stroke: blue;
            stroke-dashoffset: 392;
            stroke-width: 128;
          }
          56% {
            animation-timing-function: step-end;
            stroke: blue;
            stroke-dashoffset: 0;
            stroke-width: 128;
          }
          to {
            stroke: black;
            stroke-width: 1024;
          }
        }
        #make-me-a-hanzi-animation-8 {
          animation: keyframes8 0.5690104166666666s both;
          animation-delay: 5.48876953125s;
          animation-timing-function: linear;
        }
      
        @keyframes keyframes9 {
          from {
            stroke: blue;
            stroke-dashoffset: 358;
            stroke-width: 128;
          }
          54% {
            animation-timing-function: step-end;
            stroke: blue;
            stroke-dashoffset: 0;
            stroke-width: 128;
          }
          to {
            stroke: black;
            stroke-width: 1024;
          }
        }
        #make-me-a-hanzi-animation-9 {
          animation: keyframes9 0.5413411458333334s both;
          animation-delay: 6.057779947916667s;
          animation-timing-function: linear;
        }
      
        @keyframes keyframes10 {
          from {
            stroke: blue;
            stroke-dashoffset: 346;
            stroke-width: 128;
          }
          53% {
            animation-timing-function: step-end;
            stroke: blue;
            stroke-dashoffset: 0;
            stroke-width: 128;
          }
          to {
            stroke: black;
            stroke-width: 1024;
          }
        }
        #make-me-a-hanzi-animation-10 {
          animation: keyframes10 0.5315755208333334s both;
          animation-delay: 6.59912109375s;
          animation-timing-function: linear;
        }
      
        @keyframes keyframes11 {
          from {
            stroke: blue;
            stroke-dashoffset: 522;
            stroke-width: 128;
          }
          63% {
            animation-timing-function: step-end;
            stroke: blue;
            stroke-dashoffset: 0;
            stroke-width: 128;
          }
          to {
            stroke: black;
            stroke-width: 1024;
          }
        }
        #make-me-a-hanzi-animation-11 {
          animation: keyframes11 0.6748046875s both;
          animation-delay: 7.130696614583333s;
          animation-timing-function: linear;
        }
      
        @keyframes keyframes12 {
          from {
            stroke: blue;
            stroke-dashoffset: 743;
            stroke-width: 128;
          }
          71% {
            animation-timing-function: step-end;
            stroke: blue;
            stroke-dashoffset: 0;
            stroke-width: 128;
          }
          to {
            stroke: black;
            stroke-width: 1024;
          }
        }
        #make-me-a-hanzi-animation-12 {
          animation: keyframes12 0.8546549479166666s both;
          animation-delay: 7.805501302083333s;
          animation-timing-function: linear;
        }
      
        @keyframes keyframes13 {
          from {
            stroke: blue;
            stroke-dashoffset: 364;
            stroke-width: 128;
          }
          54% {
            animation-timing-function: step-end;
            stroke: blue;
            stroke-dashoffset: 0;
            stroke-width: 128;
          }
          to {
            stroke: black;
            stroke-width: 1024;
          }
        }
        #make-me-a-hanzi-animation-13 {
          animation: keyframes13 0.5462239583333334s both;
          animation-delay: 8.66015625s;
          animation-timing-function: linear;
        }
      
        @keyframes keyframes14 {
          from {
            stroke: blue;
            stroke-dashoffset: 498;
            stroke-width: 128;
          }
          62% {
            animation-timing-function: step-end;
            stroke: blue;
            stroke-dashoffset: 0;
            stroke-width: 128;
          }
          to {
            stroke: black;
            stroke-width: 1024;
          }
        }
        #make-me-a-hanzi-animation-14 {
          animation: keyframes14 0.6552734375s both;
          animation-delay: 9.206380208333334s;
          animation-timing-function: linear;
        }
      
        @keyframes keyframes15 {
          from {
            stroke: blue;
            stroke-dashoffset: 474;
            stroke-width: 128;
          }
          61% {
            animation-timing-function: step-end;
            stroke: blue;
            stroke-dashoffset: 0;
            stroke-width: 128;
          }
          to {
            stroke: black;
            stroke-width: 1024;
          }
        }
        #make-me-a-hanzi-animation-15 {
          animation: keyframes15 0.6357421875s both;
          animation-delay: 9.861653645833334s;
          animation-timing-function: linear;
        }
      
        @keyframes keyframes16 {
          from {
            stroke: blue;
            stroke-dashoffset: 490;
            stroke-width: 128;
          }
          61% {
            animation-timing-function: step-end;
            stroke: blue;
            stroke-dashoffset: 0;
            stroke-width: 128;
          }
          to {
            stroke: black;
            stroke-width: 1024;
          }
        }
        #make-me-a-hanzi-animation-16 {
          animation: keyframes16 0.6487630208333334s both;
          animation-delay: 10.497395833333334s;
          animation-timing-function: linear;
        }
      
        @keyframes keyframes17 {
          from {
            stroke: blue;
            stroke-dashoffset: 568;
            stroke-width: 128;
          }
          65% {
            animation-timing-function: step-end;
            stroke: blue;
            stroke-dashoffset: 0;
            stroke-width: 128;
          }
          to {
            stroke: black;
            stroke-width: 1024;
          }
        }
        #make-me-a-hanzi-animation-17 {
          animation: keyframes17 0.7122395833333334s both;
          animation-delay: 11.146158854166668s;
          animation-timing-function: linear;
        }
      
        @keyframes keyframes18 {
          from {
            stroke: blue;
            stroke-dashoffset: 613;
            stroke-width: 128;
          }
          67% {
            animation-timing-function: step-end;
            stroke: blue;
            stroke-dashoffset: 0;
            stroke-width: 128;
          }
          to {
            stroke: black;
            stroke-width: 1024;
          }
        }
        #make-me-a-hanzi-animation-18 {
          animation: keyframes18 0.7488606770833334s both;
          animation-delay: 11.858398437500002s;
          animation-timing-function: linear;
        }
      
    </style>
    
      <path d="M 322 785 Q 309 789 281 790 Q 269 791 267 786 Q 261 779 272 766 Q 300 723 326 649 Q 332 627 347 613 Q 366 594 370 610 Q 370 614 371 619 L 368 644 Q 365 662 340 750 C 332 779 331 783 322 785 Z" fill="lightgray"></path>
    
      <path d="M 687 664 Q 687 660 689 655 Q 692 640 703 640 Q 721 643 753 696 Q 771 744 807 769 Q 825 782 811 798 Q 795 816 750 843 Q 735 852 661 837 Q 562 828 436 804 Q 372 792 322 785 C 292 781 311 742 340 750 Q 374 760 427 770 L 452 775 Q 501 785 567 793 L 609 798 Q 702 813 723 800 Q 729 796 724 776 Q 705 712 695 691 L 687 664 Z" fill="lightgray"></path>
    
      <path d="M 479 662 Q 479 663 480 665 Q 483 695 462 750 Q 459 756 457 763 Q 456 770 452 775 C 436 800 420 799 427 770 Q 433 746 438 697 Q 441 673 459 658 C 474 644 474 644 479 662 Z" fill="lightgray"></path>
    
      <path d="M 584 681 Q 585 685 588 689 Q 618 755 625 764 Q 635 774 627 782 Q 621 791 609 798 C 584 814 556 821 567 793 Q 579 769 556 676 C 549 647 573 653 584 681 Z" fill="lightgray"></path>
    
      <path d="M 371 619 Q 383 618 401 620 Q 564 648 687 664 C 717 668 724 682 695 691 Q 691 692 685 694 Q 672 697 584 681 L 556 676 Q 516 670 479 662 L 459 658 Q 411 654 368 644 C 339 637 341 620 371 619 Z" fill="lightgray"></path>
    
      <path d="M 335 391 Q 298 390 267 387 Q 242 386 255 401 Q 300 470 342 521 Q 354 536 352 542 Q 351 555 317 581 Q 304 591 288 589 Q 278 588 284 574 Q 296 541 238 436 Q 225 414 200 391 Q 184 378 186 368 Q 190 352 202 337 Q 212 328 222 334 Q 241 347 310 365 Q 313 366 316 365 C 346 369 365 392 335 391 Z" fill="lightgray"></path>
    
      <path d="M 399 292 Q 345 282 283 259 Q 267 252 277 266 Q 311 309 389 393 Q 414 426 439 444 Q 449 453 445 462 Q 436 480 407 498 Q 392 507 384 505 Q 375 502 376 488 Q 377 460 335 391 L 316 365 Q 226 256 208 244 Q 195 237 198 223 Q 199 211 222 194 Q 232 184 245 194 Q 302 239 405 276 C 433 286 428 298 399 292 Z" fill="lightgray"></path>
    
      <path d="M 405 276 Q 406 270 421 251 Q 428 245 437 250 Q 444 254 447 265 Q 450 293 409 336 Q 402 343 395 344 Q 391 345 389 338 Q 386 329 399 292 L 405 276 Z" fill="lightgray"></path>
    
      <path d="M 186 73 Q 202 42 217 5 Q 224 -11 238 -17 Q 248 -20 257 -10 Q 267 0 270 30 Q 271 61 200 118 Q 187 127 181 127 Q 175 126 171 113 Q 170 103 186 73 Z" fill="lightgray"></path>
    
      <path d="M 295 121 Q 331 64 343 62 Q 350 61 357 69 Q 364 79 363 103 Q 360 125 300 158 Q 290 162 284 162 Q 280 161 278 150 Q 279 141 295 121 Z" fill="lightgray"></path>
    
      <path d="M 395 171 Q 408 153 421 131 Q 428 121 440 118 Q 447 117 454 125 Q 458 135 458 157 Q 455 178 400 206 Q 390 210 384 210 Q 380 209 379 199 Q 380 190 395 171 Z" fill="lightgray"></path>
    
      <path d="M 543 445 Q 565 472 593 509 Q 606 531 618 540 Q 625 549 622 560 Q 618 570 596 588 Q 575 603 560 602 Q 545 601 551 584 Q 563 559 514 472 Q 490 432 457 388 Q 450 381 448 375 Q 445 366 456 369 Q 465 370 517 417 L 543 445 Z" fill="lightgray"></path>
    
      <path d="M 571 99 Q 575 370 578 389 Q 582 408 577 417 Q 573 433 543 445 C 516 458 503 444 517 417 Q 544 390 527 113 Q 523 82 514 44 Q 501 -10 534 -51 Q 544 -64 554 -52 Q 569 -28 571 78 L 571 99 Z" fill="lightgray"></path>
    
      <path d="M 700 560 Q 752 515 765 516 Q 774 517 777 528 Q 781 541 772 565 Q 763 586 694 599 Q 681 600 676 599 Q 672 595 674 585 Q 677 576 700 560 Z" fill="lightgray"></path>
    
      <path d="M 726 430 Q 853 463 856 465 Q 863 472 859 479 Q 852 488 829 493 Q 816 496 734 470 Q 656 452 622 446 Q 592 440 614 428 Q 642 413 687 420 L 726 430 Z" fill="lightgray"></path>
    
      <path d="M 749 314 Q 839 342 840 343 Q 847 349 843 355 Q 837 364 815 368 Q 794 371 749 352 L 702 336 Q 668 327 628 321 Q 601 314 622 303 Q 652 288 697 301 Q 698 301 702 301 L 749 314 Z" fill="lightgray"></path>
    
      <path d="M 747 210 Q 849 237 852 239 Q 858 245 854 251 Q 850 260 827 265 Q 800 271 747 246 L 702 233 Q 665 226 625 220 Q 598 216 618 203 Q 648 185 693 198 Q 696 199 703 199 L 747 210 Z" fill="lightgray"></path>
    
      <path d="M 745 125 Q 746 170 747 210 L 747 246 Q 748 282 749 314 L 749 352 Q 749 368 751 386 Q 758 405 726 430 C 703 449 676 448 687 420 Q 697 399 702 336 L 702 301 Q 702 273 702 233 L 703 199 Q 703 163 704 118 C 705 88 744 95 745 125 Z" fill="lightgray"></path>
    
      <path d="M 704 118 Q 641 111 571 99 C 544 94 545 94 571 78 Q 598 59 625 66 Q 712 90 918 90 Q 934 91 939 98 Q 943 108 929 120 Q 881 156 822 139 Q 789 135 745 125 L 704 118 Z" fill="lightgray"></path>
    
    
      <clipPath id="make-me-a-hanzi-clip-0">
        <path d="M 322 785 Q 309 789 281 790 Q 269 791 267 786 Q 261 779 272 766 Q 300 723 326 649 Q 332 627 347 613 Q 366 594 370 610 Q 370 614 371 619 L 368 644 Q 365 662 340 750 C 332 779 331 783 322 785 Z"></path>
      </clipPath>
      <path clip-path="url(#make-me-a-hanzi-clip-0)" d="M 276 780 L 304 762 L 321 732 L 359 614" fill="none" id="make-me-a-hanzi-animation-0" stroke-dasharray="320 640" stroke-linecap="round"></path>
    
      <clipPath id="make-me-a-hanzi-clip-1">
        <path d="M 687 664 Q 687 660 689 655 Q 692 640 703 640 Q 721 643 753 696 Q 771 744 807 769 Q 825 782 811 798 Q 795 816 750 843 Q 735 852 661 837 Q 562 828 436 804 Q 372 792 322 785 C 292 781 311 742 340 750 Q 374 760 427 770 L 452 775 Q 501 785 567 793 L 609 798 Q 702 813 723 800 Q 729 796 724 776 Q 705 712 695 691 L 687 664 Z"></path>
      </clipPath>
      <path clip-path="url(#make-me-a-hanzi-clip-1)" d="M 329 781 L 349 771 L 512 802 L 676 824 L 738 820 L 765 786 L 703 652" fill="none" id="make-me-a-hanzi-animation-1" stroke-dasharray="735 1470" stroke-linecap="round"></path>
    
      <clipPath id="make-me-a-hanzi-clip-2">
        <path d="M 479 662 Q 479 663 480 665 Q 483 695 462 750 Q 459 756 457 763 Q 456 770 452 775 C 436 800 420 799 427 770 Q 433 746 438 697 Q 441 673 459 658 C 474 644 474 644 479 662 Z"></path>
      </clipPath>
      <path clip-path="url(#make-me-a-hanzi-clip-2)" d="M 434 766 L 446 751 L 461 684 L 473 666" fill="none" id="make-me-a-hanzi-animation-2" stroke-dasharray="238 476" stroke-linecap="round"></path>
    
      <clipPath id="make-me-a-hanzi-clip-3">
        <path d="M 584 681 Q 585 685 588 689 Q 618 755 625 764 Q 635 774 627 782 Q 621 791 609 798 C 584 814 556 821 567 793 Q 579 769 556 676 C 549 647 573 653 584 681 Z"></path>
      </clipPath>
      <path clip-path="url(#make-me-a-hanzi-clip-3)" d="M 574 792 L 597 768 L 574 692 L 561 686" fill="none" id="make-me-a-hanzi-animation-3" stroke-dasharray="255 510" stroke-linecap="round"></path>
    
      <clipPath id="make-me-a-hanzi-clip-4">
        <path d="M 371 619 Q 383 618 401 620 Q 564 648 687 664 C 717 668 724 682 695 691 Q 691 692 685 694 Q 672 697 584 681 L 556 676 Q 516 670 479 662 L 459 658 Q 411 654 368 644 C 339 637 341 620 371 619 Z"></path>
      </clipPath>
      <path clip-path="url(#make-me-a-hanzi-clip-4)" d="M 378 626 L 384 633 L 675 678 L 688 686" fill="none" id="make-me-a-hanzi-animation-4" stroke-dasharray="447 894" stroke-linecap="round"></path>
    
      <clipPath id="make-me-a-hanzi-clip-5">
        <path d="M 335 391 Q 298 390 267 387 Q 242 386 255 401 Q 300 470 342 521 Q 354 536 352 542 Q 351 555 317 581 Q 304 591 288 589 Q 278 588 284 574 Q 296 541 238 436 Q 225 414 200 391 Q 184 378 186 368 Q 190 352 202 337 Q 212 328 222 334 Q 241 347 310 365 Q 313 366 316 365 C 346 369 365 392 335 391 Z"></path>
      </clipPath>
      <path clip-path="url(#make-me-a-hanzi-clip-5)" d="M 295 579 L 316 540 L 231 395 L 225 372 L 238 368 L 296 373 L 328 390" fill="none" id="make-me-a-hanzi-animation-5" stroke-dasharray="472 944" stroke-linecap="round"></path>
    
      <clipPath id="make-me-a-hanzi-clip-6">
        <path d="M 399 292 Q 345 282 283 259 Q 267 252 277 266 Q 311 309 389 393 Q 414 426 439 444 Q 449 453 445 462 Q 436 480 407 498 Q 392 507 384 505 Q 375 502 376 488 Q 377 460 335 391 L 316 365 Q 226 256 208 244 Q 195 237 198 223 Q 199 211 222 194 Q 232 184 245 194 Q 302 239 405 276 C 433 286 428 298 399 292 Z"></path>
      </clipPath>
      <path clip-path="url(#make-me-a-hanzi-clip-6)" d="M 388 494 L 405 459 L 355 384 L 258 268 L 255 241 L 286 241 L 339 265 L 392 280 L 393 285" fill="none" id="make-me-a-hanzi-animation-6" stroke-dasharray="585 1170" stroke-linecap="round"></path>
    
      <clipPath id="make-me-a-hanzi-clip-7">
        <path d="M 405 276 Q 406 270 421 251 Q 428 245 437 250 Q 444 254 447 265 Q 450 293 409 336 Q 402 343 395 344 Q 391 345 389 338 Q 386 329 399 292 L 405 276 Z"></path>
      </clipPath>
      <path clip-path="url(#make-me-a-hanzi-clip-7)" d="M 396 337 L 430 261" fill="none" id="make-me-a-hanzi-animation-7" stroke-dasharray="211 422" stroke-linecap="round"></path>
    
      <clipPath id="make-me-a-hanzi-clip-8">
        <path d="M 186 73 Q 202 42 217 5 Q 224 -11 238 -17 Q 248 -20 257 -10 Q 267 0 270 30 Q 271 61 200 118 Q 187 127 181 127 Q 175 126 171 113 Q 170 103 186 73 Z"></path>
      </clipPath>
      <path clip-path="url(#make-me-a-hanzi-clip-8)" d="M 183 119 L 237 37 L 242 0" fill="none" id="make-me-a-hanzi-animation-8" stroke-dasharray="264 528" stroke-linecap="round"></path>
    
      <clipPath id="make-me-a-hanzi-clip-9">
        <path d="M 295 121 Q 331 64 343 62 Q 350 61 357 69 Q 364 79 363 103 Q 360 125 300 158 Q 290 162 284 162 Q 280 161 278 150 Q 279 141 295 121 Z"></path>
      </clipPath>
      <path clip-path="url(#make-me-a-hanzi-clip-9)" d="M 286 153 L 338 101 L 346 74" fill="none" id="make-me-a-hanzi-animation-9" stroke-dasharray="230 460" stroke-linecap="round"></path>
    
      <clipPath id="make-me-a-hanzi-clip-10">
        <path d="M 395 171 Q 408 153 421 131 Q 428 121 440 118 Q 447 117 454 125 Q 458 135 458 157 Q 455 178 400 206 Q 390 210 384 210 Q 380 209 379 199 Q 380 190 395 171 Z"></path>
      </clipPath>
      <path clip-path="url(#make-me-a-hanzi-clip-10)" d="M 386 202 L 433 156 L 441 133" fill="none" id="make-me-a-hanzi-animation-10" stroke-dasharray="218 436" stroke-linecap="round"></path>
    
      <clipPath id="make-me-a-hanzi-clip-11">
        <path d="M 543 445 Q 565 472 593 509 Q 606 531 618 540 Q 625 549 622 560 Q 618 570 596 588 Q 575 603 560 602 Q 545 601 551 584 Q 563 559 514 472 Q 490 432 457 388 Q 450 381 448 375 Q 445 366 456 369 Q 465 370 517 417 L 543 445 Z"></path>
      </clipPath>
      <path clip-path="url(#make-me-a-hanzi-clip-11)" d="M 559 591 L 577 572 L 585 554 L 582 547 L 499 417 L 456 377" fill="none" id="make-me-a-hanzi-animation-11" stroke-dasharray="394 788" stroke-linecap="round"></path>
    
      <clipPath id="make-me-a-hanzi-clip-12">
        <path d="M 571 99 Q 575 370 578 389 Q 582 408 577 417 Q 573 433 543 445 C 516 458 503 444 517 417 Q 544 390 527 113 Q 523 82 514 44 Q 501 -10 534 -51 Q 544 -64 554 -52 Q 569 -28 571 78 L 571 99 Z"></path>
      </clipPath>
      <path clip-path="url(#make-me-a-hanzi-clip-12)" d="M 524 420 L 548 413 L 553 397 L 553 166 L 539 20 L 544 -47" fill="none" id="make-me-a-hanzi-animation-12" stroke-dasharray="615 1230" stroke-linecap="round"></path>
    
      <clipPath id="make-me-a-hanzi-clip-13">
        <path d="M 700 560 Q 752 515 765 516 Q 774 517 777 528 Q 781 541 772 565 Q 763 586 694 599 Q 681 600 676 599 Q 672 595 674 585 Q 677 576 700 560 Z"></path>
      </clipPath>
      <path clip-path="url(#make-me-a-hanzi-clip-13)" d="M 680 591 L 747 555 L 764 528" fill="none" id="make-me-a-hanzi-animation-13" stroke-dasharray="236 472" stroke-linecap="round"></path>
    
      <clipPath id="make-me-a-hanzi-clip-14">
        <path d="M 726 430 Q 853 463 856 465 Q 863 472 859 479 Q 852 488 829 493 Q 816 496 734 470 Q 656 452 622 446 Q 592 440 614 428 Q 642 413 687 420 L 726 430 Z"></path>
      </clipPath>
      <path clip-path="url(#make-me-a-hanzi-clip-14)" d="M 615 438 L 676 437 L 822 475 L 852 473" fill="none" id="make-me-a-hanzi-animation-14" stroke-dasharray="370 740" stroke-linecap="round"></path>
    
      <clipPath id="make-me-a-hanzi-clip-15">
        <path d="M 749 314 Q 839 342 840 343 Q 847 349 843 355 Q 837 364 815 368 Q 794 371 749 352 L 702 336 Q 668 327 628 321 Q 601 314 622 303 Q 652 288 697 301 Q 698 301 702 301 L 749 314 Z"></path>
      </clipPath>
      <path clip-path="url(#make-me-a-hanzi-clip-15)" d="M 623 313 L 670 312 L 758 333 L 792 348 L 835 351" fill="none" id="make-me-a-hanzi-animation-15" stroke-dasharray="346 692" stroke-linecap="round"></path>
    
      <clipPath id="make-me-a-hanzi-clip-16">
        <path d="M 747 210 Q 849 237 852 239 Q 858 245 854 251 Q 850 260 827 265 Q 800 271 747 246 L 702 233 Q 665 226 625 220 Q 598 216 618 203 Q 648 185 693 198 Q 696 199 703 199 L 747 210 Z"></path>
      </clipPath>
      <path clip-path="url(#make-me-a-hanzi-clip-16)" d="M 619 212 L 666 209 L 757 228 L 792 243 L 848 246" fill="none" id="make-me-a-hanzi-animation-16" stroke-dasharray="362 724" stroke-linecap="round"></path>
    
      <clipPath id="make-me-a-hanzi-clip-17">
        <path d="M 745 125 Q 746 170 747 210 L 747 246 Q 748 282 749 314 L 749 352 Q 749 368 751 386 Q 758 405 726 430 C 703 449 676 448 687 420 Q 697 399 702 336 L 702 301 Q 702 273 702 233 L 703 199 Q 703 163 704 118 C 705 88 744 95 745 125 Z"></path>
      </clipPath>
      <path clip-path="url(#make-me-a-hanzi-clip-17)" d="M 694 418 L 724 393 L 725 148 L 710 125" fill="none" id="make-me-a-hanzi-animation-17" stroke-dasharray="440 880" stroke-linecap="round"></path>
    
      <clipPath id="make-me-a-hanzi-clip-18">
        <path d="M 704 118 Q 641 111 571 99 C 544 94 545 94 571 78 Q 598 59 625 66 Q 712 90 918 90 Q 934 91 939 98 Q 943 108 929 120 Q 881 156 822 139 Q 789 135 745 125 L 704 118 Z"></path>
      </clipPath>
      <path clip-path="url(#make-me-a-hanzi-clip-18)" d="M 580 94 L 587 86 L 607 84 L 862 117 L 930 103" fill="none" id="make-me-a-hanzi-animation-18" stroke-dasharray="485 970" stroke-linecap="round"></path>
    
  </g>
</svg>