<svg version="1.1" viewBox="0 0 1024 1024" xmlns="http://www.w3.org/2000/svg">
  <g stroke="lightgray" stroke-dasharray="1,1" stroke-width="1" transform="scale(4, 4)">
    <line x1="0" y1="0" x2="256" y2="256"></line>
    <line x1="256" y1="0" x2="0" y2="256"></line>
    <line x1="128" y1="0" x2="128" y2="256"></line>
    <line x1="0" y1="128" x2="256" y2="128"></line>
  </g>
  <g transform="scale(1, -1) translate(0, -900)">
    <style type="text/css">
      
        @keyframes keyframes0 {
          from {
            stroke: blue;
            stroke-dashoffset: 533;
            stroke-width: 128;
          }
          63% {
            animation-timing-function: step-end;
            stroke: blue;
            stroke-dashoffset: 0;
            stroke-width: 128;
          }
          to {
            stroke: black;
            stroke-width: 1024;
          }
        }
        #make-me-a-hanzi-animation-0 {
          animation: keyframes0 0.6837565104166666s both;
          animation-delay: 0s;
          animation-timing-function: linear;
        }
      
        @keyframes keyframes1 {
          from {
            stroke: blue;
            stroke-dashoffset: 496;
            stroke-width: 128;
          }
          62% {
            animation-timing-function: step-end;
            stroke: blue;
            stroke-dashoffset: 0;
            stroke-width: 128;
          }
          to {
            stroke: black;
            stroke-width: 1024;
          }
        }
        #make-me-a-hanzi-animation-1 {
          animation: keyframes1 0.6536458333333334s both;
          animation-delay: 0.6837565104166666s;
          animation-timing-function: linear;
        }
      
        @keyframes keyframes2 {
          from {
            stroke: blue;
            stroke-dashoffset: 645;
            stroke-width: 128;
          }
          68% {
            animation-timing-function: step-end;
            stroke: blue;
            stroke-dashoffset: 0;
            stroke-width: 128;
          }
          to {
            stroke: black;
            stroke-width: 1024;
          }
        }
        #make-me-a-hanzi-animation-2 {
          animation: keyframes2 0.77490234375s both;
          animation-delay: 1.33740234375s;
          animation-timing-function: linear;
        }
      
        @keyframes keyframes3 {
          from {
            stroke: blue;
            stroke-dashoffset: 1092;
            stroke-width: 128;
          }
          78% {
            animation-timing-function: step-end;
            stroke: blue;
            stroke-dashoffset: 0;
            stroke-width: 128;
          }
          to {
            stroke: black;
            stroke-width: 1024;
          }
        }
        #make-me-a-hanzi-animation-3 {
          animation: keyframes3 1.138671875s both;
          animation-delay: 2.1123046875s;
          animation-timing-function: linear;
        }
      
        @keyframes keyframes4 {
          from {
            stroke: blue;
            stroke-dashoffset: 608;
            stroke-width: 128;
          }
          66% {
            animation-timing-function: step-end;
            stroke: blue;
            stroke-dashoffset: 0;
            stroke-width: 128;
          }
          to {
            stroke: black;
            stroke-width: 1024;
          }
        }
        #make-me-a-hanzi-animation-4 {
          animation: keyframes4 0.7447916666666666s both;
          animation-delay: 3.2509765625s;
          animation-timing-function: linear;
        }
      
        @keyframes keyframes5 {
          from {
            stroke: blue;
            stroke-dashoffset: 343;
            stroke-width: 128;
          }
          53% {
            animation-timing-function: step-end;
            stroke: blue;
            stroke-dashoffset: 0;
            stroke-width: 128;
          }
          to {
            stroke: black;
            stroke-width: 1024;
          }
        }
        #make-me-a-hanzi-animation-5 {
          animation: keyframes5 0.5291341145833334s both;
          animation-delay: 3.9957682291666665s;
          animation-timing-function: linear;
        }
      
        @keyframes keyframes6 {
          from {
            stroke: blue;
            stroke-dashoffset: 359;
            stroke-width: 128;
          }
          54% {
            animation-timing-function: step-end;
            stroke: blue;
            stroke-dashoffset: 0;
            stroke-width: 128;
          }
          to {
            stroke: black;
            stroke-width: 1024;
          }
        }
        #make-me-a-hanzi-animation-6 {
          animation: keyframes6 0.5421549479166666s both;
          animation-delay: 4.52490234375s;
          animation-timing-function: linear;
        }
      
        @keyframes keyframes7 {
          from {
            stroke: blue;
            stroke-dashoffset: 398;
            stroke-width: 128;
          }
          56% {
            animation-timing-function: step-end;
            stroke: blue;
            stroke-dashoffset: 0;
            stroke-width: 128;
          }
          to {
            stroke: black;
            stroke-width: 1024;
          }
        }
        #make-me-a-hanzi-animation-7 {
          animation: keyframes7 0.5738932291666666s both;
          animation-delay: 5.067057291666667s;
          animation-timing-function: linear;
        }
      
        @keyframes keyframes8 {
          from {
            stroke: blue;
            stroke-dashoffset: 633;
            stroke-width: 128;
          }
          67% {
            animation-timing-function: step-end;
            stroke: blue;
            stroke-dashoffset: 0;
            stroke-width: 128;
          }
          to {
            stroke: black;
            stroke-width: 1024;
          }
        }
        #make-me-a-hanzi-animation-8 {
          animation: keyframes8 0.76513671875s both;
          animation-delay: 5.640950520833334s;
          animation-timing-function: linear;
        }
      
        @keyframes keyframes9 {
          from {
            stroke: blue;
            stroke-dashoffset: 742;
            stroke-width: 128;
          }
          71% {
            animation-timing-function: step-end;
            stroke: blue;
            stroke-dashoffset: 0;
            stroke-width: 128;
          }
          to {
            stroke: black;
            stroke-width: 1024;
          }
        }
        #make-me-a-hanzi-animation-9 {
          animation: keyframes9 0.8538411458333334s both;
          animation-delay: 6.406087239583334s;
          animation-timing-function: linear;
        }
      
        @keyframes keyframes10 {
          from {
            stroke: blue;
            stroke-dashoffset: 502;
            stroke-width: 128;
          }
          62% {
            animation-timing-function: step-end;
            stroke: blue;
            stroke-dashoffset: 0;
            stroke-width: 128;
          }
          to {
            stroke: black;
            stroke-width: 1024;
          }
        }
        #make-me-a-hanzi-animation-10 {
          animation: keyframes10 0.6585286458333334s both;
          animation-delay: 7.259928385416667s;
          animation-timing-function: linear;
        }
      
        @keyframes keyframes11 {
          from {
            stroke: blue;
            stroke-dashoffset: 596;
            stroke-width: 128;
          }
          66% {
            animation-timing-function: step-end;
            stroke: blue;
            stroke-dashoffset: 0;
            stroke-width: 128;
          }
          to {
            stroke: black;
            stroke-width: 1024;
          }
        }
        #make-me-a-hanzi-animation-11 {
          animation: keyframes11 0.7350260416666666s both;
          animation-delay: 7.91845703125s;
          animation-timing-function: linear;
        }
      
        @keyframes keyframes12 {
          from {
            stroke: blue;
            stroke-dashoffset: 821;
            stroke-width: 128;
          }
          73% {
            animation-timing-function: step-end;
            stroke: blue;
            stroke-dashoffset: 0;
            stroke-width: 128;
          }
          to {
            stroke: black;
            stroke-width: 1024;
          }
        }
        #make-me-a-hanzi-animation-12 {
          animation: keyframes12 0.9181315104166666s both;
          animation-delay: 8.653483072916666s;
          animation-timing-function: linear;
        }
      
        @keyframes keyframes13 {
          from {
            stroke: blue;
            stroke-dashoffset: 707;
            stroke-width: 128;
          }
          70% {
            animation-timing-function: step-end;
            stroke: blue;
            stroke-dashoffset: 0;
            stroke-width: 128;
          }
          to {
            stroke: black;
            stroke-width: 1024;
          }
        }
        #make-me-a-hanzi-animation-13 {
          animation: keyframes13 0.8253580729166666s both;
          animation-delay: 9.571614583333332s;
          animation-timing-function: linear;
        }
      
        @keyframes keyframes14 {
          from {
            stroke: blue;
            stroke-dashoffset: 763;
            stroke-width: 128;
          }
          71% {
            animation-timing-function: step-end;
            stroke: blue;
            stroke-dashoffset: 0;
            stroke-width: 128;
          }
          to {
            stroke: black;
            stroke-width: 1024;
          }
        }
        #make-me-a-hanzi-animation-14 {
          animation: keyframes14 0.8709309895833334s both;
          animation-delay: 10.396972656249998s;
          animation-timing-function: linear;
        }
      
    </style>
    
      <path d="M 359 618 Q 455 648 456 649 Q 465 656 460 665 Q 453 675 424 681 Q 394 684 363 671 L 314 653 Q 250 635 187 625 Q 153 618 178 602 Q 218 584 284 600 Q 297 603 315 607 L 359 618 Z" fill="lightgray"></path>
    
      <path d="M 356 495 Q 378 502 405 509 Q 433 518 437 522 Q 444 529 440 538 Q 433 548 405 552 Q 380 556 357 545 L 315 528 Q 219 504 201 499 Q 168 490 194 477 Q 234 458 283 475 Q 296 479 314 483 L 356 495 Z" fill="lightgray"></path>
    
      <path d="M 354 383 Q 405 395 466 404 Q 482 407 482 414 Q 483 426 465 434 Q 440 444 418 439 Q 382 430 354 422 L 311 411 Q 170 380 96 369 Q 83 368 81 360 Q 78 350 93 339 Q 132 315 169 328 Q 239 353 289 367 L 354 383 Z" fill="lightgray"></path>
    
      <path d="M 353 348 Q 353 366 354 383 L 354 422 Q 354 456 356 495 L 357 545 Q 357 591 359 618 L 363 671 Q 367 708 377 738 Q 386 753 383 766 Q 376 776 322 809 Q 300 825 279 811 Q 275 807 281 791 Q 312 740 314 653 L 315 607 Q 315 568 315 528 L 314 483 Q 313 449 311 411 L 308 293 Q 308 185 282 97 Q 272 60 296 -2 Q 303 -20 311 -23 Q 317 -30 324 -21 Q 351 -5 351 58 Q 350 94 352 316 L 353 348 Z" fill="lightgray"></path>
    
      <path d="M 289 367 Q 244 250 118 128 Q 105 116 90 102 Q 80 90 88 89 Q 97 85 107 91 Q 215 140 308 293 C 366 387 300 395 289 367 Z" fill="lightgray"></path>
    
      <path d="M 352 316 Q 395 265 413 262 Q 423 261 429 275 Q 430 285 424 301 Q 408 331 353 348 C 324 357 333 339 352 316 Z" fill="lightgray"></path>
    
      <path d="M 528 672 Q 573 627 585 626 Q 592 626 597 637 Q 601 647 595 671 Q 588 692 525 709 Q 513 713 508 711 Q 504 707 505 698 Q 506 689 528 672 Z" fill="lightgray"></path>
    
      <path d="M 782 732 Q 761 707 720 667 Q 716 661 719 655 Q 725 654 731 656 Q 804 695 839 708 Q 854 711 851 720 Q 848 733 834 750 Q 821 766 803 770 Q 791 771 790 755 Q 791 745 782 732 Z" fill="lightgray"></path>
    
      <path d="M 681 558 Q 726 570 845 582 Q 855 581 865 594 Q 866 606 843 616 Q 813 637 731 613 Q 707 609 684 602 Q 680 601 677 600 L 642 593 Q 567 583 488 573 Q 460 569 482 552 Q 513 525 543 533 Q 571 540 606 545 L 681 558 Z" fill="lightgray"></path>
    
      <path d="M 677 600 Q 680 729 707 783 Q 713 792 702 805 Q 650 847 621 837 Q 608 833 614 818 Q 642 772 641 698 Q 642 641 642 593 L 639 508 Q 636 441 629 410 Q 628 395 634 379 Q 640 370 645 358 Q 655 343 669 351 Q 684 366 677 466 Q 677 497 675 529 L 677 600 Z" fill="lightgray"></path>
    
      <path d="M 606 545 Q 579 472 461 379 Q 446 367 460 366 Q 517 362 607 465 Q 608 468 611 469 Q 627 490 639 508 C 673 558 624 591 606 545 Z" fill="lightgray"></path>
    
      <path d="M 675 529 Q 721 462 775 400 Q 793 379 824 376 Q 882 369 944 376 Q 960 377 961 381 Q 962 387 951 392 Q 819 449 800 462 Q 779 472 681 558 C 658 578 653 561 675 529 Z" fill="lightgray"></path>
    
      <path d="M 669 69 Q 717 36 784 -22 Q 808 -43 825 -42 Q 844 -43 845 -24 Q 846 -5 820 39 Q 808 64 701 109 L 655 128 Q 615 144 587 152 Q 565 156 576 178 Q 589 209 599 230 L 618 271 Q 619 275 621 277 Q 628 301 639 316 Q 646 323 644 332 Q 638 345 601 369 Q 591 378 581 373 Q 568 370 576 355 Q 586 334 579 311 Q 573 287 567 265 L 554 224 Q 544 196 531 175 Q 522 159 525 146 Q 528 137 544 134 Q 607 115 627 95 L 669 69 Z" fill="lightgray"></path>
    
      <path d="M 627 95 Q 557 44 460 17 Q 442 8 463 6 Q 583 -1 669 69 L 701 109 Q 740 190 746 204 Q 746 213 757 242 C 767 270 773 287 767 292 Q 755 305 733 311 Q 714 321 695 316 Q 682 312 689 297 Q 693 290 695 281 L 698 240 Q 697 221 688 198 Q 679 159 655 128 L 627 95 Z" fill="lightgray"></path>
    
      <path d="M 757 242 Q 809 245 873 243 Q 892 242 910 242 Q 929 241 934 250 Q 940 260 924 274 Q 869 316 816 301 Q 794 298 767 292 L 695 281 Q 659 280 618 271 L 567 265 Q 498 258 424 249 Q 405 248 419 231 Q 432 218 449 212 Q 470 206 485 210 Q 516 219 554 224 L 599 230 Q 626 236 698 240 L 757 242 Z" fill="lightgray"></path>
    
    
      <clipPath id="make-me-a-hanzi-clip-0">
        <path d="M 359 618 Q 455 648 456 649 Q 465 656 460 665 Q 453 675 424 681 Q 394 684 363 671 L 314 653 Q 250 635 187 625 Q 153 618 178 602 Q 218 584 284 600 Q 297 603 315 607 L 359 618 Z"></path>
      </clipPath>
      <path clip-path="url(#make-me-a-hanzi-clip-0)" d="M 180 614 L 239 613 L 416 660 L 451 658" fill="none" id="make-me-a-hanzi-animation-0" stroke-dasharray="405 810" stroke-linecap="round"></path>
    
      <clipPath id="make-me-a-hanzi-clip-1">
        <path d="M 356 495 Q 378 502 405 509 Q 433 518 437 522 Q 444 529 440 538 Q 433 548 405 552 Q 380 556 357 545 L 315 528 Q 219 504 201 499 Q 168 490 194 477 Q 234 458 283 475 Q 296 479 314 483 L 356 495 Z"></path>
      </clipPath>
      <path clip-path="url(#make-me-a-hanzi-clip-1)" d="M 195 489 L 256 490 L 379 527 L 429 532" fill="none" id="make-me-a-hanzi-animation-1" stroke-dasharray="368 736" stroke-linecap="round"></path>
    
      <clipPath id="make-me-a-hanzi-clip-2">
        <path d="M 354 383 Q 405 395 466 404 Q 482 407 482 414 Q 483 426 465 434 Q 440 444 418 439 Q 382 430 354 422 L 311 411 Q 170 380 96 369 Q 83 368 81 360 Q 78 350 93 339 Q 132 315 169 328 Q 239 353 289 367 L 354 383 Z"></path>
      </clipPath>
      <path clip-path="url(#make-me-a-hanzi-clip-2)" d="M 92 356 L 123 349 L 155 352 L 416 418 L 472 417" fill="none" id="make-me-a-hanzi-animation-2" stroke-dasharray="517 1034" stroke-linecap="round"></path>
    
      <clipPath id="make-me-a-hanzi-clip-3">
        <path d="M 353 348 Q 353 366 354 383 L 354 422 Q 354 456 356 495 L 357 545 Q 357 591 359 618 L 363 671 Q 367 708 377 738 Q 386 753 383 766 Q 376 776 322 809 Q 300 825 279 811 Q 275 807 281 791 Q 312 740 314 653 L 315 607 Q 315 568 315 528 L 314 483 Q 313 449 311 411 L 308 293 Q 308 185 282 97 Q 272 60 296 -2 Q 303 -20 311 -23 Q 317 -30 324 -21 Q 351 -5 351 58 Q 350 94 352 316 L 353 348 Z"></path>
      </clipPath>
      <path clip-path="url(#make-me-a-hanzi-clip-3)" d="M 290 805 L 318 781 L 340 751 L 331 255 L 315 85 L 316 -10" fill="none" id="make-me-a-hanzi-animation-3" stroke-dasharray="964 1928" stroke-linecap="round"></path>
    
      <clipPath id="make-me-a-hanzi-clip-4">
        <path d="M 289 367 Q 244 250 118 128 Q 105 116 90 102 Q 80 90 88 89 Q 97 85 107 91 Q 215 140 308 293 C 366 387 300 395 289 367 Z"></path>
      </clipPath>
      <path clip-path="url(#make-me-a-hanzi-clip-4)" d="M 306 364 L 297 357 L 283 297 L 222 210 L 161 145 L 94 95" fill="none" id="make-me-a-hanzi-animation-4" stroke-dasharray="480 960" stroke-linecap="round"></path>
    
      <clipPath id="make-me-a-hanzi-clip-5">
        <path d="M 352 316 Q 395 265 413 262 Q 423 261 429 275 Q 430 285 424 301 Q 408 331 353 348 C 324 357 333 339 352 316 Z"></path>
      </clipPath>
      <path clip-path="url(#make-me-a-hanzi-clip-5)" d="M 361 342 L 372 320 L 403 294 L 414 275" fill="none" id="make-me-a-hanzi-animation-5" stroke-dasharray="215 430" stroke-linecap="round"></path>
    
      <clipPath id="make-me-a-hanzi-clip-6">
        <path d="M 528 672 Q 573 627 585 626 Q 592 626 597 637 Q 601 647 595 671 Q 588 692 525 709 Q 513 713 508 711 Q 504 707 505 698 Q 506 689 528 672 Z"></path>
      </clipPath>
      <path clip-path="url(#make-me-a-hanzi-clip-6)" d="M 512 703 L 572 663 L 585 635" fill="none" id="make-me-a-hanzi-animation-6" stroke-dasharray="231 462" stroke-linecap="round"></path>
    
      <clipPath id="make-me-a-hanzi-clip-7">
        <path d="M 782 732 Q 761 707 720 667 Q 716 661 719 655 Q 725 654 731 656 Q 804 695 839 708 Q 854 711 851 720 Q 848 733 834 750 Q 821 766 803 770 Q 791 771 790 755 Q 791 745 782 732 Z"></path>
      </clipPath>
      <path clip-path="url(#make-me-a-hanzi-clip-7)" d="M 802 758 L 813 729 L 725 661" fill="none" id="make-me-a-hanzi-animation-7" stroke-dasharray="270 540" stroke-linecap="round"></path>
    
      <clipPath id="make-me-a-hanzi-clip-8">
        <path d="M 681 558 Q 726 570 845 582 Q 855 581 865 594 Q 866 606 843 616 Q 813 637 731 613 Q 707 609 684 602 Q 680 601 677 600 L 642 593 Q 567 583 488 573 Q 460 569 482 552 Q 513 525 543 533 Q 571 540 606 545 L 681 558 Z"></path>
      </clipPath>
      <path clip-path="url(#make-me-a-hanzi-clip-8)" d="M 483 563 L 524 554 L 765 598 L 823 602 L 854 596" fill="none" id="make-me-a-hanzi-animation-8" stroke-dasharray="505 1010" stroke-linecap="round"></path>
    
      <clipPath id="make-me-a-hanzi-clip-9">
        <path d="M 677 600 Q 680 729 707 783 Q 713 792 702 805 Q 650 847 621 837 Q 608 833 614 818 Q 642 772 641 698 Q 642 641 642 593 L 639 508 Q 636 441 629 410 Q 628 395 634 379 Q 640 370 645 358 Q 655 343 669 351 Q 684 366 677 466 Q 677 497 675 529 L 677 600 Z"></path>
      </clipPath>
      <path clip-path="url(#make-me-a-hanzi-clip-9)" d="M 624 825 L 643 814 L 668 785 L 654 404 L 661 360" fill="none" id="make-me-a-hanzi-animation-9" stroke-dasharray="614 1228" stroke-linecap="round"></path>
    
      <clipPath id="make-me-a-hanzi-clip-10">
        <path d="M 606 545 Q 579 472 461 379 Q 446 367 460 366 Q 517 362 607 465 Q 608 468 611 469 Q 627 490 639 508 C 673 558 624 591 606 545 Z"></path>
      </clipPath>
      <path clip-path="url(#make-me-a-hanzi-clip-10)" d="M 636 544 L 586 469 L 559 440 L 501 391 L 465 372" fill="none" id="make-me-a-hanzi-animation-10" stroke-dasharray="374 748" stroke-linecap="round"></path>
    
      <clipPath id="make-me-a-hanzi-clip-11">
        <path d="M 675 529 Q 721 462 775 400 Q 793 379 824 376 Q 882 369 944 376 Q 960 377 961 381 Q 962 387 951 392 Q 819 449 800 462 Q 779 472 681 558 C 658 578 653 561 675 529 Z"></path>
      </clipPath>
      <path clip-path="url(#make-me-a-hanzi-clip-11)" d="M 680 550 L 688 547 L 690 530 L 730 487 L 809 417 L 862 400 L 955 385" fill="none" id="make-me-a-hanzi-animation-11" stroke-dasharray="468 936" stroke-linecap="round"></path>
    
      <clipPath id="make-me-a-hanzi-clip-12">
        <path d="M 669 69 Q 717 36 784 -22 Q 808 -43 825 -42 Q 844 -43 845 -24 Q 846 -5 820 39 Q 808 64 701 109 L 655 128 Q 615 144 587 152 Q 565 156 576 178 Q 589 209 599 230 L 618 271 Q 619 275 621 277 Q 628 301 639 316 Q 646 323 644 332 Q 638 345 601 369 Q 591 378 581 373 Q 568 370 576 355 Q 586 334 579 311 Q 573 287 567 265 L 554 224 Q 544 196 531 175 Q 522 159 525 146 Q 528 137 544 134 Q 607 115 627 95 L 669 69 Z"></path>
      </clipPath>
      <path clip-path="url(#make-me-a-hanzi-clip-12)" d="M 583 363 L 599 349 L 611 326 L 549 158 L 559 147 L 626 120 L 739 58 L 788 22 L 828 -25" fill="none" id="make-me-a-hanzi-animation-12" stroke-dasharray="693 1386" stroke-linecap="round"></path>
    
      <clipPath id="make-me-a-hanzi-clip-13">
        <path d="M 627 95 Q 557 44 460 17 Q 442 8 463 6 Q 583 -1 669 69 L 701 109 Q 740 190 746 204 Q 746 213 757 242 C 767 270 773 287 767 292 Q 755 305 733 311 Q 714 321 695 316 Q 682 312 689 297 Q 693 290 695 281 L 698 240 Q 697 221 688 198 Q 679 159 655 128 L 627 95 Z"></path>
      </clipPath>
      <path clip-path="url(#make-me-a-hanzi-clip-13)" d="M 698 305 L 718 291 L 729 277 L 729 267 L 718 205 L 686 129 L 648 83 L 601 51 L 534 25 L 470 14" fill="none" id="make-me-a-hanzi-animation-13" stroke-dasharray="579 1158" stroke-linecap="round"></path>
    
      <clipPath id="make-me-a-hanzi-clip-14">
        <path d="M 757 242 Q 809 245 873 243 Q 892 242 910 242 Q 929 241 934 250 Q 940 260 924 274 Q 869 316 816 301 Q 794 298 767 292 L 695 281 Q 659 280 618 271 L 567 265 Q 498 258 424 249 Q 405 248 419 231 Q 432 218 449 212 Q 470 206 485 210 Q 516 219 554 224 L 599 230 Q 626 236 698 240 L 757 242 Z"></path>
      </clipPath>
      <path clip-path="url(#make-me-a-hanzi-clip-14)" d="M 422 240 L 476 232 L 660 259 L 840 275 L 889 268 L 923 256" fill="none" id="make-me-a-hanzi-animation-14" stroke-dasharray="635 1270" stroke-linecap="round"></path>
    
  </g>
</svg>