<svg version="1.1" viewBox="0 0 1024 1024" xmlns="http://www.w3.org/2000/svg">
  <g stroke="lightgray" stroke-dasharray="1,1" stroke-width="1" transform="scale(4, 4)">
    <line x1="0" y1="0" x2="256" y2="256"></line>
    <line x1="256" y1="0" x2="0" y2="256"></line>
    <line x1="128" y1="0" x2="128" y2="256"></line>
    <line x1="0" y1="128" x2="256" y2="128"></line>
  </g>
  <g transform="scale(1, -1) translate(0, -900)">
    <style type="text/css">
      
        @keyframes keyframes0 {
          from {
            stroke: blue;
            stroke-dashoffset: 554;
            stroke-width: 128;
          }
          64% {
            animation-timing-function: step-end;
            stroke: blue;
            stroke-dashoffset: 0;
            stroke-width: 128;
          }
          to {
            stroke: black;
            stroke-width: 1024;
          }
        }
        #make-me-a-hanzi-animation-0 {
          animation: keyframes0 0.7008463541666666s both;
          animation-delay: 0s;
          animation-timing-function: linear;
        }
      
        @keyframes keyframes1 {
          from {
            stroke: blue;
            stroke-dashoffset: 506;
            stroke-width: 128;
          }
          62% {
            animation-timing-function: step-end;
            stroke: blue;
            stroke-dashoffset: 0;
            stroke-width: 128;
          }
          to {
            stroke: black;
            stroke-width: 1024;
          }
        }
        #make-me-a-hanzi-animation-1 {
          animation: keyframes1 0.6617838541666666s both;
          animation-delay: 0.7008463541666666s;
          animation-timing-function: linear;
        }
      
        @keyframes keyframes2 {
          from {
            stroke: blue;
            stroke-dashoffset: 589;
            stroke-width: 128;
          }
          66% {
            animation-timing-function: step-end;
            stroke: blue;
            stroke-dashoffset: 0;
            stroke-width: 128;
          }
          to {
            stroke: black;
            stroke-width: 1024;
          }
        }
        #make-me-a-hanzi-animation-2 {
          animation: keyframes2 0.7293294270833334s both;
          animation-delay: 1.3626302083333333s;
          animation-timing-function: linear;
        }
      
        @keyframes keyframes3 {
          from {
            stroke: blue;
            stroke-dashoffset: 1148;
            stroke-width: 128;
          }
          79% {
            animation-timing-function: step-end;
            stroke: blue;
            stroke-dashoffset: 0;
            stroke-width: 128;
          }
          to {
            stroke: black;
            stroke-width: 1024;
          }
        }
        #make-me-a-hanzi-animation-3 {
          animation: keyframes3 1.1842447916666667s both;
          animation-delay: 2.0919596354166665s;
          animation-timing-function: linear;
        }
      
        @keyframes keyframes4 {
          from {
            stroke: blue;
            stroke-dashoffset: 621;
            stroke-width: 128;
          }
          67% {
            animation-timing-function: step-end;
            stroke: blue;
            stroke-dashoffset: 0;
            stroke-width: 128;
          }
          to {
            stroke: black;
            stroke-width: 1024;
          }
        }
        #make-me-a-hanzi-animation-4 {
          animation: keyframes4 0.75537109375s both;
          animation-delay: 3.276204427083333s;
          animation-timing-function: linear;
        }
      
        @keyframes keyframes5 {
          from {
            stroke: blue;
            stroke-dashoffset: 362;
            stroke-width: 128;
          }
          54% {
            animation-timing-function: step-end;
            stroke: blue;
            stroke-dashoffset: 0;
            stroke-width: 128;
          }
          to {
            stroke: black;
            stroke-width: 1024;
          }
        }
        #make-me-a-hanzi-animation-5 {
          animation: keyframes5 0.5445963541666666s both;
          animation-delay: 4.031575520833333s;
          animation-timing-function: linear;
        }
      
        @keyframes keyframes6 {
          from {
            stroke: blue;
            stroke-dashoffset: 383;
            stroke-width: 128;
          }
          55% {
            animation-timing-function: step-end;
            stroke: blue;
            stroke-dashoffset: 0;
            stroke-width: 128;
          }
          to {
            stroke: black;
            stroke-width: 1024;
          }
        }
        #make-me-a-hanzi-animation-6 {
          animation: keyframes6 0.5616861979166666s both;
          animation-delay: 4.576171875s;
          animation-timing-function: linear;
        }
      
        @keyframes keyframes7 {
          from {
            stroke: blue;
            stroke-dashoffset: 547;
            stroke-width: 128;
          }
          64% {
            animation-timing-function: step-end;
            stroke: blue;
            stroke-dashoffset: 0;
            stroke-width: 128;
          }
          to {
            stroke: black;
            stroke-width: 1024;
          }
        }
        #make-me-a-hanzi-animation-7 {
          animation: keyframes7 0.6951497395833334s both;
          animation-delay: 5.137858072916667s;
          animation-timing-function: linear;
        }
      
        @keyframes keyframes8 {
          from {
            stroke: blue;
            stroke-dashoffset: 340;
            stroke-width: 128;
          }
          53% {
            animation-timing-function: step-end;
            stroke: blue;
            stroke-dashoffset: 0;
            stroke-width: 128;
          }
          to {
            stroke: black;
            stroke-width: 1024;
          }
        }
        #make-me-a-hanzi-animation-8 {
          animation: keyframes8 0.5266927083333334s both;
          animation-delay: 5.8330078125s;
          animation-timing-function: linear;
        }
      
        @keyframes keyframes9 {
          from {
            stroke: blue;
            stroke-dashoffset: 411;
            stroke-width: 128;
          }
          57% {
            animation-timing-function: step-end;
            stroke: blue;
            stroke-dashoffset: 0;
            stroke-width: 128;
          }
          to {
            stroke: black;
            stroke-width: 1024;
          }
        }
        #make-me-a-hanzi-animation-9 {
          animation: keyframes9 0.58447265625s both;
          animation-delay: 6.359700520833333s;
          animation-timing-function: linear;
        }
      
        @keyframes keyframes10 {
          from {
            stroke: blue;
            stroke-dashoffset: 411;
            stroke-width: 128;
          }
          57% {
            animation-timing-function: step-end;
            stroke: blue;
            stroke-dashoffset: 0;
            stroke-width: 128;
          }
          to {
            stroke: black;
            stroke-width: 1024;
          }
        }
        #make-me-a-hanzi-animation-10 {
          animation: keyframes10 0.58447265625s both;
          animation-delay: 6.944173177083333s;
          animation-timing-function: linear;
        }
      
        @keyframes keyframes11 {
          from {
            stroke: blue;
            stroke-dashoffset: 752;
            stroke-width: 128;
          }
          71% {
            animation-timing-function: step-end;
            stroke: blue;
            stroke-dashoffset: 0;
            stroke-width: 128;
          }
          to {
            stroke: black;
            stroke-width: 1024;
          }
        }
        #make-me-a-hanzi-animation-11 {
          animation: keyframes11 0.8619791666666666s both;
          animation-delay: 7.528645833333333s;
          animation-timing-function: linear;
        }
      
        @keyframes keyframes12 {
          from {
            stroke: blue;
            stroke-dashoffset: 361;
            stroke-width: 128;
          }
          54% {
            animation-timing-function: step-end;
            stroke: blue;
            stroke-dashoffset: 0;
            stroke-width: 128;
          }
          to {
            stroke: black;
            stroke-width: 1024;
          }
        }
        #make-me-a-hanzi-animation-12 {
          animation: keyframes12 0.5437825520833334s both;
          animation-delay: 8.390625s;
          animation-timing-function: linear;
        }
      
        @keyframes keyframes13 {
          from {
            stroke: blue;
            stroke-dashoffset: 703;
            stroke-width: 128;
          }
          70% {
            animation-timing-function: step-end;
            stroke: blue;
            stroke-dashoffset: 0;
            stroke-width: 128;
          }
          to {
            stroke: black;
            stroke-width: 1024;
          }
        }
        #make-me-a-hanzi-animation-13 {
          animation: keyframes13 0.8221028645833334s both;
          animation-delay: 8.934407552083334s;
          animation-timing-function: linear;
        }
      
        @keyframes keyframes14 {
          from {
            stroke: blue;
            stroke-dashoffset: 717;
            stroke-width: 128;
          }
          70% {
            animation-timing-function: step-end;
            stroke: blue;
            stroke-dashoffset: 0;
            stroke-width: 128;
          }
          to {
            stroke: black;
            stroke-width: 1024;
          }
        }
        #make-me-a-hanzi-animation-14 {
          animation: keyframes14 0.83349609375s both;
          animation-delay: 9.756510416666668s;
          animation-timing-function: linear;
        }
      
        @keyframes keyframes15 {
          from {
            stroke: blue;
            stroke-dashoffset: 658;
            stroke-width: 128;
          }
          68% {
            animation-timing-function: step-end;
            stroke: blue;
            stroke-dashoffset: 0;
            stroke-width: 128;
          }
          to {
            stroke: black;
            stroke-width: 1024;
          }
        }
        #make-me-a-hanzi-animation-15 {
          animation: keyframes15 0.7854817708333334s both;
          animation-delay: 10.590006510416668s;
          animation-timing-function: linear;
        }
      
    </style>
    
      <path d="M 340 611 Q 449 647 453 649 Q 460 656 456 665 Q 449 675 419 681 Q 382 684 343 662 L 300 646 Q 287 643 276 638 Q 225 623 166 613 Q 132 604 158 590 Q 203 572 256 588 Q 275 595 300 600 L 340 611 Z" fill="lightgray"></path>
    
      <path d="M 337 489 Q 365 498 398 505 Q 428 514 432 518 Q 439 525 435 533 Q 428 543 401 549 Q 383 552 338 537 L 300 523 Q 191 499 186 498 Q 153 491 178 477 Q 212 461 277 475 Q 286 478 298 479 L 337 489 Z" fill="lightgray"></path>
    
      <path d="M 334 368 Q 365 378 408 387 Q 423 391 423 398 Q 423 411 405 417 Q 375 427 335 411 L 295 398 Q 145 353 93 345 Q 81 344 79 335 Q 78 325 92 316 Q 128 295 184 316 Q 232 337 270 348 L 334 368 Z" fill="lightgray"></path>
    
      <path d="M 333 310 Q 333 338 334 368 L 335 411 Q 335 448 337 489 L 338 537 Q 338 573 340 611 L 343 662 Q 347 722 361 766 Q 370 781 367 794 Q 360 804 306 837 Q 284 853 263 839 Q 259 835 264 819 Q 300 767 300 714 Q 300 681 300 646 L 300 600 Q 300 563 300 523 L 298 479 Q 297 440 295 398 L 292 296 Q 286 146 263 69 Q 251 33 276 -30 Q 283 -48 290 -51 Q 297 -58 304 -49 Q 331 -33 331 30 Q 330 67 332 279 L 333 310 Z" fill="lightgray"></path>
    
      <path d="M 270 348 Q 212 237 60 68 Q 54 59 64 58 Q 70 57 79 64 Q 208 154 292 296 C 335 367 286 379 270 348 Z" fill="lightgray"></path>
    
      <path d="M 332 279 Q 386 213 410 210 Q 423 209 429 225 Q 430 237 423 256 Q 413 275 388 286 Q 352 305 333 310 C 304 318 313 302 332 279 Z" fill="lightgray"></path>
    
      <path d="M 619 777 Q 644 758 670 733 Q 683 721 698 723 Q 708 724 713 736 Q 717 751 707 779 Q 701 797 673 808 Q 604 829 592 823 Q 588 819 589 807 Q 593 797 619 777 Z" fill="lightgray"></path>
    
      <path d="M 750 659 Q 762 663 777 666 Q 814 676 820 682 Q 827 689 823 697 Q 816 707 789 713 Q 764 717 670 683 Q 574 659 535 654 Q 501 647 526 633 Q 568 612 616 627 Q 667 640 720 652 L 750 659 Z" fill="lightgray"></path>
    
      <path d="M 554 568 Q 578 526 598 513 Q 608 509 616 517 Q 623 526 623 538 Q 622 556 610 567 Q 579 598 554 598 Q 551 599 550 598 Q 546 598 545 588 Q 545 581 554 568 Z" fill="lightgray"></path>
    
      <path d="M 719 519 Q 738 546 760 580 Q 767 592 779 607 Q 792 617 785 626 Q 778 641 752 658 Q 751 659 750 659 C 724 674 706 679 720 652 Q 721 651 722 649 Q 731 622 697 534 Q 691 522 689 512 C 682 483 702 494 719 519 Z" fill="lightgray"></path>
    
      <path d="M 507 473 Q 494 500 476 510 Q 473 514 467 510 Q 463 507 462 496 Q 468 472 440 405 Q 431 389 433 372 Q 436 354 445 341 Q 452 331 457 339 Q 469 342 483 386 Q 496 428 503 443 C 512 463 512 463 507 473 Z" fill="lightgray"></path>
    
      <path d="M 503 443 Q 525 434 571 449 Q 718 500 814 508 Q 818 509 823 508 Q 839 499 838 492 Q 825 450 811 407 L 813 405 Q 820 401 834 413 Q 880 450 922 465 Q 955 478 954 487 Q 953 496 885 539 Q 866 552 844 547 Q 795 537 734 522 Q 727 521 719 519 L 689 512 Q 638 505 573 487 Q 539 480 507 473 C 478 467 474 449 503 443 Z" fill="lightgray"></path>
    
      <path d="M 622 398 Q 665 355 680 353 Q 689 354 693 365 Q 697 377 690 401 Q 684 422 618 438 Q 605 441 600 439 Q 596 435 597 425 Q 600 415 622 398 Z" fill="lightgray"></path>
    
      <path d="M 668 294 Q 713 304 897 321 Q 913 322 917 330 Q 921 340 906 352 Q 855 383 802 364 Q 657 328 469 288 Q 451 284 466 271 Q 479 261 494 257 Q 513 253 526 259 Q 572 275 625 286 L 668 294 Z" fill="lightgray"></path>
    
      <path d="M 663 216 Q 675 209 715 201 Q 757 195 750 148 Q 749 142 747 134 Q 731 73 706 37 Q 694 25 673 27 Q 663 30 637 41 Q 603 56 598 50 Q 594 41 610 30 Q 650 -1 663 -40 Q 667 -56 679 -61 Q 692 -67 723 -46 Q 769 -7 793 93 Q 805 144 822 156 Q 832 160 835 169 Q 836 178 814 202 Q 784 232 731 232 Q 707 235 683 243 C 654 252 635 227 663 216 Z" fill="lightgray"></path>
    
      <path d="M 683 243 Q 695 261 696 264 Q 693 282 668 294 C 642 309 626 316 625 286 Q 629 222 525 104 Q 521 101 516 95 Q 483 61 401 -6 Q 394 -10 403 -13 Q 475 0 572 101 Q 599 129 663 216 L 683 243 Z" fill="lightgray"></path>
    
    
      <clipPath id="make-me-a-hanzi-clip-0">
        <path d="M 340 611 Q 449 647 453 649 Q 460 656 456 665 Q 449 675 419 681 Q 382 684 343 662 L 300 646 Q 287 643 276 638 Q 225 623 166 613 Q 132 604 158 590 Q 203 572 256 588 Q 275 595 300 600 L 340 611 Z"></path>
      </clipPath>
      <path clip-path="url(#make-me-a-hanzi-clip-0)" d="M 159 602 L 230 603 L 399 657 L 449 656" fill="none" id="make-me-a-hanzi-animation-0" stroke-dasharray="426 852" stroke-linecap="round"></path>
    
      <clipPath id="make-me-a-hanzi-clip-1">
        <path d="M 337 489 Q 365 498 398 505 Q 428 514 432 518 Q 439 525 435 533 Q 428 543 401 549 Q 383 552 338 537 L 300 523 Q 191 499 186 498 Q 153 491 178 477 Q 212 461 277 475 Q 286 478 298 479 L 337 489 Z"></path>
      </clipPath>
      <path clip-path="url(#make-me-a-hanzi-clip-1)" d="M 179 489 L 234 488 L 380 525 L 424 527" fill="none" id="make-me-a-hanzi-animation-1" stroke-dasharray="378 756" stroke-linecap="round"></path>
    
      <clipPath id="make-me-a-hanzi-clip-2">
        <path d="M 334 368 Q 365 378 408 387 Q 423 391 423 398 Q 423 411 405 417 Q 375 427 335 411 L 295 398 Q 145 353 93 345 Q 81 344 79 335 Q 78 325 92 316 Q 128 295 184 316 Q 232 337 270 348 L 334 368 Z"></path>
      </clipPath>
      <path clip-path="url(#make-me-a-hanzi-clip-2)" d="M 90 333 L 139 329 L 362 398 L 412 400" fill="none" id="make-me-a-hanzi-animation-2" stroke-dasharray="461 922" stroke-linecap="round"></path>
    
      <clipPath id="make-me-a-hanzi-clip-3">
        <path d="M 333 310 Q 333 338 334 368 L 335 411 Q 335 448 337 489 L 338 537 Q 338 573 340 611 L 343 662 Q 347 722 361 766 Q 370 781 367 794 Q 360 804 306 837 Q 284 853 263 839 Q 259 835 264 819 Q 300 767 300 714 Q 300 681 300 646 L 300 600 Q 300 563 300 523 L 298 479 Q 297 440 295 398 L 292 296 Q 286 146 263 69 Q 251 33 276 -30 Q 283 -48 290 -51 Q 297 -58 304 -49 Q 331 -33 331 30 Q 330 67 332 279 L 333 310 Z"></path>
      </clipPath>
      <path clip-path="url(#make-me-a-hanzi-clip-3)" d="M 274 833 L 316 793 L 327 769 L 312 241 L 295 46 L 295 -38" fill="none" id="make-me-a-hanzi-animation-3" stroke-dasharray="1020 2040" stroke-linecap="round"></path>
    
      <clipPath id="make-me-a-hanzi-clip-4">
        <path d="M 270 348 Q 212 237 60 68 Q 54 59 64 58 Q 70 57 79 64 Q 208 154 292 296 C 335 367 286 379 270 348 Z"></path>
      </clipPath>
      <path clip-path="url(#make-me-a-hanzi-clip-4)" d="M 290 348 L 280 338 L 261 287 L 207 210 L 136 129 L 66 65" fill="none" id="make-me-a-hanzi-animation-4" stroke-dasharray="493 986" stroke-linecap="round"></path>
    
      <clipPath id="make-me-a-hanzi-clip-5">
        <path d="M 332 279 Q 386 213 410 210 Q 423 209 429 225 Q 430 237 423 256 Q 413 275 388 286 Q 352 305 333 310 C 304 318 313 302 332 279 Z"></path>
      </clipPath>
      <path clip-path="url(#make-me-a-hanzi-clip-5)" d="M 336 302 L 348 286 L 392 253 L 411 228" fill="none" id="make-me-a-hanzi-animation-5" stroke-dasharray="234 468" stroke-linecap="round"></path>
    
      <clipPath id="make-me-a-hanzi-clip-6">
        <path d="M 619 777 Q 644 758 670 733 Q 683 721 698 723 Q 708 724 713 736 Q 717 751 707 779 Q 701 797 673 808 Q 604 829 592 823 Q 588 819 589 807 Q 593 797 619 777 Z"></path>
      </clipPath>
      <path clip-path="url(#make-me-a-hanzi-clip-6)" d="M 596 817 L 668 777 L 695 741" fill="none" id="make-me-a-hanzi-animation-6" stroke-dasharray="255 510" stroke-linecap="round"></path>
    
      <clipPath id="make-me-a-hanzi-clip-7">
        <path d="M 750 659 Q 762 663 777 666 Q 814 676 820 682 Q 827 689 823 697 Q 816 707 789 713 Q 764 717 670 683 Q 574 659 535 654 Q 501 647 526 633 Q 568 612 616 627 Q 667 640 720 652 L 750 659 Z"></path>
      </clipPath>
      <path clip-path="url(#make-me-a-hanzi-clip-7)" d="M 528 645 L 538 640 L 590 642 L 759 687 L 812 691" fill="none" id="make-me-a-hanzi-animation-7" stroke-dasharray="419 838" stroke-linecap="round"></path>
    
      <clipPath id="make-me-a-hanzi-clip-8">
        <path d="M 554 568 Q 578 526 598 513 Q 608 509 616 517 Q 623 526 623 538 Q 622 556 610 567 Q 579 598 554 598 Q 551 599 550 598 Q 546 598 545 588 Q 545 581 554 568 Z"></path>
      </clipPath>
      <path clip-path="url(#make-me-a-hanzi-clip-8)" d="M 552 591 L 589 556 L 604 527" fill="none" id="make-me-a-hanzi-animation-8" stroke-dasharray="212 424" stroke-linecap="round"></path>
    
      <clipPath id="make-me-a-hanzi-clip-9">
        <path d="M 719 519 Q 738 546 760 580 Q 767 592 779 607 Q 792 617 785 626 Q 778 641 752 658 Q 751 659 750 659 C 724 674 706 679 720 652 Q 721 651 722 649 Q 731 622 697 534 Q 691 522 689 512 C 682 483 702 494 719 519 Z"></path>
      </clipPath>
      <path clip-path="url(#make-me-a-hanzi-clip-9)" d="M 731 647 L 747 635 L 752 620 L 712 532 L 696 516" fill="none" id="make-me-a-hanzi-animation-9" stroke-dasharray="283 566" stroke-linecap="round"></path>
    
      <clipPath id="make-me-a-hanzi-clip-10">
        <path d="M 507 473 Q 494 500 476 510 Q 473 514 467 510 Q 463 507 462 496 Q 468 472 440 405 Q 431 389 433 372 Q 436 354 445 341 Q 452 331 457 339 Q 469 342 483 386 Q 496 428 503 443 C 512 463 512 463 507 473 Z"></path>
      </clipPath>
      <path clip-path="url(#make-me-a-hanzi-clip-10)" d="M 472 501 L 484 468 L 459 390 L 453 352" fill="none" id="make-me-a-hanzi-animation-10" stroke-dasharray="283 566" stroke-linecap="round"></path>
    
      <clipPath id="make-me-a-hanzi-clip-11">
        <path d="M 503 443 Q 525 434 571 449 Q 718 500 814 508 Q 818 509 823 508 Q 839 499 838 492 Q 825 450 811 407 L 813 405 Q 820 401 834 413 Q 880 450 922 465 Q 955 478 954 487 Q 953 496 885 539 Q 866 552 844 547 Q 795 537 734 522 Q 727 521 719 519 L 689 512 Q 638 505 573 487 Q 539 480 507 473 C 478 467 474 449 503 443 Z"></path>
      </clipPath>
      <path clip-path="url(#make-me-a-hanzi-clip-11)" d="M 510 450 L 523 458 L 658 493 L 829 526 L 859 518 L 880 493 L 817 411" fill="none" id="make-me-a-hanzi-animation-11" stroke-dasharray="624 1248" stroke-linecap="round"></path>
    
      <clipPath id="make-me-a-hanzi-clip-12">
        <path d="M 622 398 Q 665 355 680 353 Q 689 354 693 365 Q 697 377 690 401 Q 684 422 618 438 Q 605 441 600 439 Q 596 435 597 425 Q 600 415 622 398 Z"></path>
      </clipPath>
      <path clip-path="url(#make-me-a-hanzi-clip-12)" d="M 604 431 L 666 392 L 680 364" fill="none" id="make-me-a-hanzi-animation-12" stroke-dasharray="233 466" stroke-linecap="round"></path>
    
      <clipPath id="make-me-a-hanzi-clip-13">
        <path d="M 668 294 Q 713 304 897 321 Q 913 322 917 330 Q 921 340 906 352 Q 855 383 802 364 Q 657 328 469 288 Q 451 284 466 271 Q 479 261 494 257 Q 513 253 526 259 Q 572 275 625 286 L 668 294 Z"></path>
      </clipPath>
      <path clip-path="url(#make-me-a-hanzi-clip-13)" d="M 468 279 L 510 276 L 673 315 L 829 343 L 907 335" fill="none" id="make-me-a-hanzi-animation-13" stroke-dasharray="575 1150" stroke-linecap="round"></path>
    
      <clipPath id="make-me-a-hanzi-clip-14">
        <path d="M 663 216 Q 675 209 715 201 Q 757 195 750 148 Q 749 142 747 134 Q 731 73 706 37 Q 694 25 673 27 Q 663 30 637 41 Q 603 56 598 50 Q 594 41 610 30 Q 650 -1 663 -40 Q 667 -56 679 -61 Q 692 -67 723 -46 Q 769 -7 793 93 Q 805 144 822 156 Q 832 160 835 169 Q 836 178 814 202 Q 784 232 731 232 Q 707 235 683 243 C 654 252 635 227 663 216 Z"></path>
      </clipPath>
      <path clip-path="url(#make-me-a-hanzi-clip-14)" d="M 669 219 L 689 224 L 739 214 L 773 195 L 788 175 L 752 57 L 732 17 L 697 -13 L 603 46" fill="none" id="make-me-a-hanzi-animation-14" stroke-dasharray="589 1178" stroke-linecap="round"></path>
    
      <clipPath id="make-me-a-hanzi-clip-15">
        <path d="M 683 243 Q 695 261 696 264 Q 693 282 668 294 C 642 309 626 316 625 286 Q 629 222 525 104 Q 521 101 516 95 Q 483 61 401 -6 Q 394 -10 403 -13 Q 475 0 572 101 Q 599 129 663 216 L 683 243 Z"></path>
      </clipPath>
      <path clip-path="url(#make-me-a-hanzi-clip-15)" d="M 633 281 L 654 257 L 627 205 L 581 140 L 498 54 L 439 10 L 410 -1 L 408 -8" fill="none" id="make-me-a-hanzi-animation-15" stroke-dasharray="530 1060" stroke-linecap="round"></path>
    
  </g>
</svg>