<svg version="1.1" viewBox="0 0 1024 1024" xmlns="http://www.w3.org/2000/svg">
  <g stroke="lightgray" stroke-dasharray="1,1" stroke-width="1" transform="scale(4, 4)">
    <line x1="0" y1="0" x2="256" y2="256"></line>
    <line x1="256" y1="0" x2="0" y2="256"></line>
    <line x1="128" y1="0" x2="128" y2="256"></line>
    <line x1="0" y1="128" x2="256" y2="128"></line>
  </g>
  <g transform="scale(1, -1) translate(0, -900)">
    <style type="text/css">
      
        @keyframes keyframes0 {
          from {
            stroke: blue;
            stroke-dashoffset: 984;
            stroke-width: 128;
          }
          76% {
            animation-timing-function: step-end;
            stroke: blue;
            stroke-dashoffset: 0;
            stroke-width: 128;
          }
          to {
            stroke: black;
            stroke-width: 1024;
          }
        }
        #make-me-a-hanzi-animation-0 {
          animation: keyframes0 1.05078125s both;
          animation-delay: 0s;
          animation-timing-function: linear;
        }
      
        @keyframes keyframes1 {
          from {
            stroke: blue;
            stroke-dashoffset: 1190;
            stroke-width: 128;
          }
          79% {
            animation-timing-function: step-end;
            stroke: blue;
            stroke-dashoffset: 0;
            stroke-width: 128;
          }
          to {
            stroke: black;
            stroke-width: 1024;
          }
        }
        #make-me-a-hanzi-animation-1 {
          animation: keyframes1 1.2184244791666667s both;
          animation-delay: 1.05078125s;
          animation-timing-function: linear;
        }
      
        @keyframes keyframes2 {
          from {
            stroke: blue;
            stroke-dashoffset: 370;
            stroke-width: 128;
          }
          55% {
            animation-timing-function: step-end;
            stroke: blue;
            stroke-dashoffset: 0;
            stroke-width: 128;
          }
          to {
            stroke: black;
            stroke-width: 1024;
          }
        }
        #make-me-a-hanzi-animation-2 {
          animation: keyframes2 0.5511067708333334s both;
          animation-delay: 2.269205729166667s;
          animation-timing-function: linear;
        }
      
        @keyframes keyframes3 {
          from {
            stroke: blue;
            stroke-dashoffset: 388;
            stroke-width: 128;
          }
          56% {
            animation-timing-function: step-end;
            stroke: blue;
            stroke-dashoffset: 0;
            stroke-width: 128;
          }
          to {
            stroke: black;
            stroke-width: 1024;
          }
        }
        #make-me-a-hanzi-animation-3 {
          animation: keyframes3 0.5657552083333334s both;
          animation-delay: 2.8203125000000004s;
          animation-timing-function: linear;
        }
      
        @keyframes keyframes4 {
          from {
            stroke: blue;
            stroke-dashoffset: 647;
            stroke-width: 128;
          }
          68% {
            animation-timing-function: step-end;
            stroke: blue;
            stroke-dashoffset: 0;
            stroke-width: 128;
          }
          to {
            stroke: black;
            stroke-width: 1024;
          }
        }
        #make-me-a-hanzi-animation-4 {
          animation: keyframes4 0.7765299479166666s both;
          animation-delay: 3.386067708333334s;
          animation-timing-function: linear;
        }
      
        @keyframes keyframes5 {
          from {
            stroke: blue;
            stroke-dashoffset: 664;
            stroke-width: 128;
          }
          68% {
            animation-timing-function: step-end;
            stroke: blue;
            stroke-dashoffset: 0;
            stroke-width: 128;
          }
          to {
            stroke: black;
            stroke-width: 1024;
          }
        }
        #make-me-a-hanzi-animation-5 {
          animation: keyframes5 0.7903645833333334s both;
          animation-delay: 4.162597656250001s;
          animation-timing-function: linear;
        }
      
        @keyframes keyframes6 {
          from {
            stroke: blue;
            stroke-dashoffset: 792;
            stroke-width: 128;
          }
          72% {
            animation-timing-function: step-end;
            stroke: blue;
            stroke-dashoffset: 0;
            stroke-width: 128;
          }
          to {
            stroke: black;
            stroke-width: 1024;
          }
        }
        #make-me-a-hanzi-animation-6 {
          animation: keyframes6 0.89453125s both;
          animation-delay: 4.952962239583334s;
          animation-timing-function: linear;
        }
      
    </style>
    
      <path d="M 244 361 Q 253 433 259 486 L 261 519 Q 262 544 263 568 Q 263 652 268 669 C 272 697 272 697 266 701 Q 248 716 220 726 Q 201 735 189 729 Q 179 722 186 709 Q 204 682 210 629 Q 210 401 181 287 Q 150 175 80 50 Q 76 43 75 37 Q 74 27 83 30 Q 96 33 132 84 Q 201 174 237 332 L 244 361 Z" fill="lightgray"></path>
    
      <path d="M 268 669 Q 289 669 381 696 Q 400 702 407 691 Q 422 651 423 368 Q 420 140 408 122 Q 404 116 385 120 Q 360 129 332 137 Q 311 146 312 135 Q 366 80 395 39 Q 408 20 424 13 Q 434 9 443 19 Q 488 70 487 126 Q 477 303 475 591 Q 474 652 487 679 Q 500 698 487 710 Q 465 729 426 745 Q 407 752 391 744 Q 357 725 335 717 Q 310 708 266 701 C 236 696 238 664 268 669 Z" fill="lightgray"></path>
    
      <path d="M 259 486 Q 260 486 265 486 Q 322 498 364 505 Q 389 512 378 524 Q 365 539 338 540 Q 296 543 261 519 C 236 502 229 486 259 486 Z" fill="lightgray"></path>
    
      <path d="M 237 332 Q 241 332 363 350 Q 388 354 378 368 Q 365 383 339 386 Q 314 389 270 374 Q 255 368 244 361 C 218 345 207 329 237 332 Z" fill="lightgray"></path>
    
      <path d="M 746 755 Q 753 731 741 714 Q 678 612 548 500 Q 536 493 533 487 Q 529 477 542 477 Q 593 473 765 638 Q 781 665 818 686 Q 828 695 827 709 Q 826 722 802 749 Q 780 773 761 776 Q 742 777 746 755 Z" fill="lightgray"></path>
    
      <path d="M 791 533 Q 795 508 782 490 Q 739 433 682 384 Q 628 336 559 287 Q 546 280 543 275 Q 536 265 550 264 Q 604 260 779 397 Q 824 442 856 458 Q 868 465 867 479 Q 867 492 846 522 Q 827 547 808 552 Q 789 556 791 533 Z" fill="lightgray"></path>
    
      <path d="M 820 325 Q 823 250 675 112 Q 662 102 650 91 Q 602 52 487 -19 Q 477 -23 489 -29 Q 561 -29 692 63 Q 797 151 880 240 Q 892 253 900 258 Q 910 262 909 275 Q 909 285 898 301 Q 885 319 865 329 Q 843 341 830 340 Q 820 339 820 325 Z" fill="lightgray"></path>
    
    
      <clipPath id="make-me-a-hanzi-clip-0">
        <path d="M 244 361 Q 253 433 259 486 L 261 519 Q 262 544 263 568 Q 263 652 268 669 C 272 697 272 697 266 701 Q 248 716 220 726 Q 201 735 189 729 Q 179 722 186 709 Q 204 682 210 629 Q 210 401 181 287 Q 150 175 80 50 Q 76 43 75 37 Q 74 27 83 30 Q 96 33 132 84 Q 201 174 237 332 L 244 361 Z"></path>
      </clipPath>
      <path clip-path="url(#make-me-a-hanzi-clip-0)" d="M 197 718 L 234 683 L 237 650 L 235 515 L 222 373 L 206 293 L 169 185 L 124 98 L 83 38" fill="none" id="make-me-a-hanzi-animation-0" stroke-dasharray="856 1712" stroke-linecap="round"></path>
    
      <clipPath id="make-me-a-hanzi-clip-1">
        <path d="M 268 669 Q 289 669 381 696 Q 400 702 407 691 Q 422 651 423 368 Q 420 140 408 122 Q 404 116 385 120 Q 360 129 332 137 Q 311 146 312 135 Q 366 80 395 39 Q 408 20 424 13 Q 434 9 443 19 Q 488 70 487 126 Q 477 303 475 591 Q 474 652 487 679 Q 500 698 487 710 Q 465 729 426 745 Q 407 752 391 744 Q 357 725 335 717 Q 310 708 266 701 C 236 696 238 664 268 669 Z"></path>
      </clipPath>
      <path clip-path="url(#make-me-a-hanzi-clip-1)" d="M 271 675 L 281 686 L 404 722 L 434 708 L 449 689 L 447 111 L 433 84 L 416 80 L 322 132" fill="none" id="make-me-a-hanzi-animation-1" stroke-dasharray="1062 2124" stroke-linecap="round"></path>
    
      <clipPath id="make-me-a-hanzi-clip-2">
        <path d="M 259 486 Q 260 486 265 486 Q 322 498 364 505 Q 389 512 378 524 Q 365 539 338 540 Q 296 543 261 519 C 236 502 229 486 259 486 Z"></path>
      </clipPath>
      <path clip-path="url(#make-me-a-hanzi-clip-2)" d="M 262 491 L 290 513 L 328 520 L 368 517" fill="none" id="make-me-a-hanzi-animation-2" stroke-dasharray="242 484" stroke-linecap="round"></path>
    
      <clipPath id="make-me-a-hanzi-clip-3">
        <path d="M 237 332 Q 241 332 363 350 Q 388 354 378 368 Q 365 383 339 386 Q 314 389 270 374 Q 255 368 244 361 C 218 345 207 329 237 332 Z"></path>
      </clipPath>
      <path clip-path="url(#make-me-a-hanzi-clip-3)" d="M 242 339 L 256 350 L 299 362 L 333 366 L 368 361" fill="none" id="make-me-a-hanzi-animation-3" stroke-dasharray="260 520" stroke-linecap="round"></path>
    
      <clipPath id="make-me-a-hanzi-clip-4">
        <path d="M 746 755 Q 753 731 741 714 Q 678 612 548 500 Q 536 493 533 487 Q 529 477 542 477 Q 593 473 765 638 Q 781 665 818 686 Q 828 695 827 709 Q 826 722 802 749 Q 780 773 761 776 Q 742 777 746 755 Z"></path>
      </clipPath>
      <path clip-path="url(#make-me-a-hanzi-clip-4)" d="M 759 762 L 777 735 L 783 710 L 736 650 L 630 546 L 586 510 L 541 485" fill="none" id="make-me-a-hanzi-animation-4" stroke-dasharray="519 1038" stroke-linecap="round"></path>
    
      <clipPath id="make-me-a-hanzi-clip-5">
        <path d="M 791 533 Q 795 508 782 490 Q 739 433 682 384 Q 628 336 559 287 Q 546 280 543 275 Q 536 265 550 264 Q 604 260 779 397 Q 824 442 856 458 Q 868 465 867 479 Q 867 492 846 522 Q 827 547 808 552 Q 789 556 791 533 Z"></path>
      </clipPath>
      <path clip-path="url(#make-me-a-hanzi-clip-5)" d="M 803 539 L 820 510 L 824 485 L 801 460 L 699 365 L 613 303 L 551 272" fill="none" id="make-me-a-hanzi-animation-5" stroke-dasharray="536 1072" stroke-linecap="round"></path>
    
      <clipPath id="make-me-a-hanzi-clip-6">
        <path d="M 820 325 Q 823 250 675 112 Q 662 102 650 91 Q 602 52 487 -19 Q 477 -23 489 -29 Q 561 -29 692 63 Q 797 151 880 240 Q 892 253 900 258 Q 910 262 909 275 Q 909 285 898 301 Q 885 319 865 329 Q 843 341 830 340 Q 820 339 820 325 Z"></path>
      </clipPath>
      <path clip-path="url(#make-me-a-hanzi-clip-6)" d="M 832 328 L 858 280 L 773 171 L 707 107 L 636 51 L 562 6 L 494 -23" fill="none" id="make-me-a-hanzi-animation-6" stroke-dasharray="664 1328" stroke-linecap="round"></path>
    
  </g>
</svg>