<svg version="1.1" viewBox="0 0 1024 1024" xmlns="http://www.w3.org/2000/svg">
  <g stroke="lightgray" stroke-dasharray="1,1" stroke-width="1" transform="scale(4, 4)">
    <line x1="0" y1="0" x2="256" y2="256"></line>
    <line x1="256" y1="0" x2="0" y2="256"></line>
    <line x1="128" y1="0" x2="128" y2="256"></line>
    <line x1="0" y1="128" x2="256" y2="128"></line>
  </g>
  <g transform="scale(1, -1) translate(0, -900)">
    <style type="text/css">
      
        @keyframes keyframes0 {
          from {
            stroke: blue;
            stroke-dashoffset: 967;
            stroke-width: 128;
          }
          76% {
            animation-timing-function: step-end;
            stroke: blue;
            stroke-dashoffset: 0;
            stroke-width: 128;
          }
          to {
            stroke: black;
            stroke-width: 1024;
          }
        }
        #make-me-a-hanzi-animation-0 {
          animation: keyframes0 1.0369466145833333s both;
          animation-delay: 0s;
          animation-timing-function: linear;
        }
      
        @keyframes keyframes1 {
          from {
            stroke: blue;
            stroke-dashoffset: 1136;
            stroke-width: 128;
          }
          79% {
            animation-timing-function: step-end;
            stroke: blue;
            stroke-dashoffset: 0;
            stroke-width: 128;
          }
          to {
            stroke: black;
            stroke-width: 1024;
          }
        }
        #make-me-a-hanzi-animation-1 {
          animation: keyframes1 1.1744791666666667s both;
          animation-delay: 1.0369466145833333s;
          animation-timing-function: linear;
        }
      
        @keyframes keyframes2 {
          from {
            stroke: blue;
            stroke-dashoffset: 334;
            stroke-width: 128;
          }
          52% {
            animation-timing-function: step-end;
            stroke: blue;
            stroke-dashoffset: 0;
            stroke-width: 128;
          }
          to {
            stroke: black;
            stroke-width: 1024;
          }
        }
        #make-me-a-hanzi-animation-2 {
          animation: keyframes2 0.5218098958333334s both;
          animation-delay: 2.21142578125s;
          animation-timing-function: linear;
        }
      
        @keyframes keyframes3 {
          from {
            stroke: blue;
            stroke-dashoffset: 346;
            stroke-width: 128;
          }
          53% {
            animation-timing-function: step-end;
            stroke: blue;
            stroke-dashoffset: 0;
            stroke-width: 128;
          }
          to {
            stroke: black;
            stroke-width: 1024;
          }
        }
        #make-me-a-hanzi-animation-3 {
          animation: keyframes3 0.5315755208333334s both;
          animation-delay: 2.7332356770833335s;
          animation-timing-function: linear;
        }
      
        @keyframes keyframes4 {
          from {
            stroke: blue;
            stroke-dashoffset: 611;
            stroke-width: 128;
          }
          67% {
            animation-timing-function: step-end;
            stroke: blue;
            stroke-dashoffset: 0;
            stroke-width: 128;
          }
          to {
            stroke: black;
            stroke-width: 1024;
          }
        }
        #make-me-a-hanzi-animation-4 {
          animation: keyframes4 0.7472330729166666s both;
          animation-delay: 3.264811197916667s;
          animation-timing-function: linear;
        }
      
        @keyframes keyframes5 {
          from {
            stroke: blue;
            stroke-dashoffset: 426;
            stroke-width: 128;
          }
          58% {
            animation-timing-function: step-end;
            stroke: blue;
            stroke-dashoffset: 0;
            stroke-width: 128;
          }
          to {
            stroke: black;
            stroke-width: 1024;
          }
        }
        #make-me-a-hanzi-animation-5 {
          animation: keyframes5 0.5966796875s both;
          animation-delay: 4.012044270833334s;
          animation-timing-function: linear;
        }
      
        @keyframes keyframes6 {
          from {
            stroke: blue;
            stroke-dashoffset: 765;
            stroke-width: 128;
          }
          71% {
            animation-timing-function: step-end;
            stroke: blue;
            stroke-dashoffset: 0;
            stroke-width: 128;
          }
          to {
            stroke: black;
            stroke-width: 1024;
          }
        }
        #make-me-a-hanzi-animation-6 {
          animation: keyframes6 0.87255859375s both;
          animation-delay: 4.608723958333334s;
          animation-timing-function: linear;
        }
      
        @keyframes keyframes7 {
          from {
            stroke: blue;
            stroke-dashoffset: 741;
            stroke-width: 128;
          }
          71% {
            animation-timing-function: step-end;
            stroke: blue;
            stroke-dashoffset: 0;
            stroke-width: 128;
          }
          to {
            stroke: black;
            stroke-width: 1024;
          }
        }
        #make-me-a-hanzi-animation-7 {
          animation: keyframes7 0.85302734375s both;
          animation-delay: 5.481282552083334s;
          animation-timing-function: linear;
        }
      
        @keyframes keyframes8 {
          from {
            stroke: blue;
            stroke-dashoffset: 487;
            stroke-width: 128;
          }
          61% {
            animation-timing-function: step-end;
            stroke: blue;
            stroke-dashoffset: 0;
            stroke-width: 128;
          }
          to {
            stroke: black;
            stroke-width: 1024;
          }
        }
        #make-me-a-hanzi-animation-8 {
          animation: keyframes8 0.6463216145833334s both;
          animation-delay: 6.334309895833334s;
          animation-timing-function: linear;
        }
      
    </style>
    
      <path d="M 233 718 Q 217 730 192 737 Q 173 746 161 739 Q 151 732 159 719 Q 180 695 185 631 Q 185 619 187 604 Q 197 445 169 309 Q 144 198 79 74 Q 75 67 74 61 Q 73 51 83 54 Q 111 63 174 186 Q 186 216 198 248 Q 214 303 226 365 L 232 404 Q 238 459 240 514 L 240 552 Q 240 666 242 687 C 243 712 243 712 233 718 Z" fill="lightgray"></path>
    
      <path d="M 403 453 Q 399 654 415 685 Q 428 704 415 715 Q 394 734 357 749 Q 339 756 323 750 Q 298 735 282 730 Q 264 724 233 718 C 204 712 212 682 242 687 Q 260 687 312 704 Q 333 708 337 696 Q 356 645 350 276 Q 343 143 335 130 Q 329 123 308 129 Q 281 132 255 136 Q 236 140 237 131 Q 295 88 329 54 Q 344 35 359 31 Q 369 28 377 38 Q 411 89 412 159 Q 405 276 403 435 L 403 453 Z" fill="lightgray"></path>
    
      <path d="M 240 514 Q 280 521 312 525 Q 337 532 326 544 Q 313 559 286 561 Q 267 562 240 552 C 212 542 210 509 240 514 Z" fill="lightgray"></path>
    
      <path d="M 226 365 Q 275 374 311 377 Q 336 383 326 396 Q 313 411 286 413 Q 264 414 232 404 C 203 395 196 360 226 365 Z" fill="lightgray"></path>
    
      <path d="M 621 486 Q 625 564 630 636 L 631 666 Q 632 726 648 783 Q 651 793 631 808 Q 595 827 570 831 Q 554 834 546 825 Q 539 818 547 802 Q 568 775 569 756 Q 579 629 579 479 C 579 449 619 456 621 486 Z" fill="lightgray"></path>
    
      <path d="M 630 636 Q 666 632 769 660 Q 776 663 785 664 Q 803 670 806 673 Q 813 682 808 689 Q 801 699 771 704 Q 747 705 676 678 Q 655 672 631 666 C 602 659 600 638 630 636 Z" fill="lightgray"></path>
    
      <path d="M 609 443 Q 675 459 891 459 Q 910 460 916 468 Q 920 480 904 494 Q 850 531 814 523 Q 747 507 632 488 Q 625 488 621 486 L 579 479 Q 408 458 403 453 C 385 448 385 448 403 435 Q 434 407 473 416 Q 518 429 569 437 L 609 443 Z" fill="lightgray"></path>
    
      <path d="M 630 343 Q 631 386 635 407 Q 638 422 609 443 C 586 462 559 465 569 437 Q 593 394 568 129 Q 567 119 565 108 Q 564 83 560 71 Q 545 29 597 -37 Q 600 -40 604 -43 Q 616 -44 621 -30 Q 634 1 630 33 Q 630 78 629 322 L 630 343 Z" fill="lightgray"></path>
    
      <path d="M 629 322 Q 632 319 637 315 Q 706 278 791 219 Q 809 204 824 203 Q 831 204 836 215 Q 845 228 824 265 Q 800 319 632 343 L 630 343 C 602 346 607 342 629 322 Z" fill="lightgray"></path>
    
    
      <clipPath id="make-me-a-hanzi-clip-0">
        <path d="M 233 718 Q 217 730 192 737 Q 173 746 161 739 Q 151 732 159 719 Q 180 695 185 631 Q 185 619 187 604 Q 197 445 169 309 Q 144 198 79 74 Q 75 67 74 61 Q 73 51 83 54 Q 111 63 174 186 Q 186 216 198 248 Q 214 303 226 365 L 232 404 Q 238 459 240 514 L 240 552 Q 240 666 242 687 C 243 712 243 712 233 718 Z"></path>
      </clipPath>
      <path clip-path="url(#make-me-a-hanzi-clip-0)" d="M 168 728 L 202 702 L 210 679 L 215 492 L 209 414 L 191 303 L 153 184 L 109 99 L 82 62" fill="none" id="make-me-a-hanzi-animation-0" stroke-dasharray="839 1678" stroke-linecap="round"></path>
    
      <clipPath id="make-me-a-hanzi-clip-1">
        <path d="M 403 453 Q 399 654 415 685 Q 428 704 415 715 Q 394 734 357 749 Q 339 756 323 750 Q 298 735 282 730 Q 264 724 233 718 C 204 712 212 682 242 687 Q 260 687 312 704 Q 333 708 337 696 Q 356 645 350 276 Q 343 143 335 130 Q 329 123 308 129 Q 281 132 255 136 Q 236 140 237 131 Q 295 88 329 54 Q 344 35 359 31 Q 369 28 377 38 Q 411 89 412 159 Q 405 276 403 435 L 403 453 Z"></path>
      </clipPath>
      <path clip-path="url(#make-me-a-hanzi-clip-1)" d="M 241 715 L 254 705 L 334 728 L 364 712 L 375 698 L 379 466 L 378 191 L 368 111 L 355 90 L 246 129" fill="none" id="make-me-a-hanzi-animation-1" stroke-dasharray="1008 2016" stroke-linecap="round"></path>
    
      <clipPath id="make-me-a-hanzi-clip-2">
        <path d="M 240 514 Q 280 521 312 525 Q 337 532 326 544 Q 313 559 286 561 Q 267 562 240 552 C 212 542 210 509 240 514 Z"></path>
      </clipPath>
      <path clip-path="url(#make-me-a-hanzi-clip-2)" d="M 247 520 L 255 533 L 269 540 L 316 537" fill="none" id="make-me-a-hanzi-animation-2" stroke-dasharray="206 412" stroke-linecap="round"></path>
    
      <clipPath id="make-me-a-hanzi-clip-3">
        <path d="M 226 365 Q 275 374 311 377 Q 336 383 326 396 Q 313 411 286 413 Q 264 414 232 404 C 203 395 196 360 226 365 Z"></path>
      </clipPath>
      <path clip-path="url(#make-me-a-hanzi-clip-3)" d="M 233 371 L 258 391 L 290 394 L 315 389" fill="none" id="make-me-a-hanzi-animation-3" stroke-dasharray="218 436" stroke-linecap="round"></path>
    
      <clipPath id="make-me-a-hanzi-clip-4">
        <path d="M 621 486 Q 625 564 630 636 L 631 666 Q 632 726 648 783 Q 651 793 631 808 Q 595 827 570 831 Q 554 834 546 825 Q 539 818 547 802 Q 568 775 569 756 Q 579 629 579 479 C 579 449 619 456 621 486 Z"></path>
      </clipPath>
      <path clip-path="url(#make-me-a-hanzi-clip-4)" d="M 559 815 L 605 777 L 601 510 L 585 487" fill="none" id="make-me-a-hanzi-animation-4" stroke-dasharray="483 966" stroke-linecap="round"></path>
    
      <clipPath id="make-me-a-hanzi-clip-5">
        <path d="M 630 636 Q 666 632 769 660 Q 776 663 785 664 Q 803 670 806 673 Q 813 682 808 689 Q 801 699 771 704 Q 747 705 676 678 Q 655 672 631 666 C 602 659 600 638 630 636 Z"></path>
      </clipPath>
      <path clip-path="url(#make-me-a-hanzi-clip-5)" d="M 635 643 L 648 653 L 741 677 L 798 682" fill="none" id="make-me-a-hanzi-animation-5" stroke-dasharray="298 596" stroke-linecap="round"></path>
    
      <clipPath id="make-me-a-hanzi-clip-6">
        <path d="M 609 443 Q 675 459 891 459 Q 910 460 916 468 Q 920 480 904 494 Q 850 531 814 523 Q 747 507 632 488 Q 625 488 621 486 L 579 479 Q 408 458 403 453 C 385 448 385 448 403 435 Q 434 407 473 416 Q 518 429 569 437 L 609 443 Z"></path>
      </clipPath>
      <path clip-path="url(#make-me-a-hanzi-clip-6)" d="M 406 449 L 419 441 L 452 438 L 568 460 L 824 492 L 906 473" fill="none" id="make-me-a-hanzi-animation-6" stroke-dasharray="637 1274" stroke-linecap="round"></path>
    
      <clipPath id="make-me-a-hanzi-clip-7">
        <path d="M 630 343 Q 631 386 635 407 Q 638 422 609 443 C 586 462 559 465 569 437 Q 593 394 568 129 Q 567 119 565 108 Q 564 83 560 71 Q 545 29 597 -37 Q 600 -40 604 -43 Q 616 -44 621 -30 Q 634 1 630 33 Q 630 78 629 322 L 630 343 Z"></path>
      </clipPath>
      <path clip-path="url(#make-me-a-hanzi-clip-7)" d="M 576 437 L 603 416 L 606 407 L 606 285 L 593 47 L 607 -33" fill="none" id="make-me-a-hanzi-animation-7" stroke-dasharray="613 1226" stroke-linecap="round"></path>
    
      <clipPath id="make-me-a-hanzi-clip-8">
        <path d="M 629 322 Q 632 319 637 315 Q 706 278 791 219 Q 809 204 824 203 Q 831 204 836 215 Q 845 228 824 265 Q 800 319 632 343 L 630 343 C 602 346 607 342 629 322 Z"></path>
      </clipPath>
      <path clip-path="url(#make-me-a-hanzi-clip-8)" d="M 631 338 L 764 277 L 795 254 L 821 216" fill="none" id="make-me-a-hanzi-animation-8" stroke-dasharray="359 718" stroke-linecap="round"></path>
    
  </g>
</svg>