<svg version="1.1" viewBox="0 0 1024 1024" xmlns="http://www.w3.org/2000/svg">
  <g stroke="lightgray" stroke-dasharray="1,1" stroke-width="1" transform="scale(4, 4)">
    <line x1="0" y1="0" x2="256" y2="256"></line>
    <line x1="256" y1="0" x2="0" y2="256"></line>
    <line x1="128" y1="0" x2="128" y2="256"></line>
    <line x1="0" y1="128" x2="256" y2="128"></line>
  </g>
  <g transform="scale(1, -1) translate(0, -900)">
    <style type="text/css">
      
        @keyframes keyframes0 {
          from {
            stroke: blue;
            stroke-dashoffset: 930;
            stroke-width: 128;
          }
          75% {
            animation-timing-function: step-end;
            stroke: blue;
            stroke-dashoffset: 0;
            stroke-width: 128;
          }
          to {
            stroke: black;
            stroke-width: 1024;
          }
        }
        #make-me-a-hanzi-animation-0 {
          animation: keyframes0 1.0068359375s both;
          animation-delay: 0s;
          animation-timing-function: linear;
        }
      
        @keyframes keyframes1 {
          from {
            stroke: blue;
            stroke-dashoffset: 1119;
            stroke-width: 128;
          }
          78% {
            animation-timing-function: step-end;
            stroke: blue;
            stroke-dashoffset: 0;
            stroke-width: 128;
          }
          to {
            stroke: black;
            stroke-width: 1024;
          }
        }
        #make-me-a-hanzi-animation-1 {
          animation: keyframes1 1.16064453125s both;
          animation-delay: 1.0068359375s;
          animation-timing-function: linear;
        }
      
        @keyframes keyframes2 {
          from {
            stroke: blue;
            stroke-dashoffset: 339;
            stroke-width: 128;
          }
          52% {
            animation-timing-function: step-end;
            stroke: blue;
            stroke-dashoffset: 0;
            stroke-width: 128;
          }
          to {
            stroke: black;
            stroke-width: 1024;
          }
        }
        #make-me-a-hanzi-animation-2 {
          animation: keyframes2 0.52587890625s both;
          animation-delay: 2.16748046875s;
          animation-timing-function: linear;
        }
      
        @keyframes keyframes3 {
          from {
            stroke: blue;
            stroke-dashoffset: 360;
            stroke-width: 128;
          }
          54% {
            animation-timing-function: step-end;
            stroke: blue;
            stroke-dashoffset: 0;
            stroke-width: 128;
          }
          to {
            stroke: black;
            stroke-width: 1024;
          }
        }
        #make-me-a-hanzi-animation-3 {
          animation: keyframes3 0.54296875s both;
          animation-delay: 2.693359375s;
          animation-timing-function: linear;
        }
      
        @keyframes keyframes4 {
          from {
            stroke: blue;
            stroke-dashoffset: 396;
            stroke-width: 128;
          }
          56% {
            animation-timing-function: step-end;
            stroke: blue;
            stroke-dashoffset: 0;
            stroke-width: 128;
          }
          to {
            stroke: black;
            stroke-width: 1024;
          }
        }
        #make-me-a-hanzi-animation-4 {
          animation: keyframes4 0.572265625s both;
          animation-delay: 3.236328125s;
          animation-timing-function: linear;
        }
      
        @keyframes keyframes5 {
          from {
            stroke: blue;
            stroke-dashoffset: 641;
            stroke-width: 128;
          }
          68% {
            animation-timing-function: step-end;
            stroke: blue;
            stroke-dashoffset: 0;
            stroke-width: 128;
          }
          to {
            stroke: black;
            stroke-width: 1024;
          }
        }
        #make-me-a-hanzi-animation-5 {
          animation: keyframes5 0.7716471354166666s both;
          animation-delay: 3.80859375s;
          animation-timing-function: linear;
        }
      
        @keyframes keyframes6 {
          from {
            stroke: blue;
            stroke-dashoffset: 486;
            stroke-width: 128;
          }
          61% {
            animation-timing-function: step-end;
            stroke: blue;
            stroke-dashoffset: 0;
            stroke-width: 128;
          }
          to {
            stroke: black;
            stroke-width: 1024;
          }
        }
        #make-me-a-hanzi-animation-6 {
          animation: keyframes6 0.6455078125s both;
          animation-delay: 4.580240885416667s;
          animation-timing-function: linear;
        }
      
        @keyframes keyframes7 {
          from {
            stroke: blue;
            stroke-dashoffset: 431;
            stroke-width: 128;
          }
          58% {
            animation-timing-function: step-end;
            stroke: blue;
            stroke-dashoffset: 0;
            stroke-width: 128;
          }
          to {
            stroke: black;
            stroke-width: 1024;
          }
        }
        #make-me-a-hanzi-animation-7 {
          animation: keyframes7 0.6007486979166666s both;
          animation-delay: 5.225748697916667s;
          animation-timing-function: linear;
        }
      
        @keyframes keyframes8 {
          from {
            stroke: blue;
            stroke-dashoffset: 730;
            stroke-width: 128;
          }
          70% {
            animation-timing-function: step-end;
            stroke: blue;
            stroke-dashoffset: 0;
            stroke-width: 128;
          }
          to {
            stroke: black;
            stroke-width: 1024;
          }
        }
        #make-me-a-hanzi-animation-8 {
          animation: keyframes8 0.8440755208333334s both;
          animation-delay: 5.826497395833334s;
          animation-timing-function: linear;
        }
      
        @keyframes keyframes9 {
          from {
            stroke: blue;
            stroke-dashoffset: 817;
            stroke-width: 128;
          }
          73% {
            animation-timing-function: step-end;
            stroke: blue;
            stroke-dashoffset: 0;
            stroke-width: 128;
          }
          to {
            stroke: black;
            stroke-width: 1024;
          }
        }
        #make-me-a-hanzi-animation-9 {
          animation: keyframes9 0.9148763020833334s both;
          animation-delay: 6.670572916666667s;
          animation-timing-function: linear;
        }
      
    </style>
    
      <path d="M 211 364 Q 220 422 226 490 L 227 521 Q 227 620 231 668 C 233 691 233 691 220 698 Q 207 708 185 714 Q 167 721 157 716 Q 147 709 154 697 Q 172 679 178 604 Q 178 399 157 306 Q 133 213 68 84 Q 64 78 63 72 Q 62 62 70 66 Q 82 67 114 117 Q 174 198 206 338 L 211 364 Z" fill="lightgray"></path>
    
      <path d="M 231 668 Q 240 671 299 687 Q 318 691 323 681 Q 330 662 333 632 Q 346 341 334 165 Q 333 137 324 124 Q 320 118 299 123 Q 271 127 243 132 Q 224 136 225 127 Q 285 84 319 52 Q 332 34 347 30 Q 356 27 364 36 Q 401 90 398 136 Q 376 512 386 630 Q 389 657 397 670 Q 409 689 397 699 Q 376 717 342 731 Q 324 738 309 731 Q 276 710 220 698 C 191 691 202 660 231 668 Z" fill="lightgray"></path>
    
      <path d="M 226 490 Q 272 499 306 505 Q 327 511 318 521 Q 308 533 284 535 Q 263 536 228 522 Q 227 522 227 521 C 201 505 197 484 226 490 Z" fill="lightgray"></path>
    
      <path d="M 206 338 Q 209 338 214 338 Q 266 348 305 354 Q 326 358 317 369 Q 307 382 284 384 Q 248 387 211 364 C 185 348 176 338 206 338 Z" fill="lightgray"></path>
    
      <path d="M 596 762 Q 626 740 658 712 Q 671 700 687 702 Q 697 703 701 716 Q 705 731 694 759 Q 682 790 589 807 Q 573 810 568 807 Q 564 803 565 791 Q 569 781 596 762 Z" fill="lightgray"></path>
    
      <path d="M 464 610 Q 434 606 457 588 Q 493 561 522 569 Q 690 606 829 624 Q 839 623 849 636 Q 850 649 826 659 Q 789 681 697 652 Q 679 649 662 643 Q 608 631 464 610 Z" fill="lightgray"></path>
    
      <path d="M 503 360 Q 531 391 553 420 Q 572 448 581 460 Q 588 473 585 480 Q 581 490 556 494 Q 531 498 520 494 Q 513 493 513 480 Q 513 426 414 308 Q 398 292 421 298 Q 448 307 487 342 L 503 360 Z" fill="lightgray"></path>
    
      <path d="M 731 496 Q 776 465 824 428 Q 837 418 852 419 Q 861 420 865 432 Q 868 445 858 473 Q 851 498 810 516 Q 717 547 704 539 Q 700 535 702 523 Q 706 513 731 496 Z" fill="lightgray"></path>
    
      <path d="M 672 206 Q 711 258 732 359 Q 736 378 742 386 Q 749 393 743 404 Q 737 411 707 423 Q 673 439 658 434 Q 645 428 656 411 Q 686 348 635 244 Q 634 244 634 242 L 610 209 Q 562 155 430 106 Q 403 96 434 92 Q 521 88 621 152 Q 630 161 641 169 L 672 206 Z" fill="lightgray"></path>
    
      <path d="M 641 169 Q 687 117 759 51 Q 787 27 830 34 Q 887 41 928 47 Q 941 48 954 54 Q 961 61 950 70 Q 934 77 816 115 Q 755 134 672 206 L 634 242 Q 597 282 555 330 Q 536 354 503 360 C 474 368 463 360 487 342 Q 494 336 502 331 Q 524 322 610 209 L 641 169 Z" fill="lightgray"></path>
    
    
      <clipPath id="make-me-a-hanzi-clip-0">
        <path d="M 211 364 Q 220 422 226 490 L 227 521 Q 227 620 231 668 C 233 691 233 691 220 698 Q 207 708 185 714 Q 167 721 157 716 Q 147 709 154 697 Q 172 679 178 604 Q 178 399 157 306 Q 133 213 68 84 Q 64 78 63 72 Q 62 62 70 66 Q 82 67 114 117 Q 174 198 206 338 L 211 364 Z"></path>
      </clipPath>
      <path clip-path="url(#make-me-a-hanzi-clip-0)" d="M 164 705 L 196 678 L 203 629 L 202 499 L 185 333 L 138 192 L 99 114 L 70 73" fill="none" id="make-me-a-hanzi-animation-0" stroke-dasharray="802 1604" stroke-linecap="round"></path>
    
      <clipPath id="make-me-a-hanzi-clip-1">
        <path d="M 231 668 Q 240 671 299 687 Q 318 691 323 681 Q 330 662 333 632 Q 346 341 334 165 Q 333 137 324 124 Q 320 118 299 123 Q 271 127 243 132 Q 224 136 225 127 Q 285 84 319 52 Q 332 34 347 30 Q 356 27 364 36 Q 401 90 398 136 Q 376 512 386 630 Q 389 657 397 670 Q 409 689 397 699 Q 376 717 342 731 Q 324 738 309 731 Q 276 710 220 698 C 191 691 202 660 231 668 Z"></path>
      </clipPath>
      <path clip-path="url(#make-me-a-hanzi-clip-1)" d="M 231 677 L 250 691 L 325 710 L 362 680 L 358 585 L 366 281 L 366 146 L 359 110 L 348 90 L 312 93 L 234 125" fill="none" id="make-me-a-hanzi-animation-1" stroke-dasharray="991 1982" stroke-linecap="round"></path>
    
      <clipPath id="make-me-a-hanzi-clip-2">
        <path d="M 226 490 Q 272 499 306 505 Q 327 511 318 521 Q 308 533 284 535 Q 263 536 228 522 Q 227 522 227 521 C 201 505 197 484 226 490 Z"></path>
      </clipPath>
      <path clip-path="url(#make-me-a-hanzi-clip-2)" d="M 232 498 L 243 510 L 269 517 L 309 515" fill="none" id="make-me-a-hanzi-animation-2" stroke-dasharray="211 422" stroke-linecap="round"></path>
    
      <clipPath id="make-me-a-hanzi-clip-3">
        <path d="M 206 338 Q 209 338 214 338 Q 266 348 305 354 Q 326 358 317 369 Q 307 382 284 384 Q 248 387 211 364 C 185 348 176 338 206 338 Z"></path>
      </clipPath>
      <path clip-path="url(#make-me-a-hanzi-clip-3)" d="M 210 344 L 224 355 L 265 366 L 309 363" fill="none" id="make-me-a-hanzi-animation-3" stroke-dasharray="232 464" stroke-linecap="round"></path>
    
      <clipPath id="make-me-a-hanzi-clip-4">
        <path d="M 596 762 Q 626 740 658 712 Q 671 700 687 702 Q 697 703 701 716 Q 705 731 694 759 Q 682 790 589 807 Q 573 810 568 807 Q 564 803 565 791 Q 569 781 596 762 Z"></path>
      </clipPath>
      <path clip-path="url(#make-me-a-hanzi-clip-4)" d="M 573 801 L 654 756 L 684 719" fill="none" id="make-me-a-hanzi-animation-4" stroke-dasharray="268 536" stroke-linecap="round"></path>
    
      <clipPath id="make-me-a-hanzi-clip-5">
        <path d="M 464 610 Q 434 606 457 588 Q 493 561 522 569 Q 690 606 829 624 Q 839 623 849 636 Q 850 649 826 659 Q 789 681 697 652 Q 679 649 662 643 Q 608 631 464 610 Z"></path>
      </clipPath>
      <path clip-path="url(#make-me-a-hanzi-clip-5)" d="M 459 600 L 512 592 L 731 636 L 788 644 L 838 638" fill="none" id="make-me-a-hanzi-animation-5" stroke-dasharray="513 1026" stroke-linecap="round"></path>
    
      <clipPath id="make-me-a-hanzi-clip-6">
        <path d="M 503 360 Q 531 391 553 420 Q 572 448 581 460 Q 588 473 585 480 Q 581 490 556 494 Q 531 498 520 494 Q 513 493 513 480 Q 513 426 414 308 Q 398 292 421 298 Q 448 307 487 342 L 503 360 Z"></path>
      </clipPath>
      <path clip-path="url(#make-me-a-hanzi-clip-6)" d="M 573 475 L 542 461 L 521 417 L 494 379 L 424 307" fill="none" id="make-me-a-hanzi-animation-6" stroke-dasharray="358 716" stroke-linecap="round"></path>
    
      <clipPath id="make-me-a-hanzi-clip-7">
        <path d="M 731 496 Q 776 465 824 428 Q 837 418 852 419 Q 861 420 865 432 Q 868 445 858 473 Q 851 498 810 516 Q 717 547 704 539 Q 700 535 702 523 Q 706 513 731 496 Z"></path>
      </clipPath>
      <path clip-path="url(#make-me-a-hanzi-clip-7)" d="M 708 534 L 814 477 L 849 435" fill="none" id="make-me-a-hanzi-animation-7" stroke-dasharray="303 606" stroke-linecap="round"></path>
    
      <clipPath id="make-me-a-hanzi-clip-8">
        <path d="M 672 206 Q 711 258 732 359 Q 736 378 742 386 Q 749 393 743 404 Q 737 411 707 423 Q 673 439 658 434 Q 645 428 656 411 Q 686 348 635 244 Q 634 244 634 242 L 610 209 Q 562 155 430 106 Q 403 96 434 92 Q 521 88 621 152 Q 630 161 641 169 L 672 206 Z"></path>
      </clipPath>
      <path clip-path="url(#make-me-a-hanzi-clip-8)" d="M 664 422 L 701 386 L 701 376 L 690 308 L 655 226 L 621 184 L 587 157 L 493 113 L 441 102" fill="none" id="make-me-a-hanzi-animation-8" stroke-dasharray="602 1204" stroke-linecap="round"></path>
    
      <clipPath id="make-me-a-hanzi-clip-9">
        <path d="M 641 169 Q 687 117 759 51 Q 787 27 830 34 Q 887 41 928 47 Q 941 48 954 54 Q 961 61 950 70 Q 934 77 816 115 Q 755 134 672 206 L 634 242 Q 597 282 555 330 Q 536 354 503 360 C 474 368 463 360 487 342 Q 494 336 502 331 Q 524 322 610 209 L 641 169 Z"></path>
      </clipPath>
      <path clip-path="url(#make-me-a-hanzi-clip-9)" d="M 494 344 L 511 343 L 538 324 L 656 188 L 714 134 L 779 86 L 808 74 L 947 61" fill="none" id="make-me-a-hanzi-animation-9" stroke-dasharray="689 1378" stroke-linecap="round"></path>
    
  </g>
</svg>