<svg version="1.1" viewBox="0 0 1024 1024" xmlns="http://www.w3.org/2000/svg">
  <g stroke="lightgray" stroke-dasharray="1,1" stroke-width="1" transform="scale(4, 4)">
    <line x1="0" y1="0" x2="256" y2="256"></line>
    <line x1="256" y1="0" x2="0" y2="256"></line>
    <line x1="128" y1="0" x2="128" y2="256"></line>
    <line x1="0" y1="128" x2="256" y2="128"></line>
  </g>
  <g transform="scale(1, -1) translate(0, -900)">
    <style type="text/css">
      
        @keyframes keyframes0 {
          from {
            stroke: blue;
            stroke-dashoffset: 957;
            stroke-width: 128;
          }
          76% {
            animation-timing-function: step-end;
            stroke: blue;
            stroke-dashoffset: 0;
            stroke-width: 128;
          }
          to {
            stroke: black;
            stroke-width: 1024;
          }
        }
        #make-me-a-hanzi-animation-0 {
          animation: keyframes0 1.02880859375s both;
          animation-delay: 0s;
          animation-timing-function: linear;
        }
      
        @keyframes keyframes1 {
          from {
            stroke: blue;
            stroke-dashoffset: 1143;
            stroke-width: 128;
          }
          79% {
            animation-timing-function: step-end;
            stroke: blue;
            stroke-dashoffset: 0;
            stroke-width: 128;
          }
          to {
            stroke: black;
            stroke-width: 1024;
          }
        }
        #make-me-a-hanzi-animation-1 {
          animation: keyframes1 1.18017578125s both;
          animation-delay: 1.02880859375s;
          animation-timing-function: linear;
        }
      
        @keyframes keyframes2 {
          from {
            stroke: blue;
            stroke-dashoffset: 331;
            stroke-width: 128;
          }
          52% {
            animation-timing-function: step-end;
            stroke: blue;
            stroke-dashoffset: 0;
            stroke-width: 128;
          }
          to {
            stroke: black;
            stroke-width: 1024;
          }
        }
        #make-me-a-hanzi-animation-2 {
          animation: keyframes2 0.5193684895833334s both;
          animation-delay: 2.208984375s;
          animation-timing-function: linear;
        }
      
        @keyframes keyframes3 {
          from {
            stroke: blue;
            stroke-dashoffset: 352;
            stroke-width: 128;
          }
          53% {
            animation-timing-function: step-end;
            stroke: blue;
            stroke-dashoffset: 0;
            stroke-width: 128;
          }
          to {
            stroke: black;
            stroke-width: 1024;
          }
        }
        #make-me-a-hanzi-animation-3 {
          animation: keyframes3 0.5364583333333334s both;
          animation-delay: 2.7283528645833335s;
          animation-timing-function: linear;
        }
      
        @keyframes keyframes4 {
          from {
            stroke: blue;
            stroke-dashoffset: 871;
            stroke-width: 128;
          }
          74% {
            animation-timing-function: step-end;
            stroke: blue;
            stroke-dashoffset: 0;
            stroke-width: 128;
          }
          to {
            stroke: black;
            stroke-width: 1024;
          }
        }
        #make-me-a-hanzi-animation-4 {
          animation: keyframes4 0.9588216145833334s both;
          animation-delay: 3.264811197916667s;
          animation-timing-function: linear;
        }
      
        @keyframes keyframes5 {
          from {
            stroke: blue;
            stroke-dashoffset: 1356;
            stroke-width: 128;
          }
          82% {
            animation-timing-function: step-end;
            stroke: blue;
            stroke-dashoffset: 0;
            stroke-width: 128;
          }
          to {
            stroke: black;
            stroke-width: 1024;
          }
        }
        #make-me-a-hanzi-animation-5 {
          animation: keyframes5 1.353515625s both;
          animation-delay: 4.2236328125s;
          animation-timing-function: linear;
        }
      
        @keyframes keyframes6 {
          from {
            stroke: blue;
            stroke-dashoffset: 442;
            stroke-width: 128;
          }
          59% {
            animation-timing-function: step-end;
            stroke: blue;
            stroke-dashoffset: 0;
            stroke-width: 128;
          }
          to {
            stroke: black;
            stroke-width: 1024;
          }
        }
        #make-me-a-hanzi-animation-6 {
          animation: keyframes6 0.6097005208333334s both;
          animation-delay: 5.5771484375s;
          animation-timing-function: linear;
        }
      
        @keyframes keyframes7 {
          from {
            stroke: blue;
            stroke-dashoffset: 442;
            stroke-width: 128;
          }
          59% {
            animation-timing-function: step-end;
            stroke: blue;
            stroke-dashoffset: 0;
            stroke-width: 128;
          }
          to {
            stroke: black;
            stroke-width: 1024;
          }
        }
        #make-me-a-hanzi-animation-7 {
          animation: keyframes7 0.6097005208333334s both;
          animation-delay: 6.186848958333333s;
          animation-timing-function: linear;
        }
      
        @keyframes keyframes8 {
          from {
            stroke: blue;
            stroke-dashoffset: 503;
            stroke-width: 128;
          }
          62% {
            animation-timing-function: step-end;
            stroke: blue;
            stroke-dashoffset: 0;
            stroke-width: 128;
          }
          to {
            stroke: black;
            stroke-width: 1024;
          }
        }
        #make-me-a-hanzi-animation-8 {
          animation: keyframes8 0.6593424479166666s both;
          animation-delay: 6.796549479166666s;
          animation-timing-function: linear;
        }
      
        @keyframes keyframes9 {
          from {
            stroke: blue;
            stroke-dashoffset: 397;
            stroke-width: 128;
          }
          56% {
            animation-timing-function: step-end;
            stroke: blue;
            stroke-dashoffset: 0;
            stroke-width: 128;
          }
          to {
            stroke: black;
            stroke-width: 1024;
          }
        }
        #make-me-a-hanzi-animation-9 {
          animation: keyframes9 0.5730794270833334s both;
          animation-delay: 7.455891927083333s;
          animation-timing-function: linear;
        }
      
    </style>
    
      <path d="M 199 387 Q 211 447 213 519 L 214 554 Q 215 569 215 582 Q 215 672 223 695 C 226 708 226 708 200 722 Q 163 746 143 737 Q 133 730 140 717 Q 158 695 164 633 Q 164 426 143 328 Q 140 321 139 311 Q 112 212 44 81 Q 40 74 39 69 Q 38 59 47 62 Q 60 65 93 114 Q 162 202 192 351 L 199 387 Z" fill="lightgray"></path>
    
      <path d="M 223 695 Q 256 702 287 712 Q 306 716 311 705 Q 326 666 326 372 Q 323 138 310 118 Q 306 115 246 126 Q 227 133 228 124 Q 274 78 300 44 Q 312 26 327 21 Q 336 17 344 27 Q 383 78 382 124 Q 372 311 373 615 Q 372 670 385 694 Q 397 713 385 723 Q 364 741 330 755 Q 312 762 297 755 Q 260 734 200 722 C 171 715 194 688 223 695 Z" fill="lightgray"></path>
    
      <path d="M 213 519 Q 253 525 284 528 Q 306 532 297 545 Q 287 558 263 561 Q 244 562 214 554 C 185 546 183 515 213 519 Z" fill="lightgray"></path>
    
      <path d="M 192 351 Q 243 358 282 360 Q 306 364 297 376 Q 287 391 261 395 Q 237 399 199 387 C 170 378 162 347 192 351 Z" fill="lightgray"></path>
    
      <path d="M 485 676 Q 466 689 445 696 Q 435 699 428 690 Q 424 683 432 672 Q 456 611 455 551 Q 459 305 418 182 Q 409 154 414 132 Q 423 95 435 81 Q 448 66 458 81 Q 494 118 495 270 Q 495 531 512 638 C 515 658 511 661 485 676 Z" fill="lightgray"></path>
    
      <path d="M 512 638 Q 511 639 514 639 Q 620 670 752 692 Q 774 696 785 685 Q 798 678 804 615 Q 823 405 815 167 Q 815 133 802 122 Q 787 110 710 123 Q 692 124 694 115 Q 695 108 710 102 Q 780 59 817 24 Q 839 5 853 8 Q 866 11 877 42 Q 890 90 887 159 Q 865 480 864 599 Q 863 639 875 663 Q 887 685 876 698 Q 866 713 816 737 Q 795 746 729 726 Q 603 695 485 676 C 455 671 483 630 512 638 Z" fill="lightgray"></path>
    
      <path d="M 567 544 Q 536 538 558 524 Q 594 505 642 518 Q 685 527 729 536 Q 748 540 752 544 Q 759 551 755 558 Q 748 568 723 573 Q 699 577 628 554 Q 598 548 567 544 Z" fill="lightgray"></path>
    
      <path d="M 581 413 Q 571 419 544 424 Q 534 428 530 423 Q 526 419 532 405 Q 553 359 564 284 Q 565 262 579 246 Q 592 227 598 240 Q 602 250 602 267 L 598 299 Q 591 363 589 387 C 587 410 587 410 581 413 Z" fill="lightgray"></path>
    
      <path d="M 727 310 Q 740 371 758 389 Q 777 413 757 425 Q 739 435 715 450 Q 699 459 682 449 Q 658 434 581 413 C 552 405 561 377 589 387 Q 592 390 662 404 Q 683 408 688 400 Q 694 396 690 367 Q 686 343 681 316 C 676 286 721 281 727 310 Z" fill="lightgray"></path>
    
      <path d="M 602 267 Q 609 267 620 268 Q 657 275 737 280 Q 747 281 748 289 Q 748 296 727 310 L 681 316 Q 678 317 676 316 Q 633 306 598 299 C 569 293 572 266 602 267 Z" fill="lightgray"></path>
    
    
      <clipPath id="make-me-a-hanzi-clip-0">
        <path d="M 199 387 Q 211 447 213 519 L 214 554 Q 215 569 215 582 Q 215 672 223 695 C 226 708 226 708 200 722 Q 163 746 143 737 Q 133 730 140 717 Q 158 695 164 633 Q 164 426 143 328 Q 140 321 139 311 Q 112 212 44 81 Q 40 74 39 69 Q 38 59 47 62 Q 60 65 93 114 Q 162 202 192 351 L 199 387 Z"></path>
      </clipPath>
      <path clip-path="url(#make-me-a-hanzi-clip-0)" d="M 151 726 L 182 699 L 189 678 L 187 497 L 170 347 L 154 282 L 128 212 L 77 112 L 47 70" fill="none" id="make-me-a-hanzi-animation-0" stroke-dasharray="829 1658" stroke-linecap="round"></path>
    
      <clipPath id="make-me-a-hanzi-clip-1">
        <path d="M 223 695 Q 256 702 287 712 Q 306 716 311 705 Q 326 666 326 372 Q 323 138 310 118 Q 306 115 246 126 Q 227 133 228 124 Q 274 78 300 44 Q 312 26 327 21 Q 336 17 344 27 Q 383 78 382 124 Q 372 311 373 615 Q 372 670 385 694 Q 397 713 385 723 Q 364 741 330 755 Q 312 762 297 755 Q 260 734 200 722 C 171 715 194 688 223 695 Z"></path>
      </clipPath>
      <path clip-path="url(#make-me-a-hanzi-clip-1)" d="M 209 722 L 219 715 L 239 714 L 309 735 L 327 727 L 350 703 L 346 110 L 327 79 L 237 121" fill="none" id="make-me-a-hanzi-animation-1" stroke-dasharray="1015 2030" stroke-linecap="round"></path>
    
      <clipPath id="make-me-a-hanzi-clip-2">
        <path d="M 213 519 Q 253 525 284 528 Q 306 532 297 545 Q 287 558 263 561 Q 244 562 214 554 C 185 546 183 515 213 519 Z"></path>
      </clipPath>
      <path clip-path="url(#make-me-a-hanzi-clip-2)" d="M 220 525 L 238 541 L 267 544 L 288 538" fill="none" id="make-me-a-hanzi-animation-2" stroke-dasharray="203 406" stroke-linecap="round"></path>
    
      <clipPath id="make-me-a-hanzi-clip-3">
        <path d="M 192 351 Q 243 358 282 360 Q 306 364 297 376 Q 287 391 261 395 Q 237 399 199 387 C 170 378 162 347 192 351 Z"></path>
      </clipPath>
      <path clip-path="url(#make-me-a-hanzi-clip-3)" d="M 200 356 L 207 367 L 229 375 L 265 377 L 287 370" fill="none" id="make-me-a-hanzi-animation-3" stroke-dasharray="224 448" stroke-linecap="round"></path>
    
      <clipPath id="make-me-a-hanzi-clip-4">
        <path d="M 485 676 Q 466 689 445 696 Q 435 699 428 690 Q 424 683 432 672 Q 456 611 455 551 Q 459 305 418 182 Q 409 154 414 132 Q 423 95 435 81 Q 448 66 458 81 Q 494 118 495 270 Q 495 531 512 638 C 515 658 511 661 485 676 Z"></path>
      </clipPath>
      <path clip-path="url(#make-me-a-hanzi-clip-4)" d="M 438 685 L 468 654 L 474 640 L 480 583 L 471 302 L 448 149 L 447 86" fill="none" id="make-me-a-hanzi-animation-4" stroke-dasharray="743 1486" stroke-linecap="round"></path>
    
      <clipPath id="make-me-a-hanzi-clip-5">
        <path d="M 512 638 Q 511 639 514 639 Q 620 670 752 692 Q 774 696 785 685 Q 798 678 804 615 Q 823 405 815 167 Q 815 133 802 122 Q 787 110 710 123 Q 692 124 694 115 Q 695 108 710 102 Q 780 59 817 24 Q 839 5 853 8 Q 866 11 877 42 Q 890 90 887 159 Q 865 480 864 599 Q 863 639 875 663 Q 887 685 876 698 Q 866 713 816 737 Q 795 746 729 726 Q 603 695 485 676 C 455 671 483 630 512 638 Z"></path>
      </clipPath>
      <path clip-path="url(#make-me-a-hanzi-clip-5)" d="M 493 672 L 529 663 L 763 715 L 804 709 L 836 678 L 833 630 L 852 168 L 848 119 L 832 80 L 774 90 L 721 113 L 702 115" fill="none" id="make-me-a-hanzi-animation-5" stroke-dasharray="1228 2456" stroke-linecap="round"></path>
    
      <clipPath id="make-me-a-hanzi-clip-6">
        <path d="M 567 544 Q 536 538 558 524 Q 594 505 642 518 Q 685 527 729 536 Q 748 540 752 544 Q 759 551 755 558 Q 748 568 723 573 Q 699 577 628 554 Q 598 548 567 544 Z"></path>
      </clipPath>
      <path clip-path="url(#make-me-a-hanzi-clip-6)" d="M 560 535 L 617 532 L 702 552 L 744 553" fill="none" id="make-me-a-hanzi-animation-6" stroke-dasharray="314 628" stroke-linecap="round"></path>
    
      <clipPath id="make-me-a-hanzi-clip-7">
        <path d="M 581 413 Q 571 419 544 424 Q 534 428 530 423 Q 526 419 532 405 Q 553 359 564 284 Q 565 262 579 246 Q 592 227 598 240 Q 602 250 602 267 L 598 299 Q 591 363 589 387 C 587 410 587 410 581 413 Z"></path>
      </clipPath>
      <path clip-path="url(#make-me-a-hanzi-clip-7)" d="M 537 418 L 565 387 L 589 245" fill="none" id="make-me-a-hanzi-animation-7" stroke-dasharray="314 628" stroke-linecap="round"></path>
    
      <clipPath id="make-me-a-hanzi-clip-8">
        <path d="M 727 310 Q 740 371 758 389 Q 777 413 757 425 Q 739 435 715 450 Q 699 459 682 449 Q 658 434 581 413 C 552 405 561 377 589 387 Q 592 390 662 404 Q 683 408 688 400 Q 694 396 690 367 Q 686 343 681 316 C 676 286 721 281 727 310 Z"></path>
      </clipPath>
      <path clip-path="url(#make-me-a-hanzi-clip-8)" d="M 588 394 L 598 405 L 615 410 L 677 425 L 706 423 L 725 404 L 707 334 L 689 321" fill="none" id="make-me-a-hanzi-animation-8" stroke-dasharray="375 750" stroke-linecap="round"></path>
    
      <clipPath id="make-me-a-hanzi-clip-9">
        <path d="M 602 267 Q 609 267 620 268 Q 657 275 737 280 Q 747 281 748 289 Q 748 296 727 310 L 681 316 Q 678 317 676 316 Q 633 306 598 299 C 569 293 572 266 602 267 Z"></path>
      </clipPath>
      <path clip-path="url(#make-me-a-hanzi-clip-9)" d="M 606 273 L 616 285 L 679 296 L 717 296 L 739 289" fill="none" id="make-me-a-hanzi-animation-9" stroke-dasharray="269 538" stroke-linecap="round"></path>
    
  </g>
</svg>