<svg version="1.1" viewBox="0 0 1024 1024" xmlns="http://www.w3.org/2000/svg">
  <g stroke="lightgray" stroke-dasharray="1,1" stroke-width="1" transform="scale(4, 4)">
    <line x1="0" y1="0" x2="256" y2="256"></line>
    <line x1="256" y1="0" x2="0" y2="256"></line>
    <line x1="128" y1="0" x2="128" y2="256"></line>
    <line x1="0" y1="128" x2="256" y2="128"></line>
  </g>
  <g transform="scale(1, -1) translate(0, -900)">
    <style type="text/css">
      
        @keyframes keyframes0 {
          from {
            stroke: blue;
            stroke-dashoffset: 984;
            stroke-width: 128;
          }
          76% {
            animation-timing-function: step-end;
            stroke: blue;
            stroke-dashoffset: 0;
            stroke-width: 128;
          }
          to {
            stroke: black;
            stroke-width: 1024;
          }
        }
        #make-me-a-hanzi-animation-0 {
          animation: keyframes0 1.05078125s both;
          animation-delay: 0s;
          animation-timing-function: linear;
        }
      
        @keyframes keyframes1 {
          from {
            stroke: blue;
            stroke-dashoffset: 1071;
            stroke-width: 128;
          }
          78% {
            animation-timing-function: step-end;
            stroke: blue;
            stroke-dashoffset: 0;
            stroke-width: 128;
          }
          to {
            stroke: black;
            stroke-width: 1024;
          }
        }
        #make-me-a-hanzi-animation-1 {
          animation: keyframes1 1.12158203125s both;
          animation-delay: 1.05078125s;
          animation-timing-function: linear;
        }
      
        @keyframes keyframes2 {
          from {
            stroke: blue;
            stroke-dashoffset: 333;
            stroke-width: 128;
          }
          52% {
            animation-timing-function: step-end;
            stroke: blue;
            stroke-dashoffset: 0;
            stroke-width: 128;
          }
          to {
            stroke: black;
            stroke-width: 1024;
          }
        }
        #make-me-a-hanzi-animation-2 {
          animation: keyframes2 0.52099609375s both;
          animation-delay: 2.17236328125s;
          animation-timing-function: linear;
        }
      
        @keyframes keyframes3 {
          from {
            stroke: blue;
            stroke-dashoffset: 344;
            stroke-width: 128;
          }
          53% {
            animation-timing-function: step-end;
            stroke: blue;
            stroke-dashoffset: 0;
            stroke-width: 128;
          }
          to {
            stroke: black;
            stroke-width: 1024;
          }
        }
        #make-me-a-hanzi-animation-3 {
          animation: keyframes3 0.5299479166666666s both;
          animation-delay: 2.693359375s;
          animation-timing-function: linear;
        }
      
        @keyframes keyframes4 {
          from {
            stroke: blue;
            stroke-dashoffset: 655;
            stroke-width: 128;
          }
          68% {
            animation-timing-function: step-end;
            stroke: blue;
            stroke-dashoffset: 0;
            stroke-width: 128;
          }
          to {
            stroke: black;
            stroke-width: 1024;
          }
        }
        #make-me-a-hanzi-animation-4 {
          animation: keyframes4 0.7830403645833334s both;
          animation-delay: 3.2233072916666665s;
          animation-timing-function: linear;
        }
      
        @keyframes keyframes5 {
          from {
            stroke: blue;
            stroke-dashoffset: 1294;
            stroke-width: 128;
          }
          81% {
            animation-timing-function: step-end;
            stroke: blue;
            stroke-dashoffset: 0;
            stroke-width: 128;
          }
          to {
            stroke: black;
            stroke-width: 1024;
          }
        }
        #make-me-a-hanzi-animation-5 {
          animation: keyframes5 1.3030598958333333s both;
          animation-delay: 4.00634765625s;
          animation-timing-function: linear;
        }
      
        @keyframes keyframes6 {
          from {
            stroke: blue;
            stroke-dashoffset: 559;
            stroke-width: 128;
          }
          65% {
            animation-timing-function: step-end;
            stroke: blue;
            stroke-dashoffset: 0;
            stroke-width: 128;
          }
          to {
            stroke: black;
            stroke-width: 1024;
          }
        }
        #make-me-a-hanzi-animation-6 {
          animation: keyframes6 0.7049153645833334s both;
          animation-delay: 5.309407552083333s;
          animation-timing-function: linear;
        }
      
        @keyframes keyframes7 {
          from {
            stroke: blue;
            stroke-dashoffset: 471;
            stroke-width: 128;
          }
          61% {
            animation-timing-function: step-end;
            stroke: blue;
            stroke-dashoffset: 0;
            stroke-width: 128;
          }
          to {
            stroke: black;
            stroke-width: 1024;
          }
        }
        #make-me-a-hanzi-animation-7 {
          animation: keyframes7 0.63330078125s both;
          animation-delay: 6.014322916666666s;
          animation-timing-function: linear;
        }
      
        @keyframes keyframes8 {
          from {
            stroke: blue;
            stroke-dashoffset: 689;
            stroke-width: 128;
          }
          69% {
            animation-timing-function: step-end;
            stroke: blue;
            stroke-dashoffset: 0;
            stroke-width: 128;
          }
          to {
            stroke: black;
            stroke-width: 1024;
          }
        }
        #make-me-a-hanzi-animation-8 {
          animation: keyframes8 0.8107096354166666s both;
          animation-delay: 6.647623697916666s;
          animation-timing-function: linear;
        }
      
        @keyframes keyframes9 {
          from {
            stroke: blue;
            stroke-dashoffset: 527;
            stroke-width: 128;
          }
          63% {
            animation-timing-function: step-end;
            stroke: blue;
            stroke-dashoffset: 0;
            stroke-width: 128;
          }
          to {
            stroke: black;
            stroke-width: 1024;
          }
        }
        #make-me-a-hanzi-animation-9 {
          animation: keyframes9 0.6788736979166666s both;
          animation-delay: 7.458333333333333s;
          animation-timing-function: linear;
        }
      
    </style>
    
      <path d="M 208 394 Q 215 455 218 513 L 219 546 Q 219 652 222 685 C 224 710 224 710 216 715 Q 201 727 177 734 Q 159 741 149 736 Q 139 729 146 717 Q 164 696 171 638 Q 171 431 156 337 Q 150 315 146 293 Q 121 199 48 52 Q 44 46 43 40 Q 42 30 50 34 Q 68 37 97 88 Q 166 182 203 362 L 208 394 Z" fill="lightgray"></path>
    
      <path d="M 222 685 Q 226 686 232 688 Q 260 695 287 703 Q 305 707 309 699 Q 334 630 318 247 Q 314 175 306 162 Q 300 156 238 168 Q 219 172 221 164 Q 272 124 300 94 Q 313 78 327 73 Q 334 70 343 79 Q 377 124 376 173 Q 367 341 367 612 Q 366 664 379 688 Q 389 704 379 715 Q 360 731 327 745 Q 311 752 296 745 Q 259 724 216 715 C 187 708 193 677 222 685 Z" fill="lightgray"></path>
    
      <path d="M 218 513 Q 258 523 291 529 Q 310 535 302 545 Q 290 557 268 558 Q 249 558 219 546 C 191 535 189 506 218 513 Z" fill="lightgray"></path>
    
      <path d="M 203 362 Q 249 371 286 377 Q 307 383 298 393 Q 288 406 264 407 Q 243 408 208 394 C 180 383 174 356 203 362 Z" fill="lightgray"></path>
    
      <path d="M 557 616 Q 591 659 629 721 Q 648 755 666 772 Q 673 782 670 795 Q 666 807 639 827 Q 614 843 596 844 Q 578 841 586 821 Q 617 761 438 521 Q 428 511 426 505 Q 423 495 437 498 Q 462 501 539 595 L 557 616 Z" fill="lightgray"></path>
    
      <path d="M 539 595 Q 576 580 603 589 Q 631 599 762 623 Q 784 627 793 617 Q 812 595 815 542 Q 822 376 812 268 Q 800 178 779 113 Q 769 85 757 79 Q 751 76 666 93 Q 654 96 650 93 Q 647 86 663 74 Q 706 34 730 -2 Q 751 -32 769 -25 Q 785 -21 806 10 Q 836 50 854 124 Q 873 212 875 502 Q 874 577 893 603 Q 909 622 887 639 Q 824 679 792 672 Q 788 672 785 670 Q 698 643 557 616 C 528 610 510 603 539 595 Z" fill="lightgray"></path>
    
      <path d="M 610 406 Q 629 440 653 494 Q 662 515 662 520 Q 661 527 649 533 Q 621 551 599 542 Q 593 541 596 531 Q 605 510 579 428 Q 578 427 578 425 L 563 392 Q 539 350 487 281 Q 483 277 490 275 Q 526 285 589 370 L 610 406 Z" fill="lightgray"></path>
    
      <path d="M 589 370 Q 646 318 651 316 Q 655 315 660 322 Q 667 331 658 357 Q 649 382 610 406 L 578 425 Q 523 458 492 471 Q 486 474 486 466 Q 486 459 493 452 Q 526 427 563 392 L 589 370 Z" fill="lightgray"></path>
    
      <path d="M 699 285 Q 570 270 475 242 Q 459 238 463 257 Q 467 294 472 333 Q 476 352 467 364 Q 455 379 435 390 Q 426 394 418 393 Q 409 389 415 374 Q 434 331 427 287 Q 421 245 404 227 Q 389 214 395 201 Q 405 189 419 180 Q 429 173 438 180 Q 462 208 612 243 Q 675 255 691 252 C 721 251 729 289 699 285 Z" fill="lightgray"></path>
    
      <path d="M 691 252 Q 675 216 694 171 Q 701 158 711 167 Q 733 188 739 258 Q 754 363 768 387 Q 775 399 767 411 Q 751 424 724 442 Q 714 449 703 444 Q 696 441 698 429 Q 713 405 700 290 Q 699 289 699 285 L 691 252 Z" fill="lightgray"></path>
    
    
      <clipPath id="make-me-a-hanzi-clip-0">
        <path d="M 208 394 Q 215 455 218 513 L 219 546 Q 219 652 222 685 C 224 710 224 710 216 715 Q 201 727 177 734 Q 159 741 149 736 Q 139 729 146 717 Q 164 696 171 638 Q 171 431 156 337 Q 150 315 146 293 Q 121 199 48 52 Q 44 46 43 40 Q 42 30 50 34 Q 68 37 97 88 Q 166 182 203 362 L 208 394 Z"></path>
      </clipPath>
      <path clip-path="url(#make-me-a-hanzi-clip-0)" d="M 156 725 L 189 697 L 195 662 L 192 464 L 181 357 L 166 287 L 124 170 L 81 85 L 51 42" fill="none" id="make-me-a-hanzi-animation-0" stroke-dasharray="856 1712" stroke-linecap="round"></path>
    
      <clipPath id="make-me-a-hanzi-clip-1">
        <path d="M 222 685 Q 226 686 232 688 Q 260 695 287 703 Q 305 707 309 699 Q 334 630 318 247 Q 314 175 306 162 Q 300 156 238 168 Q 219 172 221 164 Q 272 124 300 94 Q 313 78 327 73 Q 334 70 343 79 Q 377 124 376 173 Q 367 341 367 612 Q 366 664 379 688 Q 389 704 379 715 Q 360 731 327 745 Q 311 752 296 745 Q 259 724 216 715 C 187 708 193 677 222 685 Z"></path>
      </clipPath>
      <path clip-path="url(#make-me-a-hanzi-clip-1)" d="M 225 693 L 241 707 L 308 726 L 325 719 L 346 696 L 346 242 L 341 157 L 324 126 L 230 161" fill="none" id="make-me-a-hanzi-animation-1" stroke-dasharray="943 1886" stroke-linecap="round"></path>
    
      <clipPath id="make-me-a-hanzi-clip-2">
        <path d="M 218 513 Q 258 523 291 529 Q 310 535 302 545 Q 290 557 268 558 Q 249 558 219 546 C 191 535 189 506 218 513 Z"></path>
      </clipPath>
      <path clip-path="url(#make-me-a-hanzi-clip-2)" d="M 225 518 L 230 529 L 244 537 L 293 539" fill="none" id="make-me-a-hanzi-animation-2" stroke-dasharray="205 410" stroke-linecap="round"></path>
    
      <clipPath id="make-me-a-hanzi-clip-3">
        <path d="M 203 362 Q 249 371 286 377 Q 307 383 298 393 Q 288 406 264 407 Q 243 408 208 394 C 180 383 174 356 203 362 Z"></path>
      </clipPath>
      <path clip-path="url(#make-me-a-hanzi-clip-3)" d="M 210 366 L 216 376 L 237 386 L 269 391 L 289 387" fill="none" id="make-me-a-hanzi-animation-3" stroke-dasharray="216 432" stroke-linecap="round"></path>
    
      <clipPath id="make-me-a-hanzi-clip-4">
        <path d="M 557 616 Q 591 659 629 721 Q 648 755 666 772 Q 673 782 670 795 Q 666 807 639 827 Q 614 843 596 844 Q 578 841 586 821 Q 617 761 438 521 Q 428 511 426 505 Q 423 495 437 498 Q 462 501 539 595 L 557 616 Z"></path>
      </clipPath>
      <path clip-path="url(#make-me-a-hanzi-clip-4)" d="M 597 830 L 609 821 L 628 787 L 593 712 L 518 596 L 434 505" fill="none" id="make-me-a-hanzi-animation-4" stroke-dasharray="527 1054" stroke-linecap="round"></path>
    
      <clipPath id="make-me-a-hanzi-clip-5">
        <path d="M 539 595 Q 576 580 603 589 Q 631 599 762 623 Q 784 627 793 617 Q 812 595 815 542 Q 822 376 812 268 Q 800 178 779 113 Q 769 85 757 79 Q 751 76 666 93 Q 654 96 650 93 Q 647 86 663 74 Q 706 34 730 -2 Q 751 -32 769 -25 Q 785 -21 806 10 Q 836 50 854 124 Q 873 212 875 502 Q 874 577 893 603 Q 909 622 887 639 Q 824 679 792 672 Q 788 672 785 670 Q 698 643 557 616 C 528 610 510 603 539 595 Z"></path>
      </clipPath>
      <path clip-path="url(#make-me-a-hanzi-clip-5)" d="M 548 597 L 786 646 L 821 636 L 847 611 L 844 305 L 832 190 L 814 107 L 790 56 L 764 32 L 654 90" fill="none" id="make-me-a-hanzi-animation-5" stroke-dasharray="1166 2332" stroke-linecap="round"></path>
    
      <clipPath id="make-me-a-hanzi-clip-6">
        <path d="M 610 406 Q 629 440 653 494 Q 662 515 662 520 Q 661 527 649 533 Q 621 551 599 542 Q 593 541 596 531 Q 605 510 579 428 Q 578 427 578 425 L 563 392 Q 539 350 487 281 Q 483 277 490 275 Q 526 285 589 370 L 610 406 Z"></path>
      </clipPath>
      <path clip-path="url(#make-me-a-hanzi-clip-6)" d="M 607 534 L 628 511 L 597 420 L 558 352 L 493 280" fill="none" id="make-me-a-hanzi-animation-6" stroke-dasharray="431 862" stroke-linecap="round"></path>
    
      <clipPath id="make-me-a-hanzi-clip-7">
        <path d="M 589 370 Q 646 318 651 316 Q 655 315 660 322 Q 667 331 658 357 Q 649 382 610 406 L 578 425 Q 523 458 492 471 Q 486 474 486 466 Q 486 459 493 452 Q 526 427 563 392 L 589 370 Z"></path>
      </clipPath>
      <path clip-path="url(#make-me-a-hanzi-clip-7)" d="M 494 463 L 617 375 L 644 345 L 653 323" fill="none" id="make-me-a-hanzi-animation-7" stroke-dasharray="343 686" stroke-linecap="round"></path>
    
      <clipPath id="make-me-a-hanzi-clip-8">
        <path d="M 699 285 Q 570 270 475 242 Q 459 238 463 257 Q 467 294 472 333 Q 476 352 467 364 Q 455 379 435 390 Q 426 394 418 393 Q 409 389 415 374 Q 434 331 427 287 Q 421 245 404 227 Q 389 214 395 201 Q 405 189 419 180 Q 429 173 438 180 Q 462 208 612 243 Q 675 255 691 252 C 721 251 729 289 699 285 Z"></path>
      </clipPath>
      <path clip-path="url(#make-me-a-hanzi-clip-8)" d="M 422 385 L 449 348 L 440 222 L 480 224 L 611 259 L 675 268 L 691 281" fill="none" id="make-me-a-hanzi-animation-8" stroke-dasharray="561 1122" stroke-linecap="round"></path>
    
      <clipPath id="make-me-a-hanzi-clip-9">
        <path d="M 691 252 Q 675 216 694 171 Q 701 158 711 167 Q 733 188 739 258 Q 754 363 768 387 Q 775 399 767 411 Q 751 424 724 442 Q 714 449 703 444 Q 696 441 698 429 Q 713 405 700 290 Q 699 289 699 285 L 691 252 Z"></path>
      </clipPath>
      <path clip-path="url(#make-me-a-hanzi-clip-9)" d="M 711 433 L 737 395 L 703 173" fill="none" id="make-me-a-hanzi-animation-9" stroke-dasharray="399 798" stroke-linecap="round"></path>
    
  </g>
</svg>