<svg version="1.1" viewBox="0 0 1024 1024" xmlns="http://www.w3.org/2000/svg">
  <g stroke="lightgray" stroke-dasharray="1,1" stroke-width="1" transform="scale(4, 4)">
    <line x1="0" y1="0" x2="256" y2="256"></line>
    <line x1="256" y1="0" x2="0" y2="256"></line>
    <line x1="128" y1="0" x2="128" y2="256"></line>
    <line x1="0" y1="128" x2="256" y2="128"></line>
  </g>
  <g transform="scale(1, -1) translate(0, -900)">
    <style type="text/css">
      
        @keyframes keyframes0 {
          from {
            stroke: blue;
            stroke-dashoffset: 396;
            stroke-width: 128;
          }
          56% {
            animation-timing-function: step-end;
            stroke: blue;
            stroke-dashoffset: 0;
            stroke-width: 128;
          }
          to {
            stroke: black;
            stroke-width: 1024;
          }
        }
        #make-me-a-hanzi-animation-0 {
          animation: keyframes0 0.572265625s both;
          animation-delay: 0s;
          animation-timing-function: linear;
        }
      
        @keyframes keyframes1 {
          from {
            stroke: blue;
            stroke-dashoffset: 852;
            stroke-width: 128;
          }
          73% {
            animation-timing-function: step-end;
            stroke: blue;
            stroke-dashoffset: 0;
            stroke-width: 128;
          }
          to {
            stroke: black;
            stroke-width: 1024;
          }
        }
        #make-me-a-hanzi-animation-1 {
          animation: keyframes1 0.943359375s both;
          animation-delay: 0.572265625s;
          animation-timing-function: linear;
        }
      
        @keyframes keyframes2 {
          from {
            stroke: blue;
            stroke-dashoffset: 451;
            stroke-width: 128;
          }
          59% {
            animation-timing-function: step-end;
            stroke: blue;
            stroke-dashoffset: 0;
            stroke-width: 128;
          }
          to {
            stroke: black;
            stroke-width: 1024;
          }
        }
        #make-me-a-hanzi-animation-2 {
          animation: keyframes2 0.6170247395833334s both;
          animation-delay: 1.515625s;
          animation-timing-function: linear;
        }
      
        @keyframes keyframes3 {
          from {
            stroke: blue;
            stroke-dashoffset: 474;
            stroke-width: 128;
          }
          61% {
            animation-timing-function: step-end;
            stroke: blue;
            stroke-dashoffset: 0;
            stroke-width: 128;
          }
          to {
            stroke: black;
            stroke-width: 1024;
          }
        }
        #make-me-a-hanzi-animation-3 {
          animation: keyframes3 0.6357421875s both;
          animation-delay: 2.1326497395833335s;
          animation-timing-function: linear;
        }
      
        @keyframes keyframes4 {
          from {
            stroke: blue;
            stroke-dashoffset: 1086;
            stroke-width: 128;
          }
          78% {
            animation-timing-function: step-end;
            stroke: blue;
            stroke-dashoffset: 0;
            stroke-width: 128;
          }
          to {
            stroke: black;
            stroke-width: 1024;
          }
        }
        #make-me-a-hanzi-animation-4 {
          animation: keyframes4 1.1337890625s both;
          animation-delay: 2.7683919270833335s;
          animation-timing-function: linear;
        }
      
        @keyframes keyframes5 {
          from {
            stroke: blue;
            stroke-dashoffset: 530;
            stroke-width: 128;
          }
          63% {
            animation-timing-function: step-end;
            stroke: blue;
            stroke-dashoffset: 0;
            stroke-width: 128;
          }
          to {
            stroke: black;
            stroke-width: 1024;
          }
        }
        #make-me-a-hanzi-animation-5 {
          animation: keyframes5 0.6813151041666666s both;
          animation-delay: 3.9021809895833335s;
          animation-timing-function: linear;
        }
      
        @keyframes keyframes6 {
          from {
            stroke: blue;
            stroke-dashoffset: 943;
            stroke-width: 128;
          }
          75% {
            animation-timing-function: step-end;
            stroke: blue;
            stroke-dashoffset: 0;
            stroke-width: 128;
          }
          to {
            stroke: black;
            stroke-width: 1024;
          }
        }
        #make-me-a-hanzi-animation-6 {
          animation: keyframes6 1.0174153645833333s both;
          animation-delay: 4.58349609375s;
          animation-timing-function: linear;
        }
      
    </style>
    
      <path d="M 461 804 Q 486 786 513 764 Q 531 751 549 754 Q 561 755 564 772 Q 568 790 553 822 Q 538 850 448 858 Q 430 859 424 855 Q 418 851 422 836 Q 428 823 461 804 Z" fill="lightgray"></path>
    
      <path d="M 572 417 Q 591 389 609 380 Q 619 373 636 396 Q 652 424 684 581 Q 691 615 716 643 Q 729 656 717 672 Q 699 690 653 716 Q 632 725 566 703 Q 556 700 545 697 Q 440 670 355 643 C 326 634 338 595 366 606 Q 365 607 367 607 Q 442 635 575 666 Q 605 673 615 664 Q 631 646 628 629 Q 600 458 579 446 C 565 426 565 426 572 417 Z" fill="lightgray"></path>
    
      <path d="M 361 502 Q 398 496 491 522 Q 557 541 561 544 Q 568 551 563 558 Q 556 568 531 572 Q 506 576 480 563 Q 453 553 424 544 Q 394 535 360 529 C 330 524 331 505 361 502 Z" fill="lightgray"></path>
    
      <path d="M 390 380 Q 492 405 572 417 C 602 422 609 441 579 446 Q 555 455 371 404 Q 367 404 362 402 C 325 392 350 370 390 380 Z" fill="lightgray"></path>
    
      <path d="M 355 643 Q 331 662 311 672 Q 292 679 282 673 Q 272 666 281 649 Q 345 516 299 132 Q 289 92 254 48 Q 241 32 249 8 Q 259 -20 273 -34 Q 286 -43 300 -24 Q 321 7 497 128 Q 518 140 524 149 Q 528 159 518 161 Q 503 161 370 100 Q 351 93 351 110 Q 360 254 361 375 L 362 402 Q 362 454 361 502 L 360 529 Q 360 571 366 606 C 370 632 370 632 355 643 Z" fill="lightgray"></path>
    
      <path d="M 574 234 Q 632 271 665 297 Q 743 360 772 371 Q 796 381 784 402 Q 769 421 740 438 Q 713 453 699 450 Q 684 449 689 433 Q 695 400 625 323 Q 592 287 557 247 C 537 224 549 218 574 234 Z" fill="lightgray"></path>
    
      <path d="M 557 247 Q 478 308 390 380 C 367 399 340 396 361 375 Q 692 44 733 28 Q 761 22 892 41 Q 938 48 962 54 Q 975 58 976 65 Q 975 72 954 79 Q 747 118 678 161 Q 675 164 674 164 Q 625 197 574 234 L 557 247 Z" fill="lightgray"></path>
    
    
      <clipPath id="make-me-a-hanzi-clip-0">
        <path d="M 461 804 Q 486 786 513 764 Q 531 751 549 754 Q 561 755 564 772 Q 568 790 553 822 Q 538 850 448 858 Q 430 859 424 855 Q 418 851 422 836 Q 428 823 461 804 Z"></path>
      </clipPath>
      <path clip-path="url(#make-me-a-hanzi-clip-0)" d="M 431 847 L 521 804 L 546 772" fill="none" id="make-me-a-hanzi-animation-0" stroke-dasharray="268 536" stroke-linecap="round"></path>
    
      <clipPath id="make-me-a-hanzi-clip-1">
        <path d="M 572 417 Q 591 389 609 380 Q 619 373 636 396 Q 652 424 684 581 Q 691 615 716 643 Q 729 656 717 672 Q 699 690 653 716 Q 632 725 566 703 Q 556 700 545 697 Q 440 670 355 643 C 326 634 338 595 366 606 Q 365 607 367 607 Q 442 635 575 666 Q 605 673 615 664 Q 631 646 628 629 Q 600 458 579 446 C 565 426 565 426 572 417 Z"></path>
      </clipPath>
      <path clip-path="url(#make-me-a-hanzi-clip-1)" d="M 370 615 L 380 632 L 582 688 L 618 692 L 645 682 L 669 655 L 669 648 L 628 472 L 611 428 L 614 398" fill="none" id="make-me-a-hanzi-animation-1" stroke-dasharray="724 1448" stroke-linecap="round"></path>
    
      <clipPath id="make-me-a-hanzi-clip-2">
        <path d="M 361 502 Q 398 496 491 522 Q 557 541 561 544 Q 568 551 563 558 Q 556 568 531 572 Q 506 576 480 563 Q 453 553 424 544 Q 394 535 360 529 C 330 524 331 505 361 502 Z"></path>
      </clipPath>
      <path clip-path="url(#make-me-a-hanzi-clip-2)" d="M 366 509 L 505 549 L 555 552" fill="none" id="make-me-a-hanzi-animation-2" stroke-dasharray="323 646" stroke-linecap="round"></path>
    
      <clipPath id="make-me-a-hanzi-clip-3">
        <path d="M 390 380 Q 492 405 572 417 C 602 422 609 441 579 446 Q 555 455 371 404 Q 367 404 362 402 C 325 392 350 370 390 380 Z"></path>
      </clipPath>
      <path clip-path="url(#make-me-a-hanzi-clip-3)" d="M 367 382 L 387 397 L 558 431 L 575 439" fill="none" id="make-me-a-hanzi-animation-3" stroke-dasharray="346 692" stroke-linecap="round"></path>
    
      <clipPath id="make-me-a-hanzi-clip-4">
        <path d="M 355 643 Q 331 662 311 672 Q 292 679 282 673 Q 272 666 281 649 Q 345 516 299 132 Q 289 92 254 48 Q 241 32 249 8 Q 259 -20 273 -34 Q 286 -43 300 -24 Q 321 7 497 128 Q 518 140 524 149 Q 528 159 518 161 Q 503 161 370 100 Q 351 93 351 110 Q 360 254 361 375 L 362 402 Q 362 454 361 502 L 360 529 Q 360 571 366 606 C 370 632 370 632 355 643 Z"></path>
      </clipPath>
      <path clip-path="url(#make-me-a-hanzi-clip-4)" d="M 291 662 L 321 632 L 329 615 L 339 495 L 339 325 L 321 100 L 325 62 L 380 75 L 517 153" fill="none" id="make-me-a-hanzi-animation-4" stroke-dasharray="958 1916" stroke-linecap="round"></path>
    
      <clipPath id="make-me-a-hanzi-clip-5">
        <path d="M 574 234 Q 632 271 665 297 Q 743 360 772 371 Q 796 381 784 402 Q 769 421 740 438 Q 713 453 699 450 Q 684 449 689 433 Q 695 400 625 323 Q 592 287 557 247 C 537 224 549 218 574 234 Z"></path>
      </clipPath>
      <path clip-path="url(#make-me-a-hanzi-clip-5)" d="M 698 439 L 711 428 L 727 396 L 659 322 L 577 249 L 566 249" fill="none" id="make-me-a-hanzi-animation-5" stroke-dasharray="402 804" stroke-linecap="round"></path>
    
      <clipPath id="make-me-a-hanzi-clip-6">
        <path d="M 557 247 Q 478 308 390 380 C 367 399 340 396 361 375 Q 692 44 733 28 Q 761 22 892 41 Q 938 48 962 54 Q 975 58 976 65 Q 975 72 954 79 Q 747 118 678 161 Q 675 164 674 164 Q 625 197 574 234 L 557 247 Z"></path>
      </clipPath>
      <path clip-path="url(#make-me-a-hanzi-clip-6)" d="M 385 368 L 594 184 L 659 132 L 740 81 L 791 71 L 969 65" fill="none" id="make-me-a-hanzi-animation-6" stroke-dasharray="815 1630" stroke-linecap="round"></path>
    
  </g>
</svg>