<svg version="1.1" viewBox="0 0 1024 1024" xmlns="http://www.w3.org/2000/svg">
  <g stroke="lightgray" stroke-dasharray="1,1" stroke-width="1" transform="scale(4, 4)">
    <line x1="0" y1="0" x2="256" y2="256"></line>
    <line x1="256" y1="0" x2="0" y2="256"></line>
    <line x1="128" y1="0" x2="128" y2="256"></line>
    <line x1="0" y1="128" x2="256" y2="128"></line>
  </g>
  <g transform="scale(1, -1) translate(0, -900)">
    <style type="text/css">
      
        @keyframes keyframes0 {
          from {
            stroke: blue;
            stroke-dashoffset: 424;
            stroke-width: 128;
          }
          58% {
            animation-timing-function: step-end;
            stroke: blue;
            stroke-dashoffset: 0;
            stroke-width: 128;
          }
          to {
            stroke: black;
            stroke-width: 1024;
          }
        }
        #make-me-a-hanzi-animation-0 {
          animation: keyframes0 0.5950520833333334s both;
          animation-delay: 0s;
          animation-timing-function: linear;
        }
      
        @keyframes keyframes1 {
          from {
            stroke: blue;
            stroke-dashoffset: 537;
            stroke-width: 128;
          }
          64% {
            animation-timing-function: step-end;
            stroke: blue;
            stroke-dashoffset: 0;
            stroke-width: 128;
          }
          to {
            stroke: black;
            stroke-width: 1024;
          }
        }
        #make-me-a-hanzi-animation-1 {
          animation: keyframes1 0.68701171875s both;
          animation-delay: 0.5950520833333334s;
          animation-timing-function: linear;
        }
      
        @keyframes keyframes2 {
          from {
            stroke: blue;
            stroke-dashoffset: 557;
            stroke-width: 128;
          }
          64% {
            animation-timing-function: step-end;
            stroke: blue;
            stroke-dashoffset: 0;
            stroke-width: 128;
          }
          to {
            stroke: black;
            stroke-width: 1024;
          }
        }
        #make-me-a-hanzi-animation-2 {
          animation: keyframes2 0.7032877604166666s both;
          animation-delay: 1.2820638020833335s;
          animation-timing-function: linear;
        }
      
        @keyframes keyframes3 {
          from {
            stroke: blue;
            stroke-dashoffset: 422;
            stroke-width: 128;
          }
          58% {
            animation-timing-function: step-end;
            stroke: blue;
            stroke-dashoffset: 0;
            stroke-width: 128;
          }
          to {
            stroke: black;
            stroke-width: 1024;
          }
        }
        #make-me-a-hanzi-animation-3 {
          animation: keyframes3 0.5934244791666666s both;
          animation-delay: 1.9853515625s;
          animation-timing-function: linear;
        }
      
        @keyframes keyframes4 {
          from {
            stroke: blue;
            stroke-dashoffset: 714;
            stroke-width: 128;
          }
          70% {
            animation-timing-function: step-end;
            stroke: blue;
            stroke-dashoffset: 0;
            stroke-width: 128;
          }
          to {
            stroke: black;
            stroke-width: 1024;
          }
        }
        #make-me-a-hanzi-animation-4 {
          animation: keyframes4 0.8310546875s both;
          animation-delay: 2.5787760416666665s;
          animation-timing-function: linear;
        }
      
        @keyframes keyframes5 {
          from {
            stroke: blue;
            stroke-dashoffset: 970;
            stroke-width: 128;
          }
          76% {
            animation-timing-function: step-end;
            stroke: blue;
            stroke-dashoffset: 0;
            stroke-width: 128;
          }
          to {
            stroke: black;
            stroke-width: 1024;
          }
        }
        #make-me-a-hanzi-animation-5 {
          animation: keyframes5 1.0393880208333333s both;
          animation-delay: 3.4098307291666665s;
          animation-timing-function: linear;
        }
      
        @keyframes keyframes6 {
          from {
            stroke: blue;
            stroke-dashoffset: 1133;
            stroke-width: 128;
          }
          79% {
            animation-timing-function: step-end;
            stroke: blue;
            stroke-dashoffset: 0;
            stroke-width: 128;
          }
          to {
            stroke: black;
            stroke-width: 1024;
          }
        }
        #make-me-a-hanzi-animation-6 {
          animation: keyframes6 1.1720377604166667s both;
          animation-delay: 4.44921875s;
          animation-timing-function: linear;
        }
      
    </style>
    
      <path d="M 347 610 Q 299 606 229 595 Q 202 596 188 596 Q 178 596 176 592 Q 173 583 180 575 Q 193 562 221 550 Q 239 541 255 547 Q 303 563 356 582 C 384 592 377 613 347 610 Z" fill="lightgray"></path>
    
      <path d="M 418 450 Q 418 457 390 680 Q 391 701 369 705 Q 330 723 305 715 Q 287 705 304 686 Q 332 650 347 610 L 356 582 Q 362 569 378 475 Q 382 460 391 448 C 407 423 421 420 418 450 Z" fill="lightgray"></path>
    
      <path d="M 625 486 Q 634 501 674 606 L 685 640 Q 695 670 715 705 Q 728 720 718 730 Q 705 746 670 763 Q 654 772 636 763 Q 626 756 635 745 Q 656 694 598 508 Q 594 492 593 479 C 590 449 611 459 625 486 Z" fill="lightgray"></path>
    
      <path d="M 674 606 Q 689 603 760 609 Q 805 609 830 606 Q 843 605 848 613 Q 852 623 840 635 Q 795 671 711 645 Q 698 644 685 640 C 656 632 644 610 674 606 Z" fill="lightgray"></path>
    
      <path d="M 538 423 Q 586 432 726 444 Q 736 441 747 455 Q 748 468 725 480 Q 685 504 627 487 Q 626 487 625 486 L 593 479 Q 565 475 538 468 L 489 459 Q 452 455 418 450 L 391 448 Q 342 444 290 439 Q 259 436 282 417 Q 318 387 348 393 Q 411 405 488 415 L 538 423 Z" fill="lightgray"></path>
    
      <path d="M 539 277 Q 680 287 853 277 Q 875 277 882 286 Q 889 299 870 316 Q 813 362 769 354 Q 681 339 538 321 L 485 315 Q 338 302 167 285 Q 143 284 160 263 Q 194 229 239 237 Q 390 273 484 274 L 539 277 Z" fill="lightgray"></path>
    
      <path d="M 484 -8 Q 490 -35 497 -45 Q 503 -52 511 -50 Q 526 -41 533 22 Q 537 82 539 277 L 538 321 Q 538 364 538 423 L 538 468 Q 538 690 554 776 Q 558 795 543 804 Q 509 826 492 830 Q 479 834 462 825 Q 453 816 461 806 Q 488 746 491 723 Q 491 554 489 459 L 488 415 Q 487 369 485 315 L 484 274 Q 472 115 484 -8 Z" fill="lightgray"></path>
    
    
      <clipPath id="make-me-a-hanzi-clip-0">
        <path d="M 347 610 Q 299 606 229 595 Q 202 596 188 596 Q 178 596 176 592 Q 173 583 180 575 Q 193 562 221 550 Q 239 541 255 547 Q 303 563 356 582 C 384 592 377 613 347 610 Z"></path>
      </clipPath>
      <path clip-path="url(#make-me-a-hanzi-clip-0)" d="M 184 587 L 235 571 L 335 592 L 346 586" fill="none" id="make-me-a-hanzi-animation-0" stroke-dasharray="296 592" stroke-linecap="round"></path>
    
      <clipPath id="make-me-a-hanzi-clip-1">
        <path d="M 418 450 Q 418 457 390 680 Q 391 701 369 705 Q 330 723 305 715 Q 287 705 304 686 Q 332 650 347 610 L 356 582 Q 362 569 378 475 Q 382 460 391 448 C 407 423 421 420 418 450 Z"></path>
      </clipPath>
      <path clip-path="url(#make-me-a-hanzi-clip-1)" d="M 312 700 L 349 679 L 361 658 L 388 543 L 392 490 L 411 451" fill="none" id="make-me-a-hanzi-animation-1" stroke-dasharray="409 818" stroke-linecap="round"></path>
    
      <clipPath id="make-me-a-hanzi-clip-2">
        <path d="M 625 486 Q 634 501 674 606 L 685 640 Q 695 670 715 705 Q 728 720 718 730 Q 705 746 670 763 Q 654 772 636 763 Q 626 756 635 745 Q 656 694 598 508 Q 594 492 593 479 C 590 449 611 459 625 486 Z"></path>
      </clipPath>
      <path clip-path="url(#make-me-a-hanzi-clip-2)" d="M 642 754 L 657 746 L 678 715 L 630 545 L 614 501 L 597 485" fill="none" id="make-me-a-hanzi-animation-2" stroke-dasharray="429 858" stroke-linecap="round"></path>
    
      <clipPath id="make-me-a-hanzi-clip-3">
        <path d="M 674 606 Q 689 603 760 609 Q 805 609 830 606 Q 843 605 848 613 Q 852 623 840 635 Q 795 671 711 645 Q 698 644 685 640 C 656 632 644 610 674 606 Z"></path>
      </clipPath>
      <path clip-path="url(#make-me-a-hanzi-clip-3)" d="M 678 611 L 700 624 L 757 632 L 795 632 L 838 618" fill="none" id="make-me-a-hanzi-animation-3" stroke-dasharray="294 588" stroke-linecap="round"></path>
    
      <clipPath id="make-me-a-hanzi-clip-4">
        <path d="M 538 423 Q 586 432 726 444 Q 736 441 747 455 Q 748 468 725 480 Q 685 504 627 487 Q 626 487 625 486 L 593 479 Q 565 475 538 468 L 489 459 Q 452 455 418 450 L 391 448 Q 342 444 290 439 Q 259 436 282 417 Q 318 387 348 393 Q 411 405 488 415 L 538 423 Z"></path>
      </clipPath>
      <path clip-path="url(#make-me-a-hanzi-clip-4)" d="M 284 429 L 340 418 L 655 465 L 699 466 L 736 457" fill="none" id="make-me-a-hanzi-animation-4" stroke-dasharray="586 1172" stroke-linecap="round"></path>
    
      <clipPath id="make-me-a-hanzi-clip-5">
        <path d="M 539 277 Q 680 287 853 277 Q 875 277 882 286 Q 889 299 870 316 Q 813 362 769 354 Q 681 339 538 321 L 485 315 Q 338 302 167 285 Q 143 284 160 263 Q 194 229 239 237 Q 390 273 484 274 L 539 277 Z"></path>
      </clipPath>
      <path clip-path="url(#make-me-a-hanzi-clip-5)" d="M 164 274 L 219 262 L 434 292 L 786 318 L 870 293" fill="none" id="make-me-a-hanzi-animation-5" stroke-dasharray="842 1684" stroke-linecap="round"></path>
    
      <clipPath id="make-me-a-hanzi-clip-6">
        <path d="M 484 -8 Q 490 -35 497 -45 Q 503 -52 511 -50 Q 526 -41 533 22 Q 537 82 539 277 L 538 321 Q 538 364 538 423 L 538 468 Q 538 690 554 776 Q 558 795 543 804 Q 509 826 492 830 Q 479 834 462 825 Q 453 816 461 806 Q 488 746 491 723 Q 491 554 489 459 L 488 415 Q 487 369 485 315 L 484 274 Q 472 115 484 -8 Z"></path>
      </clipPath>
      <path clip-path="url(#make-me-a-hanzi-clip-6)" d="M 470 815 L 496 799 L 515 776 L 519 733 L 507 -40" fill="none" id="make-me-a-hanzi-animation-6" stroke-dasharray="1005 2010" stroke-linecap="round"></path>
    
  </g>
</svg>