<svg version="1.1" viewBox="0 0 1024 1024" xmlns="http://www.w3.org/2000/svg">
  <g stroke="lightgray" stroke-dasharray="1,1" stroke-width="1" transform="scale(4, 4)">
    <line x1="0" y1="0" x2="256" y2="256"></line>
    <line x1="256" y1="0" x2="0" y2="256"></line>
    <line x1="128" y1="0" x2="128" y2="256"></line>
    <line x1="0" y1="128" x2="256" y2="128"></line>
  </g>
  <g transform="scale(1, -1) translate(0, -900)">
    <style type="text/css">
      
        @keyframes keyframes0 {
          from {
            stroke: blue;
            stroke-dashoffset: 913;
            stroke-width: 128;
          }
          75% {
            animation-timing-function: step-end;
            stroke: blue;
            stroke-dashoffset: 0;
            stroke-width: 128;
          }
          to {
            stroke: black;
            stroke-width: 1024;
          }
        }
        #make-me-a-hanzi-animation-0 {
          animation: keyframes0 0.9930013020833334s both;
          animation-delay: 0s;
          animation-timing-function: linear;
        }
      
        @keyframes keyframes1 {
          from {
            stroke: blue;
            stroke-dashoffset: 460;
            stroke-width: 128;
          }
          60% {
            animation-timing-function: step-end;
            stroke: blue;
            stroke-dashoffset: 0;
            stroke-width: 128;
          }
          to {
            stroke: black;
            stroke-width: 1024;
          }
        }
        #make-me-a-hanzi-animation-1 {
          animation: keyframes1 0.6243489583333334s both;
          animation-delay: 0.9930013020833334s;
          animation-timing-function: linear;
        }
      
        @keyframes keyframes2 {
          from {
            stroke: blue;
            stroke-dashoffset: 506;
            stroke-width: 128;
          }
          62% {
            animation-timing-function: step-end;
            stroke: blue;
            stroke-dashoffset: 0;
            stroke-width: 128;
          }
          to {
            stroke: black;
            stroke-width: 1024;
          }
        }
        #make-me-a-hanzi-animation-2 {
          animation: keyframes2 0.6617838541666666s both;
          animation-delay: 1.6173502604166667s;
          animation-timing-function: linear;
        }
      
        @keyframes keyframes3 {
          from {
            stroke: blue;
            stroke-dashoffset: 707;
            stroke-width: 128;
          }
          70% {
            animation-timing-function: step-end;
            stroke: blue;
            stroke-dashoffset: 0;
            stroke-width: 128;
          }
          to {
            stroke: black;
            stroke-width: 1024;
          }
        }
        #make-me-a-hanzi-animation-3 {
          animation: keyframes3 0.8253580729166666s both;
          animation-delay: 2.2791341145833335s;
          animation-timing-function: linear;
        }
      
        @keyframes keyframes4 {
          from {
            stroke: blue;
            stroke-dashoffset: 600;
            stroke-width: 128;
          }
          66% {
            animation-timing-function: step-end;
            stroke: blue;
            stroke-dashoffset: 0;
            stroke-width: 128;
          }
          to {
            stroke: black;
            stroke-width: 1024;
          }
        }
        #make-me-a-hanzi-animation-4 {
          animation: keyframes4 0.73828125s both;
          animation-delay: 3.1044921875s;
          animation-timing-function: linear;
        }
      
        @keyframes keyframes5 {
          from {
            stroke: blue;
            stroke-dashoffset: 914;
            stroke-width: 128;
          }
          75% {
            animation-timing-function: step-end;
            stroke: blue;
            stroke-dashoffset: 0;
            stroke-width: 128;
          }
          to {
            stroke: black;
            stroke-width: 1024;
          }
        }
        #make-me-a-hanzi-animation-5 {
          animation: keyframes5 0.9938151041666666s both;
          animation-delay: 3.8427734375s;
          animation-timing-function: linear;
        }
      
        @keyframes keyframes6 {
          from {
            stroke: blue;
            stroke-dashoffset: 633;
            stroke-width: 128;
          }
          67% {
            animation-timing-function: step-end;
            stroke: blue;
            stroke-dashoffset: 0;
            stroke-width: 128;
          }
          to {
            stroke: black;
            stroke-width: 1024;
          }
        }
        #make-me-a-hanzi-animation-6 {
          animation: keyframes6 0.76513671875s both;
          animation-delay: 4.836588541666667s;
          animation-timing-function: linear;
        }
      
        @keyframes keyframes7 {
          from {
            stroke: blue;
            stroke-dashoffset: 920;
            stroke-width: 128;
          }
          75% {
            animation-timing-function: step-end;
            stroke: blue;
            stroke-dashoffset: 0;
            stroke-width: 128;
          }
          to {
            stroke: black;
            stroke-width: 1024;
          }
        }
        #make-me-a-hanzi-animation-7 {
          animation: keyframes7 0.9986979166666666s both;
          animation-delay: 5.601725260416667s;
          animation-timing-function: linear;
        }
      
    </style>
    
      <path d="M 639 676 Q 729 688 825 681 Q 841 680 847 690 Q 853 702 838 717 Q 784 762 690 736 Q 675 735 660 730 L 603 720 Q 519 707 430 693 L 377 686 Q 289 676 192 664 Q 161 660 183 644 Q 225 616 302 630 Q 345 643 388 650 L 434 658 Q 507 668 593 673 L 639 676 Z" fill="lightgray"></path>
    
      <path d="M 430 693 Q 427 718 426 740 Q 427 759 405 765 Q 366 783 341 775 Q 323 765 339 746 Q 364 719 377 686 L 388 650 Q 394 634 398 615 Q 405 593 419 580 Q 432 570 437 582 Q 440 594 434 658 L 430 693 Z" fill="lightgray"></path>
    
      <path d="M 660 730 Q 667 752 683 781 Q 696 797 686 806 Q 673 822 638 839 Q 622 848 604 838 Q 594 832 603 821 Q 613 799 603 720 L 593 673 Q 580 628 582 603 Q 583 590 599 601 Q 608 610 639 676 L 660 730 Z" fill="lightgray"></path>
    
      <path d="M 678 440 Q 700 494 730 511 Q 746 530 732 549 Q 656 606 603 580 Q 486 535 335 512 C 305 507 329 473 358 479 Q 490 507 623 537 Q 629 536 634 531 Q 641 524 639 509 Q 633 478 626 450 C 619 421 666 413 678 440 Z" fill="lightgray"></path>
    
      <path d="M 555 388 Q 613 398 687 405 Q 699 406 700 417 Q 700 424 678 440 L 626 450 Q 619 451 612 448 Q 467 409 351 391 C 321 386 322 362 351 356 Q 352 356 355 355 Q 367 352 382 356 Q 430 369 507 380 L 555 388 Z" fill="lightgray"></path>
    
      <path d="M 335 512 Q 319 524 304 531 Q 285 538 276 533 Q 266 526 275 510 Q 326 404 289 136 Q 279 99 244 58 Q 231 43 237 20 Q 247 -8 259 -20 Q 272 -29 285 -13 Q 304 14 464 114 Q 486 124 491 134 Q 497 143 486 145 Q 477 145 359 103 Q 337 96 339 114 Q 351 249 351 356 L 351 391 Q 351 398 351 403 Q 354 440 358 479 C 360 496 360 496 335 512 Z" fill="lightgray"></path>
    
      <path d="M 620 243 Q 768 280 776 287 Q 785 296 780 304 Q 771 316 742 322 Q 711 328 680 315 Q 643 302 604 288 L 557 274 Q 487 258 409 246 Q 372 239 399 223 Q 444 199 499 214 Q 535 223 573 231 L 620 243 Z" fill="lightgray"></path>
    
      <path d="M 573 231 Q 625 96 736 15 Q 808 -33 850 -39 Q 875 -36 869 -5 Q 862 26 871 171 Q 872 184 866 185 Q 860 186 857 173 Q 841 139 827 106 Q 808 61 792 63 Q 779 62 748 84 Q 717 105 686 142 Q 643 193 620 243 L 604 288 Q 592 310 600 347 Q 603 371 555 388 C 527 400 489 404 507 380 Q 508 379 510 374 Q 534 352 547 307 Q 551 291 557 274 L 573 231 Z" fill="lightgray"></path>
    
    
      <clipPath id="make-me-a-hanzi-clip-0">
        <path d="M 639 676 Q 729 688 825 681 Q 841 680 847 690 Q 853 702 838 717 Q 784 762 690 736 Q 675 735 660 730 L 603 720 Q 519 707 430 693 L 377 686 Q 289 676 192 664 Q 161 660 183 644 Q 225 616 302 630 Q 345 643 388 650 L 434 658 Q 507 668 593 673 L 639 676 Z"></path>
      </clipPath>
      <path clip-path="url(#make-me-a-hanzi-clip-0)" d="M 185 655 L 230 647 L 273 649 L 473 682 L 751 715 L 798 710 L 834 697" fill="none" id="make-me-a-hanzi-animation-0" stroke-dasharray="785 1570" stroke-linecap="round"></path>
    
      <clipPath id="make-me-a-hanzi-clip-1">
        <path d="M 430 693 Q 427 718 426 740 Q 427 759 405 765 Q 366 783 341 775 Q 323 765 339 746 Q 364 719 377 686 L 388 650 Q 394 634 398 615 Q 405 593 419 580 Q 432 570 437 582 Q 440 594 434 658 L 430 693 Z"></path>
      </clipPath>
      <path clip-path="url(#make-me-a-hanzi-clip-1)" d="M 348 760 L 393 731 L 428 585" fill="none" id="make-me-a-hanzi-animation-1" stroke-dasharray="332 664" stroke-linecap="round"></path>
    
      <clipPath id="make-me-a-hanzi-clip-2">
        <path d="M 660 730 Q 667 752 683 781 Q 696 797 686 806 Q 673 822 638 839 Q 622 848 604 838 Q 594 832 603 821 Q 613 799 603 720 L 593 673 Q 580 628 582 603 Q 583 590 599 601 Q 608 610 639 676 L 660 730 Z"></path>
      </clipPath>
      <path clip-path="url(#make-me-a-hanzi-clip-2)" d="M 609 829 L 626 821 L 646 791 L 616 674 L 591 604" fill="none" id="make-me-a-hanzi-animation-2" stroke-dasharray="378 756" stroke-linecap="round"></path>
    
      <clipPath id="make-me-a-hanzi-clip-3">
        <path d="M 678 440 Q 700 494 730 511 Q 746 530 732 549 Q 656 606 603 580 Q 486 535 335 512 C 305 507 329 473 358 479 Q 490 507 623 537 Q 629 536 634 531 Q 641 524 639 509 Q 633 478 626 450 C 619 421 666 413 678 440 Z"></path>
      </clipPath>
      <path clip-path="url(#make-me-a-hanzi-clip-3)" d="M 344 510 L 366 499 L 534 536 L 618 561 L 636 561 L 655 555 L 682 529 L 661 473 L 634 456" fill="none" id="make-me-a-hanzi-animation-3" stroke-dasharray="579 1158" stroke-linecap="round"></path>
    
      <clipPath id="make-me-a-hanzi-clip-4">
        <path d="M 555 388 Q 613 398 687 405 Q 699 406 700 417 Q 700 424 678 440 L 626 450 Q 619 451 612 448 Q 467 409 351 391 C 321 386 322 362 351 356 Q 352 356 355 355 Q 367 352 382 356 Q 430 369 507 380 L 555 388 Z"></path>
      </clipPath>
      <path clip-path="url(#make-me-a-hanzi-clip-4)" d="M 355 362 L 370 374 L 610 422 L 668 423 L 689 417" fill="none" id="make-me-a-hanzi-animation-4" stroke-dasharray="472 944" stroke-linecap="round"></path>
    
      <clipPath id="make-me-a-hanzi-clip-5">
        <path d="M 335 512 Q 319 524 304 531 Q 285 538 276 533 Q 266 526 275 510 Q 326 404 289 136 Q 279 99 244 58 Q 231 43 237 20 Q 247 -8 259 -20 Q 272 -29 285 -13 Q 304 14 464 114 Q 486 124 491 134 Q 497 143 486 145 Q 477 145 359 103 Q 337 96 339 114 Q 351 249 351 356 L 351 391 Q 351 398 351 403 Q 354 440 358 479 C 360 496 360 496 335 512 Z"></path>
      </clipPath>
      <path clip-path="url(#make-me-a-hanzi-clip-5)" d="M 284 522 L 315 490 L 324 470 L 326 443 L 327 280 L 310 69 L 363 77 L 485 138" fill="none" id="make-me-a-hanzi-animation-5" stroke-dasharray="786 1572" stroke-linecap="round"></path>
    
      <clipPath id="make-me-a-hanzi-clip-6">
        <path d="M 620 243 Q 768 280 776 287 Q 785 296 780 304 Q 771 316 742 322 Q 711 328 680 315 Q 643 302 604 288 L 557 274 Q 487 258 409 246 Q 372 239 399 223 Q 444 199 499 214 Q 535 223 573 231 L 620 243 Z"></path>
      </clipPath>
      <path clip-path="url(#make-me-a-hanzi-clip-6)" d="M 401 236 L 424 230 L 473 232 L 627 268 L 708 295 L 769 298" fill="none" id="make-me-a-hanzi-animation-6" stroke-dasharray="505 1010" stroke-linecap="round"></path>
    
      <clipPath id="make-me-a-hanzi-clip-7">
        <path d="M 573 231 Q 625 96 736 15 Q 808 -33 850 -39 Q 875 -36 869 -5 Q 862 26 871 171 Q 872 184 866 185 Q 860 186 857 173 Q 841 139 827 106 Q 808 61 792 63 Q 779 62 748 84 Q 717 105 686 142 Q 643 193 620 243 L 604 288 Q 592 310 600 347 Q 603 371 555 388 C 527 400 489 404 507 380 Q 508 379 510 374 Q 534 352 547 307 Q 551 291 557 274 L 573 231 Z"></path>
      </clipPath>
      <path clip-path="url(#make-me-a-hanzi-clip-7)" d="M 513 379 L 566 349 L 572 308 L 598 232 L 644 150 L 702 82 L 762 36 L 819 21 L 842 79 L 865 177" fill="none" id="make-me-a-hanzi-animation-7" stroke-dasharray="792 1584" stroke-linecap="round"></path>
    
  </g>
</svg>