<svg version="1.1" viewBox="0 0 1024 1024" xmlns="http://www.w3.org/2000/svg">
  <g stroke="lightgray" stroke-dasharray="1,1" stroke-width="1" transform="scale(4, 4)">
    <line x1="0" y1="0" x2="256" y2="256"></line>
    <line x1="256" y1="0" x2="0" y2="256"></line>
    <line x1="128" y1="0" x2="128" y2="256"></line>
    <line x1="0" y1="128" x2="256" y2="128"></line>
  </g>
  <g transform="scale(1, -1) translate(0, -900)">
    <style type="text/css">
      
        @keyframes keyframes0 {
          from {
            stroke: blue;
            stroke-dashoffset: 888;
            stroke-width: 128;
          }
          74% {
            animation-timing-function: step-end;
            stroke: blue;
            stroke-dashoffset: 0;
            stroke-width: 128;
          }
          to {
            stroke: black;
            stroke-width: 1024;
          }
        }
        #make-me-a-hanzi-animation-0 {
          animation: keyframes0 0.97265625s both;
          animation-delay: 0s;
          animation-timing-function: linear;
        }
      
        @keyframes keyframes1 {
          from {
            stroke: blue;
            stroke-dashoffset: 446;
            stroke-width: 128;
          }
          59% {
            animation-timing-function: step-end;
            stroke: blue;
            stroke-dashoffset: 0;
            stroke-width: 128;
          }
          to {
            stroke: black;
            stroke-width: 1024;
          }
        }
        #make-me-a-hanzi-animation-1 {
          animation: keyframes1 0.6129557291666666s both;
          animation-delay: 0.97265625s;
          animation-timing-function: linear;
        }
      
        @keyframes keyframes2 {
          from {
            stroke: blue;
            stroke-dashoffset: 465;
            stroke-width: 128;
          }
          60% {
            animation-timing-function: step-end;
            stroke: blue;
            stroke-dashoffset: 0;
            stroke-width: 128;
          }
          to {
            stroke: black;
            stroke-width: 1024;
          }
        }
        #make-me-a-hanzi-animation-2 {
          animation: keyframes2 0.62841796875s both;
          animation-delay: 1.5856119791666665s;
          animation-timing-function: linear;
        }
      
        @keyframes keyframes3 {
          from {
            stroke: blue;
            stroke-dashoffset: 596;
            stroke-width: 128;
          }
          66% {
            animation-timing-function: step-end;
            stroke: blue;
            stroke-dashoffset: 0;
            stroke-width: 128;
          }
          to {
            stroke: black;
            stroke-width: 1024;
          }
        }
        #make-me-a-hanzi-animation-3 {
          animation: keyframes3 0.7350260416666666s both;
          animation-delay: 2.2140299479166665s;
          animation-timing-function: linear;
        }
      
        @keyframes keyframes4 {
          from {
            stroke: blue;
            stroke-dashoffset: 720;
            stroke-width: 128;
          }
          70% {
            animation-timing-function: step-end;
            stroke: blue;
            stroke-dashoffset: 0;
            stroke-width: 128;
          }
          to {
            stroke: black;
            stroke-width: 1024;
          }
        }
        #make-me-a-hanzi-animation-4 {
          animation: keyframes4 0.8359375s both;
          animation-delay: 2.949055989583333s;
          animation-timing-function: linear;
        }
      
        @keyframes keyframes5 {
          from {
            stroke: blue;
            stroke-dashoffset: 639;
            stroke-width: 128;
          }
          68% {
            animation-timing-function: step-end;
            stroke: blue;
            stroke-dashoffset: 0;
            stroke-width: 128;
          }
          to {
            stroke: black;
            stroke-width: 1024;
          }
        }
        #make-me-a-hanzi-animation-5 {
          animation: keyframes5 0.77001953125s both;
          animation-delay: 3.784993489583333s;
          animation-timing-function: linear;
        }
      
        @keyframes keyframes6 {
          from {
            stroke: blue;
            stroke-dashoffset: 1237;
            stroke-width: 128;
          }
          80% {
            animation-timing-function: step-end;
            stroke: blue;
            stroke-dashoffset: 0;
            stroke-width: 128;
          }
          to {
            stroke: black;
            stroke-width: 1024;
          }
        }
        #make-me-a-hanzi-animation-6 {
          animation: keyframes6 1.2566731770833333s both;
          animation-delay: 4.555013020833333s;
          animation-timing-function: linear;
        }
      
        @keyframes keyframes7 {
          from {
            stroke: blue;
            stroke-dashoffset: 1138;
            stroke-width: 128;
          }
          79% {
            animation-timing-function: step-end;
            stroke: blue;
            stroke-dashoffset: 0;
            stroke-width: 128;
          }
          to {
            stroke: black;
            stroke-width: 1024;
          }
        }
        #make-me-a-hanzi-animation-7 {
          animation: keyframes7 1.1761067708333333s both;
          animation-delay: 5.811686197916666s;
          animation-timing-function: linear;
        }
      
        @keyframes keyframes8 {
          from {
            stroke: blue;
            stroke-dashoffset: 749;
            stroke-width: 128;
          }
          71% {
            animation-timing-function: step-end;
            stroke: blue;
            stroke-dashoffset: 0;
            stroke-width: 128;
          }
          to {
            stroke: black;
            stroke-width: 1024;
          }
        }
        #make-me-a-hanzi-animation-8 {
          animation: keyframes8 0.8595377604166666s both;
          animation-delay: 6.987792968749999s;
          animation-timing-function: linear;
        }
      
    </style>
    
      <path d="M 611 709 Q 674 718 789 705 Q 805 704 810 713 Q 814 723 803 738 Q 755 783 656 760 Q 646 760 637 757 L 578 749 Q 479 739 365 727 L 314 722 Q 250 719 180 713 Q 150 710 170 695 Q 216 664 289 680 Q 305 684 326 686 L 369 693 Q 421 705 567 708 L 611 709 Z" fill="lightgray"></path>
    
      <path d="M 365 727 Q 364 746 363 763 Q 364 782 344 787 Q 305 805 285 796 Q 267 787 283 769 Q 302 748 314 722 L 326 686 Q 338 632 355 615 Q 368 605 372 617 Q 375 626 369 693 L 365 727 Z" fill="lightgray"></path>
    
      <path d="M 637 757 Q 644 772 657 789 Q 672 802 663 813 Q 653 831 620 849 Q 604 859 587 852 Q 577 846 584 835 Q 590 814 578 749 L 567 708 Q 555 678 555 655 Q 556 642 571 651 Q 586 663 611 709 L 637 757 Z" fill="lightgray"></path>
    
      <path d="M 501 549 Q 547 561 597 569 Q 643 579 651 586 Q 658 593 655 601 Q 648 611 622 619 Q 603 623 514 597 L 445 579 Q 384 569 317 562 Q 283 556 307 541 Q 337 522 413 533 Q 429 536 447 539 L 501 549 Z" fill="lightgray"></path>
    
      <path d="M 661 393 Q 680 432 704 442 Q 720 458 707 474 Q 694 487 647 511 Q 631 518 612 512 Q 552 491 496 478 L 448 470 Q 370 457 289 452 Q 273 451 275 441 Q 276 434 294 427 Q 318 417 351 426 Q 400 435 448 442 L 495 450 Q 538 459 581 466 Q 609 473 621 460 Q 627 456 625 445 Q 621 420 614 398 C 606 369 647 367 661 393 Z" fill="lightgray"></path>
    
      <path d="M 489 337 Q 568 349 675 358 Q 685 359 687 368 Q 687 375 661 393 C 647 403 644 403 614 398 Q 613 399 611 398 Q 548 385 491 372 L 446 363 Q 367 351 299 343 Q 298 343 297 342 C 267 337 277 315 307 311 Q 317 308 331 311 Q 376 321 444 331 L 489 337 Z" fill="lightgray"></path>
    
      <path d="M 484 247 Q 713 296 743 268 Q 750 262 750 249 Q 747 177 735 168 Q 726 165 644 186 Q 628 193 627 186 Q 626 176 644 163 Q 684 123 701 90 Q 707 74 721 80 Q 763 98 783 155 Q 816 245 828 252 Q 841 267 835 276 Q 825 288 780 310 Q 758 322 681 304 Q 543 283 486 272 L 439 263 Q 358 250 282 229 Q 270 228 270 235 Q 297 301 307 311 C 316 327 316 327 297 342 Q 290 351 282 356 Q 263 366 254 364 Q 247 361 250 348 Q 265 279 205 227 Q 193 215 200 203 Q 207 193 225 177 Q 234 168 251 177 Q 327 219 437 237 L 484 247 Z" fill="lightgray"></path>
    
      <path d="M 486 272 Q 486 276 487 278 Q 488 308 489 337 L 491 372 Q 492 412 495 450 L 496 478 Q 497 499 499 518 Q 499 536 501 549 L 514 597 Q 518 607 522 619 Q 529 634 518 645 Q 496 664 456 675 Q 431 681 421 674 Q 412 667 420 655 Q 439 621 445 579 L 447 539 Q 448 505 448 470 L 448 442 Q 447 403 446 363 L 444 331 Q 441 298 439 263 L 437 237 Q 424 123 352 69 Q 297 24 173 -16 Q 160 -20 158 -25 Q 158 -29 170 -31 Q 191 -35 240 -23 Q 324 -7 383 40 Q 456 95 477 195 L 482 227 Q 483 237 484 247 L 486 272 Z" fill="lightgray"></path>
    
      <path d="M 477 195 Q 649 -27 699 -41 Q 766 -53 865 -41 Q 884 -40 886 -35 Q 889 -28 874 -22 Q 825 0 767 22 Q 632 79 497 214 Q 488 223 482 227 C 459 246 459 219 477 195 Z" fill="lightgray"></path>
    
    
      <clipPath id="make-me-a-hanzi-clip-0">
        <path d="M 611 709 Q 674 718 789 705 Q 805 704 810 713 Q 814 723 803 738 Q 755 783 656 760 Q 646 760 637 757 L 578 749 Q 479 739 365 727 L 314 722 Q 250 719 180 713 Q 150 710 170 695 Q 216 664 289 680 Q 305 684 326 686 L 369 693 Q 421 705 567 708 L 611 709 Z"></path>
      </clipPath>
      <path clip-path="url(#make-me-a-hanzi-clip-0)" d="M 173 705 L 219 696 L 276 698 L 423 718 L 688 740 L 755 736 L 798 719" fill="none" id="make-me-a-hanzi-animation-0" stroke-dasharray="760 1520" stroke-linecap="round"></path>
    
      <clipPath id="make-me-a-hanzi-clip-1">
        <path d="M 365 727 Q 364 746 363 763 Q 364 782 344 787 Q 305 805 285 796 Q 267 787 283 769 Q 302 748 314 722 L 326 686 Q 338 632 355 615 Q 368 605 372 617 Q 375 626 369 693 L 365 727 Z"></path>
      </clipPath>
      <path clip-path="url(#make-me-a-hanzi-clip-1)" d="M 290 782 L 312 773 L 332 755 L 363 619" fill="none" id="make-me-a-hanzi-animation-1" stroke-dasharray="318 636" stroke-linecap="round"></path>
    
      <clipPath id="make-me-a-hanzi-clip-2">
        <path d="M 637 757 Q 644 772 657 789 Q 672 802 663 813 Q 653 831 620 849 Q 604 859 587 852 Q 577 846 584 835 Q 590 814 578 749 L 567 708 Q 555 678 555 655 Q 556 642 571 651 Q 586 663 611 709 L 637 757 Z"></path>
      </clipPath>
      <path clip-path="url(#make-me-a-hanzi-clip-2)" d="M 592 842 L 606 832 L 622 804 L 564 655" fill="none" id="make-me-a-hanzi-animation-2" stroke-dasharray="337 674" stroke-linecap="round"></path>
    
      <clipPath id="make-me-a-hanzi-clip-3">
        <path d="M 501 549 Q 547 561 597 569 Q 643 579 651 586 Q 658 593 655 601 Q 648 611 622 619 Q 603 623 514 597 L 445 579 Q 384 569 317 562 Q 283 556 307 541 Q 337 522 413 533 Q 429 536 447 539 L 501 549 Z"></path>
      </clipPath>
      <path clip-path="url(#make-me-a-hanzi-clip-3)" d="M 309 553 L 337 547 L 399 551 L 590 593 L 644 596" fill="none" id="make-me-a-hanzi-animation-3" stroke-dasharray="468 936" stroke-linecap="round"></path>
    
      <clipPath id="make-me-a-hanzi-clip-4">
        <path d="M 661 393 Q 680 432 704 442 Q 720 458 707 474 Q 694 487 647 511 Q 631 518 612 512 Q 552 491 496 478 L 448 470 Q 370 457 289 452 Q 273 451 275 441 Q 276 434 294 427 Q 318 417 351 426 Q 400 435 448 442 L 495 450 Q 538 459 581 466 Q 609 473 621 460 Q 627 456 625 445 Q 621 420 614 398 C 606 369 647 367 661 393 Z"></path>
      </clipPath>
      <path clip-path="url(#make-me-a-hanzi-clip-4)" d="M 284 442 L 342 440 L 623 489 L 642 481 L 661 459 L 646 421 L 622 402" fill="none" id="make-me-a-hanzi-animation-4" stroke-dasharray="592 1184" stroke-linecap="round"></path>
    
      <clipPath id="make-me-a-hanzi-clip-5">
        <path d="M 489 337 Q 568 349 675 358 Q 685 359 687 368 Q 687 375 661 393 C 647 403 644 403 614 398 Q 613 399 611 398 Q 548 385 491 372 L 446 363 Q 367 351 299 343 Q 298 343 297 342 C 267 337 277 315 307 311 Q 317 308 331 311 Q 376 321 444 331 L 489 337 Z"></path>
      </clipPath>
      <path clip-path="url(#make-me-a-hanzi-clip-5)" d="M 301 337 L 333 329 L 620 376 L 659 375 L 678 367" fill="none" id="make-me-a-hanzi-animation-5" stroke-dasharray="511 1022" stroke-linecap="round"></path>
    
      <clipPath id="make-me-a-hanzi-clip-6">
        <path d="M 484 247 Q 713 296 743 268 Q 750 262 750 249 Q 747 177 735 168 Q 726 165 644 186 Q 628 193 627 186 Q 626 176 644 163 Q 684 123 701 90 Q 707 74 721 80 Q 763 98 783 155 Q 816 245 828 252 Q 841 267 835 276 Q 825 288 780 310 Q 758 322 681 304 Q 543 283 486 272 L 439 263 Q 358 250 282 229 Q 270 228 270 235 Q 297 301 307 311 C 316 327 316 327 297 342 Q 290 351 282 356 Q 263 366 254 364 Q 247 361 250 348 Q 265 279 205 227 Q 193 215 200 203 Q 207 193 225 177 Q 234 168 251 177 Q 327 219 437 237 L 484 247 Z"></path>
      </clipPath>
      <path clip-path="url(#make-me-a-hanzi-clip-6)" d="M 259 355 L 273 337 L 279 315 L 243 227 L 242 213 L 257 210 L 288 213 L 419 248 L 652 290 L 745 293 L 766 285 L 786 265 L 767 175 L 740 136 L 721 130 L 660 166 L 655 175 L 633 182" fill="none" id="make-me-a-hanzi-animation-6" stroke-dasharray="1109 2218" stroke-linecap="round"></path>
    
      <clipPath id="make-me-a-hanzi-clip-7">
        <path d="M 486 272 Q 486 276 487 278 Q 488 308 489 337 L 491 372 Q 492 412 495 450 L 496 478 Q 497 499 499 518 Q 499 536 501 549 L 514 597 Q 518 607 522 619 Q 529 634 518 645 Q 496 664 456 675 Q 431 681 421 674 Q 412 667 420 655 Q 439 621 445 579 L 447 539 Q 448 505 448 470 L 448 442 Q 447 403 446 363 L 444 331 Q 441 298 439 263 L 437 237 Q 424 123 352 69 Q 297 24 173 -16 Q 160 -20 158 -25 Q 158 -29 170 -31 Q 191 -35 240 -23 Q 324 -7 383 40 Q 456 95 477 195 L 482 227 Q 483 237 484 247 L 486 272 Z"></path>
      </clipPath>
      <path clip-path="url(#make-me-a-hanzi-clip-7)" d="M 429 664 L 479 622 L 464 286 L 457 214 L 445 163 L 413 100 L 365 52 L 315 21 L 261 -2 L 165 -27" fill="none" id="make-me-a-hanzi-animation-7" stroke-dasharray="1010 2020" stroke-linecap="round"></path>
    
      <clipPath id="make-me-a-hanzi-clip-8">
        <path d="M 477 195 Q 649 -27 699 -41 Q 766 -53 865 -41 Q 884 -40 886 -35 Q 889 -28 874 -22 Q 825 0 767 22 Q 632 79 497 214 Q 488 223 482 227 C 459 246 459 219 477 195 Z"></path>
      </clipPath>
      <path clip-path="url(#make-me-a-hanzi-clip-8)" d="M 483 221 L 495 192 L 561 123 L 643 49 L 707 2 L 880 -33" fill="none" id="make-me-a-hanzi-animation-8" stroke-dasharray="621 1242" stroke-linecap="round"></path>
    
  </g>
</svg>