<svg version="1.1" viewBox="0 0 1024 1024" xmlns="http://www.w3.org/2000/svg">
  <g stroke="lightgray" stroke-dasharray="1,1" stroke-width="1" transform="scale(4, 4)">
    <line x1="0" y1="0" x2="256" y2="256"></line>
    <line x1="256" y1="0" x2="0" y2="256"></line>
    <line x1="128" y1="0" x2="128" y2="256"></line>
    <line x1="0" y1="128" x2="256" y2="128"></line>
  </g>
  <g transform="scale(1, -1) translate(0, -900)">
    <style type="text/css">
      
        @keyframes keyframes0 {
          from {
            stroke: blue;
            stroke-dashoffset: 904;
            stroke-width: 128;
          }
          75% {
            animation-timing-function: step-end;
            stroke: blue;
            stroke-dashoffset: 0;
            stroke-width: 128;
          }
          to {
            stroke: black;
            stroke-width: 1024;
          }
        }
        #make-me-a-hanzi-animation-0 {
          animation: keyframes0 0.9856770833333334s both;
          animation-delay: 0s;
          animation-timing-function: linear;
        }
      
        @keyframes keyframes1 {
          from {
            stroke: blue;
            stroke-dashoffset: 459;
            stroke-width: 128;
          }
          60% {
            animation-timing-function: step-end;
            stroke: blue;
            stroke-dashoffset: 0;
            stroke-width: 128;
          }
          to {
            stroke: black;
            stroke-width: 1024;
          }
        }
        #make-me-a-hanzi-animation-1 {
          animation: keyframes1 0.62353515625s both;
          animation-delay: 0.9856770833333334s;
          animation-timing-function: linear;
        }
      
        @keyframes keyframes2 {
          from {
            stroke: blue;
            stroke-dashoffset: 513;
            stroke-width: 128;
          }
          63% {
            animation-timing-function: step-end;
            stroke: blue;
            stroke-dashoffset: 0;
            stroke-width: 128;
          }
          to {
            stroke: black;
            stroke-width: 1024;
          }
        }
        #make-me-a-hanzi-animation-2 {
          animation: keyframes2 0.66748046875s both;
          animation-delay: 1.6092122395833335s;
          animation-timing-function: linear;
        }
      
        @keyframes keyframes3 {
          from {
            stroke: blue;
            stroke-dashoffset: 620;
            stroke-width: 128;
          }
          67% {
            animation-timing-function: step-end;
            stroke: blue;
            stroke-dashoffset: 0;
            stroke-width: 128;
          }
          to {
            stroke: black;
            stroke-width: 1024;
          }
        }
        #make-me-a-hanzi-animation-3 {
          animation: keyframes3 0.7545572916666666s both;
          animation-delay: 2.2766927083333335s;
          animation-timing-function: linear;
        }
      
        @keyframes keyframes4 {
          from {
            stroke: blue;
            stroke-dashoffset: 380;
            stroke-width: 128;
          }
          55% {
            animation-timing-function: step-end;
            stroke: blue;
            stroke-dashoffset: 0;
            stroke-width: 128;
          }
          to {
            stroke: black;
            stroke-width: 1024;
          }
        }
        #make-me-a-hanzi-animation-4 {
          animation: keyframes4 0.5592447916666666s both;
          animation-delay: 3.03125s;
          animation-timing-function: linear;
        }
      
        @keyframes keyframes5 {
          from {
            stroke: blue;
            stroke-dashoffset: 418;
            stroke-width: 128;
          }
          58% {
            animation-timing-function: step-end;
            stroke: blue;
            stroke-dashoffset: 0;
            stroke-width: 128;
          }
          to {
            stroke: black;
            stroke-width: 1024;
          }
        }
        #make-me-a-hanzi-animation-5 {
          animation: keyframes5 0.5901692708333334s both;
          animation-delay: 3.5904947916666665s;
          animation-timing-function: linear;
        }
      
        @keyframes keyframes6 {
          from {
            stroke: blue;
            stroke-dashoffset: 975;
            stroke-width: 128;
          }
          76% {
            animation-timing-function: step-end;
            stroke: blue;
            stroke-dashoffset: 0;
            stroke-width: 128;
          }
          to {
            stroke: black;
            stroke-width: 1024;
          }
        }
        #make-me-a-hanzi-animation-6 {
          animation: keyframes6 1.04345703125s both;
          animation-delay: 4.1806640625s;
          animation-timing-function: linear;
        }
      
        @keyframes keyframes7 {
          from {
            stroke: blue;
            stroke-dashoffset: 1074;
            stroke-width: 128;
          }
          78% {
            animation-timing-function: step-end;
            stroke: blue;
            stroke-dashoffset: 0;
            stroke-width: 128;
          }
          to {
            stroke: black;
            stroke-width: 1024;
          }
        }
        #make-me-a-hanzi-animation-7 {
          animation: keyframes7 1.1240234375s both;
          animation-delay: 5.22412109375s;
          animation-timing-function: linear;
        }
      
        @keyframes keyframes8 {
          from {
            stroke: blue;
            stroke-dashoffset: 753;
            stroke-width: 128;
          }
          71% {
            animation-timing-function: step-end;
            stroke: blue;
            stroke-dashoffset: 0;
            stroke-width: 128;
          }
          to {
            stroke: black;
            stroke-width: 1024;
          }
        }
        #make-me-a-hanzi-animation-8 {
          animation: keyframes8 0.86279296875s both;
          animation-delay: 6.34814453125s;
          animation-timing-function: linear;
        }
      
    </style>
    
      <path d="M 623 689 Q 819 689 829 696 Q 829 697 830 698 Q 836 708 820 722 Q 765 764 701 747 Q 674 743 645 737 L 588 728 Q 509 722 413 705 L 364 700 Q 280 693 188 681 Q 169 680 183 663 Q 196 650 213 644 Q 234 638 249 642 Q 307 658 372 667 L 416 673 Q 473 683 576 688 L 623 689 Z" fill="lightgray"></path>
    
      <path d="M 413 705 Q 412 733 411 756 Q 412 775 392 781 Q 355 802 331 793 Q 312 784 328 765 Q 353 737 364 700 L 372 667 Q 384 610 399 596 Q 412 586 417 597 Q 420 609 416 673 L 413 705 Z" fill="lightgray"></path>
    
      <path d="M 645 737 Q 663 773 675 792 Q 690 805 680 817 Q 668 833 635 853 Q 619 863 601 854 Q 591 850 598 837 Q 607 809 588 728 L 576 688 Q 558 624 559 616 Q 560 601 576 612 Q 588 621 623 689 L 645 737 Z" fill="lightgray"></path>
    
      <path d="M 522 504 Q 673 531 682 538 Q 689 545 686 553 Q 680 563 654 572 Q 627 578 530 548 L 465 534 Q 401 524 325 517 Q 292 513 315 497 Q 351 473 432 489 Q 447 492 465 494 L 522 504 Z" fill="lightgray"></path>
    
      <path d="M 317 407 Q 341 385 366 357 Q 376 345 391 345 Q 400 345 405 357 Q 409 370 404 395 Q 400 414 372 428 Q 309 455 296 451 Q 292 447 292 436 Q 295 426 317 407 Z" fill="lightgray"></path>
    
      <path d="M 622 460 Q 601 429 559 380 Q 555 373 559 367 Q 566 366 573 370 Q 649 422 687 440 Q 703 444 700 454 Q 696 469 678 486 Q 662 502 641 504 Q 628 504 629 487 Q 630 474 622 460 Z" fill="lightgray"></path>
    
      <path d="M 505 292 Q 580 298 839 299 Q 861 298 867 308 Q 873 321 855 336 Q 797 381 756 372 Q 663 354 511 332 L 457 326 Q 312 310 146 292 Q 124 291 140 271 Q 156 255 175 249 Q 199 243 216 248 Q 369 287 452 287 L 505 292 Z" fill="lightgray"></path>
    
      <path d="M 504 288 Q 504 291 505 292 L 511 332 Q 512 356 522 487 Q 522 496 522 504 L 530 548 Q 531 561 537 574 Q 543 586 533 594 Q 514 610 478 624 Q 456 634 439 627 Q 420 620 436 602 Q 464 572 465 534 L 465 494 Q 465 400 457 326 L 452 287 Q 430 134 246 46 Q 212 31 168 13 Q 155 9 151 6 Q 145 0 161 -4 Q 248 -8 398 77 Q 423 96 441 118 Q 472 158 497 253 L 504 288 Z" fill="lightgray"></path>
    
      <path d="M 497 253 Q 576 132 680 1 Q 699 -21 732 -20 Q 841 -19 876 -14 Q 886 -13 888 -7 Q 889 -1 874 6 Q 718 69 639 148 Q 576 208 504 288 C 484 310 481 278 497 253 Z" fill="lightgray"></path>
    
    
      <clipPath id="make-me-a-hanzi-clip-0">
        <path d="M 623 689 Q 819 689 829 696 Q 829 697 830 698 Q 836 708 820 722 Q 765 764 701 747 Q 674 743 645 737 L 588 728 Q 509 722 413 705 L 364 700 Q 280 693 188 681 Q 169 680 183 663 Q 196 650 213 644 Q 234 638 249 642 Q 307 658 372 667 L 416 673 Q 473 683 576 688 L 623 689 Z"></path>
      </clipPath>
      <path clip-path="url(#make-me-a-hanzi-clip-0)" d="M 186 672 L 234 663 L 455 696 L 728 721 L 803 712 L 826 699" fill="none" id="make-me-a-hanzi-animation-0" stroke-dasharray="776 1552" stroke-linecap="round"></path>
    
      <clipPath id="make-me-a-hanzi-clip-1">
        <path d="M 413 705 Q 412 733 411 756 Q 412 775 392 781 Q 355 802 331 793 Q 312 784 328 765 Q 353 737 364 700 L 372 667 Q 384 610 399 596 Q 412 586 417 597 Q 420 609 416 673 L 413 705 Z"></path>
      </clipPath>
      <path clip-path="url(#make-me-a-hanzi-clip-1)" d="M 336 778 L 359 768 L 379 749 L 408 601" fill="none" id="make-me-a-hanzi-animation-1" stroke-dasharray="331 662" stroke-linecap="round"></path>
    
      <clipPath id="make-me-a-hanzi-clip-2">
        <path d="M 645 737 Q 663 773 675 792 Q 690 805 680 817 Q 668 833 635 853 Q 619 863 601 854 Q 591 850 598 837 Q 607 809 588 728 L 576 688 Q 558 624 559 616 Q 560 601 576 612 Q 588 621 623 689 L 645 737 Z"></path>
      </clipPath>
      <path clip-path="url(#make-me-a-hanzi-clip-2)" d="M 605 845 L 618 839 L 639 805 L 600 688 L 568 615" fill="none" id="make-me-a-hanzi-animation-2" stroke-dasharray="385 770" stroke-linecap="round"></path>
    
      <clipPath id="make-me-a-hanzi-clip-3">
        <path d="M 522 504 Q 673 531 682 538 Q 689 545 686 553 Q 680 563 654 572 Q 627 578 530 548 L 465 534 Q 401 524 325 517 Q 292 513 315 497 Q 351 473 432 489 Q 447 492 465 494 L 522 504 Z"></path>
      </clipPath>
      <path clip-path="url(#make-me-a-hanzi-clip-3)" d="M 317 508 L 357 501 L 400 504 L 532 525 L 606 545 L 647 551 L 675 548" fill="none" id="make-me-a-hanzi-animation-3" stroke-dasharray="492 984" stroke-linecap="round"></path>
    
      <clipPath id="make-me-a-hanzi-clip-4">
        <path d="M 317 407 Q 341 385 366 357 Q 376 345 391 345 Q 400 345 405 357 Q 409 370 404 395 Q 400 414 372 428 Q 309 455 296 451 Q 292 447 292 436 Q 295 426 317 407 Z"></path>
      </clipPath>
      <path clip-path="url(#make-me-a-hanzi-clip-4)" d="M 300 442 L 366 400 L 390 361" fill="none" id="make-me-a-hanzi-animation-4" stroke-dasharray="252 504" stroke-linecap="round"></path>
    
      <clipPath id="make-me-a-hanzi-clip-5">
        <path d="M 622 460 Q 601 429 559 380 Q 555 373 559 367 Q 566 366 573 370 Q 649 422 687 440 Q 703 444 700 454 Q 696 469 678 486 Q 662 502 641 504 Q 628 504 629 487 Q 630 474 622 460 Z"></path>
      </clipPath>
      <path clip-path="url(#make-me-a-hanzi-clip-5)" d="M 641 491 L 658 461 L 565 374" fill="none" id="make-me-a-hanzi-animation-5" stroke-dasharray="290 580" stroke-linecap="round"></path>
    
      <clipPath id="make-me-a-hanzi-clip-6">
        <path d="M 505 292 Q 580 298 839 299 Q 861 298 867 308 Q 873 321 855 336 Q 797 381 756 372 Q 663 354 511 332 L 457 326 Q 312 310 146 292 Q 124 291 140 271 Q 156 255 175 249 Q 199 243 216 248 Q 369 287 452 287 L 505 292 Z"></path>
      </clipPath>
      <path clip-path="url(#make-me-a-hanzi-clip-6)" d="M 143 281 L 198 271 L 378 300 L 767 336 L 816 329 L 854 315" fill="none" id="make-me-a-hanzi-animation-6" stroke-dasharray="847 1694" stroke-linecap="round"></path>
    
      <clipPath id="make-me-a-hanzi-clip-7">
        <path d="M 504 288 Q 504 291 505 292 L 511 332 Q 512 356 522 487 Q 522 496 522 504 L 530 548 Q 531 561 537 574 Q 543 586 533 594 Q 514 610 478 624 Q 456 634 439 627 Q 420 620 436 602 Q 464 572 465 534 L 465 494 Q 465 400 457 326 L 452 287 Q 430 134 246 46 Q 212 31 168 13 Q 155 9 151 6 Q 145 0 161 -4 Q 248 -8 398 77 Q 423 96 441 118 Q 472 158 497 253 L 504 288 Z"></path>
      </clipPath>
      <path clip-path="url(#make-me-a-hanzi-clip-7)" d="M 442 614 L 476 595 L 496 574 L 497 560 L 485 336 L 471 250 L 449 188 L 414 132 L 376 95 L 342 73 L 235 23 L 157 2" fill="none" id="make-me-a-hanzi-animation-7" stroke-dasharray="946 1892" stroke-linecap="round"></path>
    
      <clipPath id="make-me-a-hanzi-clip-8">
        <path d="M 497 253 Q 576 132 680 1 Q 699 -21 732 -20 Q 841 -19 876 -14 Q 886 -13 888 -7 Q 889 -1 874 6 Q 718 69 639 148 Q 576 208 504 288 C 484 310 481 278 497 253 Z"></path>
      </clipPath>
      <path clip-path="url(#make-me-a-hanzi-clip-8)" d="M 509 281 L 513 255 L 559 197 L 629 115 L 710 36 L 742 21 L 880 -7" fill="none" id="make-me-a-hanzi-animation-8" stroke-dasharray="625 1250" stroke-linecap="round"></path>
    
  </g>
</svg>