<svg version="1.1" viewBox="0 0 1024 1024" xmlns="http://www.w3.org/2000/svg">
  <g stroke="lightgray" stroke-dasharray="1,1" stroke-width="1" transform="scale(4, 4)">
    <line x1="0" y1="0" x2="256" y2="256"></line>
    <line x1="256" y1="0" x2="0" y2="256"></line>
    <line x1="128" y1="0" x2="128" y2="256"></line>
    <line x1="0" y1="128" x2="256" y2="128"></line>
  </g>
  <g transform="scale(1, -1) translate(0, -900)">
    <style type="text/css">
      
        @keyframes keyframes0 {
          from {
            stroke: blue;
            stroke-dashoffset: 870;
            stroke-width: 128;
          }
          74% {
            animation-timing-function: step-end;
            stroke: blue;
            stroke-dashoffset: 0;
            stroke-width: 128;
          }
          to {
            stroke: black;
            stroke-width: 1024;
          }
        }
        #make-me-a-hanzi-animation-0 {
          animation: keyframes0 0.9580078125s both;
          animation-delay: 0s;
          animation-timing-function: linear;
        }
      
        @keyframes keyframes1 {
          from {
            stroke: blue;
            stroke-dashoffset: 448;
            stroke-width: 128;
          }
          59% {
            animation-timing-function: step-end;
            stroke: blue;
            stroke-dashoffset: 0;
            stroke-width: 128;
          }
          to {
            stroke: black;
            stroke-width: 1024;
          }
        }
        #make-me-a-hanzi-animation-1 {
          animation: keyframes1 0.6145833333333334s both;
          animation-delay: 0.9580078125s;
          animation-timing-function: linear;
        }
      
        @keyframes keyframes2 {
          from {
            stroke: blue;
            stroke-dashoffset: 490;
            stroke-width: 128;
          }
          61% {
            animation-timing-function: step-end;
            stroke: blue;
            stroke-dashoffset: 0;
            stroke-width: 128;
          }
          to {
            stroke: black;
            stroke-width: 1024;
          }
        }
        #make-me-a-hanzi-animation-2 {
          animation: keyframes2 0.6487630208333334s both;
          animation-delay: 1.5725911458333335s;
          animation-timing-function: linear;
        }
      
        @keyframes keyframes3 {
          from {
            stroke: blue;
            stroke-dashoffset: 389;
            stroke-width: 128;
          }
          56% {
            animation-timing-function: step-end;
            stroke: blue;
            stroke-dashoffset: 0;
            stroke-width: 128;
          }
          to {
            stroke: black;
            stroke-width: 1024;
          }
        }
        #make-me-a-hanzi-animation-3 {
          animation: keyframes3 0.5665690104166666s both;
          animation-delay: 2.221354166666667s;
          animation-timing-function: linear;
        }
      
        @keyframes keyframes4 {
          from {
            stroke: blue;
            stroke-dashoffset: 628;
            stroke-width: 128;
          }
          67% {
            animation-timing-function: step-end;
            stroke: blue;
            stroke-dashoffset: 0;
            stroke-width: 128;
          }
          to {
            stroke: black;
            stroke-width: 1024;
          }
        }
        #make-me-a-hanzi-animation-4 {
          animation: keyframes4 0.7610677083333334s both;
          animation-delay: 2.7879231770833335s;
          animation-timing-function: linear;
        }
      
        @keyframes keyframes5 {
          from {
            stroke: blue;
            stroke-dashoffset: 393;
            stroke-width: 128;
          }
          56% {
            animation-timing-function: step-end;
            stroke: blue;
            stroke-dashoffset: 0;
            stroke-width: 128;
          }
          to {
            stroke: black;
            stroke-width: 1024;
          }
        }
        #make-me-a-hanzi-animation-5 {
          animation: keyframes5 0.56982421875s both;
          animation-delay: 3.548990885416667s;
          animation-timing-function: linear;
        }
      
        @keyframes keyframes6 {
          from {
            stroke: blue;
            stroke-dashoffset: 493;
            stroke-width: 128;
          }
          62% {
            animation-timing-function: step-end;
            stroke: blue;
            stroke-dashoffset: 0;
            stroke-width: 128;
          }
          to {
            stroke: black;
            stroke-width: 1024;
          }
        }
        #make-me-a-hanzi-animation-6 {
          animation: keyframes6 0.6512044270833334s both;
          animation-delay: 4.118815104166667s;
          animation-timing-function: linear;
        }
      
        @keyframes keyframes7 {
          from {
            stroke: blue;
            stroke-dashoffset: 647;
            stroke-width: 128;
          }
          68% {
            animation-timing-function: step-end;
            stroke: blue;
            stroke-dashoffset: 0;
            stroke-width: 128;
          }
          to {
            stroke: black;
            stroke-width: 1024;
          }
        }
        #make-me-a-hanzi-animation-7 {
          animation: keyframes7 0.7765299479166666s both;
          animation-delay: 4.77001953125s;
          animation-timing-function: linear;
        }
      
        @keyframes keyframes8 {
          from {
            stroke: blue;
            stroke-dashoffset: 359;
            stroke-width: 128;
          }
          54% {
            animation-timing-function: step-end;
            stroke: blue;
            stroke-dashoffset: 0;
            stroke-width: 128;
          }
          to {
            stroke: black;
            stroke-width: 1024;
          }
        }
        #make-me-a-hanzi-animation-8 {
          animation: keyframes8 0.5421549479166666s both;
          animation-delay: 5.546549479166667s;
          animation-timing-function: linear;
        }
      
        @keyframes keyframes9 {
          from {
            stroke: blue;
            stroke-dashoffset: 362;
            stroke-width: 128;
          }
          54% {
            animation-timing-function: step-end;
            stroke: blue;
            stroke-dashoffset: 0;
            stroke-width: 128;
          }
          to {
            stroke: black;
            stroke-width: 1024;
          }
        }
        #make-me-a-hanzi-animation-9 {
          animation: keyframes9 0.5445963541666666s both;
          animation-delay: 6.088704427083334s;
          animation-timing-function: linear;
        }
      
        @keyframes keyframes10 {
          from {
            stroke: blue;
            stroke-dashoffset: 624;
            stroke-width: 128;
          }
          67% {
            animation-timing-function: step-end;
            stroke: blue;
            stroke-dashoffset: 0;
            stroke-width: 128;
          }
          to {
            stroke: black;
            stroke-width: 1024;
          }
        }
        #make-me-a-hanzi-animation-10 {
          animation: keyframes10 0.7578125s both;
          animation-delay: 6.633300781250001s;
          animation-timing-function: linear;
        }
      
        @keyframes keyframes11 {
          from {
            stroke: blue;
            stroke-dashoffset: 427;
            stroke-width: 128;
          }
          58% {
            animation-timing-function: step-end;
            stroke: blue;
            stroke-dashoffset: 0;
            stroke-width: 128;
          }
          to {
            stroke: black;
            stroke-width: 1024;
          }
        }
        #make-me-a-hanzi-animation-11 {
          animation: keyframes11 0.5974934895833334s both;
          animation-delay: 7.391113281250001s;
          animation-timing-function: linear;
        }
      
        @keyframes keyframes12 {
          from {
            stroke: blue;
            stroke-dashoffset: 643;
            stroke-width: 128;
          }
          68% {
            animation-timing-function: step-end;
            stroke: blue;
            stroke-dashoffset: 0;
            stroke-width: 128;
          }
          to {
            stroke: black;
            stroke-width: 1024;
          }
        }
        #make-me-a-hanzi-animation-12 {
          animation: keyframes12 0.7732747395833334s both;
          animation-delay: 7.988606770833334s;
          animation-timing-function: linear;
        }
      
        @keyframes keyframes13 {
          from {
            stroke: blue;
            stroke-dashoffset: 1004;
            stroke-width: 128;
          }
          77% {
            animation-timing-function: step-end;
            stroke: blue;
            stroke-dashoffset: 0;
            stroke-width: 128;
          }
          to {
            stroke: black;
            stroke-width: 1024;
          }
        }
        #make-me-a-hanzi-animation-13 {
          animation: keyframes13 1.0670572916666667s both;
          animation-delay: 8.761881510416668s;
          animation-timing-function: linear;
        }
      
    </style>
    
      <path d="M 626 694 Q 681 703 797 691 Q 813 690 818 699 Q 824 711 810 726 Q 762 771 653 747 Q 650 747 649 746 L 592 738 Q 508 728 418 716 L 370 712 Q 291 706 204 698 Q 174 695 195 679 Q 237 649 324 666 Q 351 672 379 675 L 420 681 Q 453 690 580 692 L 626 694 Z" fill="lightgray"></path>
    
      <path d="M 418 716 Q 417 747 417 771 Q 420 790 399 797 Q 360 818 339 811 Q 320 802 335 783 Q 360 753 369 718 Q 369 715 370 712 L 379 675 Q 385 639 400 624 Q 413 612 417 624 Q 418 631 420 681 L 418 716 Z" fill="lightgray"></path>
    
      <path d="M 649 746 Q 656 765 672 786 Q 685 799 676 810 Q 664 826 631 844 Q 615 854 599 845 Q 589 839 596 829 Q 605 805 592 738 L 580 692 Q 565 647 567 627 Q 568 614 583 624 Q 595 634 626 694 L 649 746 Z" fill="lightgray"></path>
    
      <path d="M 258 502 Q 274 509 333 541 Q 349 551 367 557 Q 385 563 378 577 Q 369 590 351 604 Q 335 617 324 615 Q 314 615 316 605 Q 317 581 274 544 Q 262 534 249 520 C 228 498 231 489 258 502 Z" fill="lightgray"></path>
    
      <path d="M 249 520 Q 240 527 205 535 Q 192 536 187 532 Q 183 526 192 512 Q 226 472 219 362 Q 212 332 183 299 Q 173 290 179 273 Q 185 251 196 241 Q 205 234 216 245 Q 253 282 364 353 Q 377 359 380 366 Q 381 370 377 371 Q 370 372 281 343 Q 274 342 272 344 Q 269 345 269 353 Q 257 482 258 502 C 258 516 258 516 249 520 Z" fill="lightgray"></path>
    
      <path d="M 443 529 Q 515 604 525 611 Q 540 621 528 634 Q 515 644 492 652 Q 471 658 462 654 Q 452 650 458 641 Q 464 623 420 531 C 407 504 422 507 443 529 Z" fill="lightgray"></path>
    
      <path d="M 420 531 Q 411 537 393 542 Q 384 546 381 542 Q 375 538 380 524 Q 399 460 400 359 Q 399 329 412 307 Q 424 288 430 299 Q 436 312 438 332 L 438 355 Q 438 356 434 421 L 433 440 Q 432 486 431 504 C 430 525 430 525 420 531 Z" fill="lightgray"></path>
    
      <path d="M 542 343 Q 549 330 558 314 Q 571 295 577 296 Q 581 297 590 310 Q 597 325 598 346 Q 602 488 618 509 Q 628 524 621 533 Q 615 542 575 556 Q 556 565 540 557 Q 488 538 443 529 C 411 522 391 498 431 504 Q 435 505 444 506 Q 475 512 512 522 Q 545 529 555 519 Q 567 507 559 385 Q 560 369 549 368 C 535 356 535 356 542 343 Z" fill="lightgray"></path>
    
      <path d="M 434 421 Q 435 420 444 421 Q 496 428 534 433 Q 552 437 545 446 Q 536 458 517 461 Q 490 464 433 440 C 405 428 404 425 434 421 Z" fill="lightgray"></path>
    
      <path d="M 438 332 Q 439 332 443 332 Q 498 339 542 343 C 572 346 576 355 549 368 Q 542 372 531 374 Q 497 380 438 355 C 410 343 408 332 438 332 Z" fill="lightgray"></path>
    
      <path d="M 759 366 Q 786 487 831 524 Q 847 542 833 559 Q 817 572 766 595 Q 750 602 695 581 Q 661 571 632 565 Q 619 564 620 555 Q 621 548 638 543 Q 651 539 729 549 Q 738 549 740 548 Q 753 535 748 507 Q 729 425 707 358 C 698 329 752 337 759 366 Z" fill="lightgray"></path>
    
      <path d="M 707 358 Q 661 348 625 342 Q 606 339 618 324 Q 625 315 634 312 Q 644 311 656 313 Q 698 320 789 328 Q 799 329 800 337 Q 800 344 772 363 Q 766 366 759 366 L 707 358 Z" fill="lightgray"></path>
    
      <path d="M 368 275 Q 368 146 202 16 Q 190 7 177 -3 Q 170 -10 175 -13 Q 199 -22 283 33 Q 358 78 416 197 Q 426 216 439 234 Q 446 243 442 253 Q 438 263 409 281 Q 390 294 380 292 Q 367 289 368 275 Z" fill="lightgray"></path>
    
      <path d="M 935 43 Q 914 91 900 174 Q 897 190 889 194 Q 882 198 879 178 Q 869 75 855 56 Q 822 25 706 26 Q 642 30 613 41 Q 589 54 584 71 Q 578 90 582 139 Q 588 193 600 218 Q 613 248 594 265 Q 543 304 528 300 Q 513 294 520 277 Q 539 240 535 184 Q 529 64 549 35 Q 571 -1 652 -17 Q 710 -27 801 -25 Q 885 -24 917 -6 Q 948 10 935 43 Z" fill="lightgray"></path>
    
    
      <clipPath id="make-me-a-hanzi-clip-0">
        <path d="M 626 694 Q 681 703 797 691 Q 813 690 818 699 Q 824 711 810 726 Q 762 771 653 747 Q 650 747 649 746 L 592 738 Q 508 728 418 716 L 370 712 Q 291 706 204 698 Q 174 695 195 679 Q 237 649 324 666 Q 351 672 379 675 L 420 681 Q 453 690 580 692 L 626 694 Z"></path>
      </clipPath>
      <path clip-path="url(#make-me-a-hanzi-clip-0)" d="M 197 690 L 264 681 L 706 727 L 761 723 L 805 706" fill="none" id="make-me-a-hanzi-animation-0" stroke-dasharray="742 1484" stroke-linecap="round"></path>
    
      <clipPath id="make-me-a-hanzi-clip-1">
        <path d="M 418 716 Q 417 747 417 771 Q 420 790 399 797 Q 360 818 339 811 Q 320 802 335 783 Q 360 753 369 718 Q 369 715 370 712 L 379 675 Q 385 639 400 624 Q 413 612 417 624 Q 418 631 420 681 L 418 716 Z"></path>
      </clipPath>
      <path clip-path="url(#make-me-a-hanzi-clip-1)" d="M 344 796 L 365 786 L 385 765 L 409 627" fill="none" id="make-me-a-hanzi-animation-1" stroke-dasharray="320 640" stroke-linecap="round"></path>
    
      <clipPath id="make-me-a-hanzi-clip-2">
        <path d="M 649 746 Q 656 765 672 786 Q 685 799 676 810 Q 664 826 631 844 Q 615 854 599 845 Q 589 839 596 829 Q 605 805 592 738 L 580 692 Q 565 647 567 627 Q 568 614 583 624 Q 595 634 626 694 L 649 746 Z"></path>
      </clipPath>
      <path clip-path="url(#make-me-a-hanzi-clip-2)" d="M 603 836 L 618 828 L 636 798 L 575 627" fill="none" id="make-me-a-hanzi-animation-2" stroke-dasharray="362 724" stroke-linecap="round"></path>
    
      <clipPath id="make-me-a-hanzi-clip-3">
        <path d="M 258 502 Q 274 509 333 541 Q 349 551 367 557 Q 385 563 378 577 Q 369 590 351 604 Q 335 617 324 615 Q 314 615 316 605 Q 317 581 274 544 Q 262 534 249 520 C 228 498 231 489 258 502 Z"></path>
      </clipPath>
      <path clip-path="url(#make-me-a-hanzi-clip-3)" d="M 367 570 L 338 575 L 259 508" fill="none" id="make-me-a-hanzi-animation-3" stroke-dasharray="261 522" stroke-linecap="round"></path>
    
      <clipPath id="make-me-a-hanzi-clip-4">
        <path d="M 249 520 Q 240 527 205 535 Q 192 536 187 532 Q 183 526 192 512 Q 226 472 219 362 Q 212 332 183 299 Q 173 290 179 273 Q 185 251 196 241 Q 205 234 216 245 Q 253 282 364 353 Q 377 359 380 366 Q 381 370 377 371 Q 370 372 281 343 Q 274 342 272 344 Q 269 345 269 353 Q 257 482 258 502 C 258 516 258 516 249 520 Z"></path>
      </clipPath>
      <path clip-path="url(#make-me-a-hanzi-clip-4)" d="M 193 527 L 225 505 L 232 493 L 243 409 L 243 318 L 280 321 L 376 367" fill="none" id="make-me-a-hanzi-animation-4" stroke-dasharray="500 1000" stroke-linecap="round"></path>
    
      <clipPath id="make-me-a-hanzi-clip-5">
        <path d="M 443 529 Q 515 604 525 611 Q 540 621 528 634 Q 515 644 492 652 Q 471 658 462 654 Q 452 650 458 641 Q 464 623 420 531 C 407 504 422 507 443 529 Z"></path>
      </clipPath>
      <path clip-path="url(#make-me-a-hanzi-clip-5)" d="M 469 645 L 489 620 L 444 545 L 427 541" fill="none" id="make-me-a-hanzi-animation-5" stroke-dasharray="265 530" stroke-linecap="round"></path>
    
      <clipPath id="make-me-a-hanzi-clip-6">
        <path d="M 420 531 Q 411 537 393 542 Q 384 546 381 542 Q 375 538 380 524 Q 399 460 400 359 Q 399 329 412 307 Q 424 288 430 299 Q 436 312 438 332 L 438 355 Q 438 356 434 421 L 433 440 Q 432 486 431 504 C 430 525 430 525 420 531 Z"></path>
      </clipPath>
      <path clip-path="url(#make-me-a-hanzi-clip-6)" d="M 387 535 L 404 516 L 411 490 L 422 306" fill="none" id="make-me-a-hanzi-animation-6" stroke-dasharray="365 730" stroke-linecap="round"></path>
    
      <clipPath id="make-me-a-hanzi-clip-7">
        <path d="M 542 343 Q 549 330 558 314 Q 571 295 577 296 Q 581 297 590 310 Q 597 325 598 346 Q 602 488 618 509 Q 628 524 621 533 Q 615 542 575 556 Q 556 565 540 557 Q 488 538 443 529 C 411 522 391 498 431 504 Q 435 505 444 506 Q 475 512 512 522 Q 545 529 555 519 Q 567 507 559 385 Q 560 369 549 368 C 535 356 535 356 542 343 Z"></path>
      </clipPath>
      <path clip-path="url(#make-me-a-hanzi-clip-7)" d="M 425 525 L 448 518 L 551 542 L 588 519 L 581 383 L 571 346 L 576 303" fill="none" id="make-me-a-hanzi-animation-7" stroke-dasharray="519 1038" stroke-linecap="round"></path>
    
      <clipPath id="make-me-a-hanzi-clip-8">
        <path d="M 434 421 Q 435 420 444 421 Q 496 428 534 433 Q 552 437 545 446 Q 536 458 517 461 Q 490 464 433 440 C 405 428 404 425 434 421 Z"></path>
      </clipPath>
      <path clip-path="url(#make-me-a-hanzi-clip-8)" d="M 439 426 L 447 434 L 492 444 L 537 441" fill="none" id="make-me-a-hanzi-animation-8" stroke-dasharray="231 462" stroke-linecap="round"></path>
    
      <clipPath id="make-me-a-hanzi-clip-9">
        <path d="M 438 332 Q 439 332 443 332 Q 498 339 542 343 C 572 346 576 355 549 368 Q 542 372 531 374 Q 497 380 438 355 C 410 343 408 332 438 332 Z"></path>
      </clipPath>
      <path clip-path="url(#make-me-a-hanzi-clip-9)" d="M 441 338 L 453 348 L 542 363" fill="none" id="make-me-a-hanzi-animation-9" stroke-dasharray="234 468" stroke-linecap="round"></path>
    
      <clipPath id="make-me-a-hanzi-clip-10">
        <path d="M 759 366 Q 786 487 831 524 Q 847 542 833 559 Q 817 572 766 595 Q 750 602 695 581 Q 661 571 632 565 Q 619 564 620 555 Q 621 548 638 543 Q 651 539 729 549 Q 738 549 740 548 Q 753 535 748 507 Q 729 425 707 358 C 698 329 752 337 759 366 Z"></path>
      </clipPath>
      <path clip-path="url(#make-me-a-hanzi-clip-10)" d="M 629 557 L 660 556 L 744 572 L 764 565 L 788 539 L 739 386 L 713 364" fill="none" id="make-me-a-hanzi-animation-10" stroke-dasharray="496 992" stroke-linecap="round"></path>
    
      <clipPath id="make-me-a-hanzi-clip-11">
        <path d="M 707 358 Q 661 348 625 342 Q 606 339 618 324 Q 625 315 634 312 Q 644 311 656 313 Q 698 320 789 328 Q 799 329 800 337 Q 800 344 772 363 Q 766 366 759 366 L 707 358 Z"></path>
      </clipPath>
      <path clip-path="url(#make-me-a-hanzi-clip-11)" d="M 623 332 L 637 328 L 756 345 L 791 336" fill="none" id="make-me-a-hanzi-animation-11" stroke-dasharray="299 598" stroke-linecap="round"></path>
    
      <clipPath id="make-me-a-hanzi-clip-12">
        <path d="M 368 275 Q 368 146 202 16 Q 190 7 177 -3 Q 170 -10 175 -13 Q 199 -22 283 33 Q 358 78 416 197 Q 426 216 439 234 Q 446 243 442 253 Q 438 263 409 281 Q 390 294 380 292 Q 367 289 368 275 Z"></path>
      </clipPath>
      <path clip-path="url(#make-me-a-hanzi-clip-12)" d="M 382 278 L 402 243 L 356 142 L 304 77 L 264 41 L 179 -9" fill="none" id="make-me-a-hanzi-animation-12" stroke-dasharray="515 1030" stroke-linecap="round"></path>
    
      <clipPath id="make-me-a-hanzi-clip-13">
        <path d="M 935 43 Q 914 91 900 174 Q 897 190 889 194 Q 882 198 879 178 Q 869 75 855 56 Q 822 25 706 26 Q 642 30 613 41 Q 589 54 584 71 Q 578 90 582 139 Q 588 193 600 218 Q 613 248 594 265 Q 543 304 528 300 Q 513 294 520 277 Q 539 240 535 184 Q 529 64 549 35 Q 571 -1 652 -17 Q 710 -27 801 -25 Q 885 -24 917 -6 Q 948 10 935 43 Z"></path>
      </clipPath>
      <path clip-path="url(#make-me-a-hanzi-clip-13)" d="M 532 287 L 569 236 L 557 130 L 563 61 L 582 33 L 630 11 L 727 0 L 792 2 L 847 11 L 889 28 L 893 94 L 888 186" fill="none" id="make-me-a-hanzi-animation-13" stroke-dasharray="876 1752" stroke-linecap="round"></path>
    
  </g>
</svg>