<svg version="1.1" viewBox="0 0 1024 1024" xmlns="http://www.w3.org/2000/svg">
  <g stroke="lightgray" stroke-dasharray="1,1" stroke-width="1" transform="scale(4, 4)">
    <line x1="0" y1="0" x2="256" y2="256"></line>
    <line x1="256" y1="0" x2="0" y2="256"></line>
    <line x1="128" y1="0" x2="128" y2="256"></line>
    <line x1="0" y1="128" x2="256" y2="128"></line>
  </g>
  <g transform="scale(1, -1) translate(0, -900)">
    <style type="text/css">
      
        @keyframes keyframes0 {
          from {
            stroke: blue;
            stroke-dashoffset: 462;
            stroke-width: 128;
          }
          60% {
            animation-timing-function: step-end;
            stroke: blue;
            stroke-dashoffset: 0;
            stroke-width: 128;
          }
          to {
            stroke: black;
            stroke-width: 1024;
          }
        }
        #make-me-a-hanzi-animation-0 {
          animation: keyframes0 0.6259765625s both;
          animation-delay: 0s;
          animation-timing-function: linear;
        }
      
        @keyframes keyframes1 {
          from {
            stroke: blue;
            stroke-dashoffset: 532;
            stroke-width: 128;
          }
          63% {
            animation-timing-function: step-end;
            stroke: blue;
            stroke-dashoffset: 0;
            stroke-width: 128;
          }
          to {
            stroke: black;
            stroke-width: 1024;
          }
        }
        #make-me-a-hanzi-animation-1 {
          animation: keyframes1 0.6829427083333334s both;
          animation-delay: 0.6259765625s;
          animation-timing-function: linear;
        }
      
        @keyframes keyframes2 {
          from {
            stroke: blue;
            stroke-dashoffset: 538;
            stroke-width: 128;
          }
          64% {
            animation-timing-function: step-end;
            stroke: blue;
            stroke-dashoffset: 0;
            stroke-width: 128;
          }
          to {
            stroke: black;
            stroke-width: 1024;
          }
        }
        #make-me-a-hanzi-animation-2 {
          animation: keyframes2 0.6878255208333334s both;
          animation-delay: 1.3089192708333335s;
          animation-timing-function: linear;
        }
      
        @keyframes keyframes3 {
          from {
            stroke: blue;
            stroke-dashoffset: 529;
            stroke-width: 128;
          }
          63% {
            animation-timing-function: step-end;
            stroke: blue;
            stroke-dashoffset: 0;
            stroke-width: 128;
          }
          to {
            stroke: black;
            stroke-width: 1024;
          }
        }
        #make-me-a-hanzi-animation-3 {
          animation: keyframes3 0.6805013020833334s both;
          animation-delay: 1.996744791666667s;
          animation-timing-function: linear;
        }
      
        @keyframes keyframes4 {
          from {
            stroke: blue;
            stroke-dashoffset: 639;
            stroke-width: 128;
          }
          68% {
            animation-timing-function: step-end;
            stroke: blue;
            stroke-dashoffset: 0;
            stroke-width: 128;
          }
          to {
            stroke: black;
            stroke-width: 1024;
          }
        }
        #make-me-a-hanzi-animation-4 {
          animation: keyframes4 0.77001953125s both;
          animation-delay: 2.6772460937500004s;
          animation-timing-function: linear;
        }
      
        @keyframes keyframes5 {
          from {
            stroke: blue;
            stroke-dashoffset: 341;
            stroke-width: 128;
          }
          53% {
            animation-timing-function: step-end;
            stroke: blue;
            stroke-dashoffset: 0;
            stroke-width: 128;
          }
          to {
            stroke: black;
            stroke-width: 1024;
          }
        }
        #make-me-a-hanzi-animation-5 {
          animation: keyframes5 0.5275065104166666s both;
          animation-delay: 3.4472656250000004s;
          animation-timing-function: linear;
        }
      
        @keyframes keyframes6 {
          from {
            stroke: blue;
            stroke-dashoffset: 689;
            stroke-width: 128;
          }
          69% {
            animation-timing-function: step-end;
            stroke: blue;
            stroke-dashoffset: 0;
            stroke-width: 128;
          }
          to {
            stroke: black;
            stroke-width: 1024;
          }
        }
        #make-me-a-hanzi-animation-6 {
          animation: keyframes6 0.8107096354166666s both;
          animation-delay: 3.974772135416667s;
          animation-timing-function: linear;
        }
      
        @keyframes keyframes7 {
          from {
            stroke: blue;
            stroke-dashoffset: 681;
            stroke-width: 128;
          }
          69% {
            animation-timing-function: step-end;
            stroke: blue;
            stroke-dashoffset: 0;
            stroke-width: 128;
          }
          to {
            stroke: black;
            stroke-width: 1024;
          }
        }
        #make-me-a-hanzi-animation-7 {
          animation: keyframes7 0.80419921875s both;
          animation-delay: 4.785481770833334s;
          animation-timing-function: linear;
        }
      
        @keyframes keyframes8 {
          from {
            stroke: blue;
            stroke-dashoffset: 571;
            stroke-width: 128;
          }
          65% {
            animation-timing-function: step-end;
            stroke: blue;
            stroke-dashoffset: 0;
            stroke-width: 128;
          }
          to {
            stroke: black;
            stroke-width: 1024;
          }
        }
        #make-me-a-hanzi-animation-8 {
          animation: keyframes8 0.7146809895833334s both;
          animation-delay: 5.589680989583334s;
          animation-timing-function: linear;
        }
      
        @keyframes keyframes9 {
          from {
            stroke: blue;
            stroke-dashoffset: 369;
            stroke-width: 128;
          }
          55% {
            animation-timing-function: step-end;
            stroke: blue;
            stroke-dashoffset: 0;
            stroke-width: 128;
          }
          to {
            stroke: black;
            stroke-width: 1024;
          }
        }
        #make-me-a-hanzi-animation-9 {
          animation: keyframes9 0.55029296875s both;
          animation-delay: 6.304361979166667s;
          animation-timing-function: linear;
        }
      
        @keyframes keyframes10 {
          from {
            stroke: blue;
            stroke-dashoffset: 579;
            stroke-width: 128;
          }
          65% {
            animation-timing-function: step-end;
            stroke: blue;
            stroke-dashoffset: 0;
            stroke-width: 128;
          }
          to {
            stroke: black;
            stroke-width: 1024;
          }
        }
        #make-me-a-hanzi-animation-10 {
          animation: keyframes10 0.72119140625s both;
          animation-delay: 6.854654947916667s;
          animation-timing-function: linear;
        }
      
        @keyframes keyframes11 {
          from {
            stroke: blue;
            stroke-dashoffset: 800;
            stroke-width: 128;
          }
          72% {
            animation-timing-function: step-end;
            stroke: blue;
            stroke-dashoffset: 0;
            stroke-width: 128;
          }
          to {
            stroke: black;
            stroke-width: 1024;
          }
        }
        #make-me-a-hanzi-animation-11 {
          animation: keyframes11 0.9010416666666666s both;
          animation-delay: 7.575846354166667s;
          animation-timing-function: linear;
        }
      
        @keyframes keyframes12 {
          from {
            stroke: blue;
            stroke-dashoffset: 395;
            stroke-width: 128;
          }
          56% {
            animation-timing-function: step-end;
            stroke: blue;
            stroke-dashoffset: 0;
            stroke-width: 128;
          }
          to {
            stroke: black;
            stroke-width: 1024;
          }
        }
        #make-me-a-hanzi-animation-12 {
          animation: keyframes12 0.5714518229166666s both;
          animation-delay: 8.476888020833334s;
          animation-timing-function: linear;
        }
      
        @keyframes keyframes13 {
          from {
            stroke: blue;
            stroke-dashoffset: 397;
            stroke-width: 128;
          }
          56% {
            animation-timing-function: step-end;
            stroke: blue;
            stroke-dashoffset: 0;
            stroke-width: 128;
          }
          to {
            stroke: black;
            stroke-width: 1024;
          }
        }
        #make-me-a-hanzi-animation-13 {
          animation: keyframes13 0.5730794270833334s both;
          animation-delay: 9.04833984375s;
          animation-timing-function: linear;
        }
      
        @keyframes keyframes14 {
          from {
            stroke: blue;
            stroke-dashoffset: 435;
            stroke-width: 128;
          }
          59% {
            animation-timing-function: step-end;
            stroke: blue;
            stroke-dashoffset: 0;
            stroke-width: 128;
          }
          to {
            stroke: black;
            stroke-width: 1024;
          }
        }
        #make-me-a-hanzi-animation-14 {
          animation: keyframes14 0.60400390625s both;
          animation-delay: 9.621419270833334s;
          animation-timing-function: linear;
        }
      
        @keyframes keyframes15 {
          from {
            stroke: blue;
            stroke-dashoffset: 456;
            stroke-width: 128;
          }
          60% {
            animation-timing-function: step-end;
            stroke: blue;
            stroke-dashoffset: 0;
            stroke-width: 128;
          }
          to {
            stroke: black;
            stroke-width: 1024;
          }
        }
        #make-me-a-hanzi-animation-15 {
          animation: keyframes15 0.62109375s both;
          animation-delay: 10.225423177083334s;
          animation-timing-function: linear;
        }
      
        @keyframes keyframes16 {
          from {
            stroke: blue;
            stroke-dashoffset: 438;
            stroke-width: 128;
          }
          59% {
            animation-timing-function: step-end;
            stroke: blue;
            stroke-dashoffset: 0;
            stroke-width: 128;
          }
          to {
            stroke: black;
            stroke-width: 1024;
          }
        }
        #make-me-a-hanzi-animation-16 {
          animation: keyframes16 0.6064453125s both;
          animation-delay: 10.846516927083334s;
          animation-timing-function: linear;
        }
      
    </style>
    
      <path d="M 432 720 Q 429 741 428 758 Q 429 777 409 782 Q 369 800 347 792 Q 329 782 345 764 Q 367 739 380 710 L 391 676 Q 406 612 423 595 Q 436 585 441 597 L 435 690 L 432 720 Z" fill="lightgray"></path>
    
      <path d="M 435 690 Q 439 693 449 695 Q 462 698 480 707 Q 486 713 484 719 Q 483 725 469 727 Q 451 724 432 720 L 380 710 Q 329 703 266 690 Q 230 690 211 688 Q 201 688 199 683 Q 198 676 204 667 Q 217 654 245 643 Q 263 634 279 640 Q 333 658 391 676 L 435 690 Z" fill="lightgray"></path>
    
      <path d="M 662 724 Q 672 760 699 804 Q 712 817 703 827 Q 693 843 660 860 Q 645 869 629 861 Q 619 855 626 845 Q 638 811 612 716 L 602 685 Q 577 613 578 593 Q 579 581 593 588 Q 611 603 644 682 L 662 724 Z" fill="lightgray"></path>
    
      <path d="M 644 682 Q 728 703 842 696 Q 855 695 859 703 Q 863 712 852 724 Q 812 757 739 738 Q 703 732 662 724 L 612 716 Q 597 716 583 713 Q 559 710 576 698 Q 589 691 602 685 C 620 676 620 676 644 682 Z" fill="lightgray"></path>
    
      <path d="M 344 425 Q 432 495 470 504 Q 488 510 482 524 Q 479 537 422 570 Q 406 579 386 572 Q 338 553 264 529 Q 245 522 198 523 Q 177 523 185 505 Q 192 495 209 485 Q 236 470 265 489 Q 371 538 385 532 Q 395 526 392 516 Q 362 479 329 434 C 311 410 320 406 344 425 Z" fill="lightgray"></path>
    
      <path d="M 329 434 Q 323 440 286 443 Q 273 444 268 443 Q 264 439 266 429 Q 269 420 292 404 Q 304 394 316 381 Q 328 371 341 372 Q 350 373 353 384 Q 357 411 344 425 L 329 434 Z" fill="lightgray"></path>
    
      <path d="M 321 337 Q 357 346 395 353 Q 420 359 423 348 Q 423 335 396 288 Q 389 276 396 273 Q 400 269 412 279 Q 475 324 500 332 Q 519 336 519 347 Q 518 357 458 388 Q 437 397 348 370 Q 258 349 131 325 Q 109 322 126 304 Q 139 288 178 301 Q 229 316 280 327 L 321 337 Z" fill="lightgray"></path>
    
      <path d="M 280 327 Q 287 312 293 227 Q 293 176 297 95 Q 296 68 288 58 Q 282 55 211 71 Q 201 74 201 68 Q 202 61 210 54 Q 264 8 298 -27 Q 308 -34 319 -21 Q 355 25 347 122 Q 341 216 344 288 Q 348 310 343 319 Q 337 328 321 337 C 296 353 272 356 280 327 Z" fill="lightgray"></path>
    
      <path d="M 681 531 Q 739 544 806 555 Q 848 565 854 570 Q 863 577 859 585 Q 852 595 826 603 Q 802 609 698 578 Q 595 559 545 554 Q 511 550 535 533 Q 566 512 640 524 Q 641 524 643 524 L 681 531 Z" fill="lightgray"></path>
    
      <path d="M 649 445 Q 650 448 654 450 Q 701 500 702 501 Q 701 503 701 504 Q 697 517 681 531 C 659 551 645 554 643 524 Q 643 506 622 457 Q 615 447 611 437 C 599 409 631 421 649 445 Z" fill="lightgray"></path>
    
      <path d="M 574 431 Q 562 443 542 449 Q 535 453 525 449 Q 519 445 524 436 Q 525 430 528 424 Q 549 384 539 235 Q 524 162 552 124 Q 561 114 569 124 Q 576 134 577 147 L 580 175 Q 580 202 579 228 L 579 252 Q 579 283 579 308 L 579 333 Q 579 396 580 404 C 581 425 581 425 574 431 Z" fill="lightgray"></path>
    
      <path d="M 763 161 Q 762 148 771 135 Q 781 110 790 111 Q 803 112 817 139 Q 830 161 829 179 Q 810 366 843 415 Q 852 430 845 438 Q 820 460 778 478 Q 765 482 743 475 Q 706 459 656 447 Q 652 446 649 445 L 611 437 Q 592 436 574 431 C 545 425 550 401 580 404 Q 587 403 596 405 Q 750 448 763 432 Q 776 416 775 360 Q 775 231 768 188 L 763 161 Z" fill="lightgray"></path>
    
      <path d="M 579 308 Q 655 320 713 328 Q 732 331 725 342 Q 716 354 695 358 Q 665 361 579 333 C 550 324 549 303 579 308 Z" fill="lightgray"></path>
    
      <path d="M 579 228 Q 580 228 584 228 Q 657 241 713 248 Q 732 251 725 262 Q 716 274 695 278 Q 668 281 579 252 C 550 243 549 228 579 228 Z" fill="lightgray"></path>
    
      <path d="M 577 147 Q 587 146 596 147 Q 648 157 763 161 C 793 162 790 168 768 188 Q 764 192 758 196 Q 745 203 718 198 Q 642 183 580 175 C 550 171 547 149 577 147 Z" fill="lightgray"></path>
    
      <path d="M 563 92 Q 553 49 441 -30 Q 422 -40 446 -40 Q 495 -43 605 42 Q 615 51 623 55 Q 633 64 632 72 Q 631 85 609 94 Q 585 106 574 104 Q 567 103 563 92 Z" fill="lightgray"></path>
    
      <path d="M 730 84 Q 772 39 820 -25 Q 833 -44 846 -48 Q 853 -49 861 -42 Q 873 -32 865 8 Q 858 53 733 111 Q 726 115 722 105 Q 721 93 730 84 Z" fill="lightgray"></path>
    
    
      <clipPath id="make-me-a-hanzi-clip-0">
        <path d="M 432 720 Q 429 741 428 758 Q 429 777 409 782 Q 369 800 347 792 Q 329 782 345 764 Q 367 739 380 710 L 391 676 Q 406 612 423 595 Q 436 585 441 597 L 435 690 L 432 720 Z"></path>
      </clipPath>
      <path clip-path="url(#make-me-a-hanzi-clip-0)" d="M 353 778 L 396 750 L 432 600" fill="none" id="make-me-a-hanzi-animation-0" stroke-dasharray="334 668" stroke-linecap="round"></path>
    
      <clipPath id="make-me-a-hanzi-clip-1">
        <path d="M 435 690 Q 439 693 449 695 Q 462 698 480 707 Q 486 713 484 719 Q 483 725 469 727 Q 451 724 432 720 L 380 710 Q 329 703 266 690 Q 230 690 211 688 Q 201 688 199 683 Q 198 676 204 667 Q 217 654 245 643 Q 263 634 279 640 Q 333 658 391 676 L 435 690 Z"></path>
      </clipPath>
      <path clip-path="url(#make-me-a-hanzi-clip-1)" d="M 207 680 L 265 664 L 475 715" fill="none" id="make-me-a-hanzi-animation-1" stroke-dasharray="404 808" stroke-linecap="round"></path>
    
      <clipPath id="make-me-a-hanzi-clip-2">
        <path d="M 662 724 Q 672 760 699 804 Q 712 817 703 827 Q 693 843 660 860 Q 645 869 629 861 Q 619 855 626 845 Q 638 811 612 716 L 602 685 Q 577 613 578 593 Q 579 581 593 588 Q 611 603 644 682 L 662 724 Z"></path>
      </clipPath>
      <path clip-path="url(#make-me-a-hanzi-clip-2)" d="M 633 852 L 647 845 L 665 814 L 623 679 L 588 597" fill="none" id="make-me-a-hanzi-animation-2" stroke-dasharray="410 820" stroke-linecap="round"></path>
    
      <clipPath id="make-me-a-hanzi-clip-3">
        <path d="M 644 682 Q 728 703 842 696 Q 855 695 859 703 Q 863 712 852 724 Q 812 757 739 738 Q 703 732 662 724 L 612 716 Q 597 716 583 713 Q 559 710 576 698 Q 589 691 602 685 C 620 676 620 676 644 682 Z"></path>
      </clipPath>
      <path clip-path="url(#make-me-a-hanzi-clip-3)" d="M 578 706 L 634 701 L 795 722 L 848 708" fill="none" id="make-me-a-hanzi-animation-3" stroke-dasharray="401 802" stroke-linecap="round"></path>
    
      <clipPath id="make-me-a-hanzi-clip-4">
        <path d="M 344 425 Q 432 495 470 504 Q 488 510 482 524 Q 479 537 422 570 Q 406 579 386 572 Q 338 553 264 529 Q 245 522 198 523 Q 177 523 185 505 Q 192 495 209 485 Q 236 470 265 489 Q 371 538 385 532 Q 395 526 392 516 Q 362 479 329 434 C 311 410 320 406 344 425 Z"></path>
      </clipPath>
      <path clip-path="url(#make-me-a-hanzi-clip-4)" d="M 194 512 L 211 504 L 249 503 L 375 550 L 404 550 L 427 525 L 423 516 L 346 437 L 337 438" fill="none" id="make-me-a-hanzi-animation-4" stroke-dasharray="511 1022" stroke-linecap="round"></path>
    
      <clipPath id="make-me-a-hanzi-clip-5">
        <path d="M 329 434 Q 323 440 286 443 Q 273 444 268 443 Q 264 439 266 429 Q 269 420 292 404 Q 304 394 316 381 Q 328 371 341 372 Q 350 373 353 384 Q 357 411 344 425 L 329 434 Z"></path>
      </clipPath>
      <path clip-path="url(#make-me-a-hanzi-clip-5)" d="M 272 435 L 321 411 L 339 386" fill="none" id="make-me-a-hanzi-animation-5" stroke-dasharray="213 426" stroke-linecap="round"></path>
    
      <clipPath id="make-me-a-hanzi-clip-6">
        <path d="M 321 337 Q 357 346 395 353 Q 420 359 423 348 Q 423 335 396 288 Q 389 276 396 273 Q 400 269 412 279 Q 475 324 500 332 Q 519 336 519 347 Q 518 357 458 388 Q 437 397 348 370 Q 258 349 131 325 Q 109 322 126 304 Q 139 288 178 301 Q 229 316 280 327 L 321 337 Z"></path>
      </clipPath>
      <path clip-path="url(#make-me-a-hanzi-clip-6)" d="M 129 314 L 152 311 L 386 367 L 422 371 L 448 362 L 458 350 L 400 281" fill="none" id="make-me-a-hanzi-animation-6" stroke-dasharray="561 1122" stroke-linecap="round"></path>
    
      <clipPath id="make-me-a-hanzi-clip-7">
        <path d="M 280 327 Q 287 312 293 227 Q 293 176 297 95 Q 296 68 288 58 Q 282 55 211 71 Q 201 74 201 68 Q 202 61 210 54 Q 264 8 298 -27 Q 308 -34 319 -21 Q 355 25 347 122 Q 341 216 344 288 Q 348 310 343 319 Q 337 328 321 337 C 296 353 272 356 280 327 Z"></path>
      </clipPath>
      <path clip-path="url(#make-me-a-hanzi-clip-7)" d="M 287 326 L 316 304 L 323 78 L 316 48 L 300 23 L 207 66" fill="none" id="make-me-a-hanzi-animation-7" stroke-dasharray="553 1106" stroke-linecap="round"></path>
    
      <clipPath id="make-me-a-hanzi-clip-8">
        <path d="M 681 531 Q 739 544 806 555 Q 848 565 854 570 Q 863 577 859 585 Q 852 595 826 603 Q 802 609 698 578 Q 595 559 545 554 Q 511 550 535 533 Q 566 512 640 524 Q 641 524 643 524 L 681 531 Z"></path>
      </clipPath>
      <path clip-path="url(#make-me-a-hanzi-clip-8)" d="M 537 545 L 609 540 L 786 577 L 848 580" fill="none" id="make-me-a-hanzi-animation-8" stroke-dasharray="443 886" stroke-linecap="round"></path>
    
      <clipPath id="make-me-a-hanzi-clip-9">
        <path d="M 649 445 Q 650 448 654 450 Q 701 500 702 501 Q 701 503 701 504 Q 697 517 681 531 C 659 551 645 554 643 524 Q 643 506 622 457 Q 615 447 611 437 C 599 409 631 421 649 445 Z"></path>
      </clipPath>
      <path clip-path="url(#make-me-a-hanzi-clip-9)" d="M 699 502 L 666 502 L 650 471 L 617 440" fill="none" id="make-me-a-hanzi-animation-9" stroke-dasharray="241 482" stroke-linecap="round"></path>
    
      <clipPath id="make-me-a-hanzi-clip-10">
        <path d="M 574 431 Q 562 443 542 449 Q 535 453 525 449 Q 519 445 524 436 Q 525 430 528 424 Q 549 384 539 235 Q 524 162 552 124 Q 561 114 569 124 Q 576 134 577 147 L 580 175 Q 580 202 579 228 L 579 252 Q 579 283 579 308 L 579 333 Q 579 396 580 404 C 581 425 581 425 574 431 Z"></path>
      </clipPath>
      <path clip-path="url(#make-me-a-hanzi-clip-10)" d="M 531 442 L 550 424 L 558 403 L 562 345 L 556 188 L 561 129" fill="none" id="make-me-a-hanzi-animation-10" stroke-dasharray="451 902" stroke-linecap="round"></path>
    
      <clipPath id="make-me-a-hanzi-clip-11">
        <path d="M 763 161 Q 762 148 771 135 Q 781 110 790 111 Q 803 112 817 139 Q 830 161 829 179 Q 810 366 843 415 Q 852 430 845 438 Q 820 460 778 478 Q 765 482 743 475 Q 706 459 656 447 Q 652 446 649 445 L 611 437 Q 592 436 574 431 C 545 425 550 401 580 404 Q 587 403 596 405 Q 750 448 763 432 Q 776 416 775 360 Q 775 231 768 188 L 763 161 Z"></path>
      </clipPath>
      <path clip-path="url(#make-me-a-hanzi-clip-11)" d="M 582 426 L 606 420 L 764 457 L 790 442 L 806 423 L 797 306 L 799 188 L 791 122" fill="none" id="make-me-a-hanzi-animation-11" stroke-dasharray="672 1344" stroke-linecap="round"></path>
    
      <clipPath id="make-me-a-hanzi-clip-12">
        <path d="M 579 308 Q 655 320 713 328 Q 732 331 725 342 Q 716 354 695 358 Q 665 361 579 333 C 550 324 549 303 579 308 Z"></path>
      </clipPath>
      <path clip-path="url(#make-me-a-hanzi-clip-12)" d="M 587 314 L 593 326 L 613 330 L 697 342 L 717 337" fill="none" id="make-me-a-hanzi-animation-12" stroke-dasharray="267 534" stroke-linecap="round"></path>
    
      <clipPath id="make-me-a-hanzi-clip-13">
        <path d="M 579 228 Q 580 228 584 228 Q 657 241 713 248 Q 732 251 725 262 Q 716 274 695 278 Q 668 281 579 252 C 550 243 549 228 579 228 Z"></path>
      </clipPath>
      <path clip-path="url(#make-me-a-hanzi-clip-13)" d="M 582 234 L 594 245 L 648 256 L 697 262 L 717 257" fill="none" id="make-me-a-hanzi-animation-13" stroke-dasharray="269 538" stroke-linecap="round"></path>
    
      <clipPath id="make-me-a-hanzi-clip-14">
        <path d="M 577 147 Q 587 146 596 147 Q 648 157 763 161 C 793 162 790 168 768 188 Q 764 192 758 196 Q 745 203 718 198 Q 642 183 580 175 C 550 171 547 149 577 147 Z"></path>
      </clipPath>
      <path clip-path="url(#make-me-a-hanzi-clip-14)" d="M 582 154 L 603 164 L 729 180 L 746 180 L 752 170" fill="none" id="make-me-a-hanzi-animation-14" stroke-dasharray="307 614" stroke-linecap="round"></path>
    
      <clipPath id="make-me-a-hanzi-clip-15">
        <path d="M 563 92 Q 553 49 441 -30 Q 422 -40 446 -40 Q 495 -43 605 42 Q 615 51 623 55 Q 633 64 632 72 Q 631 85 609 94 Q 585 106 574 104 Q 567 103 563 92 Z"></path>
      </clipPath>
      <path clip-path="url(#make-me-a-hanzi-clip-15)" d="M 616 71 L 589 69 L 522 7 L 450 -32" fill="none" id="make-me-a-hanzi-animation-15" stroke-dasharray="328 656" stroke-linecap="round"></path>
    
      <clipPath id="make-me-a-hanzi-clip-16">
        <path d="M 730 84 Q 772 39 820 -25 Q 833 -44 846 -48 Q 853 -49 861 -42 Q 873 -32 865 8 Q 858 53 733 111 Q 726 115 722 105 Q 721 93 730 84 Z"></path>
      </clipPath>
      <path clip-path="url(#make-me-a-hanzi-clip-16)" d="M 732 101 L 826 18 L 848 -34" fill="none" id="make-me-a-hanzi-animation-16" stroke-dasharray="310 620" stroke-linecap="round"></path>
    
  </g>
</svg>