<svg version="1.1" viewBox="0 0 1024 1024" xmlns="http://www.w3.org/2000/svg">
  <g stroke="lightgray" stroke-dasharray="1,1" stroke-width="1" transform="scale(4, 4)">
    <line x1="0" y1="0" x2="256" y2="256"></line>
    <line x1="256" y1="0" x2="0" y2="256"></line>
    <line x1="128" y1="0" x2="128" y2="256"></line>
    <line x1="0" y1="128" x2="256" y2="128"></line>
  </g>
  <g transform="scale(1, -1) translate(0, -900)">
    <style type="text/css">
      
        @keyframes keyframes0 {
          from {
            stroke: blue;
            stroke-dashoffset: 423;
            stroke-width: 128;
          }
          58% {
            animation-timing-function: step-end;
            stroke: blue;
            stroke-dashoffset: 0;
            stroke-width: 128;
          }
          to {
            stroke: black;
            stroke-width: 1024;
          }
        }
        #make-me-a-hanzi-animation-0 {
          animation: keyframes0 0.59423828125s both;
          animation-delay: 0s;
          animation-timing-function: linear;
        }
      
        @keyframes keyframes1 {
          from {
            stroke: blue;
            stroke-dashoffset: 513;
            stroke-width: 128;
          }
          63% {
            animation-timing-function: step-end;
            stroke: blue;
            stroke-dashoffset: 0;
            stroke-width: 128;
          }
          to {
            stroke: black;
            stroke-width: 1024;
          }
        }
        #make-me-a-hanzi-animation-1 {
          animation: keyframes1 0.66748046875s both;
          animation-delay: 0.59423828125s;
          animation-timing-function: linear;
        }
      
        @keyframes keyframes2 {
          from {
            stroke: blue;
            stroke-dashoffset: 453;
            stroke-width: 128;
          }
          60% {
            animation-timing-function: step-end;
            stroke: blue;
            stroke-dashoffset: 0;
            stroke-width: 128;
          }
          to {
            stroke: black;
            stroke-width: 1024;
          }
        }
        #make-me-a-hanzi-animation-2 {
          animation: keyframes2 0.61865234375s both;
          animation-delay: 1.26171875s;
          animation-timing-function: linear;
        }
      
        @keyframes keyframes3 {
          from {
            stroke: blue;
            stroke-dashoffset: 518;
            stroke-width: 128;
          }
          63% {
            animation-timing-function: step-end;
            stroke: blue;
            stroke-dashoffset: 0;
            stroke-width: 128;
          }
          to {
            stroke: black;
            stroke-width: 1024;
          }
        }
        #make-me-a-hanzi-animation-3 {
          animation: keyframes3 0.6715494791666666s both;
          animation-delay: 1.88037109375s;
          animation-timing-function: linear;
        }
      
        @keyframes keyframes4 {
          from {
            stroke: blue;
            stroke-dashoffset: 478;
            stroke-width: 128;
          }
          61% {
            animation-timing-function: step-end;
            stroke: blue;
            stroke-dashoffset: 0;
            stroke-width: 128;
          }
          to {
            stroke: black;
            stroke-width: 1024;
          }
        }
        #make-me-a-hanzi-animation-4 {
          animation: keyframes4 0.6389973958333334s both;
          animation-delay: 2.5519205729166665s;
          animation-timing-function: linear;
        }
      
        @keyframes keyframes5 {
          from {
            stroke: blue;
            stroke-dashoffset: 424;
            stroke-width: 128;
          }
          58% {
            animation-timing-function: step-end;
            stroke: blue;
            stroke-dashoffset: 0;
            stroke-width: 128;
          }
          to {
            stroke: black;
            stroke-width: 1024;
          }
        }
        #make-me-a-hanzi-animation-5 {
          animation: keyframes5 0.5950520833333334s both;
          animation-delay: 3.19091796875s;
          animation-timing-function: linear;
        }
      
        @keyframes keyframes6 {
          from {
            stroke: blue;
            stroke-dashoffset: 648;
            stroke-width: 128;
          }
          68% {
            animation-timing-function: step-end;
            stroke: blue;
            stroke-dashoffset: 0;
            stroke-width: 128;
          }
          to {
            stroke: black;
            stroke-width: 1024;
          }
        }
        #make-me-a-hanzi-animation-6 {
          animation: keyframes6 0.77734375s both;
          animation-delay: 3.7859700520833335s;
          animation-timing-function: linear;
        }
      
        @keyframes keyframes7 {
          from {
            stroke: blue;
            stroke-dashoffset: 418;
            stroke-width: 128;
          }
          58% {
            animation-timing-function: step-end;
            stroke: blue;
            stroke-dashoffset: 0;
            stroke-width: 128;
          }
          to {
            stroke: black;
            stroke-width: 1024;
          }
        }
        #make-me-a-hanzi-animation-7 {
          animation: keyframes7 0.5901692708333334s both;
          animation-delay: 4.563313802083334s;
          animation-timing-function: linear;
        }
      
        @keyframes keyframes8 {
          from {
            stroke: blue;
            stroke-dashoffset: 339;
            stroke-width: 128;
          }
          52% {
            animation-timing-function: step-end;
            stroke: blue;
            stroke-dashoffset: 0;
            stroke-width: 128;
          }
          to {
            stroke: black;
            stroke-width: 1024;
          }
        }
        #make-me-a-hanzi-animation-8 {
          animation: keyframes8 0.52587890625s both;
          animation-delay: 5.153483072916667s;
          animation-timing-function: linear;
        }
      
        @keyframes keyframes9 {
          from {
            stroke: blue;
            stroke-dashoffset: 433;
            stroke-width: 128;
          }
          58% {
            animation-timing-function: step-end;
            stroke: blue;
            stroke-dashoffset: 0;
            stroke-width: 128;
          }
          to {
            stroke: black;
            stroke-width: 1024;
          }
        }
        #make-me-a-hanzi-animation-9 {
          animation: keyframes9 0.6023763020833334s both;
          animation-delay: 5.679361979166667s;
          animation-timing-function: linear;
        }
      
        @keyframes keyframes10 {
          from {
            stroke: blue;
            stroke-dashoffset: 431;
            stroke-width: 128;
          }
          58% {
            animation-timing-function: step-end;
            stroke: blue;
            stroke-dashoffset: 0;
            stroke-width: 128;
          }
          to {
            stroke: black;
            stroke-width: 1024;
          }
        }
        #make-me-a-hanzi-animation-10 {
          animation: keyframes10 0.6007486979166666s both;
          animation-delay: 6.28173828125s;
          animation-timing-function: linear;
        }
      
        @keyframes keyframes11 {
          from {
            stroke: blue;
            stroke-dashoffset: 518;
            stroke-width: 128;
          }
          63% {
            animation-timing-function: step-end;
            stroke: blue;
            stroke-dashoffset: 0;
            stroke-width: 128;
          }
          to {
            stroke: black;
            stroke-width: 1024;
          }
        }
        #make-me-a-hanzi-animation-11 {
          animation: keyframes11 0.6715494791666666s both;
          animation-delay: 6.882486979166667s;
          animation-timing-function: linear;
        }
      
        @keyframes keyframes12 {
          from {
            stroke: blue;
            stroke-dashoffset: 662;
            stroke-width: 128;
          }
          68% {
            animation-timing-function: step-end;
            stroke: blue;
            stroke-dashoffset: 0;
            stroke-width: 128;
          }
          to {
            stroke: black;
            stroke-width: 1024;
          }
        }
        #make-me-a-hanzi-animation-12 {
          animation: keyframes12 0.7887369791666666s both;
          animation-delay: 7.554036458333334s;
          animation-timing-function: linear;
        }
      
        @keyframes keyframes13 {
          from {
            stroke: blue;
            stroke-dashoffset: 1038;
            stroke-width: 128;
          }
          77% {
            animation-timing-function: step-end;
            stroke: blue;
            stroke-dashoffset: 0;
            stroke-width: 128;
          }
          to {
            stroke: black;
            stroke-width: 1024;
          }
        }
        #make-me-a-hanzi-animation-13 {
          animation: keyframes13 1.0947265625s both;
          animation-delay: 8.3427734375s;
          animation-timing-function: linear;
        }
      
        @keyframes keyframes14 {
          from {
            stroke: blue;
            stroke-dashoffset: 417;
            stroke-width: 128;
          }
          58% {
            animation-timing-function: step-end;
            stroke: blue;
            stroke-dashoffset: 0;
            stroke-width: 128;
          }
          to {
            stroke: black;
            stroke-width: 1024;
          }
        }
        #make-me-a-hanzi-animation-14 {
          animation: keyframes14 0.58935546875s both;
          animation-delay: 9.4375s;
          animation-timing-function: linear;
        }
      
        @keyframes keyframes15 {
          from {
            stroke: blue;
            stroke-dashoffset: 448;
            stroke-width: 128;
          }
          59% {
            animation-timing-function: step-end;
            stroke: blue;
            stroke-dashoffset: 0;
            stroke-width: 128;
          }
          to {
            stroke: black;
            stroke-width: 1024;
          }
        }
        #make-me-a-hanzi-animation-15 {
          animation: keyframes15 0.6145833333333334s both;
          animation-delay: 10.02685546875s;
          animation-timing-function: linear;
        }
      
        @keyframes keyframes16 {
          from {
            stroke: blue;
            stroke-dashoffset: 786;
            stroke-width: 128;
          }
          72% {
            animation-timing-function: step-end;
            stroke: blue;
            stroke-dashoffset: 0;
            stroke-width: 128;
          }
          to {
            stroke: black;
            stroke-width: 1024;
          }
        }
        #make-me-a-hanzi-animation-16 {
          animation: keyframes16 0.8896484375s both;
          animation-delay: 10.641438802083334s;
          animation-timing-function: linear;
        }
      
        @keyframes keyframes17 {
          from {
            stroke: blue;
            stroke-dashoffset: 759;
            stroke-width: 128;
          }
          71% {
            animation-timing-function: step-end;
            stroke: blue;
            stroke-dashoffset: 0;
            stroke-width: 128;
          }
          to {
            stroke: black;
            stroke-width: 1024;
          }
        }
        #make-me-a-hanzi-animation-17 {
          animation: keyframes17 0.86767578125s both;
          animation-delay: 11.531087239583334s;
          animation-timing-function: linear;
        }
      
        @keyframes keyframes18 {
          from {
            stroke: blue;
            stroke-dashoffset: 493;
            stroke-width: 128;
          }
          62% {
            animation-timing-function: step-end;
            stroke: blue;
            stroke-dashoffset: 0;
            stroke-width: 128;
          }
          to {
            stroke: black;
            stroke-width: 1024;
          }
        }
        #make-me-a-hanzi-animation-18 {
          animation: keyframes18 0.6512044270833334s both;
          animation-delay: 12.398763020833334s;
          animation-timing-function: linear;
        }
      
    </style>
    
      <path d="M 442 771 Q 441 792 439 808 Q 440 824 422 829 Q 388 844 370 837 Q 354 830 368 813 Q 389 791 399 764 L 407 738 Q 419 690 432 678 Q 444 669 447 679 Q 448 689 444 748 L 442 771 Z" fill="lightgray"></path>
    
      <path d="M 444 748 Q 454 749 468 757 Q 472 761 472 767 Q 471 771 460 774 Q 450 773 442 771 L 399 764 Q 342 758 267 746 Q 207 749 205 743 Q 204 736 209 728 Q 219 716 243 706 Q 258 699 272 703 Q 336 719 407 738 L 444 748 Z" fill="lightgray"></path>
    
      <path d="M 642 785 Q 649 801 663 819 Q 676 831 668 841 Q 658 856 630 873 Q 617 882 601 876 Q 592 872 598 861 Q 604 840 589 778 L 581 752 Q 562 700 563 685 Q 564 675 576 679 Q 588 689 621 745 L 642 785 Z" fill="lightgray"></path>
    
      <path d="M 621 745 Q 631 745 644 747 Q 734 763 818 752 Q 831 751 835 759 Q 839 768 828 780 Q 792 816 709 796 Q 676 792 642 785 L 589 778 Q 580 778 572 777 Q 548 776 564 762 Q 573 756 581 752 L 621 745 Z" fill="lightgray"></path>
    
      <path d="M 367 567 Q 395 576 432 583 Q 460 590 464 595 Q 470 601 467 607 Q 461 616 439 621 Q 415 624 372 606 L 327 591 Q 287 582 245 576 Q 217 572 238 559 Q 269 541 326 558 Q 327 558 329 558 L 367 567 Z" fill="lightgray"></path>
    
      <path d="M 362 526 Q 363 548 367 567 L 372 606 Q 376 634 383 652 Q 386 659 371 671 Q 346 684 329 688 Q 319 691 312 685 Q 306 679 312 668 Q 322 653 327 591 L 329 558 Q 329 539 329 518 C 329 488 360 496 362 526 Z" fill="lightgray"></path>
    
      <path d="M 242 461 Q 312 488 472 516 Q 485 519 486 524 Q 486 534 472 542 Q 444 554 362 526 L 329 518 Q 176 479 98 468 Q 88 467 86 460 Q 83 451 96 442 Q 129 424 169 436 Q 191 445 216 452 L 242 461 Z" fill="lightgray"></path>
    
      <path d="M 216 452 Q 216 404 143 327 Q 142 326 141 322 Q 141 318 145 318 Q 202 339 246 403 Q 255 415 260 420 Q 264 427 260 436 Q 251 452 242 461 C 222 483 217 482 216 452 Z" fill="lightgray"></path>
    
      <path d="M 431 454 Q 459 412 479 400 Q 489 397 496 405 Q 502 412 501 425 Q 500 441 488 451 Q 449 485 425 481 Q 421 481 422 473 Q 422 464 431 454 Z" fill="lightgray"></path>
    
      <path d="M 363 348 Q 429 367 432 368 Q 438 374 434 380 Q 430 387 409 392 Q 387 395 367 386 Q 366 386 366 385 C 347 375 347 375 322 370 Q 292 364 260 358 Q 235 354 253 342 Q 284 327 322 338 L 363 348 Z" fill="lightgray"></path>
    
      <path d="M 359 295 Q 360 323 363 348 L 366 385 Q 367 392 368 400 Q 374 430 369 435 Q 351 454 334 463 Q 324 466 317 463 Q 310 460 312 452 Q 321 433 322 370 L 322 338 Q 322 316 322 284 C 322 254 358 265 359 295 Z" fill="lightgray"></path>
    
      <path d="M 322 284 Q 273 271 223 257 Q 208 253 185 254 Q 175 253 174 245 Q 173 235 179 229 Q 195 217 220 203 Q 227 200 236 207 Q 248 216 398 284 Q 417 291 430 302 Q 440 306 440 314 Q 436 318 427 316 Q 394 306 359 295 L 322 284 Z" fill="lightgray"></path>
    
      <path d="M 616 441 Q 631 480 642 567 L 645 599 Q 645 602 651 632 Q 657 648 641 656 Q 605 675 594 674 Q 579 673 590 655 Q 599 639 600 586 L 597 551 Q 591 488 581 460 L 571 432 Q 568 428 566 420 Q 545 375 495 332 Q 483 322 481 318 Q 480 312 488 312 Q 518 312 562 356 Q 584 378 599 404 L 616 441 Z" fill="lightgray"></path>
    
      <path d="M 642 567 Q 708 594 716 589 Q 723 585 720 570 Q 663 261 908 261 Q 923 262 932 265 Q 951 274 941 300 Q 923 339 910 385 Q 906 410 900 417 Q 893 421 890 408 Q 877 338 864 322 Q 849 315 833 322 Q 805 331 781 354 Q 745 393 748 472 Q 751 548 793 587 Q 806 597 800 606 Q 793 616 748 635 Q 735 641 723 632 Q 698 616 645 599 L 600 586 Q 546 571 503 568 Q 491 567 497 555 Q 501 545 520 539 Q 539 532 559 538 Q 577 545 597 551 L 642 567 Z" fill="lightgray"></path>
    
      <path d="M 599 404 Q 644 359 650 356 Q 656 355 660 362 Q 667 369 660 397 Q 651 421 616 441 L 581 460 Q 556 473 541 479 Q 535 482 534 474 Q 533 468 571 432 L 599 404 Z" fill="lightgray"></path>
    
      <path d="M 422 250 Q 394 244 414 232 Q 447 214 505 228 Q 544 237 586 245 Q 608 249 611 253 Q 618 260 615 267 Q 608 276 585 281 Q 567 284 486 260 Q 456 253 422 250 Z" fill="lightgray"></path>
    
      <path d="M 455 141 Q 501 166 748 166 Q 766 166 772 174 Q 776 184 761 196 Q 713 226 684 219 Q 572 192 242 139 Q 224 138 238 123 Q 251 111 266 107 Q 284 103 298 108 Q 353 126 420 136 L 455 141 Z" fill="lightgray"></path>
    
      <path d="M 621 51 Q 498 33 373 14 Q 363 13 361 15 Q 361 16 366 21 Q 451 79 481 93 Q 497 102 492 113 Q 486 125 459 140 Q 458 141 455 141 C 428 155 423 157 420 136 Q 419 133 419 129 Q 415 72 312 25 Q 249 6 249 -10 Q 248 -22 254 -40 Q 261 -62 274 -69 Q 281 -73 293 -69 Q 389 -17 628 31 L 634 33 C 663 40 651 55 621 51 Z" fill="lightgray"></path>
    
      <path d="M 634 33 Q 718 -78 720 -80 Q 729 -83 737 -74 Q 752 -62 745 -18 Q 741 40 594 122 Q 587 129 582 117 Q 581 104 589 92 Q 604 73 621 51 L 634 33 Z" fill="lightgray"></path>
    
    
      <clipPath id="make-me-a-hanzi-clip-0">
        <path d="M 442 771 Q 441 792 439 808 Q 440 824 422 829 Q 388 844 370 837 Q 354 830 368 813 Q 389 791 399 764 L 407 738 Q 419 690 432 678 Q 444 669 447 679 Q 448 689 444 748 L 442 771 Z"></path>
      </clipPath>
      <path clip-path="url(#make-me-a-hanzi-clip-0)" d="M 374 825 L 411 803 L 439 682" fill="none" id="make-me-a-hanzi-animation-0" stroke-dasharray="295 590" stroke-linecap="round"></path>
    
      <clipPath id="make-me-a-hanzi-clip-1">
        <path d="M 444 748 Q 454 749 468 757 Q 472 761 472 767 Q 471 771 460 774 Q 450 773 442 771 L 399 764 Q 342 758 267 746 Q 207 749 205 743 Q 204 736 209 728 Q 219 716 243 706 Q 258 699 272 703 Q 336 719 407 738 L 444 748 Z"></path>
      </clipPath>
      <path clip-path="url(#make-me-a-hanzi-clip-1)" d="M 211 737 L 274 725 L 463 765" fill="none" id="make-me-a-hanzi-animation-1" stroke-dasharray="385 770" stroke-linecap="round"></path>
    
      <clipPath id="make-me-a-hanzi-clip-2">
        <path d="M 642 785 Q 649 801 663 819 Q 676 831 668 841 Q 658 856 630 873 Q 617 882 601 876 Q 592 872 598 861 Q 604 840 589 778 L 581 752 Q 562 700 563 685 Q 564 675 576 679 Q 588 689 621 745 L 642 785 Z"></path>
      </clipPath>
      <path clip-path="url(#make-me-a-hanzi-clip-2)" d="M 610 866 L 632 831 L 600 744 L 572 688" fill="none" id="make-me-a-hanzi-animation-2" stroke-dasharray="325 650" stroke-linecap="round"></path>
    
      <clipPath id="make-me-a-hanzi-clip-3">
        <path d="M 621 745 Q 631 745 644 747 Q 734 763 818 752 Q 831 751 835 759 Q 839 768 828 780 Q 792 816 709 796 Q 676 792 642 785 L 589 778 Q 580 778 572 777 Q 548 776 564 762 Q 573 756 581 752 L 621 745 Z"></path>
      </clipPath>
      <path clip-path="url(#make-me-a-hanzi-clip-3)" d="M 566 770 L 617 763 L 771 780 L 824 764" fill="none" id="make-me-a-hanzi-animation-3" stroke-dasharray="390 780" stroke-linecap="round"></path>
    
      <clipPath id="make-me-a-hanzi-clip-4">
        <path d="M 367 567 Q 395 576 432 583 Q 460 590 464 595 Q 470 601 467 607 Q 461 616 439 621 Q 415 624 372 606 L 327 591 Q 287 582 245 576 Q 217 572 238 559 Q 269 541 326 558 Q 327 558 329 558 L 367 567 Z"></path>
      </clipPath>
      <path clip-path="url(#make-me-a-hanzi-clip-4)" d="M 239 569 L 258 564 L 296 568 L 414 600 L 456 603" fill="none" id="make-me-a-hanzi-animation-4" stroke-dasharray="350 700" stroke-linecap="round"></path>
    
      <clipPath id="make-me-a-hanzi-clip-5">
        <path d="M 362 526 Q 363 548 367 567 L 372 606 Q 376 634 383 652 Q 386 659 371 671 Q 346 684 329 688 Q 319 691 312 685 Q 306 679 312 668 Q 322 653 327 591 L 329 558 Q 329 539 329 518 C 329 488 360 496 362 526 Z"></path>
      </clipPath>
      <path clip-path="url(#make-me-a-hanzi-clip-5)" d="M 321 677 L 340 661 L 350 638 L 347 549 L 343 534 L 333 525" fill="none" id="make-me-a-hanzi-animation-5" stroke-dasharray="296 592" stroke-linecap="round"></path>
    
      <clipPath id="make-me-a-hanzi-clip-6">
        <path d="M 242 461 Q 312 488 472 516 Q 485 519 486 524 Q 486 534 472 542 Q 444 554 362 526 L 329 518 Q 176 479 98 468 Q 88 467 86 460 Q 83 451 96 442 Q 129 424 169 436 Q 191 445 216 452 L 242 461 Z"></path>
      </clipPath>
      <path clip-path="url(#make-me-a-hanzi-clip-6)" d="M 97 457 L 121 452 L 156 455 L 378 516 L 446 529 L 479 527" fill="none" id="make-me-a-hanzi-animation-6" stroke-dasharray="520 1040" stroke-linecap="round"></path>
    
      <clipPath id="make-me-a-hanzi-clip-7">
        <path d="M 216 452 Q 216 404 143 327 Q 142 326 141 322 Q 141 318 145 318 Q 202 339 246 403 Q 255 415 260 420 Q 264 427 260 436 Q 251 452 242 461 C 222 483 217 482 216 452 Z"></path>
      </clipPath>
      <path clip-path="url(#make-me-a-hanzi-clip-7)" d="M 225 446 L 237 430 L 217 394 L 181 350 L 146 323" fill="none" id="make-me-a-hanzi-animation-7" stroke-dasharray="290 580" stroke-linecap="round"></path>
    
      <clipPath id="make-me-a-hanzi-clip-8">
        <path d="M 431 454 Q 459 412 479 400 Q 489 397 496 405 Q 502 412 501 425 Q 500 441 488 451 Q 449 485 425 481 Q 421 481 422 473 Q 422 464 431 454 Z"></path>
      </clipPath>
      <path clip-path="url(#make-me-a-hanzi-clip-8)" d="M 430 475 L 476 432 L 484 414" fill="none" id="make-me-a-hanzi-animation-8" stroke-dasharray="211 422" stroke-linecap="round"></path>
    
      <clipPath id="make-me-a-hanzi-clip-9">
        <path d="M 363 348 Q 429 367 432 368 Q 438 374 434 380 Q 430 387 409 392 Q 387 395 367 386 Q 366 386 366 385 C 347 375 347 375 322 370 Q 292 364 260 358 Q 235 354 253 342 Q 284 327 322 338 L 363 348 Z"></path>
      </clipPath>
      <path clip-path="url(#make-me-a-hanzi-clip-9)" d="M 255 351 L 299 349 L 401 377 L 428 375" fill="none" id="make-me-a-hanzi-animation-9" stroke-dasharray="305 610" stroke-linecap="round"></path>
    
      <clipPath id="make-me-a-hanzi-clip-10">
        <path d="M 359 295 Q 360 323 363 348 L 366 385 Q 367 392 368 400 Q 374 430 369 435 Q 351 454 334 463 Q 324 466 317 463 Q 310 460 312 452 Q 321 433 322 370 L 322 338 Q 322 316 322 284 C 322 254 358 265 359 295 Z"></path>
      </clipPath>
      <path clip-path="url(#make-me-a-hanzi-clip-10)" d="M 323 454 L 345 423 L 346 412 L 341 309 L 326 292" fill="none" id="make-me-a-hanzi-animation-10" stroke-dasharray="303 606" stroke-linecap="round"></path>
    
      <clipPath id="make-me-a-hanzi-clip-11">
        <path d="M 322 284 Q 273 271 223 257 Q 208 253 185 254 Q 175 253 174 245 Q 173 235 179 229 Q 195 217 220 203 Q 227 200 236 207 Q 248 216 398 284 Q 417 291 430 302 Q 440 306 440 314 Q 436 318 427 316 Q 394 306 359 295 L 322 284 Z"></path>
      </clipPath>
      <path clip-path="url(#make-me-a-hanzi-clip-11)" d="M 186 241 L 229 232 L 433 310" fill="none" id="make-me-a-hanzi-animation-11" stroke-dasharray="390 780" stroke-linecap="round"></path>
    
      <clipPath id="make-me-a-hanzi-clip-12">
        <path d="M 616 441 Q 631 480 642 567 L 645 599 Q 645 602 651 632 Q 657 648 641 656 Q 605 675 594 674 Q 579 673 590 655 Q 599 639 600 586 L 597 551 Q 591 488 581 460 L 571 432 Q 568 428 566 420 Q 545 375 495 332 Q 483 322 481 318 Q 480 312 488 312 Q 518 312 562 356 Q 584 378 599 404 L 616 441 Z"></path>
      </clipPath>
      <path clip-path="url(#make-me-a-hanzi-clip-12)" d="M 594 664 L 611 652 L 624 628 L 614 510 L 599 452 L 572 394 L 545 360 L 501 323 L 487 318" fill="none" id="make-me-a-hanzi-animation-12" stroke-dasharray="534 1068" stroke-linecap="round"></path>
    
      <clipPath id="make-me-a-hanzi-clip-13">
        <path d="M 642 567 Q 708 594 716 589 Q 723 585 720 570 Q 663 261 908 261 Q 923 262 932 265 Q 951 274 941 300 Q 923 339 910 385 Q 906 410 900 417 Q 893 421 890 408 Q 877 338 864 322 Q 849 315 833 322 Q 805 331 781 354 Q 745 393 748 472 Q 751 548 793 587 Q 806 597 800 606 Q 793 616 748 635 Q 735 641 723 632 Q 698 616 645 599 L 600 586 Q 546 571 503 568 Q 491 567 497 555 Q 501 545 520 539 Q 539 532 559 538 Q 577 545 597 551 L 642 567 Z"></path>
      </clipPath>
      <path clip-path="url(#make-me-a-hanzi-clip-13)" d="M 509 557 L 559 557 L 650 582 L 658 590 L 717 608 L 746 603 L 753 591 L 733 529 L 728 461 L 738 389 L 764 338 L 794 313 L 831 296 L 863 292 L 897 300 L 897 411" fill="none" id="make-me-a-hanzi-animation-13" stroke-dasharray="910 1820" stroke-linecap="round"></path>
    
      <clipPath id="make-me-a-hanzi-clip-14">
        <path d="M 599 404 Q 644 359 650 356 Q 656 355 660 362 Q 667 369 660 397 Q 651 421 616 441 L 581 460 Q 556 473 541 479 Q 535 482 534 474 Q 533 468 571 432 L 599 404 Z"></path>
      </clipPath>
      <path clip-path="url(#make-me-a-hanzi-clip-14)" d="M 540 473 L 614 420 L 639 393 L 652 363" fill="none" id="make-me-a-hanzi-animation-14" stroke-dasharray="289 578" stroke-linecap="round"></path>
    
      <clipPath id="make-me-a-hanzi-clip-15">
        <path d="M 422 250 Q 394 244 414 232 Q 447 214 505 228 Q 544 237 586 245 Q 608 249 611 253 Q 618 260 615 267 Q 608 276 585 281 Q 567 284 486 260 Q 456 253 422 250 Z"></path>
      </clipPath>
      <path clip-path="url(#make-me-a-hanzi-clip-15)" d="M 416 242 L 435 237 L 476 239 L 555 259 L 605 262" fill="none" id="make-me-a-hanzi-animation-15" stroke-dasharray="320 640" stroke-linecap="round"></path>
    
      <clipPath id="make-me-a-hanzi-clip-16">
        <path d="M 455 141 Q 501 166 748 166 Q 766 166 772 174 Q 776 184 761 196 Q 713 226 684 219 Q 572 192 242 139 Q 224 138 238 123 Q 251 111 266 107 Q 284 103 298 108 Q 353 126 420 136 L 455 141 Z"></path>
      </clipPath>
      <path clip-path="url(#make-me-a-hanzi-clip-16)" d="M 240 131 L 289 126 L 504 170 L 693 193 L 762 179" fill="none" id="make-me-a-hanzi-animation-16" stroke-dasharray="658 1316" stroke-linecap="round"></path>
    
      <clipPath id="make-me-a-hanzi-clip-17">
        <path d="M 621 51 Q 498 33 373 14 Q 363 13 361 15 Q 361 16 366 21 Q 451 79 481 93 Q 497 102 492 113 Q 486 125 459 140 Q 458 141 455 141 C 428 155 423 157 420 136 Q 419 133 419 129 Q 415 72 312 25 Q 249 6 249 -10 Q 248 -22 254 -40 Q 261 -62 274 -69 Q 281 -73 293 -69 Q 389 -17 628 31 L 634 33 C 663 40 651 55 621 51 Z"></path>
      </clipPath>
      <path clip-path="url(#make-me-a-hanzi-clip-17)" d="M 477 108 L 446 109 L 415 73 L 347 27 L 331 -9 L 365 -11 L 584 35 L 629 37" fill="none" id="make-me-a-hanzi-animation-17" stroke-dasharray="631 1262" stroke-linecap="round"></path>
    
      <clipPath id="make-me-a-hanzi-clip-18">
        <path d="M 634 33 Q 718 -78 720 -80 Q 729 -83 737 -74 Q 752 -62 745 -18 Q 741 40 594 122 Q 587 129 582 117 Q 581 104 589 92 Q 604 73 621 51 L 634 33 Z"></path>
      </clipPath>
      <path clip-path="url(#make-me-a-hanzi-clip-18)" d="M 591 111 L 699 4 L 724 -48 L 724 -75" fill="none" id="make-me-a-hanzi-animation-18" stroke-dasharray="365 730" stroke-linecap="round"></path>
    
  </g>
</svg>