<svg version="1.1" viewBox="0 0 1024 1024" xmlns="http://www.w3.org/2000/svg">
  <g stroke="lightgray" stroke-dasharray="1,1" stroke-width="1" transform="scale(4, 4)">
    <line x1="0" y1="0" x2="256" y2="256"></line>
    <line x1="256" y1="0" x2="0" y2="256"></line>
    <line x1="128" y1="0" x2="128" y2="256"></line>
    <line x1="0" y1="128" x2="256" y2="128"></line>
  </g>
  <g transform="scale(1, -1) translate(0, -900)">
    <style type="text/css">
      
        @keyframes keyframes0 {
          from {
            stroke: blue;
            stroke-dashoffset: 868;
            stroke-width: 128;
          }
          74% {
            animation-timing-function: step-end;
            stroke: blue;
            stroke-dashoffset: 0;
            stroke-width: 128;
          }
          to {
            stroke: black;
            stroke-width: 1024;
          }
        }
        #make-me-a-hanzi-animation-0 {
          animation: keyframes0 0.9563802083333334s both;
          animation-delay: 0s;
          animation-timing-function: linear;
        }
      
        @keyframes keyframes1 {
          from {
            stroke: blue;
            stroke-dashoffset: 427;
            stroke-width: 128;
          }
          58% {
            animation-timing-function: step-end;
            stroke: blue;
            stroke-dashoffset: 0;
            stroke-width: 128;
          }
          to {
            stroke: black;
            stroke-width: 1024;
          }
        }
        #make-me-a-hanzi-animation-1 {
          animation: keyframes1 0.5974934895833334s both;
          animation-delay: 0.9563802083333334s;
          animation-timing-function: linear;
        }
      
        @keyframes keyframes2 {
          from {
            stroke: blue;
            stroke-dashoffset: 438;
            stroke-width: 128;
          }
          59% {
            animation-timing-function: step-end;
            stroke: blue;
            stroke-dashoffset: 0;
            stroke-width: 128;
          }
          to {
            stroke: black;
            stroke-width: 1024;
          }
        }
        #make-me-a-hanzi-animation-2 {
          animation: keyframes2 0.6064453125s both;
          animation-delay: 1.5538736979166667s;
          animation-timing-function: linear;
        }
      
        @keyframes keyframes3 {
          from {
            stroke: blue;
            stroke-dashoffset: 527;
            stroke-width: 128;
          }
          63% {
            animation-timing-function: step-end;
            stroke: blue;
            stroke-dashoffset: 0;
            stroke-width: 128;
          }
          to {
            stroke: black;
            stroke-width: 1024;
          }
        }
        #make-me-a-hanzi-animation-3 {
          animation: keyframes3 0.6788736979166666s both;
          animation-delay: 2.160319010416667s;
          animation-timing-function: linear;
        }
      
        @keyframes keyframes4 {
          from {
            stroke: blue;
            stroke-dashoffset: 431;
            stroke-width: 128;
          }
          58% {
            animation-timing-function: step-end;
            stroke: blue;
            stroke-dashoffset: 0;
            stroke-width: 128;
          }
          to {
            stroke: black;
            stroke-width: 1024;
          }
        }
        #make-me-a-hanzi-animation-4 {
          animation: keyframes4 0.6007486979166666s both;
          animation-delay: 2.8391927083333335s;
          animation-timing-function: linear;
        }
      
        @keyframes keyframes5 {
          from {
            stroke: blue;
            stroke-dashoffset: 898;
            stroke-width: 128;
          }
          75% {
            animation-timing-function: step-end;
            stroke: blue;
            stroke-dashoffset: 0;
            stroke-width: 128;
          }
          to {
            stroke: black;
            stroke-width: 1024;
          }
        }
        #make-me-a-hanzi-animation-5 {
          animation: keyframes5 0.9807942708333334s both;
          animation-delay: 3.43994140625s;
          animation-timing-function: linear;
        }
      
        @keyframes keyframes6 {
          from {
            stroke: blue;
            stroke-dashoffset: 478;
            stroke-width: 128;
          }
          61% {
            animation-timing-function: step-end;
            stroke: blue;
            stroke-dashoffset: 0;
            stroke-width: 128;
          }
          to {
            stroke: black;
            stroke-width: 1024;
          }
        }
        #make-me-a-hanzi-animation-6 {
          animation: keyframes6 0.6389973958333334s both;
          animation-delay: 4.420735677083333s;
          animation-timing-function: linear;
        }
      
        @keyframes keyframes7 {
          from {
            stroke: blue;
            stroke-dashoffset: 327;
            stroke-width: 128;
          }
          52% {
            animation-timing-function: step-end;
            stroke: blue;
            stroke-dashoffset: 0;
            stroke-width: 128;
          }
          to {
            stroke: black;
            stroke-width: 1024;
          }
        }
        #make-me-a-hanzi-animation-7 {
          animation: keyframes7 0.51611328125s both;
          animation-delay: 5.059733072916666s;
          animation-timing-function: linear;
        }
      
        @keyframes keyframes8 {
          from {
            stroke: blue;
            stroke-dashoffset: 342;
            stroke-width: 128;
          }
          53% {
            animation-timing-function: step-end;
            stroke: blue;
            stroke-dashoffset: 0;
            stroke-width: 128;
          }
          to {
            stroke: black;
            stroke-width: 1024;
          }
        }
        #make-me-a-hanzi-animation-8 {
          animation: keyframes8 0.5283203125s both;
          animation-delay: 5.575846354166666s;
          animation-timing-function: linear;
        }
      
        @keyframes keyframes9 {
          from {
            stroke: blue;
            stroke-dashoffset: 332;
            stroke-width: 128;
          }
          52% {
            animation-timing-function: step-end;
            stroke: blue;
            stroke-dashoffset: 0;
            stroke-width: 128;
          }
          to {
            stroke: black;
            stroke-width: 1024;
          }
        }
        #make-me-a-hanzi-animation-9 {
          animation: keyframes9 0.5201822916666666s both;
          animation-delay: 6.104166666666666s;
          animation-timing-function: linear;
        }
      
        @keyframes keyframes10 {
          from {
            stroke: blue;
            stroke-dashoffset: 335;
            stroke-width: 128;
          }
          52% {
            animation-timing-function: step-end;
            stroke: blue;
            stroke-dashoffset: 0;
            stroke-width: 128;
          }
          to {
            stroke: black;
            stroke-width: 1024;
          }
        }
        #make-me-a-hanzi-animation-10 {
          animation: keyframes10 0.5226236979166666s both;
          animation-delay: 6.624348958333333s;
          animation-timing-function: linear;
        }
      
        @keyframes keyframes11 {
          from {
            stroke: blue;
            stroke-dashoffset: 627;
            stroke-width: 128;
          }
          67% {
            animation-timing-function: step-end;
            stroke: blue;
            stroke-dashoffset: 0;
            stroke-width: 128;
          }
          to {
            stroke: black;
            stroke-width: 1024;
          }
        }
        #make-me-a-hanzi-animation-11 {
          animation: keyframes11 0.76025390625s both;
          animation-delay: 7.14697265625s;
          animation-timing-function: linear;
        }
      
        @keyframes keyframes12 {
          from {
            stroke: blue;
            stroke-dashoffset: 545;
            stroke-width: 128;
          }
          64% {
            animation-timing-function: step-end;
            stroke: blue;
            stroke-dashoffset: 0;
            stroke-width: 128;
          }
          to {
            stroke: black;
            stroke-width: 1024;
          }
        }
        #make-me-a-hanzi-animation-12 {
          animation: keyframes12 0.6935221354166666s both;
          animation-delay: 7.9072265625s;
          animation-timing-function: linear;
        }
      
        @keyframes keyframes13 {
          from {
            stroke: blue;
            stroke-dashoffset: 362;
            stroke-width: 128;
          }
          54% {
            animation-timing-function: step-end;
            stroke: blue;
            stroke-dashoffset: 0;
            stroke-width: 128;
          }
          to {
            stroke: black;
            stroke-width: 1024;
          }
        }
        #make-me-a-hanzi-animation-13 {
          animation: keyframes13 0.5445963541666666s both;
          animation-delay: 8.600748697916666s;
          animation-timing-function: linear;
        }
      
        @keyframes keyframes14 {
          from {
            stroke: blue;
            stroke-dashoffset: 554;
            stroke-width: 128;
          }
          64% {
            animation-timing-function: step-end;
            stroke: blue;
            stroke-dashoffset: 0;
            stroke-width: 128;
          }
          to {
            stroke: black;
            stroke-width: 1024;
          }
        }
        #make-me-a-hanzi-animation-14 {
          animation: keyframes14 0.7008463541666666s both;
          animation-delay: 9.145345052083332s;
          animation-timing-function: linear;
        }
      
        @keyframes keyframes15 {
          from {
            stroke: blue;
            stroke-dashoffset: 519;
            stroke-width: 128;
          }
          63% {
            animation-timing-function: step-end;
            stroke: blue;
            stroke-dashoffset: 0;
            stroke-width: 128;
          }
          to {
            stroke: black;
            stroke-width: 1024;
          }
        }
        #make-me-a-hanzi-animation-15 {
          animation: keyframes15 0.67236328125s both;
          animation-delay: 9.846191406249998s;
          animation-timing-function: linear;
        }
      
        @keyframes keyframes16 {
          from {
            stroke: blue;
            stroke-dashoffset: 538;
            stroke-width: 128;
          }
          64% {
            animation-timing-function: step-end;
            stroke: blue;
            stroke-dashoffset: 0;
            stroke-width: 128;
          }
          to {
            stroke: black;
            stroke-width: 1024;
          }
        }
        #make-me-a-hanzi-animation-16 {
          animation: keyframes16 0.6878255208333334s both;
          animation-delay: 10.518554687499998s;
          animation-timing-function: linear;
        }
      
        @keyframes keyframes17 {
          from {
            stroke: blue;
            stroke-dashoffset: 489;
            stroke-width: 128;
          }
          61% {
            animation-timing-function: step-end;
            stroke: blue;
            stroke-dashoffset: 0;
            stroke-width: 128;
          }
          to {
            stroke: black;
            stroke-width: 1024;
          }
        }
        #make-me-a-hanzi-animation-17 {
          animation: keyframes17 0.64794921875s both;
          animation-delay: 11.206380208333332s;
          animation-timing-function: linear;
        }
      
        @keyframes keyframes18 {
          from {
            stroke: blue;
            stroke-dashoffset: 699;
            stroke-width: 128;
          }
          69% {
            animation-timing-function: step-end;
            stroke: blue;
            stroke-dashoffset: 0;
            stroke-width: 128;
          }
          to {
            stroke: black;
            stroke-width: 1024;
          }
        }
        #make-me-a-hanzi-animation-18 {
          animation: keyframes18 0.81884765625s both;
          animation-delay: 11.854329427083332s;
          animation-timing-function: linear;
        }
      
    </style>
    
      <path d="M 623 733 Q 674 743 791 735 Q 806 734 811 742 Q 815 752 803 767 Q 749 810 652 781 Q 648 781 643 779 L 592 771 Q 513 761 423 748 L 379 742 Q 294 735 202 724 Q 174 721 194 707 Q 231 682 300 694 Q 343 706 389 712 L 427 718 Q 500 728 584 731 L 623 733 Z" fill="lightgray"></path>
    
      <path d="M 423 748 Q 419 778 418 801 Q 419 820 400 824 Q 360 839 342 832 Q 326 823 341 806 Q 365 785 379 742 L 389 712 Q 398 682 411 670 Q 424 661 428 672 Q 432 691 428 711 Q 427 715 427 718 L 423 748 Z" fill="lightgray"></path>
    
      <path d="M 595 681 Q 607 699 623 733 L 643 779 Q 647 792 659 808 Q 672 821 662 830 Q 652 845 622 859 Q 607 866 593 859 Q 584 855 591 844 Q 598 829 592 771 L 584 731 Q 574 695 575 679 C 575 650 579 656 595 681 Z" fill="lightgray"></path>
    
      <path d="M 507 624 Q 639 646 642 649 Q 649 656 646 662 Q 640 672 618 679 Q 606 683 595 681 L 575 679 Q 571 679 569 677 Q 475 652 376 645 Q 346 642 367 627 Q 394 611 468 618 L 507 624 Z" fill="lightgray"></path>
    
      <path d="M 268 544 Q 259 560 251 568 Q 233 581 231 557 Q 235 536 220 509 Q 204 491 182 471 Q 172 459 175 440 Q 179 412 187 395 Q 200 370 220 395 Q 236 416 247 448 Q 265 499 273 516 C 278 527 278 527 268 544 Z" fill="lightgray"></path>
    
      <path d="M 529 547 Q 700 574 734 565 Q 749 558 747 552 Q 747 549 711 485 Q 704 473 709 468 Q 716 464 731 474 Q 786 504 829 511 Q 863 518 864 527 Q 863 536 799 590 Q 778 611 690 595 Q 591 586 532 575 L 480 569 Q 432 565 378 556 Q 326 549 272 545 Q 269 545 268 544 C 238 541 245 527 273 516 Q 297 503 322 508 Q 416 535 481 541 L 529 547 Z" fill="lightgray"></path>
    
      <path d="M 481 541 Q 482 526 475 455 Q 472 428 493 402 Q 500 392 510 402 Q 525 426 526 481 Q 526 514 529 547 L 532 575 Q 532 606 530 609 Q 527 612 507 624 C 481 640 461 647 468 618 Q 468 617 469 612 Q 472 606 480 569 L 481 541 Z" fill="lightgray"></path>
    
      <path d="M 346 475 Q 400 439 416 443 Q 425 444 426 458 Q 425 467 414 478 Q 393 499 343 493 Q 337 493 339 485 Q 339 479 346 475 Z" fill="lightgray"></path>
    
      <path d="M 330 410 Q 393 368 411 370 Q 421 371 422 386 Q 421 396 410 408 Q 398 421 376 423 Q 342 430 328 429 Q 321 429 323 420 Q 323 414 330 410 Z" fill="lightgray"></path>
    
      <path d="M 583 497 Q 637 458 658 462 Q 668 463 670 479 Q 669 489 656 502 Q 646 512 625 514 Q 594 518 580 518 Q 573 517 575 508 Q 576 502 583 497 Z" fill="lightgray"></path>
    
      <path d="M 586 424 Q 643 379 662 383 Q 672 384 674 399 Q 673 409 663 423 Q 651 435 631 438 Q 598 445 585 445 Q 578 445 579 436 Q 579 429 586 424 Z" fill="lightgray"></path>
    
      <path d="M 332 244 Q 374 290 386 298 Q 393 302 393 311 Q 393 320 384 332 Q 360 363 329 363 Q 322 362 322 351 Q 325 293 212 189 Q 209 189 208 186 Q 177 158 99 106 Q 90 103 99 99 Q 148 92 263 179 Q 266 182 269 184 Q 284 197 304 216 L 332 244 Z" fill="lightgray"></path>
    
      <path d="M 358 27 Q 359 150 365 177 Q 371 201 345 229 Q 338 238 332 244 C 312 266 293 244 304 216 Q 326 168 299 32 Q 283 2 311 -48 Q 314 -57 320 -62 Q 336 -75 346 -52 Q 356 -24 357 7 L 358 27 Z" fill="lightgray"></path>
    
      <path d="M 580 316 Q 583 319 585 324 Q 588 336 579 358 Q 570 379 501 391 Q 488 392 484 391 Q 480 387 482 377 Q 486 370 507 355 Q 558 315 563 313 C 573 307 573 307 580 316 Z" fill="lightgray"></path>
    
      <path d="M 557 274 Q 608 284 662 292 Q 704 299 710 305 Q 717 312 714 318 Q 708 328 685 335 Q 669 339 580 316 L 563 313 Q 550 312 539 308 Q 482 298 416 293 Q 386 290 407 275 Q 437 257 487 263 Q 499 267 513 267 L 557 274 Z" fill="lightgray"></path>
    
      <path d="M 575 193 Q 630 202 679 207 Q 700 210 693 221 Q 683 234 661 240 Q 640 244 577 229 L 522 217 Q 470 208 423 199 Q 408 196 426 182 Q 438 173 464 177 Q 492 181 522 185 L 575 193 Z" fill="lightgray"></path>
    
      <path d="M 569 106 Q 636 116 694 120 Q 715 121 708 133 Q 701 146 678 153 Q 657 157 571 141 L 522 134 Q 470 127 420 119 Q 404 116 421 102 Q 434 92 462 95 Q 492 99 523 102 L 569 106 Z" fill="lightgray"></path>
    
      <path d="M 566 49 Q 567 79 569 106 L 571 141 Q 572 169 575 193 C 578 223 574 222 577 229 Q 577 230 578 230 Q 585 248 577 257 Q 567 267 557 274 C 533 292 502 295 513 267 Q 522 248 522 217 L 522 185 Q 522 166 522 134 L 523 102 Q 523 77 523 44 C 523 14 565 19 566 49 Z" fill="lightgray"></path>
    
      <path d="M 523 44 Q 447 37 360 28 Q 359 28 358 27 C 335 23 335 23 357 7 Q 385 -17 416 -9 Q 581 31 781 13 Q 781 14 783 13 Q 801 13 806 20 Q 810 30 796 44 Q 744 83 684 67 Q 635 60 566 49 L 523 44 Z" fill="lightgray"></path>
    
    
      <clipPath id="make-me-a-hanzi-clip-0">
        <path d="M 623 733 Q 674 743 791 735 Q 806 734 811 742 Q 815 752 803 767 Q 749 810 652 781 Q 648 781 643 779 L 592 771 Q 513 761 423 748 L 379 742 Q 294 735 202 724 Q 174 721 194 707 Q 231 682 300 694 Q 343 706 389 712 L 427 718 Q 500 728 584 731 L 623 733 Z"></path>
      </clipPath>
      <path clip-path="url(#make-me-a-hanzi-clip-0)" d="M 196 717 L 216 711 L 271 711 L 716 766 L 753 764 L 801 748" fill="none" id="make-me-a-hanzi-animation-0" stroke-dasharray="740 1480" stroke-linecap="round"></path>
    
      <clipPath id="make-me-a-hanzi-clip-1">
        <path d="M 423 748 Q 419 778 418 801 Q 419 820 400 824 Q 360 839 342 832 Q 326 823 341 806 Q 365 785 379 742 L 389 712 Q 398 682 411 670 Q 424 661 428 672 Q 432 691 428 711 Q 427 715 427 718 L 423 748 Z"></path>
      </clipPath>
      <path clip-path="url(#make-me-a-hanzi-clip-1)" d="M 348 819 L 369 811 L 389 793 L 419 675" fill="none" id="make-me-a-hanzi-animation-1" stroke-dasharray="299 598" stroke-linecap="round"></path>
    
      <clipPath id="make-me-a-hanzi-clip-2">
        <path d="M 595 681 Q 607 699 623 733 L 643 779 Q 647 792 659 808 Q 672 821 662 830 Q 652 845 622 859 Q 607 866 593 859 Q 584 855 591 844 Q 598 829 592 771 L 584 731 Q 574 695 575 679 C 575 650 579 656 595 681 Z"></path>
      </clipPath>
      <path clip-path="url(#make-me-a-hanzi-clip-2)" d="M 603 850 L 626 818 L 603 733 L 580 684" fill="none" id="make-me-a-hanzi-animation-2" stroke-dasharray="310 620" stroke-linecap="round"></path>
    
      <clipPath id="make-me-a-hanzi-clip-3">
        <path d="M 507 624 Q 639 646 642 649 Q 649 656 646 662 Q 640 672 618 679 Q 606 683 595 681 L 575 679 Q 571 679 569 677 Q 475 652 376 645 Q 346 642 367 627 Q 394 611 468 618 L 507 624 Z"></path>
      </clipPath>
      <path clip-path="url(#make-me-a-hanzi-clip-3)" d="M 369 637 L 438 632 L 592 660 L 637 658" fill="none" id="make-me-a-hanzi-animation-3" stroke-dasharray="399 798" stroke-linecap="round"></path>
    
      <clipPath id="make-me-a-hanzi-clip-4">
        <path d="M 268 544 Q 259 560 251 568 Q 233 581 231 557 Q 235 536 220 509 Q 204 491 182 471 Q 172 459 175 440 Q 179 412 187 395 Q 200 370 220 395 Q 236 416 247 448 Q 265 499 273 516 C 278 527 278 527 268 544 Z"></path>
      </clipPath>
      <path clip-path="url(#make-me-a-hanzi-clip-4)" d="M 242 561 L 250 542 L 249 520 L 209 448 L 202 398" fill="none" id="make-me-a-hanzi-animation-4" stroke-dasharray="303 606" stroke-linecap="round"></path>
    
      <clipPath id="make-me-a-hanzi-clip-5">
        <path d="M 529 547 Q 700 574 734 565 Q 749 558 747 552 Q 747 549 711 485 Q 704 473 709 468 Q 716 464 731 474 Q 786 504 829 511 Q 863 518 864 527 Q 863 536 799 590 Q 778 611 690 595 Q 591 586 532 575 L 480 569 Q 432 565 378 556 Q 326 549 272 545 Q 269 545 268 544 C 238 541 245 527 273 516 Q 297 503 322 508 Q 416 535 481 541 L 529 547 Z"></path>
      </clipPath>
      <path clip-path="url(#make-me-a-hanzi-clip-5)" d="M 272 537 L 305 527 L 644 578 L 726 585 L 760 578 L 777 566 L 788 544 L 714 473" fill="none" id="make-me-a-hanzi-animation-5" stroke-dasharray="770 1540" stroke-linecap="round"></path>
    
      <clipPath id="make-me-a-hanzi-clip-6">
        <path d="M 481 541 Q 482 526 475 455 Q 472 428 493 402 Q 500 392 510 402 Q 525 426 526 481 Q 526 514 529 547 L 532 575 Q 532 606 530 609 Q 527 612 507 624 C 481 640 461 647 468 618 Q 468 617 469 612 Q 472 606 480 569 L 481 541 Z"></path>
      </clipPath>
      <path clip-path="url(#make-me-a-hanzi-clip-6)" d="M 475 616 L 503 593 L 505 583 L 502 407" fill="none" id="make-me-a-hanzi-animation-6" stroke-dasharray="350 700" stroke-linecap="round"></path>
    
      <clipPath id="make-me-a-hanzi-clip-7">
        <path d="M 346 475 Q 400 439 416 443 Q 425 444 426 458 Q 425 467 414 478 Q 393 499 343 493 Q 337 493 339 485 Q 339 479 346 475 Z"></path>
      </clipPath>
      <path clip-path="url(#make-me-a-hanzi-clip-7)" d="M 349 485 L 391 471 L 413 456" fill="none" id="make-me-a-hanzi-animation-7" stroke-dasharray="199 398" stroke-linecap="round"></path>
    
      <clipPath id="make-me-a-hanzi-clip-8">
        <path d="M 330 410 Q 393 368 411 370 Q 421 371 422 386 Q 421 396 410 408 Q 398 421 376 423 Q 342 430 328 429 Q 321 429 323 420 Q 323 414 330 410 Z"></path>
      </clipPath>
      <path clip-path="url(#make-me-a-hanzi-clip-8)" d="M 332 421 L 387 399 L 408 383" fill="none" id="make-me-a-hanzi-animation-8" stroke-dasharray="214 428" stroke-linecap="round"></path>
    
      <clipPath id="make-me-a-hanzi-clip-9">
        <path d="M 583 497 Q 637 458 658 462 Q 668 463 670 479 Q 669 489 656 502 Q 646 512 625 514 Q 594 518 580 518 Q 573 517 575 508 Q 576 502 583 497 Z"></path>
      </clipPath>
      <path clip-path="url(#make-me-a-hanzi-clip-9)" d="M 585 509 L 654 477" fill="none" id="make-me-a-hanzi-animation-9" stroke-dasharray="204 408" stroke-linecap="round"></path>
    
      <clipPath id="make-me-a-hanzi-clip-10">
        <path d="M 586 424 Q 643 379 662 383 Q 672 384 674 399 Q 673 409 663 423 Q 651 435 631 438 Q 598 445 585 445 Q 578 445 579 436 Q 579 429 586 424 Z"></path>
      </clipPath>
      <path clip-path="url(#make-me-a-hanzi-clip-10)" d="M 590 435 L 640 413 L 659 398" fill="none" id="make-me-a-hanzi-animation-10" stroke-dasharray="207 414" stroke-linecap="round"></path>
    
      <clipPath id="make-me-a-hanzi-clip-11">
        <path d="M 332 244 Q 374 290 386 298 Q 393 302 393 311 Q 393 320 384 332 Q 360 363 329 363 Q 322 362 322 351 Q 325 293 212 189 Q 209 189 208 186 Q 177 158 99 106 Q 90 103 99 99 Q 148 92 263 179 Q 266 182 269 184 Q 284 197 304 216 L 332 244 Z"></path>
      </clipPath>
      <path clip-path="url(#make-me-a-hanzi-clip-11)" d="M 335 351 L 352 315 L 292 237 L 242 187 L 179 140 L 104 103" fill="none" id="make-me-a-hanzi-animation-11" stroke-dasharray="499 998" stroke-linecap="round"></path>
    
      <clipPath id="make-me-a-hanzi-clip-12">
        <path d="M 358 27 Q 359 150 365 177 Q 371 201 345 229 Q 338 238 332 244 C 312 266 293 244 304 216 Q 326 168 299 32 Q 283 2 311 -48 Q 314 -57 320 -62 Q 336 -75 346 -52 Q 356 -24 357 7 L 358 27 Z"></path>
      </clipPath>
      <path clip-path="url(#make-me-a-hanzi-clip-12)" d="M 330 236 L 339 190 L 325 11 L 331 -51" fill="none" id="make-me-a-hanzi-animation-12" stroke-dasharray="417 834" stroke-linecap="round"></path>
    
      <clipPath id="make-me-a-hanzi-clip-13">
        <path d="M 580 316 Q 583 319 585 324 Q 588 336 579 358 Q 570 379 501 391 Q 488 392 484 391 Q 480 387 482 377 Q 486 370 507 355 Q 558 315 563 313 C 573 307 573 307 580 316 Z"></path>
      </clipPath>
      <path clip-path="url(#make-me-a-hanzi-clip-13)" d="M 488 383 L 557 348 L 567 333 L 566 322" fill="none" id="make-me-a-hanzi-animation-13" stroke-dasharray="234 468" stroke-linecap="round"></path>
    
      <clipPath id="make-me-a-hanzi-clip-14">
        <path d="M 557 274 Q 608 284 662 292 Q 704 299 710 305 Q 717 312 714 318 Q 708 328 685 335 Q 669 339 580 316 L 563 313 Q 550 312 539 308 Q 482 298 416 293 Q 386 290 407 275 Q 437 257 487 263 Q 499 267 513 267 L 557 274 Z"></path>
      </clipPath>
      <path clip-path="url(#make-me-a-hanzi-clip-14)" d="M 409 285 L 463 279 L 680 316 L 703 314" fill="none" id="make-me-a-hanzi-animation-14" stroke-dasharray="426 852" stroke-linecap="round"></path>
    
      <clipPath id="make-me-a-hanzi-clip-15">
        <path d="M 575 193 Q 630 202 679 207 Q 700 210 693 221 Q 683 234 661 240 Q 640 244 577 229 L 522 217 Q 470 208 423 199 Q 408 196 426 182 Q 438 173 464 177 Q 492 181 522 185 L 575 193 Z"></path>
      </clipPath>
      <path clip-path="url(#make-me-a-hanzi-clip-15)" d="M 424 190 L 498 196 L 648 223 L 684 217" fill="none" id="make-me-a-hanzi-animation-15" stroke-dasharray="391 782" stroke-linecap="round"></path>
    
      <clipPath id="make-me-a-hanzi-clip-16">
        <path d="M 569 106 Q 636 116 694 120 Q 715 121 708 133 Q 701 146 678 153 Q 657 157 571 141 L 522 134 Q 470 127 420 119 Q 404 116 421 102 Q 434 92 462 95 Q 492 99 523 102 L 569 106 Z"></path>
      </clipPath>
      <path clip-path="url(#make-me-a-hanzi-clip-16)" d="M 420 110 L 453 108 L 666 136 L 699 128" fill="none" id="make-me-a-hanzi-animation-16" stroke-dasharray="410 820" stroke-linecap="round"></path>
    
      <clipPath id="make-me-a-hanzi-clip-17">
        <path d="M 566 49 Q 567 79 569 106 L 571 141 Q 572 169 575 193 C 578 223 574 222 577 229 Q 577 230 578 230 Q 585 248 577 257 Q 567 267 557 274 C 533 292 502 295 513 267 Q 522 248 522 217 L 522 185 Q 522 166 522 134 L 523 102 Q 523 77 523 44 C 523 14 565 19 566 49 Z"></path>
      </clipPath>
      <path clip-path="url(#make-me-a-hanzi-clip-17)" d="M 521 264 L 550 242 L 545 69 L 529 52" fill="none" id="make-me-a-hanzi-animation-17" stroke-dasharray="361 722" stroke-linecap="round"></path>
    
      <clipPath id="make-me-a-hanzi-clip-18">
        <path d="M 523 44 Q 447 37 360 28 Q 359 28 358 27 C 335 23 335 23 357 7 Q 385 -17 416 -9 Q 581 31 781 13 Q 781 14 783 13 Q 801 13 806 20 Q 810 30 796 44 Q 744 83 684 67 Q 635 60 566 49 L 523 44 Z"></path>
      </clipPath>
      <path clip-path="url(#make-me-a-hanzi-clip-18)" d="M 362 22 L 374 13 L 396 10 L 546 31 L 709 45 L 754 40 L 797 25" fill="none" id="make-me-a-hanzi-animation-18" stroke-dasharray="571 1142" stroke-linecap="round"></path>
    
  </g>
</svg>