<svg version="1.1" viewBox="0 0 1024 1024" xmlns="http://www.w3.org/2000/svg">
  <g stroke="lightgray" stroke-dasharray="1,1" stroke-width="1" transform="scale(4, 4)">
    <line x1="0" y1="0" x2="256" y2="256"></line>
    <line x1="256" y1="0" x2="0" y2="256"></line>
    <line x1="128" y1="0" x2="128" y2="256"></line>
    <line x1="0" y1="128" x2="256" y2="128"></line>
  </g>
  <g transform="scale(1, -1) translate(0, -900)">
    <style type="text/css">
      
        @keyframes keyframes0 {
          from {
            stroke: blue;
            stroke-dashoffset: 463;
            stroke-width: 128;
          }
          60% {
            animation-timing-function: step-end;
            stroke: blue;
            stroke-dashoffset: 0;
            stroke-width: 128;
          }
          to {
            stroke: black;
            stroke-width: 1024;
          }
        }
        #make-me-a-hanzi-animation-0 {
          animation: keyframes0 0.6267903645833334s both;
          animation-delay: 0s;
          animation-timing-function: linear;
        }
      
        @keyframes keyframes1 {
          from {
            stroke: blue;
            stroke-dashoffset: 683;
            stroke-width: 128;
          }
          69% {
            animation-timing-function: step-end;
            stroke: blue;
            stroke-dashoffset: 0;
            stroke-width: 128;
          }
          to {
            stroke: black;
            stroke-width: 1024;
          }
        }
        #make-me-a-hanzi-animation-1 {
          animation: keyframes1 0.8058268229166666s both;
          animation-delay: 0.6267903645833334s;
          animation-timing-function: linear;
        }
      
        @keyframes keyframes2 {
          from {
            stroke: blue;
            stroke-dashoffset: 524;
            stroke-width: 128;
          }
          63% {
            animation-timing-function: step-end;
            stroke: blue;
            stroke-dashoffset: 0;
            stroke-width: 128;
          }
          to {
            stroke: black;
            stroke-width: 1024;
          }
        }
        #make-me-a-hanzi-animation-2 {
          animation: keyframes2 0.6764322916666666s both;
          animation-delay: 1.4326171875s;
          animation-timing-function: linear;
        }
      
        @keyframes keyframes3 {
          from {
            stroke: blue;
            stroke-dashoffset: 855;
            stroke-width: 128;
          }
          74% {
            animation-timing-function: step-end;
            stroke: blue;
            stroke-dashoffset: 0;
            stroke-width: 128;
          }
          to {
            stroke: black;
            stroke-width: 1024;
          }
        }
        #make-me-a-hanzi-animation-3 {
          animation: keyframes3 0.94580078125s both;
          animation-delay: 2.1090494791666665s;
          animation-timing-function: linear;
        }
      
        @keyframes keyframes4 {
          from {
            stroke: blue;
            stroke-dashoffset: 583;
            stroke-width: 128;
          }
          65% {
            animation-timing-function: step-end;
            stroke: blue;
            stroke-dashoffset: 0;
            stroke-width: 128;
          }
          to {
            stroke: black;
            stroke-width: 1024;
          }
        }
        #make-me-a-hanzi-animation-4 {
          animation: keyframes4 0.7244466145833334s both;
          animation-delay: 3.0548502604166665s;
          animation-timing-function: linear;
        }
      
        @keyframes keyframes5 {
          from {
            stroke: blue;
            stroke-dashoffset: 390;
            stroke-width: 128;
          }
          56% {
            animation-timing-function: step-end;
            stroke: blue;
            stroke-dashoffset: 0;
            stroke-width: 128;
          }
          to {
            stroke: black;
            stroke-width: 1024;
          }
        }
        #make-me-a-hanzi-animation-5 {
          animation: keyframes5 0.5673828125s both;
          animation-delay: 3.779296875s;
          animation-timing-function: linear;
        }
      
        @keyframes keyframes6 {
          from {
            stroke: blue;
            stroke-dashoffset: 422;
            stroke-width: 128;
          }
          58% {
            animation-timing-function: step-end;
            stroke: blue;
            stroke-dashoffset: 0;
            stroke-width: 128;
          }
          to {
            stroke: black;
            stroke-width: 1024;
          }
        }
        #make-me-a-hanzi-animation-6 {
          animation: keyframes6 0.5934244791666666s both;
          animation-delay: 4.3466796875s;
          animation-timing-function: linear;
        }
      
        @keyframes keyframes7 {
          from {
            stroke: blue;
            stroke-dashoffset: 697;
            stroke-width: 128;
          }
          69% {
            animation-timing-function: step-end;
            stroke: blue;
            stroke-dashoffset: 0;
            stroke-width: 128;
          }
          to {
            stroke: black;
            stroke-width: 1024;
          }
        }
        #make-me-a-hanzi-animation-7 {
          animation: keyframes7 0.8172200520833334s both;
          animation-delay: 4.940104166666667s;
          animation-timing-function: linear;
        }
      
        @keyframes keyframes8 {
          from {
            stroke: blue;
            stroke-dashoffset: 931;
            stroke-width: 128;
          }
          75% {
            animation-timing-function: step-end;
            stroke: blue;
            stroke-dashoffset: 0;
            stroke-width: 128;
          }
          to {
            stroke: black;
            stroke-width: 1024;
          }
        }
        #make-me-a-hanzi-animation-8 {
          animation: keyframes8 1.0076497395833333s both;
          animation-delay: 5.75732421875s;
          animation-timing-function: linear;
        }
      
    </style>
    
      <path d="M 125 493 Q 115 497 92 500 Q 80 503 77 498 Q 70 491 80 476 Q 105 427 125 344 Q 129 319 144 303 Q 162 281 167 297 Q 170 307 170 321 L 166 353 Q 150 441 148 464 C 146 486 146 486 125 493 Z" fill="lightgray"></path>
    
      <path d="M 411 404 Q 436 477 466 495 Q 481 513 467 530 Q 451 543 400 565 Q 382 572 362 563 Q 328 548 296 536 L 247 521 Q 187 505 125 493 C 96 487 119 457 148 464 Q 157 465 171 471 Q 208 481 248 490 L 296 502 Q 362 523 376 512 Q 383 505 381 489 Q 372 441 361 403 C 353 374 401 376 411 404 Z" fill="lightgray"></path>
    
      <path d="M 293 345 Q 350 358 429 369 Q 439 370 441 380 Q 441 387 411 404 L 361 403 Q 327 394 294 383 L 249 371 Q 206 361 166 353 C 137 347 140 322 170 321 Q 179 320 192 322 Q 214 329 249 336 L 293 345 Z" fill="lightgray"></path>
    
      <path d="M 290 206 Q 291 276 293 345 L 294 383 Q 295 444 296 502 L 296 536 Q 296 644 316 730 Q 320 743 297 758 Q 257 777 231 782 Q 213 785 204 775 Q 197 766 206 750 Q 240 702 240 669 Q 244 597 247 521 L 248 490 Q 249 432 249 371 L 249 336 Q 248 266 245 191 C 244 161 290 176 290 206 Z" fill="lightgray"></path>
    
      <path d="M 380 239 Q 337 224 290 206 L 245 191 Q 190 173 131 154 Q 112 147 80 147 Q 67 146 66 135 Q 65 122 74 114 Q 96 98 130 81 Q 140 78 152 87 Q 183 114 362 201 Q 378 208 391 217 C 416 233 408 249 380 239 Z" fill="lightgray"></path>
    
      <path d="M 391 217 Q 418 168 431 162 Q 441 159 449 169 Q 458 181 459 209 Q 460 228 438 250 Q 383 295 369 295 Q 363 294 360 281 L 380 239 L 391 217 Z" fill="lightgray"></path>
    
      <path d="M 623 697 Q 654 669 686 636 Q 702 620 721 621 Q 734 621 740 637 Q 746 655 736 690 Q 724 726 618 754 Q 599 758 592 756 Q 586 752 588 736 Q 592 723 623 697 Z" fill="lightgray"></path>
    
      <path d="M 567 411 Q 666 444 893 464 Q 914 464 918 474 Q 922 486 906 498 Q 846 532 793 512 Q 676 479 474 434 Q 455 430 470 415 Q 491 400 514 399 L 567 411 Z" fill="lightgray"></path>
    
      <path d="M 514 399 Q 538 375 539 321 Q 549 183 507 111 Q 488 81 531 51 Q 544 41 560 55 Q 605 94 757 105 Q 811 109 876 104 Q 898 101 908 107 Q 915 114 909 125 Q 903 138 865 159 Q 844 171 770 158 Q 755 165 631 138 Q 588 132 587 131 Q 574 138 579 164 Q 588 318 601 363 Q 608 379 593 391 Q 581 403 567 411 C 542 428 497 423 514 399 Z" fill="lightgray"></path>
    
    
      <clipPath id="make-me-a-hanzi-clip-0">
        <path d="M 125 493 Q 115 497 92 500 Q 80 503 77 498 Q 70 491 80 476 Q 105 427 125 344 Q 129 319 144 303 Q 162 281 167 297 Q 170 307 170 321 L 166 353 Q 150 441 148 464 C 146 486 146 486 125 493 Z"></path>
      </clipPath>
      <path clip-path="url(#make-me-a-hanzi-clip-0)" d="M 86 490 L 107 475 L 121 453 L 156 302" fill="none" id="make-me-a-hanzi-animation-0" stroke-dasharray="335 670" stroke-linecap="round"></path>
    
      <clipPath id="make-me-a-hanzi-clip-1">
        <path d="M 411 404 Q 436 477 466 495 Q 481 513 467 530 Q 451 543 400 565 Q 382 572 362 563 Q 328 548 296 536 L 247 521 Q 187 505 125 493 C 96 487 119 457 148 464 Q 157 465 171 471 Q 208 481 248 490 L 296 502 Q 362 523 376 512 Q 383 505 381 489 Q 372 441 361 403 C 353 374 401 376 411 404 Z"></path>
      </clipPath>
      <path clip-path="url(#make-me-a-hanzi-clip-1)" d="M 133 492 L 159 483 L 349 536 L 387 539 L 421 510 L 392 427 L 367 408" fill="none" id="make-me-a-hanzi-animation-1" stroke-dasharray="555 1110" stroke-linecap="round"></path>
    
      <clipPath id="make-me-a-hanzi-clip-2">
        <path d="M 293 345 Q 350 358 429 369 Q 439 370 441 380 Q 441 387 411 404 L 361 403 Q 327 394 294 383 L 249 371 Q 206 361 166 353 C 137 347 140 322 170 321 Q 179 320 192 322 Q 214 329 249 336 L 293 345 Z"></path>
      </clipPath>
      <path clip-path="url(#make-me-a-hanzi-clip-2)" d="M 175 327 L 203 344 L 360 381 L 411 385 L 433 379" fill="none" id="make-me-a-hanzi-animation-2" stroke-dasharray="396 792" stroke-linecap="round"></path>
    
      <clipPath id="make-me-a-hanzi-clip-3">
        <path d="M 290 206 Q 291 276 293 345 L 294 383 Q 295 444 296 502 L 296 536 Q 296 644 316 730 Q 320 743 297 758 Q 257 777 231 782 Q 213 785 204 775 Q 197 766 206 750 Q 240 702 240 669 Q 244 597 247 521 L 248 490 Q 249 432 249 371 L 249 336 Q 248 266 245 191 C 244 161 290 176 290 206 Z"></path>
      </clipPath>
      <path clip-path="url(#make-me-a-hanzi-clip-3)" d="M 217 765 L 271 723 L 273 703 L 270 261 L 268 222 L 251 198" fill="none" id="make-me-a-hanzi-animation-3" stroke-dasharray="727 1454" stroke-linecap="round"></path>
    
      <clipPath id="make-me-a-hanzi-clip-4">
        <path d="M 380 239 Q 337 224 290 206 L 245 191 Q 190 173 131 154 Q 112 147 80 147 Q 67 146 66 135 Q 65 122 74 114 Q 96 98 130 81 Q 140 78 152 87 Q 183 114 362 201 Q 378 208 391 217 C 416 233 408 249 380 239 Z"></path>
      </clipPath>
      <path clip-path="url(#make-me-a-hanzi-clip-4)" d="M 79 134 L 135 118 L 334 206 L 383 220" fill="none" id="make-me-a-hanzi-animation-4" stroke-dasharray="455 910" stroke-linecap="round"></path>
    
      <clipPath id="make-me-a-hanzi-clip-5">
        <path d="M 391 217 Q 418 168 431 162 Q 441 159 449 169 Q 458 181 459 209 Q 460 228 438 250 Q 383 295 369 295 Q 363 294 360 281 L 380 239 L 391 217 Z"></path>
      </clipPath>
      <path clip-path="url(#make-me-a-hanzi-clip-5)" d="M 370 288 L 427 215 L 435 174" fill="none" id="make-me-a-hanzi-animation-5" stroke-dasharray="262 524" stroke-linecap="round"></path>
    
      <clipPath id="make-me-a-hanzi-clip-6">
        <path d="M 623 697 Q 654 669 686 636 Q 702 620 721 621 Q 734 621 740 637 Q 746 655 736 690 Q 724 726 618 754 Q 599 758 592 756 Q 586 752 588 736 Q 592 723 623 697 Z"></path>
      </clipPath>
      <path clip-path="url(#make-me-a-hanzi-clip-6)" d="M 597 748 L 691 685 L 720 641" fill="none" id="make-me-a-hanzi-animation-6" stroke-dasharray="294 588" stroke-linecap="round"></path>
    
      <clipPath id="make-me-a-hanzi-clip-7">
        <path d="M 567 411 Q 666 444 893 464 Q 914 464 918 474 Q 922 486 906 498 Q 846 532 793 512 Q 676 479 474 434 Q 455 430 470 415 Q 491 400 514 399 L 567 411 Z"></path>
      </clipPath>
      <path clip-path="url(#make-me-a-hanzi-clip-7)" d="M 473 424 L 516 421 L 644 453 L 829 489 L 906 479" fill="none" id="make-me-a-hanzi-animation-7" stroke-dasharray="569 1138" stroke-linecap="round"></path>
    
      <clipPath id="make-me-a-hanzi-clip-8">
        <path d="M 514 399 Q 538 375 539 321 Q 549 183 507 111 Q 488 81 531 51 Q 544 41 560 55 Q 605 94 757 105 Q 811 109 876 104 Q 898 101 908 107 Q 915 114 909 125 Q 903 138 865 159 Q 844 171 770 158 Q 755 165 631 138 Q 588 132 587 131 Q 574 138 579 164 Q 588 318 601 363 Q 608 379 593 391 Q 581 403 567 411 C 542 428 497 423 514 399 Z"></path>
      </clipPath>
      <path clip-path="url(#make-me-a-hanzi-clip-8)" d="M 521 398 L 561 378 L 566 370 L 563 241 L 550 143 L 553 104 L 580 101 L 696 126 L 786 135 L 846 135 L 900 116" fill="none" id="make-me-a-hanzi-animation-8" stroke-dasharray="803 1606" stroke-linecap="round"></path>
    
  </g>
</svg>