<svg version="1.1" viewBox="0 0 1024 1024" xmlns="http://www.w3.org/2000/svg">
  <g stroke="lightgray" stroke-dasharray="1,1" stroke-width="1" transform="scale(4, 4)">
    <line x1="0" y1="0" x2="256" y2="256"></line>
    <line x1="256" y1="0" x2="0" y2="256"></line>
    <line x1="128" y1="0" x2="128" y2="256"></line>
    <line x1="0" y1="128" x2="256" y2="128"></line>
  </g>
  <g transform="scale(1, -1) translate(0, -900)">
    <style type="text/css">
      
        @keyframes keyframes0 {
          from {
            stroke: blue;
            stroke-dashoffset: 456;
            stroke-width: 128;
          }
          60% {
            animation-timing-function: step-end;
            stroke: blue;
            stroke-dashoffset: 0;
            stroke-width: 128;
          }
          to {
            stroke: black;
            stroke-width: 1024;
          }
        }
        #make-me-a-hanzi-animation-0 {
          animation: keyframes0 0.62109375s both;
          animation-delay: 0s;
          animation-timing-function: linear;
        }
      
        @keyframes keyframes1 {
          from {
            stroke: blue;
            stroke-dashoffset: 653;
            stroke-width: 128;
          }
          68% {
            animation-timing-function: step-end;
            stroke: blue;
            stroke-dashoffset: 0;
            stroke-width: 128;
          }
          to {
            stroke: black;
            stroke-width: 1024;
          }
        }
        #make-me-a-hanzi-animation-1 {
          animation: keyframes1 0.7814127604166666s both;
          animation-delay: 0.62109375s;
          animation-timing-function: linear;
        }
      
        @keyframes keyframes2 {
          from {
            stroke: blue;
            stroke-dashoffset: 490;
            stroke-width: 128;
          }
          61% {
            animation-timing-function: step-end;
            stroke: blue;
            stroke-dashoffset: 0;
            stroke-width: 128;
          }
          to {
            stroke: black;
            stroke-width: 1024;
          }
        }
        #make-me-a-hanzi-animation-2 {
          animation: keyframes2 0.6487630208333334s both;
          animation-delay: 1.4025065104166665s;
          animation-timing-function: linear;
        }
      
        @keyframes keyframes3 {
          from {
            stroke: blue;
            stroke-dashoffset: 793;
            stroke-width: 128;
          }
          72% {
            animation-timing-function: step-end;
            stroke: blue;
            stroke-dashoffset: 0;
            stroke-width: 128;
          }
          to {
            stroke: black;
            stroke-width: 1024;
          }
        }
        #make-me-a-hanzi-animation-3 {
          animation: keyframes3 0.8953450520833334s both;
          animation-delay: 2.05126953125s;
          animation-timing-function: linear;
        }
      
        @keyframes keyframes4 {
          from {
            stroke: blue;
            stroke-dashoffset: 578;
            stroke-width: 128;
          }
          65% {
            animation-timing-function: step-end;
            stroke: blue;
            stroke-dashoffset: 0;
            stroke-width: 128;
          }
          to {
            stroke: black;
            stroke-width: 1024;
          }
        }
        #make-me-a-hanzi-animation-4 {
          animation: keyframes4 0.7203776041666666s both;
          animation-delay: 2.9466145833333335s;
          animation-timing-function: linear;
        }
      
        @keyframes keyframes5 {
          from {
            stroke: blue;
            stroke-dashoffset: 382;
            stroke-width: 128;
          }
          55% {
            animation-timing-function: step-end;
            stroke: blue;
            stroke-dashoffset: 0;
            stroke-width: 128;
          }
          to {
            stroke: black;
            stroke-width: 1024;
          }
        }
        #make-me-a-hanzi-animation-5 {
          animation: keyframes5 0.5608723958333334s both;
          animation-delay: 3.6669921875s;
          animation-timing-function: linear;
        }
      
        @keyframes keyframes6 {
          from {
            stroke: blue;
            stroke-dashoffset: 848;
            stroke-width: 128;
          }
          73% {
            animation-timing-function: step-end;
            stroke: blue;
            stroke-dashoffset: 0;
            stroke-width: 128;
          }
          to {
            stroke: black;
            stroke-width: 1024;
          }
        }
        #make-me-a-hanzi-animation-6 {
          animation: keyframes6 0.9401041666666666s both;
          animation-delay: 4.227864583333333s;
          animation-timing-function: linear;
        }
      
        @keyframes keyframes7 {
          from {
            stroke: blue;
            stroke-dashoffset: 1353;
            stroke-width: 128;
          }
          81% {
            animation-timing-function: step-end;
            stroke: blue;
            stroke-dashoffset: 0;
            stroke-width: 128;
          }
          to {
            stroke: black;
            stroke-width: 1024;
          }
        }
        #make-me-a-hanzi-animation-7 {
          animation: keyframes7 1.35107421875s both;
          animation-delay: 5.16796875s;
          animation-timing-function: linear;
        }
      
        @keyframes keyframes8 {
          from {
            stroke: blue;
            stroke-dashoffset: 667;
            stroke-width: 128;
          }
          68% {
            animation-timing-function: step-end;
            stroke: blue;
            stroke-dashoffset: 0;
            stroke-width: 128;
          }
          to {
            stroke: black;
            stroke-width: 1024;
          }
        }
        #make-me-a-hanzi-animation-8 {
          animation: keyframes8 0.7928059895833334s both;
          animation-delay: 6.51904296875s;
          animation-timing-function: linear;
        }
      
    </style>
    
      <path d="M 143 532 Q 131 536 104 540 Q 92 541 89 537 Q 83 530 92 515 Q 120 469 140 389 Q 144 365 159 351 Q 178 329 183 346 Q 184 353 185 364 L 181 396 Q 166 480 161 505 C 156 528 156 528 143 532 Z" fill="lightgray"></path>
    
      <path d="M 401 431 Q 425 507 454 527 Q 467 543 455 559 Q 391 611 338 582 Q 317 575 298 566 L 249 553 Q 197 541 143 532 C 113 527 132 498 161 505 Q 213 518 249 525 L 297 536 Q 361 554 372 544 Q 379 537 377 520 Q 368 474 357 435 C 349 406 392 403 401 431 Z" fill="lightgray"></path>
    
      <path d="M 293 383 Q 344 393 413 399 Q 423 400 424 409 Q 424 416 401 431 L 357 435 Q 354 436 352 435 Q 321 428 294 420 L 250 409 Q 213 402 181 396 C 152 390 155 362 185 364 Q 189 364 196 365 Q 218 371 250 376 L 293 383 Z" fill="lightgray"></path>
    
      <path d="M 289 259 Q 290 323 293 383 L 294 420 Q 295 480 297 536 L 298 566 Q 298 657 317 727 Q 320 740 299 756 Q 262 775 237 778 Q 221 782 212 772 Q 205 765 213 749 Q 243 706 243 677 Q 247 617 249 553 L 249 525 Q 250 470 250 409 L 250 376 Q 249 313 246 246 C 245 216 288 229 289 259 Z" fill="lightgray"></path>
    
      <path d="M 377 289 Q 334 276 289 259 L 246 246 Q 188 230 128 212 Q 109 206 78 207 Q 65 206 63 195 Q 62 182 70 174 Q 92 158 126 139 Q 136 136 148 145 Q 185 175 358 250 Q 374 257 387 266 C 412 282 406 298 377 289 Z" fill="lightgray"></path>
    
      <path d="M 387 266 Q 400 227 414 221 Q 421 218 430 225 Q 437 234 442 258 Q 446 291 380 346 Q 370 353 365 354 Q 361 353 357 344 L 377 289 L 387 266 Z" fill="lightgray"></path>
    
      <path d="M 722 406 Q 746 425 769 601 Q 782 656 817 691 Q 836 709 817 724 Q 798 740 742 763 Q 727 772 668 753 Q 617 743 575 729 Q 533 717 506 712 Q 488 711 486 705 Q 482 701 501 689 Q 537 671 559 680 Q 599 695 691 711 Q 707 714 713 711 Q 729 704 724 657 Q 705 485 691 449 Q 685 430 692 415 Q 696 405 702 402 C 711 389 711 389 722 406 Z" fill="lightgray"></path>
    
      <path d="M 702 402 Q 659 395 595 377 Q 570 373 570 394 Q 573 559 584 586 Q 590 602 582 615 Q 564 633 537 644 Q 518 651 509 641 Q 502 635 511 624 Q 533 576 517 390 Q 514 377 511 362 Q 505 340 522 325 Q 543 310 564 324 Q 621 363 776 380 Q 809 383 822 369 Q 831 360 803 185 Q 796 133 774 100 Q 765 87 739 87 Q 702 96 670 102 Q 654 106 655 99 Q 655 93 664 85 Q 725 33 749 -3 Q 759 -24 777 -13 Q 840 21 852 92 Q 868 183 880 286 Q 887 325 906 358 Q 919 376 907 388 Q 888 410 849 431 Q 827 443 797 429 Q 764 413 732 408 Q 726 408 722 406 L 702 402 Z" fill="lightgray"></path>
    
      <path d="M 567 192 Q 700 216 746 213 Q 765 213 770 222 Q 774 234 764 242 Q 736 261 698 273 Q 695 273 602 247 Q 470 220 434 209 Q 403 202 355 195 Q 345 194 344 184 Q 345 174 362 164 Q 377 155 404 149 Q 414 148 427 155 Q 451 170 567 192 Z" fill="lightgray"></path>
    
    
      <clipPath id="make-me-a-hanzi-clip-0">
        <path d="M 143 532 Q 131 536 104 540 Q 92 541 89 537 Q 83 530 92 515 Q 120 469 140 389 Q 144 365 159 351 Q 178 329 183 346 Q 184 353 185 364 L 181 396 Q 166 480 161 505 C 156 528 156 528 143 532 Z"></path>
      </clipPath>
      <path clip-path="url(#make-me-a-hanzi-clip-0)" d="M 98 530 L 126 509 L 134 495 L 171 351" fill="none" id="make-me-a-hanzi-animation-0" stroke-dasharray="328 656" stroke-linecap="round"></path>
    
      <clipPath id="make-me-a-hanzi-clip-1">
        <path d="M 401 431 Q 425 507 454 527 Q 467 543 455 559 Q 391 611 338 582 Q 317 575 298 566 L 249 553 Q 197 541 143 532 C 113 527 132 498 161 505 Q 213 518 249 525 L 297 536 Q 361 554 372 544 Q 379 537 377 520 Q 368 474 357 435 C 349 406 392 403 401 431 Z"></path>
      </clipPath>
      <path clip-path="url(#make-me-a-hanzi-clip-1)" d="M 151 531 L 169 522 L 306 551 L 352 568 L 384 567 L 414 540 L 386 455 L 365 440" fill="none" id="make-me-a-hanzi-animation-1" stroke-dasharray="525 1050" stroke-linecap="round"></path>
    
      <clipPath id="make-me-a-hanzi-clip-2">
        <path d="M 293 383 Q 344 393 413 399 Q 423 400 424 409 Q 424 416 401 431 L 357 435 Q 354 436 352 435 Q 321 428 294 420 L 250 409 Q 213 402 181 396 C 152 390 155 362 185 364 Q 189 364 196 365 Q 218 371 250 376 L 293 383 Z"></path>
      </clipPath>
      <path clip-path="url(#make-me-a-hanzi-clip-2)" d="M 190 370 L 204 384 L 349 414 L 392 415 L 414 409" fill="none" id="make-me-a-hanzi-animation-2" stroke-dasharray="362 724" stroke-linecap="round"></path>
    
      <clipPath id="make-me-a-hanzi-clip-3">
        <path d="M 289 259 Q 290 323 293 383 L 294 420 Q 295 480 297 536 L 298 566 Q 298 657 317 727 Q 320 740 299 756 Q 262 775 237 778 Q 221 782 212 772 Q 205 765 213 749 Q 243 706 243 677 Q 247 617 249 553 L 249 525 Q 250 470 250 409 L 250 376 Q 249 313 246 246 C 245 216 288 229 289 259 Z"></path>
      </clipPath>
      <path clip-path="url(#make-me-a-hanzi-clip-3)" d="M 225 762 L 264 733 L 275 716 L 271 330 L 268 275 L 252 253" fill="none" id="make-me-a-hanzi-animation-3" stroke-dasharray="665 1330" stroke-linecap="round"></path>
    
      <clipPath id="make-me-a-hanzi-clip-4">
        <path d="M 377 289 Q 334 276 289 259 L 246 246 Q 188 230 128 212 Q 109 206 78 207 Q 65 206 63 195 Q 62 182 70 174 Q 92 158 126 139 Q 136 136 148 145 Q 185 175 358 250 Q 374 257 387 266 C 412 282 406 298 377 289 Z"></path>
      </clipPath>
      <path clip-path="url(#make-me-a-hanzi-clip-4)" d="M 77 193 L 131 177 L 360 269 L 379 269" fill="none" id="make-me-a-hanzi-animation-4" stroke-dasharray="450 900" stroke-linecap="round"></path>
    
      <clipPath id="make-me-a-hanzi-clip-5">
        <path d="M 387 266 Q 400 227 414 221 Q 421 218 430 225 Q 437 234 442 258 Q 446 291 380 346 Q 370 353 365 354 Q 361 353 357 344 L 377 289 L 387 266 Z"></path>
      </clipPath>
      <path clip-path="url(#make-me-a-hanzi-clip-5)" d="M 365 346 L 413 273 L 419 235" fill="none" id="make-me-a-hanzi-animation-5" stroke-dasharray="254 508" stroke-linecap="round"></path>
    
      <clipPath id="make-me-a-hanzi-clip-6">
        <path d="M 722 406 Q 746 425 769 601 Q 782 656 817 691 Q 836 709 817 724 Q 798 740 742 763 Q 727 772 668 753 Q 617 743 575 729 Q 533 717 506 712 Q 488 711 486 705 Q 482 701 501 689 Q 537 671 559 680 Q 599 695 691 711 Q 707 714 713 711 Q 729 704 724 657 Q 705 485 691 449 Q 685 430 692 415 Q 696 405 702 402 C 711 389 711 389 722 406 Z"></path>
      </clipPath>
      <path clip-path="url(#make-me-a-hanzi-clip-6)" d="M 492 704 L 548 699 L 704 738 L 739 731 L 764 708 L 768 702 L 750 642 L 730 503 L 705 411" fill="none" id="make-me-a-hanzi-animation-6" stroke-dasharray="720 1440" stroke-linecap="round"></path>
    
      <clipPath id="make-me-a-hanzi-clip-7">
        <path d="M 702 402 Q 659 395 595 377 Q 570 373 570 394 Q 573 559 584 586 Q 590 602 582 615 Q 564 633 537 644 Q 518 651 509 641 Q 502 635 511 624 Q 533 576 517 390 Q 514 377 511 362 Q 505 340 522 325 Q 543 310 564 324 Q 621 363 776 380 Q 809 383 822 369 Q 831 360 803 185 Q 796 133 774 100 Q 765 87 739 87 Q 702 96 670 102 Q 654 106 655 99 Q 655 93 664 85 Q 725 33 749 -3 Q 759 -24 777 -13 Q 840 21 852 92 Q 868 183 880 286 Q 887 325 906 358 Q 919 376 907 388 Q 888 410 849 431 Q 827 443 797 429 Q 764 413 732 408 Q 726 408 722 406 L 702 402 Z"></path>
      </clipPath>
      <path clip-path="url(#make-me-a-hanzi-clip-7)" d="M 517 633 L 537 619 L 552 594 L 543 400 L 550 356 L 592 358 L 657 378 L 814 405 L 840 398 L 865 370 L 826 133 L 814 92 L 798 63 L 775 44 L 729 61 L 663 98" fill="none" id="make-me-a-hanzi-animation-7" stroke-dasharray="1225 2450" stroke-linecap="round"></path>
    
      <clipPath id="make-me-a-hanzi-clip-8">
        <path d="M 567 192 Q 700 216 746 213 Q 765 213 770 222 Q 774 234 764 242 Q 736 261 698 273 Q 695 273 602 247 Q 470 220 434 209 Q 403 202 355 195 Q 345 194 344 184 Q 345 174 362 164 Q 377 155 404 149 Q 414 148 427 155 Q 451 170 567 192 Z"></path>
      </clipPath>
      <path clip-path="url(#make-me-a-hanzi-clip-8)" d="M 356 184 L 407 176 L 515 206 L 691 241 L 758 228" fill="none" id="make-me-a-hanzi-animation-8" stroke-dasharray="539 1078" stroke-linecap="round"></path>
    
  </g>
</svg>