<svg version="1.1" viewBox="0 0 1024 1024" xmlns="http://www.w3.org/2000/svg">
  <g stroke="lightgray" stroke-dasharray="1,1" stroke-width="1" transform="scale(4, 4)">
    <line x1="0" y1="0" x2="256" y2="256"></line>
    <line x1="256" y1="0" x2="0" y2="256"></line>
    <line x1="128" y1="0" x2="128" y2="256"></line>
    <line x1="0" y1="128" x2="256" y2="128"></line>
  </g>
  <g transform="scale(1, -1) translate(0, -900)">
    <style type="text/css">
      
        @keyframes keyframes0 {
          from {
            stroke: blue;
            stroke-dashoffset: 467;
            stroke-width: 128;
          }
          60% {
            animation-timing-function: step-end;
            stroke: blue;
            stroke-dashoffset: 0;
            stroke-width: 128;
          }
          to {
            stroke: black;
            stroke-width: 1024;
          }
        }
        #make-me-a-hanzi-animation-0 {
          animation: keyframes0 0.6300455729166666s both;
          animation-delay: 0s;
          animation-timing-function: linear;
        }
      
        @keyframes keyframes1 {
          from {
            stroke: blue;
            stroke-dashoffset: 632;
            stroke-width: 128;
          }
          67% {
            animation-timing-function: step-end;
            stroke: blue;
            stroke-dashoffset: 0;
            stroke-width: 128;
          }
          to {
            stroke: black;
            stroke-width: 1024;
          }
        }
        #make-me-a-hanzi-animation-1 {
          animation: keyframes1 0.7643229166666666s both;
          animation-delay: 0.6300455729166666s;
          animation-timing-function: linear;
        }
      
        @keyframes keyframes2 {
          from {
            stroke: blue;
            stroke-dashoffset: 482;
            stroke-width: 128;
          }
          61% {
            animation-timing-function: step-end;
            stroke: blue;
            stroke-dashoffset: 0;
            stroke-width: 128;
          }
          to {
            stroke: black;
            stroke-width: 1024;
          }
        }
        #make-me-a-hanzi-animation-2 {
          animation: keyframes2 0.6422526041666666s both;
          animation-delay: 1.3943684895833333s;
          animation-timing-function: linear;
        }
      
        @keyframes keyframes3 {
          from {
            stroke: blue;
            stroke-dashoffset: 802;
            stroke-width: 128;
          }
          72% {
            animation-timing-function: step-end;
            stroke: blue;
            stroke-dashoffset: 0;
            stroke-width: 128;
          }
          to {
            stroke: black;
            stroke-width: 1024;
          }
        }
        #make-me-a-hanzi-animation-3 {
          animation: keyframes3 0.9026692708333334s both;
          animation-delay: 2.03662109375s;
          animation-timing-function: linear;
        }
      
        @keyframes keyframes4 {
          from {
            stroke: blue;
            stroke-dashoffset: 563;
            stroke-width: 128;
          }
          65% {
            animation-timing-function: step-end;
            stroke: blue;
            stroke-dashoffset: 0;
            stroke-width: 128;
          }
          to {
            stroke: black;
            stroke-width: 1024;
          }
        }
        #make-me-a-hanzi-animation-4 {
          animation: keyframes4 0.7081705729166666s both;
          animation-delay: 2.9392903645833335s;
          animation-timing-function: linear;
        }
      
        @keyframes keyframes5 {
          from {
            stroke: blue;
            stroke-dashoffset: 394;
            stroke-width: 128;
          }
          56% {
            animation-timing-function: step-end;
            stroke: blue;
            stroke-dashoffset: 0;
            stroke-width: 128;
          }
          to {
            stroke: black;
            stroke-width: 1024;
          }
        }
        #make-me-a-hanzi-animation-5 {
          animation: keyframes5 0.5706380208333334s both;
          animation-delay: 3.6474609375s;
          animation-timing-function: linear;
        }
      
        @keyframes keyframes6 {
          from {
            stroke: blue;
            stroke-dashoffset: 543;
            stroke-width: 128;
          }
          64% {
            animation-timing-function: step-end;
            stroke: blue;
            stroke-dashoffset: 0;
            stroke-width: 128;
          }
          to {
            stroke: black;
            stroke-width: 1024;
          }
        }
        #make-me-a-hanzi-animation-6 {
          animation: keyframes6 0.69189453125s both;
          animation-delay: 4.218098958333333s;
          animation-timing-function: linear;
        }
      
        @keyframes keyframes7 {
          from {
            stroke: blue;
            stroke-dashoffset: 435;
            stroke-width: 128;
          }
          59% {
            animation-timing-function: step-end;
            stroke: blue;
            stroke-dashoffset: 0;
            stroke-width: 128;
          }
          to {
            stroke: black;
            stroke-width: 1024;
          }
        }
        #make-me-a-hanzi-animation-7 {
          animation: keyframes7 0.60400390625s both;
          animation-delay: 4.909993489583333s;
          animation-timing-function: linear;
        }
      
        @keyframes keyframes8 {
          from {
            stroke: blue;
            stroke-dashoffset: 589;
            stroke-width: 128;
          }
          66% {
            animation-timing-function: step-end;
            stroke: blue;
            stroke-dashoffset: 0;
            stroke-width: 128;
          }
          to {
            stroke: black;
            stroke-width: 1024;
          }
        }
        #make-me-a-hanzi-animation-8 {
          animation: keyframes8 0.7293294270833334s both;
          animation-delay: 5.513997395833333s;
          animation-timing-function: linear;
        }
      
        @keyframes keyframes9 {
          from {
            stroke: blue;
            stroke-dashoffset: 477;
            stroke-width: 128;
          }
          61% {
            animation-timing-function: step-end;
            stroke: blue;
            stroke-dashoffset: 0;
            stroke-width: 128;
          }
          to {
            stroke: black;
            stroke-width: 1024;
          }
        }
        #make-me-a-hanzi-animation-9 {
          animation: keyframes9 0.63818359375s both;
          animation-delay: 6.243326822916666s;
          animation-timing-function: linear;
        }
      
        @keyframes keyframes10 {
          from {
            stroke: blue;
            stroke-dashoffset: 588;
            stroke-width: 128;
          }
          66% {
            animation-timing-function: step-end;
            stroke: blue;
            stroke-dashoffset: 0;
            stroke-width: 128;
          }
          to {
            stroke: black;
            stroke-width: 1024;
          }
        }
        #make-me-a-hanzi-animation-10 {
          animation: keyframes10 0.728515625s both;
          animation-delay: 6.881510416666666s;
          animation-timing-function: linear;
        }
      
        @keyframes keyframes11 {
          from {
            stroke: blue;
            stroke-dashoffset: 1018;
            stroke-width: 128;
          }
          77% {
            animation-timing-function: step-end;
            stroke: blue;
            stroke-dashoffset: 0;
            stroke-width: 128;
          }
          to {
            stroke: black;
            stroke-width: 1024;
          }
        }
        #make-me-a-hanzi-animation-11 {
          animation: keyframes11 1.0784505208333333s both;
          animation-delay: 7.610026041666666s;
          animation-timing-function: linear;
        }
      
        @keyframes keyframes12 {
          from {
            stroke: blue;
            stroke-dashoffset: 488;
            stroke-width: 128;
          }
          61% {
            animation-timing-function: step-end;
            stroke: blue;
            stroke-dashoffset: 0;
            stroke-width: 128;
          }
          to {
            stroke: black;
            stroke-width: 1024;
          }
        }
        #make-me-a-hanzi-animation-12 {
          animation: keyframes12 0.6471354166666666s both;
          animation-delay: 8.6884765625s;
          animation-timing-function: linear;
        }
      
        @keyframes keyframes13 {
          from {
            stroke: blue;
            stroke-dashoffset: 477;
            stroke-width: 128;
          }
          61% {
            animation-timing-function: step-end;
            stroke: blue;
            stroke-dashoffset: 0;
            stroke-width: 128;
          }
          to {
            stroke: black;
            stroke-width: 1024;
          }
        }
        #make-me-a-hanzi-animation-13 {
          animation: keyframes13 0.63818359375s both;
          animation-delay: 9.335611979166666s;
          animation-timing-function: linear;
        }
      
        @keyframes keyframes14 {
          from {
            stroke: blue;
            stroke-dashoffset: 528;
            stroke-width: 128;
          }
          63% {
            animation-timing-function: step-end;
            stroke: blue;
            stroke-dashoffset: 0;
            stroke-width: 128;
          }
          to {
            stroke: black;
            stroke-width: 1024;
          }
        }
        #make-me-a-hanzi-animation-14 {
          animation: keyframes14 0.6796875s both;
          animation-delay: 9.973795572916666s;
          animation-timing-function: linear;
        }
      
    </style>
    
      <path d="M 133 524 Q 123 528 97 532 Q 87 535 83 530 Q 77 524 85 509 Q 112 457 130 373 Q 133 348 148 331 Q 166 310 170 325 Q 174 337 173 356 L 168 388 Q 152 470 150 495 C 148 519 148 519 133 524 Z" fill="lightgray"></path>
    
      <path d="M 387 419 Q 408 491 438 516 Q 453 532 439 549 Q 372 597 322 572 Q 304 566 286 558 L 237 544 Q 186 534 133 524 C 104 518 120 490 150 495 Q 162 496 176 501 Q 206 508 238 514 L 285 524 Q 345 539 353 531 Q 362 522 345 429 C 340 399 378 390 387 419 Z" fill="lightgray"></path>
    
      <path d="M 281 376 Q 329 385 393 391 Q 403 392 404 401 Q 404 408 387 419 C 366 433 366 433 345 429 Q 315 423 282 412 L 238 402 Q 201 395 168 388 C 139 382 143 354 173 356 Q 177 356 184 357 Q 206 364 238 369 L 281 376 Z" fill="lightgray"></path>
    
      <path d="M 277 246 Q 278 313 281 376 L 282 412 Q 283 469 285 524 L 286 558 Q 286 612 305 725 Q 309 737 287 752 Q 250 771 225 774 Q 209 778 200 768 Q 193 761 201 745 Q 232 702 232 671 Q 235 610 237 544 L 238 514 Q 239 460 238 402 L 238 369 Q 237 305 234 234 C 233 204 276 216 277 246 Z" fill="lightgray"></path>
    
      <path d="M 359 268 Q 319 258 277 246 L 234 234 Q 179 222 120 206 Q 101 200 71 202 Q 58 201 56 191 Q 55 178 63 170 Q 85 154 117 133 Q 127 130 140 138 Q 174 163 343 233 Q 356 239 368 245 C 395 258 388 275 359 268 Z" fill="lightgray"></path>
    
      <path d="M 368 245 Q 383 200 396 194 Q 403 191 410 197 Q 417 204 421 226 Q 427 247 407 277 Q 356 337 345 338 Q 341 337 337 329 Q 336 322 359 268 L 368 245 Z" fill="lightgray"></path>
    
      <path d="M 519 717 Q 482 713 508 694 Q 550 667 607 680 Q 682 690 760 704 Q 796 711 802 715 Q 811 722 807 732 Q 800 744 770 753 Q 740 760 709 749 Q 669 737 624 728 Q 576 721 519 717 Z" fill="lightgray"></path>
    
      <path d="M 529 578 Q 519 582 502 584 Q 492 587 488 582 Q 484 576 491 562 Q 513 519 529 449 Q 532 428 545 414 Q 561 395 566 409 Q 569 419 569 434 L 565 466 Q 553 530 552 551 C 551 571 551 571 529 578 Z" fill="lightgray"></path>
    
      <path d="M 765 493 Q 784 541 810 555 Q 826 573 812 589 Q 796 602 747 625 Q 731 632 710 625 Q 635 595 529 578 C 499 573 522 547 552 551 Q 576 554 699 579 Q 714 582 721 576 Q 731 566 713 491 C 706 462 753 465 765 493 Z" fill="lightgray"></path>
    
      <path d="M 569 434 Q 573 434 580 435 Q 644 448 784 456 Q 794 457 795 465 Q 796 472 768 492 Q 767 493 765 493 L 713 491 Q 631 475 565 466 C 535 462 539 432 569 434 Z" fill="lightgray"></path>
    
      <path d="M 465 346 Q 446 358 426 364 Q 420 365 415 361 Q 408 357 417 346 Q 457 271 462 110 Q 465 44 499 26 Q 515 22 517 50 Q 517 57 516 65 L 512 98 Q 494 191 490 308 C 489 332 489 332 465 346 Z" fill="lightgray"></path>
    
      <path d="M 765 88 Q 775 63 800 9 Q 809 -9 819 -8 Q 835 -5 845 21 Q 875 78 890 247 Q 896 296 919 326 Q 937 345 925 359 Q 903 381 856 403 Q 837 413 804 402 Q 675 359 465 346 C 435 344 460 305 490 308 Q 497 308 507 309 Q 552 318 608 326 L 652 333 Q 710 343 781 353 Q 811 357 823 344 Q 847 301 812 123 Q 811 107 803 104 Q 800 103 793 105 C 767 89 765 88 765 88 Z" fill="lightgray"></path>
    
      <path d="M 665 208 Q 770 229 775 233 Q 782 240 778 247 Q 772 256 749 262 Q 724 266 667 246 L 618 235 Q 584 231 547 226 Q 517 222 538 207 Q 574 189 618 199 L 665 208 Z" fill="lightgray"></path>
    
      <path d="M 661 120 Q 662 168 665 208 L 667 246 Q 673 318 659 327 Q 656 330 652 333 C 629 352 597 354 608 326 Q 614 320 618 235 L 618 199 Q 618 165 620 113 C 621 83 660 90 661 120 Z" fill="lightgray"></path>
    
      <path d="M 516 65 Q 523 65 531 66 Q 606 81 765 88 C 795 89 806 90 793 105 Q 787 114 766 129 Q 750 139 661 120 L 620 113 Q 560 106 512 98 C 482 93 486 64 516 65 Z" fill="lightgray"></path>
    
    
      <clipPath id="make-me-a-hanzi-clip-0">
        <path d="M 133 524 Q 123 528 97 532 Q 87 535 83 530 Q 77 524 85 509 Q 112 457 130 373 Q 133 348 148 331 Q 166 310 170 325 Q 174 337 173 356 L 168 388 Q 152 470 150 495 C 148 519 148 519 133 524 Z"></path>
      </clipPath>
      <path clip-path="url(#make-me-a-hanzi-clip-0)" d="M 91 523 L 114 505 L 124 487 L 160 330" fill="none" id="make-me-a-hanzi-animation-0" stroke-dasharray="339 678" stroke-linecap="round"></path>
    
      <clipPath id="make-me-a-hanzi-clip-1">
        <path d="M 387 419 Q 408 491 438 516 Q 453 532 439 549 Q 372 597 322 572 Q 304 566 286 558 L 237 544 Q 186 534 133 524 C 104 518 120 490 150 495 Q 162 496 176 501 Q 206 508 238 514 L 285 524 Q 345 539 353 531 Q 362 522 345 429 C 340 399 378 390 387 419 Z"></path>
      </clipPath>
      <path clip-path="url(#make-me-a-hanzi-clip-1)" d="M 141 522 L 165 513 L 336 555 L 366 554 L 386 541 L 395 527 L 371 445 L 383 431" fill="none" id="make-me-a-hanzi-animation-1" stroke-dasharray="504 1008" stroke-linecap="round"></path>
    
      <clipPath id="make-me-a-hanzi-clip-2">
        <path d="M 281 376 Q 329 385 393 391 Q 403 392 404 401 Q 404 408 387 419 C 366 433 366 433 345 429 Q 315 423 282 412 L 238 402 Q 201 395 168 388 C 139 382 143 354 173 356 Q 177 356 184 357 Q 206 364 238 369 L 281 376 Z"></path>
      </clipPath>
      <path clip-path="url(#make-me-a-hanzi-clip-2)" d="M 178 362 L 191 377 L 319 403 L 347 408 L 394 401" fill="none" id="make-me-a-hanzi-animation-2" stroke-dasharray="354 708" stroke-linecap="round"></path>
    
      <clipPath id="make-me-a-hanzi-clip-3">
        <path d="M 277 246 Q 278 313 281 376 L 282 412 Q 283 469 285 524 L 286 558 Q 286 612 305 725 Q 309 737 287 752 Q 250 771 225 774 Q 209 778 200 768 Q 193 761 201 745 Q 232 702 232 671 Q 235 610 237 544 L 238 514 Q 239 460 238 402 L 238 369 Q 237 305 234 234 C 233 204 276 216 277 246 Z"></path>
      </clipPath>
      <path clip-path="url(#make-me-a-hanzi-clip-3)" d="M 213 758 L 263 719 L 265 701 L 257 269 L 240 242" fill="none" id="make-me-a-hanzi-animation-3" stroke-dasharray="674 1348" stroke-linecap="round"></path>
    
      <clipPath id="make-me-a-hanzi-clip-4">
        <path d="M 359 268 Q 319 258 277 246 L 234 234 Q 179 222 120 206 Q 101 200 71 202 Q 58 201 56 191 Q 55 178 63 170 Q 85 154 117 133 Q 127 130 140 138 Q 174 163 343 233 Q 356 239 368 245 C 395 258 388 275 359 268 Z"></path>
      </clipPath>
      <path clip-path="url(#make-me-a-hanzi-clip-4)" d="M 70 188 L 123 171 L 351 252 L 359 248" fill="none" id="make-me-a-hanzi-animation-4" stroke-dasharray="435 870" stroke-linecap="round"></path>
    
      <clipPath id="make-me-a-hanzi-clip-5">
        <path d="M 368 245 Q 383 200 396 194 Q 403 191 410 197 Q 417 204 421 226 Q 427 247 407 277 Q 356 337 345 338 Q 341 337 337 329 Q 336 322 359 268 L 368 245 Z"></path>
      </clipPath>
      <path clip-path="url(#make-me-a-hanzi-clip-5)" d="M 345 330 L 390 258 L 401 206" fill="none" id="make-me-a-hanzi-animation-5" stroke-dasharray="266 532" stroke-linecap="round"></path>
    
      <clipPath id="make-me-a-hanzi-clip-6">
        <path d="M 519 717 Q 482 713 508 694 Q 550 667 607 680 Q 682 690 760 704 Q 796 711 802 715 Q 811 722 807 732 Q 800 744 770 753 Q 740 760 709 749 Q 669 737 624 728 Q 576 721 519 717 Z"></path>
      </clipPath>
      <path clip-path="url(#make-me-a-hanzi-clip-6)" d="M 511 707 L 569 698 L 736 728 L 795 726" fill="none" id="make-me-a-hanzi-animation-6" stroke-dasharray="415 830" stroke-linecap="round"></path>
    
      <clipPath id="make-me-a-hanzi-clip-7">
        <path d="M 529 578 Q 519 582 502 584 Q 492 587 488 582 Q 484 576 491 562 Q 513 519 529 449 Q 532 428 545 414 Q 561 395 566 409 Q 569 419 569 434 L 565 466 Q 553 530 552 551 C 551 571 551 571 529 578 Z"></path>
      </clipPath>
      <path clip-path="url(#make-me-a-hanzi-clip-7)" d="M 496 577 L 517 559 L 530 535 L 556 414" fill="none" id="make-me-a-hanzi-animation-7" stroke-dasharray="307 614" stroke-linecap="round"></path>
    
      <clipPath id="make-me-a-hanzi-clip-8">
        <path d="M 765 493 Q 784 541 810 555 Q 826 573 812 589 Q 796 602 747 625 Q 731 632 710 625 Q 635 595 529 578 C 499 573 522 547 552 551 Q 576 554 699 579 Q 714 582 721 576 Q 731 566 713 491 C 706 462 753 465 765 493 Z"></path>
      </clipPath>
      <path clip-path="url(#make-me-a-hanzi-clip-8)" d="M 538 578 L 547 570 L 568 569 L 697 600 L 730 602 L 744 595 L 765 570 L 745 518 L 719 502" fill="none" id="make-me-a-hanzi-animation-8" stroke-dasharray="461 922" stroke-linecap="round"></path>
    
      <clipPath id="make-me-a-hanzi-clip-9">
        <path d="M 569 434 Q 573 434 580 435 Q 644 448 784 456 Q 794 457 795 465 Q 796 472 768 492 Q 767 493 765 493 L 713 491 Q 631 475 565 466 C 535 462 539 432 569 434 Z"></path>
      </clipPath>
      <path clip-path="url(#make-me-a-hanzi-clip-9)" d="M 572 462 L 582 452 L 720 472 L 759 474 L 786 465" fill="none" id="make-me-a-hanzi-animation-9" stroke-dasharray="349 698" stroke-linecap="round"></path>
    
      <clipPath id="make-me-a-hanzi-clip-10">
        <path d="M 465 346 Q 446 358 426 364 Q 420 365 415 361 Q 408 357 417 346 Q 457 271 462 110 Q 465 44 499 26 Q 515 22 517 50 Q 517 57 516 65 L 512 98 Q 494 191 490 308 C 489 332 489 332 465 346 Z"></path>
      </clipPath>
      <path clip-path="url(#make-me-a-hanzi-clip-10)" d="M 423 354 L 448 331 L 465 299 L 488 85 L 501 40" fill="none" id="make-me-a-hanzi-animation-10" stroke-dasharray="460 920" stroke-linecap="round"></path>
    
      <clipPath id="make-me-a-hanzi-clip-11">
        <path d="M 765 88 Q 775 63 800 9 Q 809 -9 819 -8 Q 835 -5 845 21 Q 875 78 890 247 Q 896 296 919 326 Q 937 345 925 359 Q 903 381 856 403 Q 837 413 804 402 Q 675 359 465 346 C 435 344 460 305 490 308 Q 497 308 507 309 Q 552 318 608 326 L 652 333 Q 710 343 781 353 Q 811 357 823 344 Q 847 301 812 123 Q 811 107 803 104 Q 800 103 793 105 C 767 89 765 88 765 88 Z"></path>
      </clipPath>
      <path clip-path="url(#make-me-a-hanzi-clip-11)" d="M 475 343 L 501 328 L 642 347 L 779 374 L 819 378 L 848 369 L 873 341 L 841 110 L 819 65 L 819 6" fill="none" id="make-me-a-hanzi-animation-11" stroke-dasharray="890 1780" stroke-linecap="round"></path>
    
      <clipPath id="make-me-a-hanzi-clip-12">
        <path d="M 665 208 Q 770 229 775 233 Q 782 240 778 247 Q 772 256 749 262 Q 724 266 667 246 L 618 235 Q 584 231 547 226 Q 517 222 538 207 Q 574 189 618 199 L 665 208 Z"></path>
      </clipPath>
      <path clip-path="url(#make-me-a-hanzi-clip-12)" d="M 540 218 L 595 213 L 725 242 L 769 242" fill="none" id="make-me-a-hanzi-animation-12" stroke-dasharray="360 720" stroke-linecap="round"></path>
    
      <clipPath id="make-me-a-hanzi-clip-13">
        <path d="M 661 120 Q 662 168 665 208 L 667 246 Q 673 318 659 327 Q 656 330 652 333 C 629 352 597 354 608 326 Q 614 320 618 235 L 618 199 Q 618 165 620 113 C 621 83 660 90 661 120 Z"></path>
      </clipPath>
      <path clip-path="url(#make-me-a-hanzi-clip-13)" d="M 615 327 L 641 304 L 641 144 L 626 122" fill="none" id="make-me-a-hanzi-animation-13" stroke-dasharray="349 698" stroke-linecap="round"></path>
    
      <clipPath id="make-me-a-hanzi-clip-14">
        <path d="M 516 65 Q 523 65 531 66 Q 606 81 765 88 C 795 89 806 90 793 105 Q 787 114 766 129 Q 750 139 661 120 L 620 113 Q 560 106 512 98 C 482 93 486 64 516 65 Z"></path>
      </clipPath>
      <path clip-path="url(#make-me-a-hanzi-clip-14)" d="M 520 93 L 530 83 L 699 107 L 745 110 L 786 105" fill="none" id="make-me-a-hanzi-animation-14" stroke-dasharray="400 800" stroke-linecap="round"></path>
    
  </g>
</svg>