<svg version="1.1" viewBox="0 0 1024 1024" xmlns="http://www.w3.org/2000/svg">
  <g stroke="lightgray" stroke-dasharray="1,1" stroke-width="1" transform="scale(4, 4)">
    <line x1="0" y1="0" x2="256" y2="256"></line>
    <line x1="256" y1="0" x2="0" y2="256"></line>
    <line x1="128" y1="0" x2="128" y2="256"></line>
    <line x1="0" y1="128" x2="256" y2="128"></line>
  </g>
  <g transform="scale(1, -1) translate(0, -900)">
    <style type="text/css">
      
        @keyframes keyframes0 {
          from {
            stroke: blue;
            stroke-dashoffset: 458;
            stroke-width: 128;
          }
          60% {
            animation-timing-function: step-end;
            stroke: blue;
            stroke-dashoffset: 0;
            stroke-width: 128;
          }
          to {
            stroke: black;
            stroke-width: 1024;
          }
        }
        #make-me-a-hanzi-animation-0 {
          animation: keyframes0 0.6227213541666666s both;
          animation-delay: 0s;
          animation-timing-function: linear;
        }
      
        @keyframes keyframes1 {
          from {
            stroke: blue;
            stroke-dashoffset: 653;
            stroke-width: 128;
          }
          68% {
            animation-timing-function: step-end;
            stroke: blue;
            stroke-dashoffset: 0;
            stroke-width: 128;
          }
          to {
            stroke: black;
            stroke-width: 1024;
          }
        }
        #make-me-a-hanzi-animation-1 {
          animation: keyframes1 0.7814127604166666s both;
          animation-delay: 0.6227213541666666s;
          animation-timing-function: linear;
        }
      
        @keyframes keyframes2 {
          from {
            stroke: blue;
            stroke-dashoffset: 479;
            stroke-width: 128;
          }
          61% {
            animation-timing-function: step-end;
            stroke: blue;
            stroke-dashoffset: 0;
            stroke-width: 128;
          }
          to {
            stroke: black;
            stroke-width: 1024;
          }
        }
        #make-me-a-hanzi-animation-2 {
          animation: keyframes2 0.6398111979166666s both;
          animation-delay: 1.4041341145833333s;
          animation-timing-function: linear;
        }
      
        @keyframes keyframes3 {
          from {
            stroke: blue;
            stroke-dashoffset: 750;
            stroke-width: 128;
          }
          71% {
            animation-timing-function: step-end;
            stroke: blue;
            stroke-dashoffset: 0;
            stroke-width: 128;
          }
          to {
            stroke: black;
            stroke-width: 1024;
          }
        }
        #make-me-a-hanzi-animation-3 {
          animation: keyframes3 0.8603515625s both;
          animation-delay: 2.0439453125s;
          animation-timing-function: linear;
        }
      
        @keyframes keyframes4 {
          from {
            stroke: blue;
            stroke-dashoffset: 536;
            stroke-width: 128;
          }
          64% {
            animation-timing-function: step-end;
            stroke: blue;
            stroke-dashoffset: 0;
            stroke-width: 128;
          }
          to {
            stroke: black;
            stroke-width: 1024;
          }
        }
        #make-me-a-hanzi-animation-4 {
          animation: keyframes4 0.6861979166666666s both;
          animation-delay: 2.904296875s;
          animation-timing-function: linear;
        }
      
        @keyframes keyframes5 {
          from {
            stroke: blue;
            stroke-dashoffset: 377;
            stroke-width: 128;
          }
          55% {
            animation-timing-function: step-end;
            stroke: blue;
            stroke-dashoffset: 0;
            stroke-width: 128;
          }
          to {
            stroke: black;
            stroke-width: 1024;
          }
        }
        #make-me-a-hanzi-animation-5 {
          animation: keyframes5 0.5568033854166666s both;
          animation-delay: 3.5904947916666665s;
          animation-timing-function: linear;
        }
      
        @keyframes keyframes6 {
          from {
            stroke: blue;
            stroke-dashoffset: 571;
            stroke-width: 128;
          }
          65% {
            animation-timing-function: step-end;
            stroke: blue;
            stroke-dashoffset: 0;
            stroke-width: 128;
          }
          to {
            stroke: black;
            stroke-width: 1024;
          }
        }
        #make-me-a-hanzi-animation-6 {
          animation: keyframes6 0.7146809895833334s both;
          animation-delay: 4.147298177083333s;
          animation-timing-function: linear;
        }
      
        @keyframes keyframes7 {
          from {
            stroke: blue;
            stroke-dashoffset: 338;
            stroke-width: 128;
          }
          52% {
            animation-timing-function: step-end;
            stroke: blue;
            stroke-dashoffset: 0;
            stroke-width: 128;
          }
          to {
            stroke: black;
            stroke-width: 1024;
          }
        }
        #make-me-a-hanzi-animation-7 {
          animation: keyframes7 0.5250651041666666s both;
          animation-delay: 4.861979166666666s;
          animation-timing-function: linear;
        }
      
        @keyframes keyframes8 {
          from {
            stroke: blue;
            stroke-dashoffset: 394;
            stroke-width: 128;
          }
          56% {
            animation-timing-function: step-end;
            stroke: blue;
            stroke-dashoffset: 0;
            stroke-width: 128;
          }
          to {
            stroke: black;
            stroke-width: 1024;
          }
        }
        #make-me-a-hanzi-animation-8 {
          animation: keyframes8 0.5706380208333334s both;
          animation-delay: 5.387044270833333s;
          animation-timing-function: linear;
        }
      
        @keyframes keyframes9 {
          from {
            stroke: blue;
            stroke-dashoffset: 683;
            stroke-width: 128;
          }
          69% {
            animation-timing-function: step-end;
            stroke: blue;
            stroke-dashoffset: 0;
            stroke-width: 128;
          }
          to {
            stroke: black;
            stroke-width: 1024;
          }
        }
        #make-me-a-hanzi-animation-9 {
          animation: keyframes9 0.8058268229166666s both;
          animation-delay: 5.957682291666666s;
          animation-timing-function: linear;
        }
      
        @keyframes keyframes10 {
          from {
            stroke: blue;
            stroke-dashoffset: 669;
            stroke-width: 128;
          }
          69% {
            animation-timing-function: step-end;
            stroke: blue;
            stroke-dashoffset: 0;
            stroke-width: 128;
          }
          to {
            stroke: black;
            stroke-width: 1024;
          }
        }
        #make-me-a-hanzi-animation-10 {
          animation: keyframes10 0.79443359375s both;
          animation-delay: 6.763509114583333s;
          animation-timing-function: linear;
        }
      
        @keyframes keyframes11 {
          from {
            stroke: blue;
            stroke-dashoffset: 501;
            stroke-width: 128;
          }
          62% {
            animation-timing-function: step-end;
            stroke: blue;
            stroke-dashoffset: 0;
            stroke-width: 128;
          }
          to {
            stroke: black;
            stroke-width: 1024;
          }
        }
        #make-me-a-hanzi-animation-11 {
          animation: keyframes11 0.65771484375s both;
          animation-delay: 7.557942708333333s;
          animation-timing-function: linear;
        }
      
        @keyframes keyframes12 {
          from {
            stroke: blue;
            stroke-dashoffset: 615;
            stroke-width: 128;
          }
          67% {
            animation-timing-function: step-end;
            stroke: blue;
            stroke-dashoffset: 0;
            stroke-width: 128;
          }
          to {
            stroke: black;
            stroke-width: 1024;
          }
        }
        #make-me-a-hanzi-animation-12 {
          animation: keyframes12 0.75048828125s both;
          animation-delay: 8.215657552083332s;
          animation-timing-function: linear;
        }
      
        @keyframes keyframes13 {
          from {
            stroke: blue;
            stroke-dashoffset: 420;
            stroke-width: 128;
          }
          58% {
            animation-timing-function: step-end;
            stroke: blue;
            stroke-dashoffset: 0;
            stroke-width: 128;
          }
          to {
            stroke: black;
            stroke-width: 1024;
          }
        }
        #make-me-a-hanzi-animation-13 {
          animation: keyframes13 0.591796875s both;
          animation-delay: 8.966145833333332s;
          animation-timing-function: linear;
        }
      
        @keyframes keyframes14 {
          from {
            stroke: blue;
            stroke-dashoffset: 788;
            stroke-width: 128;
          }
          72% {
            animation-timing-function: step-end;
            stroke: blue;
            stroke-dashoffset: 0;
            stroke-width: 128;
          }
          to {
            stroke: black;
            stroke-width: 1024;
          }
        }
        #make-me-a-hanzi-animation-14 {
          animation: keyframes14 0.8912760416666666s both;
          animation-delay: 9.557942708333332s;
          animation-timing-function: linear;
        }
      
        @keyframes keyframes15 {
          from {
            stroke: blue;
            stroke-dashoffset: 375;
            stroke-width: 128;
          }
          55% {
            animation-timing-function: step-end;
            stroke: blue;
            stroke-dashoffset: 0;
            stroke-width: 128;
          }
          to {
            stroke: black;
            stroke-width: 1024;
          }
        }
        #make-me-a-hanzi-animation-15 {
          animation: keyframes15 0.55517578125s both;
          animation-delay: 10.449218749999998s;
          animation-timing-function: linear;
        }
      
        @keyframes keyframes16 {
          from {
            stroke: blue;
            stroke-dashoffset: 417;
            stroke-width: 128;
          }
          58% {
            animation-timing-function: step-end;
            stroke: blue;
            stroke-dashoffset: 0;
            stroke-width: 128;
          }
          to {
            stroke: black;
            stroke-width: 1024;
          }
        }
        #make-me-a-hanzi-animation-16 {
          animation: keyframes16 0.58935546875s both;
          animation-delay: 11.004394531249998s;
          animation-timing-function: linear;
        }
      
    </style>
    
      <path d="M 96 547 Q 83 553 76 545 Q 72 541 79 526 Q 104 477 123 394 Q 126 370 141 354 Q 157 335 162 349 Q 165 359 164 377 L 160 406 Q 142 491 140 516 C 138 533 124 538 96 547 Z" fill="lightgray"></path>
    
      <path d="M 368 444 Q 389 513 417 535 Q 432 551 418 567 Q 360 615 323 599 Q 296 589 269 578 L 221 563 Q 128 544 96 547 C 66 548 111 509 140 516 Q 147 517 158 521 Q 188 528 222 535 L 268 545 Q 323 560 332 552 Q 339 545 338 529 Q 331 483 321 444 C 314 415 359 415 368 444 Z" fill="lightgray"></path>
    
      <path d="M 264 396 Q 312 406 382 413 Q 392 414 392 422 Q 392 429 368 444 C 355 453 350 451 321 444 Q 293 437 265 428 L 223 419 Q 190 412 160 406 C 131 400 134 376 164 377 Q 170 377 177 378 Q 196 384 223 388 L 264 396 Z" fill="lightgray"></path>
    
      <path d="M 260 278 Q 261 339 264 396 L 265 428 Q 266 488 268 545 L 269 578 Q 269 641 287 708 Q 290 718 270 733 Q 236 751 212 755 Q 196 758 188 749 Q 181 742 189 727 Q 217 688 217 661 Q 220 615 221 563 L 222 535 Q 223 480 223 419 L 223 388 Q 222 328 220 264 C 219 234 259 248 260 278 Z" fill="lightgray"></path>
    
      <path d="M 339 310 Q 300 295 260 278 L 220 264 Q 174 249 127 232 Q 111 225 83 225 Q 70 222 69 213 Q 68 200 77 193 Q 99 180 132 163 Q 142 162 153 170 Q 168 183 350 287 C 376 302 367 321 339 310 Z" fill="lightgray"></path>
    
      <path d="M 350 287 Q 368 247 379 241 Q 386 238 394 245 Q 401 254 404 276 Q 407 306 343 359 Q 333 366 328 366 Q 324 365 321 356 Q 320 350 339 310 L 350 287 Z" fill="lightgray"></path>
    
      <path d="M 612 710 Q 651 720 683 733 Q 726 746 762 751 Q 778 750 782 757 Q 786 767 776 778 Q 722 823 692 820 Q 685 817 684 807 Q 678 768 478 695 Q 472 688 477 684 Q 489 681 573 701 L 612 710 Z" fill="lightgray"></path>
    
      <path d="M 469 630 Q 508 570 530 567 Q 543 564 550 581 Q 551 593 545 612 Q 538 627 519 635 Q 489 651 476 655 Q 467 656 465 646 Q 464 639 469 630 Z" fill="lightgray"></path>
    
      <path d="M 742 680 Q 727 655 695 616 Q 691 609 695 603 Q 702 602 709 606 Q 776 646 807 660 Q 823 664 820 674 Q 816 689 798 706 Q 782 722 761 724 Q 748 724 749 707 Q 750 694 742 680 Z" fill="lightgray"></path>
    
      <path d="M 647 510 Q 711 522 812 523 Q 857 523 864 532 Q 868 542 854 552 Q 803 588 757 569 Q 709 559 642 544 L 601 537 Q 525 525 438 511 Q 420 508 434 495 Q 461 471 491 480 Q 528 492 571 498 L 647 510 Z" fill="lightgray"></path>
    
      <path d="M 642 544 Q 645 622 666 661 Q 672 671 661 683 Q 639 699 612 710 C 585 722 561 728 573 701 Q 600 646 601 537 L 601 451 Q 600 384 594 355 Q 593 345 609 306 Q 619 291 633 299 Q 642 306 642 373 Q 636 430 639 488 L 642 544 Z" fill="lightgray"></path>
    
      <path d="M 571 498 Q 552 432 421 335 Q 406 323 421 322 Q 431 321 466 336 Q 497 346 525 369 Q 550 388 577 420 Q 590 436 601 451 C 644 509 584 538 571 498 Z" fill="lightgray"></path>
    
      <path d="M 639 488 Q 697 418 763 352 Q 784 333 818 332 Q 879 331 943 344 Q 959 345 961 351 Q 962 357 950 361 Q 913 374 868 385 Q 781 410 687 480 Q 662 501 647 510 C 622 526 620 511 639 488 Z" fill="lightgray"></path>
    
      <path d="M 421 231 Q 399 177 368 129 Q 347 101 365 68 Q 372 52 392 63 Q 440 102 445 179 Q 449 209 443 231 Q 439 238 433 240 Q 426 239 421 231 Z" fill="lightgray"></path>
    
      <path d="M 483 197 Q 498 110 564 63 Q 651 8 825 21 Q 849 27 871 35 Q 892 44 894 57 Q 898 66 863 89 Q 811 135 773 183 Q 761 199 757 192 Q 756 192 771 113 Q 777 80 742 74 Q 733 74 723 73 Q 603 73 554 122 Q 532 143 523 179 Q 517 201 506 207 Q 493 214 486 211 Q 480 210 483 197 Z" fill="lightgray"></path>
    
      <path d="M 592 224 Q 641 163 655 160 Q 664 159 669 169 Q 675 181 671 205 Q 670 223 645 239 Q 588 272 576 267 Q 572 264 571 253 Q 572 244 592 224 Z" fill="lightgray"></path>
    
      <path d="M 794 244 Q 831 214 870 179 Q 883 166 898 167 Q 908 168 913 181 Q 917 194 909 223 Q 897 262 789 290 Q 774 294 768 291 Q 764 287 765 275 Q 768 265 794 244 Z" fill="lightgray"></path>
    
    
      <clipPath id="make-me-a-hanzi-clip-0">
        <path d="M 96 547 Q 83 553 76 545 Q 72 541 79 526 Q 104 477 123 394 Q 126 370 141 354 Q 157 335 162 349 Q 165 359 164 377 L 160 406 Q 142 491 140 516 C 138 533 124 538 96 547 Z"></path>
      </clipPath>
      <path clip-path="url(#make-me-a-hanzi-clip-0)" d="M 84 540 L 118 499 L 152 354" fill="none" id="make-me-a-hanzi-animation-0" stroke-dasharray="330 660" stroke-linecap="round"></path>
    
      <clipPath id="make-me-a-hanzi-clip-1">
        <path d="M 368 444 Q 389 513 417 535 Q 432 551 418 567 Q 360 615 323 599 Q 296 589 269 578 L 221 563 Q 128 544 96 547 C 66 548 111 509 140 516 Q 147 517 158 521 Q 188 528 222 535 L 268 545 Q 323 560 332 552 Q 339 545 338 529 Q 331 483 321 444 C 314 415 359 415 368 444 Z"></path>
      </clipPath>
      <path clip-path="url(#make-me-a-hanzi-clip-1)" d="M 110 544 L 142 533 L 227 549 L 324 577 L 348 575 L 376 548 L 351 468 L 329 449" fill="none" id="make-me-a-hanzi-animation-1" stroke-dasharray="525 1050" stroke-linecap="round"></path>
    
      <clipPath id="make-me-a-hanzi-clip-2">
        <path d="M 264 396 Q 312 406 382 413 Q 392 414 392 422 Q 392 429 368 444 C 355 453 350 451 321 444 Q 293 437 265 428 L 223 419 Q 190 412 160 406 C 131 400 134 376 164 377 Q 170 377 177 378 Q 196 384 223 388 L 264 396 Z"></path>
      </clipPath>
      <path clip-path="url(#make-me-a-hanzi-clip-2)" d="M 170 385 L 178 394 L 319 425 L 367 428 L 384 421" fill="none" id="make-me-a-hanzi-animation-2" stroke-dasharray="351 702" stroke-linecap="round"></path>
    
      <clipPath id="make-me-a-hanzi-clip-3">
        <path d="M 260 278 Q 261 339 264 396 L 265 428 Q 266 488 268 545 L 269 578 Q 269 641 287 708 Q 290 718 270 733 Q 236 751 212 755 Q 196 758 188 749 Q 181 742 189 727 Q 217 688 217 661 Q 220 615 221 563 L 222 535 Q 223 480 223 419 L 223 388 Q 222 328 220 264 C 219 234 259 248 260 278 Z"></path>
      </clipPath>
      <path clip-path="url(#make-me-a-hanzi-clip-3)" d="M 201 739 L 246 703 L 248 677 L 242 316 L 240 292 L 225 272" fill="none" id="make-me-a-hanzi-animation-3" stroke-dasharray="622 1244" stroke-linecap="round"></path>
    
      <clipPath id="make-me-a-hanzi-clip-4">
        <path d="M 339 310 Q 300 295 260 278 L 220 264 Q 174 249 127 232 Q 111 225 83 225 Q 70 222 69 213 Q 68 200 77 193 Q 99 180 132 163 Q 142 162 153 170 Q 168 183 350 287 C 376 302 367 321 339 310 Z"></path>
      </clipPath>
      <path clip-path="url(#make-me-a-hanzi-clip-4)" d="M 84 210 L 135 199 L 331 289 L 335 301" fill="none" id="make-me-a-hanzi-animation-4" stroke-dasharray="408 816" stroke-linecap="round"></path>
    
      <clipPath id="make-me-a-hanzi-clip-5">
        <path d="M 350 287 Q 368 247 379 241 Q 386 238 394 245 Q 401 254 404 276 Q 407 306 343 359 Q 333 366 328 366 Q 324 365 321 356 Q 320 350 339 310 L 350 287 Z"></path>
      </clipPath>
      <path clip-path="url(#make-me-a-hanzi-clip-5)" d="M 329 358 L 379 283 L 384 253" fill="none" id="make-me-a-hanzi-animation-5" stroke-dasharray="249 498" stroke-linecap="round"></path>
    
      <clipPath id="make-me-a-hanzi-clip-6">
        <path d="M 612 710 Q 651 720 683 733 Q 726 746 762 751 Q 778 750 782 757 Q 786 767 776 778 Q 722 823 692 820 Q 685 817 684 807 Q 678 768 478 695 Q 472 688 477 684 Q 489 681 573 701 L 612 710 Z"></path>
      </clipPath>
      <path clip-path="url(#make-me-a-hanzi-clip-6)" d="M 773 763 L 709 777 L 629 735 L 506 694 L 492 698 L 480 689" fill="none" id="make-me-a-hanzi-animation-6" stroke-dasharray="443 886" stroke-linecap="round"></path>
    
      <clipPath id="make-me-a-hanzi-clip-7">
        <path d="M 469 630 Q 508 570 530 567 Q 543 564 550 581 Q 551 593 545 612 Q 538 627 519 635 Q 489 651 476 655 Q 467 656 465 646 Q 464 639 469 630 Z"></path>
      </clipPath>
      <path clip-path="url(#make-me-a-hanzi-clip-7)" d="M 477 643 L 521 603 L 533 584" fill="none" id="make-me-a-hanzi-animation-7" stroke-dasharray="210 420" stroke-linecap="round"></path>
    
      <clipPath id="make-me-a-hanzi-clip-8">
        <path d="M 742 680 Q 727 655 695 616 Q 691 609 695 603 Q 702 602 709 606 Q 776 646 807 660 Q 823 664 820 674 Q 816 689 798 706 Q 782 722 761 724 Q 748 724 749 707 Q 750 694 742 680 Z"></path>
      </clipPath>
      <path clip-path="url(#make-me-a-hanzi-clip-8)" d="M 761 711 L 777 681 L 701 610" fill="none" id="make-me-a-hanzi-animation-8" stroke-dasharray="266 532" stroke-linecap="round"></path>
    
      <clipPath id="make-me-a-hanzi-clip-9">
        <path d="M 647 510 Q 711 522 812 523 Q 857 523 864 532 Q 868 542 854 552 Q 803 588 757 569 Q 709 559 642 544 L 601 537 Q 525 525 438 511 Q 420 508 434 495 Q 461 471 491 480 Q 528 492 571 498 L 647 510 Z"></path>
      </clipPath>
      <path clip-path="url(#make-me-a-hanzi-clip-9)" d="M 436 503 L 471 496 L 781 549 L 857 537" fill="none" id="make-me-a-hanzi-animation-9" stroke-dasharray="555 1110" stroke-linecap="round"></path>
    
      <clipPath id="make-me-a-hanzi-clip-10">
        <path d="M 642 544 Q 645 622 666 661 Q 672 671 661 683 Q 639 699 612 710 C 585 722 561 728 573 701 Q 600 646 601 537 L 601 451 Q 600 384 594 355 Q 593 345 609 306 Q 619 291 633 299 Q 642 306 642 373 Q 636 430 639 488 L 642 544 Z"></path>
      </clipPath>
      <path clip-path="url(#make-me-a-hanzi-clip-10)" d="M 581 698 L 610 681 L 626 662 L 618 441 L 618 349 L 625 308" fill="none" id="make-me-a-hanzi-animation-10" stroke-dasharray="541 1082" stroke-linecap="round"></path>
    
      <clipPath id="make-me-a-hanzi-clip-11">
        <path d="M 571 498 Q 552 432 421 335 Q 406 323 421 322 Q 431 321 466 336 Q 497 346 525 369 Q 550 388 577 420 Q 590 436 601 451 C 644 509 584 538 571 498 Z"></path>
      </clipPath>
      <path clip-path="url(#make-me-a-hanzi-clip-11)" d="M 594 496 L 584 483 L 579 459 L 527 397 L 452 341 L 425 329" fill="none" id="make-me-a-hanzi-animation-11" stroke-dasharray="373 746" stroke-linecap="round"></path>
    
      <clipPath id="make-me-a-hanzi-clip-12">
        <path d="M 639 488 Q 697 418 763 352 Q 784 333 818 332 Q 879 331 943 344 Q 959 345 961 351 Q 962 357 950 361 Q 913 374 868 385 Q 781 410 687 480 Q 662 501 647 510 C 622 526 620 511 639 488 Z"></path>
      </clipPath>
      <path clip-path="url(#make-me-a-hanzi-clip-12)" d="M 645 503 L 721 428 L 796 373 L 855 360 L 954 354" fill="none" id="make-me-a-hanzi-animation-12" stroke-dasharray="487 974" stroke-linecap="round"></path>
    
      <clipPath id="make-me-a-hanzi-clip-13">
        <path d="M 421 231 Q 399 177 368 129 Q 347 101 365 68 Q 372 52 392 63 Q 440 102 445 179 Q 449 209 443 231 Q 439 238 433 240 Q 426 239 421 231 Z"></path>
      </clipPath>
      <path clip-path="url(#make-me-a-hanzi-clip-13)" d="M 432 229 L 416 156 L 387 101 L 380 75" fill="none" id="make-me-a-hanzi-animation-13" stroke-dasharray="292 584" stroke-linecap="round"></path>
    
      <clipPath id="make-me-a-hanzi-clip-14">
        <path d="M 483 197 Q 498 110 564 63 Q 651 8 825 21 Q 849 27 871 35 Q 892 44 894 57 Q 898 66 863 89 Q 811 135 773 183 Q 761 199 757 192 Q 756 192 771 113 Q 777 80 742 74 Q 733 74 723 73 Q 603 73 554 122 Q 532 143 523 179 Q 517 201 506 207 Q 493 214 486 211 Q 480 210 483 197 Z"></path>
      </clipPath>
      <path clip-path="url(#make-me-a-hanzi-clip-14)" d="M 491 203 L 502 188 L 521 135 L 558 92 L 623 60 L 723 46 L 775 51 L 813 69 L 760 191" fill="none" id="make-me-a-hanzi-animation-14" stroke-dasharray="660 1320" stroke-linecap="round"></path>
    
      <clipPath id="make-me-a-hanzi-clip-15">
        <path d="M 592 224 Q 641 163 655 160 Q 664 159 669 169 Q 675 181 671 205 Q 670 223 645 239 Q 588 272 576 267 Q 572 264 571 253 Q 572 244 592 224 Z"></path>
      </clipPath>
      <path clip-path="url(#make-me-a-hanzi-clip-15)" d="M 580 258 L 636 213 L 657 171" fill="none" id="make-me-a-hanzi-animation-15" stroke-dasharray="247 494" stroke-linecap="round"></path>
    
      <clipPath id="make-me-a-hanzi-clip-16">
        <path d="M 794 244 Q 831 214 870 179 Q 883 166 898 167 Q 908 168 913 181 Q 917 194 909 223 Q 897 262 789 290 Q 774 294 768 291 Q 764 287 765 275 Q 768 265 794 244 Z"></path>
      </clipPath>
      <path clip-path="url(#make-me-a-hanzi-clip-16)" d="M 773 285 L 858 232 L 875 218 L 895 185" fill="none" id="make-me-a-hanzi-animation-16" stroke-dasharray="289 578" stroke-linecap="round"></path>
    
  </g>
</svg>