<svg version="1.1" viewBox="0 0 1024 1024" xmlns="http://www.w3.org/2000/svg">
  <g stroke="lightgray" stroke-dasharray="1,1" stroke-width="1" transform="scale(4, 4)">
    <line x1="0" y1="0" x2="256" y2="256"></line>
    <line x1="256" y1="0" x2="0" y2="256"></line>
    <line x1="128" y1="0" x2="128" y2="256"></line>
    <line x1="0" y1="128" x2="256" y2="128"></line>
  </g>
  <g transform="scale(1, -1) translate(0, -900)">
    <style type="text/css">
      
        @keyframes keyframes0 {
          from {
            stroke: blue;
            stroke-dashoffset: 456;
            stroke-width: 128;
          }
          60% {
            animation-timing-function: step-end;
            stroke: blue;
            stroke-dashoffset: 0;
            stroke-width: 128;
          }
          to {
            stroke: black;
            stroke-width: 1024;
          }
        }
        #make-me-a-hanzi-animation-0 {
          animation: keyframes0 0.62109375s both;
          animation-delay: 0s;
          animation-timing-function: linear;
        }
      
        @keyframes keyframes1 {
          from {
            stroke: blue;
            stroke-dashoffset: 641;
            stroke-width: 128;
          }
          68% {
            animation-timing-function: step-end;
            stroke: blue;
            stroke-dashoffset: 0;
            stroke-width: 128;
          }
          to {
            stroke: black;
            stroke-width: 1024;
          }
        }
        #make-me-a-hanzi-animation-1 {
          animation: keyframes1 0.7716471354166666s both;
          animation-delay: 0.62109375s;
          animation-timing-function: linear;
        }
      
        @keyframes keyframes2 {
          from {
            stroke: blue;
            stroke-dashoffset: 456;
            stroke-width: 128;
          }
          60% {
            animation-timing-function: step-end;
            stroke: blue;
            stroke-dashoffset: 0;
            stroke-width: 128;
          }
          to {
            stroke: black;
            stroke-width: 1024;
          }
        }
        #make-me-a-hanzi-animation-2 {
          animation: keyframes2 0.62109375s both;
          animation-delay: 1.3927408854166665s;
          animation-timing-function: linear;
        }
      
        @keyframes keyframes3 {
          from {
            stroke: blue;
            stroke-dashoffset: 818;
            stroke-width: 128;
          }
          73% {
            animation-timing-function: step-end;
            stroke: blue;
            stroke-dashoffset: 0;
            stroke-width: 128;
          }
          to {
            stroke: black;
            stroke-width: 1024;
          }
        }
        #make-me-a-hanzi-animation-3 {
          animation: keyframes3 0.9156901041666666s both;
          animation-delay: 2.0138346354166665s;
          animation-timing-function: linear;
        }
      
        @keyframes keyframes4 {
          from {
            stroke: blue;
            stroke-dashoffset: 538;
            stroke-width: 128;
          }
          64% {
            animation-timing-function: step-end;
            stroke: blue;
            stroke-dashoffset: 0;
            stroke-width: 128;
          }
          to {
            stroke: black;
            stroke-width: 1024;
          }
        }
        #make-me-a-hanzi-animation-4 {
          animation: keyframes4 0.6878255208333334s both;
          animation-delay: 2.929524739583333s;
          animation-timing-function: linear;
        }
      
        @keyframes keyframes5 {
          from {
            stroke: blue;
            stroke-dashoffset: 380;
            stroke-width: 128;
          }
          55% {
            animation-timing-function: step-end;
            stroke: blue;
            stroke-dashoffset: 0;
            stroke-width: 128;
          }
          to {
            stroke: black;
            stroke-width: 1024;
          }
        }
        #make-me-a-hanzi-animation-5 {
          animation: keyframes5 0.5592447916666666s both;
          animation-delay: 3.6173502604166665s;
          animation-timing-function: linear;
        }
      
        @keyframes keyframes6 {
          from {
            stroke: blue;
            stroke-dashoffset: 621;
            stroke-width: 128;
          }
          67% {
            animation-timing-function: step-end;
            stroke: blue;
            stroke-dashoffset: 0;
            stroke-width: 128;
          }
          to {
            stroke: black;
            stroke-width: 1024;
          }
        }
        #make-me-a-hanzi-animation-6 {
          animation: keyframes6 0.75537109375s both;
          animation-delay: 4.176595052083333s;
          animation-timing-function: linear;
        }
      
        @keyframes keyframes7 {
          from {
            stroke: blue;
            stroke-dashoffset: 617;
            stroke-width: 128;
          }
          67% {
            animation-timing-function: step-end;
            stroke: blue;
            stroke-dashoffset: 0;
            stroke-width: 128;
          }
          to {
            stroke: black;
            stroke-width: 1024;
          }
        }
        #make-me-a-hanzi-animation-7 {
          animation: keyframes7 0.7521158854166666s both;
          animation-delay: 4.931966145833333s;
          animation-timing-function: linear;
        }
      
        @keyframes keyframes8 {
          from {
            stroke: blue;
            stroke-dashoffset: 386;
            stroke-width: 128;
          }
          56% {
            animation-timing-function: step-end;
            stroke: blue;
            stroke-dashoffset: 0;
            stroke-width: 128;
          }
          to {
            stroke: black;
            stroke-width: 1024;
          }
        }
        #make-me-a-hanzi-animation-8 {
          animation: keyframes8 0.5641276041666666s both;
          animation-delay: 5.68408203125s;
          animation-timing-function: linear;
        }
      
        @keyframes keyframes9 {
          from {
            stroke: blue;
            stroke-dashoffset: 533;
            stroke-width: 128;
          }
          63% {
            animation-timing-function: step-end;
            stroke: blue;
            stroke-dashoffset: 0;
            stroke-width: 128;
          }
          to {
            stroke: black;
            stroke-width: 1024;
          }
        }
        #make-me-a-hanzi-animation-9 {
          animation: keyframes9 0.6837565104166666s both;
          animation-delay: 6.248209635416667s;
          animation-timing-function: linear;
        }
      
        @keyframes keyframes10 {
          from {
            stroke: blue;
            stroke-dashoffset: 491;
            stroke-width: 128;
          }
          62% {
            animation-timing-function: step-end;
            stroke: blue;
            stroke-dashoffset: 0;
            stroke-width: 128;
          }
          to {
            stroke: black;
            stroke-width: 1024;
          }
        }
        #make-me-a-hanzi-animation-10 {
          animation: keyframes10 0.6495768229166666s both;
          animation-delay: 6.931966145833334s;
          animation-timing-function: linear;
        }
      
        @keyframes keyframes11 {
          from {
            stroke: blue;
            stroke-dashoffset: 491;
            stroke-width: 128;
          }
          62% {
            animation-timing-function: step-end;
            stroke: blue;
            stroke-dashoffset: 0;
            stroke-width: 128;
          }
          to {
            stroke: black;
            stroke-width: 1024;
          }
        }
        #make-me-a-hanzi-animation-11 {
          animation: keyframes11 0.6495768229166666s both;
          animation-delay: 7.581542968750001s;
          animation-timing-function: linear;
        }
      
        @keyframes keyframes12 {
          from {
            stroke: blue;
            stroke-dashoffset: 535;
            stroke-width: 128;
          }
          64% {
            animation-timing-function: step-end;
            stroke: blue;
            stroke-dashoffset: 0;
            stroke-width: 128;
          }
          to {
            stroke: black;
            stroke-width: 1024;
          }
        }
        #make-me-a-hanzi-animation-12 {
          animation: keyframes12 0.6853841145833334s both;
          animation-delay: 8.231119791666668s;
          animation-timing-function: linear;
        }
      
        @keyframes keyframes13 {
          from {
            stroke: blue;
            stroke-dashoffset: 642;
            stroke-width: 128;
          }
          68% {
            animation-timing-function: step-end;
            stroke: blue;
            stroke-dashoffset: 0;
            stroke-width: 128;
          }
          to {
            stroke: black;
            stroke-width: 1024;
          }
        }
        #make-me-a-hanzi-animation-13 {
          animation: keyframes13 0.7724609375s both;
          animation-delay: 8.916503906250002s;
          animation-timing-function: linear;
        }
      
        @keyframes keyframes14 {
          from {
            stroke: blue;
            stroke-dashoffset: 414;
            stroke-width: 128;
          }
          57% {
            animation-timing-function: step-end;
            stroke: blue;
            stroke-dashoffset: 0;
            stroke-width: 128;
          }
          to {
            stroke: black;
            stroke-width: 1024;
          }
        }
        #make-me-a-hanzi-animation-14 {
          animation: keyframes14 0.5869140625s both;
          animation-delay: 9.688964843750002s;
          animation-timing-function: linear;
        }
      
        @keyframes keyframes15 {
          from {
            stroke: blue;
            stroke-dashoffset: 366;
            stroke-width: 128;
          }
          54% {
            animation-timing-function: step-end;
            stroke: blue;
            stroke-dashoffset: 0;
            stroke-width: 128;
          }
          to {
            stroke: black;
            stroke-width: 1024;
          }
        }
        #make-me-a-hanzi-animation-15 {
          animation: keyframes15 0.5478515625s both;
          animation-delay: 10.275878906250002s;
          animation-timing-function: linear;
        }
      
        @keyframes keyframes16 {
          from {
            stroke: blue;
            stroke-dashoffset: 364;
            stroke-width: 128;
          }
          54% {
            animation-timing-function: step-end;
            stroke: blue;
            stroke-dashoffset: 0;
            stroke-width: 128;
          }
          to {
            stroke: black;
            stroke-width: 1024;
          }
        }
        #make-me-a-hanzi-animation-16 {
          animation: keyframes16 0.5462239583333334s both;
          animation-delay: 10.823730468750002s;
          animation-timing-function: linear;
        }
      
        @keyframes keyframes17 {
          from {
            stroke: blue;
            stroke-dashoffset: 433;
            stroke-width: 128;
          }
          58% {
            animation-timing-function: step-end;
            stroke: blue;
            stroke-dashoffset: 0;
            stroke-width: 128;
          }
          to {
            stroke: black;
            stroke-width: 1024;
          }
        }
        #make-me-a-hanzi-animation-17 {
          animation: keyframes17 0.6023763020833334s both;
          animation-delay: 11.369954427083336s;
          animation-timing-function: linear;
        }
      
    </style>
    
      <path d="M 97 494 Q 88 498 70 500 Q 60 501 56 497 Q 52 491 59 478 Q 84 429 103 349 Q 107 325 121 310 Q 137 291 142 305 L 144 317 L 143 346 Q 137 368 120 467 C 117 487 117 487 97 494 Z" fill="lightgray"></path>
    
      <path d="M 337 374 Q 361 447 392 474 Q 408 490 394 508 Q 379 521 330 544 Q 314 551 293 544 Q 268 534 243 525 L 192 511 Q 146 504 97 494 C 68 488 91 460 120 467 Q 127 468 138 472 Q 165 478 193 482 L 242 492 Q 293 505 303 497 Q 312 488 309 470 Q 300 421 288 381 C 280 352 327 346 337 374 Z" fill="lightgray"></path>
    
      <path d="M 238 334 Q 281 343 342 349 Q 352 350 352 358 Q 352 364 337 374 L 288 381 Q 287 382 285 381 Q 261 375 239 368 L 194 357 Q 166 351 143 346 C 114 340 114 316 144 317 Q 150 317 157 318 Q 170 322 193 326 L 238 334 Z" fill="lightgray"></path>
    
      <path d="M 234 196 Q 235 266 238 334 L 239 368 Q 240 431 242 492 L 243 525 Q 243 597 263 684 Q 266 696 244 711 Q 207 730 180 734 Q 162 738 154 728 Q 147 721 155 704 Q 186 659 187 629 Q 190 572 192 511 L 193 482 Q 194 421 194 357 L 193 326 Q 193 256 190 179 C 189 149 234 166 234 196 Z" fill="lightgray"></path>
    
      <path d="M 309 226 Q 272 213 234 196 L 190 179 Q 76 140 50 137 Q 37 134 37 125 Q 36 112 45 105 Q 67 92 101 76 Q 111 75 121 83 L 319 202 C 345 217 337 236 309 226 Z" fill="lightgray"></path>
    
      <path d="M 319 202 Q 335 154 352 148 Q 361 145 369 154 Q 379 164 382 190 Q 383 223 318 274 Q 306 281 301 282 Q 295 281 292 270 Q 291 260 305 234 Q 306 230 309 226 L 319 202 Z" fill="lightgray"></path>
    
      <path d="M 518 578 Q 543 615 572 664 Q 588 697 603 712 Q 610 722 606 734 Q 602 744 575 763 Q 551 778 534 777 Q 518 774 526 755 Q 559 703 404 475 Q 397 466 394 460 Q 393 450 404 453 Q 429 460 492 543 L 518 578 Z" fill="lightgray"></path>
    
      <path d="M 538 278 Q 538 453 549 513 Q 555 537 529 565 Q 523 572 520 576 L 518 578 C 499 601 483 572 492 543 Q 519 468 480 299 Q 459 272 491 216 Q 494 207 500 202 Q 516 189 526 212 Q 533 231 536 253 L 538 278 Z" fill="lightgray"></path>
    
      <path d="M 681 746 Q 732 688 749 685 Q 759 685 765 697 Q 771 710 765 740 Q 758 767 681 792 Q 666 796 660 795 Q 656 791 655 779 Q 658 769 681 746 Z" fill="lightgray"></path>
    
      <path d="M 716 576 Q 768 589 823 600 Q 859 609 864 614 Q 871 621 867 629 Q 860 639 833 646 Q 809 650 719 619 Q 650 603 591 594 Q 558 588 582 573 Q 624 552 672 566 L 716 576 Z" fill="lightgray"></path>
    
      <path d="M 731 472 Q 777 485 820 492 Q 842 496 833 509 Q 823 522 799 525 Q 777 526 738 514 Q 735 513 733 512 L 680 494 Q 634 482 594 469 Q 578 465 598 451 Q 610 444 632 449 Q 654 455 680 460 L 731 472 Z" fill="lightgray"></path>
    
      <path d="M 725 372 Q 777 382 823 389 Q 845 393 837 405 Q 827 418 803 423 Q 770 427 727 410 L 680 398 Q 635 388 595 376 Q 579 372 598 359 Q 610 353 680 364 L 725 372 Z" fill="lightgray"></path>
    
      <path d="M 722 303 Q 723 339 725 372 L 727 410 Q 728 443 731 472 L 733 512 Q 736 555 734 560 Q 725 569 716 576 C 693 595 661 594 672 566 Q 679 559 680 494 L 680 460 Q 680 435 680 398 L 680 364 Q 680 334 680 297 C 680 267 721 273 722 303 Z" fill="lightgray"></path>
    
      <path d="M 680 297 Q 613 290 538 278 C 508 273 507 259 536 253 Q 548 249 590 248 Q 698 272 903 273 Q 906 273 910 272 Q 926 273 930 279 Q 934 289 921 300 Q 878 336 813 319 Q 774 313 722 303 L 680 297 Z" fill="lightgray"></path>
    
      <path d="M 456 140 Q 434 91 402 48 Q 380 18 397 -15 Q 404 -33 425 -21 Q 447 -6 461 23 Q 477 56 479 84 Q 485 115 479 139 Q 475 148 468 149 Q 461 148 456 140 Z" fill="lightgray"></path>
    
      <path d="M 570 94 Q 577 69 584 38 Q 588 22 600 15 Q 607 11 618 18 Q 628 27 635 52 Q 639 68 625 91 Q 585 139 573 142 Q 567 142 563 131 Q 560 121 570 94 Z" fill="lightgray"></path>
    
      <path d="M 693 107 Q 720 49 736 42 Q 746 41 753 49 Q 762 59 762 87 Q 762 111 702 148 Q 690 155 685 155 Q 679 154 677 142 Q 677 132 693 107 Z" fill="lightgray"></path>
    
      <path d="M 830 149 Q 867 106 910 46 Q 923 25 937 20 Q 944 17 953 26 Q 966 38 959 80 Q 953 122 893 150 Q 856 169 834 178 Q 825 185 823 173 Q 820 160 830 149 Z" fill="lightgray"></path>
    
    
      <clipPath id="make-me-a-hanzi-clip-0">
        <path d="M 97 494 Q 88 498 70 500 Q 60 501 56 497 Q 52 491 59 478 Q 84 429 103 349 Q 107 325 121 310 Q 137 291 142 305 L 144 317 L 143 346 Q 137 368 120 467 C 117 487 117 487 97 494 Z"></path>
      </clipPath>
      <path clip-path="url(#make-me-a-hanzi-clip-0)" d="M 64 492 L 85 475 L 99 451 L 132 310" fill="none" id="make-me-a-hanzi-animation-0" stroke-dasharray="328 656" stroke-linecap="round"></path>
    
      <clipPath id="make-me-a-hanzi-clip-1">
        <path d="M 337 374 Q 361 447 392 474 Q 408 490 394 508 Q 379 521 330 544 Q 314 551 293 544 Q 268 534 243 525 L 192 511 Q 146 504 97 494 C 68 488 91 460 120 467 Q 127 468 138 472 Q 165 478 193 482 L 242 492 Q 293 505 303 497 Q 312 488 309 470 Q 300 421 288 381 C 280 352 327 346 337 374 Z"></path>
      </clipPath>
      <path clip-path="url(#make-me-a-hanzi-clip-1)" d="M 105 493 L 128 484 L 295 522 L 317 520 L 350 488 L 320 402 L 295 386" fill="none" id="make-me-a-hanzi-animation-1" stroke-dasharray="513 1026" stroke-linecap="round"></path>
    
      <clipPath id="make-me-a-hanzi-clip-2">
        <path d="M 238 334 Q 281 343 342 349 Q 352 350 352 358 Q 352 364 337 374 L 288 381 Q 287 382 285 381 Q 261 375 239 368 L 194 357 Q 166 351 143 346 C 114 340 114 316 144 317 Q 150 317 157 318 Q 170 322 193 326 L 238 334 Z"></path>
      </clipPath>
      <path clip-path="url(#make-me-a-hanzi-clip-2)" d="M 150 324 L 164 336 L 287 362 L 343 358" fill="none" id="make-me-a-hanzi-animation-2" stroke-dasharray="328 656" stroke-linecap="round"></path>
    
      <clipPath id="make-me-a-hanzi-clip-3">
        <path d="M 234 196 Q 235 266 238 334 L 239 368 Q 240 431 242 492 L 243 525 Q 243 597 263 684 Q 266 696 244 711 Q 207 730 180 734 Q 162 738 154 728 Q 147 721 155 704 Q 186 659 187 629 Q 190 572 192 511 L 193 482 Q 194 421 194 357 L 193 326 Q 193 256 190 179 C 189 149 234 166 234 196 Z"></path>
      </clipPath>
      <path clip-path="url(#make-me-a-hanzi-clip-3)" d="M 167 718 L 218 677 L 220 652 L 213 211 L 196 186" fill="none" id="make-me-a-hanzi-animation-3" stroke-dasharray="690 1380" stroke-linecap="round"></path>
    
      <clipPath id="make-me-a-hanzi-clip-4">
        <path d="M 309 226 Q 272 213 234 196 L 190 179 Q 76 140 50 137 Q 37 134 37 125 Q 36 112 45 105 Q 67 92 101 76 Q 111 75 121 83 L 319 202 C 345 217 337 236 309 226 Z"></path>
      </clipPath>
      <path clip-path="url(#make-me-a-hanzi-clip-4)" d="M 50 124 L 75 116 L 110 116 L 292 202 L 305 217" fill="none" id="make-me-a-hanzi-animation-4" stroke-dasharray="410 820" stroke-linecap="round"></path>
    
      <clipPath id="make-me-a-hanzi-clip-5">
        <path d="M 319 202 Q 335 154 352 148 Q 361 145 369 154 Q 379 164 382 190 Q 383 223 318 274 Q 306 281 301 282 Q 295 281 292 270 Q 291 260 305 234 Q 306 230 309 226 L 319 202 Z"></path>
      </clipPath>
      <path clip-path="url(#make-me-a-hanzi-clip-5)" d="M 301 272 L 345 211 L 356 163" fill="none" id="make-me-a-hanzi-animation-5" stroke-dasharray="252 504" stroke-linecap="round"></path>
    
      <clipPath id="make-me-a-hanzi-clip-6">
        <path d="M 518 578 Q 543 615 572 664 Q 588 697 603 712 Q 610 722 606 734 Q 602 744 575 763 Q 551 778 534 777 Q 518 774 526 755 Q 559 703 404 475 Q 397 466 394 460 Q 393 450 404 453 Q 429 460 492 543 L 518 578 Z"></path>
      </clipPath>
      <path clip-path="url(#make-me-a-hanzi-clip-6)" d="M 536 764 L 558 743 L 567 725 L 559 701 L 498 584 L 446 508 L 402 460" fill="none" id="make-me-a-hanzi-animation-6" stroke-dasharray="493 986" stroke-linecap="round"></path>
    
      <clipPath id="make-me-a-hanzi-clip-7">
        <path d="M 538 278 Q 538 453 549 513 Q 555 537 529 565 Q 523 572 520 576 L 518 578 C 499 601 483 572 492 543 Q 519 468 480 299 Q 459 272 491 216 Q 494 207 500 202 Q 516 189 526 212 Q 533 231 536 253 L 538 278 Z"></path>
      </clipPath>
      <path clip-path="url(#make-me-a-hanzi-clip-7)" d="M 514 572 L 524 526 L 524 481 L 518 373 L 505 278 L 511 213" fill="none" id="make-me-a-hanzi-animation-7" stroke-dasharray="489 978" stroke-linecap="round"></path>
    
      <clipPath id="make-me-a-hanzi-clip-8">
        <path d="M 681 746 Q 732 688 749 685 Q 759 685 765 697 Q 771 710 765 740 Q 758 767 681 792 Q 666 796 660 795 Q 656 791 655 779 Q 658 769 681 746 Z"></path>
      </clipPath>
      <path clip-path="url(#make-me-a-hanzi-clip-8)" d="M 664 789 L 736 732 L 750 697" fill="none" id="make-me-a-hanzi-animation-8" stroke-dasharray="258 516" stroke-linecap="round"></path>
    
      <clipPath id="make-me-a-hanzi-clip-9">
        <path d="M 716 576 Q 768 589 823 600 Q 859 609 864 614 Q 871 621 867 629 Q 860 639 833 646 Q 809 650 719 619 Q 650 603 591 594 Q 558 588 582 573 Q 624 552 672 566 L 716 576 Z"></path>
      </clipPath>
      <path clip-path="url(#make-me-a-hanzi-clip-9)" d="M 584 585 L 633 580 L 804 620 L 856 623" fill="none" id="make-me-a-hanzi-animation-9" stroke-dasharray="405 810" stroke-linecap="round"></path>
    
      <clipPath id="make-me-a-hanzi-clip-10">
        <path d="M 731 472 Q 777 485 820 492 Q 842 496 833 509 Q 823 522 799 525 Q 777 526 738 514 Q 735 513 733 512 L 680 494 Q 634 482 594 469 Q 578 465 598 451 Q 610 444 632 449 Q 654 455 680 460 L 731 472 Z"></path>
      </clipPath>
      <path clip-path="url(#make-me-a-hanzi-clip-10)" d="M 596 460 L 623 462 L 769 503 L 803 507 L 824 502" fill="none" id="make-me-a-hanzi-animation-10" stroke-dasharray="363 726" stroke-linecap="round"></path>
    
      <clipPath id="make-me-a-hanzi-clip-11">
        <path d="M 725 372 Q 777 382 823 389 Q 845 393 837 405 Q 827 418 803 423 Q 770 427 727 410 L 680 398 Q 635 388 595 376 Q 579 372 598 359 Q 610 353 680 364 L 725 372 Z"></path>
      </clipPath>
      <path clip-path="url(#make-me-a-hanzi-clip-11)" d="M 596 367 L 783 404 L 827 399" fill="none" id="make-me-a-hanzi-animation-11" stroke-dasharray="363 726" stroke-linecap="round"></path>
    
      <clipPath id="make-me-a-hanzi-clip-12">
        <path d="M 722 303 Q 723 339 725 372 L 727 410 Q 728 443 731 472 L 733 512 Q 736 555 734 560 Q 725 569 716 576 C 693 595 661 594 672 566 Q 679 559 680 494 L 680 460 Q 680 435 680 398 L 680 364 Q 680 334 680 297 C 680 267 721 273 722 303 Z"></path>
      </clipPath>
      <path clip-path="url(#make-me-a-hanzi-clip-12)" d="M 680 567 L 707 539 L 701 322 L 686 304" fill="none" id="make-me-a-hanzi-animation-12" stroke-dasharray="407 814" stroke-linecap="round"></path>
    
      <clipPath id="make-me-a-hanzi-clip-13">
        <path d="M 680 297 Q 613 290 538 278 C 508 273 507 259 536 253 Q 548 249 590 248 Q 698 272 903 273 Q 906 273 910 272 Q 926 273 930 279 Q 934 289 921 300 Q 878 336 813 319 Q 774 313 722 303 L 680 297 Z"></path>
      </clipPath>
      <path clip-path="url(#make-me-a-hanzi-clip-13)" d="M 541 259 L 842 299 L 880 297 L 922 284" fill="none" id="make-me-a-hanzi-animation-13" stroke-dasharray="514 1028" stroke-linecap="round"></path>
    
      <clipPath id="make-me-a-hanzi-clip-14">
        <path d="M 456 140 Q 434 91 402 48 Q 380 18 397 -15 Q 404 -33 425 -21 Q 447 -6 461 23 Q 477 56 479 84 Q 485 115 479 139 Q 475 148 468 149 Q 461 148 456 140 Z"></path>
      </clipPath>
      <path clip-path="url(#make-me-a-hanzi-clip-14)" d="M 467 137 L 449 69 L 421 18 L 413 -10" fill="none" id="make-me-a-hanzi-animation-14" stroke-dasharray="286 572" stroke-linecap="round"></path>
    
      <clipPath id="make-me-a-hanzi-clip-15">
        <path d="M 570 94 Q 577 69 584 38 Q 588 22 600 15 Q 607 11 618 18 Q 628 27 635 52 Q 639 68 625 91 Q 585 139 573 142 Q 567 142 563 131 Q 560 121 570 94 Z"></path>
      </clipPath>
      <path clip-path="url(#make-me-a-hanzi-clip-15)" d="M 572 133 L 605 72 L 607 31" fill="none" id="make-me-a-hanzi-animation-15" stroke-dasharray="238 476" stroke-linecap="round"></path>
    
      <clipPath id="make-me-a-hanzi-clip-16">
        <path d="M 693 107 Q 720 49 736 42 Q 746 41 753 49 Q 762 59 762 87 Q 762 111 702 148 Q 690 155 685 155 Q 679 154 677 142 Q 677 132 693 107 Z"></path>
      </clipPath>
      <path clip-path="url(#make-me-a-hanzi-clip-16)" d="M 686 145 L 734 86 L 739 54" fill="none" id="make-me-a-hanzi-animation-16" stroke-dasharray="236 472" stroke-linecap="round"></path>
    
      <clipPath id="make-me-a-hanzi-clip-17">
        <path d="M 830 149 Q 867 106 910 46 Q 923 25 937 20 Q 944 17 953 26 Q 966 38 959 80 Q 953 122 893 150 Q 856 169 834 178 Q 825 185 823 173 Q 820 160 830 149 Z"></path>
      </clipPath>
      <path clip-path="url(#make-me-a-hanzi-clip-17)" d="M 832 167 L 915 96 L 932 67 L 941 34" fill="none" id="make-me-a-hanzi-animation-17" stroke-dasharray="305 610" stroke-linecap="round"></path>
    
  </g>
</svg>