<svg version="1.1" viewBox="0 0 1024 1024" xmlns="http://www.w3.org/2000/svg">
  <g stroke="lightgray" stroke-dasharray="1,1" stroke-width="1" transform="scale(4, 4)">
    <line x1="0" y1="0" x2="256" y2="256"></line>
    <line x1="256" y1="0" x2="0" y2="256"></line>
    <line x1="128" y1="0" x2="128" y2="256"></line>
    <line x1="0" y1="128" x2="256" y2="128"></line>
  </g>
  <g transform="scale(1, -1) translate(0, -900)">
    <style type="text/css">
      
        @keyframes keyframes0 {
          from {
            stroke: blue;
            stroke-dashoffset: 448;
            stroke-width: 128;
          }
          59% {
            animation-timing-function: step-end;
            stroke: blue;
            stroke-dashoffset: 0;
            stroke-width: 128;
          }
          to {
            stroke: black;
            stroke-width: 1024;
          }
        }
        #make-me-a-hanzi-animation-0 {
          animation: keyframes0 0.6145833333333334s both;
          animation-delay: 0s;
          animation-timing-function: linear;
        }
      
        @keyframes keyframes1 {
          from {
            stroke: blue;
            stroke-dashoffset: 617;
            stroke-width: 128;
          }
          67% {
            animation-timing-function: step-end;
            stroke: blue;
            stroke-dashoffset: 0;
            stroke-width: 128;
          }
          to {
            stroke: black;
            stroke-width: 1024;
          }
        }
        #make-me-a-hanzi-animation-1 {
          animation: keyframes1 0.7521158854166666s both;
          animation-delay: 0.6145833333333334s;
          animation-timing-function: linear;
        }
      
        @keyframes keyframes2 {
          from {
            stroke: blue;
            stroke-dashoffset: 470;
            stroke-width: 128;
          }
          60% {
            animation-timing-function: step-end;
            stroke: blue;
            stroke-dashoffset: 0;
            stroke-width: 128;
          }
          to {
            stroke: black;
            stroke-width: 1024;
          }
        }
        #make-me-a-hanzi-animation-2 {
          animation: keyframes2 0.6324869791666666s both;
          animation-delay: 1.36669921875s;
          animation-timing-function: linear;
        }
      
        @keyframes keyframes3 {
          from {
            stroke: blue;
            stroke-dashoffset: 767;
            stroke-width: 128;
          }
          71% {
            animation-timing-function: step-end;
            stroke: blue;
            stroke-dashoffset: 0;
            stroke-width: 128;
          }
          to {
            stroke: black;
            stroke-width: 1024;
          }
        }
        #make-me-a-hanzi-animation-3 {
          animation: keyframes3 0.8741861979166666s both;
          animation-delay: 1.9991861979166665s;
          animation-timing-function: linear;
        }
      
        @keyframes keyframes4 {
          from {
            stroke: blue;
            stroke-dashoffset: 540;
            stroke-width: 128;
          }
          64% {
            animation-timing-function: step-end;
            stroke: blue;
            stroke-dashoffset: 0;
            stroke-width: 128;
          }
          to {
            stroke: black;
            stroke-width: 1024;
          }
        }
        #make-me-a-hanzi-animation-4 {
          animation: keyframes4 0.689453125s both;
          animation-delay: 2.873372395833333s;
          animation-timing-function: linear;
        }
      
        @keyframes keyframes5 {
          from {
            stroke: blue;
            stroke-dashoffset: 352;
            stroke-width: 128;
          }
          53% {
            animation-timing-function: step-end;
            stroke: blue;
            stroke-dashoffset: 0;
            stroke-width: 128;
          }
          to {
            stroke: black;
            stroke-width: 1024;
          }
        }
        #make-me-a-hanzi-animation-5 {
          animation: keyframes5 0.5364583333333334s both;
          animation-delay: 3.562825520833333s;
          animation-timing-function: linear;
        }
      
        @keyframes keyframes6 {
          from {
            stroke: blue;
            stroke-dashoffset: 499;
            stroke-width: 128;
          }
          62% {
            animation-timing-function: step-end;
            stroke: blue;
            stroke-dashoffset: 0;
            stroke-width: 128;
          }
          to {
            stroke: black;
            stroke-width: 1024;
          }
        }
        #make-me-a-hanzi-animation-6 {
          animation: keyframes6 0.6560872395833334s both;
          animation-delay: 4.099283854166666s;
          animation-timing-function: linear;
        }
      
        @keyframes keyframes7 {
          from {
            stroke: blue;
            stroke-dashoffset: 513;
            stroke-width: 128;
          }
          63% {
            animation-timing-function: step-end;
            stroke: blue;
            stroke-dashoffset: 0;
            stroke-width: 128;
          }
          to {
            stroke: black;
            stroke-width: 1024;
          }
        }
        #make-me-a-hanzi-animation-7 {
          animation: keyframes7 0.66748046875s both;
          animation-delay: 4.755371093749999s;
          animation-timing-function: linear;
        }
      
        @keyframes keyframes8 {
          from {
            stroke: blue;
            stroke-dashoffset: 545;
            stroke-width: 128;
          }
          64% {
            animation-timing-function: step-end;
            stroke: blue;
            stroke-dashoffset: 0;
            stroke-width: 128;
          }
          to {
            stroke: black;
            stroke-width: 1024;
          }
        }
        #make-me-a-hanzi-animation-8 {
          animation: keyframes8 0.6935221354166666s both;
          animation-delay: 5.422851562499999s;
          animation-timing-function: linear;
        }
      
        @keyframes keyframes9 {
          from {
            stroke: blue;
            stroke-dashoffset: 440;
            stroke-width: 128;
          }
          59% {
            animation-timing-function: step-end;
            stroke: blue;
            stroke-dashoffset: 0;
            stroke-width: 128;
          }
          to {
            stroke: black;
            stroke-width: 1024;
          }
        }
        #make-me-a-hanzi-animation-9 {
          animation: keyframes9 0.6080729166666666s both;
          animation-delay: 6.116373697916666s;
          animation-timing-function: linear;
        }
      
        @keyframes keyframes10 {
          from {
            stroke: blue;
            stroke-dashoffset: 419;
            stroke-width: 128;
          }
          58% {
            animation-timing-function: step-end;
            stroke: blue;
            stroke-dashoffset: 0;
            stroke-width: 128;
          }
          to {
            stroke: black;
            stroke-width: 1024;
          }
        }
        #make-me-a-hanzi-animation-10 {
          animation: keyframes10 0.5909830729166666s both;
          animation-delay: 6.724446614583333s;
          animation-timing-function: linear;
        }
      
        @keyframes keyframes11 {
          from {
            stroke: blue;
            stroke-dashoffset: 460;
            stroke-width: 128;
          }
          60% {
            animation-timing-function: step-end;
            stroke: blue;
            stroke-dashoffset: 0;
            stroke-width: 128;
          }
          to {
            stroke: black;
            stroke-width: 1024;
          }
        }
        #make-me-a-hanzi-animation-11 {
          animation: keyframes11 0.6243489583333334s both;
          animation-delay: 7.3154296875s;
          animation-timing-function: linear;
        }
      
        @keyframes keyframes12 {
          from {
            stroke: blue;
            stroke-dashoffset: 466;
            stroke-width: 128;
          }
          60% {
            animation-timing-function: step-end;
            stroke: blue;
            stroke-dashoffset: 0;
            stroke-width: 128;
          }
          to {
            stroke: black;
            stroke-width: 1024;
          }
        }
        #make-me-a-hanzi-animation-12 {
          animation: keyframes12 0.6292317708333334s both;
          animation-delay: 7.939778645833333s;
          animation-timing-function: linear;
        }
      
        @keyframes keyframes13 {
          from {
            stroke: blue;
            stroke-dashoffset: 426;
            stroke-width: 128;
          }
          58% {
            animation-timing-function: step-end;
            stroke: blue;
            stroke-dashoffset: 0;
            stroke-width: 128;
          }
          to {
            stroke: black;
            stroke-width: 1024;
          }
        }
        #make-me-a-hanzi-animation-13 {
          animation: keyframes13 0.5966796875s both;
          animation-delay: 8.569010416666666s;
          animation-timing-function: linear;
        }
      
        @keyframes keyframes14 {
          from {
            stroke: blue;
            stroke-dashoffset: 475;
            stroke-width: 128;
          }
          61% {
            animation-timing-function: step-end;
            stroke: blue;
            stroke-dashoffset: 0;
            stroke-width: 128;
          }
          to {
            stroke: black;
            stroke-width: 1024;
          }
        }
        #make-me-a-hanzi-animation-14 {
          animation: keyframes14 0.6365559895833334s both;
          animation-delay: 9.165690104166666s;
          animation-timing-function: linear;
        }
      
        @keyframes keyframes15 {
          from {
            stroke: blue;
            stroke-dashoffset: 624;
            stroke-width: 128;
          }
          67% {
            animation-timing-function: step-end;
            stroke: blue;
            stroke-dashoffset: 0;
            stroke-width: 128;
          }
          to {
            stroke: black;
            stroke-width: 1024;
          }
        }
        #make-me-a-hanzi-animation-15 {
          animation: keyframes15 0.7578125s both;
          animation-delay: 9.80224609375s;
          animation-timing-function: linear;
        }
      
        @keyframes keyframes16 {
          from {
            stroke: blue;
            stroke-dashoffset: 643;
            stroke-width: 128;
          }
          68% {
            animation-timing-function: step-end;
            stroke: blue;
            stroke-dashoffset: 0;
            stroke-width: 128;
          }
          to {
            stroke: black;
            stroke-width: 1024;
          }
        }
        #make-me-a-hanzi-animation-16 {
          animation: keyframes16 0.7732747395833334s both;
          animation-delay: 10.56005859375s;
          animation-timing-function: linear;
        }
      
        @keyframes keyframes17 {
          from {
            stroke: blue;
            stroke-dashoffset: 933;
            stroke-width: 128;
          }
          75% {
            animation-timing-function: step-end;
            stroke: blue;
            stroke-dashoffset: 0;
            stroke-width: 128;
          }
          to {
            stroke: black;
            stroke-width: 1024;
          }
        }
        #make-me-a-hanzi-animation-17 {
          animation: keyframes17 1.00927734375s both;
          animation-delay: 11.333333333333334s;
          animation-timing-function: linear;
        }
      
    </style>
    
      <path d="M 138 540 Q 128 544 102 547 Q 92 550 88 545 Q 84 539 91 525 Q 116 479 135 403 Q 139 381 153 366 Q 169 347 174 361 Q 175 370 176 381 L 173 411 Q 157 486 153 512 C 149 536 149 536 138 540 Z" fill="lightgray"></path>
    
      <path d="M 374 446 Q 401 521 427 536 Q 440 552 428 567 Q 415 579 370 599 Q 355 605 280 575 L 235 561 Q 186 551 138 540 C 109 533 124 505 153 512 Q 160 513 170 517 Q 201 526 235 532 L 279 543 Q 300 549 321 554 Q 340 558 348 551 Q 355 544 353 529 Q 344 489 334 455 C 326 426 364 418 374 446 Z" fill="lightgray"></path>
    
      <path d="M 276 401 Q 319 411 382 419 Q 392 420 393 429 Q 393 436 374 446 C 354 458 354 458 334 455 Q 322 455 277 438 L 236 426 Q 202 419 173 411 C 144 403 146 376 176 381 Q 177 381 235 392 L 276 401 Z" fill="lightgray"></path>
    
      <path d="M 272 286 Q 273 344 276 401 L 277 438 Q 278 492 279 543 L 280 575 Q 280 662 299 732 Q 302 742 282 757 Q 248 775 224 779 Q 208 782 200 773 Q 193 766 201 751 Q 229 711 230 682 Q 233 624 235 561 L 235 532 Q 236 481 236 426 L 235 392 Q 235 334 232 271 C 231 241 271 256 272 286 Z" fill="lightgray"></path>
    
      <path d="M 333 309 Q 302 299 272 286 L 232 271 Q 177 252 117 231 Q 101 225 75 225 Q 62 222 61 213 Q 60 200 69 193 Q 91 180 124 163 Q 134 162 145 170 Q 175 197 315 272 Q 331 282 345 291 C 370 307 361 318 333 309 Z" fill="lightgray"></path>
    
      <path d="M 345 291 Q 369 248 381 243 Q 388 242 394 249 Q 400 258 400 279 Q 400 303 342 337 Q 333 343 328 342 Q 324 341 323 332 Q 323 325 333 309 L 345 291 Z" fill="lightgray"></path>
    
      <path d="M 679 676 Q 769 703 773 706 Q 780 713 776 722 Q 769 732 741 736 Q 713 740 687 726 Q 686 726 685 725 L 633 706 Q 626 705 621 702 Q 584 690 537 683 Q 504 674 530 661 Q 573 640 632 663 L 634 663 L 679 676 Z" fill="lightgray"></path>
    
      <path d="M 673 616 Q 676 647 679 676 L 685 725 Q 685 743 701 816 Q 704 826 687 839 Q 656 855 635 860 Q 622 863 614 856 Q 607 849 614 836 Q 629 815 629 801 Q 632 756 633 706 L 634 663 Q 634 636 634 605 C 634 575 670 586 673 616 Z" fill="lightgray"></path>
    
      <path d="M 634 605 Q 570 589 514 572 Q 498 568 518 555 Q 533 546 560 552 Q 693 585 792 605 Q 814 609 805 621 Q 795 634 771 638 Q 740 641 673 616 L 634 605 Z" fill="lightgray"></path>
    
      <path d="M 546 430 Q 615 454 617 457 Q 623 463 619 468 Q 613 475 592 478 Q 571 479 551 469 Q 550 469 549 468 L 507 449 Q 503 449 502 448 Q 472 438 438 431 Q 413 424 433 414 Q 455 405 509 417 L 546 430 Z" fill="lightgray"></path>
    
      <path d="M 541 375 Q 542 403 546 430 L 549 468 Q 549 480 557 500 Q 558 507 546 517 Q 524 529 508 532 Q 498 533 492 528 Q 488 524 493 513 Q 502 501 507 449 L 509 417 Q 510 392 511 364 C 512 334 540 345 541 375 Z" fill="lightgray"></path>
    
      <path d="M 511 364 Q 489 358 472 350 Q 447 340 429 337 Q 420 334 418 329 Q 417 322 425 311 Q 437 298 452 291 Q 456 290 485 304 Q 507 326 596 379 Q 606 383 613 391 Q 617 398 611 400 Q 605 400 541 375 L 511 364 Z" fill="lightgray"></path>
    
      <path d="M 788 485 Q 816 494 845 501 Q 872 508 876 512 Q 882 518 878 524 Q 874 531 852 536 Q 828 539 792 522 L 744 505 Q 708 498 668 490 Q 643 486 661 474 Q 694 459 744 474 L 746 474 L 788 485 Z" fill="lightgray"></path>
    
      <path d="M 782 423 Q 785 456 788 485 L 792 522 Q 792 529 800 549 Q 801 556 788 567 Q 763 580 745 583 Q 733 586 728 580 Q 722 574 729 563 Q 739 550 744 505 L 746 474 Q 747 446 749 413 C 751 383 779 393 782 423 Z" fill="lightgray"></path>
    
      <path d="M 749 413 Q 700 400 658 388 Q 643 384 662 371 Q 672 364 694 368 Q 796 387 871 401 Q 893 405 885 417 Q 875 430 851 434 Q 814 438 782 423 L 749 413 Z" fill="lightgray"></path>
    
      <path d="M 679 273 Q 688 276 809 297 Q 819 296 826 308 Q 827 318 806 327 Q 779 348 693 316 Q 672 312 653 305 Q 619 296 459 266 Q 434 262 454 247 Q 488 223 523 236 L 525 236 L 559 244 Q 599 256 645 266 L 679 273 Z" fill="lightgray"></path>
    
      <path d="M 525 236 Q 507 103 283 -13 Q 276 -17 280 -22 Q 307 -35 395 11 Q 474 47 554 162 Q 567 180 582 197 Q 591 203 588 212 Q 585 218 559 244 C 538 265 530 266 525 236 Z" fill="lightgray"></path>
    
      <path d="M 645 266 Q 645 263 647 258 Q 657 224 655 189 Q 648 66 658 32 Q 662 11 681 -7 Q 760 -67 911 -34 Q 912 -33 916 -33 Q 952 -23 986 1 Q 1007 19 991 46 Q 976 74 954 161 Q 953 177 945 182 Q 938 185 935 167 Q 911 71 894 42 Q 867 12 785 15 Q 754 16 728 26 Q 706 36 701 49 Q 680 91 706 233 Q 712 257 679 273 C 654 289 638 295 645 266 Z" fill="lightgray"></path>
    
    
      <clipPath id="make-me-a-hanzi-clip-0">
        <path d="M 138 540 Q 128 544 102 547 Q 92 550 88 545 Q 84 539 91 525 Q 116 479 135 403 Q 139 381 153 366 Q 169 347 174 361 Q 175 370 176 381 L 173 411 Q 157 486 153 512 C 149 536 149 536 138 540 Z"></path>
      </clipPath>
      <path clip-path="url(#make-me-a-hanzi-clip-0)" d="M 96 540 L 121 519 L 129 504 L 164 366" fill="none" id="make-me-a-hanzi-animation-0" stroke-dasharray="320 640" stroke-linecap="round"></path>
    
      <clipPath id="make-me-a-hanzi-clip-1">
        <path d="M 374 446 Q 401 521 427 536 Q 440 552 428 567 Q 415 579 370 599 Q 355 605 280 575 L 235 561 Q 186 551 138 540 C 109 533 124 505 153 512 Q 160 513 170 517 Q 201 526 235 532 L 279 543 Q 300 549 321 554 Q 340 558 348 551 Q 355 544 353 529 Q 344 489 334 455 C 326 426 364 418 374 446 Z"></path>
      </clipPath>
      <path clip-path="url(#make-me-a-hanzi-clip-1)" d="M 146 535 L 186 535 L 319 573 L 363 573 L 388 550 L 366 484 L 358 469 L 342 460" fill="none" id="make-me-a-hanzi-animation-1" stroke-dasharray="489 978" stroke-linecap="round"></path>
    
      <clipPath id="make-me-a-hanzi-clip-2">
        <path d="M 276 401 Q 319 411 382 419 Q 392 420 393 429 Q 393 436 374 446 C 354 458 354 458 334 455 Q 322 455 277 438 L 236 426 Q 202 419 173 411 C 144 403 146 376 176 381 Q 177 381 235 392 L 276 401 Z"></path>
      </clipPath>
      <path clip-path="url(#make-me-a-hanzi-clip-2)" d="M 177 389 L 190 399 L 312 430 L 364 433 L 383 428" fill="none" id="make-me-a-hanzi-animation-2" stroke-dasharray="342 684" stroke-linecap="round"></path>
    
      <clipPath id="make-me-a-hanzi-clip-3">
        <path d="M 272 286 Q 273 344 276 401 L 277 438 Q 278 492 279 543 L 280 575 Q 280 662 299 732 Q 302 742 282 757 Q 248 775 224 779 Q 208 782 200 773 Q 193 766 201 751 Q 229 711 230 682 Q 233 624 235 561 L 235 532 Q 236 481 236 426 L 235 392 Q 235 334 232 271 C 231 241 271 256 272 286 Z"></path>
      </clipPath>
      <path clip-path="url(#make-me-a-hanzi-clip-3)" d="M 213 763 L 258 727 L 260 702 L 253 300 L 237 279" fill="none" id="make-me-a-hanzi-animation-3" stroke-dasharray="639 1278" stroke-linecap="round"></path>
    
      <clipPath id="make-me-a-hanzi-clip-4">
        <path d="M 333 309 Q 302 299 272 286 L 232 271 Q 177 252 117 231 Q 101 225 75 225 Q 62 222 61 213 Q 60 200 69 193 Q 91 180 124 163 Q 134 162 145 170 Q 175 197 315 272 Q 331 282 345 291 C 370 307 361 318 333 309 Z"></path>
      </clipPath>
      <path clip-path="url(#make-me-a-hanzi-clip-4)" d="M 76 210 L 127 199 L 328 295 L 337 292" fill="none" id="make-me-a-hanzi-animation-4" stroke-dasharray="412 824" stroke-linecap="round"></path>
    
      <clipPath id="make-me-a-hanzi-clip-5">
        <path d="M 345 291 Q 369 248 381 243 Q 388 242 394 249 Q 400 258 400 279 Q 400 303 342 337 Q 333 343 328 342 Q 324 341 323 332 Q 323 325 333 309 L 345 291 Z"></path>
      </clipPath>
      <path clip-path="url(#make-me-a-hanzi-clip-5)" d="M 333 333 L 377 281 L 384 254" fill="none" id="make-me-a-hanzi-animation-5" stroke-dasharray="224 448" stroke-linecap="round"></path>
    
      <clipPath id="make-me-a-hanzi-clip-6">
        <path d="M 679 676 Q 769 703 773 706 Q 780 713 776 722 Q 769 732 741 736 Q 713 740 687 726 Q 686 726 685 725 L 633 706 Q 626 705 621 702 Q 584 690 537 683 Q 504 674 530 661 Q 573 640 632 663 L 634 663 L 679 676 Z"></path>
      </clipPath>
      <path clip-path="url(#make-me-a-hanzi-clip-6)" d="M 531 673 L 589 672 L 713 711 L 746 717 L 767 714" fill="none" id="make-me-a-hanzi-animation-6" stroke-dasharray="371 742" stroke-linecap="round"></path>
    
      <clipPath id="make-me-a-hanzi-clip-7">
        <path d="M 673 616 Q 676 647 679 676 L 685 725 Q 685 743 701 816 Q 704 826 687 839 Q 656 855 635 860 Q 622 863 614 856 Q 607 849 614 836 Q 629 815 629 801 Q 632 756 633 706 L 634 663 Q 634 636 634 605 C 634 575 670 586 673 616 Z"></path>
      </clipPath>
      <path clip-path="url(#make-me-a-hanzi-clip-7)" d="M 624 847 L 664 811 L 654 632 L 639 613" fill="none" id="make-me-a-hanzi-animation-7" stroke-dasharray="385 770" stroke-linecap="round"></path>
    
      <clipPath id="make-me-a-hanzi-clip-8">
        <path d="M 634 605 Q 570 589 514 572 Q 498 568 518 555 Q 533 546 560 552 Q 693 585 792 605 Q 814 609 805 621 Q 795 634 771 638 Q 740 641 673 616 L 634 605 Z"></path>
      </clipPath>
      <path clip-path="url(#make-me-a-hanzi-clip-8)" d="M 515 563 L 550 565 L 747 617 L 774 620 L 796 615" fill="none" id="make-me-a-hanzi-animation-8" stroke-dasharray="417 834" stroke-linecap="round"></path>
    
      <clipPath id="make-me-a-hanzi-clip-9">
        <path d="M 546 430 Q 615 454 617 457 Q 623 463 619 468 Q 613 475 592 478 Q 571 479 551 469 Q 550 469 549 468 L 507 449 Q 503 449 502 448 Q 472 438 438 431 Q 413 424 433 414 Q 455 405 509 417 L 546 430 Z"></path>
      </clipPath>
      <path clip-path="url(#make-me-a-hanzi-clip-9)" d="M 433 423 L 496 428 L 564 456 L 611 464" fill="none" id="make-me-a-hanzi-animation-9" stroke-dasharray="312 624" stroke-linecap="round"></path>
    
      <clipPath id="make-me-a-hanzi-clip-10">
        <path d="M 541 375 Q 542 403 546 430 L 549 468 Q 549 480 557 500 Q 558 507 546 517 Q 524 529 508 532 Q 498 533 492 528 Q 488 524 493 513 Q 502 501 507 449 L 509 417 Q 510 392 511 364 C 512 334 540 345 541 375 Z"></path>
      </clipPath>
      <path clip-path="url(#make-me-a-hanzi-clip-10)" d="M 500 521 L 527 496 L 526 397 L 517 371" fill="none" id="make-me-a-hanzi-animation-10" stroke-dasharray="291 582" stroke-linecap="round"></path>
    
      <clipPath id="make-me-a-hanzi-clip-11">
        <path d="M 511 364 Q 489 358 472 350 Q 447 340 429 337 Q 420 334 418 329 Q 417 322 425 311 Q 437 298 452 291 Q 456 290 485 304 Q 507 326 596 379 Q 606 383 613 391 Q 617 398 611 400 Q 605 400 541 375 L 511 364 Z"></path>
      </clipPath>
      <path clip-path="url(#make-me-a-hanzi-clip-11)" d="M 428 327 L 452 318 L 467 321 L 546 361 L 556 372 L 583 378 L 610 395" fill="none" id="make-me-a-hanzi-animation-11" stroke-dasharray="332 664" stroke-linecap="round"></path>
    
      <clipPath id="make-me-a-hanzi-clip-12">
        <path d="M 788 485 Q 816 494 845 501 Q 872 508 876 512 Q 882 518 878 524 Q 874 531 852 536 Q 828 539 792 522 L 744 505 Q 708 498 668 490 Q 643 486 661 474 Q 694 459 744 474 L 746 474 L 788 485 Z"></path>
      </clipPath>
      <path clip-path="url(#make-me-a-hanzi-clip-12)" d="M 663 483 L 718 483 L 833 517 L 868 519" fill="none" id="make-me-a-hanzi-animation-12" stroke-dasharray="338 676" stroke-linecap="round"></path>
    
      <clipPath id="make-me-a-hanzi-clip-13">
        <path d="M 782 423 Q 785 456 788 485 L 792 522 Q 792 529 800 549 Q 801 556 788 567 Q 763 580 745 583 Q 733 586 728 580 Q 722 574 729 563 Q 739 550 744 505 L 746 474 Q 747 446 749 413 C 751 383 779 393 782 423 Z"></path>
      </clipPath>
      <path clip-path="url(#make-me-a-hanzi-clip-13)" d="M 737 573 L 767 545 L 765 437 L 752 421" fill="none" id="make-me-a-hanzi-animation-13" stroke-dasharray="298 596" stroke-linecap="round"></path>
    
      <clipPath id="make-me-a-hanzi-clip-14">
        <path d="M 749 413 Q 700 400 658 388 Q 643 384 662 371 Q 672 364 694 368 Q 796 387 871 401 Q 893 405 885 417 Q 875 430 851 434 Q 814 438 782 423 L 749 413 Z"></path>
      </clipPath>
      <path clip-path="url(#make-me-a-hanzi-clip-14)" d="M 660 379 L 830 415 L 875 411" fill="none" id="make-me-a-hanzi-animation-14" stroke-dasharray="347 694" stroke-linecap="round"></path>
    
      <clipPath id="make-me-a-hanzi-clip-15">
        <path d="M 679 273 Q 688 276 809 297 Q 819 296 826 308 Q 827 318 806 327 Q 779 348 693 316 Q 672 312 653 305 Q 619 296 459 266 Q 434 262 454 247 Q 488 223 523 236 L 525 236 L 559 244 Q 599 256 645 266 L 679 273 Z"></path>
      </clipPath>
      <path clip-path="url(#make-me-a-hanzi-clip-15)" d="M 455 257 L 511 254 L 760 312 L 816 309" fill="none" id="make-me-a-hanzi-animation-15" stroke-dasharray="496 992" stroke-linecap="round"></path>
    
      <clipPath id="make-me-a-hanzi-clip-16">
        <path d="M 525 236 Q 507 103 283 -13 Q 276 -17 280 -22 Q 307 -35 395 11 Q 474 47 554 162 Q 567 180 582 197 Q 591 203 588 212 Q 585 218 559 244 C 538 265 530 266 525 236 Z"></path>
      </clipPath>
      <path clip-path="url(#make-me-a-hanzi-clip-16)" d="M 533 228 L 551 208 L 530 167 L 476 98 L 403 36 L 326 -6 L 285 -19" fill="none" id="make-me-a-hanzi-animation-16" stroke-dasharray="515 1030" stroke-linecap="round"></path>
    
      <clipPath id="make-me-a-hanzi-clip-17">
        <path d="M 645 266 Q 645 263 647 258 Q 657 224 655 189 Q 648 66 658 32 Q 662 11 681 -7 Q 760 -67 911 -34 Q 912 -33 916 -33 Q 952 -23 986 1 Q 1007 19 991 46 Q 976 74 954 161 Q 953 177 945 182 Q 938 185 935 167 Q 911 71 894 42 Q 867 12 785 15 Q 754 16 728 26 Q 706 36 701 49 Q 680 91 706 233 Q 712 257 679 273 C 654 289 638 295 645 266 Z"></path>
      </clipPath>
      <path clip-path="url(#make-me-a-hanzi-clip-17)" d="M 651 263 L 679 240 L 671 114 L 679 41 L 694 16 L 732 -5 L 781 -15 L 859 -12 L 906 3 L 932 20 L 942 29 L 944 42 L 944 175" fill="none" id="make-me-a-hanzi-animation-17" stroke-dasharray="805 1610" stroke-linecap="round"></path>
    
  </g>
</svg>