<svg version="1.1" viewBox="0 0 1024 1024" xmlns="http://www.w3.org/2000/svg">
  <g stroke="lightgray" stroke-dasharray="1,1" stroke-width="1" transform="scale(4, 4)">
    <line x1="0" y1="0" x2="256" y2="256"></line>
    <line x1="256" y1="0" x2="0" y2="256"></line>
    <line x1="128" y1="0" x2="128" y2="256"></line>
    <line x1="0" y1="128" x2="256" y2="128"></line>
  </g>
  <g transform="scale(1, -1) translate(0, -900)">
    <style type="text/css">
      
        @keyframes keyframes0 {
          from {
            stroke: blue;
            stroke-dashoffset: 465;
            stroke-width: 128;
          }
          60% {
            animation-timing-function: step-end;
            stroke: blue;
            stroke-dashoffset: 0;
            stroke-width: 128;
          }
          to {
            stroke: black;
            stroke-width: 1024;
          }
        }
        #make-me-a-hanzi-animation-0 {
          animation: keyframes0 0.62841796875s both;
          animation-delay: 0s;
          animation-timing-function: linear;
        }
      
        @keyframes keyframes1 {
          from {
            stroke: blue;
            stroke-dashoffset: 593;
            stroke-width: 128;
          }
          66% {
            animation-timing-function: step-end;
            stroke: blue;
            stroke-dashoffset: 0;
            stroke-width: 128;
          }
          to {
            stroke: black;
            stroke-width: 1024;
          }
        }
        #make-me-a-hanzi-animation-1 {
          animation: keyframes1 0.7325846354166666s both;
          animation-delay: 0.62841796875s;
          animation-timing-function: linear;
        }
      
        @keyframes keyframes2 {
          from {
            stroke: blue;
            stroke-dashoffset: 459;
            stroke-width: 128;
          }
          60% {
            animation-timing-function: step-end;
            stroke: blue;
            stroke-dashoffset: 0;
            stroke-width: 128;
          }
          to {
            stroke: black;
            stroke-width: 1024;
          }
        }
        #make-me-a-hanzi-animation-2 {
          animation: keyframes2 0.62353515625s both;
          animation-delay: 1.3610026041666665s;
          animation-timing-function: linear;
        }
      
        @keyframes keyframes3 {
          from {
            stroke: blue;
            stroke-dashoffset: 758;
            stroke-width: 128;
          }
          71% {
            animation-timing-function: step-end;
            stroke: blue;
            stroke-dashoffset: 0;
            stroke-width: 128;
          }
          to {
            stroke: black;
            stroke-width: 1024;
          }
        }
        #make-me-a-hanzi-animation-3 {
          animation: keyframes3 0.8668619791666666s both;
          animation-delay: 1.9845377604166665s;
          animation-timing-function: linear;
        }
      
        @keyframes keyframes4 {
          from {
            stroke: blue;
            stroke-dashoffset: 524;
            stroke-width: 128;
          }
          63% {
            animation-timing-function: step-end;
            stroke: blue;
            stroke-dashoffset: 0;
            stroke-width: 128;
          }
          to {
            stroke: black;
            stroke-width: 1024;
          }
        }
        #make-me-a-hanzi-animation-4 {
          animation: keyframes4 0.6764322916666666s both;
          animation-delay: 2.851399739583333s;
          animation-timing-function: linear;
        }
      
        @keyframes keyframes5 {
          from {
            stroke: blue;
            stroke-dashoffset: 382;
            stroke-width: 128;
          }
          55% {
            animation-timing-function: step-end;
            stroke: blue;
            stroke-dashoffset: 0;
            stroke-width: 128;
          }
          to {
            stroke: black;
            stroke-width: 1024;
          }
        }
        #make-me-a-hanzi-animation-5 {
          animation: keyframes5 0.5608723958333334s both;
          animation-delay: 3.5278320312499996s;
          animation-timing-function: linear;
        }
      
        @keyframes keyframes6 {
          from {
            stroke: blue;
            stroke-dashoffset: 697;
            stroke-width: 128;
          }
          69% {
            animation-timing-function: step-end;
            stroke: blue;
            stroke-dashoffset: 0;
            stroke-width: 128;
          }
          to {
            stroke: black;
            stroke-width: 1024;
          }
        }
        #make-me-a-hanzi-animation-6 {
          animation: keyframes6 0.8172200520833334s both;
          animation-delay: 4.088704427083333s;
          animation-timing-function: linear;
        }
      
        @keyframes keyframes7 {
          from {
            stroke: blue;
            stroke-dashoffset: 416;
            stroke-width: 128;
          }
          58% {
            animation-timing-function: step-end;
            stroke: blue;
            stroke-dashoffset: 0;
            stroke-width: 128;
          }
          to {
            stroke: black;
            stroke-width: 1024;
          }
        }
        #make-me-a-hanzi-animation-7 {
          animation: keyframes7 0.5885416666666666s both;
          animation-delay: 4.905924479166666s;
          animation-timing-function: linear;
        }
      
        @keyframes keyframes8 {
          from {
            stroke: blue;
            stroke-dashoffset: 414;
            stroke-width: 128;
          }
          57% {
            animation-timing-function: step-end;
            stroke: blue;
            stroke-dashoffset: 0;
            stroke-width: 128;
          }
          to {
            stroke: black;
            stroke-width: 1024;
          }
        }
        #make-me-a-hanzi-animation-8 {
          animation: keyframes8 0.5869140625s both;
          animation-delay: 5.494466145833333s;
          animation-timing-function: linear;
        }
      
        @keyframes keyframes9 {
          from {
            stroke: blue;
            stroke-dashoffset: 481;
            stroke-width: 128;
          }
          61% {
            animation-timing-function: step-end;
            stroke: blue;
            stroke-dashoffset: 0;
            stroke-width: 128;
          }
          to {
            stroke: black;
            stroke-width: 1024;
          }
        }
        #make-me-a-hanzi-animation-9 {
          animation: keyframes9 0.6414388020833334s both;
          animation-delay: 6.081380208333333s;
          animation-timing-function: linear;
        }
      
        @keyframes keyframes10 {
          from {
            stroke: blue;
            stroke-dashoffset: 479;
            stroke-width: 128;
          }
          61% {
            animation-timing-function: step-end;
            stroke: blue;
            stroke-dashoffset: 0;
            stroke-width: 128;
          }
          to {
            stroke: black;
            stroke-width: 1024;
          }
        }
        #make-me-a-hanzi-animation-10 {
          animation: keyframes10 0.6398111979166666s both;
          animation-delay: 6.722819010416666s;
          animation-timing-function: linear;
        }
      
        @keyframes keyframes11 {
          from {
            stroke: blue;
            stroke-dashoffset: 332;
            stroke-width: 128;
          }
          52% {
            animation-timing-function: step-end;
            stroke: blue;
            stroke-dashoffset: 0;
            stroke-width: 128;
          }
          to {
            stroke: black;
            stroke-width: 1024;
          }
        }
        #make-me-a-hanzi-animation-11 {
          animation: keyframes11 0.5201822916666666s both;
          animation-delay: 7.362630208333333s;
          animation-timing-function: linear;
        }
      
        @keyframes keyframes12 {
          from {
            stroke: blue;
            stroke-dashoffset: 497;
            stroke-width: 128;
          }
          62% {
            animation-timing-function: step-end;
            stroke: blue;
            stroke-dashoffset: 0;
            stroke-width: 128;
          }
          to {
            stroke: black;
            stroke-width: 1024;
          }
        }
        #make-me-a-hanzi-animation-12 {
          animation: keyframes12 0.6544596354166666s both;
          animation-delay: 7.8828125s;
          animation-timing-function: linear;
        }
      
        @keyframes keyframes13 {
          from {
            stroke: blue;
            stroke-dashoffset: 445;
            stroke-width: 128;
          }
          59% {
            animation-timing-function: step-end;
            stroke: blue;
            stroke-dashoffset: 0;
            stroke-width: 128;
          }
          to {
            stroke: black;
            stroke-width: 1024;
          }
        }
        #make-me-a-hanzi-animation-13 {
          animation: keyframes13 0.6121419270833334s both;
          animation-delay: 8.537272135416666s;
          animation-timing-function: linear;
        }
      
        @keyframes keyframes14 {
          from {
            stroke: blue;
            stroke-dashoffset: 457;
            stroke-width: 128;
          }
          60% {
            animation-timing-function: step-end;
            stroke: blue;
            stroke-dashoffset: 0;
            stroke-width: 128;
          }
          to {
            stroke: black;
            stroke-width: 1024;
          }
        }
        #make-me-a-hanzi-animation-14 {
          animation: keyframes14 0.6219075520833334s both;
          animation-delay: 9.1494140625s;
          animation-timing-function: linear;
        }
      
        @keyframes keyframes15 {
          from {
            stroke: blue;
            stroke-dashoffset: 451;
            stroke-width: 128;
          }
          59% {
            animation-timing-function: step-end;
            stroke: blue;
            stroke-dashoffset: 0;
            stroke-width: 128;
          }
          to {
            stroke: black;
            stroke-width: 1024;
          }
        }
        #make-me-a-hanzi-animation-15 {
          animation: keyframes15 0.6170247395833334s both;
          animation-delay: 9.771321614583334s;
          animation-timing-function: linear;
        }
      
        @keyframes keyframes16 {
          from {
            stroke: blue;
            stroke-dashoffset: 610;
            stroke-width: 128;
          }
          67% {
            animation-timing-function: step-end;
            stroke: blue;
            stroke-dashoffset: 0;
            stroke-width: 128;
          }
          to {
            stroke: black;
            stroke-width: 1024;
          }
        }
        #make-me-a-hanzi-animation-16 {
          animation: keyframes16 0.7464192708333334s both;
          animation-delay: 10.388346354166668s;
          animation-timing-function: linear;
        }
      
        @keyframes keyframes17 {
          from {
            stroke: blue;
            stroke-dashoffset: 934;
            stroke-width: 128;
          }
          75% {
            animation-timing-function: step-end;
            stroke: blue;
            stroke-dashoffset: 0;
            stroke-width: 128;
          }
          to {
            stroke: black;
            stroke-width: 1024;
          }
        }
        #make-me-a-hanzi-animation-17 {
          animation: keyframes17 1.0100911458333333s both;
          animation-delay: 11.134765625000002s;
          animation-timing-function: linear;
        }
      
        @keyframes keyframes18 {
          from {
            stroke: blue;
            stroke-dashoffset: 810;
            stroke-width: 128;
          }
          73% {
            animation-timing-function: step-end;
            stroke: blue;
            stroke-dashoffset: 0;
            stroke-width: 128;
          }
          to {
            stroke: black;
            stroke-width: 1024;
          }
        }
        #make-me-a-hanzi-animation-18 {
          animation: keyframes18 0.9091796875s both;
          animation-delay: 12.144856770833336s;
          animation-timing-function: linear;
        }
      
    </style>
    
      <path d="M 132 518 Q 123 522 90 527 Q 80 530 76 525 Q 72 519 79 505 Q 107 456 126 371 Q 130 346 145 330 Q 161 311 166 325 Q 169 337 168 354 L 163 385 Q 145 466 141 492 C 137 516 137 516 132 518 Z" fill="lightgray"></path>
    
      <path d="M 354 425 Q 375 492 402 511 Q 415 527 403 541 Q 390 551 347 571 Q 332 577 267 551 L 224 538 Q 178 528 132 518 C 103 512 112 485 141 492 Q 169 499 224 511 L 267 520 Q 282 524 300 528 Q 318 532 326 525 Q 336 515 315 429 C 308 400 345 396 354 425 Z" fill="lightgray"></path>
    
      <path d="M 264 376 Q 307 386 367 395 Q 377 396 377 405 Q 377 412 354 425 C 340 433 340 433 315 429 Q 288 425 265 413 L 225 401 Q 191 392 163 385 C 134 378 138 351 168 354 Q 174 354 181 356 Q 199 362 225 367 L 264 376 Z" fill="lightgray"></path>
    
      <path d="M 260 243 Q 261 312 264 376 L 265 413 Q 266 468 267 520 L 267 551 Q 267 587 285 686 Q 288 696 269 710 Q 235 726 213 731 Q 197 734 190 725 Q 183 718 191 704 Q 219 664 220 635 Q 221 589 224 538 L 224 511 Q 225 459 225 401 L 225 367 Q 224 301 221 231 C 220 201 260 213 260 243 Z" fill="lightgray"></path>
    
      <path d="M 332 266 Q 295 256 260 243 L 221 231 Q 101 200 81 198 Q 69 197 67 188 Q 66 175 74 168 Q 96 155 125 137 Q 135 134 146 142 Q 192 181 343 246 C 371 258 361 274 332 266 Z" fill="lightgray"></path>
    
      <path d="M 343 246 Q 367 198 379 192 Q 386 191 394 197 Q 401 206 403 228 Q 404 258 335 312 Q 325 318 320 318 Q 316 317 314 308 Q 313 299 326 278 Q 329 274 332 266 L 343 246 Z" fill="lightgray"></path>
    
      <path d="M 697 718 Q 746 727 839 724 Q 852 723 856 731 Q 860 740 848 752 Q 805 786 718 761 Q 715 761 714 760 L 671 752 Q 622 745 570 735 L 527 729 Q 472 722 415 714 Q 391 710 408 698 Q 447 676 507 692 Q 520 696 537 698 L 573 705 Q 594 712 664 715 L 697 718 Z" fill="lightgray"></path>
    
      <path d="M 570 735 Q 569 756 567 772 Q 568 788 550 793 Q 516 808 498 801 Q 482 794 496 777 Q 517 756 527 729 L 537 698 Q 546 661 560 646 Q 572 637 575 647 Q 578 662 573 705 L 570 735 Z" fill="lightgray"></path>
    
      <path d="M 714 760 Q 715 761 716 763 Q 720 776 731 795 Q 741 805 733 814 Q 723 826 696 838 Q 684 845 671 838 Q 664 834 669 825 Q 676 810 671 752 L 664 715 Q 657 694 659 677 Q 660 667 672 675 Q 685 687 697 718 L 714 760 Z" fill="lightgray"></path>
    
      <path d="M 484 501 Q 484 502 551 590 Q 558 600 555 609 Q 551 619 528 622 Q 503 626 494 622 Q 487 621 487 609 Q 487 555 386 439 Q 371 424 393 430 Q 420 436 464 479 L 484 501 Z" fill="lightgray"></path>
    
      <path d="M 514 327 Q 514 330 514 332 Q 510 425 512 446 Q 516 467 490 495 Q 487 498 484 501 C 463 522 454 507 464 479 Q 483 430 466 333 Q 454 296 483 265 L 484 264 Q 497 254 504 272 Q 508 285 511 300 L 514 327 Z" fill="lightgray"></path>
    
      <path d="M 614 656 Q 660 607 678 605 Q 688 605 692 618 Q 693 628 685 643 Q 678 655 658 661 Q 630 674 617 675 Q 610 676 610 668 Q 609 662 614 656 Z" fill="lightgray"></path>
    
      <path d="M 674 553 Q 717 565 767 574 Q 798 583 803 587 Q 810 593 806 599 Q 802 608 779 613 Q 757 617 734 608 Q 698 595 659 584 Q 616 574 565 568 Q 538 564 558 551 Q 589 532 631 544 Q 632 545 634 544 L 674 553 Z" fill="lightgray"></path>
    
      <path d="M 685 475 Q 722 482 757 488 Q 776 491 769 502 Q 760 514 739 518 Q 720 519 687 511 L 639 497 Q 599 487 566 478 Q 553 475 569 463 Q 578 456 597 460 Q 619 464 640 467 L 685 475 Z" fill="lightgray"></path>
    
      <path d="M 681 400 Q 724 407 764 412 Q 783 415 777 426 Q 768 438 747 442 Q 723 448 683 434 L 640 423 Q 598 414 562 406 Q 549 403 565 391 Q 571 387 641 394 L 681 400 Z" fill="lightgray"></path>
    
      <path d="M 679 353 Q 680 378 681 400 L 683 434 Q 683 456 685 475 L 687 511 Q 687 541 679 549 Q 676 552 674 553 C 651 572 631 574 634 544 L 639 497 L 640 467 Q 640 449 640 423 L 641 394 Q 641 375 642 347 C 643 317 678 323 679 353 Z" fill="lightgray"></path>
    
      <path d="M 642 347 Q 579 338 514 327 C 484 322 482 307 511 300 Q 535 293 549 297 Q 669 333 855 332 L 857 332 Q 872 332 875 338 Q 879 348 866 357 Q 821 390 764 370 Q 727 364 679 353 L 642 347 Z" fill="lightgray"></path>
    
      <path d="M 672 82 Q 703 119 727 171 Q 739 205 760 219 Q 778 232 762 249 Q 743 268 712 285 Q 693 295 669 286 Q 618 261 548 251 Q 520 250 508 243 Q 499 236 518 226 Q 543 211 584 223 Q 623 230 660 240 Q 675 246 676 228 Q 676 173 627 110 L 598 79 Q 523 27 371 -7 Q 355 -8 363 -18 Q 370 -25 399 -26 Q 496 -19 552 0 Q 598 16 634 45 L 672 82 Z" fill="lightgray"></path>
    
      <path d="M 634 45 Q 751 -57 790 -54 Q 872 -45 936 -28 Q 970 -19 966 -11 Q 965 -7 930 2 Q 753 30 672 82 L 627 110 Q 591 135 552 167 Q 513 200 480 196 Q 464 195 461 189 Q 460 182 476 174 Q 515 156 598 79 L 634 45 Z" fill="lightgray"></path>
    
    
      <clipPath id="make-me-a-hanzi-clip-0">
        <path d="M 132 518 Q 123 522 90 527 Q 80 530 76 525 Q 72 519 79 505 Q 107 456 126 371 Q 130 346 145 330 Q 161 311 166 325 Q 169 337 168 354 L 163 385 Q 145 466 141 492 C 137 516 137 516 132 518 Z"></path>
      </clipPath>
      <path clip-path="url(#make-me-a-hanzi-clip-0)" d="M 84 520 L 112 498 L 156 330" fill="none" id="make-me-a-hanzi-animation-0" stroke-dasharray="337 674" stroke-linecap="round"></path>
    
      <clipPath id="make-me-a-hanzi-clip-1">
        <path d="M 354 425 Q 375 492 402 511 Q 415 527 403 541 Q 390 551 347 571 Q 332 577 267 551 L 224 538 Q 178 528 132 518 C 103 512 112 485 141 492 Q 169 499 224 511 L 267 520 Q 282 524 300 528 Q 318 532 326 525 Q 336 515 315 429 C 308 400 345 396 354 425 Z"></path>
      </clipPath>
      <path clip-path="url(#make-me-a-hanzi-clip-1)" d="M 141 514 L 150 508 L 213 520 L 301 547 L 339 547 L 363 521 L 340 447 L 323 439" fill="none" id="make-me-a-hanzi-animation-1" stroke-dasharray="465 930" stroke-linecap="round"></path>
    
      <clipPath id="make-me-a-hanzi-clip-2">
        <path d="M 264 376 Q 307 386 367 395 Q 377 396 377 405 Q 377 412 354 425 C 340 433 340 433 315 429 Q 288 425 265 413 L 225 401 Q 191 392 163 385 C 134 378 138 351 168 354 Q 174 354 181 356 Q 199 362 225 367 L 264 376 Z"></path>
      </clipPath>
      <path clip-path="url(#make-me-a-hanzi-clip-2)" d="M 173 363 L 182 373 L 312 408 L 367 405" fill="none" id="make-me-a-hanzi-animation-2" stroke-dasharray="331 662" stroke-linecap="round"></path>
    
      <clipPath id="make-me-a-hanzi-clip-3">
        <path d="M 260 243 Q 261 312 264 376 L 265 413 Q 266 468 267 520 L 267 551 Q 267 587 285 686 Q 288 696 269 710 Q 235 726 213 731 Q 197 734 190 725 Q 183 718 191 704 Q 219 664 220 635 Q 221 589 224 538 L 224 511 Q 225 459 225 401 L 225 367 Q 224 301 221 231 C 220 201 260 213 260 243 Z"></path>
      </clipPath>
      <path clip-path="url(#make-me-a-hanzi-clip-3)" d="M 203 715 L 247 680 L 249 660 L 242 266 L 226 239" fill="none" id="make-me-a-hanzi-animation-3" stroke-dasharray="630 1260" stroke-linecap="round"></path>
    
      <clipPath id="make-me-a-hanzi-clip-4">
        <path d="M 332 266 Q 295 256 260 243 L 221 231 Q 101 200 81 198 Q 69 197 67 188 Q 66 175 74 168 Q 96 155 125 137 Q 135 134 146 142 Q 192 181 343 246 C 371 258 361 274 332 266 Z"></path>
      </clipPath>
      <path clip-path="url(#make-me-a-hanzi-clip-4)" d="M 80 185 L 131 174 L 325 250 L 327 257" fill="none" id="make-me-a-hanzi-animation-4" stroke-dasharray="396 792" stroke-linecap="round"></path>
    
      <clipPath id="make-me-a-hanzi-clip-5">
        <path d="M 343 246 Q 367 198 379 192 Q 386 191 394 197 Q 401 206 403 228 Q 404 258 335 312 Q 325 318 320 318 Q 316 317 314 308 Q 313 299 326 278 Q 329 274 332 266 L 343 246 Z"></path>
      </clipPath>
      <path clip-path="url(#make-me-a-hanzi-clip-5)" d="M 321 310 L 374 240 L 384 203" fill="none" id="make-me-a-hanzi-animation-5" stroke-dasharray="254 508" stroke-linecap="round"></path>
    
      <clipPath id="make-me-a-hanzi-clip-6">
        <path d="M 697 718 Q 746 727 839 724 Q 852 723 856 731 Q 860 740 848 752 Q 805 786 718 761 Q 715 761 714 760 L 671 752 Q 622 745 570 735 L 527 729 Q 472 722 415 714 Q 391 710 408 698 Q 447 676 507 692 Q 520 696 537 698 L 573 705 Q 594 712 664 715 L 697 718 Z"></path>
      </clipPath>
      <path clip-path="url(#make-me-a-hanzi-clip-6)" d="M 410 707 L 429 702 L 480 704 L 780 749 L 846 736" fill="none" id="make-me-a-hanzi-animation-6" stroke-dasharray="569 1138" stroke-linecap="round"></path>
    
      <clipPath id="make-me-a-hanzi-clip-7">
        <path d="M 570 735 Q 569 756 567 772 Q 568 788 550 793 Q 516 808 498 801 Q 482 794 496 777 Q 517 756 527 729 L 537 698 Q 546 661 560 646 Q 572 637 575 647 Q 578 662 573 705 L 570 735 Z"></path>
      </clipPath>
      <path clip-path="url(#make-me-a-hanzi-clip-7)" d="M 502 789 L 539 767 L 567 653" fill="none" id="make-me-a-hanzi-animation-7" stroke-dasharray="288 576" stroke-linecap="round"></path>
    
      <clipPath id="make-me-a-hanzi-clip-8">
        <path d="M 714 760 Q 715 761 716 763 Q 720 776 731 795 Q 741 805 733 814 Q 723 826 696 838 Q 684 845 671 838 Q 664 834 669 825 Q 676 810 671 752 L 664 715 Q 657 694 659 677 Q 660 667 672 675 Q 685 687 697 718 L 714 760 Z"></path>
      </clipPath>
      <path clip-path="url(#make-me-a-hanzi-clip-8)" d="M 680 830 L 701 800 L 667 683" fill="none" id="make-me-a-hanzi-animation-8" stroke-dasharray="286 572" stroke-linecap="round"></path>
    
      <clipPath id="make-me-a-hanzi-clip-9">
        <path d="M 484 501 Q 484 502 551 590 Q 558 600 555 609 Q 551 619 528 622 Q 503 626 494 622 Q 487 621 487 609 Q 487 555 386 439 Q 371 424 393 430 Q 420 436 464 479 L 484 501 Z"></path>
      </clipPath>
      <path clip-path="url(#make-me-a-hanzi-clip-9)" d="M 542 604 L 515 590 L 456 496 L 395 439" fill="none" id="make-me-a-hanzi-animation-9" stroke-dasharray="353 706" stroke-linecap="round"></path>
    
      <clipPath id="make-me-a-hanzi-clip-10">
        <path d="M 514 327 Q 514 330 514 332 Q 510 425 512 446 Q 516 467 490 495 Q 487 498 484 501 C 463 522 454 507 464 479 Q 483 430 466 333 Q 454 296 483 265 L 484 264 Q 497 254 504 272 Q 508 285 511 300 L 514 327 Z"></path>
      </clipPath>
      <path clip-path="url(#make-me-a-hanzi-clip-10)" d="M 482 493 L 493 436 L 487 303 L 492 272" fill="none" id="make-me-a-hanzi-animation-10" stroke-dasharray="351 702" stroke-linecap="round"></path>
    
      <clipPath id="make-me-a-hanzi-clip-11">
        <path d="M 614 656 Q 660 607 678 605 Q 688 605 692 618 Q 693 628 685 643 Q 678 655 658 661 Q 630 674 617 675 Q 610 676 610 668 Q 609 662 614 656 Z"></path>
      </clipPath>
      <path clip-path="url(#make-me-a-hanzi-clip-11)" d="M 620 665 L 667 634 L 678 618" fill="none" id="make-me-a-hanzi-animation-11" stroke-dasharray="204 408" stroke-linecap="round"></path>
    
      <clipPath id="make-me-a-hanzi-clip-12">
        <path d="M 674 553 Q 717 565 767 574 Q 798 583 803 587 Q 810 593 806 599 Q 802 608 779 613 Q 757 617 734 608 Q 698 595 659 584 Q 616 574 565 568 Q 538 564 558 551 Q 589 532 631 544 Q 632 545 634 544 L 674 553 Z"></path>
      </clipPath>
      <path clip-path="url(#make-me-a-hanzi-clip-12)" d="M 559 560 L 606 556 L 747 592 L 795 595" fill="none" id="make-me-a-hanzi-animation-12" stroke-dasharray="369 738" stroke-linecap="round"></path>
    
      <clipPath id="make-me-a-hanzi-clip-13">
        <path d="M 685 475 Q 722 482 757 488 Q 776 491 769 502 Q 760 514 739 518 Q 720 519 687 511 L 639 497 Q 599 487 566 478 Q 553 475 569 463 Q 578 456 597 460 Q 619 464 640 467 L 685 475 Z"></path>
      </clipPath>
      <path clip-path="url(#make-me-a-hanzi-clip-13)" d="M 575 472 L 712 499 L 741 502 L 761 497" fill="none" id="make-me-a-hanzi-animation-13" stroke-dasharray="317 634" stroke-linecap="round"></path>
    
      <clipPath id="make-me-a-hanzi-clip-14">
        <path d="M 681 400 Q 724 407 764 412 Q 783 415 777 426 Q 768 438 747 442 Q 723 448 683 434 L 640 423 Q 598 414 562 406 Q 549 403 565 391 Q 571 387 641 394 L 681 400 Z"></path>
      </clipPath>
      <path clip-path="url(#make-me-a-hanzi-clip-14)" d="M 570 400 L 627 403 L 721 425 L 768 422" fill="none" id="make-me-a-hanzi-animation-14" stroke-dasharray="329 658" stroke-linecap="round"></path>
    
      <clipPath id="make-me-a-hanzi-clip-15">
        <path d="M 679 353 Q 680 378 681 400 L 683 434 Q 683 456 685 475 L 687 511 Q 687 541 679 549 Q 676 552 674 553 C 651 572 631 574 634 544 L 639 497 L 640 467 Q 640 449 640 423 L 641 394 Q 641 375 642 347 C 643 317 678 323 679 353 Z"></path>
      </clipPath>
      <path clip-path="url(#make-me-a-hanzi-clip-15)" d="M 643 537 L 661 523 L 663 494 L 660 369 L 647 356" fill="none" id="make-me-a-hanzi-animation-15" stroke-dasharray="323 646" stroke-linecap="round"></path>
    
      <clipPath id="make-me-a-hanzi-clip-16">
        <path d="M 642 347 Q 579 338 514 327 C 484 322 482 307 511 300 Q 535 293 549 297 Q 669 333 855 332 L 857 332 Q 872 332 875 338 Q 879 348 866 357 Q 821 390 764 370 Q 727 364 679 353 L 642 347 Z"></path>
      </clipPath>
      <path clip-path="url(#make-me-a-hanzi-clip-16)" d="M 520 306 L 529 313 L 609 328 L 804 355 L 867 343" fill="none" id="make-me-a-hanzi-animation-16" stroke-dasharray="482 964" stroke-linecap="round"></path>
    
      <clipPath id="make-me-a-hanzi-clip-17">
        <path d="M 672 82 Q 703 119 727 171 Q 739 205 760 219 Q 778 232 762 249 Q 743 268 712 285 Q 693 295 669 286 Q 618 261 548 251 Q 520 250 508 243 Q 499 236 518 226 Q 543 211 584 223 Q 623 230 660 240 Q 675 246 676 228 Q 676 173 627 110 L 598 79 Q 523 27 371 -7 Q 355 -8 363 -18 Q 370 -25 399 -26 Q 496 -19 552 0 Q 598 16 634 45 L 672 82 Z"></path>
      </clipPath>
      <path clip-path="url(#make-me-a-hanzi-clip-17)" d="M 516 237 L 572 237 L 683 264 L 703 252 L 716 230 L 692 162 L 664 114 L 602 51 L 516 12 L 426 -10 L 370 -14" fill="none" id="make-me-a-hanzi-animation-17" stroke-dasharray="806 1612" stroke-linecap="round"></path>
    
      <clipPath id="make-me-a-hanzi-clip-18">
        <path d="M 634 45 Q 751 -57 790 -54 Q 872 -45 936 -28 Q 970 -19 966 -11 Q 965 -7 930 2 Q 753 30 672 82 L 627 110 Q 591 135 552 167 Q 513 200 480 196 Q 464 195 461 189 Q 460 182 476 174 Q 515 156 598 79 L 634 45 Z"></path>
      </clipPath>
      <path clip-path="url(#make-me-a-hanzi-clip-18)" d="M 467 187 L 520 168 L 662 55 L 769 -5 L 788 -12 L 840 -15 L 961 -13" fill="none" id="make-me-a-hanzi-animation-18" stroke-dasharray="682 1364" stroke-linecap="round"></path>
    
  </g>
</svg>