<svg version="1.1" viewBox="0 0 1024 1024" xmlns="http://www.w3.org/2000/svg">
  <g stroke="lightgray" stroke-dasharray="1,1" stroke-width="1" transform="scale(4, 4)">
    <line x1="0" y1="0" x2="256" y2="256"></line>
    <line x1="256" y1="0" x2="0" y2="256"></line>
    <line x1="128" y1="0" x2="128" y2="256"></line>
    <line x1="0" y1="128" x2="256" y2="128"></line>
  </g>
  <g transform="scale(1, -1) translate(0, -900)">
    <style type="text/css">
      
        @keyframes keyframes0 {
          from {
            stroke: blue;
            stroke-dashoffset: 402;
            stroke-width: 128;
          }
          57% {
            animation-timing-function: step-end;
            stroke: blue;
            stroke-dashoffset: 0;
            stroke-width: 128;
          }
          to {
            stroke: black;
            stroke-width: 1024;
          }
        }
        #make-me-a-hanzi-animation-0 {
          animation: keyframes0 0.5771484375s both;
          animation-delay: 0s;
          animation-timing-function: linear;
        }
      
        @keyframes keyframes1 {
          from {
            stroke: blue;
            stroke-dashoffset: 636;
            stroke-width: 128;
          }
          67% {
            animation-timing-function: step-end;
            stroke: blue;
            stroke-dashoffset: 0;
            stroke-width: 128;
          }
          to {
            stroke: black;
            stroke-width: 1024;
          }
        }
        #make-me-a-hanzi-animation-1 {
          animation: keyframes1 0.767578125s both;
          animation-delay: 0.5771484375s;
          animation-timing-function: linear;
        }
      
        @keyframes keyframes2 {
          from {
            stroke: blue;
            stroke-dashoffset: 429;
            stroke-width: 128;
          }
          58% {
            animation-timing-function: step-end;
            stroke: blue;
            stroke-dashoffset: 0;
            stroke-width: 128;
          }
          to {
            stroke: black;
            stroke-width: 1024;
          }
        }
        #make-me-a-hanzi-animation-2 {
          animation: keyframes2 0.59912109375s both;
          animation-delay: 1.3447265625s;
          animation-timing-function: linear;
        }
      
        @keyframes keyframes3 {
          from {
            stroke: blue;
            stroke-dashoffset: 436;
            stroke-width: 128;
          }
          59% {
            animation-timing-function: step-end;
            stroke: blue;
            stroke-dashoffset: 0;
            stroke-width: 128;
          }
          to {
            stroke: black;
            stroke-width: 1024;
          }
        }
        #make-me-a-hanzi-animation-3 {
          animation: keyframes3 0.6048177083333334s both;
          animation-delay: 1.94384765625s;
          animation-timing-function: linear;
        }
      
        @keyframes keyframes4 {
          from {
            stroke: blue;
            stroke-dashoffset: 462;
            stroke-width: 128;
          }
          60% {
            animation-timing-function: step-end;
            stroke: blue;
            stroke-dashoffset: 0;
            stroke-width: 128;
          }
          to {
            stroke: black;
            stroke-width: 1024;
          }
        }
        #make-me-a-hanzi-animation-4 {
          animation: keyframes4 0.6259765625s both;
          animation-delay: 2.5486653645833335s;
          animation-timing-function: linear;
        }
      
        @keyframes keyframes5 {
          from {
            stroke: blue;
            stroke-dashoffset: 554;
            stroke-width: 128;
          }
          64% {
            animation-timing-function: step-end;
            stroke: blue;
            stroke-dashoffset: 0;
            stroke-width: 128;
          }
          to {
            stroke: black;
            stroke-width: 1024;
          }
        }
        #make-me-a-hanzi-animation-5 {
          animation: keyframes5 0.7008463541666666s both;
          animation-delay: 3.1746419270833335s;
          animation-timing-function: linear;
        }
      
        @keyframes keyframes6 {
          from {
            stroke: blue;
            stroke-dashoffset: 408;
            stroke-width: 128;
          }
          57% {
            animation-timing-function: step-end;
            stroke: blue;
            stroke-dashoffset: 0;
            stroke-width: 128;
          }
          to {
            stroke: black;
            stroke-width: 1024;
          }
        }
        #make-me-a-hanzi-animation-6 {
          animation: keyframes6 0.58203125s both;
          animation-delay: 3.87548828125s;
          animation-timing-function: linear;
        }
      
        @keyframes keyframes7 {
          from {
            stroke: blue;
            stroke-dashoffset: 601;
            stroke-width: 128;
          }
          66% {
            animation-timing-function: step-end;
            stroke: blue;
            stroke-dashoffset: 0;
            stroke-width: 128;
          }
          to {
            stroke: black;
            stroke-width: 1024;
          }
        }
        #make-me-a-hanzi-animation-7 {
          animation: keyframes7 0.7390950520833334s both;
          animation-delay: 4.45751953125s;
          animation-timing-function: linear;
        }
      
        @keyframes keyframes8 {
          from {
            stroke: blue;
            stroke-dashoffset: 775;
            stroke-width: 128;
          }
          72% {
            animation-timing-function: step-end;
            stroke: blue;
            stroke-dashoffset: 0;
            stroke-width: 128;
          }
          to {
            stroke: black;
            stroke-width: 1024;
          }
        }
        #make-me-a-hanzi-animation-8 {
          animation: keyframes8 0.8806966145833334s both;
          animation-delay: 5.196614583333333s;
          animation-timing-function: linear;
        }
      
        @keyframes keyframes9 {
          from {
            stroke: blue;
            stroke-dashoffset: 618;
            stroke-width: 128;
          }
          67% {
            animation-timing-function: step-end;
            stroke: blue;
            stroke-dashoffset: 0;
            stroke-width: 128;
          }
          to {
            stroke: black;
            stroke-width: 1024;
          }
        }
        #make-me-a-hanzi-animation-9 {
          animation: keyframes9 0.7529296875s both;
          animation-delay: 6.077311197916666s;
          animation-timing-function: linear;
        }
      
        @keyframes keyframes10 {
          from {
            stroke: blue;
            stroke-dashoffset: 505;
            stroke-width: 128;
          }
          62% {
            animation-timing-function: step-end;
            stroke: blue;
            stroke-dashoffset: 0;
            stroke-width: 128;
          }
          to {
            stroke: black;
            stroke-width: 1024;
          }
        }
        #make-me-a-hanzi-animation-10 {
          animation: keyframes10 0.6609700520833334s both;
          animation-delay: 6.830240885416666s;
          animation-timing-function: linear;
        }
      
        @keyframes keyframes11 {
          from {
            stroke: blue;
            stroke-dashoffset: 687;
            stroke-width: 128;
          }
          69% {
            animation-timing-function: step-end;
            stroke: blue;
            stroke-dashoffset: 0;
            stroke-width: 128;
          }
          to {
            stroke: black;
            stroke-width: 1024;
          }
        }
        #make-me-a-hanzi-animation-11 {
          animation: keyframes11 0.80908203125s both;
          animation-delay: 7.491210937499999s;
          animation-timing-function: linear;
        }
      
        @keyframes keyframes12 {
          from {
            stroke: blue;
            stroke-dashoffset: 524;
            stroke-width: 128;
          }
          63% {
            animation-timing-function: step-end;
            stroke: blue;
            stroke-dashoffset: 0;
            stroke-width: 128;
          }
          to {
            stroke: black;
            stroke-width: 1024;
          }
        }
        #make-me-a-hanzi-animation-12 {
          animation: keyframes12 0.6764322916666666s both;
          animation-delay: 8.30029296875s;
          animation-timing-function: linear;
        }
      
    </style>
    
      <path d="M 338 774 Q 365 749 393 717 Q 406 704 423 703 Q 435 703 441 717 Q 447 732 439 764 Q 430 797 335 825 Q 319 829 312 827 Q 306 823 307 810 Q 311 798 338 774 Z" fill="lightgray"></path>
    
      <path d="M 86 584 Q 73 583 69 575 Q 66 563 81 552 Q 123 524 165 536 Q 294 579 448 598 Q 464 599 465 608 Q 466 621 448 631 Q 420 644 397 638 Q 187 593 86 584 Z" fill="lightgray"></path>
    
      <path d="M 225 479 Q 192 470 218 457 Q 257 438 307 456 Q 341 465 378 475 Q 394 479 397 482 Q 404 489 400 498 Q 393 508 365 512 Q 350 513 276 489 Q 252 483 225 479 Z" fill="lightgray"></path>
    
      <path d="M 206 371 Q 173 364 198 349 Q 237 331 288 345 Q 373 366 381 370 Q 388 377 383 385 Q 376 395 349 401 Q 328 404 258 380 Q 234 376 206 371 Z" fill="lightgray"></path>
    
      <path d="M 189 255 Q 179 259 149 264 Q 137 265 135 261 Q 129 255 138 240 Q 165 191 185 107 Q 189 82 204 66 Q 222 47 226 61 Q 230 74 228 98 L 222 129 Q 206 205 202 230 C 198 252 198 252 189 255 Z" fill="lightgray"></path>
    
      <path d="M 365 152 Q 386 213 407 231 Q 429 253 409 268 Q 391 280 367 297 Q 349 307 305 284 Q 253 266 189 255 C 159 250 173 224 202 230 Q 253 240 305 252 Q 332 258 337 247 Q 343 241 335 214 Q 328 187 317 155 C 307 127 355 124 365 152 Z" fill="lightgray"></path>
    
      <path d="M 228 98 Q 234 105 375 125 Q 384 126 385 134 Q 385 140 365 152 C 346 164 346 164 317 155 Q 265 139 222 129 C 193 122 201 85 228 98 Z" fill="lightgray"></path>
    
      <path d="M 650 619 Q 735 667 787 684 Q 806 688 808 696 Q 811 709 797 719 Q 772 734 721 748 Q 703 754 689 751 Q 682 745 682 734 Q 683 689 488 569 Q 484 559 490 556 Q 503 556 596 596 Q 600 597 607 600 L 650 619 Z" fill="lightgray"></path>
    
      <path d="M 673 425 Q 757 438 891 443 Q 948 447 953 454 Q 957 466 941 478 Q 884 517 825 497 Q 765 482 678 464 L 623 454 Q 533 439 435 422 Q 416 419 431 403 Q 444 390 462 386 Q 483 382 498 387 Q 555 405 621 416 L 673 425 Z" fill="lightgray"></path>
    
      <path d="M 652 272 Q 662 351 673 425 L 678 464 Q 678 480 702 573 Q 706 583 688 600 Q 669 613 650 619 C 622 629 592 626 607 600 Q 626 569 625 548 Q 625 503 623 454 L 621 416 Q 617 343 609 263 C 606 233 648 242 652 272 Z" fill="lightgray"></path>
    
      <path d="M 533 251 Q 523 258 483 265 Q 470 269 467 263 Q 460 257 469 240 Q 497 177 515 75 Q 518 45 535 24 Q 554 2 559 17 Q 563 32 563 55 L 559 94 Q 544 188 541 220 C 538 249 538 249 533 251 Z" fill="lightgray"></path>
    
      <path d="M 807 117 Q 834 201 867 224 Q 885 243 869 263 Q 796 323 734 296 Q 691 281 652 272 L 609 263 Q 570 257 533 251 C 503 246 512 214 541 220 L 733 256 Q 757 260 766 251 Q 776 241 773 221 Q 764 169 752 125 C 744 96 797 89 807 117 Z" fill="lightgray"></path>
    
      <path d="M 563 55 Q 572 55 581 56 Q 657 71 821 78 Q 833 79 835 89 Q 835 98 807 117 L 752 125 Q 751 126 749 125 Q 643 103 559 94 C 529 91 533 54 563 55 Z" fill="lightgray"></path>
    
    
      <clipPath id="make-me-a-hanzi-clip-0">
        <path d="M 338 774 Q 365 749 393 717 Q 406 704 423 703 Q 435 703 441 717 Q 447 732 439 764 Q 430 797 335 825 Q 319 829 312 827 Q 306 823 307 810 Q 311 798 338 774 Z"></path>
      </clipPath>
      <path clip-path="url(#make-me-a-hanzi-clip-0)" d="M 317 819 L 396 764 L 422 722" fill="none" id="make-me-a-hanzi-animation-0" stroke-dasharray="274 548" stroke-linecap="round"></path>
    
      <clipPath id="make-me-a-hanzi-clip-1">
        <path d="M 86 584 Q 73 583 69 575 Q 66 563 81 552 Q 123 524 165 536 Q 294 579 448 598 Q 464 599 465 608 Q 466 621 448 631 Q 420 644 397 638 Q 187 593 86 584 Z"></path>
      </clipPath>
      <path clip-path="url(#make-me-a-hanzi-clip-1)" d="M 80 570 L 111 562 L 152 563 L 351 607 L 414 617 L 453 611" fill="none" id="make-me-a-hanzi-animation-1" stroke-dasharray="508 1016" stroke-linecap="round"></path>
    
      <clipPath id="make-me-a-hanzi-clip-2">
        <path d="M 225 479 Q 192 470 218 457 Q 257 438 307 456 Q 341 465 378 475 Q 394 479 397 482 Q 404 489 400 498 Q 393 508 365 512 Q 350 513 276 489 Q 252 483 225 479 Z"></path>
      </clipPath>
      <path clip-path="url(#make-me-a-hanzi-clip-2)" d="M 219 469 L 266 466 L 347 489 L 389 492" fill="none" id="make-me-a-hanzi-animation-2" stroke-dasharray="301 602" stroke-linecap="round"></path>
    
      <clipPath id="make-me-a-hanzi-clip-3">
        <path d="M 206 371 Q 173 364 198 349 Q 237 331 288 345 Q 373 366 381 370 Q 388 377 383 385 Q 376 395 349 401 Q 328 404 258 380 Q 234 376 206 371 Z"></path>
      </clipPath>
      <path clip-path="url(#make-me-a-hanzi-clip-3)" d="M 199 361 L 261 359 L 337 380 L 376 378" fill="none" id="make-me-a-hanzi-animation-3" stroke-dasharray="308 616" stroke-linecap="round"></path>
    
      <clipPath id="make-me-a-hanzi-clip-4">
        <path d="M 189 255 Q 179 259 149 264 Q 137 265 135 261 Q 129 255 138 240 Q 165 191 185 107 Q 189 82 204 66 Q 222 47 226 61 Q 230 74 228 98 L 222 129 Q 206 205 202 230 C 198 252 198 252 189 255 Z"></path>
      </clipPath>
      <path clip-path="url(#make-me-a-hanzi-clip-4)" d="M 144 254 L 171 233 L 216 67" fill="none" id="make-me-a-hanzi-animation-4" stroke-dasharray="334 668" stroke-linecap="round"></path>
    
      <clipPath id="make-me-a-hanzi-clip-5">
        <path d="M 365 152 Q 386 213 407 231 Q 429 253 409 268 Q 391 280 367 297 Q 349 307 305 284 Q 253 266 189 255 C 159 250 173 224 202 230 Q 253 240 305 252 Q 332 258 337 247 Q 343 241 335 214 Q 328 187 317 155 C 307 127 355 124 365 152 Z"></path>
      </clipPath>
      <path clip-path="url(#make-me-a-hanzi-clip-5)" d="M 198 252 L 209 245 L 322 274 L 352 272 L 374 249 L 348 176 L 323 162" fill="none" id="make-me-a-hanzi-animation-5" stroke-dasharray="426 852" stroke-linecap="round"></path>
    
      <clipPath id="make-me-a-hanzi-clip-6">
        <path d="M 228 98 Q 234 105 375 125 Q 384 126 385 134 Q 385 140 365 152 C 346 164 346 164 317 155 Q 265 139 222 129 C 193 122 201 85 228 98 Z"></path>
      </clipPath>
      <path clip-path="url(#make-me-a-hanzi-clip-6)" d="M 231 108 L 239 118 L 322 137 L 376 134" fill="none" id="make-me-a-hanzi-animation-6" stroke-dasharray="280 560" stroke-linecap="round"></path>
    
      <clipPath id="make-me-a-hanzi-clip-7">
        <path d="M 650 619 Q 735 667 787 684 Q 806 688 808 696 Q 811 709 797 719 Q 772 734 721 748 Q 703 754 689 751 Q 682 745 682 734 Q 683 689 488 569 Q 484 559 490 556 Q 503 556 596 596 Q 600 597 607 600 L 650 619 Z"></path>
      </clipPath>
      <path clip-path="url(#make-me-a-hanzi-clip-7)" d="M 795 701 L 719 704 L 677 667 L 620 629 L 491 563" fill="none" id="make-me-a-hanzi-animation-7" stroke-dasharray="473 946" stroke-linecap="round"></path>
    
      <clipPath id="make-me-a-hanzi-clip-8">
        <path d="M 673 425 Q 757 438 891 443 Q 948 447 953 454 Q 957 466 941 478 Q 884 517 825 497 Q 765 482 678 464 L 623 454 Q 533 439 435 422 Q 416 419 431 403 Q 444 390 462 386 Q 483 382 498 387 Q 555 405 621 416 L 673 425 Z"></path>
      </clipPath>
      <path clip-path="url(#make-me-a-hanzi-clip-8)" d="M 434 412 L 488 408 L 603 433 L 840 471 L 896 471 L 946 459" fill="none" id="make-me-a-hanzi-animation-8" stroke-dasharray="647 1294" stroke-linecap="round"></path>
    
      <clipPath id="make-me-a-hanzi-clip-9">
        <path d="M 652 272 Q 662 351 673 425 L 678 464 Q 678 480 702 573 Q 706 583 688 600 Q 669 613 650 619 C 622 629 592 626 607 600 Q 626 569 625 548 Q 625 503 623 454 L 621 416 Q 617 343 609 263 C 606 233 648 242 652 272 Z"></path>
      </clipPath>
      <path clip-path="url(#make-me-a-hanzi-clip-9)" d="M 617 596 L 651 584 L 662 570 L 633 290 L 615 270" fill="none" id="make-me-a-hanzi-animation-9" stroke-dasharray="490 980" stroke-linecap="round"></path>
    
      <clipPath id="make-me-a-hanzi-clip-10">
        <path d="M 533 251 Q 523 258 483 265 Q 470 269 467 263 Q 460 257 469 240 Q 497 177 515 75 Q 518 45 535 24 Q 554 2 559 17 Q 563 32 563 55 L 559 94 Q 544 188 541 220 C 538 249 538 249 533 251 Z"></path>
      </clipPath>
      <path clip-path="url(#make-me-a-hanzi-clip-10)" d="M 476 255 L 507 228 L 512 212 L 548 24" fill="none" id="make-me-a-hanzi-animation-10" stroke-dasharray="377 754" stroke-linecap="round"></path>
    
      <clipPath id="make-me-a-hanzi-clip-11">
        <path d="M 807 117 Q 834 201 867 224 Q 885 243 869 263 Q 796 323 734 296 Q 691 281 652 272 L 609 263 Q 570 257 533 251 C 503 246 512 214 541 220 L 733 256 Q 757 260 766 251 Q 776 241 773 221 Q 764 169 752 125 C 744 96 797 89 807 117 Z"></path>
      </clipPath>
      <path clip-path="url(#make-me-a-hanzi-clip-11)" d="M 541 248 L 552 238 L 560 239 L 748 279 L 770 279 L 791 271 L 819 243 L 791 156 L 760 130" fill="none" id="make-me-a-hanzi-animation-11" stroke-dasharray="559 1118" stroke-linecap="round"></path>
    
      <clipPath id="make-me-a-hanzi-clip-12">
        <path d="M 563 55 Q 572 55 581 56 Q 657 71 821 78 Q 833 79 835 89 Q 835 98 807 117 L 752 125 Q 751 126 749 125 Q 643 103 559 94 C 529 91 533 54 563 55 Z"></path>
      </clipPath>
      <path clip-path="url(#make-me-a-hanzi-clip-12)" d="M 567 62 L 580 76 L 746 100 L 797 98 L 826 89" fill="none" id="make-me-a-hanzi-animation-12" stroke-dasharray="396 792" stroke-linecap="round"></path>
    
  </g>
</svg>