<svg version="1.1" viewBox="0 0 1024 1024" xmlns="http://www.w3.org/2000/svg">
  <g stroke="lightgray" stroke-dasharray="1,1" stroke-width="1" transform="scale(4, 4)">
    <line x1="0" y1="0" x2="256" y2="256"></line>
    <line x1="256" y1="0" x2="0" y2="256"></line>
    <line x1="128" y1="0" x2="128" y2="256"></line>
    <line x1="0" y1="128" x2="256" y2="128"></line>
  </g>
  <g transform="scale(1, -1) translate(0, -900)">
    <style type="text/css">
      
        @keyframes keyframes0 {
          from {
            stroke: blue;
            stroke-dashoffset: 404;
            stroke-width: 128;
          }
          57% {
            animation-timing-function: step-end;
            stroke: blue;
            stroke-dashoffset: 0;
            stroke-width: 128;
          }
          to {
            stroke: black;
            stroke-width: 1024;
          }
        }
        #make-me-a-hanzi-animation-0 {
          animation: keyframes0 0.5787760416666666s both;
          animation-delay: 0s;
          animation-timing-function: linear;
        }
      
        @keyframes keyframes1 {
          from {
            stroke: blue;
            stroke-dashoffset: 613;
            stroke-width: 128;
          }
          67% {
            animation-timing-function: step-end;
            stroke: blue;
            stroke-dashoffset: 0;
            stroke-width: 128;
          }
          to {
            stroke: black;
            stroke-width: 1024;
          }
        }
        #make-me-a-hanzi-animation-1 {
          animation: keyframes1 0.7488606770833334s both;
          animation-delay: 0.5787760416666666s;
          animation-timing-function: linear;
        }
      
        @keyframes keyframes2 {
          from {
            stroke: blue;
            stroke-dashoffset: 438;
            stroke-width: 128;
          }
          59% {
            animation-timing-function: step-end;
            stroke: blue;
            stroke-dashoffset: 0;
            stroke-width: 128;
          }
          to {
            stroke: black;
            stroke-width: 1024;
          }
        }
        #make-me-a-hanzi-animation-2 {
          animation: keyframes2 0.6064453125s both;
          animation-delay: 1.32763671875s;
          animation-timing-function: linear;
        }
      
        @keyframes keyframes3 {
          from {
            stroke: blue;
            stroke-dashoffset: 431;
            stroke-width: 128;
          }
          58% {
            animation-timing-function: step-end;
            stroke: blue;
            stroke-dashoffset: 0;
            stroke-width: 128;
          }
          to {
            stroke: black;
            stroke-width: 1024;
          }
        }
        #make-me-a-hanzi-animation-3 {
          animation: keyframes3 0.6007486979166666s both;
          animation-delay: 1.93408203125s;
          animation-timing-function: linear;
        }
      
        @keyframes keyframes4 {
          from {
            stroke: blue;
            stroke-dashoffset: 458;
            stroke-width: 128;
          }
          60% {
            animation-timing-function: step-end;
            stroke: blue;
            stroke-dashoffset: 0;
            stroke-width: 128;
          }
          to {
            stroke: black;
            stroke-width: 1024;
          }
        }
        #make-me-a-hanzi-animation-4 {
          animation: keyframes4 0.6227213541666666s both;
          animation-delay: 2.5348307291666665s;
          animation-timing-function: linear;
        }
      
        @keyframes keyframes5 {
          from {
            stroke: blue;
            stroke-dashoffset: 518;
            stroke-width: 128;
          }
          63% {
            animation-timing-function: step-end;
            stroke: blue;
            stroke-dashoffset: 0;
            stroke-width: 128;
          }
          to {
            stroke: black;
            stroke-width: 1024;
          }
        }
        #make-me-a-hanzi-animation-5 {
          animation: keyframes5 0.6715494791666666s both;
          animation-delay: 3.157552083333333s;
          animation-timing-function: linear;
        }
      
        @keyframes keyframes6 {
          from {
            stroke: blue;
            stroke-dashoffset: 395;
            stroke-width: 128;
          }
          56% {
            animation-timing-function: step-end;
            stroke: blue;
            stroke-dashoffset: 0;
            stroke-width: 128;
          }
          to {
            stroke: black;
            stroke-width: 1024;
          }
        }
        #make-me-a-hanzi-animation-6 {
          animation: keyframes6 0.5714518229166666s both;
          animation-delay: 3.8291015624999996s;
          animation-timing-function: linear;
        }
      
        @keyframes keyframes7 {
          from {
            stroke: blue;
            stroke-dashoffset: 492;
            stroke-width: 128;
          }
          62% {
            animation-timing-function: step-end;
            stroke: blue;
            stroke-dashoffset: 0;
            stroke-width: 128;
          }
          to {
            stroke: black;
            stroke-width: 1024;
          }
        }
        #make-me-a-hanzi-animation-7 {
          animation: keyframes7 0.650390625s both;
          animation-delay: 4.400553385416666s;
          animation-timing-function: linear;
        }
      
        @keyframes keyframes8 {
          from {
            stroke: blue;
            stroke-dashoffset: 644;
            stroke-width: 128;
          }
          68% {
            animation-timing-function: step-end;
            stroke: blue;
            stroke-dashoffset: 0;
            stroke-width: 128;
          }
          to {
            stroke: black;
            stroke-width: 1024;
          }
        }
        #make-me-a-hanzi-animation-8 {
          animation: keyframes8 0.7740885416666666s both;
          animation-delay: 5.050944010416666s;
          animation-timing-function: linear;
        }
      
        @keyframes keyframes9 {
          from {
            stroke: blue;
            stroke-dashoffset: 837;
            stroke-width: 128;
          }
          73% {
            animation-timing-function: step-end;
            stroke: blue;
            stroke-dashoffset: 0;
            stroke-width: 128;
          }
          to {
            stroke: black;
            stroke-width: 1024;
          }
        }
        #make-me-a-hanzi-animation-9 {
          animation: keyframes9 0.93115234375s both;
          animation-delay: 5.825032552083333s;
          animation-timing-function: linear;
        }
      
        @keyframes keyframes10 {
          from {
            stroke: blue;
            stroke-dashoffset: 1126;
            stroke-width: 128;
          }
          79% {
            animation-timing-function: step-end;
            stroke: blue;
            stroke-dashoffset: 0;
            stroke-width: 128;
          }
          to {
            stroke: black;
            stroke-width: 1024;
          }
        }
        #make-me-a-hanzi-animation-10 {
          animation: keyframes10 1.1663411458333333s both;
          animation-delay: 6.756184895833333s;
          animation-timing-function: linear;
        }
      
        @keyframes keyframes11 {
          from {
            stroke: blue;
            stroke-dashoffset: 551;
            stroke-width: 128;
          }
          64% {
            animation-timing-function: step-end;
            stroke: blue;
            stroke-dashoffset: 0;
            stroke-width: 128;
          }
          to {
            stroke: black;
            stroke-width: 1024;
          }
        }
        #make-me-a-hanzi-animation-11 {
          animation: keyframes11 0.6984049479166666s both;
          animation-delay: 7.922526041666666s;
          animation-timing-function: linear;
        }
      
        @keyframes keyframes12 {
          from {
            stroke: blue;
            stroke-dashoffset: 802;
            stroke-width: 128;
          }
          72% {
            animation-timing-function: step-end;
            stroke: blue;
            stroke-dashoffset: 0;
            stroke-width: 128;
          }
          to {
            stroke: black;
            stroke-width: 1024;
          }
        }
        #make-me-a-hanzi-animation-12 {
          animation: keyframes12 0.9026692708333334s both;
          animation-delay: 8.620930989583332s;
          animation-timing-function: linear;
        }
      
        @keyframes keyframes13 {
          from {
            stroke: blue;
            stroke-dashoffset: 389;
            stroke-width: 128;
          }
          56% {
            animation-timing-function: step-end;
            stroke: blue;
            stroke-dashoffset: 0;
            stroke-width: 128;
          }
          to {
            stroke: black;
            stroke-width: 1024;
          }
        }
        #make-me-a-hanzi-animation-13 {
          animation: keyframes13 0.5665690104166666s both;
          animation-delay: 9.523600260416666s;
          animation-timing-function: linear;
        }
      
        @keyframes keyframes14 {
          from {
            stroke: blue;
            stroke-dashoffset: 411;
            stroke-width: 128;
          }
          57% {
            animation-timing-function: step-end;
            stroke: blue;
            stroke-dashoffset: 0;
            stroke-width: 128;
          }
          to {
            stroke: black;
            stroke-width: 1024;
          }
        }
        #make-me-a-hanzi-animation-14 {
          animation: keyframes14 0.58447265625s both;
          animation-delay: 10.090169270833332s;
          animation-timing-function: linear;
        }
      
    </style>
    
      <path d="M 328 748 Q 356 726 385 697 Q 401 684 419 684 Q 431 685 436 700 Q 442 718 430 751 Q 418 782 321 803 Q 303 807 296 803 Q 290 799 292 784 Q 296 771 328 748 Z" fill="lightgray"></path>
    
      <path d="M 93 564 Q 80 563 76 554 Q 73 544 89 532 Q 128 505 173 518 Q 287 560 428 582 Q 446 585 446 592 Q 447 605 428 614 Q 400 626 377 620 Q 170 572 93 564 Z" fill="lightgray"></path>
    
      <path d="M 225 467 Q 192 458 218 445 Q 248 430 317 447 Q 348 456 385 466 Q 403 472 405 474 Q 412 481 408 490 Q 401 500 373 504 Q 360 505 277 478 Q 253 471 225 467 Z" fill="lightgray"></path>
    
      <path d="M 220 363 Q 189 354 213 341 Q 255 328 312 345 Q 342 354 375 362 Q 391 368 394 370 Q 401 379 396 386 Q 389 396 361 399 Q 336 402 272 375 Q 248 368 220 363 Z" fill="lightgray"></path>
    
      <path d="M 220 260 Q 210 267 172 272 Q 160 275 157 269 Q 151 263 160 247 Q 185 199 205 119 Q 209 94 223 79 Q 242 57 247 74 Q 251 87 249 110 L 243 143 Q 231 209 228 232 C 224 258 224 258 220 260 Z" fill="lightgray"></path>
    
      <path d="M 376 159 Q 397 222 416 239 Q 438 264 415 278 Q 352 311 349 311 Q 340 311 332 305 Q 299 284 220 260 C 191 251 201 220 228 232 Q 244 241 311 255 Q 335 261 341 252 Q 347 246 328 169 C 321 140 366 131 376 159 Z" fill="lightgray"></path>
    
      <path d="M 249 110 Q 267 119 379 135 Q 389 136 389 145 Q 389 151 376 159 C 354 174 354 174 328 169 Q 321 168 316 166 Q 276 153 243 143 C 214 134 221 99 249 110 Z" fill="lightgray"></path>
    
      <path d="M 637 571 Q 724 595 728 598 Q 735 605 731 613 Q 724 623 697 629 Q 669 633 643 620 Q 640 619 640 618 C 616 604 616 604 590 601 Q 584 601 579 599 Q 542 589 498 582 Q 465 575 490 561 Q 526 543 589 558 L 637 571 Z" fill="lightgray"></path>
    
      <path d="M 629 472 Q 633 523 637 571 L 640 618 Q 644 729 663 798 Q 666 808 646 824 Q 610 843 586 847 Q 570 851 562 842 Q 555 835 563 819 Q 584 789 585 768 Q 589 689 590 601 L 589 558 Q 589 513 587 464 C 586 434 627 442 629 472 Z" fill="lightgray"></path>
    
      <path d="M 724 452 Q 733 453 973 472 Q 992 473 997 482 Q 1001 494 985 506 Q 927 545 864 522 Q 815 510 751 495 L 690 483 Q 684 484 629 472 L 587 464 Q 505 451 415 434 Q 396 431 411 415 Q 424 402 442 398 Q 463 394 478 399 Q 562 427 658 442 Q 659 443 665 443 L 724 452 Z" fill="lightgray"></path>
    
      <path d="M 629 320 Q 681 390 724 452 L 751 495 Q 770 525 786 553 Q 825 623 849 656 Q 858 669 849 685 Q 831 716 813 730 Q 797 743 779 744 Q 761 744 767 721 Q 773 682 770 661 Q 728 547 690 483 L 665 443 Q 625 385 568 312 L 531 268 Q 437 162 323 59 Q 316 53 315 45 Q 315 39 322 40 Q 332 41 341 47 Q 443 114 492 165 Q 513 186 535 208 L 629 320 Z" fill="lightgray"></path>
    
      <path d="M 557 312 Q 550 318 540 321 Q 531 325 521 321 Q 515 317 520 306 Q 521 300 524 295 Q 530 286 531 268 L 535 208 Q 538 148 530 107 Q 518 62 551 20 Q 561 10 570 20 Q 580 35 580 54 L 581 86 Q 581 131 581 175 L 581 203 Q 581 246 581 260 C 581 290 581 296 557 312 Z" fill="lightgray"></path>
    
      <path d="M 714 63 Q 739 29 758 -4 Q 765 -20 777 -20 Q 792 -19 808 11 Q 820 41 821 114 Q 803 253 829 284 Q 838 294 830 305 Q 814 323 768 347 Q 752 356 738 348 Q 699 332 640 322 Q 633 321 629 320 L 568 312 Q 562 312 557 312 C 527 310 562 237 581 260 Q 602 290 633 293 Q 678 299 720 305 Q 739 308 749 300 Q 764 285 758 146 Q 758 107 755 96 Q 751 80 740 84 C 714 68 712 66 714 63 Z" fill="lightgray"></path>
    
      <path d="M 581 175 Q 656 184 710 189 Q 732 193 725 205 Q 715 218 691 224 Q 658 228 581 203 C 552 194 551 171 581 175 Z" fill="lightgray"></path>
    
      <path d="M 580 54 Q 583 54 587 54 Q 629 61 714 63 C 744 64 761 64 740 84 Q 733 91 720 100 Q 705 110 677 103 Q 625 93 581 86 C 551 81 550 54 580 54 Z" fill="lightgray"></path>
    
    
      <clipPath id="make-me-a-hanzi-clip-0">
        <path d="M 328 748 Q 356 726 385 697 Q 401 684 419 684 Q 431 685 436 700 Q 442 718 430 751 Q 418 782 321 803 Q 303 807 296 803 Q 290 799 292 784 Q 296 771 328 748 Z"></path>
      </clipPath>
      <path clip-path="url(#make-me-a-hanzi-clip-0)" d="M 303 794 L 393 740 L 416 704" fill="none" id="make-me-a-hanzi-animation-0" stroke-dasharray="276 552" stroke-linecap="round"></path>
    
      <clipPath id="make-me-a-hanzi-clip-1">
        <path d="M 93 564 Q 80 563 76 554 Q 73 544 89 532 Q 128 505 173 518 Q 287 560 428 582 Q 446 585 446 592 Q 447 605 428 614 Q 400 626 377 620 Q 170 572 93 564 Z"></path>
      </clipPath>
      <path clip-path="url(#make-me-a-hanzi-clip-1)" d="M 87 550 L 149 542 L 371 596 L 404 600 L 436 595" fill="none" id="make-me-a-hanzi-animation-1" stroke-dasharray="485 970" stroke-linecap="round"></path>
    
      <clipPath id="make-me-a-hanzi-clip-2">
        <path d="M 225 467 Q 192 458 218 445 Q 248 430 317 447 Q 348 456 385 466 Q 403 472 405 474 Q 412 481 408 490 Q 401 500 373 504 Q 360 505 277 478 Q 253 471 225 467 Z"></path>
      </clipPath>
      <path clip-path="url(#make-me-a-hanzi-clip-2)" d="M 219 457 L 258 455 L 367 483 L 397 484" fill="none" id="make-me-a-hanzi-animation-2" stroke-dasharray="310 620" stroke-linecap="round"></path>
    
      <clipPath id="make-me-a-hanzi-clip-3">
        <path d="M 220 363 Q 189 354 213 341 Q 255 328 312 345 Q 342 354 375 362 Q 391 368 394 370 Q 401 379 396 386 Q 389 396 361 399 Q 336 402 272 375 Q 248 368 220 363 Z"></path>
      </clipPath>
      <path clip-path="url(#make-me-a-hanzi-clip-3)" d="M 214 353 L 258 353 L 356 379 L 386 379" fill="none" id="make-me-a-hanzi-animation-3" stroke-dasharray="303 606" stroke-linecap="round"></path>
    
      <clipPath id="make-me-a-hanzi-clip-4">
        <path d="M 220 260 Q 210 267 172 272 Q 160 275 157 269 Q 151 263 160 247 Q 185 199 205 119 Q 209 94 223 79 Q 242 57 247 74 Q 251 87 249 110 L 243 143 Q 231 209 228 232 C 224 258 224 258 220 260 Z"></path>
      </clipPath>
      <path clip-path="url(#make-me-a-hanzi-clip-4)" d="M 166 262 L 196 238 L 235 79" fill="none" id="make-me-a-hanzi-animation-4" stroke-dasharray="330 660" stroke-linecap="round"></path>
    
      <clipPath id="make-me-a-hanzi-clip-5">
        <path d="M 376 159 Q 397 222 416 239 Q 438 264 415 278 Q 352 311 349 311 Q 340 311 332 305 Q 299 284 220 260 C 191 251 201 220 228 232 Q 244 241 311 255 Q 335 261 341 252 Q 347 246 328 169 C 321 140 366 131 376 159 Z"></path>
      </clipPath>
      <path clip-path="url(#make-me-a-hanzi-clip-5)" d="M 229 240 L 238 251 L 285 267 L 340 281 L 355 277 L 379 254 L 359 189 L 336 180" fill="none" id="make-me-a-hanzi-animation-5" stroke-dasharray="390 780" stroke-linecap="round"></path>
    
      <clipPath id="make-me-a-hanzi-clip-6">
        <path d="M 249 110 Q 267 119 379 135 Q 389 136 389 145 Q 389 151 376 159 C 354 174 354 174 328 169 Q 321 168 316 166 Q 276 153 243 143 C 214 134 221 99 249 110 Z"></path>
      </clipPath>
      <path clip-path="url(#make-me-a-hanzi-clip-6)" d="M 250 116 L 268 134 L 314 146 L 380 144" fill="none" id="make-me-a-hanzi-animation-6" stroke-dasharray="267 534" stroke-linecap="round"></path>
    
      <clipPath id="make-me-a-hanzi-clip-7">
        <path d="M 637 571 Q 724 595 728 598 Q 735 605 731 613 Q 724 623 697 629 Q 669 633 643 620 Q 640 619 640 618 C 616 604 616 604 590 601 Q 584 601 579 599 Q 542 589 498 582 Q 465 575 490 561 Q 526 543 589 558 L 637 571 Z"></path>
      </clipPath>
      <path clip-path="url(#make-me-a-hanzi-clip-7)" d="M 491 573 L 546 570 L 678 607 L 722 607" fill="none" id="make-me-a-hanzi-animation-7" stroke-dasharray="364 728" stroke-linecap="round"></path>
    
      <clipPath id="make-me-a-hanzi-clip-8">
        <path d="M 629 472 Q 633 523 637 571 L 640 618 Q 644 729 663 798 Q 666 808 646 824 Q 610 843 586 847 Q 570 851 562 842 Q 555 835 563 819 Q 584 789 585 768 Q 589 689 590 601 L 589 558 Q 589 513 587 464 C 586 434 627 442 629 472 Z"></path>
      </clipPath>
      <path clip-path="url(#make-me-a-hanzi-clip-8)" d="M 574 833 L 612 803 L 621 789 L 610 495 L 593 472" fill="none" id="make-me-a-hanzi-animation-8" stroke-dasharray="516 1032" stroke-linecap="round"></path>
    
      <clipPath id="make-me-a-hanzi-clip-9">
        <path d="M 724 452 Q 733 453 973 472 Q 992 473 997 482 Q 1001 494 985 506 Q 927 545 864 522 Q 815 510 751 495 L 690 483 Q 684 484 629 472 L 587 464 Q 505 451 415 434 Q 396 431 411 415 Q 424 402 442 398 Q 463 394 478 399 Q 562 427 658 442 Q 659 443 665 443 L 724 452 Z"></path>
      </clipPath>
      <path clip-path="url(#make-me-a-hanzi-clip-9)" d="M 414 424 L 468 420 L 644 459 L 893 498 L 940 498 L 986 487" fill="none" id="make-me-a-hanzi-animation-9" stroke-dasharray="709 1418" stroke-linecap="round"></path>
    
      <clipPath id="make-me-a-hanzi-clip-10">
        <path d="M 629 320 Q 681 390 724 452 L 751 495 Q 770 525 786 553 Q 825 623 849 656 Q 858 669 849 685 Q 831 716 813 730 Q 797 743 779 744 Q 761 744 767 721 Q 773 682 770 661 Q 728 547 690 483 L 665 443 Q 625 385 568 312 L 531 268 Q 437 162 323 59 Q 316 53 315 45 Q 315 39 322 40 Q 332 41 341 47 Q 443 114 492 165 Q 513 186 535 208 L 629 320 Z"></path>
      </clipPath>
      <path clip-path="url(#make-me-a-hanzi-clip-10)" d="M 779 730 L 798 705 L 811 672 L 767 575 L 709 469 L 617 339 L 515 217 L 434 138 L 322 47" fill="none" id="make-me-a-hanzi-animation-10" stroke-dasharray="998 1996" stroke-linecap="round"></path>
    
      <clipPath id="make-me-a-hanzi-clip-11">
        <path d="M 557 312 Q 550 318 540 321 Q 531 325 521 321 Q 515 317 520 306 Q 521 300 524 295 Q 530 286 531 268 L 535 208 Q 538 148 530 107 Q 518 62 551 20 Q 561 10 570 20 Q 580 35 580 54 L 581 86 Q 581 131 581 175 L 581 203 Q 581 246 581 260 C 581 290 581 296 557 312 Z"></path>
      </clipPath>
      <path clip-path="url(#make-me-a-hanzi-clip-11)" d="M 528 313 L 544 297 L 557 256 L 554 82 L 561 27" fill="none" id="make-me-a-hanzi-animation-11" stroke-dasharray="423 846" stroke-linecap="round"></path>
    
      <clipPath id="make-me-a-hanzi-clip-12">
        <path d="M 714 63 Q 739 29 758 -4 Q 765 -20 777 -20 Q 792 -19 808 11 Q 820 41 821 114 Q 803 253 829 284 Q 838 294 830 305 Q 814 323 768 347 Q 752 356 738 348 Q 699 332 640 322 Q 633 321 629 320 L 568 312 Q 562 312 557 312 C 527 310 562 237 581 260 Q 602 290 633 293 Q 678 299 720 305 Q 739 308 749 300 Q 764 285 758 146 Q 758 107 755 96 Q 751 80 740 84 C 714 68 712 66 714 63 Z"></path>
      </clipPath>
      <path clip-path="url(#make-me-a-hanzi-clip-12)" d="M 563 307 L 587 294 L 608 303 L 740 327 L 765 321 L 787 297 L 789 105 L 774 51 L 777 -4" fill="none" id="make-me-a-hanzi-animation-12" stroke-dasharray="674 1348" stroke-linecap="round"></path>
    
      <clipPath id="make-me-a-hanzi-clip-13">
        <path d="M 581 175 Q 656 184 710 189 Q 732 193 725 205 Q 715 218 691 224 Q 658 228 581 203 C 552 194 551 171 581 175 Z"></path>
      </clipPath>
      <path clip-path="url(#make-me-a-hanzi-clip-13)" d="M 588 182 L 597 194 L 634 200 L 685 206 L 714 200" fill="none" id="make-me-a-hanzi-animation-13" stroke-dasharray="261 522" stroke-linecap="round"></path>
    
      <clipPath id="make-me-a-hanzi-clip-14">
        <path d="M 580 54 Q 583 54 587 54 Q 629 61 714 63 C 744 64 761 64 740 84 Q 733 91 720 100 Q 705 110 677 103 Q 625 93 581 86 C 551 81 550 54 580 54 Z"></path>
      </clipPath>
      <path clip-path="url(#make-me-a-hanzi-clip-14)" d="M 584 59 L 602 73 L 673 83 L 733 84" fill="none" id="make-me-a-hanzi-animation-14" stroke-dasharray="283 566" stroke-linecap="round"></path>
    
  </g>
</svg>