<svg version="1.1" viewBox="0 0 1024 1024" xmlns="http://www.w3.org/2000/svg">
  <g stroke="lightgray" stroke-dasharray="1,1" stroke-width="1" transform="scale(4, 4)">
    <line x1="0" y1="0" x2="256" y2="256"></line>
    <line x1="256" y1="0" x2="0" y2="256"></line>
    <line x1="128" y1="0" x2="128" y2="256"></line>
    <line x1="0" y1="128" x2="256" y2="128"></line>
  </g>
  <g transform="scale(1, -1) translate(0, -900)">
    <style type="text/css">
      
        @keyframes keyframes0 {
          from {
            stroke: blue;
            stroke-dashoffset: 419;
            stroke-width: 128;
          }
          58% {
            animation-timing-function: step-end;
            stroke: blue;
            stroke-dashoffset: 0;
            stroke-width: 128;
          }
          to {
            stroke: black;
            stroke-width: 1024;
          }
        }
        #make-me-a-hanzi-animation-0 {
          animation: keyframes0 0.5909830729166666s both;
          animation-delay: 0s;
          animation-timing-function: linear;
        }
      
        @keyframes keyframes1 {
          from {
            stroke: blue;
            stroke-dashoffset: 1086;
            stroke-width: 128;
          }
          78% {
            animation-timing-function: step-end;
            stroke: blue;
            stroke-dashoffset: 0;
            stroke-width: 128;
          }
          to {
            stroke: black;
            stroke-width: 1024;
          }
        }
        #make-me-a-hanzi-animation-1 {
          animation: keyframes1 1.1337890625s both;
          animation-delay: 0.5909830729166666s;
          animation-timing-function: linear;
        }
      
        @keyframes keyframes2 {
          from {
            stroke: blue;
            stroke-dashoffset: 583;
            stroke-width: 128;
          }
          65% {
            animation-timing-function: step-end;
            stroke: blue;
            stroke-dashoffset: 0;
            stroke-width: 128;
          }
          to {
            stroke: black;
            stroke-width: 1024;
          }
        }
        #make-me-a-hanzi-animation-2 {
          animation: keyframes2 0.7244466145833334s both;
          animation-delay: 1.7247721354166665s;
          animation-timing-function: linear;
        }
      
        @keyframes keyframes3 {
          from {
            stroke: blue;
            stroke-dashoffset: 706;
            stroke-width: 128;
          }
          70% {
            animation-timing-function: step-end;
            stroke: blue;
            stroke-dashoffset: 0;
            stroke-width: 128;
          }
          to {
            stroke: black;
            stroke-width: 1024;
          }
        }
        #make-me-a-hanzi-animation-3 {
          animation: keyframes3 0.8245442708333334s both;
          animation-delay: 2.44921875s;
          animation-timing-function: linear;
        }
      
        @keyframes keyframes4 {
          from {
            stroke: blue;
            stroke-dashoffset: 433;
            stroke-width: 128;
          }
          58% {
            animation-timing-function: step-end;
            stroke: blue;
            stroke-dashoffset: 0;
            stroke-width: 128;
          }
          to {
            stroke: black;
            stroke-width: 1024;
          }
        }
        #make-me-a-hanzi-animation-4 {
          animation: keyframes4 0.6023763020833334s both;
          animation-delay: 3.2737630208333335s;
          animation-timing-function: linear;
        }
      
        @keyframes keyframes5 {
          from {
            stroke: blue;
            stroke-dashoffset: 544;
            stroke-width: 128;
          }
          64% {
            animation-timing-function: step-end;
            stroke: blue;
            stroke-dashoffset: 0;
            stroke-width: 128;
          }
          to {
            stroke: black;
            stroke-width: 1024;
          }
        }
        #make-me-a-hanzi-animation-5 {
          animation: keyframes5 0.6927083333333334s both;
          animation-delay: 3.876139322916667s;
          animation-timing-function: linear;
        }
      
        @keyframes keyframes6 {
          from {
            stroke: blue;
            stroke-dashoffset: 789;
            stroke-width: 128;
          }
          72% {
            animation-timing-function: step-end;
            stroke: blue;
            stroke-dashoffset: 0;
            stroke-width: 128;
          }
          to {
            stroke: black;
            stroke-width: 1024;
          }
        }
        #make-me-a-hanzi-animation-6 {
          animation: keyframes6 0.89208984375s both;
          animation-delay: 4.56884765625s;
          animation-timing-function: linear;
        }
      
    </style>
    
      <path d="M 318 769 Q 354 744 391 714 Q 407 701 425 704 Q 437 705 441 720 Q 444 736 431 768 Q 416 804 308 821 Q 290 822 284 819 Q 278 815 282 801 Q 286 789 318 769 Z" fill="lightgray"></path>
    
      <path d="M 150 509 Q 98 494 70 493 Q 55 494 53 486 Q 49 477 60 469 Q 82 454 99 451 Q 117 447 222 497 Q 250 510 260 502 Q 272 495 264 466 Q 270 289 229 149 Q 214 116 259 66 Q 269 53 280 61 Q 287 68 298 93 Q 340 154 429 258 Q 441 271 438 278 Q 435 287 425 276 Q 377 239 331 197 Q 292 163 297 212 Q 296 282 319 459 Q 323 484 347 508 Q 359 518 349 532 Q 339 548 299 566 Q 286 573 269 561 Q 193 522 150 509 Z" fill="lightgray"></path>
    
      <path d="M 664 600 Q 728 615 798 627 Q 841 637 847 643 Q 856 650 851 660 Q 844 672 814 680 Q 783 686 752 674 Q 704 658 652 645 Q 594 632 526 626 Q 489 620 515 602 Q 558 578 615 591 Q 616 592 618 591 L 664 600 Z" fill="lightgray"></path>
    
      <path d="M 688 159 Q 689 289 691 397 L 692 427 Q 692 508 696 547 Q 705 572 664 600 C 640 618 605 618 618 591 Q 639 549 639 513 Q 640 476 641 152 C 641 122 688 129 688 159 Z" fill="lightgray"></path>
    
      <path d="M 691 397 Q 730 382 779 398 Q 870 420 877 423 Q 884 432 880 440 Q 873 452 842 457 Q 811 461 781 448 Q 762 441 739 435 Q 717 431 692 427 C 662 422 663 407 691 397 Z" fill="lightgray"></path>
    
      <path d="M 552 140 Q 543 320 547 361 Q 550 383 535 396 Q 513 412 485 422 Q 472 426 462 420 Q 455 414 461 399 Q 480 363 490 325 Q 497 288 512 135 C 515 105 553 110 552 140 Z" fill="lightgray"></path>
    
      <path d="M 512 135 Q 458 131 401 122 Q 379 121 395 103 Q 408 90 427 83 Q 448 79 464 82 Q 609 121 910 120 Q 929 120 935 128 Q 941 140 924 154 Q 867 196 801 178 Q 753 171 688 159 L 641 152 Q 596 149 552 140 L 512 135 Z" fill="lightgray"></path>
    
    
      <clipPath id="make-me-a-hanzi-clip-0">
        <path d="M 318 769 Q 354 744 391 714 Q 407 701 425 704 Q 437 705 441 720 Q 444 736 431 768 Q 416 804 308 821 Q 290 822 284 819 Q 278 815 282 801 Q 286 789 318 769 Z"></path>
      </clipPath>
      <path clip-path="url(#make-me-a-hanzi-clip-0)" d="M 290 811 L 388 762 L 423 722" fill="none" id="make-me-a-hanzi-animation-0" stroke-dasharray="291 582" stroke-linecap="round"></path>
    
      <clipPath id="make-me-a-hanzi-clip-1">
        <path d="M 150 509 Q 98 494 70 493 Q 55 494 53 486 Q 49 477 60 469 Q 82 454 99 451 Q 117 447 222 497 Q 250 510 260 502 Q 272 495 264 466 Q 270 289 229 149 Q 214 116 259 66 Q 269 53 280 61 Q 287 68 298 93 Q 340 154 429 258 Q 441 271 438 278 Q 435 287 425 276 Q 377 239 331 197 Q 292 163 297 212 Q 296 282 319 459 Q 323 484 347 508 Q 359 518 349 532 Q 339 548 299 566 Q 286 573 269 561 Q 193 522 150 509 Z"></path>
      </clipPath>
      <path clip-path="url(#make-me-a-hanzi-clip-1)" d="M 64 481 L 99 474 L 119 477 L 255 529 L 291 527 L 301 518 L 292 470 L 270 209 L 269 177 L 277 146 L 320 162 L 432 274" fill="none" id="make-me-a-hanzi-animation-1" stroke-dasharray="958 1916" stroke-linecap="round"></path>
    
      <clipPath id="make-me-a-hanzi-clip-2">
        <path d="M 664 600 Q 728 615 798 627 Q 841 637 847 643 Q 856 650 851 660 Q 844 672 814 680 Q 783 686 752 674 Q 704 658 652 645 Q 594 632 526 626 Q 489 620 515 602 Q 558 578 615 591 Q 616 592 618 591 L 664 600 Z"></path>
      </clipPath>
      <path clip-path="url(#make-me-a-hanzi-clip-2)" d="M 518 615 L 576 608 L 780 653 L 840 654" fill="none" id="make-me-a-hanzi-animation-2" stroke-dasharray="455 910" stroke-linecap="round"></path>
    
      <clipPath id="make-me-a-hanzi-clip-3">
        <path d="M 688 159 Q 689 289 691 397 L 692 427 Q 692 508 696 547 Q 705 572 664 600 C 640 618 605 618 618 591 Q 639 549 639 513 Q 640 476 641 152 C 641 122 688 129 688 159 Z"></path>
      </clipPath>
      <path clip-path="url(#make-me-a-hanzi-clip-3)" d="M 627 587 L 658 570 L 666 544 L 665 179 L 647 166" fill="none" id="make-me-a-hanzi-animation-3" stroke-dasharray="578 1156" stroke-linecap="round"></path>
    
      <clipPath id="make-me-a-hanzi-clip-4">
        <path d="M 691 397 Q 730 382 779 398 Q 870 420 877 423 Q 884 432 880 440 Q 873 452 842 457 Q 811 461 781 448 Q 762 441 739 435 Q 717 431 692 427 C 662 422 663 407 691 397 Z"></path>
      </clipPath>
      <path clip-path="url(#make-me-a-hanzi-clip-4)" d="M 701 404 L 710 411 L 751 414 L 821 434 L 860 436 L 872 431" fill="none" id="make-me-a-hanzi-animation-4" stroke-dasharray="305 610" stroke-linecap="round"></path>
    
      <clipPath id="make-me-a-hanzi-clip-5">
        <path d="M 552 140 Q 543 320 547 361 Q 550 383 535 396 Q 513 412 485 422 Q 472 426 462 420 Q 455 414 461 399 Q 480 363 490 325 Q 497 288 512 135 C 515 105 553 110 552 140 Z"></path>
      </clipPath>
      <path clip-path="url(#make-me-a-hanzi-clip-5)" d="M 471 411 L 513 368 L 530 157 L 517 148" fill="none" id="make-me-a-hanzi-animation-5" stroke-dasharray="416 832" stroke-linecap="round"></path>
    
      <clipPath id="make-me-a-hanzi-clip-6">
        <path d="M 512 135 Q 458 131 401 122 Q 379 121 395 103 Q 408 90 427 83 Q 448 79 464 82 Q 609 121 910 120 Q 929 120 935 128 Q 941 140 924 154 Q 867 196 801 178 Q 753 171 688 159 L 641 152 Q 596 149 552 140 L 512 135 Z"></path>
      </clipPath>
      <path clip-path="url(#make-me-a-hanzi-clip-6)" d="M 398 113 L 419 106 L 456 105 L 621 130 L 829 152 L 891 146 L 924 134" fill="none" id="make-me-a-hanzi-animation-6" stroke-dasharray="661 1322" stroke-linecap="round"></path>
    
  </g>
</svg>