<svg version="1.1" viewBox="0 0 1024 1024" xmlns="http://www.w3.org/2000/svg">
  <g stroke="lightgray" stroke-dasharray="1,1" stroke-width="1" transform="scale(4, 4)">
    <line x1="0" y1="0" x2="256" y2="256"></line>
    <line x1="256" y1="0" x2="0" y2="256"></line>
    <line x1="128" y1="0" x2="128" y2="256"></line>
    <line x1="0" y1="128" x2="256" y2="128"></line>
  </g>
  <g transform="scale(1, -1) translate(0, -900)">
    <style type="text/css">
      
        @keyframes keyframes0 {
          from {
            stroke: blue;
            stroke-dashoffset: 418;
            stroke-width: 128;
          }
          58% {
            animation-timing-function: step-end;
            stroke: blue;
            stroke-dashoffset: 0;
            stroke-width: 128;
          }
          to {
            stroke: black;
            stroke-width: 1024;
          }
        }
        #make-me-a-hanzi-animation-0 {
          animation: keyframes0 0.5901692708333334s both;
          animation-delay: 0s;
          animation-timing-function: linear;
        }
      
        @keyframes keyframes1 {
          from {
            stroke: blue;
            stroke-dashoffset: 1024;
            stroke-width: 128;
          }
          77% {
            animation-timing-function: step-end;
            stroke: blue;
            stroke-dashoffset: 0;
            stroke-width: 128;
          }
          to {
            stroke: black;
            stroke-width: 1024;
          }
        }
        #make-me-a-hanzi-animation-1 {
          animation: keyframes1 1.0833333333333333s both;
          animation-delay: 0.5901692708333334s;
          animation-timing-function: linear;
        }
      
        @keyframes keyframes2 {
          from {
            stroke: blue;
            stroke-dashoffset: 468;
            stroke-width: 128;
          }
          60% {
            animation-timing-function: step-end;
            stroke: blue;
            stroke-dashoffset: 0;
            stroke-width: 128;
          }
          to {
            stroke: black;
            stroke-width: 1024;
          }
        }
        #make-me-a-hanzi-animation-2 {
          animation: keyframes2 0.630859375s both;
          animation-delay: 1.6735026041666665s;
          animation-timing-function: linear;
        }
      
        @keyframes keyframes3 {
          from {
            stroke: blue;
            stroke-dashoffset: 688;
            stroke-width: 128;
          }
          69% {
            animation-timing-function: step-end;
            stroke: blue;
            stroke-dashoffset: 0;
            stroke-width: 128;
          }
          to {
            stroke: black;
            stroke-width: 1024;
          }
        }
        #make-me-a-hanzi-animation-3 {
          animation: keyframes3 0.8098958333333334s both;
          animation-delay: 2.3043619791666665s;
          animation-timing-function: linear;
        }
      
        @keyframes keyframes4 {
          from {
            stroke: blue;
            stroke-dashoffset: 384;
            stroke-width: 128;
          }
          56% {
            animation-timing-function: step-end;
            stroke: blue;
            stroke-dashoffset: 0;
            stroke-width: 128;
          }
          to {
            stroke: black;
            stroke-width: 1024;
          }
        }
        #make-me-a-hanzi-animation-4 {
          animation: keyframes4 0.5625s both;
          animation-delay: 3.1142578125s;
          animation-timing-function: linear;
        }
      
        @keyframes keyframes5 {
          from {
            stroke: blue;
            stroke-dashoffset: 386;
            stroke-width: 128;
          }
          56% {
            animation-timing-function: step-end;
            stroke: blue;
            stroke-dashoffset: 0;
            stroke-width: 128;
          }
          to {
            stroke: black;
            stroke-width: 1024;
          }
        }
        #make-me-a-hanzi-animation-5 {
          animation: keyframes5 0.5641276041666666s both;
          animation-delay: 3.6767578125s;
          animation-timing-function: linear;
        }
      
        @keyframes keyframes6 {
          from {
            stroke: blue;
            stroke-dashoffset: 435;
            stroke-width: 128;
          }
          59% {
            animation-timing-function: step-end;
            stroke: blue;
            stroke-dashoffset: 0;
            stroke-width: 128;
          }
          to {
            stroke: black;
            stroke-width: 1024;
          }
        }
        #make-me-a-hanzi-animation-6 {
          animation: keyframes6 0.60400390625s both;
          animation-delay: 4.240885416666667s;
          animation-timing-function: linear;
        }
      
        @keyframes keyframes7 {
          from {
            stroke: blue;
            stroke-dashoffset: 817;
            stroke-width: 128;
          }
          73% {
            animation-timing-function: step-end;
            stroke: blue;
            stroke-dashoffset: 0;
            stroke-width: 128;
          }
          to {
            stroke: black;
            stroke-width: 1024;
          }
        }
        #make-me-a-hanzi-animation-7 {
          animation: keyframes7 0.9148763020833334s both;
          animation-delay: 4.844889322916667s;
          animation-timing-function: linear;
        }
      
        @keyframes keyframes8 {
          from {
            stroke: blue;
            stroke-dashoffset: 353;
            stroke-width: 128;
          }
          53% {
            animation-timing-function: step-end;
            stroke: blue;
            stroke-dashoffset: 0;
            stroke-width: 128;
          }
          to {
            stroke: black;
            stroke-width: 1024;
          }
        }
        #make-me-a-hanzi-animation-8 {
          animation: keyframes8 0.5372721354166666s both;
          animation-delay: 5.759765625s;
          animation-timing-function: linear;
        }
      
        @keyframes keyframes9 {
          from {
            stroke: blue;
            stroke-dashoffset: 376;
            stroke-width: 128;
          }
          55% {
            animation-timing-function: step-end;
            stroke: blue;
            stroke-dashoffset: 0;
            stroke-width: 128;
          }
          to {
            stroke: black;
            stroke-width: 1024;
          }
        }
        #make-me-a-hanzi-animation-9 {
          animation: keyframes9 0.5559895833333334s both;
          animation-delay: 6.297037760416667s;
          animation-timing-function: linear;
        }
      
        @keyframes keyframes10 {
          from {
            stroke: blue;
            stroke-dashoffset: 560;
            stroke-width: 128;
          }
          65% {
            animation-timing-function: step-end;
            stroke: blue;
            stroke-dashoffset: 0;
            stroke-width: 128;
          }
          to {
            stroke: black;
            stroke-width: 1024;
          }
        }
        #make-me-a-hanzi-animation-10 {
          animation: keyframes10 0.7057291666666666s both;
          animation-delay: 6.85302734375s;
          animation-timing-function: linear;
        }
      
        @keyframes keyframes11 {
          from {
            stroke: blue;
            stroke-dashoffset: 960;
            stroke-width: 128;
          }
          76% {
            animation-timing-function: step-end;
            stroke: blue;
            stroke-dashoffset: 0;
            stroke-width: 128;
          }
          to {
            stroke: black;
            stroke-width: 1024;
          }
        }
        #make-me-a-hanzi-animation-11 {
          animation: keyframes11 1.03125s both;
          animation-delay: 7.558756510416667s;
          animation-timing-function: linear;
        }
      
        @keyframes keyframes12 {
          from {
            stroke: blue;
            stroke-dashoffset: 824;
            stroke-width: 128;
          }
          73% {
            animation-timing-function: step-end;
            stroke: blue;
            stroke-dashoffset: 0;
            stroke-width: 128;
          }
          to {
            stroke: black;
            stroke-width: 1024;
          }
        }
        #make-me-a-hanzi-animation-12 {
          animation: keyframes12 0.9205729166666666s both;
          animation-delay: 8.590006510416668s;
          animation-timing-function: linear;
        }
      
    </style>
    
      <path d="M 247 712 Q 278 684 311 649 Q 326 634 343 634 Q 355 634 361 649 Q 367 665 358 698 Q 352 720 318 739 Q 237 773 220 767 Q 214 763 215 749 Q 219 736 247 712 Z" fill="lightgray"></path>
    
      <path d="M 145 482 Q 96 466 69 463 Q 56 463 53 456 Q 49 447 60 440 Q 82 427 98 425 Q 116 419 211 471 Q 236 484 245 477 Q 255 471 249 445 Q 249 274 215 159 Q 199 129 240 78 Q 250 66 260 73 Q 267 80 279 103 Q 321 154 408 240 Q 421 250 418 258 Q 417 267 406 257 Q 363 230 319 199 Q 271 160 280 219 Q 280 283 302 438 Q 306 462 327 485 Q 340 495 330 507 Q 320 523 281 540 Q 269 546 253 535 Q 184 495 145 482 Z" fill="lightgray"></path>
    
      <path d="M 507 773 Q 503 774 495 776 Q 483 779 481 774 Q 475 770 483 755 Q 508 701 523 614 Q 526 587 542 570 Q 558 551 562 565 Q 565 574 565 587 L 564 607 Q 563 614 562 622 Q 558 643 555 660 L 552 681 Q 543 732 543 747 C 542 764 536 766 507 773 Z" fill="lightgray"></path>
    
      <path d="M 699 603 Q 715 581 729 574 Q 739 567 751 587 Q 761 603 781 697 Q 788 724 808 746 Q 820 756 809 769 Q 796 784 758 806 Q 749 810 593 786 Q 550 779 516 775 Q 510 775 507 773 C 478 768 515 736 543 747 Q 552 757 696 769 Q 715 770 723 764 Q 732 754 731 743 Q 721 652 714 638 Q 711 628 698 624 C 687 618 687 618 699 603 Z" fill="lightgray"></path>
    
      <path d="M 555 660 Q 558 660 565 661 Q 629 674 678 681 Q 696 685 689 694 Q 680 704 661 708 Q 634 711 552 681 C 524 671 525 658 555 660 Z" fill="lightgray"></path>
    
      <path d="M 565 587 Q 568 587 573 587 Q 645 596 699 603 C 729 607 725 610 698 624 Q 677 639 568 608 Q 565 608 564 607 C 535 600 535 587 565 587 Z" fill="lightgray"></path>
    
      <path d="M 444 505 Q 432 509 406 511 Q 396 512 392 508 Q 388 501 396 488 Q 421 448 442 379 Q 446 358 461 345 Q 479 327 482 341 Q 483 347 483 354 L 480 379 Q 480 383 479 387 Q 464 448 459 473 C 453 502 453 503 444 505 Z" fill="lightgray"></path>
    
      <path d="M 793 389 Q 797 376 807 376 Q 819 377 826 390 Q 833 394 850 427 Q 866 472 898 497 Q 914 510 901 524 Q 886 540 843 564 Q 830 573 742 554 Q 708 554 563 524 Q 490 511 444 505 C 414 501 429 468 459 473 Q 466 473 474 475 Q 505 485 554 494 L 574 499 Q 613 508 669 513 L 701 519 Q 797 537 817 525 Q 823 521 819 502 Q 804 433 794 416 C 786 397 786 397 793 389 Z" fill="lightgray"></path>
    
      <path d="M 554 494 Q 557 475 558 454 Q 561 415 576 391 C 591 365 600 366 601 396 Q 602 415 597 436 Q 597 461 576 497 Q 575 498 574 499 C 554 522 549 524 554 494 Z" fill="lightgray"></path>
    
      <path d="M 669 513 Q 678 495 661 425 Q 657 415 656 406 C 652 376 664 384 679 410 Q 683 417 689 426 Q 699 442 709 461 Q 713 470 722 481 Q 732 491 725 499 Q 718 509 701 519 C 675 535 659 541 669 513 Z" fill="lightgray"></path>
    
      <path d="M 483 354 Q 486 351 509 352 Q 599 373 793 389 C 822 391 816 396 794 416 Q 791 420 786 423 Q 768 432 679 410 L 656 406 Q 628 402 601 396 L 576 391 Q 525 387 481 380 Q 480 380 480 379 C 451 372 454 360 483 354 Z" fill="lightgray"></path>
    
      <path d="M 601 104 Q 531 49 390 13 Q 374 12 383 2 Q 390 -5 418 -3 Q 562 10 633 68 L 668 105 Q 707 151 733 223 Q 743 257 764 272 Q 780 285 764 301 Q 745 319 714 334 Q 693 343 672 334 Q 612 306 531 298 Q 504 297 493 290 Q 484 284 502 274 Q 527 259 566 271 Q 615 280 663 289 Q 681 295 680 274 Q 680 211 630 137 L 601 104 Z" fill="lightgray"></path>
    
      <path d="M 633 68 Q 732 -38 770 -42 Q 860 -42 923 -32 Q 957 -28 955 -18 Q 954 -14 789 39 Q 732 60 668 105 L 630 137 Q 591 170 553 208 Q 517 245 485 244 Q 467 245 465 240 Q 464 233 478 223 Q 524 196 601 104 L 633 68 Z" fill="lightgray"></path>
    
    
      <clipPath id="make-me-a-hanzi-clip-0">
        <path d="M 247 712 Q 278 684 311 649 Q 326 634 343 634 Q 355 634 361 649 Q 367 665 358 698 Q 352 720 318 739 Q 237 773 220 767 Q 214 763 215 749 Q 219 736 247 712 Z"></path>
      </clipPath>
      <path clip-path="url(#make-me-a-hanzi-clip-0)" d="M 224 760 L 316 697 L 342 654" fill="none" id="make-me-a-hanzi-animation-0" stroke-dasharray="290 580" stroke-linecap="round"></path>
    
      <clipPath id="make-me-a-hanzi-clip-1">
        <path d="M 145 482 Q 96 466 69 463 Q 56 463 53 456 Q 49 447 60 440 Q 82 427 98 425 Q 116 419 211 471 Q 236 484 245 477 Q 255 471 249 445 Q 249 274 215 159 Q 199 129 240 78 Q 250 66 260 73 Q 267 80 279 103 Q 321 154 408 240 Q 421 250 418 258 Q 417 267 406 257 Q 363 230 319 199 Q 271 160 280 219 Q 280 283 302 438 Q 306 462 327 485 Q 340 495 330 507 Q 320 523 281 540 Q 269 546 253 535 Q 184 495 145 482 Z"></path>
      </clipPath>
      <path clip-path="url(#make-me-a-hanzi-clip-1)" d="M 63 451 L 111 448 L 239 502 L 259 505 L 283 494 L 251 183 L 260 150 L 300 161 L 412 254" fill="none" id="make-me-a-hanzi-animation-1" stroke-dasharray="896 1792" stroke-linecap="round"></path>
    
      <clipPath id="make-me-a-hanzi-clip-2">
        <path d="M 507 773 Q 503 774 495 776 Q 483 779 481 774 Q 475 770 483 755 Q 508 701 523 614 Q 526 587 542 570 Q 558 551 562 565 Q 565 574 565 587 L 564 607 Q 563 614 562 622 Q 558 643 555 660 L 552 681 Q 543 732 543 747 C 542 764 536 766 507 773 Z"></path>
      </clipPath>
      <path clip-path="url(#make-me-a-hanzi-clip-2)" d="M 489 767 L 519 732 L 552 569" fill="none" id="make-me-a-hanzi-animation-2" stroke-dasharray="340 680" stroke-linecap="round"></path>
    
      <clipPath id="make-me-a-hanzi-clip-3">
        <path d="M 699 603 Q 715 581 729 574 Q 739 567 751 587 Q 761 603 781 697 Q 788 724 808 746 Q 820 756 809 769 Q 796 784 758 806 Q 749 810 593 786 Q 550 779 516 775 Q 510 775 507 773 C 478 768 515 736 543 747 Q 552 757 696 769 Q 715 770 723 764 Q 732 754 731 743 Q 721 652 714 638 Q 711 628 698 624 C 687 618 687 618 699 603 Z"></path>
      </clipPath>
      <path clip-path="url(#make-me-a-hanzi-clip-3)" d="M 524 771 L 544 764 L 698 786 L 728 785 L 752 775 L 767 753 L 741 636 L 730 610 L 707 619" fill="none" id="make-me-a-hanzi-animation-3" stroke-dasharray="560 1120" stroke-linecap="round"></path>
    
      <clipPath id="make-me-a-hanzi-clip-4">
        <path d="M 555 660 Q 558 660 565 661 Q 629 674 678 681 Q 696 685 689 694 Q 680 704 661 708 Q 634 711 552 681 C 524 671 525 658 555 660 Z"></path>
      </clipPath>
      <path clip-path="url(#make-me-a-hanzi-clip-4)" d="M 559 666 L 567 675 L 650 693 L 681 689" fill="none" id="make-me-a-hanzi-animation-4" stroke-dasharray="256 512" stroke-linecap="round"></path>
    
      <clipPath id="make-me-a-hanzi-clip-5">
        <path d="M 565 587 Q 568 587 573 587 Q 645 596 699 603 C 729 607 725 610 698 624 Q 677 639 568 608 Q 565 608 564 607 C 535 600 535 587 565 587 Z"></path>
      </clipPath>
      <path clip-path="url(#make-me-a-hanzi-clip-5)" d="M 569 592 L 582 602 L 642 612 L 685 615 L 691 608" fill="none" id="make-me-a-hanzi-animation-5" stroke-dasharray="258 516" stroke-linecap="round"></path>
    
      <clipPath id="make-me-a-hanzi-clip-6">
        <path d="M 444 505 Q 432 509 406 511 Q 396 512 392 508 Q 388 501 396 488 Q 421 448 442 379 Q 446 358 461 345 Q 479 327 482 341 Q 483 347 483 354 L 480 379 Q 480 383 479 387 Q 464 448 459 473 C 453 502 453 503 444 505 Z"></path>
      </clipPath>
      <path clip-path="url(#make-me-a-hanzi-clip-6)" d="M 400 503 L 430 479 L 472 345" fill="none" id="make-me-a-hanzi-animation-6" stroke-dasharray="307 614" stroke-linecap="round"></path>
    
      <clipPath id="make-me-a-hanzi-clip-7">
        <path d="M 793 389 Q 797 376 807 376 Q 819 377 826 390 Q 833 394 850 427 Q 866 472 898 497 Q 914 510 901 524 Q 886 540 843 564 Q 830 573 742 554 Q 708 554 563 524 Q 490 511 444 505 C 414 501 429 468 459 473 Q 466 473 474 475 Q 505 485 554 494 L 574 499 Q 613 508 669 513 L 701 519 Q 797 537 817 525 Q 823 521 819 502 Q 804 433 794 416 C 786 397 786 397 793 389 Z"></path>
      </clipPath>
      <path clip-path="url(#make-me-a-hanzi-clip-7)" d="M 451 502 L 469 491 L 756 544 L 824 546 L 839 538 L 858 511 L 808 391" fill="none" id="make-me-a-hanzi-animation-7" stroke-dasharray="689 1378" stroke-linecap="round"></path>
    
      <clipPath id="make-me-a-hanzi-clip-8">
        <path d="M 554 494 Q 557 475 558 454 Q 561 415 576 391 C 591 365 600 366 601 396 Q 602 415 597 436 Q 597 461 576 497 Q 575 498 574 499 C 554 522 549 524 554 494 Z"></path>
      </clipPath>
      <path clip-path="url(#make-me-a-hanzi-clip-8)" d="M 561 488 L 570 484 L 585 409 L 593 402" fill="none" id="make-me-a-hanzi-animation-8" stroke-dasharray="225 450" stroke-linecap="round"></path>
    
      <clipPath id="make-me-a-hanzi-clip-9">
        <path d="M 669 513 Q 678 495 661 425 Q 657 415 656 406 C 652 376 664 384 679 410 Q 683 417 689 426 Q 699 442 709 461 Q 713 470 722 481 Q 732 491 725 499 Q 718 509 701 519 C 675 535 659 541 669 513 Z"></path>
      </clipPath>
      <path clip-path="url(#make-me-a-hanzi-clip-9)" d="M 675 511 L 697 493 L 680 439 L 661 410" fill="none" id="make-me-a-hanzi-animation-9" stroke-dasharray="248 496" stroke-linecap="round"></path>
    
      <clipPath id="make-me-a-hanzi-clip-10">
        <path d="M 483 354 Q 486 351 509 352 Q 599 373 793 389 C 822 391 816 396 794 416 Q 791 420 786 423 Q 768 432 679 410 L 656 406 Q 628 402 601 396 L 576 391 Q 525 387 481 380 Q 480 380 480 379 C 451 372 454 360 483 354 Z"></path>
      </clipPath>
      <path clip-path="url(#make-me-a-hanzi-clip-10)" d="M 487 373 L 511 368 L 752 406 L 773 407 L 782 396" fill="none" id="make-me-a-hanzi-animation-10" stroke-dasharray="432 864" stroke-linecap="round"></path>
    
      <clipPath id="make-me-a-hanzi-clip-11">
        <path d="M 601 104 Q 531 49 390 13 Q 374 12 383 2 Q 390 -5 418 -3 Q 562 10 633 68 L 668 105 Q 707 151 733 223 Q 743 257 764 272 Q 780 285 764 301 Q 745 319 714 334 Q 693 343 672 334 Q 612 306 531 298 Q 504 297 493 290 Q 484 284 502 274 Q 527 259 566 271 Q 615 280 663 289 Q 681 295 680 274 Q 680 211 630 137 L 601 104 Z"></path>
      </clipPath>
      <path clip-path="url(#make-me-a-hanzi-clip-11)" d="M 501 284 L 531 281 L 584 289 L 686 312 L 707 302 L 719 281 L 681 170 L 653 126 L 614 83 L 562 52 L 478 21 L 389 6" fill="none" id="make-me-a-hanzi-animation-11" stroke-dasharray="832 1664" stroke-linecap="round"></path>
    
      <clipPath id="make-me-a-hanzi-clip-12">
        <path d="M 633 68 Q 732 -38 770 -42 Q 860 -42 923 -32 Q 957 -28 955 -18 Q 954 -14 789 39 Q 732 60 668 105 L 630 137 Q 591 170 553 208 Q 517 245 485 244 Q 467 245 465 240 Q 464 233 478 223 Q 524 196 601 104 L 633 68 Z"></path>
      </clipPath>
      <path clip-path="url(#make-me-a-hanzi-clip-12)" d="M 470 238 L 522 213 L 660 77 L 761 6 L 859 -13 L 952 -20" fill="none" id="make-me-a-hanzi-animation-12" stroke-dasharray="696 1392" stroke-linecap="round"></path>
    
  </g>
</svg>