<svg version="1.1" viewBox="0 0 1024 1024" xmlns="http://www.w3.org/2000/svg">
  <g stroke="lightgray" stroke-dasharray="1,1" stroke-width="1" transform="scale(4, 4)">
    <line x1="0" y1="0" x2="256" y2="256"></line>
    <line x1="256" y1="0" x2="0" y2="256"></line>
    <line x1="128" y1="0" x2="128" y2="256"></line>
    <line x1="0" y1="128" x2="256" y2="128"></line>
  </g>
  <g transform="scale(1, -1) translate(0, -900)">
    <style type="text/css">
      
        @keyframes keyframes0 {
          from {
            stroke: blue;
            stroke-dashoffset: 388;
            stroke-width: 128;
          }
          56% {
            animation-timing-function: step-end;
            stroke: blue;
            stroke-dashoffset: 0;
            stroke-width: 128;
          }
          to {
            stroke: black;
            stroke-width: 1024;
          }
        }
        #make-me-a-hanzi-animation-0 {
          animation: keyframes0 0.5657552083333334s both;
          animation-delay: 0s;
          animation-timing-function: linear;
        }
      
        @keyframes keyframes1 {
          from {
            stroke: blue;
            stroke-dashoffset: 1002;
            stroke-width: 128;
          }
          77% {
            animation-timing-function: step-end;
            stroke: blue;
            stroke-dashoffset: 0;
            stroke-width: 128;
          }
          to {
            stroke: black;
            stroke-width: 1024;
          }
        }
        #make-me-a-hanzi-animation-1 {
          animation: keyframes1 1.0654296875s both;
          animation-delay: 0.5657552083333334s;
          animation-timing-function: linear;
        }
      
        @keyframes keyframes2 {
          from {
            stroke: blue;
            stroke-dashoffset: 393;
            stroke-width: 128;
          }
          56% {
            animation-timing-function: step-end;
            stroke: blue;
            stroke-dashoffset: 0;
            stroke-width: 128;
          }
          to {
            stroke: black;
            stroke-width: 1024;
          }
        }
        #make-me-a-hanzi-animation-2 {
          animation: keyframes2 0.56982421875s both;
          animation-delay: 1.6311848958333335s;
          animation-timing-function: linear;
        }
      
        @keyframes keyframes3 {
          from {
            stroke: blue;
            stroke-dashoffset: 731;
            stroke-width: 128;
          }
          70% {
            animation-timing-function: step-end;
            stroke: blue;
            stroke-dashoffset: 0;
            stroke-width: 128;
          }
          to {
            stroke: black;
            stroke-width: 1024;
          }
        }
        #make-me-a-hanzi-animation-3 {
          animation: keyframes3 0.8448893229166666s both;
          animation-delay: 2.2010091145833335s;
          animation-timing-function: linear;
        }
      
        @keyframes keyframes4 {
          from {
            stroke: blue;
            stroke-dashoffset: 340;
            stroke-width: 128;
          }
          53% {
            animation-timing-function: step-end;
            stroke: blue;
            stroke-dashoffset: 0;
            stroke-width: 128;
          }
          to {
            stroke: black;
            stroke-width: 1024;
          }
        }
        #make-me-a-hanzi-animation-4 {
          animation: keyframes4 0.5266927083333334s both;
          animation-delay: 3.0458984375s;
          animation-timing-function: linear;
        }
      
        @keyframes keyframes5 {
          from {
            stroke: blue;
            stroke-dashoffset: 418;
            stroke-width: 128;
          }
          58% {
            animation-timing-function: step-end;
            stroke: blue;
            stroke-dashoffset: 0;
            stroke-width: 128;
          }
          to {
            stroke: black;
            stroke-width: 1024;
          }
        }
        #make-me-a-hanzi-animation-5 {
          animation: keyframes5 0.5901692708333334s both;
          animation-delay: 3.5725911458333335s;
          animation-timing-function: linear;
        }
      
        @keyframes keyframes6 {
          from {
            stroke: blue;
            stroke-dashoffset: 701;
            stroke-width: 128;
          }
          70% {
            animation-timing-function: step-end;
            stroke: blue;
            stroke-dashoffset: 0;
            stroke-width: 128;
          }
          to {
            stroke: black;
            stroke-width: 1024;
          }
        }
        #make-me-a-hanzi-animation-6 {
          animation: keyframes6 0.8204752604166666s both;
          animation-delay: 4.162760416666667s;
          animation-timing-function: linear;
        }
      
        @keyframes keyframes7 {
          from {
            stroke: blue;
            stroke-dashoffset: 1204;
            stroke-width: 128;
          }
          80% {
            animation-timing-function: step-end;
            stroke: blue;
            stroke-dashoffset: 0;
            stroke-width: 128;
          }
          to {
            stroke: black;
            stroke-width: 1024;
          }
        }
        #make-me-a-hanzi-animation-7 {
          animation: keyframes7 1.2298177083333333s both;
          animation-delay: 4.983235677083334s;
          animation-timing-function: linear;
        }
      
        @keyframes keyframes8 {
          from {
            stroke: blue;
            stroke-dashoffset: 465;
            stroke-width: 128;
          }
          60% {
            animation-timing-function: step-end;
            stroke: blue;
            stroke-dashoffset: 0;
            stroke-width: 128;
          }
          to {
            stroke: black;
            stroke-width: 1024;
          }
        }
        #make-me-a-hanzi-animation-8 {
          animation: keyframes8 0.62841796875s both;
          animation-delay: 6.213053385416667s;
          animation-timing-function: linear;
        }
      
        @keyframes keyframes9 {
          from {
            stroke: blue;
            stroke-dashoffset: 447;
            stroke-width: 128;
          }
          59% {
            animation-timing-function: step-end;
            stroke: blue;
            stroke-dashoffset: 0;
            stroke-width: 128;
          }
          to {
            stroke: black;
            stroke-width: 1024;
          }
        }
        #make-me-a-hanzi-animation-9 {
          animation: keyframes9 0.61376953125s both;
          animation-delay: 6.841471354166667s;
          animation-timing-function: linear;
        }
      
        @keyframes keyframes10 {
          from {
            stroke: blue;
            stroke-dashoffset: 421;
            stroke-width: 128;
          }
          58% {
            animation-timing-function: step-end;
            stroke: blue;
            stroke-dashoffset: 0;
            stroke-width: 128;
          }
          to {
            stroke: black;
            stroke-width: 1024;
          }
        }
        #make-me-a-hanzi-animation-10 {
          animation: keyframes10 0.5926106770833334s both;
          animation-delay: 7.455240885416667s;
          animation-timing-function: linear;
        }
      
        @keyframes keyframes11 {
          from {
            stroke: blue;
            stroke-dashoffset: 515;
            stroke-width: 128;
          }
          63% {
            animation-timing-function: step-end;
            stroke: blue;
            stroke-dashoffset: 0;
            stroke-width: 128;
          }
          to {
            stroke: black;
            stroke-width: 1024;
          }
        }
        #make-me-a-hanzi-animation-11 {
          animation: keyframes11 0.6691080729166666s both;
          animation-delay: 8.0478515625s;
          animation-timing-function: linear;
        }
      
        @keyframes keyframes12 {
          from {
            stroke: blue;
            stroke-dashoffset: 416;
            stroke-width: 128;
          }
          58% {
            animation-timing-function: step-end;
            stroke: blue;
            stroke-dashoffset: 0;
            stroke-width: 128;
          }
          to {
            stroke: black;
            stroke-width: 1024;
          }
        }
        #make-me-a-hanzi-animation-12 {
          animation: keyframes12 0.5885416666666666s both;
          animation-delay: 8.716959635416666s;
          animation-timing-function: linear;
        }
      
    </style>
    
      <path d="M 236 748 Q 311 666 341 667 Q 357 666 364 689 Q 365 705 352 730 Q 339 751 307 760 Q 259 779 239 782 Q 227 783 227 769 Q 226 759 236 748 Z" fill="lightgray"></path>
    
      <path d="M 144 467 Q 95 451 69 447 Q 54 447 52 439 Q 49 432 60 424 Q 82 411 98 409 Q 119 406 219 462 Q 243 475 252 468 Q 262 462 257 438 Q 250 255 220 160 Q 202 127 248 81 Q 258 69 268 76 Q 275 83 286 107 Q 319 162 391 259 Q 401 271 398 278 Q 395 285 386 275 Q 349 244 311 208 Q 283 181 286 219 Q 286 280 309 430 Q 313 454 334 477 Q 347 487 337 499 Q 327 515 288 531 Q 278 537 260 526 Q 187 483 144 467 Z" fill="lightgray"></path>
    
      <path d="M 572 783 Q 599 761 627 734 Q 642 721 657 722 Q 667 723 673 736 Q 677 752 667 781 Q 661 800 630 814 Q 560 838 544 831 Q 540 827 541 814 Q 545 804 572 783 Z" fill="lightgray"></path>
    
      <path d="M 719 655 Q 770 661 835 663 Q 884 663 892 673 Q 896 683 881 695 Q 830 731 763 710 Q 609 677 418 644 Q 399 641 414 627 Q 427 615 443 611 Q 462 607 477 612 Q 588 645 683 652 L 719 655 Z" fill="lightgray"></path>
    
      <path d="M 494 577 Q 528 511 549 505 Q 559 502 567 515 Q 570 525 566 541 Q 562 557 543 570 Q 515 592 502 597 Q 495 600 493 591 Q 490 585 494 577 Z" fill="lightgray"></path>
    
      <path d="M 672 513 Q 690 532 721 578 Q 728 590 742 604 Q 755 614 749 624 Q 742 639 719 655 C 695 673 673 680 683 652 L 684 650 Q 693 623 654 535 Q 647 519 645 507 C 639 478 652 491 672 513 Z" fill="lightgray"></path>
    
      <path d="M 454 474 Q 424 489 407 489 Q 394 485 400 473 Q 454 358 405 160 Q 387 102 387 99 Q 387 69 407 45 Q 414 32 424 37 Q 457 62 461 183 Q 465 388 469 437 C 471 466 471 466 454 474 Z" fill="lightgray"></path>
    
      <path d="M 601 467 Q 662 482 736 493 Q 758 497 769 486 Q 779 482 783 434 Q 796 277 791 98 Q 791 73 781 65 Q 768 55 700 63 Q 684 64 686 55 Q 687 48 700 44 Q 763 7 796 -25 Q 817 -43 829 -39 Q 841 -36 850 -9 Q 863 34 860 98 Q 832 426 851 468 Q 861 489 852 500 Q 842 513 796 535 Q 778 544 760 539 Q 729 529 672 513 L 645 507 Q 635 506 627 503 Q 543 487 454 474 C 424 470 440 431 469 437 Q 475 437 484 439 Q 526 451 574 461 L 601 467 Z" fill="lightgray"></path>
    
      <path d="M 625 352 Q 721 373 727 377 Q 734 384 731 391 Q 724 400 701 405 Q 674 411 631 392 L 587 380 Q 556 374 522 370 Q 494 364 514 351 Q 542 336 587 343 L 625 352 Z" fill="lightgray"></path>
    
      <path d="M 614 287 Q 620 321 625 352 L 631 392 Q 631 393 632 394 Q 636 409 638 418 Q 642 427 644 433 Q 647 440 634 451 Q 615 463 601 467 C 573 477 569 478 574 461 Q 574 458 577 452 Q 586 437 587 380 L 587 343 Q 586 312 583 279 C 580 249 609 257 614 287 Z" fill="lightgray"></path>
    
      <path d="M 532 272 Q 523 276 500 280 Q 491 281 488 278 Q 484 274 490 260 Q 511 220 524 154 Q 527 135 539 121 Q 554 105 557 116 Q 560 126 560 141 L 556 169 Q 546 230 544 249 C 542 268 542 268 532 272 Z" fill="lightgray"></path>
    
      <path d="M 704 192 Q 720 235 736 248 Q 755 269 738 282 Q 722 292 700 308 Q 685 318 669 309 Q 644 296 614 287 L 583 279 Q 559 276 532 272 C 502 268 515 243 544 249 Q 550 250 640 269 Q 667 273 673 263 Q 677 259 671 236 Q 667 217 659 193 C 650 164 693 164 704 192 Z" fill="lightgray"></path>
    
      <path d="M 560 141 Q 566 141 573 142 Q 619 152 718 162 Q 727 163 728 170 Q 728 177 704 192 C 691 200 688 200 659 193 Q 601 180 556 169 C 527 162 530 140 560 141 Z" fill="lightgray"></path>
    
    
      <clipPath id="make-me-a-hanzi-clip-0">
        <path d="M 236 748 Q 311 666 341 667 Q 357 666 364 689 Q 365 705 352 730 Q 339 751 307 760 Q 259 779 239 782 Q 227 783 227 769 Q 226 759 236 748 Z"></path>
      </clipPath>
      <path clip-path="url(#make-me-a-hanzi-clip-0)" d="M 237 772 L 321 714 L 340 691" fill="none" id="make-me-a-hanzi-animation-0" stroke-dasharray="260 520" stroke-linecap="round"></path>
    
      <clipPath id="make-me-a-hanzi-clip-1">
        <path d="M 144 467 Q 95 451 69 447 Q 54 447 52 439 Q 49 432 60 424 Q 82 411 98 409 Q 119 406 219 462 Q 243 475 252 468 Q 262 462 257 438 Q 250 255 220 160 Q 202 127 248 81 Q 258 69 268 76 Q 275 83 286 107 Q 319 162 391 259 Q 401 271 398 278 Q 395 285 386 275 Q 349 244 311 208 Q 283 181 286 219 Q 286 280 309 430 Q 313 454 334 477 Q 347 487 337 499 Q 327 515 288 531 Q 278 537 260 526 Q 187 483 144 467 Z"></path>
      </clipPath>
      <path clip-path="url(#make-me-a-hanzi-clip-1)" d="M 61 436 L 97 431 L 119 436 L 247 494 L 281 493 L 289 486 L 260 222 L 266 160 L 294 169 L 318 189 L 393 274" fill="none" id="make-me-a-hanzi-animation-1" stroke-dasharray="874 1748" stroke-linecap="round"></path>
    
      <clipPath id="make-me-a-hanzi-clip-2">
        <path d="M 572 783 Q 599 761 627 734 Q 642 721 657 722 Q 667 723 673 736 Q 677 752 667 781 Q 661 800 630 814 Q 560 838 544 831 Q 540 827 541 814 Q 545 804 572 783 Z"></path>
      </clipPath>
      <path clip-path="url(#make-me-a-hanzi-clip-2)" d="M 549 825 L 636 771 L 654 742" fill="none" id="make-me-a-hanzi-animation-2" stroke-dasharray="265 530" stroke-linecap="round"></path>
    
      <clipPath id="make-me-a-hanzi-clip-3">
        <path d="M 719 655 Q 770 661 835 663 Q 884 663 892 673 Q 896 683 881 695 Q 830 731 763 710 Q 609 677 418 644 Q 399 641 414 627 Q 427 615 443 611 Q 462 607 477 612 Q 588 645 683 652 L 719 655 Z"></path>
      </clipPath>
      <path clip-path="url(#make-me-a-hanzi-clip-3)" d="M 416 636 L 460 630 L 626 665 L 792 689 L 840 688 L 884 678" fill="none" id="make-me-a-hanzi-animation-3" stroke-dasharray="603 1206" stroke-linecap="round"></path>
    
      <clipPath id="make-me-a-hanzi-clip-4">
        <path d="M 494 577 Q 528 511 549 505 Q 559 502 567 515 Q 570 525 566 541 Q 562 557 543 570 Q 515 592 502 597 Q 495 600 493 591 Q 490 585 494 577 Z"></path>
      </clipPath>
      <path clip-path="url(#make-me-a-hanzi-clip-4)" d="M 502 587 L 544 538 L 552 520" fill="none" id="make-me-a-hanzi-animation-4" stroke-dasharray="212 424" stroke-linecap="round"></path>
    
      <clipPath id="make-me-a-hanzi-clip-5">
        <path d="M 672 513 Q 690 532 721 578 Q 728 590 742 604 Q 755 614 749 624 Q 742 639 719 655 C 695 673 673 680 683 652 L 684 650 Q 693 623 654 535 Q 647 519 645 507 C 639 478 652 491 672 513 Z"></path>
      </clipPath>
      <path clip-path="url(#make-me-a-hanzi-clip-5)" d="M 691 647 L 715 619 L 683 555 L 651 512" fill="none" id="make-me-a-hanzi-animation-5" stroke-dasharray="290 580" stroke-linecap="round"></path>
    
      <clipPath id="make-me-a-hanzi-clip-6">
        <path d="M 454 474 Q 424 489 407 489 Q 394 485 400 473 Q 454 358 405 160 Q 387 102 387 99 Q 387 69 407 45 Q 414 32 424 37 Q 457 62 461 183 Q 465 388 469 437 C 471 466 471 466 454 474 Z"></path>
      </clipPath>
      <path clip-path="url(#make-me-a-hanzi-clip-6)" d="M 408 479 L 438 446 L 447 372 L 445 265 L 436 173 L 419 94 L 419 48" fill="none" id="make-me-a-hanzi-animation-6" stroke-dasharray="573 1146" stroke-linecap="round"></path>
    
      <clipPath id="make-me-a-hanzi-clip-7">
        <path d="M 601 467 Q 662 482 736 493 Q 758 497 769 486 Q 779 482 783 434 Q 796 277 791 98 Q 791 73 781 65 Q 768 55 700 63 Q 684 64 686 55 Q 687 48 700 44 Q 763 7 796 -25 Q 817 -43 829 -39 Q 841 -36 850 -9 Q 863 34 860 98 Q 832 426 851 468 Q 861 489 852 500 Q 842 513 796 535 Q 778 544 760 539 Q 729 529 672 513 L 645 507 Q 635 506 627 503 Q 543 487 454 474 C 424 470 440 431 469 437 Q 475 437 484 439 Q 526 451 574 461 L 601 467 Z"></path>
      </clipPath>
      <path clip-path="url(#make-me-a-hanzi-clip-7)" d="M 463 470 L 486 459 L 748 515 L 781 512 L 813 484 L 825 161 L 822 57 L 809 27 L 694 56" fill="none" id="make-me-a-hanzi-animation-7" stroke-dasharray="1076 2152" stroke-linecap="round"></path>
    
      <clipPath id="make-me-a-hanzi-clip-8">
        <path d="M 625 352 Q 721 373 727 377 Q 734 384 731 391 Q 724 400 701 405 Q 674 411 631 392 L 587 380 Q 556 374 522 370 Q 494 364 514 351 Q 542 336 587 343 L 625 352 Z"></path>
      </clipPath>
      <path clip-path="url(#make-me-a-hanzi-clip-8)" d="M 516 361 L 562 357 L 684 386 L 721 386" fill="none" id="make-me-a-hanzi-animation-8" stroke-dasharray="337 674" stroke-linecap="round"></path>
    
      <clipPath id="make-me-a-hanzi-clip-9">
        <path d="M 614 287 Q 620 321 625 352 L 631 392 Q 631 393 632 394 Q 636 409 638 418 Q 642 427 644 433 Q 647 440 634 451 Q 615 463 601 467 C 573 477 569 478 574 461 Q 574 458 577 452 Q 586 437 587 380 L 587 343 Q 586 312 583 279 C 580 249 609 257 614 287 Z"></path>
      </clipPath>
      <path clip-path="url(#make-me-a-hanzi-clip-9)" d="M 582 459 L 612 430 L 602 310 L 587 285" fill="none" id="make-me-a-hanzi-animation-9" stroke-dasharray="319 638" stroke-linecap="round"></path>
    
      <clipPath id="make-me-a-hanzi-clip-10">
        <path d="M 532 272 Q 523 276 500 280 Q 491 281 488 278 Q 484 274 490 260 Q 511 220 524 154 Q 527 135 539 121 Q 554 105 557 116 Q 560 126 560 141 L 556 169 Q 546 230 544 249 C 542 268 542 268 532 272 Z"></path>
      </clipPath>
      <path clip-path="url(#make-me-a-hanzi-clip-10)" d="M 495 273 L 522 243 L 549 121" fill="none" id="make-me-a-hanzi-animation-10" stroke-dasharray="293 586" stroke-linecap="round"></path>
    
      <clipPath id="make-me-a-hanzi-clip-11">
        <path d="M 704 192 Q 720 235 736 248 Q 755 269 738 282 Q 722 292 700 308 Q 685 318 669 309 Q 644 296 614 287 L 583 279 Q 559 276 532 272 C 502 268 515 243 544 249 Q 550 250 640 269 Q 667 273 673 263 Q 677 259 671 236 Q 667 217 659 193 C 650 164 693 164 704 192 Z"></path>
      </clipPath>
      <path clip-path="url(#make-me-a-hanzi-clip-11)" d="M 539 268 L 557 263 L 655 286 L 686 286 L 706 264 L 689 215 L 667 199" fill="none" id="make-me-a-hanzi-animation-11" stroke-dasharray="387 774" stroke-linecap="round"></path>
    
      <clipPath id="make-me-a-hanzi-clip-12">
        <path d="M 560 141 Q 566 141 573 142 Q 619 152 718 162 Q 727 163 728 170 Q 728 177 704 192 C 691 200 688 200 659 193 Q 601 180 556 169 C 527 162 530 140 560 141 Z"></path>
      </clipPath>
      <path clip-path="url(#make-me-a-hanzi-clip-12)" d="M 564 163 L 573 157 L 696 177 L 720 170" fill="none" id="make-me-a-hanzi-animation-12" stroke-dasharray="288 576" stroke-linecap="round"></path>
    
  </g>
</svg>