<svg version="1.1" viewBox="0 0 1024 1024" xmlns="http://www.w3.org/2000/svg">
  <g stroke="lightgray" stroke-dasharray="1,1" stroke-width="1" transform="scale(4, 4)">
    <line x1="0" y1="0" x2="256" y2="256"></line>
    <line x1="256" y1="0" x2="0" y2="256"></line>
    <line x1="128" y1="0" x2="128" y2="256"></line>
    <line x1="0" y1="128" x2="256" y2="128"></line>
  </g>
  <g transform="scale(1, -1) translate(0, -900)">
    <style type="text/css">
      
        @keyframes keyframes0 {
          from {
            stroke: blue;
            stroke-dashoffset: 388;
            stroke-width: 128;
          }
          56% {
            animation-timing-function: step-end;
            stroke: blue;
            stroke-dashoffset: 0;
            stroke-width: 128;
          }
          to {
            stroke: black;
            stroke-width: 1024;
          }
        }
        #make-me-a-hanzi-animation-0 {
          animation: keyframes0 0.5657552083333334s both;
          animation-delay: 0s;
          animation-timing-function: linear;
        }
      
        @keyframes keyframes1 {
          from {
            stroke: blue;
            stroke-dashoffset: 426;
            stroke-width: 128;
          }
          58% {
            animation-timing-function: step-end;
            stroke: blue;
            stroke-dashoffset: 0;
            stroke-width: 128;
          }
          to {
            stroke: black;
            stroke-width: 1024;
          }
        }
        #make-me-a-hanzi-animation-1 {
          animation: keyframes1 0.5966796875s both;
          animation-delay: 0.5657552083333334s;
          animation-timing-function: linear;
        }
      
        @keyframes keyframes2 {
          from {
            stroke: blue;
            stroke-dashoffset: 643;
            stroke-width: 128;
          }
          68% {
            animation-timing-function: step-end;
            stroke: blue;
            stroke-dashoffset: 0;
            stroke-width: 128;
          }
          to {
            stroke: black;
            stroke-width: 1024;
          }
        }
        #make-me-a-hanzi-animation-2 {
          animation: keyframes2 0.7732747395833334s both;
          animation-delay: 1.1624348958333335s;
          animation-timing-function: linear;
        }
      
        @keyframes keyframes3 {
          from {
            stroke: blue;
            stroke-dashoffset: 503;
            stroke-width: 128;
          }
          62% {
            animation-timing-function: step-end;
            stroke: blue;
            stroke-dashoffset: 0;
            stroke-width: 128;
          }
          to {
            stroke: black;
            stroke-width: 1024;
          }
        }
        #make-me-a-hanzi-animation-3 {
          animation: keyframes3 0.6593424479166666s both;
          animation-delay: 1.935709635416667s;
          animation-timing-function: linear;
        }
      
        @keyframes keyframes4 {
          from {
            stroke: blue;
            stroke-dashoffset: 495;
            stroke-width: 128;
          }
          62% {
            animation-timing-function: step-end;
            stroke: blue;
            stroke-dashoffset: 0;
            stroke-width: 128;
          }
          to {
            stroke: black;
            stroke-width: 1024;
          }
        }
        #make-me-a-hanzi-animation-4 {
          animation: keyframes4 0.65283203125s both;
          animation-delay: 2.5950520833333335s;
          animation-timing-function: linear;
        }
      
        @keyframes keyframes5 {
          from {
            stroke: blue;
            stroke-dashoffset: 645;
            stroke-width: 128;
          }
          68% {
            animation-timing-function: step-end;
            stroke: blue;
            stroke-dashoffset: 0;
            stroke-width: 128;
          }
          to {
            stroke: black;
            stroke-width: 1024;
          }
        }
        #make-me-a-hanzi-animation-5 {
          animation: keyframes5 0.77490234375s both;
          animation-delay: 3.2478841145833335s;
          animation-timing-function: linear;
        }
      
        @keyframes keyframes6 {
          from {
            stroke: blue;
            stroke-dashoffset: 633;
            stroke-width: 128;
          }
          67% {
            animation-timing-function: step-end;
            stroke: blue;
            stroke-dashoffset: 0;
            stroke-width: 128;
          }
          to {
            stroke: black;
            stroke-width: 1024;
          }
        }
        #make-me-a-hanzi-animation-6 {
          animation: keyframes6 0.76513671875s both;
          animation-delay: 4.022786458333334s;
          animation-timing-function: linear;
        }
      
        @keyframes keyframes7 {
          from {
            stroke: blue;
            stroke-dashoffset: 452;
            stroke-width: 128;
          }
          60% {
            animation-timing-function: step-end;
            stroke: blue;
            stroke-dashoffset: 0;
            stroke-width: 128;
          }
          to {
            stroke: black;
            stroke-width: 1024;
          }
        }
        #make-me-a-hanzi-animation-7 {
          animation: keyframes7 0.6178385416666666s both;
          animation-delay: 4.787923177083334s;
          animation-timing-function: linear;
        }
      
        @keyframes keyframes8 {
          from {
            stroke: blue;
            stroke-dashoffset: 549;
            stroke-width: 128;
          }
          64% {
            animation-timing-function: step-end;
            stroke: blue;
            stroke-dashoffset: 0;
            stroke-width: 128;
          }
          to {
            stroke: black;
            stroke-width: 1024;
          }
        }
        #make-me-a-hanzi-animation-8 {
          animation: keyframes8 0.69677734375s both;
          animation-delay: 5.405761718750001s;
          animation-timing-function: linear;
        }
      
        @keyframes keyframes9 {
          from {
            stroke: blue;
            stroke-dashoffset: 426;
            stroke-width: 128;
          }
          58% {
            animation-timing-function: step-end;
            stroke: blue;
            stroke-dashoffset: 0;
            stroke-width: 128;
          }
          to {
            stroke: black;
            stroke-width: 1024;
          }
        }
        #make-me-a-hanzi-animation-9 {
          animation: keyframes9 0.5966796875s both;
          animation-delay: 6.102539062500001s;
          animation-timing-function: linear;
        }
      
        @keyframes keyframes10 {
          from {
            stroke: blue;
            stroke-dashoffset: 497;
            stroke-width: 128;
          }
          62% {
            animation-timing-function: step-end;
            stroke: blue;
            stroke-dashoffset: 0;
            stroke-width: 128;
          }
          to {
            stroke: black;
            stroke-width: 1024;
          }
        }
        #make-me-a-hanzi-animation-10 {
          animation: keyframes10 0.6544596354166666s both;
          animation-delay: 6.699218750000001s;
          animation-timing-function: linear;
        }
      
        @keyframes keyframes11 {
          from {
            stroke: blue;
            stroke-dashoffset: 430;
            stroke-width: 128;
          }
          58% {
            animation-timing-function: step-end;
            stroke: blue;
            stroke-dashoffset: 0;
            stroke-width: 128;
          }
          to {
            stroke: black;
            stroke-width: 1024;
          }
        }
        #make-me-a-hanzi-animation-11 {
          animation: keyframes11 0.5999348958333334s both;
          animation-delay: 7.353678385416668s;
          animation-timing-function: linear;
        }
      
        @keyframes keyframes12 {
          from {
            stroke: blue;
            stroke-dashoffset: 620;
            stroke-width: 128;
          }
          67% {
            animation-timing-function: step-end;
            stroke: blue;
            stroke-dashoffset: 0;
            stroke-width: 128;
          }
          to {
            stroke: black;
            stroke-width: 1024;
          }
        }
        #make-me-a-hanzi-animation-12 {
          animation: keyframes12 0.7545572916666666s both;
          animation-delay: 7.953613281250001s;
          animation-timing-function: linear;
        }
      
        @keyframes keyframes13 {
          from {
            stroke: blue;
            stroke-dashoffset: 640;
            stroke-width: 128;
          }
          68% {
            animation-timing-function: step-end;
            stroke: blue;
            stroke-dashoffset: 0;
            stroke-width: 128;
          }
          to {
            stroke: black;
            stroke-width: 1024;
          }
        }
        #make-me-a-hanzi-animation-13 {
          animation: keyframes13 0.7708333333333334s both;
          animation-delay: 8.708170572916668s;
          animation-timing-function: linear;
        }
      
        @keyframes keyframes14 {
          from {
            stroke: blue;
            stroke-dashoffset: 468;
            stroke-width: 128;
          }
          60% {
            animation-timing-function: step-end;
            stroke: blue;
            stroke-dashoffset: 0;
            stroke-width: 128;
          }
          to {
            stroke: black;
            stroke-width: 1024;
          }
        }
        #make-me-a-hanzi-animation-14 {
          animation: keyframes14 0.630859375s both;
          animation-delay: 9.479003906250002s;
          animation-timing-function: linear;
        }
      
        @keyframes keyframes15 {
          from {
            stroke: blue;
            stroke-dashoffset: 610;
            stroke-width: 128;
          }
          67% {
            animation-timing-function: step-end;
            stroke: blue;
            stroke-dashoffset: 0;
            stroke-width: 128;
          }
          to {
            stroke: black;
            stroke-width: 1024;
          }
        }
        #make-me-a-hanzi-animation-15 {
          animation: keyframes15 0.7464192708333334s both;
          animation-delay: 10.109863281250002s;
          animation-timing-function: linear;
        }
      
        @keyframes keyframes16 {
          from {
            stroke: blue;
            stroke-dashoffset: 469;
            stroke-width: 128;
          }
          60% {
            animation-timing-function: step-end;
            stroke: blue;
            stroke-dashoffset: 0;
            stroke-width: 128;
          }
          to {
            stroke: black;
            stroke-width: 1024;
          }
        }
        #make-me-a-hanzi-animation-16 {
          animation: keyframes16 0.6316731770833334s both;
          animation-delay: 10.856282552083336s;
          animation-timing-function: linear;
        }
      
    </style>
    
      <path d="M 295 796 Q 323 774 352 749 Q 365 737 379 739 Q 389 740 393 752 Q 397 765 387 793 Q 375 823 288 839 Q 273 842 268 839 Q 264 835 265 823 Q 269 813 295 796 Z" fill="lightgray"></path>
    
      <path d="M 175 661 Q 168 685 154 693 Q 138 703 138 684 Q 142 660 100 597 Q 73 570 99 522 Q 112 503 127 524 Q 140 546 151 580 Q 161 614 170 636 C 177 654 177 654 175 661 Z" fill="lightgray"></path>
    
      <path d="M 170 636 Q 189 626 210 632 Q 306 669 403 680 Q 410 681 415 681 Q 431 672 429 665 Q 429 662 412 606 Q 408 596 413 593 Q 419 590 430 601 Q 469 632 502 645 Q 530 657 528 663 Q 527 670 469 708 Q 451 721 354 698 Q 333 698 175 661 C 146 654 142 647 170 636 Z" fill="lightgray"></path>
    
      <path d="M 337 496 Q 430 520 432 522 Q 439 529 435 537 Q 428 547 401 554 Q 374 558 347 547 Q 343 546 341 544 L 294 529 Q 284 528 278 525 Q 238 515 191 510 Q 158 504 182 489 Q 219 471 282 485 Q 288 486 296 487 L 337 496 Z" fill="lightgray"></path>
    
      <path d="M 332 409 Q 360 416 392 422 Q 423 429 427 433 Q 434 440 430 447 Q 424 456 401 462 Q 365 468 334 450 L 296 439 Q 289 439 281 436 Q 239 426 191 422 Q 161 418 182 403 Q 215 385 272 398 Q 282 401 296 401 L 332 409 Z" fill="lightgray"></path>
    
      <path d="M 327 313 Q 382 326 446 336 Q 462 339 462 346 Q 463 358 445 366 Q 417 378 329 353 L 293 344 Q 146 311 76 301 Q 63 300 61 292 Q 58 282 73 271 Q 112 247 149 260 Q 273 305 291 304 L 327 313 Z" fill="lightgray"></path>
    
      <path d="M 329 353 Q 330 381 332 409 L 334 450 Q 335 474 337 496 L 341 544 Q 342 569 347 583 Q 354 599 344 608 Q 331 620 309 631 Q 291 638 272 631 Q 262 624 274 611 Q 293 566 294 529 L 296 487 Q 296 465 296 439 L 296 401 Q 295 371 293 344 L 291 304 Q 291 279 298 258 Q 302 248 311 254 Q 323 266 327 313 L 329 353 Z" fill="lightgray"></path>
    
      <path d="M 207 216 Q 197 220 170 223 Q 160 226 156 221 Q 152 215 159 201 Q 184 155 203 76 Q 207 54 221 38 Q 237 19 242 33 Q 245 43 244 60 L 239 91 Q 223 167 221 190 C 219 212 219 212 207 216 Z" fill="lightgray"></path>
    
      <path d="M 396 115 Q 412 175 431 194 Q 453 218 431 231 Q 412 241 387 259 Q 369 269 352 259 Q 310 234 207 216 C 177 211 192 183 221 190 Q 269 202 323 212 Q 351 219 357 207 Q 364 203 358 174 Q 354 149 348 118 C 342 89 388 86 396 115 Z" fill="lightgray"></path>
    
      <path d="M 244 60 Q 250 59 260 62 Q 306 72 409 83 Q 419 84 420 93 Q 420 100 396 115 C 378 127 377 126 348 118 Q 287 100 239 91 C 210 85 214 60 244 60 Z" fill="lightgray"></path>
    
      <path d="M 551 687 Q 563 665 521 587 Q 502 553 473 512 Q 466 505 463 499 Q 462 490 472 493 Q 508 499 596 617 Q 608 636 618 644 Q 625 653 622 664 Q 618 674 596 692 Q 575 705 560 706 Q 545 705 551 687 Z" fill="lightgray"></path>
    
      <path d="M 736 672 Q 770 635 806 590 Q 818 575 834 573 Q 846 572 853 585 Q 860 600 855 632 Q 851 674 739 723 Q 723 729 716 727 Q 710 724 710 710 Q 711 698 736 672 Z" fill="lightgray"></path>
    
      <path d="M 665 488 Q 675 507 684 517 Q 691 530 688 539 Q 684 552 656 554 Q 628 558 616 554 Q 609 551 609 538 Q 603 447 439 257 Q 421 238 446 247 Q 530 271 639 444 Q 639 445 653 468 L 665 488 Z" fill="lightgray"></path>
    
      <path d="M 653 468 Q 719 384 792 305 Q 811 284 846 282 Q 907 278 972 288 Q 988 289 990 293 Q 991 299 979 305 Q 805 377 762 408 Q 729 432 665 488 C 642 508 634 492 653 468 Z" fill="lightgray"></path>
    
      <path d="M 546 247 Q 533 253 509 257 Q 496 261 493 256 Q 486 250 494 234 Q 519 182 531 95 Q 534 70 548 52 Q 564 30 571 45 Q 575 55 575 70 L 573 104 Q 563 194 562 218 C 561 241 561 241 546 247 Z" fill="lightgray"></path>
    
      <path d="M 771 124 Q 792 196 822 219 Q 838 237 823 254 Q 757 308 696 282 Q 644 264 546 247 C 516 242 532 215 562 218 Q 574 218 708 243 Q 723 246 728 240 Q 738 231 736 213 Q 729 168 721 130 C 715 101 762 95 771 124 Z" fill="lightgray"></path>
    
      <path d="M 575 70 Q 584 69 595 71 Q 655 83 783 90 Q 793 91 795 99 Q 795 108 771 124 L 721 130 Q 720 130 719 130 Q 637 112 573 104 C 543 100 545 71 575 70 Z" fill="lightgray"></path>
    
    
      <clipPath id="make-me-a-hanzi-clip-0">
        <path d="M 295 796 Q 323 774 352 749 Q 365 737 379 739 Q 389 740 393 752 Q 397 765 387 793 Q 375 823 288 839 Q 273 842 268 839 Q 264 835 265 823 Q 269 813 295 796 Z"></path>
      </clipPath>
      <path clip-path="url(#make-me-a-hanzi-clip-0)" d="M 273 833 L 344 794 L 377 755" fill="none" id="make-me-a-hanzi-animation-0" stroke-dasharray="260 520" stroke-linecap="round"></path>
    
      <clipPath id="make-me-a-hanzi-clip-1">
        <path d="M 175 661 Q 168 685 154 693 Q 138 703 138 684 Q 142 660 100 597 Q 73 570 99 522 Q 112 503 127 524 Q 140 546 151 580 Q 161 614 170 636 C 177 654 177 654 175 661 Z"></path>
      </clipPath>
      <path clip-path="url(#make-me-a-hanzi-clip-1)" d="M 146 688 L 155 658 L 116 570 L 113 528" fill="none" id="make-me-a-hanzi-animation-1" stroke-dasharray="298 596" stroke-linecap="round"></path>
    
      <clipPath id="make-me-a-hanzi-clip-2">
        <path d="M 170 636 Q 189 626 210 632 Q 306 669 403 680 Q 410 681 415 681 Q 431 672 429 665 Q 429 662 412 606 Q 408 596 413 593 Q 419 590 430 601 Q 469 632 502 645 Q 530 657 528 663 Q 527 670 469 708 Q 451 721 354 698 Q 333 698 175 661 C 146 654 142 647 170 636 Z"></path>
      </clipPath>
      <path clip-path="url(#make-me-a-hanzi-clip-2)" d="M 179 641 L 293 675 L 368 691 L 425 695 L 449 687 L 465 668 L 416 600" fill="none" id="make-me-a-hanzi-animation-2" stroke-dasharray="515 1030" stroke-linecap="round"></path>
    
      <clipPath id="make-me-a-hanzi-clip-3">
        <path d="M 337 496 Q 430 520 432 522 Q 439 529 435 537 Q 428 547 401 554 Q 374 558 347 547 Q 343 546 341 544 L 294 529 Q 284 528 278 525 Q 238 515 191 510 Q 158 504 182 489 Q 219 471 282 485 Q 288 486 296 487 L 337 496 Z"></path>
      </clipPath>
      <path clip-path="url(#make-me-a-hanzi-clip-3)" d="M 184 501 L 240 497 L 382 532 L 427 531" fill="none" id="make-me-a-hanzi-animation-3" stroke-dasharray="375 750" stroke-linecap="round"></path>
    
      <clipPath id="make-me-a-hanzi-clip-4">
        <path d="M 332 409 Q 360 416 392 422 Q 423 429 427 433 Q 434 440 430 447 Q 424 456 401 462 Q 365 468 334 450 L 296 439 Q 289 439 281 436 Q 239 426 191 422 Q 161 418 182 403 Q 215 385 272 398 Q 282 401 296 401 L 332 409 Z"></path>
      </clipPath>
      <path clip-path="url(#make-me-a-hanzi-clip-4)" d="M 184 414 L 243 410 L 370 441 L 419 442" fill="none" id="make-me-a-hanzi-animation-4" stroke-dasharray="367 734" stroke-linecap="round"></path>
    
      <clipPath id="make-me-a-hanzi-clip-5">
        <path d="M 327 313 Q 382 326 446 336 Q 462 339 462 346 Q 463 358 445 366 Q 417 378 329 353 L 293 344 Q 146 311 76 301 Q 63 300 61 292 Q 58 282 73 271 Q 112 247 149 260 Q 273 305 291 304 L 327 313 Z"></path>
      </clipPath>
      <path clip-path="url(#make-me-a-hanzi-clip-5)" d="M 72 288 L 125 282 L 364 343 L 430 352 L 452 349" fill="none" id="make-me-a-hanzi-animation-5" stroke-dasharray="517 1034" stroke-linecap="round"></path>
    
      <clipPath id="make-me-a-hanzi-clip-6">
        <path d="M 329 353 Q 330 381 332 409 L 334 450 Q 335 474 337 496 L 341 544 Q 342 569 347 583 Q 354 599 344 608 Q 331 620 309 631 Q 291 638 272 631 Q 262 624 274 611 Q 293 566 294 529 L 296 487 Q 296 465 296 439 L 296 401 Q 295 371 293 344 L 291 304 Q 291 279 298 258 Q 302 248 311 254 Q 323 266 327 313 L 329 353 Z"></path>
      </clipPath>
      <path clip-path="url(#make-me-a-hanzi-clip-6)" d="M 279 622 L 304 606 L 316 590 L 307 263" fill="none" id="make-me-a-hanzi-animation-6" stroke-dasharray="505 1010" stroke-linecap="round"></path>
    
      <clipPath id="make-me-a-hanzi-clip-7">
        <path d="M 207 216 Q 197 220 170 223 Q 160 226 156 221 Q 152 215 159 201 Q 184 155 203 76 Q 207 54 221 38 Q 237 19 242 33 Q 245 43 244 60 L 239 91 Q 223 167 221 190 C 219 212 219 212 207 216 Z"></path>
      </clipPath>
      <path clip-path="url(#make-me-a-hanzi-clip-7)" d="M 164 216 L 190 195 L 196 183 L 232 38" fill="none" id="make-me-a-hanzi-animation-7" stroke-dasharray="324 648" stroke-linecap="round"></path>
    
      <clipPath id="make-me-a-hanzi-clip-8">
        <path d="M 396 115 Q 412 175 431 194 Q 453 218 431 231 Q 412 241 387 259 Q 369 269 352 259 Q 310 234 207 216 C 177 211 192 183 221 190 Q 269 202 323 212 Q 351 219 357 207 Q 364 203 358 174 Q 354 149 348 118 C 342 89 388 86 396 115 Z"></path>
      </clipPath>
      <path clip-path="url(#make-me-a-hanzi-clip-8)" d="M 218 213 L 228 206 L 359 236 L 376 231 L 396 209 L 377 141 L 354 125" fill="none" id="make-me-a-hanzi-animation-8" stroke-dasharray="421 842" stroke-linecap="round"></path>
    
      <clipPath id="make-me-a-hanzi-clip-9">
        <path d="M 244 60 Q 250 59 260 62 Q 306 72 409 83 Q 419 84 420 93 Q 420 100 396 115 C 378 127 377 126 348 118 Q 287 100 239 91 C 210 85 214 60 244 60 Z"></path>
      </clipPath>
      <path clip-path="url(#make-me-a-hanzi-clip-9)" d="M 248 69 L 258 78 L 353 98 L 389 99 L 411 92" fill="none" id="make-me-a-hanzi-animation-9" stroke-dasharray="298 596" stroke-linecap="round"></path>
    
      <clipPath id="make-me-a-hanzi-clip-10">
        <path d="M 551 687 Q 563 665 521 587 Q 502 553 473 512 Q 466 505 463 499 Q 462 490 472 493 Q 508 499 596 617 Q 608 636 618 644 Q 625 653 622 664 Q 618 674 596 692 Q 575 705 560 706 Q 545 705 551 687 Z"></path>
      </clipPath>
      <path clip-path="url(#make-me-a-hanzi-clip-10)" d="M 560 694 L 578 675 L 583 653 L 532 565 L 470 499" fill="none" id="make-me-a-hanzi-animation-10" stroke-dasharray="369 738" stroke-linecap="round"></path>
    
      <clipPath id="make-me-a-hanzi-clip-11">
        <path d="M 736 672 Q 770 635 806 590 Q 818 575 834 573 Q 846 572 853 585 Q 860 600 855 632 Q 851 674 739 723 Q 723 729 716 727 Q 710 724 710 710 Q 711 698 736 672 Z"></path>
      </clipPath>
      <path clip-path="url(#make-me-a-hanzi-clip-11)" d="M 721 719 L 813 638 L 835 592" fill="none" id="make-me-a-hanzi-animation-11" stroke-dasharray="302 604" stroke-linecap="round"></path>
    
      <clipPath id="make-me-a-hanzi-clip-12">
        <path d="M 665 488 Q 675 507 684 517 Q 691 530 688 539 Q 684 552 656 554 Q 628 558 616 554 Q 609 551 609 538 Q 603 447 439 257 Q 421 238 446 247 Q 530 271 639 444 Q 639 445 653 468 L 665 488 Z"></path>
      </clipPath>
      <path clip-path="url(#make-me-a-hanzi-clip-12)" d="M 672 533 L 642 518 L 600 430 L 536 340 L 481 281 L 448 256" fill="none" id="make-me-a-hanzi-animation-12" stroke-dasharray="492 984" stroke-linecap="round"></path>
    
      <clipPath id="make-me-a-hanzi-clip-13">
        <path d="M 653 468 Q 719 384 792 305 Q 811 284 846 282 Q 907 278 972 288 Q 988 289 990 293 Q 991 299 979 305 Q 805 377 762 408 Q 729 432 665 488 C 642 508 634 492 653 468 Z"></path>
      </clipPath>
      <path clip-path="url(#make-me-a-hanzi-clip-13)" d="M 670 478 L 668 468 L 709 425 L 828 327 L 884 311 L 985 295" fill="none" id="make-me-a-hanzi-animation-13" stroke-dasharray="512 1024" stroke-linecap="round"></path>
    
      <clipPath id="make-me-a-hanzi-clip-14">
        <path d="M 546 247 Q 533 253 509 257 Q 496 261 493 256 Q 486 250 494 234 Q 519 182 531 95 Q 534 70 548 52 Q 564 30 571 45 Q 575 55 575 70 L 573 104 Q 563 194 562 218 C 561 241 561 241 546 247 Z"></path>
      </clipPath>
      <path clip-path="url(#make-me-a-hanzi-clip-14)" d="M 500 248 L 524 229 L 534 210 L 560 52" fill="none" id="make-me-a-hanzi-animation-14" stroke-dasharray="340 680" stroke-linecap="round"></path>
    
      <clipPath id="make-me-a-hanzi-clip-15">
        <path d="M 771 124 Q 792 196 822 219 Q 838 237 823 254 Q 757 308 696 282 Q 644 264 546 247 C 516 242 532 215 562 218 Q 574 218 708 243 Q 723 246 728 240 Q 738 231 736 213 Q 729 168 721 130 C 715 101 762 95 771 124 Z"></path>
      </clipPath>
      <path clip-path="url(#make-me-a-hanzi-clip-15)" d="M 556 246 L 571 235 L 721 267 L 752 259 L 777 234 L 752 153 L 728 135" fill="none" id="make-me-a-hanzi-animation-15" stroke-dasharray="482 964" stroke-linecap="round"></path>
    
      <clipPath id="make-me-a-hanzi-clip-16">
        <path d="M 575 70 Q 584 69 595 71 Q 655 83 783 90 Q 793 91 795 99 Q 795 108 771 124 L 721 130 Q 720 130 719 130 Q 637 112 573 104 C 543 100 545 71 575 70 Z"></path>
      </clipPath>
      <path clip-path="url(#make-me-a-hanzi-clip-16)" d="M 580 76 L 595 90 L 720 108 L 763 107 L 785 99" fill="none" id="make-me-a-hanzi-animation-16" stroke-dasharray="341 682" stroke-linecap="round"></path>
    
  </g>
</svg>