<svg version="1.1" viewBox="0 0 1024 1024" xmlns="http://www.w3.org/2000/svg">
  <g stroke="lightgray" stroke-dasharray="1,1" stroke-width="1" transform="scale(4, 4)">
    <line x1="0" y1="0" x2="256" y2="256"></line>
    <line x1="256" y1="0" x2="0" y2="256"></line>
    <line x1="128" y1="0" x2="128" y2="256"></line>
    <line x1="0" y1="128" x2="256" y2="128"></line>
  </g>
  <g transform="scale(1, -1) translate(0, -900)">
    <style type="text/css">
      
        @keyframes keyframes0 {
          from {
            stroke: blue;
            stroke-dashoffset: 709;
            stroke-width: 128;
          }
          70% {
            animation-timing-function: step-end;
            stroke: blue;
            stroke-dashoffset: 0;
            stroke-width: 128;
          }
          to {
            stroke: black;
            stroke-width: 1024;
          }
        }
        #make-me-a-hanzi-animation-0 {
          animation: keyframes0 0.8269856770833334s both;
          animation-delay: 0s;
          animation-timing-function: linear;
        }
      
        @keyframes keyframes1 {
          from {
            stroke: blue;
            stroke-dashoffset: 905;
            stroke-width: 128;
          }
          75% {
            animation-timing-function: step-end;
            stroke: blue;
            stroke-dashoffset: 0;
            stroke-width: 128;
          }
          to {
            stroke: black;
            stroke-width: 1024;
          }
        }
        #make-me-a-hanzi-animation-1 {
          animation: keyframes1 0.9864908854166666s both;
          animation-delay: 0.8269856770833334s;
          animation-timing-function: linear;
        }
      
        @keyframes keyframes2 {
          from {
            stroke: blue;
            stroke-dashoffset: 360;
            stroke-width: 128;
          }
          54% {
            animation-timing-function: step-end;
            stroke: blue;
            stroke-dashoffset: 0;
            stroke-width: 128;
          }
          to {
            stroke: black;
            stroke-width: 1024;
          }
        }
        #make-me-a-hanzi-animation-2 {
          animation: keyframes2 0.54296875s both;
          animation-delay: 1.8134765625s;
          animation-timing-function: linear;
        }
      
        @keyframes keyframes3 {
          from {
            stroke: blue;
            stroke-dashoffset: 366;
            stroke-width: 128;
          }
          54% {
            animation-timing-function: step-end;
            stroke: blue;
            stroke-dashoffset: 0;
            stroke-width: 128;
          }
          to {
            stroke: black;
            stroke-width: 1024;
          }
        }
        #make-me-a-hanzi-animation-3 {
          animation: keyframes3 0.5478515625s both;
          animation-delay: 2.3564453125s;
          animation-timing-function: linear;
        }
      
        @keyframes keyframes4 {
          from {
            stroke: blue;
            stroke-dashoffset: 398;
            stroke-width: 128;
          }
          56% {
            animation-timing-function: step-end;
            stroke: blue;
            stroke-dashoffset: 0;
            stroke-width: 128;
          }
          to {
            stroke: black;
            stroke-width: 1024;
          }
        }
        #make-me-a-hanzi-animation-4 {
          animation: keyframes4 0.5738932291666666s both;
          animation-delay: 2.904296875s;
          animation-timing-function: linear;
        }
      
        @keyframes keyframes5 {
          from {
            stroke: blue;
            stroke-dashoffset: 511;
            stroke-width: 128;
          }
          62% {
            animation-timing-function: step-end;
            stroke: blue;
            stroke-dashoffset: 0;
            stroke-width: 128;
          }
          to {
            stroke: black;
            stroke-width: 1024;
          }
        }
        #make-me-a-hanzi-animation-5 {
          animation: keyframes5 0.6658528645833334s both;
          animation-delay: 3.4781901041666665s;
          animation-timing-function: linear;
        }
      
        @keyframes keyframes6 {
          from {
            stroke: blue;
            stroke-dashoffset: 396;
            stroke-width: 128;
          }
          56% {
            animation-timing-function: step-end;
            stroke: blue;
            stroke-dashoffset: 0;
            stroke-width: 128;
          }
          to {
            stroke: black;
            stroke-width: 1024;
          }
        }
        #make-me-a-hanzi-animation-6 {
          animation: keyframes6 0.572265625s both;
          animation-delay: 4.14404296875s;
          animation-timing-function: linear;
        }
      
        @keyframes keyframes7 {
          from {
            stroke: blue;
            stroke-dashoffset: 961;
            stroke-width: 128;
          }
          76% {
            animation-timing-function: step-end;
            stroke: blue;
            stroke-dashoffset: 0;
            stroke-width: 128;
          }
          to {
            stroke: black;
            stroke-width: 1024;
          }
        }
        #make-me-a-hanzi-animation-7 {
          animation: keyframes7 1.0320638020833333s both;
          animation-delay: 4.71630859375s;
          animation-timing-function: linear;
        }
      
        @keyframes keyframes8 {
          from {
            stroke: blue;
            stroke-dashoffset: 488;
            stroke-width: 128;
          }
          61% {
            animation-timing-function: step-end;
            stroke: blue;
            stroke-dashoffset: 0;
            stroke-width: 128;
          }
          to {
            stroke: black;
            stroke-width: 1024;
          }
        }
        #make-me-a-hanzi-animation-8 {
          animation: keyframes8 0.6471354166666666s both;
          animation-delay: 5.748372395833333s;
          animation-timing-function: linear;
        }
      
        @keyframes keyframes9 {
          from {
            stroke: blue;
            stroke-dashoffset: 499;
            stroke-width: 128;
          }
          62% {
            animation-timing-function: step-end;
            stroke: blue;
            stroke-dashoffset: 0;
            stroke-width: 128;
          }
          to {
            stroke: black;
            stroke-width: 1024;
          }
        }
        #make-me-a-hanzi-animation-9 {
          animation: keyframes9 0.6560872395833334s both;
          animation-delay: 6.3955078125s;
          animation-timing-function: linear;
        }
      
        @keyframes keyframes10 {
          from {
            stroke: blue;
            stroke-dashoffset: 699;
            stroke-width: 128;
          }
          69% {
            animation-timing-function: step-end;
            stroke: blue;
            stroke-dashoffset: 0;
            stroke-width: 128;
          }
          to {
            stroke: black;
            stroke-width: 1024;
          }
        }
        #make-me-a-hanzi-animation-10 {
          animation: keyframes10 0.81884765625s both;
          animation-delay: 7.051595052083333s;
          animation-timing-function: linear;
        }
      
        @keyframes keyframes11 {
          from {
            stroke: blue;
            stroke-dashoffset: 507;
            stroke-width: 128;
          }
          62% {
            animation-timing-function: step-end;
            stroke: blue;
            stroke-dashoffset: 0;
            stroke-width: 128;
          }
          to {
            stroke: black;
            stroke-width: 1024;
          }
        }
        #make-me-a-hanzi-animation-11 {
          animation: keyframes11 0.66259765625s both;
          animation-delay: 7.870442708333333s;
          animation-timing-function: linear;
        }
      
    </style>
    
      <path d="M 207 689 Q 194 702 174 709 Q 165 713 154 709 Q 147 705 152 693 Q 170 636 171 513 Q 165 392 154 348 Q 141 294 174 253 Q 184 240 194 252 L 202 266 L 208 296 Q 209 327 210 414 L 211 447 Q 212 495 213 530 L 214 560 Q 215 639 218 649 Q 219 656 219 662 C 221 678 221 678 207 689 Z" fill="lightgray"></path>
    
      <path d="M 341 283 Q 353 264 365 246 Q 381 221 389 224 Q 399 225 413 256 Q 422 278 422 358 Q 404 631 430 681 Q 440 700 432 711 Q 425 721 372 736 Q 347 745 330 734 Q 264 703 207 689 C 178 681 190 654 219 662 Q 223 663 230 665 Q 264 675 303 688 Q 339 700 352 689 Q 364 677 364 631 Q 368 438 362 333 Q 363 315 352 312 C 338 288 338 288 341 283 Z" fill="lightgray"></path>
    
      <path d="M 213 530 Q 270 540 313 548 Q 335 554 326 565 Q 314 578 290 580 Q 251 583 214 560 C 188 544 183 525 213 530 Z" fill="lightgray"></path>
    
      <path d="M 210 414 Q 268 427 313 435 Q 335 441 326 452 Q 314 465 288 468 Q 243 471 211 447 C 187 429 181 407 210 414 Z" fill="lightgray"></path>
    
      <path d="M 202 266 Q 281 278 341 283 C 371 286 378 297 352 312 Q 343 318 331 320 Q 310 323 208 296 C 179 288 172 262 202 266 Z" fill="lightgray"></path>
    
      <path d="M 205 217 Q 199 160 68 40 Q 49 25 74 29 Q 134 33 233 143 Q 239 158 274 187 Q 283 199 280 208 Q 277 220 253 226 Q 225 235 214 231 Q 207 230 205 217 Z" fill="lightgray"></path>
    
      <path d="M 349 149 Q 373 116 397 78 Q 406 63 420 61 Q 430 60 437 69 Q 444 81 444 109 Q 441 145 355 193 Q 342 200 336 199 Q 332 196 329 185 Q 330 175 349 149 Z" fill="lightgray"></path>
    
      <path d="M 814 522 Q 702 506 581 478 Q 568 474 564 477 Q 560 481 568 497 Q 707 714 738 751 Q 751 763 743 777 Q 736 790 680 815 Q 661 822 650 818 Q 635 811 643 788 Q 667 718 524 512 Q 500 487 463 459 Q 447 446 452 433 Q 459 414 488 391 Q 501 379 516 392 Q 568 435 831 494 Q 832 495 834 495 C 863 502 844 526 814 522 Z" fill="lightgray"></path>
    
      <path d="M 834 495 Q 904 402 909 400 Q 916 399 925 406 Q 938 416 932 458 Q 929 509 781 598 Q 774 604 770 593 Q 769 581 776 570 Q 794 548 814 522 L 834 495 Z" fill="lightgray"></path>
    
      <path d="M 545 286 Q 532 292 499 296 Q 486 300 483 294 Q 476 287 486 270 Q 517 212 537 113 Q 541 83 559 64 Q 578 42 583 58 Q 586 68 586 81 L 583 116 Q 574 134 559 251 C 555 281 555 282 545 286 Z" fill="lightgray"></path>
    
      <path d="M 813 144 Q 844 232 879 256 Q 897 275 882 295 Q 864 310 808 338 Q 789 347 766 338 Q 678 305 545 286 C 515 282 530 244 559 251 Q 565 254 749 286 Q 768 289 777 281 Q 787 271 783 251 Q 771 193 756 145 C 747 116 803 116 813 144 Z" fill="lightgray"></path>
    
      <path d="M 586 81 Q 596 80 610 82 Q 680 95 830 104 Q 842 105 843 114 Q 843 123 813 144 C 800 154 785 151 756 145 Q 660 126 583 116 C 553 112 556 82 586 81 Z" fill="lightgray"></path>
    
    
      <clipPath id="make-me-a-hanzi-clip-0">
        <path d="M 207 689 Q 194 702 174 709 Q 165 713 154 709 Q 147 705 152 693 Q 170 636 171 513 Q 165 392 154 348 Q 141 294 174 253 Q 184 240 194 252 L 202 266 L 208 296 Q 209 327 210 414 L 211 447 Q 212 495 213 530 L 214 560 Q 215 639 218 649 Q 219 656 219 662 C 221 678 221 678 207 689 Z"></path>
      </clipPath>
      <path clip-path="url(#make-me-a-hanzi-clip-0)" d="M 161 700 L 180 681 L 190 657 L 191 471 L 180 335 L 184 257" fill="none" id="make-me-a-hanzi-animation-0" stroke-dasharray="581 1162" stroke-linecap="round"></path>
    
      <clipPath id="make-me-a-hanzi-clip-1">
        <path d="M 341 283 Q 353 264 365 246 Q 381 221 389 224 Q 399 225 413 256 Q 422 278 422 358 Q 404 631 430 681 Q 440 700 432 711 Q 425 721 372 736 Q 347 745 330 734 Q 264 703 207 689 C 178 681 190 654 219 662 Q 223 663 230 665 Q 264 675 303 688 Q 339 700 352 689 Q 364 677 364 631 Q 368 438 362 333 Q 363 315 352 312 C 338 288 338 288 341 283 Z"></path>
      </clipPath>
      <path clip-path="url(#make-me-a-hanzi-clip-1)" d="M 215 684 L 233 680 L 345 716 L 374 707 L 393 690 L 389 582 L 394 369 L 390 310 L 382 290 L 388 235" fill="none" id="make-me-a-hanzi-animation-1" stroke-dasharray="777 1554" stroke-linecap="round"></path>
    
      <clipPath id="make-me-a-hanzi-clip-2">
        <path d="M 213 530 Q 270 540 313 548 Q 335 554 326 565 Q 314 578 290 580 Q 251 583 214 560 C 188 544 183 525 213 530 Z"></path>
      </clipPath>
      <path clip-path="url(#make-me-a-hanzi-clip-2)" d="M 220 537 L 230 550 L 269 561 L 316 559" fill="none" id="make-me-a-hanzi-animation-2" stroke-dasharray="232 464" stroke-linecap="round"></path>
    
      <clipPath id="make-me-a-hanzi-clip-3">
        <path d="M 210 414 Q 268 427 313 435 Q 335 441 326 452 Q 314 465 288 468 Q 243 471 211 447 C 187 429 181 407 210 414 Z"></path>
      </clipPath>
      <path clip-path="url(#make-me-a-hanzi-clip-3)" d="M 217 419 L 230 437 L 252 445 L 316 446" fill="none" id="make-me-a-hanzi-animation-3" stroke-dasharray="238 476" stroke-linecap="round"></path>
    
      <clipPath id="make-me-a-hanzi-clip-4">
        <path d="M 202 266 Q 281 278 341 283 C 371 286 378 297 352 312 Q 343 318 331 320 Q 310 323 208 296 C 179 288 172 262 202 266 Z"></path>
      </clipPath>
      <path clip-path="url(#make-me-a-hanzi-clip-4)" d="M 210 272 L 221 286 L 343 307" fill="none" id="make-me-a-hanzi-animation-4" stroke-dasharray="270 540" stroke-linecap="round"></path>
    
      <clipPath id="make-me-a-hanzi-clip-5">
        <path d="M 205 217 Q 199 160 68 40 Q 49 25 74 29 Q 134 33 233 143 Q 239 158 274 187 Q 283 199 280 208 Q 277 220 253 226 Q 225 235 214 231 Q 207 230 205 217 Z"></path>
      </clipPath>
      <path clip-path="url(#make-me-a-hanzi-clip-5)" d="M 263 203 L 236 198 L 207 152 L 168 108 L 113 59 L 78 38" fill="none" id="make-me-a-hanzi-animation-5" stroke-dasharray="383 766" stroke-linecap="round"></path>
    
      <clipPath id="make-me-a-hanzi-clip-6">
        <path d="M 349 149 Q 373 116 397 78 Q 406 63 420 61 Q 430 60 437 69 Q 444 81 444 109 Q 441 145 355 193 Q 342 200 336 199 Q 332 196 329 185 Q 330 175 349 149 Z"></path>
      </clipPath>
      <path clip-path="url(#make-me-a-hanzi-clip-6)" d="M 339 189 L 404 123 L 422 79" fill="none" id="make-me-a-hanzi-animation-6" stroke-dasharray="268 536" stroke-linecap="round"></path>
    
      <clipPath id="make-me-a-hanzi-clip-7">
        <path d="M 814 522 Q 702 506 581 478 Q 568 474 564 477 Q 560 481 568 497 Q 707 714 738 751 Q 751 763 743 777 Q 736 790 680 815 Q 661 822 650 818 Q 635 811 643 788 Q 667 718 524 512 Q 500 487 463 459 Q 447 446 452 433 Q 459 414 488 391 Q 501 379 516 392 Q 568 435 831 494 Q 832 495 834 495 C 863 502 844 526 814 522 Z"></path>
      </clipPath>
      <path clip-path="url(#make-me-a-hanzi-clip-7)" d="M 658 802 L 691 762 L 686 748 L 628 632 L 548 511 L 532 476 L 529 450 L 571 449 L 688 481 L 806 505 L 818 495" fill="none" id="make-me-a-hanzi-animation-7" stroke-dasharray="833 1666" stroke-linecap="round"></path>
    
      <clipPath id="make-me-a-hanzi-clip-8">
        <path d="M 834 495 Q 904 402 909 400 Q 916 399 925 406 Q 938 416 932 458 Q 929 509 781 598 Q 774 604 770 593 Q 769 581 776 570 Q 794 548 814 522 L 834 495 Z"></path>
      </clipPath>
      <path clip-path="url(#make-me-a-hanzi-clip-8)" d="M 779 588 L 888 478 L 911 432 L 912 406" fill="none" id="make-me-a-hanzi-animation-8" stroke-dasharray="360 720" stroke-linecap="round"></path>
    
      <clipPath id="make-me-a-hanzi-clip-9">
        <path d="M 545 286 Q 532 292 499 296 Q 486 300 483 294 Q 476 287 486 270 Q 517 212 537 113 Q 541 83 559 64 Q 578 42 583 58 Q 586 68 586 81 L 583 116 Q 574 134 559 251 C 555 281 555 282 545 286 Z"></path>
      </clipPath>
      <path clip-path="url(#make-me-a-hanzi-clip-9)" d="M 492 286 L 522 263 L 534 235 L 572 64" fill="none" id="make-me-a-hanzi-animation-9" stroke-dasharray="371 742" stroke-linecap="round"></path>
    
      <clipPath id="make-me-a-hanzi-clip-10">
        <path d="M 813 144 Q 844 232 879 256 Q 897 275 882 295 Q 864 310 808 338 Q 789 347 766 338 Q 678 305 545 286 C 515 282 530 244 559 251 Q 565 254 749 286 Q 768 289 777 281 Q 787 271 783 251 Q 771 193 756 145 C 747 116 803 116 813 144 Z"></path>
      </clipPath>
      <path clip-path="url(#make-me-a-hanzi-clip-10)" d="M 558 257 L 574 273 L 769 312 L 792 310 L 830 274 L 792 171 L 763 150" fill="none" id="make-me-a-hanzi-animation-10" stroke-dasharray="571 1142" stroke-linecap="round"></path>
    
      <clipPath id="make-me-a-hanzi-clip-11">
        <path d="M 586 81 Q 596 80 610 82 Q 680 95 830 104 Q 842 105 843 114 Q 843 123 813 144 C 800 154 785 151 756 145 Q 660 126 583 116 C 553 112 556 82 586 81 Z"></path>
      </clipPath>
      <path clip-path="url(#make-me-a-hanzi-clip-11)" d="M 592 87 L 607 101 L 734 120 L 806 124 L 834 114" fill="none" id="make-me-a-hanzi-animation-11" stroke-dasharray="379 758" stroke-linecap="round"></path>
    
  </g>
</svg>