<svg version="1.1" viewBox="0 0 1024 1024" xmlns="http://www.w3.org/2000/svg">
  <g stroke="lightgray" stroke-dasharray="1,1" stroke-width="1" transform="scale(4, 4)">
    <line x1="0" y1="0" x2="256" y2="256"></line>
    <line x1="256" y1="0" x2="0" y2="256"></line>
    <line x1="128" y1="0" x2="128" y2="256"></line>
    <line x1="0" y1="128" x2="256" y2="128"></line>
  </g>
  <g transform="scale(1, -1) translate(0, -900)">
    <style type="text/css">
      
        @keyframes keyframes0 {
          from {
            stroke: blue;
            stroke-dashoffset: 692;
            stroke-width: 128;
          }
          69% {
            animation-timing-function: step-end;
            stroke: blue;
            stroke-dashoffset: 0;
            stroke-width: 128;
          }
          to {
            stroke: black;
            stroke-width: 1024;
          }
        }
        #make-me-a-hanzi-animation-0 {
          animation: keyframes0 0.8131510416666666s both;
          animation-delay: 0s;
          animation-timing-function: linear;
        }
      
        @keyframes keyframes1 {
          from {
            stroke: blue;
            stroke-dashoffset: 845;
            stroke-width: 128;
          }
          73% {
            animation-timing-function: step-end;
            stroke: blue;
            stroke-dashoffset: 0;
            stroke-width: 128;
          }
          to {
            stroke: black;
            stroke-width: 1024;
          }
        }
        #make-me-a-hanzi-animation-1 {
          animation: keyframes1 0.9376627604166666s both;
          animation-delay: 0.8131510416666666s;
          animation-timing-function: linear;
        }
      
        @keyframes keyframes2 {
          from {
            stroke: blue;
            stroke-dashoffset: 353;
            stroke-width: 128;
          }
          53% {
            animation-timing-function: step-end;
            stroke: blue;
            stroke-dashoffset: 0;
            stroke-width: 128;
          }
          to {
            stroke: black;
            stroke-width: 1024;
          }
        }
        #make-me-a-hanzi-animation-2 {
          animation: keyframes2 0.5372721354166666s both;
          animation-delay: 1.7508138020833333s;
          animation-timing-function: linear;
        }
      
        @keyframes keyframes3 {
          from {
            stroke: blue;
            stroke-dashoffset: 359;
            stroke-width: 128;
          }
          54% {
            animation-timing-function: step-end;
            stroke: blue;
            stroke-dashoffset: 0;
            stroke-width: 128;
          }
          to {
            stroke: black;
            stroke-width: 1024;
          }
        }
        #make-me-a-hanzi-animation-3 {
          animation: keyframes3 0.5421549479166666s both;
          animation-delay: 2.2880859375s;
          animation-timing-function: linear;
        }
      
        @keyframes keyframes4 {
          from {
            stroke: blue;
            stroke-dashoffset: 365;
            stroke-width: 128;
          }
          54% {
            animation-timing-function: step-end;
            stroke: blue;
            stroke-dashoffset: 0;
            stroke-width: 128;
          }
          to {
            stroke: black;
            stroke-width: 1024;
          }
        }
        #make-me-a-hanzi-animation-4 {
          animation: keyframes4 0.5470377604166666s both;
          animation-delay: 2.8302408854166665s;
          animation-timing-function: linear;
        }
      
        @keyframes keyframes5 {
          from {
            stroke: blue;
            stroke-dashoffset: 503;
            stroke-width: 128;
          }
          62% {
            animation-timing-function: step-end;
            stroke: blue;
            stroke-dashoffset: 0;
            stroke-width: 128;
          }
          to {
            stroke: black;
            stroke-width: 1024;
          }
        }
        #make-me-a-hanzi-animation-5 {
          animation: keyframes5 0.6593424479166666s both;
          animation-delay: 3.377278645833333s;
          animation-timing-function: linear;
        }
      
        @keyframes keyframes6 {
          from {
            stroke: blue;
            stroke-dashoffset: 369;
            stroke-width: 128;
          }
          55% {
            animation-timing-function: step-end;
            stroke: blue;
            stroke-dashoffset: 0;
            stroke-width: 128;
          }
          to {
            stroke: black;
            stroke-width: 1024;
          }
        }
        #make-me-a-hanzi-animation-6 {
          animation: keyframes6 0.55029296875s both;
          animation-delay: 4.03662109375s;
          animation-timing-function: linear;
        }
      
        @keyframes keyframes7 {
          from {
            stroke: blue;
            stroke-dashoffset: 754;
            stroke-width: 128;
          }
          71% {
            animation-timing-function: step-end;
            stroke: blue;
            stroke-dashoffset: 0;
            stroke-width: 128;
          }
          to {
            stroke: black;
            stroke-width: 1024;
          }
        }
        #make-me-a-hanzi-animation-7 {
          animation: keyframes7 0.8636067708333334s both;
          animation-delay: 4.5869140625s;
          animation-timing-function: linear;
        }
      
        @keyframes keyframes8 {
          from {
            stroke: blue;
            stroke-dashoffset: 707;
            stroke-width: 128;
          }
          70% {
            animation-timing-function: step-end;
            stroke: blue;
            stroke-dashoffset: 0;
            stroke-width: 128;
          }
          to {
            stroke: black;
            stroke-width: 1024;
          }
        }
        #make-me-a-hanzi-animation-8 {
          animation: keyframes8 0.8253580729166666s both;
          animation-delay: 5.450520833333333s;
          animation-timing-function: linear;
        }
      
        @keyframes keyframes9 {
          from {
            stroke: blue;
            stroke-dashoffset: 459;
            stroke-width: 128;
          }
          60% {
            animation-timing-function: step-end;
            stroke: blue;
            stroke-dashoffset: 0;
            stroke-width: 128;
          }
          to {
            stroke: black;
            stroke-width: 1024;
          }
        }
        #make-me-a-hanzi-animation-9 {
          animation: keyframes9 0.62353515625s both;
          animation-delay: 6.27587890625s;
          animation-timing-function: linear;
        }
      
        @keyframes keyframes10 {
          from {
            stroke: blue;
            stroke-dashoffset: 675;
            stroke-width: 128;
          }
          69% {
            animation-timing-function: step-end;
            stroke: blue;
            stroke-dashoffset: 0;
            stroke-width: 128;
          }
          to {
            stroke: black;
            stroke-width: 1024;
          }
        }
        #make-me-a-hanzi-animation-10 {
          animation: keyframes10 0.79931640625s both;
          animation-delay: 6.8994140625s;
          animation-timing-function: linear;
        }
      
        @keyframes keyframes11 {
          from {
            stroke: blue;
            stroke-dashoffset: 668;
            stroke-width: 128;
          }
          68% {
            animation-timing-function: step-end;
            stroke: blue;
            stroke-dashoffset: 0;
            stroke-width: 128;
          }
          to {
            stroke: black;
            stroke-width: 1024;
          }
        }
        #make-me-a-hanzi-animation-11 {
          animation: keyframes11 0.7936197916666666s both;
          animation-delay: 7.69873046875s;
          animation-timing-function: linear;
        }
      
        @keyframes keyframes12 {
          from {
            stroke: blue;
            stroke-dashoffset: 418;
            stroke-width: 128;
          }
          58% {
            animation-timing-function: step-end;
            stroke: blue;
            stroke-dashoffset: 0;
            stroke-width: 128;
          }
          to {
            stroke: black;
            stroke-width: 1024;
          }
        }
        #make-me-a-hanzi-animation-12 {
          animation: keyframes12 0.5901692708333334s both;
          animation-delay: 8.492350260416666s;
          animation-timing-function: linear;
        }
      
        @keyframes keyframes13 {
          from {
            stroke: blue;
            stroke-dashoffset: 450;
            stroke-width: 128;
          }
          59% {
            animation-timing-function: step-end;
            stroke: blue;
            stroke-dashoffset: 0;
            stroke-width: 128;
          }
          to {
            stroke: black;
            stroke-width: 1024;
          }
        }
        #make-me-a-hanzi-animation-13 {
          animation: keyframes13 0.6162109375s both;
          animation-delay: 9.08251953125s;
          animation-timing-function: linear;
        }
      
    </style>
    
      <path d="M 182 720 Q 169 733 146 741 Q 137 745 126 741 Q 119 737 125 725 Q 126 716 130 708 Q 154 659 140 457 Q 122 355 136 327 Q 142 315 150 305 Q 160 292 170 304 Q 177 314 180 324 L 184 359 Q 184 371 185 452 L 185 483 Q 186 534 187 570 L 188 599 Q 188 686 192 692 C 195 710 195 710 182 720 Z" fill="lightgray"></path>
    
      <path d="M 291 338 Q 301 320 313 302 Q 329 277 337 280 Q 347 281 360 309 Q 373 339 370 379 Q 364 662 385 696 Q 397 715 388 726 Q 381 736 330 754 Q 305 764 287 754 Q 230 730 182 720 C 153 713 162 687 192 692 Q 198 693 206 694 Q 234 700 267 709 Q 298 716 307 706 Q 317 696 318 654 Q 319 483 312 389 Q 315 364 294 368 L 293 368 C 276 363 276 363 291 338 Z" fill="lightgray"></path>
    
      <path d="M 187 570 Q 190 569 198 570 Q 244 577 281 583 Q 303 589 294 600 Q 282 613 256 616 Q 208 619 188 599 C 166 579 160 573 187 570 Z" fill="lightgray"></path>
    
      <path d="M 185 452 Q 186 452 279 463 Q 303 467 293 480 Q 283 495 257 498 Q 233 499 192 487 Q 188 486 185 483 C 161 465 155 449 185 452 Z" fill="lightgray"></path>
    
      <path d="M 180 324 Q 195 331 291 338 C 321 340 318 351 293 368 Q 289 371 283 374 Q 271 380 184 359 C 155 352 152 314 180 324 Z" fill="lightgray"></path>
    
      <path d="M 168 277 Q 162 225 36 103 Q 17 90 42 93 Q 108 100 197 210 Q 222 238 233 250 Q 242 260 239 269 Q 236 279 212 286 Q 187 293 176 290 Q 169 289 168 277 Z" fill="lightgray"></path>
    
      <path d="M 280 221 Q 322 157 335 154 Q 342 153 349 161 Q 356 171 354 195 Q 351 222 284 258 Q 274 262 268 262 Q 264 261 262 250 Q 263 241 280 221 Z" fill="lightgray"></path>
    
      <path d="M 644 736 Q 674 799 676 802 Q 675 804 675 805 Q 672 815 657 826 Q 621 853 585 842 Q 576 838 581 825 Q 606 749 500 577 Q 497 576 496 571 Q 465 523 384 429 Q 377 422 387 421 Q 441 430 547 565 Q 584 620 633 713 L 644 736 Z" fill="lightgray"></path>
    
      <path d="M 633 713 Q 709 610 795 516 Q 816 491 853 488 Q 920 481 993 490 Q 1011 491 1013 495 Q 1016 502 1001 508 Q 806 592 720 665 Q 705 678 692 690 Q 661 721 644 736 C 622 756 615 737 633 713 Z" fill="lightgray"></path>
    
      <path d="M 515 475 Q 478 466 506 451 Q 542 432 618 449 Q 654 458 693 467 Q 714 471 717 475 Q 724 484 720 492 Q 713 504 682 509 Q 658 512 584 488 Q 542 479 515 475 Z" fill="lightgray"></path>
    
      <path d="M 615 330 Q 682 343 789 347 Q 834 347 841 357 Q 845 367 830 379 Q 772 413 708 391 Q 654 379 422 332 Q 403 329 418 315 Q 431 303 448 300 Q 467 296 481 301 Q 526 316 578 324 L 615 330 Z" fill="lightgray"></path>
    
      <path d="M 578 324 Q 578 321 580 317 Q 593 280 593 163 Q 592 93 585 77 Q 581 64 558 70 Q 536 74 513 78 Q 500 79 499 73 Q 496 66 508 56 Q 566 1 584 -31 Q 597 -46 608 -44 Q 620 -40 633 -4 Q 652 32 651 98 Q 648 207 651 245 Q 658 288 640 311 Q 627 324 615 330 C 590 346 569 353 578 324 Z" fill="lightgray"></path>
    
      <path d="M 448 233 Q 423 184 389 141 Q 367 110 382 77 Q 388 59 409 70 Q 460 100 468 176 Q 475 207 470 231 Q 466 240 461 241 Q 452 240 448 233 Z" fill="lightgray"></path>
    
      <path d="M 720 197 Q 769 160 829 103 Q 848 84 865 80 Q 874 79 881 91 Q 893 106 875 151 Q 862 194 789 213 Q 743 225 719 230 Q 709 234 708 221 Q 708 208 720 197 Z" fill="lightgray"></path>
    
    
      <clipPath id="make-me-a-hanzi-clip-0">
        <path d="M 182 720 Q 169 733 146 741 Q 137 745 126 741 Q 119 737 125 725 Q 126 716 130 708 Q 154 659 140 457 Q 122 355 136 327 Q 142 315 150 305 Q 160 292 170 304 Q 177 314 180 324 L 184 359 Q 184 371 185 452 L 185 483 Q 186 534 187 570 L 188 599 Q 188 686 192 692 C 195 710 195 710 182 720 Z"></path>
      </clipPath>
      <path clip-path="url(#make-me-a-hanzi-clip-0)" d="M 133 733 L 155 712 L 164 692 L 168 612 L 157 387 L 160 309" fill="none" id="make-me-a-hanzi-animation-0" stroke-dasharray="564 1128" stroke-linecap="round"></path>
    
      <clipPath id="make-me-a-hanzi-clip-1">
        <path d="M 291 338 Q 301 320 313 302 Q 329 277 337 280 Q 347 281 360 309 Q 373 339 370 379 Q 364 662 385 696 Q 397 715 388 726 Q 381 736 330 754 Q 305 764 287 754 Q 230 730 182 720 C 153 713 162 687 192 692 Q 198 693 206 694 Q 234 700 267 709 Q 298 716 307 706 Q 317 696 318 654 Q 319 483 312 389 Q 315 364 294 368 L 293 368 C 276 363 276 363 291 338 Z"></path>
      </clipPath>
      <path clip-path="url(#make-me-a-hanzi-clip-1)" d="M 190 715 L 210 710 L 301 735 L 330 725 L 348 707 L 342 392 L 339 358 L 331 342 L 336 291" fill="none" id="make-me-a-hanzi-animation-1" stroke-dasharray="717 1434" stroke-linecap="round"></path>
    
      <clipPath id="make-me-a-hanzi-clip-2">
        <path d="M 187 570 Q 190 569 198 570 Q 244 577 281 583 Q 303 589 294 600 Q 282 613 256 616 Q 208 619 188 599 C 166 579 160 573 187 570 Z"></path>
      </clipPath>
      <path clip-path="url(#make-me-a-hanzi-clip-2)" d="M 193 577 L 211 592 L 232 596 L 284 594" fill="none" id="make-me-a-hanzi-animation-2" stroke-dasharray="225 450" stroke-linecap="round"></path>
    
      <clipPath id="make-me-a-hanzi-clip-3">
        <path d="M 185 452 Q 186 452 279 463 Q 303 467 293 480 Q 283 495 257 498 Q 233 499 192 487 Q 188 486 185 483 C 161 465 155 449 185 452 Z"></path>
      </clipPath>
      <path clip-path="url(#make-me-a-hanzi-clip-3)" d="M 186 460 L 203 472 L 232 477 L 272 478 L 284 473" fill="none" id="make-me-a-hanzi-animation-3" stroke-dasharray="231 462" stroke-linecap="round"></path>
    
      <clipPath id="make-me-a-hanzi-clip-4">
        <path d="M 180 324 Q 195 331 291 338 C 321 340 318 351 293 368 Q 289 371 283 374 Q 271 380 184 359 C 155 352 152 314 180 324 Z"></path>
      </clipPath>
      <path clip-path="url(#make-me-a-hanzi-clip-4)" d="M 181 330 L 199 344 L 221 351 L 272 355 L 282 361" fill="none" id="make-me-a-hanzi-animation-4" stroke-dasharray="237 474" stroke-linecap="round"></path>
    
      <clipPath id="make-me-a-hanzi-clip-5">
        <path d="M 168 277 Q 162 225 36 103 Q 17 90 42 93 Q 108 100 197 210 Q 222 238 233 250 Q 242 260 239 269 Q 236 279 212 286 Q 187 293 176 290 Q 169 289 168 277 Z"></path>
      </clipPath>
      <path clip-path="url(#make-me-a-hanzi-clip-5)" d="M 225 264 L 195 255 L 124 162 L 82 124 L 46 102" fill="none" id="make-me-a-hanzi-animation-5" stroke-dasharray="375 750" stroke-linecap="round"></path>
    
      <clipPath id="make-me-a-hanzi-clip-6">
        <path d="M 280 221 Q 322 157 335 154 Q 342 153 349 161 Q 356 171 354 195 Q 351 222 284 258 Q 274 262 268 262 Q 264 261 262 250 Q 263 241 280 221 Z"></path>
      </clipPath>
      <path clip-path="url(#make-me-a-hanzi-clip-6)" d="M 270 253 L 323 203 L 338 166" fill="none" id="make-me-a-hanzi-animation-6" stroke-dasharray="241 482" stroke-linecap="round"></path>
    
      <clipPath id="make-me-a-hanzi-clip-7">
        <path d="M 644 736 Q 674 799 676 802 Q 675 804 675 805 Q 672 815 657 826 Q 621 853 585 842 Q 576 838 581 825 Q 606 749 500 577 Q 497 576 496 571 Q 465 523 384 429 Q 377 422 387 421 Q 441 430 547 565 Q 584 620 633 713 L 644 736 Z"></path>
      </clipPath>
      <path clip-path="url(#make-me-a-hanzi-clip-7)" d="M 590 832 L 615 814 L 627 797 L 587 684 L 510 550 L 449 479 L 390 427" fill="none" id="make-me-a-hanzi-animation-7" stroke-dasharray="626 1252" stroke-linecap="round"></path>
    
      <clipPath id="make-me-a-hanzi-clip-8">
        <path d="M 633 713 Q 709 610 795 516 Q 816 491 853 488 Q 920 481 993 490 Q 1011 491 1013 495 Q 1016 502 1001 508 Q 806 592 720 665 Q 705 678 692 690 Q 661 721 644 736 C 622 756 615 737 633 713 Z"></path>
      </clipPath>
      <path clip-path="url(#make-me-a-hanzi-clip-8)" d="M 644 729 L 648 714 L 723 632 L 834 539 L 936 509 L 1008 497" fill="none" id="make-me-a-hanzi-animation-8" stroke-dasharray="579 1158" stroke-linecap="round"></path>
    
      <clipPath id="make-me-a-hanzi-clip-9">
        <path d="M 515 475 Q 478 466 506 451 Q 542 432 618 449 Q 654 458 693 467 Q 714 471 717 475 Q 724 484 720 492 Q 713 504 682 509 Q 658 512 584 488 Q 542 479 515 475 Z"></path>
      </clipPath>
      <path clip-path="url(#make-me-a-hanzi-clip-9)" d="M 507 464 L 559 461 L 671 486 L 707 485" fill="none" id="make-me-a-hanzi-animation-9" stroke-dasharray="331 662" stroke-linecap="round"></path>
    
      <clipPath id="make-me-a-hanzi-clip-10">
        <path d="M 615 330 Q 682 343 789 347 Q 834 347 841 357 Q 845 367 830 379 Q 772 413 708 391 Q 654 379 422 332 Q 403 329 418 315 Q 431 303 448 300 Q 467 296 481 301 Q 526 316 578 324 L 615 330 Z"></path>
      </clipPath>
      <path clip-path="url(#make-me-a-hanzi-clip-10)" d="M 420 324 L 471 320 L 545 339 L 749 373 L 833 362" fill="none" id="make-me-a-hanzi-animation-10" stroke-dasharray="547 1094" stroke-linecap="round"></path>
    
      <clipPath id="make-me-a-hanzi-clip-11">
        <path d="M 578 324 Q 578 321 580 317 Q 593 280 593 163 Q 592 93 585 77 Q 581 64 558 70 Q 536 74 513 78 Q 500 79 499 73 Q 496 66 508 56 Q 566 1 584 -31 Q 597 -46 608 -44 Q 620 -40 633 -4 Q 652 32 651 98 Q 648 207 651 245 Q 658 288 640 311 Q 627 324 615 330 C 590 346 569 353 578 324 Z"></path>
      </clipPath>
      <path clip-path="url(#make-me-a-hanzi-clip-11)" d="M 585 322 L 610 303 L 620 278 L 622 108 L 615 59 L 597 28 L 508 70" fill="none" id="make-me-a-hanzi-animation-11" stroke-dasharray="540 1080" stroke-linecap="round"></path>
    
      <clipPath id="make-me-a-hanzi-clip-12">
        <path d="M 448 233 Q 423 184 389 141 Q 367 110 382 77 Q 388 59 409 70 Q 460 100 468 176 Q 475 207 470 231 Q 466 240 461 241 Q 452 240 448 233 Z"></path>
      </clipPath>
      <path clip-path="url(#make-me-a-hanzi-clip-12)" d="M 459 230 L 442 170 L 398 81" fill="none" id="make-me-a-hanzi-animation-12" stroke-dasharray="290 580" stroke-linecap="round"></path>
    
      <clipPath id="make-me-a-hanzi-clip-13">
        <path d="M 720 197 Q 769 160 829 103 Q 848 84 865 80 Q 874 79 881 91 Q 893 106 875 151 Q 862 194 789 213 Q 743 225 719 230 Q 709 234 708 221 Q 708 208 720 197 Z"></path>
      </clipPath>
      <path clip-path="url(#make-me-a-hanzi-clip-13)" d="M 720 217 L 825 158 L 849 130 L 865 97" fill="none" id="make-me-a-hanzi-animation-13" stroke-dasharray="322 644" stroke-linecap="round"></path>
    
  </g>
</svg>