<svg version="1.1" viewBox="0 0 1024 1024" xmlns="http://www.w3.org/2000/svg">
  <g stroke="lightgray" stroke-dasharray="1,1" stroke-width="1" transform="scale(4, 4)">
    <line x1="0" y1="0" x2="256" y2="256"></line>
    <line x1="256" y1="0" x2="0" y2="256"></line>
    <line x1="128" y1="0" x2="128" y2="256"></line>
    <line x1="0" y1="128" x2="256" y2="128"></line>
  </g>
  <g transform="scale(1, -1) translate(0, -900)">
    <style type="text/css">
      
        @keyframes keyframes0 {
          from {
            stroke: blue;
            stroke-dashoffset: 695;
            stroke-width: 128;
          }
          69% {
            animation-timing-function: step-end;
            stroke: blue;
            stroke-dashoffset: 0;
            stroke-width: 128;
          }
          to {
            stroke: black;
            stroke-width: 1024;
          }
        }
        #make-me-a-hanzi-animation-0 {
          animation: keyframes0 0.8155924479166666s both;
          animation-delay: 0s;
          animation-timing-function: linear;
        }
      
        @keyframes keyframes1 {
          from {
            stroke: blue;
            stroke-dashoffset: 871;
            stroke-width: 128;
          }
          74% {
            animation-timing-function: step-end;
            stroke: blue;
            stroke-dashoffset: 0;
            stroke-width: 128;
          }
          to {
            stroke: black;
            stroke-width: 1024;
          }
        }
        #make-me-a-hanzi-animation-1 {
          animation: keyframes1 0.9588216145833334s both;
          animation-delay: 0.8155924479166666s;
          animation-timing-function: linear;
        }
      
        @keyframes keyframes2 {
          from {
            stroke: blue;
            stroke-dashoffset: 884;
            stroke-width: 128;
          }
          74% {
            animation-timing-function: step-end;
            stroke: blue;
            stroke-dashoffset: 0;
            stroke-width: 128;
          }
          to {
            stroke: black;
            stroke-width: 1024;
          }
        }
        #make-me-a-hanzi-animation-2 {
          animation: keyframes2 0.9694010416666666s both;
          animation-delay: 1.7744140625s;
          animation-timing-function: linear;
        }
      
        @keyframes keyframes3 {
          from {
            stroke: blue;
            stroke-dashoffset: 371;
            stroke-width: 128;
          }
          55% {
            animation-timing-function: step-end;
            stroke: blue;
            stroke-dashoffset: 0;
            stroke-width: 128;
          }
          to {
            stroke: black;
            stroke-width: 1024;
          }
        }
        #make-me-a-hanzi-animation-3 {
          animation: keyframes3 0.5519205729166666s both;
          animation-delay: 2.7438151041666665s;
          animation-timing-function: linear;
        }
      
        @keyframes keyframes4 {
          from {
            stroke: blue;
            stroke-dashoffset: 344;
            stroke-width: 128;
          }
          53% {
            animation-timing-function: step-end;
            stroke: blue;
            stroke-dashoffset: 0;
            stroke-width: 128;
          }
          to {
            stroke: black;
            stroke-width: 1024;
          }
        }
        #make-me-a-hanzi-animation-4 {
          animation: keyframes4 0.5299479166666666s both;
          animation-delay: 3.295735677083333s;
          animation-timing-function: linear;
        }
      
        @keyframes keyframes5 {
          from {
            stroke: blue;
            stroke-dashoffset: 432;
            stroke-width: 128;
          }
          58% {
            animation-timing-function: step-end;
            stroke: blue;
            stroke-dashoffset: 0;
            stroke-width: 128;
          }
          to {
            stroke: black;
            stroke-width: 1024;
          }
        }
        #make-me-a-hanzi-animation-5 {
          animation: keyframes5 0.6015625s both;
          animation-delay: 3.8256835937499996s;
          animation-timing-function: linear;
        }
      
        @keyframes keyframes6 {
          from {
            stroke: blue;
            stroke-dashoffset: 723;
            stroke-width: 128;
          }
          70% {
            animation-timing-function: step-end;
            stroke: blue;
            stroke-dashoffset: 0;
            stroke-width: 128;
          }
          to {
            stroke: black;
            stroke-width: 1024;
          }
        }
        #make-me-a-hanzi-animation-6 {
          animation: keyframes6 0.83837890625s both;
          animation-delay: 4.42724609375s;
          animation-timing-function: linear;
        }
      
        @keyframes keyframes7 {
          from {
            stroke: blue;
            stroke-dashoffset: 427;
            stroke-width: 128;
          }
          58% {
            animation-timing-function: step-end;
            stroke: blue;
            stroke-dashoffset: 0;
            stroke-width: 128;
          }
          to {
            stroke: black;
            stroke-width: 1024;
          }
        }
        #make-me-a-hanzi-animation-7 {
          animation: keyframes7 0.5974934895833334s both;
          animation-delay: 5.265625s;
          animation-timing-function: linear;
        }
      
        @keyframes keyframes8 {
          from {
            stroke: blue;
            stroke-dashoffset: 356;
            stroke-width: 128;
          }
          54% {
            animation-timing-function: step-end;
            stroke: blue;
            stroke-dashoffset: 0;
            stroke-width: 128;
          }
          to {
            stroke: black;
            stroke-width: 1024;
          }
        }
        #make-me-a-hanzi-animation-8 {
          animation: keyframes8 0.5397135416666666s both;
          animation-delay: 5.863118489583333s;
          animation-timing-function: linear;
        }
      
        @keyframes keyframes9 {
          from {
            stroke: blue;
            stroke-dashoffset: 439;
            stroke-width: 128;
          }
          59% {
            animation-timing-function: step-end;
            stroke: blue;
            stroke-dashoffset: 0;
            stroke-width: 128;
          }
          to {
            stroke: black;
            stroke-width: 1024;
          }
        }
        #make-me-a-hanzi-animation-9 {
          animation: keyframes9 0.6072591145833334s both;
          animation-delay: 6.40283203125s;
          animation-timing-function: linear;
        }
      
        @keyframes keyframes10 {
          from {
            stroke: blue;
            stroke-dashoffset: 739;
            stroke-width: 128;
          }
          71% {
            animation-timing-function: step-end;
            stroke: blue;
            stroke-dashoffset: 0;
            stroke-width: 128;
          }
          to {
            stroke: black;
            stroke-width: 1024;
          }
        }
        #make-me-a-hanzi-animation-10 {
          animation: keyframes10 0.8513997395833334s both;
          animation-delay: 7.010091145833333s;
          animation-timing-function: linear;
        }
      
        @keyframes keyframes11 {
          from {
            stroke: blue;
            stroke-dashoffset: 675;
            stroke-width: 128;
          }
          69% {
            animation-timing-function: step-end;
            stroke: blue;
            stroke-dashoffset: 0;
            stroke-width: 128;
          }
          to {
            stroke: black;
            stroke-width: 1024;
          }
        }
        #make-me-a-hanzi-animation-11 {
          animation: keyframes11 0.79931640625s both;
          animation-delay: 7.861490885416666s;
          animation-timing-function: linear;
        }
      
    </style>
    
      <path d="M 210 643 Q 195 658 163 669 Q 154 670 149 663 Q 146 657 153 648 Q 192 561 168 371 Q 164 341 154 309 Q 147 285 151 268 Q 160 238 170 227 Q 180 215 189 228 Q 213 256 213 430 Q 213 578 218 618 C 220 635 220 635 210 643 Z" fill="lightgray"></path>
    
      <path d="M 362 288 Q 355 266 368 245 Q 381 217 390 218 Q 403 219 419 251 Q 432 276 432 296 Q 419 395 420 549 Q 419 595 444 633 Q 454 649 446 657 Q 418 679 372 697 Q 356 701 334 692 Q 306 676 271 661 Q 237 651 210 643 C 181 634 188 613 218 618 Q 233 618 296 637 Q 344 656 356 650 Q 368 622 372 550 Q 373 330 362 288 Z" fill="lightgray"></path>
    
      <path d="M 275 508 Q 281 196 180 80 Q 159 59 129 31 Q 119 25 117 21 Q 113 15 127 16 Q 157 16 223 76 Q 316 163 318 416 Q 318 482 334 534 Q 338 544 330 550 Q 315 563 285 575 Q 267 582 254 577 Q 238 570 251 556 Q 275 532 275 508 Z" fill="lightgray"></path>
    
      <path d="M 331 149 Q 350 121 371 89 Q 378 76 391 74 Q 398 73 405 81 Q 412 91 411 115 Q 408 146 336 185 Q 326 191 320 190 Q 316 189 314 178 Q 315 169 331 149 Z" fill="lightgray"></path>
    
      <path d="M 490 585 Q 518 543 543 530 Q 556 527 564 537 Q 570 547 569 561 Q 562 592 503 616 Q 490 620 481 619 Q 477 618 477 608 Q 478 598 490 585 Z" fill="lightgray"></path>
    
      <path d="M 758 674 Q 745 655 684 593 Q 674 578 689 580 Q 702 586 792 630 Q 810 643 833 649 Q 852 656 845 673 Q 835 689 812 705 Q 793 720 780 719 Q 768 718 771 706 Q 772 690 758 674 Z" fill="lightgray"></path>
    
      <path d="M 603 773 Q 633 722 608 566 Q 601 538 588 505 Q 570 462 511 401 Q 498 389 495 383 Q 494 377 504 377 Q 534 377 588 430 Q 657 505 671 687 Q 671 700 678 749 Q 684 768 665 777 Q 620 799 607 797 Q 588 794 603 773 Z" fill="lightgray"></path>
    
      <path d="M 670 507 Q 718 476 775 426 Q 791 411 804 409 Q 811 409 817 418 Q 824 431 810 466 Q 792 508 667 533 Q 660 537 659 526 Q 660 514 670 507 Z" fill="lightgray"></path>
    
      <path d="M 481 269 Q 500 250 521 226 Q 530 216 541 216 Q 548 215 554 225 Q 558 235 553 257 Q 550 273 528 285 Q 476 309 464 306 Q 460 305 460 294 Q 463 287 481 269 Z" fill="lightgray"></path>
    
      <path d="M 765 337 Q 747 316 681 265 Q 668 252 685 251 Q 725 263 794 288 Q 815 298 839 303 Q 861 307 855 326 Q 846 345 825 363 Q 806 381 794 381 Q 781 382 783 369 Q 782 351 765 337 Z" fill="lightgray"></path>
    
      <path d="M 645 223 Q 654 263 663 317 Q 667 339 672 349 Q 679 356 673 366 Q 667 373 639 384 Q 608 400 593 394 Q 583 388 591 373 Q 624 276 558 140 Q 555 139 555 136 Q 519 73 407 13 Q 385 0 413 1 Q 428 0 459 11 Q 498 21 531 42 Q 594 75 633 181 Q 634 188 637 196 L 645 223 Z" fill="lightgray"></path>
    
      <path d="M 637 196 Q 707 96 797 -12 Q 815 -31 844 -28 Q 943 -21 974 -14 Q 983 -11 984 -7 Q 985 -3 972 5 Q 843 57 761 120 Q 707 166 645 223 C 623 243 620 221 637 196 Z" fill="lightgray"></path>
    
    
      <clipPath id="make-me-a-hanzi-clip-0">
        <path d="M 210 643 Q 195 658 163 669 Q 154 670 149 663 Q 146 657 153 648 Q 192 561 168 371 Q 164 341 154 309 Q 147 285 151 268 Q 160 238 170 227 Q 180 215 189 228 Q 213 256 213 430 Q 213 578 218 618 C 220 635 220 635 210 643 Z"></path>
      </clipPath>
      <path clip-path="url(#make-me-a-hanzi-clip-0)" d="M 160 658 L 188 628 L 195 559 L 193 392 L 177 277 L 179 232" fill="none" id="make-me-a-hanzi-animation-0" stroke-dasharray="567 1134" stroke-linecap="round"></path>
    
      <clipPath id="make-me-a-hanzi-clip-1">
        <path d="M 362 288 Q 355 266 368 245 Q 381 217 390 218 Q 403 219 419 251 Q 432 276 432 296 Q 419 395 420 549 Q 419 595 444 633 Q 454 649 446 657 Q 418 679 372 697 Q 356 701 334 692 Q 306 676 271 661 Q 237 651 210 643 C 181 634 188 613 218 618 Q 233 618 296 637 Q 344 656 356 650 Q 368 622 372 550 Q 373 330 362 288 Z"></path>
      </clipPath>
      <path clip-path="url(#make-me-a-hanzi-clip-1)" d="M 219 639 L 228 633 L 348 674 L 364 674 L 401 639 L 395 581 L 398 298 L 391 229" fill="none" id="make-me-a-hanzi-animation-1" stroke-dasharray="743 1486" stroke-linecap="round"></path>
    
      <clipPath id="make-me-a-hanzi-clip-2">
        <path d="M 275 508 Q 281 196 180 80 Q 159 59 129 31 Q 119 25 117 21 Q 113 15 127 16 Q 157 16 223 76 Q 316 163 318 416 Q 318 482 334 534 Q 338 544 330 550 Q 315 563 285 575 Q 267 582 254 577 Q 238 570 251 556 Q 275 532 275 508 Z"></path>
      </clipPath>
      <path clip-path="url(#make-me-a-hanzi-clip-2)" d="M 256 566 L 273 560 L 302 533 L 294 344 L 275 225 L 253 160 L 226 109 L 191 67 L 145 31 L 125 24" fill="none" id="make-me-a-hanzi-animation-2" stroke-dasharray="756 1512" stroke-linecap="round"></path>
    
      <clipPath id="make-me-a-hanzi-clip-3">
        <path d="M 331 149 Q 350 121 371 89 Q 378 76 391 74 Q 398 73 405 81 Q 412 91 411 115 Q 408 146 336 185 Q 326 191 320 190 Q 316 189 314 178 Q 315 169 331 149 Z"></path>
      </clipPath>
      <path clip-path="url(#make-me-a-hanzi-clip-3)" d="M 323 181 L 384 117 L 391 91" fill="none" id="make-me-a-hanzi-animation-3" stroke-dasharray="243 486" stroke-linecap="round"></path>
    
      <clipPath id="make-me-a-hanzi-clip-4">
        <path d="M 490 585 Q 518 543 543 530 Q 556 527 564 537 Q 570 547 569 561 Q 562 592 503 616 Q 490 620 481 619 Q 477 618 477 608 Q 478 598 490 585 Z"></path>
      </clipPath>
      <path clip-path="url(#make-me-a-hanzi-clip-4)" d="M 486 611 L 529 575 L 548 549" fill="none" id="make-me-a-hanzi-animation-4" stroke-dasharray="216 432" stroke-linecap="round"></path>
    
      <clipPath id="make-me-a-hanzi-clip-5">
        <path d="M 758 674 Q 745 655 684 593 Q 674 578 689 580 Q 702 586 792 630 Q 810 643 833 649 Q 852 656 845 673 Q 835 689 812 705 Q 793 720 780 719 Q 768 718 771 706 Q 772 690 758 674 Z"></path>
      </clipPath>
      <path clip-path="url(#make-me-a-hanzi-clip-5)" d="M 783 707 L 797 671 L 688 587" fill="none" id="make-me-a-hanzi-animation-5" stroke-dasharray="304 608" stroke-linecap="round"></path>
    
      <clipPath id="make-me-a-hanzi-clip-6">
        <path d="M 603 773 Q 633 722 608 566 Q 601 538 588 505 Q 570 462 511 401 Q 498 389 495 383 Q 494 377 504 377 Q 534 377 588 430 Q 657 505 671 687 Q 671 700 678 749 Q 684 768 665 777 Q 620 799 607 797 Q 588 794 603 773 Z"></path>
      </clipPath>
      <path clip-path="url(#make-me-a-hanzi-clip-6)" d="M 608 785 L 643 756 L 647 742 L 644 658 L 628 553 L 614 511 L 584 456 L 533 402 L 502 384" fill="none" id="make-me-a-hanzi-animation-6" stroke-dasharray="595 1190" stroke-linecap="round"></path>
    
      <clipPath id="make-me-a-hanzi-clip-7">
        <path d="M 670 507 Q 718 476 775 426 Q 791 411 804 409 Q 811 409 817 418 Q 824 431 810 466 Q 792 508 667 533 Q 660 537 659 526 Q 660 514 670 507 Z"></path>
      </clipPath>
      <path clip-path="url(#make-me-a-hanzi-clip-7)" d="M 669 523 L 769 470 L 804 424" fill="none" id="make-me-a-hanzi-animation-7" stroke-dasharray="299 598" stroke-linecap="round"></path>
    
      <clipPath id="make-me-a-hanzi-clip-8">
        <path d="M 481 269 Q 500 250 521 226 Q 530 216 541 216 Q 548 215 554 225 Q 558 235 553 257 Q 550 273 528 285 Q 476 309 464 306 Q 460 305 460 294 Q 463 287 481 269 Z"></path>
      </clipPath>
      <path clip-path="url(#make-me-a-hanzi-clip-8)" d="M 467 298 L 523 259 L 539 232" fill="none" id="make-me-a-hanzi-animation-8" stroke-dasharray="228 456" stroke-linecap="round"></path>
    
      <clipPath id="make-me-a-hanzi-clip-9">
        <path d="M 765 337 Q 747 316 681 265 Q 668 252 685 251 Q 725 263 794 288 Q 815 298 839 303 Q 861 307 855 326 Q 846 345 825 363 Q 806 381 794 381 Q 781 382 783 369 Q 782 351 765 337 Z"></path>
      </clipPath>
      <path clip-path="url(#make-me-a-hanzi-clip-9)" d="M 791 372 L 804 350 L 805 329 L 688 259" fill="none" id="make-me-a-hanzi-animation-9" stroke-dasharray="311 622" stroke-linecap="round"></path>
    
      <clipPath id="make-me-a-hanzi-clip-10">
        <path d="M 645 223 Q 654 263 663 317 Q 667 339 672 349 Q 679 356 673 366 Q 667 373 639 384 Q 608 400 593 394 Q 583 388 591 373 Q 624 276 558 140 Q 555 139 555 136 Q 519 73 407 13 Q 385 0 413 1 Q 428 0 459 11 Q 498 21 531 42 Q 594 75 633 181 Q 634 188 637 196 L 645 223 Z"></path>
      </clipPath>
      <path clip-path="url(#make-me-a-hanzi-clip-10)" d="M 600 383 L 634 349 L 632 312 L 621 235 L 584 133 L 558 96 L 525 65 L 446 18 L 418 11" fill="none" id="make-me-a-hanzi-animation-10" stroke-dasharray="611 1222" stroke-linecap="round"></path>
    
      <clipPath id="make-me-a-hanzi-clip-11">
        <path d="M 637 196 Q 707 96 797 -12 Q 815 -31 844 -28 Q 943 -21 974 -14 Q 983 -11 984 -7 Q 985 -3 972 5 Q 843 57 761 120 Q 707 166 645 223 C 623 243 620 221 637 196 Z"></path>
      </clipPath>
      <path clip-path="url(#make-me-a-hanzi-clip-11)" d="M 649 215 L 651 199 L 711 132 L 833 18 L 977 -7" fill="none" id="make-me-a-hanzi-animation-11" stroke-dasharray="547 1094" stroke-linecap="round"></path>
    
  </g>
</svg>