<svg version="1.1" viewBox="0 0 1024 1024" xmlns="http://www.w3.org/2000/svg">
  <g stroke="lightgray" stroke-dasharray="1,1" stroke-width="1" transform="scale(4, 4)">
    <line x1="0" y1="0" x2="256" y2="256"></line>
    <line x1="256" y1="0" x2="0" y2="256"></line>
    <line x1="128" y1="0" x2="128" y2="256"></line>
    <line x1="0" y1="128" x2="256" y2="128"></line>
  </g>
  <g transform="scale(1, -1) translate(0, -900)">
    <style type="text/css">
      
        @keyframes keyframes0 {
          from {
            stroke: blue;
            stroke-dashoffset: 527;
            stroke-width: 128;
          }
          63% {
            animation-timing-function: step-end;
            stroke: blue;
            stroke-dashoffset: 0;
            stroke-width: 128;
          }
          to {
            stroke: black;
            stroke-width: 1024;
          }
        }
        #make-me-a-hanzi-animation-0 {
          animation: keyframes0 0.6788736979166666s both;
          animation-delay: 0s;
          animation-timing-function: linear;
        }
      
        @keyframes keyframes1 {
          from {
            stroke: blue;
            stroke-dashoffset: 620;
            stroke-width: 128;
          }
          67% {
            animation-timing-function: step-end;
            stroke: blue;
            stroke-dashoffset: 0;
            stroke-width: 128;
          }
          to {
            stroke: black;
            stroke-width: 1024;
          }
        }
        #make-me-a-hanzi-animation-1 {
          animation: keyframes1 0.7545572916666666s both;
          animation-delay: 0.6788736979166666s;
          animation-timing-function: linear;
        }
      
        @keyframes keyframes2 {
          from {
            stroke: blue;
            stroke-dashoffset: 668;
            stroke-width: 128;
          }
          68% {
            animation-timing-function: step-end;
            stroke: blue;
            stroke-dashoffset: 0;
            stroke-width: 128;
          }
          to {
            stroke: black;
            stroke-width: 1024;
          }
        }
        #make-me-a-hanzi-animation-2 {
          animation: keyframes2 0.7936197916666666s both;
          animation-delay: 1.4334309895833333s;
          animation-timing-function: linear;
        }
      
        @keyframes keyframes3 {
          from {
            stroke: blue;
            stroke-dashoffset: 520;
            stroke-width: 128;
          }
          63% {
            animation-timing-function: step-end;
            stroke: blue;
            stroke-dashoffset: 0;
            stroke-width: 128;
          }
          to {
            stroke: black;
            stroke-width: 1024;
          }
        }
        #make-me-a-hanzi-animation-3 {
          animation: keyframes3 0.6731770833333334s both;
          animation-delay: 2.22705078125s;
          animation-timing-function: linear;
        }
      
        @keyframes keyframes4 {
          from {
            stroke: blue;
            stroke-dashoffset: 353;
            stroke-width: 128;
          }
          53% {
            animation-timing-function: step-end;
            stroke: blue;
            stroke-dashoffset: 0;
            stroke-width: 128;
          }
          to {
            stroke: black;
            stroke-width: 1024;
          }
        }
        #make-me-a-hanzi-animation-4 {
          animation: keyframes4 0.5372721354166666s both;
          animation-delay: 2.9002278645833335s;
          animation-timing-function: linear;
        }
      
        @keyframes keyframes5 {
          from {
            stroke: blue;
            stroke-dashoffset: 579;
            stroke-width: 128;
          }
          65% {
            animation-timing-function: step-end;
            stroke: blue;
            stroke-dashoffset: 0;
            stroke-width: 128;
          }
          to {
            stroke: black;
            stroke-width: 1024;
          }
        }
        #make-me-a-hanzi-animation-5 {
          animation: keyframes5 0.72119140625s both;
          animation-delay: 3.4375s;
          animation-timing-function: linear;
        }
      
        @keyframes keyframes6 {
          from {
            stroke: blue;
            stroke-dashoffset: 1045;
            stroke-width: 128;
          }
          77% {
            animation-timing-function: step-end;
            stroke: blue;
            stroke-dashoffset: 0;
            stroke-width: 128;
          }
          to {
            stroke: black;
            stroke-width: 1024;
          }
        }
        #make-me-a-hanzi-animation-6 {
          animation: keyframes6 1.1004231770833333s both;
          animation-delay: 4.15869140625s;
          animation-timing-function: linear;
        }
      
        @keyframes keyframes7 {
          from {
            stroke: blue;
            stroke-dashoffset: 371;
            stroke-width: 128;
          }
          55% {
            animation-timing-function: step-end;
            stroke: blue;
            stroke-dashoffset: 0;
            stroke-width: 128;
          }
          to {
            stroke: black;
            stroke-width: 1024;
          }
        }
        #make-me-a-hanzi-animation-7 {
          animation: keyframes7 0.5519205729166666s both;
          animation-delay: 5.259114583333333s;
          animation-timing-function: linear;
        }
      
        @keyframes keyframes8 {
          from {
            stroke: blue;
            stroke-dashoffset: 528;
            stroke-width: 128;
          }
          63% {
            animation-timing-function: step-end;
            stroke: blue;
            stroke-dashoffset: 0;
            stroke-width: 128;
          }
          to {
            stroke: black;
            stroke-width: 1024;
          }
        }
        #make-me-a-hanzi-animation-8 {
          animation: keyframes8 0.6796875s both;
          animation-delay: 5.81103515625s;
          animation-timing-function: linear;
        }
      
        @keyframes keyframes9 {
          from {
            stroke: blue;
            stroke-dashoffset: 576;
            stroke-width: 128;
          }
          65% {
            animation-timing-function: step-end;
            stroke: blue;
            stroke-dashoffset: 0;
            stroke-width: 128;
          }
          to {
            stroke: black;
            stroke-width: 1024;
          }
        }
        #make-me-a-hanzi-animation-9 {
          animation: keyframes9 0.71875s both;
          animation-delay: 6.49072265625s;
          animation-timing-function: linear;
        }
      
        @keyframes keyframes10 {
          from {
            stroke: blue;
            stroke-dashoffset: 578;
            stroke-width: 128;
          }
          65% {
            animation-timing-function: step-end;
            stroke: blue;
            stroke-dashoffset: 0;
            stroke-width: 128;
          }
          to {
            stroke: black;
            stroke-width: 1024;
          }
        }
        #make-me-a-hanzi-animation-10 {
          animation: keyframes10 0.7203776041666666s both;
          animation-delay: 7.20947265625s;
          animation-timing-function: linear;
        }
      
        @keyframes keyframes11 {
          from {
            stroke: blue;
            stroke-dashoffset: 639;
            stroke-width: 128;
          }
          68% {
            animation-timing-function: step-end;
            stroke: blue;
            stroke-dashoffset: 0;
            stroke-width: 128;
          }
          to {
            stroke: black;
            stroke-width: 1024;
          }
        }
        #make-me-a-hanzi-animation-11 {
          animation: keyframes11 0.77001953125s both;
          animation-delay: 7.929850260416667s;
          animation-timing-function: linear;
        }
      
        @keyframes keyframes12 {
          from {
            stroke: blue;
            stroke-dashoffset: 479;
            stroke-width: 128;
          }
          61% {
            animation-timing-function: step-end;
            stroke: blue;
            stroke-dashoffset: 0;
            stroke-width: 128;
          }
          to {
            stroke: black;
            stroke-width: 1024;
          }
        }
        #make-me-a-hanzi-animation-12 {
          animation: keyframes12 0.6398111979166666s both;
          animation-delay: 8.699869791666668s;
          animation-timing-function: linear;
        }
      
    </style>
    
      <path d="M 379 600 Q 469 627 473 630 Q 480 637 475 645 Q 468 655 441 661 Q 399 667 382 650 L 334 632 Q 274 614 210 603 Q 177 596 202 581 Q 241 563 294 578 Q 310 584 334 588 L 379 600 Z" fill="lightgray"></path>
    
      <path d="M 373 489 Q 376 546 379 600 L 382 650 Q 382 716 401 794 Q 404 804 385 818 Q 351 836 329 839 Q 313 842 306 834 Q 299 827 307 813 Q 328 783 328 763 Q 332 700 334 632 L 334 588 Q 334 536 333 480 C 332 450 371 459 373 489 Z" fill="lightgray"></path>
    
      <path d="M 353 447 Q 410 460 481 469 Q 497 470 498 478 Q 499 490 482 498 Q 454 511 373 489 L 333 480 Q 153 444 88 437 Q 76 436 73 428 Q 70 418 85 407 Q 121 380 161 394 Q 297 439 317 439 L 353 447 Z" fill="lightgray"></path>
    
      <path d="M 369 185 Q 373 258 379 317 L 382 355 Q 382 374 386 394 Q 395 416 353 447 C 329 465 305 467 317 439 Q 329 418 329 336 Q 329 291 328 207 C 328 177 367 155 369 185 Z" fill="lightgray"></path>
    
      <path d="M 379 317 Q 430 330 470 338 Q 492 345 482 357 Q 469 370 444 371 Q 420 371 382 355 C 354 344 350 310 379 317 Z" fill="lightgray"></path>
    
      <path d="M 230 264 Q 246 292 264 315 Q 274 328 259 342 Q 217 373 191 371 Q 181 368 182 354 Q 198 267 95 143 Q 83 137 53 96 Q 46 81 60 86 Q 78 89 101 107 Q 174 165 214 237 Q 214 238 215 240 L 230 264 Z" fill="lightgray"></path>
    
      <path d="M 215 240 Q 257 198 493 69 Q 589 21 687 -23 Q 724 -39 769 -26 Q 847 -2 929 28 Q 957 40 965 50 Q 968 62 950 60 Q 851 63 792 59 Q 633 56 446 148 Q 407 166 369 185 L 328 207 Q 279 235 230 264 C 204 279 192 259 215 240 Z" fill="lightgray"></path>
    
      <path d="M 511 575 Q 568 530 581 531 Q 590 532 593 544 Q 596 557 586 582 Q 577 603 503 616 Q 490 617 484 615 Q 480 611 482 600 Q 486 590 511 575 Z" fill="lightgray"></path>
    
      <path d="M 461 277 Q 452 276 452 262 Q 455 205 478 188 Q 482 182 490 183 Q 496 183 499 202 Q 511 239 607 408 Q 614 418 613 423 Q 614 430 606 427 Q 602 426 495 303 Q 483 290 461 277 Z" fill="lightgray"></path>
    
      <path d="M 679 577 Q 700 619 719 674 Q 728 704 738 720 Q 744 730 737 740 Q 731 750 704 762 Q 679 771 664 767 Q 651 763 661 746 Q 683 719 647 601 Q 631 547 603 486 Q 597 476 597 470 Q 596 461 607 466 Q 625 475 667 553 L 679 577 Z" fill="lightgray"></path>
    
      <path d="M 667 553 Q 683 538 728 553 Q 812 581 827 576 Q 837 567 833 561 Q 833 558 796 499 Q 789 490 793 484 Q 796 480 808 489 Q 896 540 936 550 Q 945 551 946 558 Q 947 570 922 586 Q 862 628 835 619 Q 774 597 679 577 C 650 571 641 568 667 553 Z" fill="lightgray"></path>
    
      <path d="M 727 332 Q 736 366 744 414 Q 747 432 751 440 Q 757 446 752 454 Q 748 460 724 469 Q 697 482 684 477 Q 675 473 683 460 Q 704 352 654 272 Q 626 223 539 175 Q 520 163 543 164 Q 579 161 638 197 Q 686 222 719 306 L 727 332 Z" fill="lightgray"></path>
    
      <path d="M 719 306 Q 777 248 846 162 Q 858 144 871 140 Q 878 139 885 146 Q 895 156 888 194 Q 879 248 727 332 C 701 347 698 327 719 306 Z" fill="lightgray"></path>
    
    
      <clipPath id="make-me-a-hanzi-clip-0">
        <path d="M 379 600 Q 469 627 473 630 Q 480 637 475 645 Q 468 655 441 661 Q 399 667 382 650 L 334 632 Q 274 614 210 603 Q 177 596 202 581 Q 241 563 294 578 Q 310 584 334 588 L 379 600 Z"></path>
      </clipPath>
      <path clip-path="url(#make-me-a-hanzi-clip-0)" d="M 203 593 L 266 592 L 415 638 L 467 638" fill="none" id="make-me-a-hanzi-animation-0" stroke-dasharray="399 798" stroke-linecap="round"></path>
    
      <clipPath id="make-me-a-hanzi-clip-1">
        <path d="M 373 489 Q 376 546 379 600 L 382 650 Q 382 716 401 794 Q 404 804 385 818 Q 351 836 329 839 Q 313 842 306 834 Q 299 827 307 813 Q 328 783 328 763 Q 332 700 334 632 L 334 588 Q 334 536 333 480 C 332 450 371 459 373 489 Z"></path>
      </clipPath>
      <path clip-path="url(#make-me-a-hanzi-clip-1)" d="M 317 825 L 350 801 L 361 789 L 362 778 L 355 514 L 350 499 L 338 488" fill="none" id="make-me-a-hanzi-animation-1" stroke-dasharray="492 984" stroke-linecap="round"></path>
    
      <clipPath id="make-me-a-hanzi-clip-2">
        <path d="M 353 447 Q 410 460 481 469 Q 497 470 498 478 Q 499 490 482 498 Q 454 511 373 489 L 333 480 Q 153 444 88 437 Q 76 436 73 428 Q 70 418 85 407 Q 121 380 161 394 Q 297 439 317 439 L 353 447 Z"></path>
      </clipPath>
      <path clip-path="url(#make-me-a-hanzi-clip-2)" d="M 84 424 L 136 416 L 409 479 L 465 485 L 488 481" fill="none" id="make-me-a-hanzi-animation-2" stroke-dasharray="540 1080" stroke-linecap="round"></path>
    
      <clipPath id="make-me-a-hanzi-clip-3">
        <path d="M 369 185 Q 373 258 379 317 L 382 355 Q 382 374 386 394 Q 395 416 353 447 C 329 465 305 467 317 439 Q 329 418 329 336 Q 329 291 328 207 C 328 177 367 155 369 185 Z"></path>
      </clipPath>
      <path clip-path="url(#make-me-a-hanzi-clip-3)" d="M 324 438 L 348 420 L 357 402 L 349 220 L 365 193" fill="none" id="make-me-a-hanzi-animation-3" stroke-dasharray="392 784" stroke-linecap="round"></path>
    
      <clipPath id="make-me-a-hanzi-clip-4">
        <path d="M 379 317 Q 430 330 470 338 Q 492 345 482 357 Q 469 370 444 371 Q 420 371 382 355 C 354 344 350 310 379 317 Z"></path>
      </clipPath>
      <path clip-path="url(#make-me-a-hanzi-clip-4)" d="M 386 323 L 409 345 L 449 353 L 473 350" fill="none" id="make-me-a-hanzi-animation-4" stroke-dasharray="225 450" stroke-linecap="round"></path>
    
      <clipPath id="make-me-a-hanzi-clip-5">
        <path d="M 230 264 Q 246 292 264 315 Q 274 328 259 342 Q 217 373 191 371 Q 181 368 182 354 Q 198 267 95 143 Q 83 137 53 96 Q 46 81 60 86 Q 78 89 101 107 Q 174 165 214 237 Q 214 238 215 240 L 230 264 Z"></path>
      </clipPath>
      <path clip-path="url(#make-me-a-hanzi-clip-5)" d="M 196 358 L 221 318 L 189 243 L 168 206 L 121 146 L 64 96" fill="none" id="make-me-a-hanzi-animation-5" stroke-dasharray="451 902" stroke-linecap="round"></path>
    
      <clipPath id="make-me-a-hanzi-clip-6">
        <path d="M 215 240 Q 257 198 493 69 Q 589 21 687 -23 Q 724 -39 769 -26 Q 847 -2 929 28 Q 957 40 965 50 Q 968 62 950 60 Q 851 63 792 59 Q 633 56 446 148 Q 407 166 369 185 L 328 207 Q 279 235 230 264 C 204 279 192 259 215 240 Z"></path>
      </clipPath>
      <path clip-path="url(#make-me-a-hanzi-clip-6)" d="M 223 244 L 241 240 L 343 175 L 494 97 L 625 43 L 698 20 L 764 16 L 956 52" fill="none" id="make-me-a-hanzi-animation-6" stroke-dasharray="917 1834" stroke-linecap="round"></path>
    
      <clipPath id="make-me-a-hanzi-clip-7">
        <path d="M 511 575 Q 568 530 581 531 Q 590 532 593 544 Q 596 557 586 582 Q 577 603 503 616 Q 490 617 484 615 Q 480 611 482 600 Q 486 590 511 575 Z"></path>
      </clipPath>
      <path clip-path="url(#make-me-a-hanzi-clip-7)" d="M 489 607 L 562 570 L 580 542" fill="none" id="make-me-a-hanzi-animation-7" stroke-dasharray="243 486" stroke-linecap="round"></path>
    
      <clipPath id="make-me-a-hanzi-clip-8">
        <path d="M 461 277 Q 452 276 452 262 Q 455 205 478 188 Q 482 182 490 183 Q 496 183 499 202 Q 511 239 607 408 Q 614 418 613 423 Q 614 430 606 427 Q 602 426 495 303 Q 483 290 461 277 Z"></path>
      </clipPath>
      <path clip-path="url(#make-me-a-hanzi-clip-8)" d="M 487 192 L 481 223 L 485 250 L 573 376 L 597 399 L 608 423" fill="none" id="make-me-a-hanzi-animation-8" stroke-dasharray="400 800" stroke-linecap="round"></path>
    
      <clipPath id="make-me-a-hanzi-clip-9">
        <path d="M 679 577 Q 700 619 719 674 Q 728 704 738 720 Q 744 730 737 740 Q 731 750 704 762 Q 679 771 664 767 Q 651 763 661 746 Q 683 719 647 601 Q 631 547 603 486 Q 597 476 597 470 Q 596 461 607 466 Q 625 475 667 553 L 679 577 Z"></path>
      </clipPath>
      <path clip-path="url(#make-me-a-hanzi-clip-9)" d="M 668 756 L 690 742 L 702 725 L 696 689 L 655 567 L 604 472" fill="none" id="make-me-a-hanzi-animation-9" stroke-dasharray="448 896" stroke-linecap="round"></path>
    
      <clipPath id="make-me-a-hanzi-clip-10">
        <path d="M 667 553 Q 683 538 728 553 Q 812 581 827 576 Q 837 567 833 561 Q 833 558 796 499 Q 789 490 793 484 Q 796 480 808 489 Q 896 540 936 550 Q 945 551 946 558 Q 947 570 922 586 Q 862 628 835 619 Q 774 597 679 577 C 650 571 641 568 667 553 Z"></path>
      </clipPath>
      <path clip-path="url(#make-me-a-hanzi-clip-10)" d="M 675 556 L 810 594 L 848 593 L 874 570 L 857 546 L 799 491" fill="none" id="make-me-a-hanzi-animation-10" stroke-dasharray="450 900" stroke-linecap="round"></path>
    
      <clipPath id="make-me-a-hanzi-clip-11">
        <path d="M 727 332 Q 736 366 744 414 Q 747 432 751 440 Q 757 446 752 454 Q 748 460 724 469 Q 697 482 684 477 Q 675 473 683 460 Q 704 352 654 272 Q 626 223 539 175 Q 520 163 543 164 Q 579 161 638 197 Q 686 222 719 306 L 727 332 Z"></path>
      </clipPath>
      <path clip-path="url(#make-me-a-hanzi-clip-11)" d="M 689 468 L 708 452 L 718 428 L 707 343 L 689 289 L 666 249 L 633 216 L 593 189 L 548 172" fill="none" id="make-me-a-hanzi-animation-11" stroke-dasharray="511 1022" stroke-linecap="round"></path>
    
      <clipPath id="make-me-a-hanzi-clip-12">
        <path d="M 719 306 Q 777 248 846 162 Q 858 144 871 140 Q 878 139 885 146 Q 895 156 888 194 Q 879 248 727 332 C 701 347 698 327 719 306 Z"></path>
      </clipPath>
      <path clip-path="url(#make-me-a-hanzi-clip-12)" d="M 735 322 L 736 310 L 838 220 L 864 182 L 873 155" fill="none" id="make-me-a-hanzi-animation-12" stroke-dasharray="351 702" stroke-linecap="round"></path>
    
  </g>
</svg>