<svg version="1.1" viewBox="0 0 1024 1024" xmlns="http://www.w3.org/2000/svg">
  <g stroke="lightgray" stroke-dasharray="1,1" stroke-width="1" transform="scale(4, 4)">
    <line x1="0" y1="0" x2="256" y2="256"></line>
    <line x1="256" y1="0" x2="0" y2="256"></line>
    <line x1="128" y1="0" x2="128" y2="256"></line>
    <line x1="0" y1="128" x2="256" y2="128"></line>
  </g>
  <g transform="scale(1, -1) translate(0, -900)">
    <style type="text/css">
      
        @keyframes keyframes0 {
          from {
            stroke: blue;
            stroke-dashoffset: 444;
            stroke-width: 128;
          }
          59% {
            animation-timing-function: step-end;
            stroke: blue;
            stroke-dashoffset: 0;
            stroke-width: 128;
          }
          to {
            stroke: black;
            stroke-width: 1024;
          }
        }
        #make-me-a-hanzi-animation-0 {
          animation: keyframes0 0.611328125s both;
          animation-delay: 0s;
          animation-timing-function: linear;
        }
      
        @keyframes keyframes1 {
          from {
            stroke: blue;
            stroke-dashoffset: 565;
            stroke-width: 128;
          }
          65% {
            animation-timing-function: step-end;
            stroke: blue;
            stroke-dashoffset: 0;
            stroke-width: 128;
          }
          to {
            stroke: black;
            stroke-width: 1024;
          }
        }
        #make-me-a-hanzi-animation-1 {
          animation: keyframes1 0.7097981770833334s both;
          animation-delay: 0.611328125s;
          animation-timing-function: linear;
        }
      
        @keyframes keyframes2 {
          from {
            stroke: blue;
            stroke-dashoffset: 410;
            stroke-width: 128;
          }
          57% {
            animation-timing-function: step-end;
            stroke: blue;
            stroke-dashoffset: 0;
            stroke-width: 128;
          }
          to {
            stroke: black;
            stroke-width: 1024;
          }
        }
        #make-me-a-hanzi-animation-2 {
          animation: keyframes2 0.5836588541666666s both;
          animation-delay: 1.3211263020833335s;
          animation-timing-function: linear;
        }
      
        @keyframes keyframes3 {
          from {
            stroke: blue;
            stroke-dashoffset: 559;
            stroke-width: 128;
          }
          65% {
            animation-timing-function: step-end;
            stroke: blue;
            stroke-dashoffset: 0;
            stroke-width: 128;
          }
          to {
            stroke: black;
            stroke-width: 1024;
          }
        }
        #make-me-a-hanzi-animation-3 {
          animation: keyframes3 0.7049153645833334s both;
          animation-delay: 1.90478515625s;
          animation-timing-function: linear;
        }
      
        @keyframes keyframes4 {
          from {
            stroke: blue;
            stroke-dashoffset: 353;
            stroke-width: 128;
          }
          53% {
            animation-timing-function: step-end;
            stroke: blue;
            stroke-dashoffset: 0;
            stroke-width: 128;
          }
          to {
            stroke: black;
            stroke-width: 1024;
          }
        }
        #make-me-a-hanzi-animation-4 {
          animation: keyframes4 0.5372721354166666s both;
          animation-delay: 2.6097005208333335s;
          animation-timing-function: linear;
        }
      
        @keyframes keyframes5 {
          from {
            stroke: blue;
            stroke-dashoffset: 492;
            stroke-width: 128;
          }
          62% {
            animation-timing-function: step-end;
            stroke: blue;
            stroke-dashoffset: 0;
            stroke-width: 128;
          }
          to {
            stroke: black;
            stroke-width: 1024;
          }
        }
        #make-me-a-hanzi-animation-5 {
          animation: keyframes5 0.650390625s both;
          animation-delay: 3.14697265625s;
          animation-timing-function: linear;
        }
      
        @keyframes keyframes6 {
          from {
            stroke: blue;
            stroke-dashoffset: 622;
            stroke-width: 128;
          }
          67% {
            animation-timing-function: step-end;
            stroke: blue;
            stroke-dashoffset: 0;
            stroke-width: 128;
          }
          to {
            stroke: black;
            stroke-width: 1024;
          }
        }
        #make-me-a-hanzi-animation-6 {
          animation: keyframes6 0.7561848958333334s both;
          animation-delay: 3.79736328125s;
          animation-timing-function: linear;
        }
      
        @keyframes keyframes7 {
          from {
            stroke: blue;
            stroke-dashoffset: 475;
            stroke-width: 128;
          }
          61% {
            animation-timing-function: step-end;
            stroke: blue;
            stroke-dashoffset: 0;
            stroke-width: 128;
          }
          to {
            stroke: black;
            stroke-width: 1024;
          }
        }
        #make-me-a-hanzi-animation-7 {
          animation: keyframes7 0.6365559895833334s both;
          animation-delay: 4.553548177083333s;
          animation-timing-function: linear;
        }
      
        @keyframes keyframes8 {
          from {
            stroke: blue;
            stroke-dashoffset: 534;
            stroke-width: 128;
          }
          63% {
            animation-timing-function: step-end;
            stroke: blue;
            stroke-dashoffset: 0;
            stroke-width: 128;
          }
          to {
            stroke: black;
            stroke-width: 1024;
          }
        }
        #make-me-a-hanzi-animation-8 {
          animation: keyframes8 0.6845703125s both;
          animation-delay: 5.190104166666666s;
          animation-timing-function: linear;
        }
      
        @keyframes keyframes9 {
          from {
            stroke: blue;
            stroke-dashoffset: 722;
            stroke-width: 128;
          }
          70% {
            animation-timing-function: step-end;
            stroke: blue;
            stroke-dashoffset: 0;
            stroke-width: 128;
          }
          to {
            stroke: black;
            stroke-width: 1024;
          }
        }
        #make-me-a-hanzi-animation-9 {
          animation: keyframes9 0.8375651041666666s both;
          animation-delay: 5.874674479166666s;
          animation-timing-function: linear;
        }
      
        @keyframes keyframes10 {
          from {
            stroke: blue;
            stroke-dashoffset: 1177;
            stroke-width: 128;
          }
          79% {
            animation-timing-function: step-end;
            stroke: blue;
            stroke-dashoffset: 0;
            stroke-width: 128;
          }
          to {
            stroke: black;
            stroke-width: 1024;
          }
        }
        #make-me-a-hanzi-animation-10 {
          animation: keyframes10 1.2078450520833333s both;
          animation-delay: 6.712239583333333s;
          animation-timing-function: linear;
        }
      
        @keyframes keyframes11 {
          from {
            stroke: blue;
            stroke-dashoffset: 703;
            stroke-width: 128;
          }
          70% {
            animation-timing-function: step-end;
            stroke: blue;
            stroke-dashoffset: 0;
            stroke-width: 128;
          }
          to {
            stroke: black;
            stroke-width: 1024;
          }
        }
        #make-me-a-hanzi-animation-11 {
          animation: keyframes11 0.8221028645833334s both;
          animation-delay: 7.920084635416666s;
          animation-timing-function: linear;
        }
      
    </style>
    
      <path d="M 197 636 Q 187 640 156 643 Q 144 646 141 640 Q 135 633 145 618 Q 170 575 192 502 Q 196 480 211 466 Q 230 447 234 462 Q 235 468 236 474 L 234 504 Q 225 522 214 608 C 211 632 211 632 197 636 Z" fill="lightgray"></path>
    
      <path d="M 377 527 Q 396 599 418 621 Q 440 648 417 662 Q 351 695 350 695 Q 340 695 329 689 Q 289 659 197 636 C 168 629 185 599 214 608 Q 244 618 308 636 Q 333 643 340 633 Q 347 627 339 593 Q 332 563 324 530 C 317 501 369 498 377 527 Z" fill="lightgray"></path>
    
      <path d="M 295 483 Q 331 492 387 499 Q 397 500 397 509 Q 397 516 377 527 C 355 540 353 539 324 530 Q 273 514 234 504 C 205 496 206 476 236 474 Q 237 475 239 474 Q 245 473 256 474 L 295 483 Z" fill="lightgray"></path>
    
      <path d="M 317 192 Q 318 271 321 339 L 322 374 Q 322 404 324 435 Q 331 453 322 462 Q 309 475 295 483 C 270 499 245 502 256 474 Q 268 452 272 349 Q 272 289 275 179 C 276 149 317 162 317 192 Z" fill="lightgray"></path>
    
      <path d="M 321 339 Q 321 340 324 340 Q 376 353 414 362 Q 436 369 426 381 Q 413 394 388 394 Q 364 394 322 374 C 295 361 292 330 321 339 Z" fill="lightgray"></path>
    
      <path d="M 210 161 Q 189 303 193 334 Q 194 355 179 364 Q 157 379 132 384 Q 119 388 111 381 Q 104 375 112 362 Q 131 332 143 299 Q 150 268 174 150 C 180 121 214 131 210 161 Z" fill="lightgray"></path>
    
      <path d="M 174 150 Q 107 138 94 137 Q 81 136 79 124 Q 76 111 86 102 Q 110 86 144 66 Q 154 63 167 72 Q 296 139 428 207 Q 441 214 442 224 Q 436 230 424 227 Q 372 211 317 192 L 275 179 Q 242 172 210 161 L 174 150 Z" fill="lightgray"></path>
    
      <path d="M 527 517 Q 527 518 555 586 Q 561 599 546 608 Q 503 627 484 620 Q 475 616 480 604 Q 507 547 458 453 Q 448 434 443 422 Q 439 409 450 415 Q 478 427 515 492 L 527 517 Z" fill="lightgray"></path>
    
      <path d="M 661 505 Q 796 541 800 544 Q 807 551 803 558 Q 796 568 771 574 Q 749 578 664 547 L 616 534 Q 573 525 527 517 C 497 512 487 502 515 492 Q 548 479 590 489 Q 600 492 614 494 L 661 505 Z" fill="lightgray"></path>
    
      <path d="M 650 351 Q 659 352 871 372 Q 889 373 893 381 Q 897 391 882 403 Q 833 433 776 419 Q 727 407 654 389 L 604 379 Q 519 363 426 345 Q 407 341 422 327 Q 435 315 452 312 Q 471 308 485 313 Q 537 331 599 342 L 650 351 Z" fill="lightgray"></path>
    
      <path d="M 648 337 Q 648 344 650 351 L 654 389 Q 657 428 661 505 L 664 547 Q 670 676 695 749 Q 702 764 691 776 Q 669 795 627 807 Q 602 814 592 807 Q 582 800 590 787 Q 614 748 616 699 Q 619 615 616 534 L 614 494 Q 608 403 604 379 L 599 342 Q 575 197 481 114 Q 433 77 362 39 Q 349 32 349 27 Q 350 23 362 22 Q 380 18 425 34 Q 575 79 628 239 Q 635 266 641 295 L 648 337 Z" fill="lightgray"></path>
    
      <path d="M 641 295 Q 699 187 774 70 Q 790 48 821 45 Q 927 38 960 39 Q 970 40 972 45 Q 973 49 960 59 Q 831 132 762 201 Q 707 262 648 337 C 629 361 627 321 641 295 Z" fill="lightgray"></path>
    
    
      <clipPath id="make-me-a-hanzi-clip-0">
        <path d="M 197 636 Q 187 640 156 643 Q 144 646 141 640 Q 135 633 145 618 Q 170 575 192 502 Q 196 480 211 466 Q 230 447 234 462 Q 235 468 236 474 L 234 504 Q 225 522 214 608 C 211 632 211 632 197 636 Z"></path>
      </clipPath>
      <path clip-path="url(#make-me-a-hanzi-clip-0)" d="M 150 633 L 179 612 L 190 593 L 223 467" fill="none" id="make-me-a-hanzi-animation-0" stroke-dasharray="316 632" stroke-linecap="round"></path>
    
      <clipPath id="make-me-a-hanzi-clip-1">
        <path d="M 377 527 Q 396 599 418 621 Q 440 648 417 662 Q 351 695 350 695 Q 340 695 329 689 Q 289 659 197 636 C 168 629 185 599 214 608 Q 244 618 308 636 Q 333 643 340 633 Q 347 627 339 593 Q 332 563 324 530 C 317 501 369 498 377 527 Z"></path>
      </clipPath>
      <path clip-path="url(#make-me-a-hanzi-clip-1)" d="M 208 636 L 224 627 L 346 665 L 370 650 L 380 637 L 379 628 L 357 554 L 331 535" fill="none" id="make-me-a-hanzi-animation-1" stroke-dasharray="437 874" stroke-linecap="round"></path>
    
      <clipPath id="make-me-a-hanzi-clip-2">
        <path d="M 295 483 Q 331 492 387 499 Q 397 500 397 509 Q 397 516 377 527 C 355 540 353 539 324 530 Q 273 514 234 504 C 205 496 206 476 236 474 Q 237 475 239 474 Q 245 473 256 474 L 295 483 Z"></path>
      </clipPath>
      <path clip-path="url(#make-me-a-hanzi-clip-2)" d="M 238 482 L 259 493 L 330 511 L 387 509" fill="none" id="make-me-a-hanzi-animation-2" stroke-dasharray="282 564" stroke-linecap="round"></path>
    
      <clipPath id="make-me-a-hanzi-clip-3">
        <path d="M 317 192 Q 318 271 321 339 L 322 374 Q 322 404 324 435 Q 331 453 322 462 Q 309 475 295 483 C 270 499 245 502 256 474 Q 268 452 272 349 Q 272 289 275 179 C 276 149 317 162 317 192 Z"></path>
      </clipPath>
      <path clip-path="url(#make-me-a-hanzi-clip-3)" d="M 263 473 L 292 452 L 296 413 L 296 216 L 280 189" fill="none" id="make-me-a-hanzi-animation-3" stroke-dasharray="431 862" stroke-linecap="round"></path>
    
      <clipPath id="make-me-a-hanzi-clip-4">
        <path d="M 321 339 Q 321 340 324 340 Q 376 353 414 362 Q 436 369 426 381 Q 413 394 388 394 Q 364 394 322 374 C 295 361 292 330 321 339 Z"></path>
      </clipPath>
      <path clip-path="url(#make-me-a-hanzi-clip-4)" d="M 331 347 L 340 363 L 352 367 L 384 375 L 417 374" fill="none" id="make-me-a-hanzi-animation-4" stroke-dasharray="225 450" stroke-linecap="round"></path>
    
      <clipPath id="make-me-a-hanzi-clip-5">
        <path d="M 210 161 Q 189 303 193 334 Q 194 355 179 364 Q 157 379 132 384 Q 119 388 111 381 Q 104 375 112 362 Q 131 332 143 299 Q 150 268 174 150 C 180 121 214 131 210 161 Z"></path>
      </clipPath>
      <path clip-path="url(#make-me-a-hanzi-clip-5)" d="M 121 372 L 161 338 L 189 175 L 177 162" fill="none" id="make-me-a-hanzi-animation-5" stroke-dasharray="364 728" stroke-linecap="round"></path>
    
      <clipPath id="make-me-a-hanzi-clip-6">
        <path d="M 174 150 Q 107 138 94 137 Q 81 136 79 124 Q 76 111 86 102 Q 110 86 144 66 Q 154 63 167 72 Q 296 139 428 207 Q 441 214 442 224 Q 436 230 424 227 Q 372 211 317 192 L 275 179 Q 242 172 210 161 L 174 150 Z"></path>
      </clipPath>
      <path clip-path="url(#make-me-a-hanzi-clip-6)" d="M 94 122 L 151 107 L 436 221" fill="none" id="make-me-a-hanzi-animation-6" stroke-dasharray="494 988" stroke-linecap="round"></path>
    
      <clipPath id="make-me-a-hanzi-clip-7">
        <path d="M 527 517 Q 527 518 555 586 Q 561 599 546 608 Q 503 627 484 620 Q 475 616 480 604 Q 507 547 458 453 Q 448 434 443 422 Q 439 409 450 415 Q 478 427 515 492 L 527 517 Z"></path>
      </clipPath>
      <path clip-path="url(#make-me-a-hanzi-clip-7)" d="M 488 610 L 520 583 L 516 560 L 501 506 L 479 461 L 451 423" fill="none" id="make-me-a-hanzi-animation-7" stroke-dasharray="347 694" stroke-linecap="round"></path>
    
      <clipPath id="make-me-a-hanzi-clip-8">
        <path d="M 661 505 Q 796 541 800 544 Q 807 551 803 558 Q 796 568 771 574 Q 749 578 664 547 L 616 534 Q 573 525 527 517 C 497 512 487 502 515 492 Q 548 479 590 489 Q 600 492 614 494 L 661 505 Z"></path>
      </clipPath>
      <path clip-path="url(#make-me-a-hanzi-clip-8)" d="M 524 496 L 669 526 L 760 554 L 795 552" fill="none" id="make-me-a-hanzi-animation-8" stroke-dasharray="406 812" stroke-linecap="round"></path>
    
      <clipPath id="make-me-a-hanzi-clip-9">
        <path d="M 650 351 Q 659 352 871 372 Q 889 373 893 381 Q 897 391 882 403 Q 833 433 776 419 Q 727 407 654 389 L 604 379 Q 519 363 426 345 Q 407 341 422 327 Q 435 315 452 312 Q 471 308 485 313 Q 537 331 599 342 L 650 351 Z"></path>
      </clipPath>
      <path clip-path="url(#make-me-a-hanzi-clip-9)" d="M 424 336 L 475 332 L 600 361 L 789 393 L 839 395 L 883 386" fill="none" id="make-me-a-hanzi-animation-9" stroke-dasharray="594 1188" stroke-linecap="round"></path>
    
      <clipPath id="make-me-a-hanzi-clip-10">
        <path d="M 648 337 Q 648 344 650 351 L 654 389 Q 657 428 661 505 L 664 547 Q 670 676 695 749 Q 702 764 691 776 Q 669 795 627 807 Q 602 814 592 807 Q 582 800 590 787 Q 614 748 616 699 Q 619 615 616 534 L 614 494 Q 608 403 604 379 L 599 342 Q 575 197 481 114 Q 433 77 362 39 Q 349 32 349 27 Q 350 23 362 22 Q 380 18 425 34 Q 575 79 628 239 Q 635 266 641 295 L 648 337 Z"></path>
      </clipPath>
      <path clip-path="url(#make-me-a-hanzi-clip-10)" d="M 599 796 L 627 778 L 651 748 L 630 385 L 604 252 L 574 183 L 512 107 L 427 54 L 356 26" fill="none" id="make-me-a-hanzi-animation-10" stroke-dasharray="1049 2098" stroke-linecap="round"></path>
    
      <clipPath id="make-me-a-hanzi-clip-11">
        <path d="M 641 295 Q 699 187 774 70 Q 790 48 821 45 Q 927 38 960 39 Q 970 40 972 45 Q 973 49 960 59 Q 831 132 762 201 Q 707 262 648 337 C 629 361 627 321 641 295 Z"></path>
      </clipPath>
      <path clip-path="url(#make-me-a-hanzi-clip-11)" d="M 651 329 L 657 300 L 668 283 L 745 174 L 808 101 L 835 86 L 965 45" fill="none" id="make-me-a-hanzi-animation-11" stroke-dasharray="575 1150" stroke-linecap="round"></path>
    
  </g>
</svg>