<svg version="1.1" viewBox="0 0 1024 1024" xmlns="http://www.w3.org/2000/svg">
  <g stroke="lightgray" stroke-dasharray="1,1" stroke-width="1" transform="scale(4, 4)">
    <line x1="0" y1="0" x2="256" y2="256"></line>
    <line x1="256" y1="0" x2="0" y2="256"></line>
    <line x1="128" y1="0" x2="128" y2="256"></line>
    <line x1="0" y1="128" x2="256" y2="128"></line>
  </g>
  <g transform="scale(1, -1) translate(0, -900)">
    <style type="text/css">
      
        @keyframes keyframes0 {
          from {
            stroke: blue;
            stroke-dashoffset: 456;
            stroke-width: 128;
          }
          60% {
            animation-timing-function: step-end;
            stroke: blue;
            stroke-dashoffset: 0;
            stroke-width: 128;
          }
          to {
            stroke: black;
            stroke-width: 1024;
          }
        }
        #make-me-a-hanzi-animation-0 {
          animation: keyframes0 0.62109375s both;
          animation-delay: 0s;
          animation-timing-function: linear;
        }
      
        @keyframes keyframes1 {
          from {
            stroke: blue;
            stroke-dashoffset: 529;
            stroke-width: 128;
          }
          63% {
            animation-timing-function: step-end;
            stroke: blue;
            stroke-dashoffset: 0;
            stroke-width: 128;
          }
          to {
            stroke: black;
            stroke-width: 1024;
          }
        }
        #make-me-a-hanzi-animation-1 {
          animation: keyframes1 0.6805013020833334s both;
          animation-delay: 0.62109375s;
          animation-timing-function: linear;
        }
      
        @keyframes keyframes2 {
          from {
            stroke: blue;
            stroke-dashoffset: 386;
            stroke-width: 128;
          }
          56% {
            animation-timing-function: step-end;
            stroke: blue;
            stroke-dashoffset: 0;
            stroke-width: 128;
          }
          to {
            stroke: black;
            stroke-width: 1024;
          }
        }
        #make-me-a-hanzi-animation-2 {
          animation: keyframes2 0.5641276041666666s both;
          animation-delay: 1.3015950520833335s;
          animation-timing-function: linear;
        }
      
        @keyframes keyframes3 {
          from {
            stroke: blue;
            stroke-dashoffset: 529;
            stroke-width: 128;
          }
          63% {
            animation-timing-function: step-end;
            stroke: blue;
            stroke-dashoffset: 0;
            stroke-width: 128;
          }
          to {
            stroke: black;
            stroke-width: 1024;
          }
        }
        #make-me-a-hanzi-animation-3 {
          animation: keyframes3 0.6805013020833334s both;
          animation-delay: 1.86572265625s;
          animation-timing-function: linear;
        }
      
        @keyframes keyframes4 {
          from {
            stroke: blue;
            stroke-dashoffset: 336;
            stroke-width: 128;
          }
          52% {
            animation-timing-function: step-end;
            stroke: blue;
            stroke-dashoffset: 0;
            stroke-width: 128;
          }
          to {
            stroke: black;
            stroke-width: 1024;
          }
        }
        #make-me-a-hanzi-animation-4 {
          animation: keyframes4 0.5234375s both;
          animation-delay: 2.5462239583333335s;
          animation-timing-function: linear;
        }
      
        @keyframes keyframes5 {
          from {
            stroke: blue;
            stroke-dashoffset: 465;
            stroke-width: 128;
          }
          60% {
            animation-timing-function: step-end;
            stroke: blue;
            stroke-dashoffset: 0;
            stroke-width: 128;
          }
          to {
            stroke: black;
            stroke-width: 1024;
          }
        }
        #make-me-a-hanzi-animation-5 {
          animation: keyframes5 0.62841796875s both;
          animation-delay: 3.0696614583333335s;
          animation-timing-function: linear;
        }
      
        @keyframes keyframes6 {
          from {
            stroke: blue;
            stroke-dashoffset: 545;
            stroke-width: 128;
          }
          64% {
            animation-timing-function: step-end;
            stroke: blue;
            stroke-dashoffset: 0;
            stroke-width: 128;
          }
          to {
            stroke: black;
            stroke-width: 1024;
          }
        }
        #make-me-a-hanzi-animation-6 {
          animation: keyframes6 0.6935221354166666s both;
          animation-delay: 3.6980794270833335s;
          animation-timing-function: linear;
        }
      
        @keyframes keyframes7 {
          from {
            stroke: blue;
            stroke-dashoffset: 556;
            stroke-width: 128;
          }
          64% {
            animation-timing-function: step-end;
            stroke: blue;
            stroke-dashoffset: 0;
            stroke-width: 128;
          }
          to {
            stroke: black;
            stroke-width: 1024;
          }
        }
        #make-me-a-hanzi-animation-7 {
          animation: keyframes7 0.7024739583333334s both;
          animation-delay: 4.3916015625s;
          animation-timing-function: linear;
        }
      
        @keyframes keyframes8 {
          from {
            stroke: blue;
            stroke-dashoffset: 1033;
            stroke-width: 128;
          }
          77% {
            animation-timing-function: step-end;
            stroke: blue;
            stroke-dashoffset: 0;
            stroke-width: 128;
          }
          to {
            stroke: black;
            stroke-width: 1024;
          }
        }
        #make-me-a-hanzi-animation-8 {
          animation: keyframes8 1.0906575520833333s both;
          animation-delay: 5.094075520833333s;
          animation-timing-function: linear;
        }
      
        @keyframes keyframes9 {
          from {
            stroke: blue;
            stroke-dashoffset: 423;
            stroke-width: 128;
          }
          58% {
            animation-timing-function: step-end;
            stroke: blue;
            stroke-dashoffset: 0;
            stroke-width: 128;
          }
          to {
            stroke: black;
            stroke-width: 1024;
          }
        }
        #make-me-a-hanzi-animation-9 {
          animation: keyframes9 0.59423828125s both;
          animation-delay: 6.184733072916666s;
          animation-timing-function: linear;
        }
      
        @keyframes keyframes10 {
          from {
            stroke: blue;
            stroke-dashoffset: 520;
            stroke-width: 128;
          }
          63% {
            animation-timing-function: step-end;
            stroke: blue;
            stroke-dashoffset: 0;
            stroke-width: 128;
          }
          to {
            stroke: black;
            stroke-width: 1024;
          }
        }
        #make-me-a-hanzi-animation-10 {
          animation: keyframes10 0.6731770833333334s both;
          animation-delay: 6.778971354166666s;
          animation-timing-function: linear;
        }
      
        @keyframes keyframes11 {
          from {
            stroke: blue;
            stroke-dashoffset: 520;
            stroke-width: 128;
          }
          63% {
            animation-timing-function: step-end;
            stroke: blue;
            stroke-dashoffset: 0;
            stroke-width: 128;
          }
          to {
            stroke: black;
            stroke-width: 1024;
          }
        }
        #make-me-a-hanzi-animation-11 {
          animation: keyframes11 0.6731770833333334s both;
          animation-delay: 7.452148437499999s;
          animation-timing-function: linear;
        }
      
        @keyframes keyframes12 {
          from {
            stroke: blue;
            stroke-dashoffset: 759;
            stroke-width: 128;
          }
          71% {
            animation-timing-function: step-end;
            stroke: blue;
            stroke-dashoffset: 0;
            stroke-width: 128;
          }
          to {
            stroke: black;
            stroke-width: 1024;
          }
        }
        #make-me-a-hanzi-animation-12 {
          animation: keyframes12 0.86767578125s both;
          animation-delay: 8.125325520833332s;
          animation-timing-function: linear;
        }
      
        @keyframes keyframes13 {
          from {
            stroke: blue;
            stroke-dashoffset: 325;
            stroke-width: 128;
          }
          51% {
            animation-timing-function: step-end;
            stroke: blue;
            stroke-dashoffset: 0;
            stroke-width: 128;
          }
          to {
            stroke: black;
            stroke-width: 1024;
          }
        }
        #make-me-a-hanzi-animation-13 {
          animation: keyframes13 0.5144856770833334s both;
          animation-delay: 8.993001302083332s;
          animation-timing-function: linear;
        }
      
        @keyframes keyframes14 {
          from {
            stroke: blue;
            stroke-dashoffset: 345;
            stroke-width: 128;
          }
          53% {
            animation-timing-function: step-end;
            stroke: blue;
            stroke-dashoffset: 0;
            stroke-width: 128;
          }
          to {
            stroke: black;
            stroke-width: 1024;
          }
        }
        #make-me-a-hanzi-animation-14 {
          animation: keyframes14 0.53076171875s both;
          animation-delay: 9.507486979166666s;
          animation-timing-function: linear;
        }
      
        @keyframes keyframes15 {
          from {
            stroke: blue;
            stroke-dashoffset: 607;
            stroke-width: 128;
          }
          66% {
            animation-timing-function: step-end;
            stroke: blue;
            stroke-dashoffset: 0;
            stroke-width: 128;
          }
          to {
            stroke: black;
            stroke-width: 1024;
          }
        }
        #make-me-a-hanzi-animation-15 {
          animation: keyframes15 0.7439778645833334s both;
          animation-delay: 10.038248697916666s;
          animation-timing-function: linear;
        }
      
        @keyframes keyframes16 {
          from {
            stroke: blue;
            stroke-dashoffset: 809;
            stroke-width: 128;
          }
          72% {
            animation-timing-function: step-end;
            stroke: blue;
            stroke-dashoffset: 0;
            stroke-width: 128;
          }
          to {
            stroke: black;
            stroke-width: 1024;
          }
        }
        #make-me-a-hanzi-animation-16 {
          animation: keyframes16 0.9083658854166666s both;
          animation-delay: 10.7822265625s;
          animation-timing-function: linear;
        }
      
        @keyframes keyframes17 {
          from {
            stroke: blue;
            stroke-dashoffset: 364;
            stroke-width: 128;
          }
          54% {
            animation-timing-function: step-end;
            stroke: blue;
            stroke-dashoffset: 0;
            stroke-width: 128;
          }
          to {
            stroke: black;
            stroke-width: 1024;
          }
        }
        #make-me-a-hanzi-animation-17 {
          animation: keyframes17 0.5462239583333334s both;
          animation-delay: 11.690592447916666s;
          animation-timing-function: linear;
        }
      
    </style>
    
      <path d="M 173 658 Q 163 664 135 668 Q 125 669 122 666 Q 118 660 125 647 Q 149 598 165 518 Q 168 493 182 477 Q 198 459 202 473 Q 203 480 204 492 L 202 518 Q 193 546 182 635 C 180 655 180 655 173 658 Z" fill="lightgray"></path>
    
      <path d="M 318 544 Q 333 622 354 645 Q 373 669 352 680 Q 295 708 289 707 Q 282 706 276 701 Q 249 683 173 658 C 145 649 153 629 182 635 Q 200 638 263 656 Q 282 660 286 654 Q 293 648 286 616 Q 280 582 271 542 C 264 513 312 515 318 544 Z" fill="lightgray"></path>
    
      <path d="M 260 502 Q 288 509 333 517 Q 342 518 342 526 Q 342 533 318 544 C 299 553 299 553 271 542 Q 232 527 202 518 C 173 509 174 497 204 492 Q 207 492 209 491 Q 215 491 224 492 L 260 502 Z" fill="lightgray"></path>
    
      <path d="M 271 235 Q 272 307 276 367 L 277 395 Q 277 434 281 463 Q 287 484 260 502 C 236 520 215 521 224 492 Q 233 465 233 449 Q 234 425 234 220 C 234 190 271 205 271 235 Z" fill="lightgray"></path>
    
      <path d="M 276 367 Q 277 367 282 367 Q 322 377 352 383 Q 370 389 362 398 Q 352 408 330 410 Q 311 409 277 395 C 249 384 246 367 276 367 Z" fill="lightgray"></path>
    
      <path d="M 175 198 Q 159 327 161 347 Q 162 366 149 375 Q 130 388 106 393 Q 94 397 87 391 Q 81 385 88 373 Q 104 348 114 321 Q 121 294 142 186 C 148 157 179 168 175 198 Z" fill="lightgray"></path>
    
      <path d="M 142 186 Q 73 168 69 167 Q 59 164 57 155 Q 56 142 65 136 Q 87 123 118 109 Q 128 108 138 116 Q 162 138 298 216 Q 317 226 330 240 Q 340 247 341 256 Q 335 260 324 257 Q 299 247 271 235 L 234 220 Q 204 210 175 198 L 142 186 Z" fill="lightgray"></path>
    
      <path d="M 506 501 Q 427 485 422 488 Q 418 491 420 502 Q 433 628 433 630 Q 424 643 400 657 Q 387 664 379 662 Q 369 658 376 646 Q 398 604 392 546 Q 388 501 374 478 Q 365 462 373 445 Q 385 426 399 434 Q 432 449 506 478 C 534 489 535 507 506 501 Z" fill="lightgray"></path>
    
      <path d="M 504 322 Q 504 172 481 92 Q 472 55 495 3 Q 501 -13 508 -15 Q 514 -21 520 -14 Q 527 -10 536 9 Q 543 31 543 58 Q 542 106 543 546 Q 543 637 559 698 Q 566 711 564 723 Q 558 732 509 761 Q 488 776 470 762 Q 466 758 472 744 Q 502 699 504 635 Q 504 569 506 501 L 506 478 Q 505 417 504 352 L 504 322 Z" fill="lightgray"></path>
    
      <path d="M 404 288 Q 452 312 504 322 C 533 328 533 345 504 352 Q 491 356 478 351 Q 370 321 340 318 Q 331 317 329 310 Q 328 303 339 294 Q 360 284 376 283 L 404 288 Z" fill="lightgray"></path>
    
      <path d="M 376 283 Q 388 175 318 84 L 300 58 Q 296 54 293 50 Q 290 43 298 43 Q 322 43 362 94 Q 363 98 367 101 Q 400 144 425 231 Q 426 237 430 242 Q 437 252 434 262 Q 424 275 404 288 C 379 305 374 309 376 283 Z" fill="lightgray"></path>
    
      <path d="M 651 625 Q 670 643 688 662 L 702 681 Q 726 711 746 734 Q 756 743 745 755 Q 715 785 695 785 Q 686 784 686 772 Q 687 697 593 611 Q 584 611 554 577 Q 547 567 558 569 Q 565 569 576 573 L 592 581 Q 592 582 593 582 Q 618 598 641 616 L 651 625 Z" fill="lightgray"></path>
    
      <path d="M 688 662 Q 697 659 716 661 Q 783 674 788 664 Q 791 654 773 616 Q 757 574 707 520 Q 658 462 580 409 Q 559 399 577 398 Q 632 395 722 480 Q 777 534 824 608 Q 846 642 859 653 Q 869 660 865 671 Q 862 680 819 701 Q 809 707 790 698 Q 762 688 702 681 C 672 677 658 665 688 662 Z" fill="lightgray"></path>
    
      <path d="M 641 616 Q 641 615 678 570 Q 688 560 699 559 Q 708 558 713 569 Q 714 578 708 591 Q 693 615 651 625 C 631 630 631 630 641 616 Z" fill="lightgray"></path>
    
      <path d="M 576 573 Q 579 567 589 554 Q 629 500 635 499 Q 641 498 646 505 Q 650 512 650 531 Q 649 544 632 559 Q 613 572 592 581 C 565 593 565 593 576 573 Z" fill="lightgray"></path>
    
      <path d="M 814 355 Q 856 361 909 361 Q 925 362 928 369 Q 932 379 918 389 Q 873 419 820 401 Q 819 401 818 400 L 767 387 Q 745 383 720 377 Q 650 362 565 346 Q 549 343 561 331 Q 573 321 587 317 Q 603 314 616 318 Q 698 345 768 350 L 814 355 Z" fill="lightgray"></path>
    
      <path d="M 768 350 Q 777 107 756 88 Q 747 82 677 99 Q 667 100 667 95 Q 668 88 677 81 Q 741 26 763 -8 Q 776 -24 790 -11 Q 818 19 820 106 Q 814 229 814 355 L 818 400 Q 819 413 824 424 Q 831 440 817 452 Q 793 471 767 480 Q 749 486 743 479 Q 737 473 747 459 Q 766 426 767 387 L 768 350 Z" fill="lightgray"></path>
    
      <path d="M 610 247 Q 632 226 654 202 Q 664 192 677 191 Q 684 191 689 201 Q 693 211 688 235 Q 681 262 609 285 Q 597 288 592 286 Q 588 285 588 274 Q 591 265 610 247 Z" fill="lightgray"></path>
    
    
      <clipPath id="make-me-a-hanzi-clip-0">
        <path d="M 173 658 Q 163 664 135 668 Q 125 669 122 666 Q 118 660 125 647 Q 149 598 165 518 Q 168 493 182 477 Q 198 459 202 473 Q 203 480 204 492 L 202 518 Q 193 546 182 635 C 180 655 180 655 173 658 Z"></path>
      </clipPath>
      <path clip-path="url(#make-me-a-hanzi-clip-0)" d="M 129 661 L 154 639 L 162 622 L 192 477" fill="none" id="make-me-a-hanzi-animation-0" stroke-dasharray="328 656" stroke-linecap="round"></path>
    
      <clipPath id="make-me-a-hanzi-clip-1">
        <path d="M 318 544 Q 333 622 354 645 Q 373 669 352 680 Q 295 708 289 707 Q 282 706 276 701 Q 249 683 173 658 C 145 649 153 629 182 635 Q 200 638 263 656 Q 282 660 286 654 Q 293 648 286 616 Q 280 582 271 542 C 264 513 312 515 318 544 Z"></path>
      </clipPath>
      <path clip-path="url(#make-me-a-hanzi-clip-1)" d="M 184 643 L 207 657 L 283 680 L 311 669 L 321 658 L 300 566 L 279 549" fill="none" id="make-me-a-hanzi-animation-1" stroke-dasharray="401 802" stroke-linecap="round"></path>
    
      <clipPath id="make-me-a-hanzi-clip-2">
        <path d="M 260 502 Q 288 509 333 517 Q 342 518 342 526 Q 342 533 318 544 C 299 553 299 553 271 542 Q 232 527 202 518 C 173 509 174 497 204 492 Q 207 492 209 491 Q 215 491 224 492 L 260 502 Z"></path>
      </clipPath>
      <path clip-path="url(#make-me-a-hanzi-clip-2)" d="M 208 499 L 269 523 L 311 529 L 333 526" fill="none" id="make-me-a-hanzi-animation-2" stroke-dasharray="258 516" stroke-linecap="round"></path>
    
      <clipPath id="make-me-a-hanzi-clip-3">
        <path d="M 271 235 Q 272 307 276 367 L 277 395 Q 277 434 281 463 Q 287 484 260 502 C 236 520 215 521 224 492 Q 233 465 233 449 Q 234 425 234 220 C 234 190 271 205 271 235 Z"></path>
      </clipPath>
      <path clip-path="url(#make-me-a-hanzi-clip-3)" d="M 232 485 L 254 474 L 257 447 L 253 248 L 236 233" fill="none" id="make-me-a-hanzi-animation-3" stroke-dasharray="401 802" stroke-linecap="round"></path>
    
      <clipPath id="make-me-a-hanzi-clip-4">
        <path d="M 276 367 Q 277 367 282 367 Q 322 377 352 383 Q 370 389 362 398 Q 352 408 330 410 Q 311 409 277 395 C 249 384 246 367 276 367 Z"></path>
      </clipPath>
      <path clip-path="url(#make-me-a-hanzi-clip-4)" d="M 279 374 L 292 385 L 327 394 L 354 392" fill="none" id="make-me-a-hanzi-animation-4" stroke-dasharray="208 416" stroke-linecap="round"></path>
    
      <clipPath id="make-me-a-hanzi-clip-5">
        <path d="M 175 198 Q 159 327 161 347 Q 162 366 149 375 Q 130 388 106 393 Q 94 397 87 391 Q 81 385 88 373 Q 104 348 114 321 Q 121 294 142 186 C 148 157 179 168 175 198 Z"></path>
      </clipPath>
      <path clip-path="url(#make-me-a-hanzi-clip-5)" d="M 95 384 L 134 346 L 156 212 L 144 198" fill="none" id="make-me-a-hanzi-animation-5" stroke-dasharray="337 674" stroke-linecap="round"></path>
    
      <clipPath id="make-me-a-hanzi-clip-6">
        <path d="M 142 186 Q 73 168 69 167 Q 59 164 57 155 Q 56 142 65 136 Q 87 123 118 109 Q 128 108 138 116 Q 162 138 298 216 Q 317 226 330 240 Q 340 247 341 256 Q 335 260 324 257 Q 299 247 271 235 L 234 220 Q 204 210 175 198 L 142 186 Z"></path>
      </clipPath>
      <path clip-path="url(#make-me-a-hanzi-clip-6)" d="M 72 152 L 126 148 L 281 220 L 336 253" fill="none" id="make-me-a-hanzi-animation-6" stroke-dasharray="417 834" stroke-linecap="round"></path>
    
      <clipPath id="make-me-a-hanzi-clip-7">
        <path d="M 506 501 Q 427 485 422 488 Q 418 491 420 502 Q 433 628 433 630 Q 424 643 400 657 Q 387 664 379 662 Q 369 658 376 646 Q 398 604 392 546 Q 388 501 374 478 Q 365 462 373 445 Q 385 426 399 434 Q 432 449 506 478 C 534 489 535 507 506 501 Z"></path>
      </clipPath>
      <path clip-path="url(#make-me-a-hanzi-clip-7)" d="M 382 653 L 399 639 L 411 611 L 401 467 L 443 471 L 492 485 L 495 495" fill="none" id="make-me-a-hanzi-animation-7" stroke-dasharray="428 856" stroke-linecap="round"></path>
    
      <clipPath id="make-me-a-hanzi-clip-8">
        <path d="M 504 322 Q 504 172 481 92 Q 472 55 495 3 Q 501 -13 508 -15 Q 514 -21 520 -14 Q 527 -10 536 9 Q 543 31 543 58 Q 542 106 543 546 Q 543 637 559 698 Q 566 711 564 723 Q 558 732 509 761 Q 488 776 470 762 Q 466 758 472 744 Q 502 699 504 635 Q 504 569 506 501 L 506 478 Q 505 417 504 352 L 504 322 Z"></path>
      </clipPath>
      <path clip-path="url(#make-me-a-hanzi-clip-8)" d="M 481 756 L 506 736 L 526 710 L 527 699 L 525 334 L 510 72 L 513 -2" fill="none" id="make-me-a-hanzi-animation-8" stroke-dasharray="905 1810" stroke-linecap="round"></path>
    
      <clipPath id="make-me-a-hanzi-clip-9">
        <path d="M 404 288 Q 452 312 504 322 C 533 328 533 345 504 352 Q 491 356 478 351 Q 370 321 340 318 Q 331 317 329 310 Q 328 303 339 294 Q 360 284 376 283 L 404 288 Z"></path>
      </clipPath>
      <path clip-path="url(#make-me-a-hanzi-clip-9)" d="M 338 309 L 364 303 L 402 309 L 487 336 L 496 345" fill="none" id="make-me-a-hanzi-animation-9" stroke-dasharray="295 590" stroke-linecap="round"></path>
    
      <clipPath id="make-me-a-hanzi-clip-10">
        <path d="M 376 283 Q 388 175 318 84 L 300 58 Q 296 54 293 50 Q 290 43 298 43 Q 322 43 362 94 Q 363 98 367 101 Q 400 144 425 231 Q 426 237 430 242 Q 437 252 434 262 Q 424 275 404 288 C 379 305 374 309 376 283 Z"></path>
      </clipPath>
      <path clip-path="url(#make-me-a-hanzi-clip-10)" d="M 385 275 L 399 266 L 405 253 L 382 162 L 345 95 L 301 50" fill="none" id="make-me-a-hanzi-animation-10" stroke-dasharray="392 784" stroke-linecap="round"></path>
    
      <clipPath id="make-me-a-hanzi-clip-11">
        <path d="M 651 625 Q 670 643 688 662 L 702 681 Q 726 711 746 734 Q 756 743 745 755 Q 715 785 695 785 Q 686 784 686 772 Q 687 697 593 611 Q 584 611 554 577 Q 547 567 558 569 Q 565 569 576 573 L 592 581 Q 592 582 593 582 Q 618 598 641 616 L 651 625 Z"></path>
      </clipPath>
      <path clip-path="url(#make-me-a-hanzi-clip-11)" d="M 698 773 L 714 743 L 683 688 L 616 613 L 561 576" fill="none" id="make-me-a-hanzi-animation-11" stroke-dasharray="392 784" stroke-linecap="round"></path>
    
      <clipPath id="make-me-a-hanzi-clip-12">
        <path d="M 688 662 Q 697 659 716 661 Q 783 674 788 664 Q 791 654 773 616 Q 757 574 707 520 Q 658 462 580 409 Q 559 399 577 398 Q 632 395 722 480 Q 777 534 824 608 Q 846 642 859 653 Q 869 660 865 671 Q 862 680 819 701 Q 809 707 790 698 Q 762 688 702 681 C 672 677 658 665 688 662 Z"></path>
      </clipPath>
      <path clip-path="url(#make-me-a-hanzi-clip-12)" d="M 694 665 L 713 674 L 727 670 L 731 675 L 789 682 L 809 678 L 822 662 L 777 575 L 703 485 L 646 438 L 582 403" fill="none" id="make-me-a-hanzi-animation-12" stroke-dasharray="631 1262" stroke-linecap="round"></path>
    
      <clipPath id="make-me-a-hanzi-clip-13">
        <path d="M 641 616 Q 641 615 678 570 Q 688 560 699 559 Q 708 558 713 569 Q 714 578 708 591 Q 693 615 651 625 C 631 630 631 630 641 616 Z"></path>
      </clipPath>
      <path clip-path="url(#make-me-a-hanzi-clip-13)" d="M 648 618 L 700 573" fill="none" id="make-me-a-hanzi-animation-13" stroke-dasharray="197 394" stroke-linecap="round"></path>
    
      <clipPath id="make-me-a-hanzi-clip-14">
        <path d="M 576 573 Q 579 567 589 554 Q 629 500 635 499 Q 641 498 646 505 Q 650 512 650 531 Q 649 544 632 559 Q 613 572 592 581 C 565 593 565 593 576 573 Z"></path>
      </clipPath>
      <path clip-path="url(#make-me-a-hanzi-clip-14)" d="M 582 571 L 616 549 L 631 531 L 638 507" fill="none" id="make-me-a-hanzi-animation-14" stroke-dasharray="217 434" stroke-linecap="round"></path>
    
      <clipPath id="make-me-a-hanzi-clip-15">
        <path d="M 814 355 Q 856 361 909 361 Q 925 362 928 369 Q 932 379 918 389 Q 873 419 820 401 Q 819 401 818 400 L 767 387 Q 745 383 720 377 Q 650 362 565 346 Q 549 343 561 331 Q 573 321 587 317 Q 603 314 616 318 Q 698 345 768 350 L 814 355 Z"></path>
      </clipPath>
      <path clip-path="url(#make-me-a-hanzi-clip-15)" d="M 573 336 L 619 337 L 846 383 L 891 382 L 918 374" fill="none" id="make-me-a-hanzi-animation-15" stroke-dasharray="479 958" stroke-linecap="round"></path>
    
      <clipPath id="make-me-a-hanzi-clip-16">
        <path d="M 768 350 Q 777 107 756 88 Q 747 82 677 99 Q 667 100 667 95 Q 668 88 677 81 Q 741 26 763 -8 Q 776 -24 790 -11 Q 818 19 820 106 Q 814 229 814 355 L 818 400 Q 819 413 824 424 Q 831 440 817 452 Q 793 471 767 480 Q 749 486 743 479 Q 737 473 747 459 Q 766 426 767 387 L 768 350 Z"></path>
      </clipPath>
      <path clip-path="url(#make-me-a-hanzi-clip-16)" d="M 751 473 L 793 428 L 792 97 L 772 49 L 673 94" fill="none" id="make-me-a-hanzi-animation-16" stroke-dasharray="681 1362" stroke-linecap="round"></path>
    
      <clipPath id="make-me-a-hanzi-clip-17">
        <path d="M 610 247 Q 632 226 654 202 Q 664 192 677 191 Q 684 191 689 201 Q 693 211 688 235 Q 681 262 609 285 Q 597 288 592 286 Q 588 285 588 274 Q 591 265 610 247 Z"></path>
      </clipPath>
      <path clip-path="url(#make-me-a-hanzi-clip-17)" d="M 596 278 L 655 237 L 674 206" fill="none" id="make-me-a-hanzi-animation-17" stroke-dasharray="236 472" stroke-linecap="round"></path>
    
  </g>
</svg>