<svg version="1.1" viewBox="0 0 1024 1024" xmlns="http://www.w3.org/2000/svg">
  <g stroke="lightgray" stroke-dasharray="1,1" stroke-width="1" transform="scale(4, 4)">
    <line x1="0" y1="0" x2="256" y2="256"></line>
    <line x1="256" y1="0" x2="0" y2="256"></line>
    <line x1="128" y1="0" x2="128" y2="256"></line>
    <line x1="0" y1="128" x2="256" y2="128"></line>
  </g>
  <g transform="scale(1, -1) translate(0, -900)">
    <style type="text/css">
      
        @keyframes keyframes0 {
          from {
            stroke: blue;
            stroke-dashoffset: 650;
            stroke-width: 128;
          }
          68% {
            animation-timing-function: step-end;
            stroke: blue;
            stroke-dashoffset: 0;
            stroke-width: 128;
          }
          to {
            stroke: black;
            stroke-width: 1024;
          }
        }
        #make-me-a-hanzi-animation-0 {
          animation: keyframes0 0.7789713541666666s both;
          animation-delay: 0s;
          animation-timing-function: linear;
        }
      
        @keyframes keyframes1 {
          from {
            stroke: blue;
            stroke-dashoffset: 497;
            stroke-width: 128;
          }
          62% {
            animation-timing-function: step-end;
            stroke: blue;
            stroke-dashoffset: 0;
            stroke-width: 128;
          }
          to {
            stroke: black;
            stroke-width: 1024;
          }
        }
        #make-me-a-hanzi-animation-1 {
          animation: keyframes1 0.6544596354166666s both;
          animation-delay: 0.7789713541666666s;
          animation-timing-function: linear;
        }
      
        @keyframes keyframes2 {
          from {
            stroke: blue;
            stroke-dashoffset: 838;
            stroke-width: 128;
          }
          73% {
            animation-timing-function: step-end;
            stroke: blue;
            stroke-dashoffset: 0;
            stroke-width: 128;
          }
          to {
            stroke: black;
            stroke-width: 1024;
          }
        }
        #make-me-a-hanzi-animation-2 {
          animation: keyframes2 0.9319661458333334s both;
          animation-delay: 1.4334309895833333s;
          animation-timing-function: linear;
        }
      
        @keyframes keyframes3 {
          from {
            stroke: blue;
            stroke-dashoffset: 466;
            stroke-width: 128;
          }
          60% {
            animation-timing-function: step-end;
            stroke: blue;
            stroke-dashoffset: 0;
            stroke-width: 128;
          }
          to {
            stroke: black;
            stroke-width: 1024;
          }
        }
        #make-me-a-hanzi-animation-3 {
          animation: keyframes3 0.6292317708333334s both;
          animation-delay: 2.3653971354166665s;
          animation-timing-function: linear;
        }
      
        @keyframes keyframes4 {
          from {
            stroke: blue;
            stroke-dashoffset: 523;
            stroke-width: 128;
          }
          63% {
            animation-timing-function: step-end;
            stroke: blue;
            stroke-dashoffset: 0;
            stroke-width: 128;
          }
          to {
            stroke: black;
            stroke-width: 1024;
          }
        }
        #make-me-a-hanzi-animation-4 {
          animation: keyframes4 0.6756184895833334s both;
          animation-delay: 2.99462890625s;
          animation-timing-function: linear;
        }
      
        @keyframes keyframes5 {
          from {
            stroke: blue;
            stroke-dashoffset: 1010;
            stroke-width: 128;
          }
          77% {
            animation-timing-function: step-end;
            stroke: blue;
            stroke-dashoffset: 0;
            stroke-width: 128;
          }
          to {
            stroke: black;
            stroke-width: 1024;
          }
        }
        #make-me-a-hanzi-animation-5 {
          animation: keyframes5 1.0719401041666667s both;
          animation-delay: 3.6702473958333335s;
          animation-timing-function: linear;
        }
      
        @keyframes keyframes6 {
          from {
            stroke: blue;
            stroke-dashoffset: 859;
            stroke-width: 128;
          }
          74% {
            animation-timing-function: step-end;
            stroke: blue;
            stroke-dashoffset: 0;
            stroke-width: 128;
          }
          to {
            stroke: black;
            stroke-width: 1024;
          }
        }
        #make-me-a-hanzi-animation-6 {
          animation: keyframes6 0.9490559895833334s both;
          animation-delay: 4.7421875s;
          animation-timing-function: linear;
        }
      
        @keyframes keyframes7 {
          from {
            stroke: blue;
            stroke-dashoffset: 518;
            stroke-width: 128;
          }
          63% {
            animation-timing-function: step-end;
            stroke: blue;
            stroke-dashoffset: 0;
            stroke-width: 128;
          }
          to {
            stroke: black;
            stroke-width: 1024;
          }
        }
        #make-me-a-hanzi-animation-7 {
          animation: keyframes7 0.6715494791666666s both;
          animation-delay: 5.691243489583333s;
          animation-timing-function: linear;
        }
      
        @keyframes keyframes8 {
          from {
            stroke: blue;
            stroke-dashoffset: 732;
            stroke-width: 128;
          }
          70% {
            animation-timing-function: step-end;
            stroke: blue;
            stroke-dashoffset: 0;
            stroke-width: 128;
          }
          to {
            stroke: black;
            stroke-width: 1024;
          }
        }
        #make-me-a-hanzi-animation-8 {
          animation: keyframes8 0.845703125s both;
          animation-delay: 6.36279296875s;
          animation-timing-function: linear;
        }
      
        @keyframes keyframes9 {
          from {
            stroke: blue;
            stroke-dashoffset: 561;
            stroke-width: 128;
          }
          65% {
            animation-timing-function: step-end;
            stroke: blue;
            stroke-dashoffset: 0;
            stroke-width: 128;
          }
          to {
            stroke: black;
            stroke-width: 1024;
          }
        }
        #make-me-a-hanzi-animation-9 {
          animation: keyframes9 0.70654296875s both;
          animation-delay: 7.20849609375s;
          animation-timing-function: linear;
        }
      
    </style>
    
      <path d="M 536 684 Q 701 714 705 717 Q 714 724 710 732 Q 704 745 676 753 Q 648 760 618 751 Q 578 741 539 730 L 478 717 Q 403 707 319 703 Q 283 699 308 681 Q 347 656 401 665 Q 438 671 479 676 L 536 684 Z" fill="lightgray"></path>
    
      <path d="M 329 594 Q 328 595 327 596 Q 314 603 275 608 Q 262 611 259 606 Q 252 599 262 582 Q 293 524 313 428 Q 317 398 335 380 Q 354 358 359 374 Q 362 383 362 394 L 361 420 Q 360 429 358 437 Q 342 524 336 558 C 331 588 330 594 329 594 Z" fill="lightgray"></path>
    
      <path d="M 628 422 Q 643 401 657 393 Q 667 386 682 406 Q 694 424 722 522 Q 731 553 755 578 Q 768 590 757 604 Q 741 620 699 648 Q 686 655 620 642 Q 560 635 533 628 L 480 619 Q 456 618 432 612 Q 375 602 329 594 C 299 589 308 547 336 558 Q 345 567 480 587 L 532 596 Q 647 614 662 599 Q 672 587 669 576 Q 650 465 633 454 C 619 433 619 433 628 422 Z" fill="lightgray"></path>
    
      <path d="M 530 503 Q 566 509 599 513 Q 621 517 613 529 Q 603 542 579 547 Q 560 550 531 542 L 481 530 Q 435 518 395 508 Q 379 505 398 490 Q 408 483 428 487 Q 453 491 481 495 L 530 503 Z" fill="lightgray"></path>
    
      <path d="M 528 412 Q 580 419 628 422 C 658 424 661 442 633 454 Q 621 466 529 446 L 480 438 Q 419 429 361 420 C 331 415 332 395 362 394 Q 371 393 386 395 Q 435 402 480 406 L 528 412 Z" fill="lightgray"></path>
    
      <path d="M 523 313 Q 568 316 871 317 Q 893 316 898 325 Q 905 338 887 353 Q 827 398 764 383 Q 670 368 525 349 L 480 344 Q 323 328 142 311 Q 120 310 136 291 Q 151 275 169 269 Q 191 263 209 267 Q 377 309 482 309 L 523 313 Z" fill="lightgray"></path>
    
      <path d="M 525 349 Q 526 376 528 412 L 529 446 Q 529 473 530 503 L 531 542 Q 531 570 532 596 L 533 628 Q 534 659 536 684 L 539 730 Q 545 776 554 787 Q 561 802 543 816 Q 521 832 482 843 Q 466 847 454 835 Q 444 828 456 817 Q 475 801 478 776 Q 478 751 478 717 L 479 676 Q 479 651 480 619 L 480 587 Q 480 568 481 546 Q 481 539 481 530 L 481 495 Q 480 464 480 438 L 480 406 Q 480 376 480 344 L 482 309 Q 488 254 493 247 Q 506 234 514 252 Q 523 273 523 313 L 525 349 Z" fill="lightgray"></path>
    
      <path d="M 359 212 Q 346 219 305 224 Q 292 228 287 221 Q 280 214 291 196 Q 325 132 349 28 Q 353 -3 373 -24 Q 395 -48 400 -30 Q 404 -14 402 15 L 395 51 Q 376 145 371 178 C 366 208 366 209 359 212 Z" fill="lightgray"></path>
    
      <path d="M 678 75 Q 706 153 741 179 Q 760 198 745 219 Q 727 234 671 264 Q 652 273 627 264 Q 531 233 359 212 C 329 208 342 171 371 178 Q 374 179 381 181 Q 492 197 598 213 Q 626 219 636 207 Q 646 197 643 178 Q 634 126 622 82 C 614 53 667 47 678 75 Z" fill="lightgray"></path>
    
      <path d="M 402 15 Q 447 30 693 36 Q 703 37 706 46 Q 706 55 678 75 C 660 89 652 87 622 82 Q 495 60 395 51 C 365 48 373 7 402 15 Z" fill="lightgray"></path>
    
    
      <clipPath id="make-me-a-hanzi-clip-0">
        <path d="M 536 684 Q 701 714 705 717 Q 714 724 710 732 Q 704 745 676 753 Q 648 760 618 751 Q 578 741 539 730 L 478 717 Q 403 707 319 703 Q 283 699 308 681 Q 347 656 401 665 Q 438 671 479 676 L 536 684 Z"></path>
      </clipPath>
      <path clip-path="url(#make-me-a-hanzi-clip-0)" d="M 311 693 L 334 686 L 390 685 L 547 706 L 643 730 L 700 727" fill="none" id="make-me-a-hanzi-animation-0" stroke-dasharray="522 1044" stroke-linecap="round"></path>
    
      <clipPath id="make-me-a-hanzi-clip-1">
        <path d="M 329 594 Q 328 595 327 596 Q 314 603 275 608 Q 262 611 259 606 Q 252 599 262 582 Q 293 524 313 428 Q 317 398 335 380 Q 354 358 359 374 Q 362 383 362 394 L 361 420 Q 360 429 358 437 Q 342 524 336 558 C 331 588 330 594 329 594 Z"></path>
      </clipPath>
      <path clip-path="url(#make-me-a-hanzi-clip-1)" d="M 267 599 L 302 570 L 348 380" fill="none" id="make-me-a-hanzi-animation-1" stroke-dasharray="369 738" stroke-linecap="round"></path>
    
      <clipPath id="make-me-a-hanzi-clip-2">
        <path d="M 628 422 Q 643 401 657 393 Q 667 386 682 406 Q 694 424 722 522 Q 731 553 755 578 Q 768 590 757 604 Q 741 620 699 648 Q 686 655 620 642 Q 560 635 533 628 L 480 619 Q 456 618 432 612 Q 375 602 329 594 C 299 589 308 547 336 558 Q 345 567 480 587 L 532 596 Q 647 614 662 599 Q 672 587 669 576 Q 650 465 633 454 C 619 433 619 433 628 422 Z"></path>
      </clipPath>
      <path clip-path="url(#make-me-a-hanzi-clip-2)" d="M 340 567 L 348 581 L 578 620 L 657 627 L 685 620 L 710 586 L 662 437 L 663 411" fill="none" id="make-me-a-hanzi-animation-2" stroke-dasharray="710 1420" stroke-linecap="round"></path>
    
      <clipPath id="make-me-a-hanzi-clip-3">
        <path d="M 530 503 Q 566 509 599 513 Q 621 517 613 529 Q 603 542 579 547 Q 560 550 531 542 L 481 530 Q 435 518 395 508 Q 379 505 398 490 Q 408 483 428 487 Q 453 491 481 495 L 530 503 Z"></path>
      </clipPath>
      <path clip-path="url(#make-me-a-hanzi-clip-3)" d="M 396 499 L 554 527 L 582 529 L 603 523" fill="none" id="make-me-a-hanzi-animation-3" stroke-dasharray="338 676" stroke-linecap="round"></path>
    
      <clipPath id="make-me-a-hanzi-clip-4">
        <path d="M 528 412 Q 580 419 628 422 C 658 424 661 442 633 454 Q 621 466 529 446 L 480 438 Q 419 429 361 420 C 331 415 332 395 362 394 Q 371 393 386 395 Q 435 402 480 406 L 528 412 Z"></path>
      </clipPath>
      <path clip-path="url(#make-me-a-hanzi-clip-4)" d="M 367 401 L 385 410 L 612 440 L 627 449" fill="none" id="make-me-a-hanzi-animation-4" stroke-dasharray="395 790" stroke-linecap="round"></path>
    
      <clipPath id="make-me-a-hanzi-clip-5">
        <path d="M 523 313 Q 568 316 871 317 Q 893 316 898 325 Q 905 338 887 353 Q 827 398 764 383 Q 670 368 525 349 L 480 344 Q 323 328 142 311 Q 120 310 136 291 Q 151 275 169 269 Q 191 263 209 267 Q 377 309 482 309 L 523 313 Z"></path>
      </clipPath>
      <path clip-path="url(#make-me-a-hanzi-clip-5)" d="M 139 301 L 191 290 L 401 321 L 790 352 L 824 350 L 886 332" fill="none" id="make-me-a-hanzi-animation-5" stroke-dasharray="882 1764" stroke-linecap="round"></path>
    
      <clipPath id="make-me-a-hanzi-clip-6">
        <path d="M 525 349 Q 526 376 528 412 L 529 446 Q 529 473 530 503 L 531 542 Q 531 570 532 596 L 533 628 Q 534 659 536 684 L 539 730 Q 545 776 554 787 Q 561 802 543 816 Q 521 832 482 843 Q 466 847 454 835 Q 444 828 456 817 Q 475 801 478 776 Q 478 751 478 717 L 479 676 Q 479 651 480 619 L 480 587 Q 480 568 481 546 Q 481 539 481 530 L 481 495 Q 480 464 480 438 L 480 406 Q 480 376 480 344 L 482 309 Q 488 254 493 247 Q 506 234 514 252 Q 523 273 523 313 L 525 349 Z"></path>
      </clipPath>
      <path clip-path="url(#make-me-a-hanzi-clip-6)" d="M 460 827 L 483 821 L 514 784 L 506 657 L 503 253" fill="none" id="make-me-a-hanzi-animation-6" stroke-dasharray="731 1462" stroke-linecap="round"></path>
    
      <clipPath id="make-me-a-hanzi-clip-7">
        <path d="M 359 212 Q 346 219 305 224 Q 292 228 287 221 Q 280 214 291 196 Q 325 132 349 28 Q 353 -3 373 -24 Q 395 -48 400 -30 Q 404 -14 402 15 L 395 51 Q 376 145 371 178 C 366 208 366 209 359 212 Z"></path>
      </clipPath>
      <path clip-path="url(#make-me-a-hanzi-clip-7)" d="M 296 213 L 335 181 L 387 -24" fill="none" id="make-me-a-hanzi-animation-7" stroke-dasharray="390 780" stroke-linecap="round"></path>
    
      <clipPath id="make-me-a-hanzi-clip-8">
        <path d="M 678 75 Q 706 153 741 179 Q 760 198 745 219 Q 727 234 671 264 Q 652 273 627 264 Q 531 233 359 212 C 329 208 342 171 371 178 Q 374 179 381 181 Q 492 197 598 213 Q 626 219 636 207 Q 646 197 643 178 Q 634 126 622 82 C 614 53 667 47 678 75 Z"></path>
      </clipPath>
      <path clip-path="url(#make-me-a-hanzi-clip-8)" d="M 369 209 L 382 198 L 617 238 L 655 235 L 691 198 L 662 114 L 630 87" fill="none" id="make-me-a-hanzi-animation-8" stroke-dasharray="604 1208" stroke-linecap="round"></path>
    
      <clipPath id="make-me-a-hanzi-clip-9">
        <path d="M 402 15 Q 447 30 693 36 Q 703 37 706 46 Q 706 55 678 75 C 660 89 652 87 622 82 Q 495 60 395 51 C 365 48 373 7 402 15 Z"></path>
      </clipPath>
      <path clip-path="url(#make-me-a-hanzi-clip-9)" d="M 403 21 L 414 35 L 423 37 L 617 58 L 669 56 L 698 47" fill="none" id="make-me-a-hanzi-animation-9" stroke-dasharray="433 866" stroke-linecap="round"></path>
    
  </g>
</svg>