<svg version="1.1" viewBox="0 0 1024 1024" xmlns="http://www.w3.org/2000/svg">
  <g stroke="lightgray" stroke-dasharray="1,1" stroke-width="1" transform="scale(4, 4)">
    <line x1="0" y1="0" x2="256" y2="256"></line>
    <line x1="256" y1="0" x2="0" y2="256"></line>
    <line x1="128" y1="0" x2="128" y2="256"></line>
    <line x1="0" y1="128" x2="256" y2="128"></line>
  </g>
  <g transform="scale(1, -1) translate(0, -900)">
    <style type="text/css">
      
        @keyframes keyframes0 {
          from {
            stroke: blue;
            stroke-dashoffset: 428;
            stroke-width: 128;
          }
          58% {
            animation-timing-function: step-end;
            stroke: blue;
            stroke-dashoffset: 0;
            stroke-width: 128;
          }
          to {
            stroke: black;
            stroke-width: 1024;
          }
        }
        #make-me-a-hanzi-animation-0 {
          animation: keyframes0 0.5983072916666666s both;
          animation-delay: 0s;
          animation-timing-function: linear;
        }
      
        @keyframes keyframes1 {
          from {
            stroke: blue;
            stroke-dashoffset: 646;
            stroke-width: 128;
          }
          68% {
            animation-timing-function: step-end;
            stroke: blue;
            stroke-dashoffset: 0;
            stroke-width: 128;
          }
          to {
            stroke: black;
            stroke-width: 1024;
          }
        }
        #make-me-a-hanzi-animation-1 {
          animation: keyframes1 0.7757161458333334s both;
          animation-delay: 0.5983072916666666s;
          animation-timing-function: linear;
        }
      
        @keyframes keyframes2 {
          from {
            stroke: blue;
            stroke-dashoffset: 368;
            stroke-width: 128;
          }
          55% {
            animation-timing-function: step-end;
            stroke: blue;
            stroke-dashoffset: 0;
            stroke-width: 128;
          }
          to {
            stroke: black;
            stroke-width: 1024;
          }
        }
        #make-me-a-hanzi-animation-2 {
          animation: keyframes2 0.5494791666666666s both;
          animation-delay: 1.3740234375s;
          animation-timing-function: linear;
        }
      
        @keyframes keyframes3 {
          from {
            stroke: blue;
            stroke-dashoffset: 359;
            stroke-width: 128;
          }
          54% {
            animation-timing-function: step-end;
            stroke: blue;
            stroke-dashoffset: 0;
            stroke-width: 128;
          }
          to {
            stroke: black;
            stroke-width: 1024;
          }
        }
        #make-me-a-hanzi-animation-3 {
          animation: keyframes3 0.5421549479166666s both;
          animation-delay: 1.9235026041666665s;
          animation-timing-function: linear;
        }
      
        @keyframes keyframes4 {
          from {
            stroke: blue;
            stroke-dashoffset: 480;
            stroke-width: 128;
          }
          61% {
            animation-timing-function: step-end;
            stroke: blue;
            stroke-dashoffset: 0;
            stroke-width: 128;
          }
          to {
            stroke: black;
            stroke-width: 1024;
          }
        }
        #make-me-a-hanzi-animation-4 {
          animation: keyframes4 0.640625s both;
          animation-delay: 2.465657552083333s;
          animation-timing-function: linear;
        }
      
        @keyframes keyframes5 {
          from {
            stroke: blue;
            stroke-dashoffset: 463;
            stroke-width: 128;
          }
          60% {
            animation-timing-function: step-end;
            stroke: blue;
            stroke-dashoffset: 0;
            stroke-width: 128;
          }
          to {
            stroke: black;
            stroke-width: 1024;
          }
        }
        #make-me-a-hanzi-animation-5 {
          animation: keyframes5 0.6267903645833334s both;
          animation-delay: 3.106282552083333s;
          animation-timing-function: linear;
        }
      
        @keyframes keyframes6 {
          from {
            stroke: blue;
            stroke-dashoffset: 689;
            stroke-width: 128;
          }
          69% {
            animation-timing-function: step-end;
            stroke: blue;
            stroke-dashoffset: 0;
            stroke-width: 128;
          }
          to {
            stroke: black;
            stroke-width: 1024;
          }
        }
        #make-me-a-hanzi-animation-6 {
          animation: keyframes6 0.8107096354166666s both;
          animation-delay: 3.7330729166666665s;
          animation-timing-function: linear;
        }
      
        @keyframes keyframes7 {
          from {
            stroke: blue;
            stroke-dashoffset: 381;
            stroke-width: 128;
          }
          55% {
            animation-timing-function: step-end;
            stroke: blue;
            stroke-dashoffset: 0;
            stroke-width: 128;
          }
          to {
            stroke: black;
            stroke-width: 1024;
          }
        }
        #make-me-a-hanzi-animation-7 {
          animation: keyframes7 0.56005859375s both;
          animation-delay: 4.543782552083333s;
          animation-timing-function: linear;
        }
      
        @keyframes keyframes8 {
          from {
            stroke: blue;
            stroke-dashoffset: 405;
            stroke-width: 128;
          }
          57% {
            animation-timing-function: step-end;
            stroke: blue;
            stroke-dashoffset: 0;
            stroke-width: 128;
          }
          to {
            stroke: black;
            stroke-width: 1024;
          }
        }
        #make-me-a-hanzi-animation-8 {
          animation: keyframes8 0.57958984375s both;
          animation-delay: 5.103841145833333s;
          animation-timing-function: linear;
        }
      
        @keyframes keyframes9 {
          from {
            stroke: blue;
            stroke-dashoffset: 511;
            stroke-width: 128;
          }
          62% {
            animation-timing-function: step-end;
            stroke: blue;
            stroke-dashoffset: 0;
            stroke-width: 128;
          }
          to {
            stroke: black;
            stroke-width: 1024;
          }
        }
        #make-me-a-hanzi-animation-9 {
          animation: keyframes9 0.6658528645833334s both;
          animation-delay: 5.683430989583333s;
          animation-timing-function: linear;
        }
      
        @keyframes keyframes10 {
          from {
            stroke: blue;
            stroke-dashoffset: 881;
            stroke-width: 128;
          }
          74% {
            animation-timing-function: step-end;
            stroke: blue;
            stroke-dashoffset: 0;
            stroke-width: 128;
          }
          to {
            stroke: black;
            stroke-width: 1024;
          }
        }
        #make-me-a-hanzi-animation-10 {
          animation: keyframes10 0.9669596354166666s both;
          animation-delay: 6.349283854166666s;
          animation-timing-function: linear;
        }
      
        @keyframes keyframes11 {
          from {
            stroke: blue;
            stroke-dashoffset: 807;
            stroke-width: 128;
          }
          72% {
            animation-timing-function: step-end;
            stroke: blue;
            stroke-dashoffset: 0;
            stroke-width: 128;
          }
          to {
            stroke: black;
            stroke-width: 1024;
          }
        }
        #make-me-a-hanzi-animation-11 {
          animation: keyframes11 0.90673828125s both;
          animation-delay: 7.316243489583333s;
          animation-timing-function: linear;
        }
      
        @keyframes keyframes12 {
          from {
            stroke: blue;
            stroke-dashoffset: 363;
            stroke-width: 128;
          }
          54% {
            animation-timing-function: step-end;
            stroke: blue;
            stroke-dashoffset: 0;
            stroke-width: 128;
          }
          to {
            stroke: black;
            stroke-width: 1024;
          }
        }
        #make-me-a-hanzi-animation-12 {
          animation: keyframes12 0.54541015625s both;
          animation-delay: 8.222981770833332s;
          animation-timing-function: linear;
        }
      
        @keyframes keyframes13 {
          from {
            stroke: blue;
            stroke-dashoffset: 365;
            stroke-width: 128;
          }
          54% {
            animation-timing-function: step-end;
            stroke: blue;
            stroke-dashoffset: 0;
            stroke-width: 128;
          }
          to {
            stroke: black;
            stroke-width: 1024;
          }
        }
        #make-me-a-hanzi-animation-13 {
          animation: keyframes13 0.5470377604166666s both;
          animation-delay: 8.768391927083332s;
          animation-timing-function: linear;
        }
      
        @keyframes keyframes14 {
          from {
            stroke: blue;
            stroke-dashoffset: 1134;
            stroke-width: 128;
          }
          79% {
            animation-timing-function: step-end;
            stroke: blue;
            stroke-dashoffset: 0;
            stroke-width: 128;
          }
          to {
            stroke: black;
            stroke-width: 1024;
          }
        }
        #make-me-a-hanzi-animation-14 {
          animation: keyframes14 1.1728515625s both;
          animation-delay: 9.315429687499998s;
          animation-timing-function: linear;
        }
      
        @keyframes keyframes15 {
          from {
            stroke: blue;
            stroke-dashoffset: 564;
            stroke-width: 128;
          }
          65% {
            animation-timing-function: step-end;
            stroke: blue;
            stroke-dashoffset: 0;
            stroke-width: 128;
          }
          to {
            stroke: black;
            stroke-width: 1024;
          }
        }
        #make-me-a-hanzi-animation-15 {
          animation: keyframes15 0.708984375s both;
          animation-delay: 10.488281249999998s;
          animation-timing-function: linear;
        }
      
        @keyframes keyframes16 {
          from {
            stroke: blue;
            stroke-dashoffset: 526;
            stroke-width: 128;
          }
          63% {
            animation-timing-function: step-end;
            stroke: blue;
            stroke-dashoffset: 0;
            stroke-width: 128;
          }
          to {
            stroke: black;
            stroke-width: 1024;
          }
        }
        #make-me-a-hanzi-animation-16 {
          animation: keyframes16 0.6780598958333334s both;
          animation-delay: 11.197265624999998s;
          animation-timing-function: linear;
        }
      
    </style>
    
      <path d="M 239 576 Q 267 597 285 611 Q 337 656 360 667 Q 379 677 368 692 Q 355 707 331 719 Q 309 729 297 727 Q 287 726 291 713 Q 297 689 253 631 Q 238 612 222 590 C 204 566 215 558 239 576 Z" fill="lightgray"></path>
    
      <path d="M 303 232 Q 290 299 278 359 L 272 388 Q 265 425 258 460 L 253 489 Q 244 526 241 557 Q 242 569 239 576 C 238 581 238 581 222 590 Q 200 603 179 607 Q 166 608 159 602 Q 152 596 157 586 Q 184 556 210 442 Q 226 369 258 228 C 265 199 309 203 303 232 Z" fill="lightgray"></path>
    
      <path d="M 258 460 Q 259 461 261 460 Q 312 472 365 485 L 366 485 Q 372 492 368 499 Q 361 508 337 511 Q 312 512 289 501 Q 279 497 265 493 Q 259 492 253 489 C 226 477 228 458 258 460 Z" fill="lightgray"></path>
    
      <path d="M 278 359 Q 279 360 281 359 Q 332 369 385 381 Q 392 388 387 395 Q 380 404 357 408 Q 332 409 309 398 Q 305 398 272 388 C 243 379 248 358 278 359 Z" fill="lightgray"></path>
    
      <path d="M 538 707 Q 634 734 636 736 Q 643 743 639 750 Q 632 760 607 765 Q 585 768 540 751 L 492 735 Q 456 726 418 720 Q 387 713 410 700 Q 443 682 492 695 L 538 707 Z" fill="lightgray"></path>
    
      <path d="M 396 609 Q 387 613 367 616 Q 357 619 354 614 Q 350 610 356 595 Q 381 544 397 460 Q 400 435 414 418 Q 430 399 434 413 Q 435 417 436 424 L 436 447 Q 435 457 433 468 Q 417 556 414 583 C 411 603 411 603 396 609 Z" fill="lightgray"></path>
    
      <path d="M 583 452 Q 596 433 610 427 Q 617 421 629 438 Q 639 457 658 563 Q 664 588 681 608 Q 691 618 681 629 Q 668 642 633 661 Q 624 664 549 648 Q 540 647 534 643 L 491 633 Q 479 632 396 609 C 367 601 386 573 414 583 Q 444 595 491 604 L 533 614 Q 593 627 607 620 Q 617 613 616 597 Q 601 486 589 473 C 580 455 580 455 583 452 Z" fill="lightgray"></path>
    
      <path d="M 533 527 Q 552 531 571 534 Q 587 538 581 547 Q 574 557 554 559 Q 545 560 533 557 L 490 545 Q 463 538 441 529 Q 428 525 444 515 L 490 519 L 533 527 Z" fill="lightgray"></path>
    
      <path d="M 532 442 Q 557 449 583 452 C 613 456 614 456 589 473 Q 571 488 532 475 L 488 463 Q 460 456 436 447 C 408 437 406 420 436 424 Q 440 424 488 434 L 532 442 Z" fill="lightgray"></path>
    
      <path d="M 528 332 Q 579 342 623 349 Q 645 353 637 365 Q 627 378 603 383 Q 576 386 530 371 L 487 360 Q 426 345 375 332 Q 359 328 378 315 Q 391 306 415 311 Q 452 318 487 325 L 528 332 Z" fill="lightgray"></path>
    
      <path d="M 517 253 Q 523 272 528 332 L 530 371 Q 530 402 532 442 L 532 475 Q 532 497 533 522 Q 533 525 533 527 L 533 557 Q 533 588 533 614 L 534 643 Q 535 679 538 707 L 540 751 Q 540 794 556 818 Q 560 831 546 843 Q 527 859 493 867 Q 478 871 468 861 Q 461 854 470 845 Q 491 827 492 802 Q 492 774 492 735 L 492 695 Q 491 667 491 633 L 491 604 Q 491 583 491 560 Q 490 553 490 545 L 490 519 Q 489 489 488 463 L 488 434 Q 488 398 487 360 L 487 325 Q 491 261 496 251 C 502 222 511 224 517 253 Z" fill="lightgray"></path>
    
      <path d="M 762 286 Q 825 596 870 631 Q 889 646 879 660 Q 866 681 828 704 Q 810 719 778 708 Q 726 692 684 691 Q 669 692 668 681 Q 669 674 686 664 Q 704 651 727 658 Q 770 662 776 656 Q 785 649 781 617 Q 777 587 771 554 L 765 518 Q 758 478 749 436 L 741 400 Q 728 342 713 278 C 706 249 756 257 762 286 Z" fill="lightgray"></path>
    
      <path d="M 771 554 Q 752 555 666 527 Q 651 524 670 511 L 765 518 C 795 520 801 554 771 554 Z" fill="lightgray"></path>
    
      <path d="M 749 436 Q 719 440 639 415 Q 624 412 642 398 Q 646 394 660 394 Q 703 398 741 400 C 771 402 779 433 749 436 Z" fill="lightgray"></path>
    
      <path d="M 713 278 Q 626 268 517 253 L 496 251 Q 402 244 303 232 L 258 228 Q 173 221 83 212 Q 59 211 76 191 Q 91 175 111 169 Q 133 162 152 167 Q 480 248 930 227 Q 931 228 934 227 Q 956 226 962 236 Q 969 249 951 265 Q 888 313 829 297 Q 796 293 762 286 L 713 278 Z" fill="lightgray"></path>
    
      <path d="M 338 169 Q 323 100 154 -27 Q 130 -42 160 -40 Q 247 -34 381 99 Q 400 118 413 128 Q 425 140 423 150 Q 420 165 393 174 Q 363 187 350 184 Q 341 183 338 169 Z" fill="lightgray"></path>
    
      <path d="M 642 152 Q 702 80 771 -20 Q 786 -45 802 -53 Q 812 -56 821 -45 Q 837 -32 830 19 Q 826 85 649 186 Q 639 193 635 180 Q 632 165 642 152 Z" fill="lightgray"></path>
    
    
      <clipPath id="make-me-a-hanzi-clip-0">
        <path d="M 239 576 Q 267 597 285 611 Q 337 656 360 667 Q 379 677 368 692 Q 355 707 331 719 Q 309 729 297 727 Q 287 726 291 713 Q 297 689 253 631 Q 238 612 222 590 C 204 566 215 558 239 576 Z"></path>
      </clipPath>
      <path clip-path="url(#make-me-a-hanzi-clip-0)" d="M 302 717 L 323 685 L 281 633 L 240 592 L 231 592" fill="none" id="make-me-a-hanzi-animation-0" stroke-dasharray="300 600" stroke-linecap="round"></path>
    
      <clipPath id="make-me-a-hanzi-clip-1">
        <path d="M 303 232 Q 290 299 278 359 L 272 388 Q 265 425 258 460 L 253 489 Q 244 526 241 557 Q 242 569 239 576 C 238 581 238 581 222 590 Q 200 603 179 607 Q 166 608 159 602 Q 152 596 157 586 Q 184 556 210 442 Q 226 369 258 228 C 265 199 309 203 303 232 Z"></path>
      </clipPath>
      <path clip-path="url(#make-me-a-hanzi-clip-1)" d="M 167 593 L 209 559 L 273 262 L 295 238" fill="none" id="make-me-a-hanzi-animation-1" stroke-dasharray="518 1036" stroke-linecap="round"></path>
    
      <clipPath id="make-me-a-hanzi-clip-2">
        <path d="M 258 460 Q 259 461 261 460 Q 312 472 365 485 L 366 485 Q 372 492 368 499 Q 361 508 337 511 Q 312 512 289 501 Q 279 497 265 493 Q 259 492 253 489 C 226 477 228 458 258 460 Z"></path>
      </clipPath>
      <path clip-path="url(#make-me-a-hanzi-clip-2)" d="M 260 468 L 271 478 L 321 493 L 366 492" fill="none" id="make-me-a-hanzi-animation-2" stroke-dasharray="240 480" stroke-linecap="round"></path>
    
      <clipPath id="make-me-a-hanzi-clip-3">
        <path d="M 278 359 Q 279 360 281 359 Q 332 369 385 381 Q 392 388 387 395 Q 380 404 357 408 Q 332 409 309 398 Q 305 398 272 388 C 243 379 248 358 278 359 Z"></path>
      </clipPath>
      <path clip-path="url(#make-me-a-hanzi-clip-3)" d="M 280 367 L 291 377 L 341 390 L 377 389" fill="none" id="make-me-a-hanzi-animation-3" stroke-dasharray="231 462" stroke-linecap="round"></path>
    
      <clipPath id="make-me-a-hanzi-clip-4">
        <path d="M 538 707 Q 634 734 636 736 Q 643 743 639 750 Q 632 760 607 765 Q 585 768 540 751 L 492 735 Q 456 726 418 720 Q 387 713 410 700 Q 443 682 492 695 L 538 707 Z"></path>
      </clipPath>
      <path clip-path="url(#make-me-a-hanzi-clip-4)" d="M 412 711 L 454 707 L 594 745 L 631 744" fill="none" id="make-me-a-hanzi-animation-4" stroke-dasharray="352 704" stroke-linecap="round"></path>
    
      <clipPath id="make-me-a-hanzi-clip-5">
        <path d="M 396 609 Q 387 613 367 616 Q 357 619 354 614 Q 350 610 356 595 Q 381 544 397 460 Q 400 435 414 418 Q 430 399 434 413 Q 435 417 436 424 L 436 447 Q 435 457 433 468 Q 417 556 414 583 C 411 603 411 603 396 609 Z"></path>
      </clipPath>
      <path clip-path="url(#make-me-a-hanzi-clip-5)" d="M 361 609 L 383 590 L 393 567 L 424 417" fill="none" id="make-me-a-hanzi-animation-5" stroke-dasharray="335 670" stroke-linecap="round"></path>
    
      <clipPath id="make-me-a-hanzi-clip-6">
        <path d="M 583 452 Q 596 433 610 427 Q 617 421 629 438 Q 639 457 658 563 Q 664 588 681 608 Q 691 618 681 629 Q 668 642 633 661 Q 624 664 549 648 Q 540 647 534 643 L 491 633 Q 479 632 396 609 C 367 601 386 573 414 583 Q 444 595 491 604 L 533 614 Q 593 627 607 620 Q 617 613 616 597 Q 601 486 589 473 C 580 455 580 455 583 452 Z"></path>
      </clipPath>
      <path clip-path="url(#make-me-a-hanzi-clip-6)" d="M 408 608 L 419 600 L 585 640 L 628 635 L 646 616 L 611 461 L 615 441" fill="none" id="make-me-a-hanzi-animation-6" stroke-dasharray="561 1122" stroke-linecap="round"></path>
    
      <clipPath id="make-me-a-hanzi-clip-7">
        <path d="M 533 527 Q 552 531 571 534 Q 587 538 581 547 Q 574 557 554 559 Q 545 560 533 557 L 490 545 Q 463 538 441 529 Q 428 525 444 515 L 490 519 L 533 527 Z"></path>
      </clipPath>
      <path clip-path="url(#make-me-a-hanzi-clip-7)" d="M 450 524 L 541 544 L 573 543" fill="none" id="make-me-a-hanzi-animation-7" stroke-dasharray="253 506" stroke-linecap="round"></path>
    
      <clipPath id="make-me-a-hanzi-clip-8">
        <path d="M 532 442 Q 557 449 583 452 C 613 456 614 456 589 473 Q 571 488 532 475 L 488 463 Q 460 456 436 447 C 408 437 406 420 436 424 Q 440 424 488 434 L 532 442 Z"></path>
      </clipPath>
      <path clip-path="url(#make-me-a-hanzi-clip-8)" d="M 438 430 L 448 439 L 580 470" fill="none" id="make-me-a-hanzi-animation-8" stroke-dasharray="277 554" stroke-linecap="round"></path>
    
      <clipPath id="make-me-a-hanzi-clip-9">
        <path d="M 528 332 Q 579 342 623 349 Q 645 353 637 365 Q 627 378 603 383 Q 576 386 530 371 L 487 360 Q 426 345 375 332 Q 359 328 378 315 Q 391 306 415 311 Q 452 318 487 325 L 528 332 Z"></path>
      </clipPath>
      <path clip-path="url(#make-me-a-hanzi-clip-9)" d="M 376 323 L 406 324 L 586 363 L 627 359" fill="none" id="make-me-a-hanzi-animation-9" stroke-dasharray="383 766" stroke-linecap="round"></path>
    
      <clipPath id="make-me-a-hanzi-clip-10">
        <path d="M 517 253 Q 523 272 528 332 L 530 371 Q 530 402 532 442 L 532 475 Q 532 497 533 522 Q 533 525 533 527 L 533 557 Q 533 588 533 614 L 534 643 Q 535 679 538 707 L 540 751 Q 540 794 556 818 Q 560 831 546 843 Q 527 859 493 867 Q 478 871 468 861 Q 461 854 470 845 Q 491 827 492 802 Q 492 774 492 735 L 492 695 Q 491 667 491 633 L 491 604 Q 491 583 491 560 Q 490 553 490 545 L 490 519 Q 489 489 488 463 L 488 434 Q 488 398 487 360 L 487 325 Q 491 261 496 251 C 502 222 511 224 517 253 Z"></path>
      </clipPath>
      <path clip-path="url(#make-me-a-hanzi-clip-10)" d="M 475 854 L 496 847 L 521 822 L 512 657 L 508 285 L 501 256" fill="none" id="make-me-a-hanzi-animation-10" stroke-dasharray="753 1506" stroke-linecap="round"></path>
    
      <clipPath id="make-me-a-hanzi-clip-11">
        <path d="M 762 286 Q 825 596 870 631 Q 889 646 879 660 Q 866 681 828 704 Q 810 719 778 708 Q 726 692 684 691 Q 669 692 668 681 Q 669 674 686 664 Q 704 651 727 658 Q 770 662 776 656 Q 785 649 781 617 Q 777 587 771 554 L 765 518 Q 758 478 749 436 L 741 400 Q 728 342 713 278 C 706 249 756 257 762 286 Z"></path>
      </clipPath>
      <path clip-path="url(#make-me-a-hanzi-clip-11)" d="M 677 681 L 717 674 L 793 681 L 805 677 L 826 650 L 744 307 L 718 285" fill="none" id="make-me-a-hanzi-animation-11" stroke-dasharray="679 1358" stroke-linecap="round"></path>
    
      <clipPath id="make-me-a-hanzi-clip-12">
        <path d="M 771 554 Q 752 555 666 527 Q 651 524 670 511 L 765 518 C 795 520 801 554 771 554 Z"></path>
      </clipPath>
      <path clip-path="url(#make-me-a-hanzi-clip-12)" d="M 667 519 L 750 534 L 768 548" fill="none" id="make-me-a-hanzi-animation-12" stroke-dasharray="235 470" stroke-linecap="round"></path>
    
      <clipPath id="make-me-a-hanzi-clip-13">
        <path d="M 749 436 Q 719 440 639 415 Q 624 412 642 398 Q 646 394 660 394 Q 703 398 741 400 C 771 402 779 433 749 436 Z"></path>
      </clipPath>
      <path clip-path="url(#make-me-a-hanzi-clip-13)" d="M 640 406 L 721 416 L 744 431" fill="none" id="make-me-a-hanzi-animation-13" stroke-dasharray="237 474" stroke-linecap="round"></path>
    
      <clipPath id="make-me-a-hanzi-clip-14">
        <path d="M 713 278 Q 626 268 517 253 L 496 251 Q 402 244 303 232 L 258 228 Q 173 221 83 212 Q 59 211 76 191 Q 91 175 111 169 Q 133 162 152 167 Q 480 248 930 227 Q 931 228 934 227 Q 956 226 962 236 Q 969 249 951 265 Q 888 313 829 297 Q 796 293 762 286 L 713 278 Z"></path>
      </clipPath>
      <path clip-path="url(#make-me-a-hanzi-clip-14)" d="M 79 202 L 133 191 L 446 232 L 843 265 L 875 265 L 949 244" fill="none" id="make-me-a-hanzi-animation-14" stroke-dasharray="1006 2012" stroke-linecap="round"></path>
    
      <clipPath id="make-me-a-hanzi-clip-15">
        <path d="M 338 169 Q 323 100 154 -27 Q 130 -42 160 -40 Q 247 -34 381 99 Q 400 118 413 128 Q 425 140 423 150 Q 420 165 393 174 Q 363 187 350 184 Q 341 183 338 169 Z"></path>
      </clipPath>
      <path clip-path="url(#make-me-a-hanzi-clip-15)" d="M 406 147 L 370 142 L 351 114 L 284 46 L 224 1 L 164 -30" fill="none" id="make-me-a-hanzi-animation-15" stroke-dasharray="436 872" stroke-linecap="round"></path>
    
      <clipPath id="make-me-a-hanzi-clip-16">
        <path d="M 642 152 Q 702 80 771 -20 Q 786 -45 802 -53 Q 812 -56 821 -45 Q 837 -32 830 19 Q 826 85 649 186 Q 639 193 635 180 Q 632 165 642 152 Z"></path>
      </clipPath>
      <path clip-path="url(#make-me-a-hanzi-clip-16)" d="M 646 173 L 742 83 L 776 43 L 792 18 L 806 -36" fill="none" id="make-me-a-hanzi-animation-16" stroke-dasharray="398 796" stroke-linecap="round"></path>
    
  </g>
</svg>