<svg version="1.1" viewBox="0 0 1024 1024" xmlns="http://www.w3.org/2000/svg">
  <g stroke="lightgray" stroke-dasharray="1,1" stroke-width="1" transform="scale(4, 4)">
    <line x1="0" y1="0" x2="256" y2="256"></line>
    <line x1="256" y1="0" x2="0" y2="256"></line>
    <line x1="128" y1="0" x2="128" y2="256"></line>
    <line x1="0" y1="128" x2="256" y2="128"></line>
  </g>
  <g transform="scale(1, -1) translate(0, -900)">
    <style type="text/css">
      
        @keyframes keyframes0 {
          from {
            stroke: blue;
            stroke-dashoffset: 569;
            stroke-width: 128;
          }
          65% {
            animation-timing-function: step-end;
            stroke: blue;
            stroke-dashoffset: 0;
            stroke-width: 128;
          }
          to {
            stroke: black;
            stroke-width: 1024;
          }
        }
        #make-me-a-hanzi-animation-0 {
          animation: keyframes0 0.7130533854166666s both;
          animation-delay: 0s;
          animation-timing-function: linear;
        }
      
        @keyframes keyframes1 {
          from {
            stroke: blue;
            stroke-dashoffset: 1001;
            stroke-width: 128;
          }
          77% {
            animation-timing-function: step-end;
            stroke: blue;
            stroke-dashoffset: 0;
            stroke-width: 128;
          }
          to {
            stroke: black;
            stroke-width: 1024;
          }
        }
        #make-me-a-hanzi-animation-1 {
          animation: keyframes1 1.0646158854166667s both;
          animation-delay: 0.7130533854166666s;
          animation-timing-function: linear;
        }
      
        @keyframes keyframes2 {
          from {
            stroke: blue;
            stroke-dashoffset: 805;
            stroke-width: 128;
          }
          72% {
            animation-timing-function: step-end;
            stroke: blue;
            stroke-dashoffset: 0;
            stroke-width: 128;
          }
          to {
            stroke: black;
            stroke-width: 1024;
          }
        }
        #make-me-a-hanzi-animation-2 {
          animation: keyframes2 0.9051106770833334s both;
          animation-delay: 1.7776692708333335s;
          animation-timing-function: linear;
        }
      
        @keyframes keyframes3 {
          from {
            stroke: blue;
            stroke-dashoffset: 648;
            stroke-width: 128;
          }
          68% {
            animation-timing-function: step-end;
            stroke: blue;
            stroke-dashoffset: 0;
            stroke-width: 128;
          }
          to {
            stroke: black;
            stroke-width: 1024;
          }
        }
        #make-me-a-hanzi-animation-3 {
          animation: keyframes3 0.77734375s both;
          animation-delay: 2.682779947916667s;
          animation-timing-function: linear;
        }
      
        @keyframes keyframes4 {
          from {
            stroke: blue;
            stroke-dashoffset: 577;
            stroke-width: 128;
          }
          65% {
            animation-timing-function: step-end;
            stroke: blue;
            stroke-dashoffset: 0;
            stroke-width: 128;
          }
          to {
            stroke: black;
            stroke-width: 1024;
          }
        }
        #make-me-a-hanzi-animation-4 {
          animation: keyframes4 0.7195638020833334s both;
          animation-delay: 3.460123697916667s;
          animation-timing-function: linear;
        }
      
        @keyframes keyframes5 {
          from {
            stroke: blue;
            stroke-dashoffset: 767;
            stroke-width: 128;
          }
          71% {
            animation-timing-function: step-end;
            stroke: blue;
            stroke-dashoffset: 0;
            stroke-width: 128;
          }
          to {
            stroke: black;
            stroke-width: 1024;
          }
        }
        #make-me-a-hanzi-animation-5 {
          animation: keyframes5 0.8741861979166666s both;
          animation-delay: 4.1796875s;
          animation-timing-function: linear;
        }
      
        @keyframes keyframes6 {
          from {
            stroke: blue;
            stroke-dashoffset: 924;
            stroke-width: 128;
          }
          75% {
            animation-timing-function: step-end;
            stroke: blue;
            stroke-dashoffset: 0;
            stroke-width: 128;
          }
          to {
            stroke: black;
            stroke-width: 1024;
          }
        }
        #make-me-a-hanzi-animation-6 {
          animation: keyframes6 1.001953125s both;
          animation-delay: 5.053873697916667s;
          animation-timing-function: linear;
        }
      
    </style>
    
      <path d="M 313 606 Q 461 643 468 649 Q 475 656 471 665 Q 464 675 436 682 Q 406 686 338 660 L 282 642 Q 225 629 164 620 Q 128 613 155 598 Q 194 574 251 591 Q 257 592 265 594 L 313 606 Z" fill="lightgray"></path>
    
      <path d="M 385 400 Q 416 407 448 411 Q 478 414 468 428 Q 459 441 441 448 Q 423 454 387 438 L 340 425 Q 234 401 232 402 Q 231 403 232 414 Q 265 502 313 606 L 338 660 Q 380 744 391 754 Q 404 766 387 786 Q 362 814 341 828 Q 328 835 317 833 Q 308 829 314 807 Q 321 771 282 642 L 265 594 Q 220 459 162 400 Q 146 384 151 368 Q 158 347 169 337 Q 179 327 189 332 Q 226 354 319 383 Q 329 387 340 388 L 385 400 Z" fill="lightgray"></path>
    
      <path d="M 332 236 Q 320 101 311 79 Q 302 42 333 -8 Q 343 -26 352 -30 Q 362 -31 368 -19 Q 381 12 378 41 Q 378 156 379 256 L 380 289 Q 380 304 385 400 L 387 438 Q 388 465 393 481 Q 396 493 389 499 Q 367 518 349 529 Q 337 533 328 526 Q 322 522 329 512 Q 338 496 340 425 L 340 388 Q 339 342 336 284 Q 335 280 335 275 L 332 236 Z" fill="lightgray"></path>
    
      <path d="M 379 256 Q 388 260 400 265 Q 428 277 449 291 Q 462 298 462 308 Q 456 314 444 311 Q 411 301 380 289 L 335 275 Q 245 248 146 220 Q 125 213 90 214 Q 77 213 76 203 Q 73 190 83 182 Q 105 166 138 147 Q 148 143 160 152 Q 202 183 332 236 L 379 256 Z" fill="lightgray"></path>
    
      <path d="M 679 609 Q 749 628 822 645 Q 862 657 868 663 Q 877 672 872 680 Q 863 692 834 698 Q 807 701 710 665 Q 617 641 556 631 Q 519 622 546 607 Q 576 592 624 594 L 679 609 Z" fill="lightgray"></path>
    
      <path d="M 707 377 Q 786 390 907 394 Q 961 394 969 404 Q 973 417 957 430 Q 897 469 831 447 Q 780 435 708 419 L 651 409 Q 561 393 459 375 Q 438 371 455 355 Q 486 327 533 341 Q 587 359 652 368 L 707 377 Z" fill="lightgray"></path>
    
      <path d="M 656 -21 Q 662 -46 669 -57 Q 675 -64 683 -62 Q 698 -53 705 10 Q 712 88 710 164 Q 706 215 707 377 L 708 419 Q 708 521 719 564 Q 722 583 707 593 Q 691 603 679 609 C 653 624 612 621 624 594 Q 646 548 650 523 Q 649 522 650 519 Q 651 470 651 409 L 652 368 Q 646 52 656 -21 Z" fill="lightgray"></path>
    
    
      <clipPath id="make-me-a-hanzi-clip-0">
        <path d="M 313 606 Q 461 643 468 649 Q 475 656 471 665 Q 464 675 436 682 Q 406 686 338 660 L 282 642 Q 225 629 164 620 Q 128 613 155 598 Q 194 574 251 591 Q 257 592 265 594 L 313 606 Z"></path>
      </clipPath>
      <path clip-path="url(#make-me-a-hanzi-clip-0)" d="M 156 610 L 212 605 L 321 629 L 413 657 L 462 658" fill="none" id="make-me-a-hanzi-animation-0" stroke-dasharray="441 882" stroke-linecap="round"></path>
    
      <clipPath id="make-me-a-hanzi-clip-1">
        <path d="M 385 400 Q 416 407 448 411 Q 478 414 468 428 Q 459 441 441 448 Q 423 454 387 438 L 340 425 Q 234 401 232 402 Q 231 403 232 414 Q 265 502 313 606 L 338 660 Q 380 744 391 754 Q 404 766 387 786 Q 362 814 341 828 Q 328 835 317 833 Q 308 829 314 807 Q 321 771 282 642 L 265 594 Q 220 459 162 400 Q 146 384 151 368 Q 158 347 169 337 Q 179 327 189 332 Q 226 354 319 383 Q 329 387 340 388 L 385 400 Z"></path>
      </clipPath>
      <path clip-path="url(#make-me-a-hanzi-clip-1)" d="M 323 824 L 352 767 L 262 533 L 209 421 L 198 381 L 248 381 L 427 429 L 456 422" fill="none" id="make-me-a-hanzi-animation-1" stroke-dasharray="873 1746" stroke-linecap="round"></path>
    
      <clipPath id="make-me-a-hanzi-clip-2">
        <path d="M 332 236 Q 320 101 311 79 Q 302 42 333 -8 Q 343 -26 352 -30 Q 362 -31 368 -19 Q 381 12 378 41 Q 378 156 379 256 L 380 289 Q 380 304 385 400 L 387 438 Q 388 465 393 481 Q 396 493 389 499 Q 367 518 349 529 Q 337 533 328 526 Q 322 522 329 512 Q 338 496 340 425 L 340 388 Q 339 342 336 284 Q 335 280 335 275 L 332 236 Z"></path>
      </clipPath>
      <path clip-path="url(#make-me-a-hanzi-clip-2)" d="M 337 520 L 365 482 L 363 364 L 343 60 L 354 -18" fill="none" id="make-me-a-hanzi-animation-2" stroke-dasharray="677 1354" stroke-linecap="round"></path>
    
      <clipPath id="make-me-a-hanzi-clip-3">
        <path d="M 379 256 Q 388 260 400 265 Q 428 277 449 291 Q 462 298 462 308 Q 456 314 444 311 Q 411 301 380 289 L 335 275 Q 245 248 146 220 Q 125 213 90 214 Q 77 213 76 203 Q 73 190 83 182 Q 105 166 138 147 Q 148 143 160 152 Q 202 183 332 236 L 379 256 Z"></path>
      </clipPath>
      <path clip-path="url(#make-me-a-hanzi-clip-3)" d="M 89 201 L 145 184 L 456 305" fill="none" id="make-me-a-hanzi-animation-3" stroke-dasharray="520 1040" stroke-linecap="round"></path>
    
      <clipPath id="make-me-a-hanzi-clip-4">
        <path d="M 679 609 Q 749 628 822 645 Q 862 657 868 663 Q 877 672 872 680 Q 863 692 834 698 Q 807 701 710 665 Q 617 641 556 631 Q 519 622 546 607 Q 576 592 624 594 L 679 609 Z"></path>
      </clipPath>
      <path clip-path="url(#make-me-a-hanzi-clip-4)" d="M 548 620 L 570 615 L 615 617 L 808 669 L 861 674" fill="none" id="make-me-a-hanzi-animation-4" stroke-dasharray="449 898" stroke-linecap="round"></path>
    
      <clipPath id="make-me-a-hanzi-clip-5">
        <path d="M 707 377 Q 786 390 907 394 Q 961 394 969 404 Q 973 417 957 430 Q 897 469 831 447 Q 780 435 708 419 L 651 409 Q 561 393 459 375 Q 438 371 455 355 Q 486 327 533 341 Q 587 359 652 368 L 707 377 Z"></path>
      </clipPath>
      <path clip-path="url(#make-me-a-hanzi-clip-5)" d="M 457 365 L 506 359 L 619 384 L 860 423 L 911 422 L 960 410" fill="none" id="make-me-a-hanzi-animation-5" stroke-dasharray="639 1278" stroke-linecap="round"></path>
    
      <clipPath id="make-me-a-hanzi-clip-6">
        <path d="M 656 -21 Q 662 -46 669 -57 Q 675 -64 683 -62 Q 698 -53 705 10 Q 712 88 710 164 Q 706 215 707 377 L 708 419 Q 708 521 719 564 Q 722 583 707 593 Q 691 603 679 609 C 653 624 612 621 624 594 Q 646 548 650 523 Q 649 522 650 519 Q 651 470 651 409 L 652 368 Q 646 52 656 -21 Z"></path>
      </clipPath>
      <path clip-path="url(#make-me-a-hanzi-clip-6)" d="M 633 588 L 675 569 L 681 543 L 679 -52" fill="none" id="make-me-a-hanzi-animation-6" stroke-dasharray="796 1592" stroke-linecap="round"></path>
    
  </g>
</svg>