<svg version="1.1" viewBox="0 0 1024 1024" xmlns="http://www.w3.org/2000/svg">
  <g stroke="lightgray" stroke-dasharray="1,1" stroke-width="1" transform="scale(4, 4)">
    <line x1="0" y1="0" x2="256" y2="256"></line>
    <line x1="256" y1="0" x2="0" y2="256"></line>
    <line x1="128" y1="0" x2="128" y2="256"></line>
    <line x1="0" y1="128" x2="256" y2="128"></line>
  </g>
  <g transform="scale(1, -1) translate(0, -900)">
    <style type="text/css">
      
        @keyframes keyframes0 {
          from {
            stroke: blue;
            stroke-dashoffset: 566;
            stroke-width: 128;
          }
          65% {
            animation-timing-function: step-end;
            stroke: blue;
            stroke-dashoffset: 0;
            stroke-width: 128;
          }
          to {
            stroke: black;
            stroke-width: 1024;
          }
        }
        #make-me-a-hanzi-animation-0 {
          animation: keyframes0 0.7106119791666666s both;
          animation-delay: 0s;
          animation-timing-function: linear;
        }
      
        @keyframes keyframes1 {
          from {
            stroke: blue;
            stroke-dashoffset: 992;
            stroke-width: 128;
          }
          76% {
            animation-timing-function: step-end;
            stroke: blue;
            stroke-dashoffset: 0;
            stroke-width: 128;
          }
          to {
            stroke: black;
            stroke-width: 1024;
          }
        }
        #make-me-a-hanzi-animation-1 {
          animation: keyframes1 1.0572916666666667s both;
          animation-delay: 0.7106119791666666s;
          animation-timing-function: linear;
        }
      
        @keyframes keyframes2 {
          from {
            stroke: blue;
            stroke-dashoffset: 808;
            stroke-width: 128;
          }
          72% {
            animation-timing-function: step-end;
            stroke: blue;
            stroke-dashoffset: 0;
            stroke-width: 128;
          }
          to {
            stroke: black;
            stroke-width: 1024;
          }
        }
        #make-me-a-hanzi-animation-2 {
          animation: keyframes2 0.9075520833333334s both;
          animation-delay: 1.7679036458333335s;
          animation-timing-function: linear;
        }
      
        @keyframes keyframes3 {
          from {
            stroke: blue;
            stroke-dashoffset: 644;
            stroke-width: 128;
          }
          68% {
            animation-timing-function: step-end;
            stroke: blue;
            stroke-dashoffset: 0;
            stroke-width: 128;
          }
          to {
            stroke: black;
            stroke-width: 1024;
          }
        }
        #make-me-a-hanzi-animation-3 {
          animation: keyframes3 0.7740885416666666s both;
          animation-delay: 2.675455729166667s;
          animation-timing-function: linear;
        }
      
        @keyframes keyframes4 {
          from {
            stroke: blue;
            stroke-dashoffset: 554;
            stroke-width: 128;
          }
          64% {
            animation-timing-function: step-end;
            stroke: blue;
            stroke-dashoffset: 0;
            stroke-width: 128;
          }
          to {
            stroke: black;
            stroke-width: 1024;
          }
        }
        #make-me-a-hanzi-animation-4 {
          animation: keyframes4 0.7008463541666666s both;
          animation-delay: 3.4495442708333335s;
          animation-timing-function: linear;
        }
      
        @keyframes keyframes5 {
          from {
            stroke: blue;
            stroke-dashoffset: 727;
            stroke-width: 128;
          }
          70% {
            animation-timing-function: step-end;
            stroke: blue;
            stroke-dashoffset: 0;
            stroke-width: 128;
          }
          to {
            stroke: black;
            stroke-width: 1024;
          }
        }
        #make-me-a-hanzi-animation-5 {
          animation: keyframes5 0.8416341145833334s both;
          animation-delay: 4.150390625s;
          animation-timing-function: linear;
        }
      
        @keyframes keyframes6 {
          from {
            stroke: blue;
            stroke-dashoffset: 400;
            stroke-width: 128;
          }
          57% {
            animation-timing-function: step-end;
            stroke: blue;
            stroke-dashoffset: 0;
            stroke-width: 128;
          }
          to {
            stroke: black;
            stroke-width: 1024;
          }
        }
        #make-me-a-hanzi-animation-6 {
          animation: keyframes6 0.5755208333333334s both;
          animation-delay: 4.992024739583333s;
          animation-timing-function: linear;
        }
      
        @keyframes keyframes7 {
          from {
            stroke: blue;
            stroke-dashoffset: 566;
            stroke-width: 128;
          }
          65% {
            animation-timing-function: step-end;
            stroke: blue;
            stroke-dashoffset: 0;
            stroke-width: 128;
          }
          to {
            stroke: black;
            stroke-width: 1024;
          }
        }
        #make-me-a-hanzi-animation-7 {
          animation: keyframes7 0.7106119791666666s both;
          animation-delay: 5.567545572916666s;
          animation-timing-function: linear;
        }
      
        @keyframes keyframes8 {
          from {
            stroke: blue;
            stroke-dashoffset: 533;
            stroke-width: 128;
          }
          63% {
            animation-timing-function: step-end;
            stroke: blue;
            stroke-dashoffset: 0;
            stroke-width: 128;
          }
          to {
            stroke: black;
            stroke-width: 1024;
          }
        }
        #make-me-a-hanzi-animation-8 {
          animation: keyframes8 0.6837565104166666s both;
          animation-delay: 6.278157552083333s;
          animation-timing-function: linear;
        }
      
        @keyframes keyframes9 {
          from {
            stroke: blue;
            stroke-dashoffset: 770;
            stroke-width: 128;
          }
          71% {
            animation-timing-function: step-end;
            stroke: blue;
            stroke-dashoffset: 0;
            stroke-width: 128;
          }
          to {
            stroke: black;
            stroke-width: 1024;
          }
        }
        #make-me-a-hanzi-animation-9 {
          animation: keyframes9 0.8766276041666666s both;
          animation-delay: 6.9619140625s;
          animation-timing-function: linear;
        }
      
    </style>
    
      <path d="M 302 614 Q 467 650 475 657 Q 484 664 479 673 Q 472 683 444 691 Q 414 695 386 684 Q 356 674 325 665 L 275 652 Q 226 642 173 636 Q 137 630 163 614 Q 202 593 258 604 L 302 614 Z" fill="lightgray"></path>
    
      <path d="M 379 415 Q 410 422 444 424 Q 472 427 463 440 Q 454 453 438 460 Q 426 464 381 450 L 332 438 Q 290 431 240 419 Q 227 416 225 419 Q 224 420 226 431 Q 257 515 302 614 L 325 665 Q 370 758 382 768 Q 395 780 378 799 Q 353 826 334 839 Q 321 846 311 844 Q 302 840 308 819 Q 317 780 275 652 L 258 604 Q 257 603 257 600 Q 196 453 158 418 Q 143 402 148 388 Q 154 369 165 358 Q 174 348 184 353 Q 221 375 315 400 Q 322 403 332 404 L 379 415 Z" fill="lightgray"></path>
    
      <path d="M 325 251 Q 316 133 308 107 Q 299 68 332 17 Q 344 -2 352 -6 Q 364 -7 369 6 Q 382 37 378 69 Q 377 177 377 273 L 377 306 Q 377 385 379 415 L 381 450 Q 382 487 387 507 Q 390 520 383 526 Q 359 547 340 556 Q 327 560 318 553 Q 312 549 319 539 Q 331 520 332 438 L 332 404 Q 329 299 327 289 L 325 251 Z" fill="lightgray"></path>
    
      <path d="M 377 273 Q 390 280 405 285 Q 462 309 466 328 Q 457 334 377 306 L 327 289 Q 246 265 156 238 Q 137 232 102 232 Q 89 231 88 221 Q 85 208 94 201 Q 116 185 147 168 Q 157 165 169 173 Q 214 206 325 251 L 377 273 Z" fill="lightgray"></path>
    
      <path d="M 635 629 Q 824 671 827 673 Q 836 680 831 689 Q 824 699 796 707 Q 769 713 673 682 Q 606 667 537 660 Q 503 654 527 638 Q 557 620 590 623 L 635 629 Z" fill="lightgray"></path>
    
      <path d="M 646 424 Q 695 439 773 455 Q 777 456 782 458 C 811 466 795 483 765 479 Q 677 467 584 445 Q 574 441 570 445 Q 569 448 573 455 Q 651 567 667 585 Q 677 595 672 606 Q 666 616 635 629 C 608 641 584 652 590 623 Q 605 572 555 494 Q 534 463 491 430 Q 478 420 482 409 Q 486 394 511 377 Q 521 367 533 377 Q 566 404 611 413 L 646 424 Z" fill="lightgray"></path>
    
      <path d="M 782 458 Q 812 413 827 411 Q 837 410 845 421 Q 852 434 850 464 Q 849 485 821 505 Q 755 547 740 543 Q 736 540 734 528 Q 735 516 756 492 Q 760 486 765 479 L 782 458 Z" fill="lightgray"></path>
    
      <path d="M 677 270 Q 723 280 771 287 Q 811 294 818 301 Q 827 308 823 316 Q 816 328 788 336 Q 763 342 680 317 L 627 305 Q 575 296 514 291 Q 478 287 503 270 Q 536 246 611 260 Q 617 261 627 262 L 677 270 Z" fill="lightgray"></path>
    
      <path d="M 671 152 Q 674 216 677 270 L 680 317 Q 681 332 682 345 Q 686 390 682 396 Q 664 414 646 424 C 620 440 599 441 611 413 Q 623 391 627 305 L 627 262 Q 627 216 627 147 C 627 117 670 122 671 152 Z" fill="lightgray"></path>
    
      <path d="M 627 147 Q 534 137 428 125 Q 409 124 423 107 Q 436 94 453 88 Q 474 82 489 86 Q 624 119 922 118 Q 941 117 946 126 Q 952 136 936 150 Q 879 193 831 177 Q 768 167 671 152 L 627 147 Z" fill="lightgray"></path>
    
    
      <clipPath id="make-me-a-hanzi-clip-0">
        <path d="M 302 614 Q 467 650 475 657 Q 484 664 479 673 Q 472 683 444 691 Q 414 695 386 684 Q 356 674 325 665 L 275 652 Q 226 642 173 636 Q 137 630 163 614 Q 202 593 258 604 L 302 614 Z"></path>
      </clipPath>
      <path clip-path="url(#make-me-a-hanzi-clip-0)" d="M 165 626 L 202 620 L 243 624 L 423 668 L 469 667" fill="none" id="make-me-a-hanzi-animation-0" stroke-dasharray="438 876" stroke-linecap="round"></path>
    
      <clipPath id="make-me-a-hanzi-clip-1">
        <path d="M 379 415 Q 410 422 444 424 Q 472 427 463 440 Q 454 453 438 460 Q 426 464 381 450 L 332 438 Q 290 431 240 419 Q 227 416 225 419 Q 224 420 226 431 Q 257 515 302 614 L 325 665 Q 370 758 382 768 Q 395 780 378 799 Q 353 826 334 839 Q 321 846 311 844 Q 302 840 308 819 Q 317 780 275 652 L 258 604 Q 257 603 257 600 Q 196 453 158 418 Q 143 402 148 388 Q 154 369 165 358 Q 174 348 184 353 Q 221 375 315 400 Q 322 403 332 404 L 379 415 Z"></path>
      </clipPath>
      <path clip-path="url(#make-me-a-hanzi-clip-1)" d="M 316 835 L 345 781 L 276 597 L 196 419 L 195 398 L 245 399 L 413 441 L 451 435" fill="none" id="make-me-a-hanzi-animation-1" stroke-dasharray="864 1728" stroke-linecap="round"></path>
    
      <clipPath id="make-me-a-hanzi-clip-2">
        <path d="M 325 251 Q 316 133 308 107 Q 299 68 332 17 Q 344 -2 352 -6 Q 364 -7 369 6 Q 382 37 378 69 Q 377 177 377 273 L 377 306 Q 377 385 379 415 L 381 450 Q 382 487 387 507 Q 390 520 383 526 Q 359 547 340 556 Q 327 560 318 553 Q 312 549 319 539 Q 331 520 332 438 L 332 404 Q 329 299 327 289 L 325 251 Z"></path>
      </clipPath>
      <path clip-path="url(#make-me-a-hanzi-clip-2)" d="M 327 547 L 357 507 L 352 251 L 342 93 L 355 6" fill="none" id="make-me-a-hanzi-animation-2" stroke-dasharray="680 1360" stroke-linecap="round"></path>
    
      <clipPath id="make-me-a-hanzi-clip-3">
        <path d="M 377 273 Q 390 280 405 285 Q 462 309 466 328 Q 457 334 377 306 L 327 289 Q 246 265 156 238 Q 137 232 102 232 Q 89 231 88 221 Q 85 208 94 201 Q 116 185 147 168 Q 157 165 169 173 Q 214 206 325 251 L 377 273 Z"></path>
      </clipPath>
      <path clip-path="url(#make-me-a-hanzi-clip-3)" d="M 101 219 L 153 203 L 463 325" fill="none" id="make-me-a-hanzi-animation-3" stroke-dasharray="516 1032" stroke-linecap="round"></path>
    
      <clipPath id="make-me-a-hanzi-clip-4">
        <path d="M 635 629 Q 824 671 827 673 Q 836 680 831 689 Q 824 699 796 707 Q 769 713 673 682 Q 606 667 537 660 Q 503 654 527 638 Q 557 620 590 623 L 635 629 Z"></path>
      </clipPath>
      <path clip-path="url(#make-me-a-hanzi-clip-4)" d="M 530 650 L 551 644 L 593 645 L 645 651 L 763 682 L 823 682" fill="none" id="make-me-a-hanzi-animation-4" stroke-dasharray="426 852" stroke-linecap="round"></path>
    
      <clipPath id="make-me-a-hanzi-clip-5">
        <path d="M 646 424 Q 695 439 773 455 Q 777 456 782 458 C 811 466 795 483 765 479 Q 677 467 584 445 Q 574 441 570 445 Q 569 448 573 455 Q 651 567 667 585 Q 677 595 672 606 Q 666 616 635 629 C 608 641 584 652 590 623 Q 605 572 555 494 Q 534 463 491 430 Q 478 420 482 409 Q 486 394 511 377 Q 521 367 533 377 Q 566 404 611 413 L 646 424 Z"></path>
      </clipPath>
      <path clip-path="url(#make-me-a-hanzi-clip-5)" d="M 598 619 L 628 593 L 599 529 L 549 453 L 541 425 L 567 422 L 759 466 L 776 462" fill="none" id="make-me-a-hanzi-animation-5" stroke-dasharray="599 1198" stroke-linecap="round"></path>
    
      <clipPath id="make-me-a-hanzi-clip-6">
        <path d="M 782 458 Q 812 413 827 411 Q 837 410 845 421 Q 852 434 850 464 Q 849 485 821 505 Q 755 547 740 543 Q 736 540 734 528 Q 735 516 756 492 Q 760 486 765 479 L 782 458 Z"></path>
      </clipPath>
      <path clip-path="url(#make-me-a-hanzi-clip-6)" d="M 743 537 L 808 476 L 818 463 L 829 426" fill="none" id="make-me-a-hanzi-animation-6" stroke-dasharray="272 544" stroke-linecap="round"></path>
    
      <clipPath id="make-me-a-hanzi-clip-7">
        <path d="M 677 270 Q 723 280 771 287 Q 811 294 818 301 Q 827 308 823 316 Q 816 328 788 336 Q 763 342 680 317 L 627 305 Q 575 296 514 291 Q 478 287 503 270 Q 536 246 611 260 Q 617 261 627 262 L 677 270 Z"></path>
      </clipPath>
      <path clip-path="url(#make-me-a-hanzi-clip-7)" d="M 505 282 L 548 274 L 579 276 L 752 310 L 811 312" fill="none" id="make-me-a-hanzi-animation-7" stroke-dasharray="438 876" stroke-linecap="round"></path>
    
      <clipPath id="make-me-a-hanzi-clip-8">
        <path d="M 671 152 Q 674 216 677 270 L 680 317 Q 681 332 682 345 Q 686 390 682 396 Q 664 414 646 424 C 620 440 599 441 611 413 Q 623 391 627 305 L 627 262 Q 627 216 627 147 C 627 117 670 122 671 152 Z"></path>
      </clipPath>
      <path clip-path="url(#make-me-a-hanzi-clip-8)" d="M 618 411 L 647 390 L 654 357 L 650 177 L 633 155" fill="none" id="make-me-a-hanzi-animation-8" stroke-dasharray="405 810" stroke-linecap="round"></path>
    
      <clipPath id="make-me-a-hanzi-clip-9">
        <path d="M 627 147 Q 534 137 428 125 Q 409 124 423 107 Q 436 94 453 88 Q 474 82 489 86 Q 624 119 922 118 Q 941 117 946 126 Q 952 136 936 150 Q 879 193 831 177 Q 768 167 671 152 L 627 147 Z"></path>
      </clipPath>
      <path clip-path="url(#make-me-a-hanzi-clip-9)" d="M 426 116 L 480 108 L 854 150 L 900 144 L 935 132" fill="none" id="make-me-a-hanzi-animation-9" stroke-dasharray="642 1284" stroke-linecap="round"></path>
    
  </g>
</svg>