<svg version="1.1" viewBox="0 0 1024 1024" xmlns="http://www.w3.org/2000/svg">
  <g stroke="lightgray" stroke-dasharray="1,1" stroke-width="1" transform="scale(4, 4)">
    <line x1="0" y1="0" x2="256" y2="256"></line>
    <line x1="256" y1="0" x2="0" y2="256"></line>
    <line x1="128" y1="0" x2="128" y2="256"></line>
    <line x1="0" y1="128" x2="256" y2="128"></line>
  </g>
  <g transform="scale(1, -1) translate(0, -900)">
    <style type="text/css">
      
        @keyframes keyframes0 {
          from {
            stroke: blue;
            stroke-dashoffset: 562;
            stroke-width: 128;
          }
          65% {
            animation-timing-function: step-end;
            stroke: blue;
            stroke-dashoffset: 0;
            stroke-width: 128;
          }
          to {
            stroke: black;
            stroke-width: 1024;
          }
        }
        #make-me-a-hanzi-animation-0 {
          animation: keyframes0 0.7073567708333334s both;
          animation-delay: 0s;
          animation-timing-function: linear;
        }
      
        @keyframes keyframes1 {
          from {
            stroke: blue;
            stroke-dashoffset: 1006;
            stroke-width: 128;
          }
          77% {
            animation-timing-function: step-end;
            stroke: blue;
            stroke-dashoffset: 0;
            stroke-width: 128;
          }
          to {
            stroke: black;
            stroke-width: 1024;
          }
        }
        #make-me-a-hanzi-animation-1 {
          animation: keyframes1 1.0686848958333333s both;
          animation-delay: 0.7073567708333334s;
          animation-timing-function: linear;
        }
      
        @keyframes keyframes2 {
          from {
            stroke: blue;
            stroke-dashoffset: 799;
            stroke-width: 128;
          }
          72% {
            animation-timing-function: step-end;
            stroke: blue;
            stroke-dashoffset: 0;
            stroke-width: 128;
          }
          to {
            stroke: black;
            stroke-width: 1024;
          }
        }
        #make-me-a-hanzi-animation-2 {
          animation: keyframes2 0.9002278645833334s both;
          animation-delay: 1.7760416666666665s;
          animation-timing-function: linear;
        }
      
        @keyframes keyframes3 {
          from {
            stroke: blue;
            stroke-dashoffset: 634;
            stroke-width: 128;
          }
          67% {
            animation-timing-function: step-end;
            stroke: blue;
            stroke-dashoffset: 0;
            stroke-width: 128;
          }
          to {
            stroke: black;
            stroke-width: 1024;
          }
        }
        #make-me-a-hanzi-animation-3 {
          animation: keyframes3 0.7659505208333334s both;
          animation-delay: 2.67626953125s;
          animation-timing-function: linear;
        }
      
        @keyframes keyframes4 {
          from {
            stroke: blue;
            stroke-dashoffset: 975;
            stroke-width: 128;
          }
          76% {
            animation-timing-function: step-end;
            stroke: blue;
            stroke-dashoffset: 0;
            stroke-width: 128;
          }
          to {
            stroke: black;
            stroke-width: 1024;
          }
        }
        #make-me-a-hanzi-animation-4 {
          animation: keyframes4 1.04345703125s both;
          animation-delay: 3.4422200520833335s;
          animation-timing-function: linear;
        }
      
        @keyframes keyframes5 {
          from {
            stroke: blue;
            stroke-dashoffset: 592;
            stroke-width: 128;
          }
          66% {
            animation-timing-function: step-end;
            stroke: blue;
            stroke-dashoffset: 0;
            stroke-width: 128;
          }
          to {
            stroke: black;
            stroke-width: 1024;
          }
        }
        #make-me-a-hanzi-animation-5 {
          animation: keyframes5 0.7317708333333334s both;
          animation-delay: 4.485677083333334s;
          animation-timing-function: linear;
        }
      
        @keyframes keyframes6 {
          from {
            stroke: blue;
            stroke-dashoffset: 533;
            stroke-width: 128;
          }
          63% {
            animation-timing-function: step-end;
            stroke: blue;
            stroke-dashoffset: 0;
            stroke-width: 128;
          }
          to {
            stroke: black;
            stroke-width: 1024;
          }
        }
        #make-me-a-hanzi-animation-6 {
          animation: keyframes6 0.6837565104166666s both;
          animation-delay: 5.217447916666667s;
          animation-timing-function: linear;
        }
      
        @keyframes keyframes7 {
          from {
            stroke: blue;
            stroke-dashoffset: 698;
            stroke-width: 128;
          }
          69% {
            animation-timing-function: step-end;
            stroke: blue;
            stroke-dashoffset: 0;
            stroke-width: 128;
          }
          to {
            stroke: black;
            stroke-width: 1024;
          }
        }
        #make-me-a-hanzi-animation-7 {
          animation: keyframes7 0.8180338541666666s both;
          animation-delay: 5.901204427083334s;
          animation-timing-function: linear;
        }
      
        @keyframes keyframes8 {
          from {
            stroke: blue;
            stroke-dashoffset: 522;
            stroke-width: 128;
          }
          63% {
            animation-timing-function: step-end;
            stroke: blue;
            stroke-dashoffset: 0;
            stroke-width: 128;
          }
          to {
            stroke: black;
            stroke-width: 1024;
          }
        }
        #make-me-a-hanzi-animation-8 {
          animation: keyframes8 0.6748046875s both;
          animation-delay: 6.719238281250001s;
          animation-timing-function: linear;
        }
      
    </style>
    
      <path d="M 299 603 Q 357 619 419 632 Q 458 642 464 649 Q 471 656 467 665 Q 460 675 432 682 Q 402 686 374 674 Q 347 664 322 655 L 270 640 Q 221 628 164 620 Q 128 613 155 598 Q 194 574 249 591 Q 250 592 254 592 L 299 603 Z" fill="lightgray"></path>
    
      <path d="M 377 392 Q 413 401 447 401 Q 475 402 467 416 Q 458 429 442 436 Q 430 440 379 426 L 329 415 Q 286 408 237 398 Q 222 395 220 398 Q 214 411 299 603 L 322 655 Q 367 745 374 752 Q 387 764 371 783 Q 346 810 325 822 Q 312 829 303 827 Q 294 823 300 802 Q 309 763 270 640 L 254 592 Q 212 469 155 400 Q 139 382 143 367 Q 150 348 160 338 Q 170 328 180 333 Q 225 360 328 381 L 377 392 Z" fill="lightgray"></path>
    
      <path d="M 319 234 Q 307 120 299 92 Q 287 58 321 1 Q 331 -18 340 -23 Q 352 -24 357 -11 Q 370 20 368 52 Q 368 161 371 256 L 372 292 Q 372 311 377 392 L 379 426 Q 382 460 386 478 Q 389 491 382 497 Q 358 519 340 529 Q 327 533 318 526 Q 312 522 319 512 Q 328 497 329 415 L 328 381 Q 325 288 322 275 L 319 234 Z" fill="lightgray"></path>
    
      <path d="M 371 256 Q 383 263 399 269 Q 456 296 458 312 Q 452 318 440 315 Q 407 305 372 292 L 322 275 Q 243 253 155 225 Q 136 218 102 219 Q 89 218 87 207 Q 86 194 94 186 Q 116 170 150 151 Q 160 148 172 157 Q 205 182 319 234 L 371 256 Z" fill="lightgray"></path>
    
      <path d="M 632 636 Q 705 658 769 668 Q 788 669 792 664 Q 802 651 796 615 Q 787 515 764 472 Q 746 441 718 444 Q 696 450 675 457 Q 650 464 668 441 Q 708 399 727 368 Q 746 347 763 364 Q 818 403 842 517 Q 863 644 878 665 Q 890 678 884 688 Q 874 700 823 721 Q 802 730 784 716 Q 762 703 676 682 Q 591 658 518 652 Q 500 651 498 642 Q 497 635 520 624 Q 544 609 563 617 Q 578 621 595 626 L 632 636 Z" fill="lightgray"></path>
    
      <path d="M 595 626 Q 604 617 598 591 Q 571 477 477 358 Q 471 354 471 347 Q 472 343 477 343 Q 546 359 641 539 Q 659 575 664 583 Q 670 593 662 606 Q 646 628 632 636 C 608 653 582 653 595 626 Z" fill="lightgray"></path>
    
      <path d="M 549 279 Q 539 286 505 294 Q 493 298 489 293 Q 482 287 490 270 Q 518 198 529 83 Q 530 49 549 24 Q 565 2 571 17 Q 578 33 577 60 L 574 99 Q 559 210 557 246 C 555 276 555 276 549 279 Z" fill="lightgray"></path>
    
      <path d="M 813 129 Q 840 225 878 251 Q 896 270 880 289 Q 864 302 810 329 Q 791 338 769 329 Q 682 298 549 279 C 519 275 527 242 557 246 Q 570 247 586 251 Q 670 264 750 279 Q 771 283 779 274 Q 789 264 787 241 Q 775 181 761 132 C 753 103 805 100 813 129 Z" fill="lightgray"></path>
    
      <path d="M 577 60 Q 584 60 593 61 Q 669 76 833 86 Q 845 87 847 97 Q 848 106 814 129 L 813 129 L 761 132 Q 658 110 574 99 C 544 95 547 59 577 60 Z" fill="lightgray"></path>
    
    
      <clipPath id="make-me-a-hanzi-clip-0">
        <path d="M 299 603 Q 357 619 419 632 Q 458 642 464 649 Q 471 656 467 665 Q 460 675 432 682 Q 402 686 374 674 Q 347 664 322 655 L 270 640 Q 221 628 164 620 Q 128 613 155 598 Q 194 574 249 591 Q 250 592 254 592 L 299 603 Z"></path>
      </clipPath>
      <path clip-path="url(#make-me-a-hanzi-clip-0)" d="M 156 610 L 181 604 L 220 606 L 401 655 L 455 659" fill="none" id="make-me-a-hanzi-animation-0" stroke-dasharray="434 868" stroke-linecap="round"></path>
    
      <clipPath id="make-me-a-hanzi-clip-1">
        <path d="M 377 392 Q 413 401 447 401 Q 475 402 467 416 Q 458 429 442 436 Q 430 440 379 426 L 329 415 Q 286 408 237 398 Q 222 395 220 398 Q 214 411 299 603 L 322 655 Q 367 745 374 752 Q 387 764 371 783 Q 346 810 325 822 Q 312 829 303 827 Q 294 823 300 802 Q 309 763 270 640 L 254 592 Q 212 469 155 400 Q 139 382 143 367 Q 150 348 160 338 Q 170 328 180 333 Q 225 360 328 381 L 377 392 Z"></path>
      </clipPath>
      <path clip-path="url(#make-me-a-hanzi-clip-1)" d="M 308 818 L 337 764 L 268 570 L 195 412 L 187 379 L 226 375 L 414 418 L 436 419 L 455 412" fill="none" id="make-me-a-hanzi-animation-1" stroke-dasharray="878 1756" stroke-linecap="round"></path>
    
      <clipPath id="make-me-a-hanzi-clip-2">
        <path d="M 319 234 Q 307 120 299 92 Q 287 58 321 1 Q 331 -18 340 -23 Q 352 -24 357 -11 Q 370 20 368 52 Q 368 161 371 256 L 372 292 Q 372 311 377 392 L 379 426 Q 382 460 386 478 Q 389 491 382 497 Q 358 519 340 529 Q 327 533 318 526 Q 312 522 319 512 Q 328 497 329 415 L 328 381 Q 325 288 322 275 L 319 234 Z"></path>
      </clipPath>
      <path clip-path="url(#make-me-a-hanzi-clip-2)" d="M 327 520 L 337 513 L 356 479 L 332 73 L 343 -11" fill="none" id="make-me-a-hanzi-animation-2" stroke-dasharray="671 1342" stroke-linecap="round"></path>
    
      <clipPath id="make-me-a-hanzi-clip-3">
        <path d="M 371 256 Q 383 263 399 269 Q 456 296 458 312 Q 452 318 440 315 Q 407 305 372 292 L 322 275 Q 243 253 155 225 Q 136 218 102 219 Q 89 218 87 207 Q 86 194 94 186 Q 116 170 150 151 Q 160 148 172 157 Q 205 182 319 234 L 371 256 Z"></path>
      </clipPath>
      <path clip-path="url(#make-me-a-hanzi-clip-3)" d="M 101 205 L 156 188 L 233 223 L 404 285 L 452 310" fill="none" id="make-me-a-hanzi-animation-3" stroke-dasharray="506 1012" stroke-linecap="round"></path>
    
      <clipPath id="make-me-a-hanzi-clip-4">
        <path d="M 632 636 Q 705 658 769 668 Q 788 669 792 664 Q 802 651 796 615 Q 787 515 764 472 Q 746 441 718 444 Q 696 450 675 457 Q 650 464 668 441 Q 708 399 727 368 Q 746 347 763 364 Q 818 403 842 517 Q 863 644 878 665 Q 890 678 884 688 Q 874 700 823 721 Q 802 730 784 716 Q 762 703 676 682 Q 591 658 518 652 Q 500 651 498 642 Q 497 635 520 624 Q 544 609 563 617 Q 578 621 595 626 L 632 636 Z"></path>
      </clipPath>
      <path clip-path="url(#make-me-a-hanzi-clip-4)" d="M 506 641 L 546 634 L 563 637 L 792 692 L 808 692 L 835 671 L 811 514 L 781 437 L 749 408 L 668 450" fill="none" id="make-me-a-hanzi-animation-4" stroke-dasharray="847 1694" stroke-linecap="round"></path>
    
      <clipPath id="make-me-a-hanzi-clip-5">
        <path d="M 595 626 Q 604 617 598 591 Q 571 477 477 358 Q 471 354 471 347 Q 472 343 477 343 Q 546 359 641 539 Q 659 575 664 583 Q 670 593 662 606 Q 646 628 632 636 C 608 653 582 653 595 626 Z"></path>
      </clipPath>
      <path clip-path="url(#make-me-a-hanzi-clip-5)" d="M 602 625 L 628 605 L 631 593 L 613 540 L 544 418 L 509 376 L 478 351" fill="none" id="make-me-a-hanzi-animation-5" stroke-dasharray="464 928" stroke-linecap="round"></path>
    
      <clipPath id="make-me-a-hanzi-clip-6">
        <path d="M 549 279 Q 539 286 505 294 Q 493 298 489 293 Q 482 287 490 270 Q 518 198 529 83 Q 530 49 549 24 Q 565 2 571 17 Q 578 33 577 60 L 574 99 Q 559 210 557 246 C 555 276 555 276 549 279 Z"></path>
      </clipPath>
      <path clip-path="url(#make-me-a-hanzi-clip-6)" d="M 496 285 L 523 260 L 530 240 L 561 23" fill="none" id="make-me-a-hanzi-animation-6" stroke-dasharray="405 810" stroke-linecap="round"></path>
    
      <clipPath id="make-me-a-hanzi-clip-7">
        <path d="M 813 129 Q 840 225 878 251 Q 896 270 880 289 Q 864 302 810 329 Q 791 338 769 329 Q 682 298 549 279 C 519 275 527 242 557 246 Q 570 247 586 251 Q 670 264 750 279 Q 771 283 779 274 Q 789 264 787 241 Q 775 181 761 132 C 753 103 805 100 813 129 Z"></path>
      </clipPath>
      <path clip-path="url(#make-me-a-hanzi-clip-7)" d="M 558 275 L 570 265 L 771 304 L 804 296 L 830 268 L 794 156 L 768 137" fill="none" id="make-me-a-hanzi-animation-7" stroke-dasharray="570 1140" stroke-linecap="round"></path>
    
      <clipPath id="make-me-a-hanzi-clip-8">
        <path d="M 577 60 Q 584 60 593 61 Q 669 76 833 86 Q 845 87 847 97 Q 848 106 814 129 L 813 129 L 761 132 Q 658 110 574 99 C 544 95 547 59 577 60 Z"></path>
      </clipPath>
      <path clip-path="url(#make-me-a-hanzi-clip-8)" d="M 581 67 L 598 83 L 757 106 L 812 107 L 837 97" fill="none" id="make-me-a-hanzi-animation-8" stroke-dasharray="394 788" stroke-linecap="round"></path>
    
  </g>
</svg>