<svg version="1.1" viewBox="0 0 1024 1024" xmlns="http://www.w3.org/2000/svg">
  <g stroke="lightgray" stroke-dasharray="1,1" stroke-width="1" transform="scale(4, 4)">
    <line x1="0" y1="0" x2="256" y2="256"></line>
    <line x1="256" y1="0" x2="0" y2="256"></line>
    <line x1="128" y1="0" x2="128" y2="256"></line>
    <line x1="0" y1="128" x2="256" y2="128"></line>
  </g>
  <g transform="scale(1, -1) translate(0, -900)">
    <style type="text/css">
      
        @keyframes keyframes0 {
          from {
            stroke: blue;
            stroke-dashoffset: 593;
            stroke-width: 128;
          }
          66% {
            animation-timing-function: step-end;
            stroke: blue;
            stroke-dashoffset: 0;
            stroke-width: 128;
          }
          to {
            stroke: black;
            stroke-width: 1024;
          }
        }
        #make-me-a-hanzi-animation-0 {
          animation: keyframes0 0.7325846354166666s both;
          animation-delay: 0s;
          animation-timing-function: linear;
        }
      
        @keyframes keyframes1 {
          from {
            stroke: blue;
            stroke-dashoffset: 462;
            stroke-width: 128;
          }
          60% {
            animation-timing-function: step-end;
            stroke: blue;
            stroke-dashoffset: 0;
            stroke-width: 128;
          }
          to {
            stroke: black;
            stroke-width: 1024;
          }
        }
        #make-me-a-hanzi-animation-1 {
          animation: keyframes1 0.6259765625s both;
          animation-delay: 0.7325846354166666s;
          animation-timing-function: linear;
        }
      
        @keyframes keyframes2 {
          from {
            stroke: blue;
            stroke-dashoffset: 656;
            stroke-width: 128;
          }
          68% {
            animation-timing-function: step-end;
            stroke: blue;
            stroke-dashoffset: 0;
            stroke-width: 128;
          }
          to {
            stroke: black;
            stroke-width: 1024;
          }
        }
        #make-me-a-hanzi-animation-2 {
          animation: keyframes2 0.7838541666666666s both;
          animation-delay: 1.3585611979166665s;
          animation-timing-function: linear;
        }
      
        @keyframes keyframes3 {
          from {
            stroke: blue;
            stroke-dashoffset: 373;
            stroke-width: 128;
          }
          55% {
            animation-timing-function: step-end;
            stroke: blue;
            stroke-dashoffset: 0;
            stroke-width: 128;
          }
          to {
            stroke: black;
            stroke-width: 1024;
          }
        }
        #make-me-a-hanzi-animation-3 {
          animation: keyframes3 0.5535481770833334s both;
          animation-delay: 2.142415364583333s;
          animation-timing-function: linear;
        }
      
        @keyframes keyframes4 {
          from {
            stroke: blue;
            stroke-dashoffset: 753;
            stroke-width: 128;
          }
          71% {
            animation-timing-function: step-end;
            stroke: blue;
            stroke-dashoffset: 0;
            stroke-width: 128;
          }
          to {
            stroke: black;
            stroke-width: 1024;
          }
        }
        #make-me-a-hanzi-animation-4 {
          animation: keyframes4 0.86279296875s both;
          animation-delay: 2.6959635416666665s;
          animation-timing-function: linear;
        }
      
        @keyframes keyframes5 {
          from {
            stroke: blue;
            stroke-dashoffset: 531;
            stroke-width: 128;
          }
          63% {
            animation-timing-function: step-end;
            stroke: blue;
            stroke-dashoffset: 0;
            stroke-width: 128;
          }
          to {
            stroke: black;
            stroke-width: 1024;
          }
        }
        #make-me-a-hanzi-animation-5 {
          animation: keyframes5 0.68212890625s both;
          animation-delay: 3.5587565104166665s;
          animation-timing-function: linear;
        }
      
        @keyframes keyframes6 {
          from {
            stroke: blue;
            stroke-dashoffset: 423;
            stroke-width: 128;
          }
          58% {
            animation-timing-function: step-end;
            stroke: blue;
            stroke-dashoffset: 0;
            stroke-width: 128;
          }
          to {
            stroke: black;
            stroke-width: 1024;
          }
        }
        #make-me-a-hanzi-animation-6 {
          animation: keyframes6 0.59423828125s both;
          animation-delay: 4.240885416666666s;
          animation-timing-function: linear;
        }
      
        @keyframes keyframes7 {
          from {
            stroke: blue;
            stroke-dashoffset: 524;
            stroke-width: 128;
          }
          63% {
            animation-timing-function: step-end;
            stroke: blue;
            stroke-dashoffset: 0;
            stroke-width: 128;
          }
          to {
            stroke: black;
            stroke-width: 1024;
          }
        }
        #make-me-a-hanzi-animation-7 {
          animation: keyframes7 0.6764322916666666s both;
          animation-delay: 4.835123697916666s;
          animation-timing-function: linear;
        }
      
        @keyframes keyframes8 {
          from {
            stroke: blue;
            stroke-dashoffset: 432;
            stroke-width: 128;
          }
          58% {
            animation-timing-function: step-end;
            stroke: blue;
            stroke-dashoffset: 0;
            stroke-width: 128;
          }
          to {
            stroke: black;
            stroke-width: 1024;
          }
        }
        #make-me-a-hanzi-animation-8 {
          animation: keyframes8 0.6015625s both;
          animation-delay: 5.511555989583333s;
          animation-timing-function: linear;
        }
      
        @keyframes keyframes9 {
          from {
            stroke: blue;
            stroke-dashoffset: 393;
            stroke-width: 128;
          }
          56% {
            animation-timing-function: step-end;
            stroke: blue;
            stroke-dashoffset: 0;
            stroke-width: 128;
          }
          to {
            stroke: black;
            stroke-width: 1024;
          }
        }
        #make-me-a-hanzi-animation-9 {
          animation: keyframes9 0.56982421875s both;
          animation-delay: 6.113118489583333s;
          animation-timing-function: linear;
        }
      
        @keyframes keyframes10 {
          from {
            stroke: blue;
            stroke-dashoffset: 590;
            stroke-width: 128;
          }
          66% {
            animation-timing-function: step-end;
            stroke: blue;
            stroke-dashoffset: 0;
            stroke-width: 128;
          }
          to {
            stroke: black;
            stroke-width: 1024;
          }
        }
        #make-me-a-hanzi-animation-10 {
          animation: keyframes10 0.7301432291666666s both;
          animation-delay: 6.682942708333333s;
          animation-timing-function: linear;
        }
      
        @keyframes keyframes11 {
          from {
            stroke: blue;
            stroke-dashoffset: 352;
            stroke-width: 128;
          }
          53% {
            animation-timing-function: step-end;
            stroke: blue;
            stroke-dashoffset: 0;
            stroke-width: 128;
          }
          to {
            stroke: black;
            stroke-width: 1024;
          }
        }
        #make-me-a-hanzi-animation-11 {
          animation: keyframes11 0.5364583333333334s both;
          animation-delay: 7.4130859375s;
          animation-timing-function: linear;
        }
      
        @keyframes keyframes12 {
          from {
            stroke: blue;
            stroke-dashoffset: 454;
            stroke-width: 128;
          }
          60% {
            animation-timing-function: step-end;
            stroke: blue;
            stroke-dashoffset: 0;
            stroke-width: 128;
          }
          to {
            stroke: black;
            stroke-width: 1024;
          }
        }
        #make-me-a-hanzi-animation-12 {
          animation: keyframes12 0.6194661458333334s both;
          animation-delay: 7.949544270833333s;
          animation-timing-function: linear;
        }
      
        @keyframes keyframes13 {
          from {
            stroke: blue;
            stroke-dashoffset: 743;
            stroke-width: 128;
          }
          71% {
            animation-timing-function: step-end;
            stroke: blue;
            stroke-dashoffset: 0;
            stroke-width: 128;
          }
          to {
            stroke: black;
            stroke-width: 1024;
          }
        }
        #make-me-a-hanzi-animation-13 {
          animation: keyframes13 0.8546549479166666s both;
          animation-delay: 8.569010416666666s;
          animation-timing-function: linear;
        }
      
        @keyframes keyframes14 {
          from {
            stroke: blue;
            stroke-dashoffset: 678;
            stroke-width: 128;
          }
          69% {
            animation-timing-function: step-end;
            stroke: blue;
            stroke-dashoffset: 0;
            stroke-width: 128;
          }
          to {
            stroke: black;
            stroke-width: 1024;
          }
        }
        #make-me-a-hanzi-animation-14 {
          animation: keyframes14 0.8017578125s both;
          animation-delay: 9.423665364583332s;
          animation-timing-function: linear;
        }
      
        @keyframes keyframes15 {
          from {
            stroke: blue;
            stroke-dashoffset: 753;
            stroke-width: 128;
          }
          71% {
            animation-timing-function: step-end;
            stroke: blue;
            stroke-dashoffset: 0;
            stroke-width: 128;
          }
          to {
            stroke: black;
            stroke-width: 1024;
          }
        }
        #make-me-a-hanzi-animation-15 {
          animation: keyframes15 0.86279296875s both;
          animation-delay: 10.225423177083332s;
          animation-timing-function: linear;
        }
      
    </style>
    
      <path d="M 305 596 Q 337 598 364 602 Q 382 605 392 602 C 422 598 426 641 396 641 L 319 641 C 289 641 283 641 274 635 Q 253 619 235 617 Q 224 615 223 622 Q 221 627 226 646 Q 237 686 229 700 Q 229 703 222 710 Q 198 737 180 737 Q 169 738 172 721 Q 180 677 175 650 Q 174 641 172 635 Q 167 617 152 604 Q 143 594 143 582 Q 143 581 143 579 Q 147 570 168 553 Q 171 549 182 551 Q 188 552 193 556 Q 210 570 259 581 L 305 596 Z" fill="lightgray"></path>
    
      <path d="M 392 602 Q 394 590 396 581 Q 404 541 419 557 Q 433 570 457 661 Q 465 690 479 698 Q 488 711 478 726 Q 465 744 435 762 Q 427 767 419 767 Q 405 767 405 751 Q 409 747 416 700 Q 409 662 397 643 Q 396 643 396 641 L 392 602 Z" fill="lightgray"></path>
    
      <path d="M 259 581 Q 250 563 232 539 Q 208 514 184 500 Q 139 474 140 471 Q 143 465 162 471 Q 265 508 305 596 L 319 641 Q 341 696 364 723 Q 374 737 369 741 L 374 753 Q 379 762 362 774 L 330 796 Q 323 800 316 796 Q 301 788 310 774 Q 312 733 274 635 L 259 581 Z" fill="lightgray"></path>
    
      <path d="M 304 453 Q 332 478 345 491 Q 353 501 363 508 Q 386 521 368 536 Q 349 547 332 551 Q 324 553 319 551 Q 310 548 316 539 Q 316 533 314 523 Q 306 500 278 445 C 264 418 282 433 304 453 Z" fill="lightgray"></path>
    
      <path d="M 226 441 Q 200 461 184 463 Q 180 463 176 462 Q 161 456 174 441 Q 216 333 192 122 Q 190 116 181 76 Q 170 27 172 16 Q 174 0 181 -17 Q 194 -45 207 -41 Q 223 -37 237 53 L 239 83 Q 239 90 241 180 L 241 206 L 241 280 L 241 312 Q 241 389 246 411 C 248 425 248 425 226 441 Z" fill="lightgray"></path>
    
      <path d="M 278 445 L 243 437 Q 235 437 226 441 C 198 451 216 407 246 411 Q 255 411 349 433 L 360 433 Q 368 429 368 414 L 368 412 Q 368 367 353 343 C 339 317 389 307 398 335 Q 415 389 443 414 Q 461 429 443 443 Q 387 488 336 466 L 304 453 L 278 445 Z" fill="lightgray"></path>
    
      <path d="M 241 280 L 255 280 L 404 310 Q 415 312 415 319 Q 415 325 398 335 L 353 343 Q 344 343 333 339 Q 280 321 241 312 C 212 305 211 280 241 280 Z" fill="lightgray"></path>
    
      <path d="M 398 110 Q 416 158 441 178 Q 453 188 449 200 Q 449 202 447 203 Q 433 223 385 242 Q 381 243 375 243 Q 361 243 302 221 Q 296 221 241 206 C 212 198 212 174 241 180 L 354 202 Q 367 202 367 180 L 367 178 Q 367 143 351 110 C 339 83 387 82 398 110 Z" fill="lightgray"></path>
    
      <path d="M 237 53 Q 245 51 253 52 Q 373 75 415 75 Q 417 75 420 77 Q 433 86 414 99 L 398 110 C 385 119 380 118 351 110 Q 294 95 239 83 C 210 77 207 58 237 53 Z" fill="lightgray"></path>
    
      <path d="M 612 800 Q 637 780 663 756 Q 678 743 696 744 Q 698 744 701 745 Q 717 753 710 786 Q 707 804 701 812 Q 682 841 606 851 Q 595 853 590 853 Q 577 852 578 837 Q 580 825 612 800 Z" fill="lightgray"></path>
    
      <path d="M 517 645 Q 514 645 511 643 Q 493 637 497 629 Q 500 625 510 620 Q 541 604 582 609 Q 614 613 791 663 Q 810 668 822 673 Q 849 684 845 696 Q 837 710 805 716 Q 788 718 735 702 Q 727 700 710 694 Q 608 659 517 645 Z" fill="lightgray"></path>
    
      <path d="M 581 467 Q 588 465 594 470 Q 608 480 606 499 Q 602 523 579 539 Q 551 564 537 570 L 533 570 Q 523 568 525 555 Q 525 551 534 533 Q 563 474 581 467 Z" fill="lightgray"></path>
    
      <path d="M 704 453 Q 722 478 739 506 Q 764 548 782 568 Q 784 569 784 570 Q 804 588 754 625 Q 741 635 727 631 Q 715 628 718 619 Q 729 582 676 466 Q 669 456 666 445 C 657 417 687 429 704 453 Z" fill="lightgray"></path>
    
      <path d="M 662 409 Q 713 427 898 435 Q 948 439 953 447 Q 955 453 950 460.5 Q 945 468 929 476 Q 882 499 825 482 L 704 453 L 666 445 L 467 406 Q 454 404 458 396 Q 459 394 461 392 Q 474 376 494 373 Q 512 369 528 374 Q 572 390 606 396 L 662 409 Z" fill="lightgray"></path>
    
      <path d="M 684 254 Q 750 265 844 267 Q 890 267 896 274 Q 899 285 885 297 Q 834 329 780 314 L 684 292 L 625 280 Q 558 271 480 256 Q 470 255 469 251 L 472 245 Q 482 231 495 226 Q 512 220 543 227 Q 605 241 625 245 L 684 254 Z" fill="lightgray"></path>
    
      <path d="M 680 141 Q 680 184 684 254 L 684 292 Q 684 331 693 363 Q 697 378 694 383 Q 691 389 662 409 C 638 426 592 422 606 396 Q 624 372 624 303 L 625 280 L 625 245 Q 625 -44 634 -74 L 635 -76 Q 642 -92 651 -90 Q 654 -90 657 -88 Q 680 -62 680 141 Z" fill="lightgray"></path>
    
    
      <clipPath id="make-me-a-hanzi-clip-0">
        <path d="M 305 596 Q 337 598 364 602 Q 382 605 392 602 C 422 598 426 641 396 641 L 319 641 C 289 641 283 641 274 635 Q 253 619 235 617 Q 224 615 223 622 Q 221 627 226 646 Q 237 686 229 700 Q 229 703 222 710 Q 198 737 180 737 Q 169 738 172 721 Q 180 677 175 650 Q 174 641 172 635 Q 167 617 152 604 Q 143 594 143 582 Q 143 581 143 579 Q 147 570 168 553 Q 171 549 182 551 Q 188 552 193 556 Q 210 570 259 581 L 305 596 Z"></path>
      </clipPath>
      <path clip-path="url(#make-me-a-hanzi-clip-0)" d="M 180 727 L 204 690 L 195 599 L 226 595 L 299 617 L 370 621 L 388 635" fill="none" id="make-me-a-hanzi-animation-0" stroke-dasharray="465 930" stroke-linecap="round"></path>
    
      <clipPath id="make-me-a-hanzi-clip-1">
        <path d="M 392 602 Q 394 590 396 581 Q 404 541 419 557 Q 433 570 457 661 Q 465 690 479 698 Q 488 711 478 726 Q 465 744 435 762 Q 427 767 419 767 Q 405 767 405 751 Q 409 747 416 700 Q 409 662 397 643 Q 396 643 396 641 L 392 602 Z"></path>
      </clipPath>
      <path clip-path="url(#make-me-a-hanzi-clip-1)" d="M 417 754 L 446 713 L 419 619 L 411 562" fill="none" id="make-me-a-hanzi-animation-1" stroke-dasharray="334 668" stroke-linecap="round"></path>
    
      <clipPath id="make-me-a-hanzi-clip-2">
        <path d="M 259 581 Q 250 563 232 539 Q 208 514 184 500 Q 139 474 140 471 Q 143 465 162 471 Q 265 508 305 596 L 319 641 Q 341 696 364 723 Q 374 737 369 741 L 374 753 Q 379 762 362 774 L 330 796 Q 323 800 316 796 Q 301 788 310 774 Q 312 733 274 635 L 259 581 Z"></path>
      </clipPath>
      <path clip-path="url(#make-me-a-hanzi-clip-2)" d="M 320 783 L 340 752 L 338 740 L 271 569 L 246 535 L 221 514 L 183 488 L 177 490 L 169 479 L 144 470" fill="none" id="make-me-a-hanzi-animation-2" stroke-dasharray="528 1056" stroke-linecap="round"></path>
    
      <clipPath id="make-me-a-hanzi-clip-3">
        <path d="M 304 453 Q 332 478 345 491 Q 353 501 363 508 Q 386 521 368 536 Q 349 547 332 551 Q 324 553 319 551 Q 310 548 316 539 Q 316 533 314 523 Q 306 500 278 445 C 264 418 282 433 304 453 Z"></path>
      </clipPath>
      <path clip-path="url(#make-me-a-hanzi-clip-3)" d="M 326 543 L 340 522 L 295 458 L 282 454" fill="none" id="make-me-a-hanzi-animation-3" stroke-dasharray="245 490" stroke-linecap="round"></path>
    
      <clipPath id="make-me-a-hanzi-clip-4">
        <path d="M 226 441 Q 200 461 184 463 Q 180 463 176 462 Q 161 456 174 441 Q 216 333 192 122 Q 190 116 181 76 Q 170 27 172 16 Q 174 0 181 -17 Q 194 -45 207 -41 Q 223 -37 237 53 L 239 83 Q 239 90 241 180 L 241 206 L 241 280 L 241 312 Q 241 389 246 411 C 248 425 248 425 226 441 Z"></path>
      </clipPath>
      <path clip-path="url(#make-me-a-hanzi-clip-4)" d="M 179 451 L 195 440 L 213 411 L 220 343 L 220 168 L 201 15 L 204 -31" fill="none" id="make-me-a-hanzi-animation-4" stroke-dasharray="625 1250" stroke-linecap="round"></path>
    
      <clipPath id="make-me-a-hanzi-clip-5">
        <path d="M 278 445 L 243 437 Q 235 437 226 441 C 198 451 216 407 246 411 Q 255 411 349 433 L 360 433 Q 368 429 368 414 L 368 412 Q 368 367 353 343 C 339 317 389 307 398 335 Q 415 389 443 414 Q 461 429 443 443 Q 387 488 336 466 L 304 453 L 278 445 Z"></path>
      </clipPath>
      <path clip-path="url(#make-me-a-hanzi-clip-5)" d="M 238 433 L 253 426 L 361 453 L 393 439 L 403 421 L 383 359 L 361 345" fill="none" id="make-me-a-hanzi-animation-5" stroke-dasharray="403 806" stroke-linecap="round"></path>
    
      <clipPath id="make-me-a-hanzi-clip-6">
        <path d="M 241 280 L 255 280 L 404 310 Q 415 312 415 319 Q 415 325 398 335 L 353 343 Q 344 343 333 339 Q 280 321 241 312 C 212 305 211 280 241 280 Z"></path>
      </clipPath>
      <path clip-path="url(#make-me-a-hanzi-clip-6)" d="M 248 285 L 266 301 L 344 320 L 388 323 L 406 318" fill="none" id="make-me-a-hanzi-animation-6" stroke-dasharray="295 590" stroke-linecap="round"></path>
    
      <clipPath id="make-me-a-hanzi-clip-7">
        <path d="M 398 110 Q 416 158 441 178 Q 453 188 449 200 Q 449 202 447 203 Q 433 223 385 242 Q 381 243 375 243 Q 361 243 302 221 Q 296 221 241 206 C 212 198 212 174 241 180 L 354 202 Q 367 202 367 180 L 367 178 Q 367 143 351 110 C 339 83 387 82 398 110 Z"></path>
      </clipPath>
      <path clip-path="url(#make-me-a-hanzi-clip-7)" d="M 247 187 L 256 199 L 354 221 L 384 215 L 402 189 L 383 132 L 359 114" fill="none" id="make-me-a-hanzi-animation-7" stroke-dasharray="396 792" stroke-linecap="round"></path>
    
      <clipPath id="make-me-a-hanzi-clip-8">
        <path d="M 237 53 Q 245 51 253 52 Q 373 75 415 75 Q 417 75 420 77 Q 433 86 414 99 L 398 110 C 385 119 380 118 351 110 Q 294 95 239 83 C 210 77 207 58 237 53 Z"></path>
      </clipPath>
      <path clip-path="url(#make-me-a-hanzi-clip-8)" d="M 242 60 L 255 69 L 359 91 L 413 87" fill="none" id="make-me-a-hanzi-animation-8" stroke-dasharray="304 608" stroke-linecap="round"></path>
    
      <clipPath id="make-me-a-hanzi-clip-9">
        <path d="M 612 800 Q 637 780 663 756 Q 678 743 696 744 Q 698 744 701 745 Q 717 753 710 786 Q 707 804 701 812 Q 682 841 606 851 Q 595 853 590 853 Q 577 852 578 837 Q 580 825 612 800 Z"></path>
      </clipPath>
      <path clip-path="url(#make-me-a-hanzi-clip-9)" d="M 590 840 L 663 801 L 696 758" fill="none" id="make-me-a-hanzi-animation-9" stroke-dasharray="265 530" stroke-linecap="round"></path>
    
      <clipPath id="make-me-a-hanzi-clip-10">
        <path d="M 517 645 Q 514 645 511 643 Q 493 637 497 629 Q 500 625 510 620 Q 541 604 582 609 Q 614 613 791 663 Q 810 668 822 673 Q 849 684 845 696 Q 837 710 805 716 Q 788 718 735 702 Q 727 700 710 694 Q 608 659 517 645 Z"></path>
      </clipPath>
      <path clip-path="url(#make-me-a-hanzi-clip-10)" d="M 508 631 L 572 631 L 794 691 L 834 693" fill="none" id="make-me-a-hanzi-animation-10" stroke-dasharray="462 924" stroke-linecap="round"></path>
    
      <clipPath id="make-me-a-hanzi-clip-11">
        <path d="M 581 467 Q 588 465 594 470 Q 608 480 606 499 Q 602 523 579 539 Q 551 564 537 570 L 533 570 Q 523 568 525 555 Q 525 551 534 533 Q 563 474 581 467 Z"></path>
      </clipPath>
      <path clip-path="url(#make-me-a-hanzi-clip-11)" d="M 535 560 L 575 510 L 585 480" fill="none" id="make-me-a-hanzi-animation-11" stroke-dasharray="224 448" stroke-linecap="round"></path>
    
      <clipPath id="make-me-a-hanzi-clip-12">
        <path d="M 704 453 Q 722 478 739 506 Q 764 548 782 568 Q 784 569 784 570 Q 804 588 754 625 Q 741 635 727 631 Q 715 628 718 619 Q 729 582 676 466 Q 669 456 666 445 C 657 417 687 429 704 453 Z"></path>
      </clipPath>
      <path clip-path="url(#make-me-a-hanzi-clip-12)" d="M 732 618 L 752 583 L 703 482 L 672 449" fill="none" id="make-me-a-hanzi-animation-12" stroke-dasharray="326 652" stroke-linecap="round"></path>
    
      <clipPath id="make-me-a-hanzi-clip-13">
        <path d="M 662 409 Q 713 427 898 435 Q 948 439 953 447 Q 955 453 950 460.5 Q 945 468 929 476 Q 882 499 825 482 L 704 453 L 666 445 L 467 406 Q 454 404 458 396 Q 459 394 461 392 Q 474 376 494 373 Q 512 369 528 374 Q 572 390 606 396 L 662 409 Z"></path>
      </clipPath>
      <path clip-path="url(#make-me-a-hanzi-clip-13)" d="M 465 398 L 518 394 L 676 431 L 853 461 L 945 452" fill="none" id="make-me-a-hanzi-animation-13" stroke-dasharray="615 1230" stroke-linecap="round"></path>
    
      <clipPath id="make-me-a-hanzi-clip-14">
        <path d="M 684 254 Q 750 265 844 267 Q 890 267 896 274 Q 899 285 885 297 Q 834 329 780 314 L 684 292 L 625 280 Q 558 271 480 256 Q 470 255 469 251 L 472 245 Q 482 231 495 226 Q 512 220 543 227 Q 605 241 625 245 L 684 254 Z"></path>
      </clipPath>
      <path clip-path="url(#make-me-a-hanzi-clip-14)" d="M 476 251 L 496 242 L 520 243 L 793 291 L 842 291 L 890 279" fill="none" id="make-me-a-hanzi-animation-14" stroke-dasharray="550 1100" stroke-linecap="round"></path>
    
      <clipPath id="make-me-a-hanzi-clip-15">
        <path d="M 680 141 Q 680 184 684 254 L 684 292 Q 684 331 693 363 Q 697 378 694 383 Q 691 389 662 409 C 638 426 592 422 606 396 Q 624 372 624 303 L 625 280 L 625 245 Q 625 -44 634 -74 L 635 -76 Q 642 -92 651 -90 Q 654 -90 657 -88 Q 680 -62 680 141 Z"></path>
      </clipPath>
      <path clip-path="url(#make-me-a-hanzi-clip-15)" d="M 614 394 L 656 365 L 651 -81" fill="none" id="make-me-a-hanzi-animation-15" stroke-dasharray="625 1250" stroke-linecap="round"></path>
    
  </g>
</svg>