<svg version="1.1" viewBox="0 0 1024 1024" xmlns="http://www.w3.org/2000/svg">
  <g stroke="lightgray" stroke-dasharray="1,1" stroke-width="1" transform="scale(4, 4)">
    <line x1="0" y1="0" x2="256" y2="256"></line>
    <line x1="256" y1="0" x2="0" y2="256"></line>
    <line x1="128" y1="0" x2="128" y2="256"></line>
    <line x1="0" y1="128" x2="256" y2="128"></line>
  </g>
  <g transform="scale(1, -1) translate(0, -900)">
    <style type="text/css">
      
        @keyframes keyframes0 {
          from {
            stroke: blue;
            stroke-dashoffset: 381;
            stroke-width: 128;
          }
          55% {
            animation-timing-function: step-end;
            stroke: blue;
            stroke-dashoffset: 0;
            stroke-width: 128;
          }
          to {
            stroke: black;
            stroke-width: 1024;
          }
        }
        #make-me-a-hanzi-animation-0 {
          animation: keyframes0 0.56005859375s both;
          animation-delay: 0s;
          animation-timing-function: linear;
        }
      
        @keyframes keyframes1 {
          from {
            stroke: blue;
            stroke-dashoffset: 502;
            stroke-width: 128;
          }
          62% {
            animation-timing-function: step-end;
            stroke: blue;
            stroke-dashoffset: 0;
            stroke-width: 128;
          }
          to {
            stroke: black;
            stroke-width: 1024;
          }
        }
        #make-me-a-hanzi-animation-1 {
          animation: keyframes1 0.6585286458333334s both;
          animation-delay: 0.56005859375s;
          animation-timing-function: linear;
        }
      
        @keyframes keyframes2 {
          from {
            stroke: blue;
            stroke-dashoffset: 660;
            stroke-width: 128;
          }
          68% {
            animation-timing-function: step-end;
            stroke: blue;
            stroke-dashoffset: 0;
            stroke-width: 128;
          }
          to {
            stroke: black;
            stroke-width: 1024;
          }
        }
        #make-me-a-hanzi-animation-2 {
          animation: keyframes2 0.787109375s both;
          animation-delay: 1.2185872395833335s;
          animation-timing-function: linear;
        }
      
        @keyframes keyframes3 {
          from {
            stroke: blue;
            stroke-dashoffset: 587;
            stroke-width: 128;
          }
          66% {
            animation-timing-function: step-end;
            stroke: blue;
            stroke-dashoffset: 0;
            stroke-width: 128;
          }
          to {
            stroke: black;
            stroke-width: 1024;
          }
        }
        #make-me-a-hanzi-animation-3 {
          animation: keyframes3 0.7277018229166666s both;
          animation-delay: 2.0056966145833335s;
          animation-timing-function: linear;
        }
      
        @keyframes keyframes4 {
          from {
            stroke: blue;
            stroke-dashoffset: 508;
            stroke-width: 128;
          }
          62% {
            animation-timing-function: step-end;
            stroke: blue;
            stroke-dashoffset: 0;
            stroke-width: 128;
          }
          to {
            stroke: black;
            stroke-width: 1024;
          }
        }
        #make-me-a-hanzi-animation-4 {
          animation: keyframes4 0.6634114583333334s both;
          animation-delay: 2.7333984375s;
          animation-timing-function: linear;
        }
      
        @keyframes keyframes5 {
          from {
            stroke: blue;
            stroke-dashoffset: 447;
            stroke-width: 128;
          }
          59% {
            animation-timing-function: step-end;
            stroke: blue;
            stroke-dashoffset: 0;
            stroke-width: 128;
          }
          to {
            stroke: black;
            stroke-width: 1024;
          }
        }
        #make-me-a-hanzi-animation-5 {
          animation: keyframes5 0.61376953125s both;
          animation-delay: 3.3968098958333335s;
          animation-timing-function: linear;
        }
      
        @keyframes keyframes6 {
          from {
            stroke: blue;
            stroke-dashoffset: 598;
            stroke-width: 128;
          }
          66% {
            animation-timing-function: step-end;
            stroke: blue;
            stroke-dashoffset: 0;
            stroke-width: 128;
          }
          to {
            stroke: black;
            stroke-width: 1024;
          }
        }
        #make-me-a-hanzi-animation-6 {
          animation: keyframes6 0.7366536458333334s both;
          animation-delay: 4.010579427083334s;
          animation-timing-function: linear;
        }
      
        @keyframes keyframes7 {
          from {
            stroke: blue;
            stroke-dashoffset: 648;
            stroke-width: 128;
          }
          68% {
            animation-timing-function: step-end;
            stroke: blue;
            stroke-dashoffset: 0;
            stroke-width: 128;
          }
          to {
            stroke: black;
            stroke-width: 1024;
          }
        }
        #make-me-a-hanzi-animation-7 {
          animation: keyframes7 0.77734375s both;
          animation-delay: 4.747233072916667s;
          animation-timing-function: linear;
        }
      
        @keyframes keyframes8 {
          from {
            stroke: blue;
            stroke-dashoffset: 596;
            stroke-width: 128;
          }
          66% {
            animation-timing-function: step-end;
            stroke: blue;
            stroke-dashoffset: 0;
            stroke-width: 128;
          }
          to {
            stroke: black;
            stroke-width: 1024;
          }
        }
        #make-me-a-hanzi-animation-8 {
          animation: keyframes8 0.7350260416666666s both;
          animation-delay: 5.524576822916667s;
          animation-timing-function: linear;
        }
      
        @keyframes keyframes9 {
          from {
            stroke: blue;
            stroke-dashoffset: 418;
            stroke-width: 128;
          }
          58% {
            animation-timing-function: step-end;
            stroke: blue;
            stroke-dashoffset: 0;
            stroke-width: 128;
          }
          to {
            stroke: black;
            stroke-width: 1024;
          }
        }
        #make-me-a-hanzi-animation-9 {
          animation: keyframes9 0.5901692708333334s both;
          animation-delay: 6.259602864583334s;
          animation-timing-function: linear;
        }
      
        @keyframes keyframes10 {
          from {
            stroke: blue;
            stroke-dashoffset: 733;
            stroke-width: 128;
          }
          70% {
            animation-timing-function: step-end;
            stroke: blue;
            stroke-dashoffset: 0;
            stroke-width: 128;
          }
          to {
            stroke: black;
            stroke-width: 1024;
          }
        }
        #make-me-a-hanzi-animation-10 {
          animation: keyframes10 0.8465169270833334s both;
          animation-delay: 6.849772135416667s;
          animation-timing-function: linear;
        }
      
        @keyframes keyframes11 {
          from {
            stroke: blue;
            stroke-dashoffset: 1199;
            stroke-width: 128;
          }
          80% {
            animation-timing-function: step-end;
            stroke: blue;
            stroke-dashoffset: 0;
            stroke-width: 128;
          }
          to {
            stroke: black;
            stroke-width: 1024;
          }
        }
        #make-me-a-hanzi-animation-11 {
          animation: keyframes11 1.2257486979166667s both;
          animation-delay: 7.6962890625s;
          animation-timing-function: linear;
        }
      
    </style>
    
      <path d="M 483 728 Q 508 710 534 689 Q 549 679 563 681 Q 573 682 577 696 Q 580 711 568 738 Q 561 754 532 764 Q 463 779 452 771 Q 448 767 450 755 Q 454 745 483 728 Z" fill="lightgray"></path>
    
      <path d="M 484 544 Q 583 575 585 577 Q 592 584 588 593 Q 581 603 551 609 Q 533 610 451 582 Q 361 561 346 557 Q 312 548 338 534 Q 383 516 447 535 L 449 535 L 484 544 Z" fill="lightgray"></path>
    
      <path d="M 497 476 Q 503 470 514 467 Q 538 460 545 444 Q 551 420 494 288 Q 488 282 485 275 Q 467 262 435 269 Q 405 282 402 278 Q 398 271 412 261 Q 439 230 442 209 Q 446 196 455 190 Q 465 186 493 202 Q 535 235 567 348 Q 582 403 601 415 Q 611 418 613 425 Q 614 432 599 455 Q 572 488 537 487 Q 530 490 514 496 C 486 507 472 492 497 476 Z" fill="lightgray"></path>
    
      <path d="M 514 496 Q 520 503 517 513 Q 511 535 484 544 C 456 556 443 561 449 535 Q 464 499 393 388 Q 359 336 313 280 Q 306 273 304 267 Q 301 258 312 261 Q 360 270 476 442 Q 477 451 497 476 L 514 496 Z" fill="lightgray"></path>
    
      <path d="M 685 675 Q 703 705 722 746 Q 729 768 739 780 Q 745 790 739 800 Q 735 809 708 822 Q 684 832 670 829 Q 657 825 666 809 Q 681 788 653 698 Q 638 656 616 609 Q 610 599 609 595 Q 608 585 619 590 Q 634 596 674 656 L 685 675 Z" fill="lightgray"></path>
    
      <path d="M 674 656 Q 675 656 678 654 Q 723 633 773 648 Q 812 657 851 665 Q 870 669 872 673 Q 881 680 876 689 Q 869 699 840 706 Q 810 710 782 697 Q 761 690 740 685 Q 716 679 687 676 Q 684 676 685 675 C 656 668 652 667 674 656 Z" fill="lightgray"></path>
    
      <path d="M 741 431 Q 820 506 853 518 Q 868 524 863 536 Q 859 549 807 575 Q 791 584 704 548 Q 620 533 618 531 Q 599 531 607 516 Q 613 506 628 498 Q 653 485 678 502 Q 691 508 757 539 Q 767 543 776 538 Q 786 532 782 522 Q 757 485 727 438 C 711 413 719 410 741 431 Z" fill="lightgray"></path>
    
      <path d="M 768 394 Q 759 419 741 431 L 727 438 Q 723 441 717 443 Q 699 449 691 443 Q 681 439 692 427 Q 714 411 725 384 L 732 353 Q 744 265 719 222 Q 707 200 679 205 Q 654 209 631 214 Q 621 215 625 207 Q 629 200 644 191 Q 678 163 689 142 Q 698 127 711 130 Q 721 131 744 153 Q 804 216 776 361 L 768 394 Z" fill="lightgray"></path>
    
      <path d="M 776 361 Q 827 370 901 374 Q 940 374 944 383 Q 948 392 935 401 Q 887 428 832 410 Q 804 404 768 394 L 725 384 Q 662 372 592 357 Q 576 356 589 343 Q 599 333 614 330 Q 630 327 642 331 Q 684 346 732 353 L 776 361 Z" fill="lightgray"></path>
    
      <path d="M 211 712 Q 242 684 275 649 Q 290 634 307 634 Q 319 634 325 649 Q 331 665 322 698 Q 316 720 282 739 Q 201 773 184 767 Q 178 763 179 749 Q 183 736 211 712 Z" fill="lightgray"></path>
    
      <path d="M 252 202 Q 252 203 253 203 Q 277 216 283 242 Q 295 284 244 341 Q 211 383 280 462 Q 283 466 286 468 Q 308 487 287 502 Q 266 518 232 531 Q 210 543 171 510 Q 102 468 79 469 Q 72 470 70 464 Q 69 460 77 455 Q 114 440 184 471 Q 193 475 202 464 Q 218 448 204 423 Q 168 381 204 328 Q 240 274 241 243 Q 242 222 238 210 Q 235 206 235 201 C 231 187 231 187 252 202 Z" fill="lightgray"></path>
    
      <path d="M 235 201 Q 190 202 151 192 Q 109 179 80 177 Q 65 177 67 165 Q 71 155 113 129 Q 134 119 164 140 Q 213 185 294 160 Q 429 127 590 46 Q 731 -23 787 -11 Q 871 10 987 74 Q 994 77 992 83 Q 991 87 974 88 Q 629 73 391 166 Q 295 208 252 202 L 235 201 Z" fill="lightgray"></path>
    
    
      <clipPath id="make-me-a-hanzi-clip-0">
        <path d="M 483 728 Q 508 710 534 689 Q 549 679 563 681 Q 573 682 577 696 Q 580 711 568 738 Q 561 754 532 764 Q 463 779 452 771 Q 448 767 450 755 Q 454 745 483 728 Z"></path>
      </clipPath>
      <path clip-path="url(#make-me-a-hanzi-clip-0)" d="M 457 765 L 528 733 L 560 698" fill="none" id="make-me-a-hanzi-animation-0" stroke-dasharray="253 506" stroke-linecap="round"></path>
    
      <clipPath id="make-me-a-hanzi-clip-1">
        <path d="M 484 544 Q 583 575 585 577 Q 592 584 588 593 Q 581 603 551 609 Q 533 610 451 582 Q 361 561 346 557 Q 312 548 338 534 Q 383 516 447 535 L 449 535 L 484 544 Z"></path>
      </clipPath>
      <path clip-path="url(#make-me-a-hanzi-clip-1)" d="M 339 546 L 417 550 L 544 586 L 580 585" fill="none" id="make-me-a-hanzi-animation-1" stroke-dasharray="374 748" stroke-linecap="round"></path>
    
      <clipPath id="make-me-a-hanzi-clip-2">
        <path d="M 497 476 Q 503 470 514 467 Q 538 460 545 444 Q 551 420 494 288 Q 488 282 485 275 Q 467 262 435 269 Q 405 282 402 278 Q 398 271 412 261 Q 439 230 442 209 Q 446 196 455 190 Q 465 186 493 202 Q 535 235 567 348 Q 582 403 601 415 Q 611 418 613 425 Q 614 432 599 455 Q 572 488 537 487 Q 530 490 514 496 C 486 507 472 492 497 476 Z"></path>
      </clipPath>
      <path clip-path="url(#make-me-a-hanzi-clip-2)" d="M 504 478 L 518 480 L 552 467 L 568 453 L 576 433 L 517 279 L 503 255 L 473 232 L 405 274" fill="none" id="make-me-a-hanzi-animation-2" stroke-dasharray="532 1064" stroke-linecap="round"></path>
    
      <clipPath id="make-me-a-hanzi-clip-3">
        <path d="M 514 496 Q 520 503 517 513 Q 511 535 484 544 C 456 556 443 561 449 535 Q 464 499 393 388 Q 359 336 313 280 Q 306 273 304 267 Q 301 258 312 261 Q 360 270 476 442 Q 477 451 497 476 L 514 496 Z"></path>
      </clipPath>
      <path clip-path="url(#make-me-a-hanzi-clip-3)" d="M 456 533 L 482 508 L 452 443 L 392 353 L 344 296 L 313 270" fill="none" id="make-me-a-hanzi-animation-3" stroke-dasharray="459 918" stroke-linecap="round"></path>
    
      <clipPath id="make-me-a-hanzi-clip-4">
        <path d="M 685 675 Q 703 705 722 746 Q 729 768 739 780 Q 745 790 739 800 Q 735 809 708 822 Q 684 832 670 829 Q 657 825 666 809 Q 681 788 653 698 Q 638 656 616 609 Q 610 599 609 595 Q 608 585 619 590 Q 634 596 674 656 L 685 675 Z"></path>
      </clipPath>
      <path clip-path="url(#make-me-a-hanzi-clip-4)" d="M 673 818 L 702 792 L 698 763 L 656 655 L 617 599" fill="none" id="make-me-a-hanzi-animation-4" stroke-dasharray="380 760" stroke-linecap="round"></path>
    
      <clipPath id="make-me-a-hanzi-clip-5">
        <path d="M 674 656 Q 675 656 678 654 Q 723 633 773 648 Q 812 657 851 665 Q 870 669 872 673 Q 881 680 876 689 Q 869 699 840 706 Q 810 710 782 697 Q 761 690 740 685 Q 716 679 687 676 Q 684 676 685 675 C 656 668 652 667 674 656 Z"></path>
      </clipPath>
      <path clip-path="url(#make-me-a-hanzi-clip-5)" d="M 678 660 L 746 664 L 831 685 L 866 683" fill="none" id="make-me-a-hanzi-animation-5" stroke-dasharray="319 638" stroke-linecap="round"></path>
    
      <clipPath id="make-me-a-hanzi-clip-6">
        <path d="M 741 431 Q 820 506 853 518 Q 868 524 863 536 Q 859 549 807 575 Q 791 584 704 548 Q 620 533 618 531 Q 599 531 607 516 Q 613 506 628 498 Q 653 485 678 502 Q 691 508 757 539 Q 767 543 776 538 Q 786 532 782 522 Q 757 485 727 438 C 711 413 719 410 741 431 Z"></path>
      </clipPath>
      <path clip-path="url(#make-me-a-hanzi-clip-6)" d="M 614 522 L 631 516 L 662 517 L 761 555 L 790 555 L 805 547 L 814 532 L 806 518 L 747 453 L 746 443 L 737 441" fill="none" id="make-me-a-hanzi-animation-6" stroke-dasharray="470 940" stroke-linecap="round"></path>
    
      <clipPath id="make-me-a-hanzi-clip-7">
        <path d="M 768 394 Q 759 419 741 431 L 727 438 Q 723 441 717 443 Q 699 449 691 443 Q 681 439 692 427 Q 714 411 725 384 L 732 353 Q 744 265 719 222 Q 707 200 679 205 Q 654 209 631 214 Q 621 215 625 207 Q 629 200 644 191 Q 678 163 689 142 Q 698 127 711 130 Q 721 131 744 153 Q 804 216 776 361 L 768 394 Z"></path>
      </clipPath>
      <path clip-path="url(#make-me-a-hanzi-clip-7)" d="M 695 435 L 726 419 L 746 393 L 760 291 L 751 222 L 736 193 L 713 172 L 632 207" fill="none" id="make-me-a-hanzi-animation-7" stroke-dasharray="520 1040" stroke-linecap="round"></path>
    
      <clipPath id="make-me-a-hanzi-clip-8">
        <path d="M 776 361 Q 827 370 901 374 Q 940 374 944 383 Q 948 392 935 401 Q 887 428 832 410 Q 804 404 768 394 L 725 384 Q 662 372 592 357 Q 576 356 589 343 Q 599 333 614 330 Q 630 327 642 331 Q 684 346 732 353 L 776 361 Z"></path>
      </clipPath>
      <path clip-path="url(#make-me-a-hanzi-clip-8)" d="M 601 348 L 644 349 L 859 394 L 896 395 L 936 387" fill="none" id="make-me-a-hanzi-animation-8" stroke-dasharray="468 936" stroke-linecap="round"></path>
    
      <clipPath id="make-me-a-hanzi-clip-9">
        <path d="M 211 712 Q 242 684 275 649 Q 290 634 307 634 Q 319 634 325 649 Q 331 665 322 698 Q 316 720 282 739 Q 201 773 184 767 Q 178 763 179 749 Q 183 736 211 712 Z"></path>
      </clipPath>
      <path clip-path="url(#make-me-a-hanzi-clip-9)" d="M 188 760 L 280 697 L 306 654" fill="none" id="make-me-a-hanzi-animation-9" stroke-dasharray="290 580" stroke-linecap="round"></path>
    
      <clipPath id="make-me-a-hanzi-clip-10">
        <path d="M 252 202 Q 252 203 253 203 Q 277 216 283 242 Q 295 284 244 341 Q 211 383 280 462 Q 283 466 286 468 Q 308 487 287 502 Q 266 518 232 531 Q 210 543 171 510 Q 102 468 79 469 Q 72 470 70 464 Q 69 460 77 455 Q 114 440 184 471 Q 193 475 202 464 Q 218 448 204 423 Q 168 381 204 328 Q 240 274 241 243 Q 242 222 238 210 Q 235 206 235 201 C 231 187 231 187 252 202 Z"></path>
      </clipPath>
      <path clip-path="url(#make-me-a-hanzi-clip-10)" d="M 77 462 L 107 462 L 208 499 L 241 481 L 236 447 L 210 383 L 216 346 L 245 305 L 262 260 L 260 234 L 252 216 L 239 205" fill="none" id="make-me-a-hanzi-animation-10" stroke-dasharray="605 1210" stroke-linecap="round"></path>
    
      <clipPath id="make-me-a-hanzi-clip-11">
        <path d="M 235 201 Q 190 202 151 192 Q 109 179 80 177 Q 65 177 67 165 Q 71 155 113 129 Q 134 119 164 140 Q 213 185 294 160 Q 429 127 590 46 Q 731 -23 787 -11 Q 871 10 987 74 Q 994 77 992 83 Q 991 87 974 88 Q 629 73 391 166 Q 295 208 252 202 L 235 201 Z"></path>
      </clipPath>
      <path clip-path="url(#make-me-a-hanzi-clip-11)" d="M 77 167 L 128 155 L 187 179 L 228 186 L 278 184 L 355 163 L 615 71 L 757 39 L 830 45 L 987 80" fill="none" id="make-me-a-hanzi-animation-11" stroke-dasharray="1071 2142" stroke-linecap="round"></path>
    
  </g>
</svg>