<svg version="1.1" viewBox="0 0 1024 1024" xmlns="http://www.w3.org/2000/svg">
  <g stroke="lightgray" stroke-dasharray="1,1" stroke-width="1" transform="scale(4, 4)">
    <line x1="0" y1="0" x2="256" y2="256"></line>
    <line x1="256" y1="0" x2="0" y2="256"></line>
    <line x1="128" y1="0" x2="128" y2="256"></line>
    <line x1="0" y1="128" x2="256" y2="128"></line>
  </g>
  <g transform="scale(1, -1) translate(0, -900)">
    <style type="text/css">
      
        @keyframes keyframes0 {
          from {
            stroke: blue;
            stroke-dashoffset: 435;
            stroke-width: 128;
          }
          59% {
            animation-timing-function: step-end;
            stroke: blue;
            stroke-dashoffset: 0;
            stroke-width: 128;
          }
          to {
            stroke: black;
            stroke-width: 1024;
          }
        }
        #make-me-a-hanzi-animation-0 {
          animation: keyframes0 0.60400390625s both;
          animation-delay: 0s;
          animation-timing-function: linear;
        }
      
        @keyframes keyframes1 {
          from {
            stroke: blue;
            stroke-dashoffset: 616;
            stroke-width: 128;
          }
          67% {
            animation-timing-function: step-end;
            stroke: blue;
            stroke-dashoffset: 0;
            stroke-width: 128;
          }
          to {
            stroke: black;
            stroke-width: 1024;
          }
        }
        #make-me-a-hanzi-animation-1 {
          animation: keyframes1 0.7513020833333334s both;
          animation-delay: 0.60400390625s;
          animation-timing-function: linear;
        }
      
        @keyframes keyframes2 {
          from {
            stroke: blue;
            stroke-dashoffset: 368;
            stroke-width: 128;
          }
          55% {
            animation-timing-function: step-end;
            stroke: blue;
            stroke-dashoffset: 0;
            stroke-width: 128;
          }
          to {
            stroke: black;
            stroke-width: 1024;
          }
        }
        #make-me-a-hanzi-animation-2 {
          animation: keyframes2 0.5494791666666666s both;
          animation-delay: 1.3553059895833335s;
          animation-timing-function: linear;
        }
      
        @keyframes keyframes3 {
          from {
            stroke: blue;
            stroke-dashoffset: 835;
            stroke-width: 128;
          }
          73% {
            animation-timing-function: step-end;
            stroke: blue;
            stroke-dashoffset: 0;
            stroke-width: 128;
          }
          to {
            stroke: black;
            stroke-width: 1024;
          }
        }
        #make-me-a-hanzi-animation-3 {
          animation: keyframes3 0.9295247395833334s both;
          animation-delay: 1.90478515625s;
          animation-timing-function: linear;
        }
      
        @keyframes keyframes4 {
          from {
            stroke: blue;
            stroke-dashoffset: 521;
            stroke-width: 128;
          }
          63% {
            animation-timing-function: step-end;
            stroke: blue;
            stroke-dashoffset: 0;
            stroke-width: 128;
          }
          to {
            stroke: black;
            stroke-width: 1024;
          }
        }
        #make-me-a-hanzi-animation-4 {
          animation: keyframes4 0.6739908854166666s both;
          animation-delay: 2.8343098958333335s;
          animation-timing-function: linear;
        }
      
        @keyframes keyframes5 {
          from {
            stroke: blue;
            stroke-dashoffset: 515;
            stroke-width: 128;
          }
          63% {
            animation-timing-function: step-end;
            stroke: blue;
            stroke-dashoffset: 0;
            stroke-width: 128;
          }
          to {
            stroke: black;
            stroke-width: 1024;
          }
        }
        #make-me-a-hanzi-animation-5 {
          animation: keyframes5 0.6691080729166666s both;
          animation-delay: 3.50830078125s;
          animation-timing-function: linear;
        }
      
        @keyframes keyframes6 {
          from {
            stroke: blue;
            stroke-dashoffset: 850;
            stroke-width: 128;
          }
          73% {
            animation-timing-function: step-end;
            stroke: blue;
            stroke-dashoffset: 0;
            stroke-width: 128;
          }
          to {
            stroke: black;
            stroke-width: 1024;
          }
        }
        #make-me-a-hanzi-animation-6 {
          animation: keyframes6 0.9417317708333334s both;
          animation-delay: 4.177408854166667s;
          animation-timing-function: linear;
        }
      
        @keyframes keyframes7 {
          from {
            stroke: blue;
            stroke-dashoffset: 433;
            stroke-width: 128;
          }
          58% {
            animation-timing-function: step-end;
            stroke: blue;
            stroke-dashoffset: 0;
            stroke-width: 128;
          }
          to {
            stroke: black;
            stroke-width: 1024;
          }
        }
        #make-me-a-hanzi-animation-7 {
          animation: keyframes7 0.6023763020833334s both;
          animation-delay: 5.119140625s;
          animation-timing-function: linear;
        }
      
        @keyframes keyframes8 {
          from {
            stroke: blue;
            stroke-dashoffset: 444;
            stroke-width: 128;
          }
          59% {
            animation-timing-function: step-end;
            stroke: blue;
            stroke-dashoffset: 0;
            stroke-width: 128;
          }
          to {
            stroke: black;
            stroke-width: 1024;
          }
        }
        #make-me-a-hanzi-animation-8 {
          animation: keyframes8 0.611328125s both;
          animation-delay: 5.721516927083333s;
          animation-timing-function: linear;
        }
      
        @keyframes keyframes9 {
          from {
            stroke: blue;
            stroke-dashoffset: 475;
            stroke-width: 128;
          }
          61% {
            animation-timing-function: step-end;
            stroke: blue;
            stroke-dashoffset: 0;
            stroke-width: 128;
          }
          to {
            stroke: black;
            stroke-width: 1024;
          }
        }
        #make-me-a-hanzi-animation-9 {
          animation: keyframes9 0.6365559895833334s both;
          animation-delay: 6.332845052083333s;
          animation-timing-function: linear;
        }
      
        @keyframes keyframes10 {
          from {
            stroke: blue;
            stroke-dashoffset: 407;
            stroke-width: 128;
          }
          57% {
            animation-timing-function: step-end;
            stroke: blue;
            stroke-dashoffset: 0;
            stroke-width: 128;
          }
          to {
            stroke: black;
            stroke-width: 1024;
          }
        }
        #make-me-a-hanzi-animation-10 {
          animation: keyframes10 0.5812174479166666s both;
          animation-delay: 6.969401041666666s;
          animation-timing-function: linear;
        }
      
        @keyframes keyframes11 {
          from {
            stroke: blue;
            stroke-dashoffset: 757;
            stroke-width: 128;
          }
          71% {
            animation-timing-function: step-end;
            stroke: blue;
            stroke-dashoffset: 0;
            stroke-width: 128;
          }
          to {
            stroke: black;
            stroke-width: 1024;
          }
        }
        #make-me-a-hanzi-animation-11 {
          animation: keyframes11 0.8660481770833334s both;
          animation-delay: 7.550618489583333s;
          animation-timing-function: linear;
        }
      
        @keyframes keyframes12 {
          from {
            stroke: blue;
            stroke-dashoffset: 1122;
            stroke-width: 128;
          }
          79% {
            animation-timing-function: step-end;
            stroke: blue;
            stroke-dashoffset: 0;
            stroke-width: 128;
          }
          to {
            stroke: black;
            stroke-width: 1024;
          }
        }
        #make-me-a-hanzi-animation-12 {
          animation: keyframes12 1.1630859375s both;
          animation-delay: 8.416666666666666s;
          animation-timing-function: linear;
        }
      
    </style>
    
      <path d="M 437 693 Q 497 727 535 753 Q 553 766 576 776 Q 597 785 587 802 Q 575 818 551 833 Q 529 846 517 844 Q 505 843 508 830 Q 509 809 445 732 Q 435 722 425 709 C 406 685 411 678 437 693 Z" fill="lightgray"></path>
    
      <path d="M 536 593 Q 511 580 455 541 Q 448 537 444 539 Q 441 540 442 548 Q 438 651 437 693 C 437 703 437 703 425 709 Q 416 716 385 724 Q 372 725 367 721 Q 363 715 372 701 Q 411 658 396 554 Q 392 524 364 488 Q 354 478 362 461 Q 369 439 382 429 Q 392 422 402 435 Q 436 483 545 580 C 567 600 562 608 536 593 Z" fill="lightgray"></path>
    
      <path d="M 545 580 Q 566 543 581 539 Q 588 538 594 545 Q 600 554 599 575 Q 596 602 526 646 Q 517 650 512 650 Q 508 649 507 640 Q 507 633 536 593 L 545 580 Z" fill="lightgray"></path>
    
      <path d="M 694 704 Q 749 720 795 726 Q 808 727 811 724 Q 818 714 814 685 Q 807 607 788 573 Q 772 545 746 550 Q 727 554 710 561 Q 688 568 703 546 Q 737 509 752 480 Q 767 462 782 476 Q 839 509 867 665 Q 874 704 889 722 Q 901 734 895 744 Q 886 754 839 775 Q 821 784 803 772 Q 787 762 723 747 Q 660 731 606 727 Q 590 726 588 718 Q 587 711 608 700 Q 626 690 663 696 L 694 704 Z" fill="lightgray"></path>
    
      <path d="M 663 696 Q 673 656 623 563 Q 601 521 568 479 Q 564 475 564 470 Q 564 466 569 467 Q 624 485 698 623 Q 701 641 719 664 Q 723 673 716 682 Q 704 698 694 704 C 670 722 658 726 663 696 Z" fill="lightgray"></path>
    
      <path d="M 448 396 Q 438 400 413 404 Q 403 408 399 403 Q 393 397 401 382 Q 431 315 448 209 Q 451 176 469 155 Q 485 134 490 149 Q 491 156 493 163 L 494 189 Q 493 202 490 219 Q 471 328 466 364 C 462 392 462 392 448 396 Z" fill="lightgray"></path>
    
      <path d="M 709 182 Q 725 157 741 149 Q 751 142 766 162 Q 781 187 811 322 Q 820 353 843 377 Q 856 390 845 403 Q 830 419 788 446 Q 770 456 709 440 Q 678 439 546 413 Q 494 403 448 396 C 418 391 437 356 466 364 Q 509 376 571 386 L 610 392 Q 736 413 750 399 Q 763 383 760 368 Q 736 229 719 211 C 706 186 706 186 709 182 Z" fill="lightgray"></path>
    
      <path d="M 624 285 Q 657 292 687 295 Q 709 299 701 312 Q 691 327 665 331 Q 649 332 626 328 L 579 313 Q 543 303 515 293 Q 499 289 519 275 Q 526 269 544 272 Q 560 276 580 278 L 624 285 Z" fill="lightgray"></path>
    
      <path d="M 620 209 Q 621 249 624 285 L 626 328 Q 626 344 628 355 Q 634 373 610 392 C 587 411 564 415 571 386 Q 575 374 579 313 L 580 278 Q 580 248 582 203 C 583 173 619 179 620 209 Z" fill="lightgray"></path>
    
      <path d="M 493 163 Q 496 163 606 173 Q 610 174 615 173 Q 616 174 619 173 L 619 174 Q 665 181 709 182 C 739 183 744 195 719 211 Q 715 215 706 217 Q 669 226 620 209 L 582 203 Q 536 197 494 189 C 465 183 463 161 493 163 Z" fill="lightgray"></path>
    
      <path d="M 201 701 Q 229 677 261 649 Q 277 634 295 636 Q 307 637 312 652 Q 316 670 305 703 Q 293 734 193 755 Q 175 759 168 755 Q 162 751 165 736 Q 169 723 201 701 Z" fill="lightgray"></path>
    
      <path d="M 275 175 Q 288 185 295 202 Q 307 244 264 309 Q 233 366 298 446 Q 301 452 307 457 Q 328 476 309 491 Q 288 507 254 521 Q 233 533 198 505 Q 114 462 88 466 Q 81 466 79 461 Q 78 457 85 452 Q 121 434 203 462 Q 213 465 223 452 Q 244 433 225 404 Q 183 358 218 305 Q 257 244 256 210 Q 256 192 249 176 C 240 147 254 154 275 175 Z" fill="lightgray"></path>
    
      <path d="M 249 176 Q 209 176 168 162 Q 134 149 83 145 Q 76 145 73 137 Q 70 130 79 120 Q 95 101 120 90 Q 132 83 150 98 Q 213 147 285 134 Q 354 121 493 64 Q 736 -39 817 -7 Q 878 15 931 55 Q 953 71 929 70 Q 701 61 547 98 Q 462 120 357 156 Q 317 172 275 175 L 249 176 Z" fill="lightgray"></path>
    
    
      <clipPath id="make-me-a-hanzi-clip-0">
        <path d="M 437 693 Q 497 727 535 753 Q 553 766 576 776 Q 597 785 587 802 Q 575 818 551 833 Q 529 846 517 844 Q 505 843 508 830 Q 509 809 445 732 Q 435 722 425 709 C 406 685 411 678 437 693 Z"></path>
      </clipPath>
      <path clip-path="url(#make-me-a-hanzi-clip-0)" d="M 517 834 L 537 798 L 441 710 L 441 702" fill="none" id="make-me-a-hanzi-animation-0" stroke-dasharray="307 614" stroke-linecap="round"></path>
    
      <clipPath id="make-me-a-hanzi-clip-1">
        <path d="M 536 593 Q 511 580 455 541 Q 448 537 444 539 Q 441 540 442 548 Q 438 651 437 693 C 437 703 437 703 425 709 Q 416 716 385 724 Q 372 725 367 721 Q 363 715 372 701 Q 411 658 396 554 Q 392 524 364 488 Q 354 478 362 461 Q 369 439 382 429 Q 392 422 402 435 Q 436 483 545 580 C 567 600 562 608 536 593 Z"></path>
      </clipPath>
      <path clip-path="url(#make-me-a-hanzi-clip-1)" d="M 373 716 L 412 684 L 421 612 L 421 512 L 453 520 L 536 583" fill="none" id="make-me-a-hanzi-animation-1" stroke-dasharray="488 976" stroke-linecap="round"></path>
    
      <clipPath id="make-me-a-hanzi-clip-2">
        <path d="M 545 580 Q 566 543 581 539 Q 588 538 594 545 Q 600 554 599 575 Q 596 602 526 646 Q 517 650 512 650 Q 508 649 507 640 Q 507 633 536 593 L 545 580 Z"></path>
      </clipPath>
      <path clip-path="url(#make-me-a-hanzi-clip-2)" d="M 517 641 L 564 591 L 583 552" fill="none" id="make-me-a-hanzi-animation-2" stroke-dasharray="240 480" stroke-linecap="round"></path>
    
      <clipPath id="make-me-a-hanzi-clip-3">
        <path d="M 694 704 Q 749 720 795 726 Q 808 727 811 724 Q 818 714 814 685 Q 807 607 788 573 Q 772 545 746 550 Q 727 554 710 561 Q 688 568 703 546 Q 737 509 752 480 Q 767 462 782 476 Q 839 509 867 665 Q 874 704 889 722 Q 901 734 895 744 Q 886 754 839 775 Q 821 784 803 772 Q 787 762 723 747 Q 660 731 606 727 Q 590 726 588 718 Q 587 711 608 700 Q 626 690 663 696 L 694 704 Z"></path>
      </clipPath>
      <path clip-path="url(#make-me-a-hanzi-clip-3)" d="M 595 717 L 652 713 L 817 750 L 835 744 L 849 729 L 826 597 L 792 530 L 773 515 L 704 555" fill="none" id="make-me-a-hanzi-animation-3" stroke-dasharray="707 1414" stroke-linecap="round"></path>
    
      <clipPath id="make-me-a-hanzi-clip-4">
        <path d="M 663 696 Q 673 656 623 563 Q 601 521 568 479 Q 564 475 564 470 Q 564 466 569 467 Q 624 485 698 623 Q 701 641 719 664 Q 723 673 716 682 Q 704 698 694 704 C 670 722 658 726 663 696 Z"></path>
      </clipPath>
      <path clip-path="url(#make-me-a-hanzi-clip-4)" d="M 670 692 L 691 670 L 679 635 L 627 537 L 569 473" fill="none" id="make-me-a-hanzi-animation-4" stroke-dasharray="393 786" stroke-linecap="round"></path>
    
      <clipPath id="make-me-a-hanzi-clip-5">
        <path d="M 448 396 Q 438 400 413 404 Q 403 408 399 403 Q 393 397 401 382 Q 431 315 448 209 Q 451 176 469 155 Q 485 134 490 149 Q 491 156 493 163 L 494 189 Q 493 202 490 219 Q 471 328 466 364 C 462 392 462 392 448 396 Z"></path>
      </clipPath>
      <path clip-path="url(#make-me-a-hanzi-clip-5)" d="M 407 396 L 429 378 L 440 356 L 480 154" fill="none" id="make-me-a-hanzi-animation-5" stroke-dasharray="387 774" stroke-linecap="round"></path>
    
      <clipPath id="make-me-a-hanzi-clip-6">
        <path d="M 709 182 Q 725 157 741 149 Q 751 142 766 162 Q 781 187 811 322 Q 820 353 843 377 Q 856 390 845 403 Q 830 419 788 446 Q 770 456 709 440 Q 678 439 546 413 Q 494 403 448 396 C 418 391 437 356 466 364 Q 509 376 571 386 L 610 392 Q 736 413 750 399 Q 763 383 760 368 Q 736 229 719 211 C 706 186 706 186 709 182 Z"></path>
      </clipPath>
      <path clip-path="url(#make-me-a-hanzi-clip-6)" d="M 455 393 L 474 384 L 655 417 L 724 425 L 774 419 L 800 389 L 762 237 L 745 194 L 747 168" fill="none" id="make-me-a-hanzi-animation-6" stroke-dasharray="722 1444" stroke-linecap="round"></path>
    
      <clipPath id="make-me-a-hanzi-clip-7">
        <path d="M 624 285 Q 657 292 687 295 Q 709 299 701 312 Q 691 327 665 331 Q 649 332 626 328 L 579 313 Q 543 303 515 293 Q 499 289 519 275 Q 526 269 544 272 Q 560 276 580 278 L 624 285 Z"></path>
      </clipPath>
      <path clip-path="url(#make-me-a-hanzi-clip-7)" d="M 517 284 L 649 311 L 691 306" fill="none" id="make-me-a-hanzi-animation-7" stroke-dasharray="305 610" stroke-linecap="round"></path>
    
      <clipPath id="make-me-a-hanzi-clip-8">
        <path d="M 620 209 Q 621 249 624 285 L 626 328 Q 626 344 628 355 Q 634 373 610 392 C 587 411 564 415 571 386 Q 575 374 579 313 L 580 278 Q 580 248 582 203 C 583 173 619 179 620 209 Z"></path>
      </clipPath>
      <path clip-path="url(#make-me-a-hanzi-clip-8)" d="M 578 384 L 602 362 L 601 226 L 587 212" fill="none" id="make-me-a-hanzi-animation-8" stroke-dasharray="316 632" stroke-linecap="round"></path>
    
      <clipPath id="make-me-a-hanzi-clip-9">
        <path d="M 493 163 Q 496 163 606 173 Q 610 174 615 173 Q 616 174 619 173 L 619 174 Q 665 181 709 182 C 739 183 744 195 719 211 Q 715 215 706 217 Q 669 226 620 209 L 582 203 Q 536 197 494 189 C 465 183 463 161 493 163 Z"></path>
      </clipPath>
      <path clip-path="url(#make-me-a-hanzi-clip-9)" d="M 494 169 L 518 180 L 592 186 L 709 206" fill="none" id="make-me-a-hanzi-animation-9" stroke-dasharray="347 694" stroke-linecap="round"></path>
    
      <clipPath id="make-me-a-hanzi-clip-10">
        <path d="M 201 701 Q 229 677 261 649 Q 277 634 295 636 Q 307 637 312 652 Q 316 670 305 703 Q 293 734 193 755 Q 175 759 168 755 Q 162 751 165 736 Q 169 723 201 701 Z"></path>
      </clipPath>
      <path clip-path="url(#make-me-a-hanzi-clip-10)" d="M 175 747 L 268 692 L 292 656" fill="none" id="make-me-a-hanzi-animation-10" stroke-dasharray="279 558" stroke-linecap="round"></path>
    
      <clipPath id="make-me-a-hanzi-clip-11">
        <path d="M 275 175 Q 288 185 295 202 Q 307 244 264 309 Q 233 366 298 446 Q 301 452 307 457 Q 328 476 309 491 Q 288 507 254 521 Q 233 533 198 505 Q 114 462 88 466 Q 81 466 79 461 Q 78 457 85 452 Q 121 434 203 462 Q 213 465 223 452 Q 244 433 225 404 Q 183 358 218 305 Q 257 244 256 210 Q 256 192 249 176 C 240 147 254 154 275 175 Z"></path>
      </clipPath>
      <path clip-path="url(#make-me-a-hanzi-clip-11)" d="M 86 459 L 126 459 L 222 489 L 239 487 L 263 470 L 253 412 L 228 354 L 234 323 L 268 258 L 277 221 L 273 197 L 256 180" fill="none" id="make-me-a-hanzi-animation-11" stroke-dasharray="629 1258" stroke-linecap="round"></path>
    
      <clipPath id="make-me-a-hanzi-clip-12">
        <path d="M 249 176 Q 209 176 168 162 Q 134 149 83 145 Q 76 145 73 137 Q 70 130 79 120 Q 95 101 120 90 Q 132 83 150 98 Q 213 147 285 134 Q 354 121 493 64 Q 736 -39 817 -7 Q 878 15 931 55 Q 953 71 929 70 Q 701 61 547 98 Q 462 120 357 156 Q 317 172 275 175 L 249 176 Z"></path>
      </clipPath>
      <path clip-path="url(#make-me-a-hanzi-clip-12)" d="M 84 133 L 128 120 L 218 154 L 294 153 L 579 60 L 718 31 L 800 29 L 891 49 L 920 61" fill="none" id="make-me-a-hanzi-animation-12" stroke-dasharray="994 1988" stroke-linecap="round"></path>
    
  </g>
</svg>