<svg version="1.1" viewBox="0 0 1024 1024" xmlns="http://www.w3.org/2000/svg">
  <g stroke="lightgray" stroke-dasharray="1,1" stroke-width="1" transform="scale(4, 4)">
    <line x1="0" y1="0" x2="256" y2="256"></line>
    <line x1="256" y1="0" x2="0" y2="256"></line>
    <line x1="128" y1="0" x2="128" y2="256"></line>
    <line x1="0" y1="128" x2="256" y2="128"></line>
  </g>
  <g transform="scale(1, -1) translate(0, -900)">
    <style type="text/css">
      
        @keyframes keyframes0 {
          from {
            stroke: blue;
            stroke-dashoffset: 467;
            stroke-width: 128;
          }
          60% {
            animation-timing-function: step-end;
            stroke: blue;
            stroke-dashoffset: 0;
            stroke-width: 128;
          }
          to {
            stroke: black;
            stroke-width: 1024;
          }
        }
        #make-me-a-hanzi-animation-0 {
          animation: keyframes0 0.6300455729166666s both;
          animation-delay: 0s;
          animation-timing-function: linear;
        }
      
        @keyframes keyframes1 {
          from {
            stroke: blue;
            stroke-dashoffset: 398;
            stroke-width: 128;
          }
          56% {
            animation-timing-function: step-end;
            stroke: blue;
            stroke-dashoffset: 0;
            stroke-width: 128;
          }
          to {
            stroke: black;
            stroke-width: 1024;
          }
        }
        #make-me-a-hanzi-animation-1 {
          animation: keyframes1 0.5738932291666666s both;
          animation-delay: 0.6300455729166666s;
          animation-timing-function: linear;
        }
      
        @keyframes keyframes2 {
          from {
            stroke: blue;
            stroke-dashoffset: 703;
            stroke-width: 128;
          }
          70% {
            animation-timing-function: step-end;
            stroke: blue;
            stroke-dashoffset: 0;
            stroke-width: 128;
          }
          to {
            stroke: black;
            stroke-width: 1024;
          }
        }
        #make-me-a-hanzi-animation-2 {
          animation: keyframes2 0.8221028645833334s both;
          animation-delay: 1.2039388020833333s;
          animation-timing-function: linear;
        }
      
        @keyframes keyframes3 {
          from {
            stroke: blue;
            stroke-dashoffset: 469;
            stroke-width: 128;
          }
          60% {
            animation-timing-function: step-end;
            stroke: blue;
            stroke-dashoffset: 0;
            stroke-width: 128;
          }
          to {
            stroke: black;
            stroke-width: 1024;
          }
        }
        #make-me-a-hanzi-animation-3 {
          animation: keyframes3 0.6316731770833334s both;
          animation-delay: 2.0260416666666665s;
          animation-timing-function: linear;
        }
      
        @keyframes keyframes4 {
          from {
            stroke: blue;
            stroke-dashoffset: 399;
            stroke-width: 128;
          }
          56% {
            animation-timing-function: step-end;
            stroke: blue;
            stroke-dashoffset: 0;
            stroke-width: 128;
          }
          to {
            stroke: black;
            stroke-width: 1024;
          }
        }
        #make-me-a-hanzi-animation-4 {
          animation: keyframes4 0.57470703125s both;
          animation-delay: 2.65771484375s;
          animation-timing-function: linear;
        }
      
        @keyframes keyframes5 {
          from {
            stroke: blue;
            stroke-dashoffset: 701;
            stroke-width: 128;
          }
          70% {
            animation-timing-function: step-end;
            stroke: blue;
            stroke-dashoffset: 0;
            stroke-width: 128;
          }
          to {
            stroke: black;
            stroke-width: 1024;
          }
        }
        #make-me-a-hanzi-animation-5 {
          animation: keyframes5 0.8204752604166666s both;
          animation-delay: 3.232421875s;
          animation-timing-function: linear;
        }
      
        @keyframes keyframes6 {
          from {
            stroke: blue;
            stroke-dashoffset: 599;
            stroke-width: 128;
          }
          66% {
            animation-timing-function: step-end;
            stroke: blue;
            stroke-dashoffset: 0;
            stroke-width: 128;
          }
          to {
            stroke: black;
            stroke-width: 1024;
          }
        }
        #make-me-a-hanzi-animation-6 {
          animation: keyframes6 0.7374674479166666s both;
          animation-delay: 4.052897135416667s;
          animation-timing-function: linear;
        }
      
        @keyframes keyframes7 {
          from {
            stroke: blue;
            stroke-dashoffset: 428;
            stroke-width: 128;
          }
          58% {
            animation-timing-function: step-end;
            stroke: blue;
            stroke-dashoffset: 0;
            stroke-width: 128;
          }
          to {
            stroke: black;
            stroke-width: 1024;
          }
        }
        #make-me-a-hanzi-animation-7 {
          animation: keyframes7 0.5983072916666666s both;
          animation-delay: 4.790364583333334s;
          animation-timing-function: linear;
        }
      
        @keyframes keyframes8 {
          from {
            stroke: blue;
            stroke-dashoffset: 461;
            stroke-width: 128;
          }
          60% {
            animation-timing-function: step-end;
            stroke: blue;
            stroke-dashoffset: 0;
            stroke-width: 128;
          }
          to {
            stroke: black;
            stroke-width: 1024;
          }
        }
        #make-me-a-hanzi-animation-8 {
          animation: keyframes8 0.6251627604166666s both;
          animation-delay: 5.388671875000001s;
          animation-timing-function: linear;
        }
      
        @keyframes keyframes9 {
          from {
            stroke: blue;
            stroke-dashoffset: 758;
            stroke-width: 128;
          }
          71% {
            animation-timing-function: step-end;
            stroke: blue;
            stroke-dashoffset: 0;
            stroke-width: 128;
          }
          to {
            stroke: black;
            stroke-width: 1024;
          }
        }
        #make-me-a-hanzi-animation-9 {
          animation: keyframes9 0.8668619791666666s both;
          animation-delay: 6.013834635416668s;
          animation-timing-function: linear;
        }
      
        @keyframes keyframes10 {
          from {
            stroke: blue;
            stroke-dashoffset: 409;
            stroke-width: 128;
          }
          57% {
            animation-timing-function: step-end;
            stroke: blue;
            stroke-dashoffset: 0;
            stroke-width: 128;
          }
          to {
            stroke: black;
            stroke-width: 1024;
          }
        }
        #make-me-a-hanzi-animation-10 {
          animation: keyframes10 0.5828450520833334s both;
          animation-delay: 6.880696614583335s;
          animation-timing-function: linear;
        }
      
        @keyframes keyframes11 {
          from {
            stroke: blue;
            stroke-dashoffset: 430;
            stroke-width: 128;
          }
          58% {
            animation-timing-function: step-end;
            stroke: blue;
            stroke-dashoffset: 0;
            stroke-width: 128;
          }
          to {
            stroke: black;
            stroke-width: 1024;
          }
        }
        #make-me-a-hanzi-animation-11 {
          animation: keyframes11 0.5999348958333334s both;
          animation-delay: 7.463541666666668s;
          animation-timing-function: linear;
        }
      
        @keyframes keyframes12 {
          from {
            stroke: blue;
            stroke-dashoffset: 397;
            stroke-width: 128;
          }
          56% {
            animation-timing-function: step-end;
            stroke: blue;
            stroke-dashoffset: 0;
            stroke-width: 128;
          }
          to {
            stroke: black;
            stroke-width: 1024;
          }
        }
        #make-me-a-hanzi-animation-12 {
          animation: keyframes12 0.5730794270833334s both;
          animation-delay: 8.063476562500002s;
          animation-timing-function: linear;
        }
      
        @keyframes keyframes13 {
          from {
            stroke: blue;
            stroke-dashoffset: 721;
            stroke-width: 128;
          }
          70% {
            animation-timing-function: step-end;
            stroke: blue;
            stroke-dashoffset: 0;
            stroke-width: 128;
          }
          to {
            stroke: black;
            stroke-width: 1024;
          }
        }
        #make-me-a-hanzi-animation-13 {
          animation: keyframes13 0.8367513020833334s both;
          animation-delay: 8.636555989583336s;
          animation-timing-function: linear;
        }
      
        @keyframes keyframes14 {
          from {
            stroke: blue;
            stroke-dashoffset: 1166;
            stroke-width: 128;
          }
          79% {
            animation-timing-function: step-end;
            stroke: blue;
            stroke-dashoffset: 0;
            stroke-width: 128;
          }
          to {
            stroke: black;
            stroke-width: 1024;
          }
        }
        #make-me-a-hanzi-animation-14 {
          animation: keyframes14 1.1988932291666667s both;
          animation-delay: 9.47330729166667s;
          animation-timing-function: linear;
        }
      
    </style>
    
      <path d="M 578 679 Q 591 724 607 738 Q 625 760 605 771 Q 589 780 566 793 Q 548 802 512 777 Q 488 765 445 750 C 417 740 417 713 445 724 Q 469 734 520 748 Q 539 754 544 747 Q 547 744 535 684 C 529 655 569 650 578 679 Z" fill="lightgray"></path>
    
      <path d="M 441 628 Q 447 628 455 630 Q 491 642 573 659 Q 576 660 582 661 Q 589 662 589 669 Q 589 673 578 679 C 566 686 565 686 535 684 Q 534 685 531 684 Q 482 665 441 653 C 412 644 411 626 441 628 Z" fill="lightgray"></path>
    
      <path d="M 445 750 Q 439 760 413 768 Q 404 771 398 767 Q 394 764 398 751 Q 408 723 409 696 Q 409 546 438 523 Q 489 484 583 511 Q 604 518 623 535 Q 636 547 626 564 Q 617 574 602 607 Q 602 619 596 621 Q 592 624 590 611 Q 563 557 541 549 Q 502 540 472 551 Q 459 557 455 565 Q 442 590 441 628 L 441 653 Q 441 687 445 724 C 447 748 447 748 445 750 Z" fill="lightgray"></path>
    
      <path d="M 815 727 Q 830 766 844 777 Q 863 798 844 809 Q 828 819 806 833 Q 790 842 775 833 Q 757 820 733 811 Q 708 801 677 793 C 648 785 657 766 687 771 Q 696 772 708 776 Q 738 783 762 790 Q 778 794 783 788 Q 787 784 782 765 Q 778 749 771 730 C 761 702 804 699 815 727 Z" fill="lightgray"></path>
    
      <path d="M 682 679 Q 691 679 702 680 Q 739 690 824 703 Q 831 704 833 712 Q 833 716 815 727 C 797 738 797 738 771 730 Q 722 715 682 704 C 653 696 652 679 682 679 Z" fill="lightgray"></path>
    
      <path d="M 677 793 Q 667 800 653 804 Q 644 807 638 803 Q 634 800 638 787 Q 650 759 649 732 Q 649 597 679 574 Q 734 534 829 560 Q 829 561 832 561 Q 854 570 875 587 Q 888 597 880 613 Q 873 623 861 659 Q 861 669 856 673 Q 852 676 849 664 Q 816 610 792 601 Q 752 589 714 602 Q 699 608 695 617 Q 682 638 682 679 L 682 704 Q 682 735 687 770 L 687 771 C 689 786 689 786 677 793 Z" fill="lightgray"></path>
    
      <path d="M 710 418 Q 747 425 782 429 Q 791 428 798 439 Q 798 448 780 456 Q 756 472 722 461 L 669 447 Q 668 447 572 424 L 526 417 Q 490 413 455 407 Q 433 404 450 390 Q 477 372 511 379 Q 521 382 534 383 L 574 392 Q 614 402 665 411 L 710 418 Z" fill="lightgray"></path>
    
      <path d="M 572 424 Q 572 457 563 463 Q 544 476 523 482 Q 511 486 505 481 Q 499 475 505 464 Q 517 443 526 417 L 534 383 Q 538 356 546 312 C 551 282 582 287 579 317 Q 575 362 574 392 L 572 424 Z" fill="lightgray"></path>
    
      <path d="M 689 338 Q 699 380 710 418 L 722 461 Q 723 470 735 491 Q 738 498 725 512 Q 701 530 684 536 Q 672 540 666 535 Q 659 531 664 518 Q 671 502 669 447 L 665 411 Q 661 374 655 331 C 651 301 682 309 689 338 Z" fill="lightgray"></path>
    
      <path d="M 546 312 Q 473 302 393 287 Q 377 284 390 271 Q 414 250 457 260 Q 637 315 874 316 L 876 316 Q 892 317 896 324 Q 900 334 886 344 Q 837 377 783 359 Q 743 350 689 338 L 655 331 Q 639 330 624 326 Q 602 323 579 317 L 546 312 Z" fill="lightgray"></path>
    
      <path d="M 523 248 Q 519 215 448 147 Q 429 134 454 137 Q 490 131 561 195 Q 577 210 586 216 Q 596 226 594 235 Q 591 247 569 254 Q 544 264 533 261 Q 526 260 523 248 Z" fill="lightgray"></path>
    
      <path d="M 708 218 Q 744 176 780 128 Q 790 113 804 111 Q 814 110 821 121 Q 828 134 825 162 Q 822 204 712 262 Q 699 268 692 267 Q 688 264 686 252 Q 687 242 708 218 Z" fill="lightgray"></path>
    
      <path d="M 222 704 Q 246 679 271 650 Q 284 635 302 635 Q 314 635 321 649 Q 327 665 319 698 Q 315 717 284 734 Q 214 765 196 759 Q 190 755 191 741 Q 194 728 222 704 Z" fill="lightgray"></path>
    
      <path d="M 270 176 Q 298 206 302 216 Q 311 259 264 313 Q 243 340 277 398 Q 296 423 313 437 Q 335 455 316 471 Q 297 487 262 503 Q 241 515 202 487 Q 136 453 112 454 Q 105 455 103 449 Q 102 445 109 440 Q 148 422 211 447 Q 220 450 229 438 Q 244 420 226 394 Q 183 343 224 300 Q 269 228 256 183 Q 255 182 255 177 C 251 155 251 155 270 176 Z" fill="lightgray"></path>
    
      <path d="M 255 177 Q 200 181 152 173 Q 115 164 91 164 Q 76 165 78 153 Q 79 143 120 116 Q 139 106 169 124 Q 208 160 281 140 Q 479 74 582 24 Q 712 -42 769 -35 Q 850 -17 966 47 Q 973 50 971 56 Q 970 60 953 60 Q 610 54 383 141 Q 322 169 270 176 L 255 177 Z" fill="lightgray"></path>
    
    
      <clipPath id="make-me-a-hanzi-clip-0">
        <path d="M 578 679 Q 591 724 607 738 Q 625 760 605 771 Q 589 780 566 793 Q 548 802 512 777 Q 488 765 445 750 C 417 740 417 713 445 724 Q 469 734 520 748 Q 539 754 544 747 Q 547 744 535 684 C 529 655 569 650 578 679 Z"></path>
      </clipPath>
      <path clip-path="url(#make-me-a-hanzi-clip-0)" d="M 449 731 L 458 742 L 529 768 L 555 770 L 575 748 L 559 701 L 544 696" fill="none" id="make-me-a-hanzi-animation-0" stroke-dasharray="339 678" stroke-linecap="round"></path>
    
      <clipPath id="make-me-a-hanzi-clip-1">
        <path d="M 441 628 Q 447 628 455 630 Q 491 642 573 659 Q 576 660 582 661 Q 589 662 589 669 Q 589 673 578 679 C 566 686 565 686 535 684 Q 534 685 531 684 Q 482 665 441 653 C 412 644 411 626 441 628 Z"></path>
      </clipPath>
      <path clip-path="url(#make-me-a-hanzi-clip-1)" d="M 447 634 L 454 644 L 528 667 L 580 670" fill="none" id="make-me-a-hanzi-animation-1" stroke-dasharray="270 540" stroke-linecap="round"></path>
    
      <clipPath id="make-me-a-hanzi-clip-2">
        <path d="M 445 750 Q 439 760 413 768 Q 404 771 398 767 Q 394 764 398 751 Q 408 723 409 696 Q 409 546 438 523 Q 489 484 583 511 Q 604 518 623 535 Q 636 547 626 564 Q 617 574 602 607 Q 602 619 596 621 Q 592 624 590 611 Q 563 557 541 549 Q 502 540 472 551 Q 459 557 455 565 Q 442 590 441 628 L 441 653 Q 441 687 445 724 C 447 748 447 748 445 750 Z"></path>
      </clipPath>
      <path clip-path="url(#make-me-a-hanzi-clip-2)" d="M 406 761 L 424 741 L 425 615 L 435 567 L 450 540 L 464 531 L 508 522 L 567 533 L 593 553 L 597 613" fill="none" id="make-me-a-hanzi-animation-2" stroke-dasharray="575 1150" stroke-linecap="round"></path>
    
      <clipPath id="make-me-a-hanzi-clip-3">
        <path d="M 815 727 Q 830 766 844 777 Q 863 798 844 809 Q 828 819 806 833 Q 790 842 775 833 Q 757 820 733 811 Q 708 801 677 793 C 648 785 657 766 687 771 Q 696 772 708 776 Q 738 783 762 790 Q 778 794 783 788 Q 787 784 782 765 Q 778 749 771 730 C 761 702 804 699 815 727 Z"></path>
      </clipPath>
      <path clip-path="url(#make-me-a-hanzi-clip-3)" d="M 686 790 L 694 785 L 713 789 L 779 812 L 800 808 L 814 791 L 812 779 L 801 750 L 779 734" fill="none" id="make-me-a-hanzi-animation-3" stroke-dasharray="341 682" stroke-linecap="round"></path>
    
      <clipPath id="make-me-a-hanzi-clip-4">
        <path d="M 682 679 Q 691 679 702 680 Q 739 690 824 703 Q 831 704 833 712 Q 833 716 815 727 C 797 738 797 738 771 730 Q 722 715 682 704 C 653 696 652 679 682 679 Z"></path>
      </clipPath>
      <path clip-path="url(#make-me-a-hanzi-clip-4)" d="M 687 685 L 721 701 L 768 712 L 825 711" fill="none" id="make-me-a-hanzi-animation-4" stroke-dasharray="271 542" stroke-linecap="round"></path>
    
      <clipPath id="make-me-a-hanzi-clip-5">
        <path d="M 677 793 Q 667 800 653 804 Q 644 807 638 803 Q 634 800 638 787 Q 650 759 649 732 Q 649 597 679 574 Q 734 534 829 560 Q 829 561 832 561 Q 854 570 875 587 Q 888 597 880 613 Q 873 623 861 659 Q 861 669 856 673 Q 852 676 849 664 Q 816 610 792 601 Q 752 589 714 602 Q 699 608 695 617 Q 682 638 682 679 L 682 704 Q 682 735 687 770 L 687 771 C 689 786 689 786 677 793 Z"></path>
      </clipPath>
      <path clip-path="url(#make-me-a-hanzi-clip-5)" d="M 646 797 L 667 766 L 666 659 L 680 606 L 691 591 L 740 573 L 767 572 L 814 582 L 847 607 L 857 665" fill="none" id="make-me-a-hanzi-animation-5" stroke-dasharray="573 1146" stroke-linecap="round"></path>
    
      <clipPath id="make-me-a-hanzi-clip-6">
        <path d="M 710 418 Q 747 425 782 429 Q 791 428 798 439 Q 798 448 780 456 Q 756 472 722 461 L 669 447 Q 668 447 572 424 L 526 417 Q 490 413 455 407 Q 433 404 450 390 Q 477 372 511 379 Q 521 382 534 383 L 574 392 Q 614 402 665 411 L 710 418 Z"></path>
      </clipPath>
      <path clip-path="url(#make-me-a-hanzi-clip-6)" d="M 451 399 L 501 395 L 735 444 L 789 440" fill="none" id="make-me-a-hanzi-animation-6" stroke-dasharray="471 942" stroke-linecap="round"></path>
    
      <clipPath id="make-me-a-hanzi-clip-7">
        <path d="M 572 424 Q 572 457 563 463 Q 544 476 523 482 Q 511 486 505 481 Q 499 475 505 464 Q 517 443 526 417 L 534 383 Q 538 356 546 312 C 551 282 582 287 579 317 Q 575 362 574 392 L 572 424 Z"></path>
      </clipPath>
      <path clip-path="url(#make-me-a-hanzi-clip-7)" d="M 512 474 L 544 444 L 547 432 L 560 331 L 550 321" fill="none" id="make-me-a-hanzi-animation-7" stroke-dasharray="300 600" stroke-linecap="round"></path>
    
      <clipPath id="make-me-a-hanzi-clip-8">
        <path d="M 689 338 Q 699 380 710 418 L 722 461 Q 723 470 735 491 Q 738 498 725 512 Q 701 530 684 536 Q 672 540 666 535 Q 659 531 664 518 Q 671 502 669 447 L 665 411 Q 661 374 655 331 C 651 301 682 309 689 338 Z"></path>
      </clipPath>
      <path clip-path="url(#make-me-a-hanzi-clip-8)" d="M 674 526 L 700 493 L 675 353 L 660 338" fill="none" id="make-me-a-hanzi-animation-8" stroke-dasharray="333 666" stroke-linecap="round"></path>
    
      <clipPath id="make-me-a-hanzi-clip-9">
        <path d="M 546 312 Q 473 302 393 287 Q 377 284 390 271 Q 414 250 457 260 Q 637 315 874 316 L 876 316 Q 892 317 896 324 Q 900 334 886 344 Q 837 377 783 359 Q 743 350 689 338 L 655 331 Q 639 330 624 326 Q 602 323 579 317 L 546 312 Z"></path>
      </clipPath>
      <path clip-path="url(#make-me-a-hanzi-clip-9)" d="M 392 279 L 446 276 L 526 295 L 809 340 L 887 329" fill="none" id="make-me-a-hanzi-animation-9" stroke-dasharray="630 1260" stroke-linecap="round"></path>
    
      <clipPath id="make-me-a-hanzi-clip-10">
        <path d="M 523 248 Q 519 215 448 147 Q 429 134 454 137 Q 490 131 561 195 Q 577 210 586 216 Q 596 226 594 235 Q 591 247 569 254 Q 544 264 533 261 Q 526 260 523 248 Z"></path>
      </clipPath>
      <path clip-path="url(#make-me-a-hanzi-clip-10)" d="M 579 232 L 550 228 L 509 179 L 476 153 L 459 147" fill="none" id="make-me-a-hanzi-animation-10" stroke-dasharray="281 562" stroke-linecap="round"></path>
    
      <clipPath id="make-me-a-hanzi-clip-11">
        <path d="M 708 218 Q 744 176 780 128 Q 790 113 804 111 Q 814 110 821 121 Q 828 134 825 162 Q 822 204 712 262 Q 699 268 692 267 Q 688 264 686 252 Q 687 242 708 218 Z"></path>
      </clipPath>
      <path clip-path="url(#make-me-a-hanzi-clip-11)" d="M 696 261 L 705 246 L 786 173 L 805 129" fill="none" id="make-me-a-hanzi-animation-11" stroke-dasharray="302 604" stroke-linecap="round"></path>
    
      <clipPath id="make-me-a-hanzi-clip-12">
        <path d="M 222 704 Q 246 679 271 650 Q 284 635 302 635 Q 314 635 321 649 Q 327 665 319 698 Q 315 717 284 734 Q 214 765 196 759 Q 190 755 191 741 Q 194 728 222 704 Z"></path>
      </clipPath>
      <path clip-path="url(#make-me-a-hanzi-clip-12)" d="M 201 751 L 273 701 L 301 656" fill="none" id="make-me-a-hanzi-animation-12" stroke-dasharray="269 538" stroke-linecap="round"></path>
    
      <clipPath id="make-me-a-hanzi-clip-13">
        <path d="M 270 176 Q 298 206 302 216 Q 311 259 264 313 Q 243 340 277 398 Q 296 423 313 437 Q 335 455 316 471 Q 297 487 262 503 Q 241 515 202 487 Q 136 453 112 454 Q 105 455 103 449 Q 102 445 109 440 Q 148 422 211 447 Q 220 450 229 438 Q 244 420 226 394 Q 183 343 224 300 Q 269 228 256 183 Q 255 182 255 177 C 251 155 251 155 270 176 Z"></path>
      </clipPath>
      <path clip-path="url(#make-me-a-hanzi-clip-13)" d="M 110 447 L 153 447 L 224 472 L 249 469 L 269 453 L 254 398 L 230 349 L 235 320 L 278 243 L 276 205 L 263 179" fill="none" id="make-me-a-hanzi-animation-13" stroke-dasharray="593 1186" stroke-linecap="round"></path>
    
      <clipPath id="make-me-a-hanzi-clip-14">
        <path d="M 255 177 Q 200 181 152 173 Q 115 164 91 164 Q 76 165 78 153 Q 79 143 120 116 Q 139 106 169 124 Q 208 160 281 140 Q 479 74 582 24 Q 712 -42 769 -35 Q 850 -17 966 47 Q 973 50 971 56 Q 970 60 953 60 Q 610 54 383 141 Q 322 169 270 176 L 255 177 Z"></path>
      </clipPath>
      <path clip-path="url(#make-me-a-hanzi-clip-14)" d="M 87 155 L 124 141 L 141 141 L 217 163 L 287 157 L 626 42 L 731 17 L 798 18 L 966 53" fill="none" id="make-me-a-hanzi-animation-14" stroke-dasharray="1038 2076" stroke-linecap="round"></path>
    
  </g>
</svg>