<svg version="1.1" viewBox="0 0 1024 1024" xmlns="http://www.w3.org/2000/svg">
  <g stroke="lightgray" stroke-dasharray="1,1" stroke-width="1" transform="scale(4, 4)">
    <line x1="0" y1="0" x2="256" y2="256"></line>
    <line x1="256" y1="0" x2="0" y2="256"></line>
    <line x1="128" y1="0" x2="128" y2="256"></line>
    <line x1="0" y1="128" x2="256" y2="128"></line>
  </g>
  <g transform="scale(1, -1) translate(0, -900)">
    <style type="text/css">
      
        @keyframes keyframes0 {
          from {
            stroke: blue;
            stroke-dashoffset: 528;
            stroke-width: 128;
          }
          63% {
            animation-timing-function: step-end;
            stroke: blue;
            stroke-dashoffset: 0;
            stroke-width: 128;
          }
          to {
            stroke: black;
            stroke-width: 1024;
          }
        }
        #make-me-a-hanzi-animation-0 {
          animation: keyframes0 0.6796875s both;
          animation-delay: 0s;
          animation-timing-function: linear;
        }
      
        @keyframes keyframes1 {
          from {
            stroke: blue;
            stroke-dashoffset: 510;
            stroke-width: 128;
          }
          62% {
            animation-timing-function: step-end;
            stroke: blue;
            stroke-dashoffset: 0;
            stroke-width: 128;
          }
          to {
            stroke: black;
            stroke-width: 1024;
          }
        }
        #make-me-a-hanzi-animation-1 {
          animation: keyframes1 0.6650390625s both;
          animation-delay: 0.6796875s;
          animation-timing-function: linear;
        }
      
        @keyframes keyframes2 {
          from {
            stroke: blue;
            stroke-dashoffset: 546;
            stroke-width: 128;
          }
          64% {
            animation-timing-function: step-end;
            stroke: blue;
            stroke-dashoffset: 0;
            stroke-width: 128;
          }
          to {
            stroke: black;
            stroke-width: 1024;
          }
        }
        #make-me-a-hanzi-animation-2 {
          animation: keyframes2 0.6943359375s both;
          animation-delay: 1.3447265625s;
          animation-timing-function: linear;
        }
      
        @keyframes keyframes3 {
          from {
            stroke: blue;
            stroke-dashoffset: 425;
            stroke-width: 128;
          }
          58% {
            animation-timing-function: step-end;
            stroke: blue;
            stroke-dashoffset: 0;
            stroke-width: 128;
          }
          to {
            stroke: black;
            stroke-width: 1024;
          }
        }
        #make-me-a-hanzi-animation-3 {
          animation: keyframes3 0.5958658854166666s both;
          animation-delay: 2.0390625s;
          animation-timing-function: linear;
        }
      
        @keyframes keyframes4 {
          from {
            stroke: blue;
            stroke-dashoffset: 734;
            stroke-width: 128;
          }
          70% {
            animation-timing-function: step-end;
            stroke: blue;
            stroke-dashoffset: 0;
            stroke-width: 128;
          }
          to {
            stroke: black;
            stroke-width: 1024;
          }
        }
        #make-me-a-hanzi-animation-4 {
          animation: keyframes4 0.8473307291666666s both;
          animation-delay: 2.6349283854166665s;
          animation-timing-function: linear;
        }
      
        @keyframes keyframes5 {
          from {
            stroke: blue;
            stroke-dashoffset: 410;
            stroke-width: 128;
          }
          57% {
            animation-timing-function: step-end;
            stroke: blue;
            stroke-dashoffset: 0;
            stroke-width: 128;
          }
          to {
            stroke: black;
            stroke-width: 1024;
          }
        }
        #make-me-a-hanzi-animation-5 {
          animation: keyframes5 0.5836588541666666s both;
          animation-delay: 3.482259114583333s;
          animation-timing-function: linear;
        }
      
        @keyframes keyframes6 {
          from {
            stroke: blue;
            stroke-dashoffset: 411;
            stroke-width: 128;
          }
          57% {
            animation-timing-function: step-end;
            stroke: blue;
            stroke-dashoffset: 0;
            stroke-width: 128;
          }
          to {
            stroke: black;
            stroke-width: 1024;
          }
        }
        #make-me-a-hanzi-animation-6 {
          animation: keyframes6 0.58447265625s both;
          animation-delay: 4.06591796875s;
          animation-timing-function: linear;
        }
      
        @keyframes keyframes7 {
          from {
            stroke: blue;
            stroke-dashoffset: 492;
            stroke-width: 128;
          }
          62% {
            animation-timing-function: step-end;
            stroke: blue;
            stroke-dashoffset: 0;
            stroke-width: 128;
          }
          to {
            stroke: black;
            stroke-width: 1024;
          }
        }
        #make-me-a-hanzi-animation-7 {
          animation: keyframes7 0.650390625s both;
          animation-delay: 4.650390625s;
          animation-timing-function: linear;
        }
      
        @keyframes keyframes8 {
          from {
            stroke: blue;
            stroke-dashoffset: 574;
            stroke-width: 128;
          }
          65% {
            animation-timing-function: step-end;
            stroke: blue;
            stroke-dashoffset: 0;
            stroke-width: 128;
          }
          to {
            stroke: black;
            stroke-width: 1024;
          }
        }
        #make-me-a-hanzi-animation-8 {
          animation: keyframes8 0.7171223958333334s both;
          animation-delay: 5.30078125s;
          animation-timing-function: linear;
        }
      
        @keyframes keyframes9 {
          from {
            stroke: blue;
            stroke-dashoffset: 317;
            stroke-width: 128;
          }
          51% {
            animation-timing-function: step-end;
            stroke: blue;
            stroke-dashoffset: 0;
            stroke-width: 128;
          }
          to {
            stroke: black;
            stroke-width: 1024;
          }
        }
        #make-me-a-hanzi-animation-9 {
          animation: keyframes9 0.5079752604166666s both;
          animation-delay: 6.017903645833333s;
          animation-timing-function: linear;
        }
      
        @keyframes keyframes10 {
          from {
            stroke: blue;
            stroke-dashoffset: 320;
            stroke-width: 128;
          }
          51% {
            animation-timing-function: step-end;
            stroke: blue;
            stroke-dashoffset: 0;
            stroke-width: 128;
          }
          to {
            stroke: black;
            stroke-width: 1024;
          }
        }
        #make-me-a-hanzi-animation-10 {
          animation: keyframes10 0.5104166666666666s both;
          animation-delay: 6.52587890625s;
          animation-timing-function: linear;
        }
      
        @keyframes keyframes11 {
          from {
            stroke: blue;
            stroke-dashoffset: 638;
            stroke-width: 128;
          }
          67% {
            animation-timing-function: step-end;
            stroke: blue;
            stroke-dashoffset: 0;
            stroke-width: 128;
          }
          to {
            stroke: black;
            stroke-width: 1024;
          }
        }
        #make-me-a-hanzi-animation-11 {
          animation: keyframes11 0.7692057291666666s both;
          animation-delay: 7.036295572916667s;
          animation-timing-function: linear;
        }
      
        @keyframes keyframes12 {
          from {
            stroke: blue;
            stroke-dashoffset: 320;
            stroke-width: 128;
          }
          51% {
            animation-timing-function: step-end;
            stroke: blue;
            stroke-dashoffset: 0;
            stroke-width: 128;
          }
          to {
            stroke: black;
            stroke-width: 1024;
          }
        }
        #make-me-a-hanzi-animation-12 {
          animation: keyframes12 0.5104166666666666s both;
          animation-delay: 7.805501302083334s;
          animation-timing-function: linear;
        }
      
        @keyframes keyframes13 {
          from {
            stroke: blue;
            stroke-dashoffset: 315;
            stroke-width: 128;
          }
          51% {
            animation-timing-function: step-end;
            stroke: blue;
            stroke-dashoffset: 0;
            stroke-width: 128;
          }
          to {
            stroke: black;
            stroke-width: 1024;
          }
        }
        #make-me-a-hanzi-animation-13 {
          animation: keyframes13 0.50634765625s both;
          animation-delay: 8.31591796875s;
          animation-timing-function: linear;
        }
      
        @keyframes keyframes14 {
          from {
            stroke: blue;
            stroke-dashoffset: 732;
            stroke-width: 128;
          }
          70% {
            animation-timing-function: step-end;
            stroke: blue;
            stroke-dashoffset: 0;
            stroke-width: 128;
          }
          to {
            stroke: black;
            stroke-width: 1024;
          }
        }
        #make-me-a-hanzi-animation-14 {
          animation: keyframes14 0.845703125s both;
          animation-delay: 8.822265625s;
          animation-timing-function: linear;
        }
      
        @keyframes keyframes15 {
          from {
            stroke: blue;
            stroke-dashoffset: 422;
            stroke-width: 128;
          }
          58% {
            animation-timing-function: step-end;
            stroke: blue;
            stroke-dashoffset: 0;
            stroke-width: 128;
          }
          to {
            stroke: black;
            stroke-width: 1024;
          }
        }
        #make-me-a-hanzi-animation-15 {
          animation: keyframes15 0.5934244791666666s both;
          animation-delay: 9.66796875s;
          animation-timing-function: linear;
        }
      
        @keyframes keyframes16 {
          from {
            stroke: blue;
            stroke-dashoffset: 727;
            stroke-width: 128;
          }
          70% {
            animation-timing-function: step-end;
            stroke: blue;
            stroke-dashoffset: 0;
            stroke-width: 128;
          }
          to {
            stroke: black;
            stroke-width: 1024;
          }
        }
        #make-me-a-hanzi-animation-16 {
          animation: keyframes16 0.8416341145833334s both;
          animation-delay: 10.261393229166666s;
          animation-timing-function: linear;
        }
      
        @keyframes keyframes17 {
          from {
            stroke: blue;
            stroke-dashoffset: 1120;
            stroke-width: 128;
          }
          78% {
            animation-timing-function: step-end;
            stroke: blue;
            stroke-dashoffset: 0;
            stroke-width: 128;
          }
          to {
            stroke: black;
            stroke-width: 1024;
          }
        }
        #make-me-a-hanzi-animation-17 {
          animation: keyframes17 1.1614583333333333s both;
          animation-delay: 11.10302734375s;
          animation-timing-function: linear;
        }
      
    </style>
    
      <path d="M 429 760 Q 416 729 392 702 Q 385 692 387 682 Q 388 672 402 663 Q 438 638 469 610 Q 482 597 494 598 Q 504 599 505 618 Q 506 637 494 649 Q 487 662 440 672 Q 427 673 420 683 Q 416 689 424 700 Q 434 707 457 728 Q 473 746 487 753 Q 500 759 496 774 Q 489 804 470 817 Q 460 826 450 824 Q 440 824 443 808 Q 447 787 429 760 Z" fill="lightgray"></path>
    
      <path d="M 575 779 Q 562 746 539 716 Q 532 707 535 698 Q 536 689 549 681 Q 577 659 602 632 Q 615 619 625 620 Q 635 621 637 638 Q 638 657 628 668 Q 622 678 585 687 Q 572 690 565 699 Q 561 706 570 716 Q 580 726 603 751 Q 618 767 630 776 Q 642 783 637 796 Q 627 824 610 835 Q 600 842 590 841 Q 581 840 585 825 Q 589 806 575 779 Z" fill="lightgray"></path>
    
      <path d="M 718 801 Q 702 764 671 730 Q 664 720 666 709 L 747 640 Q 762 627 774 628 Q 784 631 785 650 Q 785 671 773 682 Q 766 692 723 700 Q 708 701 702 711 Q 698 717 705 728 Q 777 794 780 795 Q 793 801 789 816 Q 780 847 761 862 Q 751 871 740 870 Q 730 869 733 852 Q 737 830 718 801 Z" fill="lightgray"></path>
    
      <path d="M 430 565 Q 421 569 395 570 Q 385 571 382 567 Q 378 561 386 549 Q 411 510 431 444 Q 435 425 449 412 Q 467 396 469 409 Q 470 415 470 423 L 468 445 Q 458 476 445 539 C 440 562 440 562 430 565 Z" fill="lightgray"></path>
    
      <path d="M 708 456 Q 709 455 710 452 Q 713 440 723 441 Q 738 444 763 497 Q 776 537 804 558 Q 819 570 806 582 Q 793 595 755 616 Q 743 623 675 608 Q 645 608 526 583 Q 469 571 430 565 C 400 560 415 535 445 539 Q 451 538 457 540 Q 475 547 499 551 L 515 555 Q 551 565 602 571 L 622 574 Q 707 595 733 582 Q 739 578 735 560 Q 720 496 713 480 C 706 460 706 460 708 456 Z" fill="lightgray"></path>
    
      <path d="M 607 521 Q 617 530 629 539 Q 633 542 635 544 Q 639 545 640 550 Q 640 563 622 574 C 605 586 605 586 602 571 Q 602 559 579 532 L 562 515 Q 526 490 501 474 Q 497 473 502 470 Q 505 469 541 479 Q 572 492 583 502 L 607 521 Z" fill="lightgray"></path>
    
      <path d="M 648 479 Q 642 506 607 521 C 580 533 583 528 579 532 Q 578 535 572 536 Q 538 549 515 555 C 488 562 488 562 499 551 Q 500 550 503 547 Q 531 534 562 515 L 583 502 Q 605 490 628 475 C 653 459 654 458 648 479 Z" fill="lightgray"></path>
    
      <path d="M 470 423 Q 471 423 473 422 Q 480 421 490 422 Q 560 441 708 456 C 738 459 737 462 713 480 Q 710 483 706 485 Q 688 497 648 479 L 628 475 Q 540 454 468 445 C 438 441 440 428 470 423 Z" fill="lightgray"></path>
    
      <path d="M 438 341 Q 442 351 435 359 Q 419 375 402 383 Q 389 389 383 384 Q 376 380 382 369 Q 404 320 397 249 Q 393 215 362 182 Q 341 163 371 127 Q 380 121 389 132 Q 402 148 508 211 Q 523 218 527 224 Q 531 230 524 232 Q 515 232 497 225 Q 472 218 443 210 Q 427 204 429 219 Q 435 274 436 318 Q 436 331 438 341 Z" fill="lightgray"></path>
    
      <path d="M 472 352 Q 517 322 533 323 Q 542 324 542 336 Q 541 343 532 354 Q 517 369 470 369 Q 466 368 466 361 Q 467 357 472 352 Z" fill="lightgray"></path>
    
      <path d="M 468 288 Q 516 255 529 256 Q 536 257 538 269 Q 537 276 529 287 Q 520 296 504 299 Q 477 305 467 304 Q 461 304 462 297 Q 462 293 468 288 Z" fill="lightgray"></path>
    
      <path d="M 606 378 Q 605 390 598 395 Q 576 416 560 419 Q 550 420 544 417 Q 537 411 545 399 Q 561 369 561 342 Q 564 248 557 215 Q 553 190 541 176 Q 529 158 536 140 Q 545 112 559 101 Q 568 94 579 110 Q 603 138 684 209 Q 700 219 702 227 Q 703 237 685 229 Q 607 199 603 200 Q 596 206 597 224 Q 600 338 606 370 L 606 378 Z" fill="lightgray"></path>
    
      <path d="M 606 370 Q 607 366 652 337 Q 664 330 673 332 Q 680 333 682 345 Q 681 352 673 363 Q 664 372 648 375 Q 621 381 611 380 Q 607 380 606 378 C 602 375 602 375 606 370 Z" fill="lightgray"></path>
    
      <path d="M 610 299 Q 649 260 665 261 Q 672 261 675 273 Q 675 280 669 292 Q 653 314 611 315 Q 605 316 606 309 Q 605 305 610 299 Z" fill="lightgray"></path>
    
      <path d="M 756 372 Q 763 390 741 405 Q 719 423 708 422 Q 693 421 695 409 Q 707 384 710 349 Q 716 148 835 101 Q 836 101 840 99 Q 889 83 910 89 Q 929 96 919 125 Q 910 149 904 186 Q 901 226 897 230 Q 890 237 887 227 Q 883 214 879 189 Q 873 158 861 154 Q 848 150 819 168 Q 759 208 752 289 Q 748 346 756 372 Z" fill="lightgray"></path>
    
      <path d="M 187 667 Q 223 636 261 600 Q 274 587 292 586 Q 302 587 309 601 Q 313 616 305 647 Q 293 686 183 718 Q 167 722 160 719 Q 154 715 156 702 Q 160 690 187 667 Z" fill="lightgray"></path>
    
      <path d="M 275 146 Q 282 153 285 165 Q 291 199 250 266 Q 223 317 282 392 Q 288 402 296 409 Q 317 425 299 441 Q 280 457 247 471 Q 228 484 209 468 Q 182 450 147 439 Q 101 423 85 425 Q 78 426 76 421 Q 75 417 82 412 Q 112 393 197 417 Q 207 420 216 406 Q 235 387 216 359 Q 170 311 219 241 Q 253 180 249 147 C 249 117 259 121 275 146 Z" fill="lightgray"></path>
    
      <path d="M 249 147 Q 204 148 160 133 Q 129 121 82 117 Q 76 117 72 108 Q 69 101 78 91 Q 96 73 120 62 Q 132 56 150 71 Q 207 116 276 107 Q 346 94 492 37 Q 741 -65 823 -34 Q 881 -12 931 25 Q 953 41 929 40 Q 704 31 555 64 Q 464 86 344 129 Q 310 142 275 146 L 249 147 Z" fill="lightgray"></path>
    
    
      <clipPath id="make-me-a-hanzi-clip-0">
        <path d="M 429 760 Q 416 729 392 702 Q 385 692 387 682 Q 388 672 402 663 Q 438 638 469 610 Q 482 597 494 598 Q 504 599 505 618 Q 506 637 494 649 Q 487 662 440 672 Q 427 673 420 683 Q 416 689 424 700 Q 434 707 457 728 Q 473 746 487 753 Q 500 759 496 774 Q 489 804 470 817 Q 460 826 450 824 Q 440 824 443 808 Q 447 787 429 760 Z"></path>
      </clipPath>
      <path clip-path="url(#make-me-a-hanzi-clip-0)" d="M 451 814 L 463 799 L 467 774 L 415 711 L 403 683 L 415 669 L 474 636 L 490 611" fill="none" id="make-me-a-hanzi-animation-0" stroke-dasharray="400 800" stroke-linecap="round"></path>
    
      <clipPath id="make-me-a-hanzi-clip-1">
        <path d="M 575 779 Q 562 746 539 716 Q 532 707 535 698 Q 536 689 549 681 Q 577 659 602 632 Q 615 619 625 620 Q 635 621 637 638 Q 638 657 628 668 Q 622 678 585 687 Q 572 690 565 699 Q 561 706 570 716 Q 580 726 603 751 Q 618 767 630 776 Q 642 783 637 796 Q 627 824 610 835 Q 600 842 590 841 Q 581 840 585 825 Q 589 806 575 779 Z"></path>
      </clipPath>
      <path clip-path="url(#make-me-a-hanzi-clip-1)" d="M 593 831 L 604 817 L 609 793 L 549 705 L 562 685 L 610 655 L 622 633" fill="none" id="make-me-a-hanzi-animation-1" stroke-dasharray="382 764" stroke-linecap="round"></path>
    
      <clipPath id="make-me-a-hanzi-clip-2">
        <path d="M 718 801 Q 702 764 671 730 Q 664 720 666 709 L 747 640 Q 762 627 774 628 Q 784 631 785 650 Q 785 671 773 682 Q 766 692 723 700 Q 708 701 702 711 Q 698 717 705 728 Q 777 794 780 795 Q 793 801 789 816 Q 780 847 761 862 Q 751 871 740 870 Q 730 869 733 852 Q 737 830 718 801 Z"></path>
      </clipPath>
      <path clip-path="url(#make-me-a-hanzi-clip-2)" d="M 743 858 L 753 844 L 758 816 L 683 716 L 702 693 L 754 666 L 770 640" fill="none" id="make-me-a-hanzi-animation-2" stroke-dasharray="418 836" stroke-linecap="round"></path>
    
      <clipPath id="make-me-a-hanzi-clip-3">
        <path d="M 430 565 Q 421 569 395 570 Q 385 571 382 567 Q 378 561 386 549 Q 411 510 431 444 Q 435 425 449 412 Q 467 396 469 409 Q 470 415 470 423 L 468 445 Q 458 476 445 539 C 440 562 440 562 430 565 Z"></path>
      </clipPath>
      <path clip-path="url(#make-me-a-hanzi-clip-3)" d="M 390 562 L 415 544 L 425 526 L 459 413" fill="none" id="make-me-a-hanzi-animation-3" stroke-dasharray="297 594" stroke-linecap="round"></path>
    
      <clipPath id="make-me-a-hanzi-clip-4">
        <path d="M 708 456 Q 709 455 710 452 Q 713 440 723 441 Q 738 444 763 497 Q 776 537 804 558 Q 819 570 806 582 Q 793 595 755 616 Q 743 623 675 608 Q 645 608 526 583 Q 469 571 430 565 C 400 560 415 535 445 539 Q 451 538 457 540 Q 475 547 499 551 L 515 555 Q 551 565 602 571 L 622 574 Q 707 595 733 582 Q 739 578 735 560 Q 720 496 713 480 C 706 460 706 460 708 456 Z"></path>
      </clipPath>
      <path clip-path="url(#make-me-a-hanzi-clip-4)" d="M 437 560 L 459 555 L 539 576 L 665 596 L 723 602 L 746 598 L 769 570 L 722 452" fill="none" id="make-me-a-hanzi-animation-4" stroke-dasharray="606 1212" stroke-linecap="round"></path>
    
      <clipPath id="make-me-a-hanzi-clip-5">
        <path d="M 607 521 Q 617 530 629 539 Q 633 542 635 544 Q 639 545 640 550 Q 640 563 622 574 C 605 586 605 586 602 571 Q 602 559 579 532 L 562 515 Q 526 490 501 474 Q 497 473 502 470 Q 505 469 541 479 Q 572 492 583 502 L 607 521 Z"></path>
      </clipPath>
      <path clip-path="url(#make-me-a-hanzi-clip-5)" d="M 630 553 L 617 554 L 572 507 L 530 480 L 505 473" fill="none" id="make-me-a-hanzi-animation-5" stroke-dasharray="282 564" stroke-linecap="round"></path>
    
      <clipPath id="make-me-a-hanzi-clip-6">
        <path d="M 648 479 Q 642 506 607 521 C 580 533 583 528 579 532 Q 578 535 572 536 Q 538 549 515 555 C 488 562 488 562 499 551 Q 500 550 503 547 Q 531 534 562 515 L 583 502 Q 605 490 628 475 C 653 459 654 458 648 479 Z"></path>
      </clipPath>
      <path clip-path="url(#make-me-a-hanzi-clip-6)" d="M 503 551 L 532 543 L 642 484" fill="none" id="make-me-a-hanzi-animation-6" stroke-dasharray="283 566" stroke-linecap="round"></path>
    
      <clipPath id="make-me-a-hanzi-clip-7">
        <path d="M 470 423 Q 471 423 473 422 Q 480 421 490 422 Q 560 441 708 456 C 738 459 737 462 713 480 Q 710 483 706 485 Q 688 497 648 479 L 628 475 Q 540 454 468 445 C 438 441 440 428 470 423 Z"></path>
      </clipPath>
      <path clip-path="url(#make-me-a-hanzi-clip-7)" d="M 474 429 L 705 476" fill="none" id="make-me-a-hanzi-animation-7" stroke-dasharray="364 728" stroke-linecap="round"></path>
    
      <clipPath id="make-me-a-hanzi-clip-8">
        <path d="M 438 341 Q 442 351 435 359 Q 419 375 402 383 Q 389 389 383 384 Q 376 380 382 369 Q 404 320 397 249 Q 393 215 362 182 Q 341 163 371 127 Q 380 121 389 132 Q 402 148 508 211 Q 523 218 527 224 Q 531 230 524 232 Q 515 232 497 225 Q 472 218 443 210 Q 427 204 429 219 Q 435 274 436 318 Q 436 331 438 341 Z"></path>
      </clipPath>
      <path clip-path="url(#make-me-a-hanzi-clip-8)" d="M 390 376 L 415 346 L 417 286 L 408 186 L 449 193 L 519 226" fill="none" id="make-me-a-hanzi-animation-8" stroke-dasharray="446 892" stroke-linecap="round"></path>
    
      <clipPath id="make-me-a-hanzi-clip-9">
        <path d="M 472 352 Q 517 322 533 323 Q 542 324 542 336 Q 541 343 532 354 Q 517 369 470 369 Q 466 368 466 361 Q 467 357 472 352 Z"></path>
      </clipPath>
      <path clip-path="url(#make-me-a-hanzi-clip-9)" d="M 476 361 L 511 348 L 530 334" fill="none" id="make-me-a-hanzi-animation-9" stroke-dasharray="189 378" stroke-linecap="round"></path>
    
      <clipPath id="make-me-a-hanzi-clip-10">
        <path d="M 468 288 Q 516 255 529 256 Q 536 257 538 269 Q 537 276 529 287 Q 520 296 504 299 Q 477 305 467 304 Q 461 304 462 297 Q 462 293 468 288 Z"></path>
      </clipPath>
      <path clip-path="url(#make-me-a-hanzi-clip-10)" d="M 471 296 L 507 283 L 527 267" fill="none" id="make-me-a-hanzi-animation-10" stroke-dasharray="192 384" stroke-linecap="round"></path>
    
      <clipPath id="make-me-a-hanzi-clip-11">
        <path d="M 606 378 Q 605 390 598 395 Q 576 416 560 419 Q 550 420 544 417 Q 537 411 545 399 Q 561 369 561 342 Q 564 248 557 215 Q 553 190 541 176 Q 529 158 536 140 Q 545 112 559 101 Q 568 94 579 110 Q 603 138 684 209 Q 700 219 702 227 Q 703 237 685 229 Q 607 199 603 200 Q 596 206 597 224 Q 600 338 606 370 L 606 378 Z"></path>
      </clipPath>
      <path clip-path="url(#make-me-a-hanzi-clip-11)" d="M 550 410 L 568 396 L 581 374 L 576 202 L 582 168 L 609 175 L 694 226" fill="none" id="make-me-a-hanzi-animation-11" stroke-dasharray="510 1020" stroke-linecap="round"></path>
    
      <clipPath id="make-me-a-hanzi-clip-12">
        <path d="M 606 370 Q 607 366 652 337 Q 664 330 673 332 Q 680 333 682 345 Q 681 352 673 363 Q 664 372 648 375 Q 621 381 611 380 Q 607 380 606 378 C 602 375 602 375 606 370 Z"></path>
      </clipPath>
      <path clip-path="url(#make-me-a-hanzi-clip-12)" d="M 611 374 L 668 345" fill="none" id="make-me-a-hanzi-animation-12" stroke-dasharray="192 384" stroke-linecap="round"></path>
    
      <clipPath id="make-me-a-hanzi-clip-13">
        <path d="M 610 299 Q 649 260 665 261 Q 672 261 675 273 Q 675 280 669 292 Q 653 314 611 315 Q 605 316 606 309 Q 605 305 610 299 Z"></path>
      </clipPath>
      <path clip-path="url(#make-me-a-hanzi-clip-13)" d="M 615 307 L 645 291 L 663 273" fill="none" id="make-me-a-hanzi-animation-13" stroke-dasharray="187 374" stroke-linecap="round"></path>
    
      <clipPath id="make-me-a-hanzi-clip-14">
        <path d="M 756 372 Q 763 390 741 405 Q 719 423 708 422 Q 693 421 695 409 Q 707 384 710 349 Q 716 148 835 101 Q 836 101 840 99 Q 889 83 910 89 Q 929 96 919 125 Q 910 149 904 186 Q 901 226 897 230 Q 890 237 887 227 Q 883 214 879 189 Q 873 158 861 154 Q 848 150 819 168 Q 759 208 752 289 Q 748 346 756 372 Z"></path>
      </clipPath>
      <path clip-path="url(#make-me-a-hanzi-clip-14)" d="M 706 411 L 731 379 L 733 297 L 746 229 L 758 202 L 790 160 L 839 128 L 881 125 L 890 156 L 893 225" fill="none" id="make-me-a-hanzi-animation-14" stroke-dasharray="604 1208" stroke-linecap="round"></path>
    
      <clipPath id="make-me-a-hanzi-clip-15">
        <path d="M 187 667 Q 223 636 261 600 Q 274 587 292 586 Q 302 587 309 601 Q 313 616 305 647 Q 293 686 183 718 Q 167 722 160 719 Q 154 715 156 702 Q 160 690 187 667 Z"></path>
      </clipPath>
      <path clip-path="url(#make-me-a-hanzi-clip-15)" d="M 166 711 L 260 648 L 289 604" fill="none" id="make-me-a-hanzi-animation-15" stroke-dasharray="294 588" stroke-linecap="round"></path>
    
      <clipPath id="make-me-a-hanzi-clip-16">
        <path d="M 275 146 Q 282 153 285 165 Q 291 199 250 266 Q 223 317 282 392 Q 288 402 296 409 Q 317 425 299 441 Q 280 457 247 471 Q 228 484 209 468 Q 182 450 147 439 Q 101 423 85 425 Q 78 426 76 421 Q 75 417 82 412 Q 112 393 197 417 Q 207 420 216 406 Q 235 387 216 359 Q 170 311 219 241 Q 253 180 249 147 C 249 117 259 121 275 146 Z"></path>
      </clipPath>
      <path clip-path="url(#make-me-a-hanzi-clip-16)" d="M 82 419 L 132 418 L 218 441 L 230 441 L 251 425 L 253 401 L 247 379 L 219 320 L 217 301 L 223 275 L 261 201 L 267 172 L 256 152" fill="none" id="make-me-a-hanzi-animation-16" stroke-dasharray="599 1198" stroke-linecap="round"></path>
    
      <clipPath id="make-me-a-hanzi-clip-17">
        <path d="M 249 147 Q 204 148 160 133 Q 129 121 82 117 Q 76 117 72 108 Q 69 101 78 91 Q 96 73 120 62 Q 132 56 150 71 Q 207 116 276 107 Q 346 94 492 37 Q 741 -65 823 -34 Q 881 -12 931 25 Q 953 41 929 40 Q 704 31 555 64 Q 464 86 344 129 Q 310 142 275 146 L 249 147 Z"></path>
      </clipPath>
      <path clip-path="url(#make-me-a-hanzi-clip-17)" d="M 85 104 L 131 94 L 214 125 L 279 127 L 576 32 L 684 8 L 762 -1 L 817 2 L 920 31" fill="none" id="make-me-a-hanzi-animation-17" stroke-dasharray="992 1984" stroke-linecap="round"></path>
    
  </g>
</svg>