<svg version="1.1" viewBox="0 0 1024 1024" xmlns="http://www.w3.org/2000/svg">
  <g stroke="lightgray" stroke-dasharray="1,1" stroke-width="1" transform="scale(4, 4)">
    <line x1="0" y1="0" x2="256" y2="256"></line>
    <line x1="256" y1="0" x2="0" y2="256"></line>
    <line x1="128" y1="0" x2="128" y2="256"></line>
    <line x1="0" y1="128" x2="256" y2="128"></line>
  </g>
  <g transform="scale(1, -1) translate(0, -900)">
    <style type="text/css">
      
        @keyframes keyframes0 {
          from {
            stroke: blue;
            stroke-dashoffset: 405;
            stroke-width: 128;
          }
          57% {
            animation-timing-function: step-end;
            stroke: blue;
            stroke-dashoffset: 0;
            stroke-width: 128;
          }
          to {
            stroke: black;
            stroke-width: 1024;
          }
        }
        #make-me-a-hanzi-animation-0 {
          animation: keyframes0 0.57958984375s both;
          animation-delay: 0s;
          animation-timing-function: linear;
        }
      
        @keyframes keyframes1 {
          from {
            stroke: blue;
            stroke-dashoffset: 550;
            stroke-width: 128;
          }
          64% {
            animation-timing-function: step-end;
            stroke: blue;
            stroke-dashoffset: 0;
            stroke-width: 128;
          }
          to {
            stroke: black;
            stroke-width: 1024;
          }
        }
        #make-me-a-hanzi-animation-1 {
          animation: keyframes1 0.6975911458333334s both;
          animation-delay: 0.57958984375s;
          animation-timing-function: linear;
        }
      
        @keyframes keyframes2 {
          from {
            stroke: blue;
            stroke-dashoffset: 852;
            stroke-width: 128;
          }
          73% {
            animation-timing-function: step-end;
            stroke: blue;
            stroke-dashoffset: 0;
            stroke-width: 128;
          }
          to {
            stroke: black;
            stroke-width: 1024;
          }
        }
        #make-me-a-hanzi-animation-2 {
          animation: keyframes2 0.943359375s both;
          animation-delay: 1.2771809895833335s;
          animation-timing-function: linear;
        }
      
        @keyframes keyframes3 {
          from {
            stroke: blue;
            stroke-dashoffset: 1067;
            stroke-width: 128;
          }
          78% {
            animation-timing-function: step-end;
            stroke: blue;
            stroke-dashoffset: 0;
            stroke-width: 128;
          }
          to {
            stroke: black;
            stroke-width: 1024;
          }
        }
        #make-me-a-hanzi-animation-3 {
          animation: keyframes3 1.1183268229166667s both;
          animation-delay: 2.2205403645833335s;
          animation-timing-function: linear;
        }
      
        @keyframes keyframes4 {
          from {
            stroke: blue;
            stroke-dashoffset: 981;
            stroke-width: 128;
          }
          76% {
            animation-timing-function: step-end;
            stroke: blue;
            stroke-dashoffset: 0;
            stroke-width: 128;
          }
          to {
            stroke: black;
            stroke-width: 1024;
          }
        }
        #make-me-a-hanzi-animation-4 {
          animation: keyframes4 1.04833984375s both;
          animation-delay: 3.3388671875s;
          animation-timing-function: linear;
        }
      
    </style>
    
      <path d="M 372 762 Q 406 737 442 708 Q 455 696 471 698 Q 481 699 485 712 Q 489 727 478 755 Q 466 786 365 807 Q 349 810 344 807 Q 340 803 341 791 Q 345 781 372 762 Z" fill="lightgray"></path>
    
      <path d="M 267 556 Q 303 550 354 561 Q 546 607 552 611 Q 561 620 555 628 Q 548 640 518 647 Q 488 651 397 619 Q 322 600 255 590 C 225 585 237 560 267 556 Z" fill="lightgray"></path>
    
      <path d="M 255 590 Q 216 620 195 613 Q 185 606 190 594 Q 202 579 203 521 Q 202 511 202 496 Q 196 357 159 254 Q 126 167 62 68 Q 58 62 56 57 Q 53 47 63 49 Q 93 55 165 165 Q 172 181 182 198 Q 234 319 260 524 Q 260 539 267 556 C 274 577 274 577 255 590 Z" fill="lightgray"></path>
    
      <path d="M 661 629 Q 676 635 764 667 Q 767 668 777 663 Q 787 656 779 633 Q 731 512 732 509 Q 731 496 754 489 Q 866 407 851 322 Q 848 313 841 306 Q 826 296 798 302 Q 755 312 719 319 Q 710 320 711 313 Q 712 306 728 294 Q 806 251 826 219 Q 833 204 847 203 Q 859 202 875 214 Q 912 260 915 316 Q 918 404 799 500 Q 765 521 791 552 Q 813 585 831 605 Q 849 632 874 644 Q 905 662 878 682 Q 838 713 813 725 Q 795 731 779 720 Q 746 695 641 659 C 613 649 633 618 661 629 Z" fill="lightgray"></path>
    
      <path d="M 606 -11 Q 610 -36 618 -45 Q 624 -52 631 -50 Q 647 -40 651 17 Q 658 102 655 187 Q 634 514 661 629 C 664 645 664 645 641 659 Q 616 675 602 678 Q 589 682 574 673 Q 565 666 573 655 Q 577 645 585 635 Q 598 610 600 574 Q 604 423 600 186 Q 599 38 606 -11 Z" fill="lightgray"></path>
    
    
      <clipPath id="make-me-a-hanzi-clip-0">
        <path d="M 372 762 Q 406 737 442 708 Q 455 696 471 698 Q 481 699 485 712 Q 489 727 478 755 Q 466 786 365 807 Q 349 810 344 807 Q 340 803 341 791 Q 345 781 372 762 Z"></path>
      </clipPath>
      <path clip-path="url(#make-me-a-hanzi-clip-0)" d="M 349 801 L 436 753 L 468 715" fill="none" id="make-me-a-hanzi-animation-0" stroke-dasharray="277 554" stroke-linecap="round"></path>
    
      <clipPath id="make-me-a-hanzi-clip-1">
        <path d="M 267 556 Q 303 550 354 561 Q 546 607 552 611 Q 561 620 555 628 Q 548 640 518 647 Q 488 651 397 619 Q 322 600 255 590 C 225 585 237 560 267 556 Z"></path>
      </clipPath>
      <path clip-path="url(#make-me-a-hanzi-clip-1)" d="M 262 586 L 282 574 L 299 575 L 363 585 L 497 622 L 547 620" fill="none" id="make-me-a-hanzi-animation-1" stroke-dasharray="422 844" stroke-linecap="round"></path>
    
      <clipPath id="make-me-a-hanzi-clip-2">
        <path d="M 255 590 Q 216 620 195 613 Q 185 606 190 594 Q 202 579 203 521 Q 202 511 202 496 Q 196 357 159 254 Q 126 167 62 68 Q 58 62 56 57 Q 53 47 63 49 Q 93 55 165 165 Q 172 181 182 198 Q 234 319 260 524 Q 260 539 267 556 C 274 577 274 577 255 590 Z"></path>
      </clipPath>
      <path clip-path="url(#make-me-a-hanzi-clip-2)" d="M 201 602 L 229 572 L 233 546 L 222 427 L 204 330 L 175 235 L 143 165 L 64 57" fill="none" id="make-me-a-hanzi-animation-2" stroke-dasharray="724 1448" stroke-linecap="round"></path>
    
      <clipPath id="make-me-a-hanzi-clip-3">
        <path d="M 661 629 Q 676 635 764 667 Q 767 668 777 663 Q 787 656 779 633 Q 731 512 732 509 Q 731 496 754 489 Q 866 407 851 322 Q 848 313 841 306 Q 826 296 798 302 Q 755 312 719 319 Q 710 320 711 313 Q 712 306 728 294 Q 806 251 826 219 Q 833 204 847 203 Q 859 202 875 214 Q 912 260 915 316 Q 918 404 799 500 Q 765 521 791 552 Q 813 585 831 605 Q 849 632 874 644 Q 905 662 878 682 Q 838 713 813 725 Q 795 731 779 720 Q 746 695 641 659 C 613 649 633 618 661 629 Z"></path>
      </clipPath>
      <path clip-path="url(#make-me-a-hanzi-clip-3)" d="M 652 659 L 668 650 L 755 685 L 794 691 L 802 690 L 825 665 L 766 551 L 758 513 L 825 453 L 857 413 L 882 352 L 879 299 L 867 277 L 849 261 L 718 312" fill="none" id="make-me-a-hanzi-animation-3" stroke-dasharray="939 1878" stroke-linecap="round"></path>
    
      <clipPath id="make-me-a-hanzi-clip-4">
        <path d="M 606 -11 Q 610 -36 618 -45 Q 624 -52 631 -50 Q 647 -40 651 17 Q 658 102 655 187 Q 634 514 661 629 C 664 645 664 645 641 659 Q 616 675 602 678 Q 589 682 574 673 Q 565 666 573 655 Q 577 645 585 635 Q 598 610 600 574 Q 604 423 600 186 Q 599 38 606 -11 Z"></path>
      </clipPath>
      <path clip-path="url(#make-me-a-hanzi-clip-4)" d="M 581 664 L 619 637 L 626 612 L 627 -40" fill="none" id="make-me-a-hanzi-animation-4" stroke-dasharray="853 1706" stroke-linecap="round"></path>
    
  </g>
</svg>