<svg version="1.1" viewBox="0 0 1024 1024" xmlns="http://www.w3.org/2000/svg">
  <g stroke="lightgray" stroke-dasharray="1,1" stroke-width="1" transform="scale(4, 4)">
    <line x1="0" y1="0" x2="256" y2="256"></line>
    <line x1="256" y1="0" x2="0" y2="256"></line>
    <line x1="128" y1="0" x2="128" y2="256"></line>
    <line x1="0" y1="128" x2="256" y2="128"></line>
  </g>
  <g transform="scale(1, -1) translate(0, -900)">
    <style type="text/css">
      
        @keyframes keyframes0 {
          from {
            stroke: blue;
            stroke-dashoffset: 568;
            stroke-width: 128;
          }
          65% {
            animation-timing-function: step-end;
            stroke: blue;
            stroke-dashoffset: 0;
            stroke-width: 128;
          }
          to {
            stroke: black;
            stroke-width: 1024;
          }
        }
        #make-me-a-hanzi-animation-0 {
          animation: keyframes0 0.7122395833333334s both;
          animation-delay: 0s;
          animation-timing-function: linear;
        }
      
        @keyframes keyframes1 {
          from {
            stroke: blue;
            stroke-dashoffset: 695;
            stroke-width: 128;
          }
          69% {
            animation-timing-function: step-end;
            stroke: blue;
            stroke-dashoffset: 0;
            stroke-width: 128;
          }
          to {
            stroke: black;
            stroke-width: 1024;
          }
        }
        #make-me-a-hanzi-animation-1 {
          animation: keyframes1 0.8155924479166666s both;
          animation-delay: 0.7122395833333334s;
          animation-timing-function: linear;
        }
      
        @keyframes keyframes2 {
          from {
            stroke: blue;
            stroke-dashoffset: 969;
            stroke-width: 128;
          }
          76% {
            animation-timing-function: step-end;
            stroke: blue;
            stroke-dashoffset: 0;
            stroke-width: 128;
          }
          to {
            stroke: black;
            stroke-width: 1024;
          }
        }
        #make-me-a-hanzi-animation-2 {
          animation: keyframes2 1.03857421875s both;
          animation-delay: 1.52783203125s;
          animation-timing-function: linear;
        }
      
        @keyframes keyframes3 {
          from {
            stroke: blue;
            stroke-dashoffset: 592;
            stroke-width: 128;
          }
          66% {
            animation-timing-function: step-end;
            stroke: blue;
            stroke-dashoffset: 0;
            stroke-width: 128;
          }
          to {
            stroke: black;
            stroke-width: 1024;
          }
        }
        #make-me-a-hanzi-animation-3 {
          animation: keyframes3 0.7317708333333334s both;
          animation-delay: 2.56640625s;
          animation-timing-function: linear;
        }
      
        @keyframes keyframes4 {
          from {
            stroke: blue;
            stroke-dashoffset: 609;
            stroke-width: 128;
          }
          66% {
            animation-timing-function: step-end;
            stroke: blue;
            stroke-dashoffset: 0;
            stroke-width: 128;
          }
          to {
            stroke: black;
            stroke-width: 1024;
          }
        }
        #make-me-a-hanzi-animation-4 {
          animation: keyframes4 0.74560546875s both;
          animation-delay: 3.2981770833333335s;
          animation-timing-function: linear;
        }
      
        @keyframes keyframes5 {
          from {
            stroke: blue;
            stroke-dashoffset: 417;
            stroke-width: 128;
          }
          58% {
            animation-timing-function: step-end;
            stroke: blue;
            stroke-dashoffset: 0;
            stroke-width: 128;
          }
          to {
            stroke: black;
            stroke-width: 1024;
          }
        }
        #make-me-a-hanzi-animation-5 {
          animation: keyframes5 0.58935546875s both;
          animation-delay: 4.043782552083334s;
          animation-timing-function: linear;
        }
      
        @keyframes keyframes6 {
          from {
            stroke: blue;
            stroke-dashoffset: 493;
            stroke-width: 128;
          }
          62% {
            animation-timing-function: step-end;
            stroke: blue;
            stroke-dashoffset: 0;
            stroke-width: 128;
          }
          to {
            stroke: black;
            stroke-width: 1024;
          }
        }
        #make-me-a-hanzi-animation-6 {
          animation: keyframes6 0.6512044270833334s both;
          animation-delay: 4.633138020833334s;
          animation-timing-function: linear;
        }
      
        @keyframes keyframes7 {
          from {
            stroke: blue;
            stroke-dashoffset: 385;
            stroke-width: 128;
          }
          56% {
            animation-timing-function: step-end;
            stroke: blue;
            stroke-dashoffset: 0;
            stroke-width: 128;
          }
          to {
            stroke: black;
            stroke-width: 1024;
          }
        }
        #make-me-a-hanzi-animation-7 {
          animation: keyframes7 0.5633138020833334s both;
          animation-delay: 5.284342447916667s;
          animation-timing-function: linear;
        }
      
        @keyframes keyframes8 {
          from {
            stroke: blue;
            stroke-dashoffset: 549;
            stroke-width: 128;
          }
          64% {
            animation-timing-function: step-end;
            stroke: blue;
            stroke-dashoffset: 0;
            stroke-width: 128;
          }
          to {
            stroke: black;
            stroke-width: 1024;
          }
        }
        #make-me-a-hanzi-animation-8 {
          animation: keyframes8 0.69677734375s both;
          animation-delay: 5.84765625s;
          animation-timing-function: linear;
        }
      
        @keyframes keyframes9 {
          from {
            stroke: blue;
            stroke-dashoffset: 490;
            stroke-width: 128;
          }
          61% {
            animation-timing-function: step-end;
            stroke: blue;
            stroke-dashoffset: 0;
            stroke-width: 128;
          }
          to {
            stroke: black;
            stroke-width: 1024;
          }
        }
        #make-me-a-hanzi-animation-9 {
          animation: keyframes9 0.6487630208333334s both;
          animation-delay: 6.54443359375s;
          animation-timing-function: linear;
        }
      
        @keyframes keyframes10 {
          from {
            stroke: blue;
            stroke-dashoffset: 325;
            stroke-width: 128;
          }
          51% {
            animation-timing-function: step-end;
            stroke: blue;
            stroke-dashoffset: 0;
            stroke-width: 128;
          }
          to {
            stroke: black;
            stroke-width: 1024;
          }
        }
        #make-me-a-hanzi-animation-10 {
          animation: keyframes10 0.5144856770833334s both;
          animation-delay: 7.193196614583333s;
          animation-timing-function: linear;
        }
      
        @keyframes keyframes11 {
          from {
            stroke: blue;
            stroke-dashoffset: 524;
            stroke-width: 128;
          }
          63% {
            animation-timing-function: step-end;
            stroke: blue;
            stroke-dashoffset: 0;
            stroke-width: 128;
          }
          to {
            stroke: black;
            stroke-width: 1024;
          }
        }
        #make-me-a-hanzi-animation-11 {
          animation: keyframes11 0.6764322916666666s both;
          animation-delay: 7.707682291666666s;
          animation-timing-function: linear;
        }
      
        @keyframes keyframes12 {
          from {
            stroke: blue;
            stroke-dashoffset: 377;
            stroke-width: 128;
          }
          55% {
            animation-timing-function: step-end;
            stroke: blue;
            stroke-dashoffset: 0;
            stroke-width: 128;
          }
          to {
            stroke: black;
            stroke-width: 1024;
          }
        }
        #make-me-a-hanzi-animation-12 {
          animation: keyframes12 0.5568033854166666s both;
          animation-delay: 8.384114583333332s;
          animation-timing-function: linear;
        }
      
        @keyframes keyframes13 {
          from {
            stroke: blue;
            stroke-dashoffset: 719;
            stroke-width: 128;
          }
          70% {
            animation-timing-function: step-end;
            stroke: blue;
            stroke-dashoffset: 0;
            stroke-width: 128;
          }
          to {
            stroke: black;
            stroke-width: 1024;
          }
        }
        #make-me-a-hanzi-animation-13 {
          animation: keyframes13 0.8351236979166666s both;
          animation-delay: 8.940917968749998s;
          animation-timing-function: linear;
        }
      
        @keyframes keyframes14 {
          from {
            stroke: blue;
            stroke-dashoffset: 727;
            stroke-width: 128;
          }
          70% {
            animation-timing-function: step-end;
            stroke: blue;
            stroke-dashoffset: 0;
            stroke-width: 128;
          }
          to {
            stroke: black;
            stroke-width: 1024;
          }
        }
        #make-me-a-hanzi-animation-14 {
          animation: keyframes14 0.8416341145833334s both;
          animation-delay: 9.776041666666664s;
          animation-timing-function: linear;
        }
      
    </style>
    
      <path d="M 329 714 Q 446 744 451 746 Q 458 753 455 761 Q 448 771 422 778 Q 401 782 290 748 Q 235 733 148 722 Q 114 716 139 701 Q 166 686 200 686 L 237 693 Q 261 699 287 704 L 329 714 Z" fill="lightgray"></path>
    
      <path d="M 148 553 Q 147 554 146 555 Q 127 570 104 577 Q 97 578 91 571 Q 88 567 94 557 Q 133 467 109 276 Q 105 245 95 212 Q 89 190 93 174 Q 100 146 111 135 Q 121 123 129 135 Q 138 147 143 172 L 148 201 Q 151 226 152 366 Q 152 489 157 526 C 159 545 159 545 148 553 Z" fill="lightgray"></path>
    
      <path d="M 358 190 Q 382 159 400 130 Q 407 115 417 116 Q 430 117 444 145 Q 459 176 456 217 Q 449 317 443 506 Q 442 533 456 552 Q 463 562 455 572 Q 439 588 394 608 Q 379 614 332 593 L 301 583 Q 276 579 254 571 L 219 564 Q 173 557 148 553 C 118 548 127 524 157 526 Q 175 525 207 533 Q 211 534 219 535 L 251 542 Q 273 548 300 553 L 330 559 Q 366 574 385 559 Q 395 550 400 472 Q 400 460 401 447 L 402 419 Q 402 359 395 219 Q 392 210 388 208 C 378 180 342 212 358 190 Z" fill="lightgray"></path>
    
      <path d="M 200 686 Q 212 674 216 632 Q 219 598 219 564 L 219 535 Q 213 469 178 381 Q 175 377 174 373 Q 174 366 180 368 Q 190 371 205 398 Q 250 459 251 542 L 254 571 Q 255 595 255 618 Q 252 651 255 666 Q 259 676 254 683 Q 247 689 237 693 C 210 706 183 711 200 686 Z" fill="lightgray"></path>
    
      <path d="M 332 593 Q 335 638 349 689 Q 352 699 345 707 Q 339 711 329 714 C 301 725 271 730 287 704 Q 305 686 301 583 L 300 553 Q 291 447 328 416 Q 338 409 380 413 Q 393 414 402 419 C 430 430 431 445 401 447 Q 397 448 394 448 Q 358 445 350 450 Q 326 466 330 559 L 332 593 Z" fill="lightgray"></path>
    
      <path d="M 191 312 Q 175 309 194 295 Q 201 289 217 291 Q 292 303 347 309 Q 369 313 361 325 Q 351 338 327 343 Q 303 346 191 312 Z" fill="lightgray"></path>
    
      <path d="M 143 172 Q 144 172 146 171 Q 156 168 168 171 Q 229 183 358 190 C 388 192 404 193 388 208 Q 382 215 364 228 Q 349 237 320 231 Q 226 210 148 201 C 118 197 114 180 143 172 Z" fill="lightgray"></path>
    
      <path d="M 629 798 Q 654 779 682 756 Q 695 744 711 746 Q 721 747 725 760 Q 728 775 718 803 Q 705 833 621 844 Q 605 845 600 843 Q 596 839 598 827 Q 602 817 629 798 Z" fill="lightgray"></path>
    
      <path d="M 531 682 Q 498 676 522 661 Q 562 643 623 656 Q 696 674 776 691 Q 813 701 819 706 Q 828 713 823 721 Q 816 731 789 738 Q 765 742 676 711 Q 601 692 531 682 Z" fill="lightgray"></path>
    
      <path d="M 568 504 Q 571 516 607 574 Q 614 584 603 595 Q 566 617 550 613 Q 543 612 545 600 Q 560 531 489 442 Q 473 421 464 409 Q 460 397 470 402 Q 507 411 555 483 L 568 504 Z" fill="lightgray"></path>
    
      <path d="M 555 483 Q 604 434 622 433 Q 632 433 636 446 Q 636 456 629 471 Q 617 486 568 504 C 540 514 534 504 555 483 Z" fill="lightgray"></path>
    
      <path d="M 663 423 Q 694 438 749 509 L 760 527 Q 767 540 775 553 Q 793 590 810 620 Q 817 630 804 642 Q 768 667 747 661 Q 738 658 741 647 Q 756 581 683 471 Q 673 461 652 430 Q 651 429 650 426 C 641 410 641 410 663 423 Z" fill="lightgray"></path>
    
      <path d="M 749 509 Q 753 502 771 490 Q 804 468 839 441 Q 849 431 862 433 Q 869 434 873 444 Q 876 456 868 478 Q 856 511 765 527 Q 762 528 760 527 C 736 527 736 527 749 509 Z" fill="lightgray"></path>
    
      <path d="M 696 309 Q 768 321 880 323 Q 929 323 936 333 Q 940 343 925 355 Q 871 392 812 371 Q 764 362 697 346 L 644 337 Q 565 324 474 308 Q 455 305 470 291 Q 483 279 499 275 Q 518 271 533 275 Q 585 291 645 300 L 696 309 Z" fill="lightgray"></path>
    
      <path d="M 648 -15 Q 652 -37 659 -46 Q 663 -52 671 -50 Q 698 -29 694 113 Q 693 155 696 309 L 697 346 Q 700 358 704 381 Q 707 397 695 405 Q 676 418 663 423 L 650 426 Q 640 430 628 423 Q 621 416 626 406 Q 644 382 644 337 L 645 300 Q 645 6 648 -15 Z" fill="lightgray"></path>
    
    
      <clipPath id="make-me-a-hanzi-clip-0">
        <path d="M 329 714 Q 446 744 451 746 Q 458 753 455 761 Q 448 771 422 778 Q 401 782 290 748 Q 235 733 148 722 Q 114 716 139 701 Q 166 686 200 686 L 237 693 Q 261 699 287 704 L 329 714 Z"></path>
      </clipPath>
      <path clip-path="url(#make-me-a-hanzi-clip-0)" d="M 141 713 L 151 708 L 202 708 L 414 758 L 446 755" fill="none" id="make-me-a-hanzi-animation-0" stroke-dasharray="440 880" stroke-linecap="round"></path>
    
      <clipPath id="make-me-a-hanzi-clip-1">
        <path d="M 148 553 Q 147 554 146 555 Q 127 570 104 577 Q 97 578 91 571 Q 88 567 94 557 Q 133 467 109 276 Q 105 245 95 212 Q 89 190 93 174 Q 100 146 111 135 Q 121 123 129 135 Q 138 147 143 172 L 148 201 Q 151 226 152 366 Q 152 489 157 526 C 159 545 159 545 148 553 Z"></path>
      </clipPath>
      <path clip-path="url(#make-me-a-hanzi-clip-1)" d="M 101 566 L 127 537 L 133 506 L 136 354 L 131 271 L 118 190 L 120 139" fill="none" id="make-me-a-hanzi-animation-1" stroke-dasharray="567 1134" stroke-linecap="round"></path>
    
      <clipPath id="make-me-a-hanzi-clip-2">
        <path d="M 358 190 Q 382 159 400 130 Q 407 115 417 116 Q 430 117 444 145 Q 459 176 456 217 Q 449 317 443 506 Q 442 533 456 552 Q 463 562 455 572 Q 439 588 394 608 Q 379 614 332 593 L 301 583 Q 276 579 254 571 L 219 564 Q 173 557 148 553 C 118 548 127 524 157 526 Q 175 525 207 533 Q 211 534 219 535 L 251 542 Q 273 548 300 553 L 330 559 Q 366 574 385 559 Q 395 550 400 472 Q 400 460 401 447 L 402 419 Q 402 359 395 219 Q 392 210 388 208 C 378 180 342 212 358 190 Z"></path>
      </clipPath>
      <path clip-path="url(#make-me-a-hanzi-clip-2)" d="M 154 548 L 171 541 L 183 543 L 305 568 L 348 584 L 381 587 L 422 557 L 426 220 L 415 179 L 416 130" fill="none" id="make-me-a-hanzi-animation-2" stroke-dasharray="841 1682" stroke-linecap="round"></path>
    
      <clipPath id="make-me-a-hanzi-clip-3">
        <path d="M 200 686 Q 212 674 216 632 Q 219 598 219 564 L 219 535 Q 213 469 178 381 Q 175 377 174 373 Q 174 366 180 368 Q 190 371 205 398 Q 250 459 251 542 L 254 571 Q 255 595 255 618 Q 252 651 255 666 Q 259 676 254 683 Q 247 689 237 693 C 210 706 183 711 200 686 Z"></path>
      </clipPath>
      <path clip-path="url(#make-me-a-hanzi-clip-3)" d="M 207 685 L 233 669 L 236 534 L 218 449 L 195 394 L 181 375" fill="none" id="make-me-a-hanzi-animation-3" stroke-dasharray="464 928" stroke-linecap="round"></path>
    
      <clipPath id="make-me-a-hanzi-clip-4">
        <path d="M 332 593 Q 335 638 349 689 Q 352 699 345 707 Q 339 711 329 714 C 301 725 271 730 287 704 Q 305 686 301 583 L 300 553 Q 291 447 328 416 Q 338 409 380 413 Q 393 414 402 419 C 430 430 431 445 401 447 Q 397 448 394 448 Q 358 445 350 450 Q 326 466 330 559 L 332 593 Z"></path>
      </clipPath>
      <path clip-path="url(#make-me-a-hanzi-clip-4)" d="M 294 705 L 322 686 L 313 520 L 322 457 L 343 431 L 369 428 L 396 440" fill="none" id="make-me-a-hanzi-animation-4" stroke-dasharray="481 962" stroke-linecap="round"></path>
    
      <clipPath id="make-me-a-hanzi-clip-5">
        <path d="M 191 312 Q 175 309 194 295 Q 201 289 217 291 Q 292 303 347 309 Q 369 313 361 325 Q 351 338 327 343 Q 303 346 191 312 Z"></path>
      </clipPath>
      <path clip-path="url(#make-me-a-hanzi-clip-5)" d="M 192 303 L 318 325 L 351 319" fill="none" id="make-me-a-hanzi-animation-5" stroke-dasharray="289 578" stroke-linecap="round"></path>
    
      <clipPath id="make-me-a-hanzi-clip-6">
        <path d="M 143 172 Q 144 172 146 171 Q 156 168 168 171 Q 229 183 358 190 C 388 192 404 193 388 208 Q 382 215 364 228 Q 349 237 320 231 Q 226 210 148 201 C 118 197 114 180 143 172 Z"></path>
      </clipPath>
      <path clip-path="url(#make-me-a-hanzi-clip-6)" d="M 147 179 L 186 191 L 299 207 L 381 209" fill="none" id="make-me-a-hanzi-animation-6" stroke-dasharray="365 730" stroke-linecap="round"></path>
    
      <clipPath id="make-me-a-hanzi-clip-7">
        <path d="M 629 798 Q 654 779 682 756 Q 695 744 711 746 Q 721 747 725 760 Q 728 775 718 803 Q 705 833 621 844 Q 605 845 600 843 Q 596 839 598 827 Q 602 817 629 798 Z"></path>
      </clipPath>
      <path clip-path="url(#make-me-a-hanzi-clip-7)" d="M 605 837 L 685 794 L 708 763" fill="none" id="make-me-a-hanzi-animation-7" stroke-dasharray="257 514" stroke-linecap="round"></path>
    
      <clipPath id="make-me-a-hanzi-clip-8">
        <path d="M 531 682 Q 498 676 522 661 Q 562 643 623 656 Q 696 674 776 691 Q 813 701 819 706 Q 828 713 823 721 Q 816 731 789 738 Q 765 742 676 711 Q 601 692 531 682 Z"></path>
      </clipPath>
      <path clip-path="url(#make-me-a-hanzi-clip-8)" d="M 524 673 L 568 669 L 611 674 L 760 712 L 812 716" fill="none" id="make-me-a-hanzi-animation-8" stroke-dasharray="421 842" stroke-linecap="round"></path>
    
      <clipPath id="make-me-a-hanzi-clip-9">
        <path d="M 568 504 Q 571 516 607 574 Q 614 584 603 595 Q 566 617 550 613 Q 543 612 545 600 Q 560 531 489 442 Q 473 421 464 409 Q 460 397 470 402 Q 507 411 555 483 L 568 504 Z"></path>
      </clipPath>
      <path clip-path="url(#make-me-a-hanzi-clip-9)" d="M 555 604 L 576 577 L 566 544 L 527 467 L 472 410" fill="none" id="make-me-a-hanzi-animation-9" stroke-dasharray="362 724" stroke-linecap="round"></path>
    
      <clipPath id="make-me-a-hanzi-clip-10">
        <path d="M 555 483 Q 604 434 622 433 Q 632 433 636 446 Q 636 456 629 471 Q 617 486 568 504 C 540 514 534 504 555 483 Z"></path>
      </clipPath>
      <path clip-path="url(#make-me-a-hanzi-clip-10)" d="M 574 493 L 575 484 L 607 464 L 622 447" fill="none" id="make-me-a-hanzi-animation-10" stroke-dasharray="197 394" stroke-linecap="round"></path>
    
      <clipPath id="make-me-a-hanzi-clip-11">
        <path d="M 663 423 Q 694 438 749 509 L 760 527 Q 767 540 775 553 Q 793 590 810 620 Q 817 630 804 642 Q 768 667 747 661 Q 738 658 741 647 Q 756 581 683 471 Q 673 461 652 430 Q 651 429 650 426 C 641 410 641 410 663 423 Z"></path>
      </clipPath>
      <path clip-path="url(#make-me-a-hanzi-clip-11)" d="M 754 650 L 775 623 L 758 570 L 718 494 L 657 425" fill="none" id="make-me-a-hanzi-animation-11" stroke-dasharray="396 792" stroke-linecap="round"></path>
    
      <clipPath id="make-me-a-hanzi-clip-12">
        <path d="M 749 509 Q 753 502 771 490 Q 804 468 839 441 Q 849 431 862 433 Q 869 434 873 444 Q 876 456 868 478 Q 856 511 765 527 Q 762 528 760 527 C 736 527 736 527 749 509 Z"></path>
      </clipPath>
      <path clip-path="url(#make-me-a-hanzi-clip-12)" d="M 758 510 L 770 511 L 830 481 L 857 449" fill="none" id="make-me-a-hanzi-animation-12" stroke-dasharray="249 498" stroke-linecap="round"></path>
    
      <clipPath id="make-me-a-hanzi-clip-13">
        <path d="M 696 309 Q 768 321 880 323 Q 929 323 936 333 Q 940 343 925 355 Q 871 392 812 371 Q 764 362 697 346 L 644 337 Q 565 324 474 308 Q 455 305 470 291 Q 483 279 499 275 Q 518 271 533 275 Q 585 291 645 300 L 696 309 Z"></path>
      </clipPath>
      <path clip-path="url(#make-me-a-hanzi-clip-13)" d="M 472 300 L 517 294 L 839 350 L 883 349 L 928 338" fill="none" id="make-me-a-hanzi-animation-13" stroke-dasharray="591 1182" stroke-linecap="round"></path>
    
      <clipPath id="make-me-a-hanzi-clip-14">
        <path d="M 648 -15 Q 652 -37 659 -46 Q 663 -52 671 -50 Q 698 -29 694 113 Q 693 155 696 309 L 697 346 Q 700 358 704 381 Q 707 397 695 405 Q 676 418 663 423 L 650 426 Q 640 430 628 423 Q 621 416 626 406 Q 644 382 644 337 L 645 300 Q 645 6 648 -15 Z"></path>
      </clipPath>
      <path clip-path="url(#make-me-a-hanzi-clip-14)" d="M 637 413 L 652 405 L 672 380 L 667 -42" fill="none" id="make-me-a-hanzi-animation-14" stroke-dasharray="599 1198" stroke-linecap="round"></path>
    
  </g>
</svg>