<svg version="1.1" viewBox="0 0 1024 1024" xmlns="http://www.w3.org/2000/svg">
  <g stroke="lightgray" stroke-dasharray="1,1" stroke-width="1" transform="scale(4, 4)">
    <line x1="0" y1="0" x2="256" y2="256"></line>
    <line x1="256" y1="0" x2="0" y2="256"></line>
    <line x1="128" y1="0" x2="128" y2="256"></line>
    <line x1="0" y1="128" x2="256" y2="128"></line>
  </g>
  <g transform="scale(1, -1) translate(0, -900)">
    <style type="text/css">
      
        @keyframes keyframes0 {
          from {
            stroke: blue;
            stroke-dashoffset: 587;
            stroke-width: 128;
          }
          66% {
            animation-timing-function: step-end;
            stroke: blue;
            stroke-dashoffset: 0;
            stroke-width: 128;
          }
          to {
            stroke: black;
            stroke-width: 1024;
          }
        }
        #make-me-a-hanzi-animation-0 {
          animation: keyframes0 0.7277018229166666s both;
          animation-delay: 0s;
          animation-timing-function: linear;
        }
      
        @keyframes keyframes1 {
          from {
            stroke: blue;
            stroke-dashoffset: 676;
            stroke-width: 128;
          }
          69% {
            animation-timing-function: step-end;
            stroke: blue;
            stroke-dashoffset: 0;
            stroke-width: 128;
          }
          to {
            stroke: black;
            stroke-width: 1024;
          }
        }
        #make-me-a-hanzi-animation-1 {
          animation: keyframes1 0.8001302083333334s both;
          animation-delay: 0.7277018229166666s;
          animation-timing-function: linear;
        }
      
        @keyframes keyframes2 {
          from {
            stroke: blue;
            stroke-dashoffset: 966;
            stroke-width: 128;
          }
          76% {
            animation-timing-function: step-end;
            stroke: blue;
            stroke-dashoffset: 0;
            stroke-width: 128;
          }
          to {
            stroke: black;
            stroke-width: 1024;
          }
        }
        #make-me-a-hanzi-animation-2 {
          animation: keyframes2 1.0361328125s both;
          animation-delay: 1.52783203125s;
          animation-timing-function: linear;
        }
      
        @keyframes keyframes3 {
          from {
            stroke: blue;
            stroke-dashoffset: 593;
            stroke-width: 128;
          }
          66% {
            animation-timing-function: step-end;
            stroke: blue;
            stroke-dashoffset: 0;
            stroke-width: 128;
          }
          to {
            stroke: black;
            stroke-width: 1024;
          }
        }
        #make-me-a-hanzi-animation-3 {
          animation: keyframes3 0.7325846354166666s both;
          animation-delay: 2.56396484375s;
          animation-timing-function: linear;
        }
      
        @keyframes keyframes4 {
          from {
            stroke: blue;
            stroke-dashoffset: 597;
            stroke-width: 128;
          }
          66% {
            animation-timing-function: step-end;
            stroke: blue;
            stroke-dashoffset: 0;
            stroke-width: 128;
          }
          to {
            stroke: black;
            stroke-width: 1024;
          }
        }
        #make-me-a-hanzi-animation-4 {
          animation: keyframes4 0.73583984375s both;
          animation-delay: 3.2965494791666665s;
          animation-timing-function: linear;
        }
      
        @keyframes keyframes5 {
          from {
            stroke: blue;
            stroke-dashoffset: 411;
            stroke-width: 128;
          }
          57% {
            animation-timing-function: step-end;
            stroke: blue;
            stroke-dashoffset: 0;
            stroke-width: 128;
          }
          to {
            stroke: black;
            stroke-width: 1024;
          }
        }
        #make-me-a-hanzi-animation-5 {
          animation: keyframes5 0.58447265625s both;
          animation-delay: 4.032389322916666s;
          animation-timing-function: linear;
        }
      
        @keyframes keyframes6 {
          from {
            stroke: blue;
            stroke-dashoffset: 481;
            stroke-width: 128;
          }
          61% {
            animation-timing-function: step-end;
            stroke: blue;
            stroke-dashoffset: 0;
            stroke-width: 128;
          }
          to {
            stroke: black;
            stroke-width: 1024;
          }
        }
        #make-me-a-hanzi-animation-6 {
          animation: keyframes6 0.6414388020833334s both;
          animation-delay: 4.616861979166666s;
          animation-timing-function: linear;
        }
      
        @keyframes keyframes7 {
          from {
            stroke: blue;
            stroke-dashoffset: 577;
            stroke-width: 128;
          }
          65% {
            animation-timing-function: step-end;
            stroke: blue;
            stroke-dashoffset: 0;
            stroke-width: 128;
          }
          to {
            stroke: black;
            stroke-width: 1024;
          }
        }
        #make-me-a-hanzi-animation-7 {
          animation: keyframes7 0.7195638020833334s both;
          animation-delay: 5.258300781249999s;
          animation-timing-function: linear;
        }
      
        @keyframes keyframes8 {
          from {
            stroke: blue;
            stroke-dashoffset: 780;
            stroke-width: 128;
          }
          72% {
            animation-timing-function: step-end;
            stroke: blue;
            stroke-dashoffset: 0;
            stroke-width: 128;
          }
          to {
            stroke: black;
            stroke-width: 1024;
          }
        }
        #make-me-a-hanzi-animation-8 {
          animation: keyframes8 0.884765625s both;
          animation-delay: 5.977864583333332s;
          animation-timing-function: linear;
        }
      
        @keyframes keyframes9 {
          from {
            stroke: blue;
            stroke-dashoffset: 646;
            stroke-width: 128;
          }
          68% {
            animation-timing-function: step-end;
            stroke: blue;
            stroke-dashoffset: 0;
            stroke-width: 128;
          }
          to {
            stroke: black;
            stroke-width: 1024;
          }
        }
        #make-me-a-hanzi-animation-9 {
          animation: keyframes9 0.7757161458333334s both;
          animation-delay: 6.862630208333332s;
          animation-timing-function: linear;
        }
      
        @keyframes keyframes10 {
          from {
            stroke: blue;
            stroke-dashoffset: 476;
            stroke-width: 128;
          }
          61% {
            animation-timing-function: step-end;
            stroke: blue;
            stroke-dashoffset: 0;
            stroke-width: 128;
          }
          to {
            stroke: black;
            stroke-width: 1024;
          }
        }
        #make-me-a-hanzi-animation-10 {
          animation: keyframes10 0.6373697916666666s both;
          animation-delay: 7.638346354166665s;
          animation-timing-function: linear;
        }
      
        @keyframes keyframes11 {
          from {
            stroke: blue;
            stroke-dashoffset: 750;
            stroke-width: 128;
          }
          71% {
            animation-timing-function: step-end;
            stroke: blue;
            stroke-dashoffset: 0;
            stroke-width: 128;
          }
          to {
            stroke: black;
            stroke-width: 1024;
          }
        }
        #make-me-a-hanzi-animation-11 {
          animation: keyframes11 0.8603515625s both;
          animation-delay: 8.275716145833332s;
          animation-timing-function: linear;
        }
      
        @keyframes keyframes12 {
          from {
            stroke: blue;
            stroke-dashoffset: 409;
            stroke-width: 128;
          }
          57% {
            animation-timing-function: step-end;
            stroke: blue;
            stroke-dashoffset: 0;
            stroke-width: 128;
          }
          to {
            stroke: black;
            stroke-width: 1024;
          }
        }
        #make-me-a-hanzi-animation-12 {
          animation: keyframes12 0.5828450520833334s both;
          animation-delay: 9.136067708333332s;
          animation-timing-function: linear;
        }
      
        @keyframes keyframes13 {
          from {
            stroke: blue;
            stroke-dashoffset: 433;
            stroke-width: 128;
          }
          58% {
            animation-timing-function: step-end;
            stroke: blue;
            stroke-dashoffset: 0;
            stroke-width: 128;
          }
          to {
            stroke: black;
            stroke-width: 1024;
          }
        }
        #make-me-a-hanzi-animation-13 {
          animation: keyframes13 0.6023763020833334s both;
          animation-delay: 9.718912760416666s;
          animation-timing-function: linear;
        }
      
        @keyframes keyframes14 {
          from {
            stroke: blue;
            stroke-dashoffset: 1050;
            stroke-width: 128;
          }
          77% {
            animation-timing-function: step-end;
            stroke: blue;
            stroke-dashoffset: 0;
            stroke-width: 128;
          }
          to {
            stroke: black;
            stroke-width: 1024;
          }
        }
        #make-me-a-hanzi-animation-14 {
          animation: keyframes14 1.1044921875s both;
          animation-delay: 10.3212890625s;
          animation-timing-function: linear;
        }
      
    </style>
    
      <path d="M 300 656 Q 334 663 377 668 Q 423 677 429 682 Q 438 689 434 697 Q 428 709 402 716 Q 381 722 275 695 Q 157 677 102 673 Q 68 669 91 653 Q 118 635 161 633 L 200 640 Q 225 644 254 649 L 300 656 Z" fill="lightgray"></path>
    
      <path d="M 113 505 Q 101 517 80 525 Q 71 529 61 526 Q 55 522 60 510 Q 61 503 66 494 Q 93 440 72 230 Q 51 143 83 105 Q 93 93 102 104 Q 111 117 112 131 L 115 162 Q 121 477 122 479 C 123 497 123 497 113 505 Z" fill="lightgray"></path>
    
      <path d="M 316 141 Q 338 110 356 82 Q 363 67 373 68 Q 386 69 400 97 Q 415 127 410 214 Q 394 478 415 506 Q 422 516 415 525 Q 399 541 356 561 Q 341 568 296 548 L 264 537 Q 242 531 219 525 L 184 518 Q 139 511 113 505 C 84 499 93 471 122 479 Q 165 491 185 493 L 218 500 Q 239 506 262 511 L 292 517 Q 328 529 345 516 Q 367 494 358 256 Q 358 174 346 161 C 336 133 301 162 316 141 Z" fill="lightgray"></path>
    
      <path d="M 161 633 Q 179 615 184 518 L 185 493 Q 185 435 146 317 Q 146 310 152 312 Q 161 315 176 343 Q 218 415 218 500 L 219 525 Q 216 630 214 632 Q 208 636 200 640 C 174 654 144 658 161 633 Z" fill="lightgray"></path>
    
      <path d="M 296 548 Q 302 588 315 631 Q 319 643 313 650 Q 309 654 300 656 C 272 667 236 673 254 649 Q 255 648 257 645 Q 270 630 268 593 Q 267 568 264 537 L 262 511 Q 259 486 258 458 Q 251 379 284 353 Q 287 347 308 345 Q 333 344 343 354 Q 352 361 347 368 Q 341 375 313 381 Q 309 382 307 386 Q 292 396 291 428 Q 287 468 292 517 L 296 548 Z" fill="lightgray"></path>
    
      <path d="M 158 251 Q 143 248 162 235 Q 169 229 184 232 Q 254 244 308 250 Q 329 254 321 265 Q 311 278 289 282 Q 270 285 158 251 Z" fill="lightgray"></path>
    
      <path d="M 112 131 Q 113 131 115 130 Q 125 127 139 129 Q 196 139 316 141 C 346 142 367 142 346 161 Q 339 168 322 181 Q 306 191 275 185 Q 187 169 115 162 C 85 159 83 139 112 131 Z" fill="lightgray"></path>
    
      <path d="M 626 612 Q 639 616 654 618 L 678 623 Q 711 632 749 638 Q 792 648 799 654 Q 806 661 803 669 Q 796 679 770 687 Q 742 691 715 681 Q 678 669 639 657 L 583 644 Q 537 637 484 630 Q 451 624 475 609 Q 514 588 564 599 Q 565 600 568 599 L 626 612 Z" fill="lightgray"></path>
    
      <path d="M 470 387 Q 584 489 626 612 L 639 657 Q 670 799 670 803 L 669 804 Q 660 813 628 823 Q 604 830 596 827 Q 583 820 588 806 Q 609 740 583 644 L 568 599 Q 541 512 420 369 Q 414 360 421 359 Q 427 359 448 371 L 470 387 Z" fill="lightgray"></path>
    
      <path d="M 654 618 Q 669 588 797 446 Q 834 406 976 427 Q 992 428 994 433 Q 995 439 983 444 Q 944 460 898 476 Q 804 512 678 623 C 655 643 638 644 654 618 Z" fill="lightgray"></path>
    
      <path d="M 506 374 Q 497 380 470 387 C 441 395 438 396 448 371 Q 473 311 485 215 Q 486 187 502 167 Q 517 146 522 160 Q 525 167 526 178 L 527 201 Q 518 258 511 344 C 509 373 509 373 506 374 Z" fill="lightgray"></path>
    
      <path d="M 694 198 Q 709 170 724 162 Q 734 155 749 173 Q 762 192 797 302 Q 806 330 828 351 Q 841 361 831 375 Q 818 391 781 417 Q 763 426 749 422 Q 724 415 687 408 Q 669 407 651 401 L 602 392 Q 592 391 582 389 Q 540 380 506 374 C 476 369 481 339 511 344 Q 515 344 522 345 Q 553 355 600 363 L 646 372 Q 727 390 745 378 Q 755 368 751 352 Q 721 232 708 221 C 694 198 694 198 694 198 Z" fill="lightgray"></path>
    
      <path d="M 636 283 Q 667 290 694 295 Q 713 299 705 310 Q 695 322 674 324 Q 661 325 640 320 L 597 305 Q 569 296 545 287 Q 532 283 549 271 L 595 275 L 636 283 Z" fill="lightgray"></path>
    
      <path d="M 631 190 Q 662 196 694 198 C 724 200 732 204 708 221 Q 687 239 631 227 L 593 217 Q 556 210 527 201 C 498 192 496 175 526 178 Q 527 178 592 185 L 631 190 Z" fill="lightgray"></path>
    
      <path d="M 592 185 Q 593 59 626 29 Q 699 -25 851 7 Q 852 8 856 8 Q 890 17 925 40 Q 943 53 930 77 Q 918 96 900 160 Q 899 173 893 178 Q 887 181 884 165 Q 862 95 847 74 Q 837 62 806 54 Q 737 36 678 58 Q 656 68 650 82 Q 632 121 631 190 L 631 227 Q 632 255 636 283 L 640 320 Q 641 345 646 372 L 651 401 Q 652 411 655 423 Q 659 439 649 449 Q 636 462 615 471 Q 602 475 595 470 Q 588 466 593 449 Q 602 421 602 392 L 600 363 Q 599 333 597 305 L 595 275 Q 594 244 593 217 L 592 185 Z" fill="lightgray"></path>
    
    
      <clipPath id="make-me-a-hanzi-clip-0">
        <path d="M 300 656 Q 334 663 377 668 Q 423 677 429 682 Q 438 689 434 697 Q 428 709 402 716 Q 381 722 275 695 Q 157 677 102 673 Q 68 669 91 653 Q 118 635 161 633 L 200 640 Q 225 644 254 649 L 300 656 Z"></path>
      </clipPath>
      <path clip-path="url(#make-me-a-hanzi-clip-0)" d="M 94 664 L 155 655 L 375 692 L 421 693" fill="none" id="make-me-a-hanzi-animation-0" stroke-dasharray="459 918" stroke-linecap="round"></path>
    
      <clipPath id="make-me-a-hanzi-clip-1">
        <path d="M 113 505 Q 101 517 80 525 Q 71 529 61 526 Q 55 522 60 510 Q 61 503 66 494 Q 93 440 72 230 Q 51 143 83 105 Q 93 93 102 104 Q 111 117 112 131 L 115 162 Q 121 477 122 479 C 123 497 123 497 113 505 Z"></path>
      </clipPath>
      <path clip-path="url(#make-me-a-hanzi-clip-1)" d="M 67 519 L 93 491 L 99 463 L 101 354 L 89 164 L 93 110" fill="none" id="make-me-a-hanzi-animation-1" stroke-dasharray="548 1096" stroke-linecap="round"></path>
    
      <clipPath id="make-me-a-hanzi-clip-2">
        <path d="M 316 141 Q 338 110 356 82 Q 363 67 373 68 Q 386 69 400 97 Q 415 127 410 214 Q 394 478 415 506 Q 422 516 415 525 Q 399 541 356 561 Q 341 568 296 548 L 264 537 Q 242 531 219 525 L 184 518 Q 139 511 113 505 C 84 499 93 471 122 479 Q 165 491 185 493 L 218 500 Q 239 506 262 511 L 292 517 Q 328 529 345 516 Q 367 494 358 256 Q 358 174 346 161 C 336 133 301 162 316 141 Z"></path>
      </clipPath>
      <path clip-path="url(#make-me-a-hanzi-clip-2)" d="M 120 500 L 133 496 L 222 512 L 332 541 L 355 538 L 382 511 L 385 226 L 381 164 L 371 128 L 372 82" fill="none" id="make-me-a-hanzi-animation-2" stroke-dasharray="838 1676" stroke-linecap="round"></path>
    
      <clipPath id="make-me-a-hanzi-clip-3">
        <path d="M 161 633 Q 179 615 184 518 L 185 493 Q 185 435 146 317 Q 146 310 152 312 Q 161 315 176 343 Q 218 415 218 500 L 219 525 Q 216 630 214 632 Q 208 636 200 640 C 174 654 144 658 161 633 Z"></path>
      </clipPath>
      <path clip-path="url(#make-me-a-hanzi-clip-3)" d="M 168 633 L 194 616 L 202 493 L 196 436 L 181 382 L 152 319" fill="none" id="make-me-a-hanzi-animation-3" stroke-dasharray="465 930" stroke-linecap="round"></path>
    
      <clipPath id="make-me-a-hanzi-clip-4">
        <path d="M 296 548 Q 302 588 315 631 Q 319 643 313 650 Q 309 654 300 656 C 272 667 236 673 254 649 Q 255 648 257 645 Q 270 630 268 593 Q 267 568 264 537 L 262 511 Q 259 486 258 458 Q 251 379 284 353 Q 287 347 308 345 Q 333 344 343 354 Q 352 361 347 368 Q 341 375 313 381 Q 309 382 307 386 Q 292 396 291 428 Q 287 468 292 517 L 296 548 Z"></path>
      </clipPath>
      <path clip-path="url(#make-me-a-hanzi-clip-4)" d="M 265 644 L 290 630 L 275 503 L 275 411 L 282 385 L 293 371 L 303 364 L 339 363" fill="none" id="make-me-a-hanzi-animation-4" stroke-dasharray="469 938" stroke-linecap="round"></path>
    
      <clipPath id="make-me-a-hanzi-clip-5">
        <path d="M 158 251 Q 143 248 162 235 Q 169 229 184 232 Q 254 244 308 250 Q 329 254 321 265 Q 311 278 289 282 Q 270 285 158 251 Z"></path>
      </clipPath>
      <path clip-path="url(#make-me-a-hanzi-clip-5)" d="M 159 243 L 274 264 L 312 260" fill="none" id="make-me-a-hanzi-animation-5" stroke-dasharray="283 566" stroke-linecap="round"></path>
    
      <clipPath id="make-me-a-hanzi-clip-6">
        <path d="M 112 131 Q 113 131 115 130 Q 125 127 139 129 Q 196 139 316 141 C 346 142 367 142 346 161 Q 339 168 322 181 Q 306 191 275 185 Q 187 169 115 162 C 85 159 83 139 112 131 Z"></path>
      </clipPath>
      <path clip-path="url(#make-me-a-hanzi-clip-6)" d="M 116 138 L 137 147 L 224 158 L 338 162" fill="none" id="make-me-a-hanzi-animation-6" stroke-dasharray="353 706" stroke-linecap="round"></path>
    
      <clipPath id="make-me-a-hanzi-clip-7">
        <path d="M 626 612 Q 639 616 654 618 L 678 623 Q 711 632 749 638 Q 792 648 799 654 Q 806 661 803 669 Q 796 679 770 687 Q 742 691 715 681 Q 678 669 639 657 L 583 644 Q 537 637 484 630 Q 451 624 475 609 Q 514 588 564 599 Q 565 600 568 599 L 626 612 Z"></path>
      </clipPath>
      <path clip-path="url(#make-me-a-hanzi-clip-7)" d="M 477 621 L 500 615 L 571 620 L 729 660 L 792 664" fill="none" id="make-me-a-hanzi-animation-7" stroke-dasharray="449 898" stroke-linecap="round"></path>
    
      <clipPath id="make-me-a-hanzi-clip-8">
        <path d="M 470 387 Q 584 489 626 612 L 639 657 Q 670 799 670 803 L 669 804 Q 660 813 628 823 Q 604 830 596 827 Q 583 820 588 806 Q 609 740 583 644 L 568 599 Q 541 512 420 369 Q 414 360 421 359 Q 427 359 448 371 L 470 387 Z"></path>
      </clipPath>
      <path clip-path="url(#make-me-a-hanzi-clip-8)" d="M 668 802 L 630 785 L 613 656 L 567 537 L 519 463 L 425 364" fill="none" id="make-me-a-hanzi-animation-8" stroke-dasharray="652 1304" stroke-linecap="round"></path>
    
      <clipPath id="make-me-a-hanzi-clip-9">
        <path d="M 654 618 Q 669 588 797 446 Q 834 406 976 427 Q 992 428 994 433 Q 995 439 983 444 Q 944 460 898 476 Q 804 512 678 623 C 655 643 638 644 654 618 Z"></path>
      </clipPath>
      <path clip-path="url(#make-me-a-hanzi-clip-9)" d="M 660 618 L 678 608 L 775 510 L 833 465 L 885 449 L 963 435 L 987 437" fill="none" id="make-me-a-hanzi-animation-9" stroke-dasharray="518 1036" stroke-linecap="round"></path>
    
      <clipPath id="make-me-a-hanzi-clip-10">
        <path d="M 506 374 Q 497 380 470 387 C 441 395 438 396 448 371 Q 473 311 485 215 Q 486 187 502 167 Q 517 146 522 160 Q 525 167 526 178 L 527 201 Q 518 258 511 344 C 509 373 509 373 506 374 Z"></path>
      </clipPath>
      <path clip-path="url(#make-me-a-hanzi-clip-10)" d="M 458 369 L 476 361 L 485 347 L 513 165" fill="none" id="make-me-a-hanzi-animation-10" stroke-dasharray="348 696" stroke-linecap="round"></path>
    
      <clipPath id="make-me-a-hanzi-clip-11">
        <path d="M 694 198 Q 709 170 724 162 Q 734 155 749 173 Q 762 192 797 302 Q 806 330 828 351 Q 841 361 831 375 Q 818 391 781 417 Q 763 426 749 422 Q 724 415 687 408 Q 669 407 651 401 L 602 392 Q 592 391 582 389 Q 540 380 506 374 C 476 369 481 339 511 344 Q 515 344 522 345 Q 553 355 600 363 L 646 372 Q 727 390 745 378 Q 755 368 751 352 Q 721 232 708 221 C 694 198 694 198 694 198 Z"></path>
      </clipPath>
      <path clip-path="url(#make-me-a-hanzi-clip-11)" d="M 514 368 L 524 361 L 732 401 L 760 398 L 772 390 L 789 364 L 786 354 L 737 212 L 729 198 L 710 196" fill="none" id="make-me-a-hanzi-animation-11" stroke-dasharray="622 1244" stroke-linecap="round"></path>
    
      <clipPath id="make-me-a-hanzi-clip-12">
        <path d="M 636 283 Q 667 290 694 295 Q 713 299 705 310 Q 695 322 674 324 Q 661 325 640 320 L 597 305 Q 569 296 545 287 Q 532 283 549 271 L 595 275 L 636 283 Z"></path>
      </clipPath>
      <path clip-path="url(#make-me-a-hanzi-clip-12)" d="M 548 279 L 661 307 L 697 304" fill="none" id="make-me-a-hanzi-animation-12" stroke-dasharray="281 562" stroke-linecap="round"></path>
    
      <clipPath id="make-me-a-hanzi-clip-13">
        <path d="M 631 190 Q 662 196 694 198 C 724 200 732 204 708 221 Q 687 239 631 227 L 593 217 Q 556 210 527 201 C 498 192 496 175 526 178 Q 527 178 592 185 L 631 190 Z"></path>
      </clipPath>
      <path clip-path="url(#make-me-a-hanzi-clip-13)" d="M 527 184 L 548 194 L 700 218" fill="none" id="make-me-a-hanzi-animation-13" stroke-dasharray="305 610" stroke-linecap="round"></path>
    
      <clipPath id="make-me-a-hanzi-clip-14">
        <path d="M 592 185 Q 593 59 626 29 Q 699 -25 851 7 Q 852 8 856 8 Q 890 17 925 40 Q 943 53 930 77 Q 918 96 900 160 Q 899 173 893 178 Q 887 181 884 165 Q 862 95 847 74 Q 837 62 806 54 Q 737 36 678 58 Q 656 68 650 82 Q 632 121 631 190 L 631 227 Q 632 255 636 283 L 640 320 Q 641 345 646 372 L 651 401 Q 652 411 655 423 Q 659 439 649 449 Q 636 462 615 471 Q 602 475 595 470 Q 588 466 593 449 Q 602 421 602 392 L 600 363 Q 599 333 597 305 L 595 275 Q 594 244 593 217 L 592 185 Z"></path>
      </clipPath>
      <path clip-path="url(#make-me-a-hanzi-clip-14)" d="M 603 461 L 627 430 L 610 173 L 622 94 L 638 54 L 663 36 L 735 20 L 799 24 L 854 39 L 889 67 L 890 171" fill="none" id="make-me-a-hanzi-animation-14" stroke-dasharray="922 1844" stroke-linecap="round"></path>
    
  </g>
</svg>