<svg version="1.1" viewBox="0 0 1024 1024" xmlns="http://www.w3.org/2000/svg">
  <g stroke="lightgray" stroke-dasharray="1,1" stroke-width="1" transform="scale(4, 4)">
    <line x1="0" y1="0" x2="256" y2="256"></line>
    <line x1="256" y1="0" x2="0" y2="256"></line>
    <line x1="128" y1="0" x2="128" y2="256"></line>
    <line x1="0" y1="128" x2="256" y2="128"></line>
  </g>
  <g transform="scale(1, -1) translate(0, -900)">
    <style type="text/css">
      
        @keyframes keyframes0 {
          from {
            stroke: blue;
            stroke-dashoffset: 531;
            stroke-width: 128;
          }
          63% {
            animation-timing-function: step-end;
            stroke: blue;
            stroke-dashoffset: 0;
            stroke-width: 128;
          }
          to {
            stroke: black;
            stroke-width: 1024;
          }
        }
        #make-me-a-hanzi-animation-0 {
          animation: keyframes0 0.68212890625s both;
          animation-delay: 0s;
          animation-timing-function: linear;
        }
      
        @keyframes keyframes1 {
          from {
            stroke: blue;
            stroke-dashoffset: 663;
            stroke-width: 128;
          }
          68% {
            animation-timing-function: step-end;
            stroke: blue;
            stroke-dashoffset: 0;
            stroke-width: 128;
          }
          to {
            stroke: black;
            stroke-width: 1024;
          }
        }
        #make-me-a-hanzi-animation-1 {
          animation: keyframes1 0.78955078125s both;
          animation-delay: 0.68212890625s;
          animation-timing-function: linear;
        }
      
        @keyframes keyframes2 {
          from {
            stroke: blue;
            stroke-dashoffset: 925;
            stroke-width: 128;
          }
          75% {
            animation-timing-function: step-end;
            stroke: blue;
            stroke-dashoffset: 0;
            stroke-width: 128;
          }
          to {
            stroke: black;
            stroke-width: 1024;
          }
        }
        #make-me-a-hanzi-animation-2 {
          animation: keyframes2 1.0027669270833333s both;
          animation-delay: 1.4716796875s;
          animation-timing-function: linear;
        }
      
        @keyframes keyframes3 {
          from {
            stroke: blue;
            stroke-dashoffset: 575;
            stroke-width: 128;
          }
          65% {
            animation-timing-function: step-end;
            stroke: blue;
            stroke-dashoffset: 0;
            stroke-width: 128;
          }
          to {
            stroke: black;
            stroke-width: 1024;
          }
        }
        #make-me-a-hanzi-animation-3 {
          animation: keyframes3 0.7179361979166666s both;
          animation-delay: 2.474446614583333s;
          animation-timing-function: linear;
        }
      
        @keyframes keyframes4 {
          from {
            stroke: blue;
            stroke-dashoffset: 566;
            stroke-width: 128;
          }
          65% {
            animation-timing-function: step-end;
            stroke: blue;
            stroke-dashoffset: 0;
            stroke-width: 128;
          }
          to {
            stroke: black;
            stroke-width: 1024;
          }
        }
        #make-me-a-hanzi-animation-4 {
          animation: keyframes4 0.7106119791666666s both;
          animation-delay: 3.1923828124999996s;
          animation-timing-function: linear;
        }
      
        @keyframes keyframes5 {
          from {
            stroke: blue;
            stroke-dashoffset: 391;
            stroke-width: 128;
          }
          56% {
            animation-timing-function: step-end;
            stroke: blue;
            stroke-dashoffset: 0;
            stroke-width: 128;
          }
          to {
            stroke: black;
            stroke-width: 1024;
          }
        }
        #make-me-a-hanzi-animation-5 {
          animation: keyframes5 0.5681966145833334s both;
          animation-delay: 3.902994791666666s;
          animation-timing-function: linear;
        }
      
        @keyframes keyframes6 {
          from {
            stroke: blue;
            stroke-dashoffset: 461;
            stroke-width: 128;
          }
          60% {
            animation-timing-function: step-end;
            stroke: blue;
            stroke-dashoffset: 0;
            stroke-width: 128;
          }
          to {
            stroke: black;
            stroke-width: 1024;
          }
        }
        #make-me-a-hanzi-animation-6 {
          animation: keyframes6 0.6251627604166666s both;
          animation-delay: 4.471191406249999s;
          animation-timing-function: linear;
        }
      
        @keyframes keyframes7 {
          from {
            stroke: blue;
            stroke-dashoffset: 397;
            stroke-width: 128;
          }
          56% {
            animation-timing-function: step-end;
            stroke: blue;
            stroke-dashoffset: 0;
            stroke-width: 128;
          }
          to {
            stroke: black;
            stroke-width: 1024;
          }
        }
        #make-me-a-hanzi-animation-7 {
          animation: keyframes7 0.5730794270833334s both;
          animation-delay: 5.096354166666666s;
          animation-timing-function: linear;
        }
      
        @keyframes keyframes8 {
          from {
            stroke: blue;
            stroke-dashoffset: 555;
            stroke-width: 128;
          }
          64% {
            animation-timing-function: step-end;
            stroke: blue;
            stroke-dashoffset: 0;
            stroke-width: 128;
          }
          to {
            stroke: black;
            stroke-width: 1024;
          }
        }
        #make-me-a-hanzi-animation-8 {
          animation: keyframes8 0.70166015625s both;
          animation-delay: 5.669433593749999s;
          animation-timing-function: linear;
        }
      
        @keyframes keyframes9 {
          from {
            stroke: blue;
            stroke-dashoffset: 918;
            stroke-width: 128;
          }
          75% {
            animation-timing-function: step-end;
            stroke: blue;
            stroke-dashoffset: 0;
            stroke-width: 128;
          }
          to {
            stroke: black;
            stroke-width: 1024;
          }
        }
        #make-me-a-hanzi-animation-9 {
          animation: keyframes9 0.9970703125s both;
          animation-delay: 6.371093749999999s;
          animation-timing-function: linear;
        }
      
        @keyframes keyframes10 {
          from {
            stroke: blue;
            stroke-dashoffset: 711;
            stroke-width: 128;
          }
          70% {
            animation-timing-function: step-end;
            stroke: blue;
            stroke-dashoffset: 0;
            stroke-width: 128;
          }
          to {
            stroke: black;
            stroke-width: 1024;
          }
        }
        #make-me-a-hanzi-animation-10 {
          animation: keyframes10 0.82861328125s both;
          animation-delay: 7.368164062499999s;
          animation-timing-function: linear;
        }
      
        @keyframes keyframes11 {
          from {
            stroke: blue;
            stroke-dashoffset: 671;
            stroke-width: 128;
          }
          69% {
            animation-timing-function: step-end;
            stroke: blue;
            stroke-dashoffset: 0;
            stroke-width: 128;
          }
          to {
            stroke: black;
            stroke-width: 1024;
          }
        }
        #make-me-a-hanzi-animation-11 {
          animation: keyframes11 0.7960611979166666s both;
          animation-delay: 8.19677734375s;
          animation-timing-function: linear;
        }
      
        @keyframes keyframes12 {
          from {
            stroke: blue;
            stroke-dashoffset: 527;
            stroke-width: 128;
          }
          63% {
            animation-timing-function: step-end;
            stroke: blue;
            stroke-dashoffset: 0;
            stroke-width: 128;
          }
          to {
            stroke: black;
            stroke-width: 1024;
          }
        }
        #make-me-a-hanzi-animation-12 {
          animation: keyframes12 0.6788736979166666s both;
          animation-delay: 8.992838541666666s;
          animation-timing-function: linear;
        }
      
        @keyframes keyframes13 {
          from {
            stroke: blue;
            stroke-dashoffset: 623;
            stroke-width: 128;
          }
          67% {
            animation-timing-function: step-end;
            stroke: blue;
            stroke-dashoffset: 0;
            stroke-width: 128;
          }
          to {
            stroke: black;
            stroke-width: 1024;
          }
        }
        #make-me-a-hanzi-animation-13 {
          animation: keyframes13 0.7569986979166666s both;
          animation-delay: 9.671712239583332s;
          animation-timing-function: linear;
        }
      
        @keyframes keyframes14 {
          from {
            stroke: blue;
            stroke-dashoffset: 476;
            stroke-width: 128;
          }
          61% {
            animation-timing-function: step-end;
            stroke: blue;
            stroke-dashoffset: 0;
            stroke-width: 128;
          }
          to {
            stroke: black;
            stroke-width: 1024;
          }
        }
        #make-me-a-hanzi-animation-14 {
          animation: keyframes14 0.6373697916666666s both;
          animation-delay: 10.428710937499998s;
          animation-timing-function: linear;
        }
      
        @keyframes keyframes15 {
          from {
            stroke: blue;
            stroke-dashoffset: 630;
            stroke-width: 128;
          }
          67% {
            animation-timing-function: step-end;
            stroke: blue;
            stroke-dashoffset: 0;
            stroke-width: 128;
          }
          to {
            stroke: black;
            stroke-width: 1024;
          }
        }
        #make-me-a-hanzi-animation-15 {
          animation: keyframes15 0.7626953125s both;
          animation-delay: 11.066080729166664s;
          animation-timing-function: linear;
        }
      
        @keyframes keyframes16 {
          from {
            stroke: blue;
            stroke-dashoffset: 495;
            stroke-width: 128;
          }
          62% {
            animation-timing-function: step-end;
            stroke: blue;
            stroke-dashoffset: 0;
            stroke-width: 128;
          }
          to {
            stroke: black;
            stroke-width: 1024;
          }
        }
        #make-me-a-hanzi-animation-16 {
          animation: keyframes16 0.65283203125s both;
          animation-delay: 11.828776041666664s;
          animation-timing-function: linear;
        }
      
    </style>
    
      <path d="M 287 663 Q 324 672 366 678 Q 400 685 406 690 Q 415 697 411 705 Q 404 715 378 723 Q 350 729 323 719 Q 283 706 240 696 Q 192 686 137 682 Q 103 676 127 661 Q 139 654 178 646 C 193 643 193 643 215 649 Q 215 650 216 650 Q 237 654 260 657 L 287 663 Z" fill="lightgray"></path>
    
      <path d="M 126 546 Q 117 555 100 561 Q 91 565 81 562 Q 75 558 80 547 Q 81 540 85 531 Q 109 485 89 276 Q 65 192 99 153 Q 109 141 118 152 Q 128 167 129 185 Q 129 189 130 194 L 132 227 Q 133 236 133 246 Q 139 490 140 507 Q 141 514 141 518 C 142 534 142 534 126 546 Z" fill="lightgray"></path>
    
      <path d="M 315 209 Q 337 178 353 150 Q 360 135 369 136 Q 382 137 395 162 Q 407 186 408 284 Q 399 512 420 538 Q 427 548 420 557 Q 405 573 362 593 Q 349 599 310 583 L 273 572 Q 254 568 234 562 L 198 555 Q 150 548 126 546 C 96 543 111 515 141 518 Q 156 518 198 526 L 233 532 Q 252 536 272 541 L 303 547 Q 309 550 317 550 Q 342 554 354 545 Q 385 514 352 237 Q 352 236 352 234 Q 349 224 341 224 C 324 199 307 220 315 209 Z" fill="lightgray"></path>
    
      <path d="M 178 646 Q 178 645 187 632 Q 191 628 198 555 L 198 526 Q 201 523 193 460 Q 184 417 158 353 Q 155 349 154 345 Q 154 338 160 340 Q 167 341 185 369 Q 222 423 233 532 L 234 562 Q 234 637 233 639 Q 226 645 215 649 C 188 661 162 672 178 646 Z" fill="lightgray"></path>
    
      <path d="M 310 583 Q 314 607 323 631 Q 327 641 320 649 Q 310 656 287 663 C 258 672 253 674 260 657 Q 259 653 265 646 Q 280 625 273 572 L 272 541 Q 269 511 266 478 Q 259 412 287 389 Q 291 383 317 381 Q 342 380 352 390 Q 359 397 355 404 Q 304 425 303 432 Q 288 456 303 547 L 310 583 Z" fill="lightgray"></path>
    
      <path d="M 178 311 Q 163 308 182 295 Q 188 291 201 292 Q 262 301 308 306 Q 329 310 321 321 Q 311 334 289 338 Q 265 341 178 311 Z" fill="lightgray"></path>
    
      <path d="M 130 194 Q 140 193 151 194 Q 203 204 315 209 C 345 210 350 211 341 224 Q 337 233 314 248 Q 298 258 267 251 Q 192 235 132 227 C 102 223 100 196 130 194 Z" fill="lightgray"></path>
    
      <path d="M 625 771 Q 652 750 682 726 Q 697 714 713 716 Q 725 717 729 732 Q 732 748 720 778 Q 713 797 681 808 Q 603 826 592 819 Q 588 815 590 801 Q 594 791 625 771 Z" fill="lightgray"></path>
    
      <path d="M 547 603 Q 565 597 658 614 Q 830 656 835 658 Q 842 665 839 673 Q 832 683 806 690 Q 785 694 674 660 Q 619 645 532 634 C 502 630 517 607 547 603 Z" fill="lightgray"></path>
    
      <path d="M 536 498 Q 536 501 537 503 Q 540 578 546 599 Q 547 602 547 603 C 551 621 551 621 532 634 Q 493 664 471 655 Q 461 648 467 635 Q 485 614 486 574 Q 486 375 451 253 Q 424 168 353 41 Q 349 34 347 29 Q 346 19 355 21 Q 371 24 402 70 Q 484 167 523 372 L 526 399 Q 532 445 536 489 L 536 498 Z" fill="lightgray"></path>
    
      <path d="M 801 339 Q 808 376 817 400 L 835 446 Q 847 470 862 484 Q 878 502 864 519 Q 848 532 796 554 Q 778 561 758 553 Q 727 540 701 531 L 649 518 Q 598 508 548 502 Q 539 502 536 498 C 526 495 526 495 536 489 Q 540 485 554 479 Q 576 469 608 480 Q 629 484 652 488 L 698 497 Q 761 509 769 504 Q 781 492 772 434 L 765 398 Q 758 370 752 344 C 745 315 795 310 801 339 Z" fill="lightgray"></path>
    
      <path d="M 817 400 Q 937 404 942 407 Q 942 408 943 409 Q 947 418 934 429 Q 886 463 835 446 L 772 434 Q 702 425 696 422 L 655 416 Q 594 409 526 399 C 496 395 494 378 523 372 Q 554 365 564 367 Q 607 380 655 385 L 694 390 Q 694 391 695 391 Q 725 395 765 398 L 817 400 Z" fill="lightgray"></path>
    
      <path d="M 655 322 Q 598 312 550 305 Q 531 304 542 287 Q 554 275 597 280 Q 621 286 654 289 L 689 294 Q 741 303 812 308 Q 822 309 824 317 Q 824 324 801 339 C 784 351 781 350 752 344 Q 719 337 691 329 L 655 322 Z" fill="lightgray"></path>
    
      <path d="M 655 385 Q 656 385 656 383 Q 656 350 655 322 L 654 289 Q 654 262 661 242 Q 667 232 674 238 Q 683 245 689 294 L 691 329 Q 692 360 694 390 L 696 422 Q 697 450 698 475 Q 698 487 698 497 L 701 531 Q 702 544 705 553 Q 712 569 702 580 Q 689 592 664 603 Q 645 610 626 601 Q 616 594 628 581 Q 649 548 649 518 L 652 488 Q 653 457 655 416 L 655 385 Z" fill="lightgray"></path>
    
      <path d="M 575 208 Q 562 215 529 221 Q 516 225 513 219 Q 506 213 515 197 Q 540 142 554 53 Q 557 26 572 8 Q 590 -14 595 1 Q 599 11 599 29 L 596 63 Q 584 148 582 178 C 580 206 580 206 575 208 Z" fill="lightgray"></path>
    
      <path d="M 818 86 Q 842 155 871 173 Q 889 191 875 208 Q 803 266 751 241 Q 669 217 575 208 C 545 205 552 174 582 178 Q 606 181 753 203 Q 772 207 779 198 Q 788 191 785 174 Q 778 129 767 92 C 759 63 808 58 818 86 Z" fill="lightgray"></path>
    
      <path d="M 599 29 Q 606 29 615 30 Q 682 43 831 50 Q 841 51 843 59 Q 843 68 818 86 C 800 99 796 98 767 92 Q 671 71 596 63 C 566 60 569 28 599 29 Z" fill="lightgray"></path>
    
    
      <clipPath id="make-me-a-hanzi-clip-0">
        <path d="M 287 663 Q 324 672 366 678 Q 400 685 406 690 Q 415 697 411 705 Q 404 715 378 723 Q 350 729 323 719 Q 283 706 240 696 Q 192 686 137 682 Q 103 676 127 661 Q 139 654 178 646 C 193 643 193 643 215 649 Q 215 650 216 650 Q 237 654 260 657 L 287 663 Z"></path>
      </clipPath>
      <path clip-path="url(#make-me-a-hanzi-clip-0)" d="M 129 673 L 173 665 L 250 676 L 347 700 L 400 700" fill="none" id="make-me-a-hanzi-animation-0" stroke-dasharray="403 806" stroke-linecap="round"></path>
    
      <clipPath id="make-me-a-hanzi-clip-1">
        <path d="M 126 546 Q 117 555 100 561 Q 91 565 81 562 Q 75 558 80 547 Q 81 540 85 531 Q 109 485 89 276 Q 65 192 99 153 Q 109 141 118 152 Q 128 167 129 185 Q 129 189 130 194 L 132 227 Q 133 236 133 246 Q 139 490 140 507 Q 141 514 141 518 C 142 534 142 534 126 546 Z"></path>
      </clipPath>
      <path clip-path="url(#make-me-a-hanzi-clip-1)" d="M 87 554 L 111 528 L 117 503 L 118 417 L 105 212 L 109 158" fill="none" id="make-me-a-hanzi-animation-1" stroke-dasharray="535 1070" stroke-linecap="round"></path>
    
      <clipPath id="make-me-a-hanzi-clip-2">
        <path d="M 315 209 Q 337 178 353 150 Q 360 135 369 136 Q 382 137 395 162 Q 407 186 408 284 Q 399 512 420 538 Q 427 548 420 557 Q 405 573 362 593 Q 349 599 310 583 L 273 572 Q 254 568 234 562 L 198 555 Q 150 548 126 546 C 96 543 111 515 141 518 Q 156 518 198 526 L 233 532 Q 252 536 272 541 L 303 547 Q 309 550 317 550 Q 342 554 354 545 Q 385 514 352 237 Q 352 236 352 234 Q 349 224 341 224 C 324 199 307 220 315 209 Z"></path>
      </clipPath>
      <path clip-path="url(#make-me-a-hanzi-clip-2)" d="M 132 540 L 148 533 L 186 537 L 341 571 L 360 569 L 389 542 L 384 297 L 380 232 L 366 198 L 369 149" fill="none" id="make-me-a-hanzi-animation-2" stroke-dasharray="797 1594" stroke-linecap="round"></path>
    
      <clipPath id="make-me-a-hanzi-clip-3">
        <path d="M 178 646 Q 178 645 187 632 Q 191 628 198 555 L 198 526 Q 201 523 193 460 Q 184 417 158 353 Q 155 349 154 345 Q 154 338 160 340 Q 167 341 185 369 Q 222 423 233 532 L 234 562 Q 234 637 233 639 Q 226 645 215 649 C 188 661 162 672 178 646 Z"></path>
      </clipPath>
      <path clip-path="url(#make-me-a-hanzi-clip-3)" d="M 188 640 L 211 627 L 217 524 L 199 427 L 175 365 L 160 346" fill="none" id="make-me-a-hanzi-animation-3" stroke-dasharray="447 894" stroke-linecap="round"></path>
    
      <clipPath id="make-me-a-hanzi-clip-4">
        <path d="M 310 583 Q 314 607 323 631 Q 327 641 320 649 Q 310 656 287 663 C 258 672 253 674 260 657 Q 259 653 265 646 Q 280 625 273 572 L 272 541 Q 269 511 266 478 Q 259 412 287 389 Q 291 383 317 381 Q 342 380 352 390 Q 359 397 355 404 Q 304 425 303 432 Q 288 456 303 547 L 310 583 Z"></path>
      </clipPath>
      <path clip-path="url(#make-me-a-hanzi-clip-4)" d="M 268 654 L 297 633 L 280 485 L 283 433 L 302 405 L 324 398 L 340 400" fill="none" id="make-me-a-hanzi-animation-4" stroke-dasharray="438 876" stroke-linecap="round"></path>
    
      <clipPath id="make-me-a-hanzi-clip-5">
        <path d="M 178 311 Q 163 308 182 295 Q 188 291 201 292 Q 262 301 308 306 Q 329 310 321 321 Q 311 334 289 338 Q 265 341 178 311 Z"></path>
      </clipPath>
      <path clip-path="url(#make-me-a-hanzi-clip-5)" d="M 179 303 L 279 321 L 312 316" fill="none" id="make-me-a-hanzi-animation-5" stroke-dasharray="263 526" stroke-linecap="round"></path>
    
      <clipPath id="make-me-a-hanzi-clip-6">
        <path d="M 130 194 Q 140 193 151 194 Q 203 204 315 209 C 345 210 350 211 341 224 Q 337 233 314 248 Q 298 258 267 251 Q 192 235 132 227 C 102 223 100 196 130 194 Z"></path>
      </clipPath>
      <path clip-path="url(#make-me-a-hanzi-clip-6)" d="M 135 199 L 148 211 L 169 216 L 280 231 L 333 223" fill="none" id="make-me-a-hanzi-animation-6" stroke-dasharray="333 666" stroke-linecap="round"></path>
    
      <clipPath id="make-me-a-hanzi-clip-7">
        <path d="M 625 771 Q 652 750 682 726 Q 697 714 713 716 Q 725 717 729 732 Q 732 748 720 778 Q 713 797 681 808 Q 603 826 592 819 Q 588 815 590 801 Q 594 791 625 771 Z"></path>
      </clipPath>
      <path clip-path="url(#make-me-a-hanzi-clip-7)" d="M 597 813 L 683 769 L 711 734" fill="none" id="make-me-a-hanzi-animation-7" stroke-dasharray="269 538" stroke-linecap="round"></path>
    
      <clipPath id="make-me-a-hanzi-clip-8">
        <path d="M 547 603 Q 565 597 658 614 Q 830 656 835 658 Q 842 665 839 673 Q 832 683 806 690 Q 785 694 674 660 Q 619 645 532 634 C 502 630 517 607 547 603 Z"></path>
      </clipPath>
      <path clip-path="url(#make-me-a-hanzi-clip-8)" d="M 541 632 L 560 620 L 599 623 L 668 635 L 798 670 L 831 667" fill="none" id="make-me-a-hanzi-animation-8" stroke-dasharray="427 854" stroke-linecap="round"></path>
    
      <clipPath id="make-me-a-hanzi-clip-9">
        <path d="M 536 498 Q 536 501 537 503 Q 540 578 546 599 Q 547 602 547 603 C 551 621 551 621 532 634 Q 493 664 471 655 Q 461 648 467 635 Q 485 614 486 574 Q 486 375 451 253 Q 424 168 353 41 Q 349 34 347 29 Q 346 19 355 21 Q 371 24 402 70 Q 484 167 523 372 L 526 399 Q 532 445 536 489 L 536 498 Z"></path>
      </clipPath>
      <path clip-path="url(#make-me-a-hanzi-clip-9)" d="M 478 643 L 509 616 L 515 599 L 508 455 L 492 330 L 455 201 L 420 126 L 356 30" fill="none" id="make-me-a-hanzi-animation-9" stroke-dasharray="790 1580" stroke-linecap="round"></path>
    
      <clipPath id="make-me-a-hanzi-clip-10">
        <path d="M 801 339 Q 808 376 817 400 L 835 446 Q 847 470 862 484 Q 878 502 864 519 Q 848 532 796 554 Q 778 561 758 553 Q 727 540 701 531 L 649 518 Q 598 508 548 502 Q 539 502 536 498 C 526 495 526 495 536 489 Q 540 485 554 479 Q 576 469 608 480 Q 629 484 652 488 L 698 497 Q 761 509 769 504 Q 781 492 772 434 L 765 398 Q 758 370 752 344 C 745 315 795 310 801 339 Z"></path>
      </clipPath>
      <path clip-path="url(#make-me-a-hanzi-clip-10)" d="M 544 494 L 596 492 L 707 513 L 759 529 L 778 530 L 794 523 L 817 498 L 816 490 L 782 365 L 759 349" fill="none" id="make-me-a-hanzi-animation-10" stroke-dasharray="583 1166" stroke-linecap="round"></path>
    
      <clipPath id="make-me-a-hanzi-clip-11">
        <path d="M 817 400 Q 937 404 942 407 Q 942 408 943 409 Q 947 418 934 429 Q 886 463 835 446 L 772 434 Q 702 425 696 422 L 655 416 Q 594 409 526 399 C 496 395 494 378 523 372 Q 554 365 564 367 Q 607 380 655 385 L 694 390 Q 694 391 695 391 Q 725 395 765 398 L 817 400 Z"></path>
      </clipPath>
      <path clip-path="url(#make-me-a-hanzi-clip-11)" d="M 534 378 L 541 385 L 608 395 L 870 427 L 919 421 L 940 409" fill="none" id="make-me-a-hanzi-animation-11" stroke-dasharray="543 1086" stroke-linecap="round"></path>
    
      <clipPath id="make-me-a-hanzi-clip-12">
        <path d="M 655 322 Q 598 312 550 305 Q 531 304 542 287 Q 554 275 597 280 Q 621 286 654 289 L 689 294 Q 741 303 812 308 Q 822 309 824 317 Q 824 324 801 339 C 784 351 781 350 752 344 Q 719 337 691 329 L 655 322 Z"></path>
      </clipPath>
      <path clip-path="url(#make-me-a-hanzi-clip-12)" d="M 547 295 L 586 294 L 756 324 L 793 324 L 814 317" fill="none" id="make-me-a-hanzi-animation-12" stroke-dasharray="399 798" stroke-linecap="round"></path>
    
      <clipPath id="make-me-a-hanzi-clip-13">
        <path d="M 655 385 Q 656 385 656 383 Q 656 350 655 322 L 654 289 Q 654 262 661 242 Q 667 232 674 238 Q 683 245 689 294 L 691 329 Q 692 360 694 390 L 696 422 Q 697 450 698 475 Q 698 487 698 497 L 701 531 Q 702 544 705 553 Q 712 569 702 580 Q 689 592 664 603 Q 645 610 626 601 Q 616 594 628 581 Q 649 548 649 518 L 652 488 Q 653 457 655 416 L 655 385 Z"></path>
      </clipPath>
      <path clip-path="url(#make-me-a-hanzi-clip-13)" d="M 633 592 L 661 577 L 674 555 L 676 384 L 669 246" fill="none" id="make-me-a-hanzi-animation-13" stroke-dasharray="495 990" stroke-linecap="round"></path>
    
      <clipPath id="make-me-a-hanzi-clip-14">
        <path d="M 575 208 Q 562 215 529 221 Q 516 225 513 219 Q 506 213 515 197 Q 540 142 554 53 Q 557 26 572 8 Q 590 -14 595 1 Q 599 11 599 29 L 596 63 Q 584 148 582 178 C 580 206 580 206 575 208 Z"></path>
      </clipPath>
      <path clip-path="url(#make-me-a-hanzi-clip-14)" d="M 522 211 L 550 187 L 555 172 L 584 7" fill="none" id="make-me-a-hanzi-animation-14" stroke-dasharray="348 696" stroke-linecap="round"></path>
    
      <clipPath id="make-me-a-hanzi-clip-15">
        <path d="M 818 86 Q 842 155 871 173 Q 889 191 875 208 Q 803 266 751 241 Q 669 217 575 208 C 545 205 552 174 582 178 Q 606 181 753 203 Q 772 207 779 198 Q 788 191 785 174 Q 778 129 767 92 C 759 63 808 58 818 86 Z"></path>
      </clipPath>
      <path clip-path="url(#make-me-a-hanzi-clip-15)" d="M 584 186 L 600 197 L 670 204 L 773 226 L 801 218 L 827 191 L 800 114 L 774 97" fill="none" id="make-me-a-hanzi-animation-15" stroke-dasharray="502 1004" stroke-linecap="round"></path>
    
      <clipPath id="make-me-a-hanzi-clip-16">
        <path d="M 599 29 Q 606 29 615 30 Q 682 43 831 50 Q 841 51 843 59 Q 843 68 818 86 C 800 99 796 98 767 92 Q 671 71 596 63 C 566 60 569 28 599 29 Z"></path>
      </clipPath>
      <path clip-path="url(#make-me-a-hanzi-clip-16)" d="M 603 35 L 619 49 L 771 70 L 815 67 L 833 59" fill="none" id="make-me-a-hanzi-animation-16" stroke-dasharray="367 734" stroke-linecap="round"></path>
    
  </g>
</svg>