<svg version="1.1" viewBox="0 0 1024 1024" xmlns="http://www.w3.org/2000/svg">
  <g stroke="lightgray" stroke-dasharray="1,1" stroke-width="1" transform="scale(4, 4)">
    <line x1="0" y1="0" x2="256" y2="256"></line>
    <line x1="256" y1="0" x2="0" y2="256"></line>
    <line x1="128" y1="0" x2="128" y2="256"></line>
    <line x1="0" y1="128" x2="256" y2="128"></line>
  </g>
  <g transform="scale(1, -1) translate(0, -900)">
    <style type="text/css">
      
        @keyframes keyframes0 {
          from {
            stroke: blue;
            stroke-dashoffset: 553;
            stroke-width: 128;
          }
          64% {
            animation-timing-function: step-end;
            stroke: blue;
            stroke-dashoffset: 0;
            stroke-width: 128;
          }
          to {
            stroke: black;
            stroke-width: 1024;
          }
        }
        #make-me-a-hanzi-animation-0 {
          animation: keyframes0 0.7000325520833334s both;
          animation-delay: 0s;
          animation-timing-function: linear;
        }
      
        @keyframes keyframes1 {
          from {
            stroke: blue;
            stroke-dashoffset: 679;
            stroke-width: 128;
          }
          69% {
            animation-timing-function: step-end;
            stroke: blue;
            stroke-dashoffset: 0;
            stroke-width: 128;
          }
          to {
            stroke: black;
            stroke-width: 1024;
          }
        }
        #make-me-a-hanzi-animation-1 {
          animation: keyframes1 0.8025716145833334s both;
          animation-delay: 0.7000325520833334s;
          animation-timing-function: linear;
        }
      
        @keyframes keyframes2 {
          from {
            stroke: blue;
            stroke-dashoffset: 940;
            stroke-width: 128;
          }
          75% {
            animation-timing-function: step-end;
            stroke: blue;
            stroke-dashoffset: 0;
            stroke-width: 128;
          }
          to {
            stroke: black;
            stroke-width: 1024;
          }
        }
        #make-me-a-hanzi-animation-2 {
          animation: keyframes2 1.0149739583333333s both;
          animation-delay: 1.5026041666666667s;
          animation-timing-function: linear;
        }
      
        @keyframes keyframes3 {
          from {
            stroke: blue;
            stroke-dashoffset: 583;
            stroke-width: 128;
          }
          65% {
            animation-timing-function: step-end;
            stroke: blue;
            stroke-dashoffset: 0;
            stroke-width: 128;
          }
          to {
            stroke: black;
            stroke-width: 1024;
          }
        }
        #make-me-a-hanzi-animation-3 {
          animation: keyframes3 0.7244466145833334s both;
          animation-delay: 2.517578125s;
          animation-timing-function: linear;
        }
      
        @keyframes keyframes4 {
          from {
            stroke: blue;
            stroke-dashoffset: 593;
            stroke-width: 128;
          }
          66% {
            animation-timing-function: step-end;
            stroke: blue;
            stroke-dashoffset: 0;
            stroke-width: 128;
          }
          to {
            stroke: black;
            stroke-width: 1024;
          }
        }
        #make-me-a-hanzi-animation-4 {
          animation: keyframes4 0.7325846354166666s both;
          animation-delay: 3.2420247395833335s;
          animation-timing-function: linear;
        }
      
        @keyframes keyframes5 {
          from {
            stroke: blue;
            stroke-dashoffset: 424;
            stroke-width: 128;
          }
          58% {
            animation-timing-function: step-end;
            stroke: blue;
            stroke-dashoffset: 0;
            stroke-width: 128;
          }
          to {
            stroke: black;
            stroke-width: 1024;
          }
        }
        #make-me-a-hanzi-animation-5 {
          animation: keyframes5 0.5950520833333334s both;
          animation-delay: 3.974609375s;
          animation-timing-function: linear;
        }
      
        @keyframes keyframes6 {
          from {
            stroke: blue;
            stroke-dashoffset: 479;
            stroke-width: 128;
          }
          61% {
            animation-timing-function: step-end;
            stroke: blue;
            stroke-dashoffset: 0;
            stroke-width: 128;
          }
          to {
            stroke: black;
            stroke-width: 1024;
          }
        }
        #make-me-a-hanzi-animation-6 {
          animation: keyframes6 0.6398111979166666s both;
          animation-delay: 4.569661458333333s;
          animation-timing-function: linear;
        }
      
        @keyframes keyframes7 {
          from {
            stroke: blue;
            stroke-dashoffset: 653;
            stroke-width: 128;
          }
          68% {
            animation-timing-function: step-end;
            stroke: blue;
            stroke-dashoffset: 0;
            stroke-width: 128;
          }
          to {
            stroke: black;
            stroke-width: 1024;
          }
        }
        #make-me-a-hanzi-animation-7 {
          animation: keyframes7 0.7814127604166666s both;
          animation-delay: 5.20947265625s;
          animation-timing-function: linear;
        }
      
        @keyframes keyframes8 {
          from {
            stroke: blue;
            stroke-dashoffset: 587;
            stroke-width: 128;
          }
          66% {
            animation-timing-function: step-end;
            stroke: blue;
            stroke-dashoffset: 0;
            stroke-width: 128;
          }
          to {
            stroke: black;
            stroke-width: 1024;
          }
        }
        #make-me-a-hanzi-animation-8 {
          animation: keyframes8 0.7277018229166666s both;
          animation-delay: 5.990885416666667s;
          animation-timing-function: linear;
        }
      
        @keyframes keyframes9 {
          from {
            stroke: blue;
            stroke-dashoffset: 363;
            stroke-width: 128;
          }
          54% {
            animation-timing-function: step-end;
            stroke: blue;
            stroke-dashoffset: 0;
            stroke-width: 128;
          }
          to {
            stroke: black;
            stroke-width: 1024;
          }
        }
        #make-me-a-hanzi-animation-9 {
          animation: keyframes9 0.54541015625s both;
          animation-delay: 6.718587239583334s;
          animation-timing-function: linear;
        }
      
        @keyframes keyframes10 {
          from {
            stroke: blue;
            stroke-dashoffset: 501;
            stroke-width: 128;
          }
          62% {
            animation-timing-function: step-end;
            stroke: blue;
            stroke-dashoffset: 0;
            stroke-width: 128;
          }
          to {
            stroke: black;
            stroke-width: 1024;
          }
        }
        #make-me-a-hanzi-animation-10 {
          animation: keyframes10 0.65771484375s both;
          animation-delay: 7.263997395833334s;
          animation-timing-function: linear;
        }
      
        @keyframes keyframes11 {
          from {
            stroke: blue;
            stroke-dashoffset: 461;
            stroke-width: 128;
          }
          60% {
            animation-timing-function: step-end;
            stroke: blue;
            stroke-dashoffset: 0;
            stroke-width: 128;
          }
          to {
            stroke: black;
            stroke-width: 1024;
          }
        }
        #make-me-a-hanzi-animation-11 {
          animation: keyframes11 0.6251627604166666s both;
          animation-delay: 7.921712239583334s;
          animation-timing-function: linear;
        }
      
        @keyframes keyframes12 {
          from {
            stroke: blue;
            stroke-dashoffset: 466;
            stroke-width: 128;
          }
          60% {
            animation-timing-function: step-end;
            stroke: blue;
            stroke-dashoffset: 0;
            stroke-width: 128;
          }
          to {
            stroke: black;
            stroke-width: 1024;
          }
        }
        #make-me-a-hanzi-animation-12 {
          animation: keyframes12 0.6292317708333334s both;
          animation-delay: 8.546875s;
          animation-timing-function: linear;
        }
      
        @keyframes keyframes13 {
          from {
            stroke: blue;
            stroke-dashoffset: 533;
            stroke-width: 128;
          }
          63% {
            animation-timing-function: step-end;
            stroke: blue;
            stroke-dashoffset: 0;
            stroke-width: 128;
          }
          to {
            stroke: black;
            stroke-width: 1024;
          }
        }
        #make-me-a-hanzi-animation-13 {
          animation: keyframes13 0.6837565104166666s both;
          animation-delay: 9.176106770833334s;
          animation-timing-function: linear;
        }
      
        @keyframes keyframes14 {
          from {
            stroke: blue;
            stroke-dashoffset: 570;
            stroke-width: 128;
          }
          65% {
            animation-timing-function: step-end;
            stroke: blue;
            stroke-dashoffset: 0;
            stroke-width: 128;
          }
          to {
            stroke: black;
            stroke-width: 1024;
          }
        }
        #make-me-a-hanzi-animation-14 {
          animation: keyframes14 0.7138671875s both;
          animation-delay: 9.85986328125s;
          animation-timing-function: linear;
        }
      
        @keyframes keyframes15 {
          from {
            stroke: blue;
            stroke-dashoffset: 404;
            stroke-width: 128;
          }
          57% {
            animation-timing-function: step-end;
            stroke: blue;
            stroke-dashoffset: 0;
            stroke-width: 128;
          }
          to {
            stroke: black;
            stroke-width: 1024;
          }
        }
        #make-me-a-hanzi-animation-15 {
          animation: keyframes15 0.5787760416666666s both;
          animation-delay: 10.57373046875s;
          animation-timing-function: linear;
        }
      
        @keyframes keyframes16 {
          from {
            stroke: blue;
            stroke-dashoffset: 341;
            stroke-width: 128;
          }
          53% {
            animation-timing-function: step-end;
            stroke: blue;
            stroke-dashoffset: 0;
            stroke-width: 128;
          }
          to {
            stroke: black;
            stroke-width: 1024;
          }
        }
        #make-me-a-hanzi-animation-16 {
          animation: keyframes16 0.5275065104166666s both;
          animation-delay: 11.152506510416666s;
          animation-timing-function: linear;
        }
      
        @keyframes keyframes17 {
          from {
            stroke: blue;
            stroke-dashoffset: 338;
            stroke-width: 128;
          }
          52% {
            animation-timing-function: step-end;
            stroke: blue;
            stroke-dashoffset: 0;
            stroke-width: 128;
          }
          to {
            stroke: black;
            stroke-width: 1024;
          }
        }
        #make-me-a-hanzi-animation-17 {
          animation: keyframes17 0.5250651041666666s both;
          animation-delay: 11.680013020833332s;
          animation-timing-function: linear;
        }
      
        @keyframes keyframes18 {
          from {
            stroke: blue;
            stroke-dashoffset: 459;
            stroke-width: 128;
          }
          60% {
            animation-timing-function: step-end;
            stroke: blue;
            stroke-dashoffset: 0;
            stroke-width: 128;
          }
          to {
            stroke: black;
            stroke-width: 1024;
          }
        }
        #make-me-a-hanzi-animation-18 {
          animation: keyframes18 0.62353515625s both;
          animation-delay: 12.205078124999998s;
          animation-timing-function: linear;
        }
      
    </style>
    
      <path d="M 311 694 Q 437 727 439 728 Q 446 735 443 742 Q 436 752 411 758 Q 386 762 360 752 Q 315 736 267 724 Q 215 711 151 704 Q 120 698 142 684 Q 163 674 191 672 C 211 670 211 670 225 675 Q 224 676 226 676 Q 253 683 282 687 L 311 694 Z" fill="lightgray"></path>
    
      <path d="M 146 540 Q 137 549 117 558 Q 108 562 99 559 Q 92 555 97 544 Q 115 484 113 385 Q 107 265 95 216 Q 83 171 112 133 Q 121 121 130 132 Q 137 144 140 156 L 143 189 Q 155 511 156 513 C 157 531 157 531 146 540 Z" fill="lightgray"></path>
    
      <path d="M 356 187 Q 372 162 385 133 Q 395 114 404 112 Q 414 112 423 133 Q 438 173 436 222 Q 427 492 438 529 Q 447 548 436 557 Q 429 567 396 583 Q 374 593 322 571 L 293 564 Q 242 555 240 552 L 208 547 Q 178 544 146 540 C 116 536 127 506 156 513 Q 180 519 206 525 L 238 532 Q 260 538 291 542 L 319 545 Q 326 548 336 548 Q 364 549 373 540 Q 388 522 382 433 L 382 414 Q 381 360 381 308 Q 382 230 374 215 Q 371 211 367 209 C 355 188 355 188 356 187 Z" fill="lightgray"></path>
    
      <path d="M 191 672 Q 191 671 193 668 Q 211 650 208 547 L 206 525 Q 203 477 162 376 Q 159 372 159 368 Q 158 362 164 364 Q 191 373 221 453 Q 228 492 238 532 L 240 552 Q 243 577 243 631 Q 243 640 245 647 Q 249 656 244 664 Q 237 671 225 675 C 197 687 176 696 191 672 Z" fill="lightgray"></path>
    
      <path d="M 322 571 Q 326 616 342 665 Q 345 675 339 682 Q 329 689 311 694 C 282 703 271 707 282 687 Q 283 683 287 678 Q 299 665 297 629 Q 296 598 293 564 L 291 542 Q 282 431 312 406 Q 319 399 355 403 Q 374 406 382 414 C 403 428 403 428 382 433 Q 376 437 367 435 Q 337 435 334 437 Q 312 455 319 545 L 322 571 Z" fill="lightgray"></path>
    
      <path d="M 170 299 Q 155 296 174 283 Q 181 277 197 279 Q 275 292 332 299 Q 353 302 345 313 Q 335 326 313 330 Q 292 334 255 324 Q 210 311 170 299 Z" fill="lightgray"></path>
    
      <path d="M 140 156 Q 143 156 148 157 Q 214 173 356 187 C 386 190 388 190 367 209 Q 360 216 348 223 Q 332 230 304 224 Q 216 202 143 189 C 113 184 110 152 140 156 Z" fill="lightgray"></path>
    
      <path d="M 532 554 Q 572 615 612 698 Q 627 735 642 754 Q 649 764 644 775 Q 638 785 611 803 Q 586 816 570 813 Q 554 809 563 791 Q 576 770 571 749 Q 540 626 446 476 Q 439 466 437 460 Q 436 450 448 454 Q 466 460 511 522 L 532 554 Z" fill="lightgray"></path>
    
      <path d="M 559 271 Q 560 278 560 284 Q 559 453 563 492 Q 569 516 532 554 C 512 576 500 550 511 522 Q 538 462 507 294 Q 491 249 525 207 L 526 206 Q 539 193 549 214 Q 555 232 558 251 L 559 271 Z" fill="lightgray"></path>
    
      <path d="M 690 723 Q 711 705 732 683 Q 744 673 756 673 Q 765 674 769 685 Q 773 697 766 721 Q 762 737 737 747 Q 682 768 668 763 Q 664 759 665 749 Q 668 739 690 723 Z" fill="lightgray"></path>
    
      <path d="M 712 573 Q 835 601 839 605 Q 846 612 842 619 Q 836 628 813 634 Q 797 637 716 612 Q 631 594 598 590 Q 570 586 590 572 Q 626 554 671 565 Q 672 565 677 565 L 712 573 Z" fill="lightgray"></path>
    
      <path d="M 733 467 Q 817 489 820 491 Q 826 497 822 503 Q 818 512 795 517 Q 774 521 735 506 L 690 492 Q 657 485 621 480 Q 594 476 614 463 Q 644 445 687 457 Q 688 458 691 457 L 733 467 Z" fill="lightgray"></path>
    
      <path d="M 730 375 Q 818 399 820 399 Q 826 405 822 411 Q 818 420 795 425 Q 764 431 731 412 L 691 401 Q 657 394 617 388 Q 590 384 610 371 Q 640 353 685 366 Q 686 366 691 366 L 730 375 Z" fill="lightgray"></path>
    
      <path d="M 727 301 Q 728 340 730 375 L 731 412 Q 731 440 733 467 L 735 506 Q 738 549 735 554 Q 723 566 712 573 C 687 590 664 592 677 565 Q 689 544 690 492 L 691 457 Q 691 435 691 401 L 691 366 Q 691 335 691 294 C 691 264 726 271 727 301 Z" fill="lightgray"></path>
    
      <path d="M 691 294 Q 630 284 559 271 C 532 266 532 266 558 251 Q 585 233 611 240 Q 698 267 864 268 Q 880 269 884 276 Q 888 286 874 296 Q 825 329 773 312 Q 752 308 727 301 L 691 294 Z" fill="lightgray"></path>
    
      <path d="M 494 154 Q 469 109 438 70 Q 417 46 431 12 Q 435 -4 456 5 Q 501 36 512 101 Q 519 129 514 152 Q 510 159 506 161 Q 499 160 494 154 Z" fill="lightgray"></path>
    
      <path d="M 583 136 Q 593 61 609 50 Q 618 43 630 53 Q 637 62 640 80 Q 640 96 627 114 Q 608 144 598 153 Q 592 159 586 151 Q 582 147 583 136 Z" fill="lightgray"></path>
    
      <path d="M 680 143 Q 704 74 727 66 Q 737 62 748 75 Q 752 85 750 105 Q 746 121 729 134 Q 704 158 691 164 Q 684 168 680 158 Q 676 152 680 143 Z" fill="lightgray"></path>
    
      <path d="M 800 166 Q 843 111 893 35 Q 903 16 917 9 Q 924 6 933 14 Q 946 24 941 66 Q 938 120 805 194 Q 798 200 794 189 Q 793 177 800 166 Z" fill="lightgray"></path>
    
    
      <clipPath id="make-me-a-hanzi-clip-0">
        <path d="M 311 694 Q 437 727 439 728 Q 446 735 443 742 Q 436 752 411 758 Q 386 762 360 752 Q 315 736 267 724 Q 215 711 151 704 Q 120 698 142 684 Q 163 674 191 672 C 211 670 211 670 225 675 Q 224 676 226 676 Q 253 683 282 687 L 311 694 Z"></path>
      </clipPath>
      <path clip-path="url(#make-me-a-hanzi-clip-0)" d="M 144 695 L 174 690 L 217 693 L 320 715 L 373 734 L 435 737" fill="none" id="make-me-a-hanzi-animation-0" stroke-dasharray="425 850" stroke-linecap="round"></path>
    
      <clipPath id="make-me-a-hanzi-clip-1">
        <path d="M 146 540 Q 137 549 117 558 Q 108 562 99 559 Q 92 555 97 544 Q 115 484 113 385 Q 107 265 95 216 Q 83 171 112 133 Q 121 121 130 132 Q 137 144 140 156 L 143 189 Q 155 511 156 513 C 157 531 157 531 146 540 Z"></path>
      </clipPath>
      <path clip-path="url(#make-me-a-hanzi-clip-1)" d="M 105 551 L 127 525 L 132 491 L 132 358 L 117 193 L 121 137" fill="none" id="make-me-a-hanzi-animation-1" stroke-dasharray="551 1102" stroke-linecap="round"></path>
    
      <clipPath id="make-me-a-hanzi-clip-2">
        <path d="M 356 187 Q 372 162 385 133 Q 395 114 404 112 Q 414 112 423 133 Q 438 173 436 222 Q 427 492 438 529 Q 447 548 436 557 Q 429 567 396 583 Q 374 593 322 571 L 293 564 Q 242 555 240 552 L 208 547 Q 178 544 146 540 C 116 536 127 506 156 513 Q 180 519 206 525 L 238 532 Q 260 538 291 542 L 319 545 Q 326 548 336 548 Q 364 549 373 540 Q 388 522 382 433 L 382 414 Q 381 360 381 308 Q 382 230 374 215 Q 371 211 367 209 C 355 188 355 188 356 187 Z"></path>
      </clipPath>
      <path clip-path="url(#make-me-a-hanzi-clip-2)" d="M 155 536 L 171 530 L 355 566 L 385 561 L 406 544 L 409 260 L 399 185 L 405 123" fill="none" id="make-me-a-hanzi-animation-2" stroke-dasharray="812 1624" stroke-linecap="round"></path>
    
      <clipPath id="make-me-a-hanzi-clip-3">
        <path d="M 191 672 Q 191 671 193 668 Q 211 650 208 547 L 206 525 Q 203 477 162 376 Q 159 372 159 368 Q 158 362 164 364 Q 191 373 221 453 Q 228 492 238 532 L 240 552 Q 243 577 243 631 Q 243 640 245 647 Q 249 656 244 664 Q 237 671 225 675 C 197 687 176 696 191 672 Z"></path>
      </clipPath>
      <path clip-path="url(#make-me-a-hanzi-clip-3)" d="M 197 672 L 224 652 L 222 529 L 198 427 L 165 370" fill="none" id="make-me-a-hanzi-animation-3" stroke-dasharray="455 910" stroke-linecap="round"></path>
    
      <clipPath id="make-me-a-hanzi-clip-4">
        <path d="M 322 571 Q 326 616 342 665 Q 345 675 339 682 Q 329 689 311 694 C 282 703 271 707 282 687 Q 283 683 287 678 Q 299 665 297 629 Q 296 598 293 564 L 291 542 Q 282 431 312 406 Q 319 399 355 403 Q 374 406 382 414 C 403 428 403 428 382 433 Q 376 437 367 435 Q 337 435 334 437 Q 312 455 319 545 L 322 571 Z"></path>
      </clipPath>
      <path clip-path="url(#make-me-a-hanzi-clip-4)" d="M 290 686 L 318 665 L 302 507 L 311 441 L 328 419 L 368 421 L 374 428" fill="none" id="make-me-a-hanzi-animation-4" stroke-dasharray="465 930" stroke-linecap="round"></path>
    
      <clipPath id="make-me-a-hanzi-clip-5">
        <path d="M 170 299 Q 155 296 174 283 Q 181 277 197 279 Q 275 292 332 299 Q 353 302 345 313 Q 335 326 313 330 Q 292 334 255 324 Q 210 311 170 299 Z"></path>
      </clipPath>
      <path clip-path="url(#make-me-a-hanzi-clip-5)" d="M 171 291 L 296 313 L 337 308" fill="none" id="make-me-a-hanzi-animation-5" stroke-dasharray="296 592" stroke-linecap="round"></path>
    
      <clipPath id="make-me-a-hanzi-clip-6">
        <path d="M 140 156 Q 143 156 148 157 Q 214 173 356 187 C 386 190 388 190 367 209 Q 360 216 348 223 Q 332 230 304 224 Q 216 202 143 189 C 113 184 110 152 140 156 Z"></path>
      </clipPath>
      <path clip-path="url(#make-me-a-hanzi-clip-6)" d="M 143 161 L 158 175 L 180 181 L 301 203 L 358 207" fill="none" id="make-me-a-hanzi-animation-6" stroke-dasharray="351 702" stroke-linecap="round"></path>
    
      <clipPath id="make-me-a-hanzi-clip-7">
        <path d="M 532 554 Q 572 615 612 698 Q 627 735 642 754 Q 649 764 644 775 Q 638 785 611 803 Q 586 816 570 813 Q 554 809 563 791 Q 576 770 571 749 Q 540 626 446 476 Q 439 466 437 460 Q 436 450 448 454 Q 466 460 511 522 L 532 554 Z"></path>
      </clipPath>
      <path clip-path="url(#make-me-a-hanzi-clip-7)" d="M 572 800 L 594 785 L 607 764 L 591 717 L 554 631 L 508 547 L 481 503 L 445 461" fill="none" id="make-me-a-hanzi-animation-7" stroke-dasharray="525 1050" stroke-linecap="round"></path>
    
      <clipPath id="make-me-a-hanzi-clip-8">
        <path d="M 559 271 Q 560 278 560 284 Q 559 453 563 492 Q 569 516 532 554 C 512 576 500 550 511 522 Q 538 462 507 294 Q 491 249 525 207 L 526 206 Q 539 193 549 214 Q 555 232 558 251 L 559 271 Z"></path>
      </clipPath>
      <path clip-path="url(#make-me-a-hanzi-clip-8)" d="M 536 544 L 543 428 L 530 267 L 536 214" fill="none" id="make-me-a-hanzi-animation-8" stroke-dasharray="459 918" stroke-linecap="round"></path>
    
      <clipPath id="make-me-a-hanzi-clip-9">
        <path d="M 690 723 Q 711 705 732 683 Q 744 673 756 673 Q 765 674 769 685 Q 773 697 766 721 Q 762 737 737 747 Q 682 768 668 763 Q 664 759 665 749 Q 668 739 690 723 Z"></path>
      </clipPath>
      <path clip-path="url(#make-me-a-hanzi-clip-9)" d="M 673 755 L 740 714 L 754 689" fill="none" id="make-me-a-hanzi-animation-9" stroke-dasharray="235 470" stroke-linecap="round"></path>
    
      <clipPath id="make-me-a-hanzi-clip-10">
        <path d="M 712 573 Q 835 601 839 605 Q 846 612 842 619 Q 836 628 813 634 Q 797 637 716 612 Q 631 594 598 590 Q 570 586 590 572 Q 626 554 671 565 Q 672 565 677 565 L 712 573 Z"></path>
      </clipPath>
      <path clip-path="url(#make-me-a-hanzi-clip-10)" d="M 592 582 L 648 579 L 805 615 L 833 614" fill="none" id="make-me-a-hanzi-animation-10" stroke-dasharray="373 746" stroke-linecap="round"></path>
    
      <clipPath id="make-me-a-hanzi-clip-11">
        <path d="M 733 467 Q 817 489 820 491 Q 826 497 822 503 Q 818 512 795 517 Q 774 521 735 506 L 690 492 Q 657 485 621 480 Q 594 476 614 463 Q 644 445 687 457 Q 688 458 691 457 L 733 467 Z"></path>
      </clipPath>
      <path clip-path="url(#make-me-a-hanzi-clip-11)" d="M 615 472 L 659 469 L 778 499 L 816 498" fill="none" id="make-me-a-hanzi-animation-11" stroke-dasharray="333 666" stroke-linecap="round"></path>
    
      <clipPath id="make-me-a-hanzi-clip-12">
        <path d="M 730 375 Q 818 399 820 399 Q 826 405 822 411 Q 818 420 795 425 Q 764 431 731 412 L 691 401 Q 657 394 617 388 Q 590 384 610 371 Q 640 353 685 366 Q 686 366 691 366 L 730 375 Z"></path>
      </clipPath>
      <path clip-path="url(#make-me-a-hanzi-clip-12)" d="M 611 380 L 658 378 L 740 393 L 777 408 L 817 406" fill="none" id="make-me-a-hanzi-animation-12" stroke-dasharray="338 676" stroke-linecap="round"></path>
    
      <clipPath id="make-me-a-hanzi-clip-13">
        <path d="M 727 301 Q 728 340 730 375 L 731 412 Q 731 440 733 467 L 735 506 Q 738 549 735 554 Q 723 566 712 573 C 687 590 664 592 677 565 Q 689 544 690 492 L 691 457 Q 691 435 691 401 L 691 366 Q 691 335 691 294 C 691 264 726 271 727 301 Z"></path>
      </clipPath>
      <path clip-path="url(#make-me-a-hanzi-clip-13)" d="M 684 562 L 707 548 L 713 517 L 710 325 L 696 302" fill="none" id="make-me-a-hanzi-animation-13" stroke-dasharray="405 810" stroke-linecap="round"></path>
    
      <clipPath id="make-me-a-hanzi-clip-14">
        <path d="M 691 294 Q 630 284 559 271 C 532 266 532 266 558 251 Q 585 233 611 240 Q 698 267 864 268 Q 880 269 884 276 Q 888 286 874 296 Q 825 329 773 312 Q 752 308 727 301 L 691 294 Z"></path>
      </clipPath>
      <path clip-path="url(#make-me-a-hanzi-clip-14)" d="M 568 266 L 574 259 L 593 257 L 798 292 L 875 281" fill="none" id="make-me-a-hanzi-animation-14" stroke-dasharray="442 884" stroke-linecap="round"></path>
    
      <clipPath id="make-me-a-hanzi-clip-15">
        <path d="M 494 154 Q 469 109 438 70 Q 417 46 431 12 Q 435 -4 456 5 Q 501 36 512 101 Q 519 129 514 152 Q 510 159 506 161 Q 499 160 494 154 Z"></path>
      </clipPath>
      <path clip-path="url(#make-me-a-hanzi-clip-15)" d="M 504 151 L 481 83 L 455 43 L 446 16" fill="none" id="make-me-a-hanzi-animation-15" stroke-dasharray="276 552" stroke-linecap="round"></path>
    
      <clipPath id="make-me-a-hanzi-clip-16">
        <path d="M 583 136 Q 593 61 609 50 Q 618 43 630 53 Q 637 62 640 80 Q 640 96 627 114 Q 608 144 598 153 Q 592 159 586 151 Q 582 147 583 136 Z"></path>
      </clipPath>
      <path clip-path="url(#make-me-a-hanzi-clip-16)" d="M 593 143 L 617 82 L 618 63" fill="none" id="make-me-a-hanzi-animation-16" stroke-dasharray="213 426" stroke-linecap="round"></path>
    
      <clipPath id="make-me-a-hanzi-clip-17">
        <path d="M 680 143 Q 704 74 727 66 Q 737 62 748 75 Q 752 85 750 105 Q 746 121 729 134 Q 704 158 691 164 Q 684 168 680 158 Q 676 152 680 143 Z"></path>
      </clipPath>
      <path clip-path="url(#make-me-a-hanzi-clip-17)" d="M 690 153 L 723 106 L 732 83" fill="none" id="make-me-a-hanzi-animation-17" stroke-dasharray="210 420" stroke-linecap="round"></path>
    
      <clipPath id="make-me-a-hanzi-clip-18">
        <path d="M 800 166 Q 843 111 893 35 Q 903 16 917 9 Q 924 6 933 14 Q 946 24 941 66 Q 938 120 805 194 Q 798 200 794 189 Q 793 177 800 166 Z"></path>
      </clipPath>
      <path clip-path="url(#make-me-a-hanzi-clip-18)" d="M 803 184 L 889 98 L 910 66 L 921 24" fill="none" id="make-me-a-hanzi-animation-18" stroke-dasharray="331 662" stroke-linecap="round"></path>
    
  </g>
</svg>