<svg version="1.1" viewBox="0 0 1024 1024" xmlns="http://www.w3.org/2000/svg">
  <g stroke="lightgray" stroke-dasharray="1,1" stroke-width="1" transform="scale(4, 4)">
    <line x1="0" y1="0" x2="256" y2="256"></line>
    <line x1="256" y1="0" x2="0" y2="256"></line>
    <line x1="128" y1="0" x2="128" y2="256"></line>
    <line x1="0" y1="128" x2="256" y2="128"></line>
  </g>
  <g transform="scale(1, -1) translate(0, -900)">
    <style type="text/css">
      
        @keyframes keyframes0 {
          from {
            stroke: blue;
            stroke-dashoffset: 783;
            stroke-width: 128;
          }
          72% {
            animation-timing-function: step-end;
            stroke: blue;
            stroke-dashoffset: 0;
            stroke-width: 128;
          }
          to {
            stroke: black;
            stroke-width: 1024;
          }
        }
        #make-me-a-hanzi-animation-0 {
          animation: keyframes0 0.88720703125s both;
          animation-delay: 0s;
          animation-timing-function: linear;
        }
      
        @keyframes keyframes1 {
          from {
            stroke: blue;
            stroke-dashoffset: 375;
            stroke-width: 128;
          }
          55% {
            animation-timing-function: step-end;
            stroke: blue;
            stroke-dashoffset: 0;
            stroke-width: 128;
          }
          to {
            stroke: black;
            stroke-width: 1024;
          }
        }
        #make-me-a-hanzi-animation-1 {
          animation: keyframes1 0.55517578125s both;
          animation-delay: 0.88720703125s;
          animation-timing-function: linear;
        }
      
        @keyframes keyframes2 {
          from {
            stroke: blue;
            stroke-dashoffset: 485;
            stroke-width: 128;
          }
          61% {
            animation-timing-function: step-end;
            stroke: blue;
            stroke-dashoffset: 0;
            stroke-width: 128;
          }
          to {
            stroke: black;
            stroke-width: 1024;
          }
        }
        #make-me-a-hanzi-animation-2 {
          animation: keyframes2 0.6446940104166666s both;
          animation-delay: 1.4423828125s;
          animation-timing-function: linear;
        }
      
        @keyframes keyframes3 {
          from {
            stroke: blue;
            stroke-dashoffset: 512;
            stroke-width: 128;
          }
          63% {
            animation-timing-function: step-end;
            stroke: blue;
            stroke-dashoffset: 0;
            stroke-width: 128;
          }
          to {
            stroke: black;
            stroke-width: 1024;
          }
        }
        #make-me-a-hanzi-animation-3 {
          animation: keyframes3 0.6666666666666666s both;
          animation-delay: 2.0870768229166665s;
          animation-timing-function: linear;
        }
      
        @keyframes keyframes4 {
          from {
            stroke: blue;
            stroke-dashoffset: 569;
            stroke-width: 128;
          }
          65% {
            animation-timing-function: step-end;
            stroke: blue;
            stroke-dashoffset: 0;
            stroke-width: 128;
          }
          to {
            stroke: black;
            stroke-width: 1024;
          }
        }
        #make-me-a-hanzi-animation-4 {
          animation: keyframes4 0.7130533854166666s both;
          animation-delay: 2.753743489583333s;
          animation-timing-function: linear;
        }
      
        @keyframes keyframes5 {
          from {
            stroke: blue;
            stroke-dashoffset: 368;
            stroke-width: 128;
          }
          55% {
            animation-timing-function: step-end;
            stroke: blue;
            stroke-dashoffset: 0;
            stroke-width: 128;
          }
          to {
            stroke: black;
            stroke-width: 1024;
          }
        }
        #make-me-a-hanzi-animation-5 {
          animation: keyframes5 0.5494791666666666s both;
          animation-delay: 3.4667968749999996s;
          animation-timing-function: linear;
        }
      
        @keyframes keyframes6 {
          from {
            stroke: blue;
            stroke-dashoffset: 360;
            stroke-width: 128;
          }
          54% {
            animation-timing-function: step-end;
            stroke: blue;
            stroke-dashoffset: 0;
            stroke-width: 128;
          }
          to {
            stroke: black;
            stroke-width: 1024;
          }
        }
        #make-me-a-hanzi-animation-6 {
          animation: keyframes6 0.54296875s both;
          animation-delay: 4.016276041666666s;
          animation-timing-function: linear;
        }
      
        @keyframes keyframes7 {
          from {
            stroke: blue;
            stroke-dashoffset: 609;
            stroke-width: 128;
          }
          66% {
            animation-timing-function: step-end;
            stroke: blue;
            stroke-dashoffset: 0;
            stroke-width: 128;
          }
          to {
            stroke: black;
            stroke-width: 1024;
          }
        }
        #make-me-a-hanzi-animation-7 {
          animation: keyframes7 0.74560546875s both;
          animation-delay: 4.559244791666666s;
          animation-timing-function: linear;
        }
      
        @keyframes keyframes8 {
          from {
            stroke: blue;
            stroke-dashoffset: 592;
            stroke-width: 128;
          }
          66% {
            animation-timing-function: step-end;
            stroke: blue;
            stroke-dashoffset: 0;
            stroke-width: 128;
          }
          to {
            stroke: black;
            stroke-width: 1024;
          }
        }
        #make-me-a-hanzi-animation-8 {
          animation: keyframes8 0.7317708333333334s both;
          animation-delay: 5.304850260416666s;
          animation-timing-function: linear;
        }
      
        @keyframes keyframes9 {
          from {
            stroke: blue;
            stroke-dashoffset: 842;
            stroke-width: 128;
          }
          73% {
            animation-timing-function: step-end;
            stroke: blue;
            stroke-dashoffset: 0;
            stroke-width: 128;
          }
          to {
            stroke: black;
            stroke-width: 1024;
          }
        }
        #make-me-a-hanzi-animation-9 {
          animation: keyframes9 0.9352213541666666s both;
          animation-delay: 6.036621093749999s;
          animation-timing-function: linear;
        }
      
        @keyframes keyframes10 {
          from {
            stroke: blue;
            stroke-dashoffset: 747;
            stroke-width: 128;
          }
          71% {
            animation-timing-function: step-end;
            stroke: blue;
            stroke-dashoffset: 0;
            stroke-width: 128;
          }
          to {
            stroke: black;
            stroke-width: 1024;
          }
        }
        #make-me-a-hanzi-animation-10 {
          animation: keyframes10 0.85791015625s both;
          animation-delay: 6.971842447916666s;
          animation-timing-function: linear;
        }
      
        @keyframes keyframes11 {
          from {
            stroke: blue;
            stroke-dashoffset: 503;
            stroke-width: 128;
          }
          62% {
            animation-timing-function: step-end;
            stroke: blue;
            stroke-dashoffset: 0;
            stroke-width: 128;
          }
          to {
            stroke: black;
            stroke-width: 1024;
          }
        }
        #make-me-a-hanzi-animation-11 {
          animation: keyframes11 0.6593424479166666s both;
          animation-delay: 7.829752604166666s;
          animation-timing-function: linear;
        }
      
        @keyframes keyframes12 {
          from {
            stroke: blue;
            stroke-dashoffset: 488;
            stroke-width: 128;
          }
          61% {
            animation-timing-function: step-end;
            stroke: blue;
            stroke-dashoffset: 0;
            stroke-width: 128;
          }
          to {
            stroke: black;
            stroke-width: 1024;
          }
        }
        #make-me-a-hanzi-animation-12 {
          animation: keyframes12 0.6471354166666666s both;
          animation-delay: 8.489095052083332s;
          animation-timing-function: linear;
        }
      
        @keyframes keyframes13 {
          from {
            stroke: blue;
            stroke-dashoffset: 679;
            stroke-width: 128;
          }
          69% {
            animation-timing-function: step-end;
            stroke: blue;
            stroke-dashoffset: 0;
            stroke-width: 128;
          }
          to {
            stroke: black;
            stroke-width: 1024;
          }
        }
        #make-me-a-hanzi-animation-13 {
          animation: keyframes13 0.8025716145833334s both;
          animation-delay: 9.136230468749998s;
          animation-timing-function: linear;
        }
      
        @keyframes keyframes14 {
          from {
            stroke: blue;
            stroke-dashoffset: 859;
            stroke-width: 128;
          }
          74% {
            animation-timing-function: step-end;
            stroke: blue;
            stroke-dashoffset: 0;
            stroke-width: 128;
          }
          to {
            stroke: black;
            stroke-width: 1024;
          }
        }
        #make-me-a-hanzi-animation-14 {
          animation: keyframes14 0.9490559895833334s both;
          animation-delay: 9.938802083333332s;
          animation-timing-function: linear;
        }
      
    </style>
    
      <path d="M 206 506 Q 230 537 257 572 Q 294 627 346 731 L 354 747 Q 358 763 371 775 Q 378 781 375 791 Q 366 815 326 826 Q 305 830 295 827 Q 286 824 290 812 Q 312 740 204 569 Q 194 557 185 543 Q 148 494 56 395 Q 49 389 59 388 Q 69 389 92 407 Q 132 432 167 465 Q 182 480 198 496 L 206 506 Z" fill="lightgray"></path>
    
      <path d="M 346 731 Q 350 722 373 706 Q 398 685 426 661 Q 439 651 452 652 Q 461 653 465 664 Q 469 677 460 703 Q 447 731 367 747 Q 360 748 354 747 C 337 745 337 745 346 731 Z" fill="lightgray"></path>
    
      <path d="M 309 495 Q 429 540 430 540 Q 437 547 432 554 Q 425 564 399 567 Q 372 568 348 555 Q 320 542 290 530 Q 256 518 215 509 Q 211 508 206 506 C 192 501 192 501 198 496 Q 216 478 269 483 L 309 495 Z" fill="lightgray"></path>
    
      <path d="M 338 386 Q 416 416 418 417 Q 424 424 419 431 Q 412 440 389 443 Q 364 444 341 433 L 284 407 Q 175 377 171 375 Q 143 368 165 356 Q 198 343 260 362 Q 270 366 285 369 L 338 386 Z" fill="lightgray"></path>
    
      <path d="M 332 196 Q 335 302 338 386 L 341 433 Q 341 467 340 469 Q 324 485 309 495 C 285 512 257 511 269 483 Q 278 468 284 407 L 285 369 Q 285 308 286 181 C 286 151 331 166 332 196 Z" fill="lightgray"></path>
    
      <path d="M 172 254 Q 190 235 210 211 Q 220 198 234 198 Q 244 198 249 209 Q 253 221 249 247 Q 240 277 171 296 Q 158 300 152 299 Q 148 295 148 284 Q 149 274 172 254 Z" fill="lightgray"></path>
    
      <path d="M 393 311 Q 386 292 367 262 Q 363 256 367 251 Q 373 250 379 255 Q 427 288 450 300 Q 463 304 459 313 Q 455 325 438 337 Q 422 350 406 350 Q 394 349 396 334 Q 399 324 393 311 Z" fill="lightgray"></path>
    
      <path d="M 331 155 Q 412 194 429 207 Q 442 214 442 224 Q 436 230 424 227 Q 379 212 332 196 L 286 181 Q 225 163 159 142 Q 140 136 109 137 Q 96 136 94 124 Q 93 111 102 102 Q 126 86 160 67 Q 170 64 183 74 Q 231 110 331 153 L 331 155 Z" fill="lightgray"></path>
    
      <path d="M 636 753 Q 654 783 670 797 Q 685 816 647 848 Q 625 864 609 864 Q 593 863 600 844 Q 616 808 546 702 Q 515 653 470 598 Q 461 589 459 584 Q 456 575 468 577 Q 492 580 561 657 Q 564 661 567 664 L 580 679 Q 599 703 621 732 L 636 753 Z" fill="lightgray"></path>
    
      <path d="M 629 523 Q 650 545 673 569 L 699 601 Q 787 712 811 731 Q 824 740 820 749 Q 819 758 764 780 Q 752 787 695 765 Q 665 759 636 753 C 607 747 593 743 621 732 Q 651 714 690 733 Q 709 737 717 729 Q 723 714 660 624 L 640 597 Q 558 501 453 417 Q 440 407 453 405 Q 501 412 608 504 L 629 523 Z" fill="lightgray"></path>
    
      <path d="M 673 569 Q 805 457 838 449 Q 895 442 999 472 Q 1017 476 1017 481 Q 1018 488 1004 492 Q 794 546 714 593 Q 705 597 699 601 L 660 624 Q 653 630 645 635 Q 602 666 580 679 C 555 695 546 686 567 664 Q 570 658 640 597 L 673 569 Z" fill="lightgray"></path>
    
      <path d="M 685 376 Q 713 385 748 392 Q 779 401 784 405 Q 791 412 787 419 Q 780 428 757 433 Q 733 437 686 417 L 633 400 Q 590 390 541 382 Q 513 376 534 364 Q 564 348 622 361 Q 626 362 634 363 L 685 376 Z" fill="lightgray"></path>
    
      <path d="M 684 278 Q 727 288 767 295 Q 791 299 781 312 Q 771 327 745 330 Q 723 333 684 320 L 634 304 Q 586 291 543 277 Q 527 273 547 259 Q 557 252 581 256 Q 608 263 634 267 L 684 278 Z" fill="lightgray"></path>
    
      <path d="M 684 182 Q 748 192 845 197 Q 891 197 896 206 Q 900 216 886 228 Q 838 261 772 240 Q 733 231 684 219 L 634 209 Q 558 196 474 180 Q 456 177 470 163 Q 500 141 530 149 Q 579 165 634 174 L 684 182 Z" fill="lightgray"></path>
    
      <path d="M 634 174 Q 634 -55 650 -77 Q 656 -84 663 -82 Q 678 -73 682 -17 Q 688 47 684 182 L 684 219 Q 684 246 684 278 L 684 320 Q 684 347 685 376 L 686 417 Q 689 441 695 474 Q 698 490 685 499 Q 643 527 629 523 C 599 528 596 529 608 504 Q 609 503 611 500 Q 632 455 633 400 L 634 363 Q 634 335 634 304 L 634 267 Q 634 240 634 209 L 634 174 Z" fill="lightgray"></path>
    
    
      <clipPath id="make-me-a-hanzi-clip-0">
        <path d="M 206 506 Q 230 537 257 572 Q 294 627 346 731 L 354 747 Q 358 763 371 775 Q 378 781 375 791 Q 366 815 326 826 Q 305 830 295 827 Q 286 824 290 812 Q 312 740 204 569 Q 194 557 185 543 Q 148 494 56 395 Q 49 389 59 388 Q 69 389 92 407 Q 132 432 167 465 Q 182 480 198 496 L 206 506 Z"></path>
      </clipPath>
      <path clip-path="url(#make-me-a-hanzi-clip-0)" d="M 302 816 L 331 785 L 310 718 L 268 631 L 180 504 L 117 439 L 65 401 L 62 393" fill="none" id="make-me-a-hanzi-animation-0" stroke-dasharray="655 1310" stroke-linecap="round"></path>
    
      <clipPath id="make-me-a-hanzi-clip-1">
        <path d="M 346 731 Q 350 722 373 706 Q 398 685 426 661 Q 439 651 452 652 Q 461 653 465 664 Q 469 677 460 703 Q 447 731 367 747 Q 360 748 354 747 C 337 745 337 745 346 731 Z"></path>
      </clipPath>
      <path clip-path="url(#make-me-a-hanzi-clip-1)" d="M 354 732 L 374 729 L 418 704 L 450 668" fill="none" id="make-me-a-hanzi-animation-1" stroke-dasharray="247 494" stroke-linecap="round"></path>
    
      <clipPath id="make-me-a-hanzi-clip-2">
        <path d="M 309 495 Q 429 540 430 540 Q 437 547 432 554 Q 425 564 399 567 Q 372 568 348 555 Q 320 542 290 530 Q 256 518 215 509 Q 211 508 206 506 C 192 501 192 501 198 496 Q 216 478 269 483 L 309 495 Z"></path>
      </clipPath>
      <path clip-path="url(#make-me-a-hanzi-clip-2)" d="M 206 498 L 258 500 L 315 516 L 383 545 L 427 548" fill="none" id="make-me-a-hanzi-animation-2" stroke-dasharray="357 714" stroke-linecap="round"></path>
    
      <clipPath id="make-me-a-hanzi-clip-3">
        <path d="M 338 386 Q 416 416 418 417 Q 424 424 419 431 Q 412 440 389 443 Q 364 444 341 433 L 284 407 Q 175 377 171 375 Q 143 368 165 356 Q 198 343 260 362 Q 270 366 285 369 L 338 386 Z"></path>
      </clipPath>
      <path clip-path="url(#make-me-a-hanzi-clip-3)" d="M 166 366 L 228 372 L 373 422 L 413 424" fill="none" id="make-me-a-hanzi-animation-3" stroke-dasharray="384 768" stroke-linecap="round"></path>
    
      <clipPath id="make-me-a-hanzi-clip-4">
        <path d="M 332 196 Q 335 302 338 386 L 341 433 Q 341 467 340 469 Q 324 485 309 495 C 285 512 257 511 269 483 Q 278 468 284 407 L 285 369 Q 285 308 286 181 C 286 151 331 166 332 196 Z"></path>
      </clipPath>
      <path clip-path="url(#make-me-a-hanzi-clip-4)" d="M 277 482 L 306 461 L 311 442 L 310 223 L 289 191" fill="none" id="make-me-a-hanzi-animation-4" stroke-dasharray="441 882" stroke-linecap="round"></path>
    
      <clipPath id="make-me-a-hanzi-clip-5">
        <path d="M 172 254 Q 190 235 210 211 Q 220 198 234 198 Q 244 198 249 209 Q 253 221 249 247 Q 240 277 171 296 Q 158 300 152 299 Q 148 295 148 284 Q 149 274 172 254 Z"></path>
      </clipPath>
      <path clip-path="url(#make-me-a-hanzi-clip-5)" d="M 156 290 L 206 256 L 222 240 L 234 214" fill="none" id="make-me-a-hanzi-animation-5" stroke-dasharray="240 480" stroke-linecap="round"></path>
    
      <clipPath id="make-me-a-hanzi-clip-6">
        <path d="M 393 311 Q 386 292 367 262 Q 363 256 367 251 Q 373 250 379 255 Q 427 288 450 300 Q 463 304 459 313 Q 455 325 438 337 Q 422 350 406 350 Q 394 349 396 334 Q 399 324 393 311 Z"></path>
      </clipPath>
      <path clip-path="url(#make-me-a-hanzi-clip-6)" d="M 407 338 L 422 315 L 372 257" fill="none" id="make-me-a-hanzi-animation-6" stroke-dasharray="232 464" stroke-linecap="round"></path>
    
      <clipPath id="make-me-a-hanzi-clip-7">
        <path d="M 331 155 Q 412 194 429 207 Q 442 214 442 224 Q 436 230 424 227 Q 379 212 332 196 L 286 181 Q 225 163 159 142 Q 140 136 109 137 Q 96 136 94 124 Q 93 111 102 102 Q 126 86 160 67 Q 170 64 183 74 Q 231 110 331 153 L 331 155 Z"></path>
      </clipPath>
      <path clip-path="url(#make-me-a-hanzi-clip-7)" d="M 109 122 L 167 106 L 436 221" fill="none" id="make-me-a-hanzi-animation-7" stroke-dasharray="481 962" stroke-linecap="round"></path>
    
      <clipPath id="make-me-a-hanzi-clip-8">
        <path d="M 636 753 Q 654 783 670 797 Q 685 816 647 848 Q 625 864 609 864 Q 593 863 600 844 Q 616 808 546 702 Q 515 653 470 598 Q 461 589 459 584 Q 456 575 468 577 Q 492 580 561 657 Q 564 661 567 664 L 580 679 Q 599 703 621 732 L 636 753 Z"></path>
      </clipPath>
      <path clip-path="url(#make-me-a-hanzi-clip-8)" d="M 609 852 L 627 833 L 636 811 L 611 763 L 541 659 L 491 603 L 466 584" fill="none" id="make-me-a-hanzi-animation-8" stroke-dasharray="464 928" stroke-linecap="round"></path>
    
      <clipPath id="make-me-a-hanzi-clip-9">
        <path d="M 629 523 Q 650 545 673 569 L 699 601 Q 787 712 811 731 Q 824 740 820 749 Q 819 758 764 780 Q 752 787 695 765 Q 665 759 636 753 C 607 747 593 743 621 732 Q 651 714 690 733 Q 709 737 717 729 Q 723 714 660 624 L 640 597 Q 558 501 453 417 Q 440 407 453 405 Q 501 412 608 504 L 629 523 Z"></path>
      </clipPath>
      <path clip-path="url(#make-me-a-hanzi-clip-9)" d="M 629 734 L 711 753 L 748 746 L 758 738 L 739 694 L 717 662 L 620 543 L 528 459 L 456 411" fill="none" id="make-me-a-hanzi-animation-9" stroke-dasharray="714 1428" stroke-linecap="round"></path>
    
      <clipPath id="make-me-a-hanzi-clip-10">
        <path d="M 673 569 Q 805 457 838 449 Q 895 442 999 472 Q 1017 476 1017 481 Q 1018 488 1004 492 Q 794 546 714 593 Q 705 597 699 601 L 660 624 Q 653 630 645 635 Q 602 666 580 679 C 555 695 546 686 567 664 Q 570 658 640 597 L 673 569 Z"></path>
      </clipPath>
      <path clip-path="url(#make-me-a-hanzi-clip-10)" d="M 572 666 L 589 660 L 717 562 L 825 501 L 877 487 L 1011 482" fill="none" id="make-me-a-hanzi-animation-10" stroke-dasharray="619 1238" stroke-linecap="round"></path>
    
      <clipPath id="make-me-a-hanzi-clip-11">
        <path d="M 685 376 Q 713 385 748 392 Q 779 401 784 405 Q 791 412 787 419 Q 780 428 757 433 Q 733 437 686 417 L 633 400 Q 590 390 541 382 Q 513 376 534 364 Q 564 348 622 361 Q 626 362 634 363 L 685 376 Z"></path>
      </clipPath>
      <path clip-path="url(#make-me-a-hanzi-clip-11)" d="M 535 374 L 610 375 L 718 408 L 777 414" fill="none" id="make-me-a-hanzi-animation-11" stroke-dasharray="375 750" stroke-linecap="round"></path>
    
      <clipPath id="make-me-a-hanzi-clip-12">
        <path d="M 684 278 Q 727 288 767 295 Q 791 299 781 312 Q 771 327 745 330 Q 723 333 684 320 L 634 304 Q 586 291 543 277 Q 527 273 547 259 Q 557 252 581 256 Q 608 263 634 267 L 684 278 Z"></path>
      </clipPath>
      <path clip-path="url(#make-me-a-hanzi-clip-12)" d="M 545 268 L 738 311 L 772 305" fill="none" id="make-me-a-hanzi-animation-12" stroke-dasharray="360 720" stroke-linecap="round"></path>
    
      <clipPath id="make-me-a-hanzi-clip-13">
        <path d="M 684 182 Q 748 192 845 197 Q 891 197 896 206 Q 900 216 886 228 Q 838 261 772 240 Q 733 231 684 219 L 634 209 Q 558 196 474 180 Q 456 177 470 163 Q 500 141 530 149 Q 579 165 634 174 L 684 182 Z"></path>
      </clipPath>
      <path clip-path="url(#make-me-a-hanzi-clip-13)" d="M 472 171 L 520 167 L 630 192 L 813 222 L 848 221 L 888 211" fill="none" id="make-me-a-hanzi-animation-13" stroke-dasharray="551 1102" stroke-linecap="round"></path>
    
      <clipPath id="make-me-a-hanzi-clip-14">
        <path d="M 634 174 Q 634 -55 650 -77 Q 656 -84 663 -82 Q 678 -73 682 -17 Q 688 47 684 182 L 684 219 Q 684 246 684 278 L 684 320 Q 684 347 685 376 L 686 417 Q 689 441 695 474 Q 698 490 685 499 Q 643 527 629 523 C 599 528 596 529 608 504 Q 609 503 611 500 Q 632 455 633 400 L 634 363 Q 634 335 634 304 L 634 267 Q 634 240 634 209 L 634 174 Z"></path>
      </clipPath>
      <path clip-path="url(#make-me-a-hanzi-clip-14)" d="M 615 506 L 637 499 L 659 472 L 659 -73" fill="none" id="make-me-a-hanzi-animation-14" stroke-dasharray="731 1462" stroke-linecap="round"></path>
    
  </g>
</svg>