<svg version="1.1" viewBox="0 0 1024 1024" xmlns="http://www.w3.org/2000/svg">
  <g stroke="lightgray" stroke-dasharray="1,1" stroke-width="1" transform="scale(4, 4)">
    <line x1="0" y1="0" x2="256" y2="256"></line>
    <line x1="256" y1="0" x2="0" y2="256"></line>
    <line x1="128" y1="0" x2="128" y2="256"></line>
    <line x1="0" y1="128" x2="256" y2="128"></line>
  </g>
  <g transform="scale(1, -1) translate(0, -900)">
    <style type="text/css">
      
        @keyframes keyframes0 {
          from {
            stroke: blue;
            stroke-dashoffset: 766;
            stroke-width: 128;
          }
          71% {
            animation-timing-function: step-end;
            stroke: blue;
            stroke-dashoffset: 0;
            stroke-width: 128;
          }
          to {
            stroke: black;
            stroke-width: 1024;
          }
        }
        #make-me-a-hanzi-animation-0 {
          animation: keyframes0 0.8733723958333334s both;
          animation-delay: 0s;
          animation-timing-function: linear;
        }
      
        @keyframes keyframes1 {
          from {
            stroke: blue;
            stroke-dashoffset: 381;
            stroke-width: 128;
          }
          55% {
            animation-timing-function: step-end;
            stroke: blue;
            stroke-dashoffset: 0;
            stroke-width: 128;
          }
          to {
            stroke: black;
            stroke-width: 1024;
          }
        }
        #make-me-a-hanzi-animation-1 {
          animation: keyframes1 0.56005859375s both;
          animation-delay: 0.8733723958333334s;
          animation-timing-function: linear;
        }
      
        @keyframes keyframes2 {
          from {
            stroke: blue;
            stroke-dashoffset: 451;
            stroke-width: 128;
          }
          59% {
            animation-timing-function: step-end;
            stroke: blue;
            stroke-dashoffset: 0;
            stroke-width: 128;
          }
          to {
            stroke: black;
            stroke-width: 1024;
          }
        }
        #make-me-a-hanzi-animation-2 {
          animation: keyframes2 0.6170247395833334s both;
          animation-delay: 1.4334309895833335s;
          animation-timing-function: linear;
        }
      
        @keyframes keyframes3 {
          from {
            stroke: blue;
            stroke-dashoffset: 498;
            stroke-width: 128;
          }
          62% {
            animation-timing-function: step-end;
            stroke: blue;
            stroke-dashoffset: 0;
            stroke-width: 128;
          }
          to {
            stroke: black;
            stroke-width: 1024;
          }
        }
        #make-me-a-hanzi-animation-3 {
          animation: keyframes3 0.6552734375s both;
          animation-delay: 2.050455729166667s;
          animation-timing-function: linear;
        }
      
        @keyframes keyframes4 {
          from {
            stroke: blue;
            stroke-dashoffset: 546;
            stroke-width: 128;
          }
          64% {
            animation-timing-function: step-end;
            stroke: blue;
            stroke-dashoffset: 0;
            stroke-width: 128;
          }
          to {
            stroke: black;
            stroke-width: 1024;
          }
        }
        #make-me-a-hanzi-animation-4 {
          animation: keyframes4 0.6943359375s both;
          animation-delay: 2.705729166666667s;
          animation-timing-function: linear;
        }
      
        @keyframes keyframes5 {
          from {
            stroke: blue;
            stroke-dashoffset: 334;
            stroke-width: 128;
          }
          52% {
            animation-timing-function: step-end;
            stroke: blue;
            stroke-dashoffset: 0;
            stroke-width: 128;
          }
          to {
            stroke: black;
            stroke-width: 1024;
          }
        }
        #make-me-a-hanzi-animation-5 {
          animation: keyframes5 0.5218098958333334s both;
          animation-delay: 3.400065104166667s;
          animation-timing-function: linear;
        }
      
        @keyframes keyframes6 {
          from {
            stroke: blue;
            stroke-dashoffset: 353;
            stroke-width: 128;
          }
          53% {
            animation-timing-function: step-end;
            stroke: blue;
            stroke-dashoffset: 0;
            stroke-width: 128;
          }
          to {
            stroke: black;
            stroke-width: 1024;
          }
        }
        #make-me-a-hanzi-animation-6 {
          animation: keyframes6 0.5372721354166666s both;
          animation-delay: 3.9218750000000004s;
          animation-timing-function: linear;
        }
      
        @keyframes keyframes7 {
          from {
            stroke: blue;
            stroke-dashoffset: 634;
            stroke-width: 128;
          }
          67% {
            animation-timing-function: step-end;
            stroke: blue;
            stroke-dashoffset: 0;
            stroke-width: 128;
          }
          to {
            stroke: black;
            stroke-width: 1024;
          }
        }
        #make-me-a-hanzi-animation-7 {
          animation: keyframes7 0.7659505208333334s both;
          animation-delay: 4.459147135416667s;
          animation-timing-function: linear;
        }
      
        @keyframes keyframes8 {
          from {
            stroke: blue;
            stroke-dashoffset: 560;
            stroke-width: 128;
          }
          65% {
            animation-timing-function: step-end;
            stroke: blue;
            stroke-dashoffset: 0;
            stroke-width: 128;
          }
          to {
            stroke: black;
            stroke-width: 1024;
          }
        }
        #make-me-a-hanzi-animation-8 {
          animation: keyframes8 0.7057291666666666s both;
          animation-delay: 5.22509765625s;
          animation-timing-function: linear;
        }
      
        @keyframes keyframes9 {
          from {
            stroke: blue;
            stroke-dashoffset: 366;
            stroke-width: 128;
          }
          54% {
            animation-timing-function: step-end;
            stroke: blue;
            stroke-dashoffset: 0;
            stroke-width: 128;
          }
          to {
            stroke: black;
            stroke-width: 1024;
          }
        }
        #make-me-a-hanzi-animation-9 {
          animation: keyframes9 0.5478515625s both;
          animation-delay: 5.930826822916667s;
          animation-timing-function: linear;
        }
      
        @keyframes keyframes10 {
          from {
            stroke: blue;
            stroke-dashoffset: 340;
            stroke-width: 128;
          }
          53% {
            animation-timing-function: step-end;
            stroke: blue;
            stroke-dashoffset: 0;
            stroke-width: 128;
          }
          to {
            stroke: black;
            stroke-width: 1024;
          }
        }
        #make-me-a-hanzi-animation-10 {
          animation: keyframes10 0.5266927083333334s both;
          animation-delay: 6.478678385416667s;
          animation-timing-function: linear;
        }
      
        @keyframes keyframes11 {
          from {
            stroke: blue;
            stroke-dashoffset: 481;
            stroke-width: 128;
          }
          61% {
            animation-timing-function: step-end;
            stroke: blue;
            stroke-dashoffset: 0;
            stroke-width: 128;
          }
          to {
            stroke: black;
            stroke-width: 1024;
          }
        }
        #make-me-a-hanzi-animation-11 {
          animation: keyframes11 0.6414388020833334s both;
          animation-delay: 7.00537109375s;
          animation-timing-function: linear;
        }
      
        @keyframes keyframes12 {
          from {
            stroke: blue;
            stroke-dashoffset: 817;
            stroke-width: 128;
          }
          73% {
            animation-timing-function: step-end;
            stroke: blue;
            stroke-dashoffset: 0;
            stroke-width: 128;
          }
          to {
            stroke: black;
            stroke-width: 1024;
          }
        }
        #make-me-a-hanzi-animation-12 {
          animation: keyframes12 0.9148763020833334s both;
          animation-delay: 7.646809895833333s;
          animation-timing-function: linear;
        }
      
        @keyframes keyframes13 {
          from {
            stroke: blue;
            stroke-dashoffset: 764;
            stroke-width: 128;
          }
          71% {
            animation-timing-function: step-end;
            stroke: blue;
            stroke-dashoffset: 0;
            stroke-width: 128;
          }
          to {
            stroke: black;
            stroke-width: 1024;
          }
        }
        #make-me-a-hanzi-animation-13 {
          animation: keyframes13 0.8717447916666666s both;
          animation-delay: 8.561686197916666s;
          animation-timing-function: linear;
        }
      
        @keyframes keyframes14 {
          from {
            stroke: blue;
            stroke-dashoffset: 576;
            stroke-width: 128;
          }
          65% {
            animation-timing-function: step-end;
            stroke: blue;
            stroke-dashoffset: 0;
            stroke-width: 128;
          }
          to {
            stroke: black;
            stroke-width: 1024;
          }
        }
        #make-me-a-hanzi-animation-14 {
          animation: keyframes14 0.71875s both;
          animation-delay: 9.433430989583332s;
          animation-timing-function: linear;
        }
      
        @keyframes keyframes15 {
          from {
            stroke: blue;
            stroke-dashoffset: 901;
            stroke-width: 128;
          }
          75% {
            animation-timing-function: step-end;
            stroke: blue;
            stroke-dashoffset: 0;
            stroke-width: 128;
          }
          to {
            stroke: black;
            stroke-width: 1024;
          }
        }
        #make-me-a-hanzi-animation-15 {
          animation: keyframes15 0.9832356770833334s both;
          animation-delay: 10.152180989583332s;
          animation-timing-function: linear;
        }
      
    </style>
    
      <path d="M 334 741 Q 344 759 357 768 Q 367 778 362 792 Q 358 805 330 828 Q 303 846 285 846 Q 266 845 274 822 Q 287 792 276 766 Q 240 681 186 600 Q 134 524 63 438 Q 53 428 50 422 Q 47 412 61 414 Q 119 423 285 662 Q 288 669 325 727 L 334 741 Z" fill="lightgray"></path>
    
      <path d="M 325 727 Q 329 718 352 703 Q 383 684 415 659 Q 427 650 438 652 Q 447 653 449 664 Q 452 676 442 698 Q 430 728 344 740 Q 338 741 334 741 C 316 742 316 742 325 727 Z" fill="lightgray"></path>
    
      <path d="M 306 503 Q 390 531 394 536 Q 401 543 396 550 Q 389 560 363 562 Q 341 563 267 531 Q 237 521 203 513 Q 172 504 197 492 Q 228 483 270 490 L 306 503 Z" fill="lightgray"></path>
    
      <path d="M 324 388 Q 349 398 380 406 Q 408 415 413 420 Q 420 427 416 434 Q 409 444 383 448 Q 341 451 327 436 L 280 416 Q 229 400 176 389 Q 145 380 169 368 Q 209 353 254 367 Q 266 371 280 374 L 324 388 Z" fill="lightgray"></path>
    
      <path d="M 317 217 Q 320 311 324 388 L 327 436 Q 330 479 327 484 Q 317 496 306 503 C 282 521 263 519 270 490 Q 279 457 280 416 L 280 374 Q 279 316 278 204 C 278 174 316 187 317 217 Z" fill="lightgray"></path>
    
      <path d="M 160 294 Q 191 234 214 228 Q 226 225 235 241 Q 238 253 232 272 Q 222 297 168 318 Q 159 321 157 310 Q 154 303 160 294 Z" fill="lightgray"></path>
    
      <path d="M 379 334 Q 370 313 350 280 Q 347 276 351 272 Q 355 271 360 275 Q 403 312 426 327 Q 436 331 433 338 Q 429 347 414 357 Q 401 367 387 366 Q 378 365 380 353 Q 383 344 379 334 Z" fill="lightgray"></path>
    
      <path d="M 278 204 Q 217 188 155 167 Q 134 160 101 161 Q 88 160 86 148 Q 85 135 94 126 Q 118 110 152 91 Q 162 88 175 97 Q 208 124 399 212 Q 426 224 445 239 Q 458 246 458 256 Q 452 262 440 259 Q 382 240 317 217 L 278 204 Z" fill="lightgray"></path>
    
      <path d="M 694 816 Q 640 777 509 727 Q 505 720 509 716 Q 543 709 697 760 Q 718 775 786 783 Q 802 782 806 789 Q 810 799 800 810 Q 751 852 716 852 Q 709 848 708 838 Q 707 825 694 816 Z" fill="lightgray"></path>
    
      <path d="M 500 621 Q 518 599 535 571 Q 542 559 555 557 Q 564 556 569 565 Q 576 575 574 599 Q 571 624 505 658 Q 493 662 488 662 Q 484 661 483 650 Q 484 641 500 621 Z" fill="lightgray"></path>
    
      <path d="M 606 668 Q 630 626 650 613 Q 660 609 668 617 Q 675 626 675 638 Q 674 656 662 667 Q 631 698 606 698 Q 603 699 602 698 Q 598 698 597 688 Q 597 681 606 668 Z" fill="lightgray"></path>
    
      <path d="M 705 544 Q 742 581 764 605 Q 812 666 835 681 Q 851 694 839 708 Q 824 721 798 728 Q 774 735 764 731 Q 754 727 759 716 Q 771 691 728 619 Q 683 538 682 537 C 667 511 684 523 705 544 Z" fill="lightgray"></path>
    
      <path d="M 812 318 Q 822 370 832 403 L 849 451 Q 849 452 850 452 Q 863 483 882 500 Q 898 519 883 536 Q 867 549 814 572 Q 796 579 775 570 Q 739 555 705 544 L 682 537 Q 528 507 500 503 Q 484 502 486 493 Q 489 486 506 479 Q 530 469 563 480 Q 579 484 597 487 L 632 494 Q 690 509 752 521 Q 777 528 786 518 Q 799 505 797 478 Q 793 459 790 438 L 783 400 Q 774 360 764 324 C 756 295 806 289 812 318 Z" fill="lightgray"></path>
    
      <path d="M 832 403 Q 866 407 908 407 Q 929 407 947 408 Q 963 408 967 416 Q 971 426 958 436 Q 909 470 856 453 Q 852 453 849 451 L 790 438 Q 709 426 679 417 L 628 409 Q 546 397 458 383 Q 440 380 454 367 Q 481 343 519 355 Q 571 373 633 380 L 683 388 Q 726 397 783 400 L 832 403 Z" fill="lightgray"></path>
    
      <path d="M 643 297 Q 574 284 514 275 Q 495 274 507 256 Q 514 247 524 244 Q 534 241 547 244 Q 584 254 645 263 L 694 270 Q 751 279 824 286 Q 834 287 836 296 Q 836 303 812 318 L 764 324 Q 761 325 759 324 Q 725 317 691 306 L 643 297 Z" fill="lightgray"></path>
    
      <path d="M 633 380 Q 637 341 643 297 L 645 263 Q 651 92 622 45 Q 621 39 614 37 Q 608 34 529 47 Q 520 48 518 45 Q 517 41 525 32 Q 580 -19 608 -57 Q 618 -70 624 -68 Q 636 -67 656 -47 Q 701 -5 702 86 Q 705 212 694 270 L 691 306 Q 687 369 683 388 L 679 417 Q 678 435 677 450 Q 677 469 665 477 Q 647 487 632 494 C 605 507 579 511 597 487 Q 621 463 628 409 L 633 380 Z" fill="lightgray"></path>
    
    
      <clipPath id="make-me-a-hanzi-clip-0">
        <path d="M 334 741 Q 344 759 357 768 Q 367 778 362 792 Q 358 805 330 828 Q 303 846 285 846 Q 266 845 274 822 Q 287 792 276 766 Q 240 681 186 600 Q 134 524 63 438 Q 53 428 50 422 Q 47 412 61 414 Q 119 423 285 662 Q 288 669 325 727 L 334 741 Z"></path>
      </clipPath>
      <path clip-path="url(#make-me-a-hanzi-clip-0)" d="M 285 832 L 301 818 L 319 786 L 283 712 L 216 601 L 165 533 L 97 453 L 58 422" fill="none" id="make-me-a-hanzi-animation-0" stroke-dasharray="638 1276" stroke-linecap="round"></path>
    
      <clipPath id="make-me-a-hanzi-clip-1">
        <path d="M 325 727 Q 329 718 352 703 Q 383 684 415 659 Q 427 650 438 652 Q 447 653 449 664 Q 452 676 442 698 Q 430 728 344 740 Q 338 741 334 741 C 316 742 316 742 325 727 Z"></path>
      </clipPath>
      <path clip-path="url(#make-me-a-hanzi-clip-1)" d="M 332 727 L 401 701 L 418 689 L 436 664" fill="none" id="make-me-a-hanzi-animation-1" stroke-dasharray="253 506" stroke-linecap="round"></path>
    
      <clipPath id="make-me-a-hanzi-clip-2">
        <path d="M 306 503 Q 390 531 394 536 Q 401 543 396 550 Q 389 560 363 562 Q 341 563 267 531 Q 237 521 203 513 Q 172 504 197 492 Q 228 483 270 490 L 306 503 Z"></path>
      </clipPath>
      <path clip-path="url(#make-me-a-hanzi-clip-2)" d="M 197 503 L 259 507 L 346 539 L 386 544" fill="none" id="make-me-a-hanzi-animation-2" stroke-dasharray="323 646" stroke-linecap="round"></path>
    
      <clipPath id="make-me-a-hanzi-clip-3">
        <path d="M 324 388 Q 349 398 380 406 Q 408 415 413 420 Q 420 427 416 434 Q 409 444 383 448 Q 341 451 327 436 L 280 416 Q 229 400 176 389 Q 145 380 169 368 Q 209 353 254 367 Q 266 371 280 374 L 324 388 Z"></path>
      </clipPath>
      <path clip-path="url(#make-me-a-hanzi-clip-3)" d="M 170 379 L 229 381 L 359 425 L 405 429" fill="none" id="make-me-a-hanzi-animation-3" stroke-dasharray="370 740" stroke-linecap="round"></path>
    
      <clipPath id="make-me-a-hanzi-clip-4">
        <path d="M 317 217 Q 320 311 324 388 L 327 436 Q 330 479 327 484 Q 317 496 306 503 C 282 521 263 519 270 490 Q 279 457 280 416 L 280 374 Q 279 316 278 204 C 278 174 316 187 317 217 Z"></path>
      </clipPath>
      <path clip-path="url(#make-me-a-hanzi-clip-4)" d="M 279 485 L 301 472 L 304 447 L 299 243 L 293 223 L 282 214" fill="none" id="make-me-a-hanzi-animation-4" stroke-dasharray="418 836" stroke-linecap="round"></path>
    
      <clipPath id="make-me-a-hanzi-clip-5">
        <path d="M 160 294 Q 191 234 214 228 Q 226 225 235 241 Q 238 253 232 272 Q 222 297 168 318 Q 159 321 157 310 Q 154 303 160 294 Z"></path>
      </clipPath>
      <path clip-path="url(#make-me-a-hanzi-clip-5)" d="M 169 305 L 208 264 L 217 245" fill="none" id="make-me-a-hanzi-animation-5" stroke-dasharray="206 412" stroke-linecap="round"></path>
    
      <clipPath id="make-me-a-hanzi-clip-6">
        <path d="M 379 334 Q 370 313 350 280 Q 347 276 351 272 Q 355 271 360 275 Q 403 312 426 327 Q 436 331 433 338 Q 429 347 414 357 Q 401 367 387 366 Q 378 365 380 353 Q 383 344 379 334 Z"></path>
      </clipPath>
      <path clip-path="url(#make-me-a-hanzi-clip-6)" d="M 393 355 L 403 338 L 355 277" fill="none" id="make-me-a-hanzi-animation-6" stroke-dasharray="225 450" stroke-linecap="round"></path>
    
      <clipPath id="make-me-a-hanzi-clip-7">
        <path d="M 278 204 Q 217 188 155 167 Q 134 160 101 161 Q 88 160 86 148 Q 85 135 94 126 Q 118 110 152 91 Q 162 88 175 97 Q 208 124 399 212 Q 426 224 445 239 Q 458 246 458 256 Q 452 262 440 259 Q 382 240 317 217 L 278 204 Z"></path>
      </clipPath>
      <path clip-path="url(#make-me-a-hanzi-clip-7)" d="M 101 146 L 158 130 L 452 253" fill="none" id="make-me-a-hanzi-animation-7" stroke-dasharray="506 1012" stroke-linecap="round"></path>
    
      <clipPath id="make-me-a-hanzi-clip-8">
        <path d="M 694 816 Q 640 777 509 727 Q 505 720 509 716 Q 543 709 697 760 Q 718 775 786 783 Q 802 782 806 789 Q 810 799 800 810 Q 751 852 716 852 Q 709 848 708 838 Q 707 825 694 816 Z"></path>
      </clipPath>
      <path clip-path="url(#make-me-a-hanzi-clip-8)" d="M 797 795 L 736 811 L 637 759 L 513 722" fill="none" id="make-me-a-hanzi-animation-8" stroke-dasharray="432 864" stroke-linecap="round"></path>
    
      <clipPath id="make-me-a-hanzi-clip-9">
        <path d="M 500 621 Q 518 599 535 571 Q 542 559 555 557 Q 564 556 569 565 Q 576 575 574 599 Q 571 624 505 658 Q 493 662 488 662 Q 484 661 483 650 Q 484 641 500 621 Z"></path>
      </clipPath>
      <path clip-path="url(#make-me-a-hanzi-clip-9)" d="M 490 654 L 543 604 L 557 570" fill="none" id="make-me-a-hanzi-animation-9" stroke-dasharray="238 476" stroke-linecap="round"></path>
    
      <clipPath id="make-me-a-hanzi-clip-10">
        <path d="M 606 668 Q 630 626 650 613 Q 660 609 668 617 Q 675 626 675 638 Q 674 656 662 667 Q 631 698 606 698 Q 603 699 602 698 Q 598 698 597 688 Q 597 681 606 668 Z"></path>
      </clipPath>
      <path clip-path="url(#make-me-a-hanzi-clip-10)" d="M 604 691 L 641 656 L 656 627" fill="none" id="make-me-a-hanzi-animation-10" stroke-dasharray="212 424" stroke-linecap="round"></path>
    
      <clipPath id="make-me-a-hanzi-clip-11">
        <path d="M 705 544 Q 742 581 764 605 Q 812 666 835 681 Q 851 694 839 708 Q 824 721 798 728 Q 774 735 764 731 Q 754 727 759 716 Q 771 691 728 619 Q 683 538 682 537 C 667 511 684 523 705 544 Z"></path>
      </clipPath>
      <path clip-path="url(#make-me-a-hanzi-clip-11)" d="M 770 721 L 796 693 L 756 625 L 688 541" fill="none" id="make-me-a-hanzi-animation-11" stroke-dasharray="353 706" stroke-linecap="round"></path>
    
      <clipPath id="make-me-a-hanzi-clip-12">
        <path d="M 812 318 Q 822 370 832 403 L 849 451 Q 849 452 850 452 Q 863 483 882 500 Q 898 519 883 536 Q 867 549 814 572 Q 796 579 775 570 Q 739 555 705 544 L 682 537 Q 528 507 500 503 Q 484 502 486 493 Q 489 486 506 479 Q 530 469 563 480 Q 579 484 597 487 L 632 494 Q 690 509 752 521 Q 777 528 786 518 Q 799 505 797 478 Q 793 459 790 438 L 783 400 Q 774 360 764 324 C 756 295 806 289 812 318 Z"></path>
      </clipPath>
      <path clip-path="url(#make-me-a-hanzi-clip-12)" d="M 494 494 L 538 491 L 776 546 L 811 539 L 836 510 L 794 344 L 771 330" fill="none" id="make-me-a-hanzi-animation-12" stroke-dasharray="689 1378" stroke-linecap="round"></path>
    
      <clipPath id="make-me-a-hanzi-clip-13">
        <path d="M 832 403 Q 866 407 908 407 Q 929 407 947 408 Q 963 408 967 416 Q 971 426 958 436 Q 909 470 856 453 Q 852 453 849 451 L 790 438 Q 709 426 679 417 L 628 409 Q 546 397 458 383 Q 440 380 454 367 Q 481 343 519 355 Q 571 373 633 380 L 683 388 Q 726 397 783 400 L 832 403 Z"></path>
      </clipPath>
      <path clip-path="url(#make-me-a-hanzi-clip-13)" d="M 456 375 L 508 371 L 718 411 L 881 432 L 904 433 L 957 421" fill="none" id="make-me-a-hanzi-animation-13" stroke-dasharray="636 1272" stroke-linecap="round"></path>
    
      <clipPath id="make-me-a-hanzi-clip-14">
        <path d="M 643 297 Q 574 284 514 275 Q 495 274 507 256 Q 514 247 524 244 Q 534 241 547 244 Q 584 254 645 263 L 694 270 Q 751 279 824 286 Q 834 287 836 296 Q 836 303 812 318 L 764 324 Q 761 325 759 324 Q 725 317 691 306 L 643 297 Z"></path>
      </clipPath>
      <path clip-path="url(#make-me-a-hanzi-clip-14)" d="M 512 265 L 548 262 L 762 302 L 804 302 L 827 295" fill="none" id="make-me-a-hanzi-animation-14" stroke-dasharray="448 896" stroke-linecap="round"></path>
    
      <clipPath id="make-me-a-hanzi-clip-15">
        <path d="M 633 380 Q 637 341 643 297 L 645 263 Q 651 92 622 45 Q 621 39 614 37 Q 608 34 529 47 Q 520 48 518 45 Q 517 41 525 32 Q 580 -19 608 -57 Q 618 -70 624 -68 Q 636 -67 656 -47 Q 701 -5 702 86 Q 705 212 694 270 L 691 306 Q 687 369 683 388 L 679 417 Q 678 435 677 450 Q 677 469 665 477 Q 647 487 632 494 C 605 507 579 511 597 487 Q 621 463 628 409 L 633 380 Z"></path>
      </clipPath>
      <path clip-path="url(#make-me-a-hanzi-clip-15)" d="M 603 485 L 638 466 L 648 453 L 652 433 L 674 215 L 667 61 L 653 20 L 629 -8 L 525 40" fill="none" id="make-me-a-hanzi-animation-15" stroke-dasharray="773 1546" stroke-linecap="round"></path>
    
  </g>
</svg>