<svg version="1.1" viewBox="0 0 1024 1024" xmlns="http://www.w3.org/2000/svg">
  <g stroke="lightgray" stroke-dasharray="1,1" stroke-width="1" transform="scale(4, 4)">
    <line x1="0" y1="0" x2="256" y2="256"></line>
    <line x1="256" y1="0" x2="0" y2="256"></line>
    <line x1="128" y1="0" x2="128" y2="256"></line>
    <line x1="0" y1="128" x2="256" y2="128"></line>
  </g>
  <g transform="scale(1, -1) translate(0, -900)">
    <style type="text/css">
      
        @keyframes keyframes0 {
          from {
            stroke: blue;
            stroke-dashoffset: 801;
            stroke-width: 128;
          }
          72% {
            animation-timing-function: step-end;
            stroke: blue;
            stroke-dashoffset: 0;
            stroke-width: 128;
          }
          to {
            stroke: black;
            stroke-width: 1024;
          }
        }
        #make-me-a-hanzi-animation-0 {
          animation: keyframes0 0.90185546875s both;
          animation-delay: 0s;
          animation-timing-function: linear;
        }
      
        @keyframes keyframes1 {
          from {
            stroke: blue;
            stroke-dashoffset: 381;
            stroke-width: 128;
          }
          55% {
            animation-timing-function: step-end;
            stroke: blue;
            stroke-dashoffset: 0;
            stroke-width: 128;
          }
          to {
            stroke: black;
            stroke-width: 1024;
          }
        }
        #make-me-a-hanzi-animation-1 {
          animation: keyframes1 0.56005859375s both;
          animation-delay: 0.90185546875s;
          animation-timing-function: linear;
        }
      
        @keyframes keyframes2 {
          from {
            stroke: blue;
            stroke-dashoffset: 466;
            stroke-width: 128;
          }
          60% {
            animation-timing-function: step-end;
            stroke: blue;
            stroke-dashoffset: 0;
            stroke-width: 128;
          }
          to {
            stroke: black;
            stroke-width: 1024;
          }
        }
        #make-me-a-hanzi-animation-2 {
          animation: keyframes2 0.6292317708333334s both;
          animation-delay: 1.4619140625s;
          animation-timing-function: linear;
        }
      
        @keyframes keyframes3 {
          from {
            stroke: blue;
            stroke-dashoffset: 499;
            stroke-width: 128;
          }
          62% {
            animation-timing-function: step-end;
            stroke: blue;
            stroke-dashoffset: 0;
            stroke-width: 128;
          }
          to {
            stroke: black;
            stroke-width: 1024;
          }
        }
        #make-me-a-hanzi-animation-3 {
          animation: keyframes3 0.6560872395833334s both;
          animation-delay: 2.0911458333333335s;
          animation-timing-function: linear;
        }
      
        @keyframes keyframes4 {
          from {
            stroke: blue;
            stroke-dashoffset: 572;
            stroke-width: 128;
          }
          65% {
            animation-timing-function: step-end;
            stroke: blue;
            stroke-dashoffset: 0;
            stroke-width: 128;
          }
          to {
            stroke: black;
            stroke-width: 1024;
          }
        }
        #make-me-a-hanzi-animation-4 {
          animation: keyframes4 0.7154947916666666s both;
          animation-delay: 2.747233072916667s;
          animation-timing-function: linear;
        }
      
        @keyframes keyframes5 {
          from {
            stroke: blue;
            stroke-dashoffset: 358;
            stroke-width: 128;
          }
          54% {
            animation-timing-function: step-end;
            stroke: blue;
            stroke-dashoffset: 0;
            stroke-width: 128;
          }
          to {
            stroke: black;
            stroke-width: 1024;
          }
        }
        #make-me-a-hanzi-animation-5 {
          animation: keyframes5 0.5413411458333334s both;
          animation-delay: 3.4627278645833335s;
          animation-timing-function: linear;
        }
      
        @keyframes keyframes6 {
          from {
            stroke: blue;
            stroke-dashoffset: 354;
            stroke-width: 128;
          }
          54% {
            animation-timing-function: step-end;
            stroke: blue;
            stroke-dashoffset: 0;
            stroke-width: 128;
          }
          to {
            stroke: black;
            stroke-width: 1024;
          }
        }
        #make-me-a-hanzi-animation-6 {
          animation: keyframes6 0.5380859375s both;
          animation-delay: 4.004069010416667s;
          animation-timing-function: linear;
        }
      
        @keyframes keyframes7 {
          from {
            stroke: blue;
            stroke-dashoffset: 626;
            stroke-width: 128;
          }
          67% {
            animation-timing-function: step-end;
            stroke: blue;
            stroke-dashoffset: 0;
            stroke-width: 128;
          }
          to {
            stroke: black;
            stroke-width: 1024;
          }
        }
        #make-me-a-hanzi-animation-7 {
          animation: keyframes7 0.7594401041666666s both;
          animation-delay: 4.542154947916667s;
          animation-timing-function: linear;
        }
      
        @keyframes keyframes8 {
          from {
            stroke: blue;
            stroke-dashoffset: 630;
            stroke-width: 128;
          }
          67% {
            animation-timing-function: step-end;
            stroke: blue;
            stroke-dashoffset: 0;
            stroke-width: 128;
          }
          to {
            stroke: black;
            stroke-width: 1024;
          }
        }
        #make-me-a-hanzi-animation-8 {
          animation: keyframes8 0.7626953125s both;
          animation-delay: 5.301595052083334s;
          animation-timing-function: linear;
        }
      
        @keyframes keyframes9 {
          from {
            stroke: blue;
            stroke-dashoffset: 622;
            stroke-width: 128;
          }
          67% {
            animation-timing-function: step-end;
            stroke: blue;
            stroke-dashoffset: 0;
            stroke-width: 128;
          }
          to {
            stroke: black;
            stroke-width: 1024;
          }
        }
        #make-me-a-hanzi-animation-9 {
          animation: keyframes9 0.7561848958333334s both;
          animation-delay: 6.064290364583334s;
          animation-timing-function: linear;
        }
      
        @keyframes keyframes10 {
          from {
            stroke: blue;
            stroke-dashoffset: 650;
            stroke-width: 128;
          }
          68% {
            animation-timing-function: step-end;
            stroke: blue;
            stroke-dashoffset: 0;
            stroke-width: 128;
          }
          to {
            stroke: black;
            stroke-width: 1024;
          }
        }
        #make-me-a-hanzi-animation-10 {
          animation: keyframes10 0.7789713541666666s both;
          animation-delay: 6.820475260416667s;
          animation-timing-function: linear;
        }
      
        @keyframes keyframes11 {
          from {
            stroke: blue;
            stroke-dashoffset: 550;
            stroke-width: 128;
          }
          64% {
            animation-timing-function: step-end;
            stroke: blue;
            stroke-dashoffset: 0;
            stroke-width: 128;
          }
          to {
            stroke: black;
            stroke-width: 1024;
          }
        }
        #make-me-a-hanzi-animation-11 {
          animation: keyframes11 0.6975911458333334s both;
          animation-delay: 7.599446614583334s;
          animation-timing-function: linear;
        }
      
        @keyframes keyframes12 {
          from {
            stroke: blue;
            stroke-dashoffset: 952;
            stroke-width: 128;
          }
          76% {
            animation-timing-function: step-end;
            stroke: blue;
            stroke-dashoffset: 0;
            stroke-width: 128;
          }
          to {
            stroke: black;
            stroke-width: 1024;
          }
        }
        #make-me-a-hanzi-animation-12 {
          animation: keyframes12 1.0247395833333333s both;
          animation-delay: 8.297037760416668s;
          animation-timing-function: linear;
        }
      
        @keyframes keyframes13 {
          from {
            stroke: blue;
            stroke-dashoffset: 436;
            stroke-width: 128;
          }
          59% {
            animation-timing-function: step-end;
            stroke: blue;
            stroke-dashoffset: 0;
            stroke-width: 128;
          }
          to {
            stroke: black;
            stroke-width: 1024;
          }
        }
        #make-me-a-hanzi-animation-13 {
          animation: keyframes13 0.6048177083333334s both;
          animation-delay: 9.321777343750002s;
          animation-timing-function: linear;
        }
      
        @keyframes keyframes14 {
          from {
            stroke: blue;
            stroke-dashoffset: 471;
            stroke-width: 128;
          }
          61% {
            animation-timing-function: step-end;
            stroke: blue;
            stroke-dashoffset: 0;
            stroke-width: 128;
          }
          to {
            stroke: black;
            stroke-width: 1024;
          }
        }
        #make-me-a-hanzi-animation-14 {
          animation: keyframes14 0.63330078125s both;
          animation-delay: 9.926595052083336s;
          animation-timing-function: linear;
        }
      
        @keyframes keyframes15 {
          from {
            stroke: blue;
            stroke-dashoffset: 493;
            stroke-width: 128;
          }
          62% {
            animation-timing-function: step-end;
            stroke: blue;
            stroke-dashoffset: 0;
            stroke-width: 128;
          }
          to {
            stroke: black;
            stroke-width: 1024;
          }
        }
        #make-me-a-hanzi-animation-15 {
          animation: keyframes15 0.6512044270833334s both;
          animation-delay: 10.559895833333336s;
          animation-timing-function: linear;
        }
      
    </style>
    
      <path d="M 337 707 Q 350 728 365 740 Q 375 750 370 764 Q 366 777 338 800 Q 311 818 293 818 Q 274 817 282 794 Q 297 761 284 734 Q 218 581 51 382 Q 41 372 39 366 Q 35 356 49 358 Q 109 365 279 613 Q 321 683 325 687 L 337 707 Z" fill="lightgray"></path>
    
      <path d="M 325 687 Q 331 681 346 670 Q 380 646 415 617 Q 425 608 438 609 Q 445 610 449 620 Q 453 632 444 655 Q 438 674 407 688 Q 376 698 341 707 Q 338 708 337 707 C 307 708 303 707 325 687 Z" fill="lightgray"></path>
    
      <path d="M 309 476 Q 403 509 406 512 Q 413 519 408 526 Q 401 536 375 539 Q 348 540 324 527 Q 299 514 271 504 Q 240 494 203 485 Q 173 476 197 465 Q 230 453 273 463 L 309 476 Z" fill="lightgray"></path>
    
      <path d="M 336 360 Q 355 367 379 374 Q 409 384 414 389 Q 420 396 415 403 Q 408 412 385 415 Q 360 416 338 405 L 286 383 Q 247 368 175 351 Q 147 344 169 332 Q 202 319 265 338 Q 275 341 287 344 L 336 360 Z" fill="lightgray"></path>
    
      <path d="M 329 168 Q 333 274 336 360 L 338 405 Q 341 447 337 453 Q 324 466 309 476 C 285 493 262 491 273 463 Q 285 436 286 383 L 287 344 Q 287 280 287 156 C 287 126 328 138 329 168 Z" fill="lightgray"></path>
    
      <path d="M 175 229 Q 191 211 208 190 Q 218 180 231 178 Q 240 178 245 189 Q 249 201 245 225 Q 239 247 174 268 Q 161 272 156 271 Q 152 268 152 257 Q 153 248 175 229 Z" fill="lightgray"></path>
    
      <path d="M 384 288 Q 377 269 358 237 Q 355 231 359 228 Q 365 227 369 231 Q 412 267 434 281 Q 446 285 442 293 Q 436 303 422 313 Q 409 323 393 323 Q 383 322 386 309 Q 387 299 384 288 Z" fill="lightgray"></path>
    
      <path d="M 287 156 Q 218 137 143 115 Q 124 109 91 110 Q 78 109 76 99 Q 73 86 83 78 Q 105 62 138 42 Q 148 39 160 48 Q 202 78 383 154 Q 410 164 429 179 Q 442 186 442 196 Q 436 202 424 199 Q 378 186 329 168 L 287 156 Z" fill="lightgray"></path>
    
      <path d="M 524 698 Q 512 614 459 532 Q 449 523 448 513 Q 447 503 469 487 Q 490 468 519 428 Q 531 409 541 412 Q 554 412 561 428 Q 568 449 563 464 Q 554 482 493 507 Q 483 511 484 516 Q 478 547 563 660 Q 573 676 582 683 Q 607 698 573 729 Q 554 747 537 750 Q 521 751 515 745 Q 514 741 518 733 Q 528 721 524 698 Z" fill="lightgray"></path>
    
      <path d="M 672 714 Q 660 635 611 561 Q 589 545 620 512 Q 636 491 660 450 Q 667 431 679 430 Q 692 429 701 444 Q 711 463 707 479 Q 704 500 644 533 Q 635 540 636 544 Q 630 577 715 682 Q 724 694 730 699 Q 758 711 721 745 Q 702 764 685 766 Q 669 767 663 761 Q 662 757 666 749 Q 676 737 672 714 Z" fill="lightgray"></path>
    
      <path d="M 798 714 Q 779 647 735 584 Q 725 571 729 559 Q 732 547 749 536 Q 783 506 814 473 Q 830 455 845 455 Q 858 456 861 480 Q 862 505 850 521 Q 843 533 798 544 Q 777 548 769 562 Q 762 572 776 587 Q 798 617 839 680 Q 858 705 873 718 Q 889 727 881 745 Q 865 782 839 795 Q 824 804 812 800 Q 800 797 807 778 Q 816 753 798 714 Z" fill="lightgray"></path>
    
      <path d="M 510 348 Q 500 355 471 361 Q 461 364 457 360 Q 451 354 458 340 Q 489 262 501 138 Q 502 101 522 75 Q 537 54 542 69 Q 543 73 545 79 L 547 111 Q 547 129 544 150 Q 525 271 519 314 C 515 344 515 346 510 348 Z" fill="lightgray"></path>
    
      <path d="M 759 102 Q 769 77 796 25 Q 805 6 815 8 Q 831 11 840 37 Q 864 85 880 256 Q 886 302 908 330 Q 924 349 913 362 Q 894 384 848 404 Q 830 414 798 404 Q 690 365 510 348 C 480 345 489 310 519 314 Q 526 314 533 315 Q 573 324 627 333 L 664 340 Q 796 367 813 351 Q 820 347 821 326 Q 822 232 805 138 Q 804 122 797 120 Q 796 119 788 120 C 763 104 759 103 759 102 Z" fill="lightgray"></path>
    
      <path d="M 685 219 Q 707 226 732 231 Q 753 235 756 239 Q 762 245 759 251 Q 753 260 731 265 Q 709 268 686 258 L 639 243 Q 611 237 577 232 Q 549 228 570 215 Q 594 200 639 208 L 685 219 Z" fill="lightgray"></path>
    
      <path d="M 680 133 Q 681 179 685 219 L 686 258 Q 692 313 687 320 Q 675 332 664 340 C 640 358 615 361 627 333 Q 636 318 639 243 L 639 208 Q 639 174 641 125 C 642 95 679 103 680 133 Z" fill="lightgray"></path>
    
      <path d="M 545 79 Q 549 79 556 79 Q 622 92 759 102 C 789 104 802 105 788 120 Q 781 129 764 140 Q 749 149 680 133 L 641 125 Q 590 118 547 111 C 517 106 515 79 545 79 Z" fill="lightgray"></path>
    
    
      <clipPath id="make-me-a-hanzi-clip-0">
        <path d="M 337 707 Q 350 728 365 740 Q 375 750 370 764 Q 366 777 338 800 Q 311 818 293 818 Q 274 817 282 794 Q 297 761 284 734 Q 218 581 51 382 Q 41 372 39 366 Q 35 356 49 358 Q 109 365 279 613 Q 321 683 325 687 L 337 707 Z"></path>
      </clipPath>
      <path clip-path="url(#make-me-a-hanzi-clip-0)" d="M 293 804 L 317 780 L 328 758 L 265 636 L 138 456 L 77 389 L 47 366" fill="none" id="make-me-a-hanzi-animation-0" stroke-dasharray="673 1346" stroke-linecap="round"></path>
    
      <clipPath id="make-me-a-hanzi-clip-1">
        <path d="M 325 687 Q 331 681 346 670 Q 380 646 415 617 Q 425 608 438 609 Q 445 610 449 620 Q 453 632 444 655 Q 438 674 407 688 Q 376 698 341 707 Q 338 708 337 707 C 307 708 303 707 325 687 Z"></path>
      </clipPath>
      <path clip-path="url(#make-me-a-hanzi-clip-1)" d="M 334 689 L 346 690 L 393 667 L 419 648 L 434 624" fill="none" id="make-me-a-hanzi-animation-1" stroke-dasharray="253 506" stroke-linecap="round"></path>
    
      <clipPath id="make-me-a-hanzi-clip-2">
        <path d="M 309 476 Q 403 509 406 512 Q 413 519 408 526 Q 401 536 375 539 Q 348 540 324 527 Q 299 514 271 504 Q 240 494 203 485 Q 173 476 197 465 Q 230 453 273 463 L 309 476 Z"></path>
      </clipPath>
      <path clip-path="url(#make-me-a-hanzi-clip-2)" d="M 197 476 L 220 473 L 271 483 L 349 514 L 400 520" fill="none" id="make-me-a-hanzi-animation-2" stroke-dasharray="338 676" stroke-linecap="round"></path>
    
      <clipPath id="make-me-a-hanzi-clip-3">
        <path d="M 336 360 Q 355 367 379 374 Q 409 384 414 389 Q 420 396 415 403 Q 408 412 385 415 Q 360 416 338 405 L 286 383 Q 247 368 175 351 Q 147 344 169 332 Q 202 319 265 338 Q 275 341 287 344 L 336 360 Z"></path>
      </clipPath>
      <path clip-path="url(#make-me-a-hanzi-clip-3)" d="M 170 342 L 236 348 L 361 391 L 405 397" fill="none" id="make-me-a-hanzi-animation-3" stroke-dasharray="371 742" stroke-linecap="round"></path>
    
      <clipPath id="make-me-a-hanzi-clip-4">
        <path d="M 329 168 Q 333 274 336 360 L 338 405 Q 341 447 337 453 Q 324 466 309 476 C 285 493 262 491 273 463 Q 285 436 286 383 L 287 344 Q 287 280 287 156 C 287 126 328 138 329 168 Z"></path>
      </clipPath>
      <path clip-path="url(#make-me-a-hanzi-clip-4)" d="M 281 460 L 307 445 L 312 416 L 309 193 L 304 177 L 292 166" fill="none" id="make-me-a-hanzi-animation-4" stroke-dasharray="444 888" stroke-linecap="round"></path>
    
      <clipPath id="make-me-a-hanzi-clip-5">
        <path d="M 175 229 Q 191 211 208 190 Q 218 180 231 178 Q 240 178 245 189 Q 249 201 245 225 Q 239 247 174 268 Q 161 272 156 271 Q 152 268 152 257 Q 153 248 175 229 Z"></path>
      </clipPath>
      <path clip-path="url(#make-me-a-hanzi-clip-5)" d="M 159 263 L 207 230 L 230 193" fill="none" id="make-me-a-hanzi-animation-5" stroke-dasharray="230 460" stroke-linecap="round"></path>
    
      <clipPath id="make-me-a-hanzi-clip-6">
        <path d="M 384 288 Q 377 269 358 237 Q 355 231 359 228 Q 365 227 369 231 Q 412 267 434 281 Q 446 285 442 293 Q 436 303 422 313 Q 409 323 393 323 Q 383 322 386 309 Q 387 299 384 288 Z"></path>
      </clipPath>
      <path clip-path="url(#make-me-a-hanzi-clip-6)" d="M 431 292 L 409 293 L 363 233" fill="none" id="make-me-a-hanzi-animation-6" stroke-dasharray="226 452" stroke-linecap="round"></path>
    
      <clipPath id="make-me-a-hanzi-clip-7">
        <path d="M 287 156 Q 218 137 143 115 Q 124 109 91 110 Q 78 109 76 99 Q 73 86 83 78 Q 105 62 138 42 Q 148 39 160 48 Q 202 78 383 154 Q 410 164 429 179 Q 442 186 442 196 Q 436 202 424 199 Q 378 186 329 168 L 287 156 Z"></path>
      </clipPath>
      <path clip-path="url(#make-me-a-hanzi-clip-7)" d="M 90 96 L 144 79 L 436 193" fill="none" id="make-me-a-hanzi-animation-7" stroke-dasharray="498 996" stroke-linecap="round"></path>
    
      <clipPath id="make-me-a-hanzi-clip-8">
        <path d="M 524 698 Q 512 614 459 532 Q 449 523 448 513 Q 447 503 469 487 Q 490 468 519 428 Q 531 409 541 412 Q 554 412 561 428 Q 568 449 563 464 Q 554 482 493 507 Q 483 511 484 516 Q 478 547 563 660 Q 573 676 582 683 Q 607 698 573 729 Q 554 747 537 750 Q 521 751 515 745 Q 514 741 518 733 Q 528 721 524 698 Z"></path>
      </clipPath>
      <path clip-path="url(#make-me-a-hanzi-clip-8)" d="M 523 741 L 538 733 L 556 700 L 530 639 L 479 548 L 467 512 L 531 458 L 540 432" fill="none" id="make-me-a-hanzi-animation-8" stroke-dasharray="502 1004" stroke-linecap="round"></path>
    
      <clipPath id="make-me-a-hanzi-clip-9">
        <path d="M 672 714 Q 660 635 611 561 Q 589 545 620 512 Q 636 491 660 450 Q 667 431 679 430 Q 692 429 701 444 Q 711 463 707 479 Q 704 500 644 533 Q 635 540 636 544 Q 630 577 715 682 Q 724 694 730 699 Q 758 711 721 745 Q 702 764 685 766 Q 669 767 663 761 Q 662 757 666 749 Q 676 737 672 714 Z"></path>
      </clipPath>
      <path clip-path="url(#make-me-a-hanzi-clip-9)" d="M 671 757 L 692 742 L 704 718 L 680 662 L 631 577 L 619 540 L 675 479 L 681 447" fill="none" id="make-me-a-hanzi-animation-9" stroke-dasharray="494 988" stroke-linecap="round"></path>
    
      <clipPath id="make-me-a-hanzi-clip-10">
        <path d="M 798 714 Q 779 647 735 584 Q 725 571 729 559 Q 732 547 749 536 Q 783 506 814 473 Q 830 455 845 455 Q 858 456 861 480 Q 862 505 850 521 Q 843 533 798 544 Q 777 548 769 562 Q 762 572 776 587 Q 798 617 839 680 Q 858 705 873 718 Q 889 727 881 745 Q 865 782 839 795 Q 824 804 812 800 Q 800 797 807 778 Q 816 753 798 714 Z"></path>
      </clipPath>
      <path clip-path="url(#make-me-a-hanzi-clip-10)" d="M 817 787 L 832 773 L 844 740 L 792 642 L 752 582 L 748 566 L 764 542 L 826 503 L 843 470" fill="none" id="make-me-a-hanzi-animation-10" stroke-dasharray="522 1044" stroke-linecap="round"></path>
    
      <clipPath id="make-me-a-hanzi-clip-11">
        <path d="M 510 348 Q 500 355 471 361 Q 461 364 457 360 Q 451 354 458 340 Q 489 262 501 138 Q 502 101 522 75 Q 537 54 542 69 Q 543 73 545 79 L 547 111 Q 547 129 544 150 Q 525 271 519 314 C 515 344 515 346 510 348 Z"></path>
      </clipPath>
      <path clip-path="url(#make-me-a-hanzi-clip-11)" d="M 465 353 L 491 325 L 496 306 L 532 73" fill="none" id="make-me-a-hanzi-animation-11" stroke-dasharray="422 844" stroke-linecap="round"></path>
    
      <clipPath id="make-me-a-hanzi-clip-12">
        <path d="M 759 102 Q 769 77 796 25 Q 805 6 815 8 Q 831 11 840 37 Q 864 85 880 256 Q 886 302 908 330 Q 924 349 913 362 Q 894 384 848 404 Q 830 414 798 404 Q 690 365 510 348 C 480 345 489 310 519 314 Q 526 314 533 315 Q 573 324 627 333 L 664 340 Q 796 367 813 351 Q 820 347 821 326 Q 822 232 805 138 Q 804 122 797 120 Q 796 119 788 120 C 763 104 759 103 759 102 Z"></path>
      </clipPath>
      <path clip-path="url(#make-me-a-hanzi-clip-12)" d="M 520 345 L 536 333 L 812 381 L 832 377 L 855 358 L 864 345 L 837 145 L 831 114 L 813 80 L 814 22" fill="none" id="make-me-a-hanzi-animation-12" stroke-dasharray="824 1648" stroke-linecap="round"></path>
    
      <clipPath id="make-me-a-hanzi-clip-13">
        <path d="M 685 219 Q 707 226 732 231 Q 753 235 756 239 Q 762 245 759 251 Q 753 260 731 265 Q 709 268 686 258 L 639 243 Q 611 237 577 232 Q 549 228 570 215 Q 594 200 639 208 L 685 219 Z"></path>
      </clipPath>
      <path clip-path="url(#make-me-a-hanzi-clip-13)" d="M 571 225 L 628 222 L 709 245 L 748 247" fill="none" id="make-me-a-hanzi-animation-13" stroke-dasharray="308 616" stroke-linecap="round"></path>
    
      <clipPath id="make-me-a-hanzi-clip-14">
        <path d="M 680 133 Q 681 179 685 219 L 686 258 Q 692 313 687 320 Q 675 332 664 340 C 640 358 615 361 627 333 Q 636 318 639 243 L 639 208 Q 639 174 641 125 C 642 95 679 103 680 133 Z"></path>
      </clipPath>
      <path clip-path="url(#make-me-a-hanzi-clip-14)" d="M 634 332 L 657 313 L 663 293 L 661 156 L 646 133" fill="none" id="make-me-a-hanzi-animation-14" stroke-dasharray="343 686" stroke-linecap="round"></path>
    
      <clipPath id="make-me-a-hanzi-clip-15">
        <path d="M 545 79 Q 549 79 556 79 Q 622 92 759 102 C 789 104 802 105 788 120 Q 781 129 764 140 Q 749 149 680 133 L 641 125 Q 590 118 547 111 C 517 106 515 79 545 79 Z"></path>
      </clipPath>
      <path clip-path="url(#make-me-a-hanzi-clip-15)" d="M 551 84 L 562 97 L 587 102 L 714 120 L 780 122" fill="none" id="make-me-a-hanzi-animation-15" stroke-dasharray="365 730" stroke-linecap="round"></path>
    
  </g>
</svg>