<svg version="1.1" viewBox="0 0 1024 1024" xmlns="http://www.w3.org/2000/svg">
  <g stroke="lightgray" stroke-dasharray="1,1" stroke-width="1" transform="scale(4, 4)">
    <line x1="0" y1="0" x2="256" y2="256"></line>
    <line x1="256" y1="0" x2="0" y2="256"></line>
    <line x1="128" y1="0" x2="128" y2="256"></line>
    <line x1="0" y1="128" x2="256" y2="128"></line>
  </g>
  <g transform="scale(1, -1) translate(0, -900)">
    <style type="text/css">
      
        @keyframes keyframes0 {
          from {
            stroke: blue;
            stroke-dashoffset: 754;
            stroke-width: 128;
          }
          71% {
            animation-timing-function: step-end;
            stroke: blue;
            stroke-dashoffset: 0;
            stroke-width: 128;
          }
          to {
            stroke: black;
            stroke-width: 1024;
          }
        }
        #make-me-a-hanzi-animation-0 {
          animation: keyframes0 0.8636067708333334s both;
          animation-delay: 0s;
          animation-timing-function: linear;
        }
      
        @keyframes keyframes1 {
          from {
            stroke: blue;
            stroke-dashoffset: 429;
            stroke-width: 128;
          }
          58% {
            animation-timing-function: step-end;
            stroke: blue;
            stroke-dashoffset: 0;
            stroke-width: 128;
          }
          to {
            stroke: black;
            stroke-width: 1024;
          }
        }
        #make-me-a-hanzi-animation-1 {
          animation: keyframes1 0.59912109375s both;
          animation-delay: 0.8636067708333334s;
          animation-timing-function: linear;
        }
      
        @keyframes keyframes2 {
          from {
            stroke: blue;
            stroke-dashoffset: 478;
            stroke-width: 128;
          }
          61% {
            animation-timing-function: step-end;
            stroke: blue;
            stroke-dashoffset: 0;
            stroke-width: 128;
          }
          to {
            stroke: black;
            stroke-width: 1024;
          }
        }
        #make-me-a-hanzi-animation-2 {
          animation: keyframes2 0.6389973958333334s both;
          animation-delay: 1.4627278645833335s;
          animation-timing-function: linear;
        }
      
        @keyframes keyframes3 {
          from {
            stroke: blue;
            stroke-dashoffset: 533;
            stroke-width: 128;
          }
          63% {
            animation-timing-function: step-end;
            stroke: blue;
            stroke-dashoffset: 0;
            stroke-width: 128;
          }
          to {
            stroke: black;
            stroke-width: 1024;
          }
        }
        #make-me-a-hanzi-animation-3 {
          animation: keyframes3 0.6837565104166666s both;
          animation-delay: 2.101725260416667s;
          animation-timing-function: linear;
        }
      
        @keyframes keyframes4 {
          from {
            stroke: blue;
            stroke-dashoffset: 723;
            stroke-width: 128;
          }
          70% {
            animation-timing-function: step-end;
            stroke: blue;
            stroke-dashoffset: 0;
            stroke-width: 128;
          }
          to {
            stroke: black;
            stroke-width: 1024;
          }
        }
        #make-me-a-hanzi-animation-4 {
          animation: keyframes4 0.83837890625s both;
          animation-delay: 2.7854817708333335s;
          animation-timing-function: linear;
        }
      
        @keyframes keyframes5 {
          from {
            stroke: blue;
            stroke-dashoffset: 496;
            stroke-width: 128;
          }
          62% {
            animation-timing-function: step-end;
            stroke: blue;
            stroke-dashoffset: 0;
            stroke-width: 128;
          }
          to {
            stroke: black;
            stroke-width: 1024;
          }
        }
        #make-me-a-hanzi-animation-5 {
          animation: keyframes5 0.6536458333333334s both;
          animation-delay: 3.6238606770833335s;
          animation-timing-function: linear;
        }
      
        @keyframes keyframes6 {
          from {
            stroke: blue;
            stroke-dashoffset: 919;
            stroke-width: 128;
          }
          75% {
            animation-timing-function: step-end;
            stroke: blue;
            stroke-dashoffset: 0;
            stroke-width: 128;
          }
          to {
            stroke: black;
            stroke-width: 1024;
          }
        }
        #make-me-a-hanzi-animation-6 {
          animation: keyframes6 0.9978841145833334s both;
          animation-delay: 4.277506510416667s;
          animation-timing-function: linear;
        }
      
        @keyframes keyframes7 {
          from {
            stroke: blue;
            stroke-dashoffset: 1014;
            stroke-width: 128;
          }
          77% {
            animation-timing-function: step-end;
            stroke: blue;
            stroke-dashoffset: 0;
            stroke-width: 128;
          }
          to {
            stroke: black;
            stroke-width: 1024;
          }
        }
        #make-me-a-hanzi-animation-7 {
          animation: keyframes7 1.0751953125s both;
          animation-delay: 5.275390625s;
          animation-timing-function: linear;
        }
      
        @keyframes keyframes8 {
          from {
            stroke: blue;
            stroke-dashoffset: 803;
            stroke-width: 128;
          }
          72% {
            animation-timing-function: step-end;
            stroke: blue;
            stroke-dashoffset: 0;
            stroke-width: 128;
          }
          to {
            stroke: black;
            stroke-width: 1024;
          }
        }
        #make-me-a-hanzi-animation-8 {
          animation: keyframes8 0.9034830729166666s both;
          animation-delay: 6.3505859375s;
          animation-timing-function: linear;
        }
      
    </style>
    
      <path d="M 280 619 Q 362 748 364 749 Q 363 753 362 756 Q 358 769 330 792 Q 303 810 285 810 Q 266 809 274 786 Q 287 756 276 731 Q 242 647 190 569 Q 139 493 71 410 Q 61 400 58 394 Q 55 384 69 386 Q 81 387 105 410 Q 147 444 197 508 Q 227 544 260 589 L 280 619 Z" fill="lightgray"></path>
    
      <path d="M 260 589 Q 299 579 339 593 Q 379 605 420 617 Q 439 623 442 626 Q 449 635 444 642 Q 437 652 409 655 Q 403 655 280 619 C 251 611 231 596 260 589 Z" fill="lightgray"></path>
    
      <path d="M 290 454 Q 416 494 417 496 Q 424 503 420 510 Q 413 520 387 524 Q 365 527 301 500 Q 244 482 201 473 Q 170 466 193 452 Q 212 445 244 444 L 290 454 Z" fill="lightgray"></path>
    
      <path d="M 312 327 Q 426 363 429 366 Q 436 373 432 382 Q 425 392 397 396 Q 361 399 313 373 L 264 355 Q 218 340 161 331 Q 128 322 154 309 Q 194 290 243 307 Q 253 310 266 313 L 312 327 Z" fill="lightgray"></path>
    
      <path d="M 266 313 Q 262 195 231 146 Q 189 107 230 59 Q 231 58 233 56 Q 246 49 257 64 Q 270 89 397 190 Q 416 202 420 210 Q 424 220 415 220 Q 402 220 313 176 Q 301 169 301 180 Q 310 261 312 327 L 313 373 Q 313 395 317 412 Q 323 430 290 454 C 267 473 233 472 244 444 Q 262 404 264 355 L 266 313 Z" fill="lightgray"></path>
    
      <path d="M 565 602 Q 731 677 770 683 Q 794 687 787 708 Q 778 727 756 749 Q 737 768 723 768 Q 710 769 711 756 Q 708 729 627 669 Q 593 647 559 623 C 534 606 538 590 565 602 Z" fill="lightgray"></path>
    
      <path d="M 546 449 Q 547 474 551 499 Q 557 587 565 602 C 568 615 568 615 559 623 Q 544 639 516 651 Q 497 661 484 656 Q 472 649 479 635 Q 497 608 497 543 Q 496 536 496 526 Q 493 372 456 256 Q 432 184 354 46 Q 350 40 347 34 Q 346 24 356 25 Q 389 31 468 167 Q 474 182 481 195 Q 520 285 531 356 L 534 372 Q 538 402 543 431 L 546 449 Z" fill="lightgray"></path>
    
      <path d="M 714 217 Q 756 286 783 394 Q 789 428 808 448 Q 823 463 804 477 Q 783 493 749 504 Q 727 511 706 498 Q 651 468 573 455 Q 555 454 546 449 C 517 442 514 439 543 431 Q 570 418 610 430 Q 655 442 700 453 Q 722 460 722 435 Q 722 347 676 254 L 651 213 Q 642 203 634 190 Q 582 133 448 86 Q 433 82 443 74 Q 450 70 478 75 Q 568 87 620 116 Q 654 137 683 171 L 714 217 Z" fill="lightgray"></path>
    
      <path d="M 683 171 Q 714 131 756 86 Q 771 67 798 65 Q 879 56 945 60 Q 979 61 978 71 Q 975 77 891 113 Q 773 165 714 217 L 676 254 Q 643 288 610 329 Q 579 369 545 372 Q 538 373 534 372 C 509 373 509 373 531 356 Q 532 355 536 352 Q 575 324 651 213 L 683 171 Z" fill="lightgray"></path>
    
    
      <clipPath id="make-me-a-hanzi-clip-0">
        <path d="M 280 619 Q 362 748 364 749 Q 363 753 362 756 Q 358 769 330 792 Q 303 810 285 810 Q 266 809 274 786 Q 287 756 276 731 Q 242 647 190 569 Q 139 493 71 410 Q 61 400 58 394 Q 55 384 69 386 Q 81 387 105 410 Q 147 444 197 508 Q 227 544 260 589 L 280 619 Z"></path>
      </clipPath>
      <path clip-path="url(#make-me-a-hanzi-clip-0)" d="M 285 796 L 315 762 L 318 748 L 292 690 L 237 597 L 166 499 L 91 412 L 66 394" fill="none" id="make-me-a-hanzi-animation-0" stroke-dasharray="626 1252" stroke-linecap="round"></path>
    
      <clipPath id="make-me-a-hanzi-clip-1">
        <path d="M 260 589 Q 299 579 339 593 Q 379 605 420 617 Q 439 623 442 626 Q 449 635 444 642 Q 437 652 409 655 Q 403 655 280 619 C 251 611 231 596 260 589 Z"></path>
      </clipPath>
      <path clip-path="url(#make-me-a-hanzi-clip-1)" d="M 268 591 L 298 606 L 414 636 L 434 635" fill="none" id="make-me-a-hanzi-animation-1" stroke-dasharray="301 602" stroke-linecap="round"></path>
    
      <clipPath id="make-me-a-hanzi-clip-2">
        <path d="M 290 454 Q 416 494 417 496 Q 424 503 420 510 Q 413 520 387 524 Q 365 527 301 500 Q 244 482 201 473 Q 170 466 193 452 Q 212 445 244 444 L 290 454 Z"></path>
      </clipPath>
      <path clip-path="url(#make-me-a-hanzi-clip-2)" d="M 195 463 L 248 464 L 366 501 L 411 505" fill="none" id="make-me-a-hanzi-animation-2" stroke-dasharray="350 700" stroke-linecap="round"></path>
    
      <clipPath id="make-me-a-hanzi-clip-3">
        <path d="M 312 327 Q 426 363 429 366 Q 436 373 432 382 Q 425 392 397 396 Q 361 399 313 373 L 264 355 Q 218 340 161 331 Q 128 322 154 309 Q 194 290 243 307 Q 253 310 266 313 L 312 327 Z"></path>
      </clipPath>
      <path clip-path="url(#make-me-a-hanzi-clip-3)" d="M 155 321 L 216 320 L 370 371 L 402 377 L 423 374" fill="none" id="make-me-a-hanzi-animation-3" stroke-dasharray="405 810" stroke-linecap="round"></path>
    
      <clipPath id="make-me-a-hanzi-clip-4">
        <path d="M 266 313 Q 262 195 231 146 Q 189 107 230 59 Q 231 58 233 56 Q 246 49 257 64 Q 270 89 397 190 Q 416 202 420 210 Q 424 220 415 220 Q 402 220 313 176 Q 301 169 301 180 Q 310 261 312 327 L 313 373 Q 313 395 317 412 Q 323 430 290 454 C 267 473 233 472 244 444 Q 262 404 264 355 L 266 313 Z"></path>
      </clipPath>
      <path clip-path="url(#make-me-a-hanzi-clip-4)" d="M 253 440 L 283 423 L 287 412 L 289 308 L 274 176 L 278 145 L 319 154 L 413 213" fill="none" id="make-me-a-hanzi-animation-4" stroke-dasharray="595 1190" stroke-linecap="round"></path>
    
      <clipPath id="make-me-a-hanzi-clip-5">
        <path d="M 565 602 Q 731 677 770 683 Q 794 687 787 708 Q 778 727 756 749 Q 737 768 723 768 Q 710 769 711 756 Q 708 729 627 669 Q 593 647 559 623 C 534 606 538 590 565 602 Z"></path>
      </clipPath>
      <path clip-path="url(#make-me-a-hanzi-clip-5)" d="M 720 759 L 729 746 L 735 715 L 583 625 L 575 611" fill="none" id="make-me-a-hanzi-animation-5" stroke-dasharray="368 736" stroke-linecap="round"></path>
    
      <clipPath id="make-me-a-hanzi-clip-6">
        <path d="M 546 449 Q 547 474 551 499 Q 557 587 565 602 C 568 615 568 615 559 623 Q 544 639 516 651 Q 497 661 484 656 Q 472 649 479 635 Q 497 608 497 543 Q 496 536 496 526 Q 493 372 456 256 Q 432 184 354 46 Q 350 40 347 34 Q 346 24 356 25 Q 389 31 468 167 Q 474 182 481 195 Q 520 285 531 356 L 534 372 Q 538 402 543 431 L 546 449 Z"></path>
      </clipPath>
      <path clip-path="url(#make-me-a-hanzi-clip-6)" d="M 490 643 L 512 625 L 528 600 L 517 428 L 498 315 L 471 227 L 444 166 L 377 57 L 356 34" fill="none" id="make-me-a-hanzi-animation-6" stroke-dasharray="791 1582" stroke-linecap="round"></path>
    
      <clipPath id="make-me-a-hanzi-clip-7">
        <path d="M 714 217 Q 756 286 783 394 Q 789 428 808 448 Q 823 463 804 477 Q 783 493 749 504 Q 727 511 706 498 Q 651 468 573 455 Q 555 454 546 449 C 517 442 514 439 543 431 Q 570 418 610 430 Q 655 442 700 453 Q 722 460 722 435 Q 722 347 676 254 L 651 213 Q 642 203 634 190 Q 582 133 448 86 Q 433 82 443 74 Q 450 70 478 75 Q 568 87 620 116 Q 654 137 683 171 L 714 217 Z"></path>
      </clipPath>
      <path clip-path="url(#make-me-a-hanzi-clip-7)" d="M 551 434 L 558 440 L 614 446 L 724 478 L 746 470 L 760 451 L 744 359 L 714 272 L 651 172 L 623 146 L 584 122 L 502 91 L 448 79" fill="none" id="make-me-a-hanzi-animation-7" stroke-dasharray="886 1772" stroke-linecap="round"></path>
    
      <clipPath id="make-me-a-hanzi-clip-8">
        <path d="M 683 171 Q 714 131 756 86 Q 771 67 798 65 Q 879 56 945 60 Q 979 61 978 71 Q 975 77 891 113 Q 773 165 714 217 L 676 254 Q 643 288 610 329 Q 579 369 545 372 Q 538 373 534 372 C 509 373 509 373 531 356 Q 532 355 536 352 Q 575 324 651 213 L 683 171 Z"></path>
      </clipPath>
      <path clip-path="url(#make-me-a-hanzi-clip-8)" d="M 540 367 L 580 337 L 701 192 L 794 111 L 883 86 L 974 69" fill="none" id="make-me-a-hanzi-animation-8" stroke-dasharray="675 1350" stroke-linecap="round"></path>
    
  </g>
</svg>