<svg version="1.1" viewBox="0 0 1024 1024" xmlns="http://www.w3.org/2000/svg">
  <g stroke="lightgray" stroke-dasharray="1,1" stroke-width="1" transform="scale(4, 4)">
    <line x1="0" y1="0" x2="256" y2="256"></line>
    <line x1="256" y1="0" x2="0" y2="256"></line>
    <line x1="128" y1="0" x2="128" y2="256"></line>
    <line x1="0" y1="128" x2="256" y2="128"></line>
  </g>
  <g transform="scale(1, -1) translate(0, -900)">
    <style type="text/css">
      
        @keyframes keyframes0 {
          from {
            stroke: blue;
            stroke-dashoffset: 865;
            stroke-width: 128;
          }
          74% {
            animation-timing-function: step-end;
            stroke: blue;
            stroke-dashoffset: 0;
            stroke-width: 128;
          }
          to {
            stroke: black;
            stroke-width: 1024;
          }
        }
        #make-me-a-hanzi-animation-0 {
          animation: keyframes0 0.9539388020833334s both;
          animation-delay: 0s;
          animation-timing-function: linear;
        }
      
        @keyframes keyframes1 {
          from {
            stroke: blue;
            stroke-dashoffset: 426;
            stroke-width: 128;
          }
          58% {
            animation-timing-function: step-end;
            stroke: blue;
            stroke-dashoffset: 0;
            stroke-width: 128;
          }
          to {
            stroke: black;
            stroke-width: 1024;
          }
        }
        #make-me-a-hanzi-animation-1 {
          animation: keyframes1 0.5966796875s both;
          animation-delay: 0.9539388020833334s;
          animation-timing-function: linear;
        }
      
        @keyframes keyframes2 {
          from {
            stroke: blue;
            stroke-dashoffset: 492;
            stroke-width: 128;
          }
          62% {
            animation-timing-function: step-end;
            stroke: blue;
            stroke-dashoffset: 0;
            stroke-width: 128;
          }
          to {
            stroke: black;
            stroke-width: 1024;
          }
        }
        #make-me-a-hanzi-animation-2 {
          animation: keyframes2 0.650390625s both;
          animation-delay: 1.5506184895833335s;
          animation-timing-function: linear;
        }
      
        @keyframes keyframes3 {
          from {
            stroke: blue;
            stroke-dashoffset: 572;
            stroke-width: 128;
          }
          65% {
            animation-timing-function: step-end;
            stroke: blue;
            stroke-dashoffset: 0;
            stroke-width: 128;
          }
          to {
            stroke: black;
            stroke-width: 1024;
          }
        }
        #make-me-a-hanzi-animation-3 {
          animation: keyframes3 0.7154947916666666s both;
          animation-delay: 2.2010091145833335s;
          animation-timing-function: linear;
        }
      
        @keyframes keyframes4 {
          from {
            stroke: blue;
            stroke-dashoffset: 795;
            stroke-width: 128;
          }
          72% {
            animation-timing-function: step-end;
            stroke: blue;
            stroke-dashoffset: 0;
            stroke-width: 128;
          }
          to {
            stroke: black;
            stroke-width: 1024;
          }
        }
        #make-me-a-hanzi-animation-4 {
          animation: keyframes4 0.89697265625s both;
          animation-delay: 2.91650390625s;
          animation-timing-function: linear;
        }
      
        @keyframes keyframes5 {
          from {
            stroke: blue;
            stroke-dashoffset: 553;
            stroke-width: 128;
          }
          64% {
            animation-timing-function: step-end;
            stroke: blue;
            stroke-dashoffset: 0;
            stroke-width: 128;
          }
          to {
            stroke: black;
            stroke-width: 1024;
          }
        }
        #make-me-a-hanzi-animation-5 {
          animation: keyframes5 0.7000325520833334s both;
          animation-delay: 3.8134765625s;
          animation-timing-function: linear;
        }
      
        @keyframes keyframes6 {
          from {
            stroke: blue;
            stroke-dashoffset: 696;
            stroke-width: 128;
          }
          69% {
            animation-timing-function: step-end;
            stroke: blue;
            stroke-dashoffset: 0;
            stroke-width: 128;
          }
          to {
            stroke: black;
            stroke-width: 1024;
          }
        }
        #make-me-a-hanzi-animation-6 {
          animation: keyframes6 0.81640625s both;
          animation-delay: 4.513509114583333s;
          animation-timing-function: linear;
        }
      
        @keyframes keyframes7 {
          from {
            stroke: blue;
            stroke-dashoffset: 1027;
            stroke-width: 128;
          }
          77% {
            animation-timing-function: step-end;
            stroke: blue;
            stroke-dashoffset: 0;
            stroke-width: 128;
          }
          to {
            stroke: black;
            stroke-width: 1024;
          }
        }
        #make-me-a-hanzi-animation-7 {
          animation: keyframes7 1.0857747395833333s both;
          animation-delay: 5.329915364583333s;
          animation-timing-function: linear;
        }
      
        @keyframes keyframes8 {
          from {
            stroke: blue;
            stroke-dashoffset: 448;
            stroke-width: 128;
          }
          59% {
            animation-timing-function: step-end;
            stroke: blue;
            stroke-dashoffset: 0;
            stroke-width: 128;
          }
          to {
            stroke: black;
            stroke-width: 1024;
          }
        }
        #make-me-a-hanzi-animation-8 {
          animation: keyframes8 0.6145833333333334s both;
          animation-delay: 6.415690104166666s;
          animation-timing-function: linear;
        }
      
        @keyframes keyframes9 {
          from {
            stroke: blue;
            stroke-dashoffset: 459;
            stroke-width: 128;
          }
          60% {
            animation-timing-function: step-end;
            stroke: blue;
            stroke-dashoffset: 0;
            stroke-width: 128;
          }
          to {
            stroke: black;
            stroke-width: 1024;
          }
        }
        #make-me-a-hanzi-animation-9 {
          animation: keyframes9 0.62353515625s both;
          animation-delay: 7.030273437499999s;
          animation-timing-function: linear;
        }
      
    </style>
    
      <path d="M 214 464 Q 260 524 311 603 L 326 628 Q 336 644 347 662 Q 375 720 403 747 Q 413 757 408 772 Q 404 785 374 807 Q 346 826 327 825 Q 308 824 317 801 Q 333 764 319 732 Q 276 627 211 529 Q 148 435 62 331 Q 52 321 50 315 Q 47 303 61 306 Q 97 310 201 447 L 214 464 Z" fill="lightgray"></path>
    
      <path d="M 311 603 Q 353 585 401 599 Q 438 606 476 614 Q 492 618 496 621 Q 503 628 499 637 Q 492 647 464 654 Q 449 657 369 636 Q 348 632 326 628 C 296 623 283 614 311 603 Z" fill="lightgray"></path>
    
      <path d="M 317 448 Q 437 493 439 493 Q 446 502 441 509 Q 432 519 403 523 Q 373 524 346 509 Q 319 496 289 485 Q 256 475 216 465 Q 215 465 214 464 C 189 456 189 456 201 447 Q 217 431 278 435 L 317 448 Z" fill="lightgray"></path>
    
      <path d="M 345 303 Q 378 315 415 325 Q 455 338 461 345 Q 468 352 464 361 Q 457 371 427 376 Q 396 379 345 354 L 301 336 Q 199 306 154 297 Q 120 288 146 274 Q 189 255 241 272 Q 269 281 303 290 L 345 303 Z" fill="lightgray"></path>
    
      <path d="M 303 290 Q 303 145 273 96 Q 240 48 278 10 Q 290 3 300 18 Q 316 46 460 167 Q 476 179 480 187 Q 484 196 475 195 Q 463 195 348 127 Q 339 121 338 131 Q 345 225 345 303 L 345 354 Q 344 384 349 406 Q 355 427 317 448 C 292 464 266 463 278 435 Q 299 390 301 336 L 303 290 Z" fill="lightgray"></path>
    
      <path d="M 612 495 Q 705 649 736 681 Q 745 696 759 707 Q 778 726 760 740 Q 739 753 706 758 Q 675 764 663 756 Q 650 749 660 737 Q 675 707 617 560 Q 602 527 589 492 Q 588 492 588 491 C 576 464 596 469 612 495 Z" fill="lightgray"></path>
    
      <path d="M 571 488 Q 562 497 541 504 Q 531 508 520 504 Q 513 500 519 487 Q 537 432 540 316 Q 534 186 527 159 Q 514 105 549 61 Q 559 48 570 61 Q 580 76 582 93 L 585 128 Q 585 206 585 286 L 586 314 Q 587 432 588 443 Q 589 452 589 457 C 590 474 590 474 571 488 Z" fill="lightgray"></path>
    
      <path d="M 778 109 Q 809 69 831 33 Q 841 14 852 15 Q 870 16 886 52 Q 905 92 901 141 Q 892 241 885 429 Q 884 460 901 483 Q 910 496 900 507 Q 881 526 828 550 Q 809 560 794 550 Q 754 532 612 495 L 588 491 Q 579 490 571 488 C 541 483 560 451 589 457 Q 619 463 773 500 Q 800 506 813 496 Q 843 466 825 143 Q 821 124 801 133 Q 797 134 793 137 C 764 144 760 133 778 109 Z" fill="lightgray"></path>
    
      <path d="M 585 286 Q 616 277 706 292 Q 731 298 760 302 Q 782 306 787 310 Q 794 317 791 325 Q 784 335 758 343 Q 730 347 703 337 Q 676 330 648 323 Q 620 317 586 314 C 556 311 556 293 585 286 Z" fill="lightgray"></path>
    
      <path d="M 582 93 Q 586 93 591 93 Q 652 105 778 109 C 808 110 815 117 793 137 Q 786 144 778 149 Q 762 159 731 152 Q 649 136 585 128 C 555 124 552 93 582 93 Z" fill="lightgray"></path>
    
    
      <clipPath id="make-me-a-hanzi-clip-0">
        <path d="M 214 464 Q 260 524 311 603 L 326 628 Q 336 644 347 662 Q 375 720 403 747 Q 413 757 408 772 Q 404 785 374 807 Q 346 826 327 825 Q 308 824 317 801 Q 333 764 319 732 Q 276 627 211 529 Q 148 435 62 331 Q 52 321 50 315 Q 47 303 61 306 Q 97 310 201 447 L 214 464 Z"></path>
      </clipPath>
      <path clip-path="url(#make-me-a-hanzi-clip-0)" d="M 327 811 L 344 797 L 365 764 L 321 670 L 279 594 L 180 447 L 94 344 L 59 315" fill="none" id="make-me-a-hanzi-animation-0" stroke-dasharray="737 1474" stroke-linecap="round"></path>
    
      <clipPath id="make-me-a-hanzi-clip-1">
        <path d="M 311 603 Q 353 585 401 599 Q 438 606 476 614 Q 492 618 496 621 Q 503 628 499 637 Q 492 647 464 654 Q 449 657 369 636 Q 348 632 326 628 C 296 623 283 614 311 603 Z"></path>
      </clipPath>
      <path clip-path="url(#make-me-a-hanzi-clip-1)" d="M 320 606 L 460 633 L 487 631" fill="none" id="make-me-a-hanzi-animation-1" stroke-dasharray="298 596" stroke-linecap="round"></path>
    
      <clipPath id="make-me-a-hanzi-clip-2">
        <path d="M 317 448 Q 437 493 439 493 Q 446 502 441 509 Q 432 519 403 523 Q 373 524 346 509 Q 319 496 289 485 Q 256 475 216 465 Q 215 465 214 464 C 189 456 189 456 201 447 Q 217 431 278 435 L 317 448 Z"></path>
      </clipPath>
      <path clip-path="url(#make-me-a-hanzi-clip-2)" d="M 208 448 L 266 455 L 396 501 L 436 500" fill="none" id="make-me-a-hanzi-animation-2" stroke-dasharray="364 728" stroke-linecap="round"></path>
    
      <clipPath id="make-me-a-hanzi-clip-3">
        <path d="M 345 303 Q 378 315 415 325 Q 455 338 461 345 Q 468 352 464 361 Q 457 371 427 376 Q 396 379 345 354 L 301 336 Q 199 306 154 297 Q 120 288 146 274 Q 189 255 241 272 Q 269 281 303 290 L 345 303 Z"></path>
      </clipPath>
      <path clip-path="url(#make-me-a-hanzi-clip-3)" d="M 147 286 L 172 283 L 227 291 L 391 346 L 453 355" fill="none" id="make-me-a-hanzi-animation-3" stroke-dasharray="444 888" stroke-linecap="round"></path>
    
      <clipPath id="make-me-a-hanzi-clip-4">
        <path d="M 303 290 Q 303 145 273 96 Q 240 48 278 10 Q 290 3 300 18 Q 316 46 460 167 Q 476 179 480 187 Q 484 196 475 195 Q 463 195 348 127 Q 339 121 338 131 Q 345 225 345 303 L 345 354 Q 344 384 349 406 Q 355 427 317 448 C 292 464 266 463 278 435 Q 299 390 301 336 L 303 290 Z"></path>
      </clipPath>
      <path clip-path="url(#make-me-a-hanzi-clip-4)" d="M 287 431 L 314 418 L 320 405 L 324 252 L 312 122 L 318 96 L 352 103 L 474 189" fill="none" id="make-me-a-hanzi-animation-4" stroke-dasharray="667 1334" stroke-linecap="round"></path>
    
      <clipPath id="make-me-a-hanzi-clip-5">
        <path d="M 612 495 Q 705 649 736 681 Q 745 696 759 707 Q 778 726 760 740 Q 739 753 706 758 Q 675 764 663 756 Q 650 749 660 737 Q 675 707 617 560 Q 602 527 589 492 Q 588 492 588 491 C 576 464 596 469 612 495 Z"></path>
      </clipPath>
      <path clip-path="url(#make-me-a-hanzi-clip-5)" d="M 666 746 L 693 730 L 705 709 L 622 532 L 605 503 L 594 498" fill="none" id="make-me-a-hanzi-animation-5" stroke-dasharray="425 850" stroke-linecap="round"></path>
    
      <clipPath id="make-me-a-hanzi-clip-6">
        <path d="M 571 488 Q 562 497 541 504 Q 531 508 520 504 Q 513 500 519 487 Q 537 432 540 316 Q 534 186 527 159 Q 514 105 549 61 Q 559 48 570 61 Q 580 76 582 93 L 585 128 Q 585 206 585 286 L 586 314 Q 587 432 588 443 Q 589 452 589 457 C 590 474 590 474 571 488 Z"></path>
      </clipPath>
      <path clip-path="url(#make-me-a-hanzi-clip-6)" d="M 527 495 L 551 470 L 559 443 L 564 327 L 554 124 L 560 66" fill="none" id="make-me-a-hanzi-animation-6" stroke-dasharray="568 1136" stroke-linecap="round"></path>
    
      <clipPath id="make-me-a-hanzi-clip-7">
        <path d="M 778 109 Q 809 69 831 33 Q 841 14 852 15 Q 870 16 886 52 Q 905 92 901 141 Q 892 241 885 429 Q 884 460 901 483 Q 910 496 900 507 Q 881 526 828 550 Q 809 560 794 550 Q 754 532 612 495 L 588 491 Q 579 490 571 488 C 541 483 560 451 589 457 Q 619 463 773 500 Q 800 506 813 496 Q 843 466 825 143 Q 821 124 801 133 Q 797 134 793 137 C 764 144 760 133 778 109 Z"></path>
      </clipPath>
      <path clip-path="url(#make-me-a-hanzi-clip-7)" d="M 576 484 L 598 476 L 614 478 L 813 527 L 839 512 L 859 490 L 863 131 L 849 94 L 813 104 L 793 128" fill="none" id="make-me-a-hanzi-animation-7" stroke-dasharray="899 1798" stroke-linecap="round"></path>
    
      <clipPath id="make-me-a-hanzi-clip-8">
        <path d="M 585 286 Q 616 277 706 292 Q 731 298 760 302 Q 782 306 787 310 Q 794 317 791 325 Q 784 335 758 343 Q 730 347 703 337 Q 676 330 648 323 Q 620 317 586 314 C 556 311 556 293 585 286 Z"></path>
      </clipPath>
      <path clip-path="url(#make-me-a-hanzi-clip-8)" d="M 591 293 L 727 320 L 780 320" fill="none" id="make-me-a-hanzi-animation-8" stroke-dasharray="320 640" stroke-linecap="round"></path>
    
      <clipPath id="make-me-a-hanzi-clip-9">
        <path d="M 582 93 Q 586 93 591 93 Q 652 105 778 109 C 808 110 815 117 793 137 Q 786 144 778 149 Q 762 159 731 152 Q 649 136 585 128 C 555 124 552 93 582 93 Z"></path>
      </clipPath>
      <path clip-path="url(#make-me-a-hanzi-clip-9)" d="M 587 98 L 601 112 L 621 116 L 783 133" fill="none" id="make-me-a-hanzi-animation-9" stroke-dasharray="331 662" stroke-linecap="round"></path>
    
  </g>
</svg>