<svg version="1.1" viewBox="0 0 1024 1024" xmlns="http://www.w3.org/2000/svg">
  <g stroke="lightgray" stroke-dasharray="1,1" stroke-width="1" transform="scale(4, 4)">
    <line x1="0" y1="0" x2="256" y2="256"></line>
    <line x1="256" y1="0" x2="0" y2="256"></line>
    <line x1="128" y1="0" x2="128" y2="256"></line>
    <line x1="0" y1="128" x2="256" y2="128"></line>
  </g>
  <g transform="scale(1, -1) translate(0, -900)">
    <style type="text/css">
      
        @keyframes keyframes0 {
          from {
            stroke: blue;
            stroke-dashoffset: 804;
            stroke-width: 128;
          }
          72% {
            animation-timing-function: step-end;
            stroke: blue;
            stroke-dashoffset: 0;
            stroke-width: 128;
          }
          to {
            stroke: black;
            stroke-width: 1024;
          }
        }
        #make-me-a-hanzi-animation-0 {
          animation: keyframes0 0.904296875s both;
          animation-delay: 0s;
          animation-timing-function: linear;
        }
      
        @keyframes keyframes1 {
          from {
            stroke: blue;
            stroke-dashoffset: 433;
            stroke-width: 128;
          }
          58% {
            animation-timing-function: step-end;
            stroke: blue;
            stroke-dashoffset: 0;
            stroke-width: 128;
          }
          to {
            stroke: black;
            stroke-width: 1024;
          }
        }
        #make-me-a-hanzi-animation-1 {
          animation: keyframes1 0.6023763020833334s both;
          animation-delay: 0.904296875s;
          animation-timing-function: linear;
        }
      
        @keyframes keyframes2 {
          from {
            stroke: blue;
            stroke-dashoffset: 474;
            stroke-width: 128;
          }
          61% {
            animation-timing-function: step-end;
            stroke: blue;
            stroke-dashoffset: 0;
            stroke-width: 128;
          }
          to {
            stroke: black;
            stroke-width: 1024;
          }
        }
        #make-me-a-hanzi-animation-2 {
          animation: keyframes2 0.6357421875s both;
          animation-delay: 1.5066731770833335s;
          animation-timing-function: linear;
        }
      
        @keyframes keyframes3 {
          from {
            stroke: blue;
            stroke-dashoffset: 525;
            stroke-width: 128;
          }
          63% {
            animation-timing-function: step-end;
            stroke: blue;
            stroke-dashoffset: 0;
            stroke-width: 128;
          }
          to {
            stroke: black;
            stroke-width: 1024;
          }
        }
        #make-me-a-hanzi-animation-3 {
          animation: keyframes3 0.67724609375s both;
          animation-delay: 2.1424153645833335s;
          animation-timing-function: linear;
        }
      
        @keyframes keyframes4 {
          from {
            stroke: blue;
            stroke-dashoffset: 804;
            stroke-width: 128;
          }
          72% {
            animation-timing-function: step-end;
            stroke: blue;
            stroke-dashoffset: 0;
            stroke-width: 128;
          }
          to {
            stroke: black;
            stroke-width: 1024;
          }
        }
        #make-me-a-hanzi-animation-4 {
          animation: keyframes4 0.904296875s both;
          animation-delay: 2.8196614583333335s;
          animation-timing-function: linear;
        }
      
        @keyframes keyframes5 {
          from {
            stroke: blue;
            stroke-dashoffset: 496;
            stroke-width: 128;
          }
          62% {
            animation-timing-function: step-end;
            stroke: blue;
            stroke-dashoffset: 0;
            stroke-width: 128;
          }
          to {
            stroke: black;
            stroke-width: 1024;
          }
        }
        #make-me-a-hanzi-animation-5 {
          animation: keyframes5 0.6536458333333334s both;
          animation-delay: 3.7239583333333335s;
          animation-timing-function: linear;
        }
      
        @keyframes keyframes6 {
          from {
            stroke: blue;
            stroke-dashoffset: 498;
            stroke-width: 128;
          }
          62% {
            animation-timing-function: step-end;
            stroke: blue;
            stroke-dashoffset: 0;
            stroke-width: 128;
          }
          to {
            stroke: black;
            stroke-width: 1024;
          }
        }
        #make-me-a-hanzi-animation-6 {
          animation: keyframes6 0.6552734375s both;
          animation-delay: 4.377604166666667s;
          animation-timing-function: linear;
        }
      
        @keyframes keyframes7 {
          from {
            stroke: blue;
            stroke-dashoffset: 560;
            stroke-width: 128;
          }
          65% {
            animation-timing-function: step-end;
            stroke: blue;
            stroke-dashoffset: 0;
            stroke-width: 128;
          }
          to {
            stroke: black;
            stroke-width: 1024;
          }
        }
        #make-me-a-hanzi-animation-7 {
          animation: keyframes7 0.7057291666666666s both;
          animation-delay: 5.032877604166667s;
          animation-timing-function: linear;
        }
      
        @keyframes keyframes8 {
          from {
            stroke: blue;
            stroke-dashoffset: 464;
            stroke-width: 128;
          }
          60% {
            animation-timing-function: step-end;
            stroke: blue;
            stroke-dashoffset: 0;
            stroke-width: 128;
          }
          to {
            stroke: black;
            stroke-width: 1024;
          }
        }
        #make-me-a-hanzi-animation-8 {
          animation: keyframes8 0.6276041666666666s both;
          animation-delay: 5.738606770833334s;
          animation-timing-function: linear;
        }
      
        @keyframes keyframes9 {
          from {
            stroke: blue;
            stroke-dashoffset: 385;
            stroke-width: 128;
          }
          56% {
            animation-timing-function: step-end;
            stroke: blue;
            stroke-dashoffset: 0;
            stroke-width: 128;
          }
          to {
            stroke: black;
            stroke-width: 1024;
          }
        }
        #make-me-a-hanzi-animation-9 {
          animation: keyframes9 0.5633138020833334s both;
          animation-delay: 6.366210937500001s;
          animation-timing-function: linear;
        }
      
        @keyframes keyframes10 {
          from {
            stroke: blue;
            stroke-dashoffset: 695;
            stroke-width: 128;
          }
          69% {
            animation-timing-function: step-end;
            stroke: blue;
            stroke-dashoffset: 0;
            stroke-width: 128;
          }
          to {
            stroke: black;
            stroke-width: 1024;
          }
        }
        #make-me-a-hanzi-animation-10 {
          animation: keyframes10 0.8155924479166666s both;
          animation-delay: 6.929524739583334s;
          animation-timing-function: linear;
        }
      
        @keyframes keyframes11 {
          from {
            stroke: blue;
            stroke-dashoffset: 843;
            stroke-width: 128;
          }
          73% {
            animation-timing-function: step-end;
            stroke: blue;
            stroke-dashoffset: 0;
            stroke-width: 128;
          }
          to {
            stroke: black;
            stroke-width: 1024;
          }
        }
        #make-me-a-hanzi-animation-11 {
          animation: keyframes11 0.93603515625s both;
          animation-delay: 7.745117187500001s;
          animation-timing-function: linear;
        }
      
    </style>
    
      <path d="M 300 635 Q 344 713 371 741 Q 374 745 376 747 Q 386 768 343 803 Q 316 821 296 821 Q 276 819 286 796 Q 299 764 288 735 Q 218 568 59 380 Q 49 370 46 365 Q 43 353 57 355 Q 110 361 276 598 Q 278 604 282 608 L 300 635 Z" fill="lightgray"></path>
    
      <path d="M 282 608 Q 320 598 402 618 L 450 633 Q 465 639 468 641 Q 472 647 472 653 Q 471 669 431 673 Q 412 673 333 645 L 300 635 C 271 626 253 615 282 608 Z" fill="lightgray"></path>
    
      <path d="M 310 461 Q 416 496 419 499 Q 427 508 421 515 Q 417 521 402 525 Q 363 537 327 515 Q 260 488 210 478 Q 178 468 197 459 Q 219 447 265 447 L 310 461 Z" fill="lightgray"></path>
    
      <path d="M 287 325 Q 278 323 267 318 Q 217 298 165 286 Q 129 276 158 263 Q 190 249 228 259 L 286 276 L 333 294 Q 423 327 424 330 Q 431 339 426 347 Q 422 351 414 355 Q 377 369 335 349 L 287 325 Z" fill="lightgray"></path>
    
      <path d="M 335 349 Q 335 370 337 393 Q 341 423 339 431 Q 335 444 310 461 C 286 479 255 475 265 447 Q 284 401 286 347 Q 286 333 287 325 L 286 276 Q 282 150 251 102 Q 206 51 255 8 Q 269 -1 280 16 Q 296 45 443 169 Q 463 182 466 190 Q 470 201 460 201 Q 450 201 334 137 Q 324 130 323 139 Q 330 223 333 294 L 335 349 Z" fill="lightgray"></path>
    
      <path d="M 600 610 Q 597 658 596 686 Q 597 704 578 711 Q 539 733 517 725 Q 498 717 514 696 Q 545 654 554 606 Q 554 604 555 600 L 563 561 Q 570 506 586 490 Q 600 480 604 490 Q 606 502 602 575 L 600 610 Z" fill="lightgray"></path>
    
      <path d="M 602 575 Q 619 583 635 588 Q 655 594 666 602 Q 672 608 670 613 Q 667 619 655 621 Q 628 616 600 610 L 555 600 Q 464 586 431 582 Q 410 582 424 561 Q 439 549 457 541 Q 484 529 501 537 Q 535 551 563 561 L 602 575 Z" fill="lightgray"></path>
    
      <path d="M 776 629 Q 786 667 798 697 L 819 742 Q 822 751 815 757 Q 809 764 796 773 Q 753 803 729 787 Q 719 780 727 768 Q 745 729 725 620 L 717 590 Q 700 526 703 499 Q 707 485 719 495 Q 729 505 761 585 L 776 629 Z" fill="lightgray"></path>
    
      <path d="M 761 585 Q 767 586 781 588 Q 851 598 906 592 Q 919 591 923 600 Q 927 610 915 621 Q 872 658 791 633 Q 785 633 776 629 L 725 620 Q 706 617 698 613 Q 686 610 700 600 L 717 590 C 733 581 733 581 761 585 Z" fill="lightgray"></path>
    
      <path d="M 628 437 Q 689 384 702 384 Q 704 384 706 386 Q 724 394 710 439 Q 702 459 651 474 Q 612 486 602 480 Q 598 477 600 465 Q 604 455 628 437 Z" fill="lightgray"></path>
    
      <path d="M 568 289 Q 688 318 892 347 Q 903 346 912 361 Q 913 373 888 384 Q 849 408 768 380 Q 620 347 474 324 Q 443 319 466 301 Q 500 276 527 278 L 568 289 Z" fill="lightgray"></path>
    
      <path d="M 527 278 Q 553 200 523 96 Q 498 50 501 41 Q 501 21 521 2 Q 527 -2 532 0 Q 536 0 557 14 Q 654 74 890 84 Q 913 84 915 96 Q 913 113 883 131 Q 868 145 766 121 Q 649 102 595 88 Q 574 81 580 110 L 587 227 L 591 261 Q 591 276 568 289 C 544 307 519 307 527 278 Z" fill="lightgray"></path>
    
    
      <clipPath id="make-me-a-hanzi-clip-0">
        <path d="M 300 635 Q 344 713 371 741 Q 374 745 376 747 Q 386 768 343 803 Q 316 821 296 821 Q 276 819 286 796 Q 299 764 288 735 Q 218 568 59 380 Q 49 370 46 365 Q 43 353 57 355 Q 110 361 276 598 Q 278 604 282 608 L 300 635 Z"></path>
      </clipPath>
      <path clip-path="url(#make-me-a-hanzi-clip-0)" d="M 296 806 L 314 792 L 333 758 L 283 657 L 221 557 L 146 456 L 83 385 L 55 363" fill="none" id="make-me-a-hanzi-animation-0" stroke-dasharray="676 1352" stroke-linecap="round"></path>
    
      <clipPath id="make-me-a-hanzi-clip-1">
        <path d="M 282 608 Q 320 598 402 618 L 450 633 Q 465 639 468 641 Q 472 647 472 653 Q 471 669 431 673 Q 412 673 333 645 L 300 635 C 271 626 253 615 282 608 Z"></path>
      </clipPath>
      <path clip-path="url(#make-me-a-hanzi-clip-1)" d="M 288 611 L 424 649 L 460 651" fill="none" id="make-me-a-hanzi-animation-1" stroke-dasharray="305 610" stroke-linecap="round"></path>
    
      <clipPath id="make-me-a-hanzi-clip-2">
        <path d="M 310 461 Q 416 496 419 499 Q 427 508 421 515 Q 417 521 402 525 Q 363 537 327 515 Q 260 488 210 478 Q 178 468 197 459 Q 219 447 265 447 L 310 461 Z"></path>
      </clipPath>
      <path clip-path="url(#make-me-a-hanzi-clip-2)" d="M 202 469 L 257 467 L 367 505 L 413 508" fill="none" id="make-me-a-hanzi-animation-2" stroke-dasharray="346 692" stroke-linecap="round"></path>
    
      <clipPath id="make-me-a-hanzi-clip-3">
        <path d="M 287 325 Q 278 323 267 318 Q 217 298 165 286 Q 129 276 158 263 Q 190 249 228 259 L 286 276 L 333 294 Q 423 327 424 330 Q 431 339 426 347 Q 422 351 414 355 Q 377 369 335 349 L 287 325 Z"></path>
      </clipPath>
      <path clip-path="url(#make-me-a-hanzi-clip-3)" d="M 158 276 L 181 272 L 216 277 L 365 334 L 416 339" fill="none" id="make-me-a-hanzi-animation-3" stroke-dasharray="397 794" stroke-linecap="round"></path>
    
      <clipPath id="make-me-a-hanzi-clip-4">
        <path d="M 335 349 Q 335 370 337 393 Q 341 423 339 431 Q 335 444 310 461 C 286 479 255 475 265 447 Q 284 401 286 347 Q 286 333 287 325 L 286 276 Q 282 150 251 102 Q 206 51 255 8 Q 269 -1 280 16 Q 296 45 443 169 Q 463 182 466 190 Q 470 201 460 201 Q 450 201 334 137 Q 324 130 323 139 Q 330 223 333 294 L 335 349 Z"></path>
      </clipPath>
      <path clip-path="url(#make-me-a-hanzi-clip-4)" d="M 274 443 L 304 427 L 308 419 L 310 273 L 295 128 L 300 102 L 347 116 L 460 194" fill="none" id="make-me-a-hanzi-animation-4" stroke-dasharray="676 1352" stroke-linecap="round"></path>
    
      <clipPath id="make-me-a-hanzi-clip-5">
        <path d="M 600 610 Q 597 658 596 686 Q 597 704 578 711 Q 539 733 517 725 Q 498 717 514 696 Q 545 654 554 606 Q 554 604 555 600 L 563 561 Q 570 506 586 490 Q 600 480 604 490 Q 606 502 602 575 L 600 610 Z"></path>
      </clipPath>
      <path clip-path="url(#make-me-a-hanzi-clip-5)" d="M 522 710 L 544 699 L 563 679 L 587 521 L 596 494" fill="none" id="make-me-a-hanzi-animation-5" stroke-dasharray="368 736" stroke-linecap="round"></path>
    
      <clipPath id="make-me-a-hanzi-clip-6">
        <path d="M 602 575 Q 619 583 635 588 Q 655 594 666 602 Q 672 608 670 613 Q 667 619 655 621 Q 628 616 600 610 L 555 600 Q 464 586 431 582 Q 410 582 424 561 Q 439 549 457 541 Q 484 529 501 537 Q 535 551 563 561 L 602 575 Z"></path>
      </clipPath>
      <path clip-path="url(#make-me-a-hanzi-clip-6)" d="M 428 571 L 484 561 L 662 610" fill="none" id="make-me-a-hanzi-animation-6" stroke-dasharray="370 740" stroke-linecap="round"></path>
    
      <clipPath id="make-me-a-hanzi-clip-7">
        <path d="M 776 629 Q 786 667 798 697 L 819 742 Q 822 751 815 757 Q 809 764 796 773 Q 753 803 729 787 Q 719 780 727 768 Q 745 729 725 620 L 717 590 Q 700 526 703 499 Q 707 485 719 495 Q 729 505 761 585 L 776 629 Z"></path>
      </clipPath>
      <path clip-path="url(#make-me-a-hanzi-clip-7)" d="M 735 777 L 753 768 L 774 740 L 748 614 L 712 499" fill="none" id="make-me-a-hanzi-animation-7" stroke-dasharray="432 864" stroke-linecap="round"></path>
    
      <clipPath id="make-me-a-hanzi-clip-8">
        <path d="M 761 585 Q 767 586 781 588 Q 851 598 906 592 Q 919 591 923 600 Q 927 610 915 621 Q 872 658 791 633 Q 785 633 776 629 L 725 620 Q 706 617 698 613 Q 686 610 700 600 L 717 590 C 733 581 733 581 761 585 Z"></path>
      </clipPath>
      <path clip-path="url(#make-me-a-hanzi-clip-8)" d="M 706 608 L 756 605 L 854 619 L 911 605" fill="none" id="make-me-a-hanzi-animation-8" stroke-dasharray="336 672" stroke-linecap="round"></path>
    
      <clipPath id="make-me-a-hanzi-clip-9">
        <path d="M 628 437 Q 689 384 702 384 Q 704 384 706 386 Q 724 394 710 439 Q 702 459 651 474 Q 612 486 602 480 Q 598 477 600 465 Q 604 455 628 437 Z"></path>
      </clipPath>
      <path clip-path="url(#make-me-a-hanzi-clip-9)" d="M 608 472 L 684 428 L 701 391" fill="none" id="make-me-a-hanzi-animation-9" stroke-dasharray="257 514" stroke-linecap="round"></path>
    
      <clipPath id="make-me-a-hanzi-clip-10">
        <path d="M 568 289 Q 688 318 892 347 Q 903 346 912 361 Q 913 373 888 384 Q 849 408 768 380 Q 620 347 474 324 Q 443 319 466 301 Q 500 276 527 278 L 568 289 Z"></path>
      </clipPath>
      <path clip-path="url(#make-me-a-hanzi-clip-10)" d="M 468 313 L 527 305 L 819 365 L 865 368 L 900 362" fill="none" id="make-me-a-hanzi-animation-10" stroke-dasharray="567 1134" stroke-linecap="round"></path>
    
      <clipPath id="make-me-a-hanzi-clip-11">
        <path d="M 527 278 Q 553 200 523 96 Q 498 50 501 41 Q 501 21 521 2 Q 527 -2 532 0 Q 536 0 557 14 Q 654 74 890 84 Q 913 84 915 96 Q 913 113 883 131 Q 868 145 766 121 Q 649 102 595 88 Q 574 81 580 110 L 587 227 L 591 261 Q 591 276 568 289 C 544 307 519 307 527 278 Z"></path>
      </clipPath>
      <path clip-path="url(#make-me-a-hanzi-clip-11)" d="M 536 273 L 562 258 L 562 177 L 552 59 L 593 61 L 685 85 L 805 105 L 868 109 L 903 98" fill="none" id="make-me-a-hanzi-animation-11" stroke-dasharray="715 1430" stroke-linecap="round"></path>
    
  </g>
</svg>