<svg version="1.1" viewBox="0 0 1024 1024" xmlns="http://www.w3.org/2000/svg">
  <g stroke="lightgray" stroke-dasharray="1,1" stroke-width="1" transform="scale(4, 4)">
    <line x1="0" y1="0" x2="256" y2="256"></line>
    <line x1="256" y1="0" x2="0" y2="256"></line>
    <line x1="128" y1="0" x2="128" y2="256"></line>
    <line x1="0" y1="128" x2="256" y2="128"></line>
  </g>
  <g transform="scale(1, -1) translate(0, -900)">
    <style type="text/css">
      
        @keyframes keyframes0 {
          from {
            stroke: blue;
            stroke-dashoffset: 781;
            stroke-width: 128;
          }
          72% {
            animation-timing-function: step-end;
            stroke: blue;
            stroke-dashoffset: 0;
            stroke-width: 128;
          }
          to {
            stroke: black;
            stroke-width: 1024;
          }
        }
        #make-me-a-hanzi-animation-0 {
          animation: keyframes0 0.8855794270833334s both;
          animation-delay: 0s;
          animation-timing-function: linear;
        }
      
        @keyframes keyframes1 {
          from {
            stroke: blue;
            stroke-dashoffset: 431;
            stroke-width: 128;
          }
          58% {
            animation-timing-function: step-end;
            stroke: blue;
            stroke-dashoffset: 0;
            stroke-width: 128;
          }
          to {
            stroke: black;
            stroke-width: 1024;
          }
        }
        #make-me-a-hanzi-animation-1 {
          animation: keyframes1 0.6007486979166666s both;
          animation-delay: 0.8855794270833334s;
          animation-timing-function: linear;
        }
      
        @keyframes keyframes2 {
          from {
            stroke: blue;
            stroke-dashoffset: 477;
            stroke-width: 128;
          }
          61% {
            animation-timing-function: step-end;
            stroke: blue;
            stroke-dashoffset: 0;
            stroke-width: 128;
          }
          to {
            stroke: black;
            stroke-width: 1024;
          }
        }
        #make-me-a-hanzi-animation-2 {
          animation: keyframes2 0.63818359375s both;
          animation-delay: 1.486328125s;
          animation-timing-function: linear;
        }
      
        @keyframes keyframes3 {
          from {
            stroke: blue;
            stroke-dashoffset: 517;
            stroke-width: 128;
          }
          63% {
            animation-timing-function: step-end;
            stroke: blue;
            stroke-dashoffset: 0;
            stroke-width: 128;
          }
          to {
            stroke: black;
            stroke-width: 1024;
          }
        }
        #make-me-a-hanzi-animation-3 {
          animation: keyframes3 0.6707356770833334s both;
          animation-delay: 2.12451171875s;
          animation-timing-function: linear;
        }
      
        @keyframes keyframes4 {
          from {
            stroke: blue;
            stroke-dashoffset: 771;
            stroke-width: 128;
          }
          72% {
            animation-timing-function: step-end;
            stroke: blue;
            stroke-dashoffset: 0;
            stroke-width: 128;
          }
          to {
            stroke: black;
            stroke-width: 1024;
          }
        }
        #make-me-a-hanzi-animation-4 {
          animation: keyframes4 0.87744140625s both;
          animation-delay: 2.7952473958333335s;
          animation-timing-function: linear;
        }
      
        @keyframes keyframes5 {
          from {
            stroke: blue;
            stroke-dashoffset: 569;
            stroke-width: 128;
          }
          65% {
            animation-timing-function: step-end;
            stroke: blue;
            stroke-dashoffset: 0;
            stroke-width: 128;
          }
          to {
            stroke: black;
            stroke-width: 1024;
          }
        }
        #make-me-a-hanzi-animation-5 {
          animation: keyframes5 0.7130533854166666s both;
          animation-delay: 3.6726888020833335s;
          animation-timing-function: linear;
        }
      
        @keyframes keyframes6 {
          from {
            stroke: blue;
            stroke-dashoffset: 744;
            stroke-width: 128;
          }
          71% {
            animation-timing-function: step-end;
            stroke: blue;
            stroke-dashoffset: 0;
            stroke-width: 128;
          }
          to {
            stroke: black;
            stroke-width: 1024;
          }
        }
        #make-me-a-hanzi-animation-6 {
          animation: keyframes6 0.85546875s both;
          animation-delay: 4.3857421875s;
          animation-timing-function: linear;
        }
      
        @keyframes keyframes7 {
          from {
            stroke: blue;
            stroke-dashoffset: 493;
            stroke-width: 128;
          }
          62% {
            animation-timing-function: step-end;
            stroke: blue;
            stroke-dashoffset: 0;
            stroke-width: 128;
          }
          to {
            stroke: black;
            stroke-width: 1024;
          }
        }
        #make-me-a-hanzi-animation-7 {
          animation: keyframes7 0.6512044270833334s both;
          animation-delay: 5.2412109375s;
          animation-timing-function: linear;
        }
      
        @keyframes keyframes8 {
          from {
            stroke: blue;
            stroke-dashoffset: 784;
            stroke-width: 128;
          }
          72% {
            animation-timing-function: step-end;
            stroke: blue;
            stroke-dashoffset: 0;
            stroke-width: 128;
          }
          to {
            stroke: black;
            stroke-width: 1024;
          }
        }
        #make-me-a-hanzi-animation-8 {
          animation: keyframes8 0.8880208333333334s both;
          animation-delay: 5.892415364583333s;
          animation-timing-function: linear;
        }
      
        @keyframes keyframes9 {
          from {
            stroke: blue;
            stroke-dashoffset: 420;
            stroke-width: 128;
          }
          58% {
            animation-timing-function: step-end;
            stroke: blue;
            stroke-dashoffset: 0;
            stroke-width: 128;
          }
          to {
            stroke: black;
            stroke-width: 1024;
          }
        }
        #make-me-a-hanzi-animation-9 {
          animation: keyframes9 0.591796875s both;
          animation-delay: 6.780436197916666s;
          animation-timing-function: linear;
        }
      
        @keyframes keyframes10 {
          from {
            stroke: blue;
            stroke-dashoffset: 463;
            stroke-width: 128;
          }
          60% {
            animation-timing-function: step-end;
            stroke: blue;
            stroke-dashoffset: 0;
            stroke-width: 128;
          }
          to {
            stroke: black;
            stroke-width: 1024;
          }
        }
        #make-me-a-hanzi-animation-10 {
          animation: keyframes10 0.6267903645833334s both;
          animation-delay: 7.372233072916666s;
          animation-timing-function: linear;
        }
      
        @keyframes keyframes11 {
          from {
            stroke: blue;
            stroke-dashoffset: 857;
            stroke-width: 128;
          }
          74% {
            animation-timing-function: step-end;
            stroke: blue;
            stroke-dashoffset: 0;
            stroke-width: 128;
          }
          to {
            stroke: black;
            stroke-width: 1024;
          }
        }
        #make-me-a-hanzi-animation-11 {
          animation: keyframes11 0.9474283854166666s both;
          animation-delay: 7.999023437499999s;
          animation-timing-function: linear;
        }
      
        @keyframes keyframes12 {
          from {
            stroke: blue;
            stroke-dashoffset: 534;
            stroke-width: 128;
          }
          63% {
            animation-timing-function: step-end;
            stroke: blue;
            stroke-dashoffset: 0;
            stroke-width: 128;
          }
          to {
            stroke: black;
            stroke-width: 1024;
          }
        }
        #make-me-a-hanzi-animation-12 {
          animation: keyframes12 0.6845703125s both;
          animation-delay: 8.946451822916666s;
          animation-timing-function: linear;
        }
      
        @keyframes keyframes13 {
          from {
            stroke: blue;
            stroke-dashoffset: 757;
            stroke-width: 128;
          }
          71% {
            animation-timing-function: step-end;
            stroke: blue;
            stroke-dashoffset: 0;
            stroke-width: 128;
          }
          to {
            stroke: black;
            stroke-width: 1024;
          }
        }
        #make-me-a-hanzi-animation-13 {
          animation: keyframes13 0.8660481770833334s both;
          animation-delay: 9.631022135416666s;
          animation-timing-function: linear;
        }
      
    </style>
    
      <path d="M 277 629 Q 323 717 348 741 Q 357 751 352 765 Q 348 778 318 799 Q 291 817 272 816 Q 254 813 263 792 Q 278 761 266 734 Q 206 578 58 387 Q 48 377 46 370 Q 43 360 57 362 Q 105 371 255 594 Q 256 598 260 602 L 277 629 Z" fill="lightgray"></path>
    
      <path d="M 260 602 Q 293 593 354 607 Q 387 616 424 626 Q 443 632 445 634 Q 452 641 448 650 Q 441 660 413 664 Q 391 667 319 639 Q 298 635 277 629 C 248 621 231 609 260 602 Z" fill="lightgray"></path>
    
      <path d="M 283 457 Q 282 458 284 458 Q 410 495 414 501 Q 421 510 416 517 Q 409 527 379 532 Q 349 533 322 519 Q 297 509 267 498 Q 236 488 197 481 Q 163 471 190 458 Q 208 449 235 449 C 262 448 262 448 283 457 Z" fill="lightgray"></path>
    
      <path d="M 305 325 Q 332 335 365 343 Q 396 353 401 358 Q 408 365 404 374 Q 397 384 369 388 Q 353 389 305 374 L 258 354 Q 249 353 240 349 Q 197 336 145 327 Q 112 318 138 305 Q 178 286 227 303 Q 242 307 260 312 L 305 325 Z" fill="lightgray"></path>
    
      <path d="M 260 312 Q 260 177 227 125 Q 184 83 229 36 L 231 35 Q 244 28 255 43 Q 270 71 410 186 Q 428 198 432 206 Q 436 216 426 216 Q 411 215 308 157 Q 298 151 296 161 Q 303 252 305 325 L 305 374 Q 305 398 310 416 Q 314 434 283 457 C 260 476 223 476 235 449 Q 256 406 258 354 L 260 312 Z" fill="lightgray"></path>
    
      <path d="M 637 696 Q 757 738 777 742 Q 793 743 797 751 Q 801 761 789 773 Q 768 789 725 806 Q 709 813 696 812 Q 689 808 688 798 Q 688 759 497 672 Q 491 663 498 660 Q 516 660 597 684 Q 598 685 602 684 L 637 696 Z" fill="lightgray"></path>
    
      <path d="M 676 585 Q 754 597 874 601 Q 925 601 932 610 Q 936 620 922 632 Q 871 665 817 648 Q 760 636 678 619 L 629 610 Q 544 597 446 579 Q 428 578 442 563 Q 455 551 470 547 Q 488 543 502 548 Q 562 567 630 577 L 676 585 Z" fill="lightgray"></path>
    
      <path d="M 503 479 Q 493 483 466 488 Q 456 489 452 485 Q 448 481 455 466 Q 485 408 504 310 Q 508 282 525 262 Q 541 243 546 257 Q 547 264 549 275 L 548 296 Q 547 308 544 321 Q 523 415 518 448 C 514 476 514 476 503 479 Z" fill="lightgray"></path>
    
      <path d="M 745 305 Q 761 281 777 274 Q 787 267 801 287 Q 813 308 836 420 Q 843 448 865 473 Q 877 485 866 497 Q 851 513 811 536 Q 793 543 714 523 Q 707 523 674 515 L 631 505 Q 612 504 593 498 Q 544 488 503 479 C 474 473 491 436 518 448 Q 527 458 631 475 L 673 483 Q 760 505 777 490 Q 787 478 786 465 Q 774 384 758 334 C 749 305 742 309 745 305 Z" fill="lightgray"></path>
    
      <path d="M 673 386 Q 698 392 724 394 Q 745 398 737 409 Q 727 422 705 426 Q 692 427 673 423 L 631 411 Q 595 401 566 391 Q 551 388 570 375 Q 577 369 593 372 Q 612 376 630 378 L 673 386 Z" fill="lightgray"></path>
    
      <path d="M 672 292 Q 709 301 745 305 C 775 309 786 322 758 334 Q 742 344 693 332 Q 680 331 672 326 L 629 315 Q 586 306 548 296 C 519 288 519 273 549 275 Q 556 275 629 285 L 672 292 Z" fill="lightgray"></path>
    
      <path d="M 671 103 Q 671 140 671 173 L 671 218 Q 671 255 672 292 L 672 326 Q 672 357 673 386 L 673 423 Q 673 454 673 483 L 674 515 Q 675 552 676 585 L 678 619 Q 678 664 677 666 Q 656 685 637 696 C 612 712 589 711 602 684 Q 624 639 629 610 L 630 577 Q 631 577 631 575 Q 631 560 631 505 L 631 475 Q 631 447 631 411 L 630 378 Q 629 350 629 315 L 629 285 Q 628 248 628 205 L 627 164 Q 627 133 627 97 C 627 67 671 73 671 103 Z" fill="lightgray"></path>
    
      <path d="M 671 173 Q 789 201 791 202 Q 798 209 795 217 Q 788 227 762 235 Q 735 239 671 218 L 628 205 Q 627 206 624 205 Q 576 195 520 190 Q 487 184 511 169 Q 547 151 612 162 Q 618 163 627 164 L 671 173 Z" fill="lightgray"></path>
    
      <path d="M 627 97 Q 534 87 429 74 Q 407 73 423 55 Q 436 42 455 35 Q 476 29 492 34 Q 624 64 877 65 Q 890 65 906 64 Q 925 64 931 72 Q 935 84 920 98 Q 868 137 813 127 Q 756 117 671 103 L 627 97 Z" fill="lightgray"></path>
    
    
      <clipPath id="make-me-a-hanzi-clip-0">
        <path d="M 277 629 Q 323 717 348 741 Q 357 751 352 765 Q 348 778 318 799 Q 291 817 272 816 Q 254 813 263 792 Q 278 761 266 734 Q 206 578 58 387 Q 48 377 46 370 Q 43 360 57 362 Q 105 371 255 594 Q 256 598 260 602 L 277 629 Z"></path>
      </clipPath>
      <path clip-path="url(#make-me-a-hanzi-clip-0)" d="M 273 802 L 290 789 L 310 757 L 259 650 L 177 516 L 104 419 L 55 370" fill="none" id="make-me-a-hanzi-animation-0" stroke-dasharray="653 1306" stroke-linecap="round"></path>
    
      <clipPath id="make-me-a-hanzi-clip-1">
        <path d="M 260 602 Q 293 593 354 607 Q 387 616 424 626 Q 443 632 445 634 Q 452 641 448 650 Q 441 660 413 664 Q 391 667 319 639 Q 298 635 277 629 C 248 621 231 609 260 602 Z"></path>
      </clipPath>
      <path clip-path="url(#make-me-a-hanzi-clip-1)" d="M 267 607 L 403 643 L 437 644" fill="none" id="make-me-a-hanzi-animation-1" stroke-dasharray="303 606" stroke-linecap="round"></path>
    
      <clipPath id="make-me-a-hanzi-clip-2">
        <path d="M 283 457 Q 282 458 284 458 Q 410 495 414 501 Q 421 510 416 517 Q 409 527 379 532 Q 349 533 322 519 Q 297 509 267 498 Q 236 488 197 481 Q 163 471 190 458 Q 208 449 235 449 C 262 448 262 448 283 457 Z"></path>
      </clipPath>
      <path clip-path="url(#make-me-a-hanzi-clip-2)" d="M 191 470 L 228 467 L 292 481 L 361 507 L 406 510" fill="none" id="make-me-a-hanzi-animation-2" stroke-dasharray="349 698" stroke-linecap="round"></path>
    
      <clipPath id="make-me-a-hanzi-clip-3">
        <path d="M 305 325 Q 332 335 365 343 Q 396 353 401 358 Q 408 365 404 374 Q 397 384 369 388 Q 353 389 305 374 L 258 354 Q 249 353 240 349 Q 197 336 145 327 Q 112 318 138 305 Q 178 286 227 303 Q 242 307 260 312 L 305 325 Z"></path>
      </clipPath>
      <path clip-path="url(#make-me-a-hanzi-clip-3)" d="M 139 317 L 199 317 L 350 363 L 393 368" fill="none" id="make-me-a-hanzi-animation-3" stroke-dasharray="389 778" stroke-linecap="round"></path>
    
      <clipPath id="make-me-a-hanzi-clip-4">
        <path d="M 260 312 Q 260 177 227 125 Q 184 83 229 36 L 231 35 Q 244 28 255 43 Q 270 71 410 186 Q 428 198 432 206 Q 436 216 426 216 Q 411 215 308 157 Q 298 151 296 161 Q 303 252 305 325 L 305 374 Q 305 398 310 416 Q 314 434 283 457 C 260 476 223 476 235 449 Q 256 406 258 354 L 260 312 Z"></path>
      </clipPath>
      <path clip-path="url(#make-me-a-hanzi-clip-4)" d="M 242 445 L 269 431 L 279 416 L 281 263 L 269 155 L 274 125 L 319 137 L 425 209" fill="none" id="make-me-a-hanzi-animation-4" stroke-dasharray="643 1286" stroke-linecap="round"></path>
    
      <clipPath id="make-me-a-hanzi-clip-5">
        <path d="M 637 696 Q 757 738 777 742 Q 793 743 797 751 Q 801 761 789 773 Q 768 789 725 806 Q 709 813 696 812 Q 689 808 688 798 Q 688 759 497 672 Q 491 663 498 660 Q 516 660 597 684 Q 598 685 602 684 L 637 696 Z"></path>
      </clipPath>
      <path clip-path="url(#make-me-a-hanzi-clip-5)" d="M 786 756 L 719 766 L 663 730 L 545 681 L 536 682 L 530 675 L 510 675 L 501 666" fill="none" id="make-me-a-hanzi-animation-5" stroke-dasharray="441 882" stroke-linecap="round"></path>
    
      <clipPath id="make-me-a-hanzi-clip-6">
        <path d="M 676 585 Q 754 597 874 601 Q 925 601 932 610 Q 936 620 922 632 Q 871 665 817 648 Q 760 636 678 619 L 629 610 Q 544 597 446 579 Q 428 578 442 563 Q 455 551 470 547 Q 488 543 502 548 Q 562 567 630 577 L 676 585 Z"></path>
      </clipPath>
      <path clip-path="url(#make-me-a-hanzi-clip-6)" d="M 444 571 L 486 566 L 595 589 L 843 627 L 878 626 L 925 615" fill="none" id="make-me-a-hanzi-animation-6" stroke-dasharray="616 1232" stroke-linecap="round"></path>
    
      <clipPath id="make-me-a-hanzi-clip-7">
        <path d="M 503 479 Q 493 483 466 488 Q 456 489 452 485 Q 448 481 455 466 Q 485 408 504 310 Q 508 282 525 262 Q 541 243 546 257 Q 547 264 549 275 L 548 296 Q 547 308 544 321 Q 523 415 518 448 C 514 476 514 476 503 479 Z"></path>
      </clipPath>
      <path clip-path="url(#make-me-a-hanzi-clip-7)" d="M 460 480 L 485 459 L 494 440 L 536 262" fill="none" id="make-me-a-hanzi-animation-7" stroke-dasharray="365 730" stroke-linecap="round"></path>
    
      <clipPath id="make-me-a-hanzi-clip-8">
        <path d="M 745 305 Q 761 281 777 274 Q 787 267 801 287 Q 813 308 836 420 Q 843 448 865 473 Q 877 485 866 497 Q 851 513 811 536 Q 793 543 714 523 Q 707 523 674 515 L 631 505 Q 612 504 593 498 Q 544 488 503 479 C 474 473 491 436 518 448 Q 527 458 631 475 L 673 483 Q 760 505 777 490 Q 787 478 786 465 Q 774 384 758 334 C 749 305 742 309 745 305 Z"></path>
      </clipPath>
      <path clip-path="url(#make-me-a-hanzi-clip-8)" d="M 517 454 L 529 469 L 542 473 L 728 512 L 766 515 L 799 509 L 823 483 L 821 472 L 785 325 L 779 309 L 761 306" fill="none" id="make-me-a-hanzi-animation-8" stroke-dasharray="656 1312" stroke-linecap="round"></path>
    
      <clipPath id="make-me-a-hanzi-clip-9">
        <path d="M 673 386 Q 698 392 724 394 Q 745 398 737 409 Q 727 422 705 426 Q 692 427 673 423 L 631 411 Q 595 401 566 391 Q 551 388 570 375 Q 577 369 593 372 Q 612 376 630 378 L 673 386 Z"></path>
      </clipPath>
      <path clip-path="url(#make-me-a-hanzi-clip-9)" d="M 567 383 L 682 407 L 728 404" fill="none" id="make-me-a-hanzi-animation-9" stroke-dasharray="292 584" stroke-linecap="round"></path>
    
      <clipPath id="make-me-a-hanzi-clip-10">
        <path d="M 672 292 Q 709 301 745 305 C 775 309 786 322 758 334 Q 742 344 693 332 Q 680 331 672 326 L 629 315 Q 586 306 548 296 C 519 288 519 273 549 275 Q 556 275 629 285 L 672 292 Z"></path>
      </clipPath>
      <path clip-path="url(#make-me-a-hanzi-clip-10)" d="M 551 280 L 560 288 L 616 295 L 751 328" fill="none" id="make-me-a-hanzi-animation-10" stroke-dasharray="335 670" stroke-linecap="round"></path>
    
      <clipPath id="make-me-a-hanzi-clip-11">
        <path d="M 671 103 Q 671 140 671 173 L 671 218 Q 671 255 672 292 L 672 326 Q 672 357 673 386 L 673 423 Q 673 454 673 483 L 674 515 Q 675 552 676 585 L 678 619 Q 678 664 677 666 Q 656 685 637 696 C 612 712 589 711 602 684 Q 624 639 629 610 L 630 577 Q 631 577 631 575 Q 631 560 631 505 L 631 475 Q 631 447 631 411 L 630 378 Q 629 350 629 315 L 629 285 Q 628 248 628 205 L 627 164 Q 627 133 627 97 C 627 67 671 73 671 103 Z"></path>
      </clipPath>
      <path clip-path="url(#make-me-a-hanzi-clip-11)" d="M 611 678 L 634 670 L 648 651 L 653 632 L 650 139 L 649 122 L 634 104" fill="none" id="make-me-a-hanzi-animation-11" stroke-dasharray="729 1458" stroke-linecap="round"></path>
    
      <clipPath id="make-me-a-hanzi-clip-12">
        <path d="M 671 173 Q 789 201 791 202 Q 798 209 795 217 Q 788 227 762 235 Q 735 239 671 218 L 628 205 Q 627 206 624 205 Q 576 195 520 190 Q 487 184 511 169 Q 547 151 612 162 Q 618 163 627 164 L 671 173 Z"></path>
      </clipPath>
      <path clip-path="url(#make-me-a-hanzi-clip-12)" d="M 513 181 L 584 177 L 736 212 L 787 211" fill="none" id="make-me-a-hanzi-animation-12" stroke-dasharray="406 812" stroke-linecap="round"></path>
    
      <clipPath id="make-me-a-hanzi-clip-13">
        <path d="M 627 97 Q 534 87 429 74 Q 407 73 423 55 Q 436 42 455 35 Q 476 29 492 34 Q 624 64 877 65 Q 890 65 906 64 Q 925 64 931 72 Q 935 84 920 98 Q 868 137 813 127 Q 756 117 671 103 L 627 97 Z"></path>
      </clipPath>
      <path clip-path="url(#make-me-a-hanzi-clip-13)" d="M 426 65 L 482 56 L 836 97 L 872 94 L 921 78" fill="none" id="make-me-a-hanzi-animation-13" stroke-dasharray="629 1258" stroke-linecap="round"></path>
    
  </g>
</svg>