<svg version="1.1" viewBox="0 0 1024 1024" xmlns="http://www.w3.org/2000/svg">
  <g stroke="lightgray" stroke-dasharray="1,1" stroke-width="1" transform="scale(4, 4)">
    <line x1="0" y1="0" x2="256" y2="256"></line>
    <line x1="256" y1="0" x2="0" y2="256"></line>
    <line x1="128" y1="0" x2="128" y2="256"></line>
    <line x1="0" y1="128" x2="256" y2="128"></line>
  </g>
  <g transform="scale(1, -1) translate(0, -900)">
    <style type="text/css">
      
        @keyframes keyframes0 {
          from {
            stroke: blue;
            stroke-dashoffset: 813;
            stroke-width: 128;
          }
          73% {
            animation-timing-function: step-end;
            stroke: blue;
            stroke-dashoffset: 0;
            stroke-width: 128;
          }
          to {
            stroke: black;
            stroke-width: 1024;
          }
        }
        #make-me-a-hanzi-animation-0 {
          animation: keyframes0 0.91162109375s both;
          animation-delay: 0s;
          animation-timing-function: linear;
        }
      
        @keyframes keyframes1 {
          from {
            stroke: blue;
            stroke-dashoffset: 429;
            stroke-width: 128;
          }
          58% {
            animation-timing-function: step-end;
            stroke: blue;
            stroke-dashoffset: 0;
            stroke-width: 128;
          }
          to {
            stroke: black;
            stroke-width: 1024;
          }
        }
        #make-me-a-hanzi-animation-1 {
          animation: keyframes1 0.59912109375s both;
          animation-delay: 0.91162109375s;
          animation-timing-function: linear;
        }
      
        @keyframes keyframes2 {
          from {
            stroke: blue;
            stroke-dashoffset: 453;
            stroke-width: 128;
          }
          60% {
            animation-timing-function: step-end;
            stroke: blue;
            stroke-dashoffset: 0;
            stroke-width: 128;
          }
          to {
            stroke: black;
            stroke-width: 1024;
          }
        }
        #make-me-a-hanzi-animation-2 {
          animation: keyframes2 0.61865234375s both;
          animation-delay: 1.5107421875s;
          animation-timing-function: linear;
        }
      
        @keyframes keyframes3 {
          from {
            stroke: blue;
            stroke-dashoffset: 554;
            stroke-width: 128;
          }
          64% {
            animation-timing-function: step-end;
            stroke: blue;
            stroke-dashoffset: 0;
            stroke-width: 128;
          }
          to {
            stroke: black;
            stroke-width: 1024;
          }
        }
        #make-me-a-hanzi-animation-3 {
          animation: keyframes3 0.7008463541666666s both;
          animation-delay: 2.12939453125s;
          animation-timing-function: linear;
        }
      
        @keyframes keyframes4 {
          from {
            stroke: blue;
            stroke-dashoffset: 752;
            stroke-width: 128;
          }
          71% {
            animation-timing-function: step-end;
            stroke: blue;
            stroke-dashoffset: 0;
            stroke-width: 128;
          }
          to {
            stroke: black;
            stroke-width: 1024;
          }
        }
        #make-me-a-hanzi-animation-4 {
          animation: keyframes4 0.8619791666666666s both;
          animation-delay: 2.8302408854166665s;
          animation-timing-function: linear;
        }
      
        @keyframes keyframes5 {
          from {
            stroke: blue;
            stroke-dashoffset: 381;
            stroke-width: 128;
          }
          55% {
            animation-timing-function: step-end;
            stroke: blue;
            stroke-dashoffset: 0;
            stroke-width: 128;
          }
          to {
            stroke: black;
            stroke-width: 1024;
          }
        }
        #make-me-a-hanzi-animation-5 {
          animation: keyframes5 0.56005859375s both;
          animation-delay: 3.692220052083333s;
          animation-timing-function: linear;
        }
      
        @keyframes keyframes6 {
          from {
            stroke: blue;
            stroke-dashoffset: 533;
            stroke-width: 128;
          }
          63% {
            animation-timing-function: step-end;
            stroke: blue;
            stroke-dashoffset: 0;
            stroke-width: 128;
          }
          to {
            stroke: black;
            stroke-width: 1024;
          }
        }
        #make-me-a-hanzi-animation-6 {
          animation: keyframes6 0.6837565104166666s both;
          animation-delay: 4.252278645833333s;
          animation-timing-function: linear;
        }
      
        @keyframes keyframes7 {
          from {
            stroke: blue;
            stroke-dashoffset: 335;
            stroke-width: 128;
          }
          52% {
            animation-timing-function: step-end;
            stroke: blue;
            stroke-dashoffset: 0;
            stroke-width: 128;
          }
          to {
            stroke: black;
            stroke-width: 1024;
          }
        }
        #make-me-a-hanzi-animation-7 {
          animation: keyframes7 0.5226236979166666s both;
          animation-delay: 4.93603515625s;
          animation-timing-function: linear;
        }
      
        @keyframes keyframes8 {
          from {
            stroke: blue;
            stroke-dashoffset: 422;
            stroke-width: 128;
          }
          58% {
            animation-timing-function: step-end;
            stroke: blue;
            stroke-dashoffset: 0;
            stroke-width: 128;
          }
          to {
            stroke: black;
            stroke-width: 1024;
          }
        }
        #make-me-a-hanzi-animation-8 {
          animation: keyframes8 0.5934244791666666s both;
          animation-delay: 5.458658854166667s;
          animation-timing-function: linear;
        }
      
        @keyframes keyframes9 {
          from {
            stroke: blue;
            stroke-dashoffset: 722;
            stroke-width: 128;
          }
          70% {
            animation-timing-function: step-end;
            stroke: blue;
            stroke-dashoffset: 0;
            stroke-width: 128;
          }
          to {
            stroke: black;
            stroke-width: 1024;
          }
        }
        #make-me-a-hanzi-animation-9 {
          animation: keyframes9 0.8375651041666666s both;
          animation-delay: 6.052083333333334s;
          animation-timing-function: linear;
        }
      
        @keyframes keyframes10 {
          from {
            stroke: blue;
            stroke-dashoffset: 463;
            stroke-width: 128;
          }
          60% {
            animation-timing-function: step-end;
            stroke: blue;
            stroke-dashoffset: 0;
            stroke-width: 128;
          }
          to {
            stroke: black;
            stroke-width: 1024;
          }
        }
        #make-me-a-hanzi-animation-10 {
          animation: keyframes10 0.6267903645833334s both;
          animation-delay: 6.889648437500001s;
          animation-timing-function: linear;
        }
      
        @keyframes keyframes11 {
          from {
            stroke: blue;
            stroke-dashoffset: 685;
            stroke-width: 128;
          }
          69% {
            animation-timing-function: step-end;
            stroke: blue;
            stroke-dashoffset: 0;
            stroke-width: 128;
          }
          to {
            stroke: black;
            stroke-width: 1024;
          }
        }
        #make-me-a-hanzi-animation-11 {
          animation: keyframes11 0.8074544270833334s both;
          animation-delay: 7.516438802083334s;
          animation-timing-function: linear;
        }
      
        @keyframes keyframes12 {
          from {
            stroke: blue;
            stroke-dashoffset: 388;
            stroke-width: 128;
          }
          56% {
            animation-timing-function: step-end;
            stroke: blue;
            stroke-dashoffset: 0;
            stroke-width: 128;
          }
          to {
            stroke: black;
            stroke-width: 1024;
          }
        }
        #make-me-a-hanzi-animation-12 {
          animation: keyframes12 0.5657552083333334s both;
          animation-delay: 8.323893229166668s;
          animation-timing-function: linear;
        }
      
        @keyframes keyframes13 {
          from {
            stroke: blue;
            stroke-dashoffset: 413;
            stroke-width: 128;
          }
          57% {
            animation-timing-function: step-end;
            stroke: blue;
            stroke-dashoffset: 0;
            stroke-width: 128;
          }
          to {
            stroke: black;
            stroke-width: 1024;
          }
        }
        #make-me-a-hanzi-animation-13 {
          animation: keyframes13 0.5861002604166666s both;
          animation-delay: 8.889648437500002s;
          animation-timing-function: linear;
        }
      
        @keyframes keyframes14 {
          from {
            stroke: blue;
            stroke-dashoffset: 591;
            stroke-width: 128;
          }
          66% {
            animation-timing-function: step-end;
            stroke: blue;
            stroke-dashoffset: 0;
            stroke-width: 128;
          }
          to {
            stroke: black;
            stroke-width: 1024;
          }
        }
        #make-me-a-hanzi-animation-14 {
          animation: keyframes14 0.73095703125s both;
          animation-delay: 9.475748697916668s;
          animation-timing-function: linear;
        }
      
        @keyframes keyframes15 {
          from {
            stroke: blue;
            stroke-dashoffset: 873;
            stroke-width: 128;
          }
          74% {
            animation-timing-function: step-end;
            stroke: blue;
            stroke-dashoffset: 0;
            stroke-width: 128;
          }
          to {
            stroke: black;
            stroke-width: 1024;
          }
        }
        #make-me-a-hanzi-animation-15 {
          animation: keyframes15 0.96044921875s both;
          animation-delay: 10.206705729166668s;
          animation-timing-function: linear;
        }
      
    </style>
    
      <path d="M 292 624 Q 358 730 377 748 Q 387 758 382 772 Q 378 785 350 808 Q 323 826 305 826 Q 286 825 294 803 Q 309 769 295 741 Q 255 647 194 559 Q 136 474 55 382 Q 45 372 43 366 Q 39 356 53 358 Q 105 365 270 591 Q 273 595 276 599 L 292 624 Z" fill="lightgray"></path>
    
      <path d="M 276 599 Q 318 590 383 607 Q 447 625 458 630 Q 465 639 460 646 Q 453 656 425 660 Q 398 661 334 635 Q 313 631 292 624 C 263 615 247 605 276 599 Z" fill="lightgray"></path>
    
      <path d="M 277 452 Q 295 458 380 482 Q 402 489 405 492 Q 412 499 407 506 Q 400 516 375 520 Q 357 523 276 492 Q 243 483 209 477 Q 178 470 202 456 Q 215 450 235 448 L 277 452 Z" fill="lightgray"></path>
    
      <path d="M 311 323 Q 428 356 432 358 Q 439 365 435 373 Q 428 383 401 390 Q 370 394 310 368 L 263 353 Q 259 353 257 352 Q 205 339 143 330 Q 110 323 134 309 Q 170 291 259 311 Q 262 312 265 312 L 311 323 Z" fill="lightgray"></path>
    
      <path d="M 265 312 Q 268 185 228 119 Q 195 106 233 52 Q 237 48 243 42 Q 256 35 267 51 Q 279 78 404 196 Q 420 209 424 218 Q 428 228 418 227 Q 408 227 312 168 Q 305 162 303 169 Q 310 254 311 323 L 310 368 Q 310 387 314 404 Q 318 417 310 428 Q 294 443 277 452 C 251 468 223 475 235 448 Q 235 445 239 439 Q 258 399 263 353 L 265 312 Z" fill="lightgray"></path>
    
      <path d="M 604 804 Q 629 786 656 763 Q 669 753 684 755 Q 694 756 697 768 Q 700 781 690 808 Q 678 835 596 848 Q 581 849 576 847 Q 572 843 574 831 Q 578 821 604 804 Z" fill="lightgray"></path>
    
      <path d="M 728 698 Q 743 702 762 706 Q 798 715 803 720 Q 810 727 807 734 Q 800 744 775 750 Q 750 754 724 744 Q 634 711 531 700 Q 500 694 522 680 Q 552 664 618 675 Q 654 684 696 691 L 728 698 Z" fill="lightgray"></path>
    
      <path d="M 519 624 Q 552 561 572 557 Q 582 553 591 567 Q 594 577 589 596 Q 585 611 566 621 Q 539 640 527 645 Q 520 648 517 639 Q 514 632 519 624 Z" fill="lightgray"></path>
    
      <path d="M 691 547 Q 712 577 734 616 Q 741 629 756 647 Q 769 657 761 666 Q 754 681 728 698 C 703 715 683 718 696 691 Q 697 690 698 688 Q 705 660 668 562 Q 664 552 661 541 C 653 512 674 522 691 547 Z" fill="lightgray"></path>
    
      <path d="M 661 541 Q 658 541 438 503 Q 420 502 434 487 Q 447 475 462 471 Q 480 467 494 472 Q 660 523 881 522 L 883 522 Q 899 523 904 530 Q 908 540 894 552 Q 843 586 788 568 Q 746 559 691 547 L 661 541 Z" fill="lightgray"></path>
    
      <path d="M 519 434 Q 512 438 495 441 Q 485 445 481 440 Q 475 436 482 420 Q 504 366 515 279 Q 515 267 534 229 C 547 203 548 209 553 239 Q 554 245 555 250 L 555 276 Q 554 280 554 285 Q 551 310 548 329 L 546 349 Q 542 394 542 408 C 542 424 542 424 519 434 Z" fill="lightgray"></path>
    
      <path d="M 718 271 Q 718 270 719 269 Q 725 256 735 257 Q 747 258 753 272 Q 762 284 777 345 Q 790 388 820 415 Q 836 430 821 442 Q 806 455 763 477 Q 751 483 689 470 Q 632 460 582 448 Q 545 439 519 434 C 490 428 513 399 542 408 Q 591 424 706 442 Q 727 443 734 440 Q 743 436 739 410 Q 727 317 718 295 C 713 278 713 278 718 271 Z" fill="lightgray"></path>
    
      <path d="M 548 329 Q 552 328 562 329 Q 629 342 678 351 Q 697 355 689 366 Q 679 378 658 380 Q 628 383 546 349 C 518 338 518 332 548 329 Z" fill="lightgray"></path>
    
      <path d="M 687 267 Q 700 270 718 271 C 745 273 741 276 718 295 Q 714 299 708 302 Q 695 309 670 302 Q 606 286 555 276 C 526 270 525 252 555 250 Q 564 249 574 250 Q 598 257 639 261 L 687 267 Z" fill="lightgray"></path>
    
      <path d="M 534 229 Q 534 115 346 -1 Q 339 -7 344 -10 Q 365 -20 442 22 Q 506 56 570 155 Q 580 171 593 186 Q 600 193 597 202 Q 593 211 570 229 Q 561 236 553 239 C 535 248 535 248 534 229 Z" fill="lightgray"></path>
    
      <path d="M 971 52 Q 959 74 944 143 Q 943 158 937 162 Q 931 165 927 149 Q 903 74 887 52 Q 877 39 848 32 Q 779 16 724 37 Q 702 47 696 61 Q 678 97 699 238 Q 702 251 687 267 C 670 292 632 290 639 261 Q 649 227 649 193 Q 642 46 672 11 Q 690 -7 730 -20 Q 865 -56 965 15 Q 983 28 971 52 Z" fill="lightgray"></path>
    
    
      <clipPath id="make-me-a-hanzi-clip-0">
        <path d="M 292 624 Q 358 730 377 748 Q 387 758 382 772 Q 378 785 350 808 Q 323 826 305 826 Q 286 825 294 803 Q 309 769 295 741 Q 255 647 194 559 Q 136 474 55 382 Q 45 372 43 366 Q 39 356 53 358 Q 105 365 270 591 Q 273 595 276 599 L 292 624 Z"></path>
      </clipPath>
      <path clip-path="url(#make-me-a-hanzi-clip-0)" d="M 304 812 L 329 788 L 340 765 L 279 647 L 230 570 L 149 464 L 89 397 L 51 366" fill="none" id="make-me-a-hanzi-animation-0" stroke-dasharray="685 1370" stroke-linecap="round"></path>
    
      <clipPath id="make-me-a-hanzi-clip-1">
        <path d="M 276 599 Q 318 590 383 607 Q 447 625 458 630 Q 465 639 460 646 Q 453 656 425 660 Q 398 661 334 635 Q 313 631 292 624 C 263 615 247 605 276 599 Z"></path>
      </clipPath>
      <path clip-path="url(#make-me-a-hanzi-clip-1)" d="M 283 603 L 421 640 L 451 639" fill="none" id="make-me-a-hanzi-animation-1" stroke-dasharray="301 602" stroke-linecap="round"></path>
    
      <clipPath id="make-me-a-hanzi-clip-2">
        <path d="M 277 452 Q 295 458 380 482 Q 402 489 405 492 Q 412 499 407 506 Q 400 516 375 520 Q 357 523 276 492 Q 243 483 209 477 Q 178 470 202 456 Q 215 450 235 448 L 277 452 Z"></path>
      </clipPath>
      <path clip-path="url(#make-me-a-hanzi-clip-2)" d="M 203 467 L 254 467 L 347 495 L 396 500" fill="none" id="make-me-a-hanzi-animation-2" stroke-dasharray="325 650" stroke-linecap="round"></path>
    
      <clipPath id="make-me-a-hanzi-clip-3">
        <path d="M 311 323 Q 428 356 432 358 Q 439 365 435 373 Q 428 383 401 390 Q 370 394 310 368 L 263 353 Q 259 353 257 352 Q 205 339 143 330 Q 110 323 134 309 Q 170 291 259 311 Q 262 312 265 312 L 311 323 Z"></path>
      </clipPath>
      <path clip-path="url(#make-me-a-hanzi-clip-3)" d="M 136 321 L 207 320 L 319 346 L 374 366 L 427 367" fill="none" id="make-me-a-hanzi-animation-3" stroke-dasharray="426 852" stroke-linecap="round"></path>
    
      <clipPath id="make-me-a-hanzi-clip-4">
        <path d="M 265 312 Q 268 185 228 119 Q 195 106 233 52 Q 237 48 243 42 Q 256 35 267 51 Q 279 78 404 196 Q 420 209 424 218 Q 428 228 418 227 Q 408 227 312 168 Q 305 162 303 169 Q 310 254 311 323 L 310 368 Q 310 387 314 404 Q 318 417 310 428 Q 294 443 277 452 C 251 468 223 475 235 448 Q 235 445 239 439 Q 258 399 263 353 L 265 312 Z"></path>
      </clipPath>
      <path clip-path="url(#make-me-a-hanzi-clip-4)" d="M 242 446 L 278 419 L 284 404 L 288 274 L 276 165 L 281 134 L 314 142 L 418 220" fill="none" id="make-me-a-hanzi-animation-4" stroke-dasharray="624 1248" stroke-linecap="round"></path>
    
      <clipPath id="make-me-a-hanzi-clip-5">
        <path d="M 604 804 Q 629 786 656 763 Q 669 753 684 755 Q 694 756 697 768 Q 700 781 690 808 Q 678 835 596 848 Q 581 849 576 847 Q 572 843 574 831 Q 578 821 604 804 Z"></path>
      </clipPath>
      <path clip-path="url(#make-me-a-hanzi-clip-5)" d="M 581 841 L 649 806 L 682 770" fill="none" id="make-me-a-hanzi-animation-5" stroke-dasharray="253 506" stroke-linecap="round"></path>
    
      <clipPath id="make-me-a-hanzi-clip-6">
        <path d="M 728 698 Q 743 702 762 706 Q 798 715 803 720 Q 810 727 807 734 Q 800 744 775 750 Q 750 754 724 744 Q 634 711 531 700 Q 500 694 522 680 Q 552 664 618 675 Q 654 684 696 691 L 728 698 Z"></path>
      </clipPath>
      <path clip-path="url(#make-me-a-hanzi-clip-6)" d="M 524 691 L 550 686 L 604 692 L 757 729 L 796 729" fill="none" id="make-me-a-hanzi-animation-6" stroke-dasharray="405 810" stroke-linecap="round"></path>
    
      <clipPath id="make-me-a-hanzi-clip-7">
        <path d="M 519 624 Q 552 561 572 557 Q 582 553 591 567 Q 594 577 589 596 Q 585 611 566 621 Q 539 640 527 645 Q 520 648 517 639 Q 514 632 519 624 Z"></path>
      </clipPath>
      <path clip-path="url(#make-me-a-hanzi-clip-7)" d="M 527 633 L 560 599 L 576 572" fill="none" id="make-me-a-hanzi-animation-7" stroke-dasharray="207 414" stroke-linecap="round"></path>
    
      <clipPath id="make-me-a-hanzi-clip-8">
        <path d="M 691 547 Q 712 577 734 616 Q 741 629 756 647 Q 769 657 761 666 Q 754 681 728 698 C 703 715 683 718 696 691 Q 697 690 698 688 Q 705 660 668 562 Q 664 552 661 541 C 653 512 674 522 691 547 Z"></path>
      </clipPath>
      <path clip-path="url(#make-me-a-hanzi-clip-8)" d="M 706 685 L 724 672 L 728 660 L 681 557 L 668 545" fill="none" id="make-me-a-hanzi-animation-8" stroke-dasharray="294 588" stroke-linecap="round"></path>
    
      <clipPath id="make-me-a-hanzi-clip-9">
        <path d="M 661 541 Q 658 541 438 503 Q 420 502 434 487 Q 447 475 462 471 Q 480 467 494 472 Q 660 523 881 522 L 883 522 Q 899 523 904 530 Q 908 540 894 552 Q 843 586 788 568 Q 746 559 691 547 L 661 541 Z"></path>
      </clipPath>
      <path clip-path="url(#make-me-a-hanzi-clip-9)" d="M 436 495 L 470 489 L 495 492 L 572 511 L 815 548 L 863 545 L 895 535" fill="none" id="make-me-a-hanzi-animation-9" stroke-dasharray="594 1188" stroke-linecap="round"></path>
    
      <clipPath id="make-me-a-hanzi-clip-10">
        <path d="M 519 434 Q 512 438 495 441 Q 485 445 481 440 Q 475 436 482 420 Q 504 366 515 279 Q 515 267 534 229 C 547 203 548 209 553 239 Q 554 245 555 250 L 555 276 Q 554 280 554 285 Q 551 310 548 329 L 546 349 Q 542 394 542 408 C 542 424 542 424 519 434 Z"></path>
      </clipPath>
      <path clip-path="url(#make-me-a-hanzi-clip-10)" d="M 489 433 L 507 416 L 518 391 L 540 248 L 534 240" fill="none" id="make-me-a-hanzi-animation-10" stroke-dasharray="335 670" stroke-linecap="round"></path>
    
      <clipPath id="make-me-a-hanzi-clip-11">
        <path d="M 718 271 Q 718 270 719 269 Q 725 256 735 257 Q 747 258 753 272 Q 762 284 777 345 Q 790 388 820 415 Q 836 430 821 442 Q 806 455 763 477 Q 751 483 689 470 Q 632 460 582 448 Q 545 439 519 434 C 490 428 513 399 542 408 Q 591 424 706 442 Q 727 443 734 440 Q 743 436 739 410 Q 727 317 718 295 C 713 278 713 278 718 271 Z"></path>
      </clipPath>
      <path clip-path="url(#make-me-a-hanzi-clip-11)" d="M 525 432 L 547 425 L 703 459 L 754 454 L 777 424 L 735 273" fill="none" id="make-me-a-hanzi-animation-11" stroke-dasharray="557 1114" stroke-linecap="round"></path>
    
      <clipPath id="make-me-a-hanzi-clip-12">
        <path d="M 548 329 Q 552 328 562 329 Q 629 342 678 351 Q 697 355 689 366 Q 679 378 658 380 Q 628 383 546 349 C 518 338 518 332 548 329 Z"></path>
      </clipPath>
      <path clip-path="url(#make-me-a-hanzi-clip-12)" d="M 555 335 L 561 343 L 637 362 L 681 360" fill="none" id="make-me-a-hanzi-animation-12" stroke-dasharray="260 520" stroke-linecap="round"></path>
    
      <clipPath id="make-me-a-hanzi-clip-13">
        <path d="M 687 267 Q 700 270 718 271 C 745 273 741 276 718 295 Q 714 299 708 302 Q 695 309 670 302 Q 606 286 555 276 C 526 270 525 252 555 250 Q 564 249 574 250 Q 598 257 639 261 L 687 267 Z"></path>
      </clipPath>
      <path clip-path="url(#make-me-a-hanzi-clip-13)" d="M 560 257 L 591 270 L 679 285 L 698 287 L 709 277" fill="none" id="make-me-a-hanzi-animation-13" stroke-dasharray="285 570" stroke-linecap="round"></path>
    
      <clipPath id="make-me-a-hanzi-clip-14">
        <path d="M 534 229 Q 534 115 346 -1 Q 339 -7 344 -10 Q 365 -20 442 22 Q 506 56 570 155 Q 580 171 593 186 Q 600 193 597 202 Q 593 211 570 229 Q 561 236 553 239 C 535 248 535 248 534 229 Z"></path>
      </clipPath>
      <path clip-path="url(#make-me-a-hanzi-clip-14)" d="M 543 223 L 554 215 L 560 193 L 536 144 L 496 92 L 424 30 L 349 -6" fill="none" id="make-me-a-hanzi-animation-14" stroke-dasharray="463 926" stroke-linecap="round"></path>
    
      <clipPath id="make-me-a-hanzi-clip-15">
        <path d="M 971 52 Q 959 74 944 143 Q 943 158 937 162 Q 931 165 927 149 Q 903 74 887 52 Q 877 39 848 32 Q 779 16 724 37 Q 702 47 696 61 Q 678 97 699 238 Q 702 251 687 267 C 670 292 632 290 639 261 Q 649 227 649 193 Q 642 46 672 11 Q 690 -7 730 -20 Q 865 -56 965 15 Q 983 28 971 52 Z"></path>
      </clipPath>
      <path clip-path="url(#make-me-a-hanzi-clip-15)" d="M 646 256 L 672 239 L 667 137 L 675 56 L 692 26 L 718 11 L 762 0 L 823 -3 L 903 19 L 930 45 L 936 156" fill="none" id="make-me-a-hanzi-animation-15" stroke-dasharray="745 1490" stroke-linecap="round"></path>
    
  </g>
</svg>