<svg version="1.1" viewBox="0 0 1024 1024" xmlns="http://www.w3.org/2000/svg">
  <g stroke="lightgray" stroke-dasharray="1,1" stroke-width="1" transform="scale(4, 4)">
    <line x1="0" y1="0" x2="256" y2="256"></line>
    <line x1="256" y1="0" x2="0" y2="256"></line>
    <line x1="128" y1="0" x2="128" y2="256"></line>
    <line x1="0" y1="128" x2="256" y2="128"></line>
  </g>
  <g transform="scale(1, -1) translate(0, -900)">
    <style type="text/css">
      
        @keyframes keyframes0 {
          from {
            stroke: blue;
            stroke-dashoffset: 992;
            stroke-width: 128;
          }
          76% {
            animation-timing-function: step-end;
            stroke: blue;
            stroke-dashoffset: 0;
            stroke-width: 128;
          }
          to {
            stroke: black;
            stroke-width: 1024;
          }
        }
        #make-me-a-hanzi-animation-0 {
          animation: keyframes0 1.0572916666666667s both;
          animation-delay: 0s;
          animation-timing-function: linear;
        }
      
        @keyframes keyframes1 {
          from {
            stroke: blue;
            stroke-dashoffset: 611;
            stroke-width: 128;
          }
          67% {
            animation-timing-function: step-end;
            stroke: blue;
            stroke-dashoffset: 0;
            stroke-width: 128;
          }
          to {
            stroke: black;
            stroke-width: 1024;
          }
        }
        #make-me-a-hanzi-animation-1 {
          animation: keyframes1 0.7472330729166666s both;
          animation-delay: 1.0572916666666667s;
          animation-timing-function: linear;
        }
      
        @keyframes keyframes2 {
          from {
            stroke: blue;
            stroke-dashoffset: 345;
            stroke-width: 128;
          }
          53% {
            animation-timing-function: step-end;
            stroke: blue;
            stroke-dashoffset: 0;
            stroke-width: 128;
          }
          to {
            stroke: black;
            stroke-width: 1024;
          }
        }
        #make-me-a-hanzi-animation-2 {
          animation: keyframes2 0.53076171875s both;
          animation-delay: 1.8045247395833335s;
          animation-timing-function: linear;
        }
      
        @keyframes keyframes3 {
          from {
            stroke: blue;
            stroke-dashoffset: 355;
            stroke-width: 128;
          }
          54% {
            animation-timing-function: step-end;
            stroke: blue;
            stroke-dashoffset: 0;
            stroke-width: 128;
          }
          to {
            stroke: black;
            stroke-width: 1024;
          }
        }
        #make-me-a-hanzi-animation-3 {
          animation: keyframes3 0.5388997395833334s both;
          animation-delay: 2.3352864583333335s;
          animation-timing-function: linear;
        }
      
        @keyframes keyframes4 {
          from {
            stroke: blue;
            stroke-dashoffset: 503;
            stroke-width: 128;
          }
          62% {
            animation-timing-function: step-end;
            stroke: blue;
            stroke-dashoffset: 0;
            stroke-width: 128;
          }
          to {
            stroke: black;
            stroke-width: 1024;
          }
        }
        #make-me-a-hanzi-animation-4 {
          animation: keyframes4 0.6593424479166666s both;
          animation-delay: 2.874186197916667s;
          animation-timing-function: linear;
        }
      
        @keyframes keyframes5 {
          from {
            stroke: blue;
            stroke-dashoffset: 1382;
            stroke-width: 128;
          }
          82% {
            animation-timing-function: step-end;
            stroke: blue;
            stroke-dashoffset: 0;
            stroke-width: 128;
          }
          to {
            stroke: black;
            stroke-width: 1024;
          }
        }
        #make-me-a-hanzi-animation-5 {
          animation: keyframes5 1.3746744791666667s both;
          animation-delay: 3.5335286458333335s;
          animation-timing-function: linear;
        }
      
        @keyframes keyframes6 {
          from {
            stroke: blue;
            stroke-dashoffset: 352;
            stroke-width: 128;
          }
          53% {
            animation-timing-function: step-end;
            stroke: blue;
            stroke-dashoffset: 0;
            stroke-width: 128;
          }
          to {
            stroke: black;
            stroke-width: 1024;
          }
        }
        #make-me-a-hanzi-animation-6 {
          animation: keyframes6 0.5364583333333334s both;
          animation-delay: 4.908203125s;
          animation-timing-function: linear;
        }
      
        @keyframes keyframes7 {
          from {
            stroke: blue;
            stroke-dashoffset: 410;
            stroke-width: 128;
          }
          57% {
            animation-timing-function: step-end;
            stroke: blue;
            stroke-dashoffset: 0;
            stroke-width: 128;
          }
          to {
            stroke: black;
            stroke-width: 1024;
          }
        }
        #make-me-a-hanzi-animation-7 {
          animation: keyframes7 0.5836588541666666s both;
          animation-delay: 5.444661458333333s;
          animation-timing-function: linear;
        }
      
        @keyframes keyframes8 {
          from {
            stroke: blue;
            stroke-dashoffset: 460;
            stroke-width: 128;
          }
          60% {
            animation-timing-function: step-end;
            stroke: blue;
            stroke-dashoffset: 0;
            stroke-width: 128;
          }
          to {
            stroke: black;
            stroke-width: 1024;
          }
        }
        #make-me-a-hanzi-animation-8 {
          animation: keyframes8 0.6243489583333334s both;
          animation-delay: 6.0283203125s;
          animation-timing-function: linear;
        }
      
        @keyframes keyframes9 {
          from {
            stroke: blue;
            stroke-dashoffset: 520;
            stroke-width: 128;
          }
          63% {
            animation-timing-function: step-end;
            stroke: blue;
            stroke-dashoffset: 0;
            stroke-width: 128;
          }
          to {
            stroke: black;
            stroke-width: 1024;
          }
        }
        #make-me-a-hanzi-animation-9 {
          animation: keyframes9 0.6731770833333334s both;
          animation-delay: 6.652669270833333s;
          animation-timing-function: linear;
        }
      
        @keyframes keyframes10 {
          from {
            stroke: blue;
            stroke-dashoffset: 395;
            stroke-width: 128;
          }
          56% {
            animation-timing-function: step-end;
            stroke: blue;
            stroke-dashoffset: 0;
            stroke-width: 128;
          }
          to {
            stroke: black;
            stroke-width: 1024;
          }
        }
        #make-me-a-hanzi-animation-10 {
          animation: keyframes10 0.5714518229166666s both;
          animation-delay: 7.325846354166666s;
          animation-timing-function: linear;
        }
      
        @keyframes keyframes11 {
          from {
            stroke: blue;
            stroke-dashoffset: 411;
            stroke-width: 128;
          }
          57% {
            animation-timing-function: step-end;
            stroke: blue;
            stroke-dashoffset: 0;
            stroke-width: 128;
          }
          to {
            stroke: black;
            stroke-width: 1024;
          }
        }
        #make-me-a-hanzi-animation-11 {
          animation: keyframes11 0.58447265625s both;
          animation-delay: 7.897298177083333s;
          animation-timing-function: linear;
        }
      
        @keyframes keyframes12 {
          from {
            stroke: blue;
            stroke-dashoffset: 428;
            stroke-width: 128;
          }
          58% {
            animation-timing-function: step-end;
            stroke: blue;
            stroke-dashoffset: 0;
            stroke-width: 128;
          }
          to {
            stroke: black;
            stroke-width: 1024;
          }
        }
        #make-me-a-hanzi-animation-12 {
          animation: keyframes12 0.5983072916666666s both;
          animation-delay: 8.481770833333332s;
          animation-timing-function: linear;
        }
      
        @keyframes keyframes13 {
          from {
            stroke: blue;
            stroke-dashoffset: 842;
            stroke-width: 128;
          }
          73% {
            animation-timing-function: step-end;
            stroke: blue;
            stroke-dashoffset: 0;
            stroke-width: 128;
          }
          to {
            stroke: black;
            stroke-width: 1024;
          }
        }
        #make-me-a-hanzi-animation-13 {
          animation: keyframes13 0.9352213541666666s both;
          animation-delay: 9.080078124999998s;
          animation-timing-function: linear;
        }
      
        @keyframes keyframes14 {
          from {
            stroke: blue;
            stroke-dashoffset: 382;
            stroke-width: 128;
          }
          55% {
            animation-timing-function: step-end;
            stroke: blue;
            stroke-dashoffset: 0;
            stroke-width: 128;
          }
          to {
            stroke: black;
            stroke-width: 1024;
          }
        }
        #make-me-a-hanzi-animation-14 {
          animation: keyframes14 0.5608723958333334s both;
          animation-delay: 10.015299479166664s;
          animation-timing-function: linear;
        }
      
        @keyframes keyframes15 {
          from {
            stroke: blue;
            stroke-dashoffset: 323;
            stroke-width: 128;
          }
          51% {
            animation-timing-function: step-end;
            stroke: blue;
            stroke-dashoffset: 0;
            stroke-width: 128;
          }
          to {
            stroke: black;
            stroke-width: 1024;
          }
        }
        #make-me-a-hanzi-animation-15 {
          animation: keyframes15 0.5128580729166666s both;
          animation-delay: 10.576171874999998s;
          animation-timing-function: linear;
        }
      
        @keyframes keyframes16 {
          from {
            stroke: blue;
            stroke-dashoffset: 310;
            stroke-width: 128;
          }
          50% {
            animation-timing-function: step-end;
            stroke: blue;
            stroke-dashoffset: 0;
            stroke-width: 128;
          }
          to {
            stroke: black;
            stroke-width: 1024;
          }
        }
        #make-me-a-hanzi-animation-16 {
          animation: keyframes16 0.5022786458333334s both;
          animation-delay: 11.089029947916664s;
          animation-timing-function: linear;
        }
      
        @keyframes keyframes17 {
          from {
            stroke: blue;
            stroke-dashoffset: 322;
            stroke-width: 128;
          }
          51% {
            animation-timing-function: step-end;
            stroke: blue;
            stroke-dashoffset: 0;
            stroke-width: 128;
          }
          to {
            stroke: black;
            stroke-width: 1024;
          }
        }
        #make-me-a-hanzi-animation-17 {
          animation: keyframes17 0.5120442708333334s both;
          animation-delay: 11.591308593749998s;
          animation-timing-function: linear;
        }
      
    </style>
    
      <path d="M 247 753 Q 225 772 198 780 Q 188 783 182 774 Q 178 768 186 757 Q 216 681 215 605 Q 221 296 171 141 Q 162 114 167 94 Q 176 58 188 45 Q 200 30 210 45 Q 243 82 247 240 Q 248 337 250 432 Q 250 487 251 532 L 251 557 Q 252 594 254 623 L 256 651 Q 259 700 263 723 Q 263 727 263 729 C 264 740 264 740 247 753 Z" fill="lightgray"></path>
    
      <path d="M 353 550 Q 372 523 391 546 Q 403 561 412 627 Q 418 702 439 731 Q 449 747 438 761 Q 422 774 395 790 Q 382 794 367 789 Q 312 767 247 753 C 218 746 234 722 263 729 Q 356 753 360 752 Q 363 752 367 750 Q 374 746 373 722 Q 361 586 355 579 C 348 555 348 555 353 550 Z" fill="lightgray"></path>
    
      <path d="M 254 623 Q 303 635 339 643 Q 358 647 350 658 Q 340 668 318 670 Q 285 670 256 651 C 231 635 225 616 254 623 Z" fill="lightgray"></path>
    
      <path d="M 251 532 Q 251 533 253 533 Q 308 543 353 550 C 383 555 384 571 355 579 Q 352 580 347 581 Q 314 584 251 557 C 223 545 223 522 251 532 Z" fill="lightgray"></path>
    
      <path d="M 620 809 Q 604 821 587 827 Q 581 830 577 826 Q 570 822 576 811 Q 598 766 596 654 Q 593 591 624 570 Q 637 564 642 591 Q 642 592 642 595 L 643 623 Q 640 653 640 688 L 640 713 Q 641 747 644 774 Q 644 775 644 778 C 645 792 645 792 620 809 Z" fill="lightgray"></path>
    
      <path d="M 799 602 Q 812 86 786 36 Q 780 32 712 43 Q 691 49 692 39 Q 747 -10 778 -45 Q 791 -64 808 -69 Q 818 -73 827 -63 Q 869 -5 867 46 Q 852 290 849 688 Q 848 749 863 776 Q 876 797 863 808 Q 841 829 801 845 Q 782 852 766 846 Q 709 818 620 809 C 590 805 614 773 644 778 Q 651 778 661 780 Q 707 789 752 797 Q 771 798 779 787 Q 795 772 795 721 Q 796 675 798 630 L 799 602 Z" fill="lightgray"></path>
    
      <path d="M 640 688 Q 692 694 733 700 Q 752 703 745 714 Q 736 726 715 729 Q 682 735 640 713 C 613 699 610 685 640 688 Z" fill="lightgray"></path>
    
      <path d="M 642 595 Q 643 595 648 595 Q 732 601 799 602 C 829 602 822 613 798 630 Q 791 636 780 638 Q 750 647 643 623 C 614 616 612 595 642 595 Z" fill="lightgray"></path>
    
      <path d="M 545 472 Q 633 496 635 496 Q 642 502 638 508 Q 634 515 613 521 Q 591 525 571 516 Q 541 506 508 496 Q 471 487 429 482 Q 428 482 428 481 C 399 473 405 463 435 460 Q 454 457 507 464 L 545 472 Z" fill="lightgray"></path>
    
      <path d="M 428 481 Q 404 505 382 507 Q 373 507 371 500 Q 368 493 375 487 Q 393 454 383 337 Q 377 279 371 269 Q 368 259 381 246 Q 391 236 396 236 Q 403 237 415 241 C 422 243 421 261 418 291 Q 412 348 428 441 Q 428 454 435 460 C 441 469 441 469 428 481 Z" fill="lightgray"></path>
    
      <path d="M 548 404 Q 576 410 602 414 Q 618 418 613 427 Q 606 437 587 440 Q 574 441 551 435 L 509 423 Q 484 416 461 409 Q 449 406 464 395 Q 467 394 509 397 L 548 404 Z" fill="lightgray"></path>
    
      <path d="M 543 336 Q 576 343 606 347 Q 622 350 617 359 Q 610 369 591 372 Q 575 373 545 366 L 509 355 Q 478 348 453 340 Q 441 339 456 327 Q 457 327 509 330 L 543 336 Z" fill="lightgray"></path>
    
      <path d="M 545 366 Q 546 387 548 404 L 551 435 Q 551 442 552 446 Q 558 459 551 466 Q 548 470 545 472 C 523 492 501 493 507 464 Q 510 454 509 423 L 509 397 Q 509 381 509 355 L 509 330 Q 509 314 509 293 C 509 263 541 268 541 298 Q 541 317 543 336 L 545 366 Z" fill="lightgray"></path>
    
      <path d="M 415 241 Q 449 265 584 280 Q 627 287 645 278 Q 655 272 654 259 Q 655 252 645 176 Q 636 133 627 116 Q 618 103 604 107 Q 585 113 564 119 Q 551 125 548 121 Q 545 117 557 107 Q 600 52 602 35 Q 605 28 612 27 Q 624 26 648 48 Q 669 70 683 133 Q 699 259 717 269 Q 723 275 722 280 Q 723 284 698 302 Q 676 315 670 317 Q 661 318 643 313 Q 630 310 613 309 Q 585 308 541 298 L 509 293 Q 469 287 443 279 Q 421 275 418 291 C 397 312 388 227 415 241 Z" fill="lightgray"></path>
    
      <path d="M 318 212 Q 311 169 296 129 Q 287 102 305 80 Q 314 68 327 81 Q 357 115 347 175 Q 346 200 336 216 Q 332 222 326 221 Q 320 220 318 212 Z" fill="lightgray"></path>
    
      <path d="M 393 189 Q 406 128 420 120 Q 427 116 436 124 Q 440 131 442 145 Q 439 175 404 203 Q 400 206 395 200 Q 392 196 393 189 Z" fill="lightgray"></path>
    
      <path d="M 478 203 Q 490 155 503 148 Q 510 144 520 153 Q 524 160 525 176 Q 524 186 512 197 Q 496 213 489 219 Q 483 223 479 216 Q 476 212 478 203 Z" fill="lightgray"></path>
    
      <path d="M 562 208 Q 581 168 592 165 Q 596 164 602 169 Q 606 176 608 193 Q 608 205 567 234 Q 560 238 556 238 Q 553 237 551 230 Q 551 223 562 208 Z" fill="lightgray"></path>
    
    
      <clipPath id="make-me-a-hanzi-clip-0">
        <path d="M 247 753 Q 225 772 198 780 Q 188 783 182 774 Q 178 768 186 757 Q 216 681 215 605 Q 221 296 171 141 Q 162 114 167 94 Q 176 58 188 45 Q 200 30 210 45 Q 243 82 247 240 Q 248 337 250 432 Q 250 487 251 532 L 251 557 Q 252 594 254 623 L 256 651 Q 259 700 263 723 Q 263 727 263 729 C 264 740 264 740 247 753 Z"></path>
      </clipPath>
      <path clip-path="url(#make-me-a-hanzi-clip-0)" d="M 192 769 L 231 721 L 235 618 L 231 381 L 221 229 L 200 113 L 199 49" fill="none" id="make-me-a-hanzi-animation-0" stroke-dasharray="864 1728" stroke-linecap="round"></path>
    
      <clipPath id="make-me-a-hanzi-clip-1">
        <path d="M 353 550 Q 372 523 391 546 Q 403 561 412 627 Q 418 702 439 731 Q 449 747 438 761 Q 422 774 395 790 Q 382 794 367 789 Q 312 767 247 753 C 218 746 234 722 263 729 Q 356 753 360 752 Q 363 752 367 750 Q 374 746 373 722 Q 361 586 355 579 C 348 555 348 555 353 550 Z"></path>
      </clipPath>
      <path clip-path="url(#make-me-a-hanzi-clip-1)" d="M 256 750 L 274 745 L 378 770 L 406 743 L 374 555" fill="none" id="make-me-a-hanzi-animation-1" stroke-dasharray="483 966" stroke-linecap="round"></path>
    
      <clipPath id="make-me-a-hanzi-clip-2">
        <path d="M 254 623 Q 303 635 339 643 Q 358 647 350 658 Q 340 668 318 670 Q 285 670 256 651 C 231 635 225 616 254 623 Z"></path>
      </clipPath>
      <path clip-path="url(#make-me-a-hanzi-clip-2)" d="M 261 630 L 270 642 L 302 652 L 342 652" fill="none" id="make-me-a-hanzi-animation-2" stroke-dasharray="217 434" stroke-linecap="round"></path>
    
      <clipPath id="make-me-a-hanzi-clip-3">
        <path d="M 251 532 Q 251 533 253 533 Q 308 543 353 550 C 383 555 384 571 355 579 Q 352 580 347 581 Q 314 584 251 557 C 223 545 223 522 251 532 Z"></path>
      </clipPath>
      <path clip-path="url(#make-me-a-hanzi-clip-3)" d="M 260 540 L 265 550 L 337 564 L 349 572" fill="none" id="make-me-a-hanzi-animation-3" stroke-dasharray="227 454" stroke-linecap="round"></path>
    
      <clipPath id="make-me-a-hanzi-clip-4">
        <path d="M 620 809 Q 604 821 587 827 Q 581 830 577 826 Q 570 822 576 811 Q 598 766 596 654 Q 593 591 624 570 Q 637 564 642 591 Q 642 592 642 595 L 643 623 Q 640 653 640 688 L 640 713 Q 641 747 644 774 Q 644 775 644 778 C 645 792 645 792 620 809 Z"></path>
      </clipPath>
      <path clip-path="url(#make-me-a-hanzi-clip-4)" d="M 583 818 L 604 796 L 617 769 L 618 644 L 627 583" fill="none" id="make-me-a-hanzi-animation-4" stroke-dasharray="375 750" stroke-linecap="round"></path>
    
      <clipPath id="make-me-a-hanzi-clip-5">
        <path d="M 799 602 Q 812 86 786 36 Q 780 32 712 43 Q 691 49 692 39 Q 747 -10 778 -45 Q 791 -64 808 -69 Q 818 -73 827 -63 Q 869 -5 867 46 Q 852 290 849 688 Q 848 749 863 776 Q 876 797 863 808 Q 841 829 801 845 Q 782 852 766 846 Q 709 818 620 809 C 590 805 614 773 644 778 Q 651 778 661 780 Q 707 789 752 797 Q 771 798 779 787 Q 795 772 795 721 Q 796 675 798 630 L 799 602 Z"></path>
      </clipPath>
      <path clip-path="url(#make-me-a-hanzi-clip-5)" d="M 629 808 L 654 796 L 778 821 L 796 814 L 825 788 L 828 40 L 821 13 L 807 -7 L 702 36" fill="none" id="make-me-a-hanzi-animation-5" stroke-dasharray="1254 2508" stroke-linecap="round"></path>
    
      <clipPath id="make-me-a-hanzi-clip-6">
        <path d="M 640 688 Q 692 694 733 700 Q 752 703 745 714 Q 736 726 715 729 Q 682 735 640 713 C 613 699 610 685 640 688 Z"></path>
      </clipPath>
      <path clip-path="url(#make-me-a-hanzi-clip-6)" d="M 648 694 L 655 705 L 669 709 L 718 714 L 737 709" fill="none" id="make-me-a-hanzi-animation-6" stroke-dasharray="224 448" stroke-linecap="round"></path>
    
      <clipPath id="make-me-a-hanzi-clip-7">
        <path d="M 642 595 Q 643 595 648 595 Q 732 601 799 602 C 829 602 822 613 798 630 Q 791 636 780 638 Q 750 647 643 623 C 614 616 612 595 642 595 Z"></path>
      </clipPath>
      <path clip-path="url(#make-me-a-hanzi-clip-7)" d="M 645 602 L 659 612 L 746 621 L 778 619 L 792 609" fill="none" id="make-me-a-hanzi-animation-7" stroke-dasharray="282 564" stroke-linecap="round"></path>
    
      <clipPath id="make-me-a-hanzi-clip-8">
        <path d="M 545 472 Q 633 496 635 496 Q 642 502 638 508 Q 634 515 613 521 Q 591 525 571 516 Q 541 506 508 496 Q 471 487 429 482 Q 428 482 428 481 C 399 473 405 463 435 460 Q 454 457 507 464 L 545 472 Z"></path>
      </clipPath>
      <path clip-path="url(#make-me-a-hanzi-clip-8)" d="M 433 477 L 462 472 L 555 490 L 604 506 L 632 503" fill="none" id="make-me-a-hanzi-animation-8" stroke-dasharray="332 664" stroke-linecap="round"></path>
    
      <clipPath id="make-me-a-hanzi-clip-9">
        <path d="M 428 481 Q 404 505 382 507 Q 373 507 371 500 Q 368 493 375 487 Q 393 454 383 337 Q 377 279 371 269 Q 368 259 381 246 Q 391 236 396 236 Q 403 237 415 241 C 422 243 421 261 418 291 Q 412 348 428 441 Q 428 454 435 460 C 441 469 441 469 428 481 Z"></path>
      </clipPath>
      <path clip-path="url(#make-me-a-hanzi-clip-9)" d="M 381 496 L 393 488 L 408 464 L 394 265 L 407 248" fill="none" id="make-me-a-hanzi-animation-9" stroke-dasharray="392 784" stroke-linecap="round"></path>
    
      <clipPath id="make-me-a-hanzi-clip-10">
        <path d="M 548 404 Q 576 410 602 414 Q 618 418 613 427 Q 606 437 587 440 Q 574 441 551 435 L 509 423 Q 484 416 461 409 Q 449 406 464 395 Q 467 394 509 397 L 548 404 Z"></path>
      </clipPath>
      <path clip-path="url(#make-me-a-hanzi-clip-10)" d="M 467 403 L 573 425 L 604 423" fill="none" id="make-me-a-hanzi-animation-10" stroke-dasharray="267 534" stroke-linecap="round"></path>
    
      <clipPath id="make-me-a-hanzi-clip-11">
        <path d="M 543 336 Q 576 343 606 347 Q 622 350 617 359 Q 610 369 591 372 Q 575 373 545 366 L 509 355 Q 478 348 453 340 Q 441 339 456 327 Q 457 327 509 330 L 543 336 Z"></path>
      </clipPath>
      <path clip-path="url(#make-me-a-hanzi-clip-11)" d="M 457 334 L 497 338 L 573 358 L 609 356" fill="none" id="make-me-a-hanzi-animation-11" stroke-dasharray="283 566" stroke-linecap="round"></path>
    
      <clipPath id="make-me-a-hanzi-clip-12">
        <path d="M 545 366 Q 546 387 548 404 L 551 435 Q 551 442 552 446 Q 558 459 551 466 Q 548 470 545 472 C 523 492 501 493 507 464 Q 510 454 509 423 L 509 397 Q 509 381 509 355 L 509 330 Q 509 314 509 293 C 509 263 541 268 541 298 Q 541 317 543 336 L 545 366 Z"></path>
      </clipPath>
      <path clip-path="url(#make-me-a-hanzi-clip-12)" d="M 514 461 L 531 442 L 526 318 L 513 300" fill="none" id="make-me-a-hanzi-animation-12" stroke-dasharray="300 600" stroke-linecap="round"></path>
    
      <clipPath id="make-me-a-hanzi-clip-13">
        <path d="M 415 241 Q 449 265 584 280 Q 627 287 645 278 Q 655 272 654 259 Q 655 252 645 176 Q 636 133 627 116 Q 618 103 604 107 Q 585 113 564 119 Q 551 125 548 121 Q 545 117 557 107 Q 600 52 602 35 Q 605 28 612 27 Q 624 26 648 48 Q 669 70 683 133 Q 699 259 717 269 Q 723 275 722 280 Q 723 284 698 302 Q 676 315 670 317 Q 661 318 643 313 Q 630 310 613 309 Q 585 308 541 298 L 509 293 Q 469 287 443 279 Q 421 275 418 291 C 397 312 388 227 415 241 Z"></path>
      </clipPath>
      <path clip-path="url(#make-me-a-hanzi-clip-13)" d="M 416 247 L 434 267 L 583 294 L 655 296 L 676 285 L 683 275 L 664 149 L 638 86 L 622 73 L 552 119" fill="none" id="make-me-a-hanzi-animation-13" stroke-dasharray="714 1428" stroke-linecap="round"></path>
    
      <clipPath id="make-me-a-hanzi-clip-14">
        <path d="M 318 212 Q 311 169 296 129 Q 287 102 305 80 Q 314 68 327 81 Q 357 115 347 175 Q 346 200 336 216 Q 332 222 326 221 Q 320 220 318 212 Z"></path>
      </clipPath>
      <path clip-path="url(#make-me-a-hanzi-clip-14)" d="M 328 212 L 329 164 L 316 87" fill="none" id="make-me-a-hanzi-animation-14" stroke-dasharray="254 508" stroke-linecap="round"></path>
    
      <clipPath id="make-me-a-hanzi-clip-15">
        <path d="M 393 189 Q 406 128 420 120 Q 427 116 436 124 Q 440 131 442 145 Q 439 175 404 203 Q 400 206 395 200 Q 392 196 393 189 Z"></path>
      </clipPath>
      <path clip-path="url(#make-me-a-hanzi-clip-15)" d="M 402 193 L 421 156 L 425 131" fill="none" id="make-me-a-hanzi-animation-15" stroke-dasharray="195 390" stroke-linecap="round"></path>
    
      <clipPath id="make-me-a-hanzi-clip-16">
        <path d="M 478 203 Q 490 155 503 148 Q 510 144 520 153 Q 524 160 525 176 Q 524 186 512 197 Q 496 213 489 219 Q 483 223 479 216 Q 476 212 478 203 Z"></path>
      </clipPath>
      <path clip-path="url(#make-me-a-hanzi-clip-16)" d="M 487 209 L 506 175 L 508 160" fill="none" id="make-me-a-hanzi-animation-16" stroke-dasharray="182 364" stroke-linecap="round"></path>
    
      <clipPath id="make-me-a-hanzi-clip-17">
        <path d="M 562 208 Q 581 168 592 165 Q 596 164 602 169 Q 606 176 608 193 Q 608 205 567 234 Q 560 238 556 238 Q 553 237 551 230 Q 551 223 562 208 Z"></path>
      </clipPath>
      <path clip-path="url(#make-me-a-hanzi-clip-17)" d="M 559 230 L 582 204 L 594 175" fill="none" id="make-me-a-hanzi-animation-17" stroke-dasharray="194 388" stroke-linecap="round"></path>
    
  </g>
</svg>