<svg version="1.1" viewBox="0 0 1024 1024" xmlns="http://www.w3.org/2000/svg">
  <g stroke="lightgray" stroke-dasharray="1,1" stroke-width="1" transform="scale(4, 4)">
    <line x1="0" y1="0" x2="256" y2="256"></line>
    <line x1="256" y1="0" x2="0" y2="256"></line>
    <line x1="128" y1="0" x2="128" y2="256"></line>
    <line x1="0" y1="128" x2="256" y2="128"></line>
  </g>
  <g transform="scale(1, -1) translate(0, -900)">
    <style type="text/css">
      
        @keyframes keyframes0 {
          from {
            stroke: blue;
            stroke-dashoffset: 852;
            stroke-width: 128;
          }
          73% {
            animation-timing-function: step-end;
            stroke: blue;
            stroke-dashoffset: 0;
            stroke-width: 128;
          }
          to {
            stroke: black;
            stroke-width: 1024;
          }
        }
        #make-me-a-hanzi-animation-0 {
          animation: keyframes0 0.943359375s both;
          animation-delay: 0s;
          animation-timing-function: linear;
        }
      
        @keyframes keyframes1 {
          from {
            stroke: blue;
            stroke-dashoffset: 950;
            stroke-width: 128;
          }
          76% {
            animation-timing-function: step-end;
            stroke: blue;
            stroke-dashoffset: 0;
            stroke-width: 128;
          }
          to {
            stroke: black;
            stroke-width: 1024;
          }
        }
        #make-me-a-hanzi-animation-1 {
          animation: keyframes1 1.0231119791666667s both;
          animation-delay: 0.943359375s;
          animation-timing-function: linear;
        }
      
        @keyframes keyframes2 {
          from {
            stroke: blue;
            stroke-dashoffset: 574;
            stroke-width: 128;
          }
          65% {
            animation-timing-function: step-end;
            stroke: blue;
            stroke-dashoffset: 0;
            stroke-width: 128;
          }
          to {
            stroke: black;
            stroke-width: 1024;
          }
        }
        #make-me-a-hanzi-animation-2 {
          animation: keyframes2 0.7171223958333334s both;
          animation-delay: 1.9664713541666667s;
          animation-timing-function: linear;
        }
      
        @keyframes keyframes3 {
          from {
            stroke: blue;
            stroke-dashoffset: 489;
            stroke-width: 128;
          }
          61% {
            animation-timing-function: step-end;
            stroke: blue;
            stroke-dashoffset: 0;
            stroke-width: 128;
          }
          to {
            stroke: black;
            stroke-width: 1024;
          }
        }
        #make-me-a-hanzi-animation-3 {
          animation: keyframes3 0.64794921875s both;
          animation-delay: 2.68359375s;
          animation-timing-function: linear;
        }
      
        @keyframes keyframes4 {
          from {
            stroke: blue;
            stroke-dashoffset: 852;
            stroke-width: 128;
          }
          73% {
            animation-timing-function: step-end;
            stroke: blue;
            stroke-dashoffset: 0;
            stroke-width: 128;
          }
          to {
            stroke: black;
            stroke-width: 1024;
          }
        }
        #make-me-a-hanzi-animation-4 {
          animation: keyframes4 0.943359375s both;
          animation-delay: 3.33154296875s;
          animation-timing-function: linear;
        }
      
        @keyframes keyframes5 {
          from {
            stroke: blue;
            stroke-dashoffset: 435;
            stroke-width: 128;
          }
          59% {
            animation-timing-function: step-end;
            stroke: blue;
            stroke-dashoffset: 0;
            stroke-width: 128;
          }
          to {
            stroke: black;
            stroke-width: 1024;
          }
        }
        #make-me-a-hanzi-animation-5 {
          animation: keyframes5 0.60400390625s both;
          animation-delay: 4.27490234375s;
          animation-timing-function: linear;
        }
      
        @keyframes keyframes6 {
          from {
            stroke: blue;
            stroke-dashoffset: 494;
            stroke-width: 128;
          }
          62% {
            animation-timing-function: step-end;
            stroke: blue;
            stroke-dashoffset: 0;
            stroke-width: 128;
          }
          to {
            stroke: black;
            stroke-width: 1024;
          }
        }
        #make-me-a-hanzi-animation-6 {
          animation: keyframes6 0.6520182291666666s both;
          animation-delay: 4.87890625s;
          animation-timing-function: linear;
        }
      
        @keyframes keyframes7 {
          from {
            stroke: blue;
            stroke-dashoffset: 1174;
            stroke-width: 128;
          }
          79% {
            animation-timing-function: step-end;
            stroke: blue;
            stroke-dashoffset: 0;
            stroke-width: 128;
          }
          to {
            stroke: black;
            stroke-width: 1024;
          }
        }
        #make-me-a-hanzi-animation-7 {
          animation: keyframes7 1.2054036458333333s both;
          animation-delay: 5.530924479166667s;
          animation-timing-function: linear;
        }
      
        @keyframes keyframes8 {
          from {
            stroke: blue;
            stroke-dashoffset: 697;
            stroke-width: 128;
          }
          69% {
            animation-timing-function: step-end;
            stroke: blue;
            stroke-dashoffset: 0;
            stroke-width: 128;
          }
          to {
            stroke: black;
            stroke-width: 1024;
          }
        }
        #make-me-a-hanzi-animation-8 {
          animation: keyframes8 0.8172200520833334s both;
          animation-delay: 6.736328125s;
          animation-timing-function: linear;
        }
      
        @keyframes keyframes9 {
          from {
            stroke: blue;
            stroke-dashoffset: 735;
            stroke-width: 128;
          }
          71% {
            animation-timing-function: step-end;
            stroke: blue;
            stroke-dashoffset: 0;
            stroke-width: 128;
          }
          to {
            stroke: black;
            stroke-width: 1024;
          }
        }
        #make-me-a-hanzi-animation-9 {
          animation: keyframes9 0.84814453125s both;
          animation-delay: 7.553548177083333s;
          animation-timing-function: linear;
        }
      
    </style>
    
      <path d="M 184 659 Q 224 663 267 681 Q 286 691 296 679 Q 300 673 291 656 Q 272 619 254 583 Q 241 561 253 541 Q 310 445 291 425 Q 284 418 265 425 Q 243 435 216 441 Q 194 447 216 428 Q 264 394 306 352 Q 319 339 333 351 Q 346 361 354 385 Q 361 407 347 449 Q 331 495 298 530 Q 271 563 290 587 Q 342 657 369 673 Q 388 683 380 697 Q 368 715 334 736 Q 315 746 301 736 Q 250 700 175 688 C 146 683 154 655 184 659 Z" fill="lightgray"></path>
    
      <path d="M 175 688 Q 160 706 131 715 Q 121 721 107 716 Q 100 710 106 696 Q 130 612 133 595 Q 133 585 134 571 Q 152 301 111 131 Q 96 71 136 22 Q 148 7 159 21 Q 180 49 178 173 Q 179 618 183 647 Q 184 654 184 659 C 186 679 186 679 175 688 Z" fill="lightgray"></path>
    
      <path d="M 618 689 Q 765 731 768 733 Q 777 740 771 749 Q 764 759 736 766 Q 706 770 677 757 Q 652 747 624 738 L 567 721 Q 516 708 460 700 Q 424 693 450 678 Q 492 660 555 675 Q 561 676 568 677 L 618 689 Z" fill="lightgray"></path>
    
      <path d="M 418 568 Q 408 572 381 576 Q 369 579 367 573 Q 361 567 369 552 Q 400 494 419 398 Q 423 370 440 350 Q 458 331 462 345 Q 463 349 464 356 L 464 382 Q 463 395 460 409 Q 441 500 435 534 C 430 564 430 564 418 568 Z" fill="lightgray"></path>
    
      <path d="M 700 389 Q 700 385 702 381 Q 706 365 720 364 Q 735 365 744 381 Q 757 394 784 468 Q 803 520 843 550 Q 864 566 847 583 Q 829 601 779 631 Q 764 641 687 624 Q 644 618 614 609 L 570 601 Q 540 597 515 589 Q 460 576 418 568 C 389 562 408 522 435 534 Q 444 544 571 569 L 615 578 Q 726 600 744 592 Q 754 585 746 555 Q 718 446 707 420 L 700 389 Z" fill="lightgray"></path>
    
      <path d="M 615 468 Q 643 474 671 478 Q 695 482 685 496 Q 673 511 647 515 Q 634 516 615 512 L 571 500 Q 532 487 499 474 Q 481 470 504 455 Q 507 452 571 460 L 615 468 Z" fill="lightgray"></path>
    
      <path d="M 615 377 Q 658 384 700 389 C 730 393 735 410 707 420 Q 680 433 615 412 L 570 403 Q 515 393 464 382 C 435 376 434 355 464 356 Q 471 356 482 357 Q 506 361 531 365 L 615 377 Z" fill="lightgray"></path>
    
      <path d="M 615 376 L 615 377 L 615 412 L 615 468 L 615 512 L 615 578 L 614 609 Q 614 652 618 689 L 624 738 Q 627 760 633 778 Q 642 794 639 808 Q 632 818 573 853 Q 548 869 527 853 Q 521 849 529 832 Q 566 780 567 721 L 568 677 Q 569 641 570 601 L 571 569 Q 571 563 572 556 Q 571 529 571 500 L 571 460 Q 570 432 570 403 L 570 334 Q 570 160 545 64 Q 535 25 562 -42 Q 569 -60 577 -63 Q 584 -70 591 -61 Q 600 -57 610 -35 Q 620 -8 618 24 Q 617 64 615 334 L 615 376 Z" fill="lightgray"></path>
    
      <path d="M 531 365 Q 495 244 238 83 Q 222 73 236 70 Q 275 66 370 124 Q 433 170 489 226 Q 531 271 555 312 Q 562 325 570 334 C 601 375 549 417 531 365 Z" fill="lightgray"></path>
    
      <path d="M 615 334 Q 693 225 794 107 Q 813 86 844 88 Q 950 92 985 98 Q 995 99 996 105 Q 996 111 982 118 Q 826 176 760 237 Q 691 297 615 376 C 594 398 597 358 615 334 Z" fill="lightgray"></path>
    
    
      <clipPath id="make-me-a-hanzi-clip-0">
        <path d="M 184 659 Q 224 663 267 681 Q 286 691 296 679 Q 300 673 291 656 Q 272 619 254 583 Q 241 561 253 541 Q 310 445 291 425 Q 284 418 265 425 Q 243 435 216 441 Q 194 447 216 428 Q 264 394 306 352 Q 319 339 333 351 Q 346 361 354 385 Q 361 407 347 449 Q 331 495 298 530 Q 271 563 290 587 Q 342 657 369 673 Q 388 683 380 697 Q 368 715 334 736 Q 315 746 301 736 Q 250 700 175 688 C 146 683 154 655 184 659 Z"></path>
      </clipPath>
      <path clip-path="url(#make-me-a-hanzi-clip-0)" d="M 184 683 L 195 676 L 294 706 L 318 706 L 332 692 L 314 652 L 276 595 L 265 561 L 271 536 L 280 530 L 317 461 L 324 419 L 319 401 L 316 395 L 280 401 L 221 435" fill="none" id="make-me-a-hanzi-animation-0" stroke-dasharray="724 1448" stroke-linecap="round"></path>
    
      <clipPath id="make-me-a-hanzi-clip-1">
        <path d="M 175 688 Q 160 706 131 715 Q 121 721 107 716 Q 100 710 106 696 Q 130 612 133 595 Q 133 585 134 571 Q 152 301 111 131 Q 96 71 136 22 Q 148 7 159 21 Q 180 49 178 173 Q 179 618 183 647 Q 184 654 184 659 C 186 679 186 679 175 688 Z"></path>
      </clipPath>
      <path clip-path="url(#make-me-a-hanzi-clip-1)" d="M 115 707 L 147 670 L 157 598 L 160 322 L 141 92 L 148 27" fill="none" id="make-me-a-hanzi-animation-1" stroke-dasharray="822 1644" stroke-linecap="round"></path>
    
      <clipPath id="make-me-a-hanzi-clip-2">
        <path d="M 618 689 Q 765 731 768 733 Q 777 740 771 749 Q 764 759 736 766 Q 706 770 677 757 Q 652 747 624 738 L 567 721 Q 516 708 460 700 Q 424 693 450 678 Q 492 660 555 675 Q 561 676 568 677 L 618 689 Z"></path>
      </clipPath>
      <path clip-path="url(#make-me-a-hanzi-clip-2)" d="M 452 690 L 526 690 L 624 713 L 704 740 L 763 742" fill="none" id="make-me-a-hanzi-animation-2" stroke-dasharray="446 892" stroke-linecap="round"></path>
    
      <clipPath id="make-me-a-hanzi-clip-3">
        <path d="M 418 568 Q 408 572 381 576 Q 369 579 367 573 Q 361 567 369 552 Q 400 494 419 398 Q 423 370 440 350 Q 458 331 462 345 Q 463 349 464 356 L 464 382 Q 463 395 460 409 Q 441 500 435 534 C 430 564 430 564 418 568 Z"></path>
      </clipPath>
      <path clip-path="url(#make-me-a-hanzi-clip-3)" d="M 376 566 L 400 546 L 410 525 L 452 351" fill="none" id="make-me-a-hanzi-animation-3" stroke-dasharray="361 722" stroke-linecap="round"></path>
    
      <clipPath id="make-me-a-hanzi-clip-4">
        <path d="M 700 389 Q 700 385 702 381 Q 706 365 720 364 Q 735 365 744 381 Q 757 394 784 468 Q 803 520 843 550 Q 864 566 847 583 Q 829 601 779 631 Q 764 641 687 624 Q 644 618 614 609 L 570 601 Q 540 597 515 589 Q 460 576 418 568 C 389 562 408 522 435 534 Q 444 544 571 569 L 615 578 Q 726 600 744 592 Q 754 585 746 555 Q 718 446 707 420 L 700 389 Z"></path>
      </clipPath>
      <path clip-path="url(#make-me-a-hanzi-clip-4)" d="M 425 564 L 444 556 L 702 611 L 742 614 L 766 607 L 794 567 L 760 493 L 721 383" fill="none" id="make-me-a-hanzi-animation-4" stroke-dasharray="724 1448" stroke-linecap="round"></path>
    
      <clipPath id="make-me-a-hanzi-clip-5">
        <path d="M 615 468 Q 643 474 671 478 Q 695 482 685 496 Q 673 511 647 515 Q 634 516 615 512 L 571 500 Q 532 487 499 474 Q 481 470 504 455 Q 507 452 571 460 L 615 468 Z"></path>
      </clipPath>
      <path clip-path="url(#make-me-a-hanzi-clip-5)" d="M 501 464 L 642 495 L 676 489" fill="none" id="make-me-a-hanzi-animation-5" stroke-dasharray="307 614" stroke-linecap="round"></path>
    
      <clipPath id="make-me-a-hanzi-clip-6">
        <path d="M 615 377 Q 658 384 700 389 C 730 393 735 410 707 420 Q 680 433 615 412 L 570 403 Q 515 393 464 382 C 435 376 434 355 464 356 Q 471 356 482 357 Q 506 361 531 365 L 615 377 Z"></path>
      </clipPath>
      <path clip-path="url(#make-me-a-hanzi-clip-6)" d="M 468 363 L 504 376 L 685 406 L 699 414" fill="none" id="make-me-a-hanzi-animation-6" stroke-dasharray="366 732" stroke-linecap="round"></path>
    
      <clipPath id="make-me-a-hanzi-clip-7">
        <path d="M 615 376 L 615 377 L 615 412 L 615 468 L 615 512 L 615 578 L 614 609 Q 614 652 618 689 L 624 738 Q 627 760 633 778 Q 642 794 639 808 Q 632 818 573 853 Q 548 869 527 853 Q 521 849 529 832 Q 566 780 567 721 L 568 677 Q 569 641 570 601 L 571 569 Q 571 563 572 556 Q 571 529 571 500 L 571 460 Q 570 432 570 403 L 570 334 Q 570 160 545 64 Q 535 25 562 -42 Q 569 -60 577 -63 Q 584 -70 591 -61 Q 600 -57 610 -35 Q 620 -8 618 24 Q 617 64 615 334 L 615 376 Z"></path>
      </clipPath>
      <path clip-path="url(#make-me-a-hanzi-clip-7)" d="M 540 844 L 570 823 L 595 792 L 594 270 L 580 52 L 582 -49" fill="none" id="make-me-a-hanzi-animation-7" stroke-dasharray="1046 2092" stroke-linecap="round"></path>
    
      <clipPath id="make-me-a-hanzi-clip-8">
        <path d="M 531 365 Q 495 244 238 83 Q 222 73 236 70 Q 275 66 370 124 Q 433 170 489 226 Q 531 271 555 312 Q 562 325 570 334 C 601 375 549 417 531 365 Z"></path>
      </clipPath>
      <path clip-path="url(#make-me-a-hanzi-clip-8)" d="M 564 364 L 491 258 L 413 182 L 304 105 L 240 76" fill="none" id="make-me-a-hanzi-animation-8" stroke-dasharray="569 1138" stroke-linecap="round"></path>
    
      <clipPath id="make-me-a-hanzi-clip-9">
        <path d="M 615 334 Q 693 225 794 107 Q 813 86 844 88 Q 950 92 985 98 Q 995 99 996 105 Q 996 111 982 118 Q 826 176 760 237 Q 691 297 615 376 C 594 398 597 358 615 334 Z"></path>
      </clipPath>
      <path clip-path="url(#make-me-a-hanzi-clip-9)" d="M 620 369 L 628 341 L 678 282 L 750 205 L 822 141 L 854 128 L 988 105" fill="none" id="make-me-a-hanzi-animation-9" stroke-dasharray="607 1214" stroke-linecap="round"></path>
    
  </g>
</svg>