<svg version="1.1" viewBox="0 0 1024 1024" xmlns="http://www.w3.org/2000/svg">
  <g stroke="lightgray" stroke-dasharray="1,1" stroke-width="1" transform="scale(4, 4)">
    <line x1="0" y1="0" x2="256" y2="256"></line>
    <line x1="256" y1="0" x2="0" y2="256"></line>
    <line x1="128" y1="0" x2="128" y2="256"></line>
    <line x1="0" y1="128" x2="256" y2="128"></line>
  </g>
  <g transform="scale(1, -1) translate(0, -900)">
    <style type="text/css">
      
        @keyframes keyframes0 {
          from {
            stroke: blue;
            stroke-dashoffset: 509;
            stroke-width: 128;
          }
          62% {
            animation-timing-function: step-end;
            stroke: blue;
            stroke-dashoffset: 0;
            stroke-width: 128;
          }
          to {
            stroke: black;
            stroke-width: 1024;
          }
        }
        #make-me-a-hanzi-animation-0 {
          animation: keyframes0 0.6642252604166666s both;
          animation-delay: 0s;
          animation-timing-function: linear;
        }
      
        @keyframes keyframes1 {
          from {
            stroke: blue;
            stroke-dashoffset: 437;
            stroke-width: 128;
          }
          59% {
            animation-timing-function: step-end;
            stroke: blue;
            stroke-dashoffset: 0;
            stroke-width: 128;
          }
          to {
            stroke: black;
            stroke-width: 1024;
          }
        }
        #make-me-a-hanzi-animation-1 {
          animation: keyframes1 0.6056315104166666s both;
          animation-delay: 0.6642252604166666s;
          animation-timing-function: linear;
        }
      
        @keyframes keyframes2 {
          from {
            stroke: blue;
            stroke-dashoffset: 444;
            stroke-width: 128;
          }
          59% {
            animation-timing-function: step-end;
            stroke: blue;
            stroke-dashoffset: 0;
            stroke-width: 128;
          }
          to {
            stroke: black;
            stroke-width: 1024;
          }
        }
        #make-me-a-hanzi-animation-2 {
          animation: keyframes2 0.611328125s both;
          animation-delay: 1.2698567708333333s;
          animation-timing-function: linear;
        }
      
        @keyframes keyframes3 {
          from {
            stroke: blue;
            stroke-dashoffset: 992;
            stroke-width: 128;
          }
          76% {
            animation-timing-function: step-end;
            stroke: blue;
            stroke-dashoffset: 0;
            stroke-width: 128;
          }
          to {
            stroke: black;
            stroke-width: 1024;
          }
        }
        #make-me-a-hanzi-animation-3 {
          animation: keyframes3 1.0572916666666667s both;
          animation-delay: 1.8811848958333333s;
          animation-timing-function: linear;
        }
      
        @keyframes keyframes4 {
          from {
            stroke: blue;
            stroke-dashoffset: 745;
            stroke-width: 128;
          }
          71% {
            animation-timing-function: step-end;
            stroke: blue;
            stroke-dashoffset: 0;
            stroke-width: 128;
          }
          to {
            stroke: black;
            stroke-width: 1024;
          }
        }
        #make-me-a-hanzi-animation-4 {
          animation: keyframes4 0.8562825520833334s both;
          animation-delay: 2.9384765625s;
          animation-timing-function: linear;
        }
      
        @keyframes keyframes5 {
          from {
            stroke: blue;
            stroke-dashoffset: 327;
            stroke-width: 128;
          }
          52% {
            animation-timing-function: step-end;
            stroke: blue;
            stroke-dashoffset: 0;
            stroke-width: 128;
          }
          to {
            stroke: black;
            stroke-width: 1024;
          }
        }
        #make-me-a-hanzi-animation-5 {
          animation: keyframes5 0.51611328125s both;
          animation-delay: 3.7947591145833335s;
          animation-timing-function: linear;
        }
      
        @keyframes keyframes6 {
          from {
            stroke: blue;
            stroke-dashoffset: 565;
            stroke-width: 128;
          }
          65% {
            animation-timing-function: step-end;
            stroke: blue;
            stroke-dashoffset: 0;
            stroke-width: 128;
          }
          to {
            stroke: black;
            stroke-width: 1024;
          }
        }
        #make-me-a-hanzi-animation-6 {
          animation: keyframes6 0.7097981770833334s both;
          animation-delay: 4.310872395833334s;
          animation-timing-function: linear;
        }
      
        @keyframes keyframes7 {
          from {
            stroke: blue;
            stroke-dashoffset: 524;
            stroke-width: 128;
          }
          63% {
            animation-timing-function: step-end;
            stroke: blue;
            stroke-dashoffset: 0;
            stroke-width: 128;
          }
          to {
            stroke: black;
            stroke-width: 1024;
          }
        }
        #make-me-a-hanzi-animation-7 {
          animation: keyframes7 0.6764322916666666s both;
          animation-delay: 5.020670572916667s;
          animation-timing-function: linear;
        }
      
        @keyframes keyframes8 {
          from {
            stroke: blue;
            stroke-dashoffset: 552;
            stroke-width: 128;
          }
          64% {
            animation-timing-function: step-end;
            stroke: blue;
            stroke-dashoffset: 0;
            stroke-width: 128;
          }
          to {
            stroke: black;
            stroke-width: 1024;
          }
        }
        #make-me-a-hanzi-animation-8 {
          animation: keyframes8 0.69921875s both;
          animation-delay: 5.697102864583334s;
          animation-timing-function: linear;
        }
      
        @keyframes keyframes9 {
          from {
            stroke: blue;
            stroke-dashoffset: 566;
            stroke-width: 128;
          }
          65% {
            animation-timing-function: step-end;
            stroke: blue;
            stroke-dashoffset: 0;
            stroke-width: 128;
          }
          to {
            stroke: black;
            stroke-width: 1024;
          }
        }
        #make-me-a-hanzi-animation-9 {
          animation: keyframes9 0.7106119791666666s both;
          animation-delay: 6.396321614583334s;
          animation-timing-function: linear;
        }
      
        @keyframes keyframes10 {
          from {
            stroke: blue;
            stroke-dashoffset: 722;
            stroke-width: 128;
          }
          70% {
            animation-timing-function: step-end;
            stroke: blue;
            stroke-dashoffset: 0;
            stroke-width: 128;
          }
          to {
            stroke: black;
            stroke-width: 1024;
          }
        }
        #make-me-a-hanzi-animation-10 {
          animation: keyframes10 0.8375651041666666s both;
          animation-delay: 7.106933593750001s;
          animation-timing-function: linear;
        }
      
    </style>
    
      <path d="M 477 836 Q 504 797 493 662 Q 487 650 506 606 Q 515 591 528 599 Q 538 608 540 670 Q 541 772 563 803 Q 569 812 558 824 Q 509 863 484 854 Q 471 850 477 836 Z" fill="lightgray"></path>
    
      <path d="M 321 726 Q 290 671 249 623 Q 240 613 237 597 Q 231 572 238 555 Q 244 536 267 545 Q 328 581 340 663 Q 350 697 346 723 Q 342 733 336 734 Q 327 734 321 726 Z" fill="lightgray"></path>
    
      <path d="M 675 741 Q 726 705 788 651 Q 804 635 819 633 Q 826 633 833 643 Q 843 656 826 694 Q 814 730 743 751 Q 697 764 672 769 Q 663 773 663 762 Q 664 749 675 741 Z" fill="lightgray"></path>
    
      <path d="M 393 400 Q 594 556 648 606 Q 675 633 699 640 Q 715 644 716 654 Q 715 661 704 670 Q 676 692 649 700 Q 633 704 624 689 Q 594 611 358 423 L 325 398 Q 235 331 111 260 Q 104 257 105 253 Q 106 250 114 251 Q 178 263 212 283 Q 273 317 338 360 L 393 400 Z" fill="lightgray"></path>
    
      <path d="M 393 63 Q 394 79 394 95 Q 395 326 399 374 Q 400 390 393 400 L 358 423 Q 339 430 327 428 Q 312 422 319 410 Q 322 404 325 398 L 338 360 Q 371 243 331 71 Q 312 5 312 2 Q 312 -28 336 -58 Q 345 -73 356 -66 Q 375 -48 389 24 L 393 63 Z" fill="lightgray"></path>
    
      <path d="M 571 500 Q 622 461 641 466 Q 653 467 654 484 Q 653 494 640 508 Q 619 529 569 522 Q 562 521 563 512 Q 564 505 571 500 Z" fill="lightgray"></path>
    
      <path d="M 588 388 Q 750 418 754 420 Q 761 426 758 434 Q 752 444 728 452 Q 703 458 676 449 Q 628 436 577 425 Q 519 415 453 411 Q 422 407 443 392 Q 482 371 528 379 Q 534 380 542 381 L 588 388 Z" fill="lightgray"></path>
    
      <path d="M 606 277 Q 723 299 726 301 Q 733 308 730 314 Q 724 324 701 331 Q 682 335 606 316 L 556 306 Q 513 300 464 297 Q 434 294 455 279 Q 482 263 557 270 L 606 277 Z" fill="lightgray"></path>
    
      <path d="M 603 165 Q 735 189 737 189 Q 744 195 742 202 Q 736 212 714 220 Q 696 224 604 202 L 558 194 Q 506 187 449 185 Q 419 182 439 167 Q 469 148 536 156 Q 545 157 558 158 L 603 165 Z" fill="lightgray"></path>
    
      <path d="M 601 85 Q 602 127 603 165 L 604 202 Q 604 242 606 277 L 606 316 Q 606 319 607 321 Q 610 369 606 374 Q 596 383 588 388 C 564 405 530 409 542 381 Q 551 366 556 306 L 557 270 Q 557 240 558 194 L 558 158 Q 558 124 559 81 C 560 51 600 55 601 85 Z" fill="lightgray"></path>
    
      <path d="M 559 81 Q 480 74 393 63 C 363 59 360 31 389 24 Q 390 24 393 23 Q 414 17 429 21 Q 615 66 836 46 L 838 46 Q 857 45 862 54 Q 868 64 852 79 Q 800 119 740 106 Q 683 97 601 85 L 559 81 Z" fill="lightgray"></path>
    
    
      <clipPath id="make-me-a-hanzi-clip-0">
        <path d="M 477 836 Q 504 797 493 662 Q 487 650 506 606 Q 515 591 528 599 Q 538 608 540 670 Q 541 772 563 803 Q 569 812 558 824 Q 509 863 484 854 Q 471 850 477 836 Z"></path>
      </clipPath>
      <path clip-path="url(#make-me-a-hanzi-clip-0)" d="M 486 843 L 507 830 L 525 804 L 515 672 L 520 608" fill="none" id="make-me-a-hanzi-animation-0" stroke-dasharray="381 762" stroke-linecap="round"></path>
    
      <clipPath id="make-me-a-hanzi-clip-1">
        <path d="M 321 726 Q 290 671 249 623 Q 240 613 237 597 Q 231 572 238 555 Q 244 536 267 545 Q 328 581 340 663 Q 350 697 346 723 Q 342 733 336 734 Q 327 734 321 726 Z"></path>
      </clipPath>
      <path clip-path="url(#make-me-a-hanzi-clip-1)" d="M 334 723 L 306 645 L 256 560" fill="none" id="make-me-a-hanzi-animation-1" stroke-dasharray="309 618" stroke-linecap="round"></path>
    
      <clipPath id="make-me-a-hanzi-clip-2">
        <path d="M 675 741 Q 726 705 788 651 Q 804 635 819 633 Q 826 633 833 643 Q 843 656 826 694 Q 814 730 743 751 Q 697 764 672 769 Q 663 773 663 762 Q 664 749 675 741 Z"></path>
      </clipPath>
      <path clip-path="url(#make-me-a-hanzi-clip-2)" d="M 673 759 L 772 707 L 796 686 L 818 648" fill="none" id="make-me-a-hanzi-animation-2" stroke-dasharray="316 632" stroke-linecap="round"></path>
    
      <clipPath id="make-me-a-hanzi-clip-3">
        <path d="M 393 400 Q 594 556 648 606 Q 675 633 699 640 Q 715 644 716 654 Q 715 661 704 670 Q 676 692 649 700 Q 633 704 624 689 Q 594 611 358 423 L 325 398 Q 235 331 111 260 Q 104 257 105 253 Q 106 250 114 251 Q 178 263 212 283 Q 273 317 338 360 L 393 400 Z"></path>
      </clipPath>
      <path clip-path="url(#make-me-a-hanzi-clip-3)" d="M 706 654 L 652 659 L 574 577 L 391 422 L 235 314 L 179 282 L 110 255" fill="none" id="make-me-a-hanzi-animation-3" stroke-dasharray="864 1728" stroke-linecap="round"></path>
    
      <clipPath id="make-me-a-hanzi-clip-4">
        <path d="M 393 63 Q 394 79 394 95 Q 395 326 399 374 Q 400 390 393 400 L 358 423 Q 339 430 327 428 Q 312 422 319 410 Q 322 404 325 398 L 338 360 Q 371 243 331 71 Q 312 5 312 2 Q 312 -28 336 -58 Q 345 -73 356 -66 Q 375 -48 389 24 L 393 63 Z"></path>
      </clipPath>
      <path clip-path="url(#make-me-a-hanzi-clip-4)" d="M 328 417 L 344 407 L 366 377 L 374 288 L 372 156 L 347 -8 L 349 -54" fill="none" id="make-me-a-hanzi-animation-4" stroke-dasharray="617 1234" stroke-linecap="round"></path>
    
      <clipPath id="make-me-a-hanzi-clip-5">
        <path d="M 571 500 Q 622 461 641 466 Q 653 467 654 484 Q 653 494 640 508 Q 619 529 569 522 Q 562 521 563 512 Q 564 505 571 500 Z"></path>
      </clipPath>
      <path clip-path="url(#make-me-a-hanzi-clip-5)" d="M 575 511 L 616 497 L 639 481" fill="none" id="make-me-a-hanzi-animation-5" stroke-dasharray="199 398" stroke-linecap="round"></path>
    
      <clipPath id="make-me-a-hanzi-clip-6">
        <path d="M 588 388 Q 750 418 754 420 Q 761 426 758 434 Q 752 444 728 452 Q 703 458 676 449 Q 628 436 577 425 Q 519 415 453 411 Q 422 407 443 392 Q 482 371 528 379 Q 534 380 542 381 L 588 388 Z"></path>
      </clipPath>
      <path clip-path="url(#make-me-a-hanzi-clip-6)" d="M 446 403 L 454 398 L 518 396 L 599 407 L 699 432 L 750 429" fill="none" id="make-me-a-hanzi-animation-6" stroke-dasharray="437 874" stroke-linecap="round"></path>
    
      <clipPath id="make-me-a-hanzi-clip-7">
        <path d="M 606 277 Q 723 299 726 301 Q 733 308 730 314 Q 724 324 701 331 Q 682 335 606 316 L 556 306 Q 513 300 464 297 Q 434 294 455 279 Q 482 263 557 270 L 606 277 Z"></path>
      </clipPath>
      <path clip-path="url(#make-me-a-hanzi-clip-7)" d="M 457 289 L 496 283 L 546 285 L 691 313 L 722 309" fill="none" id="make-me-a-hanzi-animation-7" stroke-dasharray="396 792" stroke-linecap="round"></path>
    
      <clipPath id="make-me-a-hanzi-clip-8">
        <path d="M 603 165 Q 735 189 737 189 Q 744 195 742 202 Q 736 212 714 220 Q 696 224 604 202 L 558 194 Q 506 187 449 185 Q 419 182 439 167 Q 469 148 536 156 Q 545 157 558 158 L 603 165 Z"></path>
      </clipPath>
      <path clip-path="url(#make-me-a-hanzi-clip-8)" d="M 442 177 L 494 170 L 614 183 L 694 201 L 735 197" fill="none" id="make-me-a-hanzi-animation-8" stroke-dasharray="424 848" stroke-linecap="round"></path>
    
      <clipPath id="make-me-a-hanzi-clip-9">
        <path d="M 601 85 Q 602 127 603 165 L 604 202 Q 604 242 606 277 L 606 316 Q 606 319 607 321 Q 610 369 606 374 Q 596 383 588 388 C 564 405 530 409 542 381 Q 551 366 556 306 L 557 270 Q 557 240 558 194 L 558 158 Q 558 124 559 81 C 560 51 600 55 601 85 Z"></path>
      </clipPath>
      <path clip-path="url(#make-me-a-hanzi-clip-9)" d="M 550 380 L 579 357 L 582 333 L 580 106 L 565 90" fill="none" id="make-me-a-hanzi-animation-9" stroke-dasharray="438 876" stroke-linecap="round"></path>
    
      <clipPath id="make-me-a-hanzi-clip-10">
        <path d="M 559 81 Q 480 74 393 63 C 363 59 360 31 389 24 Q 390 24 393 23 Q 414 17 429 21 Q 615 66 836 46 L 838 46 Q 857 45 862 54 Q 868 64 852 79 Q 800 119 740 106 Q 683 97 601 85 L 559 81 Z"></path>
      </clipPath>
      <path clip-path="url(#make-me-a-hanzi-clip-10)" d="M 393 30 L 412 41 L 450 49 L 752 80 L 808 75 L 851 60" fill="none" id="make-me-a-hanzi-animation-10" stroke-dasharray="594 1188" stroke-linecap="round"></path>
    
  </g>
</svg>