<svg version="1.1" viewBox="0 0 1024 1024" xmlns="http://www.w3.org/2000/svg">
  <g stroke="lightgray" stroke-dasharray="1,1" stroke-width="1" transform="scale(4, 4)">
    <line x1="0" y1="0" x2="256" y2="256"></line>
    <line x1="256" y1="0" x2="0" y2="256"></line>
    <line x1="128" y1="0" x2="128" y2="256"></line>
    <line x1="0" y1="128" x2="256" y2="128"></line>
  </g>
  <g transform="scale(1, -1) translate(0, -900)">
    <style type="text/css">
      
        @keyframes keyframes0 {
          from {
            stroke: blue;
            stroke-dashoffset: 657;
            stroke-width: 128;
          }
          68% {
            animation-timing-function: step-end;
            stroke: blue;
            stroke-dashoffset: 0;
            stroke-width: 128;
          }
          to {
            stroke: black;
            stroke-width: 1024;
          }
        }
        #make-me-a-hanzi-animation-0 {
          animation: keyframes0 0.78466796875s both;
          animation-delay: 0s;
          animation-timing-function: linear;
        }
      
        @keyframes keyframes1 {
          from {
            stroke: blue;
            stroke-dashoffset: 572;
            stroke-width: 128;
          }
          65% {
            animation-timing-function: step-end;
            stroke: blue;
            stroke-dashoffset: 0;
            stroke-width: 128;
          }
          to {
            stroke: black;
            stroke-width: 1024;
          }
        }
        #make-me-a-hanzi-animation-1 {
          animation: keyframes1 0.7154947916666666s both;
          animation-delay: 0.78466796875s;
          animation-timing-function: linear;
        }
      
        @keyframes keyframes2 {
          from {
            stroke: blue;
            stroke-dashoffset: 341;
            stroke-width: 128;
          }
          53% {
            animation-timing-function: step-end;
            stroke: blue;
            stroke-dashoffset: 0;
            stroke-width: 128;
          }
          to {
            stroke: black;
            stroke-width: 1024;
          }
        }
        #make-me-a-hanzi-animation-2 {
          animation: keyframes2 0.5275065104166666s both;
          animation-delay: 1.5001627604166665s;
          animation-timing-function: linear;
        }
      
        @keyframes keyframes3 {
          from {
            stroke: blue;
            stroke-dashoffset: 439;
            stroke-width: 128;
          }
          59% {
            animation-timing-function: step-end;
            stroke: blue;
            stroke-dashoffset: 0;
            stroke-width: 128;
          }
          to {
            stroke: black;
            stroke-width: 1024;
          }
        }
        #make-me-a-hanzi-animation-3 {
          animation: keyframes3 0.6072591145833334s both;
          animation-delay: 2.027669270833333s;
          animation-timing-function: linear;
        }
      
        @keyframes keyframes4 {
          from {
            stroke: blue;
            stroke-dashoffset: 421;
            stroke-width: 128;
          }
          58% {
            animation-timing-function: step-end;
            stroke: blue;
            stroke-dashoffset: 0;
            stroke-width: 128;
          }
          to {
            stroke: black;
            stroke-width: 1024;
          }
        }
        #make-me-a-hanzi-animation-4 {
          animation: keyframes4 0.5926106770833334s both;
          animation-delay: 2.6349283854166665s;
          animation-timing-function: linear;
        }
      
        @keyframes keyframes5 {
          from {
            stroke: blue;
            stroke-dashoffset: 421;
            stroke-width: 128;
          }
          58% {
            animation-timing-function: step-end;
            stroke: blue;
            stroke-dashoffset: 0;
            stroke-width: 128;
          }
          to {
            stroke: black;
            stroke-width: 1024;
          }
        }
        #make-me-a-hanzi-animation-5 {
          animation: keyframes5 0.5926106770833334s both;
          animation-delay: 3.2275390625s;
          animation-timing-function: linear;
        }
      
        @keyframes keyframes6 {
          from {
            stroke: blue;
            stroke-dashoffset: 493;
            stroke-width: 128;
          }
          62% {
            animation-timing-function: step-end;
            stroke: blue;
            stroke-dashoffset: 0;
            stroke-width: 128;
          }
          to {
            stroke: black;
            stroke-width: 1024;
          }
        }
        #make-me-a-hanzi-animation-6 {
          animation: keyframes6 0.6512044270833334s both;
          animation-delay: 3.8201497395833335s;
          animation-timing-function: linear;
        }
      
        @keyframes keyframes7 {
          from {
            stroke: blue;
            stroke-dashoffset: 504;
            stroke-width: 128;
          }
          62% {
            animation-timing-function: step-end;
            stroke: blue;
            stroke-dashoffset: 0;
            stroke-width: 128;
          }
          to {
            stroke: black;
            stroke-width: 1024;
          }
        }
        #make-me-a-hanzi-animation-7 {
          animation: keyframes7 0.66015625s both;
          animation-delay: 4.471354166666667s;
          animation-timing-function: linear;
        }
      
        @keyframes keyframes8 {
          from {
            stroke: blue;
            stroke-dashoffset: 506;
            stroke-width: 128;
          }
          62% {
            animation-timing-function: step-end;
            stroke: blue;
            stroke-dashoffset: 0;
            stroke-width: 128;
          }
          to {
            stroke: black;
            stroke-width: 1024;
          }
        }
        #make-me-a-hanzi-animation-8 {
          animation: keyframes8 0.6617838541666666s both;
          animation-delay: 5.131510416666667s;
          animation-timing-function: linear;
        }
      
        @keyframes keyframes9 {
          from {
            stroke: blue;
            stroke-dashoffset: 568;
            stroke-width: 128;
          }
          65% {
            animation-timing-function: step-end;
            stroke: blue;
            stroke-dashoffset: 0;
            stroke-width: 128;
          }
          to {
            stroke: black;
            stroke-width: 1024;
          }
        }
        #make-me-a-hanzi-animation-9 {
          animation: keyframes9 0.7122395833333334s both;
          animation-delay: 5.793294270833334s;
          animation-timing-function: linear;
        }
      
        @keyframes keyframes10 {
          from {
            stroke: blue;
            stroke-dashoffset: 332;
            stroke-width: 128;
          }
          52% {
            animation-timing-function: step-end;
            stroke: blue;
            stroke-dashoffset: 0;
            stroke-width: 128;
          }
          to {
            stroke: black;
            stroke-width: 1024;
          }
        }
        #make-me-a-hanzi-animation-10 {
          animation: keyframes10 0.5201822916666666s both;
          animation-delay: 6.505533854166667s;
          animation-timing-function: linear;
        }
      
        @keyframes keyframes11 {
          from {
            stroke: blue;
            stroke-dashoffset: 457;
            stroke-width: 128;
          }
          60% {
            animation-timing-function: step-end;
            stroke: blue;
            stroke-dashoffset: 0;
            stroke-width: 128;
          }
          to {
            stroke: black;
            stroke-width: 1024;
          }
        }
        #make-me-a-hanzi-animation-11 {
          animation: keyframes11 0.6219075520833334s both;
          animation-delay: 7.025716145833334s;
          animation-timing-function: linear;
        }
      
        @keyframes keyframes12 {
          from {
            stroke: blue;
            stroke-dashoffset: 433;
            stroke-width: 128;
          }
          58% {
            animation-timing-function: step-end;
            stroke: blue;
            stroke-dashoffset: 0;
            stroke-width: 128;
          }
          to {
            stroke: black;
            stroke-width: 1024;
          }
        }
        #make-me-a-hanzi-animation-12 {
          animation: keyframes12 0.6023763020833334s both;
          animation-delay: 7.647623697916667s;
          animation-timing-function: linear;
        }
      
        @keyframes keyframes13 {
          from {
            stroke: blue;
            stroke-dashoffset: 447;
            stroke-width: 128;
          }
          59% {
            animation-timing-function: step-end;
            stroke: blue;
            stroke-dashoffset: 0;
            stroke-width: 128;
          }
          to {
            stroke: black;
            stroke-width: 1024;
          }
        }
        #make-me-a-hanzi-animation-13 {
          animation: keyframes13 0.61376953125s both;
          animation-delay: 8.25s;
          animation-timing-function: linear;
        }
      
        @keyframes keyframes14 {
          from {
            stroke: blue;
            stroke-dashoffset: 483;
            stroke-width: 128;
          }
          61% {
            animation-timing-function: step-end;
            stroke: blue;
            stroke-dashoffset: 0;
            stroke-width: 128;
          }
          to {
            stroke: black;
            stroke-width: 1024;
          }
        }
        #make-me-a-hanzi-animation-14 {
          animation: keyframes14 0.64306640625s both;
          animation-delay: 8.86376953125s;
          animation-timing-function: linear;
        }
      
        @keyframes keyframes15 {
          from {
            stroke: blue;
            stroke-dashoffset: 549;
            stroke-width: 128;
          }
          64% {
            animation-timing-function: step-end;
            stroke: blue;
            stroke-dashoffset: 0;
            stroke-width: 128;
          }
          to {
            stroke: black;
            stroke-width: 1024;
          }
        }
        #make-me-a-hanzi-animation-15 {
          animation: keyframes15 0.69677734375s both;
          animation-delay: 9.5068359375s;
          animation-timing-function: linear;
        }
      
        @keyframes keyframes16 {
          from {
            stroke: blue;
            stroke-dashoffset: 1077;
            stroke-width: 128;
          }
          78% {
            animation-timing-function: step-end;
            stroke: blue;
            stroke-dashoffset: 0;
            stroke-width: 128;
          }
          to {
            stroke: black;
            stroke-width: 1024;
          }
        }
        #make-me-a-hanzi-animation-16 {
          animation: keyframes16 1.12646484375s both;
          animation-delay: 10.20361328125s;
          animation-timing-function: linear;
        }
      
        @keyframes keyframes17 {
          from {
            stroke: blue;
            stroke-dashoffset: 892;
            stroke-width: 128;
          }
          74% {
            animation-timing-function: step-end;
            stroke: blue;
            stroke-dashoffset: 0;
            stroke-width: 128;
          }
          to {
            stroke: black;
            stroke-width: 1024;
          }
        }
        #make-me-a-hanzi-animation-17 {
          animation: keyframes17 0.9759114583333334s both;
          animation-delay: 11.330078125s;
          animation-timing-function: linear;
        }
      
    </style>
    
      <path d="M 255 650 Q 276 678 299 712 Q 320 746 338 763 Q 347 772 343 784 Q 339 796 315 816 Q 293 832 276 833 Q 260 832 266 812 Q 284 770 196 640 Q 154 580 99 515 Q 89 506 87 501 Q 84 491 97 493 Q 128 497 234 623 L 255 650 Z" fill="lightgray"></path>
    
      <path d="M 276 408 Q 280 558 286 592 Q 292 616 261 645 Q 258 648 255 650 C 232 670 223 651 234 623 Q 258 572 229 424 Q 208 358 243 321 Q 256 309 265 329 Q 275 360 275 392 L 276 408 Z" fill="lightgray"></path>
    
      <path d="M 403 777 Q 422 765 443 750 Q 453 743 465 745 Q 472 746 474 756 Q 475 766 466 786 Q 454 804 394 808 Q 384 809 379 806 Q 376 803 379 795 Q 383 788 403 777 Z" fill="lightgray"></path>
    
      <path d="M 402 671 Q 483 692 488 696 Q 494 703 490 708 Q 486 715 464 720 Q 443 723 423 713 Q 398 703 372 696 Q 342 687 308 682 Q 283 678 301 666 Q 325 654 367 662 L 402 671 Z" fill="lightgray"></path>
    
      <path d="M 420 585 Q 483 604 484 606 Q 490 612 486 617 Q 482 624 462 627 Q 443 630 424 621 Q 423 621 422 620 L 375 604 Q 351 597 323 592 Q 299 588 317 577 Q 344 567 375 573 L 420 585 Z" fill="lightgray"></path>
    
      <path d="M 415 502 Q 490 523 492 526 Q 498 532 494 537 Q 490 544 470 547 Q 454 550 417 535 L 375 521 Q 353 517 331 512 Q 307 508 325 497 Q 346 488 375 491 L 415 502 Z" fill="lightgray"></path>
    
      <path d="M 412 442 Q 413 473 415 502 L 417 535 Q 418 562 420 585 L 422 620 Q 428 647 422 654 Q 412 664 402 671 C 378 689 357 690 367 662 Q 374 647 375 604 L 375 573 Q 375 552 375 521 L 375 491 Q 375 466 375 432 C 375 402 411 412 412 442 Z" fill="lightgray"></path>
    
      <path d="M 375 432 Q 327 422 276 408 C 252 401 252 401 275 392 Q 294 382 329 389 Q 419 419 516 418 Q 529 419 533 426 Q 536 433 523 442 Q 484 467 430 448 Q 421 447 412 442 L 375 432 Z" fill="lightgray"></path>
    
      <path d="M 569 717 Q 594 748 631 818 Q 635 825 638 828 Q 642 832 640 840 Q 639 846 628 853 Q 601 872 581 864 Q 575 863 578 853 Q 593 811 540 728 Q 527 704 488 657 Q 482 653 490 651 Q 514 658 549 694 L 569 717 Z" fill="lightgray"></path>
    
      <path d="M 602 457 Q 603 461 603 464 Q 597 623 601 659 Q 607 678 599 686 Q 575 714 569 717 C 546 736 531 718 549 694 Q 582 661 554 473 Q 539 449 565 402 Q 566 398 571 393 Q 584 381 593 401 Q 597 417 601 436 L 602 457 Z" fill="lightgray"></path>
    
      <path d="M 707 810 Q 723 797 739 782 Q 749 773 759 775 Q 766 775 770 784 Q 771 794 765 815 Q 756 833 703 842 Q 693 843 688 842 Q 684 839 686 831 Q 689 824 707 810 Z" fill="lightgray"></path>
    
      <path d="M 724 708 Q 760 718 799 726 Q 824 733 828 736 Q 834 742 830 748 Q 826 755 805 760 Q 783 764 763 755 Q 735 745 703 736 Q 669 727 628 722 Q 603 718 622 706 Q 652 690 690 701 L 724 708 Z" fill="lightgray"></path>
    
      <path d="M 744 624 Q 768 631 795 637 Q 817 643 820 646 Q 824 652 822 657 Q 818 664 798 668 Q 776 671 746 657 L 698 642 Q 671 638 643 632 Q 621 628 637 617 Q 665 605 699 612 L 744 624 Z" fill="lightgray"></path>
    
      <path d="M 739 544 Q 826 563 836 570 Q 840 574 838 581 Q 834 588 814 592 Q 798 595 741 575 L 699 564 Q 674 560 648 556 Q 624 552 641 541 Q 668 529 699 534 L 739 544 Z" fill="lightgray"></path>
    
      <path d="M 736 486 Q 737 517 739 544 L 741 575 Q 742 600 744 624 L 746 657 Q 752 684 746 690 Q 736 700 724 708 C 699 725 682 730 690 701 Q 697 677 698 642 L 699 612 Q 699 593 699 564 L 699 534 Q 699 509 699 478 C 699 448 735 456 736 486 Z" fill="lightgray"></path>
    
      <path d="M 699 478 Q 653 471 602 457 C 573 449 573 445 601 436 Q 617 427 668 438 Q 737 459 865 466 Q 875 466 886 467 Q 901 468 904 475 Q 908 484 895 493 Q 849 520 801 504 Q 773 498 736 486 L 699 478 Z" fill="lightgray"></path>
    
      <path d="M 556 150 Q 587 193 616 250 Q 632 278 654 295 Q 675 308 663 324 Q 651 337 620 353 Q 598 363 568 352 Q 534 339 487 326 Q 441 313 363 305 Q 350 304 345 298 Q 341 291 359 283 Q 395 270 443 284 Q 534 312 550 310 Q 566 303 557 286 Q 538 226 509 179 L 488 149 Q 398 44 190 -4 Q 174 -7 186 -17 Q 193 -21 249 -19 Q 319 -15 399 21 Q 477 54 531 118 L 556 150 Z" fill="lightgray"></path>
    
      <path d="M 531 118 Q 732 -32 746 -37 Q 768 -41 883 -17 Q 917 -8 929 -1 Q 947 8 929 14 Q 908 23 777 43 Q 717 53 556 150 L 509 179 Q 404 246 367 239 Q 358 239 351 236 Q 339 235 339 227 Q 340 220 352 218 Q 397 218 488 149 L 531 118 Z" fill="lightgray"></path>
    
    
      <clipPath id="make-me-a-hanzi-clip-0">
        <path d="M 255 650 Q 276 678 299 712 Q 320 746 338 763 Q 347 772 343 784 Q 339 796 315 816 Q 293 832 276 833 Q 260 832 266 812 Q 284 770 196 640 Q 154 580 99 515 Q 89 506 87 501 Q 84 491 97 493 Q 128 497 234 623 L 255 650 Z"></path>
      </clipPath>
      <path clip-path="url(#make-me-a-hanzi-clip-0)" d="M 276 820 L 295 800 L 303 778 L 274 720 L 212 624 L 133 532 L 95 500" fill="none" id="make-me-a-hanzi-animation-0" stroke-dasharray="529 1058" stroke-linecap="round"></path>
    
      <clipPath id="make-me-a-hanzi-clip-1">
        <path d="M 276 408 Q 280 558 286 592 Q 292 616 261 645 Q 258 648 255 650 C 232 670 223 651 234 623 Q 258 572 229 424 Q 208 358 243 321 Q 256 309 265 329 Q 275 360 275 392 L 276 408 Z"></path>
      </clipPath>
      <path clip-path="url(#make-me-a-hanzi-clip-1)" d="M 254 643 L 264 599 L 264 551 L 247 380 L 252 329" fill="none" id="make-me-a-hanzi-animation-1" stroke-dasharray="444 888" stroke-linecap="round"></path>
    
      <clipPath id="make-me-a-hanzi-clip-2">
        <path d="M 403 777 Q 422 765 443 750 Q 453 743 465 745 Q 472 746 474 756 Q 475 766 466 786 Q 454 804 394 808 Q 384 809 379 806 Q 376 803 379 795 Q 383 788 403 777 Z"></path>
      </clipPath>
      <path clip-path="url(#make-me-a-hanzi-clip-2)" d="M 387 801 L 436 781 L 460 759" fill="none" id="make-me-a-hanzi-animation-2" stroke-dasharray="213 426" stroke-linecap="round"></path>
    
      <clipPath id="make-me-a-hanzi-clip-3">
        <path d="M 402 671 Q 483 692 488 696 Q 494 703 490 708 Q 486 715 464 720 Q 443 723 423 713 Q 398 703 372 696 Q 342 687 308 682 Q 283 678 301 666 Q 325 654 367 662 L 402 671 Z"></path>
      </clipPath>
      <path clip-path="url(#make-me-a-hanzi-clip-3)" d="M 303 675 L 357 675 L 446 702 L 482 703" fill="none" id="make-me-a-hanzi-animation-3" stroke-dasharray="311 622" stroke-linecap="round"></path>
    
      <clipPath id="make-me-a-hanzi-clip-4">
        <path d="M 420 585 Q 483 604 484 606 Q 490 612 486 617 Q 482 624 462 627 Q 443 630 424 621 Q 423 621 422 620 L 375 604 Q 351 597 323 592 Q 299 588 317 577 Q 344 567 375 573 L 420 585 Z"></path>
      </clipPath>
      <path clip-path="url(#make-me-a-hanzi-clip-4)" d="M 318 585 L 366 585 L 455 613 L 479 613" fill="none" id="make-me-a-hanzi-animation-4" stroke-dasharray="293 586" stroke-linecap="round"></path>
    
      <clipPath id="make-me-a-hanzi-clip-5">
        <path d="M 415 502 Q 490 523 492 526 Q 498 532 494 537 Q 490 544 470 547 Q 454 550 417 535 L 375 521 Q 353 517 331 512 Q 307 508 325 497 Q 346 488 375 491 L 415 502 Z"></path>
      </clipPath>
      <path clip-path="url(#make-me-a-hanzi-clip-5)" d="M 326 505 L 367 504 L 457 531 L 487 533" fill="none" id="make-me-a-hanzi-animation-5" stroke-dasharray="293 586" stroke-linecap="round"></path>
    
      <clipPath id="make-me-a-hanzi-clip-6">
        <path d="M 412 442 Q 413 473 415 502 L 417 535 Q 418 562 420 585 L 422 620 Q 428 647 422 654 Q 412 664 402 671 C 378 689 357 690 367 662 Q 374 647 375 604 L 375 573 Q 375 552 375 521 L 375 491 Q 375 466 375 432 C 375 402 411 412 412 442 Z"></path>
      </clipPath>
      <path clip-path="url(#make-me-a-hanzi-clip-6)" d="M 374 659 L 399 641 L 395 466 L 390 450 L 379 440" fill="none" id="make-me-a-hanzi-animation-6" stroke-dasharray="365 730" stroke-linecap="round"></path>
    
      <clipPath id="make-me-a-hanzi-clip-7">
        <path d="M 375 432 Q 327 422 276 408 C 252 401 252 401 275 392 Q 294 382 329 389 Q 419 419 516 418 Q 529 419 533 426 Q 536 433 523 442 Q 484 467 430 448 Q 421 447 412 442 L 375 432 Z"></path>
      </clipPath>
      <path clip-path="url(#make-me-a-hanzi-clip-7)" d="M 282 396 L 458 435 L 497 436 L 525 429" fill="none" id="make-me-a-hanzi-animation-7" stroke-dasharray="376 752" stroke-linecap="round"></path>
    
      <clipPath id="make-me-a-hanzi-clip-8">
        <path d="M 569 717 Q 594 748 631 818 Q 635 825 638 828 Q 642 832 640 840 Q 639 846 628 853 Q 601 872 581 864 Q 575 863 578 853 Q 593 811 540 728 Q 527 704 488 657 Q 482 653 490 651 Q 514 658 549 694 L 569 717 Z"></path>
      </clipPath>
      <path clip-path="url(#make-me-a-hanzi-clip-8)" d="M 588 856 L 609 834 L 593 787 L 554 720 L 523 682 L 502 663 L 495 664 L 494 656" fill="none" id="make-me-a-hanzi-animation-8" stroke-dasharray="378 756" stroke-linecap="round"></path>
    
      <clipPath id="make-me-a-hanzi-clip-9">
        <path d="M 602 457 Q 603 461 603 464 Q 597 623 601 659 Q 607 678 599 686 Q 575 714 569 717 C 546 736 531 718 549 694 Q 582 661 554 473 Q 539 449 565 402 Q 566 398 571 393 Q 584 381 593 401 Q 597 417 601 436 L 602 457 Z"></path>
      </clipPath>
      <path clip-path="url(#make-me-a-hanzi-clip-9)" d="M 567 709 L 583 670 L 583 540 L 575 453 L 580 401" fill="none" id="make-me-a-hanzi-animation-9" stroke-dasharray="440 880" stroke-linecap="round"></path>
    
      <clipPath id="make-me-a-hanzi-clip-10">
        <path d="M 707 810 Q 723 797 739 782 Q 749 773 759 775 Q 766 775 770 784 Q 771 794 765 815 Q 756 833 703 842 Q 693 843 688 842 Q 684 839 686 831 Q 689 824 707 810 Z"></path>
      </clipPath>
      <path clip-path="url(#make-me-a-hanzi-clip-10)" d="M 696 835 L 736 812 L 756 790" fill="none" id="make-me-a-hanzi-animation-10" stroke-dasharray="204 408" stroke-linecap="round"></path>
    
      <clipPath id="make-me-a-hanzi-clip-11">
        <path d="M 724 708 Q 760 718 799 726 Q 824 733 828 736 Q 834 742 830 748 Q 826 755 805 760 Q 783 764 763 755 Q 735 745 703 736 Q 669 727 628 722 Q 603 718 622 706 Q 652 690 690 701 L 724 708 Z"></path>
      </clipPath>
      <path clip-path="url(#make-me-a-hanzi-clip-11)" d="M 623 715 L 667 712 L 761 737 L 820 744" fill="none" id="make-me-a-hanzi-animation-11" stroke-dasharray="329 658" stroke-linecap="round"></path>
    
      <clipPath id="make-me-a-hanzi-clip-12">
        <path d="M 744 624 Q 768 631 795 637 Q 817 643 820 646 Q 824 652 822 657 Q 818 664 798 668 Q 776 671 746 657 L 698 642 Q 671 638 643 632 Q 621 628 637 617 Q 665 605 699 612 L 744 624 Z"></path>
      </clipPath>
      <path clip-path="url(#make-me-a-hanzi-clip-12)" d="M 639 625 L 689 624 L 771 649 L 812 653" fill="none" id="make-me-a-hanzi-animation-12" stroke-dasharray="305 610" stroke-linecap="round"></path>
    
      <clipPath id="make-me-a-hanzi-clip-13">
        <path d="M 739 544 Q 826 563 836 570 Q 840 574 838 581 Q 834 588 814 592 Q 798 595 741 575 L 699 564 Q 674 560 648 556 Q 624 552 641 541 Q 668 529 699 534 L 739 544 Z"></path>
      </clipPath>
      <path clip-path="url(#make-me-a-hanzi-clip-13)" d="M 643 549 L 690 547 L 791 574 L 830 577" fill="none" id="make-me-a-hanzi-animation-13" stroke-dasharray="319 638" stroke-linecap="round"></path>
    
      <clipPath id="make-me-a-hanzi-clip-14">
        <path d="M 736 486 Q 737 517 739 544 L 741 575 Q 742 600 744 624 L 746 657 Q 752 684 746 690 Q 736 700 724 708 C 699 725 682 730 690 701 Q 697 677 698 642 L 699 612 Q 699 593 699 564 L 699 534 Q 699 509 699 478 C 699 448 735 456 736 486 Z"></path>
      </clipPath>
      <path clip-path="url(#make-me-a-hanzi-clip-14)" d="M 697 696 L 722 676 L 719 509 L 704 486" fill="none" id="make-me-a-hanzi-animation-14" stroke-dasharray="355 710" stroke-linecap="round"></path>
    
      <clipPath id="make-me-a-hanzi-clip-15">
        <path d="M 699 478 Q 653 471 602 457 C 573 449 573 445 601 436 Q 617 427 668 438 Q 737 459 865 466 Q 875 466 886 467 Q 901 468 904 475 Q 908 484 895 493 Q 849 520 801 504 Q 773 498 736 486 L 699 478 Z"></path>
      </clipPath>
      <path clip-path="url(#make-me-a-hanzi-clip-15)" d="M 607 441 L 827 487 L 895 479" fill="none" id="make-me-a-hanzi-animation-15" stroke-dasharray="421 842" stroke-linecap="round"></path>
    
      <clipPath id="make-me-a-hanzi-clip-16">
        <path d="M 556 150 Q 587 193 616 250 Q 632 278 654 295 Q 675 308 663 324 Q 651 337 620 353 Q 598 363 568 352 Q 534 339 487 326 Q 441 313 363 305 Q 350 304 345 298 Q 341 291 359 283 Q 395 270 443 284 Q 534 312 550 310 Q 566 303 557 286 Q 538 226 509 179 L 488 149 Q 398 44 190 -4 Q 174 -7 186 -17 Q 193 -21 249 -19 Q 319 -15 399 21 Q 477 54 531 118 L 556 150 Z"></path>
      </clipPath>
      <path clip-path="url(#make-me-a-hanzi-clip-16)" d="M 352 296 L 417 294 L 556 328 L 584 323 L 604 310 L 571 231 L 531 161 L 507 129 L 456 82 L 408 52 L 324 14 L 236 -9 L 191 -11" fill="none" id="make-me-a-hanzi-animation-16" stroke-dasharray="949 1898" stroke-linecap="round"></path>
    
      <clipPath id="make-me-a-hanzi-clip-17">
        <path d="M 531 118 Q 732 -32 746 -37 Q 768 -41 883 -17 Q 917 -8 929 -1 Q 947 8 929 14 Q 908 23 777 43 Q 717 53 556 150 L 509 179 Q 404 246 367 239 Q 358 239 351 236 Q 339 235 339 227 Q 340 220 352 218 Q 397 218 488 149 L 531 118 Z"></path>
      </clipPath>
      <path clip-path="url(#make-me-a-hanzi-clip-17)" d="M 349 227 L 387 225 L 438 202 L 620 82 L 758 4 L 923 7" fill="none" id="make-me-a-hanzi-animation-17" stroke-dasharray="764 1528" stroke-linecap="round"></path>
    
  </g>
</svg>