<svg version="1.1" viewBox="0 0 1024 1024" xmlns="http://www.w3.org/2000/svg">
  <g stroke="lightgray" stroke-dasharray="1,1" stroke-width="1" transform="scale(4, 4)">
    <line x1="0" y1="0" x2="256" y2="256"></line>
    <line x1="256" y1="0" x2="0" y2="256"></line>
    <line x1="128" y1="0" x2="128" y2="256"></line>
    <line x1="0" y1="128" x2="256" y2="128"></line>
  </g>
  <g transform="scale(1, -1) translate(0, -900)">
    <style type="text/css">
      
        @keyframes keyframes0 {
          from {
            stroke: blue;
            stroke-dashoffset: 537;
            stroke-width: 128;
          }
          64% {
            animation-timing-function: step-end;
            stroke: blue;
            stroke-dashoffset: 0;
            stroke-width: 128;
          }
          to {
            stroke: black;
            stroke-width: 1024;
          }
        }
        #make-me-a-hanzi-animation-0 {
          animation: keyframes0 0.68701171875s both;
          animation-delay: 0s;
          animation-timing-function: linear;
        }
      
        @keyframes keyframes1 {
          from {
            stroke: blue;
            stroke-dashoffset: 407;
            stroke-width: 128;
          }
          57% {
            animation-timing-function: step-end;
            stroke: blue;
            stroke-dashoffset: 0;
            stroke-width: 128;
          }
          to {
            stroke: black;
            stroke-width: 1024;
          }
        }
        #make-me-a-hanzi-animation-1 {
          animation: keyframes1 0.5812174479166666s both;
          animation-delay: 0.68701171875s;
          animation-timing-function: linear;
        }
      
        @keyframes keyframes2 {
          from {
            stroke: blue;
            stroke-dashoffset: 425;
            stroke-width: 128;
          }
          58% {
            animation-timing-function: step-end;
            stroke: blue;
            stroke-dashoffset: 0;
            stroke-width: 128;
          }
          to {
            stroke: black;
            stroke-width: 1024;
          }
        }
        #make-me-a-hanzi-animation-2 {
          animation: keyframes2 0.5958658854166666s both;
          animation-delay: 1.2682291666666665s;
          animation-timing-function: linear;
        }
      
        @keyframes keyframes3 {
          from {
            stroke: blue;
            stroke-dashoffset: 520;
            stroke-width: 128;
          }
          63% {
            animation-timing-function: step-end;
            stroke: blue;
            stroke-dashoffset: 0;
            stroke-width: 128;
          }
          to {
            stroke: black;
            stroke-width: 1024;
          }
        }
        #make-me-a-hanzi-animation-3 {
          animation: keyframes3 0.6731770833333334s both;
          animation-delay: 1.864095052083333s;
          animation-timing-function: linear;
        }
      
        @keyframes keyframes4 {
          from {
            stroke: blue;
            stroke-dashoffset: 412;
            stroke-width: 128;
          }
          57% {
            animation-timing-function: step-end;
            stroke: blue;
            stroke-dashoffset: 0;
            stroke-width: 128;
          }
          to {
            stroke: black;
            stroke-width: 1024;
          }
        }
        #make-me-a-hanzi-animation-4 {
          animation: keyframes4 0.5852864583333334s both;
          animation-delay: 2.5372721354166665s;
          animation-timing-function: linear;
        }
      
        @keyframes keyframes5 {
          from {
            stroke: blue;
            stroke-dashoffset: 410;
            stroke-width: 128;
          }
          57% {
            animation-timing-function: step-end;
            stroke: blue;
            stroke-dashoffset: 0;
            stroke-width: 128;
          }
          to {
            stroke: black;
            stroke-width: 1024;
          }
        }
        #make-me-a-hanzi-animation-5 {
          animation: keyframes5 0.5836588541666666s both;
          animation-delay: 3.12255859375s;
          animation-timing-function: linear;
        }
      
        @keyframes keyframes6 {
          from {
            stroke: blue;
            stroke-dashoffset: 1132;
            stroke-width: 128;
          }
          79% {
            animation-timing-function: step-end;
            stroke: blue;
            stroke-dashoffset: 0;
            stroke-width: 128;
          }
          to {
            stroke: black;
            stroke-width: 1024;
          }
        }
        #make-me-a-hanzi-animation-6 {
          animation: keyframes6 1.1712239583333333s both;
          animation-delay: 3.7062174479166665s;
          animation-timing-function: linear;
        }
      
        @keyframes keyframes7 {
          from {
            stroke: blue;
            stroke-dashoffset: 643;
            stroke-width: 128;
          }
          68% {
            animation-timing-function: step-end;
            stroke: blue;
            stroke-dashoffset: 0;
            stroke-width: 128;
          }
          to {
            stroke: black;
            stroke-width: 1024;
          }
        }
        #make-me-a-hanzi-animation-7 {
          animation: keyframes7 0.7732747395833334s both;
          animation-delay: 4.87744140625s;
          animation-timing-function: linear;
        }
      
        @keyframes keyframes8 {
          from {
            stroke: blue;
            stroke-dashoffset: 392;
            stroke-width: 128;
          }
          56% {
            animation-timing-function: step-end;
            stroke: blue;
            stroke-dashoffset: 0;
            stroke-width: 128;
          }
          to {
            stroke: black;
            stroke-width: 1024;
          }
        }
        #make-me-a-hanzi-animation-8 {
          animation: keyframes8 0.5690104166666666s both;
          animation-delay: 5.650716145833333s;
          animation-timing-function: linear;
        }
      
        @keyframes keyframes9 {
          from {
            stroke: blue;
            stroke-dashoffset: 638;
            stroke-width: 128;
          }
          67% {
            animation-timing-function: step-end;
            stroke: blue;
            stroke-dashoffset: 0;
            stroke-width: 128;
          }
          to {
            stroke: black;
            stroke-width: 1024;
          }
        }
        #make-me-a-hanzi-animation-9 {
          animation: keyframes9 0.7692057291666666s both;
          animation-delay: 6.2197265625s;
          animation-timing-function: linear;
        }
      
        @keyframes keyframes10 {
          from {
            stroke: blue;
            stroke-dashoffset: 900;
            stroke-width: 128;
          }
          75% {
            animation-timing-function: step-end;
            stroke: blue;
            stroke-dashoffset: 0;
            stroke-width: 128;
          }
          to {
            stroke: black;
            stroke-width: 1024;
          }
        }
        #make-me-a-hanzi-animation-10 {
          animation: keyframes10 0.982421875s both;
          animation-delay: 6.988932291666667s;
          animation-timing-function: linear;
        }
      
        @keyframes keyframes11 {
          from {
            stroke: blue;
            stroke-dashoffset: 403;
            stroke-width: 128;
          }
          57% {
            animation-timing-function: step-end;
            stroke: blue;
            stroke-dashoffset: 0;
            stroke-width: 128;
          }
          to {
            stroke: black;
            stroke-width: 1024;
          }
        }
        #make-me-a-hanzi-animation-11 {
          animation: keyframes11 0.5779622395833334s both;
          animation-delay: 7.971354166666667s;
          animation-timing-function: linear;
        }
      
        @keyframes keyframes12 {
          from {
            stroke: blue;
            stroke-dashoffset: 404;
            stroke-width: 128;
          }
          57% {
            animation-timing-function: step-end;
            stroke: blue;
            stroke-dashoffset: 0;
            stroke-width: 128;
          }
          to {
            stroke: black;
            stroke-width: 1024;
          }
        }
        #make-me-a-hanzi-animation-12 {
          animation: keyframes12 0.5787760416666666s both;
          animation-delay: 8.54931640625s;
          animation-timing-function: linear;
        }
      
        @keyframes keyframes13 {
          from {
            stroke: blue;
            stroke-dashoffset: 447;
            stroke-width: 128;
          }
          59% {
            animation-timing-function: step-end;
            stroke: blue;
            stroke-dashoffset: 0;
            stroke-width: 128;
          }
          to {
            stroke: black;
            stroke-width: 1024;
          }
        }
        #make-me-a-hanzi-animation-13 {
          animation: keyframes13 0.61376953125s both;
          animation-delay: 9.128092447916666s;
          animation-timing-function: linear;
        }
      
        @keyframes keyframes14 {
          from {
            stroke: blue;
            stroke-dashoffset: 541;
            stroke-width: 128;
          }
          64% {
            animation-timing-function: step-end;
            stroke: blue;
            stroke-dashoffset: 0;
            stroke-width: 128;
          }
          to {
            stroke: black;
            stroke-width: 1024;
          }
        }
        #make-me-a-hanzi-animation-14 {
          animation: keyframes14 0.6902669270833334s both;
          animation-delay: 9.741861979166666s;
          animation-timing-function: linear;
        }
      
        @keyframes keyframes15 {
          from {
            stroke: blue;
            stroke-dashoffset: 484;
            stroke-width: 128;
          }
          61% {
            animation-timing-function: step-end;
            stroke: blue;
            stroke-dashoffset: 0;
            stroke-width: 128;
          }
          to {
            stroke: black;
            stroke-width: 1024;
          }
        }
        #make-me-a-hanzi-animation-15 {
          animation: keyframes15 0.6438802083333334s both;
          animation-delay: 10.43212890625s;
          animation-timing-function: linear;
        }
      
    </style>
    
      <path d="M 335 723 Q 458 756 460 758 Q 467 765 463 773 Q 456 783 429 790 Q 401 794 375 782 Q 335 767 290 754 Q 241 741 183 734 Q 179 734 176 732 C 147 725 159 713 188 707 Q 221 698 302 715 L 335 723 Z" fill="lightgray"></path>
    
      <path d="M 345 582 Q 360 696 361 698 L 360 699 Q 348 714 335 723 C 311 741 295 744 302 715 Q 306 711 306 570 C 306 540 341 552 345 582 Z" fill="lightgray"></path>
    
      <path d="M 257 559 Q 248 563 225 568 Q 215 571 212 567 Q 208 563 213 550 Q 212 550 213 549 Q 213 548 216 544 Q 234 504 245 439 Q 248 420 259 405 Q 272 389 277 400 Q 278 407 280 415 L 279 443 Q 270 513 267 536 C 264 556 264 556 257 559 Z" fill="lightgray"></path>
    
      <path d="M 417 471 Q 433 523 451 539 Q 470 560 452 573 Q 436 583 412 599 Q 396 609 380 600 Q 364 590 345 582 L 306 570 Q 284 566 257 559 C 228 552 239 526 267 536 Q 267 537 268 537 Q 314 549 353 558 Q 380 565 386 554 Q 389 551 369 468 C 362 439 408 442 417 471 Z" fill="lightgray"></path>
    
      <path d="M 332 426 Q 372 436 432 443 Q 439 444 441 452 Q 441 458 417 471 C 404 478 398 476 369 468 Q 317 453 279 443 C 250 435 252 405 280 415 Q 286 418 302 420 L 332 426 Z" fill="lightgray"></path>
    
      <path d="M 342 278 Q 355 371 358 377 Q 365 392 359 400 Q 346 416 332 426 C 308 444 291 448 302 420 Q 303 416 306 411 Q 307 398 302 268 C 301 238 338 248 342 278 Z" fill="lightgray"></path>
    
      <path d="M 176 732 Q 166 739 144 751 Q 125 761 117 754 Q 110 747 118 733 Q 160 652 132 289 Q 132 252 112 218 Q 103 203 112 184 Q 121 165 131 157 Q 141 150 156 163 Q 229 226 465 254 Q 487 255 488 267 Q 487 280 457 297 Q 441 307 411 297 Q 374 287 342 278 L 302 268 Q 253 259 199 241 Q 190 238 185 241 Q 181 242 179 256 Q 183 422 183 633 Q 183 675 188 707 C 190 724 190 724 176 732 Z" fill="lightgray"></path>
    
      <path d="M 658 719 Q 742 735 834 751 Q 889 763 898 770 Q 907 777 902 785 Q 896 795 870 804 Q 845 810 745 779 Q 624 752 517 741 Q 483 737 507 721 Q 543 697 608 710 L 658 719 Z" fill="lightgray"></path>
    
      <path d="M 608 597 Q 612 604 617 610 Q 632 629 648 654 Q 655 664 667 678 Q 680 688 674 699 Q 668 709 658 719 C 637 741 609 740 608 710 Q 608 686 582 613 Q 575 603 573 592 C 566 563 592 571 608 597 Z" fill="lightgray"></path>
    
      <path d="M 554 589 Q 545 596 532 601 Q 523 605 513 601 Q 507 597 512 586 Q 513 579 517 571 Q 538 535 527 342 Q 515 267 517 257 Q 526 233 539 217 Q 549 205 558 216 Q 562 223 565 231 L 569 259 Q 570 284 571 359 L 571 377 Q 571 426 571 459 L 572 482 Q 572 540 574 547 Q 575 559 574 565 C 574 576 574 576 554 589 Z" fill="lightgray"></path>
    
      <path d="M 765 246 Q 766 236 774 222 Q 789 194 798 194 Q 813 195 828 229 Q 844 254 841 276 Q 810 510 851 575 Q 861 591 853 599 Q 828 621 782 640 Q 767 644 746 637 Q 704 618 608 597 L 573 592 Q 563 592 554 589 C 524 584 544 562 574 565 Q 581 564 590 566 Q 672 588 731 600 Q 750 604 759 594 Q 775 573 775 504 Q 778 306 768 268 Q 767 267 767 266 C 764 250 764 250 765 246 Z" fill="lightgray"></path>
    
      <path d="M 571 459 Q 596 455 684 467 Q 720 473 727 476 Q 733 482 730 488 Q 726 495 705 502 Q 692 505 623 489 Q 599 485 572 482 C 542 479 541 462 571 459 Z" fill="lightgray"></path>
    
      <path d="M 571 359 Q 592 349 668 360 Q 686 364 707 367 Q 723 370 727 372 Q 733 378 730 384 Q 726 391 705 397 Q 695 400 623 384 Q 601 380 573 378 Q 572 378 571 377 C 542 370 543 369 571 359 Z" fill="lightgray"></path>
    
      <path d="M 565 231 Q 571 230 580 231 Q 637 240 765 246 C 788 247 788 247 767 266 Q 761 272 750 280 Q 737 287 710 283 Q 632 268 569 259 C 539 255 535 233 565 231 Z" fill="lightgray"></path>
    
      <path d="M 566 181 Q 548 118 378 11 Q 356 -1 383 -1 Q 453 -5 578 96 Q 581 102 632 138 Q 644 148 642 158 Q 641 171 617 182 Q 590 195 578 194 Q 571 193 566 181 Z" fill="lightgray"></path>
    
      <path d="M 718 143 Q 770 85 831 3 Q 844 -19 860 -25 Q 869 -26 877 -18 Q 892 -5 883 40 Q 874 103 723 175 Q 714 181 711 169 Q 710 156 718 143 Z" fill="lightgray"></path>
    
    
      <clipPath id="make-me-a-hanzi-clip-0">
        <path d="M 335 723 Q 458 756 460 758 Q 467 765 463 773 Q 456 783 429 790 Q 401 794 375 782 Q 335 767 290 754 Q 241 741 183 734 Q 179 734 176 732 C 147 725 159 713 188 707 Q 221 698 302 715 L 335 723 Z"></path>
      </clipPath>
      <path clip-path="url(#make-me-a-hanzi-clip-0)" d="M 181 727 L 204 720 L 254 725 L 343 745 L 400 766 L 455 767" fill="none" id="make-me-a-hanzi-animation-0" stroke-dasharray="409 818" stroke-linecap="round"></path>
    
      <clipPath id="make-me-a-hanzi-clip-1">
        <path d="M 345 582 Q 360 696 361 698 L 360 699 Q 348 714 335 723 C 311 741 295 744 302 715 Q 306 711 306 570 C 306 540 341 552 345 582 Z"></path>
      </clipPath>
      <path clip-path="url(#make-me-a-hanzi-clip-1)" d="M 308 716 L 332 689 L 328 600 L 309 583" fill="none" id="make-me-a-hanzi-animation-1" stroke-dasharray="279 558" stroke-linecap="round"></path>
    
      <clipPath id="make-me-a-hanzi-clip-2">
        <path d="M 257 559 Q 248 563 225 568 Q 215 571 212 567 Q 208 563 213 550 Q 212 550 213 549 Q 213 548 216 544 Q 234 504 245 439 Q 248 420 259 405 Q 272 389 277 400 Q 278 407 280 415 L 279 443 Q 270 513 267 536 C 264 556 264 556 257 559 Z"></path>
      </clipPath>
      <path clip-path="url(#make-me-a-hanzi-clip-2)" d="M 219 562 L 241 542 L 246 529 L 269 406" fill="none" id="make-me-a-hanzi-animation-2" stroke-dasharray="297 594" stroke-linecap="round"></path>
    
      <clipPath id="make-me-a-hanzi-clip-3">
        <path d="M 417 471 Q 433 523 451 539 Q 470 560 452 573 Q 436 583 412 599 Q 396 609 380 600 Q 364 590 345 582 L 306 570 Q 284 566 257 559 C 228 552 239 526 267 536 Q 267 537 268 537 Q 314 549 353 558 Q 380 565 386 554 Q 389 551 369 468 C 362 439 408 442 417 471 Z"></path>
      </clipPath>
      <path clip-path="url(#make-me-a-hanzi-clip-3)" d="M 265 556 L 274 550 L 385 580 L 405 573 L 420 554 L 416 542 L 398 492 L 374 480" fill="none" id="make-me-a-hanzi-animation-3" stroke-dasharray="392 784" stroke-linecap="round"></path>
    
      <clipPath id="make-me-a-hanzi-clip-4">
        <path d="M 332 426 Q 372 436 432 443 Q 439 444 441 452 Q 441 458 417 471 C 404 478 398 476 369 468 Q 317 453 279 443 C 250 435 252 405 280 415 Q 286 418 302 420 L 332 426 Z"></path>
      </clipPath>
      <path clip-path="url(#make-me-a-hanzi-clip-4)" d="M 282 422 L 303 435 L 365 451 L 412 456 L 432 452" fill="none" id="make-me-a-hanzi-animation-4" stroke-dasharray="284 568" stroke-linecap="round"></path>
    
      <clipPath id="make-me-a-hanzi-clip-5">
        <path d="M 342 278 Q 355 371 358 377 Q 365 392 359 400 Q 346 416 332 426 C 308 444 291 448 302 420 Q 303 416 306 411 Q 307 398 302 268 C 301 238 338 248 342 278 Z"></path>
      </clipPath>
      <path clip-path="url(#make-me-a-hanzi-clip-5)" d="M 310 418 L 333 389 L 325 296 L 306 282" fill="none" id="make-me-a-hanzi-animation-5" stroke-dasharray="282 564" stroke-linecap="round"></path>
    
      <clipPath id="make-me-a-hanzi-clip-6">
        <path d="M 176 732 Q 166 739 144 751 Q 125 761 117 754 Q 110 747 118 733 Q 160 652 132 289 Q 132 252 112 218 Q 103 203 112 184 Q 121 165 131 157 Q 141 150 156 163 Q 229 226 465 254 Q 487 255 488 267 Q 487 280 457 297 Q 441 307 411 297 Q 374 287 342 278 L 302 268 Q 253 259 199 241 Q 190 238 185 241 Q 181 242 179 256 Q 183 422 183 633 Q 183 675 188 707 C 190 724 190 724 176 732 Z"></path>
      </clipPath>
      <path clip-path="url(#make-me-a-hanzi-clip-6)" d="M 125 746 L 155 713 L 160 689 L 163 473 L 155 213 L 182 213 L 257 237 L 437 277 L 477 268" fill="none" id="make-me-a-hanzi-animation-6" stroke-dasharray="1004 2008" stroke-linecap="round"></path>
    
      <clipPath id="make-me-a-hanzi-clip-7">
        <path d="M 658 719 Q 742 735 834 751 Q 889 763 898 770 Q 907 777 902 785 Q 896 795 870 804 Q 845 810 745 779 Q 624 752 517 741 Q 483 737 507 721 Q 543 697 608 710 L 658 719 Z"></path>
      </clipPath>
      <path clip-path="url(#make-me-a-hanzi-clip-7)" d="M 509 732 L 565 725 L 850 780 L 890 780" fill="none" id="make-me-a-hanzi-animation-7" stroke-dasharray="515 1030" stroke-linecap="round"></path>
    
      <clipPath id="make-me-a-hanzi-clip-8">
        <path d="M 608 597 Q 612 604 617 610 Q 632 629 648 654 Q 655 664 667 678 Q 680 688 674 699 Q 668 709 658 719 C 637 741 609 740 608 710 Q 608 686 582 613 Q 575 603 573 592 C 566 563 592 571 608 597 Z"></path>
      </clipPath>
      <path clip-path="url(#make-me-a-hanzi-clip-8)" d="M 654 706 L 632 680 L 600 613 L 578 596" fill="none" id="make-me-a-hanzi-animation-8" stroke-dasharray="264 528" stroke-linecap="round"></path>
    
      <clipPath id="make-me-a-hanzi-clip-9">
        <path d="M 554 589 Q 545 596 532 601 Q 523 605 513 601 Q 507 597 512 586 Q 513 579 517 571 Q 538 535 527 342 Q 515 267 517 257 Q 526 233 539 217 Q 549 205 558 216 Q 562 223 565 231 L 569 259 Q 570 284 571 359 L 571 377 Q 571 426 571 459 L 572 482 Q 572 540 574 547 Q 575 559 574 565 C 574 576 574 576 554 589 Z"></path>
      </clipPath>
      <path clip-path="url(#make-me-a-hanzi-clip-9)" d="M 520 593 L 538 575 L 549 553 L 551 385 L 543 259 L 549 222" fill="none" id="make-me-a-hanzi-animation-9" stroke-dasharray="510 1020" stroke-linecap="round"></path>
    
      <clipPath id="make-me-a-hanzi-clip-10">
        <path d="M 765 246 Q 766 236 774 222 Q 789 194 798 194 Q 813 195 828 229 Q 844 254 841 276 Q 810 510 851 575 Q 861 591 853 599 Q 828 621 782 640 Q 767 644 746 637 Q 704 618 608 597 L 573 592 Q 563 592 554 589 C 524 584 544 562 574 565 Q 581 564 590 566 Q 672 588 731 600 Q 750 604 759 594 Q 775 573 775 504 Q 778 306 768 268 Q 767 267 767 266 C 764 250 764 250 765 246 Z"></path>
      </clipPath>
      <path clip-path="url(#make-me-a-hanzi-clip-10)" d="M 560 584 L 595 580 L 758 619 L 779 613 L 808 580 L 800 443 L 806 281 L 799 205" fill="none" id="make-me-a-hanzi-animation-10" stroke-dasharray="772 1544" stroke-linecap="round"></path>
    
      <clipPath id="make-me-a-hanzi-clip-11">
        <path d="M 571 459 Q 596 455 684 467 Q 720 473 727 476 Q 733 482 730 488 Q 726 495 705 502 Q 692 505 623 489 Q 599 485 572 482 C 542 479 541 462 571 459 Z"></path>
      </clipPath>
      <path clip-path="url(#make-me-a-hanzi-clip-11)" d="M 575 465 L 686 485 L 720 484" fill="none" id="make-me-a-hanzi-animation-11" stroke-dasharray="275 550" stroke-linecap="round"></path>
    
      <clipPath id="make-me-a-hanzi-clip-12">
        <path d="M 571 359 Q 592 349 668 360 Q 686 364 707 367 Q 723 370 727 372 Q 733 378 730 384 Q 726 391 705 397 Q 695 400 623 384 Q 601 380 573 378 Q 572 378 571 377 C 542 370 543 369 571 359 Z"></path>
      </clipPath>
      <path clip-path="url(#make-me-a-hanzi-clip-12)" d="M 575 373 L 606 367 L 688 381 L 721 380" fill="none" id="make-me-a-hanzi-animation-12" stroke-dasharray="276 552" stroke-linecap="round"></path>
    
      <clipPath id="make-me-a-hanzi-clip-13">
        <path d="M 565 231 Q 571 230 580 231 Q 637 240 765 246 C 788 247 788 247 767 266 Q 761 272 750 280 Q 737 287 710 283 Q 632 268 569 259 C 539 255 535 233 565 231 Z"></path>
      </clipPath>
      <path clip-path="url(#make-me-a-hanzi-clip-13)" d="M 573 237 L 582 246 L 705 263 L 745 263 L 754 252" fill="none" id="make-me-a-hanzi-animation-13" stroke-dasharray="319 638" stroke-linecap="round"></path>
    
      <clipPath id="make-me-a-hanzi-clip-14">
        <path d="M 566 181 Q 548 118 378 11 Q 356 -1 383 -1 Q 453 -5 578 96 Q 581 102 632 138 Q 644 148 642 158 Q 641 171 617 182 Q 590 195 578 194 Q 571 193 566 181 Z"></path>
      </clipPath>
      <path clip-path="url(#make-me-a-hanzi-clip-14)" d="M 623 156 L 593 154 L 553 110 L 491 61 L 429 23 L 388 8" fill="none" id="make-me-a-hanzi-animation-14" stroke-dasharray="413 826" stroke-linecap="round"></path>
    
      <clipPath id="make-me-a-hanzi-clip-15">
        <path d="M 718 143 Q 770 85 831 3 Q 844 -19 860 -25 Q 869 -26 877 -18 Q 892 -5 883 40 Q 874 103 723 175 Q 714 181 711 169 Q 710 156 718 143 Z"></path>
      </clipPath>
      <path clip-path="url(#make-me-a-hanzi-clip-15)" d="M 721 163 L 776 118 L 840 52 L 854 25 L 862 -9" fill="none" id="make-me-a-hanzi-animation-15" stroke-dasharray="356 712" stroke-linecap="round"></path>
    
  </g>
</svg>