<svg version="1.1" viewBox="0 0 1024 1024" xmlns="http://www.w3.org/2000/svg">
  <g stroke="lightgray" stroke-dasharray="1,1" stroke-width="1" transform="scale(4, 4)">
    <line x1="0" y1="0" x2="256" y2="256"></line>
    <line x1="256" y1="0" x2="0" y2="256"></line>
    <line x1="128" y1="0" x2="128" y2="256"></line>
    <line x1="0" y1="128" x2="256" y2="128"></line>
  </g>
  <g transform="scale(1, -1) translate(0, -900)">
    <style type="text/css">
      
        @keyframes keyframes0 {
          from {
            stroke: blue;
            stroke-dashoffset: 511;
            stroke-width: 128;
          }
          62% {
            animation-timing-function: step-end;
            stroke: blue;
            stroke-dashoffset: 0;
            stroke-width: 128;
          }
          to {
            stroke: black;
            stroke-width: 1024;
          }
        }
        #make-me-a-hanzi-animation-0 {
          animation: keyframes0 0.6658528645833334s both;
          animation-delay: 0s;
          animation-timing-function: linear;
        }
      
        @keyframes keyframes1 {
          from {
            stroke: blue;
            stroke-dashoffset: 940;
            stroke-width: 128;
          }
          75% {
            animation-timing-function: step-end;
            stroke: blue;
            stroke-dashoffset: 0;
            stroke-width: 128;
          }
          to {
            stroke: black;
            stroke-width: 1024;
          }
        }
        #make-me-a-hanzi-animation-1 {
          animation: keyframes1 1.0149739583333333s both;
          animation-delay: 0.6658528645833334s;
          animation-timing-function: linear;
        }
      
        @keyframes keyframes2 {
          from {
            stroke: blue;
            stroke-dashoffset: 428;
            stroke-width: 128;
          }
          58% {
            animation-timing-function: step-end;
            stroke: blue;
            stroke-dashoffset: 0;
            stroke-width: 128;
          }
          to {
            stroke: black;
            stroke-width: 1024;
          }
        }
        #make-me-a-hanzi-animation-2 {
          animation: keyframes2 0.5983072916666666s both;
          animation-delay: 1.6808268229166665s;
          animation-timing-function: linear;
        }
      
        @keyframes keyframes3 {
          from {
            stroke: blue;
            stroke-dashoffset: 468;
            stroke-width: 128;
          }
          60% {
            animation-timing-function: step-end;
            stroke: blue;
            stroke-dashoffset: 0;
            stroke-width: 128;
          }
          to {
            stroke: black;
            stroke-width: 1024;
          }
        }
        #make-me-a-hanzi-animation-3 {
          animation: keyframes3 0.630859375s both;
          animation-delay: 2.279134114583333s;
          animation-timing-function: linear;
        }
      
        @keyframes keyframes4 {
          from {
            stroke: blue;
            stroke-dashoffset: 682;
            stroke-width: 128;
          }
          69% {
            animation-timing-function: step-end;
            stroke: blue;
            stroke-dashoffset: 0;
            stroke-width: 128;
          }
          to {
            stroke: black;
            stroke-width: 1024;
          }
        }
        #make-me-a-hanzi-animation-4 {
          animation: keyframes4 0.8050130208333334s both;
          animation-delay: 2.909993489583333s;
          animation-timing-function: linear;
        }
      
        @keyframes keyframes5 {
          from {
            stroke: blue;
            stroke-dashoffset: 350;
            stroke-width: 128;
          }
          53% {
            animation-timing-function: step-end;
            stroke: blue;
            stroke-dashoffset: 0;
            stroke-width: 128;
          }
          to {
            stroke: black;
            stroke-width: 1024;
          }
        }
        #make-me-a-hanzi-animation-5 {
          animation: keyframes5 0.5348307291666666s both;
          animation-delay: 3.7150065104166665s;
          animation-timing-function: linear;
        }
      
        @keyframes keyframes6 {
          from {
            stroke: blue;
            stroke-dashoffset: 377;
            stroke-width: 128;
          }
          55% {
            animation-timing-function: step-end;
            stroke: blue;
            stroke-dashoffset: 0;
            stroke-width: 128;
          }
          to {
            stroke: black;
            stroke-width: 1024;
          }
        }
        #make-me-a-hanzi-animation-6 {
          animation: keyframes6 0.5568033854166666s both;
          animation-delay: 4.249837239583333s;
          animation-timing-function: linear;
        }
      
        @keyframes keyframes7 {
          from {
            stroke: blue;
            stroke-dashoffset: 605;
            stroke-width: 128;
          }
          66% {
            animation-timing-function: step-end;
            stroke: blue;
            stroke-dashoffset: 0;
            stroke-width: 128;
          }
          to {
            stroke: black;
            stroke-width: 1024;
          }
        }
        #make-me-a-hanzi-animation-7 {
          animation: keyframes7 0.7423502604166666s both;
          animation-delay: 4.806640625s;
          animation-timing-function: linear;
        }
      
        @keyframes keyframes8 {
          from {
            stroke: blue;
            stroke-dashoffset: 404;
            stroke-width: 128;
          }
          57% {
            animation-timing-function: step-end;
            stroke: blue;
            stroke-dashoffset: 0;
            stroke-width: 128;
          }
          to {
            stroke: black;
            stroke-width: 1024;
          }
        }
        #make-me-a-hanzi-animation-8 {
          animation: keyframes8 0.5787760416666666s both;
          animation-delay: 5.548990885416667s;
          animation-timing-function: linear;
        }
      
        @keyframes keyframes9 {
          from {
            stroke: blue;
            stroke-dashoffset: 347;
            stroke-width: 128;
          }
          53% {
            animation-timing-function: step-end;
            stroke: blue;
            stroke-dashoffset: 0;
            stroke-width: 128;
          }
          to {
            stroke: black;
            stroke-width: 1024;
          }
        }
        #make-me-a-hanzi-animation-9 {
          animation: keyframes9 0.5323893229166666s both;
          animation-delay: 6.127766927083334s;
          animation-timing-function: linear;
        }
      
        @keyframes keyframes10 {
          from {
            stroke: blue;
            stroke-dashoffset: 634;
            stroke-width: 128;
          }
          67% {
            animation-timing-function: step-end;
            stroke: blue;
            stroke-dashoffset: 0;
            stroke-width: 128;
          }
          to {
            stroke: black;
            stroke-width: 1024;
          }
        }
        #make-me-a-hanzi-animation-10 {
          animation: keyframes10 0.7659505208333334s both;
          animation-delay: 6.660156250000001s;
          animation-timing-function: linear;
        }
      
        @keyframes keyframes11 {
          from {
            stroke: blue;
            stroke-dashoffset: 397;
            stroke-width: 128;
          }
          56% {
            animation-timing-function: step-end;
            stroke: blue;
            stroke-dashoffset: 0;
            stroke-width: 128;
          }
          to {
            stroke: black;
            stroke-width: 1024;
          }
        }
        #make-me-a-hanzi-animation-11 {
          animation: keyframes11 0.5730794270833334s both;
          animation-delay: 7.426106770833334s;
          animation-timing-function: linear;
        }
      
        @keyframes keyframes12 {
          from {
            stroke: blue;
            stroke-dashoffset: 628;
            stroke-width: 128;
          }
          67% {
            animation-timing-function: step-end;
            stroke: blue;
            stroke-dashoffset: 0;
            stroke-width: 128;
          }
          to {
            stroke: black;
            stroke-width: 1024;
          }
        }
        #make-me-a-hanzi-animation-12 {
          animation: keyframes12 0.7610677083333334s both;
          animation-delay: 7.999186197916667s;
          animation-timing-function: linear;
        }
      
        @keyframes keyframes13 {
          from {
            stroke: blue;
            stroke-dashoffset: 827;
            stroke-width: 128;
          }
          73% {
            animation-timing-function: step-end;
            stroke: blue;
            stroke-dashoffset: 0;
            stroke-width: 128;
          }
          to {
            stroke: black;
            stroke-width: 1024;
          }
        }
        #make-me-a-hanzi-animation-13 {
          animation: keyframes13 0.9230143229166666s both;
          animation-delay: 8.76025390625s;
          animation-timing-function: linear;
        }
      
        @keyframes keyframes14 {
          from {
            stroke: blue;
            stroke-dashoffset: 386;
            stroke-width: 128;
          }
          56% {
            animation-timing-function: step-end;
            stroke: blue;
            stroke-dashoffset: 0;
            stroke-width: 128;
          }
          to {
            stroke: black;
            stroke-width: 1024;
          }
        }
        #make-me-a-hanzi-animation-14 {
          animation: keyframes14 0.5641276041666666s both;
          animation-delay: 9.683268229166666s;
          animation-timing-function: linear;
        }
      
        @keyframes keyframes15 {
          from {
            stroke: blue;
            stroke-dashoffset: 392;
            stroke-width: 128;
          }
          56% {
            animation-timing-function: step-end;
            stroke: blue;
            stroke-dashoffset: 0;
            stroke-width: 128;
          }
          to {
            stroke: black;
            stroke-width: 1024;
          }
        }
        #make-me-a-hanzi-animation-15 {
          animation: keyframes15 0.5690104166666666s both;
          animation-delay: 10.247395833333332s;
          animation-timing-function: linear;
        }
      
        @keyframes keyframes16 {
          from {
            stroke: blue;
            stroke-dashoffset: 436;
            stroke-width: 128;
          }
          59% {
            animation-timing-function: step-end;
            stroke: blue;
            stroke-dashoffset: 0;
            stroke-width: 128;
          }
          to {
            stroke: black;
            stroke-width: 1024;
          }
        }
        #make-me-a-hanzi-animation-16 {
          animation: keyframes16 0.6048177083333334s both;
          animation-delay: 10.816406249999998s;
          animation-timing-function: linear;
        }
      
        @keyframes keyframes17 {
          from {
            stroke: blue;
            stroke-dashoffset: 512;
            stroke-width: 128;
          }
          63% {
            animation-timing-function: step-end;
            stroke: blue;
            stroke-dashoffset: 0;
            stroke-width: 128;
          }
          to {
            stroke: black;
            stroke-width: 1024;
          }
        }
        #make-me-a-hanzi-animation-17 {
          animation: keyframes17 0.6666666666666666s both;
          animation-delay: 11.421223958333332s;
          animation-timing-function: linear;
        }
      
        @keyframes keyframes18 {
          from {
            stroke: blue;
            stroke-dashoffset: 455;
            stroke-width: 128;
          }
          60% {
            animation-timing-function: step-end;
            stroke: blue;
            stroke-dashoffset: 0;
            stroke-width: 128;
          }
          to {
            stroke: black;
            stroke-width: 1024;
          }
        }
        #make-me-a-hanzi-animation-18 {
          animation: keyframes18 0.6202799479166666s both;
          animation-delay: 12.087890624999998s;
          animation-timing-function: linear;
        }
      
    </style>
    
      <path d="M 426 721 Q 543 755 544 756 Q 551 763 547 770 Q 540 780 515 785 Q 493 789 408 758 Q 354 743 283 729 C 254 723 259 698 289 699 Q 322 699 388 712 L 426 721 Z" fill="lightgray"></path>
    
      <path d="M 283 729 Q 270 742 249 752 Q 233 762 221 758 Q 211 751 216 739 Q 234 706 228 633 Q 227 630 227 624 Q 215 465 169 344 Q 127 242 50 131 Q 46 127 44 120 Q 41 111 51 113 Q 84 119 161 236 Q 174 258 187 283 Q 233 383 264 537 L 266 553 Q 270 577 273 600 Q 282 678 289 699 C 294 720 294 720 283 729 Z" fill="lightgray"></path>
    
      <path d="M 384 571 Q 388 578 394 586 Q 410 611 427 642 Q 434 655 449 673 Q 462 683 454 693 Q 447 706 426 721 C 402 739 382 741 388 712 Q 397 685 360 587 Q 353 574 351 561 C 345 532 368 545 384 571 Z" fill="lightgray"></path>
    
      <path d="M 264 537 Q 285 480 294 391 Q 294 364 308 346 Q 321 328 326 340 Q 329 347 330 358 L 330 385 Q 330 388 325 434 L 322 457 Q 318 508 318 522 C 318 538 318 538 299 546 Q 292 550 277 553 Q 268 556 266 553 C 259 552 259 552 264 537 Z" fill="lightgray"></path>
    
      <path d="M 441 362 Q 465 328 484 348 Q 484 349 486 350 Q 499 372 525 497 Q 531 522 549 543 Q 559 553 550 564 Q 537 577 502 597 Q 492 603 384 571 L 351 561 Q 321 554 299 546 C 271 536 291 509 318 522 Q 345 537 452 562 Q 465 565 474 561 Q 487 551 483 533 Q 465 427 449 393 C 438 366 438 366 441 362 Z" fill="lightgray"></path>
    
      <path d="M 325 434 Q 377 446 415 453 Q 433 457 425 466 Q 416 476 396 479 Q 366 482 322 457 C 296 442 296 427 325 434 Z" fill="lightgray"></path>
    
      <path d="M 386 367 Q 431 374 441 362 C 464 342 471 373 449 393 Q 443 399 431 405 Q 418 411 394 404 Q 357 392 330 385 C 301 377 300 354 330 358 Q 333 358 359 363 L 386 367 Z" fill="lightgray"></path>
    
      <path d="M 359 363 Q 359 359 361 353 Q 373 323 371 230 Q 370 161 363 145 Q 360 135 340 138 Q 322 142 302 145 Q 292 146 291 141 Q 290 135 298 127 Q 347 84 362 58 Q 372 48 381 48 Q 391 52 402 80 Q 417 108 415 161 Q 414 260 417 295 Q 424 329 409 348 Q 396 361 386 367 C 362 384 353 391 359 363 Z" fill="lightgray"></path>
    
      <path d="M 266 275 Q 239 232 206 194 Q 182 167 196 136 Q 200 120 220 128 Q 269 156 281 222 Q 288 250 286 272 Q 283 279 278 281 Q 271 281 266 275 Z" fill="lightgray"></path>
    
      <path d="M 472 231 Q 496 180 518 167 Q 528 163 536 169 Q 543 176 544 190 Q 544 208 534 220 Q 522 236 488 256 Q 478 263 470 262 Q 466 262 465 253 Q 464 244 472 231 Z" fill="lightgray"></path>
    
      <path d="M 721 719 Q 761 741 922 742 Q 925 743 929 743 Q 945 744 949 752 Q 953 762 938 772 Q 889 805 835 783 Q 679 747 569 723 Q 553 720 565 707 Q 593 686 623 695 Q 650 704 681 711 L 721 719 Z" fill="lightgray"></path>
    
      <path d="M 677 596 Q 681 602 685 607 Q 727 664 737 672 Q 750 682 744 692 Q 738 705 721 719 C 698 739 680 741 681 711 Q 684 687 651 611 Q 644 601 642 591 C 634 562 660 571 677 596 Z" fill="lightgray"></path>
    
      <path d="M 623 589 Q 622 590 620 591 Q 613 597 601 602 Q 592 606 583 602 Q 577 598 582 588 Q 583 581 586 573 Q 604 537 591 356 Q 569 265 600 229 Q 609 217 617 228 Q 626 238 627 251 L 631 283 Q 631 292 632 356 L 633 376 Q 634 422 635 455 L 636 478 Q 637 542 639 549 Q 640 558 640 563 C 641 576 641 576 623 589 Z" fill="lightgray"></path>
    
      <path d="M 810 271 Q 811 261 819 249 Q 832 221 842 222 Q 855 223 870 255 Q 885 280 883 300 Q 871 376 871 497 Q 870 531 889 561 Q 899 576 891 585 Q 866 607 823 626 Q 808 632 787 624 Q 784 624 677 596 L 642 591 Q 632 591 623 589 C 593 586 610 559 640 563 L 646 563 Q 721 579 775 586 Q 794 589 800 579 Q 815 561 815 500 Q 821 334 813 295 L 810 271 Z" fill="lightgray"></path>
    
      <path d="M 635 455 Q 638 455 642 455 Q 709 464 760 468 Q 779 471 773 482 Q 764 494 743 499 Q 716 503 636 478 C 607 469 605 455 635 455 Z" fill="lightgray"></path>
    
      <path d="M 632 356 Q 639 355 649 355 Q 715 364 764 368 Q 783 371 777 382 Q 768 394 747 398 Q 731 401 633 376 C 604 369 602 359 632 356 Z" fill="lightgray"></path>
    
      <path d="M 627 251 Q 634 250 644 252 Q 696 264 810 271 C 840 273 836 276 813 295 Q 806 301 796 307 Q 780 316 752 309 Q 683 293 631 283 C 602 277 597 252 627 251 Z" fill="lightgray"></path>
    
      <path d="M 618 184 Q 600 127 458 31 Q 436 19 463 19 Q 532 19 662 126 Q 675 138 684 142 Q 696 152 695 162 Q 694 175 669 186 Q 642 199 630 197 Q 623 197 618 184 Z" fill="lightgray"></path>
    
      <path d="M 776 168 Q 816 117 862 45 Q 874 23 888 16 Q 895 15 905 22 Q 920 32 914 78 Q 911 129 782 198 Q 775 205 770 192 Q 769 179 776 168 Z" fill="lightgray"></path>
    
    
      <clipPath id="make-me-a-hanzi-clip-0">
        <path d="M 426 721 Q 543 755 544 756 Q 551 763 547 770 Q 540 780 515 785 Q 493 789 408 758 Q 354 743 283 729 C 254 723 259 698 289 699 Q 322 699 388 712 L 426 721 Z"></path>
      </clipPath>
      <path clip-path="url(#make-me-a-hanzi-clip-0)" d="M 292 723 L 315 717 L 435 743 L 504 765 L 540 764" fill="none" id="make-me-a-hanzi-animation-0" stroke-dasharray="383 766" stroke-linecap="round"></path>
    
      <clipPath id="make-me-a-hanzi-clip-1">
        <path d="M 283 729 Q 270 742 249 752 Q 233 762 221 758 Q 211 751 216 739 Q 234 706 228 633 Q 227 630 227 624 Q 215 465 169 344 Q 127 242 50 131 Q 46 127 44 120 Q 41 111 51 113 Q 84 119 161 236 Q 174 258 187 283 Q 233 383 264 537 L 266 553 Q 270 577 273 600 Q 282 678 289 699 C 294 720 294 720 283 729 Z"></path>
      </clipPath>
      <path clip-path="url(#make-me-a-hanzi-clip-1)" d="M 228 746 L 256 713 L 258 693 L 241 532 L 214 416 L 160 274 L 94 168 L 52 121" fill="none" id="make-me-a-hanzi-animation-1" stroke-dasharray="812 1624" stroke-linecap="round"></path>
    
      <clipPath id="make-me-a-hanzi-clip-2">
        <path d="M 384 571 Q 388 578 394 586 Q 410 611 427 642 Q 434 655 449 673 Q 462 683 454 693 Q 447 706 426 721 C 402 739 382 741 388 712 Q 397 685 360 587 Q 353 574 351 561 C 345 532 368 545 384 571 Z"></path>
      </clipPath>
      <path clip-path="url(#make-me-a-hanzi-clip-2)" d="M 395 710 L 420 686 L 374 583 L 355 567" fill="none" id="make-me-a-hanzi-animation-2" stroke-dasharray="300 600" stroke-linecap="round"></path>
    
      <clipPath id="make-me-a-hanzi-clip-3">
        <path d="M 264 537 Q 285 480 294 391 Q 294 364 308 346 Q 321 328 326 340 Q 329 347 330 358 L 330 385 Q 330 388 325 434 L 322 457 Q 318 508 318 522 C 318 538 318 538 299 546 Q 292 550 277 553 Q 268 556 266 553 C 259 552 259 552 264 537 Z"></path>
      </clipPath>
      <path clip-path="url(#make-me-a-hanzi-clip-3)" d="M 272 548 L 295 515 L 318 345" fill="none" id="make-me-a-hanzi-animation-3" stroke-dasharray="340 680" stroke-linecap="round"></path>
    
      <clipPath id="make-me-a-hanzi-clip-4">
        <path d="M 441 362 Q 465 328 484 348 Q 484 349 486 350 Q 499 372 525 497 Q 531 522 549 543 Q 559 553 550 564 Q 537 577 502 597 Q 492 603 384 571 L 351 561 Q 321 554 299 546 C 271 536 291 509 318 522 Q 345 537 452 562 Q 465 565 474 561 Q 487 551 483 533 Q 465 427 449 393 C 438 366 438 366 441 362 Z"></path>
      </clipPath>
      <path clip-path="url(#make-me-a-hanzi-clip-4)" d="M 307 542 L 324 540 L 462 579 L 489 576 L 510 560 L 515 551 L 467 367 L 475 359" fill="none" id="make-me-a-hanzi-animation-4" stroke-dasharray="554 1108" stroke-linecap="round"></path>
    
      <clipPath id="make-me-a-hanzi-clip-5">
        <path d="M 325 434 Q 377 446 415 453 Q 433 457 425 466 Q 416 476 396 479 Q 366 482 322 457 C 296 442 296 427 325 434 Z"></path>
      </clipPath>
      <path clip-path="url(#make-me-a-hanzi-clip-5)" d="M 332 441 L 337 451 L 352 457 L 402 465 L 418 461" fill="none" id="make-me-a-hanzi-animation-5" stroke-dasharray="222 444" stroke-linecap="round"></path>
    
      <clipPath id="make-me-a-hanzi-clip-6">
        <path d="M 386 367 Q 431 374 441 362 C 464 342 471 373 449 393 Q 443 399 431 405 Q 418 411 394 404 Q 357 392 330 385 C 301 377 300 354 330 358 Q 333 358 359 363 L 386 367 Z"></path>
      </clipPath>
      <path clip-path="url(#make-me-a-hanzi-clip-6)" d="M 334 365 L 351 376 L 405 388 L 428 387 L 440 368" fill="none" id="make-me-a-hanzi-animation-6" stroke-dasharray="249 498" stroke-linecap="round"></path>
    
      <clipPath id="make-me-a-hanzi-clip-7">
        <path d="M 359 363 Q 359 359 361 353 Q 373 323 371 230 Q 370 161 363 145 Q 360 135 340 138 Q 322 142 302 145 Q 292 146 291 141 Q 290 135 298 127 Q 347 84 362 58 Q 372 48 381 48 Q 391 52 402 80 Q 417 108 415 161 Q 414 260 417 295 Q 424 329 409 348 Q 396 361 386 367 C 362 384 353 391 359 363 Z"></path>
      </clipPath>
      <path clip-path="url(#make-me-a-hanzi-clip-7)" d="M 366 359 L 382 349 L 394 317 L 389 137 L 373 105 L 299 136" fill="none" id="make-me-a-hanzi-animation-7" stroke-dasharray="477 954" stroke-linecap="round"></path>
    
      <clipPath id="make-me-a-hanzi-clip-8">
        <path d="M 266 275 Q 239 232 206 194 Q 182 167 196 136 Q 200 120 220 128 Q 269 156 281 222 Q 288 250 286 272 Q 283 279 278 281 Q 271 281 266 275 Z"></path>
      </clipPath>
      <path clip-path="url(#make-me-a-hanzi-clip-8)" d="M 276 271 L 250 206 L 210 139" fill="none" id="make-me-a-hanzi-animation-8" stroke-dasharray="276 552" stroke-linecap="round"></path>
    
      <clipPath id="make-me-a-hanzi-clip-9">
        <path d="M 472 231 Q 496 180 518 167 Q 528 163 536 169 Q 543 176 544 190 Q 544 208 534 220 Q 522 236 488 256 Q 478 263 470 262 Q 466 262 465 253 Q 464 244 472 231 Z"></path>
      </clipPath>
      <path clip-path="url(#make-me-a-hanzi-clip-9)" d="M 473 254 L 517 202 L 526 181" fill="none" id="make-me-a-hanzi-animation-9" stroke-dasharray="219 438" stroke-linecap="round"></path>
    
      <clipPath id="make-me-a-hanzi-clip-10">
        <path d="M 721 719 Q 761 741 922 742 Q 925 743 929 743 Q 945 744 949 752 Q 953 762 938 772 Q 889 805 835 783 Q 679 747 569 723 Q 553 720 565 707 Q 593 686 623 695 Q 650 704 681 711 L 721 719 Z"></path>
      </clipPath>
      <path clip-path="url(#make-me-a-hanzi-clip-10)" d="M 568 715 L 612 712 L 764 750 L 874 767 L 939 756" fill="none" id="make-me-a-hanzi-animation-10" stroke-dasharray="506 1012" stroke-linecap="round"></path>
    
      <clipPath id="make-me-a-hanzi-clip-11">
        <path d="M 677 596 Q 681 602 685 607 Q 727 664 737 672 Q 750 682 744 692 Q 738 705 721 719 C 698 739 680 741 681 711 Q 684 687 651 611 Q 644 601 642 591 C 634 562 660 571 677 596 Z"></path>
      </clipPath>
      <path clip-path="url(#make-me-a-hanzi-clip-11)" d="M 689 707 L 709 686 L 668 611 L 647 595" fill="none" id="make-me-a-hanzi-animation-11" stroke-dasharray="269 538" stroke-linecap="round"></path>
    
      <clipPath id="make-me-a-hanzi-clip-12">
        <path d="M 623 589 Q 622 590 620 591 Q 613 597 601 602 Q 592 606 583 602 Q 577 598 582 588 Q 583 581 586 573 Q 604 537 591 356 Q 569 265 600 229 Q 609 217 617 228 Q 626 238 627 251 L 631 283 Q 631 292 632 356 L 633 376 Q 634 422 635 455 L 636 478 Q 637 542 639 549 Q 640 558 640 563 C 641 576 641 576 623 589 Z"></path>
      </clipPath>
      <path clip-path="url(#make-me-a-hanzi-clip-12)" d="M 589 595 L 616 557 L 615 403 L 606 303 L 609 232" fill="none" id="make-me-a-hanzi-animation-12" stroke-dasharray="500 1000" stroke-linecap="round"></path>
    
      <clipPath id="make-me-a-hanzi-clip-13">
        <path d="M 810 271 Q 811 261 819 249 Q 832 221 842 222 Q 855 223 870 255 Q 885 280 883 300 Q 871 376 871 497 Q 870 531 889 561 Q 899 576 891 585 Q 866 607 823 626 Q 808 632 787 624 Q 784 624 677 596 L 642 591 Q 632 591 623 589 C 593 586 610 559 640 563 L 646 563 Q 721 579 775 586 Q 794 589 800 579 Q 815 561 815 500 Q 821 334 813 295 L 810 271 Z"></path>
      </clipPath>
      <path clip-path="url(#make-me-a-hanzi-clip-13)" d="M 629 583 L 652 577 L 692 589 L 799 606 L 820 598 L 843 575 L 849 301 L 842 233" fill="none" id="make-me-a-hanzi-animation-13" stroke-dasharray="699 1398" stroke-linecap="round"></path>
    
      <clipPath id="make-me-a-hanzi-clip-14">
        <path d="M 635 455 Q 638 455 642 455 Q 709 464 760 468 Q 779 471 773 482 Q 764 494 743 499 Q 716 503 636 478 C 607 469 605 455 635 455 Z"></path>
      </clipPath>
      <path clip-path="url(#make-me-a-hanzi-clip-14)" d="M 639 461 L 651 471 L 689 478 L 730 483 L 764 478" fill="none" id="make-me-a-hanzi-animation-14" stroke-dasharray="258 516" stroke-linecap="round"></path>
    
      <clipPath id="make-me-a-hanzi-clip-15">
        <path d="M 632 356 Q 639 355 649 355 Q 715 364 764 368 Q 783 371 777 382 Q 768 394 747 398 Q 731 401 633 376 C 604 369 602 359 632 356 Z"></path>
      </clipPath>
      <path clip-path="url(#make-me-a-hanzi-clip-15)" d="M 636 361 L 647 370 L 720 380 L 768 378" fill="none" id="make-me-a-hanzi-animation-15" stroke-dasharray="264 528" stroke-linecap="round"></path>
    
      <clipPath id="make-me-a-hanzi-clip-16">
        <path d="M 627 251 Q 634 250 644 252 Q 696 264 810 271 C 840 273 836 276 813 295 Q 806 301 796 307 Q 780 316 752 309 Q 683 293 631 283 C 602 277 597 252 627 251 Z"></path>
      </clipPath>
      <path clip-path="url(#make-me-a-hanzi-clip-16)" d="M 631 256 L 654 271 L 748 288 L 791 289 L 799 278" fill="none" id="make-me-a-hanzi-animation-16" stroke-dasharray="308 616" stroke-linecap="round"></path>
    
      <clipPath id="make-me-a-hanzi-clip-17">
        <path d="M 618 184 Q 600 127 458 31 Q 436 19 463 19 Q 532 19 662 126 Q 675 138 684 142 Q 696 152 695 162 Q 694 175 669 186 Q 642 199 630 197 Q 623 197 618 184 Z"></path>
      </clipPath>
      <path clip-path="url(#make-me-a-hanzi-clip-17)" d="M 679 160 L 643 156 L 577 91 L 505 43 L 467 28" fill="none" id="make-me-a-hanzi-animation-17" stroke-dasharray="384 768" stroke-linecap="round"></path>
    
      <clipPath id="make-me-a-hanzi-clip-18">
        <path d="M 776 168 Q 816 117 862 45 Q 874 23 888 16 Q 895 15 905 22 Q 920 32 914 78 Q 911 129 782 198 Q 775 205 770 192 Q 769 179 776 168 Z"></path>
      </clipPath>
      <path clip-path="url(#make-me-a-hanzi-clip-18)" d="M 780 187 L 874 90 L 890 51 L 890 29" fill="none" id="make-me-a-hanzi-animation-18" stroke-dasharray="327 654" stroke-linecap="round"></path>
    
  </g>
</svg>