<svg version="1.1" viewBox="0 0 1024 1024" xmlns="http://www.w3.org/2000/svg">
  <g stroke="lightgray" stroke-dasharray="1,1" stroke-width="1" transform="scale(4, 4)">
    <line x1="0" y1="0" x2="256" y2="256"></line>
    <line x1="256" y1="0" x2="0" y2="256"></line>
    <line x1="128" y1="0" x2="128" y2="256"></line>
    <line x1="0" y1="128" x2="256" y2="128"></line>
  </g>
  <g transform="scale(1, -1) translate(0, -900)">
    <style type="text/css">
      
        @keyframes keyframes0 {
          from {
            stroke: blue;
            stroke-dashoffset: 501;
            stroke-width: 128;
          }
          62% {
            animation-timing-function: step-end;
            stroke: blue;
            stroke-dashoffset: 0;
            stroke-width: 128;
          }
          to {
            stroke: black;
            stroke-width: 1024;
          }
        }
        #make-me-a-hanzi-animation-0 {
          animation: keyframes0 0.65771484375s both;
          animation-delay: 0s;
          animation-timing-function: linear;
        }
      
        @keyframes keyframes1 {
          from {
            stroke: blue;
            stroke-dashoffset: 408;
            stroke-width: 128;
          }
          57% {
            animation-timing-function: step-end;
            stroke: blue;
            stroke-dashoffset: 0;
            stroke-width: 128;
          }
          to {
            stroke: black;
            stroke-width: 1024;
          }
        }
        #make-me-a-hanzi-animation-1 {
          animation: keyframes1 0.58203125s both;
          animation-delay: 0.65771484375s;
          animation-timing-function: linear;
        }
      
        @keyframes keyframes2 {
          from {
            stroke: blue;
            stroke-dashoffset: 686;
            stroke-width: 128;
          }
          69% {
            animation-timing-function: step-end;
            stroke: blue;
            stroke-dashoffset: 0;
            stroke-width: 128;
          }
          to {
            stroke: black;
            stroke-width: 1024;
          }
        }
        #make-me-a-hanzi-animation-2 {
          animation: keyframes2 0.8082682291666666s both;
          animation-delay: 1.23974609375s;
          animation-timing-function: linear;
        }
      
        @keyframes keyframes3 {
          from {
            stroke: blue;
            stroke-dashoffset: 550;
            stroke-width: 128;
          }
          64% {
            animation-timing-function: step-end;
            stroke: blue;
            stroke-dashoffset: 0;
            stroke-width: 128;
          }
          to {
            stroke: black;
            stroke-width: 1024;
          }
        }
        #make-me-a-hanzi-animation-3 {
          animation: keyframes3 0.6975911458333334s both;
          animation-delay: 2.0480143229166665s;
          animation-timing-function: linear;
        }
      
        @keyframes keyframes4 {
          from {
            stroke: blue;
            stroke-dashoffset: 312;
            stroke-width: 128;
          }
          50% {
            animation-timing-function: step-end;
            stroke: blue;
            stroke-dashoffset: 0;
            stroke-width: 128;
          }
          to {
            stroke: black;
            stroke-width: 1024;
          }
        }
        #make-me-a-hanzi-animation-4 {
          animation: keyframes4 0.50390625s both;
          animation-delay: 2.74560546875s;
          animation-timing-function: linear;
        }
      
        @keyframes keyframes5 {
          from {
            stroke: blue;
            stroke-dashoffset: 315;
            stroke-width: 128;
          }
          51% {
            animation-timing-function: step-end;
            stroke: blue;
            stroke-dashoffset: 0;
            stroke-width: 128;
          }
          to {
            stroke: black;
            stroke-width: 1024;
          }
        }
        #make-me-a-hanzi-animation-5 {
          animation: keyframes5 0.50634765625s both;
          animation-delay: 3.24951171875s;
          animation-timing-function: linear;
        }
      
        @keyframes keyframes6 {
          from {
            stroke: blue;
            stroke-dashoffset: 314;
            stroke-width: 128;
          }
          51% {
            animation-timing-function: step-end;
            stroke: blue;
            stroke-dashoffset: 0;
            stroke-width: 128;
          }
          to {
            stroke: black;
            stroke-width: 1024;
          }
        }
        #make-me-a-hanzi-animation-6 {
          animation: keyframes6 0.5055338541666666s both;
          animation-delay: 3.755859375s;
          animation-timing-function: linear;
        }
      
        @keyframes keyframes7 {
          from {
            stroke: blue;
            stroke-dashoffset: 321;
            stroke-width: 128;
          }
          51% {
            animation-timing-function: step-end;
            stroke: blue;
            stroke-dashoffset: 0;
            stroke-width: 128;
          }
          to {
            stroke: black;
            stroke-width: 1024;
          }
        }
        #make-me-a-hanzi-animation-7 {
          animation: keyframes7 0.51123046875s both;
          animation-delay: 4.261393229166667s;
          animation-timing-function: linear;
        }
      
        @keyframes keyframes8 {
          from {
            stroke: blue;
            stroke-dashoffset: 539;
            stroke-width: 128;
          }
          64% {
            animation-timing-function: step-end;
            stroke: blue;
            stroke-dashoffset: 0;
            stroke-width: 128;
          }
          to {
            stroke: black;
            stroke-width: 1024;
          }
        }
        #make-me-a-hanzi-animation-8 {
          animation: keyframes8 0.6886393229166666s both;
          animation-delay: 4.772623697916667s;
          animation-timing-function: linear;
        }
      
        @keyframes keyframes9 {
          from {
            stroke: blue;
            stroke-dashoffset: 345;
            stroke-width: 128;
          }
          53% {
            animation-timing-function: step-end;
            stroke: blue;
            stroke-dashoffset: 0;
            stroke-width: 128;
          }
          to {
            stroke: black;
            stroke-width: 1024;
          }
        }
        #make-me-a-hanzi-animation-9 {
          animation: keyframes9 0.53076171875s both;
          animation-delay: 5.461263020833334s;
          animation-timing-function: linear;
        }
      
        @keyframes keyframes10 {
          from {
            stroke: blue;
            stroke-dashoffset: 491;
            stroke-width: 128;
          }
          62% {
            animation-timing-function: step-end;
            stroke: blue;
            stroke-dashoffset: 0;
            stroke-width: 128;
          }
          to {
            stroke: black;
            stroke-width: 1024;
          }
        }
        #make-me-a-hanzi-animation-10 {
          animation: keyframes10 0.6495768229166666s both;
          animation-delay: 5.992024739583334s;
          animation-timing-function: linear;
        }
      
        @keyframes keyframes11 {
          from {
            stroke: blue;
            stroke-dashoffset: 846;
            stroke-width: 128;
          }
          73% {
            animation-timing-function: step-end;
            stroke: blue;
            stroke-dashoffset: 0;
            stroke-width: 128;
          }
          to {
            stroke: black;
            stroke-width: 1024;
          }
        }
        #make-me-a-hanzi-animation-11 {
          animation: keyframes11 0.9384765625s both;
          animation-delay: 6.641601562500001s;
          animation-timing-function: linear;
        }
      
        @keyframes keyframes12 {
          from {
            stroke: blue;
            stroke-dashoffset: 427;
            stroke-width: 128;
          }
          58% {
            animation-timing-function: step-end;
            stroke: blue;
            stroke-dashoffset: 0;
            stroke-width: 128;
          }
          to {
            stroke: black;
            stroke-width: 1024;
          }
        }
        #make-me-a-hanzi-animation-12 {
          animation: keyframes12 0.5974934895833334s both;
          animation-delay: 7.580078125000001s;
          animation-timing-function: linear;
        }
      
        @keyframes keyframes13 {
          from {
            stroke: blue;
            stroke-dashoffset: 475;
            stroke-width: 128;
          }
          61% {
            animation-timing-function: step-end;
            stroke: blue;
            stroke-dashoffset: 0;
            stroke-width: 128;
          }
          to {
            stroke: black;
            stroke-width: 1024;
          }
        }
        #make-me-a-hanzi-animation-13 {
          animation: keyframes13 0.6365559895833334s both;
          animation-delay: 8.177571614583334s;
          animation-timing-function: linear;
        }
      
        @keyframes keyframes14 {
          from {
            stroke: blue;
            stroke-dashoffset: 721;
            stroke-width: 128;
          }
          70% {
            animation-timing-function: step-end;
            stroke: blue;
            stroke-dashoffset: 0;
            stroke-width: 128;
          }
          to {
            stroke: black;
            stroke-width: 1024;
          }
        }
        #make-me-a-hanzi-animation-14 {
          animation: keyframes14 0.8367513020833334s both;
          animation-delay: 8.814127604166668s;
          animation-timing-function: linear;
        }
      
        @keyframes keyframes15 {
          from {
            stroke: blue;
            stroke-dashoffset: 405;
            stroke-width: 128;
          }
          57% {
            animation-timing-function: step-end;
            stroke: blue;
            stroke-dashoffset: 0;
            stroke-width: 128;
          }
          to {
            stroke: black;
            stroke-width: 1024;
          }
        }
        #make-me-a-hanzi-animation-15 {
          animation: keyframes15 0.57958984375s both;
          animation-delay: 9.650878906250002s;
          animation-timing-function: linear;
        }
      
        @keyframes keyframes16 {
          from {
            stroke: blue;
            stroke-dashoffset: 644;
            stroke-width: 128;
          }
          68% {
            animation-timing-function: step-end;
            stroke: blue;
            stroke-dashoffset: 0;
            stroke-width: 128;
          }
          to {
            stroke: black;
            stroke-width: 1024;
          }
        }
        #make-me-a-hanzi-animation-16 {
          animation: keyframes16 0.7740885416666666s both;
          animation-delay: 10.230468750000002s;
          animation-timing-function: linear;
        }
      
        @keyframes keyframes17 {
          from {
            stroke: blue;
            stroke-dashoffset: 901;
            stroke-width: 128;
          }
          75% {
            animation-timing-function: step-end;
            stroke: blue;
            stroke-dashoffset: 0;
            stroke-width: 128;
          }
          to {
            stroke: black;
            stroke-width: 1024;
          }
        }
        #make-me-a-hanzi-animation-17 {
          animation: keyframes17 0.9832356770833334s both;
          animation-delay: 11.004557291666668s;
          animation-timing-function: linear;
        }
      
        @keyframes keyframes18 {
          from {
            stroke: blue;
            stroke-dashoffset: 429;
            stroke-width: 128;
          }
          58% {
            animation-timing-function: step-end;
            stroke: blue;
            stroke-dashoffset: 0;
            stroke-width: 128;
          }
          to {
            stroke: black;
            stroke-width: 1024;
          }
        }
        #make-me-a-hanzi-animation-18 {
          animation: keyframes18 0.59912109375s both;
          animation-delay: 11.987792968750002s;
          animation-timing-function: linear;
        }
      
        @keyframes keyframes19 {
          from {
            stroke: blue;
            stroke-dashoffset: 430;
            stroke-width: 128;
          }
          58% {
            animation-timing-function: step-end;
            stroke: blue;
            stroke-dashoffset: 0;
            stroke-width: 128;
          }
          to {
            stroke: black;
            stroke-width: 1024;
          }
        }
        #make-me-a-hanzi-animation-19 {
          animation: keyframes19 0.5999348958333334s both;
          animation-delay: 12.586914062500002s;
          animation-timing-function: linear;
        }
      
        @keyframes keyframes20 {
          from {
            stroke: blue;
            stroke-dashoffset: 480;
            stroke-width: 128;
          }
          61% {
            animation-timing-function: step-end;
            stroke: blue;
            stroke-dashoffset: 0;
            stroke-width: 128;
          }
          to {
            stroke: black;
            stroke-width: 1024;
          }
        }
        #make-me-a-hanzi-animation-20 {
          animation: keyframes20 0.640625s both;
          animation-delay: 13.186848958333336s;
          animation-timing-function: linear;
        }
      
        @keyframes keyframes21 {
          from {
            stroke: blue;
            stroke-dashoffset: 565;
            stroke-width: 128;
          }
          65% {
            animation-timing-function: step-end;
            stroke: blue;
            stroke-dashoffset: 0;
            stroke-width: 128;
          }
          to {
            stroke: black;
            stroke-width: 1024;
          }
        }
        #make-me-a-hanzi-animation-21 {
          animation: keyframes21 0.7097981770833334s both;
          animation-delay: 13.827473958333336s;
          animation-timing-function: linear;
        }
      
        @keyframes keyframes22 {
          from {
            stroke: blue;
            stroke-dashoffset: 505;
            stroke-width: 128;
          }
          62% {
            animation-timing-function: step-end;
            stroke: blue;
            stroke-dashoffset: 0;
            stroke-width: 128;
          }
          to {
            stroke: black;
            stroke-width: 1024;
          }
        }
        #make-me-a-hanzi-animation-22 {
          animation: keyframes22 0.6609700520833334s both;
          animation-delay: 14.53727213541667s;
          animation-timing-function: linear;
        }
      
    </style>
    
      <path d="M 288 739 Q 319 748 382 761 Q 404 767 410 770 Q 421 775 419 785 Q 415 798 384 805 L 376 806 Q 358 807 317 792 Q 243 768 177 760 Q 157 757 159 750 Q 159 747 163 744 Q 184 723 252 731 L 288 739 Z" fill="lightgray"></path>
    
      <path d="M 131 634 Q 121 657 102 668 Q 92 676 88 655 Q 90 637 80 607 L 68 572 Q 51 539 71 507 Q 77 498 83 504 Q 93 508 111 557 Q 127 604 132 608 C 139 618 139 618 131 634 Z" fill="lightgray"></path>
    
      <path d="M 265 662 Q 202 654 131 634 C 102 626 102 612 132 608 Q 143 604 167 609 Q 184 612 204 619 Q 238 631 266 634 L 303 643 Q 392 662 414 662 Q 428 656 429 649 L 428 647 Q 428 643 423 627 Q 409 582 410 578 Q 416 568 429 583 Q 450 600 472 612 L 517 635 Q 528 641 527 645 Q 527 653 467 690 Q 456 699 406 692 Q 347 684 305 670 L 265 662 Z" fill="lightgray"></path>
    
      <path d="M 266 634 Q 266 586 253 501 Q 248 483 257 462 Q 258 459 259 455 Q 269 433 278 436 Q 286 439 293 458 Q 303 485 302 510 L 302 610 Q 303 616 303 629 L 303 643 L 305 670 L 310 709 Q 312 724 299 731 L 288 739 C 264 757 245 760 252 731 Q 259 705 265 662 L 266 634 Z" fill="lightgray"></path>
    
      <path d="M 167 583 Q 160 583 161 575 Q 161 568 167 564 Q 185 547 200 539 Q 229 521 233 548 Q 231 555 229 559 Q 219 582 167 583 Z" fill="lightgray"></path>
    
      <path d="M 159 517 Q 151 517 153 510 Q 151 500 174 482 Q 200 463 210 463 Q 220 463 221 476 Q 221 484 219 490 Q 210 510 159 517 Z" fill="lightgray"></path>
    
      <path d="M 398 572 Q 395 587 380 595 Q 357 608 321 604 Q 317 604 318 595 Q 318 589 325 585 Q 366 554 385 557 Q 396 558 398 572 Z" fill="lightgray"></path>
    
      <path d="M 323 508 Q 394 455 398 492 Q 396 501 386 514 Q 363 532 323 527 Q 321 527 319 525 Q 311 519 323 508 Z" fill="lightgray"></path>
    
      <path d="M 429 417 Q 429 423 422 429 Q 400 450 350 443 L 316 435 L 284 427 Q 267 423 145 404 L 139 402 Q 129 400 131 394 Q 133 386 147 380 Q 176 367 210 371 L 237 376 Q 290 390 412 408 Q 419 406 429 417 Z" fill="lightgray"></path>
    
      <path d="M 210 371 Q 211 366 208 353 Q 206 339 186 278 C 177 249 204 262 220 287 Q 245 326 256 335 Q 274 353 237 376 C 212 392 209 394 210 371 Z" fill="lightgray"></path>
    
      <path d="M 110 260 Q 76 286 67 274 Q 63 272 67 260 Q 87 221 83 125 L 82 102 Q 80 88 83 76 Q 87 64 98 51 Q 114 33 122 37 L 125 43 Q 135 57 132 104 Q 127 196 127 225 C 127 248 127 248 110 260 Z" fill="lightgray"></path>
    
      <path d="M 186 278 Q 181 278 171 275 Q 131 268 110 260 C 81 251 98 217 127 225 Q 131 225 135 226 Q 137 227 178 242 L 206 250 Q 233 263 265 265 L 303 272 Q 359 286 384 281 Q 396 278 401 272 Q 404 269 404 255 Q 408 178 406 149 Q 406 133 403 128 Q 400 122 388 122 Q 367 122 340 124 Q 315 124 334 110 Q 345 104 354 98 Q 386 75 415 47 Q 421 39 427 41 Q 429 41 429 43 Q 454 59 455 200 Q 455 237 468 263 Q 476 274 474 280 Q 468 290 420 319 Q 408 327 387 322 L 366 316 L 363 316 L 220 287 L 186 278 Z" fill="lightgray"></path>
    
      <path d="M 178 242 L 179 239 Q 192 193 192 121 Q 192 106 196 94 Q 198 88 200 84 Q 208 68 214 73 L 216 74 Q 224 88 224 121 Q 225 210 229 225 L 228 235 Q 226 240 206 250 C 179 264 170 269 178 242 Z" fill="lightgray"></path>
    
      <path d="M 265 265 Q 271 251 276 165 Q 276 76 288 50 Q 290 47 294 47 Q 316 45 316 147 Q 316 218 323 245 Q 325 257 318 265 L 303 272 C 276 285 257 294 265 265 Z" fill="lightgray"></path>
    
      <path d="M 653 733 Q 700 749 931 770 Q 949 770 954 780 Q 956 787 951 794 Q 945 802 925 810 Q 881 832 842 817 Q 718 785 488 735 L 484 735 Q 468 729 484 717 Q 510 698 541 704 L 612 723 L 653 733 Z" fill="lightgray"></path>
    
      <path d="M 627 595 L 665 662 Q 670 674 680 688 Q 688 698 686 704 L 685 706 Q 676 719 653 733 C 628 749 600 750 612 723 Q 620 710 615 666 Q 612 639 606 618 Q 600 595 600 590 C 596 560 612 569 627 595 Z" fill="lightgray"></path>
    
      <path d="M 509 583 Q 509 582 510 577 L 510 576 Q 509 574 512 571 Q 534 541 529 397 Q 527 355 521 312 Q 516 270 517 254 Q 521 240 529 225 Q 544 200 554 204 Q 563 210 566 223 L 572 259 Q 573 274 572 300 L 572 347 L 572 373 L 572 460 L 572 484 Q 572 514 574 555 C 575 573 575 573 559 583 Q 557 584 554 586 Q 527 605 510 598 Q 504 594 509 583 Z" fill="lightgray"></path>
    
      <path d="M 794 250 Q 795 239 804 227 Q 808 220 809 218 Q 833 174 860 235 Q 868 250 871 262 Q 873 269 873 286 Q 860 371 858 502 Q 857 534 874 567 Q 884 586 882 593 Q 882 595 880 598 Q 866 614 802 641 Q 786 647 762 637 Q 738 625 710 616 L 627 595 L 600 590 Q 584 588 559 583 C 530 577 545 547 574 555 Q 670 582 745 598 Q 770 604 778 590 Q 794 572 797 504 Q 802 381 800 320 L 797 282 L 796 278 L 794 250 Z" fill="lightgray"></path>
    
      <path d="M 572 460 Q 604 457 657 463 Q 691 471 725 478 Q 752 483 755 486 Q 759 490 759 494 Q 762 508 727 515 Q 717 517 674 506 L 630 494 Q 610 490 572 484 C 542 479 542 462 572 460 Z" fill="lightgray"></path>
    
      <path d="M 731 363 Q 739 365 743 365 Q 760 370 759 380 Q 754 390 741 395 Q 719 404 691 398 L 674 394 Q 635 380 572 373 C 542 370 543 353 572 347 Q 605 339 675 353 Q 727 363 731 363 Z" fill="lightgray"></path>
    
      <path d="M 566 223 Q 571 223 577 223 Q 645 239 794 250 C 824 252 820 260 796 278 Q 790 282 786 286 Q 772 296 750 294 L 733 291 Q 643 269 572 259 C 542 255 536 223 566 223 Z" fill="lightgray"></path>
    
      <path d="M 576 182 Q 563 116 396 -3 Q 380 -14 388 -16 Q 394 -17 402 -16 Q 470 -16 598 93 Q 600 98 651 139 Q 656 143 659 148 Q 672 172 632 186 Q 613 196 602 198 Q 580 201 576 182 Z" fill="lightgray"></path>
    
      <path d="M 747 158 Q 778 114 804 74 L 854 -5 Q 868 -29 882 -35 Q 886 -37 892 -35 Q 915 -27 913 23 Q 913 53 898 75 Q 891 83 880 94 Q 831 140 755 190 Q 750 194 746 191 Q 743 190 742 186 Q 736 172 747 158 Z" fill="lightgray"></path>
    
    
      <clipPath id="make-me-a-hanzi-clip-0">
        <path d="M 288 739 Q 319 748 382 761 Q 404 767 410 770 Q 421 775 419 785 Q 415 798 384 805 L 376 806 Q 358 807 317 792 Q 243 768 177 760 Q 157 757 159 750 Q 159 747 163 744 Q 184 723 252 731 L 288 739 Z"></path>
      </clipPath>
      <path clip-path="url(#make-me-a-hanzi-clip-0)" d="M 166 750 L 240 749 L 363 781 L 407 782" fill="none" id="make-me-a-hanzi-animation-0" stroke-dasharray="373 746" stroke-linecap="round"></path>
    
      <clipPath id="make-me-a-hanzi-clip-1">
        <path d="M 131 634 Q 121 657 102 668 Q 92 676 88 655 Q 90 637 80 607 L 68 572 Q 51 539 71 507 Q 77 498 83 504 Q 93 508 111 557 Q 127 604 132 608 C 139 618 139 618 131 634 Z"></path>
      </clipPath>
      <path clip-path="url(#make-me-a-hanzi-clip-1)" d="M 97 659 L 106 643 L 108 616 L 83 548 L 79 514" fill="none" id="make-me-a-hanzi-animation-1" stroke-dasharray="280 560" stroke-linecap="round"></path>
    
      <clipPath id="make-me-a-hanzi-clip-2">
        <path d="M 265 662 Q 202 654 131 634 C 102 626 102 612 132 608 Q 143 604 167 609 Q 184 612 204 619 Q 238 631 266 634 L 303 643 Q 392 662 414 662 Q 428 656 429 649 L 428 647 Q 428 643 423 627 Q 409 582 410 578 Q 416 568 429 583 Q 450 600 472 612 L 517 635 Q 528 641 527 645 Q 527 653 467 690 Q 456 699 406 692 Q 347 684 305 670 L 265 662 Z"></path>
      </clipPath>
      <path clip-path="url(#make-me-a-hanzi-clip-2)" d="M 138 615 L 217 640 L 419 679 L 452 666 L 465 649 L 416 580" fill="none" id="make-me-a-hanzi-animation-2" stroke-dasharray="558 1116" stroke-linecap="round"></path>
    
      <clipPath id="make-me-a-hanzi-clip-3">
        <path d="M 266 634 Q 266 586 253 501 Q 248 483 257 462 Q 258 459 259 455 Q 269 433 278 436 Q 286 439 293 458 Q 303 485 302 510 L 302 610 Q 303 616 303 629 L 303 643 L 305 670 L 310 709 Q 312 724 299 731 L 288 739 C 264 757 245 760 252 731 Q 259 705 265 662 L 266 634 Z"></path>
      </clipPath>
      <path clip-path="url(#make-me-a-hanzi-clip-3)" d="M 259 727 L 284 710 L 276 446" fill="none" id="make-me-a-hanzi-animation-3" stroke-dasharray="422 844" stroke-linecap="round"></path>
    
      <clipPath id="make-me-a-hanzi-clip-4">
        <path d="M 167 583 Q 160 583 161 575 Q 161 568 167 564 Q 185 547 200 539 Q 229 521 233 548 Q 231 555 229 559 Q 219 582 167 583 Z"></path>
      </clipPath>
      <path clip-path="url(#make-me-a-hanzi-clip-4)" d="M 171 574 L 219 546" fill="none" id="make-me-a-hanzi-animation-4" stroke-dasharray="184 368" stroke-linecap="round"></path>
    
      <clipPath id="make-me-a-hanzi-clip-5">
        <path d="M 159 517 Q 151 517 153 510 Q 151 500 174 482 Q 200 463 210 463 Q 220 463 221 476 Q 221 484 219 490 Q 210 510 159 517 Z"></path>
      </clipPath>
      <path clip-path="url(#make-me-a-hanzi-clip-5)" d="M 163 508 L 199 487 L 210 474" fill="none" id="make-me-a-hanzi-animation-5" stroke-dasharray="187 374" stroke-linecap="round"></path>
    
      <clipPath id="make-me-a-hanzi-clip-6">
        <path d="M 398 572 Q 395 587 380 595 Q 357 608 321 604 Q 317 604 318 595 Q 318 589 325 585 Q 366 554 385 557 Q 396 558 398 572 Z"></path>
      </clipPath>
      <path clip-path="url(#make-me-a-hanzi-clip-6)" d="M 330 596 L 383 572" fill="none" id="make-me-a-hanzi-animation-6" stroke-dasharray="186 372" stroke-linecap="round"></path>
    
      <clipPath id="make-me-a-hanzi-clip-7">
        <path d="M 323 508 Q 394 455 398 492 Q 396 501 386 514 Q 363 532 323 527 Q 321 527 319 525 Q 311 519 323 508 Z"></path>
      </clipPath>
      <path clip-path="url(#make-me-a-hanzi-clip-7)" d="M 325 518 L 384 491" fill="none" id="make-me-a-hanzi-animation-7" stroke-dasharray="193 386" stroke-linecap="round"></path>
    
      <clipPath id="make-me-a-hanzi-clip-8">
        <path d="M 429 417 Q 429 423 422 429 Q 400 450 350 443 L 316 435 L 284 427 Q 267 423 145 404 L 139 402 Q 129 400 131 394 Q 133 386 147 380 Q 176 367 210 371 L 237 376 Q 290 390 412 408 Q 419 406 429 417 Z"></path>
      </clipPath>
      <path clip-path="url(#make-me-a-hanzi-clip-8)" d="M 139 394 L 201 391 L 377 424 L 419 419" fill="none" id="make-me-a-hanzi-animation-8" stroke-dasharray="411 822" stroke-linecap="round"></path>
    
      <clipPath id="make-me-a-hanzi-clip-9">
        <path d="M 210 371 Q 211 366 208 353 Q 206 339 186 278 C 177 249 204 262 220 287 Q 245 326 256 335 Q 274 353 237 376 C 212 392 209 394 210 371 Z"></path>
      </clipPath>
      <path clip-path="url(#make-me-a-hanzi-clip-9)" d="M 218 368 L 233 348 L 201 292" fill="none" id="make-me-a-hanzi-animation-9" stroke-dasharray="217 434" stroke-linecap="round"></path>
    
      <clipPath id="make-me-a-hanzi-clip-10">
        <path d="M 110 260 Q 76 286 67 274 Q 63 272 67 260 Q 87 221 83 125 L 82 102 Q 80 88 83 76 Q 87 64 98 51 Q 114 33 122 37 L 125 43 Q 135 57 132 104 Q 127 196 127 225 C 127 248 127 248 110 260 Z"></path>
      </clipPath>
      <path clip-path="url(#make-me-a-hanzi-clip-10)" d="M 75 267 L 92 251 L 103 221 L 107 86 L 118 43" fill="none" id="make-me-a-hanzi-animation-10" stroke-dasharray="363 726" stroke-linecap="round"></path>
    
      <clipPath id="make-me-a-hanzi-clip-11">
        <path d="M 186 278 Q 181 278 171 275 Q 131 268 110 260 C 81 251 98 217 127 225 Q 131 225 135 226 Q 137 227 178 242 L 206 250 Q 233 263 265 265 L 303 272 Q 359 286 384 281 Q 396 278 401 272 Q 404 269 404 255 Q 408 178 406 149 Q 406 133 403 128 Q 400 122 388 122 Q 367 122 340 124 Q 315 124 334 110 Q 345 104 354 98 Q 386 75 415 47 Q 421 39 427 41 Q 429 41 429 43 Q 454 59 455 200 Q 455 237 468 263 Q 476 274 474 280 Q 468 290 420 319 Q 408 327 387 322 L 366 316 L 363 316 L 220 287 L 186 278 Z"></path>
      </clipPath>
      <path clip-path="url(#make-me-a-hanzi-clip-11)" d="M 118 257 L 141 248 L 230 275 L 359 299 L 397 301 L 416 293 L 436 270 L 427 119 L 414 95 L 343 114" fill="none" id="make-me-a-hanzi-animation-11" stroke-dasharray="718 1436" stroke-linecap="round"></path>
    
      <clipPath id="make-me-a-hanzi-clip-12">
        <path d="M 178 242 L 179 239 Q 192 193 192 121 Q 192 106 196 94 Q 198 88 200 84 Q 208 68 214 73 L 216 74 Q 224 88 224 121 Q 225 210 229 225 L 228 235 Q 226 240 206 250 C 179 264 170 269 178 242 Z"></path>
      </clipPath>
      <path clip-path="url(#make-me-a-hanzi-clip-12)" d="M 185 243 L 205 225 L 211 81" fill="none" id="make-me-a-hanzi-animation-12" stroke-dasharray="299 598" stroke-linecap="round"></path>
    
      <clipPath id="make-me-a-hanzi-clip-13">
        <path d="M 265 265 Q 271 251 276 165 Q 276 76 288 50 Q 290 47 294 47 Q 316 45 316 147 Q 316 218 323 245 Q 325 257 318 265 L 303 272 C 276 285 257 294 265 265 Z"></path>
      </clipPath>
      <path clip-path="url(#make-me-a-hanzi-clip-13)" d="M 272 264 L 296 244 L 295 56" fill="none" id="make-me-a-hanzi-animation-13" stroke-dasharray="347 694" stroke-linecap="round"></path>
    
      <clipPath id="make-me-a-hanzi-clip-14">
        <path d="M 653 733 Q 700 749 931 770 Q 949 770 954 780 Q 956 787 951 794 Q 945 802 925 810 Q 881 832 842 817 Q 718 785 488 735 L 484 735 Q 468 729 484 717 Q 510 698 541 704 L 612 723 L 653 733 Z"></path>
      </clipPath>
      <path clip-path="url(#make-me-a-hanzi-clip-14)" d="M 485 726 L 532 723 L 680 760 L 857 792 L 885 794 L 942 785" fill="none" id="make-me-a-hanzi-animation-14" stroke-dasharray="593 1186" stroke-linecap="round"></path>
    
      <clipPath id="make-me-a-hanzi-clip-15">
        <path d="M 627 595 L 665 662 Q 670 674 680 688 Q 688 698 686 704 L 685 706 Q 676 719 653 733 C 628 749 600 750 612 723 Q 620 710 615 666 Q 612 639 606 618 Q 600 595 600 590 C 596 560 612 569 627 595 Z"></path>
      </clipPath>
      <path clip-path="url(#make-me-a-hanzi-clip-15)" d="M 620 721 L 647 700 L 647 694 L 625 623 L 606 594" fill="none" id="make-me-a-hanzi-animation-15" stroke-dasharray="277 554" stroke-linecap="round"></path>
    
      <clipPath id="make-me-a-hanzi-clip-16">
        <path d="M 509 583 Q 509 582 510 577 L 510 576 Q 509 574 512 571 Q 534 541 529 397 Q 527 355 521 312 Q 516 270 517 254 Q 521 240 529 225 Q 544 200 554 204 Q 563 210 566 223 L 572 259 Q 573 274 572 300 L 572 347 L 572 373 L 572 460 L 572 484 Q 572 514 574 555 C 575 573 575 573 559 583 Q 557 584 554 586 Q 527 605 510 598 Q 504 594 509 583 Z"></path>
      </clipPath>
      <path clip-path="url(#make-me-a-hanzi-clip-16)" d="M 517 590 L 536 574 L 548 550 L 551 380 L 544 256 L 551 214" fill="none" id="make-me-a-hanzi-animation-16" stroke-dasharray="516 1032" stroke-linecap="round"></path>
    
      <clipPath id="make-me-a-hanzi-clip-17">
        <path d="M 794 250 Q 795 239 804 227 Q 808 220 809 218 Q 833 174 860 235 Q 868 250 871 262 Q 873 269 873 286 Q 860 371 858 502 Q 857 534 874 567 Q 884 586 882 593 Q 882 595 880 598 Q 866 614 802 641 Q 786 647 762 637 Q 738 625 710 616 L 627 595 L 600 590 Q 584 588 559 583 C 530 577 545 547 574 555 Q 670 582 745 598 Q 770 604 778 590 Q 794 572 797 504 Q 802 381 800 320 L 797 282 L 796 278 L 794 250 Z"></path>
      </clipPath>
      <path clip-path="url(#make-me-a-hanzi-clip-17)" d="M 568 579 L 596 575 L 776 619 L 801 611 L 827 584 L 835 298 L 830 217" fill="none" id="make-me-a-hanzi-animation-17" stroke-dasharray="773 1546" stroke-linecap="round"></path>
    
      <clipPath id="make-me-a-hanzi-clip-18">
        <path d="M 572 460 Q 604 457 657 463 Q 691 471 725 478 Q 752 483 755 486 Q 759 490 759 494 Q 762 508 727 515 Q 717 517 674 506 L 630 494 Q 610 490 572 484 C 542 479 542 462 572 460 Z"></path>
      </clipPath>
      <path clip-path="url(#make-me-a-hanzi-clip-18)" d="M 578 466 L 586 473 L 631 476 L 705 494 L 746 495" fill="none" id="make-me-a-hanzi-animation-18" stroke-dasharray="301 602" stroke-linecap="round"></path>
    
      <clipPath id="make-me-a-hanzi-clip-19">
        <path d="M 731 363 Q 739 365 743 365 Q 760 370 759 380 Q 754 390 741 395 Q 719 404 691 398 L 674 394 Q 635 380 572 373 C 542 370 543 353 572 347 Q 605 339 675 353 Q 727 363 731 363 Z"></path>
      </clipPath>
      <path clip-path="url(#make-me-a-hanzi-clip-19)" d="M 578 354 L 711 381 L 749 379" fill="none" id="make-me-a-hanzi-animation-19" stroke-dasharray="302 604" stroke-linecap="round"></path>
    
      <clipPath id="make-me-a-hanzi-clip-20">
        <path d="M 566 223 Q 571 223 577 223 Q 645 239 794 250 C 824 252 820 260 796 278 Q 790 282 786 286 Q 772 296 750 294 L 733 291 Q 643 269 572 259 C 542 255 536 223 566 223 Z"></path>
      </clipPath>
      <path clip-path="url(#make-me-a-hanzi-clip-20)" d="M 572 228 L 594 245 L 730 268 L 771 270 L 783 258" fill="none" id="make-me-a-hanzi-animation-20" stroke-dasharray="352 704" stroke-linecap="round"></path>
    
      <clipPath id="make-me-a-hanzi-clip-21">
        <path d="M 576 182 Q 563 116 396 -3 Q 380 -14 388 -16 Q 394 -17 402 -16 Q 470 -16 598 93 Q 600 98 651 139 Q 656 143 659 148 Q 672 172 632 186 Q 613 196 602 198 Q 580 201 576 182 Z"></path>
      </clipPath>
      <path clip-path="url(#make-me-a-hanzi-clip-21)" d="M 643 159 L 608 155 L 571 108 L 513 57 L 442 9 L 395 -11" fill="none" id="make-me-a-hanzi-animation-21" stroke-dasharray="437 874" stroke-linecap="round"></path>
    
      <clipPath id="make-me-a-hanzi-clip-22">
        <path d="M 747 158 Q 778 114 804 74 L 854 -5 Q 868 -29 882 -35 Q 886 -37 892 -35 Q 915 -27 913 23 Q 913 53 898 75 Q 891 83 880 94 Q 831 140 755 190 Q 750 194 746 191 Q 743 190 742 186 Q 736 172 747 158 Z"></path>
      </clipPath>
      <path clip-path="url(#make-me-a-hanzi-clip-22)" d="M 750 184 L 756 171 L 865 53 L 882 13 L 887 -17" fill="none" id="make-me-a-hanzi-animation-22" stroke-dasharray="377 754" stroke-linecap="round"></path>
    
  </g>
</svg>