<svg version="1.1" viewBox="0 0 1024 1024" xmlns="http://www.w3.org/2000/svg">
  <g stroke="lightgray" stroke-dasharray="1,1" stroke-width="1" transform="scale(4, 4)">
    <line x1="0" y1="0" x2="256" y2="256"></line>
    <line x1="256" y1="0" x2="0" y2="256"></line>
    <line x1="128" y1="0" x2="128" y2="256"></line>
    <line x1="0" y1="128" x2="256" y2="128"></line>
  </g>
  <g transform="scale(1, -1) translate(0, -900)">
    <style type="text/css">
      
        @keyframes keyframes0 {
          from {
            stroke: blue;
            stroke-dashoffset: 488;
            stroke-width: 128;
          }
          61% {
            animation-timing-function: step-end;
            stroke: blue;
            stroke-dashoffset: 0;
            stroke-width: 128;
          }
          to {
            stroke: black;
            stroke-width: 1024;
          }
        }
        #make-me-a-hanzi-animation-0 {
          animation: keyframes0 0.6471354166666666s both;
          animation-delay: 0s;
          animation-timing-function: linear;
        }
      
        @keyframes keyframes1 {
          from {
            stroke: blue;
            stroke-dashoffset: 402;
            stroke-width: 128;
          }
          57% {
            animation-timing-function: step-end;
            stroke: blue;
            stroke-dashoffset: 0;
            stroke-width: 128;
          }
          to {
            stroke: black;
            stroke-width: 1024;
          }
        }
        #make-me-a-hanzi-animation-1 {
          animation: keyframes1 0.5771484375s both;
          animation-delay: 0.6471354166666666s;
          animation-timing-function: linear;
        }
      
        @keyframes keyframes2 {
          from {
            stroke: blue;
            stroke-dashoffset: 603;
            stroke-width: 128;
          }
          66% {
            animation-timing-function: step-end;
            stroke: blue;
            stroke-dashoffset: 0;
            stroke-width: 128;
          }
          to {
            stroke: black;
            stroke-width: 1024;
          }
        }
        #make-me-a-hanzi-animation-2 {
          animation: keyframes2 0.74072265625s both;
          animation-delay: 1.2242838541666665s;
          animation-timing-function: linear;
        }
      
        @keyframes keyframes3 {
          from {
            stroke: blue;
            stroke-dashoffset: 503;
            stroke-width: 128;
          }
          62% {
            animation-timing-function: step-end;
            stroke: blue;
            stroke-dashoffset: 0;
            stroke-width: 128;
          }
          to {
            stroke: black;
            stroke-width: 1024;
          }
        }
        #make-me-a-hanzi-animation-3 {
          animation: keyframes3 0.6593424479166666s both;
          animation-delay: 1.9650065104166665s;
          animation-timing-function: linear;
        }
      
        @keyframes keyframes4 {
          from {
            stroke: blue;
            stroke-dashoffset: 825;
            stroke-width: 128;
          }
          73% {
            animation-timing-function: step-end;
            stroke: blue;
            stroke-dashoffset: 0;
            stroke-width: 128;
          }
          to {
            stroke: black;
            stroke-width: 1024;
          }
        }
        #make-me-a-hanzi-animation-4 {
          animation: keyframes4 0.92138671875s both;
          animation-delay: 2.624348958333333s;
          animation-timing-function: linear;
        }
      
        @keyframes keyframes5 {
          from {
            stroke: blue;
            stroke-dashoffset: 609;
            stroke-width: 128;
          }
          66% {
            animation-timing-function: step-end;
            stroke: blue;
            stroke-dashoffset: 0;
            stroke-width: 128;
          }
          to {
            stroke: black;
            stroke-width: 1024;
          }
        }
        #make-me-a-hanzi-animation-5 {
          animation: keyframes5 0.74560546875s both;
          animation-delay: 3.545735677083333s;
          animation-timing-function: linear;
        }
      
        @keyframes keyframes6 {
          from {
            stroke: blue;
            stroke-dashoffset: 405;
            stroke-width: 128;
          }
          57% {
            animation-timing-function: step-end;
            stroke: blue;
            stroke-dashoffset: 0;
            stroke-width: 128;
          }
          to {
            stroke: black;
            stroke-width: 1024;
          }
        }
        #make-me-a-hanzi-animation-6 {
          animation: keyframes6 0.57958984375s both;
          animation-delay: 4.291341145833333s;
          animation-timing-function: linear;
        }
      
        @keyframes keyframes7 {
          from {
            stroke: blue;
            stroke-dashoffset: 620;
            stroke-width: 128;
          }
          67% {
            animation-timing-function: step-end;
            stroke: blue;
            stroke-dashoffset: 0;
            stroke-width: 128;
          }
          to {
            stroke: black;
            stroke-width: 1024;
          }
        }
        #make-me-a-hanzi-animation-7 {
          animation: keyframes7 0.7545572916666666s both;
          animation-delay: 4.870930989583333s;
          animation-timing-function: linear;
        }
      
        @keyframes keyframes8 {
          from {
            stroke: blue;
            stroke-dashoffset: 832;
            stroke-width: 128;
          }
          73% {
            animation-timing-function: step-end;
            stroke: blue;
            stroke-dashoffset: 0;
            stroke-width: 128;
          }
          to {
            stroke: black;
            stroke-width: 1024;
          }
        }
        #make-me-a-hanzi-animation-8 {
          animation: keyframes8 0.9270833333333334s both;
          animation-delay: 5.62548828125s;
          animation-timing-function: linear;
        }
      
        @keyframes keyframes9 {
          from {
            stroke: blue;
            stroke-dashoffset: 867;
            stroke-width: 128;
          }
          74% {
            animation-timing-function: step-end;
            stroke: blue;
            stroke-dashoffset: 0;
            stroke-width: 128;
          }
          to {
            stroke: black;
            stroke-width: 1024;
          }
        }
        #make-me-a-hanzi-animation-9 {
          animation: keyframes9 0.95556640625s both;
          animation-delay: 6.552571614583333s;
          animation-timing-function: linear;
        }
      
        @keyframes keyframes10 {
          from {
            stroke: blue;
            stroke-dashoffset: 471;
            stroke-width: 128;
          }
          61% {
            animation-timing-function: step-end;
            stroke: blue;
            stroke-dashoffset: 0;
            stroke-width: 128;
          }
          to {
            stroke: black;
            stroke-width: 1024;
          }
        }
        #make-me-a-hanzi-animation-10 {
          animation: keyframes10 0.63330078125s both;
          animation-delay: 7.508138020833333s;
          animation-timing-function: linear;
        }
      
    </style>
    
      <path d="M 341 571 Q 347 620 353 664 L 356 693 Q 362 720 370 746 Q 374 756 355 770 Q 324 788 302 792 Q 287 796 280 788 Q 273 781 280 767 Q 301 740 301 557 C 301 527 337 541 341 571 Z" fill="lightgray"></path>
    
      <path d="M 353 664 Q 419 661 498 698 L 499 698 Q 506 707 500 714 Q 493 724 465 726 Q 437 727 411 712 Q 405 711 356 693 C 328 683 323 665 353 664 Z" fill="lightgray"></path>
    
      <path d="M 443 437 Q 464 506 493 531 Q 508 549 493 564 Q 477 576 429 596 Q 414 602 341 571 L 301 557 Q 261 547 222 537 C 193 530 201 492 229 504 Q 229 505 230 505 Q 242 511 381 546 Q 399 552 406 545 Q 418 533 398 444 C 392 415 434 408 443 437 Z" fill="lightgray"></path>
    
      <path d="M 214 367 Q 227 361 247 366 Q 313 384 457 403 Q 467 404 469 414 Q 469 421 443 437 C 424 449 424 449 398 444 Q 391 443 385 441 Q 292 413 217 397 C 188 391 185 376 214 367 Z" fill="lightgray"></path>
    
      <path d="M 222 537 Q 207 550 184 559 Q 166 569 154 564 Q 142 557 149 544 Q 188 478 143 254 Q 139 238 134 221 Q 109 145 50 42 Q 46 35 43 29 Q 42 19 51 21 Q 81 27 141 128 Q 151 146 161 167 Q 197 254 214 367 L 217 397 Q 218 410 220 424 Q 221 475 229 504 C 234 528 234 528 222 537 Z" fill="lightgray"></path>
    
      <path d="M 639 692 Q 744 717 877 732 Q 887 731 897 744 Q 898 757 874 767 Q 838 788 739 759 Q 730 758 721 755 Q 658 740 544 726 Q 514 722 538 704 Q 571 676 602 685 Q 603 686 605 685 L 639 692 Z" fill="lightgray"></path>
    
      <path d="M 591 550 Q 609 574 639 620 Q 646 633 659 649 Q 671 658 664 667 Q 658 679 639 692 C 615 709 601 715 605 685 Q 611 660 576 572 Q 572 562 569 552 C 560 523 573 526 591 550 Z" fill="lightgray"></path>
    
      <path d="M 569 552 Q 550 565 529 573 Q 522 574 515 567 Q 512 561 519 551 Q 552 478 526 324 Q 511 272 515 251 Q 522 220 534 208 Q 544 195 553 208 Q 577 238 578 325 Q 578 461 587 519 C 590 539 590 539 569 552 Z" fill="lightgray"></path>
    
      <path d="M 766 273 Q 759 251 772 229 Q 785 201 794 202 Q 807 203 823 235 Q 838 260 836 279 Q 812 475 848 528 Q 858 544 850 554 Q 823 578 776 597 Q 760 603 738 594 Q 683 567 591 550 C 561 544 535 512 587 519 Q 599 519 675 537 Q 742 556 759 546 Q 768 527 772 471 Q 775 305 766 273 Z" fill="lightgray"></path>
    
      <path d="M 646 397 Q 646 178 572 88 Q 560 78 547 65 Q 516 35 445 -2 Q 433 -6 430 -11 Q 426 -15 440 -18 Q 480 -22 572 32 Q 680 104 695 325 Q 695 376 712 425 Q 718 435 709 443 Q 661 486 625 476 Q 606 469 621 453 Q 646 425 646 397 Z" fill="lightgray"></path>
    
      <path d="M 711 134 Q 760 82 816 7 Q 832 -15 847 -21 Q 857 -22 865 -13 Q 880 0 870 47 Q 864 89 790 130 Q 742 155 715 167 Q 706 174 703 160 Q 702 147 711 134 Z" fill="lightgray"></path>
    
    
      <clipPath id="make-me-a-hanzi-clip-0">
        <path d="M 341 571 Q 347 620 353 664 L 356 693 Q 362 720 370 746 Q 374 756 355 770 Q 324 788 302 792 Q 287 796 280 788 Q 273 781 280 767 Q 301 740 301 557 C 301 527 337 541 341 571 Z"></path>
      </clipPath>
      <path clip-path="url(#make-me-a-hanzi-clip-0)" d="M 291 778 L 329 741 L 322 587 L 304 570" fill="none" id="make-me-a-hanzi-animation-0" stroke-dasharray="360 720" stroke-linecap="round"></path>
    
      <clipPath id="make-me-a-hanzi-clip-1">
        <path d="M 353 664 Q 419 661 498 698 L 499 698 Q 506 707 500 714 Q 493 724 465 726 Q 437 727 411 712 Q 405 711 356 693 C 328 683 323 665 353 664 Z"></path>
      </clipPath>
      <path clip-path="url(#make-me-a-hanzi-clip-1)" d="M 360 671 L 372 681 L 459 705 L 499 703" fill="none" id="make-me-a-hanzi-animation-1" stroke-dasharray="274 548" stroke-linecap="round"></path>
    
      <clipPath id="make-me-a-hanzi-clip-2">
        <path d="M 443 437 Q 464 506 493 531 Q 508 549 493 564 Q 477 576 429 596 Q 414 602 341 571 L 301 557 Q 261 547 222 537 C 193 530 201 492 229 504 Q 229 505 230 505 Q 242 511 381 546 Q 399 552 406 545 Q 418 533 398 444 C 392 415 434 408 443 437 Z"></path>
      </clipPath>
      <path clip-path="url(#make-me-a-hanzi-clip-2)" d="M 230 511 L 240 525 L 258 531 L 380 567 L 422 569 L 449 543 L 424 461 L 407 454" fill="none" id="make-me-a-hanzi-animation-2" stroke-dasharray="475 950" stroke-linecap="round"></path>
    
      <clipPath id="make-me-a-hanzi-clip-3">
        <path d="M 214 367 Q 227 361 247 366 Q 313 384 457 403 Q 467 404 469 414 Q 469 421 443 437 C 424 449 424 449 398 444 Q 391 443 385 441 Q 292 413 217 397 C 188 391 185 376 214 367 Z"></path>
      </clipPath>
      <path clip-path="url(#make-me-a-hanzi-clip-3)" d="M 221 374 L 256 388 L 383 417 L 433 420 L 461 413" fill="none" id="make-me-a-hanzi-animation-3" stroke-dasharray="375 750" stroke-linecap="round"></path>
    
      <clipPath id="make-me-a-hanzi-clip-4">
        <path d="M 222 537 Q 207 550 184 559 Q 166 569 154 564 Q 142 557 149 544 Q 188 478 143 254 Q 139 238 134 221 Q 109 145 50 42 Q 46 35 43 29 Q 42 19 51 21 Q 81 27 141 128 Q 151 146 161 167 Q 197 254 214 367 L 217 397 Q 218 410 220 424 Q 221 475 229 504 C 234 528 234 528 222 537 Z"></path>
      </clipPath>
      <path clip-path="url(#make-me-a-hanzi-clip-4)" d="M 159 552 L 190 522 L 196 505 L 191 392 L 177 297 L 149 195 L 119 127 L 70 49 L 52 30" fill="none" id="make-me-a-hanzi-animation-4" stroke-dasharray="697 1394" stroke-linecap="round"></path>
    
      <clipPath id="make-me-a-hanzi-clip-5">
        <path d="M 639 692 Q 744 717 877 732 Q 887 731 897 744 Q 898 757 874 767 Q 838 788 739 759 Q 730 758 721 755 Q 658 740 544 726 Q 514 722 538 704 Q 571 676 602 685 Q 603 686 605 685 L 639 692 Z"></path>
      </clipPath>
      <path clip-path="url(#make-me-a-hanzi-clip-5)" d="M 539 716 L 585 707 L 809 750 L 854 752 L 886 746" fill="none" id="make-me-a-hanzi-animation-5" stroke-dasharray="481 962" stroke-linecap="round"></path>
    
      <clipPath id="make-me-a-hanzi-clip-6">
        <path d="M 591 550 Q 609 574 639 620 Q 646 633 659 649 Q 671 658 664 667 Q 658 679 639 692 C 615 709 601 715 605 685 Q 611 660 576 572 Q 572 562 569 552 C 560 523 573 526 591 550 Z"></path>
      </clipPath>
      <path clip-path="url(#make-me-a-hanzi-clip-6)" d="M 612 682 L 632 659 L 590 571 L 575 556" fill="none" id="make-me-a-hanzi-animation-6" stroke-dasharray="277 554" stroke-linecap="round"></path>
    
      <clipPath id="make-me-a-hanzi-clip-7">
        <path d="M 569 552 Q 550 565 529 573 Q 522 574 515 567 Q 512 561 519 551 Q 552 478 526 324 Q 511 272 515 251 Q 522 220 534 208 Q 544 195 553 208 Q 577 238 578 325 Q 578 461 587 519 C 590 539 590 539 569 552 Z"></path>
      </clipPath>
      <path clip-path="url(#make-me-a-hanzi-clip-7)" d="M 525 563 L 551 535 L 559 514 L 557 393 L 542 249 L 544 212" fill="none" id="make-me-a-hanzi-animation-7" stroke-dasharray="492 984" stroke-linecap="round"></path>
    
      <clipPath id="make-me-a-hanzi-clip-8">
        <path d="M 766 273 Q 759 251 772 229 Q 785 201 794 202 Q 807 203 823 235 Q 838 260 836 279 Q 812 475 848 528 Q 858 544 850 554 Q 823 578 776 597 Q 760 603 738 594 Q 683 567 591 550 C 561 544 535 512 587 519 Q 599 519 675 537 Q 742 556 759 546 Q 768 527 772 471 Q 775 305 766 273 Z"></path>
      </clipPath>
      <path clip-path="url(#make-me-a-hanzi-clip-8)" d="M 574 548 L 596 535 L 760 573 L 785 561 L 803 539 L 803 287 L 795 213" fill="none" id="make-me-a-hanzi-animation-8" stroke-dasharray="704 1408" stroke-linecap="round"></path>
    
      <clipPath id="make-me-a-hanzi-clip-9">
        <path d="M 646 397 Q 646 178 572 88 Q 560 78 547 65 Q 516 35 445 -2 Q 433 -6 430 -11 Q 426 -15 440 -18 Q 480 -22 572 32 Q 680 104 695 325 Q 695 376 712 425 Q 718 435 709 443 Q 661 486 625 476 Q 606 469 621 453 Q 646 425 646 397 Z"></path>
      </clipPath>
      <path clip-path="url(#make-me-a-hanzi-clip-9)" d="M 626 464 L 651 453 L 676 426 L 666 275 L 638 157 L 599 86 L 553 42 L 489 5 L 436 -13" fill="none" id="make-me-a-hanzi-animation-9" stroke-dasharray="739 1478" stroke-linecap="round"></path>
    
      <clipPath id="make-me-a-hanzi-clip-10">
        <path d="M 711 134 Q 760 82 816 7 Q 832 -15 847 -21 Q 857 -22 865 -13 Q 880 0 870 47 Q 864 89 790 130 Q 742 155 715 167 Q 706 174 703 160 Q 702 147 711 134 Z"></path>
      </clipPath>
      <path clip-path="url(#make-me-a-hanzi-clip-10)" d="M 714 155 L 817 67 L 840 31 L 849 -5" fill="none" id="make-me-a-hanzi-animation-10" stroke-dasharray="343 686" stroke-linecap="round"></path>
    
  </g>
</svg>