<svg version="1.1" viewBox="0 0 1024 1024" xmlns="http://www.w3.org/2000/svg">
  <g stroke="lightgray" stroke-dasharray="1,1" stroke-width="1" transform="scale(4, 4)">
    <line x1="0" y1="0" x2="256" y2="256"></line>
    <line x1="256" y1="0" x2="0" y2="256"></line>
    <line x1="128" y1="0" x2="128" y2="256"></line>
    <line x1="0" y1="128" x2="256" y2="128"></line>
  </g>
  <g transform="scale(1, -1) translate(0, -900)">
    <style type="text/css">
      
        @keyframes keyframes0 {
          from {
            stroke: blue;
            stroke-dashoffset: 804;
            stroke-width: 128;
          }
          72% {
            animation-timing-function: step-end;
            stroke: blue;
            stroke-dashoffset: 0;
            stroke-width: 128;
          }
          to {
            stroke: black;
            stroke-width: 1024;
          }
        }
        #make-me-a-hanzi-animation-0 {
          animation: keyframes0 0.904296875s both;
          animation-delay: 0s;
          animation-timing-function: linear;
        }
      
        @keyframes keyframes1 {
          from {
            stroke: blue;
            stroke-dashoffset: 374;
            stroke-width: 128;
          }
          55% {
            animation-timing-function: step-end;
            stroke: blue;
            stroke-dashoffset: 0;
            stroke-width: 128;
          }
          to {
            stroke: black;
            stroke-width: 1024;
          }
        }
        #make-me-a-hanzi-animation-1 {
          animation: keyframes1 0.5543619791666666s both;
          animation-delay: 0.904296875s;
          animation-timing-function: linear;
        }
      
        @keyframes keyframes2 {
          from {
            stroke: blue;
            stroke-dashoffset: 341;
            stroke-width: 128;
          }
          53% {
            animation-timing-function: step-end;
            stroke: blue;
            stroke-dashoffset: 0;
            stroke-width: 128;
          }
          to {
            stroke: black;
            stroke-width: 1024;
          }
        }
        #make-me-a-hanzi-animation-2 {
          animation: keyframes2 0.5275065104166666s both;
          animation-delay: 1.4586588541666665s;
          animation-timing-function: linear;
        }
      
        @keyframes keyframes3 {
          from {
            stroke: blue;
            stroke-dashoffset: 666;
            stroke-width: 128;
          }
          68% {
            animation-timing-function: step-end;
            stroke: blue;
            stroke-dashoffset: 0;
            stroke-width: 128;
          }
          to {
            stroke: black;
            stroke-width: 1024;
          }
        }
        #make-me-a-hanzi-animation-3 {
          animation: keyframes3 0.7919921875s both;
          animation-delay: 1.986165364583333s;
          animation-timing-function: linear;
        }
      
        @keyframes keyframes4 {
          from {
            stroke: blue;
            stroke-dashoffset: 354;
            stroke-width: 128;
          }
          54% {
            animation-timing-function: step-end;
            stroke: blue;
            stroke-dashoffset: 0;
            stroke-width: 128;
          }
          to {
            stroke: black;
            stroke-width: 1024;
          }
        }
        #make-me-a-hanzi-animation-4 {
          animation: keyframes4 0.5380859375s both;
          animation-delay: 2.778157552083333s;
          animation-timing-function: linear;
        }
      
        @keyframes keyframes5 {
          from {
            stroke: blue;
            stroke-dashoffset: 361;
            stroke-width: 128;
          }
          54% {
            animation-timing-function: step-end;
            stroke: blue;
            stroke-dashoffset: 0;
            stroke-width: 128;
          }
          to {
            stroke: black;
            stroke-width: 1024;
          }
        }
        #make-me-a-hanzi-animation-5 {
          animation: keyframes5 0.5437825520833334s both;
          animation-delay: 3.316243489583333s;
          animation-timing-function: linear;
        }
      
        @keyframes keyframes6 {
          from {
            stroke: blue;
            stroke-dashoffset: 825;
            stroke-width: 128;
          }
          73% {
            animation-timing-function: step-end;
            stroke: blue;
            stroke-dashoffset: 0;
            stroke-width: 128;
          }
          to {
            stroke: black;
            stroke-width: 1024;
          }
        }
        #make-me-a-hanzi-animation-6 {
          animation: keyframes6 0.92138671875s both;
          animation-delay: 3.8600260416666665s;
          animation-timing-function: linear;
        }
      
        @keyframes keyframes7 {
          from {
            stroke: blue;
            stroke-dashoffset: 352;
            stroke-width: 128;
          }
          53% {
            animation-timing-function: step-end;
            stroke: blue;
            stroke-dashoffset: 0;
            stroke-width: 128;
          }
          to {
            stroke: black;
            stroke-width: 1024;
          }
        }
        #make-me-a-hanzi-animation-7 {
          animation: keyframes7 0.5364583333333334s both;
          animation-delay: 4.781412760416666s;
          animation-timing-function: linear;
        }
      
        @keyframes keyframes8 {
          from {
            stroke: blue;
            stroke-dashoffset: 610;
            stroke-width: 128;
          }
          67% {
            animation-timing-function: step-end;
            stroke: blue;
            stroke-dashoffset: 0;
            stroke-width: 128;
          }
          to {
            stroke: black;
            stroke-width: 1024;
          }
        }
        #make-me-a-hanzi-animation-8 {
          animation: keyframes8 0.7464192708333334s both;
          animation-delay: 5.317871093749999s;
          animation-timing-function: linear;
        }
      
        @keyframes keyframes9 {
          from {
            stroke: blue;
            stroke-dashoffset: 538;
            stroke-width: 128;
          }
          64% {
            animation-timing-function: step-end;
            stroke: blue;
            stroke-dashoffset: 0;
            stroke-width: 128;
          }
          to {
            stroke: black;
            stroke-width: 1024;
          }
        }
        #make-me-a-hanzi-animation-9 {
          animation: keyframes9 0.6878255208333334s both;
          animation-delay: 6.064290364583332s;
          animation-timing-function: linear;
        }
      
        @keyframes keyframes10 {
          from {
            stroke: blue;
            stroke-dashoffset: 1117;
            stroke-width: 128;
          }
          78% {
            animation-timing-function: step-end;
            stroke: blue;
            stroke-dashoffset: 0;
            stroke-width: 128;
          }
          to {
            stroke: black;
            stroke-width: 1024;
          }
        }
        #make-me-a-hanzi-animation-10 {
          animation: keyframes10 1.1590169270833333s both;
          animation-delay: 6.752115885416665s;
          animation-timing-function: linear;
        }
      
        @keyframes keyframes11 {
          from {
            stroke: blue;
            stroke-dashoffset: 882;
            stroke-width: 128;
          }
          74% {
            animation-timing-function: step-end;
            stroke: blue;
            stroke-dashoffset: 0;
            stroke-width: 128;
          }
          to {
            stroke: black;
            stroke-width: 1024;
          }
        }
        #make-me-a-hanzi-animation-11 {
          animation: keyframes11 0.9677734375s both;
          animation-delay: 7.911132812499998s;
          animation-timing-function: linear;
        }
      
    </style>
    
      <path d="M 215 508 Q 269 577 347 727 L 358 748 Q 365 764 372 770 Q 379 776 376 786 Q 373 796 360 806 Q 344 818 325 822 Q 303 826 293 823 Q 284 820 288 808 Q 312 721 188 542 Q 182 536 178 529 Q 141 477 44 376 Q 37 370 47 368 Q 57 369 82 388 Q 122 413 160 448 Q 176 464 195 484 L 215 508 Z" fill="lightgray"></path>
    
      <path d="M 347 727 Q 354 721 370 712 Q 403 693 439 669 Q 451 662 463 664 Q 470 665 473 676 Q 474 688 465 710 Q 450 740 360 748 L 358 748 C 328 750 323 746 347 727 Z" fill="lightgray"></path>
    
      <path d="M 324 626 Q 379 571 400 572 Q 412 572 415 588 Q 416 598 406 614 Q 387 641 326 648 Q 319 649 318 639 Q 318 632 324 626 Z" fill="lightgray"></path>
    
      <path d="M 362 293 Q 378 269 393 262 Q 403 255 415 275 Q 428 299 452 429 Q 458 457 477 479 Q 487 491 477 502 Q 464 515 424 537 Q 409 543 359 525 Q 337 525 257 491 C 229 479 238 450 266 461 Q 305 477 373 495 Q 388 499 395 495 Q 410 485 406 466 Q 385 328 370 315 C 359 297 359 297 362 293 Z" fill="lightgray"></path>
    
      <path d="M 261 362 Q 315 375 354 383 Q 373 387 365 398 Q 355 408 334 411 Q 301 414 262 390 C 236 375 232 355 261 362 Z" fill="lightgray"></path>
    
      <path d="M 257 270 Q 257 271 260 271 Q 318 286 362 293 C 392 298 395 298 370 315 Q 361 322 346 323 Q 322 324 258 296 C 230 284 228 261 257 270 Z" fill="lightgray"></path>
    
      <path d="M 362 191 Q 331 173 271 131 Q 262 125 259 128 Q 252 132 254 148 Q 255 217 257 270 L 258 296 Q 259 333 261 362 L 262 390 Q 263 445 266 461 C 269 485 269 485 257 491 Q 247 500 215 508 C 186 516 180 510 195 484 Q 237 427 219 220 Q 215 177 204 144 Q 200 111 167 73 Q 157 63 164 43 Q 173 18 186 7 Q 196 -2 209 12 Q 249 67 372 176 C 394 196 388 207 362 191 Z" fill="lightgray"></path>
    
      <path d="M 372 176 Q 393 146 408 144 Q 418 141 426 155 Q 429 165 424 184 Q 409 217 351 242 Q 344 243 341 235 Q 338 228 362 191 L 372 176 Z" fill="lightgray"></path>
    
      <path d="M 596 638 Q 621 680 649 738 Q 662 769 675 786 Q 682 796 676 808 Q 672 818 643 834 Q 618 847 601 844 Q 585 840 595 822 Q 608 804 603 786 Q 579 678 502 544 Q 495 534 493 528 Q 492 518 504 522 Q 526 529 584 619 L 596 638 Z" fill="lightgray"></path>
    
      <path d="M 584 619 Q 594 609 630 603 Q 651 602 756 628 Q 868 659 873 663 Q 880 672 876 680 Q 869 692 838 697 Q 811 700 720 667 Q 620 643 599 639 Q 596 639 596 638 C 567 631 567 631 584 619 Z" fill="lightgray"></path>
    
      <path d="M 673 392 Q 722 405 771 414 Q 784 415 789 409 Q 795 394 790 355 Q 774 214 744 140 Q 728 94 713 80 Q 701 70 631 92 Q 609 99 623 78 Q 659 32 676 -4 Q 683 -23 701 -19 Q 719 -18 742 5 Q 806 65 842 312 Q 849 367 873 398 Q 889 419 880 429 Q 865 447 831 462 Q 806 475 780 463 Q 738 445 681 428 L 632 415 Q 553 397 506 395 Q 487 396 487 386 Q 486 377 508 365 Q 535 349 558 357 Q 591 369 624 378 L 673 392 Z" fill="lightgray"></path>
    
      <path d="M 624 378 Q 579 213 393 17 Q 387 8 394 7 Q 401 6 411 11 Q 594 129 662 350 Q 666 371 673 392 L 681 428 Q 687 464 707 512 Q 714 522 707 531 Q 700 540 669 551 Q 647 560 638 556 Q 626 552 629 537 Q 642 480 632 415 L 624 378 Z" fill="lightgray"></path>
    
    
      <clipPath id="make-me-a-hanzi-clip-0">
        <path d="M 215 508 Q 269 577 347 727 L 358 748 Q 365 764 372 770 Q 379 776 376 786 Q 373 796 360 806 Q 344 818 325 822 Q 303 826 293 823 Q 284 820 288 808 Q 312 721 188 542 Q 182 536 178 529 Q 141 477 44 376 Q 37 370 47 368 Q 57 369 82 388 Q 122 413 160 448 Q 176 464 195 484 L 215 508 Z"></path>
      </clipPath>
      <path clip-path="url(#make-me-a-hanzi-clip-0)" d="M 299 813 L 331 779 L 317 731 L 277 644 L 185 503 L 123 436 L 50 374" fill="none" id="make-me-a-hanzi-animation-0" stroke-dasharray="676 1352" stroke-linecap="round"></path>
    
      <clipPath id="make-me-a-hanzi-clip-1">
        <path d="M 347 727 Q 354 721 370 712 Q 403 693 439 669 Q 451 662 463 664 Q 470 665 473 676 Q 474 688 465 710 Q 450 740 360 748 L 358 748 C 328 750 323 746 347 727 Z"></path>
      </clipPath>
      <path clip-path="url(#make-me-a-hanzi-clip-1)" d="M 359 741 L 435 703 L 457 679" fill="none" id="make-me-a-hanzi-animation-1" stroke-dasharray="246 492" stroke-linecap="round"></path>
    
      <clipPath id="make-me-a-hanzi-clip-2">
        <path d="M 324 626 Q 379 571 400 572 Q 412 572 415 588 Q 416 598 406 614 Q 387 641 326 648 Q 319 649 318 639 Q 318 632 324 626 Z"></path>
      </clipPath>
      <path clip-path="url(#make-me-a-hanzi-clip-2)" d="M 330 637 L 372 613 L 399 588" fill="none" id="make-me-a-hanzi-animation-2" stroke-dasharray="213 426" stroke-linecap="round"></path>
    
      <clipPath id="make-me-a-hanzi-clip-3">
        <path d="M 362 293 Q 378 269 393 262 Q 403 255 415 275 Q 428 299 452 429 Q 458 457 477 479 Q 487 491 477 502 Q 464 515 424 537 Q 409 543 359 525 Q 337 525 257 491 C 229 479 238 450 266 461 Q 305 477 373 495 Q 388 499 395 495 Q 410 485 406 466 Q 385 328 370 315 C 359 297 359 297 362 293 Z"></path>
      </clipPath>
      <path clip-path="url(#make-me-a-hanzi-clip-3)" d="M 268 470 L 277 483 L 294 490 L 390 516 L 415 512 L 434 496 L 440 487 L 428 449 L 413 356 L 394 298 L 399 278" fill="none" id="make-me-a-hanzi-animation-3" stroke-dasharray="538 1076" stroke-linecap="round"></path>
    
      <clipPath id="make-me-a-hanzi-clip-4">
        <path d="M 261 362 Q 315 375 354 383 Q 373 387 365 398 Q 355 408 334 411 Q 301 414 262 390 C 236 375 232 355 261 362 Z"></path>
      </clipPath>
      <path clip-path="url(#make-me-a-hanzi-clip-4)" d="M 269 369 L 276 382 L 304 391 L 337 396 L 357 392" fill="none" id="make-me-a-hanzi-animation-4" stroke-dasharray="226 452" stroke-linecap="round"></path>
    
      <clipPath id="make-me-a-hanzi-clip-5">
        <path d="M 257 270 Q 257 271 260 271 Q 318 286 362 293 C 392 298 395 298 370 315 Q 361 322 346 323 Q 322 324 258 296 C 230 284 228 261 257 270 Z"></path>
      </clipPath>
      <path clip-path="url(#make-me-a-hanzi-clip-5)" d="M 267 279 L 271 289 L 362 312" fill="none" id="make-me-a-hanzi-animation-5" stroke-dasharray="233 466" stroke-linecap="round"></path>
    
      <clipPath id="make-me-a-hanzi-clip-6">
        <path d="M 362 191 Q 331 173 271 131 Q 262 125 259 128 Q 252 132 254 148 Q 255 217 257 270 L 258 296 Q 259 333 261 362 L 262 390 Q 263 445 266 461 C 269 485 269 485 257 491 Q 247 500 215 508 C 186 516 180 510 195 484 Q 237 427 219 220 Q 215 177 204 144 Q 200 111 167 73 Q 157 63 164 43 Q 173 18 186 7 Q 196 -2 209 12 Q 249 67 372 176 C 394 196 388 207 362 191 Z"></path>
      </clipPath>
      <path clip-path="url(#make-me-a-hanzi-clip-6)" d="M 205 486 L 223 482 L 233 472 L 243 401 L 238 221 L 228 134 L 231 98 L 250 100 L 281 115 L 358 174 L 360 184" fill="none" id="make-me-a-hanzi-animation-6" stroke-dasharray="697 1394" stroke-linecap="round"></path>
    
      <clipPath id="make-me-a-hanzi-clip-7">
        <path d="M 372 176 Q 393 146 408 144 Q 418 141 426 155 Q 429 165 424 184 Q 409 217 351 242 Q 344 243 341 235 Q 338 228 362 191 L 372 176 Z"></path>
      </clipPath>
      <path clip-path="url(#make-me-a-hanzi-clip-7)" d="M 350 233 L 389 193 L 411 160" fill="none" id="make-me-a-hanzi-animation-7" stroke-dasharray="224 448" stroke-linecap="round"></path>
    
      <clipPath id="make-me-a-hanzi-clip-8">
        <path d="M 596 638 Q 621 680 649 738 Q 662 769 675 786 Q 682 796 676 808 Q 672 818 643 834 Q 618 847 601 844 Q 585 840 595 822 Q 608 804 603 786 Q 579 678 502 544 Q 495 534 493 528 Q 492 518 504 522 Q 526 529 584 619 L 596 638 Z"></path>
      </clipPath>
      <path clip-path="url(#make-me-a-hanzi-clip-8)" d="M 603 832 L 626 816 L 639 796 L 637 788 L 604 701 L 563 617 L 501 529" fill="none" id="make-me-a-hanzi-animation-8" stroke-dasharray="482 964" stroke-linecap="round"></path>
    
      <clipPath id="make-me-a-hanzi-clip-9">
        <path d="M 584 619 Q 594 609 630 603 Q 651 602 756 628 Q 868 659 873 663 Q 880 672 876 680 Q 869 692 838 697 Q 811 700 720 667 Q 620 643 599 639 Q 596 639 596 638 C 567 631 567 631 584 619 Z"></path>
      </clipPath>
      <path clip-path="url(#make-me-a-hanzi-clip-9)" d="M 591 621 L 699 637 L 834 674 L 867 671" fill="none" id="make-me-a-hanzi-animation-9" stroke-dasharray="410 820" stroke-linecap="round"></path>
    
      <clipPath id="make-me-a-hanzi-clip-10">
        <path d="M 673 392 Q 722 405 771 414 Q 784 415 789 409 Q 795 394 790 355 Q 774 214 744 140 Q 728 94 713 80 Q 701 70 631 92 Q 609 99 623 78 Q 659 32 676 -4 Q 683 -23 701 -19 Q 719 -18 742 5 Q 806 65 842 312 Q 849 367 873 398 Q 889 419 880 429 Q 865 447 831 462 Q 806 475 780 463 Q 738 445 681 428 L 632 415 Q 553 397 506 395 Q 487 396 487 386 Q 486 377 508 365 Q 535 349 558 357 Q 591 369 624 378 L 673 392 Z"></path>
      </clipPath>
      <path clip-path="url(#make-me-a-hanzi-clip-10)" d="M 497 385 L 522 377 L 548 377 L 783 438 L 808 436 L 832 414 L 785 167 L 763 103 L 739 57 L 706 33 L 625 86" fill="none" id="make-me-a-hanzi-animation-10" stroke-dasharray="989 1978" stroke-linecap="round"></path>
    
      <clipPath id="make-me-a-hanzi-clip-11">
        <path d="M 624 378 Q 579 213 393 17 Q 387 8 394 7 Q 401 6 411 11 Q 594 129 662 350 Q 666 371 673 392 L 681 428 Q 687 464 707 512 Q 714 522 707 531 Q 700 540 669 551 Q 647 560 638 556 Q 626 552 629 537 Q 642 480 632 415 L 624 378 Z"></path>
      </clipPath>
      <path clip-path="url(#make-me-a-hanzi-clip-11)" d="M 642 542 L 666 518 L 668 500 L 643 361 L 615 287 L 588 232 L 520 132 L 459 65 L 398 12" fill="none" id="make-me-a-hanzi-animation-11" stroke-dasharray="754 1508" stroke-linecap="round"></path>
    
  </g>
</svg>