<svg version="1.1" viewBox="0 0 1024 1024" xmlns="http://www.w3.org/2000/svg">
  <g stroke="lightgray" stroke-dasharray="1,1" stroke-width="1" transform="scale(4, 4)">
    <line x1="0" y1="0" x2="256" y2="256"></line>
    <line x1="256" y1="0" x2="0" y2="256"></line>
    <line x1="128" y1="0" x2="128" y2="256"></line>
    <line x1="0" y1="128" x2="256" y2="128"></line>
  </g>
  <g transform="scale(1, -1) translate(0, -900)">
    <style type="text/css">
      
        @keyframes keyframes0 {
          from {
            stroke: blue;
            stroke-dashoffset: 821;
            stroke-width: 128;
          }
          73% {
            animation-timing-function: step-end;
            stroke: blue;
            stroke-dashoffset: 0;
            stroke-width: 128;
          }
          to {
            stroke: black;
            stroke-width: 1024;
          }
        }
        #make-me-a-hanzi-animation-0 {
          animation: keyframes0 0.9181315104166666s both;
          animation-delay: 0s;
          animation-timing-function: linear;
        }
      
        @keyframes keyframes1 {
          from {
            stroke: blue;
            stroke-dashoffset: 384;
            stroke-width: 128;
          }
          56% {
            animation-timing-function: step-end;
            stroke: blue;
            stroke-dashoffset: 0;
            stroke-width: 128;
          }
          to {
            stroke: black;
            stroke-width: 1024;
          }
        }
        #make-me-a-hanzi-animation-1 {
          animation: keyframes1 0.5625s both;
          animation-delay: 0.9181315104166666s;
          animation-timing-function: linear;
        }
      
        @keyframes keyframes2 {
          from {
            stroke: blue;
            stroke-dashoffset: 346;
            stroke-width: 128;
          }
          53% {
            animation-timing-function: step-end;
            stroke: blue;
            stroke-dashoffset: 0;
            stroke-width: 128;
          }
          to {
            stroke: black;
            stroke-width: 1024;
          }
        }
        #make-me-a-hanzi-animation-2 {
          animation: keyframes2 0.5315755208333334s both;
          animation-delay: 1.4806315104166665s;
          animation-timing-function: linear;
        }
      
        @keyframes keyframes3 {
          from {
            stroke: blue;
            stroke-dashoffset: 673;
            stroke-width: 128;
          }
          69% {
            animation-timing-function: step-end;
            stroke: blue;
            stroke-dashoffset: 0;
            stroke-width: 128;
          }
          to {
            stroke: black;
            stroke-width: 1024;
          }
        }
        #make-me-a-hanzi-animation-3 {
          animation: keyframes3 0.7976888020833334s both;
          animation-delay: 2.01220703125s;
          animation-timing-function: linear;
        }
      
        @keyframes keyframes4 {
          from {
            stroke: blue;
            stroke-dashoffset: 355;
            stroke-width: 128;
          }
          54% {
            animation-timing-function: step-end;
            stroke: blue;
            stroke-dashoffset: 0;
            stroke-width: 128;
          }
          to {
            stroke: black;
            stroke-width: 1024;
          }
        }
        #make-me-a-hanzi-animation-4 {
          animation: keyframes4 0.5388997395833334s both;
          animation-delay: 2.8098958333333335s;
          animation-timing-function: linear;
        }
      
        @keyframes keyframes5 {
          from {
            stroke: blue;
            stroke-dashoffset: 378;
            stroke-width: 128;
          }
          55% {
            animation-timing-function: step-end;
            stroke: blue;
            stroke-dashoffset: 0;
            stroke-width: 128;
          }
          to {
            stroke: black;
            stroke-width: 1024;
          }
        }
        #make-me-a-hanzi-animation-5 {
          animation: keyframes5 0.5576171875s both;
          animation-delay: 3.348795572916667s;
          animation-timing-function: linear;
        }
      
        @keyframes keyframes6 {
          from {
            stroke: blue;
            stroke-dashoffset: 797;
            stroke-width: 128;
          }
          72% {
            animation-timing-function: step-end;
            stroke: blue;
            stroke-dashoffset: 0;
            stroke-width: 128;
          }
          to {
            stroke: black;
            stroke-width: 1024;
          }
        }
        #make-me-a-hanzi-animation-6 {
          animation: keyframes6 0.8986002604166666s both;
          animation-delay: 3.906412760416667s;
          animation-timing-function: linear;
        }
      
        @keyframes keyframes7 {
          from {
            stroke: blue;
            stroke-dashoffset: 356;
            stroke-width: 128;
          }
          54% {
            animation-timing-function: step-end;
            stroke: blue;
            stroke-dashoffset: 0;
            stroke-width: 128;
          }
          to {
            stroke: black;
            stroke-width: 1024;
          }
        }
        #make-me-a-hanzi-animation-7 {
          animation: keyframes7 0.5397135416666666s both;
          animation-delay: 4.805013020833334s;
          animation-timing-function: linear;
        }
      
        @keyframes keyframes8 {
          from {
            stroke: blue;
            stroke-dashoffset: 666;
            stroke-width: 128;
          }
          68% {
            animation-timing-function: step-end;
            stroke: blue;
            stroke-dashoffset: 0;
            stroke-width: 128;
          }
          to {
            stroke: black;
            stroke-width: 1024;
          }
        }
        #make-me-a-hanzi-animation-8 {
          animation: keyframes8 0.7919921875s both;
          animation-delay: 5.344726562500001s;
          animation-timing-function: linear;
        }
      
        @keyframes keyframes9 {
          from {
            stroke: blue;
            stroke-dashoffset: 647;
            stroke-width: 128;
          }
          68% {
            animation-timing-function: step-end;
            stroke: blue;
            stroke-dashoffset: 0;
            stroke-width: 128;
          }
          to {
            stroke: black;
            stroke-width: 1024;
          }
        }
        #make-me-a-hanzi-animation-9 {
          animation: keyframes9 0.7765299479166666s both;
          animation-delay: 6.136718750000001s;
          animation-timing-function: linear;
        }
      
        @keyframes keyframes10 {
          from {
            stroke: blue;
            stroke-dashoffset: 763;
            stroke-width: 128;
          }
          71% {
            animation-timing-function: step-end;
            stroke: blue;
            stroke-dashoffset: 0;
            stroke-width: 128;
          }
          to {
            stroke: black;
            stroke-width: 1024;
          }
        }
        #make-me-a-hanzi-animation-10 {
          animation: keyframes10 0.8709309895833334s both;
          animation-delay: 6.913248697916668s;
          animation-timing-function: linear;
        }
      
        @keyframes keyframes11 {
          from {
            stroke: blue;
            stroke-dashoffset: 662;
            stroke-width: 128;
          }
          68% {
            animation-timing-function: step-end;
            stroke: blue;
            stroke-dashoffset: 0;
            stroke-width: 128;
          }
          to {
            stroke: black;
            stroke-width: 1024;
          }
        }
        #make-me-a-hanzi-animation-11 {
          animation: keyframes11 0.7887369791666666s both;
          animation-delay: 7.784179687500001s;
          animation-timing-function: linear;
        }
      
    </style>
    
      <path d="M 219 483 Q 274 553 312 617 L 321 633 Q 340 669 365 712 L 376 733 Q 379 743 396 764 Q 403 770 401 780 Q 398 790 384 801 Q 368 814 348 818 Q 326 824 315 820 Q 306 817 310 805 Q 335 718 197 526 Q 194 523 192 519 Q 153 467 52 364 Q 45 358 55 356 Q 65 357 91 376 Q 134 401 173 436 Q 185 448 198 461 L 219 483 Z" fill="lightgray"></path>
    
      <path d="M 365 712 Q 371 706 388 698 Q 425 679 468 655 Q 480 648 492 651 Q 499 652 501 664 Q 502 676 491 697 Q 473 730 376 733 C 346 734 342 731 365 712 Z" fill="lightgray"></path>
    
      <path d="M 312 617 Q 315 611 369 572 Q 385 560 400 562 Q 412 563 414 580 Q 414 592 402 608 Q 390 621 368 625 Q 335 634 321 633 C 299 633 299 633 312 617 Z" fill="lightgray"></path>
    
      <path d="M 376 286 Q 391 265 405 258 Q 415 251 427 270 Q 440 292 463 413 Q 470 440 489 463 Q 499 473 489 486 Q 476 499 437 521 Q 422 527 367 510 Q 271 480 250 473 C 221 464 244 435 272 446 Q 312 462 384 480 Q 400 483 407 479 Q 420 470 417 452 Q 399 329 389 318 C 377 291 375 287 376 286 Z" fill="lightgray"></path>
    
      <path d="M 268 352 Q 320 365 362 373 Q 383 379 374 389 Q 364 402 340 403 Q 307 406 269 383 C 243 368 239 345 268 352 Z" fill="lightgray"></path>
    
      <path d="M 267 265 Q 325 278 376 286 C 406 291 416 306 389 318 Q 368 331 267 293 C 239 282 238 258 267 265 Z" fill="lightgray"></path>
    
      <path d="M 376 179 Q 345 163 285 129 Q 275 125 272 128 Q 265 131 267 146 Q 267 213 267 265 L 267 293 Q 267 327 268 352 L 269 383 Q 269 414 272 446 C 273 464 273 464 250 473 Q 240 479 219 483 C 190 490 183 487 198 461 Q 226 422 230 313 Q 230 297 230 275 Q 230 139 177 74 Q 158 56 187 15 Q 190 12 194 8 Q 204 -1 217 12 Q 260 64 388 163 C 412 181 403 193 376 179 Z" fill="lightgray"></path>
    
      <path d="M 388 163 Q 400 139 422 136 Q 434 133 442 149 Q 445 161 439 180 Q 432 198 409 210 Q 375 232 360 238 Q 351 241 349 230 Q 346 220 376 179 L 388 163 Z" fill="lightgray"></path>
    
      <path d="M 596 524 Q 650 626 679 699 Q 692 738 706 758 Q 713 770 705 782 Q 698 794 666 810 Q 636 822 619 818 Q 601 812 613 792 Q 653 738 529 469 Q 526 465 524 459 Q 517 447 516 441 Q 515 429 528 435 Q 537 439 580 497 L 596 524 Z" fill="lightgray"></path>
    
      <path d="M 580 497 Q 598 481 621 488 Q 673 509 732 522 Q 763 531 773 528 Q 785 518 781 510 Q 781 504 732 432 Q 725 423 729 416 Q 733 412 745 422 Q 848 486 892 500 Q 902 501 904 510 Q 905 523 877 540 Q 855 555 833 569 Q 806 585 791 579 Q 718 548 596 524 C 567 518 555 514 580 497 Z" fill="lightgray"></path>
    
      <path d="M 633 268 Q 640 302 648 346 Q 652 370 657 380 Q 664 387 658 397 Q 652 404 623 416 Q 592 432 575 426 Q 565 420 573 404 Q 609 313 546 177 Q 540 168 535 158 Q 493 91 376 30 Q 351 17 381 17 Q 462 14 545 88 Q 555 100 567 114 Q 609 168 626 241 L 633 268 Z" fill="lightgray"></path>
    
      <path d="M 626 241 Q 761 27 803 14 Q 890 14 942 22 Q 951 25 952 29 Q 953 33 941 41 Q 806 101 719 183 Q 707 195 633 268 C 612 289 610 266 626 241 Z" fill="lightgray"></path>
    
    
      <clipPath id="make-me-a-hanzi-clip-0">
        <path d="M 219 483 Q 274 553 312 617 L 321 633 Q 340 669 365 712 L 376 733 Q 379 743 396 764 Q 403 770 401 780 Q 398 790 384 801 Q 368 814 348 818 Q 326 824 315 820 Q 306 817 310 805 Q 335 718 197 526 Q 194 523 192 519 Q 153 467 52 364 Q 45 358 55 356 Q 65 357 91 376 Q 134 401 173 436 Q 185 448 198 461 L 219 483 Z"></path>
      </clipPath>
      <path clip-path="url(#make-me-a-hanzi-clip-0)" d="M 321 810 L 354 774 L 336 719 L 288 623 L 189 480 L 114 406 L 58 362" fill="none" id="make-me-a-hanzi-animation-0" stroke-dasharray="693 1386" stroke-linecap="round"></path>
    
      <clipPath id="make-me-a-hanzi-clip-1">
        <path d="M 365 712 Q 371 706 388 698 Q 425 679 468 655 Q 480 648 492 651 Q 499 652 501 664 Q 502 676 491 697 Q 473 730 376 733 C 346 734 342 731 365 712 Z"></path>
      </clipPath>
      <path clip-path="url(#make-me-a-hanzi-clip-1)" d="M 373 714 L 389 716 L 439 701 L 467 686 L 485 665" fill="none" id="make-me-a-hanzi-animation-1" stroke-dasharray="256 512" stroke-linecap="round"></path>
    
      <clipPath id="make-me-a-hanzi-clip-2">
        <path d="M 312 617 Q 315 611 369 572 Q 385 560 400 562 Q 412 563 414 580 Q 414 592 402 608 Q 390 621 368 625 Q 335 634 321 633 C 299 633 299 633 312 617 Z"></path>
      </clipPath>
      <path clip-path="url(#make-me-a-hanzi-clip-2)" d="M 318 619 L 369 601 L 397 578" fill="none" id="make-me-a-hanzi-animation-2" stroke-dasharray="218 436" stroke-linecap="round"></path>
    
      <clipPath id="make-me-a-hanzi-clip-3">
        <path d="M 376 286 Q 391 265 405 258 Q 415 251 427 270 Q 440 292 463 413 Q 470 440 489 463 Q 499 473 489 486 Q 476 499 437 521 Q 422 527 367 510 Q 271 480 250 473 C 221 464 244 435 272 446 Q 312 462 384 480 Q 400 483 407 479 Q 420 470 417 452 Q 399 329 389 318 C 377 291 375 287 376 286 Z"></path>
      </clipPath>
      <path clip-path="url(#make-me-a-hanzi-clip-3)" d="M 255 469 L 283 466 L 400 501 L 428 496 L 446 480 L 451 471 L 407 288 L 411 273" fill="none" id="make-me-a-hanzi-animation-3" stroke-dasharray="545 1090" stroke-linecap="round"></path>
    
      <clipPath id="make-me-a-hanzi-clip-4">
        <path d="M 268 352 Q 320 365 362 373 Q 383 379 374 389 Q 364 402 340 403 Q 307 406 269 383 C 243 368 239 345 268 352 Z"></path>
      </clipPath>
      <path clip-path="url(#make-me-a-hanzi-clip-4)" d="M 274 360 L 285 373 L 311 382 L 345 387 L 365 383" fill="none" id="make-me-a-hanzi-animation-4" stroke-dasharray="227 454" stroke-linecap="round"></path>
    
      <clipPath id="make-me-a-hanzi-clip-5">
        <path d="M 267 265 Q 325 278 376 286 C 406 291 416 306 389 318 Q 368 331 267 293 C 239 282 238 258 267 265 Z"></path>
      </clipPath>
      <path clip-path="url(#make-me-a-hanzi-clip-5)" d="M 274 272 L 283 286 L 363 302 L 384 314" fill="none" id="make-me-a-hanzi-animation-5" stroke-dasharray="250 500" stroke-linecap="round"></path>
    
      <clipPath id="make-me-a-hanzi-clip-6">
        <path d="M 376 179 Q 345 163 285 129 Q 275 125 272 128 Q 265 131 267 146 Q 267 213 267 265 L 267 293 Q 267 327 268 352 L 269 383 Q 269 414 272 446 C 273 464 273 464 250 473 Q 240 479 219 483 C 190 490 183 487 198 461 Q 226 422 230 313 Q 230 297 230 275 Q 230 139 177 74 Q 158 56 187 15 Q 190 12 194 8 Q 204 -1 217 12 Q 260 64 388 163 C 412 181 403 193 376 179 Z"></path>
      </clipPath>
      <path clip-path="url(#make-me-a-hanzi-clip-6)" d="M 208 462 L 234 451 L 244 424 L 249 258 L 238 116 L 242 97 L 294 111 L 372 163 L 374 171" fill="none" id="make-me-a-hanzi-animation-6" stroke-dasharray="669 1338" stroke-linecap="round"></path>
    
      <clipPath id="make-me-a-hanzi-clip-7">
        <path d="M 388 163 Q 400 139 422 136 Q 434 133 442 149 Q 445 161 439 180 Q 432 198 409 210 Q 375 232 360 238 Q 351 241 349 230 Q 346 220 376 179 L 388 163 Z"></path>
      </clipPath>
      <path clip-path="url(#make-me-a-hanzi-clip-7)" d="M 359 227 L 410 178 L 425 153" fill="none" id="make-me-a-hanzi-animation-7" stroke-dasharray="228 456" stroke-linecap="round"></path>
    
      <clipPath id="make-me-a-hanzi-clip-8">
        <path d="M 596 524 Q 650 626 679 699 Q 692 738 706 758 Q 713 770 705 782 Q 698 794 666 810 Q 636 822 619 818 Q 601 812 613 792 Q 653 738 529 469 Q 526 465 524 459 Q 517 447 516 441 Q 515 429 528 435 Q 537 439 580 497 L 596 524 Z"></path>
      </clipPath>
      <path clip-path="url(#make-me-a-hanzi-clip-8)" d="M 623 803 L 650 784 L 663 765 L 652 717 L 591 556 L 524 442" fill="none" id="make-me-a-hanzi-animation-8" stroke-dasharray="538 1076" stroke-linecap="round"></path>
    
      <clipPath id="make-me-a-hanzi-clip-9">
        <path d="M 580 497 Q 598 481 621 488 Q 673 509 732 522 Q 763 531 773 528 Q 785 518 781 510 Q 781 504 732 432 Q 725 423 729 416 Q 733 412 745 422 Q 848 486 892 500 Q 902 501 904 510 Q 905 523 877 540 Q 855 555 833 569 Q 806 585 791 579 Q 718 548 596 524 C 567 518 555 514 580 497 Z"></path>
      </clipPath>
      <path clip-path="url(#make-me-a-hanzi-clip-9)" d="M 591 500 L 770 549 L 809 542 L 826 520 L 817 505 L 732 420" fill="none" id="make-me-a-hanzi-animation-9" stroke-dasharray="519 1038" stroke-linecap="round"></path>
    
      <clipPath id="make-me-a-hanzi-clip-10">
        <path d="M 633 268 Q 640 302 648 346 Q 652 370 657 380 Q 664 387 658 397 Q 652 404 623 416 Q 592 432 575 426 Q 565 420 573 404 Q 609 313 546 177 Q 540 168 535 158 Q 493 91 376 30 Q 351 17 381 17 Q 462 14 545 88 Q 555 100 567 114 Q 609 168 626 241 L 633 268 Z"></path>
      </clipPath>
      <path clip-path="url(#make-me-a-hanzi-clip-10)" d="M 582 416 L 617 380 L 618 359 L 603 254 L 573 171 L 544 126 L 510 90 L 449 49 L 388 27" fill="none" id="make-me-a-hanzi-animation-10" stroke-dasharray="635 1270" stroke-linecap="round"></path>
    
      <clipPath id="make-me-a-hanzi-clip-11">
        <path d="M 626 241 Q 761 27 803 14 Q 890 14 942 22 Q 951 25 952 29 Q 953 33 941 41 Q 806 101 719 183 Q 707 195 633 268 C 612 289 610 266 626 241 Z"></path>
      </clipPath>
      <path clip-path="url(#make-me-a-hanzi-clip-11)" d="M 641 259 L 642 235 L 721 144 L 799 69 L 815 57 L 945 29" fill="none" id="make-me-a-hanzi-animation-11" stroke-dasharray="534 1068" stroke-linecap="round"></path>
    
  </g>
</svg>