<svg version="1.1" viewBox="0 0 1024 1024" xmlns="http://www.w3.org/2000/svg">
  <g stroke="lightgray" stroke-dasharray="1,1" stroke-width="1" transform="scale(4, 4)">
    <line x1="0" y1="0" x2="256" y2="256"></line>
    <line x1="256" y1="0" x2="0" y2="256"></line>
    <line x1="128" y1="0" x2="128" y2="256"></line>
    <line x1="0" y1="128" x2="256" y2="128"></line>
  </g>
  <g transform="scale(1, -1) translate(0, -900)">
    <style type="text/css">
      
        @keyframes keyframes0 {
          from {
            stroke: blue;
            stroke-dashoffset: 802;
            stroke-width: 128;
          }
          72% {
            animation-timing-function: step-end;
            stroke: blue;
            stroke-dashoffset: 0;
            stroke-width: 128;
          }
          to {
            stroke: black;
            stroke-width: 1024;
          }
        }
        #make-me-a-hanzi-animation-0 {
          animation: keyframes0 0.9026692708333334s both;
          animation-delay: 0s;
          animation-timing-function: linear;
        }
      
        @keyframes keyframes1 {
          from {
            stroke: blue;
            stroke-dashoffset: 576;
            stroke-width: 128;
          }
          65% {
            animation-timing-function: step-end;
            stroke: blue;
            stroke-dashoffset: 0;
            stroke-width: 128;
          }
          to {
            stroke: black;
            stroke-width: 1024;
          }
        }
        #make-me-a-hanzi-animation-1 {
          animation: keyframes1 0.71875s both;
          animation-delay: 0.9026692708333334s;
          animation-timing-function: linear;
        }
      
        @keyframes keyframes2 {
          from {
            stroke: blue;
            stroke-dashoffset: 753;
            stroke-width: 128;
          }
          71% {
            animation-timing-function: step-end;
            stroke: blue;
            stroke-dashoffset: 0;
            stroke-width: 128;
          }
          to {
            stroke: black;
            stroke-width: 1024;
          }
        }
        #make-me-a-hanzi-animation-2 {
          animation: keyframes2 0.86279296875s both;
          animation-delay: 1.6214192708333335s;
          animation-timing-function: linear;
        }
      
        @keyframes keyframes3 {
          from {
            stroke: blue;
            stroke-dashoffset: 617;
            stroke-width: 128;
          }
          67% {
            animation-timing-function: step-end;
            stroke: blue;
            stroke-dashoffset: 0;
            stroke-width: 128;
          }
          to {
            stroke: black;
            stroke-width: 1024;
          }
        }
        #make-me-a-hanzi-animation-3 {
          animation: keyframes3 0.7521158854166666s both;
          animation-delay: 2.4842122395833335s;
          animation-timing-function: linear;
        }
      
        @keyframes keyframes4 {
          from {
            stroke: blue;
            stroke-dashoffset: 647;
            stroke-width: 128;
          }
          68% {
            animation-timing-function: step-end;
            stroke: blue;
            stroke-dashoffset: 0;
            stroke-width: 128;
          }
          to {
            stroke: black;
            stroke-width: 1024;
          }
        }
        #make-me-a-hanzi-animation-4 {
          animation: keyframes4 0.7765299479166666s both;
          animation-delay: 3.236328125s;
          animation-timing-function: linear;
        }
      
        @keyframes keyframes5 {
          from {
            stroke: blue;
            stroke-dashoffset: 392;
            stroke-width: 128;
          }
          56% {
            animation-timing-function: step-end;
            stroke: blue;
            stroke-dashoffset: 0;
            stroke-width: 128;
          }
          to {
            stroke: black;
            stroke-width: 1024;
          }
        }
        #make-me-a-hanzi-animation-5 {
          animation: keyframes5 0.5690104166666666s both;
          animation-delay: 4.012858072916667s;
          animation-timing-function: linear;
        }
      
        @keyframes keyframes6 {
          from {
            stroke: blue;
            stroke-dashoffset: 576;
            stroke-width: 128;
          }
          65% {
            animation-timing-function: step-end;
            stroke: blue;
            stroke-dashoffset: 0;
            stroke-width: 128;
          }
          to {
            stroke: black;
            stroke-width: 1024;
          }
        }
        #make-me-a-hanzi-animation-6 {
          animation: keyframes6 0.71875s both;
          animation-delay: 4.581868489583334s;
          animation-timing-function: linear;
        }
      
        @keyframes keyframes7 {
          from {
            stroke: blue;
            stroke-dashoffset: 364;
            stroke-width: 128;
          }
          54% {
            animation-timing-function: step-end;
            stroke: blue;
            stroke-dashoffset: 0;
            stroke-width: 128;
          }
          to {
            stroke: black;
            stroke-width: 1024;
          }
        }
        #make-me-a-hanzi-animation-7 {
          animation: keyframes7 0.5462239583333334s both;
          animation-delay: 5.300618489583334s;
          animation-timing-function: linear;
        }
      
        @keyframes keyframes8 {
          from {
            stroke: blue;
            stroke-dashoffset: 781;
            stroke-width: 128;
          }
          72% {
            animation-timing-function: step-end;
            stroke: blue;
            stroke-dashoffset: 0;
            stroke-width: 128;
          }
          to {
            stroke: black;
            stroke-width: 1024;
          }
        }
        #make-me-a-hanzi-animation-8 {
          animation: keyframes8 0.8855794270833334s both;
          animation-delay: 5.846842447916667s;
          animation-timing-function: linear;
        }
      
        @keyframes keyframes9 {
          from {
            stroke: blue;
            stroke-dashoffset: 407;
            stroke-width: 128;
          }
          57% {
            animation-timing-function: step-end;
            stroke: blue;
            stroke-dashoffset: 0;
            stroke-width: 128;
          }
          to {
            stroke: black;
            stroke-width: 1024;
          }
        }
        #make-me-a-hanzi-animation-9 {
          animation: keyframes9 0.5812174479166666s both;
          animation-delay: 6.732421875s;
          animation-timing-function: linear;
        }
      
        @keyframes keyframes10 {
          from {
            stroke: blue;
            stroke-dashoffset: 515;
            stroke-width: 128;
          }
          63% {
            animation-timing-function: step-end;
            stroke: blue;
            stroke-dashoffset: 0;
            stroke-width: 128;
          }
          to {
            stroke: black;
            stroke-width: 1024;
          }
        }
        #make-me-a-hanzi-animation-10 {
          animation: keyframes10 0.6691080729166666s both;
          animation-delay: 7.313639322916667s;
          animation-timing-function: linear;
        }
      
    </style>
    
      <path d="M 288 584 Q 316 642 355 730 Q 362 746 368 754 Q 375 761 371 771 Q 367 781 353 790 Q 337 802 316 804 Q 294 808 283 804 Q 274 800 279 788 Q 310 710 198 518 Q 194 512 189 504 Q 155 452 67 344 Q 60 337 71 337 Q 114 343 224 478 Q 266 547 277 564 L 288 584 Z" fill="lightgray"></path>
    
      <path d="M 277 564 Q 298 558 385 578 Q 395 581 397 578 Q 401 575 397 566 Q 373 499 357 467 Q 351 454 350 448 Q 349 438 360 444 Q 372 450 423 514 Q 454 556 487 579 Q 503 589 491 601 Q 478 611 442 629 Q 426 633 413 624 Q 404 620 329 594 Q 310 590 288 584 C 259 576 247 568 277 564 Z" fill="lightgray"></path>
    
      <path d="M 317 400 Q 323 413 313 423 Q 291 444 270 454 Q 254 461 245 456 Q 235 450 243 436 Q 279 358 259 199 Q 255 153 218 107 Q 206 94 213 72 Q 223 47 234 35 Q 247 28 258 44 Q 273 69 406 178 Q 424 190 428 198 Q 432 208 422 208 Q 409 208 312 156 Q 302 150 301 160 Q 313 269 313 353 Q 313 378 317 400 Z" fill="lightgray"></path>
    
      <path d="M 620 636 Q 644 670 671 711 Q 689 742 704 757 Q 711 767 708 778 Q 704 788 679 808 Q 657 823 641 822 Q 625 821 632 802 Q 650 765 578 646 Q 544 591 497 530 Q 490 521 487 516 Q 484 506 496 509 Q 521 512 592 600 Q 599 610 610 622 L 620 636 Z" fill="lightgray"></path>
    
      <path d="M 610 622 Q 625 607 684 621 Q 735 636 739 632 Q 743 628 737 616 Q 694 522 666 479 Q 656 461 654 453 Q 653 443 665 448 Q 680 457 748 544 Q 791 601 833 633 Q 851 643 838 656 Q 823 668 786 687 Q 770 691 755 682 Q 746 676 670 649 Q 648 642 620 636 C 594 630 594 630 610 622 Z" fill="lightgray"></path>
    
      <path d="M 500 333 Q 527 345 572 369 Q 588 379 607 385 Q 623 389 618 405 Q 609 418 591 432 Q 575 445 564 444 Q 554 444 557 434 Q 557 413 513 372 Q 498 360 484 346 C 463 325 473 321 500 333 Z" fill="lightgray"></path>
    
      <path d="M 484 346 Q 460 361 436 366 Q 429 369 424 363 Q 417 357 426 346 Q 465 286 476 132 Q 482 60 519 43 Q 537 39 537 68 Q 537 75 536 83 L 533 110 Q 527 140 516 212 Q 515 218 514 222 L 511 250 Q 501 332 500 333 C 499 337 499 337 484 346 Z" fill="lightgray"></path>
    
      <path d="M 514 222 Q 574 234 617 244 Q 639 250 630 261 Q 618 274 594 276 Q 557 276 511 250 C 485 235 485 216 514 222 Z" fill="lightgray"></path>
    
      <path d="M 772 94 Q 785 75 802 36 Q 812 18 828 29 Q 858 47 875 160 Q 902 331 920 356 Q 933 375 917 389 Q 860 446 822 430 Q 810 430 793 427 Q 756 423 713 424 Q 704 424 703 415 Q 702 405 716 396 Q 734 386 802 388 Q 832 392 838 387 Q 847 381 846 360 Q 843 323 839 283 L 834 247 Q 816 127 805 120 C 792 93 761 113 772 94 Z" fill="lightgray"></path>
    
      <path d="M 839 283 Q 815 299 690 270 Q 687 270 685 269 Q 667 268 687 249 Q 694 242 711 243 Q 781 247 834 247 C 864 247 866 270 839 283 Z" fill="lightgray"></path>
    
      <path d="M 536 83 Q 551 74 570 77 Q 636 89 772 94 C 802 95 827 100 805 120 Q 775 150 734 141 Q 625 119 537 112 Q 534 112 533 110 C 504 102 509 96 536 83 Z" fill="lightgray"></path>
    
    
      <clipPath id="make-me-a-hanzi-clip-0">
        <path d="M 288 584 Q 316 642 355 730 Q 362 746 368 754 Q 375 761 371 771 Q 367 781 353 790 Q 337 802 316 804 Q 294 808 283 804 Q 274 800 279 788 Q 310 710 198 518 Q 194 512 189 504 Q 155 452 67 344 Q 60 337 71 337 Q 114 343 224 478 Q 266 547 277 564 L 288 584 Z"></path>
      </clipPath>
      <path clip-path="url(#make-me-a-hanzi-clip-0)" d="M 287 794 L 325 760 L 301 674 L 269 600 L 187 463 L 126 391 L 73 343" fill="none" id="make-me-a-hanzi-animation-0" stroke-dasharray="674 1348" stroke-linecap="round"></path>
    
      <clipPath id="make-me-a-hanzi-clip-1">
        <path d="M 277 564 Q 298 558 385 578 Q 395 581 397 578 Q 401 575 397 566 Q 373 499 357 467 Q 351 454 350 448 Q 349 438 360 444 Q 372 450 423 514 Q 454 556 487 579 Q 503 589 491 601 Q 478 611 442 629 Q 426 633 413 624 Q 404 620 329 594 Q 310 590 288 584 C 259 576 247 568 277 564 Z"></path>
      </clipPath>
      <path clip-path="url(#make-me-a-hanzi-clip-1)" d="M 281 568 L 400 598 L 436 588 L 389 495 L 357 450" fill="none" id="make-me-a-hanzi-animation-1" stroke-dasharray="448 896" stroke-linecap="round"></path>
    
      <clipPath id="make-me-a-hanzi-clip-2">
        <path d="M 317 400 Q 323 413 313 423 Q 291 444 270 454 Q 254 461 245 456 Q 235 450 243 436 Q 279 358 259 199 Q 255 153 218 107 Q 206 94 213 72 Q 223 47 234 35 Q 247 28 258 44 Q 273 69 406 178 Q 424 190 428 198 Q 432 208 422 208 Q 409 208 312 156 Q 302 150 301 160 Q 313 269 313 353 Q 313 378 317 400 Z"></path>
      </clipPath>
      <path clip-path="url(#make-me-a-hanzi-clip-2)" d="M 252 445 L 273 425 L 287 397 L 289 279 L 275 158 L 279 125 L 313 131 L 421 201" fill="none" id="make-me-a-hanzi-animation-2" stroke-dasharray="625 1250" stroke-linecap="round"></path>
    
      <clipPath id="make-me-a-hanzi-clip-3">
        <path d="M 620 636 Q 644 670 671 711 Q 689 742 704 757 Q 711 767 708 778 Q 704 788 679 808 Q 657 823 641 822 Q 625 821 632 802 Q 650 765 578 646 Q 544 591 497 530 Q 490 521 487 516 Q 484 506 496 509 Q 521 512 592 600 Q 599 610 610 622 L 620 636 Z"></path>
      </clipPath>
      <path clip-path="url(#make-me-a-hanzi-clip-3)" d="M 641 810 L 660 792 L 669 771 L 653 732 L 572 601 L 494 516" fill="none" id="make-me-a-hanzi-animation-3" stroke-dasharray="489 978" stroke-linecap="round"></path>
    
      <clipPath id="make-me-a-hanzi-clip-4">
        <path d="M 610 622 Q 625 607 684 621 Q 735 636 739 632 Q 743 628 737 616 Q 694 522 666 479 Q 656 461 654 453 Q 653 443 665 448 Q 680 457 748 544 Q 791 601 833 633 Q 851 643 838 656 Q 823 668 786 687 Q 770 691 755 682 Q 746 676 670 649 Q 648 642 620 636 C 594 630 594 630 610 622 Z"></path>
      </clipPath>
      <path clip-path="url(#make-me-a-hanzi-clip-4)" d="M 616 623 L 670 632 L 743 654 L 780 643 L 726 544 L 662 456" fill="none" id="make-me-a-hanzi-animation-4" stroke-dasharray="519 1038" stroke-linecap="round"></path>
    
      <clipPath id="make-me-a-hanzi-clip-5">
        <path d="M 500 333 Q 527 345 572 369 Q 588 379 607 385 Q 623 389 618 405 Q 609 418 591 432 Q 575 445 564 444 Q 554 444 557 434 Q 557 413 513 372 Q 498 360 484 346 C 463 325 473 321 500 333 Z"></path>
      </clipPath>
      <path clip-path="url(#make-me-a-hanzi-clip-5)" d="M 568 434 L 577 404 L 502 346 L 492 347" fill="none" id="make-me-a-hanzi-animation-5" stroke-dasharray="264 528" stroke-linecap="round"></path>
    
      <clipPath id="make-me-a-hanzi-clip-6">
        <path d="M 484 346 Q 460 361 436 366 Q 429 369 424 363 Q 417 357 426 346 Q 465 286 476 132 Q 482 60 519 43 Q 537 39 537 68 Q 537 75 536 83 L 533 110 Q 527 140 516 212 Q 515 218 514 222 L 511 250 Q 501 332 500 333 C 499 337 499 337 484 346 Z"></path>
      </clipPath>
      <path clip-path="url(#make-me-a-hanzi-clip-6)" d="M 432 355 L 448 345 L 474 314 L 502 125 L 522 58" fill="none" id="make-me-a-hanzi-animation-6" stroke-dasharray="448 896" stroke-linecap="round"></path>
    
      <clipPath id="make-me-a-hanzi-clip-7">
        <path d="M 514 222 Q 574 234 617 244 Q 639 250 630 261 Q 618 274 594 276 Q 557 276 511 250 C 485 235 485 216 514 222 Z"></path>
      </clipPath>
      <path clip-path="url(#make-me-a-hanzi-clip-7)" d="M 521 230 L 528 242 L 540 246 L 589 257 L 620 255" fill="none" id="make-me-a-hanzi-animation-7" stroke-dasharray="236 472" stroke-linecap="round"></path>
    
      <clipPath id="make-me-a-hanzi-clip-8">
        <path d="M 772 94 Q 785 75 802 36 Q 812 18 828 29 Q 858 47 875 160 Q 902 331 920 356 Q 933 375 917 389 Q 860 446 822 430 Q 810 430 793 427 Q 756 423 713 424 Q 704 424 703 415 Q 702 405 716 396 Q 734 386 802 388 Q 832 392 838 387 Q 847 381 846 360 Q 843 323 839 283 L 834 247 Q 816 127 805 120 C 792 93 761 113 772 94 Z"></path>
      </clipPath>
      <path clip-path="url(#make-me-a-hanzi-clip-8)" d="M 714 413 L 742 406 L 847 409 L 865 397 L 883 370 L 852 177 L 836 112 L 822 87 L 817 41" fill="none" id="make-me-a-hanzi-animation-8" stroke-dasharray="653 1306" stroke-linecap="round"></path>
    
      <clipPath id="make-me-a-hanzi-clip-9">
        <path d="M 839 283 Q 815 299 690 270 Q 687 270 685 269 Q 667 268 687 249 Q 694 242 711 243 Q 781 247 834 247 C 864 247 866 270 839 283 Z"></path>
      </clipPath>
      <path clip-path="url(#make-me-a-hanzi-clip-9)" d="M 685 259 L 813 267 L 833 278" fill="none" id="make-me-a-hanzi-animation-9" stroke-dasharray="279 558" stroke-linecap="round"></path>
    
      <clipPath id="make-me-a-hanzi-clip-10">
        <path d="M 536 83 Q 551 74 570 77 Q 636 89 772 94 C 802 95 827 100 805 120 Q 775 150 734 141 Q 625 119 537 112 Q 534 112 533 110 C 504 102 509 96 536 83 Z"></path>
      </clipPath>
      <path clip-path="url(#make-me-a-hanzi-clip-10)" d="M 539 104 L 563 95 L 795 121" fill="none" id="make-me-a-hanzi-animation-10" stroke-dasharray="387 774" stroke-linecap="round"></path>
    
  </g>
</svg>