<svg version="1.1" viewBox="0 0 1024 1024" xmlns="http://www.w3.org/2000/svg">
  <g stroke="lightgray" stroke-dasharray="1,1" stroke-width="1" transform="scale(4, 4)">
    <line x1="0" y1="0" x2="256" y2="256"></line>
    <line x1="256" y1="0" x2="0" y2="256"></line>
    <line x1="128" y1="0" x2="128" y2="256"></line>
    <line x1="0" y1="128" x2="256" y2="128"></line>
  </g>
  <g transform="scale(1, -1) translate(0, -900)">
    <style type="text/css">
      
        @keyframes keyframes0 {
          from {
            stroke: blue;
            stroke-dashoffset: 863;
            stroke-width: 128;
          }
          74% {
            animation-timing-function: step-end;
            stroke: blue;
            stroke-dashoffset: 0;
            stroke-width: 128;
          }
          to {
            stroke: black;
            stroke-width: 1024;
          }
        }
        #make-me-a-hanzi-animation-0 {
          animation: keyframes0 0.9523111979166666s both;
          animation-delay: 0s;
          animation-timing-function: linear;
        }
      
        @keyframes keyframes1 {
          from {
            stroke: blue;
            stroke-dashoffset: 564;
            stroke-width: 128;
          }
          65% {
            animation-timing-function: step-end;
            stroke: blue;
            stroke-dashoffset: 0;
            stroke-width: 128;
          }
          to {
            stroke: black;
            stroke-width: 1024;
          }
        }
        #make-me-a-hanzi-animation-1 {
          animation: keyframes1 0.708984375s both;
          animation-delay: 0.9523111979166666s;
          animation-timing-function: linear;
        }
      
        @keyframes keyframes2 {
          from {
            stroke: blue;
            stroke-dashoffset: 778;
            stroke-width: 128;
          }
          72% {
            animation-timing-function: step-end;
            stroke: blue;
            stroke-dashoffset: 0;
            stroke-width: 128;
          }
          to {
            stroke: black;
            stroke-width: 1024;
          }
        }
        #make-me-a-hanzi-animation-2 {
          animation: keyframes2 0.8831380208333334s both;
          animation-delay: 1.6612955729166665s;
          animation-timing-function: linear;
        }
      
        @keyframes keyframes3 {
          from {
            stroke: blue;
            stroke-dashoffset: 397;
            stroke-width: 128;
          }
          56% {
            animation-timing-function: step-end;
            stroke: blue;
            stroke-dashoffset: 0;
            stroke-width: 128;
          }
          to {
            stroke: black;
            stroke-width: 1024;
          }
        }
        #make-me-a-hanzi-animation-3 {
          animation: keyframes3 0.5730794270833334s both;
          animation-delay: 2.54443359375s;
          animation-timing-function: linear;
        }
      
        @keyframes keyframes4 {
          from {
            stroke: blue;
            stroke-dashoffset: 423;
            stroke-width: 128;
          }
          58% {
            animation-timing-function: step-end;
            stroke: blue;
            stroke-dashoffset: 0;
            stroke-width: 128;
          }
          to {
            stroke: black;
            stroke-width: 1024;
          }
        }
        #make-me-a-hanzi-animation-4 {
          animation: keyframes4 0.59423828125s both;
          animation-delay: 3.1175130208333335s;
          animation-timing-function: linear;
        }
      
        @keyframes keyframes5 {
          from {
            stroke: blue;
            stroke-dashoffset: 694;
            stroke-width: 128;
          }
          69% {
            animation-timing-function: step-end;
            stroke: blue;
            stroke-dashoffset: 0;
            stroke-width: 128;
          }
          to {
            stroke: black;
            stroke-width: 1024;
          }
        }
        #make-me-a-hanzi-animation-5 {
          animation: keyframes5 0.8147786458333334s both;
          animation-delay: 3.7117513020833335s;
          animation-timing-function: linear;
        }
      
        @keyframes keyframes6 {
          from {
            stroke: blue;
            stroke-dashoffset: 794;
            stroke-width: 128;
          }
          72% {
            animation-timing-function: step-end;
            stroke: blue;
            stroke-dashoffset: 0;
            stroke-width: 128;
          }
          to {
            stroke: black;
            stroke-width: 1024;
          }
        }
        #make-me-a-hanzi-animation-6 {
          animation: keyframes6 0.8961588541666666s both;
          animation-delay: 4.526529947916667s;
          animation-timing-function: linear;
        }
      
        @keyframes keyframes7 {
          from {
            stroke: blue;
            stroke-dashoffset: 538;
            stroke-width: 128;
          }
          64% {
            animation-timing-function: step-end;
            stroke: blue;
            stroke-dashoffset: 0;
            stroke-width: 128;
          }
          to {
            stroke: black;
            stroke-width: 1024;
          }
        }
        #make-me-a-hanzi-animation-7 {
          animation: keyframes7 0.6878255208333334s both;
          animation-delay: 5.422688802083334s;
          animation-timing-function: linear;
        }
      
        @keyframes keyframes8 {
          from {
            stroke: blue;
            stroke-dashoffset: 446;
            stroke-width: 128;
          }
          59% {
            animation-timing-function: step-end;
            stroke: blue;
            stroke-dashoffset: 0;
            stroke-width: 128;
          }
          to {
            stroke: black;
            stroke-width: 1024;
          }
        }
        #make-me-a-hanzi-animation-8 {
          animation: keyframes8 0.6129557291666666s both;
          animation-delay: 6.110514322916667s;
          animation-timing-function: linear;
        }
      
        @keyframes keyframes9 {
          from {
            stroke: blue;
            stroke-dashoffset: 602;
            stroke-width: 128;
          }
          66% {
            animation-timing-function: step-end;
            stroke: blue;
            stroke-dashoffset: 0;
            stroke-width: 128;
          }
          to {
            stroke: black;
            stroke-width: 1024;
          }
        }
        #make-me-a-hanzi-animation-9 {
          animation: keyframes9 0.7399088541666666s both;
          animation-delay: 6.723470052083334s;
          animation-timing-function: linear;
        }
      
        @keyframes keyframes10 {
          from {
            stroke: blue;
            stroke-dashoffset: 504;
            stroke-width: 128;
          }
          62% {
            animation-timing-function: step-end;
            stroke: blue;
            stroke-dashoffset: 0;
            stroke-width: 128;
          }
          to {
            stroke: black;
            stroke-width: 1024;
          }
        }
        #make-me-a-hanzi-animation-10 {
          animation: keyframes10 0.66015625s both;
          animation-delay: 7.463378906250001s;
          animation-timing-function: linear;
        }
      
    </style>
    
      <path d="M 272 589 Q 354 749 365 761 Q 375 774 368 788 Q 362 801 329 823 Q 299 839 279 837 Q 260 833 270 811 Q 289 775 278 743 Q 220 562 56 326 Q 46 313 45 307 Q 42 294 57 299 Q 117 315 261 569 L 272 589 Z" fill="lightgray"></path>
    
      <path d="M 261 569 Q 280 563 369 587 Q 379 590 382 588 Q 385 585 382 578 Q 361 517 348 489 Q 344 477 342 472 Q 341 462 352 468 Q 362 474 411 532 Q 441 569 471 591 Q 487 601 474 613 Q 461 623 425 641 Q 409 645 396 635 Q 387 629 312 601 Q 294 594 272 589 C 243 582 231 572 261 569 Z" fill="lightgray"></path>
    
      <path d="M 321 416 Q 325 431 316 442 Q 291 464 268 475 Q 249 482 240 477 Q 230 470 239 455 Q 281 362 258 188 Q 251 148 217 107 Q 205 91 213 67 Q 223 39 237 28 Q 250 21 263 37 Q 276 65 412 183 Q 431 196 436 206 Q 440 216 430 216 Q 417 216 319 162 Q 309 156 307 166 Q 317 280 317 368 Q 316 395 321 416 Z" fill="lightgray"></path>
    
      <path d="M 631 765 Q 662 743 694 713 Q 707 701 722 703 Q 732 704 737 716 Q 741 731 731 759 Q 719 790 625 811 Q 610 814 604 811 Q 600 807 601 795 Q 605 785 631 765 Z" fill="lightgray"></path>
    
      <path d="M 548 630 Q 536 660 515 671 Q 511 675 506 671 Q 502 667 501 656 Q 505 626 477 560 Q 467 544 468 526 Q 472 507 481 493 Q 488 483 494 490 Q 506 493 521 540 Q 536 586 544 602 Q 544 603 545 604 C 553 619 553 619 548 630 Z" fill="lightgray"></path>
    
      <path d="M 545 604 Q 564 595 618 610 Q 703 644 806 656 Q 810 656 814 656 Q 827 644 824 638 Q 825 635 821 622 Q 797 556 805 553 Q 812 550 827 562 Q 875 599 915 614 Q 949 627 947 635 Q 946 645 875 687 Q 854 702 768 679 Q 726 678 548 630 C 519 622 516 610 545 604 Z" fill="lightgray"></path>
    
      <path d="M 593 222 Q 593 264 594 307 L 595 335 Q 596 407 601 435 C 604 456 604 456 596 464 Q 583 483 539 496 Q 529 497 523 490 Q 520 484 528 473 Q 573 361 540 122 Q 516 22 520 7 Q 529 -27 540 -40 Q 552 -53 562 -39 Q 577 -23 588 53 L 591 85 Q 591 137 593 192 L 593 222 Z" fill="lightgray"></path>
    
      <path d="M 771 370 Q 787 428 806 445 Q 828 473 805 486 Q 784 498 756 515 Q 737 525 718 513 Q 693 497 661 484 Q 633 474 596 464 C 567 456 571 430 601 435 Q 610 436 622 440 Q 662 452 698 460 Q 722 467 727 457 Q 733 453 728 427 Q 724 402 716 372 C 708 343 763 341 771 370 Z" fill="lightgray"></path>
    
      <path d="M 594 307 Q 601 306 613 309 Q 665 325 780 345 Q 789 346 789 354 Q 789 361 771 370 C 748 382 745 381 716 372 Q 649 350 595 335 C 566 327 564 308 594 307 Z" fill="lightgray"></path>
    
      <path d="M 813 122 Q 834 183 863 204 Q 879 223 864 241 Q 846 254 793 277 Q 775 284 754 275 Q 699 250 593 222 C 564 214 563 188 593 192 Q 605 192 747 226 Q 762 230 768 224 Q 780 212 759 123 C 752 94 803 94 813 122 Z" fill="lightgray"></path>
    
      <path d="M 588 53 Q 594 47 619 52 Q 686 68 832 83 Q 842 84 844 94 Q 844 103 813 122 C 796 133 788 131 759 123 Q 665 98 591 85 C 561 80 560 64 588 53 Z" fill="lightgray"></path>
    
    
      <clipPath id="make-me-a-hanzi-clip-0">
        <path d="M 272 589 Q 354 749 365 761 Q 375 774 368 788 Q 362 801 329 823 Q 299 839 279 837 Q 260 833 270 811 Q 289 775 278 743 Q 220 562 56 326 Q 46 313 45 307 Q 42 294 57 299 Q 117 315 261 569 L 272 589 Z"></path>
      </clipPath>
      <path clip-path="url(#make-me-a-hanzi-clip-0)" d="M 281 822 L 316 789 L 323 772 L 277 657 L 222 547 L 155 435 L 95 350 L 54 308" fill="none" id="make-me-a-hanzi-animation-0" stroke-dasharray="735 1470" stroke-linecap="round"></path>
    
      <clipPath id="make-me-a-hanzi-clip-1">
        <path d="M 261 569 Q 280 563 369 587 Q 379 590 382 588 Q 385 585 382 578 Q 361 517 348 489 Q 344 477 342 472 Q 341 462 352 468 Q 362 474 411 532 Q 441 569 471 591 Q 487 601 474 613 Q 461 623 425 641 Q 409 645 396 635 Q 387 629 312 601 Q 294 594 272 589 C 243 582 231 572 261 569 Z"></path>
      </clipPath>
      <path clip-path="url(#make-me-a-hanzi-clip-1)" d="M 265 573 L 384 608 L 417 603 L 420 598 L 407 567 L 348 473" fill="none" id="make-me-a-hanzi-animation-1" stroke-dasharray="436 872" stroke-linecap="round"></path>
    
      <clipPath id="make-me-a-hanzi-clip-2">
        <path d="M 321 416 Q 325 431 316 442 Q 291 464 268 475 Q 249 482 240 477 Q 230 470 239 455 Q 281 362 258 188 Q 251 148 217 107 Q 205 91 213 67 Q 223 39 237 28 Q 250 21 263 37 Q 276 65 412 183 Q 431 196 436 206 Q 440 216 430 216 Q 417 216 319 162 Q 309 156 307 166 Q 317 280 317 368 Q 316 395 321 416 Z"></path>
      </clipPath>
      <path clip-path="url(#make-me-a-hanzi-clip-2)" d="M 248 466 L 287 422 L 292 319 L 279 159 L 284 128 L 320 135 L 429 209" fill="none" id="make-me-a-hanzi-animation-2" stroke-dasharray="650 1300" stroke-linecap="round"></path>
    
      <clipPath id="make-me-a-hanzi-clip-3">
        <path d="M 631 765 Q 662 743 694 713 Q 707 701 722 703 Q 732 704 737 716 Q 741 731 731 759 Q 719 790 625 811 Q 610 814 604 811 Q 600 807 601 795 Q 605 785 631 765 Z"></path>
      </clipPath>
      <path clip-path="url(#make-me-a-hanzi-clip-3)" d="M 609 805 L 690 758 L 719 721" fill="none" id="make-me-a-hanzi-animation-3" stroke-dasharray="269 538" stroke-linecap="round"></path>
    
      <clipPath id="make-me-a-hanzi-clip-4">
        <path d="M 548 630 Q 536 660 515 671 Q 511 675 506 671 Q 502 667 501 656 Q 505 626 477 560 Q 467 544 468 526 Q 472 507 481 493 Q 488 483 494 490 Q 506 493 521 540 Q 536 586 544 602 Q 544 603 545 604 C 553 619 553 619 548 630 Z"></path>
      </clipPath>
      <path clip-path="url(#make-me-a-hanzi-clip-4)" d="M 511 661 L 521 639 L 522 613 L 492 531 L 490 502" fill="none" id="make-me-a-hanzi-animation-4" stroke-dasharray="295 590" stroke-linecap="round"></path>
    
      <clipPath id="make-me-a-hanzi-clip-5">
        <path d="M 545 604 Q 564 595 618 610 Q 703 644 806 656 Q 810 656 814 656 Q 827 644 824 638 Q 825 635 821 622 Q 797 556 805 553 Q 812 550 827 562 Q 875 599 915 614 Q 949 627 947 635 Q 946 645 875 687 Q 854 702 768 679 Q 726 678 548 630 C 519 622 516 610 545 604 Z"></path>
      </clipPath>
      <path clip-path="url(#make-me-a-hanzi-clip-5)" d="M 552 610 L 565 619 L 695 652 L 823 673 L 850 662 L 868 641 L 809 558" fill="none" id="make-me-a-hanzi-animation-5" stroke-dasharray="566 1132" stroke-linecap="round"></path>
    
      <clipPath id="make-me-a-hanzi-clip-6">
        <path d="M 593 222 Q 593 264 594 307 L 595 335 Q 596 407 601 435 C 604 456 604 456 596 464 Q 583 483 539 496 Q 529 497 523 490 Q 520 484 528 473 Q 573 361 540 122 Q 516 22 520 7 Q 529 -27 540 -40 Q 552 -53 562 -39 Q 577 -23 588 53 L 591 85 Q 591 137 593 192 L 593 222 Z"></path>
      </clipPath>
      <path clip-path="url(#make-me-a-hanzi-clip-6)" d="M 531 486 L 543 480 L 568 450 L 574 382 L 572 200 L 550 13 L 551 -34" fill="none" id="make-me-a-hanzi-animation-6" stroke-dasharray="666 1332" stroke-linecap="round"></path>
    
      <clipPath id="make-me-a-hanzi-clip-7">
        <path d="M 771 370 Q 787 428 806 445 Q 828 473 805 486 Q 784 498 756 515 Q 737 525 718 513 Q 693 497 661 484 Q 633 474 596 464 C 567 456 571 430 601 435 Q 610 436 622 440 Q 662 452 698 460 Q 722 467 727 457 Q 733 453 728 427 Q 724 402 716 372 C 708 343 763 341 771 370 Z"></path>
      </clipPath>
      <path clip-path="url(#make-me-a-hanzi-clip-7)" d="M 605 443 L 621 456 L 724 488 L 746 484 L 768 462 L 750 398 L 723 378" fill="none" id="make-me-a-hanzi-animation-7" stroke-dasharray="410 820" stroke-linecap="round"></path>
    
      <clipPath id="make-me-a-hanzi-clip-8">
        <path d="M 594 307 Q 601 306 613 309 Q 665 325 780 345 Q 789 346 789 354 Q 789 361 771 370 C 748 382 745 381 716 372 Q 649 350 595 335 C 566 327 564 308 594 307 Z"></path>
      </clipPath>
      <path clip-path="url(#make-me-a-hanzi-clip-8)" d="M 598 314 L 609 324 L 722 354 L 780 354" fill="none" id="make-me-a-hanzi-animation-8" stroke-dasharray="318 636" stroke-linecap="round"></path>
    
      <clipPath id="make-me-a-hanzi-clip-9">
        <path d="M 813 122 Q 834 183 863 204 Q 879 223 864 241 Q 846 254 793 277 Q 775 284 754 275 Q 699 250 593 222 C 564 214 563 188 593 192 Q 605 192 747 226 Q 762 230 768 224 Q 780 212 759 123 C 752 94 803 94 813 122 Z"></path>
      </clipPath>
      <path clip-path="url(#make-me-a-hanzi-clip-9)" d="M 594 200 L 609 211 L 758 251 L 780 251 L 815 219 L 793 150 L 766 134" fill="none" id="make-me-a-hanzi-animation-9" stroke-dasharray="474 948" stroke-linecap="round"></path>
    
      <clipPath id="make-me-a-hanzi-clip-10">
        <path d="M 588 53 Q 594 47 619 52 Q 686 68 832 83 Q 842 84 844 94 Q 844 103 813 122 C 796 133 788 131 759 123 Q 665 98 591 85 C 561 80 560 64 588 53 Z"></path>
      </clipPath>
      <path clip-path="url(#make-me-a-hanzi-clip-10)" d="M 595 58 L 615 71 L 756 99 L 806 102 L 835 94" fill="none" id="make-me-a-hanzi-animation-10" stroke-dasharray="376 752" stroke-linecap="round"></path>
    
  </g>
</svg>