<svg version="1.1" viewBox="0 0 1024 1024" xmlns="http://www.w3.org/2000/svg">
  <g stroke="lightgray" stroke-dasharray="1,1" stroke-width="1" transform="scale(4, 4)">
    <line x1="0" y1="0" x2="256" y2="256"></line>
    <line x1="256" y1="0" x2="0" y2="256"></line>
    <line x1="128" y1="0" x2="128" y2="256"></line>
    <line x1="0" y1="128" x2="256" y2="128"></line>
  </g>
  <g transform="scale(1, -1) translate(0, -900)">
    <style type="text/css">
      
        @keyframes keyframes0 {
          from {
            stroke: blue;
            stroke-dashoffset: 804;
            stroke-width: 128;
          }
          72% {
            animation-timing-function: step-end;
            stroke: blue;
            stroke-dashoffset: 0;
            stroke-width: 128;
          }
          to {
            stroke: black;
            stroke-width: 1024;
          }
        }
        #make-me-a-hanzi-animation-0 {
          animation: keyframes0 0.904296875s both;
          animation-delay: 0s;
          animation-timing-function: linear;
        }
      
        @keyframes keyframes1 {
          from {
            stroke: blue;
            stroke-dashoffset: 1203;
            stroke-width: 128;
          }
          80% {
            animation-timing-function: step-end;
            stroke: blue;
            stroke-dashoffset: 0;
            stroke-width: 128;
          }
          to {
            stroke: black;
            stroke-width: 1024;
          }
        }
        #make-me-a-hanzi-animation-1 {
          animation: keyframes1 1.22900390625s both;
          animation-delay: 0.904296875s;
          animation-timing-function: linear;
        }
      
        @keyframes keyframes2 {
          from {
            stroke: blue;
            stroke-dashoffset: 551;
            stroke-width: 128;
          }
          64% {
            animation-timing-function: step-end;
            stroke: blue;
            stroke-dashoffset: 0;
            stroke-width: 128;
          }
          to {
            stroke: black;
            stroke-width: 1024;
          }
        }
        #make-me-a-hanzi-animation-2 {
          animation: keyframes2 0.6984049479166666s both;
          animation-delay: 2.13330078125s;
          animation-timing-function: linear;
        }
      
        @keyframes keyframes3 {
          from {
            stroke: blue;
            stroke-dashoffset: 615;
            stroke-width: 128;
          }
          67% {
            animation-timing-function: step-end;
            stroke: blue;
            stroke-dashoffset: 0;
            stroke-width: 128;
          }
          to {
            stroke: black;
            stroke-width: 1024;
          }
        }
        #make-me-a-hanzi-animation-3 {
          animation: keyframes3 0.75048828125s both;
          animation-delay: 2.8317057291666665s;
          animation-timing-function: linear;
        }
      
        @keyframes keyframes4 {
          from {
            stroke: blue;
            stroke-dashoffset: 1108;
            stroke-width: 128;
          }
          78% {
            animation-timing-function: step-end;
            stroke: blue;
            stroke-dashoffset: 0;
            stroke-width: 128;
          }
          to {
            stroke: black;
            stroke-width: 1024;
          }
        }
        #make-me-a-hanzi-animation-4 {
          animation: keyframes4 1.1516927083333333s both;
          animation-delay: 3.5821940104166665s;
          animation-timing-function: linear;
        }
      
        @keyframes keyframes5 {
          from {
            stroke: blue;
            stroke-dashoffset: 723;
            stroke-width: 128;
          }
          70% {
            animation-timing-function: step-end;
            stroke: blue;
            stroke-dashoffset: 0;
            stroke-width: 128;
          }
          to {
            stroke: black;
            stroke-width: 1024;
          }
        }
        #make-me-a-hanzi-animation-5 {
          animation: keyframes5 0.83837890625s both;
          animation-delay: 4.73388671875s;
          animation-timing-function: linear;
        }
      
    </style>
    
      <path d="M 404 439 Q 419 475 434 604 Q 444 656 478 690 Q 494 708 477 721 Q 458 737 406 757 Q 394 763 338 747 Q 326 747 250 723 Q 210 711 186 707 Q 170 706 167 700 Q 163 694 181 684 Q 215 669 236 677 Q 273 690 358 707 Q 374 710 379 707 Q 394 700 390 657 Q 374 495 363 462 Q 357 438 367 426 C 378 398 394 411 404 439 Z" fill="lightgray"></path>
    
      <path d="M 367 426 Q 354 422 344 420 Q 319 414 265 398 Q 241 392 239 412 Q 242 554 252 576 Q 256 591 250 601 Q 235 617 212 626 Q 196 632 187 624 Q 183 620 189 609 Q 195 594 197 470 Q 197 425 187 385 Q 183 366 196 351 Q 209 339 235 350 Q 256 372 360 388 Q 388 391 401 379 Q 413 369 401 329 Q 373 137 339 93 Q 332 83 313 85 Q 282 95 256 104 Q 243 110 243 103 Q 242 99 250 91 Q 296 40 311 7 Q 318 -12 335 -4 Q 399 24 413 96 Q 435 193 453 302 Q 460 336 479 366 Q 491 382 480 394 Q 438 442 404 439 L 367 426 Z" fill="lightgray"></path>
    
      <path d="M 66 219 Q 53 218 51 207 Q 50 194 58 186 Q 80 170 114 152 Q 124 148 136 157 Q 166 181 300 246 Q 319 256 333 267 Q 346 274 346 284 Q 340 290 328 287 Q 109 218 66 219 Z" fill="lightgray"></path>
    
      <path d="M 680 425 Q 702 431 850 459 Q 862 458 870 472 Q 871 485 846 494 Q 813 513 747 491 Q 693 478 685 473 L 633 459 Q 608 455 586 451 Q 550 445 511 438 Q 481 434 505 416 Q 541 394 581 402 Q 602 408 628 414 L 680 425 Z" fill="lightgray"></path>
    
      <path d="M 671 358 Q 675 392 680 425 L 685 473 Q 694 660 715 723 Q 721 733 712 742 Q 693 758 659 772 Q 637 782 621 776 Q 602 769 617 752 Q 645 722 645 693 Q 644 564 633 459 L 628 414 Q 600 195 525 117 Q 497 84 437 40 Q 424 34 422 30 Q 418 23 433 23 Q 496 23 587 114 Q 597 129 608 143 Q 638 192 663 315 L 671 358 Z" fill="lightgray"></path>
    
      <path d="M 663 315 Q 739 146 797 63 Q 815 33 837 31 Q 901 28 956 25 Q 978 24 980 29 Q 983 36 958 52 Q 826 133 788 186 Q 712 286 671 358 C 656 384 651 342 663 315 Z" fill="lightgray"></path>
    
    
      <clipPath id="make-me-a-hanzi-clip-0">
        <path d="M 404 439 Q 419 475 434 604 Q 444 656 478 690 Q 494 708 477 721 Q 458 737 406 757 Q 394 763 338 747 Q 326 747 250 723 Q 210 711 186 707 Q 170 706 167 700 Q 163 694 181 684 Q 215 669 236 677 Q 273 690 358 707 Q 374 710 379 707 Q 394 700 390 657 Q 374 495 363 462 Q 357 438 367 426 C 378 398 394 411 404 439 Z"></path>
      </clipPath>
      <path clip-path="url(#make-me-a-hanzi-clip-0)" d="M 174 698 L 226 695 L 372 733 L 405 726 L 431 700 L 415 642 L 394 489 L 386 457 L 371 434" fill="none" id="make-me-a-hanzi-animation-0" stroke-dasharray="676 1352" stroke-linecap="round"></path>
    
      <clipPath id="make-me-a-hanzi-clip-1">
        <path d="M 367 426 Q 354 422 344 420 Q 319 414 265 398 Q 241 392 239 412 Q 242 554 252 576 Q 256 591 250 601 Q 235 617 212 626 Q 196 632 187 624 Q 183 620 189 609 Q 195 594 197 470 Q 197 425 187 385 Q 183 366 196 351 Q 209 339 235 350 Q 256 372 360 388 Q 388 391 401 379 Q 413 369 401 329 Q 373 137 339 93 Q 332 83 313 85 Q 282 95 256 104 Q 243 110 243 103 Q 242 99 250 91 Q 296 40 311 7 Q 318 -12 335 -4 Q 399 24 413 96 Q 435 193 453 302 Q 460 336 479 366 Q 491 382 480 394 Q 438 442 404 439 L 367 426 Z"></path>
      </clipPath>
      <path clip-path="url(#make-me-a-hanzi-clip-1)" d="M 196 618 L 212 604 L 222 583 L 219 380 L 245 379 L 393 410 L 420 404 L 443 379 L 396 151 L 368 71 L 338 45 L 250 99" fill="none" id="make-me-a-hanzi-animation-1" stroke-dasharray="1075 2150" stroke-linecap="round"></path>
    
      <clipPath id="make-me-a-hanzi-clip-2">
        <path d="M 66 219 Q 53 218 51 207 Q 50 194 58 186 Q 80 170 114 152 Q 124 148 136 157 Q 166 181 300 246 Q 319 256 333 267 Q 346 274 346 284 Q 340 290 328 287 Q 109 218 66 219 Z"></path>
      </clipPath>
      <path clip-path="url(#make-me-a-hanzi-clip-2)" d="M 65 205 L 120 190 L 340 281" fill="none" id="make-me-a-hanzi-animation-2" stroke-dasharray="423 846" stroke-linecap="round"></path>
    
      <clipPath id="make-me-a-hanzi-clip-3">
        <path d="M 680 425 Q 702 431 850 459 Q 862 458 870 472 Q 871 485 846 494 Q 813 513 747 491 Q 693 478 685 473 L 633 459 Q 608 455 586 451 Q 550 445 511 438 Q 481 434 505 416 Q 541 394 581 402 Q 602 408 628 414 L 680 425 Z"></path>
      </clipPath>
      <path clip-path="url(#make-me-a-hanzi-clip-3)" d="M 506 428 L 558 422 L 793 476 L 858 473" fill="none" id="make-me-a-hanzi-animation-3" stroke-dasharray="487 974" stroke-linecap="round"></path>
    
      <clipPath id="make-me-a-hanzi-clip-4">
        <path d="M 671 358 Q 675 392 680 425 L 685 473 Q 694 660 715 723 Q 721 733 712 742 Q 693 758 659 772 Q 637 782 621 776 Q 602 769 617 752 Q 645 722 645 693 Q 644 564 633 459 L 628 414 Q 600 195 525 117 Q 497 84 437 40 Q 424 34 422 30 Q 418 23 433 23 Q 496 23 587 114 Q 597 129 608 143 Q 638 192 663 315 L 671 358 Z"></path>
      </clipPath>
      <path clip-path="url(#make-me-a-hanzi-clip-4)" d="M 623 763 L 657 745 L 677 719 L 662 486 L 645 355 L 624 256 L 592 168 L 563 124 L 489 57 L 428 28" fill="none" id="make-me-a-hanzi-animation-4" stroke-dasharray="980 1960" stroke-linecap="round"></path>
    
      <clipPath id="make-me-a-hanzi-clip-5">
        <path d="M 663 315 Q 739 146 797 63 Q 815 33 837 31 Q 901 28 956 25 Q 978 24 980 29 Q 983 36 958 52 Q 826 133 788 186 Q 712 286 671 358 C 656 384 651 342 663 315 Z"></path>
      </clipPath>
      <path clip-path="url(#make-me-a-hanzi-clip-5)" d="M 670 351 L 680 312 L 727 229 L 787 138 L 837 81 L 847 73 L 974 32" fill="none" id="make-me-a-hanzi-animation-5" stroke-dasharray="595 1190" stroke-linecap="round"></path>
    
  </g>
</svg>