<svg version="1.1" viewBox="0 0 1024 1024" xmlns="http://www.w3.org/2000/svg">
  <g stroke="lightgray" stroke-dasharray="1,1" stroke-width="1" transform="scale(4, 4)">
    <line x1="0" y1="0" x2="256" y2="256"></line>
    <line x1="256" y1="0" x2="0" y2="256"></line>
    <line x1="128" y1="0" x2="128" y2="256"></line>
    <line x1="0" y1="128" x2="256" y2="128"></line>
  </g>
  <g transform="scale(1, -1) translate(0, -900)">
    <style type="text/css">
      
        @keyframes keyframes0 {
          from {
            stroke: blue;
            stroke-dashoffset: 713;
            stroke-width: 128;
          }
          70% {
            animation-timing-function: step-end;
            stroke: blue;
            stroke-dashoffset: 0;
            stroke-width: 128;
          }
          to {
            stroke: black;
            stroke-width: 1024;
          }
        }
        #make-me-a-hanzi-animation-0 {
          animation: keyframes0 0.8302408854166666s both;
          animation-delay: 0s;
          animation-timing-function: linear;
        }
      
        @keyframes keyframes1 {
          from {
            stroke: blue;
            stroke-dashoffset: 629;
            stroke-width: 128;
          }
          67% {
            animation-timing-function: step-end;
            stroke: blue;
            stroke-dashoffset: 0;
            stroke-width: 128;
          }
          to {
            stroke: black;
            stroke-width: 1024;
          }
        }
        #make-me-a-hanzi-animation-1 {
          animation: keyframes1 0.7618815104166666s both;
          animation-delay: 0.8302408854166666s;
          animation-timing-function: linear;
        }
      
        @keyframes keyframes2 {
          from {
            stroke: blue;
            stroke-dashoffset: 433;
            stroke-width: 128;
          }
          58% {
            animation-timing-function: step-end;
            stroke: blue;
            stroke-dashoffset: 0;
            stroke-width: 128;
          }
          to {
            stroke: black;
            stroke-width: 1024;
          }
        }
        #make-me-a-hanzi-animation-2 {
          animation: keyframes2 0.6023763020833334s both;
          animation-delay: 1.5921223958333333s;
          animation-timing-function: linear;
        }
      
        @keyframes keyframes3 {
          from {
            stroke: blue;
            stroke-dashoffset: 370;
            stroke-width: 128;
          }
          55% {
            animation-timing-function: step-end;
            stroke: blue;
            stroke-dashoffset: 0;
            stroke-width: 128;
          }
          to {
            stroke: black;
            stroke-width: 1024;
          }
        }
        #make-me-a-hanzi-animation-3 {
          animation: keyframes3 0.5511067708333334s both;
          animation-delay: 2.1944986979166665s;
          animation-timing-function: linear;
        }
      
        @keyframes keyframes4 {
          from {
            stroke: blue;
            stroke-dashoffset: 365;
            stroke-width: 128;
          }
          54% {
            animation-timing-function: step-end;
            stroke: blue;
            stroke-dashoffset: 0;
            stroke-width: 128;
          }
          to {
            stroke: black;
            stroke-width: 1024;
          }
        }
        #make-me-a-hanzi-animation-4 {
          animation: keyframes4 0.5470377604166666s both;
          animation-delay: 2.74560546875s;
          animation-timing-function: linear;
        }
      
        @keyframes keyframes5 {
          from {
            stroke: blue;
            stroke-dashoffset: 703;
            stroke-width: 128;
          }
          70% {
            animation-timing-function: step-end;
            stroke: blue;
            stroke-dashoffset: 0;
            stroke-width: 128;
          }
          to {
            stroke: black;
            stroke-width: 1024;
          }
        }
        #make-me-a-hanzi-animation-5 {
          animation: keyframes5 0.8221028645833334s both;
          animation-delay: 3.2926432291666665s;
          animation-timing-function: linear;
        }
      
        @keyframes keyframes6 {
          from {
            stroke: blue;
            stroke-dashoffset: 386;
            stroke-width: 128;
          }
          56% {
            animation-timing-function: step-end;
            stroke: blue;
            stroke-dashoffset: 0;
            stroke-width: 128;
          }
          to {
            stroke: black;
            stroke-width: 1024;
          }
        }
        #make-me-a-hanzi-animation-6 {
          animation: keyframes6 0.5641276041666666s both;
          animation-delay: 4.11474609375s;
          animation-timing-function: linear;
        }
      
        @keyframes keyframes7 {
          from {
            stroke: blue;
            stroke-dashoffset: 377;
            stroke-width: 128;
          }
          55% {
            animation-timing-function: step-end;
            stroke: blue;
            stroke-dashoffset: 0;
            stroke-width: 128;
          }
          to {
            stroke: black;
            stroke-width: 1024;
          }
        }
        #make-me-a-hanzi-animation-7 {
          animation: keyframes7 0.5568033854166666s both;
          animation-delay: 4.678873697916667s;
          animation-timing-function: linear;
        }
      
        @keyframes keyframes8 {
          from {
            stroke: blue;
            stroke-dashoffset: 596;
            stroke-width: 128;
          }
          66% {
            animation-timing-function: step-end;
            stroke: blue;
            stroke-dashoffset: 0;
            stroke-width: 128;
          }
          to {
            stroke: black;
            stroke-width: 1024;
          }
        }
        #make-me-a-hanzi-animation-8 {
          animation: keyframes8 0.7350260416666666s both;
          animation-delay: 5.235677083333334s;
          animation-timing-function: linear;
        }
      
        @keyframes keyframes9 {
          from {
            stroke: blue;
            stroke-dashoffset: 660;
            stroke-width: 128;
          }
          68% {
            animation-timing-function: step-end;
            stroke: blue;
            stroke-dashoffset: 0;
            stroke-width: 128;
          }
          to {
            stroke: black;
            stroke-width: 1024;
          }
        }
        #make-me-a-hanzi-animation-9 {
          animation: keyframes9 0.787109375s both;
          animation-delay: 5.970703125000001s;
          animation-timing-function: linear;
        }
      
        @keyframes keyframes10 {
          from {
            stroke: blue;
            stroke-dashoffset: 1155;
            stroke-width: 128;
          }
          79% {
            animation-timing-function: step-end;
            stroke: blue;
            stroke-dashoffset: 0;
            stroke-width: 128;
          }
          to {
            stroke: black;
            stroke-width: 1024;
          }
        }
        #make-me-a-hanzi-animation-10 {
          animation: keyframes10 1.18994140625s both;
          animation-delay: 6.757812500000001s;
          animation-timing-function: linear;
        }
      
        @keyframes keyframes11 {
          from {
            stroke: blue;
            stroke-dashoffset: 734;
            stroke-width: 128;
          }
          70% {
            animation-timing-function: step-end;
            stroke: blue;
            stroke-dashoffset: 0;
            stroke-width: 128;
          }
          to {
            stroke: black;
            stroke-width: 1024;
          }
        }
        #make-me-a-hanzi-animation-11 {
          animation: keyframes11 0.8473307291666666s both;
          animation-delay: 7.947753906250001s;
          animation-timing-function: linear;
        }
      
    </style>
    
      <path d="M 279 703 Q 280 704 284 704 Q 314 707 345 720 Q 357 727 363 719 Q 367 716 362 705 Q 337 636 354 609 Q 390 563 381 549 Q 375 539 354 541 Q 327 545 299 543 Q 277 543 302 532 Q 354 510 403 482 Q 415 472 423 483 Q 433 490 438 510 Q 442 528 428 557 Q 415 591 387 616 Q 366 638 379 656 Q 416 705 434 717 Q 453 727 443 740 Q 431 756 397 775 Q 378 782 331 750 Q 277 734 271 731 C 243 721 249 698 279 703 Z" fill="lightgray"></path>
    
      <path d="M 271 731 Q 255 747 223 756 Q 214 757 209 750 Q 206 744 213 735 Q 250 645 227 488 Q 215 434 218 420 Q 228 390 238 379 Q 248 367 257 380 Q 276 405 277 559 Q 277 682 279 703 C 280 723 280 723 271 731 Z" fill="lightgray"></path>
    
      <path d="M 637 667 Q 640 700 644 729 L 646 755 Q 653 798 657 807 Q 660 816 644 827 Q 619 840 600 843 Q 588 846 582 839 Q 576 833 583 822 Q 601 800 604 662 C 605 632 634 637 637 667 Z" fill="lightgray"></path>
    
      <path d="M 644 729 Q 666 725 752 745 Q 762 748 765 749 Q 772 756 767 763 Q 760 772 737 776 Q 710 779 666 760 Q 656 760 646 755 C 619 743 614 733 644 729 Z" fill="lightgray"></path>
    
      <path d="M 543 653 Q 540 735 533 743 Q 532 744 530 745 Q 512 757 492 762 Q 482 766 475 760 Q 469 756 475 744 Q 488 729 511 649 C 519 620 544 623 543 653 Z" fill="lightgray"></path>
    
      <path d="M 622 634 Q 697 646 855 646 Q 871 646 875 653 Q 879 662 866 673 Q 824 703 769 691 Q 715 681 637 667 L 604 662 Q 574 659 543 653 L 511 649 Q 469 645 426 638 Q 410 637 421 622 Q 448 598 476 607 Q 531 623 592 630 L 622 634 Z" fill="lightgray"></path>
    
      <path d="M 631 503 Q 634 518 645 604 Q 649 620 635 628 Q 628 632 622 634 C 594 645 589 647 592 630 Q 592 629 593 625 Q 603 607 600 535 Q 597 517 618 495 C 628 484 628 484 631 503 Z" fill="lightgray"></path>
    
      <path d="M 513 593 Q 495 556 471 524 Q 456 496 468 474 Q 472 461 489 469 Q 526 496 531 549 Q 535 574 531 592 Q 527 599 523 600 Q 516 599 513 593 Z" fill="lightgray"></path>
    
      <path d="M 618 495 Q 542 462 493 448 Q 486 445 489 441 Q 493 437 502 437 Q 634 437 752 550 Q 765 563 782 574 Q 789 578 789 587 Q 788 597 772 617 Q 760 633 753 634 Q 743 635 739 624 Q 723 564 654 519 Q 642 512 631 503 L 618 495 Z" fill="lightgray"></path>
    
      <path d="M 614 248 Q 621 257 636 285 Q 649 331 680 360 Q 696 375 681 388 Q 665 403 618 424 Q 606 431 549 417 Q 498 410 456 398 Q 414 388 388 385 Q 372 385 369 380 Q 365 376 382 364 Q 413 348 433 355 Q 475 368 570 380 Q 586 381 593 378 Q 599 375 597 357 Q 590 291 584 278 Q 575 256 585 245 C 595 220 597 223 614 248 Z" fill="lightgray"></path>
    
      <path d="M 432 179 Q 459 195 512 205 Q 624 227 740 229 Q 768 230 779 219 Q 789 209 777 171 Q 768 131 757 87 Q 748 53 731 33 Q 721 20 693 23 Q 665 29 641 34 Q 626 38 627 31 Q 627 27 635 19 Q 683 -27 700 -59 Q 707 -78 724 -68 Q 778 -43 792 7 Q 811 70 828 141 Q 837 175 855 204 Q 868 219 858 231 Q 842 250 809 272 Q 790 285 762 274 Q 713 256 666 254 Q 644 253 614 248 L 585 245 Q 533 241 465 229 Q 446 223 442 239 Q 445 269 454 279 Q 461 292 455 304 Q 443 320 422 332 Q 407 339 399 333 Q 393 329 399 318 Q 405 281 390 219 Q 383 201 396 186 Q 412 168 432 179 Z" fill="lightgray"></path>
    
      <path d="M 429 82 Q 459 83 488 87 Q 534 93 645 88 Q 664 87 670 93 Q 676 103 665 114 Q 640 136 604 152 Q 591 156 570 149 Q 318 104 191 100 Q 179 100 179 91 Q 179 81 194 69 Q 209 59 235 50 Q 244 46 259 54 Q 268 57 309 64 Q 363 76 429 82 Z" fill="lightgray"></path>
    
    
      <clipPath id="make-me-a-hanzi-clip-0">
        <path d="M 279 703 Q 280 704 284 704 Q 314 707 345 720 Q 357 727 363 719 Q 367 716 362 705 Q 337 636 354 609 Q 390 563 381 549 Q 375 539 354 541 Q 327 545 299 543 Q 277 543 302 532 Q 354 510 403 482 Q 415 472 423 483 Q 433 490 438 510 Q 442 528 428 557 Q 415 591 387 616 Q 366 638 379 656 Q 416 705 434 717 Q 453 727 443 740 Q 431 756 397 775 Q 378 782 331 750 Q 277 734 271 731 C 243 721 249 698 279 703 Z"></path>
      </clipPath>
      <path clip-path="url(#make-me-a-hanzi-clip-0)" d="M 280 711 L 291 721 L 349 742 L 381 744 L 397 733 L 360 646 L 365 620 L 402 564 L 405 528 L 400 521 L 383 520 L 306 539" fill="none" id="make-me-a-hanzi-animation-0" stroke-dasharray="585 1170" stroke-linecap="round"></path>
    
      <clipPath id="make-me-a-hanzi-clip-1">
        <path d="M 271 731 Q 255 747 223 756 Q 214 757 209 750 Q 206 744 213 735 Q 250 645 227 488 Q 215 434 218 420 Q 228 390 238 379 Q 248 367 257 380 Q 276 405 277 559 Q 277 682 279 703 C 280 723 280 723 271 731 Z"></path>
      </clipPath>
      <path clip-path="url(#make-me-a-hanzi-clip-1)" d="M 220 745 L 248 712 L 255 664 L 257 547 L 244 431 L 247 384" fill="none" id="make-me-a-hanzi-animation-1" stroke-dasharray="501 1002" stroke-linecap="round"></path>
    
      <clipPath id="make-me-a-hanzi-clip-2">
        <path d="M 637 667 Q 640 700 644 729 L 646 755 Q 653 798 657 807 Q 660 816 644 827 Q 619 840 600 843 Q 588 846 582 839 Q 576 833 583 822 Q 601 800 604 662 C 605 632 634 637 637 667 Z"></path>
      </clipPath>
      <path clip-path="url(#make-me-a-hanzi-clip-2)" d="M 592 831 L 623 802 L 622 693 L 618 680 L 608 674" fill="none" id="make-me-a-hanzi-animation-2" stroke-dasharray="305 610" stroke-linecap="round"></path>
    
      <clipPath id="make-me-a-hanzi-clip-3">
        <path d="M 644 729 Q 666 725 752 745 Q 762 748 765 749 Q 772 756 767 763 Q 760 772 737 776 Q 710 779 666 760 Q 656 760 646 755 C 619 743 614 733 644 729 Z"></path>
      </clipPath>
      <path clip-path="url(#make-me-a-hanzi-clip-3)" d="M 648 735 L 660 744 L 721 758 L 757 757" fill="none" id="make-me-a-hanzi-animation-3" stroke-dasharray="242 484" stroke-linecap="round"></path>
    
      <clipPath id="make-me-a-hanzi-clip-4">
        <path d="M 543 653 Q 540 735 533 743 Q 532 744 530 745 Q 512 757 492 762 Q 482 766 475 760 Q 469 756 475 744 Q 488 729 511 649 C 519 620 544 623 543 653 Z"></path>
      </clipPath>
      <path clip-path="url(#make-me-a-hanzi-clip-4)" d="M 483 752 L 512 727 L 525 669 L 536 665" fill="none" id="make-me-a-hanzi-animation-4" stroke-dasharray="237 474" stroke-linecap="round"></path>
    
      <clipPath id="make-me-a-hanzi-clip-5">
        <path d="M 622 634 Q 697 646 855 646 Q 871 646 875 653 Q 879 662 866 673 Q 824 703 769 691 Q 715 681 637 667 L 604 662 Q 574 659 543 653 L 511 649 Q 469 645 426 638 Q 410 637 421 622 Q 448 598 476 607 Q 531 623 592 630 L 622 634 Z"></path>
      </clipPath>
      <path clip-path="url(#make-me-a-hanzi-clip-5)" d="M 424 630 L 457 623 L 665 657 L 793 670 L 866 658" fill="none" id="make-me-a-hanzi-animation-5" stroke-dasharray="575 1150" stroke-linecap="round"></path>
    
      <clipPath id="make-me-a-hanzi-clip-6">
        <path d="M 631 503 Q 634 518 645 604 Q 649 620 635 628 Q 628 632 622 634 C 594 645 589 647 592 630 Q 592 629 593 625 Q 603 607 600 535 Q 597 517 618 495 C 628 484 628 484 631 503 Z"></path>
      </clipPath>
      <path clip-path="url(#make-me-a-hanzi-clip-6)" d="M 600 629 L 622 608 L 619 508" fill="none" id="make-me-a-hanzi-animation-6" stroke-dasharray="258 516" stroke-linecap="round"></path>
    
      <clipPath id="make-me-a-hanzi-clip-7">
        <path d="M 513 593 Q 495 556 471 524 Q 456 496 468 474 Q 472 461 489 469 Q 526 496 531 549 Q 535 574 531 592 Q 527 599 523 600 Q 516 599 513 593 Z"></path>
      </clipPath>
      <path clip-path="url(#make-me-a-hanzi-clip-7)" d="M 522 591 L 516 559 L 480 478" fill="none" id="make-me-a-hanzi-animation-7" stroke-dasharray="249 498" stroke-linecap="round"></path>
    
      <clipPath id="make-me-a-hanzi-clip-8">
        <path d="M 618 495 Q 542 462 493 448 Q 486 445 489 441 Q 493 437 502 437 Q 634 437 752 550 Q 765 563 782 574 Q 789 578 789 587 Q 788 597 772 617 Q 760 633 753 634 Q 743 635 739 624 Q 723 564 654 519 Q 642 512 631 503 L 618 495 Z"></path>
      </clipPath>
      <path clip-path="url(#make-me-a-hanzi-clip-8)" d="M 751 622 L 757 591 L 720 547 L 682 515 L 604 471 L 496 441" fill="none" id="make-me-a-hanzi-animation-8" stroke-dasharray="468 936" stroke-linecap="round"></path>
    
      <clipPath id="make-me-a-hanzi-clip-9">
        <path d="M 614 248 Q 621 257 636 285 Q 649 331 680 360 Q 696 375 681 388 Q 665 403 618 424 Q 606 431 549 417 Q 498 410 456 398 Q 414 388 388 385 Q 372 385 369 380 Q 365 376 382 364 Q 413 348 433 355 Q 475 368 570 380 Q 586 381 593 378 Q 599 375 597 357 Q 590 291 584 278 Q 575 256 585 245 C 595 220 597 223 614 248 Z"></path>
      </clipPath>
      <path clip-path="url(#make-me-a-hanzi-clip-9)" d="M 374 378 L 417 371 L 564 401 L 597 402 L 615 396 L 636 368 L 612 288 L 591 254" fill="none" id="make-me-a-hanzi-animation-9" stroke-dasharray="532 1064" stroke-linecap="round"></path>
    
      <clipPath id="make-me-a-hanzi-clip-10">
        <path d="M 432 179 Q 459 195 512 205 Q 624 227 740 229 Q 768 230 779 219 Q 789 209 777 171 Q 768 131 757 87 Q 748 53 731 33 Q 721 20 693 23 Q 665 29 641 34 Q 626 38 627 31 Q 627 27 635 19 Q 683 -27 700 -59 Q 707 -78 724 -68 Q 778 -43 792 7 Q 811 70 828 141 Q 837 175 855 204 Q 868 219 858 231 Q 842 250 809 272 Q 790 285 762 274 Q 713 256 666 254 Q 644 253 614 248 L 585 245 Q 533 241 465 229 Q 446 223 442 239 Q 445 269 454 279 Q 461 292 455 304 Q 443 320 422 332 Q 407 339 399 333 Q 393 329 399 318 Q 405 281 390 219 Q 383 201 396 186 Q 412 168 432 179 Z"></path>
      </clipPath>
      <path clip-path="url(#make-me-a-hanzi-clip-10)" d="M 406 326 L 429 292 L 418 240 L 422 211 L 453 209 L 566 230 L 762 251 L 786 250 L 811 230 L 820 217 L 784 79 L 764 23 L 746 -4 L 725 -18 L 635 28" fill="none" id="make-me-a-hanzi-animation-10" stroke-dasharray="1027 2054" stroke-linecap="round"></path>
    
      <clipPath id="make-me-a-hanzi-clip-11">
        <path d="M 429 82 Q 459 83 488 87 Q 534 93 645 88 Q 664 87 670 93 Q 676 103 665 114 Q 640 136 604 152 Q 591 156 570 149 Q 318 104 191 100 Q 179 100 179 91 Q 179 81 194 69 Q 209 59 235 50 Q 244 46 259 54 Q 268 57 309 64 Q 363 76 429 82 Z"></path>
      </clipPath>
      <path clip-path="url(#make-me-a-hanzi-clip-11)" d="M 190 89 L 243 76 L 376 98 L 584 121 L 661 100" fill="none" id="make-me-a-hanzi-animation-11" stroke-dasharray="606 1212" stroke-linecap="round"></path>
    
  </g>
</svg>