<svg version="1.1" viewBox="0 0 1024 1024" xmlns="http://www.w3.org/2000/svg">
  <g stroke="lightgray" stroke-dasharray="1,1" stroke-width="1" transform="scale(4, 4)">
    <line x1="0" y1="0" x2="256" y2="256"></line>
    <line x1="256" y1="0" x2="0" y2="256"></line>
    <line x1="128" y1="0" x2="128" y2="256"></line>
    <line x1="0" y1="128" x2="256" y2="128"></line>
  </g>
  <g transform="scale(1, -1) translate(0, -900)">
    <style type="text/css">
      
        @keyframes keyframes0 {
          from {
            stroke: blue;
            stroke-dashoffset: 503;
            stroke-width: 128;
          }
          62% {
            animation-timing-function: step-end;
            stroke: blue;
            stroke-dashoffset: 0;
            stroke-width: 128;
          }
          to {
            stroke: black;
            stroke-width: 1024;
          }
        }
        #make-me-a-hanzi-animation-0 {
          animation: keyframes0 0.6593424479166666s both;
          animation-delay: 0s;
          animation-timing-function: linear;
        }
      
        @keyframes keyframes1 {
          from {
            stroke: blue;
            stroke-dashoffset: 666;
            stroke-width: 128;
          }
          68% {
            animation-timing-function: step-end;
            stroke: blue;
            stroke-dashoffset: 0;
            stroke-width: 128;
          }
          to {
            stroke: black;
            stroke-width: 1024;
          }
        }
        #make-me-a-hanzi-animation-1 {
          animation: keyframes1 0.7919921875s both;
          animation-delay: 0.6593424479166666s;
          animation-timing-function: linear;
        }
      
        @keyframes keyframes2 {
          from {
            stroke: blue;
            stroke-dashoffset: 444;
            stroke-width: 128;
          }
          59% {
            animation-timing-function: step-end;
            stroke: blue;
            stroke-dashoffset: 0;
            stroke-width: 128;
          }
          to {
            stroke: black;
            stroke-width: 1024;
          }
        }
        #make-me-a-hanzi-animation-2 {
          animation: keyframes2 0.611328125s both;
          animation-delay: 1.4513346354166665s;
          animation-timing-function: linear;
        }
      
        @keyframes keyframes3 {
          from {
            stroke: blue;
            stroke-dashoffset: 425;
            stroke-width: 128;
          }
          58% {
            animation-timing-function: step-end;
            stroke: blue;
            stroke-dashoffset: 0;
            stroke-width: 128;
          }
          to {
            stroke: black;
            stroke-width: 1024;
          }
        }
        #make-me-a-hanzi-animation-3 {
          animation: keyframes3 0.5958658854166666s both;
          animation-delay: 2.0626627604166665s;
          animation-timing-function: linear;
        }
      
        @keyframes keyframes4 {
          from {
            stroke: blue;
            stroke-dashoffset: 689;
            stroke-width: 128;
          }
          69% {
            animation-timing-function: step-end;
            stroke: blue;
            stroke-dashoffset: 0;
            stroke-width: 128;
          }
          to {
            stroke: black;
            stroke-width: 1024;
          }
        }
        #make-me-a-hanzi-animation-4 {
          animation: keyframes4 0.8107096354166666s both;
          animation-delay: 2.658528645833333s;
          animation-timing-function: linear;
        }
      
        @keyframes keyframes5 {
          from {
            stroke: blue;
            stroke-dashoffset: 660;
            stroke-width: 128;
          }
          68% {
            animation-timing-function: step-end;
            stroke: blue;
            stroke-dashoffset: 0;
            stroke-width: 128;
          }
          to {
            stroke: black;
            stroke-width: 1024;
          }
        }
        #make-me-a-hanzi-animation-5 {
          animation: keyframes5 0.787109375s both;
          animation-delay: 3.4692382812499996s;
          animation-timing-function: linear;
        }
      
        @keyframes keyframes6 {
          from {
            stroke: blue;
            stroke-dashoffset: 872;
            stroke-width: 128;
          }
          74% {
            animation-timing-function: step-end;
            stroke: blue;
            stroke-dashoffset: 0;
            stroke-width: 128;
          }
          to {
            stroke: black;
            stroke-width: 1024;
          }
        }
        #make-me-a-hanzi-animation-6 {
          animation: keyframes6 0.9596354166666666s both;
          animation-delay: 4.25634765625s;
          animation-timing-function: linear;
        }
      
        @keyframes keyframes7 {
          from {
            stroke: blue;
            stroke-dashoffset: 356;
            stroke-width: 128;
          }
          54% {
            animation-timing-function: step-end;
            stroke: blue;
            stroke-dashoffset: 0;
            stroke-width: 128;
          }
          to {
            stroke: black;
            stroke-width: 1024;
          }
        }
        #make-me-a-hanzi-animation-7 {
          animation: keyframes7 0.5397135416666666s both;
          animation-delay: 5.215983072916667s;
          animation-timing-function: linear;
        }
      
        @keyframes keyframes8 {
          from {
            stroke: blue;
            stroke-dashoffset: 361;
            stroke-width: 128;
          }
          54% {
            animation-timing-function: step-end;
            stroke: blue;
            stroke-dashoffset: 0;
            stroke-width: 128;
          }
          to {
            stroke: black;
            stroke-width: 1024;
          }
        }
        #make-me-a-hanzi-animation-8 {
          animation: keyframes8 0.5437825520833334s both;
          animation-delay: 5.755696614583334s;
          animation-timing-function: linear;
        }
      
        @keyframes keyframes9 {
          from {
            stroke: blue;
            stroke-dashoffset: 479;
            stroke-width: 128;
          }
          61% {
            animation-timing-function: step-end;
            stroke: blue;
            stroke-dashoffset: 0;
            stroke-width: 128;
          }
          to {
            stroke: black;
            stroke-width: 1024;
          }
        }
        #make-me-a-hanzi-animation-9 {
          animation: keyframes9 0.6398111979166666s both;
          animation-delay: 6.299479166666667s;
          animation-timing-function: linear;
        }
      
        @keyframes keyframes10 {
          from {
            stroke: blue;
            stroke-dashoffset: 870;
            stroke-width: 128;
          }
          74% {
            animation-timing-function: step-end;
            stroke: blue;
            stroke-dashoffset: 0;
            stroke-width: 128;
          }
          to {
            stroke: black;
            stroke-width: 1024;
          }
        }
        #make-me-a-hanzi-animation-10 {
          animation: keyframes10 0.9580078125s both;
          animation-delay: 6.939290364583334s;
          animation-timing-function: linear;
        }
      
        @keyframes keyframes11 {
          from {
            stroke: blue;
            stroke-dashoffset: 528;
            stroke-width: 128;
          }
          63% {
            animation-timing-function: step-end;
            stroke: blue;
            stroke-dashoffset: 0;
            stroke-width: 128;
          }
          to {
            stroke: black;
            stroke-width: 1024;
          }
        }
        #make-me-a-hanzi-animation-11 {
          animation: keyframes11 0.6796875s both;
          animation-delay: 7.897298177083334s;
          animation-timing-function: linear;
        }
      
        @keyframes keyframes12 {
          from {
            stroke: blue;
            stroke-dashoffset: 548;
            stroke-width: 128;
          }
          64% {
            animation-timing-function: step-end;
            stroke: blue;
            stroke-dashoffset: 0;
            stroke-width: 128;
          }
          to {
            stroke: black;
            stroke-width: 1024;
          }
        }
        #make-me-a-hanzi-animation-12 {
          animation: keyframes12 0.6959635416666666s both;
          animation-delay: 8.576985677083334s;
          animation-timing-function: linear;
        }
      
        @keyframes keyframes13 {
          from {
            stroke: blue;
            stroke-dashoffset: 650;
            stroke-width: 128;
          }
          68% {
            animation-timing-function: step-end;
            stroke: blue;
            stroke-dashoffset: 0;
            stroke-width: 128;
          }
          to {
            stroke: black;
            stroke-width: 1024;
          }
        }
        #make-me-a-hanzi-animation-13 {
          animation: keyframes13 0.7789713541666666s both;
          animation-delay: 9.27294921875s;
          animation-timing-function: linear;
        }
      
        @keyframes keyframes14 {
          from {
            stroke: blue;
            stroke-dashoffset: 453;
            stroke-width: 128;
          }
          60% {
            animation-timing-function: step-end;
            stroke: blue;
            stroke-dashoffset: 0;
            stroke-width: 128;
          }
          to {
            stroke: black;
            stroke-width: 1024;
          }
        }
        #make-me-a-hanzi-animation-14 {
          animation: keyframes14 0.61865234375s both;
          animation-delay: 10.051920572916666s;
          animation-timing-function: linear;
        }
      
    </style>
    
      <path d="M 225 716 Q 204 731 180 738 Q 168 742 160 736 Q 154 732 160 718 Q 178 687 187 655 Q 194 622 210 493 C 214 463 247 467 245 497 Q 241 549 238 588 L 236 613 Q 236 617 236 621 Q 236 672 236 688 C 236 709 236 709 225 716 Z" fill="lightgray"></path>
    
      <path d="M 424 533 Q 437 657 475 701 Q 490 720 475 735 Q 406 780 352 753 Q 291 731 225 716 C 196 709 207 682 236 688 Q 246 689 258 694 Q 378 721 384 715 Q 397 705 397 677 Q 390 590 376 522 C 370 493 421 503 424 533 Z" fill="lightgray"></path>
    
      <path d="M 330 512 Q 336 579 352 600 Q 365 622 347 630 Q 331 636 310 646 Q 294 652 282 641 Q 272 631 258 624 Q 248 620 236 613 C 210 598 209 581 238 588 Q 262 594 286 599 Q 293 600 294 597 Q 300 593 294 505 C 292 475 327 482 330 512 Z" fill="lightgray"></path>
    
      <path d="M 155 486 Q 154 489 154 491 Q 144 510 133 517 Q 117 529 116 507 Q 122 477 84 427 Q 57 394 83 346 Q 96 325 112 349 L 150 455 L 155 486 Z" fill="lightgray"></path>
    
      <path d="M 150 455 Q 165 452 189 458 Q 313 486 427 504 Q 455 505 457 493 Q 457 483 439 440 Q 433 428 439 425 Q 445 422 455 432 Q 512 475 535 484 Q 553 488 552 499 Q 551 509 491 539 Q 467 549 424 533 L 376 522 Q 351 518 330 512 L 294 505 Q 270 502 245 497 L 210 493 Q 183 492 155 486 C 126 480 120 457 150 455 Z" fill="lightgray"></path>
    
      <path d="M 229 186 Q 232 226 236 258 L 238 283 Q 242 346 247 367 C 251 386 251 386 245 392 Q 227 414 196 415 Q 184 411 189 401 Q 229 301 178 116 Q 156 56 156 54 Q 156 29 170 8 Q 176 -4 185 1 Q 218 25 226 132 Q 227 151 228 168 L 229 186 Z" fill="lightgray"></path>
    
      <path d="M 247 367 Q 260 367 343 390 Q 359 396 364 387 Q 368 377 370 360 Q 380 198 376 99 Q 375 77 368 67 Q 364 64 305 75 Q 289 81 289 72 Q 335 32 361 1 Q 371 -15 385 -19 Q 392 -22 400 -14 Q 434 31 433 74 Q 411 341 428 377 Q 438 393 428 402 Q 409 418 379 430 Q 364 436 312 409 Q 285 400 245 392 C 216 386 217 362 247 367 Z" fill="lightgray"></path>
    
      <path d="M 236 258 Q 239 258 329 268 Q 351 274 341 285 Q 331 298 306 301 Q 260 304 238 283 C 216 263 207 256 236 258 Z" fill="lightgray"></path>
    
      <path d="M 228 168 Q 231 165 328 173 Q 350 177 341 189 Q 331 202 307 206 Q 262 212 229 186 C 210 171 210 171 228 168 Z" fill="lightgray"></path>
    
      <path d="M 637 644 Q 719 666 749 679 Q 792 697 829 704 Q 845 705 849 713 Q 853 723 841 734 Q 822 749 779 765 Q 764 772 751 770 Q 744 767 744 756 Q 744 732 621 661 C 595 646 608 636 637 644 Z" fill="lightgray"></path>
    
      <path d="M 586 320 Q 607 395 618 466 L 621 496 Q 627 602 635 622 Q 641 634 637 644 L 621 661 Q 608 671 588 679 Q 569 689 556 683 Q 544 676 551 663 Q 569 642 569 571 Q 569 420 536 313 Q 509 229 446 118 Q 442 112 439 106 Q 438 96 448 98 Q 484 105 547 222 Q 554 238 563 256 Q 572 278 579 300 L 586 320 Z" fill="lightgray"></path>
    
      <path d="M 618 466 Q 664 453 751 470 Q 803 482 860 492 Q 894 501 899 505 Q 909 514 904 523 Q 895 536 864 543 Q 831 550 799 536 Q 762 523 719 512 Q 673 502 621 496 C 591 492 589 473 618 466 Z" fill="lightgray"></path>
    
      <path d="M 633 304 Q 611 320 586 320 C 572 321 572 321 579 300 Q 609 219 616 95 Q 616 58 634 31 Q 649 10 654 24 Q 661 40 661 70 L 659 106 Q 643 230 641 271 C 639 300 639 300 633 304 Z" fill="lightgray"></path>
    
      <path d="M 838 126 Q 860 246 898 275 Q 914 296 898 314 Q 820 368 762 339 Q 687 315 633 304 C 604 298 611 267 641 271 Q 644 271 778 293 Q 790 296 794 291 Q 806 281 805 258 Q 799 188 787 131 C 781 102 832 97 838 126 Z" fill="lightgray"></path>
    
      <path d="M 661 70 Q 674 67 690 70 Q 742 80 854 86 Q 866 87 867 97 Q 867 106 838 126 C 831 131 817 131 787 131 Q 783 132 780 131 Q 713 115 659 106 C 629 101 631 75 661 70 Z" fill="lightgray"></path>
    
    
      <clipPath id="make-me-a-hanzi-clip-0">
        <path d="M 225 716 Q 204 731 180 738 Q 168 742 160 736 Q 154 732 160 718 Q 178 687 187 655 Q 194 622 210 493 C 214 463 247 467 245 497 Q 241 549 238 588 L 236 613 Q 236 617 236 621 Q 236 672 236 688 C 236 709 236 709 225 716 Z"></path>
      </clipPath>
      <path clip-path="url(#make-me-a-hanzi-clip-0)" d="M 168 728 L 197 704 L 207 684 L 223 528 L 226 512 L 238 505" fill="none" id="make-me-a-hanzi-animation-0" stroke-dasharray="375 750" stroke-linecap="round"></path>
    
      <clipPath id="make-me-a-hanzi-clip-1">
        <path d="M 424 533 Q 437 657 475 701 Q 490 720 475 735 Q 406 780 352 753 Q 291 731 225 716 C 196 709 207 682 236 688 Q 246 689 258 694 Q 378 721 384 715 Q 397 705 397 677 Q 390 590 376 522 C 370 493 421 503 424 533 Z"></path>
      </clipPath>
      <path clip-path="url(#make-me-a-hanzi-clip-1)" d="M 234 711 L 245 705 L 270 708 L 279 715 L 378 739 L 400 737 L 432 713 L 404 552 L 381 528" fill="none" id="make-me-a-hanzi-animation-1" stroke-dasharray="538 1076" stroke-linecap="round"></path>
    
      <clipPath id="make-me-a-hanzi-clip-2">
        <path d="M 330 512 Q 336 579 352 600 Q 365 622 347 630 Q 331 636 310 646 Q 294 652 282 641 Q 272 631 258 624 Q 248 620 236 613 C 210 598 209 581 238 588 Q 262 594 286 599 Q 293 600 294 597 Q 300 593 294 505 C 292 475 327 482 330 512 Z"></path>
      </clipPath>
      <path clip-path="url(#make-me-a-hanzi-clip-2)" d="M 243 595 L 259 609 L 290 621 L 319 612 L 314 528 L 298 518" fill="none" id="make-me-a-hanzi-animation-2" stroke-dasharray="316 632" stroke-linecap="round"></path>
    
      <clipPath id="make-me-a-hanzi-clip-3">
        <path d="M 155 486 Q 154 489 154 491 Q 144 510 133 517 Q 117 529 116 507 Q 122 477 84 427 Q 57 394 83 346 Q 96 325 112 349 L 150 455 L 155 486 Z"></path>
      </clipPath>
      <path clip-path="url(#make-me-a-hanzi-clip-3)" d="M 125 511 L 135 481 L 100 400 L 97 351" fill="none" id="make-me-a-hanzi-animation-3" stroke-dasharray="297 594" stroke-linecap="round"></path>
    
      <clipPath id="make-me-a-hanzi-clip-4">
        <path d="M 150 455 Q 165 452 189 458 Q 313 486 427 504 Q 455 505 457 493 Q 457 483 439 440 Q 433 428 439 425 Q 445 422 455 432 Q 512 475 535 484 Q 553 488 552 499 Q 551 509 491 539 Q 467 549 424 533 L 376 522 Q 351 518 330 512 L 294 505 Q 270 502 245 497 L 210 493 Q 183 492 155 486 C 126 480 120 457 150 455 Z"></path>
      </clipPath>
      <path clip-path="url(#make-me-a-hanzi-clip-4)" d="M 156 462 L 170 472 L 421 518 L 464 520 L 492 500 L 442 433" fill="none" id="make-me-a-hanzi-animation-4" stroke-dasharray="561 1122" stroke-linecap="round"></path>
    
      <clipPath id="make-me-a-hanzi-clip-5">
        <path d="M 229 186 Q 232 226 236 258 L 238 283 Q 242 346 247 367 C 251 386 251 386 245 392 Q 227 414 196 415 Q 184 411 189 401 Q 229 301 178 116 Q 156 56 156 54 Q 156 29 170 8 Q 176 -4 185 1 Q 218 25 226 132 Q 227 151 228 168 L 229 186 Z"></path>
      </clipPath>
      <path clip-path="url(#make-me-a-hanzi-clip-5)" d="M 202 403 L 218 387 L 223 371 L 224 294 L 208 152 L 180 10" fill="none" id="make-me-a-hanzi-animation-5" stroke-dasharray="532 1064" stroke-linecap="round"></path>
    
      <clipPath id="make-me-a-hanzi-clip-6">
        <path d="M 247 367 Q 260 367 343 390 Q 359 396 364 387 Q 368 377 370 360 Q 380 198 376 99 Q 375 77 368 67 Q 364 64 305 75 Q 289 81 289 72 Q 335 32 361 1 Q 371 -15 385 -19 Q 392 -22 400 -14 Q 434 31 433 74 Q 411 341 428 377 Q 438 393 428 402 Q 409 418 379 430 Q 364 436 312 409 Q 285 400 245 392 C 216 386 217 362 247 367 Z"></path>
      </clipPath>
      <path clip-path="url(#make-me-a-hanzi-clip-6)" d="M 249 373 L 270 385 L 360 411 L 377 406 L 397 386 L 405 113 L 399 56 L 384 32 L 298 69" fill="none" id="make-me-a-hanzi-animation-6" stroke-dasharray="744 1488" stroke-linecap="round"></path>
    
      <clipPath id="make-me-a-hanzi-clip-7">
        <path d="M 236 258 Q 239 258 329 268 Q 351 274 341 285 Q 331 298 306 301 Q 260 304 238 283 C 216 263 207 256 236 258 Z"></path>
      </clipPath>
      <path clip-path="url(#make-me-a-hanzi-clip-7)" d="M 237 264 L 261 278 L 283 282 L 333 278" fill="none" id="make-me-a-hanzi-animation-7" stroke-dasharray="228 456" stroke-linecap="round"></path>
    
      <clipPath id="make-me-a-hanzi-clip-8">
        <path d="M 228 168 Q 231 165 328 173 Q 350 177 341 189 Q 331 202 307 206 Q 262 212 229 186 C 210 171 210 171 228 168 Z"></path>
      </clipPath>
      <path clip-path="url(#make-me-a-hanzi-clip-8)" d="M 230 172 L 275 188 L 332 183" fill="none" id="make-me-a-hanzi-animation-8" stroke-dasharray="233 466" stroke-linecap="round"></path>
    
      <clipPath id="make-me-a-hanzi-clip-9">
        <path d="M 637 644 Q 719 666 749 679 Q 792 697 829 704 Q 845 705 849 713 Q 853 723 841 734 Q 822 749 779 765 Q 764 772 751 770 Q 744 767 744 756 Q 744 732 621 661 C 595 646 608 636 637 644 Z"></path>
      </clipPath>
      <path clip-path="url(#make-me-a-hanzi-clip-9)" d="M 838 718 L 772 727 L 678 673 L 644 659 L 634 665" fill="none" id="make-me-a-hanzi-animation-9" stroke-dasharray="351 702" stroke-linecap="round"></path>
    
      <clipPath id="make-me-a-hanzi-clip-10">
        <path d="M 586 320 Q 607 395 618 466 L 621 496 Q 627 602 635 622 Q 641 634 637 644 L 621 661 Q 608 671 588 679 Q 569 689 556 683 Q 544 676 551 663 Q 569 642 569 571 Q 569 420 536 313 Q 509 229 446 118 Q 442 112 439 106 Q 438 96 448 98 Q 484 105 547 222 Q 554 238 563 256 Q 572 278 579 300 L 586 320 Z"></path>
      </clipPath>
      <path clip-path="url(#make-me-a-hanzi-clip-10)" d="M 561 671 L 575 664 L 600 631 L 594 491 L 583 406 L 546 271 L 513 199 L 467 126 L 449 108" fill="none" id="make-me-a-hanzi-animation-10" stroke-dasharray="742 1484" stroke-linecap="round"></path>
    
      <clipPath id="make-me-a-hanzi-clip-11">
        <path d="M 618 466 Q 664 453 751 470 Q 803 482 860 492 Q 894 501 899 505 Q 909 514 904 523 Q 895 536 864 543 Q 831 550 799 536 Q 762 523 719 512 Q 673 502 621 496 C 591 492 589 473 618 466 Z"></path>
      </clipPath>
      <path clip-path="url(#make-me-a-hanzi-clip-11)" d="M 625 473 L 645 481 L 737 491 L 825 515 L 892 517" fill="none" id="make-me-a-hanzi-animation-11" stroke-dasharray="400 800" stroke-linecap="round"></path>
    
      <clipPath id="make-me-a-hanzi-clip-12">
        <path d="M 633 304 Q 611 320 586 320 C 572 321 572 321 579 300 Q 609 219 616 95 Q 616 58 634 31 Q 649 10 654 24 Q 661 40 661 70 L 659 106 Q 643 230 641 271 C 639 300 639 300 633 304 Z"></path>
      </clipPath>
      <path clip-path="url(#make-me-a-hanzi-clip-12)" d="M 592 312 L 610 288 L 620 246 L 645 29" fill="none" id="make-me-a-hanzi-animation-12" stroke-dasharray="420 840" stroke-linecap="round"></path>
    
      <clipPath id="make-me-a-hanzi-clip-13">
        <path d="M 838 126 Q 860 246 898 275 Q 914 296 898 314 Q 820 368 762 339 Q 687 315 633 304 C 604 298 611 267 641 271 Q 644 271 778 293 Q 790 296 794 291 Q 806 281 805 258 Q 799 188 787 131 C 781 102 832 97 838 126 Z"></path>
      </clipPath>
      <path clip-path="url(#make-me-a-hanzi-clip-13)" d="M 641 277 L 655 292 L 788 321 L 819 314 L 840 299 L 848 290 L 819 159 L 794 136" fill="none" id="make-me-a-hanzi-animation-13" stroke-dasharray="522 1044" stroke-linecap="round"></path>
    
      <clipPath id="make-me-a-hanzi-clip-14">
        <path d="M 661 70 Q 674 67 690 70 Q 742 80 854 86 Q 866 87 867 97 Q 867 106 838 126 C 831 131 817 131 787 131 Q 783 132 780 131 Q 713 115 659 106 C 629 101 631 75 661 70 Z"></path>
      </clipPath>
      <path clip-path="url(#make-me-a-hanzi-clip-14)" d="M 669 76 L 680 89 L 777 106 L 835 106 L 857 97" fill="none" id="make-me-a-hanzi-animation-14" stroke-dasharray="325 650" stroke-linecap="round"></path>
    
  </g>
</svg>