<svg version="1.1" viewBox="0 0 1024 1024" xmlns="http://www.w3.org/2000/svg">
  <g stroke="lightgray" stroke-dasharray="1,1" stroke-width="1" transform="scale(4, 4)">
    <line x1="0" y1="0" x2="256" y2="256"></line>
    <line x1="256" y1="0" x2="0" y2="256"></line>
    <line x1="128" y1="0" x2="128" y2="256"></line>
    <line x1="0" y1="128" x2="256" y2="128"></line>
  </g>
  <g transform="scale(1, -1) translate(0, -900)">
    <style type="text/css">
      
        @keyframes keyframes0 {
          from {
            stroke: blue;
            stroke-dashoffset: 427;
            stroke-width: 128;
          }
          58% {
            animation-timing-function: step-end;
            stroke: blue;
            stroke-dashoffset: 0;
            stroke-width: 128;
          }
          to {
            stroke: black;
            stroke-width: 1024;
          }
        }
        #make-me-a-hanzi-animation-0 {
          animation: keyframes0 0.5974934895833334s both;
          animation-delay: 0s;
          animation-timing-function: linear;
        }
      
        @keyframes keyframes1 {
          from {
            stroke: blue;
            stroke-dashoffset: 465;
            stroke-width: 128;
          }
          60% {
            animation-timing-function: step-end;
            stroke: blue;
            stroke-dashoffset: 0;
            stroke-width: 128;
          }
          to {
            stroke: black;
            stroke-width: 1024;
          }
        }
        #make-me-a-hanzi-animation-1 {
          animation: keyframes1 0.62841796875s both;
          animation-delay: 0.5974934895833334s;
          animation-timing-function: linear;
        }
      
        @keyframes keyframes2 {
          from {
            stroke: blue;
            stroke-dashoffset: 386;
            stroke-width: 128;
          }
          56% {
            animation-timing-function: step-end;
            stroke: blue;
            stroke-dashoffset: 0;
            stroke-width: 128;
          }
          to {
            stroke: black;
            stroke-width: 1024;
          }
        }
        #make-me-a-hanzi-animation-2 {
          animation: keyframes2 0.5641276041666666s both;
          animation-delay: 1.2259114583333335s;
          animation-timing-function: linear;
        }
      
        @keyframes keyframes3 {
          from {
            stroke: blue;
            stroke-dashoffset: 390;
            stroke-width: 128;
          }
          56% {
            animation-timing-function: step-end;
            stroke: blue;
            stroke-dashoffset: 0;
            stroke-width: 128;
          }
          to {
            stroke: black;
            stroke-width: 1024;
          }
        }
        #make-me-a-hanzi-animation-3 {
          animation: keyframes3 0.5673828125s both;
          animation-delay: 1.7900390625s;
          animation-timing-function: linear;
        }
      
        @keyframes keyframes4 {
          from {
            stroke: blue;
            stroke-dashoffset: 686;
            stroke-width: 128;
          }
          69% {
            animation-timing-function: step-end;
            stroke: blue;
            stroke-dashoffset: 0;
            stroke-width: 128;
          }
          to {
            stroke: black;
            stroke-width: 1024;
          }
        }
        #make-me-a-hanzi-animation-4 {
          animation: keyframes4 0.8082682291666666s both;
          animation-delay: 2.357421875s;
          animation-timing-function: linear;
        }
      
        @keyframes keyframes5 {
          from {
            stroke: blue;
            stroke-dashoffset: 547;
            stroke-width: 128;
          }
          64% {
            animation-timing-function: step-end;
            stroke: blue;
            stroke-dashoffset: 0;
            stroke-width: 128;
          }
          to {
            stroke: black;
            stroke-width: 1024;
          }
        }
        #make-me-a-hanzi-animation-5 {
          animation: keyframes5 0.6951497395833334s both;
          animation-delay: 3.1656901041666665s;
          animation-timing-function: linear;
        }
      
        @keyframes keyframes6 {
          from {
            stroke: blue;
            stroke-dashoffset: 336;
            stroke-width: 128;
          }
          52% {
            animation-timing-function: step-end;
            stroke: blue;
            stroke-dashoffset: 0;
            stroke-width: 128;
          }
          to {
            stroke: black;
            stroke-width: 1024;
          }
        }
        #make-me-a-hanzi-animation-6 {
          animation: keyframes6 0.5234375s both;
          animation-delay: 3.86083984375s;
          animation-timing-function: linear;
        }
      
        @keyframes keyframes7 {
          from {
            stroke: blue;
            stroke-dashoffset: 460;
            stroke-width: 128;
          }
          60% {
            animation-timing-function: step-end;
            stroke: blue;
            stroke-dashoffset: 0;
            stroke-width: 128;
          }
          to {
            stroke: black;
            stroke-width: 1024;
          }
        }
        #make-me-a-hanzi-animation-7 {
          animation: keyframes7 0.6243489583333334s both;
          animation-delay: 4.38427734375s;
          animation-timing-function: linear;
        }
      
        @keyframes keyframes8 {
          from {
            stroke: blue;
            stroke-dashoffset: 508;
            stroke-width: 128;
          }
          62% {
            animation-timing-function: step-end;
            stroke: blue;
            stroke-dashoffset: 0;
            stroke-width: 128;
          }
          to {
            stroke: black;
            stroke-width: 1024;
          }
        }
        #make-me-a-hanzi-animation-8 {
          animation: keyframes8 0.6634114583333334s both;
          animation-delay: 5.008626302083333s;
          animation-timing-function: linear;
        }
      
        @keyframes keyframes9 {
          from {
            stroke: blue;
            stroke-dashoffset: 520;
            stroke-width: 128;
          }
          63% {
            animation-timing-function: step-end;
            stroke: blue;
            stroke-dashoffset: 0;
            stroke-width: 128;
          }
          to {
            stroke: black;
            stroke-width: 1024;
          }
        }
        #make-me-a-hanzi-animation-9 {
          animation: keyframes9 0.6731770833333334s both;
          animation-delay: 5.672037760416666s;
          animation-timing-function: linear;
        }
      
        @keyframes keyframes10 {
          from {
            stroke: blue;
            stroke-dashoffset: 683;
            stroke-width: 128;
          }
          69% {
            animation-timing-function: step-end;
            stroke: blue;
            stroke-dashoffset: 0;
            stroke-width: 128;
          }
          to {
            stroke: black;
            stroke-width: 1024;
          }
        }
        #make-me-a-hanzi-animation-10 {
          animation: keyframes10 0.8058268229166666s both;
          animation-delay: 6.345214843749999s;
          animation-timing-function: linear;
        }
      
        @keyframes keyframes11 {
          from {
            stroke: blue;
            stroke-dashoffset: 477;
            stroke-width: 128;
          }
          61% {
            animation-timing-function: step-end;
            stroke: blue;
            stroke-dashoffset: 0;
            stroke-width: 128;
          }
          to {
            stroke: black;
            stroke-width: 1024;
          }
        }
        #make-me-a-hanzi-animation-11 {
          animation: keyframes11 0.63818359375s both;
          animation-delay: 7.151041666666666s;
          animation-timing-function: linear;
        }
      
        @keyframes keyframes12 {
          from {
            stroke: blue;
            stroke-dashoffset: 452;
            stroke-width: 128;
          }
          60% {
            animation-timing-function: step-end;
            stroke: blue;
            stroke-dashoffset: 0;
            stroke-width: 128;
          }
          to {
            stroke: black;
            stroke-width: 1024;
          }
        }
        #make-me-a-hanzi-animation-12 {
          animation: keyframes12 0.6178385416666666s both;
          animation-delay: 7.789225260416666s;
          animation-timing-function: linear;
        }
      
        @keyframes keyframes13 {
          from {
            stroke: blue;
            stroke-dashoffset: 658;
            stroke-width: 128;
          }
          68% {
            animation-timing-function: step-end;
            stroke: blue;
            stroke-dashoffset: 0;
            stroke-width: 128;
          }
          to {
            stroke: black;
            stroke-width: 1024;
          }
        }
        #make-me-a-hanzi-animation-13 {
          animation: keyframes13 0.7854817708333334s both;
          animation-delay: 8.407063802083332s;
          animation-timing-function: linear;
        }
      
        @keyframes keyframes14 {
          from {
            stroke: blue;
            stroke-dashoffset: 400;
            stroke-width: 128;
          }
          57% {
            animation-timing-function: step-end;
            stroke: blue;
            stroke-dashoffset: 0;
            stroke-width: 128;
          }
          to {
            stroke: black;
            stroke-width: 1024;
          }
        }
        #make-me-a-hanzi-animation-14 {
          animation: keyframes14 0.5755208333333334s both;
          animation-delay: 9.192545572916666s;
          animation-timing-function: linear;
        }
      
        @keyframes keyframes15 {
          from {
            stroke: blue;
            stroke-dashoffset: 402;
            stroke-width: 128;
          }
          57% {
            animation-timing-function: step-end;
            stroke: blue;
            stroke-dashoffset: 0;
            stroke-width: 128;
          }
          to {
            stroke: black;
            stroke-width: 1024;
          }
        }
        #make-me-a-hanzi-animation-15 {
          animation: keyframes15 0.5771484375s both;
          animation-delay: 9.76806640625s;
          animation-timing-function: linear;
        }
      
        @keyframes keyframes16 {
          from {
            stroke: blue;
            stroke-dashoffset: 456;
            stroke-width: 128;
          }
          60% {
            animation-timing-function: step-end;
            stroke: blue;
            stroke-dashoffset: 0;
            stroke-width: 128;
          }
          to {
            stroke: black;
            stroke-width: 1024;
          }
        }
        #make-me-a-hanzi-animation-16 {
          animation: keyframes16 0.62109375s both;
          animation-delay: 10.34521484375s;
          animation-timing-function: linear;
        }
      
        @keyframes keyframes17 {
          from {
            stroke: blue;
            stroke-dashoffset: 1050;
            stroke-width: 128;
          }
          77% {
            animation-timing-function: step-end;
            stroke: blue;
            stroke-dashoffset: 0;
            stroke-width: 128;
          }
          to {
            stroke: black;
            stroke-width: 1024;
          }
        }
        #make-me-a-hanzi-animation-17 {
          animation: keyframes17 1.1044921875s both;
          animation-delay: 10.96630859375s;
          animation-timing-function: linear;
        }
      
        @keyframes keyframes18 {
          from {
            stroke: blue;
            stroke-dashoffset: 500;
            stroke-width: 128;
          }
          62% {
            animation-timing-function: step-end;
            stroke: blue;
            stroke-dashoffset: 0;
            stroke-width: 128;
          }
          to {
            stroke: black;
            stroke-width: 1024;
          }
        }
        #make-me-a-hanzi-animation-18 {
          animation: keyframes18 0.6569010416666666s both;
          animation-delay: 12.07080078125s;
          animation-timing-function: linear;
        }
      
        @keyframes keyframes19 {
          from {
            stroke: blue;
            stroke-dashoffset: 424;
            stroke-width: 128;
          }
          58% {
            animation-timing-function: step-end;
            stroke: blue;
            stroke-dashoffset: 0;
            stroke-width: 128;
          }
          to {
            stroke: black;
            stroke-width: 1024;
          }
        }
        #make-me-a-hanzi-animation-19 {
          animation: keyframes19 0.5950520833333334s both;
          animation-delay: 12.727701822916666s;
          animation-timing-function: linear;
        }
      
    </style>
    
      <path d="M 319 771 Q 334 768 408 782 Q 435 788 466 795 Q 488 801 492 804 Q 498 810 494 816 Q 490 823 469 828 Q 447 832 427 823 Q 402 813 374 806 Q 344 799 310 794 C 280 790 289 774 319 771 Z" fill="lightgray"></path>
    
      <path d="M 321 613 Q 320 632 319 649 L 318 666 Q 317 693 317 713 L 317 725 Q 317 747 319 771 C 320 786 320 786 310 794 Q 292 809 270 815 Q 260 819 252 815 Q 246 809 251 798 Q 266 773 272 746 Q 276 718 289 607 C 292 577 323 583 321 613 Z" fill="lightgray"></path>
    
      <path d="M 317 713 Q 326 707 446 727 Q 462 730 457 739 Q 450 749 431 752 Q 416 753 317 725 C 295 719 295 719 317 713 Z" fill="lightgray"></path>
    
      <path d="M 319 649 Q 326 648 336 649 Q 402 662 451 670 Q 467 674 461 683 Q 454 693 435 696 Q 414 697 318 666 C 289 657 289 652 319 649 Z" fill="lightgray"></path>
    
      <path d="M 335 589 Q 414 605 519 615 Q 532 616 532 621 Q 533 631 520 638 Q 501 648 483 645 Q 383 626 321 613 L 289 607 Q 100 580 99 579 Q 98 572 108 562 Q 135 541 178 551 Q 239 570 290 580 L 335 589 Z" fill="lightgray"></path>
    
      <path d="M 424 541 Q 286 507 285 506 Q 285 507 288 510 Q 327 555 342 566 Q 352 575 346 582 Q 342 586 335 589 C 309 604 289 610 290 580 Q 293 567 282 545 Q 258 509 226 496 Q 207 487 207 479 Q 207 467 215 453 Q 222 438 232 435 Q 238 434 246 438 Q 300 478 432 528 C 460 539 453 548 424 541 Z" fill="lightgray"></path>
    
      <path d="M 432 528 Q 459 495 469 492 Q 479 489 486 503 Q 489 513 484 529 Q 475 556 422 577 Q 415 580 413 571 Q 410 565 424 541 L 432 528 Z" fill="lightgray"></path>
    
      <path d="M 689 834 Q 668 783 558 718 Q 539 708 561 707 Q 618 703 708 771 Q 733 789 744 796 Q 754 803 754 812 Q 753 824 733 834 Q 711 846 700 845 Q 693 845 689 834 Z" fill="lightgray"></path>
    
      <path d="M 738 756 Q 717 705 561 620 Q 543 613 564 611 Q 621 608 738 686 Q 744 692 786 720 Q 795 727 795 734 Q 794 744 777 754 Q 758 764 748 765 Q 742 765 738 756 Z" fill="lightgray"></path>
    
      <path d="M 581 525 Q 666 541 782 607 Q 797 617 807 621 Q 817 627 818 635 Q 819 645 801 658 Q 782 671 772 672 Q 765 673 760 663 Q 730 606 558 536 Q 539 530 560 526 Q 566 525 574 525 L 581 525 Z" fill="lightgray"></path>
    
      <path d="M 419 448 Q 420 458 423 463 Q 429 481 416 490 Q 385 508 375 505 Q 368 501 372 491 Q 387 470 388 438 Q 389 365 487 357 Q 530 353 600 365 Q 658 378 680 393 Q 698 405 688 424 Q 676 439 664 466 Q 661 476 657 478 Q 651 479 651 468 Q 647 434 641 427 Q 604 394 444 403 Q 442 404 441 404 Q 422 410 418 419 Q 417 425 417 437 L 419 448 Z" fill="lightgray"></path>
    
      <path d="M 574 525 Q 570 524 570 517 Q 567 496 419 448 C 390 439 387 435 417 437 Q 501 443 565 464 Q 596 471 622 472 Q 634 471 637 476 Q 640 483 633 491 Q 608 519 581 525 L 574 525 Z" fill="lightgray"></path>
    
      <path d="M 425 319 L 423 321 Q 407 331 389 336 Q 382 337 378 331 Q 377 327 382 320 Q 409 278 392 199 Q 388 180 392 168 Q 401 146 409 137 Q 416 128 423 138 Q 423 139 424 140 C 432 150 432 150 432 163 Q 432 178 435 195 L 435 213 Q 434 231 433 247 L 433 263 Q 433 285 433 295 C 433 313 433 313 425 319 Z" fill="lightgray"></path>
    
      <path d="M 661 138 Q 682 165 682 210 Q 679 282 691 299 Q 698 312 693 319 Q 672 338 635 355 Q 623 359 605 353 Q 539 329 425 319 C 395 316 403 293 433 295 Q 439 295 446 296 Q 531 314 592 321 Q 614 325 620 314 Q 627 307 628 278 Q 632 202 628 186 Q 627 185 626 182 C 623 171 623 171 629 158 Q 635 143 641 137 C 651 123 651 123 661 138 Z" fill="lightgray"></path>
    
      <path d="M 433 247 Q 440 246 449 247 Q 524 257 579 262 Q 592 263 588 272 Q 582 281 567 284 Q 554 287 528 282 Q 476 272 433 263 C 404 257 403 250 433 247 Z" fill="lightgray"></path>
    
      <path d="M 435 195 Q 436 195 439 195 Q 518 205 578 210 Q 593 211 588 219 Q 582 229 567 233 Q 549 236 435 213 C 406 207 405 194 435 195 Z" fill="lightgray"></path>
    
      <path d="M 424 140 Q 431 139 444 140 Q 549 152 629 158 C 659 160 652 166 626 182 Q 622 186 614 187 Q 598 191 432 163 C 402 158 394 142 424 140 Z" fill="lightgray"></path>
    
      <path d="M 641 137 Q 478 131 321 104 Q 300 98 297 105 Q 290 109 293 124 Q 299 209 307 235 Q 313 248 301 258 Q 282 277 253 286 Q 240 290 233 282 Q 229 276 238 262 Q 256 237 256 200 Q 257 127 232 90 Q 222 77 226 67 Q 233 51 248 37 Q 258 28 273 40 Q 375 103 634 103 Q 721 103 822 89 Q 841 85 851 90 Q 857 94 853 106 Q 849 118 815 139 Q 797 151 774 147 Q 729 140 666 139 Q 663 139 661 138 L 641 137 Z" fill="lightgray"></path>
    
      <path d="M 393 32 Q 359 -5 264 -63 Q 260 -70 265 -72 Q 292 -72 404 -14 Q 419 2 475 17 Q 488 20 490 26 Q 491 33 482 42 Q 431 72 407 64 Q 401 60 402 52 Q 403 42 393 32 Z" fill="lightgray"></path>
    
      <path d="M 597 46 Q 640 12 694 -39 Q 710 -55 723 -58 Q 730 -59 737 -50 Q 747 -37 732 0 Q 720 36 658 55 Q 618 68 596 73 Q 587 77 587 66 Q 587 54 597 46 Z" fill="lightgray"></path>
    
    
      <clipPath id="make-me-a-hanzi-clip-0">
        <path d="M 319 771 Q 334 768 408 782 Q 435 788 466 795 Q 488 801 492 804 Q 498 810 494 816 Q 490 823 469 828 Q 447 832 427 823 Q 402 813 374 806 Q 344 799 310 794 C 280 790 289 774 319 771 Z"></path>
      </clipPath>
      <path clip-path="url(#make-me-a-hanzi-clip-0)" d="M 317 790 L 341 784 L 394 793 L 450 811 L 484 812" fill="none" id="make-me-a-hanzi-animation-0" stroke-dasharray="299 598" stroke-linecap="round"></path>
    
      <clipPath id="make-me-a-hanzi-clip-1">
        <path d="M 321 613 Q 320 632 319 649 L 318 666 Q 317 693 317 713 L 317 725 Q 317 747 319 771 C 320 786 320 786 310 794 Q 292 809 270 815 Q 260 819 252 815 Q 246 809 251 798 Q 266 773 272 746 Q 276 718 289 607 C 292 577 323 583 321 613 Z"></path>
      </clipPath>
      <path clip-path="url(#make-me-a-hanzi-clip-1)" d="M 258 808 L 289 779 L 294 765 L 304 631 L 292 619" fill="none" id="make-me-a-hanzi-animation-1" stroke-dasharray="337 674" stroke-linecap="round"></path>
    
      <clipPath id="make-me-a-hanzi-clip-2">
        <path d="M 317 713 Q 326 707 446 727 Q 462 730 457 739 Q 450 749 431 752 Q 416 753 317 725 C 295 719 295 719 317 713 Z"></path>
      </clipPath>
      <path clip-path="url(#make-me-a-hanzi-clip-2)" d="M 321 719 L 416 736 L 449 736" fill="none" id="make-me-a-hanzi-animation-2" stroke-dasharray="258 516" stroke-linecap="round"></path>
    
      <clipPath id="make-me-a-hanzi-clip-3">
        <path d="M 319 649 Q 326 648 336 649 Q 402 662 451 670 Q 467 674 461 683 Q 454 693 435 696 Q 414 697 318 666 C 289 657 289 652 319 649 Z"></path>
      </clipPath>
      <path clip-path="url(#make-me-a-hanzi-clip-3)" d="M 323 654 L 354 667 L 426 681 L 453 679" fill="none" id="make-me-a-hanzi-animation-3" stroke-dasharray="262 524" stroke-linecap="round"></path>
    
      <clipPath id="make-me-a-hanzi-clip-4">
        <path d="M 335 589 Q 414 605 519 615 Q 532 616 532 621 Q 533 631 520 638 Q 501 648 483 645 Q 383 626 321 613 L 289 607 Q 100 580 99 579 Q 98 572 108 562 Q 135 541 178 551 Q 239 570 290 580 L 335 589 Z"></path>
      </clipPath>
      <path clip-path="url(#make-me-a-hanzi-clip-4)" d="M 101 575 L 131 567 L 166 569 L 276 595 L 295 594 L 442 622 L 490 629 L 523 624" fill="none" id="make-me-a-hanzi-animation-4" stroke-dasharray="558 1116" stroke-linecap="round"></path>
    
      <clipPath id="make-me-a-hanzi-clip-5">
        <path d="M 424 541 Q 286 507 285 506 Q 285 507 288 510 Q 327 555 342 566 Q 352 575 346 582 Q 342 586 335 589 C 309 604 289 610 290 580 Q 293 567 282 545 Q 258 509 226 496 Q 207 487 207 479 Q 207 467 215 453 Q 222 438 232 435 Q 238 434 246 438 Q 300 478 432 528 C 460 539 453 548 424 541 Z"></path>
      </clipPath>
      <path clip-path="url(#make-me-a-hanzi-clip-5)" d="M 337 576 L 309 563 L 287 526 L 276 518 L 265 485 L 283 485 L 384 524 L 400 523 L 410 535 L 420 530" fill="none" id="make-me-a-hanzi-animation-5" stroke-dasharray="419 838" stroke-linecap="round"></path>
    
      <clipPath id="make-me-a-hanzi-clip-6">
        <path d="M 432 528 Q 459 495 469 492 Q 479 489 486 503 Q 489 513 484 529 Q 475 556 422 577 Q 415 580 413 571 Q 410 565 424 541 L 432 528 Z"></path>
      </clipPath>
      <path clip-path="url(#make-me-a-hanzi-clip-6)" d="M 422 567 L 458 531 L 472 505" fill="none" id="make-me-a-hanzi-animation-6" stroke-dasharray="208 416" stroke-linecap="round"></path>
    
      <clipPath id="make-me-a-hanzi-clip-7">
        <path d="M 689 834 Q 668 783 558 718 Q 539 708 561 707 Q 618 703 708 771 Q 733 789 744 796 Q 754 803 754 812 Q 753 824 733 834 Q 711 846 700 845 Q 693 845 689 834 Z"></path>
      </clipPath>
      <path clip-path="url(#make-me-a-hanzi-clip-7)" d="M 739 812 L 712 811 L 658 761 L 620 736 L 566 714" fill="none" id="make-me-a-hanzi-animation-7" stroke-dasharray="332 664" stroke-linecap="round"></path>
    
      <clipPath id="make-me-a-hanzi-clip-8">
        <path d="M 738 756 Q 717 705 561 620 Q 543 613 564 611 Q 621 608 738 686 Q 744 692 786 720 Q 795 727 795 734 Q 794 744 777 754 Q 758 764 748 765 Q 742 765 738 756 Z"></path>
      </clipPath>
      <path clip-path="url(#make-me-a-hanzi-clip-8)" d="M 783 734 L 758 734 L 718 696 L 667 662 L 611 632 L 589 623 L 573 624 L 569 618" fill="none" id="make-me-a-hanzi-animation-8" stroke-dasharray="380 760" stroke-linecap="round"></path>
    
      <clipPath id="make-me-a-hanzi-clip-9">
        <path d="M 581 525 Q 666 541 782 607 Q 797 617 807 621 Q 817 627 818 635 Q 819 645 801 658 Q 782 671 772 672 Q 765 673 760 663 Q 730 606 558 536 Q 539 530 560 526 Q 566 525 574 525 L 581 525 Z"></path>
      </clipPath>
      <path clip-path="url(#make-me-a-hanzi-clip-9)" d="M 805 636 L 779 639 L 703 586 L 648 559 L 568 533" fill="none" id="make-me-a-hanzi-animation-9" stroke-dasharray="392 784" stroke-linecap="round"></path>
    
      <clipPath id="make-me-a-hanzi-clip-10">
        <path d="M 419 448 Q 420 458 423 463 Q 429 481 416 490 Q 385 508 375 505 Q 368 501 372 491 Q 387 470 388 438 Q 389 365 487 357 Q 530 353 600 365 Q 658 378 680 393 Q 698 405 688 424 Q 676 439 664 466 Q 661 476 657 478 Q 651 479 651 468 Q 647 434 641 427 Q 604 394 444 403 Q 442 404 441 404 Q 422 410 418 419 Q 417 425 417 437 L 419 448 Z"></path>
      </clipPath>
      <path clip-path="url(#make-me-a-hanzi-clip-10)" d="M 379 497 L 404 472 L 402 431 L 411 405 L 442 384 L 478 380 L 572 382 L 647 402 L 664 414 L 658 471" fill="none" id="make-me-a-hanzi-animation-10" stroke-dasharray="555 1110" stroke-linecap="round"></path>
    
      <clipPath id="make-me-a-hanzi-clip-11">
        <path d="M 574 525 Q 570 524 570 517 Q 567 496 419 448 C 390 439 387 435 417 437 Q 501 443 565 464 Q 596 471 622 472 Q 634 471 637 476 Q 640 483 633 491 Q 608 519 581 525 L 574 525 Z"></path>
      </clipPath>
      <path clip-path="url(#make-me-a-hanzi-clip-11)" d="M 628 482 L 588 495 L 472 453 L 441 446 L 432 452 L 425 441" fill="none" id="make-me-a-hanzi-animation-11" stroke-dasharray="349 698" stroke-linecap="round"></path>
    
      <clipPath id="make-me-a-hanzi-clip-12">
        <path d="M 425 319 L 423 321 Q 407 331 389 336 Q 382 337 378 331 Q 377 327 382 320 Q 409 278 392 199 Q 388 180 392 168 Q 401 146 409 137 Q 416 128 423 138 Q 423 139 424 140 C 432 150 432 150 432 163 Q 432 178 435 195 L 435 213 Q 434 231 433 247 L 433 263 Q 433 285 433 295 C 433 313 433 313 425 319 Z"></path>
      </clipPath>
      <path clip-path="url(#make-me-a-hanzi-clip-12)" d="M 386 328 L 409 307 L 414 291 L 411 178 L 416 143" fill="none" id="make-me-a-hanzi-animation-12" stroke-dasharray="324 648" stroke-linecap="round"></path>
    
      <clipPath id="make-me-a-hanzi-clip-13">
        <path d="M 661 138 Q 682 165 682 210 Q 679 282 691 299 Q 698 312 693 319 Q 672 338 635 355 Q 623 359 605 353 Q 539 329 425 319 C 395 316 403 293 433 295 Q 439 295 446 296 Q 531 314 592 321 Q 614 325 620 314 Q 627 307 628 278 Q 632 202 628 186 Q 627 185 626 182 C 623 171 623 171 629 158 Q 635 143 641 137 C 651 123 651 123 661 138 Z"></path>
      </clipPath>
      <path clip-path="url(#make-me-a-hanzi-clip-13)" d="M 435 316 L 442 308 L 617 339 L 633 333 L 658 305 L 655 189 L 646 147" fill="none" id="make-me-a-hanzi-animation-13" stroke-dasharray="530 1060" stroke-linecap="round"></path>
    
      <clipPath id="make-me-a-hanzi-clip-14">
        <path d="M 433 247 Q 440 246 449 247 Q 524 257 579 262 Q 592 263 588 272 Q 582 281 567 284 Q 554 287 528 282 Q 476 272 433 263 C 404 257 403 250 433 247 Z"></path>
      </clipPath>
      <path clip-path="url(#make-me-a-hanzi-clip-14)" d="M 437 251 L 523 270 L 579 271" fill="none" id="make-me-a-hanzi-animation-14" stroke-dasharray="272 544" stroke-linecap="round"></path>
    
      <clipPath id="make-me-a-hanzi-clip-15">
        <path d="M 435 195 Q 436 195 439 195 Q 518 205 578 210 Q 593 211 588 219 Q 582 229 567 233 Q 549 236 435 213 C 406 207 405 194 435 195 Z"></path>
      </clipPath>
      <path clip-path="url(#make-me-a-hanzi-clip-15)" d="M 437 200 L 448 209 L 550 221 L 579 219" fill="none" id="make-me-a-hanzi-animation-15" stroke-dasharray="274 548" stroke-linecap="round"></path>
    
      <clipPath id="make-me-a-hanzi-clip-16">
        <path d="M 424 140 Q 431 139 444 140 Q 549 152 629 158 C 659 160 652 166 626 182 Q 622 186 614 187 Q 598 191 432 163 C 402 158 394 142 424 140 Z"></path>
      </clipPath>
      <path clip-path="url(#make-me-a-hanzi-clip-16)" d="M 429 145 L 447 156 L 554 168 L 612 172 L 622 163" fill="none" id="make-me-a-hanzi-animation-16" stroke-dasharray="328 656" stroke-linecap="round"></path>
    
      <clipPath id="make-me-a-hanzi-clip-17">
        <path d="M 641 137 Q 478 131 321 104 Q 300 98 297 105 Q 290 109 293 124 Q 299 209 307 235 Q 313 248 301 258 Q 282 277 253 286 Q 240 290 233 282 Q 229 276 238 262 Q 256 237 256 200 Q 257 127 232 90 Q 222 77 226 67 Q 233 51 248 37 Q 258 28 273 40 Q 375 103 634 103 Q 721 103 822 89 Q 841 85 851 90 Q 857 94 853 106 Q 849 118 815 139 Q 797 151 774 147 Q 729 140 666 139 Q 663 139 661 138 L 641 137 Z"></path>
      </clipPath>
      <path clip-path="url(#make-me-a-hanzi-clip-17)" d="M 242 277 L 264 260 L 279 238 L 269 80 L 312 81 L 451 109 L 634 121 L 791 121 L 843 99" fill="none" id="make-me-a-hanzi-animation-17" stroke-dasharray="922 1844" stroke-linecap="round"></path>
    
      <clipPath id="make-me-a-hanzi-clip-18">
        <path d="M 393 32 Q 359 -5 264 -63 Q 260 -70 265 -72 Q 292 -72 404 -14 Q 419 2 475 17 Q 488 20 490 26 Q 491 33 482 42 Q 431 72 407 64 Q 401 60 402 52 Q 403 42 393 32 Z"></path>
      </clipPath>
      <path clip-path="url(#make-me-a-hanzi-clip-18)" d="M 482 28 L 429 34 L 348 -28 L 268 -67" fill="none" id="make-me-a-hanzi-animation-18" stroke-dasharray="372 744" stroke-linecap="round"></path>
    
      <clipPath id="make-me-a-hanzi-clip-19">
        <path d="M 597 46 Q 640 12 694 -39 Q 710 -55 723 -58 Q 730 -59 737 -50 Q 747 -37 732 0 Q 720 36 658 55 Q 618 68 596 73 Q 587 77 587 66 Q 587 54 597 46 Z"></path>
      </clipPath>
      <path clip-path="url(#make-me-a-hanzi-clip-19)" d="M 597 62 L 693 4 L 723 -43" fill="none" id="make-me-a-hanzi-animation-19" stroke-dasharray="296 592" stroke-linecap="round"></path>
    
  </g>
</svg>