<svg version="1.1" viewBox="0 0 1024 1024" xmlns="http://www.w3.org/2000/svg">
  <g stroke="lightgray" stroke-dasharray="1,1" stroke-width="1" transform="scale(4, 4)">
    <line x1="0" y1="0" x2="256" y2="256"></line>
    <line x1="256" y1="0" x2="0" y2="256"></line>
    <line x1="128" y1="0" x2="128" y2="256"></line>
    <line x1="0" y1="128" x2="256" y2="128"></line>
  </g>
  <g transform="scale(1, -1) translate(0, -900)">
    <style type="text/css">
      
        @keyframes keyframes0 {
          from {
            stroke: blue;
            stroke-dashoffset: 426;
            stroke-width: 128;
          }
          58% {
            animation-timing-function: step-end;
            stroke: blue;
            stroke-dashoffset: 0;
            stroke-width: 128;
          }
          to {
            stroke: black;
            stroke-width: 1024;
          }
        }
        #make-me-a-hanzi-animation-0 {
          animation: keyframes0 0.5966796875s both;
          animation-delay: 0s;
          animation-timing-function: linear;
        }
      
        @keyframes keyframes1 {
          from {
            stroke: blue;
            stroke-dashoffset: 540;
            stroke-width: 128;
          }
          64% {
            animation-timing-function: step-end;
            stroke: blue;
            stroke-dashoffset: 0;
            stroke-width: 128;
          }
          to {
            stroke: black;
            stroke-width: 1024;
          }
        }
        #make-me-a-hanzi-animation-1 {
          animation: keyframes1 0.689453125s both;
          animation-delay: 0.5966796875s;
          animation-timing-function: linear;
        }
      
        @keyframes keyframes2 {
          from {
            stroke: blue;
            stroke-dashoffset: 414;
            stroke-width: 128;
          }
          57% {
            animation-timing-function: step-end;
            stroke: blue;
            stroke-dashoffset: 0;
            stroke-width: 128;
          }
          to {
            stroke: black;
            stroke-width: 1024;
          }
        }
        #make-me-a-hanzi-animation-2 {
          animation: keyframes2 0.5869140625s both;
          animation-delay: 1.2861328125s;
          animation-timing-function: linear;
        }
      
        @keyframes keyframes3 {
          from {
            stroke: blue;
            stroke-dashoffset: 309;
            stroke-width: 128;
          }
          50% {
            animation-timing-function: step-end;
            stroke: blue;
            stroke-dashoffset: 0;
            stroke-width: 128;
          }
          to {
            stroke: black;
            stroke-width: 1024;
          }
        }
        #make-me-a-hanzi-animation-3 {
          animation: keyframes3 0.50146484375s both;
          animation-delay: 1.873046875s;
          animation-timing-function: linear;
        }
      
        @keyframes keyframes4 {
          from {
            stroke: blue;
            stroke-dashoffset: 392;
            stroke-width: 128;
          }
          56% {
            animation-timing-function: step-end;
            stroke: blue;
            stroke-dashoffset: 0;
            stroke-width: 128;
          }
          to {
            stroke: black;
            stroke-width: 1024;
          }
        }
        #make-me-a-hanzi-animation-4 {
          animation: keyframes4 0.5690104166666666s both;
          animation-delay: 2.37451171875s;
          animation-timing-function: linear;
        }
      
        @keyframes keyframes5 {
          from {
            stroke: blue;
            stroke-dashoffset: 398;
            stroke-width: 128;
          }
          56% {
            animation-timing-function: step-end;
            stroke: blue;
            stroke-dashoffset: 0;
            stroke-width: 128;
          }
          to {
            stroke: black;
            stroke-width: 1024;
          }
        }
        #make-me-a-hanzi-animation-5 {
          animation: keyframes5 0.5738932291666666s both;
          animation-delay: 2.9435221354166665s;
          animation-timing-function: linear;
        }
      
        @keyframes keyframes6 {
          from {
            stroke: blue;
            stroke-dashoffset: 453;
            stroke-width: 128;
          }
          60% {
            animation-timing-function: step-end;
            stroke: blue;
            stroke-dashoffset: 0;
            stroke-width: 128;
          }
          to {
            stroke: black;
            stroke-width: 1024;
          }
        }
        #make-me-a-hanzi-animation-6 {
          animation: keyframes6 0.61865234375s both;
          animation-delay: 3.517415364583333s;
          animation-timing-function: linear;
        }
      
        @keyframes keyframes7 {
          from {
            stroke: blue;
            stroke-dashoffset: 403;
            stroke-width: 128;
          }
          57% {
            animation-timing-function: step-end;
            stroke: blue;
            stroke-dashoffset: 0;
            stroke-width: 128;
          }
          to {
            stroke: black;
            stroke-width: 1024;
          }
        }
        #make-me-a-hanzi-animation-7 {
          animation: keyframes7 0.5779622395833334s both;
          animation-delay: 4.136067708333333s;
          animation-timing-function: linear;
        }
      
        @keyframes keyframes8 {
          from {
            stroke: blue;
            stroke-dashoffset: 481;
            stroke-width: 128;
          }
          61% {
            animation-timing-function: step-end;
            stroke: blue;
            stroke-dashoffset: 0;
            stroke-width: 128;
          }
          to {
            stroke: black;
            stroke-width: 1024;
          }
        }
        #make-me-a-hanzi-animation-8 {
          animation: keyframes8 0.6414388020833334s both;
          animation-delay: 4.714029947916666s;
          animation-timing-function: linear;
        }
      
        @keyframes keyframes9 {
          from {
            stroke: blue;
            stroke-dashoffset: 364;
            stroke-width: 128;
          }
          54% {
            animation-timing-function: step-end;
            stroke: blue;
            stroke-dashoffset: 0;
            stroke-width: 128;
          }
          to {
            stroke: black;
            stroke-width: 1024;
          }
        }
        #make-me-a-hanzi-animation-9 {
          animation: keyframes9 0.5462239583333334s both;
          animation-delay: 5.355468749999999s;
          animation-timing-function: linear;
        }
      
        @keyframes keyframes10 {
          from {
            stroke: blue;
            stroke-dashoffset: 448;
            stroke-width: 128;
          }
          59% {
            animation-timing-function: step-end;
            stroke: blue;
            stroke-dashoffset: 0;
            stroke-width: 128;
          }
          to {
            stroke: black;
            stroke-width: 1024;
          }
        }
        #make-me-a-hanzi-animation-10 {
          animation: keyframes10 0.6145833333333334s both;
          animation-delay: 5.901692708333332s;
          animation-timing-function: linear;
        }
      
        @keyframes keyframes11 {
          from {
            stroke: blue;
            stroke-dashoffset: 537;
            stroke-width: 128;
          }
          64% {
            animation-timing-function: step-end;
            stroke: blue;
            stroke-dashoffset: 0;
            stroke-width: 128;
          }
          to {
            stroke: black;
            stroke-width: 1024;
          }
        }
        #make-me-a-hanzi-animation-11 {
          animation: keyframes11 0.68701171875s both;
          animation-delay: 6.516276041666665s;
          animation-timing-function: linear;
        }
      
        @keyframes keyframes12 {
          from {
            stroke: blue;
            stroke-dashoffset: 392;
            stroke-width: 128;
          }
          56% {
            animation-timing-function: step-end;
            stroke: blue;
            stroke-dashoffset: 0;
            stroke-width: 128;
          }
          to {
            stroke: black;
            stroke-width: 1024;
          }
        }
        #make-me-a-hanzi-animation-12 {
          animation: keyframes12 0.5690104166666666s both;
          animation-delay: 7.203287760416665s;
          animation-timing-function: linear;
        }
      
        @keyframes keyframes13 {
          from {
            stroke: blue;
            stroke-dashoffset: 361;
            stroke-width: 128;
          }
          54% {
            animation-timing-function: step-end;
            stroke: blue;
            stroke-dashoffset: 0;
            stroke-width: 128;
          }
          to {
            stroke: black;
            stroke-width: 1024;
          }
        }
        #make-me-a-hanzi-animation-13 {
          animation: keyframes13 0.5437825520833334s both;
          animation-delay: 7.772298177083332s;
          animation-timing-function: linear;
        }
      
        @keyframes keyframes14 {
          from {
            stroke: blue;
            stroke-dashoffset: 441;
            stroke-width: 128;
          }
          59% {
            animation-timing-function: step-end;
            stroke: blue;
            stroke-dashoffset: 0;
            stroke-width: 128;
          }
          to {
            stroke: black;
            stroke-width: 1024;
          }
        }
        #make-me-a-hanzi-animation-14 {
          animation: keyframes14 0.60888671875s both;
          animation-delay: 8.316080729166666s;
          animation-timing-function: linear;
        }
      
        @keyframes keyframes15 {
          from {
            stroke: blue;
            stroke-dashoffset: 1009;
            stroke-width: 128;
          }
          77% {
            animation-timing-function: step-end;
            stroke: blue;
            stroke-dashoffset: 0;
            stroke-width: 128;
          }
          to {
            stroke: black;
            stroke-width: 1024;
          }
        }
        #make-me-a-hanzi-animation-15 {
          animation: keyframes15 1.0711263020833333s both;
          animation-delay: 8.924967447916666s;
          animation-timing-function: linear;
        }
      
        @keyframes keyframes16 {
          from {
            stroke: blue;
            stroke-dashoffset: 474;
            stroke-width: 128;
          }
          61% {
            animation-timing-function: step-end;
            stroke: blue;
            stroke-dashoffset: 0;
            stroke-width: 128;
          }
          to {
            stroke: black;
            stroke-width: 1024;
          }
        }
        #make-me-a-hanzi-animation-16 {
          animation: keyframes16 0.6357421875s both;
          animation-delay: 9.99609375s;
          animation-timing-function: linear;
        }
      
        @keyframes keyframes17 {
          from {
            stroke: blue;
            stroke-dashoffset: 446;
            stroke-width: 128;
          }
          59% {
            animation-timing-function: step-end;
            stroke: blue;
            stroke-dashoffset: 0;
            stroke-width: 128;
          }
          to {
            stroke: black;
            stroke-width: 1024;
          }
        }
        #make-me-a-hanzi-animation-17 {
          animation: keyframes17 0.6129557291666666s both;
          animation-delay: 10.6318359375s;
          animation-timing-function: linear;
        }
      
        @keyframes keyframes18 {
          from {
            stroke: blue;
            stroke-dashoffset: 301;
            stroke-width: 128;
          }
          49% {
            animation-timing-function: step-end;
            stroke: blue;
            stroke-dashoffset: 0;
            stroke-width: 128;
          }
          to {
            stroke: black;
            stroke-width: 1024;
          }
        }
        #make-me-a-hanzi-animation-18 {
          animation: keyframes18 0.4949544270833333s both;
          animation-delay: 11.244791666666666s;
          animation-timing-function: linear;
        }
      
        @keyframes keyframes19 {
          from {
            stroke: blue;
            stroke-dashoffset: 315;
            stroke-width: 128;
          }
          51% {
            animation-timing-function: step-end;
            stroke: blue;
            stroke-dashoffset: 0;
            stroke-width: 128;
          }
          to {
            stroke: black;
            stroke-width: 1024;
          }
        }
        #make-me-a-hanzi-animation-19 {
          animation: keyframes19 0.50634765625s both;
          animation-delay: 11.73974609375s;
          animation-timing-function: linear;
        }
      
        @keyframes keyframes20 {
          from {
            stroke: blue;
            stroke-dashoffset: 306;
            stroke-width: 128;
          }
          50% {
            animation-timing-function: step-end;
            stroke: blue;
            stroke-dashoffset: 0;
            stroke-width: 128;
          }
          to {
            stroke: black;
            stroke-width: 1024;
          }
        }
        #make-me-a-hanzi-animation-20 {
          animation: keyframes20 0.4990234375s both;
          animation-delay: 12.24609375s;
          animation-timing-function: linear;
        }
      
        @keyframes keyframes21 {
          from {
            stroke: blue;
            stroke-dashoffset: 301;
            stroke-width: 128;
          }
          49% {
            animation-timing-function: step-end;
            stroke: blue;
            stroke-dashoffset: 0;
            stroke-width: 128;
          }
          to {
            stroke: black;
            stroke-width: 1024;
          }
        }
        #make-me-a-hanzi-animation-21 {
          animation: keyframes21 0.4949544270833333s both;
          animation-delay: 12.7451171875s;
          animation-timing-function: linear;
        }
      
        @keyframes keyframes22 {
          from {
            stroke: blue;
            stroke-dashoffset: 627;
            stroke-width: 128;
          }
          67% {
            animation-timing-function: step-end;
            stroke: blue;
            stroke-dashoffset: 0;
            stroke-width: 128;
          }
          to {
            stroke: black;
            stroke-width: 1024;
          }
        }
        #make-me-a-hanzi-animation-22 {
          animation: keyframes22 0.76025390625s both;
          animation-delay: 13.240071614583334s;
          animation-timing-function: linear;
        }
      
        @keyframes keyframes23 {
          from {
            stroke: blue;
            stroke-dashoffset: 414;
            stroke-width: 128;
          }
          57% {
            animation-timing-function: step-end;
            stroke: blue;
            stroke-dashoffset: 0;
            stroke-width: 128;
          }
          to {
            stroke: black;
            stroke-width: 1024;
          }
        }
        #make-me-a-hanzi-animation-23 {
          animation: keyframes23 0.5869140625s both;
          animation-delay: 14.000325520833334s;
          animation-timing-function: linear;
        }
      
        @keyframes keyframes24 {
          from {
            stroke: blue;
            stroke-dashoffset: 423;
            stroke-width: 128;
          }
          58% {
            animation-timing-function: step-end;
            stroke: blue;
            stroke-dashoffset: 0;
            stroke-width: 128;
          }
          to {
            stroke: black;
            stroke-width: 1024;
          }
        }
        #make-me-a-hanzi-animation-24 {
          animation: keyframes24 0.59423828125s both;
          animation-delay: 14.587239583333334s;
          animation-timing-function: linear;
        }
      
        @keyframes keyframes25 {
          from {
            stroke: blue;
            stroke-dashoffset: 632;
            stroke-width: 128;
          }
          67% {
            animation-timing-function: step-end;
            stroke: blue;
            stroke-dashoffset: 0;
            stroke-width: 128;
          }
          to {
            stroke: black;
            stroke-width: 1024;
          }
        }
        #make-me-a-hanzi-animation-25 {
          animation: keyframes25 0.7643229166666666s both;
          animation-delay: 15.181477864583334s;
          animation-timing-function: linear;
        }
      
        @keyframes keyframes26 {
          from {
            stroke: blue;
            stroke-dashoffset: 457;
            stroke-width: 128;
          }
          60% {
            animation-timing-function: step-end;
            stroke: blue;
            stroke-dashoffset: 0;
            stroke-width: 128;
          }
          to {
            stroke: black;
            stroke-width: 1024;
          }
        }
        #make-me-a-hanzi-animation-26 {
          animation: keyframes26 0.6219075520833334s both;
          animation-delay: 15.94580078125s;
          animation-timing-function: linear;
        }
      
        @keyframes keyframes27 {
          from {
            stroke: blue;
            stroke-dashoffset: 501;
            stroke-width: 128;
          }
          62% {
            animation-timing-function: step-end;
            stroke: blue;
            stroke-dashoffset: 0;
            stroke-width: 128;
          }
          to {
            stroke: black;
            stroke-width: 1024;
          }
        }
        #make-me-a-hanzi-animation-27 {
          animation: keyframes27 0.65771484375s both;
          animation-delay: 16.567708333333332s;
          animation-timing-function: linear;
        }
      
        @keyframes keyframes28 {
          from {
            stroke: blue;
            stroke-dashoffset: 650;
            stroke-width: 128;
          }
          68% {
            animation-timing-function: step-end;
            stroke: blue;
            stroke-dashoffset: 0;
            stroke-width: 128;
          }
          to {
            stroke: black;
            stroke-width: 1024;
          }
        }
        #make-me-a-hanzi-animation-28 {
          animation: keyframes28 0.7789713541666666s both;
          animation-delay: 17.225423177083332s;
          animation-timing-function: linear;
        }
      
    </style>
    
      <path d="M 291 691 Q 225 673 204 670 Q 179 666 197 654 Q 227 639 268 652 Q 269 652 274 652 L 323 664 Q 335 668 350 672 Q 369 678 372 680 Q 378 687 374 692 Q 370 699 349 704 Q 339 705 328 703 L 291 691 Z" fill="lightgray"></path>
    
      <path d="M 328 703 Q 335 742 345 758 Q 349 765 341 775 Q 304 805 283 800 Q 273 796 277 786 Q 296 753 291 691 L 289 613 Q 280 538 291 518 L 292 516 Q 299 506 309 510 Q 318 519 319 609 L 320 626 Q 321 645 323 664 L 328 703 Z" fill="lightgray"></path>
    
      <path d="M 274 652 Q 255 601 185 537 Q 178 530 184 529 Q 190 526 197 530 Q 242 548 289 613 C 325 662 285 680 274 652 Z" fill="lightgray"></path>
    
      <path d="M 319 609 Q 355 573 369 574 Q 376 573 380 585 Q 380 592 373 604 Q 358 625 320 626 C 301 627 301 627 319 609 Z" fill="lightgray"></path>
    
      <path d="M 448 750 Q 448 753 471 790 Q 477 797 467 805 Q 443 823 427 819 Q 420 818 422 808 Q 432 768 397 715 Q 388 703 384 695 Q 380 686 388 690 Q 407 693 438 734 L 448 750 Z" fill="lightgray"></path>
    
      <path d="M 438 734 Q 457 724 486 726 L 517 732 Q 542 739 574 746 Q 590 750 592 752 Q 598 758 594 764 Q 590 771 569 776 Q 560 777 493 759 Q 472 755 448 750 C 419 744 418 744 438 734 Z" fill="lightgray"></path>
    
      <path d="M 490 683 Q 463 677 441 673 Q 420 670 398 666 Q 380 663 394 653 Q 415 641 446 647 Q 465 653 490 656 L 526 664 Q 538 668 595 676 Q 601 676 606 684 Q 607 691 593 697 Q 566 706 529 694 L 490 683 Z" fill="lightgray"></path>
    
      <path d="M 486 726 Q 489 714 490 683 L 490 656 Q 490 626 490 577 C 490 547 518 553 520 583 Q 523 628 526 664 L 529 694 Q 535 713 530 720 Q 523 727 517 732 C 494 752 480 755 486 726 Z" fill="lightgray"></path>
    
      <path d="M 490 577 Q 465 573 445 565 Q 435 564 438 574 Q 444 601 439 611 Q 430 621 416 631 Q 409 635 402 635 Q 395 632 400 620 Q 415 580 392 554 Q 382 544 385 534 Q 392 525 403 518 Q 410 514 417 518 Q 435 543 533 563 Q 554 566 565 566 C 595 567 599 593 569 591 Q 544 590 520 583 L 490 577 Z" fill="lightgray"></path>
    
      <path d="M 565 566 Q 565 565 566 564 Q 567 552 572 544 Q 576 537 583 542 Q 592 552 605 604 Q 606 614 611 624 Q 617 637 607 645 Q 586 663 577 661 Q 571 658 572 649 Q 575 630 569 591 L 565 566 Z" fill="lightgray"></path>
    
      <path d="M 717 712 Q 801 733 808 736 Q 814 742 810 748 Q 806 755 785 761 Q 761 764 722 747 L 685 737 Q 654 730 620 726 Q 595 722 614 710 Q 638 698 671 702 L 717 712 Z" fill="lightgray"></path>
    
      <path d="M 722 747 Q 723 751 724 754 Q 725 772 737 795 Q 741 802 734 811 Q 718 824 698 833 Q 685 839 675 835 Q 665 832 670 822 Q 683 800 685 737 L 684 661 Q 678 574 687 558 L 688 556 Q 695 546 705 550 Q 714 559 714 650 L 714 666 Q 715 690 717 712 L 722 747 Z" fill="lightgray"></path>
    
      <path d="M 671 702 Q 655 653 608 582 Q 605 576 612 576 Q 621 576 657 619 Q 670 637 684 661 C 715 714 681 730 671 702 Z" fill="lightgray"></path>
    
      <path d="M 714 650 Q 744 628 781 595 Q 791 585 800 584 Q 804 584 808 590 Q 814 597 804 621 Q 791 652 714 666 C 685 671 690 668 714 650 Z" fill="lightgray"></path>
    
      <path d="M 209 474 Q 199 495 188 503 Q 172 515 170 492 Q 176 458 118 384 Q 100 363 125 318 Q 141 297 154 320 Q 170 344 182 380 Q 195 420 206 445 C 214 464 214 464 209 474 Z" fill="lightgray"></path>
    
      <path d="M 206 445 Q 233 430 260 437 Q 297 449 337 457 L 351 461 Q 394 474 692 512 Q 762 519 783 516 Q 802 512 800 500 Q 801 493 796 486 Q 768 423 771 420 Q 778 417 795 427 Q 844 458 885 467 Q 919 474 918 484 Q 917 494 850 546 Q 831 562 807 560 Q 722 547 616 531 Q 507 518 339 492 Q 273 480 209 474 C 179 471 178 456 206 445 Z" fill="lightgray"></path>
    
      <path d="M 368 363 Q 346 336 293 291 Q 289 288 294 286 Q 348 304 391 347 L 413 371 Q 429 390 454 421 Q 458 428 462 430 Q 466 433 466 440 Q 463 455 438 466 Q 426 470 419 469 Q 415 468 415 461 Q 418 437 384 385 L 368 363 Z" fill="lightgray"></path>
    
      <path d="M 391 347 Q 419 328 451 302 Q 461 293 469 292 Q 473 292 476 298 Q 480 305 471 326 Q 462 347 413 371 L 384 385 Q 338 406 311 415 Q 305 418 306 411 Q 306 404 312 400 Q 337 384 368 363 L 391 347 Z" fill="lightgray"></path>
    
      <path d="M 337 457 Q 336 453 341 447 Q 365 414 381 414 Q 388 414 392 425 Q 393 432 387 444 Q 378 456 351 461 C 337 464 337 464 337 457 Z" fill="lightgray"></path>
    
      <path d="M 257 372 Q 290 330 307 330 Q 316 329 320 342 Q 321 351 315 365 Q 300 386 260 391 Q 254 392 253 384 Q 252 378 257 372 Z" fill="lightgray"></path>
    
      <path d="M 464 398 Q 491 362 504 359 Q 511 358 517 368 Q 518 375 513 389 Q 504 407 467 414 Q 463 415 461 409 Q 460 405 464 398 Z" fill="lightgray"></path>
    
      <path d="M 416 265 Q 422 278 415 292 Q 406 304 371 311 Q 365 312 365 305 Q 364 301 369 295 Q 387 271 401 263 C 412 256 412 256 416 265 Z" fill="lightgray"></path>
    
      <path d="M 401 263 Q 335 254 280 237 Q 262 230 265 253 Q 265 305 258 312 Q 246 322 229 330 Q 222 333 214 330 Q 207 326 214 314 Q 230 289 229 261 Q 230 234 221 222 Q 209 209 215 200 Q 222 190 234 184 Q 244 180 250 185 Q 274 215 420 242 Q 484 255 500 250 Q 501 251 504 251 C 534 250 537 280 507 277 Q 459 273 416 265 L 401 263 Z" fill="lightgray"></path>
    
      <path d="M 504 251 Q 505 238 510 229 Q 514 219 524 225 Q 539 240 563 314 Q 567 330 574 345 Q 584 360 571 372 Q 561 382 550 392 Q 543 398 534 395 Q 527 392 527 380 Q 530 350 507 277 L 504 251 Z" fill="lightgray"></path>
    
      <path d="M 328 126 Q 367 126 475 163 Q 494 170 498 173 Q 504 180 500 187 Q 493 196 469 198 Q 442 199 378 168 Q 351 161 324 153 C 295 145 298 125 328 126 Z" fill="lightgray"></path>
    
      <path d="M 324 153 Q 306 175 290 180 Q 280 183 275 179 Q 266 175 275 163 Q 303 97 261 40 Q 260 40 259 39 Q 246 24 250 6 Q 254 -21 266 -33 Q 273 -40 286 -27 Q 332 4 481 73 Q 497 80 500 87 Q 504 97 486 92 Q 327 46 319 51 Q 312 58 317 79 Q 324 116 328 126 C 333 143 333 143 324 153 Z" fill="lightgray"></path>
    
      <path d="M 679 472 Q 686 454 645 391 Q 626 363 598 332 Q 591 326 589 322 Q 586 315 596 316 Q 626 316 711 409 Q 723 424 732 430 Q 739 437 737 446 Q 734 455 717 473 Q 701 486 687 488 Q 675 488 679 472 Z" fill="lightgray"></path>
    
      <path d="M 687 358 Q 694 333 639 259 Q 612 226 576 190 Q 567 183 565 179 Q 561 172 572 172 Q 611 172 716 284 Q 731 303 743 310 Q 750 317 749 328 Q 748 338 728 357 Q 712 373 697 375 Q 684 375 687 358 Z" fill="lightgray"></path>
    
      <path d="M 715 253 Q 727 192 620 71 Q 617 70 616 67 Q 585 34 510 -29 Q 501 -33 511 -37 Q 622 -16 775 191 Q 782 201 788 206 Q 795 210 794 220 Q 793 230 781 241 Q 751 271 722 266 Q 713 265 715 253 Z" fill="lightgray"></path>
    
    
      <clipPath id="make-me-a-hanzi-clip-0">
        <path d="M 291 691 Q 225 673 204 670 Q 179 666 197 654 Q 227 639 268 652 Q 269 652 274 652 L 323 664 Q 335 668 350 672 Q 369 678 372 680 Q 378 687 374 692 Q 370 699 349 704 Q 339 705 328 703 L 291 691 Z"></path>
      </clipPath>
      <path clip-path="url(#make-me-a-hanzi-clip-0)" d="M 199 663 L 230 660 L 343 688 L 365 687" fill="none" id="make-me-a-hanzi-animation-0" stroke-dasharray="298 596" stroke-linecap="round"></path>
    
      <clipPath id="make-me-a-hanzi-clip-1">
        <path d="M 328 703 Q 335 742 345 758 Q 349 765 341 775 Q 304 805 283 800 Q 273 796 277 786 Q 296 753 291 691 L 289 613 Q 280 538 291 518 L 292 516 Q 299 506 309 510 Q 318 519 319 609 L 320 626 Q 321 645 323 664 L 328 703 Z"></path>
      </clipPath>
      <path clip-path="url(#make-me-a-hanzi-clip-1)" d="M 289 789 L 315 761 L 303 620 L 304 516" fill="none" id="make-me-a-hanzi-animation-1" stroke-dasharray="412 824" stroke-linecap="round"></path>
    
      <clipPath id="make-me-a-hanzi-clip-2">
        <path d="M 274 652 Q 255 601 185 537 Q 178 530 184 529 Q 190 526 197 530 Q 242 548 289 613 C 325 662 285 680 274 652 Z"></path>
      </clipPath>
      <path clip-path="url(#make-me-a-hanzi-clip-2)" d="M 288 649 L 280 644 L 273 613 L 262 598 L 230 563 L 190 532" fill="none" id="make-me-a-hanzi-animation-2" stroke-dasharray="286 572" stroke-linecap="round"></path>
    
      <clipPath id="make-me-a-hanzi-clip-3">
        <path d="M 319 609 Q 355 573 369 574 Q 376 573 380 585 Q 380 592 373 604 Q 358 625 320 626 C 301 627 301 627 319 609 Z"></path>
      </clipPath>
      <path clip-path="url(#make-me-a-hanzi-clip-3)" d="M 328 621 L 335 609 L 367 587" fill="none" id="make-me-a-hanzi-animation-3" stroke-dasharray="181 362" stroke-linecap="round"></path>
    
      <clipPath id="make-me-a-hanzi-clip-4">
        <path d="M 448 750 Q 448 753 471 790 Q 477 797 467 805 Q 443 823 427 819 Q 420 818 422 808 Q 432 768 397 715 Q 388 703 384 695 Q 380 686 388 690 Q 407 693 438 734 L 448 750 Z"></path>
      </clipPath>
      <path clip-path="url(#make-me-a-hanzi-clip-4)" d="M 433 810 L 447 790 L 440 771 L 414 720 L 390 696" fill="none" id="make-me-a-hanzi-animation-4" stroke-dasharray="264 528" stroke-linecap="round"></path>
    
      <clipPath id="make-me-a-hanzi-clip-5">
        <path d="M 438 734 Q 457 724 486 726 L 517 732 Q 542 739 574 746 Q 590 750 592 752 Q 598 758 594 764 Q 590 771 569 776 Q 560 777 493 759 Q 472 755 448 750 C 419 744 418 744 438 734 Z"></path>
      </clipPath>
      <path clip-path="url(#make-me-a-hanzi-clip-5)" d="M 445 735 L 561 759 L 585 759" fill="none" id="make-me-a-hanzi-animation-5" stroke-dasharray="270 540" stroke-linecap="round"></path>
    
      <clipPath id="make-me-a-hanzi-clip-6">
        <path d="M 490 683 Q 463 677 441 673 Q 420 670 398 666 Q 380 663 394 653 Q 415 641 446 647 Q 465 653 490 656 L 526 664 Q 538 668 595 676 Q 601 676 606 684 Q 607 691 593 697 Q 566 706 529 694 L 490 683 Z"></path>
      </clipPath>
      <path clip-path="url(#make-me-a-hanzi-clip-6)" d="M 403 657 L 480 666 L 553 685 L 597 684" fill="none" id="make-me-a-hanzi-animation-6" stroke-dasharray="325 650" stroke-linecap="round"></path>
    
      <clipPath id="make-me-a-hanzi-clip-7">
        <path d="M 486 726 Q 489 714 490 683 L 490 656 Q 490 626 490 577 C 490 547 518 553 520 583 Q 523 628 526 664 L 529 694 Q 535 713 530 720 Q 523 727 517 732 C 494 752 480 755 486 726 Z"></path>
      </clipPath>
      <path clip-path="url(#make-me-a-hanzi-clip-7)" d="M 495 722 L 511 706 L 506 596 L 496 586" fill="none" id="make-me-a-hanzi-animation-7" stroke-dasharray="275 550" stroke-linecap="round"></path>
    
      <clipPath id="make-me-a-hanzi-clip-8">
        <path d="M 490 577 Q 465 573 445 565 Q 435 564 438 574 Q 444 601 439 611 Q 430 621 416 631 Q 409 635 402 635 Q 395 632 400 620 Q 415 580 392 554 Q 382 544 385 534 Q 392 525 403 518 Q 410 514 417 518 Q 435 543 533 563 Q 554 566 565 566 C 595 567 599 593 569 591 Q 544 590 520 583 L 490 577 Z"></path>
      </clipPath>
      <path clip-path="url(#make-me-a-hanzi-clip-8)" d="M 407 627 L 422 604 L 420 564 L 426 552 L 443 551 L 484 565 L 520 569 L 555 578 L 563 586" fill="none" id="make-me-a-hanzi-animation-8" stroke-dasharray="353 706" stroke-linecap="round"></path>
    
      <clipPath id="make-me-a-hanzi-clip-9">
        <path d="M 565 566 Q 565 565 566 564 Q 567 552 572 544 Q 576 537 583 542 Q 592 552 605 604 Q 606 614 611 624 Q 617 637 607 645 Q 586 663 577 661 Q 571 658 572 649 Q 575 630 569 591 L 565 566 Z"></path>
      </clipPath>
      <path clip-path="url(#make-me-a-hanzi-clip-9)" d="M 580 653 L 592 626 L 579 549" fill="none" id="make-me-a-hanzi-animation-9" stroke-dasharray="236 472" stroke-linecap="round"></path>
    
      <clipPath id="make-me-a-hanzi-clip-10">
        <path d="M 717 712 Q 801 733 808 736 Q 814 742 810 748 Q 806 755 785 761 Q 761 764 722 747 L 685 737 Q 654 730 620 726 Q 595 722 614 710 Q 638 698 671 702 L 717 712 Z"></path>
      </clipPath>
      <path clip-path="url(#make-me-a-hanzi-clip-10)" d="M 615 719 L 662 716 L 727 728 L 761 742 L 803 743" fill="none" id="make-me-a-hanzi-animation-10" stroke-dasharray="320 640" stroke-linecap="round"></path>
    
      <clipPath id="make-me-a-hanzi-clip-11">
        <path d="M 722 747 Q 723 751 724 754 Q 725 772 737 795 Q 741 802 734 811 Q 718 824 698 833 Q 685 839 675 835 Q 665 832 670 822 Q 683 800 685 737 L 684 661 Q 678 574 687 558 L 688 556 Q 695 546 705 550 Q 714 559 714 650 L 714 666 Q 715 690 717 712 L 722 747 Z"></path>
      </clipPath>
      <path clip-path="url(#make-me-a-hanzi-clip-11)" d="M 682 825 L 707 796 L 696 649 L 701 638 L 696 627 L 700 556" fill="none" id="make-me-a-hanzi-animation-11" stroke-dasharray="409 818" stroke-linecap="round"></path>
    
      <clipPath id="make-me-a-hanzi-clip-12">
        <path d="M 671 702 Q 655 653 608 582 Q 605 576 612 576 Q 621 576 657 619 Q 670 637 684 661 C 715 714 681 730 671 702 Z"></path>
      </clipPath>
      <path clip-path="url(#make-me-a-hanzi-clip-12)" d="M 679 698 L 664 650 L 613 581" fill="none" id="make-me-a-hanzi-animation-12" stroke-dasharray="264 528" stroke-linecap="round"></path>
    
      <clipPath id="make-me-a-hanzi-clip-13">
        <path d="M 714 650 Q 744 628 781 595 Q 791 585 800 584 Q 804 584 808 590 Q 814 597 804 621 Q 791 652 714 666 C 685 671 690 668 714 650 Z"></path>
      </clipPath>
      <path clip-path="url(#make-me-a-hanzi-clip-13)" d="M 724 662 L 725 654 L 782 620 L 798 594" fill="none" id="make-me-a-hanzi-animation-13" stroke-dasharray="233 466" stroke-linecap="round"></path>
    
      <clipPath id="make-me-a-hanzi-clip-14">
        <path d="M 209 474 Q 199 495 188 503 Q 172 515 170 492 Q 176 458 118 384 Q 100 363 125 318 Q 141 297 154 320 Q 170 344 182 380 Q 195 420 206 445 C 214 464 214 464 209 474 Z"></path>
      </clipPath>
      <path clip-path="url(#make-me-a-hanzi-clip-14)" d="M 180 496 L 189 469 L 186 454 L 142 364 L 139 323" fill="none" id="make-me-a-hanzi-animation-14" stroke-dasharray="313 626" stroke-linecap="round"></path>
    
      <clipPath id="make-me-a-hanzi-clip-15">
        <path d="M 206 445 Q 233 430 260 437 Q 297 449 337 457 L 351 461 Q 394 474 692 512 Q 762 519 783 516 Q 802 512 800 500 Q 801 493 796 486 Q 768 423 771 420 Q 778 417 795 427 Q 844 458 885 467 Q 919 474 918 484 Q 917 494 850 546 Q 831 562 807 560 Q 722 547 616 531 Q 507 518 339 492 Q 273 480 209 474 C 179 471 178 456 206 445 Z"></path>
      </clipPath>
      <path clip-path="url(#make-me-a-hanzi-clip-15)" d="M 217 466 L 226 457 L 250 457 L 404 488 L 677 522 L 689 528 L 762 536 L 814 533 L 838 509 L 840 495 L 776 422" fill="none" id="make-me-a-hanzi-animation-15" stroke-dasharray="881 1762" stroke-linecap="round"></path>
    
      <clipPath id="make-me-a-hanzi-clip-16">
        <path d="M 368 363 Q 346 336 293 291 Q 289 288 294 286 Q 348 304 391 347 L 413 371 Q 429 390 454 421 Q 458 428 462 430 Q 466 433 466 440 Q 463 455 438 466 Q 426 470 419 469 Q 415 468 415 461 Q 418 437 384 385 L 368 363 Z"></path>
      </clipPath>
      <path clip-path="url(#make-me-a-hanzi-clip-16)" d="M 423 462 L 437 439 L 411 394 L 366 341 L 312 297" fill="none" id="make-me-a-hanzi-animation-16" stroke-dasharray="346 692" stroke-linecap="round"></path>
    
      <clipPath id="make-me-a-hanzi-clip-17">
        <path d="M 391 347 Q 419 328 451 302 Q 461 293 469 292 Q 473 292 476 298 Q 480 305 471 326 Q 462 347 413 371 L 384 385 Q 338 406 311 415 Q 305 418 306 411 Q 306 404 312 400 Q 337 384 368 363 L 391 347 Z"></path>
      </clipPath>
      <path clip-path="url(#make-me-a-hanzi-clip-17)" d="M 313 408 L 415 353 L 449 327 L 467 301" fill="none" id="make-me-a-hanzi-animation-17" stroke-dasharray="318 636" stroke-linecap="round"></path>
    
      <clipPath id="make-me-a-hanzi-clip-18">
        <path d="M 337 457 Q 336 453 341 447 Q 365 414 381 414 Q 388 414 392 425 Q 393 432 387 444 Q 378 456 351 461 C 337 464 337 464 337 457 Z"></path>
      </clipPath>
      <path clip-path="url(#make-me-a-hanzi-clip-18)" d="M 345 455 L 380 426" fill="none" id="make-me-a-hanzi-animation-18" stroke-dasharray="173 346" stroke-linecap="round"></path>
    
      <clipPath id="make-me-a-hanzi-clip-19">
        <path d="M 257 372 Q 290 330 307 330 Q 316 329 320 342 Q 321 351 315 365 Q 300 386 260 391 Q 254 392 253 384 Q 252 378 257 372 Z"></path>
      </clipPath>
      <path clip-path="url(#make-me-a-hanzi-clip-19)" d="M 263 381 L 297 357 L 307 343" fill="none" id="make-me-a-hanzi-animation-19" stroke-dasharray="187 374" stroke-linecap="round"></path>
    
      <clipPath id="make-me-a-hanzi-clip-20">
        <path d="M 464 398 Q 491 362 504 359 Q 511 358 517 368 Q 518 375 513 389 Q 504 407 467 414 Q 463 415 461 409 Q 460 405 464 398 Z"></path>
      </clipPath>
      <path clip-path="url(#make-me-a-hanzi-clip-20)" d="M 469 405 L 505 371" fill="none" id="make-me-a-hanzi-animation-20" stroke-dasharray="178 356" stroke-linecap="round"></path>
    
      <clipPath id="make-me-a-hanzi-clip-21">
        <path d="M 416 265 Q 422 278 415 292 Q 406 304 371 311 Q 365 312 365 305 Q 364 301 369 295 Q 387 271 401 263 C 412 256 412 256 416 265 Z"></path>
      </clipPath>
      <path clip-path="url(#make-me-a-hanzi-clip-21)" d="M 373 303 L 407 274" fill="none" id="make-me-a-hanzi-animation-21" stroke-dasharray="173 346" stroke-linecap="round"></path>
    
      <clipPath id="make-me-a-hanzi-clip-22">
        <path d="M 401 263 Q 335 254 280 237 Q 262 230 265 253 Q 265 305 258 312 Q 246 322 229 330 Q 222 333 214 330 Q 207 326 214 314 Q 230 289 229 261 Q 230 234 221 222 Q 209 209 215 200 Q 222 190 234 184 Q 244 180 250 185 Q 274 215 420 242 Q 484 255 500 250 Q 501 251 504 251 C 534 250 537 280 507 277 Q 459 273 416 265 L 401 263 Z"></path>
      </clipPath>
      <path clip-path="url(#make-me-a-hanzi-clip-22)" d="M 221 322 L 244 296 L 249 218 L 394 251 L 489 263 L 500 271" fill="none" id="make-me-a-hanzi-animation-22" stroke-dasharray="499 998" stroke-linecap="round"></path>
    
      <clipPath id="make-me-a-hanzi-clip-23">
        <path d="M 504 251 Q 505 238 510 229 Q 514 219 524 225 Q 539 240 563 314 Q 567 330 574 345 Q 584 360 571 372 Q 561 382 550 392 Q 543 398 534 395 Q 527 392 527 380 Q 530 350 507 277 L 504 251 Z"></path>
      </clipPath>
      <path clip-path="url(#make-me-a-hanzi-clip-23)" d="M 539 385 L 552 356 L 519 234" fill="none" id="make-me-a-hanzi-animation-23" stroke-dasharray="286 572" stroke-linecap="round"></path>
    
      <clipPath id="make-me-a-hanzi-clip-24">
        <path d="M 328 126 Q 367 126 475 163 Q 494 170 498 173 Q 504 180 500 187 Q 493 196 469 198 Q 442 199 378 168 Q 351 161 324 153 C 295 145 298 125 328 126 Z"></path>
      </clipPath>
      <path clip-path="url(#make-me-a-hanzi-clip-24)" d="M 490 181 L 445 175 L 348 144 L 332 133" fill="none" id="make-me-a-hanzi-animation-24" stroke-dasharray="295 590" stroke-linecap="round"></path>
    
      <clipPath id="make-me-a-hanzi-clip-25">
        <path d="M 324 153 Q 306 175 290 180 Q 280 183 275 179 Q 266 175 275 163 Q 303 97 261 40 Q 260 40 259 39 Q 246 24 250 6 Q 254 -21 266 -33 Q 273 -40 286 -27 Q 332 4 481 73 Q 497 80 500 87 Q 504 97 486 92 Q 327 46 319 51 Q 312 58 317 79 Q 324 116 328 126 C 333 143 333 143 324 153 Z"></path>
      </clipPath>
      <path clip-path="url(#make-me-a-hanzi-clip-25)" d="M 279 171 L 296 157 L 306 130 L 294 22 L 326 25 L 448 73 L 468 74 L 473 85 L 484 82 L 492 88" fill="none" id="make-me-a-hanzi-animation-25" stroke-dasharray="504 1008" stroke-linecap="round"></path>
    
      <clipPath id="make-me-a-hanzi-clip-26">
        <path d="M 679 472 Q 686 454 645 391 Q 626 363 598 332 Q 591 326 589 322 Q 586 315 596 316 Q 626 316 711 409 Q 723 424 732 430 Q 739 437 737 446 Q 734 455 717 473 Q 701 486 687 488 Q 675 488 679 472 Z"></path>
      </clipPath>
      <path clip-path="url(#make-me-a-hanzi-clip-26)" d="M 687 478 L 704 451 L 698 432 L 661 380 L 618 336 L 597 324" fill="none" id="make-me-a-hanzi-animation-26" stroke-dasharray="329 658" stroke-linecap="round"></path>
    
      <clipPath id="make-me-a-hanzi-clip-27">
        <path d="M 687 358 Q 694 333 639 259 Q 612 226 576 190 Q 567 183 565 179 Q 561 172 572 172 Q 611 172 716 284 Q 731 303 743 310 Q 750 317 749 328 Q 748 338 728 357 Q 712 373 697 375 Q 684 375 687 358 Z"></path>
      </clipPath>
      <path clip-path="url(#make-me-a-hanzi-clip-27)" d="M 697 364 L 714 332 L 691 291 L 636 228 L 574 181" fill="none" id="make-me-a-hanzi-animation-27" stroke-dasharray="373 746" stroke-linecap="round"></path>
    
      <clipPath id="make-me-a-hanzi-clip-28">
        <path d="M 715 253 Q 727 192 620 71 Q 617 70 616 67 Q 585 34 510 -29 Q 501 -33 511 -37 Q 622 -16 775 191 Q 782 201 788 206 Q 795 210 794 220 Q 793 230 781 241 Q 751 271 722 266 Q 713 265 715 253 Z"></path>
      </clipPath>
      <path clip-path="url(#make-me-a-hanzi-clip-28)" d="M 728 254 L 747 230 L 750 217 L 709 145 L 615 39 L 563 -3 L 534 -22 L 520 -24 L 515 -32" fill="none" id="make-me-a-hanzi-animation-28" stroke-dasharray="522 1044" stroke-linecap="round"></path>
    
  </g>
</svg>