<svg version="1.1" viewBox="0 0 1024 1024" xmlns="http://www.w3.org/2000/svg">
  <g stroke="lightgray" stroke-dasharray="1,1" stroke-width="1" transform="scale(4, 4)">
    <line x1="0" y1="0" x2="256" y2="256"></line>
    <line x1="256" y1="0" x2="0" y2="256"></line>
    <line x1="128" y1="0" x2="128" y2="256"></line>
    <line x1="0" y1="128" x2="256" y2="128"></line>
  </g>
  <g transform="scale(1, -1) translate(0, -900)">
    <style type="text/css">
      
        @keyframes keyframes0 {
          from {
            stroke: blue;
            stroke-dashoffset: 606;
            stroke-width: 128;
          }
          66% {
            animation-timing-function: step-end;
            stroke: blue;
            stroke-dashoffset: 0;
            stroke-width: 128;
          }
          to {
            stroke: black;
            stroke-width: 1024;
          }
        }
        #make-me-a-hanzi-animation-0 {
          animation: keyframes0 0.7431640625s both;
          animation-delay: 0s;
          animation-timing-function: linear;
        }
      
        @keyframes keyframes1 {
          from {
            stroke: blue;
            stroke-dashoffset: 555;
            stroke-width: 128;
          }
          64% {
            animation-timing-function: step-end;
            stroke: blue;
            stroke-dashoffset: 0;
            stroke-width: 128;
          }
          to {
            stroke: black;
            stroke-width: 1024;
          }
        }
        #make-me-a-hanzi-animation-1 {
          animation: keyframes1 0.70166015625s both;
          animation-delay: 0.7431640625s;
          animation-timing-function: linear;
        }
      
        @keyframes keyframes2 {
          from {
            stroke: blue;
            stroke-dashoffset: 516;
            stroke-width: 128;
          }
          63% {
            animation-timing-function: step-end;
            stroke: blue;
            stroke-dashoffset: 0;
            stroke-width: 128;
          }
          to {
            stroke: black;
            stroke-width: 1024;
          }
        }
        #make-me-a-hanzi-animation-2 {
          animation: keyframes2 0.669921875s both;
          animation-delay: 1.44482421875s;
          animation-timing-function: linear;
        }
      
        @keyframes keyframes3 {
          from {
            stroke: blue;
            stroke-dashoffset: 734;
            stroke-width: 128;
          }
          70% {
            animation-timing-function: step-end;
            stroke: blue;
            stroke-dashoffset: 0;
            stroke-width: 128;
          }
          to {
            stroke: black;
            stroke-width: 1024;
          }
        }
        #make-me-a-hanzi-animation-3 {
          animation: keyframes3 0.8473307291666666s both;
          animation-delay: 2.11474609375s;
          animation-timing-function: linear;
        }
      
        @keyframes keyframes4 {
          from {
            stroke: blue;
            stroke-dashoffset: 386;
            stroke-width: 128;
          }
          56% {
            animation-timing-function: step-end;
            stroke: blue;
            stroke-dashoffset: 0;
            stroke-width: 128;
          }
          to {
            stroke: black;
            stroke-width: 1024;
          }
        }
        #make-me-a-hanzi-animation-4 {
          animation: keyframes4 0.5641276041666666s both;
          animation-delay: 2.9620768229166665s;
          animation-timing-function: linear;
        }
      
        @keyframes keyframes5 {
          from {
            stroke: blue;
            stroke-dashoffset: 434;
            stroke-width: 128;
          }
          59% {
            animation-timing-function: step-end;
            stroke: blue;
            stroke-dashoffset: 0;
            stroke-width: 128;
          }
          to {
            stroke: black;
            stroke-width: 1024;
          }
        }
        #make-me-a-hanzi-animation-5 {
          animation: keyframes5 0.6031901041666666s both;
          animation-delay: 3.526204427083333s;
          animation-timing-function: linear;
        }
      
        @keyframes keyframes6 {
          from {
            stroke: blue;
            stroke-dashoffset: 394;
            stroke-width: 128;
          }
          56% {
            animation-timing-function: step-end;
            stroke: blue;
            stroke-dashoffset: 0;
            stroke-width: 128;
          }
          to {
            stroke: black;
            stroke-width: 1024;
          }
        }
        #make-me-a-hanzi-animation-6 {
          animation: keyframes6 0.5706380208333334s both;
          animation-delay: 4.12939453125s;
          animation-timing-function: linear;
        }
      
        @keyframes keyframes7 {
          from {
            stroke: blue;
            stroke-dashoffset: 616;
            stroke-width: 128;
          }
          67% {
            animation-timing-function: step-end;
            stroke: blue;
            stroke-dashoffset: 0;
            stroke-width: 128;
          }
          to {
            stroke: black;
            stroke-width: 1024;
          }
        }
        #make-me-a-hanzi-animation-7 {
          animation: keyframes7 0.7513020833333334s both;
          animation-delay: 4.700032552083333s;
          animation-timing-function: linear;
        }
      
        @keyframes keyframes8 {
          from {
            stroke: blue;
            stroke-dashoffset: 519;
            stroke-width: 128;
          }
          63% {
            animation-timing-function: step-end;
            stroke: blue;
            stroke-dashoffset: 0;
            stroke-width: 128;
          }
          to {
            stroke: black;
            stroke-width: 1024;
          }
        }
        #make-me-a-hanzi-animation-8 {
          animation: keyframes8 0.67236328125s both;
          animation-delay: 5.451334635416666s;
          animation-timing-function: linear;
        }
      
        @keyframes keyframes9 {
          from {
            stroke: blue;
            stroke-dashoffset: 716;
            stroke-width: 128;
          }
          70% {
            animation-timing-function: step-end;
            stroke: blue;
            stroke-dashoffset: 0;
            stroke-width: 128;
          }
          to {
            stroke: black;
            stroke-width: 1024;
          }
        }
        #make-me-a-hanzi-animation-9 {
          animation: keyframes9 0.8326822916666666s both;
          animation-delay: 6.123697916666666s;
          animation-timing-function: linear;
        }
      
        @keyframes keyframes10 {
          from {
            stroke: blue;
            stroke-dashoffset: 358;
            stroke-width: 128;
          }
          54% {
            animation-timing-function: step-end;
            stroke: blue;
            stroke-dashoffset: 0;
            stroke-width: 128;
          }
          to {
            stroke: black;
            stroke-width: 1024;
          }
        }
        #make-me-a-hanzi-animation-10 {
          animation: keyframes10 0.5413411458333334s both;
          animation-delay: 6.956380208333333s;
          animation-timing-function: linear;
        }
      
        @keyframes keyframes11 {
          from {
            stroke: blue;
            stroke-dashoffset: 364;
            stroke-width: 128;
          }
          54% {
            animation-timing-function: step-end;
            stroke: blue;
            stroke-dashoffset: 0;
            stroke-width: 128;
          }
          to {
            stroke: black;
            stroke-width: 1024;
          }
        }
        #make-me-a-hanzi-animation-11 {
          animation: keyframes11 0.5462239583333334s both;
          animation-delay: 7.497721354166666s;
          animation-timing-function: linear;
        }
      
        @keyframes keyframes12 {
          from {
            stroke: blue;
            stroke-dashoffset: 727;
            stroke-width: 128;
          }
          70% {
            animation-timing-function: step-end;
            stroke: blue;
            stroke-dashoffset: 0;
            stroke-width: 128;
          }
          to {
            stroke: black;
            stroke-width: 1024;
          }
        }
        #make-me-a-hanzi-animation-12 {
          animation: keyframes12 0.8416341145833334s both;
          animation-delay: 8.0439453125s;
          animation-timing-function: linear;
        }
      
        @keyframes keyframes13 {
          from {
            stroke: blue;
            stroke-dashoffset: 534;
            stroke-width: 128;
          }
          63% {
            animation-timing-function: step-end;
            stroke: blue;
            stroke-dashoffset: 0;
            stroke-width: 128;
          }
          to {
            stroke: black;
            stroke-width: 1024;
          }
        }
        #make-me-a-hanzi-animation-13 {
          animation: keyframes13 0.6845703125s both;
          animation-delay: 8.885579427083334s;
          animation-timing-function: linear;
        }
      
        @keyframes keyframes14 {
          from {
            stroke: blue;
            stroke-dashoffset: 406;
            stroke-width: 128;
          }
          57% {
            animation-timing-function: step-end;
            stroke: blue;
            stroke-dashoffset: 0;
            stroke-width: 128;
          }
          to {
            stroke: black;
            stroke-width: 1024;
          }
        }
        #make-me-a-hanzi-animation-14 {
          animation: keyframes14 0.5804036458333334s both;
          animation-delay: 9.570149739583334s;
          animation-timing-function: linear;
        }
      
        @keyframes keyframes15 {
          from {
            stroke: blue;
            stroke-dashoffset: 580;
            stroke-width: 128;
          }
          65% {
            animation-timing-function: step-end;
            stroke: blue;
            stroke-dashoffset: 0;
            stroke-width: 128;
          }
          to {
            stroke: black;
            stroke-width: 1024;
          }
        }
        #make-me-a-hanzi-animation-15 {
          animation: keyframes15 0.7220052083333334s both;
          animation-delay: 10.150553385416668s;
          animation-timing-function: linear;
        }
      
        @keyframes keyframes16 {
          from {
            stroke: blue;
            stroke-dashoffset: 745;
            stroke-width: 128;
          }
          71% {
            animation-timing-function: step-end;
            stroke: blue;
            stroke-dashoffset: 0;
            stroke-width: 128;
          }
          to {
            stroke: black;
            stroke-width: 1024;
          }
        }
        #make-me-a-hanzi-animation-16 {
          animation: keyframes16 0.8562825520833334s both;
          animation-delay: 10.872558593750002s;
          animation-timing-function: linear;
        }
      
    </style>
    
      <path d="M 267 686 Q 307 745 323 759 Q 328 764 329 770 Q 331 784 302 811 Q 280 827 264 828 Q 247 827 255 809 Q 267 771 194 662 Q 159 614 110 557 Q 108 555 107 553 Q 88 531 106 535 Q 145 541 251 666 L 267 686 Z" fill="lightgray"></path>
    
      <path d="M 294 527 Q 311 545 349 595 Q 386 643 419 668 Q 435 678 424 690 Q 413 700 380 717 Q 368 721 346 711 Q 296 693 267 686 C 238 679 221 670 251 666 Q 269 661 325 671 Q 333 672 334 671 Q 341 664 304 589 Q 270 525 270 521 C 259 493 274 505 294 527 Z" fill="lightgray"></path>
    
      <path d="M 145 490 Q 106 506 99 497 Q 94 492 102 474 Q 129 399 141 302 Q 143 270 161 248 Q 175 227 180 242 Q 184 250 186 265 L 186 288 L 161 461 C 158 485 158 485 145 490 Z" fill="lightgray"></path>
    
      <path d="M 325 292 Q 339 271 351 267 Q 363 263 374 280 Q 388 306 412 435 Q 416 449 421 462 L 438 486 Q 446 498 437 508 Q 425 521 385 544 Q 368 551 355 545 L 300 529 Q 296 529 294 527 L 270 521 Q 258 521 145 490 C 116 482 132 452 161 461 Q 188 470 231 482 L 263 488 L 292 496 Q 341 509 355 501 Q 367 485 365 472 Q 353 388 349 367 Q 340 325 325 318 C 314 307 314 307 325 292 Z" fill="lightgray"></path>
    
      <path d="M 280 388 Q 313 393 323 394 Q 343 398 336 408 Q 320 427 282 420 L 241 410 Q 212 402 192 394 Q 178 392 194 380 Q 198 377 241 381 L 280 388 Z" fill="lightgray"></path>
    
      <path d="M 276 316 Q 277 352 280 388 L 282 420 L 284 457 Q 283 470 263 488 C 241 509 225 511 231 482 Q 237 456 241 410 L 241 381 Q 241 367 241 306 C 241 276 275 286 276 316 Z" fill="lightgray"></path>
    
      <path d="M 186 265 Q 221 273 325 292 C 355 297 354 309 325 318 Q 310 324 276 316 L 241 306 L 186 288 C 157 279 157 258 186 265 Z" fill="lightgray"></path>
    
      <path d="M 78 143 Q 65 141 63 130 Q 61 119 69 110 Q 91 94 123 74 Q 133 69 145 78 Q 176 102 367 176 Q 379 181 390 187 Q 424 206 425 217 Q 421 223 408 220 Q 130 141 78 143 Z" fill="lightgray"></path>
    
      <path d="M 543 717 L 539 719 Q 501 734 495 725 Q 490 721 498 703 Q 525 627 537 531 Q 538 500 557 476 Q 564 465 570 465 Q 578 466 581 498 L 580 523 L 570 591 L 566 619 Q 561 661 557 690 C 554 712 554 712 543 717 Z" fill="lightgray"></path>
    
      <path d="M 676 754 Q 559 725 543 717 C 515 707 529 681 557 690 Q 599 705 688 723 Q 702 725 710 722 Q 731 715 727 690 Q 711 553 698 531 C 688 506 676 518 682 512 Q 714 480 720 476 Q 730 470 741 488 Q 755 515 774 657 Q 777 672 785 686 L 800 708 Q 808 719 799 729 Q 786 741 747 764 Q 735 770 676 754 Z" fill="lightgray"></path>
    
      <path d="M 570 591 Q 620 600 666 606 Q 689 610 679 623 Q 671 634 652 638 Q 611 646 566 619 C 540 604 540 586 570 591 Z" fill="lightgray"></path>
    
      <path d="M 581 498 Q 644 508 682 512 C 711 515 711 515 698 531 Q 696 535 688 539 Q 651 554 580 523 C 552 511 551 493 581 498 Z" fill="lightgray"></path>
    
      <path d="M 655 398 Q 737 410 890 412 Q 908 413 910 421 Q 913 431 900 441 Q 851 478 805 462 Q 652 431 439 400 Q 431 400 429 396 Q 427 388 444 378 Q 470 361 496 368 Q 555 384 613 392 L 655 398 Z" fill="lightgray"></path>
    
      <path d="M 668 123 L 674 252 L 676 278 Q 677 296 678 310 L 684 367 Q 684 372 679 378 Q 666 391 655 398 C 630 415 602 420 613 392 Q 623 374 627 284 Q 626 220 626 149 C 626 119 667 93 668 123 Z" fill="lightgray"></path>
    
      <path d="M 674 252 Q 710 240 751 252 L 817 265 Q 833 269 835 270 Q 842 278 838 286 Q 831 296 804 303 Q 780 306 716 286 Q 694 283 676 278 C 647 270 645 261 674 252 Z" fill="lightgray"></path>
    
      <path d="M 525 225 L 549 276 Q 551 286 540 295 Q 498 321 476 314 Q 470 311 470 304 L 474 278 Q 488 195 409 82 Q 400 74 372 31 Q 372 28 371 26 Q 370 18 380 22 Q 414 34 449 81 Q 487 131 511 192 L 525 225 Z" fill="lightgray"></path>
    
      <path d="M 511 192 Q 529 163 608 106 Q 694 42 768 0 Q 776 -4 782 -6 Q 808 -15 909 12 Q 946 21 956 34 L 957 37 Q 960 47 939 48 Q 886 57 845 59 Q 755 67 668 123 L 626 149 Q 575 184 525 225 C 502 244 493 216 511 192 Z" fill="lightgray"></path>
    
    
      <clipPath id="make-me-a-hanzi-clip-0">
        <path d="M 267 686 Q 307 745 323 759 Q 328 764 329 770 Q 331 784 302 811 Q 280 827 264 828 Q 247 827 255 809 Q 267 771 194 662 Q 159 614 110 557 Q 108 555 107 553 Q 88 531 106 535 Q 145 541 251 666 L 267 686 Z"></path>
      </clipPath>
      <path clip-path="url(#make-me-a-hanzi-clip-0)" d="M 263 817 L 282 795 L 288 771 L 254 709 L 174 605 L 113 546 L 104 544" fill="none" id="make-me-a-hanzi-animation-0" stroke-dasharray="478 956" stroke-linecap="round"></path>
    
      <clipPath id="make-me-a-hanzi-clip-1">
        <path d="M 294 527 Q 311 545 349 595 Q 386 643 419 668 Q 435 678 424 690 Q 413 700 380 717 Q 368 721 346 711 Q 296 693 267 686 C 238 679 221 670 251 666 Q 269 661 325 671 Q 333 672 334 671 Q 341 664 304 589 Q 270 525 270 521 C 259 493 274 505 294 527 Z"></path>
      </clipPath>
      <path clip-path="url(#make-me-a-hanzi-clip-1)" d="M 256 670 L 345 690 L 372 678 L 320 581 L 277 528" fill="none" id="make-me-a-hanzi-animation-1" stroke-dasharray="427 854" stroke-linecap="round"></path>
    
      <clipPath id="make-me-a-hanzi-clip-2">
        <path d="M 145 490 Q 106 506 99 497 Q 94 492 102 474 Q 129 399 141 302 Q 143 270 161 248 Q 175 227 180 242 Q 184 250 186 265 L 186 288 L 161 461 C 158 485 158 485 145 490 Z"></path>
      </clipPath>
      <path clip-path="url(#make-me-a-hanzi-clip-2)" d="M 106 491 L 127 474 L 136 454 L 171 246" fill="none" id="make-me-a-hanzi-animation-2" stroke-dasharray="388 776" stroke-linecap="round"></path>
    
      <clipPath id="make-me-a-hanzi-clip-3">
        <path d="M 325 292 Q 339 271 351 267 Q 363 263 374 280 Q 388 306 412 435 Q 416 449 421 462 L 438 486 Q 446 498 437 508 Q 425 521 385 544 Q 368 551 355 545 L 300 529 Q 296 529 294 527 L 270 521 Q 258 521 145 490 C 116 482 132 452 161 461 Q 188 470 231 482 L 263 488 L 292 496 Q 341 509 355 501 Q 367 485 365 472 Q 353 388 349 367 Q 340 325 325 318 C 314 307 314 307 325 292 Z"></path>
      </clipPath>
      <path clip-path="url(#make-me-a-hanzi-clip-3)" d="M 158 491 L 169 480 L 325 520 L 367 523 L 380 515 L 399 493 L 374 363 L 353 305 L 355 284" fill="none" id="make-me-a-hanzi-animation-3" stroke-dasharray="606 1212" stroke-linecap="round"></path>
    
      <clipPath id="make-me-a-hanzi-clip-4">
        <path d="M 280 388 Q 313 393 323 394 Q 343 398 336 408 Q 320 427 282 420 L 241 410 Q 212 402 192 394 Q 178 392 194 380 Q 198 377 241 381 L 280 388 Z"></path>
      </clipPath>
      <path clip-path="url(#make-me-a-hanzi-clip-4)" d="M 199 388 L 292 406 L 327 403" fill="none" id="make-me-a-hanzi-animation-4" stroke-dasharray="258 516" stroke-linecap="round"></path>
    
      <clipPath id="make-me-a-hanzi-clip-5">
        <path d="M 276 316 Q 277 352 280 388 L 282 420 L 284 457 Q 283 470 263 488 C 241 509 225 511 231 482 Q 237 456 241 410 L 241 381 Q 241 367 241 306 C 241 276 275 286 276 316 Z"></path>
      </clipPath>
      <path clip-path="url(#make-me-a-hanzi-clip-5)" d="M 237 477 L 256 465 L 260 452 L 259 330 L 244 317" fill="none" id="make-me-a-hanzi-animation-5" stroke-dasharray="306 612" stroke-linecap="round"></path>
    
      <clipPath id="make-me-a-hanzi-clip-6">
        <path d="M 186 265 Q 221 273 325 292 C 355 297 354 309 325 318 Q 310 324 276 316 L 241 306 L 186 288 C 157 279 157 258 186 265 Z"></path>
      </clipPath>
      <path clip-path="url(#make-me-a-hanzi-clip-6)" d="M 189 271 L 209 282 L 308 304 L 319 312" fill="none" id="make-me-a-hanzi-animation-6" stroke-dasharray="266 532" stroke-linecap="round"></path>
    
      <clipPath id="make-me-a-hanzi-clip-7">
        <path d="M 78 143 Q 65 141 63 130 Q 61 119 69 110 Q 91 94 123 74 Q 133 69 145 78 Q 176 102 367 176 Q 379 181 390 187 Q 424 206 425 217 Q 421 223 408 220 Q 130 141 78 143 Z"></path>
      </clipPath>
      <path clip-path="url(#make-me-a-hanzi-clip-7)" d="M 79 127 L 131 112 L 367 192 L 419 215" fill="none" id="make-me-a-hanzi-animation-7" stroke-dasharray="488 976" stroke-linecap="round"></path>
    
      <clipPath id="make-me-a-hanzi-clip-8">
        <path d="M 543 717 L 539 719 Q 501 734 495 725 Q 490 721 498 703 Q 525 627 537 531 Q 538 500 557 476 Q 564 465 570 465 Q 578 466 581 498 L 580 523 L 570 591 L 566 619 Q 561 661 557 690 C 554 712 554 712 543 717 Z"></path>
      </clipPath>
      <path clip-path="url(#make-me-a-hanzi-clip-8)" d="M 502 719 L 526 698 L 533 678 L 569 471" fill="none" id="make-me-a-hanzi-animation-8" stroke-dasharray="391 782" stroke-linecap="round"></path>
    
      <clipPath id="make-me-a-hanzi-clip-9">
        <path d="M 676 754 Q 559 725 543 717 C 515 707 529 681 557 690 Q 599 705 688 723 Q 702 725 710 722 Q 731 715 727 690 Q 711 553 698 531 C 688 506 676 518 682 512 Q 714 480 720 476 Q 730 470 741 488 Q 755 515 774 657 Q 777 672 785 686 L 800 708 Q 808 719 799 729 Q 786 741 747 764 Q 735 770 676 754 Z"></path>
      </clipPath>
      <path clip-path="url(#make-me-a-hanzi-clip-9)" d="M 548 711 L 568 709 L 667 738 L 711 743 L 738 738 L 755 722 L 761 711 L 732 549 L 720 511 L 725 487" fill="none" id="make-me-a-hanzi-animation-9" stroke-dasharray="588 1176" stroke-linecap="round"></path>
    
      <clipPath id="make-me-a-hanzi-clip-10">
        <path d="M 570 591 Q 620 600 666 606 Q 689 610 679 623 Q 671 634 652 638 Q 611 646 566 619 C 540 604 540 586 570 591 Z"></path>
      </clipPath>
      <path clip-path="url(#make-me-a-hanzi-clip-10)" d="M 576 599 L 584 610 L 608 618 L 655 621 L 670 616" fill="none" id="make-me-a-hanzi-animation-10" stroke-dasharray="230 460" stroke-linecap="round"></path>
    
      <clipPath id="make-me-a-hanzi-clip-11">
        <path d="M 581 498 Q 644 508 682 512 C 711 515 711 515 698 531 Q 696 535 688 539 Q 651 554 580 523 C 552 511 551 493 581 498 Z"></path>
      </clipPath>
      <path clip-path="url(#make-me-a-hanzi-clip-11)" d="M 589 505 L 595 516 L 689 530" fill="none" id="make-me-a-hanzi-animation-11" stroke-dasharray="236 472" stroke-linecap="round"></path>
    
      <clipPath id="make-me-a-hanzi-clip-12">
        <path d="M 655 398 Q 737 410 890 412 Q 908 413 910 421 Q 913 431 900 441 Q 851 478 805 462 Q 652 431 439 400 Q 431 400 429 396 Q 427 388 444 378 Q 470 361 496 368 Q 555 384 613 392 L 655 398 Z"></path>
      </clipPath>
      <path clip-path="url(#make-me-a-hanzi-clip-12)" d="M 436 394 L 478 385 L 585 406 L 828 439 L 900 425" fill="none" id="make-me-a-hanzi-animation-12" stroke-dasharray="599 1198" stroke-linecap="round"></path>
    
      <clipPath id="make-me-a-hanzi-clip-13">
        <path d="M 668 123 L 674 252 L 676 278 Q 677 296 678 310 L 684 367 Q 684 372 679 378 Q 666 391 655 398 C 630 415 602 420 613 392 Q 623 374 627 284 Q 626 220 626 149 C 626 119 667 93 668 123 Z"></path>
      </clipPath>
      <path clip-path="url(#make-me-a-hanzi-clip-13)" d="M 620 391 L 652 360 L 648 172 L 665 130" fill="none" id="make-me-a-hanzi-animation-13" stroke-dasharray="406 812" stroke-linecap="round"></path>
    
      <clipPath id="make-me-a-hanzi-clip-14">
        <path d="M 674 252 Q 710 240 751 252 L 817 265 Q 833 269 835 270 Q 842 278 838 286 Q 831 296 804 303 Q 780 306 716 286 Q 694 283 676 278 C 647 270 645 261 674 252 Z"></path>
      </clipPath>
      <path clip-path="url(#make-me-a-hanzi-clip-14)" d="M 683 258 L 692 265 L 791 282 L 829 278" fill="none" id="make-me-a-hanzi-animation-14" stroke-dasharray="278 556" stroke-linecap="round"></path>
    
      <clipPath id="make-me-a-hanzi-clip-15">
        <path d="M 525 225 L 549 276 Q 551 286 540 295 Q 498 321 476 314 Q 470 311 470 304 L 474 278 Q 488 195 409 82 Q 400 74 372 31 Q 372 28 371 26 Q 370 18 380 22 Q 414 34 449 81 Q 487 131 511 192 L 525 225 Z"></path>
      </clipPath>
      <path clip-path="url(#make-me-a-hanzi-clip-15)" d="M 483 303 L 509 271 L 489 192 L 449 110 L 418 68 L 377 27" fill="none" id="make-me-a-hanzi-animation-15" stroke-dasharray="452 904" stroke-linecap="round"></path>
    
      <clipPath id="make-me-a-hanzi-clip-16">
        <path d="M 511 192 Q 529 163 608 106 Q 694 42 768 0 Q 776 -4 782 -6 Q 808 -15 909 12 Q 946 21 956 34 L 957 37 Q 960 47 939 48 Q 886 57 845 59 Q 755 67 668 123 L 626 149 Q 575 184 525 225 C 502 244 493 216 511 192 Z"></path>
      </clipPath>
      <path clip-path="url(#make-me-a-hanzi-clip-16)" d="M 529 217 L 529 204 L 540 187 L 612 129 L 713 66 L 779 34 L 822 27 L 949 38" fill="none" id="make-me-a-hanzi-animation-16" stroke-dasharray="617 1234" stroke-linecap="round"></path>
    
  </g>
</svg>