<svg version="1.1" viewBox="0 0 1024 1024" xmlns="http://www.w3.org/2000/svg">
  <g stroke="lightgray" stroke-dasharray="1,1" stroke-width="1" transform="scale(4, 4)">
    <line x1="0" y1="0" x2="256" y2="256"></line>
    <line x1="256" y1="0" x2="0" y2="256"></line>
    <line x1="128" y1="0" x2="128" y2="256"></line>
    <line x1="0" y1="128" x2="256" y2="128"></line>
  </g>
  <g transform="scale(1, -1) translate(0, -900)">
    <style type="text/css">
      
        @keyframes keyframes0 {
          from {
            stroke: blue;
            stroke-dashoffset: 582;
            stroke-width: 128;
          }
          65% {
            animation-timing-function: step-end;
            stroke: blue;
            stroke-dashoffset: 0;
            stroke-width: 128;
          }
          to {
            stroke: black;
            stroke-width: 1024;
          }
        }
        #make-me-a-hanzi-animation-0 {
          animation: keyframes0 0.7236328125s both;
          animation-delay: 0s;
          animation-timing-function: linear;
        }
      
        @keyframes keyframes1 {
          from {
            stroke: blue;
            stroke-dashoffset: 553;
            stroke-width: 128;
          }
          64% {
            animation-timing-function: step-end;
            stroke: blue;
            stroke-dashoffset: 0;
            stroke-width: 128;
          }
          to {
            stroke: black;
            stroke-width: 1024;
          }
        }
        #make-me-a-hanzi-animation-1 {
          animation: keyframes1 0.7000325520833334s both;
          animation-delay: 0.7236328125s;
          animation-timing-function: linear;
        }
      
        @keyframes keyframes2 {
          from {
            stroke: blue;
            stroke-dashoffset: 515;
            stroke-width: 128;
          }
          63% {
            animation-timing-function: step-end;
            stroke: blue;
            stroke-dashoffset: 0;
            stroke-width: 128;
          }
          to {
            stroke: black;
            stroke-width: 1024;
          }
        }
        #make-me-a-hanzi-animation-2 {
          animation: keyframes2 0.6691080729166666s both;
          animation-delay: 1.4236653645833335s;
          animation-timing-function: linear;
        }
      
        @keyframes keyframes3 {
          from {
            stroke: blue;
            stroke-dashoffset: 728;
            stroke-width: 128;
          }
          70% {
            animation-timing-function: step-end;
            stroke: blue;
            stroke-dashoffset: 0;
            stroke-width: 128;
          }
          to {
            stroke: black;
            stroke-width: 1024;
          }
        }
        #make-me-a-hanzi-animation-3 {
          animation: keyframes3 0.8424479166666666s both;
          animation-delay: 2.0927734375s;
          animation-timing-function: linear;
        }
      
        @keyframes keyframes4 {
          from {
            stroke: blue;
            stroke-dashoffset: 387;
            stroke-width: 128;
          }
          56% {
            animation-timing-function: step-end;
            stroke: blue;
            stroke-dashoffset: 0;
            stroke-width: 128;
          }
          to {
            stroke: black;
            stroke-width: 1024;
          }
        }
        #make-me-a-hanzi-animation-4 {
          animation: keyframes4 0.56494140625s both;
          animation-delay: 2.9352213541666665s;
          animation-timing-function: linear;
        }
      
        @keyframes keyframes5 {
          from {
            stroke: blue;
            stroke-dashoffset: 430;
            stroke-width: 128;
          }
          58% {
            animation-timing-function: step-end;
            stroke: blue;
            stroke-dashoffset: 0;
            stroke-width: 128;
          }
          to {
            stroke: black;
            stroke-width: 1024;
          }
        }
        #make-me-a-hanzi-animation-5 {
          animation: keyframes5 0.5999348958333334s both;
          animation-delay: 3.5001627604166665s;
          animation-timing-function: linear;
        }
      
        @keyframes keyframes6 {
          from {
            stroke: blue;
            stroke-dashoffset: 402;
            stroke-width: 128;
          }
          57% {
            animation-timing-function: step-end;
            stroke: blue;
            stroke-dashoffset: 0;
            stroke-width: 128;
          }
          to {
            stroke: black;
            stroke-width: 1024;
          }
        }
        #make-me-a-hanzi-animation-6 {
          animation: keyframes6 0.5771484375s both;
          animation-delay: 4.10009765625s;
          animation-timing-function: linear;
        }
      
        @keyframes keyframes7 {
          from {
            stroke: blue;
            stroke-dashoffset: 597;
            stroke-width: 128;
          }
          66% {
            animation-timing-function: step-end;
            stroke: blue;
            stroke-dashoffset: 0;
            stroke-width: 128;
          }
          to {
            stroke: black;
            stroke-width: 1024;
          }
        }
        #make-me-a-hanzi-animation-7 {
          animation: keyframes7 0.73583984375s both;
          animation-delay: 4.67724609375s;
          animation-timing-function: linear;
        }
      
        @keyframes keyframes8 {
          from {
            stroke: blue;
            stroke-dashoffset: 447;
            stroke-width: 128;
          }
          59% {
            animation-timing-function: step-end;
            stroke: blue;
            stroke-dashoffset: 0;
            stroke-width: 128;
          }
          to {
            stroke: black;
            stroke-width: 1024;
          }
        }
        #make-me-a-hanzi-animation-8 {
          animation: keyframes8 0.61376953125s both;
          animation-delay: 5.4130859375s;
          animation-timing-function: linear;
        }
      
        @keyframes keyframes9 {
          from {
            stroke: blue;
            stroke-dashoffset: 482;
            stroke-width: 128;
          }
          61% {
            animation-timing-function: step-end;
            stroke: blue;
            stroke-dashoffset: 0;
            stroke-width: 128;
          }
          to {
            stroke: black;
            stroke-width: 1024;
          }
        }
        #make-me-a-hanzi-animation-9 {
          animation: keyframes9 0.6422526041666666s both;
          animation-delay: 6.02685546875s;
          animation-timing-function: linear;
        }
      
        @keyframes keyframes10 {
          from {
            stroke: blue;
            stroke-dashoffset: 372;
            stroke-width: 128;
          }
          55% {
            animation-timing-function: step-end;
            stroke: blue;
            stroke-dashoffset: 0;
            stroke-width: 128;
          }
          to {
            stroke: black;
            stroke-width: 1024;
          }
        }
        #make-me-a-hanzi-animation-10 {
          animation: keyframes10 0.552734375s both;
          animation-delay: 6.669108072916667s;
          animation-timing-function: linear;
        }
      
        @keyframes keyframes11 {
          from {
            stroke: blue;
            stroke-dashoffset: 432;
            stroke-width: 128;
          }
          58% {
            animation-timing-function: step-end;
            stroke: blue;
            stroke-dashoffset: 0;
            stroke-width: 128;
          }
          to {
            stroke: black;
            stroke-width: 1024;
          }
        }
        #make-me-a-hanzi-animation-11 {
          animation: keyframes11 0.6015625s both;
          animation-delay: 7.221842447916667s;
          animation-timing-function: linear;
        }
      
        @keyframes keyframes12 {
          from {
            stroke: blue;
            stroke-dashoffset: 483;
            stroke-width: 128;
          }
          61% {
            animation-timing-function: step-end;
            stroke: blue;
            stroke-dashoffset: 0;
            stroke-width: 128;
          }
          to {
            stroke: black;
            stroke-width: 1024;
          }
        }
        #make-me-a-hanzi-animation-12 {
          animation: keyframes12 0.64306640625s both;
          animation-delay: 7.823404947916667s;
          animation-timing-function: linear;
        }
      
        @keyframes keyframes13 {
          from {
            stroke: blue;
            stroke-dashoffset: 376;
            stroke-width: 128;
          }
          55% {
            animation-timing-function: step-end;
            stroke: blue;
            stroke-dashoffset: 0;
            stroke-width: 128;
          }
          to {
            stroke: black;
            stroke-width: 1024;
          }
        }
        #make-me-a-hanzi-animation-13 {
          animation: keyframes13 0.5559895833333334s both;
          animation-delay: 8.466471354166668s;
          animation-timing-function: linear;
        }
      
        @keyframes keyframes14 {
          from {
            stroke: blue;
            stroke-dashoffset: 495;
            stroke-width: 128;
          }
          62% {
            animation-timing-function: step-end;
            stroke: blue;
            stroke-dashoffset: 0;
            stroke-width: 128;
          }
          to {
            stroke: black;
            stroke-width: 1024;
          }
        }
        #make-me-a-hanzi-animation-14 {
          animation: keyframes14 0.65283203125s both;
          animation-delay: 9.022460937500002s;
          animation-timing-function: linear;
        }
      
        @keyframes keyframes15 {
          from {
            stroke: blue;
            stroke-dashoffset: 726;
            stroke-width: 128;
          }
          70% {
            animation-timing-function: step-end;
            stroke: blue;
            stroke-dashoffset: 0;
            stroke-width: 128;
          }
          to {
            stroke: black;
            stroke-width: 1024;
          }
        }
        #make-me-a-hanzi-animation-15 {
          animation: keyframes15 0.8408203125s both;
          animation-delay: 9.675292968750002s;
          animation-timing-function: linear;
        }
      
        @keyframes keyframes16 {
          from {
            stroke: blue;
            stroke-dashoffset: 1015;
            stroke-width: 128;
          }
          77% {
            animation-timing-function: step-end;
            stroke: blue;
            stroke-dashoffset: 0;
            stroke-width: 128;
          }
          to {
            stroke: black;
            stroke-width: 1024;
          }
        }
        #make-me-a-hanzi-animation-16 {
          animation: keyframes16 1.0760091145833333s both;
          animation-delay: 10.516113281250002s;
          animation-timing-function: linear;
        }
      
    </style>
    
      <path d="M 264 672 Q 286 700 310 734 Q 326 762 341 774 Q 350 783 346 794 Q 342 804 320 824 Q 298 840 283 840 Q 267 839 274 820 Q 295 763 146 581 Q 137 574 136 568 Q 132 559 144 561 Q 171 565 235 639 Q 241 646 249 654 L 264 672 Z" fill="lightgray"></path>
    
      <path d="M 299 519 Q 315 538 353 587 Q 386 633 420 659 Q 435 669 424 680 Q 412 690 379 707 Q 370 710 297 682 Q 273 675 264 672 C 235 663 227 660 249 654 Q 267 645 328 660 Q 334 661 335 659 Q 339 656 335 647 Q 305 569 286 533 Q 279 521 278 514 C 269 485 280 496 299 519 Z" fill="lightgray"></path>
    
      <path d="M 159 487 Q 149 493 121 496 Q 111 500 107 495 Q 101 489 109 474 Q 139 407 156 301 Q 159 268 177 247 Q 193 226 198 241 Q 202 253 202 271 L 200 293 Q 179 425 173 460 C 169 483 169 483 159 487 Z" fill="lightgray"></path>
    
      <path d="M 348 293 Q 361 277 373 270 Q 382 264 394 282 Q 407 306 430 434 Q 437 459 455 481 Q 465 491 456 502 Q 443 515 407 536 Q 389 545 299 519 L 278 514 Q 245 510 159 487 C 130 479 144 451 173 460 Q 203 470 248 480 L 279 487 Q 363 509 377 496 Q 389 483 387 468 Q 366 327 350 319 C 339 303 339 303 348 293 Z" fill="lightgray"></path>
    
      <path d="M 300 388 Q 322 394 342 397 Q 360 401 353 410 Q 344 420 324 423 Q 314 424 301 421 L 259 408 Q 232 398 209 390 Q 196 386 212 375 L 260 379 L 300 388 Z" fill="lightgray"></path>
    
      <path d="M 297 316 Q 298 356 300 388 L 301 421 Q 301 434 303 448 Q 307 461 301 469 Q 289 481 279 487 C 254 504 239 509 248 480 Q 257 453 259 408 L 260 379 Q 260 351 263 307 C 265 277 296 286 297 316 Z" fill="lightgray"></path>
    
      <path d="M 202 271 Q 203 271 206 271 Q 287 284 348 293 C 378 297 379 311 350 319 Q 346 320 343 321 Q 327 324 297 316 L 263 307 Q 229 300 200 293 C 171 286 172 270 202 271 Z" fill="lightgray"></path>
    
      <path d="M 100 162 Q 87 161 85 151 Q 82 138 91 130 Q 113 114 145 93 Q 155 89 167 97 Q 204 122 246 140 Q 309 164 371 190 Q 395 199 412 212 Q 425 219 426 228 Q 422 232 409 231 Q 294 198 148 165 Q 130 161 100 162 Z" fill="lightgray"></path>
    
      <path d="M 501 730 Q 491 736 463 740 Q 453 743 450 738 Q 446 734 452 719 Q 476 673 490 596 Q 493 574 506 558 Q 522 539 526 553 Q 529 563 528 579 L 525 608 Q 512 686 510 708 C 508 727 508 727 501 730 Z" fill="lightgray"></path>
    
      <path d="M 629 628 Q 639 695 656 715 Q 672 737 653 747 Q 637 754 615 767 Q 600 774 586 765 Q 565 750 501 730 C 472 721 482 698 510 708 Q 519 712 572 725 Q 588 729 593 722 Q 599 718 596 691 Q 593 663 589 630 C 585 600 624 598 629 628 Z" fill="lightgray"></path>
    
      <path d="M 528 579 Q 535 579 545 582 Q 575 591 640 601 Q 650 602 650 610 Q 650 617 629 628 L 589 630 Q 583 630 581 628 Q 550 616 525 608 C 496 599 498 577 528 579 Z" fill="lightgray"></path>
    
      <path d="M 714 764 Q 705 768 685 772 Q 675 775 672 771 Q 668 767 674 753 Q 693 710 705 637 Q 706 616 719 601 Q 732 585 737 596 Q 741 606 741 622 L 738 651 Q 728 721 727 742 C 726 759 726 759 714 764 Z" fill="lightgray"></path>
    
      <path d="M 848 665 Q 863 723 881 740 Q 899 759 881 772 Q 830 800 825 799 Q 819 799 815 795 Q 788 779 714 764 C 685 758 698 734 727 742 Q 740 746 797 756 Q 815 760 819 752 Q 825 748 819 721 Q 815 699 808 670 C 801 641 840 636 848 665 Z" fill="lightgray"></path>
    
      <path d="M 741 622 Q 748 621 757 623 Q 788 630 859 637 Q 868 638 869 646 Q 869 653 848 665 L 808 670 Q 804 670 801 668 Q 767 658 738 651 C 709 644 711 624 741 622 Z" fill="lightgray"></path>
    
      <path d="M 556 514 Q 523 508 547 493 Q 586 472 636 483 Q 696 495 758 508 Q 786 514 791 518 Q 798 525 795 533 Q 788 543 762 551 Q 734 555 707 545 Q 674 535 640 526 Q 601 519 556 514 Z" fill="lightgray"></path>
    
      <path d="M 650 384 Q 690 397 875 400 Q 924 400 931 409 Q 935 419 921 431 Q 876 465 813 451 Q 693 427 463 392 Q 444 391 458 375 Q 471 363 487 358 Q 506 354 520 358 Q 556 367 598 373 L 650 384 Z" fill="lightgray"></path>
    
      <path d="M 582 208 Q 619 238 702 257 Q 738 267 759 261 Q 781 254 783 218 Q 777 142 743 83 Q 727 59 714 53 Q 698 47 612 77 Q 596 86 594 78 Q 594 72 606 60 Q 652 15 684 -26 Q 694 -39 704 -38 Q 720 -39 739 -26 Q 799 28 830 162 Q 840 231 850 245 Q 863 258 852 270 Q 836 286 796 302 Q 780 309 701 287 Q 674 283 645 276 Q 623 272 633 294 Q 655 337 664 346 Q 676 361 665 375 Q 658 379 650 384 C 627 403 594 403 598 373 Q 605 360 599 333 Q 584 291 552 265 Q 536 249 539 234 Q 542 221 557 206 Q 569 196 582 208 Z" fill="lightgray"></path>
    
    
      <clipPath id="make-me-a-hanzi-clip-0">
        <path d="M 264 672 Q 286 700 310 734 Q 326 762 341 774 Q 350 783 346 794 Q 342 804 320 824 Q 298 840 283 840 Q 267 839 274 820 Q 295 763 146 581 Q 137 574 136 568 Q 132 559 144 561 Q 171 565 235 639 Q 241 646 249 654 L 264 672 Z"></path>
      </clipPath>
      <path clip-path="url(#make-me-a-hanzi-clip-0)" d="M 283 828 L 301 809 L 309 789 L 286 741 L 189 609 L 143 568" fill="none" id="make-me-a-hanzi-animation-0" stroke-dasharray="454 908" stroke-linecap="round"></path>
    
      <clipPath id="make-me-a-hanzi-clip-1">
        <path d="M 299 519 Q 315 538 353 587 Q 386 633 420 659 Q 435 669 424 680 Q 412 690 379 707 Q 370 710 297 682 Q 273 675 264 672 C 235 663 227 660 249 654 Q 267 645 328 660 Q 334 661 335 659 Q 339 656 335 647 Q 305 569 286 533 Q 279 521 278 514 C 269 485 280 496 299 519 Z"></path>
      </clipPath>
      <path clip-path="url(#make-me-a-hanzi-clip-1)" d="M 255 657 L 335 678 L 372 668 L 324 574 L 283 517" fill="none" id="make-me-a-hanzi-animation-1" stroke-dasharray="425 850" stroke-linecap="round"></path>
    
      <clipPath id="make-me-a-hanzi-clip-2">
        <path d="M 159 487 Q 149 493 121 496 Q 111 500 107 495 Q 101 489 109 474 Q 139 407 156 301 Q 159 268 177 247 Q 193 226 198 241 Q 202 253 202 271 L 200 293 Q 179 425 173 460 C 169 483 169 483 159 487 Z"></path>
      </clipPath>
      <path clip-path="url(#make-me-a-hanzi-clip-2)" d="M 115 488 L 140 466 L 147 452 L 188 246" fill="none" id="make-me-a-hanzi-animation-2" stroke-dasharray="387 774" stroke-linecap="round"></path>
    
      <clipPath id="make-me-a-hanzi-clip-3">
        <path d="M 348 293 Q 361 277 373 270 Q 382 264 394 282 Q 407 306 430 434 Q 437 459 455 481 Q 465 491 456 502 Q 443 515 407 536 Q 389 545 299 519 L 278 514 Q 245 510 159 487 C 130 479 144 451 173 460 Q 203 470 248 480 L 279 487 Q 363 509 377 496 Q 389 483 387 468 Q 366 327 350 319 C 339 303 339 303 348 293 Z"></path>
      </clipPath>
      <path clip-path="url(#make-me-a-hanzi-clip-3)" d="M 171 485 L 189 479 L 337 516 L 373 518 L 402 509 L 419 489 L 376 307 L 378 286" fill="none" id="make-me-a-hanzi-animation-3" stroke-dasharray="600 1200" stroke-linecap="round"></path>
    
      <clipPath id="make-me-a-hanzi-clip-4">
        <path d="M 300 388 Q 322 394 342 397 Q 360 401 353 410 Q 344 420 324 423 Q 314 424 301 421 L 259 408 Q 232 398 209 390 Q 196 386 212 375 L 260 379 L 300 388 Z"></path>
      </clipPath>
      <path clip-path="url(#make-me-a-hanzi-clip-4)" d="M 217 384 L 310 407 L 345 405" fill="none" id="make-me-a-hanzi-animation-4" stroke-dasharray="259 518" stroke-linecap="round"></path>
    
      <clipPath id="make-me-a-hanzi-clip-5">
        <path d="M 297 316 Q 298 356 300 388 L 301 421 Q 301 434 303 448 Q 307 461 301 469 Q 289 481 279 487 C 254 504 239 509 248 480 Q 257 453 259 408 L 260 379 Q 260 351 263 307 C 265 277 296 286 297 316 Z"></path>
      </clipPath>
      <path clip-path="url(#make-me-a-hanzi-clip-5)" d="M 257 476 L 274 464 L 280 444 L 279 330 L 267 316" fill="none" id="make-me-a-hanzi-animation-5" stroke-dasharray="302 604" stroke-linecap="round"></path>
    
      <clipPath id="make-me-a-hanzi-clip-6">
        <path d="M 202 271 Q 203 271 206 271 Q 287 284 348 293 C 378 297 379 311 350 319 Q 346 320 343 321 Q 327 324 297 316 L 263 307 Q 229 300 200 293 C 171 286 172 270 202 271 Z"></path>
      </clipPath>
      <path clip-path="url(#make-me-a-hanzi-clip-6)" d="M 204 277 L 220 286 L 333 306 L 344 313" fill="none" id="make-me-a-hanzi-animation-6" stroke-dasharray="274 548" stroke-linecap="round"></path>
    
      <clipPath id="make-me-a-hanzi-clip-7">
        <path d="M 100 162 Q 87 161 85 151 Q 82 138 91 130 Q 113 114 145 93 Q 155 89 167 97 Q 204 122 246 140 Q 309 164 371 190 Q 395 199 412 212 Q 425 219 426 228 Q 422 232 409 231 Q 294 198 148 165 Q 130 161 100 162 Z"></path>
      </clipPath>
      <path clip-path="url(#make-me-a-hanzi-clip-7)" d="M 99 148 L 154 130 L 421 225" fill="none" id="make-me-a-hanzi-animation-7" stroke-dasharray="469 938" stroke-linecap="round"></path>
    
      <clipPath id="make-me-a-hanzi-clip-8">
        <path d="M 501 730 Q 491 736 463 740 Q 453 743 450 738 Q 446 734 452 719 Q 476 673 490 596 Q 493 574 506 558 Q 522 539 526 553 Q 529 563 528 579 L 525 608 Q 512 686 510 708 C 508 727 508 727 501 730 Z"></path>
      </clipPath>
      <path clip-path="url(#make-me-a-hanzi-clip-8)" d="M 457 733 L 486 704 L 516 557" fill="none" id="make-me-a-hanzi-animation-8" stroke-dasharray="319 638" stroke-linecap="round"></path>
    
      <clipPath id="make-me-a-hanzi-clip-9">
        <path d="M 629 628 Q 639 695 656 715 Q 672 737 653 747 Q 637 754 615 767 Q 600 774 586 765 Q 565 750 501 730 C 472 721 482 698 510 708 Q 519 712 572 725 Q 588 729 593 722 Q 599 718 596 691 Q 593 663 589 630 C 585 600 624 598 629 628 Z"></path>
      </clipPath>
      <path clip-path="url(#make-me-a-hanzi-clip-9)" d="M 511 715 L 518 724 L 580 743 L 610 742 L 625 726 L 624 713 L 610 647 L 596 637" fill="none" id="make-me-a-hanzi-animation-9" stroke-dasharray="354 708" stroke-linecap="round"></path>
    
      <clipPath id="make-me-a-hanzi-clip-10">
        <path d="M 528 579 Q 535 579 545 582 Q 575 591 640 601 Q 650 602 650 610 Q 650 617 629 628 L 589 630 Q 583 630 581 628 Q 550 616 525 608 C 496 599 498 577 528 579 Z"></path>
      </clipPath>
      <path clip-path="url(#make-me-a-hanzi-clip-10)" d="M 531 587 L 550 601 L 589 611 L 641 610" fill="none" id="make-me-a-hanzi-animation-10" stroke-dasharray="244 488" stroke-linecap="round"></path>
    
      <clipPath id="make-me-a-hanzi-clip-11">
        <path d="M 714 764 Q 705 768 685 772 Q 675 775 672 771 Q 668 767 674 753 Q 693 710 705 637 Q 706 616 719 601 Q 732 585 737 596 Q 741 606 741 622 L 738 651 Q 728 721 727 742 C 726 759 726 759 714 764 Z"></path>
      </clipPath>
      <path clip-path="url(#make-me-a-hanzi-clip-11)" d="M 679 766 L 705 736 L 729 602" fill="none" id="make-me-a-hanzi-animation-11" stroke-dasharray="304 608" stroke-linecap="round"></path>
    
      <clipPath id="make-me-a-hanzi-clip-12">
        <path d="M 848 665 Q 863 723 881 740 Q 899 759 881 772 Q 830 800 825 799 Q 819 799 815 795 Q 788 779 714 764 C 685 758 698 734 727 742 Q 740 746 797 756 Q 815 760 819 752 Q 825 748 819 721 Q 815 699 808 670 C 801 641 840 636 848 665 Z"></path>
      </clipPath>
      <path clip-path="url(#make-me-a-hanzi-clip-12)" d="M 725 763 L 737 756 L 820 775 L 839 767 L 851 754 L 849 743 L 830 685 L 815 676" fill="none" id="make-me-a-hanzi-animation-12" stroke-dasharray="355 710" stroke-linecap="round"></path>
    
      <clipPath id="make-me-a-hanzi-clip-13">
        <path d="M 741 622 Q 748 621 757 623 Q 788 630 859 637 Q 868 638 869 646 Q 869 653 848 665 L 808 670 Q 804 670 801 668 Q 767 658 738 651 C 709 644 711 624 741 622 Z"></path>
      </clipPath>
      <path clip-path="url(#make-me-a-hanzi-clip-13)" d="M 745 630 L 755 639 L 810 650 L 860 646" fill="none" id="make-me-a-hanzi-animation-13" stroke-dasharray="248 496" stroke-linecap="round"></path>
    
      <clipPath id="make-me-a-hanzi-clip-14">
        <path d="M 556 514 Q 523 508 547 493 Q 586 472 636 483 Q 696 495 758 508 Q 786 514 791 518 Q 798 525 795 533 Q 788 543 762 551 Q 734 555 707 545 Q 674 535 640 526 Q 601 519 556 514 Z"></path>
      </clipPath>
      <path clip-path="url(#make-me-a-hanzi-clip-14)" d="M 549 505 L 559 500 L 609 500 L 742 529 L 784 528" fill="none" id="make-me-a-hanzi-animation-14" stroke-dasharray="367 734" stroke-linecap="round"></path>
    
      <clipPath id="make-me-a-hanzi-clip-15">
        <path d="M 650 384 Q 690 397 875 400 Q 924 400 931 409 Q 935 419 921 431 Q 876 465 813 451 Q 693 427 463 392 Q 444 391 458 375 Q 471 363 487 358 Q 506 354 520 358 Q 556 367 598 373 L 650 384 Z"></path>
      </clipPath>
      <path clip-path="url(#make-me-a-hanzi-clip-15)" d="M 460 384 L 489 377 L 523 379 L 653 405 L 826 427 L 879 426 L 924 414" fill="none" id="make-me-a-hanzi-animation-15" stroke-dasharray="598 1196" stroke-linecap="round"></path>
    
      <clipPath id="make-me-a-hanzi-clip-16">
        <path d="M 582 208 Q 619 238 702 257 Q 738 267 759 261 Q 781 254 783 218 Q 777 142 743 83 Q 727 59 714 53 Q 698 47 612 77 Q 596 86 594 78 Q 594 72 606 60 Q 652 15 684 -26 Q 694 -39 704 -38 Q 720 -39 739 -26 Q 799 28 830 162 Q 840 231 850 245 Q 863 258 852 270 Q 836 286 796 302 Q 780 309 701 287 Q 674 283 645 276 Q 623 272 633 294 Q 655 337 664 346 Q 676 361 665 375 Q 658 379 650 384 C 627 403 594 403 598 373 Q 605 360 599 333 Q 584 291 552 265 Q 536 249 539 234 Q 542 221 557 206 Q 569 196 582 208 Z"></path>
      </clipPath>
      <path clip-path="url(#make-me-a-hanzi-clip-16)" d="M 605 370 L 631 349 L 599 261 L 638 258 L 753 282 L 792 273 L 813 253 L 813 246 L 806 177 L 791 122 L 768 67 L 731 19 L 712 9 L 599 76" fill="none" id="make-me-a-hanzi-animation-16" stroke-dasharray="887 1774" stroke-linecap="round"></path>
    
  </g>
</svg>