<svg version="1.1" viewBox="0 0 1024 1024" xmlns="http://www.w3.org/2000/svg">
  <g stroke="lightgray" stroke-dasharray="1,1" stroke-width="1" transform="scale(4, 4)">
    <line x1="0" y1="0" x2="256" y2="256"></line>
    <line x1="256" y1="0" x2="0" y2="256"></line>
    <line x1="128" y1="0" x2="128" y2="256"></line>
    <line x1="0" y1="128" x2="256" y2="128"></line>
  </g>
  <g transform="scale(1, -1) translate(0, -900)">
    <style type="text/css">
      
        @keyframes keyframes0 {
          from {
            stroke: blue;
            stroke-dashoffset: 553;
            stroke-width: 128;
          }
          64% {
            animation-timing-function: step-end;
            stroke: blue;
            stroke-dashoffset: 0;
            stroke-width: 128;
          }
          to {
            stroke: black;
            stroke-width: 1024;
          }
        }
        #make-me-a-hanzi-animation-0 {
          animation: keyframes0 0.7000325520833334s both;
          animation-delay: 0s;
          animation-timing-function: linear;
        }
      
        @keyframes keyframes1 {
          from {
            stroke: blue;
            stroke-dashoffset: 553;
            stroke-width: 128;
          }
          64% {
            animation-timing-function: step-end;
            stroke: blue;
            stroke-dashoffset: 0;
            stroke-width: 128;
          }
          to {
            stroke: black;
            stroke-width: 1024;
          }
        }
        #make-me-a-hanzi-animation-1 {
          animation: keyframes1 0.7000325520833334s both;
          animation-delay: 0.7000325520833334s;
          animation-timing-function: linear;
        }
      
        @keyframes keyframes2 {
          from {
            stroke: blue;
            stroke-dashoffset: 506;
            stroke-width: 128;
          }
          62% {
            animation-timing-function: step-end;
            stroke: blue;
            stroke-dashoffset: 0;
            stroke-width: 128;
          }
          to {
            stroke: black;
            stroke-width: 1024;
          }
        }
        #make-me-a-hanzi-animation-2 {
          animation: keyframes2 0.6617838541666666s both;
          animation-delay: 1.4000651041666667s;
          animation-timing-function: linear;
        }
      
        @keyframes keyframes3 {
          from {
            stroke: blue;
            stroke-dashoffset: 715;
            stroke-width: 128;
          }
          70% {
            animation-timing-function: step-end;
            stroke: blue;
            stroke-dashoffset: 0;
            stroke-width: 128;
          }
          to {
            stroke: black;
            stroke-width: 1024;
          }
        }
        #make-me-a-hanzi-animation-3 {
          animation: keyframes3 0.8318684895833334s both;
          animation-delay: 2.0618489583333335s;
          animation-timing-function: linear;
        }
      
        @keyframes keyframes4 {
          from {
            stroke: blue;
            stroke-dashoffset: 403;
            stroke-width: 128;
          }
          57% {
            animation-timing-function: step-end;
            stroke: blue;
            stroke-dashoffset: 0;
            stroke-width: 128;
          }
          to {
            stroke: black;
            stroke-width: 1024;
          }
        }
        #make-me-a-hanzi-animation-4 {
          animation: keyframes4 0.5779622395833334s both;
          animation-delay: 2.893717447916667s;
          animation-timing-function: linear;
        }
      
        @keyframes keyframes5 {
          from {
            stroke: blue;
            stroke-dashoffset: 430;
            stroke-width: 128;
          }
          58% {
            animation-timing-function: step-end;
            stroke: blue;
            stroke-dashoffset: 0;
            stroke-width: 128;
          }
          to {
            stroke: black;
            stroke-width: 1024;
          }
        }
        #make-me-a-hanzi-animation-5 {
          animation: keyframes5 0.5999348958333334s both;
          animation-delay: 3.4716796875000004s;
          animation-timing-function: linear;
        }
      
        @keyframes keyframes6 {
          from {
            stroke: blue;
            stroke-dashoffset: 395;
            stroke-width: 128;
          }
          56% {
            animation-timing-function: step-end;
            stroke: blue;
            stroke-dashoffset: 0;
            stroke-width: 128;
          }
          to {
            stroke: black;
            stroke-width: 1024;
          }
        }
        #make-me-a-hanzi-animation-6 {
          animation: keyframes6 0.5714518229166666s both;
          animation-delay: 4.071614583333334s;
          animation-timing-function: linear;
        }
      
        @keyframes keyframes7 {
          from {
            stroke: blue;
            stroke-dashoffset: 600;
            stroke-width: 128;
          }
          66% {
            animation-timing-function: step-end;
            stroke: blue;
            stroke-dashoffset: 0;
            stroke-width: 128;
          }
          to {
            stroke: black;
            stroke-width: 1024;
          }
        }
        #make-me-a-hanzi-animation-7 {
          animation: keyframes7 0.73828125s both;
          animation-delay: 4.643066406250001s;
          animation-timing-function: linear;
        }
      
        @keyframes keyframes8 {
          from {
            stroke: blue;
            stroke-dashoffset: 526;
            stroke-width: 128;
          }
          63% {
            animation-timing-function: step-end;
            stroke: blue;
            stroke-dashoffset: 0;
            stroke-width: 128;
          }
          to {
            stroke: black;
            stroke-width: 1024;
          }
        }
        #make-me-a-hanzi-animation-8 {
          animation: keyframes8 0.6780598958333334s both;
          animation-delay: 5.381347656250001s;
          animation-timing-function: linear;
        }
      
        @keyframes keyframes9 {
          from {
            stroke: blue;
            stroke-dashoffset: 359;
            stroke-width: 128;
          }
          54% {
            animation-timing-function: step-end;
            stroke: blue;
            stroke-dashoffset: 0;
            stroke-width: 128;
          }
          to {
            stroke: black;
            stroke-width: 1024;
          }
        }
        #make-me-a-hanzi-animation-9 {
          animation: keyframes9 0.5421549479166666s both;
          animation-delay: 6.059407552083334s;
          animation-timing-function: linear;
        }
      
        @keyframes keyframes10 {
          from {
            stroke: blue;
            stroke-dashoffset: 333;
            stroke-width: 128;
          }
          52% {
            animation-timing-function: step-end;
            stroke: blue;
            stroke-dashoffset: 0;
            stroke-width: 128;
          }
          to {
            stroke: black;
            stroke-width: 1024;
          }
        }
        #make-me-a-hanzi-animation-10 {
          animation: keyframes10 0.52099609375s both;
          animation-delay: 6.601562500000001s;
          animation-timing-function: linear;
        }
      
        @keyframes keyframes11 {
          from {
            stroke: blue;
            stroke-dashoffset: 475;
            stroke-width: 128;
          }
          61% {
            animation-timing-function: step-end;
            stroke: blue;
            stroke-dashoffset: 0;
            stroke-width: 128;
          }
          to {
            stroke: black;
            stroke-width: 1024;
          }
        }
        #make-me-a-hanzi-animation-11 {
          animation: keyframes11 0.6365559895833334s both;
          animation-delay: 7.122558593750001s;
          animation-timing-function: linear;
        }
      
        @keyframes keyframes12 {
          from {
            stroke: blue;
            stroke-dashoffset: 444;
            stroke-width: 128;
          }
          59% {
            animation-timing-function: step-end;
            stroke: blue;
            stroke-dashoffset: 0;
            stroke-width: 128;
          }
          to {
            stroke: black;
            stroke-width: 1024;
          }
        }
        #make-me-a-hanzi-animation-12 {
          animation: keyframes12 0.611328125s both;
          animation-delay: 7.759114583333334s;
          animation-timing-function: linear;
        }
      
        @keyframes keyframes13 {
          from {
            stroke: blue;
            stroke-dashoffset: 496;
            stroke-width: 128;
          }
          62% {
            animation-timing-function: step-end;
            stroke: blue;
            stroke-dashoffset: 0;
            stroke-width: 128;
          }
          to {
            stroke: black;
            stroke-width: 1024;
          }
        }
        #make-me-a-hanzi-animation-13 {
          animation: keyframes13 0.6536458333333334s both;
          animation-delay: 8.370442708333334s;
          animation-timing-function: linear;
        }
      
        @keyframes keyframes14 {
          from {
            stroke: blue;
            stroke-dashoffset: 712;
            stroke-width: 128;
          }
          70% {
            animation-timing-function: step-end;
            stroke: blue;
            stroke-dashoffset: 0;
            stroke-width: 128;
          }
          to {
            stroke: black;
            stroke-width: 1024;
          }
        }
        #make-me-a-hanzi-animation-14 {
          animation: keyframes14 0.8294270833333334s both;
          animation-delay: 9.024088541666668s;
          animation-timing-function: linear;
        }
      
        @keyframes keyframes15 {
          from {
            stroke: blue;
            stroke-dashoffset: 539;
            stroke-width: 128;
          }
          64% {
            animation-timing-function: step-end;
            stroke: blue;
            stroke-dashoffset: 0;
            stroke-width: 128;
          }
          to {
            stroke: black;
            stroke-width: 1024;
          }
        }
        #make-me-a-hanzi-animation-15 {
          animation: keyframes15 0.6886393229166666s both;
          animation-delay: 9.853515625000002s;
          animation-timing-function: linear;
        }
      
        @keyframes keyframes16 {
          from {
            stroke: blue;
            stroke-dashoffset: 717;
            stroke-width: 128;
          }
          70% {
            animation-timing-function: step-end;
            stroke: blue;
            stroke-dashoffset: 0;
            stroke-width: 128;
          }
          to {
            stroke: black;
            stroke-width: 1024;
          }
        }
        #make-me-a-hanzi-animation-16 {
          animation: keyframes16 0.83349609375s both;
          animation-delay: 10.542154947916668s;
          animation-timing-function: linear;
        }
      
        @keyframes keyframes17 {
          from {
            stroke: blue;
            stroke-dashoffset: 474;
            stroke-width: 128;
          }
          61% {
            animation-timing-function: step-end;
            stroke: blue;
            stroke-dashoffset: 0;
            stroke-width: 128;
          }
          to {
            stroke: black;
            stroke-width: 1024;
          }
        }
        #make-me-a-hanzi-animation-17 {
          animation: keyframes17 0.6357421875s both;
          animation-delay: 11.375651041666668s;
          animation-timing-function: linear;
        }
      
    </style>
    
      <path d="M 266 662 Q 285 684 306 711 Q 322 735 336 746 Q 343 753 341 766 Q 338 776 316 796 Q 294 812 279 813 Q 263 812 269 794 Q 290 748 151 581 Q 142 574 140 568 Q 136 559 148 561 Q 169 564 255 649 L 266 662 Z" fill="lightgray"></path>
    
      <path d="M 307 524 Q 325 542 361 583 Q 397 625 432 648 Q 448 657 437 669 Q 424 679 392 698 Q 377 704 364 695 Q 357 691 300 671 Q 284 667 266 662 C 241 655 241 655 255 649 Q 267 637 339 652 Q 346 653 347 652 Q 351 648 346 640 Q 313 570 292 535 Q 285 525 283 519 C 270 492 286 503 307 524 Z" fill="lightgray"></path>
    
      <path d="M 173 494 Q 163 500 134 505 Q 122 508 119 503 Q 113 497 121 482 Q 149 418 165 315 Q 168 284 185 263 Q 201 242 206 257 Q 207 264 209 274 L 210 301 Q 209 313 207 325 Q 188 434 185 467 C 183 490 183 490 173 494 Z" fill="lightgray"></path>
    
      <path d="M 353 296 Q 363 283 373 278 Q 382 272 394 290 Q 407 312 433 437 Q 440 462 458 484 Q 468 494 459 506 Q 446 519 411 540 Q 396 546 335 531 Q 325 531 307 524 L 283 519 Q 238 512 173 494 C 144 486 156 458 185 467 Q 215 477 260 486 L 290 492 Q 369 510 381 500 Q 393 487 390 473 Q 368 341 352 329 C 340 310 340 310 353 296 Z" fill="lightgray"></path>
    
      <path d="M 310 394 Q 334 400 357 403 Q 376 407 369 418 Q 359 430 339 432 Q 327 433 312 430 L 269 417 Q 239 407 213 399 Q 200 395 217 383 Q 218 383 270 386 L 310 394 Z" fill="lightgray"></path>
    
      <path d="M 306 325 Q 307 362 310 394 L 312 430 Q 312 434 313 438 Q 313 474 297 487 Q 294 490 290 492 C 265 508 253 515 260 486 Q 266 465 269 417 L 270 386 Q 270 358 271 315 C 272 285 305 295 306 325 Z" fill="lightgray"></path>
    
      <path d="M 209 274 Q 215 273 222 275 Q 264 287 353 296 C 383 299 380 318 352 329 Q 339 336 314 328 Q 308 327 306 325 L 271 315 Q 238 308 210 301 C 181 294 179 276 209 274 Z" fill="lightgray"></path>
    
      <path d="M 103 164 Q 90 163 88 153 Q 87 141 95 133 Q 117 117 147 99 Q 157 96 168 104 Q 195 125 375 201 Q 399 211 417 224 Q 430 231 430 240 Q 426 244 413 243 Q 161 162 103 164 Z" fill="lightgray"></path>
    
      <path d="M 654 759 Q 611 711 511 650 Q 508 643 513 640 Q 541 640 662 706 Q 692 728 744 746 Q 757 747 760 755 Q 761 765 751 773 Q 696 803 668 795 Q 662 791 663 782 Q 664 769 654 759 Z" fill="lightgray"></path>
    
      <path d="M 498 567 Q 517 548 538 526 Q 548 516 561 515 Q 568 515 573 525 Q 577 535 572 559 Q 565 586 497 605 Q 485 608 480 606 Q 476 605 476 594 Q 479 585 498 567 Z" fill="lightgray"></path>
    
      <path d="M 612 616 Q 646 559 668 555 Q 678 554 686 567 Q 687 577 682 596 Q 676 609 658 618 Q 630 634 618 638 Q 611 641 609 631 Q 608 624 612 616 Z" fill="lightgray"></path>
    
      <path d="M 781 638 Q 754 589 698 513 Q 694 506 699 499 Q 706 498 714 503 Q 811 590 858 623 Q 876 630 871 641 Q 864 657 842 674 Q 820 690 797 691 Q 782 690 785 669 Q 789 656 781 638 Z" fill="lightgray"></path>
    
      <path d="M 573 425 Q 580 435 589 445 Q 596 454 586 465 Q 553 492 535 489 Q 528 488 528 476 Q 537 421 478 354 Q 465 338 457 329 Q 450 319 462 321 Q 472 322 486 332 Q 531 362 557 402 Q 558 406 561 409 L 573 425 Z" fill="lightgray"></path>
    
      <path d="M 673 400 Q 808 431 811 434 Q 820 441 815 449 Q 808 459 782 466 Q 754 470 727 460 Q 694 448 660 440 Q 621 430 576 426 Q 573 426 573 425 C 547 420 547 420 561 409 Q 582 388 634 392 L 673 400 Z" fill="lightgray"></path>
    
      <path d="M 698 276 Q 765 286 865 289 Q 913 289 920 298 Q 924 308 910 320 Q 859 353 802 335 Q 757 326 699 313 L 647 303 Q 562 288 466 272 Q 448 269 462 255 Q 475 243 490 240 Q 508 236 522 240 Q 579 259 648 268 L 698 276 Z" fill="lightgray"></path>
    
      <path d="M 689 127 Q 693 209 698 276 L 699 313 Q 702 373 703 374 Q 702 377 701 377 Q 688 390 673 400 C 648 417 622 420 634 392 Q 646 371 647 303 L 648 268 Q 648 214 648 118 C 648 88 688 97 689 127 Z" fill="lightgray"></path>
    
      <path d="M 828 150 Q 753 141 689 127 L 648 118 Q 596 108 551 93 Q 535 90 540 108 Q 553 162 544 178 Q 531 194 510 208 Q 500 215 491 213 Q 481 209 487 192 Q 500 158 493 124 Q 487 93 473 78 Q 457 62 463 50 Q 473 35 488 25 Q 501 18 510 25 Q 540 59 753 107 Q 805 119 822 112 Q 823 113 826 113 C 856 110 858 154 828 150 Z" fill="lightgray"></path>
    
      <path d="M 826 113 Q 817 71 841 36 Q 850 24 858 35 Q 876 54 870 125 Q 873 194 879 211 Q 883 224 874 234 Q 858 244 830 256 Q 820 260 810 254 Q 804 250 807 240 Q 822 225 828 150 L 826 113 Z" fill="lightgray"></path>
    
    
      <clipPath id="make-me-a-hanzi-clip-0">
        <path d="M 266 662 Q 285 684 306 711 Q 322 735 336 746 Q 343 753 341 766 Q 338 776 316 796 Q 294 812 279 813 Q 263 812 269 794 Q 290 748 151 581 Q 142 574 140 568 Q 136 559 148 561 Q 169 564 255 649 L 266 662 Z"></path>
      </clipPath>
      <path clip-path="url(#make-me-a-hanzi-clip-0)" d="M 278 801 L 302 769 L 289 734 L 233 653 L 178 593 L 147 568" fill="none" id="make-me-a-hanzi-animation-0" stroke-dasharray="425 850" stroke-linecap="round"></path>
    
      <clipPath id="make-me-a-hanzi-clip-1">
        <path d="M 307 524 Q 325 542 361 583 Q 397 625 432 648 Q 448 657 437 669 Q 424 679 392 698 Q 377 704 364 695 Q 357 691 300 671 Q 284 667 266 662 C 241 655 241 655 255 649 Q 267 637 339 652 Q 346 653 347 652 Q 351 648 346 640 Q 313 570 292 535 Q 285 525 283 519 C 270 492 286 503 307 524 Z"></path>
      </clipPath>
      <path clip-path="url(#make-me-a-hanzi-clip-1)" d="M 260 651 L 350 670 L 375 666 L 384 657 L 331 570 L 289 520" fill="none" id="make-me-a-hanzi-animation-1" stroke-dasharray="425 850" stroke-linecap="round"></path>
    
      <clipPath id="make-me-a-hanzi-clip-2">
        <path d="M 173 494 Q 163 500 134 505 Q 122 508 119 503 Q 113 497 121 482 Q 149 418 165 315 Q 168 284 185 263 Q 201 242 206 257 Q 207 264 209 274 L 210 301 Q 209 313 207 325 Q 188 434 185 467 C 183 490 183 490 173 494 Z"></path>
      </clipPath>
      <path clip-path="url(#make-me-a-hanzi-clip-2)" d="M 128 496 L 153 473 L 161 450 L 196 262" fill="none" id="make-me-a-hanzi-animation-2" stroke-dasharray="378 756" stroke-linecap="round"></path>
    
      <clipPath id="make-me-a-hanzi-clip-3">
        <path d="M 353 296 Q 363 283 373 278 Q 382 272 394 290 Q 407 312 433 437 Q 440 462 458 484 Q 468 494 459 506 Q 446 519 411 540 Q 396 546 335 531 Q 325 531 307 524 L 283 519 Q 238 512 173 494 C 144 486 156 458 185 467 Q 215 477 260 486 L 290 492 Q 369 510 381 500 Q 393 487 390 473 Q 368 341 352 329 C 340 310 340 310 353 296 Z"></path>
      </clipPath>
      <path clip-path="url(#make-me-a-hanzi-clip-3)" d="M 183 490 L 193 484 L 349 520 L 398 518 L 417 501 L 420 482 L 378 320 L 378 294" fill="none" id="make-me-a-hanzi-animation-3" stroke-dasharray="587 1174" stroke-linecap="round"></path>
    
      <clipPath id="make-me-a-hanzi-clip-4">
        <path d="M 310 394 Q 334 400 357 403 Q 376 407 369 418 Q 359 430 339 432 Q 327 433 312 430 L 269 417 Q 239 407 213 399 Q 200 395 217 383 Q 218 383 270 386 L 310 394 Z"></path>
      </clipPath>
      <path clip-path="url(#make-me-a-hanzi-clip-4)" d="M 216 391 L 321 415 L 360 413" fill="none" id="make-me-a-hanzi-animation-4" stroke-dasharray="275 550" stroke-linecap="round"></path>
    
      <clipPath id="make-me-a-hanzi-clip-5">
        <path d="M 306 325 Q 307 362 310 394 L 312 430 Q 312 434 313 438 Q 313 474 297 487 Q 294 490 290 492 C 265 508 253 515 260 486 Q 266 465 269 417 L 270 386 Q 270 358 271 315 C 272 285 305 295 306 325 Z"></path>
      </clipPath>
      <path clip-path="url(#make-me-a-hanzi-clip-5)" d="M 268 483 L 285 469 L 290 445 L 289 347 L 285 332 L 275 323" fill="none" id="make-me-a-hanzi-animation-5" stroke-dasharray="302 604" stroke-linecap="round"></path>
    
      <clipPath id="make-me-a-hanzi-clip-6">
        <path d="M 209 274 Q 215 273 222 275 Q 264 287 353 296 C 383 299 380 318 352 329 Q 339 336 314 328 Q 308 327 306 325 L 271 315 Q 238 308 210 301 C 181 294 179 276 209 274 Z"></path>
      </clipPath>
      <path clip-path="url(#make-me-a-hanzi-clip-6)" d="M 215 281 L 234 293 L 334 313 L 345 323" fill="none" id="make-me-a-hanzi-animation-6" stroke-dasharray="267 534" stroke-linecap="round"></path>
    
      <clipPath id="make-me-a-hanzi-clip-7">
        <path d="M 103 164 Q 90 163 88 153 Q 87 141 95 133 Q 117 117 147 99 Q 157 96 168 104 Q 195 125 375 201 Q 399 211 417 224 Q 430 231 430 240 Q 426 244 413 243 Q 161 162 103 164 Z"></path>
      </clipPath>
      <path clip-path="url(#make-me-a-hanzi-clip-7)" d="M 102 150 L 153 135 L 425 237" fill="none" id="make-me-a-hanzi-animation-7" stroke-dasharray="472 944" stroke-linecap="round"></path>
    
      <clipPath id="make-me-a-hanzi-clip-8">
        <path d="M 654 759 Q 611 711 511 650 Q 508 643 513 640 Q 541 640 662 706 Q 692 728 744 746 Q 757 747 760 755 Q 761 765 751 773 Q 696 803 668 795 Q 662 791 663 782 Q 664 769 654 759 Z"></path>
      </clipPath>
      <path clip-path="url(#make-me-a-hanzi-clip-8)" d="M 750 758 L 735 763 L 692 759 L 605 692 L 515 646" fill="none" id="make-me-a-hanzi-animation-8" stroke-dasharray="398 796" stroke-linecap="round"></path>
    
      <clipPath id="make-me-a-hanzi-clip-9">
        <path d="M 498 567 Q 517 548 538 526 Q 548 516 561 515 Q 568 515 573 525 Q 577 535 572 559 Q 565 586 497 605 Q 485 608 480 606 Q 476 605 476 594 Q 479 585 498 567 Z"></path>
      </clipPath>
      <path clip-path="url(#make-me-a-hanzi-clip-9)" d="M 484 598 L 541 559 L 558 530" fill="none" id="make-me-a-hanzi-animation-9" stroke-dasharray="231 462" stroke-linecap="round"></path>
    
      <clipPath id="make-me-a-hanzi-clip-10">
        <path d="M 612 616 Q 646 559 668 555 Q 678 554 686 567 Q 687 577 682 596 Q 676 609 658 618 Q 630 634 618 638 Q 611 641 609 631 Q 608 624 612 616 Z"></path>
      </clipPath>
      <path clip-path="url(#make-me-a-hanzi-clip-10)" d="M 619 627 L 660 588 L 669 570" fill="none" id="make-me-a-hanzi-animation-10" stroke-dasharray="205 410" stroke-linecap="round"></path>
    
      <clipPath id="make-me-a-hanzi-clip-11">
        <path d="M 781 638 Q 754 589 698 513 Q 694 506 699 499 Q 706 498 714 503 Q 811 590 858 623 Q 876 630 871 641 Q 864 657 842 674 Q 820 690 797 691 Q 782 690 785 669 Q 789 656 781 638 Z"></path>
      </clipPath>
      <path clip-path="url(#make-me-a-hanzi-clip-11)" d="M 799 676 L 821 643 L 705 506" fill="none" id="make-me-a-hanzi-animation-11" stroke-dasharray="347 694" stroke-linecap="round"></path>
    
      <clipPath id="make-me-a-hanzi-clip-12">
        <path d="M 573 425 Q 580 435 589 445 Q 596 454 586 465 Q 553 492 535 489 Q 528 488 528 476 Q 537 421 478 354 Q 465 338 457 329 Q 450 319 462 321 Q 472 322 486 332 Q 531 362 557 402 Q 558 406 561 409 L 573 425 Z"></path>
      </clipPath>
      <path clip-path="url(#make-me-a-hanzi-clip-12)" d="M 540 478 L 557 451 L 537 407 L 516 375 L 465 328" fill="none" id="make-me-a-hanzi-animation-12" stroke-dasharray="316 632" stroke-linecap="round"></path>
    
      <clipPath id="make-me-a-hanzi-clip-13">
        <path d="M 673 400 Q 808 431 811 434 Q 820 441 815 449 Q 808 459 782 466 Q 754 470 727 460 Q 694 448 660 440 Q 621 430 576 426 Q 573 426 573 425 C 547 420 547 420 561 409 Q 582 388 634 392 L 673 400 Z"></path>
      </clipPath>
      <path clip-path="url(#make-me-a-hanzi-clip-13)" d="M 569 409 L 636 413 L 762 445 L 805 444" fill="none" id="make-me-a-hanzi-animation-13" stroke-dasharray="368 736" stroke-linecap="round"></path>
    
      <clipPath id="make-me-a-hanzi-clip-14">
        <path d="M 698 276 Q 765 286 865 289 Q 913 289 920 298 Q 924 308 910 320 Q 859 353 802 335 Q 757 326 699 313 L 647 303 Q 562 288 466 272 Q 448 269 462 255 Q 475 243 490 240 Q 508 236 522 240 Q 579 259 648 268 L 698 276 Z"></path>
      </clipPath>
      <path clip-path="url(#make-me-a-hanzi-clip-14)" d="M 464 263 L 507 258 L 829 315 L 866 314 L 913 303" fill="none" id="make-me-a-hanzi-animation-14" stroke-dasharray="584 1168" stroke-linecap="round"></path>
    
      <clipPath id="make-me-a-hanzi-clip-15">
        <path d="M 689 127 Q 693 209 698 276 L 699 313 Q 702 373 703 374 Q 702 377 701 377 Q 688 390 673 400 C 648 417 622 420 634 392 Q 646 371 647 303 L 648 268 Q 648 214 648 118 C 648 88 688 97 689 127 Z"></path>
      </clipPath>
      <path clip-path="url(#make-me-a-hanzi-clip-15)" d="M 641 390 L 670 368 L 675 327 L 670 152 L 653 127" fill="none" id="make-me-a-hanzi-animation-15" stroke-dasharray="411 822" stroke-linecap="round"></path>
    
      <clipPath id="make-me-a-hanzi-clip-16">
        <path d="M 828 150 Q 753 141 689 127 L 648 118 Q 596 108 551 93 Q 535 90 540 108 Q 553 162 544 178 Q 531 194 510 208 Q 500 215 491 213 Q 481 209 487 192 Q 500 158 493 124 Q 487 93 473 78 Q 457 62 463 50 Q 473 35 488 25 Q 501 18 510 25 Q 540 59 753 107 Q 805 119 822 112 Q 823 113 826 113 C 856 110 858 154 828 150 Z"></path>
      </clipPath>
      <path clip-path="url(#make-me-a-hanzi-clip-16)" d="M 495 203 L 521 166 L 513 71 L 552 72 L 602 89 L 774 128 L 805 132 L 822 119" fill="none" id="make-me-a-hanzi-animation-16" stroke-dasharray="589 1178" stroke-linecap="round"></path>
    
      <clipPath id="make-me-a-hanzi-clip-17">
        <path d="M 826 113 Q 817 71 841 36 Q 850 24 858 35 Q 876 54 870 125 Q 873 194 879 211 Q 883 224 874 234 Q 858 244 830 256 Q 820 260 810 254 Q 804 250 807 240 Q 822 225 828 150 L 826 113 Z"></path>
      </clipPath>
      <path clip-path="url(#make-me-a-hanzi-clip-17)" d="M 819 245 L 849 214 L 850 39" fill="none" id="make-me-a-hanzi-animation-17" stroke-dasharray="346 692" stroke-linecap="round"></path>
    
  </g>
</svg>