<svg version="1.1" viewBox="0 0 1024 1024" xmlns="http://www.w3.org/2000/svg">
  <g stroke="lightgray" stroke-dasharray="1,1" stroke-width="1" transform="scale(4, 4)">
    <line x1="0" y1="0" x2="256" y2="256"></line>
    <line x1="256" y1="0" x2="0" y2="256"></line>
    <line x1="128" y1="0" x2="128" y2="256"></line>
    <line x1="0" y1="128" x2="256" y2="128"></line>
  </g>
  <g transform="scale(1, -1) translate(0, -900)">
    <style type="text/css">
      
        @keyframes keyframes0 {
          from {
            stroke: blue;
            stroke-dashoffset: 699;
            stroke-width: 128;
          }
          69% {
            animation-timing-function: step-end;
            stroke: blue;
            stroke-dashoffset: 0;
            stroke-width: 128;
          }
          to {
            stroke: black;
            stroke-width: 1024;
          }
        }
        #make-me-a-hanzi-animation-0 {
          animation: keyframes0 0.81884765625s both;
          animation-delay: 0s;
          animation-timing-function: linear;
        }
      
        @keyframes keyframes1 {
          from {
            stroke: blue;
            stroke-dashoffset: 695;
            stroke-width: 128;
          }
          69% {
            animation-timing-function: step-end;
            stroke: blue;
            stroke-dashoffset: 0;
            stroke-width: 128;
          }
          to {
            stroke: black;
            stroke-width: 1024;
          }
        }
        #make-me-a-hanzi-animation-1 {
          animation: keyframes1 0.8155924479166666s both;
          animation-delay: 0.81884765625s;
          animation-timing-function: linear;
        }
      
        @keyframes keyframes2 {
          from {
            stroke: blue;
            stroke-dashoffset: 498;
            stroke-width: 128;
          }
          62% {
            animation-timing-function: step-end;
            stroke: blue;
            stroke-dashoffset: 0;
            stroke-width: 128;
          }
          to {
            stroke: black;
            stroke-width: 1024;
          }
        }
        #make-me-a-hanzi-animation-2 {
          animation: keyframes2 0.6552734375s both;
          animation-delay: 1.6344401041666665s;
          animation-timing-function: linear;
        }
      
        @keyframes keyframes3 {
          from {
            stroke: blue;
            stroke-dashoffset: 993;
            stroke-width: 128;
          }
          76% {
            animation-timing-function: step-end;
            stroke: blue;
            stroke-dashoffset: 0;
            stroke-width: 128;
          }
          to {
            stroke: black;
            stroke-width: 1024;
          }
        }
        #make-me-a-hanzi-animation-3 {
          animation: keyframes3 1.05810546875s both;
          animation-delay: 2.2897135416666665s;
          animation-timing-function: linear;
        }
      
        @keyframes keyframes4 {
          from {
            stroke: blue;
            stroke-dashoffset: 551;
            stroke-width: 128;
          }
          64% {
            animation-timing-function: step-end;
            stroke: blue;
            stroke-dashoffset: 0;
            stroke-width: 128;
          }
          to {
            stroke: black;
            stroke-width: 1024;
          }
        }
        #make-me-a-hanzi-animation-4 {
          animation: keyframes4 0.6984049479166666s both;
          animation-delay: 3.3478190104166665s;
          animation-timing-function: linear;
        }
      
        @keyframes keyframes5 {
          from {
            stroke: blue;
            stroke-dashoffset: 355;
            stroke-width: 128;
          }
          54% {
            animation-timing-function: step-end;
            stroke: blue;
            stroke-dashoffset: 0;
            stroke-width: 128;
          }
          to {
            stroke: black;
            stroke-width: 1024;
          }
        }
        #make-me-a-hanzi-animation-5 {
          animation: keyframes5 0.5388997395833334s both;
          animation-delay: 4.046223958333333s;
          animation-timing-function: linear;
        }
      
        @keyframes keyframes6 {
          from {
            stroke: blue;
            stroke-dashoffset: 463;
            stroke-width: 128;
          }
          60% {
            animation-timing-function: step-end;
            stroke: blue;
            stroke-dashoffset: 0;
            stroke-width: 128;
          }
          to {
            stroke: black;
            stroke-width: 1024;
          }
        }
        #make-me-a-hanzi-animation-6 {
          animation: keyframes6 0.6267903645833334s both;
          animation-delay: 4.585123697916666s;
          animation-timing-function: linear;
        }
      
        @keyframes keyframes7 {
          from {
            stroke: blue;
            stroke-dashoffset: 673;
            stroke-width: 128;
          }
          69% {
            animation-timing-function: step-end;
            stroke: blue;
            stroke-dashoffset: 0;
            stroke-width: 128;
          }
          to {
            stroke: black;
            stroke-width: 1024;
          }
        }
        #make-me-a-hanzi-animation-7 {
          animation: keyframes7 0.7976888020833334s both;
          animation-delay: 5.211914062499999s;
          animation-timing-function: linear;
        }
      
        @keyframes keyframes8 {
          from {
            stroke: blue;
            stroke-dashoffset: 687;
            stroke-width: 128;
          }
          69% {
            animation-timing-function: step-end;
            stroke: blue;
            stroke-dashoffset: 0;
            stroke-width: 128;
          }
          to {
            stroke: black;
            stroke-width: 1024;
          }
        }
        #make-me-a-hanzi-animation-8 {
          animation: keyframes8 0.80908203125s both;
          animation-delay: 6.009602864583332s;
          animation-timing-function: linear;
        }
      
        @keyframes keyframes9 {
          from {
            stroke: blue;
            stroke-dashoffset: 386;
            stroke-width: 128;
          }
          56% {
            animation-timing-function: step-end;
            stroke: blue;
            stroke-dashoffset: 0;
            stroke-width: 128;
          }
          to {
            stroke: black;
            stroke-width: 1024;
          }
        }
        #make-me-a-hanzi-animation-9 {
          animation: keyframes9 0.5641276041666666s both;
          animation-delay: 6.818684895833332s;
          animation-timing-function: linear;
        }
      
        @keyframes keyframes10 {
          from {
            stroke: blue;
            stroke-dashoffset: 413;
            stroke-width: 128;
          }
          57% {
            animation-timing-function: step-end;
            stroke: blue;
            stroke-dashoffset: 0;
            stroke-width: 128;
          }
          to {
            stroke: black;
            stroke-width: 1024;
          }
        }
        #make-me-a-hanzi-animation-10 {
          animation: keyframes10 0.5861002604166666s both;
          animation-delay: 7.382812499999999s;
          animation-timing-function: linear;
        }
      
        @keyframes keyframes11 {
          from {
            stroke: blue;
            stroke-dashoffset: 438;
            stroke-width: 128;
          }
          59% {
            animation-timing-function: step-end;
            stroke: blue;
            stroke-dashoffset: 0;
            stroke-width: 128;
          }
          to {
            stroke: black;
            stroke-width: 1024;
          }
        }
        #make-me-a-hanzi-animation-11 {
          animation: keyframes11 0.6064453125s both;
          animation-delay: 7.968912760416666s;
          animation-timing-function: linear;
        }
      
        @keyframes keyframes12 {
          from {
            stroke: blue;
            stroke-dashoffset: 1061;
            stroke-width: 128;
          }
          78% {
            animation-timing-function: step-end;
            stroke: blue;
            stroke-dashoffset: 0;
            stroke-width: 128;
          }
          to {
            stroke: black;
            stroke-width: 1024;
          }
        }
        #make-me-a-hanzi-animation-12 {
          animation: keyframes12 1.1134440104166667s both;
          animation-delay: 8.575358072916666s;
          animation-timing-function: linear;
        }
      
        @keyframes keyframes13 {
          from {
            stroke: blue;
            stroke-dashoffset: 398;
            stroke-width: 128;
          }
          56% {
            animation-timing-function: step-end;
            stroke: blue;
            stroke-dashoffset: 0;
            stroke-width: 128;
          }
          to {
            stroke: black;
            stroke-width: 1024;
          }
        }
        #make-me-a-hanzi-animation-13 {
          animation: keyframes13 0.5738932291666666s both;
          animation-delay: 9.688802083333332s;
          animation-timing-function: linear;
        }
      
        @keyframes keyframes14 {
          from {
            stroke: blue;
            stroke-dashoffset: 342;
            stroke-width: 128;
          }
          53% {
            animation-timing-function: step-end;
            stroke: blue;
            stroke-dashoffset: 0;
            stroke-width: 128;
          }
          to {
            stroke: black;
            stroke-width: 1024;
          }
        }
        #make-me-a-hanzi-animation-14 {
          animation: keyframes14 0.5283203125s both;
          animation-delay: 10.262695312499998s;
          animation-timing-function: linear;
        }
      
        @keyframes keyframes15 {
          from {
            stroke: blue;
            stroke-dashoffset: 336;
            stroke-width: 128;
          }
          52% {
            animation-timing-function: step-end;
            stroke: blue;
            stroke-dashoffset: 0;
            stroke-width: 128;
          }
          to {
            stroke: black;
            stroke-width: 1024;
          }
        }
        #make-me-a-hanzi-animation-15 {
          animation: keyframes15 0.5234375s both;
          animation-delay: 10.791015624999998s;
          animation-timing-function: linear;
        }
      
        @keyframes keyframes16 {
          from {
            stroke: blue;
            stroke-dashoffset: 365;
            stroke-width: 128;
          }
          54% {
            animation-timing-function: step-end;
            stroke: blue;
            stroke-dashoffset: 0;
            stroke-width: 128;
          }
          to {
            stroke: black;
            stroke-width: 1024;
          }
        }
        #make-me-a-hanzi-animation-16 {
          animation: keyframes16 0.5470377604166666s both;
          animation-delay: 11.314453124999998s;
          animation-timing-function: linear;
        }
      
    </style>
    
      <path d="M 157 478 Q 197 538 240 624 Q 258 666 275 686 Q 282 696 277 709 Q 271 721 243 739 Q 216 752 199 751 Q 181 747 191 728 Q 233 656 51 377 Q 44 367 41 361 Q 40 351 52 354 Q 76 361 135 445 L 157 478 Z" fill="lightgray"></path>
    
      <path d="M 135 445 Q 150 394 156 355 Q 155 331 155 308 Q 155 209 129 108 Q 117 68 149 25 Q 150 24 152 22 Q 168 9 178 32 Q 191 66 190 107 Q 189 351 197 405 Q 204 429 195 438 Q 179 456 168 468 Q 164 474 157 478 C 135 498 127 474 135 445 Z" fill="lightgray"></path>
    
      <path d="M 392 493 Q 482 521 485 524 Q 492 531 487 538 Q 480 548 455 552 Q 421 556 393 538 L 356 523 Q 257 499 249 497 Q 218 490 242 476 Q 281 461 334 477 Q 338 478 344 479 L 392 493 Z" fill="lightgray"></path>
    
      <path d="M 390 410 Q 391 450 392 493 L 393 538 Q 393 620 409 676 Q 416 689 415 700 Q 409 709 362 738 Q 343 751 325 739 Q 321 735 326 722 Q 354 679 355 636 Q 355 582 356 523 L 353 400 Q 346 198 344 186 Q 338 147 328 108 Q 319 72 341 23 Q 345 8 353 5 Q 357 -1 364 6 Q 371 10 380 28 Q 387 49 387 75 Q 386 112 390 384 L 390 410 Z" fill="lightgray"></path>
    
      <path d="M 344 479 Q 313 379 207 221 Q 203 214 212 213 Q 230 213 301 310 Q 329 347 353 400 C 401 505 353 508 344 479 Z" fill="lightgray"></path>
    
      <path d="M 390 384 Q 453 329 469 329 Q 479 328 484 343 Q 484 353 475 369 Q 465 385 440 393 Q 406 408 390 410 C 360 415 367 404 390 384 Z" fill="lightgray"></path>
    
      <path d="M 599 654 Q 701 756 736 776 Q 754 788 742 802 Q 729 815 703 826 Q 679 835 669 831 Q 657 828 663 817 Q 669 792 581 657 Q 580 657 580 656 C 563 632 578 633 599 654 Z" fill="lightgray"></path>
    
      <path d="M 573 384 Q 573 417 574 448 L 574 471 Q 574 480 575 488 Q 574 515 576 537 L 578 559 Q 579 593 589 616 C 599 643 599 643 580 656 Q 565 668 546 675 Q 527 682 519 673 Q 513 667 521 656 Q 533 629 534 510 Q 528 339 516 293 Q 512 272 526 258 Q 547 242 565 256 C 573 260 573 294 573 324 Q 573 343 573 360 L 573 384 Z" fill="lightgray"></path>
    
      <path d="M 729 478 Q 729 474 731 470 Q 735 457 747 457 Q 760 458 767 471 Q 779 487 800 561 Q 813 607 846 634 Q 862 647 848 662 Q 832 677 788 700 Q 775 707 718 690 Q 627 666 599 654 C 571 643 537 591 589 616 Q 628 637 739 664 Q 754 667 761 664 Q 771 658 765 630 Q 743 527 733 503 L 729 478 Z" fill="lightgray"></path>
    
      <path d="M 576 537 Q 580 537 589 538 Q 653 551 702 559 Q 721 563 713 574 Q 703 586 682 588 Q 655 591 578 559 C 550 548 546 536 576 537 Z" fill="lightgray"></path>
    
      <path d="M 574 448 Q 578 448 587 449 Q 668 468 729 478 C 759 483 761 493 733 503 Q 711 516 574 471 C 545 462 544 447 574 448 Z" fill="lightgray"></path>
    
      <path d="M 573 360 Q 580 359 593 362 Q 681 384 745 398 Q 766 402 757 413 Q 747 426 724 428 Q 705 429 573 384 C 545 374 543 361 573 360 Z" fill="lightgray"></path>
    
      <path d="M 565 256 Q 605 286 737 305 Q 861 327 880 312 Q 892 302 884 263 Q 875 202 863 136 Q 854 87 831 54 Q 819 45 746 58 Q 730 62 731 55 Q 731 49 740 42 Q 786 -4 802 -36 Q 811 -55 828 -45 Q 886 -9 900 53 Q 919 141 934 238 Q 940 272 956 302 Q 968 317 957 328 Q 941 347 906 365 Q 887 375 861 364 Q 816 345 775 340 Q 717 333 597 309 Q 575 303 573 324 C 552 346 539 241 565 256 Z" fill="lightgray"></path>
    
      <path d="M 507 204 Q 488 159 461 118 Q 443 93 458 63 Q 465 48 482 58 Q 524 88 528 156 Q 532 183 527 204 Q 523 211 518 212 Q 511 211 507 204 Z" fill="lightgray"></path>
    
      <path d="M 583 197 Q 608 122 625 115 Q 635 111 644 122 Q 648 131 648 148 Q 647 166 630 181 Q 606 208 594 215 Q 587 219 584 211 Q 580 205 583 197 Z" fill="lightgray"></path>
    
      <path d="M 677 209 Q 707 143 725 138 Q 735 134 743 146 Q 747 156 744 173 Q 740 189 723 201 Q 698 223 686 228 Q 679 232 676 223 Q 673 217 677 209 Z" fill="lightgray"></path>
    
      <path d="M 772 222 Q 823 162 829 161 Q 836 161 842 169 Q 846 178 844 199 Q 843 215 821 231 Q 770 261 760 258 Q 756 257 756 247 Q 757 240 772 222 Z" fill="lightgray"></path>
    
    
      <clipPath id="make-me-a-hanzi-clip-0">
        <path d="M 157 478 Q 197 538 240 624 Q 258 666 275 686 Q 282 696 277 709 Q 271 721 243 739 Q 216 752 199 751 Q 181 747 191 728 Q 233 656 51 377 Q 44 367 41 361 Q 40 351 52 354 Q 76 361 135 445 L 157 478 Z"></path>
      </clipPath>
      <path clip-path="url(#make-me-a-hanzi-clip-0)" d="M 200 738 L 214 729 L 236 698 L 214 628 L 131 471 L 91 409 L 49 361" fill="none" id="make-me-a-hanzi-animation-0" stroke-dasharray="571 1142" stroke-linecap="round"></path>
    
      <clipPath id="make-me-a-hanzi-clip-1">
        <path d="M 135 445 Q 150 394 156 355 Q 155 331 155 308 Q 155 209 129 108 Q 117 68 149 25 Q 150 24 152 22 Q 168 9 178 32 Q 191 66 190 107 Q 189 351 197 405 Q 204 429 195 438 Q 179 456 168 468 Q 164 474 157 478 C 135 498 127 474 135 445 Z"></path>
      </clipPath>
      <path clip-path="url(#make-me-a-hanzi-clip-1)" d="M 159 469 L 172 418 L 175 359 L 171 212 L 157 79 L 163 33" fill="none" id="make-me-a-hanzi-animation-1" stroke-dasharray="567 1134" stroke-linecap="round"></path>
    
      <clipPath id="make-me-a-hanzi-clip-2">
        <path d="M 392 493 Q 482 521 485 524 Q 492 531 487 538 Q 480 548 455 552 Q 421 556 393 538 L 356 523 Q 257 499 249 497 Q 218 490 242 476 Q 281 461 334 477 Q 338 478 344 479 L 392 493 Z"></path>
      </clipPath>
      <path clip-path="url(#make-me-a-hanzi-clip-2)" d="M 243 487 L 291 487 L 433 530 L 479 532" fill="none" id="make-me-a-hanzi-animation-2" stroke-dasharray="370 740" stroke-linecap="round"></path>
    
      <clipPath id="make-me-a-hanzi-clip-3">
        <path d="M 390 410 Q 391 450 392 493 L 393 538 Q 393 620 409 676 Q 416 689 415 700 Q 409 709 362 738 Q 343 751 325 739 Q 321 735 326 722 Q 354 679 355 636 Q 355 582 356 523 L 353 400 Q 346 198 344 186 Q 338 147 328 108 Q 319 72 341 23 Q 345 8 353 5 Q 357 -1 364 6 Q 371 10 380 28 Q 387 49 387 75 Q 386 112 390 384 L 390 410 Z"></path>
      </clipPath>
      <path clip-path="url(#make-me-a-hanzi-clip-3)" d="M 335 733 L 379 689 L 369 385 L 373 371 L 368 359 L 371 296 L 356 95 L 357 17" fill="none" id="make-me-a-hanzi-animation-3" stroke-dasharray="865 1730" stroke-linecap="round"></path>
    
      <clipPath id="make-me-a-hanzi-clip-4">
        <path d="M 344 479 Q 313 379 207 221 Q 203 214 212 213 Q 230 213 301 310 Q 329 347 353 400 C 401 505 353 508 344 479 Z"></path>
      </clipPath>
      <path clip-path="url(#make-me-a-hanzi-clip-4)" d="M 351 475 L 334 400 L 313 360 L 269 288 L 213 219" fill="none" id="make-me-a-hanzi-animation-4" stroke-dasharray="423 846" stroke-linecap="round"></path>
    
      <clipPath id="make-me-a-hanzi-clip-5">
        <path d="M 390 384 Q 453 329 469 329 Q 479 328 484 343 Q 484 353 475 369 Q 465 385 440 393 Q 406 408 390 410 C 360 415 367 404 390 384 Z"></path>
      </clipPath>
      <path clip-path="url(#make-me-a-hanzi-clip-5)" d="M 393 404 L 404 391 L 449 365 L 469 343" fill="none" id="make-me-a-hanzi-animation-5" stroke-dasharray="227 454" stroke-linecap="round"></path>
    
      <clipPath id="make-me-a-hanzi-clip-6">
        <path d="M 599 654 Q 701 756 736 776 Q 754 788 742 802 Q 729 815 703 826 Q 679 835 669 831 Q 657 828 663 817 Q 669 792 581 657 Q 580 657 580 656 C 563 632 578 633 599 654 Z"></path>
      </clipPath>
      <path clip-path="url(#make-me-a-hanzi-clip-6)" d="M 731 791 L 695 791 L 616 686 L 609 684 L 602 667 L 588 668" fill="none" id="make-me-a-hanzi-animation-6" stroke-dasharray="335 670" stroke-linecap="round"></path>
    
      <clipPath id="make-me-a-hanzi-clip-7">
        <path d="M 573 384 Q 573 417 574 448 L 574 471 Q 574 480 575 488 Q 574 515 576 537 L 578 559 Q 579 593 589 616 C 599 643 599 643 580 656 Q 565 668 546 675 Q 527 682 519 673 Q 513 667 521 656 Q 533 629 534 510 Q 528 339 516 293 Q 512 272 526 258 Q 547 242 565 256 C 573 260 573 294 573 324 Q 573 343 573 360 L 573 384 Z"></path>
      </clipPath>
      <path clip-path="url(#make-me-a-hanzi-clip-7)" d="M 529 666 L 555 639 L 558 616 L 552 404 L 542 285 L 543 274 L 553 264" fill="none" id="make-me-a-hanzi-animation-7" stroke-dasharray="545 1090" stroke-linecap="round"></path>
    
      <clipPath id="make-me-a-hanzi-clip-8">
        <path d="M 729 478 Q 729 474 731 470 Q 735 457 747 457 Q 760 458 767 471 Q 779 487 800 561 Q 813 607 846 634 Q 862 647 848 662 Q 832 677 788 700 Q 775 707 718 690 Q 627 666 599 654 C 571 643 537 591 589 616 Q 628 637 739 664 Q 754 667 761 664 Q 771 658 765 630 Q 743 527 733 503 L 729 478 Z"></path>
      </clipPath>
      <path clip-path="url(#make-me-a-hanzi-clip-8)" d="M 584 650 L 599 638 L 732 680 L 766 683 L 785 675 L 805 647 L 747 473" fill="none" id="make-me-a-hanzi-animation-8" stroke-dasharray="559 1118" stroke-linecap="round"></path>
    
      <clipPath id="make-me-a-hanzi-clip-9">
        <path d="M 576 537 Q 580 537 589 538 Q 653 551 702 559 Q 721 563 713 574 Q 703 586 682 588 Q 655 591 578 559 C 550 548 546 536 576 537 Z"></path>
      </clipPath>
      <path clip-path="url(#make-me-a-hanzi-clip-9)" d="M 582 542 L 591 552 L 659 570 L 705 568" fill="none" id="make-me-a-hanzi-animation-9" stroke-dasharray="258 516" stroke-linecap="round"></path>
    
      <clipPath id="make-me-a-hanzi-clip-10">
        <path d="M 574 448 Q 578 448 587 449 Q 668 468 729 478 C 759 483 761 493 733 503 Q 711 516 574 471 C 545 462 544 447 574 448 Z"></path>
      </clipPath>
      <path clip-path="url(#make-me-a-hanzi-clip-10)" d="M 580 454 L 589 465 L 728 497" fill="none" id="make-me-a-hanzi-animation-10" stroke-dasharray="285 570" stroke-linecap="round"></path>
    
      <clipPath id="make-me-a-hanzi-clip-11">
        <path d="M 573 360 Q 580 359 593 362 Q 681 384 745 398 Q 766 402 757 413 Q 747 426 724 428 Q 705 429 573 384 C 545 374 543 361 573 360 Z"></path>
      </clipPath>
      <path clip-path="url(#make-me-a-hanzi-clip-11)" d="M 577 366 L 589 378 L 688 404 L 728 412 L 749 407" fill="none" id="make-me-a-hanzi-animation-11" stroke-dasharray="310 620" stroke-linecap="round"></path>
    
      <clipPath id="make-me-a-hanzi-clip-12">
        <path d="M 565 256 Q 605 286 737 305 Q 861 327 880 312 Q 892 302 884 263 Q 875 202 863 136 Q 854 87 831 54 Q 819 45 746 58 Q 730 62 731 55 Q 731 49 740 42 Q 786 -4 802 -36 Q 811 -55 828 -45 Q 886 -9 900 53 Q 919 141 934 238 Q 940 272 956 302 Q 968 317 957 328 Q 941 347 906 365 Q 887 375 861 364 Q 816 345 775 340 Q 717 333 597 309 Q 575 303 573 324 C 552 346 539 241 565 256 Z"></path>
      </clipPath>
      <path clip-path="url(#make-me-a-hanzi-clip-12)" d="M 576 317 L 575 303 L 589 290 L 711 317 L 877 342 L 900 335 L 921 312 L 882 95 L 857 32 L 826 8 L 740 51" fill="none" id="make-me-a-hanzi-animation-12" stroke-dasharray="933 1866" stroke-linecap="round"></path>
    
      <clipPath id="make-me-a-hanzi-clip-13">
        <path d="M 507 204 Q 488 159 461 118 Q 443 93 458 63 Q 465 48 482 58 Q 524 88 528 156 Q 532 183 527 204 Q 523 211 518 212 Q 511 211 507 204 Z"></path>
      </clipPath>
      <path clip-path="url(#make-me-a-hanzi-clip-13)" d="M 517 202 L 506 149 L 472 68" fill="none" id="make-me-a-hanzi-animation-13" stroke-dasharray="270 540" stroke-linecap="round"></path>
    
      <clipPath id="make-me-a-hanzi-clip-14">
        <path d="M 583 197 Q 608 122 625 115 Q 635 111 644 122 Q 648 131 648 148 Q 647 166 630 181 Q 606 208 594 215 Q 587 219 584 211 Q 580 205 583 197 Z"></path>
      </clipPath>
      <path clip-path="url(#make-me-a-hanzi-clip-14)" d="M 592 205 L 620 162 L 630 129" fill="none" id="make-me-a-hanzi-animation-14" stroke-dasharray="214 428" stroke-linecap="round"></path>
    
      <clipPath id="make-me-a-hanzi-clip-15">
        <path d="M 677 209 Q 707 143 725 138 Q 735 134 743 146 Q 747 156 744 173 Q 740 189 723 201 Q 698 223 686 228 Q 679 232 676 223 Q 673 217 677 209 Z"></path>
      </clipPath>
      <path clip-path="url(#make-me-a-hanzi-clip-15)" d="M 685 217 L 715 181 L 730 152" fill="none" id="make-me-a-hanzi-animation-15" stroke-dasharray="208 416" stroke-linecap="round"></path>
    
      <clipPath id="make-me-a-hanzi-clip-16">
        <path d="M 772 222 Q 823 162 829 161 Q 836 161 842 169 Q 846 178 844 199 Q 843 215 821 231 Q 770 261 760 258 Q 756 257 756 247 Q 757 240 772 222 Z"></path>
      </clipPath>
      <path clip-path="url(#make-me-a-hanzi-clip-16)" d="M 763 251 L 819 202 L 832 170" fill="none" id="make-me-a-hanzi-animation-16" stroke-dasharray="237 474" stroke-linecap="round"></path>
    
  </g>
</svg>