<svg version="1.1" viewBox="0 0 1024 1024" xmlns="http://www.w3.org/2000/svg">
  <g stroke="lightgray" stroke-dasharray="1,1" stroke-width="1" transform="scale(4, 4)">
    <line x1="0" y1="0" x2="256" y2="256"></line>
    <line x1="256" y1="0" x2="0" y2="256"></line>
    <line x1="128" y1="0" x2="128" y2="256"></line>
    <line x1="0" y1="128" x2="256" y2="128"></line>
  </g>
  <g transform="scale(1, -1) translate(0, -900)">
    <style type="text/css">
      
        @keyframes keyframes0 {
          from {
            stroke: blue;
            stroke-dashoffset: 641;
            stroke-width: 128;
          }
          68% {
            animation-timing-function: step-end;
            stroke: blue;
            stroke-dashoffset: 0;
            stroke-width: 128;
          }
          to {
            stroke: black;
            stroke-width: 1024;
          }
        }
        #make-me-a-hanzi-animation-0 {
          animation: keyframes0 0.7716471354166666s both;
          animation-delay: 0s;
          animation-timing-function: linear;
        }
      
        @keyframes keyframes1 {
          from {
            stroke: blue;
            stroke-dashoffset: 331;
            stroke-width: 128;
          }
          52% {
            animation-timing-function: step-end;
            stroke: blue;
            stroke-dashoffset: 0;
            stroke-width: 128;
          }
          to {
            stroke: black;
            stroke-width: 1024;
          }
        }
        #make-me-a-hanzi-animation-1 {
          animation: keyframes1 0.5193684895833334s both;
          animation-delay: 0.7716471354166666s;
          animation-timing-function: linear;
        }
      
        @keyframes keyframes2 {
          from {
            stroke: blue;
            stroke-dashoffset: 653;
            stroke-width: 128;
          }
          68% {
            animation-timing-function: step-end;
            stroke: blue;
            stroke-dashoffset: 0;
            stroke-width: 128;
          }
          to {
            stroke: black;
            stroke-width: 1024;
          }
        }
        #make-me-a-hanzi-animation-2 {
          animation: keyframes2 0.7814127604166666s both;
          animation-delay: 1.291015625s;
          animation-timing-function: linear;
        }
      
        @keyframes keyframes3 {
          from {
            stroke: blue;
            stroke-dashoffset: 462;
            stroke-width: 128;
          }
          60% {
            animation-timing-function: step-end;
            stroke: blue;
            stroke-dashoffset: 0;
            stroke-width: 128;
          }
          to {
            stroke: black;
            stroke-width: 1024;
          }
        }
        #make-me-a-hanzi-animation-3 {
          animation: keyframes3 0.6259765625s both;
          animation-delay: 2.0724283854166665s;
          animation-timing-function: linear;
        }
      
        @keyframes keyframes4 {
          from {
            stroke: blue;
            stroke-dashoffset: 563;
            stroke-width: 128;
          }
          65% {
            animation-timing-function: step-end;
            stroke: blue;
            stroke-dashoffset: 0;
            stroke-width: 128;
          }
          to {
            stroke: black;
            stroke-width: 1024;
          }
        }
        #make-me-a-hanzi-animation-4 {
          animation: keyframes4 0.7081705729166666s both;
          animation-delay: 2.6984049479166665s;
          animation-timing-function: linear;
        }
      
        @keyframes keyframes5 {
          from {
            stroke: blue;
            stroke-dashoffset: 506;
            stroke-width: 128;
          }
          62% {
            animation-timing-function: step-end;
            stroke: blue;
            stroke-dashoffset: 0;
            stroke-width: 128;
          }
          to {
            stroke: black;
            stroke-width: 1024;
          }
        }
        #make-me-a-hanzi-animation-5 {
          animation: keyframes5 0.6617838541666666s both;
          animation-delay: 3.406575520833333s;
          animation-timing-function: linear;
        }
      
        @keyframes keyframes6 {
          from {
            stroke: blue;
            stroke-dashoffset: 494;
            stroke-width: 128;
          }
          62% {
            animation-timing-function: step-end;
            stroke: blue;
            stroke-dashoffset: 0;
            stroke-width: 128;
          }
          to {
            stroke: black;
            stroke-width: 1024;
          }
        }
        #make-me-a-hanzi-animation-6 {
          animation: keyframes6 0.6520182291666666s both;
          animation-delay: 4.068359375s;
          animation-timing-function: linear;
        }
      
        @keyframes keyframes7 {
          from {
            stroke: blue;
            stroke-dashoffset: 571;
            stroke-width: 128;
          }
          65% {
            animation-timing-function: step-end;
            stroke: blue;
            stroke-dashoffset: 0;
            stroke-width: 128;
          }
          to {
            stroke: black;
            stroke-width: 1024;
          }
        }
        #make-me-a-hanzi-animation-7 {
          animation: keyframes7 0.7146809895833334s both;
          animation-delay: 4.720377604166667s;
          animation-timing-function: linear;
        }
      
        @keyframes keyframes8 {
          from {
            stroke: blue;
            stroke-dashoffset: 651;
            stroke-width: 128;
          }
          68% {
            animation-timing-function: step-end;
            stroke: blue;
            stroke-dashoffset: 0;
            stroke-width: 128;
          }
          to {
            stroke: black;
            stroke-width: 1024;
          }
        }
        #make-me-a-hanzi-animation-8 {
          animation: keyframes8 0.77978515625s both;
          animation-delay: 5.43505859375s;
          animation-timing-function: linear;
        }
      
        @keyframes keyframes9 {
          from {
            stroke: blue;
            stroke-dashoffset: 389;
            stroke-width: 128;
          }
          56% {
            animation-timing-function: step-end;
            stroke: blue;
            stroke-dashoffset: 0;
            stroke-width: 128;
          }
          to {
            stroke: black;
            stroke-width: 1024;
          }
        }
        #make-me-a-hanzi-animation-9 {
          animation: keyframes9 0.5665690104166666s both;
          animation-delay: 6.21484375s;
          animation-timing-function: linear;
        }
      
        @keyframes keyframes10 {
          from {
            stroke: blue;
            stroke-dashoffset: 566;
            stroke-width: 128;
          }
          65% {
            animation-timing-function: step-end;
            stroke: blue;
            stroke-dashoffset: 0;
            stroke-width: 128;
          }
          to {
            stroke: black;
            stroke-width: 1024;
          }
        }
        #make-me-a-hanzi-animation-10 {
          animation: keyframes10 0.7106119791666666s both;
          animation-delay: 6.781412760416667s;
          animation-timing-function: linear;
        }
      
        @keyframes keyframes11 {
          from {
            stroke: blue;
            stroke-dashoffset: 686;
            stroke-width: 128;
          }
          69% {
            animation-timing-function: step-end;
            stroke: blue;
            stroke-dashoffset: 0;
            stroke-width: 128;
          }
          to {
            stroke: black;
            stroke-width: 1024;
          }
        }
        #make-me-a-hanzi-animation-11 {
          animation: keyframes11 0.8082682291666666s both;
          animation-delay: 7.492024739583334s;
          animation-timing-function: linear;
        }
      
        @keyframes keyframes12 {
          from {
            stroke: blue;
            stroke-dashoffset: 421;
            stroke-width: 128;
          }
          58% {
            animation-timing-function: step-end;
            stroke: blue;
            stroke-dashoffset: 0;
            stroke-width: 128;
          }
          to {
            stroke: black;
            stroke-width: 1024;
          }
        }
        #make-me-a-hanzi-animation-12 {
          animation: keyframes12 0.5926106770833334s both;
          animation-delay: 8.30029296875s;
          animation-timing-function: linear;
        }
      
        @keyframes keyframes13 {
          from {
            stroke: blue;
            stroke-dashoffset: 469;
            stroke-width: 128;
          }
          60% {
            animation-timing-function: step-end;
            stroke: blue;
            stroke-dashoffset: 0;
            stroke-width: 128;
          }
          to {
            stroke: black;
            stroke-width: 1024;
          }
        }
        #make-me-a-hanzi-animation-13 {
          animation: keyframes13 0.6316731770833334s both;
          animation-delay: 8.892903645833334s;
          animation-timing-function: linear;
        }
      
        @keyframes keyframes14 {
          from {
            stroke: blue;
            stroke-dashoffset: 454;
            stroke-width: 128;
          }
          60% {
            animation-timing-function: step-end;
            stroke: blue;
            stroke-dashoffset: 0;
            stroke-width: 128;
          }
          to {
            stroke: black;
            stroke-width: 1024;
          }
        }
        #make-me-a-hanzi-animation-14 {
          animation: keyframes14 0.6194661458333334s both;
          animation-delay: 9.524576822916668s;
          animation-timing-function: linear;
        }
      
        @keyframes keyframes15 {
          from {
            stroke: blue;
            stroke-dashoffset: 1040;
            stroke-width: 128;
          }
          77% {
            animation-timing-function: step-end;
            stroke: blue;
            stroke-dashoffset: 0;
            stroke-width: 128;
          }
          to {
            stroke: black;
            stroke-width: 1024;
          }
        }
        #make-me-a-hanzi-animation-15 {
          animation: keyframes15 1.0963541666666667s both;
          animation-delay: 10.144042968750002s;
          animation-timing-function: linear;
        }
      
        @keyframes keyframes16 {
          from {
            stroke: blue;
            stroke-dashoffset: 391;
            stroke-width: 128;
          }
          56% {
            animation-timing-function: step-end;
            stroke: blue;
            stroke-dashoffset: 0;
            stroke-width: 128;
          }
          to {
            stroke: black;
            stroke-width: 1024;
          }
        }
        #make-me-a-hanzi-animation-16 {
          animation: keyframes16 0.5681966145833334s both;
          animation-delay: 11.240397135416668s;
          animation-timing-function: linear;
        }
      
        @keyframes keyframes17 {
          from {
            stroke: blue;
            stroke-dashoffset: 343;
            stroke-width: 128;
          }
          53% {
            animation-timing-function: step-end;
            stroke: blue;
            stroke-dashoffset: 0;
            stroke-width: 128;
          }
          to {
            stroke: black;
            stroke-width: 1024;
          }
        }
        #make-me-a-hanzi-animation-17 {
          animation: keyframes17 0.5291341145833334s both;
          animation-delay: 11.808593750000002s;
          animation-timing-function: linear;
        }
      
        @keyframes keyframes18 {
          from {
            stroke: blue;
            stroke-dashoffset: 335;
            stroke-width: 128;
          }
          52% {
            animation-timing-function: step-end;
            stroke: blue;
            stroke-dashoffset: 0;
            stroke-width: 128;
          }
          to {
            stroke: black;
            stroke-width: 1024;
          }
        }
        #make-me-a-hanzi-animation-18 {
          animation: keyframes18 0.5226236979166666s both;
          animation-delay: 12.337727864583336s;
          animation-timing-function: linear;
        }
      
        @keyframes keyframes19 {
          from {
            stroke: blue;
            stroke-dashoffset: 353;
            stroke-width: 128;
          }
          53% {
            animation-timing-function: step-end;
            stroke: blue;
            stroke-dashoffset: 0;
            stroke-width: 128;
          }
          to {
            stroke: black;
            stroke-width: 1024;
          }
        }
        #make-me-a-hanzi-animation-19 {
          animation: keyframes19 0.5372721354166666s both;
          animation-delay: 12.860351562500002s;
          animation-timing-function: linear;
        }
      
    </style>
    
      <path d="M 402 709 Q 495 778 521 786 Q 537 790 533 805 Q 530 818 477 850 Q 462 859 443 852 Q 391 836 310 815 Q 289 809 240 813 Q 221 814 227 797 Q 233 787 248 777 Q 273 762 301 777 Q 424 825 442 813 Q 452 806 447 796 Q 420 762 391 721 C 374 697 378 691 402 709 Z" fill="lightgray"></path>
    
      <path d="M 391 721 Q 379 733 341 743 Q 334 744 333 736 Q 330 726 381 674 C 402 653 408 652 409 682 Q 410 692 404 707 L 402 709 L 391 721 Z" fill="lightgray"></path>
    
      <path d="M 381 674 Q 198 641 167 636 Q 146 635 162 616 Q 175 600 211 611 Q 248 621 286 628 L 350 642 Q 384 649 418 655 Q 443 659 446 649 Q 446 639 428 603 Q 422 593 427 589 Q 433 586 443 595 Q 498 629 520 636 Q 536 637 536 648 Q 536 658 479 688 Q 461 697 409 682 L 381 674 Z" fill="lightgray"></path>
    
      <path d="M 331 624 Q 344 593 342 550 Q 341 534 337 530 Q 336 529 284 523 Q 277 523 273 520 Q 270 519 282 512 Q 319 490 340 468 Q 353 458 364 466 Q 377 476 382 513 Q 391 574 368 623 Q 361 633 350 642 C 327 662 320 652 331 624 Z" fill="lightgray"></path>
    
      <path d="M 286 628 Q 232 541 101 461 Q 88 452 99 450 Q 162 443 270 548 Q 300 585 331 624 C 354 653 336 705 286 628 Z" fill="lightgray"></path>
    
      <path d="M 629 742 Q 689 829 691 834 Q 690 836 690 837 Q 686 847 664 864 Q 643 877 629 877 Q 616 876 622 859 Q 629 846 625 833 Q 601 763 541 676 Q 534 669 531 663 Q 530 654 540 657 Q 564 661 610 719 Q 613 723 615 726 L 629 742 Z" fill="lightgray"></path>
    
      <path d="M 615 726 Q 651 705 699 717 Q 705 720 715 720 L 744 727 Q 784 737 828 745 Q 859 752 863 757 Q 870 764 867 771 Q 860 780 837 786 Q 813 790 789 780 Q 755 767 717 758 Q 677 748 629 742 C 599 738 593 737 615 726 Z" fill="lightgray"></path>
    
      <path d="M 715 720 Q 718 692 690 635 L 671 607 Q 620 547 538 525 Q 535 525 532 523 Q 520 519 529 514 Q 563 499 625 524 Q 658 536 703 580 L 726 610 Q 735 638 764 667 Q 776 688 776 691 Q 775 694 773 695 Q 757 719 744 727 C 720 745 715 750 715 720 Z" fill="lightgray"></path>
    
      <path d="M 690 635 Q 665 654 636 673 Q 611 692 604 687 Q 601 686 603 672 Q 603 662 671 607 L 703 580 Q 751 540 791 500 Q 813 478 831 482 Q 877 488 932 495 Q 957 496 954 505 Q 951 514 876 537 Q 803 558 726 610 L 690 635 Z" fill="lightgray"></path>
    
      <path d="M 424 442 Q 476 496 506 519 Q 519 526 515 534 Q 508 546 490 557 Q 472 569 454 567 Q 442 566 446 550 Q 452 534 399 436 C 385 410 403 420 424 442 Z" fill="lightgray"></path>
    
      <path d="M 374 248 Q 374 267 376 286 C 379 316 374 282 377 312 Q 377 313 378 313 Q 378 329 379 344 L 381 368 Q 384 386 391 405 C 396 419 396 419 381 432 Q 371 442 353 450 Q 337 456 330 448 Q 324 444 331 434 Q 338 418 339 318 Q 332 201 325 176 Q 318 157 332 143 Q 350 127 368 137 C 374 139 374 172 374 202 L 374 234 L 374 248 Z" fill="lightgray"></path>
    
      <path d="M 585 322 Q 597 301 609 295 Q 616 288 631 304 Q 640 316 666 383 Q 673 408 694 428 Q 704 438 696 449 Q 683 464 650 486 Q 637 493 562 474 Q 534 474 428 444 Q 425 444 424 442 L 399 436 Q 389 435 381 432 C 352 425 363 395 391 405 Q 461 430 583 454 Q 608 458 621 450 Q 628 444 625 434 Q 606 356 593 347 C 580 329 580 329 585 322 Z" fill="lightgray"></path>
    
      <path d="M 379 344 Q 397 350 534 377 Q 552 381 545 390 Q 536 400 517 404 Q 490 407 381 368 C 353 358 350 336 379 344 Z" fill="lightgray"></path>
    
      <path d="M 376 286 Q 383 285 394 287 Q 454 305 585 322 C 615 326 619 333 593 347 Q 571 363 498 339 Q 432 323 377 312 C 348 306 346 287 376 286 Z" fill="lightgray"></path>
    
      <path d="M 374 234 Q 395 219 457 229 Q 503 238 553 247 Q 578 253 583 256 Q 589 262 586 268 Q 582 275 561 281 Q 551 284 458 261 Q 422 254 381 250 Q 375 250 374 248 C 358 243 358 243 374 234 Z" fill="lightgray"></path>
    
      <path d="M 368 137 Q 455 186 711 187 Q 730 188 741 180 Q 753 170 743 130 Q 725 28 699 -2 Q 687 -9 621 12 Q 608 18 606 11 Q 606 7 613 -2 Q 653 -53 664 -85 Q 671 -104 688 -97 Q 742 -73 757 -27 Q 776 34 792 101 Q 799 135 818 165 Q 831 180 820 192 Q 804 211 770 232 Q 751 244 724 233 Q 669 214 620 212 Q 550 209 405 191 Q 380 179 374 202 C 351 221 341 124 368 137 Z" fill="lightgray"></path>
    
      <path d="M 242 131 Q 226 91 202 53 Q 186 26 202 -5 Q 209 -21 227 -9 Q 269 24 266 81 Q 270 109 263 132 Q 259 139 253 140 Q 246 139 242 131 Z" fill="lightgray"></path>
    
      <path d="M 354 91 Q 363 43 382 20 Q 389 13 401 18 Q 408 24 413 36 Q 417 52 410 68 Q 404 81 369 117 Q 363 121 359 121 Q 355 122 352 113 Q 349 106 354 91 Z" fill="lightgray"></path>
    
      <path d="M 460 107 Q 472 62 489 46 Q 499 40 509 46 Q 516 53 519 65 Q 522 83 514 96 Q 505 109 491 120 Q 469 138 463 137 Q 459 138 456 129 Q 455 122 460 107 Z" fill="lightgray"></path>
    
      <path d="M 591 102 Q 604 86 618 67 Q 628 55 642 54 Q 652 54 657 65 Q 663 77 657 104 Q 653 123 591 144 Q 578 148 572 147 Q 568 144 568 132 Q 569 122 591 102 Z" fill="lightgray"></path>
    
    
      <clipPath id="make-me-a-hanzi-clip-0">
        <path d="M 402 709 Q 495 778 521 786 Q 537 790 533 805 Q 530 818 477 850 Q 462 859 443 852 Q 391 836 310 815 Q 289 809 240 813 Q 221 814 227 797 Q 233 787 248 777 Q 273 762 301 777 Q 424 825 442 813 Q 452 806 447 796 Q 420 762 391 721 C 374 697 378 691 402 709 Z"></path>
      </clipPath>
      <path clip-path="url(#make-me-a-hanzi-clip-0)" d="M 236 803 L 278 790 L 429 832 L 462 829 L 483 806 L 466 781 L 414 735 L 408 723 L 401 724" fill="none" id="make-me-a-hanzi-animation-0" stroke-dasharray="513 1026" stroke-linecap="round"></path>
    
      <clipPath id="make-me-a-hanzi-clip-1">
        <path d="M 391 721 Q 379 733 341 743 Q 334 744 333 736 Q 330 726 381 674 C 402 653 408 652 409 682 Q 410 692 404 707 L 402 709 L 391 721 Z"></path>
      </clipPath>
      <path clip-path="url(#make-me-a-hanzi-clip-1)" d="M 341 734 L 400 687" fill="none" id="make-me-a-hanzi-animation-1" stroke-dasharray="203 406" stroke-linecap="round"></path>
    
      <clipPath id="make-me-a-hanzi-clip-2">
        <path d="M 381 674 Q 198 641 167 636 Q 146 635 162 616 Q 175 600 211 611 Q 248 621 286 628 L 350 642 Q 384 649 418 655 Q 443 659 446 649 Q 446 639 428 603 Q 422 593 427 589 Q 433 586 443 595 Q 498 629 520 636 Q 536 637 536 648 Q 536 658 479 688 Q 461 697 409 682 L 381 674 Z"></path>
      </clipPath>
      <path clip-path="url(#make-me-a-hanzi-clip-2)" d="M 165 626 L 199 624 L 422 671 L 463 667 L 478 652 L 431 596" fill="none" id="make-me-a-hanzi-animation-2" stroke-dasharray="525 1050" stroke-linecap="round"></path>
    
      <clipPath id="make-me-a-hanzi-clip-3">
        <path d="M 331 624 Q 344 593 342 550 Q 341 534 337 530 Q 336 529 284 523 Q 277 523 273 520 Q 270 519 282 512 Q 319 490 340 468 Q 353 458 364 466 Q 377 476 382 513 Q 391 574 368 623 Q 361 633 350 642 C 327 662 320 652 331 624 Z"></path>
      </clipPath>
      <path clip-path="url(#make-me-a-hanzi-clip-3)" d="M 350 632 L 364 554 L 355 509 L 349 502 L 279 518" fill="none" id="make-me-a-hanzi-animation-3" stroke-dasharray="334 668" stroke-linecap="round"></path>
    
      <clipPath id="make-me-a-hanzi-clip-4">
        <path d="M 286 628 Q 232 541 101 461 Q 88 452 99 450 Q 162 443 270 548 Q 300 585 331 624 C 354 653 336 705 286 628 Z"></path>
      </clipPath>
      <path clip-path="url(#make-me-a-hanzi-clip-4)" d="M 344 639 L 297 612 L 251 552 L 191 502 L 143 471 L 104 455" fill="none" id="make-me-a-hanzi-animation-4" stroke-dasharray="435 870" stroke-linecap="round"></path>
    
      <clipPath id="make-me-a-hanzi-clip-5">
        <path d="M 629 742 Q 689 829 691 834 Q 690 836 690 837 Q 686 847 664 864 Q 643 877 629 877 Q 616 876 622 859 Q 629 846 625 833 Q 601 763 541 676 Q 534 669 531 663 Q 530 654 540 657 Q 564 661 610 719 Q 613 723 615 726 L 629 742 Z"></path>
      </clipPath>
      <path clip-path="url(#make-me-a-hanzi-clip-5)" d="M 630 866 L 648 850 L 655 833 L 652 823 L 591 720 L 538 663" fill="none" id="make-me-a-hanzi-animation-5" stroke-dasharray="378 756" stroke-linecap="round"></path>
    
      <clipPath id="make-me-a-hanzi-clip-6">
        <path d="M 615 726 Q 651 705 699 717 Q 705 720 715 720 L 744 727 Q 784 737 828 745 Q 859 752 863 757 Q 870 764 867 771 Q 860 780 837 786 Q 813 790 789 780 Q 755 767 717 758 Q 677 748 629 742 C 599 738 593 737 615 726 Z"></path>
      </clipPath>
      <path clip-path="url(#make-me-a-hanzi-clip-6)" d="M 623 726 L 709 737 L 811 764 L 857 766" fill="none" id="make-me-a-hanzi-animation-6" stroke-dasharray="366 732" stroke-linecap="round"></path>
    
      <clipPath id="make-me-a-hanzi-clip-7">
        <path d="M 715 720 Q 718 692 690 635 L 671 607 Q 620 547 538 525 Q 535 525 532 523 Q 520 519 529 514 Q 563 499 625 524 Q 658 536 703 580 L 726 610 Q 735 638 764 667 Q 776 688 776 691 Q 775 694 773 695 Q 757 719 744 727 C 720 745 715 750 715 720 Z"></path>
      </clipPath>
      <path clip-path="url(#make-me-a-hanzi-clip-7)" d="M 724 715 L 739 698 L 740 684 L 709 623 L 681 588 L 650 559 L 611 535 L 536 517" fill="none" id="make-me-a-hanzi-animation-7" stroke-dasharray="443 886" stroke-linecap="round"></path>
    
      <clipPath id="make-me-a-hanzi-clip-8">
        <path d="M 690 635 Q 665 654 636 673 Q 611 692 604 687 Q 601 686 603 672 Q 603 662 671 607 L 703 580 Q 751 540 791 500 Q 813 478 831 482 Q 877 488 932 495 Q 957 496 954 505 Q 951 514 876 537 Q 803 558 726 610 L 690 635 Z"></path>
      </clipPath>
      <path clip-path="url(#make-me-a-hanzi-clip-8)" d="M 608 679 L 669 626 L 820 520 L 949 503" fill="none" id="make-me-a-hanzi-animation-8" stroke-dasharray="523 1046" stroke-linecap="round"></path>
    
      <clipPath id="make-me-a-hanzi-clip-9">
        <path d="M 424 442 Q 476 496 506 519 Q 519 526 515 534 Q 508 546 490 557 Q 472 569 454 567 Q 442 566 446 550 Q 452 534 399 436 C 385 410 403 420 424 442 Z"></path>
      </clipPath>
      <path clip-path="url(#make-me-a-hanzi-clip-9)" d="M 455 556 L 475 531 L 416 449" fill="none" id="make-me-a-hanzi-animation-9" stroke-dasharray="261 522" stroke-linecap="round"></path>
    
      <clipPath id="make-me-a-hanzi-clip-10">
        <path d="M 374 248 Q 374 267 376 286 C 379 316 374 282 377 312 Q 377 313 378 313 Q 378 329 379 344 L 381 368 Q 384 386 391 405 C 396 419 396 419 381 432 Q 371 442 353 450 Q 337 456 330 448 Q 324 444 331 434 Q 338 418 339 318 Q 332 201 325 176 Q 318 157 332 143 Q 350 127 368 137 C 374 139 374 172 374 202 L 374 234 L 374 248 Z"></path>
      </clipPath>
      <path clip-path="url(#make-me-a-hanzi-clip-10)" d="M 339 442 L 357 423 L 363 405 L 347 166 L 359 144" fill="none" id="make-me-a-hanzi-animation-10" stroke-dasharray="438 876" stroke-linecap="round"></path>
    
      <clipPath id="make-me-a-hanzi-clip-11">
        <path d="M 585 322 Q 597 301 609 295 Q 616 288 631 304 Q 640 316 666 383 Q 673 408 694 428 Q 704 438 696 449 Q 683 464 650 486 Q 637 493 562 474 Q 534 474 428 444 Q 425 444 424 442 L 399 436 Q 389 435 381 432 C 352 425 363 395 391 405 Q 461 430 583 454 Q 608 458 621 450 Q 628 444 625 434 Q 606 356 593 347 C 580 329 580 329 585 322 Z"></path>
      </clipPath>
      <path clip-path="url(#make-me-a-hanzi-clip-11)" d="M 387 427 L 404 423 L 464 443 L 572 463 L 576 468 L 616 470 L 641 464 L 658 437 L 614 326 L 616 310" fill="none" id="make-me-a-hanzi-animation-11" stroke-dasharray="558 1116" stroke-linecap="round"></path>
    
      <clipPath id="make-me-a-hanzi-clip-12">
        <path d="M 379 344 Q 397 350 534 377 Q 552 381 545 390 Q 536 400 517 404 Q 490 407 381 368 C 353 358 350 336 379 344 Z"></path>
      </clipPath>
      <path clip-path="url(#make-me-a-hanzi-clip-12)" d="M 380 350 L 396 364 L 439 374 L 507 388 L 537 385" fill="none" id="make-me-a-hanzi-animation-12" stroke-dasharray="293 586" stroke-linecap="round"></path>
    
      <clipPath id="make-me-a-hanzi-clip-13">
        <path d="M 376 286 Q 383 285 394 287 Q 454 305 585 322 C 615 326 619 333 593 347 Q 571 363 498 339 Q 432 323 377 312 C 348 306 346 287 376 286 Z"></path>
      </clipPath>
      <path clip-path="url(#make-me-a-hanzi-clip-13)" d="M 380 292 L 401 304 L 572 336 L 585 343" fill="none" id="make-me-a-hanzi-animation-13" stroke-dasharray="341 682" stroke-linecap="round"></path>
    
      <clipPath id="make-me-a-hanzi-clip-14">
        <path d="M 374 234 Q 395 219 457 229 Q 503 238 553 247 Q 578 253 583 256 Q 589 262 586 268 Q 582 275 561 281 Q 551 284 458 261 Q 422 254 381 250 Q 375 250 374 248 C 358 243 358 243 374 234 Z"></path>
      </clipPath>
      <path clip-path="url(#make-me-a-hanzi-clip-14)" d="M 380 241 L 445 241 L 497 255 L 576 264" fill="none" id="make-me-a-hanzi-animation-14" stroke-dasharray="326 652" stroke-linecap="round"></path>
    
      <clipPath id="make-me-a-hanzi-clip-15">
        <path d="M 368 137 Q 455 186 711 187 Q 730 188 741 180 Q 753 170 743 130 Q 725 28 699 -2 Q 687 -9 621 12 Q 608 18 606 11 Q 606 7 613 -2 Q 653 -53 664 -85 Q 671 -104 688 -97 Q 742 -73 757 -27 Q 776 34 792 101 Q 799 135 818 165 Q 831 180 820 192 Q 804 211 770 232 Q 751 244 724 233 Q 669 214 620 212 Q 550 209 405 191 Q 380 179 374 202 C 351 221 341 124 368 137 Z"></path>
      </clipPath>
      <path clip-path="url(#make-me-a-hanzi-clip-15)" d="M 370 143 L 389 168 L 474 186 L 677 201 L 740 211 L 761 203 L 778 185 L 780 161 L 746 29 L 720 -29 L 693 -46 L 614 7" fill="none" id="make-me-a-hanzi-animation-15" stroke-dasharray="912 1824" stroke-linecap="round"></path>
    
      <clipPath id="make-me-a-hanzi-clip-16">
        <path d="M 242 131 Q 226 91 202 53 Q 186 26 202 -5 Q 209 -21 227 -9 Q 269 24 266 81 Q 270 109 263 132 Q 259 139 253 140 Q 246 139 242 131 Z"></path>
      </clipPath>
      <path clip-path="url(#make-me-a-hanzi-clip-16)" d="M 253 129 L 242 73 L 216 0" fill="none" id="make-me-a-hanzi-animation-16" stroke-dasharray="263 526" stroke-linecap="round"></path>
    
      <clipPath id="make-me-a-hanzi-clip-17">
        <path d="M 354 91 Q 363 43 382 20 Q 389 13 401 18 Q 408 24 413 36 Q 417 52 410 68 Q 404 81 369 117 Q 363 121 359 121 Q 355 122 352 113 Q 349 106 354 91 Z"></path>
      </clipPath>
      <path clip-path="url(#make-me-a-hanzi-clip-17)" d="M 361 112 L 391 50 L 393 32" fill="none" id="make-me-a-hanzi-animation-17" stroke-dasharray="215 430" stroke-linecap="round"></path>
    
      <clipPath id="make-me-a-hanzi-clip-18">
        <path d="M 460 107 Q 472 62 489 46 Q 499 40 509 46 Q 516 53 519 65 Q 522 83 514 96 Q 505 109 491 120 Q 469 138 463 137 Q 459 138 456 129 Q 455 122 460 107 Z"></path>
      </clipPath>
      <path clip-path="url(#make-me-a-hanzi-clip-18)" d="M 464 129 L 492 86 L 500 59" fill="none" id="make-me-a-hanzi-animation-18" stroke-dasharray="207 414" stroke-linecap="round"></path>
    
      <clipPath id="make-me-a-hanzi-clip-19">
        <path d="M 591 102 Q 604 86 618 67 Q 628 55 642 54 Q 652 54 657 65 Q 663 77 657 104 Q 653 123 591 144 Q 578 148 572 147 Q 568 144 568 132 Q 569 122 591 102 Z"></path>
      </clipPath>
      <path clip-path="url(#make-me-a-hanzi-clip-19)" d="M 576 138 L 631 96 L 642 70" fill="none" id="make-me-a-hanzi-animation-19" stroke-dasharray="225 450" stroke-linecap="round"></path>
    
  </g>
</svg>