<svg version="1.1" viewBox="0 0 1024 1024" xmlns="http://www.w3.org/2000/svg">
  <g stroke="lightgray" stroke-dasharray="1,1" stroke-width="1" transform="scale(4, 4)">
    <line x1="0" y1="0" x2="256" y2="256"></line>
    <line x1="256" y1="0" x2="0" y2="256"></line>
    <line x1="128" y1="0" x2="128" y2="256"></line>
    <line x1="0" y1="128" x2="256" y2="128"></line>
  </g>
  <g transform="scale(1, -1) translate(0, -900)">
    <style type="text/css">
      
        @keyframes keyframes0 {
          from {
            stroke: blue;
            stroke-dashoffset: 559;
            stroke-width: 128;
          }
          65% {
            animation-timing-function: step-end;
            stroke: blue;
            stroke-dashoffset: 0;
            stroke-width: 128;
          }
          to {
            stroke: black;
            stroke-width: 1024;
          }
        }
        #make-me-a-hanzi-animation-0 {
          animation: keyframes0 0.7049153645833334s both;
          animation-delay: 0s;
          animation-timing-function: linear;
        }
      
        @keyframes keyframes1 {
          from {
            stroke: blue;
            stroke-dashoffset: 799;
            stroke-width: 128;
          }
          72% {
            animation-timing-function: step-end;
            stroke: blue;
            stroke-dashoffset: 0;
            stroke-width: 128;
          }
          to {
            stroke: black;
            stroke-width: 1024;
          }
        }
        #make-me-a-hanzi-animation-1 {
          animation: keyframes1 0.9002278645833334s both;
          animation-delay: 0.7049153645833334s;
          animation-timing-function: linear;
        }
      
        @keyframes keyframes2 {
          from {
            stroke: blue;
            stroke-dashoffset: 435;
            stroke-width: 128;
          }
          59% {
            animation-timing-function: step-end;
            stroke: blue;
            stroke-dashoffset: 0;
            stroke-width: 128;
          }
          to {
            stroke: black;
            stroke-width: 1024;
          }
        }
        #make-me-a-hanzi-animation-2 {
          animation: keyframes2 0.60400390625s both;
          animation-delay: 1.6051432291666667s;
          animation-timing-function: linear;
        }
      
        @keyframes keyframes3 {
          from {
            stroke: blue;
            stroke-dashoffset: 337;
            stroke-width: 128;
          }
          52% {
            animation-timing-function: step-end;
            stroke: blue;
            stroke-dashoffset: 0;
            stroke-width: 128;
          }
          to {
            stroke: black;
            stroke-width: 1024;
          }
        }
        #make-me-a-hanzi-animation-3 {
          animation: keyframes3 0.5242513020833334s both;
          animation-delay: 2.209147135416667s;
          animation-timing-function: linear;
        }
      
        @keyframes keyframes4 {
          from {
            stroke: blue;
            stroke-dashoffset: 323;
            stroke-width: 128;
          }
          51% {
            animation-timing-function: step-end;
            stroke: blue;
            stroke-dashoffset: 0;
            stroke-width: 128;
          }
          to {
            stroke: black;
            stroke-width: 1024;
          }
        }
        #make-me-a-hanzi-animation-4 {
          animation: keyframes4 0.5128580729166666s both;
          animation-delay: 2.7333984375000004s;
          animation-timing-function: linear;
        }
      
        @keyframes keyframes5 {
          from {
            stroke: blue;
            stroke-dashoffset: 430;
            stroke-width: 128;
          }
          58% {
            animation-timing-function: step-end;
            stroke: blue;
            stroke-dashoffset: 0;
            stroke-width: 128;
          }
          to {
            stroke: black;
            stroke-width: 1024;
          }
        }
        #make-me-a-hanzi-animation-5 {
          animation: keyframes5 0.5999348958333334s both;
          animation-delay: 3.246256510416667s;
          animation-timing-function: linear;
        }
      
        @keyframes keyframes6 {
          from {
            stroke: blue;
            stroke-dashoffset: 637;
            stroke-width: 128;
          }
          67% {
            animation-timing-function: step-end;
            stroke: blue;
            stroke-dashoffset: 0;
            stroke-width: 128;
          }
          to {
            stroke: black;
            stroke-width: 1024;
          }
        }
        #make-me-a-hanzi-animation-6 {
          animation: keyframes6 0.7683919270833334s both;
          animation-delay: 3.8461914062500004s;
          animation-timing-function: linear;
        }
      
        @keyframes keyframes7 {
          from {
            stroke: blue;
            stroke-dashoffset: 377;
            stroke-width: 128;
          }
          55% {
            animation-timing-function: step-end;
            stroke: blue;
            stroke-dashoffset: 0;
            stroke-width: 128;
          }
          to {
            stroke: black;
            stroke-width: 1024;
          }
        }
        #make-me-a-hanzi-animation-7 {
          animation: keyframes7 0.5568033854166666s both;
          animation-delay: 4.614583333333334s;
          animation-timing-function: linear;
        }
      
        @keyframes keyframes8 {
          from {
            stroke: blue;
            stroke-dashoffset: 378;
            stroke-width: 128;
          }
          55% {
            animation-timing-function: step-end;
            stroke: blue;
            stroke-dashoffset: 0;
            stroke-width: 128;
          }
          to {
            stroke: black;
            stroke-width: 1024;
          }
        }
        #make-me-a-hanzi-animation-8 {
          animation: keyframes8 0.5576171875s both;
          animation-delay: 5.171386718750001s;
          animation-timing-function: linear;
        }
      
        @keyframes keyframes9 {
          from {
            stroke: blue;
            stroke-dashoffset: 586;
            stroke-width: 128;
          }
          66% {
            animation-timing-function: step-end;
            stroke: blue;
            stroke-dashoffset: 0;
            stroke-width: 128;
          }
          to {
            stroke: black;
            stroke-width: 1024;
          }
        }
        #make-me-a-hanzi-animation-9 {
          animation: keyframes9 0.7268880208333334s both;
          animation-delay: 5.729003906250001s;
          animation-timing-function: linear;
        }
      
        @keyframes keyframes10 {
          from {
            stroke: blue;
            stroke-dashoffset: 393;
            stroke-width: 128;
          }
          56% {
            animation-timing-function: step-end;
            stroke: blue;
            stroke-dashoffset: 0;
            stroke-width: 128;
          }
          to {
            stroke: black;
            stroke-width: 1024;
          }
        }
        #make-me-a-hanzi-animation-10 {
          animation: keyframes10 0.56982421875s both;
          animation-delay: 6.455891927083334s;
          animation-timing-function: linear;
        }
      
        @keyframes keyframes11 {
          from {
            stroke: blue;
            stroke-dashoffset: 363;
            stroke-width: 128;
          }
          54% {
            animation-timing-function: step-end;
            stroke: blue;
            stroke-dashoffset: 0;
            stroke-width: 128;
          }
          to {
            stroke: black;
            stroke-width: 1024;
          }
        }
        #make-me-a-hanzi-animation-11 {
          animation: keyframes11 0.54541015625s both;
          animation-delay: 7.025716145833334s;
          animation-timing-function: linear;
        }
      
        @keyframes keyframes12 {
          from {
            stroke: blue;
            stroke-dashoffset: 441;
            stroke-width: 128;
          }
          59% {
            animation-timing-function: step-end;
            stroke: blue;
            stroke-dashoffset: 0;
            stroke-width: 128;
          }
          to {
            stroke: black;
            stroke-width: 1024;
          }
        }
        #make-me-a-hanzi-animation-12 {
          animation: keyframes12 0.60888671875s both;
          animation-delay: 7.571126302083334s;
          animation-timing-function: linear;
        }
      
        @keyframes keyframes13 {
          from {
            stroke: blue;
            stroke-dashoffset: 722;
            stroke-width: 128;
          }
          70% {
            animation-timing-function: step-end;
            stroke: blue;
            stroke-dashoffset: 0;
            stroke-width: 128;
          }
          to {
            stroke: black;
            stroke-width: 1024;
          }
        }
        #make-me-a-hanzi-animation-13 {
          animation: keyframes13 0.8375651041666666s both;
          animation-delay: 8.180013020833334s;
          animation-timing-function: linear;
        }
      
        @keyframes keyframes14 {
          from {
            stroke: blue;
            stroke-dashoffset: 326;
            stroke-width: 128;
          }
          51% {
            animation-timing-function: step-end;
            stroke: blue;
            stroke-dashoffset: 0;
            stroke-width: 128;
          }
          to {
            stroke: black;
            stroke-width: 1024;
          }
        }
        #make-me-a-hanzi-animation-14 {
          animation: keyframes14 0.5152994791666666s both;
          animation-delay: 9.017578125s;
          animation-timing-function: linear;
        }
      
        @keyframes keyframes15 {
          from {
            stroke: blue;
            stroke-dashoffset: 1350;
            stroke-width: 128;
          }
          81% {
            animation-timing-function: step-end;
            stroke: blue;
            stroke-dashoffset: 0;
            stroke-width: 128;
          }
          to {
            stroke: black;
            stroke-width: 1024;
          }
        }
        #make-me-a-hanzi-animation-15 {
          animation: keyframes15 1.3486328125s both;
          animation-delay: 9.532877604166666s;
          animation-timing-function: linear;
        }
      
        @keyframes keyframes16 {
          from {
            stroke: blue;
            stroke-dashoffset: 611;
            stroke-width: 128;
          }
          67% {
            animation-timing-function: step-end;
            stroke: blue;
            stroke-dashoffset: 0;
            stroke-width: 128;
          }
          to {
            stroke: black;
            stroke-width: 1024;
          }
        }
        #make-me-a-hanzi-animation-16 {
          animation: keyframes16 0.7472330729166666s both;
          animation-delay: 10.881510416666666s;
          animation-timing-function: linear;
        }
      
    </style>
    
      <path d="M 313 630 Q 368 645 430 658 Q 470 668 476 674 Q 483 681 479 689 Q 472 699 445 706 Q 417 710 332 677 L 283 664 Q 234 654 179 646 Q 146 640 170 625 Q 212 604 260 618 Q 261 619 265 619 L 313 630 Z" fill="lightgray"></path>
    
      <path d="M 210 447 Q 273 529 313 630 L 332 677 Q 354 729 369 747 Q 379 757 375 766 Q 366 790 324 803 Q 312 809 298 803 Q 289 796 296 787 Q 308 772 309 756 Q 310 737 283 664 L 265 619 Q 240 559 210 512 L 189 481 Q 152 430 78 358 Q 68 346 77 344 Q 81 343 92 349 Q 137 373 188 423 L 210 447 Z" fill="lightgray"></path>
    
      <path d="M 415 573 Q 375 594 352 603 Q 348 606 346 598 Q 346 591 353 584 Q 405 544 467 482 Q 477 470 487 468 Q 491 467 496 474 Q 503 483 494 509 Q 485 536 434 563 L 415 573 Z" fill="lightgray"></path>
    
      <path d="M 210 512 Q 209 513 209 515 Q 202 530 183 538 Q 155 554 141 558 Q 134 559 133 552 Q 130 543 174 493 Q 181 486 189 481 C 214 465 220 484 210 512 Z" fill="lightgray"></path>
    
      <path d="M 434 563 Q 465 581 482 588 Q 494 591 491 598 Q 487 608 474 621 Q 461 634 447 635 Q 437 635 437 622 Q 437 610 415 573 C 400 547 408 548 434 563 Z" fill="lightgray"></path>
    
      <path d="M 228 442 Q 224 446 210 447 C 180 450 177 451 188 423 Q 207 377 220 305 Q 221 280 236 265 Q 249 249 253 260 Q 254 267 255 275 L 255 299 Q 254 306 253 313 Q 249 331 246 345 L 243 364 Q 237 397 235 413 C 231 440 231 440 228 442 Z" fill="lightgray"></path>
    
      <path d="M 374 290 Q 386 272 397 267 Q 406 261 417 277 Q 427 293 450 382 Q 457 406 475 426 Q 485 436 476 447 Q 463 460 430 480 Q 415 486 363 473 Q 345 473 228 442 C 199 434 208 400 235 413 Q 242 422 376 444 Q 395 448 402 441 Q 411 431 409 421 Q 393 328 382 317 C 370 295 370 295 374 290 Z" fill="lightgray"></path>
    
      <path d="M 246 345 Q 250 345 255 345 Q 316 358 362 365 Q 380 369 373 378 Q 364 388 345 392 Q 312 395 243 364 C 216 352 216 345 246 345 Z" fill="lightgray"></path>
    
      <path d="M 326 284 Q 350 288 374 290 C 404 293 408 303 382 317 Q 376 321 367 322 Q 345 325 255 299 C 226 291 225 274 255 275 Q 256 275 259 275 Q 275 278 295 280 L 326 284 Z" fill="lightgray"></path>
    
      <path d="M 295 280 Q 295 277 297 273 Q 307 243 306 150 Q 305 104 299 93 Q 296 83 276 85 Q 251 92 226 97 Q 216 98 215 93 Q 214 87 222 79 Q 277 33 296 6 Q 309 -6 318 -4 Q 328 0 338 28 Q 350 52 351 171 L 351 190 Q 351 257 350 260 Q 344 270 326 284 C 303 303 287 309 295 280 Z" fill="lightgray"></path>
    
      <path d="M 186 213 Q 164 173 137 138 Q 118 111 131 80 Q 137 64 155 74 Q 200 104 205 161 Q 211 189 206 212 Q 202 219 197 221 Q 190 220 186 213 Z" fill="lightgray"></path>
    
      <path d="M 351 171 Q 355 167 367 158 Q 394 139 423 114 Q 433 105 443 107 Q 450 107 454 116 Q 455 126 449 147 Q 445 163 418 175 Q 364 194 351 190 C 333 187 333 187 351 171 Z" fill="lightgray"></path>
    
      <path d="M 600 635 Q 630 666 649 687 Q 703 751 713 758 Q 729 771 716 785 Q 700 797 674 804 Q 650 811 640 805 Q 630 801 635 790 Q 644 766 581 638 C 568 611 579 613 600 635 Z" fill="lightgray"></path>
    
      <path d="M 607 599 Q 644 614 740 636 Q 749 637 754 634 Q 764 630 766 613 Q 766 571 753 498 Q 752 479 734 481 Q 715 484 701 486 Q 688 490 691 482 Q 692 475 712 456 Q 734 431 745 407 Q 752 398 761 402 Q 768 405 780 426 Q 798 456 805 525 Q 808 612 823 627 Q 832 636 827 645 Q 820 655 786 674 Q 771 681 600 635 C 571 627 545 576 607 599 Z" fill="lightgray"></path>
    
      <path d="M 621 548 Q 663 499 679 498 Q 688 497 692 510 Q 693 519 687 533 Q 680 545 663 552 Q 636 565 624 567 Q 618 568 617 560 Q 616 554 621 548 Z" fill="lightgray"></path>
    
      <path d="M 581 638 Q 572 644 563 647 Q 545 653 537 644 Q 531 640 539 628 Q 554 598 552 536 Q 551 487 550 424 Q 550 363 538 313 Q 532 294 547 279 Q 566 263 584 275 Q 603 288 642 297 Q 723 318 808 324 Q 839 325 851 314 Q 861 304 834 150 Q 828 107 808 79 Q 799 69 778 72 Q 747 82 718 89 Q 702 93 703 87 Q 702 81 711 73 Q 763 21 780 -14 Q 789 -35 807 -25 Q 870 8 878 67 Q 894 146 905 234 Q 912 271 931 301 Q 944 317 932 330 Q 914 349 878 370 Q 857 382 830 370 Q 794 354 761 351 Q 715 345 617 326 Q 592 322 592 342 Q 588 540 606 594 Q 606 597 607 599 C 613 627 609 628 581 638 Z" fill="lightgray"></path>
    
      <path d="M 651 174 Q 672 175 692 178 Q 740 184 800 180 Q 819 179 824 187 Q 830 199 819 208 Q 758 256 701 232 Q 685 229 669 226 Q 624 219 601 215 Q 489 197 465 196 Q 455 195 453 185 Q 454 175 470 164 Q 485 155 511 147 Q 521 146 535 152 Q 568 165 651 174 Z" fill="lightgray"></path>
    
    
      <clipPath id="make-me-a-hanzi-clip-0">
        <path d="M 313 630 Q 368 645 430 658 Q 470 668 476 674 Q 483 681 479 689 Q 472 699 445 706 Q 417 710 332 677 L 283 664 Q 234 654 179 646 Q 146 640 170 625 Q 212 604 260 618 Q 261 619 265 619 L 313 630 Z"></path>
      </clipPath>
      <path clip-path="url(#make-me-a-hanzi-clip-0)" d="M 172 637 L 196 631 L 248 636 L 426 682 L 468 683" fill="none" id="make-me-a-hanzi-animation-0" stroke-dasharray="431 862" stroke-linecap="round"></path>
    
      <clipPath id="make-me-a-hanzi-clip-1">
        <path d="M 210 447 Q 273 529 313 630 L 332 677 Q 354 729 369 747 Q 379 757 375 766 Q 366 790 324 803 Q 312 809 298 803 Q 289 796 296 787 Q 308 772 309 756 Q 310 737 283 664 L 265 619 Q 240 559 210 512 L 189 481 Q 152 430 78 358 Q 68 346 77 344 Q 81 343 92 349 Q 137 373 188 423 L 210 447 Z"></path>
      </clipPath>
      <path clip-path="url(#make-me-a-hanzi-clip-1)" d="M 303 794 L 326 780 L 340 761 L 280 603 L 233 511 L 193 455 L 136 395 L 83 351" fill="none" id="make-me-a-hanzi-animation-1" stroke-dasharray="671 1342" stroke-linecap="round"></path>
    
      <clipPath id="make-me-a-hanzi-clip-2">
        <path d="M 415 573 Q 375 594 352 603 Q 348 606 346 598 Q 346 591 353 584 Q 405 544 467 482 Q 477 470 487 468 Q 491 467 496 474 Q 503 483 494 509 Q 485 536 434 563 L 415 573 Z"></path>
      </clipPath>
      <path clip-path="url(#make-me-a-hanzi-clip-2)" d="M 354 594 L 446 533 L 470 510 L 486 479" fill="none" id="make-me-a-hanzi-animation-2" stroke-dasharray="307 614" stroke-linecap="round"></path>
    
      <clipPath id="make-me-a-hanzi-clip-3">
        <path d="M 210 512 Q 209 513 209 515 Q 202 530 183 538 Q 155 554 141 558 Q 134 559 133 552 Q 130 543 174 493 Q 181 486 189 481 C 214 465 220 484 210 512 Z"></path>
      </clipPath>
      <path clip-path="url(#make-me-a-hanzi-clip-3)" d="M 141 550 L 184 513 L 189 489" fill="none" id="make-me-a-hanzi-animation-3" stroke-dasharray="209 418" stroke-linecap="round"></path>
    
      <clipPath id="make-me-a-hanzi-clip-4">
        <path d="M 434 563 Q 465 581 482 588 Q 494 591 491 598 Q 487 608 474 621 Q 461 634 447 635 Q 437 635 437 622 Q 437 610 415 573 C 400 547 408 548 434 563 Z"></path>
      </clipPath>
      <path clip-path="url(#make-me-a-hanzi-clip-4)" d="M 447 625 L 456 611 L 455 601 L 435 579 L 424 579" fill="none" id="make-me-a-hanzi-animation-4" stroke-dasharray="195 390" stroke-linecap="round"></path>
    
      <clipPath id="make-me-a-hanzi-clip-5">
        <path d="M 228 442 Q 224 446 210 447 C 180 450 177 451 188 423 Q 207 377 220 305 Q 221 280 236 265 Q 249 249 253 260 Q 254 267 255 275 L 255 299 Q 254 306 253 313 Q 249 331 246 345 L 243 364 Q 237 397 235 413 C 231 440 231 440 228 442 Z"></path>
      </clipPath>
      <path clip-path="url(#make-me-a-hanzi-clip-5)" d="M 214 436 L 214 411 L 245 265" fill="none" id="make-me-a-hanzi-animation-5" stroke-dasharray="302 604" stroke-linecap="round"></path>
    
      <clipPath id="make-me-a-hanzi-clip-6">
        <path d="M 374 290 Q 386 272 397 267 Q 406 261 417 277 Q 427 293 450 382 Q 457 406 475 426 Q 485 436 476 447 Q 463 460 430 480 Q 415 486 363 473 Q 345 473 228 442 C 199 434 208 400 235 413 Q 242 422 376 444 Q 395 448 402 441 Q 411 431 409 421 Q 393 328 382 317 C 370 295 370 295 374 290 Z"></path>
      </clipPath>
      <path clip-path="url(#make-me-a-hanzi-clip-6)" d="M 237 423 L 246 434 L 267 440 L 376 461 L 407 461 L 425 454 L 440 435 L 439 426 L 402 304 L 403 281" fill="none" id="make-me-a-hanzi-animation-6" stroke-dasharray="509 1018" stroke-linecap="round"></path>
    
      <clipPath id="make-me-a-hanzi-clip-7">
        <path d="M 246 345 Q 250 345 255 345 Q 316 358 362 365 Q 380 369 373 378 Q 364 388 345 392 Q 312 395 243 364 C 216 352 216 345 246 345 Z"></path>
      </clipPath>
      <path clip-path="url(#make-me-a-hanzi-clip-7)" d="M 251 351 L 258 359 L 320 375 L 349 378 L 365 373" fill="none" id="make-me-a-hanzi-animation-7" stroke-dasharray="249 498" stroke-linecap="round"></path>
    
      <clipPath id="make-me-a-hanzi-clip-8">
        <path d="M 326 284 Q 350 288 374 290 C 404 293 408 303 382 317 Q 376 321 367 322 Q 345 325 255 299 C 226 291 225 274 255 275 Q 256 275 259 275 Q 275 278 295 280 L 326 284 Z"></path>
      </clipPath>
      <path clip-path="url(#make-me-a-hanzi-clip-8)" d="M 257 281 L 269 292 L 354 304 L 372 313" fill="none" id="make-me-a-hanzi-animation-8" stroke-dasharray="250 500" stroke-linecap="round"></path>
    
      <clipPath id="make-me-a-hanzi-clip-9">
        <path d="M 295 280 Q 295 277 297 273 Q 307 243 306 150 Q 305 104 299 93 Q 296 83 276 85 Q 251 92 226 97 Q 216 98 215 93 Q 214 87 222 79 Q 277 33 296 6 Q 309 -6 318 -4 Q 328 0 338 28 Q 350 52 351 171 L 351 190 Q 351 257 350 260 Q 344 270 326 284 C 303 303 287 309 295 280 Z"></path>
      </clipPath>
      <path clip-path="url(#make-me-a-hanzi-clip-9)" d="M 303 279 L 326 251 L 329 135 L 322 78 L 303 52 L 223 88" fill="none" id="make-me-a-hanzi-animation-9" stroke-dasharray="458 916" stroke-linecap="round"></path>
    
      <clipPath id="make-me-a-hanzi-clip-10">
        <path d="M 186 213 Q 164 173 137 138 Q 118 111 131 80 Q 137 64 155 74 Q 200 104 205 161 Q 211 189 206 212 Q 202 219 197 221 Q 190 220 186 213 Z"></path>
      </clipPath>
      <path clip-path="url(#make-me-a-hanzi-clip-10)" d="M 196 211 L 176 145 L 145 84" fill="none" id="make-me-a-hanzi-animation-10" stroke-dasharray="265 530" stroke-linecap="round"></path>
    
      <clipPath id="make-me-a-hanzi-clip-11">
        <path d="M 351 171 Q 355 167 367 158 Q 394 139 423 114 Q 433 105 443 107 Q 450 107 454 116 Q 455 126 449 147 Q 445 163 418 175 Q 364 194 351 190 C 333 187 333 187 351 171 Z"></path>
      </clipPath>
      <path clip-path="url(#make-me-a-hanzi-clip-11)" d="M 355 185 L 415 151 L 440 122" fill="none" id="make-me-a-hanzi-animation-11" stroke-dasharray="235 470" stroke-linecap="round"></path>
    
      <clipPath id="make-me-a-hanzi-clip-12">
        <path d="M 600 635 Q 630 666 649 687 Q 703 751 713 758 Q 729 771 716 785 Q 700 797 674 804 Q 650 811 640 805 Q 630 801 635 790 Q 644 766 581 638 C 568 611 579 613 600 635 Z"></path>
      </clipPath>
      <path clip-path="url(#make-me-a-hanzi-clip-12)" d="M 648 794 L 671 766 L 616 674 L 597 648 L 588 649" fill="none" id="make-me-a-hanzi-animation-12" stroke-dasharray="313 626" stroke-linecap="round"></path>
    
      <clipPath id="make-me-a-hanzi-clip-13">
        <path d="M 607 599 Q 644 614 740 636 Q 749 637 754 634 Q 764 630 766 613 Q 766 571 753 498 Q 752 479 734 481 Q 715 484 701 486 Q 688 490 691 482 Q 692 475 712 456 Q 734 431 745 407 Q 752 398 761 402 Q 768 405 780 426 Q 798 456 805 525 Q 808 612 823 627 Q 832 636 827 645 Q 820 655 786 674 Q 771 681 600 635 C 571 627 545 576 607 599 Z"></path>
      </clipPath>
      <path clip-path="url(#make-me-a-hanzi-clip-13)" d="M 594 630 L 601 623 L 627 624 L 742 653 L 781 647 L 792 635 L 781 518 L 765 461 L 757 452 L 697 481" fill="none" id="make-me-a-hanzi-animation-13" stroke-dasharray="594 1188" stroke-linecap="round"></path>
    
      <clipPath id="make-me-a-hanzi-clip-14">
        <path d="M 621 548 Q 663 499 679 498 Q 688 497 692 510 Q 693 519 687 533 Q 680 545 663 552 Q 636 565 624 567 Q 618 568 617 560 Q 616 554 621 548 Z"></path>
      </clipPath>
      <path clip-path="url(#make-me-a-hanzi-clip-14)" d="M 627 557 L 662 533 L 679 511" fill="none" id="make-me-a-hanzi-animation-14" stroke-dasharray="198 396" stroke-linecap="round"></path>
    
      <clipPath id="make-me-a-hanzi-clip-15">
        <path d="M 581 638 Q 572 644 563 647 Q 545 653 537 644 Q 531 640 539 628 Q 554 598 552 536 Q 551 487 550 424 Q 550 363 538 313 Q 532 294 547 279 Q 566 263 584 275 Q 603 288 642 297 Q 723 318 808 324 Q 839 325 851 314 Q 861 304 834 150 Q 828 107 808 79 Q 799 69 778 72 Q 747 82 718 89 Q 702 93 703 87 Q 702 81 711 73 Q 763 21 780 -14 Q 789 -35 807 -25 Q 870 8 878 67 Q 894 146 905 234 Q 912 271 931 301 Q 944 317 932 330 Q 914 349 878 370 Q 857 382 830 370 Q 794 354 761 351 Q 715 345 617 326 Q 592 322 592 342 Q 588 540 606 594 Q 606 597 607 599 C 613 627 609 628 581 638 Z"></path>
      </clipPath>
      <path clip-path="url(#make-me-a-hanzi-clip-15)" d="M 546 637 L 565 622 L 577 594 L 568 347 L 573 306 L 610 307 L 697 326 L 845 347 L 869 340 L 892 313 L 856 109 L 833 50 L 807 29 L 711 85" fill="none" id="make-me-a-hanzi-animation-15" stroke-dasharray="1222 2444" stroke-linecap="round"></path>
    
      <clipPath id="make-me-a-hanzi-clip-16">
        <path d="M 651 174 Q 672 175 692 178 Q 740 184 800 180 Q 819 179 824 187 Q 830 199 819 208 Q 758 256 701 232 Q 685 229 669 226 Q 624 219 601 215 Q 489 197 465 196 Q 455 195 453 185 Q 454 175 470 164 Q 485 155 511 147 Q 521 146 535 152 Q 568 165 651 174 Z"></path>
      </clipPath>
      <path clip-path="url(#make-me-a-hanzi-clip-16)" d="M 464 184 L 511 174 L 738 211 L 813 195" fill="none" id="make-me-a-hanzi-animation-16" stroke-dasharray="483 966" stroke-linecap="round"></path>
    
  </g>
</svg>