<svg version="1.1" viewBox="0 0 1024 1024" xmlns="http://www.w3.org/2000/svg">
  <g stroke="lightgray" stroke-dasharray="1,1" stroke-width="1" transform="scale(4, 4)">
    <line x1="0" y1="0" x2="256" y2="256"></line>
    <line x1="256" y1="0" x2="0" y2="256"></line>
    <line x1="128" y1="0" x2="128" y2="256"></line>
    <line x1="0" y1="128" x2="256" y2="128"></line>
  </g>
  <g transform="scale(1, -1) translate(0, -900)">
    <style type="text/css">
      
        @keyframes keyframes0 {
          from {
            stroke: blue;
            stroke-dashoffset: 546;
            stroke-width: 128;
          }
          64% {
            animation-timing-function: step-end;
            stroke: blue;
            stroke-dashoffset: 0;
            stroke-width: 128;
          }
          to {
            stroke: black;
            stroke-width: 1024;
          }
        }
        #make-me-a-hanzi-animation-0 {
          animation: keyframes0 0.6943359375s both;
          animation-delay: 0s;
          animation-timing-function: linear;
        }
      
        @keyframes keyframes1 {
          from {
            stroke: blue;
            stroke-dashoffset: 453;
            stroke-width: 128;
          }
          60% {
            animation-timing-function: step-end;
            stroke: blue;
            stroke-dashoffset: 0;
            stroke-width: 128;
          }
          to {
            stroke: black;
            stroke-width: 1024;
          }
        }
        #make-me-a-hanzi-animation-1 {
          animation: keyframes1 0.61865234375s both;
          animation-delay: 0.6943359375s;
          animation-timing-function: linear;
        }
      
        @keyframes keyframes2 {
          from {
            stroke: blue;
            stroke-dashoffset: 454;
            stroke-width: 128;
          }
          60% {
            animation-timing-function: step-end;
            stroke: blue;
            stroke-dashoffset: 0;
            stroke-width: 128;
          }
          to {
            stroke: black;
            stroke-width: 1024;
          }
        }
        #make-me-a-hanzi-animation-2 {
          animation: keyframes2 0.6194661458333334s both;
          animation-delay: 1.31298828125s;
          animation-timing-function: linear;
        }
      
        @keyframes keyframes3 {
          from {
            stroke: blue;
            stroke-dashoffset: 389;
            stroke-width: 128;
          }
          56% {
            animation-timing-function: step-end;
            stroke: blue;
            stroke-dashoffset: 0;
            stroke-width: 128;
          }
          to {
            stroke: black;
            stroke-width: 1024;
          }
        }
        #make-me-a-hanzi-animation-3 {
          animation: keyframes3 0.5665690104166666s both;
          animation-delay: 1.9324544270833335s;
          animation-timing-function: linear;
        }
      
        @keyframes keyframes4 {
          from {
            stroke: blue;
            stroke-dashoffset: 497;
            stroke-width: 128;
          }
          62% {
            animation-timing-function: step-end;
            stroke: blue;
            stroke-dashoffset: 0;
            stroke-width: 128;
          }
          to {
            stroke: black;
            stroke-width: 1024;
          }
        }
        #make-me-a-hanzi-animation-4 {
          animation: keyframes4 0.6544596354166666s both;
          animation-delay: 2.4990234375s;
          animation-timing-function: linear;
        }
      
        @keyframes keyframes5 {
          from {
            stroke: blue;
            stroke-dashoffset: 402;
            stroke-width: 128;
          }
          57% {
            animation-timing-function: step-end;
            stroke: blue;
            stroke-dashoffset: 0;
            stroke-width: 128;
          }
          to {
            stroke: black;
            stroke-width: 1024;
          }
        }
        #make-me-a-hanzi-animation-5 {
          animation: keyframes5 0.5771484375s both;
          animation-delay: 3.1534830729166665s;
          animation-timing-function: linear;
        }
      
        @keyframes keyframes6 {
          from {
            stroke: blue;
            stroke-dashoffset: 318;
            stroke-width: 128;
          }
          51% {
            animation-timing-function: step-end;
            stroke: blue;
            stroke-dashoffset: 0;
            stroke-width: 128;
          }
          to {
            stroke: black;
            stroke-width: 1024;
          }
        }
        #make-me-a-hanzi-animation-6 {
          animation: keyframes6 0.5087890625s both;
          animation-delay: 3.7306315104166665s;
          animation-timing-function: linear;
        }
      
        @keyframes keyframes7 {
          from {
            stroke: blue;
            stroke-dashoffset: 352;
            stroke-width: 128;
          }
          53% {
            animation-timing-function: step-end;
            stroke: blue;
            stroke-dashoffset: 0;
            stroke-width: 128;
          }
          to {
            stroke: black;
            stroke-width: 1024;
          }
        }
        #make-me-a-hanzi-animation-7 {
          animation: keyframes7 0.5364583333333334s both;
          animation-delay: 4.239420572916666s;
          animation-timing-function: linear;
        }
      
        @keyframes keyframes8 {
          from {
            stroke: blue;
            stroke-dashoffset: 544;
            stroke-width: 128;
          }
          64% {
            animation-timing-function: step-end;
            stroke: blue;
            stroke-dashoffset: 0;
            stroke-width: 128;
          }
          to {
            stroke: black;
            stroke-width: 1024;
          }
        }
        #make-me-a-hanzi-animation-8 {
          animation: keyframes8 0.6927083333333334s both;
          animation-delay: 4.775878906249999s;
          animation-timing-function: linear;
        }
      
        @keyframes keyframes9 {
          from {
            stroke: blue;
            stroke-dashoffset: 505;
            stroke-width: 128;
          }
          62% {
            animation-timing-function: step-end;
            stroke: blue;
            stroke-dashoffset: 0;
            stroke-width: 128;
          }
          to {
            stroke: black;
            stroke-width: 1024;
          }
        }
        #make-me-a-hanzi-animation-9 {
          animation: keyframes9 0.6609700520833334s both;
          animation-delay: 5.468587239583332s;
          animation-timing-function: linear;
        }
      
        @keyframes keyframes10 {
          from {
            stroke: blue;
            stroke-dashoffset: 500;
            stroke-width: 128;
          }
          62% {
            animation-timing-function: step-end;
            stroke: blue;
            stroke-dashoffset: 0;
            stroke-width: 128;
          }
          to {
            stroke: black;
            stroke-width: 1024;
          }
        }
        #make-me-a-hanzi-animation-10 {
          animation: keyframes10 0.6569010416666666s both;
          animation-delay: 6.129557291666665s;
          animation-timing-function: linear;
        }
      
        @keyframes keyframes11 {
          from {
            stroke: blue;
            stroke-dashoffset: 764;
            stroke-width: 128;
          }
          71% {
            animation-timing-function: step-end;
            stroke: blue;
            stroke-dashoffset: 0;
            stroke-width: 128;
          }
          to {
            stroke: black;
            stroke-width: 1024;
          }
        }
        #make-me-a-hanzi-animation-11 {
          animation: keyframes11 0.8717447916666666s both;
          animation-delay: 6.786458333333332s;
          animation-timing-function: linear;
        }
      
        @keyframes keyframes12 {
          from {
            stroke: blue;
            stroke-dashoffset: 584;
            stroke-width: 128;
          }
          66% {
            animation-timing-function: step-end;
            stroke: blue;
            stroke-dashoffset: 0;
            stroke-width: 128;
          }
          to {
            stroke: black;
            stroke-width: 1024;
          }
        }
        #make-me-a-hanzi-animation-12 {
          animation: keyframes12 0.7252604166666666s both;
          animation-delay: 7.658203124999999s;
          animation-timing-function: linear;
        }
      
        @keyframes keyframes13 {
          from {
            stroke: blue;
            stroke-dashoffset: 488;
            stroke-width: 128;
          }
          61% {
            animation-timing-function: step-end;
            stroke: blue;
            stroke-dashoffset: 0;
            stroke-width: 128;
          }
          to {
            stroke: black;
            stroke-width: 1024;
          }
        }
        #make-me-a-hanzi-animation-13 {
          animation: keyframes13 0.6471354166666666s both;
          animation-delay: 8.383463541666666s;
          animation-timing-function: linear;
        }
      
        @keyframes keyframes14 {
          from {
            stroke: blue;
            stroke-dashoffset: 969;
            stroke-width: 128;
          }
          76% {
            animation-timing-function: step-end;
            stroke: blue;
            stroke-dashoffset: 0;
            stroke-width: 128;
          }
          to {
            stroke: black;
            stroke-width: 1024;
          }
        }
        #make-me-a-hanzi-animation-14 {
          animation: keyframes14 1.03857421875s both;
          animation-delay: 9.030598958333332s;
          animation-timing-function: linear;
        }
      
        @keyframes keyframes15 {
          from {
            stroke: blue;
            stroke-dashoffset: 844;
            stroke-width: 128;
          }
          73% {
            animation-timing-function: step-end;
            stroke: blue;
            stroke-dashoffset: 0;
            stroke-width: 128;
          }
          to {
            stroke: black;
            stroke-width: 1024;
          }
        }
        #make-me-a-hanzi-animation-15 {
          animation: keyframes15 0.9368489583333334s both;
          animation-delay: 10.069173177083332s;
          animation-timing-function: linear;
        }
      
        @keyframes keyframes16 {
          from {
            stroke: blue;
            stroke-dashoffset: 367;
            stroke-width: 128;
          }
          54% {
            animation-timing-function: step-end;
            stroke: blue;
            stroke-dashoffset: 0;
            stroke-width: 128;
          }
          to {
            stroke: black;
            stroke-width: 1024;
          }
        }
        #make-me-a-hanzi-animation-16 {
          animation: keyframes16 0.5486653645833334s both;
          animation-delay: 11.006022135416666s;
          animation-timing-function: linear;
        }
      
        @keyframes keyframes17 {
          from {
            stroke: blue;
            stroke-dashoffset: 440;
            stroke-width: 128;
          }
          59% {
            animation-timing-function: step-end;
            stroke: blue;
            stroke-dashoffset: 0;
            stroke-width: 128;
          }
          to {
            stroke: black;
            stroke-width: 1024;
          }
        }
        #make-me-a-hanzi-animation-17 {
          animation: keyframes17 0.6080729166666666s both;
          animation-delay: 11.5546875s;
          animation-timing-function: linear;
        }
      
    </style>
    
      <path d="M 391 741 Q 416 747 448 752 Q 488 759 494 765 Q 501 772 498 778 Q 492 788 469 795 Q 439 801 397 783 L 347 770 Q 337 769 326 765 Q 271 755 208 750 Q 178 746 199 731 Q 229 713 305 727 Q 324 731 348 733 L 391 741 Z" fill="lightgray"></path>
    
      <path d="M 383 681 Q 387 712 391 741 L 397 783 Q 397 793 404 814 Q 410 836 398 847 L 396 849 Q 369 865 351 868 Q 338 871 332 865 Q 326 859 332 847 Q 342 832 347 770 L 348 733 Q 348 705 348 671 C 348 641 379 651 383 681 Z" fill="lightgray"></path>
    
      <path d="M 348 671 Q 321 665 299 660 Q 280 657 258 653 Q 237 649 254 638 Q 263 631 273 626 Q 274 626 402 651 Q 430 657 453 660 Q 460 660 467 669 Q 467 678 450 684 Q 429 699 383 681 L 348 671 Z" fill="lightgray"></path>
    
      <path d="M 255 579 Q 251 580 237 583 Q 228 584 226 581 Q 222 577 228 565 Q 246 534 259 482 Q 262 466 272 456 Q 285 440 289 452 Q 290 459 290 472 L 287 495 Q 278 547 278 560 C 277 574 277 574 255 579 Z" fill="lightgray"></path>
    
      <path d="M 429 520 Q 442 565 457 577 Q 473 596 456 608 Q 440 615 419 629 Q 404 638 390 628 Q 350 601 255 579 C 226 572 250 549 278 560 Q 290 566 365 588 Q 390 595 397 586 Q 401 583 397 565 Q 393 549 390 527 C 386 497 420 491 429 520 Z" fill="lightgray"></path>
    
      <path d="M 397 494 Q 412 498 433 501 Q 440 502 441 509 Q 441 513 429 520 L 390 527 Q 386 527 383 525 Q 329 506 287 495 C 258 487 260 474 290 472 Q 297 471 307 473 Q 331 482 377 490 L 397 494 Z" fill="lightgray"></path>
    
      <path d="M 227 439 Q 257 391 274 388 Q 283 385 290 398 Q 291 408 287 423 Q 275 445 233 458 Q 226 459 225 452 Q 224 446 227 439 Z" fill="lightgray"></path>
    
      <path d="M 391 408 Q 394 411 411 439 Q 415 446 423 455 Q 432 462 426 469 Q 420 479 401 492 Q 400 493 397 494 C 373 505 373 505 377 490 Q 377 489 379 484 Q 382 475 365 399 C 358 370 373 384 391 408 Z" fill="lightgray"></path>
    
      <path d="M 365 399 Q 281 375 186 348 Q 170 344 145 344 Q 135 343 133 335 Q 132 325 139 318 Q 157 305 182 290 Q 191 289 200 294 Q 231 318 375 378 Q 394 385 410 397 Q 420 403 421 410 Q 417 414 407 413 Q 400 412 391 408 L 365 399 Z" fill="lightgray"></path>
    
      <path d="M 666 700 Q 780 736 781 737 Q 788 744 783 751 Q 776 760 753 764 Q 729 767 671 741 L 622 725 Q 585 715 540 707 Q 512 700 534 688 Q 564 673 616 686 Q 619 687 623 687 L 666 700 Z" fill="lightgray"></path>
    
      <path d="M 658 634 Q 662 668 666 700 L 671 741 Q 672 792 688 821 Q 691 831 674 844 Q 644 860 624 864 Q 611 867 604 860 Q 597 854 604 841 Q 617 823 618 811 Q 621 771 622 725 L 623 687 Q 623 656 623 621 C 623 591 654 604 658 634 Z" fill="lightgray"></path>
    
      <path d="M 691 496 Q 719 527 744 572 Q 756 596 773 611 Q 789 624 778 636 Q 768 646 741 657 Q 720 666 658 634 L 623 621 Q 538 597 537 595 Q 534 588 551 583 Q 584 574 626 591 Q 675 613 685 615 Q 698 614 695 599 Q 680 542 644 506 L 613 482 Q 555 454 509 442 Q 496 439 506 431 Q 546 419 655 466 L 691 496 Z" fill="lightgray"></path>
    
      <path d="M 655 466 Q 734 438 799 401 Q 812 391 826 389 Q 836 388 839 403 Q 840 416 829 437 Q 816 471 691 496 L 644 506 Q 532 531 523 526 Q 519 525 523 515 Q 526 509 540 505 Q 577 495 613 482 L 655 466 Z" fill="lightgray"></path>
    
      <path d="M 475 379 Q 491 397 491 401 Q 490 411 472 418 Q 453 427 445 425 Q 439 424 437 415 Q 416 358 288 272 Q 272 263 291 264 Q 333 264 412 325 L 424 334 Q 434 344 447 354 Q 448 357 451 358 L 475 379 Z" fill="lightgray"></path>
    
      <path d="M 554 257 Q 626 333 644 342 Q 657 346 659 353 Q 660 363 640 380 Q 615 402 604 405 Q 595 406 586 402 Q 582 402 475 379 C 446 373 422 366 451 358 Q 481 343 549 364 Q 564 365 569 360 Q 573 356 552 326 Q 536 302 515 279 L 495 258 Q 356 122 155 82 Q 146 81 146 77 Q 146 73 152 71 Q 261 49 420 145 Q 480 184 530 233 L 554 257 Z" fill="lightgray"></path>
    
      <path d="M 530 233 Q 746 83 787 82 Q 845 82 941 120 Q 957 126 959 130 Q 960 137 944 140 Q 883 153 812 163 Q 689 185 554 257 L 515 279 L 514 280 Q 447 323 424 334 C 398 348 392 347 412 325 Q 415 315 495 258 L 530 233 Z" fill="lightgray"></path>
    
      <path d="M 508 126 Q 535 108 565 87 Q 575 80 587 81 Q 594 82 597 92 Q 600 104 590 124 Q 580 148 499 160 Q 489 161 483 158 Q 480 155 483 146 Q 486 139 508 126 Z" fill="lightgray"></path>
    
      <path d="M 472 10 Q 518 -26 568 -69 Q 580 -81 595 -80 Q 605 -80 609 -67 Q 613 -54 605 -27 Q 593 18 468 54 Q 453 58 448 55 Q 444 51 445 39 Q 448 29 472 10 Z" fill="lightgray"></path>
    
    
      <clipPath id="make-me-a-hanzi-clip-0">
        <path d="M 391 741 Q 416 747 448 752 Q 488 759 494 765 Q 501 772 498 778 Q 492 788 469 795 Q 439 801 397 783 L 347 770 Q 337 769 326 765 Q 271 755 208 750 Q 178 746 199 731 Q 229 713 305 727 Q 324 731 348 733 L 391 741 Z"></path>
      </clipPath>
      <path clip-path="url(#make-me-a-hanzi-clip-0)" d="M 201 742 L 229 736 L 273 738 L 427 771 L 487 774" fill="none" id="make-me-a-hanzi-animation-0" stroke-dasharray="418 836" stroke-linecap="round"></path>
    
      <clipPath id="make-me-a-hanzi-clip-1">
        <path d="M 383 681 Q 387 712 391 741 L 397 783 Q 397 793 404 814 Q 410 836 398 847 L 396 849 Q 369 865 351 868 Q 338 871 332 865 Q 326 859 332 847 Q 342 832 347 770 L 348 733 Q 348 705 348 671 C 348 641 379 651 383 681 Z"></path>
      </clipPath>
      <path clip-path="url(#make-me-a-hanzi-clip-1)" d="M 341 857 L 373 825 L 368 706 L 362 688 L 352 679" fill="none" id="make-me-a-hanzi-animation-1" stroke-dasharray="325 650" stroke-linecap="round"></path>
    
      <clipPath id="make-me-a-hanzi-clip-2">
        <path d="M 348 671 Q 321 665 299 660 Q 280 657 258 653 Q 237 649 254 638 Q 263 631 273 626 Q 274 626 402 651 Q 430 657 453 660 Q 460 660 467 669 Q 467 678 450 684 Q 429 699 383 681 L 348 671 Z"></path>
      </clipPath>
      <path clip-path="url(#make-me-a-hanzi-clip-2)" d="M 265 643 L 304 645 L 423 674 L 459 670" fill="none" id="make-me-a-hanzi-animation-2" stroke-dasharray="326 652" stroke-linecap="round"></path>
    
      <clipPath id="make-me-a-hanzi-clip-3">
        <path d="M 255 579 Q 251 580 237 583 Q 228 584 226 581 Q 222 577 228 565 Q 246 534 259 482 Q 262 466 272 456 Q 285 440 289 452 Q 290 459 290 472 L 287 495 Q 278 547 278 560 C 277 574 277 574 255 579 Z"></path>
      </clipPath>
      <path clip-path="url(#make-me-a-hanzi-clip-3)" d="M 233 576 L 258 551 L 281 456" fill="none" id="make-me-a-hanzi-animation-3" stroke-dasharray="261 522" stroke-linecap="round"></path>
    
      <clipPath id="make-me-a-hanzi-clip-4">
        <path d="M 429 520 Q 442 565 457 577 Q 473 596 456 608 Q 440 615 419 629 Q 404 638 390 628 Q 350 601 255 579 C 226 572 250 549 278 560 Q 290 566 365 588 Q 390 595 397 586 Q 401 583 397 565 Q 393 549 390 527 C 386 497 420 491 429 520 Z"></path>
      </clipPath>
      <path clip-path="url(#make-me-a-hanzi-clip-4)" d="M 266 580 L 278 573 L 406 608 L 427 589 L 413 543 L 398 533" fill="none" id="make-me-a-hanzi-animation-4" stroke-dasharray="369 738" stroke-linecap="round"></path>
    
      <clipPath id="make-me-a-hanzi-clip-5">
        <path d="M 397 494 Q 412 498 433 501 Q 440 502 441 509 Q 441 513 429 520 L 390 527 Q 386 527 383 525 Q 329 506 287 495 C 258 487 260 474 290 472 Q 297 471 307 473 Q 331 482 377 490 L 397 494 Z"></path>
      </clipPath>
      <path clip-path="url(#make-me-a-hanzi-clip-5)" d="M 294 478 L 308 487 L 394 511 L 434 508" fill="none" id="make-me-a-hanzi-animation-5" stroke-dasharray="274 548" stroke-linecap="round"></path>
    
      <clipPath id="make-me-a-hanzi-clip-6">
        <path d="M 227 439 Q 257 391 274 388 Q 283 385 290 398 Q 291 408 287 423 Q 275 445 233 458 Q 226 459 225 452 Q 224 446 227 439 Z"></path>
      </clipPath>
      <path clip-path="url(#make-me-a-hanzi-clip-6)" d="M 235 447 L 277 401" fill="none" id="make-me-a-hanzi-animation-6" stroke-dasharray="190 380" stroke-linecap="round"></path>
    
      <clipPath id="make-me-a-hanzi-clip-7">
        <path d="M 391 408 Q 394 411 411 439 Q 415 446 423 455 Q 432 462 426 469 Q 420 479 401 492 Q 400 493 397 494 C 373 505 373 505 377 490 Q 377 489 379 484 Q 382 475 365 399 C 358 370 373 384 391 408 Z"></path>
      </clipPath>
      <path clip-path="url(#make-me-a-hanzi-clip-7)" d="M 383 489 L 394 479 L 399 461 L 381 416 L 368 411" fill="none" id="make-me-a-hanzi-animation-7" stroke-dasharray="224 448" stroke-linecap="round"></path>
    
      <clipPath id="make-me-a-hanzi-clip-8">
        <path d="M 365 399 Q 281 375 186 348 Q 170 344 145 344 Q 135 343 133 335 Q 132 325 139 318 Q 157 305 182 290 Q 191 289 200 294 Q 231 318 375 378 Q 394 385 410 397 Q 420 403 421 410 Q 417 414 407 413 Q 400 412 391 408 L 365 399 Z"></path>
      </clipPath>
      <path clip-path="url(#make-me-a-hanzi-clip-8)" d="M 145 332 L 177 321 L 194 322 L 360 383 L 414 409" fill="none" id="make-me-a-hanzi-animation-8" stroke-dasharray="416 832" stroke-linecap="round"></path>
    
      <clipPath id="make-me-a-hanzi-clip-9">
        <path d="M 666 700 Q 780 736 781 737 Q 788 744 783 751 Q 776 760 753 764 Q 729 767 671 741 L 622 725 Q 585 715 540 707 Q 512 700 534 688 Q 564 673 616 686 Q 619 687 623 687 L 666 700 Z"></path>
      </clipPath>
      <path clip-path="url(#make-me-a-hanzi-clip-9)" d="M 535 698 L 589 698 L 731 742 L 777 745" fill="none" id="make-me-a-hanzi-animation-9" stroke-dasharray="377 754" stroke-linecap="round"></path>
    
      <clipPath id="make-me-a-hanzi-clip-10">
        <path d="M 658 634 Q 662 668 666 700 L 671 741 Q 672 792 688 821 Q 691 831 674 844 Q 644 860 624 864 Q 611 867 604 860 Q 597 854 604 841 Q 617 823 618 811 Q 621 771 622 725 L 623 687 Q 623 656 623 621 C 623 591 654 604 658 634 Z"></path>
      </clipPath>
      <path clip-path="url(#make-me-a-hanzi-clip-10)" d="M 614 851 L 651 816 L 641 647 L 627 628" fill="none" id="make-me-a-hanzi-animation-10" stroke-dasharray="372 744" stroke-linecap="round"></path>
    
      <clipPath id="make-me-a-hanzi-clip-11">
        <path d="M 691 496 Q 719 527 744 572 Q 756 596 773 611 Q 789 624 778 636 Q 768 646 741 657 Q 720 666 658 634 L 623 621 Q 538 597 537 595 Q 534 588 551 583 Q 584 574 626 591 Q 675 613 685 615 Q 698 614 695 599 Q 680 542 644 506 L 613 482 Q 555 454 509 442 Q 496 439 506 431 Q 546 419 655 466 L 691 496 Z"></path>
      </clipPath>
      <path clip-path="url(#make-me-a-hanzi-clip-11)" d="M 540 592 L 598 597 L 692 632 L 731 621 L 703 550 L 661 495 L 619 466 L 584 452 L 511 435" fill="none" id="make-me-a-hanzi-animation-11" stroke-dasharray="636 1272" stroke-linecap="round"></path>
    
      <clipPath id="make-me-a-hanzi-clip-12">
        <path d="M 655 466 Q 734 438 799 401 Q 812 391 826 389 Q 836 388 839 403 Q 840 416 829 437 Q 816 471 691 496 L 644 506 Q 532 531 523 526 Q 519 525 523 515 Q 526 509 540 505 Q 577 495 613 482 L 655 466 Z"></path>
      </clipPath>
      <path clip-path="url(#make-me-a-hanzi-clip-12)" d="M 526 521 L 604 503 L 740 460 L 799 432 L 826 402" fill="none" id="make-me-a-hanzi-animation-12" stroke-dasharray="456 912" stroke-linecap="round"></path>
    
      <clipPath id="make-me-a-hanzi-clip-13">
        <path d="M 475 379 Q 491 397 491 401 Q 490 411 472 418 Q 453 427 445 425 Q 439 424 437 415 Q 416 358 288 272 Q 272 263 291 264 Q 333 264 412 325 L 424 334 Q 434 344 447 354 Q 448 357 451 358 L 475 379 Z"></path>
      </clipPath>
      <path clip-path="url(#make-me-a-hanzi-clip-13)" d="M 481 401 L 457 397 L 379 318 L 295 270" fill="none" id="make-me-a-hanzi-animation-13" stroke-dasharray="360 720" stroke-linecap="round"></path>
    
      <clipPath id="make-me-a-hanzi-clip-14">
        <path d="M 554 257 Q 626 333 644 342 Q 657 346 659 353 Q 660 363 640 380 Q 615 402 604 405 Q 595 406 586 402 Q 582 402 475 379 C 446 373 422 366 451 358 Q 481 343 549 364 Q 564 365 569 360 Q 573 356 552 326 Q 536 302 515 279 L 495 258 Q 356 122 155 82 Q 146 81 146 77 Q 146 73 152 71 Q 261 49 420 145 Q 480 184 530 233 L 554 257 Z"></path>
      </clipPath>
      <path clip-path="url(#make-me-a-hanzi-clip-14)" d="M 458 362 L 566 381 L 588 377 L 606 360 L 563 298 L 510 242 L 400 156 L 336 121 L 276 97 L 209 80 L 152 77" fill="none" id="make-me-a-hanzi-animation-14" stroke-dasharray="841 1682" stroke-linecap="round"></path>
    
      <clipPath id="make-me-a-hanzi-clip-15">
        <path d="M 530 233 Q 746 83 787 82 Q 845 82 941 120 Q 957 126 959 130 Q 960 137 944 140 Q 883 153 812 163 Q 689 185 554 257 L 515 279 L 514 280 Q 447 323 424 334 C 398 348 392 347 412 325 Q 415 315 495 258 L 530 233 Z"></path>
      </clipPath>
      <path clip-path="url(#make-me-a-hanzi-clip-15)" d="M 420 327 L 572 224 L 745 139 L 802 123 L 954 131" fill="none" id="make-me-a-hanzi-animation-15" stroke-dasharray="716 1432" stroke-linecap="round"></path>
    
      <clipPath id="make-me-a-hanzi-clip-16">
        <path d="M 508 126 Q 535 108 565 87 Q 575 80 587 81 Q 594 82 597 92 Q 600 104 590 124 Q 580 148 499 160 Q 489 161 483 158 Q 480 155 483 146 Q 486 139 508 126 Z"></path>
      </clipPath>
      <path clip-path="url(#make-me-a-hanzi-clip-16)" d="M 489 152 L 554 124 L 582 95" fill="none" id="make-me-a-hanzi-animation-16" stroke-dasharray="239 478" stroke-linecap="round"></path>
    
      <clipPath id="make-me-a-hanzi-clip-17">
        <path d="M 472 10 Q 518 -26 568 -69 Q 580 -81 595 -80 Q 605 -80 609 -67 Q 613 -54 605 -27 Q 593 18 468 54 Q 453 58 448 55 Q 444 51 445 39 Q 448 29 472 10 Z"></path>
      </clipPath>
      <path clip-path="url(#make-me-a-hanzi-clip-17)" d="M 453 49 L 562 -21 L 594 -65" fill="none" id="make-me-a-hanzi-animation-17" stroke-dasharray="312 624" stroke-linecap="round"></path>
    
  </g>
</svg>