<svg version="1.1" viewBox="0 0 1024 1024" xmlns="http://www.w3.org/2000/svg">
  <g stroke="lightgray" stroke-dasharray="1,1" stroke-width="1" transform="scale(4, 4)">
    <line x1="0" y1="0" x2="256" y2="256"></line>
    <line x1="256" y1="0" x2="0" y2="256"></line>
    <line x1="128" y1="0" x2="128" y2="256"></line>
    <line x1="0" y1="128" x2="256" y2="128"></line>
  </g>
  <g transform="scale(1, -1) translate(0, -900)">
    <style type="text/css">
      
        @keyframes keyframes0 {
          from {
            stroke: blue;
            stroke-dashoffset: 459;
            stroke-width: 128;
          }
          60% {
            animation-timing-function: step-end;
            stroke: blue;
            stroke-dashoffset: 0;
            stroke-width: 128;
          }
          to {
            stroke: black;
            stroke-width: 1024;
          }
        }
        #make-me-a-hanzi-animation-0 {
          animation: keyframes0 0.62353515625s both;
          animation-delay: 0s;
          animation-timing-function: linear;
        }
      
        @keyframes keyframes1 {
          from {
            stroke: blue;
            stroke-dashoffset: 499;
            stroke-width: 128;
          }
          62% {
            animation-timing-function: step-end;
            stroke: blue;
            stroke-dashoffset: 0;
            stroke-width: 128;
          }
          to {
            stroke: black;
            stroke-width: 1024;
          }
        }
        #make-me-a-hanzi-animation-1 {
          animation: keyframes1 0.6560872395833334s both;
          animation-delay: 0.62353515625s;
          animation-timing-function: linear;
        }
      
        @keyframes keyframes2 {
          from {
            stroke: blue;
            stroke-dashoffset: 320;
            stroke-width: 128;
          }
          51% {
            animation-timing-function: step-end;
            stroke: blue;
            stroke-dashoffset: 0;
            stroke-width: 128;
          }
          to {
            stroke: black;
            stroke-width: 1024;
          }
        }
        #make-me-a-hanzi-animation-2 {
          animation: keyframes2 0.5104166666666666s both;
          animation-delay: 1.2796223958333335s;
          animation-timing-function: linear;
        }
      
        @keyframes keyframes3 {
          from {
            stroke: blue;
            stroke-dashoffset: 604;
            stroke-width: 128;
          }
          66% {
            animation-timing-function: step-end;
            stroke: blue;
            stroke-dashoffset: 0;
            stroke-width: 128;
          }
          to {
            stroke: black;
            stroke-width: 1024;
          }
        }
        #make-me-a-hanzi-animation-3 {
          animation: keyframes3 0.7415364583333334s both;
          animation-delay: 1.7900390625s;
          animation-timing-function: linear;
        }
      
        @keyframes keyframes4 {
          from {
            stroke: blue;
            stroke-dashoffset: 335;
            stroke-width: 128;
          }
          52% {
            animation-timing-function: step-end;
            stroke: blue;
            stroke-dashoffset: 0;
            stroke-width: 128;
          }
          to {
            stroke: black;
            stroke-width: 1024;
          }
        }
        #make-me-a-hanzi-animation-4 {
          animation: keyframes4 0.5226236979166666s both;
          animation-delay: 2.5315755208333335s;
          animation-timing-function: linear;
        }
      
        @keyframes keyframes5 {
          from {
            stroke: blue;
            stroke-dashoffset: 414;
            stroke-width: 128;
          }
          57% {
            animation-timing-function: step-end;
            stroke: blue;
            stroke-dashoffset: 0;
            stroke-width: 128;
          }
          to {
            stroke: black;
            stroke-width: 1024;
          }
        }
        #make-me-a-hanzi-animation-5 {
          animation: keyframes5 0.5869140625s both;
          animation-delay: 3.05419921875s;
          animation-timing-function: linear;
        }
      
        @keyframes keyframes6 {
          from {
            stroke: blue;
            stroke-dashoffset: 621;
            stroke-width: 128;
          }
          67% {
            animation-timing-function: step-end;
            stroke: blue;
            stroke-dashoffset: 0;
            stroke-width: 128;
          }
          to {
            stroke: black;
            stroke-width: 1024;
          }
        }
        #make-me-a-hanzi-animation-6 {
          animation: keyframes6 0.75537109375s both;
          animation-delay: 3.64111328125s;
          animation-timing-function: linear;
        }
      
        @keyframes keyframes7 {
          from {
            stroke: blue;
            stroke-dashoffset: 312;
            stroke-width: 128;
          }
          50% {
            animation-timing-function: step-end;
            stroke: blue;
            stroke-dashoffset: 0;
            stroke-width: 128;
          }
          to {
            stroke: black;
            stroke-width: 1024;
          }
        }
        #make-me-a-hanzi-animation-7 {
          animation: keyframes7 0.50390625s both;
          animation-delay: 4.396484375s;
          animation-timing-function: linear;
        }
      
        @keyframes keyframes8 {
          from {
            stroke: blue;
            stroke-dashoffset: 313;
            stroke-width: 128;
          }
          50% {
            animation-timing-function: step-end;
            stroke: blue;
            stroke-dashoffset: 0;
            stroke-width: 128;
          }
          to {
            stroke: black;
            stroke-width: 1024;
          }
        }
        #make-me-a-hanzi-animation-8 {
          animation: keyframes8 0.5047200520833334s both;
          animation-delay: 4.900390625s;
          animation-timing-function: linear;
        }
      
        @keyframes keyframes9 {
          from {
            stroke: blue;
            stroke-dashoffset: 664;
            stroke-width: 128;
          }
          68% {
            animation-timing-function: step-end;
            stroke: blue;
            stroke-dashoffset: 0;
            stroke-width: 128;
          }
          to {
            stroke: black;
            stroke-width: 1024;
          }
        }
        #make-me-a-hanzi-animation-9 {
          animation: keyframes9 0.7903645833333334s both;
          animation-delay: 5.405110677083333s;
          animation-timing-function: linear;
        }
      
        @keyframes keyframes10 {
          from {
            stroke: blue;
            stroke-dashoffset: 304;
            stroke-width: 128;
          }
          50% {
            animation-timing-function: step-end;
            stroke: blue;
            stroke-dashoffset: 0;
            stroke-width: 128;
          }
          to {
            stroke: black;
            stroke-width: 1024;
          }
        }
        #make-me-a-hanzi-animation-10 {
          animation: keyframes10 0.4973958333333333s both;
          animation-delay: 6.195475260416666s;
          animation-timing-function: linear;
        }
      
        @keyframes keyframes11 {
          from {
            stroke: blue;
            stroke-dashoffset: 319;
            stroke-width: 128;
          }
          51% {
            animation-timing-function: step-end;
            stroke: blue;
            stroke-dashoffset: 0;
            stroke-width: 128;
          }
          to {
            stroke: black;
            stroke-width: 1024;
          }
        }
        #make-me-a-hanzi-animation-11 {
          animation: keyframes11 0.5096028645833334s both;
          animation-delay: 6.692871093749999s;
          animation-timing-function: linear;
        }
      
        @keyframes keyframes12 {
          from {
            stroke: blue;
            stroke-dashoffset: 1189;
            stroke-width: 128;
          }
          79% {
            animation-timing-function: step-end;
            stroke: blue;
            stroke-dashoffset: 0;
            stroke-width: 128;
          }
          to {
            stroke: black;
            stroke-width: 1024;
          }
        }
        #make-me-a-hanzi-animation-12 {
          animation: keyframes12 1.2176106770833333s both;
          animation-delay: 7.202473958333332s;
          animation-timing-function: linear;
        }
      
        @keyframes keyframes13 {
          from {
            stroke: blue;
            stroke-dashoffset: 574;
            stroke-width: 128;
          }
          65% {
            animation-timing-function: step-end;
            stroke: blue;
            stroke-dashoffset: 0;
            stroke-width: 128;
          }
          to {
            stroke: black;
            stroke-width: 1024;
          }
        }
        #make-me-a-hanzi-animation-13 {
          animation: keyframes13 0.7171223958333334s both;
          animation-delay: 8.420084635416666s;
          animation-timing-function: linear;
        }
      
        @keyframes keyframes14 {
          from {
            stroke: blue;
            stroke-dashoffset: 1075;
            stroke-width: 128;
          }
          78% {
            animation-timing-function: step-end;
            stroke: blue;
            stroke-dashoffset: 0;
            stroke-width: 128;
          }
          to {
            stroke: black;
            stroke-width: 1024;
          }
        }
        #make-me-a-hanzi-animation-14 {
          animation: keyframes14 1.1248372395833333s both;
          animation-delay: 9.13720703125s;
          animation-timing-function: linear;
        }
      
        @keyframes keyframes15 {
          from {
            stroke: blue;
            stroke-dashoffset: 430;
            stroke-width: 128;
          }
          58% {
            animation-timing-function: step-end;
            stroke: blue;
            stroke-dashoffset: 0;
            stroke-width: 128;
          }
          to {
            stroke: black;
            stroke-width: 1024;
          }
        }
        #make-me-a-hanzi-animation-15 {
          animation: keyframes15 0.5999348958333334s both;
          animation-delay: 10.262044270833334s;
          animation-timing-function: linear;
        }
      
        @keyframes keyframes16 {
          from {
            stroke: blue;
            stroke-dashoffset: 502;
            stroke-width: 128;
          }
          62% {
            animation-timing-function: step-end;
            stroke: blue;
            stroke-dashoffset: 0;
            stroke-width: 128;
          }
          to {
            stroke: black;
            stroke-width: 1024;
          }
        }
        #make-me-a-hanzi-animation-16 {
          animation: keyframes16 0.6585286458333334s both;
          animation-delay: 10.861979166666668s;
          animation-timing-function: linear;
        }
      
        @keyframes keyframes17 {
          from {
            stroke: blue;
            stroke-dashoffset: 380;
            stroke-width: 128;
          }
          55% {
            animation-timing-function: step-end;
            stroke: blue;
            stroke-dashoffset: 0;
            stroke-width: 128;
          }
          to {
            stroke: black;
            stroke-width: 1024;
          }
        }
        #make-me-a-hanzi-animation-17 {
          animation: keyframes17 0.5592447916666666s both;
          animation-delay: 11.520507812500002s;
          animation-timing-function: linear;
        }
      
    </style>
    
      <path d="M 183 644 Q 231 674 303 726 Q 319 739 340 748 Q 359 755 350 772 Q 317 814 285 810 Q 273 809 277 797 Q 280 772 169 653 C 149 631 158 628 183 644 Z" fill="lightgray"></path>
    
      <path d="M 228 472 Q 228 478 209 542 L 202 570 Q 189 621 186 635 Q 185 641 183 644 C 181 650 181 650 169 653 Q 156 657 134 658 Q 124 659 120 655 Q 116 649 124 636 Q 158 578 184 481 Q 190 451 209 433 Q 227 415 230 429 Q 231 436 231 443 L 228 472 Z" fill="lightgray"></path>
    
      <path d="M 209 542 Q 243 549 270 551 Q 289 555 281 566 Q 271 576 250 580 Q 231 581 202 570 C 174 560 180 536 209 542 Z" fill="lightgray"></path>
    
      <path d="M 388 476 Q 388 472 391 465 Q 397 452 407 453 Q 419 454 424 468 Q 436 486 451 569 Q 464 612 493 639 Q 508 652 494 665 Q 478 678 436 699 Q 421 708 389 695 Q 365 692 344 684 Q 323 678 311 675 Q 299 675 297 671 Q 294 667 307 659 Q 331 647 348 654 Q 390 672 407 664 Q 417 660 413 629 Q 410 611 408 594 L 405 569 Q 396 511 391 494 Q 390 493 389 489 L 388 476 Z" fill="lightgray"></path>
    
      <path d="M 408 594 Q 390 604 318 581 Q 305 580 320 567 L 405 569 C 435 570 436 582 408 594 Z" fill="lightgray"></path>
    
      <path d="M 389 489 Q 385 495 367 504 Q 354 510 330 502 Q 275 484 228 472 C 199 465 202 434 231 443 Q 279 458 384 475 Q 385 476 388 476 C 399 479 399 479 389 489 Z" fill="lightgray"></path>
    
      <path d="M 179 278 L 181 292 Q 181 320 184 341 L 186 359 Q 182 377 143 391 Q 130 397 121 392 Q 112 388 123 371 Q 153 323 132 168 Q 128 140 107 109 Q 97 93 104 83 Q 111 73 132 63 Q 145 56 157 71 Q 164 92 213 129 Q 237 142 247 159 Q 253 168 245 168 Q 212 159 177 150 Q 168 151 170 170 Q 174 221 177 255 L 179 278 Z" fill="lightgray"></path>
    
      <path d="M 184 341 Q 241 323 251 326 Q 258 329 257 340 Q 254 347 243 356 Q 230 365 186 359 C 156 355 155 350 184 341 Z" fill="lightgray"></path>
    
      <path d="M 177 255 Q 228 231 240 234 Q 250 235 249 250 Q 248 259 236 269 Q 218 284 179 278 C 149 274 150 268 177 255 Z" fill="lightgray"></path>
    
      <path d="M 313 284 Q 314 333 319 360 L 322 377 Q 322 380 323 381 Q 327 399 315 410 Q 293 432 275 435 Q 265 438 259 434 Q 249 427 260 415 Q 276 384 276 354 Q 282 170 254 128 Q 242 109 250 89 Q 260 61 276 49 Q 286 42 297 60 Q 313 87 370 158 Q 386 171 387 179 Q 387 191 369 180 Q 321 159 317 160 Q 308 166 312 260 L 313 284 Z" fill="lightgray"></path>
    
      <path d="M 319 360 L 320 360 Q 362 333 373 336 Q 382 337 382 349 Q 381 356 372 366 Q 356 382 322 377 C 292 373 291 370 319 360 Z" fill="lightgray"></path>
    
      <path d="M 312 260 Q 360 230 372 231 Q 381 232 382 246 Q 381 255 372 267 Q 356 283 313 284 C 283 285 287 276 312 260 Z" fill="lightgray"></path>
    
      <path d="M 384 414 Q 403 377 406 337 Q 419 184 467 118 Q 516 49 640 13 Q 728 -9 834 -4 Q 910 0 960 27 Q 976 31 965 58 Q 944 113 933 189 Q 934 202 926 210 Q 919 214 915 206 Q 875 71 849 63 Q 830 50 762 51 Q 680 51 628 69 Q 499 111 467 203 Q 454 251 453 328 Q 452 362 459 379 Q 469 395 438 421 Q 404 451 387 446 Q 371 440 384 414 Z" fill="lightgray"></path>
    
      <path d="M 590 578 Q 611 609 636 650 Q 649 677 662 690 Q 669 700 665 711 Q 661 721 635 739 Q 613 752 596 752 Q 580 749 588 731 Q 604 704 551 594 Q 526 545 488 490 Q 481 481 478 476 Q 477 466 488 469 Q 522 481 577 561 L 590 578 Z" fill="lightgray"></path>
    
      <path d="M 577 561 Q 581 561 584 560 Q 605 554 686 565 Q 761 577 785 576 Q 795 576 797 572 Q 809 551 806 390 Q 800 273 769 206 Q 757 178 739 172 Q 729 171 676 186 Q 667 189 667 184 Q 666 180 676 172 Q 710 135 724 108 Q 731 92 742 92 Q 781 95 821 175 Q 855 259 865 508 Q 865 538 882 558 Q 894 571 892 578 Q 891 585 873 597 Q 849 613 817 623 Q 799 629 735 609 Q 729 609 725 607 Q 658 594 590 578 C 561 571 547 565 577 561 Z" fill="lightgray"></path>
    
      <path d="M 545 429 Q 536 433 516 435 Q 507 438 504 433 Q 500 429 506 416 Q 528 374 543 304 Q 546 282 559 269 Q 574 253 577 264 Q 580 273 579 285 L 576 314 Q 561 384 560 406 C 559 424 559 424 545 429 Z" fill="lightgray"></path>
    
      <path d="M 691 326 Q 709 383 727 399 Q 748 421 728 434 Q 712 444 688 461 Q 675 470 628 449 Q 589 437 545 429 C 516 423 530 405 560 406 Q 570 406 583 408 Q 613 414 638 417 Q 656 420 659 413 Q 665 409 658 383 Q 652 359 645 331 C 638 302 682 297 691 326 Z" fill="lightgray"></path>
    
      <path d="M 579 285 Q 585 284 593 286 Q 627 293 702 298 Q 711 299 712 306 Q 712 313 691 326 C 672 338 672 338 645 331 Q 606 321 576 314 C 547 307 549 287 579 285 Z" fill="lightgray"></path>
    
    
      <clipPath id="make-me-a-hanzi-clip-0">
        <path d="M 183 644 Q 231 674 303 726 Q 319 739 340 748 Q 359 755 350 772 Q 317 814 285 810 Q 273 809 277 797 Q 280 772 169 653 C 149 631 158 628 183 644 Z"></path>
      </clipPath>
      <path clip-path="url(#make-me-a-hanzi-clip-0)" d="M 338 763 L 303 767 L 234 698 L 183 659 L 184 653" fill="none" id="make-me-a-hanzi-animation-0" stroke-dasharray="331 662" stroke-linecap="round"></path>
    
      <clipPath id="make-me-a-hanzi-clip-1">
        <path d="M 228 472 Q 228 478 209 542 L 202 570 Q 189 621 186 635 Q 185 641 183 644 C 181 650 181 650 169 653 Q 156 657 134 658 Q 124 659 120 655 Q 116 649 124 636 Q 158 578 184 481 Q 190 451 209 433 Q 227 415 230 429 Q 231 436 231 443 L 228 472 Z"></path>
      </clipPath>
      <path clip-path="url(#make-me-a-hanzi-clip-1)" d="M 128 650 L 161 626 L 220 433" fill="none" id="make-me-a-hanzi-animation-1" stroke-dasharray="371 742" stroke-linecap="round"></path>
    
      <clipPath id="make-me-a-hanzi-clip-2">
        <path d="M 209 542 Q 243 549 270 551 Q 289 555 281 566 Q 271 576 250 580 Q 231 581 202 570 C 174 560 180 536 209 542 Z"></path>
      </clipPath>
      <path clip-path="url(#make-me-a-hanzi-clip-2)" d="M 211 565 L 221 560 L 253 565 L 273 560" fill="none" id="make-me-a-hanzi-animation-2" stroke-dasharray="192 384" stroke-linecap="round"></path>
    
      <clipPath id="make-me-a-hanzi-clip-3">
        <path d="M 388 476 Q 388 472 391 465 Q 397 452 407 453 Q 419 454 424 468 Q 436 486 451 569 Q 464 612 493 639 Q 508 652 494 665 Q 478 678 436 699 Q 421 708 389 695 Q 365 692 344 684 Q 323 678 311 675 Q 299 675 297 671 Q 294 667 307 659 Q 331 647 348 654 Q 390 672 407 664 Q 417 660 413 629 Q 410 611 408 594 L 405 569 Q 396 511 391 494 Q 390 493 389 489 L 388 476 Z"></path>
      </clipPath>
      <path clip-path="url(#make-me-a-hanzi-clip-3)" d="M 305 668 L 331 665 L 383 681 L 418 682 L 433 673 L 451 647 L 428 573 L 407 469" fill="none" id="make-me-a-hanzi-animation-3" stroke-dasharray="476 952" stroke-linecap="round"></path>
    
      <clipPath id="make-me-a-hanzi-clip-4">
        <path d="M 408 594 Q 390 604 318 581 Q 305 580 320 567 L 405 569 C 435 570 436 582 408 594 Z"></path>
      </clipPath>
      <path clip-path="url(#make-me-a-hanzi-clip-4)" d="M 327 575 L 331 580 L 341 576 L 402 588" fill="none" id="make-me-a-hanzi-animation-4" stroke-dasharray="207 414" stroke-linecap="round"></path>
    
      <clipPath id="make-me-a-hanzi-clip-5">
        <path d="M 389 489 Q 385 495 367 504 Q 354 510 330 502 Q 275 484 228 472 C 199 465 202 434 231 443 Q 279 458 384 475 Q 385 476 388 476 C 399 479 399 479 389 489 Z"></path>
      </clipPath>
      <path clip-path="url(#make-me-a-hanzi-clip-5)" d="M 234 451 L 252 464 L 327 484 L 358 489 L 384 483" fill="none" id="make-me-a-hanzi-animation-5" stroke-dasharray="286 572" stroke-linecap="round"></path>
    
      <clipPath id="make-me-a-hanzi-clip-6">
        <path d="M 179 278 L 181 292 Q 181 320 184 341 L 186 359 Q 182 377 143 391 Q 130 397 121 392 Q 112 388 123 371 Q 153 323 132 168 Q 128 140 107 109 Q 97 93 104 83 Q 111 73 132 63 Q 145 56 157 71 Q 164 92 213 129 Q 237 142 247 159 Q 253 168 245 168 Q 212 159 177 150 Q 168 151 170 170 Q 174 221 177 255 L 179 278 Z"></path>
      </clipPath>
      <path clip-path="url(#make-me-a-hanzi-clip-6)" d="M 128 383 L 159 354 L 161 288 L 150 158 L 154 127 L 178 127 L 239 162" fill="none" id="make-me-a-hanzi-animation-6" stroke-dasharray="493 986" stroke-linecap="round"></path>
    
      <clipPath id="make-me-a-hanzi-clip-7">
        <path d="M 184 341 Q 241 323 251 326 Q 258 329 257 340 Q 254 347 243 356 Q 230 365 186 359 C 156 355 155 350 184 341 Z"></path>
      </clipPath>
      <path clip-path="url(#make-me-a-hanzi-clip-7)" d="M 197 353 L 199 348 L 226 346 L 247 336" fill="none" id="make-me-a-hanzi-animation-7" stroke-dasharray="184 368" stroke-linecap="round"></path>
    
      <clipPath id="make-me-a-hanzi-clip-8">
        <path d="M 177 255 Q 228 231 240 234 Q 250 235 249 250 Q 248 259 236 269 Q 218 284 179 278 C 149 274 150 268 177 255 Z"></path>
      </clipPath>
      <path clip-path="url(#make-me-a-hanzi-clip-8)" d="M 189 271 L 194 263 L 238 246" fill="none" id="make-me-a-hanzi-animation-8" stroke-dasharray="185 370" stroke-linecap="round"></path>
    
      <clipPath id="make-me-a-hanzi-clip-9">
        <path d="M 313 284 Q 314 333 319 360 L 322 377 Q 322 380 323 381 Q 327 399 315 410 Q 293 432 275 435 Q 265 438 259 434 Q 249 427 260 415 Q 276 384 276 354 Q 282 170 254 128 Q 242 109 250 89 Q 260 61 276 49 Q 286 42 297 60 Q 313 87 370 158 Q 386 171 387 179 Q 387 191 369 180 Q 321 159 317 160 Q 308 166 312 260 L 313 284 Z"></path>
      </clipPath>
      <path clip-path="url(#make-me-a-hanzi-clip-9)" d="M 265 425 L 284 411 L 298 390 L 294 135 L 299 127 L 319 133 L 378 178" fill="none" id="make-me-a-hanzi-animation-9" stroke-dasharray="536 1072" stroke-linecap="round"></path>
    
      <clipPath id="make-me-a-hanzi-clip-10">
        <path d="M 319 360 L 320 360 Q 362 333 373 336 Q 382 337 382 349 Q 381 356 372 366 Q 356 382 322 377 C 292 373 291 370 319 360 Z"></path>
      </clipPath>
      <path clip-path="url(#make-me-a-hanzi-clip-10)" d="M 330 371 L 335 363 L 370 348" fill="none" id="make-me-a-hanzi-animation-10" stroke-dasharray="176 352" stroke-linecap="round"></path>
    
      <clipPath id="make-me-a-hanzi-clip-11">
        <path d="M 312 260 Q 360 230 372 231 Q 381 232 382 246 Q 381 255 372 267 Q 356 283 313 284 C 283 285 287 276 312 260 Z"></path>
      </clipPath>
      <path clip-path="url(#make-me-a-hanzi-clip-11)" d="M 322 278 L 328 266 L 356 256 L 370 242" fill="none" id="make-me-a-hanzi-animation-11" stroke-dasharray="191 382" stroke-linecap="round"></path>
    
      <clipPath id="make-me-a-hanzi-clip-12">
        <path d="M 384 414 Q 403 377 406 337 Q 419 184 467 118 Q 516 49 640 13 Q 728 -9 834 -4 Q 910 0 960 27 Q 976 31 965 58 Q 944 113 933 189 Q 934 202 926 210 Q 919 214 915 206 Q 875 71 849 63 Q 830 50 762 51 Q 680 51 628 69 Q 499 111 467 203 Q 454 251 453 328 Q 452 362 459 379 Q 469 395 438 421 Q 404 451 387 446 Q 371 440 384 414 Z"></path>
      </clipPath>
      <path clip-path="url(#make-me-a-hanzi-clip-12)" d="M 391 433 L 415 409 L 429 383 L 430 310 L 442 225 L 454 184 L 475 143 L 496 117 L 535 85 L 604 50 L 679 30 L 764 23 L 840 26 L 884 41 L 912 62 L 923 202" fill="none" id="make-me-a-hanzi-animation-12" stroke-dasharray="1061 2122" stroke-linecap="round"></path>
    
      <clipPath id="make-me-a-hanzi-clip-13">
        <path d="M 590 578 Q 611 609 636 650 Q 649 677 662 690 Q 669 700 665 711 Q 661 721 635 739 Q 613 752 596 752 Q 580 749 588 731 Q 604 704 551 594 Q 526 545 488 490 Q 481 481 478 476 Q 477 466 488 469 Q 522 481 577 561 L 590 578 Z"></path>
      </clipPath>
      <path clip-path="url(#make-me-a-hanzi-clip-13)" d="M 597 740 L 617 721 L 626 702 L 615 672 L 546 546 L 518 507 L 485 476" fill="none" id="make-me-a-hanzi-animation-13" stroke-dasharray="446 892" stroke-linecap="round"></path>
    
      <clipPath id="make-me-a-hanzi-clip-14">
        <path d="M 577 561 Q 581 561 584 560 Q 605 554 686 565 Q 761 577 785 576 Q 795 576 797 572 Q 809 551 806 390 Q 800 273 769 206 Q 757 178 739 172 Q 729 171 676 186 Q 667 189 667 184 Q 666 180 676 172 Q 710 135 724 108 Q 731 92 742 92 Q 781 95 821 175 Q 855 259 865 508 Q 865 538 882 558 Q 894 571 892 578 Q 891 585 873 597 Q 849 613 817 623 Q 799 629 735 609 Q 729 609 725 607 Q 658 594 590 578 C 561 571 547 565 577 561 Z"></path>
      </clipPath>
      <path clip-path="url(#make-me-a-hanzi-clip-14)" d="M 581 565 L 784 599 L 816 594 L 840 569 L 828 336 L 816 261 L 798 197 L 770 151 L 751 136 L 688 172 L 685 179 L 673 179" fill="none" id="make-me-a-hanzi-animation-14" stroke-dasharray="947 1894" stroke-linecap="round"></path>
    
      <clipPath id="make-me-a-hanzi-clip-15">
        <path d="M 545 429 Q 536 433 516 435 Q 507 438 504 433 Q 500 429 506 416 Q 528 374 543 304 Q 546 282 559 269 Q 574 253 577 264 Q 580 273 579 285 L 576 314 Q 561 384 560 406 C 559 424 559 424 545 429 Z"></path>
      </clipPath>
      <path clip-path="url(#make-me-a-hanzi-clip-15)" d="M 511 428 L 538 400 L 569 269" fill="none" id="make-me-a-hanzi-animation-15" stroke-dasharray="302 604" stroke-linecap="round"></path>
    
      <clipPath id="make-me-a-hanzi-clip-16">
        <path d="M 691 326 Q 709 383 727 399 Q 748 421 728 434 Q 712 444 688 461 Q 675 470 628 449 Q 589 437 545 429 C 516 423 530 405 560 406 Q 570 406 583 408 Q 613 414 638 417 Q 656 420 659 413 Q 665 409 658 383 Q 652 359 645 331 C 638 302 682 297 691 326 Z"></path>
      </clipPath>
      <path clip-path="url(#make-me-a-hanzi-clip-16)" d="M 553 426 L 575 420 L 645 437 L 678 434 L 694 415 L 693 405 L 675 351 L 653 336" fill="none" id="make-me-a-hanzi-animation-16" stroke-dasharray="374 748" stroke-linecap="round"></path>
    
      <clipPath id="make-me-a-hanzi-clip-17">
        <path d="M 579 285 Q 585 284 593 286 Q 627 293 702 298 Q 711 299 712 306 Q 712 313 691 326 C 672 338 672 338 645 331 Q 606 321 576 314 C 547 307 549 287 579 285 Z"></path>
      </clipPath>
      <path clip-path="url(#make-me-a-hanzi-clip-17)" d="M 585 293 L 598 304 L 642 312 L 682 313 L 703 307" fill="none" id="make-me-a-hanzi-animation-17" stroke-dasharray="252 504" stroke-linecap="round"></path>
    
  </g>
</svg>