<svg version="1.1" viewBox="0 0 1024 1024" xmlns="http://www.w3.org/2000/svg">
  <g stroke="lightgray" stroke-dasharray="1,1" stroke-width="1" transform="scale(4, 4)">
    <line x1="0" y1="0" x2="256" y2="256"/>
    <line x1="256" y1="0" x2="0" y2="256"/>
    <line x1="128" y1="0" x2="128" y2="256"/>
    <line x1="0" y1="128" x2="256" y2="128"/>
  </g>
  <g transform="scale(1, -1) translate(0, -900)">
    <style type="text/css">
        .stroke1 {fill: #BF0909;}
        .stroke2 {fill: #BFBF09;}
        .stroke3 {fill: #09BF09;}
        .stroke4 {fill: #09BFBF;}
        .stroke5 {fill: #0909BF;}
        .stroke6 {fill: #BF09BF;}
        .stroke7 {fill: #42005e;}
        .stroke8 {fill: #ff3333;}
        .stroke9 {fill: #BFBFBF;}
        .stroke10 {fill: #00a53f;}
        .stroke11 {fill: #fff000;}
        .stroke12 {fill: #6600a5;}
        .stroke13 {fill: #0053a5;}
        .stroke14 {fill: #62c22b;}
        .stroke15 {fill: #BF09BF;}
        .stroke16 {fill: #BF0909;}
        .stroke17 {fill: #BFBF09;}
        .stroke18 {fill: #09BF09;}
        .stroke19 {fill: #09BFBF;}
        .stroke20 {fill: #0909BF;}
        text {
            font-family: Helvetica;
            font-size: 50px;
            fill: #FFFFFF;
            paint-order: stroke;
            stroke: #000000;
            stroke-width: 4px;
            stroke-linecap: butt;
            stroke-linejoin: miter;
            font-weight: 800;
        }
    </style>

    <path d="M 616 802 Q 641 781 670 757 Q 683 745 698 746 Q 708 747 713 760 Q 717 775 707 803 Q 695 830 609 847 Q 593 850 588 847 Q 584 843 585 831 Q 589 821 616 802 Z" class="stroke1"/>
    <path d="M 496 636 Q 532 621 576 631 Q 682 653 793 675 Q 842 688 851 694 Q 858 701 855 709 Q 848 719 822 727 Q 798 733 704 701 Q 589 671 496 662 Q 489 661 487 659 C 458 651 468 646 496 636 Z" class="stroke2"/>
    <path d="M 487 659 Q 472 672 448 683 Q 430 693 418 688 Q 406 681 413 668 Q 429 643 431 588 Q 413 380 394 304 Q 387 279 378 253 Q 350 172 262 25 Q 258 19 256 13 Q 253 3 263 5 Q 293 11 369 129 Q 385 157 400 189 Q 460 324 482 560 Q 485 617 496 636 C 501 649 501 649 487 659 Z" class="stroke3"/>
    <path d="M 530 547 Q 523 551 512 552 Q 502 555 498 551 Q 494 547 500 532 Q 528 465 543 354 Q 544 320 563 298 Q 576 279 582 292 Q 585 302 586 318 L 585 341 Q 584 353 582 365 Q 560 491 557 521 C 555 537 555 537 530 547 Z" class="stroke4"/>
    <path d="M 764 345 Q 782 320 797 314 Q 807 307 819 327 Q 832 354 853 493 Q 860 521 879 543 Q 889 553 880 566 Q 867 579 828 601 Q 812 608 628 566 Q 574 554 530 547 C 500 542 528 512 557 521 Q 587 531 635 540 L 673 548 Q 779 573 795 559 Q 808 544 807 528 Q 788 377 772 366 C 762 348 762 348 764 345 Z" class="stroke5"/>
    <path d="M 701 438 Q 726 444 750 447 Q 769 451 761 462 Q 751 474 730 476 Q 718 477 702 473 L 655 459 Q 624 449 597 439 Q 584 435 601 423 Q 608 419 624 422 Q 639 426 655 428 L 701 438 Z" class="stroke6"/>
    <path d="M 698 335 Q 731 342 764 345 C 794 348 797 349 772 366 Q 765 372 753 374 Q 713 380 699 367 L 655 357 Q 618 350 585 341 C 556 333 556 314 586 318 Q 589 318 654 328 L 698 335 Z" class="stroke7"/>
    <path d="M 693 103 Q 693 155 695 204 L 695 247 Q 696 293 698 335 L 699 367 Q 699 404 701 438 L 702 473 Q 703 488 704 499 Q 711 517 702 526 Q 687 539 673 548 C 648 565 624 568 635 540 Q 654 495 655 459 L 655 428 Q 655 403 655 357 L 654 328 Q 653 289 653 237 L 652 196 Q 652 151 652 97 C 652 67 693 73 693 103 Z" class="stroke8"/>
    <path d="M 695 204 Q 735 214 781 221 Q 817 228 823 234 Q 830 241 827 249 Q 820 259 794 267 Q 770 273 695 247 L 653 237 Q 604 228 545 222 Q 511 216 535 201 Q 565 182 636 194 Q 642 195 652 196 L 695 204 Z" class="stroke9"/>
    <path d="M 652 97 Q 561 87 453 74 Q 431 73 447 55 Q 460 42 479 35 Q 500 29 516 34 Q 642 65 890 65 Q 903 65 918 64 Q 937 64 943 72 Q 947 84 932 98 Q 875 140 809 123 Q 760 116 693 103 L 652 97 Z" class="stroke10"/>
    <text x="593" y="841" style="transform-origin:593px 841px; transform:scale(1,-1);">1</text>
    <text x="493" y="655" style="transform-origin:493px 655px; transform:scale(1,-1);">2</text>
    <text x="423" y="676" style="transform-origin:423px 676px; transform:scale(1,-1);">3</text>
    <text x="505" y="546" style="transform-origin:505px 546px; transform:scale(1,-1);">4</text>
    <text x="537" y="545" style="transform-origin:537px 545px; transform:scale(1,-1);">5</text>
    <text x="600" y="431" style="transform-origin:600px 431px; transform:scale(1,-1);">6</text>
    <text x="587" y="324" style="transform-origin:587px 324px; transform:scale(1,-1);">7</text>
    <text x="643" y="535" style="transform-origin:643px 535px; transform:scale(1,-1);">8</text>
    <text x="537" y="213" style="transform-origin:537px 213px; transform:scale(1,-1);">9</text>
    <text x="450" y="65" style="transform-origin:450px 65px; transform:scale(1,-1);">10</text></g>
</svg>