<svg version="1.1" viewBox="0 0 1024 1024" xmlns="http://www.w3.org/2000/svg">
  <g stroke="lightgray" stroke-dasharray="1,1" stroke-width="1" transform="scale(4, 4)">
    <line x1="0" y1="0" x2="256" y2="256"/>
    <line x1="256" y1="0" x2="0" y2="256"/>
    <line x1="128" y1="0" x2="128" y2="256"/>
    <line x1="0" y1="128" x2="256" y2="128"/>
  </g>
  <g transform="scale(1, -1) translate(0, -900)">
    <style type="text/css">
        .stroke1 {fill: #BF0909;}
        .stroke2 {fill: #BFBF09;}
        .stroke3 {fill: #09BF09;}
        .stroke4 {fill: #09BFBF;}
        .stroke5 {fill: #0909BF;}
        .stroke6 {fill: #BF09BF;}
        .stroke7 {fill: #42005e;}
        .stroke8 {fill: #ff3333;}
        .stroke9 {fill: #BFBFBF;}
        .stroke10 {fill: #00a53f;}
        .stroke11 {fill: #fff000;}
        .stroke12 {fill: #6600a5;}
        .stroke13 {fill: #0053a5;}
        .stroke14 {fill: #62c22b;}
        .stroke15 {fill: #BF09BF;}
        .stroke16 {fill: #BF0909;}
        .stroke17 {fill: #BFBF09;}
        .stroke18 {fill: #09BF09;}
        .stroke19 {fill: #09BFBF;}
        .stroke20 {fill: #0909BF;}
        text {
            font-family: Helvetica;
            font-size: 50px;
            fill: #FFFFFF;
            paint-order: stroke;
            stroke: #000000;
            stroke-width: 4px;
            stroke-linecap: butt;
            stroke-linejoin: miter;
            font-weight: 800;
        }
    </style>

    <path d="M 224 522 Q 270 585 321 669 Q 348 721 372 745 Q 382 757 376 771 Q 372 784 341 807 Q 313 826 293 825 Q 274 824 283 800 Q 299 767 286 738 Q 249 642 191 553 Q 136 468 58 372 Q 48 362 46 355 Q 42 343 57 346 Q 94 355 195 485 L 224 522 Z" class="stroke1"/>
    <path d="M 195 485 Q 213 425 214 395 Q 207 257 203 233 Q 196 181 181 127 Q 166 78 203 30 Q 204 27 208 24 Q 227 8 239 36 Q 254 78 254 126 Q 260 379 270 437 Q 277 465 267 476 Q 249 498 235 512 Q 231 518 224 522 C 202 542 187 514 195 485 Z" class="stroke2"/>
    <path d="M 453 702 Q 437 714 411 721 Q 392 730 378 724 Q 368 715 375 702 Q 393 678 401 627 Q 401 608 404 583 Q 413 412 385 281 Q 358 173 292 40 Q 288 33 286 26 Q 285 16 295 18 Q 328 30 390 154 Q 403 184 415 217 Q 460 359 461 590 Q 461 642 463 660 C 465 690 465 695 453 702 Z" class="stroke3"/>
    <path d="M 619 694 Q 674 707 740 717 Q 764 724 776 711 Q 792 702 795 631 Q 807 393 788 124 Q 787 84 771 74 Q 756 65 687 88 Q 669 92 670 83 Q 670 76 683 68 Q 744 16 776 -24 Q 797 -45 810 -43 Q 823 -40 836 -11 Q 854 35 855 105 Q 843 643 864 687 Q 877 709 866 722 Q 856 738 806 762 Q 782 775 731 756 Q 599 723 453 702 C 423 698 434 654 463 660 Q 470 660 481 662 Q 523 674 571 681 L 619 694 Z" class="stroke4"/>
    <path d="M 634 531 Q 736 553 739 556 Q 746 563 743 570 Q 736 580 711 586 Q 683 592 636 573 L 591 562 Q 557 555 515 552 Q 484 548 507 532 Q 546 511 592 523 L 634 531 Z" class="stroke5"/>
    <path d="M 627 451 Q 630 491 634 531 L 636 573 Q 637 591 639 608 Q 643 629 645 643 Q 654 671 638 685 Q 628 691 619 694 C 591 705 555 706 571 681 Q 586 659 587 644 Q 590 605 591 562 L 592 523 Q 592 484 592 442 C 592 412 625 421 627 451 Z" class="stroke6"/>
    <path d="M 592 442 Q 538 430 492 418 Q 474 414 496 398 Q 506 391 530 393 Q 642 412 725 423 Q 750 426 741 440 Q 731 456 703 461 Q 673 467 627 451 L 592 442 Z" class="stroke7"/>
    <path d="M 531 326 Q 521 332 500 337 Q 490 341 487 337 Q 481 333 487 318 Q 505 269 511 191 Q 512 167 523 151 Q 536 132 542 144 Q 548 157 548 182 L 546 213 Q 542 282 542 302 C 542 320 542 320 531 326 Z" class="stroke8"/>
    <path d="M 702 226 Q 720 286 739 303 Q 760 325 740 338 Q 724 348 700 365 Q 682 375 640 352 Q 603 340 531 326 C 502 320 512 298 542 302 Q 549 303 555 304 Q 600 314 639 322 Q 664 328 671 317 Q 677 313 670 287 Q 664 262 656 230 C 649 201 693 197 702 226 Z" class="stroke9"/>
    <path d="M 548 182 Q 557 181 567 182 Q 615 189 715 192 Q 725 193 727 201 Q 727 208 702 226 C 688 236 685 236 656 230 Q 595 218 546 213 C 516 210 518 184 548 182 Z" class="stroke10"/>
    <text x="293" y="810" style="transform-origin:293px 810px; transform:scale(1,-1);">1</text>
    <text x="225" y="512" style="transform-origin:225px 512px; transform:scale(1,-1);">2</text>
    <text x="386" y="713" style="transform-origin:386px 713px; transform:scale(1,-1);">3</text>
    <text x="462" y="697" style="transform-origin:462px 697px; transform:scale(1,-1);">4</text>
    <text x="508" y="543" style="transform-origin:508px 543px; transform:scale(1,-1);">5</text>
    <text x="579" y="676" style="transform-origin:579px 676px; transform:scale(1,-1);">6</text>
    <text x="494" y="408" style="transform-origin:494px 408px; transform:scale(1,-1);">7</text>
    <text x="494" y="330" style="transform-origin:494px 330px; transform:scale(1,-1);">8</text>
    <text x="541" y="323" style="transform-origin:541px 323px; transform:scale(1,-1);">9</text>
    <text x="553" y="190" style="transform-origin:553px 190px; transform:scale(1,-1);">10</text></g>
</svg>