<svg version="1.1" viewBox="0 0 1024 1024" xmlns="http://www.w3.org/2000/svg">
  <g stroke="lightgray" stroke-dasharray="1,1" stroke-width="1" transform="scale(4, 4)">
    <line x1="0" y1="0" x2="256" y2="256"/>
    <line x1="256" y1="0" x2="0" y2="256"/>
    <line x1="128" y1="0" x2="128" y2="256"/>
    <line x1="0" y1="128" x2="256" y2="128"/>
  </g>
  <g transform="scale(1, -1) translate(0, -900)">
    <style type="text/css">
        .stroke1 {fill: #BF0909;}
        .stroke2 {fill: #BFBF09;}
        .stroke3 {fill: #09BF09;}
        .stroke4 {fill: #09BFBF;}
        .stroke5 {fill: #0909BF;}
        .stroke6 {fill: #BF09BF;}
        .stroke7 {fill: #42005e;}
        .stroke8 {fill: #ff3333;}
        .stroke9 {fill: #BFBFBF;}
        .stroke10 {fill: #00a53f;}
        .stroke11 {fill: #fff000;}
        .stroke12 {fill: #6600a5;}
        .stroke13 {fill: #0053a5;}
        .stroke14 {fill: #62c22b;}
        .stroke15 {fill: #BF09BF;}
        .stroke16 {fill: #BF0909;}
        .stroke17 {fill: #BFBF09;}
        .stroke18 {fill: #09BF09;}
        .stroke19 {fill: #09BFBF;}
        .stroke20 {fill: #0909BF;}
        text {
            font-family: Helvetica;
            font-size: 50px;
            fill: #FFFFFF;
            paint-order: stroke;
            stroke: #000000;
            stroke-width: 4px;
            stroke-linecap: butt;
            stroke-linejoin: miter;
            font-weight: 800;
        }
    </style>

    <path d="M 232 488 Q 278 554 328 643 Q 353 695 378 722 Q 387 734 381 747 Q 377 760 346 783 Q 316 801 297 800 Q 278 797 287 774 Q 303 741 292 712 Q 232 546 70 332 Q 60 322 57 315 Q 54 303 69 306 Q 106 315 207 453 L 232 488 Z" class="stroke1"/>
    <path d="M 207 453 Q 228 387 228 357 Q 228 210 204 111 Q 192 60 226 21 Q 227 18 230 16 Q 246 0 258 26 Q 273 66 272 111 Q 269 352 276 407 Q 283 434 274 444 Q 237 484 232 488 C 211 509 198 482 207 453 Z" class="stroke2"/>
    <path d="M 572 753 Q 600 737 630 714 Q 646 704 663 707 Q 673 708 677 724 Q 678 740 664 769 Q 655 787 624 795 Q 549 810 535 799 Q 531 795 535 781 Q 541 771 572 753 Z" class="stroke3"/>
    <path d="M 750 514 Q 777 575 806 596 Q 822 614 808 631 Q 733 692 683 660 Q 593 629 485 612 C 455 607 472 579 502 583 Q 517 583 687 621 Q 706 625 715 618 Q 724 606 699 518 C 691 489 737 487 750 514 Z" class="stroke4"/>
    <path d="M 471 450 Q 480 441 504 445 Q 585 464 761 484 Q 771 485 772 493 Q 772 500 750 514 C 732 526 728 525 699 518 Q 575 488 476 474 C 446 470 445 465 471 450 Z" class="stroke5"/>
    <path d="M 437 336 Q 455 379 471 450 L 476 474 Q 489 549 502 583 C 506 596 506 596 485 612 Q 475 621 461 628 Q 445 638 433 635 Q 423 631 427 617 Q 439 593 436 553 Q 417 390 381 308 Q 345 227 283 143 Q 279 137 276 132 Q 273 123 283 124 Q 322 133 388 232 Q 394 244 401 254 Q 413 276 424 302 L 437 336 Z" class="stroke6"/>
    <path d="M 441 337 Q 437 337 437 336 C 409 347 415 330 424 302 Q 448 236 422 124 Q 401 75 430 42 Q 437 32 445 37 Q 469 58 471 136 Q 471 268 475 299 C 478 329 462 358 441 337 Z" class="stroke7"/>
    <path d="M 679 349 Q 787 367 805 348 Q 812 339 808 325 Q 815 117 801 86 Q 798 76 785 78 Q 755 81 723 84 Q 696 84 716 69 Q 786 24 815 -10 Q 828 -25 842 -12 Q 858 7 866 36 Q 876 67 867 235 Q 863 296 880 329 Q 893 348 888 357 Q 881 369 830 399 Q 812 412 797 406 Q 769 396 719 385 Q 571 366 515 351 Q 473 341 441 337 C 411 333 446 290 475 299 Q 481 300 489 303 Q 508 310 537 319 L 563 326 Q 593 338 650 344 L 679 349 Z" class="stroke8"/>
    <path d="M 703 205 Q 733 209 761 212 Q 785 215 777 228 Q 767 244 742 249 Q 727 253 705 249 L 662 242 Q 625 235 589 226 L 551 219 Q 523 215 496 209 Q 480 206 499 190 Q 503 186 552 185 L 589 190 Q 626 196 662 200 L 703 205 Z" class="stroke9"/>
    <path d="M 537 319 Q 547 309 551 219 L 552 185 Q 552 121 561 103 Q 571 84 578 95 Q 587 116 589 190 L 589 226 Q 589 283 591 298 Q 592 308 589 313 Q 582 319 563 326 C 535 337 526 341 537 319 Z" class="stroke10"/>
    <path d="M 665 111 Q 668 93 673 86 Q 677 82 682 83 Q 703 101 703 205 L 705 249 Q 706 292 713 314 Q 716 327 706 333 Q 690 345 679 349 C 652 361 641 366 650 344 L 656 329 Q 662 320 662 242 L 662 200 Q 663 190 663 178 Q 663 129 665 111 Z" class="stroke11"/>
    <text x="299" y="784" style="transform-origin:299px 784px; transform:scale(1,-1);">1</text>
    <text x="230" y="481" style="transform-origin:230px 481px; transform:scale(1,-1);">2</text>
    <text x="541" y="793" style="transform-origin:541px 793px; transform:scale(1,-1);">3</text>
    <text x="494" y="611" style="transform-origin:494px 611px; transform:scale(1,-1);">4</text>
    <text x="479" y="455" style="transform-origin:479px 455px; transform:scale(1,-1);">5</text>
    <text x="438" y="623" style="transform-origin:438px 623px; transform:scale(1,-1);">6</text>
    <text x="441" y="328" style="transform-origin:441px 328px; transform:scale(1,-1);">7</text>
    <text x="448" y="335" style="transform-origin:448px 335px; transform:scale(1,-1);">8</text>
    <text x="498" y="200" style="transform-origin:498px 200px; transform:scale(1,-1);">9</text>
    <text x="544" y="320" style="transform-origin:544px 320px; transform:scale(1,-1);">10</text>
    <text x="658" y="343" style="transform-origin:658px 343px; transform:scale(1,-1);">11</text></g>
</svg>