<svg version="1.1" viewBox="0 0 1024 1024" xmlns="http://www.w3.org/2000/svg">
  <g stroke="lightgray" stroke-dasharray="1,1" stroke-width="1" transform="scale(4, 4)">
    <line x1="0" y1="0" x2="256" y2="256"/>
    <line x1="256" y1="0" x2="0" y2="256"/>
    <line x1="128" y1="0" x2="128" y2="256"/>
    <line x1="0" y1="128" x2="256" y2="128"/>
  </g>
  <g transform="scale(1, -1) translate(0, -900)">
    <style type="text/css">
        .stroke1 {fill: #BF0909;}
        .stroke2 {fill: #BFBF09;}
        .stroke3 {fill: #09BF09;}
        .stroke4 {fill: #09BFBF;}
        .stroke5 {fill: #0909BF;}
        .stroke6 {fill: #BF09BF;}
        .stroke7 {fill: #42005e;}
        .stroke8 {fill: #ff3333;}
        .stroke9 {fill: #BFBFBF;}
        .stroke10 {fill: #00a53f;}
        .stroke11 {fill: #fff000;}
        .stroke12 {fill: #6600a5;}
        .stroke13 {fill: #0053a5;}
        .stroke14 {fill: #62c22b;}
        .stroke15 {fill: #BF09BF;}
        .stroke16 {fill: #BF0909;}
        .stroke17 {fill: #BFBF09;}
        .stroke18 {fill: #09BF09;}
        .stroke19 {fill: #09BFBF;}
        .stroke20 {fill: #0909BF;}
        text {
            font-family: Helvetica;
            font-size: 50px;
            fill: #FFFFFF;
            paint-order: stroke;
            stroke: #000000;
            stroke-width: 4px;
            stroke-linecap: butt;
            stroke-linejoin: miter;
            font-weight: 800;
        }
    </style>

    <path d="M 342 782 Q 372 757 403 726 Q 418 713 435 713 Q 447 714 452 729 Q 458 745 447 777 Q 435 811 336 835 Q 320 839 312 835 Q 306 831 308 817 Q 312 804 342 782 Z" class="stroke1"/>
    <path d="M 305 383 Q 339 426 377 478 Q 416 533 466 569 Q 484 582 470 599 Q 448 615 416 628 Q 391 638 372 626 Q 284 563 122 557 Q 109 560 105 551 Q 102 539 118 528 Q 154 504 184 503 Q 208 509 333 560 Q 351 567 356 559 Q 360 549 347 526 Q 262 378 77 213 Q 61 201 64 197 Q 67 194 81 199 Q 174 239 278 352 L 305 383 Z" class="stroke2"/>
    <path d="M 278 352 Q 312 283 278 117 Q 260 72 296 19 Q 297 16 302 12 Q 318 -4 330 22 Q 345 62 344 107 Q 343 267 348 303 Q 355 330 346 340 Q 322 365 305 383 C 284 405 266 380 278 352 Z" class="stroke3"/>
    <path d="M 429 370 Q 478 406 505 420 Q 518 424 514 432 Q 510 444 494 457 Q 479 470 462 471 Q 452 470 452 456 Q 455 444 413 377 C 397 352 405 352 429 370 Z" class="stroke4"/>
    <path d="M 413 377 Q 380 395 368 391 Q 364 388 364 378 Q 367 369 386 351 Q 414 326 442 294 Q 452 284 464 283 Q 473 283 477 293 Q 481 303 477 327 Q 473 346 445 364 Q 438 368 429 370 L 413 377 Z" class="stroke5"/>
    <path d="M 658 531 Q 725 547 792 554 Q 805 555 809 548 Q 818 532 815 485 Q 805 317 775 228 Q 760 173 742 155 Q 730 142 705 149 Q 671 159 640 169 Q 616 176 633 154 Q 679 105 705 65 Q 715 44 737 50 Q 756 54 781 82 Q 853 157 870 442 Q 874 505 898 543 Q 914 564 905 573 Q 890 592 856 606 Q 831 619 805 607 Q 682 555 531 548 Q 515 549 514 541 Q 513 532 532 520 Q 554 504 577 512 Q 590 516 605 519 L 658 531 Z" class="stroke6"/>
    <path d="M 605 519 Q 629 386 520 228 Q 517 225 516 222 Q 485 174 402 90 Q 395 81 402 79 Q 409 78 420 84 Q 483 118 532 171 Q 619 256 667 435 Q 677 463 689 492 Q 696 502 689 512 Q 682 521 658 531 C 631 544 601 549 605 519 Z" class="stroke7"/>
    <text x="319" y="826" style="transform-origin:319px 826px; transform:scale(1,-1);">1</text>
    <text x="115" y="547" style="transform-origin:115px 547px; transform:scale(1,-1);">2</text>
    <text x="305" y="374" style="transform-origin:305px 374px; transform:scale(1,-1);">3</text>
    <text x="464" y="459" style="transform-origin:464px 459px; transform:scale(1,-1);">4</text>
    <text x="373" y="382" style="transform-origin:373px 382px; transform:scale(1,-1);">5</text>
    <text x="523" y="539" style="transform-origin:523px 539px; transform:scale(1,-1);">6</text>
    <text x="613" y="513" style="transform-origin:613px 513px; transform:scale(1,-1);">7</text></g>
</svg>