<svg version="1.1" viewBox="0 0 1024 1024" xmlns="http://www.w3.org/2000/svg">
  <g stroke="lightgray" stroke-dasharray="1,1" stroke-width="1" transform="scale(4, 4)">
    <line x1="0" y1="0" x2="256" y2="256"/>
    <line x1="256" y1="0" x2="0" y2="256"/>
    <line x1="128" y1="0" x2="128" y2="256"/>
    <line x1="0" y1="128" x2="256" y2="128"/>
  </g>
  <g transform="scale(1, -1) translate(0, -900)">
    <style type="text/css">
        .stroke1 {fill: #BF0909;}
        .stroke2 {fill: #BFBF09;}
        .stroke3 {fill: #09BF09;}
        .stroke4 {fill: #09BFBF;}
        .stroke5 {fill: #0909BF;}
        .stroke6 {fill: #BF09BF;}
        .stroke7 {fill: #42005e;}
        .stroke8 {fill: #ff3333;}
        .stroke9 {fill: #BFBFBF;}
        .stroke10 {fill: #00a53f;}
        .stroke11 {fill: #fff000;}
        .stroke12 {fill: #6600a5;}
        .stroke13 {fill: #0053a5;}
        .stroke14 {fill: #62c22b;}
        .stroke15 {fill: #BF09BF;}
        .stroke16 {fill: #BF0909;}
        .stroke17 {fill: #BFBF09;}
        .stroke18 {fill: #09BF09;}
        .stroke19 {fill: #09BFBF;}
        .stroke20 {fill: #0909BF;}
        text {
            font-family: Helvetica;
            font-size: 50px;
            fill: #FFFFFF;
            paint-order: stroke;
            stroke: #000000;
            stroke-width: 4px;
            stroke-linecap: butt;
            stroke-linejoin: miter;
            font-weight: 800;
        }
    </style>

    <path d="M 381 613 Q 421 625 467 635 Q 498 644 504 649 Q 513 656 508 665 Q 501 675 472 682 Q 442 686 390 664 L 336 646 Q 290 636 239 628 Q 205 621 230 606 Q 278 585 328 601 L 331 601 L 381 613 Z" class="stroke1"/>
    <path d="M 360 501 Q 370 559 381 613 L 390 664 Q 394 721 424 796 Q 428 806 411 823 Q 378 845 356 851 Q 340 855 332 849 Q 323 842 330 827 Q 346 796 345 777 Q 342 714 336 646 L 331 601 Q 325 549 317 490 C 313 460 355 471 360 501 Z" class="stroke2"/>
    <path d="M 222 474 Q 209 477 184 478 Q 171 479 169 475 Q 163 468 174 453 Q 201 414 223 346 Q 229 327 243 314 Q 262 295 266 310 Q 267 314 267 320 L 265 350 Q 258 365 243 443 C 238 471 238 471 222 474 Z" class="stroke3"/>
    <path d="M 470 375 Q 498 433 527 449 Q 545 467 531 485 Q 456 546 404 517 Q 382 510 360 501 L 317 490 Q 271 481 222 474 C 192 470 214 436 243 443 Q 250 444 263 448 Q 339 463 412 477 Q 431 481 438 474 Q 445 467 442 453 Q 432 414 419 383 C 408 355 457 348 470 375 Z" class="stroke4"/>
    <path d="M 417 341 Q 444 345 477 348 Q 487 349 488 357 Q 488 364 470 375 L 419 383 Q 418 384 416 383 Q 332 361 265 350 C 235 345 237 322 267 320 Q 274 319 284 320 L 311 325 Q 338 332 377 336 L 417 341 Z" class="stroke5"/>
    <path d="M 284 320 Q 284 199 64 25 Q 58 21 57 15 Q 56 11 61 11 Q 133 11 283 186 Q 319 237 342 259 Q 349 268 344 281 Q 332 311 311 325 C 288 344 285 346 284 320 Z" class="stroke6"/>
    <path d="M 377 336 Q 377 335 379 330 Q 389 296 387 261 Q 380 144 390 112 Q 397 75 431 44 Q 545 -43 791 -13 Q 819 -7 851 0 Q 915 19 976 61 Q 995 79 980 105 Q 965 132 942 214 Q 941 230 933 234 Q 926 237 924 219 Q 905 129 888 101 Q 864 71 794 54 Q 721 36 633 41 Q 557 45 499 70 Q 447 97 433 129 Q 414 168 438 305 Q 444 327 417 341 C 395 362 370 365 377 336 Z" class="stroke7"/>
    <path d="M 575 596 Q 603 530 578 367 Q 569 334 596 302 Q 605 292 614 302 Q 635 332 633 375 Q 627 487 641 562 Q 641 565 642 567 Q 649 588 630 598 Q 615 608 600 616 Q 588 620 580 616 Q 573 610 575 596 Z" class="stroke8"/>
    <path d="M 739 713 Q 742 685 742 257 Q 741 239 732 232 Q 729 232 676 235 Q 645 247 647 237 Q 648 230 667 215 Q 719 169 732 144 Q 747 114 760 112 Q 773 111 788 145 Q 804 188 803 259 Q 773 617 806 739 Q 822 769 768 789 Q 735 807 717 800 Q 701 793 716 771 Q 737 746 739 713 Z" class="stroke9"/>
    <text x="232" y="618" style="transform-origin:232px 618px; transform:scale(1,-1);">1</text>
    <text x="342" y="838" style="transform-origin:342px 838px; transform:scale(1,-1);">2</text>
    <text x="178" y="469" style="transform-origin:178px 469px; transform:scale(1,-1);">3</text>
    <text x="229" y="472" style="transform-origin:229px 472px; transform:scale(1,-1);">4</text>
    <text x="271" y="328" style="transform-origin:271px 328px; transform:scale(1,-1);">5</text>
    <text x="292" y="315" style="transform-origin:292px 315px; transform:scale(1,-1);">6</text>
    <text x="384" y="335" style="transform-origin:384px 335px; transform:scale(1,-1);">7</text>
    <text x="587" y="607" style="transform-origin:587px 607px; transform:scale(1,-1);">8</text>
    <text x="725" y="785" style="transform-origin:725px 785px; transform:scale(1,-1);">9</text></g>
</svg>