<svg version="1.1" viewBox="0 0 1024 1024" xmlns="http://www.w3.org/2000/svg">
  <g stroke="lightgray" stroke-dasharray="1,1" stroke-width="1" transform="scale(4, 4)">
    <line x1="0" y1="0" x2="256" y2="256"/>
    <line x1="256" y1="0" x2="0" y2="256"/>
    <line x1="128" y1="0" x2="128" y2="256"/>
    <line x1="0" y1="128" x2="256" y2="128"/>
  </g>
  <g transform="scale(1, -1) translate(0, -900)">
    <style type="text/css">
        .stroke1 {fill: #BF0909;}
        .stroke2 {fill: #BFBF09;}
        .stroke3 {fill: #09BF09;}
        .stroke4 {fill: #09BFBF;}
        .stroke5 {fill: #0909BF;}
        .stroke6 {fill: #BF09BF;}
        .stroke7 {fill: #42005e;}
        .stroke8 {fill: #ff3333;}
        .stroke9 {fill: #BFBFBF;}
        .stroke10 {fill: #00a53f;}
        .stroke11 {fill: #fff000;}
        .stroke12 {fill: #6600a5;}
        .stroke13 {fill: #0053a5;}
        .stroke14 {fill: #62c22b;}
        .stroke15 {fill: #BF09BF;}
        .stroke16 {fill: #BF0909;}
        .stroke17 {fill: #BFBF09;}
        .stroke18 {fill: #09BF09;}
        .stroke19 {fill: #09BFBF;}
        .stroke20 {fill: #0909BF;}
        text {
            font-family: Helvetica;
            font-size: 50px;
            fill: #FFFFFF;
            paint-order: stroke;
            stroke: #000000;
            stroke-width: 4px;
            stroke-linecap: butt;
            stroke-linejoin: miter;
            font-weight: 800;
        }
    </style>

    <path d="M 361 737 Q 401 750 435 767 Q 477 783 513 790 Q 529 791 532 798 Q 536 808 525 818 Q 506 833 465 849 Q 452 856 439 855 Q 432 852 432 842 Q 426 803 232 716 Q 226 715 221 711 Q 217 704 221 700 Q 237 700 319 724 L 361 737 Z" class="stroke1"/>
    <path d="M 392 640 Q 477 656 586 668 Q 599 669 601 675 Q 602 687 587 695 Q 565 705 545 701 Q 457 683 394 670 L 341 659 Q 185 635 117 629 Q 107 628 103 621 Q 100 612 113 602 Q 144 578 181 588 Q 272 616 343 630 L 392 640 Z" class="stroke2"/>
    <path d="M 221 532 Q 211 536 185 540 Q 175 543 171 538 Q 165 532 173 517 Q 201 459 220 366 Q 224 338 240 319 Q 258 298 262 313 Q 263 320 265 331 L 264 357 Q 263 366 261 375 Q 242 472 238 503 C 235 528 235 528 221 532 Z" class="stroke3"/>
    <path d="M 442 363 Q 455 341 468 334 Q 478 327 493 345 Q 506 364 541 478 Q 550 506 572 529 Q 584 539 574 553 Q 561 569 521 594 Q 505 603 440 584 Q 418 583 390 572 L 343 561 Q 319 557 296 550 Q 256 540 221 532 C 192 525 210 493 238 503 Q 280 519 342 533 L 389 544 Q 468 566 489 553 Q 499 543 496 526 Q 468 409 453 394 C 438 369 438 369 442 363 Z" class="stroke4"/>
    <path d="M 387 450 Q 406 456 426 459 Q 445 463 437 474 Q 419 492 388 486 L 342 472 Q 305 459 273 447 Q 260 443 277 432 Q 284 429 341 440 L 387 450 Z" class="stroke5"/>
    <path d="M 384 353 Q 412 359 442 363 C 472 367 480 381 453 394 Q 435 406 385 390 L 339 377 Q 299 367 264 357 C 235 349 235 329 265 331 Q 269 331 275 332 Q 306 339 338 344 L 384 353 Z" class="stroke6"/>
    <path d="M 380 153 Q 380 196 381 237 L 382 279 Q 382 318 384 353 L 385 390 Q 386 421 387 450 L 388 486 Q 388 516 389 544 L 390 572 Q 391 614 392 640 L 394 670 Q 394 677 395 683 Q 402 702 392 713 Q 376 729 361 737 C 336 754 308 752 319 724 Q 338 679 341 659 L 343 630 Q 343 597 343 561 L 342 533 Q 342 508 342 472 L 341 440 Q 340 412 339 377 L 338 344 Q 337 307 336 264 L 335 227 Q 334 187 334 140 C 334 110 380 123 380 153 Z" class="stroke7"/>
    <path d="M 381 237 Q 406 244 434 250 Q 462 257 468 261 Q 475 268 471 275 Q 464 284 441 289 Q 423 292 382 279 L 336 264 Q 254 249 238 246 Q 208 240 230 228 Q 261 212 335 227 L 381 237 Z" class="stroke8"/>
    <path d="M 334 140 Q 261 122 182 101 Q 158 94 120 96 Q 107 95 104 85 Q 103 72 111 62 Q 133 46 167 24 Q 177 20 191 29 Q 245 65 450 140 Q 483 155 516 171 Q 529 178 530 188 Q 526 194 512 192 Q 448 173 380 153 L 334 140 Z" class="stroke9"/>
    <path d="M 734 458 Q 777 468 822 472 Q 835 473 839 467 Q 846 449 843 402 Q 830 230 798 139 Q 782 82 762 64 Q 752 54 730 62 Q 708 69 687 75 Q 665 84 679 62 Q 713 16 731 -20 Q 738 -39 756 -35 Q 777 -32 801 -4 Q 873 71 895 358 Q 899 422 923 460 Q 939 481 930 490 Q 915 508 882 522 Q 858 535 833 523 Q 794 507 741 493 L 679 480 Q 616 470 579 468 Q 563 469 562 461 Q 561 452 580 440 Q 602 425 625 432 Q 647 439 673 444 L 734 458 Z" class="stroke10"/>
    <path d="M 673 444 Q 624 213 473 19 Q 467 13 465 7 Q 461 -5 473 -3 Q 492 -3 532 44 Q 673 171 734 458 L 741 493 Q 741 494 742 496 Q 760 589 766 599 Q 776 614 769 628 Q 753 647 722 665 Q 703 678 689 673 Q 676 667 682 652 Q 700 621 688 539 Q 687 536 687 530 L 679 480 L 673 444 Z" class="stroke11"/>
    <text x="522" y="803" style="transform-origin:522px 803px; transform:scale(1,-1);">1</text>
    <text x="112" y="617" style="transform-origin:112px 617px; transform:scale(1,-1);">2</text>
    <text x="179" y="531" style="transform-origin:179px 531px; transform:scale(1,-1);">3</text>
    <text x="229" y="530" style="transform-origin:229px 530px; transform:scale(1,-1);">4</text>
    <text x="281" y="441" style="transform-origin:281px 441px; transform:scale(1,-1);">5</text>
    <text x="269" y="338" style="transform-origin:269px 338px; transform:scale(1,-1);">6</text>
    <text x="329" y="718" style="transform-origin:329px 718px; transform:scale(1,-1);">7</text>
    <text x="231" y="238" style="transform-origin:231px 238px; transform:scale(1,-1);">8</text>
    <text x="119" y="80" style="transform-origin:119px 80px; transform:scale(1,-1);">9</text>
    <text x="571" y="459" style="transform-origin:571px 459px; transform:scale(1,-1);">10</text>
    <text x="694" y="660" style="transform-origin:694px 660px; transform:scale(1,-1);">11</text></g>
</svg>