<svg version="1.1" viewBox="0 0 1024 1024" xmlns="http://www.w3.org/2000/svg">
  <g stroke="lightgray" stroke-dasharray="1,1" stroke-width="1" transform="scale(4, 4)">
    <line x1="0" y1="0" x2="256" y2="256"/>
    <line x1="256" y1="0" x2="0" y2="256"/>
    <line x1="128" y1="0" x2="128" y2="256"/>
    <line x1="0" y1="128" x2="256" y2="128"/>
  </g>
  <g transform="scale(1, -1) translate(0, -900)">
    <style type="text/css">
        .stroke1 {fill: #BF0909;}
        .stroke2 {fill: #BFBF09;}
        .stroke3 {fill: #09BF09;}
        .stroke4 {fill: #09BFBF;}
        .stroke5 {fill: #0909BF;}
        .stroke6 {fill: #BF09BF;}
        .stroke7 {fill: #42005e;}
        .stroke8 {fill: #ff3333;}
        .stroke9 {fill: #BFBFBF;}
        .stroke10 {fill: #00a53f;}
        .stroke11 {fill: #fff000;}
        .stroke12 {fill: #6600a5;}
        .stroke13 {fill: #0053a5;}
        .stroke14 {fill: #62c22b;}
        .stroke15 {fill: #BF09BF;}
        .stroke16 {fill: #BF0909;}
        .stroke17 {fill: #BFBF09;}
        .stroke18 {fill: #09BF09;}
        .stroke19 {fill: #09BFBF;}
        .stroke20 {fill: #0909BF;}
        text {
            font-family: Helvetica;
            font-size: 50px;
            fill: #FFFFFF;
            paint-order: stroke;
            stroke: #000000;
            stroke-width: 4px;
            stroke-linecap: butt;
            stroke-linejoin: miter;
            font-weight: 800;
        }
    </style>

    <path d="M 292 703 Q 314 699 340 702 Q 520 723 705 744 Q 790 756 804 766 Q 813 773 810 781 Q 804 793 778 802 Q 751 809 723 802 Q 503 747 276 740 C 246 739 262 707 292 703 Z" class="stroke1"/>
    <path d="M 659 594 Q 704 603 783 598 Q 796 597 799 604 Q 803 613 793 624 Q 757 655 678 636 Q 675 636 675 635 L 626 627 Q 568 618 502 607 L 460 601 Q 406 597 350 588 Q 328 587 344 574 Q 375 555 447 568 Q 457 571 470 573 L 506 579 Q 519 586 618 592 L 659 594 Z" class="stroke2"/>
    <path d="M 502 607 Q 499 626 498 642 Q 499 658 482 662 Q 449 677 431 669 Q 418 660 431 646 Q 450 627 460 601 L 470 573 Q 482 528 496 513 Q 508 506 511 515 Q 511 521 506 579 L 502 607 Z" class="stroke3"/>
    <path d="M 675 635 Q 682 651 694 670 Q 706 683 697 691 Q 687 704 659 719 Q 646 726 631 720 Q 622 716 629 705 Q 636 687 626 627 L 618 592 Q 603 529 603 522 Q 604 509 617 519 Q 620 522 659 594 L 675 635 Z" class="stroke4"/>
    <path d="M 522 400 Q 621 421 817 420 Q 835 421 839 429 Q 843 439 829 451 Q 784 485 748 477 Q 678 461 557 440 Q 550 439 544 437 L 479 427 Q 404 417 323 404 Q 304 403 318 387 Q 331 375 347 370 Q 366 366 380 370 Q 417 382 460 389 L 522 400 Z" class="stroke5"/>
    <path d="M 463 315 Q 494 355 519 395 Q 520 398 522 400 L 544 437 Q 556 458 565 468 Q 572 480 569 488 Q 565 498 540 502 Q 515 506 504 503 Q 497 500 497 488 Q 496 464 479 427 L 460 389 Q 409 302 295 180 Q 279 164 301 170 Q 361 191 437 283 L 463 315 Z" class="stroke6"/>
    <path d="M 472 312 Q 469 313 463 315 C 435 324 427 311 437 283 Q 453 237 463 168 Q 464 143 478 127 Q 493 106 498 120 Q 502 130 502 148 L 500 179 Q 490 257 490 282 C 489 306 489 306 472 312 Z" class="stroke7"/>
    <path d="M 719 205 Q 746 268 772 286 Q 788 302 775 320 Q 760 333 712 358 Q 694 365 622 340 Q 558 325 472 312 C 442 307 461 276 490 282 Q 673 318 683 310 L 684 309 Q 691 302 689 287 Q 682 247 672 214 C 664 185 707 178 719 205 Z" class="stroke8"/>
    <path d="M 502 148 Q 514 145 527 148 Q 591 161 728 174 Q 738 175 740 184 Q 740 191 719 205 L 672 214 Q 668 215 663 213 Q 572 189 500 179 C 470 175 472 153 502 148 Z" class="stroke9"/>
    <path d="M 276 740 Q 240 758 225 758 Q 212 759 204 753 Q 195 746 209 729 Q 233 702 234 318 Q 222 68 190 39 Q 171 23 183 4 Q 189 -12 204 -24 Q 219 -37 237 -22 Q 283 26 581 35 Q 765 39 830 30 Q 875 23 877 45 Q 876 60 843 81 Q 810 100 791 100 Q 748 99 413 60 Q 286 39 276 53 Q 267 62 273 180 Q 273 447 287 650 Q 288 689 292 703 C 295 732 295 732 276 740 Z" class="stroke10"/>
    <text x="284" y="736" style="transform-origin:284px 736px; transform:scale(1,-1);">1</text>
    <text x="352" y="579" style="transform-origin:352px 579px; transform:scale(1,-1);">2</text>
    <text x="438" y="658" style="transform-origin:438px 658px; transform:scale(1,-1);">3</text>
    <text x="640" y="711" style="transform-origin:640px 711px; transform:scale(1,-1);">4</text>
    <text x="320" y="396" style="transform-origin:320px 396px; transform:scale(1,-1);">5</text>
    <text x="557" y="483" style="transform-origin:557px 483px; transform:scale(1,-1);">6</text>
    <text x="465" y="305" style="transform-origin:465px 305px; transform:scale(1,-1);">7</text>
    <text x="481" y="311" style="transform-origin:481px 311px; transform:scale(1,-1);">8</text>
    <text x="508" y="172" style="transform-origin:508px 172px; transform:scale(1,-1);">9</text>
    <text x="214" y="744" style="transform-origin:214px 744px; transform:scale(1,-1);">10</text></g>
</svg>