<svg version="1.1" viewBox="0 0 1024 1024" xmlns="http://www.w3.org/2000/svg">
  <g stroke="lightgray" stroke-dasharray="1,1" stroke-width="1" transform="scale(4, 4)">
    <line x1="0" y1="0" x2="256" y2="256"/>
    <line x1="256" y1="0" x2="0" y2="256"/>
    <line x1="128" y1="0" x2="128" y2="256"/>
    <line x1="0" y1="128" x2="256" y2="128"/>
  </g>
  <g transform="scale(1, -1) translate(0, -900)">
    <style type="text/css">
        .stroke1 {fill: #BF0909;}
        .stroke2 {fill: #BFBF09;}
        .stroke3 {fill: #09BF09;}
        .stroke4 {fill: #09BFBF;}
        .stroke5 {fill: #0909BF;}
        .stroke6 {fill: #BF09BF;}
        .stroke7 {fill: #42005e;}
        .stroke8 {fill: #ff3333;}
        .stroke9 {fill: #BFBFBF;}
        .stroke10 {fill: #00a53f;}
        .stroke11 {fill: #fff000;}
        .stroke12 {fill: #6600a5;}
        .stroke13 {fill: #0053a5;}
        .stroke14 {fill: #62c22b;}
        .stroke15 {fill: #BF09BF;}
        .stroke16 {fill: #BF0909;}
        .stroke17 {fill: #BFBF09;}
        .stroke18 {fill: #09BF09;}
        .stroke19 {fill: #09BFBF;}
        .stroke20 {fill: #0909BF;}
        text {
            font-family: Helvetica;
            font-size: 50px;
            fill: #FFFFFF;
            paint-order: stroke;
            stroke: #000000;
            stroke-width: 4px;
            stroke-linecap: butt;
            stroke-linejoin: miter;
            font-weight: 800;
        }
    </style>

    <path d="M 514 639 Q 710 673 736 653 Q 745 647 743 633 Q 700 437 680 412 Q 673 400 658 406 Q 630 413 600 421 Q 572 427 590 407 Q 648 349 669 310 Q 679 294 694 302 Q 715 315 729 342 Q 747 369 780 531 Q 792 592 817 618 Q 833 640 827 649 Q 820 662 765 700 Q 746 716 728 710 Q 697 700 639 691 Q 434 669 357 649 Q 299 636 254 631 Q 229 628 224 617 Q 223 610 241 599 Q 277 575 312 589 Q 366 610 466 631 L 514 639 Z" class="stroke1"/>
    <path d="M 528 141 Q 541 613 542 614 Q 527 629 514 639 C 491 658 453 658 466 631 Q 487 592 488 542 Q 489 500 482 137 C 481 107 527 111 528 141 Z" class="stroke2"/>
    <path d="M 512 91 Q 561 92 608 96 Q 749 105 861 86 Q 886 82 892 92 Q 901 105 888 118 Q 858 148 814 169 Q 804 175 653 151 Q 632 151 528 141 L 482 137 Q 368 131 311 124 Q 248 117 154 118 Q 141 119 138 107 Q 137 94 156 79 Q 204 43 238 56 Q 277 68 410 83 Q 458 89 512 91 Z" class="stroke3"/>
    <text x="232" y="616" style="transform-origin:232px 616px; transform:scale(1,-1);">1</text>
    <text x="473" y="626" style="transform-origin:473px 626px; transform:scale(1,-1);">2</text>
    <text x="151" y="105" style="transform-origin:151px 105px; transform:scale(1,-1);">3</text></g>
</svg>