<svg version="1.1" viewBox="0 0 1024 1024" xmlns="http://www.w3.org/2000/svg">
  <g stroke="lightgray" stroke-dasharray="1,1" stroke-width="1" transform="scale(4, 4)">
    <line x1="0" y1="0" x2="256" y2="256"/>
    <line x1="256" y1="0" x2="0" y2="256"/>
    <line x1="128" y1="0" x2="128" y2="256"/>
    <line x1="0" y1="128" x2="256" y2="128"/>
  </g>
  <g transform="scale(1, -1) translate(0, -900)">
    <style type="text/css">
        .stroke1 {fill: #BF0909;}
        .stroke2 {fill: #BFBF09;}
        .stroke3 {fill: #09BF09;}
        .stroke4 {fill: #09BFBF;}
        .stroke5 {fill: #0909BF;}
        .stroke6 {fill: #BF09BF;}
        .stroke7 {fill: #42005e;}
        .stroke8 {fill: #ff3333;}
        .stroke9 {fill: #BFBFBF;}
        .stroke10 {fill: #00a53f;}
        .stroke11 {fill: #fff000;}
        .stroke12 {fill: #6600a5;}
        .stroke13 {fill: #0053a5;}
        .stroke14 {fill: #62c22b;}
        .stroke15 {fill: #BF09BF;}
        .stroke16 {fill: #BF0909;}
        .stroke17 {fill: #BFBF09;}
        .stroke18 {fill: #09BF09;}
        .stroke19 {fill: #09BFBF;}
        .stroke20 {fill: #0909BF;}
        text {
            font-family: Helvetica;
            font-size: 50px;
            fill: #FFFFFF;
            paint-order: stroke;
            stroke: #000000;
            stroke-width: 4px;
            stroke-linecap: butt;
            stroke-linejoin: miter;
            font-weight: 800;
        }
    </style>

    <path d="M 247 800 Q 248 719 151 637 Q 148 637 111 604 Q 101 591 116 592 Q 165 592 249 671 Q 285 713 320 748 Q 332 758 320 775 Q 284 814 258 815 Q 248 814 247 800 Z" class="stroke1"/>
    <path d="M 476 779 Q 501 758 527 733 Q 542 721 557 722 Q 567 723 573 736 Q 577 752 567 781 Q 561 799 532 811 Q 463 835 448 827 Q 444 823 445 810 Q 449 800 476 779 Z" class="stroke2"/>
    <path d="M 341 674 Q 351 590 203 432 L 185 414 Q 139 369 26 284 Q 17 280 28 276 Q 91 276 220 387 Q 301 463 402 600 Q 412 615 420 621 Q 427 625 427 636 Q 426 646 414 660 Q 381 693 349 689 Q 340 688 341 674 Z" class="stroke3"/>
    <path d="M 420 517 Q 475 486 543 438 Q 559 425 573 424 Q 580 425 584 435 Q 591 448 573 481 Q 561 511 487 529 Q 441 539 415 542 Q 406 545 407 534 Q 408 524 420 517 Z" class="stroke4"/>
    <path d="M 265 345 Q 252 352 225 358 Q 213 362 209 357 Q 202 351 210 335 Q 238 256 249 132 Q 250 95 269 69 Q 285 45 291 61 Q 303 86 296 142 L 291 181 Q 279 281 277 313 C 275 340 275 340 265 345 Z" class="stroke5"/>
    <path d="M 469 206 Q 493 285 520 311 Q 547 339 521 356 Q 499 369 470 391 Q 448 406 399 378 Q 348 359 265 345 C 235 340 248 304 277 313 Q 301 322 393 336 Q 426 343 432 330 Q 441 323 430 284 Q 423 250 412 212 C 404 183 460 177 469 206 Z" class="stroke6"/>
    <path d="M 296 142 Q 303 142 314 144 Q 368 157 483 169 Q 496 170 496 181 Q 496 188 469 206 L 412 212 Q 408 212 408 211 Q 344 192 291 181 C 262 175 266 140 296 142 Z" class="stroke7"/>
    <path d="M 692 588 Q 762 609 816 616 Q 829 617 832 614 Q 845 598 841 550 Q 837 420 809 362 Q 797 334 774 336 Q 750 343 731 352 Q 707 361 723 337 Q 765 294 784 260 Q 808 239 826 261 Q 856 288 874 333 Q 896 385 897 539 Q 898 594 913 623 Q 925 636 918 645 Q 908 655 859 673 Q 840 680 822 666 Q 789 645 666 619 C 637 613 663 580 692 588 Z" class="stroke8"/>
    <path d="M 666 619 Q 645 632 634 634 Q 621 638 606 630 Q 597 621 605 611 Q 627 557 630 538 Q 629 537 630 533 Q 633 386 627 156 Q 624 -48 642 -69 Q 648 -76 655 -74 Q 673 -62 676 -7 Q 683 75 682 157 Q 682 172 681 501 Q 685 544 692 588 C 694 603 692 605 666 619 Z" class="stroke9"/>
    <text x="260" y="802" style="transform-origin:260px 802px; transform:scale(1,-1);">1</text>
    <text x="453" y="821" style="transform-origin:453px 821px; transform:scale(1,-1);">2</text>
    <text x="352" y="678" style="transform-origin:352px 678px; transform:scale(1,-1);">3</text>
    <text x="417" y="532" style="transform-origin:417px 532px; transform:scale(1,-1);">4</text>
    <text x="216" y="349" style="transform-origin:216px 349px; transform:scale(1,-1);">5</text>
    <text x="275" y="343" style="transform-origin:275px 343px; transform:scale(1,-1);">6</text>
    <text x="300" y="149" style="transform-origin:300px 149px; transform:scale(1,-1);">7</text>
    <text x="677" y="620" style="transform-origin:677px 620px; transform:scale(1,-1);">8</text>
    <text x="614" y="620" style="transform-origin:614px 620px; transform:scale(1,-1);">9</text></g>
</svg>