<svg version="1.1" viewBox="0 0 1024 1024" xmlns="http://www.w3.org/2000/svg">
  <g stroke="lightgray" stroke-dasharray="1,1" stroke-width="1" transform="scale(4, 4)">
    <line x1="0" y1="0" x2="256" y2="256"/>
    <line x1="256" y1="0" x2="0" y2="256"/>
    <line x1="128" y1="0" x2="128" y2="256"/>
    <line x1="0" y1="128" x2="256" y2="128"/>
  </g>
  <g transform="scale(1, -1) translate(0, -900)">
    <style type="text/css">
        .stroke1 {fill: #BF0909;}
        .stroke2 {fill: #BFBF09;}
        .stroke3 {fill: #09BF09;}
        .stroke4 {fill: #09BFBF;}
        .stroke5 {fill: #0909BF;}
        .stroke6 {fill: #BF09BF;}
        .stroke7 {fill: #42005e;}
        .stroke8 {fill: #ff3333;}
        .stroke9 {fill: #BFBFBF;}
        .stroke10 {fill: #00a53f;}
        .stroke11 {fill: #fff000;}
        .stroke12 {fill: #6600a5;}
        .stroke13 {fill: #0053a5;}
        .stroke14 {fill: #62c22b;}
        .stroke15 {fill: #BF09BF;}
        .stroke16 {fill: #BF0909;}
        .stroke17 {fill: #BFBF09;}
        .stroke18 {fill: #09BF09;}
        .stroke19 {fill: #09BFBF;}
        .stroke20 {fill: #0909BF;}
        text {
            font-family: Helvetica;
            font-size: 50px;
            fill: #FFFFFF;
            paint-order: stroke;
            stroke: #000000;
            stroke-width: 4px;
            stroke-linecap: butt;
            stroke-linejoin: miter;
            font-weight: 800;
        }
    </style>

    <path d="M 319 700 Q 321 700 324 699 Q 365 684 443 697 L 707 734 Q 776 747 788 755 Q 797 762 794 768 Q 793 768 791 772 Q 786 784 759 792 Q 741 796 686 784 L 622 769 Q 412 729 319 729 Q 314 729 312 727 C 282 723 290 708 319 700 Z" class="stroke1"/>
    <path d="M 312 727 Q 295 742 267 753 Q 251 762 237 760 Q 218 758 227 737 Q 247 706 249 643 Q 231 403 201 302 L 192 273 Q 149 158 63 20 Q 59 14 57 9 Q 53 0 58 -2 Q 62 -4 68 -2 Q 106 12 188 146 L 216 202 Q 284 367 302 580 Q 312 686 319 700 C 324 719 324 719 312 727 Z" class="stroke2"/>
    <path d="M 649 547 Q 651 547 800 566 Q 805 565 811 570 Q 828 580 809 592 L 798 599 Q 764 623 666 593 Q 664 593 662 592 C 633 584 616 579 606 578 Q 603 580 598 578 L 494 559 L 450 553 Q 429 553 321 540 Q 304 537 306 529 L 310 524 Q 341 492 365 496 Q 368 496 373 498 Q 412 508 459 514 L 497 521 Q 563 535 602 540 L 649 547 Z" class="stroke3"/>
    <path d="M 494 559 Q 489 580 490 604 L 492 617 Q 494 629 490 635 Q 486 641 471 649 Q 436 665 413 651 Q 408 645 412 638 Q 425 623 431 613.5 Q 437 604 450 553 L 459 514 Q 475 437 480 425 Q 486 413 492 414 Q 498 414 501 435 L 502 460 Q 502 482 497 521 L 494 559 Z" class="stroke4"/>
    <path d="M 631 480 L 649 547 L 662 592 Q 662 604 676 632 Q 687 653 680 662 Q 674 674 655 687 Q 625 705 612 702 Q 597 699 604 680 Q 615 659 606 578 L 602 540 Q 594 492 592 482 C 587 453 623 451 631 480 Z" class="stroke5"/>
    <path d="M 563 439 Q 570 441 578 442 Q 592 445 637 447 Q 659 449 659 456 Q 660 461 652 467 L 643 476 Q 640 478 631 480 L 592 482 Q 555 468 533 466 Q 512 464 502 460 C 474 450 471 435 501 435 L 521 435 L 563 439 Z" class="stroke6"/>
    <path d="M 402 361 Q 398 364 386 367 Q 357 372 347 368 Q 340 363 343 354 L 347 345 Q 351 339 354 333 Q 370 300 388 245 Q 398 218 410 207 Q 423 192 429 197 Q 430 198 431 201 L 433 220 L 429 248 L 414 332 C 409 357 409 357 402 361 Z" class="stroke7"/>
    <path d="M 749 278 Q 775 327 798 339 Q 811 351 808 365 L 807 367 Q 800 382 772 398 Q 722 429 679 412 Q 636 398 595 387 L 541 377 Q 472 368 402 361 C 372 358 385 326 414 332 Q 473 345 543 353 L 593 361 Q 602 363 668 374 Q 682 377 691 376 Q 715 374 713 351 Q 713 347 711 341 Q 700 306 696 287 C 689 258 734 252 749 278 Z" class="stroke8"/>
    <path d="M 590 237 L 625 241 L 748 250 Q 763 252 766 259 Q 766 265 749 278 C 731 293 726 292 696 287 L 590 269 L 544 261 L 429 248 C 399 245 403 223 433 220 Q 443 218 455 220 Q 517 229 544 233 L 590 237 Z" class="stroke9"/>
    <path d="M 543 174 Q 472 161 417 149 Q 402 147 420 130 Q 430 123 445 123 Q 457 123 543 137 L 587 143 Q 621 150 700 161 Q 702 161 703 161 Q 720 164 717 173 Q 708 191 684 196 Q 645 206 588 184 L 543 174 Z" class="stroke10"/>
    <path d="M 542 91 Q 472 83 402 73 Q 390 71 395 63 Q 396 62 396 61 Q 410 43 443 45 L 445 45 L 542 57 L 585 61 Q 653 71 715 74 Q 719 74 721 74 Q 735 76 732 86 Q 723 104 698 110 Q 679 115 585 98 L 542 91 Z" class="stroke11"/>
    <path d="M 588 184 Q 588 218 590 237 L 590 269 L 593 351 L 593 361 L 595 387 Q 600 400 597 408 Q 592 419 563 439 C 539 457 510 463 521 435 Q 540 385 541 379 L 541 377 L 543 353 Q 544 325 544 261 L 544 233 Q 543 188 543 174 L 543 137 Q 542 98 542 91 L 542 57 L 542 -7 C 542 -37 584 -34 584 -4 Q 584 6 585 61 L 585 98 Q 585 126 587 143 L 588 184 Z" class="stroke12"/>
    <path d="M 542 -7 Q 426 -16 263 -31 Q 249 -31 250 -39 L 253 -45 Q 256 -50 260 -54 Q 282 -76 314 -73 Q 398 -55 472 -45 Q 672 -20 920 -34 Q 927 -34 933 -33 Q 959 -26 935 -1 Q 888 36 835 29 L 815 27 Q 674 8 585 -3 Q 584 -3 584 -4 L 542 -7 Z" class="stroke13"/>
    <text x="317" y="721" style="transform-origin:317px 721px; transform:scale(1,-1);">1</text>
    <text x="237" y="746" style="transform-origin:237px 746px; transform:scale(1,-1);">2</text>
    <text x="313" y="530" style="transform-origin:313px 530px; transform:scale(1,-1);">3</text>
    <text x="423" y="644" style="transform-origin:423px 644px; transform:scale(1,-1);">4</text>
    <text x="615" y="689" style="transform-origin:615px 689px; transform:scale(1,-1);">5</text>
    <text x="506" y="441" style="transform-origin:506px 441px; transform:scale(1,-1);">6</text>
    <text x="353" y="359" style="transform-origin:353px 359px; transform:scale(1,-1);">7</text>
    <text x="410" y="356" style="transform-origin:410px 356px; transform:scale(1,-1);">8</text>
    <text x="437" y="242" style="transform-origin:437px 242px; transform:scale(1,-1);">9</text>
    <text x="419" y="140" style="transform-origin:419px 140px; transform:scale(1,-1);">10</text>
    <text x="402" y="65" style="transform-origin:402px 65px; transform:scale(1,-1);">11</text>
    <text x="529" y="425" style="transform-origin:529px 425px; transform:scale(1,-1);">12</text>
    <text x="259" y="-38" style="transform-origin:259px -38px; transform:scale(1,-1);">13</text></g>
</svg>