<svg version="1.1" viewBox="0 0 1024 1024" xmlns="http://www.w3.org/2000/svg">
  <g stroke="lightgray" stroke-dasharray="1,1" stroke-width="1" transform="scale(4, 4)">
    <line x1="0" y1="0" x2="256" y2="256"/>
    <line x1="256" y1="0" x2="0" y2="256"/>
    <line x1="128" y1="0" x2="128" y2="256"/>
    <line x1="0" y1="128" x2="256" y2="128"/>
  </g>
  <g transform="scale(1, -1) translate(0, -900)">
    <style type="text/css">
        .stroke1 {fill: #BF0909;}
        .stroke2 {fill: #BFBF09;}
        .stroke3 {fill: #09BF09;}
        .stroke4 {fill: #09BFBF;}
        .stroke5 {fill: #0909BF;}
        .stroke6 {fill: #BF09BF;}
        .stroke7 {fill: #42005e;}
        .stroke8 {fill: #ff3333;}
        .stroke9 {fill: #BFBFBF;}
        .stroke10 {fill: #00a53f;}
        .stroke11 {fill: #fff000;}
        .stroke12 {fill: #6600a5;}
        .stroke13 {fill: #0053a5;}
        .stroke14 {fill: #62c22b;}
        .stroke15 {fill: #BF09BF;}
        .stroke16 {fill: #BF0909;}
        .stroke17 {fill: #BFBF09;}
        .stroke18 {fill: #09BF09;}
        .stroke19 {fill: #09BFBF;}
        .stroke20 {fill: #0909BF;}
        text {
            font-family: Helvetica;
            font-size: 50px;
            fill: #FFFFFF;
            paint-order: stroke;
            stroke: #000000;
            stroke-width: 4px;
            stroke-linecap: butt;
            stroke-linejoin: miter;
            font-weight: 800;
        }
    </style>

    <path d="M 152 582 Q 139 588 113 594 Q 101 598 97 593 Q 90 587 98 571 Q 126 496 137 377 Q 138 341 157 316 Q 173 294 179 309 Q 188 330 184 370 L 181 403 Q 166 520 165 552 C 164 577 164 577 152 582 Z" class="stroke1"/>
    <path d="M 325 426 Q 341 529 367 562 Q 391 590 364 605 Q 294 638 293 638 Q 281 638 271 630 Q 232 603 152 582 C 123 574 136 545 165 552 Q 171 553 180 556 Q 220 566 253 575 Q 275 581 282 572 Q 291 566 271 431 C 267 401 320 396 325 426 Z" class="stroke2"/>
    <path d="M 184 370 Q 193 369 204 372 Q 244 384 334 397 Q 344 398 345 408 Q 345 415 325 426 L 271 431 Q 268 431 267 430 Q 219 414 181 403 C 152 395 154 371 184 370 Z" class="stroke3"/>
    <path d="M 497 648 Q 543 633 588 646 Q 681 667 777 688 Q 820 698 827 705 Q 837 714 832 723 Q 823 736 792 743 Q 770 747 652 711 Q 484 678 484 677 C 455 670 468 656 497 648 Z" class="stroke4"/>
    <path d="M 484 677 Q 469 690 447 699 Q 428 711 414 706 Q 402 699 409 684 Q 430 651 423 576 Q 423 432 369 277 Q 330 177 251 55 Q 247 48 244 42 Q 241 32 252 33 Q 286 39 366 163 Q 379 185 392 211 Q 458 355 478 537 Q 487 621 497 648 C 502 665 502 665 484 677 Z" class="stroke5"/>
    <path d="M 665 397 Q 705 407 747 415 Q 760 416 763 410 Q 770 397 768 362 Q 762 233 739 165 Q 727 122 714 108 Q 702 95 675 101 Q 644 107 615 114 Q 593 118 610 99 Q 655 56 679 21 Q 689 2 708 9 Q 724 10 745 34 Q 802 91 824 323 Q 828 375 847 405 Q 863 426 854 436 Q 838 454 803 467 Q 778 480 752 466 Q 718 451 674 437 L 615 421 Q 545 405 505 403 Q 486 404 487 394 Q 486 384 508 372 Q 535 356 558 366 Q 580 373 606 381 L 665 397 Z" class="stroke6"/>
    <path d="M 606 381 Q 578 225 449 62 Q 443 55 441 50 Q 437 40 448 41 Q 476 41 558 147 Q 570 166 584 187 Q 635 281 665 397 L 674 437 Q 698 545 700 551 Q 710 564 704 578 Q 689 597 659 613 Q 641 625 629 621 Q 616 615 622 601 Q 641 558 615 421 L 606 381 Z" class="stroke7"/>
    <text x="104" y="585" style="transform-origin:104px 585px; transform:scale(1,-1);">1</text>
    <text x="162" y="580" style="transform-origin:162px 580px; transform:scale(1,-1);">2</text>
    <text x="189" y="376" style="transform-origin:189px 376px; transform:scale(1,-1);">3</text>
    <text x="489" y="670" style="transform-origin:489px 670px; transform:scale(1,-1);">4</text>
    <text x="421" y="693" style="transform-origin:421px 693px; transform:scale(1,-1);">5</text>
    <text x="498" y="393" style="transform-origin:498px 393px; transform:scale(1,-1);">6</text>
    <text x="633" y="608" style="transform-origin:633px 608px; transform:scale(1,-1);">7</text></g>
</svg>