<svg version="1.1" viewBox="0 0 1024 1024" xmlns="http://www.w3.org/2000/svg">
  <g stroke="lightgray" stroke-dasharray="1,1" stroke-width="1" transform="scale(4, 4)">
    <line x1="0" y1="0" x2="256" y2="256"/>
    <line x1="256" y1="0" x2="0" y2="256"/>
    <line x1="128" y1="0" x2="128" y2="256"/>
    <line x1="0" y1="128" x2="256" y2="128"/>
  </g>
  <g transform="scale(1, -1) translate(0, -900)">
    <style type="text/css">
        .stroke1 {fill: #BF0909;}
        .stroke2 {fill: #BFBF09;}
        .stroke3 {fill: #09BF09;}
        .stroke4 {fill: #09BFBF;}
        .stroke5 {fill: #0909BF;}
        .stroke6 {fill: #BF09BF;}
        .stroke7 {fill: #42005e;}
        .stroke8 {fill: #ff3333;}
        .stroke9 {fill: #BFBFBF;}
        .stroke10 {fill: #00a53f;}
        .stroke11 {fill: #fff000;}
        .stroke12 {fill: #6600a5;}
        .stroke13 {fill: #0053a5;}
        .stroke14 {fill: #62c22b;}
        .stroke15 {fill: #BF09BF;}
        .stroke16 {fill: #BF0909;}
        .stroke17 {fill: #BFBF09;}
        .stroke18 {fill: #09BF09;}
        .stroke19 {fill: #09BFBF;}
        .stroke20 {fill: #0909BF;}
        text {
            font-family: Helvetica;
            font-size: 50px;
            fill: #FFFFFF;
            paint-order: stroke;
            stroke: #000000;
            stroke-width: 4px;
            stroke-linecap: butt;
            stroke-linejoin: miter;
            font-weight: 800;
        }
    </style>

    <path d="M 112 469 Q 102 476 74 481 Q 62 485 59 480 Q 52 476 60 459 Q 88 389 98 274 Q 99 240 117 216 Q 133 194 139 209 Q 146 227 144 259 L 140 291 Q 124 412 124 443 C 123 463 123 463 112 469 Z" class="stroke1"/>
    <path d="M 276 321 Q 292 421 318 453 Q 340 480 316 492 Q 297 502 269 519 Q 248 531 209 502 Q 173 487 112 469 C 83 460 95 437 124 443 Q 133 444 144 448 Q 181 458 214 466 Q 236 472 241 463 Q 251 456 243 414 Q 236 371 226 319 C 220 290 271 291 276 321 Z" class="stroke2"/>
    <path d="M 144 259 Q 150 259 157 261 Q 199 274 292 291 Q 302 292 302 301 Q 302 308 276 321 C 259 330 255 328 226 319 Q 177 303 140 291 C 111 282 114 257 144 259 Z" class="stroke3"/>
    <path d="M 456 446 Q 480 453 513 465 Q 529 471 537 463 Q 546 451 541 425 Q 528 271 507 205 Q 492 153 474 137 Q 458 118 430 131 Q 411 137 385 147 Q 370 151 371 145 Q 372 135 387 123 Q 420 86 437 58 Q 444 39 459 38 Q 475 39 501 61 Q 532 92 549 150 Q 568 216 590 387 Q 597 429 614 453 Q 627 466 623 480 Q 619 493 552 517 Q 533 524 516 511 Q 488 496 466 485 L 407 466 Q 323 454 322 451 Q 318 444 331 437 Q 349 427 398 431 L 456 446 Z" class="stroke4"/>
    <path d="M 398 431 Q 338 224 189 31 Q 183 25 181 19 Q 177 7 189 9 Q 225 15 323 144 Q 344 175 365 211 Q 425 326 456 446 L 466 485 Q 479 542 489 598 Q 504 692 514 719 Q 524 734 518 748 Q 502 767 470 784 Q 451 797 437 793 Q 424 786 430 771 Q 448 743 443 675 Q 422 534 407 466 L 398 431 Z" class="stroke5"/>
    <path d="M 677 453 Q 667 457 649 462 Q 637 466 633 461 Q 626 457 634 439 Q 662 360 670 233 Q 670 196 689 169 Q 705 145 711 161 Q 720 180 719 212 L 716 247 Q 701 394 701 427 C 701 444 701 444 677 453 Z" class="stroke6"/>
    <path d="M 868 272 Q 884 396 916 435 Q 938 462 915 476 Q 894 488 865 505 Q 846 515 826 503 Q 786 478 677 453 C 648 446 672 418 701 427 Q 716 433 801 451 Q 828 458 834 447 Q 844 438 815 272 C 810 242 864 242 868 272 Z" class="stroke7"/>
    <path d="M 719 212 Q 725 212 732 214 Q 780 226 885 237 Q 895 238 897 247 Q 897 256 868 272 C 851 282 844 280 815 272 Q 758 256 716 247 C 687 241 689 210 719 212 Z" class="stroke8"/>
    <text x="67" y="472" style="transform-origin:67px 472px; transform:scale(1,-1);">1</text>
    <text x="122" y="466" style="transform-origin:122px 466px; transform:scale(1,-1);">2</text>
    <text x="150" y="265" style="transform-origin:150px 265px; transform:scale(1,-1);">3</text>
    <text x="325" y="448" style="transform-origin:325px 448px; transform:scale(1,-1);">4</text>
    <text x="443" y="779" style="transform-origin:443px 779px; transform:scale(1,-1);">5</text>
    <text x="640" y="453" style="transform-origin:640px 453px; transform:scale(1,-1);">6</text>
    <text x="688" y="455" style="transform-origin:688px 455px; transform:scale(1,-1);">7</text>
    <text x="725" y="218" style="transform-origin:725px 218px; transform:scale(1,-1);">8</text></g>
</svg>