<svg version="1.1" viewBox="0 0 1024 1024" xmlns="http://www.w3.org/2000/svg">
  <g stroke="lightgray" stroke-dasharray="1,1" stroke-width="1" transform="scale(4, 4)">
    <line x1="0" y1="0" x2="256" y2="256"/>
    <line x1="256" y1="0" x2="0" y2="256"/>
    <line x1="128" y1="0" x2="128" y2="256"/>
    <line x1="0" y1="128" x2="256" y2="128"/>
  </g>
  <g transform="scale(1, -1) translate(0, -900)">
    <style type="text/css">
        .stroke1 {fill: #BF0909;}
        .stroke2 {fill: #BFBF09;}
        .stroke3 {fill: #09BF09;}
        .stroke4 {fill: #09BFBF;}
        .stroke5 {fill: #0909BF;}
        .stroke6 {fill: #BF09BF;}
        .stroke7 {fill: #42005e;}
        .stroke8 {fill: #ff3333;}
        .stroke9 {fill: #BFBFBF;}
        .stroke10 {fill: #00a53f;}
        .stroke11 {fill: #fff000;}
        .stroke12 {fill: #6600a5;}
        .stroke13 {fill: #0053a5;}
        .stroke14 {fill: #62c22b;}
        .stroke15 {fill: #BF09BF;}
        .stroke16 {fill: #BF0909;}
        .stroke17 {fill: #BFBF09;}
        .stroke18 {fill: #09BF09;}
        .stroke19 {fill: #09BFBF;}
        .stroke20 {fill: #0909BF;}
        text {
            font-family: Helvetica;
            font-size: 50px;
            fill: #FFFFFF;
            paint-order: stroke;
            stroke: #000000;
            stroke-width: 4px;
            stroke-linecap: butt;
            stroke-linejoin: miter;
            font-weight: 800;
        }
    </style>

    <path d="M 229 657 Q 260 632 293 602 Q 308 589 324 590 Q 336 590 341 604 Q 345 620 335 651 Q 328 673 294 687 Q 215 714 200 707 Q 194 703 197 689 Q 201 679 229 657 Z" class="stroke1"/>
    <path d="M 180 371 Q 170 370 168 354 Q 168 285 193 264 Q 197 257 207 257 Q 214 257 220 278 Q 230 314 348 496 Q 357 509 357 514 Q 358 523 349 519 Q 337 515 218 395 Q 205 382 180 371 Z" class="stroke2"/>
    <path d="M 491 655 Q 515 692 539 740 Q 551 768 563 782 Q 570 792 564 804 Q 558 814 531 831 Q 506 843 490 841 Q 474 837 483 819 Q 513 777 402 572 Q 395 562 393 556 Q 392 546 404 550 Q 422 556 476 631 L 491 655 Z" class="stroke3"/>
    <path d="M 476 631 Q 495 613 519 622 Q 577 644 643 660 Q 677 670 688 666 Q 701 656 696 646 Q 696 645 667 580 Q 660 570 665 565 Q 669 561 680 571 Q 765 632 804 647 Q 814 648 814 656 Q 815 669 787 683 Q 765 696 744 708 Q 717 723 704 715 Q 625 681 491 655 C 462 649 453 648 476 631 Z" class="stroke4"/>
    <path d="M 560 475 Q 570 503 589 525 Q 601 538 589 549 Q 556 589 531 587 Q 518 586 520 572 Q 533 521 481 425 Q 426 341 347 311 Q 331 304 315 297 Q 302 293 312 287 Q 361 277 428 313 Q 506 352 547 447 Q 548 451 550 453 L 560 475 Z" class="stroke5"/>
    <path d="M 550 453 Q 644 366 744 288 Q 768 269 803 272 Q 869 275 934 296 Q 952 300 952 304 Q 953 311 939 315 Q 761 361 739 371 Q 697 387 565 472 Q 562 475 560 475 C 535 491 528 473 550 453 Z" class="stroke6"/>
    <path d="M 344 224 Q 331 231 295 236 Q 282 240 279 234 Q 272 227 282 211 Q 315 141 335 28 Q 339 -6 359 -28 Q 378 -50 383 -34 Q 387 -18 386 8 L 381 45 Q 359 151 354 190 C 350 220 350 222 344 224 Z" class="stroke7"/>
    <path d="M 652 74 Q 683 173 722 196 Q 741 215 726 235 Q 708 250 653 279 Q 634 288 610 279 Q 502 242 344 224 C 314 220 324 185 354 190 Q 364 191 377 194 Q 483 210 584 228 Q 609 232 620 222 Q 630 212 627 191 Q 614 127 596 75 C 587 47 643 45 652 74 Z" class="stroke8"/>
    <path d="M 386 8 Q 390 8 398 8 Q 483 24 669 32 Q 681 33 682 42 Q 683 51 652 74 C 640 83 626 80 596 75 Q 475 53 381 45 C 351 42 356 8 386 8 Z" class="stroke9"/>
    <text x="205" y="700" style="transform-origin:205px 700px; transform:scale(1,-1);">1</text>
    <text x="204" y="268" style="transform-origin:204px 268px; transform:scale(1,-1);">2</text>
    <text x="492" y="828" style="transform-origin:492px 828px; transform:scale(1,-1);">3</text>
    <text x="487" y="633" style="transform-origin:487px 633px; transform:scale(1,-1);">4</text>
    <text x="531" y="576" style="transform-origin:531px 576px; transform:scale(1,-1);">5</text>
    <text x="560" y="469" style="transform-origin:560px 469px; transform:scale(1,-1);">6</text>
    <text x="288" y="226" style="transform-origin:288px 226px; transform:scale(1,-1);">7</text>
    <text x="354" y="221" style="transform-origin:354px 221px; transform:scale(1,-1);">8</text>
    <text x="388" y="40" style="transform-origin:388px 40px; transform:scale(1,-1);">9</text></g>
</svg>