<svg version="1.1" viewBox="0 0 1024 1024" xmlns="http://www.w3.org/2000/svg">
  <g stroke="lightgray" stroke-dasharray="1,1" stroke-width="1" transform="scale(4, 4)">
    <line x1="0" y1="0" x2="256" y2="256"/>
    <line x1="256" y1="0" x2="0" y2="256"/>
    <line x1="128" y1="0" x2="128" y2="256"/>
    <line x1="0" y1="128" x2="256" y2="128"/>
  </g>
  <g transform="scale(1, -1) translate(0, -900)">
    <style type="text/css">
        .stroke1 {fill: #BF0909;}
        .stroke2 {fill: #BFBF09;}
        .stroke3 {fill: #09BF09;}
        .stroke4 {fill: #09BFBF;}
        .stroke5 {fill: #0909BF;}
        .stroke6 {fill: #BF09BF;}
        .stroke7 {fill: #42005e;}
        .stroke8 {fill: #ff3333;}
        .stroke9 {fill: #BFBFBF;}
        .stroke10 {fill: #00a53f;}
        .stroke11 {fill: #fff000;}
        .stroke12 {fill: #6600a5;}
        .stroke13 {fill: #0053a5;}
        .stroke14 {fill: #62c22b;}
        .stroke15 {fill: #BF09BF;}
        .stroke16 {fill: #BF0909;}
        .stroke17 {fill: #BFBF09;}
        .stroke18 {fill: #09BF09;}
        .stroke19 {fill: #09BFBF;}
        .stroke20 {fill: #0909BF;}
        text {
            font-family: Helvetica;
            font-size: 50px;
            fill: #FFFFFF;
            paint-order: stroke;
            stroke: #000000;
            stroke-width: 4px;
            stroke-linecap: butt;
            stroke-linejoin: miter;
            font-weight: 800;
        }
    </style>

    <path d="M 113 547 Q 101 553 77 557 Q 64 561 61 556 Q 54 550 62 534 Q 93 459 107 340 Q 108 304 128 280 Q 144 258 151 273 Q 160 297 154 341 L 149 374 Q 131 489 130 519 C 129 541 129 541 113 547 Z" class="stroke1"/>
    <path d="M 293 394 Q 306 496 332 526 Q 354 556 329 570 Q 259 603 257 603 Q 245 603 235 595 Q 201 571 113 547 C 84 539 101 513 130 519 Q 140 520 219 540 Q 240 544 245 536 Q 255 530 249 491 Q 245 451 238 401 C 234 371 289 364 293 394 Z" class="stroke2"/>
    <path d="M 154 341 Q 161 341 172 343 Q 212 353 302 365 Q 312 366 313 376 Q 313 383 293 394 L 238 401 Q 235 401 234 400 Q 186 384 149 374 C 120 366 124 340 154 341 Z" class="stroke3"/>
    <path d="M 605 598 Q 704 626 708 629 Q 717 636 712 645 Q 705 655 676 661 Q 643 665 609 649 L 554 630 Q 547 629 542 627 Q 499 615 447 608 Q 413 601 438 586 Q 477 568 542 583 Q 546 584 554 585 L 605 598 Z" class="stroke4"/>
    <path d="M 594 469 Q 598 536 605 598 L 609 649 Q 612 715 630 777 Q 634 789 614 804 Q 578 823 554 828 Q 538 832 530 823 Q 523 816 530 800 Q 551 770 551 750 Q 554 692 554 630 L 554 585 Q 554 525 551 460 C 550 430 592 439 594 469 Z" class="stroke5"/>
    <path d="M 705 447 Q 738 451 925 465 Q 944 466 950 475 Q 954 488 937 501 Q 871 541 813 519 Q 783 513 745 502 L 673 485 Q 603 473 594 469 L 551 460 Q 458 444 356 424 Q 334 420 351 403 Q 387 375 424 387 Q 545 427 637 436 L 705 447 Z" class="stroke6"/>
    <path d="M 553 270 Q 628 346 705 447 L 745 502 Q 823 616 838 628 Q 847 634 846 645 Q 845 657 831 670 Q 798 706 760 702 Q 750 701 752 686 Q 758 620 673 485 L 637 436 Q 588 373 538 321 L 498 283 Q 423 216 246 85 Q 236 81 248 76 Q 326 82 498 220 L 553 270 Z" class="stroke7"/>
    <path d="M 539 172 Q 606 196 647 215 Q 731 255 762 261 Q 784 265 779 285 Q 770 304 749 324 Q 730 343 716 343 Q 704 344 705 331 Q 702 300 617 243 Q 580 221 541 194 C 516 177 511 162 539 172 Z" class="stroke8"/>
    <path d="M 541 194 Q 545 231 553 270 C 559 299 560 307 538 321 Q 529 330 514 335 Q 501 339 493 335 Q 486 331 491 313 Q 495 298 498 283 L 498 220 Q 489 97 500 61 Q 504 39 525 19 Q 609 -45 792 -11 Q 795 -10 799 -9 Q 841 3 882 29 Q 903 47 887 73 Q 872 103 850 193 Q 849 209 841 214 Q 834 217 831 199 Q 807 100 790 70 Q 757 34 652 37 Q 612 38 581 51 Q 554 63 547 79 Q 534 112 539 172 L 541 194 Z" class="stroke9"/>
    <text x="68" y="548" style="transform-origin:68px 548px; transform:scale(1,-1);">1</text>
    <text x="123" y="547" style="transform-origin:123px 547px; transform:scale(1,-1);">2</text>
    <text x="158" y="347" style="transform-origin:158px 347px; transform:scale(1,-1);">3</text>
    <text x="440" y="598" style="transform-origin:440px 598px; transform:scale(1,-1);">4</text>
    <text x="542" y="813" style="transform-origin:542px 813px; transform:scale(1,-1);">5</text>
    <text x="354" y="413" style="transform-origin:354px 413px; transform:scale(1,-1);">6</text>
    <text x="762" y="691" style="transform-origin:762px 691px; transform:scale(1,-1);">7</text>
    <text x="714" y="334" style="transform-origin:714px 334px; transform:scale(1,-1);">8</text>
    <text x="500" y="327" style="transform-origin:500px 327px; transform:scale(1,-1);">9</text></g>
</svg>