<svg version="1.1" viewBox="0 0 1024 1024" xmlns="http://www.w3.org/2000/svg">
  <g stroke="lightgray" stroke-dasharray="1,1" stroke-width="1" transform="scale(4, 4)">
    <line x1="0" y1="0" x2="256" y2="256"/>
    <line x1="256" y1="0" x2="0" y2="256"/>
    <line x1="128" y1="0" x2="128" y2="256"/>
    <line x1="0" y1="128" x2="256" y2="128"/>
  </g>
  <g transform="scale(1, -1) translate(0, -900)">
    <style type="text/css">
        .stroke1 {fill: #BF0909;}
        .stroke2 {fill: #BFBF09;}
        .stroke3 {fill: #09BF09;}
        .stroke4 {fill: #09BFBF;}
        .stroke5 {fill: #0909BF;}
        .stroke6 {fill: #BF09BF;}
        .stroke7 {fill: #42005e;}
        .stroke8 {fill: #ff3333;}
        .stroke9 {fill: #BFBFBF;}
        .stroke10 {fill: #00a53f;}
        .stroke11 {fill: #fff000;}
        .stroke12 {fill: #6600a5;}
        .stroke13 {fill: #0053a5;}
        .stroke14 {fill: #62c22b;}
        .stroke15 {fill: #BF09BF;}
        .stroke16 {fill: #BF0909;}
        .stroke17 {fill: #BFBF09;}
        .stroke18 {fill: #09BF09;}
        .stroke19 {fill: #09BFBF;}
        .stroke20 {fill: #0909BF;}
        text {
            font-family: Helvetica;
            font-size: 50px;
            fill: #FFFFFF;
            paint-order: stroke;
            stroke: #000000;
            stroke-width: 4px;
            stroke-linecap: butt;
            stroke-linejoin: miter;
            font-weight: 800;
        }
    </style>

    <path d="M 373 728 Q 363 735 323 740 Q 310 743 307 738 Q 300 731 310 714 Q 347 642 369 523 Q 373 487 395 464 Q 414 442 419 458 Q 423 471 422 490 L 418 525 Q 402 591 384 689 C 379 719 377 726 373 728 Z" class="stroke1"/>
    <path d="M 643 551 Q 680 662 725 690 Q 744 712 729 733 Q 681 773 636 785 Q 620 788 604 781 Q 510 745 373 728 C 343 724 354 684 384 689 Q 397 690 414 695 Q 502 708 586 723 Q 608 727 616 719 Q 632 698 585 557 C 576 529 633 523 643 551 Z" class="stroke2"/>
    <path d="M 422 490 Q 429 489 442 491 Q 509 504 655 516 Q 665 517 667 526 Q 667 533 643 551 C 624 566 614 564 585 557 Q 491 535 418 525 C 388 521 392 491 422 490 Z" class="stroke3"/>
    <path d="M 182 317 Q 169 324 135 328 Q 122 332 119 326 Q 112 319 122 303 Q 156 230 178 108 Q 182 72 203 48 Q 222 26 227 42 Q 234 64 227 107 L 220 143 Q 201 245 195 282 C 190 312 190 314 182 317 Z" class="stroke4"/>
    <path d="M 414 173 Q 436 263 469 290 Q 485 309 470 328 Q 452 341 397 365 Q 378 372 308 345 Q 253 330 182 317 C 153 312 166 275 195 282 Q 208 286 345 312 Q 361 316 368 309 Q 378 300 377 279 Q 370 222 361 175 C 356 146 407 144 414 173 Z" class="stroke5"/>
    <path d="M 227 107 Q 234 107 243 108 Q 301 123 432 135 Q 442 136 444 146 Q 444 155 414 173 C 396 184 390 183 361 175 Q 282 154 220 143 C 190 138 197 106 227 107 Z" class="stroke6"/>
    <path d="M 584 356 Q 562 369 540 374 Q 533 377 528 371 Q 521 365 530 354 Q 569 296 580 151 Q 581 97 619 65 Q 620 65 623 63 Q 641 59 641 88 Q 641 107 637 128 L 628 167 Q 625 195 620 227 Q 613 279 611 321 C 610 342 610 342 584 356 Z" class="stroke7"/>
    <path d="M 843 189 Q 876 300 911 324 Q 930 345 913 364 Q 832 427 774 398 Q 701 373 584 356 C 554 352 582 313 611 321 Q 621 324 633 327 Q 708 340 779 353 Q 798 357 805 349 Q 815 339 814 316 Q 802 250 788 196 C 781 167 834 160 843 189 Z" class="stroke8"/>
    <path d="M 637 128 Q 641 128 649 129 Q 716 142 857 150 Q 870 151 871 161 Q 871 170 843 189 L 788 196 Q 787 197 785 196 Q 698 177 628 167 C 598 163 607 126 637 128 Z" class="stroke9"/>
    <text x="315" y="731" style="transform-origin:315px 731px; transform:scale(1,-1);">1</text>
    <text x="383" y="724" style="transform-origin:383px 724px; transform:scale(1,-1);">2</text>
    <text x="426" y="496" style="transform-origin:426px 496px; transform:scale(1,-1);">3</text>
    <text x="128" y="318" style="transform-origin:128px 318px; transform:scale(1,-1);">4</text>
    <text x="195" y="289" style="transform-origin:195px 289px; transform:scale(1,-1);">5</text>
    <text x="227" y="138" style="transform-origin:227px 138px; transform:scale(1,-1);">6</text>
    <text x="536" y="363" style="transform-origin:536px 363px; transform:scale(1,-1);">7</text>
    <text x="593" y="354" style="transform-origin:593px 354px; transform:scale(1,-1);">8</text>
    <text x="636" y="162" style="transform-origin:636px 162px; transform:scale(1,-1);">9</text></g>
</svg>