<svg version="1.1" viewBox="0 0 1024 1024" xmlns="http://www.w3.org/2000/svg">
  <g stroke="lightgray" stroke-dasharray="1,1" stroke-width="1" transform="scale(4, 4)">
    <line x1="0" y1="0" x2="256" y2="256"/>
    <line x1="256" y1="0" x2="0" y2="256"/>
    <line x1="128" y1="0" x2="128" y2="256"/>
    <line x1="0" y1="128" x2="256" y2="128"/>
  </g>
  <g transform="scale(1, -1) translate(0, -900)">
    <style type="text/css">
        .stroke1 {fill: #BF0909;}
        .stroke2 {fill: #BFBF09;}
        .stroke3 {fill: #09BF09;}
        .stroke4 {fill: #09BFBF;}
        .stroke5 {fill: #0909BF;}
        .stroke6 {fill: #BF09BF;}
        .stroke7 {fill: #42005e;}
        .stroke8 {fill: #ff3333;}
        .stroke9 {fill: #BFBFBF;}
        .stroke10 {fill: #00a53f;}
        .stroke11 {fill: #fff000;}
        .stroke12 {fill: #6600a5;}
        .stroke13 {fill: #0053a5;}
        .stroke14 {fill: #62c22b;}
        .stroke15 {fill: #BF09BF;}
        .stroke16 {fill: #BF0909;}
        .stroke17 {fill: #BFBF09;}
        .stroke18 {fill: #09BF09;}
        .stroke19 {fill: #09BFBF;}
        .stroke20 {fill: #0909BF;}
        text {
            font-family: Helvetica;
            font-size: 50px;
            fill: #FFFFFF;
            paint-order: stroke;
            stroke: #000000;
            stroke-width: 4px;
            stroke-linecap: butt;
            stroke-linejoin: miter;
            font-weight: 800;
        }
    </style>

    <path d="M 134 591 Q 122 597 96 602 Q 83 606 79 600 Q 72 594 80 577 Q 110 507 123 394 Q 124 360 144 337 Q 160 313 167 329 Q 176 350 172 388 L 168 424 Q 152 539 152 564 C 151 584 151 584 134 591 Z" class="stroke1"/>
    <path d="M 309 448 Q 324 539 349 567 Q 371 595 347 609 Q 281 642 279 642 Q 269 642 258 636 Q 221 612 134 591 C 105 584 123 556 152 564 Q 152 565 236 583 Q 260 589 266 579 Q 275 573 269 534 Q 265 494 256 448 C 250 419 304 418 309 448 Z" class="stroke2"/>
    <path d="M 172 388 Q 179 388 191 390 Q 234 400 329 411 Q 339 412 341 422 Q 341 431 309 448 C 290 458 285 457 256 448 Q 207 433 168 424 C 139 417 142 387 172 388 Z" class="stroke3"/>
    <path d="M 478 618 Q 484 618 586 644 Q 608 650 598 661 Q 586 674 562 674 Q 520 674 479 645 C 454 628 448 613 478 618 Z" class="stroke4"/>
    <path d="M 479 645 Q 479 646 480 647 Q 479 680 483 706 Q 487 722 477 730 Q 455 748 432 756 Q 416 762 406 757 Q 396 750 409 732 Q 451 669 424 496 Q 415 474 399 445 Q 387 426 396 414 Q 405 401 430 391 Q 446 384 458 401 Q 473 432 551 486 Q 579 502 590 521 Q 597 531 589 532 Q 586 532 496 495 Q 486 491 480 494 Q 471 495 473 515 Q 477 578 478 618 L 479 645 Z" class="stroke5"/>
    <path d="M 669 611 Q 729 627 804 657 Q 826 667 852 669 Q 874 673 869 692 Q 862 711 841 733 Q 822 752 810 753 Q 797 756 798 742 Q 795 712 669 635 C 643 619 640 603 669 611 Z" class="stroke6"/>
    <path d="M 908 486 Q 895 517 885 570 Q 884 585 877 590 Q 870 594 866 576 Q 847 515 835 504 Q 828 497 809 491 Q 743 476 700 492 Q 672 508 669 611 L 669 635 Q 673 722 690 764 Q 700 792 684 807 Q 638 841 623 837 Q 610 833 617 816 Q 635 782 631 732 Q 625 498 658 470 Q 674 455 714 445 Q 838 421 891 445 Q 919 458 908 486 Z" class="stroke7"/>
    <path d="M 645 257 Q 762 278 902 262 Q 924 261 929 268 Q 936 281 924 291 Q 897 316 857 334 Q 844 338 820 331 Q 787 325 646 304 L 588 297 Q 587 298 585 297 Q 339 273 322 272 Q 310 272 309 262 Q 308 250 325 237 Q 370 210 398 220 Q 452 238 589 253 L 645 257 Z" class="stroke8"/>
    <path d="M 595 -8 Q 599 -32 606 -41 Q 612 -48 619 -46 Q 632 -37 639 19 Q 642 44 645 257 L 646 304 Q 646 337 655 369 Q 658 385 644 395 Q 613 416 599 418 Q 587 422 572 414 Q 563 407 571 397 Q 583 364 588 315 Q 588 308 588 297 L 589 253 Q 590 192 590 112 Q 591 22 595 -8 Z" class="stroke9"/>
    <text x="88" y="592" style="transform-origin:88px 592px; transform:scale(1,-1);">1</text>
    <text x="144" y="591" style="transform-origin:144px 591px; transform:scale(1,-1);">2</text>
    <text x="176" y="394" style="transform-origin:176px 394px; transform:scale(1,-1);">3</text>
    <text x="479" y="625" style="transform-origin:479px 625px; transform:scale(1,-1);">4</text>
    <text x="414" y="748" style="transform-origin:414px 748px; transform:scale(1,-1);">5</text>
    <text x="806" y="745" style="transform-origin:806px 745px; transform:scale(1,-1);">6</text>
    <text x="627" y="825" style="transform-origin:627px 825px; transform:scale(1,-1);">7</text>
    <text x="320" y="261" style="transform-origin:320px 261px; transform:scale(1,-1);">8</text>
    <text x="578" y="405" style="transform-origin:578px 405px; transform:scale(1,-1);">9</text></g>
</svg>