<svg version="1.1" viewBox="0 0 1024 1024" xmlns="http://www.w3.org/2000/svg">
  <g stroke="lightgray" stroke-dasharray="1,1" stroke-width="1" transform="scale(4, 4)">
    <line x1="0" y1="0" x2="256" y2="256"/>
    <line x1="256" y1="0" x2="0" y2="256"/>
    <line x1="128" y1="0" x2="128" y2="256"/>
    <line x1="0" y1="128" x2="256" y2="128"/>
  </g>
  <g transform="scale(1, -1) translate(0, -900)">
    <style type="text/css">
        .stroke1 {fill: #BF0909;}
        .stroke2 {fill: #BFBF09;}
        .stroke3 {fill: #09BF09;}
        .stroke4 {fill: #09BFBF;}
        .stroke5 {fill: #0909BF;}
        .stroke6 {fill: #BF09BF;}
        .stroke7 {fill: #42005e;}
        .stroke8 {fill: #ff3333;}
        .stroke9 {fill: #BFBFBF;}
        .stroke10 {fill: #00a53f;}
        .stroke11 {fill: #fff000;}
        .stroke12 {fill: #6600a5;}
        .stroke13 {fill: #0053a5;}
        .stroke14 {fill: #62c22b;}
        .stroke15 {fill: #BF09BF;}
        .stroke16 {fill: #BF0909;}
        .stroke17 {fill: #BFBF09;}
        .stroke18 {fill: #09BF09;}
        .stroke19 {fill: #09BFBF;}
        .stroke20 {fill: #0909BF;}
        text {
            font-family: Helvetica;
            font-size: 50px;
            fill: #FFFFFF;
            paint-order: stroke;
            stroke: #000000;
            stroke-width: 4px;
            stroke-linecap: butt;
            stroke-linejoin: miter;
            font-weight: 800;
        }
    </style>

    <path d="M 102 603 Q 90 607 64 613 Q 52 616 49 611 Q 42 605 51 589 Q 82 519 98 405 Q 101 371 120 348 Q 138 326 143 341 Q 150 363 145 406 L 139 440 Q 120 548 119 576 C 118 598 118 598 102 603 Z" class="stroke1"/>
    <path d="M 282 467 Q 298 558 324 587 Q 346 614 322 628 Q 256 661 255 661 Q 245 661 234 654 Q 192 626 102 603 C 73 595 90 569 119 576 Q 126 577 134 580 Q 177 592 212 601 Q 237 607 243 598 Q 252 591 245 552 Q 238 515 230 470 C 225 440 277 437 282 467 Z" class="stroke2"/>
    <path d="M 145 406 Q 223 425 295 437 Q 305 438 306 448 Q 306 455 282 467 L 230 470 Q 227 470 226 469 Q 177 451 139 440 C 110 432 116 399 145 406 Z" class="stroke3"/>
    <path d="M 565 755 Q 571 779 585 793 Q 592 800 588 810 Q 576 838 531 845 Q 509 848 497 844 Q 488 840 493 828 Q 524 738 399 526 Q 393 520 389 511 Q 352 451 251 333 Q 244 326 255 325 Q 286 334 369 416 Q 370 419 374 421 Q 459 511 555 730 L 565 755 Z" class="stroke4"/>
    <path d="M 555 730 Q 655 606 767 491 Q 788 467 825 464 Q 892 457 965 466 Q 983 467 985 472 Q 986 479 973 485 Q 790 569 768 583 Q 665 656 568 753 Q 565 754 565 755 C 543 775 536 753 555 730 Z" class="stroke5"/>
    <path d="M 520 541 Q 539 523 562 502 Q 574 492 588 492 Q 597 493 601 504 Q 605 517 597 543 Q 591 559 567 569 Q 507 587 496 583 Q 492 579 493 568 Q 497 558 520 541 Z" class="stroke6"/>
    <path d="M 465 370 Q 550 404 590 413 Q 602 414 604 411 Q 608 408 601 397 Q 580 357 568 343 Q 550 327 553 288 Q 556 258 585 278 Q 604 293 648 364 Q 670 401 691 413 Q 710 420 699 435 Q 689 448 652 463 Q 639 469 573 443 Q 447 404 402 403 Q 390 402 390 394 Q 389 382 411 372 Q 441 362 465 370 Z" class="stroke7"/>
    <path d="M 338 208 Q 314 163 283 123 Q 261 93 277 54 Q 284 35 306 47 Q 355 83 361 147 Q 368 181 362 207 Q 358 216 351 217 Q 342 216 338 208 Z" class="stroke8"/>
    <path d="M 422 171 Q 437 84 508 39 Q 598 -12 766 3 Q 793 9 817 20 Q 838 29 840 42 Q 843 52 806 74 Q 749 117 707 163 Q 694 181 688 172 Q 684 165 690 150 Q 708 80 696 65 Q 684 58 653 56 Q 542 56 495 100 Q 474 119 466 152 Q 459 177 446 183 Q 433 190 424 187 Q 418 184 422 171 Z" class="stroke9"/>
    <path d="M 545 198 Q 563 183 582 165 Q 595 155 608 156 Q 618 157 621 168 Q 625 181 615 207 Q 611 220 587 229 Q 533 244 520 239 Q 516 235 518 224 Q 521 214 545 198 Z" class="stroke10"/>
    <path d="M 760 246 Q 796 221 833 191 Q 849 178 865 180 Q 877 181 881 196 Q 884 212 872 243 Q 865 265 827 279 Q 740 304 728 295 Q 724 291 726 277 Q 730 267 760 246 Z" class="stroke11"/>
    <text x="58" y="603" style="transform-origin:58px 603px; transform:scale(1,-1);">1</text>
    <text x="113" y="601" style="transform-origin:113px 601px; transform:scale(1,-1);">2</text>
    <text x="152" y="413" style="transform-origin:152px 413px; transform:scale(1,-1);">3</text>
    <text x="501" y="834" style="transform-origin:501px 834px; transform:scale(1,-1);">4</text>
    <text x="563" y="749" style="transform-origin:563px 749px; transform:scale(1,-1);">5</text>
    <text x="500" y="574" style="transform-origin:500px 574px; transform:scale(1,-1);">6</text>
    <text x="401" y="392" style="transform-origin:401px 392px; transform:scale(1,-1);">7</text>
    <text x="350" y="205" style="transform-origin:350px 205px; transform:scale(1,-1);">8</text>
    <text x="429" y="180" style="transform-origin:429px 180px; transform:scale(1,-1);">9</text>
    <text x="525" y="231" style="transform-origin:525px 231px; transform:scale(1,-1);">10</text>
    <text x="733" y="289" style="transform-origin:733px 289px; transform:scale(1,-1);">11</text></g>
</svg>