<svg version="1.1" viewBox="0 0 1024 1024" xmlns="http://www.w3.org/2000/svg">
  <g stroke="lightgray" stroke-dasharray="1,1" stroke-width="1" transform="scale(4, 4)">
    <line x1="0" y1="0" x2="256" y2="256"/>
    <line x1="256" y1="0" x2="0" y2="256"/>
    <line x1="128" y1="0" x2="128" y2="256"/>
    <line x1="0" y1="128" x2="256" y2="128"/>
  </g>
  <g transform="scale(1, -1) translate(0, -900)">
    <style type="text/css">
        .stroke1 {fill: #BF0909;}
        .stroke2 {fill: #BFBF09;}
        .stroke3 {fill: #09BF09;}
        .stroke4 {fill: #09BFBF;}
        .stroke5 {fill: #0909BF;}
        .stroke6 {fill: #BF09BF;}
        .stroke7 {fill: #42005e;}
        .stroke8 {fill: #ff3333;}
        .stroke9 {fill: #BFBFBF;}
        .stroke10 {fill: #00a53f;}
        .stroke11 {fill: #fff000;}
        .stroke12 {fill: #6600a5;}
        .stroke13 {fill: #0053a5;}
        .stroke14 {fill: #62c22b;}
        .stroke15 {fill: #BF09BF;}
        .stroke16 {fill: #BF0909;}
        .stroke17 {fill: #BFBF09;}
        .stroke18 {fill: #09BF09;}
        .stroke19 {fill: #09BFBF;}
        .stroke20 {fill: #0909BF;}
        text {
            font-family: Helvetica;
            font-size: 50px;
            fill: #FFFFFF;
            paint-order: stroke;
            stroke: #000000;
            stroke-width: 4px;
            stroke-linecap: butt;
            stroke-linejoin: miter;
            font-weight: 800;
        }
    </style>

    <path d="M 121 545 Q 108 551 77 557 Q 64 561 61 555 Q 54 549 63 533 Q 91 466 108 358 Q 109 327 128 304 Q 146 282 151 297 Q 158 316 154 350 L 149 384 Q 133 487 131 517 C 129 542 129 542 121 545 Z" class="stroke1"/>
    <path d="M 285 409 Q 297 506 320 535 Q 341 562 316 574 Q 297 584 268 598 Q 250 607 208 580 Q 181 565 121 545 C 93 535 102 508 131 517 Q 171 530 214 544 Q 236 551 243 542 Q 250 536 236 414 C 233 384 281 379 285 409 Z" class="stroke2"/>
    <path d="M 154 350 Q 161 350 172 353 Q 211 366 296 380 Q 306 383 306 392 Q 306 399 285 409 C 263 420 263 420 236 414 Q 230 413 226 411 Q 183 395 149 384 C 120 375 124 348 154 350 Z" class="stroke3"/>
    <path d="M 529 654 Q 547 661 657 670 L 704 673 Q 752 685 860 678 Q 875 677 880 686 Q 884 696 871 710 Q 826 752 728 723 Q 725 723 724 722 L 668 712 Q 602 702 528 689 L 480 683 Q 416 676 345 665 Q 318 661 337 647 Q 379 622 464 641 Q 474 644 487 646 L 529 654 Z" class="stroke4"/>
    <path d="M 487 646 Q 490 600 508 580 Q 521 568 526 580 Q 527 587 529 654 L 528 689 Q 528 719 528 742 Q 531 761 511 769 Q 471 790 450 784 Q 432 777 446 756 Q 471 722 480 683 L 487 646 Z" class="stroke5"/>
    <path d="M 657 670 Q 641 612 642 599 Q 643 586 659 596 Q 674 608 688 639 Q 695 655 704 673 L 724 722 Q 730 740 753 780 Q 768 795 757 805 Q 745 823 710 840 Q 694 850 676 840 Q 666 834 674 823 Q 684 799 668 712 L 657 670 Z" class="stroke6"/>
    <path d="M 377 367 Q 410 403 447 450 Q 469 481 487 496 Q 497 505 493 518 Q 490 530 467 552 Q 445 571 427 572 Q 411 572 416 552 Q 420 537 410 502 Q 356 399 240 275 Q 230 268 228 261 Q 224 251 237 253 Q 267 257 353 343 L 377 367 Z" class="stroke7"/>
    <path d="M 353 343 Q 392 258 356 96 Q 346 54 375 12 Q 376 9 379 7 Q 395 -8 406 17 Q 419 54 419 95 Q 418 254 422 290 Q 429 315 420 324 Q 390 358 377 367 C 354 386 341 371 353 343 Z" class="stroke8"/>
    <path d="M 766 514 Q 823 523 926 522 Q 944 523 948 531 Q 952 543 937 555 Q 879 592 822 572 Q 564 524 535 517 Q 516 514 530 499 Q 543 487 561 482 Q 580 478 595 483 Q 649 499 734 511 L 766 514 Z" class="stroke9"/>
    <path d="M 519 365 Q 509 372 478 376 Q 468 379 465 374 Q 459 370 467 355 Q 489 307 505 229 Q 508 207 521 190 Q 537 171 542 185 Q 545 195 545 209 L 542 240 Q 529 316 527 340 C 525 362 525 362 519 365 Z" class="stroke10"/>
    <path d="M 665 256 Q 681 323 701 344 Q 720 366 700 380 Q 684 390 659 405 Q 646 412 596 388 Q 557 378 519 365 C 491 355 498 333 527 340 L 605 359 Q 627 365 632 356 Q 639 350 633 322 Q 627 295 621 263 C 615 234 658 227 665 256 Z" class="stroke11"/>
    <path d="M 545 209 Q 552 208 560 210 Q 596 219 674 227 Q 684 228 685 237 Q 685 244 665 256 L 621 263 Q 615 263 612 261 Q 575 248 542 240 C 513 233 515 211 545 209 Z" class="stroke12"/>
    <path d="M 697 61 Q 672 67 641 73 Q 628 76 629 68 Q 630 59 641 50 Q 711 1 756 -42 Q 769 -52 783 -34 Q 825 26 819 104 Q 807 314 817 440 Q 824 468 817 479 Q 807 492 767 514 L 766 514 C 740 528 730 533 734 511 Q 730 502 741 485 Q 751 460 752 89 Q 749 71 741 60 Q 728 53 697 61 Z" class="stroke13"/>
    <text x="70" y="547" style="transform-origin:70px 547px; transform:scale(1,-1);">1</text>
    <text x="135" y="526" style="transform-origin:135px 526px; transform:scale(1,-1);">2</text>
    <text x="157" y="356" style="transform-origin:157px 356px; transform:scale(1,-1);">3</text>
    <text x="339" y="657" style="transform-origin:339px 657px; transform:scale(1,-1);">4</text>
    <text x="455" y="769" style="transform-origin:455px 769px; transform:scale(1,-1);">5</text>
    <text x="681" y="831" style="transform-origin:681px 831px; transform:scale(1,-1);">6</text>
    <text x="426" y="559" style="transform-origin:426px 559px; transform:scale(1,-1);">7</text>
    <text x="377" y="359" style="transform-origin:377px 359px; transform:scale(1,-1);">8</text>
    <text x="533" y="508" style="transform-origin:533px 508px; transform:scale(1,-1);">9</text>
    <text x="473" y="367" style="transform-origin:473px 367px; transform:scale(1,-1);">10</text>
    <text x="527" y="361" style="transform-origin:527px 361px; transform:scale(1,-1);">11</text>
    <text x="552" y="217" style="transform-origin:552px 217px; transform:scale(1,-1);">12</text>
    <text x="740" y="505" style="transform-origin:740px 505px; transform:scale(1,-1);">13</text></g>
</svg>