<svg version="1.1" viewBox="0 0 1024 1024" xmlns="http://www.w3.org/2000/svg">
  <g stroke="lightgray" stroke-dasharray="1,1" stroke-width="1" transform="scale(4, 4)">
    <line x1="0" y1="0" x2="256" y2="256"/>
    <line x1="256" y1="0" x2="0" y2="256"/>
    <line x1="128" y1="0" x2="128" y2="256"/>
    <line x1="0" y1="128" x2="256" y2="128"/>
  </g>
  <g transform="scale(1, -1) translate(0, -900)">
    <style type="text/css">
        .stroke1 {fill: #BF0909;}
        .stroke2 {fill: #BFBF09;}
        .stroke3 {fill: #09BF09;}
        .stroke4 {fill: #09BFBF;}
        .stroke5 {fill: #0909BF;}
        .stroke6 {fill: #BF09BF;}
        .stroke7 {fill: #42005e;}
        .stroke8 {fill: #ff3333;}
        .stroke9 {fill: #BFBFBF;}
        .stroke10 {fill: #00a53f;}
        .stroke11 {fill: #fff000;}
        .stroke12 {fill: #6600a5;}
        .stroke13 {fill: #0053a5;}
        .stroke14 {fill: #62c22b;}
        .stroke15 {fill: #BF09BF;}
        .stroke16 {fill: #BF0909;}
        .stroke17 {fill: #BFBF09;}
        .stroke18 {fill: #09BF09;}
        .stroke19 {fill: #09BFBF;}
        .stroke20 {fill: #0909BF;}
        text {
            font-family: Helvetica;
            font-size: 50px;
            fill: #FFFFFF;
            paint-order: stroke;
            stroke: #000000;
            stroke-width: 4px;
            stroke-linecap: butt;
            stroke-linejoin: miter;
            font-weight: 800;
        }
    </style>

    <path d="M 98 541 Q 88 547 59 553 Q 49 556 45 551 Q 39 547 46 532 Q 71 472 84 376 Q 85 346 102 327 Q 117 306 122 321 Q 128 336 126 363 L 122 393 Q 109 487 107 515 C 105 538 105 538 98 541 Z" class="stroke1"/>
    <path d="M 232 412 Q 248 497 270 521 Q 289 543 268 556 Q 250 566 226 580 Q 210 589 193 579 Q 174 566 147 556 Q 125 549 98 541 C 69 532 79 504 107 515 Q 113 519 178 534 Q 197 538 201 531 Q 208 525 202 493 Q 195 457 187 414 C 182 385 226 383 232 412 Z" class="stroke2"/>
    <path d="M 126 363 Q 129 363 133 364 Q 167 374 244 385 Q 253 386 253 394 Q 253 401 232 412 L 187 414 L 185 414 Q 149 401 122 393 C 93 384 96 360 126 363 Z" class="stroke3"/>
    <path d="M 474 600 Q 550 624 553 626 Q 560 635 556 642 Q 549 652 521 656 Q 497 659 477 649 L 426 629 Q 417 628 410 624 Q 376 614 337 607 Q 304 598 330 585 Q 366 567 427 586 L 474 600 Z" class="stroke4"/>
    <path d="M 469 518 Q 470 561 474 600 L 477 649 Q 477 661 493 770 Q 496 780 477 794 Q 443 810 421 815 Q 405 818 398 810 Q 391 803 399 788 Q 418 764 418 747 Q 422 692 426 629 L 427 586 Q 428 547 428 504 C 428 474 468 488 469 518 Z" class="stroke5"/>
    <path d="M 467 477 Q 467 478 560 498 Q 569 498 575 509 Q 575 519 555 526 Q 522 542 469 518 L 428 504 Q 383 492 273 465 Q 249 459 269 447 Q 299 426 323 435 L 329 437 L 363 447 Q 393 457 430 467 L 467 477 Z" class="stroke6"/>
    <path d="M 329 437 Q 344 401 326 290 Q 310 185 232 120 Q 220 110 209 101 Q 196 92 193 87 Q 190 81 200 81 Q 230 78 282 121 Q 361 196 387 382 Q 391 398 395 407 Q 402 423 385 434 Q 372 441 363 447 C 337 463 320 466 329 437 Z" class="stroke7"/>
    <path d="M 491 386 Q 495 452 495 455 Q 488 465 467 477 C 442 493 421 496 430 467 Q 440 457 442 323 Q 441 250 439 135 Q 438 107 429 96 Q 419 90 395 97 Q 388 97 379 95 Q 369 98 369 92 Q 370 85 379 78 Q 416 41 438 13 Q 448 6 460 18 Q 494 64 489 178 Q 486 244 489 365 L 491 386 Z" class="stroke8"/>
    <path d="M 254 338 Q 230 295 199 258 Q 177 233 191 200 Q 195 184 216 193 Q 262 226 271 286 Q 278 314 274 336 Q 271 343 266 345 Q 259 345 254 338 Z" class="stroke9"/>
    <path d="M 489 365 Q 543 316 552 316 Q 559 316 562 325 Q 565 334 559 353 Q 556 365 537 374 Q 494 387 491 386 C 464 388 467 385 489 365 Z" class="stroke10"/>
    <path d="M 766 608 Q 881 645 886 649 Q 893 656 888 665 Q 881 675 851 680 Q 821 683 794 668 Q 782 664 770 658 L 716 638 Q 680 628 641 621 Q 607 611 634 598 Q 667 583 716 592 L 766 608 Z" class="stroke11"/>
    <path d="M 757 506 Q 761 558 766 608 L 770 658 Q 771 734 791 798 Q 794 808 774 824 Q 738 843 714 847 Q 698 851 690 842 Q 683 835 691 820 Q 710 792 711 773 Q 715 709 716 638 L 716 592 Q 716 547 715 498 C 714 468 755 476 757 506 Z" class="stroke12"/>
    <path d="M 799 479 Q 865 488 949 489 Q 965 490 968 497 Q 972 507 958 517 Q 915 547 858 530 Q 816 520 757 506 L 715 498 Q 651 488 577 474 Q 561 471 573 459 Q 585 449 599 445 Q 615 441 628 446 Q 631 447 637 448 L 663 455 Q 727 474 761 474 L 799 479 Z" class="stroke13"/>
    <path d="M 637 448 Q 653 396 655 393 Q 655 246 622 168 Q 604 129 543 66 Q 530 56 528 50 Q 527 44 536 45 Q 566 45 617 96 Q 692 172 705 388 Q 709 404 711 413 Q 715 429 699 439 Q 677 451 663 455 C 635 465 631 467 637 448 Z" class="stroke14"/>
    <path d="M 761 474 Q 762 468 768 459 Q 778 437 777 402 Q 781 45 767 22 Q 757 16 733 23 Q 711 30 684 39 Q 674 43 673 36 Q 673 29 682 20 Q 740 -29 775 -68 Q 785 -77 798 -63 Q 831 -20 831 70 Q 821 250 833 421 Q 837 445 833 454 Q 826 464 799 479 C 773 495 748 501 761 474 Z" class="stroke15"/>
    <path d="M 584 327 Q 571 287 549 250 Q 534 222 550 198 Q 557 185 573 195 Q 610 226 608 283 Q 609 308 603 328 Q 599 335 594 335 Q 587 334 584 327 Z" class="stroke16"/>
    <path d="M 862 295 Q 893 261 931 212 Q 944 193 958 187 Q 965 186 973 194 Q 985 206 976 246 Q 973 268 959 283 Q 928 307 865 323 Q 858 329 855 317 Q 854 305 862 295 Z" class="stroke17"/>
    <text x="53" y="544" style="transform-origin:53px 544px; transform:scale(1,-1);">1</text>
    <text x="107" y="522" style="transform-origin:107px 522px; transform:scale(1,-1);">2</text>
    <text x="128" y="371" style="transform-origin:128px 371px; transform:scale(1,-1);">3</text>
    <text x="331" y="597" style="transform-origin:331px 597px; transform:scale(1,-1);">4</text>
    <text x="409" y="801" style="transform-origin:409px 801px; transform:scale(1,-1);">5</text>
    <text x="269" y="456" style="transform-origin:269px 456px; transform:scale(1,-1);">6</text>
    <text x="336" y="435" style="transform-origin:336px 435px; transform:scale(1,-1);">7</text>
    <text x="436" y="468" style="transform-origin:436px 468px; transform:scale(1,-1);">8</text>
    <text x="264" y="335" style="transform-origin:264px 335px; transform:scale(1,-1);">9</text>
    <text x="494" y="380" style="transform-origin:494px 380px; transform:scale(1,-1);">10</text>
    <text x="635" y="610" style="transform-origin:635px 610px; transform:scale(1,-1);">11</text>
    <text x="702" y="833" style="transform-origin:702px 833px; transform:scale(1,-1);">12</text>
    <text x="585" y="464" style="transform-origin:585px 464px; transform:scale(1,-1);">13</text>
    <text x="647" y="438" style="transform-origin:647px 438px; transform:scale(1,-1);">14</text>
    <text x="768" y="472" style="transform-origin:768px 472px; transform:scale(1,-1);">15</text>
    <text x="594" y="325" style="transform-origin:594px 325px; transform:scale(1,-1);">16</text>
    <text x="865" y="312" style="transform-origin:865px 312px; transform:scale(1,-1);">17</text></g>
</svg>