<svg version="1.1" viewBox="0 0 1024 1024" xmlns="http://www.w3.org/2000/svg">
  <g stroke="lightgray" stroke-dasharray="1,1" stroke-width="1" transform="scale(4, 4)">
    <line x1="0" y1="0" x2="256" y2="256"/>
    <line x1="256" y1="0" x2="0" y2="256"/>
    <line x1="128" y1="0" x2="128" y2="256"/>
    <line x1="0" y1="128" x2="256" y2="128"/>
  </g>
  <g transform="scale(1, -1) translate(0, -900)">
    <style type="text/css">
        .stroke1 {fill: #BF0909;}
        .stroke2 {fill: #BFBF09;}
        .stroke3 {fill: #09BF09;}
        .stroke4 {fill: #09BFBF;}
        .stroke5 {fill: #0909BF;}
        .stroke6 {fill: #BF09BF;}
        .stroke7 {fill: #42005e;}
        .stroke8 {fill: #ff3333;}
        .stroke9 {fill: #BFBFBF;}
        .stroke10 {fill: #00a53f;}
        .stroke11 {fill: #fff000;}
        .stroke12 {fill: #6600a5;}
        .stroke13 {fill: #0053a5;}
        .stroke14 {fill: #62c22b;}
        .stroke15 {fill: #BF09BF;}
        .stroke16 {fill: #BF0909;}
        .stroke17 {fill: #BFBF09;}
        .stroke18 {fill: #09BF09;}
        .stroke19 {fill: #09BFBF;}
        .stroke20 {fill: #0909BF;}
        text {
            font-family: Helvetica;
            font-size: 50px;
            fill: #FFFFFF;
            paint-order: stroke;
            stroke: #000000;
            stroke-width: 4px;
            stroke-linecap: butt;
            stroke-linejoin: miter;
            font-weight: 800;
        }
    </style>

    <path d="M 140 589 Q 130 595 103 601 Q 93 604 89 600 Q 83 594 90 580 Q 115 516 128 412 Q 129 381 146 359 Q 161 338 166 352 Q 173 368 171 397 L 168 426 Q 152 532 150 563 C 148 585 148 585 140 589 Z" class="stroke1"/>
    <path d="M 294 445 Q 310 541 336 571 Q 355 596 334 608 Q 315 618 290 634 Q 272 643 232 618 Q 193 602 140 589 C 111 582 121 556 150 563 Q 157 564 165 567 Q 202 577 235 585 Q 257 589 263 581 Q 270 574 247 449 C 242 419 289 415 294 445 Z" class="stroke2"/>
    <path d="M 171 397 Q 181 396 192 398 Q 228 407 306 415 Q 316 416 317 425 Q 317 432 294 445 C 280 453 277 452 247 449 Q 246 450 244 449 Q 202 436 168 426 C 139 418 141 399 171 397 Z" class="stroke3"/>
    <path d="M 614 835 Q 569 799 437 747 Q 433 740 437 736 Q 468 729 623 781 Q 635 794 707 803 Q 723 803 726 809 Q 730 819 720 830 Q 666 875 636 871 Q 629 868 628 858 Q 627 845 614 835 Z" class="stroke4"/>
    <path d="M 445 675 Q 484 627 494 625 Q 501 624 506 633 Q 510 643 507 663 Q 506 676 487 689 Q 442 713 432 710 Q 428 709 428 699 Q 429 692 445 675 Z" class="stroke5"/>
    <path d="M 564 707 Q 583 668 601 658 Q 608 654 617 661 Q 621 668 623 679 Q 620 707 577 729 Q 568 733 562 733 Q 558 733 557 725 Q 557 718 564 707 Z" class="stroke6"/>
    <path d="M 731 744 Q 706 716 657 672 Q 651 666 655 659 Q 661 658 669 660 Q 754 702 793 716 Q 809 717 808 728 Q 804 743 790 762 Q 777 781 756 785 Q 743 786 741 770 Q 742 757 731 744 Z" class="stroke7"/>
    <path d="M 423 597 Q 413 601 391 603 Q 381 604 378 601 Q 374 595 381 582 Q 405 542 421 474 Q 425 455 438 441 Q 454 423 457 437 Q 460 446 459 457 L 457 476 Q 456 479 440 565 C 435 593 435 593 423 597 Z" class="stroke8"/>
    <path d="M 752 499 Q 753 498 754 494 Q 757 481 767 480 Q 782 483 809 526 Q 825 568 856 591 Q 872 603 859 617 Q 846 632 806 655 Q 794 662 718 647 Q 679 647 535 616 Q 469 603 423 597 C 393 593 411 556 440 565 Q 479 578 530 586 L 552 591 Q 588 600 633 606 L 665 611 Q 761 629 783 618 Q 787 614 783 597 Q 765 536 758 522 C 750 503 750 503 752 499 Z" class="stroke9"/>
    <path d="M 571 496 Q 571 497 572 499 Q 575 556 553 589 Q 552 590 552 591 C 537 617 521 615 530 586 Q 533 579 534 556 Q 534 513 553 493 C 566 479 566 479 571 496 Z" class="stroke10"/>
    <path d="M 656 512 Q 657 516 661 522 Q 680 567 688 576 Q 697 586 690 593 Q 683 603 665 611 C 638 624 614 629 633 606 Q 651 588 632 507 C 625 478 645 484 656 512 Z" class="stroke11"/>
    <path d="M 459 457 Q 472 453 494 457 Q 642 484 752 499 C 782 503 786 513 758 522 Q 754 523 749 525 Q 737 528 656 512 L 632 507 Q 601 503 571 496 L 553 493 Q 501 486 457 476 C 428 470 430 462 459 457 Z" class="stroke12"/>
    <path d="M 498 237 Q 513 218 526 211 Q 533 205 545 222 Q 555 240 573 335 Q 579 357 595 378 Q 605 388 596 398 Q 583 410 551 428 Q 527 434 391 388 C 363 378 366 350 394 361 Q 505 406 524 393 Q 533 383 532 371 Q 517 269 508 259 C 498 237 498 237 498 237 Z" class="stroke13"/>
    <path d="M 392 291 L 476 306 Q 492 310 485 319 Q 476 329 458 330 Q 430 333 393 311 C 367 296 362 286 392 291 Z" class="stroke14"/>
    <path d="M 391 220 Q 394 223 498 237 C 528 241 532 242 508 259 Q 504 263 495 264 Q 480 267 391 241 C 362 233 363 210 391 220 Z" class="stroke15"/>
    <path d="M 485 161 Q 457 149 406 122 Q 399 118 395 121 Q 392 124 391 220 L 391 241 Q 391 269 392 291 L 393 311 Q 393 347 394 361 C 395 385 395 385 391 388 Q 390 389 389 390 Q 380 399 345 408 Q 332 409 327 406 Q 323 402 331 386 Q 352 358 357 267 Q 356 254 357 237 Q 357 128 310 75 Q 301 65 307 48 Q 314 26 325 15 Q 335 8 345 19 Q 382 62 494 148 C 518 166 512 173 485 161 Z" class="stroke16"/>
    <path d="M 494 148 Q 527 97 536 95 Q 543 94 550 101 Q 556 111 555 133 Q 555 148 537 164 Q 489 197 480 194 Q 476 193 474 183 Q 474 176 485 161 L 494 148 Z" class="stroke17"/>
    <path d="M 800 335 Q 846 342 908 344 Q 947 344 952 353 Q 956 363 942 373 Q 893 404 841 384 Q 823 381 804 374 L 748 361 Q 676 346 593 330 Q 577 327 589 315 Q 601 305 615 301 Q 631 298 644 303 Q 693 319 749 327 L 800 335 Z" class="stroke18"/>
    <path d="M 716 76 Q 682 83 650 91 Q 638 94 639 86 Q 640 79 650 71 Q 720 8 744 -29 Q 759 -45 774 -32 Q 810 5 809 73 Q 800 172 800 335 L 804 374 Q 805 387 811 399 Q 820 418 803 431 Q 778 453 747 462 Q 728 469 721 461 Q 715 454 726 439 Q 748 402 748 361 L 749 327 Q 758 95 737 78 Q 730 71 716 76 Z" class="stroke19"/>
    <path d="M 588 231 Q 630 167 651 163 Q 663 162 670 176 Q 673 188 666 206 Q 653 234 595 254 Q 588 257 585 247 Q 584 240 588 231 Z" class="stroke20"/>
    <text x="97" y="593" style="transform-origin:97px 593px; transform:scale(1,-1);">1</text>
    <text x="149" y="585" style="transform-origin:149px 585px; transform:scale(1,-1);">2</text>
    <text x="176" y="405" style="transform-origin:176px 405px; transform:scale(1,-1);">3</text>
    <text x="717" y="815" style="transform-origin:717px 815px; transform:scale(1,-1);">4</text>
    <text x="435" y="703" style="transform-origin:435px 703px; transform:scale(1,-1);">5</text>
    <text x="568" y="724" style="transform-origin:568px 724px; transform:scale(1,-1);">6</text>
    <text x="755" y="771" style="transform-origin:755px 771px; transform:scale(1,-1);">7</text>
    <text x="385" y="596" style="transform-origin:385px 596px; transform:scale(1,-1);">8</text>
    <text x="429" y="594" style="transform-origin:429px 594px; transform:scale(1,-1);">9</text>
    <text x="547" y="587" style="transform-origin:547px 587px; transform:scale(1,-1);">10</text>
    <text x="639" y="605" style="transform-origin:639px 605px; transform:scale(1,-1);">11</text>
    <text x="465" y="462" style="transform-origin:465px 462px; transform:scale(1,-1);">12</text>
    <text x="404" y="369" style="transform-origin:404px 369px; transform:scale(1,-1);">13</text>
    <text x="398" y="296" style="transform-origin:398px 296px; transform:scale(1,-1);">14</text>
    <text x="396" y="227" style="transform-origin:396px 227px; transform:scale(1,-1);">15</text>
    <text x="332" y="402" style="transform-origin:332px 402px; transform:scale(1,-1);">16</text>
    <text x="482" y="186" style="transform-origin:482px 186px; transform:scale(1,-1);">17</text>
    <text x="601" y="320" style="transform-origin:601px 320px; transform:scale(1,-1);">18</text>
    <text x="730" y="455" style="transform-origin:730px 455px; transform:scale(1,-1);">19</text>
    <text x="595" y="244" style="transform-origin:595px 244px; transform:scale(1,-1);">20</text></g>
</svg>