<svg version="1.1" viewBox="0 0 1024 1024" xmlns="http://www.w3.org/2000/svg">
  <g stroke="lightgray" stroke-dasharray="1,1" stroke-width="1" transform="scale(4, 4)">
    <line x1="0" y1="0" x2="256" y2="256"/>
    <line x1="256" y1="0" x2="0" y2="256"/>
    <line x1="128" y1="0" x2="128" y2="256"/>
    <line x1="0" y1="128" x2="256" y2="128"/>
  </g>
  <g transform="scale(1, -1) translate(0, -900)">
    <style type="text/css">
        .stroke1 {fill: #BF0909;}
        .stroke2 {fill: #BFBF09;}
        .stroke3 {fill: #09BF09;}
        .stroke4 {fill: #09BFBF;}
        .stroke5 {fill: #0909BF;}
        .stroke6 {fill: #BF09BF;}
        .stroke7 {fill: #42005e;}
        .stroke8 {fill: #ff3333;}
        .stroke9 {fill: #BFBFBF;}
        .stroke10 {fill: #00a53f;}
        .stroke11 {fill: #fff000;}
        .stroke12 {fill: #6600a5;}
        .stroke13 {fill: #0053a5;}
        .stroke14 {fill: #62c22b;}
        .stroke15 {fill: #BF09BF;}
        .stroke16 {fill: #BF0909;}
        .stroke17 {fill: #BFBF09;}
        .stroke18 {fill: #09BF09;}
        .stroke19 {fill: #09BFBF;}
        .stroke20 {fill: #0909BF;}
        text {
            font-family: Helvetica;
            font-size: 50px;
            fill: #FFFFFF;
            paint-order: stroke;
            stroke: #000000;
            stroke-width: 4px;
            stroke-linecap: butt;
            stroke-linejoin: miter;
            font-weight: 800;
        }
    </style>

    <path d="M 314 440 Q 339 449 369 456 Q 400 466 405 471 Q 414 480 408 488 Q 401 500 370 505 Q 342 508 316 496 L 266 475 Q 167 448 139 443 Q 102 433 130 419 Q 172 401 258 424 Q 261 425 266 426 L 314 440 Z" class="stroke1"/>
    <path d="M 307 269 Q 311 357 314 440 L 316 496 Q 317 607 339 730 Q 343 742 321 758 Q 281 779 255 783 Q 237 786 228 776 Q 221 769 229 751 Q 260 708 260 678 Q 264 581 266 475 L 266 426 Q 265 342 261 251 C 260 221 306 239 307 269 Z" class="stroke2"/>
    <path d="M 261 251 Q 203 230 142 206 Q 124 199 93 197 Q 80 194 78 183 Q 77 167 88 160 Q 116 144 154 127 Q 166 124 178 135 Q 209 165 367 257 Q 389 270 405 285 Q 418 295 418 306 Q 411 310 398 307 Q 355 289 307 269 L 261 251 Z" class="stroke3"/>
    <path d="M 746 487 Q 777 583 818 612 Q 837 633 820 653 Q 801 668 742 696 Q 720 705 648 673 Q 570 646 485 631 Q 467 628 470 618 Q 474 609 494 603 Q 522 593 559 608 Q 626 623 689 638 Q 705 642 713 636 Q 723 624 719 602 Q 704 541 687 492 C 677 464 736 459 746 487 Z" class="stroke4"/>
    <path d="M 529 412 Q 539 411 551 414 Q 615 433 757 455 Q 769 456 769 466 Q 769 473 746 487 C 721 503 716 501 687 492 Q 594 462 520 446 C 491 440 499 413 529 412 Z" class="stroke5"/>
    <path d="M 955 120 Q 940 156 925 263 Q 925 281 917 286 Q 910 290 905 271 Q 874 157 853 122 Q 835 101 785 88 Q 668 58 572 99 Q 535 118 524 141 Q 494 205 529 412 C 533 437 533 437 520 446 Q 507 459 486 467 Q 473 471 464 466 Q 457 462 462 444 Q 475 404 472 365 Q 459 175 475 121 Q 479 91 508 66 Q 595 -10 806 18 Q 825 22 847 27 Q 898 42 947 76 Q 969 92 955 120 Z" class="stroke6"/>
    <text x="131" y="432" style="transform-origin:131px 432px; transform:scale(1,-1);">1</text>
    <text x="242" y="766" style="transform-origin:242px 766px; transform:scale(1,-1);">2</text>
    <text x="95" y="180" style="transform-origin:95px 180px; transform:scale(1,-1);">3</text>
    <text x="480" y="620" style="transform-origin:480px 620px; transform:scale(1,-1);">4</text>
    <text x="528" y="442" style="transform-origin:528px 442px; transform:scale(1,-1);">5</text>
    <text x="472" y="457" style="transform-origin:472px 457px; transform:scale(1,-1);">6</text></g>
</svg>