<svg version="1.1" viewBox="0 0 1024 1024" xmlns="http://www.w3.org/2000/svg">
  <g stroke="lightgray" stroke-dasharray="1,1" stroke-width="1" transform="scale(4, 4)">
    <line x1="0" y1="0" x2="256" y2="256"/>
    <line x1="256" y1="0" x2="0" y2="256"/>
    <line x1="128" y1="0" x2="128" y2="256"/>
    <line x1="0" y1="128" x2="256" y2="128"/>
  </g>
  <g transform="scale(1, -1) translate(0, -900)">
    <style type="text/css">
        .stroke1 {fill: #BF0909;}
        .stroke2 {fill: #BFBF09;}
        .stroke3 {fill: #09BF09;}
        .stroke4 {fill: #09BFBF;}
        .stroke5 {fill: #0909BF;}
        .stroke6 {fill: #BF09BF;}
        .stroke7 {fill: #42005e;}
        .stroke8 {fill: #ff3333;}
        .stroke9 {fill: #BFBFBF;}
        .stroke10 {fill: #00a53f;}
        .stroke11 {fill: #fff000;}
        .stroke12 {fill: #6600a5;}
        .stroke13 {fill: #0053a5;}
        .stroke14 {fill: #62c22b;}
        .stroke15 {fill: #BF09BF;}
        .stroke16 {fill: #BF0909;}
        .stroke17 {fill: #BFBF09;}
        .stroke18 {fill: #09BF09;}
        .stroke19 {fill: #09BFBF;}
        .stroke20 {fill: #0909BF;}
        text {
            font-family: Helvetica;
            font-size: 50px;
            fill: #FFFFFF;
            paint-order: stroke;
            stroke: #000000;
            stroke-width: 4px;
            stroke-linecap: butt;
            stroke-linejoin: miter;
            font-weight: 800;
        }
    </style>

    <path d="M 308 455 Q 393 480 397 483 Q 404 492 400 500 Q 393 512 362 517 Q 334 521 309 511 L 261 493 Q 155 468 132 463 Q 95 454 122 439 Q 159 418 257 442 Q 258 443 262 443 L 308 455 Z" class="stroke1"/>
    <path d="M 302 257 Q 305 360 308 455 L 309 511 Q 312 650 331 732 Q 334 744 312 759 Q 275 778 248 782 Q 230 786 222 776 Q 215 769 223 752 Q 254 709 255 678 Q 259 590 261 493 L 262 443 Q 262 346 258 239 C 257 209 301 227 302 257 Z" class="stroke2"/>
    <path d="M 258 239 Q 200 218 139 194 Q 120 187 90 185 Q 77 182 75 172 Q 74 157 85 150 Q 110 137 145 119 Q 157 118 168 127 Q 285 202 405 278 Q 418 288 418 297 Q 411 301 399 298 Q 353 279 302 257 L 258 239 Z" class="stroke3"/>
    <path d="M 495 629 Q 483 635 453 641 Q 440 645 437 639 Q 430 633 439 617 Q 476 524 494 375 Q 494 333 520 300 Q 538 278 543 293 Q 546 302 547 312 L 548 348 Q 547 367 542 392 Q 535 429 529 461 L 524 490 Q 511 565 508 595 C 505 625 505 625 495 629 Z" class="stroke4"/>
    <path d="M 703 331 Q 722 301 741 293 Q 751 284 768 307 Q 790 346 827 549 Q 837 582 861 608 Q 874 621 863 636 Q 847 654 802 681 Q 784 690 707 671 Q 695 671 580 647 Q 534 637 495 629 C 466 623 479 586 508 595 Q 509 596 514 597 Q 589 619 721 639 Q 749 643 759 634 Q 778 612 774 589 Q 734 370 712 358 C 699 337 699 337 703 331 Z" class="stroke5"/>
    <path d="M 529 461 Q 563 455 650 469 Q 701 479 707 482 Q 714 489 711 497 Q 704 507 678 515 Q 650 519 623 509 Q 601 502 577 497 Q 552 493 524 490 C 494 487 499 465 529 461 Z" class="stroke6"/>
    <path d="M 547 312 Q 596 324 703 331 C 733 333 735 339 712 358 Q 705 364 694 371 Q 678 380 647 372 Q 593 359 548 348 C 519 341 518 305 547 312 Z" class="stroke7"/>
    <path d="M 335 121 Q 310 120 328 99 Q 361 66 407 75 Q 581 117 898 118 Q 916 118 934 117 Q 958 117 963 126 Q 970 139 951 156 Q 891 199 848 192 Q 664 158 335 121 Z" class="stroke8"/>
    <text x="124" y="452" style="transform-origin:124px 452px; transform:scale(1,-1);">1</text>
    <text x="235" y="766" style="transform-origin:235px 766px; transform:scale(1,-1);">2</text>
    <text x="92" y="168" style="transform-origin:92px 168px; transform:scale(1,-1);">3</text>
    <text x="446" y="631" style="transform-origin:446px 631px; transform:scale(1,-1);">4</text>
    <text x="509" y="602" style="transform-origin:509px 602px; transform:scale(1,-1);">5</text>
    <text x="532" y="484" style="transform-origin:532px 484px; transform:scale(1,-1);">6</text>
    <text x="551" y="318" style="transform-origin:551px 318px; transform:scale(1,-1);">7</text>
    <text x="331" y="110" style="transform-origin:331px 110px; transform:scale(1,-1);">8</text></g>
</svg>