<svg version="1.1" viewBox="0 0 1024 1024" xmlns="http://www.w3.org/2000/svg">
  <g stroke="lightgray" stroke-dasharray="1,1" stroke-width="1" transform="scale(4, 4)">
    <line x1="0" y1="0" x2="256" y2="256"/>
    <line x1="256" y1="0" x2="0" y2="256"/>
    <line x1="128" y1="0" x2="128" y2="256"/>
    <line x1="0" y1="128" x2="256" y2="128"/>
  </g>
  <g transform="scale(1, -1) translate(0, -900)">
    <style type="text/css">
        .stroke1 {fill: #BF0909;}
        .stroke2 {fill: #BFBF09;}
        .stroke3 {fill: #09BF09;}
        .stroke4 {fill: #09BFBF;}
        .stroke5 {fill: #0909BF;}
        .stroke6 {fill: #BF09BF;}
        .stroke7 {fill: #42005e;}
        .stroke8 {fill: #ff3333;}
        .stroke9 {fill: #BFBFBF;}
        .stroke10 {fill: #00a53f;}
        .stroke11 {fill: #fff000;}
        .stroke12 {fill: #6600a5;}
        .stroke13 {fill: #0053a5;}
        .stroke14 {fill: #62c22b;}
        .stroke15 {fill: #BF09BF;}
        .stroke16 {fill: #BF0909;}
        .stroke17 {fill: #BFBF09;}
        .stroke18 {fill: #09BF09;}
        .stroke19 {fill: #09BFBF;}
        .stroke20 {fill: #0909BF;}
        text {
            font-family: Helvetica;
            font-size: 50px;
            fill: #FFFFFF;
            paint-order: stroke;
            stroke: #000000;
            stroke-width: 4px;
            stroke-linecap: butt;
            stroke-linejoin: miter;
            font-weight: 800;
        }
    </style>

    <path d="M 314 525 Q 335 532 360 538 Q 388 547 393 551 Q 402 560 396 568 Q 389 580 358 585 Q 336 588 316 581 L 265 561 Q 195 540 143 531 Q 106 522 134 507 Q 182 486 236 504 Q 248 508 266 511 L 314 525 Z" class="stroke1"/>
    <path d="M 307 364 Q 310 446 314 525 L 316 581 Q 319 692 337 749 Q 340 761 319 776 Q 282 795 257 799 Q 241 802 232 793 Q 225 786 233 770 Q 258 733 260 707 Q 264 637 265 561 L 266 511 Q 265 432 262 344 C 261 314 306 334 307 364 Z" class="stroke2"/>
    <path d="M 262 344 Q 126 289 96 283 Q 81 290 77 269 Q 77 254 88 247 Q 115 232 152 217 Q 164 216 175 226 Q 209 259 248 283 Q 308 319 367 356 Q 389 369 405 386 Q 418 396 417 405 Q 411 411 398 406 Q 355 387 307 364 L 262 344 Z" class="stroke3"/>
    <path d="M 546 635 Q 633 669 670 692 Q 713 720 754 734 Q 772 738 774 747 Q 775 759 761 769 Q 736 782 687 792 Q 669 796 656 793 Q 649 787 650 776 Q 653 746 534 651 C 511 632 518 624 546 635 Z" class="stroke4"/>
    <path d="M 538 519 Q 541 594 545 624 Q 546 630 546 635 C 547 644 547 644 534 651 Q 533 654 528 655 Q 477 679 461 675 Q 440 671 458 648 Q 497 587 475 403 Q 468 358 449 305 Q 425 241 355 169 Q 340 156 337 148 Q 336 141 348 142 Q 388 145 448 212 Q 514 290 528 407 Q 532 444 536 489 L 538 519 Z" class="stroke5"/>
    <path d="M 704 512 Q 759 524 857 529 Q 899 529 906 539 Q 910 551 894 562 Q 836 601 781 576 Q 741 567 682 551 Q 615 536 538 519 C 509 513 507 495 536 489 Q 560 482 598 490 Q 619 497 644 500 L 704 512 Z" class="stroke6"/>
    <path d="M 723 360 Q 723 423 733 474 Q 736 492 704 512 C 680 530 633 528 644 500 Q 659 470 664 405 Q 664 389 664 370 L 665 333 Q 665 0 676 -27 Q 679 -31 682 -37 Q 688 -44 695 -42 Q 708 -33 717 27 Q 717 40 722 310 L 723 360 Z" class="stroke7"/>
    <path d="M 722 310 Q 782 288 846 256 Q 865 246 878 247 Q 885 248 888 259 Q 894 272 870 303 Q 849 336 727 360 Q 724 360 723 360 L 664 370 Q 624 377 598 380 Q 589 381 591 371 Q 594 362 665 333 L 722 310 Z" class="stroke8"/>
    <text x="135" y="520" style="transform-origin:135px 520px; transform:scale(1,-1);">1</text>
    <text x="244" y="783" style="transform-origin:244px 783px; transform:scale(1,-1);">2</text>
    <text x="90" y="271" style="transform-origin:90px 271px; transform:scale(1,-1);">3</text>
    <text x="762" y="750" style="transform-origin:762px 750px; transform:scale(1,-1);">4</text>
    <text x="463" y="661" style="transform-origin:463px 661px; transform:scale(1,-1);">5</text>
    <text x="544" y="496" style="transform-origin:544px 496px; transform:scale(1,-1);">6</text>
    <text x="652" y="498" style="transform-origin:652px 498px; transform:scale(1,-1);">7</text>
    <text x="597" y="373" style="transform-origin:597px 373px; transform:scale(1,-1);">8</text></g>
</svg>