<svg version="1.1" viewBox="0 0 1024 1024" xmlns="http://www.w3.org/2000/svg">
  <g stroke="lightgray" stroke-dasharray="1,1" stroke-width="1" transform="scale(4, 4)">
    <line x1="0" y1="0" x2="256" y2="256"/>
    <line x1="256" y1="0" x2="0" y2="256"/>
    <line x1="128" y1="0" x2="128" y2="256"/>
    <line x1="0" y1="128" x2="256" y2="128"/>
  </g>
  <g transform="scale(1, -1) translate(0, -900)">
    <style type="text/css">
        .stroke1 {fill: #BF0909;}
        .stroke2 {fill: #BFBF09;}
        .stroke3 {fill: #09BF09;}
        .stroke4 {fill: #09BFBF;}
        .stroke5 {fill: #0909BF;}
        .stroke6 {fill: #BF09BF;}
        .stroke7 {fill: #42005e;}
        .stroke8 {fill: #ff3333;}
        .stroke9 {fill: #BFBFBF;}
        .stroke10 {fill: #00a53f;}
        .stroke11 {fill: #fff000;}
        .stroke12 {fill: #6600a5;}
        .stroke13 {fill: #0053a5;}
        .stroke14 {fill: #62c22b;}
        .stroke15 {fill: #BF09BF;}
        .stroke16 {fill: #BF0909;}
        .stroke17 {fill: #BFBF09;}
        .stroke18 {fill: #09BF09;}
        .stroke19 {fill: #09BFBF;}
        .stroke20 {fill: #0909BF;}
        text {
            font-family: Helvetica;
            font-size: 50px;
            fill: #FFFFFF;
            paint-order: stroke;
            stroke: #000000;
            stroke-width: 4px;
            stroke-linecap: butt;
            stroke-linejoin: miter;
            font-weight: 800;
        }
    </style>

    <path d="M 279 170 Q 349 119 353 117 Q 360 118 366 129 Q 372 139 364 169 Q 355 202 307 219 L 267 234 Q 246 243 217 253 Q 198 260 198 279 Q 217 343 236 409 L 248 452 Q 270 543 290 635 Q 297 680 316 704 Q 326 725 320 737 Q 307 755 261 780 Q 242 790 226 783 Q 214 776 224 760 Q 255 718 205 442 L 195 394 Q 168 301 156 278 Q 147 256 169 240 Q 209 221 245 195 L 279 170 Z" class="stroke1"/>
    <path d="M 245 195 Q 179 120 100 66 Q 88 57 99 55 Q 171 55 276 167 Q 277 168 279 170 L 307 219 Q 331 255 359 376 Q 365 418 383 452 Q 392 468 377 477 Q 335 508 312 502 Q 300 498 305 485 Q 309 478 312 467 L 316 438 L 316 436 Q 304 304 267 234 L 245 195 Z" class="stroke2"/>
    <path d="M 312 467 Q 281 461 248 452 L 205 442 Q 156 433 104 421 Q 85 417 57 420 Q 44 419 42 410 Q 39 397 48 389 Q 67 373 98 352 Q 108 349 120 356 Q 154 380 195 394 L 236 409 Q 275 424 316 438 C 344 448 341 473 312 467 Z" class="stroke3"/>
    <path d="M 457 753 Q 490 704 515 691 Q 527 687 536 697 Q 542 707 541 721 Q 538 740 525 753 Q 476 792 450 787 Q 444 786 445 776 Q 446 766 457 753 Z" class="stroke4"/>
    <path d="M 686 801 Q 671 765 617 686 Q 610 670 625 674 Q 671 710 731 764 Q 747 782 768 794 Q 787 806 775 821 Q 760 836 734 846 Q 710 856 699 852 Q 687 849 692 837 Q 698 821 686 801 Z" class="stroke5"/>
    <path d="M 635 614 Q 773 647 779 650 Q 786 657 783 665 Q 776 675 750 683 Q 731 686 637 658 Q 511 630 448 622 Q 415 616 439 601 Q 463 589 491 587 L 492 586 C 503 584 504 584 533 591 Q 570 600 609 607 L 635 614 Z" class="stroke6"/>
    <path d="M 765 336 Q 772 370 779 401 L 793 448 Q 803 473 823 495 Q 839 514 815 529 Q 793 545 769 557 Q 754 567 735 557 Q 716 550 662 535 L 619 527 Q 586 521 555 512 L 513 502 Q 468 493 438 489 Q 426 489 425 482 Q 424 476 443 466 Q 462 453 487 463 Q 500 467 514 471 L 553 482 Q 571 489 620 495 L 662 502 Q 692 508 728 513 Q 740 514 744 509 Q 754 494 745 438 L 738 398 Q 731 370 723 336 C 716 307 759 307 765 336 Z" class="stroke7"/>
    <path d="M 779 401 Q 821 405 870 405 Q 925 405 932 414 Q 936 424 921 436 Q 869 470 808 452 Q 801 451 793 448 L 745 438 Q 705 432 663 423 L 622 415 Q 586 411 549 403 L 514 397 Q 456 390 394 379 Q 376 378 390 363 Q 403 351 418 347 Q 436 343 450 347 Q 480 357 514 364 L 548 371 Q 581 380 617 384 Q 618 385 622 384 L 663 391 Q 694 395 738 398 L 779 401 Z" class="stroke8"/>
    <path d="M 663 287 Q 717 294 784 300 Q 794 301 795 309 Q 796 316 768 335 Q 767 336 765 336 L 723 336 Q 692 330 663 322 L 622 314 Q 582 307 545 300 L 511 295 Q 468 291 430 285 Q 411 284 422 267 Q 434 255 479 260 Q 488 263 499 263 L 544 272 Q 578 279 622 283 L 663 287 Z" class="stroke9"/>
    <path d="M 492 586 Q 495 573 500 559 Q 510 538 513 502 L 514 471 Q 514 440 514 397 L 514 364 Q 513 333 511 295 L 505 204 Q 501 143 480 68 Q 464 16 498 -27 Q 508 -40 518 -28 Q 537 -4 538 108 Q 541 199 544 272 L 545 300 Q 546 339 548 371 L 549 403 Q 550 451 553 482 L 555 512 Q 555 537 557 541 Q 563 572 536 589 Q 535 590 533 591 C 510 610 484 615 492 586 Z" class="stroke10"/>
    <path d="M 663 269 Q 663 279 663 287 L 663 322 Q 663 356 663 391 L 663 423 Q 663 457 663 493 Q 662 497 662 502 L 662 535 Q 662 575 664 583 Q 667 593 659 599 Q 650 606 635 614 C 609 629 603 633 609 607 L 610 606 Q 613 600 619 527 L 620 495 Q 621 456 622 415 L 622 384 Q 622 350 622 314 L 622 283 Q 622 87 613 4 Q 610 -35 633 -62 Q 643 -75 652 -59 Q 671 -19 666 59 Q 665 96 664 150 Q 664 190 663 229 L 663 269 Z" class="stroke11"/>
    <path d="M 499 263 Q 445 164 313 34 Q 309 27 316 25 Q 320 24 329 29 Q 431 96 505 204 C 554 274 514 289 499 263 Z" class="stroke12"/>
    <path d="M 663 229 Q 777 64 810 47 Q 855 29 956 36 Q 972 36 975 40 Q 976 46 965 53 Q 803 131 727 203 Q 696 236 663 269 C 642 290 646 254 663 229 Z" class="stroke13"/>
    <text x="234" y="771" style="transform-origin:234px 771px; transform:scale(1,-1);">1</text>
    <text x="314" y="491" style="transform-origin:314px 491px; transform:scale(1,-1);">2</text>
    <text x="56" y="406" style="transform-origin:56px 406px; transform:scale(1,-1);">3</text>
    <text x="455" y="778" style="transform-origin:455px 778px; transform:scale(1,-1);">4</text>
    <text x="700" y="843" style="transform-origin:700px 843px; transform:scale(1,-1);">5</text>
    <text x="441" y="613" style="transform-origin:441px 613px; transform:scale(1,-1);">6</text>
    <text x="433" y="482" style="transform-origin:433px 482px; transform:scale(1,-1);">7</text>
    <text x="392" y="371" style="transform-origin:392px 371px; transform:scale(1,-1);">8</text>
    <text x="427" y="275" style="transform-origin:427px 275px; transform:scale(1,-1);">9</text>
    <text x="500" y="581" style="transform-origin:500px 581px; transform:scale(1,-1);">10</text>
    <text x="617" y="605" style="transform-origin:617px 605px; transform:scale(1,-1);">11</text>
    <text x="505" y="258" style="transform-origin:505px 258px; transform:scale(1,-1);">12</text>
    <text x="667" y="262" style="transform-origin:667px 262px; transform:scale(1,-1);">13</text></g>
</svg>