<svg version="1.1" viewBox="0 0 1024 1024" xmlns="http://www.w3.org/2000/svg">
  <g stroke="lightgray" stroke-dasharray="1,1" stroke-width="1" transform="scale(4, 4)">
    <line x1="0" y1="0" x2="256" y2="256"/>
    <line x1="256" y1="0" x2="0" y2="256"/>
    <line x1="128" y1="0" x2="128" y2="256"/>
    <line x1="0" y1="128" x2="256" y2="128"/>
  </g>
  <g transform="scale(1, -1) translate(0, -900)">
    <style type="text/css">
        .stroke1 {fill: #BF0909;}
        .stroke2 {fill: #BFBF09;}
        .stroke3 {fill: #09BF09;}
        .stroke4 {fill: #09BFBF;}
        .stroke5 {fill: #0909BF;}
        .stroke6 {fill: #BF09BF;}
        .stroke7 {fill: #42005e;}
        .stroke8 {fill: #ff3333;}
        .stroke9 {fill: #BFBFBF;}
        .stroke10 {fill: #00a53f;}
        .stroke11 {fill: #fff000;}
        .stroke12 {fill: #6600a5;}
        .stroke13 {fill: #0053a5;}
        .stroke14 {fill: #62c22b;}
        .stroke15 {fill: #BF09BF;}
        .stroke16 {fill: #BF0909;}
        .stroke17 {fill: #BFBF09;}
        .stroke18 {fill: #09BF09;}
        .stroke19 {fill: #09BFBF;}
        .stroke20 {fill: #0909BF;}
        text {
            font-family: Helvetica;
            font-size: 50px;
            fill: #FFFFFF;
            paint-order: stroke;
            stroke: #000000;
            stroke-width: 4px;
            stroke-linecap: butt;
            stroke-linejoin: miter;
            font-weight: 800;
        }
    </style>

    <path d="M 229 419 Q 254 531 274 645 Q 281 688 296 712 Q 306 733 299 744 Q 286 760 242 783 Q 223 793 208 784 Q 198 777 207 763 Q 243 715 192 410 L 183 366 Q 173 324 156 289 Q 149 268 167 254 Q 206 232 237 204 L 270 176 Q 319 127 331 124 Q 338 125 344 135 Q 351 145 345 173 Q 339 203 296 224 L 258 242 Q 240 252 214 263 Q 195 273 197 291 Q 209 336 220 380 L 229 419 Z" class="stroke1"/>
    <path d="M 237 204 Q 185 137 127 97 Q 114 88 109 84 Q 106 78 117 77 Q 144 71 211 116 Q 245 143 270 176 L 296 224 Q 332 312 354 410 Q 361 426 364 436 Q 371 452 356 464 Q 319 492 306 492 Q 290 492 299 471 Q 305 455 304 437 L 301 409 Q 289 318 258 242 L 237 204 Z" class="stroke2"/>
    <path d="M 304 437 Q 267 430 229 419 L 192 410 Q 146 401 96 389 Q 80 385 52 388 Q 40 387 38 378 Q 37 368 43 360 Q 62 344 90 326 Q 99 323 109 330 Q 143 352 183 366 L 220 380 Q 259 395 301 409 C 329 419 333 443 304 437 Z" class="stroke3"/>
    <path d="M 556 819 Q 583 806 612 789 Q 625 782 639 785 Q 648 788 649 800 Q 650 813 636 836 Q 623 858 542 859 Q 529 858 523 855 Q 520 851 524 840 Q 530 831 556 819 Z" class="stroke4"/>
    <path d="M 385 706 Q 369 703 381 691 Q 402 673 446 682 Q 557 719 841 745 Q 857 746 860 753 Q 864 763 850 773 Q 805 801 760 787 Q 643 757 385 706 Z" class="stroke5"/>
    <path d="M 393 637 Q 384 638 382 634 Q 378 630 386 618 Q 405 593 424 545 Q 428 532 439 523 Q 454 510 456 521 Q 457 528 456 537 L 452 555 Q 439 604 436 617 C 432 636 423 636 393 637 Z" class="stroke6"/>
    <path d="M 554 575 Q 564 614 577 625 Q 593 644 576 653 Q 531 678 523 675 Q 519 675 516 672 Q 467 638 393 637 C 363 636 407 609 436 617 Q 472 627 499 634 Q 518 638 523 632 Q 527 629 523 611 Q 520 595 517 577 C 512 547 546 546 554 575 Z" class="stroke7"/>
    <path d="M 456 537 Q 457 537 460 536 Q 467 535 475 538 Q 503 545 562 555 Q 569 556 569 563 Q 569 567 554 575 C 537 584 537 584 517 577 Q 480 564 452 556 Q 451 556 452 555 C 434 542 434 542 456 537 Z" class="stroke8"/>
    <path d="M 645 679 Q 638 682 626 682 Q 619 683 616 680 Q 612 676 619 665 Q 637 638 651 593 Q 655 580 664 571 Q 677 558 680 568 Q 681 572 681 575 L 679 597 Q 670 643 665 659 C 661 674 661 674 645 679 Z" class="stroke9"/>
    <path d="M 793 612 Q 808 652 822 663 Q 841 682 823 694 Q 808 703 787 717 Q 774 726 732 703 Q 654 682 645 679 C 616 670 636 652 665 659 Q 669 660 678 662 Q 712 671 740 678 Q 759 682 764 675 L 752 616 C 746 587 782 584 793 612 Z" class="stroke10"/>
    <path d="M 681 575 Q 688 574 698 575 Q 731 582 800 590 Q 807 591 808 597 Q 808 601 793 612 C 778 623 778 623 752 616 Q 709 604 679 597 C 650 590 651 578 681 575 Z" class="stroke11"/>
    <path d="M 677 465 Q 731 475 776 481 Q 783 480 790 489 Q 791 498 774 505 Q 750 520 689 499 Q 685 499 682 497 L 633 484 Q 630 485 629 484 Q 589 474 554 467 L 513 460 Q 512 461 510 460 Q 470 456 427 449 Q 406 445 422 434 Q 443 416 469 422 Q 488 428 515 432 L 553 440 Q 590 450 634 458 L 677 465 Z" class="stroke12"/>
    <path d="M 668 383 Q 707 392 744 396 Q 763 399 757 410 Q 748 422 727 426 Q 708 429 673 420 Q 672 420 672 419 L 634 410 Q 589 401 552 392 L 517 384 Q 480 378 446 370 Q 433 367 449 355 Q 464 345 494 350 Q 506 353 518 354 L 552 361 Q 592 370 633 377 L 668 383 Z" class="stroke13"/>
    <path d="M 554 467 Q 555 474 555 479 Q 559 492 553 499 Q 535 515 520 522 Q 511 525 505 522 Q 499 518 501 511 Q 513 492 513 460 L 515 432 Q 515 413 517 384 L 518 354 Q 518 332 520 304 C 522 274 552 280 552 310 Q 552 337 552 361 L 552 392 Q 552 417 553 440 L 554 467 Z" class="stroke14"/>
    <path d="M 662 331 Q 665 358 668 383 L 672 419 Q 673 444 677 465 L 682 497 Q 688 516 690 524 Q 693 531 679 543 Q 654 556 637 561 Q 627 562 620 557 Q 614 553 620 541 Q 632 523 633 484 L 634 458 Q 634 436 634 410 L 633 377 Q 632 352 630 324 C 628 294 659 301 662 331 Z" class="stroke15"/>
    <path d="M 529 279 Q 649 315 851 315 Q 867 315 872 323 Q 875 332 862 341 Q 813 372 772 355 Q 726 346 662 331 L 630 324 Q 620 324 610 321 Q 580 317 552 310 L 520 304 Q 453 294 384 281 Q 369 280 381 267 Q 391 257 406 253 Q 422 250 433 254 Q 460 263 491 270 L 529 279 Z" class="stroke16"/>
    <path d="M 555 255 Q 555 258 555 260 Q 554 270 532 278 Q 531 279 529 279 C 501 290 499 291 491 270 Q 464 191 280 54 Q 264 42 285 44 Q 348 47 477 169 L 499 192 Q 526 223 541 238 C 555 253 555 253 555 255 Z" class="stroke17"/>
    <path d="M 477 169 Q 502 112 485 50 Q 481 22 468 6 Q 455 -15 463 -35 Q 473 -66 490 -78 Q 500 -85 512 -67 Q 540 -30 637 65 Q 653 78 654 86 Q 655 99 636 88 Q 600 67 560 45 Q 544 35 535 38 Q 528 42 529 59 Q 535 123 539 139 Q 543 157 531 169 Q 515 187 499 192 C 472 205 466 197 477 169 Z" class="stroke18"/>
    <path d="M 680 172 Q 741 209 773 222 Q 789 226 786 235 Q 782 248 766 266 Q 751 282 732 285 Q 719 285 719 269 Q 720 251 663 184 C 644 161 654 156 680 172 Z" class="stroke19"/>
    <path d="M 663 184 Q 638 205 612 227 Q 581 255 555 255 C 525 260 515 252 541 238 Q 587 216 680 120 Q 791 12 830 14 Q 903 18 963 33 Q 994 39 991 47 Q 990 51 959 59 Q 793 96 724 142 L 680 172 L 663 184 Z" class="stroke20"/>
    <text x="216" y="773" style="transform-origin:216px 773px; transform:scale(1,-1);">1</text>
    <text x="306" y="480" style="transform-origin:306px 480px; transform:scale(1,-1);">2</text>
    <text x="51" y="375" style="transform-origin:51px 375px; transform:scale(1,-1);">3</text>
    <text x="530" y="848" style="transform-origin:530px 848px; transform:scale(1,-1);">4</text>
    <text x="391" y="696" style="transform-origin:391px 696px; transform:scale(1,-1);">5</text>
    <text x="389" y="630" style="transform-origin:389px 630px; transform:scale(1,-1);">6</text>
    <text x="416" y="631" style="transform-origin:416px 631px; transform:scale(1,-1);">7</text>
    <text x="458" y="556" style="transform-origin:458px 556px; transform:scale(1,-1);">8</text>
    <text x="623" y="674" style="transform-origin:623px 674px; transform:scale(1,-1);">9</text>
    <text x="656" y="676" style="transform-origin:656px 676px; transform:scale(1,-1);">10</text>
    <text x="685" y="581" style="transform-origin:685px 581px; transform:scale(1,-1);">11</text>
    <text x="433" y="439" style="transform-origin:433px 439px; transform:scale(1,-1);">12</text>
    <text x="455" y="364" style="transform-origin:455px 364px; transform:scale(1,-1);">13</text>
    <text x="513" y="513" style="transform-origin:513px 513px; transform:scale(1,-1);">14</text>
    <text x="628" y="549" style="transform-origin:628px 549px; transform:scale(1,-1);">15</text>
    <text x="393" y="272" style="transform-origin:393px 272px; transform:scale(1,-1);">16</text>
    <text x="543" y="258" style="transform-origin:543px 258px; transform:scale(1,-1);">17</text>
    <text x="500" y="180" style="transform-origin:500px 180px; transform:scale(1,-1);">18</text>
    <text x="732" y="272" style="transform-origin:732px 272px; transform:scale(1,-1);">19</text>
    <text x="547" y="240" style="transform-origin:547px 240px; transform:scale(1,-1);">20</text></g>
</svg>