<svg version="1.1" viewBox="0 0 1024 1024" xmlns="http://www.w3.org/2000/svg">
  <g stroke="lightgray" stroke-dasharray="1,1" stroke-width="1" transform="scale(4, 4)">
    <line x1="0" y1="0" x2="256" y2="256"/>
    <line x1="256" y1="0" x2="0" y2="256"/>
    <line x1="128" y1="0" x2="128" y2="256"/>
    <line x1="0" y1="128" x2="256" y2="128"/>
  </g>
  <g transform="scale(1, -1) translate(0, -900)">
    <style type="text/css">
        .stroke1 {fill: #BF0909;}
        .stroke2 {fill: #BFBF09;}
        .stroke3 {fill: #09BF09;}
        .stroke4 {fill: #09BFBF;}
        .stroke5 {fill: #0909BF;}
        .stroke6 {fill: #BF09BF;}
        .stroke7 {fill: #42005e;}
        .stroke8 {fill: #ff3333;}
        .stroke9 {fill: #BFBFBF;}
        .stroke10 {fill: #00a53f;}
        .stroke11 {fill: #fff000;}
        .stroke12 {fill: #6600a5;}
        .stroke13 {fill: #0053a5;}
        .stroke14 {fill: #62c22b;}
        .stroke15 {fill: #BF09BF;}
        .stroke16 {fill: #BF0909;}
        .stroke17 {fill: #BFBF09;}
        .stroke18 {fill: #09BF09;}
        .stroke19 {fill: #09BFBF;}
        .stroke20 {fill: #0909BF;}
        text {
            font-family: Helvetica;
            font-size: 50px;
            fill: #FFFFFF;
            paint-order: stroke;
            stroke: #000000;
            stroke-width: 4px;
            stroke-linecap: butt;
            stroke-linejoin: miter;
            font-weight: 800;
        }
    </style>

    <path d="M 456 787 Q 507 736 549 722 Q 565 721 575 736 Q 579 751 575 770 Q 557 815 491 826 Q 448 835 437 829 Q 430 828 434 814 Q 437 801 456 787 Z" class="stroke1"/>
    <path d="M 278 646 Q 278 647 278 649 Q 265 674 252 683 Q 231 699 230 670 Q 234 634 187 573 Q 147 536 183 471 Q 199 443 220 473 Q 238 500 250 540 Q 265 589 277 616 L 278 646 Z" class="stroke2"/>
    <path d="M 277 616 Q 301 604 352 616 Q 469 655 670 674 Q 710 678 723 676 Q 738 669 736 661 Q 709 610 683 559 Q 683 558 685 556 Q 692 552 709 563 Q 770 603 821 617 Q 863 630 862 639 Q 861 649 791 704 Q 769 723 691 708 Q 556 690 378 660 Q 329 653 278 646 C 248 642 248 624 277 616 Z" class="stroke3"/>
    <path d="M 402 474 Q 421 481 447 489 Q 496 505 533 523 Q 573 539 607 548 Q 622 549 625 556 Q 628 566 617 575 Q 563 612 534 608 Q 527 604 527 594 Q 527 564 387 490 C 361 476 374 464 402 474 Z" class="stroke4"/>
    <path d="M 403 416 Q 403 471 402 474 C 402 480 402 480 387 490 Q 366 506 341 513 Q 328 517 318 511 Q 311 505 318 490 Q 337 459 346 423 Q 353 389 371 250 C 375 220 414 224 412 254 Q 406 333 404 384 L 403 416 Z" class="stroke5"/>
    <path d="M 588 409 Q 651 419 712 427 Q 725 428 726 435 Q 726 447 705 462 Q 666 486 603 459 Q 585 455 403 416 C 374 410 374 380 404 384 Q 405 384 548 402 L 588 409 Z" class="stroke6"/>
    <path d="M 589 273 Q 601 348 606 360 Q 618 382 588 409 C 566 430 549 432 548 402 Q 548 396 544 267 C 543 237 584 243 589 273 Z" class="stroke7"/>
    <path d="M 371 250 Q 269 241 162 231 Q 140 230 155 211 Q 170 196 188 190 Q 210 183 227 188 Q 500 254 872 234 Q 893 234 898 243 Q 904 255 887 270 Q 833 312 795 304 Q 714 291 589 273 L 544 267 Q 528 267 510 264 Q 462 260 412 254 L 371 250 Z" class="stroke8"/>
    <path d="M 367 153 Q 351 96 207 -3 Q 182 -16 212 -17 Q 272 -20 393 66 Q 396 73 442 104 Q 455 116 455 127 Q 454 142 425 154 Q 395 170 381 168 Q 372 167 367 153 Z" class="stroke9"/>
    <path d="M 562 138 Q 628 78 705 -8 Q 723 -30 739 -35 Q 749 -36 757 -25 Q 770 -12 757 37 Q 745 97 564 172 Q 554 179 551 165 Q 551 150 562 138 Z" class="stroke10"/>
    <text x="444" y="820" style="transform-origin:444px 820px; transform:scale(1,-1);">1</text>
    <text x="241" y="676" style="transform-origin:241px 676px; transform:scale(1,-1);">2</text>
    <text x="286" y="638" style="transform-origin:286px 638px; transform:scale(1,-1);">3</text>
    <text x="615" y="560" style="transform-origin:615px 560px; transform:scale(1,-1);">4</text>
    <text x="327" y="502" style="transform-origin:327px 502px; transform:scale(1,-1);">5</text>
    <text x="404" y="389" style="transform-origin:404px 389px; transform:scale(1,-1);">6</text>
    <text x="555" y="400" style="transform-origin:555px 400px; transform:scale(1,-1);">7</text>
    <text x="159" y="221" style="transform-origin:159px 221px; transform:scale(1,-1);">8</text>
    <text x="438" y="126" style="transform-origin:438px 126px; transform:scale(1,-1);">9</text>
    <text x="562" y="160" style="transform-origin:562px 160px; transform:scale(1,-1);">10</text></g>
</svg>