<svg version="1.1" viewBox="0 0 1024 1024" xmlns="http://www.w3.org/2000/svg">
  <g stroke="lightgray" stroke-dasharray="1,1" stroke-width="1" transform="scale(4, 4)">
    <line x1="0" y1="0" x2="256" y2="256"/>
    <line x1="256" y1="0" x2="0" y2="256"/>
    <line x1="128" y1="0" x2="128" y2="256"/>
    <line x1="0" y1="128" x2="256" y2="128"/>
  </g>
  <g transform="scale(1, -1) translate(0, -900)">
    <style type="text/css">
        .stroke1 {fill: #BF0909;}
        .stroke2 {fill: #BFBF09;}
        .stroke3 {fill: #09BF09;}
        .stroke4 {fill: #09BFBF;}
        .stroke5 {fill: #0909BF;}
        .stroke6 {fill: #BF09BF;}
        .stroke7 {fill: #42005e;}
        .stroke8 {fill: #ff3333;}
        .stroke9 {fill: #BFBFBF;}
        .stroke10 {fill: #00a53f;}
        .stroke11 {fill: #fff000;}
        .stroke12 {fill: #6600a5;}
        .stroke13 {fill: #0053a5;}
        .stroke14 {fill: #62c22b;}
        .stroke15 {fill: #BF09BF;}
        .stroke16 {fill: #BF0909;}
        .stroke17 {fill: #BFBF09;}
        .stroke18 {fill: #09BF09;}
        .stroke19 {fill: #09BFBF;}
        .stroke20 {fill: #0909BF;}
        text {
            font-family: Helvetica;
            font-size: 50px;
            fill: #FFFFFF;
            paint-order: stroke;
            stroke: #000000;
            stroke-width: 4px;
            stroke-linecap: butt;
            stroke-linejoin: miter;
            font-weight: 800;
        }
    </style>

    <path d="M 654 652 Q 679 709 709 727 Q 725 745 711 763 Q 695 776 643 802 Q 625 811 604 802 Q 528 772 393 744 C 364 738 377 704 406 711 Q 419 715 587 751 Q 608 757 616 748 Q 623 741 621 728 Q 612 691 602 660 C 593 631 641 625 654 652 Z" class="stroke1"/>
    <path d="M 381 588 Q 394 582 437 587 Q 531 608 657 624 Q 666 623 673 634 Q 674 644 655 652 L 654 652 L 602 660 Q 521 644 384 618 C 355 612 352 596 381 588 Z" class="stroke2"/>
    <path d="M 776 516 Q 757 549 740 607 Q 737 622 729 626 Q 722 630 719 611 Q 710 538 699 525 Q 668 488 531 477 Q 456 476 424 486 Q 396 499 388 517 Q 381 539 381 588 L 384 618 Q 390 670 402 697 Q 405 704 406 711 C 412 730 412 730 393 744 Q 348 778 334 775 Q 319 769 327 753 Q 345 717 340 664 Q 333 517 359 480 Q 389 441 475 434 Q 539 428 638 438 Q 728 448 762 469 Q 790 487 776 516 Z" class="stroke3"/>
    <path d="M 671 292 Q 749 301 899 289 Q 923 286 928 295 Q 935 308 924 321 Q 857 382 792 361 Q 735 349 678 339 L 615 332 Q 528 325 311 297 Q 244 285 141 284 Q 128 284 126 273 Q 126 260 145 246 Q 161 233 193 222 Q 203 218 221 226 Q 237 232 310 245 Q 401 266 616 287 L 671 292 Z" class="stroke4"/>
    <path d="M 575 60 Q 536 67 499 76 Q 486 77 487 70 Q 488 63 499 55 Q 580 -9 610 -49 Q 625 -65 641 -51 Q 677 -14 676 58 Q 672 152 671 292 L 678 339 Q 679 349 684 356 Q 693 375 676 390 Q 649 412 618 423 Q 599 430 591 423 Q 584 416 595 400 Q 613 369 615 332 L 616 287 Q 620 163 614 94 Q 613 70 600 62 Q 590 55 575 60 Z" class="stroke5"/>
    <path d="M 368 187 Q 390 162 412 133 Q 424 118 439 117 Q 449 116 457 129 Q 464 142 458 174 Q 455 193 428 210 Q 364 243 348 239 Q 342 236 342 223 Q 345 211 368 187 Z" class="stroke6"/>
    <text x="406" y="717" style="transform-origin:406px 717px; transform:scale(1,-1);">1</text>
    <text x="387" y="595" style="transform-origin:387px 595px; transform:scale(1,-1);">2</text>
    <text x="337" y="763" style="transform-origin:337px 763px; transform:scale(1,-1);">3</text>
    <text x="138" y="271" style="transform-origin:138px 271px; transform:scale(1,-1);">4</text>
    <text x="599" y="416" style="transform-origin:599px 416px; transform:scale(1,-1);">5</text>
    <text x="352" y="231" style="transform-origin:352px 231px; transform:scale(1,-1);">6</text></g>
</svg>