<svg version="1.1" viewBox="0 0 1024 1024" xmlns="http://www.w3.org/2000/svg">
  <g stroke="lightgray" stroke-dasharray="1,1" stroke-width="1" transform="scale(4, 4)">
    <line x1="0" y1="0" x2="256" y2="256"/>
    <line x1="256" y1="0" x2="0" y2="256"/>
    <line x1="128" y1="0" x2="128" y2="256"/>
    <line x1="0" y1="128" x2="256" y2="128"/>
  </g>
  <g transform="scale(1, -1) translate(0, -900)">
    <style type="text/css">
        .stroke1 {fill: #BF0909;}
        .stroke2 {fill: #BFBF09;}
        .stroke3 {fill: #09BF09;}
        .stroke4 {fill: #09BFBF;}
        .stroke5 {fill: #0909BF;}
        .stroke6 {fill: #BF09BF;}
        .stroke7 {fill: #42005e;}
        .stroke8 {fill: #ff3333;}
        .stroke9 {fill: #BFBFBF;}
        .stroke10 {fill: #00a53f;}
        .stroke11 {fill: #fff000;}
        .stroke12 {fill: #6600a5;}
        .stroke13 {fill: #0053a5;}
        .stroke14 {fill: #62c22b;}
        .stroke15 {fill: #BF09BF;}
        .stroke16 {fill: #BF0909;}
        .stroke17 {fill: #BFBF09;}
        .stroke18 {fill: #09BF09;}
        .stroke19 {fill: #09BFBF;}
        .stroke20 {fill: #0909BF;}
        text {
            font-family: Helvetica;
            font-size: 50px;
            fill: #FFFFFF;
            paint-order: stroke;
            stroke: #000000;
            stroke-width: 4px;
            stroke-linecap: butt;
            stroke-linejoin: miter;
            font-weight: 800;
        }
    </style>

    <path d="M 444 343 Q 444 389 446 422 L 449 454 Q 450 479 454 487 Q 458 506 446 518 Q 427 534 404 545 Q 392 549 384 545 Q 377 541 381 527 Q 394 502 399 474 Q 402 447 407 334 C 408 304 444 313 444 343 Z" class="stroke1"/>
    <path d="M 446 422 Q 446 423 448 423 Q 503 436 546 444 Q 567 450 558 461 Q 546 474 522 475 Q 480 478 449 454 C 425 436 418 411 446 422 Z" class="stroke2"/>
    <path d="M 437 307 Q 567 332 570 334 Q 571 337 574 339 Q 575 348 556 356 Q 529 375 448 344 Q 445 344 444 343 L 407 334 Q 379 330 353 324 Q 325 320 295 315 Q 271 311 290 298 Q 314 280 351 288 Q 373 294 401 299 L 437 307 Z" class="stroke3"/>
    <path d="M 401 299 Q 410 268 410 188 Q 410 125 403 110 Q 402 100 381 102 Q 362 106 341 109 Q 332 110 331 105 Q 330 101 338 92 Q 387 52 403 28 Q 415 18 423 19 Q 432 22 442 49 Q 455 76 453 126 Q 452 217 453 251 Q 459 284 437 307 C 418 330 394 328 401 299 Z" class="stroke4"/>
    <path d="M 320 238 Q 301 207 276 179 Q 258 158 268 127 Q 272 112 290 120 Q 329 141 335 191 Q 342 216 338 236 Q 335 243 331 245 Q 324 244 320 238 Z" class="stroke5"/>
    <path d="M 485 233 Q 530 173 548 171 Q 558 170 565 184 Q 566 194 560 212 Q 553 225 534 235 Q 503 251 490 255 Q 483 256 481 247 Q 480 240 485 233 Z" class="stroke6"/>
    <text x="391" y="536" style="transform-origin:391px 536px; transform:scale(1,-1);">1</text>
    <text x="455" y="429" style="transform-origin:455px 429px; transform:scale(1,-1);">2</text>
    <text x="291" y="307" style="transform-origin:291px 307px; transform:scale(1,-1);">3</text>
    <text x="408" y="295" style="transform-origin:408px 295px; transform:scale(1,-1);">4</text>
    <text x="329" y="236" style="transform-origin:329px 236px; transform:scale(1,-1);">5</text>
    <text x="491" y="245" style="transform-origin:491px 245px; transform:scale(1,-1);">6</text></g>
</svg>