<svg version="1.1" viewBox="0 0 1024 1024" xmlns="http://www.w3.org/2000/svg">
  <g stroke="lightgray" stroke-dasharray="1,1" stroke-width="1" transform="scale(4, 4)">
    <line x1="0" y1="0" x2="256" y2="256"/>
    <line x1="256" y1="0" x2="0" y2="256"/>
    <line x1="128" y1="0" x2="128" y2="256"/>
    <line x1="0" y1="128" x2="256" y2="128"/>
  </g>
  <g transform="scale(1, -1) translate(0, -900)">
    <style type="text/css">
        .stroke1 {fill: #BF0909;}
        .stroke2 {fill: #BFBF09;}
        .stroke3 {fill: #09BF09;}
        .stroke4 {fill: #09BFBF;}
        .stroke5 {fill: #0909BF;}
        .stroke6 {fill: #BF09BF;}
        .stroke7 {fill: #42005e;}
        .stroke8 {fill: #ff3333;}
        .stroke9 {fill: #BFBFBF;}
        .stroke10 {fill: #00a53f;}
        .stroke11 {fill: #fff000;}
        .stroke12 {fill: #6600a5;}
        .stroke13 {fill: #0053a5;}
        .stroke14 {fill: #62c22b;}
        .stroke15 {fill: #BF09BF;}
        .stroke16 {fill: #BF0909;}
        .stroke17 {fill: #BFBF09;}
        .stroke18 {fill: #09BF09;}
        .stroke19 {fill: #09BFBF;}
        .stroke20 {fill: #0909BF;}
        text {
            font-family: Helvetica;
            font-size: 50px;
            fill: #FFFFFF;
            paint-order: stroke;
            stroke: #000000;
            stroke-width: 4px;
            stroke-linecap: butt;
            stroke-linejoin: miter;
            font-weight: 800;
        }
    </style>

    <path d="M 695 694 Q 717 742 745 759 Q 761 775 748 794 Q 673 855 619 824 Q 510 788 385 769 C 355 764 362 734 392 739 Q 402 739 620 786 Q 644 792 654 782 Q 661 775 658 761 Q 651 731 643 705 C 634 676 682 667 695 694 Z" class="stroke1"/>
    <path d="M 365 629 Q 378 616 403 620 Q 497 644 700 666 Q 710 667 712 676 Q 712 682 695 694 L 643 705 Q 639 706 635 704 Q 488 667 370 651 C 340 647 340 646 365 629 Z" class="stroke2"/>
    <path d="M 385 769 Q 370 784 347 796 Q 328 809 315 805 Q 302 798 308 784 Q 324 748 320 697 Q 289 457 227 322 Q 176 211 73 78 Q 67 72 65 66 Q 61 56 72 57 Q 91 57 134 107 Q 305 267 364 617 Q 365 624 365 629 L 370 651 Q 373 673 378 693 Q 384 724 392 739 C 399 758 399 758 385 769 Z" class="stroke3"/>
    <path d="M 583 427 Q 592 529 607 596 Q 610 605 594 617 Q 566 632 546 636 Q 533 639 526 632 Q 519 625 526 613 Q 547 589 547 419 C 547 389 580 397 583 427 Z" class="stroke4"/>
    <path d="M 407 527 Q 429 508 452 486 Q 464 476 477 477 Q 484 478 489 488 Q 493 501 485 525 Q 481 541 455 552 Q 394 570 384 567 Q 380 563 381 553 Q 384 543 407 527 Z" class="stroke5"/>
    <path d="M 719 603 Q 701 579 640 521 Q 628 506 645 508 Q 666 517 753 556 Q 772 569 796 575 Q 817 582 809 600 Q 799 618 776 634 Q 755 650 743 649 Q 731 649 733 636 Q 734 618 719 603 Z" class="stroke6"/>
    <path d="M 451 185 Q 454 231 459 266 L 461 288 Q 467 354 472 379 C 476 400 476 400 463 409 Q 460 413 456 415 Q 428 431 410 431 Q 397 427 401 415 Q 440 315 389 129 Q 365 66 366 64 Q 366 31 383 7 Q 390 -8 400 -2 Q 437 19 447 136 Q 448 151 449 165 L 451 185 Z" class="stroke7"/>
    <path d="M 472 379 Q 488 379 636 407 Q 660 410 664 397 Q 668 387 672 370 Q 691 205 692 105 Q 692 71 683 57 Q 680 54 596 57 Q 574 61 577 51 Q 644 9 683 -22 Q 699 -41 715 -44 Q 725 -48 733 -36 Q 772 18 765 76 Q 723 344 748 390 Q 761 411 747 422 Q 725 441 684 456 Q 665 463 648 455 Q 608 436 583 427 L 547 419 Q 513 415 463 409 C 433 405 442 375 472 379 Z" class="stroke8"/>
    <path d="M 459 266 Q 489 257 553 268 Q 583 274 614 279 Q 636 283 639 287 Q 646 293 642 299 Q 638 308 615 314 Q 606 315 520 296 Q 492 292 461 288 C 431 284 430 273 459 266 Z" class="stroke9"/>
    <path d="M 449 165 Q 488 152 556 163 Q 644 181 647 181 Q 654 188 650 195 Q 644 204 621 210 Q 597 216 573 206 Q 548 199 520 193 Q 490 189 455 186 Q 452 186 451 185 C 422 179 420 174 449 165 Z" class="stroke10"/>
    <text x="392" y="747" style="transform-origin:392px 747px; transform:scale(1,-1);">1</text>
    <text x="375" y="633" style="transform-origin:375px 633px; transform:scale(1,-1);">2</text>
    <text x="321" y="791" style="transform-origin:321px 791px; transform:scale(1,-1);">3</text>
    <text x="536" y="623" style="transform-origin:536px 623px; transform:scale(1,-1);">4</text>
    <text x="388" y="559" style="transform-origin:388px 559px; transform:scale(1,-1);">5</text>
    <text x="742" y="640" style="transform-origin:742px 640px; transform:scale(1,-1);">6</text>
    <text x="411" y="420" style="transform-origin:411px 420px; transform:scale(1,-1);">7</text>
    <text x="472" y="403" style="transform-origin:472px 403px; transform:scale(1,-1);">8</text>
    <text x="466" y="271" style="transform-origin:466px 271px; transform:scale(1,-1);">9</text>
    <text x="454" y="180" style="transform-origin:454px 180px; transform:scale(1,-1);">10</text></g>
</svg>