<svg version="1.1" viewBox="0 0 1024 1024" xmlns="http://www.w3.org/2000/svg">
  <g stroke="lightgray" stroke-dasharray="1,1" stroke-width="1" transform="scale(4, 4)">
    <line x1="0" y1="0" x2="256" y2="256"/>
    <line x1="256" y1="0" x2="0" y2="256"/>
    <line x1="128" y1="0" x2="128" y2="256"/>
    <line x1="0" y1="128" x2="256" y2="128"/>
  </g>
  <g transform="scale(1, -1) translate(0, -900)">
    <style type="text/css">
        .stroke1 {fill: #BF0909;}
        .stroke2 {fill: #BFBF09;}
        .stroke3 {fill: #09BF09;}
        .stroke4 {fill: #09BFBF;}
        .stroke5 {fill: #0909BF;}
        .stroke6 {fill: #BF09BF;}
        .stroke7 {fill: #42005e;}
        .stroke8 {fill: #ff3333;}
        .stroke9 {fill: #BFBFBF;}
        .stroke10 {fill: #00a53f;}
        .stroke11 {fill: #fff000;}
        .stroke12 {fill: #6600a5;}
        .stroke13 {fill: #0053a5;}
        .stroke14 {fill: #62c22b;}
        .stroke15 {fill: #BF09BF;}
        .stroke16 {fill: #BF0909;}
        .stroke17 {fill: #BFBF09;}
        .stroke18 {fill: #09BF09;}
        .stroke19 {fill: #09BFBF;}
        .stroke20 {fill: #0909BF;}
        text {
            font-family: Helvetica;
            font-size: 50px;
            fill: #FFFFFF;
            paint-order: stroke;
            stroke: #000000;
            stroke-width: 4px;
            stroke-linecap: butt;
            stroke-linejoin: miter;
            font-weight: 800;
        }
    </style>

    <path d="M 266 308 Q 287 638 292 655 Q 302 701 300 707 Q 294 713 286 720 Q 250 739 226 743 Q 210 747 202 738 Q 195 731 203 716 Q 227 679 227 654 Q 234 488 223 294 C 221 264 264 278 266 308 Z" class="stroke1"/>
    <path d="M 359 334 Q 308 322 266 308 L 223 294 Q 180 281 145 264 Q 132 260 134 277 Q 140 335 145 394 Q 149 416 138 431 Q 105 467 79 463 Q 69 459 77 440 Q 104 382 95 322 Q 89 265 66 240 Q 50 221 58 209 Q 71 196 88 186 Q 101 179 110 189 Q 140 229 288 278 Q 336 296 354 294 C 384 296 388 341 359 334 Z" class="stroke2"/>
    <path d="M 354 294 Q 358 275 365 260 Q 372 245 384 255 Q 405 273 413 351 Q 429 438 437 448 Q 444 461 436 474 Q 420 487 391 506 Q 381 513 369 508 Q 362 504 364 493 Q 383 463 364 349 Q 361 342 359 334 L 354 294 Z" class="stroke3"/>
    <path d="M 732 524 Q 762 635 801 666 Q 817 687 801 705 Q 717 765 664 729 Q 592 698 517 681 Q 501 678 503 668 Q 506 661 526 655 Q 553 646 588 661 Q 694 688 700 683 Q 712 673 708 649 Q 695 582 679 528 C 671 499 724 495 732 524 Z" class="stroke4"/>
    <path d="M 544 449 Q 649 476 746 491 Q 756 492 757 502 Q 757 509 732 524 L 679 528 Q 675 528 673 526 Q 601 501 541 486 C 512 479 515 442 544 449 Z" class="stroke5"/>
    <path d="M 965 184 Q 947 215 923 316 Q 922 334 913 338 Q 906 342 903 322 Q 881 213 863 178 Q 817 129 680 131 Q 628 132 586 147 Q 549 163 540 185 Q 510 246 544 449 C 549 479 549 480 541 486 Q 540 487 539 488 Q 526 501 502 511 Q 489 515 480 510 Q 473 506 478 488 Q 491 448 488 409 Q 475 219 491 165 Q 495 138 522 116 Q 612 49 826 82 Q 841 86 858 90 Q 910 105 960 137 Q 981 156 965 184 Z" class="stroke6"/>
    <text x="214" y="729" style="transform-origin:214px 729px; transform:scale(1,-1);">1</text>
    <text x="84" y="453" style="transform-origin:84px 453px; transform:scale(1,-1);">2</text>
    <text x="377" y="497" style="transform-origin:377px 497px; transform:scale(1,-1);">3</text>
    <text x="512" y="670" style="transform-origin:512px 670px; transform:scale(1,-1);">4</text>
    <text x="551" y="456" style="transform-origin:551px 456px; transform:scale(1,-1);">5</text>
    <text x="488" y="501" style="transform-origin:488px 501px; transform:scale(1,-1);">6</text></g>
</svg>