<svg version="1.1" viewBox="0 0 1024 1024" xmlns="http://www.w3.org/2000/svg">
  <g stroke="lightgray" stroke-dasharray="1,1" stroke-width="1" transform="scale(4, 4)">
    <line x1="0" y1="0" x2="256" y2="256"/>
    <line x1="256" y1="0" x2="0" y2="256"/>
    <line x1="128" y1="0" x2="128" y2="256"/>
    <line x1="0" y1="128" x2="256" y2="128"/>
  </g>
  <g transform="scale(1, -1) translate(0, -900)">
    <style type="text/css">
        .stroke1 {fill: #BF0909;}
        .stroke2 {fill: #BFBF09;}
        .stroke3 {fill: #09BF09;}
        .stroke4 {fill: #09BFBF;}
        .stroke5 {fill: #0909BF;}
        .stroke6 {fill: #BF09BF;}
        .stroke7 {fill: #42005e;}
        .stroke8 {fill: #ff3333;}
        .stroke9 {fill: #BFBFBF;}
        .stroke10 {fill: #00a53f;}
        .stroke11 {fill: #fff000;}
        .stroke12 {fill: #6600a5;}
        .stroke13 {fill: #0053a5;}
        .stroke14 {fill: #62c22b;}
        .stroke15 {fill: #BF09BF;}
        .stroke16 {fill: #BF0909;}
        .stroke17 {fill: #BFBF09;}
        .stroke18 {fill: #09BF09;}
        .stroke19 {fill: #09BFBF;}
        .stroke20 {fill: #0909BF;}
        text {
            font-family: Helvetica;
            font-size: 50px;
            fill: #FFFFFF;
            paint-order: stroke;
            stroke: #000000;
            stroke-width: 4px;
            stroke-linecap: butt;
            stroke-linejoin: miter;
            font-weight: 800;
        }
    </style>

    <path d="M 485 809 Q 512 787 541 760 Q 557 747 575 748 Q 588 749 592 764 Q 596 782 585 815 Q 578 834 545 848 Q 514 857 477 864 Q 459 867 452 863 Q 446 859 449 844 Q 453 831 485 809 Z" class="stroke1"/>
    <path d="M 347 621 Q 374 618 504 636 Q 765 676 781 687 Q 791 694 786 704 Q 779 717 751 725 Q 723 734 603 700 Q 431 667 327 661 C 297 659 317 622 347 621 Z" class="stroke2"/>
    <path d="M 327 661 Q 287 697 264 689 Q 251 682 256 667 Q 275 640 267 563 Q 234 338 188 234 Q 145 138 49 4 Q 43 -3 41 -9 Q 37 -21 49 -19 Q 85 -13 172 103 Q 190 131 209 163 Q 287 307 327 544 Q 333 595 347 621 C 354 639 350 642 327 661 Z" class="stroke3"/>
    <path d="M 586 425 Q 629 437 780 458 Q 792 457 801 471 Q 802 484 777 495 Q 738 517 657 490 Q 626 483 593 473 Q 590 473 588 471 L 535 459 Q 463 447 360 431 Q 329 427 353 408 Q 386 381 432 392 Q 466 401 510 409 L 586 425 Z" class="stroke4"/>
    <path d="M 585 403 Q 585 413 586 425 L 588 471 Q 591 514 601 545 Q 608 558 606 572 Q 600 581 547 613 Q 525 629 506 614 Q 502 610 507 595 Q 532 558 534 519 Q 534 491 535 459 L 536 359 Q 533 136 526 97 Q 505 25 522 -25 Q 525 -34 529 -43 Q 536 -59 543 -63 Q 549 -69 556 -62 Q 563 -58 573 -37 Q 582 -15 581 15 Q 580 52 584 354 L 585 403 Z" class="stroke5"/>
    <path d="M 510 409 Q 506 393 494 374 Q 448 292 393 232 Q 347 180 249 100 Q 234 87 249 87 Q 259 86 293 104 Q 348 129 397 175 Q 479 253 536 359 C 573 427 522 444 510 409 Z" class="stroke6"/>
    <path d="M 584 354 Q 671 236 781 111 Q 802 89 836 90 Q 951 94 988 101 Q 998 104 1000 109 Q 1000 115 985 122 Q 823 182 778 219 Q 690 294 585 403 C 564 425 566 378 584 354 Z" class="stroke7"/>
    <text x="459" y="855" style="transform-origin:459px 855px; transform:scale(1,-1);">1</text>
    <text x="333" y="656" style="transform-origin:333px 656px; transform:scale(1,-1);">2</text>
    <text x="271" y="674" style="transform-origin:271px 674px; transform:scale(1,-1);">3</text>
    <text x="355" y="420" style="transform-origin:355px 420px; transform:scale(1,-1);">4</text>
    <text x="517" y="607" style="transform-origin:517px 607px; transform:scale(1,-1);">5</text>
    <text x="530" y="407" style="transform-origin:530px 407px; transform:scale(1,-1);">6</text>
    <text x="591" y="384" style="transform-origin:591px 384px; transform:scale(1,-1);">7</text></g>
</svg>