<svg version="1.1" viewBox="0 0 1024 1024" xmlns="http://www.w3.org/2000/svg">
  <g stroke="lightgray" stroke-dasharray="1,1" stroke-width="1" transform="scale(4, 4)">
    <line x1="0" y1="0" x2="256" y2="256"/>
    <line x1="256" y1="0" x2="0" y2="256"/>
    <line x1="128" y1="0" x2="128" y2="256"/>
    <line x1="0" y1="128" x2="256" y2="128"/>
  </g>
  <g transform="scale(1, -1) translate(0, -900)">
    <style type="text/css">
        .stroke1 {fill: #BF0909;}
        .stroke2 {fill: #BFBF09;}
        .stroke3 {fill: #09BF09;}
        .stroke4 {fill: #09BFBF;}
        .stroke5 {fill: #0909BF;}
        .stroke6 {fill: #BF09BF;}
        .stroke7 {fill: #42005e;}
        .stroke8 {fill: #ff3333;}
        .stroke9 {fill: #BFBFBF;}
        .stroke10 {fill: #00a53f;}
        .stroke11 {fill: #fff000;}
        .stroke12 {fill: #6600a5;}
        .stroke13 {fill: #0053a5;}
        .stroke14 {fill: #62c22b;}
        .stroke15 {fill: #BF09BF;}
        .stroke16 {fill: #BF0909;}
        .stroke17 {fill: #BFBF09;}
        .stroke18 {fill: #09BF09;}
        .stroke19 {fill: #09BFBF;}
        .stroke20 {fill: #0909BF;}
        text {
            font-family: Helvetica;
            font-size: 50px;
            fill: #FFFFFF;
            paint-order: stroke;
            stroke: #000000;
            stroke-width: 4px;
            stroke-linecap: butt;
            stroke-linejoin: miter;
            font-weight: 800;
        }
    </style>

    <path d="M 252 712 Q 295 670 338 654 Q 354 653 363 668 Q 367 683 363 700 Q 345 742 260 755 Q 242 758 232 753 Q 226 750 230 738 Q 234 725 252 712 Z" class="stroke1"/>
    <path d="M 211 459 Q 199 458 199 441 Q 202 369 231 349 Q 237 342 246 343 Q 253 343 258 366 Q 264 393 358 575 Q 365 588 366 594 Q 366 604 357 599 Q 347 595 243 482 Q 233 469 211 459 Z" class="stroke2"/>
    <path d="M 517 666 Q 527 685 537 705 Q 558 748 577 785 Q 586 798 569 812 Q 521 842 496 834 Q 486 830 489 815 Q 516 727 430 607 Q 426 604 396 556 Q 389 540 404 547 Q 434 556 491 627 L 517 666 Z" class="stroke3"/>
    <path d="M 491 627 Q 507 620 527 625 Q 591 650 664 667 Q 701 677 714 674 Q 726 665 723 658 Q 723 655 693 597 Q 684 587 689 580 Q 693 576 706 586 Q 800 638 840 649 Q 849 650 851 658 Q 852 671 822 689 Q 750 737 731 728 Q 649 694 517 666 C 488 660 462 635 491 627 Z" class="stroke4"/>
    <path d="M 573 505 Q 579 527 598 547 Q 610 560 597 572 Q 563 614 537 612 Q 524 611 526 596 Q 538 551 495 467 Q 449 388 348 350 Q 335 344 344 339 Q 422 324 502 395 Q 503 398 505 398 Q 553 467 561 481 L 573 505 Z" class="stroke5"/>
    <path d="M 561 481 Q 615 418 674 359 Q 696 338 731 339 Q 797 338 863 354 Q 881 357 882 362 Q 883 369 869 373 Q 731 412 706 423 Q 703 426 701 426 Q 667 442 573 505 C 548 522 541 504 561 481 Z" class="stroke6"/>
    <path d="M 222 248 Q 203 181 173 121 Q 155 82 178 48 Q 188 30 210 46 Q 262 95 256 189 Q 257 225 247 250 Q 241 259 234 259 Q 225 258 222 248 Z" class="stroke7"/>
    <path d="M 334 220 Q 349 109 432 53 Q 522 -7 733 -8 Q 776 -4 812 10 Q 837 20 841 37 Q 845 47 803 75 Q 739 129 690 184 Q 677 200 672 192 Q 669 185 674 171 Q 692 132 707 91 Q 711 72 706 64 Q 699 54 662 54 Q 491 53 421 121 Q 390 151 376 201 Q 370 226 358 231 Q 345 238 337 235 Q 331 234 334 220 Z" class="stroke8"/>
    <path d="M 491 268 Q 536 214 570 199 Q 586 195 595 209 Q 602 222 599 239 Q 587 282 505 306 L 504 307 Q 488 311 477 308 Q 471 307 473 294 Q 474 282 491 268 Z" class="stroke9"/>
    <path d="M 775 242 Q 817 214 861 178 Q 877 165 896 167 Q 908 168 912 184 Q 916 202 903 235 Q 885 277 765 297 Q 746 298 740 295 Q 734 291 737 276 Q 743 263 775 242 Z" class="stroke10"/>
    <text x="241" y="744" style="transform-origin:241px 744px; transform:scale(1,-1);">1</text>
    <text x="243" y="353" style="transform-origin:243px 353px; transform:scale(1,-1);">2</text>
    <text x="502" y="821" style="transform-origin:502px 821px; transform:scale(1,-1);">3</text>
    <text x="498" y="631" style="transform-origin:498px 631px; transform:scale(1,-1);">4</text>
    <text x="537" y="600" style="transform-origin:537px 600px; transform:scale(1,-1);">5</text>
    <text x="579" y="494" style="transform-origin:579px 494px; transform:scale(1,-1);">6</text>
    <text x="235" y="247" style="transform-origin:235px 247px; transform:scale(1,-1);">7</text>
    <text x="342" y="226" style="transform-origin:342px 226px; transform:scale(1,-1);">8</text>
    <text x="484" y="298" style="transform-origin:484px 298px; transform:scale(1,-1);">9</text>
    <text x="747" y="287" style="transform-origin:747px 287px; transform:scale(1,-1);">10</text></g>
</svg>