<svg version="1.1" viewBox="0 0 1024 1024" xmlns="http://www.w3.org/2000/svg">
  <g stroke="lightgray" stroke-dasharray="1,1" stroke-width="1" transform="scale(4, 4)">
    <line x1="0" y1="0" x2="256" y2="256"/>
    <line x1="256" y1="0" x2="0" y2="256"/>
    <line x1="128" y1="0" x2="128" y2="256"/>
    <line x1="0" y1="128" x2="256" y2="128"/>
  </g>
  <g transform="scale(1, -1) translate(0, -900)">
    <style type="text/css">
        .stroke1 {fill: #BF0909;}
        .stroke2 {fill: #BFBF09;}
        .stroke3 {fill: #09BF09;}
        .stroke4 {fill: #09BFBF;}
        .stroke5 {fill: #0909BF;}
        .stroke6 {fill: #BF09BF;}
        .stroke7 {fill: #42005e;}
        .stroke8 {fill: #ff3333;}
        .stroke9 {fill: #BFBFBF;}
        .stroke10 {fill: #00a53f;}
        .stroke11 {fill: #fff000;}
        .stroke12 {fill: #6600a5;}
        .stroke13 {fill: #0053a5;}
        .stroke14 {fill: #62c22b;}
        .stroke15 {fill: #BF09BF;}
        .stroke16 {fill: #BF0909;}
        .stroke17 {fill: #BFBF09;}
        .stroke18 {fill: #09BF09;}
        .stroke19 {fill: #09BFBF;}
        .stroke20 {fill: #0909BF;}
        text {
            font-family: Helvetica;
            font-size: 50px;
            fill: #FFFFFF;
            paint-order: stroke;
            stroke: #000000;
            stroke-width: 4px;
            stroke-linecap: butt;
            stroke-linejoin: miter;
            font-weight: 800;
        }
    </style>

    <path d="M 599 780 Q 627 787 658 790 Q 716 800 725 807 Q 735 814 730 824 Q 723 837 695 845 Q 665 854 569 826 Q 431 799 324 793 Q 287 789 312 770 Q 345 749 390 751 L 430 755 Q 490 765 553 774 L 599 780 Z" class="stroke1"/>
    <path d="M 390 751 Q 397 735 404 626 C 406 596 443 591 445 621 Q 448 666 451 701 Q 458 737 431 754 L 430 755 C 406 773 381 780 390 751 Z" class="stroke2"/>
    <path d="M 404 626 Q 400 626 396 624 Q 332 605 281 594 C 252 588 267 563 297 565 Q 304 565 312 567 Q 358 579 458 591 Q 468 592 469 601 Q 469 608 445 621 L 404 626 Z" class="stroke3"/>
    <path d="M 281 594 Q 269 603 249 608 Q 234 612 222 602 Q 215 598 229 584 Q 248 562 255 518 Q 262 473 252 457 Q 248 442 258 427 Q 273 411 283 418 Q 302 436 357 452 Q 379 459 387 451 Q 394 444 395 354 C 395 324 449 333 448 363 Q 445 427 460 449 Q 473 459 463 470 Q 451 485 408 498 Q 398 502 379 491 Q 354 481 318 471 Q 302 467 301 485 Q 295 548 297 565 C 298 584 298 584 281 594 Z" class="stroke4"/>
    <path d="M 735 533 Q 735 534 736 534 Q 749 574 783 607 Q 802 625 791 638 Q 769 657 731 673 Q 715 682 698 675 Q 673 665 616 648 Q 603 644 602 658 Q 611 728 617 742 Q 624 761 610 771 Q 604 775 599 780 C 576 799 546 803 553 774 Q 574 693 549 640 Q 540 622 560 600 Q 573 587 587 597 Q 615 622 686 636 Q 702 637 709 627 Q 716 614 694 551 Q 693 547 690 539 C 680 511 723 505 735 533 Z" class="stroke5"/>
    <path d="M 605 484 Q 651 494 745 503 Q 755 504 756 513 Q 756 520 735 533 L 690 539 Q 686 539 684 538 Q 626 522 579 512 C 550 506 576 478 605 484 Z" class="stroke6"/>
    <path d="M 594 387 Q 598 426 602 457 Q 602 463 603 467 Q 607 477 605 484 L 579 512 Q 572 519 564 522 Q 554 526 546 523 Q 539 519 540 510 Q 546 501 553 380 C 555 350 591 357 594 387 Z" class="stroke7"/>
    <path d="M 395 354 Q 331 347 262 335 Q 244 334 258 319 Q 270 307 286 303 Q 304 299 318 303 Q 484 349 738 350 Q 754 351 759 358 Q 763 368 749 380 Q 700 416 643 398 Q 619 394 594 387 L 553 380 Q 522 376 488 369 Q 469 368 448 363 L 395 354 Z" class="stroke8"/>
    <path d="M 198 232 Q 173 177 137 127 Q 115 97 133 58 Q 140 39 162 51 Q 214 87 223 171 Q 229 205 222 231 Q 218 240 211 241 Q 202 240 198 232 Z" class="stroke9"/>
    <path d="M 322 207 Q 346 92 435 37 Q 561 -36 768 -6 Q 804 1 835 15 Q 862 28 863 45 Q 867 55 824 79 Q 757 125 708 176 Q 692 192 688 184 Q 706 129 724 72 Q 723 69 721 65 Q 714 53 676 52 Q 496 42 419 108 Q 385 136 367 189 Q 360 214 346 219 Q 333 226 324 222 Q 318 221 322 207 Z" class="stroke10"/>
    <path d="M 490 232 Q 512 211 538 187 Q 551 174 566 175 Q 576 176 581 189 Q 585 202 577 231 Q 568 258 485 278 Q 470 282 464 279 Q 460 275 461 263 Q 464 253 490 232 Z" class="stroke11"/>
    <path d="M 743 267 Q 803 236 877 186 Q 896 171 911 171 Q 920 172 924 183 Q 933 198 911 235 Q 883 286 736 295 Q 726 298 728 286 Q 729 273 743 267 Z" class="stroke12"/>
    <text x="316" y="783" style="transform-origin:316px 783px; transform:scale(1,-1);">1</text>
    <text x="397" y="750" style="transform-origin:397px 750px; transform:scale(1,-1);">2</text>
    <text x="288" y="592" style="transform-origin:288px 592px; transform:scale(1,-1);">3</text>
    <text x="232" y="596" style="transform-origin:232px 596px; transform:scale(1,-1);">4</text>
    <text x="562" y="767" style="transform-origin:562px 767px; transform:scale(1,-1);">5</text>
    <text x="587" y="510" style="transform-origin:587px 510px; transform:scale(1,-1);">6</text>
    <text x="551" y="513" style="transform-origin:551px 513px; transform:scale(1,-1);">7</text>
    <text x="260" y="327" style="transform-origin:260px 327px; transform:scale(1,-1);">8</text>
    <text x="210" y="229" style="transform-origin:210px 229px; transform:scale(1,-1);">9</text>
    <text x="330" y="214" style="transform-origin:330px 214px; transform:scale(1,-1);">10</text>
    <text x="469" y="273" style="transform-origin:469px 273px; transform:scale(1,-1);">11</text>
    <text x="739" y="284" style="transform-origin:739px 284px; transform:scale(1,-1);">12</text></g>
</svg>