<svg version="1.1" viewBox="0 0 1024 1024" xmlns="http://www.w3.org/2000/svg">
  <g stroke="lightgray" stroke-dasharray="1,1" stroke-width="1" transform="scale(4, 4)">
    <line x1="0" y1="0" x2="256" y2="256"/>
    <line x1="256" y1="0" x2="0" y2="256"/>
    <line x1="128" y1="0" x2="128" y2="256"/>
    <line x1="0" y1="128" x2="256" y2="128"/>
  </g>
  <g transform="scale(1, -1) translate(0, -900)">
    <style type="text/css">
        .stroke1 {fill: #BF0909;}
        .stroke2 {fill: #BFBF09;}
        .stroke3 {fill: #09BF09;}
        .stroke4 {fill: #09BFBF;}
        .stroke5 {fill: #0909BF;}
        .stroke6 {fill: #BF09BF;}
        .stroke7 {fill: #42005e;}
        .stroke8 {fill: #ff3333;}
        .stroke9 {fill: #BFBFBF;}
        .stroke10 {fill: #00a53f;}
        .stroke11 {fill: #fff000;}
        .stroke12 {fill: #6600a5;}
        .stroke13 {fill: #0053a5;}
        .stroke14 {fill: #62c22b;}
        .stroke15 {fill: #BF09BF;}
        .stroke16 {fill: #BF0909;}
        .stroke17 {fill: #BFBF09;}
        .stroke18 {fill: #09BF09;}
        .stroke19 {fill: #09BFBF;}
        .stroke20 {fill: #0909BF;}
        text {
            font-family: Helvetica;
            font-size: 50px;
            fill: #FFFFFF;
            paint-order: stroke;
            stroke: #000000;
            stroke-width: 4px;
            stroke-linecap: butt;
            stroke-linejoin: miter;
            font-weight: 800;
        }
    </style>

    <path d="M 138 545 Q 122 484 95 427 Q 80 394 100 367 Q 109 351 127 365 Q 170 410 168 495 Q 169 526 159 547 Q 155 554 148 555 Q 141 554 138 545 Z" class="stroke1"/>
    <path d="M 297 597 Q 303 590 317 578 Q 339 557 364 532 Q 374 522 388 522 Q 397 522 401 533 Q 405 545 399 569 Q 395 585 369 599 Q 309 624 298 619 C 280 616 280 616 297 597 Z" class="stroke2"/>
    <path d="M 298 619 Q 302 692 317 742 Q 326 757 323 770 Q 316 780 262 813 Q 240 829 219 815 Q 215 811 220 795 Q 250 749 252 673 Q 252 259 229 158 Q 225 140 219 121 Q 207 78 233 22 Q 239 4 247 1 Q 253 -6 260 3 Q 267 7 278 27 Q 288 52 287 82 Q 286 131 297 585 Q 297 592 297 597 L 298 619 Z" class="stroke3"/>
    <path d="M 702 723 Q 744 730 780 734 Q 789 733 797 744 Q 798 754 778 764 Q 750 782 678 762 Q 557 738 468 726 Q 443 722 462 707 Q 472 700 486 691 C 496 685 499 685 528 692 Q 583 705 656 716 L 702 723 Z" class="stroke4"/>
    <path d="M 486 691 Q 495 673 498 596 Q 498 551 498 469 C 498 439 533 445 534 475 Q 535 503 537 530 L 537 551 Q 538 579 540 602 L 541 627 Q 541 642 543 657 Q 549 675 528 692 C 506 712 475 719 486 691 Z" class="stroke5"/>
    <path d="M 720 510 Q 719 538 724 651 Q 727 702 725 708 Q 722 709 721 711 Q 711 718 702 723 C 676 738 644 743 656 716 Q 666 701 672 638 Q 673 565 674 501 L 675 463 Q 678 403 688 390 Q 692 384 698 387 Q 707 393 718 467 L 720 510 Z" class="stroke6"/>
    <path d="M 540 602 Q 540 603 541 603 Q 595 616 635 624 Q 653 628 645 638 Q 636 648 616 650 Q 591 651 541 627 C 514 614 513 589 540 602 Z" class="stroke7"/>
    <path d="M 537 530 Q 540 530 635 549 Q 653 553 645 562 Q 636 572 616 575 Q 585 578 537 551 C 511 536 507 526 537 530 Z" class="stroke8"/>
    <path d="M 718 467 Q 764 471 822 473 Q 873 473 880 482 Q 884 492 870 504 Q 816 540 761 519 Q 742 516 720 510 L 674 501 Q 643 497 611 489 Q 572 483 534 475 L 498 469 Q 444 462 390 451 Q 372 450 386 435 Q 399 423 414 419 Q 432 415 446 420 Q 564 456 675 463 L 718 467 Z" class="stroke9"/>
    <path d="M 523 172 Q 547 214 568 273 Q 578 298 595 315 Q 611 328 599 340 Q 587 350 560 359 Q 539 365 516 352 Q 495 343 467 334 Q 439 325 391 319 Q 378 318 374 312 Q 371 306 387 299 Q 418 287 462 300 Q 493 315 500 315 Q 522 315 519 291 Q 507 236 488 194 L 468 161 Q 420 98 331 70 Q 319 66 330 60 Q 334 56 364 58 Q 437 67 497 133 L 523 172 Z" class="stroke10"/>
    <path d="M 497 133 Q 560 73 565 72 Q 572 71 576 78 Q 585 88 575 117 Q 569 141 523 172 L 488 194 Q 430 228 398 243 Q 391 247 390 238 Q 390 229 397 222 Q 430 195 468 161 L 497 133 Z" class="stroke11"/>
    <path d="M 705 141 Q 653 90 594 67 Q 582 61 594 56 Q 598 52 628 54 Q 680 60 730 109 L 762 147 Q 798 210 826 296 Q 835 323 851 340 Q 867 356 854 367 Q 841 377 813 385 Q 791 389 768 375 Q 747 366 719 356 Q 691 347 642 339 Q 630 338 626 332 Q 623 325 639 319 Q 672 309 714 322 Q 745 338 752 338 Q 777 337 772 310 Q 757 226 729 177 L 705 141 Z" class="stroke12"/>
    <path d="M 730 109 Q 799 25 832 22 Q 902 18 961 23 Q 992 24 990 33 Q 987 39 851 93 Q 800 114 762 147 L 729 177 Q 699 205 669 240 Q 638 274 609 276 Q 594 277 591 273 Q 590 267 602 258 Q 644 225 705 141 L 730 109 Z" class="stroke13"/>
    <text x="149" y="544" style="transform-origin:149px 544px; transform:scale(1,-1);">1</text>
    <text x="302" y="613" style="transform-origin:302px 613px; transform:scale(1,-1);">2</text>
    <text x="230" y="809" style="transform-origin:230px 809px; transform:scale(1,-1);">3</text>
    <text x="464" y="717" style="transform-origin:464px 717px; transform:scale(1,-1);">4</text>
    <text x="493" y="689" style="transform-origin:493px 689px; transform:scale(1,-1);">5</text>
    <text x="664" y="715" style="transform-origin:664px 715px; transform:scale(1,-1);">6</text>
    <text x="548" y="609" style="transform-origin:548px 609px; transform:scale(1,-1);">7</text>
    <text x="538" y="535" style="transform-origin:538px 535px; transform:scale(1,-1);">8</text>
    <text x="388" y="443" style="transform-origin:388px 443px; transform:scale(1,-1);">9</text>
    <text x="380" y="310" style="transform-origin:380px 310px; transform:scale(1,-1);">10</text>
    <text x="397" y="235" style="transform-origin:397px 235px; transform:scale(1,-1);">11</text>
    <text x="632" y="330" style="transform-origin:632px 330px; transform:scale(1,-1);">12</text>
    <text x="596" y="271" style="transform-origin:596px 271px; transform:scale(1,-1);">13</text></g>
</svg>