<svg version="1.1" viewBox="0 0 1024 1024" xmlns="http://www.w3.org/2000/svg">
  <g stroke="lightgray" stroke-dasharray="1,1" stroke-width="1" transform="scale(4, 4)">
    <line x1="0" y1="0" x2="256" y2="256"/>
    <line x1="256" y1="0" x2="0" y2="256"/>
    <line x1="128" y1="0" x2="128" y2="256"/>
    <line x1="0" y1="128" x2="256" y2="128"/>
  </g>
  <g transform="scale(1, -1) translate(0, -900)">
    <style type="text/css">
        .stroke1 {fill: #BF0909;}
        .stroke2 {fill: #BFBF09;}
        .stroke3 {fill: #09BF09;}
        .stroke4 {fill: #09BFBF;}
        .stroke5 {fill: #0909BF;}
        .stroke6 {fill: #BF09BF;}
        .stroke7 {fill: #42005e;}
        .stroke8 {fill: #ff3333;}
        .stroke9 {fill: #BFBFBF;}
        .stroke10 {fill: #00a53f;}
        .stroke11 {fill: #fff000;}
        .stroke12 {fill: #6600a5;}
        .stroke13 {fill: #0053a5;}
        .stroke14 {fill: #62c22b;}
        .stroke15 {fill: #BF09BF;}
        .stroke16 {fill: #BF0909;}
        .stroke17 {fill: #BFBF09;}
        .stroke18 {fill: #09BF09;}
        .stroke19 {fill: #09BFBF;}
        .stroke20 {fill: #0909BF;}
        text {
            font-family: Helvetica;
            font-size: 50px;
            fill: #FFFFFF;
            paint-order: stroke;
            stroke: #000000;
            stroke-width: 4px;
            stroke-linecap: butt;
            stroke-linejoin: miter;
            font-weight: 800;
        }
    </style>

    <path d="M 343 515 Q 442 539 448 545 Q 458 555 452 563 Q 443 576 412 582 Q 379 588 344 572 L 296 555 Q 193 531 153 524 Q 114 517 143 499 Q 188 475 251 493 Q 270 499 295 503 L 343 515 Z" class="stroke1"/>
    <path d="M 291 323 Q 290 241 288 140 Q 287 116 275 107 Q 268 104 211 127 Q 181 143 182 133 Q 183 126 200 109 Q 255 52 267 23 Q 280 -11 296 -15 Q 309 -16 326 16 Q 347 59 349 131 Q 342 246 341 361 L 341 395 Q 340 456 343 515 L 344 572 Q 350 710 365 755 Q 381 783 328 805 Q 297 823 277 817 Q 261 810 276 788 Q 295 763 297 730 Q 298 711 296 555 L 295 503 Q 294 445 292 369 L 291 323 Z" class="stroke2"/>
    <path d="M 341 361 Q 360 377 381 389 Q 402 401 412 415 Q 419 428 408 429 Q 401 429 341 395 L 292 369 Q 54 242 53 239 L 53 238 Q 52 228 66 213 Q 87 197 111 187 Q 127 183 139 195 Q 188 246 291 323 L 341 361 Z" class="stroke3"/>
    <path d="M 620 712 Q 650 687 681 658 Q 697 643 715 644 Q 727 645 732 661 Q 738 677 726 711 Q 719 733 685 748 Q 600 773 588 767 Q 582 763 584 748 Q 588 735 620 712 Z" class="stroke4"/>
    <path d="M 516 533 Q 474 527 504 508 Q 552 481 614 493 Q 702 509 794 526 Q 836 535 842 540 Q 852 549 847 558 Q 840 571 807 581 Q 780 587 687 560 Q 558 536 516 533 Z" class="stroke5"/>
    <path d="M 503 375 Q 537 276 561 264 Q 573 258 586 273 Q 592 285 591 307 Q 587 331 566 351 Q 533 388 517 399 Q 510 403 504 393 Q 500 386 503 375 Z" class="stroke6"/>
    <path d="M 699 191 Q 750 293 804 394 Q 820 409 810 421 Q 797 440 760 461 Q 742 473 723 464 Q 711 458 719 445 Q 735 397 670 217 Q 663 199 662 185 C 658 155 686 164 699 191 Z" class="stroke7"/>
    <path d="M 662 185 Q 659 185 407 160 Q 383 159 400 139 Q 415 123 435 117 Q 457 110 476 114 Q 674 160 930 139 Q 952 138 958 148 Q 965 161 947 176 Q 886 224 823 209 Q 771 202 699 191 L 662 185 Z" class="stroke8"/>
    <text x="145" y="513" style="transform-origin:145px 513px; transform:scale(1,-1);">1</text>
    <text x="284" y="803" style="transform-origin:284px 803px; transform:scale(1,-1);">2</text>
    <text x="54" y="239" style="transform-origin:54px 239px; transform:scale(1,-1);">3</text>
    <text x="592" y="760" style="transform-origin:592px 760px; transform:scale(1,-1);">4</text>
    <text x="506" y="522" style="transform-origin:506px 522px; transform:scale(1,-1);">5</text>
    <text x="514" y="388" style="transform-origin:514px 388px; transform:scale(1,-1);">6</text>
    <text x="727" y="453" style="transform-origin:727px 453px; transform:scale(1,-1);">7</text>
    <text x="403" y="150" style="transform-origin:403px 150px; transform:scale(1,-1);">8</text></g>
</svg>