<svg version="1.1" viewBox="0 0 1024 1024" xmlns="http://www.w3.org/2000/svg">
  <g stroke="lightgray" stroke-dasharray="1,1" stroke-width="1" transform="scale(4, 4)">
    <line x1="0" y1="0" x2="256" y2="256"/>
    <line x1="256" y1="0" x2="0" y2="256"/>
    <line x1="128" y1="0" x2="128" y2="256"/>
    <line x1="0" y1="128" x2="256" y2="128"/>
  </g>
  <g transform="scale(1, -1) translate(0, -900)">
    <style type="text/css">
        .stroke1 {fill: #BF0909;}
        .stroke2 {fill: #BFBF09;}
        .stroke3 {fill: #09BF09;}
        .stroke4 {fill: #09BFBF;}
        .stroke5 {fill: #0909BF;}
        .stroke6 {fill: #BF09BF;}
        .stroke7 {fill: #42005e;}
        .stroke8 {fill: #ff3333;}
        .stroke9 {fill: #BFBFBF;}
        .stroke10 {fill: #00a53f;}
        .stroke11 {fill: #fff000;}
        .stroke12 {fill: #6600a5;}
        .stroke13 {fill: #0053a5;}
        .stroke14 {fill: #62c22b;}
        .stroke15 {fill: #BF09BF;}
        .stroke16 {fill: #BF0909;}
        .stroke17 {fill: #BFBF09;}
        .stroke18 {fill: #09BF09;}
        .stroke19 {fill: #09BFBF;}
        .stroke20 {fill: #0909BF;}
        text {
            font-family: Helvetica;
            font-size: 50px;
            fill: #FFFFFF;
            paint-order: stroke;
            stroke: #000000;
            stroke-width: 4px;
            stroke-linecap: butt;
            stroke-linejoin: miter;
            font-weight: 800;
        }
    </style>

    <path d="M 346 530 Q 446 557 452 561 Q 459 568 455 577 Q 448 587 420 594 Q 392 598 348 581 L 299 564 Q 190 540 160 536 Q 124 529 151 514 Q 190 490 248 507 Q 270 513 298 518 L 346 530 Z" class="stroke1"/>
    <path d="M 293 322 Q 290 237 289 133 Q 288 109 275 100 Q 274 100 224 104 Q 193 120 194 109 Q 195 102 214 85 Q 263 34 273 7 Q 286 -24 299 -27 Q 314 -28 330 6 Q 349 52 351 126 Q 345 246 344 366 L 344 401 Q 343 465 346 530 L 348 581 Q 354 719 370 768 Q 386 799 332 821 Q 298 840 279 833 Q 261 827 277 804 Q 299 777 300 743 Q 301 724 299 564 L 298 518 Q 297 454 294 370 L 293 322 Z" class="stroke2"/>
    <path d="M 294 370 Q 212 319 140 270 Q 106 248 83 241 Q 70 234 68 226 Q 68 217 83 204 Q 102 188 126 182 Q 142 178 153 191 Q 205 252 293 322 L 344 366 Q 366 385 390 402 Q 411 415 421 432 Q 427 445 416 444 Q 404 441 344 401 L 294 370 Z" class="stroke3"/>
    <path d="M 515 453 Q 534 483 549 513 Q 567 553 585 586 Q 592 599 578 610 Q 539 634 515 629 Q 505 625 509 613 Q 530 534 452 420 Q 440 408 420 375 Q 414 360 427 366 Q 452 373 500 432 L 515 453 Z" class="stroke4"/>
    <path d="M 500 432 Q 504 426 517 417 Q 536 401 558 379 Q 568 369 581 370 Q 590 370 593 381 Q 597 391 590 415 Q 586 430 562 440 Q 540 447 515 453 C 486 460 481 455 500 432 Z" class="stroke5"/>
    <path d="M 812 505 Q 824 526 834 546 Q 850 585 868 616 Q 875 629 860 641 Q 812 666 791 660 Q 781 656 785 643 Q 812 568 735 453 Q 717 431 711 416 Q 707 400 719 407 Q 752 417 798 483 L 812 505 Z" class="stroke6"/>
    <path d="M 798 483 Q 804 476 816 466 Q 844 441 872 413 Q 882 401 896 402 Q 905 402 909 413 Q 913 425 907 449 Q 903 468 874 483 Q 847 495 812 505 C 783 513 778 505 798 483 Z" class="stroke7"/>
    <path d="M 687 269 Q 826 296 830 298 Q 837 305 834 313 Q 828 323 802 332 Q 774 339 747 329 Q 719 320 688 312 L 637 302 Q 585 293 526 289 Q 492 285 515 269 Q 554 245 606 256 Q 619 260 636 260 L 687 269 Z" class="stroke8"/>
    <path d="M 682 138 Q 683 205 687 269 L 688 312 Q 697 675 717 733 Q 729 754 715 768 Q 678 796 648 806 Q 632 810 617 797 Q 611 790 617 778 Q 642 735 643 647 Q 639 484 637 302 L 636 260 Q 635 199 634 132 C 634 102 681 108 682 138 Z" class="stroke9"/>
    <path d="M 634 132 Q 534 122 417 110 Q 396 109 411 91 Q 424 76 443 71 Q 464 65 480 69 Q 612 102 903 102 Q 919 102 937 100 Q 956 100 962 108 Q 968 120 952 134 Q 895 180 843 163 Q 779 153 682 138 L 634 132 Z" class="stroke10"/>
    <text x="152" y="526" style="transform-origin:152px 526px; transform:scale(1,-1);">1</text>
    <text x="285" y="818" style="transform-origin:285px 818px; transform:scale(1,-1);">2</text>
    <text x="79" y="224" style="transform-origin:79px 224px; transform:scale(1,-1);">3</text>
    <text x="519" y="618" style="transform-origin:519px 618px; transform:scale(1,-1);">4</text>
    <text x="509" y="434" style="transform-origin:509px 434px; transform:scale(1,-1);">5</text>
    <text x="795" y="649" style="transform-origin:795px 649px; transform:scale(1,-1);">6</text>
    <text x="807" y="485" style="transform-origin:807px 485px; transform:scale(1,-1);">7</text>
    <text x="518" y="280" style="transform-origin:518px 280px; transform:scale(1,-1);">8</text>
    <text x="630" y="788" style="transform-origin:630px 788px; transform:scale(1,-1);">9</text>
    <text x="414" y="100" style="transform-origin:414px 100px; transform:scale(1,-1);">10</text></g>
</svg>