<svg version="1.1" viewBox="0 0 1024 1024" xmlns="http://www.w3.org/2000/svg">
  <g stroke="lightgray" stroke-dasharray="1,1" stroke-width="1" transform="scale(4, 4)">
    <line x1="0" y1="0" x2="256" y2="256"/>
    <line x1="256" y1="0" x2="0" y2="256"/>
    <line x1="128" y1="0" x2="128" y2="256"/>
    <line x1="0" y1="128" x2="256" y2="128"/>
  </g>
  <g transform="scale(1, -1) translate(0, -900)">
    <style type="text/css">
        .stroke1 {fill: #BF0909;}
        .stroke2 {fill: #BFBF09;}
        .stroke3 {fill: #09BF09;}
        .stroke4 {fill: #09BFBF;}
        .stroke5 {fill: #0909BF;}
        .stroke6 {fill: #BF09BF;}
        .stroke7 {fill: #42005e;}
        .stroke8 {fill: #ff3333;}
        .stroke9 {fill: #BFBFBF;}
        .stroke10 {fill: #00a53f;}
        .stroke11 {fill: #fff000;}
        .stroke12 {fill: #6600a5;}
        .stroke13 {fill: #0053a5;}
        .stroke14 {fill: #62c22b;}
        .stroke15 {fill: #BF09BF;}
        .stroke16 {fill: #BF0909;}
        .stroke17 {fill: #BFBF09;}
        .stroke18 {fill: #09BF09;}
        .stroke19 {fill: #09BFBF;}
        .stroke20 {fill: #0909BF;}
        text {
            font-family: Helvetica;
            font-size: 50px;
            fill: #FFFFFF;
            paint-order: stroke;
            stroke: #000000;
            stroke-width: 4px;
            stroke-linecap: butt;
            stroke-linejoin: miter;
            font-weight: 800;
        }
    </style>

    <path d="M 287 514 Q 306 521 329 526 Q 357 535 361 539 Q 370 548 364 556 Q 357 568 326 573 Q 304 576 288 570 L 241 552 Q 178 531 115 519 Q 78 509 106 495 Q 148 477 236 500 Q 237 501 241 501 L 287 514 Z" class="stroke1"/>
    <path d="M 287 410 Q 286 462 287 514 L 288 570 Q 288 693 305 755 Q 321 785 268 805 Q 235 823 217 816 Q 201 809 216 788 Q 237 763 238 729 Q 241 710 241 552 L 241 501 Q 241 444 241 372 L 241 331 Q 241 237 241 118 Q 241 93 228 84 Q 221 78 164 91 Q 133 103 135 93 Q 136 86 155 71 Q 212 23 226 -3 Q 242 -34 256 -36 Q 269 -37 284 -3 Q 300 40 299 111 Q 289 243 287 374 L 287 410 Z" class="stroke2"/>
    <path d="M 287 374 Q 293 381 300 387 Q 322 409 337 431 Q 344 441 342 449 Q 332 452 287 410 L 241 372 Q 79 239 45 222 Q 26 222 28 205 Q 31 193 41 190 Q 65 184 97 180 Q 107 181 113 191 Q 137 228 241 331 L 287 374 Z" class="stroke3"/>
    <path d="M 626 782 Q 653 761 682 737 Q 695 727 708 728 Q 718 729 721 740 Q 725 753 715 779 Q 703 806 619 823 Q 606 826 600 823 Q 596 819 598 808 Q 601 798 626 782 Z" class="stroke4"/>
    <path d="M 756 658 Q 784 667 815 673 Q 858 683 864 690 Q 871 697 867 705 Q 860 715 833 722 Q 806 726 779 715 Q 676 676 551 658 Q 518 652 542 637 Q 579 619 643 633 Q 679 642 719 650 L 756 658 Z" class="stroke5"/>
    <path d="M 564 590 Q 597 535 617 531 Q 627 530 634 543 Q 635 553 631 569 Q 616 597 570 610 Q 563 611 561 603 Q 560 597 564 590 Z" class="stroke6"/>
    <path d="M 713 539 Q 731 563 751 595 Q 758 605 770 618 Q 782 628 775 636 Q 769 646 756 658 C 734 679 717 680 719 650 Q 722 628 693 554 Q 686 541 684 530 C 677 501 695 515 713 539 Z" class="stroke7"/>
    <path d="M 557 497 Q 533 509 519 509 Q 509 505 513 496 Q 556 409 515 248 Q 491 203 519 166 Q 525 156 533 160 Q 558 181 562 273 Q 565 436 569 470 Q 569 474 569 476 C 570 491 570 491 557 497 Z" class="stroke8"/>
    <path d="M 690 507 Q 759 525 777 518 Q 787 514 788 492 Q 804 339 798 219 Q 797 195 783 190 Q 776 190 741 207 Q 731 211 730 205 Q 730 198 741 187 Q 768 157 787 127 Q 797 112 812 111 Q 825 115 843 158 Q 865 201 860 245 Q 850 348 840 445 Q 836 482 851 513 Q 861 528 848 539 Q 832 552 798 563 Q 779 570 764 560 Q 745 551 713 539 L 684 530 Q 596 506 557 497 C 528 490 540 470 569 476 Q 581 477 597 482 Q 628 492 656 498 L 690 507 Z" class="stroke9"/>
    <path d="M 682 402 Q 707 411 735 419 Q 754 426 757 428 Q 763 435 759 440 Q 753 447 732 451 Q 711 452 691 442 Q 690 442 690 441 C 676 433 676 433 656 428 Q 650 427 647 425 Q 622 416 590 411 Q 565 404 585 394 Q 613 384 652 393 L 682 402 Z" class="stroke10"/>
    <path d="M 669 341 Q 675 372 682 402 L 690 441 Q 693 456 699 472 Q 703 479 705 486 Q 708 492 698 502 Q 694 505 690 507 C 664 522 651 528 656 498 Q 659 489 656 428 L 652 393 Q 648 365 644 334 C 640 304 663 312 669 341 Z" class="stroke11"/>
    <path d="M 624 329 Q 617 333 591 340 Q 582 341 580 338 Q 576 334 581 323 Q 597 292 606 242 Q 607 226 617 216 Q 629 201 633 212 Q 634 216 635 224 L 635 242 Q 629 293 627 311 C 625 329 625 329 624 329 Z" class="stroke12"/>
    <path d="M 728 260 Q 741 302 754 315 Q 769 331 754 340 Q 742 347 725 358 Q 713 365 701 358 Q 688 348 669 341 L 644 334 Q 634 333 624 329 C 596 319 597 307 627 311 Q 631 311 643 314 Q 700 332 707 323 Q 710 320 694 259 C 686 230 719 231 728 260 Z" class="stroke13"/>
    <path d="M 635 224 L 742 235 Q 758 236 752 247 Q 745 256 728 260 L 694 259 Q 687 258 680 256 Q 655 249 635 242 C 607 232 605 221 635 224 Z" class="stroke14"/>
    <path d="M 412 621 Q 431 605 450 586 Q 462 576 476 576 Q 485 577 489 588 Q 493 601 484 627 Q 480 640 456 651 Q 402 667 388 663 Q 384 659 385 648 Q 389 638 412 621 Z" class="stroke15"/>
    <path d="M 451 144 Q 464 157 470 173 Q 479 198 472 222 Q 465 241 438 273 Q 428 289 431 304 Q 435 320 455 357 Q 476 387 494 404 Q 512 419 496 431 Q 480 444 451 456 Q 433 466 419 453 Q 373 408 339 406 Q 333 406 332 402 Q 331 398 338 394 Q 365 384 415 409 Q 419 413 426 409 Q 445 387 422 357 Q 404 338 392 309 Q 386 291 400 270 Q 436 209 429 158 Q 428 155 427 149 C 421 120 431 121 451 144 Z" class="stroke16"/>
    <path d="M 427 149 Q 408 152 385 150 Q 361 146 340 151 Q 325 154 323 147 Q 319 137 332 124 Q 341 115 379 113 Q 436 123 497 98 Q 620 53 768 -8 Q 802 -26 849 -4 Q 910 21 968 47 Q 987 54 986 64 Q 986 74 937 71 Q 756 67 715 72 Q 538 120 465 141 Q 458 144 451 144 L 427 149 Z" class="stroke17"/>
    <text x="107" y="508" style="transform-origin:107px 508px; transform:scale(1,-1);">1</text>
    <text x="224" y="802" style="transform-origin:224px 802px; transform:scale(1,-1);">2</text>
    <text x="42" y="208" style="transform-origin:42px 208px; transform:scale(1,-1);">3</text>
    <text x="606" y="815" style="transform-origin:606px 815px; transform:scale(1,-1);">4</text>
    <text x="544" y="649" style="transform-origin:544px 649px; transform:scale(1,-1);">5</text>
    <text x="572" y="599" style="transform-origin:572px 599px; transform:scale(1,-1);">6</text>
    <text x="726" y="647" style="transform-origin:726px 647px; transform:scale(1,-1);">7</text>
    <text x="523" y="499" style="transform-origin:523px 499px; transform:scale(1,-1);">8</text>
    <text x="563" y="493" style="transform-origin:563px 493px; transform:scale(1,-1);">9</text>
    <text x="585" y="403" style="transform-origin:585px 403px; transform:scale(1,-1);">10</text>
    <text x="663" y="496" style="transform-origin:663px 496px; transform:scale(1,-1);">11</text>
    <text x="587" y="331" style="transform-origin:587px 331px; transform:scale(1,-1);">12</text>
    <text x="629" y="316" style="transform-origin:629px 316px; transform:scale(1,-1);">13</text>
    <text x="642" y="229" style="transform-origin:642px 229px; transform:scale(1,-1);">14</text>
    <text x="393" y="654" style="transform-origin:393px 654px; transform:scale(1,-1);">15</text>
    <text x="338" y="400" style="transform-origin:338px 400px; transform:scale(1,-1);">16</text>
    <text x="332" y="142" style="transform-origin:332px 142px; transform:scale(1,-1);">17</text></g>
</svg>