<svg version="1.1" viewBox="0 0 1024 1024" xmlns="http://www.w3.org/2000/svg">
  <g stroke="lightgray" stroke-dasharray="1,1" stroke-width="1" transform="scale(4, 4)">
    <line x1="0" y1="0" x2="256" y2="256"/>
    <line x1="256" y1="0" x2="0" y2="256"/>
    <line x1="128" y1="0" x2="128" y2="256"/>
    <line x1="0" y1="128" x2="256" y2="128"/>
  </g>
  <g transform="scale(1, -1) translate(0, -900)">
    <style type="text/css">
        .stroke1 {fill: #BF0909;}
        .stroke2 {fill: #BFBF09;}
        .stroke3 {fill: #09BF09;}
        .stroke4 {fill: #09BFBF;}
        .stroke5 {fill: #0909BF;}
        .stroke6 {fill: #BF09BF;}
        .stroke7 {fill: #42005e;}
        .stroke8 {fill: #ff3333;}
        .stroke9 {fill: #BFBFBF;}
        .stroke10 {fill: #00a53f;}
        .stroke11 {fill: #fff000;}
        .stroke12 {fill: #6600a5;}
        .stroke13 {fill: #0053a5;}
        .stroke14 {fill: #62c22b;}
        .stroke15 {fill: #BF09BF;}
        .stroke16 {fill: #BF0909;}
        .stroke17 {fill: #BFBF09;}
        .stroke18 {fill: #09BF09;}
        .stroke19 {fill: #09BFBF;}
        .stroke20 {fill: #0909BF;}
        text {
            font-family: Helvetica;
            font-size: 50px;
            fill: #FFFFFF;
            paint-order: stroke;
            stroke: #000000;
            stroke-width: 4px;
            stroke-linecap: butt;
            stroke-linejoin: miter;
            font-weight: 800;
        }
    </style>

    <path d="M 353 764 Q 375 745 397 722 Q 412 709 428 710 Q 440 710 445 724 Q 449 740 439 771 Q 433 789 406 800 Q 337 821 324 815 Q 318 811 320 797 Q 324 787 353 764 Z" class="stroke1"/>
    <path d="M 422 621 Q 549 648 553 650 Q 562 657 558 665 Q 552 677 526 684 Q 501 691 375 656 Q 219 629 142 625 Q 108 621 131 605 Q 168 581 220 590 Q 298 603 379 614 L 422 621 Z" class="stroke2"/>
    <path d="M 224 533 Q 255 484 267 481 Q 274 480 281 489 Q 288 499 286 523 Q 285 541 229 570 Q 217 574 212 574 Q 208 573 207 562 Q 208 553 224 533 Z" class="stroke3"/>
    <path d="M 380 478 Q 395 500 424 548 Q 430 560 442 575 Q 455 587 447 596 Q 440 609 422 621 C 397 638 374 644 379 614 Q 385 590 359 501 Q 352 483 351 470 C 347 440 363 453 380 478 Z" class="stroke4"/>
    <path d="M 183 438 Q 153 453 135 453 Q 122 449 128 437 Q 176 335 129 150 Q 111 96 113 84 Q 116 54 131 37 Q 138 24 148 30 Q 182 51 186 167 Q 193 362 198 403 Q 198 407 198 409 C 199 430 199 430 183 438 Z" class="stroke5"/>
    <path d="M 512 110 Q 512 111 513 112 Q 501 401 518 429 Q 533 457 492 482 Q 483 488 474 493 Q 458 502 442 498 Q 418 491 380 478 L 351 470 Q 338 469 328 465 Q 256 449 183 438 C 153 433 169 401 198 409 Q 243 422 291 433 L 323 440 Q 369 453 424 461 Q 437 464 443 457 Q 452 453 454 410 Q 461 272 451 115 Q 450 93 441 86 Q 434 79 392 87 Q 377 91 378 83 Q 378 76 389 70 Q 426 30 443 2 Q 462 -17 473 -15 Q 483 -12 495 13 Q 508 50 512 101 L 512 110 Z" class="stroke6"/>
    <path d="M 299 350 Q 269 344 234 338 Q 204 332 226 320 Q 253 305 297 311 L 335 321 Q 366 330 399 336 Q 421 342 424 345 Q 431 352 427 359 Q 420 368 397 373 Q 360 379 343 363 L 299 350 Z" class="stroke7"/>
    <path d="M 291 433 Q 301 423 299 350 L 297 311 Q 294 280 291 247 C 288 217 314 225 320 254 Q 327 288 335 321 L 343 363 Q 346 378 352 394 Q 356 401 358 408 Q 361 415 349 426 Q 336 436 323 440 C 295 450 278 456 291 433 Z" class="stroke8"/>
    <path d="M 265 241 L 265 242 Q 256 246 229 251 Q 220 254 218 250 Q 214 246 220 234 Q 239 197 251 138 Q 252 120 264 108 Q 277 92 281 104 Q 284 113 283 125 L 280 154 Q 273 200 271 218 L 265 241 Z" class="stroke9"/>
    <path d="M 291 247 Q 281 246 265 241 C 236 232 242 210 271 218 Q 283 222 338 232 Q 356 235 359 228 Q 363 225 360 205 Q 359 190 355 172 C 349 143 386 134 395 163 Q 407 205 421 217 Q 439 236 421 248 Q 405 257 384 271 Q 369 280 355 271 Q 339 261 320 254 L 291 247 Z" class="stroke10"/>
    <path d="M 283 125 Q 289 124 297 126 Q 330 133 402 138 Q 411 139 412 146 Q 412 152 395 163 L 355 172 Q 348 172 345 170 Q 308 160 280 154 C 251 148 253 127 283 125 Z" class="stroke11"/>
    <path d="M 639 517 Q 673 578 706 664 Q 721 709 738 731 Q 745 744 738 756 Q 731 769 698 786 Q 668 799 649 795 Q 630 789 643 769 Q 691 705 529 392 Q 522 380 520 373 Q 519 361 532 367 Q 538 370 548 379 L 558 391 Q 559 395 564 398 Q 594 434 626 494 L 639 517 Z" class="stroke12"/>
    <path d="M 731 491 Q 884 534 888 537 Q 897 544 892 553 Q 885 563 855 569 Q 827 573 798 560 Q 764 547 726 535 Q 686 525 639 517 C 609 512 598 506 626 494 Q 665 476 712 486 L 731 491 Z" class="stroke13"/>
    <path d="M 730 229 Q 766 292 787 413 Q 791 435 796 445 Q 803 452 797 462 Q 791 469 763 480 Q 745 489 731 491 C 710 496 710 496 712 486 Q 724 414 722 372 Q 716 318 693 267 L 667 222 Q 628 168 516 113 Q 512 112 512 110 C 495 100 495 100 512 101 Q 609 101 684 168 Q 690 174 696 181 L 730 229 Z" class="stroke14"/>
    <path d="M 696 181 Q 732 135 786 75 Q 813 51 856 57 Q 913 63 954 67 Q 967 68 980 74 Q 987 80 977 90 Q 964 100 847 151 Q 793 175 730 229 L 693 267 Q 654 309 613 362 Q 597 384 566 391 Q 560 392 558 391 C 531 395 531 395 548 379 Q 558 369 563 365 Q 584 352 663 229 Q 664 226 667 222 L 696 181 Z" class="stroke15"/>
    <text x="329" y="808" style="transform-origin:329px 808px; transform:scale(1,-1);">1</text>
    <text x="134" y="616" style="transform-origin:134px 616px; transform:scale(1,-1);">2</text>
    <text x="214" y="566" style="transform-origin:214px 566px; transform:scale(1,-1);">3</text>
    <text x="387" y="612" style="transform-origin:387px 612px; transform:scale(1,-1);">4</text>
    <text x="136" y="443" style="transform-origin:136px 443px; transform:scale(1,-1);">5</text>
    <text x="191" y="436" style="transform-origin:191px 436px; transform:scale(1,-1);">6</text>
    <text x="227" y="330" style="transform-origin:227px 330px; transform:scale(1,-1);">7</text>
    <text x="297" y="433" style="transform-origin:297px 433px; transform:scale(1,-1);">8</text>
    <text x="224" y="245" style="transform-origin:224px 245px; transform:scale(1,-1);">9</text>
    <text x="273" y="225" style="transform-origin:273px 225px; transform:scale(1,-1);">10</text>
    <text x="289" y="133" style="transform-origin:289px 133px; transform:scale(1,-1);">11</text>
    <text x="652" y="781" style="transform-origin:652px 781px; transform:scale(1,-1);">12</text>
    <text x="635" y="497" style="transform-origin:635px 497px; transform:scale(1,-1);">13</text>
    <text x="719" y="478" style="transform-origin:719px 478px; transform:scale(1,-1);">14</text>
    <text x="558" y="381" style="transform-origin:558px 381px; transform:scale(1,-1);">15</text></g>
</svg>