<svg version="1.1" viewBox="0 0 1024 1024" xmlns="http://www.w3.org/2000/svg">
  <g stroke="lightgray" stroke-dasharray="1,1" stroke-width="1" transform="scale(4, 4)">
    <line x1="0" y1="0" x2="256" y2="256"/>
    <line x1="256" y1="0" x2="0" y2="256"/>
    <line x1="128" y1="0" x2="128" y2="256"/>
    <line x1="0" y1="128" x2="256" y2="128"/>
  </g>
  <g transform="scale(1, -1) translate(0, -900)">
    <style type="text/css">
        .stroke1 {fill: #BF0909;}
        .stroke2 {fill: #BFBF09;}
        .stroke3 {fill: #09BF09;}
        .stroke4 {fill: #09BFBF;}
        .stroke5 {fill: #0909BF;}
        .stroke6 {fill: #BF09BF;}
        .stroke7 {fill: #42005e;}
        .stroke8 {fill: #ff3333;}
        .stroke9 {fill: #BFBFBF;}
        .stroke10 {fill: #00a53f;}
        .stroke11 {fill: #fff000;}
        .stroke12 {fill: #6600a5;}
        .stroke13 {fill: #0053a5;}
        .stroke14 {fill: #62c22b;}
        .stroke15 {fill: #BF09BF;}
        .stroke16 {fill: #BF0909;}
        .stroke17 {fill: #BFBF09;}
        .stroke18 {fill: #09BF09;}
        .stroke19 {fill: #09BFBF;}
        .stroke20 {fill: #0909BF;}
        text {
            font-family: Helvetica;
            font-size: 50px;
            fill: #FFFFFF;
            paint-order: stroke;
            stroke: #000000;
            stroke-width: 4px;
            stroke-linecap: butt;
            stroke-linejoin: miter;
            font-weight: 800;
        }
    </style>

    <path d="M 232 718 Q 257 697 286 673 Q 299 661 314 662 Q 324 663 329 676 Q 333 691 323 719 Q 311 746 225 763 Q 209 766 204 763 Q 200 759 201 747 Q 205 737 232 718 Z" class="stroke1"/>
    <path d="M 296 529 Q 315 536 336 542 Q 372 554 377 560 Q 384 567 380 574 Q 373 584 347 588 Q 320 591 296 578 Q 256 559 212 544 Q 163 528 105 517 Q 74 510 97 496 Q 130 484 193 499 Q 227 511 264 520 L 296 529 Z" class="stroke2"/>
    <path d="M 280 346 Q 299 386 316 442 Q 323 466 335 489 Q 341 498 335 507 Q 329 514 301 528 Q 298 529 296 529 C 268 540 260 543 264 520 Q 264 519 265 516 Q 272 473 261 423 Q 255 399 243 372 L 224 332 Q 188 263 86 163 Q 80 156 86 154 Q 116 148 197 227 Q 233 261 256 300 L 280 346 Z" class="stroke3"/>
    <path d="M 256 300 Q 281 275 309 243 Q 321 227 332 224 Q 339 223 345 230 Q 355 240 345 274 Q 339 304 280 346 L 243 372 Q 182 412 147 431 Q 140 435 138 426 Q 137 416 146 407 Q 183 374 224 332 L 256 300 Z" class="stroke4"/>
    <path d="M 470 744 Q 512 678 536 675 Q 549 672 558 690 Q 561 703 553 724 Q 541 749 477 771 Q 467 774 466 762 Q 463 753 470 744 Z" class="stroke5"/>
    <path d="M 375 670 Q 399 607 398 547 Q 402 295 361 170 Q 343 116 377 77 Q 387 62 398 77 Q 432 113 433 264 Q 433 547 450 638 Q 451 656 436 665 Q 414 684 387 693 Q 377 694 371 686 Q 368 682 375 670 Z" class="stroke6"/>
    <path d="M 612 745 Q 596 746 600 736 Q 606 723 627 713 Q 640 704 694 718 Q 781 742 795 722 Q 810 715 815 645 Q 831 413 820 150 Q 819 111 805 100 Q 789 90 709 106 Q 693 109 694 99 Q 695 92 709 86 Q 779 43 817 7 Q 839 -12 851 -10 Q 864 -6 874 22 Q 889 68 887 134 Q 868 503 869 639 Q 870 678 882 701 Q 894 722 884 734 Q 874 749 828 773 Q 809 783 790 778 Q 768 771 718 760 Q 667 750 612 745 Z" class="stroke7"/>
    <path d="M 629 543 Q 722 568 724 569 Q 731 576 727 583 Q 720 592 697 597 Q 669 601 631 583 L 594 571 Q 563 564 525 558 Q 497 552 518 540 Q 548 525 595 534 L 629 543 Z" class="stroke8"/>
    <path d="M 475 465 Q 469 468 464 468 Q 455 469 452 466 Q 448 462 454 448 Q 475 408 488 342 Q 491 323 503 309 Q 518 293 521 304 Q 522 308 523 314 L 523 334 Q 523 341 522 348 Q 510 418 508 439 C 507 452 503 454 475 465 Z" class="stroke9"/>
    <path d="M 705 341 Q 705 335 708 328 Q 712 316 723 317 Q 733 318 739 330 Q 748 340 762 387 Q 775 430 803 454 Q 818 467 804 480 Q 789 493 749 513 Q 739 519 678 505 Q 669 505 627 496 L 595 489 Q 576 486 560 481 Q 511 471 475 465 C 445 460 481 426 508 439 Q 515 448 595 461 L 627 466 Q 706 487 724 476 Q 731 472 728 451 Q 718 393 712 368 L 705 341 Z" class="stroke10"/>
    <path d="M 527 406 Q 554 364 568 360 Q 575 359 581 368 Q 582 375 579 389 Q 570 408 531 422 Q 527 423 525 417 Q 524 413 527 406 Z" class="stroke11"/>
    <path d="M 660 429 Q 653 413 638 387 Q 637 383 639 380 Q 643 379 647 382 Q 683 412 700 423 Q 709 427 706 433 Q 691 457 667 457 Q 660 456 661 445 Q 664 438 660 429 Z" class="stroke12"/>
    <path d="M 627 330 Q 669 337 705 341 C 735 344 742 366 712 368 Q 684 371 626 356 L 592 348 Q 556 342 523 334 C 494 327 493 315 523 314 Q 527 313 539 315 Q 557 319 576 320 L 627 330 Z" class="stroke13"/>
    <path d="M 627 295 Q 627 313 627 330 L 626 356 Q 626 411 627 461 Q 627 464 627 466 L 627 496 Q 627 523 629 543 L 631 583 Q 634 622 631 625 Q 612 641 597 648 Q 587 651 580 645 Q 576 642 581 634 Q 593 615 594 571 L 595 534 Q 595 513 595 489 L 595 461 Q 594 433 594 399 Q 593 372 592 348 L 586 270 Q 582 209 575 188 Q 571 155 595 117 Q 605 101 611 98 Q 620 97 624 108 Q 634 133 631 158 Q 630 218 627 272 L 627 295 Z" class="stroke14"/>
    <path d="M 576 320 Q 540 257 457 170 Q 453 163 460 161 Q 469 158 535 211 Q 560 233 586 270 C 629 330 591 346 576 320 Z" class="stroke15"/>
    <path d="M 627 272 Q 670 238 722 184 Q 734 171 745 167 Q 751 166 757 174 Q 764 184 755 215 Q 743 257 627 295 C 599 304 604 291 627 272 Z" class="stroke16"/>
    <text x="209" y="757" style="transform-origin:209px 757px; transform:scale(1,-1);">1</text>
    <text x="99" y="507" style="transform-origin:99px 507px; transform:scale(1,-1);">2</text>
    <text x="270" y="519" style="transform-origin:270px 519px; transform:scale(1,-1);">3</text>
    <text x="146" y="422" style="transform-origin:146px 422px; transform:scale(1,-1);">4</text>
    <text x="479" y="757" style="transform-origin:479px 757px; transform:scale(1,-1);">5</text>
    <text x="380" y="682" style="transform-origin:380px 682px; transform:scale(1,-1);">6</text>
    <text x="609" y="736" style="transform-origin:609px 736px; transform:scale(1,-1);">7</text>
    <text x="519" y="550" style="transform-origin:519px 550px; transform:scale(1,-1);">8</text>
    <text x="459" y="461" style="transform-origin:459px 461px; transform:scale(1,-1);">9</text>
    <text x="482" y="462" style="transform-origin:482px 462px; transform:scale(1,-1);">10</text>
    <text x="534" y="413" style="transform-origin:534px 413px; transform:scale(1,-1);">11</text>
    <text x="673" y="447" style="transform-origin:673px 447px; transform:scale(1,-1);">12</text>
    <text x="526" y="319" style="transform-origin:526px 319px; transform:scale(1,-1);">13</text>
    <text x="587" y="640" style="transform-origin:587px 640px; transform:scale(1,-1);">14</text>
    <text x="584" y="317" style="transform-origin:584px 317px; transform:scale(1,-1);">15</text>
    <text x="637" y="289" style="transform-origin:637px 289px; transform:scale(1,-1);">16</text></g>
</svg>