<svg version="1.1" viewBox="0 0 1024 1024" xmlns="http://www.w3.org/2000/svg">
  <g stroke="lightgray" stroke-dasharray="1,1" stroke-width="1" transform="scale(4, 4)">
    <line x1="0" y1="0" x2="256" y2="256"/>
    <line x1="256" y1="0" x2="0" y2="256"/>
    <line x1="128" y1="0" x2="128" y2="256"/>
    <line x1="0" y1="128" x2="256" y2="128"/>
  </g>
  <g transform="scale(1, -1) translate(0, -900)">
    <style type="text/css">
        .stroke1 {fill: #BF0909;}
        .stroke2 {fill: #BFBF09;}
        .stroke3 {fill: #09BF09;}
        .stroke4 {fill: #09BFBF;}
        .stroke5 {fill: #0909BF;}
        .stroke6 {fill: #BF09BF;}
        .stroke7 {fill: #42005e;}
        .stroke8 {fill: #ff3333;}
        .stroke9 {fill: #BFBFBF;}
        .stroke10 {fill: #00a53f;}
        .stroke11 {fill: #fff000;}
        .stroke12 {fill: #6600a5;}
        .stroke13 {fill: #0053a5;}
        .stroke14 {fill: #62c22b;}
        .stroke15 {fill: #BF09BF;}
        .stroke16 {fill: #BF0909;}
        .stroke17 {fill: #BFBF09;}
        .stroke18 {fill: #09BF09;}
        .stroke19 {fill: #09BFBF;}
        .stroke20 {fill: #0909BF;}
        text {
            font-family: Helvetica;
            font-size: 50px;
            fill: #FFFFFF;
            paint-order: stroke;
            stroke: #000000;
            stroke-width: 4px;
            stroke-linecap: butt;
            stroke-linejoin: miter;
            font-weight: 800;
        }
    </style>

    <path d="M 262 569 Q 308 587 358 602 Q 383 611 387 615 Q 394 625 389 632 Q 380 644 349 647 Q 318 648 289 632 Q 261 619 231 608 Q 197 596 157 587 Q 120 577 149 563 Q 174 553 222 556 L 262 569 Z" class="stroke1"/>
    <path d="M 288 363 Q 313 373 344 384 Q 368 393 371 397 Q 378 406 373 413 Q 364 423 335 426 Q 310 427 289 416 L 239 392 Q 173 371 151 365 Q 117 355 145 342 Q 185 327 239 345 L 288 363 Z" class="stroke2"/>
    <path d="M 283 199 Q 284 287 288 363 L 289 416 Q 292 542 293 543 Q 292 546 291 546 Q 276 561 262 569 C 237 585 211 584 222 556 Q 235 534 239 403 Q 238 399 239 392 L 239 345 Q 239 279 239 181 C 239 151 283 169 283 199 Z" class="stroke3"/>
    <path d="M 239 181 Q 190 163 140 142 Q 124 135 96 133 Q 84 130 84 120 Q 83 107 93 101 Q 115 88 149 74 Q 159 73 170 81 Q 272 150 374 219 Q 386 228 385 236 Q 379 240 368 237 Q 326 219 283 199 L 239 181 Z" class="stroke4"/>
    <path d="M 484 738 Q 518 713 553 683 Q 569 671 585 673 Q 597 674 601 688 Q 605 704 593 735 Q 586 757 549 771 Q 465 796 452 787 Q 446 783 449 769 Q 453 759 484 738 Z" class="stroke5"/>
    <path d="M 555 511 Q 637 538 642 542 Q 649 551 644 558 Q 637 568 609 572 Q 585 573 498 537 Q 384 506 377 503 Q 344 494 369 481 Q 402 466 477 487 Q 501 494 528 502 L 555 511 Z" class="stroke6"/>
    <path d="M 545 322 Q 563 364 579 420 Q 588 445 599 469 Q 605 479 599 487 Q 589 499 555 511 C 527 522 525 523 528 502 Q 528 501 529 496 Q 539 436 510 352 L 492 312 Q 453 234 342 123 Q 336 116 342 114 Q 349 113 358 118 Q 413 148 457 192 Q 497 229 522 274 L 545 322 Z" class="stroke7"/>
    <path d="M 522 274 Q 583 196 588 193 Q 595 192 601 198 Q 611 207 606 239 Q 603 269 545 322 L 510 352 Q 455 398 422 422 Q 416 426 414 418 Q 413 408 419 400 Q 453 361 492 312 L 522 274 Z" class="stroke8"/>
    <path d="M 765 613 Q 898 653 901 655 Q 910 664 904 672 Q 897 684 866 689 Q 835 693 805 679 Q 771 666 735 654 Q 695 642 647 635 Q 610 626 638 611 Q 668 596 719 601 L 765 613 Z" class="stroke9"/>
    <path d="M 788 384 Q 890 415 893 418 Q 900 425 896 433 Q 889 443 861 448 Q 825 454 790 432 L 736 413 Q 699 403 654 395 Q 621 386 646 373 Q 688 352 736 370 L 788 384 Z" class="stroke10"/>
    <path d="M 781 163 Q 785 283 788 384 L 790 432 Q 793 589 794 590 L 793 591 Q 780 604 765 613 C 740 630 710 630 719 601 Q 732 568 737 476 Q 736 452 736 413 L 736 370 Q 735 286 733 154 C 733 124 780 133 781 163 Z" class="stroke11"/>
    <path d="M 733 154 Q 654 141 567 125 Q 548 122 562 107 Q 575 95 593 90 Q 612 86 627 91 Q 762 130 958 130 Q 976 131 980 139 Q 984 151 969 163 Q 915 197 855 181 Q 824 174 781 163 L 733 154 Z" class="stroke12"/>
    <text x="150" y="576" style="transform-origin:150px 576px; transform:scale(1,-1);">1</text>
    <text x="145" y="354" style="transform-origin:145px 354px; transform:scale(1,-1);">2</text>
    <text x="229" y="556" style="transform-origin:229px 556px; transform:scale(1,-1);">3</text>
    <text x="97" y="120" style="transform-origin:97px 120px; transform:scale(1,-1);">4</text>
    <text x="458" y="779" style="transform-origin:458px 779px; transform:scale(1,-1);">5</text>
    <text x="371" y="493" style="transform-origin:371px 493px; transform:scale(1,-1);">6</text>
    <text x="536" y="500" style="transform-origin:536px 500px; transform:scale(1,-1);">7</text>
    <text x="421" y="414" style="transform-origin:421px 414px; transform:scale(1,-1);">8</text>
    <text x="639" y="624" style="transform-origin:639px 624px; transform:scale(1,-1);">9</text>
    <text x="648" y="385" style="transform-origin:648px 385px; transform:scale(1,-1);">10</text>
    <text x="728" y="599" style="transform-origin:728px 599px; transform:scale(1,-1);">11</text>
    <text x="565" y="116" style="transform-origin:565px 116px; transform:scale(1,-1);">12</text></g>
</svg>