<svg version="1.1" viewBox="0 0 1024 1024" xmlns="http://www.w3.org/2000/svg">
  <g stroke="lightgray" stroke-dasharray="1,1" stroke-width="1" transform="scale(4, 4)">
    <line x1="0" y1="0" x2="256" y2="256"/>
    <line x1="256" y1="0" x2="0" y2="256"/>
    <line x1="128" y1="0" x2="128" y2="256"/>
    <line x1="0" y1="128" x2="256" y2="128"/>
  </g>
  <g transform="scale(1, -1) translate(0, -900)">
    <style type="text/css">
        .stroke1 {fill: #BF0909;}
        .stroke2 {fill: #BFBF09;}
        .stroke3 {fill: #09BF09;}
        .stroke4 {fill: #09BFBF;}
        .stroke5 {fill: #0909BF;}
        .stroke6 {fill: #BF09BF;}
        .stroke7 {fill: #42005e;}
        .stroke8 {fill: #ff3333;}
        .stroke9 {fill: #BFBFBF;}
        .stroke10 {fill: #00a53f;}
        .stroke11 {fill: #fff000;}
        .stroke12 {fill: #6600a5;}
        .stroke13 {fill: #0053a5;}
        .stroke14 {fill: #62c22b;}
        .stroke15 {fill: #BF09BF;}
        .stroke16 {fill: #BF0909;}
        .stroke17 {fill: #BFBF09;}
        .stroke18 {fill: #09BF09;}
        .stroke19 {fill: #09BFBF;}
        .stroke20 {fill: #0909BF;}
        text {
            font-family: Helvetica;
            font-size: 50px;
            fill: #FFFFFF;
            paint-order: stroke;
            stroke: #000000;
            stroke-width: 4px;
            stroke-linecap: butt;
            stroke-linejoin: miter;
            font-weight: 800;
        }
    </style>

    <path d="M 335 790 Q 360 771 385 747 Q 401 735 417 737 Q 429 738 433 752 Q 437 768 425 799 Q 413 827 327 840 Q 311 843 304 839 Q 298 835 301 821 Q 305 811 335 790 Z" class="stroke1"/>
    <path d="M 216 662 Q 183 656 207 641 Q 246 620 296 631 Q 387 650 481 670 Q 524 680 531 686 Q 538 693 535 701 Q 528 711 502 719 Q 475 723 365 688 Q 310 673 216 662 Z" class="stroke2"/>
    <path d="M 234 570 Q 255 530 280 509 Q 290 505 300 513 Q 307 522 307 535 Q 304 569 251 596 Q 250 597 249 597 Q 239 604 230 602 Q 226 602 225 592 Q 224 583 234 570 Z" class="stroke3"/>
    <path d="M 411 501 Q 414 505 418 511 Q 436 533 455 564 Q 462 577 478 594 Q 491 604 484 613 Q 477 628 452 646 Q 442 656 426 652 Q 417 648 422 638 Q 429 611 386 513 Q 380 503 378 494 C 370 465 393 477 411 501 Z" class="stroke4"/>
    <path d="M 360 452 Q 424 467 505 477 Q 521 478 521 486 Q 522 498 506 506 Q 473 521 411 501 L 378 494 Q 171 449 81 441 Q 68 440 66 432 Q 63 422 77 411 Q 114 384 153 397 Q 249 428 312 443 Q 313 444 319 444 L 360 452 Z" class="stroke5"/>
    <path d="M 384 331 Q 393 337 502 355 Q 511 354 518 365 Q 519 375 499 383 Q 475 401 394 373 Q 390 372 386 370 L 333 355 Q 275 340 146 317 Q 122 313 142 299 Q 172 278 195 285 Q 255 303 333 320 L 384 331 Z" class="stroke6"/>
    <path d="M 383 284 Q 383 309 384 331 L 386 370 Q 386 383 388 397 Q 394 421 388 430 Q 381 440 360 452 C 335 468 308 472 319 444 Q 332 417 333 355 L 333 320 Q 333 263 333 172 Q 332 147 323 137 Q 317 134 256 151 Q 246 155 245 148 Q 245 141 253 132 Q 299 83 329 45 Q 339 36 352 50 Q 394 105 387 204 Q 386 228 384 256 L 383 284 Z" class="stroke7"/>
    <path d="M 197 255 Q 178 207 150 165 Q 132 135 149 104 Q 156 88 176 99 Q 221 138 222 203 Q 226 233 219 255 Q 215 262 209 264 Q 202 263 197 255 Z" class="stroke8"/>
    <path d="M 384 256 Q 411 243 451 214 Q 463 205 475 208 Q 482 209 485 220 Q 486 232 477 254 Q 470 269 443 277 Q 386 287 383 284 C 353 279 357 269 384 256 Z" class="stroke9"/>
    <path d="M 634 602 Q 683 621 716 638 Q 791 677 821 683 Q 843 689 837 709 Q 827 728 803 748 Q 782 767 769 766 Q 756 767 758 753 Q 755 720 685 668 Q 654 646 621 619 C 598 600 606 591 634 602 Z" class="stroke10"/>
    <path d="M 625 478 Q 625 553 632 585 Q 636 595 634 602 C 635 610 635 610 621 619 Q 576 650 553 642 Q 543 635 550 621 Q 593 560 555 312 Q 551 296 547 277 Q 525 196 465 82 Q 461 75 459 69 Q 458 59 467 62 Q 483 65 511 109 Q 601 217 623 447 L 625 478 Z" class="stroke11"/>
    <path d="M 786 467 Q 789 470 932 492 Q 947 495 947 502 Q 947 515 923 530 Q 884 557 818 526 Q 767 510 728 500 Q 676 491 625 478 C 596 471 593 451 623 447 Q 627 447 632 446 Q 645 443 670 446 Q 701 452 729 457 L 786 467 Z" class="stroke12"/>
    <path d="M 754 -33 Q 758 -58 766 -69 Q 770 -76 779 -74 Q 806 -53 808 114 Q 807 165 812 360 Q 812 384 821 425 Q 824 444 810 453 Q 797 463 786 467 C 759 481 717 484 729 457 Q 750 412 750 381 Q 751 275 750 111 Q 749 3 754 -33 Z" class="stroke13"/>
    <text x="311" y="831" style="transform-origin:311px 831px; transform:scale(1,-1);">1</text>
    <text x="209" y="653" style="transform-origin:209px 653px; transform:scale(1,-1);">2</text>
    <text x="234" y="594" style="transform-origin:234px 594px; transform:scale(1,-1);">3</text>
    <text x="434" y="642" style="transform-origin:434px 642px; transform:scale(1,-1);">4</text>
    <text x="77" y="428" style="transform-origin:77px 428px; transform:scale(1,-1);">5</text>
    <text x="142" y="308" style="transform-origin:142px 308px; transform:scale(1,-1);">6</text>
    <text x="327" y="441" style="transform-origin:327px 441px; transform:scale(1,-1);">7</text>
    <text x="208" y="253" style="transform-origin:208px 253px; transform:scale(1,-1);">8</text>
    <text x="386" y="277" style="transform-origin:386px 277px; transform:scale(1,-1);">9</text>
    <text x="767" y="757" style="transform-origin:767px 757px; transform:scale(1,-1);">10</text>
    <text x="560" y="631" style="transform-origin:560px 631px; transform:scale(1,-1);">11</text>
    <text x="628" y="454" style="transform-origin:628px 454px; transform:scale(1,-1);">12</text>
    <text x="738" y="450" style="transform-origin:738px 450px; transform:scale(1,-1);">13</text></g>
</svg>