<svg version="1.1" viewBox="0 0 1024 1024" xmlns="http://www.w3.org/2000/svg">
  <g stroke="lightgray" stroke-dasharray="1,1" stroke-width="1" transform="scale(4, 4)">
    <line x1="0" y1="0" x2="256" y2="256"/>
    <line x1="256" y1="0" x2="0" y2="256"/>
    <line x1="128" y1="0" x2="128" y2="256"/>
    <line x1="0" y1="128" x2="256" y2="128"/>
  </g>
  <g transform="scale(1, -1) translate(0, -900)">
    <style type="text/css">
        .stroke1 {fill: #BF0909;}
        .stroke2 {fill: #BFBF09;}
        .stroke3 {fill: #09BF09;}
        .stroke4 {fill: #09BFBF;}
        .stroke5 {fill: #0909BF;}
        .stroke6 {fill: #BF09BF;}
        .stroke7 {fill: #42005e;}
        .stroke8 {fill: #ff3333;}
        .stroke9 {fill: #BFBFBF;}
        .stroke10 {fill: #00a53f;}
        .stroke11 {fill: #fff000;}
        .stroke12 {fill: #6600a5;}
        .stroke13 {fill: #0053a5;}
        .stroke14 {fill: #62c22b;}
        .stroke15 {fill: #BF09BF;}
        .stroke16 {fill: #BF0909;}
        .stroke17 {fill: #BFBF09;}
        .stroke18 {fill: #09BF09;}
        .stroke19 {fill: #09BFBF;}
        .stroke20 {fill: #0909BF;}
        text {
            font-family: Helvetica;
            font-size: 50px;
            fill: #FFFFFF;
            paint-order: stroke;
            stroke: #000000;
            stroke-width: 4px;
            stroke-linecap: butt;
            stroke-linejoin: miter;
            font-weight: 800;
        }
    </style>

    <path d="M 297 703 Q 325 676 357 644 Q 372 629 390 629 Q 402 630 408 645 Q 414 661 405 696 Q 396 729 293 758 Q 275 762 268 759 Q 262 755 264 740 Q 268 727 297 703 Z" class="stroke1"/>
    <path d="M 287 493 Q 435 533 440 537 Q 447 544 443 553 Q 436 563 408 570 Q 378 574 350 562 Q 248 522 124 504 Q 88 497 114 482 Q 148 464 221 478 Q 233 481 246 483 L 287 493 Z" class="stroke2"/>
    <path d="M 298 413 Q 307 409 331 405 Q 356 401 366 387 Q 384 344 318 180 Q 312 167 305 157 Q 296 147 284 141 Q 274 140 253 150 Q 223 171 219 166 Q 212 159 225 146 Q 249 113 251 79 Q 254 64 264 58 Q 274 52 306 69 Q 336 90 364 150 Q 379 196 396 266 Q 411 345 434 362 Q 444 366 445 375 Q 446 384 426 406 Q 396 433 351 433 Q 330 436 310 441 C 281 448 269 422 298 413 Z" class="stroke3"/>
    <path d="M 310 441 Q 320 468 321 468 Q 315 486 287 493 C 259 503 239 509 246 483 Q 270 422 177 262 Q 174 261 173 257 Q 146 215 75 130 Q 69 124 78 124 Q 132 136 224 269 Q 227 276 233 283 Q 260 329 298 413 L 310 441 Z" class="stroke4"/>
    <path d="M 569 623 Q 594 663 622 716 Q 637 750 651 766 Q 658 776 653 789 Q 647 801 619 819 Q 592 832 575 831 Q 557 827 567 808 Q 601 757 459 517 Q 452 507 449 501 Q 448 491 460 494 Q 487 503 557 605 L 569 623 Z" class="stroke5"/>
    <path d="M 557 605 Q 564 598 600 590 Q 619 587 730 613 Q 806 632 812 637 Q 821 644 815 653 Q 808 663 780 670 Q 750 674 722 661 Q 691 649 655 640 Q 618 630 571 624 Q 568 624 569 623 C 540 616 539 616 557 605 Z" class="stroke6"/>
    <path d="M 638 451 Q 737 484 761 476 Q 774 469 772 460 Q 773 454 739 392 Q 732 382 737 377 Q 741 371 752 382 Q 840 443 880 457 Q 889 458 890 467 Q 891 480 862 495 Q 840 508 818 521 Q 790 536 776 528 Q 674 483 499 450 Q 477 447 494 429 Q 516 408 541 418 Q 574 431 610 443 L 638 451 Z" class="stroke7"/>
    <path d="M 664 137 Q 668 213 671 277 L 673 310 Q 673 362 678 397 Q 684 413 676 423 Q 657 442 638 451 C 612 465 600 471 610 443 Q 625 401 626 384 Q 627 359 625 159 C 625 129 662 107 664 137 Z" class="stroke8"/>
    <path d="M 671 277 Q 671 278 788 301 Q 813 308 802 320 Q 789 335 762 337 Q 725 340 673 310 C 647 295 642 269 671 277 Z" class="stroke9"/>
    <path d="M 531 222 L 567 297 Q 564 306 551 315 Q 515 340 488 329 Q 481 326 484 315 Q 502 261 431 140 Q 427 134 422 126 Q 400 90 340 19 Q 333 13 343 12 Q 395 24 479 134 Q 480 137 483 140 Q 499 164 519 200 L 531 222 Z" class="stroke10"/>
    <path d="M 519 200 Q 627 101 742 13 Q 767 -9 807 -5 Q 877 -1 951 22 Q 969 26 970 32 Q 971 39 956 43 Q 761 94 756 95 Q 738 101 664 137 L 625 159 Q 544 213 531 222 C 506 239 497 220 519 200 Z" class="stroke11"/>
    <text x="274" y="751" style="transform-origin:274px 751px; transform:scale(1,-1);">1</text>
    <text x="116" y="494" style="transform-origin:116px 494px; transform:scale(1,-1);">2</text>
    <text x="304" y="419" style="transform-origin:304px 419px; transform:scale(1,-1);">3</text>
    <text x="254" y="481" style="transform-origin:254px 481px; transform:scale(1,-1);">4</text>
    <text x="576" y="818" style="transform-origin:576px 818px; transform:scale(1,-1);">5</text>
    <text x="564" y="607" style="transform-origin:564px 607px; transform:scale(1,-1);">6</text>
    <text x="497" y="439" style="transform-origin:497px 439px; transform:scale(1,-1);">7</text>
    <text x="620" y="435" style="transform-origin:620px 435px; transform:scale(1,-1);">8</text>
    <text x="674" y="283" style="transform-origin:674px 283px; transform:scale(1,-1);">9</text>
    <text x="497" y="319" style="transform-origin:497px 319px; transform:scale(1,-1);">10</text>
    <text x="530" y="216" style="transform-origin:530px 216px; transform:scale(1,-1);">11</text></g>
</svg>