<svg version="1.1" viewBox="0 0 1024 1024" xmlns="http://www.w3.org/2000/svg">
  <g stroke="lightgray" stroke-dasharray="1,1" stroke-width="1" transform="scale(4, 4)">
    <line x1="0" y1="0" x2="256" y2="256"/>
    <line x1="256" y1="0" x2="0" y2="256"/>
    <line x1="128" y1="0" x2="128" y2="256"/>
    <line x1="0" y1="128" x2="256" y2="128"/>
  </g>
  <g transform="scale(1, -1) translate(0, -900)">
    <style type="text/css">
        .stroke1 {fill: #BF0909;}
        .stroke2 {fill: #BFBF09;}
        .stroke3 {fill: #09BF09;}
        .stroke4 {fill: #09BFBF;}
        .stroke5 {fill: #0909BF;}
        .stroke6 {fill: #BF09BF;}
        .stroke7 {fill: #42005e;}
        .stroke8 {fill: #ff3333;}
        .stroke9 {fill: #BFBFBF;}
        .stroke10 {fill: #00a53f;}
        .stroke11 {fill: #fff000;}
        .stroke12 {fill: #6600a5;}
        .stroke13 {fill: #0053a5;}
        .stroke14 {fill: #62c22b;}
        .stroke15 {fill: #BF09BF;}
        .stroke16 {fill: #BF0909;}
        .stroke17 {fill: #BFBF09;}
        .stroke18 {fill: #09BF09;}
        .stroke19 {fill: #09BFBF;}
        .stroke20 {fill: #0909BF;}
        text {
            font-family: Helvetica;
            font-size: 50px;
            fill: #FFFFFF;
            paint-order: stroke;
            stroke: #000000;
            stroke-width: 4px;
            stroke-linecap: butt;
            stroke-linejoin: miter;
            font-weight: 800;
        }
    </style>

    <path d="M 347 791 Q 323 804 300 810 Q 293 811 288 806 Q 281 800 290 790 Q 326 739 339 615 Q 340 561 379 529 Q 380 529 383 527 Q 398 523 400 544 L 399 575 Q 396 597 388 621 Q 387 637 383 654 L 379 680 Q 373 723 371 758 C 370 779 370 779 347 791 Z" class="stroke1"/>
    <path d="M 593 571 Q 614 538 633 529 Q 643 522 659 543 Q 674 568 702 706 Q 712 739 736 764 Q 749 777 738 792 Q 722 810 677 837 Q 656 847 640 840 Q 609 833 569 827 Q 517 820 449 808 Q 392 798 347 791 C 317 786 341 753 371 758 Q 375 758 380 759 Q 458 778 596 793 Q 627 796 636 786 Q 649 770 647 755 Q 625 604 605 591 C 592 572 592 572 593 571 Z" class="stroke2"/>
    <path d="M 383 654 Q 389 653 397 654 Q 497 670 571 681 Q 593 685 585 697 Q 575 710 551 715 Q 530 719 379 680 C 350 673 353 656 383 654 Z" class="stroke3"/>
    <path d="M 400 544 Q 407 543 416 545 Q 471 558 593 571 C 623 574 623 574 605 591 Q 598 598 584 607 Q 568 614 540 607 Q 462 586 399 575 C 369 570 370 545 400 544 Z" class="stroke4"/>
    <path d="M 299 390 Q 326 397 344 404 Q 416 428 428 429 Q 447 432 443 448 Q 422 496 393 501 Q 383 502 382 491 Q 379 472 296 415 Q 292 414 289 410 C 267 390 270 382 299 390 Z" class="stroke5"/>
    <path d="M 289 410 Q 261 437 238 441 Q 225 442 218 438 Q 208 429 220 415 Q 248 367 243 276 Q 239 243 224 223 Q 211 199 220 175 Q 233 141 252 127 Q 264 120 277 140 Q 317 189 454 313 Q 473 329 475 337 Q 476 352 454 339 Q 313 255 301 259 Q 291 265 292 287 Q 295 360 299 378 Q 300 385 299 390 C 300 401 300 401 289 410 Z" class="stroke6"/>
    <path d="M 606 421 Q 649 439 740 462 Q 750 463 757 460 Q 770 453 768 430 Q 764 375 734 276 Q 730 254 710 258 Q 676 271 651 282 Q 636 286 638 277 Q 639 267 661 244 Q 695 207 715 167 Q 724 157 735 160 Q 744 163 762 189 Q 784 222 799 288 Q 817 424 835 442 Q 847 451 842 462 Q 835 475 800 500 Q 785 510 726 494 Q 708 494 598 461 C 569 452 578 410 606 421 Z" class="stroke7"/>
    <path d="M 542 -5 Q 546 -30 554 -41 Q 558 -48 567 -46 Q 594 -25 596 137 Q 590 338 606 421 C 611 451 611 453 598 461 Q 564 483 549 486 Q 536 490 520 482 Q 511 475 518 463 Q 536 433 537 392 Q 538 290 538 133 Q 537 30 542 -5 Z" class="stroke8"/>
    <text x="295" y="799" style="transform-origin:295px 799px; transform:scale(1,-1);">1</text>
    <text x="354" y="788" style="transform-origin:354px 788px; transform:scale(1,-1);">2</text>
    <text x="390" y="662" style="transform-origin:390px 662px; transform:scale(1,-1);">3</text>
    <text x="404" y="552" style="transform-origin:404px 552px; transform:scale(1,-1);">4</text>
    <text x="429" y="443" style="transform-origin:429px 443px; transform:scale(1,-1);">5</text>
    <text x="226" y="428" style="transform-origin:226px 428px; transform:scale(1,-1);">6</text>
    <text x="609" y="429" style="transform-origin:609px 429px; transform:scale(1,-1);">7</text>
    <text x="528" y="472" style="transform-origin:528px 472px; transform:scale(1,-1);">8</text></g>
</svg>