<svg version="1.1" viewBox="0 0 1024 1024" xmlns="http://www.w3.org/2000/svg">
  <g stroke="lightgray" stroke-dasharray="1,1" stroke-width="1" transform="scale(4, 4)">
    <line x1="0" y1="0" x2="256" y2="256"/>
    <line x1="256" y1="0" x2="0" y2="256"/>
    <line x1="128" y1="0" x2="128" y2="256"/>
    <line x1="0" y1="128" x2="256" y2="128"/>
  </g>
  <g transform="scale(1, -1) translate(0, -900)">
    <style type="text/css">
        .stroke1 {fill: #BF0909;}
        .stroke2 {fill: #BFBF09;}
        .stroke3 {fill: #09BF09;}
        .stroke4 {fill: #09BFBF;}
        .stroke5 {fill: #0909BF;}
        .stroke6 {fill: #BF09BF;}
        .stroke7 {fill: #42005e;}
        .stroke8 {fill: #ff3333;}
        .stroke9 {fill: #BFBFBF;}
        .stroke10 {fill: #00a53f;}
        .stroke11 {fill: #fff000;}
        .stroke12 {fill: #6600a5;}
        .stroke13 {fill: #0053a5;}
        .stroke14 {fill: #62c22b;}
        .stroke15 {fill: #BF09BF;}
        .stroke16 {fill: #BF0909;}
        .stroke17 {fill: #BFBF09;}
        .stroke18 {fill: #09BF09;}
        .stroke19 {fill: #09BFBF;}
        .stroke20 {fill: #0909BF;}
        text {
            font-family: Helvetica;
            font-size: 50px;
            fill: #FFFFFF;
            paint-order: stroke;
            stroke: #000000;
            stroke-width: 4px;
            stroke-linecap: butt;
            stroke-linejoin: miter;
            font-weight: 800;
        }
    </style>

    <path d="M 376 747 Q 354 760 330 766 Q 324 767 320 763 Q 313 759 322 748 Q 355 697 366 580 Q 370 525 404 500 Q 405 500 407 498 Q 423 494 423 523 L 421 548 Q 415 584 407 620 L 403 647 Q 399 684 396 715 C 394 737 394 737 376 747 Z" class="stroke1"/>
    <path d="M 561 542 Q 577 517 593 509 Q 603 502 618 522 Q 631 544 662 666 Q 672 697 695 721 Q 708 733 696 747 Q 681 763 640 790 Q 622 799 562 783 Q 553 783 454 763 Q 409 753 376 747 C 347 741 366 710 396 715 Q 400 715 406 716 Q 466 732 572 748 Q 593 749 602 743 Q 615 733 611 715 Q 590 600 580 582 Q 576 573 566 568 C 552 555 552 555 561 542 Z" class="stroke2"/>
    <path d="M 407 620 Q 485 635 540 645 Q 562 649 553 661 Q 543 674 519 678 Q 491 679 403 647 C 375 637 378 614 407 620 Z" class="stroke3"/>
    <path d="M 423 523 Q 501 535 561 542 C 591 546 592 553 566 568 Q 560 572 549 575 Q 516 579 421 548 C 392 539 393 518 423 523 Z" class="stroke4"/>
    <path d="M 372 402 Q 553 444 859 444 Q 883 444 888 453 Q 894 466 876 481 Q 818 523 765 509 Q 612 476 169 412 Q 147 409 163 391 Q 196 361 238 371 Q 281 384 328 393 L 372 402 Z" class="stroke5"/>
    <path d="M 364 327 Q 377 343 393 356 Q 403 366 394 380 Q 384 392 372 402 C 349 422 333 423 328 393 Q 319 321 225 247 Q 207 238 183 214 Q 173 202 187 204 Q 232 201 320 280 Q 332 293 348 310 L 364 327 Z" class="stroke6"/>
    <path d="M 575 318 Q 630 327 682 331 Q 700 332 703 323 Q 709 310 705 279 Q 690 162 666 102 Q 653 63 639 52 Q 626 39 595 47 Q 567 54 541 61 Q 516 68 533 45 Q 573 -4 595 -40 Q 604 -61 624 -56 Q 640 -55 661 -36 Q 722 19 764 233 Q 774 282 795 308 Q 814 329 805 340 Q 790 361 755 379 Q 730 394 701 383 Q 536 323 364 327 C 334 327 327 327 348 310 Q 357 298 375 289 C 389 279 389 279 414 285 Q 474 301 533 310 L 575 318 Z" class="stroke7"/>
    <path d="M 375 289 Q 375 208 210 89 Q 203 86 211 83 Q 241 77 330 139 Q 336 145 343 150 Q 374 175 423 230 Q 430 237 434 239 Q 441 243 440 251 Q 440 267 414 285 C 390 303 376 313 375 289 Z" class="stroke8"/>
    <path d="M 533 310 Q 546 241 429 103 Q 425 99 420 93 Q 384 54 297 -21 Q 290 -25 299 -28 Q 345 -28 459 74 Q 532 156 595 247 Q 604 260 610 265 Q 617 269 615 280 Q 614 290 602 301 Q 590 313 575 318 C 548 331 530 338 533 310 Z" class="stroke9"/>
    <text x="327" y="756" style="transform-origin:327px 756px; transform:scale(1,-1);">1</text>
    <text x="384" y="744" style="transform-origin:384px 744px; transform:scale(1,-1);">2</text>
    <text x="414" y="628" style="transform-origin:414px 628px; transform:scale(1,-1);">3</text>
    <text x="431" y="530" style="transform-origin:431px 530px; transform:scale(1,-1);">4</text>
    <text x="167" y="401" style="transform-origin:167px 401px; transform:scale(1,-1);">5</text>
    <text x="381" y="369" style="transform-origin:381px 369px; transform:scale(1,-1);">6</text>
    <text x="356" y="310" style="transform-origin:356px 310px; transform:scale(1,-1);">7</text>
    <text x="381" y="284" style="transform-origin:381px 284px; transform:scale(1,-1);">8</text>
    <text x="541" y="306" style="transform-origin:541px 306px; transform:scale(1,-1);">9</text></g>
</svg>