<svg version="1.1" viewBox="0 0 1024 1024" xmlns="http://www.w3.org/2000/svg">
  <g stroke="lightgray" stroke-dasharray="1,1" stroke-width="1" transform="scale(4, 4)">
    <line x1="0" y1="0" x2="256" y2="256"/>
    <line x1="256" y1="0" x2="0" y2="256"/>
    <line x1="128" y1="0" x2="128" y2="256"/>
    <line x1="0" y1="128" x2="256" y2="128"/>
  </g>
  <g transform="scale(1, -1) translate(0, -900)">
    <style type="text/css">
        .stroke1 {fill: #BF0909;}
        .stroke2 {fill: #BFBF09;}
        .stroke3 {fill: #09BF09;}
        .stroke4 {fill: #09BFBF;}
        .stroke5 {fill: #0909BF;}
        .stroke6 {fill: #BF09BF;}
        .stroke7 {fill: #42005e;}
        .stroke8 {fill: #ff3333;}
        .stroke9 {fill: #BFBFBF;}
        .stroke10 {fill: #00a53f;}
        .stroke11 {fill: #fff000;}
        .stroke12 {fill: #6600a5;}
        .stroke13 {fill: #0053a5;}
        .stroke14 {fill: #62c22b;}
        .stroke15 {fill: #BF09BF;}
        .stroke16 {fill: #BF0909;}
        .stroke17 {fill: #BFBF09;}
        .stroke18 {fill: #09BF09;}
        .stroke19 {fill: #09BFBF;}
        .stroke20 {fill: #0909BF;}
        text {
            font-family: Helvetica;
            font-size: 50px;
            fill: #FFFFFF;
            paint-order: stroke;
            stroke: #000000;
            stroke-width: 4px;
            stroke-linecap: butt;
            stroke-linejoin: miter;
            font-weight: 800;
        }
    </style>

    <path d="M 367 791 Q 357 797 329 800 Q 319 803 315 798 Q 309 792 317 777 Q 342 729 359 650 Q 362 626 376 611 Q 394 590 398 605 Q 399 612 401 620 L 400 644 Q 396 666 393 689 L 389 711 Q 383 745 382 761 C 380 785 380 785 367 791 Z" class="stroke1"/>
    <path d="M 632 644 Q 632 643 633 642 Q 637 629 647 628 Q 668 631 696 695 Q 712 738 745 762 Q 763 775 749 789 Q 736 805 694 830 Q 682 839 614 826 Q 578 826 460 804 Q 406 797 367 791 C 337 787 353 755 382 761 Q 386 761 391 762 Q 464 783 626 798 Q 654 799 665 794 Q 672 790 666 768 Q 645 687 636 671 Q 635 671 635 670 C 627 652 627 652 632 644 Z" class="stroke2"/>
    <path d="M 393 689 Q 400 688 412 689 Q 515 704 592 712 Q 611 715 604 726 Q 597 738 575 743 Q 556 747 389 711 C 360 705 363 691 393 689 Z" class="stroke3"/>
    <path d="M 401 620 Q 411 619 426 620 Q 544 636 632 644 C 662 647 662 657 635 670 Q 628 674 620 676 Q 604 679 400 644 C 370 639 371 622 401 620 Z" class="stroke4"/>
    <path d="M 515 550 Q 665 572 673 579 Q 680 585 678 591 Q 674 601 651 607 Q 630 613 524 586 Q 428 570 352 567 Q 324 564 343 551 Q 370 533 434 540 Q 452 543 472 544 L 515 550 Z" class="stroke5"/>
    <path d="M 240 449 Q 228 471 218 479 Q 199 494 197 468 Q 201 443 187 418 Q 174 400 153 382 Q 144 370 148 351 Q 152 323 161 306 Q 180 284 194 308 Q 197 314 240 420 C 247 437 247 437 240 449 Z" class="stroke6"/>
    <path d="M 532 457 Q 730 484 762 477 Q 775 470 772 461 Q 772 455 742 394 Q 732 381 739 376 Q 748 372 765 383 Q 819 414 863 423 Q 899 430 898 440 Q 897 450 829 504 Q 805 525 720 509 Q 576 494 534 485 L 486 479 Q 428 473 359 463 Q 299 453 240 449 C 210 447 211 428 240 420 Q 264 408 300 416 Q 412 446 487 451 L 532 457 Z" class="stroke7"/>
    <path d="M 487 451 Q 488 433 479 348 Q 473 318 497 290 Q 504 280 514 290 Q 533 318 531 354 Q 530 379 532 452 Q 532 455 532 457 L 534 485 Q 535 500 538 513 Q 544 534 526 543 Q 520 547 515 550 C 490 566 463 573 472 544 Q 472 543 473 540 Q 480 522 486 479 L 487 451 Z" class="stroke8"/>
    <path d="M 324 381 Q 388 344 407 349 Q 417 352 417 367 Q 416 377 402 389 Q 389 399 368 401 Q 334 405 320 402 Q 313 401 315 392 Q 316 386 324 381 Z" class="stroke9"/>
    <path d="M 307 316 Q 373 274 389 277 Q 401 278 401 296 Q 400 306 388 320 Q 361 344 305 338 Q 298 337 299 328 Q 300 321 307 316 Z" class="stroke10"/>
    <path d="M 603 418 Q 661 385 679 389 Q 689 392 689 406 Q 688 416 675 427 Q 654 445 600 438 Q 593 437 595 429 Q 596 423 603 418 Z" class="stroke11"/>
    <path d="M 591 344 Q 657 302 673 305 Q 685 306 685 324 Q 684 334 672 348 Q 645 372 589 366 Q 582 365 583 356 Q 584 349 591 344 Z" class="stroke12"/>
    <path d="M 355 253 Q 321 250 344 233 Q 377 206 432 217 Q 514 227 600 239 Q 639 246 645 250 Q 654 257 650 265 Q 644 277 618 285 Q 591 292 563 283 Q 518 271 470 263 Q 416 254 355 253 Z" class="stroke13"/>
    <path d="M 453 145 Q 452 146 454 146 Q 547 159 787 159 Q 806 159 810 167 Q 816 177 800 191 Q 752 227 717 220 Q 564 189 204 149 Q 185 148 198 131 Q 211 118 228 113 Q 247 107 263 112 Q 333 130 410 140 L 453 145 Z" class="stroke14"/>
    <path d="M 637 54 Q 516 38 390 18 Q 380 17 378 19 Q 377 20 382 25 Q 452 86 478 100 Q 494 112 487 122 Q 480 134 453 145 C 426 158 412 165 410 140 Q 409 137 409 131 Q 412 67 306 19 Q 273 19 265 -1 Q 261 -19 269 -42 Q 278 -64 290 -70 Q 297 -74 309 -69 Q 408 -14 652 35 C 681 41 667 58 637 54 Z" class="stroke15"/>
    <path d="M 652 35 Q 679 4 707 -33 Q 716 -46 729 -48 Q 739 -49 745 -39 Q 752 -27 749 0 Q 746 54 619 122 Q 606 128 600 127 Q 596 124 594 113 Q 594 110 637 54 L 652 35 Z" class="stroke16"/>
    <text x="323" y="791" style="transform-origin:323px 791px; transform:scale(1,-1);">1</text>
    <text x="374" y="788" style="transform-origin:374px 788px; transform:scale(1,-1);">2</text>
    <text x="398" y="696" style="transform-origin:398px 696px; transform:scale(1,-1);">3</text>
    <text x="407" y="626" style="transform-origin:407px 626px; transform:scale(1,-1);">4</text>
    <text x="345" y="560" style="transform-origin:345px 560px; transform:scale(1,-1);">5</text>
    <text x="208" y="473" style="transform-origin:208px 473px; transform:scale(1,-1);">6</text>
    <text x="248" y="442" style="transform-origin:248px 442px; transform:scale(1,-1);">7</text>
    <text x="479" y="544" style="transform-origin:479px 544px; transform:scale(1,-1);">8</text>
    <text x="325" y="393" style="transform-origin:325px 393px; transform:scale(1,-1);">9</text>
    <text x="311" y="327" style="transform-origin:311px 327px; transform:scale(1,-1);">10</text>
    <text x="606" y="429" style="transform-origin:606px 429px; transform:scale(1,-1);">11</text>
    <text x="595" y="355" style="transform-origin:595px 355px; transform:scale(1,-1);">12</text>
    <text x="347" y="244" style="transform-origin:347px 244px; transform:scale(1,-1);">13</text>
    <text x="202" y="140" style="transform-origin:202px 140px; transform:scale(1,-1);">14</text>
    <text x="473" y="115" style="transform-origin:473px 115px; transform:scale(1,-1);">15</text>
    <text x="603" y="117" style="transform-origin:603px 117px; transform:scale(1,-1);">16</text></g>
</svg>