<svg version="1.1" viewBox="0 0 1024 1024" xmlns="http://www.w3.org/2000/svg">
  <g stroke="lightgray" stroke-dasharray="1,1" stroke-width="1" transform="scale(4, 4)">
    <line x1="0" y1="0" x2="256" y2="256"/>
    <line x1="256" y1="0" x2="0" y2="256"/>
    <line x1="128" y1="0" x2="128" y2="256"/>
    <line x1="0" y1="128" x2="256" y2="128"/>
  </g>
  <g transform="scale(1, -1) translate(0, -900)">
    <style type="text/css">
        .stroke1 {fill: #BF0909;}
        .stroke2 {fill: #BFBF09;}
        .stroke3 {fill: #09BF09;}
        .stroke4 {fill: #09BFBF;}
        .stroke5 {fill: #0909BF;}
        .stroke6 {fill: #BF09BF;}
        .stroke7 {fill: #42005e;}
        .stroke8 {fill: #ff3333;}
        .stroke9 {fill: #BFBFBF;}
        .stroke10 {fill: #00a53f;}
        .stroke11 {fill: #fff000;}
        .stroke12 {fill: #6600a5;}
        .stroke13 {fill: #0053a5;}
        .stroke14 {fill: #62c22b;}
        .stroke15 {fill: #BF09BF;}
        .stroke16 {fill: #BF0909;}
        .stroke17 {fill: #BFBF09;}
        .stroke18 {fill: #09BF09;}
        .stroke19 {fill: #09BFBF;}
        .stroke20 {fill: #0909BF;}
        text {
            font-family: Helvetica;
            font-size: 50px;
            fill: #FFFFFF;
            paint-order: stroke;
            stroke: #000000;
            stroke-width: 4px;
            stroke-linecap: butt;
            stroke-linejoin: miter;
            font-weight: 800;
        }
    </style>

    <path d="M 166 710 Q 165 711 164 712 Q 155 719 141 724 Q 131 728 120 725 Q 113 721 119 708 Q 138 627 140 619 Q 139 618 140 613 Q 150 409 120 280 Q 108 225 142 181 Q 152 168 163 181 Q 175 196 175 221 L 178 254 Q 179 275 179 302 Q 180 389 181 455 L 182 487 Q 185 649 188 663 Q 189 679 187 687 C 186 697 186 697 166 710 Z" class="stroke1"/>
    <path d="M 269 232 Q 279 216 291 199 Q 306 177 313 180 Q 325 183 339 217 Q 352 254 348 303 Q 341 400 333 613 Q 332 668 347 696 Q 357 712 348 723 Q 341 733 295 746 Q 273 753 256 744 Q 208 722 166 710 C 137 701 158 679 187 687 Q 188 688 193 689 Q 268 710 276 703 Q 291 690 291 633 Q 297 404 287 278 Q 290 262 279 259 C 267 235 267 235 269 232 Z" class="stroke2"/>
    <path d="M 181 455 Q 224 465 258 470 Q 277 474 269 485 Q 259 498 236 500 Q 215 501 182 487 C 154 475 152 448 181 455 Z" class="stroke3"/>
    <path d="M 175 221 Q 174 222 177 222 Q 207 229 269 232 C 299 233 301 239 279 259 Q 275 263 270 266 Q 255 273 178 254 C 149 247 147 210 175 221 Z" class="stroke4"/>
    <path d="M 448 762 Q 436 771 402 776 Q 392 779 388 774 Q 384 768 391 754 Q 416 708 432 629 Q 435 605 449 590 Q 465 571 470 585 Q 471 594 473 606 L 471 625 Q 471 631 470 636 Q 458 700 454 729 C 450 759 449 761 448 762 Z" class="stroke5"/>
    <path d="M 746 637 Q 747 634 748 631 Q 752 616 763 617 Q 776 618 783 631 Q 790 635 808 669 Q 824 715 858 741 Q 876 756 862 770 Q 846 786 801 812 Q 786 821 733 808 Q 676 804 541 778 Q 486 768 448 762 C 418 757 425 723 454 729 Q 458 729 462 730 Q 490 739 534 747 L 555 751 Q 592 758 643 765 L 678 770 Q 753 785 772 772 Q 778 768 774 749 Q 758 679 751 663 C 744 642 744 642 746 637 Z" class="stroke6"/>
    <path d="M 577 642 Q 568 690 560 740 Q 559 747 555 751 C 537 775 529 777 534 747 Q 537 732 538 705 Q 541 651 554 638 C 573 615 583 613 577 642 Z" class="stroke7"/>
    <path d="M 664 656 Q 680 689 689 710 Q 693 720 701 734 Q 711 744 703 752 Q 696 762 678 770 C 651 783 625 789 643 765 Q 658 750 642 665 Q 641 658 640 652 C 635 622 651 629 664 656 Z" class="stroke8"/>
    <path d="M 595 617 Q 676 630 746 637 C 776 640 779 653 751 663 Q 748 664 743 666 Q 715 672 664 656 L 640 652 Q 607 648 577 642 L 554 638 Q 511 634 471 625 C 442 619 444 612 473 606 Q 486 602 508 604 Q 538 610 568 613 L 595 617 Z" class="stroke9"/>
    <path d="M 624 507 Q 699 523 702 525 Q 709 532 706 538 Q 700 548 677 555 Q 653 559 629 551 L 578 537 Q 566 536 557 533 Q 517 524 468 522 Q 438 518 459 503 Q 489 485 550 496 Q 562 499 578 499 L 624 507 Z" class="stroke10"/>
    <path d="M 616 424 Q 620 470 624 507 L 629 551 Q 635 581 630 588 Q 611 607 595 617 C 570 634 568 635 568 613 Q 567 610 568 606 Q 577 585 578 537 L 578 499 Q 578 468 578 418 C 578 388 613 394 616 424 Z" class="stroke11"/>
    <path d="M 670 399 Q 755 409 878 412 Q 936 412 943 421 Q 947 431 933 443 Q 881 482 828 463 Q 777 454 710 439 L 639 427 Q 638 428 636 427 Q 626 426 616 424 L 578 418 Q 479 405 371 388 Q 352 387 366 371 Q 379 359 395 354 Q 414 350 428 354 Q 510 379 606 390 L 670 399 Z" class="stroke12"/>
    <path d="M 570 303 Q 627 358 670 399 L 710 439 Q 791 524 813 534 Q 826 538 827 548 Q 826 555 815 561 Q 787 579 763 584 Q 748 587 741 572 Q 725 514 639 427 L 606 390 Q 566 350 516 302 L 490 278 Q 474 265 458 248 Q 376 173 254 92 Q 248 88 250 85 Q 251 82 257 83 Q 321 102 354 125 Q 424 173 496 234 L 570 303 Z" class="stroke13"/>
    <path d="M 516 302 Q 506 309 493 313 Q 486 314 481 307 Q 478 303 484 294 Q 488 287 490 278 L 496 234 Q 499 135 488 96 Q 476 56 503 23 Q 513 13 520 23 Q 530 33 533 55 L 538 88 Q 539 101 540 164 L 540 189 Q 540 247 543 267 L 516 302 Z" class="stroke14"/>
    <path d="M 685 61 Q 715 25 735 -9 Q 742 -25 753 -24 Q 768 -23 781 7 Q 797 41 794 83 Q 788 138 781 242 Q 780 270 794 289 Q 801 301 793 309 Q 777 327 730 347 Q 714 354 700 346 Q 663 327 603 311 Q 584 307 570 303 C 511 288 514 260 543 267 Q 544 267 689 301 Q 708 305 719 299 Q 744 269 729 87 L 729 85 Q 725 67 709 76 Q 705 79 697 82 C 670 95 666 84 685 61 Z" class="stroke15"/>
    <path d="M 548 164 Q 618 174 671 181 Q 693 185 685 197 Q 675 210 651 215 Q 627 218 540 189 C 512 180 510 164 540 164 Q 543 164 548 164 Z" class="stroke16"/>
    <path d="M 533 55 Q 545 52 559 54 Q 599 61 685 61 C 715 61 716 61 697 82 Q 690 91 674 101 Q 658 110 627 103 Q 578 93 538 88 C 508 84 504 61 533 55 Z" class="stroke17"/>
    <text x="126" y="717" style="transform-origin:126px 717px; transform:scale(1,-1);">1</text>
    <text x="174" y="706" style="transform-origin:174px 706px; transform:scale(1,-1);">2</text>
    <text x="189" y="460" style="transform-origin:189px 460px; transform:scale(1,-1);">3</text>
    <text x="182" y="228" style="transform-origin:182px 228px; transform:scale(1,-1);">4</text>
    <text x="396" y="769" style="transform-origin:396px 769px; transform:scale(1,-1);">5</text>
    <text x="457" y="735" style="transform-origin:457px 735px; transform:scale(1,-1);">6</text>
    <text x="540" y="742" style="transform-origin:540px 742px; transform:scale(1,-1);">7</text>
    <text x="649" y="765" style="transform-origin:649px 765px; transform:scale(1,-1);">8</text>
    <text x="479" y="611" style="transform-origin:479px 611px; transform:scale(1,-1);">9</text>
    <text x="461" y="514" style="transform-origin:461px 514px; transform:scale(1,-1);">10</text>
    <text x="575" y="610" style="transform-origin:575px 610px; transform:scale(1,-1);">11</text>
    <text x="368" y="380" style="transform-origin:368px 380px; transform:scale(1,-1);">12</text>
    <text x="817" y="547" style="transform-origin:817px 547px; transform:scale(1,-1);">13</text>
    <text x="491" y="302" style="transform-origin:491px 302px; transform:scale(1,-1);">14</text>
    <text x="543" y="272" style="transform-origin:543px 272px; transform:scale(1,-1);">15</text>
    <text x="544" y="170" style="transform-origin:544px 170px; transform:scale(1,-1);">16</text>
    <text x="540" y="60" style="transform-origin:540px 60px; transform:scale(1,-1);">17</text></g>
</svg>