<svg version="1.1" viewBox="0 0 1024 1024" xmlns="http://www.w3.org/2000/svg">
  <g stroke="lightgray" stroke-dasharray="1,1" stroke-width="1" transform="scale(4, 4)">
    <line x1="0" y1="0" x2="256" y2="256"/>
    <line x1="256" y1="0" x2="0" y2="256"/>
    <line x1="128" y1="0" x2="128" y2="256"/>
    <line x1="0" y1="128" x2="256" y2="128"/>
  </g>
  <g transform="scale(1, -1) translate(0, -900)">
    <style type="text/css">
        .stroke1 {fill: #BF0909;}
        .stroke2 {fill: #BFBF09;}
        .stroke3 {fill: #09BF09;}
        .stroke4 {fill: #09BFBF;}
        .stroke5 {fill: #0909BF;}
        .stroke6 {fill: #BF09BF;}
        .stroke7 {fill: #42005e;}
        .stroke8 {fill: #ff3333;}
        .stroke9 {fill: #BFBFBF;}
        .stroke10 {fill: #00a53f;}
        .stroke11 {fill: #fff000;}
        .stroke12 {fill: #6600a5;}
        .stroke13 {fill: #0053a5;}
        .stroke14 {fill: #62c22b;}
        .stroke15 {fill: #BF09BF;}
        .stroke16 {fill: #BF0909;}
        .stroke17 {fill: #BFBF09;}
        .stroke18 {fill: #09BF09;}
        .stroke19 {fill: #09BFBF;}
        .stroke20 {fill: #0909BF;}
        text {
            font-family: Helvetica;
            font-size: 50px;
            fill: #FFFFFF;
            paint-order: stroke;
            stroke: #000000;
            stroke-width: 4px;
            stroke-linecap: butt;
            stroke-linejoin: miter;
            font-weight: 800;
        }
    </style>

    <path d="M 342 523 Q 450 557 453 559 Q 462 568 456 576 Q 449 588 418 593 Q 385 597 343 577 L 303 562 Q 200 531 131 519 Q 94 510 122 495 Q 165 471 223 490 Q 251 499 282 506 L 342 523 Z" class="stroke1"/>
    <path d="M 339 394 Q 340 454 342 523 L 343 577 Q 343 581 344 583 Q 345 683 365 750 Q 374 765 371 778 Q 364 788 310 821 Q 288 837 267 823 Q 263 819 269 803 Q 302 752 302 702 Q 302 636 303 562 L 299 423 Q 295 335 294 238 Q 288 159 267 85 Q 255 49 280 -14 Q 287 -32 294 -35 Q 301 -42 308 -33 Q 315 -29 326 -9 Q 336 16 335 46 Q 334 86 338 364 L 339 394 Z" class="stroke2"/>
    <path d="M 282 506 Q 254 427 214 353 Q 168 271 58 121 Q 52 111 64 110 Q 88 110 204 258 Q 255 325 299 423 C 350 536 292 534 282 506 Z" class="stroke3"/>
    <path d="M 338 364 Q 348 358 406 297 Q 416 287 429 287 Q 436 287 441 297 Q 445 307 440 331 Q 433 365 345 393 Q 342 394 339 394 C 309 398 314 382 338 364 Z" class="stroke4"/>
    <path d="M 682 232 Q 727 301 779 473 Q 791 506 811 526 Q 830 545 815 558 Q 800 571 766 581 Q 747 587 664 553 Q 553 526 495 520 Q 480 519 475 511 Q 471 504 491 495 Q 531 480 584 496 Q 675 526 692 525 Q 720 524 716 493 Q 694 376 644 275 L 618 234 Q 542 131 391 77 Q 378 70 390 63 Q 397 56 447 60 Q 553 72 651 188 L 682 232 Z" class="stroke5"/>
    <path d="M 651 188 Q 702 118 749 59 Q 765 35 797 35 Q 908 31 951 33 Q 970 34 978 42 Q 982 49 970 54 Q 805 118 763 155 Q 723 194 682 232 L 644 275 Q 592 335 534 414 Q 522 435 502 438 Q 474 439 466 432 Q 462 426 471 420 Q 511 395 535 355 Q 578 291 618 234 L 651 188 Z" class="stroke6"/>
    <text x="123" y="508" style="transform-origin:123px 508px; transform:scale(1,-1);">1</text>
    <text x="278" y="817" style="transform-origin:278px 817px; transform:scale(1,-1);">2</text>
    <text x="298" y="504" style="transform-origin:298px 504px; transform:scale(1,-1);">3</text>
    <text x="341" y="386" style="transform-origin:341px 386px; transform:scale(1,-1);">4</text>
    <text x="483" y="509" style="transform-origin:483px 509px; transform:scale(1,-1);">5</text>
    <text x="473" y="428" style="transform-origin:473px 428px; transform:scale(1,-1);">6</text></g>
</svg>