<svg version="1.1" viewBox="0 0 1024 1024" xmlns="http://www.w3.org/2000/svg">
  <g stroke="lightgray" stroke-dasharray="1,1" stroke-width="1" transform="scale(4, 4)">
    <line x1="0" y1="0" x2="256" y2="256"/>
    <line x1="256" y1="0" x2="0" y2="256"/>
    <line x1="128" y1="0" x2="128" y2="256"/>
    <line x1="0" y1="128" x2="256" y2="128"/>
  </g>
  <g transform="scale(1, -1) translate(0, -900)">
    <style type="text/css">
        .stroke1 {fill: #BF0909;}
        .stroke2 {fill: #BFBF09;}
        .stroke3 {fill: #09BF09;}
        .stroke4 {fill: #09BFBF;}
        .stroke5 {fill: #0909BF;}
        .stroke6 {fill: #BF09BF;}
        .stroke7 {fill: #42005e;}
        .stroke8 {fill: #ff3333;}
        .stroke9 {fill: #BFBFBF;}
        .stroke10 {fill: #00a53f;}
        .stroke11 {fill: #fff000;}
        .stroke12 {fill: #6600a5;}
        .stroke13 {fill: #0053a5;}
        .stroke14 {fill: #62c22b;}
        .stroke15 {fill: #BF09BF;}
        .stroke16 {fill: #BF0909;}
        .stroke17 {fill: #BFBF09;}
        .stroke18 {fill: #09BF09;}
        .stroke19 {fill: #09BFBF;}
        .stroke20 {fill: #0909BF;}
        text {
            font-family: Helvetica;
            font-size: 50px;
            fill: #FFFFFF;
            paint-order: stroke;
            stroke: #000000;
            stroke-width: 4px;
            stroke-linecap: butt;
            stroke-linejoin: miter;
            font-weight: 800;
        }
    </style>

    <path d="M 313 523 Q 332 529 356 533 Q 390 542 396 547 Q 405 556 400 564 Q 391 576 362 582 Q 337 586 315 579 L 270 563 Q 192 542 117 530 Q 80 523 107 506 Q 152 488 216 502 Q 234 508 255 509 L 313 523 Z" class="stroke1"/>
    <path d="M 310 450 Q 311 486 313 523 L 315 579 Q 318 676 337 739 Q 347 755 344 768 Q 337 778 282 813 Q 258 831 237 816 Q 233 810 238 795 Q 269 746 270 697 Q 270 634 270 563 L 263 407 Q 250 184 249 178 Q 242 141 231 101 Q 219 59 244 -1 Q 250 -19 258 -23 Q 264 -30 272 -21 Q 299 -3 301 60 Q 300 102 309 421 L 310 450 Z" class="stroke2"/>
    <path d="M 255 509 Q 206 377 58 182 Q 52 172 64 171 Q 70 170 80 179 Q 194 276 263 407 C 333 537 266 537 255 509 Z" class="stroke3"/>
    <path d="M 309 421 Q 313 417 319 412 Q 344 388 370 361 Q 380 351 393 351 Q 400 351 405 361 Q 409 371 404 395 Q 397 425 317 449 Q 314 450 310 450 C 280 452 287 442 309 421 Z" class="stroke4"/>
    <path d="M 568 792 Q 593 774 620 751 Q 633 741 648 743 Q 658 744 661 756 Q 664 769 654 796 Q 642 823 560 836 Q 545 837 540 835 Q 536 831 538 819 Q 542 809 568 792 Z" class="stroke5"/>
    <path d="M 416 693 Q 388 689 410 672 Q 440 645 471 652 Q 634 688 821 710 Q 831 709 841 722 Q 842 734 819 744 Q 789 765 721 745 Q 565 712 416 693 Z" class="stroke6"/>
    <path d="M 462 603 Q 452 607 426 613 Q 414 616 411 611 Q 405 605 413 590 Q 441 526 457 423 Q 460 392 477 371 Q 493 350 498 365 Q 499 372 501 380 L 502 403 Q 501 416 499 433 Q 480 542 477 575 C 475 599 475 599 462 603 Z" class="stroke7"/>
    <path d="M 729 405 Q 730 404 731 402 Q 735 387 747 389 Q 760 390 766 405 Q 779 424 798 518 Q 811 564 843 593 Q 859 608 845 622 Q 829 637 782 659 Q 770 665 710 651 Q 683 651 462 603 C 433 597 447 570 477 575 Q 483 575 488 576 Q 557 598 714 621 Q 742 625 753 619 Q 763 613 759 580 Q 740 457 731 433 Q 730 433 730 432 C 724 413 724 413 729 405 Z" class="stroke8"/>
    <path d="M 554 546 Q 547 550 523 555 Q 514 558 512 554 Q 508 550 513 539 Q 528 511 538 466 Q 541 453 549 444 Q 561 429 564 440 Q 565 444 567 451 L 565 474 Q 561 513 560 527 C 559 544 559 544 554 546 Z" class="stroke9"/>
    <path d="M 680 489 Q 693 520 705 529 Q 721 548 705 558 Q 692 567 672 580 Q 659 587 644 580 Q 628 568 605 561 Q 583 554 554 546 C 525 538 530 525 560 527 Q 567 527 579 530 Q 645 548 651 540 Q 654 537 649 521 Q 646 511 642 497 C 634 468 668 461 680 489 Z" class="stroke10"/>
    <path d="M 567 451 Q 577 451 587 452 Q 618 461 684 469 Q 691 470 693 477 Q 693 481 680 489 L 642 497 Q 638 497 635 495 Q 596 482 565 474 C 536 466 537 451 567 451 Z" class="stroke11"/>
    <path d="M 501 380 Q 511 379 525 380 Q 642 396 729 405 C 759 408 759 423 730 432 Q 726 433 721 435 Q 706 438 502 403 C 472 398 471 382 501 380 Z" class="stroke12"/>
    <path d="M 497 327 Q 466 323 487 308 Q 523 290 587 299 Q 642 308 703 318 Q 733 324 738 328 Q 745 335 742 342 Q 736 352 712 359 Q 691 365 607 342 Q 505 329 497 327 Z" class="stroke13"/>
    <path d="M 630 221 Q 708 231 872 231 Q 891 231 895 239 Q 899 249 885 263 Q 836 299 801 291 Q 702 269 383 225 Q 364 222 378 207 Q 391 194 408 189 Q 427 185 443 189 Q 512 208 593 217 L 630 221 Z" class="stroke14"/>
    <path d="M 593 217 Q 614 151 599 54 Q 598 53 598 50 Q 594 40 575 45 Q 550 52 524 61 Q 514 62 511 57 Q 508 51 518 42 Q 573 -13 591 -44 Q 604 -57 614 -56 Q 624 -53 637 -22 Q 655 9 655 67 Q 654 128 655 149 Q 662 188 646 207 Q 637 216 630 221 C 607 240 585 246 593 217 Z" class="stroke15"/>
    <path d="M 461 156 Q 436 119 404 86 Q 382 61 392 29 Q 396 13 416 20 Q 461 41 475 102 Q 484 130 482 152 Q 479 159 474 162 Q 467 162 461 156 Z" class="stroke16"/>
    <path d="M 734 139 Q 773 96 819 33 Q 832 14 845 8 Q 852 7 861 14 Q 874 24 866 66 Q 859 111 737 167 Q 730 171 726 161 Q 725 149 734 139 Z" class="stroke17"/>
    <text x="109" y="519" style="transform-origin:109px 519px; transform:scale(1,-1);">1</text>
    <text x="249" y="809" style="transform-origin:249px 809px; transform:scale(1,-1);">2</text>
    <text x="263" y="505" style="transform-origin:263px 505px; transform:scale(1,-1);">3</text>
    <text x="313" y="443" style="transform-origin:313px 443px; transform:scale(1,-1);">4</text>
    <text x="545" y="829" style="transform-origin:545px 829px; transform:scale(1,-1);">5</text>
    <text x="411" y="683" style="transform-origin:411px 683px; transform:scale(1,-1);">6</text>
    <text x="420" y="604" style="transform-origin:420px 604px; transform:scale(1,-1);">7</text>
    <text x="476" y="602" style="transform-origin:476px 602px; transform:scale(1,-1);">8</text>
    <text x="518" y="547" style="transform-origin:518px 547px; transform:scale(1,-1);">9</text>
    <text x="564" y="533" style="transform-origin:564px 533px; transform:scale(1,-1);">10</text>
    <text x="572" y="457" style="transform-origin:572px 457px; transform:scale(1,-1);">11</text>
    <text x="507" y="386" style="transform-origin:507px 386px; transform:scale(1,-1);">12</text>
    <text x="490" y="319" style="transform-origin:490px 319px; transform:scale(1,-1);">13</text>
    <text x="381" y="216" style="transform-origin:381px 216px; transform:scale(1,-1);">14</text>
    <text x="600" y="212" style="transform-origin:600px 212px; transform:scale(1,-1);">15</text>
    <text x="471" y="151" style="transform-origin:471px 151px; transform:scale(1,-1);">16</text>
    <text x="736" y="156" style="transform-origin:736px 156px; transform:scale(1,-1);">17</text></g>
</svg>