<svg version="1.1" viewBox="0 0 1024 1024" xmlns="http://www.w3.org/2000/svg">
  <g stroke="lightgray" stroke-dasharray="1,1" stroke-width="1" transform="scale(4, 4)">
    <line x1="0" y1="0" x2="256" y2="256"/>
    <line x1="256" y1="0" x2="0" y2="256"/>
    <line x1="128" y1="0" x2="128" y2="256"/>
    <line x1="0" y1="128" x2="256" y2="128"/>
  </g>
  <g transform="scale(1, -1) translate(0, -900)">
    <style type="text/css">
        .stroke1 {fill: #BF0909;}
        .stroke2 {fill: #BFBF09;}
        .stroke3 {fill: #09BF09;}
        .stroke4 {fill: #09BFBF;}
        .stroke5 {fill: #0909BF;}
        .stroke6 {fill: #BF09BF;}
        .stroke7 {fill: #42005e;}
        .stroke8 {fill: #ff3333;}
        .stroke9 {fill: #BFBFBF;}
        .stroke10 {fill: #00a53f;}
        .stroke11 {fill: #fff000;}
        .stroke12 {fill: #6600a5;}
        .stroke13 {fill: #0053a5;}
        .stroke14 {fill: #62c22b;}
        .stroke15 {fill: #BF09BF;}
        .stroke16 {fill: #BF0909;}
        .stroke17 {fill: #BFBF09;}
        .stroke18 {fill: #09BF09;}
        .stroke19 {fill: #09BFBF;}
        .stroke20 {fill: #0909BF;}
        text {
            font-family: Helvetica;
            font-size: 50px;
            fill: #FFFFFF;
            paint-order: stroke;
            stroke: #000000;
            stroke-width: 4px;
            stroke-linecap: butt;
            stroke-linejoin: miter;
            font-weight: 800;
        }
    </style>

    <path d="M 287 520 Q 306 527 326 532 Q 360 544 365 549 Q 372 556 368 565 Q 361 575 331 580 Q 309 584 288 575 L 250 559 Q 163 528 90 513 Q 56 504 82 490 Q 116 475 186 491 Q 204 497 227 503 L 287 520 Z" class="stroke1"/>
    <path d="M 285 445 Q 286 482 287 520 L 288 575 Q 288 695 309 770 Q 324 795 294 815 Q 279 827 254 841 Q 232 857 211 843 Q 207 837 213 823 Q 247 771 248 719 Q 248 644 250 559 L 245 423 Q 238 194 233 167 Q 226 125 214 85 Q 204 48 228 -14 Q 235 -32 243 -35 Q 249 -42 256 -33 Q 263 -29 274 -9 Q 283 16 282 46 Q 281 89 285 411 L 285 445 Z" class="stroke2"/>
    <path d="M 227 503 Q 182 371 38 173 Q 32 163 44 162 Q 65 162 164 286 Q 207 341 245 423 C 296 532 237 532 227 503 Z" class="stroke3"/>
    <path d="M 285 411 Q 286 410 290 407 Q 314 385 338 358 Q 348 348 360 347 Q 369 347 373 357 Q 377 367 372 391 Q 369 409 343 423 Q 318 435 289 445 Q 286 446 285 445 C 255 446 262 430 285 411 Z" class="stroke4"/>
    <path d="M 591 820 Q 618 802 646 781 Q 661 771 676 773 Q 686 774 689 788 Q 692 803 679 830 Q 672 846 642 856 Q 567 871 560 863 Q 556 859 558 847 Q 564 837 591 820 Z" class="stroke5"/>
    <path d="M 459 699 Q 446 721 431 730 Q 427 734 422 731 Q 418 727 417 716 Q 421 695 400 640 Q 390 624 392 606 Q 396 587 405 573 Q 412 563 418 571 Q 427 574 442 614 Q 452 641 464 670 C 469 683 469 683 459 699 Z" class="stroke6"/>
    <path d="M 464 670 Q 479 664 518 671 Q 639 713 777 725 Q 795 728 802 726 Q 815 720 812 712 Q 813 705 808 698 Q 780 635 783 632 Q 790 629 807 639 Q 856 670 897 679 Q 931 686 930 696 Q 929 705 863 753 Q 839 772 763 754 Q 718 748 538 713 Q 498 704 459 699 C 429 695 434 675 464 670 Z" class="stroke7"/>
    <path d="M 610 593 Q 712 627 713 628 Q 720 635 716 642 Q 709 652 683 655 Q 656 658 632 645 Q 607 635 579 625 Q 548 615 512 609 Q 481 600 505 588 Q 539 575 582 585 L 610 593 Z" class="stroke8"/>
    <path d="M 633 492 Q 633 513 638 557 Q 644 573 628 583 Q 618 589 610 593 C 583 607 578 609 582 585 Q 582 584 583 579 Q 595 558 591 481 Q 590 474 598 455 C 609 427 633 462 633 492 Z" class="stroke9"/>
    <path d="M 471 553 Q 452 517 428 486 Q 410 461 423 431 Q 429 416 447 426 Q 484 450 490 504 Q 494 531 491 552 Q 487 559 482 560 Q 475 560 471 553 Z" class="stroke10"/>
    <path d="M 638 438 Q 749 538 770 547 Q 783 551 784 559 Q 783 566 774 572 Q 749 591 725 597 Q 712 601 704 587 Q 695 560 633 492 L 598 455 Q 580 440 561 422 L 515 382 Q 496 369 478 351 Q 414 297 319 239 Q 312 236 314 233 Q 314 230 321 231 Q 394 246 518 339 L 560 373 Q 561 376 565 377 Q 575 387 587 396 L 638 438 Z" class="stroke11"/>
    <path d="M 518 339 Q 521 249 506 200 Q 494 161 520 130 Q 529 120 536 131 Q 540 135 543 142 L 552 175 Q 555 194 556 227 L 556 255 Q 556 265 557 311 L 558 339 Q 558 360 560 373 C 564 403 517 369 518 339 Z" class="stroke12"/>
    <path d="M 749 163 Q 750 156 757 147 Q 770 122 778 122 Q 791 123 805 154 Q 814 172 815 204 Q 796 363 822 403 Q 832 418 824 427 Q 799 449 753 468 Q 738 472 717 465 Q 683 449 638 438 L 561 422 Q 551 422 542 419 Q 529 429 514 433 Q 507 434 502 428 Q 501 424 506 416 Q 515 389 515 382 C 516 377 558 388 587 396 Q 657 415 710 424 Q 729 428 737 418 Q 749 405 750 355 Q 756 231 751 195 L 749 163 Z" class="stroke13"/>
    <path d="M 557 311 Q 558 311 563 311 Q 644 324 702 332 Q 726 336 717 348 Q 707 363 681 367 Q 648 371 558 339 C 530 329 527 311 557 311 Z" class="stroke14"/>
    <path d="M 556 227 Q 560 227 565 227 Q 649 240 710 248 Q 734 252 725 264 Q 715 279 689 284 Q 656 288 556 255 C 527 246 526 227 556 227 Z" class="stroke15"/>
    <path d="M 543 142 Q 550 142 560 143 Q 620 156 749 163 C 779 165 775 177 751 195 Q 747 198 744 200 Q 729 209 700 202 Q 618 183 552 175 C 522 171 513 141 543 142 Z" class="stroke16"/>
    <path d="M 557 103 Q 539 46 401 -53 Q 380 -65 406 -64 Q 457 -67 575 26 Q 576 32 621 65 Q 631 75 630 84 Q 629 97 605 106 Q 580 118 568 116 Q 561 115 557 103 Z" class="stroke17"/>
    <path d="M 704 81 Q 756 29 819 -44 Q 834 -65 849 -70 Q 856 -71 865 -61 Q 878 -49 867 -5 Q 855 46 706 112 Q 697 116 695 105 Q 694 92 704 81 Z" class="stroke18"/>
    <text x="83" y="502" style="transform-origin:83px 502px; transform:scale(1,-1);">1</text>
    <text x="222" y="837" style="transform-origin:222px 837px; transform:scale(1,-1);">2</text>
    <text x="244" y="502" style="transform-origin:244px 502px; transform:scale(1,-1);">3</text>
    <text x="287" y="439" style="transform-origin:287px 439px; transform:scale(1,-1);">4</text>
    <text x="565" y="857" style="transform-origin:565px 857px; transform:scale(1,-1);">5</text>
    <text x="426" y="722" style="transform-origin:426px 722px; transform:scale(1,-1);">6</text>
    <text x="466" y="693" style="transform-origin:466px 693px; transform:scale(1,-1);">7</text>
    <text x="506" y="599" style="transform-origin:506px 599px; transform:scale(1,-1);">8</text>
    <text x="590" y="583" style="transform-origin:590px 583px; transform:scale(1,-1);">9</text>
    <text x="481" y="550" style="transform-origin:481px 550px; transform:scale(1,-1);">10</text>
    <text x="775" y="559" style="transform-origin:775px 559px; transform:scale(1,-1);">11</text>
    <text x="554" y="358" style="transform-origin:554px 358px; transform:scale(1,-1);">12</text>
    <text x="511" y="424" style="transform-origin:511px 424px; transform:scale(1,-1);">13</text>
    <text x="560" y="318" style="transform-origin:560px 318px; transform:scale(1,-1);">14</text>
    <text x="561" y="234" style="transform-origin:561px 234px; transform:scale(1,-1);">15</text>
    <text x="547" y="147" style="transform-origin:547px 147px; transform:scale(1,-1);">16</text>
    <text x="614" y="82" style="transform-origin:614px 82px; transform:scale(1,-1);">17</text>
    <text x="706" y="100" style="transform-origin:706px 100px; transform:scale(1,-1);">18</text></g>
</svg>