<svg version="1.1" viewBox="0 0 1024 1024" xmlns="http://www.w3.org/2000/svg">
  <g stroke="lightgray" stroke-dasharray="1,1" stroke-width="1" transform="scale(4, 4)">
    <line x1="0" y1="0" x2="256" y2="256"/>
    <line x1="256" y1="0" x2="0" y2="256"/>
    <line x1="128" y1="0" x2="128" y2="256"/>
    <line x1="0" y1="128" x2="256" y2="128"/>
  </g>
  <g transform="scale(1, -1) translate(0, -900)">
    <style type="text/css">
        .stroke1 {fill: #BF0909;}
        .stroke2 {fill: #BFBF09;}
        .stroke3 {fill: #09BF09;}
        .stroke4 {fill: #09BFBF;}
        .stroke5 {fill: #0909BF;}
        .stroke6 {fill: #BF09BF;}
        .stroke7 {fill: #42005e;}
        .stroke8 {fill: #ff3333;}
        .stroke9 {fill: #BFBFBF;}
        .stroke10 {fill: #00a53f;}
        .stroke11 {fill: #fff000;}
        .stroke12 {fill: #6600a5;}
        .stroke13 {fill: #0053a5;}
        .stroke14 {fill: #62c22b;}
        .stroke15 {fill: #BF09BF;}
        .stroke16 {fill: #BF0909;}
        .stroke17 {fill: #BFBF09;}
        .stroke18 {fill: #09BF09;}
        .stroke19 {fill: #09BFBF;}
        .stroke20 {fill: #0909BF;}
        text {
            font-family: Helvetica;
            font-size: 50px;
            fill: #FFFFFF;
            paint-order: stroke;
            stroke: #000000;
            stroke-width: 4px;
            stroke-linecap: butt;
            stroke-linejoin: miter;
            font-weight: 800;
        }
    </style>

    <path d="M 279 518 Q 298 525 322 531 Q 353 541 357 546 Q 364 553 360 562 Q 353 572 325 576 Q 301 579 280 570 L 241 553 Q 154 525 105 515 Q 72 506 98 493 Q 134 475 204 498 Q 217 502 233 505 L 279 518 Z" class="stroke1"/>
    <path d="M 237 397 Q 228 175 226 156 Q 219 116 208 77 Q 198 41 221 -19 Q 228 -35 235 -39 Q 241 -45 248 -37 Q 255 -33 265 -13 Q 275 9 274 39 Q 273 82 277 414 L 277 439 Q 278 476 279 518 L 280 570 Q 280 571 281 571 Q 282 670 300 737 Q 309 750 306 764 Q 299 773 247 805 Q 225 821 206 807 Q 202 803 207 787 Q 240 738 240 688 Q 241 624 241 553 L 237 397 Z" class="stroke2"/>
    <path d="M 233 505 Q 194 373 54 159 Q 50 149 59 150 Q 65 149 72 157 Q 177 262 237 397 C 301 537 242 534 233 505 Z" class="stroke3"/>
    <path d="M 277 414 Q 320 363 337 362 Q 347 361 353 375 Q 354 385 347 401 Q 340 414 320 422 Q 290 437 278 439 L 277 439 C 253 443 258 437 277 414 Z" class="stroke4"/>
    <path d="M 603 781 Q 630 759 658 734 Q 671 721 686 723 Q 696 724 701 736 Q 705 751 695 779 Q 689 798 660 810 Q 591 834 576 827 Q 572 823 573 811 Q 577 801 603 781 Z" class="stroke5"/>
    <path d="M 478 605 Q 514 593 552 602 Q 792 650 822 661 Q 822 662 823 662 Q 830 669 827 677 Q 820 687 794 695 Q 770 701 653 664 Q 505 637 473 634 Q 470 634 468 632 C 439 625 449 613 478 605 Z" class="stroke6"/>
    <path d="M 468 632 Q 455 642 433 651 Q 417 660 405 655 Q 395 648 401 636 Q 419 609 419 547 Q 419 387 384 268 Q 357 180 289 64 Q 285 58 283 52 Q 282 42 291 45 Q 321 51 390 175 Q 397 193 407 212 Q 458 339 471 568 Q 474 601 478 605 C 483 623 483 623 468 632 Z" class="stroke7"/>
    <path d="M 602 470 Q 624 477 652 483 Q 676 489 680 492 Q 686 498 682 504 Q 678 511 657 516 Q 644 519 605 506 L 562 493 Q 561 493 559 492 Q 526 483 488 478 Q 463 474 482 462 Q 504 450 564 461 L 602 470 Z" class="stroke8"/>
    <path d="M 596 419 Q 599 446 602 470 L 605 506 Q 605 515 614 551 Q 617 558 603 568 Q 579 581 562 584 Q 552 585 546 580 Q 542 574 547 564 Q 557 549 562 493 L 564 461 Q 565 437 566 410 C 567 380 593 389 596 419 Z" class="stroke9"/>
    <path d="M 566 410 Q 523 401 485 394 Q 469 391 482 381 Q 501 371 536 375 Q 591 390 655 400 Q 662 400 667 408 Q 667 415 653 421 Q 631 428 596 419 L 566 410 Z" class="stroke10"/>
    <path d="M 505 338 Q 496 341 481 343 Q 472 346 470 342 Q 466 338 472 325 Q 490 292 503 236 Q 506 220 516 208 Q 529 192 533 204 Q 534 211 535 223 L 532 247 Q 522 304 522 319 C 521 333 521 333 505 338 Z" class="stroke11"/>
    <path d="M 638 259 Q 651 305 666 318 Q 684 337 666 348 Q 653 355 633 369 Q 621 376 574 355 Q 510 340 505 338 C 476 330 493 310 522 319 Q 528 322 588 333 Q 606 337 610 329 Q 611 328 600 265 C 595 235 630 230 638 259 Z" class="stroke12"/>
    <path d="M 535 223 Q 539 223 547 224 Q 577 231 644 238 Q 651 239 652 245 Q 652 249 638 259 L 600 265 Q 596 265 595 264 Q 561 254 532 247 C 503 240 505 222 535 223 Z" class="stroke13"/>
    <path d="M 466 166 Q 496 109 514 105 Q 523 102 530 114 Q 533 123 530 139 Q 518 166 473 185 Q 467 188 464 179 Q 463 175 466 166 Z" class="stroke14"/>
    <path d="M 598 101 Q 605 108 611 120 Q 623 136 636 156 Q 640 165 651 177 Q 661 186 656 194 Q 649 206 627 221 Q 617 228 604 224 Q 597 221 600 213 Q 607 195 584 121 Q 577 106 576 95 C 573 73 578 79 598 101 Z" class="stroke15"/>
    <path d="M 576 95 Q 519 80 458 63 Q 445 59 421 60 Q 411 59 408 50 Q 407 38 415 32 Q 434 17 463 1 Q 472 -2 482 6 Q 495 18 628 83 Q 644 90 658 101 Q 668 107 669 115 Q 665 119 654 118 Q 626 111 598 101 L 576 95 Z" class="stroke16"/>
    <path d="M 851 386 Q 873 393 900 399 Q 931 406 936 412 Q 943 419 939 426 Q 932 436 907 441 Q 883 444 853 433 L 805 416 Q 793 415 782 410 Q 740 400 690 392 Q 659 386 682 372 Q 715 354 799 374 Q 802 375 805 375 L 851 386 Z" class="stroke17"/>
    <path d="M 805 375 Q 805 270 805 86 Q 805 70 796 63 Q 790 59 723 62 Q 692 69 695 61 Q 696 54 717 43 Q 778 3 794 -21 Q 813 -49 828 -48 Q 841 -49 853 -17 Q 866 25 862 92 Q 850 239 851 386 L 853 433 Q 857 500 868 537 Q 883 565 832 585 Q 801 601 783 596 Q 767 589 782 569 Q 801 544 803 513 Q 804 503 805 416 L 805 375 Z" class="stroke18"/>
    <path d="M 692 257 Q 734 193 747 190 Q 754 189 761 197 Q 768 207 766 231 Q 763 258 696 294 Q 686 298 680 298 Q 676 297 674 286 Q 675 277 692 257 Z" class="stroke19"/>
    <text x="99" y="505" style="transform-origin:99px 505px; transform:scale(1,-1);">1</text>
    <text x="217" y="801" style="transform-origin:217px 801px; transform:scale(1,-1);">2</text>
    <text x="238" y="499" style="transform-origin:238px 499px; transform:scale(1,-1);">3</text>
    <text x="278" y="433" style="transform-origin:278px 433px; transform:scale(1,-1);">4</text>
    <text x="581" y="821" style="transform-origin:581px 821px; transform:scale(1,-1);">5</text>
    <text x="473" y="626" style="transform-origin:473px 626px; transform:scale(1,-1);">6</text>
    <text x="412" y="644" style="transform-origin:412px 644px; transform:scale(1,-1);">7</text>
    <text x="483" y="471" style="transform-origin:483px 471px; transform:scale(1,-1);">8</text>
    <text x="553" y="575" style="transform-origin:553px 575px; transform:scale(1,-1);">9</text>
    <text x="490" y="386" style="transform-origin:490px 386px; transform:scale(1,-1);">10</text>
    <text x="476" y="337" style="transform-origin:476px 337px; transform:scale(1,-1);">11</text>
    <text x="515" y="335" style="transform-origin:515px 335px; transform:scale(1,-1);">12</text>
    <text x="540" y="230" style="transform-origin:540px 230px; transform:scale(1,-1);">13</text>
    <text x="474" y="174" style="transform-origin:474px 174px; transform:scale(1,-1);">14</text>
    <text x="611" y="215" style="transform-origin:611px 215px; transform:scale(1,-1);">15</text>
    <text x="421" y="46" style="transform-origin:421px 46px; transform:scale(1,-1);">16</text>
    <text x="684" y="383" style="transform-origin:684px 383px; transform:scale(1,-1);">17</text>
    <text x="790" y="582" style="transform-origin:790px 582px; transform:scale(1,-1);">18</text>
    <text x="682" y="289" style="transform-origin:682px 289px; transform:scale(1,-1);">19</text></g>
</svg>