<svg version="1.1" viewBox="0 0 1024 1024" xmlns="http://www.w3.org/2000/svg">
  <g stroke="lightgray" stroke-dasharray="1,1" stroke-width="1" transform="scale(4, 4)">
    <line x1="0" y1="0" x2="256" y2="256"/>
    <line x1="256" y1="0" x2="0" y2="256"/>
    <line x1="128" y1="0" x2="128" y2="256"/>
    <line x1="0" y1="128" x2="256" y2="128"/>
  </g>
  <g transform="scale(1, -1) translate(0, -900)">
    <style type="text/css">
        .stroke1 {fill: #BF0909;}
        .stroke2 {fill: #BFBF09;}
        .stroke3 {fill: #09BF09;}
        .stroke4 {fill: #09BFBF;}
        .stroke5 {fill: #0909BF;}
        .stroke6 {fill: #BF09BF;}
        .stroke7 {fill: #42005e;}
        .stroke8 {fill: #ff3333;}
        .stroke9 {fill: #BFBFBF;}
        .stroke10 {fill: #00a53f;}
        .stroke11 {fill: #fff000;}
        .stroke12 {fill: #6600a5;}
        .stroke13 {fill: #0053a5;}
        .stroke14 {fill: #62c22b;}
        .stroke15 {fill: #BF09BF;}
        .stroke16 {fill: #BF0909;}
        .stroke17 {fill: #BFBF09;}
        .stroke18 {fill: #09BF09;}
        .stroke19 {fill: #09BFBF;}
        .stroke20 {fill: #0909BF;}
        text {
            font-family: Helvetica;
            font-size: 50px;
            fill: #FFFFFF;
            paint-order: stroke;
            stroke: #000000;
            stroke-width: 4px;
            stroke-linecap: butt;
            stroke-linejoin: miter;
            font-weight: 800;
        }
    </style>

    <path d="M 274 503 Q 287 509 304 513 Q 337 525 342 530 Q 349 539 344 546 Q 337 556 309 559 Q 291 560 276 556 L 231 536 Q 132 499 76 487 Q 45 478 69 465 Q 114 450 159 466 Q 183 475 212 482 L 274 503 Z" class="stroke1"/>
    <path d="M 269 374 Q 270 432 274 503 L 276 556 Q 291 718 301 747 Q 310 762 308 776 Q 301 786 246 822 Q 222 840 201 824 Q 197 820 202 803 Q 232 755 233 677 Q 232 599 231 536 L 224 392 Q 220 328 219 257 Q 213 181 191 110 Q 178 68 204 7 Q 210 -11 218 -15 Q 224 -22 232 -13 Q 260 6 261 102 Q 262 169 268 346 L 269 374 Z" class="stroke2"/>
    <path d="M 212 482 Q 173 359 45 168 Q 41 158 52 158 Q 73 158 162 281 Q 196 327 224 392 C 278 515 221 510 212 482 Z" class="stroke3"/>
    <path d="M 268 346 Q 272 342 279 336 Q 333 287 341 286 Q 348 287 353 297 Q 357 307 351 331 Q 345 353 277 373 Q 273 374 269 374 C 239 376 246 367 268 346 Z" class="stroke4"/>
    <path d="M 458 632 Q 495 626 528 634 Q 807 697 820 710 Q 827 717 823 725 Q 816 735 789 742 Q 765 746 668 711 Q 544 675 447 662 Q 446 662 446 661 C 417 655 428 636 458 632 Z" class="stroke5"/>
    <path d="M 449 455 Q 453 495 453 534 Q 456 624 458 632 C 460 653 460 653 446 661 Q 433 671 413 678 Q 395 685 385 681 Q 375 674 381 662 Q 402 641 402 602 Q 402 410 390 339 Q 384 311 378 282 Q 354 195 288 68 Q 284 62 283 56 Q 282 46 290 49 Q 324 59 387 187 Q 394 205 403 225 Q 430 304 448 435 L 449 455 Z" class="stroke6"/>
    <path d="M 549 550 Q 607 580 619 583 Q 631 584 632 590 Q 633 597 625 604 Q 586 628 561 622 Q 542 580 475 532 Q 474 526 477 524 Q 480 525 523 539 L 549 550 Z" class="stroke7"/>
    <path d="M 571 454 Q 584 458 601 463 Q 622 469 625 472 Q 631 479 627 484 Q 621 491 600 495 Q 585 498 572 492 L 534 477 Q 483 461 449 455 C 420 450 418 440 448 435 Q 484 429 509 437 Q 510 438 514 437 L 571 454 Z" class="stroke8"/>
    <path d="M 569 427 Q 570 443 571 454 L 572 492 Q 572 507 573 510 Q 576 525 572 530 Q 571 537 556 546 Q 553 549 549 550 C 523 565 513 567 523 539 Q 532 518 534 477 L 534 396 Q 534 360 526 323 Q 514 283 541 252 Q 548 242 557 251 Q 566 269 568 387 Q 568 397 569 406 L 569 427 Z" class="stroke9"/>
    <path d="M 514 437 Q 501 385 448 314 Q 441 305 448 305 Q 460 304 488 330 Q 507 348 534 396 C 566 453 522 466 514 437 Z" class="stroke10"/>
    <path d="M 569 406 Q 596 366 611 363 Q 620 362 625 373 Q 626 382 622 395 Q 607 420 572 426 Q 571 427 569 427 C 552 432 552 431 569 406 Z" class="stroke11"/>
    <path d="M 741 581 Q 766 599 808 613 Q 820 614 821 621 Q 822 628 813 635 Q 767 660 745 653 Q 741 650 741 642 Q 742 623 659 561 Q 656 554 661 552 Q 664 553 671 556 Q 684 559 709 569 Q 712 570 716 571 L 741 581 Z" class="stroke12"/>
    <path d="M 764 485 Q 851 515 853 515 Q 859 522 855 528 Q 849 535 827 539 Q 799 542 765 523 L 728 510 Q 701 503 671 497 Q 644 490 665 479 Q 683 472 707 471 L 764 485 Z" class="stroke13"/>
    <path d="M 763 478 Q 763 482 764 485 L 765 523 Q 765 539 766 542 Q 767 557 765 563 Q 762 570 748 578 Q 744 581 741 581 C 714 594 709 596 716 571 Q 725 541 727 524 Q 727 518 728 510 L 729 431 Q 729 386 721 347 Q 711 308 737 276 Q 744 266 753 275 Q 762 291 763 455 L 763 478 Z" class="stroke14"/>
    <path d="M 707 471 Q 692 420 637 354 Q 630 345 636 345 Q 646 344 676 364 Q 709 391 729 431 C 758 487 716 500 707 471 Z" class="stroke15"/>
    <path d="M 763 455 Q 794 409 829 367 Q 845 351 871 349 Q 920 346 971 355 Q 984 356 985 360 Q 986 364 976 369 Q 849 408 770 473 Q 766 477 763 478 C 738 495 746 480 763 455 Z" class="stroke16"/>
    <path d="M 670 97 Q 673 140 676 179 L 677 206 Q 680 230 688 269 Q 691 278 674 289 Q 646 304 626 307 Q 613 308 606 302 Q 600 295 607 284 Q 620 266 622 254 Q 631 181 635 93 C 636 63 668 67 670 97 Z" class="stroke17"/>
    <path d="M 676 179 Q 703 176 767 192 Q 827 210 830 212 Q 837 219 832 226 Q 825 236 799 239 Q 787 239 715 216 Q 696 212 677 206 C 648 197 646 181 676 179 Z" class="stroke18"/>
    <path d="M 551 82 Q 551 193 549 197 Q 546 201 544 203 Q 525 219 500 227 Q 488 231 480 226 Q 473 222 479 208 Q 495 181 513 77 C 518 47 551 52 551 82 Z" class="stroke19"/>
    <path d="M 513 77 Q 446 71 372 61 Q 353 60 367 43 Q 380 30 398 24 Q 417 18 433 23 Q 589 65 923 65 Q 942 65 947 74 Q 951 84 936 98 Q 882 140 821 122 Q 758 112 670 97 L 635 93 Q 595 89 551 82 L 513 77 Z" class="stroke20"/>
    <text x="70" y="477" style="transform-origin:70px 477px; transform:scale(1,-1);">1</text>
    <text x="213" y="817" style="transform-origin:213px 817px; transform:scale(1,-1);">2</text>
    <text x="227" y="480" style="transform-origin:227px 480px; transform:scale(1,-1);">3</text>
    <text x="272" y="367" style="transform-origin:272px 367px; transform:scale(1,-1);">4</text>
    <text x="453" y="655" style="transform-origin:453px 655px; transform:scale(1,-1);">5</text>
    <text x="392" y="670" style="transform-origin:392px 670px; transform:scale(1,-1);">6</text>
    <text x="622" y="594" style="transform-origin:622px 594px; transform:scale(1,-1);">7</text>
    <text x="456" y="450" style="transform-origin:456px 450px; transform:scale(1,-1);">8</text>
    <text x="532" y="536" style="transform-origin:532px 536px; transform:scale(1,-1);">9</text>
    <text x="531" y="435" style="transform-origin:531px 435px; transform:scale(1,-1);">10</text>
    <text x="579" y="419" style="transform-origin:579px 419px; transform:scale(1,-1);">11</text>
    <text x="811" y="623" style="transform-origin:811px 623px; transform:scale(1,-1);">12</text>
    <text x="666" y="489" style="transform-origin:666px 489px; transform:scale(1,-1);">13</text>
    <text x="725" y="566" style="transform-origin:725px 566px; transform:scale(1,-1);">14</text>
    <text x="725" y="469" style="transform-origin:725px 469px; transform:scale(1,-1);">15</text>
    <text x="764" y="472" style="transform-origin:764px 472px; transform:scale(1,-1);">16</text>
    <text x="615" y="294" style="transform-origin:615px 294px; transform:scale(1,-1);">17</text>
    <text x="681" y="186" style="transform-origin:681px 186px; transform:scale(1,-1);">18</text>
    <text x="488" y="217" style="transform-origin:488px 217px; transform:scale(1,-1);">19</text>
    <text x="370" y="52" style="transform-origin:370px 52px; transform:scale(1,-1);">20</text></g>
</svg>