<svg version="1.1" viewBox="0 0 1024 1024" xmlns="http://www.w3.org/2000/svg">
  <g stroke="lightgray" stroke-dasharray="1,1" stroke-width="1" transform="scale(4, 4)">
    <line x1="0" y1="0" x2="256" y2="256"/>
    <line x1="256" y1="0" x2="0" y2="256"/>
    <line x1="128" y1="0" x2="128" y2="256"/>
    <line x1="0" y1="128" x2="256" y2="128"/>
  </g>
  <g transform="scale(1, -1) translate(0, -900)">
    <style type="text/css">
        .stroke1 {fill: #BF0909;}
        .stroke2 {fill: #BFBF09;}
        .stroke3 {fill: #09BF09;}
        .stroke4 {fill: #09BFBF;}
        .stroke5 {fill: #0909BF;}
        .stroke6 {fill: #BF09BF;}
        .stroke7 {fill: #42005e;}
        .stroke8 {fill: #ff3333;}
        .stroke9 {fill: #BFBFBF;}
        .stroke10 {fill: #00a53f;}
        .stroke11 {fill: #fff000;}
        .stroke12 {fill: #6600a5;}
        .stroke13 {fill: #0053a5;}
        .stroke14 {fill: #62c22b;}
        .stroke15 {fill: #BF09BF;}
        .stroke16 {fill: #BF0909;}
        .stroke17 {fill: #BFBF09;}
        .stroke18 {fill: #09BF09;}
        .stroke19 {fill: #09BFBF;}
        .stroke20 {fill: #0909BF;}
        text {
            font-family: Helvetica;
            font-size: 50px;
            fill: #FFFFFF;
            paint-order: stroke;
            stroke: #000000;
            stroke-width: 4px;
            stroke-linecap: butt;
            stroke-linejoin: miter;
            font-weight: 800;
        }
    </style>

    <path d="M 310 786 Q 362 729 396 714 Q 409 711 419 725 Q 425 737 422 753 Q 410 798 324 822 Q 323 823 322 823 Q 306 827 297 824 Q 291 823 294 811 Q 295 799 310 786 Z" class="stroke1"/>
    <path d="M 435 627 Q 510 649 511 650 Q 520 657 515 665 Q 508 675 481 682 Q 456 686 346 650 Q 241 629 216 626 Q 182 620 207 605 Q 240 587 309 600 Q 351 609 397 619 L 435 627 Z" class="stroke2"/>
    <path d="M 214 542 Q 245 473 270 465 Q 282 461 291 476 Q 295 488 291 508 Q 285 524 266 537 Q 238 559 224 565 Q 217 568 213 558 Q 209 551 214 542 Z" class="stroke3"/>
    <path d="M 391 468 Q 424 522 436 546 Q 443 561 458 581 Q 471 591 463 601 Q 456 614 435 627 C 410 643 391 648 397 619 Q 406 591 367 484 Q 361 471 360 460 C 355 430 375 442 391 468 Z" class="stroke4"/>
    <path d="M 360 460 Q 338 456 318 450 Q 254 434 197 427 Q 157 423 112 415 Q 84 411 106 395 Q 140 371 164 378 Q 330 417 483 436 Q 493 435 501 447 Q 502 457 481 468 Q 451 484 391 468 L 360 460 Z" class="stroke5"/>
    <path d="M 253 325 Q 247 337 217 349 Q 208 353 199 349 Q 193 345 198 335 Q 210 280 213 213 Q 212 197 212 178 Q 213 150 205 115 Q 192 70 224 32 Q 233 22 241 32 Q 244 36 253 79 L 254 109 Q 254 160 254 196 L 254 221 Q 254 290 257 299 C 260 317 260 317 253 325 Z" class="stroke6"/>
    <path d="M 387 86 Q 424 23 432 20 Q 442 20 450 41 Q 462 78 457 198 Q 448 283 458 314 Q 465 333 455 341 Q 448 351 414 365 Q 398 372 365 359 Q 338 349 307 339 Q 283 332 253 325 C 224 318 227 294 257 299 Q 269 300 282 304 Q 321 317 373 326 Q 389 329 394 323 Q 401 316 402 180 Q 403 132 399 122 Q 398 122 398 121 C 391 92 385 89 387 86 Z" class="stroke7"/>
    <path d="M 254 196 Q 257 195 264 196 Q 321 203 364 209 Q 386 213 377 225 Q 367 238 343 242 Q 310 246 254 221 C 227 209 224 199 254 196 Z" class="stroke8"/>
    <path d="M 253 79 Q 263 76 276 79 Q 313 86 387 86 C 417 86 418 99 398 121 Q 398 122 396 124 Q 381 133 352 127 Q 297 115 254 109 C 224 105 224 85 253 79 Z" class="stroke9"/>
    <path d="M 618 549 Q 646 601 675 672 Q 688 712 704 733 Q 711 745 705 757 Q 698 769 666 786 Q 638 799 619 795 Q 601 791 613 770 Q 629 748 624 726 Q 611 650 580 577 Q 552 507 509 427 Q 502 415 500 409 Q 499 397 512 403 Q 542 416 600 519 L 618 549 Z" class="stroke10"/>
    <path d="M 600 519 Q 616 507 658 520 Q 733 556 761 551 Q 777 538 771 528 Q 771 525 743 456 Q 736 446 741 441 Q 745 437 756 448 Q 844 515 884 532 Q 893 535 893 543 Q 894 556 865 570 Q 843 583 820 596 Q 792 609 778 602 Q 717 574 618 549 C 589 542 572 531 600 519 Z" class="stroke11"/>
    <path d="M 674 270 Q 680 349 696 389 Q 703 407 688 414 Q 640 442 618 433 Q 606 429 613 415 Q 643 369 618 248 Q 597 158 513 85 Q 500 75 486 62 Q 476 53 486 51 Q 571 60 639 170 Q 642 182 656 208 Q 660 220 664 232 L 674 270 Z" class="stroke12"/>
    <path d="M 664 232 Q 716 147 785 53 Q 800 35 827 35 Q 918 35 946 39 Q 955 40 956 45 Q 957 49 946 57 Q 814 121 733 206 Q 703 236 674 270 C 654 293 648 258 664 232 Z" class="stroke13"/>
    <text x="303" y="816" style="transform-origin:303px 816px; transform:scale(1,-1);">1</text>
    <text x="209" y="617" style="transform-origin:209px 617px; transform:scale(1,-1);">2</text>
    <text x="223" y="554" style="transform-origin:223px 554px; transform:scale(1,-1);">3</text>
    <text x="404" y="617" style="transform-origin:404px 617px; transform:scale(1,-1);">4</text>
    <text x="107" y="406" style="transform-origin:107px 406px; transform:scale(1,-1);">5</text>
    <text x="205" y="342" style="transform-origin:205px 342px; transform:scale(1,-1);">6</text>
    <text x="262" y="306" style="transform-origin:262px 306px; transform:scale(1,-1);">7</text>
    <text x="259" y="202" style="transform-origin:259px 202px; transform:scale(1,-1);">8</text>
    <text x="259" y="86" style="transform-origin:259px 86px; transform:scale(1,-1);">9</text>
    <text x="621" y="781" style="transform-origin:621px 781px; transform:scale(1,-1);">10</text>
    <text x="607" y="522" style="transform-origin:607px 522px; transform:scale(1,-1);">11</text>
    <text x="621" y="423" style="transform-origin:621px 423px; transform:scale(1,-1);">12</text>
    <text x="677" y="263" style="transform-origin:677px 263px; transform:scale(1,-1);">13</text></g>
</svg>