<svg version="1.1" viewBox="0 0 1024 1024" xmlns="http://www.w3.org/2000/svg">
  <g stroke="lightgray" stroke-dasharray="1,1" stroke-width="1" transform="scale(4, 4)">
    <line x1="0" y1="0" x2="256" y2="256"/>
    <line x1="256" y1="0" x2="0" y2="256"/>
    <line x1="128" y1="0" x2="128" y2="256"/>
    <line x1="0" y1="128" x2="256" y2="128"/>
  </g>
  <g transform="scale(1, -1) translate(0, -900)">
    <style type="text/css">
        .stroke1 {fill: #BF0909;}
        .stroke2 {fill: #BFBF09;}
        .stroke3 {fill: #09BF09;}
        .stroke4 {fill: #09BFBF;}
        .stroke5 {fill: #0909BF;}
        .stroke6 {fill: #BF09BF;}
        .stroke7 {fill: #42005e;}
        .stroke8 {fill: #ff3333;}
        .stroke9 {fill: #BFBFBF;}
        .stroke10 {fill: #00a53f;}
        .stroke11 {fill: #fff000;}
        .stroke12 {fill: #6600a5;}
        .stroke13 {fill: #0053a5;}
        .stroke14 {fill: #62c22b;}
        .stroke15 {fill: #BF09BF;}
        .stroke16 {fill: #BF0909;}
        .stroke17 {fill: #BFBF09;}
        .stroke18 {fill: #09BF09;}
        .stroke19 {fill: #09BFBF;}
        .stroke20 {fill: #0909BF;}
        text {
            font-family: Helvetica;
            font-size: 50px;
            fill: #FFFFFF;
            paint-order: stroke;
            stroke: #000000;
            stroke-width: 4px;
            stroke-linecap: butt;
            stroke-linejoin: miter;
            font-weight: 800;
        }
    </style>

    <path d="M 452 682 Q 503 691 562 698 Q 577 699 577 707 Q 578 719 562 726 Q 538 738 464 721 L 406 708 Q 345 696 305 687 L 258 678 Q 239 677 230 674 Q 179 667 136 663 Q 126 662 122 655 Q 119 645 133 635 Q 166 610 213 624 Q 238 633 266 639 L 306 651 Q 357 669 400 672 L 452 682 Z" class="stroke1"/>
    <path d="M 305 687 Q 305 751 301 755 Q 300 756 299 756 Q 286 766 261 773 Q 242 777 225 768 Q 216 759 230 749 Q 246 733 258 678 L 266 639 Q 266 588 288 538 L 289 536 Q 296 527 302 534 Q 305 538 306 549 L 309 580 Q 309 599 306 651 L 305 687 Z" class="stroke2"/>
    <path d="M 428 605 Q 440 645 452 682 L 464 721 Q 464 745 493 793 Q 497 802 483 819 Q 455 841 434 850 Q 421 856 412 850 Q 403 844 408 830 Q 418 806 417 792 Q 413 752 406 708 L 400 672 Q 393 638 386 601 C 380 572 419 576 428 605 Z" class="stroke3"/>
    <path d="M 343 556 Q 380 565 447 573 Q 456 574 457 582 Q 457 589 429 605 L 428 605 L 386 601 Q 344 589 309 580 C 267 569 292 544 343 556 Z" class="stroke4"/>
    <path d="M 225 464 Q 215 468 182 470 Q 172 471 169 466 Q 165 460 173 447 Q 198 414 219 356 Q 223 338 236 328 Q 255 312 257 326 Q 257 330 258 333 L 254 361 Q 242 415 236 436 C 229 463 229 463 225 464 Z" class="stroke5"/>
    <path d="M 487 395 Q 514 444 541 456 Q 556 471 545 486 Q 532 498 490 522 Q 475 529 457 523 Q 420 510 388 498 L 329 483 Q 277 473 225 464 C 195 459 207 428 236 436 Q 258 443 331 457 L 384 469 Q 456 487 467 477 Q 473 468 446 404 C 435 376 472 369 487 395 Z" class="stroke6"/>
    <path d="M 376 353 Q 427 363 494 370 Q 503 371 504 378 Q 504 384 487 395 L 446 404 Q 434 404 379 386 L 329 375 Q 289 368 254 361 C 225 355 228 333 258 333 Q 264 332 273 334 Q 295 340 327 345 L 376 353 Z" class="stroke7"/>
    <path d="M 363 262 Q 393 272 429 280 Q 457 287 460 292 Q 467 299 463 306 Q 456 316 431 321 Q 415 322 370 308 L 321 291 Q 317 291 315 290 Q 278 280 234 273 Q 203 266 226 252 Q 259 234 310 248 Q 311 249 315 249 L 363 262 Z" class="stroke8"/>
    <path d="M 343 169 Q 418 188 513 203 Q 529 206 530 213 Q 531 226 513 234 Q 486 244 464 239 Q 403 224 354 211 L 301 198 Q 166 168 92 159 Q 79 158 77 149 Q 74 139 89 128 Q 125 101 169 115 Q 235 140 286 153 L 343 169 Z" class="stroke9"/>
    <path d="M 286 153 Q 244 71 228 47 Q 192 8 148 -34 Q 135 -47 131 -52 Q 128 -59 140 -59 Q 182 -59 254 19 Q 317 85 343 169 L 354 211 Q 358 233 362 254 Q 362 258 363 262 L 370 308 Q 373 330 376 353 L 379 386 Q 382 426 384 469 L 388 498 Q 389 505 391 511 Q 397 530 377 540 Q 358 550 343 556 C 316 568 291 575 306 549 Q 307 545 313 537 Q 326 515 329 483 L 331 457 Q 332 426 329 375 L 327 345 Q 326 321 322 293 Q 321 293 321 291 L 315 249 Q 309 225 301 198 L 286 153 Z" class="stroke10"/>
    <path d="M 393 100 Q 412 75 431 45 Q 440 32 453 29 Q 462 28 469 37 Q 476 49 474 75 Q 471 105 399 142 Q 386 148 380 147 Q 376 144 374 133 Q 375 123 393 100 Z" class="stroke11"/>
    <path d="M 642 545 Q 669 597 696 667 Q 708 704 721 723 Q 728 735 721 747 Q 714 757 683 774 Q 653 784 636 781 Q 620 775 631 757 Q 647 738 643 716 Q 633 647 608 579 Q 584 513 548 438 Q 541 426 540 420 Q 539 410 552 415 Q 577 427 630 523 L 642 545 Z" class="stroke12"/>
    <path d="M 630 523 Q 646 507 669 513 Q 775 556 799 547 Q 811 532 803 524 Q 803 520 771 448 Q 764 438 769 433 Q 773 427 784 440 Q 875 510 915 528 Q 925 529 925 538 Q 925 551 898 564 Q 826 603 806 590 Q 743 566 642 545 C 613 539 610 538 630 523 Z" class="stroke13"/>
    <path d="M 688 283 Q 689 289 690 294 Q 705 381 709 387 Q 716 405 700 413 Q 652 444 628 434 Q 615 428 622 415 Q 652 369 628 251 Q 606 158 509 77 Q 503 73 498 67 Q 486 57 498 56 Q 549 56 609 119 Q 657 165 682 250 L 688 283 Z" class="stroke14"/>
    <path d="M 682 250 Q 739 154 814 51 Q 841 23 978 43 Q 987 44 988 49 Q 989 53 978 61 Q 849 124 758 211 Q 725 242 692 278 Q 691 281 688 283 C 668 306 667 276 682 250 Z" class="stroke15"/>
    <text x="131" y="651" style="transform-origin:131px 651px; transform:scale(1,-1);">1</text>
    <text x="233" y="760" style="transform-origin:233px 760px; transform:scale(1,-1);">2</text>
    <text x="421" y="838" style="transform-origin:421px 838px; transform:scale(1,-1);">3</text>
    <text x="311" y="556" style="transform-origin:311px 556px; transform:scale(1,-1);">4</text>
    <text x="178" y="461" style="transform-origin:178px 461px; transform:scale(1,-1);">5</text>
    <text x="233" y="459" style="transform-origin:233px 459px; transform:scale(1,-1);">6</text>
    <text x="265" y="341" style="transform-origin:265px 341px; transform:scale(1,-1);">7</text>
    <text x="228" y="263" style="transform-origin:228px 263px; transform:scale(1,-1);">8</text>
    <text x="90" y="146" style="transform-origin:90px 146px; transform:scale(1,-1);">9</text>
    <text x="313" y="545" style="transform-origin:313px 545px; transform:scale(1,-1);">10</text>
    <text x="383" y="137" style="transform-origin:383px 137px; transform:scale(1,-1);">11</text>
    <text x="640" y="768" style="transform-origin:640px 768px; transform:scale(1,-1);">12</text>
    <text x="640" y="525" style="transform-origin:640px 525px; transform:scale(1,-1);">13</text>
    <text x="631" y="422" style="transform-origin:631px 422px; transform:scale(1,-1);">14</text>
    <text x="695" y="269" style="transform-origin:695px 269px; transform:scale(1,-1);">15</text></g>
</svg>