<svg version="1.1" viewBox="0 0 1024 1024" xmlns="http://www.w3.org/2000/svg">
  <g stroke="lightgray" stroke-dasharray="1,1" stroke-width="1" transform="scale(4, 4)">
    <line x1="0" y1="0" x2="256" y2="256"/>
    <line x1="256" y1="0" x2="0" y2="256"/>
    <line x1="128" y1="0" x2="128" y2="256"/>
    <line x1="0" y1="128" x2="256" y2="128"/>
  </g>
  <g transform="scale(1, -1) translate(0, -900)">
    <style type="text/css">
        .stroke1 {fill: #BF0909;}
        .stroke2 {fill: #BFBF09;}
        .stroke3 {fill: #09BF09;}
        .stroke4 {fill: #09BFBF;}
        .stroke5 {fill: #0909BF;}
        .stroke6 {fill: #BF09BF;}
        .stroke7 {fill: #42005e;}
        .stroke8 {fill: #ff3333;}
        .stroke9 {fill: #BFBFBF;}
        .stroke10 {fill: #00a53f;}
        .stroke11 {fill: #fff000;}
        .stroke12 {fill: #6600a5;}
        .stroke13 {fill: #0053a5;}
        .stroke14 {fill: #62c22b;}
        .stroke15 {fill: #BF09BF;}
        .stroke16 {fill: #BF0909;}
        .stroke17 {fill: #BFBF09;}
        .stroke18 {fill: #09BF09;}
        .stroke19 {fill: #09BFBF;}
        .stroke20 {fill: #0909BF;}
        text {
            font-family: Helvetica;
            font-size: 50px;
            fill: #FFFFFF;
            paint-order: stroke;
            stroke: #000000;
            stroke-width: 4px;
            stroke-linecap: butt;
            stroke-linejoin: miter;
            font-weight: 800;
        }
    </style>

    <path d="M 297 629 Q 469 677 472 679 Q 481 688 476 696 Q 469 708 438 714 Q 407 718 377 704 Q 337 688 293 676 Q 245 663 188 655 Q 151 646 178 631 Q 205 616 256 619 L 297 629 Z" class="stroke1"/>
    <path d="M 195 377 Q 222 410 243 437 L 258 457 Q 322 562 334 572 Q 341 582 337 593 Q 328 618 297 629 C 269 641 244 646 256 619 Q 257 618 258 616 Q 277 580 207 458 Q 174 401 129 339 Q 120 330 119 324 Q 116 314 128 317 Q 131 318 181 361 L 195 377 Z" class="stroke2"/>
    <path d="M 243 437 Q 255 427 288 434 Q 346 450 352 442 Q 359 427 343 368 Q 331 304 275 214 Q 223 117 125 19 Q 101 0 123 4 Q 153 8 202 47 Q 253 87 303 162 Q 366 253 409 371 Q 428 426 445 445 Q 458 457 450 468 Q 443 480 385 498 Q 372 502 349 488 Q 321 473 258 457 C 229 449 214 445 243 437 Z" class="stroke3"/>
    <path d="M 181 361 Q 203 316 246 281 Q 252 277 262 275 Q 275 272 282 289 Q 283 301 277 320 Q 261 356 195 377 C 169 386 169 386 181 361 Z" class="stroke4"/>
    <path d="M 657 635 Q 745 692 792 708 Q 810 712 812 720 Q 815 732 801 741 Q 732 777 699 767 Q 692 763 693 751 Q 694 702 471 560 Q 467 550 474 548 Q 504 557 617 614 L 657 635 Z" class="stroke5"/>
    <path d="M 698 379 Q 794 392 943 393 Q 964 394 968 403 Q 974 416 956 429 Q 893 474 845 454 Q 785 441 698 423 L 643 413 Q 543 397 432 379 Q 410 376 427 359 Q 458 332 509 344 Q 572 362 643 371 L 698 379 Z" class="stroke6"/>
    <path d="M 644 -28 Q 650 -55 657 -65 Q 663 -72 671 -70 Q 686 -61 693 2 Q 702 83 699 163 Q 696 215 698 379 L 698 423 Q 699 457 700 496 Q 700 536 711 584 Q 714 603 699 612 Q 674 628 657 635 C 630 648 603 640 617 614 Q 621 604 628 594 Q 641 570 642 536 Q 643 481 643 413 L 643 371 Q 637 38 644 -28 Z" class="stroke7"/>
    <text x="180" y="644" style="transform-origin:180px 644px; transform:scale(1,-1);">1</text>
    <text x="266" y="615" style="transform-origin:266px 615px; transform:scale(1,-1);">2</text>
    <text x="250" y="439" style="transform-origin:250px 439px; transform:scale(1,-1);">3</text>
    <text x="192" y="359" style="transform-origin:192px 359px; transform:scale(1,-1);">4</text>
    <text x="800" y="724" style="transform-origin:800px 724px; transform:scale(1,-1);">5</text>
    <text x="429" y="369" style="transform-origin:429px 369px; transform:scale(1,-1);">6</text>
    <text x="626" y="612" style="transform-origin:626px 612px; transform:scale(1,-1);">7</text></g>
</svg>