<svg version="1.1" viewBox="0 0 1024 1024" xmlns="http://www.w3.org/2000/svg">
  <g stroke="lightgray" stroke-dasharray="1,1" stroke-width="1" transform="scale(4, 4)">
    <line x1="0" y1="0" x2="256" y2="256"/>
    <line x1="256" y1="0" x2="0" y2="256"/>
    <line x1="128" y1="0" x2="128" y2="256"/>
    <line x1="0" y1="128" x2="256" y2="128"/>
  </g>
  <g transform="scale(1, -1) translate(0, -900)">
    <style type="text/css">
        .stroke1 {fill: #BF0909;}
        .stroke2 {fill: #BFBF09;}
        .stroke3 {fill: #09BF09;}
        .stroke4 {fill: #09BFBF;}
        .stroke5 {fill: #0909BF;}
        .stroke6 {fill: #BF09BF;}
        .stroke7 {fill: #42005e;}
        .stroke8 {fill: #ff3333;}
        .stroke9 {fill: #BFBFBF;}
        .stroke10 {fill: #00a53f;}
        .stroke11 {fill: #fff000;}
        .stroke12 {fill: #6600a5;}
        .stroke13 {fill: #0053a5;}
        .stroke14 {fill: #62c22b;}
        .stroke15 {fill: #BF09BF;}
        .stroke16 {fill: #BF0909;}
        .stroke17 {fill: #BFBF09;}
        .stroke18 {fill: #09BF09;}
        .stroke19 {fill: #09BFBF;}
        .stroke20 {fill: #0909BF;}
        text {
            font-family: Helvetica;
            font-size: 50px;
            fill: #FFFFFF;
            paint-order: stroke;
            stroke: #000000;
            stroke-width: 4px;
            stroke-linecap: butt;
            stroke-linejoin: miter;
            font-weight: 800;
        }
    </style>

    <path d="M 355 718 Q 379 755 402 785 Q 412 798 399 813 Q 357 849 330 846 Q 318 843 320 829 Q 329 732 219 615 Q 207 609 173 568 Q 164 553 180 557 Q 199 560 224 578 Q 297 630 340 696 L 355 718 Z" class="stroke1"/>
    <path d="M 340 696 Q 382 672 454 688 Q 658 734 663 739 Q 673 746 667 756 Q 660 768 630 775 Q 605 779 493 744 Q 436 729 355 718 C 325 714 313 709 340 696 Z" class="stroke2"/>
    <path d="M 354 606 Q 321 599 346 585 Q 385 566 436 580 Q 493 595 553 610 Q 581 617 584 622 Q 591 629 587 637 Q 580 647 553 653 Q 525 657 499 644 Q 468 632 435 623 Q 398 613 354 606 Z" class="stroke3"/>
    <path d="M 229 496 Q 202 495 217 477 Q 230 461 257 450 Q 282 438 315 453 Q 390 478 600 527 Q 627 533 622 507 Q 580 272 650 121 Q 665 90 687 65 Q 726 17 790 -13 Q 839 -37 890 -36 Q 933 -35 956 -19 Q 968 -15 963 3 Q 947 70 940 162 Q 937 190 926 166 Q 887 57 875 46 Q 862 34 843 42 Q 731 69 685 178 Q 634 304 681 462 Q 693 498 727 522 Q 745 532 741 546 Q 737 559 672 590 Q 650 600 628 587 Q 480 509 229 496 Z" class="stroke4"/>
    <path d="M 245 389 Q 266 353 246 228 Q 239 203 227 173 Q 211 131 163 91 Q 151 81 148 75 Q 147 69 156 69 Q 180 68 229 109 Q 280 158 300 271 Q 303 290 315 363 Q 321 381 303 390 Q 263 412 250 410 Q 232 409 245 389 Z" class="stroke5"/>
    <path d="M 358 395 Q 382 331 361 171 Q 352 138 380 106 Q 389 96 398 106 Q 419 139 418 179 Q 412 290 428 364 Q 435 386 415 397 Q 399 407 383 416 Q 371 420 362 415 Q 355 409 358 395 Z" class="stroke6"/>
    <path d="M 492 87 Q 485 60 505 5 Q 511 -8 517 -11 Q 523 -17 528 -10 Q 535 -6 543 11 Q 547 24 548 207 Q 548 364 558 399 Q 565 412 562 423 Q 556 430 511 457 Q 492 470 475 458 Q 471 454 476 441 Q 494 417 501 215 Q 501 125 492 87 Z" class="stroke7"/>
    <text x="333" y="833" style="transform-origin:333px 833px; transform:scale(1,-1);">1</text>
    <text x="348" y="699" style="transform-origin:348px 699px; transform:scale(1,-1);">2</text>
    <text x="347" y="597" style="transform-origin:347px 597px; transform:scale(1,-1);">3</text>
    <text x="223" y="487" style="transform-origin:223px 487px; transform:scale(1,-1);">4</text>
    <text x="249" y="399" style="transform-origin:249px 399px; transform:scale(1,-1);">5</text>
    <text x="370" y="405" style="transform-origin:370px 405px; transform:scale(1,-1);">6</text>
    <text x="485" y="452" style="transform-origin:485px 452px; transform:scale(1,-1);">7</text></g>
</svg>