<svg version="1.1" viewBox="0 0 1024 1024" xmlns="http://www.w3.org/2000/svg">
  <g stroke="lightgray" stroke-dasharray="1,1" stroke-width="1" transform="scale(4, 4)">
    <line x1="0" y1="0" x2="256" y2="256"/>
    <line x1="256" y1="0" x2="0" y2="256"/>
    <line x1="128" y1="0" x2="128" y2="256"/>
    <line x1="0" y1="128" x2="256" y2="128"/>
  </g>
  <g transform="scale(1, -1) translate(0, -900)">
    <style type="text/css">
        .stroke1 {fill: #BF0909;}
        .stroke2 {fill: #BFBF09;}
        .stroke3 {fill: #09BF09;}
        .stroke4 {fill: #09BFBF;}
        .stroke5 {fill: #0909BF;}
        .stroke6 {fill: #BF09BF;}
        .stroke7 {fill: #42005e;}
        .stroke8 {fill: #ff3333;}
        .stroke9 {fill: #BFBFBF;}
        .stroke10 {fill: #00a53f;}
        .stroke11 {fill: #fff000;}
        .stroke12 {fill: #6600a5;}
        .stroke13 {fill: #0053a5;}
        .stroke14 {fill: #62c22b;}
        .stroke15 {fill: #BF09BF;}
        .stroke16 {fill: #BF0909;}
        .stroke17 {fill: #BFBF09;}
        .stroke18 {fill: #09BF09;}
        .stroke19 {fill: #09BFBF;}
        .stroke20 {fill: #0909BF;}
        text {
            font-family: Helvetica;
            font-size: 50px;
            fill: #FFFFFF;
            paint-order: stroke;
            stroke: #000000;
            stroke-width: 4px;
            stroke-linecap: butt;
            stroke-linejoin: miter;
            font-weight: 800;
        }
    </style>

    <path d="M 225 723 Q 258 692 293 657 Q 308 641 326 641 Q 338 642 344 657 Q 351 673 341 708 Q 332 745 221 778 Q 203 782 196 779 Q 190 775 191 760 Q 195 747 225 723 Z" class="stroke1"/>
    <path d="M 128 502 Q 188 439 221 425 Q 237 422 247 437 Q 253 450 250 468 Q 238 511 141 544 Q 123 548 113 545 Q 106 544 109 530 Q 110 517 128 502 Z" class="stroke2"/>
    <path d="M 116 126 Q 104 122 107 104 Q 125 26 161 9 Q 168 2 179 5 Q 186 6 187 33 Q 191 87 286 355 Q 293 371 291 378 Q 290 388 281 381 Q 269 375 157 172 Q 144 150 116 126 Z" class="stroke3"/>
    <path d="M 416 673 Q 400 669 398 662 Q 395 655 411 648 Q 438 638 472 648 Q 578 670 676 698 Q 686 698 690 694 Q 693 691 676 581 Q 643 412 667 257 Q 700 -4 949 0 Q 968 0 971 9 Q 980 22 969 53 Q 957 105 961 196 Q 961 209 954 218 Q 947 227 940 206 Q 909 88 890 80 Q 878 76 868 77 Q 834 81 799 118 Q 708 203 710 392 Q 713 611 798 693 Q 811 702 800 714 Q 787 732 749 749 Q 715 765 698 755 Q 586 698 416 673 Z" class="stroke4"/>
    <path d="M 496 389 Q 529 398 605 409 Q 615 408 622 420 Q 623 430 602 439 Q 578 457 503 433 L 459 421 Q 390 408 339 398 Q 314 394 334 379 Q 359 361 402 368 Q 424 374 453 379 L 496 389 Z" class="stroke5"/>
    <path d="M 453 379 Q 420 204 379 149 Q 358 115 379 66 Q 380 60 386 54 Q 392 38 404 43 Q 444 64 469 198 Q 475 258 496 389 L 503 433 Q 516 518 523 548 Q 530 576 508 593 Q 477 612 458 614 Q 442 611 447 597 Q 468 533 459 421 L 453 379 Z" class="stroke6"/>
    <text x="202" y="770" style="transform-origin:202px 770px; transform:scale(1,-1);">1</text>
    <text x="120" y="535" style="transform-origin:120px 535px; transform:scale(1,-1);">2</text>
    <text x="173" y="15" style="transform-origin:173px 15px; transform:scale(1,-1);">3</text>
    <text x="406" y="660" style="transform-origin:406px 660px; transform:scale(1,-1);">4</text>
    <text x="335" y="389" style="transform-origin:335px 389px; transform:scale(1,-1);">5</text>
    <text x="457" y="602" style="transform-origin:457px 602px; transform:scale(1,-1);">6</text></g>
</svg>