<svg version="1.1" viewBox="0 0 1024 1024" xmlns="http://www.w3.org/2000/svg">
  <g stroke="lightgray" stroke-dasharray="1,1" stroke-width="1" transform="scale(4, 4)">
    <line x1="0" y1="0" x2="256" y2="256"/>
    <line x1="256" y1="0" x2="0" y2="256"/>
    <line x1="128" y1="0" x2="128" y2="256"/>
    <line x1="0" y1="128" x2="256" y2="128"/>
  </g>
  <g transform="scale(1, -1) translate(0, -900)">
    <style type="text/css">
        .stroke1 {fill: #BF0909;}
        .stroke2 {fill: #BFBF09;}
        .stroke3 {fill: #09BF09;}
        .stroke4 {fill: #09BFBF;}
        .stroke5 {fill: #0909BF;}
        .stroke6 {fill: #BF09BF;}
        .stroke7 {fill: #42005e;}
        .stroke8 {fill: #ff3333;}
        .stroke9 {fill: #BFBFBF;}
        .stroke10 {fill: #00a53f;}
        .stroke11 {fill: #fff000;}
        .stroke12 {fill: #6600a5;}
        .stroke13 {fill: #0053a5;}
        .stroke14 {fill: #62c22b;}
        .stroke15 {fill: #BF09BF;}
        .stroke16 {fill: #BF0909;}
        .stroke17 {fill: #BFBF09;}
        .stroke18 {fill: #09BF09;}
        .stroke19 {fill: #09BFBF;}
        .stroke20 {fill: #0909BF;}
        text {
            font-family: Helvetica;
            font-size: 50px;
            fill: #FFFFFF;
            paint-order: stroke;
            stroke: #000000;
            stroke-width: 4px;
            stroke-linecap: butt;
            stroke-linejoin: miter;
            font-weight: 800;
        }
    </style>

    <path d="M 253 701 Q 281 677 313 649 Q 329 634 347 636 Q 359 637 364 652 Q 368 670 357 703 Q 345 734 245 755 Q 227 759 220 755 Q 214 751 217 736 Q 221 723 253 701 Z" class="stroke1"/>
    <path d="M 146 506 Q 200 442 232 427 Q 248 423 259 437 Q 266 450 264 468 Q 252 516 161 546 Q 145 552 134 548 Q 127 547 129 534 Q 130 521 146 506 Z" class="stroke2"/>
    <path d="M 128 142 Q 116 138 118 120 Q 136 42 168 23 Q 175 16 186 19 Q 195 20 195 47 Q 204 102 301 351 Q 308 367 307 374 Q 306 384 297 377 Q 282 368 169 184 Q 156 163 128 142 Z" class="stroke3"/>
    <path d="M 610 686 Q 626 716 645 732 Q 655 742 649 758 Q 645 771 613 795 Q 585 814 564 814 Q 543 811 553 788 Q 569 754 556 725 Q 493 563 327 353 Q 317 343 314 335 Q 310 323 325 326 Q 383 338 529 552 Q 560 598 593 654 Q 594 658 596 660 L 610 686 Z" class="stroke4"/>
    <path d="M 596 660 Q 677 537 785 407 Q 804 385 835 386 Q 943 385 976 390 Q 986 391 988 397 Q 989 403 974 410 Q 830 467 763 526 Q 691 593 610 686 C 590 709 579 685 596 660 Z" class="stroke5"/>
    <path d="M 487 237 Q 638 313 714 339 Q 733 340 732 352 Q 729 371 714 394 Q 698 418 675 425 Q 660 429 656 408 Q 655 393 642 378 Q 587 332 490 265 C 465 248 460 224 487 237 Z" class="stroke6"/>
    <path d="M 490 265 Q 493 308 503 354 Q 509 373 496 383 Q 483 398 457 407 Q 444 411 434 407 Q 427 403 432 383 Q 445 341 443 301 Q 431 132 446 86 Q 450 62 472 43 Q 559 -20 727 12 Q 740 15 754 18 Q 797 30 838 58 Q 857 74 843 101 Q 828 129 806 213 Q 805 229 797 234 Q 790 237 787 219 Q 763 126 746 98 Q 733 82 694 72 Q 604 50 532 76 Q 504 89 497 107 Q 478 147 487 237 L 490 265 Z" class="stroke7"/>
    <text x="227" y="747" style="transform-origin:227px 747px; transform:scale(1,-1);">1</text>
    <text x="142" y="537" style="transform-origin:142px 537px; transform:scale(1,-1);">2</text>
    <text x="180" y="31" style="transform-origin:180px 31px; transform:scale(1,-1);">3</text>
    <text x="564" y="799" style="transform-origin:564px 799px; transform:scale(1,-1);">4</text>
    <text x="612" y="676" style="transform-origin:612px 676px; transform:scale(1,-1);">5</text>
    <text x="671" y="410" style="transform-origin:671px 410px; transform:scale(1,-1);">6</text>
    <text x="441" y="398" style="transform-origin:441px 398px; transform:scale(1,-1);">7</text></g>
</svg>