<svg version="1.1" viewBox="0 0 1024 1024" xmlns="http://www.w3.org/2000/svg">
  <g stroke="lightgray" stroke-dasharray="1,1" stroke-width="1" transform="scale(4, 4)">
    <line x1="0" y1="0" x2="256" y2="256"/>
    <line x1="256" y1="0" x2="0" y2="256"/>
    <line x1="128" y1="0" x2="128" y2="256"/>
    <line x1="0" y1="128" x2="256" y2="128"/>
  </g>
  <g transform="scale(1, -1) translate(0, -900)">
    <style type="text/css">
        .stroke1 {fill: #BF0909;}
        .stroke2 {fill: #BFBF09;}
        .stroke3 {fill: #09BF09;}
        .stroke4 {fill: #09BFBF;}
        .stroke5 {fill: #0909BF;}
        .stroke6 {fill: #BF09BF;}
        .stroke7 {fill: #42005e;}
        .stroke8 {fill: #ff3333;}
        .stroke9 {fill: #BFBFBF;}
        .stroke10 {fill: #00a53f;}
        .stroke11 {fill: #fff000;}
        .stroke12 {fill: #6600a5;}
        .stroke13 {fill: #0053a5;}
        .stroke14 {fill: #62c22b;}
        .stroke15 {fill: #BF09BF;}
        .stroke16 {fill: #BF0909;}
        .stroke17 {fill: #BFBF09;}
        .stroke18 {fill: #09BF09;}
        .stroke19 {fill: #09BFBF;}
        .stroke20 {fill: #0909BF;}
        text {
            font-family: Helvetica;
            font-size: 50px;
            fill: #FFFFFF;
            paint-order: stroke;
            stroke: #000000;
            stroke-width: 4px;
            stroke-linecap: butt;
            stroke-linejoin: miter;
            font-weight: 800;
        }
    </style>

    <path d="M 222 717 Q 250 693 281 665 Q 296 652 313 653 Q 323 654 329 668 Q 333 684 323 715 Q 311 746 215 767 Q 199 770 192 767 Q 186 763 189 749 Q 193 739 222 717 Z" class="stroke1"/>
    <path d="M 126 499 Q 168 447 202 431 Q 217 427 227 441 Q 234 454 231 471 Q 225 496 208 509 Q 160 542 122 542 Q 116 542 113 540 Q 107 539 109 526 Q 110 514 126 499 Z" class="stroke2"/>
    <path d="M 125 146 Q 113 142 115 124 Q 127 49 164 27 Q 171 20 182 23 Q 189 24 191 50 Q 200 101 297 347 Q 304 363 303 370 Q 302 380 293 373 Q 283 366 270 349 Q 215 262 165 187 Q 153 166 125 146 Z" class="stroke3"/>
    <path d="M 571 790 Q 602 765 637 736 Q 653 723 669 725 Q 679 726 685 740 Q 689 756 677 787 Q 665 820 563 840 Q 547 843 540 839 Q 534 835 537 821 Q 541 811 571 790 Z" class="stroke4"/>
    <path d="M 433 625 Q 433 626 433 627 Q 421 651 410 659 Q 391 674 389 648 Q 395 611 335 546 Q 314 522 343 467 Q 358 440 378 468 Q 394 492 406 528 Q 421 571 431 597 L 433 625 Z" class="stroke5"/>
    <path d="M 431 597 Q 452 587 494 594 Q 614 634 764 647 Q 774 648 781 647 Q 799 634 796 626 Q 796 623 772 550 Q 766 537 773 533 Q 780 530 795 542 Q 844 584 886 601 Q 920 616 919 624 Q 918 634 847 679 Q 826 694 736 675 Q 679 669 513 637 Q 473 630 433 625 C 403 621 402 605 431 597 Z" class="stroke6"/>
    <path d="M 624 400 Q 691 410 796 412 Q 847 412 853 422 Q 857 434 841 446 Q 784 485 718 463 Q 613 439 391 402 Q 372 399 387 383 Q 400 370 418 366 Q 439 362 454 366 Q 511 384 575 392 L 624 400 Z" class="stroke7"/>
    <path d="M 561 69 Q 525 76 490 83 Q 478 86 479 78 Q 480 71 491 64 Q 567 3 595 -34 Q 610 -50 625 -37 Q 659 -1 658 68 Q 655 95 651 266 Q 650 315 663 347 Q 672 366 655 379 Q 640 392 624 400 C 598 415 557 416 575 392 Q 600 367 599 306 Q 603 171 598 101 Q 597 80 585 72 Q 576 65 561 69 Z" class="stroke8"/>
    <text x="198" y="759" style="transform-origin:198px 759px; transform:scale(1,-1);">1</text>
    <text x="120" y="530" style="transform-origin:120px 530px; transform:scale(1,-1);">2</text>
    <text x="176" y="33" style="transform-origin:176px 33px; transform:scale(1,-1);">3</text>
    <text x="547" y="831" style="transform-origin:547px 831px; transform:scale(1,-1);">4</text>
    <text x="400" y="653" style="transform-origin:400px 653px; transform:scale(1,-1);">5</text>
    <text x="441" y="617" style="transform-origin:441px 617px; transform:scale(1,-1);">6</text>
    <text x="390" y="392" style="transform-origin:390px 392px; transform:scale(1,-1);">7</text>
    <text x="582" y="390" style="transform-origin:582px 390px; transform:scale(1,-1);">8</text></g>
</svg>