<svg version="1.1" viewBox="0 0 1024 1024" xmlns="http://www.w3.org/2000/svg">
  <g stroke="lightgray" stroke-dasharray="1,1" stroke-width="1" transform="scale(4, 4)">
    <line x1="0" y1="0" x2="256" y2="256"/>
    <line x1="256" y1="0" x2="0" y2="256"/>
    <line x1="128" y1="0" x2="128" y2="256"/>
    <line x1="0" y1="128" x2="256" y2="128"/>
  </g>
  <g transform="scale(1, -1) translate(0, -900)">
    <style type="text/css">
        .stroke1 {fill: #BF0909;}
        .stroke2 {fill: #BFBF09;}
        .stroke3 {fill: #09BF09;}
        .stroke4 {fill: #09BFBF;}
        .stroke5 {fill: #0909BF;}
        .stroke6 {fill: #BF09BF;}
        .stroke7 {fill: #42005e;}
        .stroke8 {fill: #ff3333;}
        .stroke9 {fill: #BFBFBF;}
        .stroke10 {fill: #00a53f;}
        .stroke11 {fill: #fff000;}
        .stroke12 {fill: #6600a5;}
        .stroke13 {fill: #0053a5;}
        .stroke14 {fill: #62c22b;}
        .stroke15 {fill: #BF09BF;}
        .stroke16 {fill: #BF0909;}
        .stroke17 {fill: #BFBF09;}
        .stroke18 {fill: #09BF09;}
        .stroke19 {fill: #09BFBF;}
        .stroke20 {fill: #0909BF;}
        text {
            font-family: Helvetica;
            font-size: 50px;
            fill: #FFFFFF;
            paint-order: stroke;
            stroke: #000000;
            stroke-width: 4px;
            stroke-linecap: butt;
            stroke-linejoin: miter;
            font-weight: 800;
        }
    </style>

    <path d="M 234 699 Q 265 672 297 640 Q 312 624 330 625 Q 343 626 348 641 Q 354 657 344 692 Q 338 714 303 731 Q 219 764 204 755 Q 198 751 200 736 Q 204 723 234 699 Z" class="stroke1"/>
    <path d="M 127 512 Q 181 445 215 431 Q 231 427 242 441 Q 249 454 248 474 Q 233 528 145 553 Q 144 554 143 554 Q 124 561 114 557 Q 107 556 109 542 Q 110 529 127 512 Z" class="stroke2"/>
    <path d="M 134 137 Q 121 133 125 113 Q 146 32 183 12 Q 192 5 203 9 Q 210 10 211 39 Q 214 72 306 365 Q 313 383 312 390 Q 311 400 300 393 Q 287 383 175 183 Q 163 161 134 137 Z" class="stroke3"/>
    <path d="M 544 520 Q 619 538 763 560 Q 776 559 785 574 Q 786 587 760 598 Q 721 622 640 594 Q 568 576 554 570 L 494 557 Q 437 551 360 537 Q 327 531 353 513 Q 386 488 436 496 Q 457 502 484 507 L 544 520 Z" class="stroke4"/>
    <path d="M 484 507 Q 433 303 342 166 Q 335 157 328 146 Q 300 101 269 60 Q 263 53 261 47 Q 257 35 269 37 Q 302 43 395 162 Q 419 198 443 239 Q 509 365 544 520 L 554 570 Q 578 717 588 742 Q 598 757 591 771 Q 575 790 542 808 Q 523 821 508 817 Q 495 810 500 794 Q 521 761 515 705 Q 502 603 494 557 L 484 507 Z" class="stroke5"/>
    <path d="M 569 144 Q 573 90 608 63 Q 657 24 840 28 Q 922 32 955 49 Q 986 65 974 97 Q 956 149 947 240 Q 946 256 938 262 Q 929 268 925 246 Q 906 135 890 115 Q 859 85 745 81 Q 681 82 654 92 Q 620 110 614 180 L 612 229 Q 612 328 638 391 Q 651 422 631 440 Q 579 480 562 477 Q 546 470 554 453 Q 575 413 569 355 Q 565 249 566 187 L 569 144 Z" class="stroke6"/>
    <path d="M 566 187 Q 520 148 468 106 Q 458 99 454 94 Q 448 84 461 84 Q 485 84 569 144 L 614 180 Q 672 226 743 298 Q 774 335 800 351 Q 810 358 809 372 Q 808 384 787 410 Q 768 431 750 434 Q 734 435 736 415 Q 743 385 727 364 Q 678 292 612 229 L 566 187 Z" class="stroke7"/>
    <path d="M 709 703 Q 740 678 775 649 Q 790 636 806 638 Q 816 639 821 652 Q 825 668 814 697 Q 802 731 702 751 Q 686 754 680 751 Q 676 747 677 734 Q 681 724 709 703 Z" class="stroke8"/>
    <text x="209" y="747" style="transform-origin:209px 747px; transform:scale(1,-1);">1</text>
    <text x="121" y="546" style="transform-origin:121px 546px; transform:scale(1,-1);">2</text>
    <text x="196" y="19" style="transform-origin:196px 19px; transform:scale(1,-1);">3</text>
    <text x="354" y="526" style="transform-origin:354px 526px; transform:scale(1,-1);">4</text>
    <text x="514" y="803" style="transform-origin:514px 803px; transform:scale(1,-1);">5</text>
    <text x="565" y="464" style="transform-origin:565px 464px; transform:scale(1,-1);">6</text>
    <text x="748" y="420" style="transform-origin:748px 420px; transform:scale(1,-1);">7</text>
    <text x="685" y="745" style="transform-origin:685px 745px; transform:scale(1,-1);">8</text></g>
</svg>