<svg version="1.1" viewBox="0 0 1024 1024" xmlns="http://www.w3.org/2000/svg">
  <g stroke="lightgray" stroke-dasharray="1,1" stroke-width="1" transform="scale(4, 4)">
    <line x1="0" y1="0" x2="256" y2="256"/>
    <line x1="256" y1="0" x2="0" y2="256"/>
    <line x1="128" y1="0" x2="128" y2="256"/>
    <line x1="0" y1="128" x2="256" y2="128"/>
  </g>
  <g transform="scale(1, -1) translate(0, -900)">
    <style type="text/css">
        .stroke1 {fill: #BF0909;}
        .stroke2 {fill: #BFBF09;}
        .stroke3 {fill: #09BF09;}
        .stroke4 {fill: #09BFBF;}
        .stroke5 {fill: #0909BF;}
        .stroke6 {fill: #BF09BF;}
        .stroke7 {fill: #42005e;}
        .stroke8 {fill: #ff3333;}
        .stroke9 {fill: #BFBFBF;}
        .stroke10 {fill: #00a53f;}
        .stroke11 {fill: #fff000;}
        .stroke12 {fill: #6600a5;}
        .stroke13 {fill: #0053a5;}
        .stroke14 {fill: #62c22b;}
        .stroke15 {fill: #BF09BF;}
        .stroke16 {fill: #BF0909;}
        .stroke17 {fill: #BFBF09;}
        .stroke18 {fill: #09BF09;}
        .stroke19 {fill: #09BFBF;}
        .stroke20 {fill: #0909BF;}
        text {
            font-family: Helvetica;
            font-size: 50px;
            fill: #FFFFFF;
            paint-order: stroke;
            stroke: #000000;
            stroke-width: 4px;
            stroke-linecap: butt;
            stroke-linejoin: miter;
            font-weight: 800;
        }
    </style>

    <path d="M 226 678 Q 251 656 279 630 Q 294 617 311 617 Q 323 618 328 632 Q 334 648 323 681 Q 311 711 220 731 Q 204 735 196 731 Q 190 727 192 713 Q 196 700 226 678 Z" class="stroke1"/>
    <path d="M 117 505 Q 165 457 199 444 Q 215 443 223 456 Q 227 469 224 487 Q 217 511 197 522 Q 157 547 113 547 Q 106 547 101 544 Q 94 543 98 530 Q 101 518 117 505 Z" class="stroke2"/>
    <path d="M 113 167 Q 101 163 103 146 Q 115 79 150 56 Q 157 50 167 52 Q 174 53 175 78 Q 178 108 261 337 Q 268 353 267 358 Q 266 368 257 362 Q 248 356 147 201 Q 137 185 113 167 Z" class="stroke3"/>
    <path d="M 512 787 Q 570 733 613 718 Q 629 717 639 732 Q 643 747 639 766 Q 620 817 526 830 Q 523 831 522 831 Q 503 835 493 829 Q 486 828 490 814 Q 493 801 512 787 Z" class="stroke4"/>
    <path d="M 610 417 Q 610 546 625 572 Q 638 591 626 601 Q 604 620 568 636 Q 547 645 501 619 Q 459 607 415 600 Q 399 599 408 590 Q 417 580 431 574 Q 449 570 524 590 Q 543 596 549 585 Q 559 552 557 295 Q 551 85 536 61 Q 530 57 443 72 Q 422 76 425 67 Q 492 21 530 -14 Q 543 -33 559 -37 Q 569 -41 577 -31 Q 619 21 614 74 Q 610 195 610 371 L 610 417 Z" class="stroke5"/>
    <path d="M 281 418 Q 269 418 268 410 Q 267 404 281 396 Q 324 374 349 384 Q 425 409 432 409 Q 445 406 436 381 Q 393 270 354 217 Q 314 159 242 97 Q 229 85 238 83 Q 248 82 266 92 Q 330 126 384 185 Q 436 239 501 379 Q 511 400 521 411 Q 534 421 526 431 Q 516 443 481 454 Q 463 463 411 441 Q 344 426 281 418 Z" class="stroke6"/>
    <path d="M 632 393 Q 699 433 737 463 Q 819 526 843 535 Q 868 545 856 566 Q 841 585 812 602 Q 785 618 771 614 Q 756 613 761 598 Q 767 562 638 425 Q 632 419 621 405 C 602 382 606 378 632 393 Z" class="stroke7"/>
    <path d="M 621 405 Q 614 412 610 417 C 590 439 593 395 610 371 Q 758 161 799 145 Q 868 126 969 133 Q 988 133 990 138 Q 994 145 979 152 Q 805 242 803 243 Q 700 312 632 393 L 621 405 Z" class="stroke8"/>
    <text x="203" y="722" style="transform-origin:203px 722px; transform:scale(1,-1);">1</text>
    <text x="110" y="535" style="transform-origin:110px 535px; transform:scale(1,-1);">2</text>
    <text x="162" y="61" style="transform-origin:162px 61px; transform:scale(1,-1);">3</text>
    <text x="502" y="819" style="transform-origin:502px 819px; transform:scale(1,-1);">4</text>
    <text x="418" y="591" style="transform-origin:418px 591px; transform:scale(1,-1);">5</text>
    <text x="277" y="410" style="transform-origin:277px 410px; transform:scale(1,-1);">6</text>
    <text x="770" y="604" style="transform-origin:770px 604px; transform:scale(1,-1);">7</text>
    <text x="615" y="405" style="transform-origin:615px 405px; transform:scale(1,-1);">8</text></g>
</svg>