<svg version="1.1" viewBox="0 0 1024 1024" xmlns="http://www.w3.org/2000/svg">
  <g stroke="lightgray" stroke-dasharray="1,1" stroke-width="1" transform="scale(4, 4)">
    <line x1="0" y1="0" x2="256" y2="256"/>
    <line x1="256" y1="0" x2="0" y2="256"/>
    <line x1="128" y1="0" x2="128" y2="256"/>
    <line x1="0" y1="128" x2="256" y2="128"/>
  </g>
  <g transform="scale(1, -1) translate(0, -900)">
    <style type="text/css">
        .stroke1 {fill: #BF0909;}
        .stroke2 {fill: #BFBF09;}
        .stroke3 {fill: #09BF09;}
        .stroke4 {fill: #09BFBF;}
        .stroke5 {fill: #0909BF;}
        .stroke6 {fill: #BF09BF;}
        .stroke7 {fill: #42005e;}
        .stroke8 {fill: #ff3333;}
        .stroke9 {fill: #BFBFBF;}
        .stroke10 {fill: #00a53f;}
        .stroke11 {fill: #fff000;}
        .stroke12 {fill: #6600a5;}
        .stroke13 {fill: #0053a5;}
        .stroke14 {fill: #62c22b;}
        .stroke15 {fill: #BF09BF;}
        .stroke16 {fill: #BF0909;}
        .stroke17 {fill: #BFBF09;}
        .stroke18 {fill: #09BF09;}
        .stroke19 {fill: #09BFBF;}
        .stroke20 {fill: #0909BF;}
        text {
            font-family: Helvetica;
            font-size: 50px;
            fill: #FFFFFF;
            paint-order: stroke;
            stroke: #000000;
            stroke-width: 4px;
            stroke-linecap: butt;
            stroke-linejoin: miter;
            font-weight: 800;
        }
    </style>

    <path d="M 208 699 Q 236 677 267 648 Q 283 635 300 636 Q 312 637 317 652 Q 321 668 310 701 Q 303 722 269 735 Q 188 760 176 751 Q 170 747 173 733 Q 177 720 208 699 Z" class="stroke1"/>
    <path d="M 119 504 Q 167 450 202 434 Q 218 431 227 445 Q 233 458 230 475 Q 215 520 132 543 Q 116 547 105 544 Q 99 543 102 530 Q 103 518 119 504 Z" class="stroke2"/>
    <path d="M 112 130 Q 100 126 102 108 Q 120 30 153 11 Q 160 4 170 7 Q 179 8 179 35 Q 185 77 293 355 Q 300 371 299 378 Q 298 388 289 381 Q 279 375 155 176 Q 142 154 112 130 Z" class="stroke3"/>
    <path d="M 516 686 Q 526 704 584 773 Q 594 785 582 801 Q 542 837 517 835 Q 505 834 507 819 Q 508 720 402 622 Q 375 598 362 584 Q 352 569 368 573 Q 417 577 499 665 L 516 686 Z" class="stroke4"/>
    <path d="M 580 534 Q 704 660 722 670 Q 741 680 728 696 Q 713 709 672 732 Q 654 739 638 727 Q 629 723 554 696 Q 536 692 516 686 C 487 678 472 673 499 665 Q 514 655 590 670 Q 609 677 618 674 Q 622 670 617 660 Q 580 581 557 543 Q 550 533 547 525 C 534 498 559 513 580 534 Z" class="stroke5"/>
    <path d="M 384 499 Q 372 505 344 508 Q 332 511 329 506 Q 322 499 332 484 Q 360 429 379 337 Q 383 309 400 291 Q 418 269 423 285 Q 426 295 426 311 L 422 344 Q 407 435 401 466 C 396 494 396 494 384 499 Z" class="stroke6"/>
    <path d="M 729 392 Q 760 468 792 485 Q 811 504 795 524 Q 779 539 723 567 Q 704 576 680 568 Q 628 549 580 534 L 547 525 Q 543 526 541 525 Q 465 509 384 499 C 354 495 372 458 401 466 Q 443 478 502 487 L 543 495 Q 676 528 692 514 Q 699 505 697 487 Q 685 435 670 393 C 660 365 717 364 729 392 Z" class="stroke7"/>
    <path d="M 549 331 Q 628 346 744 358 Q 754 359 756 368 Q 756 375 729 392 C 713 402 699 399 670 393 Q 610 380 558 368 L 504 357 Q 461 350 422 344 C 392 339 396 306 426 311 L 495 322 L 549 331 Z" class="stroke8"/>
    <path d="M 495 322 Q 452 187 309 33 Q 303 26 310 23 Q 317 22 327 28 Q 460 109 528 269 Q 538 297 549 331 L 558 368 Q 562 381 565 395 Q 574 426 585 455 Q 591 465 584 474 Q 578 483 543 495 C 515 505 496 513 502 487 Q 502 484 504 480 Q 520 411 504 357 L 495 322 Z" class="stroke9"/>
    <path d="M 947 69 Q 932 97 910 181 Q 909 197 901 202 Q 894 205 891 187 Q 867 94 850 66 Q 819 32 721 34 Q 684 34 655 45 Q 630 57 623 72 Q 602 114 629 257 Q 635 287 586 307 Q 573 311 565 306 Q 558 302 564 285 Q 576 246 573 209 Q 563 46 601 12 Q 685 -51 858 -14 Q 859 -13 864 -12 Q 904 0 942 26 Q 961 42 947 69 Z" class="stroke10"/>
    <text x="182" y="743" style="transform-origin:182px 743px; transform:scale(1,-1);">1</text>
    <text x="112" y="535" style="transform-origin:112px 535px; transform:scale(1,-1);">2</text>
    <text x="165" y="19" style="transform-origin:165px 19px; transform:scale(1,-1);">3</text>
    <text x="518" y="823" style="transform-origin:518px 823px; transform:scale(1,-1);">4</text>
    <text x="505" y="669" style="transform-origin:505px 669px; transform:scale(1,-1);">5</text>
    <text x="338" y="498" style="transform-origin:338px 498px; transform:scale(1,-1);">6</text>
    <text x="393" y="496" style="transform-origin:393px 496px; transform:scale(1,-1);">7</text>
    <text x="432" y="317" style="transform-origin:432px 317px; transform:scale(1,-1);">8</text>
    <text x="509" y="485" style="transform-origin:509px 485px; transform:scale(1,-1);">9</text>
    <text x="573" y="297" style="transform-origin:573px 297px; transform:scale(1,-1);">10</text></g>
</svg>