<svg version="1.1" viewBox="0 0 1024 1024" xmlns="http://www.w3.org/2000/svg">
  <g stroke="lightgray" stroke-dasharray="1,1" stroke-width="1" transform="scale(4, 4)">
    <line x1="0" y1="0" x2="256" y2="256"/>
    <line x1="256" y1="0" x2="0" y2="256"/>
    <line x1="128" y1="0" x2="128" y2="256"/>
    <line x1="0" y1="128" x2="256" y2="128"/>
  </g>
  <g transform="scale(1, -1) translate(0, -900)">
    <style type="text/css">
        .stroke1 {fill: #BF0909;}
        .stroke2 {fill: #BFBF09;}
        .stroke3 {fill: #09BF09;}
        .stroke4 {fill: #09BFBF;}
        .stroke5 {fill: #0909BF;}
        .stroke6 {fill: #BF09BF;}
        .stroke7 {fill: #42005e;}
        .stroke8 {fill: #ff3333;}
        .stroke9 {fill: #BFBFBF;}
        .stroke10 {fill: #00a53f;}
        .stroke11 {fill: #fff000;}
        .stroke12 {fill: #6600a5;}
        .stroke13 {fill: #0053a5;}
        .stroke14 {fill: #62c22b;}
        .stroke15 {fill: #BF09BF;}
        .stroke16 {fill: #BF0909;}
        .stroke17 {fill: #BFBF09;}
        .stroke18 {fill: #09BF09;}
        .stroke19 {fill: #09BFBF;}
        .stroke20 {fill: #0909BF;}
        text {
            font-family: Helvetica;
            font-size: 50px;
            fill: #FFFFFF;
            paint-order: stroke;
            stroke: #000000;
            stroke-width: 4px;
            stroke-linecap: butt;
            stroke-linejoin: miter;
            font-weight: 800;
        }
    </style>

    <path d="M 186 699 Q 234 645 254 645 Q 267 646 272 661 Q 278 677 269 712 Q 260 737 181 754 Q 163 758 156 755 Q 150 751 152 736 Q 156 723 186 699 Z" class="stroke1"/>
    <path d="M 104 498 Q 140 447 169 429 Q 184 425 195 437 Q 202 450 201 467 Q 197 492 181 507 Q 136 541 105 541 Q 98 542 94 540 Q 87 539 89 527 Q 89 514 104 498 Z" class="stroke2"/>
    <path d="M 83 117 Q 71 113 75 95 Q 97 23 132 7 Q 139 1 150 5 Q 157 6 156 32 Q 156 75 224 320 Q 228 336 228 342 Q 227 352 217 345 Q 207 336 116 159 Q 106 138 83 117 Z" class="stroke3"/>
    <path d="M 374 481 Q 459 601 473 621 Q 527 732 539 743 C 547 754 547 754 547 754 Q 548 758 545 764 Q 541 774 488 795 Q 475 799 454 788 Q 429 775 368 761 Q 355 760 365 747 Q 375 735 407 741 Q 452 751 455 746 Q 459 733 443 685 Q 433 648 404 599 L 393 582 Q 386 572 378 559 Q 329 481 241 404 Q 219 389 238 391 Q 290 397 358 464 L 374 481 Z" class="stroke4"/>
    <path d="M 404 599 Q 403 611 396 627 Q 378 654 323 660 Q 314 661 314 651 Q 313 644 355 596 Q 371 581 386 581 Q 389 581 393 582 C 406 585 406 585 404 599 Z" class="stroke5"/>
    <path d="M 610 724 Q 640 751 672 784 Q 684 800 702 813 Q 718 825 705 838 Q 692 848 668 856 Q 646 863 636 858 Q 626 854 632 844 Q 639 826 609 762 Q 603 752 597 737 C 586 709 588 704 610 724 Z" class="stroke6"/>
    <path d="M 678 649 Q 679 649 681 649 Q 711 665 778 707 Q 794 720 817 730 Q 836 739 827 755 Q 815 771 792 784 Q 770 797 759 794 Q 747 793 751 781 Q 754 760 674 661 Q 673 660 671 656 C 664 645 664 645 678 649 Z" class="stroke7"/>
    <path d="M 539 743 Q 546 736 557 729 Q 578 720 664 603 Q 733 507 806 453 Q 827 443 935 456 Q 945 457 957 459 Q 970 460 982 466 Q 989 473 978 481 Q 963 490 850 529 Q 774 553 678 649 L 671 656 Q 641 687 610 724 L 597 737 Q 581 752 558 756 Q 552 757 547 754 C 527 753 527 753 539 743 Z" class="stroke8"/>
    <path d="M 485 390 Q 504 439 524 452 Q 543 473 525 486 Q 509 496 487 513 Q 472 523 455 514 Q 440 502 419 495 Q 400 488 374 481 C 345 473 328 468 358 464 Q 367 460 442 470 Q 443 471 447 471 Q 460 474 463 468 Q 467 464 458 441 Q 451 423 442 402 C 430 374 474 362 485 390 Z" class="stroke9"/>
    <path d="M 382 352 Q 415 362 487 369 Q 496 370 497 378 Q 497 382 485 390 C 463 406 463 406 442 402 Q 435 401 429 399 Q 392 387 364 380 C 335 373 353 344 382 352 Z" class="stroke10"/>
    <path d="M 364 380 Q 357 386 346 391 Q 336 400 328 395 Q 319 389 328 377 Q 340 355 330 319 Q 318 273 297 255 Q 287 242 291 231 Q 298 219 307 213 Q 316 206 332 220 Q 365 259 417 264 Q 432 265 437 258 Q 446 248 441 218 Q 425 116 384 78 Q 378 74 318 89 Q 305 95 306 85 Q 307 75 320 63 Q 342 35 355 11 Q 368 -8 385 2 Q 439 36 455 84 Q 500 240 504 246 Q 514 261 505 269 Q 495 284 469 297 Q 450 307 408 288 Q 363 272 360 272 Q 357 275 360 282 Q 381 340 382 352 C 386 367 386 367 364 380 Z" class="stroke11"/>
    <path d="M 593 491 Q 583 501 564 507 Q 551 514 542 511 Q 535 505 539 496 Q 558 477 545 393 L 545 391 Q 541 370 524 331 Q 520 327 519 322 Q 518 315 525 316 Q 546 322 570 366 Q 582 393 595 462 C 599 485 599 485 593 491 Z" class="stroke12"/>
    <path d="M 595 462 Q 655 486 659 486 Q 665 485 665 474 Q 659 381 672 367 Q 675 363 682 357 Q 706 344 751 345 Q 796 346 818 358 Q 830 362 822 375 Q 810 388 796 396 Q 787 400 769 393 Q 712 366 698 396 Q 694 408 702 440 Q 706 459 727 479 Q 740 491 728 502 Q 709 517 689 525 Q 680 529 668 522 Q 637 506 611 497 Q 602 496 593 491 C 565 479 567 451 595 462 Z" class="stroke13"/>
    <path d="M 696 158 Q 715 192 735 237 Q 745 262 763 279 Q 779 294 768 305 Q 756 315 728 325 Q 713 331 636 300 Q 608 291 562 283 Q 550 282 546 276 Q 543 269 559 263 Q 592 253 634 266 Q 662 281 668 282 Q 687 281 683 258 Q 673 212 655 178 L 635 145 Q 584 87 499 63 Q 487 59 498 51 Q 502 48 532 50 Q 604 56 668 119 L 696 158 Z" class="stroke14"/>
    <path d="M 668 119 Q 731 71 800 9 Q 816 -7 831 -11 Q 838 -11 845 -1 Q 855 12 840 50 Q 825 95 704 155 Q 700 156 696 158 L 655 178 Q 610 200 581 213 Q 572 217 571 206 Q 572 193 582 185 Q 607 167 635 145 L 668 119 Z" class="stroke15"/>
    <text x="162" y="747" style="transform-origin:162px 747px; transform:scale(1,-1);">1</text>
    <text x="100" y="530" style="transform-origin:100px 530px; transform:scale(1,-1);">2</text>
    <text x="143" y="15" style="transform-origin:143px 15px; transform:scale(1,-1);">3</text>
    <text x="375" y="752" style="transform-origin:375px 752px; transform:scale(1,-1);">4</text>
    <text x="323" y="651" style="transform-origin:323px 651px; transform:scale(1,-1);">5</text>
    <text x="643" y="849" style="transform-origin:643px 849px; transform:scale(1,-1);">6</text>
    <text x="764" y="782" style="transform-origin:764px 782px; transform:scale(1,-1);">7</text>
    <text x="548" y="745" style="transform-origin:548px 745px; transform:scale(1,-1);">8</text>
    <text x="367" y="467" style="transform-origin:367px 467px; transform:scale(1,-1);">9</text>
    <text x="371" y="378" style="transform-origin:371px 378px; transform:scale(1,-1);">10</text>
    <text x="334" y="386" style="transform-origin:334px 386px; transform:scale(1,-1);">11</text>
    <text x="547" y="502" style="transform-origin:547px 502px; transform:scale(1,-1);">12</text>
    <text x="604" y="470" style="transform-origin:604px 470px; transform:scale(1,-1);">13</text>
    <text x="552" y="274" style="transform-origin:552px 274px; transform:scale(1,-1);">14</text>
    <text x="581" y="202" style="transform-origin:581px 202px; transform:scale(1,-1);">15</text></g>
</svg>