<svg version="1.1" viewBox="0 0 1024 1024" xmlns="http://www.w3.org/2000/svg">
  <g stroke="lightgray" stroke-dasharray="1,1" stroke-width="1" transform="scale(4, 4)">
    <line x1="0" y1="0" x2="256" y2="256"/>
    <line x1="256" y1="0" x2="0" y2="256"/>
    <line x1="128" y1="0" x2="128" y2="256"/>
    <line x1="0" y1="128" x2="256" y2="128"/>
  </g>
  <g transform="scale(1, -1) translate(0, -900)">
    <style type="text/css">
        .stroke1 {fill: #BF0909;}
        .stroke2 {fill: #BFBF09;}
        .stroke3 {fill: #09BF09;}
        .stroke4 {fill: #09BFBF;}
        .stroke5 {fill: #0909BF;}
        .stroke6 {fill: #BF09BF;}
        .stroke7 {fill: #42005e;}
        .stroke8 {fill: #ff3333;}
        .stroke9 {fill: #BFBFBF;}
        .stroke10 {fill: #00a53f;}
        .stroke11 {fill: #fff000;}
        .stroke12 {fill: #6600a5;}
        .stroke13 {fill: #0053a5;}
        .stroke14 {fill: #62c22b;}
        .stroke15 {fill: #BF09BF;}
        .stroke16 {fill: #BF0909;}
        .stroke17 {fill: #BFBF09;}
        .stroke18 {fill: #09BF09;}
        .stroke19 {fill: #09BFBF;}
        .stroke20 {fill: #0909BF;}
        text {
            font-family: Helvetica;
            font-size: 50px;
            fill: #FFFFFF;
            paint-order: stroke;
            stroke: #000000;
            stroke-width: 4px;
            stroke-linecap: butt;
            stroke-linejoin: miter;
            font-weight: 800;
        }
    </style>

    <path d="M 142 534 Q 133 471 113 412 Q 109 400 112 385 Q 116 361 126 349 Q 138 334 154 351 Q 194 405 179 486 Q 176 517 164 539 Q 157 546 152 545 Q 145 542 142 534 Z" class="stroke1"/>
    <path d="M 306 502 Q 349 523 398 552 Q 416 565 438 573 Q 457 580 450 598 Q 438 614 416 629 Q 395 642 384 641 Q 372 640 375 628 Q 376 603 332 556 Q 319 544 307 530 C 287 507 279 489 306 502 Z" class="stroke2"/>
    <path d="M 295 273 Q 301 315 306 502 L 307 530 Q 308 653 330 713 Q 337 729 325 740 Q 301 759 258 770 Q 231 776 222 768 Q 212 761 221 748 Q 281 658 247 299 Q 232 160 141 69 Q 117 48 88 25 Q 75 15 76 11 Q 77 7 90 8 Q 103 4 137 21 Q 261 72 290 239 L 295 273 Z" class="stroke3"/>
    <path d="M 290 239 Q 293 235 299 230 Q 330 199 362 163 Q 372 151 386 150 Q 396 150 401 161 Q 407 173 401 200 Q 398 222 367 242 Q 307 273 295 273 C 265 278 270 262 290 239 Z" class="stroke4"/>
    <path d="M 577 725 Q 610 700 645 668 Q 661 655 679 656 Q 692 657 696 672 Q 700 690 689 723 Q 682 745 645 761 Q 560 786 544 780 Q 538 774 541 760 Q 545 747 577 725 Z" class="stroke5"/>
    <path d="M 466 542 Q 424 535 455 516 Q 501 489 566 508 Q 681 536 801 565 Q 856 580 864 588 Q 874 597 868 607 Q 859 620 826 627 Q 798 631 691 593 Q 555 554 466 542 Z" class="stroke6"/>
    <path d="M 672 198 Q 720 276 731 406 Q 732 436 738 455 Q 742 471 732 478 Q 708 500 682 508 Q 657 518 646 514 Q 636 507 640 495 Q 688 374 632 239 L 606 197 Q 537 113 397 52 Q 373 43 367 37 Q 360 33 371 28 Q 378 27 394 29 Q 496 48 566 93 Q 609 118 640 153 L 672 198 Z" class="stroke7"/>
    <path d="M 640 153 Q 692 83 743 25 Q 761 3 791 3 Q 953 7 965 22 Q 969 29 958 34 Q 768 103 682 189 Q 676 193 672 198 L 632 239 Q 580 294 520 365 Q 507 384 488 387 Q 463 388 455 380 Q 452 374 460 369 Q 500 347 525 308 Q 565 250 606 197 L 640 153 Z" class="stroke8"/>
    <text x="154" y="533" style="transform-origin:154px 533px; transform:scale(1,-1);">1</text>
    <text x="387" y="629" style="transform-origin:387px 629px; transform:scale(1,-1);">2</text>
    <text x="229" y="758" style="transform-origin:229px 758px; transform:scale(1,-1);">3</text>
    <text x="297" y="267" style="transform-origin:297px 267px; transform:scale(1,-1);">4</text>
    <text x="548" y="773" style="transform-origin:548px 773px; transform:scale(1,-1);">5</text>
    <text x="457" y="531" style="transform-origin:457px 531px; transform:scale(1,-1);">6</text>
    <text x="652" y="503" style="transform-origin:652px 503px; transform:scale(1,-1);">7</text>
    <text x="462" y="377" style="transform-origin:462px 377px; transform:scale(1,-1);">8</text></g>
</svg>