<svg version="1.1" viewBox="0 0 1024 1024" xmlns="http://www.w3.org/2000/svg">
  <g stroke="lightgray" stroke-dasharray="1,1" stroke-width="1" transform="scale(4, 4)">
    <line x1="0" y1="0" x2="256" y2="256"/>
    <line x1="256" y1="0" x2="0" y2="256"/>
    <line x1="128" y1="0" x2="128" y2="256"/>
    <line x1="0" y1="128" x2="256" y2="128"/>
  </g>
  <g transform="scale(1, -1) translate(0, -900)">
    <style type="text/css">
        .stroke1 {fill: #BF0909;}
        .stroke2 {fill: #BFBF09;}
        .stroke3 {fill: #09BF09;}
        .stroke4 {fill: #09BFBF;}
        .stroke5 {fill: #0909BF;}
        .stroke6 {fill: #BF09BF;}
        .stroke7 {fill: #42005e;}
        .stroke8 {fill: #ff3333;}
        .stroke9 {fill: #BFBFBF;}
        .stroke10 {fill: #00a53f;}
        .stroke11 {fill: #fff000;}
        .stroke12 {fill: #6600a5;}
        .stroke13 {fill: #0053a5;}
        .stroke14 {fill: #62c22b;}
        .stroke15 {fill: #BF09BF;}
        .stroke16 {fill: #BF0909;}
        .stroke17 {fill: #BFBF09;}
        .stroke18 {fill: #09BF09;}
        .stroke19 {fill: #09BFBF;}
        .stroke20 {fill: #0909BF;}
        text {
            font-family: Helvetica;
            font-size: 50px;
            fill: #FFFFFF;
            paint-order: stroke;
            stroke: #000000;
            stroke-width: 4px;
            stroke-linecap: butt;
            stroke-linejoin: miter;
            font-weight: 800;
        }
    </style>

    <path d="M 377 701 Q 566 731 578 741 Q 587 748 582 756 Q 576 768 548 776 Q 518 783 424 754 Q 300 732 238 727 Q 204 723 227 706 Q 266 679 323 693 Q 326 693 332 693 L 377 701 Z" class="stroke1"/>
    <path d="M 286 491 Q 298 503 332 548 L 345 567 Q 408 661 408 664 Q 407 667 407 670 Q 403 680 379 700 Q 378 701 377 701 C 353 719 326 722 332 693 Q 347 657 276 540 Q 242 486 194 426 Q 185 417 183 412 Q 180 403 192 405 Q 211 408 270 472 L 286 491 Z" class="stroke2"/>
    <path d="M 332 548 Q 342 539 371 545 Q 435 560 439 551 Q 443 539 427 494 Q 414 445 364 378 Q 315 306 233 236 Q 211 221 230 223 Q 297 227 387 333 Q 444 400 488 490 Q 509 533 523 546 Q 536 556 529 567 Q 525 577 472 599 Q 459 603 438 592 Q 410 579 345 567 C 316 561 303 557 332 548 Z" class="stroke3"/>
    <path d="M 270 472 Q 274 465 284 453 Q 302 431 319 403 Q 326 391 339 389 Q 348 388 353 397 Q 360 407 358 431 Q 355 456 289 490 Q 288 491 286 491 C 258 502 254 497 270 472 Z" class="stroke4"/>
    <path d="M 582 649 Q 609 595 591 440 Q 585 407 612 378 Q 621 368 630 378 Q 651 408 648 448 Q 642 544 653 621 Q 660 643 640 654 Q 624 664 607 672 Q 595 676 586 670 Q 579 664 582 649 Z" class="stroke5"/>
    <path d="M 746 733 Q 750 711 749 363 Q 749 348 741 342 Q 738 342 684 340 Q 653 350 655 341 Q 656 334 676 320 Q 730 278 743 254 Q 759 226 772 224 Q 785 224 799 257 Q 815 300 811 371 Q 783 647 813 759 Q 829 789 776 809 Q 743 827 725 820 Q 709 813 724 792 Q 745 767 746 733 Z" class="stroke6"/>
    <path d="M 185 199 Q 157 142 121 90 Q 100 57 116 18 Q 123 -1 147 11 Q 172 29 188 62 Q 207 101 210 136 Q 217 172 210 199 Q 206 208 199 209 Q 189 208 185 199 Z" class="stroke7"/>
    <path d="M 346 170 Q 374 97 402 69 Q 415 62 427 70 Q 437 80 441 96 Q 441 150 372 200 L 371 201 Q 358 211 348 211 Q 341 212 340 200 Q 337 188 346 170 Z" class="stroke8"/>
    <path d="M 560 166 Q 585 132 610 91 Q 620 75 637 71 Q 647 70 657 81 Q 666 94 664 128 Q 661 164 567 217 Q 551 224 544 223 Q 538 220 537 207 Q 538 194 560 166 Z" class="stroke9"/>
    <path d="M 790 169 Q 832 117 880 43 Q 895 18 910 12 Q 920 9 929 19 Q 945 31 938 80 Q 935 125 865 165 Q 820 190 796 202 Q 787 209 783 196 Q 780 181 790 169 Z" class="stroke10"/>
    <text x="230" y="718" style="transform-origin:230px 718px; transform:scale(1,-1);">1</text>
    <text x="340" y="691" style="transform-origin:340px 691px; transform:scale(1,-1);">2</text>
    <text x="339" y="550" style="transform-origin:339px 550px; transform:scale(1,-1);">3</text>
    <text x="285" y="484" style="transform-origin:285px 484px; transform:scale(1,-1);">4</text>
    <text x="595" y="660" style="transform-origin:595px 660px; transform:scale(1,-1);">5</text>
    <text x="732" y="806" style="transform-origin:732px 806px; transform:scale(1,-1);">6</text>
    <text x="198" y="197" style="transform-origin:198px 197px; transform:scale(1,-1);">7</text>
    <text x="351" y="200" style="transform-origin:351px 200px; transform:scale(1,-1);">8</text>
    <text x="548" y="215" style="transform-origin:548px 215px; transform:scale(1,-1);">9</text>
    <text x="794" y="189" style="transform-origin:794px 189px; transform:scale(1,-1);">10</text></g>
</svg>