<svg version="1.1" viewBox="0 0 1024 1024" xmlns="http://www.w3.org/2000/svg">
  <g stroke="lightgray" stroke-dasharray="1,1" stroke-width="1" transform="scale(4, 4)">
    <line x1="0" y1="0" x2="256" y2="256"/>
    <line x1="256" y1="0" x2="0" y2="256"/>
    <line x1="128" y1="0" x2="128" y2="256"/>
    <line x1="0" y1="128" x2="256" y2="128"/>
  </g>
  <g transform="scale(1, -1) translate(0, -900)">
    <style type="text/css">
        .stroke1 {fill: #BF0909;}
        .stroke2 {fill: #BFBF09;}
        .stroke3 {fill: #09BF09;}
        .stroke4 {fill: #09BFBF;}
        .stroke5 {fill: #0909BF;}
        .stroke6 {fill: #BF09BF;}
        .stroke7 {fill: #42005e;}
        .stroke8 {fill: #ff3333;}
        .stroke9 {fill: #BFBFBF;}
        .stroke10 {fill: #00a53f;}
        .stroke11 {fill: #fff000;}
        .stroke12 {fill: #6600a5;}
        .stroke13 {fill: #0053a5;}
        .stroke14 {fill: #62c22b;}
        .stroke15 {fill: #BF09BF;}
        .stroke16 {fill: #BF0909;}
        .stroke17 {fill: #BFBF09;}
        .stroke18 {fill: #09BF09;}
        .stroke19 {fill: #09BFBF;}
        .stroke20 {fill: #0909BF;}
        text {
            font-family: Helvetica;
            font-size: 50px;
            fill: #FFFFFF;
            paint-order: stroke;
            stroke: #000000;
            stroke-width: 4px;
            stroke-linecap: butt;
            stroke-linejoin: miter;
            font-weight: 800;
        }
    </style>

    <path d="M 522 596 Q 631 687 673 701 Q 692 708 687 724 Q 683 740 617 778 Q 598 788 576 779 Q 512 757 414 729 Q 389 722 327 723 Q 303 724 311 704 Q 318 691 338 679 Q 369 663 403 682 Q 560 742 575 732 Q 587 725 582 711 Q 546 665 507 608 C 490 583 499 577 522 596 Z" class="stroke1"/>
    <path d="M 544 549 Q 535 585 522 596 L 507 608 Q 498 615 485 619 Q 467 625 459 619 Q 449 615 460 603 Q 511 567 508 456 Q 507 413 494 386 Q 484 364 454 369 Q 427 373 403 378 Q 393 379 397 371 Q 401 364 417 355 Q 453 327 465 306 Q 474 291 487 294 Q 499 295 520 318 Q 565 369 551 511 L 544 549 Z" class="stroke2"/>
    <path d="M 198 533 Q 186 533 185 525 Q 184 519 198 512 Q 238 491 262 500 Q 350 527 359 526 Q 368 522 357 505 Q 315 423 277 382 Q 237 337 167 292 Q 152 282 161 279 Q 171 278 189 284 Q 252 309 304 353 Q 355 392 418 495 Q 428 514 438 523 Q 451 533 445 542 Q 438 552 405 566 Q 387 576 335 556 Q 256 540 198 533 Z" class="stroke3"/>
    <path d="M 601 501 Q 704 564 756 585 Q 775 588 772 600 Q 768 616 750 638 Q 732 659 709 663 Q 694 664 693 644 Q 694 619 586 513 C 565 492 575 485 601 501 Z" class="stroke4"/>
    <path d="M 586 513 Q 558 540 544 549 C 520 567 531 533 551 511 Q 708 333 753 319 Q 813 310 908 328 Q 924 329 926 335 Q 929 341 915 346 Q 744 406 718 422 Q 610 494 601 501 L 586 513 Z" class="stroke5"/>
    <path d="M 326 240 Q 308 239 322 223 Q 335 211 351 207 Q 370 203 385 207 Q 479 235 662 236 Q 680 237 684 245 Q 688 255 673 267 Q 621 303 573 287 Q 477 266 326 240 Z" class="stroke6"/>
    <path d="M 223 165 Q 196 116 162 72 Q 138 39 154 6 Q 160 -13 182 -2 Q 234 34 243 105 Q 250 138 246 163 Q 242 172 236 173 Q 227 173 223 165 Z" class="stroke7"/>
    <path d="M 372 127 Q 403 37 428 27 Q 441 21 453 37 Q 459 49 457 72 Q 453 93 432 111 Q 401 142 385 151 Q 376 155 372 145 Q 368 138 372 127 Z" class="stroke8"/>
    <path d="M 533 142 Q 578 49 599 42 Q 612 38 625 54 Q 629 67 626 90 Q 620 112 597 129 Q 563 160 546 168 Q 537 172 532 161 Q 528 154 533 142 Z" class="stroke9"/>
    <path d="M 700 163 Q 752 108 816 30 Q 832 8 847 2 Q 857 1 865 11 Q 878 24 869 71 Q 859 131 711 192 Q 707 195 703 195 Q 694 202 691 189 Q 690 174 700 163 Z" class="stroke10"/>
    <text x="322" y="711" style="transform-origin:322px 711px; transform:scale(1,-1);">1</text>
    <text x="463" y="611" style="transform-origin:463px 611px; transform:scale(1,-1);">2</text>
    <text x="194" y="525" style="transform-origin:194px 525px; transform:scale(1,-1);">3</text>
    <text x="759" y="598" style="transform-origin:759px 598px; transform:scale(1,-1);">4</text>
    <text x="545" y="543" style="transform-origin:545px 543px; transform:scale(1,-1);">5</text>
    <text x="324" y="232" style="transform-origin:324px 232px; transform:scale(1,-1);">6</text>
    <text x="234" y="161" style="transform-origin:234px 161px; transform:scale(1,-1);">7</text>
    <text x="383" y="138" style="transform-origin:383px 138px; transform:scale(1,-1);">8</text>
    <text x="544" y="155" style="transform-origin:544px 155px; transform:scale(1,-1);">9</text>
    <text x="701" y="183" style="transform-origin:701px 183px; transform:scale(1,-1);">10</text></g>
</svg>