<svg version="1.1" viewBox="0 0 1024 1024" xmlns="http://www.w3.org/2000/svg">
  <g stroke="lightgray" stroke-dasharray="1,1" stroke-width="1" transform="scale(4, 4)">
    <line x1="0" y1="0" x2="256" y2="256"/>
    <line x1="256" y1="0" x2="0" y2="256"/>
    <line x1="128" y1="0" x2="128" y2="256"/>
    <line x1="0" y1="128" x2="256" y2="128"/>
  </g>
  <g transform="scale(1, -1) translate(0, -900)">
    <style type="text/css">
        .stroke1 {fill: #BF0909;}
        .stroke2 {fill: #BFBF09;}
        .stroke3 {fill: #09BF09;}
        .stroke4 {fill: #09BFBF;}
        .stroke5 {fill: #0909BF;}
        .stroke6 {fill: #BF09BF;}
        .stroke7 {fill: #42005e;}
        .stroke8 {fill: #ff3333;}
        .stroke9 {fill: #BFBFBF;}
        .stroke10 {fill: #00a53f;}
        .stroke11 {fill: #fff000;}
        .stroke12 {fill: #6600a5;}
        .stroke13 {fill: #0053a5;}
        .stroke14 {fill: #62c22b;}
        .stroke15 {fill: #BF09BF;}
        .stroke16 {fill: #BF0909;}
        .stroke17 {fill: #BFBF09;}
        .stroke18 {fill: #09BF09;}
        .stroke19 {fill: #09BFBF;}
        .stroke20 {fill: #0909BF;}
        text {
            font-family: Helvetica;
            font-size: 50px;
            fill: #FFFFFF;
            paint-order: stroke;
            stroke: #000000;
            stroke-width: 4px;
            stroke-linecap: butt;
            stroke-linejoin: miter;
            font-weight: 800;
        }
    </style>

    <path d="M 514 778 Q 581 788 652 798 Q 707 808 717 815 Q 727 822 722 832 Q 715 845 687 854 Q 660 860 564 836 Q 432 809 324 805 Q 287 801 312 782 Q 357 754 411 765 Q 442 769 474 773 L 514 778 Z" class="stroke1"/>
    <path d="M 525 574 Q 526 620 530 659 L 532 688 Q 533 704 535 719 Q 535 729 536 736 Q 543 752 535 760 Q 525 772 514 778 C 489 794 464 801 474 773 Q 481 760 485 680 Q 485 638 485 567 C 485 537 524 544 525 574 Z" class="stroke2"/>
    <path d="M 530 659 Q 531 659 536 659 Q 618 672 678 680 Q 702 684 693 696 Q 683 711 657 715 Q 633 719 532 688 C 503 679 500 659 530 659 Z" class="stroke3"/>
    <path d="M 381 553 Q 372 679 372 681 Q 369 685 365 689 Q 344 702 321 710 Q 308 714 301 708 Q 294 702 301 689 Q 319 662 344 549 C 351 520 383 523 381 553 Z" class="stroke4"/>
    <path d="M 349 514 Q 473 545 787 545 Q 806 545 811 554 Q 815 564 800 578 Q 751 617 714 608 Q 641 593 525 574 L 485 567 Q 482 568 381 553 L 344 549 Q 268 540 188 529 Q 167 528 183 511 Q 196 498 214 492 Q 233 488 250 492 Q 278 499 308 506 L 349 514 Z" class="stroke5"/>
    <path d="M 388 434 Q 370 430 391 414 Q 404 404 433 408 Q 569 427 668 439 Q 693 442 685 456 Q 675 472 648 478 Q 623 482 579 472 Q 477 450 388 434 Z" class="stroke6"/>
    <path d="M 326 267 Q 450 324 710 331 Q 741 332 753 320 Q 772 304 769 268 Q 766 192 745 85 Q 739 63 723 50 Q 711 43 629 63 Q 611 70 611 62 Q 610 52 630 39 Q 675 -1 694 -35 Q 713 -63 734 -44 Q 780 -8 799 37 Q 808 76 831 246 Q 835 286 853 305 Q 869 321 862 332 Q 849 345 799 370 Q 774 383 743 376 Q 692 366 634 362 Q 495 349 367 325 Q 339 321 343 337 Q 358 431 374 472 Q 380 488 371 498 Q 359 508 349 514 C 327 535 303 536 308 506 Q 307 506 308 505 Q 321 481 305 367 Q 302 351 271 318 Q 259 303 268 291 Q 277 281 298 264 Q 308 255 326 267 Z" class="stroke7"/>
    <path d="M 183 224 Q 158 175 127 132 Q 120 122 117 105 Q 114 80 121 65 Q 128 47 150 59 Q 201 93 206 165 Q 213 198 206 223 Q 202 232 196 233 Q 187 232 183 224 Z" class="stroke8"/>
    <path d="M 294 207 Q 318 120 339 108 Q 349 102 361 115 Q 367 125 367 144 Q 364 183 307 227 Q 300 231 295 222 Q 291 216 294 207 Z" class="stroke9"/>
    <path d="M 421 219 Q 454 147 475 142 Q 485 138 496 152 Q 500 162 496 182 Q 492 198 472 211 Q 444 235 431 241 Q 424 244 420 234 Q 417 228 421 219 Z" class="stroke10"/>
    <path d="M 565 216 Q 589 186 614 151 Q 624 138 640 135 Q 650 134 657 145 Q 664 158 661 188 Q 660 209 631 230 Q 562 269 548 267 Q 544 264 542 252 Q 543 240 565 216 Z" class="stroke11"/>
    <text x="316" y="795" style="transform-origin:316px 795px; transform:scale(1,-1);">1</text>
    <text x="481" y="772" style="transform-origin:481px 772px; transform:scale(1,-1);">2</text>
    <text x="533" y="666" style="transform-origin:533px 666px; transform:scale(1,-1);">3</text>
    <text x="309" y="700" style="transform-origin:309px 700px; transform:scale(1,-1);">4</text>
    <text x="185" y="520" style="transform-origin:185px 520px; transform:scale(1,-1);">5</text>
    <text x="389" y="424" style="transform-origin:389px 424px; transform:scale(1,-1);">6</text>
    <text x="315" y="506" style="transform-origin:315px 506px; transform:scale(1,-1);">7</text>
    <text x="194" y="221" style="transform-origin:194px 221px; transform:scale(1,-1);">8</text>
    <text x="305" y="214" style="transform-origin:305px 214px; transform:scale(1,-1);">9</text>
    <text x="430" y="230" style="transform-origin:430px 230px; transform:scale(1,-1);">10</text>
    <text x="551" y="261" style="transform-origin:551px 261px; transform:scale(1,-1);">11</text></g>
</svg>