<svg version="1.1" viewBox="0 0 1024 1024" xmlns="http://www.w3.org/2000/svg">
  <g stroke="lightgray" stroke-dasharray="1,1" stroke-width="1" transform="scale(4, 4)">
    <line x1="0" y1="0" x2="256" y2="256"/>
    <line x1="256" y1="0" x2="0" y2="256"/>
    <line x1="128" y1="0" x2="128" y2="256"/>
    <line x1="0" y1="128" x2="256" y2="128"/>
  </g>
  <g transform="scale(1, -1) translate(0, -900)">
    <style type="text/css">
        .stroke1 {fill: #BF0909;}
        .stroke2 {fill: #BFBF09;}
        .stroke3 {fill: #09BF09;}
        .stroke4 {fill: #09BFBF;}
        .stroke5 {fill: #0909BF;}
        .stroke6 {fill: #BF09BF;}
        .stroke7 {fill: #42005e;}
        .stroke8 {fill: #ff3333;}
        .stroke9 {fill: #BFBFBF;}
        .stroke10 {fill: #00a53f;}
        .stroke11 {fill: #fff000;}
        .stroke12 {fill: #6600a5;}
        .stroke13 {fill: #0053a5;}
        .stroke14 {fill: #62c22b;}
        .stroke15 {fill: #BF09BF;}
        .stroke16 {fill: #BF0909;}
        .stroke17 {fill: #BFBF09;}
        .stroke18 {fill: #09BF09;}
        .stroke19 {fill: #09BFBF;}
        .stroke20 {fill: #0909BF;}
        text {
            font-family: Helvetica;
            font-size: 50px;
            fill: #FFFFFF;
            paint-order: stroke;
            stroke: #000000;
            stroke-width: 4px;
            stroke-linecap: butt;
            stroke-linejoin: miter;
            font-weight: 800;
        }
    </style>

    <path d="M 122 548 Q 115 493 100 441 Q 91 405 117 377 Q 130 362 146 380 Q 182 429 163 500 Q 159 534 144 555 Q 137 562 131 561 Q 124 557 122 548 Z" class="stroke1"/>
    <path d="M 290 545 Q 363 588 400 605 Q 415 606 412 616 Q 408 629 394 646 Q 381 662 362 665 Q 350 665 350 650 Q 351 632 291 570 C 270 548 264 530 290 545 Z" class="stroke2"/>
    <path d="M 274 291 Q 283 357 290 545 L 291 570 Q 292 696 314 749 Q 321 765 309 776 Q 285 795 242 806 Q 215 812 206 804 Q 196 797 205 784 Q 272 679 223 297 Q 222 294 222 288 Q 195 135 82 18 Q 70 8 71 3 Q 74 -1 85 1 Q 98 -3 129 16 Q 231 71 268 255 Q 269 261 270 266 L 274 291 Z" class="stroke3"/>
    <path d="M 270 266 Q 276 259 289 247 Q 314 223 342 194 Q 352 181 367 182 Q 376 181 381 193 Q 385 206 380 231 Q 374 261 287 289 Q 280 292 274 291 C 248 290 250 288 270 266 Z" class="stroke4"/>
    <path d="M 677 697 Q 834 730 842 737 Q 851 744 847 752 Q 840 764 812 771 Q 784 778 693 747 Q 554 714 458 704 Q 422 698 447 682 Q 478 664 518 666 L 563 674 Q 594 681 627 686 L 677 697 Z" class="stroke5"/>
    <path d="M 419 544 Q 409 548 382 551 Q 372 554 368 549 Q 364 543 372 529 Q 403 468 426 367 Q 430 337 449 317 Q 465 299 470 313 L 472 327 L 471 353 Q 470 366 466 380 Q 444 471 436 507 C 429 536 428 541 419 544 Z" class="stroke6"/>
    <path d="M 752 362 Q 768 334 784 325 Q 794 316 811 337 Q 827 359 864 484 Q 874 517 899 542 Q 912 555 901 570 Q 885 588 841 616 Q 820 626 764 610 Q 704 601 683 594 L 647 587 Q 613 583 578 574 L 533 565 Q 472 553 419 544 C 389 539 407 498 436 507 Q 436 508 438 508 Q 478 521 532 532 L 574 542 Q 608 549 647 556 L 682 563 Q 781 584 804 567 Q 817 557 812 538 Q 785 420 774 402 Q 770 392 760 389 C 744 373 744 373 752 362 Z" class="stroke7"/>
    <path d="M 518 666 Q 533 651 534 568 Q 534 567 533 565 L 532 532 Q 519 466 503 429 Q 499 423 499 419 Q 498 410 505 413 Q 529 419 559 488 Q 568 513 574 542 L 578 574 L 580 606 Q 580 630 583 642 Q 587 654 581 663 Q 574 669 563 674 C 536 688 502 691 518 666 Z" class="stroke8"/>
    <path d="M 683 594 Q 686 628 697 670 Q 700 683 692 690 Q 686 694 677 697 C 649 708 609 710 627 686 Q 645 668 646 597 Q 646 594 647 587 L 647 556 Q 648 544 648 531 Q 648 479 672 462 Q 682 452 729 452 Q 757 452 768 465 Q 775 474 770 480 Q 694 499 688 510 Q 682 525 682 563 L 683 594 Z" class="stroke9"/>
    <path d="M 604 343 Q 683 355 752 362 C 782 365 787 376 760 389 Q 753 393 742 396 Q 721 400 684 392 Q 570 370 471 353 C 441 348 442 328 472 327 Q 484 326 503 328 Q 534 334 566 337 L 604 343 Z" class="stroke10"/>
    <path d="M 634 215 Q 757 248 759 248 Q 766 255 763 262 Q 756 272 731 278 Q 706 282 637 258 L 581 243 Q 535 234 483 228 Q 452 222 474 208 Q 510 187 561 201 Q 568 204 581 204 L 634 215 Z" class="stroke11"/>
    <path d="M 627 91 Q 630 158 634 215 L 637 258 Q 637 273 639 288 Q 648 313 604 343 C 580 360 555 365 566 337 Q 578 310 581 243 L 581 204 Q 581 158 582 86 C 582 56 626 61 627 91 Z" class="stroke12"/>
    <path d="M 582 86 Q 467 77 333 66 Q 312 65 327 47 Q 340 32 358 26 Q 380 20 396 24 Q 624 73 920 52 Q 939 52 945 60 Q 952 72 935 86 Q 884 128 847 120 Q 765 107 627 91 L 582 86 Z" class="stroke13"/>
    <text x="134" y="550" style="transform-origin:134px 550px; transform:scale(1,-1);">1</text>
    <text x="403" y="614" style="transform-origin:403px 614px; transform:scale(1,-1);">2</text>
    <text x="213" y="794" style="transform-origin:213px 794px; transform:scale(1,-1);">3</text>
    <text x="280" y="284" style="transform-origin:280px 284px; transform:scale(1,-1);">4</text>
    <text x="450" y="694" style="transform-origin:450px 694px; transform:scale(1,-1);">5</text>
    <text x="376" y="544" style="transform-origin:376px 544px; transform:scale(1,-1);">6</text>
    <text x="427" y="540" style="transform-origin:427px 540px; transform:scale(1,-1);">7</text>
    <text x="526" y="667" style="transform-origin:526px 667px; transform:scale(1,-1);">8</text>
    <text x="634" y="685" style="transform-origin:634px 685px; transform:scale(1,-1);">9</text>
    <text x="479" y="334" style="transform-origin:479px 334px; transform:scale(1,-1);">10</text>
    <text x="476" y="219" style="transform-origin:476px 219px; transform:scale(1,-1);">11</text>
    <text x="573" y="334" style="transform-origin:573px 334px; transform:scale(1,-1);">12</text>
    <text x="330" y="56" style="transform-origin:330px 56px; transform:scale(1,-1);">13</text></g>
</svg>