<svg version="1.1" viewBox="0 0 1024 1024" xmlns="http://www.w3.org/2000/svg">
  <g stroke="lightgray" stroke-dasharray="1,1" stroke-width="1" transform="scale(4, 4)">
    <line x1="0" y1="0" x2="256" y2="256"/>
    <line x1="256" y1="0" x2="0" y2="256"/>
    <line x1="128" y1="0" x2="128" y2="256"/>
    <line x1="0" y1="128" x2="256" y2="128"/>
  </g>
  <g transform="scale(1, -1) translate(0, -900)">
    <style type="text/css">
        .stroke1 {fill: #BF0909;}
        .stroke2 {fill: #BFBF09;}
        .stroke3 {fill: #09BF09;}
        .stroke4 {fill: #09BFBF;}
        .stroke5 {fill: #0909BF;}
        .stroke6 {fill: #BF09BF;}
        .stroke7 {fill: #42005e;}
        .stroke8 {fill: #ff3333;}
        .stroke9 {fill: #BFBFBF;}
        .stroke10 {fill: #00a53f;}
        .stroke11 {fill: #fff000;}
        .stroke12 {fill: #6600a5;}
        .stroke13 {fill: #0053a5;}
        .stroke14 {fill: #62c22b;}
        .stroke15 {fill: #BF09BF;}
        .stroke16 {fill: #BF0909;}
        .stroke17 {fill: #BFBF09;}
        .stroke18 {fill: #09BF09;}
        .stroke19 {fill: #09BFBF;}
        .stroke20 {fill: #0909BF;}
        text {
            font-family: Helvetica;
            font-size: 50px;
            fill: #FFFFFF;
            paint-order: stroke;
            stroke: #000000;
            stroke-width: 4px;
            stroke-linecap: butt;
            stroke-linejoin: miter;
            font-weight: 800;
        }
    </style>

    <path d="M 135 510 Q 126 455 107 401 Q 94 371 119 341 Q 129 328 146 343 Q 183 388 170 464 Q 169 495 156 515 Q 149 522 144 522 Q 137 518 135 510 Z" class="stroke1"/>
    <path d="M 281 484 Q 284 484 287 485 Q 351 528 382 543 Q 395 547 393 555 Q 389 567 374 581 Q 361 596 343 597 Q 333 597 332 583 Q 333 565 281 500 C 267 482 267 482 281 484 Z" class="stroke2"/>
    <path d="M 272 328 Q 275 361 281 484 L 281 500 Q 287 651 306 706 Q 313 719 301 730 Q 279 748 240 758 Q 215 765 207 757 Q 198 750 206 738 Q 263 648 224 319 Q 199 198 158 133 Q 127 94 78 51 Q 68 42 68 38 Q 69 34 81 36 Q 93 32 123 48 Q 237 102 269 300 L 272 328 Z" class="stroke3"/>
    <path d="M 269 300 Q 279 290 323 236 Q 330 226 342 225 Q 349 224 354 233 Q 358 243 355 263 Q 354 282 329 299 Q 305 314 272 328 C 244 340 248 322 269 300 Z" class="stroke4"/>
    <path d="M 626 643 Q 629 682 633 717 L 635 744 L 637 758 Q 637 759 646 795 Q 647 805 631 817 Q 601 832 580 835 Q 567 836 560 830 Q 554 823 561 811 Q 580 790 590 636 C 592 606 624 613 626 643 Z" class="stroke5"/>
    <path d="M 633 717 Q 654 713 765 738 Q 781 742 784 745 Q 791 752 787 759 Q 780 768 757 772 Q 736 775 675 753 Q 672 753 635 744 C 606 737 603 720 633 717 Z" class="stroke6"/>
    <path d="M 588 608 Q 634 621 712 636 Q 761 645 773 644 Q 783 637 779 631 Q 770 597 759 560 Q 766 557 781 568 Q 824 596 861 605 Q 891 612 890 620 Q 887 629 827 669 Q 806 687 706 660 Q 688 659 626 643 L 590 636 Q 572 635 466 608 C 437 601 446 578 476 579 Q 486 578 497 581 Q 534 596 578 606 L 588 608 Z" class="stroke7"/>
    <path d="M 466 608 Q 465 609 464 609 Q 421 631 408 629 Q 390 626 404 607 Q 435 553 409 330 Q 397 258 359 174 Q 329 105 227 12 Q 214 0 211 -5 Q 210 -12 220 -11 Q 259 -11 336 69 Q 438 180 463 424 Q 472 563 476 579 C 479 602 479 602 466 608 Z" class="stroke8"/>
    <path d="M 621 520 Q 651 529 715 542 Q 722 542 727 551 Q 727 558 712 564 Q 684 574 625 551 Q 624 551 622 550 L 589 540 Q 553 531 513 523 Q 494 519 510 509 Q 534 497 553 501 Q 568 507 589 511 L 621 520 Z" class="stroke9"/>
    <path d="M 589 511 Q 590 472 611 456 Q 665 419 749 445 Q 768 452 787 469 Q 799 479 789 495 Q 782 502 766 530 Q 765 539 760 541 Q 756 542 755 532 Q 742 499 734 489 Q 730 482 713 477 Q 676 468 643 481 Q 630 487 626 495 Q 622 504 621 520 L 622 550 Q 625 589 620 595 Q 610 602 594 608 Q 590 609 588 608 C 578 610 578 610 578 606 Q 575 603 579 592 Q 589 567 589 540 L 589 511 Z" class="stroke10"/>
    <path d="M 540 374 Q 530 378 499 383 Q 489 386 486 381 Q 482 377 489 363 Q 513 317 529 242 Q 532 220 546 205 Q 562 187 566 201 Q 567 205 568 210 L 567 233 Q 566 240 565 250 Q 552 320 547 347 C 542 373 542 373 540 374 Z" class="stroke11"/>
    <path d="M 738 233 Q 739 232 740 228 Q 744 216 755 217 Q 765 218 772 230 Q 779 240 796 291 Q 809 331 838 356 Q 853 368 840 380 Q 827 393 786 415 Q 768 425 615 389 Q 608 389 602 386 Q 566 379 540 374 C 511 368 518 338 547 347 Q 574 356 625 365 L 658 371 Q 742 392 760 381 Q 767 377 763 355 Q 748 274 740 253 C 735 238 735 238 738 233 Z" class="stroke12"/>
    <path d="M 671 299 Q 693 305 714 307 Q 730 310 725 319 Q 718 329 699 332 Q 689 333 673 330 L 631 317 Q 607 311 589 305 Q 577 301 592 291 Q 595 290 633 293 L 671 299 Z" class="stroke13"/>
    <path d="M 668 254 Q 669 279 671 299 L 673 330 Q 673 357 661 369 Q 660 370 658 371 C 634 389 616 394 625 365 L 626 364 Q 627 354 631 317 L 633 293 Q 633 274 636 246 C 639 216 667 224 668 254 Z" class="stroke14"/>
    <path d="M 568 210 Q 575 210 586 211 Q 634 223 738 233 C 760 235 760 235 740 253 Q 736 257 730 261 Q 712 270 668 254 L 636 246 Q 599 240 567 233 C 538 227 538 209 568 210 Z" class="stroke15"/>
    <path d="M 493 148 Q 483 152 458 156 Q 448 159 444 154 Q 440 148 447 134 Q 468 94 482 27 Q 483 17 488 7 C 500 -20 522 -20 521 10 Q 521 20 519 32 Q 510 93 508 117 C 506 144 506 144 493 148 Z" class="stroke16"/>
    <path d="M 825 41 Q 844 108 864 135 Q 874 145 870 156 Q 863 171 808 196 Q 793 203 780 199 Q 650 171 493 148 C 463 144 480 105 508 117 Q 512 123 566 131 L 585 134 Q 624 144 666 150 L 688 154 Q 763 169 779 160 Q 788 151 767 33 C 762 3 817 12 825 41 Z" class="stroke17"/>
    <path d="M 609 17 Q 600 68 592 121 Q 589 128 585 134 C 569 159 562 161 566 131 Q 570 101 571 82 Q 571 37 585 15 C 600 -11 614 -13 609 17 Z" class="stroke18"/>
    <path d="M 685 24 Q 718 111 722 117 Q 731 127 723 133 Q 714 142 688 154 C 668 163 668 163 666 150 Q 663 147 668 141 Q 680 120 665 35 Q 662 28 662 21 C 660 -9 674 -4 685 24 Z" class="stroke19"/>
    <path d="M 488 7 Q 433 6 377 0 Q 358 -1 371 -18 Q 383 -31 399 -37 Q 418 -43 434 -39 Q 635 7 937 -16 Q 956 -17 961 -9 Q 967 1 952 15 Q 903 57 841 44 Q 832 43 825 41 L 767 33 Q 728 30 685 24 L 662 21 Q 655 22 648 21 Q 629 20 609 17 L 585 15 Q 554 14 521 10 L 488 7 Z" class="stroke20"/>
    <text x="146" y="511" style="transform-origin:146px 511px; transform:scale(1,-1);">1</text>
    <text x="382" y="554" style="transform-origin:382px 554px; transform:scale(1,-1);">2</text>
    <text x="215" y="747" style="transform-origin:215px 747px; transform:scale(1,-1);">3</text>
    <text x="278" y="320" style="transform-origin:278px 320px; transform:scale(1,-1);">4</text>
    <text x="569" y="822" style="transform-origin:569px 822px; transform:scale(1,-1);">5</text>
    <text x="637" y="724" style="transform-origin:637px 724px; transform:scale(1,-1);">6</text>
    <text x="480" y="605" style="transform-origin:480px 605px; transform:scale(1,-1);">7</text>
    <text x="409" y="618" style="transform-origin:409px 618px; transform:scale(1,-1);">8</text>
    <text x="521" y="514" style="transform-origin:521px 514px; transform:scale(1,-1);">9</text>
    <text x="585" y="599" style="transform-origin:585px 599px; transform:scale(1,-1);">10</text>
    <text x="493" y="376" style="transform-origin:493px 376px; transform:scale(1,-1);">11</text>
    <text x="548" y="369" style="transform-origin:548px 369px; transform:scale(1,-1);">12</text>
    <text x="595" y="299" style="transform-origin:595px 299px; transform:scale(1,-1);">13</text>
    <text x="633" y="360" style="transform-origin:633px 360px; transform:scale(1,-1);">14</text>
    <text x="572" y="216" style="transform-origin:572px 216px; transform:scale(1,-1);">15</text>
    <text x="452" y="149" style="transform-origin:452px 149px; transform:scale(1,-1);">16</text>
    <text x="502" y="146" style="transform-origin:502px 146px; transform:scale(1,-1);">17</text>
    <text x="572" y="124" style="transform-origin:572px 124px; transform:scale(1,-1);">18</text>
    <text x="672" y="147" style="transform-origin:672px 147px; transform:scale(1,-1);">19</text>
    <text x="375" y="-9" style="transform-origin:375px -9px; transform:scale(1,-1);">20</text></g>
</svg>