<svg version="1.1" viewBox="0 0 1024 1024" xmlns="http://www.w3.org/2000/svg">
  <g stroke="lightgray" stroke-dasharray="1,1" stroke-width="1" transform="scale(4, 4)">
    <line x1="0" y1="0" x2="256" y2="256"/>
    <line x1="256" y1="0" x2="0" y2="256"/>
    <line x1="128" y1="0" x2="128" y2="256"/>
    <line x1="0" y1="128" x2="256" y2="128"/>
  </g>
  <g transform="scale(1, -1) translate(0, -900)">
    <style type="text/css">
        .stroke1 {fill: #BF0909;}
        .stroke2 {fill: #BFBF09;}
        .stroke3 {fill: #09BF09;}
        .stroke4 {fill: #09BFBF;}
        .stroke5 {fill: #0909BF;}
        .stroke6 {fill: #BF09BF;}
        .stroke7 {fill: #42005e;}
        .stroke8 {fill: #ff3333;}
        .stroke9 {fill: #BFBFBF;}
        .stroke10 {fill: #00a53f;}
        .stroke11 {fill: #fff000;}
        .stroke12 {fill: #6600a5;}
        .stroke13 {fill: #0053a5;}
        .stroke14 {fill: #62c22b;}
        .stroke15 {fill: #BF09BF;}
        .stroke16 {fill: #BF0909;}
        .stroke17 {fill: #BFBF09;}
        .stroke18 {fill: #09BF09;}
        .stroke19 {fill: #09BFBF;}
        .stroke20 {fill: #0909BF;}
        text {
            font-family: Helvetica;
            font-size: 50px;
            fill: #FFFFFF;
            paint-order: stroke;
            stroke: #000000;
            stroke-width: 4px;
            stroke-linecap: butt;
            stroke-linejoin: miter;
            font-weight: 800;
        }
    </style>

    <path d="M 522 822 Q 473 777 349 724 Q 343 715 350 712 Q 398 712 530 759 Q 554 775 628 789 Q 646 789 649 797 Q 653 807 641 820 Q 620 836 575 855 Q 559 864 545 862 Q 538 858 537 847 Q 537 832 522 822 Z" class="stroke1"/>
    <path d="M 288 637 Q 307 618 327 594 Q 340 581 356 580 Q 366 580 373 593 Q 377 608 371 638 Q 367 654 341 667 Q 277 694 264 687 Q 260 683 260 670 Q 263 660 288 637 Z" class="stroke2"/>
    <path d="M 458 675 Q 494 626 518 614 Q 531 610 540 621 Q 546 631 545 646 Q 538 685 490 701 Q 462 716 450 711 Q 444 710 445 699 Q 446 689 458 675 Z" class="stroke3"/>
    <path d="M 691 728 Q 670 698 591 618 Q 581 602 598 604 Q 625 617 730 680 Q 751 695 775 704 Q 797 713 788 731 Q 775 750 750 766 Q 728 782 714 779 Q 701 779 704 765 Q 705 746 691 728 Z" class="stroke4"/>
    <path d="M 692 316 Q 702 362 713 393 L 733 446 Q 742 477 776 505 Q 795 526 779 546 Q 692 612 648 584 Q 492 530 288 515 Q 270 514 271 504 Q 274 494 294 488 Q 321 475 359 486 Q 405 495 451 503 L 493 510 Q 557 523 623 535 Q 657 542 670 528 Q 685 513 681 483 Q 677 459 671 436 L 660 391 Q 650 357 641 324 C 633 295 685 287 692 316 Z" class="stroke5"/>
    <path d="M 713 393 Q 794 399 940 398 Q 962 398 968 408 Q 974 421 955 436 Q 891 484 826 464 Q 784 457 733 446 L 671 436 Q 607 429 535 416 L 482 408 Q 304 386 98 361 Q 74 358 92 339 Q 126 308 169 317 Q 334 365 487 376 L 540 382 Q 595 389 660 391 L 713 393 Z" class="stroke6"/>
    <path d="M 495 293 Q 381 274 285 262 Q 263 261 276 240 Q 283 230 295 226 Q 307 222 321 226 Q 387 242 497 255 L 551 261 Q 621 271 706 278 Q 718 279 719 289 Q 719 296 692 316 C 673 331 670 330 641 324 Q 640 324 548 304 L 495 293 Z" class="stroke7"/>
    <path d="M 487 376 Q 491 337 495 293 L 497 255 Q 503 87 474 37 Q 471 30 464 27 Q 455 24 357 44 Q 348 45 346 41 Q 345 37 354 28 Q 421 -29 456 -71 Q 468 -84 476 -83 Q 488 -82 509 -61 Q 563 -10 558 145 Q 557 191 552 257 Q 551 260 551 261 L 548 304 Q 542 355 540 382 L 535 416 Q 531 446 531 469 Q 531 488 518 497 Q 505 504 493 510 C 466 524 436 529 451 503 Q 472 475 482 408 L 487 376 Z" class="stroke8"/>
    <text x="638" y="802" style="transform-origin:638px 802px; transform:scale(1,-1);">1</text>
    <text x="269" y="681" style="transform-origin:269px 681px; transform:scale(1,-1);">2</text>
    <text x="456" y="701" style="transform-origin:456px 701px; transform:scale(1,-1);">3</text>
    <text x="713" y="769" style="transform-origin:713px 769px; transform:scale(1,-1);">4</text>
    <text x="280" y="504" style="transform-origin:280px 504px; transform:scale(1,-1);">5</text>
    <text x="95" y="350" style="transform-origin:95px 350px; transform:scale(1,-1);">6</text>
    <text x="282" y="250" style="transform-origin:282px 250px; transform:scale(1,-1);">7</text>
    <text x="458" y="502" style="transform-origin:458px 502px; transform:scale(1,-1);">8</text></g>
</svg>