<svg version="1.1" viewBox="0 0 1024 1024" xmlns="http://www.w3.org/2000/svg">
  <g stroke="lightgray" stroke-dasharray="1,1" stroke-width="1" transform="scale(4, 4)">
    <line x1="0" y1="0" x2="256" y2="256"/>
    <line x1="256" y1="0" x2="0" y2="256"/>
    <line x1="128" y1="0" x2="128" y2="256"/>
    <line x1="0" y1="128" x2="256" y2="128"/>
  </g>
  <g transform="scale(1, -1) translate(0, -900)">
    <style type="text/css">
        .stroke1 {fill: #BF0909;}
        .stroke2 {fill: #BFBF09;}
        .stroke3 {fill: #09BF09;}
        .stroke4 {fill: #09BFBF;}
        .stroke5 {fill: #0909BF;}
        .stroke6 {fill: #BF09BF;}
        .stroke7 {fill: #42005e;}
        .stroke8 {fill: #ff3333;}
        .stroke9 {fill: #BFBFBF;}
        .stroke10 {fill: #00a53f;}
        .stroke11 {fill: #fff000;}
        .stroke12 {fill: #6600a5;}
        .stroke13 {fill: #0053a5;}
        .stroke14 {fill: #62c22b;}
        .stroke15 {fill: #BF09BF;}
        .stroke16 {fill: #BF0909;}
        .stroke17 {fill: #BFBF09;}
        .stroke18 {fill: #09BF09;}
        .stroke19 {fill: #09BFBF;}
        .stroke20 {fill: #0909BF;}
        text {
            font-family: Helvetica;
            font-size: 50px;
            fill: #FFFFFF;
            paint-order: stroke;
            stroke: #000000;
            stroke-width: 4px;
            stroke-linecap: butt;
            stroke-linejoin: miter;
            font-weight: 800;
        }
    </style>

    <path d="M 220 508 Q 224 523 258 589 Q 265 602 251 614 Q 208 639 185 632 Q 175 628 179 616 Q 203 532 124 417 Q 105 392 95 375 Q 91 360 103 367 Q 118 371 137 390 Q 180 433 207 482 L 220 508 Z" class="stroke1"/>
    <path d="M 359 503 Q 377 510 397 515 Q 422 522 425 526 Q 432 535 428 542 Q 421 552 393 556 Q 375 557 359 553 L 312 534 Q 296 530 282 524 Q 252 515 220 508 C 191 501 178 490 207 482 Q 249 469 291 484 Q 301 487 312 490 L 359 503 Z" class="stroke2"/>
    <path d="M 308 293 Q 308 185 284 100 Q 272 58 299 -2 Q 306 -20 314 -23 Q 320 -30 328 -21 Q 335 -17 346 4 Q 356 29 355 61 Q 354 95 356 328 L 357 358 Q 357 424 359 503 L 359 553 Q 359 554 360 554 Q 361 645 379 708 Q 388 723 385 737 Q 378 747 322 781 Q 298 797 277 782 Q 273 778 278 762 Q 309 716 310 669 Q 311 606 312 534 L 312 490 Q 311 414 308 332 L 308 293 Z" class="stroke3"/>
    <path d="M 308 332 Q 220 286 142 240 Q 108 221 86 216 Q 74 210 72 203 Q 71 194 84 180 Q 103 165 124 157 Q 139 153 150 164 Q 205 221 308 293 L 356 328 Q 410 371 412 372 Q 419 385 409 384 Q 399 384 357 358 L 308 332 Z" class="stroke4"/>
    <path d="M 616 669 Q 613 670 612 669 Q 563 659 505 654 Q 471 648 495 633 Q 529 612 594 626 Q 604 629 616 629 L 661 638 Q 775 662 783 666 Q 790 673 787 681 Q 780 691 754 699 Q 723 705 666 683 C 638 673 634 671 616 669 Z" class="stroke5"/>
    <path d="M 666 683 Q 667 726 685 776 Q 688 786 671 799 Q 640 815 619 820 Q 606 824 598 816 Q 591 810 598 796 Q 613 774 614 759 Q 615 716 616 669 L 616 629 Q 615 589 614 544 C 613 514 649 521 652 551 Q 656 596 661 638 L 666 683 Z" class="stroke6"/>
    <path d="M 614 544 Q 571 538 520 528 Q 480 521 439 515 Q 411 512 429 497 Q 457 475 486 483 Q 594 522 754 540 Q 802 549 803 532 Q 803 531 767 468 Q 760 458 765 452 Q 771 448 786 457 Q 837 485 878 493 Q 912 500 912 509 Q 911 518 850 567 Q 829 585 759 570 Q 704 564 652 551 L 614 544 Z" class="stroke7"/>
    <path d="M 488 418 Q 530 367 552 369 Q 564 368 568 384 Q 568 394 559 411 Q 543 433 490 440 Q 483 441 482 431 Q 481 424 488 418 Z" class="stroke8"/>
    <path d="M 472 330 Q 518 276 540 277 Q 552 276 556 292 Q 557 302 548 319 Q 527 346 474 352 Q 467 353 466 343 Q 465 336 472 330 Z" class="stroke9"/>
    <path d="M 657 216 Q 711 228 841 242 Q 851 241 861 254 Q 862 266 839 276 Q 806 300 711 269 Q 687 265 665 258 L 614 247 Q 553 238 420 221 Q 392 217 414 200 Q 445 173 475 181 Q 533 194 606 207 L 657 216 Z" class="stroke10"/>
    <path d="M 665 258 Q 683 399 692 416 Q 696 426 689 434 Q 673 450 640 464 Q 621 474 605 469 Q 586 462 601 446 Q 626 418 625 390 Q 625 305 614 247 L 606 207 Q 582 117 492 51 Q 467 36 433 17 Q 421 13 418 9 Q 414 5 428 2 Q 467 -2 552 45 Q 621 87 657 216 L 665 258 Z" class="stroke11"/>
    <path d="M 705 138 Q 757 90 818 22 Q 834 3 849 -2 Q 858 -3 865 7 Q 877 20 865 63 Q 855 115 706 168 Q 697 174 695 161 Q 694 148 705 138 Z" class="stroke12"/>
    <text x="189" y="621" style="transform-origin:189px 621px; transform:scale(1,-1);">1</text>
    <text x="215" y="486" style="transform-origin:215px 486px; transform:scale(1,-1);">2</text>
    <text x="289" y="775" style="transform-origin:289px 775px; transform:scale(1,-1);">3</text>
    <text x="83" y="200" style="transform-origin:83px 200px; transform:scale(1,-1);">4</text>
    <text x="497" y="645" style="transform-origin:497px 645px; transform:scale(1,-1);">5</text>
    <text x="609" y="806" style="transform-origin:609px 806px; transform:scale(1,-1);">6</text>
    <text x="433" y="507" style="transform-origin:433px 507px; transform:scale(1,-1);">7</text>
    <text x="494" y="429" style="transform-origin:494px 429px; transform:scale(1,-1);">8</text>
    <text x="478" y="341" style="transform-origin:478px 341px; transform:scale(1,-1);">9</text>
    <text x="415" y="211" style="transform-origin:415px 211px; transform:scale(1,-1);">10</text>
    <text x="606" y="457" style="transform-origin:606px 457px; transform:scale(1,-1);">11</text>
    <text x="706" y="156" style="transform-origin:706px 156px; transform:scale(1,-1);">12</text></g>
</svg>