<svg version="1.1" viewBox="0 0 1024 1024" xmlns="http://www.w3.org/2000/svg">
  <g stroke="lightgray" stroke-dasharray="1,1" stroke-width="1" transform="scale(4, 4)">
    <line x1="0" y1="0" x2="256" y2="256"/>
    <line x1="256" y1="0" x2="0" y2="256"/>
    <line x1="128" y1="0" x2="128" y2="256"/>
    <line x1="0" y1="128" x2="256" y2="128"/>
  </g>
  <g transform="scale(1, -1) translate(0, -900)">
    <style type="text/css">
        .stroke1 {fill: #BF0909;}
        .stroke2 {fill: #BFBF09;}
        .stroke3 {fill: #09BF09;}
        .stroke4 {fill: #09BFBF;}
        .stroke5 {fill: #0909BF;}
        .stroke6 {fill: #BF09BF;}
        .stroke7 {fill: #42005e;}
        .stroke8 {fill: #ff3333;}
        .stroke9 {fill: #BFBFBF;}
        .stroke10 {fill: #00a53f;}
        .stroke11 {fill: #fff000;}
        .stroke12 {fill: #6600a5;}
        .stroke13 {fill: #0053a5;}
        .stroke14 {fill: #62c22b;}
        .stroke15 {fill: #BF09BF;}
        .stroke16 {fill: #BF0909;}
        .stroke17 {fill: #BFBF09;}
        .stroke18 {fill: #09BF09;}
        .stroke19 {fill: #09BFBF;}
        .stroke20 {fill: #0909BF;}
        text {
            font-family: Helvetica;
            font-size: 50px;
            fill: #FFFFFF;
            paint-order: stroke;
            stroke: #000000;
            stroke-width: 4px;
            stroke-linecap: butt;
            stroke-linejoin: miter;
            font-weight: 800;
        }
    </style>

    <path d="M 298 588 Q 314 609 330 630 Q 367 684 401 726 Q 413 739 399 755 Q 354 795 330 793 Q 317 792 319 776 Q 320 710 268 630 L 237 588 Q 222 569 110 465 Q 100 449 117 453 Q 163 456 260 548 L 298 588 Z" class="stroke1"/>
    <path d="M 302 384 Q 320 230 279 101 Q 275 88 267 87 Q 251 84 206 96 Q 175 106 170 100 Q 166 94 177 81 Q 220 44 247 9 Q 266 -19 276 -18 Q 283 -21 297 -5 Q 381 94 345 431 Q 339 468 332 499 Q 319 553 298 588 L 268 630 Q 220 685 171 709 Q 158 719 152 707 Q 148 692 153 672 Q 160 651 179 646 Q 209 631 237 588 L 260 548 Q 279 509 289 467 L 302 384 Z" class="stroke2"/>
    <path d="M 289 467 Q 226 340 64 167 Q 57 157 69 155 Q 88 151 201 256 Q 253 305 302 384 C 318 409 303 494 289 467 Z" class="stroke3"/>
    <path d="M 633 664 Q 648 692 664 707 Q 674 719 668 732 Q 664 745 634 767 Q 606 785 587 784 Q 568 781 577 759 Q 590 734 572 681 Q 514 537 386 372 Q 376 360 374 354 Q 371 344 385 346 Q 445 361 598 601 Q 608 620 620 639 L 633 664 Z" class="stroke4"/>
    <path d="M 620 639 Q 693 531 788 417 Q 806 398 835 398 Q 934 401 965 406 Q 975 407 976 413 Q 977 417 964 425 Q 831 479 771 529 Q 707 587 633 664 C 612 686 603 664 620 639 Z" class="stroke5"/>
    <path d="M 511 416 Q 477 409 502 394 Q 547 373 597 388 Q 645 400 694 411 Q 716 417 720 421 Q 729 428 724 437 Q 717 447 688 453 Q 658 457 630 445 Q 605 435 577 428 Q 547 421 511 416 Z" class="stroke6"/>
    <path d="M 460 229 Q 482 202 506 170 Q 516 157 530 155 Q 539 154 545 165 Q 552 177 548 204 Q 547 223 520 242 Q 456 278 444 275 Q 440 272 439 261 Q 440 251 460 229 Z" class="stroke7"/>
    <path d="M 547 302 Q 595 226 614 220 Q 626 217 635 233 Q 638 243 633 264 Q 626 283 604 296 Q 571 320 556 326 Q 547 329 545 318 Q 542 311 547 302 Z" class="stroke8"/>
    <path d="M 673 104 Q 694 143 737 233 Q 750 261 773 297 Q 788 310 778 321 Q 768 339 736 357 Q 720 367 703 360 Q 693 356 700 343 Q 715 292 642 118 Q 638 108 636 99 C 628 70 659 78 673 104 Z" class="stroke9"/>
    <path d="M 636 99 Q 620 98 605 95 Q 502 83 381 71 Q 359 70 375 51 Q 390 36 408 30 Q 430 24 447 28 Q 636 73 862 54 Q 862 55 864 54 Q 885 54 890 63 Q 896 75 879 90 Q 822 135 754 117 Q 718 111 673 104 L 636 99 Z" class="stroke10"/>
    <text x="331" y="781" style="transform-origin:331px 781px; transform:scale(1,-1);">1</text>
    <text x="162" y="703" style="transform-origin:162px 703px; transform:scale(1,-1);">2</text>
    <text x="290" y="460" style="transform-origin:290px 460px; transform:scale(1,-1);">3</text>
    <text x="588" y="769" style="transform-origin:588px 769px; transform:scale(1,-1);">4</text>
    <text x="635" y="655" style="transform-origin:635px 655px; transform:scale(1,-1);">5</text>
    <text x="504" y="406" style="transform-origin:504px 406px; transform:scale(1,-1);">6</text>
    <text x="447" y="266" style="transform-origin:447px 266px; transform:scale(1,-1);">7</text>
    <text x="556" y="315" style="transform-origin:556px 315px; transform:scale(1,-1);">8</text>
    <text x="707" y="351" style="transform-origin:707px 351px; transform:scale(1,-1);">9</text>
    <text x="378" y="61" style="transform-origin:378px 61px; transform:scale(1,-1);">10</text></g>
</svg>