<svg version="1.1" viewBox="0 0 1024 1024" xmlns="http://www.w3.org/2000/svg">
  <g stroke="lightgray" stroke-dasharray="1,1" stroke-width="1" transform="scale(4, 4)">
    <line x1="0" y1="0" x2="256" y2="256"/>
    <line x1="256" y1="0" x2="0" y2="256"/>
    <line x1="128" y1="0" x2="128" y2="256"/>
    <line x1="0" y1="128" x2="256" y2="128"/>
  </g>
  <g transform="scale(1, -1) translate(0, -900)">
    <style type="text/css">
        .stroke1 {fill: #BF0909;}
        .stroke2 {fill: #BFBF09;}
        .stroke3 {fill: #09BF09;}
        .stroke4 {fill: #09BFBF;}
        .stroke5 {fill: #0909BF;}
        .stroke6 {fill: #BF09BF;}
        .stroke7 {fill: #42005e;}
        .stroke8 {fill: #ff3333;}
        .stroke9 {fill: #BFBFBF;}
        .stroke10 {fill: #00a53f;}
        .stroke11 {fill: #fff000;}
        .stroke12 {fill: #6600a5;}
        .stroke13 {fill: #0053a5;}
        .stroke14 {fill: #62c22b;}
        .stroke15 {fill: #BF09BF;}
        .stroke16 {fill: #BF0909;}
        .stroke17 {fill: #BFBF09;}
        .stroke18 {fill: #09BF09;}
        .stroke19 {fill: #09BFBF;}
        .stroke20 {fill: #0909BF;}
        text {
            font-family: Helvetica;
            font-size: 50px;
            fill: #FFFFFF;
            paint-order: stroke;
            stroke: #000000;
            stroke-width: 4px;
            stroke-linecap: butt;
            stroke-linejoin: miter;
            font-weight: 800;
        }
    </style>

    <path d="M 304 589 Q 329 631 399 717 Q 411 729 397 744 Q 358 783 333 780 Q 321 779 323 764 Q 323 704 276 627 L 246 587 Q 210 538 164 501 Q 125 470 106 452 Q 96 437 112 441 Q 167 444 269 549 L 304 589 Z" class="stroke1"/>
    <path d="M 312 383 Q 331 275 291 128 Q 287 118 283 105 Q 277 92 270 90 Q 248 86 188 98 Q 157 107 153 100 Q 150 94 161 82 Q 216 46 252 11 Q 268 -11 276 -11 Q 283 -12 299 3 Q 389 112 354 436 Q 348 472 340 502 Q 325 554 304 589 L 276 627 Q 236 679 170 709 Q 157 718 152 706 Q 148 693 154 673 Q 161 654 180 649 Q 213 634 246 587 L 269 549 Q 296 497 301 460 L 312 383 Z" class="stroke2"/>
    <path d="M 301 460 Q 267 397 225 341 Q 176 278 64 166 Q 57 157 69 154 Q 90 150 206 255 Q 260 304 312 383 C 329 408 315 486 301 460 Z" class="stroke3"/>
    <path d="M 624 568 Q 715 592 720 596 Q 727 603 723 610 Q 716 620 691 625 Q 663 631 626 612 L 577 597 Q 523 585 474 576 Q 443 570 466 556 Q 499 540 559 553 Q 566 556 578 557 L 624 568 Z" class="stroke4"/>
    <path d="M 617 454 Q 620 512 624 568 L 626 612 Q 626 685 645 754 Q 648 764 629 778 Q 595 796 573 799 Q 557 802 550 794 Q 543 787 551 773 Q 572 745 572 724 Q 576 663 577 597 L 578 557 Q 578 505 577 446 C 577 416 615 424 617 454 Z" class="stroke5"/>
    <path d="M 696 432 Q 718 435 891 450 Q 910 451 914 459 Q 918 471 902 482 Q 844 519 777 494 Q 753 488 726 480 L 669 466 Q 627 462 617 454 L 577 446 Q 489 430 390 409 Q 371 406 386 391 Q 414 369 472 384 Q 572 417 642 424 L 696 432 Z" class="stroke6"/>
    <path d="M 614 314 Q 653 369 696 432 L 726 480 Q 832 673 834 676 Q 834 683 830 691 Q 797 745 762 745 Q 744 744 751 723 Q 758 683 751 648 Q 718 552 682 489 Q 675 479 669 466 L 642 424 Q 573 322 554 303 L 525 268 Q 444 172 346 78 Q 339 72 339 65 Q 339 59 345 60 Q 355 61 364 67 Q 458 134 504 184 Q 517 197 529 211 L 614 314 Z" class="stroke7"/>
    <path d="M 554 303 Q 541 313 525 317 Q 518 318 512 312 Q 511 308 516 298 Q 522 286 524 274 Q 525 273 525 268 L 529 211 Q 532 130 517 81 Q 504 41 531 7 Q 541 -3 548 7 Q 558 17 562 38 L 567 68 Q 568 83 569 97 Q 569 130 570 160 L 571 187 Q 571 262 586 277 L 554 303 Z" class="stroke8"/>
    <path d="M 711 45 Q 733 17 751 -10 Q 760 -26 769 -25 Q 782 -24 795 5 Q 810 38 806 77 Q 799 138 789 251 Q 788 276 801 295 Q 808 307 800 315 Q 784 331 740 349 Q 724 356 712 349 Q 700 343 614 314 C 586 304 555 272 584 278 L 586 277 Q 595 280 606 283 Q 658 295 703 305 Q 719 309 729 303 Q 744 285 744 80 L 744 78 Q 741 65 730 67 C 706 52 706 52 711 45 Z" class="stroke9"/>
    <path d="M 570 160 Q 571 160 574 160 Q 640 170 688 177 Q 710 181 701 193 Q 691 206 667 210 Q 628 216 571 187 C 544 174 540 159 570 160 Z" class="stroke10"/>
    <path d="M 562 38 Q 571 37 580 38 Q 622 45 711 45 C 741 45 752 47 730 67 Q 724 73 714 80 Q 701 89 674 84 Q 614 74 567 68 C 537 64 532 40 562 38 Z" class="stroke11"/>
    <text x="334" y="768" style="transform-origin:334px 768px; transform:scale(1,-1);">1</text>
    <text x="162" y="703" style="transform-origin:162px 703px; transform:scale(1,-1);">2</text>
    <text x="299" y="452" style="transform-origin:299px 452px; transform:scale(1,-1);">3</text>
    <text x="468" y="567" style="transform-origin:468px 567px; transform:scale(1,-1);">4</text>
    <text x="561" y="785" style="transform-origin:561px 785px; transform:scale(1,-1);">5</text>
    <text x="388" y="400" style="transform-origin:388px 400px; transform:scale(1,-1);">6</text>
    <text x="761" y="732" style="transform-origin:761px 732px; transform:scale(1,-1);">7</text>
    <text x="521" y="307" style="transform-origin:521px 307px; transform:scale(1,-1);">8</text>
    <text x="600" y="286" style="transform-origin:600px 286px; transform:scale(1,-1);">9</text>
    <text x="572" y="167" style="transform-origin:572px 167px; transform:scale(1,-1);">10</text>
    <text x="567" y="45" style="transform-origin:567px 45px; transform:scale(1,-1);">11</text></g>
</svg>