<svg version="1.1" viewBox="0 0 1024 1024" xmlns="http://www.w3.org/2000/svg">
  <g stroke="lightgray" stroke-dasharray="1,1" stroke-width="1" transform="scale(4, 4)">
    <line x1="0" y1="0" x2="256" y2="256"/>
    <line x1="256" y1="0" x2="0" y2="256"/>
    <line x1="128" y1="0" x2="128" y2="256"/>
    <line x1="0" y1="128" x2="256" y2="128"/>
  </g>
  <g transform="scale(1, -1) translate(0, -900)">
    <style type="text/css">
        .stroke1 {fill: #BF0909;}
        .stroke2 {fill: #BFBF09;}
        .stroke3 {fill: #09BF09;}
        .stroke4 {fill: #09BFBF;}
        .stroke5 {fill: #0909BF;}
        .stroke6 {fill: #BF09BF;}
        .stroke7 {fill: #42005e;}
        .stroke8 {fill: #ff3333;}
        .stroke9 {fill: #BFBFBF;}
        .stroke10 {fill: #00a53f;}
        .stroke11 {fill: #fff000;}
        .stroke12 {fill: #6600a5;}
        .stroke13 {fill: #0053a5;}
        .stroke14 {fill: #62c22b;}
        .stroke15 {fill: #BF09BF;}
        .stroke16 {fill: #BF0909;}
        .stroke17 {fill: #BFBF09;}
        .stroke18 {fill: #09BF09;}
        .stroke19 {fill: #09BFBF;}
        .stroke20 {fill: #0909BF;}
        text {
            font-family: Helvetica;
            font-size: 50px;
            fill: #FFFFFF;
            paint-order: stroke;
            stroke: #000000;
            stroke-width: 4px;
            stroke-linecap: butt;
            stroke-linejoin: miter;
            font-weight: 800;
        }
    </style>

    <path d="M 522 647 Q 597 660 675 672 Q 736 684 745 692 Q 755 701 751 710 Q 744 725 711 734 Q 675 743 586 714 Q 439 680 317 673 Q 275 669 304 648 Q 347 621 431 633 Q 447 636 466 638 L 522 647 Z" class="stroke1"/>
    <path d="M 537 386 Q 589 396 646 404 Q 701 414 709 421 Q 719 430 715 439 Q 708 452 677 461 Q 644 470 612 458 Q 575 448 538 437 L 484 425 Q 408 413 320 407 Q 280 403 308 383 Q 353 355 412 367 Q 446 373 483 377 L 537 386 Z" class="stroke2"/>
    <path d="M 530 162 Q 533 283 537 386 L 538 437 Q 539 545 545 598 Q 554 623 522 647 C 499 667 456 666 466 638 Q 481 602 485 499 Q 484 471 484 425 L 483 377 Q 482 289 480 157 C 480 127 529 132 530 162 Z" class="stroke3"/>
    <path d="M 512 111 Q 566 114 617 118 Q 749 128 895 112 Q 920 108 927 118 Q 936 131 922 145 Q 891 176 844 198 Q 828 205 801 196 Q 704 178 530 162 L 480 157 Q 359 147 297 140 Q 228 131 125 132 Q 110 132 109 120 Q 108 107 128 91 Q 176 55 213 68 Q 243 78 400 100 Q 452 107 512 111 Z" class="stroke4"/>
    <path d="M 732 327 Q 763 299 798 265 Q 810 252 825 252 Q 835 252 841 265 Q 845 278 838 307 Q 834 329 800 348 Q 722 378 708 375 Q 704 371 704 359 Q 707 349 732 327 Z" class="stroke5"/>
    <text x="307" y="662" style="transform-origin:307px 662px; transform:scale(1,-1);">1</text>
    <text x="311" y="397" style="transform-origin:311px 397px; transform:scale(1,-1);">2</text>
    <text x="474" y="636" style="transform-origin:474px 636px; transform:scale(1,-1);">3</text>
    <text x="122" y="119" style="transform-origin:122px 119px; transform:scale(1,-1);">4</text>
    <text x="711" y="370" style="transform-origin:711px 370px; transform:scale(1,-1);">5</text></g>
</svg>