<svg version="1.1" viewBox="0 0 1024 1024" xmlns="http://www.w3.org/2000/svg">
  <g stroke="lightgray" stroke-dasharray="1,1" stroke-width="1" transform="scale(4, 4)">
    <line x1="0" y1="0" x2="256" y2="256"/>
    <line x1="256" y1="0" x2="0" y2="256"/>
    <line x1="128" y1="0" x2="128" y2="256"/>
    <line x1="0" y1="128" x2="256" y2="128"/>
  </g>
  <g transform="scale(1, -1) translate(0, -900)">
    <style type="text/css">
        .stroke1 {fill: #BF0909;}
        .stroke2 {fill: #BFBF09;}
        .stroke3 {fill: #09BF09;}
        .stroke4 {fill: #09BFBF;}
        .stroke5 {fill: #0909BF;}
        .stroke6 {fill: #BF09BF;}
        .stroke7 {fill: #42005e;}
        .stroke8 {fill: #ff3333;}
        .stroke9 {fill: #BFBFBF;}
        .stroke10 {fill: #00a53f;}
        .stroke11 {fill: #fff000;}
        .stroke12 {fill: #6600a5;}
        .stroke13 {fill: #0053a5;}
        .stroke14 {fill: #62c22b;}
        .stroke15 {fill: #BF09BF;}
        .stroke16 {fill: #BF0909;}
        .stroke17 {fill: #BFBF09;}
        .stroke18 {fill: #09BF09;}
        .stroke19 {fill: #09BFBF;}
        .stroke20 {fill: #0909BF;}
        text {
            font-family: Helvetica;
            font-size: 50px;
            fill: #FFFFFF;
            paint-order: stroke;
            stroke: #000000;
            stroke-width: 4px;
            stroke-linecap: butt;
            stroke-linejoin: miter;
            font-weight: 800;
        }
    </style>

    <path d="M 288 688 Q 331 698 378 706 Q 414 713 419 719 Q 428 726 423 736 Q 416 748 386 755 Q 355 762 324 749 Q 284 736 242 725 Q 194 715 138 710 Q 101 703 127 686 Q 172 662 230 677 Q 234 678 241 678 L 288 688 Z" class="stroke1"/>
    <path d="M 303 470 Q 385 489 391 494 Q 400 501 395 509 Q 388 519 361 526 Q 334 529 304 518 L 258 503 Q 177 487 144 482 Q 110 476 134 461 Q 167 446 240 457 Q 247 458 258 460 L 303 470 Z" class="stroke2"/>
    <path d="M 298 283 Q 299 383 303 470 L 304 518 Q 307 668 308 669 Q 296 681 288 688 C 266 708 231 706 241 678 Q 256 651 258 503 L 258 460 Q 257 384 256 265 C 256 235 298 253 298 283 Z" class="stroke3"/>
    <path d="M 256 265 Q 195 241 130 215 Q 112 208 81 205 Q 66 202 65 190 Q 65 175 76 168 Q 104 152 142 136 Q 155 133 166 145 Q 205 181 350 267 Q 372 283 397 301 Q 410 311 410 322 Q 403 326 390 323 Q 347 304 298 283 L 256 265 Z" class="stroke4"/>
    <path d="M 696 692 Q 724 698 886 721 Q 898 720 908 734 Q 909 747 884 759 Q 845 783 768 758 Q 731 751 696 741 Q 624 726 461 705 Q 428 701 453 681 Q 492 651 524 659 Q 582 672 652 684 L 696 692 Z" class="stroke5"/>
    <path d="M 654 508 Q 664 529 673 549 Q 709 627 714 633 Q 726 643 723 658 Q 714 676 696 692 C 675 713 652 714 652 684 Q 658 663 632 594 L 615 550 L 594 500 Q 504 326 405 240 Q 375 212 346 186 Q 339 182 336 177 Q 330 167 340 167 Q 382 167 483 257 Q 496 270 511 286 Q 571 352 614 429 L 654 508 Z" class="stroke6"/>
    <path d="M 614 429 Q 620 234 585 91 Q 570 42 607 -6 Q 608 -9 612 -12 Q 631 -28 643 0 Q 658 42 658 90 Q 654 396 662 465 Q 668 492 654 508 L 615 550 Q 608 557 596 563 Q 586 564 581 557 Q 574 539 594 501 L 594 500 L 614 429 Z" class="stroke7"/>
    <path d="M 733 401 Q 815 328 912 223 Q 928 202 944 198 Q 953 197 961 207 Q 974 220 961 265 Q 949 329 735 432 Q 725 438 723 425 Q 722 412 733 401 Z" class="stroke8"/>
    <text x="130" y="699" style="transform-origin:130px 699px; transform:scale(1,-1);">1</text>
    <text x="136" y="473" style="transform-origin:136px 473px; transform:scale(1,-1);">2</text>
    <text x="247" y="677" style="transform-origin:247px 677px; transform:scale(1,-1);">3</text>
    <text x="82" y="188" style="transform-origin:82px 188px; transform:scale(1,-1);">4</text>
    <text x="455" y="694" style="transform-origin:455px 694px; transform:scale(1,-1);">5</text>
    <text x="660" y="681" style="transform-origin:660px 681px; transform:scale(1,-1);">6</text>
    <text x="592" y="550" style="transform-origin:592px 550px; transform:scale(1,-1);">7</text>
    <text x="734" y="420" style="transform-origin:734px 420px; transform:scale(1,-1);">8</text></g>
</svg>