<svg version="1.1" viewBox="0 0 1024 1024" xmlns="http://www.w3.org/2000/svg">
  <g stroke="lightgray" stroke-dasharray="1,1" stroke-width="1" transform="scale(4, 4)">
    <line x1="0" y1="0" x2="256" y2="256"/>
    <line x1="256" y1="0" x2="0" y2="256"/>
    <line x1="128" y1="0" x2="128" y2="256"/>
    <line x1="0" y1="128" x2="256" y2="128"/>
  </g>
  <g transform="scale(1, -1) translate(0, -900)">
    <style type="text/css">
        .stroke1 {fill: #BF0909;}
        .stroke2 {fill: #BFBF09;}
        .stroke3 {fill: #09BF09;}
        .stroke4 {fill: #09BFBF;}
        .stroke5 {fill: #0909BF;}
        .stroke6 {fill: #BF09BF;}
        .stroke7 {fill: #42005e;}
        .stroke8 {fill: #ff3333;}
        .stroke9 {fill: #BFBFBF;}
        .stroke10 {fill: #00a53f;}
        .stroke11 {fill: #fff000;}
        .stroke12 {fill: #6600a5;}
        .stroke13 {fill: #0053a5;}
        .stroke14 {fill: #62c22b;}
        .stroke15 {fill: #BF09BF;}
        .stroke16 {fill: #BF0909;}
        .stroke17 {fill: #BFBF09;}
        .stroke18 {fill: #09BF09;}
        .stroke19 {fill: #09BFBF;}
        .stroke20 {fill: #0909BF;}
        text {
            font-family: Helvetica;
            font-size: 50px;
            fill: #FFFFFF;
            paint-order: stroke;
            stroke: #000000;
            stroke-width: 4px;
            stroke-linecap: butt;
            stroke-linejoin: miter;
            font-weight: 800;
        }
    </style>

    <path d="M 249 658 Q 295 674 344 688 Q 369 697 374 701 Q 381 708 376 717 Q 369 727 339 732 Q 309 733 282 720 Q 254 707 222 696 Q 188 686 145 677 Q 111 667 138 654 Q 163 644 208 646 L 249 658 Z" class="stroke1"/>
    <path d="M 268 460 Q 293 470 322 479 Q 344 486 347 490 Q 354 499 348 506 Q 341 516 313 518 Q 291 519 269 510 L 223 489 Q 216 488 210 484 Q 182 474 147 467 Q 116 457 141 445 Q 175 432 224 445 L 268 460 Z" class="stroke2"/>
    <path d="M 265 297 Q 266 385 268 460 L 269 510 Q 270 547 271 582 Q 274 636 270 642 Q 260 652 249 658 C 224 674 198 674 208 646 Q 223 616 223 489 L 224 445 Q 224 378 224 278 C 224 248 265 267 265 297 Z" class="stroke3"/>
    <path d="M 224 278 Q 170 256 114 229 Q 98 222 70 219 Q 58 215 58 205 Q 57 192 68 185 Q 93 173 128 159 Q 138 158 149 168 Q 179 201 306 282 Q 325 297 346 314 Q 358 324 357 333 Q 347 339 265 297 L 224 278 Z" class="stroke4"/>
    <path d="M 615 673 Q 619 710 624 744 L 628 778 Q 628 782 629 785 Q 632 800 634 809 Q 640 833 625 845 Q 597 860 578 864 Q 565 867 558 860 Q 551 853 558 841 Q 579 816 579 667 C 579 637 612 643 615 673 Z" class="stroke5"/>
    <path d="M 624 744 Q 625 745 627 744 Q 645 744 750 772 Q 766 776 769 780 Q 776 787 772 794 Q 765 804 739 807 Q 733 807 628 778 C 599 770 594 744 624 744 Z" class="stroke6"/>
    <path d="M 565 634 Q 661 659 756 673 Q 784 680 786 668 Q 786 658 765 618 Q 758 605 764 601 Q 768 597 781 607 Q 847 644 871 650 Q 890 651 891 663 Q 890 675 826 710 Q 804 722 720 697 Q 617 675 615 673 L 579 667 Q 518 658 448 647 Q 444 647 444 646 C 414 641 429 613 459 614 Q 475 613 498 619 Q 526 626 554 631 L 565 634 Z" class="stroke7"/>
    <path d="M 444 646 Q 405 676 383 667 Q 373 660 379 648 Q 398 621 399 547 Q 398 540 398 529 Q 395 361 355 234 Q 319 123 245 5 Q 241 -2 239 -7 Q 238 -17 247 -15 Q 283 -6 358 130 Q 367 151 377 171 Q 438 327 451 574 Q 452 608 459 614 C 465 632 465 632 444 646 Z" class="stroke8"/>
    <path d="M 598 536 Q 713 570 716 572 Q 722 579 718 584 Q 714 591 692 596 Q 680 597 601 570 L 563 559 Q 532 552 500 546 Q 475 542 493 530 Q 523 515 562 527 L 598 536 Z" class="stroke9"/>
    <path d="M 784 518 Q 777 528 762 560 Q 761 570 756 573 Q 752 574 750 564 Q 734 527 724 515 Q 717 508 697 503 Q 655 491 618 501 Q 605 505 602 513 Q 598 523 598 536 L 601 570 Q 602 582 606 595 Q 610 608 601 616 Q 591 626 573 633 Q 569 634 565 634 C 554 636 554 636 554 631 Q 551 627 555 616 Q 564 588 563 559 L 562 527 Q 562 491 580 476 Q 631 443 735 470 Q 759 477 782 493 Q 792 503 784 518 Z" class="stroke10"/>
    <path d="M 594 373 Q 720 401 723 403 Q 730 409 726 415 Q 722 424 699 430 Q 689 433 585 405 Q 545 396 498 392 Q 470 388 490 375 Q 514 360 550 363 L 594 373 Z" class="stroke11"/>
    <path d="M 579 321 Q 595 334 605 341 Q 614 348 612 356 Q 611 366 594 373 C 567 385 567 385 550 363 Q 510 311 454 270 Q 451 269 448 265 Q 432 255 452 256 Q 476 253 558 304 L 579 321 Z" class="stroke12"/>
    <path d="M 648 272 Q 623 299 579 321 C 552 335 533 320 558 304 Q 568 298 578 291 L 612 263 Q 616 259 623 251 L 649 213 Q 671 162 644 72 Q 634 44 625 39 Q 619 36 557 44 Q 533 50 532 44 Q 531 37 541 27 Q 590 -15 610 -42 Q 620 -58 633 -55 Q 672 -40 693 54 Q 711 147 687 216 L 648 272 Z" class="stroke13"/>
    <path d="M 578 291 Q 557 245 440 171 Q 427 164 442 164 Q 491 160 584 239 Q 584 242 612 263 C 636 281 592 318 578 291 Z" class="stroke14"/>
    <path d="M 623 251 Q 566 160 424 75 Q 414 68 420 65 Q 435 56 493 83 Q 544 105 615 175 Q 643 203 644 206 Q 647 210 649 213 C 666 238 639 276 623 251 Z" class="stroke15"/>
    <path d="M 666 263 Q 781 324 796 329 Q 815 335 807 351 Q 798 367 778 381 Q 759 394 749 393 Q 739 393 740 382 Q 740 364 681 303 Q 665 290 648 272 C 627 250 639 249 666 263 Z" class="stroke16"/>
    <path d="M 687 216 Q 742 170 803 128 Q 825 112 857 117 Q 915 124 973 147 Q 988 151 988 156 Q 989 162 976 164 Q 817 194 815 194 Q 740 216 666 263 C 641 279 613 277 687 216 Z" class="stroke17"/>
    <text x="139" y="666" style="transform-origin:139px 666px; transform:scale(1,-1);">1</text>
    <text x="142" y="457" style="transform-origin:142px 457px; transform:scale(1,-1);">2</text>
    <text x="216" y="645" style="transform-origin:216px 645px; transform:scale(1,-1);">3</text>
    <text x="73" y="205" style="transform-origin:73px 205px; transform:scale(1,-1);">4</text>
    <text x="568" y="851" style="transform-origin:568px 851px; transform:scale(1,-1);">5</text>
    <text x="626" y="750" style="transform-origin:626px 750px; transform:scale(1,-1);">6</text>
    <text x="447" y="641" style="transform-origin:447px 641px; transform:scale(1,-1);">7</text>
    <text x="390" y="656" style="transform-origin:390px 656px; transform:scale(1,-1);">8</text>
    <text x="495" y="539" style="transform-origin:495px 539px; transform:scale(1,-1);">9</text>
    <text x="562" y="624" style="transform-origin:562px 624px; transform:scale(1,-1);">10</text>
    <text x="492" y="385" style="transform-origin:492px 385px; transform:scale(1,-1);">11</text>
    <text x="598" y="353" style="transform-origin:598px 353px; transform:scale(1,-1);">12</text>
    <text x="566" y="305" style="transform-origin:566px 305px; transform:scale(1,-1);">13</text>
    <text x="582" y="284" style="transform-origin:582px 284px; transform:scale(1,-1);">14</text>
    <text x="624" y="243" style="transform-origin:624px 243px; transform:scale(1,-1);">15</text>
    <text x="795" y="343" style="transform-origin:795px 343px; transform:scale(1,-1);">16</text>
    <text x="661" y="263" style="transform-origin:661px 263px; transform:scale(1,-1);">17</text></g>
</svg>