<svg version="1.1" viewBox="0 0 1024 1024" xmlns="http://www.w3.org/2000/svg">
  <g stroke="lightgray" stroke-dasharray="1,1" stroke-width="1" transform="scale(4, 4)">
    <line x1="0" y1="0" x2="256" y2="256"/>
    <line x1="256" y1="0" x2="0" y2="256"/>
    <line x1="128" y1="0" x2="128" y2="256"/>
    <line x1="0" y1="128" x2="256" y2="128"/>
  </g>
  <g transform="scale(1, -1) translate(0, -900)">
    <style type="text/css">
        .stroke1 {fill: #BF0909;}
        .stroke2 {fill: #BFBF09;}
        .stroke3 {fill: #09BF09;}
        .stroke4 {fill: #09BFBF;}
        .stroke5 {fill: #0909BF;}
        .stroke6 {fill: #BF09BF;}
        .stroke7 {fill: #42005e;}
        .stroke8 {fill: #ff3333;}
        .stroke9 {fill: #BFBFBF;}
        .stroke10 {fill: #00a53f;}
        .stroke11 {fill: #fff000;}
        .stroke12 {fill: #6600a5;}
        .stroke13 {fill: #0053a5;}
        .stroke14 {fill: #62c22b;}
        .stroke15 {fill: #BF09BF;}
        .stroke16 {fill: #BF0909;}
        .stroke17 {fill: #BFBF09;}
        .stroke18 {fill: #09BF09;}
        .stroke19 {fill: #09BFBF;}
        .stroke20 {fill: #0909BF;}
        text {
            font-family: Helvetica;
            font-size: 50px;
            fill: #FFFFFF;
            paint-order: stroke;
            stroke: #000000;
            stroke-width: 4px;
            stroke-linecap: butt;
            stroke-linejoin: miter;
            font-weight: 800;
        }
    </style>

    <path d="M 503 815 Q 533 796 566 770 Q 581 760 595 761 Q 605 762 609 776 Q 612 791 600 818 Q 593 837 560 848 Q 484 866 472 859 Q 468 855 470 843 Q 474 833 503 815 Z" class="stroke1"/>
    <path d="M 369 655 Q 412 648 442 653 Q 763 716 774 725 Q 783 732 779 740 Q 772 752 744 760 Q 717 766 609 732 Q 474 698 358 688 Q 355 688 354 687 C 324 683 339 659 369 655 Z" class="stroke2"/>
    <path d="M 267 342 Q 221 180 119 19 Q 113 12 112 6 Q 109 -4 120 -3 Q 147 3 227 117 Q 246 150 265 189 Q 335 348 351 539 Q 361 642 369 655 C 374 674 374 674 354 687 Q 306 720 286 713 Q 274 706 281 692 Q 299 668 299 604 Q 284 442 275 383 L 267 342 Z" class="stroke3"/>
    <path d="M 165 565 Q 201 511 228 495 Q 241 491 251 501 Q 258 511 258 528 Q 252 564 182 599 Q 167 606 158 603 Q 152 603 153 591 Q 153 581 165 565 Z" class="stroke4"/>
    <path d="M 275 383 Q 103 293 68 287 Q 55 283 56 272 Q 56 259 67 253 Q 92 243 128 231 Q 138 230 149 240 Q 176 276 267 342 C 291 360 302 397 275 383 Z" class="stroke5"/>
    <path d="M 495 221 Q 495 155 479 96 Q 470 66 491 7 Q 497 -8 504 -11 Q 510 -17 516 -10 Q 523 -6 532 13 Q 538 29 541 166 Q 541 463 559 522 Q 566 535 564 547 Q 558 556 509 586 Q 488 601 470 587 Q 466 583 471 569 Q 495 535 495 483 L 496 451 Q 496 406 496 359 L 496 327 Q 495 290 495 248 L 495 221 Z" class="stroke6"/>
    <path d="M 495 483 Q 494 484 489 485 Q 468 488 415 471 Q 397 468 378 466 Q 348 460 370 448 Q 403 430 452 443 Q 471 447 496 451 C 526 456 523 472 495 483 Z" class="stroke7"/>
    <path d="M 496 359 Q 481 368 413 347 Q 409 347 406 345 Q 385 341 362 338 Q 332 332 354 320 Q 381 305 445 317 Q 467 323 496 327 C 526 331 524 348 496 359 Z" class="stroke8"/>
    <path d="M 495 248 Q 336 194 310 192 Q 300 191 298 182 Q 297 170 306 163 Q 327 151 356 137 Q 365 134 375 143 Q 402 167 495 221 C 521 236 523 258 495 248 Z" class="stroke9"/>
    <path d="M 688 240 Q 688 288 688 346 L 688 376 Q 688 424 688 471 L 690 502 Q 693 539 701 568 Q 708 581 706 594 Q 699 603 648 633 Q 626 648 608 633 Q 604 629 610 615 Q 637 575 638 524 Q 647 176 632 94 Q 629 84 627 72 Q 618 39 642 -21 Q 648 -37 656 -39 Q 662 -45 668 -38 Q 675 -34 684 -14 Q 693 8 691 37 Q 690 62 688 209 L 688 240 Z" class="stroke10"/>
    <path d="M 688 471 Q 718 468 804 485 Q 820 489 838 493 Q 854 497 857 501 Q 864 508 860 517 Q 853 527 823 533 Q 795 536 766 522 Q 750 516 690 502 C 661 495 658 473 688 471 Z" class="stroke11"/>
    <path d="M 688 346 Q 731 342 819 359 Q 864 371 868 373 Q 877 380 871 389 Q 864 399 836 406 Q 806 410 777 397 Q 756 390 688 376 C 659 370 658 348 688 346 Z" class="stroke12"/>
    <path d="M 688 209 Q 715 205 749 214 Q 827 238 893 232 Q 906 232 910 241 Q 914 251 901 263 Q 852 293 778 265 Q 736 253 688 240 C 659 232 658 212 688 209 Z" class="stroke13"/>
    <text x="477" y="854" style="transform-origin:477px 854px; transform:scale(1,-1);">1</text>
    <text x="357" y="682" style="transform-origin:357px 682px; transform:scale(1,-1);">2</text>
    <text x="292" y="700" style="transform-origin:292px 700px; transform:scale(1,-1);">3</text>
    <text x="164" y="594" style="transform-origin:164px 594px; transform:scale(1,-1);">4</text>
    <text x="70" y="273" style="transform-origin:70px 273px; transform:scale(1,-1);">5</text>
    <text x="481" y="581" style="transform-origin:481px 581px; transform:scale(1,-1);">6</text>
    <text x="371" y="458" style="transform-origin:371px 458px; transform:scale(1,-1);">7</text>
    <text x="355" y="330" style="transform-origin:355px 330px; transform:scale(1,-1);">8</text>
    <text x="311" y="178" style="transform-origin:311px 178px; transform:scale(1,-1);">9</text>
    <text x="619" y="627" style="transform-origin:619px 627px; transform:scale(1,-1);">10</text>
    <text x="693" y="478" style="transform-origin:693px 478px; transform:scale(1,-1);">11</text>
    <text x="694" y="354" style="transform-origin:694px 354px; transform:scale(1,-1);">12</text>
    <text x="696" y="217" style="transform-origin:696px 217px; transform:scale(1,-1);">13</text></g>
</svg>