<svg version="1.1" viewBox="0 0 1024 1024" xmlns="http://www.w3.org/2000/svg">
  <g stroke="lightgray" stroke-dasharray="1,1" stroke-width="1" transform="scale(4, 4)">
    <line x1="0" y1="0" x2="256" y2="256"/>
    <line x1="256" y1="0" x2="0" y2="256"/>
    <line x1="128" y1="0" x2="128" y2="256"/>
    <line x1="0" y1="128" x2="256" y2="128"/>
  </g>
  <g transform="scale(1, -1) translate(0, -900)">
    <style type="text/css">
        .stroke1 {fill: #BF0909;}
        .stroke2 {fill: #BFBF09;}
        .stroke3 {fill: #09BF09;}
        .stroke4 {fill: #09BFBF;}
        .stroke5 {fill: #0909BF;}
        .stroke6 {fill: #BF09BF;}
        .stroke7 {fill: #42005e;}
        .stroke8 {fill: #ff3333;}
        .stroke9 {fill: #BFBFBF;}
        .stroke10 {fill: #00a53f;}
        .stroke11 {fill: #fff000;}
        .stroke12 {fill: #6600a5;}
        .stroke13 {fill: #0053a5;}
        .stroke14 {fill: #62c22b;}
        .stroke15 {fill: #BF09BF;}
        .stroke16 {fill: #BF0909;}
        .stroke17 {fill: #BFBF09;}
        .stroke18 {fill: #09BF09;}
        .stroke19 {fill: #09BFBF;}
        .stroke20 {fill: #0909BF;}
        text {
            font-family: Helvetica;
            font-size: 50px;
            fill: #FFFFFF;
            paint-order: stroke;
            stroke: #000000;
            stroke-width: 4px;
            stroke-linecap: butt;
            stroke-linejoin: miter;
            font-weight: 800;
        }
    </style>

    <path d="M 508 817 Q 538 798 570 775 Q 586 765 603 767 Q 613 770 617 784 Q 618 800 605 830 Q 587 863 494 866 Q 478 867 471 863 Q 467 859 471 845 Q 477 835 508 817 Z" class="stroke1"/>
    <path d="M 367 666 Q 370 666 372 665 Q 399 658 429 664 Q 567 683 709 702 Q 775 712 785 721 Q 794 728 790 736 Q 784 749 756 757 Q 728 766 636 740 Q 491 709 348 703 Q 344 703 341 701 C 311 696 338 672 367 666 Z" class="stroke2"/>
    <path d="M 269 358 Q 227 192 119 15 Q 113 8 112 2 Q 109 -8 120 -6 Q 154 0 233 125 Q 249 155 265 189 Q 332 345 349 545 Q 355 632 367 666 C 372 683 367 686 341 701 Q 299 728 282 720 Q 270 713 277 699 Q 295 672 296 614 Q 281 416 275 388 L 269 358 Z" class="stroke3"/>
    <path d="M 144 539 Q 180 482 201 472 Q 214 468 224 477 Q 231 487 231 502 Q 227 536 160 570 Q 147 577 138 575 Q 132 574 133 564 Q 133 554 144 539 Z" class="stroke4"/>
    <path d="M 275 388 Q 91 309 55 305 Q 43 302 43 292 Q 42 279 52 273 Q 76 260 109 247 Q 119 246 130 255 Q 155 283 257 349 Q 263 353 269 358 C 293 377 303 400 275 388 Z" class="stroke5"/>
    <path d="M 574 576 Q 623 598 679 604 Q 692 604 696 610 Q 700 619 691 628 Q 640 670 618 666 Q 612 663 611 655 Q 605 619 417 554 Q 413 547 417 544 Q 426 541 513 562 Q 522 563 535 566 L 574 576 Z" class="stroke6"/>
    <path d="M 606 477 Q 636 487 757 503 Q 766 502 774 514 Q 774 524 755 532 Q 722 550 670 530 Q 636 521 601 512 Q 598 512 599 511 L 550 500 Q 451 485 399 477 Q 374 473 394 459 Q 422 438 444 443 Q 477 452 516 460 L 606 477 Z" class="stroke7"/>
    <path d="M 599 511 Q 600 524 610 539 Q 614 546 606 557 Q 591 569 574 576 C 547 588 520 592 535 566 Q 550 545 550 500 L 552 439 Q 553 396 550 378 Q 549 369 563 336 Q 570 324 582 331 Q 595 341 591 399 Q 591 430 593 459 L 599 511 Z" class="stroke8"/>
    <path d="M 516 460 Q 473 387 353 309 Q 340 300 352 298 Q 380 295 447 333 Q 478 360 511 387 Q 530 412 552 439 C 576 469 542 503 516 460 Z" class="stroke9"/>
    <path d="M 593 459 Q 654 398 721 341 Q 740 325 771 325 Q 826 326 882 343 Q 897 346 897 350 Q 898 356 887 359 Q 730 402 666 438 Q 617 471 606 477 C 580 492 572 480 593 459 Z" class="stroke10"/>
    <path d="M 536 233 Q 536 234 537 234 Q 547 256 559 270 Q 568 277 565 286 Q 561 299 527 327 Q 517 336 506 333 Q 494 330 500 315 Q 507 293 499 271 Q 492 247 483 227 L 466 192 Q 438 153 442 135 Q 445 125 461 122 Q 500 113 560 82 L 604 58 Q 664 24 750 -44 Q 774 -63 791 -63 Q 810 -62 811 -43 Q 810 -24 783 19 Q 770 43 634 96 L 587 114 Q 538 133 503 141 Q 484 145 495 163 Q 507 185 516 200 L 536 233 Z" class="stroke11"/>
    <path d="M 700 255 Q 670 285 638 282 Q 625 279 630 264 Q 633 257 634 245 L 632 212 Q 626 176 587 114 L 560 82 Q 491 13 329 -17 Q 311 -23 330 -28 Q 450 -49 544 6 Q 578 25 604 58 L 634 96 Q 659 133 676 175 Q 686 203 696 216 C 712 242 713 244 700 255 Z" class="stroke12"/>
    <path d="M 696 216 Q 897 216 905 223 Q 905 224 906 225 Q 910 235 897 248 Q 846 287 796 272 Q 754 266 700 255 L 634 245 Q 591 244 536 233 L 483 227 Q 401 218 311 208 Q 292 207 306 191 Q 319 178 335 173 Q 354 169 368 172 Q 414 185 466 192 L 516 200 Q 535 204 556 205 Q 590 209 632 212 L 696 216 Z" class="stroke13"/>
    <text x="478" y="857" style="transform-origin:478px 857px; transform:scale(1,-1);">1</text>
    <text x="346" y="696" style="transform-origin:346px 696px; transform:scale(1,-1);">2</text>
    <text x="288" y="707" style="transform-origin:288px 707px; transform:scale(1,-1);">3</text>
    <text x="143" y="566" style="transform-origin:143px 566px; transform:scale(1,-1);">4</text>
    <text x="56" y="292" style="transform-origin:56px 292px; transform:scale(1,-1);">5</text>
    <text x="687" y="615" style="transform-origin:687px 615px; transform:scale(1,-1);">6</text>
    <text x="395" y="469" style="transform-origin:395px 469px; transform:scale(1,-1);">7</text>
    <text x="542" y="564" style="transform-origin:542px 564px; transform:scale(1,-1);">8</text>
    <text x="546" y="460" style="transform-origin:546px 460px; transform:scale(1,-1);">9</text>
    <text x="602" y="466" style="transform-origin:602px 466px; transform:scale(1,-1);">10</text>
    <text x="509" y="322" style="transform-origin:509px 322px; transform:scale(1,-1);">11</text>
    <text x="640" y="270" style="transform-origin:640px 270px; transform:scale(1,-1);">12</text>
    <text x="308" y="200" style="transform-origin:308px 200px; transform:scale(1,-1);">13</text></g>
</svg>