<svg version="1.1" viewBox="0 0 1024 1024" xmlns="http://www.w3.org/2000/svg">
  <g stroke="lightgray" stroke-dasharray="1,1" stroke-width="1" transform="scale(4, 4)">
    <line x1="0" y1="0" x2="256" y2="256"/>
    <line x1="256" y1="0" x2="0" y2="256"/>
    <line x1="128" y1="0" x2="128" y2="256"/>
    <line x1="0" y1="128" x2="256" y2="128"/>
  </g>
  <g transform="scale(1, -1) translate(0, -900)">
    <style type="text/css">
        .stroke1 {fill: #BF0909;}
        .stroke2 {fill: #BFBF09;}
        .stroke3 {fill: #09BF09;}
        .stroke4 {fill: #09BFBF;}
        .stroke5 {fill: #0909BF;}
        .stroke6 {fill: #BF09BF;}
        .stroke7 {fill: #42005e;}
        .stroke8 {fill: #ff3333;}
        .stroke9 {fill: #BFBFBF;}
        .stroke10 {fill: #00a53f;}
        .stroke11 {fill: #fff000;}
        .stroke12 {fill: #6600a5;}
        .stroke13 {fill: #0053a5;}
        .stroke14 {fill: #62c22b;}
        .stroke15 {fill: #BF09BF;}
        .stroke16 {fill: #BF0909;}
        .stroke17 {fill: #BFBF09;}
        .stroke18 {fill: #09BF09;}
        .stroke19 {fill: #09BFBF;}
        .stroke20 {fill: #0909BF;}
        text {
            font-family: Helvetica;
            font-size: 50px;
            fill: #FFFFFF;
            paint-order: stroke;
            stroke: #000000;
            stroke-width: 4px;
            stroke-linecap: butt;
            stroke-linejoin: miter;
            font-weight: 800;
        }
    </style>

    <path d="M 299 608 Q 306 607 319 610 Q 407 632 472 645 Q 496 651 486 664 Q 473 679 446 681 Q 413 682 300 636 C 272 625 269 609 299 608 Z" class="stroke1"/>
    <path d="M 300 636 Q 303 727 306 740 Q 310 758 299 767 Q 287 779 244 791 Q 228 794 221 789 Q 214 783 225 764 Q 264 710 246 550 Q 242 529 237 512 Q 227 478 189 439 Q 176 429 183 406 Q 190 378 203 364 Q 213 354 228 367 Q 289 422 464 528 Q 480 537 484 546 Q 487 552 480 552 Q 467 553 317 490 Q 304 486 301 490 Q 295 493 299 608 L 300 636 Z" class="stroke2"/>
    <path d="M 604 631 Q 655 650 776 711 Q 798 724 825 729 Q 849 736 841 756 Q 831 777 807 796 Q 785 815 771 815 Q 758 816 759 801 Q 759 774 666 699 Q 636 677 605 652 C 582 633 576 620 604 631 Z" class="stroke3"/>
    <path d="M 936 488 Q 949 501 933 526 Q 915 569 907 626 Q 906 636 898 644 Q 888 648 886 626 Q 879 607 870 576 Q 858 525 818 518 Q 725 497 651 526 Q 618 538 605 579 Q 602 594 604 631 L 605 652 Q 609 758 630 788 Q 637 810 619 822 Q 591 847 554 854 Q 536 858 528 849 Q 521 840 528 831 Q 549 810 551 749 Q 551 547 593 503 Q 638 451 759 446 Q 892 440 936 488 Z" class="stroke4"/>
    <path d="M 430 318 Q 461 352 499 397 Q 512 416 530 431 Q 546 444 532 457 Q 516 469 490 475 Q 466 481 456 476 Q 446 472 452 460 Q 458 447 425 356 Q 416 338 407 314 C 396 286 410 296 430 318 Z" class="stroke5"/>
    <path d="M 389 312 Q 367 328 341 336 Q 334 337 327 330 Q 324 324 331 315 Q 359 260 342 104 Q 329 58 333 38 Q 343 7 353 -5 Q 363 -17 373 -4 Q 383 8 387 29 L 393 64 Q 396 97 396 156 L 396 188 Q 396 254 399 279 C 401 304 401 304 389 312 Z" class="stroke6"/>
    <path d="M 590 42 Q 617 5 637 -31 Q 646 -49 657 -48 Q 673 -47 689 -15 Q 708 22 706 69 Q 702 130 697 241 Q 696 272 713 294 Q 723 307 714 318 Q 695 337 642 363 Q 624 373 609 363 Q 561 344 430 318 L 407 314 Q 397 314 389 312 C 359 308 369 275 399 279 Q 414 279 591 311 Q 616 315 630 306 Q 651 276 634 74 Q 631 64 624 61 C 609 35 577 60 590 42 Z" class="stroke7"/>
    <path d="M 396 156 Q 400 156 409 156 Q 502 166 571 172 Q 599 176 589 191 Q 577 209 548 215 Q 518 219 396 188 C 367 181 366 156 396 156 Z" class="stroke8"/>
    <path d="M 387 29 Q 397 28 410 29 Q 468 39 590 42 C 620 43 640 43 624 61 Q 617 70 596 85 Q 580 95 546 89 Q 461 73 393 64 C 363 60 357 31 387 29 Z" class="stroke9"/>
    <text x="303" y="615" style="transform-origin:303px 615px; transform:scale(1,-1);">1</text>
    <text x="228" y="782" style="transform-origin:228px 782px; transform:scale(1,-1);">2</text>
    <text x="769" y="804" style="transform-origin:769px 804px; transform:scale(1,-1);">3</text>
    <text x="538" y="840" style="transform-origin:538px 840px; transform:scale(1,-1);">4</text>
    <text x="459" y="467" style="transform-origin:459px 467px; transform:scale(1,-1);">5</text>
    <text x="338" y="325" style="transform-origin:338px 325px; transform:scale(1,-1);">6</text>
    <text x="394" y="308" style="transform-origin:394px 308px; transform:scale(1,-1);">7</text>
    <text x="403" y="161" style="transform-origin:403px 161px; transform:scale(1,-1);">8</text>
    <text x="393" y="34" style="transform-origin:393px 34px; transform:scale(1,-1);">9</text></g>
</svg>