<svg version="1.1" viewBox="0 0 1024 1024" xmlns="http://www.w3.org/2000/svg">
  <g stroke="lightgray" stroke-dasharray="1,1" stroke-width="1" transform="scale(4, 4)">
    <line x1="0" y1="0" x2="256" y2="256"/>
    <line x1="256" y1="0" x2="0" y2="256"/>
    <line x1="128" y1="0" x2="128" y2="256"/>
    <line x1="0" y1="128" x2="256" y2="128"/>
  </g>
  <g transform="scale(1, -1) translate(0, -900)">
    <style type="text/css">
        .stroke1 {fill: #BF0909;}
        .stroke2 {fill: #BFBF09;}
        .stroke3 {fill: #09BF09;}
        .stroke4 {fill: #09BFBF;}
        .stroke5 {fill: #0909BF;}
        .stroke6 {fill: #BF09BF;}
        .stroke7 {fill: #42005e;}
        .stroke8 {fill: #ff3333;}
        .stroke9 {fill: #BFBFBF;}
        .stroke10 {fill: #00a53f;}
        .stroke11 {fill: #fff000;}
        .stroke12 {fill: #6600a5;}
        .stroke13 {fill: #0053a5;}
        .stroke14 {fill: #62c22b;}
        .stroke15 {fill: #BF09BF;}
        .stroke16 {fill: #BF0909;}
        .stroke17 {fill: #BFBF09;}
        .stroke18 {fill: #09BF09;}
        .stroke19 {fill: #09BFBF;}
        .stroke20 {fill: #0909BF;}
        text {
            font-family: Helvetica;
            font-size: 50px;
            fill: #FFFFFF;
            paint-order: stroke;
            stroke: #000000;
            stroke-width: 4px;
            stroke-linecap: butt;
            stroke-linejoin: miter;
            font-weight: 800;
        }
    </style>

    <path d="M 682 546 Q 692 586 703 613 L 725 660 Q 737 682 752 694 Q 770 713 754 731 Q 738 744 683 771 Q 664 778 642 770 Q 591 751 546 739 L 488 726 Q 427 716 364 710 Q 346 709 348 699 Q 351 690 370 683 Q 395 671 433 683 Q 461 689 489 693 L 543 702 Q 580 711 620 717 Q 644 723 653 713 Q 665 703 662 679 L 656 649 L 649 611 Q 642 583 634 554 C 626 525 674 517 682 546 Z" class="stroke1"/>
    <path d="M 703 613 Q 770 616 848 616 Q 927 613 935 624 Q 941 636 924 650 Q 867 692 800 674 Q 764 668 725 660 L 656 649 Q 601 642 539 632 L 490 626 Q 333 607 153 586 Q 131 585 147 567 Q 160 554 179 548 Q 200 542 216 546 Q 324 576 490 597 L 537 602 Q 586 609 649 611 L 703 613 Z" class="stroke2"/>
    <path d="M 530 495 Q 597 505 691 514 Q 701 515 703 524 Q 703 531 682 546 C 664 560 663 560 634 554 Q 631 554 533 531 L 488 523 Q 428 513 375 507 Q 354 506 367 488 Q 374 479 384 475 Q 394 472 407 475 Q 440 482 487 489 L 530 495 Z" class="stroke3"/>
    <path d="M 525 424 Q 528 461 530 495 L 533 531 Q 534 568 537 602 L 539 632 Q 539 668 543 702 L 546 739 Q 555 793 563 814 Q 566 824 546 840 Q 510 859 486 863 Q 470 867 462 858 Q 455 851 463 836 Q 487 799 487 775 Q 488 751 488 726 L 489 693 Q 489 662 490 626 L 490 597 Q 489 561 488 523 L 487 489 Q 486 455 483 417 C 481 387 523 394 525 424 Z" class="stroke4"/>
    <path d="M 483 417 Q 399 410 337 403 Q 309 400 330 383 Q 360 358 388 364 Q 568 395 717 409 Q 727 408 736 419 Q 737 429 716 441 Q 686 463 616 443 Q 549 431 525 424 L 483 417 Z" class="stroke5"/>
    <path d="M 262 360 Q 232 318 196 283 Q 169 261 179 219 Q 183 200 206 208 Q 257 229 276 298 Q 288 329 286 355 Q 282 365 277 367 Q 268 367 262 360 Z" class="stroke6"/>
    <path d="M 377 316 Q 405 267 426 254 Q 436 250 444 257 Q 451 266 451 278 Q 448 308 392 341 Q 382 347 374 346 Q 370 346 369 337 Q 369 328 377 316 Z" class="stroke7"/>
    <path d="M 512 316 Q 557 271 569 270 Q 576 270 581 281 Q 585 291 579 315 Q 572 336 509 353 Q 497 357 492 355 Q 488 351 489 342 Q 490 333 512 316 Z" class="stroke8"/>
    <path d="M 694 328 Q 733 300 776 264 Q 789 252 806 254 Q 816 255 821 268 Q 825 284 814 313 Q 807 337 767 354 Q 682 384 664 375 Q 660 371 661 358 Q 665 348 694 328 Z" class="stroke9"/>
    <path d="M 317 197 Q 307 201 284 204 Q 272 207 269 202 Q 262 195 271 180 Q 296 132 314 54 Q 315 38 324 24 C 339 -2 358 -4 358 26 Q 358 41 356 61 Q 343 143 340 167 C 337 190 337 190 317 197 Z" class="stroke10"/>
    <path d="M 699 59 Q 709 89 717 117 Q 729 154 757 181 Q 776 203 749 221 Q 724 240 699 254 Q 684 264 619 244 Q 571 241 410 211 Q 356 202 317 197 C 287 193 311 160 340 167 Q 382 177 416 185 L 430 188 Q 467 197 532 201 L 570 205 Q 604 209 648 213 Q 661 214 667 207 Q 679 188 642 52 C 634 23 690 30 699 59 Z" class="stroke11"/>
    <path d="M 470 36 Q 473 84 445 172 Q 441 181 434 186 Q 433 187 430 188 C 417 195 417 195 416 185 Q 413 184 421 153 Q 424 134 424 112 Q 425 87 427 67 Q 427 58 440 33 C 454 6 469 6 470 36 Z" class="stroke12"/>
    <path d="M 556 43 Q 565 64 586 128 Q 590 144 601 165 Q 611 178 603 186 Q 593 196 570 205 C 542 216 526 223 532 201 Q 542 168 543 138 Q 540 104 532 58 Q 529 49 529 41 C 527 11 545 15 556 43 Z" class="stroke13"/>
    <path d="M 324 24 Q 242 20 155 12 Q 131 11 148 -9 Q 163 -25 182 -32 Q 206 -39 224 -35 Q 476 22 889 -1 Q 911 -1 917 8 Q 924 21 906 37 Q 846 86 782 71 Q 743 67 699 59 L 642 52 Q 602 49 556 43 L 529 41 Q 522 42 515 40 Q 491 39 470 36 L 440 33 Q 400 32 358 26 L 324 24 Z" class="stroke14"/>
    <text x="358" y="700" style="transform-origin:358px 700px; transform:scale(1,-1);">1</text>
    <text x="150" y="577" style="transform-origin:150px 577px; transform:scale(1,-1);">2</text>
    <text x="372" y="497" style="transform-origin:372px 497px; transform:scale(1,-1);">3</text>
    <text x="474" y="849" style="transform-origin:474px 849px; transform:scale(1,-1);">4</text>
    <text x="332" y="394" style="transform-origin:332px 394px; transform:scale(1,-1);">5</text>
    <text x="275" y="356" style="transform-origin:275px 356px; transform:scale(1,-1);">6</text>
    <text x="378" y="338" style="transform-origin:378px 338px; transform:scale(1,-1);">7</text>
    <text x="496" y="347" style="transform-origin:496px 347px; transform:scale(1,-1);">8</text>
    <text x="669" y="369" style="transform-origin:669px 369px; transform:scale(1,-1);">9</text>
    <text x="278" y="194" style="transform-origin:278px 194px; transform:scale(1,-1);">10</text>
    <text x="324" y="195" style="transform-origin:324px 195px; transform:scale(1,-1);">11</text>
    <text x="424" y="181" style="transform-origin:424px 181px; transform:scale(1,-1);">12</text>
    <text x="539" y="194" style="transform-origin:539px 194px; transform:scale(1,-1);">13</text>
    <text x="151" y="2" style="transform-origin:151px 2px; transform:scale(1,-1);">14</text></g>
</svg>