<svg version="1.1" viewBox="0 0 1024 1024" xmlns="http://www.w3.org/2000/svg">
  <g stroke="lightgray" stroke-dasharray="1,1" stroke-width="1" transform="scale(4, 4)">
    <line x1="0" y1="0" x2="256" y2="256"/>
    <line x1="256" y1="0" x2="0" y2="256"/>
    <line x1="128" y1="0" x2="128" y2="256"/>
    <line x1="0" y1="128" x2="256" y2="128"/>
  </g>
  <g transform="scale(1, -1) translate(0, -900)">
    <style type="text/css">
        .stroke1 {fill: #BF0909;}
        .stroke2 {fill: #BFBF09;}
        .stroke3 {fill: #09BF09;}
        .stroke4 {fill: #09BFBF;}
        .stroke5 {fill: #0909BF;}
        .stroke6 {fill: #BF09BF;}
        .stroke7 {fill: #42005e;}
        .stroke8 {fill: #ff3333;}
        .stroke9 {fill: #BFBFBF;}
        .stroke10 {fill: #00a53f;}
        .stroke11 {fill: #fff000;}
        .stroke12 {fill: #6600a5;}
        .stroke13 {fill: #0053a5;}
        .stroke14 {fill: #62c22b;}
        .stroke15 {fill: #BF09BF;}
        .stroke16 {fill: #BF0909;}
        .stroke17 {fill: #BFBF09;}
        .stroke18 {fill: #09BF09;}
        .stroke19 {fill: #09BFBF;}
        .stroke20 {fill: #0909BF;}
        text {
            font-family: Helvetica;
            font-size: 50px;
            fill: #FFFFFF;
            paint-order: stroke;
            stroke: #000000;
            stroke-width: 4px;
            stroke-linecap: butt;
            stroke-linejoin: miter;
            font-weight: 800;
        }
    </style>

    <path d="M 401 750 Q 398 754 390 757 Q 370 768 361 762 Q 358 760 359 755 Q 359 743 365 734 L 368 729 Q 386 689 378 512 Q 363 435 392 400 Q 396 395 401 395 Q 412 396 417 419 L 419 451 L 419 476 L 419 484 Q 417 515 417 517 L 417 545 L 417 614 L 417 647 L 417 725 C 417 739 417 739 401 750 Z" class="stroke1"/>
    <path d="M 590 455 L 597 443 Q 619 408 628 409 Q 632 410 637 416 Q 658 441 658 490 Q 651 722 673 753 Q 684 769 675 780 Q 672 785 658 792 Q 620 811 596 808 Q 593 808 588 806 Q 516 780 401 750 C 372 742 388 717 417 725 Q 561 764 598 764 Q 600 764 601 764 Q 617 750 612 623 Q 612 588 606 508 Q 607 504 607 500 Q 606 487 589 489 Q 579 488 578 487 C 571 486 575 481 590 455 Z" class="stroke2"/>
    <path d="M 417 614 L 568 647 Q 574 649 577 650 Q 586 655 581 662 Q 572 674 551 676 Q 515 678 417 647 C 388 638 388 608 417 614 Z" class="stroke3"/>
    <path d="M 417 517 Q 438 525 573 551 Q 592 554 584 564 Q 575 573 557 577 Q 523 579 429 553 L 419 548 Q 417 546 417 545 C 396 524 389 508 417 517 Z" class="stroke4"/>
    <path d="M 417 419 Q 557 429 590 455 C 615 472 607 481 578 487 Q 564 491 545 485 L 419 451 C 390 443 387 417 417 419 Z" class="stroke5"/>
    <path d="M 517 325 Q 527 323 546 329 Q 668 370 789 370 Q 809 370 809 381 Q 809 393 776 410 Q 757 418 744 416 L 688 400 L 341 321 Q 323 316 312 318 Q 304 318 300 321 Q 294 325 294 338 Q 296 384 299 421 L 308 506 Q 310 527 303 537 Q 300 544 291 552 Q 264 578 237 578 Q 220 577 227 558 Q 261 509 255 457 Q 255 336 241 316 Q 230 295 245 275 Q 257 261 269 261 Q 274 261 298 272 L 468 312 L 517 325 Z" class="stroke6"/>
    <path d="M 468 312 Q 471 308 473 304 Q 494 263 494 220 Q 502 124 499 88 Q 497 53 484 45 Q 476 41 437 47 L 382 57 Q 374 57 372 51 L 372 50 Q 373 43 385 34 Q 467 -31 495 -71 Q 508 -84 518 -80 Q 526 -78 535 -66 Q 564 -27 564 41 Q 553 102 551 176 Q 551 221 563 263 Q 568 281 564 289 Q 564 292 561 295 Q 543 314 517 325 C 490 338 453 338 468 312 Z" class="stroke7"/>
    <path d="M 258 220 Q 247 201 235 182 L 186 115 Q 169 86 174 59 Q 174 57 179 42 Q 180 40 180 39 Q 190 21 213 33 Q 272 70 282 149 Q 286 167 288 182 Q 292 223 274 229 Q 264 229 258 220 Z" class="stroke8"/>
    <path d="M 653 274 Q 653 269 655 264 Q 659 254 682 231 Q 756 161 811 100 Q 821 88 829 82 Q 850 65 864 83 Q 876 97 864 145 Q 849 207 666 282 Q 656 288 653 274 Z" class="stroke9"/>
    <text x="368" y="756" style="transform-origin:368px 756px; transform:scale(1,-1);">1</text>
    <text x="411" y="748" style="transform-origin:411px 748px; transform:scale(1,-1);">2</text>
    <text x="424" y="620" style="transform-origin:424px 620px; transform:scale(1,-1);">3</text>
    <text x="418" y="524" style="transform-origin:418px 524px; transform:scale(1,-1);">4</text>
    <text x="428" y="424" style="transform-origin:428px 424px; transform:scale(1,-1);">5</text>
    <text x="236" y="566" style="transform-origin:236px 566px; transform:scale(1,-1);">6</text>
    <text x="475" y="311" style="transform-origin:475px 311px; transform:scale(1,-1);">7</text>
    <text x="272" y="218" style="transform-origin:272px 218px; transform:scale(1,-1);">8</text>
    <text x="664" y="271" style="transform-origin:664px 271px; transform:scale(1,-1);">9</text></g>
</svg>