<svg version="1.1" viewBox="0 0 1024 1024" xmlns="http://www.w3.org/2000/svg">
  <g stroke="lightgray" stroke-dasharray="1,1" stroke-width="1" transform="scale(4, 4)">
    <line x1="0" y1="0" x2="256" y2="256"/>
    <line x1="256" y1="0" x2="0" y2="256"/>
    <line x1="128" y1="0" x2="128" y2="256"/>
    <line x1="0" y1="128" x2="256" y2="128"/>
  </g>
  <g transform="scale(1, -1) translate(0, -900)">
    <style type="text/css">
        .stroke1 {fill: #BF0909;}
        .stroke2 {fill: #BFBF09;}
        .stroke3 {fill: #09BF09;}
        .stroke4 {fill: #09BFBF;}
        .stroke5 {fill: #0909BF;}
        .stroke6 {fill: #BF09BF;}
        .stroke7 {fill: #42005e;}
        .stroke8 {fill: #ff3333;}
        .stroke9 {fill: #BFBFBF;}
        .stroke10 {fill: #00a53f;}
        .stroke11 {fill: #fff000;}
        .stroke12 {fill: #6600a5;}
        .stroke13 {fill: #0053a5;}
        .stroke14 {fill: #62c22b;}
        .stroke15 {fill: #BF09BF;}
        .stroke16 {fill: #BF0909;}
        .stroke17 {fill: #BFBF09;}
        .stroke18 {fill: #09BF09;}
        .stroke19 {fill: #09BFBF;}
        .stroke20 {fill: #0909BF;}
        text {
            font-family: Helvetica;
            font-size: 50px;
            fill: #FFFFFF;
            paint-order: stroke;
            stroke: #000000;
            stroke-width: 4px;
            stroke-linecap: butt;
            stroke-linejoin: miter;
            font-weight: 800;
        }
    </style>

    <path d="M 148 655 Q 111 679 96 673 Q 89 669 94 656 Q 112 578 114 573 Q 114 318 99 251 Q 78 170 114 125 Q 124 112 135 124 Q 145 139 147 167 L 151 202 Q 152 227 153 336 L 154 371 Q 155 426 157 468 L 158 503 Q 161 599 163 610 Q 164 620 164 628 C 165 645 165 645 148 655 Z" class="stroke1"/>
    <path d="M 243 175 Q 256 153 269 130 Q 285 105 293 108 Q 306 109 321 145 Q 337 184 334 233 Q 319 584 349 636 Q 359 655 352 666 Q 345 676 293 693 Q 268 702 251 692 Q 196 665 148 655 C 119 648 135 622 164 628 Q 195 634 236 647 Q 261 654 271 646 Q 286 633 284 576 Q 283 344 269 218 Q 270 196 255 197 C 240 181 240 181 243 175 Z" class="stroke2"/>
    <path d="M 157 468 Q 208 475 247 479 Q 271 483 261 496 Q 251 511 225 514 Q 201 517 158 503 C 129 494 127 464 157 468 Z" class="stroke3"/>
    <path d="M 153 336 Q 204 343 243 347 Q 265 351 257 364 Q 247 379 221 383 Q 197 384 156 373 Q 155 372 154 371 C 130 353 123 332 153 336 Z" class="stroke4"/>
    <path d="M 147 167 Q 151 173 243 175 C 273 176 277 177 255 197 Q 248 204 236 211 Q 218 220 151 202 C 122 194 120 153 147 167 Z" class="stroke5"/>
    <path d="M 450 520 Q 449 519 447 514 Q 414 439 350 362 Q 331 344 350 349 Q 407 361 476 476 Q 518 548 544 637 Q 556 680 567 694 Q 577 706 570 715 Q 563 724 511 736 Q 499 739 481 725 Q 460 709 407 689 Q 394 686 406 675 Q 416 665 446 676 Q 483 689 487 685 Q 493 675 486 631 Q 482 597 462 549 L 450 520 Z" class="stroke6"/>
    <path d="M 462 549 Q 456 565 443 576 Q 409 597 384 591 Q 383 591 381 590 Q 377 589 378 580 Q 379 552 442 520 Q 442 521 443 520 Q 446 520 450 520 C 474 520 473 521 462 549 Z" class="stroke7"/>
    <path d="M 633 671 Q 702 726 736 747 Q 752 753 748 763 Q 741 778 722 793 Q 703 809 681 809 Q 668 808 670 790 Q 673 777 666 761 Q 650 731 618 683 C 601 658 610 652 633 671 Z" class="stroke8"/>
    <path d="M 718 592 Q 809 643 855 661 Q 874 664 871 676 Q 867 692 850 714 Q 834 735 810 740 Q 795 741 793 721 Q 794 699 701 608 C 680 587 692 577 718 592 Z" class="stroke9"/>
    <path d="M 701 608 Q 668 636 633 671 L 618 683 Q 614 684 608 685 Q 586 684 581 677 Q 580 673 586 668 Q 617 652 639 623 Q 739 499 821 414 Q 836 398 859 399 Q 980 421 989 434 Q 993 440 984 443 Q 828 501 718 592 L 701 608 Z" class="stroke10"/>
    <path d="M 574 398 Q 628 411 685 422 Q 712 429 715 433 Q 724 440 719 449 Q 712 459 684 466 Q 654 472 625 459 Q 595 449 563 441 Q 526 432 484 428 Q 450 421 475 406 Q 497 393 529 392 L 574 398 Z" class="stroke11"/>
    <path d="M 591 264 Q 672 277 814 278 Q 832 279 836 286 Q 840 296 825 308 Q 771 344 714 324 Q 665 315 597 300 L 540 290 Q 471 280 394 267 Q 376 266 390 251 Q 403 239 418 235 Q 436 231 450 235 Q 490 247 536 255 L 591 264 Z" class="stroke12"/>
    <path d="M 536 255 Q 509 129 426 59 Q 396 40 351 13 Q 329 0 356 1 Q 402 -2 473 44 Q 557 95 591 264 L 597 300 Q 600 342 610 363 Q 617 369 611 379 Q 607 386 579 396 Q 576 397 574 398 C 546 409 521 419 529 392 Q 544 352 540 290 L 536 255 Z" class="stroke13"/>
    <path d="M 636 146 Q 696 97 767 23 Q 786 1 803 -4 Q 813 -5 821 7 Q 834 23 818 71 Q 800 131 636 181 Q 626 187 624 173 Q 624 157 636 146 Z" class="stroke14"/>
    <text x="102" y="665" style="transform-origin:102px 665px; transform:scale(1,-1);">1</text>
    <text x="156" y="651" style="transform-origin:156px 651px; transform:scale(1,-1);">2</text>
    <text x="165" y="474" style="transform-origin:165px 474px; transform:scale(1,-1);">3</text>
    <text x="161" y="342" style="transform-origin:161px 342px; transform:scale(1,-1);">4</text>
    <text x="152" y="174" style="transform-origin:152px 174px; transform:scale(1,-1);">5</text>
    <text x="415" y="681" style="transform-origin:415px 681px; transform:scale(1,-1);">6</text>
    <text x="385" y="583" style="transform-origin:385px 583px; transform:scale(1,-1);">7</text>
    <text x="683" y="795" style="transform-origin:683px 795px; transform:scale(1,-1);">8</text>
    <text x="858" y="674" style="transform-origin:858px 674px; transform:scale(1,-1);">9</text>
    <text x="588" y="675" style="transform-origin:588px 675px; transform:scale(1,-1);">10</text>
    <text x="477" y="418" style="transform-origin:477px 418px; transform:scale(1,-1);">11</text>
    <text x="392" y="259" style="transform-origin:392px 259px; transform:scale(1,-1);">12</text>
    <text x="537" y="388" style="transform-origin:537px 388px; transform:scale(1,-1);">13</text>
    <text x="636" y="168" style="transform-origin:636px 168px; transform:scale(1,-1);">14</text></g>
</svg>