<svg version="1.1" viewBox="0 0 1024 1024" xmlns="http://www.w3.org/2000/svg">
  <g stroke="lightgray" stroke-dasharray="1,1" stroke-width="1" transform="scale(4, 4)">
    <line x1="0" y1="0" x2="256" y2="256"/>
    <line x1="256" y1="0" x2="0" y2="256"/>
    <line x1="128" y1="0" x2="128" y2="256"/>
    <line x1="0" y1="128" x2="256" y2="128"/>
  </g>
  <g transform="scale(1, -1) translate(0, -900)">
    <style type="text/css">
        .stroke1 {fill: #BF0909;}
        .stroke2 {fill: #BFBF09;}
        .stroke3 {fill: #09BF09;}
        .stroke4 {fill: #09BFBF;}
        .stroke5 {fill: #0909BF;}
        .stroke6 {fill: #BF09BF;}
        .stroke7 {fill: #42005e;}
        .stroke8 {fill: #ff3333;}
        .stroke9 {fill: #BFBFBF;}
        .stroke10 {fill: #00a53f;}
        .stroke11 {fill: #fff000;}
        .stroke12 {fill: #6600a5;}
        .stroke13 {fill: #0053a5;}
        .stroke14 {fill: #62c22b;}
        .stroke15 {fill: #BF09BF;}
        .stroke16 {fill: #BF0909;}
        .stroke17 {fill: #BFBF09;}
        .stroke18 {fill: #09BF09;}
        .stroke19 {fill: #09BFBF;}
        .stroke20 {fill: #0909BF;}
        text {
            font-family: Helvetica;
            font-size: 50px;
            fill: #FFFFFF;
            paint-order: stroke;
            stroke: #000000;
            stroke-width: 4px;
            stroke-linecap: butt;
            stroke-linejoin: miter;
            font-weight: 800;
        }
    </style>

    <path d="M 636 634 Q 521 618 399 589 Q 387 585 383 588 Q 380 592 388 603 Q 515 756 541 781 Q 554 791 549 804 Q 543 817 496 844 Q 480 853 470 850 Q 457 844 461 823 Q 474 766 351 623 Q 327 602 293 580 Q 278 570 282 558 Q 286 540 311 518 Q 321 506 336 517 Q 390 557 632 605 Q 645 609 654 613 C 682 623 666 638 636 634 Z" class="stroke1"/>
    <path d="M 654 613 Q 703 546 717 540 Q 724 537 733 546 Q 746 558 738 600 Q 731 654 594 719 Q 585 725 583 713 Q 582 700 590 689 Q 612 665 636 634 L 654 613 Z" class="stroke2"/>
    <path d="M 401 428 Q 417 450 434 468 Q 444 478 432 494 Q 393 528 372 526 Q 362 525 362 511 Q 366 439 268 338 Q 256 328 250 319 Q 241 306 255 309 Q 310 315 384 405 L 401 428 Z" class="stroke3"/>
    <path d="M 507 397 Q 693 439 699 445 Q 709 455 704 463 Q 695 476 664 483 Q 640 487 534 454 Q 461 436 401 428 C 371 424 357 419 384 405 Q 418 386 454 388 L 507 397 Z" class="stroke4"/>
    <path d="M 532 241 Q 643 253 868 254 Q 890 254 896 264 Q 902 277 883 292 Q 813 343 770 322 Q 676 306 527 279 L 465 270 Q 315 251 142 229 Q 118 226 136 207 Q 170 176 213 185 Q 325 216 451 231 Q 452 232 456 231 L 532 241 Z" class="stroke5"/>
    <path d="M 456 231 Q 414 107 266 38 Q 238 26 202 11 Q 174 -1 206 -4 Q 263 -7 356 36 Q 408 63 436 93 Q 482 138 512 224 L 527 279 Q 540 348 547 357 Q 554 364 548 375 Q 542 382 511 395 Q 508 396 507 397 C 480 409 446 417 454 388 Q 461 360 471 329 Q 471 296 465 270 L 456 231 Z" class="stroke6"/>
    <path d="M 512 224 Q 605 103 724 -26 Q 760 -59 928 -24 Q 938 -20 940 -15 Q 940 -9 925 -2 Q 769 52 720 86 Q 635 150 532 241 C 509 261 494 248 512 224 Z" class="stroke7"/>
    <text x="476" y="836" style="transform-origin:476px 836px; transform:scale(1,-1);">1</text>
    <text x="593" y="708" style="transform-origin:593px 708px; transform:scale(1,-1);">2</text>
    <text x="374" y="514" style="transform-origin:374px 514px; transform:scale(1,-1);">3</text>
    <text x="393" y="407" style="transform-origin:393px 407px; transform:scale(1,-1);">4</text>
    <text x="139" y="218" style="transform-origin:139px 218px; transform:scale(1,-1);">5</text>
    <text x="462" y="382" style="transform-origin:462px 382px; transform:scale(1,-1);">6</text>
    <text x="521" y="229" style="transform-origin:521px 229px; transform:scale(1,-1);">7</text></g>
</svg>