<svg version="1.1" viewBox="0 0 1024 1024" xmlns="http://www.w3.org/2000/svg">
  <g stroke="lightgray" stroke-dasharray="1,1" stroke-width="1" transform="scale(4, 4)">
    <line x1="0" y1="0" x2="256" y2="256"/>
    <line x1="256" y1="0" x2="0" y2="256"/>
    <line x1="128" y1="0" x2="128" y2="256"/>
    <line x1="0" y1="128" x2="256" y2="128"/>
  </g>
  <g transform="scale(1, -1) translate(0, -900)">
    <style type="text/css">
        .stroke1 {fill: #BF0909;}
        .stroke2 {fill: #BFBF09;}
        .stroke3 {fill: #09BF09;}
        .stroke4 {fill: #09BFBF;}
        .stroke5 {fill: #0909BF;}
        .stroke6 {fill: #BF09BF;}
        .stroke7 {fill: #42005e;}
        .stroke8 {fill: #ff3333;}
        .stroke9 {fill: #BFBFBF;}
        .stroke10 {fill: #00a53f;}
        .stroke11 {fill: #fff000;}
        .stroke12 {fill: #6600a5;}
        .stroke13 {fill: #0053a5;}
        .stroke14 {fill: #62c22b;}
        .stroke15 {fill: #BF09BF;}
        .stroke16 {fill: #BF0909;}
        .stroke17 {fill: #BFBF09;}
        .stroke18 {fill: #09BF09;}
        .stroke19 {fill: #09BFBF;}
        .stroke20 {fill: #0909BF;}
        text {
            font-family: Helvetica;
            font-size: 50px;
            fill: #FFFFFF;
            paint-order: stroke;
            stroke: #000000;
            stroke-width: 4px;
            stroke-linecap: butt;
            stroke-linejoin: miter;
            font-weight: 800;
        }
    </style>

    <path d="M 366 706 Q 408 716 452 724 Q 483 731 487 735 Q 496 742 491 752 Q 484 764 454 771 Q 423 777 392 764 Q 358 754 320 744 Q 278 734 229 730 Q 192 723 219 706 Q 261 684 319 696 Q 320 697 323 696 L 366 706 Z" class="stroke1"/>
    <path d="M 382 573 Q 404 580 429 585 Q 460 592 464 597 Q 471 604 467 611 Q 460 620 437 625 Q 400 631 384 616 L 333 599 Q 324 598 318 595 Q 278 585 230 578 Q 200 572 222 560 Q 255 542 334 562 L 382 573 Z" class="stroke2"/>
    <path d="M 378 478 Q 379 529 382 573 L 384 616 Q 390 688 378 695 Q 372 702 366 706 C 343 725 313 724 323 696 Q 329 690 333 599 L 334 562 Q 334 525 335 469 C 336 439 377 448 378 478 Z" class="stroke3"/>
    <path d="M 335 469 Q 278 459 219 445 Q 200 441 170 444 Q 157 443 154 433 Q 150 420 160 410 Q 182 392 215 370 Q 225 366 238 375 Q 266 394 445 462 Q 470 472 488 483 Q 501 490 503 500 Q 497 506 485 504 Q 433 491 378 478 L 335 469 Z" class="stroke4"/>
    <path d="M 625 704 Q 670 749 680 758 Q 693 777 713 792 Q 731 805 717 820 Q 701 833 674 840 Q 649 847 638 842 Q 626 838 633 826 Q 642 802 595 698 Q 594 698 594 697 C 580 671 604 683 625 704 Z" class="stroke5"/>
    <path d="M 568 691 Q 550 703 531 709 Q 525 712 521 707 Q 514 703 521 692 Q 549 641 551 520 Q 551 466 582 439 L 583 438 Q 599 434 601 460 Q 601 461 601 462 L 601 485 Q 600 503 596 522 Q 595 541 592 567 L 591 593 Q 590 630 591 659 Q 591 660 591 663 C 591 676 591 676 568 691 Z" class="stroke6"/>
    <path d="M 737 476 Q 756 448 773 442 Q 783 435 796 456 Q 809 483 829 625 Q 835 653 855 678 Q 867 690 855 702 Q 840 717 800 739 Q 781 746 767 739 Q 745 733 716 727 Q 679 718 629 706 Q 626 706 625 704 L 594 697 Q 581 696 568 691 C 539 683 562 654 591 663 Q 643 681 737 697 Q 758 701 765 694 Q 780 679 778 663 Q 763 522 750 500 C 740 473 734 479 737 476 Z" class="stroke7"/>
    <path d="M 592 567 Q 596 566 604 567 Q 671 577 723 584 Q 745 588 737 600 Q 727 615 701 619 Q 674 622 591 593 C 563 583 562 570 592 567 Z" class="stroke8"/>
    <path d="M 601 462 Q 602 462 605 462 Q 680 472 737 476 C 767 478 777 486 750 500 Q 743 504 733 507 Q 721 508 601 485 C 572 479 571 461 601 462 Z" class="stroke9"/>
    <path d="M 483 312 Q 576 328 799 353 Q 809 352 820 364 Q 821 377 798 388 Q 761 412 695 392 Q 503 353 312 334 Q 294 333 277 330 Q 247 327 270 308 Q 301 281 346 289 Q 385 298 432 304 L 483 312 Z" class="stroke10"/>
    <path d="M 423 182 Q 486 249 501 258 Q 508 262 509 272 Q 509 290 483 312 C 461 333 439 333 432 304 Q 428 268 363 192 Q 264 93 167 35 Q 131 14 83 -13 Q 74 -17 84 -21 Q 133 -25 273 55 Q 339 104 377 138 L 423 182 Z" class="stroke11"/>
    <path d="M 427 180 Q 426 181 423 182 C 402 203 366 166 377 138 Q 396 89 411 15 Q 415 -13 431 -32 Q 450 -54 455 -38 Q 461 -22 458 7 L 452 45 Q 440 118 438 146 C 435 176 435 180 427 180 Z" class="stroke12"/>
    <path d="M 729 65 Q 760 141 790 160 Q 809 179 793 199 Q 775 214 720 241 Q 701 250 677 241 Q 592 207 427 180 C 397 175 408 142 438 146 Q 447 146 656 188 Q 680 194 689 184 Q 696 177 695 160 Q 688 114 676 75 C 668 46 717 37 729 65 Z" class="stroke13"/>
    <path d="M 458 7 Q 465 6 473 7 Q 558 20 740 26 Q 752 27 754 37 Q 755 44 729 65 L 676 75 Q 672 76 669 75 Q 548 53 452 45 C 422 42 428 8 458 7 Z" class="stroke14"/>
    <text x="221" y="719" style="transform-origin:221px 719px; transform:scale(1,-1);">1</text>
    <text x="223" y="570" style="transform-origin:223px 570px; transform:scale(1,-1);">2</text>
    <text x="330" y="697" style="transform-origin:330px 697px; transform:scale(1,-1);">3</text>
    <text x="169" y="428" style="transform-origin:169px 428px; transform:scale(1,-1);">4</text>
    <text x="640" y="833" style="transform-origin:640px 833px; transform:scale(1,-1);">5</text>
    <text x="528" y="700" style="transform-origin:528px 700px; transform:scale(1,-1);">6</text>
    <text x="576" y="689" style="transform-origin:576px 689px; transform:scale(1,-1);">7</text>
    <text x="598" y="574" style="transform-origin:598px 574px; transform:scale(1,-1);">8</text>
    <text x="603" y="468" style="transform-origin:603px 468px; transform:scale(1,-1);">9</text>
    <text x="271" y="320" style="transform-origin:271px 320px; transform:scale(1,-1);">10</text>
    <text x="439" y="298" style="transform-origin:439px 298px; transform:scale(1,-1);">11</text>
    <text x="421" y="173" style="transform-origin:421px 173px; transform:scale(1,-1);">12</text>
    <text x="439" y="152" style="transform-origin:439px 152px; transform:scale(1,-1);">13</text>
    <text x="459" y="40" style="transform-origin:459px 40px; transform:scale(1,-1);">14</text></g>
</svg>