<svg version="1.1" viewBox="0 0 1024 1024" xmlns="http://www.w3.org/2000/svg">
  <g stroke="lightgray" stroke-dasharray="1,1" stroke-width="1" transform="scale(4, 4)">
    <line x1="0" y1="0" x2="256" y2="256"/>
    <line x1="256" y1="0" x2="0" y2="256"/>
    <line x1="128" y1="0" x2="128" y2="256"/>
    <line x1="0" y1="128" x2="256" y2="128"/>
  </g>
  <g transform="scale(1, -1) translate(0, -900)">
    <style type="text/css">
        .stroke1 {fill: #BF0909;}
        .stroke2 {fill: #BFBF09;}
        .stroke3 {fill: #09BF09;}
        .stroke4 {fill: #09BFBF;}
        .stroke5 {fill: #0909BF;}
        .stroke6 {fill: #BF09BF;}
        .stroke7 {fill: #42005e;}
        .stroke8 {fill: #ff3333;}
        .stroke9 {fill: #BFBFBF;}
        .stroke10 {fill: #00a53f;}
        .stroke11 {fill: #fff000;}
        .stroke12 {fill: #6600a5;}
        .stroke13 {fill: #0053a5;}
        .stroke14 {fill: #62c22b;}
        .stroke15 {fill: #BF09BF;}
        .stroke16 {fill: #BF0909;}
        .stroke17 {fill: #BFBF09;}
        .stroke18 {fill: #09BF09;}
        .stroke19 {fill: #09BFBF;}
        .stroke20 {fill: #0909BF;}
        text {
            font-family: Helvetica;
            font-size: 50px;
            fill: #FFFFFF;
            paint-order: stroke;
            stroke: #000000;
            stroke-width: 4px;
            stroke-linecap: butt;
            stroke-linejoin: miter;
            font-weight: 800;
        }
    </style>

    <path d="M 254 617 Q 309 633 370 648 Q 404 658 409 663 Q 416 672 412 680 Q 405 692 374 697 Q 347 700 256 667 Q 156 643 135 639 Q 98 630 126 615 Q 159 597 212 606 L 254 617 Z" class="stroke1"/>
    <path d="M 216 403 Q 243 460 279 557 Q 291 590 291 593 Q 288 600 275 609 Q 265 615 254 617 C 225 626 204 633 212 606 Q 236 545 172 404 L 150 361 Q 129 321 47 210 Q 41 204 50 204 Q 86 217 162 312 L 216 403 Z" class="stroke2"/>
    <path d="M 172 404 Q 165 407 155 409 Q 145 413 141 409 Q 135 403 141 389 Q 145 376 150 361 L 162 312 Q 169 270 174 217 Q 174 186 190 163 Q 205 142 210 156 Q 220 177 215 217 L 211 250 Q 201 344 201 371 L 172 404 Z" class="stroke3"/>
    <path d="M 346 272 Q 362 357 387 382 Q 408 407 385 419 Q 367 429 341 445 Q 323 454 306 443 Q 284 427 255 416 Q 236 410 216 403 C 171 387 172 365 201 371 Q 208 372 221 376 Q 258 386 289 395 Q 310 401 316 392 Q 323 386 316 353 Q 309 319 300 278 C 294 249 340 243 346 272 Z" class="stroke4"/>
    <path d="M 215 217 Q 224 216 236 219 Q 273 229 358 241 Q 368 242 369 252 Q 369 259 346 272 C 326 284 326 284 300 278 Q 294 277 290 275 Q 247 259 211 250 C 182 243 185 218 215 217 Z" class="stroke5"/>
    <path d="M 606 807 Q 628 791 654 770 Q 669 760 683 761 Q 693 762 697 776 Q 700 791 688 818 Q 676 843 597 852 Q 581 853 576 851 Q 572 847 574 835 Q 578 825 606 807 Z" class="stroke6"/>
    <path d="M 747 688 Q 757 692 772 694 Q 812 704 819 710 Q 826 717 823 725 Q 816 735 790 742 Q 769 746 658 712 Q 603 697 516 686 Q 482 680 507 665 Q 546 644 596 656 Q 651 669 713 681 L 747 688 Z" class="stroke7"/>
    <path d="M 538 588 Q 562 546 582 533 Q 592 529 600 537 Q 607 546 607 558 Q 606 576 594 587 Q 563 618 538 618 Q 535 619 534 618 Q 530 618 529 608 Q 529 601 538 588 Z" class="stroke8"/>
    <path d="M 697 532 Q 715 550 752 610 Q 759 623 772 639 Q 785 649 777 658 Q 770 673 747 688 C 722 705 703 709 713 681 L 714 680 Q 721 656 688 562 Q 681 546 681 534 Q 680 531 681 529 C 681 515 681 515 697 532 Z" class="stroke9"/>
    <path d="M 477 489 Q 467 510 449 522 Q 446 526 441 522 Q 437 519 436 509 Q 439 482 414 422 Q 405 407 406 391 Q 409 375 417 361 Q 424 351 429 359 Q 439 362 454 404 Q 470 458 478 465 C 485 474 485 474 477 489 Z" class="stroke10"/>
    <path d="M 649 496 Q 701 509 786 523 Q 844 533 860 532 Q 875 525 873 518 Q 873 517 848 452 Q 844 440 849 437 Q 855 434 868 444 Q 913 478 951 492 Q 982 504 981 511 Q 980 520 917 561 Q 896 576 759 544 Q 753 544 697 532 L 681 529 Q 629 520 563 505 Q 520 498 477 489 C 448 483 450 476 478 465 Q 497 453 520 460 Q 557 475 602 485 L 649 496 Z" class="stroke11"/>
    <path d="M 531 370 Q 506 380 492 380 Q 480 376 486 366 Q 514 306 488 221 Q 469 205 494 158 Q 497 154 502 147 Q 508 135 516 141 Q 537 157 542 223 Q 546 317 548 338 C 550 363 550 363 531 370 Z" class="stroke12"/>
    <path d="M 676 367 Q 712 376 749 380 Q 776 383 778 365 Q 787 242 770 224 Q 763 221 715 229 Q 700 233 697 229 Q 693 225 704 214 Q 750 175 778 146 Q 793 133 806 146 Q 836 182 834 229 Q 831 340 838 372 Q 841 391 831 400 Q 806 422 787 432 Q 774 438 766 429 Q 762 422 678 399 Q 677 399 677 398 L 625 387 Q 588 381 531 370 C 502 364 518 333 548 338 Q 555 339 565 341 Q 593 350 625 356 L 676 367 Z" class="stroke13"/>
    <path d="M 628 -42 Q 632 -64 639 -73 Q 643 -80 651 -78 Q 663 -69 670 -16 Q 670 -13 676 367 L 677 398 Q 677 410 686 455 Q 689 471 676 480 Q 660 490 649 496 C 623 511 587 511 602 485 Q 603 484 605 481 Q 624 448 625 387 L 625 356 Q 626 254 624 113 Q 623 -2 628 -42 Z" class="stroke14"/>
    <text x="127" y="628" style="transform-origin:127px 628px; transform:scale(1,-1);">1</text>
    <text x="220" y="603" style="transform-origin:220px 603px; transform:scale(1,-1);">2</text>
    <text x="148" y="402" style="transform-origin:148px 402px; transform:scale(1,-1);">3</text>
    <text x="204" y="376" style="transform-origin:204px 376px; transform:scale(1,-1);">4</text>
    <text x="220" y="223" style="transform-origin:220px 223px; transform:scale(1,-1);">5</text>
    <text x="581" y="845" style="transform-origin:581px 845px; transform:scale(1,-1);">6</text>
    <text x="509" y="677" style="transform-origin:509px 677px; transform:scale(1,-1);">7</text>
    <text x="536" y="611" style="transform-origin:536px 611px; transform:scale(1,-1);">8</text>
    <text x="721" y="677" style="transform-origin:721px 677px; transform:scale(1,-1);">9</text>
    <text x="445" y="513" style="transform-origin:445px 513px; transform:scale(1,-1);">10</text>
    <text x="486" y="483" style="transform-origin:486px 483px; transform:scale(1,-1);">11</text>
    <text x="496" y="370" style="transform-origin:496px 370px; transform:scale(1,-1);">12</text>
    <text x="541" y="368" style="transform-origin:541px 368px; transform:scale(1,-1);">13</text>
    <text x="608" y="486" style="transform-origin:608px 486px; transform:scale(1,-1);">14</text></g>
</svg>