<svg version="1.1" viewBox="0 0 1024 1024" xmlns="http://www.w3.org/2000/svg">
  <g stroke="lightgray" stroke-dasharray="1,1" stroke-width="1" transform="scale(4, 4)">
    <line x1="0" y1="0" x2="256" y2="256"/>
    <line x1="256" y1="0" x2="0" y2="256"/>
    <line x1="128" y1="0" x2="128" y2="256"/>
    <line x1="0" y1="128" x2="256" y2="128"/>
  </g>
  <g transform="scale(1, -1) translate(0, -900)">
    <style type="text/css">
        .stroke1 {fill: #BF0909;}
        .stroke2 {fill: #BFBF09;}
        .stroke3 {fill: #09BF09;}
        .stroke4 {fill: #09BFBF;}
        .stroke5 {fill: #0909BF;}
        .stroke6 {fill: #BF09BF;}
        .stroke7 {fill: #42005e;}
        .stroke8 {fill: #ff3333;}
        .stroke9 {fill: #BFBFBF;}
        .stroke10 {fill: #00a53f;}
        .stroke11 {fill: #fff000;}
        .stroke12 {fill: #6600a5;}
        .stroke13 {fill: #0053a5;}
        .stroke14 {fill: #62c22b;}
        .stroke15 {fill: #BF09BF;}
        .stroke16 {fill: #BF0909;}
        .stroke17 {fill: #BFBF09;}
        .stroke18 {fill: #09BF09;}
        .stroke19 {fill: #09BFBF;}
        .stroke20 {fill: #0909BF;}
        text {
            font-family: Helvetica;
            font-size: 50px;
            fill: #FFFFFF;
            paint-order: stroke;
            stroke: #000000;
            stroke-width: 4px;
            stroke-linecap: butt;
            stroke-linejoin: miter;
            font-weight: 800;
        }
    </style>

    <path d="M 263 606 Q 377 642 381 645 Q 388 652 384 661 Q 377 671 347 676 Q 319 680 290 666 Q 254 651 216 638 Q 173 625 122 617 Q 88 608 114 594 Q 159 576 211 592 Q 214 593 220 594 L 263 606 Z" class="stroke1"/>
    <path d="M 230 411 Q 255 463 290 541 Q 303 577 304 578 Q 298 599 263 606 C 234 614 213 620 220 594 Q 226 578 226 552 Q 214 489 183 417 L 162 375 Q 101 279 35 199 Q 28 193 39 192 Q 100 217 177 323 L 230 411 Z" class="stroke2"/>
    <path d="M 183 417 Q 176 420 166 421 Q 154 424 151 419 Q 144 413 152 398 Q 156 388 162 375 L 177 323 Q 187 286 194 240 Q 197 212 213 191 Q 229 170 235 185 Q 241 201 238 230 L 233 264 Q 220 351 217 380 L 183 417 Z" class="stroke3"/>
    <path d="M 354 286 Q 370 367 393 392 Q 412 416 391 428 Q 375 437 350 451 Q 331 461 295 436 Q 241 415 230 411 C 188 395 188 373 217 380 Q 223 381 231 384 Q 268 396 299 404 Q 320 410 326 402 Q 332 396 309 288 C 303 259 348 257 354 286 Z" class="stroke4"/>
    <path d="M 238 230 Q 244 230 252 232 Q 289 242 370 253 Q 380 254 381 264 Q 381 271 354 286 L 309 288 Q 305 288 302 286 Q 265 273 233 264 C 204 256 208 228 238 230 Z" class="stroke5"/>
    <path d="M 545 638 Q 557 644 607 655 Q 616 655 621 667 Q 620 676 601 682 Q 570 689 552 683 Q 549 682 549 681 C 524 669 524 669 513 666 Q 509 666 506 664 Q 461 648 416 636 Q 394 629 413 618 Q 437 606 472 614 Q 479 617 491 620 L 545 638 Z" class="stroke6"/>
    <path d="M 543 591 Q 542 616 545 638 L 549 681 Q 552 745 571 780 Q 575 787 567 799 Q 548 814 525 824 Q 510 831 499 826 Q 487 822 493 810 Q 511 780 513 666 L 511 583 Q 507 520 502 493 Q 501 480 506 467 Q 510 460 515 449 Q 522 436 535 443 Q 542 449 543 572 L 543 591 Z" class="stroke7"/>
    <path d="M 491 620 Q 466 557 388 452 Q 384 445 392 445 Q 396 444 403 450 Q 472 507 511 583 C 540 638 503 649 491 620 Z" class="stroke8"/>
    <path d="M 543 572 Q 567 548 602 540 Q 609 540 613 548 Q 614 555 612 564 Q 605 579 549 591 Q 545 592 543 591 C 526 588 526 588 543 572 Z" class="stroke9"/>
    <path d="M 763 673 Q 862 700 864 700 Q 871 707 867 714 Q 860 724 835 729 Q 799 735 767 716 L 728 705 Q 694 699 654 692 Q 623 686 646 672 Q 673 657 722 663 L 763 673 Z" class="stroke10"/>
    <path d="M 760 623 Q 760 648 763 673 L 767 716 Q 770 776 792 812 Q 798 821 788 833 Q 769 849 744 859 Q 729 866 717 863 Q 705 859 710 846 Q 734 806 728 705 L 723 592 Q 720 546 714 523 Q 713 511 726 478 Q 735 465 748 471 Q 758 480 759 564 Q 759 580 759 598 L 760 623 Z" class="stroke11"/>
    <path d="M 722 663 Q 695 603 616 510 Q 612 503 620 501 Q 624 500 633 506 Q 684 542 723 592 C 786 671 735 690 722 663 Z" class="stroke12"/>
    <path d="M 759 598 Q 780 592 874 538 Q 884 531 894 534 Q 900 535 902 544 Q 903 554 894 571 Q 884 596 843 609 Q 803 619 760 623 C 730 626 731 608 759 598 Z" class="stroke13"/>
    <path d="M 644 405 Q 753 432 780 428 Q 790 424 788 418 Q 766 373 742 325 L 743 324 Q 750 320 767 331 Q 822 367 869 378 Q 906 387 905 398 Q 904 407 839 454 Q 817 475 743 455 Q 733 455 527 409 Q 488 400 450 393 Q 422 392 440 376 Q 468 355 496 364 Q 568 391 606 397 L 644 405 Z" class="stroke14"/>
    <path d="M 661 152 Q 664 207 668 253 L 669 282 Q 670 310 673 334 Q 677 379 663 390 Q 653 399 644 405 C 620 422 595 425 606 397 Q 615 382 619 304 Q 619 261 619 177 C 619 147 659 122 661 152 Z" class="stroke15"/>
    <path d="M 668 253 Q 702 247 798 260 Q 807 263 819 266 Q 826 273 823 281 Q 816 291 790 299 Q 766 302 703 286 Q 685 286 669 282 C 640 275 638 257 668 253 Z" class="stroke16"/>
    <path d="M 525 242 Q 537 260 549 274 Q 559 286 546 301 Q 507 337 480 334 Q 468 333 470 317 Q 479 221 363 99 Q 345 92 314 52 Q 305 37 320 41 Q 339 42 365 62 Q 446 119 492 193 Q 498 203 505 213 L 525 242 Z" class="stroke17"/>
    <path d="M 505 213 Q 629 99 795 16 Q 840 3 968 49 Q 980 56 985 62 Q 989 75 969 75 Q 905 82 865 84 Q 810 87 778 99 Q 718 118 670 148 Q 666 149 661 152 L 619 177 Q 573 207 525 242 C 501 260 483 233 505 213 Z" class="stroke18"/>
    <text x="115" y="606" style="transform-origin:115px 606px; transform:scale(1,-1);">1</text>
    <text x="229" y="590" style="transform-origin:229px 590px; transform:scale(1,-1);">2</text>
    <text x="160" y="411" style="transform-origin:160px 411px; transform:scale(1,-1);">3</text>
    <text x="222" y="388" style="transform-origin:222px 388px; transform:scale(1,-1);">4</text>
    <text x="244" y="237" style="transform-origin:244px 237px; transform:scale(1,-1);">5</text>
    <text x="413" y="627" style="transform-origin:413px 627px; transform:scale(1,-1);">6</text>
    <text x="501" y="816" style="transform-origin:501px 816px; transform:scale(1,-1);">7</text>
    <text x="509" y="620" style="transform-origin:509px 620px; transform:scale(1,-1);">8</text>
    <text x="546" y="586" style="transform-origin:546px 586px; transform:scale(1,-1);">9</text>
    <text x="648" y="683" style="transform-origin:648px 683px; transform:scale(1,-1);">10</text>
    <text x="719" y="852" style="transform-origin:719px 852px; transform:scale(1,-1);">11</text>
    <text x="726" y="657" style="transform-origin:726px 657px; transform:scale(1,-1);">12</text>
    <text x="767" y="616" style="transform-origin:767px 616px; transform:scale(1,-1);">13</text>
    <text x="443" y="386" style="transform-origin:443px 386px; transform:scale(1,-1);">14</text>
    <text x="613" y="396" style="transform-origin:613px 396px; transform:scale(1,-1);">15</text>
    <text x="673" y="260" style="transform-origin:673px 260px; transform:scale(1,-1);">16</text>
    <text x="481" y="322" style="transform-origin:481px 322px; transform:scale(1,-1);">17</text>
    <text x="528" y="233" style="transform-origin:528px 233px; transform:scale(1,-1);">18</text></g>
</svg>