<svg version="1.1" viewBox="0 0 1024 1024" xmlns="http://www.w3.org/2000/svg">
  <g stroke="lightgray" stroke-dasharray="1,1" stroke-width="1" transform="scale(4, 4)">
    <line x1="0" y1="0" x2="256" y2="256"/>
    <line x1="256" y1="0" x2="0" y2="256"/>
    <line x1="128" y1="0" x2="128" y2="256"/>
    <line x1="0" y1="128" x2="256" y2="128"/>
  </g>
  <g transform="scale(1, -1) translate(0, -900)">
    <style type="text/css">
        .stroke1 {fill: #BF0909;}
        .stroke2 {fill: #BFBF09;}
        .stroke3 {fill: #09BF09;}
        .stroke4 {fill: #09BFBF;}
        .stroke5 {fill: #0909BF;}
        .stroke6 {fill: #BF09BF;}
        .stroke7 {fill: #42005e;}
        .stroke8 {fill: #ff3333;}
        .stroke9 {fill: #BFBFBF;}
        .stroke10 {fill: #00a53f;}
        .stroke11 {fill: #fff000;}
        .stroke12 {fill: #6600a5;}
        .stroke13 {fill: #0053a5;}
        .stroke14 {fill: #62c22b;}
        .stroke15 {fill: #BF09BF;}
        .stroke16 {fill: #BF0909;}
        .stroke17 {fill: #BFBF09;}
        .stroke18 {fill: #09BF09;}
        .stroke19 {fill: #09BFBF;}
        .stroke20 {fill: #0909BF;}
        text {
            font-family: Helvetica;
            font-size: 50px;
            fill: #FFFFFF;
            paint-order: stroke;
            stroke: #000000;
            stroke-width: 4px;
            stroke-linecap: butt;
            stroke-linejoin: miter;
            font-weight: 800;
        }
    </style>

    <path d="M 281 773 Q 308 751 337 724 Q 353 711 371 712 Q 384 713 388 728 Q 392 746 381 779 Q 374 798 341 812 Q 310 821 273 828 Q 255 831 248 827 Q 242 823 245 808 Q 249 795 281 773 Z" class="stroke1"/>
    <path d="M 251 387 Q 276 427 304 473 Q 335 530 381 567 Q 396 579 383 594 Q 364 609 334 618 Q 312 625 294 614 Q 207 553 70 546 Q 57 547 55 540 Q 51 530 67 519 Q 107 492 142 501 Q 269 559 278 547 Q 284 538 272 515 Q 206 367 43 196 Q 30 184 32 180 Q 35 179 47 184 Q 137 233 226 352 L 251 387 Z" class="stroke2"/>
    <path d="M 226 352 Q 254 283 221 117 Q 200 89 235 25 Q 238 21 242 15 Q 258 0 270 25 Q 283 64 283 107 Q 284 273 291 311 Q 298 336 289 346 Q 273 365 251 387 C 230 408 216 380 226 352 Z" class="stroke3"/>
    <path d="M 327 402 Q 376 336 397 334 Q 410 333 417 350 Q 418 362 411 382 Q 402 398 381 407 Q 347 423 332 427 Q 323 428 322 418 Q 321 411 327 402 Z" class="stroke4"/>
    <path d="M 633 669 Q 735 726 774 736 Q 792 739 794 747 Q 797 759 784 769 Q 718 806 684 799 Q 677 795 677 783 Q 678 743 495 632 C 469 616 482 604 510 615 Q 537 625 577 644 Q 584 647 593 650 L 633 669 Z" class="stroke5"/>
    <path d="M 495 632 Q 479 642 442 650 Q 424 653 418 647 Q 411 640 424 621 Q 457 579 464 442 Q 464 235 422 164 Q 415 157 409 146 Q 397 133 407 111 Q 419 81 435 69 Q 448 60 462 77 Q 496 135 605 259 Q 620 272 621 282 Q 622 289 615 287 Q 608 286 520 219 Q 513 215 510 216 Q 503 220 504 239 Q 505 564 510 600 Q 511 609 510 615 C 510 625 510 625 495 632 Z" class="stroke6"/>
    <path d="M 687 455 Q 840 512 842 514 Q 849 523 844 530 Q 837 540 809 543 Q 781 544 755 531 Q 716 512 677 495 L 635 480 Q 592 467 544 455 Q 511 445 537 433 Q 571 421 645 441 L 687 455 Z" class="stroke7"/>
    <path d="M 645 441 Q 705 240 830 118 Q 843 106 861 93 Q 919 53 955 46 Q 983 47 979 83 Q 969 116 968 266 Q 968 279 962 281 Q 956 281 952 268 Q 940 234 930 202 Q 915 159 900 159 Q 879 160 840 199 Q 798 236 762 296 Q 711 374 687 455 L 677 495 Q 667 567 681 615 Q 688 636 648 660 Q 641 666 633 669 C 607 685 579 677 593 650 Q 611 623 617 580 Q 624 528 635 480 L 645 441 Z" class="stroke8"/>
    <text x="255" y="819" style="transform-origin:255px 819px; transform:scale(1,-1);">1</text>
    <text x="64" y="536" style="transform-origin:64px 536px; transform:scale(1,-1);">2</text>
    <text x="252" y="377" style="transform-origin:252px 377px; transform:scale(1,-1);">3</text>
    <text x="333" y="416" style="transform-origin:333px 416px; transform:scale(1,-1);">4</text>
    <text x="782" y="752" style="transform-origin:782px 752px; transform:scale(1,-1);">5</text>
    <text x="426" y="640" style="transform-origin:426px 640px; transform:scale(1,-1);">6</text>
    <text x="538" y="445" style="transform-origin:538px 445px; transform:scale(1,-1);">7</text>
    <text x="602" y="648" style="transform-origin:602px 648px; transform:scale(1,-1);">8</text></g>
</svg>