<svg version="1.1" viewBox="0 0 1024 1024" xmlns="http://www.w3.org/2000/svg">
  <g stroke="lightgray" stroke-dasharray="1,1" stroke-width="1" transform="scale(4, 4)">
    <line x1="0" y1="0" x2="256" y2="256"/>
    <line x1="256" y1="0" x2="0" y2="256"/>
    <line x1="128" y1="0" x2="128" y2="256"/>
    <line x1="0" y1="128" x2="256" y2="128"/>
  </g>
  <g transform="scale(1, -1) translate(0, -900)">
    <style type="text/css">
        .stroke1 {fill: #BF0909;}
        .stroke2 {fill: #BFBF09;}
        .stroke3 {fill: #09BF09;}
        .stroke4 {fill: #09BFBF;}
        .stroke5 {fill: #0909BF;}
        .stroke6 {fill: #BF09BF;}
        .stroke7 {fill: #42005e;}
        .stroke8 {fill: #ff3333;}
        .stroke9 {fill: #BFBFBF;}
        .stroke10 {fill: #00a53f;}
        .stroke11 {fill: #fff000;}
        .stroke12 {fill: #6600a5;}
        .stroke13 {fill: #0053a5;}
        .stroke14 {fill: #62c22b;}
        .stroke15 {fill: #BF09BF;}
        .stroke16 {fill: #BF0909;}
        .stroke17 {fill: #BFBF09;}
        .stroke18 {fill: #09BF09;}
        .stroke19 {fill: #09BFBF;}
        .stroke20 {fill: #0909BF;}
        text {
            font-family: Helvetica;
            font-size: 50px;
            fill: #FFFFFF;
            paint-order: stroke;
            stroke: #000000;
            stroke-width: 4px;
            stroke-linecap: butt;
            stroke-linejoin: miter;
            font-weight: 800;
        }
    </style>

    <path d="M 342 690 Q 358 718 375 739 Q 385 752 371 766 Q 326 800 303 795 Q 293 794 294 778 Q 306 696 220 589 Q 198 567 173 536 Q 166 521 180 526 Q 196 527 219 545 Q 289 599 328 666 Q 328 667 329 669 L 342 690 Z" class="stroke1"/>
    <path d="M 329 669 L 330 669 Q 364 653 434 665 Q 461 671 492 676 Q 508 680 512 682 Q 519 689 515 697 Q 508 707 481 714 Q 466 717 391 698 Q 367 694 342 690 C 312 685 301 679 329 669 Z" class="stroke2"/>
    <path d="M 354 568 Q 370 552 386 533 Q 398 521 411 521 Q 421 521 425 533 Q 429 546 423 571 Q 419 584 397 596 Q 343 614 332 611 Q 328 607 328 596 Q 331 586 354 568 Z" class="stroke3"/>
    <path d="M 640 713 Q 659 752 677 783 Q 687 798 670 811 Q 619 844 595 835 Q 583 831 587 816 Q 608 740 538 629 Q 523 614 508 585 Q 501 569 516 575 Q 561 584 624 684 L 640 713 Z" class="stroke4"/>
    <path d="M 624 684 Q 664 668 711 677 Q 843 699 850 703 Q 860 710 855 720 Q 848 732 818 740 Q 797 744 709 724 Q 708 724 640 713 C 610 708 596 694 624 684 Z" class="stroke5"/>
    <path d="M 646 575 Q 673 557 702 534 Q 717 524 731 525 Q 741 526 745 540 Q 748 555 736 582 Q 729 600 699 610 Q 629 628 616 619 Q 612 615 614 603 Q 618 593 646 575 Z" class="stroke6"/>
    <path d="M 364 385 Q 377 406 391 423 Q 401 436 387 450 Q 344 483 319 480 Q 309 477 310 463 Q 325 370 222 265 Q 206 249 197 236 Q 190 221 204 225 Q 252 234 323 322 Q 341 349 349 362 L 364 385 Z" class="stroke7"/>
    <path d="M 554 368 Q 609 380 667 389 Q 719 401 726 407 Q 736 414 731 424 Q 724 436 694 444 Q 663 451 633 440 Q 596 428 557 417 L 495 403 Q 432 393 364 385 C 334 381 322 376 349 362 Q 383 340 463 352 Q 478 355 496 358 L 554 368 Z" class="stroke8"/>
    <path d="M 548 211 Q 683 239 686 241 Q 695 248 691 256 Q 684 268 656 276 Q 629 282 550 258 L 497 245 Q 440 235 374 231 Q 338 227 363 210 Q 399 186 470 199 Q 482 202 497 202 L 548 211 Z" class="stroke9"/>
    <path d="M 544 89 Q 545 153 548 211 L 550 258 Q 551 295 553 330 Q 553 351 554 368 L 557 417 Q 558 462 567 486 Q 577 505 564 519 Q 530 546 501 553 Q 488 557 473 545 Q 469 538 474 527 Q 493 496 495 413 Q 495 409 495 403 L 496 358 Q 496 303 497 245 L 497 202 Q 497 147 499 85 C 500 55 543 59 544 89 Z" class="stroke10"/>
    <path d="M 499 85 Q 352 72 183 57 Q 159 56 176 35 Q 210 1 255 9 Q 498 67 877 45 Q 899 45 906 54 Q 913 67 894 84 Q 836 132 793 123 Q 699 107 544 89 L 499 85 Z" class="stroke11"/>
    <text x="306" y="783" style="transform-origin:306px 783px; transform:scale(1,-1);">1</text>
    <text x="337" y="672" style="transform-origin:337px 672px; transform:scale(1,-1);">2</text>
    <text x="336" y="602" style="transform-origin:336px 602px; transform:scale(1,-1);">3</text>
    <text x="599" y="822" style="transform-origin:599px 822px; transform:scale(1,-1);">4</text>
    <text x="632" y="686" style="transform-origin:632px 686px; transform:scale(1,-1);">5</text>
    <text x="622" y="613" style="transform-origin:622px 613px; transform:scale(1,-1);">6</text>
    <text x="324" y="467" style="transform-origin:324px 467px; transform:scale(1,-1);">7</text>
    <text x="357" y="365" style="transform-origin:357px 365px; transform:scale(1,-1);">8</text>
    <text x="365" y="222" style="transform-origin:365px 222px; transform:scale(1,-1);">9</text>
    <text x="486" y="538" style="transform-origin:486px 538px; transform:scale(1,-1);">10</text>
    <text x="180" y="46" style="transform-origin:180px 46px; transform:scale(1,-1);">11</text></g>
</svg>