<svg version="1.1" viewBox="0 0 1024 1024" xmlns="http://www.w3.org/2000/svg">
  <g stroke="lightgray" stroke-dasharray="1,1" stroke-width="1" transform="scale(4, 4)">
    <line x1="0" y1="0" x2="256" y2="256"/>
    <line x1="256" y1="0" x2="0" y2="256"/>
    <line x1="128" y1="0" x2="128" y2="256"/>
    <line x1="0" y1="128" x2="256" y2="128"/>
  </g>
  <g transform="scale(1, -1) translate(0, -900)">
    <style type="text/css">
        .stroke1 {fill: #BF0909;}
        .stroke2 {fill: #BFBF09;}
        .stroke3 {fill: #09BF09;}
        .stroke4 {fill: #09BFBF;}
        .stroke5 {fill: #0909BF;}
        .stroke6 {fill: #BF09BF;}
        .stroke7 {fill: #42005e;}
        .stroke8 {fill: #ff3333;}
        .stroke9 {fill: #BFBFBF;}
        .stroke10 {fill: #00a53f;}
        .stroke11 {fill: #fff000;}
        .stroke12 {fill: #6600a5;}
        .stroke13 {fill: #0053a5;}
        .stroke14 {fill: #62c22b;}
        .stroke15 {fill: #BF09BF;}
        .stroke16 {fill: #BF0909;}
        .stroke17 {fill: #BFBF09;}
        .stroke18 {fill: #09BF09;}
        .stroke19 {fill: #09BFBF;}
        .stroke20 {fill: #0909BF;}
        text {
            font-family: Helvetica;
            font-size: 50px;
            fill: #FFFFFF;
            paint-order: stroke;
            stroke: #000000;
            stroke-width: 4px;
            stroke-linecap: butt;
            stroke-linejoin: miter;
            font-weight: 800;
        }
    </style>

    <path d="M 358 754 Q 364 764 371 773 Q 380 783 368 796 Q 332 824 310 822 Q 300 821 302 807 Q 312 732 234 647 Q 215 626 205 614 Q 198 601 211 605 Q 256 611 323 701 Q 336 725 343 732 L 358 754 Z" class="stroke1"/>
    <path d="M 343 732 Q 382 717 417 727 Q 498 742 507 745 Q 514 752 510 759 Q 504 768 481 774 Q 469 777 394 759 Q 376 756 358 754 C 328 751 315 742 343 732 Z" class="stroke2"/>
    <path d="M 364 670 Q 391 625 409 623 Q 419 622 425 635 Q 428 645 422 661 Q 410 683 370 690 Q 363 691 361 683 Q 360 677 364 670 Z" class="stroke3"/>
    <path d="M 633 788 Q 642 801 652 813 Q 661 823 648 836 Q 614 863 590 861 Q 580 860 582 846 Q 592 780 534 714 Q 521 698 513 686 Q 506 673 519 677 Q 529 678 545 689 Q 591 723 619 766 Q 619 767 621 769 L 633 788 Z" class="stroke4"/>
    <path d="M 621 769 Q 658 751 719 762 Q 833 786 835 788 Q 842 795 839 802 Q 832 812 807 818 Q 782 822 756 813 Q 729 804 700 798 Q 669 791 633 788 C 603 785 594 781 621 769 Z" class="stroke5"/>
    <path d="M 647 690 Q 672 674 697 655 Q 707 648 719 649 Q 726 650 730 660 Q 731 672 722 692 Q 716 707 691 715 Q 633 728 623 722 Q 620 719 623 710 Q 626 703 647 690 Z" class="stroke6"/>
    <path d="M 348 593 Q 338 597 314 599 Q 304 600 300 596 Q 296 590 304 576 Q 326 542 344 482 Q 348 464 361 453 Q 377 435 382 449 Q 383 455 383 463 L 380 492 Q 368 547 366 566 C 363 588 363 588 348 593 Z" class="stroke7"/>
    <path d="M 659 532 Q 678 571 703 581 Q 718 596 707 612 Q 694 624 651 648 Q 636 655 618 649 Q 575 633 536 623 L 476 610 Q 415 600 348 593 C 318 590 336 562 366 566 Q 376 567 390 570 Q 433 579 478 585 L 530 595 Q 611 616 626 602 Q 632 596 629 585 Q 622 555 612 531 C 601 503 645 506 659 532 Z" class="stroke8"/>
    <path d="M 521 483 Q 587 492 677 498 Q 686 499 687 506 Q 688 513 662 531 Q 661 532 659 532 L 612 531 Q 564 522 523 513 L 483 506 Q 428 499 380 492 C 350 488 353 461 383 463 Q 389 463 397 464 Q 431 471 484 478 L 521 483 Z" class="stroke9"/>
    <path d="M 517 435 Q 518 460 521 483 L 523 513 Q 524 544 527 575 Q 528 587 530 595 C 536 624 536 620 536 623 Q 536 624 537 624 Q 540 631 524 643 Q 499 656 480 659 Q 468 662 462 655 Q 456 649 463 638 Q 475 623 476 610 L 478 585 Q 481 548 483 506 L 484 478 Q 484 456 484 432 C 484 402 516 405 517 435 Z" class="stroke10"/>
    <path d="M 484 432 Q 316 414 121 394 Q 100 393 115 375 Q 128 360 147 355 Q 168 349 184 353 Q 427 416 848 417 Q 873 417 897 416 Q 918 416 922 424 Q 928 436 912 450 Q 857 495 790 476 Q 682 458 517 435 L 484 432 Z" class="stroke11"/>
    <path d="M 378 334 Q 363 344 347 348 Q 338 349 333 342 Q 330 338 337 328 Q 364 246 341 160 Q 334 138 339 120 Q 348 90 358 79 Q 368 67 377 80 Q 392 101 399 217 Q 400 284 403 302 Q 403 305 403 307 C 404 318 404 318 378 334 Z" class="stroke12"/>
    <path d="M 604 145 Q 597 124 609 104 Q 622 77 630 78 Q 643 79 658 109 Q 671 131 671 151 Q 656 277 681 314 Q 694 335 652 360 Q 636 370 616 379 Q 601 383 580 377 Q 490 338 378 334 C 348 333 374 301 403 307 Q 404 308 408 308 Q 459 318 498 325 Q 579 344 597 332 Q 604 319 607 280 Q 610 168 604 145 Z" class="stroke13"/>
    <path d="M 475 216 Q 481 93 444 46 Q 413 1 290 -43 Q 278 -44 275 -47 Q 269 -51 283 -56 Q 323 -65 415 -33 Q 481 -9 504 61 Q 516 104 528 197 Q 529 218 539 242 Q 543 252 536 259 Q 520 275 488 288 Q 469 297 454 291 Q 436 285 451 269 Q 475 244 475 216 Z" class="stroke14"/>
    <path d="M 563 40 Q 617 1 682 -56 Q 700 -72 714 -75 Q 723 -76 729 -65 Q 739 -52 722 -12 Q 707 36 561 70 Q 552 74 551 62 Q 552 49 563 40 Z" class="stroke15"/>
    <text x="312" y="812" style="transform-origin:312px 812px; transform:scale(1,-1);">1</text>
    <text x="352" y="734" style="transform-origin:352px 734px; transform:scale(1,-1);">2</text>
    <text x="372" y="679" style="transform-origin:372px 679px; transform:scale(1,-1);">3</text>
    <text x="592" y="851" style="transform-origin:592px 851px; transform:scale(1,-1);">4</text>
    <text x="628" y="771" style="transform-origin:628px 771px; transform:scale(1,-1);">5</text>
    <text x="628" y="716" style="transform-origin:628px 716px; transform:scale(1,-1);">6</text>
    <text x="308" y="591" style="transform-origin:308px 591px; transform:scale(1,-1);">7</text>
    <text x="356" y="592" style="transform-origin:356px 592px; transform:scale(1,-1);">8</text>
    <text x="388" y="486" style="transform-origin:388px 486px; transform:scale(1,-1);">9</text>
    <text x="472" y="647" style="transform-origin:472px 647px; transform:scale(1,-1);">10</text>
    <text x="118" y="384" style="transform-origin:118px 384px; transform:scale(1,-1);">11</text>
    <text x="343" y="337" style="transform-origin:343px 337px; transform:scale(1,-1);">12</text>
    <text x="387" y="334" style="transform-origin:387px 334px; transform:scale(1,-1);">13</text>
    <text x="455" y="280" style="transform-origin:455px 280px; transform:scale(1,-1);">14</text>
    <text x="562" y="59" style="transform-origin:562px 59px; transform:scale(1,-1);">15</text></g>
</svg>