<svg version="1.1" viewBox="0 0 1024 1024" xmlns="http://www.w3.org/2000/svg">
  <g stroke="lightgray" stroke-dasharray="1,1" stroke-width="1" transform="scale(4, 4)">
    <line x1="0" y1="0" x2="256" y2="256"/>
    <line x1="256" y1="0" x2="0" y2="256"/>
    <line x1="128" y1="0" x2="128" y2="256"/>
    <line x1="0" y1="128" x2="256" y2="128"/>
  </g>
  <g transform="scale(1, -1) translate(0, -900)">
    <style type="text/css">
        .stroke1 {fill: #BF0909;}
        .stroke2 {fill: #BFBF09;}
        .stroke3 {fill: #09BF09;}
        .stroke4 {fill: #09BFBF;}
        .stroke5 {fill: #0909BF;}
        .stroke6 {fill: #BF09BF;}
        .stroke7 {fill: #42005e;}
        .stroke8 {fill: #ff3333;}
        .stroke9 {fill: #BFBFBF;}
        .stroke10 {fill: #00a53f;}
        .stroke11 {fill: #fff000;}
        .stroke12 {fill: #6600a5;}
        .stroke13 {fill: #0053a5;}
        .stroke14 {fill: #62c22b;}
        .stroke15 {fill: #BF09BF;}
        .stroke16 {fill: #BF0909;}
        .stroke17 {fill: #BFBF09;}
        .stroke18 {fill: #09BF09;}
        .stroke19 {fill: #09BFBF;}
        .stroke20 {fill: #0909BF;}
        text {
            font-family: Helvetica;
            font-size: 50px;
            fill: #FFFFFF;
            paint-order: stroke;
            stroke: #000000;
            stroke-width: 4px;
            stroke-linecap: butt;
            stroke-linejoin: miter;
            font-weight: 800;
        }
    </style>

    <path d="M 341 733 Q 354 755 369 773 Q 379 785 365 799 Q 328 829 303 827 Q 293 826 294 812 Q 301 728 212 625 Q 202 621 173 583 Q 166 570 179 573 Q 233 582 306 679 Q 318 703 324 708 L 341 733 Z" class="stroke1"/>
    <path d="M 324 708 Q 366 690 404 700 Q 503 715 510 718 Q 519 725 514 733 Q 508 743 482 752 Q 464 755 384 739 Q 363 738 341 733 C 312 727 296 719 324 708 Z" class="stroke2"/>
    <path d="M 351 628 Q 405 579 413 578 Q 420 579 425 589 Q 429 599 423 623 Q 417 645 349 665 Q 337 668 332 666 Q 328 663 329 654 Q 330 645 351 628 Z" class="stroke3"/>
    <path d="M 654 754 Q 673 782 694 806 Q 704 816 692 830 Q 655 863 633 861 Q 623 860 624 846 Q 633 771 518 656 Q 511 650 506 643 Q 497 630 511 633 Q 562 639 637 730 L 654 754 Z" class="stroke4"/>
    <path d="M 637 730 Q 676 714 720 724 Q 765 733 811 742 Q 832 746 835 750 Q 842 757 839 765 Q 832 775 806 782 Q 778 788 751 776 Q 715 766 654 754 C 625 748 609 741 637 730 Z" class="stroke5"/>
    <path d="M 664 651 Q 724 608 734 608 Q 743 609 745 620 Q 748 632 739 654 Q 727 679 656 687 Q 644 688 640 687 Q 636 683 638 673 Q 642 666 664 651 Z" class="stroke6"/>
    <path d="M 458 464 Q 473 486 487 504 Q 494 514 483 525 Q 447 550 429 548 Q 420 545 422 534 Q 432 480 383 418 Q 370 403 365 394 Q 358 381 370 385 Q 403 389 449 450 L 458 464 Z" class="stroke7"/>
    <path d="M 605 449 Q 734 482 735 482 Q 742 489 739 497 Q 732 507 706 514 Q 682 520 609 493 L 561 481 Q 515 472 464 466 Q 458 466 458 464 C 439 459 439 459 449 450 Q 483 416 560 440 Q 561 440 563 440 L 605 449 Z" class="stroke8"/>
    <path d="M 599 379 Q 602 416 605 449 L 609 493 Q 609 502 623 568 Q 626 577 610 589 Q 582 604 562 608 Q 549 611 542 603 Q 536 597 542 585 Q 557 566 561 481 L 563 440 Q 563 409 563 373 C 563 343 597 349 599 379 Z" class="stroke9"/>
    <path d="M 563 373 Q 457 357 334 336 Q 316 335 330 319 Q 343 307 359 303 Q 378 299 393 303 Q 585 360 836 360 L 838 360 Q 856 361 860 369 Q 864 379 849 391 Q 797 427 731 407 Q 676 395 599 379 L 563 373 Z" class="stroke10"/>
    <path d="M 473 267 Q 463 271 439 276 Q 427 280 424 275 Q 420 269 426 255 Q 447 213 459 145 Q 462 124 474 111 Q 489 90 494 105 Q 497 112 498 122 L 496 154 Q 487 217 487 239 C 486 262 486 262 473 267 Z" class="stroke11"/>
    <path d="M 690 174 Q 708 228 733 242 Q 748 258 735 275 Q 669 323 615 300 Q 549 282 473 267 C 444 261 458 232 487 239 Q 511 245 625 265 Q 641 268 647 261 Q 654 257 653 243 Q 649 209 642 179 C 635 150 680 146 690 174 Z" class="stroke12"/>
    <path d="M 498 122 Q 507 121 519 122 Q 577 132 703 138 Q 713 139 715 148 Q 715 155 690 174 C 678 183 672 182 642 179 Q 641 180 639 179 Q 560 163 496 154 C 466 150 468 124 498 122 Z" class="stroke13"/>
    <path d="M 228 499 Q 241 486 254 469 Q 266 456 281 456 Q 291 456 297 469 Q 301 482 294 511 Q 290 524 269 534 Q 221 552 204 547 Q 200 543 200 531 Q 203 521 228 499 Z" class="stroke14"/>
    <path d="M 271 138 Q 286 166 282 190 Q 278 203 256 225 Q 234 253 263 307 Q 278 329 291 343 Q 312 362 291 377 Q 269 390 234 403 Q 210 415 176 380 Q 109 338 90 337 Q 83 337 81 332 Q 80 326 89 323 Q 128 311 189 341 Q 198 345 208 335 Q 223 322 211 300 Q 201 285 196 264 Q 193 242 210 221 Q 244 170 238 139 C 236 109 258 111 271 138 Z" class="stroke15"/>
    <path d="M 238 139 Q 207 140 177 134 Q 125 121 88 121 Q 75 122 76 111 Q 79 101 114 77 Q 130 67 158 83 Q 201 116 279 106 Q 396 84 567 6 Q 694 -54 747 -40 Q 754 -37 764 -34 Q 852 -3 914 36 Q 920 39 918 44 Q 917 48 902 48 Q 616 32 386 107 Q 313 137 271 138 L 238 139 Z" class="stroke16"/>
    <text x="305" y="816" style="transform-origin:305px 816px; transform:scale(1,-1);">1</text>
    <text x="333" y="711" style="transform-origin:333px 711px; transform:scale(1,-1);">2</text>
    <text x="336" y="659" style="transform-origin:336px 659px; transform:scale(1,-1);">3</text>
    <text x="635" y="850" style="transform-origin:635px 850px; transform:scale(1,-1);">4</text>
    <text x="645" y="733" style="transform-origin:645px 733px; transform:scale(1,-1);">5</text>
    <text x="644" y="679" style="transform-origin:644px 679px; transform:scale(1,-1);">6</text>
    <text x="433" y="537" style="transform-origin:433px 537px; transform:scale(1,-1);">7</text>
    <text x="457" y="450" style="transform-origin:457px 450px; transform:scale(1,-1);">8</text>
    <text x="553" y="594" style="transform-origin:553px 594px; transform:scale(1,-1);">9</text>
    <text x="332" y="328" style="transform-origin:332px 328px; transform:scale(1,-1);">10</text>
    <text x="432" y="269" style="transform-origin:432px 269px; transform:scale(1,-1);">11</text>
    <text x="482" y="263" style="transform-origin:482px 263px; transform:scale(1,-1);">12</text>
    <text x="503" y="128" style="transform-origin:503px 128px; transform:scale(1,-1);">13</text>
    <text x="209" y="541" style="transform-origin:209px 541px; transform:scale(1,-1);">14</text>
    <text x="88" y="330" style="transform-origin:88px 330px; transform:scale(1,-1);">15</text>
    <text x="85" y="112" style="transform-origin:85px 112px; transform:scale(1,-1);">16</text></g>
</svg>