<svg version="1.1" viewBox="0 0 1024 1024" xmlns="http://www.w3.org/2000/svg">
  <g stroke="lightgray" stroke-dasharray="1,1" stroke-width="1" transform="scale(4, 4)">
    <line x1="0" y1="0" x2="256" y2="256"/>
    <line x1="256" y1="0" x2="0" y2="256"/>
    <line x1="128" y1="0" x2="128" y2="256"/>
    <line x1="0" y1="128" x2="256" y2="128"/>
  </g>
  <g transform="scale(1, -1) translate(0, -900)">
    <style type="text/css">
        .stroke1 {fill: #BF0909;}
        .stroke2 {fill: #BFBF09;}
        .stroke3 {fill: #09BF09;}
        .stroke4 {fill: #09BFBF;}
        .stroke5 {fill: #0909BF;}
        .stroke6 {fill: #BF09BF;}
        .stroke7 {fill: #42005e;}
        .stroke8 {fill: #ff3333;}
        .stroke9 {fill: #BFBFBF;}
        .stroke10 {fill: #00a53f;}
        .stroke11 {fill: #fff000;}
        .stroke12 {fill: #6600a5;}
        .stroke13 {fill: #0053a5;}
        .stroke14 {fill: #62c22b;}
        .stroke15 {fill: #BF09BF;}
        .stroke16 {fill: #BF0909;}
        .stroke17 {fill: #BFBF09;}
        .stroke18 {fill: #09BF09;}
        .stroke19 {fill: #09BFBF;}
        .stroke20 {fill: #0909BF;}
        text {
            font-family: Helvetica;
            font-size: 50px;
            fill: #FFFFFF;
            paint-order: stroke;
            stroke: #000000;
            stroke-width: 4px;
            stroke-linecap: butt;
            stroke-linejoin: miter;
            font-weight: 800;
        }
    </style>

    <path d="M 157 588 Q 173 566 190 540 Q 200 525 216 523 Q 226 522 233 533 Q 240 546 237 576 Q 236 592 212 609 Q 154 642 140 639 Q 136 636 134 624 Q 135 612 157 588 Z" class="stroke1"/>
    <path d="M 406 657 Q 393 626 362 575 Q 358 568 363 563 Q 370 563 376 568 Q 439 626 470 649 Q 483 655 479 664 Q 472 676 454 689 Q 435 702 417 701 Q 404 700 407 683 Q 411 671 406 657 Z" class="stroke2"/>
    <path d="M 324 445 Q 372 457 433 465 Q 449 466 450 474 Q 451 486 434 494 Q 404 506 325 485 L 286 476 Q 139 446 84 441 Q 72 440 69 432 Q 66 422 81 411 Q 115 386 165 401 Q 217 420 261 430 L 324 445 Z" class="stroke3"/>
    <path d="M 322 367 Q 322 404 324 445 L 325 485 Q 331 689 348 745 Q 357 758 354 772 Q 347 781 295 813 Q 273 829 254 815 Q 250 811 255 796 Q 288 748 288 648 Q 288 522 286 476 L 282 362 Q 278 176 253 93 Q 241 54 266 -3 Q 272 -19 279 -23 Q 285 -29 292 -22 Q 299 -18 309 2 Q 319 26 318 55 Q 317 92 321 338 L 322 367 Z" class="stroke4"/>
    <path d="M 261 430 Q 215 306 62 158 Q 52 146 60 145 Q 81 139 146 191 Q 206 236 274 348 Q 278 355 282 362 C 333 452 273 462 261 430 Z" class="stroke5"/>
    <path d="M 321 338 Q 325 334 335 327 Q 363 305 392 278 Q 404 268 417 269 Q 426 270 429 280 Q 433 293 425 317 Q 416 345 330 366 Q 326 367 322 367 C 292 369 299 358 321 338 Z" class="stroke6"/>
    <path d="M 666 515 Q 795 635 827 648 Q 846 655 840 671 Q 836 687 770 723 Q 751 733 728 724 Q 676 705 597 681 Q 576 674 527 675 Q 503 676 511 656 Q 518 643 538 631 Q 569 615 603 634 Q 619 641 702 678 Q 717 682 729 675 Q 742 666 735 652 Q 698 594 653 522 C 637 497 644 495 666 515 Z" class="stroke7"/>
    <path d="M 710 444 Q 695 498 666 515 L 653 522 Q 628 534 616 528 Q 603 522 616 508 Q 649 480 655 435 L 664 396 Q 680 318 677 239 Q 676 143 649 85 Q 634 64 605 74 Q 574 86 544 97 Q 534 101 536 89 Q 540 82 557 66 Q 594 26 604 -2 Q 611 -21 629 -20 Q 642 -20 671 4 Q 699 26 714 65 Q 739 153 734 277 Q 731 350 720 403 L 710 444 Z" class="stroke8"/>
    <path d="M 720 403 Q 790 412 887 412 Q 941 412 948 422 Q 952 432 937 446 Q 885 482 826 468 Q 777 459 710 444 L 655 435 Q 556 419 443 402 Q 424 399 439 383 Q 452 370 470 365 Q 491 361 506 365 Q 576 386 658 396 Q 659 397 664 396 L 720 403 Z" class="stroke9"/>
    <text x="143" y="633" style="transform-origin:143px 633px; transform:scale(1,-1);">1</text>
    <text x="418" y="689" style="transform-origin:418px 689px; transform:scale(1,-1);">2</text>
    <text x="80" y="428" style="transform-origin:80px 428px; transform:scale(1,-1);">3</text>
    <text x="265" y="809" style="transform-origin:265px 809px; transform:scale(1,-1);">4</text>
    <text x="280" y="428" style="transform-origin:280px 428px; transform:scale(1,-1);">5</text>
    <text x="325" y="360" style="transform-origin:325px 360px; transform:scale(1,-1);">6</text>
    <text x="522" y="663" style="transform-origin:522px 663px; transform:scale(1,-1);">7</text>
    <text x="620" y="518" style="transform-origin:620px 518px; transform:scale(1,-1);">8</text>
    <text x="442" y="392" style="transform-origin:442px 392px; transform:scale(1,-1);">9</text></g>
</svg>