<svg version="1.1" viewBox="0 0 1024 1024" xmlns="http://www.w3.org/2000/svg">
  <g stroke="lightgray" stroke-dasharray="1,1" stroke-width="1" transform="scale(4, 4)">
    <line x1="0" y1="0" x2="256" y2="256"/>
    <line x1="256" y1="0" x2="0" y2="256"/>
    <line x1="128" y1="0" x2="128" y2="256"/>
    <line x1="0" y1="128" x2="256" y2="128"/>
  </g>
  <g transform="scale(1, -1) translate(0, -900)">
    <style type="text/css">
        .stroke1 {fill: #BF0909;}
        .stroke2 {fill: #BFBF09;}
        .stroke3 {fill: #09BF09;}
        .stroke4 {fill: #09BFBF;}
        .stroke5 {fill: #0909BF;}
        .stroke6 {fill: #BF09BF;}
        .stroke7 {fill: #42005e;}
        .stroke8 {fill: #ff3333;}
        .stroke9 {fill: #BFBFBF;}
        .stroke10 {fill: #00a53f;}
        .stroke11 {fill: #fff000;}
        .stroke12 {fill: #6600a5;}
        .stroke13 {fill: #0053a5;}
        .stroke14 {fill: #62c22b;}
        .stroke15 {fill: #BF09BF;}
        .stroke16 {fill: #BF0909;}
        .stroke17 {fill: #BFBF09;}
        .stroke18 {fill: #09BF09;}
        .stroke19 {fill: #09BFBF;}
        .stroke20 {fill: #0909BF;}
        text {
            font-family: Helvetica;
            font-size: 50px;
            fill: #FFFFFF;
            paint-order: stroke;
            stroke: #000000;
            stroke-width: 4px;
            stroke-linecap: butt;
            stroke-linejoin: miter;
            font-weight: 800;
        }
    </style>

    <path d="M 287 532 Q 238 525 198 516 Q 176 512 185 528 Q 249 649 310 740 Q 323 756 320 764 Q 317 777 279 806 Q 263 818 245 813 Q 235 810 241 795 Q 259 755 179 589 Q 163 552 123 513 Q 107 497 110 486 Q 116 468 132 452 Q 142 442 154 451 Q 176 469 258 500 Q 265 501 271 504 C 300 513 317 536 287 532 Z" class="stroke1"/>
    <path d="M 332 397 Q 281 382 226 358 Q 208 351 218 366 Q 255 423 345 538 Q 370 575 395 598 Q 407 608 400 618 Q 390 637 356 654 Q 340 661 331 659 Q 321 655 324 640 Q 325 607 287 532 L 271 504 L 271 503 Q 175 356 144 336 Q 131 326 135 313 Q 138 300 164 283 Q 176 273 189 285 Q 249 339 341 379 C 368 391 361 406 332 397 Z" class="stroke2"/>
    <path d="M 341 379 Q 362 334 377 327 Q 386 324 393 333 Q 400 343 403 369 Q 403 390 341 436 Q 331 443 324 442 Q 320 441 317 430 Q 317 421 332 397 L 341 379 Z" class="stroke3"/>
    <path d="M 84 153 Q 105 110 125 59 Q 132 43 146 36 Q 156 32 165 42 Q 175 52 180 82 Q 186 121 99 197 Q 87 206 81 207 Q 75 206 71 193 Q 70 183 84 153 Z" class="stroke4"/>
    <path d="M 205 199 Q 241 138 252 135 Q 259 134 266 141 Q 272 151 272 173 Q 272 197 211 233 Q 201 239 196 238 Q 192 237 190 227 Q 191 218 205 199 Z" class="stroke5"/>
    <path d="M 316 248 Q 356 194 364 193 Q 371 192 378 201 Q 382 211 381 233 Q 380 248 361 261 Q 315 289 304 286 Q 300 285 299 275 Q 300 266 316 248 Z" class="stroke6"/>
    <path d="M 542 648 Q 569 684 621 759 Q 633 780 651 797 Q 667 813 651 826 Q 633 838 605 842 Q 578 846 567 839 Q 557 833 565 823 Q 577 799 522 646 Q 521 645 521 643 C 511 615 524 624 542 648 Z" class="stroke7"/>
    <path d="M 475 634 Q 459 644 442 649 Q 436 652 431 647 Q 424 643 432 631 Q 472 555 470 363 Q 467 306 503 279 L 504 278 Q 517 274 521 295 L 521 326 Q 520 345 516 365 Q 504 539 504 597 Q 504 603 502 608 L 475 634 Z" class="stroke8"/>
    <path d="M 713 316 Q 738 283 757 277 Q 769 270 782 293 Q 801 339 819 573 Q 826 604 847 630 Q 859 643 847 656 Q 831 672 787 695 Q 769 701 703 683 Q 648 680 542 648 L 521 643 Q 496 639 475 634 C 446 628 473 600 502 608 Q 536 618 583 629 L 602 632 Q 722 663 747 648 Q 772 632 768 599 Q 747 352 726 338 C 714 315 712 317 713 316 Z" class="stroke9"/>
    <path d="M 583 629 L 586 619 Q 598 577 521 481 Q 517 477 517 473 Q 517 470 521 470 Q 549 482 608 555 L 620 575 Q 626 585 631 590 Q 635 597 630 606 Q 617 627 602 632 C 579 642 579 642 583 629 Z" class="stroke10"/>
    <path d="M 608 555 Q 615 554 626 556 Q 660 563 662 560 Q 671 538 625 471 L 610 451 Q 582 411 533 372 Q 517 362 531 363 Q 564 363 636 433 L 658 459 Q 680 487 699 521 Q 712 546 722 554 Q 731 561 727 569 Q 723 576 686 593 Q 679 596 662 588 Q 649 582 620 575 C 591 568 578 555 608 555 Z" class="stroke11"/>
    <path d="M 625 471 Q 597 483 579 488 Q 575 489 574 483 Q 574 477 610 451 L 636 433 Q 690 391 700 388 Q 704 388 708 394 Q 714 401 703 424 Q 696 445 658 459 L 625 471 Z" class="stroke12"/>
    <path d="M 521 295 Q 542 305 713 316 C 743 318 748 318 726 338 Q 720 344 710 351 Q 697 358 669 353 Q 587 334 521 326 C 491 322 493 285 521 295 Z" class="stroke13"/>
    <path d="M 416 202 Q 397 141 366 83 Q 348 52 368 19 Q 377 3 396 16 Q 447 64 445 148 Q 448 179 439 203 Q 433 210 428 212 Q 421 211 416 202 Z" class="stroke14"/>
    <path d="M 507 174 Q 522 84 587 35 Q 683 -28 851 -15 Q 876 -11 899 -2 Q 921 5 923 19 Q 927 28 894 55 Q 843 107 808 159 Q 798 175 793 169 Q 789 163 792 149 Q 802 115 809 77 Q 813 56 808 48 Q 799 38 761 38 Q 629 41 578 94 Q 554 116 545 156 Q 541 178 529 183 Q 517 190 510 187 Q 506 186 507 174 Z" class="stroke15"/>
    <path d="M 613 210 Q 637 191 662 169 Q 675 159 688 160 Q 698 161 701 172 Q 705 185 695 211 Q 689 227 663 238 Q 600 256 588 251 Q 584 247 586 236 Q 589 226 613 210 Z" class="stroke16"/>
    <path d="M 821 256 Q 867 220 921 166 Q 936 150 950 146 Q 959 145 965 155 Q 975 167 961 206 Q 948 251 821 285 Q 812 289 811 277 Q 811 265 821 256 Z" class="stroke17"/>
    <text x="249" y="803" style="transform-origin:249px 803px; transform:scale(1,-1);">1</text>
    <text x="336" y="647" style="transform-origin:336px 647px; transform:scale(1,-1);">2</text>
    <text x="327" y="432" style="transform-origin:327px 432px; transform:scale(1,-1);">3</text>
    <text x="82" y="199" style="transform-origin:82px 199px; transform:scale(1,-1);">4</text>
    <text x="201" y="228" style="transform-origin:201px 228px; transform:scale(1,-1);">5</text>
    <text x="307" y="278" style="transform-origin:307px 278px; transform:scale(1,-1);">6</text>
    <text x="571" y="830" style="transform-origin:571px 830px; transform:scale(1,-1);">7</text>
    <text x="438" y="639" style="transform-origin:438px 639px; transform:scale(1,-1);">8</text>
    <text x="483" y="633" style="transform-origin:483px 633px; transform:scale(1,-1);">9</text>
    <text x="588" y="625" style="transform-origin:588px 625px; transform:scale(1,-1);">10</text>
    <text x="612" y="559" style="transform-origin:612px 559px; transform:scale(1,-1);">11</text>
    <text x="579" y="483" style="transform-origin:579px 483px; transform:scale(1,-1);">12</text>
    <text x="526" y="304" style="transform-origin:526px 304px; transform:scale(1,-1);">13</text>
    <text x="428" y="200" style="transform-origin:428px 200px; transform:scale(1,-1);">14</text>
    <text x="515" y="179" style="transform-origin:515px 179px; transform:scale(1,-1);">15</text>
    <text x="593" y="243" style="transform-origin:593px 243px; transform:scale(1,-1);">16</text>
    <text x="822" y="274" style="transform-origin:822px 274px; transform:scale(1,-1);">17</text></g>
</svg>