<svg version="1.1" viewBox="0 0 1024 1024" xmlns="http://www.w3.org/2000/svg">
  <g stroke="lightgray" stroke-dasharray="1,1" stroke-width="1" transform="scale(4, 4)">
    <line x1="0" y1="0" x2="256" y2="256"/>
    <line x1="256" y1="0" x2="0" y2="256"/>
    <line x1="128" y1="0" x2="128" y2="256"/>
    <line x1="0" y1="128" x2="256" y2="128"/>
  </g>
  <g transform="scale(1, -1) translate(0, -900)">
    <style type="text/css">
        .stroke1 {fill: #BF0909;}
        .stroke2 {fill: #BFBF09;}
        .stroke3 {fill: #09BF09;}
        .stroke4 {fill: #09BFBF;}
        .stroke5 {fill: #0909BF;}
        .stroke6 {fill: #BF09BF;}
        .stroke7 {fill: #42005e;}
        .stroke8 {fill: #ff3333;}
        .stroke9 {fill: #BFBFBF;}
        .stroke10 {fill: #00a53f;}
        .stroke11 {fill: #fff000;}
        .stroke12 {fill: #6600a5;}
        .stroke13 {fill: #0053a5;}
        .stroke14 {fill: #62c22b;}
        .stroke15 {fill: #BF09BF;}
        .stroke16 {fill: #BF0909;}
        .stroke17 {fill: #BFBF09;}
        .stroke18 {fill: #09BF09;}
        .stroke19 {fill: #09BFBF;}
        .stroke20 {fill: #0909BF;}
        text {
            font-family: Helvetica;
            font-size: 50px;
            fill: #FFFFFF;
            paint-order: stroke;
            stroke: #000000;
            stroke-width: 4px;
            stroke-linecap: butt;
            stroke-linejoin: miter;
            font-weight: 800;
        }
    </style>

    <path d="M 286 528 Q 285 529 282 528 Q 240 527 206 525 Q 175 524 190 543 Q 248 643 305 719 Q 318 735 316 743 Q 313 756 275 786 Q 259 799 242 795 Q 232 791 237 777 Q 253 740 179 594 Q 163 561 128 530 Q 112 515 113 504 Q 117 486 132 469 Q 142 459 154 466 Q 194 494 271 504 C 301 508 316 529 286 528 Z" class="stroke1"/>
    <path d="M 328 397 Q 279 387 223 367 Q 202 358 215 376 Q 252 430 340 536 Q 365 570 388 589 Q 398 598 394 607 Q 384 625 354 641 Q 341 650 331 647 Q 322 644 324 630 Q 325 600 286 528 L 271 504 Q 174 368 146 351 Q 134 344 137 330 Q 138 318 162 302 Q 172 292 185 302 Q 245 350 333 380 Q 334 381 336 380 C 365 388 357 403 328 397 Z" class="stroke2"/>
    <path d="M 336 380 Q 346 364 360 358 Q 370 354 380 367 Q 384 377 381 395 Q 371 425 327 444 Q 320 448 316 439 Q 313 433 328 397 L 336 380 Z" class="stroke3"/>
    <path d="M 116 173 Q 129 134 143 90 Q 147 74 162 66 Q 171 62 181 70 Q 193 80 199 109 Q 205 131 184 161 Q 133 225 117 226 Q 111 226 106 214 Q 105 204 116 173 Z" class="stroke4"/>
    <path d="M 227 216 Q 243 192 259 165 Q 266 152 279 150 Q 286 149 293 157 Q 300 167 299 191 Q 299 207 278 225 Q 227 261 216 258 Q 212 257 210 246 Q 211 237 227 216 Z" class="stroke5"/>
    <path d="M 308 266 Q 326 245 343 221 Q 350 211 361 209 Q 368 209 374 217 Q 378 226 376 247 Q 373 269 311 299 Q 301 303 296 302 Q 292 301 292 291 Q 293 284 308 266 Z" class="stroke6"/>
    <path d="M 434 751 Q 428 757 412 762 Q 405 766 398 762 Q 394 759 397 751 Q 398 745 401 740 Q 419 707 410 564 Q 392 504 422 472 Q 429 462 436 471 Q 440 478 442 485 L 444 508 Q 445 521 445 540 Q 444 553 444 566 L 444 590 Q 444 621 444 643 L 444 665 Q 444 698 446 732 C 447 742 447 742 434 751 Z" class="stroke7"/>
    <path d="M 547 503 Q 548 496 553 488 Q 563 466 570 467 Q 580 468 593 492 Q 605 513 601 554 Q 589 707 614 743 Q 621 755 616 761 Q 561 804 508 775 Q 469 762 434 751 C 405 742 417 724 446 732 Q 450 733 452 733 Q 497 749 530 760 Q 540 763 546 758 Q 558 742 556 692 Q 556 566 550 530 L 547 503 Z" class="stroke8"/>
    <path d="M 444 643 Q 490 655 524 662 Q 540 666 533 675 Q 524 684 506 685 Q 482 688 444 665 C 418 650 415 635 444 643 Z" class="stroke9"/>
    <path d="M 444 566 Q 489 576 523 582 Q 539 586 533 595 Q 524 605 506 606 Q 476 609 444 590 C 418 575 415 560 444 566 Z" class="stroke10"/>
    <path d="M 442 485 Q 443 485 448 485 Q 502 497 547 503 C 577 507 579 523 550 530 Q 546 531 541 532 Q 520 533 444 508 C 415 499 412 485 442 485 Z" class="stroke11"/>
    <path d="M 446 455 Q 452 440 425 392 Q 412 370 392 345 Q 386 341 385 336 Q 384 330 391 331 Q 422 340 477 406 Q 484 416 492 422 Q 498 428 495 435 Q 494 442 478 456 Q 463 468 453 468 Q 443 467 446 455 Z" class="stroke12"/>
    <path d="M 523 438 Q 550 396 564 392 Q 571 391 577 400 Q 578 407 575 421 Q 566 440 527 454 Q 523 455 521 449 Q 520 445 523 438 Z" class="stroke13"/>
    <path d="M 679 513 Q 680 516 682 519 L 685 541 Q 686 556 685 577 Q 684 587 684 598 L 684 621 Q 684 652 684 675 L 684 698 Q 684 735 686 774 C 687 785 687 785 675 794 Q 672 800 652 806 Q 645 810 638 806 Q 634 803 637 795 Q 638 789 641 783 Q 650 765 652 614 Q 640 539 657 514 Q 660 510 665 504 C 672 495 672 495 679 513 Z" class="stroke14"/>
    <path d="M 809 535 Q 808 525 816 512 Q 828 490 834 491 Q 844 492 857 517 Q 867 536 866 552 Q 839 729 871 780 Q 878 792 873 799 Q 852 815 817 830 Q 805 834 789 827 Q 747 806 675 794 C 645 789 656 772 686 774 Q 695 774 702 775 Q 793 802 801 793 Q 814 777 814 725 Q 817 610 813 565 L 809 535 Z" class="stroke15"/>
    <path d="M 684 675 Q 702 681 768 696 Q 786 702 778 710 Q 768 720 748 721 Q 723 721 684 698 C 658 683 655 666 684 675 Z" class="stroke16"/>
    <path d="M 684 598 Q 738 610 779 617 Q 797 621 789 630 Q 780 640 760 643 Q 733 646 684 621 C 657 608 655 592 684 598 Z" class="stroke17"/>
    <path d="M 682 519 Q 686 519 692 519 Q 758 529 809 535 C 839 539 842 558 813 565 Q 812 566 809 566 Q 788 569 685 541 C 656 533 652 519 682 519 Z" class="stroke18"/>
    <path d="M 665 504 Q 674 486 647 440 Q 634 418 616 393 Q 610 389 609 384 Q 608 378 615 379 Q 646 388 698 454 Q 705 464 713 470 Q 717 476 716 484 Q 715 491 698 504 Q 688 511 679 513 C 660 519 660 519 665 504 Z" class="stroke19"/>
    <path d="M 789 436 Q 808 414 828 388 Q 838 376 851 375 Q 860 375 865 385 Q 871 397 867 421 Q 863 446 790 475 Q 777 479 772 479 Q 768 476 767 465 Q 768 455 789 436 Z" class="stroke20"/>
    <path d="M 586 286 Q 593 302 601 311 Q 610 318 607 327 Q 601 340 566 366 Q 556 375 545 371 Q 533 368 540 353 Q 547 334 533 279 L 521 245 Q 506 209 492 187 Q 483 171 486 158 Q 489 149 505 146 Q 550 136 599 112 Q 602 111 604 109 L 650 85 Q 708 51 794 -13 Q 819 -32 836 -31 Q 855 -30 855 -11 Q 855 8 826 50 Q 811 80 680 123 L 633 140 Q 584 158 547 166 Q 528 170 537 189 Q 556 229 570 253 L 586 286 Z" class="stroke21"/>
    <path d="M 761 311 Q 751 324 729 331 Q 711 341 693 339 Q 680 336 686 321 Q 690 312 692 301 L 692 269 Q 689 212 636 144 Q 635 144 633 140 L 604 109 Q 541 57 400 20 Q 384 13 402 9 Q 555 -7 650 85 L 680 123 Q 681 127 685 130 Q 719 178 738 234 Q 745 259 753 274 C 765 301 767 305 761 311 Z" class="stroke22"/>
    <path d="M 753 274 Q 819 278 902 279 Q 959 276 967 286 Q 971 296 957 308 Q 906 345 852 328 Q 812 322 761 311 L 692 301 Q 673 300 586 286 L 533 279 Q 470 273 403 263 Q 384 262 398 247 Q 410 235 425 230 Q 444 226 457 230 Q 488 239 521 245 L 570 253 Q 601 260 635 263 Q 660 267 692 269 L 753 274 Z" class="stroke23"/>
    <text x="247" y="784" style="transform-origin:247px 784px; transform:scale(1,-1);">1</text>
    <text x="336" y="635" style="transform-origin:336px 635px; transform:scale(1,-1);">2</text>
    <text x="324" y="435" style="transform-origin:324px 435px; transform:scale(1,-1);">3</text>
    <text x="118" y="218" style="transform-origin:118px 218px; transform:scale(1,-1);">4</text>
    <text x="218" y="249" style="transform-origin:218px 249px; transform:scale(1,-1);">5</text>
    <text x="302" y="294" style="transform-origin:302px 294px; transform:scale(1,-1);">6</text>
    <text x="405" y="756" style="transform-origin:405px 756px; transform:scale(1,-1);">7</text>
    <text x="442" y="750" style="transform-origin:442px 750px; transform:scale(1,-1);">8</text>
    <text x="451" y="649" style="transform-origin:451px 649px; transform:scale(1,-1);">9</text>
    <text x="450" y="572" style="transform-origin:450px 572px; transform:scale(1,-1);">10</text>
    <text x="445" y="491" style="transform-origin:445px 491px; transform:scale(1,-1);">11</text>
    <text x="456" y="458" style="transform-origin:456px 458px; transform:scale(1,-1);">12</text>
    <text x="530" y="445" style="transform-origin:530px 445px; transform:scale(1,-1);">13</text>
    <text x="645" y="800" style="transform-origin:645px 800px; transform:scale(1,-1);">14</text>
    <text x="684" y="793" style="transform-origin:684px 793px; transform:scale(1,-1);">15</text>
    <text x="686" y="681" style="transform-origin:686px 681px; transform:scale(1,-1);">16</text>
    <text x="691" y="604" style="transform-origin:691px 604px; transform:scale(1,-1);">17</text>
    <text x="687" y="524" style="transform-origin:687px 524px; transform:scale(1,-1);">18</text>
    <text x="672" y="501" style="transform-origin:672px 501px; transform:scale(1,-1);">19</text>
    <text x="774" y="470" style="transform-origin:774px 470px; transform:scale(1,-1);">20</text>
    <text x="547" y="361" style="transform-origin:547px 361px; transform:scale(1,-1);">21</text>
    <text x="695" y="328" style="transform-origin:695px 328px; transform:scale(1,-1);">22</text>
    <text x="400" y="255" style="transform-origin:400px 255px; transform:scale(1,-1);">23</text></g>
</svg>