<svg version="1.1" viewBox="0 0 1024 1024" xmlns="http://www.w3.org/2000/svg">
  <g stroke="lightgray" stroke-dasharray="1,1" stroke-width="1" transform="scale(4, 4)">
    <line x1="0" y1="0" x2="256" y2="256"/>
    <line x1="256" y1="0" x2="0" y2="256"/>
    <line x1="128" y1="0" x2="128" y2="256"/>
    <line x1="0" y1="128" x2="256" y2="128"/>
  </g>
  <g transform="scale(1, -1) translate(0, -900)">
    <style type="text/css">
        .stroke1 {fill: #BF0909;}
        .stroke2 {fill: #BFBF09;}
        .stroke3 {fill: #09BF09;}
        .stroke4 {fill: #09BFBF;}
        .stroke5 {fill: #0909BF;}
        .stroke6 {fill: #BF09BF;}
        .stroke7 {fill: #42005e;}
        .stroke8 {fill: #ff3333;}
        .stroke9 {fill: #BFBFBF;}
        .stroke10 {fill: #00a53f;}
        .stroke11 {fill: #fff000;}
        .stroke12 {fill: #6600a5;}
        .stroke13 {fill: #0053a5;}
        .stroke14 {fill: #62c22b;}
        .stroke15 {fill: #BF09BF;}
        .stroke16 {fill: #BF0909;}
        .stroke17 {fill: #BFBF09;}
        .stroke18 {fill: #09BF09;}
        .stroke19 {fill: #09BFBF;}
        .stroke20 {fill: #0909BF;}
        text {
            font-family: Helvetica;
            font-size: 50px;
            fill: #FFFFFF;
            paint-order: stroke;
            stroke: #000000;
            stroke-width: 4px;
            stroke-linecap: butt;
            stroke-linejoin: miter;
            font-weight: 800;
        }
    </style>

    <path d="M 323 498 Q 274 498 232 499 Q 196 499 215 521 Q 285 633 352 718 Q 367 736 364 744 Q 363 759 322 792 Q 306 805 286 802 Q 274 799 281 783 Q 288 765 282 739 Q 269 688 207 580 Q 188 543 148 509 Q 129 494 130 482 Q 134 463 148 444 Q 158 432 172 439 Q 211 460 304 472 C 334 476 353 498 323 498 Z" class="stroke1"/>
    <path d="M 304 472 Q 208 340 184 329 Q 171 320 173 307 Q 174 294 200 274 Q 210 262 225 275 Q 288 318 398 356 Q 417 360 419 369 Q 422 379 402 375 Q 342 365 270 344 Q 243 334 260 356 Q 300 413 397 527 Q 425 564 449 585 Q 462 595 456 605 Q 446 624 413 642 Q 397 652 388 649 Q 378 646 380 630 Q 383 590 323 498 L 304 472 Z" class="stroke2"/>
    <path d="M 131 155 Q 118 152 117 140 Q 116 127 128 119 Q 155 106 192 90 Q 204 89 215 99 Q 242 127 397 228 Q 419 241 434 258 Q 446 268 445 277 Q 439 283 426 278 Q 180 161 131 155 Z" class="stroke3"/>
    <path d="M 692 525 Q 759 538 834 551 Q 900 564 910 573 Q 920 582 915 591 Q 908 604 877 613 Q 844 620 812 608 Q 754 590 695 575 L 644 563 Q 559 547 460 539 Q 420 535 448 515 Q 491 488 552 500 Q 595 507 643 516 L 692 525 Z" class="stroke4"/>
    <path d="M 683 394 Q 687 461 692 525 L 695 575 Q 701 719 721 774 Q 725 787 703 802 Q 666 823 640 827 Q 622 831 614 822 Q 605 815 615 798 Q 640 761 640 736 Q 644 654 644 563 L 643 516 Q 642 453 638 385 C 636 355 681 364 683 394 Z" class="stroke5"/>
    <path d="M 638 385 Q 605 381 575 378 Q 542 375 505 371 Q 477 368 498 351 Q 528 326 556 332 Q 661 350 821 369 Q 831 368 840 379 Q 841 389 820 400 Q 790 422 710 400 Q 697 399 683 394 L 638 385 Z" class="stroke6"/>
    <path d="M 531 244 Q 521 248 495 253 Q 482 256 479 251 Q 472 244 481 227 Q 509 169 527 72 Q 530 44 547 24 Q 566 2 571 18 Q 575 28 575 44 L 571 82 Q 555 182 553 211 C 551 237 551 237 531 244 Z" class="stroke7"/>
    <path d="M 797 107 Q 824 197 860 221 Q 878 240 862 259 Q 844 274 790 300 Q 769 309 691 278 Q 582 251 531 244 C 501 239 524 204 553 211 Q 601 223 731 248 Q 752 254 760 245 Q 770 235 767 214 Q 757 159 743 112 C 735 83 788 78 797 107 Z" class="stroke8"/>
    <path d="M 575 44 Q 585 43 597 45 Q 666 58 813 66 Q 825 67 827 77 Q 827 86 797 107 L 743 112 Q 742 112 741 112 Q 647 91 571 82 C 541 78 545 45 575 44 Z" class="stroke9"/>
    <text x="289" y="791" style="transform-origin:289px 791px; transform:scale(1,-1);">1</text>
    <text x="393" y="636" style="transform-origin:393px 636px; transform:scale(1,-1);">2</text>
    <text x="133" y="139" style="transform-origin:133px 139px; transform:scale(1,-1);">3</text>
    <text x="451" y="529" style="transform-origin:451px 529px; transform:scale(1,-1);">4</text>
    <text x="627" y="811" style="transform-origin:627px 811px; transform:scale(1,-1);">5</text>
    <text x="500" y="362" style="transform-origin:500px 362px; transform:scale(1,-1);">6</text>
    <text x="487" y="243" style="transform-origin:487px 243px; transform:scale(1,-1);">7</text>
    <text x="537" y="240" style="transform-origin:537px 240px; transform:scale(1,-1);">8</text>
    <text x="580" y="51" style="transform-origin:580px 51px; transform:scale(1,-1);">9</text></g>
</svg>