<svg version="1.1" viewBox="0 0 1024 1024" xmlns="http://www.w3.org/2000/svg">
  <g stroke="lightgray" stroke-dasharray="1,1" stroke-width="1" transform="scale(4, 4)">
    <line x1="0" y1="0" x2="256" y2="256"/>
    <line x1="256" y1="0" x2="0" y2="256"/>
    <line x1="128" y1="0" x2="128" y2="256"/>
    <line x1="0" y1="128" x2="256" y2="128"/>
  </g>
  <g transform="scale(1, -1) translate(0, -900)">
    <style type="text/css">
        .stroke1 {fill: #BF0909;}
        .stroke2 {fill: #BFBF09;}
        .stroke3 {fill: #09BF09;}
        .stroke4 {fill: #09BFBF;}
        .stroke5 {fill: #0909BF;}
        .stroke6 {fill: #BF09BF;}
        .stroke7 {fill: #42005e;}
        .stroke8 {fill: #ff3333;}
        .stroke9 {fill: #BFBFBF;}
        .stroke10 {fill: #00a53f;}
        .stroke11 {fill: #fff000;}
        .stroke12 {fill: #6600a5;}
        .stroke13 {fill: #0053a5;}
        .stroke14 {fill: #62c22b;}
        .stroke15 {fill: #BF09BF;}
        .stroke16 {fill: #BF0909;}
        .stroke17 {fill: #BFBF09;}
        .stroke18 {fill: #09BF09;}
        .stroke19 {fill: #09BFBF;}
        .stroke20 {fill: #0909BF;}
        text {
            font-family: Helvetica;
            font-size: 50px;
            fill: #FFFFFF;
            paint-order: stroke;
            stroke: #000000;
            stroke-width: 4px;
            stroke-linecap: butt;
            stroke-linejoin: miter;
            font-weight: 800;
        }
    </style>

    <path d="M 289 469 Q 285 470 281 470 Q 247 474 216 477 Q 179 478 199 500 Q 260 596 320 666 Q 335 684 332 692 Q 331 707 290 740 Q 274 753 255 751 Q 243 748 249 732 Q 264 693 184 550 Q 168 519 132 489 Q 113 476 113 463 Q 117 444 131 424 Q 141 412 154 419 Q 173 429 274 448 C 303 454 319 465 289 469 Z" class="stroke1"/>
    <path d="M 274 448 Q 177 322 161 313 Q 148 304 150 290 Q 151 277 178 259 Q 188 247 203 260 Q 263 308 355 342 Q 374 349 375 357 Q 376 367 358 363 Q 306 351 244 331 Q 222 322 236 340 Q 366 520 422 565 Q 434 575 428 585 Q 418 604 385 622 Q 369 632 360 629 Q 350 626 352 610 Q 355 568 294 475 Q 291 474 289 469 L 274 448 Z" class="stroke2"/>
    <path d="M 104 141 Q 91 138 90 127 Q 89 114 100 106 Q 125 93 162 78 Q 172 77 184 86 Q 284 158 386 230 Q 398 240 397 249 Q 391 253 379 250 Q 150 145 104 141 Z" class="stroke3"/>
    <path d="M 559 573 Q 575 551 591 524 Q 598 512 611 510 Q 618 509 625 517 Q 632 527 630 551 Q 630 567 610 583 Q 555 616 548 614 Q 544 613 542 602 Q 543 593 559 573 Z" class="stroke4"/>
    <path d="M 799 633 L 753 556 Q 746 541 760 546 Q 784 562 836 601 Q 849 614 868 625 Q 884 634 874 647 Q 862 660 841 670 Q 822 679 811 676 Q 801 675 805 663 Q 809 650 799 633 Z" class="stroke5"/>
    <path d="M 712 440 Q 724 443 840 462 Q 850 461 858 472 Q 858 482 838 492 Q 805 510 713 481 L 679 473 Q 610 461 539 450 Q 514 446 534 431 Q 562 412 602 418 Q 627 424 660 430 L 712 440 Z" class="stroke6"/>
    <path d="M 677 374 Q 671 271 661 223 Q 660 208 679 164 Q 691 146 707 156 Q 722 169 718 253 Q 711 394 712 440 L 713 481 Q 716 667 751 737 Q 758 747 744 763 Q 719 784 686 796 Q 667 806 651 799 Q 635 795 643 777 Q 682 714 679 614 Q 680 538 679 473 L 677 374 Z" class="stroke7"/>
    <path d="M 660 430 Q 623 351 524 235 Q 518 228 528 226 Q 543 223 613 290 Q 646 323 677 374 C 721 445 673 457 660 430 Z" class="stroke8"/>
    <path d="M 763 338 Q 791 307 823 269 Q 832 257 844 256 Q 851 255 857 265 Q 863 275 859 299 Q 858 321 828 342 Q 764 384 748 378 Q 744 377 743 366 Q 744 357 763 338 Z" class="stroke9"/>
    <path d="M 513 650 Q 517 662 506 675 Q 496 685 467 699 Q 448 709 439 703 Q 432 696 440 681 Q 458 647 459 586 Q 466 357 448 146 Q 445 106 421 70 Q 411 54 420 34 Q 429 12 439 3 Q 449 -4 466 7 Q 524 47 614 66 Q 716 85 912 86 Q 939 86 939 99 Q 939 115 908 136 Q 890 151 774 128 Q 567 103 526 93 Q 493 84 499 140 Q 505 329 507 564 Q 507 616 513 650 Z" class="stroke10"/>
    <text x="258" y="740" style="transform-origin:258px 740px; transform:scale(1,-1);">1</text>
    <text x="365" y="616" style="transform-origin:365px 616px; transform:scale(1,-1);">2</text>
    <text x="106" y="126" style="transform-origin:106px 126px; transform:scale(1,-1);">3</text>
    <text x="549" y="606" style="transform-origin:549px 606px; transform:scale(1,-1);">4</text>
    <text x="818" y="665" style="transform-origin:818px 665px; transform:scale(1,-1);">5</text>
    <text x="535" y="441" style="transform-origin:535px 441px; transform:scale(1,-1);">6</text>
    <text x="653" y="786" style="transform-origin:653px 786px; transform:scale(1,-1);">7</text>
    <text x="675" y="426" style="transform-origin:675px 426px; transform:scale(1,-1);">8</text>
    <text x="752" y="369" style="transform-origin:752px 369px; transform:scale(1,-1);">9</text>
    <text x="446" y="695" style="transform-origin:446px 695px; transform:scale(1,-1);">10</text></g>
</svg>