<svg version="1.1" viewBox="0 0 1024 1024" xmlns="http://www.w3.org/2000/svg">
  <g stroke="lightgray" stroke-dasharray="1,1" stroke-width="1" transform="scale(4, 4)">
    <line x1="0" y1="0" x2="256" y2="256"/>
    <line x1="256" y1="0" x2="0" y2="256"/>
    <line x1="128" y1="0" x2="128" y2="256"/>
    <line x1="0" y1="128" x2="256" y2="128"/>
  </g>
  <g transform="scale(1, -1) translate(0, -900)">
    <style type="text/css">
        .stroke1 {fill: #BF0909;}
        .stroke2 {fill: #BFBF09;}
        .stroke3 {fill: #09BF09;}
        .stroke4 {fill: #09BFBF;}
        .stroke5 {fill: #0909BF;}
        .stroke6 {fill: #BF09BF;}
        .stroke7 {fill: #42005e;}
        .stroke8 {fill: #ff3333;}
        .stroke9 {fill: #BFBFBF;}
        .stroke10 {fill: #00a53f;}
        .stroke11 {fill: #fff000;}
        .stroke12 {fill: #6600a5;}
        .stroke13 {fill: #0053a5;}
        .stroke14 {fill: #62c22b;}
        .stroke15 {fill: #BF09BF;}
        .stroke16 {fill: #BF0909;}
        .stroke17 {fill: #BFBF09;}
        .stroke18 {fill: #09BF09;}
        .stroke19 {fill: #09BFBF;}
        .stroke20 {fill: #0909BF;}
        text {
            font-family: Helvetica;
            font-size: 50px;
            fill: #FFFFFF;
            paint-order: stroke;
            stroke: #000000;
            stroke-width: 4px;
            stroke-linecap: butt;
            stroke-linejoin: miter;
            font-weight: 800;
        }
    </style>

    <path d="M 321 480 Q 266 479 221 476 Q 187 475 204 496 Q 274 616 341 705 Q 354 721 352 730 Q 349 743 311 775 Q 295 788 276 784 Q 266 781 271 766 Q 289 724 200 558 Q 181 521 140 483 Q 121 468 123 457 Q 127 438 142 420 Q 152 410 165 417 Q 189 432 303 454 C 332 460 351 481 321 480 Z" class="stroke1"/>
    <path d="M 303 454 Q 213 328 192 317 Q 179 307 182 294 Q 183 281 210 263 Q 220 251 235 264 Q 293 309 395 350 Q 414 357 415 365 Q 418 375 398 371 Q 343 358 276 335 Q 254 325 267 345 Q 304 400 395 511 Q 422 548 446 570 Q 459 580 452 589 Q 442 608 408 626 Q 392 635 383 632 Q 373 628 376 613 Q 379 571 321 480 L 303 454 Z" class="stroke2"/>
    <path d="M 133 159 Q 120 156 120 146 Q 119 133 129 126 Q 153 113 187 96 Q 197 95 209 104 Q 323 177 438 251 Q 450 260 449 269 Q 443 273 431 270 Q 188 162 133 159 Z" class="stroke3"/>
    <path d="M 541 735 Q 529 739 501 743 Q 489 746 487 741 Q 481 734 490 720 Q 517 672 537 593 Q 541 569 556 554 Q 574 535 578 549 Q 579 556 580 568 L 577 599 Q 562 677 556 704 C 550 732 550 732 541 735 Z" class="stroke4"/>
    <path d="M 787 629 Q 811 690 842 712 Q 858 730 845 748 Q 775 805 719 778 Q 638 751 541 735 C 511 730 526 699 556 704 Q 575 707 723 738 Q 742 742 750 734 Q 757 727 755 713 Q 746 670 736 635 C 728 606 776 601 787 629 Z" class="stroke5"/>
    <path d="M 580 568 Q 586 567 596 569 Q 660 585 797 599 Q 807 600 808 609 Q 808 616 787 629 C 766 643 765 642 736 635 Q 648 613 577 599 C 548 593 550 569 580 568 Z" class="stroke6"/>
    <path d="M 566 238 Q 567 287 572 324 L 574 349 Q 577 407 581 427 Q 581 431 581 434 L 569 460 Q 568 463 564 464 Q 536 479 519 478 Q 506 474 511 462 Q 559 354 508 155 Q 484 95 486 81 Q 487 51 504 33 Q 510 20 520 26 Q 551 47 565 211 L 566 238 Z" class="stroke7"/>
    <path d="M 581 434 Q 737 465 752 460 Q 765 453 764 422 Q 785 235 777 88 Q 776 58 760 53 Q 748 49 686 66 Q 673 69 674 60 Q 675 51 691 42 Q 731 8 760 -27 Q 776 -45 795 -44 Q 811 -40 833 13 Q 858 67 853 120 Q 840 247 828 365 Q 822 411 841 449 Q 853 465 838 479 Q 819 495 780 509 Q 761 518 708 496 Q 669 484 569 460 C 540 453 552 428 581 434 Z" class="stroke8"/>
    <path d="M 572 324 Q 578 323 588 323 Q 655 333 707 340 Q 729 344 721 356 Q 711 371 685 375 Q 661 378 574 349 C 546 340 542 328 572 324 Z" class="stroke9"/>
    <path d="M 565 211 Q 569 210 576 211 Q 658 224 718 232 Q 742 236 733 248 Q 723 263 697 267 Q 666 273 566 238 C 538 228 535 214 565 211 Z" class="stroke10"/>
    <text x="281" y="773" style="transform-origin:281px 773px; transform:scale(1,-1);">1</text>
    <text x="388" y="620" style="transform-origin:388px 620px; transform:scale(1,-1);">2</text>
    <text x="134" y="145" style="transform-origin:134px 145px; transform:scale(1,-1);">3</text>
    <text x="495" y="734" style="transform-origin:495px 734px; transform:scale(1,-1);">4</text>
    <text x="550" y="733" style="transform-origin:550px 733px; transform:scale(1,-1);">5</text>
    <text x="584" y="576" style="transform-origin:584px 576px; transform:scale(1,-1);">6</text>
    <text x="520" y="467" style="transform-origin:520px 467px; transform:scale(1,-1);">7</text>
    <text x="581" y="458" style="transform-origin:581px 458px; transform:scale(1,-1);">8</text>
    <text x="576" y="330" style="transform-origin:576px 330px; transform:scale(1,-1);">9</text>
    <text x="571" y="218" style="transform-origin:571px 218px; transform:scale(1,-1);">10</text></g>
</svg>