<svg version="1.1" viewBox="0 0 1024 1024" xmlns="http://www.w3.org/2000/svg">
  <g stroke="lightgray" stroke-dasharray="1,1" stroke-width="1" transform="scale(4, 4)">
    <line x1="0" y1="0" x2="256" y2="256"/>
    <line x1="256" y1="0" x2="0" y2="256"/>
    <line x1="128" y1="0" x2="128" y2="256"/>
    <line x1="0" y1="128" x2="256" y2="128"/>
  </g>
  <g transform="scale(1, -1) translate(0, -900)">
    <style type="text/css">
        .stroke1 {fill: #BF0909;}
        .stroke2 {fill: #BFBF09;}
        .stroke3 {fill: #09BF09;}
        .stroke4 {fill: #09BFBF;}
        .stroke5 {fill: #0909BF;}
        .stroke6 {fill: #BF09BF;}
        .stroke7 {fill: #42005e;}
        .stroke8 {fill: #ff3333;}
        .stroke9 {fill: #BFBFBF;}
        .stroke10 {fill: #00a53f;}
        .stroke11 {fill: #fff000;}
        .stroke12 {fill: #6600a5;}
        .stroke13 {fill: #0053a5;}
        .stroke14 {fill: #62c22b;}
        .stroke15 {fill: #BF09BF;}
        .stroke16 {fill: #BF0909;}
        .stroke17 {fill: #BFBF09;}
        .stroke18 {fill: #09BF09;}
        .stroke19 {fill: #09BFBF;}
        .stroke20 {fill: #0909BF;}
        text {
            font-family: Helvetica;
            font-size: 50px;
            fill: #FFFFFF;
            paint-order: stroke;
            stroke: #000000;
            stroke-width: 4px;
            stroke-linecap: butt;
            stroke-linejoin: miter;
            font-weight: 800;
        }
    </style>

    <path d="M 300 497 Q 251 498 209 498 Q 176 498 194 518 Q 261 626 327 704 Q 342 722 339 729 Q 338 744 299 775 Q 283 790 265 786 Q 253 783 259 768 Q 277 729 187 575 Q 168 541 129 508 Q 110 495 111 482 Q 115 463 129 445 Q 139 435 152 441 Q 207 471 281 471 C 311 472 330 496 300 497 Z" class="stroke1"/>
    <path d="M 281 471 Q 239 419 196 361 Q 180 340 165 332 Q 152 323 155 311 Q 156 298 181 280 Q 191 270 205 280 Q 263 325 355 356 Q 373 360 375 369 Q 378 379 359 375 Q 308 365 247 347 Q 222 337 237 358 Q 282 422 387 552 Q 414 586 437 607 Q 449 617 443 626 Q 433 644 401 662 Q 386 671 377 668 Q 368 664 370 650 Q 373 596 300 497 L 281 471 Z" class="stroke2"/>
    <path d="M 116 159 Q 104 155 104 145 Q 104 132 115 125 Q 140 115 176 102 Q 186 101 197 111 Q 225 144 259 167 Q 311 204 362 241 Q 381 254 395 270 Q 405 280 404 289 Q 398 293 387 288 Q 168 168 116 159 Z" class="stroke3"/>
    <path d="M 617 718 Q 581 708 505 698 Q 468 691 495 674 Q 543 653 598 667 Q 605 670 617 670 L 662 681 Q 785 714 788 715 Q 797 724 792 732 Q 785 744 754 750 Q 727 756 667 733 L 617 718 Z" class="stroke4"/>
    <path d="M 667 733 Q 670 776 677 792 Q 686 822 672 834 Q 671 835 670 836 Q 640 852 620 856 Q 607 860 600 852 Q 593 846 600 833 Q 615 811 615 796 Q 616 759 617 718 L 617 670 Q 616 624 615 575 C 614 545 648 553 651 583 Q 657 634 662 681 L 667 733 Z" class="stroke5"/>
    <path d="M 615 575 Q 570 568 519 554 Q 476 544 434 537 Q 404 533 423 517 Q 457 492 492 507 Q 600 550 783 579 Q 795 580 801 580 Q 817 574 816 567 Q 816 566 785 497 Q 779 485 785 481 Q 792 477 807 488 Q 859 522 901 534 Q 935 544 935 553 Q 934 563 865 611 Q 841 629 760 607 Q 714 598 651 583 L 615 575 Z" class="stroke6"/>
    <path d="M 492 468 Q 540 411 563 413 Q 575 412 580 428 Q 581 440 572 457 Q 562 470 541 477 Q 508 490 495 492 Q 486 493 486 483 Q 485 476 492 468 Z" class="stroke7"/>
    <path d="M 482 342 Q 504 323 528 299 Q 540 289 552 289 Q 561 290 565 301 Q 569 313 562 337 Q 558 353 532 365 Q 475 389 460 383 Q 456 379 457 369 Q 460 359 482 342 Z" class="stroke8"/>
    <path d="M 677 240 Q 750 252 852 257 Q 906 257 914 268 Q 918 281 901 293 Q 837 335 781 310 Q 741 301 687 287 L 631 275 Q 528 254 407 231 Q 386 227 403 211 Q 418 198 436 194 Q 458 190 473 196 Q 543 218 622 231 L 677 240 Z" class="stroke9"/>
    <path d="M 622 231 Q 591 120 462 41 Q 383 1 382 -2 Q 378 -8 393 -11 Q 408 -12 461 5 Q 498 15 555 50 Q 636 99 677 239 Q 676 240 677 240 L 687 287 Q 708 452 713 465 Q 717 477 709 485 Q 690 501 654 516 Q 632 526 615 520 Q 596 513 611 495 Q 663 441 631 275 L 622 231 Z" class="stroke10"/>
    <path d="M 704 140 Q 758 88 821 12 Q 837 -9 852 -14 Q 861 -15 869 -5 Q 882 8 871 53 Q 862 104 707 172 Q 697 178 695 165 Q 694 152 704 140 Z" class="stroke11"/>
    <text x="268" y="775" style="transform-origin:268px 775px; transform:scale(1,-1);">1</text>
    <text x="382" y="657" style="transform-origin:382px 657px; transform:scale(1,-1);">2</text>
    <text x="119" y="145" style="transform-origin:119px 145px; transform:scale(1,-1);">3</text>
    <text x="497" y="687" style="transform-origin:497px 687px; transform:scale(1,-1);">4</text>
    <text x="611" y="843" style="transform-origin:611px 843px; transform:scale(1,-1);">5</text>
    <text x="427" y="528" style="transform-origin:427px 528px; transform:scale(1,-1);">6</text>
    <text x="497" y="481" style="transform-origin:497px 481px; transform:scale(1,-1);">7</text>
    <text x="465" y="375" style="transform-origin:465px 375px; transform:scale(1,-1);">8</text>
    <text x="405" y="221" style="transform-origin:405px 221px; transform:scale(1,-1);">9</text>
    <text x="617" y="507" style="transform-origin:617px 507px; transform:scale(1,-1);">10</text>
    <text x="706" y="160" style="transform-origin:706px 160px; transform:scale(1,-1);">11</text></g>
</svg>