<svg version="1.1" viewBox="0 0 1024 1024" xmlns="http://www.w3.org/2000/svg">
  <g stroke="lightgray" stroke-dasharray="1,1" stroke-width="1" transform="scale(4, 4)">
    <line x1="0" y1="0" x2="256" y2="256"/>
    <line x1="256" y1="0" x2="0" y2="256"/>
    <line x1="128" y1="0" x2="128" y2="256"/>
    <line x1="0" y1="128" x2="256" y2="128"/>
  </g>
  <g transform="scale(1, -1) translate(0, -900)">
    <style type="text/css">
        .stroke1 {fill: #BF0909;}
        .stroke2 {fill: #BFBF09;}
        .stroke3 {fill: #09BF09;}
        .stroke4 {fill: #09BFBF;}
        .stroke5 {fill: #0909BF;}
        .stroke6 {fill: #BF09BF;}
        .stroke7 {fill: #42005e;}
        .stroke8 {fill: #ff3333;}
        .stroke9 {fill: #BFBFBF;}
        .stroke10 {fill: #00a53f;}
        .stroke11 {fill: #fff000;}
        .stroke12 {fill: #6600a5;}
        .stroke13 {fill: #0053a5;}
        .stroke14 {fill: #62c22b;}
        .stroke15 {fill: #BF09BF;}
        .stroke16 {fill: #BF0909;}
        .stroke17 {fill: #BFBF09;}
        .stroke18 {fill: #09BF09;}
        .stroke19 {fill: #09BFBF;}
        .stroke20 {fill: #0909BF;}
        text {
            font-family: Helvetica;
            font-size: 50px;
            fill: #FFFFFF;
            paint-order: stroke;
            stroke: #000000;
            stroke-width: 4px;
            stroke-linecap: butt;
            stroke-linejoin: miter;
            font-weight: 800;
        }
    </style>

    <path d="M 304 474 Q 255 475 216 475 Q 179 475 198 497 Q 267 612 333 699 Q 348 717 345 724 Q 342 740 302 771 Q 286 786 266 781 Q 254 778 261 762 Q 279 720 190 557 Q 171 520 131 484 Q 112 471 113 457 Q 117 438 132 419 Q 142 409 156 415 Q 183 430 272 445 Q 278 446 285 446 C 315 449 334 473 304 474 Z" class="stroke1"/>
    <path d="M 285 446 Q 200 325 179 313 Q 166 303 168 290 Q 169 277 196 258 Q 208 246 222 259 Q 285 304 374 335 Q 393 341 395 349 Q 398 359 378 355 Q 327 346 265 328 Q 235 316 254 342 Q 290 394 372 498 Q 399 535 423 558 Q 435 568 428 578 Q 418 596 384 614 Q 368 623 359 619 Q 349 616 352 601 Q 355 559 304 474 L 285 446 Z" class="stroke2"/>
    <path d="M 112 135 Q 99 132 98 122 Q 98 109 108 101 Q 133 88 168 74 Q 178 73 189 82 Q 210 103 366 203 Q 388 216 402 231 Q 414 240 413 249 Q 407 253 395 249 Q 158 138 112 135 Z" class="stroke3"/>
    <path d="M 502 692 Q 490 617 438 539 Q 417 517 446 491 Q 446 490 449 488 Q 477 463 515 416 Q 528 395 539 398 Q 554 398 561 416 Q 570 440 562 455 Q 556 479 478 508 Q 451 521 499 588 Q 505 598 513 608 Q 550 660 566 674 Q 576 678 578 686 Q 582 702 557 725 Q 538 744 518 749 Q 499 750 494 744 Q 491 740 497 730 Q 507 717 502 692 Z" class="stroke4"/>
    <path d="M 641 725 Q 628 644 579 574 Q 560 553 595 517 Q 619 492 653 446 Q 663 427 675 428 Q 688 427 697 444 Q 706 466 700 481 Q 697 502 616 542 Q 589 555 646 636 Q 653 660 693 699 Q 697 706 702 709 Q 733 724 693 757 Q 674 776 656 779 Q 638 780 633 775 Q 630 771 636 762 Q 646 749 641 725 Z" class="stroke5"/>
    <path d="M 776 705 Q 757 648 720 596 Q 710 583 714 571 Q 715 559 734 548 Q 783 511 826 468 Q 842 450 857 451 Q 870 452 873 476 Q 874 501 861 517 Q 851 536 782 557 Q 763 561 754 574 Q 748 584 761 598 Q 780 620 816 668 Q 835 693 851 705 Q 867 714 860 733 Q 845 770 820 783 Q 805 793 793 790 Q 781 787 787 768 Q 794 743 776 705 Z" class="stroke6"/>
    <path d="M 474 345 Q 453 358 433 364 Q 426 367 421 362 Q 414 358 422 346 Q 458 282 463 114 Q 463 57 495 30 Q 496 29 499 27 Q 515 21 518 50 Q 518 57 518 66 L 514 99 Q 499 195 498 310 C 498 331 498 331 474 345 Z" class="stroke7"/>
    <path d="M 743 88 Q 755 63 776 21 Q 785 2 795 4 Q 811 7 820 33 Q 841 75 856 215 Q 862 300 888 333 Q 904 352 893 365 Q 871 387 825 407 Q 804 419 730 390 Q 625 360 474 345 C 444 342 469 304 498 310 Q 499 310 608 331 L 650 338 Q 776 365 792 351 Q 814 309 785 134 Q 784 118 777 116 Q 776 115 770 116 C 748 96 742 90 743 88 Z" class="stroke8"/>
    <path d="M 665 212 Q 708 221 747 225 Q 769 229 761 241 Q 751 254 727 259 Q 705 263 667 252 L 618 239 Q 575 229 539 220 Q 523 217 542 202 Q 552 195 573 198 Q 595 202 619 205 L 665 212 Z" class="stroke9"/>
    <path d="M 661 121 Q 662 170 665 212 L 667 252 Q 673 316 668 323 Q 659 332 650 338 C 626 356 597 359 608 331 Q 614 325 618 239 L 619 205 Q 619 168 620 113 C 621 83 660 91 661 121 Z" class="stroke10"/>
    <path d="M 518 66 Q 528 65 539 66 Q 606 79 743 88 C 773 90 793 97 770 116 Q 763 122 754 128 Q 739 137 661 121 L 620 113 Q 562 106 514 99 C 484 95 488 68 518 66 Z" class="stroke11"/>
    <text x="269" y="770" style="transform-origin:269px 770px; transform:scale(1,-1);">1</text>
    <text x="364" y="607" style="transform-origin:364px 607px; transform:scale(1,-1);">2</text>
    <text x="113" y="120" style="transform-origin:113px 120px; transform:scale(1,-1);">3</text>
    <text x="502" y="738" style="transform-origin:502px 738px; transform:scale(1,-1);">4</text>
    <text x="640" y="770" style="transform-origin:640px 770px; transform:scale(1,-1);">5</text>
    <text x="798" y="777" style="transform-origin:798px 777px; transform:scale(1,-1);">6</text>
    <text x="428" y="354" style="transform-origin:428px 354px; transform:scale(1,-1);">7</text>
    <text x="483" y="343" style="transform-origin:483px 343px; transform:scale(1,-1);">8</text>
    <text x="540" y="211" style="transform-origin:540px 211px; transform:scale(1,-1);">9</text>
    <text x="615" y="332" style="transform-origin:615px 332px; transform:scale(1,-1);">10</text>
    <text x="523" y="72" style="transform-origin:523px 72px; transform:scale(1,-1);">11</text></g>
</svg>