<svg version="1.1" viewBox="0 0 1024 1024" xmlns="http://www.w3.org/2000/svg">
  <g stroke="lightgray" stroke-dasharray="1,1" stroke-width="1" transform="scale(4, 4)">
    <line x1="0" y1="0" x2="256" y2="256"/>
    <line x1="256" y1="0" x2="0" y2="256"/>
    <line x1="128" y1="0" x2="128" y2="256"/>
    <line x1="0" y1="128" x2="256" y2="128"/>
  </g>
  <g transform="scale(1, -1) translate(0, -900)">
    <style type="text/css">
        .stroke1 {fill: #BF0909;}
        .stroke2 {fill: #BFBF09;}
        .stroke3 {fill: #09BF09;}
        .stroke4 {fill: #09BFBF;}
        .stroke5 {fill: #0909BF;}
        .stroke6 {fill: #BF09BF;}
        .stroke7 {fill: #42005e;}
        .stroke8 {fill: #ff3333;}
        .stroke9 {fill: #BFBFBF;}
        .stroke10 {fill: #00a53f;}
        .stroke11 {fill: #fff000;}
        .stroke12 {fill: #6600a5;}
        .stroke13 {fill: #0053a5;}
        .stroke14 {fill: #62c22b;}
        .stroke15 {fill: #BF09BF;}
        .stroke16 {fill: #BF0909;}
        .stroke17 {fill: #BFBF09;}
        .stroke18 {fill: #09BF09;}
        .stroke19 {fill: #09BFBF;}
        .stroke20 {fill: #0909BF;}
        text {
            font-family: Helvetica;
            font-size: 50px;
            fill: #FFFFFF;
            paint-order: stroke;
            stroke: #000000;
            stroke-width: 4px;
            stroke-linecap: butt;
            stroke-linejoin: miter;
            font-weight: 800;
        }
    </style>

    <path d="M 280 543 Q 237 544 199 543 Q 165 542 182 563 Q 243 669 301 747 Q 314 763 312 771 Q 309 784 271 814 Q 255 827 238 823 Q 228 819 233 805 Q 248 771 163 599 Q 147 575 120 550 Q 104 535 105 524 Q 109 506 123 489 Q 133 479 145 486 Q 170 499 254 517 Q 258 518 262 517 C 292 520 310 542 280 543 Z" class="stroke1"/>
    <path d="M 262 517 Q 181 403 163 393 Q 150 383 153 370 Q 154 357 181 338 Q 191 326 206 339 Q 249 375 342 411 Q 361 417 363 425 Q 366 435 346 431 Q 303 424 249 409 Q 221 397 238 422 Q 271 470 348 566 Q 375 603 399 626 Q 411 636 404 646 Q 394 664 360 682 Q 344 691 335 687 Q 325 684 328 669 Q 331 629 280 543 L 262 517 Z" class="stroke2"/>
    <path d="M 78 194 Q 68 190 68 181 Q 69 168 79 164 Q 103 154 136 145 Q 146 144 154 155 Q 179 188 302 282 Q 320 295 331 311 Q 341 321 340 329 Q 333 332 323 327 Q 125 207 78 194 Z" class="stroke3"/>
    <path d="M 519 744 Q 520 744 523 743 Q 566 737 789 786 Q 798 790 802 792 Q 809 799 806 806 Q 800 816 776 823 Q 752 829 652 799 Q 556 781 500 776 Q 497 776 495 774 C 466 767 489 749 519 744 Z" class="stroke4"/>
    <path d="M 493 579 Q 496 601 499 623 Q 508 707 515 731 Q 519 738 519 744 C 523 757 521 758 495 774 Q 459 799 442 793 Q 430 787 436 774 Q 458 744 451 658 Q 450 655 450 649 Q 438 480 390 343 Q 348 235 263 109 Q 259 103 256 97 Q 253 87 263 89 Q 296 95 375 215 Q 391 243 409 276 Q 469 408 492 568 L 493 579 Z" class="stroke5"/>
    <path d="M 557 678 Q 529 672 550 660 Q 580 645 664 664 Q 689 670 717 677 Q 736 681 740 685 Q 747 692 743 699 Q 736 708 713 713 Q 688 716 665 705 Q 620 687 557 678 Z" class="stroke6"/>
    <path d="M 642 566 Q 694 579 800 593 Q 810 592 818 604 Q 818 614 798 624 Q 764 642 679 614 Q 670 613 662 610 Q 598 595 503 582 Q 496 581 493 579 C 482 576 482 576 492 568 Q 496 564 510 555 C 531 541 531 541 559 548 Q 575 552 598 557 L 642 566 Z" class="stroke7"/>
    <path d="M 510 555 Q 538 498 527 440 Q 523 416 513 402 Q 503 386 510 367 Q 520 342 534 332 Q 543 326 552 342 Q 573 372 644 449 Q 657 461 658 467 Q 659 477 643 468 Q 571 432 570 431 Q 564 435 564 449 Q 568 504 572 518 Q 576 534 565 543 Q 562 546 559 548 C 536 567 497 582 510 555 Z" class="stroke8"/>
    <path d="M 762 472 Q 817 499 849 508 Q 864 509 862 519 Q 859 532 846 550 Q 833 566 816 571 Q 804 572 802 557 Q 803 544 742 486 C 720 465 735 459 762 472 Z" class="stroke9"/>
    <path d="M 742 486 Q 699 517 642 566 C 619 586 571 570 598 557 Q 622 547 640 527 Q 730 437 800 377 Q 813 365 831 368 Q 895 383 920 392 Q 930 396 934 401 Q 935 407 929 408 Q 827 435 762 472 L 742 486 Z" class="stroke10"/>
    <path d="M 740 277 Q 794 281 862 281 Q 910 278 919 289 Q 923 299 909 311 Q 858 351 793 330 Q 771 327 745 320 L 687 310 Q 671 309 655 306 Q 558 291 443 276 Q 424 275 438 259 Q 451 246 467 242 Q 486 238 500 241 Q 590 268 689 273 L 740 277 Z" class="stroke11"/>
    <path d="M 655 58 Q 622 65 590 71 Q 578 74 579 66 Q 580 59 590 52 Q 660 -9 686 -46 Q 701 -62 716 -48 Q 750 -17 749 57 Q 740 147 739 272 Q 739 275 740 277 L 745 320 Q 746 330 751 339 Q 760 358 743 371 Q 718 393 687 402 Q 669 409 661 401 Q 655 394 666 379 Q 685 348 687 310 L 689 273 Q 695 75 677 61 Q 668 54 655 58 Z" class="stroke12"/>
    <path d="M 528 175 Q 543 159 558 139 Q 568 126 583 126 Q 592 126 597 137 Q 601 149 597 175 Q 590 200 527 216 Q 514 220 508 219 Q 504 216 504 204 Q 505 194 528 175 Z" class="stroke13"/>
    <text x="243" y="812" style="transform-origin:243px 812px; transform:scale(1,-1);">1</text>
    <text x="340" y="675" style="transform-origin:340px 675px; transform:scale(1,-1);">2</text>
    <text x="82" y="181" style="transform-origin:82px 181px; transform:scale(1,-1);">3</text>
    <text x="500" y="770" style="transform-origin:500px 770px; transform:scale(1,-1);">4</text>
    <text x="447" y="781" style="transform-origin:447px 781px; transform:scale(1,-1);">5</text>
    <text x="551" y="670" style="transform-origin:551px 670px; transform:scale(1,-1);">6</text>
    <text x="500" y="573" style="transform-origin:500px 573px; transform:scale(1,-1);">7</text>
    <text x="515" y="549" style="transform-origin:515px 549px; transform:scale(1,-1);">8</text>
    <text x="852" y="518" style="transform-origin:852px 518px; transform:scale(1,-1);">9</text>
    <text x="606" y="558" style="transform-origin:606px 558px; transform:scale(1,-1);">10</text>
    <text x="440" y="268" style="transform-origin:440px 268px; transform:scale(1,-1);">11</text>
    <text x="670" y="395" style="transform-origin:670px 395px; transform:scale(1,-1);">12</text>
    <text x="512" y="210" style="transform-origin:512px 210px; transform:scale(1,-1);">13</text></g>
</svg>