<svg version="1.1" viewBox="0 0 1024 1024" xmlns="http://www.w3.org/2000/svg">
  <g stroke="lightgray" stroke-dasharray="1,1" stroke-width="1" transform="scale(4, 4)">
    <line x1="0" y1="0" x2="256" y2="256"/>
    <line x1="256" y1="0" x2="0" y2="256"/>
    <line x1="128" y1="0" x2="128" y2="256"/>
    <line x1="0" y1="128" x2="256" y2="128"/>
  </g>
  <g transform="scale(1, -1) translate(0, -900)">
    <style type="text/css">
        .stroke1 {fill: #BF0909;}
        .stroke2 {fill: #BFBF09;}
        .stroke3 {fill: #09BF09;}
        .stroke4 {fill: #09BFBF;}
        .stroke5 {fill: #0909BF;}
        .stroke6 {fill: #BF09BF;}
        .stroke7 {fill: #42005e;}
        .stroke8 {fill: #ff3333;}
        .stroke9 {fill: #BFBFBF;}
        .stroke10 {fill: #00a53f;}
        .stroke11 {fill: #fff000;}
        .stroke12 {fill: #6600a5;}
        .stroke13 {fill: #0053a5;}
        .stroke14 {fill: #62c22b;}
        .stroke15 {fill: #BF09BF;}
        .stroke16 {fill: #BF0909;}
        .stroke17 {fill: #BFBF09;}
        .stroke18 {fill: #09BF09;}
        .stroke19 {fill: #09BFBF;}
        .stroke20 {fill: #0909BF;}
        text {
            font-family: Helvetica;
            font-size: 50px;
            fill: #FFFFFF;
            paint-order: stroke;
            stroke: #000000;
            stroke-width: 4px;
            stroke-linecap: butt;
            stroke-linejoin: miter;
            font-weight: 800;
        }
    </style>

    <path d="M 300 475 Q 254 476 217 475 Q 181 474 200 497 Q 266 615 330 705 Q 343 723 341 730 Q 338 745 298 774 Q 282 787 263 783 Q 253 780 259 765 Q 277 723 193 558 Q 175 521 135 483 Q 117 468 119 456 Q 123 437 138 420 Q 148 410 160 417 Q 187 430 275 449 Q 279 450 286 450 C 316 454 330 474 300 475 Z" class="stroke1"/>
    <path d="M 286 450 Q 195 311 170 296 Q 157 287 160 273 Q 163 260 189 242 Q 199 230 214 243 Q 271 286 370 323 Q 389 329 391 337 Q 394 347 374 343 Q 322 333 257 313 Q 226 300 245 327 Q 359 496 408 542 Q 420 552 413 562 Q 401 581 368 598 Q 352 605 343 603 Q 333 599 336 584 Q 337 551 300 475 L 286 450 Z" class="stroke2"/>
    <path d="M 108 113 Q 95 110 95 100 Q 94 87 104 81 Q 128 68 161 55 Q 171 54 182 62 Q 278 131 374 199 Q 386 208 385 216 Q 379 220 368 217 Q 148 117 108 113 Z" class="stroke3"/>
    <path d="M 696 710 Q 798 728 806 734 Q 813 741 810 749 Q 804 759 778 768 Q 757 774 644 744 Q 551 726 478 721 Q 444 717 467 701 Q 497 682 539 684 L 574 690 Q 611 697 654 703 L 696 710 Z" class="stroke4"/>
    <path d="M 539 684 Q 552 657 553 633 Q 554 611 554 412 C 554 382 590 388 591 418 Q 598 635 601 647 Q 605 662 599 670 Q 586 682 574 690 C 550 707 527 711 539 684 Z" class="stroke5"/>
    <path d="M 700 434 Q 701 477 704 517 L 705 539 Q 709 657 713 672 Q 719 690 696 710 C 674 731 646 732 654 703 Q 663 676 663 589 Q 663 532 662 428 C 662 398 699 404 700 434 Z" class="stroke6"/>
    <path d="M 455 536 Q 471 512 487 485 Q 494 472 507 470 Q 514 469 521 477 Q 528 487 527 511 Q 527 527 506 545 Q 455 581 444 578 Q 440 577 438 566 Q 439 557 455 536 Z" class="stroke7"/>
    <path d="M 704 517 Q 744 536 768 549 Q 837 586 845 589 Q 866 596 857 614 Q 847 630 824 645 Q 805 660 792 658 Q 780 657 783 645 Q 784 621 740 574 Q 722 558 705 539 C 685 517 677 504 704 517 Z" class="stroke8"/>
    <path d="M 554 412 Q 481 405 403 393 Q 384 390 398 375 Q 411 362 428 357 Q 447 353 463 357 Q 628 403 916 403 Q 935 403 939 411 Q 943 421 929 435 Q 878 474 812 455 Q 764 446 700 434 L 662 428 Q 655 428 647 426 Q 619 423 591 418 L 554 412 Z" class="stroke9"/>
    <path d="M 527 291 Q 511 303 492 309 Q 485 310 479 303 Q 476 299 482 289 Q 512 226 486 93 Q 473 80 481 46 Q 488 18 499 7 Q 509 -5 517 7 Q 526 17 530 39 L 536 69 Q 537 82 538 96 Q 538 124 539 152 L 540 176 Q 541 245 544 263 C 546 278 546 278 527 291 Z" class="stroke10"/>
    <path d="M 686 50 Q 717 13 738 -21 Q 747 -37 757 -37 Q 772 -36 785 -5 Q 801 29 797 71 Q 790 129 782 238 Q 781 266 794 286 Q 803 296 794 306 Q 778 322 730 343 Q 714 350 701 342 Q 638 312 527 291 C 498 285 515 256 544 263 Q 706 300 716 296 Q 717 296 719 294 Q 732 279 733 93 Q 732 81 732 73 Q 731 66 726 62 C 716 34 667 73 686 50 Z" class="stroke11"/>
    <path d="M 539 152 Q 542 151 553 152 Q 626 165 680 173 Q 702 177 693 189 Q 683 202 659 206 Q 625 210 540 176 C 512 165 509 155 539 152 Z" class="stroke12"/>
    <path d="M 530 39 Q 540 36 552 39 Q 595 46 686 50 C 716 51 730 52 726 62 Q 726 71 700 88 Q 685 97 656 91 Q 590 76 536 69 C 506 65 501 45 530 39 Z" class="stroke13"/>
    <text x="267" y="773" style="transform-origin:267px 773px; transform:scale(1,-1);">1</text>
    <text x="348" y="591" style="transform-origin:348px 591px; transform:scale(1,-1);">2</text>
    <text x="109" y="99" style="transform-origin:109px 99px; transform:scale(1,-1);">3</text>
    <text x="470" y="712" style="transform-origin:470px 712px; transform:scale(1,-1);">4</text>
    <text x="546" y="679" style="transform-origin:546px 679px; transform:scale(1,-1);">5</text>
    <text x="662" y="701" style="transform-origin:662px 701px; transform:scale(1,-1);">6</text>
    <text x="446" y="569" style="transform-origin:446px 569px; transform:scale(1,-1);">7</text>
    <text x="796" y="646" style="transform-origin:796px 646px; transform:scale(1,-1);">8</text>
    <text x="401" y="384" style="transform-origin:401px 384px; transform:scale(1,-1);">9</text>
    <text x="489" y="298" style="transform-origin:489px 298px; transform:scale(1,-1);">10</text>
    <text x="537" y="290" style="transform-origin:537px 290px; transform:scale(1,-1);">11</text>
    <text x="546" y="158" style="transform-origin:546px 158px; transform:scale(1,-1);">12</text>
    <text x="536" y="46" style="transform-origin:536px 46px; transform:scale(1,-1);">13</text></g>
</svg>