<svg version="1.1" viewBox="0 0 1024 1024" xmlns="http://www.w3.org/2000/svg">
  <g stroke="lightgray" stroke-dasharray="1,1" stroke-width="1" transform="scale(4, 4)">
    <line x1="0" y1="0" x2="256" y2="256"/>
    <line x1="256" y1="0" x2="0" y2="256"/>
    <line x1="128" y1="0" x2="128" y2="256"/>
    <line x1="0" y1="128" x2="256" y2="128"/>
  </g>
  <g transform="scale(1, -1) translate(0, -900)">
    <style type="text/css">
        .stroke1 {fill: #BF0909;}
        .stroke2 {fill: #BFBF09;}
        .stroke3 {fill: #09BF09;}
        .stroke4 {fill: #09BFBF;}
        .stroke5 {fill: #0909BF;}
        .stroke6 {fill: #BF09BF;}
        .stroke7 {fill: #42005e;}
        .stroke8 {fill: #ff3333;}
        .stroke9 {fill: #BFBFBF;}
        .stroke10 {fill: #00a53f;}
        .stroke11 {fill: #fff000;}
        .stroke12 {fill: #6600a5;}
        .stroke13 {fill: #0053a5;}
        .stroke14 {fill: #62c22b;}
        .stroke15 {fill: #BF09BF;}
        .stroke16 {fill: #BF0909;}
        .stroke17 {fill: #BFBF09;}
        .stroke18 {fill: #09BF09;}
        .stroke19 {fill: #09BFBF;}
        .stroke20 {fill: #0909BF;}
        text {
            font-family: Helvetica;
            font-size: 50px;
            fill: #FFFFFF;
            paint-order: stroke;
            stroke: #000000;
            stroke-width: 4px;
            stroke-linecap: butt;
            stroke-linejoin: miter;
            font-weight: 800;
        }
    </style>

    <path d="M 238 748 Q 223 747 221 742 Q 218 738 234 728 Q 261 718 292 724 Q 385 751 405 744 Q 418 738 417 701 Q 410 560 402 531 Q 398 515 405 500 Q 412 487 423 489 Q 435 493 440 507 Q 453 532 462 648 Q 471 697 501 730 Q 517 746 500 759 Q 481 772 432 791 Q 419 797 321 770 Q 306 767 294 762 Q 260 752 238 748 Z" class="stroke1"/>
    <path d="M 290 658 Q 333 622 350 623 Q 359 624 361 636 Q 364 649 353 672 Q 343 693 281 696 Q 268 697 264 695 Q 260 691 262 681 Q 266 672 290 658 Z" class="stroke2"/>
    <path d="M 191 518 Q 179 514 180 505 Q 181 493 191 488 Q 215 478 248 468 Q 258 468 266 478 Q 281 499 357 567 Q 369 577 375 587 Q 385 597 384 604 Q 378 608 367 603 Q 225 525 191 518 Z" class="stroke3"/>
    <path d="M 708 640 Q 693 567 686 546 Q 679 528 685 511 Q 691 495 704 497 Q 717 498 725 514 Q 741 539 766 660 Q 782 712 818 744 Q 837 760 821 776 Q 802 792 751 819 Q 736 828 682 813 Q 639 807 603 797 Q 566 788 544 785 Q 528 785 525 780 Q 521 776 538 765 Q 563 753 604 758 Q 691 782 717 774 Q 730 767 724 726 Q 717 689 711 657 L 708 640 Z" class="stroke4"/>
    <path d="M 540 713 Q 591 659 611 660 Q 624 660 628 676 Q 628 688 618 705 Q 599 729 543 736 Q 534 737 534 727 Q 534 720 540 713 Z" class="stroke5"/>
    <path d="M 711 657 Q 548 615 541 613 Q 538 614 536 614 Q 527 614 525 604 Q 524 594 533 589 Q 558 573 571 568 Q 580 565 614 583 Q 693 640 708 640 C 737 647 740 664 711 657 Z" class="stroke6"/>
    <path d="M 328 355 Q 391 437 402 445 Q 409 449 409 459 Q 406 483 368 501 Q 349 508 338 508 Q 331 507 331 495 Q 334 414 213 291 Q 81 182 62 167 Q 55 163 63 159 Q 144 171 261 280 Q 264 284 268 287 Q 281 302 299 321 L 328 355 Z" class="stroke7"/>
    <path d="M 299 321 Q 330 252 295 77 Q 274 5 316 -42 L 317 -44 Q 335 -60 347 -33 Q 359 1 360 39 L 361 67 Q 362 238 369 276 Q 376 303 367 314 Q 348 335 335 349 Q 331 353 328 355 C 306 375 288 349 299 321 Z" class="stroke8"/>
    <path d="M 503 538 Q 551 475 573 474 Q 586 473 593 490 Q 594 502 586 522 Q 577 537 556 545 Q 522 561 508 563 Q 499 564 498 554 Q 497 547 503 538 Z" class="stroke9"/>
    <path d="M 600 414 Q 750 445 754 448 Q 761 455 758 462 Q 752 472 728 479 Q 703 485 608 456 Q 476 435 444 432 Q 413 428 435 412 Q 465 396 540 404 Q 543 405 549 405 L 600 414 Z" class="stroke10"/>
    <path d="M 617 295 Q 656 304 697 310 Q 733 317 738 322 Q 747 329 743 337 Q 736 347 710 355 Q 680 361 620 340 L 561 326 Q 515 319 465 314 Q 431 310 455 293 Q 485 274 561 285 L 617 295 Z" class="stroke11"/>
    <path d="M 612 175 Q 655 184 702 190 Q 739 197 746 202 Q 753 209 750 217 Q 744 227 718 236 Q 688 243 614 219 L 561 207 Q 515 200 462 197 Q 428 193 451 177 Q 490 153 542 164 Q 549 165 561 167 L 612 175 Z" class="stroke12"/>
    <path d="M 609 99 Q 610 139 612 175 L 614 219 Q 615 259 617 295 L 620 340 Q 623 391 621 396 Q 611 406 600 414 C 576 432 536 432 549 405 Q 561 387 561 326 L 561 285 Q 561 254 561 207 L 561 167 Q 562 133 562 92 C 562 62 608 69 609 99 Z" class="stroke13"/>
    <path d="M 360 39 Q 390 18 423 26 Q 558 59 833 58 Q 854 58 859 67 Q 865 79 848 93 Q 788 138 722 119 Q 674 112 609 99 L 562 92 Q 468 82 361 67 C 331 63 334 54 360 39 Z" class="stroke14"/>
    <text x="226" y="741" style="transform-origin:226px 741px; transform:scale(1,-1);">1</text>
    <text x="269" y="687" style="transform-origin:269px 687px; transform:scale(1,-1);">2</text>
    <text x="193" y="506" style="transform-origin:193px 506px; transform:scale(1,-1);">3</text>
    <text x="530" y="778" style="transform-origin:530px 778px; transform:scale(1,-1);">4</text>
    <text x="546" y="724" style="transform-origin:546px 724px; transform:scale(1,-1);">5</text>
    <text x="536" y="603" style="transform-origin:536px 603px; transform:scale(1,-1);">6</text>
    <text x="343" y="497" style="transform-origin:343px 497px; transform:scale(1,-1);">7</text>
    <text x="327" y="346" style="transform-origin:327px 346px; transform:scale(1,-1);">8</text>
    <text x="509" y="551" style="transform-origin:509px 551px; transform:scale(1,-1);">9</text>
    <text x="437" y="423" style="transform-origin:437px 423px; transform:scale(1,-1);">10</text>
    <text x="457" y="305" style="transform-origin:457px 305px; transform:scale(1,-1);">11</text>
    <text x="454" y="188" style="transform-origin:454px 188px; transform:scale(1,-1);">12</text>
    <text x="556" y="403" style="transform-origin:556px 403px; transform:scale(1,-1);">13</text>
    <text x="370" y="60" style="transform-origin:370px 60px; transform:scale(1,-1);">14</text></g>
</svg>