<svg version="1.1" viewBox="0 0 1024 1024" xmlns="http://www.w3.org/2000/svg">
  <g stroke="lightgray" stroke-dasharray="1,1" stroke-width="1" transform="scale(4, 4)">
    <line x1="0" y1="0" x2="256" y2="256"/>
    <line x1="256" y1="0" x2="0" y2="256"/>
    <line x1="128" y1="0" x2="128" y2="256"/>
    <line x1="0" y1="128" x2="256" y2="128"/>
  </g>
  <g transform="scale(1, -1) translate(0, -900)">
    <style type="text/css">
        .stroke1 {fill: #BF0909;}
        .stroke2 {fill: #BFBF09;}
        .stroke3 {fill: #09BF09;}
        .stroke4 {fill: #09BFBF;}
        .stroke5 {fill: #0909BF;}
        .stroke6 {fill: #BF09BF;}
        .stroke7 {fill: #42005e;}
        .stroke8 {fill: #ff3333;}
        .stroke9 {fill: #BFBFBF;}
        .stroke10 {fill: #00a53f;}
        .stroke11 {fill: #fff000;}
        .stroke12 {fill: #6600a5;}
        .stroke13 {fill: #0053a5;}
        .stroke14 {fill: #62c22b;}
        .stroke15 {fill: #BF09BF;}
        .stroke16 {fill: #BF0909;}
        .stroke17 {fill: #BFBF09;}
        .stroke18 {fill: #09BF09;}
        .stroke19 {fill: #09BFBF;}
        .stroke20 {fill: #0909BF;}
        text {
            font-family: Helvetica;
            font-size: 50px;
            fill: #FFFFFF;
            paint-order: stroke;
            stroke: #000000;
            stroke-width: 4px;
            stroke-linecap: butt;
            stroke-linejoin: miter;
            font-weight: 800;
        }
    </style>

    <path d="M 520 595 Q 544 748 555 776 Q 558 786 540 801 Q 507 820 485 825 Q 469 829 462 821 Q 455 814 462 799 Q 483 771 481 587 C 481 557 515 565 520 595 Z" class="stroke1"/>
    <path d="M 671 618 Q 590 611 520 595 L 481 587 Q 408 574 348 555 Q 333 554 339 571 Q 346 601 354 632 Q 361 656 353 671 Q 340 690 318 707 Q 308 714 296 714 Q 286 710 291 690 Q 304 644 292 600 Q 282 558 263 542 Q 244 526 250 511 Q 260 495 277 483 Q 286 477 310 489 Q 346 520 553 565 Q 631 581 660 578 C 690 578 701 621 671 618 Z" class="stroke2"/>
    <path d="M 660 578 Q 660 553 665 533 Q 671 514 686 523 Q 716 544 740 629 Q 770 689 778 695 Q 790 708 782 725 Q 766 746 736 773 Q 724 783 711 780 Q 701 777 701 763 Q 711 744 699 678 Q 686 641 671 618 C 660 599 660 599 660 578 Z" class="stroke3"/>
    <path d="M 457 385 Q 673 428 682 435 Q 692 442 687 452 Q 680 464 650 472 Q 629 478 527 448 Q 389 420 323 414 Q 286 408 311 390 Q 347 371 403 375 L 457 385 Z" class="stroke4"/>
    <path d="M 402 263 Q 438 317 473 345 Q 474 348 477 349 Q 493 362 479 374 Q 470 381 457 385 C 429 395 399 405 403 375 Q 409 354 369 257 C 358 229 385 238 402 263 Z" class="stroke5"/>
    <path d="M 195 226 Q 174 241 155 244 Q 149 247 144 240 Q 140 233 145 221 Q 175 173 170 42 Q 167 18 178 -1 Q 191 -20 208 -32 Q 223 -39 224 -29 Q 231 -25 232 -3 Q 235 12 229 61 Q 220 149 221 181 C 221 209 220 209 195 226 Z" class="stroke6"/>
    <path d="M 554 254 Q 642 267 749 271 Q 770 268 778 257 Q 785 248 779 234 Q 769 84 756 63 Q 752 53 736 57 Q 711 61 683 66 Q 650 72 672 48 Q 733 -15 757 -58 Q 767 -73 780 -64 Q 810 -42 830 62 Q 846 200 868 227 Q 886 249 879 259 Q 870 274 815 311 Q 794 327 777 321 Q 744 309 685 301 Q 502 282 402 263 L 369 257 Q 344 254 325 248 Q 250 232 195 226 C 165 222 192 175 221 181 Q 234 181 249 186 Q 280 198 324 209 L 356 218 Q 428 237 506 248 L 554 254 Z" class="stroke7"/>
    <path d="M 324 209 Q 343 169 350 76 Q 350 54 362 37 Q 377 15 383 28 Q 392 43 390 77 Q 389 168 390 186 Q 391 199 386 205 Q 379 212 356 218 C 327 226 315 229 324 209 Z" class="stroke8"/>
    <path d="M 506 248 Q 506 247 508 245 Q 509 241 512 238 Q 518 226 522 92 Q 523 17 535 -1 Q 539 -8 546 -5 Q 553 -2 558 10 Q 574 199 582 218 Q 585 233 573 241 Q 563 248 554 254 C 529 271 492 274 506 248 Z" class="stroke9"/>
    <text x="473" y="811" style="transform-origin:473px 811px; transform:scale(1,-1);">1</text>
    <text x="300" y="704" style="transform-origin:300px 704px; transform:scale(1,-1);">2</text>
    <text x="716" y="766" style="transform-origin:716px 766px; transform:scale(1,-1);">3</text>
    <text x="315" y="403" style="transform-origin:315px 403px; transform:scale(1,-1);">4</text>
    <text x="471" y="362" style="transform-origin:471px 362px; transform:scale(1,-1);">5</text>
    <text x="152" y="234" style="transform-origin:152px 234px; transform:scale(1,-1);">6</text>
    <text x="202" y="222" style="transform-origin:202px 222px; transform:scale(1,-1);">7</text>
    <text x="331" y="206" style="transform-origin:331px 206px; transform:scale(1,-1);">8</text>
    <text x="514" y="244" style="transform-origin:514px 244px; transform:scale(1,-1);">9</text></g>
</svg>