<svg version="1.1" viewBox="0 0 1024 1024" xmlns="http://www.w3.org/2000/svg">
  <g stroke="lightgray" stroke-dasharray="1,1" stroke-width="1" transform="scale(4, 4)">
    <line x1="0" y1="0" x2="256" y2="256"/>
    <line x1="256" y1="0" x2="0" y2="256"/>
    <line x1="128" y1="0" x2="128" y2="256"/>
    <line x1="0" y1="128" x2="256" y2="128"/>
  </g>
  <g transform="scale(1, -1) translate(0, -900)">
    <style type="text/css">
        .stroke1 {fill: #BF0909;}
        .stroke2 {fill: #BFBF09;}
        .stroke3 {fill: #09BF09;}
        .stroke4 {fill: #09BFBF;}
        .stroke5 {fill: #0909BF;}
        .stroke6 {fill: #BF09BF;}
        .stroke7 {fill: #42005e;}
        .stroke8 {fill: #ff3333;}
        .stroke9 {fill: #BFBFBF;}
        .stroke10 {fill: #00a53f;}
        .stroke11 {fill: #fff000;}
        .stroke12 {fill: #6600a5;}
        .stroke13 {fill: #0053a5;}
        .stroke14 {fill: #62c22b;}
        .stroke15 {fill: #BF09BF;}
        .stroke16 {fill: #BF0909;}
        .stroke17 {fill: #BFBF09;}
        .stroke18 {fill: #09BF09;}
        .stroke19 {fill: #09BFBF;}
        .stroke20 {fill: #0909BF;}
        text {
            font-family: Helvetica;
            font-size: 50px;
            fill: #FFFFFF;
            paint-order: stroke;
            stroke: #000000;
            stroke-width: 4px;
            stroke-linecap: butt;
            stroke-linejoin: miter;
            font-weight: 800;
        }
    </style>

    <path d="M 199 387 Q 211 447 213 519 L 214 554 Q 215 569 215 582 Q 215 672 223 695 C 226 708 226 708 200 722 Q 163 746 143 737 Q 133 730 140 717 Q 158 695 164 633 Q 164 426 143 328 Q 140 321 139 311 Q 112 212 44 81 Q 40 74 39 69 Q 38 59 47 62 Q 60 65 93 114 Q 162 202 192 351 L 199 387 Z" class="stroke1"/>
    <path d="M 223 695 Q 256 702 287 712 Q 306 716 311 705 Q 326 666 326 372 Q 323 138 310 118 Q 306 115 246 126 Q 227 133 228 124 Q 274 78 300 44 Q 312 26 327 21 Q 336 17 344 27 Q 383 78 382 124 Q 372 311 373 615 Q 372 670 385 694 Q 397 713 385 723 Q 364 741 330 755 Q 312 762 297 755 Q 260 734 200 722 C 171 715 194 688 223 695 Z" class="stroke2"/>
    <path d="M 213 519 Q 253 525 284 528 Q 306 532 297 545 Q 287 558 263 561 Q 244 562 214 554 C 185 546 183 515 213 519 Z" class="stroke3"/>
    <path d="M 192 351 Q 243 358 282 360 Q 306 364 297 376 Q 287 391 261 395 Q 237 399 199 387 C 170 378 162 347 192 351 Z" class="stroke4"/>
    <path d="M 485 676 Q 466 689 445 696 Q 435 699 428 690 Q 424 683 432 672 Q 456 611 455 551 Q 459 305 418 182 Q 409 154 414 132 Q 423 95 435 81 Q 448 66 458 81 Q 494 118 495 270 Q 495 531 512 638 C 515 658 511 661 485 676 Z" class="stroke5"/>
    <path d="M 512 638 Q 511 639 514 639 Q 620 670 752 692 Q 774 696 785 685 Q 798 678 804 615 Q 823 405 815 167 Q 815 133 802 122 Q 787 110 710 123 Q 692 124 694 115 Q 695 108 710 102 Q 780 59 817 24 Q 839 5 853 8 Q 866 11 877 42 Q 890 90 887 159 Q 865 480 864 599 Q 863 639 875 663 Q 887 685 876 698 Q 866 713 816 737 Q 795 746 729 726 Q 603 695 485 676 C 455 671 483 630 512 638 Z" class="stroke6"/>
    <path d="M 567 544 Q 536 538 558 524 Q 594 505 642 518 Q 685 527 729 536 Q 748 540 752 544 Q 759 551 755 558 Q 748 568 723 573 Q 699 577 628 554 Q 598 548 567 544 Z" class="stroke7"/>
    <path d="M 581 413 Q 571 419 544 424 Q 534 428 530 423 Q 526 419 532 405 Q 553 359 564 284 Q 565 262 579 246 Q 592 227 598 240 Q 602 250 602 267 L 598 299 Q 591 363 589 387 C 587 410 587 410 581 413 Z" class="stroke8"/>
    <path d="M 727 310 Q 740 371 758 389 Q 777 413 757 425 Q 739 435 715 450 Q 699 459 682 449 Q 658 434 581 413 C 552 405 561 377 589 387 Q 592 390 662 404 Q 683 408 688 400 Q 694 396 690 367 Q 686 343 681 316 C 676 286 721 281 727 310 Z" class="stroke9"/>
    <path d="M 602 267 Q 609 267 620 268 Q 657 275 737 280 Q 747 281 748 289 Q 748 296 727 310 L 681 316 Q 678 317 676 316 Q 633 306 598 299 C 569 293 572 266 602 267 Z" class="stroke10"/>
    <text x="151" y="726" style="transform-origin:151px 726px; transform:scale(1,-1);">1</text>
    <text x="209" y="722" style="transform-origin:209px 722px; transform:scale(1,-1);">2</text>
    <text x="220" y="525" style="transform-origin:220px 525px; transform:scale(1,-1);">3</text>
    <text x="200" y="356" style="transform-origin:200px 356px; transform:scale(1,-1);">4</text>
    <text x="438" y="685" style="transform-origin:438px 685px; transform:scale(1,-1);">5</text>
    <text x="493" y="672" style="transform-origin:493px 672px; transform:scale(1,-1);">6</text>
    <text x="560" y="535" style="transform-origin:560px 535px; transform:scale(1,-1);">7</text>
    <text x="537" y="418" style="transform-origin:537px 418px; transform:scale(1,-1);">8</text>
    <text x="588" y="394" style="transform-origin:588px 394px; transform:scale(1,-1);">9</text>
    <text x="606" y="273" style="transform-origin:606px 273px; transform:scale(1,-1);">10</text></g>
</svg>