<svg version="1.1" viewBox="0 0 1024 1024" xmlns="http://www.w3.org/2000/svg">
  <g stroke="lightgray" stroke-dasharray="1,1" stroke-width="1" transform="scale(4, 4)">
    <line x1="0" y1="0" x2="256" y2="256"/>
    <line x1="256" y1="0" x2="0" y2="256"/>
    <line x1="128" y1="0" x2="128" y2="256"/>
    <line x1="0" y1="128" x2="256" y2="128"/>
  </g>
  <g transform="scale(1, -1) translate(0, -900)">
    <style type="text/css">
        .stroke1 {fill: #BF0909;}
        .stroke2 {fill: #BFBF09;}
        .stroke3 {fill: #09BF09;}
        .stroke4 {fill: #09BFBF;}
        .stroke5 {fill: #0909BF;}
        .stroke6 {fill: #BF09BF;}
        .stroke7 {fill: #42005e;}
        .stroke8 {fill: #ff3333;}
        .stroke9 {fill: #BFBFBF;}
        .stroke10 {fill: #00a53f;}
        .stroke11 {fill: #fff000;}
        .stroke12 {fill: #6600a5;}
        .stroke13 {fill: #0053a5;}
        .stroke14 {fill: #62c22b;}
        .stroke15 {fill: #BF09BF;}
        .stroke16 {fill: #BF0909;}
        .stroke17 {fill: #BFBF09;}
        .stroke18 {fill: #09BF09;}
        .stroke19 {fill: #09BFBF;}
        .stroke20 {fill: #0909BF;}
        text {
            font-family: Helvetica;
            font-size: 50px;
            fill: #FFFFFF;
            paint-order: stroke;
            stroke: #000000;
            stroke-width: 4px;
            stroke-linecap: butt;
            stroke-linejoin: miter;
            font-weight: 800;
        }
    </style>

    <path d="M 194 380 Q 200 404 207 491 L 210 527 Q 210 659 218 666 C 222 686 222 686 204 696 Q 189 706 168 714 Q 149 723 137 717 Q 127 710 134 697 Q 155 672 156 634 Q 156 421 139 332 Q 135 316 131 299 Q 103 199 36 74 Q 32 67 31 61 Q 30 51 39 54 Q 54 57 86 106 Q 152 190 187 345 L 194 380 Z" class="stroke1"/>
    <path d="M 218 666 L 285 689 Q 303 698 309 688 Q 328 637 322 268 Q 315 139 308 126 Q 304 120 283 125 Q 259 129 235 135 Q 216 141 216 131 Q 268 85 299 49 Q 312 30 328 25 Q 337 21 346 31 Q 386 82 385 135 Q 373 336 373 622 Q 373 658 384 676 Q 396 695 384 705 Q 362 723 326 737 Q 307 744 292 736 Q 264 717 246 710 Q 230 703 204 696 C 175 687 190 656 218 666 Z" class="stroke2"/>
    <path d="M 207 491 Q 253 503 289 508 Q 311 514 302 525 Q 290 538 266 540 Q 244 541 210 527 C 182 516 178 483 207 491 Z" class="stroke3"/>
    <path d="M 187 345 Q 239 355 280 360 Q 302 364 293 377 Q 283 390 258 393 Q 236 394 198 382 Q 197 381 194 380 C 167 367 158 339 187 345 Z" class="stroke4"/>
    <path d="M 634 663 Q 650 693 666 710 Q 673 720 669 734 Q 663 747 634 767 Q 606 783 588 782 Q 569 779 579 758 Q 594 730 585 704 Q 557 617 509 536 Q 464 458 401 371 Q 391 361 390 354 Q 387 342 401 346 Q 462 364 601 600 Q 610 619 621 638 L 634 663 Z" class="stroke5"/>
    <path d="M 621 638 Q 697 524 795 404 Q 811 385 842 385 Q 945 385 977 390 Q 987 391 988 397 Q 989 401 975 409 Q 822 472 745 549 Q 691 600 634 663 C 614 685 604 663 621 638 Z" class="stroke6"/>
    <path d="M 511 409 Q 477 402 502 386 Q 542 368 609 384 Q 648 393 691 404 Q 713 410 716 413 Q 725 420 720 429 Q 713 439 684 445 Q 654 449 626 436 Q 601 427 575 420 Q 545 413 511 409 Z" class="stroke7"/>
    <path d="M 460 229 Q 482 202 506 170 Q 516 157 530 155 Q 539 154 545 165 Q 552 177 548 204 Q 547 223 520 242 Q 456 278 444 275 Q 440 272 439 261 Q 440 251 460 229 Z" class="stroke8"/>
    <path d="M 547 302 Q 595 226 614 220 Q 626 217 635 233 Q 638 243 633 264 Q 626 283 604 296 Q 571 320 556 326 Q 547 329 545 318 Q 542 311 547 302 Z" class="stroke9"/>
    <path d="M 671 101 Q 695 143 737 233 Q 750 261 773 297 Q 788 310 778 321 Q 768 339 736 357 Q 720 367 703 360 Q 693 356 700 343 Q 715 292 642 118 Q 638 106 636 96 C 629 67 656 75 671 101 Z" class="stroke10"/>
    <path d="M 636 96 Q 633 96 413 70 Q 392 69 407 51 Q 420 38 439 31 Q 460 25 476 30 Q 614 63 837 57 Q 853 57 869 56 Q 890 56 894 64 Q 900 76 884 90 Q 824 132 773 118 Q 730 112 671 101 L 636 96 Z" class="stroke11"/>
    <text x="145" y="706" style="transform-origin:145px 706px; transform:scale(1,-1);">1</text>
    <text x="213" y="694" style="transform-origin:213px 694px; transform:scale(1,-1);">2</text>
    <text x="214" y="496" style="transform-origin:214px 496px; transform:scale(1,-1);">3</text>
    <text x="195" y="349" style="transform-origin:195px 349px; transform:scale(1,-1);">4</text>
    <text x="589" y="768" style="transform-origin:589px 768px; transform:scale(1,-1);">5</text>
    <text x="636" y="654" style="transform-origin:636px 654px; transform:scale(1,-1);">6</text>
    <text x="504" y="398" style="transform-origin:504px 398px; transform:scale(1,-1);">7</text>
    <text x="447" y="266" style="transform-origin:447px 266px; transform:scale(1,-1);">8</text>
    <text x="556" y="315" style="transform-origin:556px 315px; transform:scale(1,-1);">9</text>
    <text x="707" y="351" style="transform-origin:707px 351px; transform:scale(1,-1);">10</text>
    <text x="410" y="60" style="transform-origin:410px 60px; transform:scale(1,-1);">11</text></g>
</svg>