<svg version="1.1" viewBox="0 0 1024 1024" xmlns="http://www.w3.org/2000/svg">
  <g stroke="lightgray" stroke-dasharray="1,1" stroke-width="1" transform="scale(4, 4)">
    <line x1="0" y1="0" x2="256" y2="256"/>
    <line x1="256" y1="0" x2="0" y2="256"/>
    <line x1="128" y1="0" x2="128" y2="256"/>
    <line x1="0" y1="128" x2="256" y2="128"/>
  </g>
  <g transform="scale(1, -1) translate(0, -900)">
    <style type="text/css">
        .stroke1 {fill: #BF0909;}
        .stroke2 {fill: #BFBF09;}
        .stroke3 {fill: #09BF09;}
        .stroke4 {fill: #09BFBF;}
        .stroke5 {fill: #0909BF;}
        .stroke6 {fill: #BF09BF;}
        .stroke7 {fill: #42005e;}
        .stroke8 {fill: #ff3333;}
        .stroke9 {fill: #BFBFBF;}
        .stroke10 {fill: #00a53f;}
        .stroke11 {fill: #fff000;}
        .stroke12 {fill: #6600a5;}
        .stroke13 {fill: #0053a5;}
        .stroke14 {fill: #62c22b;}
        .stroke15 {fill: #BF09BF;}
        .stroke16 {fill: #BF0909;}
        .stroke17 {fill: #BFBF09;}
        .stroke18 {fill: #09BF09;}
        .stroke19 {fill: #09BFBF;}
        .stroke20 {fill: #0909BF;}
        text {
            font-family: Helvetica;
            font-size: 50px;
            fill: #FFFFFF;
            paint-order: stroke;
            stroke: #000000;
            stroke-width: 4px;
            stroke-linecap: butt;
            stroke-linejoin: miter;
            font-weight: 800;
        }
    </style>

    <path d="M 483 718 Q 601 740 738 751 Q 750 750 760 763 Q 761 776 737 788 Q 698 813 611 787 Q 479 762 282 739 Q 251 736 274 717 Q 310 686 340 694 Q 382 703 429 709 L 483 718 Z" class="stroke1"/>
    <path d="M 656 528 Q 610 527 529 515 Q 417 500 369 487 Q 345 483 359 501 Q 375 520 423 568 Q 496 640 511 647 Q 521 654 528 662 Q 534 677 513 696 Q 497 709 483 718 C 458 735 420 738 429 709 Q 435 699 436 680 Q 429 628 303 501 Q 249 471 254 431 Q 254 428 256 424 Q 263 400 277 399 Q 283 400 300 410 Q 390 467 614 497 Q 651 503 676 503 C 706 504 686 529 656 528 Z" class="stroke2"/>
    <path d="M 676 503 Q 715 452 728 447 Q 737 446 745 455 Q 758 467 750 513 Q 744 555 674 592 Q 628 616 603 627 Q 594 633 591 621 Q 590 608 599 595 Q 626 567 656 528 L 676 503 Z" class="stroke3"/>
    <path d="M 530 265 Q 587 275 648 284 Q 705 294 713 301 Q 723 310 719 319 Q 712 332 681 342 Q 648 349 616 339 Q 576 327 534 316 L 474 303 Q 398 291 313 287 Q 273 283 300 263 Q 346 235 404 246 Q 438 252 475 257 L 530 265 Z" class="stroke4"/>
    <path d="M 518 122 Q 524 197 530 265 L 534 316 Q 534 334 551 394 Q 554 404 534 420 Q 498 439 474 443 Q 458 447 450 438 Q 443 431 451 416 Q 470 389 470 370 Q 471 339 474 303 L 475 257 Q 476 191 475 118 C 475 88 516 92 518 122 Z" class="stroke5"/>
    <path d="M 475 118 Q 321 105 144 89 Q 119 88 136 67 Q 172 31 217 40 Q 481 103 884 80 Q 885 81 888 80 Q 912 79 918 89 Q 925 102 906 120 Q 843 169 786 158 Q 683 142 518 122 L 475 118 Z" class="stroke6"/>
    <text x="276" y="729" style="transform-origin:276px 729px; transform:scale(1,-1);">1</text>
    <text x="437" y="705" style="transform-origin:437px 705px; transform:scale(1,-1);">2</text>
    <text x="601" y="616" style="transform-origin:601px 616px; transform:scale(1,-1);">3</text>
    <text x="304" y="277" style="transform-origin:304px 277px; transform:scale(1,-1);">4</text>
    <text x="462" y="429" style="transform-origin:462px 429px; transform:scale(1,-1);">5</text>
    <text x="140" y="78" style="transform-origin:140px 78px; transform:scale(1,-1);">6</text></g>
</svg>