<svg version="1.1" viewBox="0 0 1024 1024" xmlns="http://www.w3.org/2000/svg">
  <g stroke="lightgray" stroke-dasharray="1,1" stroke-width="1" transform="scale(4, 4)">
    <line x1="0" y1="0" x2="256" y2="256"/>
    <line x1="256" y1="0" x2="0" y2="256"/>
    <line x1="128" y1="0" x2="128" y2="256"/>
    <line x1="0" y1="128" x2="256" y2="128"/>
  </g>
  <g transform="scale(1, -1) translate(0, -900)">
    <style type="text/css">
        .stroke1 {fill: #BF0909;}
        .stroke2 {fill: #BFBF09;}
        .stroke3 {fill: #09BF09;}
        .stroke4 {fill: #09BFBF;}
        .stroke5 {fill: #0909BF;}
        .stroke6 {fill: #BF09BF;}
        .stroke7 {fill: #42005e;}
        .stroke8 {fill: #ff3333;}
        .stroke9 {fill: #BFBFBF;}
        .stroke10 {fill: #00a53f;}
        .stroke11 {fill: #fff000;}
        .stroke12 {fill: #6600a5;}
        .stroke13 {fill: #0053a5;}
        .stroke14 {fill: #62c22b;}
        .stroke15 {fill: #BF09BF;}
        .stroke16 {fill: #BF0909;}
        .stroke17 {fill: #BFBF09;}
        .stroke18 {fill: #09BF09;}
        .stroke19 {fill: #09BFBF;}
        .stroke20 {fill: #0909BF;}
        text {
            font-family: Helvetica;
            font-size: 50px;
            fill: #FFFFFF;
            paint-order: stroke;
            stroke: #000000;
            stroke-width: 4px;
            stroke-linecap: butt;
            stroke-linejoin: miter;
            font-weight: 800;
        }
    </style>

    <path d="M 644 665 Q 704 675 831 664 Q 849 661 854 672 Q 860 685 846 701 Q 791 747 685 724 Q 675 723 665 720 L 606 711 Q 518 699 417 687 L 365 682 Q 274 673 170 664 Q 137 661 159 644 Q 207 611 268 623 Q 320 636 375 644 L 421 650 Q 421 651 422 651 Q 503 660 595 663 L 644 665 Z" class="stroke1"/>
    <path d="M 417 687 Q 413 724 410 754 Q 411 775 390 780 Q 348 801 324 791 Q 305 781 321 761 Q 352 725 365 682 L 375 644 Q 391 577 406 560 Q 421 550 425 562 Q 431 580 421 650 L 417 687 Z" class="stroke2"/>
    <path d="M 665 720 Q 675 754 696 789 Q 711 805 699 816 Q 686 834 649 851 Q 630 861 612 851 Q 602 844 610 833 Q 623 802 606 711 L 595 663 Q 577 594 578 576 Q 579 560 596 573 Q 612 588 644 665 L 665 720 Z" class="stroke3"/>
    <path d="M 386 491 Q 364 510 344 520 Q 331 523 322 519 Q 313 515 316 503 Q 337 460 338 425 Q 341 389 341 87 C 341 57 388 61 388 91 Q 388 145 389 194 L 390 224 Q 390 273 392 316 L 392 347 Q 393 384 394 419 Q 394 440 395 454 C 396 482 396 482 386 491 Z" class="stroke4"/>
    <path d="M 654 117 Q 663 424 690 461 Q 703 477 690 496 Q 680 509 625 540 Q 610 552 547 527 Q 445 497 386 491 C 356 487 365 451 395 454 Q 408 453 425 459 Q 584 502 599 489 Q 606 476 596 110 C 595 80 653 87 654 117 Z" class="stroke5"/>
    <path d="M 392 316 Q 396 316 404 317 Q 482 333 539 344 Q 564 350 554 364 Q 541 379 512 382 Q 473 385 392 347 C 365 334 362 314 392 316 Z" class="stroke6"/>
    <path d="M 389 194 L 545 213 Q 570 217 561 231 Q 549 247 521 253 Q 482 259 390 224 C 362 213 359 190 389 194 Z" class="stroke7"/>
    <path d="M 341 87 Q 247 83 145 74 Q 120 73 137 51 Q 153 33 175 26 Q 200 17 220 22 Q 455 73 867 50 Q 891 49 897 59 Q 904 74 885 91 Q 822 145 749 130 Q 706 126 654 117 L 596 110 Q 548 106 493 100 Q 441 96 388 91 L 341 87 Z" class="stroke8"/>
    <text x="162" y="655" style="transform-origin:162px 655px; transform:scale(1,-1);">1</text>
    <text x="331" y="775" style="transform-origin:331px 775px; transform:scale(1,-1);">2</text>
    <text x="618" y="841" style="transform-origin:618px 841px; transform:scale(1,-1);">3</text>
    <text x="327" y="508" style="transform-origin:327px 508px; transform:scale(1,-1);">4</text>
    <text x="392" y="486" style="transform-origin:392px 486px; transform:scale(1,-1);">5</text>
    <text x="397" y="324" style="transform-origin:397px 324px; transform:scale(1,-1);">6</text>
    <text x="396" y="201" style="transform-origin:396px 201px; transform:scale(1,-1);">7</text>
    <text x="141" y="62" style="transform-origin:141px 62px; transform:scale(1,-1);">8</text></g>
</svg>