<svg version="1.1" viewBox="0 0 1024 1024" xmlns="http://www.w3.org/2000/svg">
  <g stroke="lightgray" stroke-dasharray="1,1" stroke-width="1" transform="scale(4, 4)">
    <line x1="0" y1="0" x2="256" y2="256"/>
    <line x1="256" y1="0" x2="0" y2="256"/>
    <line x1="128" y1="0" x2="128" y2="256"/>
    <line x1="0" y1="128" x2="256" y2="128"/>
  </g>
  <g transform="scale(1, -1) translate(0, -900)">
    <style type="text/css">
        .stroke1 {fill: #BF0909;}
        .stroke2 {fill: #BFBF09;}
        .stroke3 {fill: #09BF09;}
        .stroke4 {fill: #09BFBF;}
        .stroke5 {fill: #0909BF;}
        .stroke6 {fill: #BF09BF;}
        .stroke7 {fill: #42005e;}
        .stroke8 {fill: #ff3333;}
        .stroke9 {fill: #BFBFBF;}
        .stroke10 {fill: #00a53f;}
        .stroke11 {fill: #fff000;}
        .stroke12 {fill: #6600a5;}
        .stroke13 {fill: #0053a5;}
        .stroke14 {fill: #62c22b;}
        .stroke15 {fill: #BF09BF;}
        .stroke16 {fill: #BF0909;}
        .stroke17 {fill: #BFBF09;}
        .stroke18 {fill: #09BF09;}
        .stroke19 {fill: #09BFBF;}
        .stroke20 {fill: #0909BF;}
        text {
            font-family: Helvetica;
            font-size: 50px;
            fill: #FFFFFF;
            paint-order: stroke;
            stroke: #000000;
            stroke-width: 4px;
            stroke-linecap: butt;
            stroke-linejoin: miter;
            font-weight: 800;
        }
    </style>

    <path d="M 621 678 Q 699 687 796 677 Q 812 676 818 686 Q 824 698 810 713 Q 752 761 657 735 Q 653 735 649 734 L 594 726 Q 512 716 422 703 L 374 697 Q 298 691 217 683 Q 186 680 207 663 Q 253 633 335 649 Q 359 655 385 658 L 427 664 Q 451 674 579 677 L 621 678 Z" class="stroke1"/>
    <path d="M 422 703 Q 418 734 417 758 Q 418 777 397 782 Q 358 800 335 791 Q 317 781 334 763 Q 361 736 374 697 L 385 658 Q 400 618 411 607 Q 424 597 428 609 Q 434 631 427 664 L 422 703 Z" class="stroke2"/>
    <path d="M 649 734 Q 661 761 677 781 Q 692 794 683 805 Q 673 823 639 841 Q 624 851 607 843 Q 597 839 604 827 Q 613 803 594 726 L 579 677 Q 567 647 567 627 Q 568 614 583 623 Q 590 629 621 678 L 649 734 Z" class="stroke3"/>
    <path d="M 493 602 Q 451 569 318 526 Q 312 519 317 516 Q 339 510 476 542 Q 531 560 581 565 Q 596 564 600 570 Q 604 580 595 591 Q 579 607 541 626 Q 528 635 517 634 Q 510 633 508 622 Q 507 609 493 602 Z" class="stroke4"/>
    <path d="M 286 438 Q 310 413 334 384 Q 344 371 358 370 Q 368 370 373 381 Q 379 393 374 420 Q 365 453 287 480 Q 274 484 268 483 Q 264 480 263 469 Q 266 459 286 438 Z" class="stroke5"/>
    <path d="M 443 476 Q 474 428 498 413 Q 508 409 516 417 Q 522 426 522 438 Q 519 471 456 502 Q 446 508 438 506 Q 434 505 433 496 Q 433 489 443 476 Z" class="stroke6"/>
    <path d="M 648 514 Q 621 477 567 421 Q 557 406 573 408 Q 619 430 645 446 Q 705 485 727 492 Q 748 499 738 517 Q 728 533 703 549 Q 682 564 670 562 Q 657 561 661 548 Q 662 530 648 514 Z" class="stroke7"/>
    <path d="M 459 303 Q 468 319 477 330 Q 487 337 484 347 Q 478 362 441 392 Q 431 402 418 399 Q 405 396 412 379 Q 419 358 399 297 L 386 262 Q 367 217 348 190 Q 338 171 340 158 Q 343 148 361 144 Q 401 135 475 97 L 520 72 Q 578 36 661 -28 Q 688 -49 706 -48 Q 728 -47 728 -27 Q 728 -5 697 42 Q 681 69 557 116 L 506 135 Q 448 157 407 166 Q 386 170 398 190 Q 423 239 440 268 L 459 303 Z" class="stroke8"/>
    <path d="M 619 320 Q 586 356 565 353 Q 555 349 556 338 Q 557 328 557 313 L 556 277 Q 552 228 507 138 Q 506 137 506 135 C 494 109 494 109 475 97 Q 387 39 317 19 Q 227 4 225 0 Q 218 -3 227 -9 Q 231 -12 247 -12 Q 338 -16 408 6 Q 459 19 520 72 L 557 116 Q 590 161 617 241 Q 624 265 631 279 C 640 299 640 299 619 320 Z" class="stroke9"/>
    <path d="M 631 279 Q 719 283 828 279 Q 862 278 891 277 Q 913 276 918 285 Q 924 298 907 313 Q 853 356 812 349 Q 734 336 619 320 L 557 313 Q 506 312 459 303 L 399 297 Q 264 285 114 271 Q 92 270 108 251 Q 123 235 141 229 Q 163 222 181 227 Q 278 251 386 262 L 440 268 Q 492 275 556 277 L 631 279 Z" class="stroke10"/>
    <text x="210" y="674" style="transform-origin:210px 674px; transform:scale(1,-1);">1</text>
    <text x="341" y="777" style="transform-origin:341px 777px; transform:scale(1,-1);">2</text>
    <text x="610" y="834" style="transform-origin:610px 834px; transform:scale(1,-1);">3</text>
    <text x="592" y="576" style="transform-origin:592px 576px; transform:scale(1,-1);">4</text>
    <text x="272" y="474" style="transform-origin:272px 474px; transform:scale(1,-1);">5</text>
    <text x="442" y="498" style="transform-origin:442px 498px; transform:scale(1,-1);">6</text>
    <text x="669" y="553" style="transform-origin:669px 553px; transform:scale(1,-1);">7</text>
    <text x="421" y="387" style="transform-origin:421px 387px; transform:scale(1,-1);">8</text>
    <text x="569" y="340" style="transform-origin:569px 340px; transform:scale(1,-1);">9</text>
    <text x="111" y="261" style="transform-origin:111px 261px; transform:scale(1,-1);">10</text></g>
</svg>