<svg version="1.1" viewBox="0 0 1024 1024" xmlns="http://www.w3.org/2000/svg">
  <g stroke="lightgray" stroke-dasharray="1,1" stroke-width="1" transform="scale(4, 4)">
    <line x1="0" y1="0" x2="256" y2="256"/>
    <line x1="256" y1="0" x2="0" y2="256"/>
    <line x1="128" y1="0" x2="128" y2="256"/>
    <line x1="0" y1="128" x2="256" y2="128"/>
  </g>
  <g transform="scale(1, -1) translate(0, -900)">
    <style type="text/css">
        .stroke1 {fill: #BF0909;}
        .stroke2 {fill: #BFBF09;}
        .stroke3 {fill: #09BF09;}
        .stroke4 {fill: #09BFBF;}
        .stroke5 {fill: #0909BF;}
        .stroke6 {fill: #BF09BF;}
        .stroke7 {fill: #42005e;}
        .stroke8 {fill: #ff3333;}
        .stroke9 {fill: #BFBFBF;}
        .stroke10 {fill: #00a53f;}
        .stroke11 {fill: #fff000;}
        .stroke12 {fill: #6600a5;}
        .stroke13 {fill: #0053a5;}
        .stroke14 {fill: #62c22b;}
        .stroke15 {fill: #BF09BF;}
        .stroke16 {fill: #BF0909;}
        .stroke17 {fill: #BFBF09;}
        .stroke18 {fill: #09BF09;}
        .stroke19 {fill: #09BFBF;}
        .stroke20 {fill: #0909BF;}
        text {
            font-family: Helvetica;
            font-size: 50px;
            fill: #FFFFFF;
            paint-order: stroke;
            stroke: #000000;
            stroke-width: 4px;
            stroke-linecap: butt;
            stroke-linejoin: miter;
            font-weight: 800;
        }
    </style>

    <path d="M 639 686 Q 669 696 807 687 Q 822 686 827 694 Q 831 704 819 719 Q 771 759 678 736 Q 669 736 660 733 L 603 724 Q 512 711 413 698 L 365 692 Q 286 685 202 676 Q 174 673 194 659 Q 233 632 286 642 Q 329 654 372 661 L 416 668 Q 440 677 591 684 L 639 686 Z" class="stroke1"/>
    <path d="M 413 698 Q 412 729 410 756 Q 411 775 392 781 Q 353 802 331 794 Q 312 785 328 766 Q 353 732 365 692 L 372 661 Q 384 598 399 580 Q 412 570 417 581 Q 420 593 416 668 L 413 698 Z" class="stroke2"/>
    <path d="M 660 733 Q 660 734 661 734 Q 671 759 691 792 Q 706 805 696 817 Q 684 833 651 853 Q 635 863 617 855 Q 607 849 614 837 Q 623 807 603 724 L 591 684 Q 564 615 567 596 Q 568 581 584 592 Q 596 601 639 686 L 660 733 Z" class="stroke3"/>
    <path d="M 527 482 Q 695 506 857 490 Q 879 489 884 496 Q 891 508 880 519 Q 853 544 813 562 Q 800 566 776 560 Q 716 547 530 522 L 477 515 Q 365 505 307 496 Q 243 486 147 484 Q 134 484 133 474 Q 132 462 150 450 Q 165 438 194 427 Q 204 424 220 431 Q 236 437 303 449 Q 381 467 477 477 L 527 482 Z" class="stroke4"/>
    <path d="M 327 395 Q 324 398 321 399 Q 291 414 274 413 Q 261 409 266 396 Q 312 303 272 122 Q 266 101 258 85 Q 240 46 272 3 L 274 1 Q 281 -12 292 -6 Q 319 12 330 122 Q 327 134 334 277 Q 334 359 348 360 C 360 376 353 380 327 395 Z" class="stroke5"/>
    <path d="M 525 391 Q 585 401 652 408 Q 674 412 685 399 Q 692 395 696 357 Q 705 231 698 88 Q 697 67 690 61 Q 674 49 596 63 Q 580 64 582 55 Q 583 48 596 44 Q 666 4 704 -29 Q 725 -47 737 -44 Q 749 -40 758 -13 Q 771 30 769 93 Q 756 259 755 320 Q 756 357 767 379 Q 777 400 768 411 Q 758 426 714 448 Q 695 458 677 453 Q 628 438 525 418 L 476 411 Q 403 402 327 395 C 297 392 319 353 348 360 Q 406 375 476 384 L 525 391 Z" class="stroke6"/>
    <path d="M 524 273 Q 570 280 613 284 Q 637 287 629 300 Q 619 315 593 321 Q 571 325 528 315 Q 525 315 524 314 L 474 302 Q 432 293 396 285 Q 380 282 399 266 Q 409 259 431 261 Q 452 265 473 266 L 524 273 Z" class="stroke7"/>
    <path d="M 525 161 Q 574 168 621 172 Q 645 175 637 188 Q 627 204 602 209 Q 569 215 525 201 L 473 190 Q 425 181 384 173 Q 368 170 387 154 Q 397 145 422 148 Q 447 152 472 154 L 525 161 Z" class="stroke8"/>
    <path d="M 475 20 Q 479 -4 486 -13 Q 492 -20 499 -18 Q 523 0 525 161 L 525 201 Q 524 226 524 273 L 524 314 Q 524 348 525 391 L 525 418 Q 526 449 527 482 L 530 522 Q 531 526 532 531 Q 535 553 539 569 Q 542 585 528 595 Q 497 616 483 618 Q 471 622 456 614 Q 447 607 454 597 Q 475 552 477 515 L 477 477 Q 477 446 476 411 L 476 384 Q 475 347 474 302 L 473 266 Q 473 230 473 190 L 472 154 Q 471 57 475 20 Z" class="stroke9"/>
    <path d="M 662 629 Q 717 578 740 579 Q 752 580 755 596 Q 755 608 744 624 Q 734 637 711 642 Q 677 652 662 653 Q 655 654 655 643 Q 654 636 662 629 Z" class="stroke10"/>
    <text x="196" y="669" style="transform-origin:196px 669px; transform:scale(1,-1);">1</text>
    <text x="336" y="779" style="transform-origin:336px 779px; transform:scale(1,-1);">2</text>
    <text x="622" y="845" style="transform-origin:622px 845px; transform:scale(1,-1);">3</text>
    <text x="145" y="473" style="transform-origin:145px 473px; transform:scale(1,-1);">4</text>
    <text x="276" y="402" style="transform-origin:276px 402px; transform:scale(1,-1);">5</text>
    <text x="335" y="392" style="transform-origin:335px 392px; transform:scale(1,-1);">6</text>
    <text x="398" y="276" style="transform-origin:398px 276px; transform:scale(1,-1);">7</text>
    <text x="386" y="164" style="transform-origin:386px 164px; transform:scale(1,-1);">8</text>
    <text x="462" y="605" style="transform-origin:462px 605px; transform:scale(1,-1);">9</text>
    <text x="665" y="643" style="transform-origin:665px 643px; transform:scale(1,-1);">10</text></g>
</svg>