<svg version="1.1" viewBox="0 0 1024 1024" xmlns="http://www.w3.org/2000/svg">
  <g stroke="lightgray" stroke-dasharray="1,1" stroke-width="1" transform="scale(4, 4)">
    <line x1="0" y1="0" x2="256" y2="256"/>
    <line x1="256" y1="0" x2="0" y2="256"/>
    <line x1="128" y1="0" x2="128" y2="256"/>
    <line x1="0" y1="128" x2="256" y2="128"/>
  </g>
  <g transform="scale(1, -1) translate(0, -900)">
    <style type="text/css">
        .stroke1 {fill: #BF0909;}
        .stroke2 {fill: #BFBF09;}
        .stroke3 {fill: #09BF09;}
        .stroke4 {fill: #09BFBF;}
        .stroke5 {fill: #0909BF;}
        .stroke6 {fill: #BF09BF;}
        .stroke7 {fill: #42005e;}
        .stroke8 {fill: #ff3333;}
        .stroke9 {fill: #BFBFBF;}
        .stroke10 {fill: #00a53f;}
        .stroke11 {fill: #fff000;}
        .stroke12 {fill: #6600a5;}
        .stroke13 {fill: #0053a5;}
        .stroke14 {fill: #62c22b;}
        .stroke15 {fill: #BF09BF;}
        .stroke16 {fill: #BF0909;}
        .stroke17 {fill: #BFBF09;}
        .stroke18 {fill: #09BF09;}
        .stroke19 {fill: #09BFBF;}
        .stroke20 {fill: #0909BF;}
        text {
            font-family: Helvetica;
            font-size: 50px;
            fill: #FFFFFF;
            paint-order: stroke;
            stroke: #000000;
            stroke-width: 4px;
            stroke-linecap: butt;
            stroke-linejoin: miter;
            font-weight: 800;
        }
    </style>

    <path d="M 396 736 Q 393 755 391 770 Q 391 789 372 792 Q 330 807 315 798 Q 299 789 314 772 Q 333 754 346 730 L 360 695 Q 379 641 391 630 Q 404 621 407 633 Q 407 636 401 704 L 396 736 Z" class="stroke1"/>
    <path d="M 401 704 Q 420 710 443 714 Q 458 715 475 724 Q 482 728 480 735 Q 479 741 466 744 Q 435 741 396 736 L 346 730 Q 291 726 226 717 Q 184 720 163 719 Q 151 720 150 716 Q 147 709 154 699 Q 167 684 193 672 Q 209 662 226 666 Q 290 681 360 695 L 401 704 Z" class="stroke2"/>
    <path d="M 665 766 Q 672 776 681 786 Q 696 798 687 809 Q 678 827 649 847 Q 636 857 618 852 Q 608 848 613 836 Q 619 815 602 758 L 588 720 Q 557 650 555 634 Q 556 622 569 627 Q 582 634 638 721 L 665 766 Z" class="stroke3"/>
    <path d="M 638 721 Q 707 742 824 727 Q 837 726 842 733 Q 846 743 836 756 Q 796 790 708 773 Q 687 770 665 766 L 602 758 Q 580 757 557 754 Q 532 753 549 738 Q 567 726 583 721 Q 586 721 588 720 C 612 714 612 714 638 721 Z" class="stroke4"/>
    <path d="M 359 546 Q 375 527 394 504 Q 404 491 418 490 Q 428 490 433 501 Q 439 513 434 540 Q 427 564 359 588 Q 346 592 340 591 Q 336 588 335 576 Q 338 566 359 546 Z" class="stroke5"/>
    <path d="M 559 491 Q 668 588 675 592 Q 694 602 682 618 Q 667 631 643 642 Q 619 652 609 647 Q 597 644 603 633 Q 607 612 554 524 Q 542 506 529 485 Q 528 484 528 483 C 513 457 537 471 559 491 Z" class="stroke6"/>
    <path d="M 514 431 Q 679 462 686 467 Q 695 474 691 484 Q 684 496 654 505 Q 632 511 559 491 L 528 483 Q 500 479 475 471 Q 406 458 327 453 Q 290 449 316 430 Q 352 406 432 418 Q 448 421 469 424 L 514 431 Z" class="stroke7"/>
    <path d="M 523 322 Q 596 335 661 343 Q 686 346 677 360 Q 667 376 640 381 Q 616 385 526 366 L 475 355 Q 396 340 324 326 Q 306 322 327 306 Q 343 294 378 299 Q 427 308 476 315 L 523 322 Z" class="stroke8"/>
    <path d="M 517 239 Q 520 284 523 322 L 526 366 Q 526 378 529 393 Q 538 415 514 431 C 490 449 462 453 469 424 Q 472 418 475 355 L 476 315 Q 476 282 476 234 C 476 204 515 209 517 239 Z" class="stroke9"/>
    <path d="M 476 234 Q 356 221 217 207 Q 195 206 211 187 Q 226 172 244 166 Q 266 160 283 164 Q 511 222 804 202 Q 825 202 830 211 Q 837 223 819 237 Q 765 279 727 271 Q 648 258 517 239 L 476 234 Z" class="stroke10"/>
    <path d="M 245 126 Q 215 77 178 35 Q 153 5 166 -33 Q 172 -52 195 -43 Q 252 -13 264 63 Q 274 97 270 123 Q 266 133 260 134 Q 251 134 245 126 Z" class="stroke11"/>
    <path d="M 385 93 Q 424 6 445 -2 Q 458 -6 468 9 Q 472 21 470 42 Q 466 61 444 79 Q 413 107 396 116 Q 389 120 384 110 Q 380 103 385 93 Z" class="stroke12"/>
    <path d="M 543 103 Q 597 13 619 8 Q 629 5 639 20 Q 642 30 637 50 Q 622 92 551 125 Q 544 128 541 119 Q 538 112 543 103 Z" class="stroke13"/>
    <path d="M 730 117 Q 785 65 849 -11 Q 862 -29 875 -33 Q 882 -34 889 -26 Q 899 -16 890 22 Q 881 73 732 143 Q 725 147 722 137 Q 721 127 730 117 Z" class="stroke14"/>
    <text x="321" y="785" style="transform-origin:321px 785px; transform:scale(1,-1);">1</text>
    <text x="158" y="712" style="transform-origin:158px 712px; transform:scale(1,-1);">2</text>
    <text x="621" y="842" style="transform-origin:621px 842px; transform:scale(1,-1);">3</text>
    <text x="551" y="747" style="transform-origin:551px 747px; transform:scale(1,-1);">4</text>
    <text x="344" y="581" style="transform-origin:344px 581px; transform:scale(1,-1);">5</text>
    <text x="671" y="607" style="transform-origin:671px 607px; transform:scale(1,-1);">6</text>
    <text x="319" y="443" style="transform-origin:319px 443px; transform:scale(1,-1);">7</text>
    <text x="325" y="316" style="transform-origin:325px 316px; transform:scale(1,-1);">8</text>
    <text x="477" y="423" style="transform-origin:477px 423px; transform:scale(1,-1);">9</text>
    <text x="214" y="197" style="transform-origin:214px 197px; transform:scale(1,-1);">10</text>
    <text x="258" y="123" style="transform-origin:258px 123px; transform:scale(1,-1);">11</text>
    <text x="395" y="104" style="transform-origin:395px 104px; transform:scale(1,-1);">12</text>
    <text x="551" y="114" style="transform-origin:551px 114px; transform:scale(1,-1);">13</text>
    <text x="731" y="133" style="transform-origin:731px 133px; transform:scale(1,-1);">14</text></g>
</svg>