<svg version="1.1" viewBox="0 0 1024 1024" xmlns="http://www.w3.org/2000/svg">
  <g stroke="lightgray" stroke-dasharray="1,1" stroke-width="1" transform="scale(4, 4)">
    <line x1="0" y1="0" x2="256" y2="256"/>
    <line x1="256" y1="0" x2="0" y2="256"/>
    <line x1="128" y1="0" x2="128" y2="256"/>
    <line x1="0" y1="128" x2="256" y2="128"/>
  </g>
  <g transform="scale(1, -1) translate(0, -900)">
    <style type="text/css">
        .stroke1 {fill: #BF0909;}
        .stroke2 {fill: #BFBF09;}
        .stroke3 {fill: #09BF09;}
        .stroke4 {fill: #09BFBF;}
        .stroke5 {fill: #0909BF;}
        .stroke6 {fill: #BF09BF;}
        .stroke7 {fill: #42005e;}
        .stroke8 {fill: #ff3333;}
        .stroke9 {fill: #BFBFBF;}
        .stroke10 {fill: #00a53f;}
        .stroke11 {fill: #fff000;}
        .stroke12 {fill: #6600a5;}
        .stroke13 {fill: #0053a5;}
        .stroke14 {fill: #62c22b;}
        .stroke15 {fill: #BF09BF;}
        .stroke16 {fill: #BF0909;}
        .stroke17 {fill: #BFBF09;}
        .stroke18 {fill: #09BF09;}
        .stroke19 {fill: #09BFBF;}
        .stroke20 {fill: #0909BF;}
        text {
            font-family: Helvetica;
            font-size: 50px;
            fill: #FFFFFF;
            paint-order: stroke;
            stroke: #000000;
            stroke-width: 4px;
            stroke-linecap: butt;
            stroke-linejoin: miter;
            font-weight: 800;
        }
    </style>

    <path d="M 396 739 Q 392 764 391 784 Q 392 803 372 807 Q 335 825 313 815 Q 297 806 311 788 Q 336 763 347 732 L 358 699 Q 370 650 387 635 Q 400 625 404 637 Q 404 643 399 710 L 396 739 Z" class="stroke1"/>
    <path d="M 399 710 Q 412 714 429 718 Q 444 719 460 728 Q 466 732 464 739 Q 463 745 450 747 Q 425 744 396 739 L 347 732 Q 292 725 222 714 Q 182 715 161 713 Q 151 714 149 710 Q 146 703 153 694 Q 166 681 191 669 Q 207 660 223 665 Q 287 681 358 699 L 399 710 Z" class="stroke2"/>
    <path d="M 628 767 Q 635 783 650 804 Q 663 817 654 827 Q 644 843 612 860 Q 597 870 581 862 Q 571 858 578 846 Q 587 824 572 758 L 566 736 Q 545 664 546 653 Q 547 641 561 648 Q 576 661 609 725 L 628 767 Z" class="stroke3"/>
    <path d="M 609 725 Q 622 725 641 728 Q 734 750 826 738 Q 839 737 843 745 Q 847 755 836 767 Q 794 801 714 783 Q 674 777 628 767 L 572 758 Q 568 759 564 758 Q 539 755 557 742 Q 561 739 566 736 C 584 724 584 724 609 725 Z" class="stroke4"/>
    <path d="M 297 569 Q 307 582 318 588 Q 325 595 324 605 Q 323 614 305 633 Q 289 648 275 650 Q 262 650 265 634 Q 272 610 217 537 Q 192 504 155 469 Q 148 463 145 459 Q 142 452 152 452 Q 185 452 284 554 L 297 569 Z" class="stroke5"/>
    <path d="M 341 448 Q 384 505 444 542 Q 460 549 451 561 Q 441 573 411 592 Q 405 595 325 574 Q 312 571 297 569 C 267 565 260 564 284 554 Q 299 545 346 550 Q 361 556 366 551 Q 369 548 363 539 Q 326 472 302 438 C 285 413 323 424 341 448 Z" class="stroke6"/>
    <path d="M 186 408 Q 174 412 150 416 Q 140 419 136 414 Q 132 408 139 394 Q 166 340 182 251 Q 186 224 201 206 Q 217 187 222 201 Q 223 208 225 219 L 223 242 Q 201 378 200 381 C 195 405 195 405 186 408 Z" class="stroke7"/>
    <path d="M 378 243 Q 390 228 401 222 Q 410 216 422 234 Q 434 253 454 362 Q 461 387 479 409 Q 489 419 479 431 Q 466 444 430 464 Q 414 471 401 466 Q 379 457 344 449 Q 341 449 341 448 L 302 438 Q 296 438 186 408 C 157 400 172 370 200 381 Q 228 393 271 403 L 301 410 Q 380 435 401 424 Q 413 415 410 400 Q 395 282 377 270 C 367 255 367 255 378 243 Z" class="stroke8"/>
    <path d="M 316 322 Q 343 329 366 333 Q 384 337 377 346 Q 368 356 348 359 Q 336 360 319 356 L 278 342 Q 254 335 233 326 Q 220 322 236 311 L 279 315 L 316 322 Z" class="stroke9"/>
    <path d="M 312 265 Q 313 296 316 322 L 319 356 Q 319 360 320 363 Q 320 393 308 405 Q 304 408 301 410 C 276 427 255 428 271 403 Q 272 402 274 399 Q 274 390 278 342 L 279 315 Q 279 291 280 256 C 281 226 311 235 312 265 Z" class="stroke10"/>
    <path d="M 225 219 Q 240 226 378 243 C 408 247 405 258 377 270 Q 376 271 369 273 Q 338 277 312 265 L 280 256 Q 249 250 223 242 C 194 233 197 209 225 219 Z" class="stroke11"/>
    <path d="M 124 153 Q 111 98 90 48 Q 77 18 97 -7 Q 106 -20 121 -7 Q 160 32 153 109 Q 153 137 144 156 Q 138 162 133 162 Q 126 161 124 153 Z" class="stroke12"/>
    <path d="M 203 135 Q 207 87 221 54 Q 228 47 237 50 Q 244 54 250 64 Q 259 88 224 149 Q 217 158 211 160 Q 208 161 204 154 Q 200 148 203 135 Z" class="stroke13"/>
    <path d="M 281 154 Q 291 120 312 93 Q 319 89 329 94 Q 336 100 338 110 Q 339 126 333 137 Q 323 155 297 174 Q 290 181 282 180 Q 278 181 277 173 Q 276 166 281 154 Z" class="stroke14"/>
    <path d="M 369 180 Q 397 123 414 117 Q 423 114 430 125 Q 434 134 430 149 Q 421 179 377 197 Q 371 198 368 192 Q 367 186 369 180 Z" class="stroke15"/>
    <path d="M 642 527 Q 693 555 748 570 Q 764 571 767 579 Q 770 589 758 599 Q 707 635 670 630 Q 663 626 663 616 Q 664 580 504 495 Q 500 486 505 484 Q 520 484 591 509 Q 600 512 610 515 L 642 527 Z" class="stroke16"/>
    <path d="M 664 378 Q 725 393 826 398 Q 868 398 873 408 Q 877 418 862 428 Q 811 461 760 439 Q 720 430 664 414 L 624 406 Q 563 394 493 379 Q 477 376 489 363 Q 511 347 559 355 Q 581 362 612 368 L 664 378 Z" class="stroke17"/>
    <path d="M 664 338 Q 664 360 664 378 L 664 414 Q 665 466 670 492 Q 670 505 642 527 C 619 547 602 544 610 515 Q 619 497 624 406 L 624 293 Q 624 143 607 48 Q 592 21 627 -38 L 629 -41 Q 641 -59 648 -62 Q 658 -63 663 -51 Q 673 -21 670 7 Q 664 164 664 297 L 664 338 Z" class="stroke18"/>
    <path d="M 612 368 Q 561 236 407 43 Q 403 34 412 34 Q 416 33 425 40 Q 551 145 624 293 C 673 390 623 396 612 368 Z" class="stroke19"/>
    <path d="M 664 297 Q 722 203 798 99 Q 813 80 841 79 Q 935 76 966 79 Q 975 80 976 85 Q 977 89 965 97 Q 827 160 750 242 Q 708 285 664 338 C 645 361 648 322 664 297 Z" class="stroke20"/>
    <text x="320" y="801" style="transform-origin:320px 801px; transform:scale(1,-1);">1</text>
    <text x="156" y="706" style="transform-origin:156px 706px; transform:scale(1,-1);">2</text>
    <text x="584" y="853" style="transform-origin:584px 853px; transform:scale(1,-1);">3</text>
    <text x="559" y="751" style="transform-origin:559px 751px; transform:scale(1,-1);">4</text>
    <text x="274" y="639" style="transform-origin:274px 639px; transform:scale(1,-1);">5</text>
    <text x="290" y="555" style="transform-origin:290px 555px; transform:scale(1,-1);">6</text>
    <text x="144" y="409" style="transform-origin:144px 409px; transform:scale(1,-1);">7</text>
    <text x="200" y="407" style="transform-origin:200px 407px; transform:scale(1,-1);">8</text>
    <text x="242" y="320" style="transform-origin:242px 320px; transform:scale(1,-1);">9</text>
    <text x="284" y="396" style="transform-origin:284px 396px; transform:scale(1,-1);">10</text>
    <text x="225" y="225" style="transform-origin:225px 225px; transform:scale(1,-1);">11</text>
    <text x="134" y="152" style="transform-origin:134px 152px; transform:scale(1,-1);">12</text>
    <text x="211" y="153" style="transform-origin:211px 153px; transform:scale(1,-1);">13</text>
    <text x="285" y="173" style="transform-origin:285px 173px; transform:scale(1,-1);">14</text>
    <text x="377" y="187" style="transform-origin:377px 187px; transform:scale(1,-1);">15</text>
    <text x="757" y="583" style="transform-origin:757px 583px; transform:scale(1,-1);">16</text>
    <text x="492" y="371" style="transform-origin:492px 371px; transform:scale(1,-1);">17</text>
    <text x="617" y="514" style="transform-origin:617px 514px; transform:scale(1,-1);">18</text>
    <text x="619" y="363" style="transform-origin:619px 363px; transform:scale(1,-1);">19</text>
    <text x="668" y="331" style="transform-origin:668px 331px; transform:scale(1,-1);">20</text></g>
</svg>