<svg version="1.1" viewBox="0 0 1024 1024" xmlns="http://www.w3.org/2000/svg">
  <g stroke="lightgray" stroke-dasharray="1,1" stroke-width="1" transform="scale(4, 4)">
    <line x1="0" y1="0" x2="256" y2="256"/>
    <line x1="256" y1="0" x2="0" y2="256"/>
    <line x1="128" y1="0" x2="128" y2="256"/>
    <line x1="0" y1="128" x2="256" y2="128"/>
  </g>
  <g transform="scale(1, -1) translate(0, -900)">
    <style type="text/css">
        .stroke1 {fill: #BF0909;}
        .stroke2 {fill: #BFBF09;}
        .stroke3 {fill: #09BF09;}
        .stroke4 {fill: #09BFBF;}
        .stroke5 {fill: #0909BF;}
        .stroke6 {fill: #BF09BF;}
        .stroke7 {fill: #42005e;}
        .stroke8 {fill: #ff3333;}
        .stroke9 {fill: #BFBFBF;}
        .stroke10 {fill: #00a53f;}
        .stroke11 {fill: #fff000;}
        .stroke12 {fill: #6600a5;}
        .stroke13 {fill: #0053a5;}
        .stroke14 {fill: #62c22b;}
        .stroke15 {fill: #BF09BF;}
        .stroke16 {fill: #BF0909;}
        .stroke17 {fill: #BFBF09;}
        .stroke18 {fill: #09BF09;}
        .stroke19 {fill: #09BFBF;}
        .stroke20 {fill: #0909BF;}
        text {
            font-family: Helvetica;
            font-size: 50px;
            fill: #FFFFFF;
            paint-order: stroke;
            stroke: #000000;
            stroke-width: 4px;
            stroke-linecap: butt;
            stroke-linejoin: miter;
            font-weight: 800;
        }
    </style>

    <path d="M 143 532 Q 131 536 104 540 Q 92 541 89 537 Q 83 530 92 515 Q 120 469 140 389 Q 144 365 159 351 Q 178 329 183 346 Q 184 353 185 364 L 181 396 Q 166 480 161 505 C 156 528 156 528 143 532 Z" class="stroke1"/>
    <path d="M 401 431 Q 425 507 454 527 Q 467 543 455 559 Q 391 611 338 582 Q 317 575 298 566 L 249 553 Q 197 541 143 532 C 113 527 132 498 161 505 Q 213 518 249 525 L 297 536 Q 361 554 372 544 Q 379 537 377 520 Q 368 474 357 435 C 349 406 392 403 401 431 Z" class="stroke2"/>
    <path d="M 293 383 Q 344 393 413 399 Q 423 400 424 409 Q 424 416 401 431 L 357 435 Q 354 436 352 435 Q 321 428 294 420 L 250 409 Q 213 402 181 396 C 152 390 155 362 185 364 Q 189 364 196 365 Q 218 371 250 376 L 293 383 Z" class="stroke3"/>
    <path d="M 289 259 Q 290 323 293 383 L 294 420 Q 295 480 297 536 L 298 566 Q 298 657 317 727 Q 320 740 299 756 Q 262 775 237 778 Q 221 782 212 772 Q 205 765 213 749 Q 243 706 243 677 Q 247 617 249 553 L 249 525 Q 250 470 250 409 L 250 376 Q 249 313 246 246 C 245 216 288 229 289 259 Z" class="stroke4"/>
    <path d="M 377 289 Q 334 276 289 259 L 246 246 Q 188 230 128 212 Q 109 206 78 207 Q 65 206 63 195 Q 62 182 70 174 Q 92 158 126 139 Q 136 136 148 145 Q 185 175 358 250 Q 374 257 387 266 C 412 282 406 298 377 289 Z" class="stroke5"/>
    <path d="M 387 266 Q 400 227 414 221 Q 421 218 430 225 Q 437 234 442 258 Q 446 291 380 346 Q 370 353 365 354 Q 361 353 357 344 L 377 289 L 387 266 Z" class="stroke6"/>
    <path d="M 722 406 Q 746 425 769 601 Q 782 656 817 691 Q 836 709 817 724 Q 798 740 742 763 Q 727 772 668 753 Q 617 743 575 729 Q 533 717 506 712 Q 488 711 486 705 Q 482 701 501 689 Q 537 671 559 680 Q 599 695 691 711 Q 707 714 713 711 Q 729 704 724 657 Q 705 485 691 449 Q 685 430 692 415 Q 696 405 702 402 C 711 389 711 389 722 406 Z" class="stroke7"/>
    <path d="M 702 402 Q 659 395 595 377 Q 570 373 570 394 Q 573 559 584 586 Q 590 602 582 615 Q 564 633 537 644 Q 518 651 509 641 Q 502 635 511 624 Q 533 576 517 390 Q 514 377 511 362 Q 505 340 522 325 Q 543 310 564 324 Q 621 363 776 380 Q 809 383 822 369 Q 831 360 803 185 Q 796 133 774 100 Q 765 87 739 87 Q 702 96 670 102 Q 654 106 655 99 Q 655 93 664 85 Q 725 33 749 -3 Q 759 -24 777 -13 Q 840 21 852 92 Q 868 183 880 286 Q 887 325 906 358 Q 919 376 907 388 Q 888 410 849 431 Q 827 443 797 429 Q 764 413 732 408 Q 726 408 722 406 L 702 402 Z" class="stroke8"/>
    <path d="M 567 192 Q 700 216 746 213 Q 765 213 770 222 Q 774 234 764 242 Q 736 261 698 273 Q 695 273 602 247 Q 470 220 434 209 Q 403 202 355 195 Q 345 194 344 184 Q 345 174 362 164 Q 377 155 404 149 Q 414 148 427 155 Q 451 170 567 192 Z" class="stroke9"/>
    <text x="98" y="530" style="transform-origin:98px 530px; transform:scale(1,-1);">1</text>
    <text x="151" y="531" style="transform-origin:151px 531px; transform:scale(1,-1);">2</text>
    <text x="190" y="370" style="transform-origin:190px 370px; transform:scale(1,-1);">3</text>
    <text x="225" y="762" style="transform-origin:225px 762px; transform:scale(1,-1);">4</text>
    <text x="77" y="193" style="transform-origin:77px 193px; transform:scale(1,-1);">5</text>
    <text x="365" y="346" style="transform-origin:365px 346px; transform:scale(1,-1);">6</text>
    <text x="492" y="704" style="transform-origin:492px 704px; transform:scale(1,-1);">7</text>
    <text x="517" y="633" style="transform-origin:517px 633px; transform:scale(1,-1);">8</text>
    <text x="356" y="184" style="transform-origin:356px 184px; transform:scale(1,-1);">9</text></g>
</svg>