<svg version="1.1" viewBox="0 0 1024 1024" xmlns="http://www.w3.org/2000/svg">
  <g stroke="lightgray" stroke-dasharray="1,1" stroke-width="1" transform="scale(4, 4)">
    <line x1="0" y1="0" x2="256" y2="256"/>
    <line x1="256" y1="0" x2="0" y2="256"/>
    <line x1="128" y1="0" x2="128" y2="256"/>
    <line x1="0" y1="128" x2="256" y2="128"/>
  </g>
  <g transform="scale(1, -1) translate(0, -900)">
    <style type="text/css">
        .stroke1 {fill: #BF0909;}
        .stroke2 {fill: #BFBF09;}
        .stroke3 {fill: #09BF09;}
        .stroke4 {fill: #09BFBF;}
        .stroke5 {fill: #0909BF;}
        .stroke6 {fill: #BF09BF;}
        .stroke7 {fill: #42005e;}
        .stroke8 {fill: #ff3333;}
        .stroke9 {fill: #BFBFBF;}
        .stroke10 {fill: #00a53f;}
        .stroke11 {fill: #fff000;}
        .stroke12 {fill: #6600a5;}
        .stroke13 {fill: #0053a5;}
        .stroke14 {fill: #62c22b;}
        .stroke15 {fill: #BF09BF;}
        .stroke16 {fill: #BF0909;}
        .stroke17 {fill: #BFBF09;}
        .stroke18 {fill: #09BF09;}
        .stroke19 {fill: #09BFBF;}
        .stroke20 {fill: #0909BF;}
        text {
            font-family: Helvetica;
            font-size: 50px;
            fill: #FFFFFF;
            paint-order: stroke;
            stroke: #000000;
            stroke-width: 4px;
            stroke-linecap: butt;
            stroke-linejoin: miter;
            font-weight: 800;
        }
    </style>

    <path d="M 479 784 Q 506 765 536 739 Q 551 727 566 729 Q 576 730 581 744 Q 584 760 573 789 Q 561 819 470 832 Q 454 833 448 831 Q 444 827 446 814 Q 450 804 479 784 Z" class="stroke1"/>
    <path d="M 601 668 Q 698 674 822 670 Q 900 667 906 676 Q 912 688 896 702 Q 836 750 792 732 Q 554 696 149 658 Q 128 657 143 639 Q 156 624 175 619 Q 196 612 212 617 Q 296 638 395 648 L 429 654 Q 501 664 560 666 L 601 668 Z" class="stroke2"/>
    <path d="M 395 648 Q 419 564 389 473 Q 374 427 400 395 Q 409 385 417 395 Q 435 414 443 514 Q 443 577 454 621 Q 455 634 443 643 Q 436 650 429 654 C 404 671 387 677 395 648 Z" class="stroke3"/>
    <path d="M 560 666 Q 582 644 573 505 Q 557 441 591 401 Q 601 389 610 400 Q 622 418 623 470 Q 624 611 627 620 Q 630 639 625 646 Q 622 656 605 666 Q 604 667 601 668 C 575 683 543 691 560 666 Z" class="stroke4"/>
    <path d="M 311 572 Q 268 529 220 493 Q 190 472 194 432 Q 195 413 219 417 Q 282 435 314 509 Q 330 537 333 564 Q 332 574 326 576 Q 317 577 311 572 Z" class="stroke5"/>
    <path d="M 692 566 Q 740 520 796 454 Q 811 435 825 431 Q 834 430 841 438 Q 853 451 842 493 Q 833 544 697 595 Q 696 596 694 596 Q 685 600 683 589 Q 682 576 692 566 Z" class="stroke6"/>
    <path d="M 354 312 Q 342 318 304 324 Q 292 327 289 321 Q 283 314 292 299 Q 320 250 340 167 Q 344 142 359 127 Q 378 105 383 122 Q 386 132 385 146 L 381 179 Q 365 255 361 282 C 356 311 356 311 354 312 Z" class="stroke7"/>
    <path d="M 690 217 Q 717 275 743 293 Q 759 309 747 327 Q 732 340 684 366 Q 668 375 647 368 Q 595 350 546 338 L 485 327 Q 421 320 354 312 C 324 308 332 276 361 282 Q 406 291 487 302 L 543 312 Q 577 319 614 324 Q 644 331 655 318 Q 662 311 660 296 Q 651 256 640 223 C 631 194 677 190 690 217 Z" class="stroke8"/>
    <path d="M 534 166 Q 604 176 703 182 Q 713 183 715 192 Q 715 199 690 217 C 674 229 670 228 640 223 Q 586 214 536 201 L 490 194 Q 432 185 381 179 C 351 175 355 147 385 146 Q 395 145 407 146 Q 441 153 491 160 L 534 166 Z" class="stroke9"/>
    <path d="M 528 66 Q 531 118 534 166 L 536 201 Q 539 253 542 304 Q 542 308 543 312 L 546 338 Q 547 345 549 352 Q 553 368 557 382 Q 560 392 541 406 Q 507 424 485 427 Q 469 430 462 422 Q 455 415 463 401 Q 484 371 484 351 Q 484 341 485 327 L 487 302 Q 488 250 490 194 L 491 160 Q 490 112 489 60 C 488 30 526 36 528 66 Z" class="stroke10"/>
    <path d="M 677 91 Q 605 79 528 66 L 489 60 Q 401 50 306 36 Q 278 32 232 39 Q 217 40 213 29 Q 209 14 217 4 Q 239 -18 273 -45 Q 283 -51 298 -43 Q 362 -13 541 27 Q 664 55 694 65 C 723 74 707 96 677 91 Z" class="stroke11"/>
    <path d="M 694 65 Q 722 23 753 -28 Q 765 -52 779 -59 Q 788 -62 797 -54 Q 813 -44 809 3 Q 806 61 663 153 Q 656 160 650 148 Q 647 133 677 91 L 694 65 Z" class="stroke12"/>
    <text x="453" y="825" style="transform-origin:453px 825px; transform:scale(1,-1);">1</text>
    <text x="146" y="648" style="transform-origin:146px 648px; transform:scale(1,-1);">2</text>
    <text x="402" y="642" style="transform-origin:402px 642px; transform:scale(1,-1);">3</text>
    <text x="571" y="660" style="transform-origin:571px 660px; transform:scale(1,-1);">4</text>
    <text x="321" y="565" style="transform-origin:321px 565px; transform:scale(1,-1);">5</text>
    <text x="692" y="586" style="transform-origin:692px 586px; transform:scale(1,-1);">6</text>
    <text x="298" y="314" style="transform-origin:298px 314px; transform:scale(1,-1);">7</text>
    <text x="362" y="306" style="transform-origin:362px 306px; transform:scale(1,-1);">8</text>
    <text x="389" y="174" style="transform-origin:389px 174px; transform:scale(1,-1);">9</text>
    <text x="473" y="413" style="transform-origin:473px 413px; transform:scale(1,-1);">10</text>
    <text x="228" y="23" style="transform-origin:228px 23px; transform:scale(1,-1);">11</text>
    <text x="659" y="144" style="transform-origin:659px 144px; transform:scale(1,-1);">12</text></g>
</svg>