<svg version="1.1" viewBox="0 0 1024 1024" xmlns="http://www.w3.org/2000/svg">
  <g stroke="lightgray" stroke-dasharray="1,1" stroke-width="1" transform="scale(4, 4)">
    <line x1="0" y1="0" x2="256" y2="256"/>
    <line x1="256" y1="0" x2="0" y2="256"/>
    <line x1="128" y1="0" x2="128" y2="256"/>
    <line x1="0" y1="128" x2="256" y2="128"/>
  </g>
  <g transform="scale(1, -1) translate(0, -900)">
    <style type="text/css">
        .stroke1 {fill: #BF0909;}
        .stroke2 {fill: #BFBF09;}
        .stroke3 {fill: #09BF09;}
        .stroke4 {fill: #09BFBF;}
        .stroke5 {fill: #0909BF;}
        .stroke6 {fill: #BF09BF;}
        .stroke7 {fill: #42005e;}
        .stroke8 {fill: #ff3333;}
        .stroke9 {fill: #BFBFBF;}
        .stroke10 {fill: #00a53f;}
        .stroke11 {fill: #fff000;}
        .stroke12 {fill: #6600a5;}
        .stroke13 {fill: #0053a5;}
        .stroke14 {fill: #62c22b;}
        .stroke15 {fill: #BF09BF;}
        .stroke16 {fill: #BF0909;}
        .stroke17 {fill: #BFBF09;}
        .stroke18 {fill: #09BF09;}
        .stroke19 {fill: #09BFBF;}
        .stroke20 {fill: #0909BF;}
        text {
            font-family: Helvetica;
            font-size: 50px;
            fill: #FFFFFF;
            paint-order: stroke;
            stroke: #000000;
            stroke-width: 4px;
            stroke-linecap: butt;
            stroke-linejoin: miter;
            font-weight: 800;
        }
    </style>

    <path d="M 123 491 Q 113 495 86 500 Q 76 503 72 498 Q 68 492 75 478 Q 100 427 116 344 Q 119 319 133 302 Q 149 283 154 297 Q 157 306 157 319 L 154 349 Q 139 439 136 465 C 133 488 133 488 123 491 Z" class="stroke1"/>
    <path d="M 333 393 Q 349 471 377 494 Q 389 510 376 524 Q 309 564 259 534 Q 252 533 246 528 L 205 514 Q 165 501 123 491 C 94 484 108 454 136 465 Q 166 477 206 485 L 246 496 Q 259 500 276 505 Q 292 509 299 503 Q 308 496 307 479 Q 303 433 294 395 C 287 366 327 364 333 393 Z" class="stroke2"/>
    <path d="M 243 340 Q 285 352 348 363 Q 358 364 358 373 Q 358 380 333 393 L 294 395 Q 278 392 244 377 L 206 364 Q 178 357 154 349 C 125 340 127 314 157 319 Q 161 319 206 330 L 243 340 Z" class="stroke3"/>
    <path d="M 240 217 Q 241 280 243 340 L 244 377 Q 245 438 246 496 L 246 528 Q 246 573 265 686 Q 268 696 249 710 Q 215 726 193 731 Q 177 734 170 725 Q 163 718 171 704 Q 201 661 201 631 Q 204 574 205 514 L 206 485 Q 206 427 206 364 L 206 330 Q 205 269 201 203 C 199 173 239 187 240 217 Z" class="stroke4"/>
    <path d="M 302 241 Q 271 231 240 217 L 201 203 Q 152 187 101 167 Q 85 161 58 161 Q 46 158 45 149 Q 44 136 53 129 Q 75 116 108 100 Q 118 97 129 106 Q 153 127 298 210 Q 305 216 315 219 C 343 230 330 250 302 241 Z" class="stroke5"/>
    <path d="M 315 219 Q 336 177 348 172 Q 355 171 362 177 Q 368 186 369 207 Q 370 223 351 245 Q 303 285 292 286 Q 288 285 286 276 Q 286 269 298 249 Q 299 246 302 241 L 315 219 Z" class="stroke6"/>
    <path d="M 457 505 Q 502 568 523 632 Q 539 683 556 724 Q 563 739 546 750 Q 498 774 471 765 Q 461 761 466 746 Q 497 653 420 510 Q 408 500 387 452 Q 381 436 396 443 Q 415 452 442 486 L 457 505 Z" class="stroke7"/>
    <path d="M 523 475 Q 532 478 544 482 Q 670 519 674 525 Q 681 534 676 541 Q 669 551 639 556 Q 609 557 582 543 Q 557 533 527 522 Q 496 512 457 505 C 428 500 414 497 442 486 Q 452 482 480 473 C 499 467 499 467 523 475 Z" class="stroke8"/>
    <path d="M 537 323 Q 651 357 657 362 Q 664 369 660 377 Q 653 387 625 393 Q 598 396 544 372 L 492 353 Q 485 352 479 349 Q 425 333 362 323 Q 329 316 354 301 Q 394 282 444 298 Q 465 304 487 310 L 537 323 Z" class="stroke9"/>
    <path d="M 487 310 Q 462 163 380 88 Q 349 61 298 28 Q 279 15 303 17 Q 318 16 348 29 Q 387 42 419 67 Q 500 124 537 323 L 544 372 Q 548 423 556 442 Q 562 448 557 457 Q 553 463 528 473 Q 525 474 523 475 C 495 487 472 496 480 473 Q 481 469 485 463 Q 494 400 492 353 L 487 310 Z" class="stroke10"/>
    <path d="M 552 186 Q 589 140 632 75 Q 644 54 657 48 Q 664 47 673 54 Q 686 64 681 106 Q 678 143 618 180 Q 579 202 557 214 Q 550 220 546 209 Q 545 197 552 186 Z" class="stroke11"/>
    <path d="M 710 454 Q 686 472 659 481 Q 653 482 649 479 Q 642 475 650 464 Q 684 395 686 247 Q 686 192 719 167 L 720 166 Q 735 162 737 188 Q 737 201 736 215 L 730 249 Q 726 336 720 425 C 718 448 718 448 710 454 Z" class="stroke12"/>
    <path d="M 888 271 Q 904 389 936 427 Q 960 454 935 468 Q 914 480 886 498 Q 867 508 847 497 Q 807 472 710 454 C 681 448 690 420 720 425 Q 738 428 822 445 Q 847 449 853 440 Q 863 433 855 385 Q 848 334 836 275 C 830 246 884 241 888 271 Z" class="stroke13"/>
    <path d="M 736 215 Q 782 227 900 237 Q 910 238 912 248 Q 912 255 888 271 C 871 283 865 282 836 275 L 835 275 Q 777 259 730 249 C 701 243 707 208 736 215 Z" class="stroke14"/>
    <text x="80" y="493" style="transform-origin:80px 493px; transform:scale(1,-1);">1</text>
    <text x="131" y="487" style="transform-origin:131px 487px; transform:scale(1,-1);">2</text>
    <text x="158" y="327" style="transform-origin:158px 327px; transform:scale(1,-1);">3</text>
    <text x="183" y="715" style="transform-origin:183px 715px; transform:scale(1,-1);">4</text>
    <text x="59" y="147" style="transform-origin:59px 147px; transform:scale(1,-1);">5</text>
    <text x="293" y="279" style="transform-origin:293px 279px; transform:scale(1,-1);">6</text>
    <text x="477" y="753" style="transform-origin:477px 753px; transform:scale(1,-1);">7</text>
    <text x="448" y="489" style="transform-origin:448px 489px; transform:scale(1,-1);">8</text>
    <text x="355" y="313" style="transform-origin:355px 313px; transform:scale(1,-1);">9</text>
    <text x="487" y="470" style="transform-origin:487px 470px; transform:scale(1,-1);">10</text>
    <text x="555" y="204" style="transform-origin:555px 204px; transform:scale(1,-1);">11</text>
    <text x="656" y="472" style="transform-origin:656px 472px; transform:scale(1,-1);">12</text>
    <text x="722" y="434" style="transform-origin:722px 434px; transform:scale(1,-1);">13</text>
    <text x="739" y="221" style="transform-origin:739px 221px; transform:scale(1,-1);">14</text></g>
</svg>