<svg version="1.1" viewBox="0 0 1024 1024" xmlns="http://www.w3.org/2000/svg">
  <g stroke="lightgray" stroke-dasharray="1,1" stroke-width="1" transform="scale(4, 4)">
    <line x1="0" y1="0" x2="256" y2="256"/>
    <line x1="256" y1="0" x2="0" y2="256"/>
    <line x1="128" y1="0" x2="128" y2="256"/>
    <line x1="0" y1="128" x2="256" y2="128"/>
  </g>
  <g transform="scale(1, -1) translate(0, -900)">
    <style type="text/css">
        .stroke1 {fill: #BF0909;}
        .stroke2 {fill: #BFBF09;}
        .stroke3 {fill: #09BF09;}
        .stroke4 {fill: #09BFBF;}
        .stroke5 {fill: #0909BF;}
        .stroke6 {fill: #BF09BF;}
        .stroke7 {fill: #42005e;}
        .stroke8 {fill: #ff3333;}
        .stroke9 {fill: #BFBFBF;}
        .stroke10 {fill: #00a53f;}
        .stroke11 {fill: #fff000;}
        .stroke12 {fill: #6600a5;}
        .stroke13 {fill: #0053a5;}
        .stroke14 {fill: #62c22b;}
        .stroke15 {fill: #BF09BF;}
        .stroke16 {fill: #BF0909;}
        .stroke17 {fill: #BFBF09;}
        .stroke18 {fill: #09BF09;}
        .stroke19 {fill: #09BFBF;}
        .stroke20 {fill: #0909BF;}
        text {
            font-family: Helvetica;
            font-size: 50px;
            fill: #FFFFFF;
            paint-order: stroke;
            stroke: #000000;
            stroke-width: 4px;
            stroke-linecap: butt;
            stroke-linejoin: miter;
            font-weight: 800;
        }
    </style>

    <path d="M 411 711 Q 436 718 464 723 Q 495 730 500 736 Q 507 743 503 750 Q 496 760 471 766 Q 446 770 420 759 Q 419 759 419 758 L 365 741 Q 355 740 347 736 Q 304 726 255 720 Q 224 714 246 700 Q 273 685 346 697 Q 353 698 365 700 L 411 711 Z" class="stroke1"/>
    <path d="M 399 651 Q 405 682 411 711 L 419 758 Q 419 761 420 762 Q 424 775 427 785 Q 430 792 432 798 Q 436 807 420 820 Q 393 836 374 842 Q 361 845 354 839 Q 347 833 353 820 Q 363 805 364 795 Q 365 770 365 741 L 365 700 Q 365 673 364 643 C 363 613 393 622 399 651 Z" class="stroke2"/>
    <path d="M 445 625 Q 472 632 503 635 Q 516 636 517 643 Q 518 655 503 662 Q 481 672 460 667 Q 427 660 399 651 L 364 643 Q 211 612 135 601 Q 125 600 122 593 Q 119 584 132 575 Q 169 551 201 563 Q 235 575 267 584 L 287 590 Q 326 605 412 620 L 445 625 Z" class="stroke3"/>
    <path d="M 267 584 Q 267 577 293 535 Q 302 520 314 517 Q 323 514 331 526 Q 334 535 331 551 Q 324 575 287 590 C 264 600 264 600 267 584 Z" class="stroke4"/>
    <path d="M 430 544 Q 448 577 460 591 Q 470 600 464 607 Q 458 616 445 625 C 421 642 409 650 412 620 Q 416 593 398 535 C 389 506 416 518 430 544 Z" class="stroke5"/>
    <path d="M 399 498 Q 423 507 473 514 Q 480 514 487 524 Q 487 533 469 539 Q 450 552 430 544 L 398 535 Q 328 516 237 494 Q 216 490 234 478 Q 258 463 299 473 Q 324 480 358 488 L 399 498 Z" class="stroke6"/>
    <path d="M 399 414 Q 433 423 480 429 Q 493 430 493 436 Q 494 446 480 454 Q 456 463 399 449 L 356 438 Q 251 416 171 403 Q 161 402 158 396 Q 155 387 168 378 Q 195 360 242 371 Q 335 404 356 404 L 399 414 Z" class="stroke7"/>
    <path d="M 399 449 Q 399 474 399 498 C 399 528 359 518 358 488 Q 357 464 356 438 L 356 404 Q 356 341 371 326 Q 378 317 387 335 Q 397 362 399 414 L 399 449 Z" class="stroke8"/>
    <path d="M 618 523 Q 640 578 654 623 L 660 650 Q 664 669 667 686 Q 673 728 678 742 Q 685 754 680 765 Q 667 780 642 792 Q 627 802 616 798 Q 606 792 611 781 Q 629 760 610 637 L 605 609 Q 596 567 583 537 L 570 508 Q 540 451 522 426 Q 518 420 516 416 Q 515 406 522 408 Q 552 414 598 487 L 618 523 Z" class="stroke9"/>
    <path d="M 654 623 Q 718 648 731 641 Q 741 635 737 615 Q 698 471 751 411 Q 772 386 845 348 Q 885 324 912 326 Q 934 327 938 337 Q 945 347 938 388 Q 932 415 927 491 Q 926 504 917 510 Q 913 514 909 502 Q 890 427 879 410 Q 872 397 845 403 Q 817 409 787 436 Q 762 458 757 489 Q 745 561 804 618 Q 807 624 813 627 Q 838 648 788 681 Q 763 700 746 688 Q 727 675 670 654 Q 666 653 660 650 L 610 637 Q 513 619 512 618 Q 509 614 516 606 Q 532 591 605 609 L 654 623 Z" class="stroke10"/>
    <path d="M 598 487 Q 622 471 648 448 Q 660 436 670 435 Q 676 435 680 442 Q 687 452 675 479 Q 663 504 618 523 L 583 537 Q 549 550 529 556 Q 522 559 522 551 Q 523 542 531 536 Q 550 524 570 508 L 598 487 Z" class="stroke11"/>
    <path d="M 352 287 Q 342 293 309 295 Q 297 298 295 293 Q 289 286 298 272 Q 323 229 342 157 Q 346 135 360 122 Q 378 103 382 117 Q 385 126 384 140 L 379 171 Q 366 235 364 258 C 361 283 361 283 352 287 Z" class="stroke12"/>
    <path d="M 685 206 Q 706 255 734 272 Q 750 288 738 305 Q 723 318 678 342 Q 662 349 643 343 Q 589 324 540 313 L 483 302 Q 419 293 352 287 C 322 284 334 255 364 258 Q 374 258 389 262 Q 435 271 485 277 L 536 286 Q 573 293 612 299 Q 640 306 652 294 Q 659 285 638 211 C 630 182 672 179 685 206 Z" class="stroke13"/>
    <path d="M 529 155 Q 599 164 699 170 Q 709 171 711 180 Q 711 187 685 206 C 672 216 668 215 638 211 Q 637 212 635 211 Q 580 201 531 190 L 488 183 Q 430 176 379 171 C 349 168 355 146 384 140 Q 396 136 411 138 Q 442 145 488 150 L 529 155 Z" class="stroke14"/>
    <path d="M 524 77 Q 525 117 529 155 L 531 190 Q 532 239 536 286 L 540 313 Q 541 331 550 357 Q 553 367 535 379 Q 504 395 483 399 Q 470 402 462 395 Q 455 388 463 375 Q 482 347 483 302 L 485 277 Q 486 232 488 183 L 488 150 Q 487 113 486 72 C 485 42 523 47 524 77 Z" class="stroke15"/>
    <path d="M 666 99 Q 597 89 524 77 L 486 72 Q 410 63 331 53 Q 306 49 264 57 Q 249 58 246 47 Q 242 34 249 23 Q 271 1 302 -24 Q 312 -30 327 -23 Q 387 5 450 20 Q 643 59 685 74 C 714 83 696 103 666 99 Z" class="stroke16"/>
    <path d="M 685 74 Q 713 40 744 -6 Q 756 -25 769 -32 Q 776 -33 785 -26 Q 798 -16 792 26 Q 789 62 725 102 Q 685 127 661 138 Q 654 144 650 133 Q 649 124 666 99 L 685 74 Z" class="stroke17"/>
    <text x="248" y="711" style="transform-origin:248px 711px; transform:scale(1,-1);">1</text>
    <text x="363" y="830" style="transform-origin:363px 830px; transform:scale(1,-1);">2</text>
    <text x="133" y="590" style="transform-origin:133px 590px; transform:scale(1,-1);">3</text>
    <text x="273" y="583" style="transform-origin:273px 583px; transform:scale(1,-1);">4</text>
    <text x="418" y="616" style="transform-origin:418px 616px; transform:scale(1,-1);">5</text>
    <text x="234" y="486" style="transform-origin:234px 486px; transform:scale(1,-1);">6</text>
    <text x="168" y="393" style="transform-origin:168px 393px; transform:scale(1,-1);">7</text>
    <text x="393" y="492" style="transform-origin:393px 492px; transform:scale(1,-1);">8</text>
    <text x="621" y="787" style="transform-origin:621px 787px; transform:scale(1,-1);">9</text>
    <text x="515" y="612" style="transform-origin:515px 612px; transform:scale(1,-1);">10</text>
    <text x="529" y="549" style="transform-origin:529px 549px; transform:scale(1,-1);">11</text>
    <text x="303" y="286" style="transform-origin:303px 286px; transform:scale(1,-1);">12</text>
    <text x="360" y="282" style="transform-origin:360px 282px; transform:scale(1,-1);">13</text>
    <text x="387" y="164" style="transform-origin:387px 164px; transform:scale(1,-1);">14</text>
    <text x="472" y="386" style="transform-origin:472px 386px; transform:scale(1,-1);">15</text>
    <text x="260" y="43" style="transform-origin:260px 43px; transform:scale(1,-1);">16</text>
    <text x="658" y="130" style="transform-origin:658px 130px; transform:scale(1,-1);">17</text></g>
</svg>