<svg version="1.1" viewBox="0 0 1024 1024" xmlns="http://www.w3.org/2000/svg">
  <g stroke="lightgray" stroke-dasharray="1,1" stroke-width="1" transform="scale(4, 4)">
    <line x1="0" y1="0" x2="256" y2="256"/>
    <line x1="256" y1="0" x2="0" y2="256"/>
    <line x1="128" y1="0" x2="128" y2="256"/>
    <line x1="0" y1="128" x2="256" y2="128"/>
  </g>
  <g transform="scale(1, -1) translate(0, -900)">
    <style type="text/css">
        .stroke1 {fill: #BF0909;}
        .stroke2 {fill: #BFBF09;}
        .stroke3 {fill: #09BF09;}
        .stroke4 {fill: #09BFBF;}
        .stroke5 {fill: #0909BF;}
        .stroke6 {fill: #BF09BF;}
        .stroke7 {fill: #42005e;}
        .stroke8 {fill: #ff3333;}
        .stroke9 {fill: #BFBFBF;}
        .stroke10 {fill: #00a53f;}
        .stroke11 {fill: #fff000;}
        .stroke12 {fill: #6600a5;}
        .stroke13 {fill: #0053a5;}
        .stroke14 {fill: #62c22b;}
        .stroke15 {fill: #BF09BF;}
        .stroke16 {fill: #BF0909;}
        .stroke17 {fill: #BFBF09;}
        .stroke18 {fill: #09BF09;}
        .stroke19 {fill: #09BFBF;}
        .stroke20 {fill: #0909BF;}
        text {
            font-family: Helvetica;
            font-size: 50px;
            fill: #FFFFFF;
            paint-order: stroke;
            stroke: #000000;
            stroke-width: 4px;
            stroke-linecap: butt;
            stroke-linejoin: miter;
            font-weight: 800;
        }
    </style>

    <path d="M 287 726 Q 299 742 310 756 Q 317 766 307 777 Q 270 804 253 801 Q 244 800 246 787 Q 255 738 186 649 Q 183 646 181 642 Q 174 629 186 633 Q 225 639 275 708 L 287 726 Z" class="stroke1"/>
    <path d="M 406 713 Q 439 722 478 730 Q 506 737 512 741 Q 519 748 515 755 Q 508 764 485 769 Q 464 773 410 753 L 360 739 Q 326 732 287 726 C 257 721 252 721 275 708 Q 309 687 362 703 L 406 713 Z" class="stroke2"/>
    <path d="M 401 622 Q 453 635 520 647 Q 533 648 534 656 Q 535 666 519 674 Q 489 686 403 657 L 362 646 Q 208 609 150 601 Q 140 600 137 593 Q 136 584 148 575 Q 184 553 217 565 Q 340 613 361 612 L 401 622 Z" class="stroke3"/>
    <path d="M 263 527 Q 247 543 221 541 Q 211 537 215 528 Q 242 477 214 410 Q 199 380 222 349 Q 223 346 227 343 Q 233 333 241 337 Q 262 352 266 407 Q 270 480 273 498 C 276 516 276 516 263 527 Z" class="stroke4"/>
    <path d="M 396 532 Q 471 553 483 544 Q 487 541 493 472 Q 494 454 488 446 Q 484 437 465 442 Q 420 446 419 445 Q 415 441 428 433 Q 468 400 491 373 Q 500 364 511 368 Q 518 371 526 388 Q 539 413 539 447 Q 538 519 545 543 Q 551 556 545 563 Q 527 573 499 583 Q 484 590 472 583 Q 445 570 397 556 L 359 546 Q 317 536 263 527 C 233 522 245 487 273 498 Q 274 501 357 522 L 396 532 Z" class="stroke5"/>
    <path d="M 357 522 Q 348 393 356 367 Q 362 357 370 362 Q 386 375 391 450 Q 392 492 396 532 L 397 556 Q 398 590 401 622 L 403 657 Q 403 684 406 713 L 410 753 Q 413 783 418 800 Q 425 818 415 829 Q 402 842 375 855 Q 356 862 334 855 Q 324 848 336 833 Q 358 793 360 739 L 362 703 Q 362 676 362 646 L 361 612 Q 360 584 360 553 Q 359 550 359 546 L 357 522 Z" class="stroke6"/>
    <path d="M 574 728 Q 595 686 582 567 Q 579 540 601 514 Q 610 504 618 514 Q 631 541 633 623 Q 633 674 638 702 Q 644 721 626 732 Q 613 741 597 748 Q 587 752 578 747 Q 571 741 574 728 Z" class="stroke7"/>
    <path d="M 731 718 Q 737 570 731 493 Q 730 477 720 470 Q 714 466 641 483 Q 631 484 631 479 Q 632 472 641 465 Q 705 407 726 372 Q 739 357 753 370 Q 786 400 785 464 Q 782 494 778 683 Q 777 726 788 756 Q 795 772 781 784 Q 757 803 731 812 Q 715 818 707 811 Q 701 805 711 792 Q 732 758 731 718 Z" class="stroke8"/>
    <path d="M 495 317 Q 499 335 487 354 Q 477 364 459 367 Q 429 374 418 373 Q 411 373 411 364 Q 411 352 455 320 Q 464 314 473 311 C 493 304 493 304 495 317 Z" class="stroke9"/>
    <path d="M 443 266 Q 512 282 585 296 Q 649 311 659 320 Q 666 327 662 334 Q 656 344 631 350 Q 606 356 580 346 Q 537 331 495 317 L 473 311 Q 449 307 427 299 Q 339 278 236 268 Q 205 264 227 248 Q 257 232 325 242 Q 355 248 387 254 L 443 266 Z" class="stroke10"/>
    <path d="M 455 248 Q 452 257 443 266 C 424 289 398 282 387 254 Q 365 190 250 103 Q 247 102 245 99 Q 205 71 111 18 Q 104 15 111 11 Q 174 5 298 89 Q 304 95 311 99 Q 338 120 376 154 L 403 180 Q 433 214 451 223 C 464 231 464 231 455 248 Z" class="stroke11"/>
    <path d="M 376 154 Q 407 64 367 5 Q 343 -31 384 -73 Q 385 -74 390 -78 Q 400 -85 412 -67 Q 443 -27 549 73 Q 565 86 566 94 Q 567 107 548 96 Q 508 71 460 45 Q 442 33 434 37 Q 427 41 427 60 Q 431 117 436 131 Q 440 150 428 161 Q 415 174 403 180 C 377 196 367 183 376 154 Z" class="stroke12"/>
    <path d="M 583 176 Q 623 195 708 240 Q 727 253 751 259 Q 773 266 765 284 Q 755 302 732 318 Q 711 334 699 333 Q 687 333 689 320 Q 690 295 630 240 Q 600 215 569 186 C 547 166 556 163 583 176 Z" class="stroke13"/>
    <path d="M 569 186 Q 544 204 518 223 Q 484 250 455 248 C 425 250 423 235 451 223 Q 499 207 613 106 Q 748 -5 790 -1 Q 871 11 936 33 Q 970 43 965 51 Q 964 55 929 61 Q 758 79 702 108 Q 641 138 583 176 L 569 186 Z" class="stroke14"/>
    <text x="257" y="790" style="transform-origin:257px 790px; transform:scale(1,-1);">1</text>
    <text x="283" y="709" style="transform-origin:283px 709px; transform:scale(1,-1);">2</text>
    <text x="147" y="591" style="transform-origin:147px 591px; transform:scale(1,-1);">3</text>
    <text x="229" y="530" style="transform-origin:229px 530px; transform:scale(1,-1);">4</text>
    <text x="271" y="505" style="transform-origin:271px 505px; transform:scale(1,-1);">5</text>
    <text x="343" y="845" style="transform-origin:343px 845px; transform:scale(1,-1);">6</text>
    <text x="586" y="737" style="transform-origin:586px 737px; transform:scale(1,-1);">7</text>
    <text x="715" y="805" style="transform-origin:715px 805px; transform:scale(1,-1);">8</text>
    <text x="421" y="364" style="transform-origin:421px 364px; transform:scale(1,-1);">9</text>
    <text x="229" y="259" style="transform-origin:229px 259px; transform:scale(1,-1);">10</text>
    <text x="438" y="254" style="transform-origin:438px 254px; transform:scale(1,-1);">11</text>
    <text x="405" y="169" style="transform-origin:405px 169px; transform:scale(1,-1);">12</text>
    <text x="698" y="324" style="transform-origin:698px 324px; transform:scale(1,-1);">13</text>
    <text x="461" y="241" style="transform-origin:461px 241px; transform:scale(1,-1);">14</text></g>
</svg>