<svg version="1.1" viewBox="0 0 1024 1024" xmlns="http://www.w3.org/2000/svg">
  <g stroke="lightgray" stroke-dasharray="1,1" stroke-width="1" transform="scale(4, 4)">
    <line x1="0" y1="0" x2="256" y2="256"/>
    <line x1="256" y1="0" x2="0" y2="256"/>
    <line x1="128" y1="0" x2="128" y2="256"/>
    <line x1="0" y1="128" x2="256" y2="128"/>
  </g>
  <g transform="scale(1, -1) translate(0, -900)">
    <style type="text/css">
        .stroke1 {fill: #BF0909;}
        .stroke2 {fill: #BFBF09;}
        .stroke3 {fill: #09BF09;}
        .stroke4 {fill: #09BFBF;}
        .stroke5 {fill: #0909BF;}
        .stroke6 {fill: #BF09BF;}
        .stroke7 {fill: #42005e;}
        .stroke8 {fill: #ff3333;}
        .stroke9 {fill: #BFBFBF;}
        .stroke10 {fill: #00a53f;}
        .stroke11 {fill: #fff000;}
        .stroke12 {fill: #6600a5;}
        .stroke13 {fill: #0053a5;}
        .stroke14 {fill: #62c22b;}
        .stroke15 {fill: #BF09BF;}
        .stroke16 {fill: #BF0909;}
        .stroke17 {fill: #BFBF09;}
        .stroke18 {fill: #09BF09;}
        .stroke19 {fill: #09BFBF;}
        .stroke20 {fill: #0909BF;}
        text {
            font-family: Helvetica;
            font-size: 50px;
            fill: #FFFFFF;
            paint-order: stroke;
            stroke: #000000;
            stroke-width: 4px;
            stroke-linecap: butt;
            stroke-linejoin: miter;
            font-weight: 800;
        }
    </style>

    <path d="M 286 723 Q 316 765 335 780 Q 344 787 341 800 Q 338 810 315 832 Q 294 850 278 851 Q 262 850 267 831 Q 288 780 136 610 Q 126 601 124 597 Q 120 587 133 589 Q 170 593 270 705 L 286 723 Z" class="stroke1"/>
    <path d="M 314 568 Q 416 679 454 702 Q 470 711 460 724 Q 447 736 414 756 Q 402 762 350 742 Q 319 733 286 723 C 257 714 247 711 270 705 Q 288 696 356 709 Q 363 710 365 708 Q 369 704 363 694 Q 318 613 291 575 Q 284 565 281 558 C 267 532 294 546 314 568 Z" class="stroke2"/>
    <path d="M 195 538 Q 182 548 162 554 Q 146 561 134 557 Q 125 550 131 539 Q 147 518 152 451 Q 151 450 152 447 Q 158 315 134 215 Q 113 137 60 31 Q 56 25 55 20 Q 54 10 62 13 Q 74 14 102 57 Q 157 127 186 267 L 191 292 Q 200 362 202 479 Q 202 492 205 504 C 209 530 209 530 195 538 Z" class="stroke3"/>
    <path d="M 383 281 Q 380 128 366 118 Q 354 111 299 128 Q 286 132 286 123 Q 286 116 297 111 Q 345 69 370 39 Q 386 21 398 23 Q 408 24 419 49 Q 434 88 435 144 Q 428 381 430 469 Q 430 502 440 521 Q 450 540 441 549 Q 432 562 392 582 Q 374 591 314 568 L 281 558 Q 239 548 195 538 C 166 531 176 497 205 504 Q 211 504 219 506 Q 238 513 262 520 L 290 529 Q 353 553 369 542 Q 387 530 384 310 L 383 281 Z" class="stroke4"/>
    <path d="M 312 393 Q 330 399 351 405 Q 364 409 366 411 Q 372 418 367 424 Q 361 431 339 435 Q 324 436 314 432 L 272 416 Q 250 410 227 405 Q 200 398 221 387 Q 242 381 271 380 L 312 393 Z" class="stroke5"/>
    <path d="M 186 267 Q 192 261 213 264 Q 267 274 383 281 C 413 283 407 291 384 310 Q 381 313 378 315 Q 360 327 307 310 L 271 303 Q 228 297 191 292 C 161 288 159 281 186 267 Z" class="stroke6"/>
    <path d="M 307 310 Q 308 355 312 393 L 314 432 Q 317 505 317 507 Q 304 522 290 529 C 264 544 251 548 262 520 Q 263 514 268 509 Q 271 500 272 416 L 271 380 Q 271 349 271 303 C 271 273 306 280 307 310 Z" class="stroke7"/>
    <path d="M 619 758 Q 650 804 659 812 Q 666 821 659 834 Q 646 858 631 867 Q 621 877 606 878 Q 593 878 597 861 Q 597 858 599 855 Q 608 797 498 669 Q 492 665 492 659 Q 492 655 497 655 Q 534 664 593 726 Q 597 733 604 739 L 619 758 Z" class="stroke8"/>
    <path d="M 604 739 Q 644 715 696 727 Q 861 760 867 766 Q 874 773 871 781 Q 864 791 838 799 Q 810 803 783 793 Q 747 781 709 772 Q 667 763 619 758 C 589 755 578 753 604 739 Z" class="stroke9"/>
    <path d="M 567 629 Q 557 635 532 641 Q 522 644 518 640 Q 514 636 519 621 Q 541 566 552 476 Q 553 449 567 430 Q 580 411 586 424 Q 587 431 590 440 L 590 461 Q 590 471 589 482 Q 586 501 584 517 L 581 543 Q 577 585 576 602 C 574 625 574 625 567 629 Z" class="stroke10"/>
    <path d="M 700 455 Q 715 433 729 426 Q 739 419 751 438 Q 764 459 787 569 Q 794 596 813 617 Q 823 627 814 640 Q 801 653 763 675 Q 742 682 576 632 Q 572 631 567 629 C 538 620 547 596 576 602 Q 580 602 588 604 Q 708 649 731 636 Q 743 627 740 611 Q 722 494 708 480 C 697 460 697 460 700 455 Z" class="stroke11"/>
    <path d="M 584 517 Q 587 520 689 538 Q 710 542 701 553 Q 691 566 668 568 Q 631 571 581 543 C 555 529 556 507 584 517 Z" class="stroke12"/>
    <path d="M 590 440 Q 591 439 600 440 Q 655 450 700 455 C 730 458 734 465 708 480 Q 702 484 693 485 Q 677 486 590 461 C 561 453 560 443 590 440 Z" class="stroke13"/>
    <path d="M 565 333 Q 712 376 941 376 Q 959 376 964 384 Q 968 394 954 404 Q 909 435 879 427 Q 777 402 462 351 Q 444 348 458 335 Q 482 314 526 323 L 565 333 Z" class="stroke14"/>
    <path d="M 560 276 Q 570 289 582 301 Q 589 310 581 321 Q 574 328 565 333 C 539 349 527 353 526 323 Q 526 275 453 201 Q 446 191 458 193 Q 491 193 544 256 L 560 276 Z" class="stroke15"/>
    <path d="M 733 271 Q 751 280 807 280 Q 820 280 824 274 Q 833 250 799 122 Q 778 53 756 24 Q 744 6 730 5 Q 720 1 661 18 Q 651 22 651 16 Q 650 12 660 2 Q 690 -38 701 -67 Q 707 -85 717 -85 Q 750 -88 793 -37 Q 832 17 889 208 Q 895 230 912 243 Q 925 255 925 263 Q 919 293 850 321 Q 829 330 772 315 Q 757 312 737 306 Q 665 291 560 276 C 530 272 515 261 544 256 Q 545 256 548 255 Q 563 251 579 251 L 611 253 Q 611 254 614 254 Q 650 260 686 264 L 733 271 Z" class="stroke16"/>
    <path d="M 579 251 Q 579 250 580 248 Q 583 224 528 149 Q 503 119 471 90 Q 467 87 465 82 Q 465 78 469 78 Q 535 99 607 186 Q 619 201 626 208 Q 632 215 627 226 Q 620 244 611 253 C 592 276 575 281 579 251 Z" class="stroke17"/>
    <path d="M 686 264 Q 692 198 605 83 Q 602 82 601 79 Q 574 45 505 -22 Q 498 -26 507 -29 Q 609 -2 742 217 Q 749 227 753 232 Q 760 236 758 245 Q 755 260 733 271 C 707 286 685 294 686 264 Z" class="stroke18"/>
    <text x="278" y="838" style="transform-origin:278px 838px; transform:scale(1,-1);">1</text>
    <text x="275" y="708" style="transform-origin:275px 708px; transform:scale(1,-1);">2</text>
    <text x="141" y="547" style="transform-origin:141px 547px; transform:scale(1,-1);">3</text>
    <text x="204" y="534" style="transform-origin:204px 534px; transform:scale(1,-1);">4</text>
    <text x="222" y="397" style="transform-origin:222px 397px; transform:scale(1,-1);">5</text>
    <text x="194" y="272" style="transform-origin:194px 272px; transform:scale(1,-1);">6</text>
    <text x="271" y="518" style="transform-origin:271px 518px; transform:scale(1,-1);">7</text>
    <text x="606" y="867" style="transform-origin:606px 867px; transform:scale(1,-1);">8</text>
    <text x="613" y="740" style="transform-origin:613px 740px; transform:scale(1,-1);">9</text>
    <text x="525" y="634" style="transform-origin:525px 634px; transform:scale(1,-1);">10</text>
    <text x="574" y="624" style="transform-origin:574px 624px; transform:scale(1,-1);">11</text>
    <text x="589" y="526" style="transform-origin:589px 526px; transform:scale(1,-1);">12</text>
    <text x="595" y="445" style="transform-origin:595px 445px; transform:scale(1,-1);">13</text>
    <text x="460" y="343" style="transform-origin:460px 343px; transform:scale(1,-1);">14</text>
    <text x="562" y="319" style="transform-origin:562px 319px; transform:scale(1,-1);">15</text>
    <text x="557" y="258" style="transform-origin:557px 258px; transform:scale(1,-1);">16</text>
    <text x="584" y="251" style="transform-origin:584px 251px; transform:scale(1,-1);">17</text>
    <text x="695" y="259" style="transform-origin:695px 259px; transform:scale(1,-1);">18</text></g>
</svg>