<svg version="1.1" viewBox="0 0 1024 1024" xmlns="http://www.w3.org/2000/svg">
  <g stroke="lightgray" stroke-dasharray="1,1" stroke-width="1" transform="scale(4, 4)">
    <line x1="0" y1="0" x2="256" y2="256"/>
    <line x1="256" y1="0" x2="0" y2="256"/>
    <line x1="128" y1="0" x2="128" y2="256"/>
    <line x1="0" y1="128" x2="256" y2="128"/>
  </g>
  <g transform="scale(1, -1) translate(0, -900)">
    <style type="text/css">
        .stroke1 {fill: #BF0909;}
        .stroke2 {fill: #BFBF09;}
        .stroke3 {fill: #09BF09;}
        .stroke4 {fill: #09BFBF;}
        .stroke5 {fill: #0909BF;}
        .stroke6 {fill: #BF09BF;}
        .stroke7 {fill: #42005e;}
        .stroke8 {fill: #ff3333;}
        .stroke9 {fill: #BFBFBF;}
        .stroke10 {fill: #00a53f;}
        .stroke11 {fill: #fff000;}
        .stroke12 {fill: #6600a5;}
        .stroke13 {fill: #0053a5;}
        .stroke14 {fill: #62c22b;}
        .stroke15 {fill: #BF09BF;}
        .stroke16 {fill: #BF0909;}
        .stroke17 {fill: #BFBF09;}
        .stroke18 {fill: #09BF09;}
        .stroke19 {fill: #09BFBF;}
        .stroke20 {fill: #0909BF;}
        text {
            font-family: Helvetica;
            font-size: 50px;
            fill: #FFFFFF;
            paint-order: stroke;
            stroke: #000000;
            stroke-width: 4px;
            stroke-linecap: butt;
            stroke-linejoin: miter;
            font-weight: 800;
        }
    </style>

    <path d="M 328 649 Q 392 742 406 753 Q 415 762 411 775 Q 408 787 383 808 Q 359 826 342 826 Q 326 825 332 805 Q 357 739 167 513 Q 163 509 159 504 Q 149 494 147 489 Q 144 479 157 481 Q 194 487 310 626 L 328 649 Z" class="stroke1"/>
    <path d="M 310 626 Q 356 602 393 611 Q 444 627 679 658 Q 718 662 733 644 Q 770 599 747 310 Q 732 180 700 91 Q 687 63 674 56 Q 665 49 572 59 Q 560 59 558 56 Q 557 50 573 41 Q 619 13 648 -18 Q 670 -49 690 -43 Q 706 -39 730 -6 Q 761 37 781 116 Q 803 212 805 521 Q 804 600 824 629 Q 843 651 819 669 Q 749 717 713 708 Q 710 708 708 706 Q 509 661 328 649 C 298 647 282 637 310 626 Z" class="stroke2"/>
    <path d="M 384 547 Q 403 534 423 516 Q 433 507 446 509 Q 455 510 457 520 Q 460 532 451 554 Q 442 575 376 583 Q 364 584 360 583 Q 356 579 358 569 Q 362 562 384 547 Z" class="stroke3"/>
    <path d="M 186 451 Q 168 448 182 435 Q 206 414 248 423 Q 401 468 625 468 L 627 468 Q 643 468 647 476 Q 651 486 638 496 Q 590 529 536 512 Q 385 482 186 451 Z" class="stroke4"/>
    <path d="M 291 375 Q 275 372 294 359 Q 304 352 325 355 Q 428 371 503 383 Q 524 386 517 397 Q 507 410 485 415 Q 464 418 427 409 Q 354 390 291 375 Z" class="stroke5"/>
    <path d="M 299 303 Q 283 300 302 287 Q 312 280 333 283 Q 436 299 511 311 Q 532 314 525 325 Q 515 338 493 343 Q 472 346 435 337 Q 362 318 299 303 Z" class="stroke6"/>
    <path d="M 314 227 Q 304 233 274 235 Q 264 236 260 232 Q 256 226 264 213 Q 289 173 307 103 Q 311 82 325 69 Q 341 51 346 65 Q 349 77 346 97 L 340 130 Q 330 178 326 198 C 321 224 321 224 314 227 Z" class="stroke7"/>
    <path d="M 512 140 Q 533 185 555 196 Q 570 212 557 229 Q 544 241 497 264 Q 479 273 421 250 Q 369 237 314 227 C 284 222 297 192 326 198 Q 335 199 346 203 Q 463 222 471 218 Q 475 214 465 153 C 460 123 499 113 512 140 Z" class="stroke8"/>
    <path d="M 346 97 Q 350 97 359 98 Q 410 107 519 110 Q 529 111 531 119 Q 531 126 512 140 L 465 153 Q 461 154 455 152 Q 391 139 340 130 C 310 125 316 95 346 97 Z" class="stroke9"/>
    <text x="342" y="813" style="transform-origin:342px 813px; transform:scale(1,-1);">1</text>
    <text x="320" y="628" style="transform-origin:320px 628px; transform:scale(1,-1);">2</text>
    <text x="364" y="575" style="transform-origin:364px 575px; transform:scale(1,-1);">3</text>
    <text x="184" y="443" style="transform-origin:184px 443px; transform:scale(1,-1);">4</text>
    <text x="292" y="367" style="transform-origin:292px 367px; transform:scale(1,-1);">5</text>
    <text x="300" y="295" style="transform-origin:300px 295px; transform:scale(1,-1);">6</text>
    <text x="268" y="227" style="transform-origin:268px 227px; transform:scale(1,-1);">7</text>
    <text x="323" y="222" style="transform-origin:323px 222px; transform:scale(1,-1);">8</text>
    <text x="347" y="126" style="transform-origin:347px 126px; transform:scale(1,-1);">9</text></g>
</svg>