<svg version="1.1" viewBox="0 0 1024 1024" xmlns="http://www.w3.org/2000/svg">
  <g stroke="lightgray" stroke-dasharray="1,1" stroke-width="1" transform="scale(4, 4)">
    <line x1="0" y1="0" x2="256" y2="256"/>
    <line x1="256" y1="0" x2="0" y2="256"/>
    <line x1="128" y1="0" x2="128" y2="256"/>
    <line x1="0" y1="128" x2="256" y2="128"/>
  </g>
  <g transform="scale(1, -1) translate(0, -900)">
    <style type="text/css">
        .stroke1 {fill: #BF0909;}
        .stroke2 {fill: #BFBF09;}
        .stroke3 {fill: #09BF09;}
        .stroke4 {fill: #09BFBF;}
        .stroke5 {fill: #0909BF;}
        .stroke6 {fill: #BF09BF;}
        .stroke7 {fill: #42005e;}
        .stroke8 {fill: #ff3333;}
        .stroke9 {fill: #BFBFBF;}
        .stroke10 {fill: #00a53f;}
        .stroke11 {fill: #fff000;}
        .stroke12 {fill: #6600a5;}
        .stroke13 {fill: #0053a5;}
        .stroke14 {fill: #62c22b;}
        .stroke15 {fill: #BF09BF;}
        .stroke16 {fill: #BF0909;}
        .stroke17 {fill: #BFBF09;}
        .stroke18 {fill: #09BF09;}
        .stroke19 {fill: #09BFBF;}
        .stroke20 {fill: #0909BF;}
        text {
            font-family: Helvetica;
            font-size: 50px;
            fill: #FFFFFF;
            paint-order: stroke;
            stroke: #000000;
            stroke-width: 4px;
            stroke-linecap: butt;
            stroke-linejoin: miter;
            font-weight: 800;
        }
    </style>

    <path d="M 336 768 Q 360 747 385 722 Q 401 707 419 708 Q 431 709 436 724 Q 442 742 431 775 Q 419 808 329 823 Q 311 827 304 823 Q 298 819 300 804 Q 304 791 336 768 Z" class="stroke1"/>
    <path d="M 78 569 Q 65 566 63 558 Q 60 546 77 536 Q 119 511 161 527 Q 293 582 438 613 Q 454 617 455 624 Q 456 637 436 645 Q 408 655 384 648 Q 162 582 78 569 Z" class="stroke2"/>
    <path d="M 235 472 Q 199 459 229 447 Q 277 431 329 455 Q 357 465 389 476 Q 402 480 404 483 Q 411 493 405 501 Q 396 511 365 513 Q 344 513 277 484 Q 256 477 235 472 Z" class="stroke3"/>
    <path d="M 239 359 Q 208 349 233 337 Q 275 321 323 341 Q 354 351 389 362 Q 405 368 407 370 Q 414 379 408 386 Q 401 396 373 398 Q 352 399 286 372 Q 265 365 239 359 Z" class="stroke4"/>
    <path d="M 210 237 Q 197 241 172 244 Q 160 245 157 241 Q 151 234 160 219 Q 190 167 210 78 Q 214 51 231 35 Q 250 13 255 30 Q 259 46 255 75 L 249 105 Q 233 186 228 209 C 223 234 223 234 210 237 Z" class="stroke5"/>
    <path d="M 398 134 Q 414 204 436 226 Q 458 254 433 267 Q 412 277 384 295 Q 363 307 323 278 Q 272 254 210 237 C 181 229 201 196 228 209 Q 238 216 323 239 Q 348 246 356 237 Q 363 231 357 201 Q 351 171 344 136 C 338 107 391 105 398 134 Z" class="stroke6"/>
    <path d="M 255 75 Q 262 74 273 77 Q 315 90 408 107 Q 418 108 418 117 Q 418 124 398 134 C 374 147 372 146 344 136 Q 292 117 249 105 C 220 97 225 76 255 75 Z" class="stroke7"/>
    <path d="M 571 600 Q 611 649 656 724 Q 675 760 692 777 Q 701 787 696 801 Q 692 814 662 835 Q 635 853 616 851 Q 598 850 607 827 Q 628 788 550 648 Q 513 585 461 515 Q 452 505 450 498 Q 447 488 461 490 Q 488 499 552 576 L 571 600 Z" class="stroke8"/>
    <path d="M 552 576 Q 600 552 655 570 Q 839 618 849 627 Q 858 636 852 644 Q 845 656 814 661 Q 783 665 753 651 Q 713 635 669 621 Q 623 608 571 600 C 541 595 525 588 552 576 Z" class="stroke9"/>
    <path d="M 494 403 Q 481 400 479 393 Q 478 386 485 383 Q 519 376 610 406 Q 631 413 633 406 Q 637 399 628 382 Q 514 196 526 125 Q 530 92 555 72 Q 583 50 646 36 Q 698 24 768 28 Q 849 32 943 75 Q 968 85 963 105 Q 950 156 944 236 Q 941 249 934 249 Q 930 250 923 235 Q 913 207 903 173 Q 888 128 851 114 Q 815 93 730 90 Q 646 86 614 101 Q 584 114 575 143 Q 554 209 658 343 Q 689 385 723 404 Q 745 416 737 427 Q 730 440 682 464 Q 664 474 640 460 Q 564 418 494 403 Z" class="stroke10"/>
    <text x="311" y="814" style="transform-origin:311px 814px; transform:scale(1,-1);">1</text>
    <text x="76" y="554" style="transform-origin:76px 554px; transform:scale(1,-1);">2</text>
    <text x="229" y="460" style="transform-origin:229px 460px; transform:scale(1,-1);">3</text>
    <text x="234" y="349" style="transform-origin:234px 349px; transform:scale(1,-1);">4</text>
    <text x="166" y="234" style="transform-origin:166px 234px; transform:scale(1,-1);">5</text>
    <text x="219" y="236" style="transform-origin:219px 236px; transform:scale(1,-1);">6</text>
    <text x="259" y="84" style="transform-origin:259px 84px; transform:scale(1,-1);">7</text>
    <text x="617" y="837" style="transform-origin:617px 837px; transform:scale(1,-1);">8</text>
    <text x="561" y="578" style="transform-origin:561px 578px; transform:scale(1,-1);">9</text>
    <text x="487" y="391" style="transform-origin:487px 391px; transform:scale(1,-1);">10</text></g>
</svg>