<svg version="1.1" viewBox="0 0 1024 1024" xmlns="http://www.w3.org/2000/svg">
  <g stroke="lightgray" stroke-dasharray="1,1" stroke-width="1" transform="scale(4, 4)">
    <line x1="0" y1="0" x2="256" y2="256"/>
    <line x1="256" y1="0" x2="0" y2="256"/>
    <line x1="128" y1="0" x2="128" y2="256"/>
    <line x1="0" y1="128" x2="256" y2="128"/>
  </g>
  <g transform="scale(1, -1) translate(0, -900)">
    <style type="text/css">
        .stroke1 {fill: #BF0909;}
        .stroke2 {fill: #BFBF09;}
        .stroke3 {fill: #09BF09;}
        .stroke4 {fill: #09BFBF;}
        .stroke5 {fill: #0909BF;}
        .stroke6 {fill: #BF09BF;}
        .stroke7 {fill: #42005e;}
        .stroke8 {fill: #ff3333;}
        .stroke9 {fill: #BFBFBF;}
        .stroke10 {fill: #00a53f;}
        .stroke11 {fill: #fff000;}
        .stroke12 {fill: #6600a5;}
        .stroke13 {fill: #0053a5;}
        .stroke14 {fill: #62c22b;}
        .stroke15 {fill: #BF09BF;}
        .stroke16 {fill: #BF0909;}
        .stroke17 {fill: #BFBF09;}
        .stroke18 {fill: #09BF09;}
        .stroke19 {fill: #09BFBF;}
        .stroke20 {fill: #0909BF;}
        text {
            font-family: Helvetica;
            font-size: 50px;
            fill: #FFFFFF;
            paint-order: stroke;
            stroke: #000000;
            stroke-width: 4px;
            stroke-linecap: butt;
            stroke-linejoin: miter;
            font-weight: 800;
        }
    </style>

    <path d="M 242 757 Q 267 733 295 704 Q 308 691 324 691 Q 334 691 341 705 Q 345 720 338 749 Q 329 779 238 806 Q 222 810 216 807 Q 212 803 212 790 Q 215 780 242 757 Z" class="stroke1"/>
    <path d="M 46 543 Q 34 542 32 534 Q 31 524 44 515 Q 78 494 117 507 Q 231 552 352 577 Q 367 580 366 587 Q 367 599 350 605 Q 325 615 305 608 Q 119 556 46 543 Z" class="stroke2"/>
    <path d="M 169 447 Q 141 437 164 428 Q 194 419 251 437 Q 273 446 300 454 Q 313 460 315 462 Q 321 469 316 475 Q 309 484 285 485 Q 276 485 208 458 Q 190 452 169 447 Z" class="stroke3"/>
    <path d="M 173 347 Q 145 337 168 328 Q 198 319 255 337 Q 277 346 304 354 Q 317 360 319 362 Q 325 369 320 375 Q 313 384 289 385 Q 280 385 212 358 Q 194 352 173 347 Z" class="stroke4"/>
    <path d="M 147 216 Q 137 220 110 223 Q 100 224 96 220 Q 92 214 100 201 Q 125 161 143 91 Q 147 70 161 57 Q 177 39 182 53 Q 183 60 184 71 L 179 100 Q 164 170 162 191 C 160 212 160 212 147 216 Z" class="stroke5"/>
    <path d="M 309 131 Q 325 188 343 206 Q 362 231 341 243 Q 322 253 297 268 Q 281 277 234 248 Q 183 227 147 216 C 118 207 134 179 162 191 Q 189 203 246 217 Q 267 224 272 215 Q 279 211 272 183 Q 266 158 259 125 C 253 96 301 102 309 131 Z" class="stroke6"/>
    <path d="M 184 71 Q 190 71 197 73 Q 237 86 328 101 Q 337 102 337 110 Q 337 117 309 131 C 296 137 287 134 259 125 Q 214 110 179 100 C 150 92 154 69 184 71 Z" class="stroke7"/>
    <path d="M 586 695 Q 593 704 589 712 Q 585 721 538 736 Q 528 740 510 729 Q 485 713 419 696 Q 407 695 417 684 Q 427 674 454 682 Q 509 703 514 695 Q 518 685 505 644 Q 496 613 471 571 L 460 553 Q 385 454 339 411 Q 320 398 337 400 Q 392 404 471 502 Q 520 563 556 644 Q 566 669 576 683 L 586 695 Z" class="stroke8"/>
    <path d="M 471 571 Q 465 596 440 606 Q 412 618 400 619 Q 394 620 394 612 Q 393 606 398 601 Q 440 553 460 553 C 476 552 476 552 471 571 Z" class="stroke9"/>
    <path d="M 655 652 Q 719 713 753 739 Q 766 745 762 753 Q 755 765 738 777 Q 722 790 703 789 Q 691 788 694 772 Q 698 754 644 665 C 628 639 633 631 655 652 Z" class="stroke10"/>
    <path d="M 721 584 Q 805 644 844 667 Q 859 671 855 680 Q 851 693 834 709 Q 818 725 799 727 Q 786 726 787 710 Q 788 688 711 595 Q 710 595 710 594 C 690 571 697 567 721 584 Z" class="stroke11"/>
    <path d="M 710 594 Q 683 621 655 652 L 644 665 Q 626 690 594 696 Q 590 697 586 695 C 560 696 560 696 576 683 Q 579 680 592 670 Q 614 660 693 554 Q 807 407 866 409 Q 872 410 881 411 Q 930 418 968 424 Q 980 425 990 430 Q 997 437 987 444 Q 974 451 868 487 Q 804 509 721 584 L 710 594 Z" class="stroke12"/>
    <path d="M 486 460 Q 455 454 478 440 Q 515 419 562 435 Q 611 445 662 458 Q 684 465 688 468 Q 695 475 691 482 Q 684 492 659 497 Q 634 501 608 490 Q 583 480 554 472 Q 523 465 486 460 Z" class="stroke13"/>
    <path d="M 476 355 Q 467 359 434 362 Q 424 363 420 359 Q 416 353 425 340 Q 450 301 470 236 Q 474 217 489 205 Q 507 187 510 201 Q 511 207 511 215 L 507 244 Q 492 302 488 327 C 484 353 484 353 476 355 Z" class="stroke14"/>
    <path d="M 705 262 Q 732 313 757 323 Q 773 339 761 356 Q 748 369 702 396 Q 686 403 666 398 Q 609 377 476 355 C 446 350 459 319 488 327 Q 491 328 498 330 Q 574 342 648 355 Q 667 359 674 350 Q 680 344 677 332 Q 667 298 655 269 C 644 241 691 236 705 262 Z" class="stroke15"/>
    <path d="M 679 232 Q 692 233 712 234 Q 722 235 723 242 Q 723 248 705 262 C 688 275 684 275 655 269 Q 573 253 507 244 C 477 240 481 213 511 215 Q 512 215 516 215 Q 565 225 658 230 L 679 232 Z" class="stroke16"/>
    <path d="M 456 137 Q 492 83 503 81 Q 512 80 517 89 Q 524 99 522 123 Q 519 147 461 174 Q 449 178 444 178 Q 440 177 439 166 Q 440 157 456 137 Z" class="stroke17"/>
    <path d="M 642 57 Q 651 66 698 138 Q 705 151 720 168 Q 735 180 727 190 Q 709 224 679 232 C 664 237 664 237 658 230 Q 651 226 655 216 Q 664 186 625 87 Q 616 68 615 54 C 611 24 623 34 642 57 Z" class="stroke18"/>
    <path d="M 615 54 Q 609 54 603 53 Q 476 40 325 25 Q 304 24 319 7 Q 332 -6 349 -13 Q 370 -19 385 -14 Q 536 23 865 23 Q 883 23 902 22 Q 921 21 926 30 Q 932 40 916 55 Q 865 94 830 86 Q 757 73 642 57 L 615 54 Z" class="stroke19"/>
    <text x="221" y="801" style="transform-origin:221px 801px; transform:scale(1,-1);">1</text>
    <text x="42" y="531" style="transform-origin:42px 531px; transform:scale(1,-1);">2</text>
    <text x="164" y="438" style="transform-origin:164px 438px; transform:scale(1,-1);">3</text>
    <text x="168" y="338" style="transform-origin:168px 338px; transform:scale(1,-1);">4</text>
    <text x="104" y="215" style="transform-origin:104px 215px; transform:scale(1,-1);">5</text>
    <text x="155" y="212" style="transform-origin:155px 212px; transform:scale(1,-1);">6</text>
    <text x="189" y="79" style="transform-origin:189px 79px; transform:scale(1,-1);">7</text>
    <text x="425" y="689" style="transform-origin:425px 689px; transform:scale(1,-1);">8</text>
    <text x="403" y="610" style="transform-origin:403px 610px; transform:scale(1,-1);">9</text>
    <text x="704" y="778" style="transform-origin:704px 778px; transform:scale(1,-1);">10</text>
    <text x="845" y="677" style="transform-origin:845px 677px; transform:scale(1,-1);">11</text>
    <text x="584" y="687" style="transform-origin:584px 687px; transform:scale(1,-1);">12</text>
    <text x="480" y="451" style="transform-origin:480px 451px; transform:scale(1,-1);">13</text>
    <text x="428" y="354" style="transform-origin:428px 354px; transform:scale(1,-1);">14</text>
    <text x="487" y="351" style="transform-origin:487px 351px; transform:scale(1,-1);">15</text>
    <text x="514" y="223" style="transform-origin:514px 223px; transform:scale(1,-1);">16</text>
    <text x="446" y="170" style="transform-origin:446px 170px; transform:scale(1,-1);">17</text>
    <text x="664" y="221" style="transform-origin:664px 221px; transform:scale(1,-1);">18</text>
    <text x="322" y="16" style="transform-origin:322px 16px; transform:scale(1,-1);">19</text></g>
</svg>