<svg version="1.1" viewBox="0 0 1024 1024" xmlns="http://www.w3.org/2000/svg">
  <g stroke="lightgray" stroke-dasharray="1,1" stroke-width="1" transform="scale(4, 4)">
    <line x1="0" y1="0" x2="256" y2="256"/>
    <line x1="256" y1="0" x2="0" y2="256"/>
    <line x1="128" y1="0" x2="128" y2="256"/>
    <line x1="0" y1="128" x2="256" y2="128"/>
  </g>
  <g transform="scale(1, -1) translate(0, -900)">
    <style type="text/css">
        .stroke1 {fill: #BF0909;}
        .stroke2 {fill: #BFBF09;}
        .stroke3 {fill: #09BF09;}
        .stroke4 {fill: #09BFBF;}
        .stroke5 {fill: #0909BF;}
        .stroke6 {fill: #BF09BF;}
        .stroke7 {fill: #42005e;}
        .stroke8 {fill: #ff3333;}
        .stroke9 {fill: #BFBFBF;}
        .stroke10 {fill: #00a53f;}
        .stroke11 {fill: #fff000;}
        .stroke12 {fill: #6600a5;}
        .stroke13 {fill: #0053a5;}
        .stroke14 {fill: #62c22b;}
        .stroke15 {fill: #BF09BF;}
        .stroke16 {fill: #BF0909;}
        .stroke17 {fill: #BFBF09;}
        .stroke18 {fill: #09BF09;}
        .stroke19 {fill: #09BFBF;}
        .stroke20 {fill: #0909BF;}
        text {
            font-family: Helvetica;
            font-size: 50px;
            fill: #FFFFFF;
            paint-order: stroke;
            stroke: #000000;
            stroke-width: 4px;
            stroke-linecap: butt;
            stroke-linejoin: miter;
            font-weight: 800;
        }
    </style>

    <path d="M 291 725 Q 330 700 371 669 Q 387 656 405 659 Q 417 660 421 676 Q 424 692 410 724 Q 394 760 280 777 Q 262 778 256 775 Q 250 771 254 757 Q 260 745 291 725 Z" class="stroke1"/>
    <path d="M 172 505 Q 118 489 89 486 Q 73 487 71 478 Q 67 469 79 461 Q 118 439 158 450 Q 273 504 281 502 Q 282 502 286 500 Q 298 493 291 463 Q 291 283 259 174 Q 243 140 292 89 Q 304 76 314 84 Q 321 91 332 118 Q 368 179 446 285 Q 458 298 454 306 Q 451 315 440 303 Q 400 267 360 229 Q 327 198 330 241 Q 329 302 349 456 Q 353 481 376 508 Q 389 518 379 532 Q 367 550 326 567 Q 313 574 295 562 Q 216 519 172 505 Z" class="stroke2"/>
    <path d="M 663 608 Q 715 621 769 633 Q 812 645 819 651 Q 829 660 823 668 Q 816 680 786 687 Q 755 691 725 679 Q 694 669 663 658 L 615 644 Q 555 631 489 622 Q 452 615 479 599 Q 521 578 590 593 Q 600 596 615 598 L 663 608 Z" class="stroke3"/>
    <path d="M 662 481 Q 795 511 803 518 Q 812 525 807 533 Q 800 543 773 550 Q 746 554 662 524 L 613 511 Q 564 501 508 494 Q 474 488 499 473 Q 535 454 598 468 Q 604 469 612 470 L 662 481 Z" class="stroke4"/>
    <path d="M 661 366 Q 817 405 840 387 Q 847 381 846 368 Q 824 229 810 209 Q 803 196 788 201 Q 758 205 727 211 Q 700 212 720 196 Q 780 147 804 112 Q 811 99 824 106 Q 852 124 877 227 Q 893 332 917 357 Q 932 378 926 386 Q 917 399 866 432 Q 847 447 832 440 Q 804 428 750 420 Q 699 413 661 403 L 610 393 Q 577 387 558 380 Q 518 370 488 364 Q 466 360 462 351 Q 459 344 478 335 Q 511 314 543 328 Q 568 340 609 352 L 661 366 Z" class="stroke5"/>
    <path d="M 661 403 Q 661 439 662 481 L 662 524 Q 662 564 663 608 L 663 658 Q 663 709 678 788 Q 682 807 667 816 Q 633 838 616 842 Q 603 846 586 837 Q 577 828 585 818 Q 591 805 599 793 Q 615 762 616 718 Q 616 684 615 644 L 615 598 Q 614 558 613 511 L 612 470 Q 611 433 610 393 L 609 352 Q 597 1 621 -33 Q 627 -40 635 -38 Q 650 -29 657 34 Q 667 139 665 243 Q 662 282 661 366 L 661 403 Z" class="stroke6"/>
    <text x="262" y="767" style="transform-origin:262px 767px; transform:scale(1,-1);">1</text>
    <text x="83" y="474" style="transform-origin:83px 474px; transform:scale(1,-1);">2</text>
    <text x="481" y="612" style="transform-origin:481px 612px; transform:scale(1,-1);">3</text>
    <text x="501" y="485" style="transform-origin:501px 485px; transform:scale(1,-1);">4</text>
    <text x="471" y="350" style="transform-origin:471px 350px; transform:scale(1,-1);">5</text>
    <text x="594" y="827" style="transform-origin:594px 827px; transform:scale(1,-1);">6</text></g>
</svg>