<svg version="1.1" viewBox="0 0 1024 1024" xmlns="http://www.w3.org/2000/svg">
  <g stroke="lightgray" stroke-dasharray="1,1" stroke-width="1" transform="scale(4, 4)">
    <line x1="0" y1="0" x2="256" y2="256"/>
    <line x1="256" y1="0" x2="0" y2="256"/>
    <line x1="128" y1="0" x2="128" y2="256"/>
    <line x1="0" y1="128" x2="256" y2="128"/>
  </g>
  <g transform="scale(1, -1) translate(0, -900)">
    <style type="text/css">
        .stroke1 {fill: #BF0909;}
        .stroke2 {fill: #BFBF09;}
        .stroke3 {fill: #09BF09;}
        .stroke4 {fill: #09BFBF;}
        .stroke5 {fill: #0909BF;}
        .stroke6 {fill: #BF09BF;}
        .stroke7 {fill: #42005e;}
        .stroke8 {fill: #ff3333;}
        .stroke9 {fill: #BFBFBF;}
        .stroke10 {fill: #00a53f;}
        .stroke11 {fill: #fff000;}
        .stroke12 {fill: #6600a5;}
        .stroke13 {fill: #0053a5;}
        .stroke14 {fill: #62c22b;}
        .stroke15 {fill: #BF09BF;}
        .stroke16 {fill: #BF0909;}
        .stroke17 {fill: #BFBF09;}
        .stroke18 {fill: #09BF09;}
        .stroke19 {fill: #09BFBF;}
        .stroke20 {fill: #0909BF;}
        text {
            font-family: Helvetica;
            font-size: 50px;
            fill: #FFFFFF;
            paint-order: stroke;
            stroke: #000000;
            stroke-width: 4px;
            stroke-linecap: butt;
            stroke-linejoin: miter;
            font-weight: 800;
        }
    </style>

    <path d="M 289 720 Q 326 692 367 659 Q 383 646 400 648 Q 412 649 417 664 Q 421 680 409 713 Q 394 752 280 772 Q 262 775 256 771 Q 250 767 253 753 Q 257 740 289 720 Z" class="stroke1"/>
    <path d="M 161 470 Q 110 454 82 453 Q 67 453 64 446 Q 60 437 72 429 Q 111 402 140 414 Q 185 435 226 456 Q 254 469 264 462 Q 273 456 266 352 Q 266 246 237 149 Q 219 119 264 64 Q 274 51 285 58 Q 292 65 304 90 Q 343 138 424 219 Q 437 231 434 238 Q 433 247 421 237 Q 384 215 347 190 Q 295 148 305 212 Q 304 272 324 419 Q 328 444 351 468 Q 363 478 353 492 Q 343 508 302 526 Q 290 533 272 521 Q 202 484 161 470 Z" class="stroke2"/>
    <path d="M 667 591 Q 784 628 785 629 Q 792 636 788 645 Q 781 655 751 661 Q 727 664 671 641 L 621 624 Q 617 624 615 623 Q 569 610 515 601 Q 479 592 506 578 Q 551 557 603 575 Q 610 578 621 579 L 667 591 Z" class="stroke3"/>
    <path d="M 657 463 Q 661 529 667 591 L 671 641 Q 672 695 692 769 Q 695 779 676 793 Q 643 812 621 816 Q 605 819 598 811 Q 591 804 598 790 Q 617 760 618 740 Q 621 685 621 624 L 621 579 Q 620 519 617 454 C 616 424 655 433 657 463 Z" class="stroke4"/>
    <path d="M 639 421 Q 664 427 879 446 Q 898 447 901 455 Q 905 467 890 478 Q 833 514 772 492 Q 724 480 657 463 L 617 454 Q 532 438 434 417 Q 415 414 430 399 Q 460 375 522 394 Q 558 404 600 413 L 639 421 Z" class="stroke5"/>
    <path d="M 665 242 Q 803 275 807 277 Q 816 284 811 293 Q 804 303 776 311 Q 752 315 667 289 L 616 276 Q 564 266 505 260 Q 469 254 495 238 Q 529 217 601 230 Q 607 231 616 232 L 665 242 Z" class="stroke6"/>
    <path d="M 659 108 Q 662 180 665 242 L 667 289 Q 670 394 671 395 L 670 396 Q 654 412 639 421 C 614 438 590 441 600 413 Q 615 377 616 276 L 616 232 Q 616 180 616 102 C 616 72 658 78 659 108 Z" class="stroke7"/>
    <path d="M 616 102 Q 519 92 409 78 Q 387 77 403 59 Q 416 46 435 39 Q 456 33 472 38 Q 608 74 879 73 Q 895 73 910 72 Q 929 72 935 80 Q 939 92 924 106 Q 870 146 806 132 Q 746 122 659 108 L 616 102 Z" class="stroke8"/>
    <text x="263" y="763" style="transform-origin:263px 763px; transform:scale(1,-1);">1</text>
    <text x="73" y="442" style="transform-origin:73px 442px; transform:scale(1,-1);">2</text>
    <text x="508" y="591" style="transform-origin:508px 591px; transform:scale(1,-1);">3</text>
    <text x="610" y="801" style="transform-origin:610px 801px; transform:scale(1,-1);">4</text>
    <text x="432" y="408" style="transform-origin:432px 408px; transform:scale(1,-1);">5</text>
    <text x="497" y="250" style="transform-origin:497px 250px; transform:scale(1,-1);">6</text>
    <text x="607" y="411" style="transform-origin:607px 411px; transform:scale(1,-1);">7</text>
    <text x="406" y="69" style="transform-origin:406px 69px; transform:scale(1,-1);">8</text></g>
</svg>