<svg version="1.1" viewBox="0 0 1024 1024" xmlns="http://www.w3.org/2000/svg">
  <g stroke="lightgray" stroke-dasharray="1,1" stroke-width="1" transform="scale(4, 4)">
    <line x1="0" y1="0" x2="256" y2="256"/>
    <line x1="256" y1="0" x2="0" y2="256"/>
    <line x1="128" y1="0" x2="128" y2="256"/>
    <line x1="0" y1="128" x2="256" y2="128"/>
  </g>
  <g transform="scale(1, -1) translate(0, -900)">
    <style type="text/css">
        .stroke1 {fill: #BF0909;}
        .stroke2 {fill: #BFBF09;}
        .stroke3 {fill: #09BF09;}
        .stroke4 {fill: #09BFBF;}
        .stroke5 {fill: #0909BF;}
        .stroke6 {fill: #BF09BF;}
        .stroke7 {fill: #42005e;}
        .stroke8 {fill: #ff3333;}
        .stroke9 {fill: #BFBFBF;}
        .stroke10 {fill: #00a53f;}
        .stroke11 {fill: #fff000;}
        .stroke12 {fill: #6600a5;}
        .stroke13 {fill: #0053a5;}
        .stroke14 {fill: #62c22b;}
        .stroke15 {fill: #BF09BF;}
        .stroke16 {fill: #BF0909;}
        .stroke17 {fill: #BFBF09;}
        .stroke18 {fill: #09BF09;}
        .stroke19 {fill: #09BFBF;}
        .stroke20 {fill: #0909BF;}
        text {
            font-family: Helvetica;
            font-size: 50px;
            fill: #FFFFFF;
            paint-order: stroke;
            stroke: #000000;
            stroke-width: 4px;
            stroke-linecap: butt;
            stroke-linejoin: miter;
            font-weight: 800;
        }
    </style>

    <path d="M 342 797 Q 346 778 337 763 Q 306 717 264 675 Q 224 635 172 593 Q 162 586 158 581 Q 154 572 165 572 Q 213 568 357 696 Q 384 723 402 733 Q 412 740 412 753 Q 411 765 391 790 Q 372 811 356 815 Q 340 816 342 797 Z" class="stroke1"/>
    <path d="M 544 852 Q 550 848 557 844 Q 578 834 663 736 Q 780 600 840 602 Q 847 603 855 605 Q 904 615 940 622 Q 952 625 963 630 Q 969 637 958 643 Q 945 650 838 680 Q 745 705 606 850 Q 588 869 560 872 Q 548 873 539 866 Q 535 859 544 852 Z" class="stroke2"/>
    <path d="M 453 654 Q 514 673 564 682 Q 580 685 583 680 Q 589 673 587 654 Q 586 602 576 577 Q 560 549 534 554 Q 515 558 498 565 Q 476 572 491 550 Q 525 513 540 484 Q 552 469 564 479 Q 612 507 641 632 Q 648 663 661 678 Q 671 690 666 700 Q 659 710 611 731 Q 592 738 574 726 Q 556 716 485 697 Q 415 676 353 671 Q 337 670 335 661 Q 334 654 356 644 Q 378 631 396 638 Q 409 642 425 647 L 453 654 Z" class="stroke3"/>
    <path d="M 425 647 Q 424 647 425 646 Q 425 591 289 471 Q 280 468 277 459 Q 277 455 281 455 Q 311 449 391 517 Q 425 548 449 575 Q 462 593 472 600 Q 479 607 475 620 Q 466 641 453 654 C 433 676 427 677 425 647 Z" class="stroke4"/>
    <path d="M 376 431 Q 369 438 352 445 Q 343 449 333 446 Q 326 442 332 431 Q 356 344 335 232 Q 323 220 331 182 Q 338 155 351 141 Q 361 129 370 140 Q 376 147 378 157 L 382 186 Q 383 201 384 237 L 385 262 Q 386 293 388 315 L 389 341 Q 390 387 392 391 Q 393 398 393 403 C 394 417 394 417 376 431 Z" class="stroke5"/>
    <path d="M 626 177 Q 627 171 632 165 Q 645 137 654 138 Q 667 139 683 171 Q 693 189 694 240 Q 682 378 708 416 Q 718 432 710 441 Q 685 465 638 484 Q 623 488 601 481 Q 526 450 376 431 C 346 427 363 398 393 403 Q 397 403 402 404 Q 507 429 584 443 Q 611 449 619 435 Q 631 420 631 372 Q 632 239 626 210 L 626 177 Z" class="stroke6"/>
    <path d="M 388 315 Q 394 314 402 315 Q 493 331 559 341 Q 581 345 573 357 Q 563 370 539 375 Q 515 378 389 341 C 360 333 358 317 388 315 Z" class="stroke7"/>
    <path d="M 384 237 Q 391 236 403 237 Q 500 250 570 258 Q 592 261 585 273 Q 575 286 551 292 Q 527 296 385 262 C 356 255 354 239 384 237 Z" class="stroke8"/>
    <path d="M 378 157 Q 385 156 395 157 Q 528 172 626 177 C 656 179 653 197 626 210 Q 622 213 616 214 Q 594 218 555 212 Q 464 199 382 186 C 352 181 348 159 378 157 Z" class="stroke9"/>
    <path d="M 396 117 Q 378 62 227 -40 Q 203 -53 231 -53 Q 294 -56 410 30 Q 413 36 465 72 Q 477 82 476 93 Q 475 106 449 118 Q 421 133 408 131 Q 401 130 396 117 Z" class="stroke10"/>
    <path d="M 597 95 Q 648 46 707 -23 Q 723 -45 740 -50 Q 749 -51 757 -41 Q 770 -28 758 19 Q 751 61 674 96 Q 626 118 599 128 Q 589 134 587 121 Q 586 106 597 95 Z" class="stroke11"/>
    <text x="354" y="802" style="transform-origin:354px 802px; transform:scale(1,-1);">1</text>
    <text x="548" y="861" style="transform-origin:548px 861px; transform:scale(1,-1);">2</text>
    <text x="343" y="660" style="transform-origin:343px 660px; transform:scale(1,-1);">3</text>
    <text x="433" y="647" style="transform-origin:433px 647px; transform:scale(1,-1);">4</text>
    <text x="339" y="438" style="transform-origin:339px 438px; transform:scale(1,-1);">5</text>
    <text x="386" y="431" style="transform-origin:386px 431px; transform:scale(1,-1);">6</text>
    <text x="395" y="321" style="transform-origin:395px 321px; transform:scale(1,-1);">7</text>
    <text x="389" y="243" style="transform-origin:389px 243px; transform:scale(1,-1);">8</text>
    <text x="382" y="164" style="transform-origin:382px 164px; transform:scale(1,-1);">9</text>
    <text x="459" y="91" style="transform-origin:459px 91px; transform:scale(1,-1);">10</text>
    <text x="598" y="115" style="transform-origin:598px 115px; transform:scale(1,-1);">11</text></g>
</svg>