<svg version="1.1" viewBox="0 0 1024 1024" xmlns="http://www.w3.org/2000/svg">
  <g stroke="lightgray" stroke-dasharray="1,1" stroke-width="1" transform="scale(4, 4)">
    <line x1="0" y1="0" x2="256" y2="256"/>
    <line x1="256" y1="0" x2="0" y2="256"/>
    <line x1="128" y1="0" x2="128" y2="256"/>
    <line x1="0" y1="128" x2="256" y2="128"/>
  </g>
  <g transform="scale(1, -1) translate(0, -900)">
    <style type="text/css">
        .stroke1 {fill: #BF0909;}
        .stroke2 {fill: #BFBF09;}
        .stroke3 {fill: #09BF09;}
        .stroke4 {fill: #09BFBF;}
        .stroke5 {fill: #0909BF;}
        .stroke6 {fill: #BF09BF;}
        .stroke7 {fill: #42005e;}
        .stroke8 {fill: #ff3333;}
        .stroke9 {fill: #BFBFBF;}
        .stroke10 {fill: #00a53f;}
        .stroke11 {fill: #fff000;}
        .stroke12 {fill: #6600a5;}
        .stroke13 {fill: #0053a5;}
        .stroke14 {fill: #62c22b;}
        .stroke15 {fill: #BF09BF;}
        .stroke16 {fill: #BF0909;}
        .stroke17 {fill: #BFBF09;}
        .stroke18 {fill: #09BF09;}
        .stroke19 {fill: #09BFBF;}
        .stroke20 {fill: #0909BF;}
        text {
            font-family: Helvetica;
            font-size: 50px;
            fill: #FFFFFF;
            paint-order: stroke;
            stroke: #000000;
            stroke-width: 4px;
            stroke-linecap: butt;
            stroke-linejoin: miter;
            font-weight: 800;
        }
    </style>

    <path d="M 214 694 Q 204 700 174 704 Q 164 707 160 702 Q 156 696 163 682 Q 190 627 206 536 Q 210 508 225 490 Q 241 471 246 485 Q 249 495 249 510 L 246 540 Q 246 543 246 545 Q 228 636 224 666 C 220 691 220 691 214 694 Z" class="stroke1"/>
    <path d="M 391 568 Q 410 649 432 672 Q 454 697 432 711 Q 369 744 366 744 Q 357 744 349 739 Q 306 711 214 694 C 185 688 195 659 224 666 Q 272 678 323 689 Q 350 696 356 685 Q 363 679 356 648 Q 349 612 341 570 C 335 541 384 539 391 568 Z" class="stroke2"/>
    <path d="M 308 521 Q 342 530 403 539 Q 413 540 413 549 Q 413 556 391 568 L 341 570 L 340 570 Q 288 552 246 540 C 217 532 219 509 249 510 Q 255 510 271 512 L 308 521 Z" class="stroke3"/>
    <path d="M 329 232 Q 332 317 335 387 L 336 419 Q 337 432 338 446 Q 341 491 337 497 Q 322 512 308 521 C 283 538 260 540 271 512 Q 283 488 286 387 Q 286 329 287 220 C 287 190 328 202 329 232 Z" class="stroke4"/>
    <path d="M 335 387 Q 387 400 426 408 Q 448 414 438 425 Q 426 438 402 439 Q 356 439 336 419 C 314 399 306 380 335 387 Z" class="stroke5"/>
    <path d="M 222 205 Q 210 335 213 366 Q 214 388 200 398 Q 178 414 150 421 Q 137 425 129 419 Q 122 412 129 398 Q 147 371 156 341 Q 163 311 183 195 C 188 165 225 175 222 205 Z" class="stroke6"/>
    <path d="M 183 195 Q 108 185 96 184 Q 83 183 81 173 Q 78 160 87 150 Q 109 134 143 112 Q 153 108 167 117 Q 203 144 377 212 Q 402 222 420 235 Q 433 242 435 252 Q 429 258 416 256 Q 374 244 329 232 L 287 220 Q 256 213 222 205 L 183 195 Z" class="stroke7"/>
    <path d="M 577 758 Q 607 737 640 713 Q 655 703 671 704 Q 681 705 685 720 Q 688 736 675 764 Q 662 792 565 805 Q 549 806 544 803 Q 540 799 542 786 Q 548 776 577 758 Z" class="stroke8"/>
    <path d="M 707 647 Q 764 659 822 672 Q 823 675 826 678 Q 827 688 804 699 Q 761 715 694 691 Q 601 667 463 641 Q 435 637 457 620 Q 493 596 520 604 Q 580 620 657 636 L 707 647 Z" class="stroke9"/>
    <path d="M 669 467 Q 697 509 711 558 Q 721 598 732 610 Q 739 622 732 630 Q 723 640 707 647 C 681 661 645 664 657 636 Q 684 585 633 493 L 611 463 Q 556 405 431 368 Q 415 361 434 358 Q 560 349 644 431 L 669 467 Z" class="stroke10"/>
    <path d="M 644 431 Q 647 430 650 426 Q 767 317 806 320 Q 884 327 945 342 Q 976 349 973 358 Q 972 362 940 370 Q 913 376 884 381 Q 751 414 673 464 Q 670 467 669 467 L 633 493 Q 608 512 580 535 Q 543 566 512 564 Q 496 563 494 558 Q 493 551 508 543 Q 538 530 611 463 L 644 431 Z" class="stroke11"/>
    <path d="M 501 313 Q 528 274 505 170 Q 481 82 390 9 Q 380 0 390 -1 Q 435 -1 488 54 Q 545 108 563 229 Q 567 268 577 288 Q 584 304 570 311 Q 527 338 506 330 Q 494 326 501 313 Z" class="stroke12"/>
    <path d="M 699 -6 Q 705 -28 711 -38 Q 715 -44 723 -42 Q 738 -33 741 21 Q 741 246 750 300 Q 753 316 740 324 Q 710 343 696 346 Q 684 350 670 342 Q 663 335 669 325 Q 681 306 684 285 Q 688 210 692 92 Q 695 19 699 -6 Z" class="stroke13"/>
    <text x="168" y="697" style="transform-origin:168px 697px; transform:scale(1,-1);">1</text>
    <text x="225" y="690" style="transform-origin:225px 690px; transform:scale(1,-1);">2</text>
    <text x="253" y="518" style="transform-origin:253px 518px; transform:scale(1,-1);">3</text>
    <text x="278" y="511" style="transform-origin:278px 511px; transform:scale(1,-1);">4</text>
    <text x="343" y="392" style="transform-origin:343px 392px; transform:scale(1,-1);">5</text>
    <text x="137" y="411" style="transform-origin:137px 411px; transform:scale(1,-1);">6</text>
    <text x="95" y="170" style="transform-origin:95px 170px; transform:scale(1,-1);">7</text>
    <text x="550" y="797" style="transform-origin:550px 797px; transform:scale(1,-1);">8</text>
    <text x="458" y="631" style="transform-origin:458px 631px; transform:scale(1,-1);">9</text>
    <text x="664" y="633" style="transform-origin:664px 633px; transform:scale(1,-1);">10</text>
    <text x="500" y="556" style="transform-origin:500px 556px; transform:scale(1,-1);">11</text>
    <text x="508" y="320" style="transform-origin:508px 320px; transform:scale(1,-1);">12</text>
    <text x="679" y="333" style="transform-origin:679px 333px; transform:scale(1,-1);">13</text></g>
</svg>