<svg version="1.1" viewBox="0 0 1024 1024" xmlns="http://www.w3.org/2000/svg">
  <g stroke="lightgray" stroke-dasharray="1,1" stroke-width="1" transform="scale(4, 4)">
    <line x1="0" y1="0" x2="256" y2="256"/>
    <line x1="256" y1="0" x2="0" y2="256"/>
    <line x1="128" y1="0" x2="128" y2="256"/>
    <line x1="0" y1="128" x2="256" y2="128"/>
  </g>
  <g transform="scale(1, -1) translate(0, -900)">
    <style type="text/css">
        .stroke1 {fill: #BF0909;}
        .stroke2 {fill: #BFBF09;}
        .stroke3 {fill: #09BF09;}
        .stroke4 {fill: #09BFBF;}
        .stroke5 {fill: #0909BF;}
        .stroke6 {fill: #BF09BF;}
        .stroke7 {fill: #42005e;}
        .stroke8 {fill: #ff3333;}
        .stroke9 {fill: #BFBFBF;}
        .stroke10 {fill: #00a53f;}
        .stroke11 {fill: #fff000;}
        .stroke12 {fill: #6600a5;}
        .stroke13 {fill: #0053a5;}
        .stroke14 {fill: #62c22b;}
        .stroke15 {fill: #BF09BF;}
        .stroke16 {fill: #BF0909;}
        .stroke17 {fill: #BFBF09;}
        .stroke18 {fill: #09BF09;}
        .stroke19 {fill: #09BFBF;}
        .stroke20 {fill: #0909BF;}
        text {
            font-family: Helvetica;
            font-size: 50px;
            fill: #FFFFFF;
            paint-order: stroke;
            stroke: #000000;
            stroke-width: 4px;
            stroke-linecap: butt;
            stroke-linejoin: miter;
            font-weight: 800;
        }
    </style>

    <path d="M 306 608 Q 355 621 406 631 Q 442 640 447 645 Q 456 652 451 661 Q 444 671 416 678 Q 389 684 331 662 L 274 646 Q 225 634 168 628 Q 134 621 159 606 Q 198 584 253 597 Q 254 598 257 598 L 306 608 Z" class="stroke1"/>
    <path d="M 371 391 Q 398 398 423 399 Q 454 402 444 416 Q 435 429 417 436 Q 399 442 373 431 L 322 418 Q 283 411 239 401 Q 226 398 223 401 Q 222 402 224 414 Q 258 502 306 608 L 331 662 Q 364 732 379 746 Q 392 758 375 778 Q 350 806 329 820 Q 316 827 305 825 Q 296 821 302 799 Q 308 766 274 646 L 257 598 Q 193 438 153 400 Q 137 384 142 368 Q 149 347 160 337 Q 170 327 181 332 Q 215 351 303 376 Q 312 379 322 381 L 371 391 Z" class="stroke2"/>
    <path d="M 314 230 Q 305 122 297 96 Q 288 60 321 5 Q 331 -14 340 -19 Q 352 -20 357 -7 Q 370 26 367 56 Q 366 159 367 251 L 367 285 Q 368 312 369 337 Q 369 367 371 391 L 373 431 Q 374 459 379 475 Q 382 488 374 494 Q 352 515 332 525 Q 319 529 310 521 Q 304 517 311 507 Q 320 492 322 418 L 322 381 Q 319 279 317 270 L 314 230 Z" class="stroke3"/>
    <path d="M 367 251 Q 434 279 452 291 Q 465 298 466 308 Q 462 312 449 311 Q 409 298 367 285 L 317 270 Q 238 249 154 227 Q 133 221 99 222 Q 86 221 84 211 Q 83 198 91 190 Q 113 174 145 154 Q 155 150 168 159 Q 220 195 314 230 L 367 251 Z" class="stroke4"/>
    <path d="M 555 508 Q 556 520 584 577 Q 591 590 575 600 Q 529 619 511 612 Q 501 608 506 596 Q 531 539 484 445 Q 472 423 467 411 Q 463 396 475 403 Q 506 416 545 486 L 555 508 Z" class="stroke5"/>
    <path d="M 687 491 Q 814 524 820 529 Q 829 536 824 545 Q 817 555 788 562 Q 763 565 690 538 L 642 524 Q 602 515 555 508 C 525 503 517 496 545 486 Q 594 468 639 479 L 687 491 Z" class="stroke6"/>
    <path d="M 676 346 Q 757 359 890 360 Q 908 361 912 369 Q 916 379 901 391 Q 852 427 780 406 Q 737 397 679 384 L 630 375 Q 554 363 466 348 Q 447 345 462 331 Q 475 319 491 315 Q 510 311 525 315 Q 571 330 626 338 L 676 346 Z" class="stroke7"/>
    <path d="M 675 342 Q 675 343 676 346 L 679 384 Q 679 388 680 390 Q 683 442 687 491 L 690 538 Q 696 677 721 731 Q 728 747 719 759 Q 695 778 655 791 Q 630 798 620 791 Q 610 784 618 771 Q 640 732 643 683 Q 644 602 642 524 L 639 479 Q 636 427 630 375 L 626 338 Q 605 209 537 140 Q 489 98 403 55 Q 390 48 389 43 Q 390 39 402 38 Q 418 34 461 48 Q 603 87 653 232 Q 662 263 669 298 L 675 342 Z" class="stroke8"/>
    <path d="M 669 298 Q 739 148 798 65 Q 814 38 835 36 Q 893 37 942 36 Q 964 36 964 41 Q 967 47 944 63 Q 821 138 771 205 Q 723 266 675 342 C 659 367 656 325 669 298 Z" class="stroke9"/>
    <text x="161" y="618" style="transform-origin:161px 618px; transform:scale(1,-1);">1</text>
    <text x="311" y="816" style="transform-origin:311px 816px; transform:scale(1,-1);">2</text>
    <text x="319" y="515" style="transform-origin:319px 515px; transform:scale(1,-1);">3</text>
    <text x="98" y="208" style="transform-origin:98px 208px; transform:scale(1,-1);">4</text>
    <text x="514" y="602" style="transform-origin:514px 602px; transform:scale(1,-1);">5</text>
    <text x="555" y="488" style="transform-origin:555px 488px; transform:scale(1,-1);">6</text>
    <text x="464" y="340" style="transform-origin:464px 340px; transform:scale(1,-1);">7</text>
    <text x="627" y="780" style="transform-origin:627px 780px; transform:scale(1,-1);">8</text>
    <text x="678" y="334" style="transform-origin:678px 334px; transform:scale(1,-1);">9</text></g>
</svg>