<svg version="1.1" viewBox="0 0 1024 1024" xmlns="http://www.w3.org/2000/svg">
  <g stroke="lightgray" stroke-dasharray="1,1" stroke-width="1" transform="scale(4, 4)">
    <line x1="0" y1="0" x2="256" y2="256"/>
    <line x1="256" y1="0" x2="0" y2="256"/>
    <line x1="128" y1="0" x2="128" y2="256"/>
    <line x1="0" y1="128" x2="256" y2="128"/>
  </g>
  <g transform="scale(1, -1) translate(0, -900)">
    <style type="text/css">
        .stroke1 {fill: #BF0909;}
        .stroke2 {fill: #BFBF09;}
        .stroke3 {fill: #09BF09;}
        .stroke4 {fill: #09BFBF;}
        .stroke5 {fill: #0909BF;}
        .stroke6 {fill: #BF09BF;}
        .stroke7 {fill: #42005e;}
        .stroke8 {fill: #ff3333;}
        .stroke9 {fill: #BFBFBF;}
        .stroke10 {fill: #00a53f;}
        .stroke11 {fill: #fff000;}
        .stroke12 {fill: #6600a5;}
        .stroke13 {fill: #0053a5;}
        .stroke14 {fill: #62c22b;}
        .stroke15 {fill: #BF09BF;}
        .stroke16 {fill: #BF0909;}
        .stroke17 {fill: #BFBF09;}
        .stroke18 {fill: #09BF09;}
        .stroke19 {fill: #09BFBF;}
        .stroke20 {fill: #0909BF;}
        text {
            font-family: Helvetica;
            font-size: 50px;
            fill: #FFFFFF;
            paint-order: stroke;
            stroke: #000000;
            stroke-width: 4px;
            stroke-linecap: butt;
            stroke-linejoin: miter;
            font-weight: 800;
        }
    </style>

    <path d="M 377 686 Q 399 693 427 700 Q 452 707 457 712 Q 464 719 459 726 Q 452 736 427 740 Q 405 744 382 734 L 325 712 Q 265 697 237 693 Q 206 686 230 672 Q 269 654 317 670 Q 318 671 324 671 L 377 686 Z" class="stroke1"/>
    <path d="M 356 589 Q 402 602 463 611 Q 478 612 478 620 Q 479 630 463 638 Q 435 650 368 628 L 315 615 Q 230 597 155 585 Q 145 584 141 577 Q 140 568 152 559 Q 188 535 221 548 Q 264 564 301 574 L 356 589 Z" class="stroke2"/>
    <path d="M 349 571 Q 350 578 356 589 L 368 628 Q 372 650 376 674 Q 376 681 377 686 L 382 734 Q 383 755 393 774 Q 400 790 384 798 Q 336 826 314 817 Q 302 811 309 798 Q 324 776 325 712 L 324 671 Q 321 635 315 615 L 301 574 Q 268 504 182 426 Q 170 416 182 415 Q 236 421 294 484 Q 327 515 341 551 Q 342 554 343 556 L 349 571 Z" class="stroke3"/>
    <path d="M 343 556 Q 346 549 359 538 Q 380 519 401 497 Q 408 488 419 488 Q 426 488 430 497 Q 433 506 429 525 Q 422 549 358 569 Q 352 570 349 571 C 332 576 332 576 343 556 Z" class="stroke4"/>
    <path d="M 655 712 Q 754 739 756 740 Q 763 747 759 754 Q 752 764 727 769 Q 697 775 661 756 L 607 740 Q 573 733 534 728 Q 503 722 526 708 Q 554 693 605 700 L 655 712 Z" class="stroke5"/>
    <path d="M 654 615 Q 669 621 777 635 Q 786 634 794 645 Q 794 655 775 664 Q 745 680 676 659 Q 663 658 651 653 Q 647 652 644 651 L 593 640 Q 569 639 507 629 Q 483 625 502 611 Q 532 590 565 598 Q 571 599 578 600 L 654 615 Z" class="stroke6"/>
    <path d="M 644 651 Q 644 655 646 660 Q 650 684 655 712 L 661 756 Q 664 774 668 802 Q 674 820 656 829 Q 613 851 600 850 Q 582 847 596 827 Q 609 806 607 740 L 605 700 Q 605 673 593 640 L 578 600 Q 557 557 519 524 Q 506 512 503 507 Q 502 501 512 501 Q 545 501 586 544 Q 614 571 630 608 L 644 651 Z" class="stroke7"/>
    <path d="M 630 608 Q 753 461 793 449 Q 848 440 939 461 Q 955 462 957 468 Q 958 474 945 478 Q 779 530 714 572 Q 696 584 654 615 C 630 633 617 637 631 610 L 630 608 Z" class="stroke8"/>
    <path d="M 456 387 Q 537 402 622 414 Q 680 424 689 433 Q 699 440 694 448 Q 688 460 660 469 Q 632 476 602 466 Q 547 450 488 436 L 419 423 Q 358 416 291 411 Q 255 407 280 389 Q 316 365 376 375 Q 386 378 399 378 L 456 387 Z" class="stroke9"/>
    <path d="M 547 220 Q 623 230 674 232 Q 713 233 715 244 Q 716 257 689 274 Q 664 290 550 262 L 491 253 Q 439 247 379 238 Q 369 237 368 240 Q 367 241 372 250 Q 400 296 456 387 L 488 436 Q 495 445 502 449 Q 521 459 512 472 Q 473 521 446 526 Q 437 527 440 506 Q 440 485 419 423 L 399 378 Q 348 276 310 251 Q 286 235 299 196 Q 303 183 317 186 Q 378 204 492 214 L 547 220 Z" class="stroke10"/>
    <path d="M 493 139 Q 333 121 146 103 Q 124 102 140 83 Q 155 68 173 62 Q 195 55 213 60 Q 351 93 493 102 L 544 106 Q 578 109 855 109 Q 877 108 882 117 Q 889 130 871 145 Q 814 187 776 180 Q 686 164 545 144 L 493 139 Z" class="stroke11"/>
    <path d="M 550 262 Q 550 275 552 283 Q 559 322 547 332 Q 517 351 504 355 Q 492 359 478 351 Q 469 344 476 334 Q 491 304 491 253 L 492 214 Q 493 180 493 139 L 493 102 Q 493 -51 507 -69 Q 511 -76 519 -74 Q 543 -56 544 106 L 545 144 Q 545 177 547 220 L 550 262 Z" class="stroke12"/>
    <text x="231" y="683" style="transform-origin:231px 683px; transform:scale(1,-1);">1</text>
    <text x="149" y="574" style="transform-origin:149px 574px; transform:scale(1,-1);">2</text>
    <text x="318" y="806" style="transform-origin:318px 806px; transform:scale(1,-1);">3</text>
    <text x="352" y="565" style="transform-origin:352px 565px; transform:scale(1,-1);">4</text>
    <text x="528" y="719" style="transform-origin:528px 719px; transform:scale(1,-1);">5</text>
    <text x="503" y="620" style="transform-origin:503px 620px; transform:scale(1,-1);">6</text>
    <text x="601" y="838" style="transform-origin:601px 838px; transform:scale(1,-1);">7</text>
    <text x="638" y="607" style="transform-origin:638px 607px; transform:scale(1,-1);">8</text>
    <text x="283" y="401" style="transform-origin:283px 401px; transform:scale(1,-1);">9</text>
    <text x="448" y="517" style="transform-origin:448px 517px; transform:scale(1,-1);">10</text>
    <text x="143" y="93" style="transform-origin:143px 93px; transform:scale(1,-1);">11</text>
    <text x="484" y="342" style="transform-origin:484px 342px; transform:scale(1,-1);">12</text></g>
</svg>