<svg version="1.1" viewBox="0 0 1024 1024" xmlns="http://www.w3.org/2000/svg">
  <g stroke="lightgray" stroke-dasharray="1,1" stroke-width="1" transform="scale(4, 4)">
    <line x1="0" y1="0" x2="256" y2="256"/>
    <line x1="256" y1="0" x2="0" y2="256"/>
    <line x1="128" y1="0" x2="128" y2="256"/>
    <line x1="0" y1="128" x2="256" y2="128"/>
  </g>
  <g transform="scale(1, -1) translate(0, -900)">
    <style type="text/css">
        .stroke1 {fill: #BF0909;}
        .stroke2 {fill: #BFBF09;}
        .stroke3 {fill: #09BF09;}
        .stroke4 {fill: #09BFBF;}
        .stroke5 {fill: #0909BF;}
        .stroke6 {fill: #BF09BF;}
        .stroke7 {fill: #42005e;}
        .stroke8 {fill: #ff3333;}
        .stroke9 {fill: #BFBFBF;}
        .stroke10 {fill: #00a53f;}
        .stroke11 {fill: #fff000;}
        .stroke12 {fill: #6600a5;}
        .stroke13 {fill: #0053a5;}
        .stroke14 {fill: #62c22b;}
        .stroke15 {fill: #BF09BF;}
        .stroke16 {fill: #BF0909;}
        .stroke17 {fill: #BFBF09;}
        .stroke18 {fill: #09BF09;}
        .stroke19 {fill: #09BFBF;}
        .stroke20 {fill: #0909BF;}
        text {
            font-family: Helvetica;
            font-size: 50px;
            fill: #FFFFFF;
            paint-order: stroke;
            stroke: #000000;
            stroke-width: 4px;
            stroke-linecap: butt;
            stroke-linejoin: miter;
            font-weight: 800;
        }
    </style>

    <path d="M 292 599 Q 442 635 448 641 Q 455 648 451 657 Q 444 667 416 674 Q 386 678 358 666 Q 336 659 314 650 L 263 636 Q 220 627 172 620 Q 136 613 163 598 Q 194 580 248 588 L 292 599 Z" class="stroke1"/>
    <path d="M 357 392 Q 388 399 419 400 Q 447 403 439 416 Q 430 429 414 436 Q 399 442 359 428 L 313 417 Q 279 411 236 402 Q 221 401 219 403 Q 218 404 220 417 Q 248 499 292 599 L 314 650 Q 354 734 363 740 Q 375 753 359 772 Q 334 797 313 810 Q 300 817 290 815 Q 283 811 288 790 Q 297 759 263 636 L 248 588 Q 203 453 153 402 Q 138 386 143 371 Q 150 352 160 341 Q 170 332 180 337 Q 229 365 312 382 L 357 392 Z" class="stroke2"/>
    <path d="M 306 249 Q 299 126 287 91 Q 275 58 309 4 Q 319 -14 328 -18 Q 338 -19 344 -7 Q 357 24 354 53 Q 353 168 354 270 L 354 302 Q 354 353 357 392 L 359 428 Q 360 471 366 493 Q 369 505 362 511 Q 340 530 321 540 Q 309 544 300 537 Q 294 534 301 524 Q 311 506 313 417 L 312 382 Q 311 343 309 296 Q 308 292 308 287 L 306 249 Z" class="stroke3"/>
    <path d="M 354 270 Q 406 297 417 304 Q 430 311 430 320 Q 421 326 354 302 L 308 287 Q 229 265 144 238 Q 125 232 93 232 Q 81 231 79 221 Q 78 208 86 201 Q 108 185 140 168 Q 150 165 161 173 Q 206 206 306 249 L 354 270 Z" class="stroke4"/>
    <path d="M 649 636 Q 796 669 803 674 Q 810 681 807 689 Q 800 699 774 707 Q 746 711 719 701 Q 686 691 652 680 L 600 667 Q 555 660 508 654 Q 474 648 499 633 Q 538 612 591 625 Q 592 625 597 625 L 649 636 Z" class="stroke5"/>
    <path d="M 629 524 Q 758 554 763 557 Q 770 564 766 571 Q 760 580 737 586 Q 713 590 689 581 Q 664 572 638 564 L 586 551 Q 552 547 515 542 Q 485 538 506 523 Q 533 508 578 513 L 629 524 Z" class="stroke6"/>
    <path d="M 698 434 Q 758 441 840 443 Q 885 443 892 452 Q 896 462 882 472 Q 831 508 791 491 Q 739 479 654 462 Q 630 459 607 453 L 558 445 Q 513 439 466 431 Q 448 428 462 415 Q 489 391 527 403 Q 534 406 544 406 L 594 418 Q 642 430 671 430 L 698 434 Z" class="stroke7"/>
    <path d="M 607 453 Q 626 517 629 524 L 638 564 Q 645 601 649 636 L 652 680 Q 656 741 670 780 Q 674 790 667 798 Q 649 814 615 828 Q 596 838 579 832 Q 560 825 575 808 Q 602 780 602 751 Q 602 706 600 667 L 597 625 Q 594 601 591 579 Q 588 566 586 551 L 578 513 Q 569 479 558 445 L 544 406 Q 504 310 394 210 Q 384 203 381 198 Q 377 191 393 193 Q 403 193 443 221 Q 471 240 517 290 Q 562 339 594 418 L 607 453 Z" class="stroke8"/>
    <path d="M 671 430 Q 695 379 818 226 Q 845 199 975 219 Q 982 220 984 225 Q 985 229 973 236 Q 853 290 800 336 Q 752 379 698 434 C 677 455 657 457 671 430 Z" class="stroke9"/>
    <path d="M 610 284 Q 613 285 620 288 Q 695 310 698 313 Q 704 320 700 327 Q 693 336 669 339 Q 654 339 589 316 Q 570 312 547 307 Q 519 300 541 288 Q 554 282 571 280 L 610 284 Z" class="stroke10"/>
    <path d="M 625 175 Q 673 184 765 183 Q 780 184 783 191 Q 787 200 774 209 Q 728 239 680 223 Q 658 219 633 212 L 581 201 Q 527 194 465 181 Q 449 180 461 166 Q 471 157 486 153 Q 502 150 513 154 Q 541 163 576 168 L 625 175 Z" class="stroke11"/>
    <path d="M 576 168 Q 560 81 470 23 Q 445 10 408 -9 Q 387 -19 411 -20 Q 475 -24 549 33 Q 558 42 568 53 Q 605 96 625 175 L 633 212 Q 639 246 643 252 Q 649 258 644 266 Q 640 272 616 281 Q 612 282 610 284 C 583 296 560 306 571 280 Q 586 250 581 201 L 576 168 Z" class="stroke12"/>
    <path d="M 684 68 Q 729 25 776 -25 Q 786 -38 801 -38 Q 811 -39 817 -27 Q 823 -14 817 14 Q 810 59 684 112 Q 671 116 664 115 Q 660 112 659 100 Q 662 90 684 68 Z" class="stroke13"/>
    <text x="164" y="610" style="transform-origin:164px 610px; transform:scale(1,-1);">1</text>
    <text x="295" y="807" style="transform-origin:295px 807px; transform:scale(1,-1);">2</text>
    <text x="308" y="531" style="transform-origin:308px 531px; transform:scale(1,-1);">3</text>
    <text x="92" y="218" style="transform-origin:92px 218px; transform:scale(1,-1);">4</text>
    <text x="501" y="645" style="transform-origin:501px 645px; transform:scale(1,-1);">5</text>
    <text x="508" y="534" style="transform-origin:508px 534px; transform:scale(1,-1);">6</text>
    <text x="464" y="423" style="transform-origin:464px 423px; transform:scale(1,-1);">7</text>
    <text x="581" y="819" style="transform-origin:581px 819px; transform:scale(1,-1);">8</text>
    <text x="678" y="429" style="transform-origin:678px 429px; transform:scale(1,-1);">9</text>
    <text x="542" y="298" style="transform-origin:542px 298px; transform:scale(1,-1);">10</text>
    <text x="473" y="171" style="transform-origin:473px 171px; transform:scale(1,-1);">11</text>
    <text x="578" y="275" style="transform-origin:578px 275px; transform:scale(1,-1);">12</text>
    <text x="668" y="105" style="transform-origin:668px 105px; transform:scale(1,-1);">13</text></g>
</svg>