<svg version="1.1" viewBox="0 0 1024 1024" xmlns="http://www.w3.org/2000/svg">
  <g stroke="lightgray" stroke-dasharray="1,1" stroke-width="1" transform="scale(4, 4)">
    <line x1="0" y1="0" x2="256" y2="256"/>
    <line x1="256" y1="0" x2="0" y2="256"/>
    <line x1="128" y1="0" x2="128" y2="256"/>
    <line x1="0" y1="128" x2="256" y2="128"/>
  </g>
  <g transform="scale(1, -1) translate(0, -900)">
    <style type="text/css">
        .stroke1 {fill: #BF0909;}
        .stroke2 {fill: #BFBF09;}
        .stroke3 {fill: #09BF09;}
        .stroke4 {fill: #09BFBF;}
        .stroke5 {fill: #0909BF;}
        .stroke6 {fill: #BF09BF;}
        .stroke7 {fill: #42005e;}
        .stroke8 {fill: #ff3333;}
        .stroke9 {fill: #BFBFBF;}
        .stroke10 {fill: #00a53f;}
        .stroke11 {fill: #fff000;}
        .stroke12 {fill: #6600a5;}
        .stroke13 {fill: #0053a5;}
        .stroke14 {fill: #62c22b;}
        .stroke15 {fill: #BF09BF;}
        .stroke16 {fill: #BF0909;}
        .stroke17 {fill: #BFBF09;}
        .stroke18 {fill: #09BF09;}
        .stroke19 {fill: #09BFBF;}
        .stroke20 {fill: #0909BF;}
        text {
            font-family: Helvetica;
            font-size: 50px;
            fill: #FFFFFF;
            paint-order: stroke;
            stroke: #000000;
            stroke-width: 4px;
            stroke-linecap: butt;
            stroke-linejoin: miter;
            font-weight: 800;
        }
    </style>

    <path d="M 356 746 Q 395 739 424 745 Q 697 796 717 805 Q 717 806 718 806 Q 727 813 722 821 Q 716 831 690 839 Q 660 846 585 820 Q 464 789 346 777 C 316 774 326 751 356 746 Z" class="stroke1"/>
    <path d="M 327 545 Q 328 554 351 718 Q 352 731 355 744 Q 355 745 356 746 C 361 767 361 767 346 777 Q 333 787 313 795 Q 297 804 285 799 Q 275 793 280 781 Q 320 723 271 502 Q 268 493 266 484 Q 236 393 189 320 Q 185 314 183 308 Q 182 299 191 301 Q 218 308 273 399 Q 282 417 291 435 Q 310 481 325 536 L 327 545 Z" class="stroke2"/>
    <path d="M 399 662 Q 366 656 390 641 Q 432 620 480 634 Q 553 650 631 668 Q 667 677 672 682 Q 679 689 675 697 Q 668 707 641 714 Q 617 718 527 687 Q 458 671 399 662 Z" class="stroke3"/>
    <path d="M 505 547 Q 571 574 759 575 Q 777 575 781 584 Q 785 594 770 604 Q 722 635 660 615 Q 474 573 333 547 Q 329 547 327 545 C 317 543 317 543 325 536 Q 344 517 373 516 L 410 524 Q 435 533 463 539 L 505 547 Z" class="stroke4"/>
    <path d="M 373 516 Q 398 465 386 403 Q 383 378 372 363 Q 362 344 370 326 Q 380 298 396 289 Q 406 282 416 299 Q 438 335 516 426 Q 529 441 531 447 Q 531 459 514 447 Q 439 396 431 396 Q 427 399 425 412 Q 429 470 433 484 Q 437 500 426 510 Q 417 519 410 524 C 387 543 361 543 373 516 Z" class="stroke5"/>
    <path d="M 651 448 Q 712 479 744 487 Q 760 491 756 505 Q 749 518 732 533 Q 717 546 708 545 Q 698 546 699 536 Q 699 520 659 483 Q 646 473 631 459 C 609 439 624 434 651 448 Z" class="stroke6"/>
    <path d="M 631 459 Q 576 492 518 538 Q 511 544 505 547 C 480 564 436 553 463 539 Q 499 524 602 436 Q 719 337 756 343 Q 823 352 878 369 Q 906 376 902 385 Q 901 388 871 393 Q 732 411 687 430 Q 666 439 651 448 L 631 459 Z" class="stroke7"/>
    <path d="M 615 244 Q 633 244 872 245 Q 893 244 898 253 Q 905 266 887 281 Q 823 329 761 310 Q 700 301 615 287 L 565 280 Q 534 279 503 273 Q 341 254 150 235 Q 128 234 144 215 Q 159 200 178 194 Q 200 187 217 192 Q 392 237 567 241 L 615 244 Z" class="stroke8"/>
    <path d="M 533 40 Q 499 47 466 55 Q 454 58 455 50 Q 456 44 466 37 Q 536 -23 563 -59 Q 576 -75 591 -61 Q 624 -31 623 39 Q 620 67 615 244 L 615 287 Q 618 314 626 333 Q 633 351 618 363 Q 593 384 565 393 Q 547 399 540 392 Q 534 385 545 371 Q 564 338 565 280 L 567 241 Q 571 55 554 42 Q 547 36 533 40 Z" class="stroke9"/>
    <path d="M 386 150 Q 410 134 434 112 Q 447 102 460 103 Q 470 104 473 116 Q 476 129 466 154 Q 460 170 434 180 Q 371 198 360 191 Q 356 187 358 176 Q 362 166 386 150 Z" class="stroke10"/>
    <text x="354" y="774" style="transform-origin:354px 774px; transform:scale(1,-1);">1</text>
    <text x="291" y="788" style="transform-origin:291px 788px; transform:scale(1,-1);">2</text>
    <text x="392" y="653" style="transform-origin:392px 653px; transform:scale(1,-1);">3</text>
    <text x="332" y="539" style="transform-origin:332px 539px; transform:scale(1,-1);">4</text>
    <text x="380" y="512" style="transform-origin:380px 512px; transform:scale(1,-1);">5</text>
    <text x="744" y="500" style="transform-origin:744px 500px; transform:scale(1,-1);">6</text>
    <text x="476" y="536" style="transform-origin:476px 536px; transform:scale(1,-1);">7</text>
    <text x="147" y="225" style="transform-origin:147px 225px; transform:scale(1,-1);">8</text>
    <text x="548" y="386" style="transform-origin:548px 386px; transform:scale(1,-1);">9</text>
    <text x="366" y="183" style="transform-origin:366px 183px; transform:scale(1,-1);">10</text></g>
</svg>