<svg version="1.1" viewBox="0 0 1024 1024" xmlns="http://www.w3.org/2000/svg">
  <g stroke="lightgray" stroke-dasharray="1,1" stroke-width="1" transform="scale(4, 4)">
    <line x1="0" y1="0" x2="256" y2="256"/>
    <line x1="256" y1="0" x2="0" y2="256"/>
    <line x1="128" y1="0" x2="128" y2="256"/>
    <line x1="0" y1="128" x2="256" y2="128"/>
  </g>
  <g transform="scale(1, -1) translate(0, -900)">
    <style type="text/css">
        .stroke1 {fill: #BF0909;}
        .stroke2 {fill: #BFBF09;}
        .stroke3 {fill: #09BF09;}
        .stroke4 {fill: #09BFBF;}
        .stroke5 {fill: #0909BF;}
        .stroke6 {fill: #BF09BF;}
        .stroke7 {fill: #42005e;}
        .stroke8 {fill: #ff3333;}
        .stroke9 {fill: #BFBFBF;}
        .stroke10 {fill: #00a53f;}
        .stroke11 {fill: #fff000;}
        .stroke12 {fill: #6600a5;}
        .stroke13 {fill: #0053a5;}
        .stroke14 {fill: #62c22b;}
        .stroke15 {fill: #BF09BF;}
        .stroke16 {fill: #BF0909;}
        .stroke17 {fill: #BFBF09;}
        .stroke18 {fill: #09BF09;}
        .stroke19 {fill: #09BFBF;}
        .stroke20 {fill: #0909BF;}
        text {
            font-family: Helvetica;
            font-size: 50px;
            fill: #FFFFFF;
            paint-order: stroke;
            stroke: #000000;
            stroke-width: 4px;
            stroke-linecap: butt;
            stroke-linejoin: miter;
            font-weight: 800;
        }
    </style>

    <path d="M 548 584 Q 638 704 676 738 Q 682 744 690 750 Q 709 766 693 782 Q 674 795 643 804 Q 613 811 601 805 Q 588 799 596 787 Q 609 757 568 671 Q 546 628 523 580 C 510 553 530 560 548 584 Z" class="stroke1"/>
    <path d="M 486 575 Q 464 594 438 602 Q 431 605 425 600 Q 418 596 426 583 Q 468 490 457 287 Q 454 224 489 193 Q 490 193 492 191 Q 508 184 513 215 Q 513 222 514 228 L 512 262 Q 509 329 504 398 L 504 424 Q 503 488 504 539 C 504 561 504 561 486 575 Z" class="stroke2"/>
    <path d="M 693 237 Q 705 213 732 167 Q 741 151 751 153 Q 766 156 773 181 Q 800 251 802 373 Q 802 529 828 567 Q 843 588 831 599 Q 809 618 763 636 Q 744 646 713 632 Q 656 608 548 584 L 523 580 Q 504 579 486 575 C 456 570 474 534 504 539 Q 510 539 516 540 Q 589 558 705 582 Q 724 586 734 577 Q 768 522 737 282 Q 736 260 727 257 Q 724 256 712 259 C 684 255 684 255 693 237 Z" class="stroke3"/>
    <path d="M 504 398 Q 511 397 522 398 Q 609 408 673 415 Q 698 418 689 432 Q 679 448 652 453 Q 622 459 504 424 C 475 416 474 400 504 398 Z" class="stroke4"/>
    <path d="M 514 228 Q 602 232 693 237 C 723 239 730 239 712 259 Q 705 268 690 277 Q 674 287 644 282 Q 571 269 512 262 C 482 258 484 227 514 228 Z" class="stroke5"/>
    <path d="M 265 723 Q 287 701 313 673 Q 328 657 346 657 Q 358 658 364 673 Q 371 689 361 724 Q 352 754 261 778 Q 243 782 236 779 Q 230 775 231 760 Q 235 747 265 723 Z" class="stroke6"/>
    <path d="M 301 175 Q 322 202 311 247 Q 304 269 278 312 Q 247 366 331 465 Q 365 493 285 528 Q 281 531 276 532 Q 252 545 233 527 Q 203 502 163 485 Q 109 460 91 462 Q 84 462 81 457 Q 80 451 89 447 Q 131 431 226 470 Q 233 474 243 465 Q 265 443 242 414 Q 193 368 237 293 Q 273 224 267 177 C 266 147 286 149 301 175 Z" class="stroke7"/>
    <path d="M 267 177 Q 221 178 176 161 Q 145 149 95 145 Q 88 145 85 136 Q 81 129 90 119 Q 108 101 132 90 Q 144 84 162 98 Q 226 146 294 134 Q 361 122 500 69 Q 740 -28 821 4 Q 882 29 934 68 Q 956 84 932 84 Q 701 75 586 96 Q 490 117 365 158 Q 334 171 301 175 L 267 177 Z" class="stroke8"/>
    <text x="604" y="795" style="transform-origin:604px 795px; transform:scale(1,-1);">1</text>
    <text x="433" y="592" style="transform-origin:433px 592px; transform:scale(1,-1);">2</text>
    <text x="493" y="571" style="transform-origin:493px 571px; transform:scale(1,-1);">3</text>
    <text x="508" y="405" style="transform-origin:508px 405px; transform:scale(1,-1);">4</text>
    <text x="519" y="257" style="transform-origin:519px 257px; transform:scale(1,-1);">5</text>
    <text x="242" y="770" style="transform-origin:242px 770px; transform:scale(1,-1);">6</text>
    <text x="88" y="455" style="transform-origin:88px 455px; transform:scale(1,-1);">7</text>
    <text x="99" y="131" style="transform-origin:99px 131px; transform:scale(1,-1);">8</text></g>
</svg>