<svg version="1.1" viewBox="0 0 1024 1024" xmlns="http://www.w3.org/2000/svg">
  <g stroke="lightgray" stroke-dasharray="1,1" stroke-width="1" transform="scale(4, 4)">
    <line x1="0" y1="0" x2="256" y2="256"/>
    <line x1="256" y1="0" x2="0" y2="256"/>
    <line x1="128" y1="0" x2="128" y2="256"/>
    <line x1="0" y1="128" x2="256" y2="128"/>
  </g>
  <g transform="scale(1, -1) translate(0, -900)">
    <style type="text/css">
        .stroke1 {fill: #BF0909;}
        .stroke2 {fill: #BFBF09;}
        .stroke3 {fill: #09BF09;}
        .stroke4 {fill: #09BFBF;}
        .stroke5 {fill: #0909BF;}
        .stroke6 {fill: #BF09BF;}
        .stroke7 {fill: #42005e;}
        .stroke8 {fill: #ff3333;}
        .stroke9 {fill: #BFBFBF;}
        .stroke10 {fill: #00a53f;}
        .stroke11 {fill: #fff000;}
        .stroke12 {fill: #6600a5;}
        .stroke13 {fill: #0053a5;}
        .stroke14 {fill: #62c22b;}
        .stroke15 {fill: #BF09BF;}
        .stroke16 {fill: #BF0909;}
        .stroke17 {fill: #BFBF09;}
        .stroke18 {fill: #09BF09;}
        .stroke19 {fill: #09BFBF;}
        .stroke20 {fill: #0909BF;}
        text {
            font-family: Helvetica;
            font-size: 50px;
            fill: #FFFFFF;
            paint-order: stroke;
            stroke: #000000;
            stroke-width: 4px;
            stroke-linecap: butt;
            stroke-linejoin: miter;
            font-weight: 800;
        }
    </style>

    <path d="M 627 654 Q 732 742 767 751 Q 786 758 780 773 Q 777 789 713 823 Q 694 833 673 824 Q 615 800 525 773 Q 503 766 446 766 Q 424 766 432 747 Q 439 734 458 724 Q 488 708 520 728 Q 541 737 650 779 Q 662 785 673 779 Q 685 772 680 760 Q 649 717 614 666 C 597 641 604 635 627 654 Z" class="stroke1"/>
    <path d="M 614 666 Q 584 684 531 684 Q 528 684 528 683 Q 524 679 526 669 Q 527 665 601 608 Q 613 598 625 600 Q 634 601 637 612 Q 641 639 627 654 L 614 666 Z" class="stroke2"/>
    <path d="M 467 560 Q 442 573 425 573 Q 412 569 417 559 Q 465 453 413 282 Q 382 228 416 185 Q 423 172 432 177 Q 466 198 470 305 Q 479 485 484 527 C 486 551 486 551 467 560 Z" class="stroke3"/>
    <path d="M 605 557 Q 659 570 720 581 Q 738 585 747 576 Q 756 572 759 530 Q 768 394 760 238 Q 759 216 751 209 Q 741 202 688 212 Q 673 216 674 207 Q 674 200 686 194 Q 732 154 757 124 Q 776 106 787 109 Q 799 110 809 137 Q 824 177 824 236 Q 806 524 823 555 Q 833 574 825 584 Q 815 597 774 618 Q 758 627 688 605 Q 493 566 467 560 C 438 554 455 518 484 527 Q 487 530 566 549 L 605 557 Z" class="stroke4"/>
    <path d="M 627 437 Q 664 446 697 452 Q 719 458 709 469 Q 699 482 674 485 Q 656 486 629 478 L 581 460 Q 545 448 514 437 Q 498 433 518 419 Q 528 413 546 418 Q 562 422 581 426 L 627 437 Z" class="stroke5"/>
    <path d="M 624 327 Q 669 336 707 341 Q 729 345 721 357 Q 711 370 687 374 Q 665 377 626 366 Q 625 366 625 365 L 581 352 Q 541 342 507 332 Q 491 328 510 315 Q 520 308 540 311 Q 561 315 581 318 L 624 327 Z" class="stroke6"/>
    <path d="M 583 221 Q 587 202 592 194 Q 596 190 602 191 Q 612 197 619 243 Q 623 276 624 327 L 625 365 Q 625 393 627 437 L 629 478 Q 629 479 630 480 Q 630 487 636 523 Q 639 536 628 544 Q 615 554 605 557 C 578 569 551 575 566 549 Q 581 531 581 460 L 581 426 Q 581 393 581 352 L 581 318 Q 581 246 583 221 Z" class="stroke7"/>
    <path d="M 224 708 Q 252 686 281 657 Q 297 644 315 644 Q 327 645 332 660 Q 338 678 326 711 Q 314 742 217 763 Q 199 767 192 763 Q 186 759 188 744 Q 192 731 224 708 Z" class="stroke8"/>
    <path d="M 305 177 Q 323 201 312 245 Q 305 267 280 309 Q 258 351 295 405 Q 317 442 336 461 Q 358 479 339 495 Q 320 511 284 526 Q 262 539 244 522 Q 210 497 166 480 Q 106 455 87 457 Q 80 458 78 453 Q 77 447 85 443 Q 125 425 236 468 Q 243 472 253 463 Q 274 439 250 410 Q 198 362 247 281 Q 280 215 275 180 C 275 150 291 150 305 177 Z" class="stroke9"/>
    <path d="M 275 180 Q 229 183 180 166 Q 152 156 107 153 Q 100 153 97 145 Q 94 138 103 128 Q 119 109 144 98 Q 156 91 174 106 Q 229 152 297 137 Q 361 124 494 67 Q 722 -35 805 -7 Q 866 15 919 54 Q 943 70 918 69 Q 696 60 534 104 Q 459 126 369 159 Q 338 172 305 177 L 275 180 Z" class="stroke10"/>
    <text x="442" y="754" style="transform-origin:442px 754px; transform:scale(1,-1);">1</text>
    <text x="532" y="675" style="transform-origin:532px 675px; transform:scale(1,-1);">2</text>
    <text x="425" y="564" style="transform-origin:425px 564px; transform:scale(1,-1);">3</text>
    <text x="470" y="555" style="transform-origin:470px 555px; transform:scale(1,-1);">4</text>
    <text x="516" y="428" style="transform-origin:516px 428px; transform:scale(1,-1);">5</text>
    <text x="508" y="323" style="transform-origin:508px 323px; transform:scale(1,-1);">6</text>
    <text x="573" y="548" style="transform-origin:573px 548px; transform:scale(1,-1);">7</text>
    <text x="199" y="754" style="transform-origin:199px 754px; transform:scale(1,-1);">8</text>
    <text x="85" y="450" style="transform-origin:85px 450px; transform:scale(1,-1);">9</text>
    <text x="108" y="141" style="transform-origin:108px 141px; transform:scale(1,-1);">10</text></g>
</svg>