<svg version="1.1" viewBox="0 0 1024 1024" xmlns="http://www.w3.org/2000/svg">
  <g stroke="lightgray" stroke-dasharray="1,1" stroke-width="1" transform="scale(4, 4)">
    <line x1="0" y1="0" x2="256" y2="256"/>
    <line x1="256" y1="0" x2="0" y2="256"/>
    <line x1="128" y1="0" x2="128" y2="256"/>
    <line x1="0" y1="128" x2="256" y2="128"/>
  </g>
  <g transform="scale(1, -1) translate(0, -900)">
    <style type="text/css">
        .stroke1 {fill: #BF0909;}
        .stroke2 {fill: #BFBF09;}
        .stroke3 {fill: #09BF09;}
        .stroke4 {fill: #09BFBF;}
        .stroke5 {fill: #0909BF;}
        .stroke6 {fill: #BF09BF;}
        .stroke7 {fill: #42005e;}
        .stroke8 {fill: #ff3333;}
        .stroke9 {fill: #BFBFBF;}
        .stroke10 {fill: #00a53f;}
        .stroke11 {fill: #fff000;}
        .stroke12 {fill: #6600a5;}
        .stroke13 {fill: #0053a5;}
        .stroke14 {fill: #62c22b;}
        .stroke15 {fill: #BF09BF;}
        .stroke16 {fill: #BF0909;}
        .stroke17 {fill: #BFBF09;}
        .stroke18 {fill: #09BF09;}
        .stroke19 {fill: #09BFBF;}
        .stroke20 {fill: #0909BF;}
        text {
            font-family: Helvetica;
            font-size: 50px;
            fill: #FFFFFF;
            paint-order: stroke;
            stroke: #000000;
            stroke-width: 4px;
            stroke-linecap: butt;
            stroke-linejoin: miter;
            font-weight: 800;
        }
    </style>

    <path d="M 512 746 Q 493 759 471 766 Q 458 770 450 765 Q 443 759 450 745 Q 469 708 479 669 Q 486 630 502 473 C 505 443 541 452 538 482 Q 529 585 529 716 C 529 735 529 735 512 746 Z" class="stroke1"/>
    <path d="M 772 525 Q 781 682 826 737 Q 842 756 826 773 Q 808 785 754 805 Q 735 812 715 802 Q 648 775 512 746 C 483 740 500 710 529 716 L 699 753 Q 718 757 727 750 Q 746 735 742 673 L 740 644 Q 733 575 723 515 C 718 485 770 495 772 525 Z" class="stroke2"/>
    <path d="M 645 502 Q 646 562 647 608 Q 647 614 648 622 C 650 639 650 639 641 646 Q 625 659 611 666 Q 602 669 595 665 Q 589 662 591 654 Q 600 642 610 511 Q 610 505 611 496 C 614 466 644 472 645 502 Z" class="stroke3"/>
    <path d="M 648 622 Q 699 637 740 644 C 770 649 771 665 742 673 Q 711 683 641 646 C 614 632 619 614 648 622 Z" class="stroke4"/>
    <path d="M 432 457 Q 408 473 384 471 Q 374 467 378 457 Q 411 397 392 284 Q 371 242 403 204 L 405 202 Q 412 192 420 197 Q 445 215 443 290 Q 440 389 440 421 C 440 451 440 452 432 457 Z" class="stroke5"/>
    <path d="M 440 421 Q 453 420 467 425 Q 569 470 789 493 Q 804 490 811 480 Q 817 471 812 459 Q 811 278 798 251 Q 795 244 784 247 Q 762 250 737 254 Q 707 258 727 238 Q 785 183 808 145 Q 820 130 833 142 Q 849 158 859 185 Q 869 213 872 372 Q 872 430 890 460 Q 905 479 898 487 Q 891 500 842 529 Q 824 542 810 537 Q 794 531 772 525 L 723 515 Q 680 509 645 502 L 611 496 Q 568 490 538 482 L 502 473 Q 462 464 432 457 C 403 450 410 417 440 421 Z" class="stroke6"/>
    <path d="M 536 386 Q 529 390 513 392 Q 503 395 500 391 Q 496 387 502 373 Q 520 336 531 273 Q 532 254 543 241 Q 556 225 561 236 Q 565 246 564 261 L 562 290 Q 555 348 555 364 C 555 378 555 378 536 386 Z" class="stroke7"/>
    <path d="M 677 301 Q 693 347 709 361 Q 728 382 709 394 Q 693 404 672 419 Q 659 428 609 405 Q 591 401 536 386 C 507 378 526 355 555 364 Q 555 365 556 365 Q 590 372 621 378 Q 640 382 645 374 Q 648 371 633 307 C 626 278 667 273 677 301 Z" class="stroke8"/>
    <path d="M 564 261 Q 570 261 577 262 Q 611 269 686 274 Q 695 275 696 282 Q 696 288 677 301 C 667 308 663 308 633 307 Q 632 308 629 307 Q 590 297 562 290 C 533 283 534 260 564 261 Z" class="stroke9"/>
    <path d="M 220 699 Q 242 674 267 644 Q 280 628 298 627 Q 310 627 317 641 Q 324 657 317 690 Q 310 723 220 752 Q 204 758 196 755 Q 190 751 191 737 Q 194 724 220 699 Z" class="stroke10"/>
    <path d="M 266 186 Q 288 201 296 225 Q 308 267 260 321 Q 239 348 270 403 Q 270 412 305 447 Q 327 466 307 481 Q 286 497 252 510 Q 230 523 191 490 Q 122 448 99 449 Q 92 450 90 444 Q 89 440 97 435 Q 134 420 204 451 Q 213 455 221 445 Q 237 429 222 403 Q 209 387 201 362 Q 197 340 214 317 Q 268 239 248 191 Q 247 190 247 185 C 242 166 243 167 266 186 Z" class="stroke11"/>
    <path d="M 247 185 Q 202 186 163 177 Q 126 167 101 165 Q 85 165 88 153 Q 91 143 133 117 Q 154 107 184 127 Q 226 169 305 144 Q 369 129 527 52 Q 677 -23 715 -31 Q 799 -34 953 50 Q 960 53 958 59 Q 957 65 940 65 Q 610 59 395 149 Q 304 192 266 186 L 247 185 Z" class="stroke12"/>
    <text x="457" y="757" style="transform-origin:457px 757px; transform:scale(1,-1);">1</text>
    <text x="522" y="745" style="transform-origin:522px 745px; transform:scale(1,-1);">2</text>
    <text x="601" y="657" style="transform-origin:601px 657px; transform:scale(1,-1);">3</text>
    <text x="655" y="630" style="transform-origin:655px 630px; transform:scale(1,-1);">4</text>
    <text x="390" y="460" style="transform-origin:390px 460px; transform:scale(1,-1);">5</text>
    <text x="440" y="452" style="transform-origin:440px 452px; transform:scale(1,-1);">6</text>
    <text x="507" y="386" style="transform-origin:507px 386px; transform:scale(1,-1);">7</text>
    <text x="547" y="386" style="transform-origin:547px 386px; transform:scale(1,-1);">8</text>
    <text x="570" y="269" style="transform-origin:570px 269px; transform:scale(1,-1);">9</text>
    <text x="202" y="747" style="transform-origin:202px 747px; transform:scale(1,-1);">10</text>
    <text x="97" y="442" style="transform-origin:97px 442px; transform:scale(1,-1);">11</text>
    <text x="97" y="156" style="transform-origin:97px 156px; transform:scale(1,-1);">12</text></g>
</svg>