<svg version="1.1" viewBox="0 0 1024 1024" xmlns="http://www.w3.org/2000/svg">
  <g stroke="lightgray" stroke-dasharray="1,1" stroke-width="1" transform="scale(4, 4)">
    <line x1="0" y1="0" x2="256" y2="256"/>
    <line x1="256" y1="0" x2="0" y2="256"/>
    <line x1="128" y1="0" x2="128" y2="256"/>
    <line x1="0" y1="128" x2="256" y2="128"/>
  </g>
  <g transform="scale(1, -1) translate(0, -900)">
    <style type="text/css">
        .stroke1 {fill: #BF0909;}
        .stroke2 {fill: #BFBF09;}
        .stroke3 {fill: #09BF09;}
        .stroke4 {fill: #09BFBF;}
        .stroke5 {fill: #0909BF;}
        .stroke6 {fill: #BF09BF;}
        .stroke7 {fill: #42005e;}
        .stroke8 {fill: #ff3333;}
        .stroke9 {fill: #BFBFBF;}
        .stroke10 {fill: #00a53f;}
        .stroke11 {fill: #fff000;}
        .stroke12 {fill: #6600a5;}
        .stroke13 {fill: #0053a5;}
        .stroke14 {fill: #62c22b;}
        .stroke15 {fill: #BF09BF;}
        .stroke16 {fill: #BF0909;}
        .stroke17 {fill: #BFBF09;}
        .stroke18 {fill: #09BF09;}
        .stroke19 {fill: #09BFBF;}
        .stroke20 {fill: #0909BF;}
        text {
            font-family: Helvetica;
            font-size: 50px;
            fill: #FFFFFF;
            paint-order: stroke;
            stroke: #000000;
            stroke-width: 4px;
            stroke-linecap: butt;
            stroke-linejoin: miter;
            font-weight: 800;
        }
    </style>

    <path d="M 304 673 Q 484 724 489 727 Q 496 736 492 744 Q 485 756 454 761 Q 424 765 325 727 Q 267 709 200 699 Q 163 690 190 675 Q 224 657 274 665 L 304 673 Z" class="stroke1"/>
    <path d="M 144 518 Q 114 533 95 532 Q 82 528 88 516 Q 130 438 96 300 Q 78 234 107 200 Q 114 187 124 193 Q 154 220 155 343 Q 155 454 158 482 C 160 510 160 510 144 518 Z" class="stroke2"/>
    <path d="M 330 537 Q 444 564 460 549 Q 467 542 465 530 Q 472 319 460 288 Q 456 278 444 279 Q 416 279 384 281 Q 362 280 380 267 Q 444 233 472 206 Q 485 193 498 205 Q 514 224 520 252 Q 529 282 516 443 Q 512 503 527 534 Q 537 553 532 559 Q 525 569 479 593 Q 463 605 432 590 Q 390 578 334 566 L 286 556 Q 247 549 144 518 C 115 509 130 471 158 482 Q 165 483 172 487 Q 256 526 283 526 L 330 537 Z" class="stroke3"/>
    <path d="M 313 457 Q 328 526 330 537 L 334 566 Q 334 567 345 633 Q 351 649 334 658 Q 316 668 304 673 C 277 686 263 692 274 665 Q 293 626 286 556 L 283 526 Q 283 421 184 335 Q 172 325 168 319 Q 167 313 176 313 Q 201 312 253 356 Q 289 392 305 433 L 313 457 Z" class="stroke4"/>
    <path d="M 305 433 Q 308 430 314 425 Q 398 356 407 355 Q 414 356 418 365 Q 421 375 415 395 Q 411 416 378 433 Q 347 446 313 457 C 284 466 283 453 305 433 Z" class="stroke5"/>
    <path d="M 667 642 Q 674 645 685 650 Q 769 687 783 682 Q 793 675 786 655 Q 753 562 743 548 Q 736 533 737 525 Q 737 513 758 506 Q 851 439 852 342 Q 849 332 841 323 Q 828 314 804 318 Q 767 324 734 327 Q 727 328 727 321 Q 730 314 744 304 Q 811 268 829 240 Q 836 227 849 225 Q 859 225 874 236 Q 911 281 913 336 Q 914 421 801 516 Q 762 537 821 609 Q 825 618 832 624 Q 851 652 876 666 Q 904 685 879 702 Q 840 732 816 741 Q 800 747 784 736 Q 763 718 661 675 Q 657 674 654 672 C 626 660 640 630 667 642 Z" class="stroke6"/>
    <path d="M 602 -11 Q 608 -36 614 -45 Q 620 -52 627 -50 Q 645 -38 648 17 Q 657 105 655 191 Q 651 264 656 549 Q 657 606 667 642 C 671 661 671 661 654 672 Q 624 693 610 694 Q 598 698 582 690 Q 573 683 581 672 Q 585 662 592 651 Q 605 626 607 589 Q 608 433 600 191 Q 597 40 602 -11 Z" class="stroke7"/>
    <text x="192" y="688" style="transform-origin:192px 688px; transform:scale(1,-1);">1</text>
    <text x="96" y="522" style="transform-origin:96px 522px; transform:scale(1,-1);">2</text>
    <text x="156" y="516" style="transform-origin:156px 516px; transform:scale(1,-1);">3</text>
    <text x="283" y="662" style="transform-origin:283px 662px; transform:scale(1,-1);">4</text>
    <text x="318" y="449" style="transform-origin:318px 449px; transform:scale(1,-1);">5</text>
    <text x="669" y="649" style="transform-origin:669px 649px; transform:scale(1,-1);">6</text>
    <text x="589" y="681" style="transform-origin:589px 681px; transform:scale(1,-1);">7</text></g>
</svg>