<svg version="1.1" viewBox="0 0 1024 1024" xmlns="http://www.w3.org/2000/svg">
  <g stroke="lightgray" stroke-dasharray="1,1" stroke-width="1" transform="scale(4, 4)">
    <line x1="0" y1="0" x2="256" y2="256"/>
    <line x1="256" y1="0" x2="0" y2="256"/>
    <line x1="128" y1="0" x2="128" y2="256"/>
    <line x1="0" y1="128" x2="256" y2="128"/>
  </g>
  <g transform="scale(1, -1) translate(0, -900)">
    <style type="text/css">
        .stroke1 {fill: #BF0909;}
        .stroke2 {fill: #BFBF09;}
        .stroke3 {fill: #09BF09;}
        .stroke4 {fill: #09BFBF;}
        .stroke5 {fill: #0909BF;}
        .stroke6 {fill: #BF09BF;}
        .stroke7 {fill: #42005e;}
        .stroke8 {fill: #ff3333;}
        .stroke9 {fill: #BFBFBF;}
        .stroke10 {fill: #00a53f;}
        .stroke11 {fill: #fff000;}
        .stroke12 {fill: #6600a5;}
        .stroke13 {fill: #0053a5;}
        .stroke14 {fill: #62c22b;}
        .stroke15 {fill: #BF09BF;}
        .stroke16 {fill: #BF0909;}
        .stroke17 {fill: #BFBF09;}
        .stroke18 {fill: #09BF09;}
        .stroke19 {fill: #09BFBF;}
        .stroke20 {fill: #0909BF;}
        text {
            font-family: Helvetica;
            font-size: 50px;
            fill: #FFFFFF;
            paint-order: stroke;
            stroke: #000000;
            stroke-width: 4px;
            stroke-linecap: butt;
            stroke-linejoin: miter;
            font-weight: 800;
        }
    </style>

    <path d="M 244 632 Q 283 672 331 743 Q 349 771 364 785 Q 371 795 368 807 Q 364 819 339 840 Q 315 856 298 856 Q 280 855 288 835 Q 298 816 290 798 Q 253 698 158 580 Q 149 570 147 565 Q 144 555 157 557 Q 172 560 225 611 L 244 632 Z" class="stroke1"/>
    <path d="M 225 611 Q 262 598 289 607 Q 311 616 414 642 Q 430 646 438 639 Q 454 620 453 574 Q 453 435 439 345 Q 414 204 384 190 Q 377 186 347 194 Q 290 215 286 209 Q 283 203 297 192 Q 336 155 356 121 Q 372 94 388 99 Q 433 114 467 220 Q 489 295 505 537 Q 508 600 525 621 Q 540 640 520 654 Q 447 699 402 674 Q 395 673 244 632 C 215 624 196 618 225 611 Z" class="stroke2"/>
    <path d="M 187 529 Q 181 535 163 543 Q 156 546 148 543 Q 142 539 147 530 Q 169 460 152 352 Q 131 312 165 272 Q 172 262 181 272 Q 187 281 189 291 L 191 313 Q 192 323 192 336 Q 192 369 193 394 L 194 423 Q 194 501 198 506 C 201 519 201 519 187 529 Z" class="stroke3"/>
    <path d="M 292 301 Q 293 294 298 287 Q 308 266 314 267 Q 324 268 336 291 Q 346 309 346 323 Q 327 467 356 513 Q 363 525 357 531 Q 338 549 302 563 Q 295 566 236 543 Q 212 537 187 529 C 158 520 169 498 198 506 Q 280 530 291 526 Q 298 510 300 469 Q 300 357 295 325 L 292 301 Z" class="stroke4"/>
    <path d="M 270 407 Q 289 411 281 422 Q 271 432 250 435 Q 232 435 194 423 C 165 414 163 389 193 394 Q 236 401 270 407 Z" class="stroke5"/>
    <path d="M 189 291 Q 240 295 292 301 C 322 304 320 308 295 325 Q 273 343 191 313 C 163 303 159 289 189 291 Z" class="stroke6"/>
    <path d="M 652 620 Q 658 626 741 659 Q 745 662 756 657 Q 766 651 760 630 Q 712 489 713 488 Q 713 476 734 470 Q 774 442 803 396 Q 828 357 829 321 Q 829 303 817 291 Q 804 282 778 287 Q 739 294 706 299 Q 699 300 699 293 Q 700 286 716 276 Q 791 231 804 208 Q 813 195 824 193 Q 836 192 850 204 Q 887 249 889 303 Q 890 385 777 480 Q 735 499 806 596 Q 822 629 850 644 Q 878 663 851 680 Q 811 708 788 718 Q 770 722 755 712 Q 734 693 639 651 Q 632 650 627 646 C 599 634 625 606 652 620 Z" class="stroke7"/>
    <path d="M 590 -7 Q 594 -32 602 -41 Q 608 -48 615 -46 Q 633 -34 636 21 Q 643 103 642 185 Q 642 200 641 529 Q 645 574 652 620 C 653 630 653 631 627 646 Q 605 661 594 662 Q 581 666 566 658 Q 557 649 565 639 Q 569 629 576 620 Q 589 595 590 561 Q 593 414 587 184 Q 586 42 590 -7 Z" class="stroke8"/>
    <text x="297" y="844" style="transform-origin:297px 844px; transform:scale(1,-1);">1</text>
    <text x="233" y="613" style="transform-origin:233px 613px; transform:scale(1,-1);">2</text>
    <text x="156" y="536" style="transform-origin:156px 536px; transform:scale(1,-1);">3</text>
    <text x="195" y="526" style="transform-origin:195px 526px; transform:scale(1,-1);">4</text>
    <text x="200" y="401" style="transform-origin:200px 401px; transform:scale(1,-1);">5</text>
    <text x="196" y="296" style="transform-origin:196px 296px; transform:scale(1,-1);">6</text>
    <text x="635" y="645" style="transform-origin:635px 645px; transform:scale(1,-1);">7</text>
    <text x="574" y="648" style="transform-origin:574px 648px; transform:scale(1,-1);">8</text></g>
</svg>