<svg version="1.1" viewBox="0 0 1024 1024" xmlns="http://www.w3.org/2000/svg">
  <g stroke="lightgray" stroke-dasharray="1,1" stroke-width="1" transform="scale(4, 4)">
    <line x1="0" y1="0" x2="256" y2="256"/>
    <line x1="256" y1="0" x2="0" y2="256"/>
    <line x1="128" y1="0" x2="128" y2="256"/>
    <line x1="0" y1="128" x2="256" y2="128"/>
  </g>
  <g transform="scale(1, -1) translate(0, -900)">
    <style type="text/css">
        .stroke1 {fill: #BF0909;}
        .stroke2 {fill: #BFBF09;}
        .stroke3 {fill: #09BF09;}
        .stroke4 {fill: #09BFBF;}
        .stroke5 {fill: #0909BF;}
        .stroke6 {fill: #BF09BF;}
        .stroke7 {fill: #42005e;}
        .stroke8 {fill: #ff3333;}
        .stroke9 {fill: #BFBFBF;}
        .stroke10 {fill: #00a53f;}
        .stroke11 {fill: #fff000;}
        .stroke12 {fill: #6600a5;}
        .stroke13 {fill: #0053a5;}
        .stroke14 {fill: #62c22b;}
        .stroke15 {fill: #BF09BF;}
        .stroke16 {fill: #BF0909;}
        .stroke17 {fill: #BFBF09;}
        .stroke18 {fill: #09BF09;}
        .stroke19 {fill: #09BFBF;}
        .stroke20 {fill: #0909BF;}
        text {
            font-family: Helvetica;
            font-size: 50px;
            fill: #FFFFFF;
            paint-order: stroke;
            stroke: #000000;
            stroke-width: 4px;
            stroke-linecap: butt;
            stroke-linejoin: miter;
            font-weight: 800;
        }
    </style>

    <path d="M 213 465 Q 270 541 332 656 Q 333 662 336 666 L 345 683 Q 363 719 381 737 Q 390 749 384 762 Q 380 774 350 795 Q 322 811 304 810 Q 285 807 295 786 Q 311 752 300 723 Q 239 552 77 339 Q 67 329 66 322 Q 63 310 77 314 Q 110 323 205 453 L 213 465 Z" class="stroke1"/>
    <path d="M 336 666 Q 340 659 357 648 Q 391 623 429 593 Q 439 586 451 586 Q 458 587 462 596 Q 463 608 457 629 Q 444 663 352 683 Q 348 684 345 683 C 324 682 324 682 336 666 Z" class="stroke2"/>
    <path d="M 313 454 Q 403 482 405 485 Q 412 492 407 499 Q 400 508 377 511 Q 352 512 329 501 Q 307 491 281 482 Q 253 473 219 467 Q 215 467 213 465 C 197 460 197 460 205 453 Q 223 435 276 442 L 313 454 Z" class="stroke3"/>
    <path d="M 335 329 Q 411 350 416 355 Q 423 361 419 367 Q 413 376 391 380 Q 376 383 336 370 L 288 353 Q 279 352 271 348 Q 228 336 177 328 Q 149 322 170 311 Q 203 296 246 307 Q 265 313 289 317 L 335 329 Z" class="stroke4"/>
    <path d="M 330 160 Q 331 254 335 329 L 336 370 Q 336 388 339 410 Q 345 431 313 454 C 289 472 263 469 276 442 Q 288 424 288 353 L 289 317 Q 289 259 289 149 C 289 119 330 130 330 160 Z" class="stroke5"/>
    <path d="M 171 243 Q 205 182 227 176 Q 239 173 246 188 Q 250 198 244 218 Q 232 248 179 266 Q 172 269 169 259 Q 166 252 171 243 Z" class="stroke6"/>
    <path d="M 398 284 Q 388 262 363 229 Q 359 225 363 220 Q 367 219 373 222 Q 422 259 448 272 Q 460 276 456 283 Q 452 293 438 305 Q 425 317 410 317 Q 400 317 401 304 Q 404 294 398 284 Z" class="stroke7"/>
    <path d="M 289 149 Q 234 136 175 120 Q 156 114 127 116 Q 114 115 113 105 Q 110 93 119 85 Q 140 69 171 50 Q 181 47 192 55 Q 234 86 329 122 L 329 121 L 328 121 Q 327 122 329 122 L 329 122 Q 360 137 395 150 Q 446 168 450 187 Q 446 193 433 191 Q 384 176 330 160 L 289 149 Z" class="stroke8"/>
    <path d="M 618 788 Q 675 731 691 729 Q 701 729 705 741 Q 709 754 703 779 Q 699 797 672 810 Q 608 834 596 831 Q 592 827 592 816 Q 595 806 618 788 Z" class="stroke9"/>
    <path d="M 749 673 Q 833 697 835 697 Q 842 704 838 711 Q 832 720 809 726 Q 788 729 684 698 Q 560 674 523 670 Q 493 666 514 651 Q 547 633 633 651 Q 673 660 717 667 L 749 673 Z" class="stroke10"/>
    <path d="M 536 601 Q 561 538 581 530 Q 591 526 600 538 Q 604 548 601 565 Q 592 593 546 620 Q 539 624 536 615 Q 533 609 536 601 Z" class="stroke11"/>
    <path d="M 718 537 Q 722 544 728 552 Q 743 571 757 597 Q 764 609 776 623 Q 789 633 781 642 Q 774 657 749 673 C 724 690 708 696 717 667 Q 717 666 718 664 Q 727 637 696 554 Q 690 542 688 531 C 681 502 702 511 718 537 Z" class="stroke12"/>
    <path d="M 688 531 Q 678 530 669 528 Q 569 510 449 491 Q 433 488 446 475 Q 473 453 512 464 Q 683 516 910 516 L 912 516 Q 928 516 932 524 Q 936 534 922 544 Q 876 575 826 561 Q 780 551 718 537 L 688 531 Z" class="stroke13"/>
    <path d="M 509 410 Q 500 414 483 416 Q 471 419 469 415 Q 463 409 470 395 Q 497 340 511 248 Q 514 220 530 202 Q 546 183 550 197 Q 551 203 553 210 L 554 230 Q 551 255 531 381 C 527 404 527 404 509 410 Z" class="stroke14"/>
    <path d="M 743 233 Q 758 211 773 202 Q 783 195 797 214 Q 810 233 837 343 Q 846 371 867 394 Q 880 404 869 418 Q 856 433 817 458 Q 801 465 742 451 Q 724 450 600 426 Q 551 416 509 410 C 479 406 502 373 531 381 Q 564 391 609 400 L 645 406 Q 762 430 781 416 Q 793 407 789 391 Q 770 286 761 270 Q 757 263 748 257 C 735 244 735 244 743 233 Z" class="stroke15"/>
    <path d="M 671 316 Q 702 323 730 327 Q 746 330 741 339 Q 734 349 715 352 Q 699 353 673 346 L 627 334 Q 596 325 565 317 Q 553 314 568 303 L 627 307 L 671 316 Z" class="stroke16"/>
    <path d="M 668 224 Q 707 231 743 233 C 773 235 773 241 748 257 Q 736 269 688 258 Q 678 257 669 253 L 627 245 Q 588 238 554 230 C 525 223 523 207 553 210 L 627 218 L 668 224 Z" class="stroke17"/>
    <path d="M 664 44 Q 664 80 665 113 L 665 151 Q 666 190 668 224 L 669 253 Q 670 286 671 316 L 673 346 Q 673 383 672 385 Q 659 398 645 406 C 620 422 596 427 609 400 Q 615 387 621 377 Q 625 361 627 334 L 627 307 Q 627 285 627 245 L 627 218 Q 627 187 626 143 L 626 107 Q 626 76 626 40 C 626 10 664 14 664 44 Z" class="stroke18"/>
    <path d="M 665 113 Q 783 135 786 137 Q 793 144 790 150 Q 784 160 761 167 Q 737 173 665 151 L 626 143 Q 580 136 528 133 Q 498 130 519 115 Q 549 97 599 103 Q 611 107 626 107 L 665 113 Z" class="stroke19"/>
    <path d="M 626 40 Q 529 31 417 21 Q 396 20 411 2 Q 424 -11 441 -17 Q 460 -23 477 -19 Q 675 27 929 6 Q 948 6 954 14 Q 958 24 944 39 Q 893 78 858 71 Q 786 59 664 44 L 626 40 Z" class="stroke20"/>
    <text x="305" y="796" style="transform-origin:305px 796px; transform:scale(1,-1);">1</text>
    <text x="349" y="676" style="transform-origin:349px 676px; transform:scale(1,-1);">2</text>
    <text x="214" y="456" style="transform-origin:214px 456px; transform:scale(1,-1);">3</text>
    <text x="171" y="321" style="transform-origin:171px 321px; transform:scale(1,-1);">4</text>
    <text x="283" y="441" style="transform-origin:283px 441px; transform:scale(1,-1);">5</text>
    <text x="180" y="254" style="transform-origin:180px 254px; transform:scale(1,-1);">6</text>
    <text x="444" y="283" style="transform-origin:444px 283px; transform:scale(1,-1);">7</text>
    <text x="126" y="103" style="transform-origin:126px 103px; transform:scale(1,-1);">8</text>
    <text x="600" y="822" style="transform-origin:600px 822px; transform:scale(1,-1);">9</text>
    <text x="516" y="662" style="transform-origin:516px 662px; transform:scale(1,-1);">10</text>
    <text x="546" y="608" style="transform-origin:546px 608px; transform:scale(1,-1);">11</text>
    <text x="722" y="667" style="transform-origin:722px 667px; transform:scale(1,-1);">12</text>
    <text x="448" y="483" style="transform-origin:448px 483px; transform:scale(1,-1);">13</text>
    <text x="477" y="408" style="transform-origin:477px 408px; transform:scale(1,-1);">14</text>
    <text x="517" y="408" style="transform-origin:517px 408px; transform:scale(1,-1);">15</text>
    <text x="573" y="311" style="transform-origin:573px 311px; transform:scale(1,-1);">16</text>
    <text x="560" y="215" style="transform-origin:560px 215px; transform:scale(1,-1);">17</text>
    <text x="616" y="396" style="transform-origin:616px 396px; transform:scale(1,-1);">18</text>
    <text x="521" y="125" style="transform-origin:521px 125px; transform:scale(1,-1);">19</text>
    <text x="414" y="11" style="transform-origin:414px 11px; transform:scale(1,-1);">20</text></g>
</svg>