<svg version="1.1" viewBox="0 0 1024 1024" xmlns="http://www.w3.org/2000/svg">
  <g stroke="lightgray" stroke-dasharray="1,1" stroke-width="1" transform="scale(4, 4)">
    <line x1="0" y1="0" x2="256" y2="256"/>
    <line x1="256" y1="0" x2="0" y2="256"/>
    <line x1="128" y1="0" x2="128" y2="256"/>
    <line x1="0" y1="128" x2="256" y2="128"/>
  </g>
  <g transform="scale(1, -1) translate(0, -900)">
    <style type="text/css">
        .stroke1 {fill: #BF0909;}
        .stroke2 {fill: #BFBF09;}
        .stroke3 {fill: #09BF09;}
        .stroke4 {fill: #09BFBF;}
        .stroke5 {fill: #0909BF;}
        .stroke6 {fill: #BF09BF;}
        .stroke7 {fill: #42005e;}
        .stroke8 {fill: #ff3333;}
        .stroke9 {fill: #BFBFBF;}
        .stroke10 {fill: #00a53f;}
        .stroke11 {fill: #fff000;}
        .stroke12 {fill: #6600a5;}
        .stroke13 {fill: #0053a5;}
        .stroke14 {fill: #62c22b;}
        .stroke15 {fill: #BF09BF;}
        .stroke16 {fill: #BF0909;}
        .stroke17 {fill: #BFBF09;}
        .stroke18 {fill: #09BF09;}
        .stroke19 {fill: #09BFBF;}
        .stroke20 {fill: #0909BF;}
        text {
            font-family: Helvetica;
            font-size: 50px;
            fill: #FFFFFF;
            paint-order: stroke;
            stroke: #000000;
            stroke-width: 4px;
            stroke-linecap: butt;
            stroke-linejoin: miter;
            font-weight: 800;
        }
    </style>

    <path d="M 288 698 Q 301 720 315 734 Q 322 744 318 757 Q 314 767 287 787 Q 262 803 245 802 Q 229 799 236 780 Q 249 752 241 728 Q 192 590 61 416 Q 52 406 50 401 Q 49 391 60 394 Q 111 401 254 634 Q 264 655 277 677 L 288 698 Z" class="stroke1"/>
    <path d="M 277 677 Q 283 673 294 665 Q 361 617 371 617 Q 378 618 382 628 Q 383 640 376 660 Q 364 685 288 698 C 258 703 252 694 277 677 Z" class="stroke2"/>
    <path d="M 265 472 Q 295 484 327 495 Q 345 501 347 504 Q 353 511 348 518 Q 341 528 315 530 Q 300 530 228 501 Q 204 492 174 485 Q 144 475 169 465 Q 188 458 229 460 L 265 472 Z" class="stroke3"/>
    <path d="M 282 352 Q 357 377 361 381 Q 368 388 363 395 Q 356 404 333 407 Q 308 408 285 397 Q 284 397 283 396 L 240 378 Q 150 354 143 351 Q 115 344 137 332 Q 176 316 216 332 Q 228 336 241 340 L 282 352 Z" class="stroke4"/>
    <path d="M 279 198 Q 280 282 282 352 L 283 396 Q 283 415 285 435 Q 291 451 283 458 Q 274 467 265 472 C 240 488 221 489 229 460 Q 235 444 240 378 L 241 340 Q 241 285 242 186 C 242 156 279 168 279 198 Z" class="stroke5"/>
    <path d="M 128 250 Q 171 199 184 196 Q 191 195 197 205 Q 203 215 199 239 Q 195 263 129 288 Q 117 292 112 290 Q 108 289 108 278 Q 109 269 128 250 Z" class="stroke6"/>
    <path d="M 332 309 Q 322 285 298 249 Q 295 243 299 240 Q 303 239 309 243 Q 358 285 382 301 Q 394 305 390 312 Q 384 322 370 333 Q 357 343 341 343 Q 331 342 334 329 Q 335 320 332 309 Z" class="stroke7"/>
    <path d="M 242 186 Q 191 171 140 154 Q 125 148 100 149 Q 87 148 86 137 Q 85 124 94 117 Q 116 102 148 86 Q 158 83 169 92 Q 199 119 329 186 Q 348 196 361 207 Q 374 214 373 224 Q 369 228 356 226 Q 319 213 279 198 L 242 186 Z" class="stroke8"/>
    <path d="M 594 699 Q 637 769 662 799 Q 674 808 667 815 Q 657 825 638 833 Q 619 840 601 835 Q 591 831 597 816 Q 609 798 571 692 C 561 664 578 673 594 699 Z" class="stroke9"/>
    <path d="M 571 692 Q 571 693 569 694 Q 548 706 538 702 Q 535 701 541 679 Q 560 649 552 500 Q 549 491 548 479 Q 539 439 566 411 Q 573 402 580 411 Q 587 421 588 434 L 588 464 Q 588 513 586 555 L 586 583 Q 585 655 586 661 Q 587 668 586 673 C 586 682 586 682 571 692 Z" class="stroke10"/>
    <path d="M 627 441 Q 643 422 655 400 Q 662 388 673 388 Q 683 389 698 422 Q 714 455 712 487 Q 706 566 701 639 Q 700 667 711 691 Q 718 703 708 711 Q 695 721 667 728 Q 654 734 594 699 C 565 682 554 661 586 673 Q 646 697 656 694 Q 662 690 658 675 Q 668 563 662 474 Q 661 464 657 458 C 647 430 610 462 627 441 Z" class="stroke11"/>
    <path d="M 586 555 Q 586 556 587 556 Q 620 563 644 568 Q 662 574 654 582 Q 644 592 624 593 Q 608 593 586 583 C 559 571 560 540 586 555 Z" class="stroke12"/>
    <path d="M 588 434 Q 607 440 627 441 C 657 443 671 444 657 458 Q 648 468 628 471 Q 612 472 588 464 C 559 455 559 425 588 434 Z" class="stroke13"/>
    <path d="M 474 546 Q 471 547 425 544 Q 403 541 413 556 Q 447 622 480 671 Q 487 684 486 689 Q 483 699 455 717 Q 443 726 431 722 Q 424 719 428 709 Q 441 685 399 587 Q 390 566 370 544 Q 358 534 360 525 Q 364 512 375 501 Q 382 494 391 500 Q 401 509 440 524 Q 456 528 467 532 C 495 541 504 546 474 546 Z" class="stroke14"/>
    <path d="M 494 443 Q 472 439 447 429 Q 428 420 439 438 Q 511 546 543 578 Q 552 585 546 592 Q 539 605 513 618 Q 501 624 494 621 Q 487 618 489 607 Q 492 592 474 546 L 467 532 Q 413 433 385 415 Q 375 408 378 397 Q 379 388 400 375 Q 407 368 418 377 Q 449 407 499 428 C 526 440 523 449 494 443 Z" class="stroke15"/>
    <path d="M 499 428 Q 509 407 519 403 Q 526 399 535 408 Q 539 415 538 430 Q 531 458 496 476 Q 492 479 488 472 Q 485 468 487 461 Q 490 452 494 443 L 499 428 Z" class="stroke16"/>
    <path d="M 831 592 Q 806 595 786 595 Q 755 595 771 614 Q 804 672 836 717 Q 845 730 843 735 Q 840 745 810 766 Q 798 775 785 771 Q 778 770 782 758 Q 795 731 753 641 Q 744 622 725 602 Q 712 592 713 583 Q 717 570 727 557 Q 734 550 743 554 Q 758 563 807 573 Q 814 574 820 573 C 850 572 861 589 831 592 Z" class="stroke17"/>
    <path d="M 860 484 Q 832 483 801 474 Q 776 465 792 486 Q 864 588 906 623 Q 916 630 911 638 Q 902 653 877 667 Q 864 674 857 672 Q 850 669 851 657 Q 851 642 831 592 L 820 573 Q 819 572 817 568 Q 753 477 732 465 Q 722 458 724 447 Q 725 437 745 422 Q 752 412 765 422 Q 819 458 867 470 C 896 478 890 486 860 484 Z" class="stroke18"/>
    <path d="M 867 470 Q 888 431 897 428 Q 904 427 910 433 Q 916 440 917 461 Q 918 476 901 494 Q 859 530 848 530 Q 844 529 842 521 L 860 484 L 867 470 Z" class="stroke19"/>
    <path d="M 649 288 Q 724 300 834 303 Q 888 303 892 313 Q 896 323 881 335 Q 829 372 784 355 Q 730 342 651 324 L 599 315 Q 508 299 402 280 Q 383 277 398 263 Q 411 251 427 247 Q 446 243 461 248 Q 507 264 563 273 L 649 288 Z" class="stroke20"/>
    <path d="M 648 275 Q 648 282 649 288 L 651 324 Q 651 366 650 367 Q 628 386 609 396 Q 597 400 588 393 Q 582 389 589 380 Q 592 374 599 315 L 597 232 Q 597 112 582 59 Q 567 22 613 -40 Q 617 -47 624 -50 Q 634 -51 640 -39 Q 652 -8 649 22 Q 646 139 647 236 L 648 275 Z" class="stroke21"/>
    <path d="M 563 273 Q 530 177 357 55 Q 342 43 357 42 Q 367 41 402 56 Q 444 71 482 101 Q 515 128 551 170 Q 579 204 597 232 C 633 287 581 320 563 273 Z" class="stroke22"/>
    <path d="M 647 236 Q 705 160 770 88 Q 792 66 829 63 Q 896 57 968 68 Q 987 69 988 75 Q 991 81 976 87 Q 817 150 794 163 Q 746 187 648 275 C 626 295 629 260 647 236 Z" class="stroke23"/>
    <text x="247" y="788" style="transform-origin:247px 788px; transform:scale(1,-1);">1</text>
    <text x="284" y="680" style="transform-origin:284px 680px; transform:scale(1,-1);">2</text>
    <text x="168" y="476" style="transform-origin:168px 476px; transform:scale(1,-1);">3</text>
    <text x="138" y="342" style="transform-origin:138px 342px; transform:scale(1,-1);">4</text>
    <text x="236" y="458" style="transform-origin:236px 458px; transform:scale(1,-1);">5</text>
    <text x="116" y="282" style="transform-origin:116px 282px; transform:scale(1,-1);">6</text>
    <text x="379" y="312" style="transform-origin:379px 312px; transform:scale(1,-1);">7</text>
    <text x="99" y="136" style="transform-origin:99px 136px; transform:scale(1,-1);">8</text>
    <text x="659" y="809" style="transform-origin:659px 809px; transform:scale(1,-1);">9</text>
    <text x="542" y="698" style="transform-origin:542px 698px; transform:scale(1,-1);">10</text>
    <text x="578" y="690" style="transform-origin:578px 690px; transform:scale(1,-1);">11</text>
    <text x="594" y="563" style="transform-origin:594px 563px; transform:scale(1,-1);">12</text>
    <text x="593" y="442" style="transform-origin:593px 442px; transform:scale(1,-1);">13</text>
    <text x="438" y="714" style="transform-origin:438px 714px; transform:scale(1,-1);">14</text>
    <text x="499" y="611" style="transform-origin:499px 611px; transform:scale(1,-1);">15</text>
    <text x="496" y="466" style="transform-origin:496px 466px; transform:scale(1,-1);">16</text>
    <text x="792" y="763" style="transform-origin:792px 763px; transform:scale(1,-1);">17</text>
    <text x="861" y="663" style="transform-origin:861px 663px; transform:scale(1,-1);">18</text>
    <text x="849" y="523" style="transform-origin:849px 523px; transform:scale(1,-1);">19</text>
    <text x="400" y="272" style="transform-origin:400px 272px; transform:scale(1,-1);">20</text>
    <text x="596" y="387" style="transform-origin:596px 387px; transform:scale(1,-1);">21</text>
    <text x="593" y="271" style="transform-origin:593px 271px; transform:scale(1,-1);">22</text>
    <text x="655" y="255" style="transform-origin:655px 255px; transform:scale(1,-1);">23</text></g>
</svg>