<svg version="1.1" viewBox="0 0 1024 1024" xmlns="http://www.w3.org/2000/svg">
  <g stroke="lightgray" stroke-dasharray="1,1" stroke-width="1" transform="scale(4, 4)">
    <line x1="0" y1="0" x2="256" y2="256"/>
    <line x1="256" y1="0" x2="0" y2="256"/>
    <line x1="128" y1="0" x2="128" y2="256"/>
    <line x1="0" y1="128" x2="256" y2="128"/>
  </g>
  <g transform="scale(1, -1) translate(0, -900)">
    <style type="text/css">
        .stroke1 {fill: #BF0909;}
        .stroke2 {fill: #BFBF09;}
        .stroke3 {fill: #09BF09;}
        .stroke4 {fill: #09BFBF;}
        .stroke5 {fill: #0909BF;}
        .stroke6 {fill: #BF09BF;}
        .stroke7 {fill: #42005e;}
        .stroke8 {fill: #ff3333;}
        .stroke9 {fill: #BFBFBF;}
        .stroke10 {fill: #00a53f;}
        .stroke11 {fill: #fff000;}
        .stroke12 {fill: #6600a5;}
        .stroke13 {fill: #0053a5;}
        .stroke14 {fill: #62c22b;}
        .stroke15 {fill: #BF09BF;}
        .stroke16 {fill: #BF0909;}
        .stroke17 {fill: #BFBF09;}
        .stroke18 {fill: #09BF09;}
        .stroke19 {fill: #09BFBF;}
        .stroke20 {fill: #0909BF;}
        text {
            font-family: Helvetica;
            font-size: 50px;
            fill: #FFFFFF;
            paint-order: stroke;
            stroke: #000000;
            stroke-width: 4px;
            stroke-linecap: butt;
            stroke-linejoin: miter;
            font-weight: 800;
        }
    </style>

    <path d="M 315 686 Q 328 713 342 728 Q 351 738 345 751 Q 339 764 310 783 Q 283 798 265 796 Q 247 793 257 773 Q 273 743 264 716 Q 218 566 76 362 Q 67 352 65 345 Q 64 335 76 338 Q 131 354 265 587 Q 301 657 304 664 L 315 686 Z" class="stroke1"/>
    <path d="M 304 664 Q 308 660 319 653 Q 389 605 399 605 Q 406 606 410 616 Q 411 628 403 648 Q 390 678 315 686 C 285 689 281 684 304 664 Z" class="stroke2"/>
    <path d="M 281 427 Q 318 442 360 456 Q 384 466 387 469 Q 393 476 388 483 Q 381 492 357 494 Q 332 495 310 481 Q 285 468 255 457 Q 224 444 186 435 Q 158 426 181 416 Q 202 407 242 413 L 281 427 Z" class="stroke3"/>
    <path d="M 301 305 Q 332 317 365 326 Q 396 336 401 341 Q 408 348 403 355 Q 396 364 373 367 Q 348 370 301 347 C 274 334 262 329 254 327 Q 253 328 251 327 Q 208 314 156 303 Q 128 296 149 284 Q 182 271 255 291 L 301 305 Z" class="stroke4"/>
    <path d="M 297 122 Q 298 222 301 305 L 301 347 Q 301 366 303 386 Q 310 402 301 411 Q 291 421 281 427 C 256 444 233 442 242 413 Q 249 397 254 327 L 255 291 Q 255 227 256 107 C 256 77 297 92 297 122 Z" class="stroke5"/>
    <path d="M 137 191 Q 186 137 196 135 Q 205 135 209 145 Q 213 155 210 179 Q 207 195 185 208 Q 131 233 120 230 Q 116 229 116 218 Q 117 209 137 191 Z" class="stroke6"/>
    <path d="M 361 242 Q 352 220 330 181 Q 327 175 331 171 Q 337 171 342 175 Q 391 218 415 235 Q 428 239 423 247 Q 417 257 402 269 Q 387 279 371 279 Q 361 278 363 264 Q 366 254 361 242 Z" class="stroke7"/>
    <path d="M 256 107 Q 204 89 150 70 Q 132 64 103 63 Q 90 62 89 50 Q 88 37 97 30 Q 121 15 155 -1 Q 165 -4 177 5 Q 205 30 367 117 Q 389 129 405 143 Q 418 150 417 160 Q 413 166 400 162 Q 351 143 297 122 L 256 107 Z" class="stroke8"/>
    <path d="M 497 747 Q 484 707 455 669 Q 448 659 450 649 Q 453 640 466 631 Q 494 610 521 586 Q 534 573 546 574 Q 556 575 557 594 Q 557 613 546 625 Q 539 634 504 640 Q 489 643 483 652 Q 479 659 487 670 Q 553 745 556 746 Q 568 753 563 767 Q 553 795 533 808 Q 521 815 512 813 Q 502 812 507 796 Q 513 777 497 747 Z" class="stroke9"/>
    <path d="M 625 768 Q 610 729 583 693 Q 576 683 579 673 Q 580 664 595 655 Q 623 636 649 612 Q 664 600 675 601 Q 685 604 685 622 Q 685 641 674 653 Q 667 660 633 666 Q 618 667 612 676 Q 606 683 615 693 Q 676 762 683 766 Q 696 773 690 787 Q 680 815 661 828 Q 651 835 640 833 Q 630 832 635 817 Q 639 796 625 768 Z" class="stroke10"/>
    <path d="M 760 781 Q 750 750 729 718 Q 722 708 724 696 Q 727 686 742 676 Q 769 654 792 629 Q 808 614 820 615 Q 832 616 833 637 Q 834 659 822 672 Q 816 679 784 685 Q 768 688 760 699 Q 754 706 765 720 Q 775 729 794 749 Q 810 771 825 781 Q 838 788 833 805 Q 820 836 799 849 Q 786 856 775 855 Q 765 854 770 836 Q 777 814 760 781 Z" class="stroke11"/>
    <path d="M 482 541 Q 482 542 481 543 Q 471 547 439 551 Q 429 552 426 548 Q 422 542 430 530 Q 458 481 478 400 Q 482 376 498 361 Q 514 343 517 357 L 519 369 L 518 391 Q 517 401 514 411 Q 496 481 490 511 L 482 541 Z" class="stroke12"/>
    <path d="M 764 408 Q 768 398 779 397 Q 791 398 798 410 Q 807 420 826 472 Q 839 515 871 541 Q 887 554 873 568 Q 858 583 816 605 Q 801 614 743 597 Q 695 591 572 561 Q 520 549 482 541 C 453 535 461 503 490 511 Q 496 512 500 513 Q 548 532 639 549 L 660 554 Q 768 578 790 569 Q 797 565 793 541 Q 780 481 763 432 C 757 414 757 414 764 408 Z" class="stroke13"/>
    <path d="M 639 549 Q 639 531 618 500 Q 617 500 617 499 L 602 480 Q 581 461 541 426 Q 537 425 542 422 Q 579 422 629 471 L 653 494 Q 654 497 679 521 Q 683 522 683 529 Q 683 535 677 542 Q 670 549 660 554 C 640 565 640 565 639 549 Z" class="stroke14"/>
    <path d="M 617 499 Q 572 505 548 505 Q 544 505 546 500 Q 546 497 602 480 L 629 471 Q 704 447 707 447 Q 711 448 712 454 Q 713 461 700 476 Q 688 491 653 494 L 617 499 Z" class="stroke15"/>
    <path d="M 519 369 Q 529 368 544 371 Q 670 395 764 408 C 794 412 789 417 763 432 Q 759 436 749 438 Q 728 439 518 391 C 489 384 489 370 519 369 Z" class="stroke16"/>
    <path d="M 499 277 Q 503 290 496 299 Q 478 315 460 324 Q 447 331 438 327 Q 428 321 438 305 Q 474 245 426 46 Q 419 30 407 10 Q 397 -6 405 -16 Q 412 -26 434 -36 Q 447 -42 458 -27 Q 465 0 523 53 Q 545 69 552 87 Q 556 97 550 96 Q 541 96 486 52 Q 479 46 475 48 Q 465 51 469 72 Q 484 166 490 213 Q 491 250 499 277 Z" class="stroke17"/>
    <path d="M 519 294 Q 549 264 564 265 Q 573 265 575 277 Q 575 286 567 298 Q 554 311 519 312 Q 513 312 514 305 Q 513 299 519 294 Z" class="stroke18"/>
    <path d="M 513 198 Q 549 155 564 154 Q 571 153 576 165 Q 577 174 571 186 Q 564 196 549 202 Q 527 212 516 215 Q 510 216 509 208 Q 508 204 513 198 Z" class="stroke19"/>
    <path d="M 641 316 Q 645 332 634 342 Q 612 364 596 367 Q 586 368 581 365 Q 572 359 581 348 Q 597 317 597 290 Q 603 68 579 26 Q 570 7 580 -11 Q 592 -38 608 -46 Q 618 -52 627 -34 Q 646 9 724 125 Q 736 141 735 148 Q 734 158 719 145 Q 641 69 635 67 Q 631 68 629 76 Q 632 268 641 316 Z" class="stroke20"/>
    <path d="M 665 329 Q 692 292 711 290 Q 720 289 724 302 Q 725 311 718 325 Q 708 340 668 347 Q 662 348 661 340 Q 660 334 665 329 Z" class="stroke21"/>
    <path d="M 661 228 Q 688 189 707 186 Q 716 185 721 198 Q 722 207 716 221 Q 709 231 696 235 Q 674 245 664 247 Q 658 248 657 240 Q 656 234 661 228 Z" class="stroke22"/>
    <path d="M 737 346 Q 753 306 752 264 Q 752 56 837 -24 Q 885 -61 929 -74 Q 959 -81 977 -71 Q 995 -70 987 -35 Q 971 32 969 122 Q 969 134 962 142 Q 955 146 952 138 Q 916 12 895 5 Q 891 1 876 8 Q 819 29 800 117 Q 790 169 794 253 Q 795 290 805 307 Q 815 323 788 348 Q 758 379 742 376 Q 726 372 737 346 Z" class="stroke23"/>
    <text x="266" y="783" style="transform-origin:266px 783px; transform:scale(1,-1);">1</text>
    <text x="311" y="667" style="transform-origin:311px 667px; transform:scale(1,-1);">2</text>
    <text x="181" y="426" style="transform-origin:181px 426px; transform:scale(1,-1);">3</text>
    <text x="151" y="294" style="transform-origin:151px 294px; transform:scale(1,-1);">4</text>
    <text x="250" y="412" style="transform-origin:250px 412px; transform:scale(1,-1);">5</text>
    <text x="123" y="222" style="transform-origin:123px 222px; transform:scale(1,-1);">6</text>
    <text x="373" y="269" style="transform-origin:373px 269px; transform:scale(1,-1);">7</text>
    <text x="102" y="50" style="transform-origin:102px 50px; transform:scale(1,-1);">8</text>
    <text x="515" y="803" style="transform-origin:515px 803px; transform:scale(1,-1);">9</text>
    <text x="642" y="824" style="transform-origin:642px 824px; transform:scale(1,-1);">10</text>
    <text x="779" y="844" style="transform-origin:779px 844px; transform:scale(1,-1);">11</text>
    <text x="434" y="543" style="transform-origin:434px 543px; transform:scale(1,-1);">12</text>
    <text x="490" y="535" style="transform-origin:490px 535px; transform:scale(1,-1);">13</text>
    <text x="646" y="543" style="transform-origin:646px 543px; transform:scale(1,-1);">14</text>
    <text x="550" y="501" style="transform-origin:550px 501px; transform:scale(1,-1);">15</text>
    <text x="525" y="375" style="transform-origin:525px 375px; transform:scale(1,-1);">16</text>
    <text x="444" y="318" style="transform-origin:444px 318px; transform:scale(1,-1);">17</text>
    <text x="524" y="303" style="transform-origin:524px 303px; transform:scale(1,-1);">18</text>
    <text x="518" y="206" style="transform-origin:518px 206px; transform:scale(1,-1);">19</text>
    <text x="587" y="357" style="transform-origin:587px 357px; transform:scale(1,-1);">20</text>
    <text x="671" y="337" style="transform-origin:671px 337px; transform:scale(1,-1);">21</text>
    <text x="666" y="238" style="transform-origin:666px 238px; transform:scale(1,-1);">22</text>
    <text x="746" y="363" style="transform-origin:746px 363px; transform:scale(1,-1);">23</text></g>
</svg>