<svg version="1.1" viewBox="0 0 1024 1024" xmlns="http://www.w3.org/2000/svg">
  <g stroke="lightgray" stroke-dasharray="1,1" stroke-width="1" transform="scale(4, 4)">
    <line x1="0" y1="0" x2="256" y2="256"/>
    <line x1="256" y1="0" x2="0" y2="256"/>
    <line x1="128" y1="0" x2="128" y2="256"/>
    <line x1="0" y1="128" x2="256" y2="128"/>
  </g>
  <g transform="scale(1, -1) translate(0, -900)">
    <style type="text/css">
        .stroke1 {fill: #BF0909;}
        .stroke2 {fill: #BFBF09;}
        .stroke3 {fill: #09BF09;}
        .stroke4 {fill: #09BFBF;}
        .stroke5 {fill: #0909BF;}
        .stroke6 {fill: #BF09BF;}
        .stroke7 {fill: #42005e;}
        .stroke8 {fill: #ff3333;}
        .stroke9 {fill: #BFBFBF;}
        .stroke10 {fill: #00a53f;}
        .stroke11 {fill: #fff000;}
        .stroke12 {fill: #6600a5;}
        .stroke13 {fill: #0053a5;}
        .stroke14 {fill: #62c22b;}
        .stroke15 {fill: #BF09BF;}
        .stroke16 {fill: #BF0909;}
        .stroke17 {fill: #BFBF09;}
        .stroke18 {fill: #09BF09;}
        .stroke19 {fill: #09BFBF;}
        .stroke20 {fill: #0909BF;}
        text {
            font-family: Helvetica;
            font-size: 50px;
            fill: #FFFFFF;
            paint-order: stroke;
            stroke: #000000;
            stroke-width: 4px;
            stroke-linecap: butt;
            stroke-linejoin: miter;
            font-weight: 800;
        }
    </style>

    <path d="M 298 639 Q 355 733 377 752 Q 387 762 382 776 Q 378 789 350 812 Q 325 830 305 830 Q 286 829 294 807 Q 309 773 295 746 Q 229 593 59 394 Q 49 384 47 378 Q 43 368 57 370 Q 106 376 268 594 Q 272 603 279 610 L 298 639 Z" class="stroke1"/>
    <path d="M 279 610 Q 318 600 359 614 Q 401 627 444 641 Q 463 647 466 650 Q 473 659 468 666 Q 461 676 433 679 Q 408 680 337 650 Q 316 646 298 639 C 270 629 250 617 279 610 Z" class="stroke2"/>
    <path d="M 296 469 Q 429 512 433 516 Q 440 523 436 530 Q 429 540 403 543 Q 376 546 352 533 Q 324 520 290 508 Q 254 498 212 489 Q 181 480 205 468 Q 224 461 263 460 L 296 469 Z" class="stroke3"/>
    <path d="M 337 331 Q 445 362 453 370 Q 460 377 456 386 Q 449 396 421 400 Q 400 403 337 378 L 290 360 Q 185 335 170 331 Q 136 322 162 309 Q 202 290 251 307 Q 270 313 292 318 L 337 331 Z" class="stroke4"/>
    <path d="M 292 318 Q 292 188 250 129 Q 220 117 254 60 Q 257 56 262 51 Q 274 44 286 60 Q 299 85 430 190 Q 448 202 452 210 Q 456 220 446 220 Q 439 220 341 172 Q 329 166 328 177 Q 335 262 337 331 L 337 378 Q 337 399 342 416 Q 346 429 337 439 Q 316 458 296 469 C 270 485 251 487 263 460 Q 263 457 267 451 Q 286 409 290 360 L 292 318 Z" class="stroke5"/>
    <path d="M 520 565 Q 508 571 475 577 Q 462 581 459 575 Q 452 568 461 551 Q 492 487 510 381 Q 513 350 531 328 Q 550 306 555 322 Q 558 332 559 345 L 557 380 Q 548 414 534 529 C 530 559 530 561 520 565 Z" class="stroke6"/>
    <path d="M 860 411 Q 894 519 925 545 Q 946 567 918 586 Q 893 605 866 620 Q 850 633 828 622 Q 800 612 758 606 Q 733 603 709 598 L 655 588 Q 627 585 599 578 Q 554 571 520 565 C 490 560 505 522 534 529 Q 618 550 647 554 Q 648 555 655 555 L 708 562 Q 754 569 817 574 Q 830 575 835 569 Q 848 548 809 420 C 800 391 851 382 860 411 Z" class="stroke7"/>
    <path d="M 706 362 Q 775 371 870 376 Q 880 377 883 386 Q 883 393 860 411 C 842 425 839 425 809 420 Q 806 420 706 401 L 655 392 Q 603 385 557 380 C 527 377 529 346 559 345 Q 569 344 582 345 Q 612 352 655 356 L 706 362 Z" class="stroke8"/>
    <path d="M 655 356 Q 652 7 668 -21 Q 683 -36 691 -15 Q 706 27 706 362 L 706 401 Q 706 494 708 562 L 709 598 Q 712 724 731 755 Q 738 771 718 785 Q 694 804 652 815 Q 634 819 622 806 Q 612 799 624 786 Q 652 762 655 729 Q 655 674 655 588 L 655 555 Q 656 488 656 403 Q 655 399 655 392 L 655 356 Z" class="stroke9"/>
    <text x="304" y="816" style="transform-origin:304px 816px; transform:scale(1,-1);">1</text>
    <text x="286" y="612" style="transform-origin:286px 612px; transform:scale(1,-1);">2</text>
    <text x="206" y="479" style="transform-origin:206px 479px; transform:scale(1,-1);">3</text>
    <text x="163" y="321" style="transform-origin:163px 321px; transform:scale(1,-1);">4</text>
    <text x="270" y="458" style="transform-origin:270px 458px; transform:scale(1,-1);">5</text>
    <text x="468" y="567" style="transform-origin:468px 567px; transform:scale(1,-1);">6</text>
    <text x="527" y="561" style="transform-origin:527px 561px; transform:scale(1,-1);">7</text>
    <text x="564" y="375" style="transform-origin:564px 375px; transform:scale(1,-1);">8</text>
    <text x="629" y="797" style="transform-origin:629px 797px; transform:scale(1,-1);">9</text></g>
</svg>