<svg version="1.1" viewBox="0 0 1024 1024" xmlns="http://www.w3.org/2000/svg">
  <g stroke="lightgray" stroke-dasharray="1,1" stroke-width="1" transform="scale(4, 4)">
    <line x1="0" y1="0" x2="256" y2="256"/>
    <line x1="256" y1="0" x2="0" y2="256"/>
    <line x1="128" y1="0" x2="128" y2="256"/>
    <line x1="0" y1="128" x2="256" y2="128"/>
  </g>
  <g transform="scale(1, -1) translate(0, -900)">
    <style type="text/css">
        .stroke1 {fill: #BF0909;}
        .stroke2 {fill: #BFBF09;}
        .stroke3 {fill: #09BF09;}
        .stroke4 {fill: #09BFBF;}
        .stroke5 {fill: #0909BF;}
        .stroke6 {fill: #BF09BF;}
        .stroke7 {fill: #42005e;}
        .stroke8 {fill: #ff3333;}
        .stroke9 {fill: #BFBFBF;}
        .stroke10 {fill: #00a53f;}
        .stroke11 {fill: #fff000;}
        .stroke12 {fill: #6600a5;}
        .stroke13 {fill: #0053a5;}
        .stroke14 {fill: #62c22b;}
        .stroke15 {fill: #BF09BF;}
        .stroke16 {fill: #BF0909;}
        .stroke17 {fill: #BFBF09;}
        .stroke18 {fill: #09BF09;}
        .stroke19 {fill: #09BFBF;}
        .stroke20 {fill: #0909BF;}
        text {
            font-family: Helvetica;
            font-size: 50px;
            fill: #FFFFFF;
            paint-order: stroke;
            stroke: #000000;
            stroke-width: 4px;
            stroke-linecap: butt;
            stroke-linejoin: miter;
            font-weight: 800;
        }
    </style>

    <path d="M 297 623 Q 357 725 378 744 Q 387 754 382 768 Q 378 781 350 804 Q 323 822 305 821 Q 286 820 294 798 Q 309 765 296 737 Q 259 644 200 557 Q 143 475 67 382 Q 57 372 54 366 Q 51 356 65 358 Q 119 367 280 597 L 297 623 Z" class="stroke1"/>
    <path d="M 280 597 Q 323 581 372 599 Q 403 608 437 618 Q 452 622 454 625 Q 461 634 456 641 Q 449 651 419 655 Q 397 658 333 632 Q 327 632 297 623 C 268 614 252 607 280 597 Z" class="stroke2"/>
    <path d="M 307 453 Q 418 487 422 493 Q 429 502 424 509 Q 417 519 387 523 Q 357 526 330 510 Q 305 500 278 490 Q 248 480 213 473 Q 179 463 205 450 Q 223 441 264 441 L 307 453 Z" class="stroke3"/>
    <path d="M 325 298 Q 424 337 426 337 Q 433 346 428 353 Q 421 363 391 367 Q 346 370 327 350 L 283 331 Q 222 310 168 297 Q 134 287 161 274 Q 198 259 264 279 Q 271 282 283 284 L 325 298 Z" class="stroke4"/>
    <path d="M 283 284 Q 279 157 239 105 Q 215 75 258 37 Q 270 30 280 46 Q 293 74 417 193 Q 433 206 436 215 Q 439 224 430 223 Q 423 223 321 158 Q 317 154 315 158 Q 322 234 325 298 L 327 350 Q 327 389 332 414 Q 338 430 307 453 C 284 472 254 469 264 441 Q 282 399 283 331 L 283 284 Z" class="stroke5"/>
    <path d="M 557 564 Q 558 567 561 569 Q 601 624 642 707 Q 658 744 675 764 Q 682 776 677 788 Q 673 800 642 819 Q 615 834 597 831 Q 579 828 589 808 Q 613 766 542 620 Q 508 553 459 478 Q 452 468 449 461 Q 448 451 460 454 Q 482 460 545 545 L 557 564 Z" class="stroke6"/>
    <path d="M 706 82 Q 693 81 630 113 Q 620 117 619 112 Q 618 108 628 97 Q 668 45 684 9 Q 693 -13 706 -14 Q 728 -15 748 6 Q 826 69 853 264 Q 865 357 874 484 Q 875 521 898 548 Q 911 561 910 570 Q 909 577 889 592 Q 862 611 827 622 Q 803 631 751 611 Q 603 575 557 564 C 528 557 515 546 545 545 Q 584 538 726 566 Q 790 579 801 570 Q 822 521 797 297 Q 781 183 745 119 Q 729 83 706 82 Z" class="stroke7"/>
    <path d="M 675 319 Q 617 310 557 295 Q 550 294 548 295 Q 547 298 550 305 Q 619 420 634 439 Q 644 449 637 460 Q 630 470 585 486 Q 569 492 561 487 Q 551 480 558 463 Q 580 409 510 316 Q 494 297 469 276 Q 457 263 462 254 Q 468 239 493 223 Q 503 214 514 225 Q 544 252 681 295 Q 684 296 689 297 C 718 305 705 324 675 319 Z" class="stroke8"/>
    <path d="M 689 297 Q 710 266 720 263 Q 727 262 734 269 Q 740 279 740 301 Q 740 332 663 381 Q 653 387 648 386 Q 644 385 642 375 L 675 319 L 689 297 Z" class="stroke9"/>
    <text x="304" y="807" style="transform-origin:304px 807px; transform:scale(1,-1);">1</text>
    <text x="289" y="600" style="transform-origin:289px 600px; transform:scale(1,-1);">2</text>
    <text x="206" y="462" style="transform-origin:206px 462px; transform:scale(1,-1);">3</text>
    <text x="162" y="286" style="transform-origin:162px 286px; transform:scale(1,-1);">4</text>
    <text x="273" y="437" style="transform-origin:273px 437px; transform:scale(1,-1);">5</text>
    <text x="598" y="818" style="transform-origin:598px 818px; transform:scale(1,-1);">6</text>
    <text x="549" y="549" style="transform-origin:549px 549px; transform:scale(1,-1);">7</text>
    <text x="569" y="476" style="transform-origin:569px 476px; transform:scale(1,-1);">8</text>
    <text x="653" y="376" style="transform-origin:653px 376px; transform:scale(1,-1);">9</text></g>
</svg>