<svg version="1.1" viewBox="0 0 1024 1024" xmlns="http://www.w3.org/2000/svg">
  <g stroke="lightgray" stroke-dasharray="1,1" stroke-width="1" transform="scale(4, 4)">
    <line x1="0" y1="0" x2="256" y2="256"/>
    <line x1="256" y1="0" x2="0" y2="256"/>
    <line x1="128" y1="0" x2="128" y2="256"/>
    <line x1="0" y1="128" x2="256" y2="128"/>
  </g>
  <g transform="scale(1, -1) translate(0, -900)">
    <style type="text/css">
        .stroke1 {fill: #BF0909;}
        .stroke2 {fill: #BFBF09;}
        .stroke3 {fill: #09BF09;}
        .stroke4 {fill: #09BFBF;}
        .stroke5 {fill: #0909BF;}
        .stroke6 {fill: #BF09BF;}
        .stroke7 {fill: #42005e;}
        .stroke8 {fill: #ff3333;}
        .stroke9 {fill: #BFBFBF;}
        .stroke10 {fill: #00a53f;}
        .stroke11 {fill: #fff000;}
        .stroke12 {fill: #6600a5;}
        .stroke13 {fill: #0053a5;}
        .stroke14 {fill: #62c22b;}
        .stroke15 {fill: #BF09BF;}
        .stroke16 {fill: #BF0909;}
        .stroke17 {fill: #BFBF09;}
        .stroke18 {fill: #09BF09;}
        .stroke19 {fill: #09BFBF;}
        .stroke20 {fill: #0909BF;}
        text {
            font-family: Helvetica;
            font-size: 50px;
            fill: #FFFFFF;
            paint-order: stroke;
            stroke: #000000;
            stroke-width: 4px;
            stroke-linecap: butt;
            stroke-linejoin: miter;
            font-weight: 800;
        }
    </style>

    <path d="M 319 644 Q 346 707 391 749 Q 401 759 396 774 Q 392 787 361 812 Q 333 831 314 831 Q 295 830 303 806 Q 318 770 304 740 Q 261 638 198 545 Q 135 455 51 356 Q 41 346 38 339 Q 34 327 49 330 Q 109 337 293 603 Q 296 609 300 614 L 319 644 Z" class="stroke1"/>
    <path d="M 300 614 Q 330 602 396 618 Q 430 627 467 636 Q 486 642 489 645 Q 496 652 492 661 Q 485 671 455 677 Q 431 680 357 653 Q 336 649 319 644 C 290 636 272 624 300 614 Z" class="stroke2"/>
    <path d="M 308 458 Q 309 461 415 491 Q 439 498 442 502 Q 449 511 444 518 Q 437 528 409 531 Q 381 534 355 520 Q 330 510 301 499 Q 270 490 233 483 Q 200 474 225 461 Q 240 455 264 452 C 288 449 288 449 308 458 Z" class="stroke3"/>
    <path d="M 337 312 Q 368 322 408 332 Q 444 342 449 349 Q 456 356 452 365 Q 445 375 415 381 Q 390 385 338 363 L 291 345 Q 282 344 273 340 Q 224 327 167 317 Q 131 308 158 294 Q 203 275 270 295 Q 280 298 292 300 L 337 312 Z" class="stroke4"/>
    <path d="M 292 300 Q 288 173 263 131 Q 224 71 264 35 Q 276 28 287 43 Q 302 71 438 185 Q 456 198 460 206 Q 464 216 454 216 Q 444 216 339 157 Q 329 151 328 161 Q 335 243 337 312 L 338 363 Q 337 390 342 412 Q 348 431 308 458 C 284 476 248 477 264 452 Q 282 434 290 361 Q 290 355 291 345 L 292 300 Z" class="stroke5"/>
    <path d="M 817 461 Q 859 467 908 468 Q 965 472 969 479 Q 973 491 957 503 Q 897 537 840 517 Q 828 516 816 511 L 767 499 Q 697 487 586 462 L 544 454 Q 498 447 450 437 Q 431 434 446 419 Q 471 397 524 408 Q 533 412 545 414 L 587 426 Q 674 450 768 457 L 817 461 Z" class="stroke6"/>
    <path d="M 586 462 Q 586 514 597 550 Q 604 562 601 572 Q 595 579 552 605 Q 533 618 517 606 Q 513 602 518 590 Q 539 562 540 532 Q 541 496 544 454 L 545 414 Q 545 222 536 184 Q 526 145 546 93 Q 552 80 558 77 Q 562 71 569 78 Q 575 81 582 99 L 588 134 Q 588 200 587 265 L 587 299 Q 587 354 587 426 L 586 462 Z" class="stroke7"/>
    <path d="M 725 118 Q 756 72 760 47 Q 766 19 777 14 Q 792 11 809 44 Q 830 87 834 160 Q 821 310 817 461 L 816 511 Q 816 646 830 704 Q 846 734 792 753 Q 759 769 741 763 Q 725 756 740 735 Q 762 710 764 677 Q 765 659 767 499 L 768 457 Q 769 343 770 166 Q 770 147 759 138 Q 756 137 751 137 C 728 117 723 120 725 118 Z" class="stroke8"/>
    <path d="M 587 265 Q 650 278 696 285 Q 720 291 710 304 Q 697 319 670 321 Q 628 324 587 299 C 561 284 558 259 587 265 Z" class="stroke9"/>
    <path d="M 582 99 Q 589 108 725 118 C 755 120 768 121 751 137 Q 744 144 728 155 Q 712 162 684 156 Q 632 143 588 134 C 559 128 556 85 582 99 Z" class="stroke10"/>
    <text x="314" y="816" style="transform-origin:314px 816px; transform:scale(1,-1);">1</text>
    <text x="306" y="617" style="transform-origin:306px 617px; transform:scale(1,-1);">2</text>
    <text x="227" y="473" style="transform-origin:227px 473px; transform:scale(1,-1);">3</text>
    <text x="160" y="307" style="transform-origin:160px 307px; transform:scale(1,-1);">4</text>
    <text x="272" y="452" style="transform-origin:272px 452px; transform:scale(1,-1);">5</text>
    <text x="448" y="428" style="transform-origin:448px 428px; transform:scale(1,-1);">6</text>
    <text x="527" y="600" style="transform-origin:527px 600px; transform:scale(1,-1);">7</text>
    <text x="748" y="749" style="transform-origin:748px 749px; transform:scale(1,-1);">8</text>
    <text x="595" y="271" style="transform-origin:595px 271px; transform:scale(1,-1);">9</text>
    <text x="586" y="106" style="transform-origin:586px 106px; transform:scale(1,-1);">10</text></g>
</svg>