<svg version="1.1" viewBox="0 0 1024 1024" xmlns="http://www.w3.org/2000/svg">
  <g stroke="lightgray" stroke-dasharray="1,1" stroke-width="1" transform="scale(4, 4)">
    <line x1="0" y1="0" x2="256" y2="256"/>
    <line x1="256" y1="0" x2="0" y2="256"/>
    <line x1="128" y1="0" x2="128" y2="256"/>
    <line x1="0" y1="128" x2="256" y2="128"/>
  </g>
  <g transform="scale(1, -1) translate(0, -900)">
    <style type="text/css">
        .stroke1 {fill: #BF0909;}
        .stroke2 {fill: #BFBF09;}
        .stroke3 {fill: #09BF09;}
        .stroke4 {fill: #09BFBF;}
        .stroke5 {fill: #0909BF;}
        .stroke6 {fill: #BF09BF;}
        .stroke7 {fill: #42005e;}
        .stroke8 {fill: #ff3333;}
        .stroke9 {fill: #BFBFBF;}
        .stroke10 {fill: #00a53f;}
        .stroke11 {fill: #fff000;}
        .stroke12 {fill: #6600a5;}
        .stroke13 {fill: #0053a5;}
        .stroke14 {fill: #62c22b;}
        .stroke15 {fill: #BF09BF;}
        .stroke16 {fill: #BF0909;}
        .stroke17 {fill: #BFBF09;}
        .stroke18 {fill: #09BF09;}
        .stroke19 {fill: #09BFBF;}
        .stroke20 {fill: #0909BF;}
        text {
            font-family: Helvetica;
            font-size: 50px;
            fill: #FFFFFF;
            paint-order: stroke;
            stroke: #000000;
            stroke-width: 4px;
            stroke-linecap: butt;
            stroke-linejoin: miter;
            font-weight: 800;
        }
    </style>

    <path d="M 268 635 Q 310 716 338 742 Q 347 752 342 766 Q 338 778 310 799 Q 285 817 266 816 Q 248 815 256 793 Q 269 763 259 738 Q 225 653 173 572 Q 124 494 54 410 Q 44 400 42 394 Q 39 384 53 386 Q 107 395 243 598 Q 244 602 248 605 L 268 635 Z" class="stroke1"/>
    <path d="M 248 605 Q 287 601 355 620 Q 376 627 399 634 Q 415 640 418 642 Q 425 651 420 658 Q 413 668 385 671 Q 364 671 268 635 C 240 624 218 607 248 605 Z" class="stroke2"/>
    <path d="M 262 467 Q 266 470 275 472 Q 386 509 391 514 Q 398 523 392 530 Q 385 540 357 542 Q 327 543 257 509 Q 227 499 191 491 Q 160 481 185 469 Q 200 463 224 462 L 262 467 Z" class="stroke3"/>
    <path d="M 290 339 Q 389 372 393 376 Q 400 383 396 390 Q 389 400 363 403 Q 336 406 291 383 L 249 367 Q 242 366 235 362 Q 190 347 136 337 Q 105 328 129 316 Q 168 301 230 321 Q 237 324 249 326 L 290 339 Z" class="stroke4"/>
    <path d="M 249 326 Q 245 211 223 172 Q 187 123 224 85 Q 234 78 245 93 Q 255 115 361 212 Q 377 222 380 231 Q 383 240 375 239 Q 368 239 290 197 Q 283 193 281 199 Q 288 275 290 339 L 291 383 Q 291 405 295 424 Q 299 436 291 445 Q 276 458 262 467 C 237 484 207 487 224 462 Q 243 443 249 367 L 249 326 Z" class="stroke5"/>
    <path d="M 592 820 Q 616 802 640 781 Q 652 771 665 772 Q 674 773 677 784 Q 680 797 672 821 Q 660 848 586 859 Q 573 860 568 859 Q 564 855 566 845 Q 569 836 592 820 Z" class="stroke6"/>
    <path d="M 459 702 Q 434 698 454 683 Q 485 661 510 669 Q 670 712 817 737 Q 827 736 834 748 Q 835 758 814 767 Q 787 786 713 759 Q 572 723 459 702 Z" class="stroke7"/>
    <path d="M 486 621 Q 479 625 457 627 Q 448 628 446 625 Q 442 621 449 609 Q 468 576 482 522 Q 485 506 496 496 Q 509 480 513 492 Q 514 499 514 508 L 511 532 Q 499 590 499 604 C 498 616 498 616 486 621 Z" class="stroke8"/>
    <path d="M 604 549 Q 614 595 629 609 Q 645 627 628 637 Q 583 662 572 655 Q 542 637 486 621 C 457 613 469 599 499 604 Q 506 605 513 607 Q 538 614 559 619 Q 574 623 577 617 Q 581 614 577 594 Q 573 576 569 554 C 564 524 597 520 604 549 Z" class="stroke9"/>
    <path d="M 514 508 Q 521 507 531 511 Q 556 518 610 529 Q 617 530 618 537 Q 617 541 604 549 C 589 558 589 558 569 554 Q 563 553 559 551 Q 534 539 511 532 C 482 523 484 509 514 508 Z" class="stroke10"/>
    <path d="M 687 662 Q 680 665 667 667 Q 658 670 656 666 Q 652 662 657 651 Q 673 618 685 563 Q 686 547 697 536 Q 709 521 712 532 Q 713 538 715 547 L 713 573 Q 704 631 704 644 C 704 656 704 656 687 662 Z" class="stroke11"/>
    <path d="M 812 586 Q 822 634 837 648 Q 853 667 835 678 Q 820 685 800 697 Q 785 704 772 696 Q 756 684 736 677 Q 715 670 687 662 C 658 654 675 636 704 644 Q 719 648 761 658 Q 776 661 779 656 Q 782 653 775 592 C 772 562 806 557 812 586 Z" class="stroke12"/>
    <path d="M 715 547 Q 722 546 730 548 Q 758 555 820 563 Q 829 564 829 572 Q 829 576 812 586 L 775 592 Q 769 592 766 590 Q 735 580 713 573 C 684 564 685 549 715 547 Z" class="stroke13"/>
    <path d="M 715 442 Q 727 446 741 447 Q 787 457 795 463 Q 802 469 798 475 Q 794 484 771 490 Q 749 494 727 487 L 677 471 Q 620 459 594 450 L 545 443 Q 514 439 479 436 Q 451 432 470 419 Q 503 401 546 410 Q 547 410 552 410 L 592 418 Q 634 427 677 435 L 715 442 Z" class="stroke14"/>
    <path d="M 704 365 Q 738 372 772 376 Q 791 379 785 390 Q 776 402 755 406 Q 737 409 710 402 L 675 393 Q 632 386 592 375 L 557 367 Q 514 360 474 350 Q 461 347 477 335 Q 492 325 522 330 Q 538 334 560 337 L 593 344 Q 633 353 673 359 L 704 365 Z" class="stroke15"/>
    <path d="M 594 450 Q 595 466 585 476 Q 569 489 548 496 Q 538 500 530 495 Q 524 491 530 479 Q 539 463 545 443 L 552 410 Q 553 394 557 367 L 560 337 Q 561 318 564 291 C 567 261 596 267 595 297 Q 594 322 593 344 L 592 375 Q 592 396 592 418 L 594 450 Z" class="stroke16"/>
    <path d="M 697 319 Q 701 343 704 365 L 710 402 Q 711 423 715 442 L 727 487 Q 728 491 730 494 Q 733 501 721 512 Q 699 525 684 530 Q 674 533 668 527 Q 662 523 667 513 Q 680 491 677 471 L 677 435 Q 676 416 675 393 L 673 359 Q 670 337 669 313 C 668 283 692 289 697 319 Z" class="stroke17"/>
    <path d="M 627 274 Q 696 287 806 293 Q 852 297 856 303 Q 860 312 847 321 Q 802 351 743 331 Q 722 327 697 319 L 669 313 Q 645 309 623 303 Q 608 302 595 297 L 564 291 Q 500 279 432 265 Q 416 264 429 251 Q 439 241 454 238 Q 470 235 482 239 Q 506 248 535 254 L 566 262 Q 575 265 589 267 L 627 274 Z" class="stroke18"/>
    <path d="M 535 254 Q 502 160 276 14 Q 260 4 281 4 Q 369 10 514 148 L 538 172 Q 572 209 590 223 Q 600 232 598 239 Q 597 249 576 258 Q 572 261 566 262 C 542 272 542 272 535 254 Z" class="stroke19"/>
    <path d="M 514 148 Q 535 100 519 51 Q 515 26 505 12 Q 495 -7 502 -25 Q 512 -53 527 -63 Q 536 -70 546 -53 Q 568 -19 644 67 Q 657 80 659 87 Q 659 99 642 87 Q 614 71 583 51 Q 570 41 565 44 Q 559 47 558 60 Q 564 114 568 127 Q 572 143 561 154 Q 548 167 538 172 C 513 188 503 176 514 148 Z" class="stroke20"/>
    <path d="M 729 170 Q 795 210 828 223 Q 841 224 839 234 Q 835 247 822 261 Q 809 277 792 279 Q 782 280 780 265 Q 781 249 718 180 C 698 158 703 154 729 170 Z" class="stroke21"/>
    <path d="M 718 180 Q 678 219 631 269 Q 630 272 627 274 C 607 297 563 283 589 267 Q 617 252 636 225 Q 805 12 836 4 Q 893 4 959 17 Q 972 18 978 26 Q 981 32 972 35 Q 834 80 762 142 Q 746 155 729 170 L 718 180 Z" class="stroke22"/>
    <text x="266" y="802" style="transform-origin:266px 802px; transform:scale(1,-1);">1</text>
    <text x="254" y="608" style="transform-origin:254px 608px; transform:scale(1,-1);">2</text>
    <text x="186" y="481" style="transform-origin:186px 481px; transform:scale(1,-1);">3</text>
    <text x="130" y="327" style="transform-origin:130px 327px; transform:scale(1,-1);">4</text>
    <text x="230" y="462" style="transform-origin:230px 462px; transform:scale(1,-1);">5</text>
    <text x="572" y="851" style="transform-origin:572px 851px; transform:scale(1,-1);">6</text>
    <text x="455" y="693" style="transform-origin:455px 693px; transform:scale(1,-1);">7</text>
    <text x="452" y="621" style="transform-origin:452px 621px; transform:scale(1,-1);">8</text>
    <text x="496" y="622" style="transform-origin:496px 622px; transform:scale(1,-1);">9</text>
    <text x="518" y="515" style="transform-origin:518px 515px; transform:scale(1,-1);">10</text>
    <text x="662" y="659" style="transform-origin:662px 659px; transform:scale(1,-1);">11</text>
    <text x="695" y="661" style="transform-origin:695px 661px; transform:scale(1,-1);">12</text>
    <text x="722" y="554" style="transform-origin:722px 554px; transform:scale(1,-1);">13</text>
    <text x="473" y="429" style="transform-origin:473px 429px; transform:scale(1,-1);">14</text>
    <text x="483" y="344" style="transform-origin:483px 344px; transform:scale(1,-1);">15</text>
    <text x="537" y="488" style="transform-origin:537px 488px; transform:scale(1,-1);">16</text>
    <text x="677" y="519" style="transform-origin:677px 519px; transform:scale(1,-1);">17</text>
    <text x="441" y="256" style="transform-origin:441px 256px; transform:scale(1,-1);">18</text>
    <text x="584" y="237" style="transform-origin:584px 237px; transform:scale(1,-1);">19</text>
    <text x="539" y="163" style="transform-origin:539px 163px; transform:scale(1,-1);">20</text>
    <text x="792" y="267" style="transform-origin:792px 267px; transform:scale(1,-1);">21</text>
    <text x="596" y="264" style="transform-origin:596px 264px; transform:scale(1,-1);">22</text></g>
</svg>