<svg version="1.1" viewBox="0 0 1024 1024" xmlns="http://www.w3.org/2000/svg">
  <g stroke="lightgray" stroke-dasharray="1,1" stroke-width="1" transform="scale(4, 4)">
    <line x1="0" y1="0" x2="256" y2="256"/>
    <line x1="256" y1="0" x2="0" y2="256"/>
    <line x1="128" y1="0" x2="128" y2="256"/>
    <line x1="0" y1="128" x2="256" y2="128"/>
  </g>
  <g transform="scale(1, -1) translate(0, -900)">
    <style type="text/css">
        .stroke1 {fill: #BF0909;}
        .stroke2 {fill: #BFBF09;}
        .stroke3 {fill: #09BF09;}
        .stroke4 {fill: #09BFBF;}
        .stroke5 {fill: #0909BF;}
        .stroke6 {fill: #BF09BF;}
        .stroke7 {fill: #42005e;}
        .stroke8 {fill: #ff3333;}
        .stroke9 {fill: #BFBFBF;}
        .stroke10 {fill: #00a53f;}
        .stroke11 {fill: #fff000;}
        .stroke12 {fill: #6600a5;}
        .stroke13 {fill: #0053a5;}
        .stroke14 {fill: #62c22b;}
        .stroke15 {fill: #BF09BF;}
        .stroke16 {fill: #BF0909;}
        .stroke17 {fill: #BFBF09;}
        .stroke18 {fill: #09BF09;}
        .stroke19 {fill: #09BFBF;}
        .stroke20 {fill: #0909BF;}
        text {
            font-family: Helvetica;
            font-size: 50px;
            fill: #FFFFFF;
            paint-order: stroke;
            stroke: #000000;
            stroke-width: 4px;
            stroke-linecap: butt;
            stroke-linejoin: miter;
            font-weight: 800;
        }
    </style>

    <path d="M 311 753 Q 368 672 394 670 Q 409 667 418 688 Q 421 703 412 727 Q 393 763 319 783 Q 309 786 306 773 Q 305 763 311 753 Z" class="stroke1"/>
    <path d="M 176 688 Q 203 622 201 552 Q 205 279 158 138 Q 140 84 173 39 L 175 37 Q 188 22 198 37 Q 235 77 237 242 Q 237 521 253 636 Q 254 646 256 653 Q 259 672 242 683 Q 217 704 189 713 Q 179 714 172 706 Q 168 699 176 688 Z" class="stroke2"/>
    <path d="M 499 746 Q 483 747 487 736 Q 494 723 516 713 Q 528 704 564 712 Q 741 758 758 727 Q 791 673 784 231 Q 783 177 780 120 Q 779 80 763 68 Q 753 58 690 66 Q 672 69 674 59 Q 675 52 689 45 Q 746 2 775 -31 Q 797 -50 811 -48 Q 824 -44 835 -15 Q 851 33 849 102 Q 828 499 830 647 Q 831 687 843 711 Q 856 733 845 745 Q 835 761 786 786 Q 765 796 696 777 Q 582 756 499 746 Z" class="stroke3"/>
    <path d="M 362 537 Q 381 549 395 558 Q 431 588 452 596 Q 468 603 459 616 Q 429 650 404 646 Q 395 645 398 635 Q 401 616 348 548 C 330 524 337 521 362 537 Z" class="stroke4"/>
    <path d="M 387 384 Q 381 418 374 454 L 370 478 Q 364 517 364 528 Q 363 534 362 537 C 360 544 360 544 348 548 Q 338 552 314 556 Q 304 559 300 554 Q 296 548 303 534 Q 330 480 346 391 Q 352 354 375 337 C 384 329 384 329 387 347 Q 388 354 389 361 L 387 384 Z" class="stroke5"/>
    <path d="M 374 454 Q 417 464 451 469 Q 469 473 461 482 Q 452 492 432 495 Q 414 496 383 485 Q 376 482 370 478 C 345 462 345 447 374 454 Z" class="stroke6"/>
    <path d="M 583 383 Q 584 379 586 373 Q 592 360 603 361 Q 616 362 622 377 Q 634 395 651 478 Q 664 524 697 550 Q 713 565 699 578 Q 683 593 639 616 Q 629 622 591 614 Q 569 611 550 605 Q 532 601 520 599 Q 508 600 506 596 Q 503 592 515 584 Q 534 574 565 578 Q 598 587 605 580 Q 615 576 611 544 Q 608 526 605 509 L 601 480 Q 592 431 587 411 L 583 383 Z" class="stroke7"/>
    <path d="M 605 509 Q 596 518 551 507 Q 527 500 506 493 Q 493 492 508 478 Q 512 474 524 475 Q 567 479 601 480 C 631 481 630 492 605 509 Z" class="stroke8"/>
    <path d="M 514 375 Q 548 381 583 383 C 613 385 616 405 587 411 Q 566 420 395 386 Q 391 386 387 384 C 358 376 359 363 389 361 Q 396 360 406 361 Q 446 368 484 371 L 514 375 Z" class="stroke9"/>
    <path d="M 375 337 Q 375 220 259 114 Q 253 108 259 106 Q 278 102 337 146 Q 388 188 424 275 Q 430 288 439 303 Q 445 310 440 319 Q 434 326 410 340 Q 392 349 387 347 C 375 348 375 348 375 337 Z" class="stroke10"/>
    <path d="M 755 176 Q 743 198 728 271 Q 727 286 721 290 Q 715 293 711 277 Q 687 199 671 175 Q 664 168 644 162 Q 596 153 559 165 Q 544 172 541 181 Q 526 218 546 333 Q 552 357 514 375 C 488 390 478 395 484 371 Q 484 367 487 358 Q 497 324 495 289 Q 488 162 516 134 Q 570 86 692 113 Q 693 114 696 114 Q 723 121 749 140 Q 765 153 755 176 Z" class="stroke11"/>
    <text x="316" y="773" style="transform-origin:316px 773px; transform:scale(1,-1);">1</text>
    <text x="182" y="701" style="transform-origin:182px 701px; transform:scale(1,-1);">2</text>
    <text x="497" y="737" style="transform-origin:497px 737px; transform:scale(1,-1);">3</text>
    <text x="450" y="608" style="transform-origin:450px 608px; transform:scale(1,-1);">4</text>
    <text x="308" y="549" style="transform-origin:308px 549px; transform:scale(1,-1);">5</text>
    <text x="381" y="461" style="transform-origin:381px 461px; transform:scale(1,-1);">6</text>
    <text x="514" y="593" style="transform-origin:514px 593px; transform:scale(1,-1);">7</text>
    <text x="516" y="487" style="transform-origin:516px 487px; transform:scale(1,-1);">8</text>
    <text x="393" y="367" style="transform-origin:393px 367px; transform:scale(1,-1);">9</text>
    <text x="390" y="332" style="transform-origin:390px 332px; transform:scale(1,-1);">10</text>
    <text x="492" y="366" style="transform-origin:492px 366px; transform:scale(1,-1);">11</text></g>
</svg>