<svg version="1.1" viewBox="0 0 1024 1024" xmlns="http://www.w3.org/2000/svg">
  <g stroke="lightgray" stroke-dasharray="1,1" stroke-width="1" transform="scale(4, 4)">
    <line x1="0" y1="0" x2="256" y2="256"/>
    <line x1="256" y1="0" x2="0" y2="256"/>
    <line x1="128" y1="0" x2="128" y2="256"/>
    <line x1="0" y1="128" x2="256" y2="128"/>
  </g>
  <g transform="scale(1, -1) translate(0, -900)">
    <style type="text/css">
        .stroke1 {fill: #BF0909;}
        .stroke2 {fill: #BFBF09;}
        .stroke3 {fill: #09BF09;}
        .stroke4 {fill: #09BFBF;}
        .stroke5 {fill: #0909BF;}
        .stroke6 {fill: #BF09BF;}
        .stroke7 {fill: #42005e;}
        .stroke8 {fill: #ff3333;}
        .stroke9 {fill: #BFBFBF;}
        .stroke10 {fill: #00a53f;}
        .stroke11 {fill: #fff000;}
        .stroke12 {fill: #6600a5;}
        .stroke13 {fill: #0053a5;}
        .stroke14 {fill: #62c22b;}
        .stroke15 {fill: #BF09BF;}
        .stroke16 {fill: #BF0909;}
        .stroke17 {fill: #BFBF09;}
        .stroke18 {fill: #09BF09;}
        .stroke19 {fill: #09BFBF;}
        .stroke20 {fill: #0909BF;}
        text {
            font-family: Helvetica;
            font-size: 50px;
            fill: #FFFFFF;
            paint-order: stroke;
            stroke: #000000;
            stroke-width: 4px;
            stroke-linecap: butt;
            stroke-linejoin: miter;
            font-weight: 800;
        }
    </style>

    <path d="M 511 782 Q 670 815 674 818 Q 683 825 679 833 Q 672 843 646 851 Q 621 857 524 827 Q 463 812 385 806 Q 351 802 375 785 Q 411 761 467 775 Q 471 776 478 776 L 511 782 Z" class="stroke1"/>
    <path d="M 259 684 Q 250 697 243 703 Q 227 716 225 692 Q 231 656 179 603 Q 161 584 187 531 Q 200 506 219 532 Q 232 554 243 585 Q 262 645 267 653 C 273 665 273 665 259 684 Z" class="stroke2"/>
    <path d="M 535 695 Q 709 722 746 716 Q 762 706 761 697 Q 761 691 737 629 Q 730 616 737 613 Q 744 609 759 621 Q 807 657 848 669 Q 881 681 880 689 Q 879 698 811 746 Q 792 759 769 755 Q 696 745 607 732 Q 574 729 537 723 L 491 716 Q 436 710 371 699 Q 316 690 259 685 Q 258 685 259 684 C 229 680 238 660 267 653 Q 285 644 319 652 Q 413 679 492 689 L 535 695 Z" class="stroke3"/>
    <path d="M 492 689 Q 495 650 484 575 Q 478 551 501 518 Q 510 509 517 518 Q 536 545 534 582 Q 533 607 535 682 Q 535 689 535 695 L 537 723 Q 538 733 540 744 Q 546 763 529 772 Q 520 778 511 782 C 484 795 473 801 478 776 Q 478 775 479 770 Q 480 766 491 716 L 492 689 Z" class="stroke4"/>
    <path d="M 346 622 Q 400 588 415 590 Q 425 591 426 606 Q 425 616 413 628 Q 392 649 344 642 Q 337 641 339 633 Q 339 626 346 622 Z" class="stroke5"/>
    <path d="M 341 545 Q 398 503 415 507 Q 425 508 426 522 Q 425 532 415 545 Q 405 555 384 559 Q 353 566 340 565 Q 333 565 335 556 Q 335 550 341 545 Z" class="stroke6"/>
    <path d="M 597 654 Q 655 621 675 628 Q 685 632 684 647 Q 681 657 669 668 Q 656 677 636 676 Q 605 677 592 675 Q 585 674 587 665 Q 588 658 597 654 Z" class="stroke7"/>
    <path d="M 591 577 Q 655 538 674 541 Q 684 544 685 559 Q 684 569 671 582 Q 646 604 588 598 Q 581 597 583 588 Q 584 582 591 577 Z" class="stroke8"/>
    <path d="M 294 463 Q 313 447 332 427 Q 344 417 356 417 Q 365 418 369 429 Q 373 441 365 465 Q 361 480 338 489 Q 284 507 272 503 Q 268 499 269 489 Q 272 479 294 463 Z" class="stroke9"/>
    <path d="M 210 320 Q 164 310 140 309 Q 127 310 125 303 Q 121 296 130 289 Q 161 265 189 273 Q 217 286 243 299 Q 268 311 277 303 Q 287 296 279 272 Q 278 244 276 215 Q 272 134 247 60 Q 234 33 270 -13 Q 280 -23 288 -18 Q 295 -12 305 9 Q 342 57 418 137 Q 428 147 426 154 Q 425 161 415 153 Q 376 128 339 98 Q 302 67 308 113 Q 308 156 327 264 Q 331 286 352 306 Q 362 313 355 326 Q 346 341 312 357 Q 302 363 286 354 Q 237 329 210 320 Z" class="stroke10"/>
    <path d="M 540 323 Q 541 327 541 331 L 540 350 Q 540 354 540 357 Q 537 376 535 393 L 532 413 Q 529 447 529 456 C 529 470 529 470 504 479 Q 497 482 484 484 Q 474 487 470 483 Q 466 479 472 464 Q 491 422 504 353 Q 505 337 514 324 C 530 298 535 293 540 323 Z" class="stroke11"/>
    <path d="M 675 346 Q 675 343 677 340 Q 681 328 691 329 Q 701 330 708 342 Q 715 349 731 391 Q 744 431 773 455 Q 789 467 776 480 Q 763 493 723 515 Q 710 522 657 509 Q 594 503 504 479 C 475 471 500 447 529 456 Q 574 471 671 484 Q 689 485 696 482 Q 702 478 699 458 Q 684 383 678 368 L 675 346 Z" class="stroke12"/>
    <path d="M 535 393 Q 538 393 646 411 Q 662 414 657 423 Q 650 433 631 436 Q 607 439 532 413 C 504 403 505 389 535 393 Z" class="stroke13"/>
    <path d="M 541 331 Q 545 331 550 331 Q 622 341 675 346 C 705 349 704 354 678 368 Q 672 372 663 373 Q 636 377 540 350 C 511 342 511 331 541 331 Z" class="stroke14"/>
    <path d="M 480 218 Q 496 233 511 245 L 528 262 Q 564 299 563 308 Q 562 317 544 322 Q 543 323 540 323 C 516 329 516 329 514 324 Q 513 323 511 316 Q 505 273 407 188 Q 394 178 411 181 Q 433 184 459 202 L 480 218 Z" class="stroke15"/>
    <path d="M 511 245 Q 512 245 516 244 Q 534 241 597 247 L 615 250 Q 700 271 764 275 Q 777 275 781 269 Q 785 262 786 237 Q 787 137 776 80 Q 766 44 757 25 Q 748 6 736 5 Q 727 4 676 22 Q 667 25 667 20 Q 666 16 676 8 Q 707 -32 720 -59 Q 727 -75 737 -76 Q 750 -77 763 -65 Q 805 -34 829 77 Q 839 134 849 216 Q 850 237 865 253 Q 875 265 875 272 Q 874 279 857 290 Q 835 308 803 317 Q 785 323 709 299 Q 703 299 697 296 Q 693 296 528 262 C 499 256 481 248 511 245 Z" class="stroke16"/>
    <path d="M 597 247 L 600 238 Q 603 225 574 170 Q 561 149 541 128 Q 538 125 537 121 Q 537 118 541 118 Q 574 130 619 181 L 628 194 Q 635 204 640 207 Q 644 214 640 222 Q 628 243 615 250 C 591 265 591 265 597 247 Z" class="stroke17"/>
    <path d="M 619 181 Q 623 175 638 164 Q 657 149 677 130 Q 686 123 696 123 Q 703 124 706 132 Q 707 142 702 161 Q 698 174 677 183 Q 656 189 634 194 Q 630 195 628 194 C 610 192 610 192 619 181 Z" class="stroke18"/>
    <path d="M 459 202 Q 472 180 473 149 Q 472 92 450 65 Q 435 49 465 20 Q 474 13 486 23 Q 561 66 709 56 Q 725 53 732 58 Q 738 62 733 71 Q 729 80 701 96 Q 686 105 633 96 Q 573 90 514 77 Q 507 74 506 76 Q 502 80 503 91 Q 510 157 518 176 Q 522 186 513 196 Q 500 211 480 218 C 453 230 446 229 459 202 Z" class="stroke19"/>
    <text x="377" y="797" style="transform-origin:377px 797px; transform:scale(1,-1);">1</text>
    <text x="234" y="697" style="transform-origin:234px 697px; transform:scale(1,-1);">2</text>
    <text x="266" y="685" style="transform-origin:266px 685px; transform:scale(1,-1);">3</text>
    <text x="484" y="774" style="transform-origin:484px 774px; transform:scale(1,-1);">4</text>
    <text x="350" y="633" style="transform-origin:350px 633px; transform:scale(1,-1);">5</text>
    <text x="345" y="556" style="transform-origin:345px 556px; transform:scale(1,-1);">6</text>
    <text x="598" y="666" style="transform-origin:598px 666px; transform:scale(1,-1);">7</text>
    <text x="595" y="588" style="transform-origin:595px 588px; transform:scale(1,-1);">8</text>
    <text x="276" y="495" style="transform-origin:276px 495px; transform:scale(1,-1);">9</text>
    <text x="135" y="299" style="transform-origin:135px 299px; transform:scale(1,-1);">10</text>
    <text x="477" y="478" style="transform-origin:477px 478px; transform:scale(1,-1);">11</text>
    <text x="513" y="481" style="transform-origin:513px 481px; transform:scale(1,-1);">12</text>
    <text x="536" y="398" style="transform-origin:536px 398px; transform:scale(1,-1);">13</text>
    <text x="546" y="336" style="transform-origin:546px 336px; transform:scale(1,-1);">14</text>
    <text x="553" y="307" style="transform-origin:553px 307px; transform:scale(1,-1);">15</text>
    <text x="520" y="248" style="transform-origin:520px 248px; transform:scale(1,-1);">16</text>
    <text x="602" y="244" style="transform-origin:602px 244px; transform:scale(1,-1);">17</text>
    <text x="629" y="184" style="transform-origin:629px 184px; transform:scale(1,-1);">18</text>
    <text x="469" y="200" style="transform-origin:469px 200px; transform:scale(1,-1);">19</text></g>
</svg>