<svg version="1.1" viewBox="0 0 1024 1024" xmlns="http://www.w3.org/2000/svg">
  <g stroke="lightgray" stroke-dasharray="1,1" stroke-width="1" transform="scale(4, 4)">
    <line x1="0" y1="0" x2="256" y2="256"/>
    <line x1="256" y1="0" x2="0" y2="256"/>
    <line x1="128" y1="0" x2="128" y2="256"/>
    <line x1="0" y1="128" x2="256" y2="128"/>
  </g>
  <g transform="scale(1, -1) translate(0, -900)">
    <style type="text/css">
        .stroke1 {fill: #BF0909;}
        .stroke2 {fill: #BFBF09;}
        .stroke3 {fill: #09BF09;}
        .stroke4 {fill: #09BFBF;}
        .stroke5 {fill: #0909BF;}
        .stroke6 {fill: #BF09BF;}
        .stroke7 {fill: #42005e;}
        .stroke8 {fill: #ff3333;}
        .stroke9 {fill: #BFBFBF;}
        .stroke10 {fill: #00a53f;}
        .stroke11 {fill: #fff000;}
        .stroke12 {fill: #6600a5;}
        .stroke13 {fill: #0053a5;}
        .stroke14 {fill: #62c22b;}
        .stroke15 {fill: #BF09BF;}
        .stroke16 {fill: #BF0909;}
        .stroke17 {fill: #BFBF09;}
        .stroke18 {fill: #09BF09;}
        .stroke19 {fill: #09BFBF;}
        .stroke20 {fill: #0909BF;}
        text {
            font-family: Helvetica;
            font-size: 50px;
            fill: #FFFFFF;
            paint-order: stroke;
            stroke: #000000;
            stroke-width: 4px;
            stroke-linecap: butt;
            stroke-linejoin: miter;
            font-weight: 800;
        }
    </style>

    <path d="M 327 557 Q 366 603 406 661 Q 422 688 454 715 Q 467 725 462 734 Q 459 743 402 762 Q 387 769 342 744 Q 276 714 190 698 Q 172 694 185 681 Q 209 666 246 678 Q 295 691 334 704 Q 349 708 354 702 Q 357 696 348 680 Q 282 544 105 398 Q 92 386 106 385 Q 187 400 312 540 L 327 557 Z" class="stroke1"/>
    <path d="M 312 540 Q 315 537 321 534 Q 379 506 450 464 Q 468 451 481 452 Q 488 453 492 463 Q 499 476 478 508 Q 456 548 327 557 C 297 559 288 558 312 540 Z" class="stroke2"/>
    <path d="M 352 367 Q 436 391 440 393 Q 449 400 443 409 Q 436 419 408 426 Q 378 430 350 417 Q 319 405 283 396 Q 246 386 199 380 Q 165 373 190 358 Q 232 340 295 355 Q 301 356 308 357 L 352 367 Z" class="stroke3"/>
    <path d="M 308 357 Q 308 354 309 222 C 309 192 346 205 351 235 Q 358 281 363 317 Q 369 348 358 360 Q 355 364 352 367 C 332 389 308 387 308 357 Z" class="stroke4"/>
    <path d="M 309 222 Q 245 206 176 185 Q 157 179 126 181 Q 113 180 111 169 Q 108 156 118 146 Q 142 130 176 110 Q 186 107 199 116 Q 226 137 403 219 Q 427 229 444 243 Q 457 250 458 260 Q 452 266 440 263 Q 397 250 351 235 L 309 222 Z" class="stroke5"/>
    <path d="M 641 702 Q 696 717 851 718 Q 867 719 872 726 Q 876 736 862 748 Q 811 781 757 764 Q 660 745 502 715 Q 484 714 498 699 Q 511 687 526 683 Q 529 683 606 695 L 641 702 Z" class="stroke6"/>
    <path d="M 601 571 Q 619 589 645 632 Q 652 642 663 655 Q 676 665 669 674 Q 662 687 641 702 C 617 720 601 725 606 695 Q 612 671 585 594 Q 578 578 577 566 C 574 543 580 549 601 571 Z" class="stroke7"/>
    <path d="M 558 564 Q 539 579 518 585 Q 511 586 505 579 Q 501 575 508 565 Q 545 466 507 300 Q 506 296 504 289 Q 497 267 500 249 Q 507 219 518 208 Q 528 195 537 208 Q 562 235 563 333 Q 563 475 573 536 C 575 552 575 552 558 564 Z" class="stroke8"/>
    <path d="M 735 265 Q 728 243 740 222 Q 753 194 762 194 Q 775 195 792 226 Q 807 251 806 271 Q 797 353 802 480 Q 802 517 823 548 Q 833 563 826 572 Q 799 596 753 614 Q 738 620 716 611 Q 707 608 601 571 L 577 566 Q 567 566 558 564 C 528 561 543 531 573 536 Q 577 536 583 537 Q 724 573 735 567 Q 745 545 748 483 Q 747 300 735 265 Z" class="stroke9"/>
    <path d="M 634 425 Q 637 233 583 148 Q 567 127 542 105 Q 511 77 440 40 Q 428 36 426 33 Q 422 29 435 26 Q 447 25 490 39 Q 521 48 567 75 Q 679 147 681 362 Q 681 408 695 453 Q 699 463 691 469 Q 643 508 612 498 Q 596 491 609 476 Q 634 451 634 425 Z" class="stroke10"/>
    <path d="M 696 145 Q 742 100 799 35 Q 814 16 829 10 Q 838 9 845 19 Q 858 31 846 75 Q 834 127 698 176 Q 689 180 687 169 Q 686 156 696 145 Z" class="stroke11"/>
    <text x="188" y="689" style="transform-origin:188px 689px; transform:scale(1,-1);">1</text>
    <text x="319" y="541" style="transform-origin:319px 541px; transform:scale(1,-1);">2</text>
    <text x="192" y="370" style="transform-origin:192px 370px; transform:scale(1,-1);">3</text>
    <text x="316" y="356" style="transform-origin:316px 356px; transform:scale(1,-1);">4</text>
    <text x="125" y="167" style="transform-origin:125px 167px; transform:scale(1,-1);">5</text>
    <text x="500" y="707" style="transform-origin:500px 707px; transform:scale(1,-1);">6</text>
    <text x="613" y="692" style="transform-origin:613px 692px; transform:scale(1,-1);">7</text>
    <text x="515" y="574" style="transform-origin:515px 574px; transform:scale(1,-1);">8</text>
    <text x="564" y="558" style="transform-origin:564px 558px; transform:scale(1,-1);">9</text>
    <text x="615" y="486" style="transform-origin:615px 486px; transform:scale(1,-1);">10</text>
    <text x="698" y="164" style="transform-origin:698px 164px; transform:scale(1,-1);">11</text></g>
</svg>