<svg version="1.1" viewBox="0 0 1024 1024" xmlns="http://www.w3.org/2000/svg">
  <g stroke="lightgray" stroke-dasharray="1,1" stroke-width="1" transform="scale(4, 4)">
    <line x1="0" y1="0" x2="256" y2="256"/>
    <line x1="256" y1="0" x2="0" y2="256"/>
    <line x1="128" y1="0" x2="128" y2="256"/>
    <line x1="0" y1="128" x2="256" y2="128"/>
  </g>
  <g transform="scale(1, -1) translate(0, -900)">
    <style type="text/css">
        .stroke1 {fill: #BF0909;}
        .stroke2 {fill: #BFBF09;}
        .stroke3 {fill: #09BF09;}
        .stroke4 {fill: #09BFBF;}
        .stroke5 {fill: #0909BF;}
        .stroke6 {fill: #BF09BF;}
        .stroke7 {fill: #42005e;}
        .stroke8 {fill: #ff3333;}
        .stroke9 {fill: #BFBFBF;}
        .stroke10 {fill: #00a53f;}
        .stroke11 {fill: #fff000;}
        .stroke12 {fill: #6600a5;}
        .stroke13 {fill: #0053a5;}
        .stroke14 {fill: #62c22b;}
        .stroke15 {fill: #BF09BF;}
        .stroke16 {fill: #BF0909;}
        .stroke17 {fill: #BFBF09;}
        .stroke18 {fill: #09BF09;}
        .stroke19 {fill: #09BFBF;}
        .stroke20 {fill: #0909BF;}
        text {
            font-family: Helvetica;
            font-size: 50px;
            fill: #FFFFFF;
            paint-order: stroke;
            stroke: #000000;
            stroke-width: 4px;
            stroke-linecap: butt;
            stroke-linejoin: miter;
            font-weight: 800;
        }
    </style>

    <path d="M 212 456 Q 263 525 298 587 L 308 606 Q 329 646 354 697 L 363 716 Q 384 761 385 762 Q 382 772 368 782 Q 329 810 301 798 Q 292 795 296 783 Q 324 701 200 511 Q 193 501 185 490 Q 148 435 48 328 Q 41 321 51 320 Q 90 332 188 428 L 212 456 Z" class="stroke1"/>
    <path d="M 354 697 Q 361 691 377 683 Q 410 664 445 641 Q 457 634 468 636 Q 475 637 478 648 Q 479 660 469 680 Q 462 696 431 707 Q 367 719 363 716 C 334 712 334 712 354 697 Z" class="stroke2"/>
    <path d="M 298 587 Q 323 562 368 543 Q 375 542 385 542 Q 397 543 398 560 Q 397 570 385 585 Q 361 606 308 606 C 278 606 278 606 298 587 Z" class="stroke3"/>
    <path d="M 363 265 Q 364 262 367 258 Q 386 225 409 251 Q 424 267 431 309 Q 435 390 463 430 Q 476 446 462 462 Q 446 477 416 494 Q 401 500 386 493 Q 320 463 244 444 C 215 437 228 403 255 416 Q 354 465 386 455 L 388 454 Q 395 450 393 426 Q 378 297 371 289 C 363 265 363 265 363 265 Z" class="stroke4"/>
    <path d="M 252 317 Q 251 318 253 318 Q 296 333 329 343 Q 350 352 339 361 Q 326 371 301 371 Q 282 370 253 353 C 227 338 227 301 252 317 Z" class="stroke5"/>
    <path d="M 251 234 Q 314 253 363 265 C 392 272 399 278 371 289 Q 341 304 251 260 C 224 247 222 225 251 234 Z" class="stroke6"/>
    <path d="M 364 177 Q 333 164 268 125 Q 259 121 256 124 Q 250 127 251 141 Q 251 193 251 234 L 251 260 Q 251 291 252 317 L 253 353 Q 253 405 255 416 C 257 438 257 438 244 444 Q 234 451 212 456 C 183 464 174 455 188 428 Q 224 373 209 187 Q 205 160 199 139 Q 193 108 161 70 Q 151 60 157 40 Q 166 15 178 3 Q 188 -4 201 8 Q 244 60 374 164 C 397 183 391 190 364 177 Z" class="stroke7"/>
    <path d="M 374 164 Q 413 116 423 113 Q 432 112 437 121 Q 443 131 441 155 Q 440 173 416 191 Q 361 225 348 222 Q 344 221 343 210 Q 344 201 361 181 Q 362 180 364 177 L 374 164 Z" class="stroke8"/>
    <path d="M 567 581 Q 660 713 668 724 Q 686 758 702 774 Q 711 786 705 799 Q 701 812 670 835 Q 640 853 621 852 Q 602 849 611 826 Q 623 805 616 785 Q 597 719 562 656 Q 528 596 481 529 Q 471 517 469 511 Q 466 499 481 502 Q 499 506 545 556 L 567 581 Z" class="stroke9"/>
    <path d="M 545 556 Q 546 555 552 552 Q 576 537 595 544 Q 790 601 802 585 Q 815 567 807 521 Q 794 394 762 337 Q 746 307 720 311 Q 701 315 683 321 Q 659 328 676 306 Q 713 266 729 237 Q 751 215 771 235 Q 802 260 824 303 Q 849 352 862 506 Q 866 560 884 587 Q 896 600 890 610 Q 880 620 830 642 Q 811 649 792 637 Q 773 624 694 606 Q 625 588 567 581 C 537 577 518 570 545 556 Z" class="stroke10"/>
    <path d="M 647 315 Q 663 385 684 408 Q 703 432 682 443 Q 664 452 640 466 Q 625 472 580 445 Q 555 433 521 421 C 493 411 508 386 536 397 Q 543 400 550 402 Q 577 411 600 418 Q 615 422 619 416 Q 626 410 618 380 Q 611 355 604 325 C 597 296 640 286 647 315 Z" class="stroke11"/>
    <path d="M 523 267 Q 533 266 545 269 Q 578 279 652 291 Q 662 292 662 301 Q 662 307 647 315 C 623 328 623 328 604 325 Q 592 324 525 298 C 497 287 493 269 523 267 Z" class="stroke12"/>
    <path d="M 521 421 Q 511 428 495 434 Q 483 438 476 433 Q 470 429 475 413 Q 488 379 486 344 Q 480 155 497 103 Q 504 72 532 47 Q 622 -28 816 2 Q 838 6 863 13 Q 912 29 958 65 Q 979 81 965 108 Q 952 135 933 216 Q 932 232 925 238 Q 919 242 914 223 Q 886 135 867 108 Q 851 86 802 72 Q 691 42 590 79 Q 551 98 540 122 Q 519 161 523 267 L 525 298 Q 528 341 535 390 Q 535 394 536 397 C 538 412 538 412 521 421 Z" class="stroke13"/>
    <text x="310" y="787" style="transform-origin:310px 787px; transform:scale(1,-1);">1</text>
    <text x="362" y="699" style="transform-origin:362px 699px; transform:scale(1,-1);">2</text>
    <text x="307" y="588" style="transform-origin:307px 588px; transform:scale(1,-1);">3</text>
    <text x="253" y="440" style="transform-origin:253px 440px; transform:scale(1,-1);">4</text>
    <text x="259" y="324" style="transform-origin:259px 324px; transform:scale(1,-1);">5</text>
    <text x="258" y="241" style="transform-origin:258px 241px; transform:scale(1,-1);">6</text>
    <text x="197" y="428" style="transform-origin:197px 428px; transform:scale(1,-1);">7</text>
    <text x="351" y="214" style="transform-origin:351px 214px; transform:scale(1,-1);">8</text>
    <text x="623" y="836" style="transform-origin:623px 836px; transform:scale(1,-1);">9</text>
    <text x="551" y="558" style="transform-origin:551px 558px; transform:scale(1,-1);">10</text>
    <text x="531" y="419" style="transform-origin:531px 419px; transform:scale(1,-1);">11</text>
    <text x="528" y="274" style="transform-origin:528px 274px; transform:scale(1,-1);">12</text>
    <text x="483" y="425" style="transform-origin:483px 425px; transform:scale(1,-1);">13</text></g>
</svg>