<svg version="1.1" viewBox="0 0 1024 1024" xmlns="http://www.w3.org/2000/svg">
  <g stroke="lightgray" stroke-dasharray="1,1" stroke-width="1" transform="scale(4, 4)">
    <line x1="0" y1="0" x2="256" y2="256"/>
    <line x1="256" y1="0" x2="0" y2="256"/>
    <line x1="128" y1="0" x2="128" y2="256"/>
    <line x1="0" y1="128" x2="256" y2="128"/>
  </g>
  <g transform="scale(1, -1) translate(0, -900)">
    <style type="text/css">
        .stroke1 {fill: #BF0909;}
        .stroke2 {fill: #BFBF09;}
        .stroke3 {fill: #09BF09;}
        .stroke4 {fill: #09BFBF;}
        .stroke5 {fill: #0909BF;}
        .stroke6 {fill: #BF09BF;}
        .stroke7 {fill: #42005e;}
        .stroke8 {fill: #ff3333;}
        .stroke9 {fill: #BFBFBF;}
        .stroke10 {fill: #00a53f;}
        .stroke11 {fill: #fff000;}
        .stroke12 {fill: #6600a5;}
        .stroke13 {fill: #0053a5;}
        .stroke14 {fill: #62c22b;}
        .stroke15 {fill: #BF09BF;}
        .stroke16 {fill: #BF0909;}
        .stroke17 {fill: #BFBF09;}
        .stroke18 {fill: #09BF09;}
        .stroke19 {fill: #09BFBF;}
        .stroke20 {fill: #0909BF;}
        text {
            font-family: Helvetica;
            font-size: 50px;
            fill: #FFFFFF;
            paint-order: stroke;
            stroke: #000000;
            stroke-width: 4px;
            stroke-linecap: butt;
            stroke-linejoin: miter;
            font-weight: 800;
        }
    </style>

    <path d="M 507 729 Q 585 760 637 767 Q 655 767 659 774 Q 663 784 652 797 Q 598 842 562 842 Q 555 838 553 828 Q 547 785 311 697 Q 304 696 298 692 Q 292 683 298 680 Q 302 680 461 715 L 507 729 Z" class="stroke1"/>
    <path d="M 546 574 Q 628 584 744 585 Q 808 582 816 594 Q 820 604 804 618 Q 753 654 717 646 Q 644 630 530 610 L 480 602 Q 350 583 196 562 Q 175 559 191 543 Q 204 530 222 525 Q 243 521 258 525 Q 339 549 431 561 L 546 574 Z" class="stroke2"/>
    <path d="M 530 610 Q 536 659 549 685 Q 555 694 544 707 Q 528 720 507 729 C 480 742 448 742 461 715 Q 479 685 480 602 L 481 542 Q 480 460 474 428 Q 473 418 489 378 Q 499 363 513 371 Q 526 383 523 466 Q 522 515 525 559 L 530 610 Z" class="stroke3"/>
    <path d="M 431 561 Q 404 501 295 415 Q 177 337 107 299 Q 89 289 105 285 Q 135 278 242 327 Q 317 372 381 429 Q 429 472 458 513 Q 470 531 481 542 C 504 568 463 623 431 561 Z" class="stroke4"/>
    <path d="M 525 559 Q 622 459 728 367 Q 752 345 789 346 Q 858 346 928 364 Q 946 367 947 372 Q 948 379 934 383 Q 733 449 731 451 Q 611 520 546 574 C 523 593 504 580 525 559 Z" class="stroke5"/>
    <path d="M 385 319 Q 366 335 343 340 Q 334 341 329 334 Q 326 330 333 320 Q 369 239 341 87 Q 328 60 335 32 Q 344 2 354 -9 Q 364 -21 373 -8 Q 382 4 386 25 L 392 59 Q 395 75 395 163 L 395 190 Q 395 265 398 289 C 400 308 400 308 385 319 Z" class="stroke6"/>
    <path d="M 571 40 Q 602 0 625 -36 Q 634 -54 645 -53 Q 660 -52 675 -20 Q 691 17 688 61 Q 681 130 674 258 Q 673 286 689 308 Q 698 320 689 329 Q 671 348 622 370 Q 606 379 590 370 Q 527 343 385 319 C 355 314 368 285 398 289 Q 434 293 571 323 Q 596 327 609 318 Q 621 306 622 90 Q 621 74 620 63 Q 617 54 611 51 C 597 25 553 64 571 40 Z" class="stroke7"/>
    <path d="M 395 163 Q 401 162 410 163 Q 498 178 562 186 Q 587 190 577 204 Q 567 219 539 224 Q 514 227 470 215 Q 430 202 395 190 C 367 180 365 165 395 163 Z" class="stroke8"/>
    <path d="M 386 25 Q 392 24 403 26 Q 458 36 571 40 C 601 41 614 42 611 51 Q 612 60 582 81 Q 566 91 535 84 Q 456 68 392 59 C 362 55 356 26 386 25 Z" class="stroke9"/>
    <text x="649" y="780" style="transform-origin:649px 780px; transform:scale(1,-1);">1</text>
    <text x="194" y="552" style="transform-origin:194px 552px; transform:scale(1,-1);">2</text>
    <text x="468" y="713" style="transform-origin:468px 713px; transform:scale(1,-1);">3</text>
    <text x="475" y="560" style="transform-origin:475px 560px; transform:scale(1,-1);">4</text>
    <text x="532" y="565" style="transform-origin:532px 565px; transform:scale(1,-1);">5</text>
    <text x="339" y="329" style="transform-origin:339px 329px; transform:scale(1,-1);">6</text>
    <text x="395" y="318" style="transform-origin:395px 318px; transform:scale(1,-1);">7</text>
    <text x="403" y="170" style="transform-origin:403px 170px; transform:scale(1,-1);">8</text>
    <text x="390" y="30" style="transform-origin:390px 30px; transform:scale(1,-1);">9</text></g>
</svg>