<svg version="1.1" viewBox="0 0 1024 1024" xmlns="http://www.w3.org/2000/svg">
  <g stroke="lightgray" stroke-dasharray="1,1" stroke-width="1" transform="scale(4, 4)">
    <line x1="0" y1="0" x2="256" y2="256"/>
    <line x1="256" y1="0" x2="0" y2="256"/>
    <line x1="128" y1="0" x2="128" y2="256"/>
    <line x1="0" y1="128" x2="256" y2="128"/>
  </g>
  <g transform="scale(1, -1) translate(0, -900)">
    <style type="text/css">
        .stroke1 {fill: #BF0909;}
        .stroke2 {fill: #BFBF09;}
        .stroke3 {fill: #09BF09;}
        .stroke4 {fill: #09BFBF;}
        .stroke5 {fill: #0909BF;}
        .stroke6 {fill: #BF09BF;}
        .stroke7 {fill: #42005e;}
        .stroke8 {fill: #ff3333;}
        .stroke9 {fill: #BFBFBF;}
        .stroke10 {fill: #00a53f;}
        .stroke11 {fill: #fff000;}
        .stroke12 {fill: #6600a5;}
        .stroke13 {fill: #0053a5;}
        .stroke14 {fill: #62c22b;}
        .stroke15 {fill: #BF09BF;}
        .stroke16 {fill: #BF0909;}
        .stroke17 {fill: #BFBF09;}
        .stroke18 {fill: #09BF09;}
        .stroke19 {fill: #09BFBF;}
        .stroke20 {fill: #0909BF;}
        text {
            font-family: Helvetica;
            font-size: 50px;
            fill: #FFFFFF;
            paint-order: stroke;
            stroke: #000000;
            stroke-width: 4px;
            stroke-linecap: butt;
            stroke-linejoin: miter;
            font-weight: 800;
        }
    </style>

    <path d="M 388 421 Q 404 458 423 596 Q 435 648 468 680 Q 484 698 468 712 Q 449 727 397 748 Q 382 755 329 738 Q 314 738 239 712 Q 199 700 174 695 Q 158 694 155 687 Q 151 683 169 672 Q 203 657 224 666 Q 261 681 350 700 Q 366 701 371 700 Q 386 693 381 648 Q 360 480 348 447 Q 342 426 351 409 C 360 380 378 393 388 421 Z" class="stroke1"/>
    <path d="M 351 409 Q 323 406 267 392 Q 242 388 241 409 Q 250 541 260 565 Q 266 581 259 592 Q 243 608 219 619 Q 203 626 194 618 Q 187 614 195 602 Q 207 569 195 421 Q 191 402 186 382 Q 180 363 193 348 Q 209 335 239 348 Q 285 378 376 377 Q 397 378 407 368 Q 420 358 408 315 Q 389 141 355 94 Q 348 85 328 88 Q 294 101 264 113 Q 251 117 251 111 Q 250 107 258 99 Q 310 45 327 10 Q 334 -9 351 0 Q 411 27 425 97 Q 444 188 458 290 Q 465 324 484 354 Q 496 369 485 381 Q 469 400 434 421 Q 415 433 388 421 L 351 409 Z" class="stroke2"/>
    <path d="M 57 204 Q 45 203 43 193 Q 42 180 50 173 Q 72 158 104 140 Q 114 137 125 146 Q 158 173 308 241 Q 330 251 345 264 Q 358 271 358 280 Q 352 284 341 282 Q 110 204 57 204 Z" class="stroke3"/>
    <path d="M 631 732 Q 665 701 703 661 Q 716 646 734 646 Q 746 646 753 661 Q 759 677 750 710 Q 741 749 628 785 Q 612 789 604 787 Q 598 783 599 769 Q 603 756 631 732 Z" class="stroke4"/>
    <path d="M 697 499 Q 842 532 847 535 Q 856 542 851 552 Q 844 564 814 571 Q 789 577 687 545 Q 615 527 550 522 Q 513 515 539 498 Q 579 477 651 490 L 697 499 Z" class="stroke5"/>
    <path d="M 708 316 Q 825 344 827 345 Q 836 352 831 361 Q 824 371 796 379 Q 769 385 710 365 L 662 352 Q 658 352 656 351 Q 608 341 553 336 Q 519 330 543 314 Q 582 290 640 304 Q 650 307 662 307 L 708 316 Z" class="stroke6"/>
    <path d="M 701 175 Q 704 251 708 316 L 710 365 Q 713 483 714 484 Q 707 491 697 499 C 674 518 643 519 651 490 Q 663 451 662 352 L 662 307 Q 661 252 660 168 C 660 138 700 145 701 175 Z" class="stroke7"/>
    <path d="M 660 168 Q 573 156 472 142 Q 451 139 467 123 Q 480 110 498 105 Q 519 101 534 104 Q 666 141 916 141 Q 935 141 939 150 Q 945 160 928 174 Q 876 213 818 198 Q 769 188 701 175 L 660 168 Z" class="stroke8"/>
    <text x="162" y="686" style="transform-origin:162px 686px; transform:scale(1,-1);">1</text>
    <text x="201" y="610" style="transform-origin:201px 610px; transform:scale(1,-1);">2</text>
    <text x="56" y="190" style="transform-origin:56px 190px; transform:scale(1,-1);">3</text>
    <text x="609" y="779" style="transform-origin:609px 779px; transform:scale(1,-1);">4</text>
    <text x="542" y="511" style="transform-origin:542px 511px; transform:scale(1,-1);">5</text>
    <text x="546" y="326" style="transform-origin:546px 326px; transform:scale(1,-1);">6</text>
    <text x="660" y="487" style="transform-origin:660px 487px; transform:scale(1,-1);">7</text>
    <text x="470" y="132" style="transform-origin:470px 132px; transform:scale(1,-1);">8</text></g>
</svg>