<svg version="1.1" viewBox="0 0 1024 1024" xmlns="http://www.w3.org/2000/svg">
  <g stroke="lightgray" stroke-dasharray="1,1" stroke-width="1" transform="scale(4, 4)">
    <line x1="0" y1="0" x2="256" y2="256"/>
    <line x1="256" y1="0" x2="0" y2="256"/>
    <line x1="128" y1="0" x2="128" y2="256"/>
    <line x1="0" y1="128" x2="256" y2="128"/>
  </g>
  <g transform="scale(1, -1) translate(0, -900)">
    <style type="text/css">
        .stroke1 {fill: #BF0909;}
        .stroke2 {fill: #BFBF09;}
        .stroke3 {fill: #09BF09;}
        .stroke4 {fill: #09BFBF;}
        .stroke5 {fill: #0909BF;}
        .stroke6 {fill: #BF09BF;}
        .stroke7 {fill: #42005e;}
        .stroke8 {fill: #ff3333;}
        .stroke9 {fill: #BFBFBF;}
        .stroke10 {fill: #00a53f;}
        .stroke11 {fill: #fff000;}
        .stroke12 {fill: #6600a5;}
        .stroke13 {fill: #0053a5;}
        .stroke14 {fill: #62c22b;}
        .stroke15 {fill: #BF09BF;}
        .stroke16 {fill: #BF0909;}
        .stroke17 {fill: #BFBF09;}
        .stroke18 {fill: #09BF09;}
        .stroke19 {fill: #09BFBF;}
        .stroke20 {fill: #0909BF;}
        text {
            font-family: Helvetica;
            font-size: 50px;
            fill: #FFFFFF;
            paint-order: stroke;
            stroke: #000000;
            stroke-width: 4px;
            stroke-linecap: butt;
            stroke-linejoin: miter;
            font-weight: 800;
        }
    </style>

    <path d="M 384 408 Q 403 444 419 605 Q 431 660 466 694 Q 484 713 465 727 Q 446 743 391 765 Q 379 771 321 755 Q 276 745 236 731 Q 199 719 174 715 Q 158 714 155 708 Q 151 702 169 692 Q 200 680 240 691 Q 348 724 362 715 Q 378 708 374 658 Q 355 474 343 437 Q 334 410 350 393 C 365 367 373 380 384 408 Z" class="stroke1"/>
    <path d="M 350 393 Q 317 386 259 367 Q 240 366 239 382 Q 252 545 264 570 Q 271 586 264 598 Q 248 617 223 628 Q 204 635 196 627 Q 189 623 197 611 Q 212 572 190 394 Q 186 375 181 355 Q 175 336 190 320 Q 208 305 231 319 Q 255 343 360 362 Q 388 363 400 353 Q 409 344 382 180 Q 375 131 353 100 Q 346 90 325 94 Q 297 103 273 109 Q 260 113 259 107 Q 258 103 266 94 Q 311 45 326 12 Q 333 -7 351 2 Q 411 29 423 97 Q 439 182 452 278 Q 459 312 476 342 Q 488 358 476 369 Q 460 388 425 407 Q 406 417 384 408 L 350 393 Z" class="stroke2"/>
    <path d="M 66 202 Q 53 201 51 191 Q 50 178 58 170 Q 80 154 114 135 Q 124 132 136 141 Q 158 159 306 230 Q 327 240 341 251 Q 354 258 354 268 Q 348 274 336 271 Q 108 201 66 202 Z" class="stroke3"/>
    <path d="M 583 660 Q 564 675 547 683 Q 534 687 524 682 Q 515 678 519 666 Q 543 611 545 567 Q 548 519 545 124 C 545 94 593 100 593 130 Q 594 218 595 296 L 595 329 Q 596 395 597 454 L 597 487 Q 598 530 599 570 Q 600 597 601 617 Q 602 623 603 628 C 605 644 605 644 583 660 Z" class="stroke4"/>
    <path d="M 813 161 Q 812 408 822 570 Q 825 612 844 638 Q 857 654 842 672 Q 832 685 777 714 Q 759 724 682 690 Q 625 669 583 660 C 554 653 575 618 603 628 Q 603 629 606 630 Q 697 658 734 666 Q 749 670 754 664 Q 766 642 756 151 C 755 121 813 131 813 161 Z" class="stroke5"/>
    <path d="M 597 454 Q 661 467 712 475 Q 734 479 725 492 Q 715 507 689 510 Q 653 513 597 487 C 570 475 568 448 597 454 Z" class="stroke6"/>
    <path d="M 595 296 Q 665 312 719 319 Q 743 323 733 336 Q 723 351 697 354 Q 655 357 595 329 C 568 316 566 289 595 296 Z" class="stroke7"/>
    <path d="M 545 124 Q 497 120 448 113 Q 429 112 443 95 Q 456 82 473 76 Q 494 70 509 75 Q 645 111 946 110 Q 965 109 971 118 Q 975 128 960 142 Q 903 185 843 167 Q 828 166 813 161 L 756 151 Q 722 147 683 141 Q 638 137 593 130 L 545 124 Z" class="stroke8"/>
    <text x="162" y="706" style="transform-origin:162px 706px; transform:scale(1,-1);">1</text>
    <text x="203" y="619" style="transform-origin:203px 619px; transform:scale(1,-1);">2</text>
    <text x="65" y="188" style="transform-origin:65px 188px; transform:scale(1,-1);">3</text>
    <text x="529" y="672" style="transform-origin:529px 672px; transform:scale(1,-1);">4</text>
    <text x="590" y="657" style="transform-origin:590px 657px; transform:scale(1,-1);">5</text>
    <text x="604" y="460" style="transform-origin:604px 460px; transform:scale(1,-1);">6</text>
    <text x="603" y="302" style="transform-origin:603px 302px; transform:scale(1,-1);">7</text>
    <text x="446" y="104" style="transform-origin:446px 104px; transform:scale(1,-1);">8</text></g>
</svg>