<svg version="1.1" viewBox="0 0 1024 1024" xmlns="http://www.w3.org/2000/svg">
  <g stroke="lightgray" stroke-dasharray="1,1" stroke-width="1" transform="scale(4, 4)">
    <line x1="0" y1="0" x2="256" y2="256"/>
    <line x1="256" y1="0" x2="0" y2="256"/>
    <line x1="128" y1="0" x2="128" y2="256"/>
    <line x1="0" y1="128" x2="256" y2="128"/>
  </g>
  <g transform="scale(1, -1) translate(0, -900)">
    <style type="text/css">
        .stroke1 {fill: #BF0909;}
        .stroke2 {fill: #BFBF09;}
        .stroke3 {fill: #09BF09;}
        .stroke4 {fill: #09BFBF;}
        .stroke5 {fill: #0909BF;}
        .stroke6 {fill: #BF09BF;}
        .stroke7 {fill: #42005e;}
        .stroke8 {fill: #ff3333;}
        .stroke9 {fill: #BFBFBF;}
        .stroke10 {fill: #00a53f;}
        .stroke11 {fill: #fff000;}
        .stroke12 {fill: #6600a5;}
        .stroke13 {fill: #0053a5;}
        .stroke14 {fill: #62c22b;}
        .stroke15 {fill: #BF09BF;}
        .stroke16 {fill: #BF0909;}
        .stroke17 {fill: #BFBF09;}
        .stroke18 {fill: #09BF09;}
        .stroke19 {fill: #09BFBF;}
        .stroke20 {fill: #0909BF;}
        text {
            font-family: Helvetica;
            font-size: 50px;
            fill: #FFFFFF;
            paint-order: stroke;
            stroke: #000000;
            stroke-width: 4px;
            stroke-linecap: butt;
            stroke-linejoin: miter;
            font-weight: 800;
        }
    </style>

    <path d="M 358 411 Q 376 447 388 605 Q 398 657 430 691 Q 446 710 429 723 Q 410 736 357 757 Q 336 764 292 745 Q 274 745 211 720 Q 175 708 153 703 Q 137 702 134 695 Q 131 691 149 680 Q 183 665 204 675 Q 237 688 313 706 Q 326 709 332 707 Q 348 700 344 652 Q 331 474 318 438 Q 314 420 324 399 C 334 371 348 383 358 411 Z" class="stroke1"/>
    <path d="M 324 399 Q 321 399 319 398 Q 289 392 227 375 Q 208 371 206 388 Q 218 541 231 564 Q 237 580 231 591 Q 215 609 191 620 Q 175 627 166 619 Q 160 615 167 603 Q 180 569 159 400 Q 156 382 151 363 Q 145 344 159 329 Q 180 311 199 328 Q 235 355 344 370 Q 371 374 383 363 Q 393 353 361 183 Q 352 131 327 98 Q 315 88 252 109 Q 224 121 223 111 Q 222 107 230 98 Q 281 46 298 12 Q 305 -7 323 2 Q 383 30 397 99 Q 418 190 433 290 Q 440 324 456 352 Q 468 367 457 378 Q 441 396 408 415 Q 389 425 364 414 Q 360 413 358 411 L 324 399 Z" class="stroke2"/>
    <path d="M 50 203 Q 37 200 36 190 Q 35 177 45 170 Q 69 155 103 140 Q 113 137 125 147 Q 147 171 275 244 Q 293 254 305 267 Q 318 276 317 284 Q 311 290 300 286 Q 90 205 50 203 Z" class="stroke3"/>
    <path d="M 512 705 Q 500 709 481 712 Q 471 716 467 711 Q 460 705 469 690 Q 500 618 518 502 Q 521 466 541 443 Q 557 422 562 437 Q 565 447 566 458 L 566 481 Q 565 497 562 514 Q 537 643 533 677 C 530 700 530 700 512 705 Z" class="stroke4"/>
    <path d="M 744 481 Q 759 460 773 454 Q 783 447 797 466 Q 812 493 840 636 Q 847 664 869 687 Q 881 697 871 711 Q 856 727 817 750 Q 801 759 736 743 Q 726 743 717 740 Q 627 728 512 705 C 483 699 504 669 533 677 Q 569 687 623 696 L 653 701 Q 767 722 781 708 Q 794 692 792 676 Q 767 528 751 511 C 739 487 739 487 744 481 Z" class="stroke5"/>
    <path d="M 679 583 Q 707 587 736 590 Q 757 594 749 605 Q 739 618 717 622 Q 702 625 679 619 L 633 607 Q 605 600 578 591 Q 563 588 582 575 Q 585 572 633 576 L 679 583 Z" class="stroke6"/>
    <path d="M 678 472 Q 712 478 744 481 C 774 484 776 495 751 511 Q 739 523 689 509 Q 683 508 678 506 L 634 496 Q 597 489 566 481 C 537 474 536 460 566 458 Q 572 457 584 458 Q 608 462 634 466 L 678 472 Z" class="stroke7"/>
    <path d="M 677 336 Q 731 343 888 343 Q 907 343 911 351 Q 915 361 901 375 Q 849 414 786 396 Q 741 389 677 376 L 633 370 Q 560 360 475 349 Q 456 346 470 331 Q 483 318 500 313 Q 519 309 535 312 Q 563 321 599 326 L 677 336 Z" class="stroke8"/>
    <path d="M 677 376 Q 678 424 678 472 L 678 506 Q 679 539 679 571 Q 679 578 679 583 L 679 619 Q 679 661 682 668 Q 685 678 676 686 Q 667 693 653 701 C 628 717 618 723 623 696 L 624 694 Q 627 688 633 607 L 633 576 Q 633 537 634 496 L 634 466 Q 634 420 633 370 L 631 269 Q 631 122 619 41 Q 616 2 640 -30 Q 650 -43 661 -27 Q 679 6 679 71 Q 676 119 676 293 L 677 376 Z" class="stroke9"/>
    <path d="M 599 326 Q 581 232 413 96 Q 397 83 413 82 Q 423 81 461 100 Q 501 118 535 149 Q 586 197 631 269 C 677 341 610 372 599 326 Z" class="stroke10"/>
    <path d="M 676 293 Q 734 208 808 114 Q 824 98 850 97 Q 938 98 966 103 Q 975 104 976 109 Q 977 113 965 120 Q 836 177 777 231 Q 728 277 676 335 L 677 336 L 677 336 C 659 360 659 318 676 293 Z" class="stroke11"/>
    <text x="140" y="694" style="transform-origin:140px 694px; transform:scale(1,-1);">1</text>
    <text x="174" y="611" style="transform-origin:174px 611px; transform:scale(1,-1);">2</text>
    <text x="51" y="188" style="transform-origin:51px 188px; transform:scale(1,-1);">3</text>
    <text x="475" y="704" style="transform-origin:475px 704px; transform:scale(1,-1);">4</text>
    <text x="521" y="705" style="transform-origin:521px 705px; transform:scale(1,-1);">5</text>
    <text x="579" y="583" style="transform-origin:579px 583px; transform:scale(1,-1);">6</text>
    <text x="570" y="464" style="transform-origin:570px 464px; transform:scale(1,-1);">7</text>
    <text x="473" y="340" style="transform-origin:473px 340px; transform:scale(1,-1);">8</text>
    <text x="632" y="694" style="transform-origin:632px 694px; transform:scale(1,-1);">9</text>
    <text x="628" y="323" style="transform-origin:628px 323px; transform:scale(1,-1);">10</text>
    <text x="680" y="328" style="transform-origin:680px 328px; transform:scale(1,-1);">11</text></g>
</svg>