<svg version="1.1" viewBox="0 0 1024 1024" xmlns="http://www.w3.org/2000/svg">
  <g stroke="lightgray" stroke-dasharray="1,1" stroke-width="1" transform="scale(4, 4)">
    <line x1="0" y1="0" x2="256" y2="256"/>
    <line x1="256" y1="0" x2="0" y2="256"/>
    <line x1="128" y1="0" x2="128" y2="256"/>
    <line x1="0" y1="128" x2="256" y2="128"/>
  </g>
  <g transform="scale(1, -1) translate(0, -900)">
    <style type="text/css">
        .stroke1 {fill: #BF0909;}
        .stroke2 {fill: #BFBF09;}
        .stroke3 {fill: #09BF09;}
        .stroke4 {fill: #09BFBF;}
        .stroke5 {fill: #0909BF;}
        .stroke6 {fill: #BF09BF;}
        .stroke7 {fill: #42005e;}
        .stroke8 {fill: #ff3333;}
        .stroke9 {fill: #BFBFBF;}
        .stroke10 {fill: #00a53f;}
        .stroke11 {fill: #fff000;}
        .stroke12 {fill: #6600a5;}
        .stroke13 {fill: #0053a5;}
        .stroke14 {fill: #62c22b;}
        .stroke15 {fill: #BF09BF;}
        .stroke16 {fill: #BF0909;}
        .stroke17 {fill: #BFBF09;}
        .stroke18 {fill: #09BF09;}
        .stroke19 {fill: #09BFBF;}
        .stroke20 {fill: #0909BF;}
        text {
            font-family: Helvetica;
            font-size: 50px;
            fill: #FFFFFF;
            paint-order: stroke;
            stroke: #000000;
            stroke-width: 4px;
            stroke-linecap: butt;
            stroke-linejoin: miter;
            font-weight: 800;
        }
    </style>

    <path d="M 300 670 Q 370 763 371 765 Q 370 768 370 770 Q 367 782 343 804 Q 319 822 303 823 Q 285 822 292 802 Q 310 750 160 567 Q 150 560 148 553 Q 144 543 157 545 Q 179 548 282 649 L 300 670 Z" class="stroke1"/>
    <path d="M 329 500 Q 350 521 391 564 Q 433 612 474 638 Q 490 645 481 659 Q 469 672 436 693 Q 430 696 362 681 Q 314 672 300 670 C 270 665 253 655 282 649 Q 301 642 374 649 Q 383 650 385 648 Q 389 644 382 633 Q 339 551 311 511 Q 304 501 300 492 C 286 465 308 479 329 500 Z" class="stroke2"/>
    <path d="M 190 465 Q 180 471 145 476 Q 133 477 131 473 Q 125 467 134 452 Q 165 392 186 292 Q 190 262 208 242 Q 226 223 230 237 Q 231 244 233 255 L 232 276 Q 231 289 228 303 Q 206 403 199 436 C 193 464 193 464 190 465 Z" class="stroke3"/>
    <path d="M 386 277 Q 402 253 417 246 Q 427 239 439 259 Q 452 283 476 413 Q 483 441 502 463 Q 512 475 503 486 Q 488 501 450 522 Q 431 531 380 512 Q 356 509 329 500 L 300 492 Q 285 491 190 465 C 161 457 171 426 199 436 Q 230 448 279 459 L 307 466 Q 400 491 419 479 Q 432 469 430 450 Q 409 315 396 300 C 385 278 385 278 386 277 Z" class="stroke4"/>
    <path d="M 330 365 Q 358 372 382 375 Q 401 379 393 390 Q 383 402 362 404 Q 349 405 332 401 L 289 387 Q 264 380 241 371 Q 228 367 245 355 Q 248 354 290 358 L 330 365 Z" class="stroke5"/>
    <path d="M 325 298 Q 326 334 330 365 L 332 401 Q 332 416 334 424 Q 340 445 307 466 C 282 483 268 487 279 459 Q 285 450 289 387 L 290 358 Q 290 330 291 289 C 292 259 324 268 325 298 Z" class="stroke6"/>
    <path d="M 233 255 Q 236 255 240 255 Q 321 268 386 277 C 416 281 421 284 396 300 Q 392 304 383 305 Q 359 309 325 298 L 291 289 Q 260 283 232 276 C 203 269 203 255 233 255 Z" class="stroke7"/>
    <path d="M 119 183 Q 70 81 80 51 Q 83 35 96 23 Q 105 14 117 17 Q 124 20 131 32 Q 149 86 149 183 Q 146 193 144 198 Q 140 202 133 202 Q 129 199 119 183 Z" class="stroke8"/>
    <path d="M 204 159 Q 219 105 237 87 Q 247 80 257 86 Q 264 93 268 104 Q 271 131 226 178 L 224 180 Q 214 189 207 189 Q 203 190 200 181 Q 199 174 204 159 Z" class="stroke9"/>
    <path d="M 284 189 Q 309 126 329 118 Q 339 114 348 126 Q 352 136 349 153 Q 340 181 294 208 Q 287 212 284 203 Q 281 197 284 189 Z" class="stroke10"/>
    <path d="M 383 194 Q 401 172 419 146 Q 426 136 437 134 Q 444 133 450 141 Q 454 150 453 171 Q 452 192 387 227 Q 377 231 372 230 Q 368 229 367 219 Q 368 212 383 194 Z" class="stroke11"/>
    <path d="M 704 524 Q 800 551 804 553 Q 813 560 808 569 Q 801 579 772 586 Q 726 592 707 574 L 658 558 Q 610 546 567 540 Q 533 533 558 518 Q 603 497 653 512 Q 654 513 658 512 L 704 524 Z" class="stroke12"/>
    <path d="M 697 422 Q 701 474 704 524 L 707 574 Q 711 682 731 766 Q 734 776 714 792 Q 678 811 654 815 Q 638 819 630 810 Q 623 803 631 787 Q 653 756 653 733 Q 657 651 658 558 L 658 512 Q 657 464 655 413 C 654 383 695 392 697 422 Z" class="stroke13"/>
    <path d="M 670 379 Q 739 392 854 397 Q 899 397 904 406 Q 908 416 894 428 Q 843 461 789 443 Q 750 434 697 422 L 655 413 Q 580 400 498 384 Q 480 381 494 367 Q 521 346 564 356 Q 594 365 629 371 L 670 379 Z" class="stroke14"/>
    <path d="M 693 216 Q 810 244 811 245 Q 820 252 815 261 Q 808 271 780 279 Q 750 285 696 265 L 643 251 Q 642 252 640 251 Q 592 241 537 236 Q 503 230 527 214 Q 566 190 624 204 Q 631 207 643 206 L 693 216 Z" class="stroke15"/>
    <path d="M 687 99 Q 690 162 693 216 L 696 265 Q 696 299 700 328 Q 709 352 670 379 C 646 397 618 399 629 371 Q 642 347 643 251 L 643 206 Q 643 160 643 92 C 643 62 686 69 687 99 Z" class="stroke16"/>
    <path d="M 643 92 Q 540 82 421 67 Q 399 66 415 47 Q 430 32 448 27 Q 470 20 487 25 Q 646 67 893 59 Q 911 59 929 58 Q 950 58 955 67 Q 961 79 944 93 Q 887 138 815 119 Q 761 112 687 99 L 643 92 Z" class="stroke17"/>
    <text x="302" y="810" style="transform-origin:302px 810px; transform:scale(1,-1);">1</text>
    <text x="287" y="654" style="transform-origin:287px 654px; transform:scale(1,-1);">2</text>
    <text x="140" y="466" style="transform-origin:140px 466px; transform:scale(1,-1);">3</text>
    <text x="202" y="445" style="transform-origin:202px 445px; transform:scale(1,-1);">4</text>
    <text x="244" y="363" style="transform-origin:244px 363px; transform:scale(1,-1);">5</text>
    <text x="287" y="459" style="transform-origin:287px 459px; transform:scale(1,-1);">6</text>
    <text x="237" y="260" style="transform-origin:237px 260px; transform:scale(1,-1);">7</text>
    <text x="136" y="194" style="transform-origin:136px 194px; transform:scale(1,-1);">8</text>
    <text x="209" y="180" style="transform-origin:209px 180px; transform:scale(1,-1);">9</text>
    <text x="294" y="196" style="transform-origin:294px 196px; transform:scale(1,-1);">10</text>
    <text x="378" y="221" style="transform-origin:378px 221px; transform:scale(1,-1);">11</text>
    <text x="560" y="530" style="transform-origin:560px 530px; transform:scale(1,-1);">12</text>
    <text x="642" y="801" style="transform-origin:642px 801px; transform:scale(1,-1);">13</text>
    <text x="496" y="375" style="transform-origin:496px 375px; transform:scale(1,-1);">14</text>
    <text x="530" y="226" style="transform-origin:530px 226px; transform:scale(1,-1);">15</text>
    <text x="636" y="370" style="transform-origin:636px 370px; transform:scale(1,-1);">16</text>
    <text x="418" y="57" style="transform-origin:418px 57px; transform:scale(1,-1);">17</text></g>
</svg>