<svg version="1.1" viewBox="0 0 1024 1024" xmlns="http://www.w3.org/2000/svg">
  <g stroke="lightgray" stroke-dasharray="1,1" stroke-width="1" transform="scale(4, 4)">
    <line x1="0" y1="0" x2="256" y2="256"/>
    <line x1="256" y1="0" x2="0" y2="256"/>
    <line x1="128" y1="0" x2="128" y2="256"/>
    <line x1="0" y1="128" x2="256" y2="128"/>
  </g>
  <g transform="scale(1, -1) translate(0, -900)">
    <style type="text/css">
        .stroke1 {fill: #BF0909;}
        .stroke2 {fill: #BFBF09;}
        .stroke3 {fill: #09BF09;}
        .stroke4 {fill: #09BFBF;}
        .stroke5 {fill: #0909BF;}
        .stroke6 {fill: #BF09BF;}
        .stroke7 {fill: #42005e;}
        .stroke8 {fill: #ff3333;}
        .stroke9 {fill: #BFBFBF;}
        .stroke10 {fill: #00a53f;}
        .stroke11 {fill: #fff000;}
        .stroke12 {fill: #6600a5;}
        .stroke13 {fill: #0053a5;}
        .stroke14 {fill: #62c22b;}
        .stroke15 {fill: #BF09BF;}
        .stroke16 {fill: #BF0909;}
        .stroke17 {fill: #BFBF09;}
        .stroke18 {fill: #09BF09;}
        .stroke19 {fill: #09BFBF;}
        .stroke20 {fill: #0909BF;}
        text {
            font-family: Helvetica;
            font-size: 50px;
            fill: #FFFFFF;
            paint-order: stroke;
            stroke: #000000;
            stroke-width: 4px;
            stroke-linecap: butt;
            stroke-linejoin: miter;
            font-weight: 800;
        }
    </style>

    <path d="M 252 680 Q 259 694 267 705 Q 275 717 295 738 Q 304 747 303 758 Q 302 765 289 779 Q 264 808 239 808 Q 225 806 229 792 Q 239 765 231 753 Q 228 745 225 738 Q 187 653 102 551 Q 95 545 92 540 Q 89 532 94 531 Q 95 530 96 530 Q 125 528 233 657 L 252 680 Z" class="stroke1"/>
    <path d="M 263 503 L 314 568 Q 355 623 394 651 Q 410 659 400 670 Q 390 681 361 700 Q 347 704 335 698 Q 295 691 252 680 C 223 673 203 656 233 657 L 273 659 Q 278 659 304 661 Q 319 662 316 649 Q 316 647 304 623 Q 248 514 231 494 C 213 470 244 479 263 503 Z" class="stroke2"/>
    <path d="M 139 464 Q 135 466 127 467 Q 96 477 88 474 Q 78 471 87 452 Q 116 394 133 301 Q 133 280 153 255 Q 157 251 159 249 Q 174 232 177 267 L 176 290 Q 175 302 170 331 Q 151 425 149 441 C 146 462 146 462 139 464 Z" class="stroke3"/>
    <path d="M 319 296 Q 325 289 329 284 Q 349 263 359 273 Q 368 282 375 302 Q 384 328 404 431 Q 410 457 425 474 Q 433 484 431 492 Q 429 504 379 531 Q 369 536 341 527 L 310 517 Q 309 517 263 503 L 231 494 Q 218 492 139 464 C 111 454 122 429 149 441 Q 176 454 225 468 L 255 476 Q 302 496 327 498 Q 365 500 362 468 Q 362 461 356 429 Q 337 335 326 321 C 316 300 316 300 319 296 Z" class="stroke4"/>
    <path d="M 272 383 Q 286 388 310 394 Q 323 399 321 405 Q 320 406 318 408 Q 305 422 272 416 L 235 404 L 188 379 Q 174 376 192 365 Q 193 365 237 373 L 272 383 Z" class="stroke5"/>
    <path d="M 272 318 Q 272 328 272 383 L 272 416 Q 272 423 275 445 Q 276 457 268 466 L 257 475 L 255 476 C 230 493 215 496 225 468 Q 231 455 235 404 L 237 373 Q 241 325 242 310 C 244 280 272 288 272 318 Z" class="stroke6"/>
    <path d="M 177 267 Q 249 284 319 296 C 349 301 353 308 326 321 Q 318 325 316 325 Q 300 326 272 318 L 242 310 L 176 290 C 147 281 148 260 177 267 Z" class="stroke7"/>
    <path d="M 119 204 Q 118 207 118 208 Q 114 224 102 223 Q 94 218 78 171 Q 58 103 63 80 Q 64 73 68 66 Q 80 43 96 45 Q 106 45 111 58 Q 119 80 119 204 Z" class="stroke8"/>
    <path d="M 168 190 Q 173 127 190 114 Q 196 110 202 113 Q 218 120 220 143 Q 220 173 182 206 Q 178 210 176 208 Q 168 204 168 190 Z" class="stroke9"/>
    <path d="M 244 204 Q 261 141 280 131 Q 282 129 286 130 Q 301 131 301 161 Q 298 188 254 220 Q 253 220 251 220 Q 241 220 243 209 Q 243 208 244 204 Z" class="stroke10"/>
    <path d="M 367 162 Q 372 160 378 165 Q 388 171 386 186 Q 384 210 363 219 Q 329 243 324 237 Q 314 220 339 186 Q 357 165 367 162 Z" class="stroke11"/>
    <path d="M 472 630 Q 468 633 465 637 Q 444 651 431 650 L 427 649 Q 419 647 425 635 Q 425 630 431 617 Q 449 572 444 459 Q 443 410 436 368 Q 433 345 437 319 L 441 305 L 447 296 Q 447 293 453 289 Q 460 278 468 289 Q 475 302 476 316 L 478 347 Q 478 383 477 415 L 477 439 L 477 504 L 477 527 Q 477 602 479 608 C 480 622 480 622 472 630 Z" class="stroke12"/>
    <path d="M 590 326 Q 600 311 606 300 Q 625 270 633 272 Q 637 273 641 279 Q 662 304 661 352 L 661 357 Q 654 510 661 578 Q 662 610 670 627 Q 675 637 674 643 Q 672 653 643 664 Q 610 676 594 673 L 582 669 Q 523 641 472 630 C 443 623 450 602 479 608 Q 488 608 533 623 Q 590 641 602 630 Q 613 618 615 539 Q 615 500 610 368 Q 612 351 604 349 C 592 322 588 330 590 326 Z" class="stroke13"/>
    <path d="M 477 504 L 484 504 L 574 521 Q 589 523 587 533 L 585 536 Q 582 539 578 541 Q 541 564 477 527 C 451 512 447 504 477 504 Z" class="stroke14"/>
    <path d="M 477 415 L 482 415 L 576 429 Q 594 433 589 443 Q 584 451 576 455 Q 559 463 517 451 L 477 439 C 448 430 447 415 477 415 Z" class="stroke15"/>
    <path d="M 476 316 Q 484 316 494 318 Q 541 325 590 326 C 620 327 625 328 604 349 L 600 353 Q 588 367 563 363 L 478 347 C 449 341 446 315 476 316 Z" class="stroke16"/>
    <path d="M 455 246 Q 457 234 445 212 Q 416 159 335 88 Q 314 71 331 71 Q 370 71 475 174 Q 481 180 501 197 Q 510 205 510 214 Q 510 220 500 232 Q 482 258 465 260 Q 457 261 455 255 L 455 246 Z" class="stroke17"/>
    <path d="M 580 207 Q 613 171 647 129 Q 656 120 666 118 Q 682 116 680 149 Q 680 177 649 203 Q 578 245 568 243 Q 564 241 564 231 Q 566 223 580 207 Z" class="stroke18"/>
    <path d="M 704 570 Q 724 532 719 421 Q 718 414 715 370 Q 713 349 721 331 L 723 329 Q 735 304 745 308 Q 762 317 763 413 Q 760 470 762 508 L 762 512 L 767 557 Q 767 564 757 574 L 726 590 Q 721 592 715 592 Q 699 590 704 570 Z" class="stroke19"/>
    <path d="M 900 131 L 900 137 Q 866 580 900 709 Q 915 736 862 756 Q 834 770 813 766 Q 804 760 807 751 Q 808 745 814 736 Q 833 710 835 682 Q 839 647 843 141 Q 843 119 831 110 Q 827 108 802 113 L 766 120 Q 744 127 739 125 Q 733 120 757 100 Q 812 55 828 27 Q 844 -4 858 -5 Q 866 -6 874 6 Q 902 41 900 131 Z" class="stroke20"/>
    <text x="239" y="797" style="transform-origin:239px 797px; transform:scale(1,-1);">1</text>
    <text x="239" y="661" style="transform-origin:239px 661px; transform:scale(1,-1);">2</text>
    <text x="93" y="465" style="transform-origin:93px 465px; transform:scale(1,-1);">3</text>
    <text x="151" y="449" style="transform-origin:151px 449px; transform:scale(1,-1);">4</text>
    <text x="193" y="373" style="transform-origin:193px 373px; transform:scale(1,-1);">5</text>
    <text x="233" y="467" style="transform-origin:233px 467px; transform:scale(1,-1);">6</text>
    <text x="183" y="273" style="transform-origin:183px 273px; transform:scale(1,-1);">7</text>
    <text x="105" y="216" style="transform-origin:105px 216px; transform:scale(1,-1);">8</text>
    <text x="177" y="201" style="transform-origin:177px 201px; transform:scale(1,-1);">9</text>
    <text x="253" y="211" style="transform-origin:253px 211px; transform:scale(1,-1);">10</text>
    <text x="328" y="231" style="transform-origin:328px 231px; transform:scale(1,-1);">11</text>
    <text x="431" y="641" style="transform-origin:431px 641px; transform:scale(1,-1);">12</text>
    <text x="480" y="626" style="transform-origin:480px 626px; transform:scale(1,-1);">13</text>
    <text x="481" y="510" style="transform-origin:481px 510px; transform:scale(1,-1);">14</text>
    <text x="480" y="421" style="transform-origin:480px 421px; transform:scale(1,-1);">15</text>
    <text x="480" y="324" style="transform-origin:480px 324px; transform:scale(1,-1);">16</text>
    <text x="464" y="251" style="transform-origin:464px 251px; transform:scale(1,-1);">17</text>
    <text x="570" y="236" style="transform-origin:570px 236px; transform:scale(1,-1);">18</text>
    <text x="716" y="578" style="transform-origin:716px 578px; transform:scale(1,-1);">19</text>
    <text x="818" y="755" style="transform-origin:818px 755px; transform:scale(1,-1);">20</text></g>
</svg>