<svg version="1.1" viewBox="0 0 1024 1024" xmlns="http://www.w3.org/2000/svg">
  <g stroke="lightgray" stroke-dasharray="1,1" stroke-width="1" transform="scale(4, 4)">
    <line x1="0" y1="0" x2="256" y2="256"/>
    <line x1="256" y1="0" x2="0" y2="256"/>
    <line x1="128" y1="0" x2="128" y2="256"/>
    <line x1="0" y1="128" x2="256" y2="128"/>
  </g>
  <g transform="scale(1, -1) translate(0, -900)">
    <style type="text/css">
        .stroke1 {fill: #BF0909;}
        .stroke2 {fill: #BFBF09;}
        .stroke3 {fill: #09BF09;}
        .stroke4 {fill: #09BFBF;}
        .stroke5 {fill: #0909BF;}
        .stroke6 {fill: #BF09BF;}
        .stroke7 {fill: #42005e;}
        .stroke8 {fill: #ff3333;}
        .stroke9 {fill: #BFBFBF;}
        .stroke10 {fill: #00a53f;}
        .stroke11 {fill: #fff000;}
        .stroke12 {fill: #6600a5;}
        .stroke13 {fill: #0053a5;}
        .stroke14 {fill: #62c22b;}
        .stroke15 {fill: #BF09BF;}
        .stroke16 {fill: #BF0909;}
        .stroke17 {fill: #BFBF09;}
        .stroke18 {fill: #09BF09;}
        .stroke19 {fill: #09BFBF;}
        .stroke20 {fill: #0909BF;}
        text {
            font-family: Helvetica;
            font-size: 50px;
            fill: #FFFFFF;
            paint-order: stroke;
            stroke: #000000;
            stroke-width: 4px;
            stroke-linecap: butt;
            stroke-linejoin: miter;
            font-weight: 800;
        }
    </style>

    <path d="M 270 679 Q 342 782 343 785 Q 342 788 342 790 Q 339 800 316 820 Q 294 835 278 835 Q 263 834 270 816 Q 288 762 150 581 Q 141 574 139 568 Q 136 559 148 561 Q 169 564 257 662 L 270 679 Z" class="stroke1"/>
    <path d="M 300 517 Q 394 637 424 658 Q 440 667 429 678 Q 417 688 386 707 Q 371 713 359 704 Q 352 701 297 685 Q 284 681 270 679 C 240 674 229 672 257 662 Q 269 653 332 662 Q 338 663 339 662 Q 343 658 338 647 Q 298 559 273 516 Q 270 513 269 509 C 254 483 281 493 300 517 Z" class="stroke2"/>
    <path d="M 161 479 Q 151 483 127 488 Q 115 492 112 487 Q 108 481 114 467 Q 141 409 155 314 Q 158 286 174 266 Q 190 247 194 261 Q 195 268 197 279 L 197 305 Q 179 410 175 453 C 173 475 173 475 161 479 Z" class="stroke3"/>
    <path d="M 339 307 Q 358 280 373 274 Q 383 267 395 287 Q 407 309 426 430 Q 432 457 451 479 Q 461 491 451 502 Q 438 515 399 536 Q 384 542 318 522 Q 311 522 300 517 L 269 509 Q 251 506 161 479 C 132 470 147 443 175 453 Q 203 463 245 475 L 276 483 Q 349 504 368 495 Q 381 486 378 468 Q 363 348 352 329 C 342 303 336 311 339 307 Z" class="stroke4"/>
    <path d="M 293 384 Q 315 390 335 393 Q 353 397 345 406 Q 336 416 316 419 Q 307 420 296 417 L 253 404 Q 226 394 205 386 Q 192 382 208 372 Q 209 372 254 375 L 293 384 Z" class="stroke5"/>
    <path d="M 290 329 Q 291 359 293 384 L 296 417 Q 296 435 298 444 Q 302 460 276 483 C 254 503 238 504 245 475 Q 249 463 253 404 L 254 375 Q 254 353 255 319 C 256 289 289 299 290 329 Z" class="stroke6"/>
    <path d="M 197 279 Q 227 289 284 297 Q 285 298 289 297 L 289 298 Q 310 305 339 307 C 369 309 375 310 352 329 Q 348 333 341 336 Q 326 343 290 329 L 255 319 Q 224 312 197 305 C 168 298 168 270 197 279 Z" class="stroke7"/>
    <path d="M 111 203 Q 78 88 87 65 Q 91 52 105 42 Q 112 35 124 38 Q 131 41 135 52 Q 139 67 140 195 Q 137 213 132 219 Q 128 223 122 222 Q 118 218 111 203 Z" class="stroke8"/>
    <path d="M 193 194 Q 196 119 210 107 Q 217 100 231 108 Q 238 115 242 133 Q 245 166 209 208 Q 205 214 198 207 Q 194 203 193 194 Z" class="stroke9"/>
    <path d="M 267 209 Q 285 143 305 135 Q 315 131 324 142 Q 328 151 328 168 Q 325 184 311 197 Q 289 221 278 227 Q 271 231 268 223 Q 264 217 267 209 Z" class="stroke10"/>
    <path d="M 349 228 Q 374 168 396 161 Q 406 158 415 171 Q 419 181 416 199 Q 412 214 395 224 Q 370 243 359 249 Q 352 252 348 243 Q 345 236 349 228 Z" class="stroke11"/>
    <path d="M 536 759 Q 551 743 566 723 Q 576 710 591 710 Q 600 710 605 721 Q 609 733 605 759 Q 598 784 535 800 Q 522 804 516 803 Q 512 800 512 788 Q 513 778 536 759 Z" class="stroke12"/>
    <path d="M 707 802 Q 700 786 649 709 Q 642 693 657 698 Q 699 740 774 785 Q 778 789 785 791 Q 804 801 793 817 Q 780 832 755 843 Q 733 853 721 850 Q 709 847 715 836 Q 719 820 707 802 Z" class="stroke13"/>
    <path d="M 637 637 Q 799 670 807 676 Q 814 683 810 690 Q 804 700 780 707 Q 755 711 662 682 Q 508 658 504 656 Q 473 652 495 636 Q 534 615 580 626 Q 586 627 596 629 L 637 637 Z" class="stroke14"/>
    <path d="M 659 540 Q 777 568 779 569 Q 786 576 782 583 Q 776 592 753 598 Q 729 602 662 579 L 610 566 Q 568 559 523 554 Q 493 550 514 535 Q 550 517 595 527 Q 601 528 611 530 L 659 540 Z" class="stroke15"/>
    <path d="M 655 441 Q 671 444 805 464 Q 814 463 821 474 Q 822 484 803 492 Q 776 513 715 492 Q 687 486 658 478 Q 655 478 656 477 L 610 467 Q 516 455 475 449 Q 451 445 470 431 Q 491 418 527 416 Q 564 425 609 432 L 655 441 Z" class="stroke16"/>
    <path d="M 649 299 Q 652 375 655 441 L 656 477 Q 657 510 659 540 L 662 579 Q 662 586 663 591 Q 672 615 637 637 C 612 654 583 656 596 629 Q 609 607 610 566 L 611 530 Q 610 506 610 467 L 609 432 Q 608 377 608 292 C 608 262 648 269 649 299 Z" class="stroke17"/>
    <path d="M 479 363 Q 513 297 535 292 Q 545 289 555 304 Q 558 314 553 334 Q 547 350 529 360 Q 501 381 487 385 Q 480 388 477 379 Q 474 372 479 363 Z" class="stroke18"/>
    <path d="M 744 316 Q 787 374 798 384 Q 811 394 805 404 Q 798 420 772 439 Q 759 449 744 444 Q 735 440 740 430 Q 747 411 722 335 Q 715 322 712 310 C 704 281 726 292 744 316 Z" class="stroke19"/>
    <path d="M 712 310 Q 688 307 649 299 L 608 292 Q 520 280 423 265 Q 404 262 418 247 Q 431 234 449 230 Q 468 226 483 230 Q 657 282 930 283 Q 931 283 933 283 Q 952 283 956 291 Q 960 301 945 315 Q 891 354 827 333 Q 790 327 744 316 L 712 310 Z" class="stroke20"/>
    <path d="M 520 187 Q 508 193 480 196 Q 468 199 465 194 Q 458 188 467 172 Q 495 118 512 31 Q 516 4 532 -13 Q 550 -35 555 -19 Q 559 -6 557 18 L 552 52 Q 537 136 536 160 C 535 181 535 181 520 187 Z" class="stroke21"/>
    <path d="M 786 77 Q 810 146 837 162 Q 853 178 839 196 Q 824 209 775 234 Q 759 241 738 234 Q 666 207 520 187 C 490 183 507 153 536 160 Q 537 163 715 191 Q 737 195 746 187 Q 758 175 735 83 C 728 54 776 49 786 77 Z" class="stroke22"/>
    <path d="M 557 18 Q 563 17 571 18 Q 643 33 799 42 Q 809 43 811 52 Q 811 59 786 77 C 768 90 764 89 735 83 Q 632 61 552 52 C 522 49 527 20 557 18 Z" class="stroke23"/>
    <text x="278" y="824" style="transform-origin:278px 824px; transform:scale(1,-1);">1</text>
    <text x="262" y="665" style="transform-origin:262px 665px; transform:scale(1,-1);">2</text>
    <text x="120" y="481" style="transform-origin:120px 481px; transform:scale(1,-1);">3</text>
    <text x="173" y="477" style="transform-origin:173px 477px; transform:scale(1,-1);">4</text>
    <text x="210" y="380" style="transform-origin:210px 380px; transform:scale(1,-1);">5</text>
    <text x="251" y="473" style="transform-origin:251px 473px; transform:scale(1,-1);">6</text>
    <text x="201" y="286" style="transform-origin:201px 286px; transform:scale(1,-1);">7</text>
    <text x="125" y="215" style="transform-origin:125px 215px; transform:scale(1,-1);">8</text>
    <text x="204" y="197" style="transform-origin:204px 197px; transform:scale(1,-1);">9</text>
    <text x="277" y="216" style="transform-origin:277px 216px; transform:scale(1,-1);">10</text>
    <text x="358" y="238" style="transform-origin:358px 238px; transform:scale(1,-1);">11</text>
    <text x="520" y="794" style="transform-origin:520px 794px; transform:scale(1,-1);">12</text>
    <text x="726" y="839" style="transform-origin:726px 839px; transform:scale(1,-1);">13</text>
    <text x="497" y="647" style="transform-origin:497px 647px; transform:scale(1,-1);">14</text>
    <text x="516" y="546" style="transform-origin:516px 546px; transform:scale(1,-1);">15</text>
    <text x="471" y="440" style="transform-origin:471px 440px; transform:scale(1,-1);">16</text>
    <text x="604" y="627" style="transform-origin:604px 627px; transform:scale(1,-1);">17</text>
    <text x="487" y="374" style="transform-origin:487px 374px; transform:scale(1,-1);">18</text>
    <text x="752" y="434" style="transform-origin:752px 434px; transform:scale(1,-1);">19</text>
    <text x="421" y="256" style="transform-origin:421px 256px; transform:scale(1,-1);">20</text>
    <text x="474" y="186" style="transform-origin:474px 186px; transform:scale(1,-1);">21</text>
    <text x="531" y="184" style="transform-origin:531px 184px; transform:scale(1,-1);">22</text>
    <text x="559" y="47" style="transform-origin:559px 47px; transform:scale(1,-1);">23</text></g>
</svg>