<svg version="1.1" viewBox="0 0 1024 1024" xmlns="http://www.w3.org/2000/svg">
  <g stroke="lightgray" stroke-dasharray="1,1" stroke-width="1" transform="scale(4, 4)">
    <line x1="0" y1="0" x2="256" y2="256"/>
    <line x1="256" y1="0" x2="0" y2="256"/>
    <line x1="128" y1="0" x2="128" y2="256"/>
    <line x1="0" y1="128" x2="256" y2="128"/>
  </g>
  <g transform="scale(1, -1) translate(0, -900)">
    <style type="text/css">
        .stroke1 {fill: #BF0909;}
        .stroke2 {fill: #BFBF09;}
        .stroke3 {fill: #09BF09;}
        .stroke4 {fill: #09BFBF;}
        .stroke5 {fill: #0909BF;}
        .stroke6 {fill: #BF09BF;}
        .stroke7 {fill: #42005e;}
        .stroke8 {fill: #ff3333;}
        .stroke9 {fill: #BFBFBF;}
        .stroke10 {fill: #00a53f;}
        .stroke11 {fill: #fff000;}
        .stroke12 {fill: #6600a5;}
        .stroke13 {fill: #0053a5;}
        .stroke14 {fill: #62c22b;}
        .stroke15 {fill: #BF09BF;}
        .stroke16 {fill: #BF0909;}
        .stroke17 {fill: #BFBF09;}
        .stroke18 {fill: #09BF09;}
        .stroke19 {fill: #09BFBF;}
        .stroke20 {fill: #0909BF;}
        text {
            font-family: Helvetica;
            font-size: 50px;
            fill: #FFFFFF;
            paint-order: stroke;
            stroke: #000000;
            stroke-width: 4px;
            stroke-linecap: butt;
            stroke-linejoin: miter;
            font-weight: 800;
        }
    </style>

    <path d="M 442 787 L 468 815 Q 474 819 472 827 Q 470 831 466 836 Q 451 855 433 862 L 417 862 L 412 856 L 412 853 Q 412 806 347 739 Q 324 721 318 715 Q 315 710 316.5 708 Q 318 706 322 706 Q 381 723 425 768 L 442 787 Z" class="stroke1"/>
    <path d="M 535 774 L 543 774 L 545 772 Q 548 770 545 760 Q 537 735 506 703 C 485 681 519 690 542 710 Q 561 727 584 743 L 625 764 Q 642 773 639 782 Q 638 782 637 784 Q 629 798 591 817 Q 578 825 564 815 L 473 793 L 442 787 C 413 781 396 775 425 768 Q 435 763 476 766 L 535 774 Z" class="stroke2"/>
    <path d="M 321 672 Q 280 685 269 676 Q 266 672 272 658 Q 311 631 324 550 Q 329 523 348 506 Q 349 504 350 504 Q 368 484 368 515 L 365 546 Q 363 558 362 563 L 333 633 C 322 661 326 671 321 672 Z" class="stroke3"/>
    <path d="M 506 703 Q 471 703 321 672 C 292 666 306 620 333 633 Q 344 645 472 666 L 505 670 Q 510 672 515 672 Q 655 698 681 685 Q 687 680 687 672 L 684 653 Q 668 602 646 564 C 639 551 639 551 643 542 Q 643 541 645 536 Q 650 521 662 521 Q 684 523 717 592 Q 728 610 745 626 L 770 649 Q 786 662 782 673 Q 778 687 711 726 Q 704 732 659 725 Q 602 717 598 717 Q 593 717 542 710 L 506 703 Z" class="stroke4"/>
    <path d="M 521 597 Q 553 603 578 605 Q 580 605 582 606 Q 595 608 592 615 Q 590 621 583 626 Q 564 641 537 637 L 525 635 L 478 623 Q 448 614 416 605 Q 401 602 419 588 Q 425 584 431 584 L 443 584 Q 468 590 480 590 L 521 597 Z" class="stroke5"/>
    <path d="M 517 566 Q 517 590 521 597 L 525 635 Q 527 641 527 652 Q 527 657 505 670 C 479 685 460 694 472 666 Q 472 663 474 662 Q 478 657 478 623 L 480 590 L 480 559 C 480 529 517 536 517 566 Z" class="stroke6"/>
    <path d="M 368 515 Q 374 515 382 517 Q 493 535 643 542 C 673 543 670 546 646 564 Q 633 574 630 576 Q 609 585 517 566 L 480 559 L 365 546 C 335 543 338 512 368 515 Z" class="stroke7"/>
    <path d="M 198 433 Q 179 411 184 384 L 184 382 Q 191 351 209 359 Q 225 366 242 386 Q 269 419 271 457 Q 278 483 274 502 Q 272 520 265 521 Q 259 520 249 508 Q 221 464 198 433 Z" class="stroke8"/>
    <path d="M 449 397 Q 457 395 464 400 Q 473 408 472 425 Q 470 453 446 465 Q 427 478 418 484 Q 403 493 400 488 Q 394 482 395 472 Q 397 463 409 443 Q 432 402 449 397 Z" class="stroke9"/>
    <path d="M 623 408 Q 632 405 638 412 Q 651 424 644 447 Q 635 472 612 484 Q 578 506 563 511 Q 560 512 558 512 Q 551 510 551 502 Q 549 488 579 448 Q 609 411 623 408 Z" class="stroke10"/>
    <path d="M 741 504 Q 770 474 792 449 Q 796 443 829 400 Q 843 383 857 378 Q 859 378 864 380 Q 886 391 873 438 Q 868 474 806 506 Q 802 507 799 508 Q 739 535 736 533 Q 735 531 733 529 Q 729 515 741 504 Z" class="stroke11"/>
    <path d="M 278 397 Q 274 396 272 394 Q 271 392 269 372 Q 257 316 178 265 Q 169 257 168 251 Q 167 245 176 247 Q 243 268 278 306 L 294 323 Q 302 331 320 346 Q 330 353 330 361 L 330 363 Q 330 367 325 370 Q 310 390 278 397 Z" class="stroke12"/>
    <path d="M 278 306 Q 290 300 304 301 L 351 308 L 358 308 Q 361 304 359 300 Q 355 294 342 279 Q 317 252 314 245 C 298 220 321 235 345 253 Q 368 271 429 306 Q 445 314 439 321 Q 438 323 435 327 Q 419 351 411 351 Q 399 357 351 339 Q 329 335 294 323 C 266 313 262 312 278 306 Z" class="stroke13"/>
    <path d="M 228 223 L 222 225 Q 194 234 185 228 L 184 226 Q 182 219 188 210 Q 234 149 237 124 Q 241 95 258 75 Q 280 51 280 91 L 276 118 Q 276 127 273 136 L 243 199 C 232 222 232 222 228 223 Z" class="stroke14"/>
    <path d="M 314 245 Q 308 245 300 243 Q 256 229 228 223 C 199 216 214 191 243 199 L 319 220 L 349 225 Q 416 247 435 237 Q 451 227 444 196 Q 436 162 413 136 C 399 118 395 122 397 120 Q 408 105 414 98 Q 433 76 445 84 Q 458 98 466 116 Q 480 142 490 200 Q 493 220 514 220 Q 520 227 518 235 Q 515 248 466 274 Q 453 280 425 274 L 396 265 Q 384 265 345 253 L 314 245 Z" class="stroke15"/>
    <path d="M 385 202 L 372 200 L 366 198 L 327 186 L 276 168 Q 269 165 272 161 Q 275 157 280 155 Q 289 151 327 159 L 363 167 Q 380 172 404 174 Q 417 178 416 184 Q 414 194 385 202 Z" class="stroke16"/>
    <path d="M 366 198 Q 366 200 367 204 Q 368 210 362 214 L 353 221 L 349 225 C 328 246 304 246 319 220 Q 327 208 327 186 L 327 159 L 328 135 C 329 105 358 117 361 147 L 363 167 L 366 198 Z" class="stroke17"/>
    <path d="M 280 91 Q 373 116 397 120 C 424 125 424 125 413 136 Q 412 137 410 139 Q 390 155 372 151 L 361 147 L 328 135 L 276 118 C 247 109 251 83 280 91 Z" class="stroke18"/>
    <path d="M 165 8 Q 156 -13 165 -32 Q 167 -37 171 -43 Q 182 -62 198 -57 Q 208 -54 211 -29 Q 213 -18 213 37 Q 212 40 212 42 Q 210 62 196 62 L 165 8 Z" class="stroke19"/>
    <path d="M 275 -35 Q 278 -36 280 -36 Q 296 -37 296 -6 Q 295 12 280 24 Q 257 51 247 55 Q 241 58 238 52 Q 233 43 249 8 Q 265 -31 275 -35 Z" class="stroke20"/>
    <path d="M 347 -4 L 351 -4 Q 365 -4 365 23 L 365 24 L 365 27 Q 361 39 347 49 Q 329 65 321 69 Q 314 74 310 67 Q 307 60 316 39 Q 330 4 347 -4 Z" class="stroke21"/>
    <path d="M 387 90 Q 382 89 382 79 Q 382 73 398 53 Q 406 45 412 35 L 431 6 Q 437 -3 447 -4 Q 449 -5 451 -4 Q 465 -3 465 29 Q 465 49 429 73 Q 400 90 387 90 Z" class="stroke22"/>
    <path d="M 662 397 Q 659 396 657 394 Q 656 392 653 372 Q 641 316 563 265 Q 553 257 552 251 Q 551 245 561 247 Q 627 268 662 306 L 678 323 Q 686 331 705 346 Q 714 353 714 361 L 714 363 Q 714 367 710 370 Q 694 390 662 397 Z" class="stroke23"/>
    <path d="M 662 306 Q 674 300 688 301 L 735 308 L 742 308 Q 745 304 743 300 Q 739 294 726 279 Q 701 252 698 245 C 682 220 705 235 729 253 Q 752 271 813 306 Q 829 314 823 321 Q 822 323 819 327 Q 804 351 795 351 Q 783 357 735 339 Q 713 335 678 323 C 650 313 646 312 662 306 Z" class="stroke24"/>
    <path d="M 612 223 L 607 225 Q 578 234 569 228 L 568 226 Q 566 219 572 210 Q 618 149 621 124 Q 625 95 642 75 Q 664 51 664 91 L 661 118 Q 661 127 658 136 L 627 199 C 616 221 616 221 612 223 Z" class="stroke25"/>
    <path d="M 698 245 Q 692 245 684 243 Q 640 229 612 223 C 583 216 598 191 627 199 L 704 220 L 733 225 Q 800 247 819 237 Q 835 227 828 196 Q 820 162 797 136 C 783 118 779 122 781 120 Q 792 105 798 98 Q 817 76 829 84 Q 842 98 851 116 Q 864 142 874 200 Q 877 220 898 220 Q 905 227 903 235 Q 900 248 850 274 Q 837 280 809 274 L 780 265 Q 768 265 729 253 L 698 245 Z" class="stroke26"/>
    <path d="M 769 202 L 757 200 L 750 198 L 711 186 L 661 168 Q 653 165 657 161 Q 660 157 664 155 Q 673 151 711 159 L 747 167 Q 764 172 788 174 Q 802 178 800 184 Q 798 194 769 202 Z" class="stroke27"/>
    <path d="M 750 198 Q 750 200 751 204 Q 753 210 746 214 L 737 221 L 733 225 C 712 246 690 247 704 220 Q 711 208 711 186 L 711 159 L 712 135 C 713 105 742 117 745 147 L 747 167 L 750 198 Z" class="stroke28"/>
    <path d="M 664 91 Q 758 116 781 120 C 808 125 808 125 797 136 Q 796 137 794 139 Q 774 155 757 151 L 745 147 L 712 135 L 661 118 C 633 109 635 83 664 91 Z" class="stroke29"/>
    <path d="M 549 8 Q 540 -13 549 -32 Q 551 -37 555 -43 Q 566 -62 582 -57 Q 592 -54 595 -29 Q 597 -18 597 37 Q 596 40 596 42 Q 594 62 580 62 L 549 8 Z" class="stroke30"/>
    <path d="M 660 -35 Q 662 -36 664 -36 Q 680 -37 680 -6 Q 679 12 664 24 Q 641 51 631 55 Q 625 58 622 52 Q 617 43 633 8 Q 649 -31 660 -35 Z" class="stroke31"/>
    <path d="M 731 -4 L 735 -4 Q 749 -4 749 23 L 749 24 L 749 27 Q 745 39 731 49 Q 713 65 706 69 Q 698 74 694 67 Q 691 60 700 39 Q 714 4 731 -4 Z" class="stroke32"/>
    <path d="M 771 90 Q 766 89 766 79 Q 766 73 782 53 Q 790 45 796 35 L 815 6 Q 821 -3 831 -4 Q 833 -5 835 -4 Q 849 -3 849 29 Q 849 49 813 73 Q 784 90 771 90 Z" class="stroke33"/>
    <text x="420" y="855" style="transform-origin:420px 855px; transform:scale(1,-1);">1</text>
    <text x="430" y="772" style="transform-origin:430px 772px; transform:scale(1,-1);">2</text>
    <text x="275" y="672" style="transform-origin:275px 672px; transform:scale(1,-1);">3</text>
    <text x="331" y="640" style="transform-origin:331px 640px; transform:scale(1,-1);">4</text>
    <text x="417" y="596" style="transform-origin:417px 596px; transform:scale(1,-1);">5</text>
    <text x="478" y="666" style="transform-origin:478px 666px; transform:scale(1,-1);">6</text>
    <text x="374" y="523" style="transform-origin:374px 523px; transform:scale(1,-1);">7</text>
    <text x="264" y="514" style="transform-origin:264px 514px; transform:scale(1,-1);">8</text>
    <text x="405" y="480" style="transform-origin:405px 480px; transform:scale(1,-1);">9</text>
    <text x="559" y="504" style="transform-origin:559px 504px; transform:scale(1,-1);">10</text>
    <text x="737" y="529" style="transform-origin:737px 529px; transform:scale(1,-1);">11</text>
    <text x="278" y="389" style="transform-origin:278px 389px; transform:scale(1,-1);">12</text>
    <text x="285" y="307" style="transform-origin:285px 307px; transform:scale(1,-1);">13</text>
    <text x="191" y="224" style="transform-origin:191px 224px; transform:scale(1,-1);">14</text>
    <text x="235" y="219" style="transform-origin:235px 219px; transform:scale(1,-1);">15</text>
    <text x="279" y="162" style="transform-origin:279px 162px; transform:scale(1,-1);">16</text>
    <text x="327" y="218" style="transform-origin:327px 218px; transform:scale(1,-1);">17</text>
    <text x="290" y="99" style="transform-origin:290px 99px; transform:scale(1,-1);">18</text>
    <text x="198" y="52" style="transform-origin:198px 52px; transform:scale(1,-1);">19</text>
    <text x="245" y="47" style="transform-origin:245px 47px; transform:scale(1,-1);">20</text>
    <text x="317" y="62" style="transform-origin:317px 62px; transform:scale(1,-1);">21</text>
    <text x="391" y="82" style="transform-origin:391px 82px; transform:scale(1,-1);">22</text>
    <text x="663" y="389" style="transform-origin:663px 389px; transform:scale(1,-1);">23</text>
    <text x="669" y="307" style="transform-origin:669px 307px; transform:scale(1,-1);">24</text>
    <text x="575" y="224" style="transform-origin:575px 224px; transform:scale(1,-1);">25</text>
    <text x="619" y="219" style="transform-origin:619px 219px; transform:scale(1,-1);">26</text>
    <text x="664" y="162" style="transform-origin:664px 162px; transform:scale(1,-1);">27</text>
    <text x="712" y="218" style="transform-origin:712px 218px; transform:scale(1,-1);">28</text>
    <text x="674" y="99" style="transform-origin:674px 99px; transform:scale(1,-1);">29</text>
    <text x="582" y="52" style="transform-origin:582px 52px; transform:scale(1,-1);">30</text>
    <text x="629" y="47" style="transform-origin:629px 47px; transform:scale(1,-1);">31</text>
    <text x="701" y="62" style="transform-origin:701px 62px; transform:scale(1,-1);">32</text>
    <text x="775" y="82" style="transform-origin:775px 82px; transform:scale(1,-1);">33</text></g>
</svg>