<svg version="1.1" viewBox="0 0 1024 1024" xmlns="http://www.w3.org/2000/svg">
  <g stroke="lightgray" stroke-dasharray="1,1" stroke-width="1" transform="scale(4, 4)">
    <line x1="0" y1="0" x2="256" y2="256"/>
    <line x1="256" y1="0" x2="0" y2="256"/>
    <line x1="128" y1="0" x2="128" y2="256"/>
    <line x1="0" y1="128" x2="256" y2="128"/>
  </g>
  <g transform="scale(1, -1) translate(0, -900)">
    <style type="text/css">
        .stroke1 {fill: #BF0909;}
        .stroke2 {fill: #BFBF09;}
        .stroke3 {fill: #09BF09;}
        .stroke4 {fill: #09BFBF;}
        .stroke5 {fill: #0909BF;}
        .stroke6 {fill: #BF09BF;}
        .stroke7 {fill: #42005e;}
        .stroke8 {fill: #ff3333;}
        .stroke9 {fill: #BFBFBF;}
        .stroke10 {fill: #00a53f;}
        .stroke11 {fill: #fff000;}
        .stroke12 {fill: #6600a5;}
        .stroke13 {fill: #0053a5;}
        .stroke14 {fill: #62c22b;}
        .stroke15 {fill: #BF09BF;}
        .stroke16 {fill: #BF0909;}
        .stroke17 {fill: #BFBF09;}
        .stroke18 {fill: #09BF09;}
        .stroke19 {fill: #09BFBF;}
        .stroke20 {fill: #0909BF;}
        text {
            font-family: Helvetica;
            font-size: 50px;
            fill: #FFFFFF;
            paint-order: stroke;
            stroke: #000000;
            stroke-width: 4px;
            stroke-linecap: butt;
            stroke-linejoin: miter;
            font-weight: 800;
        }
    </style>

    <path d="M 308 702 Q 336 698 367 704 Q 542 735 722 767 Q 806 785 818 795 Q 827 802 823 812 Q 816 824 786 833 Q 755 840 725 829 Q 524 765 294 741 C 264 738 278 705 308 702 Z" class="stroke1"/>
    <path d="M 267 443 Q 279 510 299 659 Q 302 680 308 702 C 314 727 314 727 294 741 Q 281 753 258 763 Q 237 775 223 770 Q 210 763 217 748 Q 241 712 233 630 Q 232 624 232 615 Q 220 425 169 289 Q 127 183 36 41 Q 30 34 28 27 Q 25 15 37 18 Q 67 22 151 142 Q 172 176 193 217 Q 241 322 264 430 L 267 443 Z" class="stroke2"/>
    <path d="M 264 430 Q 265 429 273 429 Q 274 429 324 464 L 354 494 Q 357 498 363 503 Q 397 537 436 590 Q 452 615 466 627 Q 475 636 471 648 Q 467 658 443 680 Q 421 696 404 697 Q 388 696 394 677 Q 413 623 275 451 L 267 443 C 254 430 254 430 264 430 Z" class="stroke3"/>
    <path d="M 324 464 Q 345 419 347 343 Q 346 330 346 314 Q 345 208 316 99 Q 304 48 338 9 Q 339 6 342 4 Q 358 -12 370 14 Q 385 54 384 99 Q 387 358 396 415 Q 403 442 394 452 Q 370 477 354 494 C 333 516 313 492 324 464 Z" class="stroke4"/>
    <path d="M 547 582 Q 587 607 612 625 Q 675 673 689 679 Q 708 689 698 706 Q 685 722 658 736 Q 634 748 622 745 Q 609 742 614 730 Q 618 706 538 594 Q 537 591 535 588 C 525 568 525 568 547 582 Z" class="stroke5"/>
    <path d="M 535 588 Q 522 598 505 603 Q 487 609 479 599 Q 473 595 481 583 Q 505 531 496 307 Q 493 282 488 256 Q 484 235 498 221 Q 519 206 541 220 C 547 223 544 285 543 315 L 542 341 Q 542 372 542 402 L 542 430 Q 542 452 541 471 L 542 497 Q 543 545 553 553 C 573 589 560 572 535 588 Z" class="stroke6"/>
    <path d="M 570 555 Q 709 601 732 588 Q 741 581 738 567 Q 719 462 699 452 C 686 438 686 438 694 427 Q 709 402 725 393 Q 735 386 750 406 Q 762 422 789 510 Q 798 538 820 562 Q 833 572 822 587 Q 809 603 768 628 Q 749 637 692 619 Q 686 619 607 598 Q 573 588 547 582 C 518 575 523 550 553 553 Q 560 552 570 555 Z" class="stroke7"/>
    <path d="M 541 471 Q 617 490 674 503 Q 693 507 685 518 Q 675 528 654 531 Q 633 532 542 497 C 514 486 512 464 541 471 Z" class="stroke8"/>
    <path d="M 542 402 Q 549 401 561 403 Q 603 416 694 427 C 724 431 725 436 699 452 Q 671 473 581 440 Q 560 436 542 430 C 513 421 512 404 542 402 Z" class="stroke9"/>
    <path d="M 543 315 Q 547 315 554 315 Q 645 331 711 341 Q 733 345 725 357 Q 715 370 691 375 Q 667 378 542 341 C 513 333 513 315 543 315 Z" class="stroke10"/>
    <path d="M 541 220 Q 577 247 709 266 Q 835 288 857 268 Q 869 256 856 214 Q 849 159 839 102 Q 832 59 812 30 Q 800 21 760 34 Q 715 46 714 39 Q 714 33 723 24 Q 766 -31 778 -66 Q 787 -90 807 -79 Q 864 -52 881 1 Q 902 106 914 186 Q 921 223 939 256 Q 952 272 940 285 Q 922 306 884 327 Q 863 340 834 326 Q 791 307 749 303 Q 691 296 572 273 Q 544 266 543 315 C 539 345 527 212 541 220 Z" class="stroke11"/>
    <path d="M 474 167 Q 456 127 431 89 Q 413 62 430 31 Q 437 15 455 27 Q 497 60 497 117 Q 501 145 495 168 Q 491 175 485 176 Q 478 175 474 167 Z" class="stroke12"/>
    <path d="M 539 147 Q 557 83 579 75 Q 589 71 601 83 Q 605 93 604 113 Q 600 128 585 140 Q 563 162 551 167 Q 544 171 540 162 Q 536 156 539 147 Z" class="stroke13"/>
    <path d="M 627 171 Q 646 120 671 113 Q 681 109 691 124 Q 695 134 690 154 Q 677 181 635 193 Q 628 196 625 187 Q 622 180 627 171 Z" class="stroke14"/>
    <path d="M 733 175 Q 769 130 784 127 Q 793 127 797 137 Q 801 147 798 171 Q 794 192 733 212 Q 721 216 716 214 Q 712 213 712 202 Q 713 193 733 175 Z" class="stroke15"/>
    <text x="303" y="737" style="transform-origin:303px 737px; transform:scale(1,-1);">1</text>
    <text x="229" y="757" style="transform-origin:229px 757px; transform:scale(1,-1);">2</text>
    <text x="404" y="685" style="transform-origin:404px 685px; transform:scale(1,-1);">3</text>
    <text x="353" y="485" style="transform-origin:353px 485px; transform:scale(1,-1);">4</text>
    <text x="622" y="735" style="transform-origin:622px 735px; transform:scale(1,-1);">5</text>
    <text x="488" y="592" style="transform-origin:488px 592px; transform:scale(1,-1);">6</text>
    <text x="557" y="561" style="transform-origin:557px 561px; transform:scale(1,-1);">7</text>
    <text x="548" y="477" style="transform-origin:548px 477px; transform:scale(1,-1);">8</text>
    <text x="546" y="409" style="transform-origin:546px 409px; transform:scale(1,-1);">9</text>
    <text x="549" y="322" style="transform-origin:549px 322px; transform:scale(1,-1);">10</text>
    <text x="544" y="275" style="transform-origin:544px 275px; transform:scale(1,-1);">11</text>
    <text x="485" y="165" style="transform-origin:485px 165px; transform:scale(1,-1);">12</text>
    <text x="550" y="155" style="transform-origin:550px 155px; transform:scale(1,-1);">13</text>
    <text x="635" y="182" style="transform-origin:635px 182px; transform:scale(1,-1);">14</text>
    <text x="720" y="206" style="transform-origin:720px 206px; transform:scale(1,-1);">15</text></g>
</svg>