<svg version="1.1" viewBox="0 0 1024 1024" xmlns="http://www.w3.org/2000/svg">
  <g stroke="lightgray" stroke-dasharray="1,1" stroke-width="1" transform="scale(4, 4)">
    <line x1="0" y1="0" x2="256" y2="256"/>
    <line x1="256" y1="0" x2="0" y2="256"/>
    <line x1="128" y1="0" x2="128" y2="256"/>
    <line x1="0" y1="128" x2="256" y2="128"/>
  </g>
  <g transform="scale(1, -1) translate(0, -900)">
    <style type="text/css">
        .stroke1 {fill: #BF0909;}
        .stroke2 {fill: #BFBF09;}
        .stroke3 {fill: #09BF09;}
        .stroke4 {fill: #09BFBF;}
        .stroke5 {fill: #0909BF;}
        .stroke6 {fill: #BF09BF;}
        .stroke7 {fill: #42005e;}
        .stroke8 {fill: #ff3333;}
        .stroke9 {fill: #BFBFBF;}
        .stroke10 {fill: #00a53f;}
        .stroke11 {fill: #fff000;}
        .stroke12 {fill: #6600a5;}
        .stroke13 {fill: #0053a5;}
        .stroke14 {fill: #62c22b;}
        .stroke15 {fill: #BF09BF;}
        .stroke16 {fill: #BF0909;}
        .stroke17 {fill: #BFBF09;}
        .stroke18 {fill: #09BF09;}
        .stroke19 {fill: #09BFBF;}
        .stroke20 {fill: #0909BF;}
        text {
            font-family: Helvetica;
            font-size: 50px;
            fill: #FFFFFF;
            paint-order: stroke;
            stroke: #000000;
            stroke-width: 4px;
            stroke-linecap: butt;
            stroke-linejoin: miter;
            font-weight: 800;
        }
    </style>

    <path d="M 325 652 Q 356 662 390 670 Q 417 677 421 682 Q 428 689 424 698 Q 417 708 389 712 Q 361 716 328 700 C 301 688 290 683 279 681 Q 275 682 272 680 Q 236 670 194 663 Q 160 656 186 641 Q 225 623 275 638 Q 276 639 280 639 L 325 652 Z" class="stroke1"/>
    <path d="M 170 548 Q 160 552 133 556 Q 121 559 119 554 Q 113 547 121 533 Q 149 478 168 387 Q 172 360 188 342 Q 206 323 210 337 Q 211 344 213 352 L 211 382 Q 190 484 187 519 C 185 543 185 543 170 548 Z" class="stroke2"/>
    <path d="M 367 373 Q 380 354 393 346 Q 402 339 416 357 Q 429 376 458 487 Q 467 515 487 536 Q 499 546 489 559 Q 476 574 439 597 Q 424 604 356 588 Q 347 588 323 581 L 281 572 Q 262 569 242 564 Q 203 554 170 548 C 141 542 158 510 187 519 Q 224 532 281 543 L 323 552 Q 392 567 407 557 Q 417 548 414 531 Q 392 428 383 411 Q 379 401 368 399 C 354 390 354 390 367 373 Z" class="stroke3"/>
    <path d="M 323 466 Q 342 470 360 472 Q 382 476 373 489 Q 363 502 339 505 Q 332 506 323 504 L 280 494 Q 250 482 226 473 Q 210 469 230 455 Q 231 455 280 458 L 323 466 Z" class="stroke4"/>
    <path d="M 322 368 Q 341 372 367 373 C 397 374 391 380 368 399 Q 364 403 358 406 Q 345 413 322 407 L 278 397 Q 241 390 211 382 C 182 374 183 348 213 352 Q 214 352 221 353 Q 237 357 263 361 L 322 368 Z" class="stroke5"/>
    <path d="M 277 292 Q 277 184 252 92 Q 240 53 267 -10 Q 274 -28 282 -31 Q 289 -38 296 -29 Q 303 -25 314 -4 Q 324 21 322 53 Q 321 93 322 368 L 322 407 Q 322 435 323 466 L 323 504 L 323 552 L 323 581 Q 323 621 325 652 L 328 700 Q 332 743 343 776 Q 352 792 349 805 Q 342 815 286 849 Q 262 865 241 850 Q 237 846 243 829 Q 277 778 278 726 Q 278 704 279 681 L 280 639 Q 280 608 281 572 L 281 543 Q 280 519 280 494 L 280 458 Q 279 428 278 397 L 277 292 Z" class="stroke6"/>
    <path d="M 263 361 Q 206 240 52 64 Q 45 55 56 54 Q 62 53 71 60 Q 197 153 277 292 C 327 377 276 388 263 361 Z" class="stroke7"/>
    <path d="M 361 249 Q 386 218 411 183 Q 418 171 431 169 Q 440 168 445 177 Q 452 187 449 211 Q 446 241 365 286 Q 353 292 348 290 Q 344 289 343 278 Q 344 269 361 249 Z" class="stroke8"/>
    <path d="M 605 663 Q 644 699 697 756 Q 712 775 732 790 Q 751 803 737 818 Q 721 831 693 841 Q 668 848 656 844 Q 644 840 651 828 Q 658 810 610 711 Q 597 690 585 665 C 572 638 583 643 605 663 Z" class="stroke9"/>
    <path d="M 585 398 Q 585 429 586 460 L 587 492 Q 587 495 588 497 Q 587 522 588 543 L 591 571 Q 594 602 603 624 Q 604 628 604 630 C 610 650 610 650 585 665 Q 572 674 558 679 Q 539 686 531 677 Q 525 671 533 660 Q 549 627 546 557 Q 545 502 543 433 Q 543 364 528 309 Q 524 290 537 274 Q 555 259 579 273 C 585 276 585 310 585 340 Q 585 356 585 374 L 585 398 Z" class="stroke10"/>
    <path d="M 751 482 Q 752 479 754 475 Q 760 459 772 461 Q 785 462 792 477 Q 802 490 821 555 Q 836 604 869 632 Q 887 648 872 662 Q 854 678 807 702 Q 792 711 733 694 Q 631 676 605 663 C 577 652 551 613 604 630 Q 649 646 750 664 Q 769 667 775 663 Q 784 659 780 631 Q 765 541 752 500 L 751 482 Z" class="stroke11"/>
    <path d="M 588 543 Q 589 543 593 543 Q 668 555 723 561 Q 745 565 737 577 Q 727 590 703 595 Q 679 598 591 571 C 562 562 558 543 588 543 Z" class="stroke12"/>
    <path d="M 586 460 Q 586 461 589 461 Q 640 473 751 482 C 770 484 770 484 752 500 Q 746 506 734 514 Q 719 521 693 515 Q 635 502 587 492 C 558 486 557 452 586 460 Z" class="stroke13"/>
    <path d="M 585 374 Q 591 373 603 374 Q 697 387 766 394 Q 788 397 781 409 Q 771 422 747 428 Q 722 434 585 398 C 556 390 555 376 585 374 Z" class="stroke14"/>
    <path d="M 579 273 Q 624 300 741 310 Q 862 325 882 302 Q 892 289 874 249 Q 864 194 851 135 Q 841 89 819 61 Q 812 48 786 48 Q 755 58 726 65 Q 710 69 711 63 Q 710 57 719 49 Q 771 -3 788 -38 Q 795 -60 815 -50 Q 879 -20 893 42 Q 915 124 933 217 Q 943 254 963 285 Q 978 301 966 315 Q 950 337 913 360 Q 892 373 863 363 Q 820 347 780 344 Q 725 340 611 322 Q 586 318 585 340 C 566 363 552 260 579 273 Z" class="stroke15"/>
    <path d="M 497 211 Q 478 162 450 117 Q 432 87 449 55 Q 456 39 476 51 Q 521 90 522 159 Q 526 189 519 211 Q 515 218 509 220 Q 502 219 497 211 Z" class="stroke16"/>
    <path d="M 564 195 Q 579 125 596 113 Q 606 107 618 118 Q 625 128 626 147 Q 625 163 610 179 Q 589 206 579 214 Q 572 218 567 210 Q 563 206 564 195 Z" class="stroke17"/>
    <path d="M 656 211 Q 678 147 699 139 Q 709 135 720 147 Q 724 157 723 177 Q 714 204 667 232 Q 660 236 656 226 Q 652 220 656 211 Z" class="stroke18"/>
    <path d="M 757 216 Q 770 194 784 167 Q 791 154 803 151 Q 810 150 818 157 Q 825 167 825 191 Q 825 215 764 252 Q 754 259 748 258 Q 744 257 742 247 Q 742 237 757 216 Z" class="stroke19"/>
    <text x="187" y="653" style="transform-origin:187px 653px; transform:scale(1,-1);">1</text>
    <text x="127" y="547" style="transform-origin:127px 547px; transform:scale(1,-1);">2</text>
    <text x="177" y="546" style="transform-origin:177px 546px; transform:scale(1,-1);">3</text>
    <text x="228" y="464" style="transform-origin:228px 464px; transform:scale(1,-1);">4</text>
    <text x="216" y="360" style="transform-origin:216px 360px; transform:scale(1,-1);">5</text>
    <text x="252" y="844" style="transform-origin:252px 844px; transform:scale(1,-1);">6</text>
    <text x="271" y="356" style="transform-origin:271px 356px; transform:scale(1,-1);">7</text>
    <text x="351" y="282" style="transform-origin:351px 282px; transform:scale(1,-1);">8</text>
    <text x="658" y="835" style="transform-origin:658px 835px; transform:scale(1,-1);">9</text>
    <text x="541" y="670" style="transform-origin:541px 670px; transform:scale(1,-1);">10</text>
    <text x="590" y="660" style="transform-origin:590px 660px; transform:scale(1,-1);">11</text>
    <text x="591" y="550" style="transform-origin:591px 550px; transform:scale(1,-1);">12</text>
    <text x="593" y="467" style="transform-origin:593px 467px; transform:scale(1,-1);">13</text>
    <text x="589" y="380" style="transform-origin:589px 380px; transform:scale(1,-1);">14</text>
    <text x="581" y="280" style="transform-origin:581px 280px; transform:scale(1,-1);">15</text>
    <text x="508" y="209" style="transform-origin:508px 209px; transform:scale(1,-1);">16</text>
    <text x="576" y="203" style="transform-origin:576px 203px; transform:scale(1,-1);">17</text>
    <text x="667" y="219" style="transform-origin:667px 219px; transform:scale(1,-1);">18</text>
    <text x="750" y="250" style="transform-origin:750px 250px; transform:scale(1,-1);">19</text></g>
</svg>