<svg version="1.1" viewBox="0 0 1024 1024" xmlns="http://www.w3.org/2000/svg">
  <g stroke="lightgray" stroke-dasharray="1,1" stroke-width="1" transform="scale(4, 4)">
    <line x1="0" y1="0" x2="256" y2="256"/>
    <line x1="256" y1="0" x2="0" y2="256"/>
    <line x1="128" y1="0" x2="128" y2="256"/>
    <line x1="0" y1="128" x2="256" y2="128"/>
  </g>
  <g transform="scale(1, -1) translate(0, -900)">
    <style type="text/css">
        .stroke1 {fill: #BF0909;}
        .stroke2 {fill: #BFBF09;}
        .stroke3 {fill: #09BF09;}
        .stroke4 {fill: #09BFBF;}
        .stroke5 {fill: #0909BF;}
        .stroke6 {fill: #BF09BF;}
        .stroke7 {fill: #42005e;}
        .stroke8 {fill: #ff3333;}
        .stroke9 {fill: #BFBFBF;}
        .stroke10 {fill: #00a53f;}
        .stroke11 {fill: #fff000;}
        .stroke12 {fill: #6600a5;}
        .stroke13 {fill: #0053a5;}
        .stroke14 {fill: #62c22b;}
        .stroke15 {fill: #BF09BF;}
        .stroke16 {fill: #BF0909;}
        .stroke17 {fill: #BFBF09;}
        .stroke18 {fill: #09BF09;}
        .stroke19 {fill: #09BFBF;}
        .stroke20 {fill: #0909BF;}
        text {
            font-family: Helvetica;
            font-size: 50px;
            fill: #FFFFFF;
            paint-order: stroke;
            stroke: #000000;
            stroke-width: 4px;
            stroke-linecap: butt;
            stroke-linejoin: miter;
            font-weight: 800;
        }
    </style>

    <path d="M 254 618 Q 251 670 250 700 Q 251 721 231 727 Q 190 751 165 742 Q 145 733 161 711 Q 194 665 205 612 L 212 573 L 214 563 L 221 497 Q 224 472 241 452 Q 254 439 260 452 Q 265 466 257 584 L 254 618 Z" class="stroke1"/>
    <path d="M 257 584 Q 280 590 288 594 Q 309 602 306 613 Q 305 620 291 622 Q 286 621 283 621 Q 270 621 254 618 L 205 612 Q 198 610 171 606 Q 117 608 96 606 Q 88 606 84 603 Q 78 596 88 584 Q 98 572 116 563 Q 147 544 165 552 L 212 573 L 257 584 Z" class="stroke2"/>
    <path d="M 422 643 Q 434 682 467 737 Q 484 753 472 766 Q 461 784 420 806 Q 402 816 381 808 Q 370 800 378 788 Q 394 742 363 635 L 355 609 Q 343 572 316 498 Q 308 474 310 459 Q 312 444 328 453 Q 354 474 404 600 L 422 643 Z" class="stroke3"/>
    <path d="M 404 600 Q 464 610 445 607 Q 466 610 492 606 Q 508 604 512 612 Q 515 622 505 635 Q 490 646 477 647 L 455 647 L 451 647 L 422 643 L 363 635 Q 355 637 347 635 Q 321 634 338 618 Q 344 615 355 609 C 379 596 379 596 404 600 Z" class="stroke4"/>
    <path d="M 149 363 Q 145 364 139 367 Q 100 382 96 374 Q 94 374 94 372 Q 90 368 97 347 Q 123 263 131 155 Q 131 119 151 92 Q 166 71 172 84 Q 176 94 177 110 L 177 139 Q 177 159 172 201 Q 161 300 160 327 C 158 357 158 359 149 363 Z" class="stroke5"/>
    <path d="M 347 132 Q 367 83 376 67 Q 384 51 392 52 Q 396 53 399 55 Q 435 82 456 276 Q 459 319 480 345 Q 496 361 484 374 Q 466 393 425 411 Q 420 414 416 416 Q 406 417 376 408 Q 280 378 149 363 C 119 359 131 319 160 327 Q 163 331 250 343 L 284 349 Q 384 372 400 359 Q 406 355 406 335 Q 406 249 388 164 Q 386 149 379 147 C 365 120 336 158 347 132 Z" class="stroke6"/>
    <path d="M 306 239 Q 331 243 357 246 Q 378 250 370 263 Q 352 285 308 278 L 260 269 L 196 249 Q 180 246 199 231 Q 202 229 261 233 L 306 239 Z" class="stroke7"/>
    <path d="M 301 167 Q 303 216 306 239 L 308 278 Q 308 296 312 317 Q 313 325 308 331 Q 293 345 284 349 C 258 364 242 372 250 343 Q 257 319 260 269 L 261 233 Q 261 207 263 157 C 264 127 300 137 301 167 Z" class="stroke8"/>
    <path d="M 177 110 Q 186 110 195 112 Q 252 123 347 132 C 377 135 397 137 379 147 L 343 167 Q 329 173 302 168 Q 301 168 301 167 C 280 161 280 161 263 157 L 177 139 C 148 133 147 109 177 110 Z" class="stroke9"/>
    <path d="M 610 679 Q 645 716 686 766 Q 711 796 727 808 Q 743 819 731 835 Q 719 845 699 853 Q 666 863 653 857 Q 640 853 647 841 Q 655 823 627 761 L 585 676 Q 584 676 584 674 C 571 647 589 657 610 679 Z" class="stroke10"/>
    <path d="M 584 674 Q 580 674 580 673 Q 575 677 568 681 Q 539 698 527 686 Q 521 681 529 670 Q 545 640 545 451 Q 545 360 531 301 Q 525 282 541 267 Q 559 252 581 267 C 588 270 586 302 585 332 L 583 375 L 583 398 L 583 467 L 583 493 L 583 501 Q 582 529 583 554 L 584 578 Q 584 610 598 645 C 606 666 606 666 584 674 Z" class="stroke11"/>
    <path d="M 737 484 L 739 482 Q 743 470 754 470 Q 763 471 772 482 Q 785 499 808 570 Q 821 617 855 645 Q 871 658 858 672 Q 841 690 797 711 Q 784 720 729 707 Q 637 690 610 679 C 575 667 554 636 598 645 Q 602 645 633 653 Q 746 680 768 674 Q 776 670 770 641 Q 747 529 737 509 C 731 493 731 493 737 484 Z" class="stroke12"/>
    <path d="M 583 554 Q 586 556 704 574 Q 722 577 715 588 Q 708 600 686 604 Q 661 604 584 578 C 556 568 554 546 583 554 Z" class="stroke13"/>
    <path d="M 583 467 Q 590 465 604 467 Q 668 480 737 484 C 761 485 759 488 737 509 Q 733 514 728 515 Q 715 522 680 514 Q 610 498 583 493 C 554 487 553 472 583 467 Z" class="stroke14"/>
    <path d="M 583 375 Q 635 364 755 392 Q 755 394 757 394 Q 763 399 760 406 Q 753 427 698 417 L 641 406 Q 609 401 583 398 C 553 394 553 380 583 375 Z" class="stroke15"/>
    <path d="M 581 267 Q 642 305 831 314 Q 859 316 872 306 Q 884 295 872 254 Q 853 108 821 65 Q 815 53 793 55 L 735 74 Q 721 76 721 71 Q 721 67 739 48 Q 778 9 795 -24 Q 802 -42 819 -33 Q 880 -6 890 55 Q 909 135 924 227 Q 929 251 939 270 L 955 299 Q 960 310 952 319 Q 935 339 900 359 Q 895 363 890 365 Q 876 368 852 359 Q 808 343 774 340 Q 717 333 612 316 Q 587 310 585 332 C 565 355 554 254 581 267 Z" class="stroke16"/>
    <path d="M 504 219 Q 496 215 494 202 Q 484 153 467 110 Q 455 88 476 61 Q 482 48 498 61 Q 531 102 523 171 L 523 178 Q 520 219 504 219 Z" class="stroke17"/>
    <path d="M 570 196 Q 588 118 600 110 Q 606 106 612 108 Q 625 112 626 137 Q 626 174 583 211 Q 581 213 577 212 Q 568 208 570 196 Z" class="stroke18"/>
    <path d="M 653 231 Q 648 226 659 190 Q 672 143 688 137 Q 698 132 708 141 Q 711 149 712 167 Q 711 178 700 196 Q 682 221 663 235 Q 658 240 653 231 Z" class="stroke19"/>
    <path d="M 748 221 Q 784 155 798 151 Q 818 150 819 192 Q 819 212 780 241 Q 751 265 739 263 Q 735 262 733 252 Q 733 241 748 221 Z" class="stroke20"/>
    <text x="171" y="725" style="transform-origin:171px 725px; transform:scale(1,-1);">1</text>
    <text x="92" y="597" style="transform-origin:92px 597px; transform:scale(1,-1);">2</text>
    <text x="388" y="797" style="transform-origin:388px 797px; transform:scale(1,-1);">3</text>
    <text x="341" y="627" style="transform-origin:341px 627px; transform:scale(1,-1);">4</text>
    <text x="101" y="367" style="transform-origin:101px 367px; transform:scale(1,-1);">5</text>
    <text x="159" y="333" style="transform-origin:159px 333px; transform:scale(1,-1);">6</text>
    <text x="197" y="240" style="transform-origin:197px 240px; transform:scale(1,-1);">7</text>
    <text x="257" y="339" style="transform-origin:257px 339px; transform:scale(1,-1);">8</text>
    <text x="181" y="117" style="transform-origin:181px 117px; transform:scale(1,-1);">9</text>
    <text x="654" y="848" style="transform-origin:654px 848px; transform:scale(1,-1);">10</text>
    <text x="536" y="679" style="transform-origin:536px 679px; transform:scale(1,-1);">11</text>
    <text x="591" y="672" style="transform-origin:591px 672px; transform:scale(1,-1);">12</text>
    <text x="587" y="561" style="transform-origin:587px 561px; transform:scale(1,-1);">13</text>
    <text x="588" y="474" style="transform-origin:588px 474px; transform:scale(1,-1);">14</text>
    <text x="589" y="381" style="transform-origin:589px 381px; transform:scale(1,-1);">15</text>
    <text x="583" y="273" style="transform-origin:583px 273px; transform:scale(1,-1);">16</text>
    <text x="506" y="211" style="transform-origin:506px 211px; transform:scale(1,-1);">17</text>
    <text x="579" y="204" style="transform-origin:579px 204px; transform:scale(1,-1);">18</text>
    <text x="661" y="226" style="transform-origin:661px 226px; transform:scale(1,-1);">19</text>
    <text x="743" y="254" style="transform-origin:743px 254px; transform:scale(1,-1);">20</text></g>
</svg>