<svg version="1.1" viewBox="0 0 1024 1024" xmlns="http://www.w3.org/2000/svg">
  <g stroke="lightgray" stroke-dasharray="1,1" stroke-width="1" transform="scale(4, 4)">
    <line x1="0" y1="0" x2="256" y2="256"/>
    <line x1="256" y1="0" x2="0" y2="256"/>
    <line x1="128" y1="0" x2="128" y2="256"/>
    <line x1="0" y1="128" x2="256" y2="128"/>
  </g>
  <g transform="scale(1, -1) translate(0, -900)">
    <style type="text/css">
        .stroke1 {fill: #BF0909;}
        .stroke2 {fill: #BFBF09;}
        .stroke3 {fill: #09BF09;}
        .stroke4 {fill: #09BFBF;}
        .stroke5 {fill: #0909BF;}
        .stroke6 {fill: #BF09BF;}
        .stroke7 {fill: #42005e;}
        .stroke8 {fill: #ff3333;}
        .stroke9 {fill: #BFBFBF;}
        .stroke10 {fill: #00a53f;}
        .stroke11 {fill: #fff000;}
        .stroke12 {fill: #6600a5;}
        .stroke13 {fill: #0053a5;}
        .stroke14 {fill: #62c22b;}
        .stroke15 {fill: #BF09BF;}
        .stroke16 {fill: #BF0909;}
        .stroke17 {fill: #BFBF09;}
        .stroke18 {fill: #09BF09;}
        .stroke19 {fill: #09BFBF;}
        .stroke20 {fill: #0909BF;}
        text {
            font-family: Helvetica;
            font-size: 50px;
            fill: #FFFFFF;
            paint-order: stroke;
            stroke: #000000;
            stroke-width: 4px;
            stroke-linecap: butt;
            stroke-linejoin: miter;
            font-weight: 800;
        }
    </style>

    <path d="M 163 671 Q 184 650 206 625 Q 218 612 233 612 Q 243 612 249 625 Q 253 638 247 668 Q 243 684 217 698 Q 154 722 140 719 Q 136 715 136 703 Q 139 693 163 671 Z" class="stroke1"/>
    <path d="M 102 475 Q 150 424 181 411 Q 194 408 203 421 Q 209 433 206 448 Q 196 487 113 511 Q 97 515 89 511 Q 83 510 86 499 Q 87 489 102 475 Z" class="stroke2"/>
    <path d="M 103 135 Q 93 131 95 115 Q 117 45 146 31 Q 153 24 162 28 Q 169 29 168 53 Q 172 101 251 342 Q 257 357 255 363 Q 254 372 246 365 Q 234 358 139 177 Q 129 156 103 135 Z" class="stroke3"/>
    <path d="M 435 786 Q 387 749 277 702 Q 273 695 277 692 Q 328 692 444 737 Q 456 749 521 758 Q 534 758 538 765 Q 542 774 532 784 Q 481 823 454 819 Q 447 816 447 807 Q 446 794 435 786 Z" class="stroke4"/>
    <path d="M 268 630 Q 301 575 321 571 Q 331 570 338 583 Q 339 593 335 609 Q 320 637 274 650 Q 267 651 265 643 Q 264 637 268 630 Z" class="stroke5"/>
    <path d="M 370 664 Q 397 612 410 609 Q 419 606 426 617 Q 429 626 426 641 Q 419 660 377 681 Q 371 684 368 676 Q 367 670 370 664 Z" class="stroke6"/>
    <path d="M 513 698 Q 509 692 462 630 Q 455 618 467 621 Q 498 637 515 650 Q 563 683 571 685 Q 586 692 578 704 Q 569 716 551 726 Q 535 736 526 734 Q 517 733 520 723 Q 523 710 513 698 Z" class="stroke7"/>
    <path d="M 406 444 Q 363 444 330 444 Q 311 445 321 456 Q 364 507 404 543 Q 416 553 414 560 Q 414 570 389 596 Q 379 608 365 607 Q 356 606 359 594 Q 368 567 308 486 Q 296 468 273 453 Q 260 443 259 435 Q 262 420 271 406 Q 278 399 288 402 Q 309 412 379 424 Q 382 425 386 424 C 416 426 436 444 406 444 Z" class="stroke8"/>
    <path d="M 384 319 Q 411 332 490 349 C 519 355 512 369 482 365 Q 424 358 357 342 Q 341 338 352 349 Q 389 389 476 466 Q 503 493 525 507 Q 537 514 532 523 Q 526 539 502 558 Q 490 568 482 566 Q 473 565 473 552 Q 473 522 412 450 Q 409 449 406 444 L 386 424 Q 304 343 287 336 Q 275 329 277 318 Q 277 308 296 290 Q 303 280 316 288 Q 335 300 357 308 L 384 319 Z" class="stroke9"/>
    <path d="M 490 349 Q 505 328 513 324 Q 520 323 526 329 Q 532 338 533 359 Q 533 381 478 417 Q 469 423 464 422 Q 460 421 458 412 Q 458 408 482 365 L 490 349 Z" class="stroke10"/>
    <path d="M 407 223 Q 431 232 520 248 Q 529 248 535 259 Q 535 268 516 275 Q 492 290 418 263 Q 415 263 414 262 L 363 246 Q 338 240 315 235 Q 288 231 257 223 Q 235 219 254 206 Q 276 190 314 198 Q 333 204 359 210 L 407 223 Z" class="stroke11"/>
    <path d="M 359 210 Q 343 126 276 75 Q 258 65 234 50 Q 216 40 238 40 Q 271 37 322 69 Q 382 102 407 223 L 414 262 Q 414 263 415 264 Q 416 280 421 287 Q 425 291 421 300 Q 415 309 384 319 C 356 329 352 330 357 308 Q 357 307 358 305 Q 365 274 363 246 L 359 210 Z" class="stroke12"/>
    <path d="M 440 154 Q 456 135 471 113 Q 478 103 489 101 Q 496 101 502 109 Q 506 118 504 139 Q 503 152 484 166 Q 439 193 428 190 Q 424 189 424 179 Q 425 172 440 154 Z" class="stroke13"/>
    <path d="M 617 654 Q 641 678 719 760 Q 735 779 756 793 Q 775 806 761 822 Q 745 835 717 845 Q 692 854 680 849 Q 668 845 674 833 Q 683 808 611 682 Q 605 675 600 664 C 587 637 596 633 617 654 Z" class="stroke14"/>
    <path d="M 621 651 Q 620 652 617 654 L 600 664 Q 594 668 587 670 Q 571 674 563 667 Q 559 663 566 652 Q 579 622 581 432 Q 581 345 567 284 Q 563 265 576 251 Q 594 236 614 249 C 636 258 632 271 624 300 Q 620 303 616 354 L 616 379 Q 616 413 616 448 L 616 470 Q 616 497 615 525 L 616 549 Q 619 591 629 622 C 635 642 635 642 621 651 Z" class="stroke15"/>
    <path d="M 728 463 Q 741 445 753 438 Q 762 431 776 449 Q 788 468 815 576 Q 824 601 844 623 Q 854 633 845 646 Q 832 661 796 683 Q 777 693 729 677 Q 690 671 621 651 C 592 643 600 613 629 622 Q 669 635 742 647 Q 755 650 763 645 Q 773 636 771 620 Q 752 518 742 503 Q 738 493 725 490 C 712 484 712 484 728 463 Z" class="stroke16"/>
    <path d="M 615 525 Q 616 525 624 526 Q 682 539 726 547 Q 745 551 737 562 Q 727 572 706 575 Q 678 578 616 549 C 589 536 585 522 615 525 Z" class="stroke17"/>
    <path d="M 616 448 Q 619 448 624 448 Q 681 458 728 463 C 758 466 753 479 725 490 Q 700 502 616 470 C 588 459 586 448 616 448 Z" class="stroke18"/>
    <path d="M 616 354 Q 643 347 762 365 Q 783 368 786 371 Q 793 377 790 383 Q 786 393 763 399 Q 750 402 672 386 Q 645 382 616 379 C 586 376 587 360 616 354 Z" class="stroke19"/>
    <path d="M 614 249 Q 662 280 824 296 Q 854 300 867 290 Q 880 280 870 238 Q 866 184 857 129 Q 851 86 833 57 Q 826 47 805 49 Q 781 53 760 57 Q 747 61 747 55 Q 747 51 755 43 Q 795 0 809 -28 Q 818 -47 833 -37 Q 888 -10 898 51 Q 911 129 921 215 Q 928 249 944 279 Q 954 295 944 306 Q 928 325 892 343 Q 871 353 846 341 Q 840 340 711 311 Q 626 299 624 300 C 594 297 587 235 614 249 Z" class="stroke20"/>
    <path d="M 546 194 Q 536 148 516 106 Q 504 82 522 56 Q 529 44 544 56 Q 577 95 572 154 Q 572 179 564 196 Q 560 202 554 202 Q 548 201 546 194 Z" class="stroke21"/>
    <path d="M 611 192 Q 617 119 632 106 Q 639 100 650 108 Q 656 114 658 129 Q 659 162 624 205 Q 620 209 614 204 Q 610 200 611 192 Z" class="stroke22"/>
    <path d="M 685 200 Q 695 143 711 136 Q 718 132 728 140 Q 734 147 734 163 Q 731 191 696 215 Q 692 219 687 212 Q 683 208 685 200 Z" class="stroke23"/>
    <path d="M 761 208 Q 792 148 800 144 Q 807 143 814 149 Q 821 158 822 178 Q 823 193 807 210 Q 771 246 756 246 Q 752 245 750 236 Q 749 229 761 208 Z" class="stroke24"/>
    <text x="144" y="713" style="transform-origin:144px 713px; transform:scale(1,-1);">1</text>
    <text x="96" y="503" style="transform-origin:96px 503px; transform:scale(1,-1);">2</text>
    <text x="156" y="37" style="transform-origin:156px 37px; transform:scale(1,-1);">3</text>
    <text x="528" y="770" style="transform-origin:528px 770px; transform:scale(1,-1);">4</text>
    <text x="276" y="639" style="transform-origin:276px 639px; transform:scale(1,-1);">5</text>
    <text x="377" y="671" style="transform-origin:377px 671px; transform:scale(1,-1);">6</text>
    <text x="531" y="724" style="transform-origin:531px 724px; transform:scale(1,-1);">7</text>
    <text x="370" y="597" style="transform-origin:370px 597px; transform:scale(1,-1);">8</text>
    <text x="484" y="555" style="transform-origin:484px 555px; transform:scale(1,-1);">9</text>
    <text x="468" y="413" style="transform-origin:468px 413px; transform:scale(1,-1);">10</text>
    <text x="254" y="215" style="transform-origin:254px 215px; transform:scale(1,-1);">11</text>
    <text x="365" y="309" style="transform-origin:365px 309px; transform:scale(1,-1);">12</text>
    <text x="431" y="183" style="transform-origin:431px 183px; transform:scale(1,-1);">13</text>
    <text x="682" y="839" style="transform-origin:682px 839px; transform:scale(1,-1);">14</text>
    <text x="571" y="661" style="transform-origin:571px 661px; transform:scale(1,-1);">15</text>
    <text x="632" y="631" style="transform-origin:632px 631px; transform:scale(1,-1);">16</text>
    <text x="619" y="531" style="transform-origin:619px 531px; transform:scale(1,-1);">17</text>
    <text x="620" y="454" style="transform-origin:620px 454px; transform:scale(1,-1);">18</text>
    <text x="620" y="360" style="transform-origin:620px 360px; transform:scale(1,-1);">19</text>
    <text x="615" y="255" style="transform-origin:615px 255px; transform:scale(1,-1);">20</text>
    <text x="555" y="193" style="transform-origin:555px 193px; transform:scale(1,-1);">21</text>
    <text x="620" y="196" style="transform-origin:620px 196px; transform:scale(1,-1);">22</text>
    <text x="694" y="205" style="transform-origin:694px 205px; transform:scale(1,-1);">23</text>
    <text x="759" y="238" style="transform-origin:759px 238px; transform:scale(1,-1);">24</text></g>
</svg>