<svg version="1.1" viewBox="0 0 1024 1024" xmlns="http://www.w3.org/2000/svg">
  <g stroke="lightgray" stroke-dasharray="1,1" stroke-width="1" transform="scale(4, 4)">
    <line x1="0" y1="0" x2="256" y2="256"/>
    <line x1="256" y1="0" x2="0" y2="256"/>
    <line x1="128" y1="0" x2="128" y2="256"/>
    <line x1="0" y1="128" x2="256" y2="128"/>
  </g>
  <g transform="scale(1, -1) translate(0, -900)">
    <style type="text/css">
        .stroke1 {fill: #BF0909;}
        .stroke2 {fill: #BFBF09;}
        .stroke3 {fill: #09BF09;}
        .stroke4 {fill: #09BFBF;}
        .stroke5 {fill: #0909BF;}
        .stroke6 {fill: #BF09BF;}
        .stroke7 {fill: #42005e;}
        .stroke8 {fill: #ff3333;}
        .stroke9 {fill: #BFBFBF;}
        .stroke10 {fill: #00a53f;}
        .stroke11 {fill: #fff000;}
        .stroke12 {fill: #6600a5;}
        .stroke13 {fill: #0053a5;}
        .stroke14 {fill: #62c22b;}
        .stroke15 {fill: #BF09BF;}
        .stroke16 {fill: #BF0909;}
        .stroke17 {fill: #BFBF09;}
        .stroke18 {fill: #09BF09;}
        .stroke19 {fill: #09BFBF;}
        .stroke20 {fill: #0909BF;}
        text {
            font-family: Helvetica;
            font-size: 50px;
            fill: #FFFFFF;
            paint-order: stroke;
            stroke: #000000;
            stroke-width: 4px;
            stroke-linecap: butt;
            stroke-linejoin: miter;
            font-weight: 800;
        }
    </style>

    <path d="M 362 681 Q 363 724 367 763 L 368 784 Q 368 788 369 790 Q 369 802 377 829 Q 380 839 363 850 Q 333 863 314 866 Q 301 867 294 861 Q 288 854 296 843 Q 314 821 326 670 C 328 640 361 651 362 681 Z" class="stroke1"/>
    <path d="M 367 763 L 489 784 Q 511 790 502 801 Q 490 814 466 816 Q 442 817 368 784 C 341 772 337 758 367 763 Z" class="stroke2"/>
    <path d="M 204 611 Q 205 612 211 614 Q 322 648 423 671 Q 451 675 452 663 Q 453 653 442 615 Q 438 603 443 601 Q 449 598 458 609 Q 507 652 528 661 Q 544 665 542 675 Q 541 685 482 709 Q 464 715 444 708 Q 401 693 362 681 L 326 670 Q 323 671 321 670 Q 264 657 187 639 C 158 632 176 600 204 611 Z" class="stroke3"/>
    <path d="M 187 639 Q 175 648 157 654 Q 139 661 129 657 Q 119 650 126 638 Q 142 617 149 559 Q 149 354 127 254 Q 124 247 123 238 Q 98 147 28 12 Q 24 6 23 0 Q 22 -10 30 -7 Q 64 3 131 138 Q 138 159 147 179 Q 198 326 198 554 Q 201 582 204 611 C 206 628 206 628 187 639 Z" class="stroke4"/>
    <path d="M 331 549 Q 343 553 420 572 Q 427 571 432 580 Q 432 587 417 592 Q 390 601 332 577 L 303 567 Q 261 558 217 546 Q 199 542 214 533 Q 235 521 271 531 Q 284 535 303 540 L 331 549 Z" class="stroke5"/>
    <path d="M 303 540 Q 304 500 320 486 Q 359 461 426 481 Q 442 487 456 499 Q 463 503 461 512 Q 458 525 458 562 Q 459 569 456 573 Q 455 574 450 567 Q 416 513 379 506 L 371 506 Q 358 505 348 508 Q 339 511 336 516 Q 330 526 331 549 L 332 577 Q 333 587 335 596 Q 336 606 330 612 Q 321 619 307 624 Q 300 625 295 623 Q 291 620 294 610 Q 303 589 303 567 L 303 540 Z" class="stroke6"/>
    <path d="M 256 416 Q 249 423 217 427 Q 208 428 206 424 Q 202 420 209 408 Q 233 365 250 292 Q 254 270 268 256 Q 281 240 285 252 Q 286 258 286 265 L 285 284 Q 279 311 261 390 C 255 417 257 415 256 416 Z" class="stroke7"/>
    <path d="M 410 288 Q 422 269 433 263 Q 440 257 452 273 Q 462 288 484 374 Q 490 396 507 416 Q 516 425 507 435 Q 497 447 464 465 Q 452 471 397 454 Q 396 454 316 432 Q 282 422 256 416 C 227 409 232 382 261 390 L 332 410 L 364 418 Q 424 439 440 430 Q 450 423 447 410 Q 432 334 420 310 C 410 287 410 289 410 288 Z" class="stroke8"/>
    <path d="M 366 348 Q 387 354 408 358 Q 424 362 417 371 Q 408 381 390 382 Q 378 383 364 378 L 332 367 Q 311 358 292 349 Q 280 345 296 336 L 334 340 L 366 348 Z" class="stroke9"/>
    <path d="M 366 310 L 366 348 L 364 378 L 364 418 C 364 448 332 440 332 410 L 332 367 L 334 340 L 334 300 C 334 270 366 280 366 310 Z" class="stroke10"/>
    <path d="M 286 265 Q 290 265 297 266 Q 358 279 410 288 C 440 293 447 297 420 310 Q 413 314 402 315 Q 389 316 366 310 L 334 300 Q 307 293 285 284 C 257 273 256 263 286 265 Z" class="stroke11"/>
    <path d="M 226 198 Q 219 201 201 203 Q 192 204 190 200 Q 186 197 190 189 Q 189 188 192 182 Q 207 167 232 83 Q 233 76 236 67 C 245 38 271 44 265 73 Q 255 122 244 173 Q 244 174 245 174 C 246 191 246 191 226 198 Z" class="stroke12"/>
    <path d="M 461 116 Q 480 180 499 203 Q 506 210 503 218 Q 499 228 458 247 Q 448 251 438 249 Q 344 222 226 198 C 197 192 216 165 245 174 Q 267 181 291 187 L 305 190 Q 329 197 356 204 L 381 209 Q 423 224 439 216 Q 443 213 442 202 Q 436 163 422 107 C 415 78 452 87 461 116 Z" class="stroke13"/>
    <path d="M 291 187 Q 290 187 291 186 Q 291 105 308 88 Q 315 82 320 96 Q 324 121 313 172 Q 312 182 305 190 C 291 208 291 208 291 187 Z" class="stroke14"/>
    <path d="M 377 97 Q 395 170 401 186 Q 407 193 401 199 Q 394 205 381 209 C 353 218 349 220 356 204 Q 368 183 359 98 Q 359 97 359 93 C 359 63 370 68 377 97 Z" class="stroke15"/>
    <path d="M 236 67 Q 220 66 203 61 Q 182 57 149 59 Q 139 59 135 51 Q 132 39 140 32 Q 159 16 185 -3 Q 194 -7 205 0 Q 256 30 441 85 Q 487 100 501 109 Q 513 115 514 122 Q 510 128 499 126 Q 478 122 461 116 L 422 107 Q 398 103 377 97 L 359 93 Q 313 84 265 73 L 236 67 Z" class="stroke16"/>
    <path d="M 618 673 Q 723 799 740 812 Q 756 825 743 838 Q 728 848 703 855 Q 679 862 670 857 Q 660 853 666 842 Q 676 820 609 686 Q 608 685 607 681 Q 606 681 606 680 C 593 653 599 650 618 673 Z" class="stroke17"/>
    <path d="M 617 386 Q 617 426 617 468 L 617 492 Q 617 493 617 495 Q 616 526 617 553 L 619 580 Q 619 613 630 640 C 637 660 637 660 622 670 Q 621 671 618 673 L 606 680 Q 597 687 586 690 Q 570 696 561 687 Q 555 683 563 671 Q 582 635 580 559 Q 580 499 579 423 Q 580 350 566 288 Q 562 269 576 254 Q 594 239 616 254 C 621 257 620 289 619 319 Q 618 340 618 360 L 617 386 Z" class="stroke18"/>
    <path d="M 756 492 Q 769 473 781 466 Q 790 459 804 477 Q 817 496 846 603 Q 853 631 874 652 Q 886 662 876 675 Q 863 690 826 713 Q 811 719 751 703 Q 730 703 622 670 C 593 661 602 630 630 640 Q 771 688 795 673 Q 805 664 802 648 Q 775 528 761 520 C 748 502 748 502 756 492 Z" class="stroke19"/>
    <path d="M 617 553 Q 617 554 621 554 Q 684 570 730 579 Q 749 583 741 594 Q 731 604 710 607 Q 688 608 619 580 C 591 569 588 546 617 553 Z" class="stroke20"/>
    <path d="M 617 468 Q 621 468 630 469 Q 700 484 756 492 C 786 496 788 507 761 520 Q 739 536 617 492 C 589 482 587 467 617 468 Z" class="stroke21"/>
    <path d="M 618 360 Q 622 360 631 361 Q 710 377 768 388 Q 790 392 781 405 Q 771 418 747 421 Q 714 424 617 386 C 589 375 588 359 618 360 Z" class="stroke22"/>
    <path d="M 616 254 Q 676 294 852 309 Q 880 315 893 304 Q 906 292 877 123 Q 870 71 846 37 Q 836 28 767 41 Q 745 53 747 39 Q 747 35 755 27 Q 803 -19 820 -51 Q 829 -70 845 -59 Q 902 -29 916 40 Q 934 130 947 230 Q 953 264 969 294 Q 981 310 969 321 Q 953 339 918 357 Q 899 367 873 356 Q 834 340 799 334 Q 748 327 645 305 Q 621 298 619 319 C 597 340 590 240 616 254 Z" class="stroke23"/>
    <path d="M 543 203 Q 539 163 528 123 Q 521 96 541 75 Q 551 65 563 78 Q 590 115 575 168 Q 571 193 560 208 Q 554 212 550 213 Q 544 210 543 203 Z" class="stroke24"/>
    <path d="M 621 201 Q 621 138 632 127 Q 639 120 650 127 Q 657 133 661 148 Q 662 161 655 177 Q 643 204 636 212 Q 632 218 626 212 Q 622 208 621 201 Z" class="stroke25"/>
    <path d="M 693 226 Q 708 165 722 156 Q 731 152 741 161 Q 745 168 747 185 Q 744 216 705 242 Q 699 246 695 239 Q 691 235 693 226 Z" class="stroke26"/>
    <path d="M 780 218 Q 795 194 810 166 Q 817 154 828 151 Q 835 150 842 157 Q 848 167 849 189 Q 849 211 787 253 Q 777 259 772 258 Q 768 257 766 247 Q 766 240 780 218 Z" class="stroke27"/>
    <text x="303" y="854" style="transform-origin:303px 854px; transform:scale(1,-1);">1</text>
    <text x="374" y="768" style="transform-origin:374px 768px; transform:scale(1,-1);">2</text>
    <text x="196" y="638" style="transform-origin:196px 638px; transform:scale(1,-1);">3</text>
    <text x="136" y="646" style="transform-origin:136px 646px; transform:scale(1,-1);">4</text>
    <text x="223" y="538" style="transform-origin:223px 538px; transform:scale(1,-1);">5</text>
    <text x="302" y="616" style="transform-origin:302px 616px; transform:scale(1,-1);">6</text>
    <text x="213" y="419" style="transform-origin:213px 419px; transform:scale(1,-1);">7</text>
    <text x="266" y="398" style="transform-origin:266px 398px; transform:scale(1,-1);">8</text>
    <text x="301" y="345" style="transform-origin:301px 345px; transform:scale(1,-1);">9</text>
    <text x="360" y="411" style="transform-origin:360px 411px; transform:scale(1,-1);">10</text>
    <text x="291" y="270" style="transform-origin:291px 270px; transform:scale(1,-1);">11</text>
    <text x="197" y="195" style="transform-origin:197px 195px; transform:scale(1,-1);">12</text>
    <text x="235" y="196" style="transform-origin:235px 196px; transform:scale(1,-1);">13</text>
    <text x="298" y="187" style="transform-origin:298px 187px; transform:scale(1,-1);">14</text>
    <text x="363" y="203" style="transform-origin:363px 203px; transform:scale(1,-1);">15</text>
    <text x="147" y="45" style="transform-origin:147px 45px; transform:scale(1,-1);">16</text>
    <text x="677" y="847" style="transform-origin:677px 847px; transform:scale(1,-1);">17</text>
    <text x="570" y="680" style="transform-origin:570px 680px; transform:scale(1,-1);">18</text>
    <text x="640" y="651" style="transform-origin:640px 651px; transform:scale(1,-1);">19</text>
    <text x="628" y="562" style="transform-origin:628px 562px; transform:scale(1,-1);">20</text>
    <text x="623" y="474" style="transform-origin:623px 474px; transform:scale(1,-1);">21</text>
    <text x="624" y="367" style="transform-origin:624px 367px; transform:scale(1,-1);">22</text>
    <text x="618" y="260" style="transform-origin:618px 260px; transform:scale(1,-1);">23</text>
    <text x="552" y="204" style="transform-origin:552px 204px; transform:scale(1,-1);">24</text>
    <text x="631" y="203" style="transform-origin:631px 203px; transform:scale(1,-1);">25</text>
    <text x="703" y="231" style="transform-origin:703px 231px; transform:scale(1,-1);">26</text>
    <text x="777" y="248" style="transform-origin:777px 248px; transform:scale(1,-1);">27</text></g>
</svg>