<svg version="1.1" viewBox="0 0 1024 1024" xmlns="http://www.w3.org/2000/svg">
  <g stroke="lightgray" stroke-dasharray="1,1" stroke-width="1" transform="scale(4, 4)">
    <line x1="0" y1="0" x2="256" y2="256"/>
    <line x1="256" y1="0" x2="0" y2="256"/>
    <line x1="128" y1="0" x2="128" y2="256"/>
    <line x1="0" y1="128" x2="256" y2="128"/>
  </g>
  <g transform="scale(1, -1) translate(0, -900)">
    <style type="text/css">
        .stroke1 {fill: #BF0909;}
        .stroke2 {fill: #BFBF09;}
        .stroke3 {fill: #09BF09;}
        .stroke4 {fill: #09BFBF;}
        .stroke5 {fill: #0909BF;}
        .stroke6 {fill: #BF09BF;}
        .stroke7 {fill: #42005e;}
        .stroke8 {fill: #ff3333;}
        .stroke9 {fill: #BFBFBF;}
        .stroke10 {fill: #00a53f;}
        .stroke11 {fill: #fff000;}
        .stroke12 {fill: #6600a5;}
        .stroke13 {fill: #0053a5;}
        .stroke14 {fill: #62c22b;}
        .stroke15 {fill: #BF09BF;}
        .stroke16 {fill: #BF0909;}
        .stroke17 {fill: #BFBF09;}
        .stroke18 {fill: #09BF09;}
        .stroke19 {fill: #09BFBF;}
        .stroke20 {fill: #0909BF;}
        text {
            font-family: Helvetica;
            font-size: 50px;
            fill: #FFFFFF;
            paint-order: stroke;
            stroke: #000000;
            stroke-width: 4px;
            stroke-linecap: butt;
            stroke-linejoin: miter;
            font-weight: 800;
        }
    </style>

    <path d="M 143 750 Q 135 753 120 753 Q 109 753 106 750 Q 102 745 110 731 Q 137 685 149 651 Q 157 629 159 620 Q 164 598 177 586 Q 196 570 198 583 Q 199 592 199 604 L 194 625 Q 186 643 170 723 C 166 744 166 744 143 750 Z" class="stroke1"/>
    <path d="M 406 631 Q 404 621 410 612 Q 416 606 420 606 Q 439 609 466 668 Q 484 712 512 733 Q 527 745 515 759 Q 500 776 462 797 Q 454 802 392 792 Q 216 764 143 750 C 114 744 141 716 170 723 Q 194 729 231 737 L 250 741 Q 278 749 319 754 L 355 758 Q 416 772 437 760 Q 447 754 420 674 Q 416 660 413 653 L 406 631 Z" class="stroke2"/>
    <path d="M 276 641 Q 276 664 265 708 Q 257 735 250 741 C 231 762 231 762 231 737 Q 231 660 254 636 C 274 613 277 611 276 641 Z" class="stroke3"/>
    <path d="M 345 657 Q 363 708 375 727 Q 388 744 360 756 Q 358 757 355 758 C 327 769 308 776 319 754 Q 336 723 319 651 C 312 622 335 629 345 657 Z" class="stroke4"/>
    <path d="M 276 613 Q 349 627 406 631 C 436 633 439 638 413 653 Q 394 667 345 657 L 319 651 Q 315 650 276 641 L 254 636 Q 222 633 194 625 C 165 617 169 602 199 604 Q 209 604 276 613 Z" class="stroke5"/>
    <path d="M 507 529 Q 519 529 523 538 Q 525 545 521 551 Q 484 590 432 574 Q 296 539 92 508 Q 77 506 89 492 Q 112 469 137 478 Q 294 519 502 529 L 507 529 Z" class="stroke6"/>
    <path d="M 227 304 L 227 310 L 228 337 L 220 402 C 217 425 217 425 209 428 Q 202 431 180 437 Q 176 439 173 437 Q 169 434 171 425 Q 188 382 200 318 Q 204 296 214 282 C 227 262 227 274 227 304 Z" class="stroke7"/>
    <path d="M 412 373 Q 423 410 441 421 Q 452 437 443 451 Q 432 463 398 482 Q 387 490 372 482 Q 344 459 209 428 C 180 421 192 391 220 402 Q 220 405 367 441 Q 392 447 390 423 L 390 420 Q 382 396 378 373 C 372 344 403 344 412 373 Z" class="stroke8"/>
    <path d="M 227 310 Q 233 310 245 312 Q 280 325 421 343 Q 429 344 430 351 Q 430 358 412 373 C 401 383 401 383 378 373 Q 327 351 228 337 C 198 333 197 308 227 310 Z" class="stroke9"/>
    <path d="M 265 263 Q 265 269 260 278 Q 245 300 227 304 C 219 307 219 307 214 282 Q 200 194 51 67 L 35 53 Q 30 49 36 47 Q 71 41 157 120 Q 178 143 200 170 L 223 200 Q 253 242 255 242 C 267 256 267 256 265 263 Z" class="stroke10"/>
    <path d="M 200 170 Q 209 137 206 94 Q 202 24 190 4 Q 178 -22 189 -46 Q 196 -64 210 -74 Q 218 -81 225 -63 Q 238 -35 312 74 Q 323 88 323 96 Q 323 104 318 101 Q 284 76 254 47 Q 236 28 234 57 Q 239 135 243 158 Q 245 170 242 177 Q 239 184 223 200 C 202 222 193 199 200 170 Z" class="stroke11"/>
    <path d="M 360 175 Q 416 228 444 248 Q 455 251 455 261 L 455 263 Q 443 307 402 312 Q 392 312 393 293 Q 394 284 392 274 Q 389 261 347 188 C 332 162 338 154 360 175 Z" class="stroke12"/>
    <path d="M 347 188 Q 318 217 286 252 Q 279 264 267 263 L 265 263 C 235 267 230 259 255 242 Q 276 229 294 206 L 417 25 Q 463 0 501 16 Q 511 20 514 25 Q 515 33 509 35 Q 458 47 369 166 Q 365 172 360 175 L 347 188 Z" class="stroke13"/>
    <path d="M 596 651 Q 632 687 653 711 Q 704 772 715 780 Q 731 794 718 808 Q 674 841 643 828 Q 632 823 639 813 Q 647 792 585 661 C 572 634 575 630 596 651 Z" class="stroke14"/>
    <path d="M 602 610 Q 606 610 623 617 Q 664 632 755 655 Q 776 658 779 635 Q 780 633 780 630 Q 778 586 761 511 Q 759 490 739 493 L 692 505 Q 679 508 682 500 Q 682 493 700 476 Q 733 445 750 414 Q 757 404 766 409 Q 774 412 788 433 Q 804 457 817 542 Q 825 627 839 643 Q 849 651 844 661 Q 837 671 804 690 Q 792 698 735 682 Q 725 682 649 659 L 602 647 C 573 640 573 601 602 610 Z" class="stroke15"/>
    <path d="M 624 570 Q 684 500 694 536 Q 697 552 681 566 Q 662 584 626 589 Q 619 590 619 582 Q 619 576 624 570 Z" class="stroke16"/>
    <path d="M 549 306 Q 564 294 577 298 L 617 316 Q 630 321 645 324 Q 741 349 809 351 Q 845 351 857 343 Q 869 333 858 289 Q 839 118 808 73 Q 796 61 757 73 L 709 86 Q 693 90 694 83 Q 694 76 715 57 Q 757 18 774 -10 Q 777 -14 780 -20 Q 789 -39 806 -29 Q 866 4 880 73 Q 898 159 911 263 Q 918 300 937 332 Q 945 345 942 351 Q 941 355 937 359 Q 919 378 883 398 Q 866 408 845 401 L 800 386 Q 783 382 766 379 Q 723 376 622 355 Q 595 351 593 371 Q 589 568 602 610 C 607 640 608 643 602 647 Q 599 651 596 651 L 585 661 Q 550 684 535 670 Q 529 664 537 655 Q 549 625 551 484 Q 551 392 540 341 Q 534 321 549 306 Z" class="stroke17"/>
    <path d="M 570 174 Q 598 188 702 200 Q 773 208 803 204 Q 829 204 827 218 Q 826 225 819 231 Q 764 272 703 250 Q 672 247 593 229 Q 538 218 503 215 Q 493 214 492 204 Q 494 186 537 172 L 548 170 Q 558 167 570 174 Z" class="stroke18"/>
    <text x="114" y="745" style="transform-origin:114px 745px; transform:scale(1,-1);">1</text>
    <text x="149" y="747" style="transform-origin:149px 747px; transform:scale(1,-1);">2</text>
    <text x="247" y="733" style="transform-origin:247px 733px; transform:scale(1,-1);">3</text>
    <text x="325" y="751" style="transform-origin:325px 751px; transform:scale(1,-1);">4</text>
    <text x="202" y="610" style="transform-origin:202px 610px; transform:scale(1,-1);">5</text>
    <text x="91" y="500" style="transform-origin:91px 500px; transform:scale(1,-1);">6</text>
    <text x="177" y="430" style="transform-origin:177px 430px; transform:scale(1,-1);">7</text>
    <text x="221" y="411" style="transform-origin:221px 411px; transform:scale(1,-1);">8</text>
    <text x="230" y="317" style="transform-origin:230px 317px; transform:scale(1,-1);">9</text>
    <text x="230" y="295" style="transform-origin:230px 295px; transform:scale(1,-1);">10</text>
    <text x="226" y="190" style="transform-origin:226px 190px; transform:scale(1,-1);">11</text>
    <text x="406" y="299" style="transform-origin:406px 299px; transform:scale(1,-1);">12</text>
    <text x="266" y="256" style="transform-origin:266px 256px; transform:scale(1,-1);">13</text>
    <text x="653" y="817" style="transform-origin:653px 817px; transform:scale(1,-1);">14</text>
    <text x="604" y="616" style="transform-origin:604px 616px; transform:scale(1,-1);">15</text>
    <text x="629" y="579" style="transform-origin:629px 579px; transform:scale(1,-1);">16</text>
    <text x="544" y="664" style="transform-origin:544px 664px; transform:scale(1,-1);">17</text>
    <text x="503" y="204" style="transform-origin:503px 204px; transform:scale(1,-1);">18</text></g>
</svg>