<svg version="1.1" viewBox="0 0 1024 1024" xmlns="http://www.w3.org/2000/svg">
  <g stroke="lightgray" stroke-dasharray="1,1" stroke-width="1" transform="scale(4, 4)">
    <line x1="0" y1="0" x2="256" y2="256"/>
    <line x1="256" y1="0" x2="0" y2="256"/>
    <line x1="128" y1="0" x2="128" y2="256"/>
    <line x1="0" y1="128" x2="256" y2="128"/>
  </g>
  <g transform="scale(1, -1) translate(0, -900)">
    <style type="text/css">
        .stroke1 {fill: #BF0909;}
        .stroke2 {fill: #BFBF09;}
        .stroke3 {fill: #09BF09;}
        .stroke4 {fill: #09BFBF;}
        .stroke5 {fill: #0909BF;}
        .stroke6 {fill: #BF09BF;}
        .stroke7 {fill: #42005e;}
        .stroke8 {fill: #ff3333;}
        .stroke9 {fill: #BFBFBF;}
        .stroke10 {fill: #00a53f;}
        .stroke11 {fill: #fff000;}
        .stroke12 {fill: #6600a5;}
        .stroke13 {fill: #0053a5;}
        .stroke14 {fill: #62c22b;}
        .stroke15 {fill: #BF09BF;}
        .stroke16 {fill: #BF0909;}
        .stroke17 {fill: #BFBF09;}
        .stroke18 {fill: #09BF09;}
        .stroke19 {fill: #09BFBF;}
        .stroke20 {fill: #0909BF;}
        text {
            font-family: Helvetica;
            font-size: 50px;
            fill: #FFFFFF;
            paint-order: stroke;
            stroke: #000000;
            stroke-width: 4px;
            stroke-linecap: butt;
            stroke-linejoin: miter;
            font-weight: 800;
        }
    </style>

    <path d="M 614 700 Q 690 709 753 713 Q 763 712 772 723 Q 773 733 752 745 Q 719 769 639 746 Q 632 746 625 743 L 569 732 Q 556 731 545 728 Q 484 718 430 710 L 382 704 Q 373 707 249 695 Q 222 694 242 676 Q 252 666 266 657 Q 279 650 299 655 Q 342 662 389 670 L 433 676 Q 494 688 565 695 L 614 700 Z" class="stroke1"/>
    <path d="M 430 710 L 430 718 Q 429 752 429 767 Q 433 785 421 792 Q 406 802 381 809 Q 362 813 343 802 Q 334 793 349 782 Q 367 755 382 704 L 389 670 Q 390 660 394 649 Q 410 558 421 540 Q 428 531 434 538 Q 437 544 440 560 L 441 590 Q 440 606 438 621 Q 435 649 433 676 L 430 710 Z" class="stroke2"/>
    <path d="M 593 616 Q 603 659 614 700 L 625 743 Q 634 788 652 818 Q 656 828 640 844 Q 612 866 590 873 Q 577 877 568 871 Q 559 865 565 851 Q 577 829 576 813 Q 573 774 569 732 L 565 695 Q 559 658 553 616 C 549 586 586 587 593 616 Z" class="stroke3"/>
    <path d="M 440 560 Q 447 559 460 561 Q 508 571 613 580 Q 623 581 624 589 Q 624 596 596 615 Q 595 616 593 616 L 553 616 L 552 616 Q 491 600 441 590 C 412 584 410 562 440 560 Z" class="stroke4"/>
    <path d="M 497 471 Q 602 481 918 481 Q 940 481 947 490 Q 954 503 935 520 Q 875 563 832 556 Q 624 517 79 461 Q 54 460 72 439 Q 105 406 151 415 Q 290 451 460 467 L 497 471 Z" class="stroke5"/>
    <path d="M 327 377 Q 317 383 280 388 Q 268 391 265 385 Q 259 379 268 363 Q 302 297 323 189 Q 327 156 347 135 Q 366 113 371 130 Q 372 134 372 138 L 373 164 Q 372 180 368 201 Q 346 301 338 340 C 332 369 331 375 327 377 Z" class="stroke6"/>
    <path d="M 631 163 Q 631 159 634 152 Q 638 136 652 137 Q 665 138 673 154 Q 688 173 711 264 Q 727 316 766 348 Q 785 364 768 380 Q 750 398 698 425 Q 686 432 614 419 Q 548 413 531 409 L 477 401 Q 449 398 423 392 Q 368 383 327 377 C 297 373 309 332 338 340 Q 378 353 478 366 L 529 373 Q 646 391 664 378 Q 674 371 669 338 Q 647 223 636 191 L 631 163 Z" class="stroke7"/>
    <path d="M 524 270 Q 570 277 610 281 Q 632 285 625 297 Q 615 310 591 316 Q 569 320 530 310 Q 527 310 526 309 L 478 297 Q 438 288 403 280 Q 387 277 406 262 Q 416 255 437 258 Q 458 262 479 264 L 524 270 Z" class="stroke8"/>
    <path d="M 531 409 Q 531 442 530 444 Q 514 460 497 471 C 472 488 447 494 460 467 Q 461 466 462 463 Q 477 430 477 401 L 478 366 Q 478 341 478 297 L 479 264 Q 479 227 479 179 C 479 149 520 156 521 186 Q 522 229 524 270 L 526 309 Q 527 343 529 373 L 531 409 Z" class="stroke9"/>
    <path d="M 372 138 Q 382 137 395 138 Q 530 156 631 163 C 661 165 662 176 636 191 Q 632 195 624 196 Q 600 202 521 186 L 479 179 Q 422 173 373 164 C 343 159 342 140 372 138 Z" class="stroke10"/>
    <path d="M 372 104 Q 348 41 175 -53 Q 151 -63 179 -66 Q 260 -70 387 20 Q 421 45 438 55 Q 451 65 450 75 Q 449 88 425 102 Q 398 118 386 117 Q 377 117 372 104 Z" class="stroke11"/>
    <path d="M 599 81 Q 657 35 727 -36 Q 745 -55 761 -59 Q 770 -60 777 -49 Q 789 -36 773 9 Q 758 63 598 113 Q 588 117 587 105 Q 587 92 599 81 Z" class="stroke12"/>
    <text x="243" y="686" style="transform-origin:243px 686px; transform:scale(1,-1);">1</text>
    <text x="352" y="794" style="transform-origin:352px 794px; transform:scale(1,-1);">2</text>
    <text x="577" y="859" style="transform-origin:577px 859px; transform:scale(1,-1);">3</text>
    <text x="444" y="567" style="transform-origin:444px 567px; transform:scale(1,-1);">4</text>
    <text x="75" y="450" style="transform-origin:75px 450px; transform:scale(1,-1);">5</text>
    <text x="274" y="378" style="transform-origin:274px 378px; transform:scale(1,-1);">6</text>
    <text x="334" y="372" style="transform-origin:334px 372px; transform:scale(1,-1);">7</text>
    <text x="404" y="271" style="transform-origin:404px 271px; transform:scale(1,-1);">8</text>
    <text x="466" y="468" style="transform-origin:466px 468px; transform:scale(1,-1);">9</text>
    <text x="378" y="144" style="transform-origin:378px 144px; transform:scale(1,-1);">10</text>
    <text x="433" y="74" style="transform-origin:433px 74px; transform:scale(1,-1);">11</text>
    <text x="598" y="101" style="transform-origin:598px 101px; transform:scale(1,-1);">12</text></g>
</svg>