<svg version="1.1" viewBox="0 0 1024 1024" xmlns="http://www.w3.org/2000/svg">
  <g stroke="lightgray" stroke-dasharray="1,1" stroke-width="1" transform="scale(4, 4)">
    <line x1="0" y1="0" x2="256" y2="256"/>
    <line x1="256" y1="0" x2="0" y2="256"/>
    <line x1="128" y1="0" x2="128" y2="256"/>
    <line x1="0" y1="128" x2="256" y2="128"/>
  </g>
  <g transform="scale(1, -1) translate(0, -900)">
    <style type="text/css">
        .stroke1 {fill: #BF0909;}
        .stroke2 {fill: #BFBF09;}
        .stroke3 {fill: #09BF09;}
        .stroke4 {fill: #09BFBF;}
        .stroke5 {fill: #0909BF;}
        .stroke6 {fill: #BF09BF;}
        .stroke7 {fill: #42005e;}
        .stroke8 {fill: #ff3333;}
        .stroke9 {fill: #BFBFBF;}
        .stroke10 {fill: #00a53f;}
        .stroke11 {fill: #fff000;}
        .stroke12 {fill: #6600a5;}
        .stroke13 {fill: #0053a5;}
        .stroke14 {fill: #62c22b;}
        .stroke15 {fill: #BF09BF;}
        .stroke16 {fill: #BF0909;}
        .stroke17 {fill: #BFBF09;}
        .stroke18 {fill: #09BF09;}
        .stroke19 {fill: #09BFBF;}
        .stroke20 {fill: #0909BF;}
        text {
            font-family: Helvetica;
            font-size: 50px;
            fill: #FFFFFF;
            paint-order: stroke;
            stroke: #000000;
            stroke-width: 4px;
            stroke-linecap: butt;
            stroke-linejoin: miter;
            font-weight: 800;
        }
    </style>

    <path d="M 149 644 Q 197 674 225 694 Q 291 745 312 752 Q 331 759 322 776 Q 310 791 288 804 Q 269 817 257 814 Q 245 813 249 802 Q 250 781 161 680 Q 149 670 137 656 C 117 634 124 628 149 644 Z" class="stroke1"/>
    <path d="M 180 475 Q 177 505 167 539 L 163 563 Q 148 626 149 644 C 149 652 149 652 137 656 Q 127 660 103 664 Q 93 665 90 662 Q 86 656 93 643 Q 121 585 138 489 Q 142 461 158 441 Q 174 423 178 437 Q 179 441 180 448 L 180 475 Z" class="stroke2"/>
    <path d="M 167 539 Q 209 545 239 551 Q 258 555 249 566 Q 239 576 218 579 Q 199 579 165 566 Q 164 565 163 563 C 147 538 146 536 167 539 Z" class="stroke3"/>
    <path d="M 366 471 Q 366 467 368 460 Q 372 448 383 449 Q 393 450 400 462 Q 413 481 433 571 Q 446 611 474 636 Q 489 649 476 661 Q 463 674 422 694 Q 407 703 377 691 Q 350 688 329 680 Q 308 674 295 671 Q 283 671 281 667 Q 280 663 291 655 Q 315 643 332 650 Q 380 668 396 661 Q 406 655 400 625 Q 396 603 392 584 L 387 559 Q 377 508 370 491 L 366 471 Z" class="stroke4"/>
    <path d="M 392 584 Q 365 593 302 576 Q 290 575 304 562 Q 308 558 317 559 Q 356 560 387 559 C 417 558 421 576 392 584 Z" class="stroke5"/>
    <path d="M 370 491 Q 366 495 356 502 Q 343 509 318 503 Q 242 484 180 475 C 150 471 150 447 180 448 Q 186 448 194 449 Q 248 462 366 471 C 391 473 391 473 370 491 Z" class="stroke6"/>
    <path d="M 143 336 Q 147 349 139 356 Q 123 371 105 379 Q 92 385 83 381 Q 76 375 85 360 Q 116 306 83 131 Q 76 113 62 90 Q 52 74 59 65 Q 66 55 85 46 Q 98 39 108 53 Q 118 77 179 120 Q 201 133 211 148 Q 215 157 209 157 Q 200 157 188 150 Q 131 126 128 127 Q 119 128 122 148 Q 132 233 137 277 Q 137 311 143 336 Z" class="stroke7"/>
    <path d="M 164 332 Q 204 302 221 304 Q 228 305 230 316 Q 229 323 221 334 Q 202 353 162 348 Q 158 348 158 341 Q 158 337 164 332 Z" class="stroke8"/>
    <path d="M 154 236 Q 196 211 213 214 Q 222 215 221 229 Q 220 236 209 247 Q 191 259 151 253 Q 144 252 147 245 Q 148 241 154 236 Z" class="stroke9"/>
    <path d="M 273 266 Q 274 308 277 333 L 279 349 Q 282 385 276 392 Q 257 411 243 414 Q 233 415 229 412 Q 222 408 229 397 Q 244 370 243 346 Q 247 144 224 105 Q 214 89 222 72 Q 231 48 245 40 Q 252 34 262 49 Q 278 77 338 149 Q 350 162 350 168 Q 350 178 336 168 Q 282 135 276 135 Q 272 136 271 149 Q 271 207 273 251 L 273 266 Z" class="stroke10"/>
    <path d="M 277 333 Q 328 303 342 307 Q 349 308 350 320 Q 349 327 339 338 Q 317 354 279 349 C 255 346 255 346 277 333 Z" class="stroke11"/>
    <path d="M 273 251 Q 324 208 339 208 Q 349 209 351 222 Q 351 231 342 244 Q 321 268 276 268 Q 272 268 273 266 C 265 258 265 258 273 251 Z" class="stroke12"/>
    <path d="M 356 383 Q 375 343 376 299 Q 386 118 444 57 Q 495 2 615 -25 Q 835 -64 973 -1 Q 986 3 975 26 Q 953 72 938 138 Q 938 150 930 158 Q 923 162 919 153 Q 906 114 891 72 Q 878 33 860 28 Q 838 15 760 14 Q 667 11 610 26 Q 537 45 499 69 Q 453 102 436 151 Q 421 203 422 290 Q 421 329 430 346 Q 440 362 409 388 Q 376 419 359 415 Q 343 409 356 383 Z" class="stroke13"/>
    <path d="M 570 663 Q 603 650 641 657 Q 719 670 800 685 Q 837 692 842 697 Q 849 704 846 710 Q 840 720 817 727 Q 799 730 699 704 Q 567 688 564 684 C 535 675 542 673 570 663 Z" class="stroke14"/>
    <path d="M 648 602 L 648 603 Q 639 607 614 611 Q 607 612 604 610 Q 600 606 606 595 Q 625 553 638 486 Q 641 465 653 452 Q 665 437 668 448 Q 671 457 670 469 L 669 486 Q 666 493 662 522 L 659 540 Q 655 567 653 579 L 648 602 Z" class="stroke15"/>
    <path d="M 767 479 Q 780 457 794 451 Q 801 445 812 461 Q 819 474 838 547 Q 844 569 860 586 Q 870 595 861 605 Q 851 617 820 635 Q 807 641 760 628 Q 730 624 648 602 C 619 594 625 567 653 579 Q 657 585 772 605 Q 785 606 793 602 Q 800 598 799 586 Q 787 502 774 494 C 765 482 765 482 767 479 Z" class="stroke16"/>
    <path d="M 662 522 Q 665 522 752 540 Q 767 543 761 551 Q 754 561 736 562 Q 712 565 659 540 C 632 527 632 518 662 522 Z" class="stroke17"/>
    <path d="M 670 469 L 767 479 C 789 481 789 481 774 494 Q 767 501 751 505 Q 714 508 669 486 C 642 473 640 466 670 469 Z" class="stroke18"/>
    <path d="M 707 393 Q 707 394 708 394 Q 715 409 721 417 Q 728 421 726 427 Q 723 436 701 454 Q 694 460 687 458 Q 680 457 684 446 Q 688 433 683 418 Q 677 402 672 387 L 659 357 Q 638 312 638 309 Q 639 302 651 300 Q 690 294 709 280 L 739 264 Q 767 248 805 221 Q 821 211 832 211 Q 845 212 844 225 Q 843 237 823 263 Q 817 275 765 292 L 728 303 Q 697 312 677 315 Q 667 316 671 327 Q 681 349 691 364 L 707 393 Z" class="stroke19"/>
    <path d="M 798 410 Q 788 423 775 422 Q 765 422 766 411 Q 767 408 767 404 L 762 374 Q 761 371 759 366 Q 747 324 728 303 L 709 280 Q 667 247 603 221 Q 593 217 600 213 Q 631 204 687 226 Q 708 235 739 264 L 765 292 Q 777 310 797 346 Q 807 362 819 379 C 823 385 819 389 798 410 Z" class="stroke20"/>
    <path d="M 819 379 Q 841 380 868 381 Q 901 378 907 387 Q 910 394 899 403 Q 860 431 801 411 Q 800 411 798 410 L 767 404 Q 748 401 729 397 Q 717 396 707 393 L 672 387 Q 632 383 591 375 Q 578 374 588 362 Q 607 349 645 355 Q 651 356 659 357 L 691 364 Q 706 368 727 370 Q 742 373 762 374 L 819 379 Z" class="stroke21"/>
    <path d="M 564 684 L 564 685 Q 554 692 529 706 Q 510 716 503 709 Q 497 703 504 690 Q 541 618 520 242 Q 513 179 496 154 Q 489 141 496 123 Q 503 105 511 98 Q 520 91 535 102 Q 622 159 866 152 Q 885 151 887 161 Q 887 173 864 189 Q 852 201 734 183 Q 617 174 584 167 Q 557 166 563 209 Q 566 378 566 586 Q 566 631 570 663 C 571 679 571 679 564 684 Z" class="stroke22"/>
    <text x="310" y="767" style="transform-origin:310px 767px; transform:scale(1,-1);">1</text>
    <text x="97" y="657" style="transform-origin:97px 657px; transform:scale(1,-1);">2</text>
    <text x="174" y="546" style="transform-origin:174px 546px; transform:scale(1,-1);">3</text>
    <text x="289" y="664" style="transform-origin:289px 664px; transform:scale(1,-1);">4</text>
    <text x="313" y="570" style="transform-origin:313px 570px; transform:scale(1,-1);">5</text>
    <text x="187" y="455" style="transform-origin:187px 455px; transform:scale(1,-1);">6</text>
    <text x="89" y="374" style="transform-origin:89px 374px; transform:scale(1,-1);">7</text>
    <text x="167" y="341" style="transform-origin:167px 341px; transform:scale(1,-1);">8</text>
    <text x="157" y="245" style="transform-origin:157px 245px; transform:scale(1,-1);">9</text>
    <text x="237" y="405" style="transform-origin:237px 405px; transform:scale(1,-1);">10</text>
    <text x="288" y="344" style="transform-origin:288px 344px; transform:scale(1,-1);">11</text>
    <text x="280" y="259" style="transform-origin:280px 259px; transform:scale(1,-1);">12</text>
    <text x="363" y="402" style="transform-origin:363px 402px; transform:scale(1,-1);">13</text>
    <text x="568" y="679" style="transform-origin:568px 679px; transform:scale(1,-1);">14</text>
    <text x="610" y="603" style="transform-origin:610px 603px; transform:scale(1,-1);">15</text>
    <text x="657" y="588" style="transform-origin:657px 588px; transform:scale(1,-1);">16</text>
    <text x="663" y="527" style="transform-origin:663px 527px; transform:scale(1,-1);">17</text>
    <text x="677" y="474" style="transform-origin:677px 474px; transform:scale(1,-1);">18</text>
    <text x="692" y="450" style="transform-origin:692px 450px; transform:scale(1,-1);">19</text>
    <text x="779" y="410" style="transform-origin:779px 410px; transform:scale(1,-1);">20</text>
    <text x="597" y="367" style="transform-origin:597px 367px; transform:scale(1,-1);">21</text>
    <text x="510" y="702" style="transform-origin:510px 702px; transform:scale(1,-1);">22</text></g>
</svg>