<svg version="1.1" viewBox="0 0 1024 1024" xmlns="http://www.w3.org/2000/svg">
  <g stroke="lightgray" stroke-dasharray="1,1" stroke-width="1" transform="scale(4, 4)">
    <line x1="0" y1="0" x2="256" y2="256"/>
    <line x1="256" y1="0" x2="0" y2="256"/>
    <line x1="128" y1="0" x2="128" y2="256"/>
    <line x1="0" y1="128" x2="256" y2="128"/>
  </g>
  <g transform="scale(1, -1) translate(0, -900)">
    <style type="text/css">
        .stroke1 {fill: #BF0909;}
        .stroke2 {fill: #BFBF09;}
        .stroke3 {fill: #09BF09;}
        .stroke4 {fill: #09BFBF;}
        .stroke5 {fill: #0909BF;}
        .stroke6 {fill: #BF09BF;}
        .stroke7 {fill: #42005e;}
        .stroke8 {fill: #ff3333;}
        .stroke9 {fill: #BFBFBF;}
        .stroke10 {fill: #00a53f;}
        .stroke11 {fill: #fff000;}
        .stroke12 {fill: #6600a5;}
        .stroke13 {fill: #0053a5;}
        .stroke14 {fill: #62c22b;}
        .stroke15 {fill: #BF09BF;}
        .stroke16 {fill: #BF0909;}
        .stroke17 {fill: #BFBF09;}
        .stroke18 {fill: #09BF09;}
        .stroke19 {fill: #09BFBF;}
        .stroke20 {fill: #0909BF;}
        text {
            font-family: Helvetica;
            font-size: 50px;
            fill: #FFFFFF;
            paint-order: stroke;
            stroke: #000000;
            stroke-width: 4px;
            stroke-linecap: butt;
            stroke-linejoin: miter;
            font-weight: 800;
        }
    </style>

    <path d="M 346 566 Q 350 618 353 667 L 356 698 Q 356 704 369 783 Q 372 792 355 804 Q 325 820 304 823 Q 291 826 284 818 Q 277 812 285 799 Q 301 780 301 764 Q 311 670 311 557 C 311 527 344 536 346 566 Z" class="stroke1"/>
    <path d="M 353 667 Q 354 668 357 667 Q 394 664 492 696 Q 492 697 493 697 Q 500 704 495 711 Q 488 720 465 724 Q 453 725 356 698 C 327 690 323 667 353 667 Z" class="stroke2"/>
    <path d="M 236 537 Q 232 645 230 648 Q 227 652 224 654 Q 205 667 182 674 Q 169 678 163 672 Q 156 668 162 655 Q 180 634 202 529 C 208 500 237 507 236 537 Z" class="stroke3"/>
    <path d="M 378 542 Q 430 555 496 567 Q 509 568 510 576 Q 511 586 495 594 Q 471 603 452 597 Q 394 581 346 566 L 311 557 Q 268 547 236 537 L 202 529 Q 171 523 158 519 Q 106 509 62 501 Q 52 500 49 493 Q 48 484 60 475 Q 96 453 129 465 Q 166 480 201 491 L 219 497 Q 274 521 358 538 L 378 542 Z" class="stroke4"/>
    <path d="M 201 491 Q 201 490 202 488 Q 211 437 150 368 Q 137 353 129 344 Q 123 334 133 337 Q 169 343 218 409 L 228 425 Q 241 444 254 461 Q 261 468 252 479 Q 228 497 219 497 C 198 502 198 502 201 491 Z" class="stroke5"/>
    <path d="M 218 409 Q 249 370 271 369 Q 280 369 284 382 Q 284 391 277 404 Q 265 419 228 425 C 202 429 202 429 218 409 Z" class="stroke6"/>
    <path d="M 384 456 Q 387 468 414 511 Q 420 520 409 529 Q 396 536 382 542 Q 379 543 378 542 C 357 545 357 545 358 538 Q 357 537 359 531 Q 371 477 327 415 Q 317 402 312 392 Q 308 382 317 386 Q 333 389 372 438 L 384 456 Z" class="stroke7"/>
    <path d="M 372 438 Q 408 405 427 407 Q 437 408 438 422 Q 437 431 428 443 Q 422 449 384 456 C 355 462 350 458 372 438 Z" class="stroke8"/>
    <path d="M 227 292 Q 383 331 397 344 Q 401 351 399 356 Q 393 363 372 367 Q 351 370 331 360 Q 300 347 264 335 Q 225 322 179 315 Q 154 308 173 298 Q 185 294 200 291 L 227 292 Z" class="stroke9"/>
    <path d="M 225 216 Q 225 219 252 264 Q 258 273 248 281 Q 238 287 227 292 C 200 305 200 305 200 291 Q 199 290 200 284 Q 212 236 165 171 Q 153 156 148 148 Q 144 138 153 142 Q 177 146 215 200 L 225 216 Z" class="stroke10"/>
    <path d="M 215 200 Q 243 167 256 166 Q 265 166 268 177 Q 269 184 263 196 Q 253 211 225 216 C 197 221 197 221 215 200 Z" class="stroke11"/>
    <path d="M 358 232 Q 358 236 384 282 Q 388 289 380 297 Q 355 313 339 310 Q 332 309 335 300 Q 347 248 301 184 Q 289 168 284 159 Q 280 150 288 154 Q 310 157 350 217 L 358 232 Z" class="stroke12"/>
    <path d="M 350 217 Q 380 184 393 182 Q 400 182 404 192 Q 405 199 399 210 Q 387 228 358 232 C 333 236 333 236 350 217 Z" class="stroke13"/>
    <path d="M 418 161 Q 255 127 135 78 Q 119 74 123 93 Q 130 156 136 222 Q 140 244 130 258 Q 115 274 92 288 Q 82 294 71 291 Q 61 287 69 269 Q 97 205 86 143 Q 79 83 54 56 Q 38 38 46 26 Q 58 11 74 2 Q 87 -5 97 4 Q 124 40 309 99 Q 388 124 407 119 C 437 119 447 167 418 161 Z" class="stroke14"/>
    <path d="M 407 119 Q 407 97 419 74 Q 426 61 435 70 Q 454 91 458 153 Q 467 237 478 257 Q 485 269 477 279 Q 462 292 438 306 Q 428 312 419 307 Q 413 304 415 294 Q 431 264 418 161 L 407 119 Z" class="stroke15"/>
    <path d="M 647 211 Q 648 305 648 393 L 648 425 Q 648 521 661 585 Q 664 595 645 607 Q 612 623 590 626 Q 575 627 568 620 Q 561 613 570 600 Q 595 566 596 542 Q 611 382 609 193 C 609 163 647 181 647 211 Z" class="stroke16"/>
    <path d="M 648 393 Q 684 406 713 414 Q 732 421 722 430 Q 712 440 690 439 Q 672 439 648 425 C 622 410 620 383 648 393 Z" class="stroke17"/>
    <path d="M 567 175 Q 558 292 562 329 Q 563 348 552 357 Q 533 372 509 379 Q 497 383 490 377 Q 484 373 490 359 Q 514 317 534 159 C 538 129 569 145 567 175 Z" class="stroke18"/>
    <path d="M 534 159 Q 524 156 515 151 Q 502 145 479 142 Q 469 141 469 132 Q 469 122 477 117 Q 496 108 521 97 Q 530 96 537 104 Q 553 122 679 203 Q 695 213 707 225 Q 716 232 715 239 Q 711 242 702 239 Q 674 226 647 211 L 609 193 Q 588 186 567 175 L 534 159 Z" class="stroke19"/>
    <path d="M 772 364 Q 823 385 852 401 Q 921 438 940 443 Q 961 450 953 468 Q 943 486 920 502 Q 899 518 887 517 Q 875 517 877 504 Q 878 477 823 428 Q 799 406 772 381 C 750 361 744 353 772 364 Z" class="stroke20"/>
    <path d="M 772 381 Q 772 567 800 661 Q 807 694 807 699 Q 803 706 797 711 Q 772 733 736 742 Q 720 746 711 737 Q 704 730 710 720 Q 737 696 737 583 Q 713 121 760 82 Q 797 34 938 57 Q 941 58 946 59 Q 974 68 988 78 Q 1004 91 989 122 Q 973 174 969 242 Q 969 252 962 260 Q 953 266 949 244 Q 907 111 893 104 Q 890 104 888 102 Q 837 87 805 102 Q 795 105 789 115 Q 770 154 772 364 L 772 381 Z" class="stroke21"/>
    <text x="295" y="809" style="transform-origin:295px 809px; transform:scale(1,-1);">1</text>
    <text x="355" y="675" style="transform-origin:355px 675px; transform:scale(1,-1);">2</text>
    <text x="171" y="663" style="transform-origin:171px 663px; transform:scale(1,-1);">3</text>
    <text x="59" y="491" style="transform-origin:59px 491px; transform:scale(1,-1);">4</text>
    <text x="206" y="491" style="transform-origin:206px 491px; transform:scale(1,-1);">5</text>
    <text x="230" y="407" style="transform-origin:230px 407px; transform:scale(1,-1);">6</text>
    <text x="364" y="535" style="transform-origin:364px 535px; transform:scale(1,-1);">7</text>
    <text x="385" y="436" style="transform-origin:385px 436px; transform:scale(1,-1);">8</text>
    <text x="174" y="307" style="transform-origin:174px 307px; transform:scale(1,-1);">9</text>
    <text x="207" y="288" style="transform-origin:207px 288px; transform:scale(1,-1);">10</text>
    <text x="231" y="206" style="transform-origin:231px 206px; transform:scale(1,-1);">11</text>
    <text x="345" y="302" style="transform-origin:345px 302px; transform:scale(1,-1);">12</text>
    <text x="365" y="223" style="transform-origin:365px 223px; transform:scale(1,-1);">13</text>
    <text x="77" y="281" style="transform-origin:77px 281px; transform:scale(1,-1);">14</text>
    <text x="426" y="298" style="transform-origin:426px 298px; transform:scale(1,-1);">15</text>
    <text x="579" y="611" style="transform-origin:579px 611px; transform:scale(1,-1);">16</text>
    <text x="654" y="398" style="transform-origin:654px 398px; transform:scale(1,-1);">17</text>
    <text x="498" y="369" style="transform-origin:498px 369px; transform:scale(1,-1);">18</text>
    <text x="481" y="130" style="transform-origin:481px 130px; transform:scale(1,-1);">19</text>
    <text x="886" y="508" style="transform-origin:886px 508px; transform:scale(1,-1);">20</text>
    <text x="720" y="728" style="transform-origin:720px 728px; transform:scale(1,-1);">21</text></g>
</svg>